<?xml version="1.0" encoding="UTF-8" standalone="no"?>
<svg
   xmlns:dc="http://purl.org/dc/elements/1.1/"
   xmlns:cc="http://creativecommons.org/ns#"
   xmlns:rdf="http://www.w3.org/1999/02/22-rdf-syntax-ns#"
   xmlns:svg="http://www.w3.org/2000/svg"
   xmlns="http://www.w3.org/2000/svg"
   xmlns:sodipodi="http://sodipodi.sourceforge.net/DTD/sodipodi-0.dtd"
   xmlns:inkscape="http://www.inkscape.org/namespaces/inkscape"
   width="22"
   height="22"
   version="1"
   id="svg14"
   sodipodi:docname="folder-blue-applications@22x22.svg"
   inkscape:version="0.92.5 (2060ec1f9f, 2020-04-08)">
  <metadata
     id="metadata20">
    <rdf:RDF>
      <cc:Work
         rdf:about="">
        <dc:format>image/svg+xml</dc:format>
        <dc:type
           rdf:resource="http://purl.org/dc/dcmitype/StillImage" />
        <dc:title></dc:title>
      </cc:Work>
    </rdf:RDF>
  </metadata>
  <defs
     id="defs18" />
  <sodipodi:namedview
     pagecolor="#ffffff"
     bordercolor="#666666"
     borderopacity="1"
     objecttolerance="10"
     gridtolerance="10"
     guidetolerance="10"
     inkscape:pageopacity="0"
     inkscape:pageshadow="2"
     inkscape:window-width="1280"
     inkscape:window-height="745"
     id="namedview16"
     showgrid="true"
     inkscape:zoom="15.170655"
     inkscape:cx="4.6761109"
     inkscape:cy="9.9078558"
     inkscape:window-x="-12"
     inkscape:window-y="-2"
     inkscape:window-maximized="1"
     inkscape:current-layer="svg14">
    <inkscape:grid
       type="xygrid"
       id="grid827" />
  </sodipodi:namedview>
  <rect
     style="opacity:0.2"
     width="20"
     height="12"
     x="1"
     y="8.5"
     rx="1"
     ry="1"
     id="rect2" />
  <path
     style="fill:#147eb8"
     d="M 1,16 C 1,16.554 1.446,17 2,17 H 20 C 20.554,17 21,16.554 21,16 V 5 C 21,4.446 20.554,4 20,4 H 11 C 9.5,4 9,2 7.5,2 H 2 C 1.446,2 1,2.446 1,3"
     id="path4" />
  <path
     style="opacity:0.1;fill:#ffffff"
     d="M 2,2 C 1.446,2 1,2.446 1,3 V 3.5 C 1,2.946 1.446,2.5 2,2.5 H 7.5 C 9,2.5 9.5,4.5 11,4.5 H 20 C 20.554,4.5 21,4.946 21,5.5 V 5 C 21,4.446 20.554,4 20,4 H 11 C 9.5,4 9,2 7.5,2 Z"
     id="path6" />
  <rect
     style="opacity:0.2"
     width="20"
     height="12"
     x="1"
     y="7.5"
     rx="1"
     ry="1"
     id="rect8" />
  <rect
     style="fill:#e4e4e4"
     width="16"
     height="8"
     x="3"
     y="6"
     rx="1"
     ry="1"
     id="rect10" />
  <rect
     style="fill:#57b8ec"
     width="20"
     height="12"
     x="1"
     y="8"
     rx="1"
     ry="1"
     id="rect12" />
  <path
     inkscape:connector-curvature="0"
     style="opacity:1;vector-effect:none;fill:#106796;fill-opacity:1;stroke-width:3;stroke-linecap:round;stroke-linejoin:round;stroke-miterlimit:4;stroke-dasharray:none;paint-order:stroke fill markers"
     d="m 8,10 c -0.554,0 -1,0.446 -1,1 v 1 c 0,0.554 0.446,1 1,1 h 1 c 0.554,0 1,-0.446 1,-1 V 11 C 10,10.446 9.554,10 9,10 Z m 5,0 c -0.554,0 -1,0.446 -1,1 v 1 c 0,0.554 0.446,1 1,1 h 1 c 0.554,0 1,-0.446 1,-1 v -1 c 0,-0.554 -0.446,-1 -1,-1 z m -5,5 c -0.554,0 -1,0.446 -1,1 v 1 c 0,0.554 0.446,1 1,1 h 1 c 0.554,0 1,-0.446 1,-1 V 16 C 10,15.446 9.554,15 9,15 Z m 5.5,0 C 13.223,15 13,15.223 13,15.5 V 16 h -0.5 a 0.50005,0.50005 0 0 0 -0.353516,0.853516 l 1,1 a 0.50005,0.50005 0 0 0 0.707032,0 l 1,-1 A 0.50005,0.50005 0 0 0 14.5,16 H 14 V 15.5 C 14,15.223 13.777,15 13.5,15 Z"
     id="rect837" />
</svg>
