<?xml version="1.0" encoding="UTF-8" standalone="no"?>
<svg id="svg2817" xmlns:rdf="http://www.w3.org/1999/02/22-rdf-syntax-ns#" xmlns="http://www.w3.org/2000/svg" height="22" width="22" version="1.0" xmlns:cc="http://creativecommons.org/ns#" xmlns:dc="http://purl.org/dc/elements/1.1/">
 <metadata id="metadata57">
  <rdf:RDF>
   <cc:Work rdf:about="">
    <dc:format>image/svg+xml</dc:format>
    <dc:type rdf:resource="http://purl.org/dc/dcmitype/StillImage"/>
    <dc:title/>
   </cc:Work>
  </rdf:RDF>
 </metadata>
 <g id="layer4-0" transform="matrix(.90475 0 0 .90475 -716.75 -678.29)">
 </g>
 <g id="layer4-0-7" transform="matrix(.90475 0 0 .90475 -716.75 -671.05)">
 </g>
 <text id="text7276" font-size="12.666px" xml:space="preserve" y="-363.22546" x="435.90427" font-family="&apos;Droid Sans&apos;" fill="#000000"><tspan id="tspan7278" y="-363.22546" x="435.90427"/><tspan id="tspan7280" y="-347.3924" x="435.90427"/></text>
 <path id="path5564" fill="#5895dc" d="m1 17.002v-14c0-0.5536 0.4494-1.0608 1-0.9996h7.9999l2 2h8.0514s0.94874 0 0.94874 0.99999v12c0 0.55399-0.44599 0.99999-0.99999 0.99999h-18c-0.55399 0-0.99999-0.446-0.99999-0.99999z"/>
 <path id="path5566" fill="#6ba4e7" d="m21 19.002v-14c0-0.55399-0.44938-1.0612-0.99999-0.99999h-7.9999l-2 2h-7.9999c-1 0.0004-1 0.9587-1 0.9587v12.041c0 0.55399 0.44599 0.99999 0.99999 0.99999h18c0.55399 0 0.99999-0.446 0.99999-0.99999z"/>
 <path id="path5568" opacity=".1" fill="#fff" d="m2 2.0025c-0.554 0-1 0.4459-1 0.9999v0.5c0-0.554 0.446-1 1-1h7.9999l2 2v-0.49999l-2-2z"/>
 <path id="path5570" opacity=".1" fill="#fff" d="m12 4.0024-2 2h-7.9999c-1.0001 0-1.0001 0.9531-1.0001 0.9531v0.49999s0-0.95309 0.99999-0.95309h7.9999l2-2h7.9999c0.55059-0.061199 0.99999 0.44599 0.99999 0.99999v-0.49999c0-0.55399-0.44938-1.0612-0.99999-0.99999h-7.9999z"/>
 <path id="path5622" opacity=".1" d="m11.5 4.0024-1.5 1.5h-7.9999c-1.0001 0-1.0001 0.9531-1.0001 0.9531v0.49999s0-0.95309 0.99999-0.95309h7.9999l1.75-1.75z"/>
 <path id="path4439" opacity=".2" d="m1 18.997v0.50294c0 0.554 0.446 1 1 1h18c0.55399 0 0.99999-0.446 0.99999-0.99999v-0.50299c0 0.55399-0.44599 0.99999-0.99999 0.99999h-18c-0.554 0-1-0.446-1-1z"/>
 <path id="path6214" opacity=".65" style="enable-background:new" d="m11 9c-2.2091 0-4 1.7909-4 4s1.7909 4 4 4 4-1.7909 4-4-1.7909-4-4-4zm-0.28572 1.1071c0.03823-0.004 0.08642 0.0023 0.12501 0 0.0046 0.01829-0.02783 0.08336-0.07143 0.17857-0.27763 0.60651-0.29338 1.3168-0.03571 1.6965 0.04663 0.06883 0.08929 0.13434 0.08929 0.14286 0 0.0085-0.05029 0.01783-0.10714 0.01783-0.13347 0-0.25978-0.08135-0.51785-0.28571-0.11465-0.09079-0.26368-0.16704-0.32143-0.17858-0.090674-0.01811-0.11485-0.01017-0.23215 0.10714-0.10913 0.10912-0.14286 0.16795-0.14286 0.26786 0 0.37882 0.44976 0.67994 1.2857 0.85714 1.1353 0.24062 1.4151 0.45664 1.4464 1.0536 0.03931 0.74857-0.3592 1.313-1.2321 1.7499-0.10419 0.05217-0.17057 0.07242-0.21429 0.08929-0.01937-0.0017-0.03423 0.0017-0.05354 0-0.0074-0.02314-0.01783-0.07683-0.01783-0.17857 0-0.39759-0.15671-0.80686-0.39284-1.0357-0.06339-0.06144-0.24087-0.19163-0.39287-0.28571-0.15198-0.09408-0.30512-0.20337-0.33929-0.25-0.056629-0.07738-0.061337-0.12491-0.017829-0.26786 0.079291-0.26107 0.17367-0.40647 0.35714-0.57143 0.096194-0.08648 0.19298-0.159 0.21429-0.16071 0.02131-0.0017-0.12295-0.04503-0.33929-0.08929-0.21633-0.04434-0.53278-0.13721-0.6964-0.19644-0.29919-0.10826-0.70314-0.33552-0.85714-0.5-0.00651-0.007-0.012171-0.01166-0.017829-0.01783 0.22064-0.87891 0.83983-1.5992 1.6607-1.9464 0.17175-0.07265 0.34881-0.12249 0.53571-0.16071 0.0931-0.01903 0.18959-0.02594 0.28572-0.03571zm2.6786 1.3393c0.06711 0.04149 0.32053 0.58972 0.39286 0.85714 0.09339 0.34526 0.08663 0.94274 0 1.2857-0.03297 0.13054-0.07523 0.25266-0.08929 0.26786s-0.06504-0.07231-0.12501-0.17857c-0.05998-0.10625-0.25152-0.33202-0.41072-0.5-0.45951-0.48487-0.53177-0.73806-0.33929-1.125 0.09706-0.19513 0.51948-0.6392 0.57143-0.60714z"/>
</svg>
