<?xml version="1.0" encoding="UTF-8" standalone="no"?>
<svg xmlns="http://www.w3.org/2000/svg" height="22" width="22" version="1.1">
 <rect ry="1" rx="1" transform="matrix(0,-1,-1,0,0,0)" height="20" width="20" y="-21" x="-21" fill="#2c9bff"/>
 <path opacity=".2" fill="#fff" d="m2 1c-0.554 0-1 0.446-1 1v0.5c0-0.554 0.446-1 1-1h18c0.554 0 1 0.446 1 1v-0.5c0-0.554-0.446-1-1-1h-18z"/>
 <path opacity=".2" d="m2 21.5c-0.554 0-1-0.446-1-1v-0.5c0 0.554 0.446 1 1 1h18c0.554 0 1-0.446 1-1v0.5c0 0.554-0.446 1-1 1h-18z"/>
 <path opacity=".2" style="color:#31363b" d="m12.328 3.5-2.8125 0.25586v10.955l2.7812-0.39844v-4.6699l3.7422 5.1816 2.9316-0.88086-3.832-4.9831 3.861-4.6992-2.99-0.6484-3.713 4.6992 0.031-4.8125zm-6.373 2.666v0.0039c-0.031787 0-0.065915 0.01216-0.089844 0.03516l-1.1054 1.0449c-0.046413 0.044-0.051658 0.11076-0.017578 0.16406l1.291 2.0176c-0.22929 0.3647-0.4158 0.75522-0.54688 1.1699l-2.373 0.4668c-0.066 0.012-0.1133 0.072-0.1133 0.136v1.4766c0 0.062 0.04938 0.11616 0.11328 0.13086l2.3008 0.5293c0.123 0.4801 0.31292 0.93892 0.56445 1.3574l-1.332 1.9199c-0.037193 0.054-0.030369 0.12462 0.017578 0.16992l1.1055 1.0469c0.046553 0.044 0.11761 0.04762 0.17383 0.01562l2.0897-1.2c0.40995 0.2239 0.85276 0.40404 1.3203 0.52344l0.48828 2.2168c0.0136 0.064 0.0691 0.108 0.1367 0.108h1.5625c0.06554 0 0.12115-0.04126 0.13672-0.10156l0.57812-2.2285c0.48221-0.123 0.93691-0.30486 1.3574-0.53906l2.0586 1.2773c0.05679 0.035 0.1335 0.02937 0.18164-0.01563l1.0977-1.0469c0.0467-0.044 0.05959-0.11086 0.02539-0.16406l-0.75195-1.1699-0.24609 0.07422c-0.03555 0.01-0.07456-0.0012-0.0957-0.03516 0 0-0.47489-0.65852-1.0938-1.5156-0.74013 1.3701-2.2479 2.3066-3.9863 2.3066-2.4703 0-4.4746-1.8975-4.4746-4.2344 0-1.7191 1.0865-3.195 2.6426-3.8574v-1.0898c-0.2837 0.095-0.5588 0.2068-0.8189 0.3408-0.000326-0.0002 0.0005333-0.0098 0-0.0098l-2.1074-1.3066c-0.028353-0.018-0.05806-0.02058-0.089844-0.01758z"/>
 <path d="m12.328 3-2.8125 0.25586v10.955l2.7812-0.39844v-4.6699l3.7422 5.1816 2.9316-0.88086-3.832-4.9831 3.861-4.6992-2.99-0.6484-3.713 4.6992 0.031-4.8125zm-6.373 2.666v0.0039c-0.031787 0-0.065915 0.01216-0.089844 0.03516l-1.1054 1.0449c-0.046413 0.044-0.051658 0.11076-0.017578 0.16406l1.291 2.0176c-0.22929 0.3647-0.4158 0.75522-0.54688 1.1699l-2.373 0.4668c-0.066 0.012-0.1133 0.072-0.1133 0.136v1.4766c0 0.062 0.04938 0.11616 0.11328 0.13086l2.3008 0.5293c0.123 0.4801 0.31292 0.93892 0.56445 1.3574l-1.332 1.9199c-0.037193 0.054-0.030369 0.12462 0.017578 0.16992l1.1055 1.0469c0.046553 0.044 0.11761 0.04762 0.17383 0.01562l2.0897-1.2c0.40995 0.2239 0.85276 0.40404 1.3203 0.52344l0.48828 2.2168c0.0136 0.064 0.0691 0.108 0.1367 0.108h1.5625c0.06554 0 0.12115-0.04126 0.13672-0.10156l0.57812-2.2285c0.48221-0.123 0.93691-0.30486 1.3574-0.53906l2.0586 1.2773c0.05679 0.035 0.1335 0.02937 0.18164-0.01563l1.0977-1.0469c0.0467-0.044 0.05959-0.11086 0.02539-0.16406l-0.75195-1.1699-0.24609 0.07422c-0.03555 0.01-0.07456-0.0012-0.0957-0.03516 0 0-0.47489-0.65852-1.0938-1.5156-0.74013 1.3701-2.2479 2.3066-3.9863 2.3066-2.4703 0-4.4746-1.8975-4.4746-4.2344 0-1.7191 1.0865-3.195 2.6426-3.8574v-1.0898c-0.2837 0.095-0.5588 0.2068-0.8189 0.3408-0.000326-0.0002 0.0005333-0.0098 0-0.0098l-2.1074-1.3066c-0.028353-0.018-0.05806-0.02058-0.089844-0.01758z" fill="#fff"/>
</svg>
