<svg xmlns="http://www.w3.org/2000/svg" width="22" height="22" version="1.1">
 <defs>
  <style id="current-color-scheme" type="text/css">
   .ColorScheme-Text { color:#444444; } .ColorScheme-Highlight { color:#4285f4; } .ColorScheme-NeutralText { color:#ff9800; } .ColorScheme-PositiveText { color:#4caf50; } .ColorScheme-NegativeText { color:#f44336; }
  </style>
 </defs>
 <path style="fill:currentColor" class="ColorScheme-Text" d="m 16,9 h 1 v 3 h -1 z"/>
 <path style="fill:currentColor" class="ColorScheme-Text" d="m 5,9 h 1 v 3 H 5 Z"/>
 <path style="fill:currentColor" class="ColorScheme-Text" d="m 16,16 h 1 v 2 h -1 z"/>
 <path style="fill:currentColor" class="ColorScheme-Text" d="m 5,16 h 1 v 2 H 5 Z"/>
 <path style="fill:currentColor" class="ColorScheme-Text" d="M 4,4 C 3.446,4 3,4.446 3,5 v 4 c 0,0.554 0.446,1 1,1 h 14 c 0.554,0 1,-0.446 1,-1 V 5 C 19,4.446 18.554,4 18,4 Z m 12,2 a 1,1 0 0 1 1,1 1,1 0 0 1 -1,1 1,1 0 0 1 -1,-1 1,1 0 0 1 1,-1 z"/>
 <path style="fill:currentColor" class="ColorScheme-Text" d="m 4,11 c -0.554,0 -1,0.446 -1,1 v 4 c 0,0.554 0.446,1 1,1 h 14 c 0.554,0 1,-0.446 1,-1 v -4 c 0,-0.554 -0.446,-1 -1,-1 z m 12,2 a 1,1 0 0 1 1,1 1,1 0 0 1 -1,1 1,1 0 0 1 -1,-1 1,1 0 0 1 1,-1 z"/>
</svg>
