<svg xmlns="http://www.w3.org/2000/svg" width="22" height="22" version="1.1">
 <defs>
  <style id="current-color-scheme" type="text/css">
   .ColorScheme-Text { color:#444444; } .ColorScheme-Highlight { color:#4285f4; } .ColorScheme-NeutralText { color:#ff9800; } .ColorScheme-PositiveText { color:#4caf50; } .ColorScheme-NegativeText { color:#f44336; }
  </style>
 </defs>
 <path style="fill:currentColor" class="ColorScheme-Text" d="M 4,5 C 4,5 3,5 3,6 v 10 c 0,1 1,1 1,1 h 2 l 1,1 h 7 l 1,-1 h 2 c 0,0 1,0.13 1,-1 V 6 C 18,5 17,5 17,5 Z M 5,7 H 6 V 9 H 7 V 7 H 8 V 9 H 9 V 7 h 1 v 2 h 1 V 7 h 1 v 2 h 1 V 7 h 1 v 2 h 1 V 7 h 1 v 8 h -2 l -1,1 H 8 L 7,15 H 5 Z"/>
</svg>
