<?xml version="1.0" encoding="UTF-8" standalone="no"?>
<svg
   xmlns:osb="http://www.openswatchbook.org/uri/2009/osb"
   xmlns:dc="http://purl.org/dc/elements/1.1/"
   xmlns:cc="http://creativecommons.org/ns#"
   xmlns:rdf="http://www.w3.org/1999/02/22-rdf-syntax-ns#"
   xmlns:svg="http://www.w3.org/2000/svg"
   xmlns="http://www.w3.org/2000/svg"
   width="24"
   version="1.1"
   style="enable-background:new"
   id="svg7384"
   height="24">
  <metadata
     id="metadata90">
    <rdf:RDF>
      <cc:Work
         rdf:about="">
        <dc:format>image/svg+xml</dc:format>
        <dc:type
           rdf:resource="http://purl.org/dc/dcmitype/StillImage" />
        <dc:title>Paper Symbolic Icon Theme</dc:title>
      </cc:Work>
    </rdf:RDF>
  </metadata>
  <title
     id="title8473">Paper Symbolic Icon Theme</title>
  <defs
     id="defs7386">
    <linearGradient
       osb:paint="solid"
       id="linearGradient5606">
      <stop
         style="stop-color:#ffffff;stop-opacity:1;"
         offset="0"
         id="stop5608" />
    </linearGradient>
    <filter
       style="color-interpolation-filters:sRGB"
       id="filter7554">
      <feBlend
         mode="darken"
         in2="BackgroundImage"
         id="feBlend7556" />
    </filter>
  </defs>
  <g
     transform="translate(-265.0002,421)"
     style="display:inline"
     id="layer9">
    <path
       id="path4198"
       d="m 271.63556,-416.36192 a 9,9 0 0 0 0,12.72656 9,9 0 0 0 12.72656,0 l -1.41406,-1.41406 a 7,7 0 0 1 -9.89844,0 7,7 0 0 1 0,-9.89844 l -1.41406,-1.41406 z m 2.10351,2.17383 a 6,6 0 0 0 -1.39453,3.37109 l 4.76563,0 -3.3711,-3.37109 z m -1.40234,4.37109 a 6,6 0 0 0 1.40234,3.37109 l 3.3711,-3.37109 -4.77344,0 z m 5.48047,0.70703 -3.37109,3.3711 a 6,6 0 0 0 3.37109,1.39453 l 0,-4.76563 z m 1,0 0,4.77344 a 6,6 0 0 0 3.37109,-1.40234 l -3.37109,-3.3711 z"
       style="opacity:1;fill:#ffffff;fill-opacity:1;stroke:none;stroke-width:10;stroke-linecap:round;stroke-linejoin:round;stroke-miterlimit:4;stroke-dasharray:none;stroke-opacity:1" />
  </g>
  <g
     transform="translate(-265.0002,421)"
     style="display:inline;filter:url(#filter7554)"
     id="layer10" />
  <g
     transform="translate(-24,-196)"
     style="display:inline"
     id="layer1" />
  <g
     transform="translate(-265.0002,421)"
     style="display:inline"
     id="layer14" />
  <g
     transform="translate(-265.0002,421)"
     style="display:inline"
     id="layer15" />
  <g
     transform="translate(-265.0002,421)"
     style="display:inline"
     id="g71291" />
  <g
     transform="translate(-24,-46)"
     style="display:inline"
     id="layer2" />
  <g
     transform="translate(-24,-46)"
     style="display:inline"
     id="g6058" />
  <g
     transform="translate(-265.0002,421)"
     style="display:inline"
     id="layer12" />
</svg>
