<?xml version="1.0" encoding="UTF-8" standalone="no"?>
<svg id="svg2" xmlns:rdf="http://www.w3.org/1999/02/22-rdf-syntax-ns#" xmlns="http://www.w3.org/2000/svg" viewBox="0 0 26.181818 26.181818" width="24" version="1.1" xmlns:cc="http://creativecommons.org/ns#" height="24" xmlns:dc="http://purl.org/dc/elements/1.1/">
 <metadata id="metadata14">
  <rdf:RDF>
   <cc:Work rdf:about="">
    <dc:format>image/svg+xml</dc:format>
    <dc:type rdf:resource="http://purl.org/dc/dcmitype/StillImage"/>
    <dc:title/>
   </cc:Work>
  </rdf:RDF>
 </metadata>
 <path id="path6-1" d="m15.818 4.3636a6 6 0 0 0 -6 6 6 6 0 0 0 6 6 6 6 0 0 0 6 -6 6 6 0 0 0 -6 -6zm0.35156 2.6974a2.7273 2.1818 45 0 1 2.0241 0.92685 2.7273 2.1818 45 0 1 0.38565 3.4709 2.7273 2.1818 45 0 1 -3.4709 -0.38565 2.7273 2.1818 45 0 1 -0.38565 -3.4709 2.7273 2.1818 45 0 1 1.4467 -0.54119zm-7.153 5.288-4.3338 4.334a1.091 1.091 0 0 0 -0.3196 0.772v3.2727a1.091 1.091 0 0 0 1.0909 1.0909h3.2727a1.091 1.091 0 0 0 1.0909 -1.0909v-2.1818h2.1818a1.091 1.091 0 0 0 1.0909 -1.0909v-0.54972c-0.84327-0.35346-1.6036-0.86618-2.2457-1.5l-3.72 3.72a0.81887 0.81887 0 0 1 -1.1591 -1.157l3.8502-3.85c-0.3427-0.544-0.6139-1.138-0.7991-1.769z" fill="#fff"/>
</svg>
