<?xml version="1.0" encoding="UTF-8" standalone="no"?>
<svg xmlns:dc="http://purl.org/dc/elements/1.1/" xmlns:cc="http://creativecommons.org/ns#" xmlns:rdf="http://www.w3.org/1999/02/22-rdf-syntax-ns#" xmlns:svg="http://www.w3.org/2000/svg" xmlns="http://www.w3.org/2000/svg" version="1.1" id="svg5061" viewBox="0 0 24 24.000001" height="24" width="24">
    <metadata id="metadata5066">
        <rdf:RDF>
            <cc:Work rdf:about="">
                <dc:format>
                    image/svg+xml
                </dc:format>
                <dc:type rdf:resource="http://purl.org/dc/dcmitype/StillImage"/>
                <dc:title/>
            </cc:Work>
        </rdf:RDF>
    </metadata>
    <g transform="translate(0,-1028.3622)" id="layer1">
        <g transform="translate(1,-1.0000493)" id="g4135">
            <path style="opacity:1;fill:#ffffff;fill-opacity:1" d="m 8.1757792,1035.3627 c 0,0 -1.98045,-0.043 -4.07812,1.4981 0,0 -2.09766,3.7308 -2.09766,8.3261 0,0 1.22401,2.075 4.44336,2.1758 0,0 0.53954,-0.6342 0.97656,-1.1816 -1.85004,-0.5474 -2.55078,-1.6856 -2.55078,-1.6856 0,0 0.14598,0.1021 0.4082,0.2461 0.0145,0 0.0295,0.013 0.0586,0.027 0.0437,0.029 0.0872,0.043 0.13086,0.072 0.36418,0.2017 0.72939,0.3606 1.06445,0.4902 0.59726,0.2449 1.3103,0.4607 2.14063,0.6192 1.0925503,0.2016 2.3749698,0.2749 3.7734298,0.016 0.68464,-0.1297 1.38297,-0.3186 2.11133,-0.6211 0.50984,-0.1873 1.07852,-0.4607 1.67578,-0.8496 0,0 -0.72843,1.1681 -2.63672,1.7011 0.437,0.533 0.96094,1.1524 0.96094,1.1524 3.21934,-0.1008 4.44336,-2.1765 4.44336,-2.1621 0,-4.5954 -2.09766,-8.3262 -2.09766,-8.3262 -2.0831,-1.5414 -4.07812,-1.498 -4.07812,-1.498 l -0.20508,0.2305 c 2.47641,0.7347 3.62695,1.8164 3.62695,1.8164 -1.51498,-0.8067 -3.00088,-1.2107 -4.38476,-1.3692 -1.04884,-0.1153 -2.0528195,-0.088 -2.9414098,0.027 -0.0874,0 -0.16064,0.015 -0.24804,0.029 -0.50985,0.058 -1.74797,0.2312 -3.30665,0.9082 -0.53899,0.2305 -0.85937,0.4024 -0.85937,0.4024 0,0 1.19431,-1.1364 3.81641,-1.8711 l -0.14649,-0.1739 z m -0.67578,5 c 0.83816,0 1.5146,0.6682 1.5,1.5 0,0.8318 -0.66184,1.5 -1.5,1.5 -0.82345,0 -1.5,-0.6682 -1.5,-1.5 0,-0.8318 0.66186,-1.5 1.5,-1.5 z m 5.9999998,0 c 0.8235,0 1.5,0.6682 1.5,1.5 0,0.8318 -0.66179,1.5 -1.5,1.5 -0.82353,0 -1.5,-0.6682 -1.5,-1.5 0,-0.8318 0.66177,-1.5 1.5,-1.5 z" id="path5621"/>
            <circle style="opacity:1;fill:#5294e2;fill-opacity:1;stroke:none;stroke-width:1;stroke-linecap:round;stroke-linejoin:round;stroke-miterlimit:4;stroke-dasharray:none;stroke-opacity:1" id="path4167" cx="20" cy="1037.3622" r="2.0000002"/>
        </g>
    </g>
</svg>
