<?xml version="1.0"?>
<svg xmlns="http://www.w3.org/2000/svg" height="24" width="24" version="1.1" viewBox="0 0 24 24" id="svg2">
 <defs id="defs10">
  <style type="text/css" id="current-color-scheme">
   .ColorScheme-Text { color:#5c616c; } .ColorScheme-Highlight { color:#5294e2; } .ColorScheme-ButtonBackground { color:#d3dae3; }
  </style>
 </defs>
 <g transform="translate(-544 -504.36)" id="g4">
  <path style="fill:currentColor" d="m550 508.36s-2 0-2 2.0625v11.938c0 2 2 2 2 2h12c2 0 2-2 2-2v-12s0-2-2-2h-12zm2.1875 4.3242h1.2598l2.3496 7.6758h-1.0742l-0.56641-2h-2.6875l-0.55664 2h-1.0742l2.3496-7.6758zm0.62695 0.91601-1.0938 3.9277h2.1895l-1.0957-3.9277zm4.334 0.99219h4.1797v0.86328l-3.3047 4.1328h3.3047v0.77149h-4.3027v-0.87305l3.3066-4.1387h-3.1836v-0.75586z" id="path6" class="ColorScheme-ButtonBackground"/>
 </g>
</svg>
