<?xml version="1.0" encoding="UTF-8" standalone="no"?>
<svg xmlns:dc="http://purl.org/dc/elements/1.1/" xmlns:cc="http://creativecommons.org/ns#" xmlns:rdf="http://www.w3.org/1999/02/22-rdf-syntax-ns#" xmlns:svg="http://www.w3.org/2000/svg" xmlns="http://www.w3.org/2000/svg" id="svg2" viewBox="0 0 24 24" version="1.1" width="24" height="24">
    <metadata id="metadata22">
        <rdf:RDF>
            <cc:Work rdf:about="">
                <dc:format>
                    image/svg+xml
                </dc:format>
                <dc:type rdf:resource="http://purl.org/dc/dcmitype/StillImage"/>
                <dc:title/>
            </cc:Work>
        </rdf:RDF>
    </metadata>
    <g style="fill:#ffffff" id="g4" transform="translate(4,-1029.4)">
        <path id="path6" transform="translate(0,1030.4)" d="M 1,3 C 0.446,3 0,3.446 0,4 l 0,14 c 0,0.554 0.446,1 1,1 l 14,0 c 0.554,0 1,-0.446 1,-1 L 16,4 C 16,3.446 15.554,3 15,3 L 1,3 Z M 1.5,4 A 0.5,0.5 0 0 1 2,4.5 0.5,0.5 0 0 1 1.5,5 0.5,0.5 0 0 1 1,4.5 0.5,0.5 0 0 1 1.5,4 Z M 8,4 a 7,7 0 0 1 7,7 7,7 0 0 1 -7,7 7,7 0 0 1 -7,-7 7,7 0 0 1 7,-7 z m 6.5,0 A 0.5,0.5 0 0 1 15,4.5 0.5,0.5 0 0 1 14.5,5 0.5,0.5 0 0 1 14,4.5 0.5,0.5 0 0 1 14.5,4 Z M 1.5,17 A 0.5,0.5 0 0 1 2,17.5 0.5,0.5 0 0 1 1.5,18 0.5,0.5 0 0 1 1,17.5 0.5,0.5 0 0 1 1.5,17 Z m 13,0 A 0.5,0.5 0 0 1 15,17.5 0.5,0.5 0 0 1 14.5,18 0.5,0.5 0 0 1 14,17.5 0.5,0.5 0 0 1 14.5,17 Z"/>
        <circle id="circle8" r="2" cy="1041.4" cx="8"/>
        <path id="path10" transform="translate(0,1030.4)" d="M 9.002,5.1016 C 8.4489,5.1005 8.0001,5.5485 8,6.1016 L 8,8 a 3,3 0 0 1 2.3438,1.1289 C 11.13336,8.95842 11.7993,8.80133 12.4727,8.64257 13.36697,8.43175 13.00572,7.65312 12.64848,7.21287 11.77495,6.13927 10.55698,5.39937 9.20118,5.12107 9.135594,5.107913 9.06885,5.10137 9.00196,5.101539 Z"/>
        <path id="path12" d="m 13.897,1042.4 c 10e-4,-0.5531 -0.44698,-1.0019 -1,-1.002 l -1.8984,0 a 3,3 0 0 1 -1.1289,2.3438 c 0.17048,0.7895 0.32757,1.4554 0.48633,2.1289 0.21082,0.8942 0.98945,0.533 1.4297,0.1758 1.0736,-0.8736 1.8135,-2.0915 2.0918,-3.4473 0.01316,-0.066 0.0197,-0.1323 0.01953,-0.1992 z"/>
        <path id="path14" d="m 6.9969,1047.3 c 0.5531,10e-4 1.0019,-0.447 1.002,-1 l 0,-1.8985 a 3,3 0 0 1 -2.3438,-1.1289 c -0.7895,0.1705 -1.4554,0.3276 -2.1289,0.4863 -0.8942,0.2109 -0.533,0.9895 -0.1758,1.4297 0.8736,1.0736 2.0915,1.8135 3.4473,2.0918 0.066,0.013 0.1323,0.02 0.1992,0.02 z"/>
        <path id="path16" d="m 2.1018,1040.4 c -10e-4,0.5531 0.447,1.0019 1,1.002 l 1.8985,0 a 3,3 0 0 1 1.1289,-2.3438 c -0.1705,-0.7895 -0.3276,-1.4554 -0.4863,-2.1289 -0.2109,-0.8942 -0.9895,-0.533 -1.4297,-0.1758 -1.0736,0.8736 -1.8135,2.0915 -2.0918,3.4473 -0.013,0.066 -0.02,0.1323 -0.02,0.1992 z"/>
    </g>
</svg>
