<svg xmlns="http://www.w3.org/2000/svg" width="24" height="24" version="1.1">
 <defs>
  <style id="current-color-scheme" type="text/css">
   .ColorScheme-Text { color:#d3dae3; } .ColorScheme-Highlight { color:#5294e2; }
  </style>
 </defs>
 <g transform="translate(1,1)">
  <rect style="opacity:0" width="22" height="22" x="0" y="0"/>
  <path style="fill:none;stroke:currentColor;stroke-width:1.99999976;stroke-linecap:round;stroke-linejoin:bevel" class="ColorScheme-Text" d="m 7.0029045,6.9994207 c 2.3996787,0 2.0000012,2.000001 2.0000012,3.9999983 0,2 0.355578,4.061102 -2.0000012,4.000002 -2.348587,0 -1.9999974,-2.000002 -1.9999974,-4.000002 0,-1.9999973 -0.4354507,-3.9999983 1.9999974,-3.9999983"/>
  <path style="fill:none;stroke:currentColor;stroke-width:1.99999976;stroke-linecap:round" class="ColorScheme-Text" d="m 17.00315,14.999823 -2.000002,-3 m -2.000001,-1.000002 1.999983,-4e-6 c 0.423836,-1e-6 0.729048,4.54e-4 1.00001,4.54e-4 0.999998,0 0.999998,0 0.999998,-1 0,-0.2567199 1.5e-5,-0.5997723 1.2e-5,-1.0004475 l -1.2e-5,-0.9995519 c 0,-1 0,-1 -0.999998,-1 -0.224504,0 -0.544113,0.00944 -0.874519,0.00719 -1.12549,-0.00765 -2.125474,-0.00756 -2.125474,-0.00756 M 13.003245,15 l 0,-8.0000001"/>
 </g>
</svg>
