<svg xmlns="http://www.w3.org/2000/svg" width="24" height="24" version="1.1">
 <defs>
  <style id="current-color-scheme" type="text/css">
   .ColorScheme-Text { color:#dfdfdf; } .ColorScheme-Highlight { color:#4285f4; } .ColorScheme-NeutralText { color:#ff9800; } .ColorScheme-PositiveText { color:#4caf50; } .ColorScheme-NegativeText { color:#f44336; }
  </style>
 </defs>
 <path style="fill:currentColor" class="ColorScheme-Text" d="M 9.5713383,19.965651 C 7.7836603,19.801341 6.3979469,19.224831 5.3576662,18.212614 4.4738958,17.352678 4.0022103,15.541891 4.0000103,14.50289 c -0.00171,-0.728271 0.2079053,-1.310112 0.6301331,-1.750483 0.4799999,-0.500635 1.0287263,-0.72958 1.7595291,-0.734123 0.9154679,-0.0057 2.0566428,0.313941 2.3951725,1.022852 0.1428417,0.299129 0.1511846,0.350284 0.1810078,1.109607 0.033829,0.861519 -0.123365,2.414168 0.084849,2.823087 0.2988378,0.586903 0.8317252,1.038997 1.9905962,1.039874 1.158871,8.78e-4 1.606695,-0.592807 1.914247,-1.791409 0.07855,-0.306164 0.08537,-1.20649 0.08537,-5.179502 0,-4.2499072 -0.0017,-4.5060734 -0.09783,-4.6722754 C 12.773533,6.0778656 12.664172,6.0187065 11.857854,6 H 11 V 3.9999061 h 9 V 6 h -0.967749 c -0.765265,0.030303 -0.601262,0.050359 -0.770269,0.2327349 -0.233209,0.2516543 -0.170196,0.331137 -0.203024,4.9547921 -0.03257,4.586225 -0.03474,4.631283 -0.25294,5.237901 -0.545755,1.517258 -2.005915,2.785427 -3.879703,3.272278 -0.957805,0.24886 -3.29153,0.365696 -4.3549938,0.267946 z"/>
</svg>
