<svg xmlns="http://www.w3.org/2000/svg" width="24" height="24" version="1.1">
 <defs>
  <style id="current-color-scheme" type="text/css">
   .ColorScheme-Text { color:#dfdfdf; } .ColorScheme-Highlight { color:#4285f4; } .ColorScheme-NeutralText { color:#ff9800; } .ColorScheme-PositiveText { color:#4caf50; } .ColorScheme-NegativeText { color:#f44336; }
  </style>
 </defs>
 <path style="fill:currentColor" class="ColorScheme-PositiveText" d="m 6,14 a 3,3 0 0 0 -3,3 3,3 0 0 0 3,3 3,3 0 0 0 3,-3 3,3 0 0 0 -3,-3 z m 1.4824219,0.994141 a 0.50005,0.50005 0 0 1 0.4707031,0.728515 l -1.5,3 a 0.50005,0.50005 0 0 1 -0.7246094,0.19336 l -1.5,-1 A 0.50005,0.50005 0 1 1 4.7832031,17.083984 L 5.8125,17.769531 7.0585938,15.277344 a 0.50005,0.50005 0 0 1 0.4238281,-0.283203 z"/>
 <path style="fill:currentColor" class="ColorScheme-Text" d="m 12.228516,4 c -0.639,0.0783 -2.458241,0.8525719 -2.744141,3.2636719 -0.64687,-0.6089 -0.5,-2.1015625 -0.5,-2.1015625 C 8.380455,5.7483931 6.5999152,10.012469 5.5898438,13.029297 A 4,4 0 0 1 6,13 a 4,4 0 0 1 4,4 4,4 0 0 1 -0.5195312,1.951172 c 1.3658552,0.490723 2.6571862,0.796873 3.2226562,0.917969 1.991,0.42628 2.950756,-0.329686 3.322266,-0.291016 1.1118,0.1363 2.22616,-0.400844 2.61914,-1.964844 0.54793,-0.2378 0.348021,-0.979841 0.144531,-1.394531 -0.263199,-0.5355 -0.509879,-0.623072 -1.505859,-1.763672 0.0028,-0.53362 0.0015,-0.956232 -0.21875,-1.164062 -0.2212,-0.20783 -0.662911,-0.20082 -1.082031,0.11914 -0.14842,-0.0048 -0.330666,-0.298969 -0.322266,-0.693359 0.014,-0.67762 0.43447,-0.386721 0.707032,-0.957031 0.272539,-0.57033 -0.1113,-1.415486 -0.78711,-1.458985 -0.5449,-0.03579 -0.788159,-1.4797187 -2.65039,-1.5078122 h -0.002 c -0.0066,-0.013325 -1.295362,-2.618182 3.4395,-3.4570313 C 15.266186,4.7569375 12.88875,4.5775906 11.46875,6.3378906 11.28575,5.5983906 11.602516,4.7443 12.228516,4 Z"/>
</svg>
