<svg xmlns="http://www.w3.org/2000/svg" width="24" height="24" version="1.1">
 <defs>
  <style id="current-color-scheme" type="text/css">
   .ColorScheme-Text { color:#dfdfdf; } .ColorScheme-Highlight { color:#4285f4; } .ColorScheme-NeutralText { color:#ff9800; } .ColorScheme-PositiveText { color:#4caf50; } .ColorScheme-NegativeText { color:#f44336; }
  </style>
 </defs>
 <g transform="translate(1,1)">
  <path style="fill:currentColor" class="ColorScheme-PositiveText" d="M 7,3 C 6,3 6,4 6,4 V 18 C 6,18 6,19 7,19 H 15 C 16,19 16,18 16,18 V 4 C 16,4 16,3 15,3 Z M 14,6 V 15 H 8 V 6.002 Z M 10.5,16 H 11.5 C 11.5,16 12,16 12,16.5 V 17.5 C 12,17.5 12,18 11.5,18 H 10.5 C 10.5,18 10,18 10,17.5 V 16.5 C 10,16.5 10,16 10.5,16 Z"/>
 </g>
</svg>
