<?xml version="1.0" encoding="UTF-8" standalone="no"?>
<svg
   xmlns:dc="http://purl.org/dc/elements/1.1/"
   xmlns:cc="http://creativecommons.org/ns#"
   xmlns:rdf="http://www.w3.org/1999/02/22-rdf-syntax-ns#"
   xmlns:svg="http://www.w3.org/2000/svg"
   xmlns="http://www.w3.org/2000/svg"
   xmlns:sodipodi="http://sodipodi.sourceforge.net/DTD/sodipodi-0.dtd"
   xmlns:inkscape="http://www.inkscape.org/namespaces/inkscape"
   width="24"
   height="24"
   viewBox="0 0 23.999999 23.999999"
   id="svg4146"
   version="1.1"
   inkscape:version="0.91 r13725"
   sodipodi:docname="smartphone-trusted.svg">
  <sodipodi:namedview
     pagecolor="#ffffff"
     bordercolor="#666666"
     borderopacity="1"
     objecttolerance="10"
     gridtolerance="10"
     guidetolerance="10"
     inkscape:pageopacity="0"
     inkscape:pageshadow="2"
     inkscape:window-width="1600"
     inkscape:window-height="843"
     id="namedview6"
     showgrid="false"
     inkscape:zoom="14.31"
     inkscape:cx="5.2173363"
     inkscape:cy="11"
     inkscape:window-x="0"
     inkscape:window-y="0"
     inkscape:window-maximized="1"
     inkscape:current-layer="svg4146" />
  <defs
     id="defs4148" />
  <metadata
     id="metadata4151">
    <rdf:RDF>
      <cc:Work
         rdf:about="">
        <dc:format>image/svg+xml</dc:format>
        <dc:type
           rdf:resource="http://purl.org/dc/dcmitype/StillImage" />
        <dc:title></dc:title>
      </cc:Work>
    </rdf:RDF>
  </metadata>
  <path
     id="path6665"
     d="m 7.9999992,3.9999992 c -1,0 -1,0.9999999 -1,0.9999999 l 0,13.9999989 c 0,0 0,1 1,1 l 7.9999988,0 c 1,0 1,-1 1,-1 l 0,-13.9999989 c 0,0 0,-0.9999999 -1,-0.9999999 l -7.9999988,0 z m 6.9999988,2.9999996 0,9.0000002 -5.9999988,0 0,-8.9980471 5.9999988,-0.00195 z m -3,9.9999992 a 0.99999988,0.99999988 0 0 1 1,1 0.99999988,0.99999988 0 0 1 -1,1 0.99999988,0.99999988 0 0 1 -0.999999,-1 0.99999988,0.99999988 0 0 1 0.999999,-1 z"
     style="display:inline;opacity:0.3;fill:#ffffff;fill-opacity:1;stroke:none;filter:url(#filter7554);enable-background:new"
     inkscape:connector-curvature="0" />
</svg>
