<?xml version="1.0" encoding="UTF-8" standalone="no"?>
<svg id="svg2" xmlns:rdf="http://www.w3.org/1999/02/22-rdf-syntax-ns#" xmlns="http://www.w3.org/2000/svg" height="24" viewBox="0 0 6.7733335 6.7733335" width="24" version="1.1" xmlns:cc="http://creativecommons.org/ns#" xmlns:dc="http://purl.org/dc/elements/1.1/">
 <metadata id="metadata16">
  <rdf:RDF>
   <cc:Work rdf:about="">
    <dc:format>image/svg+xml</dc:format>
    <dc:type rdf:resource="http://purl.org/dc/dcmitype/StillImage"/>
    <dc:title/>
   </cc:Work>
  </rdf:RDF>
 </metadata>
 <path id="path4144" opacity=".3" d="m3.1044 0.84667a2.2578 2.2578 0 0 0 -2.2577 2.2577 2.2578 2.2578 0 0 0 2.2577 2.2578 2.2578 2.2578 0 0 0 2.2578 -2.2578 2.2578 2.2578 0 0 0 -2.2578 -2.2577zm-0.5644 1.4111v0.56389h1.1289v-0.56389l0.84667 0.84667-0.84667 0.84667v-0.56389h-1.1289v0.56389l-0.8467-0.8467 0.8467-0.8466z" fill="#d3dae3"/>
 <g id="g4146" fill="none" transform="matrix(.28222 0 0 .28222 -4.0521 -1.819)">
  <path id="path4148" fill="none" d="m30.565 21.238 1.414 1.414-1.793 1.793h5.172v2h-5.172l1.793 1.793-1.414 1.414-4.207-4.207z"/>
 </g>
</svg>
