<?xml version="1.0" encoding="UTF-8" standalone="no"?>
<svg xmlns:dc="http://purl.org/dc/elements/1.1/" xmlns:cc="http://creativecommons.org/ns#" xmlns:rdf="http://www.w3.org/1999/02/22-rdf-syntax-ns#" xmlns:svg="http://www.w3.org/2000/svg" xmlns="http://www.w3.org/2000/svg" version="1.0" width="24" height="24" id="svg2817">
    <metadata id="metadata57">
        <rdf:RDF>
            <cc:Work rdf:about="">
                <dc:format>
                    image/svg+xml
                </dc:format>
                <dc:type rdf:resource="http://purl.org/dc/dcmitype/StillImage"/>
                <dc:title/>
            </cc:Work>
        </rdf:RDF>
    </metadata>
    <path id="path4193" d="M 18.933593,4.0048118 C 18.478709,3.9769971 18.231955,4.0564839 11.572266,6.3856712 7.78206,7.7113322 4.5955625,8.8515144 4.4921875,8.9188744 4.1913925,9.1145626 4,9.4911106 4,9.8837186 c 0,0.8430604 0.3085107,1.0796644 3.3554688,2.5664054 1.5421249,0.753217 2.5756358,1.302627 2.7011722,1.435547 0.111998,0.118152 0.764924,1.348555 1.449217,2.734375 1.238131,2.502107 1.521268,2.970701 1.966797,3.240234 0.473297,0.287268 1.116877,0.119199 1.496094,-0.390625 C 15.146592,19.23089 19.926957,5.7266135 19.986327,5.2958275 20.041517,4.8950595 19.914417,4.5193843 19.630858,4.2489525 19.44173,4.0685868 19.327296,4.0288119 18.933593,4.0048118 Z M 7,15.000905 a 2,2 0 0 0 -2,2 2,2 0 0 0 2,2 2,2 0 0 0 2,-2 2,2 0 0 0 -2,-2 z" style="opacity:1;fill:#ffffff"/>
</svg>
