<svg xmlns="http://www.w3.org/2000/svg" width="24" height="24" version="1">
 <defs>
  <style id="current-color-scheme" type="text/css">
   .ColorScheme-Text { color:#dfdfdf; } .ColorScheme-Highlight { color:#4285f4; } .ColorScheme-NeutralText { color:#ff9800; } .ColorScheme-PositiveText { color:#4caf50; } .ColorScheme-NegativeText { color:#f44336; }
  </style>
 </defs>
 <path style="fill:currentColor" class="ColorScheme-Text" d="M 20.952893,4 C 20.533587,4.0121473 20.036009,4.1819559 19.554456,4.3457031 16.403957,5.4207087 6.4430495,9.278681 3.7165645,10.716797 c -0.671236,0.28127 -0.9610583,0.75882 -0.4726563,1.171875 0.420514,0.350114 1.9582608,0.830188 3.1992188,1.074219 1.057861,0.323857 1.8801748,0.01439 2.6386718,-0.417969 1.8228122,-1.092109 7.2543792,-4.0661633 7.5468752,-4.2597658 0.292496,-0.1936023 0.612919,0.165907 0.449219,0.3398438 -0.163701,0.173936 -4.01047,3.660194 -5.273437,5.236328 -0.669101,0.866629 -0.648297,1.330464 0.03906,1.876953 0.734096,0.581708 2.052737,1.514109 3.298828,2.353516 A 3,3 0 0 1 17.999768,16 3,3 0 0 1 20.204846,16.970703 C 20.833451,13.688401 21.786916,7.9078232 21.966565,6.0136719 22.133847,4.3981528 21.651737,3.9797545 20.952893,4 Z"/>
 <circle style="fill:currentColor" class="ColorScheme-Highlight" cx="18" cy="19" r="2"/>
</svg>
