<?xml version="1.0" encoding="UTF-8" standalone="no"?>
<svg xmlns:osb="http://www.openswatchbook.org/uri/2009/osb" xmlns:dc="http://purl.org/dc/elements/1.1/" xmlns:cc="http://creativecommons.org/ns#" xmlns:rdf="http://www.w3.org/1999/02/22-rdf-syntax-ns#" xmlns:svg="http://www.w3.org/2000/svg" xmlns="http://www.w3.org/2000/svg" width="24" version="1.1" style="enable-background:new" id="svg7384" height="24">
    <metadata id="metadata90">
        <rdf:RDF>
            <cc:Work rdf:about="">
                <dc:format>
                    image/svg+xml
                </dc:format>
                <dc:type rdf:resource="http://purl.org/dc/dcmitype/StillImage"/>
                <dc:title>
                    Paper Symbolic Icon Theme
                </dc:title>
            </cc:Work>
        </rdf:RDF>
    </metadata>
    <title id="title8473">
        Paper Symbolic Icon Theme
    </title>
    <defs id="defs7386">
        <linearGradient osb:paint="solid" id="linearGradient5606">
            <stop style="stop-color:#000000;stop-opacity:1;" offset="0" id="stop5608"/>
        </linearGradient>
        <filter style="color-interpolation-filters:sRGB" id="filter7554">
            <feBlend mode="darken" in2="BackgroundImage" id="feBlend7556"/>
        </filter>
    </defs>
    <g transform="translate(-425.0002,167.00336)" style="display:inline;filter:url(#filter7554)" id="layer10">
        <path id="path5073" d="m 429.19942,-163.00336 c -1.2,0 -1.19922,1.23047 -1.19922,1.23047 l 0,13.53906 c 0,0 -7.8e-4,1.23047 1.19922,1.23047 l 15.60156,0 c 0,0 1.19922,3e-4 1.19922,-1.23047 l 0,-13.53906 c 0,-1.23077 -1.19922,-1.23047 -1.19922,-1.23047 l -15.60156,0 z m 12.80078,2 2,0 0,1 -2,0 0,-1 z m 0,2 2,0 0,1 -2,0 0,-1 z m 0,2 2,0 0,1 -2,0 0,-1 z m 0,2 2,0 0,1 -2,0 0,-1 z m -12,3 6,0 0,3 -6,0 0,-3 z m 8,0 6,0 0,3 -6,0 0,-3 z" style="opacity:1;fill:#ffffff;fill-opacity:1;stroke:none"/>
    </g>
</svg>
