<?xml version="1.0"?>
<svg xmlns="http://www.w3.org/2000/svg" width="24" height="24" viewBox="0 0 24 24" version="1.1" id="svg2">
 <defs id="defs8">
  <style type="text/css" id="current-color-scheme">
   .ColorScheme-Text { color:#5c616c; } .ColorScheme-Highlight { color:#5294e2; } .ColorScheme-ButtonBackground { color:#d3dae3; }
  </style>
 </defs>
 <path style="fill:currentColor" d="m14.54 8c-3.02 0-5.46 0.505-5.46 1.132 0 0.628 2.444 1.132 5.46 1.132 3.02 0 5.46-0.505 5.46-1.132 0-0.628-2.444-1.132-5.46-1.132zm-4.237 3.221c-3.482 0-6.303 0.478-6.303 1.081s2.822 1.101 6.303 1.101c3.482 0 6.308-0.498 6.308-1.101s-2.826-1.081-6.308-1.081zm3.673 3.107c-2.324 0-4.209 0.369-4.209 0.831s1.884 0.842 4.209 0.842c2.324 0 4.209-0.379 4.209-0.842 0-0.462-1.884-0.831-4.209-0.831z" id="path4" class="ColorScheme-ButtonBackground"/>
</svg>
