<?xml version="1.0" encoding="UTF-8" standalone="no"?>
<svg   xmlns="http://www.w3.org/2000/svg" width="24" height="24" viewBox="0 0 24 24" version="1.1">
 <path   style="fill:#d3dae3" d="m9.185 4.5c-0.154-0.001-0.311 0.007-0.478 0.03-2.67 0.358-2.588 2.745-2.588 2.745-1.094 0.194-1.988 1.188-1.988 2.228 0 1.039 1.143 1.96 2.1 2.228 0.57 0.159 1.313 0 1.313 0 0.338 0.621 1.454 1.034 2.232 1.034 1.268 0 2.564-0.438 2.865-1.034 0 0 5.254 0.438 6.343 0 1.586-0.637 1.093-2.629 0.038-3.302s-2.438-0.199-2.438-0.199-0.008-1.369-1.5-2.024-2.752 0.791-2.752 0.791-0.837-2.481-3.146-2.496z"/>
 <circle cy="19" cx="11.822"  />
 <circle cy="15.508" cx="6.695"  />
 <circle cy="15" cx="10.797"  />
 <circle cy="15.678" cx="14.322"  />
 <circle cy="17.07" cx="8.898"  />
 <circle cy="13.678" cx="8.831"  />
 <circle cy="13.441" cx="12.831"  />
 <circle cy="13.542" cx="15.881"  />
 <circle cy="12.966" cx="6.627"  />
 <circle cy="17.814" cx="5.712"  />
 <circle cy="15.271" cx="17.61"  />
 <circle cy="17.915" cx="16.22"  />
 <circle cy="16.763" cx="12.288"  />
 <circle cy="13.03" cx="18.322"  />
</svg>
