<svg width="22" height="22" version="1.1" xmlns="http://www.w3.org/2000/svg">
 <path d="M 11,1.5 C 7.8888683,1.8629654 6.6919273,2.6854113 6.2480469,6.625 6.0106776,6.5506333 5.7625255,6.5 5.5,6.5 4.115,6.5 3,7.615 3,9 v 7.5 C 3,17.885 4.115,19 5.5,19 5.8865504,19 6.2481026,18.90729 6.5742188,18.751953 6.7948847,19.771493 7,20.5 7,20.5 c 0,0 1e-7,1 2,1 2.5,0 3,-1 3,-1 v -1.099609 c 0,-0.9 0.186173,-0.900391 0.421875,-0.900391 0.5,0 0.578125,1 0.578125,1 0,0 0.500001,0.949219 2,0.949219 2.000001,0 3,-0.949219 3,-0.949219 V 16.224609 C 18,13.991722 17.776954,11.852729 17.378906,9.660156 17.760883,9.226598 18,8.6630083 18,8.0371094 18,7.0195871 17.388323,6.1516567 16.511719,5.7753906 16.507041,5.7581368 16.5047,5.7418804 16.5,5.7246094 15.813197,3.2006088 15.5,1.5 11,1.5 Z" style="opacity:.2"/>
 <rect x="3" y="6" width="5" height="12.5" ry="2.5" style="fill:#b71c1c"/>
 <path d="m5.5 6c-1.385 0-2.5 1.115-2.5 2.5v0.5c0-1.385 1.115-2.5 2.5-2.5s2.5 1.115 2.5 2.5v-0.5c0-1.385-1.115-2.5-2.5-2.5z" style="fill:#ffffff;opacity:.1"/>
 <path d="m6 13.5c0 3.149999 1 6.5 1 6.5s1e-7 1 2 1c2.5 0 3-1 3-1v-1.1c0-0.9 0.186958-0.9 0.42266-0.9 0.5 0 0.57734 1 0.57734 1s0.500001 0.95 2 0.95c2.000001 0 3-0.95 3-0.95v-3.275c0-3.539155-0.5-6.8249997-1.5-10.5-0.686803-2.5240006-1-4.2250002-5.5-4.2250002-4.4999999 0.525-5 1.999999-5 12.5z" style="fill:#f44336"/>
 <path d="m11 1c-4.4999999 0.525-5 1.999999-5 12.5 0 0.03249 0.0037 0.06513 0.00391 0.09766 0.014744-10.098442 0.5602162-11.580141 4.99609-12.09766 4.5 0 4.813197 1.7006088 5.5 4.2246094 1 3.6749996 1.5 6.9608446 1.5 10.5v-0.5c0-3.539155-0.5-6.8249995-1.5-10.5-0.686803-2.5240006-1-4.2246094-5.5-4.2246094z" style="fill:#ffffff;opacity:.2"/>
 <path d="M 11.462891,5.5742188 C 10.098665,5.5742187 9,6.6728841 9,8.0371094 9,9.401335 10.098665,10.5 11.462891,10.5 h 4.074218 c 0.780437,0 1.465482,-0.366656 1.916016,-0.929688 C 17.245932,8.3569848 16.982204,7.1235901 16.652344,5.8515625 16.316565,5.6804916 15.941177,5.5742188 15.537109,5.5742188 Z" style="opacity:.2"/>
 <rect x="9" y="5.0749984" width="9" height="4.9250011" ry="2.4625006" style="fill:#84ddd1"/>
 <path d="m11.462891 5.0742188c-1.364226-1e-7 -2.462891 1.0986653-2.462891 2.4628906 0 0.085595 0.01695 0.1667044 0.02539 0.25 0.126099-1.2442805 1.158869-2.2128907 2.4375-2.2128906h4.074218c1.278631 0 2.311401 0.9686101 2.4375 2.2128906 0.008443-0.0832956 0.025392-0.164405 0.025392-0.25 0-1.3642253-1.098665-2.4628906-2.462891-2.4628906z" style="fill:#ffffff;opacity:.2"/>
</svg>
