<svg xmlns="http://www.w3.org/2000/svg" width="22" height="22" version="1.1">
 <rect style="fill:#5f5f5f" width="19.5" height="19.5" x="-20.75" y="-20.75" rx="9.75" ry="9.75" transform="matrix(0,-1,-1,0,0,0)"/>
 <path style="fill:#f9e1b5" d="m 11,1 v 20 a 10,10 0 0 0 2,-0.212891 V 1.203125 A 10,10 0 0 0 11,1 Z M 9,1.2128906 A 10,10 0 0 0 7,1.8476563 V 20.160156 a 10,10 0 0 0 2,0.636719 z m 6,0.6269532 V 20.152344 a 10,10 0 0 0 2,-1.16504 V 3.015625 A 10,10 0 0 0 15,1.8398438 Z M 5,3.0126953 A 10,10 0 0 0 3,5.020508 v 11.961914 a 10,10 0 0 0 2,2.001953 z M 19,5.017578 V 16.979492 A 10,10 0 0 0 21,11 10,10 0 0 0 19,5.017578 Z"/>
 <path style="opacity:0.2" d="M 1.0058,11.25 C 1.0038,11.334 1,11.416 1,11.5 c 0,5.54 4.46,10 10,10 5.54,0 10,-4.46 10,-10 0,-0.084 -0.004,-0.1665 -0.006,-0.25 C 20.862,16.673 16.456,21 11,21 5.544,21 1.138,16.673 1.006,11.25 Z"/>
 <path style="fill:#b42223" d="M 11,1 A 10,10 0 0 0 9,1.2128906 V 20.796875 A 10,10 0 0 0 11,21 Z m 2,0.203125 v 19.583984 a 10,10 0 0 0 2,-0.634765 V 1.8398438 A 10,10 0 0 0 13,1.203125 Z M 7,1.8476563 A 10,10 0 0 0 5,3.0126953 V 18.984375 a 10,10 0 0 0 2,1.175781 z M 17,3.015625 v 15.971679 a 10,10 0 0 0 2,-2.007812 V 5.017578 A 10,10 0 0 0 17,3.015625 Z M 3,5.020508 A 10,10 0 0 0 1,11 10,10 0 0 0 3,16.982422 Z"/>
 <path style="opacity:0.2;fill:#ffffff" d="M 11,1 C 5.4605,1 1.001,5.46 1.001,11 c 0,0.08386 -0.002,0.16664 0,0.25 C 1.1331,5.827 5.5445,1.5 11,1.5 c 5.4555,0 9.867,4.3268 9.999,9.75 0.002,-0.08335 0,-0.16614 0,-0.25 C 20.999,5.46 16.54,1 11,1 Z"/>
 <path style="opacity:0.1" d="M 4.419346,6.5 3.1520323,7.661946 c 0,0 0.7361047,1.230684 0.7545836,1.917696 0.021451,0.797028 -0.7545836,2.269485 -0.7545836,2.269485 -1.3186354,4.484007 6.3432867,2.545492 7.4543047,4.468909 L 11,17 11.393664,16.318037 c 1.111018,-1.923418 8.772939,0.01509 7.454303,-4.46891 0,0 -0.776034,-1.472457 -0.754583,-2.269485 0.01848,-0.687012 0.754583,-1.917696 0.754583,-1.917696 L 17.580654,6.5 11,6.51416 Z"/>
 <path style="fill:#0b5f8a" d="M 4.419346,6 3.1520323,7.161946 c 0,0 0.7361047,1.230684 0.7545836,1.917696 0.021451,0.797028 -0.7545836,2.269485 -0.7545836,2.269485 -1.3186354,4.484007 6.3432867,2.545492 7.4543047,4.468909 L 11,16.5 11.393664,15.818037 c 1.111018,-1.923418 8.772939,0.01509 7.454303,-4.46891 0,0 -0.776034,-1.472457 -0.754583,-2.269485 0.01848,-0.687012 0.754583,-1.917696 0.754583,-1.917696 L 17.580654,6 11,6.01416 Z"/>
 <path style="opacity:0.2" d="M 11,7.5 12.081559,9.804258 14.5,10.173762 12.75,11.967376 13.163119,14.5 11,13.304258 8.836881,14.5 9.25,11.967375 7.5,10.173762 9.918441,9.804258 Z"/>
 <path style="fill:#faa600" d="M 11,7 12.081559,9.304258 14.5,9.673762 12.75,11.467376 13.163119,14 11,12.804258 8.836881,14 9.25,11.467375 7.5,9.673762 9.918441,9.304258 Z"/>
 <path style="opacity:0.2;fill:#ffffff" d="M 11,7 9.917969,9.304688 7.5,9.673828 7.9248045,10.109375 9.917969,9.804688 11,7.5 12.082031,9.804688 14.075196,10.109375 14.5,9.673828 12.082031,9.304688 Z M 9.179688,11.896485 8.836914,14 8.926758,13.950196 9.25,11.967774 Z m 3.640625,0 -0.07031,0.07129 0.323242,1.982422 0.08984,0.0498 z"/>
</svg>
