<svg xmlns="http://www.w3.org/2000/svg" width="22" height="22" version="1.1">
 <rect style="opacity:0.2" width="21" height="8" x="1" y="7.5" rx="1" ry="1"/>
 <rect style="fill:#abacae" width="21" height="8" x="1" y="7" rx="1" ry="1"/>
 <path style="opacity:0.2;fill:#ffffff" d="M 2,7 C 1.446,7 1,7.446 1,8 v 0.5 c 0,-0.554 0.446,-1 1,-1 h 19 c 0.554,0 1,0.446 1,1 V 8 C 22,7.446 21.554,7 21,7 Z"/>
 <path style="opacity:0.2" d="m 11.499981,2.5 c -4.689978,0 -8.5000284,3.8099925 -8.5000284,8.499998 0,4.690008 3.8100504,8.500005 8.5000284,8.500002 4.690056,0 8.500066,-3.809994 8.500066,-8.500002 C 20.000047,6.3099925 16.190037,2.5 11.499981,2.5 Z"/>
 <path style="fill:#e4e4e4" d="m 11.499981,2 c -4.689978,0 -8.5000284,3.8099925 -8.5000284,8.499998 0,4.690008 3.8100504,8.500005 8.5000284,8.500002 4.690056,0 8.500066,-3.809994 8.500066,-8.500002 C 20.000047,5.8099925 16.190037,2 11.499981,2 Z"/>
 <path style="opacity:0.1" d="M 10.200314,5.5015685 C 8.560676,5.4630235 6.8981785,6.1353615 5.2131665,7.5197505 5.352091,8.2823985 5.47952,9.072742 5.5564265,9.868967 c 0.03228,0.334201 0.056695,0.71073 0.056427,1.103135 -0.0051,1.005175 -0.187819,2.202668 -0.7871475,2.563636 0.164444,0.253158 0.43553,0.761191 0.553918,1.04953 C 6.025051,13.9635 6.218715,12.304361 6.241066,10.957054 6.244916,10.491566 6.228666,10.042923 6.207211,9.653606 6.173246,9.037357 6.127823,8.425584 6.0821325,7.8244525 7.73312,6.8521475 9.367376,6.5270815 10.984641,6.8492175 11.081881,6.441483 11.196932,6.0384005 11.331662,5.641694 10.955701,5.5570215 10.578692,5.510464 10.200314,5.5015685 Z m 4.141693,0.473041 c 0.123135,0.558785 0.219659,1.1220815 0.292476,1.6862065 -0.8526,-0.176821 -1.697895,-0.2495765 -2.535423,-0.217241 0.08949,0.439478 0.15854,0.8836745 0.210658,1.3297805 0.296909,-0.0076 0.594044,-0.0067 0.891536,0.0028 0.212128,0.7056905 0.433013,1.5231505 0.645141,2.2288405 0.222536,0.724559 0.4467,1.382911 0.695925,1.927899 -0.685202,0.933401 -1.590579,1.751226 -2.660501,2.153605 0.08144,0.352046 0.148288,0.950162 0.131661,1.315674 1.219546,-0.519548 2.241912,-1.523727 3.023511,-2.61442 0.580582,0.780295 1.378332,1.108581 2.588087,0.564264 0.127855,-0.356282 0.370248,-0.916777 0.549217,-1.21975 -1.063586,0.432735 -1.832942,0.203077 -2.44138,-0.456113 0.319782,-0.575714 0.587241,-1.154458 0.81442,-1.7163 0.216248,-0.521278 0.399456,-1.044967 0.559562,-1.571474 0.30213,0.08473 0.60386,0.178156 0.906582,0.280251 0.01106,-0.25307 0.02424,-0.506027 0.0395,-0.7589345 C 17.169337,8.450713 16.293576,8.098985 15.425393,7.854525 15.37151,7.323966 15.300047,6.7930945 15.207211,6.2651835 14.91693,6.15269 14.628525,6.0558295 14.342008,5.974588 Z M 8.988088,6.860503 C 8.752578,8.13234 8.5776,9.433347 8.34953,10.355174 c -0.150336,0.003 -0.301104,0.007 -0.4514105,0.01317 6e-4,0.193612 0.0023,0.387447 0.00375,0.581191 -0.0014,0.444207 -0.0015,0.896165 9.5e-4,1.353292 -0.081302,-0.01016 -0.1623845,-0.02071 -0.2435735,-0.03198 -4.155e-4,-0.446882 3.4e-5,-0.888969 9.5e-4,-1.323198 -0.003,-0.347175 -0.00548,-0.693743 -0.00658,-1.040125 0.262348,-0.02589 0.5248335,-0.04463 0.7871475,-0.05643 0.0048,-0.370579 0.013215,-0.740898 0.02727,-1.108778 C 8.2996915,8.759985 8.131489,8.7828 7.963013,8.8100315 8.0974055,8.399633 8.271733,7.7926835 8.479314,7.205643 8.2631825,7.1516935 8.0437445,7.1124695 7.8200665,7.09185 7.746992,7.467797 7.573119,8.304562 7.4880915,8.658621 7.6397145,8.702746 7.7897825,8.754562 7.9385615,8.8137935 7.565491,8.8751 7.1922525,8.9594985 6.818499,9.067712 6.953133,8.9507525 7.0890235,8.833032 7.2266495,8.7141065 7.1869295,8.3220755 7.057547,7.8209825 6.907841,7.471787 6.72135,7.6500705 6.5388575,7.830555 6.359565,8.0106585 c 0.1508535,0.29222 0.276889,0.742301 0.326332,1.0965525 -0.1306405,0.03976 -0.2614395,0.08242 -0.392163,0.127899 0.01587,0.286102 0.030665,0.573674 0.04232,0.861442 0.2507415,-0.04729 0.5006995,-0.08784 0.7514105,-0.122257 0.0055,0.324101 0.01113,0.648614 0.015045,0.973354 6e-4,0.40617 -7.5e-4,0.818399 -0.0047,1.235737 -0.080927,-0.01381 -0.1618205,-0.02835 -0.2426335,-0.04326 0.00568,-0.401999 0.00708,-0.798747 0.00564,-1.190595 -0.00235,-0.170907 -0.00502,-0.342635 -0.00846,-0.51348 -0.152163,0.01347 -0.303979,0.0285 -0.4561125,0.04514 0.00475,0.157607 0.00845,0.315435 0.011285,0.47304 0.00688,0.76464 -0.010735,1.549627 -0.062069,2.341693 0.158278,0.07355 0.316864,0.141938 0.475862,0.205016 0.00542,-0.148953 0.00983,-0.29761 0.014105,-0.445768 0.076984,0.02538 0.154212,0.04998 0.231348,0.07335 -0.060717,0.760276 -0.259659,1.434783 -0.9009405,1.408777 0.11975,0.243368 0.3488215,0.795973 0.4467085,1.105956 0.8220915,-0.0654 1.000854,-1.192104 1.0373035,-2.35768 0.087455,0.02069 0.174735,0.04017 0.2623825,0.05831 0.0017,0.13668 0.00355,0.273576 0.00565,0.410971 0.1599665,0.03784 0.320836,0.07095 0.4815045,0.09875 -0.03443,-0.97551 -0.047085,-1.936666 -0.04326,-2.867399 0.119995,0.205129 0.2581025,0.4671 0.3225705,0.630094 0.059494,-0.195929 0.1159635,-0.41418 0.1702195,-0.649843 0.076692,-0.346645 0.148337,-0.733234 0.221003,-1.142633 -0.0095,0.382135 -0.01253,0.765375 -0.01128,1.148275 -5.5e-4,0.113076 -0.0012,0.22571 -9.5e-4,0.339499 9.5e-4,0.410316 -0.02992,1.195205 -0.1636365,1.94953 -0.133987,0.755824 -0.3909505,1.601599 -0.9310345,2.000313 0.118604,0.25662 0.378469,0.942023 0.4721005,1.226332 C 9.199326,15.87903 9.418768,14.0826 9.438563,13.326959 c 0.114461,0.807349 0.568251,2.562416 1.573354,3.173041 0.03185,-0.365533 0.09424,-0.88382 0.157054,-1.219749 -1.279827,-0.838771 -1.47689,-3.187435 -1.476489,-3.944201 -7e-4,-0.114438 -4.76e-4,-0.229358 0,-0.34326 -8e-4,-0.472404 0.0085,-0.945055 0.03009,-1.416301 0.0996,0.0042 0.198533,0.0094 0.298119,0.01599 -0.05697,0.563506 -0.08609,0.949428 -0.127899,1.408777 -0.0073,0.07579 -0.01455,0.148738 -0.02163,0.217242 0.152197,0.15455 0.306502,0.309755 0.462696,0.460815 0.02765,-0.192993 0.055,-0.417498 0.0837,-0.653605 0.0917,-0.766186 0.171905,-1.450197 0.318809,-2.2796235 -0.132616,-0.101839 -0.266596,-0.202399 -0.400627,-0.29906 -0.0346,0.01679 -0.06905,0.03446 -0.103449,0.051724 C 9.926147,8.4695485 9.620167,8.4572175 9.313477,8.4620685 9.403877,7.981761 9.496372,7.50183 9.605012,7.0175545 9.401544,6.9532075 9.196393,6.900508 8.988085,6.860501 Z m 5.037931,1.963636 c 0.731526,0.062179 1.464643,0.176013 2.199686,0.34138 -0.14893,0.63299 -0.345479,1.23707 -0.590595,1.807523 -0.132232,0.31628 -0.279352,0.627545 -0.443887,0.931975 -0.155804,-0.276139 -0.301118,-0.584784 -0.439185,-0.917868 -0.25436,-0.630087 -0.481465,-1.357564 -0.726019,-2.16301 z"/>
 <path style="fill:#3f3f3f" d="m 10.200314,5.0015685 c -1.639638,-0.038545 -3.3021355,0.633793 -4.9871475,2.018182 0.1389245,0.762648 0.2663535,1.552991 0.34326,2.3492165 0.03228,0.334201 0.056695,0.71073 0.056427,1.103135 -0.0051,1.005175 -0.187819,2.202668 -0.7871475,2.563636 0.164444,0.253158 0.43553,0.761191 0.553918,1.04953 C 6.025051,13.4635 6.218715,11.804361 6.241066,10.457054 6.244916,9.991566 6.228666,9.542923 6.207211,9.153606 6.173246,8.5373565 6.127823,7.925584 6.0821325,7.3244525 7.73312,6.3521475 9.367376,6.0270815 10.984641,6.3492175 11.081881,5.941483 11.196932,5.5384005 11.331662,5.141694 10.955701,5.0570215 10.578692,5.010464 10.200314,5.0015685 Z m 4.141693,0.473041 c 0.123135,0.558785 0.219659,1.1220815 0.292476,1.6862065 -0.8526,-0.176821 -1.697895,-0.2495765 -2.535423,-0.217241 0.08949,0.439478 0.15854,0.8836745 0.210658,1.3297805 0.296909,-0.0076 0.594044,-0.0067 0.891536,0.0028 0.212128,0.70569 0.433013,1.5231505 0.645141,2.2288405 0.222536,0.724559 0.4467,1.382911 0.695925,1.927899 -0.685202,0.933401 -1.590579,1.751226 -2.660501,2.153605 0.08144,0.352047 0.148288,0.950162 0.131661,1.315674 1.219546,-0.519548 2.241912,-1.523727 3.023511,-2.61442 0.580582,0.780295 1.378332,1.108581 2.588087,0.564264 0.127855,-0.356282 0.370248,-0.916777 0.549217,-1.21975 -1.063586,0.432735 -1.832942,0.203077 -2.44138,-0.456113 0.319782,-0.575714 0.587241,-1.154458 0.81442,-1.7163 0.216248,-0.521278 0.399456,-1.044967 0.559562,-1.571474 0.30213,0.084728 0.60386,0.178156 0.906582,0.280251 0.01106,-0.25307 0.02424,-0.5060275 0.0395,-0.7589345 C 17.169337,7.950713 16.293576,7.598985 15.425393,7.354525 15.37151,6.823966 15.300047,6.2930945 15.207211,5.7651835 14.91693,5.65269 14.628525,5.5558295 14.342008,5.474588 Z M 8.988088,6.360503 C 8.752578,7.63234 8.5776,8.9333465 8.34953,9.855173 c -0.150336,0.003 -0.301104,0.007 -0.4514105,0.01317 6e-4,0.193612 0.0023,0.387447 0.00375,0.581191 -0.0014,0.444206 -0.0015,0.896164 9.5e-4,1.353292 -0.081302,-0.01016 -0.1623845,-0.02071 -0.2435735,-0.03198 -4.155e-4,-0.446882 3.4e-5,-0.888969 9.5e-4,-1.323198 -0.003,-0.347175 -0.00548,-0.693743 -0.00658,-1.040125 0.262348,-0.02589 0.5248335,-0.04463 0.7871475,-0.05643 0.0048,-0.370579 0.013215,-0.7408985 0.02727,-1.108778 C 8.2996915,8.259985 8.131489,8.2828 7.963013,8.3100315 8.0974055,7.899633 8.271733,7.2926835 8.479314,6.705643 8.2631825,6.6516935 8.0437445,6.6124695 7.8200665,6.59185 7.746992,6.967797 7.573119,7.804562 7.4880915,8.158621 7.6397145,8.202746 7.7897825,8.254562 7.9385615,8.3137935 7.565491,8.3751 7.1922525,8.4594985 6.818499,8.5677115 6.953133,8.4507525 7.0890235,8.333032 7.2266495,8.2141065 7.1869295,7.8220755 7.057547,7.3209825 6.907841,6.971787 6.72135,7.1500705 6.5388575,7.330555 6.359565,7.5106585 c 0.1508535,0.29222 0.276889,0.742301 0.326332,1.096552 -0.1306405,0.039755 -0.2614395,0.082415 -0.392163,0.1278995 0.01587,0.286102 0.030665,0.573674 0.04232,0.861442 0.2507415,-0.04729 0.5006995,-0.08784 0.7514105,-0.122257 0.0055,0.324101 0.01113,0.648614 0.015045,0.973354 6e-4,0.40617 -7.5e-4,0.818399 -0.0047,1.235737 -0.080927,-0.01381 -0.1618205,-0.02835 -0.2426335,-0.04326 0.00568,-0.401999 0.00708,-0.798747 0.00564,-1.190595 -0.00235,-0.170907 -0.00502,-0.342635 -0.00846,-0.51348 -0.152163,0.01347 -0.303979,0.0285 -0.4561125,0.04514 0.00475,0.157607 0.00845,0.315435 0.011285,0.47304 0.00688,0.76464 -0.010735,1.549627 -0.062069,2.341693 0.158278,0.07355 0.316864,0.141938 0.475862,0.205016 0.00542,-0.148953 0.00983,-0.29761 0.014105,-0.445768 0.076984,0.02538 0.154212,0.04998 0.231348,0.07335 -0.060717,0.760276 -0.259659,1.434783 -0.9009405,1.408777 0.11975,0.243368 0.3488215,0.795974 0.4467085,1.105956 0.8220915,-0.0654 1.000854,-1.192104 1.0373035,-2.35768 0.087455,0.02069 0.174735,0.04017 0.2623825,0.05831 0.0017,0.13668 0.00355,0.273576 0.00565,0.410971 0.1599665,0.03784 0.320836,0.07095 0.4815045,0.09875 -0.03443,-0.97551 -0.047085,-1.936666 -0.04326,-2.867399 0.119995,0.205129 0.2581025,0.4671 0.3225705,0.630094 C 8.7381875,10.920372 8.794657,10.702121 8.848913,10.466458 8.925605,10.119813 8.99725,9.733224 9.069916,9.323825 9.060416,9.70596 9.057386,10.0892 9.058636,10.4721 c -5.5e-4,0.113076 -0.0012,0.22571 -9.5e-4,0.339499 9.5e-4,0.410316 -0.02992,1.195205 -0.1636365,1.94953 -0.133987,0.755824 -0.3909505,1.601599 -0.9310345,2.000313 0.118604,0.25662 0.378469,0.942023 0.4721005,1.226332 C 9.199326,15.37903 9.418768,13.5826 9.438563,12.826959 9.553024,13.634308 10.006814,15.389375 11.011917,16 c 0.03185,-0.365533 0.09424,-0.88382 0.157054,-1.219749 -1.279827,-0.838771 -1.47689,-3.187435 -1.476489,-3.944201 -7e-4,-0.114438 -4.76e-4,-0.229358 0,-0.34326 -8e-4,-0.472404 0.0085,-0.945055 0.03009,-1.416301 0.0996,0.0042 0.198533,0.0094 0.298119,0.01599 -0.05697,0.563506 -0.08609,0.949428 -0.127899,1.408777 -0.0073,0.07579 -0.01455,0.148738 -0.02163,0.217242 0.152197,0.15455 0.306502,0.309755 0.462696,0.460815 0.02765,-0.192993 0.055,-0.417498 0.0837,-0.653605 0.0917,-0.766186 0.171905,-1.450197 0.318809,-2.2796235 -0.132616,-0.101839 -0.266596,-0.202399 -0.400627,-0.29906 -0.0346,0.01679 -0.06905,0.03446 -0.103449,0.051724 C 9.926147,7.9695485 9.620167,7.9572175 9.313477,7.9620685 9.403877,7.481761 9.496372,7.00183 9.605012,6.5175545 9.401544,6.4532075 9.196393,6.400508 8.988085,6.360501 Z m 5.037931,1.963636 c 0.731526,0.062179 1.464643,0.1760125 2.199686,0.3413795 -0.14893,0.6329905 -0.345479,1.2370705 -0.590595,1.8075235 -0.132232,0.31628 -0.279352,0.627545 -0.443887,0.931975 -0.155804,-0.276139 -0.301118,-0.584784 -0.439185,-0.917868 -0.25436,-0.630087 -0.481465,-1.357564 -0.726019,-2.16301 z"/>
 <path style="opacity:0.2;fill:#ffffff" d="M 11.5,2 C 6.810022,2 3,5.8099945 3,10.5 3,10.58375 3.00345,10.66683 3.00586,10.75 3.1385815,6.175527 6.8937695,2.5 11.5,2.5 c 4.606307,0 8.36142,3.675527 8.49414,8.25 C 19.996553,10.66683 20,10.583748 20,10.5 20,5.8099945 16.190055,2 11.5,2 Z"/>
</svg>
