<svg xmlns="http://www.w3.org/2000/svg" width="22" height="22" version="1.1">
 <path style="opacity:0.2" d="m 21,9.95 v 9.95 c 0,0.883594 -0.688852,1.6 -1.538462,1.6 H 2.5384616 C 1.6888521,21.5 1,20.783594 1,19.9 V 9.95 Z"/>
 <path style="fill:#e4e4e4" d="M 21,9.45 V 19.4 C 21,20.283594 20.311148,21 19.461538,21 H 2.5384616 C 1.6888521,21 1,20.283594 1,19.4 V 9.45 Z"/>
 <path style="fill:#cdcdcd" d="M 2.5384616,1 C 1.6858473,1 1,1.7217726 1,2.6190476 V 10 H 21 V 2.6190476 C 21,1.7217726 20.314152,1 19.461538,1 Z"/>
 <path style="fill:#3584e4" d="M 15.714621,13 H 12.285379 C 11.023292,13 10,14.119544 10,15.500431 10,16.881318 11.023292,18 12.285379,18 h 3.429242 C 16.976707,18 18,16.881318 18,15.500431 18,14.119544 16.976707,13 15.714621,13 Z m 0,0"/>
 <path style="opacity:0.1" d="M 12.285156,13 C 11.023069,13 10,14.119113 10,15.5 c 0,0.08564 0.01575,0.166579 0.02344,0.25 0.116226,-1.261742 1.077905,-2.25 2.261718,-2.25 h 3.429688 c 1.183812,0 2.145492,0.988258 2.261718,2.25 C 17.984247,15.666579 18,15.585642 18,15.5 18,14.119113 16.97693,13 15.714844,13 Z"/>
 <path style="opacity:0.2" d="m 14,16 c 0,1.380597 1.119453,2.5 2.5,2.5 1.381399,0 2.5,-1.119403 2.5,-2.5 0,-1.380597 -1.118601,-2.5 -2.5,-2.5 -1.380547,0 -2.5,1.119403 -2.5,2.5 z m 0,0"/>
 <path style="fill:#ffffff" d="M 14,15.5 C 14,16.880597 15.119453,18 16.5,18 17.881399,18 19,16.880597 19,15.5 19,14.119403 17.881399,13 16.5,13 15.119453,13 14,14.119403 14,15.5 Z m 0,0"/>
 <path style="opacity:0.1" d="m 3.15625,13 h 4.6875 C 7.930013,13 8,13.08398 8,13.187501 v 1.625 C 8,14.916014 7.930013,15 7.84375,15 H 3.15625 C 3.069987,15 3,14.916016 3,14.812501 v -1.625 C 3,13.083984 3.069987,13 3.15625,13 Z m 0,0"/>
 <path style="fill:#797979" d="M 7,4 H 9 V 6 H 7 Z m 0,0"/>
 <path style="opacity:0.1" d="m 3.140625,17 h 2.71875 C 5.9370115,17 6,17.083984 6,17.1875 v 1.625 C 6,18.916014 5.9370115,19 5.859375,19 H 3.140625 C 3.0629885,19 3,18.916014 3,18.8125 v -1.625 C 3,17.083984 3.0629885,17 3.140625,17 Z m 0,0"/>
 <path style="fill:#797979" d="m 13,4 h 5.1 V 6 H 13 Z m 0,0"/>
 <path style="opacity:0.2" d="m 11.166667,3 h 0.808919 L 10.30892,8 H 9.5 Z m 0,0"/>
 <path style="fill:#3584e4" d="m 13,7 h 5 v 1 h -5 z m 0,0"/>
 <path style="opacity:0.2" d="M 5.1666665,3 H 5.954427 L 4.2877605,8 H 3.5 Z m 0,0"/>
 <rect style="opacity:0.2" width="20" height=".5" x="1" y="10"/>
 <path style="opacity:0.2;fill:#ffffff" d="M 2.538086,1 C 1.6854717,1 1,1.7218656 1,2.6191406 v 0.5 C 1,2.2218656 1.6854717,1.5 2.538086,1.5 H 19.461914 C 20.314527,1.5 21,2.2218656 21,3.1191406 v -0.5 C 21,1.7218656 20.314527,1 19.461914,1 Z"/>
</svg>
