<svg width="22" height="22" version="1.1" xmlns="http://www.w3.org/2000/svg">
 <g transform="translate(-.9997 -.9998)">
  <path d="m12 2c-0.418899-0.010095-0.832508 0.094856-1.195509 0.3033525l-6.7170554 3.8630317c-0.7064077 0.4062158-1.1415611 1.157013-1.1415094 1.9695162v7.6267296c0 0.812411 0.4351023 1.56311 1.1414094 1.969316l6.7170554 3.863232c0.377341 0.217013 0.801462 0.318088 1.22238 0.303225 0.366954-0.01296 0.590422-0.209885 0.919387-0.399076l6.500054-4.000033c0.706407-0.406216 1.000059-0.687509 1.000008-1.500012v-7.5000622c1.7e-5 -0.2754837 0.449558-0.9073939 0.355905-1.1576645-0.182565-0.48787-0.530964-0.9068849-0.997861-1.1753711l-6.717055-3.8630317c-0.331275-0.1902514-0.705221-0.2945608-1.087509-0.3033525z" style="fill:#53d953"/>
  <path d="m11.9995 2.00035a2.2828187 2.2739686 0 0 0-1.195009 0.3027025l-6.7170554 3.8633317a2.2828187 2.2739686 0 0 0-1.1415094 1.9695162v0.5000041a2.2828187 2.2739686 0 0 1 1.1416094-1.9695162l6.7170554-3.8633317a2.2828187 2.2739686 0 0 1 1.195309-0.3027375 2.2828187 2.2739686 0 0 1 1.087909 0.3027375l6.717055 3.8633317a2.2828187 2.2739686 0 0 1 1.14151 1.9695162v-0.5000041a2.2828187 2.2739686 0 0 0-1.14151-1.9695162l-6.717055-3.8633317a2.2828187 2.2739686 0 0 0-1.088009-0.3027025z" style="fill:#ffffff;opacity:.2"/>
  <path d="m2.9459262 15.862464v0.500004a2.2828187 2.2739686 0 0 0 1.1416094 1.968766l6.7170554 3.863332a2.2828187 2.2739686 0 0 0 2.283218 0l6.717055-3.863532a2.2828187 2.2739686 0 0 0 1.14151-1.969016v-0.500004a2.2828187 2.2739686 0 0 1-1.14161 1.968766l-6.717055 3.863332a2.2828187 2.2739686 0 0 1-2.283218 0l-6.7170554-3.863532a2.2828187 2.2739686 0 0 1-1.1415094-1.969016z" style="opacity:.2"/>
  <path d="m3.1765468 7.1417867a2.2828187 2.2739686 0 0 0-0.2304706 0.9941492v7.7266261a2.2828187 2.2739686 0 0 0 1.1416109 1.968766l6.7168519 3.863313a2.2828187 2.2739686 0 0 0 1.141611 0.303713v-9.981527z" style="fill:#ef2b2f"/>
  <path d="m20.721612 7.1603419-8.776439 4.8779701 9.77e-4 9.960042a2.2828187 2.2739686 0 0 0 1.140634-0.303713l6.717829-3.863313a2.2828187 2.2739686 0 0 0 1.141611-1.968766v-7.7266261a2.2828187 2.2739686 0 0 0-0.224612-0.975594z" style="fill:#ffbb1f"/>
  <path d="m20.721541 7.1594909-8.775391 4.8769531v0.499999l8.775391-4.8769521a2.2828187 2.2739686 0 0 1 0.224609 0.9765626v-0.5a2.2828187 2.2739686 0 0 0-0.224609-0.9765626z" style="fill:#ffffff;opacity:.2"/>
  <path d="m3.1766188 7.1419128a2.2828187 2.2739686 0 0 0-0.2304688 0.9941407v0.5a2.2828187 2.2739686 0 0 1 0.2304688-0.9941407l8.7695312 4.8750002v-0.499999z" style="fill:#ffffff;opacity:.2"/>
 </g>
</svg>
