<svg xmlns="http://www.w3.org/2000/svg" width="22" height="22" version="1.1">
 <g transform="translate(-1,-1)">
  <rect style="opacity:0.2" width="20" height="20" x="2" y="2.5" rx="1" ry="1"/>
  <rect style="fill:#4f4f4f" width="20" height="20" x="2" y="2" rx="1" ry="1"/>
  <path style="opacity:0.2" d="M 7,6.5 6,7.5 10.803,12.738 9.5723,14.215 9,13.5 4,19.5 H 20 L 16,15.5 15.609,15.891 12.674,12.689 17,7.5 16,6.5 11.715,11.643 Z M 11.762,13.785 14.609,16.891 13,18.5 10.469,15.336 Z"/>
  <path style="fill:#ffffff" d="M 7,6 6,7 10.803,12.238 9.5723,13.715 9,13 4,19 H 20 L 16,15 15.609,15.391 12.674,12.189 17,7 16,6 11.715,11.143 Z M 11.762,13.285 14.609,16.391 13,18 10.469,14.836 Z"/>
  <path style="opacity:0.1;fill:#ffffff" d="M 3,2 C 2.446,2 2,2.446 2,3 V 3.5 C 2,2.946 2.446,2.5 3,2.5 H 21 C 21.554,2.5 22,2.946 22,3.5 V 3 C 22,2.446 21.554,2 21,2 Z"/>
 </g>
</svg>
