<svg xmlns="http://www.w3.org/2000/svg" width="22" height="22" version="1.1">
 <rect style="opacity:0.2" width="20" height="20" x="1" y="1.5" rx="2" ry="2"/>
 <rect style="fill:#75aa03" width="20" height="20" x="1" y="1" rx="2" ry="2"/>
 <path style="opacity:0.2" d="m 8.328125,4.5332031 -0.2675781,0.1347657 0.75,1.4921874 A 4,4 0 0 0 7.1328125,8.5 H 14.869141 A 4,4 0 0 0 13.189453,6.1621094 L 13.941406,4.6679688 13.673828,4.5332031 12.933594,6.0039062 A 4,4 0 0 0 11,5.5 4,4 0 0 0 9.066406,6.0019531 Z M 9.5,6.5 A 0.5,0.5 0 0 1 10,7 0.5,0.5 0 0 1 9.5,7.5 0.5,0.5 0 0 1 9,7 0.5,0.5 0 0 1 9.189453,6.6074219 a 0.5,0.5 0 0 1 0.0078,-0.00586 l 0.136718,-0.068359 -0.002,-0.00391 A 0.5,0.5 0 0 1 9.5,6.5 Z m 3,0 a 0.5,0.5 0 0 1 0.169922,0.029297 l -0.002,0.00391 0.128906,0.064453 A 0.5,0.5 0 0 1 13,7 0.5,0.5 0 0 1 12.5,7.5 0.5,0.5 0 0 1 12,7 0.5,0.5 0 0 1 12.5,6.5 Z m -7.0078125,3 A 0.50005,0.49855484 0 0 0 5,10.005859 v 3.988282 a 0.50005,0.49855484 0 1 0 1,0 V 10.005859 A 0.50005,0.49855484 0 0 0 5.4921875,9.5 Z M 7,9.5 v 0.5 1 4 1.5 c 0,0.554 0.446,1 1,1 h 1 v -1 h 1.5 V 16 15.95508 C 9.057669,15.711276 8.0014445,14.46279 8,13 c 0,-1.656854 1.343146,-3 3,-3 1.656854,0 3,1.343146 3,3 -4.92e-4,1.463528 -1.056942,2.71311 -2.5,2.957031 V 16 16.5 H 13 v 1 h 1 c 0.554,0 1,-0.446 1,-1 V 15 11 10 9.5 Z m 9.492188,0 A 0.50005,0.49855484 0 0 0 16,10.005859 v 3.988282 a 0.50005,0.49855484 0 1 0 1,0 V 10.005859 A 0.50005,0.49855484 0 0 0 16.492188,9.5 Z M 11,11.5 A 1.5,1.5 0 0 0 9.5,13 1.5,1.5 0 0 0 11,14.5 1.5,1.5 0 0 0 12.5,13 1.5,1.5 0 0 0 11,11.5 Z m 0,0.5 a 1,1 0 0 1 1,1 1,1 0 0 1 -1,1 1,1 0 0 1 -1,-1 1,1 0 0 1 0.04492,-0.294922 A 0.5,0.5 0 0 0 10.5,13 0.5,0.5 0 0 0 11,12.5 0.5,0.5 0 0 0 10.707031,12.044922 1,1 0 0 1 11,12 Z"/>
 <path style="opacity:0.2;fill:#ffffff" d="M 3,1 C 1.892,1 1,1.892 1,3 v 0.5 c 0,-1.108 0.892,-2 2,-2 h 16 c 1.108,0 2,0.892 2,2 V 3 C 21,1.892 20.108,1 19,1 Z"/>
 <path style="fill:#ffffff" d="m 8.328125,4.0332031 -0.2675781,0.1347657 0.75,1.4921874 A 4,4 0 0 0 7.1328125,8 H 14.869141 A 4,4 0 0 0 13.189453,5.6621094 L 13.941406,4.1679688 13.673828,4.0332031 12.933594,5.5039062 A 4,4 0 0 0 11,5 4,4 0 0 0 9.066406,5.5019531 Z M 9.5,6 A 0.5,0.5 0 0 1 10,6.5 0.5,0.5 0 0 1 9.5,7 0.5,0.5 0 0 1 9,6.5 0.5,0.5 0 0 1 9.189453,6.1074219 a 0.5,0.5 0 0 1 0.0078,-0.00586 l 0.136718,-0.068359 -0.002,-0.00391 A 0.5,0.5 0 0 1 9.5,6 Z m 3,0 a 0.5,0.5 0 0 1 0.169922,0.029297 l -0.002,0.00391 0.128906,0.064453 A 0.5,0.5 0 0 1 13,6.5 0.5,0.5 0 0 1 12.5,7 0.5,0.5 0 0 1 12,6.5 0.5,0.5 0 0 1 12.5,6 Z M 5.4921875,9 A 0.50005,0.49855484 0 0 0 5,9.505859 v 3.988282 a 0.50005,0.49855484 0 1 0 1,0 V 9.505859 A 0.50005,0.49855484 0 0 0 5.4921875,9 Z M 7,9 v 0.5 1 4 1.5 c 0,0.554 0.446,1 1,1 h 1 v -1 h 1.5 V 15.5 15.45508 C 9.057669,15.211276 8.0014445,13.96279 8,12.5 c 0,-1.656854 1.343146,-3 3,-3 1.656854,0 3,1.343146 3,3 -4.92e-4,1.463528 -1.056942,2.71311 -2.5,2.957031 V 15.5 16 H 13 v 1 h 1 c 0.554,0 1,-0.446 1,-1 v -1.5 -4 -1 V 9 Z m 9.492188,0 A 0.50005,0.49855484 0 0 0 16,9.505859 v 3.988282 a 0.50005,0.49855484 0 1 0 1,0 V 9.505859 A 0.50005,0.49855484 0 0 0 16.492188,9 Z M 11,11 A 1.5,1.5 0 0 0 9.5,12.5 1.5,1.5 0 0 0 11,14 1.5,1.5 0 0 0 12.5,12.5 1.5,1.5 0 0 0 11,11 Z m 0,0.5 a 1,1 0 0 1 1,1 1,1 0 0 1 -1,1 1,1 0 0 1 -1,-1 1,1 0 0 1 0.04492,-0.294922 A 0.5,0.5 0 0 0 10.5,12.5 0.5,0.5 0 0 0 11,12 0.5,0.5 0 0 0 10.707031,11.544922 1,1 0 0 1 11,11.5 Z"/>
</svg>
