<svg xmlns="http://www.w3.org/2000/svg" width="22" height="22" version="1">
 <g transform="translate(-0.99934416,-1)">
  <path style="opacity:0.2" d="m 10,2.5 c -1.108,0 -2,0.892 -2,2 l 0,7.25 -1.9785156,2.853516 -2.5722656,3.705078 A 3.3579064,2.7942702 0 0 0 6.3574219,22.5 l 5.1425781,0 5.142578,0 a 3.3579064,2.7942702 0 0 0 2.908203,-4.191406 L 16.978516,14.603516 15,11.75 15,4.5 c 0,-1.108 -0.892,-2 -2,-2 l -3,0 z"/>
  <path style="fill:#e4e4e4" d="m 10,2 3,0 c 1.108,0 2,0.892 2,2 l 0,7.7 c 0,1.108 -0.892,2 -2,2 l -3,0 c -1.108,0 -2,-0.892 -2,-2 L 8,4 C 8,2.892 8.892,2 10,2 Z"/>
  <path style="fill:#e4e4e4" d="M 11.658055,9.0030835 A 3.3579064,2.7942702 0 0 0 8.5925195,10.396843 L 6.02098,14.103032 3.4494401,17.80922 A 3.3579064,2.7942702 0 0 0 6.357522,22 L 11.5,22 16.642478,22 A 3.3579064,2.7942702 0 0 0 19.55056,17.809221 L 16.97902,14.103032 14.408081,10.396843 A 3.3579064,2.7942702 0 0 0 11.658055,9.0030835 Z"/>
  <path style="fill:#578aff" d="M 12,5 A 1,1 0 0 0 11,6 1,1 0 0 0 12,7 1,1 0 0 0 13,6 1,1 0 0 0 12,5 Z"/>
  <path style="fill:#578aff" d="M 10,8 A 1,1 0 0 0 9,9 1,1 0 0 0 10,10 1,1 0 0 0 11,9 1,1 0 0 0 10,8 Z"/>
  <path style="fill:#578aff" d="m 13,10 a 1,1 0 0 0 -1,1 1,1 0 0 0 1,1 1,1 0 0 0 1,-1 1,1 0 0 0 -1,-1 z"/>
  <path style="fill:#578aff" d="m 11,13 a 1,1 0 0 0 -1,1 1,1 0 0 0 1,1 1,1 0 0 0 1,-1 1,1 0 0 0 -1,-1 z"/>
  <path style="fill:#578aff" d="M 7.328125,16 6.2910155,17.420898 A 2.172763,1.7195509 0 0 0 8.1728515,20 L 11.5,20 l 3.327149,0 a 2.172763,1.7195509 0 0 0 1.881836,-2.579102 L 15.671875,16 7.328125,16 Z"/>
  <path style="opacity:0.2;fill:#ffffff" d="M 10,2 C 8.892,2 8,2.892 8,4 l 0,0.5 c 0,-1.108 0.892,-2 2,-2 l 3,0 c 1.108,0 2,0.892 2,2 L 15,4 C 15,2.892 14.108,2 13,2 L 10,2 Z M 8,11.25 6.0214844,14.103516 3.4492188,17.808594 A 3.3579064,2.7942702 0 0 0 3.015625,19.462891 3.3579064,2.7942702 0 0 1 3.4492188,18.308594 L 6.0214844,14.603516 8,11.75 8,11.25 Z m 7,0 0,0.5 1.978516,2.853516 2.572265,3.705078 a 3.3579064,2.7942702 0 0 1 0.433594,1.152344 3.3579064,2.7942702 0 0 0 -0.433594,-1.652344 L 16.978516,14.103516 15,11.25 Z"/>
 </g>
</svg>
