<svg xmlns="http://www.w3.org/2000/svg" width="22" height="22" version="1">
 <path fill="#4987d7" d="m2 1c-0.277 0-0.52725 0.11125-0.708 0.292l9.708 9.708 9.708-9.708c-0.181-0.1807-0.431-0.292-0.708-0.292h-18z"/>
 <path fill="#a45390" d="m2 21c-0.277 0-0.52725-0.111-0.708-0.292l9.708-9.708 9.708 9.708c-0.1805 0.181-0.431 0.292-0.708 0.292h-18z"/>
 <path fill="#6db832" d="m21 2c0-0.277-0.11124-0.52725-0.29199-0.708l-9.708 9.708 9.708 9.708c0.181-0.181 0.292-0.431 0.292-0.708v-18z"/>
 <path fill="#c2352a" d="m1 2c0-0.277 0.11124-0.52725 0.29199-0.708l9.708 9.708-9.708 9.708c-0.1808-0.181-0.292-0.431-0.292-0.708v-18z"/>
 <path fill="#fff" opacity=".2" d="m2 1c-0.554 0-1 0.446-1 1v0.5c0-0.554 0.446-1 1-1h18c0.554 0 1 0.446 1 1v-0.5c0-0.554-0.446-1-1-1h-18z"/>
 <path opacity=".2" d="m2 21.5c-0.554 0-1-0.446-1-1v-0.5c0 0.554 0.446 1 1 1h18c0.554 0 1-0.446 1-1v0.5c0 0.554-0.446 1-1 1h-18z"/>
 <g opacity=".2" transform="translate(-1 -.49999)">
  <path d="m6.3208 15h-3.3075v-0.72488l1.1598-1.2509q0.21915-0.23601 0.39784-0.43493t0.30681-0.38773 0.19892-0.38436q0.070803-0.19555 0.070803-0.42144 0-0.2495-0.15172-0.38773-0.14835-0.13823-0.40121-0.13823-0.26635 0-0.51249 0.13149-0.24612 0.13149-0.51585 0.37424l-0.5662-0.67q0.1517-0.138 0.3169-0.263 0.1652-0.128 0.3642-0.226 0.19892-0.09777 0.4383-0.15509 0.23938-0.06069 0.5361-0.06069 0.35401 0 0.63387 0.09777 0.28321 0.09777 0.48215 0.27984 0.19892 0.17869 0.30344 0.43493 0.10789 0.25624 0.10789 0.57652 0 0.28995-0.10115 0.55631-0.10115 0.26298-0.27647 0.51921-0.17532 0.25287-0.40796 0.50572-0.22927 0.24949-0.49223 0.50912l-0.59341 0.59677v0.0472h2.0094v0.87661z"/>
  <path d="m10 6.8621q0-0.3502 0.03669-0.69708 0.04003-0.34686 0.13674-0.6637 0.10006-0.32018 0.26682-0.59367 0.1701-0.27349 0.42691-0.47358 0.26015-0.20345 0.62035-0.31685 0.36354-0.11673 0.84717-0.11673 0.07004 0 0.15342 0.00332t0.16676 0.010004q0.08672 0.00332 0.16676 0.013342 0.08005 0.010004 0.14341 0.023347v0.82381q-0.12674-0.030018-0.27015-0.046694-0.14008-0.020014-0.2835-0.020014-0.45026 0-0.74043 0.1134-0.29017 0.11006-0.46024 0.31018-0.1701 0.20011-0.24347 0.48028-0.07005 0.28016-0.08672 0.62035h0.04003q0.0667-0.12007 0.16009-0.22346 0.09672-0.10673 0.22346-0.1801 0.12674-0.076712 0.28349-0.12007 0.16009-0.043347 0.35687-0.043347 0.31685 0 0.5703 0.10339 0.25348 0.10339 0.42691 0.30017 0.17677 0.19678 0.27015 0.4836 0.09339 0.28683 0.09339 0.65705 0 0.39689-0.1134 0.71042-0.11006 0.31351-0.31685 0.53365-0.20678 0.21679-0.50027 0.33352-0.29326 0.11384-0.65983 0.11384-0.3602 0-0.67395-0.12659-0.312-0.1299-0.546-0.3935-0.23-0.2632-0.363-0.6635-0.131-0.4035-0.131-0.954zm1.6943 1.3141q0.13674 0 0.24681-0.050027 0.1134-0.053365 0.19344-0.15676 0.08338-0.10673 0.12674-0.26682 0.04669-0.16009 0.04669-0.38022 0-0.35687-0.15008-0.56033-0.14663-0.20719-0.45036-0.20719-0.15342 0-0.28016 0.060036t-0.21679 0.15676q-0.09004 0.096721-0.14008 0.21679-0.04669 0.12007-0.04669 0.24347 0 0.1701 0.04003 0.34019 0.04335 0.16676 0.12674 0.3035 0.08671 0.13341 0.21012 0.21679 0.12674 0.083383 0.2935 0.083383z"/>
  <path d="m17.728 11.782q0.31713 0 0.59038 0.09784 0.27327 0.09784 0.47568 0.28676 0.20242 0.18893 0.31713 0.47232 0.1147 0.28002 0.1147 0.64436 0 0.40147-0.12483 0.72198-0.12483 0.31713-0.36773 0.5398-0.2429 0.21929-0.60388 0.33737-0.3579 0.11792-0.82359 0.11792-0.18517 0-0.36758-0.01704-0.18194-0.01658-0.35099-0.05021-0.1649-0.0304-0.31691-0.08107-0.148-0.051-0.27-0.119v-0.90079q0.11808 0.06747 0.27327 0.1282 0.15519 0.05736 0.3205 0.10121 0.16868 0.04049 0.33737 0.06747 0.16868 0.02362 0.3205 0.02362 0.45207 0 0.68821-0.18555 0.23616-0.18893 0.23616-0.59715 0-0.36436-0.23278-0.5533-0.22941-0.1923-0.71184-0.1923-0.08771 0-0.18893 0.01011-0.09784 0.01012-0.19567 0.02698-0.09446 0.01687-0.18218 0.03711-0.08772 0.01687-0.15182 0.03712l-0.41496-0.22266 0.18555-2.5134h2.6045v0.88388h-1.7003l-0.08097 0.96827q0.10796-0.02362 0.24965-0.04723 0.14507-0.02361 0.3711-0.02361z"/>
  <path d="m10.52 21 1.7808-4.1096h-2.3014v-0.89041h3.452v0.66438l-1.8254 4.3354h-1.1063z"/>
 </g>
 <g fill="#fff" transform="translate(-1,-1)">
  <path d="m6.3208 15h-3.3075v-0.72488l1.1598-1.2509q0.21915-0.23601 0.39784-0.43493t0.30681-0.38773 0.19892-0.38436q0.070803-0.19555 0.070803-0.42144 0-0.2495-0.15172-0.38773-0.14835-0.13823-0.40121-0.13823-0.26635 0-0.51249 0.13149-0.24612 0.13149-0.51585 0.37424l-0.5662-0.67q0.1517-0.138 0.3169-0.263 0.1652-0.128 0.3642-0.226 0.19892-0.09777 0.4383-0.15509 0.23938-0.06069 0.5361-0.06069 0.35401 0 0.63387 0.09777 0.28321 0.09777 0.48215 0.27984 0.19892 0.17869 0.30344 0.43493 0.10789 0.25624 0.10789 0.57652 0 0.28995-0.10115 0.55631-0.10115 0.26298-0.27647 0.51921-0.17532 0.25287-0.40796 0.50572-0.22927 0.24949-0.49223 0.50912l-0.59341 0.59677v0.0472h2.0094v0.87661z"/>
  <path d="m10 6.8621q0-0.3502 0.03669-0.69708 0.04003-0.34686 0.13674-0.6637 0.10006-0.32018 0.26682-0.59367 0.1701-0.27349 0.42691-0.47358 0.26015-0.20345 0.62035-0.31685 0.36354-0.11673 0.84717-0.11673 0.07004 0 0.15342 0.00332t0.16676 0.010004q0.08672 0.00332 0.16676 0.013342 0.08005 0.010004 0.14341 0.023347v0.82381q-0.12674-0.030018-0.27015-0.046694-0.14008-0.020014-0.2835-0.020014-0.45026 0-0.74043 0.1134-0.29017 0.11006-0.46024 0.31018-0.1701 0.20011-0.24347 0.48028-0.07005 0.28016-0.08672 0.62035h0.04003q0.0667-0.12007 0.16009-0.22346 0.09672-0.10673 0.22346-0.1801 0.12674-0.076712 0.28349-0.12007 0.16009-0.043347 0.35687-0.043347 0.31685 0 0.5703 0.10339 0.25348 0.10339 0.42691 0.30017 0.17677 0.19678 0.27015 0.4836 0.09339 0.28683 0.09339 0.65705 0 0.39689-0.1134 0.71042-0.11006 0.31351-0.31685 0.53365-0.20678 0.21679-0.50027 0.33352-0.29326 0.11384-0.65983 0.11384-0.3602 0-0.67395-0.12659-0.312-0.1299-0.546-0.3935-0.23-0.2632-0.363-0.6635-0.131-0.4035-0.131-0.954zm1.6943 1.3141q0.13674 0 0.24681-0.050027 0.1134-0.053365 0.19344-0.15676 0.08338-0.10673 0.12674-0.26682 0.04669-0.16009 0.04669-0.38022 0-0.35687-0.15008-0.56033-0.14663-0.20719-0.45036-0.20719-0.15342 0-0.28016 0.060036t-0.21679 0.15676q-0.09004 0.096721-0.14008 0.21679-0.04669 0.12007-0.04669 0.24347 0 0.1701 0.04003 0.34019 0.04335 0.16676 0.12674 0.3035 0.08671 0.13341 0.21012 0.21679 0.12674 0.083383 0.2935 0.083383z"/>
  <path d="m17.728 11.782q0.31713 0 0.59038 0.09784 0.27327 0.09784 0.47568 0.28676 0.20242 0.18893 0.31713 0.47232 0.1147 0.28002 0.1147 0.64436 0 0.40147-0.12483 0.72198-0.12483 0.31713-0.36773 0.5398-0.2429 0.21929-0.60388 0.33737-0.3579 0.11792-0.82359 0.11792-0.18517 0-0.36758-0.01704-0.18194-0.01658-0.35099-0.05021-0.1649-0.0304-0.31691-0.08107-0.148-0.051-0.27-0.119v-0.90079q0.11808 0.06747 0.27327 0.1282 0.15519 0.05736 0.3205 0.10121 0.16868 0.04049 0.33737 0.06747 0.16868 0.02362 0.3205 0.02362 0.45207 0 0.68821-0.18555 0.23616-0.18893 0.23616-0.59715 0-0.36436-0.23278-0.5533-0.22941-0.1923-0.71184-0.1923-0.08771 0-0.18893 0.01011-0.09784 0.01012-0.19567 0.02698-0.09446 0.01687-0.18218 0.03711-0.08772 0.01687-0.15182 0.03712l-0.41496-0.22266 0.18555-2.5134h2.6045v0.88388h-1.7003l-0.08097 0.96827q0.10796-0.02362 0.24965-0.04723 0.14507-0.02361 0.3711-0.02361z"/>
  <path d="m10.52 21 1.7808-4.1096h-2.3014v-0.89041h3.452v0.66438l-1.8254 4.3354h-1.1063z"/>
 </g>
</svg>
