<svg xmlns="http://www.w3.org/2000/svg" width="22" height="22" version="1.1">
 <path style="fill:#6ea23d" d="m11 1a10 10 0 0 0 -10 10 10 10 0 0 0 10 10 10 10 0 0 0 10 -10 10 10 0 0 0 -10 -10z"/>
 <path style="opacity:.2" d="m1.01075 11.209a10 10 0 0 0 -0.01075 0.291 10 10 0 0 0 10 10 10 10 0 0 0 10 -10 10 10 0 0 0 -0.0105 -0.209 10 10 0 0 1 -9.9895 9.709 10 10 0 0 1 -9.989 -9.791z"/>
 <path style="opacity:.2;fill:#ffffff" d="m11 1a10 10 0 0 0 -10 10 10 10 0 0 0 0.01075 0.209 10 10 0 0 1 9.989 -9.709 10 10 0 0 1 9.9895 9.791 10 10 0 0 0 0.0105 -0.291 10 10 0 0 0 -10 -10z"/>
 <path style="opacity:.2" d="m8.8847656 5.5-0.6933594 3h-2.5761718l-0.4609375 2h2.5761719l-0.4609376 2h-2.8085937l-0.4609375 2h2.8066406l-0.6914062 3h2l0.6914062-3h3.0000004l-0.691407 3h2l0.691407-3h2.542968l0.460938-2h-2.541016l0.460938-2h2.773437l0.460938-2h-2.773438l0.69336-3h-2l-0.69336 3h-3l0.69336-3zm0.8457034 5h3l-0.460938 2h-3z"/>
 <path style="fill:#ffffff" d="m8.8847656 5-2.7695312 12h2l2.7695316-12zm5.0000004 0-2.769532 12h2l2.769532-12z"/>
 <path style="fill:#ffffff" d="m5.6152345 8-0.4609375 2h12.349609l0.460938-2z"/>
 <path style="fill:#ffffff" d="m4.461914 12-0.461914 2h12.349609l0.461914-2z"/>
</svg>
