<svg width="22" height="22" version="1.1" xmlns="http://www.w3.org/2000/svg">
 <g transform="translate(-1,-1)">
  <circle cx="12" cy="12.5" r="10" style="opacity:.2"/>
  <circle cx="12" cy="12" r="10" style="fill:#4f4f4f"/>
  <path d="M 12,2 A 10,10 0 0 0 2,12 10,10 0 0 0 2.0098,12.293 10,10 0 0 1 12,2.5 10,10 0 0 1 21.99,12.207 10,10 0 0 0 22,12 10,10 0 0 0 12,2 Z" style="fill:#ffffff;opacity:.1"/>
  <path d="m6.625 13.5c-0.2919487 0-0.5244114 0.216065-0.59375 0.503906-0.0108571-5.23e-4 -0.0202106-0.003906-0.03125-0.003906h-0.5c-0.277 0-0.5 0.16725-0.5 0.375v0.75c0 0.20775 0.223 0.375 0.5 0.375h0.5v1.332031c0 0.369518 0.27875 0.667969 0.625 0.667969h3.75c0.34625 0 0.625-0.298451 0.625-0.667969v-1.441406c0.268003-0.09428 0.620115-0.191406 1-0.191406s0.731997 0.09713 1 0.191406v1.441406c0 0.369518 0.27875 0.667969 0.625 0.667969h3.75c0.34625 0 0.625-0.298451 0.625-0.667969v-1.332031h0.5c0.277 0 0.5-0.16725 0.5-0.375v-0.75c0-0.20775-0.223-0.375-0.5-0.375h-0.5c-0.01104 0-0.02039 0.0034-0.03125 0.0039-0.069339-0.287835-0.301801-0.5039-0.59375-0.5039h-3.75c-0.34625 0-0.625 0.298451-0.625 0.667969v0.523437c-0.268008-0.094288-0.620071-0.191406-1-0.191406s-0.731992 0.09712-1 0.191406v-0.523437c0-0.369518-0.27875-0.667969-0.625-0.667969z" style="opacity:.2"/>
  <path d="m6.625 13c-0.2919487 0-0.5244114 0.216065-0.59375 0.503906-0.0108571-5.23e-4 -0.0202106-0.003906-0.03125-0.003906h-0.5c-0.277 0-0.5 0.16725-0.5 0.375v0.75c0 0.20775 0.223 0.375 0.5 0.375h0.5v1.332031c0 0.369518 0.27875 0.667969 0.625 0.667969h3.75c0.34625 0 0.625-0.298451 0.625-0.667969v-1.441406c0.268003-0.09428 0.620115-0.191406 1-0.191406s0.731997 0.09713 1 0.191406v1.441406c0 0.369518 0.27875 0.667969 0.625 0.667969h3.75c0.34625 0 0.625-0.298451 0.625-0.667969v-1.332031h0.5c0.277 0 0.5-0.16725 0.5-0.375v-0.75c0-0.20775-0.223-0.375-0.5-0.375h-0.5c-0.01104 0-0.02039 0.0034-0.03125 0.0039-0.069339-0.287835-0.301801-0.5039-0.59375-0.5039h-3.75c-0.34625 0-0.625 0.298451-0.625 0.667969v0.523437c-0.268008-0.094288-0.620071-0.191406-1-0.191406s-0.731992 0.09712-1 0.191406v-0.523437c0-0.369518-0.27875-0.667969-0.625-0.667969z" style="fill:#ffffff"/>
  <rect x="4" y="11.5" width="16" height="1" style="opacity:.2"/>
  <rect x="4" y="11" width="16" height="1" style="fill:#ffffff"/>
  <path d="m7 10.5 1-3 3 2 5-2 1 3z" style="opacity:.2"/>
  <path d="m7 10 1-3 3 2 5-2 1 3z" style="fill:#ffffff"/>
 </g>
</svg>
