<svg xmlns="http://www.w3.org/2000/svg" width="22" height="22" version="1">
 <defs>
  <linearGradient id="linearGradient4736" x2="0" y1="24" y2="19" gradientTransform="matrix(.67635 0 0 .8 -5.1164 -8.2)" gradientUnits="userSpaceOnUse">
   <stop offset="0" stop-color="#484848"/>
   <stop offset=".494" stop-color="#505050"/>
   <stop offset="1" stop-color="#484848"/>
  </linearGradient>
 </defs>
 <rect fill="#e4e4e4" width="20" height="20" x="1" y="1" rx="1" ry="1"/>
 <path fill="#fff" opacity=".2" d="m2 1c-0.554 0-1 0.446-1 1v0.5c0-0.554 0.446-1 1-1h18c0.554 0 1 0.446 1 1v-0.5c0-0.554-0.446-1-1-1h-18z"/>
 <path opacity=".2" d="m2 21.5c-0.554 0-1-0.446-1-1v-0.5c0 0.554 0.446 1 1 1h18c0.554 0 1-0.446 1-1v0.5c0 0.554-0.446 1-1 1h-18z"/>
 <path fill="url(#linearGradient4736)" fill-rule="evenodd" d="m3.3605 7c-0.1995 0-0.3605 0.1783-0.3605 0.4v3.2c0 0.222 0.161 0.4 0.3605 0.4h11.814c0.71895 0 1.2972-0.6176 1.3432-1.4016a0.50725 0.6 0 0 0 0.482 -0.59829 0.50725 0.6 0 0 0 -0.482 -0.59829c-0.046-0.784-0.6245-1.4017-1.3435-1.4017h-11.814z"/>
 <path fill="#8d6a3e" d="m8 11v1h7l3 3v-1l-3-3z"/>
 <path fill="#b58a55" d="m9.5 10a2.5 2.5 0 0 0 -2.5 2.5 2.5 2.5 0 0 0 2.5 2.5 2.5 2.5 0 0 0 2.5 -2.5 2.5 2.5 0 0 0 -2.5 -2.5zm0.25 0.5175a2 2 0 0 1 0.9745 0.4045l-0.9745 0.9745v-1.379m-0.5 0.001v1.378l-0.975-0.976a2 2 0 0 1 0.9755 -0.403m1.829 0.756a2 2 0 0 1 0.4025 0.9755h-1.378l0.9755-0.9755zm-3.157 0.001 0.9745 0.9745h-1.379a2 2 0 0 1 0.4045 -0.975m-0.4035 1.475h1.378l-0.9755 0.9755a2 2 0 0 1 -0.4025 -0.976m2.585 0h1.379a2 2 0 0 1 -0.405 0.974l-0.974-0.974m-0.8535 0.3535v1.379a2 2 0 0 1 -0.9755 -0.405l0.975-0.974m0.5 0 0.9755 0.9755a2 2 0 0 1 -0.976 0.402v-1.378z"/>
 <circle fill="#8d6a3e" cx="9.5" cy="12.5"/>
</svg>
