<svg xmlns="http://www.w3.org/2000/svg" width="22" height="22" version="1.1">
 <circle style="opacity:.2" cx="11" cy="11.5" r="10"/>
 <circle style="fill:#e4accb" cx="11" cy="11" r="10"/>
 <circle style="opacity:.2" cx="11" cy="11.5" r="7"/>
 <circle style="fill:#e4e4e4" cx="11" cy="11" r="7"/>
 <path style="fill:#ffffff;opacity:.2" d="M 11,1 A 10,10 0 0 0 1,11 10,10 0 0 0 1.0098,11.293 10,10 0 0 1 11,1.5 10,10 0 0 1 20.99,11.207 10,10 0 0 0 21,11 10,10 0 0 0 11,1 Z"/>
 <path style="opacity:.1" d="m1 15.5h4v-4l1 1 1-1v4h4l-1-8-3-1-1 1-1-1-3 1z"/>
 <path style="fill:#ee5364" d="m1 15h4v-4l1 1 1-1v4h4l-1-8-3-1-1 1-1-1-3 1z"/>
 <path style="opacity:.1" d="m12 3.5v4l2-4zm-2 2 1 2v-2zm5 0-1 2 2-1zm-3.5 2a4.5 4 0 0 0-4.5 4 4.5 4 0 0 0 4.5 4 4.5 4 0 0 0 4.5-4 4.5 4 0 0 0-4.5-4zm0 3a1.5 1 0 0 1 1.5 1 1.5 1 0 0 1-1.5 1 1.5 1 0 0 1-1.5-1 1.5 1 0 0 1 1.5-1z"/>
 <path style="fill:#96b92f" d="m12 3v4l2-4h-2zm-2 2 1 2v-2h-1zm5 0-1 2 2-1-1-1zm-3.5 2a4.5 4 0 0 0-4.5 4 4.5 4 0 0 0 4.5 4 4.5 4 0 0 0 4.5-4 4.5 4 0 0 0-4.5-4zm0 3a1.5 1 0 0 1 1.5 1 1.5 1 0 0 1-1.5 1 1.5 1 0 0 1-1.5-1 1.5 1 0 0 1 1.5-1z"/>
 <path style="opacity:.1" d="m13.5 16.5 0.5-10 7-1.25v3.25h-4v1h3v2h-3v2h3l1 3z"/>
 <path style="fill:#34a0e8" d="m13.5 16 0.5-10 7-1.25v3.25h-4v1h3v2h-3v2h3l1 3z"/>
</svg>
