<svg xmlns="http://www.w3.org/2000/svg" width="22" height="22" version="1.1">
 <path style="opacity:0.2" d="M 2.4285713,3.5000008 H 19.571428 C 20.360351,3.5000008 21,4.1396493 21,4.9285723 V 17.071429 C 21,17.860352 20.360351,18.5 19.571428,18.5 H 2.4285713 C 1.6396484,18.5 1,17.860352 1,17.071429 V 4.9285723 C 1,4.1396493 1.6396484,3.5000008 2.4285713,3.5000008 Z m 0,0"/>
 <path style="fill:#e4e4e4" d="M 2.4285713,3.0000008 H 19.571428 C 20.360351,3.0000008 21,3.6396493 21,4.4285723 V 16.571429 C 21,17.360352 20.360351,18 19.571428,18 H 2.4285713 C 1.6396484,18 1,17.360352 1,16.571429 V 4.4285723 C 1,3.6396493 1.6396484,3.0000008 2.4285713,3.0000008 Z m 0,0"/>
 <path style="opacity:0.2;fill:#ffffff" d="m 2.428711,3.0000008 c -0.7889229,0 -1.4287108,0.639788 -1.4287108,1.428711 v 0.5 c 0,-0.788923 0.6397879,-1.428711 1.4287108,-1.428711 H 19.571289 C 20.360211,3.5000008 21,4.1397888 21,4.9287118 v -0.5 c 0,-0.788923 -0.639789,-1.428711 -1.428711,-1.428711 z"/>
 <g transform="translate(1.4999999,1)">
  <path style="fill:#3f3f3f" d="m 4.5000001,4 c 0,0.552083 -0.4479165,1 -1,1 -0.5520833,0 -1,-0.447917 -1,-1 0,-0.5520834 0.4479167,-1 1,-1 0.5520834,0 0.9999999,0.4479166 1,1 z m 0,0"/>
  <path style="fill:none;stroke:#bbbbbb;stroke-linecap:round" d="m 3.5000001,3.5 v -2"/>
  <path style="fill:#3f3f3f" d="m 7.5000001,4 c 0,0.552083 -0.4479165,1 -1,1 -0.552083,0 -1,-0.447917 -1,-1 0,-0.5520834 0.447917,-1 1,-1 0.5520835,0 1,0.4479166 1,1 z m 0,0"/>
  <path style="fill:none;stroke:#bbbbbb;stroke-linecap:round" d="m 6.5000001,3.5 v -2"/>
  <path style="fill:#3f3f3f" d="m 10.5,4 c 0,0.552083 -0.447916,1 -0.9999999,1 -0.552083,0 -1,-0.447917 -1,-1 0,-0.5520834 0.447917,-1 1,-1 C 10.052084,3 10.5,3.4479166 10.5,4 Z m 0,0"/>
  <path style="fill:none;stroke:#bbbbbb;stroke-linecap:round" d="m 9.5000001,3.5 v -2"/>
  <path style="fill:#3f3f3f" d="m 13.5,4 c 0,0.552083 -0.447916,1 -1,1 -0.552083,0 -1,-0.447917 -1,-1 0,-0.5520834 0.447917,-1 1,-1 0.552084,0 1,0.4479166 1,1 z m 0,0"/>
  <path style="fill:none;stroke:#bbbbbb;stroke-linecap:round" d="m 12.5,3.5 v -2"/>
  <path style="fill:#3f3f3f" d="m 16.5,4 c 0,0.552083 -0.447917,1 -1,1 -0.552083,0 -1,-0.447917 -1,-1 0,-0.5520834 0.447917,-1 1,-1 0.552083,0 1,0.4479166 1,1 z m 0,0"/>
  <path style="fill:none;stroke:#bbbbbb;stroke-linecap:round" d="m 15.5,3.5 v -2"/>
 </g>
 <g>
  <rect style="fill:#bbbbbb" width="16" height=".5" x="3" y="7"/>
  <rect style="fill:#bbbbbb" width="16" height=".5" x="3" y="15.5"/>
  <rect style="fill:#bbbbbb" width=".5" height="9" x="3" y="7"/>
  <rect style="fill:#bbbbbb" width=".5" height="9" x="18.5" y="7"/>
  <rect style="fill:#bbbbbb" width="16" height=".5" x="3" y="12"/>
  <rect style="fill:#bbbbbb" width=".5" height="5" x="14.5" y="7"/>
  <rect style="fill:#bbbbbb" width=".5" height="5" x="7" y="7"/>
  <rect style="fill:#bbbbbb" width="1" height="9" x="-11.5" y="7" transform="scale(-1,1)"/>
 </g>
 <g>
  <path style="opacity:0.2" d="m 19.794922,10.50293 c -0.169044,-0.01569 -0.256836,0.03418 -0.256836,0.03418 l -1.563477,1.133789 -1.575195,1.152343 -6.629883,4.94043 -1.1054685,2.37793 L 8,21.5 l 1.517578,-0.228515 2.526368,-0.451172 6.698241,-4.898438 1.570313,-1.158203 1.564453,-1.133789 c 0,0 0.523977,-0.488045 -0.591797,-1.96582 0,0 0,-0.001 0,-0.001 -8e-4,-10e-4 -0.0022,-0.0028 -0.003,-0.0039 -0.698722,-0.922579 -1.205565,-1.130104 -1.487304,-1.15625 z"/>
  <path style="fill:#ea5a67" d="m 17.974496,11.171319 1.563723,-1.134223 c 0,0 0.626285,-0.353591 1.74424,1.122535 l 2.8e-5,-2.8e-5 c 8e-4,10e-4 0.0015,0.002 0.0023,0.0031 3.07e-4,3.85e-4 6e-4,7.5e-4 8.5e-4,0.0011 v 0 c 1.115774,1.477775 0.591121,1.965776 0.591121,1.965776 l -1.563827,1.134016 z"/>
  <path style="fill:#9e9e9e" d="m 17.974496,11.171319 -1.575528,1.152214 2.343048,3.098398 1.570924,-1.15833 z"/>
  <path style="fill:#ffb505" d="m 16.398969,12.323533 2.343048,3.098399 -6.698418,4.898291 0.188813,-1.207386 -1.298941,-0.285314 0.138053,-1.299275 -1.302016,-0.264643 z"/>
  <path style="fill:#fbe289" d="m 9.769508,17.263605 1.302016,0.264643 -0.138053,1.299275 1.298941,0.285314 -0.188813,1.207386 -2.525656,0.451087 -0.8540075,-1.129324 z"/>
  <path style="fill:#3f3f3f" d="M 9.517943,20.77131 8.6639355,19.641986 8,21 Z"/>
  <path style="opacity:0.2;fill:#ffffff" d="m 19.794922,10.00293 c -0.169044,-0.01569 -0.256836,0.03418 -0.256836,0.03418 l -1.563477,1.133789 -1.575195,1.152343 -6.629883,4.94043 -1.1054685,2.37793 L 8,21 l 0.263672,-0.04004 0.4003905,-0.818359 1.1054685,-2.37793 6.629883,-4.94043 1.575195,-1.152343 1.563477,-1.133789 c 0,0 0.08779,-0.04987 0.256836,-0.03418 0.281739,0.02614 0.788583,0.233671 1.487304,1.15625 8.01e-4,10e-4 0.0022,0.0029 0.0029,0.0039 v 10e-4 c 0.42869,0.567773 0.613365,0.986989 0.680665,1.291015 0.0771,-0.247742 0.07717,-0.787304 -0.680665,-1.791015 v -10e-4 c -8e-4,-10e-4 -0.0022,-0.0029 -0.0029,-0.0039 C 20.583505,10.2366 20.076661,10.029075 19.794922,10.00293 Z"/>
 </g>
</svg>
