<svg xmlns="http://www.w3.org/2000/svg" width="22" height="22" version="1">
 <path style="fill:#546e7a" d="M 11,3.4169616e-7 C 10.578643,3.4169616e-7 10.157603,0.16154904 9.8347369,0.48478894 L 7.8247558,2.9963383 H 4.7146456 c -0.9396184,0 -1.6661307,0.7579993 -1.6962569,1.6982239 V 7.8083176 L 0.50970936,9.8206292 c -0.71267006,0.5716608 -0.64573126,1.6867488 0,2.3332288 L 3.0183887,14.16617 v 3.113677 c 0,0.940707 0.7566385,1.698223 1.6962569,1.698223 h 3.1101102 l 2.0099811,2.511628 c 0.5709931,0.7135 1.6847951,0.64648 2.3305261,0 l 2.009981,-2.511628 h 3.11011 c 0.939618,0 1.666131,-0.758 1.696257,-1.698223 V 14.16617 l 2.50868,-2.012312 c 0.712669,-0.571661 0.645731,-1.686748 0,-2.3332288 L 18.981611,7.8083176 V 4.6945622 c 0,-0.9407081 -0.756639,-1.6982239 -1.696257,-1.6982239 h -3.11011 L 12.165263,0.48478894 C 11.879761,0.12804314 11.421358,3.4169616e-7 11,3.4169616e-7 Z"/>
 <path style="opacity:0.2" d="M 11,5.5001105 A 5.9999611,5.9999611 0 0 0 5.0000388,11.500071 5.9999611,5.9999611 0 0 0 11,17.500033 Z"/>
 <path style="fill:#ffffff" d="M 11,5.0001137 A 5.9999611,5.9999611 0 0 0 5.0000388,11.000075 5.9999611,5.9999611 0 0 0 11,17.000036 Z"/>
 <path style="opacity:0.1;fill:#ffffff" d="M 11,2.4169616e-7 C 10.578643,2.4169616e-7 10.15685,0.16113534 9.8339839,0.48437524 L 7.8242187,2.996094 h -3.109375 c -0.9396184,0 -1.6671395,0.7589941 -1.6972657,1.6992187 v 0.5 C 3.0477042,4.2550881 3.7752253,3.496094 4.7148437,3.496094 h 3.109375 L 9.8339839,0.98437524 C 10.15685,0.66113534 10.578643,0.50000024 11,0.50000024 c 0.421358,0 0.880514,0.1276292 1.166016,0.484375 L 14.175781,3.496094 h 3.109375 c 0.939618,-10e-8 1.697266,0.7585106 1.697266,1.6992187 v -0.5 c 0,-0.9407081 -0.757648,-1.6992188 -1.697266,-1.6992187 H 14.175781 L 12.166016,0.48437524 C 11.880514,0.12762944 11.421358,2.4169616e-7 11,2.4169616e-7 Z M 3.017578,7.808594 0.50976546,9.8203122 c -0.4126821,0.3310288 -0.55748414,0.8447888 -0.4863281,1.3437498 0.05476,-0.323345 0.2120166,-0.623713 0.4863281,-0.84375 L 3.017578,8.308594 Z m 15.964844,0 v 0.5 l 2.507812,2.011718 c 0.271811,0.272127 0.434604,0.627528 0.486328,0.990235 0.08822,-0.517173 -0.08869,-1.092135 -0.486328,-1.4902348 z"/>
</svg>
