<svg xmlns="http://www.w3.org/2000/svg" width="22" height="22" version="1">
 <g transform="translate(-1,-1)">
  <path style="opacity:0.2" d="M 3,4.5 C 2.446,4.5 2,4.946 2,5.5 V 19.5 C 2,20.054 2.446,20.5 3,20.5 H 14 L 22,12.5 V 5.5 C 22,4.946 21.554,4.5 21,4.5 Z"/>
  <path style="fill:#03a9f4" d="M 22,12 V 5 C 22,4.446 21.554,4 21,4 H 3 C 2.446,4 2,4.446 2,5 V 19 C 2,19.554 2.446,20 3,20 H 14 L 16,14 Z"/>
  <path style="opacity:0.2;fill:#ffffff" d="M 3,4 C 2.446,4 2,4.446 2,5 V 5.5 C 2,4.946 2.446,4.5 3,4.5 H 21 C 21.554,4.5 22,4.946 22,5.5 V 5 C 22,4.446 21.554,4 21,4 Z"/>
  <path style="fill:#26c6da" d="M 2,16 V 19 C 2,19.554 2.446,20 3,20 H 14 L 15,16 Z"/>
  <path style="fill:#4f4f4f" d="M 4.1641,14.357 C 4.0545,14.361 3.949,14.372 3.8477,14.393 3.4422,14.476 2,15.43 2,15.43 V 16 H 4.4277 15 V 15.078 C 14.691,15.045 14.421,15.009 14.295,14.998 14.126,14.982 13.647,14.926 13.373,14.889 13.097,14.851 12.855,14.816 12.648,14.797 12.442,14.778 11.532,14.71 10.869,14.67 10.207,14.629 9.5849,14.596 9.3359,14.596 9.0869,14.593 8.2887,14.617 7.8066,14.646 7.3244,14.675 6.909,14.703 6.6797,14.695 6.4504,14.687 5.7167,14.563 5.2246,14.471 4.8555,14.401 4.4929,14.346 4.1641,14.357 Z"/>
  <path style="fill:#cccccc" d="M 22,12 H 15 C 14.448,12 14,12.448 14,13 V 20 Z"/>
  <path style="opacity:0.2;fill:#ffffff" d="M 15,12 C 14.448,12 14,12.448 14,13 V 13.5 C 14,12.948 14.448,12.5 15,12.5 H 21.5 L 22,12 Z"/>
  <circle style="opacity:0.2" cx="7" cy="10.5" r="3"/>
  <circle style="fill:#fffa6a" cx="7" cy="10" r="3"/>
 </g>
</svg>
