<svg xmlns="http://www.w3.org/2000/svg" width="22" height="22" version="1">
 <rect style="opacity:0.2" width="20" height="20" x="1" y="1.5" rx="1.5" ry="1.5"/>
 <path style="fill:#e631a1" d="M 19.5,1 H 11 v 20 h 8.5 C 20.331,21 21,20.331 21,19.5 V 2.5 C 21,1.669 20.331,1 19.5,1 Z"/>
 <path style="fill:#4f4f4f" d="M 2.5,1 H 11 V 21 H 2.5 C 1.669,21 1,20.331 1,19.5 V 2.5 C 1,1.669 1.669,1 2.5,1 Z"/>
 <path style="opacity:0.1;fill:#ffffff" d="M 11,11 V 21 H 2.5 C 1.669,21 1,20.331 1,19.5 V 11 Z"/>
 <path style="opacity:0.2" d="M 5.7734375,3.5 C 5.4822941,3.5 5.0758438,3.6060056 4.2910156,3.8847656 4.2150676,3.9112976 4.2156379,3.910933 4.1523438,3.9375 L 4.203125,4.1367188 C 4.6968104,4.0039767 4.7855154,3.9902344 4.9121094,3.9902344 c 0.316458,0 0.3911313,0.1215063 0.5683594,0.9179687 L 5.8476562,6.5390625 4.8105469,8.0917969 c -0.265824,0.3982272 -0.5072394,0.6386719 -0.6464844,0.6386719 -0.075949,0 -0.2015424,-0.039516 -0.328125,-0.1191407 C 3.6713827,8.5184073 3.5435942,8.4785156 3.4296875,8.4785156 3.1765231,8.4785156 3,8.675923 3,8.9414062 3,9.286541 3.2403896,9.5 3.6328125,9.5 4.0252347,9.5 4.1776159,9.38045 4.8105469,8.5839844 5.1523201,8.1459184 5.4302307,7.7476461 5.9492188,7.0175781 l 0.3808593,1.59375 C 6.4946347,9.301595 6.6574346,9.5 7.0625,9.5 7.5435344,9.5 7.8732385,9.181032 8.6074219,7.9863281 L 8.4296875,7.8808594 C 8.3284195,8.0003302 8.2662692,8.0789922 8.1523438,8.2382812 7.8612008,8.6365128 7.7085372,8.7695312 7.5566406,8.7695312 7.379424,8.7695312 7.266346,8.5982421 7.1777344,8.2265625 7.1397604,8.0805447 7.1396131,8.0534933 7.1269531,8.0136719 6.8104951,6.6596729 6.6699219,6.0487416 6.6699219,5.8496094 7.2395553,4.8142308 7.6842636,4.2421875 7.9121094,4.2421875 c 0.075949,0 0.1888111,0.041034 0.3027344,0.1074219 C 8.366744,4.4425294 8.4563891,4.46875 8.5703125,4.46875 8.8234785,4.4687494 9,4.2689858 9,3.9902344 9,3.6981988 8.7842675,3.5 8.4804688,3.5 7.9234856,3.5 7.4563931,3.9780615 6.5703125,5.3984375 L 6.4296875,4.6679688 C 6.2524715,3.7653028 6.1152137,3.5 5.7734375,3.5 Z M 13,9.5 v 1 h 6 v -1 z m 0,3 v 1 h 6 v -1 z m -6.9628906,1 c -0.8923398,0 -1.616464,0.249116 -2.171875,0.748047 -0.5523883,0.498932 -0.828125,1.102005 -0.828125,1.808594 0,0.63736 0.1980928,1.165796 0.5957031,1.583984 0.3975804,0.418186 0.8377295,0.673338 1.3203125,0.765625 l 0.00781,0.289062 H 3.9101562 c -0.2519081,0 -0.4354477,-0.04034 -0.5507812,-0.121093 C 3.2440447,18.49348 3.1801102,18.349295 3.1679688,18.144531 H 3 V 19.5 H 5.3574219 L 5.2714844,18.195312 C 4.816226,18.036671 4.5065631,17.760426 4.3457031,17.371094 4.1848425,16.97889 4.1054687,16.546184 4.1054688,16.070312 c 0,-0.657546 0.1789639,-1.19808 0.5371093,-1.61914 0.3611688,-0.423958 0.8158702,-0.634766 1.3652344,-0.634766 0.5159742,0 0.9652439,0.197702 1.3476563,0.595703 0.3854615,0.398001 0.5800781,0.969837 0.5800781,1.716797 0,1.142049 -0.3927375,1.832803 -1.1757813,2.066406 L 6.6425781,19.5 H 9 V 18.144531 H 8.8320312 c -0.00607,0.158618 -0.056299,0.290705 -0.1503906,0.394531 -0.091048,0.103824 -0.2800186,0.156251 -0.5683594,0.15625 H 7.0390625 l 0.042969,-0.289062 c 0.5827543,-0.161514 1.0448405,-0.451898 1.3847657,-0.867188 0.3429756,-0.418186 0.515625,-0.924495 0.515625,-1.521484 0,-0.735418 -0.274854,-1.336539 -0.8242188,-1.80664 C 7.6088377,13.737963 6.9021048,13.5 6.0371094,13.5 Z"/>
 <path style="fill:#ffffff" d="M 5.7734375,3 C 5.4822941,3 5.0758438,3.1060056 4.2910156,3.3847656 4.2150676,3.4112976 4.2156379,3.410933 4.1523438,3.4375 L 4.203125,3.6367188 C 4.6968104,3.5039767 4.7855154,3.4902344 4.9121094,3.4902344 c 0.316458,0 0.3911313,0.1215063 0.5683594,0.9179687 L 5.8476562,6.0390625 4.8105469,7.5917969 c -0.265824,0.3982272 -0.5072394,0.6386719 -0.6464844,0.6386719 -0.075949,0 -0.2015424,-0.039516 -0.328125,-0.1191407 C 3.6713827,8.0184073 3.5435942,7.9785156 3.4296875,7.9785156 3.1765231,7.9785156 3,8.175923 3,8.4414062 3,8.7865407 3.2403896,9 3.6328125,9 4.0252347,9 4.1776159,8.8804502 4.8105469,8.0839844 5.1523201,7.6459184 5.4302307,7.2476461 5.9492188,6.5175781 l 0.3808593,1.59375 C 6.4946347,8.8015951 6.6574346,9 7.0625,9 7.5435344,9 7.8732385,8.6810325 8.6074219,7.4863281 L 8.4296875,7.3808594 C 8.3284195,7.5003302 8.2662692,7.5789922 8.1523438,7.7382812 7.8612008,8.1365128 7.7085372,8.2695312 7.5566406,8.2695312 7.379424,8.2695312 7.266346,8.0982421 7.1777344,7.7265625 7.1397604,7.5805447 7.1396131,7.5534933 7.1269531,7.5136719 6.8104951,6.1596729 6.6699219,5.5487416 6.6699219,5.3496094 7.2395553,4.3142308 7.6842636,3.7421875 7.9121094,3.7421875 c 0.075949,0 0.1888111,0.041034 0.3027344,0.1074219 C 8.366744,3.9425294 8.4563891,3.96875 8.5703125,3.96875 8.8234785,3.9687494 9,3.7689858 9,3.4902344 9,3.1981988 8.7842675,3 8.4804688,3 7.9234856,3 7.4563931,3.4780615 6.5703125,4.8984375 L 6.4296875,4.1679688 C 6.2524715,3.2653028 6.1152137,3 5.7734375,3 Z M 13,9 v 1 h 6 V 9 Z m 0,3 v 1 h 6 v -1 z m -6.9628906,1 c -0.8923398,0 -1.616464,0.249116 -2.171875,0.748047 -0.5523883,0.498932 -0.828125,1.102005 -0.828125,1.808594 0,0.63736 0.1980928,1.165796 0.5957031,1.583984 0.3975804,0.418186 0.8377295,0.673338 1.3203125,0.765625 l 0.00781,0.289062 H 3.9101562 c -0.2519081,0 -0.4354477,-0.04034 -0.5507812,-0.121093 C 3.2440447,17.99348 3.1801102,17.849295 3.1679688,17.644531 H 3 V 19 H 5.3574219 L 5.2714844,17.695312 C 4.816226,17.536671 4.5065631,17.260426 4.3457031,16.871094 4.1848425,16.47889 4.1054687,16.046184 4.1054688,15.570312 c 0,-0.657546 0.1789639,-1.19808 0.5371093,-1.61914 0.3611688,-0.423958 0.8158702,-0.634766 1.3652344,-0.634766 0.5159742,0 0.9652439,0.197702 1.3476563,0.595703 0.3854615,0.398001 0.5800781,0.969837 0.5800781,1.716797 0,1.142049 -0.3927375,1.832803 -1.1757813,2.066406 L 6.6425781,19 H 9 V 17.644531 H 8.8320312 c -0.00607,0.158618 -0.056299,0.290705 -0.1503906,0.394531 -0.091048,0.103824 -0.2800186,0.156251 -0.5683594,0.15625 H 7.0390625 l 0.042969,-0.289062 c 0.5827543,-0.161514 1.0448405,-0.451898 1.3847657,-0.867188 0.3429756,-0.418186 0.515625,-0.924495 0.515625,-1.521484 0,-0.735418 -0.274854,-1.336539 -0.8242188,-1.80664 C 7.6088377,13.237963 6.9021048,13 6.0371094,13 Z"/>
 <path style="opacity:0.1;fill:#ffffff" d="M 2.5,1 C 1.669,1 1,1.669 1,2.5 V 3 C 1,2.169 1.669,1.5 2.5,1.5 h 17 C 20.331,1.5 21,2.169 21,3 V 2.5 C 21,1.669 20.331,1 19.5,1 Z"/>
</svg>
