<svg xmlns="http://www.w3.org/2000/svg" width="22" height="22" version="1.1">
 <path style="opacity:0.2" d="m 8.5253905,1.5002165 c -0.066542,-0.00134 -0.135245,0.010869 -0.2011718,0.037109 L 6.095703,2.4240446 C 5.831995,2.5290066 5.7055848,2.8263522 5.8105468,3.0900603 L 6.5234374,4.8791227 A 8,8 0 0 0 4.5058593,6.8400603 L 2.736328,6.0783415 C 2.475639,5.9660905 2.1747503,6.0852296 2.0624999,6.3459196 l -0.9472656,2.203125 c -0.1122505,0.260689 0.00689,0.5615779 0.2675781,0.6738279 l 1.765625,0.759765 a 8,8 0 0 0 -0.1484375,1.5175775 8,8 0 0 0 0.109375,1.298828 l -1.7871094,0.710938 c -0.2637081,0.104962 -0.39011828,0.402308 -0.2851562,0.666015 l 0.8867187,2.228516 c 0.104962,0.263709 0.4023076,0.390117 0.6660157,0.285156 l 1.7890624,-0.712891 a 8,8 0 0 0 1.9609376,2.017579 l -0.7617188,1.769531 c -0.112251,0.260689 0.00689,0.561577 0.2675781,0.673828 l 2.203125,0.947266 c 0.260689,0.11225 0.5615776,-0.0068 0.6738281,-0.267578 L 9.4824219,19.351777 A 8,8 0 0 0 11,19.500215 8,8 0 0 0 12.298828,19.39084 l 0.710938,1.787109 c 0.104962,0.263708 0.402308,0.390119 0.666015,0.285157 l 2.228516,-0.886719 c 0.263708,-0.104962 0.390118,-0.402308 0.285156,-0.666016 l -0.712891,-1.789062 a 8,8 0 0 0 2.017579,-1.960938 l 1.769531,0.761719 c 0.260689,0.112251 0.561577,-0.0069 0.673828,-0.267578 l 0.947266,-2.203125 c 0.11225,-0.260689 -0.0068,-0.561577 -0.267578,-0.673828 L 18.851562,13.017793 A 8,8 0 0 0 19,11.500215 8,8 0 0 0 18.890625,10.201387 l 1.787109,-0.7109365 c 0.263708,-0.104962 0.390119,-0.402308 0.285157,-0.6660152 L 20.076172,6.5959196 C 19.97121,6.3322116 19.673864,6.2058014 19.410156,6.3107634 L 17.621094,7.023654 A 8,8 0 0 0 15.660156,5.0060759 L 16.421875,3.2365446 C 16.534126,2.9758555 16.414937,2.674967 16.154297,2.5627165 L 13.951172,1.6154509 C 13.690484,1.5032005 13.389595,1.6223392 13.277344,1.883029 L 12.517578,3.648654 A 8,8 0 0 0 11,3.5002165 8,8 0 0 0 9.7011719,3.6095915 L 8.9902343,1.8224821 C 8.9115128,1.6247011 8.725017,1.5042318 8.5253905,1.5002165 Z"/>
 <path style="fill:#e4e4e4" d="m 13.95133,1.1147481 c -0.260688,-0.1122504 -0.560925,0.00725 -0.673176,0.2679398 L 11.062414,6.5284955 8.9905909,1.3232149 C 8.8856289,1.0595068 8.5889009,0.93173816 8.3251934,1.0367003 l -2.228581,0.8870271 c -0.263708,0.104962 -0.391477,0.4016901 -0.286515,0.6653981 L 7.8819209,7.794406 2.7361131,5.5786665 c -0.260689,-0.112251 -0.5609255,0.00725 -0.6731759,0.26794 L 1.1147477,8.04867 c -0.1122505,0.260689 0.00725,0.560926 0.2679397,0.673176 l 5.1458075,2.21574 -5.2052805,2.071823 c -0.2637081,0.104962 -0.39147668,0.40169 -0.2865146,0.665397 l 0.8870272,2.228581 c 0.104962,0.263709 0.4016901,0.391477 0.6653981,0.286516 l 5.2052803,-2.071824 -2.215739,5.145808 c -0.112251,0.260689 0.00725,0.560925 0.2679395,0.673176 l 2.202064,0.94819 c 0.260689,0.11225 0.5609255,-0.0072 0.673176,-0.26794 l 2.2157401,-5.145808 2.071823,5.205281 c 0.104962,0.263708 0.401691,0.391476 0.665398,0.286514 l 2.228581,-0.887027 c 0.263708,-0.104962 0.391476,-0.40169 0.286514,-0.665398 l -2.071823,-5.20528 5.145808,2.215739 c 0.260689,0.112251 0.560925,-0.0073 0.673176,-0.26794 l 0.94819,-2.202064 c 0.11225,-0.260689 -0.0072,-0.560925 -0.26794,-0.673176 l -5.145808,-2.21574 5.205281,-2.0718225 C 20.940494,8.8856295 21.068262,8.588901 20.9633,8.3251935 L 20.076273,6.0966125 C 19.971311,5.8329045 19.674583,5.705136 19.410875,5.810098 l -5.20528,2.071823 2.215739,-5.1458073 c 0.112251,-0.2606891 -0.0073,-0.5609256 -0.26794,-0.6731761 z"/>
 <circle style="fill:#e4e4e4" cx="11" cy="11" r="8"/>
 <path style="opacity:0.1" d="m 9.8000009,5.5000408 -2.800001,4.9999832 3.0003721,4.999982 v -1.999993 c -0.5145041,-0.05305 -0.8623231,-0.290664 -0.8965061,-0.643478 -0.03952,-0.408094 0.282059,-0.728518 0.129579,-1.053603 0.594208,0.146218 0.8093351,0.379034 0.9581831,0.723125 0.07371,-0.240228 -0.147585,-0.415055 -0.168975,-0.569337 0.771543,0.341373 0.989991,0.726389 0.979539,1.548012 -0.0028,0.219605 -0.610448,0.925661 -0.598667,1.135073 0.0118,0.209411 0.244112,0.446083 0.270923,0.62169 0.02632,0.172522 -0.451544,0.397834 -0.451544,0.742827 0,0.327056 0.77708,1.495678 0.77708,1.495678 l 0.799999,-1.333329 c -0.424835,0.226799 -0.699416,0.248043 -0.898335,0.238182 -0.284996,0.01369 -0.431904,-0.249018 -0.393336,-0.409725 0.06099,-0.254101 0.491672,-0.548809 0.491672,-0.737506 0,-0.22536 -0.176329,-0.369141 -0.156697,-0.588369 0.01965,-0.219228 0.872328,-0.8428 0.789224,-1.30555 -0.129772,-0.722609 -0.300131,-1.13791 0.396568,-1.439705 -0.08759,0.248503 -0.03428,0.393054 0.0118,0.63478 0.08305,-0.464222 0.332048,-0.525531 0.74996,-0.788566 -0.120772,0.495943 0.126156,0.682538 0.109936,1.056874 -0.0162,0.374336 -0.642863,0.664663 -0.900775,0.672927 v 0.999997 c 0.172176,-0.07905 0.441871,1.16e-4 0.600003,0 L 15,10.500024 12.200003,5.5000408 v 0.6666643 c -0.245956,0.1334722 -0.265424,0.2270123 -0.258652,0.44312 0,0 0.136932,-0.119604 0.258652,-0.109788 0.12172,0.00981 0.796071,1.8363905 0.799999,1.9999937 -4e-6,0.202867 -0.799999,0.3333323 -0.799999,0.6666647 0.192219,-0.160005 0.507096,-0.105953 0.794071,0.0047 0.223136,0.08607 0.393584,0.9385505 0.424995,1.1316025 -0.0077,0.196323 -0.259147,0.369741 -0.573267,0.373014 -0.314115,0.0033 -0.45547,-0.0458 -0.459395,-0.163601 -0.0041,-0.117794 0.404424,-0.428639 0.404424,-0.428639 -0.468112,-0.02143 -0.677403,0.247723 -0.852043,0.438455 0.02332,-0.114522 0.0471,-0.196324 0.07068,-0.294485 -0.238103,0.0383 -0.348556,0.194275 -0.435839,0.320662 -0.118361,-0.254786 -0.820341,-0.7863905 -0.808857,-1.0097715 -0.043,-0.367013 1.286324,-0.343953 1.427527,-1.1975721 -0.0078,-0.3239334 -0.368792,-0.6374543 -0.701127,-0.7107633 -0.267004,-0.058897 -0.353384,-0.07853 -0.353384,-0.07853 0.179284,-0.080397 0.71738,-0.3099431 0.588968,-0.6282344 -0.04943,0.1256898 -0.110512,0.2849288 -0.663572,0.3108757 -0.565528,-0.2270641 -0.492072,-0.5679162 -0.400499,-0.8441909 -0.372884,0.226774 -0.31748,0.4475819 -0.223808,0.7722049 0.0266,0.1603293 -0.17124,0.2948117 -0.228996,0.4011497 0.01143,0.1339127 0.02064,0.2795339 -0.06941,0.3416072 -0.2238281,0.2035254 0.04946,0.5135306 0.176684,0.49408 -0.01744,-0.4023604 0.47164,-0.5590616 0.667499,-0.6020574 0.321972,-3.4e-6 0.90138,0.3606533 0.897451,0.5602486 -0.004,0.199595 -0.390935,0.3959183 -0.869963,0.5300728 -0.479031,0.1341552 -0.863827,0.3108452 -0.852047,0.7427562 0.015,0.4220845 0.252648,0.8125845 0.298412,0.9279695 -0.159684,-0.127898 -0.247688,-0.312889 -0.4790271,-0.340293 0.05516,0.098 0.1120911,0.206993 0.1609911,0.320661 -0.2421321,-0.326433 -0.4926631,-0.421522 -0.9305751,-0.471175 0.770112,0.512363 0.238008,0.619458 -0.04711,0.615146 -0.2719037,-0.0041 -0.6096708,-0.09655 -0.5732628,-0.359927 0.02192,-0.158512 0.1445876,-1.0350845 0.4245428,-1.1504075 0.295136,-0.121576 0.605859,-0.114925 0.785944,-0.0056 0,-0.333332 -0.8052112,-0.5156036 -0.799999,-0.6666651 0.0052,-0.1510609 0.672063,-1.9999932 0.799999,-1.9999932 0.127936,0 0.173123,0.02232 0.2500001,0.1197913 0.07315,-0.3158163 -0.1682491,-0.3395887 -0.2500001,-0.4531233 3e-6,-0.078529 0,-0.6666647 0,-0.6666647 z"/>
 <path style="fill:#4f4f4f" d="m 9.8000009,5.0000368 -2.800001,4.9999832 3.0003721,4.999982 v -1.999993 c -0.5145041,-0.05305 -0.8623231,-0.290664 -0.8965061,-0.643478 -0.03952,-0.408094 0.282059,-0.728518 0.129579,-1.053603 0.594208,0.146218 0.60896,0.379034 0.757808,0.723125 0.07371,-0.240228 0.05279,-0.415055 0.0314,-0.569337 0.771543,0.341373 0.989991,0.726389 0.979539,1.548012 -0.0028,0.219605 -0.610448,0.925661 -0.598667,1.135073 0.0118,0.209411 0.244112,0.446083 0.270923,0.62169 0.02632,0.172522 -0.451544,0.397834 -0.451544,0.742827 0,0.327056 0.77708,1.495678 0.77708,1.495678 l 0.799999,-1.333329 c -0.424835,0.226799 -0.699416,0.248043 -0.898335,0.238182 -0.284996,0.01369 -0.431904,-0.249018 -0.393336,-0.409725 0.06099,-0.254101 0.491672,-0.548809 0.491672,-0.737506 0,-0.22536 -0.176329,-0.369141 -0.156697,-0.588369 0.01965,-0.219228 0.872328,-0.8428 0.789224,-1.30555 -0.129772,-0.722609 -0.300131,-1.13791 0.396568,-1.439705 -0.08759,0.248503 -0.03428,0.393054 0.0118,0.63478 0.08305,-0.464222 0.332048,-0.525531 0.74996,-0.788566 -0.120772,0.495943 0.126156,0.682538 0.109936,1.056874 -0.0162,0.374336 -0.642863,0.664663 -0.900775,0.672927 v 0.999997 c 0.172176,-0.07905 0.441871,1.16e-4 0.600003,0 L 15,10.00002 12.200003,5.0000368 v 0.6666643 c -0.245956,0.1334722 -0.265424,0.2270123 -0.258652,0.44312 0,0 0.136932,-0.119604 0.258652,-0.109788 0.12172,0.00981 0.796071,1.8363905 0.799999,1.9999937 -4e-6,0.202867 -0.799999,0.3333323 -0.799999,0.6666645 0.192219,-0.1600053 0.507096,-0.1059525 0.794071,0.00473 0.223136,0.086072 0.393584,0.9385512 0.424995,1.1316032 -0.0077,0.196323 -0.259147,0.3697405 -0.573267,0.3730135 -0.314115,0.0033 -0.45547,-0.0458 -0.459395,-0.163601 -0.0041,-0.1177935 0.404424,-0.4286385 0.404424,-0.4286385 -0.468112,-0.02143 -0.677403,0.247723 -0.852043,0.4384545 0.02332,-0.1145215 0.0471,-0.1963235 0.07068,-0.2944845 -0.238103,0.0383 -0.348556,0.194275 -0.435839,0.3206615 -0.118361,-0.2547855 -0.820341,-0.7863905 -0.808857,-1.0097715 -0.043,-0.3670125 1.286324,-0.3439527 1.427527,-1.1975721 -0.0078,-0.3239334 -0.368792,-0.6374543 -0.701127,-0.7107633 -0.267004,-0.058897 -0.353384,-0.07853 -0.353384,-0.07853 0.179284,-0.080397 0.71738,-0.3099431 0.588968,-0.6282344 -0.04943,0.1256598 -0.110512,0.2848988 -0.663572,0.3108457 -0.565528,-0.2270641 -0.492072,-0.5679162 -0.400499,-0.8441909 -0.372884,0.226774 -0.31748,0.4475819 -0.223808,0.7722049 0.0266,0.1603293 -0.17124,0.2948117 -0.228996,0.4011497 0.01143,0.1339127 0.02064,0.2795339 -0.06941,0.3416072 -0.2238281,0.2035254 0.04946,0.5135306 0.176684,0.49408 -0.01744,-0.4023604 0.47164,-0.5590616 0.667499,-0.6020574 0.321972,-3.4e-6 0.90138,0.3606533 0.897451,0.5602486 -0.004,0.199595 -0.390935,0.3959183 -0.869963,0.5300728 -0.479031,0.1341549 -0.863827,0.3108452 -0.852047,0.7427562 0.015,0.422085 0.252648,0.812585 0.298412,0.9279695 -0.159684,-0.1278975 -0.247688,-0.3128885 -0.4790271,-0.3402925 0.05516,0.098 0.1120911,0.206993 0.1609911,0.3206605 C 9.8983389,9.7121805 9.6478079,9.6170915 9.2098959,9.5674385 c 0.770112,0.5123625 0.238008,0.6194575 -0.04711,0.6151455 -0.2719037,-0.0041 -0.6096708,-0.09655 -0.5732628,-0.3599265 0.02192,-0.158512 0.1445876,-1.035085 0.4245428,-1.1504077 0.295136,-0.1215767 0.605859,-0.1149251 0.785944,-0.00559 0,-0.3333323 -0.8052112,-0.5156039 -0.799999,-0.6666654 0.0052,-0.1510609 0.672063,-1.9999932 0.799999,-1.9999932 0.127936,0 0.173123,0.02232 0.2500001,0.1197913 0.07315,-0.3158163 -0.1682491,-0.3395887 -0.2500001,-0.4531233 3e-6,-0.078529 0,-0.6666647 0,-0.6666647 z"/>
 <path style="opacity:0.2;fill:#ffffff" d="m 8.5253905,1.0000005 c -0.066542,-0.00134 -0.1352451,0.010869 -0.2011718,0.037109 L 6.095703,1.9238286 C 5.831995,2.0287906 5.7055848,2.3261362 5.8105468,2.5898443 l 0.029297,0.072266 C 5.8945312,2.5591613 5.9783831,2.4705247 6.095703,2.4238286 L 8.3242187,1.5371099 c 0.065927,-0.02624 0.1346298,-0.038449 0.2011718,-0.037109 0.1996265,0.00402 0.3861223,0.1244846 0.4648438,0.3222656 L 9.7011719,3.6093755 A 8,8 0 0 1 11,3.5000005 8,8 0 0 1 12.517578,3.648438 l 0.759766,-1.765625 c 0.112251,-0.2606881 0.41314,-0.3798285 0.673828,-0.2675781 l 2.203125,0.9472656 c 0.111114,0.047854 0.189461,0.1337307 0.242187,0.2324219 l 0.02539,-0.058594 C 16.534126,2.4756395 16.414937,2.174751 16.154297,2.0625005 L 13.951172,1.1152349 C 13.690484,1.0029845 13.389595,1.1221249 13.277344,1.382813 L 12.517578,3.148438 A 8,8 0 0 0 11,3.0000005 8,8 0 0 0 9.7011719,3.1093755 L 8.9902343,1.3222661 C 8.9115128,1.1244851 8.725017,1.0040158 8.5253905,1.0000005 Z M 6.3710937,4.4941411 A 8,8 0 0 0 4.5058593,6.3398443 L 2.736328,5.5781255 C 2.475639,5.4658745 2.1747503,5.5850136 2.0624999,5.8457036 L 1.1152343,8.0488286 C 1.0508377,8.1983823 1.069676,8.3574272 1.1406249,8.4902349 L 2.0624999,6.3457036 C 2.1747503,6.0850136 2.475639,5.9658745 2.736328,6.0781255 L 4.5058593,6.8398443 A 8,8 0 0 1 6.5234374,4.8789067 Z m 9.4511723,0.1347656 -0.16211,0.3769532 a 8,8 0 0 1 1.960938,2.0175781 l 1.789062,-0.7128906 c 0.263708,-0.104962 0.561054,0.021448 0.666016,0.2851562 l 0.857422,2.15625 c 0.06824,-0.1284561 0.08756,-0.2813466 0.0293,-0.4277343 L 20.076172,6.0957036 C 19.97121,5.8319956 19.673864,5.7055854 19.410156,5.8105474 L 17.621094,6.523438 A 8,8 0 0 0 15.822266,4.6289067 Z M 3.080078,9.9531255 A 8,8 0 0 0 2.9999999,11 8,8 0 0 0 3.0117189,11.242188 8,8 0 0 1 3.1484376,9.9824225 Z m 15.875,0.2226555 -0.06445,0.02539 a 8,8 0 0 1 0.09766,1.05664 A 8,8 0 0 0 19,11 8,8 0 0 0 18.955078,10.175781 Z M 3.0449218,12.324219 1.3222655,13.009766 c -0.2637081,0.104962 -0.39011828,0.402308 -0.2851562,0.666015 l 0.029297,0.07227 c 0.054688,-0.102949 0.1385395,-0.191585 0.2558594,-0.238281 l 1.7871092,-0.710942 a 8,8 0 0 1 -0.064453,-0.474609 z m 15.8750002,0.222656 a 8,8 0 0 1 -0.06836,0.470703 l 1.765626,0.759766 c 0.111173,0.04785 0.18947,0.13373 0.242187,0.232422 l 0.02539,-0.05859 c 0.11225,-0.260689 -0.0068,-0.561577 -0.267578,-0.673828 z M 6.1777343,17.871094 5.5781249,19.263672 c -0.064397,0.149554 -0.045558,0.308599 0.025391,0.441406 L 6.3398437,17.994141 A 8,8 0 0 1 6.1777343,17.871094 Z m 9.4511717,0.134765 a 8,8 0 0 1 -0.152344,0.115235 l 0.683594,1.716797 c 0.06824,-0.128456 0.08756,-0.281347 0.0293,-0.427735 z"/>
</svg>
