<svg xmlns="http://www.w3.org/2000/svg" width="22" height="22" version="1.1">
 <path style="opacity:0.2" d="M 18.5,2.5 A 2.5,2.5 0 0 0 16,5 2.5,2.5 0 0 0 18.5,7.5 2.5,2.5 0 0 0 21,5 2.5,2.5 0 0 0 18.5,2.5 Z m -2.75,6 C 15.3345,8.5 15,8.8345 15,9.25 V 9.5 14.568359 15 A 3.5,3.5 0 0 0 18.5,18.5 3.5,3.5 0 0 0 22,15 V 14.568359 9.5 9.25 C 22,8.8345 21.6655,8.5 21.25,8.5 Z"/>
 <path style="opacity:0.2" d="M 11.5,0.5 A 3.5,3.5 0 0 0 8,4 3.5,3.5 0 0 0 11.5,7.5 3.5,3.5 0 0 0 15,4 3.5,3.5 0 0 0 11.5,0.5 Z m -4.25,8 C 6.5575,8.5 6,9.0575 6,9.75 V 11 15.25 16 A 5.5,5.5 0 0 0 11.5,21.5 5.5,5.5 0 0 0 17,16 V 15.25 11 9.75 C 17,9.0575 16.4425,8.5 15.75,8.5 Z"/>
 <path style="fill:#5059c9" d="M 15.75,8 C 15.3345,8 15,8.3345 15,8.75 V 9 14.06818 14.49982 H 15.137695 21.862304 22 V 14.06818 9 8.75 C 22,8.3345 21.6655,8 21.25,8 Z"/>
 <circle style="fill:#5059c9" cx="18.5" cy="14.5" r="3.5"/>
 <circle style="fill:#5059c9" cx="18.5" cy="4.5" r="2.5"/>
 <path style="opacity:0.1;fill:#ffffff" d="M 18.5,2 A 2.5,2.5 0 0 0 16,4.5 2.5,2.5 0 0 0 16.01367,4.7578125 2.5,2.5 0 0 1 18.5,2.5 2.5,2.5 0 0 1 20.986328,4.7421875 2.5,2.5 0 0 0 21,4.5 2.5,2.5 0 0 0 18.5,2 Z M 15.75,8 C 15.3345,8 15,8.3345 15,8.75 V 9 9.25 C 15,8.8345 15.3345,8.5 15.75,8.5 h 5.5 C 21.6655,8.5 22,8.8345 22,9.25 V 9 8.75 C 22,8.3345 21.6655,8 21.25,8 Z"/>
 <circle style="fill:#7b83eb" cx="11.5" cy="3.5" r="3.5"/>
 <path style="fill:#7b83eb" d="M 7.25,8 C 6.5575,8 6,8.5575 6,9.25 v 1.25 4.25 0.75 H 6.253906 C 6.4816325,15.802497 6.840524,16 7.25,16 h 8.5 c 0.409476,0 0.768367,-0.197503 0.996094,-0.5 H 17 V 14.75 10.5 9.25 C 17,8.5575 16.4425,8 15.75,8 Z"/>
 <path style="opacity:0.2;fill:#ffffff" d="M 11.5,0 A 3.5,3.5 0 0 0 8,3.5 3.5,3.5 0 0 0 8.01172,3.729492 3.5,3.5 0 0 1 11.5,0.5 3.5,3.5 0 0 1 14.988281,3.770508 3.5,3.5 0 0 0 15,3.5 3.5,3.5 0 0 0 11.5,0 Z M 7.25,8 C 6.5575,8 6,8.5575 6,9.25 v 0.5 C 6,9.0575 6.5575,8.5 7.25,8.5 h 8.5 C 16.4425,8.5 17,9.0575 17,9.75 V 9.25 C 17,8.5575 16.4425,8 15.75,8 Z"/>
 <circle style="fill:#7b83eb" cx="11.5" cy="15.5" r="5.5"/>
 <rect style="opacity:0.1" width="12" height="12" x="0" y="4.5" rx=".818" ry=".818"/>
 <rect style="fill:#5059c9" width="12" height="12" x="0" y="4" rx=".818" ry=".818"/>
 <path style="opacity:0.2" d="m 3,7.5 v 2 h 2 v 4 h 2 v -4 h 2 v -2 z"/>
 <rect style="fill:#ffffff" width="6" height="2" x="3" y="7"/>
 <rect style="fill:#ffffff" width="4" height="2" x="9" y="-7" transform="rotate(90)"/>
 <path style="opacity:0.1;fill:#ffffff" d="M 0.8183594,4 C 0.3650867,4 0,4.3650867 0,4.8183594 v 0.5 C 0,4.8650867 0.3650867,4.5 0.8183594,4.5 H 11.181641 C 11.634913,4.5 12,4.8650867 12,5.3183594 v -0.5 C 12,4.3650867 11.634913,4 11.181641,4 Z"/>
</svg>
