<svg xmlns="http://www.w3.org/2000/svg" width="22" height="22" version="1.1">
 <circle style="opacity:0.2" cx="11.5" cy="11" r="10.5"/>
 <circle style="fill:#3f3f3f" cx="11.5" cy="10.5" r="10.5"/>
 <path style="opacity:0.2" d="M 6.915039,6.5 C 6.6853645,6.49755 5.930664,6.516755 5.930664,6.8652345 5.736954,6.8685345 5.5850465,7.212305 5.4902345,7.783203 5.439559,8.0584865 5.418792,8.118231 5.285156,8.2158205 5.151113,8.313816 4.583215,8.9241355 4.4414063,9.373047 4.3232998,9.648737 4.2567879,9.95082 4.2490235,10.267578 c 0,4.07e-4 -0.0015,0 -0.00195,0 L 4.0029297,13.834961 C 4.0017197,13.863831 4,13.893412 4,13.921875 4,14.793267 4.7091765,15.5 5.584961,15.5 c 0.564785,0 1.061448,-0.293922 1.341797,-0.736328 l 0.866211,-1.376953 c 0,0 0.505869,0.613281 1.239258,0.613281 0.707003,0 1.29983,-0.351034 1.46289,-1.004883 L 11.5,13 12.504883,12.9951 C 12.667944,13.648966 13.260771,14 13.967774,14 c 0.733388,0 1.239257,-0.613281 1.239257,-0.613281 l 0.866211,1.376953 C 16.353591,15.206078 16.850254,15.5 17.415039,15.5 18.290823,15.5 19,14.793267 19,13.921875 c 0,-0.02847 -0.0017,-0.05804 -0.0029,-0.08691 l -0.244141,-3.567383 c -4.5e-4,0 -0.0019,4.07e-4 -0.0019,0 C 18.743259,9.950824 18.676779,9.648741 18.558676,9.373051 18.416768,8.9241355 17.84887,8.313816 17.714826,8.2158205 17.581191,8.118231 17.560424,8.0584865 17.509748,7.783203 17.414936,7.212305 17.263028,6.8685345 17.069319,6.8652345 17.069319,6.516755 16.314618,6.49755 16.084944,6.5 15.856087,6.49715 15.100569,6.51676 15.100569,6.8652345 c -0.194119,0.00325 -0.345778,-0.152531 -0.441407,0.418367 -0.01431,0.080919 -0.02656,0.1667805 -0.04004,0.216797 H 11.540039 11.5 11.459961 8.3808595 C 8.3673745,7.450382 8.3551245,7.36452 8.3408195,7.2836015 8.2451905,6.7127035 8.093532,6.8684875 7.899413,6.8652345 7.899413,6.5167595 7.143894,6.4971535 6.915038,6.5 Z M 6,8.5 h 1 v 0.716797 l -0.5,0.5 -0.5,-0.5 z m 10.499023,0 C 16.7755,8.5 17,8.723895 17,9 17,9.276476 16.7755,9.5 16.499023,9.5 16.223661,9.5 16,9.276476 16,9 16,8.723895 16.223661,8.5 16.499023,8.5 Z M 5,9.5 h 0.716797 l 0.5,0.5 -0.5,0.5 H 5 Z m 2.283203,0 h 0.7333985 v 1 H 7.283203 l -0.5,-0.5 z M 9.855469,10 h 0.540039 C 10.453528,10 10.5,10.05233 10.5,10.117188 v 0.266601 C 10.5,10.448643 10.453058,10.5 10.395508,10.5 H 9.855469 C 9.796986,10.5 9.75,10.448643 9.75,10.383789 V 10.117188 C 9.75,10.052334 9.797454,10 9.855469,10 Z M 12.5,10 13.25,10.25 12.5,10.5 Z m 2.97461,-0.499 c 0.0085,-4.33e-4 0.01675,0 0.02539,0 0.276105,0 0.5,0.223661 0.5,0.499023 C 16,10.2765 15.776105,10.501 15.5,10.501 15.223524,10.501 15,10.2765 15,10.000023 15,9.733266 15.21013,9.514404 15.47461,9.501 Z m 1.999999,0 c 0.0085,-4.33e-4 0.01675,0 0.02539,0 0.276105,0 0.5,0.223661 0.5,0.499023 0,0.276477 -0.223895,0.500977 -0.5,0.500977 -0.276476,0 -0.5,-0.2245 -0.5,-0.500977 0,-0.266757 0.210129,-0.485619 0.47461,-0.499023 z M 6.5,10.283203 l 0.5,0.5 V 11.5 H 6 V 10.783203 Z M 16.5,10.5 c 0.276476,0 0.500976,0.223895 0.500976,0.5 0,0.276476 -0.2245,0.5 -0.500976,0.5 -0.275363,0 -0.499024,-0.223524 -0.499024,-0.5 0,-0.276105 0.223661,-0.5 0.499024,-0.5 z m -7.495117,1 c 0.555096,0 1.004883,0.446712 1.004883,0.999024 C 10.009766,13.051335 9.559551,13.5 9.004883,13.5 8.4497875,13.5 8,13.051335 8,12.499024 8,11.946712 8.4497875,11.5 9.004883,11.5 Z m 5,0 c 0.555096,0 1.004883,0.446712 1.004883,0.999024 0,0.552311 -0.450215,1.000976 -1.004883,1.000976 C 13.449787,13.5 13,13.051335 13,12.499024 13,11.946712 13.449787,11.5 14.004883,11.5 Z"/>
 <path style="fill:#ffffff" d="M 6.915039,6 C 6.6853645,5.99755 5.930664,6.016755 5.930664,6.3652345 5.736954,6.3685345 5.5850465,6.712305 5.4902345,7.283203 5.439559,7.5584865 5.418792,7.618231 5.285156,7.7158205 5.151113,7.813816 4.583215,8.4241355 4.4414063,8.873047 4.3232998,9.148737 4.2567879,9.45082 4.2490235,9.767578 c 0,4.07e-4 -0.0015,0 -0.00195,0 L 4.0029297,13.334961 C 4.0017197,13.363831 4,13.393412 4,13.421875 4,14.293267 4.7091765,15 5.584961,15 6.149746,15 6.646409,14.706078 6.926758,14.263672 l 0.866211,-1.376953 c 0,0 0.505869,0.613281 1.239258,0.613281 0.707003,0 1.29983,-0.351034 1.46289,-1.004883 L 11.5,12.5 12.504883,12.4951 c 0.163061,0.653866 0.755888,1.0049 1.462891,1.0049 0.733388,0 1.239257,-0.613281 1.239257,-0.613281 l 0.866211,1.376953 C 16.353591,14.706078 16.850254,15 17.415039,15 18.290823,15 19,14.293267 19,13.421875 c 0,-0.02847 -0.0017,-0.05804 -0.0029,-0.08691 L 18.752959,9.767582 c -4.5e-4,0 -0.0019,4.07e-4 -0.0019,0 C 18.743259,9.450824 18.676779,9.148741 18.558676,8.873051 18.416768,8.4241355 17.84887,7.813816 17.714826,7.7158205 17.581191,7.618231 17.560424,7.5584865 17.509748,7.283203 17.414936,6.712305 17.263028,6.3685345 17.069319,6.3652345 17.069319,6.016755 16.314618,5.99755 16.084944,6 15.856087,5.99715 15.100569,6.01676 15.100569,6.3652345 c -0.194119,0.00325 -0.345778,-0.152531 -0.441407,0.418367 -0.01431,0.080919 -0.02656,0.1667805 -0.04004,0.216797 H 11.540039 11.5 11.459961 8.3808595 C 8.3673745,6.950382 8.3551245,6.86452 8.3408195,6.7836015 8.2451905,6.2127035 8.093532,6.3684875 7.899413,6.3652345 7.899413,6.0167595 7.143894,5.9971535 6.915038,6 Z M 6,8 h 1 v 0.716797 l -0.5,0.5 -0.5,-0.5 z M 16.499023,8 C 16.7755,8 17,8.223895 17,8.5 17,8.776476 16.7755,9 16.499023,9 16.223661,9 16,8.776476 16,8.5 16,8.223895 16.223661,8 16.499023,8 Z M 5,9 h 0.716797 l 0.5,0.5 -0.5,0.5 H 5 Z m 2.283203,0 h 0.7333985 v 1 H 7.283203 l -0.5,-0.5 z m 2.572266,0.5 h 0.540039 C 10.453528,9.5 10.5,9.55233 10.5,9.617188 V 9.883789 C 10.5,9.948643 10.453058,10 10.395508,10 H 9.855469 C 9.796986,10 9.75,9.948643 9.75,9.883789 V 9.617188 C 9.75,9.552334 9.797454,9.5 9.855469,9.5 Z M 12.5,9.5 13.25,9.75 12.5,10 Z m 2.97461,-0.499 c 0.0085,-4.33e-4 0.01675,0 0.02539,0 0.276105,0 0.5,0.223661 0.5,0.499023 C 16,9.7765 15.776105,10.001 15.5,10.001 15.223524,10.001 15,9.7765 15,9.500023 15,9.233266 15.21013,9.014404 15.47461,9.001 Z m 1.999999,0 c 0.0085,-4.33e-4 0.01675,0 0.02539,0 0.276105,0 0.5,0.223661 0.5,0.499023 0,0.276477 -0.223895,0.500977 -0.5,0.500977 -0.276476,0 -0.5,-0.2245 -0.5,-0.500977 0,-0.266757 0.210129,-0.485619 0.47461,-0.499023 z M 6.5,9.783203 l 0.5,0.5 V 11 H 6 V 10.283203 Z M 16.5,10 c 0.276476,0 0.500976,0.223895 0.500976,0.5 0,0.276476 -0.2245,0.5 -0.500976,0.5 -0.275363,0 -0.499024,-0.223524 -0.499024,-0.5 0,-0.276105 0.223661,-0.5 0.499024,-0.5 z m -7.495117,1 c 0.555096,0 1.004883,0.446712 1.004883,0.999024 C 10.009766,12.551335 9.559551,13 9.004883,13 8.4497875,13 8,12.551335 8,11.999024 8,11.446712 8.4497875,11 9.004883,11 Z m 5,0 c 0.555096,0 1.004883,0.446712 1.004883,0.999024 C 15.009766,12.551335 14.559551,13 14.004883,13 13.449787,13 13,12.551335 13,11.999024 13,11.446712 13.449787,11 14.004883,11 Z"/>
 <path style="opacity:0.1;fill:#ffffff" d="M 11.5,0 A 10.5,10.5 0 0 0 1,10.5 10.5,10.5 0 0 0 1.0175781,10.75 10.5,10.5 0 0 1 11.5,0.5 10.5,10.5 0 0 1 21.992188,10.619141 10.5,10.5 0 0 0 22,10.5 10.5,10.5 0 0 0 11.5,0 Z"/>
</svg>
