<svg width="22" height="22" version="1.1" xmlns="http://www.w3.org/2000/svg">
 <g transform="translate(-1,-1)">
  <path d="m5 4.5h6l2 3.3333333 3-3.3333333h6l-6.5 8 4.5 8h-7l-1.5-3.2-2.5 3.2h-7l7-8.533333z" style="opacity:.2"/>
  <path d="m5 4h6l2 3.3333333 3-3.3333333h6l-6.5 8 4.5 8h-7l-1.5-3.2-2.5 3.2h-7l7-8.533333z" style="fill:#d07336"/>
  <path d="M 5,4 5.2675781,4.5 H 11 L 13,7.8339844 16,4.5 h 5.59375 L 22,4 H 16 L 13,7.3339844 11,4 Z M 8.8378906,11.664062 2,20 H 2.4101562 L 9,11.966797 Z M 15.666016,12.294922 15.5,12.5 19.71875,20 H 20 Z" style="fill:#ffffff;opacity:.2"/>
  <circle cx="17.5" cy="17.5" r="5.5" style="fill:#707070"/>
  <path d="m 17.5,15 c 0,0 -0.355349,-0.007 -0.724609,0.177734 C 16.406136,15.362334 16,15.833351 16,16.5 h 1 C 17,16 17.5,16 17.5,16 c 0,0 0.5,0 0.5,0.5 0,0.22307 -0.0603,0.361384 -0.15625,0.5 H 17 v 1 h 0.84375 C 17.939704,18.138616 18,18.27693 18,18.5 18,19 17.5,19 17.5,19 17.5,19 17,19 17,18.5 h -1 c 0,0.666649 0.406136,1.137666 0.775391,1.322266 C 17.144651,20.007016 17.5,20 17.5,20 c 0,0 0.355344,0.0069 0.724609,-0.177734 C 18.593864,19.637666 19,19.166649 19,18.5 c 0,-0.385787 -0.11555,-0.724712 -0.283203,-1 h -0.002 C 18.883202,17.224345 19,16.886772 19,16.5 19,15.833351 18.593864,15.362334 18.224609,15.177734 17.855344,14.993084 17.5,15 17.5,15 Z" style="fill-rule:evenodd;fill:#ffffff"/>
 </g>
</svg>
