<svg xmlns="http://www.w3.org/2000/svg" width="22" height="22" version="1.1">
 <defs>
  <style id="current-color-scheme" type="text/css">
   .ColorScheme-Text { color:#444444; } .ColorScheme-Highlight { color:#4285f4; } .ColorScheme-NeutralText { color:#ff9800; } .ColorScheme-PositiveText { color:#4caf50; } .ColorScheme-NegativeText { color:#f44336; }
  </style>
 </defs>
 <path style="fill:currentColor" class="ColorScheme-Text" d="m 4.1991843,3.9999998 c -0.6648,0 -1.199219,0.5196823 -1.199219,1.1660157 V 16.833984 c 0,0.05989 0.0048,0.118383 0.01367,0.175782 0.0013,0.0084 0.0024,0.01702 0.0039,0.02539 0.01036,0.05848 0.02602,0.114824 0.04492,0.169921 0.01828,0.05329 0.04077,0.104792 0.06641,0.154297 0.0034,0.0065 0.0063,0.01312 0.0098,0.01953 0.02724,0.05024 0.05953,0.09706 0.09375,0.142578 0.002,0.0026 0.0039,0.0052 0.0059,0.0078 0.03566,0.04662 0.07293,0.09197 0.115235,0.132812 0.04398,0.04246 0.09223,0.07981 0.142578,0.115235 0.04992,0.03513 0.10284,0.06633 0.158203,0.09375 0.11038,0.05467 0.230277,0.09399 0.357422,0.113281 0.06126,0.0093 0.123459,0.01564 0.1875,0.01564 h 12.4003907 1.201172 c 0.6648,0 1.199219,-0.519682 1.199219,-1.166016 V 5.1660155 c 0,-0.6463334 -0.534419,-1.1660157 -1.199219,-1.1660157 z m 3.300781,2.0000001 c 1.380708,0 2.5,1.1192912 2.5,2.5000002 0,1.380708 -1.119292,2.4999999 -2.5,2.4999999 -1.380708,0 -2.5,-1.1192919 -2.5,-2.4999999 0,-1.380709 1.119292,-2.5000002 2.5,-2.5000002 z M 11.800746,10 15.968715,17 H 4.1991843 c -0.143006,0 -0.199219,-0.07172 -0.199219,-0.166016 V 15.861328 L 5.9609022,13 8.1249653,16.220703 Z"/>
</svg>
