<svg xmlns="http://www.w3.org/2000/svg" width="22" height="22" version="1">
 <defs>
  <style id="current-color-scheme" type="text/css">
   .ColorScheme-Text { color:#444444; } .ColorScheme-Highlight { color:#4285f4; } .ColorScheme-NeutralText { color:#ff9800; } .ColorScheme-PositiveText { color:#4caf50; } .ColorScheme-NegativeText { color:#f44336; }
  </style>
 </defs>
 <path style="fill:currentColor" class="ColorScheme-Text" d="M 7.8007812,3 C 5.1415811,3 3,5.1415811 3,7.800781 V 10 H 4.78125 L 6.5058594,6.5527344 A 1.0001,1.0001 0 0 1 8.375,6.7773438 L 9.1484375,10.158203 10.845703,4.703125 a 1.0001,1.0001 0 0 1 1.015625,-0.7011719 1.0001,1.0001 0 0 1 0.921875,0.8183594 l 1.449219,7.9687505 1.066406,-2.222657 A 1.0001,1.0001 0 0 1 16.199219,10 H 19 V 7.800781 C 19,5.1415811 16.858419,3 14.199219,3 Z M 11.544922,9.185547 9.9550781,14.296875 A 1.0001,1.0001 0 0 1 8.0253906,14.222656 L 7.046875,9.943359 6.2949219,11.447266 A 1.0001,1.0001 0 0 1 5.4003906,12 H 3 v 2.199219 C 3,16.858419 5.1415811,19 7.8007812,19 H 14.199219 C 16.858419,19 19,16.858419 19,14.199219 V 12 h -2.169922 l -2.128906,4.433594 a 1.0001,1.0001 0 0 1 -1.884766,-0.253906 z"/>
</svg>
