<svg xmlns="http://www.w3.org/2000/svg" width="22" height="22" version="1.1">
 <defs>
  <style id="current-color-scheme" type="text/css">
   .ColorScheme-Text { color:#444444; } .ColorScheme-Highlight { color:#4285f4; } .ColorScheme-NeutralText { color:#ff9800; } .ColorScheme-PositiveText { color:#4caf50; } .ColorScheme-NegativeText { color:#f44336; }
  </style>
 </defs>
 <path style="fill:currentColor" class="ColorScheme-Text" d="m 10.599609,2.9999999 c -0.8863997,0 -1.5996087,0.7132094 -1.5996087,1.5996094 v 0.75 a 6,6 0 0 0 -1.892578,1.09375 l -0.650391,-0.375 c -0.767645,-0.4432 -1.742347,-0.1817077 -2.185547,0.5859375 L 3.8710942,7.3457031 c -0.4432,0.767645 -0.181708,1.742347 0.5859371,2.1855469 l 0.648438,0.375 A 6,6 0 0 0 5.0000003,11 a 6,6 0 0 0 0.105469,1.09375 l -0.648438,0.375 c -0.7676451,0.4432 -1.029137,1.417902 -0.5859371,2.185547 l 0.4003901,0.691406 c 0.4432,0.767645 1.417902,1.029138 2.185547,0.585938 l 0.646484,-0.373047 a 6,6 0 0 0 1.896485,1.089844 v -2.203126 c -1.190604,-0.692897 -2,-1.968491 -2,-3.445312 0.0018,-1.436312 0.776257,-2.7431049 2,-3.4511719 V 10 L 11,11.5 13,10 V 7.5468751 C 14.224426,8.2555531 14.999277,9.562733 15,11 c 0,1.476821 -0.809396,2.752415 -2,3.445312 v 2.199219 a 6,6 0 0 0 1.892578,-1.08789 l 0.650391,0.375 c 0.767644,0.4432 1.742347,0.181707 2.185547,-0.585938 l 0.40039,-0.691406 c 0.4432,-0.767645 0.181707,-1.742347 -0.585937,-2.185547 l -0.648438,-0.375 A 6,6 0 0 0 17,11 6,6 0 0 0 16.894531,9.90625 l 0.648438,-0.375 C 18.310613,9.0880501 18.572106,8.1133481 18.128906,7.3457031 L 17.728516,6.6542968 C 17.285316,5.8866516 16.310613,5.6251593 15.542969,6.0683593 L 14.896484,6.4414061 A 6,6 0 0 0 13,5.3515624 V 4.5996093 c 0,-0.8864 -0.71321,-1.5996094 -1.59961,-1.5996094 z M 11,13.199219 c -0.554,0 -1,0.357581 -1,0.800781 v 3.199219 C 10,17.642419 10.446,18 11,18 c 0.554,0 1,-0.357581 1,-0.800781 V 14 c 0,-0.4432 -0.446,-0.800781 -1,-0.800781 z"/>
</svg>
