<?xml version="1.0" encoding="UTF-8" standalone="no"?>
<svg xmlns="http://www.w3.org/2000/svg" version="1" width="48" height="48">
 <polygon fill="#5a0e00" transform="matrix(.063142 0 0 .063142 -131 -8.0295)" points="502 812.5 551.5 721.5 612.5 637 628.5 616 668 619.5 707 615 713 603 688.5 578 676.5 569.5 693.5 560.5 693.5 540 732.5 497.5 664 430.5 588 333 517.5 214 500 192 386 355 328 328 304 332.5 299.5 366 318.5 403.5 338 431 309.5 462 275.5 507 300 533 304 551 318.5 569.5 340.5 583 351.5 604.5 373.5 617 395 637.5 452.5 723 488.5 788.5" display="none"/>
 <rect style="fill:#19416f;fill-opacity:1" x="-44" y="-44" width="40" height="40" ry="2" rx="2" transform="matrix(0,-1,-1,0,0,0)"/>
 <path style="opacity:0.1;fill:#ffffff" d="M 6,4 C 4.892,4 4,4.892 4,6 L 4,7 C 4,5.892 4.892,5 6,5 l 36,0 c 1.108,0 2,0.892 2,2 L 44,6 C 44,4.892 43.108,4 42,4 L 6,4 Z"/>
 <path d="M 6,45 C 4.892,45 4,44.108 4,43 l 0,-1 c 0,1.108 0.892,2 2,2 l 36,0 c 1.108,0 2,-0.892 2,-2 l 0,1 c 0,1.108 -0.892,2 -2,2 L 6,45 Z" style="opacity:0.2"/>
 <path d="m 27,10 a 3,3 0 0 0 -3,3 3,3 0 0 0 3,3 3,3 0 0 0 3,-3 3,3 0 0 0 -3,-3 z m -4,7 c -1.108,0 -2,0.892 -2,2 0,1.108 0.892,2 2,2 l 2,0 0,12.222656 c 0,0.941478 -0.294217,1.935806 -1.003906,2.671875 A 3,3 0 0 0 21,33 a 3,3 0 0 0 -3,3 3,3 0 0 0 3,3 c 5,0 8,1.47e-4 8,-5.777344 L 29,17 l -4,0 -2,0 z" style="font-size:35px;line-height:125%;font-family:'Noto Sans Saurashtra';letter-spacing:0px;word-spacing:0px;opacity:0.2;fill:#000000;fill-opacity:1"/>
 <path d="m 27,9 a 3,3 0 0 0 -3,3 3,3 0 0 0 3,3 3,3 0 0 0 3,-3 3,3 0 0 0 -3,-3 z m -4,7 c -1.108,0 -2,0.892 -2,2 0,1.108 0.892,2 2,2 l 2,0 0,12.222656 c 0,0.941478 -0.294217,1.935806 -1.003906,2.671875 A 3,3 0 0 0 21,32 a 3,3 0 0 0 -3,3 3,3 0 0 0 3,3 c 5,0 8,1.47e-4 8,-5.777344 L 29,16 l -4,0 -2,0 z" style="font-size:35px;line-height:125%;font-family:'Noto Sans Saurashtra';letter-spacing:0px;word-spacing:0px;fill:#ffffff;fill-opacity:1"/>
</svg>
