<?xml version="1.0" encoding="UTF-8" standalone="no"?>
<svg xmlns="http://www.w3.org/2000/svg" height="48" width="48" version="1">
 <rect ry="20" rx="20" transform="matrix(0,-1,-1,0,0,0)" height="40" width="40" y="-44" x="-44" fill="#86316b"/>
 <path opacity=".1" d="m24 4c-11.08 0-20 8.92-20 20 0 0.168 0.008 0.333 0.0117 0.5 0.2647-10.846 9.0763-19.5 19.988-19.5s19.724 8.6539 19.988 19.5c0.004-0.16686 0.0117-0.33213 0.0117-0.5 0-11.08-8.92-20-20-20z" fill="#fff"/>
 <path opacity=".2" d="m4.0117 24.5c-0.0041 0.167-0.0117 0.332-0.0117 0.5 0 11.08 8.92 20 20 20s20-8.92 20-20c0-0.168-0.008-0.333-0.012-0.5-0.264 10.846-9.076 19.5-19.988 19.5s-19.724-8.654-19.988-19.5z"/>
 <g opacity=".2" transform="translate(0,1)">
  <path opacity="1" style="color:#000000;" fill-rule="evenodd" d="m30 11a2 2 0 0 0 -2 2 2 2 0 0 0 0.02148 0.2832l-8.4297 3.5117a2 2 0 0 0 -1.592 -0.795 2 2 0 0 0 -2 2 2 2 0 0 0 0.74414 1.5566l-3.398 7.474a2 2 0 0 0 -0.346 -0.031 2 2 0 0 0 -2 2 2 2 0 0 0 2 2 2 2 0 0 0 1.248 -0.43945l4.9043 3.6777a2 2 0 0 0 -0.152 0.761 2 2 0 0 0 2 2 2 2 0 0 0 1.998 -1.9316l5.221-1.162a2 2 0 0 0 1.781 1.094 2 2 0 0 0 2 -2 2 2 0 0 0 -0.914 -1.68l2.7754-8.3262a2 2 0 0 0 0.139 0.006 2 2 0 0 0 2 -2 2 2 0 0 0 -2 -2 2 2 0 0 0 -0.42 0.045l-2.268-4.537a2 2 0 0 0 0.688 -1.508 2 2 0 0 0 -2 -2zm-1.5918 3.2051a2 2 0 0 0 0.50586 0.47461l-3.777 11.326a2 2 0 0 0 -0.137 -0.006 2 2 0 0 0 -0.699 0.129l-4.7812-6.8301a2 2 0 0 0 0.48 -1.299 2 2 0 0 0 -0.021 -0.283l8.4297-3.5117zm2.0117 0.75 2.2676 4.5371a2 2 0 0 0 -0.688 1.508 2 2 0 0 0 0.16602 0.79297l-5.9473 4.625a2 2 0 0 0 -0.13281 -0.0957l3.777-11.328a2 2 0 0 0 0.137 0.006 2 2 0 0 0 0.42 -0.045zm-11.723 4.916 4.7832 6.8301a2 2 0 0 0 -0.44922 0.96094l-8.1445 0.67969a2 2 0 0 0 -0.63086 -0.89844l3.399-7.475a2 2 0 0 0 0.346 0.031 2 2 0 0 0 0.697 -0.129zm14.08 2.7109a2 2 0 0 0 0.13672 0.09766l-2.7773 8.3262a2 2 0 0 0 -0.137 -0.006 2 2 0 0 0 -1.014 0.279l-2.265-2.265a2 2 0 0 0 0.279 -1.014 2 2 0 0 0 -0.166 -0.793l5.9434-4.625zm-9.6641 6.0762a2 2 0 0 0 0.49219 0.77344l-2.0781 3.6387a2 2 0 0 0 -0.527 -0.07 2 2 0 0 0 -1.248 0.439l-4.9043-3.6777a2 2 0 0 0 0.12109 -0.42383l8.1445-0.67969zm2.9004 1.0625 2.2656 2.2656a2 2 0 0 0 -0.27734 0.94727l-5.221 1.161a2 2 0 0 0 -0.38672 -0.52734l2.0801-3.6387a2 2 0 0 0 0.526 0.072 2 2 0 0 0 1.014 -0.279z"/>
 </g>
 <g>
  <path stroke="#fff" fill="none" d="m18 18 12-5 4 8-4 12-9 2-8-6z"/>
  <path stroke="#fff" fill="none" d="m25 28 5-15"/>
  <path stroke="#fff" fill="none" d="m25 28-7-10"/>
  <path stroke="#fff" fill="none" d="m25 28-12 1"/>
  <path stroke="#fff" fill="none" d="m25 28 5 5"/>
  <path stroke="#fff" fill="none" d="m25 28-4 7"/>
  <path stroke="#fff" fill="none" d="m25 28 9-7"/>
  <circle cy="13" cx="30" r="2" fill="#fff"/>
  <circle cy="21" cx="34" r="2" fill="#fff"/>
  <circle cy="33" cx="30" r="2" fill="#fff"/>
  <circle cy="35" cx="21" r="2" fill="#fff"/>
  <circle cy="29" cx="13" r="2" fill="#fff"/>
  <circle cy="18" cx="18" r="2" fill="#fff"/>
  <circle cy="28" cx="25" r="2" fill="#fff"/>
 </g>
</svg>
