<?xml version="1.0" encoding="UTF-8" standalone="no"?>
<svg xmlns="http://www.w3.org/2000/svg" height="24" width="24" version="1">
 <rect transform="matrix(0,-1,-1,0,0,0)" rx="1" ry="1" height="16" width="20" y="-20" x="-22" fill="#5d5d5d"/>
 <path opacity=".2" d="m4 21v0.5c0 0.554 0.446 1 1 1h14c0.554 0 1-0.446 1-1v-0.5c0 0.554-0.446 1-1 1h-14c-0.554 0-1-0.446-1-1z"/>
 <path opacity=".1" fill="#fff" d="m5 2c-0.554 0-1 0.446-1 1v0.5c0-0.554 0.446-1 1-1h14c0.554 0 1 0.446 1 1v-0.5c0-0.554-0.446-1-1-1h-14z"/>
 <path style="opacity:0.3;fill:#000000;fill-opacity:1;" d="M 12 5 A 5 5 0 0 0 7 10 A 5 5 0 0 0 12 15 A 5 5 0 0 0 17 10 A 5 5 0 0 0 12 5 z M 12 8 A 2 2 0 0 1 14 10 A 2 2 0 0 1 12 12 A 2 2 0 0 1 10 10 A 2 2 0 0 1 12 8 z"/>
</svg>
