<?xml version="1.0" encoding="UTF-8" standalone="no"?>
<svg xmlns="http://www.w3.org/2000/svg" height="64" width="64" version="1">
 <path d="m32 7 8 17 17 2-12 13 3 18-16-9-16 9 3-18-12-13 17-2z" fill="#fecd38"/>
 <path style="opacity:.2;fill:#ffffff" d="m32 7l-8 17-17 2 .8320.902 16.168-1.902 8-17 8 17 16.168 1.902.832-.902-17-2-8-17zm-13.141 32.848l-2.859 17.152.184-.104 2.816-16.896-.141-.152zm26.282 0l-.141.152 2.816 16.896.184.104-2.859-17.152z"/>
 <path style="opacity:.2" d="m7.832 26.902-.8320.098 11.859 12.848.141-.848zm48.336 0l-11.168 12.098.141.848 11.859-12.848zm-24.168 21.098-15.816 8.896-.184 1.104 16-9 16 9-.184-1.104z"/>
</svg>
