<svg width="64" height="64" version="1" xmlns="http://www.w3.org/2000/svg">
 <defs>
  <style id="current-color-scheme" type="text/css">.ColorScheme-Text { color:#444444; } .ColorScheme-Highlight { color:#4285f4; } .ColorScheme-NeutralText { color:#ff9800; } .ColorScheme-PositiveText { color:#4caf50; } .ColorScheme-NegativeText { color:#f44336; }</style>
 </defs>
 <rect x="4" y="22" width="56" height="36" rx="2.8" ry="2.8" style="opacity:.2"/>
 <path class="ColorScheme-Highlight" d="m4 54.2c0 1.551 1.2488 2.8 2.8 2.8h50.4c1.551 0 2.8-1.249 2.8-2.8v-38.4c0-1.551-1.249-2.8-2.8-2.8h-25.2c-4.2 0-5.6-6-9.8-6h-15.4c-1.5512 0-2.8 1.2488-2.8 2.8" style="fill:currentColor"/>
 <path class="ColorScheme-Text" d="M 6.7988281,7 C 5.2476297,7 4,8.2495828 4,9.8007812 V 23.800781 C 4,22.249583 5.2495828,21 6.8007812,21 H 57.199219 C 58.750417,21 60,22.249583 60,23.800781 v -8 C 60,14.249783 58.750217,13 57.199219,13 H 32 C 27.800004,13 26.399215,7 22.199219,7 Z" style="fill:currentColor;opacity:.3"/>
 <path d="M 6.8007812,20 C 5.2495828,20 4,21.249583 4,22.800781 v 1 C 4,22.249583 5.2495828,21 6.8007812,21 H 57.199219 C 58.750417,21 60,22.249583 60,23.800781 v -1 C 60,21.249583 58.750417,20 57.199219,20 Z" style="opacity:.2"/>
 <path d="M 10.800781,16 C 9.2495828,16 8,17.249583 8,18.800781 V 21 H 56 V 18.800781 C 56,17.249583 54.750417,16 53.199219,16 Z" style="fill:#e4e4e4"/>
 <path d="m6.8008 7c-1.5512 0-2.8008 1.2496-2.8008 2.8008v1.0002c0-1.5514 1.2496-2.801 2.8008-2.801h15.3982c4.2 0 5.601 6 9.801 6h25.199c1.551 0 2.801 1.25 2.801 2.801v-1c0-1.551-1.25-2.801-2.801-2.801h-25.199c-4.2 0-5.601-6-9.801-6z" style="fill:currentColor;opacity:.1" class="ColorScheme-Text"/>
 <path class="ColorScheme-Text" style="fill:currentColor;opacity:.7" d="M 32 30 C 30.132468 30.0027 28.312033 30.586321 26.791016 31.669922 L 28.957031 33.835938 C 29.878594 33.290764 30.929258 33.002134 32 33 C 34.972138 33 37.433066 35.163496 37.910156 38 L 36 38 L 39.5 44 L 43 38 L 40.941406 38 C 40.443387 33.500659 36.63212 30 32 30 z M 24.5 34 L 21 40 L 23.058594 40 C 23.556613 44.499341 27.36788 48 32 48 C 33.867532 47.9973 35.687967 47.413679 37.208984 46.330078 L 35.042969 44.164062 C 34.121406 44.709236 33.070742 44.997866 32 45 C 29.027862 45 26.566934 42.836504 26.089844 40 L 28 40 L 24.5 34 z"/>
</svg>
