<svg xmlns="http://www.w3.org/2000/svg" width="64" height="64" version="1">
 <rect style="opacity:0.2" width="56" height="36" x="4" y="22" rx="2.8" ry="2.8"/>
 <path style="fill:#bf4b4b" d="M 6.8,7 C 5.25,7 4,8.25 4,9.8 V 46.2 C 4,47.75 5.25,49 6.8,49 H 57.2 C 58.75,49 60,47.75 60,46.2 V 15.8 C 60,14.25 58.75,13 57.2,13 H 30 V 9.8 C 30,8.245 28.75,7 27.2,7 Z"/>
 <rect style="opacity:0.2" width="56" height="36" x="4" y="20" rx="2.8" ry="2.8"/>
 <rect style="fill:#e4e4e4" width="48" height="22" x="8" y="16" rx="2.8" ry="2.8"/>
 <rect style="fill:#e25252" width="56" height="36" x="4" y="21" rx="2.8" ry="2.8"/>
 <path style="opacity:0.1;fill:#ffffff" d="M 6.8,7 C 5.25,7 4,8.25 4,9.8 V 10.8 C 4,9.25 5.25,8 6.8,8 H 27.2 C 28.75,8 30,9.2458 30,10.8 V 9.8 C 30,8.2458 28.75,7 27.2,7 Z M 30,13 V 14 H 57.2 C 58.745,14 60,15.25 60,16.8 V 15.8 C 60,14.25 58.75,13 57.2,13 Z"/>
 <path style="fill:#4f1d1d" d="m 32,29.024709 c -5.54,0 -10,4.46 -10,10 0,4.466211 2.95902,8.22516 6.98535,9.516601 v -1.677417 c -2.531314,0.5586 -3.123045,-1.113282 -3.123045,-1.113282 -0.413988,-1.068275 -1.010743,-1.152462 -1.010743,-1.152462 -0.826287,-0.573213 0.06104,-0.563965 0.06104,-0.563965 0.9134,0.06524 1.394042,0.95459 1.394042,0.95459 0.811752,1.4129 2.189568,1.005742 2.708006,0.769042 0.08269,-0.597162 0.259759,-1.60705 0.519534,-1.838087 C 27.513559,43.686354 26,42.394209 26,38.850959 c 0,-1.009251 0.595875,-2.334671 1.178,-2.980548 -0.09387,-0.233875 -0.40761,-1.586795 0.08789,-2.859419 0,0 0.04774,-0.01503 0.146485,-0.01954 0.296125,-0.01387 0.96225,0.460581 2.265625,1.357956 0.78693,-0.226079 1.693295,-0.33179 2.322004,-0.336915 0.708915,-0.0059 1.429793,0.116113 2.169513,0.336915 1.30375,-0.897375 2.136641,-1.374147 2.431641,-1.360399 h 0.0025 c 0.09863,0.0046 0.146484,0.01954 0.146485,0.01954 0.49665,1.272575 0.183632,2.627986 0.09034,2.86186 C 37.423632,36.51641 38,37.841705 38,38.850958 c 0,3.552275 -2.276108,4.832682 -4.302858,5.061445 0.326258,0.2855 0.407716,0.851605 0.407716,1.713867 0,1.0414 -0.0026,1.7183 -0.0049,2.148438 V 48.7 c 4.320709,-1.105851 7.900023,-5.000397 7.900023,-9.675292 0,-5.54 -4.46,-10 -10,-10 z"/>
</svg>
