<?xml version="1.0" encoding="UTF-8" standalone="no"?>
<svg xmlns="http://www.w3.org/2000/svg" height="64" viewBox="0 0 64 64" width="64" version="1.1">
 <path d="m 57,53.5011 0,-26.989543 c 0,-1.384444 -1.1235,-2.651935 -2.5,-2.498995 l -20,0 -4.5,4.09e-4 -20.5,0 C 7,24.012971 7,26.40791 7,26.40791 L 7,53.501 C 7,54.88545 8.115,56 9.5,56 l 45,0 c 1.385,0 2.5,-1.11455 2.5,-2.499 z" style="opacity:0.2;fill:#000000;fill-opacity:1"/>
 <path style="fill:#505050;fill-opacity:1" d="M 7,47.50009 7,12.512516 C 7,11.128033 8.1235,9.847102 9.5,10 L 26,10 c 3,0 3,1.509999 3,5 l 25.628,0 c 0,0 2.3718,0.01159 2.3718,2.510755 l 0,29.989635 c 0,1.38448 -1.115,2.49917 -2.5,2.49917 l -44.999,0 c -1.385,0 -2.5,-1.11459 -2.5,-2.49917 z"/>
 <path d="m 57,51.5011 0,-26.989543 c 0,-1.384444 -1.1235,-2.651935 -2.5,-2.498995 l -20,0 -4.5,4.09e-4 -20.5,0 C 7,22.012971 7,24.40791 7,24.40791 L 7,51.501 C 7,52.88545 8.115,54 9.5,54 l 45,0 c 1.385,0 2.5,-1.11455 2.5,-2.499 z" style="opacity:0.2;fill:#000000;fill-opacity:1"/>
 <rect rx="2.444" ry="2.5" y="18" x="10" height="20" width="44" style="opacity:1;fill:#dcdcdc;fill-opacity:1;"/>
 <path style="fill:#5d5d5d;fill-opacity:1" d="m 57,52.501 0,-26.989543 c 0,-1.384444 -1.1235,-2.651935 -2.5,-2.498995 l -20,0 -4.5,4.09e-4 -20.5,0 C 7,23.012871 7,25.40781 7,25.40781 L 7,52.5009 c 0,1.38445 1.115,2.499 2.5,2.499 l 45,0 c 1.385,0 2.5,-1.11455 2.5,-2.499 z"/>
 <path style="opacity:0.1;fill:#ffffff;fill-opacity:1" d="M 9.5,10 C 8.1235,9.847102 7,11.127236 7,12.511719 l 0,1.001953 C 7,12.129189 8.1235,10.847102 9.5,11 L 26,11 c 3,0 3,1.509999 3,5 l 25.628906,0 C 54.628906,16 57,16.01255 57,18.511719 l 0,-1 C 57,15.012554 54.628906,15 54.628906,15 L 29,15 c 0,-3.490001 0,-5 -3,-5 L 9.5,10 Z"/>
 <path style="opacity:0.65;enable-background:new" d="m 31.99954,27.00012 c -6.627,0 -12,5.373 -12,12 0,6.627 5.373,12 12,12 l 7.5,0 c 0,0 1.4063,-0.60156 1.5,-2.1016 0,-1.5 -1.5,-1.8984 -1.5,-1.8984 l -7.5,0 c -0.38979,-0.0028 -0.77885,-0.0342 -1.1641,-0.09374 -1.3997,-0.15892 -2.5111,-0.59801 -3.3516,-1.3047 l -0.0118,-0.0078 c -2.1729,-1.4917 -3.4719,-3.958 -3.4726,-6.5938 0,-4.4183 3.5817,-8 8,-8 4.4183,0 8,3.5817 8,8 -10e-4,0.90834 -0.185,1.4902 -0.48047,2.0039 -0.007,-4.4e-5 -0.0126,-0.004 -0.0196,-0.004 l -1.8672,0 c 0.22315,-0.62816 0.36719,-1.2953 0.36719,-2 0,-3.3136 -2.6864,-6 -6,-6 -3.3136,0 -6,2.6864 -6,6 0,3.314 2.686,6 6,6 l 7.5,0 c 1.0829,-0.09966 1.8445,-0.7432 2.5391,-1.1523 1.525,-1.088 1.962,-2.621 1.962,-4.848 0,-6.627 -5.373,-12 -12,-12 z m 0,10 c 1.1045,0 2,0.89547 2,2 0,1.1047 -0.89534,2 -2,2 -1.10466,0 -2,-0.89534 -2,-2 0,-1.1045 0.89547,-2 2,-2 z"/>
</svg>
