<?xml version="1.0" encoding="UTF-8" standalone="no"?>
<svg id="svg2" xmlns:rdf="http://www.w3.org/1999/02/22-rdf-syntax-ns#" xmlns="http://www.w3.org/2000/svg" viewBox="0 0 32 32" height="32" width="32" version="1.1" xmlns:cc="http://creativecommons.org/ns#" xmlns:dc="http://purl.org/dc/elements/1.1/">
 <metadata id="metadata4">
  <rdf:RDF>
   <cc:Work rdf:about="">
    <dc:format>image/svg+xml</dc:format>
    <dc:type rdf:resource="http://purl.org/dc/dcmitype/StillImage"/>
    <dc:title/>
   </cc:Work>
  </rdf:RDF>
 </metadata>
 <circle id="path3197" cy="16" cx="16" r="14" fill="#646464"/>
 <path id="path4249" d="m16.018 7.0002c1.8938 0.004 3.8141 0.59437 5.3141 1.7626 1.0545 1.2148-0.95476 2.5158-1.8597 1.3312-2.7242-1.6483-6.5662-1.068-8.6158 1.3964-1.0905 1.223-1.7049 2.8549-1.6977 4.4932h1.8003c-0.96 1.441-1.9202 2.881-2.8803 4.321-0.9602-1.44-1.9203-2.88-2.8805-4.32h1.8003c-0.0573-3.912 2.756-7.6331 6.5325-8.6462 0.811-0.2221 1.646-0.3465 2.487-0.3378zm7.9033 4.6808c0.96016 1.4402 1.9203 2.8805 2.8805 4.3207h-1.8003c0.051 3.9585-2.8341 7.7213-6.6772 8.681-2.5933 0.72418-5.5256 0.19575-7.657-1.4611-1.0874-1.235 0.94976-2.5235 1.8631-1.3282 2.6394 1.6014 6.3356 1.0935 8.419-1.1937 1.2066-1.2432 1.901-2.9653 1.8917-4.698h-1.8003c0.96016-1.4402 1.9203-2.8805 2.8805-4.3207z" style="enable-background:new" fill="#fff"/>
</svg>
