<svg xmlns="http://www.w3.org/2000/svg" width="24" height="24" version="1.1">
 <path style="opacity:0.2" d="M 12,1.5 C 11.446,1.5 11,1.946 11,2.5 V 3.5 H 5 C 3.892,3.5 3,4.392 3,5.5 V 12.5 H 2 C 1.446,12.5 1,12.946 1,13.5 1,14.054 1.446,14.5 2,14.5 H 3 V 20.5 C 3,21.608 3.892,22.5 5,22.5 H 19 C 20.108,22.5 21,21.608 21,20.5 V 14.5 H 22 C 22.554,14.5 23,14.054 23,13.5 23,12.946 22.554,12.5 22,12.5 H 21 V 5.5 C 21,4.392 20.108,3.5 19,3.5 H 13 V 2.5 C 13,1.946 12.554,1.5 12,1.5 Z"/>
 <path style="fill:#f04b23" d="M 12,1 C 11.446,1 11,1.446 11,2 V 3 H 5 C 3.892,3 3,3.892 3,5 V 12 H 2 C 1.446,12 1,12.446 1,13 1,13.554 1.446,14 2,14 H 3 V 20 C 3,21.108 3.892,22 5,22 H 19 C 20.108,22 21,21.108 21,20 V 14 H 22 C 22.554,14 23,13.554 23,13 23,12.446 22.554,12 22,12 H 21 V 5 C 21,3.892 20.108,3 19,3 H 13 V 2 C 13,1.446 12.554,1 12,1 Z"/>
 <path style="opacity:0.2" d="M 12,6.5 6,9.5 V 12.5 L 14.4,15.3 12,16.5 9,15 V 14.5 L 6,13.464 V 16.5 L 12,19.5 18,16.5 V 13.5 L 9.6,10.7 12,9.5 15,11 V 11.5 L 18,12.536 V 9.5 Z"/>
 <path style="fill:#fdffff" d="M 12,6 6,9 V 12 L 14.4,14.8 12,16 9,14.5 V 14 L 6,12.964 V 16 L 12,19 18,16 V 13 L 9.6,10.2 12,9 15,10.5 V 11 L 18,12.036 V 9 Z"/>
 <path style="opacity:0.2;fill:#ffffff" d="M 12 1 C 11.446 1 11 1.446 11 2 L 11 2.5 C 11 1.946 11.446 1.5 12 1.5 C 12.554 1.5 13 1.946 13 2.5 L 13 2 C 13 1.446 12.554 1 12 1 z M 5 3 C 3.892 3 3 3.892 3 5 L 3 5.5 C 3 4.392 3.892 3.5 5 3.5 L 11 3.5 L 11 3 L 5 3 z M 13 3 L 13 3.5 L 19 3.5 C 20.108 3.5 21 4.392 21 5.5 L 21 5 C 21 3.892 20.108 3 19 3 L 13 3 z M 2 12 C 1.446 12 1 12.446 1 13 C 1 13.089 1.0293 13.168 1.0508 13.25 C 1.1634 12.821 1.5347 12.5 2 12.5 L 3 12.5 L 3 12 L 2 12 z M 21 12 L 21 12.5 L 22 12.5 C 22.465 12.5 22.837 12.821 22.949 13.25 C 22.971 13.168 23 13.089 23 13 C 23 12.446 22.554 12 22 12 L 21 12 z"/>
</svg>
