<svg xmlns="http://www.w3.org/2000/svg" width="24" height="24" version="1">
 <rect style="fill:#3d4963" width="20" height="20" x="2" y="2" rx="10" ry="10"/>
 <path style="opacity:0.2" d="M 12,6.4983749 C 10.771828,6.4253664 9.7777755,7.4453999 9.421875,8.5452499 8.2610865,11.60576 7.13472,14.679532 6.0390625,17.764 l 2.1777344,-0.763672 c 1.030623,-2.658311 2.0301501,-5.329834 3.0683591,-7.984375 0.165473,-0.407351 0.703287,-0.8554483 1.097656,-0.4414062 0.51245,0.5091125 0.609428,1.270607 0.902344,1.9062502 0.828898,2.174646 1.662931,4.347267 2.498047,6.519531 L 17.960938,17.764 C 16.819479,14.567741 15.665173,11.374036 14.439453,8.2093124 14.026507,7.2461834 13.098833,6.4332759 12,6.4983749 Z m 0,6.0019531 a 1.5,1.5 0 0 0 -1.5,1.5 1.5,1.5 0 0 0 1.5,1.5 1.5,1.5 0 0 0 1.5,-1.5 1.5,1.5 0 0 0 -1.5,-1.5 z"/>
 <path style="opacity:0.1;fill:#ffffff" d="M 12,2 C 6.46,2 2,6.46 2,12 2,12.084 2.004,12.1665 2.00585,12.25 2.1382,6.827 6.544,2.5 11.99985,2.5 c 5.45585,0 9.862,4.32695 9.994,9.75 0.002,-0.08343 0.0059,-0.166065 0.0059,-0.25 0,-5.54 -4.46,-10 -10,-10 z"/>
 <path style="opacity:0.2" d="M 2.00585,12.25 C 2.0038,12.3335 2,12.416 2,12.5 c 0,5.54 4.46,10 10,10 5.54,0 10,-4.46 10,-10 0,-0.084 -0.004,-0.1665 -0.006,-0.25 C 21.862,17.673 17.456,22 12,22 6.544,22 2.138,17.673 2.006,12.25 Z"/>
 <circle style="fill:#2698fa" cx="12" cy="13.5" r="1.5"/>
 <path style="fill:#2698fa" d="M 12,5.9973755 C 10.771828,5.924367 9.778466,6.9451655 9.4225655,8.0450155 8.261777,11.105526 7.1337435,14.178532 6.038086,17.263 6.764323,17.008443 7.49056,16.753886 8.216797,16.499329 9.24742,13.841018 10.247094,11.169478 11.285303,8.514937 11.450776,8.107586 11.989295,7.66085 12.383665,8.074892 c 0.512449,0.5091125 0.608297,1.269305 0.901213,1.904948 0.828898,2.174646 1.663209,4.347224 2.498325,6.519488 0.726237,0.254558 1.452474,0.509115 2.178711,0.763672 C 16.820456,14.066741 15.665767,10.874073 14.440047,7.709349 14.027101,6.74622 13.098833,5.9322765 12,5.9973755 Z"/>
 <path style="opacity:0.2;fill:#ffffff" d="M 12 5.9980469 C 10.771828 5.9250384 9.7777755 6.9450719 9.421875 8.0449219 C 8.2610865 11.105432 7.13472 14.179204 6.0390625 17.263672 L 6.2460938 17.191406 C 7.2774162 14.299397 8.3330437 11.415711 9.421875 8.5449219 C 9.7777755 7.4450719 10.771828 6.4250384 12 6.4980469 C 13.098833 6.4329479 14.026507 7.2458554 14.439453 8.2089844 C 15.59192 11.184574 16.679024 14.186542 17.753906 17.191406 L 17.960938 17.263672 C 16.819479 14.067413 15.665173 10.873708 14.439453 7.7089844 C 14.026507 6.7458554 13.098833 5.9329479 12 5.9980469 z M 12 12 A 1.5 1.5 0 0 0 10.5 13.5 A 1.5 1.5 0 0 0 10.521484 13.746094 A 1.5 1.5 0 0 1 12 12.5 A 1.5 1.5 0 0 1 13.478516 13.755859 A 1.5 1.5 0 0 0 13.5 13.5 A 1.5 1.5 0 0 0 12 12 z"/>
</svg>
