<svg xmlns="http://www.w3.org/2000/svg" width="24" height="24" version="1">
 <rect style="opacity:0.2" width="20" height="20" x="2" y="2.5" rx="10" ry="10"/>
 <rect style="fill:#2a4d9b" width="20" height="20" x="2" y="2" rx="10" ry="10"/>
 <path style="opacity:0.1" d="M 12.051772,3.0000593 C 11.280534,3.0547477 10.526067,3.1963331 9.7903062,3.4348404 9.527811,3.4450839 8.9573348,3.7831591 9.4176127,3.9418382 9.6318119,4.1706751 10.143168,4.2434898 10.081071,4.6173954 10.163677,4.9460614 9.3171473,4.9311488 9.5988999,5.2288267 9.7986862,5.4917623 9.9984724,5.7546974 10.198259,6.0176331 10.567174,5.8991442 10.688899,5.5213253 10.89357,5.2305247 11.46327,4.9792474 12.269586,4.9033301 12.646079,4.4197653 12.764057,4.0777147 12.882034,3.7356641 13.000012,3.3936134 12.683932,3.2624287 12.367852,3.131244 12.051772,3.0000593 Z m -2.7421836,0.08789 C 8.9562378,3.0498258 8.7301892,3.2669952 8.4664205,3.4093651 8.1417475,3.449129 7.7749165,3.5699626 7.5703328,3.8311128 7.9345333,3.9963929 8.163889,3.8202419 8.4782645,3.6954365 8.7701471,3.5458993 9.7629007,3.4835103 9.3095884,3.0879493 Z M 7.029318,4.1367765 C 6.8476438,4.4140824 7.1569239,4.8154383 6.7413429,4.9609703 6.5362047,5.2206527 6.3569345,5.6469006 6.8696688,5.4922433 6.9950986,5.1074488 7.384748,4.5676633 7.8281659,4.793033 8.2748088,4.9130337 8.6881582,5.6635641 9.0528227,5.0690964 9.0526757,4.9144968 8.485582,4.8240364 8.498253,4.4457869 8.2459068,4.3375284 7.7064821,4.5342651 7.7253356,4.1408318 7.3607651,3.9789545 7.2557837,4.7855551 7.1265799,4.3347387 7.09416,4.2687513 7.0617385,4.2027639 7.029318,4.1367765 Z m 9.89647,0.3496088 c -0.431497,0.086285 -0.857684,0.1848482 -1.19824,0.4814447 0.09885,0.395184 -0.411005,0.4616904 -0.637755,0.6810621 -0.164531,0.092842 0.003,0.8100219 0.147142,0.698714 0.306517,-0.4043854 0.465055,-0.055556 0.750012,0.1441378 0.256457,0.2382002 0.419311,-0.4423329 0.28308,-0.6341606 -0.07993,-0.3091761 0.30891,-0.5379007 0.448839,-0.7911099 0.427787,-0.2744125 0.06632,0.3500935 0.05263,0.5681412 -0.215944,0.6443226 0.957838,0.019415 0.184116,0.5009348 -0.207538,0.2072572 -0.28353,0.5142848 -0.602426,0.6674571 -0.17219,0.2101732 -0.829376,0.1116493 -0.740867,-0.2161892 -0.239989,-0.3761335 -0.180751,0.4527133 -0.262282,0.4487364 -0.397719,-0.1185224 -0.51609,0.3254305 -0.765526,0.5378382 -0.190885,0.2193057 -0.864758,0.083223 -0.36165,0.4229289 0.366936,0.4234064 -0.07313,0.345097 -0.376674,0.4578809 -0.428961,0.073872 -0.35725,0.4474803 -0.346172,0.7847894 0.0066,0.1859042 0.418316,0.4617158 0.626795,0.3320425 0.416458,-0.04461 0.311384,-0.5556952 0.619074,-0.711562 0.255652,-0.2188392 0.435074,-0.4206759 0.818937,-0.4259154 0.177226,0.1691328 0.535442,0.4234139 0.680699,0.5616817 -0.400885,0.4367934 0.184132,0.4012119 0.240095,0.0033 0.197751,-0.2191397 -0.651352,-0.7347905 -0.09142,-0.5082258 0.370647,0.1222683 0.285401,0.5009083 0.450302,0.756516 0.293119,0.4955058 0.324508,0.1257508 0.351803,-0.2575437 0.487009,-0.1529843 0.618985,0.8480323 1.275389,0.6132802 0.491935,0.1292588 0.258814,0.4473524 -0.05179,0.6527524 -0.283674,0.206891 -0.706658,0.06508 -1.017999,-0.04723 -0.308001,-0.158134 -0.679199,-0.06747 -0.841338,0.247018 -0.359945,-0.31063 -0.614718,-0.804092 -1.137623,-0.831429 -0.495104,-0.025645 -0.994919,0.1059969 -1.472725,0.2406102 -0.529406,0.6212928 -1.102155,1.2264008 -1.348825,2.0205168 -0.256048,0.314657 0.292396,0.503153 -0.124489,0.789529 -0.290237,0.270991 0.09885,0.605714 0.15892,0.90957 0.312342,0.370407 0.791208,1.588776 1.273557,1.117488 0.27146,-0.428906 0.451459,0.280946 0.770677,-0.164508 0.268669,-0.245229 0.486275,0.246411 0.863026,0.07154 0.335046,0.167004 0.364176,0.494378 0.187134,0.807628 -0.11369,0.318061 0.492541,0.448831 0.320049,0.820144 -0.08131,0.363102 0.07798,0.671336 0.258347,0.974763 -0.400921,0.418507 -0.352605,1.038419 -0.252516,1.562827 0.196166,0.718932 0.477091,1.439939 0.449034,2.196934 0.351286,0.09215 0.610432,-0.140526 0.900925,-0.262695 0.554475,0.07844 0.856091,-0.513213 1.2004,-0.852538 -0.258649,-0.347686 0.212483,-0.497748 0.407226,-0.722655 -0.291308,-0.25198 -0.484327,-0.49661 -0.03334,-0.693085 0.20804,-0.211296 0.597775,-0.330757 0.666111,-0.62551 -0.179152,-0.533883 -0.07713,-1.101089 -0.103476,-1.653081 0.22088,-0.445175 0.455394,-0.880875 0.822262,-1.224607 0.14631,-0.48275 0.497968,-0.925214 0.463866,-1.443358 -0.855141,0.255842 -0.596928,-0.108675 -0.123041,-0.455196 0.328869,-0.241191 0.796457,-0.466166 0.896478,-0.877397 0.07177,-0.405859 -0.245414,-1.036042 -0.521361,-0.439727 -0.134049,-0.190033 -0.606266,-0.366256 -0.599731,-0.664557 -0.101127,-0.60157 0.162672,-0.240244 0.397198,0.04384 0.545485,-0.404368 1.257414,1.116036 1.027169,0.03115 C 21.593924,8.7834207 20.40341,6.5652023 18.620122,5.0068925 18.457052,5.1805452 18.184907,5.8279543 17.98744,5.4542724 17.707882,5.1577093 17.48848,4.8899602 18.057925,5.0000565 18.616003,4.8486134 18.060125,4.760544 17.767523,4.7260044 17.474147,4.6917507 17.202078,4.5843019 16.925788,4.4863853 Z M 6.002952,4.5010338 C 5.6337575,4.6432378 6.1868077,5.1854172 5.5248741,5.0118 4.7991601,5.340638 4.3157399,6.1386824 3.8113494,6.7600855 2.6347901,8.4228347 1.9951083,10.454801 2.0000281,12.491257 c 0.1930543,0.398471 0.66854,0.533498 1.0242701,0.753479 0.3615293,0.123684 0.816826,0.104997 0.9967594,0.504405 0.2012425,0.210735 0.4712585,0.49335 0.758769,0.516195 0.441798,-0.141572 0.5040954,0.259003 0.2812107,0.555346 -0.02413,0.324581 -0.385407,0.586358 -0.3451428,0.871818 0.080491,0.31986 -0.4024049,0.672158 -0.077101,0.9648 0.3422381,0.61183 0.7085007,1.205985 1.1713315,1.734446 0.2878771,0.252212 0.2537387,0.599457 0.2208787,0.946325 -0.1142413,0.366584 0.2322557,0.57867 0.4182385,0.84458 -0.4532054,0.830919 0.7743264,0.99701 1.2880837,1.36035 0.2582956,-0.236205 0.2788271,-0.618515 0.707339,-0.629155 0.2598471,-0.182058 0.3153245,-0.59301 0.4937863,-0.866219 -0.00571,-0.290223 -0.1915738,-0.56145 0.1101588,-0.877526 0.2273512,-0.191893 0.6965,-0.06394 0.7811364,-0.464538 0.3088316,-0.318116 0.058942,-0.759002 0.058944,-1.144978 0.2398976,-0.328614 0.6537506,-0.580859 0.6078456,-1.034942 0.05197,-0.67725 -1.1673233,-0.646802 -1.5969747,-1.057416 C 8.3714502,15.453052 8.4782615,14.733459 8.0671596,14.637845 7.6590132,14.65836 7.5106254,14.338598 7.3659596,14.01396 7.1411664,13.860652 6.7180835,14.172219 6.4828638,13.980075 6.2164312,13.839712 5.9774165,13.316139 5.6775309,13.643337 5.282816,13.92952 4.8946618,14.220251 4.5202206,13.741108 4.2773913,13.522287 4.5824917,12.901144 4.2386775,12.940265 3.504703,13.205744 4.4712963,11.874157 3.7842053,12.050828 3.6214753,12.305897 3.3093406,12.699475 3.005833,12.397633 2.7010471,12.254227 2.8513968,11.787918 2.864987,11.508673 c 0.013171,-0.326646 0.4265649,-0.489515 0.6641294,-0.638508 0.4607599,0.206073 0.3661958,-0.408023 0.7512847,-0.202749 0.3735608,-0.07955 0.5422311,0.519714 0.6939052,0.542039 0.089133,-0.295224 -0.071781,-0.726702 0.2021998,-0.9212 C 5.4966322,10.018796 5.9191286,9.8271427 5.9981535,9.3744369 6.0046985,8.8907911 6.5915982,9.2983765 6.737288,8.9690489 6.8716118,8.5916695 7.2633977,8.6152499 7.5943318,8.544063 7.7753465,8.3761108 8.2303089,7.8588045 7.6682506,8.0104743 7.4635384,7.9827943 6.6394146,8.0925087 7.1990278,7.8952979 7.4746824,7.6866267 7.808786,7.7155632 8.118236,7.6745648 8.3619337,7.4682445 8.7879526,7.3991356 8.8066591,7.0234912 8.6044003,6.7484086 8.1759434,6.8007705 8.3578307,6.4062345 8.3402507,5.8901378 7.8856938,6.2214678 7.7363696,6.1822053 7.9788977,5.8447138 7.421008,5.6322116 7.2337728,5.6274596 7.1065134,5.9455167 6.7487254,6.2199168 6.8750203,6.5859918 6.5019888,6.6465757 6.3272305,6.9165758 6.2151062,7.2527303 6.1032663,7.2917053 6.1396298,6.5934673 5.7115779,6.6577962 5.4092218,6.6506312 5.0354318,6.1993168 5.3537754,6.0216531 5.7902053,5.7455205 6.3328315,5.5293878 6.6088176,5.0883239 6.7675164,4.6933002 6.4748448,4.4508202 6.0851054,4.50693 l -0.054341,-0.0039 z m 7.342863,0.4548431 c -0.240871,0.1873829 -0.727125,0.057957 -0.829797,0.2386358 -0.04319,0.364388 0.522627,0.358691 0.748616,0.1575248 0.36932,-0.1365518 0.35287,-0.1116273 0.08118,-0.3961606 z M 7.9951367,5.1426343 C 7.4832419,5.2932446 7.9015608,5.6285446 8.2357279,5.6240791 8.6344173,5.5919292 8.2634778,5.1455178 7.9951367,5.1426343 Z m 6.1044843,1.0058581 c -0.03661,0.3260835 0.276618,0.5296898 0.147245,0.8849398 -0.203706,0.4474898 0.08484,0.5818716 0.432975,0.30681 0.464928,-0.2844651 -0.348404,-0.9076347 -0.456761,-1.1917498 -0.04115,0 -0.08231,0 -0.123459,0 z M 13.9463,6.6729057 C 13.528502,6.5701983 13.660677,7.4446081 13.9477,7.1435865 14.25685,7.0896265 13.96,6.8514024 13.9463,6.6729057 Z M 8.6142768,7.4609906 c 0.06134,0.3316005 0.083391,0.8572928 0.3261616,0.292624 C 8.9400979,7.6438603 8.7005847,7.5580314 8.6142768,7.4609906 Z M 18.70313,10.870165 c 0.491054,0.428182 0.689986,1.048263 0.966795,1.617186 0.411873,0.216235 0.168056,0.546958 0.225428,0.824853 0.57346,0.502061 -0.580737,0.23466 -0.440679,-0.313097 -0.09358,-0.636204 -0.502205,-1.060866 -0.835924,-1.520956 -0.02624,-0.243546 -0.287496,-0.521339 0.08438,-0.607986 z"/>
 <path style="fill:#277f8d" d="M 12.051772,2.500028 C 11.280534,2.5547164 10.526067,2.6963018 9.7903062,2.9348091 9.527811,2.9450526 8.9573348,3.2831278 9.4176127,3.4418069 9.6318119,3.6706438 10.143168,3.7434585 10.081071,4.1173641 10.163677,4.4460301 9.3171473,4.4311175 9.5988999,4.7287956 9.7986862,4.991731 9.9984724,5.2546661 10.198259,5.5176018 10.567174,5.3991129 10.688899,5.021294 10.89357,4.7304936 11.46327,4.4792161 12.269586,4.4032988 12.646079,3.919734 12.764057,3.5776834 12.882034,3.2356328 13.000012,2.8935821 12.683932,2.7623974 12.367852,2.6312127 12.051772,2.500028 Z M 9.3095884,2.587918 C 8.9562378,2.5497945 8.7301892,2.7669639 8.4664205,2.9093338 8.1417475,2.9490977 7.7749165,3.0699313 7.5703328,3.3310815 7.9345333,3.4963616 8.163889,3.3202106 8.4782645,3.1954052 8.7701471,3.045868 9.7629007,2.983479 9.3095884,2.587918 Z M 7.029318,3.6367452 C 6.8476438,3.9140511 7.1569239,4.315407 6.7413429,4.460939 6.5362047,4.7206212 6.3569345,5.1468693 6.8696688,4.992212 6.9950986,4.6074175 7.384748,4.067632 7.8281659,4.2930017 8.2748088,4.4130024 8.6881582,5.1635328 9.0528227,4.569065 9.0526757,4.4144655 8.485582,4.3240051 8.498253,3.9457556 8.2459068,3.8374971 7.7064821,4.0342338 7.7253356,3.6408005 7.3607651,3.4789232 7.2557837,4.2855238 7.1265799,3.8347074 7.09416,3.76872 7.0617385,3.7027326 7.029318,3.6367452 Z m 9.89647,0.3496088 c -0.431497,0.086285 -0.857684,0.1848482 -1.19824,0.4814447 0.09885,0.3951838 -0.411005,0.4616905 -0.637755,0.6810621 -0.164531,0.092842 0.003,0.8100219 0.147142,0.698714 0.306517,-0.4043854 0.465055,-0.055556 0.750012,0.1441378 0.256457,0.2382002 0.419311,-0.4423329 0.28308,-0.6341606 -0.07993,-0.3091761 0.30891,-0.5379006 0.448839,-0.7911099 0.427787,-0.2744125 0.06632,0.3500935 0.05263,0.5681412 -0.215944,0.6443226 0.957838,0.019415 0.184116,0.5009348 C 16.74807,5.8427753 16.672078,6.1498029 16.353182,6.3029752 16.180992,6.5131484 15.523806,6.4146245 15.612315,6.086786 15.372326,5.7106525 15.431564,6.5394993 15.350033,6.5355224 14.952314,6.417 14.833943,6.8609529 14.584507,7.0733606 c -0.190885,0.2193057 -0.864758,0.083223 -0.36165,0.4229289 0.366936,0.4234064 -0.07313,0.345097 -0.376674,0.4578809 -0.428961,0.073872 -0.35725,0.4474803 -0.346172,0.7847894 0.0066,0.1859042 0.418316,0.4617158 0.626795,0.3320425 0.416458,-0.04461 0.311384,-0.5556952 0.619074,-0.711562 0.255652,-0.2188392 0.435074,-0.4206759 0.818937,-0.4259154 0.177226,0.1691328 0.535442,0.4234139 0.680699,0.5616817 -0.400885,0.4367934 0.184132,0.4012119 0.240095,0.0033 0.197751,-0.2191397 -0.651352,-0.7347905 -0.09142,-0.5082258 0.370647,0.1222683 0.285401,0.5009083 0.450302,0.756516 0.293119,0.4955058 0.324508,0.1257508 0.351803,-0.2575437 0.487009,-0.1529843 0.618985,0.8480323 1.275389,0.6132802 0.491935,0.1292588 0.258814,0.4473528 -0.05179,0.652752 -0.283674,0.2068918 -0.706658,0.065081 -1.017999,-0.04723 C 17.093893,9.5499216 16.722695,9.640587 16.560556,9.9550741 16.200611,9.644444 15.945838,9.1509817 15.422933,9.1236447 14.927829,9.0979998 14.428014,9.2296416 13.950208,9.3642549 13.420802,9.985548 12.848053,10.590656 12.601383,11.384772 c -0.256048,0.314657 0.292396,0.503153 -0.124489,0.789528 -0.290237,0.270992 0.09885,0.605715 0.15892,0.909571 0.312342,0.370407 0.791208,1.588776 1.273557,1.117488 0.27146,-0.428906 0.451459,0.280945 0.770677,-0.164509 0.268669,-0.245228 0.486275,0.246412 0.863026,0.07154 0.335046,0.167004 0.364176,0.494378 0.187134,0.807628 -0.11369,0.318061 0.492541,0.448831 0.320049,0.820143 -0.08131,0.363102 0.07798,0.671337 0.258347,0.974764 -0.400921,0.418507 -0.352605,1.038419 -0.252516,1.562827 0.196166,0.718931 0.477091,1.439939 0.449034,2.196933 0.351286,0.09215 0.610432,-0.140525 0.900925,-0.262694 0.554475,0.07844 0.856091,-0.513214 1.2004,-0.852538 -0.258649,-0.347687 0.212483,-0.497748 0.407226,-0.722656 -0.291308,-0.251979 -0.484327,-0.496609 -0.03334,-0.693085 0.20804,-0.211295 0.597775,-0.330756 0.666111,-0.62551 -0.179152,-0.533882 -0.07713,-1.101088 -0.103476,-1.65308 0.22088,-0.445175 0.455394,-0.880876 0.822262,-1.224608 0.14631,-0.48275 0.497968,-0.925213 0.463866,-1.443357 -0.855141,0.255841 -0.596928,-0.108675 -0.123041,-0.455197 0.328869,-0.24119 0.796457,-0.466165 0.896478,-0.877396 0.07177,-0.40586 -0.245414,-1.036042 -0.521361,-0.439728 -0.134049,-0.190032 -0.606266,-0.366256 -0.599731,-0.664556 -0.101127,-0.6015699 0.162672,-0.240244 0.397198,0.04384 0.545485,-0.404369 1.257414,1.116036 1.027169,0.03115 C 21.593924,8.2833894 20.40341,6.065171 18.620122,4.5068611 18.457052,4.6805138 18.184907,5.327923 17.98744,4.9542413 17.707882,4.6576782 17.48848,4.3899289 18.057925,4.5000251 18.616003,4.3485821 18.060126,4.2605127 17.767523,4.2259731 17.474147,4.1917194 17.202078,4.0842706 16.925788,3.986354 Z M 6.002952,4.0010025 C 5.6337575,4.1432065 6.1868077,4.6853859 5.5248741,4.5117687 4.7991601,4.8406069 4.3157399,5.6386511 3.8113494,6.2600542 2.6347901,7.9228034 1.9951083,9.9547701 2.0000281,11.991226 c 0.1930543,0.398471 0.66854,0.533498 1.0242701,0.753479 0.3615293,0.123684 0.816826,0.104997 0.9967594,0.504405 0.2012425,0.210735 0.4712585,0.493349 0.758769,0.516195 0.441798,-0.141572 0.5040954,0.259002 0.2812107,0.555345 -0.02413,0.324581 -0.385407,0.586359 -0.3451428,0.871818 0.080491,0.319861 -0.4024049,0.672159 -0.077101,0.964801 0.3422381,0.61183 0.7085007,1.205985 1.1713315,1.734445 0.2878771,0.252213 0.2537387,0.599458 0.2208787,0.946326 -0.1142413,0.366584 0.2322557,0.578669 0.4182385,0.84458 -0.4532054,0.830918 0.7743264,0.99701 1.2880837,1.36035 0.2582956,-0.236205 0.2788271,-0.618515 0.707339,-0.629156 0.2598471,-0.182057 0.3153245,-0.593009 0.4937863,-0.866218 -0.00571,-0.290223 -0.1915738,-0.56145 0.1101588,-0.877527 0.2273512,-0.191892 0.6965,-0.06394 0.7811364,-0.464537 0.3088316,-0.318116 0.058942,-0.759002 0.058944,-1.144978 C 10.128588,16.73194 10.542441,16.479694 10.496536,16.025612 10.548504,15.348362 9.3292123,15.37881 8.8995609,14.968196 8.3714502,14.953021 8.4782615,14.233428 8.0671596,14.137814 7.6590132,14.158329 7.5106254,13.838567 7.3659596,13.513929 7.1411664,13.36062 6.7180835,13.672187 6.4828638,13.480044 6.2164312,13.339681 5.9774165,12.816108 5.6775309,13.143306 5.282816,13.429489 4.8946618,13.720219 4.5202206,13.241077 4.2773913,13.022255 4.5824917,12.401113 4.2386775,12.440234 3.504703,12.705712 4.4712963,11.374126 3.7842053,11.550796 3.6214753,11.805865 3.3093406,12.199443 3.005833,11.897601 2.7010471,11.754196 2.8513968,11.287887 2.864987,11.008642 c 0.013171,-0.326646 0.4265649,-0.489515 0.6641294,-0.638508 0.4607599,0.206073 0.3661958,-0.4080229 0.7512847,-0.20275 0.3735608,-0.07955 0.5422311,0.519715 0.6939052,0.54204 C 5.0634398,10.4142 4.9025258,9.9827215 5.1765061,9.7882238 5.4966322,9.5187652 5.9191286,9.3271114 5.9981535,8.8744056 6.0046985,8.3907598 6.5915982,8.7983452 6.737288,8.4690176 6.8716118,8.0916382 7.2633977,8.1152186 7.5943318,8.0440317 7.7753465,7.8760795 8.2303089,7.3587732 7.6682506,7.510443 7.4635384,7.482763 6.6394146,7.5924774 7.1990278,7.3952666 7.4746824,7.1865954 7.808786,7.2155319 8.118236,7.1745335 8.3619337,6.9682132 8.7879526,6.8991043 8.8066591,6.5234599 8.6044003,6.2483773 8.1759434,6.3007392 8.3578307,5.9062032 8.3402507,5.3901065 7.8856938,5.7214365 7.7363696,5.682174 7.9788977,5.3446825 7.421008,5.1321803 7.2337728,5.1274283 7.1065134,5.4454854 6.7487254,5.7198855 6.8750203,6.0859605 6.5019888,6.1465444 6.3272305,6.4165445 6.2151062,6.752699 6.1032663,6.791674 6.1396298,6.093436 5.7115779,6.1577649 5.4092218,6.1505999 5.0354318,5.6992855 5.3537754,5.5216218 5.7902053,5.2454892 6.3328315,5.0293565 6.6088176,4.5882925 6.7675164,4.1932689 6.4748448,3.9507889 6.0851054,4.0068987 l -0.054341,-0.0039 z m 7.342863,0.4548431 c -0.240871,0.1873829 -0.727125,0.057957 -0.829797,0.2386358 -0.04319,0.364388 0.522627,0.358691 0.748616,0.1575246 0.36932,-0.1365516 0.35287,-0.1116271 0.08118,-0.3961604 z M 7.9951367,4.6426032 C 7.4832419,4.7932134 7.9015608,5.1285133 8.2357279,5.1240478 8.6344173,5.0918979 8.2634778,4.6454867 7.9951367,4.6426032 Z m 6.1044843,1.0058579 c -0.03661,0.3260835 0.276618,0.5296898 0.147245,0.8849398 -0.203706,0.4474898 0.08484,0.5818716 0.432975,0.30681 0.464928,-0.2844651 -0.348404,-0.9076347 -0.456761,-1.1917498 -0.04115,0 -0.08231,0 -0.123459,0 z M 13.9463,6.1728744 C 13.528502,6.070167 13.660677,6.9445768 13.9477,6.6435552 14.25685,6.5895952 13.96,6.3513711 13.9463,6.1728744 Z M 8.6142768,6.9609593 c 0.06134,0.3316005 0.083391,0.8572928 0.3261616,0.292624 C 8.9400979,7.143829 8.7005847,7.0580001 8.6142768,6.9609593 Z M 18.70313,10.370134 c 0.491054,0.428182 0.689986,1.048263 0.966795,1.617185 0.411873,0.216236 0.168056,0.546958 0.225428,0.824854 0.57346,0.50206 -0.580737,0.234659 -0.440679,-0.313097 -0.09358,-0.636204 -0.502205,-1.060867 -0.835924,-1.520956 -0.02624,-0.243546 -0.287496,-0.521339 0.08438,-0.607986 z"/>
 <path style="opacity:0.2" d="m 11,10.499721 c -0.553999,0 -1,0.479556 -1,1.076172 v 4.847656 c 0,0.02702 0.01187,0.04966 0.01367,0.07617 H 8.6210938 a 0.6232419,0.52703947 0 0 0 -0.5371094,0.791016 l 3.3749996,4.945312 a 0.6232419,0.52703947 0 0 0 1.080078,0 l 3.376954,-4.945312 A 0.6232419,0.52703947 0 0 0 15.376953,16.499721 H 13.986328 C 13.988127,16.473208 14,16.450573 14,16.423549 v -4.847656 c 0,-0.596616 -0.446001,-1.076172 -1,-1.076172 z"/>
 <rect style="fill:#e74185" width="4" height="7" x="10" y="10" rx="1" ry="1.077"/>
 <path style="fill:#e74185" d="m 8.6218609,16.000002 a 0.6232419,0.52703947 0 0 0 -0.5387142,0.790042 l 3.3766733,4.946871 a 0.6232419,0.52703947 0 0 0 1.078894,0 l 3.37814,-4.946871 a 0.6232419,0.52703947 0 0 0 -0.54018,-0.790042 z"/>
 <path style="opacity:0.1;fill:#ffffff" d="m 12.000014,2.0000287 c -5.5399922,0 -9.9999859,4.4599938 -9.9999859,9.9999863 0,0.08394 0.00382,0.16657 0.00586,0.249999 0.1323355,-5.4230606 4.5380711,-9.749986 9.9941269,-9.749986 5.456055,0 9.861791,4.3269254 9.994127,9.749986 C 21.996177,12.166585 22,12.083952 22,12.000015 22,6.4600225 17.540006,2.0000287 12.000014,2.0000287 Z"/>
 <path style="opacity:0.2;fill:#ffffff" d="M 11 10 C 10.446001 10 10 10.479556 10 11.076172 L 10 11.576172 C 10 10.979556 10.446001 10.5 11 10.5 L 13 10.5 C 13.553999 10.5 14 10.979556 14 11.576172 L 14 11.076172 C 14 10.479556 13.553999 10 13 10 L 11 10 z M 8.6210938 16 A 0.6232419 0.52703947 0 0 0 8.0761719 16.775391 A 0.6232419 0.52703947 0 0 1 8.6210938 16.5 L 10.013672 16.5 C 10.011872 16.47349 10 16.450848 10 16.423828 L 10 16 L 8.6210938 16 z M 14 16 L 14 16.423828 C 14 16.450852 13.988127 16.473487 13.986328 16.5 L 15.376953 16.5 A 0.6232419 0.52703947 0 0 1 15.925781 16.775391 A 0.6232419 0.52703947 0 0 0 15.376953 16 L 14 16 z"/>
</svg>
