<svg xmlns="http://www.w3.org/2000/svg" width="24" height="24" version="1">
 <rect style="opacity:0.2" width="20" height="20" x="2" y="2.5" rx="6" ry="6"/>
 <rect style="fill:#095660" width="20" height="20" x="2" y="2" rx="6" ry="6"/>
 <path style="opacity:0.2" d="m 12.143355,5.0788138 c -0.1049,0 -0.191707,0.2366018 -0.215344,0.5869824 -0.03665,0.5433065 -0.223247,0.854591 -0.497564,0.580274 -0.1271,-0.1271 -0.132761,-0.299119 -0.105546,-0.559489 0.02646,-0.2532007 0.02087,-0.2777831 -0.06944,-0.306448 -0.054,-0.017138 -0.09819,-0.050468 -0.09819,-0.074098 0,-0.023631 -0.05058,-0.042987 -0.11243,-0.042987 -0.06185,0 -0.125248,-0.020687 -0.140908,-0.046025 -0.01566,-0.025338 -0.05807,-0.046092 -0.09421,-0.046092 -0.07809,0 -0.42889,0.5825126 -0.623019,0.9181706 -0.131894,0.2280484 -0.15141,0.2419324 -0.447492,0.3200114 -0.2293516,0.060482 -0.4458086,0.07835 -0.8355951,0.068902 -0.659957,-0.015995 -0.8040025,0.0095 -0.8698105,0.1539325 -0.036055,0.079129 -0.04269,0.5216505 -0.022675,1.8796105 0.03388,2.2982418 -0.00821,1.9935858 0.580841,1.9868028 0.3787035,-0.0043 1.2002326,0.07116 1.3345096,0.122687 0.114738,0.04403 0.137743,-0.349822 0.149344,0.188629 0.01178,0.546754 -0.0248,0.846406 -0.298417,1.370764 -0.13385,0.256508 -0.2097186,0.498069 -0.3399206,1.08259 -0.1336815,0.600142 0.028285,0.819004 0.4127366,0.557761 0.191658,-0.130236 0.224646,-0.12504 0.266564,0.04197 0.02045,0.08147 -0.0059,0.177084 -0.08699,0.315491 -0.07768,0.132556 -0.116412,0.267304 -0.116412,0.40538 0,0.114332 -0.05147,0.333603 -0.115128,0.490277 -0.132762,0.326728 -0.140466,0.486417 -0.04866,1.008086 0.07719,0.438579 0.157101,0.615478 0.316706,0.700896 0.181756,0.09727 0.224364,0.03088 0.214601,-0.334656 -0.01371,-0.513387 -0.0056,-0.582258 0.06856,-0.582258 0.175689,0 0.214876,0.410742 0.06971,0.730656 -0.11174,0.246254 -0.116707,0.507265 -0.01309,0.687805 0.07333,0.127771 0.07333,0.15052 0,0.377577 -0.10222,0.316506 -0.09901,0.41845 0.01411,0.448031 0.124519,0.03257 0.117895,0.0774 -0.0691,0.467601 -0.237694,0.495983 -0.208541,0.70786 0.07646,0.555332 0.08437,-0.04516 0.09021,-0.03957 0.05993,0.05756 -0.0683,0.219084 -0.107446,0.296381 -0.247264,0.487712 -0.07869,0.107688 -0.170929,0.195773 -0.204951,0.195773 -0.07522,0 -0.8255766,0.772041 -1.1998101,1.234498 C 8.5392494,21.474574 8.4029614,21.79764 8.3601669,22.235122 8.3360244,22.481887 8.3408579,22.5 8.4311564,22.5 c 0.053314,0 0.171312,-0.06524 0.262178,-0.145025 0.124396,-0.109221 0.1782655,-0.132029 0.2181105,-0.09218 0.165422,0.165422 0.444749,-0.07242 0.3198775,-0.272368 -0.08224,-0.131687 -0.069202,-0.164423 0.092184,-0.23127 0.080974,-0.03354 0.217361,-0.12254 0.3030746,-0.197798 0.145668,-0.127898 0.166077,-0.133169 0.312453,-0.08024 0.135117,0.04886 0.184787,0.04416 0.362123,-0.03428 0.173424,-0.07671 0.213227,-0.119531 0.25489,-0.274257 0.04811,-0.178689 0.116016,-0.238964 0.269264,-0.238964 0.05063,0 0.02308,0.04496 -0.08442,0.137804 -0.154632,0.133554 -0.156745,0.139885 -0.07005,0.207313 0.113622,0.08837 0.181363,0.08744 0.376295,-0.0051 0.165508,-0.07854 0.232059,-0.219753 0.180319,-0.382773 -0.02146,-0.06761 -0.01014,-0.09549 0.0388,-0.09549 0.03801,0 0.08156,0.03925 0.09677,0.08719 0.06619,0.208548 0.462434,0.102663 0.799086,-0.213521 0.136354,-0.128064 0.15551,-0.171364 0.134092,-0.303344 -0.02128,-0.131124 0.0023,-0.185773 0.158589,-0.368669 0.15823,-0.185113 0.196187,-0.207967 0.275338,-0.165607 0.06951,0.0372 0.118033,0.03197 0.199687,-0.02153 0.0945,-0.06192 0.11478,-0.06235 0.163786,-0.0033 0.03077,0.03707 0.100821,0.06742 0.155687,0.06742 0.115161,0 0.387908,-0.220401 0.399104,-0.322509 0.02949,-0.268963 -0.07955,-0.299282 -0.324129,-0.09023 -0.08773,0.07499 -0.173243,0.136319 -0.190037,0.136319 -0.0168,0 -0.04297,-0.06219 -0.05817,-0.138209 -0.02179,-0.108931 -0.05177,-0.138209 -0.141718,-0.138209 h -0.114117 l 0.06364,-0.211632 c 0.03503,-0.116411 0.07828,-0.349638 0.0961,-0.518283 0.01782,-0.168645 0.06053,-0.399941 0.09488,-0.513963 0.09043,-0.300173 0.07731,-0.528674 -0.05378,-0.939185 -0.174002,-0.544874 -0.0884,-0.543457 0.207515,0.0034 0.19459,0.359589 0.373602,0.474844 0.490074,0.315559 0.07346,-0.100458 0.08454,-0.337969 0.02314,-0.494798 -0.02278,-0.0582 -0.07743,-0.233909 -0.121472,-0.390534 -0.0591,-0.210163 -0.127223,-0.330844 -0.260019,-0.460516 -0.292355,-0.285476 -0.380633,-0.726474 -0.189092,-0.944853 0.03748,-0.04273 0.08886,-0.249056 0.114184,-0.458492 0.03787,-0.31331 0.034,-0.401578 -0.02193,-0.498172 -0.03739,-0.06457 -0.105031,-0.276756 -0.150356,-0.471515 l -0.08246,-0.354125 0.114117,-0.22162 c 0.06273,-0.121905 0.150569,-0.228742 0.195233,-0.237343 0.04467,-0.0086 0.16124,0.03982 0.259006,0.10757 0.09777,0.06775 0.215503,0.116046 0.261638,0.107301 0.133648,-0.02534 0.131003,-0.273483 -0.0056,-0.530093 -0.06483,-0.121782 -0.117828,-0.242063 -0.117828,-0.267239 0,-0.02518 -0.04908,-0.1497 -0.109055,-0.276755 -0.358984,-0.76048 -0.397116,-0.539741 -0.397485,-0.997177 -2.42e-4,-0.294871 0.01159,-0.340612 0.103386,-0.399915 0.173336,-0.11197 0.836988,-0.257656 1.173694,-0.257656 0.539635,0 0.49785,0.326329 0.486835,-1.9081163 -0.0052,-1.059857 -0.02111,-1.691368 -0.03529,-1.7697765 -0.02357,-0.1302545 -0.04856,-0.1478335 -0.289915,-0.2032645 -0.281523,-0.064657 -0.307167,-0.06484 -0.839645,-0.00662 -0.229128,0.025055 -0.414701,0.02003 -0.551957,-0.01498 -0.200359,-0.051069 -0.209622,-0.2113805 -0.300855,-0.486627 -0.127347,-0.3841995 -0.499335,-0.901667 -0.786332,-0.9394958 -0.0043,-0.00209 -0.0087,-0.00344 -0.0135,-0.00344 -0.0026,0 -0.0046,6.7e-4 -0.007,0.00101 -0.009,-6.95e-4 -0.01792,-0.00101 -0.02673,-0.00101 z m 1.246848,12.6759992 c -0.08329,0 -0.134558,0.109553 -0.09704,0.207313 0.04913,0.128013 0.167633,0.07916 0.167633,-0.0691 0,-0.0934 -0.02292,-0.138209 -0.07059,-0.138209 z m -0.0014,0.654399 c -0.04096,0.0015 -0.0975,0.03337 -0.172492,0.0938 -0.10934,0.0881 -0.129739,0.139563 -0.132472,0.334454 -0.0018,0.126691 -6e-4,0.256284 0.0025,0.287957 0.01088,0.10855 0.183739,0.05762 0.284448,-0.08382 0.06904,-0.09696 0.102645,-0.21599 0.106828,-0.378589 0.0045,-0.174506 -0.0206,-0.256314 -0.08888,-0.25381 z"/>
 <path style="opacity:0.1;fill:#ffffff" d="M 8,2 C 4.676,2 2,4.676 2,8 v 0.5 c 0,-3.324 2.676,-6 6,-6 h 8 c 3.324,0 6,2.676 6,6 V 8 C 22,4.676 19.324,2 16,2 Z"/>
 <path style="fill:#a0bfba" d="m 12.143355,4.5788138 c -0.1049,0 -0.191707,0.2366018 -0.215344,0.5869823 -0.03665,0.5433066 -0.223247,0.8545911 -0.497564,0.5802741 -0.1271,-0.1271 -0.132761,-0.299119 -0.105546,-0.5594889 0.02646,-0.2532008 0.02087,-0.2777832 -0.06944,-0.3064481 -0.054,-0.017138 -0.09819,-0.050468 -0.09819,-0.074098 0,-0.023631 -0.05058,-0.042987 -0.11243,-0.042987 -0.06185,0 -0.125248,-0.020687 -0.140908,-0.046025 -0.01566,-0.025338 -0.05807,-0.046092 -0.09421,-0.046092 -0.07809,0 -0.42889,0.5825124 -0.623019,0.9181706 -0.131894,0.2280484 -0.15141,0.2419324 -0.447492,0.3200114 -0.2293516,0.060482 -0.4458086,0.07835 -0.8355951,0.068902 -0.659957,-0.015995 -0.8040025,0.0095 -0.8698105,0.1539325 -0.036055,0.079129 -0.04269,0.5216505 -0.022675,1.8796105 0.03388,2.2982428 -0.00821,1.9935858 0.580841,1.986803 0.3787035,-0.00435 1.2002326,0.07116 1.3345096,0.1226878 0.114738,0.04403 0.137743,0.150028 0.149344,0.688478 0.01178,0.546754 -0.0248,0.346556 -0.298417,0.870914 -0.13385,0.256508 -0.2097186,0.498069 -0.3399206,1.08259 -0.1336815,0.600142 0.028285,0.819004 0.4127366,0.557761 0.191658,-0.130236 0.224646,-0.12504 0.266564,0.04197 0.02045,0.08147 -0.0059,0.177084 -0.08699,0.315491 -0.07768,0.132556 -0.116412,0.267304 -0.116412,0.40538 0,0.114332 -0.05147,0.333603 -0.115128,0.490277 -0.132762,0.326728 -0.140466,0.486417 -0.04866,1.008086 0.07719,0.438579 0.157101,0.615478 0.316706,0.700896 0.181756,0.09727 0.224364,0.03088 0.214601,-0.334656 -0.01371,-0.513387 -0.0056,-0.582258 0.06856,-0.582258 0.175689,0 0.214876,0.410742 0.06971,0.730656 -0.11174,0.246254 -0.116707,0.507265 -0.01309,0.687805 0.07333,0.127771 0.07333,0.15052 0,0.377577 -0.10222,0.316506 -0.09901,0.41845 0.01411,0.448031 0.124519,0.03257 0.117895,0.0774 -0.0691,0.467601 -0.237694,0.495983 -0.208541,0.70786 0.07646,0.555332 0.08437,-0.04516 0.09021,-0.03957 0.05993,0.05756 -0.0683,0.219084 -0.107446,0.296381 -0.247264,0.487712 -0.07869,0.107688 -0.170929,0.195773 -0.204951,0.195773 -0.07522,0 -0.8255766,0.772041 -1.1998101,1.234498 C 8.5392494,20.974574 8.4029614,21.29764 8.3601669,21.735122 8.3360244,21.981887 8.3408579,22 8.4311564,22 c 0.053314,0 0.171312,-0.06524 0.262178,-0.145025 0.124396,-0.109221 0.1782655,-0.132029 0.2181105,-0.09218 0.165422,0.165422 0.444749,-0.07242 0.3198775,-0.272368 -0.08224,-0.131687 -0.069202,-0.164423 0.092184,-0.23127 0.080974,-0.03354 0.217361,-0.12254 0.3030746,-0.197798 0.145668,-0.127898 0.166077,-0.133169 0.312453,-0.08024 0.135117,0.04886 0.184787,0.04416 0.362123,-0.03428 0.173424,-0.07671 0.213227,-0.119531 0.25489,-0.274257 0.04811,-0.178689 0.116016,-0.238964 0.269264,-0.238964 0.05063,0 0.02308,0.04496 -0.08442,0.137804 -0.154632,0.133554 -0.156745,0.139885 -0.07005,0.207313 0.113622,0.08837 0.181363,0.08744 0.376295,-0.0051 0.165508,-0.07854 0.232059,-0.219753 0.180319,-0.382773 -0.02146,-0.06761 -0.01014,-0.09549 0.0388,-0.09549 0.03801,0 0.08156,0.03925 0.09677,0.08719 0.06619,0.208548 0.462434,0.102663 0.799086,-0.213521 0.136354,-0.128064 0.15551,-0.171364 0.134092,-0.303344 -0.02128,-0.131124 0.0023,-0.185773 0.158589,-0.368669 0.15823,-0.185113 0.196187,-0.207967 0.275338,-0.165607 0.06951,0.0372 0.118033,0.03197 0.199687,-0.02153 0.0945,-0.06192 0.11478,-0.06235 0.163786,-0.0033 0.03077,0.03707 0.100821,0.06742 0.155687,0.06742 0.115161,0 0.387908,-0.220401 0.399104,-0.322509 0.02949,-0.268963 -0.07955,-0.299282 -0.324129,-0.09023 -0.08773,0.07499 -0.173243,0.136319 -0.190037,0.136319 -0.0168,0 -0.04297,-0.06219 -0.05817,-0.138209 -0.02179,-0.108931 -0.05177,-0.138209 -0.141718,-0.138209 h -0.114117 l 0.06364,-0.211632 c 0.03503,-0.116411 0.07828,-0.349638 0.0961,-0.518283 0.01782,-0.168645 0.06053,-0.399941 0.09488,-0.513963 0.09043,-0.300173 0.07731,-0.528674 -0.05378,-0.939185 -0.174002,-0.544874 -0.0884,-0.543457 0.207515,0.0034 0.19459,0.359589 0.373602,0.474844 0.490074,0.315559 0.07346,-0.100458 0.08454,-0.337969 0.02314,-0.494798 -0.02278,-0.0582 -0.07743,-0.233909 -0.121472,-0.390534 -0.0591,-0.210163 -0.127223,-0.330844 -0.260019,-0.460516 -0.292355,-0.285476 -0.380633,-0.726474 -0.189092,-0.944853 0.03748,-0.04273 0.08886,-0.249056 0.114184,-0.458492 0.03787,-0.31331 0.034,-0.401578 -0.02193,-0.498172 -0.03739,-0.06457 -0.105031,-0.276756 -0.150356,-0.471515 l -0.08246,-0.354125 0.114117,-0.22162 c 0.06273,-0.121905 0.150569,-0.228742 0.195233,-0.237343 0.04467,-0.0086 0.16124,0.03982 0.259006,0.10757 0.09777,0.06775 0.215503,0.116046 0.261638,0.107301 0.133648,-0.02534 0.131003,-0.273483 -0.0056,-0.530093 -0.06483,-0.121782 -0.117828,-0.242063 -0.117828,-0.267239 0,-0.02518 -0.04908,-0.1497 -0.109055,-0.276755 -0.358984,-0.76048 -0.397116,-0.539741 -0.397485,-0.997177 -2.42e-4,-0.294871 0.01159,-0.340612 0.103386,-0.399915 0.173336,-0.11197 0.836988,-0.2576563 1.173694,-0.2576563 0.539635,0 0.49785,0.3263293 0.486835,-1.908116 -0.0052,-1.059857 -0.02111,-1.691368 -0.03529,-1.7697765 -0.02357,-0.1302545 -0.04856,-0.1478335 -0.289915,-0.2032645 -0.281523,-0.064657 -0.307167,-0.06484 -0.839645,-0.00662 -0.229128,0.025055 -0.414701,0.02003 -0.551957,-0.01498 -0.200359,-0.051069 -0.209622,-0.2113805 -0.300855,-0.486627 -0.127347,-0.3841994 -0.499335,-0.901667 -0.786332,-0.9394958 -0.0043,-0.00209 -0.0087,-0.00344 -0.0135,-0.00344 -0.0026,0 -0.0046,6.7e-4 -0.007,0.00101 -0.009,-6.95e-4 -0.01792,-0.00101 -0.02673,-0.00101 z m 1.246848,12.6759992 c -0.08329,0 -0.134558,0.109553 -0.09704,0.207313 0.04913,0.128013 0.167633,0.07916 0.167633,-0.0691 0,-0.0934 -0.02292,-0.138209 -0.07059,-0.138209 z m -0.0014,0.654399 c -0.04096,0.0015 -0.0975,0.03337 -0.172492,0.0938 -0.10934,0.0881 -0.129739,0.139563 -0.132472,0.334454 -0.0018,0.126691 -6e-4,0.256284 0.0025,0.287957 0.01088,0.10855 0.183739,0.05762 0.284448,-0.08382 0.06904,-0.09696 0.102645,-0.21599 0.106828,-0.378589 0.0045,-0.174506 -0.0206,-0.256314 -0.08888,-0.25381 z"/>
 <path style="fill:#cf1717" d="m 10.073241,10.710938 c -0.0097,0.351236 -0.07166,0.540004 -0.295898,0.969726 -0.13385,0.256508 -0.2096416,0.497511 -0.3398436,1.082032 -0.1336815,0.600141 0.028635,0.81886 0.4130856,0.557617 0.13739,-0.09336 0.191483,-0.113168 0.227539,-0.05762 v -2.551758 z m -0.213867,3.665039 c -0.01847,0.06813 -0.03744,0.138957 -0.06152,0.198242 -0.132762,0.326728 -0.139662,0.486142 -0.04785,1.007812 0.07719,0.438578 0.156801,0.615754 0.316406,0.701172 0.101097,0.05411 0.155617,0.049 0.185547,-0.02149 0.01275,-0.787467 0.03827,-1.560933 -0.392578,-1.885742 z m -0.08203,5.21582 C 9.5054974,19.852729 9.0899219,20.294538 8.8359369,20.608398 8.5397244,20.97444 8.4031454,21.29787 8.3603509,21.735351 8.3362084,21.982117 8.3413414,22 8.4316399,22 c 0.053314,0 0.170853,-0.06573 0.261719,-0.145508 0.124396,-0.109222 0.1779285,-0.131642 0.2177735,-0.0918 0.165422,0.165422 0.445184,-0.07251 0.3203125,-0.272461 -0.08224,-0.131687 -0.069589,-0.164598 0.091797,-0.231445 0.080974,-0.03354 0.2179975,-0.122007 0.3037101,-0.197266 0.06366,-0.0559 0.09896,-0.0803 0.135743,-0.09473 -0.05459,-0.458313 -0.07563,-0.916676 0.01465,-1.375 z"/>
 <path style="opacity:0.2;fill:#ffffff" d="m 12.143554,4.5789517 c -0.104901,0 -0.192183,0.2365337 -0.21582,0.5869141 -0.03665,0.5433064 -0.222754,0.8543954 -0.497071,0.5800784 -0.05436,-0.054364 -0.08373,-0.119161 -0.100586,-0.1933595 -0.0012,0.040255 0.0026,0.062415 -0.0049,0.133789 -0.02721,0.26037 -0.02163,0.4324705 0.105469,0.5595705 0.274317,0.274317 0.46042,-0.03677 0.49707,-0.5800785 0.02364,-0.3503805 0.11092,-0.586914 0.21582,-0.586914 0.0088,0 0.01736,2.816e-4 0.02637,9.75e-4 0.0023,-3.399e-4 0.0042,-9.75e-4 0.0068,-9.75e-4 0.0048,0 0.0094,8.4e-4 0.01367,0.00293 0.286997,0.037829 0.658786,0.555254 0.786133,0.9394535 0.09123,0.2752465 0.10043,0.436194 0.300782,0.4873045 0.137256,0.03501 0.323606,0.039705 0.552734,0.01465 0.532477,-0.058225 0.557344,-0.057821 0.838867,0.00683 0.24135,0.055431 0.266469,0.07287 0.290039,0.203125 0.01419,0.078409 0.02993,0.709674 0.03515,1.769531 0.0018,0.356878 0.0021,0.5549755 0.003,0.792969 0.0045,-0.286639 3.1e-5,-0.6924165 -0.003,-1.292969 -0.0052,-1.059857 -0.02096,-1.6911225 -0.03515,-1.769531 -0.02357,-0.1302545 -0.04869,-0.147694 -0.290039,-0.203125 -0.281523,-0.064657 -0.30639,-0.065061 -0.838867,-0.00683 -0.229128,0.025055 -0.415478,0.02036 -0.552734,-0.01465 -0.200299,-0.051111 -0.209496,-0.2120585 -0.300729,-0.487305 -0.127347,-0.3841995 -0.499137,-0.9016245 -0.786133,-0.9394533 -0.0042,-0.00209 -0.0089,-0.00293 -0.01367,-0.00293 -0.0026,0 -0.0045,6.35e-4 -0.0068,9.75e-4 -0.009,-6.95e-4 -0.01756,-9.75e-4 -0.02636,-9.75e-4 z m -1.333984,0.091797 c -0.07809,0 -0.428918,0.5823107 -0.623047,0.9179686 -0.131893,0.228049 -0.151185,0.2422335 -0.447266,0.3203125 -0.2293516,0.060482 -0.4461506,0.078784 -0.8359371,0.069336 -0.659957,-0.015995 -0.803333,0.00889 -0.869141,0.1533205 -0.023365,0.051273 -0.03086,0.374245 -0.030275,0.8808595 0.00475,-0.2207355 0.014475,-0.346181 0.030275,-0.3808595 0.065808,-0.1444325 0.209184,-0.1693155 0.869141,-0.1533205 0.3897865,0.00945 0.6065855,-0.00886 0.8359371,-0.069336 0.296081,-0.078079 0.315373,-0.092263 0.447266,-0.3203125 0.194129,-0.335658 0.544955,-0.9179686 0.623047,-0.9179686 0.03614,0 0.07907,0.020561 0.09473,0.045899 0.01566,0.025338 0.07878,0.046875 0.140625,0.046875 0.06185,0 0.112305,0.019338 0.112305,0.042968 0,0.023631 0.04463,0.056104 0.09863,0.073242 0.0335,0.010631 0.05255,0.024519 0.06543,0.045898 -0.003,-0.073221 -0.006,-0.1448953 0.0039,-0.2392578 0.02646,-0.2532007 0.02097,-0.2779758 -0.06934,-0.3066406 -0.054,-0.017138 -0.09863,-0.049611 -0.09863,-0.073242 0,-0.023631 -0.05045,-0.042969 -0.112304,-0.042969 -0.06185,0 -0.124965,-0.021536 -0.140625,-0.046875 -0.01566,-0.025338 -0.05859,-0.045898 -0.09473,-0.045898 z m 2.432617,6.2099613 c -0.0049,0.05228 -0.0118,0.09234 -0.01172,0.188476 3.68e-4,0.457436 0.03848,0.23674 0.39746,0.99722 0.05997,0.127055 0.109375,0.251193 0.109375,0.276368 0,0.02517 0.05333,0.145796 0.118165,0.267578 0.0046,0.0087 0.0064,0.01669 0.01074,0.02539 0.126158,-0.03296 0.12331,-0.273572 -0.01074,-0.525391 -0.06483,-0.121782 -0.118165,-0.242402 -0.118165,-0.267578 0,-0.02517 -0.0494,-0.149313 -0.109375,-0.276367 -0.27143,-0.575005 -0.358803,-0.375925 -0.385742,-0.685697 z m -3.172852,-0.174655 c -0.02046,0.327064 -0.09215,0.591631 -0.291992,0.974609 -0.13385,0.256508 -0.2096416,0.497511 -0.3398436,1.082032 -0.059131,0.265458 -0.057061,0.45186 -0.00684,0.55957 0.00435,-0.0225 0.00155,-0.03588 0.00684,-0.05957 0.130202,-0.584522 0.2059936,-0.825524 0.3398436,-1.082032 0.273617,-0.524358 0.310608,-0.82434 0.298828,-1.371093 -0.0011,-0.05265 -0.0054,-0.05879 -0.0068,-0.103517 z m 3.041016,2.521484 -0.08008,0.15625 0.08301,0.354492 c 0.04533,0.194759 0.113001,0.407111 0.150391,0.47168 0.0078,0.01347 0.0069,0.03309 0.0127,0.04687 0.0024,-0.01737 0.0067,-0.03132 0.0088,-0.04883 0.03787,-0.31331 0.03445,-0.401453 -0.02149,-0.498047 -0.03739,-0.06457 -0.105066,-0.276921 -0.150391,-0.47168 z m -3.070313,0.50293 c -0.0092,-0.0015 -0.02434,0.0058 -0.03613,0.0088 -0.05597,0.113121 -0.09082,0.227503 -0.09082,0.344726 0,0.114332 -0.05157,0.33356 -0.115234,0.490235 -0.108937,0.268095 -0.129337,0.434102 -0.08399,0.769531 0.01792,-0.08421 0.04318,-0.169121 0.08399,-0.269531 0.06366,-0.156675 0.115234,-0.375903 0.115234,-0.490235 0,-0.138076 0.03951,-0.272717 0.117188,-0.405273 0.08111,-0.138407 0.107359,-0.234939 0.08691,-0.316406 -0.02096,-0.08351 -0.0397,-0.12594 -0.07715,-0.131836 z m 3.087891,1.501953 c -0.128526,0.232472 -0.03339,0.619347 0.232422,0.878906 0.132796,0.129672 0.200663,0.249798 0.259765,0.459961 0.04019,0.142913 0.08575,0.28552 0.111329,0.356445 0.05927,-0.110788 0.06754,-0.320724 0.01074,-0.46582 -0.02279,-0.0582 -0.07803,-0.234 -0.122071,-0.390625 -0.0591,-0.210163 -0.126968,-0.330289 -0.259763,-0.459961 -0.112802,-0.110148 -0.184733,-0.244173 -0.232422,-0.378906 z m -2.666992,0.724609 c -0.01323,0.04702 -0.02165,0.09481 -0.04199,0.139648 -0.09851,0.217086 -0.108729,0.442406 -0.04004,0.617188 0.01231,-0.03924 0.0224,-0.07831 0.04004,-0.117188 0.10445,-0.230187 0.110602,-0.502256 0.04199,-0.639648 z m 2.487304,0.773438 c -0.03664,-6e-4 -0.01376,0.134789 0.07324,0.407226 0.03784,0.1185 0.06253,0.220184 0.08105,0.314453 0.03609,-0.170852 0.03918,-0.330772 -0.0039,-0.53125 -0.07024,-0.112704 -0.126883,-0.190043 -0.150391,-0.190429 z m -2.5625,0.501953 c -0.07578,0.253706 -0.06852,0.34953 0.0332,0.376953 0.04972,-0.162322 0.0521,-0.212292 -0.01269,-0.325196 -0.0091,-0.01578 -0.01311,-0.03481 -0.02051,-0.05176 z m 2.936524,0.05664 c -0.03744,0.03961 -0.05441,0.1074 -0.0293,0.172852 0.04246,0.11064 0.132416,0.08406 0.157226,-0.01953 -0.04106,-0.03747 -0.08369,-0.0879 -0.12793,-0.153321 z m 0.126953,0.660157 c -0.02712,0.09795 -0.114694,0.120985 -0.15625,0.0127 -0.0015,-0.0039 -7.5e-4,-0.0078 -0.0019,-0.01172 -0.02321,0.01458 -0.04591,0.02991 -0.07422,0.05273 -0.109341,0.0881 -0.13008,0.14007 -0.132813,0.334961 -0.0018,0.126691 -2.2e-4,0.255436 0.003,0.287109 0.0016,0.01614 0.01249,0.02193 0.02051,0.03125 0.01789,-0.05855 0.04779,-0.103695 0.109375,-0.15332 0.07499,-0.06043 0.13091,-0.09225 0.171875,-0.09375 0.01512,-5.5e-4 0.02803,0.0039 0.03907,0.01172 0.02776,-0.07347 0.04716,-0.154872 0.0498,-0.257813 0.0028,-0.106062 -0.0061,-0.174407 -0.02832,-0.213867 z m -3.094727,0.121093 c -0.0019,0.004 -9.5e-4,0.0037 -0.003,0.0078 -0.199448,0.416178 -0.208881,0.628012 -0.03907,0.59668 0.015,-0.03442 0.02097,-0.05894 0.03907,-0.09668 0.187,-0.390203 0.192878,-0.435208 0.06836,-0.467773 -0.02902,-0.0076 -0.0508,-0.02053 -0.06543,-0.04004 z m 2.582032,0.751953 c -0.01872,0.105268 -0.03334,0.222666 -0.05274,0.28711 l -0.06348,0.211914 h 0.08203 c 0.0097,-0.0054 0.01667,-0.0047 0.02735,-0.01172 0.0945,-0.06192 0.115056,-0.06198 0.164063,-0.0029 0.03077,0.03707 0.100408,0.06738 0.155273,0.06738 0.115161,0 0.388218,-0.220157 0.399414,-0.322266 0.02366,-0.215848 -0.04599,-0.270633 -0.199219,-0.178711 -0.01758,0.06367 -0.04297,0.119566 -0.07813,0.168946 -0.100709,0.141432 -0.2733,0.191558 -0.284179,0.08301 -0.0016,-0.01583 -0.0015,-0.09136 -0.002,-0.143554 -0.0029,-0.0113 -0.0063,-0.01026 -0.0088,-0.02246 -0.02156,-0.107769 -0.05192,-0.136095 -0.139649,-0.136719 z m -2.435547,0.286133 c -0.0082,-0.0079 -0.03106,0.0018 -0.07324,0.02441 -0.08433,0.04513 -0.143373,0.05468 -0.182618,0.03809 -0.0023,0.0031 -0.0026,0.0047 -0.0049,0.0078 -0.07869,0.107688 -0.171057,0.195313 -0.205078,0.195313 -0.07522,0 -0.8249851,0.771918 -1.1992186,1.234375 -0.2962125,0.366042 -0.4327915,0.689471 -0.475586,1.126953 -0.02046,0.209105 -0.016465,0.251902 0.039065,0.260742 0.065673,-0.322035 0.1975375,-0.592371 0.4365235,-0.887695 0.3742335,-0.462457 1.1239971,-1.234375 1.1992181,-1.234375 0.03402,0 0.126384,-0.08762 0.205079,-0.195313 0.139818,-0.191331 0.178774,-0.269197 0.24707,-0.488281 0.01514,-0.04856 0.02189,-0.07414 0.01367,-0.08203 z"/>
</svg>
