<svg xmlns="http://www.w3.org/2000/svg" width="24" height="24" version="1">
 <g transform="translate(1,1)">
  <path fill="#e03c3b" d="m18.391 0.50036a7.4998 7.6928 0 0 1 -2.1249 4.2019c-1.48-1.0672-3.294-1.702-5.266-1.702-1.9737 0-3.7907 0.6362-5.2711 1.706a7.4998 7.6928 0 0 1 -2.1191 -4.1561 7.4998 7.6928 0 0 0 -0.1094 1.2577 7.4998 7.6928 0 0 0 1.051 3.9093c-1.5783 1.6195-2.551 3.8324-2.551 6.2828 0 4.9859 4.0139 8.9998 8.9998 8.9998 4.986 0 9-4.014 9-9 0-2.4504-0.972-4.6633-2.551-6.2828a7.4998 7.6928 0 0 0 1.051 -3.9093 7.4998 7.6928 0 0 0 -0.109 -1.3075z"/>
  <g transform="translate(-1 -1.5)">
   <g opacity=".2" transform="matrix(.49999 0 0 .49999 .00052499 .50039)">
    <path d="m23 29.666c-1.9236 3.1883-6.184 4.2806-9.5158 2.4399-3.332-1.841-4.4732-5.918-2.55-9.106z"/>
    <path d="m25 29.666c1.9236 3.1883 6.184 4.2806 9.5158 2.4399 3.332-1.841 4.473-5.918 2.55-9.106z"/>
   </g>
   <path fill="#fff" d="m11.5 14.833c-0.96178 1.5941-3.0919 2.1402-4.7578 1.2199-1.666-0.92048-2.2365-2.9589-1.275-4.5529z"/>
   <path fill="#fff" d="m12.5 14.833c0.96178 1.5941 3.0919 2.1402 4.7578 1.2199 1.666-0.92048 2.2364-2.9589 1.275-4.5529z"/>
   <path fill="#2c2c2c" d="m8.3998 13.12c-0.34249 0.88398-0.194 2.0024 0.57999 3.3429 0.002-0.0005 0.004 0 0.006 0-0.432-0.979-0.372-2.053 0.0605-2.985l-0.6465-0.358z"/>
   <path fill="#2c2c2c" d="m15.601 13.12-0.64648 0.35749c0.43249 0.93198 0.49249 2.006 0.0605 2.9854 0.002 0 0.004-0.0005 0.006 0 0.77398-1.3405 0.92248-2.4589 0.57999-3.3429z"/>
  </g>
  <path fill="#fff" opacity=".2" d="m18.391 0.50036a7.4998 7.6928 0 0 1 -2.1249 4.2019c-1.48-1.0672-3.294-1.702-5.266-1.702-1.974 0-3.7909 0.63623-5.2714 1.706a7.4998 7.6928 0 0 1 -2.119 -4.1561 7.4998 7.6928 0 0 0 -0.1094 1.2578 7.4998 7.6928 0 0 0 0.01075 0.21194 7.4998 7.6928 0 0 1 0.098648 -0.96973 7.4998 7.6928 0 0 0 2.119 4.1561c1.4807-1.0695 3.2977-1.706 5.2714-1.706 1.9715 0 3.7859 0.63498 5.2654 1.702a7.4998 7.6928 0 0 0 2.1249 -4.2019 7.4998 7.6928 0 0 1 0.0995 1.1181 7.4998 7.6928 0 0 0 0.01 -0.31054 7.4998 7.6928 0 0 0 -0.1095 -1.3076zm-0.77798 5.4004a7.4998 7.6928 0 0 1 -0.164 0.3164c1.524 1.5635 2.474 3.6824 2.539 6.0318 0.002-0.083 0.012-0.165 0.012-0.249 0-2.3619-0.909-4.4973-2.387-6.0993zm-13.227 0.004c-1.4771 1.6014-2.3856 3.7353-2.3856 6.0952 0 0.084 0.01045 0.1655 0.0127 0.24899 0.0645-2.3494 1.0146-4.4683 2.5383-6.0318a7.4998 7.6928 0 0 1 -0.166 -0.3125z"/>
  <path opacity=".2" d="m3.5112 2.0199a7.4998 7.6928 0 0 0 -0.01075 0.28804 7.4998 7.6928 0 0 0 0.88498 3.5968c0.0565-0.0615 0.1075-0.128 0.166-0.1875a7.4998 7.6928 0 0 1 -1.0402 -3.6973zm14.979 0.0986a7.4998 7.6928 0 0 1 -1.041 3.5988c0.0575 0.058498 0.108 0.123 0.1635 0.1835a7.4998 7.6928 0 0 0 0.88748 -3.5928 7.4998 7.6928 0 0 0 -0.01 -0.18945zm-16.477 10.13c-0.0023 0.084-0.0127 0.167-0.0127 0.251 0 4.986 4.0139 9 9 9 4.9859 0 8.9998-4.0139 8.9998-8.9998 0-0.0845-0.0105-0.167-0.0125-0.25099-0.1325 4.8689-4.0854 8.7508-8.9873 8.7508s-8.8548-3.8819-8.9873-8.7508z"/>
 </g>
</svg>
