<svg xmlns="http://www.w3.org/2000/svg" width="24" height="24" version="1">
 <path style="opacity:0.2" d="M 11.978655,8.1768319 C 9.947295,8.1768319 8.3,9.824128 8.3,11.855488 c 0,0.549966 0.1234486,1.092754 0.3605502,1.588512 0.2109739,-1.67212 1.6329278,-2.926204 3.3181048,-2.926204 1.68518,0 3.107131,1.254084 3.318107,2.926204 0.237098,-0.496413 0.36055,-1.038545 0.36055,-1.588512 0,-2.03136 -1.647295,-3.6786561 -3.678657,-3.6786561 z m 0,0"/>
 <path style="opacity:0.2" d="M 17.333008,11.166992 V 16.5 H 16 v 5.053711 c 2.960746,-1.47362 5,-4.52187 5,-8.053711 v -2.333008 z"/>
 <path style="opacity:0.2" d="M 3,11.166665 V 13.5 c 0,2.38672 0.9479165,4.67643 2.6360675,6.36393 C 7.3235675,21.552085 9.6132815,22.5 12,22.5 h 9 L 20.5,22 21,21.5 20.5,21 21,20.5 h -9 v -4 H 6.6666665 v -5.333335 z m 0,0"/>
 <path style="fill:#8c8c8c" d="M 17.333333,10.666665 V 16 H 12 v 6 c 4.970703,0 9,-4.029295 9,-9 v -2.333335 z m 0,0"/>
 <path style="fill:#adaca9" d="M 3,10.666665 V 13 c 0,2.38672 0.9479165,4.67643 2.6360675,6.36393 C 7.3235675,21.052085 9.6132815,22 12,22 h 9 L 20.5,21.5 21,21 20.5,20.5 21,20 H 12 V 16 H 6.6666665 v -5.333335 z m 0,0"/>
 <path style="fill:#e4e4e4" d="M 11.972005,2 C 7.01237,2.014974 3,6.040365 3,11 c 0,4.970705 4.029297,9 9,9 4.970703,0 9,-4.029295 9,-9 C 21,6.029297 16.970703,2 12,2 11.9909,2 11.98177,2 11.972,2 Z M 12,7.3333335 c 2.024739,0 3.666667,1.641927 3.666667,3.6666665 0,2.02474 -1.641928,3.666665 -3.666667,3.666665 C 9.9752605,14.666665 8.3333335,13.02474 8.3333335,11 8.3333335,8.9752605 9.9752605,7.3333335 12,7.3333335 Z m 0,0"/>
 <path style="fill:#9b7656" d="M 11.978655,7.717 C 9.947295,7.717 8.3,9.3642964 8.3,11.395655 c 0,0.549966 0.1234486,1.092759 0.3605502,1.588512 0.2109739,-1.672119 1.6329278,-2.926204 3.3181048,-2.926204 1.68518,0 3.107131,1.254085 3.318107,2.926204 0.237098,-0.496413 0.36055,-1.038545 0.36055,-1.588512 0,-2.0313586 -1.647295,-3.678655 -3.678657,-3.678655 z m 0,0"/>
 <path style="fill:none;stroke:#ccab8f;stroke-width:0.92307693;stroke-linecap:round;stroke-linejoin:round" d="m 15.538461,10.999999 c 0,1.954326 -1.584134,3.538463 -3.538461,3.538463 -1.954326,0 -3.5384614,-1.584138 -3.5384614,-3.538463 0,-1.9543275 1.5841354,-3.5384615 3.5384614,-3.5384615 1.954327,0 3.538461,1.584134 3.538461,3.5384615 z m 0,0"/>
 <path style="opacity:0.2;fill:#ffffff" d="M 11.97168,2 C 7.0120445,2.014974 3,6.040365 3,11 3,11.08377 3.010422,11.164827 3.012695,11.248047 3.1471084,6.4058855 7.097125,2.5147172 11.97168,2.5 H 12 c 4.886275,0 8.85363,3.8960365 8.987304,8.75 C 20.989614,11.166131 21,11.084428 21,11 21,6.029297 16.970703,2 12,2 Z"/>
</svg>
