<svg xmlns="http://www.w3.org/2000/svg" width="24" height="24" version="1">
 <rect style="opacity:0.2" width="3" height="14" x="11" y="5.5" rx=".5" ry=".5"/>
 <rect style="opacity:0.2" width="3" height="14" x="19" y="5.5" rx=".5" ry=".5"/>
 <rect style="fill:#c2352a" width="3" height="14" x="19" y="5" rx=".5" ry=".5"/>
 <rect style="fill:#c2352a" width="3" height="14" x="11" y="5" rx=".5" ry=".5"/>
 <rect style="fill:#c2352a" width="3" height="14" x="2" y="5" rx=".5" ry=".5"/>
 <path style="opacity:0.2" d="M 2.5,5.5 C 2.223,5.5 2,5.723 2,6 l 0,2 c 0,0.277 0.223,0.5 0.5,0.5 l 6,0 C 8.777,8.5 9,8.277 9,8 L 9,6 C 9,5.723 8.777,5.5 8.5,5.5 l -6,0 z m 9.215821,0 a 0.71620575,0.589535 0 0 0 -0.620118,0.883789 l 2.392578,3.4101565 2.392579,3.4111325 a 0.71620575,0.589535 0 0 0 0.585937,0.293946 0.71620575,0.589535 0 0 0 0.65332,-0.293946 L 19.512695,9.7939455 21.904297,6.383789 A 0.71620575,0.589535 0 0 0 21.284179,5.5 L 16.5,5.5 11.715821,5.5 Z M 2.5,16.5 C 2.223,16.5 2,16.723 2,17 l 0,2 c 0,0.277 0.223,0.5 0.5,0.5 l 6,0 C 8.777,19.5 9,19.277 9,19 L 9,17 C 9,16.723 8.777,16.5 8.5,16.5 l -6,0 z"/>
 <rect style="fill:#d8564d" width="3" height="7" x="5" y="-9" rx=".5" ry=".5" transform="matrix(0,1,-1,0,0,0)"/>
 <rect style="fill:#d8564d" width="3" height="7" x="16" y="-9" rx=".5" ry=".5" transform="matrix(0,1,-1,0,0,0)"/>
 <path style="fill:#d8564d" d="m 11.715982,5 a 0.71620575,0.589535 0 0 0 -0.62009,0.8842145 l 2.392708,3.410211 2.391775,3.4102105 a 0.71620575,0.589535 0 0 0 0.586523,0.294739 0.71620575,0.589535 0 0 0 0.653658,-0.294739 l 2.391776,-3.4102105 2.391776,-3.410211 A 0.71620575,0.589535 0 0 0 21.284018,5 l -4.783552,0 -4.784484,0 z"/>
 <path style="opacity:0.2;fill:#ffffff" d="M 2.5,5 C 2.223,5 2,5.223 2,5.5 L 2,6 C 2,5.723 2.223,5.5 2.5,5.5 l 6,0 C 8.777,5.5 9,5.723 9,6 L 9,5.5 C 9,5.223 8.777,5 8.5,5 l -6,0 z m 9.215821,0 A 0.71620575,0.589535 0 0 0 11.06836,5.839844 0.71620575,0.589535 0 0 1 11.715821,5.5 l 4.784179,0 4.784179,0 A 0.71620575,0.589535 0 0 1 21.93164,5.839844 0.71620575,0.589535 0 0 0 21.284179,5 L 16.5,5 11.715821,5 Z M 2.5,16 C 2.223,16 2,16.223 2,16.5 L 2,17 c 0,-0.277 0.223,-0.5 0.5,-0.5 l 6,0 C 8.777,16.5 9,16.723 9,17 L 9,16.5 C 9,16.223 8.777,16 8.5,16 l -6,0 z"/>
</svg>
