<svg xmlns="http://www.w3.org/2000/svg" width="24" height="24" version="1">
 <rect style="fill:#2ba798" width="20" height="20" x="2" y="2" rx="10" ry="10"/>
 <path style="opacity:0.2;fill:#ffffff" d="M 12,2 C 6.46,2 2,6.46 2,12 2,12.084 2.004,12.1665 2.00585,12.25 2.1382,6.827 6.544,2.5 11.99985,2.5 c 5.45585,0 9.862,4.32695 9.994,9.75 0.002,-0.08343 0.0059,-0.166065 0.0059,-0.25 0,-5.54 -4.46,-10 -10,-10 z"/>
 <path style="opacity:0.2" d="M 2.00585,12.25 C 2.0038,12.3335 2,12.416 2,12.5 c 0,5.54 4.46,10 10,10 5.54,0 10,-4.46 10,-10 0,-0.084 -0.004,-0.1665 -0.006,-0.25 C 21.862,17.673 17.456,22 12,22 6.544,22 2.138,17.673 2.006,12.25 Z"/>
 <path style="opacity:0.1" d="M 13.782276,18.399916 C 11.591102,17.927944 9.9412822,16.567789 9.2283672,14.404797 9.0445963,13.84724 8.9802073,12.934317 9.0898442,12.440818 9.4858788,10.658179 11.49582,10.01692 14.046191,10.859519 c 0.946582,0.312737 2.333965,1.059308 2.333965,1.255941 0,0.09989 -0.17501,0.193384 -0.694138,0.370826 L 15.310025,12.6148 14.789421,12.35729 c -2.014213,-0.996304 -3.819008,-0.73585 -4.223254,0.609457 -0.176296,0.586703 -0.07622,1.219791 0.318942,2.017734 0.800467,1.616353 2.214264,2.27336 3.828836,2.197069 0.456759,-0.02158 0.557671,-0.04864 1.016913,-0.272678 0.64962,-0.316917 1.293915,-0.927485 1.57085,-1.488625 0.724185,-1.467376 0.30821,-3.078698 -1.19884,-4.643818 -1.752615,-1.8201398 -4.39687,-3.0251153 -6.630043,-3.0212808 -1.073649,0.00175 -1.693654,0.212993 -2.2546695,0.7678515 -0.550404,0.544364 -0.763347,1.2138745 -0.7027385,2.2094753 0.1324235,2.175326 1.3948875,4.456739 3.48402,6.296017 0.394382,0.347213 0.717055,0.667639 0.717055,0.712055 0,0.15085 -0.212537,0.08149 -0.728697,-0.237797 C 8.2071555,16.401276 6.794553,14.869278 5.860959,13.027112 5.1229155,11.570805 4.8474856,10.159351 5.0808325,9.0293182 5.2589365,8.1668052 5.686501,7.5107597 6.356484,7.0685557 c 1.465757,-0.9170345 3.882727,-0.537435 5.189319,-0.1572015 2.789854,0.834236 5.28021,2.5473225 6.589395,4.5000368 1.353695,1.913693 1.006545,4.428833 -0.269555,5.754418 -0.63771,0.630139 -1.057755,0.90878 -1.70917,1.133776 -0.647735,0.223729 -1.612109,0.264481 -2.374197,0.100331 z"/>
 <path style="fill:#3f3f3f" d="M 13.782276,17.899916 C 11.591102,17.427944 9.9412822,16.067789 9.2283672,13.904797 9.0445963,13.34724 8.9802073,12.434317 9.0898442,11.940818 9.4858788,10.158179 11.49582,9.5169187 14.046191,10.359519 c 0.946582,0.312737 2.333965,1.059308 2.333965,1.255941 0,0.09989 -0.17501,0.193384 -0.694138,0.370826 L 15.310025,12.1148 14.789421,11.85729 c -2.014213,-0.996304 -3.819008,-0.73585 -4.223254,0.609457 -0.176296,0.586703 -0.07622,1.219791 0.318942,2.017734 0.800467,1.616353 2.214264,2.27336 3.828836,2.197069 0.456759,-0.02158 0.557671,-0.04864 1.016913,-0.272678 0.64962,-0.316917 1.293915,-0.927485 1.57085,-1.488625 0.724185,-1.467376 0.30821,-3.078698 -1.19884,-4.643818 C 14.350253,8.456288 11.705998,7.2513125 9.472825,7.255147 8.399176,7.256897 7.779171,7.46814 7.2181555,8.0229985 6.6677515,8.5673625 6.4548085,9.236873 6.515417,10.232475 c 0.1324235,2.175326 1.3948875,4.456739 3.48402,6.296017 0.394382,0.347213 0.717055,0.667639 0.717055,0.712055 0,0.15085 -0.212537,0.08149 -0.728697,-0.237797 C 8.2071555,15.901276 6.794553,14.369278 5.860959,12.527112 5.1229155,11.070805 4.8474856,9.65935 5.0808325,8.529317 5.2589365,7.666804 5.686501,7.0107585 6.356484,6.5685545 7.822241,5.65152 10.239211,6.0311195 11.545803,6.411353 c 2.789854,0.834236 5.28021,2.5473225 6.589395,4.500038 1.353695,1.913693 1.006545,4.428833 -0.269555,5.754418 -0.63771,0.630139 -1.057755,0.90878 -1.70917,1.133776 -0.647735,0.223729 -1.612109,0.264481 -2.374197,0.100331 z"/>
</svg>
