<svg xmlns="http://www.w3.org/2000/svg" width="24" height="24" version="1.1">
 <path style="opacity:0.2" d="M 2.7421326,7.695195 A 1.2076346,1.0429572 75 0 0 2.0473418,9.1314745 L 5.380969,21.572742 a 1.2076346,1.0429572 75 0 0 1.319846,0.896459 C 10.212287,21.528304 12.190616,17.43868 11.101158,13.372766 10.011699,9.3068525 6.2536035,6.754299 2.7421326,7.695195 Z"/>
 <path style="fill:#79b444" d="M 2.7421326,7.1951955 A 1.2076346,1.0429572 75 0 0 2.0473418,8.631475 L 5.380969,21.072742 a 1.2076346,1.0429572 75 0 0 1.319846,0.896459 C 10.212287,21.028305 12.190616,16.93868 11.101158,12.872767 10.011699,8.806853 6.2536035,6.2542995 2.7421326,7.1951955 Z"/>
 <path style="opacity:0.2" d="m 4.9453125,10.083789 c -0.01858,-0.0039 -0.036105,0.0046 -0.054687,0.001 L 7.3671875,19.325 C 8.598254,18.248564 9.2822815,16.242735 8.6865235,14.019336 8.0976525,11.82164 6.5308035,10.4217 4.9453125,10.083789 Z"/>
 <path style="fill:#ffffff" d="m 4.9453125,9.5839845 c -0.01858,-0.00395 -0.036105,0.00465 -0.054687,10e-4 l 2.4765625,9.2402345 c 1.2310665,-1.076436 1.915094,-3.082265 1.319336,-5.305665 -0.588871,-2.197695 -2.15572,-3.597635 -3.741211,-3.935546 z"/>
 <path style="opacity:0.2;fill:#ffffff" d="M 4.0644531,7.001953 C 3.6235061,7.014263 3.1811213,7.0777005 2.7421875,7.1953125 A 1.2076346,1.0429572 75 0 0 2.024414,8.529297 1.2076346,1.0429572 75 0 1 2.7421875,7.6953125 c 3.511471,-0.940896 7.2699155,1.6118205 8.3593745,5.6777345 0.18066,0.67423 0.269145,1.347721 0.288086,2.008789 0.02493,-0.818912 -0.06157,-1.663413 -0.288086,-2.508789 C 10.148286,9.315372 7.1510825,6.9157895 4.0644531,7.001953 Z"/>
 <path style="opacity:0.2" d="M 11.140214,2.5006916 A 1.1786974,1.3044885 0 0 0 10,3.8042005 L 10,21.195642 A 1.1786974,1.3044885 0 0 0 11.178579,22.5 l 8.642917,0 a 1.1786974,1.3044885 0 0 0 1.032792,-1.93276 L 12.211371,3.1757987 A 1.1786974,1.3044885 0 0 0 11.140214,2.5006916 Z"/>
 <path style="fill:#35aabd" d="M 11.140214,2.0006916 A 1.1786974,1.3044885 0 0 0 10,3.3042006 L 10,20.695642 A 1.1786974,1.3044885 0 0 0 11.178579,22 l 8.642917,0 a 1.1786974,1.3044885 0 0 0 1.032792,-1.93276 L 12.211371,2.6757989 A 1.1786974,1.3044885 0 0 0 11.140214,2.0006916 Z"/>
 <path style="opacity:0.2;fill:none;stroke:#000000;stroke-width:2;stroke-linejoin:round" d="m 16,13.499988 c 0,0 -3,0 -3,1 0,1 3,2.999999 3,3.999999 0,1 -3,1 -3,1"/>
 <path style="fill:none;stroke:#ffffff;stroke-width:2;stroke-linejoin:round" d="m 16,12.999987 c 0,0 -3,0 -3,1 0,1 3,3 3,4 0,1 -3,1 -3,1"/>
 <path style="opacity:0.2;fill:#ffffff" d="M 11.140625,2.0009765 A 1.1786974,1.3044885 0 0 0 10,3.3046875 l 0,0.5 a 1.1786974,1.3044885 0 0 1 1.140625,-1.303711 1.1786974,1.3044885 0 0 1 1.070312,0.6748048 l 8.643555,17.3916017 a 1.1786974,1.3044885 0 0 1 0.12207,0.378906 1.1786974,1.3044885 0 0 0 -0.12207,-0.878906 L 12.210937,2.6757813 A 1.1786974,1.3044885 0 0 0 11.140625,2.0009765 Z"/>
</svg>
