<svg width="24" height="24" version="1.1" xmlns="http://www.w3.org/2000/svg">
 <path d="m5.3203125 2.4976963c-2.3879163 0.1218212-4.0106247 2.8461844-2.9804687 5.0039062l5.9824218 12.964844-0.0761718-0.181641c0.3383404 0.879665 1.2050398 1.759796 2.1562502 2.074219 0.95121 0.314423 1.840183 0.187099 2.576172-0.152344 0.735988-0.339442 1.410696-0.933696 1.789062-1.861328 0.378367-0.927632 0.271707-2.15595-0.177734-2.984375l0.08789 0.171875-2.048828-4.441406c0.852326-0.249255 1.605621-0.559004 2.242188-0.828125 1.11963-0.473346 1.819191-0.663606 1.953125-0.701172a3.0003 3.0003 0 0 0 5.080078-2.8105465s-0.09552-0.1774292-0.09961-0.1933593a3.0003 3.0003 0 0 0-0.121093-2.4003907s-0.411057-0.516318-0.56836-0.7753906l0.0059-0.00391s-0.02301-0.0191-0.02344-0.019531c-0.598399-0.9762602-1.971426-2.8593717-5.097694-2.8593715-3.629544 1e-7 -6.0044849 1.4157318-7.390625 1.4707031a3.0003 3.0003 0 0 0-0.7421875-0.3417969c-0.6853692-0.6829021-1.5382021-1.1773911-2.5351563-1.1308593a3.0003 3.0003 0 0 0-0.011719 0z" style="opacity:.2"/>
 <path d="m5.3203125 1.9980469c-2.3879163 0.1218212-4.0106247 2.8461844-2.9804687 5.0039062l5.9824218 12.964844-0.0761718-0.181641c0.3383404 0.879665 1.2050398 1.759796 2.1562502 2.074219 0.95121 0.314423 1.840183 0.187099 2.576172-0.152344 0.735988-0.339442 1.410696-0.933696 1.789062-1.861328 0.378367-0.927632 0.271707-2.15595-0.177734-2.984375l0.08789 0.171875-2.048828-4.441406c0.852326-0.249255 1.605621-0.559004 2.242188-0.828125 1.11963-0.473346 1.819191-0.663606 1.953125-0.701172a3.0003 3.0003 0 0 0 5.080078-2.8105469s-0.09552-0.1774292-0.09961-0.1933593a3.0003 3.0003 0 0 0-0.121093-2.4003907s-0.411057-0.516318-0.56836-0.7753906l0.0059-0.00391s-0.02301-0.0191-0.02344-0.019531c-0.598399-0.9762602-1.971426-2.8593717-5.097694-2.8593715-3.629544 1e-7 -6.0044849 1.4157318-7.390625 1.4707031a3.0003 3.0003 0 0 0-0.7421875-0.3417969c-0.6853692-0.6829021-1.5382021-1.1773911-2.5351563-1.1308593a3.0003 3.0003 0 0 0-0.011719 0z" style="fill:#f16813"/>
 <path d="m5.4726562 5.49379a0.50005 0.50005 0 0 0-0.4257812 0.7148438l6 12.999999a0.50005 0.50005 0 1 0 0.90625-0.417968l-6-13a0.50005 0.50005 0 0 0-0.4804688-0.296875zm10.527344 0.00586c-2.5 1e-7 -4.95049 1.5-7.5 1.5-1.0000001 0-1.5-0.5-1.5-0.5l1.5 3.4921875s0.5 0.5078125 1.5 0.5078125c2.538591 0 5-2 7-2 1.5 0 2 1 2 1s-0.618037-2.3969939-3-2l-3 0.5s1-1.5 4-1.5c1 0 2 1 2 1s-1-2.0000001-3-2z" style="opacity:.2"/>
 <path d="m5.4726562 4.9941406a0.50005 0.50005 0 0 0-0.4257812 0.7148438l6 13a0.50005 0.50005 0 1 0 0.90625-0.417968l-6-13a0.50005 0.50005 0 0 0-0.4804688-0.296875zm10.527344 0.0058594c-2.5 1e-7 -4.95049 1.5-7.5 1.5-1.0000001 0-1.5-0.5-1.5-0.5l1.5 3.4921875s0.5 0.5078125 1.5 0.5078125c2.538591 0 5-2 7-2 1.5 0 2 1 2 1s-0.618037-2.3969939-3-2l-3 0.5s1-1.5 4-1.5c1 0 2 1 2 1s-1-2.0000001-3-2z" style="fill:#ffffff"/>
 <path d="m5.3203125 1.9980469c-1.9664212 0.1003183-3.4106933 1.9658959-3.2851563 3.8261719 0.1346033-1.6814915 1.4948988-3.2348407 3.2851563-3.3261719a3.0003 3.0003 0 0 1 0.0117187 0c0.9969542-0.0465318 1.8497871 0.4479572 2.5351563 1.1308593a3.0003 3.0003 0 0 1 0.7421875 0.3417969c1.3861401-0.0549713 3.761081-1.470703 7.390625-1.4707031 3.126268-2e-7 4.499257 1.8831148 5.097656 2.859375 4.3e-4 4.31e-4 0.023438 0.0195312 0.023438 0.0195312l-0.00586 0.0039063c0.157303 0.2590726 0.56836 0.7753906 0.56836 0.7753906a3.0003 3.0003 0 0 1 0.300781 1.0898438 3.0003 3.0003 0 0 0-0.300781-1.5898438s-0.411057-0.516318-0.56836-0.7753906l0.00586-0.0039063s-0.023008-0.0191002-0.023438-0.0195312c-0.598399-0.9762602-1.971388-2.8593752-5.097656-2.859375-3.629544 1e-7 -6.0044849 1.4157318-7.390625 1.4707031a3.0003 3.0003 0 0 0-0.7421875-0.3417969c-0.6853692-0.682902-1.5382021-1.1773911-2.5351563-1.1308593a3.0003 3.0003 0 0 0-0.0117187 0zm16.582032 6.25a3.0003 3.0003 0 0 1-0.097656 0.3105469c0.004089 0.0159301 0.099609 0.1933593 0.099609 0.1933593a3.0003 3.0003 0 0 1 0.080078 0.5117188 3.0003 3.0003 0 0 0-0.080078-1.0117188s-0.001878-0.0037659-0.001953-0.0039062zm-9.074219 4.7753911c-0.06941 0.021477-0.128432 0.047658-0.199219 0.068359l2.048828 4.441406-0.08789-0.171875c0.21274 0.392129 0.340714 0.876022 0.384765 1.373047 0.025943-0.666595-0.100526-1.349128-0.384765-1.873047l0.08789 0.171875-1.849609-4.009765z" style="fill:#ffffff;opacity:.2"/>
</svg>
