<svg xmlns="http://www.w3.org/2000/svg" width="24" height="24" version="1.1">
 <path style="opacity:0.2" d="M 12,2.5000014 C 11.137685,3.3572239 10.479881,4.1234421 10.011719,4.7988295 9.1389223,6.0579754 8.8400606,7.4493012 8.7792969,7.8417983 c -0.028608,0.1847883 -0.006,0.6159908 0.140625,1.21875 C 7.526633,7.9176436 5.7658179,7.9560308 3.8261719,8.3183608 3.2115389,8.4332203 2.6031907,8.5385423 2,8.5000014 c 0.3101806,1.1755878 0.6399905,2.0690726 0.9902344,2.8124996 0.6528963,1.386002 1.7082373,2.340771 2.0175781,2.589844 0.2096383,0.168863 0.9089078,0.501481 2.03125,0.697265 -0.1240252,0.0384 -0.2442457,0.08244 -0.3613281,0.132813 C 4.9631602,15.470179 4.2135463,17.101887 3.6875,19.050782 3.5245716,19.654423 3.2961782,19.973115 3,20.500001 c 1.1938944,0.229964 2.199713,0.594907 3.0214844,0.601562 1.5320298,0.01234 2.8503903,-0.524536 3.2089844,-0.695312 0.358594,-0.170775 1.5006982,-1.142731 2.4628902,-3.15625 0.138383,-0.289595 0.196534,-0.568403 0.220703,-0.861328 0.524878,1.364889 1.095532,2.446769 1.591797,3.023437 1.217523,1.414747 2.998703,1.640594 5.015625,1.558594 0.624751,-0.02543 0.887089,0.404566 1.478516,0.529297 -0.138298,-1.207981 0.01919,-2.585092 -0.220703,-3.371094 -0.447215,-1.465354 -1.354612,-2.560604 -1.625,-2.851562 -0.157348,-0.169289 -0.656289,-0.510422 -1.478516,-0.828125 0.468979,-0.08779 0.874766,-0.197605 1.212891,-0.314453 C 19.65281,13.525152 20.519548,11.953725 21.1875,10.04883 21.394372,9.4588114 21.665892,9.0036893 22,8.5000014 20.826236,8.1828422 19.830754,7.8971176 19.011719,7.8300795 17.484731,7.7050649 16.129922,8.1451128 15.759766,8.2890639 15.60372,8.3497455 15.296071,8.543348 14.912109,8.8906264 15.248211,7.0746085 14.327101,5.5451472 13.021484,4.0234389 12.614375,3.5488751 12.268666,3.04141 12,2.5000014 Z"/>
 <path style="fill:#ffb74d" d="m 14.405459,13.372338 c 2.20931,0.314691 3.478272,1.11318 3.748655,1.404083 0.270388,0.290959 1.178126,1.387639 1.625341,2.852995 0.239893,0.786003 0.08225,2.1626 0.220548,3.370582 -0.591428,-0.124731 -0.852873,-0.554033 -1.477624,-0.528599 -2.016924,0.082 -3.799212,-0.143795 -5.016736,-1.558543 -0.811664,-0.943167 -1.824479,-3.233402 -2.505641,-5.912857 1.196226,-0.198745 2.508977,0.244614 3.405457,0.372339 z"/>
 <path style="opacity:0.2;fill:#ffffff" d="M 11.681641,12.94922 C 11.452667,12.94762 11.224292,12.96274 11,13 c 0.04124,0.162228 0.0834,0.32326 0.126953,0.482422 1.161271,-0.149118 2.414484,0.265458 3.279297,0.388672 2.209308,0.31469 3.477664,1.113394 3.748047,1.404297 0.270388,0.290958 1.177785,1.388161 1.625,2.853515 0.206644,0.677065 0.119746,1.793071 0.179687,2.861328 0.01369,0.0033 0.02696,0.0068 0.04102,0.0098 -0.138298,-1.207981 0.01919,-2.585092 -0.220703,-3.371094 -0.447215,-1.465354 -1.354612,-2.560604 -1.625,-2.851562 -0.270383,-0.290903 -1.538739,-1.089606 -3.748047,-1.404297 -0.728389,-0.103777 -1.732392,-0.417025 -2.724609,-0.423828 z"/>
 <path style="fill:#ffb74d" d="M 13.071288,10.755113 C 14.178953,8.8178221 15.389257,7.9329645 15.759467,7.7890008 16.129624,7.6450496 17.483801,7.2059559 19.01079,7.3309707 19.829826,7.3980088 20.826235,7.6828413 22,8.0000008 21.665892,8.5036892 21.395345,8.9578487 21.188473,9.5478674 20.52052,11.452765 19.653122,13.026026 17.888982,13.635641 16.712893,14.042069 14.741725,14.355486 12,14.000001 c 0.256634,-1.185194 0.621849,-2.458773 1.071288,-3.244888 z"/>
 <path style="opacity:0.2;fill:#ffffff" d="m 18.447266,7.3085952 c -1.287221,0.00226 -2.363613,0.3545115 -2.6875,0.4804687 -0.37021,0.1439636 -1.58179,1.0295077 -2.689454,2.9667971 -0.449438,0.786114 -0.813678,2.058947 -1.070312,3.24414 0.03774,0.0049 0.07388,0.009 0.111328,0.01367 0.246873,-1.035723 0.570613,-2.078512 0.958984,-2.757813 1.107664,-1.9372887 2.319244,-2.8228325 2.689454,-2.9667961 0.370156,-0.1439511 1.724965,-0.5820459 3.251953,-0.4570313 0.753393,0.061665 1.663255,0.307872 2.716797,0.59375 C 21.813995,8.2848795 21.904029,8.144684 22,8.0000014 20.826236,7.6828422 19.830754,7.3971176 19.011719,7.3300795 18.820845,7.3144527 18.631154,7.3082718 18.447266,7.3085952 Z"/>
 <path style="fill:#ffb74d" d="M 10.001104,11.154735 C 8.8788153,9.2258621 8.7188728,7.7351307 8.7796371,7.3426327 8.8404009,6.9501352 9.1383972,5.5580517 10.011195,4.2989046 10.479357,3.6235165 11.137683,2.8572233 11.999999,2 12.268665,2.5414091 12.61344,3.0493896 13.02055,3.5239539 14.335018,5.055979 15.262458,6.5945961 14.90684,8.4268676 14.669754,9.64844 13.680591,11.804733 12,13.999999 11.102557,13.184433 10.456475,11.937429 10.001104,11.154735 Z"/>
 <path style="fill:none;stroke:#ffe57f;stroke-linecap:round;stroke-miterlimit:1" d="m 18,19.000001 c -2.850243,-1.950039 -3.304739,-2.473214 -6,-5"/>
 <path style="opacity:0.2;fill:#ffffff" d="M 12,2.0000014 C 11.137685,2.8572239 10.479881,3.6234421 10.011719,4.2988295 9.1389223,5.5579754 8.8400606,6.9493012 8.7792969,7.3417983 c -0.014669,0.09475 -0.015629,0.2552851 0.00586,0.46875 C 8.8543086,7.3865361 9.1567466,6.032261 10.011719,4.7988295 10.479881,4.1234421 11.137685,3.3572238 12,2.5000014 c 0.268666,0.5414086 0.614375,1.0488737 1.021484,1.5234375 1.064009,1.2401124 1.871533,2.485716 1.953125,3.8867187 C 15.081805,6.3014235 14.210309,4.9090253 13.021484,3.5234389 12.614375,3.0488751 12.268666,2.54141 12,2.0000014 Z"/>
 <path style="fill:none;stroke:#ffe57f;stroke-linecap:round;stroke-miterlimit:1" d="m 12,14.000001 c 2.531005,-1.724676 3.847403,-3.576819 7,-4.9999994"/>
 <path style="fill:#ffb74d" d="M 8.9200413,14.253646 C 6.6884242,14.259298 5.3179639,13.651241 5.0086647,13.402101 4.6993236,13.153028 3.6435348,12.198003 2.9906378,10.812 2.6403936,10.068571 2.3101809,9.17559 2,8.000001 2.6031913,8.0385419 3.2121101,7.9338822 3.8267437,7.8190226 5.8110418,7.4483515 7.6072576,7.4159681 9.015251,8.6413203 9.9538547,9.4582161 10.941285,11.446066 12,14.000001 10.844676,14.368427 9.8255055,14.251334 8.9200413,14.253646 Z"/>
 <path style="fill:none;stroke:#ffe57f;stroke-linecap:round;stroke-miterlimit:1" d="M 12,14.000001 C 11.650092,11.014371 11.664708,8.0549687 12,5.0000014"/>
 <path style="opacity:0.2;fill:#ffffff" d="M 5.96875,7.5937514 C 5.2880913,7.5891231 4.5702829,7.6793593 3.8261719,7.8183608 3.2115389,7.9332203 2.6031907,8.0385423 2,8.0000014 2.0461361,8.1748579 2.0936025,8.3411178 2.140625,8.5039076 2.6978468,8.5197047 3.2592149,8.4243108 3.8261719,8.3183608 5.810468,7.94769 7.607633,7.9152754 9.015625,9.1406264 9.8983058,9.9088508 10.824777,11.720327 11.8125,14.056642 11.874746,14.039328 11.936946,14.020108 12,14.000001 10.941286,11.446069 9.9542278,9.4575214 9.015625,8.6406264 8.13563,7.874782 7.1031812,7.6014652 5.96875,7.5937514 Z"/>
 <path style="fill:none;stroke:#ffe57f;stroke-linecap:round;stroke-miterlimit:1" d="m 4.9999999,10.000001 c 2.5807341,1.680937 4.085881,2.873627 7.0000001,4"/>
 <path style="fill:#ffb74d" d="M 11.693675,16.750026 C 10.731482,18.763547 9.589512,19.73503 9.2309176,19.905805 8.8723232,20.076581 7.5540816,20.614078 6.0220502,20.601743 5.200278,20.595087 4.1938971,20.229961 3.0000015,19.999997 3.29618,19.47311 3.5243172,19.154593 3.6872458,18.550952 4.2132926,16.602055 4.9626393,14.969322 6.6772152,14.231565 7.8202359,13.739756 9.2395714,13.847042 12,14.000001 c -0.168764,1.200811 0.08409,1.933001 -0.306325,2.750025 z"/>
 <path style="fill:none;stroke:#ffe57f;stroke-linecap:round;stroke-miterlimit:1" d="m 5,19.000001 c 2.9224097,-1.676789 4.6320105,-2.690511 7,-5"/>
 <path style="opacity:0.2;fill:#ffffff" d="M 9.0585938,13.871095 C 8.0512825,13.86712 7.3206829,13.955781 6.6777344,14.232423 4.9631602,14.970179 4.2135463,16.601887 3.6875,18.550782 3.5245716,19.154423 3.2961782,19.473115 3,20.000001 c 0.086841,0.01673 0.1710018,0.03477 0.2558594,0.05273 0.174328,-0.305457 0.3197441,-0.587379 0.4316406,-1.001949 0.5260463,-1.948895 1.2756602,-3.580603 2.9902344,-4.318359 1.1358678,-0.488731 2.546919,-0.385787 5.2734376,-0.234375 0.01,-0.157807 0.02406,-0.321799 0.04883,-0.498047 -1.207686,-0.06692 -2.1579419,-0.125815 -2.9414062,-0.128906 z"/>
 <path style="opacity:0.1" d="m 14.999511,13.368315 c 0.02332,0.504141 -0.794864,0.538911 -0.800404,1.154608 -0.0048,0.535142 -0.119401,1.005972 -0.583768,1.276537 -0.464423,0.270581 -1.060653,-0.01455 -1.585535,0.0059 -0.5249,0.0204 -0.914669,0.343827 -1.402339,0.110302 C 10.139739,15.682143 10.132939,15.308529 9.8511751,14.901815 9.5694283,14.495152 9.0240249,14.198518 9.0007216,13.694427 8.9774186,13.190336 9.5245341,12.949358 9.767724,12.522236 c 0.243153,-0.427057 0.1758759,-1.082015 0.640244,-1.35258 0.464423,-0.27058 0.971746,0.05729 1.4967,0.03688 0.524882,-0.02044 1.096541,-0.358107 1.584212,-0.124582 0.487742,0.233558 0.403022,0.831665 0.68477,1.23833 0.281745,0.406662 0.802558,0.543937 0.825861,1.048028 z"/>
 <path style="fill:#ffe57f" d="m 14.999511,12.868315 c 0.02332,0.504141 -0.794864,0.538911 -0.800404,1.154608 -0.0048,0.535142 -0.119401,1.005972 -0.583768,1.276537 -0.464423,0.270581 -1.060653,-0.01455 -1.585535,0.0059 -0.5249,0.0204 -0.914669,0.343827 -1.402339,0.110302 C 10.139739,15.182143 10.132939,14.808529 9.8511751,14.401815 9.5694283,13.995152 9.0240249,13.698518 9.0007216,13.194427 8.9774186,12.690336 9.5245341,12.449358 9.767724,12.022236 c 0.243153,-0.427057 0.1758759,-1.082015 0.640244,-1.35258 0.464423,-0.27058 0.971746,0.05729 1.4967,0.03688 0.524882,-0.02044 1.096541,-0.358107 1.584212,-0.124582 0.487742,0.233558 0.403022,0.831665 0.68477,1.23833 0.281745,0.406662 0.802558,0.543937 0.825861,1.048028 z"/>
 <path style="opacity:0.1" d="m 13.837282,14.492157 c -0.208747,0.377365 -0.927112,10e-4 -1.160391,0.316136 -0.238427,0.322006 -0.270381,0.713378 -0.705428,0.690773 -0.396534,-0.02063 -0.275759,-0.675142 -0.604813,-0.849906 -0.32912,-0.174796 -1.060622,0.26336 -1.245419,-0.13647 -0.1922468,-0.41602 0.587869,-0.42804 0.577085,-0.882329 -0.01082,-0.454382 -0.8661548,-0.709475 -0.66875,-1.029074 0.197371,-0.319538 0.914258,0.02414 1.242069,-0.152733 0.327797,-0.176918 0.373962,-0.947294 0.771125,-0.948551 0.397163,-0.0013 0.305071,0.783858 0.634141,0.958668 0.329105,0.174749 1.098075,-0.213307 1.297868,0.104973 0.199758,0.318342 -0.852261,0.579654 -0.850938,0.931366 0.0013,0.351668 0.894721,0.669465 0.713451,0.997147 z"/>
 <path style="fill:#fff8e1" d="m 13.837282,13.992157 c -0.208747,0.377365 -0.927112,10e-4 -1.160391,0.316136 -0.238427,0.322006 -0.270381,0.713378 -0.705428,0.690773 -0.396534,-0.02063 -0.275759,-0.675142 -0.604813,-0.849906 -0.32912,-0.174796 -1.060622,0.26336 -1.245419,-0.13647 -0.1922468,-0.41602 0.587869,-0.42804 0.577085,-0.882329 -0.01082,-0.454382 -0.8661548,-0.709475 -0.66875,-1.029074 0.197371,-0.319538 0.914258,0.02414 1.242069,-0.152733 0.327797,-0.176918 0.373962,-0.947294 0.771125,-0.948551 0.397163,-0.0013 0.305071,0.783858 0.634141,0.958668 0.329105,0.174749 1.098075,-0.213307 1.297868,0.104973 0.199758,0.318342 -0.852261,0.579654 -0.850938,0.931366 0.0013,0.351668 0.894721,0.669465 0.713451,0.997147 z"/>
</svg>
