<svg width="24" height="24" version="1.1" xmlns="http://www.w3.org/2000/svg">
 <rect x="2" y="2.5" width="12" height="12" ry="1.5" style="opacity:.2"/>
 <rect x="2" y="2" width="12" height="12" ry="1.5" style="fill:#f5e03a"/>
 <rect x="6" y="6.5" width="12" height="12" ry="4" style="opacity:.2"/>
 <rect x="6" y="6" width="12" height="12" ry="4" style="fill:#f98413"/>
 <circle cx="16" cy="16.5" r="6" style="opacity:.2"/>
 <circle cx="16" cy="16" r="6" style="fill:#a821a3"/>
 <path d="m3.5 2c-0.831 0-1.5 0.669-1.5 1.5v0.5c0-0.831 0.669-1.5 1.5-1.5h9c0.831 0 1.5 0.669 1.5 1.5v-0.5c0-0.831-0.669-1.5-1.5-1.5h-9z" style="fill:#ffffff;opacity:.2"/>
 <path d="m10 6c-2.216 0-4 1.784-4 4v0.5c0-2.216 1.784-4 4-4h4c2.216 0 4 1.784 4 4v-0.5c0-2.216-1.784-4-4-4h-4z" style="fill:#ffffff;opacity:.2"/>
 <path d="m16 10a6 6 0 0 0-6 6 6 6 0 0 0 0.009766 0.285156 6 6 0 0 1 5.990234-5.785156 6 6 0 0 1 5.990234 5.714844 6 6 0 0 0 0.009766-0.214844 6 6 0 0 0-6-6z" style="fill:#ffffff;opacity:.2"/>
</svg>
