<svg xmlns="http://www.w3.org/2000/svg" width="24" height="24" version="1">
 <path style="opacity:0.2" d="m 12.499695,1.500019 c -0.550024,0 -1.100416,0.2050106 -1.511573,0.6161574 L 2.6161482,10.489083 c -0.8223138,0.822293 -0.8211473,2.198408 0.0012,3.020702 l 8.3719738,8.372907 c 0.822314,0.822294 2.199655,0.82346 3.021969,0.0012 l 8.371974,-8.372906 c 0.822313,-0.822294 0.822314,-2.199587 0,-3.021881 L 14.011269,2.1161764 C 13.600113,1.7050296 13.04972,1.500019 12.499695,1.500019 Z"/>
 <path style="fill:#e3b56f" d="m 12.499695,1.0000196 c -0.550024,0 -1.100416,0.2050106 -1.511573,0.6161574 L 2.6161482,9.9890839 c -0.8223138,0.8222931 -0.8211473,2.1984081 0.0012,3.0207021 l 8.3719738,8.372906 c 0.822314,0.822294 2.199655,0.823461 3.021969,0.0012 l 8.371974,-8.372906 c 0.822313,-0.822294 0.822314,-2.199587 0,-3.0218801 L 14.011269,1.616177 C 13.600113,1.2050302 13.04972,1.0000196 12.499695,1.0000196 Z"/>
 <path style="opacity:0.5;fill:#ffffff" d="M 9.5095653,3.0957207 8.0955041,4.5097819 10.999798,7.4140762 v 7.0859308 h 1.999999 V 9.4140744 l 2.292966,2.2929666 1.414061,-1.414061 z"/>
 <path style="opacity:0.2" d="m 11.999798,5.5000155 c -1.104569,-2e-7 -1.9999986,0.8954295 -1.9999986,1.9999982 10e-8,1.1045686 0.8954296,1.9999983 1.9999986,1.9999981 1.104568,-10e-8 1.999998,-0.8954297 1.999998,-1.9999981 0,-1.1045684 -0.89543,-1.9999981 -1.999998,-1.9999982 z m 3.999996,3.9999963 c -1.104568,1e-7 -1.999998,0.8954302 -1.999998,1.9999982 0,1.104568 0.89543,1.999998 1.999998,1.999998 1.104568,0 1.999998,-0.89543 1.999998,-1.999998 0,-1.104568 -0.89543,-1.9999981 -1.999998,-1.9999982 z m -3.999996,2.9999902 c -1.104569,0 -1.9999985,0.895429 -1.9999986,1.999998 10e-8,1.104569 0.8954296,1.999998 1.9999986,1.999998 1.104568,0 1.999998,-0.89543 1.999998,-1.999998 0,-1.104568 -0.89543,-1.999998 -1.999998,-1.999998 z"/>
 <path style="fill:#ffffff" d="M 11.999798,5.000016 A 1.9999982,1.9999982 0 0 0 9.9997994,7.0000141 1.9999982,1.9999982 0 0 0 11.999798,9.0000123 1.9999982,1.9999982 0 0 0 13.999796,7.0000141 1.9999982,1.9999982 0 0 0 11.999798,5.000016 Z"/>
 <path style="fill:#ffffff" d="M 15.999794,9.0000123 A 1.9999982,1.9999982 0 0 0 13.999796,11.00001 1.9999982,1.9999982 0 0 0 15.999794,13.000009 1.9999982,1.9999982 0 0 0 17.999792,11.00001 1.9999982,1.9999982 0 0 0 15.999794,9.0000123 Z"/>
 <path style="fill:#ffffff" d="M 11.999798,12.000004 A 1.9999982,1.9999982 0 0 0 9.9997994,14.000002 1.9999982,1.9999982 0 0 0 11.999798,16 1.9999982,1.9999982 0 0 0 13.999796,14.000002 1.9999982,1.9999982 0 0 0 11.999798,12.000004 Z"/>
 <path style="opacity:0.2;fill:#ffffff" d="m 12.5,1.0000196 c -0.550024,0 -1.100561,0.2050636 -1.511718,0.6162104 L 2.6162201,9.9892694 C 2.1431471,10.46233 1.9518729,11.117349 2.0234472,11.746104 2.0769214,11.284226 2.2685988,10.836881 2.6162201,10.489269 L 10.988282,2.1162296 C 11.399439,1.7050828 11.949976,1.5000192 12.5,1.5000192 c 0.550025,0 1.100561,0.2050636 1.511718,0.6162104 l 8.371085,8.3730394 c 0.3485,0.34849 0.540641,0.797376 0.59375,1.260741 0.07221,-0.629984 -0.119935,-1.286938 -0.59375,-1.7607406 L 14.011718,1.61623 C 13.600561,1.2050833 13.050025,1.0000196 12.5,1.0000196 Z"/>
</svg>
