<svg xmlns="http://www.w3.org/2000/svg" width="24" height="24" version="1.1">
 <path style="opacity:0.2" d="M 2.5,3.5 C 1.669,3.5 1,4.2108125 1,5.09375 v 13.8125 C 1,19.789188 1.669,20.5 2.5,20.5 3.331,20.5 4,19.789188 4,18.90625 V 18.5 h 2 v 2 h 2 v -2 h 1 v 2 h 2 v -2 h 1 v 2 h 2 v -2 h 7 c 1.108,0 2,-0.965682 2,-2.166016 V 7.6660156 C 23,6.4656822 22.108,5.5 21,5.5 H 4 V 5.09375 C 4,4.2108125 3.331,3.5 2.5,3.5 Z"/>
 <rect style="fill:#4f4f4f" width="21" height="13" x="2" y="5" rx="2" ry="2.167"/>
 <circle style="opacity:0.2" cx="8.5" cy="12" r="4.5"/>
 <circle style="fill:#ffffff" cx="8.5" cy="11.5" r="4.5"/>
 <rect style="fill:#34ae72" width="1" height="7" x="1.62" y="-17.64" transform="rotate(135)"/>
 <circle style="opacity:0.2" cx="17.5" cy="12" r="3.5"/>
 <circle style="fill:#ffffff" cx="17.5" cy="11.5" r="3.5"/>
 <rect style="fill:#34ae72" width="1" height="7" x="8" y="8"/>
 <rect style="fill:#4f4f4f" width="2" height="2.5" x="6" y="17.5"/>
 <rect style="fill:#34ae72" width="1" height="5" x="17" y="9"/>
 <rect style="fill:#4f4f4f" width="2" height="2.5" x="9" y="17.5"/>
 <rect style="fill:#4f4f4f" width="2" height="2.5" x="12" y="17.5"/>
 <rect style="fill:#4f4f4f" width="3" height="17" x="1" y="3" rx="1.5" ry="1.594"/>
 <rect style="fill:#34ae72" width="1" height="7" x="11" y="-12" transform="rotate(90)"/>
 <rect style="fill:#34ae72" width="1" height="7" x="13.64" y="-5.62" transform="matrix(0.70710678,0.70710678,0.70710678,-0.70710678,0,0)"/>
 <rect style="fill:#34ae72" width="1" height="5" x="11" y="-20" transform="rotate(90)"/>
 <rect style="fill:#34ae72" width="1" height="5" x="-4.74" y="-23.01" transform="rotate(135)"/>
 <rect style="fill:#34ae72" width="1" height="5" x="20.01" y="1.74" transform="matrix(0.70710678,0.70710678,0.70710678,-0.70710678,0,0)"/>
 <path style="opacity:0.1;fill:#ffffff" d="M 2.5 3 C 1.669 3 1 3.7108125 1 4.59375 L 1 5.09375 C 1 4.2108125 1.669 3.5 2.5 3.5 C 3.331 3.5 4 4.2108125 4 5.09375 L 4 5.5 L 21 5.5 C 22.108 5.5 23 6.4656822 23 7.6660156 L 23 7.1660156 C 23 5.9656822 22.108 5 21 5 L 4 5 L 4 4.59375 C 4 3.7108125 3.331 3 2.5 3 z"/>
 <circle style="fill:#34ae72" cx="8.5" cy="11.5" r="1.5"/>
</svg>
