<svg xmlns="http://www.w3.org/2000/svg" width="24" height="24" version="1">
 <circle style="opacity:0.2" cx="12" cy="12.5" r="8.5"/>
 <circle style="fill:#8e8e8e" cx="12" cy="12" r="8.5"/>
 <path style="opacity:0.1" d="M 4.3671875,6.5927735 C 4.2927985,7.184619 4.4742616,7.803363 4.9287109,8.2578125 5.7097595,9.038861 11.218951,13.281049 12,12.5 12.107908,12.392092 12.113254,12.18729 12.051758,11.923828 12.037712,11.952204 12.021444,11.978556 12,12 11.218951,12.781049 5.7097595,8.538861 4.9287109,7.7578125 4.6019501,7.4310515 4.4205399,7.0183395 4.3671875,6.5927735 Z"/>
 <path style="fill:#ff4c4c" d="M 16.24264,19.071068 C 15.461592,18.290019 11.218951,12.781049 12,12 c 0.781049,-0.781049 6.290019,3.461592 7.071068,4.24264 0.781048,0.781049 0.781048,2.047379 0,2.828428 -0.781049,0.781048 -2.047379,0.781048 -2.828428,0 z"/>
 <path style="fill:#db4cb7" d="m 20,14 c -1.10457,0 -8,-0.89543 -8,-2 0,-1.104569 6.89543,-2 8,-2 1.104569,0 2,0.895431 2,2 0,1.10457 -0.895431,2 -2,2 z"/>
 <path style="fill:#924ab4" d="M 19.071068,7.7573595 C 18.290019,8.538408 12.781049,12.781049 12,12 c -0.781049,-0.781049 3.461592,-6.290019 4.24264,-7.0710678 0.781049,-0.7810486 2.047379,-0.7810486 2.828428,0 0.781048,0.7810488 0.781048,2.0473783 0,2.8284273 z"/>
 <path style="opacity:0.1;fill:#ffffff" d="m 17.657226,4.3427734 c -0.511844,0 -1.024515,0.1954132 -1.415039,0.5859375 -0.759604,0.7596051 -4.79149,5.9899601 -4.293945,6.9951171 0.383617,-1.643497 3.620805,-5.821976 4.293945,-6.495117 0.781049,-0.7810486 2.048053,-0.7810486 2.829102,0 0.326599,0.3265995 0.508063,0.7387205 0.561523,1.1640625 C 19.706987,6.001119 19.525577,5.382999 19.071289,4.928711 18.680764,4.5381867 18.169071,4.3427735 17.657226,4.3427734 Z"/>
 <path style="fill:#6c48b3" d="m 14,4 c 0,1.1045695 -0.89543,8 -2,8 -1.104569,0 -2,-6.8954305 -2,-8 0,-1.1045695 0.895431,-2 2,-2 1.10457,0 2,0.8954305 2,2 z"/>
 <path style="fill:#476bd7" d="M 4.9289322,7.7573595 C 5.709981,8.538408 11.218951,12.781049 12,12 12.781049,11.218951 8.538408,5.709981 7.7573595,4.9289322 c -0.781049,-0.7810486 -2.0473785,-0.7810486 -2.8284273,0 -0.7810486,0.7810488 -0.7810486,2.0473783 0,2.8284273 z"/>
 <path style="opacity:0.1" d="M 2.0253906,12.25 C 2.0149588,12.332753 2,12.414417 2,12.5 c 0,1.10457 0.8954305,2 2,2 1.1045695,0 8,-0.89543 8,-2 0,-0.08493 -0.05314,-0.167855 -0.128906,-0.25 C 10.961492,13.236207 5.01964,14 4,14 2.9810134,14 2.1495961,13.235288 2.0253906,12.25 Z"/>
 <path style="fill:#47b1b1" d="m 4,14 c 1.1045695,0 8,-0.89543 8,-2 0,-1.104569 -6.8954305,-2 -8,-2 -1.1045695,0 -2,0.895431 -2,2 0,1.10457 0.8954305,2 2,2 z"/>
 <path style="opacity:0.1;fill:#ffffff" d="m 6.3427735,4.3427734 c -0.5118445,0 -1.023538,0.1954132 -1.4140626,0.5859375 C 4.4744231,5.382999 4.293013,6.001119 4.3671875,6.5927735 4.4206486,6.1674315 4.6021117,5.7553105 4.9287109,5.428711 c 0.7810486,-0.7810486 2.0480526,-0.7810486 2.8291016,0 0.6731405,0.673141 3.9103285,4.85162 4.2939455,6.495117 C 12.549303,10.918671 8.517417,5.688316 7.7578125,4.9287109 7.367288,4.5381866 6.854618,4.3427734 6.3427735,4.3427734 Z"/>
 <path style="opacity:0.1" d="m 12.051758,12.576172 c -0.383617,1.643497 -3.620805,5.821976 -4.2939455,6.495117 -0.781049,0.781048 -2.0480525,0.781048 -2.8291016,0 -0.3265992,-0.3266 -0.5080623,-0.738721 -0.5615234,-1.164063 -0.074175,0.591655 0.1072357,1.209775 0.5615234,1.664063 0.7810491,0.781048 2.0480526,0.781048 2.8291016,0 0.7596045,-0.759605 4.7914905,-5.98996 4.2939455,-6.995117 z"/>
 <path style="fill:#8bdb4c" d="M 7.7573595,19.071068 C 8.538408,18.290019 12.781049,12.781049 12,12 c -0.781049,-0.781049 -6.290019,3.461592 -7.0710679,4.24264 -0.7810485,0.781049 -0.7810485,2.047379 0,2.828428 0.7810489,0.781048 2.0473784,0.781048 2.8284274,0 z"/>
 <path style="opacity:0.1" d="M 10.019531,20.189453 C 10.013495,20.291674 10,20.435142 10,20.5 c 0,1.104569 0.895431,2 2,2 1.10457,0 2,-0.895431 2,-2 0,-0.06486 -0.0135,-0.208326 -0.01953,-0.310547 C 13.883705,21.203808 13.039704,22 12,22 10.960297,22 10.116296,21.203808 10.019531,20.189453 Z"/>
 <path style="opacity:0.1;fill:#ffffff" d="m 12,2 c -1.104569,0 -2,0.8954305 -2,2 0,0.064858 0.0135,0.2083255 0.01953,0.3105469 C 10.116296,3.2961919 10.960297,2.5 12,2.5 c 1.039704,0 1.883705,0.7961919 1.980469,1.8105469 C 13.986505,4.2083255 14,4.0648581 14,4 14,2.8954305 13.10457,2 12,2 Z"/>
 <path style="fill:#ffdb4c" d="m 14,20 c 0,-1.10457 -0.89543,-8 -2,-8 -1.104569,0 -2,6.89543 -2,8 0,1.104569 0.895431,2 2,2 1.10457,0 2,-0.895431 2,-2 z"/>
 <path style="opacity:0.1" d="m 11.948242,12.576172 c -0.497545,1.005157 3.534341,6.235512 4.293945,6.995117 0.781049,0.781048 2.048053,0.781048 2.829102,0 0.454288,-0.454288 0.635698,-1.072408 0.561523,-1.664063 -0.05346,0.425342 -0.234924,0.837463 -0.561523,1.164063 -0.781049,0.781048 -2.048053,0.781048 -2.829102,0 -0.67314,-0.673141 -3.910328,-4.85162 -4.293945,-6.495117 z"/>
 <path style="fill:#ff4c4c" d="m 12,12 c -0.364004,0.364004 0.374634,1.759093 1.333985,3.219727 -0.146067,-1.084431 -0.41855,-2.061014 -0.731446,-2.647461 C 12.229374,12.39092 12,12.19892 12,12 Z"/>
 <path style="opacity:0.1" d="M 12.128906,12.25 C 12.053143,12.332145 12,12.415071 12,12.5 c 0,1.10457 6.89543,2 8,2 1.104569,0 2,-0.89543 2,-2 0,-0.08558 -0.01496,-0.167247 -0.02539,-0.25 C 21.850404,13.235288 21.018986,14 20,14 18.98036,14 13.038508,13.236207 12.128906,12.25 Z"/>
 <path style="fill:#db4cb7" d="m 12,12 c -0.02563,0.169839 0.213295,0.375861 0.546947,0.549501 C 12.396476,12.206732 12.191038,11.995636 12,12 Z"/>
 <path style="opacity:0.1" d="M 19.632812,6.5927735 C 19.57946,7.0183395 19.39805,7.4310515 19.071289,7.7578125 18.29024,8.538861 12.781049,12.781049 12,12 c -0.02144,-0.02144 0.01404,0.02838 0,0 -0.116294,0.120509 -0.11982,0.40877 -0.02621,0.647718 -0.0071,-0.196909 0.07935,-0.315573 0.155114,-0.397718 0.09504,0.103043 0.255663,0.203212 0.449219,0.300781 1.644896,-0.385624 5.820288,-3.620093 6.493164,-4.2929685 0.454449,-0.4544495 0.635912,-1.0731935 0.561523,-1.665039 z"/>
 <path style="opacity:0.1" d="M 9.4892287,7.9991439 C 9.1985918,8.1214022 9.0630384,8.4538063 9.1852968,8.7444431 L 9.4719285,9.4258278 A 3.9839943,3.9839943 0 0 0 8.8983417,10.005986 L 8.2141792,9.7269868 C 7.9222185,9.6079256 7.5914022,9.7470924 7.4723411,10.039048 L 7.0425642,11.09295 c -0.1190611,0.291961 0.020106,0.622778 0.3120602,0.741838 L 8.0358753,12.1126 a 3.9839943,3.9839943 0 0 0 0.00517,0.817873 L 7.36171,13.216242 c -0.2906374,0.122259 -0.4261901,0.454663 -0.3039313,0.7453 l 0.4413686,1.04923 c 0.1222589,0.290636 0.4546629,0.426189 0.7452998,0.303931 l 0.6813842,-0.286631 a 3.9839943,3.9839943 0 0 0 0.5801581,0.573586 l -0.279002,0.684162 c -0.1190612,0.291961 0.020106,0.622778 0.312061,0.741838 l 1.0538986,0.429777 c 0.291962,0.119062 0.622779,-0.0201 0.741839,-0.312059 l 0.277813,-0.681251 a 3.9839943,3.9839943 0 0 0 0.817872,-0.0051 l 0.285769,0.679336 c 0.122259,0.290638 0.454663,0.426191 0.745299,0.303932 l 1.049231,-0.441369 c 0.290636,-0.122259 0.42619,-0.454663 0.303931,-0.7453 L 14.52807,15.574228 a 3.9839943,3.9839943 0 0 0 0.573587,-0.580158 l 0.684163,0.278998 c 0.291959,0.119061 0.622776,-0.0201 0.741838,-0.312061 l 0.429777,-1.053899 c 0.11906,-0.291963 -0.0201,-0.622778 -0.312061,-0.741838 l -0.681251,-0.277813 a 3.9839943,3.9839943 0 0 0 -0.0051,-0.817873 l 0.679334,-0.285767 c 0.290638,-0.12226 0.426191,-0.454664 0.303931,-0.7453 L 16.500854,9.9892291 C 16.378594,9.6985929 16.046191,9.5630389 15.755554,9.6852985 L 15.07417,9.9719291 A 3.9839943,3.9839943 0 0 0 14.494012,9.3983416 l 0.278999,-0.6841625 c 0.119061,-0.2919595 -0.02011,-0.6227769 -0.312062,-0.741837 l -1.0539,-0.4297779 c -0.291962,-0.1190606 -0.622778,0.020106 -0.741838,0.3120613 l -0.277813,0.6812496 a 3.9839943,3.9839943 0 0 0 -0.817871,0.00517 L 11.283761,7.8617016 C 11.161504,7.5710648 10.829099,7.4355115 10.538463,7.5577698 Z"/>
 <path style="fill:#4f4f4f" d="M 9.4892287,7.4991444 C 9.1985918,7.6214027 9.0630384,7.9538068 9.1852968,8.2444436 L 9.4719285,8.9258283 A 3.9839943,3.9839943 0 0 0 8.8983417,9.5059863 L 8.2141792,9.2269873 C 7.9222185,9.1079261 7.5914022,9.2470929 7.4723411,9.5390486 L 7.0425642,10.592949 c -0.1190611,0.291961 0.020106,0.622778 0.3120602,0.741838 l 0.6812509,0.277812 a 3.9839943,3.9839943 0 0 0 0.00517,0.817873 L 7.36171,12.716241 c -0.2906374,0.122259 -0.4261901,0.454663 -0.3039313,0.7453 l 0.4413686,1.04923 c 0.1222589,0.290636 0.4546629,0.426189 0.7452998,0.303931 l 0.6813842,-0.286631 a 3.9839943,3.9839943 0 0 0 0.5801581,0.573586 l -0.279002,0.684162 c -0.1190612,0.291961 0.020106,0.622778 0.312061,0.741838 l 1.0538986,0.429777 c 0.291962,0.119062 0.622779,-0.0201 0.741839,-0.312059 l 0.277813,-0.681251 a 3.9839943,3.9839943 0 0 0 0.817872,-0.0051 l 0.285769,0.679336 c 0.122259,0.290638 0.454663,0.426191 0.745299,0.303932 l 1.049231,-0.441369 c 0.290636,-0.122259 0.42619,-0.454663 0.303931,-0.7453 L 14.52807,15.074227 a 3.9839943,3.9839943 0 0 0 0.573587,-0.580158 l 0.684163,0.278998 c 0.291959,0.119061 0.622776,-0.0201 0.741838,-0.312061 l 0.429777,-1.053899 c 0.11906,-0.291963 -0.0201,-0.622778 -0.312061,-0.741838 l -0.681251,-0.277813 a 3.9839943,3.9839943 0 0 0 -0.0051,-0.817873 l 0.679334,-0.285767 c 0.290638,-0.12226 0.426191,-0.454664 0.303931,-0.7453 L 16.500854,9.4892296 C 16.378594,9.1985934 16.046191,9.0630394 15.755554,9.185299 L 15.07417,9.4719296 A 3.9839943,3.9839943 0 0 0 14.494012,8.8983421 l 0.278999,-0.6841625 c 0.119061,-0.2919595 -0.02011,-0.6227769 -0.312062,-0.741837 l -1.0539,-0.4297779 C 13.115087,6.9235041 12.784271,7.0626707 12.665211,7.354626 l -0.277813,0.6812496 a 3.9839943,3.9839943 0 0 0 -0.817871,0.00517 L 11.283761,7.3617021 C 11.161504,7.0710653 10.829099,6.935512 10.538463,7.0577703 Z"/>
 <circle style="opacity:0.2" cx="12" cy="12.5" r="2"/>
 <circle style="fill:#ffffff" cx="12" cy="12" r="2"/>
</svg>
