<svg width="24" height="24" version="1.1" xmlns="http://www.w3.org/2000/svg">
 <path d="m5.4902344 2.5c-0.2190385 0.0048331-0.4104046 0.1526503-0.4707032 0.3632812l-2 7c-0.075905 0.2653408 0.0784836 0.5410278 0.34375 0.6171878l6.9999998 2c0.265339 0.0759 0.541029-0.076523 0.617188-0.341797l2-7.0000001c0.075905-0.2653399-0.076531-0.5429817-0.341797-0.6191407l-7.0000001-2c-0.04822-0.0139214-0.0982585-0.0205078-0.1484375-0.0195312zm7.9804686 4-2.007812 7.03125-7.0273441-2.005859s-2.5096928 8.535942 4.5175781 10.544921c3.385922 1.201154 7.529317-9.88e-4 9.537109-5.023437l2.509766-8.515625-7.529297-2.03125z" style="opacity:.2"/>
 <path d="m13.470781 6.0000003 7.529219 2.0319769-2.509739 8.5151678c-2.007792 5.022449-6.151089 6.223602-9.537011 5.022449-7.0272709-2.00898-4.5175313-10.544094-4.5175313-10.544094l7.0272713 2.00593z" style="fill:#f69a0d"/>
 <path d="m5.489258 2.0000967c-0.2190385 0.0048331-0.4094285 0.1516746-0.469727 0.3623056l-1.9999997 7.0000149c-0.075905 0.2653404 0.077507 0.5420068 0.3427734 0.6181662l7.0000003 2.0000046c0.265339 0.0759 0.542005-0.0775 0.618164-0.342774l2-7.0000164c0.075905-0.2653399-0.077507-0.5420063-0.342773-0.6181652l-7.0000005-2.0000044c-0.04822-0.0139214-0.0982585-0.0205084-0.1484375-0.0195318z" style="fill:#d7e50b"/>
 <path d="m5.4902344 2c-0.2190385 0.0048331-0.4104045 0.1526503-0.4707032 0.3632812l-2 7c-0.0365395 0.1277311-0.0178096 0.2561199 0.0390626 0.3652344l1.9609374-6.8652344c0.0602987-0.2106308 0.2516647-0.3584481 0.4707032-0.3632812 0.0501785-9.768e-4 0.1002175 0.0056103 0.1484375 0.0195312l7.0000001 2c0.138164 0.0396675 0.24211 0.1351278 0.302734 0.2539063l0.039063-0.1347656c0.075905-0.2653399-0.076531-0.5429816-0.341797-0.6191407l-7.0000001-2c-0.04822-0.0139213-0.0982585-0.0205078-0.1484375-0.0195312zm7.9804686 4-2.007812 7.03125-7.0273441-2.005859s-0.4875841 1.670022-0.4277344 3.705078c0.0233051-1.798685 0.4277344-3.205078 0.4277344-3.205078l7.0273441 2.005859 2.007812-7.03125 7.392578 1.9941406 0.136719-0.4628906-7.529297-2.03125z" style="fill:#ffffff;opacity:.2"/>
</svg>
