<svg xmlns="http://www.w3.org/2000/svg" width="24" height="24" version="1.1">
 <path style="opacity:0.2" d="M 18.130859,4.4988326 C 17.243552,4.6081141 16.443546,5.0610518 15.59375,5.4168014 14.919772,5.6999763 14.575062,6.271646 14.5,6.9988326 14.140415,6.5939955 13.689696,6.2025475 13.267578,5.9011764 11.905148,4.9284701 10.295324,4.4023316 8.640625,4.5125045 H 8.638675 C 5.3682007,4.7297563 1.9679487,7.5520026 2,11.862114 c 0.025532,3.450283 1.1613254,5.614592 1.9199219,7.414063 0.4305295,1.021408 1.6095791,1.497933 2.6289062,1.0625 C 8.633137,19.861562 9.1553569,18.845809 9.5,17.498833 c 0.2821598,0.333422 0.4749977,0.873965 0.820312,1.167969 1.250991,1.0663 2.909477,1.832031 4.789063,1.832031 1.73336,0 3.339509,-0.775573 4.636719,-2.03125 C 21.043303,17.211906 22.015755,15.357133 22,13.18438 v -0.002 c -0.02541,-3.4047964 -1.069127,-5.6847784 -1.935547,-7.3710474 -0.02639,-0.073342 -0.05704,-0.145079 -0.0918,-0.2148438 -0.0025,-0.00484 -0.0053,-0.012749 -0.0078,-0.017578 C 19.611716,4.8965132 18.898898,4.4767196 18.130859,4.4988326 Z"/>
 <path style="fill:#4a5579" d="M 18.130859,4 C 17.243552,4.1092815 16.443546,4.5622192 15.59375,4.9179688 14.919772,5.2011437 14.575062,5.7728134 14.5,6.5 14.140415,6.0951629 13.689696,5.7037149 13.267578,5.4023438 11.905148,4.4296375 10.295324,3.903499 8.640625,4.0136719 H 8.638675 C 5.3682007,4.2309237 1.9679487,7.05317 2,11.363281 c 0.025532,3.450283 1.1613254,5.614592 1.9199219,7.414063 0.4305295,1.021408 1.6095791,1.497933 2.6289062,1.0625 C 8.633137,19.362729 9.1553569,18.346976 9.5,17 9.7821598,17.333422 9.9749977,17.873965 10.320312,18.167969 11.571303,19.234269 13.229789,20 15.109375,20 c 1.73336,0 3.339509,-0.775573 4.636719,-2.03125 C 21.043303,16.713073 22.015755,14.8583 22,12.685547 v -0.002 C 21.974591,9.278751 20.930873,6.998769 20.064453,5.3125 c -0.02639,-0.073342 -0.05704,-0.145079 -0.0918,-0.2148438 -0.0025,-0.00484 -0.0053,-0.012749 -0.0078,-0.017578 C 19.611716,4.3976806 18.898898,3.977887 18.130859,4 Z"/>
 <path style="opacity:0.2" d="M 8.770902,6.5094875 C 6.6067865,6.653246 3.976278,8.6358805 4.0001614,11.847613 4.0227179,14.895829 4.9541768,16.580047 5.7635645,18.5 l 1.689761,-0.720153 C 6.4886955,16.327278 5.051038,13.383984 5.133967,11.440184 5.189032,10.159307 5.640829,9.2620115 6.4256695,8.539134 8.3171145,6.796323 10.924402,7.2057945 12.456267,9.0644295 13.32669,10.159988 13.475963,11.769261 12.677853,12.944535 11.323789,14.938752 8.249444,13.969236 8.0378095,11.658887 7.937631,10.561284 9.00443,9.716451 9.984319,9.706912 8.9792195,9.130517 7.424135,10.194054 7.5083905,11.498096 7.756514,15.341411 11.989874,15.416356 13.295509,13.225237 15.626146,9.312429 11.668773,6.3159935 8.7728925,6.5088065 Z"/>
 <path style="opacity:0.2" d="m 18.189198,6.5 -1.823442,0.762841 c 1.098371,2.110188 2.372964,3.727412 2.374982,6.333277 6.5e-4,0.956772 -0.382715,2.041024 -1.291409,2.847262 -0.825963,0.732328 -1.90281,1.164943 -3.18682,0.986608 -1.3432,-0.186473 -2.266691,-0.801492 -2.843117,-1.501949 -0.905331,-1.194101 -1.055323,-2.719105 -0.324197,-3.835905 0.417017,-0.636718 1.343199,-1.177827 2.260638,-1.098491 1.618296,0.139006 2.5243,1.035429 2.510175,2.390914 -0.01412,1.379217 -0.992098,1.908798 -2.089122,1.814545 1.0264,0.452958 2.576763,-0.139685 2.57071,-1.659265 -0.0081,-2.047805 -1.388937,-3.033735 -2.879438,-3.041871 -1.539602,-0.0088 -2.391125,0.564163 -2.884819,1.340566 -0.493695,0.776403 -0.6268715,1.800306 -0.571718,2.637057 0.0565,0.849636 0.672609,1.876929 1.605517,2.670962 0.931564,0.794032 2.182616,1.353449 3.492858,1.353449 2.109973,0 4.912734,-2.146127 4.889865,-5.299881 -0.02354,-3.154433 -0.942997,-5.027293 -1.811335,-6.698763 z"/>
 <path style="fill:#f9f9f9" d="M 8.770902,6.0094875 C 6.6067865,6.153246 3.976278,8.1358805 4.0001614,11.347613 4.0227179,14.395829 4.9541768,16.080047 5.7635645,18 l 1.689761,-0.720153 C 6.4886955,15.827278 5.051038,12.883984 5.133967,10.940184 5.189032,9.659307 5.640829,8.7620115 6.4256695,8.039134 8.3171145,6.296323 10.924402,6.7057945 12.456267,8.5644295 13.32669,9.659988 13.475963,11.269261 12.677853,12.444535 11.323789,14.438752 8.249444,13.469236 8.0378095,11.158887 7.937631,10.061284 9.00443,9.216451 9.984319,9.206912 8.9792195,8.630517 7.424135,9.6940545 7.5083905,10.998096 7.756514,14.841411 11.989874,14.916356 13.295509,12.725237 15.626146,8.812429 11.668773,5.8159935 8.7728925,6.0088065 Z"/>
 <path style="fill:#4696e2" d="m 18.189198,6 -1.823442,0.762841 c 1.098371,2.110188 2.372964,3.727412 2.374982,6.333277 6.5e-4,0.956772 -0.382715,2.041024 -1.291409,2.847262 -0.825963,0.732328 -1.90281,1.164943 -3.18682,0.986608 -1.3432,-0.186473 -2.266691,-0.801492 -2.843117,-1.501949 -0.905331,-1.194101 -1.055323,-2.719105 -0.324197,-3.835905 0.417017,-0.636718 1.343199,-1.177827 2.260638,-1.098491 1.618296,0.139006 2.5243,1.035429 2.510175,2.390914 -0.01412,1.379217 -0.992098,1.908798 -2.089122,1.814545 1.0264,0.452958 2.576763,-0.139685 2.57071,-1.659265 -0.0081,-2.047805 -1.388937,-3.033735 -2.879438,-3.0418715 -1.539602,-0.00881 -2.391125,0.5641635 -2.884819,1.3405665 -0.493695,0.776403 -0.6268715,1.800306 -0.571718,2.637057 0.0565,0.849636 0.672609,1.876929 1.605517,2.670962 C 12.548702,17.440583 13.799754,18 15.109996,18 17.219969,18 20.02273,15.853874 19.999861,12.700119 19.976321,9.5456855 19.056864,7.672826 18.188526,6.001356 Z"/>
 <path style="fill:#f9f9f9" d="m 13.062286,9.7407335 c 0.108584,0.3727405 0.154576,0.7621235 0.132959,1.1471505 l 0.736601,0.217637 c 0.0912,-0.484184 0.08788,-0.945939 0.0079,-1.379751 z"/>
 <path style="opacity:0.1;fill:#ffffff" d="M 18.130859 4 C 17.243552 4.1092815 16.443546 4.5622192 15.59375 4.9179688 C 14.919772 5.2011437 14.575062 5.7728134 14.5 6.5 C 14.140415 6.0951629 13.689696 5.7037149 13.267578 5.4023438 C 11.905148 4.4296375 10.295324 3.903499 8.640625 4.0136719 L 8.6386719 4.0136719 C 5.3681976 4.2309237 1.9679487 7.0531702 2 11.363281 C 2.0006051 11.445052 2.0098862 11.517318 2.0117188 11.597656 C 2.1192014 7.438903 5.4365079 4.7244328 8.6386719 4.5117188 L 8.640625 4.5117188 C 10.295324 4.4015459 11.905148 4.9276843 13.267578 5.9003906 C 13.689696 6.2017617 14.140415 6.5932098 14.5 6.9980469 C 14.575062 6.2708603 14.919772 5.6991905 15.59375 5.4160156 C 16.443546 5.060266 17.243552 4.6073284 18.130859 4.4980469 C 18.898898 4.4759339 19.611707 4.8957274 19.964844 5.578125 C 19.967344 5.582954 19.970156 5.5908631 19.972656 5.5957031 C 20.007416 5.6654679 20.038063 5.7372049 20.064453 5.8105469 C 20.907899 7.4521033 21.911793 9.6650644 21.988281 12.921875 C 21.990368 12.842407 22.000583 12.765899 22 12.685547 L 22 12.683594 C 21.974591 9.2787978 20.930873 6.998769 20.064453 5.3125 C 20.038063 5.239158 20.007416 5.167421 19.972656 5.0976562 C 19.970156 5.0928163 19.967344 5.0849071 19.964844 5.0800781 C 19.611707 4.3976805 18.898898 3.977887 18.130859 4 z"/>
</svg>
