<svg xmlns="http://www.w3.org/2000/svg" width="24" height="24" version="1.1">
 <path style="fill:#0364b8" d="M 20.946653,1.9999997 H 8.0529995 C 7.4714234,2 6.9999713,2.4490248 7.0000002,3.0029068 v 1.13995 L 7.5357144,14 h 6.9642846 l 6.964285,-0.5 0.535421,-9.3571432 v -1.14 C 21.999684,2.448983 21.52822,1.9999921 20.946653,1.9999997 Z"/>
 <path style="opacity:0.2" d="m 23,12.499999 a 0.47174955,0.47571428 0 0 1 -0.236328,0.41211 l -0.0088,0.0059 -0.0029,0.001 -7.676758,4.410155 a 1.0601756,1.0690857 0 0 1 -1.034179,0.06543 l 0.0059,0.0068 -7.7988285,-4.479492 v -0.0078 h -0.00683 l -0.021485,-0.01367 A 0.46089789,0.46477142 0 0 1 6,12.513671 v 8.915039 a 1.0610823,1.07 0 0 0 1.0625,1.071289 h 14.875 a 1.0643689,1.0733142 0 0 0 0.261719,-0.03613 0.45115831,0.45494999 0 0 0 0.127929,-0.04199 0.10042032,0.10126428 0 0 0 0.04199,-0.01465 0.7419926,0.74822855 0 0 0 0.163086,-0.09277 c 0.01417,-0.0071 0.02124,-0.0072 0.02832,-0.02149 v 0.003 A 1.0607706,1.0696857 0 0 0 23,21.42871 Z"/>
 <path style="fill:#0a2767" d="m 22.75201,13.003914 c 0.103777,-0.328867 0.186608,-0.664086 0.247987,-1.003607 -2.9e-5,-0.17001 -0.09004,-0.327077 -0.236094,-0.411993 v -3.43e-4 l -0.0091,-0.0052 -0.0028,-0.0016 -7.676725,-4.410043 c -0.03319,-0.021622 -0.06756,-0.041357 -0.102935,-0.059115 v -4.25e-5 c -0.297515,-0.1488092 -0.646912,-0.1488092 -0.944427,0 l -4.2e-5,4.25e-5 c -0.03537,0.017748 -0.06972,0.037485 -0.1029,0.059115 l -7.6767455,4.4101 -0.00285,0.0016 -0.00903,0.0052 v 3.43e-4 c -0.1460482,0.08492 -0.2360536,0.241987 -0.2360945,0.411993 0.061382,0.339508 0.1442107,0.674714 0.2479805,1.003571 l 8.1399535,6.003572 z"/>
 <path style="fill:#0078d4" d="m 7,4 h 4.999999 V 8.5 H 7 Z"/>
 <path style="fill:#28a8ea" d="M 12.000001,4 H 17 v 4.5 h -4.999999 z"/>
 <path style="fill:#50d9ff" d="m 17,4 h 5 v 4.5 h -5 z"/>
 <path style="fill:#0364b8" d="m 7,8.5 h 4.999999 V 13 H 7 Z"/>
 <path style="fill:#0078d4" d="M 12.000001,8.5 H 17 V 13 h -4.999999 z"/>
 <path style="fill:#28a8ea" d="m 17,8.5 h 5 V 13 h -5 z"/>
 <path style="fill:#064a8c" d="m 7,13 h 4.999999 v 4.5 H 7 Z"/>
 <path style="fill:#0364b8" d="M 12.000001,13 H 17 v 4.5 h -4.999999 z"/>
 <path style="fill:#0078d4" d="m 17,13 h 5 v 4.5 h -5 z"/>
 <path style="opacity:0.1" d="m 7,13 h 14.999998 v 0.5 H 7 Z"/>
 <path style="fill:#1490df" d="m 22.763904,12.411985 v 3.5e-4 l -0.0094,0.0054 -0.0024,0.0014 -7.676908,4.410142 a 1.0601756,1.0690857 0 0 1 -1.034485,0.06513 l 2.673729,3.614921 5.846614,1.283572 -2.13e-4,0.0032 a 1.0607706,1.0696857 0 0 0 0.439152,-0.867529 v -8.928508 a 0.47174955,0.47571428 0 0 1 -0.236094,0.411943 z"/>
 <path style="fill:#28a8ea" d="m 6.2479305,12.421428 v -0.0071 h -0.00708 l -0.02125,-0.01428 a 0.46089789,0.46477142 0 0 1 -0.2195835,-0.4 v 8.928572 a 1.0610823,1.07 0 0 0 1.0624995,1.071428 H 21.937501 a 1.0643689,1.0733142 0 0 0 0.262083,-0.03572 0.45115831,0.45494999 0 0 0 0.127501,-0.04285 0.10042032,0.10126428 0 0 0 0.0425,-0.01428 0.7419926,0.74822855 0 0 0 0.162916,-0.09286 c 0.01416,-0.0071 0.02125,-0.0071 0.02833,-0.02143 z"/>
 <path style="opacity:0.1" d="m 1.916673,6.499897 h 9.166661 A 0.91666605,0.91666605 0 0 1 12,7.4165635 V 16.58332 A 0.91667295,0.91667295 0 0 1 11.083327,17.5 H 1.916666 A 0.91666605,0.91666605 0 0 1 1,16.583327 V 7.41657 A 0.91667295,0.91667295 0 0 1 1.916673,6.499897 Z"/>
 <path style="opacity:0.1" d="M 7,8.5 H 21.999998 V 9 H 7 Z"/>
 <path style="fill:#0087f0" d="m 1.916673,5.9999485 h 9.166661 A 0.91666605,0.91666605 0 0 1 12,6.916615 v 9.166756 a 0.91667295,0.91667295 0 0 1 -0.916673,0.91668 H 1.916666 A 0.91666605,0.91666605 0 0 1 1,16.083378 V 6.9166215 a 0.91667295,0.91667295 0 0 1 0.916673,-0.916673 z"/>
 <path style="fill:#ffffff" d="M 3.415849,9.72845 A 3.1198638,2.9260029 0 0 1 4.6409275,8.4591505 3.704662,3.4744631 0 0 1 6.587979,8.0014355 3.444794,3.2307426 0 0 1 8.3891255,8.4355405 3.0882579,2.8963609 0 0 1 9.581501,9.648229 4.1760192,3.9165313 0 0 1 9.9990855,11.431848 4.4031547,4.1295531 0 0 1 9.568921,13.298039 3.1628257,2.9662952 0 0 1 8.341314,14.553155 3.5807828,3.3582814 0 0 1 6.4722695,14.999064 3.5281586,3.3089272 0 0 1 4.6308775,14.560237 3.1368755,2.9419575 0 0 1 3.4233995,13.345204 4.0730241,3.8199361 0 0 1 3.0007795,11.582822 4.5179535,4.2372186 0 0 1 3.415849,9.72845 Z m 1.3055775,2.979773 a 2.0266781,1.9007452 0 0 0 0.689263,0.835181 1.7992217,1.6874224 0 0 0 1.0766595,0.304348 1.8899357,1.7724996 0 0 0 1.1496225,-0.313802 1.9420451,1.821371 0 0 0 0.66914,-0.837546 A 3.451345,3.2368866 0 0 0 8.519937,11.53092 3.7774167,3.5426969 0 0 0 8.318691,10.351274 1.9911849,1.8674575 0 0 0 7.6721885,9.4830575 1.7812252,1.6705441 0 0 0 6.532639,9.1527695 a 1.8600906,1.744509 0 0 0 -1.1018185,0.306706 2.0451298,1.9180503 0 0 0 -0.704343,0.8422625 3.5633608,3.3419419 0 0 0 -0.00507,2.406485 z"/>
 <path style="opacity:0.1;fill:#ffffff" d="M 8.0525951,2 A 1.0529998,1.0028571 0 0 0 7.0000002,3.0029297 v 0.5 A 1.0529998,1.0028571 0 0 1 8.0525951,2.5 H 20.946356 a 1.0530373,1.0028928 0 0 1 1.053642,1.0029297 v -0.5 A 1.0530373,1.0028928 0 0 0 20.946356,2 Z"/>
</svg>
