<svg xmlns="http://www.w3.org/2000/svg" width="24" height="24" version="1.1">
 <path style="opacity:0.2" d="M 19.538461,2.5 H 3.4615385 C 2.6544095,2.5 2,3.1805859 2,4.02 v 15.96 c 0,0.839414 0.6544095,1.52 1.4615385,1.52 H 19.538461 C 20.34559,21.5 21,20.819414 21,19.98 V 4.02 C 21,3.1805859 20.34559,2.5 19.538461,2.5 Z m 0,0"/>
 <path style="fill:#4f4f4f" d="M 19.538461,2 H 3.4615385 C 2.6544095,2 2,2.6805859 2,3.52 V 19.48 C 2,20.319414 2.6544095,21 3.4615385,21 H 19.538461 C 20.34559,21 21,20.319414 21,19.48 V 3.52 C 21,2.6805859 20.34559,2 19.538461,2 Z m 0,0"/>
 <path style="opacity:0.1;fill:#ffffff" d="M 3.461914,2 C 2.6547851,2 2,2.6801171 2,3.5195312 v 0.5 C 2,3.1801171 2.6547851,2.5 3.461914,2.5 H 19.538086 C 20.345215,2.5 21,3.1801171 21,4.0195312 v -0.5 C 21,2.6801171 20.345215,2 19.538086,2 Z"/>
 <path style="fill:#767676" d="M 4,11.5 C 4,7.3580729 7.3580734,3.9999999 11.5,3.9999999 15.641928,3.9999999 19,7.3580729 19,11.5 19,15.641927 15.641928,19 11.5,19 7.3580734,19 4,15.641927 4,11.5 Z m 0,0"/>
 <path style="opacity:0.2" d="m 4.137931,4.5 h 8.724138 C 13.490302,4.5 14,4.9742644 14,5.5588233 V 18.441176 C 14,19.025735 13.490302,19.5 12.862069,19.5 H 4.137931 C 3.5096983,19.5 3,19.025735 3,18.441176 V 5.5588233 C 3,4.9742644 3.5096983,4.5 4.137931,4.5 Z m 0,0"/>
 <path style="fill:#373639" d="m 11.5,8.5 c 1.656697,0 3,1.343303 3,3 0,1.656696 -1.343303,3 -3,3 -1.6566965,0 -3,-1.343304 -3,-3 0,-1.656697 1.3433035,-3 3,-3 z m 0,0"/>
 <path style="opacity:0.2" d="M 15,10.3 C 15,9.8578125 15.315717,9.5 15.705883,9.5 H 21 v 5 H 15.705883 C 15.315717,14.5 15,14.142187 15,13.7 Z m 0,0"/>
 <path style="fill:#8bc0ff" d="M 15,9.8 C 15,9.3578125 15.315717,9 15.705883,9 H 21 v 5 H 15.705883 C 15.315717,14 15,13.642187 15,13.2 Z m 0,0"/>
 <path style="fill:#ffffff" d="m 4.137931,4 h 8.724138 C 13.490302,4 14,4.4742645 14,5.0588233 V 17.941176 C 14,18.525735 13.490302,19 12.862069,19 H 4.137931 C 3.5096983,19 3,18.525735 3,17.941176 V 5.0588233 C 3,4.4742645 3.5096983,4 4.137931,4 Z m 0,0"/>
 <path style="fill:none;stroke:#dbdbdb;stroke-width:0.5" d="m 4,5.75 h 9"/>
 <path style="fill:none;stroke:#dbdbdb;stroke-width:0.5" d="m 4,7.25 h 9"/>
 <path style="fill:none;stroke:#dbdbdb;stroke-width:0.5" d="m 4,8.75 h 9"/>
 <path style="fill:none;stroke:#dbdbdb;stroke-width:0.5" d="m 4,10.25 h 9"/>
 <path style="fill:none;stroke:#dbdbdb;stroke-width:0.5" d="m 4,11.75 h 9"/>
 <path style="fill:none;stroke:#dbdbdb;stroke-width:0.5" d="m 4,13.25 h 9"/>
 <path style="fill:none;stroke:#dbdbdb;stroke-width:0.5" d="m 4,14.25 h 9"/>
 <path style="fill:none;stroke:#dbdbdb;stroke-width:0.5" d="m 4,15.75 h 9"/>
 <path style="fill:none;stroke:#dbdbdb;stroke-width:0.5" d="m 4,17.25 h 9"/>
 <path fill="#62a0ea" d="m 7.4247705,6.0316925 c -0.1282595,0 -0.2471515,0.067012 -0.3141635,0.176537 C 7.043595,6.317034 7.0378305,6.45394 7.096197,6.5677885 7.569604,7.4973105 7.7533465,8.4527725 7.760552,9.354913 7.437022,9.219447 7.3519065,9.056104 7.0053175,9.026561 6.644317,8.9962965 6.256656,9.067631 5.936728,9.313344 5.2975915,9.803324 5,10.352918 5,12.172331 c 0,0.55411 0.072057,0.973476 0.2449905,1.297007 0.172214,0.322811 0.5079945,0.539699 0.844496,0.530332 0.337222,-0.0094 0.6326515,-0.18014 0.9086255,-0.420807 0.2759745,-0.241388 0.536096,-0.567801 0.773881,-0.962668 0.4143215,-0.689575 0.4994375,-1.103206 0.6500345,-2.121357 0.297591,0.149876 1.043142,0.388047 1.329204,0.467308 0.2889445,0.07926 0.6362535,0.103761 0.9079045,-0.121054 0.271651,-0.224814 0.351633,-0.578609 0.351633,-1.020312 0,-0.203918 -0.165008,-0.368927 -0.368926,-0.368927 -0.203919,0 -0.368927,0.165009 -0.368927,0.368927 0,0.342266 -0.07854,0.446747 -0.08431,0.451791 -0.0058,0.0043 -0.05476,0.02955 -0.241388,-0.02233 C 9.708718,10.184665 8.892552,9.901099 8.494803,9.702945 8.532273,8.763336 8.383837,7.765361 7.978162,6.769548 h 2.647967 c 0.203918,0 0.368926,-0.1650085 0.368926,-0.3689265 0,-0.2039185 -0.165008,-0.3689265 -0.368926,-0.3689265 z m 0.085746,4.0171195 c 0.067012,0.02882 0.135465,0.06773 0.2031975,0.09944 -0.1131275,1.019591 -0.18095,1.434664 -0.5743755,2.087491 -0.20608,0.342986 -0.428732,0.613196 -0.6268865,0.786851 -0.1988745,0.174376 -0.3696475,0.237064 -0.4431445,0.239226 -0.074217,0.0021 -0.093673,0.0086 -0.173654,-0.14123 -0.079983,-0.149156 -0.1578025,-0.464761 -0.1578025,-0.948256 0,-1.731505 0.336501,-2.034667 0.6485035,-2.273893 0.4616065,-0.263251 0.8162345,-0.04276 1.124162,0.150374 z"/>
 <path fill="#62a0ea" d="m 10.641792,13.5 c -0.223879,0 -0.300838,0.07175 -0.450557,0.151385 -0.14972,0.07964 -0.324626,0.18654 -0.5261175,0.317118 -0.401584,0.261873 -0.9039145,0.617735 -1.441226,1.012339 -1.076022,0.788491 -2.290569,1.731236 -3.0846425,2.361168 -0.156716,0.124121 -0.1854,0.355144 -0.064366,0.515855 0.1210355,0.159995 0.3463135,0.189411 0.50233,0.06529 0.7884765,-0.624909 2.000225,-1.564784 3.063654,-2.345384 0.531015,-0.389581 1.0263485,-0.739703 1.408344,-0.987945 0.190997,-0.124838 0.35401,-0.223131 0.472246,-0.286267 0.117537,-0.06242 0.236474,-0.06888 0.120335,-0.06888 C 10.839787,14.234681 11,14.070382 11,13.86734 11,13.664299 10.839787,13.5 10.641792,13.5 Z m 0,0"/>
 <path style="opacity:0.2" d="m 20.390625,1.5 c -0.152442,0.00599 -0.306802,0.047776 -0.451172,0.1171875 -0.02057,0.00899 -0.04061,0.01892 -0.06055,0.029297 -0.0087,0.00478 -0.01677,0.010623 -0.02539,0.015625 -0.05229,0.02925 -0.101991,0.062803 -0.148438,0.1015625 -0.12823,0.1004099 -0.241973,0.2259311 -0.332031,0.3769531 l -0.263672,0.4433594 -0.988281,1.65625 -0.242188,0.40625 0.03125,0.017578 -5.888672,9.8730465 c 0,0 -0.002,0.002 -0.002,0.002 l -0.205078,0.341797 -0.773437,1.298829 -0.06836,0.115234 -0.519531,0.871094 -0.5878906,0.986328 -0.1953125,0.328125 c -0.311646,0.522439 -0.2163408,1.160752 0.1914062,1.576172 l -0.125,0.210937 L 9.5390625,20.597656 9,21.5 9.9726562,21.386719 10.216797,20.976562 10.539062,20.435547 c 0.575239,0.134266 1.194215,-0.104516 1.50586,-0.626953 l 0.195312,-0.330078 0.587891,-0.984375 0.195313,-0.328125 0.195312,-0.330078 0.197266,-0.328126 6.867187,-11.5156245 0.0293,0.015625 0.242188,-0.40625 0.988281,-1.65625 0.263672,-0.4433594 c 0.08962,-0.1502797 0.145975,-0.3078696 0.171875,-0.4648437 0.01859,-0.093631 0.02424,-0.1883921 0.01367,-0.28125 C 21.968179,2.4229778 21.801821,2.1243993 21.509766,1.9609375 L 20.900391,1.6191406 C 20.742295,1.530863 20.567269,1.4930627 20.390625,1.5 Z"/>
 <path fill="#1a5fb4" d="M 9.734494,19.768348 10.657759,19.737104 9.97269,20.887005 9,21 Z m 0,0"/>
 <path style="fill:#3e87e1" d="m 13.892966,13.552273 c -0.657612,-0.367572 -1.493013,-0.150884 -1.872617,0.485877 l -2.35038,3.942212 c -0.311646,0.522439 -0.21623,1.160533 0.191517,1.575953 l -0.322628,0.540385 0.678206,0.379534 0.322628,-0.54105 c 0.575239,0.134266 1.193724,-0.105021 1.505369,-0.627458 l 2.350381,-3.941546 c 0.379603,-0.637428 0.155823,-1.44634 -0.502476,-1.813907 z m 0,0"/>
 <path style="fill:#bcbcbc" d="M 20.830845,1.1586655 C 20.360631,0.89611731 19.764112,1.0509874 19.492967,1.5056281 L 19.003533,2.3271712 10.4532,16.666295 9.865605,17.652012 12.240698,18.979375 12.828293,17.993657 21.377939,3.6545352 21.868061,2.832992 c 0.271144,-0.4546406 0.111203,-1.0322465 -0.35901,-1.294795 z m 0,0"/>
 <path style="fill:#1c64d8" d="m 11.040795,15.680573 2.375093,1.328029 -0.391959,0.656701 -2.374406,-1.327363 z m 0,0"/>
 <path style="fill:#3e87e1" d="M 20.900175,1.120114 C 20.394268,0.83762547 19.712629,1.0702631 19.372153,1.6412225 l -0.263594,0.4420115 -1.230106,2.0631639 0.912969,0.5104735 0.608877,0.3403161 0.912969,0.510473 1.230105,-2.0631637 0.263594,-0.4420115 C 22.147443,2.4315259 22.014958,1.7435832 21.509051,1.4604299 Z m 0,0"/>
 <path style="fill:#1c64d8" d="m 18.120768,3.739614 2.434814,1.361263 -0.242314,0.4067835 -2.434814,-1.3612626 z m 0,0"/>
</svg>
