<svg xmlns="http://www.w3.org/2000/svg" width="24" height="24" version="1.1">
 <path style="opacity:0.2" d="M 22,10.7 20,11.2 19,12.1 V 18.9 L 22,17.5 Z M 18,7.6 16,8.1 15,9 V 20.7 L 18,19.3 Z M 1,15.5 V 18 L 11,22.5 14,21.15 V 15.5 Z"/>
 <path style="fill:#a32321" d="M 1,15 V 17.5 L 11,22 14,20.65 12.5,15 Z"/>
 <path style="fill:#dc382d" d="M 11,11 1,15 11,19.5 14,12.2 Z"/>
 <path style="fill:#a32321" d="M 1,10.5 V 13 L 11,17.5 14,16.15 12.5,10.5 Z"/>
 <path style="fill:#dc382d" d="M 11,6.5 1,10.5 11,15 14,7.7 Z"/>
 <path style="fill:#a32321" d="M 1,6 V 8.5 L 11,13 14,11.65 12.5,6 Z"/>
 <path style="fill:#dc382d" d="M 11,2 1,6 11,10.5 14,3.2002 Z"/>
 <path style="fill:#a32321" d="M 18,7.1 16,7.6 15,8.5 V 20.2 L 18,18.8 Z M 22,10.2 20,10.7 19,11.6 V 18.4 L 22,17 Z M 11,22 V 4.5 L 14,3.2048 V 20.65 Z"/>
 <path style="fill:#dc382d" d="M 19,9 V 11.6 L 22,10.2 Z M 18,7.1 15,6 V 8.5 Z"/>
 <path style="fill:#ffffff;opacity:0.2" d="M 11 2 L 1 6 L 1.5879 6.2656 L 11 2.5 L 13.404 3.4629 L 13.998 3.2051 L 14 3.2012 L 11 2 z M 15 6 L 15 6.5 L 17.4 7.3789 L 18 7.0996 L 15 6 z M 19 9 L 19 9.5 L 21.424 10.469 L 22 10.199 L 19 9 z"/>
</svg>
