<svg xmlns="http://www.w3.org/2000/svg" width="24" height="24" version="1">
 <circle style="opacity:0.2" cx="12" cy="12.5" r="10"/>
 <circle style="fill:#546e7a" cx="12" cy="12" r="10"/>
 <path style="opacity:0.1" d="m 12.698705,4.500181 c -0.138199,-8e-4 -0.191728,0.1087488 -0.472094,0.962046 l -0.279016,0.848207 -0.42522,0.03795 C 11.28819,6.369544 11.017757,6.4032405 10.921934,6.42316 10.79525,6.44948 10.736226,6.450075 10.705418,6.42431 10.682128,6.40495 10.484657,6.0848725 10.266805,5.7133755 c -0.4353665,-0.7424216 -0.5237715,-0.8616 -0.646199,-0.8616 -0.128662,0 -0.9907815,0.343368 -1.053563,0.4196395 C 8.536238,5.308855 8.511838,5.385741 8.512358,5.4410565 8.5127575,5.49637 8.590215,5.90121 8.684232,6.3417185 8.7782535,6.782231 8.849557,7.1577975 8.8427125,7.1754175 8.8358775,7.1930175 8.7335365,7.266831 8.615036,7.340594 8.4965365,7.4143575 8.2810315,7.5698025 8.137361,7.6854575 7.9936965,7.8011125 7.862788,7.896393 7.846069,7.896393 c -0.01671,0 -0.352563,-0.182496 -0.7466455,-0.4051305 -0.810298,-0.457768 -0.84885,-0.4754235 -0.963162,-0.4319155 -0.123503,0.047005 -0.729904,0.816488 -0.729904,0.926331 0,0.119047 0.029325,0.156125 0.6473155,0.8437435 0.2954625,0.328741 0.536826,0.6211245 0.536826,0.649548 0,0.0284 -0.061838,0.177644 -0.1383915,0.3314705 -0.076556,0.153827 -0.1788545,0.383578 -0.226561,0.510041 -0.04771,0.126459 -0.104338,0.244182 -0.126115,0.262274 -0.02433,0.02024 -0.3806995,0.03656 -0.925215,0.04241 -1.0924511,0.01172 -0.9963381,-0.04089 -1.0993221,0.60937 -0.03988,0.251865 -0.073797,0.495903 -0.074775,0.542406 -0.0036,0.173251 0.069653,0.211711 0.958697,0.504461 l 0.8470911,0.279015 0.03683,0.415175 c 0.020655,0.22871 0.053554,0.500911 0.072544,0.60379 0.019015,0.102883 0.026365,0.19976 0.01674,0.2154 -0.00967,0.01564 -0.3371015,0.21725 -0.727672,0.448657 -0.3905736,0.23141 -0.7416376,0.456252 -0.7812441,0.498879 -0.0396,0.04264 -0.072544,0.115314 -0.072544,0.161829 0,0.136083 0.3490525,0.994908 0.426336,1.049099 0.101038,0.07084 0.188275,0.06037 1.0613756,-0.126115 0.439874,-0.09395 0.814797,-0.163829 0.832582,-0.156249 0.017775,0.0076 0.092462,0.109682 0.1662935,0.227677 0.073827,0.117991 0.2300255,0.333996 0.3470955,0.479906 0.1456635,0.181555 0.2059805,0.282627 0.1919625,0.319194 -0.01127,0.0294 -0.1916185,0.358668 -0.4017825,0.732137 -0.430756,0.765481 -0.455554,0.818717 -0.427452,0.930796 0.02873,0.114623 0.8209885,0.74805 0.9352605,0.747762 0.11786,-2.96e-4 0.1743075,-0.04337 0.8348145,-0.64062 0.3215375,-0.290738 0.608755,-0.532818 0.6383875,-0.537942 0.029645,-0.0051 0.1825405,0.05463 0.340399,0.132811 0.157858,0.07818 0.3992925,0.181738 0.5357095,0.229909 0.1364165,0.04817 0.250986,0.08939 0.254463,0.09152 0.0036,0.002 0.0137,0.417968 0.02344,0.9241 0.02173,1.130291 -0.02983,1.031692 0.601558,1.133919 0.474458,0.07681 0.661589,0.07734 0.737717,0.0011 0.02653,-0.02656 0.172422,-0.427969 0.324774,-0.891734 l 0.276784,-0.842627 0.319193,-0.02455 c 0.175144,-0.01348 0.4476,-0.04648 0.606022,-0.07254 0.286779,-0.04719 0.288842,-0.04704 0.348211,0.02455 0.03281,0.03956 0.236732,0.374385 0.454238,0.744414 0.217503,0.370029 0.426596,0.699068 0.464281,0.729904 0.103187,0.08443 0.176854,0.07092 0.675217,-0.119418 0.475282,-0.181527 0.570628,-0.247812 0.570309,-0.397319 -9.6e-5,-0.04651 -0.07787,-0.451473 -0.172991,-0.900661 -0.09512,-0.449189 -0.16578,-0.828996 -0.157363,-0.842628 0.0084,-0.01364 0.118014,-0.09425 0.244417,-0.179686 0.1264,-0.08544 0.337849,-0.24348 0.469862,-0.351559 0.132017,-0.108079 0.253892,-0.196407 0.270086,-0.196427 0.01619,-2.4e-5 0.361597,0.185381 0.767852,0.411827 0.830528,0.462928 0.825403,0.460635 0.935259,0.433032 0.116894,-0.02936 0.747763,-0.823109 0.747763,-0.94084 0,-0.11014 -0.02664,-0.144374 -0.655129,-0.84486 -0.282168,-0.314493 -0.518023,-0.597575 -0.523433,-0.629459 -0.0055,-0.03188 0.04899,-0.174511 0.120535,-0.316961 0.07155,-0.142451 0.17368,-0.371113 0.227676,-0.507808 0.05399,-0.136696 0.112321,-0.262512 0.129463,-0.280132 0.01854,-0.01904 0.393682,-0.03846 0.925216,-0.04799 0.852753,-0.01528 0.897176,-0.01981 0.960929,-0.08371 0.05233,-0.05244 0.08326,-0.170538 0.143972,-0.544639 0.04264,-0.262718 0.07787,-0.508062 0.07813,-0.545754 0.0012,-0.152287 -0.09041,-0.198837 -0.959813,-0.487719 l -0.848207,-0.281248 -0.03571,-0.414059 c -0.01985,-0.22771 -0.05188,-0.499314 -0.07143,-0.602674 -0.01953,-0.103358 -0.02765,-0.200664 -0.01785,-0.216515 0.0098,-0.01584 0.33723,-0.217795 0.727672,-0.448657 0.390443,-0.230862 0.741641,-0.454797 0.781243,-0.497764 0.0396,-0.04297 0.07255,-0.114462 0.07255,-0.158481 0,-0.1262355 -0.343863,-0.983043 -0.419639,-1.0457505 -0.09628,-0.079667 -0.162076,-0.072878 -0.927448,0.090401 -0.898661,0.191718 -0.94697,0.2002815 -0.979903,0.177454 -0.01543,-0.01068 -0.09752,-0.124035 -0.181918,-0.25223 -0.0844,-0.128195 -0.238688,-0.336979 -0.342631,-0.464282 C 16.692948,8.4967995 16.6083,8.378856 16.608276,8.36294 c -2e-5,-0.01592 0.185954,-0.360874 0.412943,-0.7678505 0.226986,-0.406972 0.420828,-0.77071 0.431917,-0.8080295 0.03836,-0.129095 -0.04167,-0.2292335 -0.444193,-0.552451 -0.428978,-0.344457 -0.504158,-0.37633 -0.657361,-0.2712025 -0.04352,0.02988 -0.348891,0.296515 -0.677449,0.5926285 -0.328563,0.2961135 -0.620199,0.5390585 -0.648433,0.5390585 -0.02825,0 -0.176687,-0.063636 -0.330354,-0.140624 C 14.541679,6.8774795 14.322043,6.7824225 14.207626,6.742411 13.872423,6.625188 13.887449,6.6739935 13.887317,5.7055895 13.887209,4.9357677 13.882467,4.8598844 13.825933,4.7669812 13.788853,4.7060982 13.728572,4.6591185 13.674149,4.6475586 13.535845,4.6181418 12.758078,4.500565 12.698705,4.500181 Z"/>
 <path style="fill:#768b95" d="m 12.698705,4.000096 c -0.138199,-8e-4 -0.191728,0.1087487 -0.472094,0.9620457 l -0.279016,0.8482073 -0.42522,0.03795 C 11.28819,5.869459 11.017757,5.9031555 10.921934,5.923075 10.79525,5.949395 10.736226,5.94999 10.705418,5.924225 10.682128,5.904865 10.484657,5.5847875 10.266805,5.2132905 9.8314385,4.4708688 9.7430335,4.3516904 9.620606,4.3516904 c -0.128662,0 -0.9907815,0.343368 -1.053563,0.4196394 -0.030805,0.037439 -0.055205,0.1143259 -0.054685,0.1696414 3.995e-4,0.055314 0.077857,0.4601538 0.171874,0.9006623 0.094022,0.4405125 0.165325,0.816079 0.1584805,0.833699 -0.00683,0.0176 -0.109176,0.091414 -0.2276765,0.1651765 C 8.4965365,6.9142725 8.2810315,7.0697175 8.137361,7.1853725 7.9936965,7.3010275 7.862788,7.396308 7.846069,7.396308 7.829359,7.396308 7.493506,7.213812 7.0994235,6.9911775 6.2891255,6.5334095 6.2505735,6.515754 6.1362615,6.559262 6.0127585,6.606267 5.4063575,7.37575 5.4063575,7.485593 c 0,0.119047 0.029325,0.156125 0.6473155,0.8437435 0.2954625,0.328741 0.536826,0.6211245 0.536826,0.649548 0,0.0284 -0.061838,0.177644 -0.1383915,0.3314705 -0.076556,0.153827 -0.1788545,0.3835775 -0.226561,0.5100405 -0.04771,0.126459 -0.104338,0.2441825 -0.126115,0.2622745 -0.02433,0.02024 -0.3806995,0.03656 -0.925215,0.04241 -1.0924511,0.01172 -0.9963381,-0.04089 -1.0993221,0.60937 -0.03988,0.251865 -0.073797,0.495903 -0.074775,0.542406 -0.0036,0.173251 0.069653,0.211711 0.958697,0.504461 l 0.8470911,0.279015 0.03683,0.415175 c 0.020655,0.22871 0.053554,0.500911 0.072544,0.60379 0.019015,0.102883 0.026365,0.19976 0.01674,0.2154 -0.00967,0.01564 -0.3371015,0.21725 -0.727672,0.448657 -0.3905736,0.23141 -0.7416376,0.456252 -0.7812441,0.498879 -0.0396,0.04263 -0.072544,0.115314 -0.072544,0.161829 0,0.136083 0.3490525,0.994908 0.426336,1.049099 0.101038,0.07084 0.188275,0.06037 1.0613756,-0.126115 0.439874,-0.09395 0.814797,-0.163829 0.832582,-0.156249 0.017775,0.0076 0.092462,0.109682 0.1662935,0.227677 0.073827,0.117991 0.2300255,0.333996 0.3470955,0.479906 0.1456635,0.181554 0.2059805,0.282627 0.1919625,0.319194 -0.01127,0.0294 -0.1916185,0.358668 -0.4017825,0.732137 -0.430756,0.765481 -0.455554,0.818717 -0.427452,0.930796 0.02873,0.114623 0.8209885,0.74805 0.9352605,0.747762 0.11786,-2.96e-4 0.1743075,-0.04338 0.8348145,-0.64062 0.3215375,-0.290738 0.608755,-0.532818 0.6383875,-0.537942 0.029645,-0.0051 0.1825405,0.05463 0.340399,0.132811 0.157858,0.07818 0.3992925,0.181738 0.5357095,0.229909 0.1364165,0.04817 0.250986,0.08939 0.254463,0.09152 0.0036,0.002 0.0137,0.417968 0.02344,0.9241 0.02173,1.130291 -0.02983,1.031692 0.601558,1.133919 0.474458,0.07681 0.661589,0.07734 0.737717,0.0011 0.02653,-0.02656 0.172422,-0.427969 0.324774,-0.891734 l 0.276784,-0.842627 0.319193,-0.02455 c 0.175144,-0.01348 0.4476,-0.04648 0.606022,-0.07255 0.286779,-0.04719 0.288842,-0.04704 0.348211,0.02455 0.03281,0.03956 0.236732,0.374385 0.454238,0.744414 0.217503,0.370029 0.426596,0.699068 0.464281,0.729904 0.103187,0.08443 0.176854,0.07092 0.675217,-0.119418 0.475282,-0.181527 0.570628,-0.247812 0.570309,-0.397319 -9.6e-5,-0.04651 -0.07787,-0.451473 -0.172991,-0.900661 -0.09512,-0.449189 -0.16578,-0.828996 -0.157363,-0.842628 0.0084,-0.01364 0.118014,-0.09425 0.244417,-0.179686 0.1264,-0.08544 0.337849,-0.24348 0.469862,-0.351559 0.132017,-0.108079 0.253892,-0.196407 0.270086,-0.196427 0.01619,-2.4e-5 0.361597,0.185381 0.767852,0.411827 0.830528,0.462928 0.825403,0.460635 0.935259,0.433032 0.116894,-0.02936 0.747763,-0.823109 0.747763,-0.94084 0,-0.11014 -0.02664,-0.144374 -0.655129,-0.84486 -0.282168,-0.314493 -0.518023,-0.597575 -0.523433,-0.629459 -0.0055,-0.03188 0.04899,-0.174511 0.120535,-0.316961 0.07155,-0.142451 0.17368,-0.371113 0.227676,-0.507808 0.05399,-0.136696 0.112321,-0.262512 0.129463,-0.280132 0.01854,-0.01904 0.393682,-0.03845 0.925216,-0.04799 0.852753,-0.01528 0.897176,-0.01981 0.960929,-0.0837 0.05233,-0.05244 0.08326,-0.170538 0.143972,-0.544639 0.04264,-0.262718 0.07787,-0.508062 0.07813,-0.545754 0.0012,-0.152287 -0.09041,-0.198837 -0.959813,-0.487719 l -0.848207,-0.281248 -0.03571,-0.414059 c -0.01985,-0.22771 -0.05188,-0.499314 -0.07143,-0.602674 -0.01953,-0.103358 -0.02765,-0.200664 -0.01785,-0.216515 0.0098,-0.01584 0.33723,-0.217795 0.727672,-0.448657 0.390443,-0.230862 0.741641,-0.454797 0.781243,-0.4977645 0.0396,-0.042965 0.07255,-0.1144615 0.07255,-0.158481 0,-0.126235 -0.343863,-0.9830425 -0.419639,-1.04575 -0.09628,-0.079667 -0.162076,-0.072878 -0.927448,0.090401 -0.898661,0.191718 -0.94697,0.2002815 -0.979903,0.177454 -0.01543,-0.01068 -0.09752,-0.124035 -0.181918,-0.25223 -0.0844,-0.128195 -0.238688,-0.336979 -0.342631,-0.464282 C 16.692948,7.9967145 16.6083,7.878771 16.608276,7.862855 c -2e-5,-0.01592 0.185954,-0.360874 0.412943,-0.7678505 0.226986,-0.406972 0.420828,-0.77071 0.431917,-0.8080295 0.03836,-0.129095 -0.04167,-0.2292335 -0.444193,-0.552451 -0.428978,-0.344457 -0.504158,-0.37633 -0.657361,-0.2712025 -0.04352,0.02988 -0.348891,0.296515 -0.677449,0.5926285 -0.328563,0.2961135 -0.620199,0.5390585 -0.648433,0.5390585 -0.02825,0 -0.176687,-0.063635 -0.330354,-0.140624 C 14.541679,6.3773945 14.322043,6.2823375 14.207626,6.242326 13.872423,6.125103 13.887449,6.1739085 13.887317,5.2055045 13.887209,4.4356827 13.882467,4.3597993 13.825933,4.266896 13.788853,4.2060131 13.728572,4.1590334 13.674149,4.1474735 13.535845,4.1180566 12.758078,4.0004799 12.698705,4.000096 Z"/>
 <path style="opacity:0.2" d="m 11,8.5 h 2 v 4 h 2 l -3,4 -3,-4 h 2 z"/>
 <path style="fill:#ffffff" d="m 11,8 h 2 v 4 h 2 l -3,4 -3,-4 h 2 z"/>
 <path style="opacity:0.1;fill:#ffffff" d="M 12,2 A 10,10 0 0 0 2,12 10,10 0 0 0 2.0107422,12.291016 10,10 0 0 1 12,2.5 10,10 0 0 1 21.989258,12.208985 10,10 0 0 0 22,12 10,10 0 0 0 12,2 Z"/>
 <path style="opacity:0.1;fill:#ffffff" d="m 12.698242,4 c -0.138199,-8e-4 -0.191313,0.1086171 -0.471679,0.961914 L 11.947266,5.810547 11.522461,5.848632 C 11.288275,5.869792 11.017698,5.902931 10.921875,5.92285 10.795192,5.94917 10.735886,5.94959 10.705078,5.92385 10.681788,5.9044905 10.484453,5.58441 10.266602,5.212913 9.8312345,4.4704914 9.7435215,4.351585 9.621094,4.351585 c -0.1286625,0 -0.9909295,0.3436505 -1.053711,0.4199219 -0.030805,0.037439 -0.055207,0.1146063 -0.054687,0.1699218 1.445e-4,0.02004 0.045005,0.2292973 0.0625,0.3261718 C 8.654473,5.186436 9.493845,4.851585 9.621094,4.851585 c 0.1224275,0 0.2101405,0.1189065 0.645508,0.861328 0.217851,0.371497 0.415186,0.6915775 0.438476,0.7109375 0.03081,0.025765 0.09011,0.025345 0.216797,-0.001 0.09582,-0.01992 0.3664,-0.053058 0.600586,-0.074218 L 11.947266,6.310547 12.226563,5.461914 C 12.506929,4.6086169 12.560043,4.4992 12.698242,4.5 c 0.05937,3.839e-4 0.837282,0.118044 0.975586,0.1474609 0.05442,0.01156 0.115264,0.058258 0.152344,0.1191406 0.05653,0.092903 0.06142,0.1696314 0.06152,0.939453 1.32e-4,0.968404 -0.01489,0.91891 0.320312,1.036133 0.114417,0.04001 0.333638,0.134924 0.487305,0.211914 0.153667,0.076988 0.301828,0.140625 0.330078,0.140625 0.02823,0 0.319874,-0.242949 0.648437,-0.5390625 0.328559,-0.2961135 0.634214,-0.561917 0.677734,-0.591797 0.153204,-0.1051275 0.22825,-0.073949 0.657227,0.270508 0.154371,0.123955 0.25027,0.2096745 0.321289,0.2822265 0.02927,-0.05689 0.119894,-0.21888 0.123047,-0.229492 0.03836,-0.129095 -0.04181,-0.229517 -0.444336,-0.5527345 -0.428977,-0.344457 -0.504023,-0.376612 -0.657227,-0.2714845 -0.04352,0.02988 -0.349175,0.29666 -0.677734,0.5927735 -0.328563,0.2961135 -0.620203,0.5390625 -0.648437,0.5390625 -0.02825,0 -0.176411,-0.063637 -0.330078,-0.140625 C 14.541646,6.3771115 14.322425,6.282199 14.208008,6.2421875 13.872804,6.1249645 13.887828,6.173482 13.887696,5.205078 13.887587,4.4352563 13.882695,4.3595048 13.826172,4.2666016 13.789092,4.2057186 13.728251,4.1590208 13.673828,4.1474609 13.535524,4.118044 12.757615,4.0003839 12.698242,4 Z M 6.220703,6.5439455 c -0.03235,-0.0027 -0.055407,0.00475 -0.083984,0.015625 -0.1235035,0.047005 -0.730469,0.815938 -0.730469,0.925781 0,0.064359 0.0312,0.1285565 0.136719,0.2607425 C 5.728405,7.47908 6.0496805,7.092697 6.136719,7.0595705 6.2510305,7.0160605 6.2893115,7.0334405 7.0996095,7.491211 7.493692,7.7138455 7.828993,7.8964845 7.845703,7.8964845 c 0.01672,0 0.148328,-0.095282 0.2919925,-0.2109375 C 8.281366,7.569892 8.496735,7.414584 8.6152345,7.3408205 8.733735,7.2670575 8.8359385,7.193381 8.8427735,7.175781 8.8463735,7.166496 8.7914375,6.9014765 8.7597655,6.736328 8.7178555,6.768798 8.690421,6.794019 8.6152345,6.8408205 8.496735,6.914584 8.281366,7.069892 8.1376955,7.185547 7.994031,7.301202 7.862422,7.3964845 7.845703,7.3964845 7.828993,7.3964845 7.493692,7.2138455 7.0996095,6.991211 6.491886,6.647885 6.317754,6.552014 6.220703,6.5439455 Z M 16.762695,8.076172 c -0.04434,0.083859 -0.154304,0.281162 -0.154297,0.287109 2.4e-5,0.015915 0.08453,0.1334435 0.188477,0.2607425 0.103943,0.127303 0.258378,0.3366485 0.342773,0.4648435 0.0844,0.128195 0.166211,0.2412735 0.181641,0.2519535 0.03293,0.022825 0.08181,0.013985 0.980469,-0.1777345 0.765373,-0.163279 0.830482,-0.1695115 0.926757,-0.089844 0.05028,0.04161 0.213719,0.4252625 0.321289,0.7207035 0.002,-0.00185 0.02503,-0.015155 0.02636,-0.0166 0.0396,-0.042965 0.07227,-0.1151605 0.07227,-0.15918 0,-0.126235 -0.344145,-0.983191 -0.419922,-1.0458985 -0.09627,-0.079667 -0.161385,-0.072458 -0.926758,0.09082 -0.898661,0.191718 -0.947536,0.200562 -0.980469,0.1777345 -0.01543,-0.01068 -0.09725,-0.124735 -0.18164,-0.25293 -0.0844,-0.128195 -0.238831,-0.336564 -0.342774,-0.463867 -0.019,-0.023265 -0.01687,-0.025775 -0.03418,-0.04785 z M 6.457031,9.298828 c -0.00265,0.00541 -0.0022,0.00629 -0.0049,0.01172 C 6.3755755,9.464375 6.273275,9.6938505 6.2255685,9.8203135 6.1778585,9.9467725 6.121369,10.064917 6.099592,10.083009 6.075262,10.103249 5.718326,10.119154 5.1738105,10.124999 4.0813771,10.13672 4.1781793,10.08412 4.0751953,10.734375 4.0353153,10.98624 4.0009785,11.23084 4,11.277344 c -0.0011,0.05303 0.016287,0.0929 0.050781,0.131835 0.010704,-0.07314 0.011573,-0.0937 0.024414,-0.174804 0.1029841,-0.650255 0.00618,-0.597655 1.0986328,-0.609375 0.5445155,-0.0058 0.9014515,-0.02175 0.9257815,-0.04199 0.021775,-0.01809 0.078267,-0.136237 0.1259765,-0.262696 0.047705,-0.126463 0.150007,-0.355938 0.2265625,-0.509765 0.076554,-0.1538265 0.138672,-0.3036315 0.138672,-0.3320315 0,-0.01204 -0.061416,-0.090233 -0.1337895,-0.1796875 z m 11.658203,1.895508 c -0.0033,0.0026 -0.04721,0.02826 -0.04785,0.02929 -0.0098,0.01585 -0.002,0.112461 0.01758,0.21582 0.01955,0.10336 0.05143,0.375806 0.07129,0.603516 l 0.03614,0.414062 0.847656,0.28125 c 0.605373,0.201152 0.822868,0.284492 0.905274,0.368165 0.02486,-0.163845 0.05451,-0.354561 0.05469,-0.38086 0.0012,-0.152286 -0.09056,-0.198423 -0.959961,-0.487305 l -0.847656,-0.28125 -0.03614,-0.414062 c -0.01147,-0.131534 -0.02617,-0.228694 -0.04101,-0.348633 z M 5.8847655,13.324219 c -0.0465,0.03652 -0.3153575,0.202507 -0.680664,0.418945 -0.3905736,0.23141 -0.7416434,0.456396 -0.78125,0.499024 -0.0396,0.04263 -0.072266,0.115594 -0.072266,0.162109 0,0.04484 0.043091,0.17512 0.09668,0.322266 0.056979,-0.05217 0.3784747,-0.259224 0.7568359,-0.483399 0.3905705,-0.231406 0.717869,-0.432602 0.727539,-0.448242 0.00962,-0.01564 0.0024,-0.112937 -0.0166,-0.21582 -0.00802,-0.04345 -0.019265,-0.167077 -0.030275,-0.254883 z m 11.6601565,1.886719 c -0.0036,0.0072 -0.0073,0.01759 -0.01074,0.02441 -0.07155,0.142451 -0.125602,0.285504 -0.120117,0.317383 0.0054,0.03189 0.24127,0.314413 0.523437,0.628906 0.287571,0.320515 0.42496,0.477209 0.515625,0.589844 0.07907,-0.113785 0.139649,-0.210742 0.139649,-0.245117 0,-0.11014 -0.02679,-0.144241 -0.655274,-0.844727 -0.211366,-0.235581 -0.310581,-0.362755 -0.392578,-0.470703 z M 7.2373045,16.451172 c -0.073005,0.134948 -0.1253315,0.234415 -0.262695,0.478515 -0.430756,0.765481 -0.4558365,0.818585 -0.4277345,0.930664 0.006,0.02392 0.059728,0.07905 0.1191405,0.137696 0.065002,-0.127625 0.136383,-0.26233 0.308594,-0.56836 0.210164,-0.373469 0.390097,-0.703022 0.401367,-0.732422 0.011645,-0.03038 -0.0414,-0.117518 -0.138672,-0.246093 z m 8.0019535,1.338867 c -0.02251,0.01738 -0.07919,0.05596 -0.08203,0.06055 -0.0084,0.01363 0.06211,0.393585 0.157226,0.842773 0.05778,0.27287 0.07401,0.377087 0.105469,0.546875 0.04444,-0.04421 0.06751,-0.08893 0.06738,-0.146484 -9.6e-5,-0.04651 -0.07774,-0.451203 -0.172852,-0.900391 -0.04552,-0.21496 -0.04687,-0.252665 -0.0752,-0.40332 z"/>
</svg>
