<svg xmlns="http://www.w3.org/2000/svg" width="24" height="24" version="1">
 <rect style="opacity:0.2" width="20" height="20" x="2" y="2.5" rx="6" ry="6"/>
 <rect style="fill:#e91e63" width="20" height="20" x="2" y="2" rx="6" ry="6"/>
 <path style="opacity:0.2;fill:#ffffff" d="M 8,2 C 4.676,2 2,4.676 2,8 v 0.5 c 0,-3.324 2.676,-6 6,-6 h 8 c 3.324,0 6,2.676 6,6 V 8 C 22,4.676 19.324,2 16,2 Z"/>
 <path style="opacity:0.2" d="m 6,5.5 c -0.55,0 -1,0.45 -1,1 v 11 l 1.999999,2 H 18 c 0.55,0 1,-0.45 1,-1 v -12 c 0,-0.55 -0.45,-1 -1,-1 z m 0.999999,2 H 17 v 10 h -1 v -5 H 7.999999 v 5 h -1 z M 12,13.5 h 2 v 4 h -2 z"/>
 <path style="fill:#ffffff" d="M 6,5 C 5.45,5 5,5.45 5,6 v 11 l 1.999999,2 H 18 c 0.55,0 1,-0.45 1,-1 V 6 C 19,5.45 18.55,5 18,5 Z M 6.999999,7 H 17 V 17 H 16 V 12 H 7.999999 v 5 h -1 z M 12,13 h 2 v 4 h -2 z"/>
</svg>
