<svg xmlns="http://www.w3.org/2000/svg" xmlns:xlink="http://www.w3.org/1999/xlink" width="24" height="24" version="1.1">
 <defs>
  <linearGradient id="linearGradient933">
   <stop style="stop-color:#814f24" offset="0"/>
   <stop style="stop-color:#814f24;stop-opacity:0" offset="1"/>
  </linearGradient>
  <linearGradient id="linearGradient935" x1="18.282" x2="30.205" y1="18.229" y2="14.071" gradientTransform="matrix(0.49999999,0,0,0.51797759,-0.49999938,-1.2625514)" gradientUnits="userSpaceOnUse" xlink:href="#linearGradient933"/>
 </defs>
 <path style="opacity:0.2" d="m 7.7705084,10.499953 c -0.426713,0 -0.770508,0.409354 -0.770508,0.918149 v 5.756537 c -0.2283019,0.341126 -0.4572444,0.612126 -0.6855469,0.574331 -0.168153,-0.02784 -0.314453,0.179957 -0.314453,0.403399 v 0.945497 c 0,0.223442 0.144012,0.4034 0.314453,0.4034 h 1.0585939 c 0.276071,0.351073 -0.114745,0.996601 0.248047,0.996734 l 5.8789066,0.002 5.878906,-0.002 c 0.362792,-1.32e-4 -0.02802,-0.64566 0.248047,-0.996734 h 1.058594 c 0.170441,0 0.314453,-0.179911 0.314453,-0.403353 v -0.945497 c 0,-0.223442 -0.1463,-0.431234 -0.314453,-0.403399 -0.228303,0.03779 -0.457245,-0.233205 -0.685547,-0.574331 v -5.756584 c 0,-0.508795 -0.343795,-0.918149 -0.770508,-0.918149 h -5.729492 z"/>
 <path style="fill:#c7b198" d="m 7.7705084,10 c -0.426713,0 -0.770508,0.409354 -0.770508,0.918149 v 5.756537 c -0.2283019,0.341126 -0.4572444,0.612126 -0.6855469,0.574331 -0.168153,-0.02784 -0.314453,0.179957 -0.314453,0.403399 v 0.945497 c 0,0.223442 0.144012,0.4034 0.314453,0.4034 h 1.0585939 c 0.276071,0.351073 -0.114745,0.996601 0.248047,0.996734 L 13.500001,20 19.378907,19.998 c 0.362792,-1.32e-4 -0.02802,-0.64566 0.248047,-0.996734 h 1.058594 c 0.170441,0 0.314453,-0.179911 0.314453,-0.403353 v -0.945497 c 0,-0.223442 -0.1463,-0.431234 -0.314453,-0.403399 -0.228303,0.03779 -0.457245,-0.233205 -0.685547,-0.574331 V 10.918149 C 20.000001,10.409354 19.656206,10 19.229493,10 h -5.729492 z"/>
 <rect style="fill:#3f3f3f" width="2" height="4" x="10" y="14" rx=".914" ry=".642"/>
 <path style="fill:#3f3f3f" d="m 10.540371,13.002057 c -0.154134,-0.0077 -0.214164,0.197195 -0.08022,0.273857 0.533603,0.175667 0.997162,0.491422 1.421134,0.886351 0.168268,0.09977 0.263009,-0.303646 0.09474,-0.403416 -0.503566,-0.36551 -0.933927,-0.548007 -1.36622,-0.735337 -0.02098,-0.01286 -0.04485,-0.02024 -0.06943,-0.02145 z"/>
 <path style="fill:#3f3f3f" d="m 16.520013,12.975557 c 0.154134,-0.0077 0.214165,0.197195 0.08022,0.273858 -0.533603,0.175667 -0.997162,0.491421 -1.421134,0.88635 -0.168268,0.09977 -0.263009,-0.303646 -0.09474,-0.403416 0.503565,-0.36551 0.933926,-0.548006 1.366219,-0.735336 0.02098,-0.01286 0.04486,-0.02024 0.06943,-0.02146 z"/>
 <rect style="fill:#3f3f3f" width="2" height="4" x="15" y="14" rx=".914" ry=".642"/>
 <rect style="fill:#a8271e" width="13" height="4" x="7" y="9"/>
 <path style="opacity:0.1" d="m 2.0071154,7.2555243 c 0,0 3.1451496,1.2040525 4.3877026,0.5754435 C 7.3278134,7.3589648 6.9441825,4.9614575 6.9441825,4.9614575 8.4218274,5.2257833 9.825753,5.7552198 11.157,5.4827558 c 0.671816,-0.1748335 0.14366,-0.9546834 0.295358,-1.0816759 0,0 2.659512,-0.771029 3.841169,-0.8588472 2.438286,-0.087235 4.913503,2.7904886 7.206474,6.3361355 l -2.55661,7.6366318 0.0083,-3.072748 C 17.985731,13.080375 16.493367,11.761271 16.623525,9.7324347 15.923578,11.778301 13.135624,13.581814 10.392321,13.06666 9.1590604,12.835071 8.4070734,12.700924 7.9434159,12.276934 6.4152375,13.199044 7.4408229,15.786887 7.0000004,17.374988 6.3390595,15.129438 4.731401,13.905216 4.3505038,13.248553 4.1202954,12.191638 3.3402489,10.905624 4.1688179,10.289866 Z"/>
 <path style="fill:#5c2e07" d="m 2.0071154,6.7555303 c 0,0 3.1451496,1.2040525 4.3877026,0.5754435 C 7.3278134,6.8589708 6.9441825,4.4614635 6.9441825,4.4614635 8.4218274,4.7257893 9.825753,5.2552258 11.157,4.9827618 c 0.671816,-0.1748335 0.14366,-0.9546834 0.295358,-1.0816759 0,0 2.659512,-0.771029 3.841169,-0.8588472 2.438286,-0.087235 4.913503,2.7904886 7.206474,6.3361355 l -2.55661,7.6366318 0.0083,-3.072748 C 17.985731,12.580381 16.493367,11.261277 16.623525,9.2324407 15.923578,11.278307 13.135624,13.08182 10.392321,12.566666 9.1590604,12.335077 8.4070734,12.20093 7.9434159,11.77694 6.4152375,12.69905 7.4408229,15.286893 7.0000004,16.874994 6.3390595,14.629444 4.731401,13.405222 4.3505038,12.748559 4.1202954,11.691644 3.3402489,10.40563 4.1688179,9.7898722 Z"/>
 <path style="opacity:0.1;fill:#ffffff" d="M 15.292969 3.0429688 C 14.111312 3.1307869 11.453125 3.9003906 11.453125 3.9003906 C 11.381368 3.960461 11.460621 4.1695792 11.494141 4.3886719 C 11.566505 4.3677412 14.127794 3.629562 15.292969 3.5429688 C 17.692163 3.4571323 20.126768 6.2457431 22.388672 9.7128906 L 22.5 9.3789062 C 20.207029 5.8332594 17.731255 2.9557337 15.292969 3.0429688 z M 6.9433594 4.4609375 C 6.9433594 4.4609375 6.9711395 4.6801835 6.9941406 4.9726562 C 8.4526569 5.2398952 9.8406898 5.7516753 11.15625 5.4824219 C 11.582176 5.3715788 11.526482 5.0266662 11.466797 4.75 C 11.420573 4.853003 11.328294 4.937649 11.15625 4.9824219 C 9.825003 5.2548859 8.4210043 4.7252633 6.9433594 4.4609375 z M 7.0078125 5.8632812 C 6.9718101 6.4790225 6.8270562 7.1112635 6.3945312 7.3300781 C 5.1519782 7.9586871 2.0078125 6.7558594 2.0078125 6.7558594 L 2.4824219 7.421875 C 3.3960897 7.7257238 5.4412952 8.3123213 6.3945312 7.8300781 C 6.9557847 7.5461396 7.0293393 6.5997284 7.0078125 5.8632812 z M 3.96875 10.007812 C 3.8079264 10.240341 3.7777559 10.528433 3.8203125 10.845703 C 3.8626345 10.629768 3.9665854 10.438722 4.1679688 10.289062 L 3.96875 10.007812 z M 7.0742188 14.322266 C 7.0644481 14.818872 7.0937989 15.340667 7.1113281 15.851562 C 7.1173905 15.356706 7.0898269 14.835315 7.0742188 14.322266 z M 19.949219 14.441406 L 19.943359 17.015625 L 19.945312 17.011719 L 19.951172 14.441406 C 19.950722 14.441095 19.949669 14.441718 19.949219 14.441406 z"/>
 <path style="fill:url(#linearGradient935)" d="M 0.5,6.6796635 C 1.7188191,7.13902 2.6906843,8.0731376 4.1821135,7.9081607 7.4836719,7.5429514 10.409978,4.8689593 14.105882,5.0050154 L 16.623523,8.819821 C 12.94182,11.21791 5.095809,12.943944 0.5,6.6796635 Z"/>
 <path style="opacity:0.2" d="M 0.5 7.1796875 C 5.095809 13.443967 12.941344 11.7184 16.623047 9.3203125 L 16.386719 8.9609375 C 12.799002 11.170297 5.7332402 12.65218 1.1757812 7.4941406 C 0.95423108 7.3818944 0.7343623 7.2680155 0.5 7.1796875 z"/>
</svg>
