<svg xmlns="http://www.w3.org/2000/svg" width="24" height="24" version="1">
 <circle style="opacity:0.2" class="cls-1" cx="12" cy="12.5" r="10"/>
 <circle style="fill:#f071e0" class="cls-1" cx="12" cy="12" r="10"/>
 <path style="opacity:0.2;fill:#ffffff" d="M 12,2 A 10,10 0 0 0 2,12 10,10 0 0 0 2.0107422,12.291016 10,10 0 0 1 12,2.5 10,10 0 0 1 21.989258,12.208985 10,10 0 0 0 22,12 10,10 0 0 0 12,2 Z"/>
 <path style="opacity:0.2" d="m 11,6 v 7 h 2 V 6 Z m 3,1.3496094 V 9.5410156 C 15.236022,10.254632 15.998173,11.572766 16,13 c 0,2.209139 -1.790861,4 -4,4 -2.209139,0 -4,-1.790861 -4,-4 0.00183,-1.427234 0.7639776,-2.745368 2,-3.4589844 V 7.3554688 C 7.6069797,8.2015232 6.0052149,10.461826 6,13 c 0,3.313708 2.6862915,6 6,6 3.313708,0 6,-2.686292 6,-6 -0.0027,-2.540325 -1.604956,-4.8036165 -4,-5.6503906 z"/>
 <path style="fill:#ffffff" d="M 14 6.3496094 L 14 8.5410156 A 4 4 0 0 1 16 12 A 4 4 0 0 1 12 16 A 4 4 0 0 1 8 12 A 4 4 0 0 1 10 8.5410156 L 10 6.3554688 A 6 6 0 0 0 6 12 A 6 6 0 0 0 12 18 A 6 6 0 0 0 18 12 A 6 6 0 0 0 14 6.3496094 z"/>
 <path style="fill:#ffffff" d="m 11,5 h 2 v 7 h -2 z"/>
</svg>
