<svg xmlns="http://www.w3.org/2000/svg" width="24" height="24" version="1">
 <path style="fill:#0091cf" d="m 21,12.487715 c 0,2.540378 -0.997124,4.847865 -2.62134,6.552432 -1.730318,1.815917 -4.606784,0.003 -7.313111,0.003 -2.7478395,0 -4.7887454,1.77798 -6.5233292,-0.087 C 2.9648016,17.260105 2,14.986582 2,12.487715 2,7.2410123 6.2532949,2.9877174 11.5,2.9877174 c 5.246704,0 9.5,4.2532949 9.5,9.4999976 z"/>
 <path style="opacity:0.1;fill:#ffffff" d="M 11.5 2.9882812 C 6.2532949 2.9882812 2 7.2415786 2 12.488281 C 2 12.573939 2.0094656 12.657073 2.0117188 12.742188 C 2.1432895 7.6101623 6.3362516 3.4882812 11.5 3.4882812 C 16.66309 3.4882812 20.855692 7.6091194 20.988281 12.740234 C 20.990499 12.655796 21 12.573254 21 12.488281 C 21 7.2415786 16.746704 2.9882812 11.5 2.9882812 z"/>
 <path style="opacity:0.2" d="m 16,2.5 -2,2 h -3 v 3 l -2,2 2,2 v 3 h 3 l 2,2 2,-2 h 3 v -3 l 2,-2 -2,-2 v -3 h -3 z"/>
 <path style="fill:#ff8a47" d="m 16,2 -2,2 h -3 v 3 l -2,2 2,2 v 3 h 3 l 2,2 2,-2 h 3 V 11 L 23,9 21,7 V 4 h -3 z"/>
 <circle style="opacity:0.2" cx="16" cy="9.5" r="4"/>
 <circle style="fill:#ffcc42" cx="16" cy="9" r="4"/>
 <path style="opacity:0.2;fill:#ffffff" d="m 16,2 -2,2 h -3 v 0.5 h 3 l 2,-2 2,2 h 3 V 4 H 18 Z M 11,7 9,9 9.25,9.25 11,7.5 Z M 21,7 V 7.5 L 22.75,9.25 23,9 Z"/>
 <path style="opacity:0.2;fill:#ffffff" d="M 16,5 A 4,4 0 0 0 12,9 4,4 0 0 0 12.01074,9.288086 4,4 0 0 1 16,5.5 4,4 0 0 1 19.989258,9.211914 4,4 0 0 0 20,9 4,4 0 0 0 16,5 Z"/>
 <circle style="opacity:0.2" cx="11.5" cy="15.5" r="4"/>
 <path style="opacity:0.2" d="M 11.5,10.5 A 4.5,4.5 0 0 0 7,15 4.5,4.5 0 0 0 7.0585938,15.697266 3,3 0 0 0 6,15.5 a 3,3 0 0 0 -3,3 3,3 0 0 0 3,3 h 11 a 3,3 0 0 0 3,-3 3,3 0 0 0 -3,-3 3,3 0 0 0 -1.060547,0.193359 A 4.5,4.5 0 0 0 16,15 4.5,4.5 0 0 0 11.5,10.5 Z"/>
 <circle style="fill:#ffffff" cx="6" cy="18" r="3"/>
 <circle style="fill:#ffffff" cx="11.5" cy="14.5" r="4.5"/>
 <circle style="fill:#ffffff" cx="17" cy="18" r="3"/>
 <rect style="fill:#ffffff" width="11" height="4" x="6" y="17"/>
</svg>
