<svg xmlns="http://www.w3.org/2000/svg" width="24" height="24" version="1.1" viewBox="0 0 24 24">
 <defs>
  <style id="current-color-scheme" type="text/css">
   .ColorScheme-Text { color:#31363b; } .ColorScheme-Highlight { color:#3daee9; }
  </style>
 </defs>
 <path style="opacity:0.3;fill:currentColor" class="ColorScheme-Text" d="m 8.79883,4.7694612 c -0.8405099,0.0524 -1.8082599,0.3152599 -2.9668,0.8945299 l -0.33594,0.16797 0.1679701,0.33594 c 0.72764,1.45528 0.89251,2.49874 0.80664,3.3574199 -0.0859,0.85869 -0.43164,1.55664 -0.80664,2.30664 -0.375,0.75 -0.77923,1.55205 -0.88086,2.56836 -0.10163,1.01631 0.1085,2.22286 0.88086,3.76758 l 0.16797,0.33594 0.33594,-0.16797 c 1.45528,-0.72764 2.49874,-0.89251 3.35742,-0.80664 0.8586899,0.0859 1.5566399,0.43164 2.3066399,0.80664 0.75,0.375 1.55205,0.77923 2.56836,0.88086 1.01631,0.10163 2.22286,-0.1085 3.76758,-0.88086 l 0.33594,-0.16797 -0.16797,-0.33594 c -0.72764,-1.45527 -0.89251,-2.49874 -0.80664,-3.35742 0.0859,-0.85868 0.43164,-1.55664 0.80664,-2.30664 0.375,-0.75 0.77922,-1.55205 0.88086,-2.56836 0.10163,-1.0163199 -0.1085,-2.2228599 -0.88086,-3.7675799 l -0.16797,-0.33594 -0.33594,0.16797 c -1.45528,0.72764 -2.49873,0.89251 -3.35742,0.80664 -0.85869,-0.0859 -1.55664,-0.43164 -2.30664,-0.80664 -0.75,-0.375 -1.55205,-0.77923 -2.5683599,-0.88086 -0.25408,-0.0254 -0.52061,-0.0311 -0.80078,-0.0137 z"/>
 <path style="fill:currentColor" class="ColorScheme-Text" d="M 4.0000001,4 V 7 H 7 V 4 Z M 17,4 v 3 h 3 V 4 Z M 4.0000001,17 v 3 h 3 V 17 Z M 17,17 v 3 h 3 v -3 z"/>
</svg>
