<svg xmlns="http://www.w3.org/2000/svg" width="24" height="24" viewBox="0 0 24 24">
 <defs>
  <style id="current-color-scheme" type="text/css">
   .ColorScheme-Text { color:#31363b; } .ColorScheme-Highlight { color:#3daee9; }
  </style>
 </defs>
 <path style="fill:currentColor" class="ColorScheme-Text" d="M 8 1 C 5.784 1 4 2.8216 4 5.0625 L 4 7 L 3 7 C 2.446 7 2 7.446 2 8 L 2 14 C 2 14.554 2.446 15 3 15 L 13 15 C 13.554 15 14 14.554 14 14 L 14 8 C 14 7.446 13.554 7 13 7 L 12 7 L 12 5.0625 C 12 2.8225 10.216 1 8 1 z M 8 3 C 9.108 3 10 3.892 10 5 L 10 7 L 6 7 L 6 5 C 6 3.892 6.892 3 8 3 z" transform="translate(4 4)"/>
</svg>
