<svg xmlns="http://www.w3.org/2000/svg" width="24" height="24" viewBox="0 0 24 24">
 <defs>
  <style id="current-color-scheme" type="text/css">
   .ColorScheme-Text { color:#31363b; } .ColorScheme-Highlight { color:#3daee9; }
  </style>
 </defs>
 <path style="fill:currentColor" class="ColorScheme-Text" d="M 12 0.00390625 C 10.3432 0.00390625 9 1.3471063 9 3.0039062 C 9 3.2351762 9.04425 3.4439163 9.09375 3.6601562 L 5.875 5.6601562 C 5.36159 5.2488863 4.7091 5.0039062 4 5.0039062 C 2.3432 5.0039062 1 6.3471063 1 8.0039062 C 1 9.6607062 2.3432 11.003906 4 11.003906 C 4.70904 11.003906 5.3615 10.758926 5.875 10.347656 L 9.09375 12.347656 C 9.04425 12.563896 9 12.772636 9 13.003906 C 9 14.660706 10.3432 16.003906 12 16.003906 C 13.6568 16.003906 15 14.660706 15 13.003906 C 15 11.347106 13.6568 10.003906 12 10.003906 C 11.29096 10.003906 10.6385 10.248886 10.125 10.660156 L 6.90625 8.6601562 C 6.95575 8.4439163 7 8.2351762 7 8.0039062 C 7 7.7726363 6.95575 7.5638962 6.90625 7.3476562 L 10.125 5.3476562 C 10.63841 5.7589262 11.2909 6.0039062 12 6.0039062 C 13.6568 6.0039062 15 4.6607062 15 3.0039062 C 15 1.3471063 13.6568 0.00390625 12 0.00390625 z" transform="translate(4 4)"/>
</svg>
