<?xml version='1.0' encoding='UTF-8' standalone='no'?>
<svg height="16" style="enable-background:new" version="1.1" width="16" xmlns="http://www.w3.org/2000/svg">
 <title>
  Paper Symbolic Icon Theme
 </title>
 <g transform="translate(-584.0002,-182)">
  <path d="M 585.84375,183 C 585.5625,183.04687 585,183.25 585,184 l 0,11 c 0,0 0,1 1,1 l 5,0 2,0 5,0 c 0,0 1,0 1,-1 l 0,-9 c 0,-1 -1,-1 -1,-1 l -5,0 -2,-2 -5,0 c 0,0 -0.0625,-0.0156 -0.15625,0 z m 7.75,6 c 1.30915,0 2.48761,0.46868 3.46875,1.1875 L 593.59375,194 590.125,190.21875 C 591.10994,189.49185 592.27448,189 593.59375,189 z" style="fill:#5c616c;fill-opacity:1;"/>
 </g>
</svg>
