<svg height="24" width="24" xmlns="http://www.w3.org/2000/svg"><text opacity=".8" x="877.22626" y="10.812601"><tspan x="877.22626" y="10.812601"/></text><text opacity=".8" x="901.18719" y="-29.929106"><tspan x="901.18719" y="-29.929106"/></text><text opacity=".8" x="-569.37115" y="-60.007248"><tspan x="-569.37115" y="-60.007248"/></text><text opacity=".8" x="-2393.0571" y="685.5462"><tspan x="-2393.0571" y="685.5462"/></text><text opacity=".8" x="-454.88007" y="-445.32822"><tspan x="-454.88007" y="-445.32822"/></text><text opacity=".8" x="352.72208" y="-858.79834"><tspan x="352.72208" y="-858.79834"/></text><text opacity=".8" x="376.68301" y="-899.54004"><tspan x="376.68301" y="-899.54004"/></text><text opacity=".8" x="-1114.7802" y="-906.74994"><tspan x="-1114.7802" y="-906.74994"/></text><text opacity=".8" x="345.7626" y="-1179.9841"><tspan x="345.7626" y="-1179.9841"/></text><text opacity=".8" x="1831.8861" y="-553.29272"><tspan x="1831.8861" y="-553.29272"/></text><text opacity=".8" x="1855.8469" y="-594.03448"><tspan x="1855.8469" y="-594.03448"/></text><text opacity=".8" x="364.38376" y="-601.24438"><tspan x="364.38376" y="-601.24438"/></text><text opacity=".8" x="1824.9266" y="-874.47839"><tspan x="1824.9266" y="-874.47839"/></text><text opacity=".8" x="-573.43256" y="-649.33569"><tspan x="-573.43256" y="-649.33569"/></text><text opacity=".8" x="-2397.1182" y="96.217857"><tspan x="-2397.1182" y="96.217857"/></text><text opacity=".8" x="-682.36279" y="189.09"><tspan x="-682.36279" y="189.09"/></text><text opacity=".8" x="426.66153" y="9.9078522"><tspan x="426.66153" y="9.9078522"/></text><text opacity=".8" x="450.62247" y="-30.833855"><tspan x="450.62247" y="-30.833855"/></text><text opacity=".8" x="-1040.8407" y="-38.043827"><tspan x="-1040.8407" y="-38.043827"/></text><text opacity=".8" x="419.70206" y="-311.27789"><tspan x="419.70206" y="-311.27789"/></text><text opacity=".8" x="-608.03253" y="-40.758072"><tspan x="-608.03253" y="-40.758072"/></text><text opacity=".8" x="-2431.7185" y="704.79541"><tspan x="-2431.7185" y="704.79541"/></text><text opacity=".8" x="-456.93948" y="-902.28857"><tspan x="-456.93948" y="-902.28857"/></text><text opacity=".8" x="350.66266" y="-1315.7588"><tspan x="350.66266" y="-1315.7588"/></text><text opacity=".8" x="374.62357" y="-1356.5005"><tspan x="374.62357" y="-1356.5005"/></text><text opacity=".8" x="-1116.8396" y="-1363.7104"><tspan x="-1116.8396" y="-1363.7104"/></text><text opacity=".8" x="343.70316" y="-1636.9446"><tspan x="343.70316" y="-1636.9446"/></text><text opacity=".8" x="1829.8265" y="-1010.2533"><tspan x="1829.8265" y="-1010.2533"/></text><text opacity=".8" x="1853.7874" y="-1050.9949"><tspan x="1853.7874" y="-1050.9949"/></text><text opacity=".8" x="362.32431" y="-1058.2048"><tspan x="362.32431" y="-1058.2048"/></text><text opacity=".8" x="1822.8671" y="-1331.439"><tspan x="1822.8671" y="-1331.439"/></text><text opacity=".8" x="-575.492" y="-1106.2961"><tspan x="-575.492" y="-1106.2961"/></text><text opacity=".8" x="-2399.1777" y="-360.74261"><tspan x="-2399.1777" y="-360.74261"/></text><text opacity=".8" x="-684.42224" y="-267.87045"><tspan x="-684.42224" y="-267.87045"/></text><text opacity=".8" x="155.5923" y="-26.956278"><tspan x="155.5923" y="-26.956278"/></text><text opacity=".8" x="179.55324" y="-67.697998"><tspan x="179.55324" y="-67.697998"/></text><text opacity=".8" x="-1090.2634" y="-261.72662"><tspan x="-1090.2634" y="-261.72662"/></text><text opacity=".8" x="-282.66141" y="-675.19678"><tspan x="-282.66141" y="-675.19678"/></text><text opacity=".8" x="-258.70047" y="-715.93848"><tspan x="-258.70047" y="-715.93848"/></text><text opacity=".8" x="-1750.1636" y="-723.14838"><tspan x="-1750.1636" y="-723.14838"/></text><text opacity=".8" x="-289.62085" y="-996.38251"><tspan x="-289.62085" y="-996.38251"/></text><text opacity=".8" x="1196.5026" y="-369.69113"><tspan x="1196.5026" y="-369.69113"/></text><text opacity=".8" x="1220.4634" y="-410.43286"><tspan x="1220.4634" y="-410.43286"/></text><text opacity=".8" x="-270.99973" y="-417.64282"><tspan x="-270.99973" y="-417.64282"/></text><text opacity=".8" x="1189.5431" y="-690.87689"><tspan x="1189.5431" y="-690.87689"/></text><text opacity=".8" x="-1208.816" y="-465.7341"><tspan x="-1208.816" y="-465.7341"/></text><text opacity=".8" x="-3032.5017" y="279.81946"><tspan x="-3032.5017" y="279.81946"/></text><text opacity=".8" transform="matrix(.90475 0 0 .90475 -716.75 -676.29)" x="-664.2738" y="1159.4154"><tspan x="-664.2738" y="1159.4154"/></text><text opacity=".8" x="877.22626" y="18.050589"><tspan x="877.22626" y="18.050589"/></text><text opacity=".8" x="901.18719" y="-22.691116"><tspan x="901.18719" y="-22.691116"/></text><text opacity=".8" x="-569.37115" y="-52.76926"><tspan x="-569.37115" y="-52.76926"/></text><text opacity=".8" x="-2393.0571" y="692.78418"><tspan x="-2393.0571" y="692.78418"/></text><text opacity=".8" x="-454.88007" y="-438.09021"><tspan x="-454.88007" y="-438.09021"/></text><text opacity=".8" x="352.72208" y="-851.5603"><tspan x="352.72208" y="-851.5603"/></text><text opacity=".8" x="376.68301" y="-892.30206"><tspan x="376.68301" y="-892.30206"/></text><text opacity=".8" x="-1114.7802" y="-899.51196"><tspan x="-1114.7802" y="-899.51196"/></text><text opacity=".8" x="345.7626" y="-1172.7461"><tspan x="345.7626" y="-1172.7461"/></text><text opacity=".8" x="1831.8861" y="-546.05475"><tspan x="1831.8861" y="-546.05475"/></text><text opacity=".8" x="1855.8469" y="-586.79651"><tspan x="1855.8469" y="-586.79651"/></text><text opacity=".8" x="364.38376" y="-594.00641"><tspan x="364.38376" y="-594.00641"/></text><text opacity=".8" x="1824.9266" y="-867.24036"><tspan x="1824.9266" y="-867.24036"/></text><text opacity=".8" x="-573.43256" y="-642.09772"><tspan x="-573.43256" y="-642.09772"/></text><text opacity=".8" x="-2397.1182" y="103.45585"><tspan x="-2397.1182" y="103.45585"/></text><text opacity=".8" x="-682.36279" y="196.32799"><tspan x="-682.36279" y="196.32799"/></text><text opacity=".8" x="426.66153" y="17.14584"><tspan x="426.66153" y="17.14584"/></text><text opacity=".8" x="450.62247" y="-23.595865"><tspan x="450.62247" y="-23.595865"/></text><text opacity=".8" x="-1040.8407" y="-30.805836"><tspan x="-1040.8407" y="-30.805836"/></text><text opacity=".8" x="419.70206" y="-304.03989"><tspan x="419.70206" y="-304.03989"/></text><text opacity=".8" x="-608.03253" y="-33.520081"><tspan x="-608.03253" y="-33.520081"/></text><text opacity=".8" x="-2431.7185" y="712.03345"><tspan x="-2431.7185" y="712.03345"/></text><text opacity=".8" x="-456.93948" y="-895.0506"><tspan x="-456.93948" y="-895.0506"/></text><text opacity=".8" x="350.66266" y="-1308.5208"><tspan x="350.66266" y="-1308.5208"/></text><text opacity=".8" x="374.62357" y="-1349.2626"><tspan x="374.62357" y="-1349.2626"/></text><text opacity=".8" x="-1116.8396" y="-1356.4724"><tspan x="-1116.8396" y="-1356.4724"/></text><text opacity=".8" x="343.70316" y="-1629.7065"><tspan x="343.70316" y="-1629.7065"/></text><text opacity=".8" x="1829.8265" y="-1003.0153"><tspan x="1829.8265" y="-1003.0153"/></text><text opacity=".8" x="1853.7874" y="-1043.757"><tspan x="1853.7874" y="-1043.757"/></text><text opacity=".8" x="362.32431" y="-1050.9668"><tspan x="362.32431" y="-1050.9668"/></text><text opacity=".8" x="1822.8671" y="-1324.2009"><tspan x="1822.8671" y="-1324.2009"/></text><text opacity=".8" x="-575.492" y="-1099.0581"><tspan x="-575.492" y="-1099.0581"/></text><text opacity=".8" x="-2399.1777" y="-353.50461"><tspan x="-2399.1777" y="-353.50461"/></text><text opacity=".8" x="-684.42224" y="-260.63245"><tspan x="-684.42224" y="-260.63245"/></text><text opacity=".8" x="155.5923" y="-19.71829"><tspan x="155.5923" y="-19.71829"/></text><text opacity=".8" x="179.55324" y="-60.460011"><tspan x="179.55324" y="-60.460011"/></text><text opacity=".8" x="-1090.2634" y="-254.4886"><tspan x="-1090.2634" y="-254.4886"/></text><text opacity=".8" x="-282.66141" y="-667.9588"><tspan x="-282.66141" y="-667.9588"/></text><text opacity=".8" x="-258.70047" y="-708.7005"><tspan x="-258.70047" y="-708.7005"/></text><text opacity=".8" x="-1750.1636" y="-715.91046"><tspan x="-1750.1636" y="-715.91046"/></text><text opacity=".8" x="-289.62085" y="-989.14447"><tspan x="-289.62085" y="-989.14447"/></text><text opacity=".8" x="1196.5026" y="-362.45316"><tspan x="1196.5026" y="-362.45316"/></text><text opacity=".8" x="1220.4634" y="-403.19489"><tspan x="1220.4634" y="-403.19489"/></text><text opacity=".8" x="-270.99973" y="-410.40482"><tspan x="-270.99973" y="-410.40482"/></text><text opacity=".8" x="1189.5431" y="-683.63892"><tspan x="1189.5431" y="-683.63892"/></text><text opacity=".8" x="-1208.816" y="-458.49609"><tspan x="-1208.816" y="-458.49609"/></text><text opacity=".8" x="-3032.5017" y="287.05743"><tspan x="-3032.5017" y="287.05743"/></text><text opacity=".8" transform="matrix(.90475 0 0 .90475 -716.75 -669.05)" x="-664.2738" y="1159.4154"><tspan x="-664.2738" y="1159.4154"/></text><text x="435.90427" y="-361.22546"><tspan x="435.90427" y="-361.22546"/><tspan x="435.90427" y="-345.3924"/></text><text opacity=".8" x="901.0882" y="-843.27002"><tspan x="901.0882" y="-843.27002"/></text><text opacity=".8" x="-922.59778" y="-97.716553"><tspan x="-922.59778" y="-97.716553"/></text><text opacity=".8" x="1628.1677" y="-1128.2659"><tspan x="1628.1677" y="-1128.2659"/></text><text opacity=".8" x="1652.1285" y="-1169.0076"><tspan x="1652.1285" y="-1169.0076"/></text><text opacity=".8" x="160.66542" y="-1176.2175"><tspan x="160.66542" y="-1176.2175"/></text><text opacity=".8" x="1621.2083" y="-1449.4517"><tspan x="1621.2083" y="-1449.4517"/></text><text opacity=".8" x="877.22626" y="10.812601"><tspan x="877.22626" y="10.812601"/></text><text opacity=".8" x="901.18719" y="-29.929106"><tspan x="901.18719" y="-29.929106"/></text><text opacity=".8" x="-569.37115" y="-60.007248"><tspan x="-569.37115" y="-60.007248"/></text><text opacity=".8" x="-2393.0571" y="685.5462"><tspan x="-2393.0571" y="685.5462"/></text><text opacity=".8" x="-454.88007" y="-445.32822"><tspan x="-454.88007" y="-445.32822"/></text><text opacity=".8" x="352.72208" y="-858.79834"><tspan x="352.72208" y="-858.79834"/></text><text opacity=".8" x="376.68301" y="-899.54004"><tspan x="376.68301" y="-899.54004"/></text><text opacity=".8" x="-1114.7802" y="-906.74994"><tspan x="-1114.7802" y="-906.74994"/></text><text opacity=".8" x="345.7626" y="-1179.9841"><tspan x="345.7626" y="-1179.9841"/></text><text opacity=".8" x="1831.8861" y="-553.29272"><tspan x="1831.8861" y="-553.29272"/></text><text opacity=".8" x="1855.8469" y="-594.03448"><tspan x="1855.8469" y="-594.03448"/></text><text opacity=".8" x="364.38376" y="-601.24438"><tspan x="364.38376" y="-601.24438"/></text><text opacity=".8" x="1824.9266" y="-874.47839"><tspan x="1824.9266" y="-874.47839"/></text><text opacity=".8" x="-573.43256" y="-649.33569"><tspan x="-573.43256" y="-649.33569"/></text><text opacity=".8" x="-2397.1182" y="96.217857"><tspan x="-2397.1182" y="96.217857"/></text><text opacity=".8" x="-682.36279" y="189.09"><tspan x="-682.36279" y="189.09"/></text><text opacity=".8" x="426.66153" y="9.9078522"><tspan x="426.66153" y="9.9078522"/></text><text opacity=".8" x="450.62247" y="-30.833855"><tspan x="450.62247" y="-30.833855"/></text><text opacity=".8" x="-1040.8407" y="-38.043827"><tspan x="-1040.8407" y="-38.043827"/></text><text opacity=".8" x="419.70206" y="-311.27789"><tspan x="419.70206" y="-311.27789"/></text><text opacity=".8" x="-608.03253" y="-40.758072"><tspan x="-608.03253" y="-40.758072"/></text><text opacity=".8" x="-2431.7185" y="704.79541"><tspan x="-2431.7185" y="704.79541"/></text><text opacity=".8" x="-456.93948" y="-902.28857"><tspan x="-456.93948" y="-902.28857"/></text><text opacity=".8" x="350.66266" y="-1315.7588"><tspan x="350.66266" y="-1315.7588"/></text><text opacity=".8" x="374.62357" y="-1356.5005"><tspan x="374.62357" y="-1356.5005"/></text><text opacity=".8" x="-1116.8396" y="-1363.7104"><tspan x="-1116.8396" y="-1363.7104"/></text><text opacity=".8" x="343.70316" y="-1636.9446"><tspan x="343.70316" y="-1636.9446"/></text><text opacity=".8" x="1829.8265" y="-1010.2533"><tspan x="1829.8265" y="-1010.2533"/></text><text opacity=".8" x="1853.7874" y="-1050.9949"><tspan x="1853.7874" y="-1050.9949"/></text><text opacity=".8" x="362.32431" y="-1058.2048"><tspan x="362.32431" y="-1058.2048"/></text><text opacity=".8" x="1822.8671" y="-1331.439"><tspan x="1822.8671" y="-1331.439"/></text><text opacity=".8" x="-575.492" y="-1106.2961"><tspan x="-575.492" y="-1106.2961"/></text><text opacity=".8" x="-2399.1777" y="-360.74261"><tspan x="-2399.1777" y="-360.74261"/></text><text opacity=".8" x="-684.42224" y="-267.87045"><tspan x="-684.42224" y="-267.87045"/></text><text opacity=".8" x="155.5923" y="-26.956278"><tspan x="155.5923" y="-26.956278"/></text><text opacity=".8" x="179.55324" y="-67.697998"><tspan x="179.55324" y="-67.697998"/></text><text opacity=".8" x="-1090.2634" y="-261.72662"><tspan x="-1090.2634" y="-261.72662"/></text><text opacity=".8" x="-282.66141" y="-675.19678"><tspan x="-282.66141" y="-675.19678"/></text><text opacity=".8" x="-258.70047" y="-715.93848"><tspan x="-258.70047" y="-715.93848"/></text><text opacity=".8" x="-1750.1636" y="-723.14838"><tspan x="-1750.1636" y="-723.14838"/></text><text opacity=".8" x="-289.62085" y="-996.38251"><tspan x="-289.62085" y="-996.38251"/></text><text opacity=".8" x="1196.5026" y="-369.69113"><tspan x="1196.5026" y="-369.69113"/></text><text opacity=".8" x="1220.4634" y="-410.43286"><tspan x="1220.4634" y="-410.43286"/></text><text opacity=".8" x="-270.99973" y="-417.64282"><tspan x="-270.99973" y="-417.64282"/></text><text opacity=".8" x="1189.5431" y="-690.87689"><tspan x="1189.5431" y="-690.87689"/></text><text opacity=".8" x="-1208.816" y="-465.7341"><tspan x="-1208.816" y="-465.7341"/></text><text opacity=".8" x="-3032.5017" y="279.81946"><tspan x="-3032.5017" y="279.81946"/></text><text opacity=".8" x="-1317.7462" y="372.69156"><tspan x="-1317.7462" y="372.69156"/></text><text opacity=".8" x="877.22626" y="18.050589"><tspan x="877.22626" y="18.050589"/></text><text opacity=".8" x="901.18719" y="-22.691116"><tspan x="901.18719" y="-22.691116"/></text><text opacity=".8" x="-569.37115" y="-52.76926"><tspan x="-569.37115" y="-52.76926"/></text><text opacity=".8" x="-2393.0571" y="692.78418"><tspan x="-2393.0571" y="692.78418"/></text><text opacity=".8" x="-454.88007" y="-438.09021"><tspan x="-454.88007" y="-438.09021"/></text><text opacity=".8" x="352.72208" y="-851.5603"><tspan x="352.72208" y="-851.5603"/></text><text opacity=".8" x="376.68301" y="-892.30206"><tspan x="376.68301" y="-892.30206"/></text><text opacity=".8" x="-1114.7802" y="-899.51196"><tspan x="-1114.7802" y="-899.51196"/></text><text opacity=".8" x="345.7626" y="-1172.7461"><tspan x="345.7626" y="-1172.7461"/></text><text opacity=".8" x="1831.8861" y="-546.05475"><tspan x="1831.8861" y="-546.05475"/></text><text opacity=".8" x="1855.8469" y="-586.79651"><tspan x="1855.8469" y="-586.79651"/></text><text opacity=".8" x="364.38376" y="-594.00641"><tspan x="364.38376" y="-594.00641"/></text><text opacity=".8" x="1824.9266" y="-867.24036"><tspan x="1824.9266" y="-867.24036"/></text><text opacity=".8" x="-573.43256" y="-642.09772"><tspan x="-573.43256" y="-642.09772"/></text><text opacity=".8" x="-2397.1182" y="103.45585"><tspan x="-2397.1182" y="103.45585"/></text><text opacity=".8" x="-682.36279" y="196.32799"><tspan x="-682.36279" y="196.32799"/></text><text opacity=".8" x="426.66153" y="17.14584"><tspan x="426.66153" y="17.14584"/></text><text opacity=".8" x="450.62247" y="-23.595865"><tspan x="450.62247" y="-23.595865"/></text><text opacity=".8" x="-1040.8407" y="-30.805836"><tspan x="-1040.8407" y="-30.805836"/></text><text opacity=".8" x="419.70206" y="-304.03989"><tspan x="419.70206" y="-304.03989"/></text><text opacity=".8" x="-608.03253" y="-33.520081"><tspan x="-608.03253" y="-33.520081"/></text><text opacity=".8" x="-2431.7185" y="712.03345"><tspan x="-2431.7185" y="712.03345"/></text><text opacity=".8" x="-456.93948" y="-895.0506"><tspan x="-456.93948" y="-895.0506"/></text><text opacity=".8" x="350.66266" y="-1308.5208"><tspan x="350.66266" y="-1308.5208"/></text><text opacity=".8" x="374.62357" y="-1349.2626"><tspan x="374.62357" y="-1349.2626"/></text><text opacity=".8" x="-1116.8396" y="-1356.4724"><tspan x="-1116.8396" y="-1356.4724"/></text><text opacity=".8" x="343.70316" y="-1629.7065"><tspan x="343.70316" y="-1629.7065"/></text><text opacity=".8" x="1829.8265" y="-1003.0153"><tspan x="1829.8265" y="-1003.0153"/></text><text opacity=".8" x="1853.7874" y="-1043.757"><tspan x="1853.7874" y="-1043.757"/></text><text opacity=".8" x="362.32431" y="-1050.9668"><tspan x="362.32431" y="-1050.9668"/></text><text opacity=".8" x="1822.8671" y="-1324.2009"><tspan x="1822.8671" y="-1324.2009"/></text><text opacity=".8" x="-575.492" y="-1099.0581"><tspan x="-575.492" y="-1099.0581"/></text><text opacity=".8" x="-2399.1777" y="-353.50461"><tspan x="-2399.1777" y="-353.50461"/></text><text opacity=".8" x="-684.42224" y="-260.63245"><tspan x="-684.42224" y="-260.63245"/></text><text opacity=".8" x="155.5923" y="-19.71829"><tspan x="155.5923" y="-19.71829"/></text><text opacity=".8" x="179.55324" y="-60.460011"><tspan x="179.55324" y="-60.460011"/></text><text opacity=".8" x="-1090.2634" y="-254.4886"><tspan x="-1090.2634" y="-254.4886"/></text><text opacity=".8" x="-282.66141" y="-667.9588"><tspan x="-282.66141" y="-667.9588"/></text><text opacity=".8" x="-258.70047" y="-708.7005"><tspan x="-258.70047" y="-708.7005"/></text><text opacity=".8" x="-1750.1636" y="-715.91046"><tspan x="-1750.1636" y="-715.91046"/></text><text opacity=".8" x="-289.62085" y="-989.14447"><tspan x="-289.62085" y="-989.14447"/></text><text opacity=".8" x="1196.5026" y="-362.45316"><tspan x="1196.5026" y="-362.45316"/></text><text opacity=".8" x="1220.4634" y="-403.19489"><tspan x="1220.4634" y="-403.19489"/></text><text opacity=".8" x="-270.99973" y="-410.40482"><tspan x="-270.99973" y="-410.40482"/></text><text opacity=".8" x="1189.5431" y="-683.63892"><tspan x="1189.5431" y="-683.63892"/></text><text opacity=".8" x="-1208.816" y="-458.49609"><tspan x="-1208.816" y="-458.49609"/></text><text opacity=".8" x="-3032.5017" y="287.05743"><tspan x="-3032.5017" y="287.05743"/></text><text opacity=".8" x="-1317.7462" y="379.92953"><tspan x="-1317.7462" y="379.92953"/></text><text x="435.90427" y="-361.22546"><tspan x="435.90427" y="-361.22546"/><tspan x="435.90427" y="-345.3924"/></text><text opacity=".8" x="901.0882" y="-843.27002"><tspan x="901.0882" y="-843.27002"/></text><text opacity=".8" x="-922.59778" y="-97.716553"><tspan x="-922.59778" y="-97.716553"/></text><text opacity=".8" x="1628.1677" y="-1128.2659"><tspan x="1628.1677" y="-1128.2659"/></text><text opacity=".8" x="1652.1285" y="-1169.0076"><tspan x="1652.1285" y="-1169.0076"/></text><text opacity=".8" x="160.66542" y="-1176.2175"><tspan x="160.66542" y="-1176.2175"/></text><text opacity=".8" x="1621.2083" y="-1449.4517"><tspan x="1621.2083" y="-1449.4517"/></text><path d="m19.39054 1.5003625a7.4998125 7.6928077 0 0 1 -2.124947 4.201895c-1.479463-1.0671234-3.293917-1.7019575-5.265368-1.7019575-1.973951 0-3.7909052.6362341-5.2713682 1.7059574a7.4998125 7.6928077 0 0 1 -2.119047-4.1560961 7.4998125 7.6928077 0 0 0 -.1093973 1.2577685 7.4998125 7.6928077 0 0 0  1.0509737 3.9093023c-1.5782605 1.6194595-2.5509362 3.8324039-2.5509362 6.2828429 0 4.985875 4.0138996 8.999775 8.999775 8.999775 4.985875 0 8.999775-4.0139 8.999775-8.999775 0-2.450439-.972476-4.6633834-2.550936-6.2828429a7.4998125 7.6928077 0 0 0 1.050973-3.9093023 7.4998125 7.6928077 0 0 0 -.109497-1.3075673z" fill="#e03c3b"/><g transform="translate(0 -.50000776)"><g opacity=".2" transform="matrix(.4999875 0 0 .4999875 .00052499 .5003875)"><path d="m23 29.666c-1.9236 3.1883-6.184 4.2806-9.5158 2.4399-3.332-1.841-4.4732-5.918-2.55-9.106z" opacity="1"/><path d="m25 29.666c1.9236 3.1883 6.184 4.2806 9.5158 2.4399 3.332-1.841 4.473-5.918 2.55-9.106z" opacity="1"/></g><path d="m11.500237 14.833029c-.961775 1.59411-3.0919222 2.140247-4.7577806 1.21992-1.6659583-.920477-2.236544-2.958926-1.2749681-4.552886z" fill="#fff"/><path d="m12.500212 14.833029c.961776 1.59411 3.091923 2.140247 4.757782 1.21992 1.665958-.920477 2.236444-2.958926 1.274968-4.552886z" fill="#fff"/><path d="m8.399815 13.120072c-.3424914.883978-.1939951 2.00245.5799855 3.342916.002-.0005.004 0 .006 0-.4319893-.979475-.3719908-2.053448.0604983-2.985425z" fill="#2c2c2c"/><path d="m15.600635 13.120072l-.646484.357491c.432489.931977.492488 2.00595.0605 2.985425.002 0 .004-.0005.006 0 .773981-1.340466.922477-2.458938.579986-3.342916z" fill="#2c2c2c"/></g><path d="m19.39054 1.5003625a7.4998125 7.6928077 0 0 1 -2.124947 4.201895c-1.479463-1.0671234-3.293917-1.7019575-5.265368-1.7019575-1.973951 0-3.7909052.6362341-5.2713682 1.7059574a7.4998125 7.6928077 0 0 1 -2.119047-4.1560961 7.4998125 7.6928077 0 0 0 -.1093973 1.2577685 7.4998125 7.6928077 0 0 0  .01075.2119447 7.4998125 7.6928077 0 0 1  .098648-.9697257 7.4998125 7.6928077 0 0 0  2.119047 4.1560961c1.480463-1.0694733 3.2974172-1.7059574 5.2713682-1.7059574 1.971451 0 3.785905.6349841 5.265368 1.7019575a7.4998125 7.6928077 0 0 0 2.124947-4.201895 7.4998125 7.6928077 0 0 1  .0995 1.118122 7.4998125 7.6928077 0 0 0  .01-.3105422 7.4998125 7.6928077 0 0 0 -.109497-1.3075673zm-.77798 5.400365a7.4998125 7.6928077 0 0 1 -.163496.3164921c1.523462 1.5634609 2.473938 3.6824084 2.538436 6.0318494.002-.083498.0125-.164996.0125-.248994 0-2.361941-.909477-4.4973876-2.38744-6.0993475zm-13.2271696.004c-1.4765131 1.6014599-2.3849404 3.7354065-2.3849404 6.0953475 0 .084.01045.165496.0127.248994.064498-2.349441 1.0145246-4.4683885 2.5382365-6.0318494a7.4998125 7.6928077 0 0 1 -.1659961-.3124922z" fill="#fff" opacity=".2"/><path d="m4.5111622 2.519887a7.4998125 7.6928077 0 0 0 -.01075.2880428 7.4998125 7.6928077 0 0 0  .8849779 3.5968101c.0564989-.0614985.1074976-.1279968.1659961-.1874953a7.4998125 7.6928077 0 0 1 -1.040224-3.6973576zm14.9786258.098597a7.4998125 7.6928077 0 0 1 -1.040974 3.5987601c.0575.058498.107997.1229969.163496.1834954a7.4998125 7.6928077 0 0 0  .887478-3.5928102 7.4998125 7.6928077 0 0 0 -.01-.1894452zm-16.4770883 10.130747c-.0023.083998-.0126997.166496-.0126997.250994 0 4.985875 4.0138997 8.999775 8.999775 8.999775 4.985875 0 8.999775-4.0139 8.999775-8.999775 0-.0845-.0105-.166996-.0125-.250994-.132496 4.868879-4.085398 8.750781-8.987275 8.750781-4.9018774 0-8.8547786-3.881902-8.9872753-8.750781z" opacity=".3"/></svg>