<svg height="24" width="24" xmlns="http://www.w3.org/2000/svg"><text opacity=".8" x="877.22626" y="10.812601"><tspan x="877.22626" y="10.812601"/></text><text opacity=".8" x="901.18719" y="-29.929106"><tspan x="901.18719" y="-29.929106"/></text><text opacity=".8" x="-569.37115" y="-60.007248"><tspan x="-569.37115" y="-60.007248"/></text><text opacity=".8" x="-2393.0571" y="685.5462"><tspan x="-2393.0571" y="685.5462"/></text><text opacity=".8" x="-454.88007" y="-445.32822"><tspan x="-454.88007" y="-445.32822"/></text><text opacity=".8" x="352.72208" y="-858.79834"><tspan x="352.72208" y="-858.79834"/></text><text opacity=".8" x="376.68301" y="-899.54004"><tspan x="376.68301" y="-899.54004"/></text><text opacity=".8" x="-1114.7802" y="-906.74994"><tspan x="-1114.7802" y="-906.74994"/></text><text opacity=".8" x="345.7626" y="-1179.9841"><tspan x="345.7626" y="-1179.9841"/></text><text opacity=".8" x="1831.8861" y="-553.29272"><tspan x="1831.8861" y="-553.29272"/></text><text opacity=".8" x="1855.8469" y="-594.03448"><tspan x="1855.8469" y="-594.03448"/></text><text opacity=".8" x="364.38376" y="-601.24438"><tspan x="364.38376" y="-601.24438"/></text><text opacity=".8" x="1824.9266" y="-874.47839"><tspan x="1824.9266" y="-874.47839"/></text><text opacity=".8" x="-573.43256" y="-649.33569"><tspan x="-573.43256" y="-649.33569"/></text><text opacity=".8" x="-2397.1182" y="96.217857"><tspan x="-2397.1182" y="96.217857"/></text><text opacity=".8" x="-682.36279" y="189.09"><tspan x="-682.36279" y="189.09"/></text><text opacity=".8" x="426.66153" y="9.9078522"><tspan x="426.66153" y="9.9078522"/></text><text opacity=".8" x="450.62247" y="-30.833855"><tspan x="450.62247" y="-30.833855"/></text><text opacity=".8" x="-1040.8407" y="-38.043827"><tspan x="-1040.8407" y="-38.043827"/></text><text opacity=".8" x="419.70206" y="-311.27789"><tspan x="419.70206" y="-311.27789"/></text><text opacity=".8" x="-608.03253" y="-40.758072"><tspan x="-608.03253" y="-40.758072"/></text><text opacity=".8" x="-2431.7185" y="704.79541"><tspan x="-2431.7185" y="704.79541"/></text><text opacity=".8" x="-456.93948" y="-902.28857"><tspan x="-456.93948" y="-902.28857"/></text><text opacity=".8" x="350.66266" y="-1315.7588"><tspan x="350.66266" y="-1315.7588"/></text><text opacity=".8" x="374.62357" y="-1356.5005"><tspan x="374.62357" y="-1356.5005"/></text><text opacity=".8" x="-1116.8396" y="-1363.7104"><tspan x="-1116.8396" y="-1363.7104"/></text><text opacity=".8" x="343.70316" y="-1636.9446"><tspan x="343.70316" y="-1636.9446"/></text><text opacity=".8" x="1829.8265" y="-1010.2533"><tspan x="1829.8265" y="-1010.2533"/></text><text opacity=".8" x="1853.7874" y="-1050.9949"><tspan x="1853.7874" y="-1050.9949"/></text><text opacity=".8" x="362.32431" y="-1058.2048"><tspan x="362.32431" y="-1058.2048"/></text><text opacity=".8" x="1822.8671" y="-1331.439"><tspan x="1822.8671" y="-1331.439"/></text><text opacity=".8" x="-575.492" y="-1106.2961"><tspan x="-575.492" y="-1106.2961"/></text><text opacity=".8" x="-2399.1777" y="-360.74261"><tspan x="-2399.1777" y="-360.74261"/></text><text opacity=".8" x="-684.42224" y="-267.87045"><tspan x="-684.42224" y="-267.87045"/></text><text opacity=".8" x="155.5923" y="-26.956278"><tspan x="155.5923" y="-26.956278"/></text><text opacity=".8" x="179.55324" y="-67.697998"><tspan x="179.55324" y="-67.697998"/></text><text opacity=".8" x="-1090.2634" y="-261.72662"><tspan x="-1090.2634" y="-261.72662"/></text><text opacity=".8" x="-282.66141" y="-675.19678"><tspan x="-282.66141" y="-675.19678"/></text><text opacity=".8" x="-258.70047" y="-715.93848"><tspan x="-258.70047" y="-715.93848"/></text><text opacity=".8" x="-1750.1636" y="-723.14838"><tspan x="-1750.1636" y="-723.14838"/></text><text opacity=".8" x="-289.62085" y="-996.38251"><tspan x="-289.62085" y="-996.38251"/></text><text opacity=".8" x="1196.5026" y="-369.69113"><tspan x="1196.5026" y="-369.69113"/></text><text opacity=".8" x="1220.4634" y="-410.43286"><tspan x="1220.4634" y="-410.43286"/></text><text opacity=".8" x="-270.99973" y="-417.64282"><tspan x="-270.99973" y="-417.64282"/></text><text opacity=".8" x="1189.5431" y="-690.87689"><tspan x="1189.5431" y="-690.87689"/></text><text opacity=".8" x="-1208.816" y="-465.7341"><tspan x="-1208.816" y="-465.7341"/></text><text opacity=".8" x="-3032.5017" y="279.81946"><tspan x="-3032.5017" y="279.81946"/></text><text opacity=".8" transform="matrix(.90475 0 0 .90475 -716.75 -676.29)" x="-664.2738" y="1159.4154"><tspan x="-664.2738" y="1159.4154"/></text><text opacity=".8" x="877.22626" y="18.050589"><tspan x="877.22626" y="18.050589"/></text><text opacity=".8" x="901.18719" y="-22.691116"><tspan x="901.18719" y="-22.691116"/></text><text opacity=".8" x="-569.37115" y="-52.76926"><tspan x="-569.37115" y="-52.76926"/></text><text opacity=".8" x="-2393.0571" y="692.78418"><tspan x="-2393.0571" y="692.78418"/></text><text opacity=".8" x="-454.88007" y="-438.09021"><tspan x="-454.88007" y="-438.09021"/></text><text opacity=".8" x="352.72208" y="-851.5603"><tspan x="352.72208" y="-851.5603"/></text><text opacity=".8" x="376.68301" y="-892.30206"><tspan x="376.68301" y="-892.30206"/></text><text opacity=".8" x="-1114.7802" y="-899.51196"><tspan x="-1114.7802" y="-899.51196"/></text><text opacity=".8" x="345.7626" y="-1172.7461"><tspan x="345.7626" y="-1172.7461"/></text><text opacity=".8" x="1831.8861" y="-546.05475"><tspan x="1831.8861" y="-546.05475"/></text><text opacity=".8" x="1855.8469" y="-586.79651"><tspan x="1855.8469" y="-586.79651"/></text><text opacity=".8" x="364.38376" y="-594.00641"><tspan x="364.38376" y="-594.00641"/></text><text opacity=".8" x="1824.9266" y="-867.24036"><tspan x="1824.9266" y="-867.24036"/></text><text opacity=".8" x="-573.43256" y="-642.09772"><tspan x="-573.43256" y="-642.09772"/></text><text opacity=".8" x="-2397.1182" y="103.45585"><tspan x="-2397.1182" y="103.45585"/></text><text opacity=".8" x="-682.36279" y="196.32799"><tspan x="-682.36279" y="196.32799"/></text><text opacity=".8" x="426.66153" y="17.14584"><tspan x="426.66153" y="17.14584"/></text><text opacity=".8" x="450.62247" y="-23.595865"><tspan x="450.62247" y="-23.595865"/></text><text opacity=".8" x="-1040.8407" y="-30.805836"><tspan x="-1040.8407" y="-30.805836"/></text><text opacity=".8" x="419.70206" y="-304.03989"><tspan x="419.70206" y="-304.03989"/></text><text opacity=".8" x="-608.03253" y="-33.520081"><tspan x="-608.03253" y="-33.520081"/></text><text opacity=".8" x="-2431.7185" y="712.03345"><tspan x="-2431.7185" y="712.03345"/></text><text opacity=".8" x="-456.93948" y="-895.0506"><tspan x="-456.93948" y="-895.0506"/></text><text opacity=".8" x="350.66266" y="-1308.5208"><tspan x="350.66266" y="-1308.5208"/></text><text opacity=".8" x="374.62357" y="-1349.2626"><tspan x="374.62357" y="-1349.2626"/></text><text opacity=".8" x="-1116.8396" y="-1356.4724"><tspan x="-1116.8396" y="-1356.4724"/></text><text opacity=".8" x="343.70316" y="-1629.7065"><tspan x="343.70316" y="-1629.7065"/></text><text opacity=".8" x="1829.8265" y="-1003.0153"><tspan x="1829.8265" y="-1003.0153"/></text><text opacity=".8" x="1853.7874" y="-1043.757"><tspan x="1853.7874" y="-1043.757"/></text><text opacity=".8" x="362.32431" y="-1050.9668"><tspan x="362.32431" y="-1050.9668"/></text><text opacity=".8" x="1822.8671" y="-1324.2009"><tspan x="1822.8671" y="-1324.2009"/></text><text opacity=".8" x="-575.492" y="-1099.0581"><tspan x="-575.492" y="-1099.0581"/></text><text opacity=".8" x="-2399.1777" y="-353.50461"><tspan x="-2399.1777" y="-353.50461"/></text><text opacity=".8" x="-684.42224" y="-260.63245"><tspan x="-684.42224" y="-260.63245"/></text><text opacity=".8" x="155.5923" y="-19.71829"><tspan x="155.5923" y="-19.71829"/></text><text opacity=".8" x="179.55324" y="-60.460011"><tspan x="179.55324" y="-60.460011"/></text><text opacity=".8" x="-1090.2634" y="-254.4886"><tspan x="-1090.2634" y="-254.4886"/></text><text opacity=".8" x="-282.66141" y="-667.9588"><tspan x="-282.66141" y="-667.9588"/></text><text opacity=".8" x="-258.70047" y="-708.7005"><tspan x="-258.70047" y="-708.7005"/></text><text opacity=".8" x="-1750.1636" y="-715.91046"><tspan x="-1750.1636" y="-715.91046"/></text><text opacity=".8" x="-289.62085" y="-989.14447"><tspan x="-289.62085" y="-989.14447"/></text><text opacity=".8" x="1196.5026" y="-362.45316"><tspan x="1196.5026" y="-362.45316"/></text><text opacity=".8" x="1220.4634" y="-403.19489"><tspan x="1220.4634" y="-403.19489"/></text><text opacity=".8" x="-270.99973" y="-410.40482"><tspan x="-270.99973" y="-410.40482"/></text><text opacity=".8" x="1189.5431" y="-683.63892"><tspan x="1189.5431" y="-683.63892"/></text><text opacity=".8" x="-1208.816" y="-458.49609"><tspan x="-1208.816" y="-458.49609"/></text><text opacity=".8" x="-3032.5017" y="287.05743"><tspan x="-3032.5017" y="287.05743"/></text><text opacity=".8" transform="matrix(.90475 0 0 .90475 -716.75 -669.05)" x="-664.2738" y="1159.4154"><tspan x="-664.2738" y="1159.4154"/></text><text x="435.90427" y="-361.22546"><tspan x="435.90427" y="-361.22546"/><tspan x="435.90427" y="-345.3924"/></text><text opacity=".8" x="901.0882" y="-843.27002"><tspan x="901.0882" y="-843.27002"/></text><text opacity=".8" x="-922.59778" y="-97.716553"><tspan x="-922.59778" y="-97.716553"/></text><text opacity=".8" x="1628.1677" y="-1128.2659"><tspan x="1628.1677" y="-1128.2659"/></text><text opacity=".8" x="1652.1285" y="-1169.0076"><tspan x="1652.1285" y="-1169.0076"/></text><text opacity=".8" x="160.66542" y="-1176.2175"><tspan x="160.66542" y="-1176.2175"/></text><text opacity=".8" x="1621.2083" y="-1449.4517"><tspan x="1621.2083" y="-1449.4517"/></text><g transform="scale(.5)"><rect fill="#81d547" height="40" rx="20" transform="matrix(0 -1 -1 0 0 0)" width="40" x="-44" y="-44"/><path d="m24.038 11c-5.9053 0-10.953 3.6737-12.99 8.8415-.10842.26286-.20364.5321-.29603.80272-.01814.05601-.03904.11043-.05648.16675-.443 1.353-.696 2.79-.696 4.289 0 7.667 6.261 13.9 13.962 13.9 5.8496 0 10.862-3.6008 12.938-8.6903.000541-.0013.0014-.0025.002-.0039.14915-.3505.275-.71169.39535-1.0761.45047-1.364.70307-2.8173.70307-4.3296 0-7.6653-6.2626-13.9-13.962-13.9zm-1.0049 2.1697v4.6786c-1.3331-.04682-2.6079-.18745-3.786-.40911.17695-.41285.36246-.81047.56479-1.173.93268-1.6714 2.059-2.714 3.2213-3.0965zm1.9943.07756c.10479.01728.21139.0294.3155.04847 1.0502.45757 2.0595 1.4505 2.9077 2.9704.19858.35586.38089.74546.55505 1.1498-1.1728.22747-2.4465.37511-3.7782.4285v-4.5972zm-6.2497.95783c-.25015.34771-.49137.70759-.70891 1.0974-.28958.51894-.54855 1.0811-.78681 1.6675-.58376-.17046-1.1238-.36342-1.6282-.57198.91023-.8897 1.9651-1.6283 3.1239-2.1929zm10.723.2986c.5446.21747.96212.42034 1.3808.62433.5316.36927 1.0323.779 1.4957 1.2273-.49827.21091-1.0342.40654-1.6126.57974-.23449-.5732-.48751-1.1241-.77123-1.6326-.15492-.27763-.32181-.54086-.49273-.79884zm4.1794 3.3505c1.2724 1.7245 2.089 3.7985 2.2747 6.0591h-3.7549c-.07331-1.8155-.34687-3.5327-.78876-5.0936.79638-.24303 1.5443-.52189 2.228-.83955.01852-.04329.02899-.08449.0409-.12603zm-19.382.13185c.71581.3316 1.5046.6188 2.3429.86864-.43613 1.5517-.70626 3.2566-.77902 5.0587h-3.7412c.18105-2.203.96025-4.2292 2.1774-5.9273zm15.177 1.3243c.39681 1.3904.65384 2.9469.72838 4.603h-5.1766v-4.0834c1.5669-.05722 3.064-.23341 4.4482-.51963zm-10.897.02908c1.3875.27872 2.8869.44505 4.4541.49442v4.0795h-5.1746c.07403-1.6448.3284-3.1908.7206-4.5739zm-6.4581 6.5594h3.7412c.07476 1.8516.35663 3.6027.81408 5.1886-.81939.24261-1.5884.52322-2.2923.84343-1.2636-1.7185-2.076-3.7826-2.2631-6.032zm5.7375 0h5.1746v4.2191c-1.5539.0488-3.0414.21214-4.419.48667-.41328-1.4161-.6793-3.0093-.75565-4.7058zm7.1689 0h5.1766c-.07686 1.7078-.34545 3.3117-.76344 4.7349-1.3744-.28197-2.8594-.45525-4.4132-.51188v-4.223zm7.1728 0h3.7549c-.18924 2.2758-1.0187 4.3618-2.3078 6.0921-.0037-.0061-.0039-.01334-.0078-.01939-.69354-.32222-1.4538-.60388-2.2631-.84925.46332-1.5949.74852-3.3585.82382-5.2235zm-9.1671 6.2046v4.5371c-1.1617-.38308-2.2888-1.4217-3.2213-3.0926-.18163-.32548-.34894-.67878-.51026-1.0451 1.1631-.21596 2.4189-.35321 3.7315-.39942zm1.9943.0039c1.3124.05215 2.5669.19492 3.7257.41687-.15872.35879-.32422.70432-.50247 1.0238-.9328 1.6716-2.0604 2.7099-3.2232 3.0926v-4.5332zm-7.6928.85894c.22485.54063.46521 1.0632.73423 1.5453.21151.37903.44331.73284.68554 1.0722-1.1008-.53939-2.1046-1.2381-2.9817-2.0727.48839-.19652 1.0024-.38324 1.5619-.54484zm13.38.0349c.55357.16405 1.063.35193 1.5444.55066-.87127.8207-1.8652 1.5082-2.9544 2.0397.2432-.34281.47651-.69842.68943-1.08.26327-.47179.49958-.98249.72059-1.5104z" fill-rule="evenodd" opacity=".2"/><path d="m24.038 10c-5.9053 0-10.953 3.6737-12.99 8.8415-.10842.26286-.20364.5321-.29603.80272-.01814.05601-.03904.11043-.05648.16675-.443 1.353-.696 2.79-.696 4.289 0 7.667 6.261 13.9 13.962 13.9 5.8496 0 10.862-3.6008 12.938-8.6903.000541-.0013.0014-.0025.002-.0039.14915-.3505.275-.71169.39535-1.0761.45047-1.364.70307-2.8173.70307-4.3296 0-7.6653-6.2626-13.9-13.962-13.9zm-1.0049 2.1697v4.6786c-1.3331-.04682-2.6079-.18745-3.786-.40911.17695-.41285.36246-.81047.56479-1.173.93268-1.6714 2.059-2.714 3.2213-3.0965zm1.9943.07756c.10479.01728.21139.0294.3155.04847 1.0502.45757 2.0595 1.4505 2.9077 2.9704.19858.35586.38089.74546.55505 1.1498-1.1728.22747-2.4465.37511-3.7782.4285v-4.5972zm-6.2497.95783c-.25015.34771-.49137.70759-.70891 1.0974-.28958.51894-.54855 1.0811-.78681 1.6675-.58376-.17046-1.1238-.36342-1.6282-.57198.91023-.8897 1.9651-1.6283 3.1239-2.1929zm10.723.2986c.5446.21747.96212.42034 1.3808.62433.5316.36927 1.0323.779 1.4957 1.2273-.49827.21091-1.0342.40654-1.6126.57974-.23449-.5732-.48751-1.1241-.77123-1.6326-.15492-.27763-.32181-.54086-.49273-.79884zm4.1794 3.3505c1.2724 1.7245 2.089 3.7985 2.2747 6.0591h-3.7549c-.07331-1.8155-.34687-3.5327-.78876-5.0936.79638-.24303 1.5443-.52189 2.228-.83955.01852-.04329.02899-.08449.0409-.12603zm-19.382.13185c.71581.3316 1.5046.6188 2.3429.86864-.43613 1.5517-.70626 3.2566-.77902 5.0587h-3.7412c.18105-2.203.96025-4.2292 2.1774-5.9273zm15.177 1.3243c.39681 1.3904.65384 2.9469.72838 4.603h-5.1766v-4.0834c1.5669-.05722 3.064-.23341 4.4482-.51963zm-10.897.02908c1.3875.27872 2.8869.44505 4.4541.49442v4.0795h-5.1746c.07403-1.6448.3284-3.1908.7206-4.5739zm-6.4581 6.5594h3.7412c.07476 1.8516.35663 3.6027.81408 5.1886-.81939.24261-1.5884.52322-2.2923.84343-1.2636-1.7185-2.076-3.7826-2.2631-6.032zm5.7375 0h5.1746v4.2191c-1.5539.0488-3.0414.21214-4.419.48667-.41328-1.4161-.6793-3.0093-.75565-4.7058zm7.1689 0h5.1766c-.07686 1.7078-.34545 3.3117-.76344 4.7349-1.3744-.28197-2.8594-.45525-4.4132-.51188v-4.223zm7.1728 0h3.7549c-.18924 2.2758-1.0187 4.3618-2.3078 6.0921-.0037-.0061-.0039-.01334-.0078-.01939-.69354-.32222-1.4538-.60388-2.2631-.84925.46332-1.5949.74852-3.3585.82382-5.2235zm-9.1671 6.2046v4.5371c-1.1617-.38308-2.2888-1.4217-3.2213-3.0926-.18163-.32548-.34894-.67878-.51026-1.0451 1.1631-.21596 2.4189-.35321 3.7315-.39942zm1.9943.0039c1.3124.05215 2.5669.19492 3.7257.41687-.15872.35879-.32422.70432-.50247 1.0238-.9328 1.6716-2.0604 2.7099-3.2232 3.0926v-4.5332zm-7.6928.85894c.22485.54063.46521 1.0632.73423 1.5453.21151.37903.44331.73284.68554 1.0722-1.1008-.53939-2.1046-1.2381-2.9817-2.0727.48839-.19652 1.0024-.38324 1.5619-.54484zm13.38.0349c.55357.16405 1.063.35193 1.5444.55066-.87127.8207-1.8652 1.5082-2.9544 2.0397.2432-.34281.47651-.69842.68943-1.08.26327-.47179.49958-.98249.72059-1.5104z" fill="#fff" fill-rule="evenodd"/><path d="m24 4c-11.08 0-20 8.92-20 20 0 .168.0076.333.0117.5.2647-10.846 9.0763-19.5 19.988-19.5 10.9117 0 19.724 8.654 19.988 19.5.004-.167.012-.332.012-.5 0-11.08-8.92-20-20-20z" fill="#fff" opacity=".2"/><path d="m4.0117 23.5c-.0041.167-.0117.332-.0117.5 0 11.08 8.92 20 20 20 11.08 0 20-8.92 20-20 0-.16787-.0076-.33314-.01172-.5-.264 10.846-9.076 19.5-19.988 19.5-10.912 0-19.724-8.654-19.988-19.5z" opacity=".3"/></g><circle cx="17" cy="17" fill="#f34235" r="6"/><path d="m22.99 16.703a6 6 0 0 1 -5.99 5.797 6 6 0 0 1 -5.99-5.703 6 6 0 0 0 -.01.203 6 6 0 0 0  6 6 6 6 0 0 0  6-6 6 6 0 0 0 -.01-.297z" opacity=".3"/><path d="m16 22v-6h2v6zm0-7v-2h2v2z" fill="#fff"/></svg>