<?xml version="1.0" encoding="UTF-8" standalone="no"?>
<!-- Created with Inkscape (http://www.inkscape.org/) -->

<svg
   xmlns:dc="http://purl.org/dc/elements/1.1/"
   xmlns:cc="http://creativecommons.org/ns#"
   xmlns:rdf="http://www.w3.org/1999/02/22-rdf-syntax-ns#"
   xmlns:svg="http://www.w3.org/2000/svg"
   xmlns="http://www.w3.org/2000/svg"
   xmlns:sodipodi="http://sodipodi.sourceforge.net/DTD/sodipodi-0.dtd"
   xmlns:inkscape="http://www.inkscape.org/namespaces/inkscape"
   id="svg2817"
   height="24"
   width="24"
   version="1.0"
   inkscape:version="0.91 r13725"
   sodipodi:docname="opera.svg">
  <sodipodi:namedview
     pagecolor="#ffffff"
     bordercolor="#666666"
     borderopacity="1"
     objecttolerance="10"
     gridtolerance="10"
     guidetolerance="10"
     inkscape:pageopacity="0"
     inkscape:pageshadow="2"
     inkscape:window-width="1600"
     inkscape:window-height="845"
     id="namedview12"
     showgrid="false"
     inkscape:zoom="1"
     inkscape:cx="-4.5254237"
     inkscape:cy="3.8644068"
     inkscape:window-x="0"
     inkscape:window-y="32"
     inkscape:window-maximized="1"
     inkscape:current-layer="svg2817" />
  <metadata
     id="metadata57">
    <rdf:RDF>
      <cc:Work
         rdf:about="">
        <dc:format>image/svg+xml</dc:format>
        <dc:type
           rdf:resource="http://purl.org/dc/dcmitype/StillImage" />
        <dc:title />
      </cc:Work>
    </rdf:RDF>
  </metadata>
  <defs
     id="defs2819">
    <clipPath
       id="clipPath4186"
       clipPathUnits="userSpaceOnUse">
      <circle
         id="path4188"
         style="color:#000000"
         cx="286"
         cy="26"
         r="10"
         fill="url(#linearGradient4190)" />
    </clipPath>
  </defs>
  <path
     style="color:#000000;fill:#e74c3c"
     d="M 12 2 A 10 10 0 0 0 2 12 A 10 10 0 0 0 12 22 A 10 10 0 0 0 22 12 A 10 10 0 0 0 12 2 z M 12 6 A 5 6 0 0 1 17 12 A 5 6 0 0 1 12 18 A 5 6 0 0 1 7 12 A 5 6 0 0 1 12 6 z "
     id="path4154" />
  <circle
     id="path4240"
     style="color:#000000;opacity:0;stroke-width:0.45455"
     clip-path="url(#clipPath4186)"
     cx="286"
     transform="translate(-274.00013,-14)"
     cy="26"
     r="10" />
  <circle
     id="path4242"
     style="color:#000000;opacity:0;stroke-width:0.90908998"
     clip-path="url(#clipPath4186)"
     cx="286"
     transform="translate(-274.00013,-14)"
     cy="26"
     r="10" />
  <path
     style="color:#000000;fill:#ffffff;fill-opacity:1;opacity:0.2"
     d="M 12 2 A 10 10 0 0 0 2 12 A 10 10 0 0 0 2.0097656 12.207031 A 10 10 0 0 1 12 2.5 A 10 10 0 0 1 21.990234 12.292969 A 10 10 0 0 0 22 12 A 10 10 0 0 0 12 2 z M 16.992188 12.197266 A 5 6 0 0 1 12 18 A 5 6 0 0 1 7.0078125 12.302734 A 5 6 0 0 0 7 12.5 A 5 6 0 0 0 12 18.5 A 5 6 0 0 0 17 12.5 A 5 6 0 0 0 16.992188 12.197266 z "
     id="path4157" />
  <path
     style="color:#000000;fill:#000000;fill-opacity:1;opacity:0.3"
     d="M 12 5.5 A 5 6 0 0 0 7 11.5 A 5 6 0 0 0 7.0078125 11.802734 A 5 6 0 0 1 12 6 A 5 6 0 0 1 16.992188 11.697266 A 5 6 0 0 0 17 11.5 A 5 6 0 0 0 12 5.5 z M 2.0097656 11.707031 A 10 10 0 0 0 2 12 A 10 10 0 0 0 12 22 A 10 10 0 0 0 22 12 A 10 10 0 0 0 21.990234 11.792969 A 10 10 0 0 1 12 21.5 A 10 10 0 0 1 2.0097656 11.707031 z "
     id="path4162" />
</svg>
