<?xml version="1.0" encoding="UTF-8" standalone="no"?>
<svg id="svg2817" xmlns:rdf="http://www.w3.org/1999/02/22-rdf-syntax-ns#" xmlns="http://www.w3.org/2000/svg" height="24" width="24" version="1.0" xmlns:cc="http://creativecommons.org/ns#" xmlns:dc="http://purl.org/dc/elements/1.1/">
 <metadata id="metadata57">
  <rdf:RDF>
   <cc:Work rdf:about="">
    <dc:format>image/svg+xml</dc:format>
    <dc:type rdf:resource="http://purl.org/dc/dcmitype/StillImage"/>
    <dc:title/>
   </cc:Work>
  </rdf:RDF>
 </metadata>
 <text id="text4087-2-6-5" opacity=".8" xml:space="preserve" font-size="12.666px" y="-13.187399" x="877.22626" font-family="&apos;Bitstream Vera Sans&apos;" fill="#000000"><tspan id="tspan4089-7-2-9" y="-13.187399" x="877.22626"/></text>
 <text id="text4087-2-6-5-5" opacity=".8" xml:space="preserve" font-size="12.666px" y="-53.929108" x="901.18719" font-family="&apos;Bitstream Vera Sans&apos;" fill="#000000"><tspan id="tspan4089-7-2-9-6" y="-53.929108" x="901.18719"/></text>
 <text id="text4087-2-6-5-2" opacity=".8" xml:space="preserve" font-size="12.666px" y="-84.007248" x="-569.37115" font-family="&apos;Bitstream Vera Sans&apos;" fill="#000000"><tspan id="tspan4089-7-2-9-2" y="-84.007248" x="-569.37115"/></text>
 <text id="text4087-2-6-5-59" opacity=".8" xml:space="preserve" font-size="12.666px" y="661.5462" x="-2393.0571" font-family="&apos;Bitstream Vera Sans&apos;" fill="#000000"><tspan id="tspan4089-7-2-9-4" y="661.5462" x="-2393.0571"/></text>
 <text id="text4087-2-6-5-1" opacity=".8" xml:space="preserve" font-size="12.666px" y="-469.32822" x="-454.88007" font-family="&apos;Bitstream Vera Sans&apos;" fill="#000000"><tspan id="tspan4089-7-2-9-7" y="-469.32822" x="-454.88007"/></text>
 <text id="text4087-2-6-5-7" opacity=".8" xml:space="preserve" font-size="12.666px" y="-882.79834" x="352.72208" font-family="&apos;Bitstream Vera Sans&apos;" fill="#000000"><tspan id="tspan4089-7-2-9-1" y="-882.79834" x="352.72208"/></text>
 <text id="text4087-2-6-5-5-3" opacity=".8" xml:space="preserve" font-size="12.666px" y="-923.54004" x="376.68301" font-family="&apos;Bitstream Vera Sans&apos;" fill="#000000"><tspan id="tspan4089-7-2-9-6-5" y="-923.54004" x="376.68301"/></text>
 <text id="text4087-2-6-5-3" opacity=".8" xml:space="preserve" font-size="12.666px" y="-930.74994" x="-1114.7802" font-family="&apos;Bitstream Vera Sans&apos;" fill="#000000"><tspan id="tspan4089-7-2-9-18" y="-930.74994" x="-1114.7802"/></text>
 <text id="text4087-2-6-5-4" opacity=".8" xml:space="preserve" font-size="12.666px" y="-1203.9841" x="345.7626" font-family="&apos;Bitstream Vera Sans&apos;" fill="#000000"><tspan id="tspan4089-7-2-9-9" y="-1203.9841" x="345.7626"/></text>
 <text id="text4087-2-6-5-7-1" opacity=".8" xml:space="preserve" font-size="12.666px" y="-577.29272" x="1831.8861" font-family="&apos;Bitstream Vera Sans&apos;" fill="#000000"><tspan id="tspan4089-7-2-9-1-8" y="-577.29272" x="1831.8861"/></text>
 <text id="text4087-2-6-5-5-5" opacity=".8" xml:space="preserve" font-size="12.666px" y="-618.03448" x="1855.8469" font-family="&apos;Bitstream Vera Sans&apos;" fill="#000000"><tspan id="tspan4089-7-2-9-6-9" y="-618.03448" x="1855.8469"/></text>
 <text id="text4087-2-6-5-75" opacity=".8" xml:space="preserve" font-size="12.666px" y="-625.24438" x="364.38376" font-family="&apos;Bitstream Vera Sans&apos;" fill="#000000"><tspan id="tspan4089-7-2-9-3" y="-625.24438" x="364.38376"/></text>
 <text id="text4087-2-6-5-4-8" opacity=".8" xml:space="preserve" font-size="12.666px" y="-898.47839" x="1824.9266" font-family="&apos;Bitstream Vera Sans&apos;" fill="#000000"><tspan id="tspan4089-7-2-9-9-8" y="-898.47839" x="1824.9266"/></text>
 <text id="text4087-2-6-5-45" opacity=".8" xml:space="preserve" font-size="12.666px" y="-673.33569" x="-573.43256" font-family="&apos;Bitstream Vera Sans&apos;" fill="#000000"><tspan id="tspan4089-7-2-9-75" y="-673.33569" x="-573.43256"/></text>
 <text id="text4087-2-6-5-59-7" opacity=".8" xml:space="preserve" font-size="12.666px" y="72.217857" x="-2397.1182" font-family="&apos;Bitstream Vera Sans&apos;" fill="#000000"><tspan id="tspan4089-7-2-9-4-0" y="72.217857" x="-2397.1182"/></text>
 <text id="text4087-2-6-5-8" opacity=".8" xml:space="preserve" font-size="12.666px" y="165.09" x="-682.36279" font-family="&apos;Bitstream Vera Sans&apos;" fill="#000000"><tspan id="tspan4089-7-2-9-19" y="165.09" x="-682.36279"/></text>
 <text id="text4087-2-6-5-7-5" opacity=".8" xml:space="preserve" font-size="12.666px" y="-14.092148" x="426.66153" font-family="&apos;Bitstream Vera Sans&apos;" fill="#000000"><tspan id="tspan4089-7-2-9-1-2" y="-14.092148" x="426.66153"/></text>
 <text id="text4087-2-6-5-5-0" opacity=".8" xml:space="preserve" font-size="12.666px" y="-54.833855" x="450.62247" font-family="&apos;Bitstream Vera Sans&apos;" fill="#000000"><tspan id="tspan4089-7-2-9-6-2" y="-54.833855" x="450.62247"/></text>
 <text id="text4087-2-6-5-26" opacity=".8" xml:space="preserve" font-size="12.666px" y="-62.043827" x="-1040.8407" font-family="&apos;Bitstream Vera Sans&apos;" fill="#000000"><tspan id="tspan4089-7-2-9-90" y="-62.043827" x="-1040.8407"/></text>
 <text id="text4087-2-6-5-4-3" opacity=".8" xml:space="preserve" font-size="12.666px" y="-335.27789" x="419.70206" font-family="&apos;Bitstream Vera Sans&apos;" fill="#000000"><tspan id="tspan4089-7-2-9-9-5" y="-335.27789" x="419.70206"/></text>
 <text id="text4087-2-6-5-55" opacity=".8" xml:space="preserve" font-size="12.666px" y="-64.758072" x="-608.03253" font-family="&apos;Bitstream Vera Sans&apos;" fill="#000000"><tspan id="tspan4089-7-2-9-32" y="-64.758072" x="-608.03253"/></text>
 <text id="text4087-2-6-5-59-9" opacity=".8" xml:space="preserve" font-size="12.666px" y="680.79541" x="-2431.7185" font-family="&apos;Bitstream Vera Sans&apos;" fill="#000000"><tspan id="tspan4089-7-2-9-4-1" y="680.79541" x="-2431.7185"/></text>
 <text id="text4087-2-6-5-1-8" opacity=".8" xml:space="preserve" font-size="12.666px" y="-926.28857" x="-456.93948" font-family="&apos;Bitstream Vera Sans&apos;" fill="#000000"><tspan id="tspan4089-7-2-9-7-8" y="-926.28857" x="-456.93948"/></text>
 <text id="text4087-2-6-5-7-8" opacity=".8" xml:space="preserve" font-size="12.666px" y="-1339.7588" x="350.66266" font-family="&apos;Bitstream Vera Sans&apos;" fill="#000000"><tspan id="tspan4089-7-2-9-1-9" y="-1339.7588" x="350.66266"/></text>
 <text id="text4087-2-6-5-5-52" opacity=".8" xml:space="preserve" font-size="12.666px" y="-1380.5005" x="374.62357" font-family="&apos;Bitstream Vera Sans&apos;" fill="#000000"><tspan id="tspan4089-7-2-9-6-4" y="-1380.5005" x="374.62357"/></text>
 <text id="text4087-2-6-5-3-4" opacity=".8" xml:space="preserve" font-size="12.666px" y="-1387.7104" x="-1116.8396" font-family="&apos;Bitstream Vera Sans&apos;" fill="#000000"><tspan id="tspan4089-7-2-9-18-3" y="-1387.7104" x="-1116.8396"/></text>
 <text id="text4087-2-6-5-4-7" opacity=".8" xml:space="preserve" font-size="12.666px" y="-1660.9446" x="343.70316" font-family="&apos;Bitstream Vera Sans&apos;" fill="#000000"><tspan id="tspan4089-7-2-9-9-54" y="-1660.9446" x="343.70316"/></text>
 <text id="text4087-2-6-5-7-1-2" opacity=".8" xml:space="preserve" font-size="12.666px" y="-1034.2533" x="1829.8265" font-family="&apos;Bitstream Vera Sans&apos;" fill="#000000"><tspan id="tspan4089-7-2-9-1-8-0" y="-1034.2533" x="1829.8265"/></text>
 <text id="text4087-2-6-5-5-5-6" opacity=".8" xml:space="preserve" font-size="12.666px" y="-1074.9949" x="1853.7874" font-family="&apos;Bitstream Vera Sans&apos;" fill="#000000"><tspan id="tspan4089-7-2-9-6-9-8" y="-1074.9949" x="1853.7874"/></text>
 <text id="text4087-2-6-5-75-4" opacity=".8" xml:space="preserve" font-size="12.666px" y="-1082.2048" x="362.32431" font-family="&apos;Bitstream Vera Sans&apos;" fill="#000000"><tspan id="tspan4089-7-2-9-3-9" y="-1082.2048" x="362.32431"/></text>
 <text id="text4087-2-6-5-4-8-1" opacity=".8" xml:space="preserve" font-size="12.666px" y="-1355.439" x="1822.8671" font-family="&apos;Bitstream Vera Sans&apos;" fill="#000000"><tspan id="tspan4089-7-2-9-9-8-8" y="-1355.439" x="1822.8671"/></text>
 <text id="text4087-2-6-5-45-0" opacity=".8" xml:space="preserve" font-size="12.666px" y="-1130.2961" x="-575.492" font-family="&apos;Bitstream Vera Sans&apos;" fill="#000000"><tspan id="tspan4089-7-2-9-75-2" y="-1130.2961" x="-575.492"/></text>
 <text id="text4087-2-6-5-59-5" opacity=".8" xml:space="preserve" font-size="12.666px" y="-384.74261" x="-2399.1777" font-family="&apos;Bitstream Vera Sans&apos;" fill="#000000"><tspan id="tspan4089-7-2-9-4-00" y="-384.74261" x="-2399.1777"/></text>
 <text id="text4087-2-6-5-264" opacity=".8" xml:space="preserve" font-size="12.666px" y="-291.87045" x="-684.42224" font-family="&apos;Bitstream Vera Sans&apos;" fill="#000000"><tspan id="tspan4089-7-2-9-8" y="-291.87045" x="-684.42224"/></text>
 <text id="text4087-2-6-5-42" opacity=".8" xml:space="preserve" font-size="12.666px" y="-50.956276" x="155.5923" font-family="&apos;Bitstream Vera Sans&apos;" fill="#000000"><tspan id="tspan4089-7-2-9-93" y="-50.956276" x="155.5923"/></text>
 <text id="text4087-2-6-5-5-05" opacity=".8" xml:space="preserve" font-size="12.666px" y="-91.697998" x="179.55324" font-family="&apos;Bitstream Vera Sans&apos;" fill="#000000"><tspan id="tspan4089-7-2-9-6-49" y="-91.697998" x="179.55324"/></text>
 <text id="text4087-2-6-5-1-4" opacity=".8" xml:space="preserve" font-size="12.666px" y="-285.72662" x="-1090.2634" font-family="&apos;Bitstream Vera Sans&apos;" fill="#000000"><tspan id="tspan4089-7-2-9-7-7" y="-285.72662" x="-1090.2634"/></text>
 <text id="text4087-2-6-5-7-56" opacity=".8" xml:space="preserve" font-size="12.666px" y="-699.19678" x="-282.66141" font-family="&apos;Bitstream Vera Sans&apos;" fill="#000000"><tspan id="tspan4089-7-2-9-1-1" y="-699.19678" x="-282.66141"/></text>
 <text id="text4087-2-6-5-5-8" opacity=".8" xml:space="preserve" font-size="12.666px" y="-739.93848" x="-258.70047" font-family="&apos;Bitstream Vera Sans&apos;" fill="#000000"><tspan id="tspan4089-7-2-9-6-7" y="-739.93848" x="-258.70047"/></text>
 <text id="text4087-2-6-5-3-42" opacity=".8" xml:space="preserve" font-size="12.666px" y="-747.14838" x="-1750.1636" font-family="&apos;Bitstream Vera Sans&apos;" fill="#000000"><tspan id="tspan4089-7-2-9-18-39" y="-747.14838" x="-1750.1636"/></text>
 <text id="text4087-2-6-5-4-4" opacity=".8" xml:space="preserve" font-size="12.666px" y="-1020.3825" x="-289.62085" font-family="&apos;Bitstream Vera Sans&apos;" fill="#000000"><tspan id="tspan4089-7-2-9-9-3" y="-1020.3825" x="-289.62085"/></text>
 <text id="text4087-2-6-5-7-1-0" opacity=".8" xml:space="preserve" font-size="12.666px" y="-393.69113" x="1196.5026" font-family="&apos;Bitstream Vera Sans&apos;" fill="#000000"><tspan id="tspan4089-7-2-9-1-8-5" y="-393.69113" x="1196.5026"/></text>
 <text id="text4087-2-6-5-5-5-5" opacity=".8" xml:space="preserve" font-size="12.666px" y="-434.43286" x="1220.4634" font-family="&apos;Bitstream Vera Sans&apos;" fill="#000000"><tspan id="tspan4089-7-2-9-6-9-2" y="-434.43286" x="1220.4634"/></text>
 <text id="text4087-2-6-5-75-9" opacity=".8" xml:space="preserve" font-size="12.666px" y="-441.64282" x="-270.99973" font-family="&apos;Bitstream Vera Sans&apos;" fill="#000000"><tspan id="tspan4089-7-2-9-3-1" y="-441.64282" x="-270.99973"/></text>
 <text id="text4087-2-6-5-4-8-18" opacity=".8" xml:space="preserve" font-size="12.666px" y="-714.87689" x="1189.5431" font-family="&apos;Bitstream Vera Sans&apos;" fill="#000000"><tspan id="tspan4089-7-2-9-9-8-4" y="-714.87689" x="1189.5431"/></text>
 <text id="text4087-2-6-5-45-3" opacity=".8" xml:space="preserve" font-size="12.666px" y="-489.7341" x="-1208.816" font-family="&apos;Bitstream Vera Sans&apos;" fill="#000000"><tspan id="tspan4089-7-2-9-75-7" y="-489.7341" x="-1208.816"/></text>
 <text id="text4087-2-6-5-59-8" opacity=".8" xml:space="preserve" font-size="12.666px" y="255.81946" x="-3032.5017" font-family="&apos;Bitstream Vera Sans&apos;" fill="#000000"><tspan id="tspan4089-7-2-9-4-2" y="255.81946" x="-3032.5017"/></text>
 <g id="layer4-0" transform="matrix(.90475 0 0 .90475 -716.75 -700.29)">
  <text id="text4087-2-6-5-20" opacity=".8" xml:space="preserve" font-size="14px" y="1159.4154" x="-664.2738" font-family="&apos;Bitstream Vera Sans&apos;" fill="#000000"><tspan id="tspan4089-7-2-9-82" y="1159.4154" x="-664.2738"/></text>
 </g>
 <text id="text4087-2-6-5-9" opacity=".8" xml:space="preserve" font-size="12.666px" y="-5.9494114" x="877.22626" font-family="&apos;Bitstream Vera Sans&apos;" fill="#000000"><tspan id="tspan4089-7-2-9-43" y="-5.9494114" x="877.22626"/></text>
 <text id="text4087-2-6-5-5-51" opacity=".8" xml:space="preserve" font-size="12.666px" y="-46.691116" x="901.18719" font-family="&apos;Bitstream Vera Sans&apos;" fill="#000000"><tspan id="tspan4089-7-2-9-6-74" y="-46.691116" x="901.18719"/></text>
 <text id="text4087-2-6-5-2-3" opacity=".8" xml:space="preserve" font-size="12.666px" y="-76.769257" x="-569.37115" font-family="&apos;Bitstream Vera Sans&apos;" fill="#000000"><tspan id="tspan4089-7-2-9-2-1" y="-76.769257" x="-569.37115"/></text>
 <text id="text4087-2-6-5-59-4" opacity=".8" xml:space="preserve" font-size="12.666px" y="668.78418" x="-2393.0571" font-family="&apos;Bitstream Vera Sans&apos;" fill="#000000"><tspan id="tspan4089-7-2-9-4-6" y="668.78418" x="-2393.0571"/></text>
 <text id="text4087-2-6-5-1-9" opacity=".8" xml:space="preserve" font-size="12.666px" y="-462.09021" x="-454.88007" font-family="&apos;Bitstream Vera Sans&apos;" fill="#000000"><tspan id="tspan4089-7-2-9-7-4" y="-462.09021" x="-454.88007"/></text>
 <text id="text4087-2-6-5-7-2" opacity=".8" xml:space="preserve" font-size="12.666px" y="-875.5603" x="352.72208" font-family="&apos;Bitstream Vera Sans&apos;" fill="#000000"><tspan id="tspan4089-7-2-9-1-26" y="-875.5603" x="352.72208"/></text>
 <text id="text4087-2-6-5-5-3-4" opacity=".8" xml:space="preserve" font-size="12.666px" y="-916.30206" x="376.68301" font-family="&apos;Bitstream Vera Sans&apos;" fill="#000000"><tspan id="tspan4089-7-2-9-6-5-1" y="-916.30206" x="376.68301"/></text>
 <text id="text4087-2-6-5-3-2" opacity=".8" xml:space="preserve" font-size="12.666px" y="-923.51196" x="-1114.7802" font-family="&apos;Bitstream Vera Sans&apos;" fill="#000000"><tspan id="tspan4089-7-2-9-18-8" y="-923.51196" x="-1114.7802"/></text>
 <text id="text4087-2-6-5-4-89" opacity=".8" xml:space="preserve" font-size="12.666px" y="-1196.7461" x="345.7626" font-family="&apos;Bitstream Vera Sans&apos;" fill="#000000"><tspan id="tspan4089-7-2-9-9-2" y="-1196.7461" x="345.7626"/></text>
 <text id="text4087-2-6-5-7-1-8" opacity=".8" xml:space="preserve" font-size="12.666px" y="-570.05475" x="1831.8861" font-family="&apos;Bitstream Vera Sans&apos;" fill="#000000"><tspan id="tspan4089-7-2-9-1-8-8" y="-570.05475" x="1831.8861"/></text>
 <text id="text4087-2-6-5-5-5-8" opacity=".8" xml:space="preserve" font-size="12.666px" y="-610.79651" x="1855.8469" font-family="&apos;Bitstream Vera Sans&apos;" fill="#000000"><tspan id="tspan4089-7-2-9-6-9-6" y="-610.79651" x="1855.8469"/></text>
 <text id="text4087-2-6-5-75-8" opacity=".8" xml:space="preserve" font-size="12.666px" y="-618.00641" x="364.38376" font-family="&apos;Bitstream Vera Sans&apos;" fill="#000000"><tspan id="tspan4089-7-2-9-3-3" y="-618.00641" x="364.38376"/></text>
 <text id="text4087-2-6-5-4-8-8" opacity=".8" xml:space="preserve" font-size="12.666px" y="-891.24036" x="1824.9266" font-family="&apos;Bitstream Vera Sans&apos;" fill="#000000"><tspan id="tspan4089-7-2-9-9-8-3" y="-891.24036" x="1824.9266"/></text>
 <text id="text4087-2-6-5-45-33" opacity=".8" xml:space="preserve" font-size="12.666px" y="-666.09772" x="-573.43256" font-family="&apos;Bitstream Vera Sans&apos;" fill="#000000"><tspan id="tspan4089-7-2-9-75-8" y="-666.09772" x="-573.43256"/></text>
 <text id="text4087-2-6-5-59-7-0" opacity=".8" xml:space="preserve" font-size="12.666px" y="79.455849" x="-2397.1182" font-family="&apos;Bitstream Vera Sans&apos;" fill="#000000"><tspan id="tspan4089-7-2-9-4-0-4" y="79.455849" x="-2397.1182"/></text>
 <text id="text4087-2-6-5-8-7" opacity=".8" xml:space="preserve" font-size="12.666px" y="172.32799" x="-682.36279" font-family="&apos;Bitstream Vera Sans&apos;" fill="#000000"><tspan id="tspan4089-7-2-9-19-6" y="172.32799" x="-682.36279"/></text>
 <text id="text4087-2-6-5-7-5-8" opacity=".8" xml:space="preserve" font-size="12.666px" y="-6.8541603" x="426.66153" font-family="&apos;Bitstream Vera Sans&apos;" fill="#000000"><tspan id="tspan4089-7-2-9-1-2-9" y="-6.8541603" x="426.66153"/></text>
 <text id="text4087-2-6-5-5-0-0" opacity=".8" xml:space="preserve" font-size="12.666px" y="-47.595863" x="450.62247" font-family="&apos;Bitstream Vera Sans&apos;" fill="#000000"><tspan id="tspan4089-7-2-9-6-2-6" y="-47.595863" x="450.62247"/></text>
 <text id="text4087-2-6-5-26-8" opacity=".8" xml:space="preserve" font-size="12.666px" y="-54.805836" x="-1040.8407" font-family="&apos;Bitstream Vera Sans&apos;" fill="#000000"><tspan id="tspan4089-7-2-9-90-7" y="-54.805836" x="-1040.8407"/></text>
 <text id="text4087-2-6-5-4-3-9" opacity=".8" xml:space="preserve" font-size="12.666px" y="-328.03989" x="419.70206" font-family="&apos;Bitstream Vera Sans&apos;" fill="#000000"><tspan id="tspan4089-7-2-9-9-5-0" y="-328.03989" x="419.70206"/></text>
 <text id="text4087-2-6-5-55-3" opacity=".8" xml:space="preserve" font-size="12.666px" y="-57.520081" x="-608.03253" font-family="&apos;Bitstream Vera Sans&apos;" fill="#000000"><tspan id="tspan4089-7-2-9-32-3" y="-57.520081" x="-608.03253"/></text>
 <text id="text4087-2-6-5-59-9-3" opacity=".8" xml:space="preserve" font-size="12.666px" y="688.03345" x="-2431.7185" font-family="&apos;Bitstream Vera Sans&apos;" fill="#000000"><tspan id="tspan4089-7-2-9-4-1-7" y="688.03345" x="-2431.7185"/></text>
 <text id="text4087-2-6-5-1-8-3" opacity=".8" xml:space="preserve" font-size="12.666px" y="-919.0506" x="-456.93948" font-family="&apos;Bitstream Vera Sans&apos;" fill="#000000"><tspan id="tspan4089-7-2-9-7-8-2" y="-919.0506" x="-456.93948"/></text>
 <text id="text4087-2-6-5-7-8-6" opacity=".8" xml:space="preserve" font-size="12.666px" y="-1332.5208" x="350.66266" font-family="&apos;Bitstream Vera Sans&apos;" fill="#000000"><tspan id="tspan4089-7-2-9-1-9-5" y="-1332.5208" x="350.66266"/></text>
 <text id="text4087-2-6-5-5-52-2" opacity=".8" xml:space="preserve" font-size="12.666px" y="-1373.2626" x="374.62357" font-family="&apos;Bitstream Vera Sans&apos;" fill="#000000"><tspan id="tspan4089-7-2-9-6-4-6" y="-1373.2626" x="374.62357"/></text>
 <text id="text4087-2-6-5-3-4-5" opacity=".8" xml:space="preserve" font-size="12.666px" y="-1380.4724" x="-1116.8396" font-family="&apos;Bitstream Vera Sans&apos;" fill="#000000"><tspan id="tspan4089-7-2-9-18-3-8" y="-1380.4724" x="-1116.8396"/></text>
 <text id="text4087-2-6-5-4-7-7" opacity=".8" xml:space="preserve" font-size="12.666px" y="-1653.7065" x="343.70316" font-family="&apos;Bitstream Vera Sans&apos;" fill="#000000"><tspan id="tspan4089-7-2-9-9-54-9" y="-1653.7065" x="343.70316"/></text>
 <text id="text4087-2-6-5-7-1-2-6" opacity=".8" xml:space="preserve" font-size="12.666px" y="-1027.0154" x="1829.8265" font-family="&apos;Bitstream Vera Sans&apos;" fill="#000000"><tspan id="tspan4089-7-2-9-1-8-0-0" y="-1027.0154" x="1829.8265"/></text>
 <text id="text4087-2-6-5-5-5-6-4" opacity=".8" xml:space="preserve" font-size="12.666px" y="-1067.757" x="1853.7874" font-family="&apos;Bitstream Vera Sans&apos;" fill="#000000"><tspan id="tspan4089-7-2-9-6-9-8-1" y="-1067.757" x="1853.7874"/></text>
 <text id="text4087-2-6-5-75-4-0" opacity=".8" xml:space="preserve" font-size="12.666px" y="-1074.9668" x="362.32431" font-family="&apos;Bitstream Vera Sans&apos;" fill="#000000"><tspan id="tspan4089-7-2-9-3-9-4" y="-1074.9668" x="362.32431"/></text>
 <text id="text4087-2-6-5-4-8-1-8" opacity=".8" xml:space="preserve" font-size="12.666px" y="-1348.2009" x="1822.8671" font-family="&apos;Bitstream Vera Sans&apos;" fill="#000000"><tspan id="tspan4089-7-2-9-9-8-8-7" y="-1348.2009" x="1822.8671"/></text>
 <text id="text4087-2-6-5-45-0-0" opacity=".8" xml:space="preserve" font-size="12.666px" y="-1123.0581" x="-575.492" font-family="&apos;Bitstream Vera Sans&apos;" fill="#000000"><tspan id="tspan4089-7-2-9-75-2-8" y="-1123.0581" x="-575.492"/></text>
 <text id="text4087-2-6-5-59-5-6" opacity=".8" xml:space="preserve" font-size="12.666px" y="-377.50461" x="-2399.1777" font-family="&apos;Bitstream Vera Sans&apos;" fill="#000000"><tspan id="tspan4089-7-2-9-4-00-2" y="-377.50461" x="-2399.1777"/></text>
 <text id="text4087-2-6-5-264-4" opacity=".8" xml:space="preserve" font-size="12.666px" y="-284.63245" x="-684.42224" font-family="&apos;Bitstream Vera Sans&apos;" fill="#000000"><tspan id="tspan4089-7-2-9-8-7" y="-284.63245" x="-684.42224"/></text>
 <text id="text4087-2-6-5-42-9" opacity=".8" xml:space="preserve" font-size="12.666px" y="-43.718292" x="155.5923" font-family="&apos;Bitstream Vera Sans&apos;" fill="#000000"><tspan id="tspan4089-7-2-9-93-3" y="-43.718292" x="155.5923"/></text>
 <text id="text4087-2-6-5-5-05-9" opacity=".8" xml:space="preserve" font-size="12.666px" y="-84.460007" x="179.55324" font-family="&apos;Bitstream Vera Sans&apos;" fill="#000000"><tspan id="tspan4089-7-2-9-6-49-2" y="-84.460007" x="179.55324"/></text>
 <text id="text4087-2-6-5-1-4-8" opacity=".8" xml:space="preserve" font-size="12.666px" y="-278.48859" x="-1090.2634" font-family="&apos;Bitstream Vera Sans&apos;" fill="#000000"><tspan id="tspan4089-7-2-9-7-7-3" y="-278.48859" x="-1090.2634"/></text>
 <text id="text4087-2-6-5-7-56-0" opacity=".8" xml:space="preserve" font-size="12.666px" y="-691.9588" x="-282.66141" font-family="&apos;Bitstream Vera Sans&apos;" fill="#000000"><tspan id="tspan4089-7-2-9-1-1-1" y="-691.9588" x="-282.66141"/></text>
 <text id="text4087-2-6-5-5-8-7" opacity=".8" xml:space="preserve" font-size="12.666px" y="-732.7005" x="-258.70047" font-family="&apos;Bitstream Vera Sans&apos;" fill="#000000"><tspan id="tspan4089-7-2-9-6-7-8" y="-732.7005" x="-258.70047"/></text>
 <text id="text4087-2-6-5-3-42-9" opacity=".8" xml:space="preserve" font-size="12.666px" y="-739.91046" x="-1750.1636" font-family="&apos;Bitstream Vera Sans&apos;" fill="#000000"><tspan id="tspan4089-7-2-9-18-39-1" y="-739.91046" x="-1750.1636"/></text>
 <text id="text4087-2-6-5-4-4-5" opacity=".8" xml:space="preserve" font-size="12.666px" y="-1013.1445" x="-289.62085" font-family="&apos;Bitstream Vera Sans&apos;" fill="#000000"><tspan id="tspan4089-7-2-9-9-3-4" y="-1013.1445" x="-289.62085"/></text>
 <text id="text4087-2-6-5-7-1-0-9" opacity=".8" xml:space="preserve" font-size="12.666px" y="-386.45316" x="1196.5026" font-family="&apos;Bitstream Vera Sans&apos;" fill="#000000"><tspan id="tspan4089-7-2-9-1-8-5-2" y="-386.45316" x="1196.5026"/></text>
 <text id="text4087-2-6-5-5-5-5-5" opacity=".8" xml:space="preserve" font-size="12.666px" y="-427.19489" x="1220.4634" font-family="&apos;Bitstream Vera Sans&apos;" fill="#000000"><tspan id="tspan4089-7-2-9-6-9-2-7" y="-427.19489" x="1220.4634"/></text>
 <text id="text4087-2-6-5-75-9-4" opacity=".8" xml:space="preserve" font-size="12.666px" y="-434.40482" x="-270.99973" font-family="&apos;Bitstream Vera Sans&apos;" fill="#000000"><tspan id="tspan4089-7-2-9-3-1-9" y="-434.40482" x="-270.99973"/></text>
 <text id="text4087-2-6-5-4-8-18-9" opacity=".8" xml:space="preserve" font-size="12.666px" y="-707.63892" x="1189.5431" font-family="&apos;Bitstream Vera Sans&apos;" fill="#000000"><tspan id="tspan4089-7-2-9-9-8-4-4" y="-707.63892" x="1189.5431"/></text>
 <text id="text4087-2-6-5-45-3-5" opacity=".8" xml:space="preserve" font-size="12.666px" y="-482.49609" x="-1208.816" font-family="&apos;Bitstream Vera Sans&apos;" fill="#000000"><tspan id="tspan4089-7-2-9-75-7-9" y="-482.49609" x="-1208.816"/></text>
 <text id="text4087-2-6-5-59-8-3" opacity=".8" xml:space="preserve" font-size="12.666px" y="263.05743" x="-3032.5017" font-family="&apos;Bitstream Vera Sans&apos;" fill="#000000"><tspan id="tspan4089-7-2-9-4-2-5" y="263.05743" x="-3032.5017"/></text>
 <g id="layer4-0-7" transform="matrix(.90475 0 0 .90475 -716.75 -693.05)">
  <text id="text4087-2-6-5-20-0" opacity=".8" xml:space="preserve" font-size="14px" y="1159.4154" x="-664.2738" font-family="&apos;Bitstream Vera Sans&apos;" fill="#000000"><tspan id="tspan4089-7-2-9-82-8" y="1159.4154" x="-664.2738"/></text>
 </g>
 <text id="text7276" xml:space="preserve" font-size="12.666px" y="-385.22546" x="435.90427" font-family="&apos;Droid Sans&apos;" fill="#000000"><tspan id="tspan7278" y="-385.22546" x="435.90427"/><tspan id="tspan7280" y="-369.3924" x="435.90427"/></text>
 <text id="text4087-2-6-5-51" opacity=".8" xml:space="preserve" font-size="12.666px" y="-867.27002" x="901.0882" font-family="&apos;Bitstream Vera Sans&apos;" fill="#000000"><tspan id="tspan4089-7-2-9-97" y="-867.27002" x="901.0882"/></text>
 <text id="text4087-2-6-5-59-2" opacity=".8" xml:space="preserve" font-size="12.666px" y="-121.71655" x="-922.59778" font-family="&apos;Bitstream Vera Sans&apos;" fill="#000000"><tspan id="tspan4089-7-2-9-4-4" y="-121.71655" x="-922.59778"/></text>
 <text id="text4087-2-6-5-7-7" opacity=".8" xml:space="preserve" font-size="12.666px" y="-1152.2659" x="1628.1677" font-family="&apos;Bitstream Vera Sans&apos;" fill="#000000"><tspan id="tspan4089-7-2-9-1-6" y="-1152.2659" x="1628.1677"/></text>
 <text id="text4087-2-6-5-5-6" opacity=".8" xml:space="preserve" font-size="12.666px" y="-1193.0076" x="1652.1285" font-family="&apos;Bitstream Vera Sans&apos;" fill="#000000"><tspan id="tspan4089-7-2-9-6-53" y="-1193.0076" x="1652.1285"/></text>
 <text id="text4087-2-6-5-54" opacity=".8" xml:space="preserve" font-size="12.666px" y="-1200.2175" x="160.66542" font-family="&apos;Bitstream Vera Sans&apos;" fill="#000000"><tspan id="tspan4089-7-2-9-0" y="-1200.2175" x="160.66542"/></text>
 <text id="text4087-2-6-5-4-1" opacity=".8" xml:space="preserve" font-size="12.666px" y="-1473.4517" x="1621.2083" font-family="&apos;Bitstream Vera Sans&apos;" fill="#000000"><tspan id="tspan4089-7-2-9-9-28" y="-1473.4517" x="1621.2083"/></text>
 <rect id="rect4355" transform="matrix(0,-1,-1,0,0,0)" rx="10" ry="9.999" height="19.998" width="20" y="-21.999" x="-22" fill="#5a4080"/>
 <path id="path4425" opacity=".2" d="m11.5 6.5c-1.059 0.5539-1.5211 1.5561-2 2.5-0.3044-0.4115-0.3819-0.9885-0.5-1.5-0.9357 1.2318-1.348 3.278-1.7246 4.51-0.5334 1.751-1.2114 2.825-2.1816 3.451-0.5602 0.361-1.084 0.554-2.1368 0.797 1.5947 3.396 5.0301 5.742 9.043 5.742 0.115 0 0.227-0.014 0.342-0.018 0.19-0.755 0.196-1.575 0.064-2.136-0.118-0.469-0.426-1.313-0.406-1.346s0.524 0.018 0.951 0.018c0.505 0 0.875 0.018 1.143-0.063 0.226-0.068 0.495-0.18 0.656-0.172 0.714 0.036 1.617-0.287 1.855-0.922 0.075-0.197 0.202-0.451 0.284-0.564 0.134-0.185 0.139-0.238 0.052-0.529-0.122-0.412-0.37-0.755-0.896-1.235-0.399-0.364-0.525-0.401-0.545-0.791-0.015-0.286 0.063-0.486-0.092-0.633-0.176-0.165-0.693-0.059-0.722-0.062-0.185-0.215-0.362-0.44-0.022-0.75 0.257-0.235 0.305-0.323 0.305-0.58 0-0.253-0.047-0.342-0.27-0.537-0.147-0.129-0.304-0.235-0.351-0.235s-0.284-0.189-0.526-0.42c-0.468-0.446-0.832-0.525-1.197-0.525-0.295 0-0.625-0.073-0.625-0.5 0.393-1.4223 1.911-2.1716 2.5-2.5-1.493-0.2114-2.509 0.101-3.5 1-0.047-0.5224 0.445-1.6625 0.5-2z"/>
 <path id="path4359" fill="#7abccb" d="m11.5 6c-1.059 0.5539-1.5211 1.5561-2 2.5-0.3044-0.4115-0.3819-0.9885-0.5-1.5-0.9357 1.2318-1.348 3.278-1.7246 4.51-0.5334 1.751-1.2114 2.825-2.1816 3.451-0.5765 0.372-1.0942 0.563-2.211 0.816-0.0488 0.015-0.0837 0.021-0.1308 0.034 1.4624 3.564 4.9178 6.076 8.996 6.177 0.151-0.007 0.303-0.013 0.453-0.023 0.338-0.864 0.365-1.937 0.205-2.619-0.118-0.469-0.426-1.313-0.406-1.346s0.524 0.018 0.951 0.018c0.505 0 0.875 0.018 1.143-0.063 0.226-0.068 0.495-0.18 0.656-0.172 0.714 0.036 1.617-0.287 1.855-0.922 0.075-0.197 0.202-0.451 0.284-0.564 0.134-0.185 0.139-0.238 0.052-0.529-0.122-0.412-0.37-0.755-0.896-1.235-0.399-0.364-0.525-0.401-0.545-0.791-0.015-0.286 0.063-0.486-0.092-0.633-0.176-0.165-0.693-0.059-0.722-0.062-0.185-0.215-0.362-0.44-0.022-0.75 0.257-0.235 0.305-0.323 0.305-0.58 0-0.253-0.047-0.342-0.27-0.537-0.147-0.129-0.304-0.235-0.351-0.235s-0.284-0.189-0.526-0.42c-0.468-0.446-0.832-0.525-1.197-0.525-0.295 0-0.625-0.073-0.625-0.5 0.393-1.4223 1.911-2.1716 2.5-2.5-1.493-0.2114-2.509 0.101-3.5 1-0.047-0.5224 0.445-1.6625 0.5-2z"/>
 <path id="path4361" opacity=".1" fill="#fff" d="m12 2c-5.5395 0-9.999 4.46-9.999 10 0 0.08386-0.002 0.16664 0 0.25 0.1321-5.423 4.5435-9.75 9.999-9.75s9.867 4.3268 9.999 9.75c0.002-0.08335 0-0.16614 0-0.25 0-5.54-4.459-10-9.999-10z"/>
 <path id="path4363" opacity=".2" d="m2.0058 12.25c-0.002 0.084-0.0058 0.166-0.0058 0.25 0 5.54 4.46 10 10 10s10-4.46 10-10c0-0.084-0.004-0.1665-0.006-0.25-0.132 5.423-4.538 9.75-9.994 9.75s-9.862-4.327-9.994-9.75z"/>
</svg>
