/* XPM */
static char * wordview_xpm[] = {
"24 24 110 2",
"  	c None",
". 	c #4EACF4",
"+ 	c #4CAAF3",
"@ 	c #4FABF4",
"# 	c #38A0F2",
"$ 	c #37A0F2",
"% 	c #CDE5F9",
"& 	c #CEE6F9",
"* 	c #E5EFF8",
"= 	c #FDFEFE",
"- 	c #5CB0F2",
"; 	c #A9CEEB",
"> 	c #96C9F0",
", 	c #97C9F0",
"' 	c #6EB2E6",
") 	c #D2E6F6",
"! 	c #3BA2F2",
"~ 	c #CFE7F9",
"{ 	c #3C9FEC",
"] 	c #F4F9FC",
"^ 	c #FCFDFE",
"/ 	c #4BA8F2",
"( 	c #8BC6F3",
"_ 	c #BED9EE",
": 	c #83C0F0",
"< 	c #46A7F3",
"[ 	c #EEF5FB",
"} 	c #ECEFF5",
"| 	c #7B769F",
"1 	c #A34D5A",
"2 	c #BE3C38",
"3 	c #C33F39",
"4 	c #C05959",
"5 	c #7173A0",
"6 	c #3A9DEC",
"7 	c #82BAE7",
"8 	c #BEDBF2",
"9 	c #A7D2F3",
"0 	c #C6DDEF",
"a 	c #C2CADA",
"b 	c #CC5B56",
"c 	c #C03630",
"d 	c #A64A55",
"e 	c #4595DD",
"f 	c #48A2E8",
"g 	c #5DB1F4",
"h 	c #F8FBFD",
"i 	c #FAFCFE",
"j 	c #58A1DE",
"k 	c #AC4A51",
"l 	c #379FF1",
"m 	c #D3E5F3",
"n 	c #E7F2FA",
"o 	c #A6CBE8",
"p 	c #72719E",
"q 	c #96C4E9",
"r 	c #EEF5FA",
"s 	c #449FE6",
"t 	c #A34D59",
"u 	c #CF6561",
"v 	c #EDC6C5",
"w 	c #FBF3F3",
"x 	c #FDF7F7",
"y 	c #EEC9C7",
"z 	c #C0362F",
"A 	c #5AA9E7",
"B 	c #8ABCE3",
"C 	c #BA3B39",
"D 	c #D57874",
"E 	c #FEFCFC",
"F 	c #F6E2E1",
"G 	c #C8504B",
"H 	c #C9524D",
"I 	c #F6E3E3",
"J 	c #D47773",
"K 	c #BF3630",
"L 	c #379EEF",
"M 	c #CFE2F1",
"N 	c #D0E3F2",
"O 	c #399CE9",
"P 	c #B63A38",
"Q 	c #F6E1E0",
"R 	c #FFFFFF",
"S 	c #E3A4A2",
"T 	c #D67E7A",
"U 	c #D67D79",
"V 	c #E3A5A2",
"W 	c #BB352F",
"X 	c #3497E4",
"Y 	c #9B4955",
"Z 	c #F7E5E4",
"` 	c #CA5651",
" .	c #B3322C",
"..	c #696A94",
"+.	c #FBF1F0",
"@.	c #FAF0F0",
"#.	c #ECC2C0",
"$.	c #379FF0",
"%.	c #3A9CEA",
"&.	c #93424B",
"*.	c #92414A",
"=.	c #2D82C6",
"-.	c #2F89D0",
";.	c #3C7CB9",
">.	c #8D3C43",
",.	c #BA342E",
"'.	c #3D75AA",
").	c #9E2C26",
"!.	c #A12D29",
"~.	c #9B2C26",
"                                                ",
"                                                ",
"    . + + + + + + + + + + + + + + + + + + @     ",
"    # $ $ $ $ $ $ $ $ $ $ $ $ $ $ $ $ $ $ #     ",
"    $ $ $ $ $ $ $ $ $ $ $ $ $ $ $ $ $ $ $ $     ",
"    $ $ $ $ $ $ $ $ $ $ $ $ $ $ $ $ $ $ $ $     ",
"    $ $ % & # $ $ $ $ $ $ $ $ $ $ # & % $ $     ",
"    $ $ * = - $ $ $ $ $ $ $ $ $ $ - = * $ $     ",
"    $ $ ; = > $ $ $ $ $ $ $ $ $ $ , = ; $ $     ",
"    $ $ ' = ) $ $ $ ! ~ ~ ! $ $ $ ) = ' $ $     ",
"    $ $ { ] ^ / $ $ ( = = ( $ $ / ^ ] { $ $     ",
"    $ $ $ _ = : $ < [ = = } | 1 2 3 4 5 6 $     ",
"    $ $ $ 7 = 8 $ 9 = 0 a b c c c c c c d e     ",
"    $ $ $ f ^ ] g h i j k c c c c c c c c d     ",
"    $ $ $ l m = n = o p c c c c c c c c c c     ",
"    $ $ $ $ q = = r s t c c u v w x y u c c z   ",
"    $ $ $ $ A = = B $ C c D E F G H I E J c K   ",
"    $ $ $ $ L M N O $ P c Q R S T U V R Q c W   ",
"    $ $ $ $ $ X X $ $ Y c J E Z H ` Z E D c  .  ",
"    $ $ $ $ $ $ $ $ $ ..K c u y +.@.#.u c K     ",
"    $.$ $ $ $ $ $ $ $ %.&.c c c c c c c c *.    ",
"    =.-.-.-.-.-.-.-.-.-.;.>.,.c c c c ,.>.'.    ",
"                              ).!.!.~.          ",
"                                                "};
