<?xml version="1.0" encoding="UTF-8" standalone="no"?>
<!-- Created with Inkscape (http://www.inkscape.org/) -->

<svg
   xmlns:dc="http://purl.org/dc/elements/1.1/"
   xmlns:cc="http://creativecommons.org/ns#"
   xmlns:rdf="http://www.w3.org/1999/02/22-rdf-syntax-ns#"
   xmlns:svg="http://www.w3.org/2000/svg"
   xmlns="http://www.w3.org/2000/svg"
   xmlns:sodipodi="http://sodipodi.sourceforge.net/DTD/sodipodi-0.dtd"
   xmlns:inkscape="http://www.inkscape.org/namespaces/inkscape"
   id="svg3143"
   height="24"
   width="24"
   version="1.1"
   inkscape:version="0.91 r13725"
   sodipodi:docname="wps-office-wppmain.svg">
  <defs
     id="defs9" />
  <sodipodi:namedview
     pagecolor="#ffffff"
     bordercolor="#666666"
     borderopacity="1"
     objecttolerance="10"
     gridtolerance="10"
     guidetolerance="10"
     inkscape:pageopacity="0"
     inkscape:pageshadow="2"
     inkscape:window-width="1600"
     inkscape:window-height="845"
     id="namedview7"
     showgrid="false"
     inkscape:zoom="1"
     inkscape:cx="26.080409"
     inkscape:cy="3.8644068"
     inkscape:window-x="0"
     inkscape:window-y="32"
     inkscape:window-maximized="1"
     inkscape:current-layer="svg3143" />
  <metadata
     id="metadata3148">
    <rdf:RDF>
      <cc:Work
         rdf:about="">
        <dc:format>image/svg+xml</dc:format>
        <dc:type
           rdf:resource="http://purl.org/dc/dcmitype/StillImage" />
        <dc:title />
      </cc:Work>
    </rdf:RDF>
  </metadata>
  <g
     id="g4137"
     transform="matrix(0.49924627,0,0,0.49924627,-0.46778931,0.50396835)">
    <path
       d="m 9,39 0,-15 21,0 c 0,0 9,0 9,-7.5 C 39,9 30,9 30,9 L 9,9"
       id="path5473"
       inkscape:connector-curvature="0"
       style="fill:none;stroke:#f87e3c;stroke-width:8;stroke-linecap:round;stroke-linejoin:round" />
    <path
       d="M 9,5 A 4.0004,4.0004 0 0 0 4.9727,9.4863 4.0004,4.0004 0 0 1 9,5.9434 l 21,0 c 0,0 2.915,-0.0556 6.039,1.2461 3.03,1.2626 6.721,4.6955 6.94,9.7835 C 42.985,16.815 43,16.661 43,16.5 43,11.15 39.163,7.5477 36.039,6.246 32.915,4.9445 30,5 30,5 L 9,5 Z m 25.979,11.973 c -0.101,1.685 -0.755,1.872 -2.018,2.398 C 31.585,19.944 30,20 30,20 L 9,20 a 4.0004,4.0004 0 0 0 -4,4 l 0,0.943 a 4.0004,4.0004 0 0 1 4,-4 l 21,0 c 0,0 1.585,-0.055 2.961,-0.629 C 34.337,19.741 35,19.593 35,17.443 c 0,-0.176 -0.013,-0.319 -0.021,-0.47 z"
       style="color:#000000;text-indent:0;text-decoration:none;text-decoration-line:none;text-decoration-style:solid;text-decoration-color:#000000;text-transform:none;block-progression:tb;white-space:normal;opacity:0.2;isolation:auto;mix-blend-mode:normal;solid-color:#000000;fill:#ffffff;fill-rule:evenodd;color-rendering:auto;image-rendering:auto;shape-rendering:auto"
       id="path5497"
       inkscape:connector-curvature="0" />
    <path
       style="color:#000000;text-indent:0;text-decoration:none;text-decoration-line:none;text-decoration-style:solid;text-decoration-color:#000000;text-transform:none;block-progression:tb;white-space:normal;opacity:0.3;isolation:auto;mix-blend-mode:normal;solid-color:#000000;fill-rule:evenodd;color-rendering:auto;image-rendering:auto;shape-rendering:auto"
       d="M 4.9824,8.4805 A 4.0004,4.0004 0 0 0 9,13 l 21,0 c 0,0 1.585,0.056 2.961,0.629 1.249,0.521 1.904,0.707 2.016,2.344 C 34.988,15.806 35,15.642 35,15.443 35,13.293 34.337,13.146 32.961,12.572 31.585,11.999 30,11.943 30,11.943 l -21,0 A 4.0004,4.0004 0 0 1 4.9824,8.4805 Z m 37.995,7.4925 c -0.245,5.055 -3.919,8.466 -6.938,9.724 -3.124,1.302 -6.039,1.246 -6.039,1.246 l -17,0 0,1.057 17,0 c 0,0 2.915,0.056 6.039,-1.246 3.124,-1.302 6.961,-4.904 6.961,-10.254 0,-0.179 -0.015,-0.352 -0.023,-0.527 z m -37.977,21.97 0,1.057 a 4.0004,4.0004 0 1 0 8,0 l 0,-1.057 a 4.0004,4.0004 0 1 1 -8,0 z"
       id="path5502"
       inkscape:connector-curvature="0" />
  </g>
</svg>
