<svg width="64" height="64" version="1.1" xmlns="http://www.w3.org/2000/svg">
 <path d="m20.700023 5c-1.340501 4.522e-4 -2.492667 0.9508464-2.748047 2.2667974l-9.7999839 50.4c-0.4493443 2.313647 1.9861129 4.113625 4.0660159 3.005078l19.781992-10.671875 19.781992 10.671875c2.079904 1.108548 4.515359-0.691431 4.066016-3.005078l-9.799985-50.4c-0.255379-1.315951-1.407546-2.2663452-2.748047-2.2667974z" style="opacity:.2"/>
 <path d="m20.700023 4c-1.340501 4.522e-4 -2.492667 0.9508464-2.748047 2.2667974l-9.7999839 50.4c-0.4493443 2.313647 1.9861129 4.113625 4.0660159 3.005078l19.781992-10.671875 19.781992 10.671875c2.079904 1.108548 4.515359-0.691431 4.066016-3.005078l-9.799985-50.4c-0.255379-1.315951-1.407546-2.2663452-2.748047-2.2667974z" style="fill:#4f4f4f"/>
 <path d="m32 43 7-13-7-12-7 12z" style="opacity:.2"/>
 <path d="m32 42 7-13-7-12-7 12z" style="fill:#ffffff"/>
 <path d="m20.699219 4c-1.340501 4.522e-4 -2.492667 0.9516271-2.748047 2.2675781l-9.7988282 50.398438c-0.0704253 0.362615-0.0627304 0.710902-0.0039063 1.039062 0.0022735-0.012551 0.0014626-0.024527 0.0039063-0.037109l9.7988282-50.400391c0.25538-1.315951 1.407546-2.2671259 2.748047-2.2675781h22.601562c1.340501 4.522e-4 2.492668 0.9516271 2.748047 2.2675781l9.798828 50.400391c0.002444 0.012582 0.001633 0.024558 0.003906 0.037109 0.058825-0.32816 0.066519-0.676447-0.003906-1.039062l-9.798828-50.398438c-0.255379-1.315951-1.407546-2.2671259-2.748047-2.2675781h-22.601562z" style="fill:#f9f9f9;opacity:.1"/>
</svg>
