<svg xmlns="http://www.w3.org/2000/svg" width="64" height="64" version="1">
 <path style="opacity:0.2" d="m 4,56 0,2 c 0,1.662 1.338,3 3,3 l 50,0 c 1.662,0 3,-1.338 3,-3 l 0,-2 c 0,1.662 -1.338,3 -3,3 L 7,59 C 5.338,59 4,57.662 4,56 Z"/>
 <rect style="fill:#c2352a" width="56" height="56" x="-60" y="-60" rx="3" ry="3" transform="matrix(0,-1,-1,0,0,0)"/>
 <path style="opacity:0.1;fill:#ffffff" d="M 7 4 C 5.338 4 4 5.338 4 7 L 4 8 C 4 6.338 5.338 5 7 5 L 57 5 C 58.662 5 60 6.338 60 8 L 60 7 C 60 5.338 58.662 4 57 4 L 7 4 z"/>
 <path style="opacity:0.2" d="M 14.1876,15.1254 24,25 l 16,0 0,15.9376 10,9.9376 0,-35.75 z M 24,27.312 14,37.062 14,51 28.75,51 38.624,41 24,41 Z"/>
 <path style="fill:#ffffff" d="M 14.1876,14.1254 24,24 l 16,0 0,15.9376 10,9.9376 0,-35.75 z M 24,26.312 14,36.062 14,50 28.75,50 38.624,40 24,40 Z"/>
</svg>
