<svg width="64" height="64" version="1.1" xmlns="http://www.w3.org/2000/svg">
 <circle cx="32" cy="33" r="28" style="opacity:.2"/>
 <circle cx="32" cy="32" r="28" style="fill:#f14223"/>
 <circle cx="32" cy="32" r="20" style="fill:#4e59b3"/>
 <path d="m32 13a20.000001 20.000001 0 0 0-20 20 20.000001 20.000001 0 0 0 20 20 20.000001 20.000001 0 0 0 20-20 20.000001 20.000001 0 0 0-20-20zm0 3a17.000277 17.000277 0 0 1 5.246094 0.837891l-2.41211 4.830078-2.833984 5.664062-2.833984-5.664062-2.40625-4.820313a17.000277 17.000277 0 0 1 5.240234-0.847656zm-7.720703 1.853516 1.710937 5.130859 2.001954 6.007813-6.007813-2.001954-5.113281-1.705078a17.000277 17.000277 0 0 1 3.283203-4.480468 17.000277 17.000277 0 0 1 4.125-2.951172zm15.435547 0.01758a17.000277 17.000277 0 0 1 4.480468 3.283203 17.000277 17.000277 0 0 1 2.951172 4.125l-5.130859 1.710937-6.007813 2.001954 2.001954-6.007813zm-23.876953 9.882812 4.830078 2.41211 5.664062 2.833982-5.664062 2.833984-4.820313 2.40625a17.000277 17.000277 0 0 1-0.847656-5.240234 17.000277 17.000277 0 0 1 0.837891-5.246094zm32.314453 0.0059a17.000277 17.000277 0 0 1 0.847656 5.240192 17.000277 17.000277 0 0 1-0.837891 5.246094l-4.830078-2.41211-5.664062-2.833984 5.664062-2.833984 4.820313-2.40625zm-16.152344 1.240192a0.99990203 0.99990203 0 0 1 0.998047 1 0.99990203 0.99990203 0 0 1-0.998047 1 0.99990203 0.99990203 0 0 1-1-1 0.99990203 0.99990203 0 0 1 1-1zm-3 3a0.99990203 0.99990203 0 0 1 1 1 0.99990203 0.99990203 0 0 1-1 0.998047 0.99990203 0.99990203 0 0 1-1-0.998047 0.99990203 0.99990203 0 0 1 1-1zm6 0a0.99990203 0.99990203 0 0 1 1 1 0.99990203 0.99990203 0 0 1-1 0.998047 0.99990203 0.99990203 0 0 1-1-0.998047 0.99990203 0.99990203 0 0 1 1-1zm-3 3a0.99990203 0.99990203 0 0 1 0.998047 1 0.99990203 0.99990203 0 0 1-0.998047 1 0.99990203 0.99990203 0 0 1-1-1 0.99990203 0.99990203 0 0 1 1-1zm-4.007812 2.007812-2.001954 6.007813-1.705078 5.113281a17.000277 17.000277 0 0 1-4.480468-3.283203 17.000277 17.000277 0 0 1-2.951172-4.125l5.130859-1.710937zm8.015624 0 6.007813 2.001954 5.113281 1.705078a17.000277 17.000277 0 0 1-3.283203 4.480468 17.000277 17.000277 0 0 1-4.125 2.951172l-1.710937-5.130859zm-4.007812 1.660157 2.833984 5.664062 2.40625 4.820313a17.000277 17.000277 0 0 1-5.240234 0.847656 17.000277 17.000277 0 0 1-5.246094-0.837891l2.41211-4.830078z" style="opacity:.2"/>
 <path d="m32 12a20.000001 20.000001 0 0 0-20 20 20.000001 20.000001 0 0 0 20 20 20.000001 20.000001 0 0 0 20-20 20.000001 20.000001 0 0 0-20-20zm0 3a17.000277 17.000277 0 0 1 5.246094 0.837891l-2.41211 4.830078-2.833984 5.664062-2.833984-5.664062-2.40625-4.820313a17.000277 17.000277 0 0 1 5.240234-0.847656zm-7.720703 1.853516 1.710937 5.130859 2.001954 6.007813-6.007813-2.001954-5.113281-1.705078a17.000277 17.000277 0 0 1 3.283203-4.480468 17.000277 17.000277 0 0 1 4.125-2.951172zm15.435547 0.01758a17.000277 17.000277 0 0 1 4.480468 3.283203 17.000277 17.000277 0 0 1 2.951172 4.125l-5.130859 1.710937-6.007813 2.001954 2.001954-6.007813zm-23.876953 9.882812 4.830078 2.41211 5.664062 2.833982-5.664062 2.833984-4.820313 2.40625a17.000277 17.000277 0 0 1-0.847656-5.240234 17.000277 17.000277 0 0 1 0.837891-5.246094zm32.314453 0.0059a17.000277 17.000277 0 0 1 0.847656 5.240192 17.000277 17.000277 0 0 1-0.837891 5.246094l-4.830078-2.41211-5.664062-2.833984 5.664062-2.833984zm-16.152344 1.240192a0.99990203 0.99990203 0 0 1 0.998047 1 0.99990203 0.99990203 0 0 1-0.998047 1 0.99990203 0.99990203 0 0 1-1-1 0.99990203 0.99990203 0 0 1 1-1zm-3 3a0.99990203 0.99990203 0 0 1 1 1 0.99990203 0.99990203 0 0 1-1 0.998047 0.99990203 0.99990203 0 0 1-1-0.998047 0.99990203 0.99990203 0 0 1 1-1zm6 0a0.99990203 0.99990203 0 0 1 1 1 0.99990203 0.99990203 0 0 1-1 0.998047 0.99990203 0.99990203 0 0 1-1-0.998047 0.99990203 0.99990203 0 0 1 1-1zm-3 3a0.99990203 0.99990203 0 0 1 0.998047 1 0.99990203 0.99990203 0 0 1-0.998047 1 0.99990203 0.99990203 0 0 1-1-1 0.99990203 0.99990203 0 0 1 1-1zm-4.007812 2.007812-2.001954 6.007813-1.705078 5.113281a17.000277 17.000277 0 0 1-4.480468-3.283203 17.000277 17.000277 0 0 1-2.951172-4.125l5.130859-1.710937zm8.015624 0 6.007813 2.001954 5.113281 1.705078a17.000277 17.000277 0 0 1-3.283203 4.480468 17.000277 17.000277 0 0 1-4.125 2.951172l-1.710937-5.130859zm-4.007812 1.660157 2.833984 5.664062 2.40625 4.820313a17.000277 17.000277 0 0 1-5.240234 0.847656 17.000277 17.000277 0 0 1-5.246094-0.837891l2.41211-4.830078z" style="fill:#ffffff"/>
 <path d="M 32,4 A 28,28 0 0 0 4,32 28,28 0 0 0 4.0214844,32.585938 28,28 0 0 1 32,5 28,28 0 0 1 59.978516,32.414062 28,28 0 0 0 60,32 28,28 0 0 0 32,4 Z" style="fill:#ffffff;opacity:.2"/>
</svg>
