<?xml version="1.0" encoding="UTF-8" standalone="no"?>
<svg
   xmlns:dc="http://purl.org/dc/elements/1.1/"
   xmlns:cc="http://creativecommons.org/ns#"
   xmlns:rdf="http://www.w3.org/1999/02/22-rdf-syntax-ns#"
   xmlns:svg="http://www.w3.org/2000/svg"
   xmlns="http://www.w3.org/2000/svg"
   xmlns:sodipodi="http://sodipodi.sourceforge.net/DTD/sodipodi-0.dtd"
   xmlns:inkscape="http://www.inkscape.org/namespaces/inkscape"
   width="64"
   height="64"
   version="1.1"
   id="svg28"
   sodipodi:docname="androidstudio.svg"
   inkscape:version="0.92.3 (2405546, 2018-03-11)">
  <metadata
     id="metadata34">
    <rdf:RDF>
      <cc:Work
         rdf:about="">
        <dc:format>image/svg+xml</dc:format>
        <dc:type
           rdf:resource="http://purl.org/dc/dcmitype/StillImage" />
      </cc:Work>
    </rdf:RDF>
  </metadata>
  <defs
     id="defs32" />
  <sodipodi:namedview
     pagecolor="#ffffff"
     bordercolor="#666666"
     borderopacity="1"
     objecttolerance="10"
     gridtolerance="10"
     guidetolerance="10"
     inkscape:pageopacity="0"
     inkscape:pageshadow="2"
     inkscape:window-width="1535"
     inkscape:window-height="832"
     id="namedview30"
     showgrid="false"
     inkscape:zoom="3.6875"
     inkscape:cx="32"
     inkscape:cy="32"
     inkscape:window-x="65"
     inkscape:window-y="32"
     inkscape:window-maximized="1"
     inkscape:current-layer="g26" />
  <g
     transform="translate(0,-1058.5197)"
     id="g26">
    <circle
       style="opacity:0.2"
       cx="32"
       cy="1091.52"
       r="29"
       id="circle2" />
    <circle
       style="fill:#3dda84;fill-opacity:0.94117647"
       cx="32"
       cy="1090.52"
       r="29"
       id="circle4" />
    <path
       style="opacity:0.1"
       d="m 34.557948,1086.4207 -5.022948,2.9 15.95,27.626 5.411474,3.573 -0.388526,-6.473 z"
       id="path6" />
    <path
       style="fill:#e4e4e4"
       d="m 34.557948,1085.4207 -5.022948,2.9 15.95,27.626 5.411474,3.573 -0.388526,-6.473 z"
       id="path8" />
    <path
       style="opacity:0.2"
       d="m 29.488282,1086.4221 -15.94922,27.625 -0.390624,6.4726 5.414062,-3.5742 2.898438,-5.0196 c 3.246318,1.683 6.85494,2.5872 10.539062,2.5938 12.70255,0 23,-10.2974 23,-23 -0.0096,-0.3336 -0.0266,-0.667 -0.05078,-1 h -5.984374 c 0.02152,0.333 0.03326,0.6664 0.03516,1 0,9.3888 -7.61116,17 -17,17 -2.650842,0 -5.213098,-0.6554 -7.53125,-1.8086 l 10.042968,-17.3906 z"
       id="path10" />
    <path
       style="fill:#ffffff"
       d="m 29.488526,1085.4207 5.022948,2.9 -15.95,27.626 -5.411474,3.573 0.388526,-6.473 z"
       id="path12" />
    <path
       style="opacity:0.1"
       d="m 29,1072.5196 v 6 H 25.999998 C 23,1078.5196 23,1081.403 23,1081.403 v 11.9364 l 6,5.8946 c 1.99296,1.5824 4.151174,1.8412 6,0 l 6,-5.8946 v -11.9364 c 0,-2.9474 -2.999998,-2.8834 -2.999998,-2.8834 H 35 v -6 z"
       id="path14" />
    <path
       style="fill:#4f4f4f"
       d="m 29,1071.5197 v 6 H 25.999998 C 23,1077.5197 23,1080.4031 23,1080.4031 v 11.9364 l 6,5.8946 c 1.99296,1.5824 4.151174,1.8412 6,0 l 6,-5.8946 v -11.9364 c 0,-2.9474 -2.999998,-2.8834 -2.999998,-2.8834 H 35 v -6 z"
       id="path16" />
    <circle
       style="opacity:0.2"
       cx="32"
       cy="1087.52"
       r="3"
       id="circle18" />
    <circle
       style="fill:#ffffff"
       cx="32"
       cy="1086.52"
       r="3"
       id="circle20" />
    <path
       style="fill:#ffffff"
       d="m 48.964844,1089.5197 c 0.02152,0.3329 0.03326,0.6664 0.03516,1 0,9.3888 -7.61116,17 -17,17 -3.225652,0 -6.34409,-0.9251 -9.016804,-2.6033 -1.484598,-0.9322 -0.831668,-0.024 -1.9832,-1.3967 l -2,5.9453 c 3.824706,2.6328 8.356726,4.0464 13,4.0547 12.70255,0 23,-10.2974 23,-23 -0.0097,-0.3337 -0.0266,-0.6671 -0.05078,-1 z"
       id="path22" />
    <path
       style="opacity:0.2;fill:#ffffff"
       transform="translate(0,1058.5197)"
       d="M 32 3 A 29 29 0 0 0 3 32 A 29 29 0 0 0 3.0175781 32.488281 A 29 29 0 0 1 32 4 A 29 29 0 0 1 60.974609 32.494141 A 29 29 0 0 0 61 32 A 29 29 0 0 0 32 3 z"
       id="path24" />
  </g>
</svg>
