<svg xmlns="http://www.w3.org/2000/svg" width="64" height="64" version="1">
 <path style="opacity:0.2" d="m 4.0507997,32.000415 c -0.0118,0.333995 -0.050799,0.66199 -0.050799,0.999985 C 4.0000004,48.512179 16.487822,61 31.9996,61 47.511378,61 59.9992,48.512179 59.9992,33.0004 c 0,-0.337675 -0.03904,-0.66527 -0.05078,-0.999985 C 59.420428,47.0422 47.172603,59.000029 31.99882,59.000029 16.824637,59.000029 4.5772122,47.0422 4.0492197,32.000415 Z"/>
 <rect style="fill:#964fa9" width="55.999" height="55.999" x="-60" y="-60" rx="28" ry="28" transform="matrix(0,-1,-1,0,0,0)"/>
 <path style="opacity:0.2" d="M 12.001886,30.992429 C 11.090299,30.720433 7.9999432,32.992401 7.9999432,32.992401 9.6403597,26.923087 20.005772,20.997372 20.005772,20.997372 c -1.001606,-0.369575 -6.002915,0 -6.002915,0 7.380895,-7.171897 18.008743,-3.997543 18.008743,-3.997543 0.271996,-1.565977 4.001943,-3.998343 4.001943,-3.998343 -0.456914,0.457194 0,2.998758 0,2.998758 0.455853,-0.828849 2.000971,-0.998866 2.000971,-0.998866 -0.819668,1.930152 -0.766669,5.817917 -0.766669,5.817917 2.368166,2.393765 5.010128,10.677247 5.010128,10.677247 l 1.004706,1.471899 c 1.275542,1.842534 0.756829,4.731732 -0.507213,5.417922 -3.542349,2.11777 -5.143726,-2.10257 -5.143726,-2.10257 -3.918544,-0.460393 -7.601092,-5.289724 -7.601092,-5.289724 -4.977928,2.81036 0.653491,11.727832 2.934958,14.71819 2.930559,3.832945 -0.933886,9.271867 -0.933886,9.271867 0,0 -10.004857,0.70393 -17.50055,-6.9943 -3.688947,-3.953943 -6.5099068,-8.36788 -2.507964,-16.997757 z"/>
 <path style="fill:#ffffff" d="M 12.001886,29.992458 C 11.090299,29.720462 7.9999432,31.992429 7.9999432,31.992429 9.6403597,25.923116 20.005772,19.997401 20.005772,19.997401 c -1.001606,-0.369575 -6.002915,0 -6.002915,0 7.381295,-7.172698 18.008943,-3.998343 18.008943,-3.998343 0.271836,-1.565898 4.001943,-3.998343 4.001943,-3.998343 -0.456914,0.457193 0,2.998757 0,2.998757 0.455853,-0.828848 2.000971,-0.998866 2.000971,-0.998866 -0.819668,1.930153 -0.766669,5.817917 -0.766669,5.817917 2.368166,2.393766 5.010128,10.677248 5.010128,10.677248 l 1.004706,1.471898 c 1.275542,1.842534 0.756829,4.731733 -0.507213,5.417923 -3.542349,2.11777 -5.143726,-2.10257 -5.143726,-2.10257 -3.918544,-0.460393 -7.601092,-5.289724 -7.601092,-5.289724 -4.977928,2.81036 0.653491,11.727832 2.934958,14.718189 2.930559,3.832945 -0.933886,9.271868 -0.933886,9.271868 0,0 -10.004857,0.70393 -17.50055,-6.9943 -3.690947,-3.953944 -6.5119068,-8.367881 -2.509964,-16.997757 z"/>
 <path style="opacity:0.2;fill:#ffffff" d="M 32 4 C 16.488222 4 4 16.488222 4 32 C 4 32.113554 4.0112846 32.224034 4.0175781 32.335938 C 4.3691163 17.134398 16.710946 5 32 5 C 47.289054 5 59.630884 17.134398 59.982422 32.335938 C 59.988797 32.224034 60 32.113554 60 32 C 60 16.488222 47.511778 4 32 4 z"/>
</svg>
