<svg xmlns="http://www.w3.org/2000/svg" width="64" height="64" version="1.1">
 <path style="opacity:0.2" d="M 32,4 C 31.127,4.0157 30.27,4.2414 29.501,4.6585 L 9.7923,15.924 C 8.4632,16.64 7.1298,17.894 6.5529,19.277 5.922,20.789 5.9526,21.972 6.0611,22.865 L 6.1734,44.926 C 6.2132,46.562 6.9743,48.095 8.2501,49.11 10.805,51.142 29.007,61.29 29.007,61.29 29.918,61.807 30.956,62.05 32,61.991 33.044,62.05 34.082,61.807 34.993,61.29 34.993,61.29 53.195,51.142 55.75,49.11 57.026,48.096 57.787,46.562 57.827,44.926 L 57.939,22.865 C 58.047,21.972 58.078,20.789 57.447,19.277 56.87,17.894 55.537,16.64 54.208,15.924 L 34.499,4.6585 C 33.73,4.2414 32.873,4.0157 32,4 Z"/>
 <path style="fill:#ff5252" d="M 32,3 C 31.127,3.0154 30.27,3.2411 29.501,3.6582 L 9.7923,14.924 C 8.4632,15.64 7.1298,16.894 6.5529,18.277 5.922,19.789 5.9526,20.972 6.0611,21.865 L 6.1734,43.926 C 6.2132,45.562 6.9743,47.095 8.2501,48.11 10.805,50.142 29.007,60.29 29.007,60.29 29.918,60.807 30.956,61.05 32,60.991 33.044,61.05 34.082,60.807 34.993,60.29 34.993,60.29 53.195,50.142 55.75,48.11 57.026,47.096 57.787,45.562 57.827,43.926 L 57.939,21.865 C 58.047,20.972 58.078,19.789 57.447,18.277 56.87,16.894 55.537,15.64 54.208,14.924 L 34.499,3.6582 C 33.73,3.2411 32.873,3.0154 32,3 Z"/>
 <path style="fill:#ffffff;opacity:0.2" d="M 32 3 C 31.127 3.0154 30.271 3.2411 29.502 3.6582 L 9.793 14.924 C 8.4639 15.64 7.1296 16.894 6.5527 18.277 C 6.0188 19.557 5.9655 20.588 6.0254 21.42 C 6.0736 20.793 6.2152 20.086 6.5527 19.277 C 7.1296 17.894 8.4639 16.64 9.793 15.924 L 29.502 4.6582 C 30.271 4.2411 31.127 4.0154 32 4 C 32.873 4.0154 33.729 4.2411 34.498 4.6582 L 54.207 15.924 C 55.536 16.64 56.87 17.894 57.447 19.277 C 57.785 20.086 57.926 20.793 57.975 21.42 C 58.034 20.588 57.981 19.557 57.447 18.277 C 56.87 16.894 55.536 15.64 54.207 14.924 L 34.498 3.6582 C 33.729 3.2411 32.873 3.0154 32 3 z"/>
 <path style="opacity:0.2" d="m 39.353516,16 c 1.235279,1.582619 2.014462,3.467308 2.255859,5.455078 0.0089,0.06914 0.01834,0.138975 0.02539,0.208984 4.41e-4,0.0053 4.41e-4,0.01037 0,0.01563 0.0071,0.07176 0.01424,0.144161 0.01953,0.216796 v 0.03711 c 0.0061,0.07176 0.0093,0.143084 0.01367,0.214844 0.0044,0.07175 0.0091,0.145038 0.01172,0.216796 0,0.05075 -0.0013,0.101596 0.0039,0.152344 -4.4e-4,0.0082 -4.4e-4,0.01724 0,0.02539 v 0.0918 0.167968 c 0.0031,2.271761 -0.6969,4.488165 -2.00586,6.351563 0.144011,0.676374 0.216621,1.367257 0.216797,2.058594 2.65e-4,0.466374 -0.03164,0.93084 -0.09766,1.392578 0.633945,-0.148838 1.250156,-0.360135 1.841797,-0.63086 0.439433,-0.199587 0.864557,-0.431471 1.269531,-0.693359 0.08285,0.286213 0.15346,0.5775 0.208985,0.875 0.118274,0.615211 0.176839,1.240863 0.175781,1.867188 2.64e-4,0.497962 -0.03651,0.995918 -0.111328,1.488281 0.875695,-0.09021 1.733988,-0.29697 2.554687,-0.613281 0.430709,-0.165638 0.849272,-0.361326 1.251953,-0.585938 0.06037,0.334687 0.103618,0.672569 0.128907,1.011719 0.01878,0.246225 0.02734,0.495232 0.02734,0.746093 4.41e-4,0.68565 -0.0693,1.368026 -0.210937,2.039063 1.031252,-0.04209 2.049166,-0.243195 3.017578,-0.597656 0.694581,-1.845811 1.049078,-3.801075 1.046875,-5.771485 0.0076,-0.432337 -0.0042,-0.858887 -0.03711,-1.28125 -0.09695,-1.256936 -0.339892,-2.499186 -0.722657,-3.701172 -0.152207,0.407575 -0.345086,0.79872 -0.576172,1.167969 -0.298949,-1.963148 -0.992211,-3.845473 -2.039062,-5.537109 -1.046938,-1.691627 -2.425891,-3.156684 -4.054688,-4.308594 -1.1304,-0.802689 -2.369581,-1.443845 -3.679687,-1.904297 C 39.712405,16.113361 39.533925,16.054254 39.353516,16 Z M 24.34375,16.01953 c -1.525326,0.688542 -2.953863,1.570819 -4.25,2.625 -3.28435,2.664767 -5.594435,6.328598 -6.574219,10.425781 -0.346284,1.452586 -0.520902,2.938981 -0.519531,4.431641 -0.0053,3.213872 0.806217,6.377494 2.359375,9.197266 0.105255,-0.926187 0.342629,-1.833585 0.705078,-2.69336 1.170203,2.807348 3.025857,5.282212 5.398438,7.201172 2.372555,1.918961 5.187564,3.222645 8.193359,3.792969 -0.516462,-0.667536 -0.943011,-1.397792 -1.271484,-2.173828 1.600241,0.515374 3.265413,0.796766 4.947265,0.83789 0.148945,0 0.299392,0.0059 0.449219,0.0059 2.671945,0.004 5.309799,-0.604029 7.707031,-1.775391 -0.399155,-0.22365 -0.782757,-0.473063 -1.146484,-0.75 2.662339,-1.012724 5.017241,-2.688673 6.839844,-4.865234 0.844848,-1.007649 1.565597,-2.111664 2.146484,-3.289063 -0.90469,0.326637 -1.851492,0.520959 -2.8125,0.576172 -0.20447,0.014 -0.411749,0.01953 -0.617187,0.01953 h -0.205079 c 0.126208,-0.486675 0.213876,-0.982362 0.263672,-1.482422 0.03173,-0.322964 0.04883,-0.650798 0.04883,-0.982422 1.76e-4,-0.370475 -0.02062,-0.739311 -0.0625,-1.107422 -0.967707,0.476785 -2.009255,0.791494 -3.080078,0.933594 -0.29789,0.04025 -0.598121,0.06587 -0.904297,0.07813 0.09747,-0.480986 0.158198,-0.966946 0.181641,-1.457032 0.008,-0.162749 0.01172,-0.327687 0.01172,-0.492187 6.18e-4,-0.703935 -0.07504,-1.405651 -0.22461,-2.09375 -0.757595,0.443624 -1.571283,0.784161 -2.419922,1.013672 -0.306792,0.08277 -0.619602,0.152781 -0.9375,0.207031 l -0.0078,-0.01172 c 0.09255,-0.459285 0.15288,-0.924892 0.177734,-1.392578 0.01058,-0.175089 0.01367,-0.349364 0.01367,-0.533203 1.77e-4,-0.595087 -0.05272,-1.187888 -0.160156,-1.773437 -1.045264,1.088586 -2.30245,1.953772 -3.695312,2.544921 -1.392952,0.591236 -2.893364,0.894503 -4.408204,0.892579 -1.788583,0.0027 -3.551929,-0.420654 -5.140625,-1.236329 0.722936,-0.278338 1.410741,-0.6408 2.048829,-1.078125 -1.694633,-0.808062 -3.124156,-2.074311 -4.125,-3.654296 -1.000845,-1.579899 -1.53169,-3.408965 -1.53125,-5.275391 -3.24e-4,-0.598097 0.05385,-1.194837 0.162109,-1.783203 0.106207,-0.58317 0.265571,-1.15462 0.476562,-1.708985 0.207907,-0.546804 0.464663,-1.075024 0.767579,-1.576171 0.342927,-0.571637 0.743451,-1.106216 1.195312,-1.597657 z"/>
 <path style="fill:#ffffff" d="M 39.353516 15 C 40.588795 16.582619 41.367978 18.467308 41.609375 20.455078 C 41.618275 20.524218 41.627716 20.594053 41.634766 20.664062 C 41.635207 20.669362 41.635207 20.674428 41.634766 20.679688 C 41.641866 20.751447 41.649007 20.823849 41.654297 20.896484 L 41.654297 20.933594 C 41.660397 21.005354 41.663559 21.076678 41.667969 21.148438 C 41.672369 21.220187 41.677108 21.293476 41.679688 21.365234 C 41.679688 21.415984 41.678394 21.46683 41.683594 21.517578 C 41.683154 21.525778 41.683154 21.534819 41.683594 21.542969 L 41.683594 21.634766 L 41.683594 21.802734 C 41.686694 24.074495 40.986694 26.290899 39.677734 28.154297 C 39.821745 28.830671 39.894355 29.521554 39.894531 30.212891 C 39.894796 30.679265 39.862895 31.143731 39.796875 31.605469 C 40.43082 31.456631 41.047031 31.245334 41.638672 30.974609 C 42.078105 30.775022 42.503229 30.543138 42.908203 30.28125 C 42.991053 30.567463 43.061663 30.85875 43.117188 31.15625 C 43.235462 31.771461 43.294027 32.397113 43.292969 33.023438 C 43.293233 33.5214 43.256461 34.019356 43.181641 34.511719 C 44.057336 34.421509 44.915629 34.214749 45.736328 33.898438 C 46.167037 33.7328 46.5856 33.537112 46.988281 33.3125 C 47.048651 33.647187 47.091899 33.985069 47.117188 34.324219 C 47.135967 34.570444 47.144531 34.819451 47.144531 35.070312 C 47.144972 35.755962 47.075227 36.438338 46.933594 37.109375 C 47.964846 37.067285 48.98276 36.86618 49.951172 36.511719 C 50.645753 34.665908 51.00025 32.710644 50.998047 30.740234 C 51.005647 30.307897 50.993827 29.881347 50.960938 29.458984 C 50.863988 28.202048 50.621046 26.959798 50.238281 25.757812 C 50.086074 26.165387 49.893195 26.556532 49.662109 26.925781 C 49.36316 24.962633 48.669898 23.080308 47.623047 21.388672 C 46.576109 19.697045 45.197156 18.231988 43.568359 17.080078 C 42.437959 16.277389 41.198778 15.636233 39.888672 15.175781 C 39.712405 15.113361 39.533925 15.054254 39.353516 15 z M 24.34375 15.019531 C 22.818424 15.708073 21.389887 16.59035 20.09375 17.644531 C 16.8094 20.309298 14.499315 23.973129 13.519531 28.070312 C 13.173247 29.522898 12.998629 31.009293 13 32.501953 C 12.9947 35.715825 13.806217 38.879447 15.359375 41.699219 C 15.46463 40.773032 15.702004 39.865634 16.064453 39.005859 C 17.234656 41.813207 19.09031 44.288071 21.462891 46.207031 C 23.835446 48.125992 26.650455 49.429676 29.65625 50 C 29.139788 49.332464 28.713239 48.602208 28.384766 47.826172 C 29.985007 48.341546 31.650179 48.622938 33.332031 48.664062 C 33.480976 48.664062 33.631423 48.669922 33.78125 48.669922 C 36.453195 48.673922 39.091049 48.065893 41.488281 46.894531 C 41.089126 46.670881 40.705524 46.421468 40.341797 46.144531 C 43.004136 45.131807 45.359038 43.455858 47.181641 41.279297 C 48.026489 40.271648 48.747238 39.167633 49.328125 37.990234 C 48.423435 38.316871 47.476633 38.511193 46.515625 38.566406 C 46.311155 38.580406 46.103876 38.585937 45.898438 38.585938 L 45.693359 38.585938 C 45.819567 38.099263 45.907235 37.603576 45.957031 37.103516 C 45.988761 36.780552 46.005859 36.452718 46.005859 36.121094 C 46.006035 35.750619 45.985239 35.381783 45.943359 35.013672 C 44.975652 35.490457 43.934104 35.805166 42.863281 35.947266 C 42.565391 35.987516 42.26516 36.013141 41.958984 36.025391 C 42.056454 35.544405 42.117182 35.058445 42.140625 34.568359 C 42.148625 34.40561 42.152344 34.240672 42.152344 34.076172 C 42.152962 33.372237 42.077301 32.670521 41.927734 31.982422 C 41.170139 32.426046 40.356451 32.766583 39.507812 32.996094 C 39.20102 33.078864 38.88821 33.148875 38.570312 33.203125 L 38.5625 33.191406 C 38.65505 32.732121 38.71538 32.266514 38.740234 31.798828 C 38.750814 31.623739 38.753906 31.449464 38.753906 31.265625 C 38.754083 30.670538 38.701184 30.077737 38.59375 29.492188 C 37.548486 30.580774 36.2913 31.44596 34.898438 32.037109 C 33.505486 32.628345 32.005074 32.931612 30.490234 32.929688 C 28.701651 32.932387 26.938305 32.509034 25.349609 31.693359 C 26.072545 31.415021 26.76035 31.052559 27.398438 30.615234 C 25.703805 29.807172 24.274282 28.540923 23.273438 26.960938 C 22.272593 25.381039 21.741748 23.551973 21.742188 21.685547 C 21.741864 21.08745 21.796036 20.49071 21.904297 19.902344 C 22.010504 19.319174 22.169868 18.747724 22.380859 18.193359 C 22.588766 17.646555 22.845522 17.118335 23.148438 16.617188 C 23.491365 16.045551 23.891889 15.510972 24.34375 15.019531 z"/>
</svg>
