<svg width="64" height="64" version="1.1" xmlns="http://www.w3.org/2000/svg">
 <rect x="4" y="5" width="56" height="56" rx="2.8" style="opacity:.2"/>
 <rect x="4" y="4" width="56" height="56" rx="2.8" style="fill:#3bb779"/>
 <path d="M 6.8007812,4 C 5.2495813,4 4,5.249581 4,6.800781 v 1 C 4,6.249581 5.2495813,5 6.8007812,5 H 57.199219 C 58.750419,5 60,6.249581 60,7.800781 v -1 C 60,5.249581 58.750419,4 57.199219,4 Z" style="fill:#ffffff;opacity:.2"/>
 <path d="m32 19c-6.045521 0-11 4.954479-11 11 0 2.867064 1.115107 5.488915 2.931641 7.453125-4.847683 1.481186-9.363541 4.33003-12.931641 8.546875 16-6.5 26-6.5 42 0-3.5681-4.216845-8.083958-7.065689-12.931641-8.546875 1.816534-1.96421 2.931641-4.586061 2.931641-7.453125 0-6.045521-4.954479-11-11-11zm0 5c3.34332 0 6 2.65668 6 6s-2.65668 6-6 6-6-2.65668-6-6 2.65668-6 6-6z" style="opacity:.2;stop-color:#000000"/>
 <circle cx="32" cy="29" r="8.5" style="fill:none;stroke-width:5;stroke:#ffffff"/>
 <path d="m11 45c11-13 31-13 42 0-16-6.5-26-6.5-42 0z" style="fill:#ffffff"/>
</svg>
