<svg xmlns="http://www.w3.org/2000/svg" width="64" height="64" version="1.1">
 <rect style="opacity:0.2" width="56" height="56" x="4" y="5" rx="5.6" ry="5.6"/>
 <rect style="fill:#ed81c7" width="56" height="56" x="4" y="4" rx="5.6" ry="5.6"/>
 <path style="opacity:0.1" class="st0" d="m 32,10 c -0.469274,0 -0.938972,0.08009 -1.369141,0.240234 L 26.798828,11.601562 14.675781,16.005859 11,17.367188 c 1.486033,4.003557 3.598594,7.685824 6.257812,10.888671 0.39106,0.400358 0.702689,0.880895 1.09375,1.28125 0.860335,0.880784 1.721697,1.761789 2.582032,2.5625 l -1.095703,-4.884765 -0.390625,-2.082032 -0.861328,-4.001953 13.375,-5.125 c 2.893854,-1.040926 6.099936,-1.68164 9.30664,-1.68164 h 0.15625 c 0.547485,0 1.173216,-2e-6 1.720703,0.08008 0.782122,0.08008 1.56562,0.160164 2.269531,0.240234 L 43.066406,13.763672 41.111328,13.042969 36.732422,11.441406 33.369141,10.240234 C 32.938973,10.080092 32.469274,10 32,10 Z m 9.423828,5.445312 c -2.581007,0.08008 -5.083317,0.560617 -7.429687,1.361329 l 7.822265,2.96289 1.798828,0.720703 1.642578,0.640625 -2.738281,12.490235 c -1.094972,5.524912 -3.049766,10.728933 -5.708984,15.533203 l 5.083984,-5.923828 1.798828,-2.082031 0.234375,-0.240235 2.658204,-3.123047 c 0.391061,-0.480427 0.704903,-0.960993 0.861328,-1.601562 l 0.9375,-3.203125 L 53,17.287109 C 50.106145,16.00597 46.663909,15.525384 43.300781,15.445312 h -0.625 z m -28.46875,8.726563 2.111328,7.287109 0.234375,0.88086 0.705078,2.482422 0.46875,1.521484 c 0.156423,0.560499 0.470267,1.121137 0.861329,1.601562 0.391061,0.400357 0.858677,1.041079 1.484374,1.761719 0.391063,0.480427 0.860805,1.041066 1.330079,1.601563 C 24.608491,46.51322 31.7263,54.759787 31.960938,55 35.715126,49.635231 38.609494,43.309977 40.251953,36.744141 l -3.912109,3.283203 -2.111328,1.841797 -2.267578,1.841797 -10.246094,-8.56836 C 20.228812,33.941509 18.899922,32.579946 17.570312,31.058594 17.179251,30.658237 16.787457,30.177693 16.474609,29.697266 15.145,27.9357 13.971838,26.093583 12.955078,24.171875 Z"/>
 <path style="fill:#a50b3e" class="st0" d="m 45.256984,20.129893 -2.73743,12.491103 c -1.094972,5.524912 -3.05028,10.729537 -5.709498,15.533807 l 5.083799,-5.925266 1.798882,-2.081851 v 0 0 l 0.234637,-0.240213 2.659218,-3.122776 c 0.391062,-0.480427 0.703911,-0.960854 0.860336,-1.601423 l 0.938547,-3.202847 v 0 L 53,16.286477 Z"/>
 <path style="fill:#d32742" class="st1" d="m 43.301676,14.444839 h -0.625699 -1.251395 c -2.581007,0.08008 -5.083799,0.560499 -7.430169,1.361211 l 7.821229,2.962633 1.798883,0.720641 1.642459,0.640569 L 53,16.286477 c -2.893855,-1.281139 -6.335196,-1.761566 -9.698324,-1.841638 z"/>
 <path style="fill:#d32742" class="st2" d="m 18.586592,20.129893 13.374302,-5.124555 v 0 c 2.893854,-1.040926 6.100559,-1.681495 9.307263,-1.681495 h 0.156425 c 0.547485,0 1.173183,0 1.72067,0.08008 0.782122,0.08008 1.564245,0.160143 2.268156,0.240213 L 43.067039,12.763343 41.111732,12.042704 36.731843,10.44128 33.368716,9.2402128 c -0.860335,-0.3202847 -1.877095,-0.3202847 -2.737432,0 l -3.832402,1.3612102 -12.122905,4.403915 v 0 L 11,16.366548 Z"/>
 <path style="fill:#aa1caf" class="st3" d="m 17.256984,27.256226 c 0.39106,0.400358 0.70391,0.880784 1.094972,1.281139 0.860335,0.880784 1.72067,1.761567 2.581005,2.562278 L 19.837989,26.215302 19.446928,24.133451 18.586592,20.129893 11,16.366548 c 1.486033,4.003558 3.597765,7.686831 6.256984,10.889678 z"/>
 <path style="fill:#aa1caf" class="st4" d="M 31.960894,42.709964 21.715083,34.142349 c -1.486032,-1.201069 -2.815642,-2.562278 -4.145251,-4.08363 -0.391061,-0.400357 -0.782123,-0.880784 -1.094971,-1.361211 -1.329609,-1.761566 -2.502794,-3.603202 -3.519554,-5.52491 l 2.111732,7.286475 v 0 l 0.234637,0.880784 0.703911,2.482207 0.469274,1.521352 c 0.156423,0.560499 0.469273,1.120997 0.860335,1.601423 0.391061,0.400357 0.860335,1.040926 1.486033,1.761566 0.391062,0.480427 0.860335,1.040927 1.329609,1.601424 v 0 C 24.608938,45.512455 31.726257,53.759787 31.960894,54 Z"/>
 <path style="fill:#a50b3e" class="st5" d="m 36.340783,39.02669 -2.111732,1.841638 -2.268157,1.841636 V 54 c 3.754189,-5.364769 6.648044,-11.690391 8.290503,-18.256227 z"/>
 <path style="fill:#ffffff;opacity:0.2" d="M 9.5996094 4 C 6.4972094 4 4 6.4972094 4 9.5996094 L 4 10.599609 C 4 7.4972094 6.4972094 5 9.5996094 5 L 54.400391 5 C 57.502791 5 60 7.4972094 60 10.599609 L 60 9.5996094 C 60 6.4972094 57.502791 4 54.400391 4 L 9.5996094 4 z"/>
</svg>
