<svg xmlns="http://www.w3.org/2000/svg" width="64" height="64" version="1">
 <path style="opacity:0.2" d="M 61.96,31.828 A 30,30 0 0 1 32,61 30,30 0 0 1 2.04,32.172 30,30 0 0 0 2,33 30,30 0 0 0 32,63 30,30 0 0 0 62,33 30,30 0 0 0 61.96,31.828 Z"/>
 <path style="fill:#4f4f4f" d="M 62,32 A 30,30 0 0 1 32,62 30,30 0 0 1 2,32 30,30 0 0 1 32,2 30,30 0 0 1 62,32 Z"/>
 <path style="opacity:0.2" d="m 31.8,13.000129 c -1.43382,0.0046 -2.8706,0.1591 -4.2762,0.471 -5.0598,1.12264 -9.437,4.22 -12.5674,8.893 -1.32948,1.9846 -2.5346,4.742 -2.5346,5.7994 0,0.90414 1.0471,1.37136 1.74914,0.7804 0.16186,-0.13626 0.32518,-0.3899 0.36302,-0.56366 0.35598,-1.63502 1.61136,-4.092 3.0666,-6.0016 1.21396,-1.5931 3.4412,-3.6048 5.1594,-4.6598 5.3674,-3.296 12.6962,-3.363 18.0976,-0.16528 3.3838,2.0032 6.1504,5.328 7.7726,9.3402 0.35228,0.87128 0.9303,2.7806 0.9303,3.0732 0,0.08416 -0.51812,-0.35848 -1.1514,-0.98366 -1.37812,-1.3605 -1.51544,-1.45802 -2.0536,-1.45802 -0.59498,0 -1.00972,0.3829 -1.07882,0.99622 -0.0279,0.2479 -0.012,0.51982 0.03522,0.60426 0.10062,0.17984 4.4758,4.6066 4.823,4.8798 0.35004,0.27546 1.0022,0.24806 1.36514,-0.05748 0.48094,-0.40484 0.54606,-0.69588 0.47892,-2.1402 -0.25,-5.388 -3.622,-11.4958 -8.27,-14.9824 -3.332,-2.5004 -7.608,-3.8388 -11.908,-3.8256 z m -19.7988,19.7292 0.05894,1.39248 c 0.10046,2.374 0.7694,4.8158 2.0196,7.3722 2.5212,5.1556 6.6558,8.8838 11.674,10.5262 1.45408,0.47588 2.5198,0.6979 4.4534,0.92792 0.83178,0.09894 3.492,0.04862 4.527,-0.08562 5.8778,-0.7624 11.0712,-4.1562 14.5148,-9.485 1.11474,-1.725 2.2034,-4.2246 2.339,-5.3702 0.05296,-0.44776 0.03546,-0.49772 -0.29,-0.82328 -0.29158,-0.29168 -0.4138,-0.34616 -0.7726,-0.34432 -0.66888,0.003 -0.83164,0.19772 -1.27158,1.51776 -1.50558,4.5174 -5.1508,8.659 -9.4542,10.7418 -3.4864,1.6874 -7.4662,2.1582 -11.4544,1.35464 -4.5276,-0.9122 -8.448,-3.667 -11.147,-7.8326 -1.01616,-1.5684 -2.0764,-3.924 -2.4706,-5.4896 -0.089,-0.35 -0.1858,-0.726 -0.216,-0.834 -0.03,-0.108 0.544,0.394 1.2756,1.116 l 1.33038,1.3116 0.50206,-0.04822 c 0.6844,-0.066 0.9846,-0.368 1.0508,-1.056 l 0.0486,-0.508 -2.5388,-2.54 -2.5386,-2.54 c 0,0 -0.4824,-0.32244 -1.07758,-0.05686 -0.59518,0.26556 -0.56362,0.75196 -0.56362,0.75196 z"/>
 <path style="opacity:0.1;fill:#ffffff" d="M 31.998047 2 A 30 30 0 0 0 2 32 A 30 30 0 0 0 2.0175781 32.511719 A 30 30 0 0 1 31.998047 3 L 32 3 A 30 30 0 0 1 61.974609 32.511719 A 30 30 0 0 0 61.998047 32 A 30 30 0 0 0 32 2 L 31.998047 2 z"/>
 <path style="fill:#5cd1ff" d="m 31.8,12.0002 c -1.43382,0.0046 -2.8706,0.1591 -4.2762,0.471 -5.0598,1.12264 -9.437,4.22 -12.5674,8.893 -1.32948,1.9846 -2.5346,4.742 -2.5346,5.7994 0,0.90414 1.0471,1.37136 1.74914,0.7804 0.16186,-0.13626 0.32518,-0.3899 0.36302,-0.56366 0.35598,-1.63502 1.61136,-4.092 3.0666,-6.0016 1.21396,-1.5931 3.4412,-3.6048 5.1594,-4.6598 5.3674,-3.296 12.6962,-3.363 18.0976,-0.16528 3.3838,2.0032 6.1504,5.328 7.7726,9.3402 0.35228,0.87128 0.9303,2.7806 0.9303,3.0732 0,0.08416 -0.51812,-0.35848 -1.1514,-0.98366 -1.37812,-1.3605 -1.51544,-1.45802 -2.0536,-1.45802 -0.59498,0 -1.00972,0.3829 -1.07882,0.99622 -0.0279,0.2479 -0.012,0.51982 0.03522,0.60426 0.10062,0.17984 4.4758,4.6066 4.823,4.8798 0.35004,0.27546 1.0022,0.24806 1.36514,-0.05748 0.48094,-0.40484 0.54606,-0.69588 0.47892,-2.1402 -0.25,-5.388 -3.622,-11.4958 -8.27,-14.9824 -3.332,-2.5004 -7.608,-3.8388 -11.908,-3.8256 z m -19.7988,19.7292 0.05894,1.39248 c 0.10046,2.374 0.7694,4.8158 2.0196,7.3722 2.5212,5.1556 6.6558,8.8838 11.674,10.5262 1.45408,0.47588 2.5198,0.6979 4.4534,0.92792 0.83178,0.09894 3.492,0.04862 4.527,-0.08562 5.8778,-0.7624 11.0712,-4.1562 14.5148,-9.485 1.11474,-1.725 2.2034,-4.2246 2.339,-5.3702 0.05296,-0.44776 0.03546,-0.49772 -0.29,-0.82328 -0.29158,-0.29168 -0.4138,-0.34616 -0.7726,-0.34432 -0.66888,0.003 -0.83164,0.19772 -1.27158,1.51776 -1.50558,4.5174 -5.1508,8.659 -9.4542,10.7418 -3.4864,1.6874 -7.4662,2.1582 -11.4544,1.35464 -4.5276,-0.9122 -8.448,-3.667 -11.147,-7.8326 -1.01616,-1.5684 -2.0764,-3.924 -2.4706,-5.4896 -0.089,-0.35 -0.1858,-0.726 -0.216,-0.834 -0.03,-0.108 0.544,0.394 1.2756,1.116 l 1.33038,1.3116 0.50206,-0.04822 c 0.6844,-0.066 0.9846,-0.368 1.0508,-1.056 l 0.0486,-0.508 -2.5388,-2.54 -2.5386,-2.54 c 0,0 -0.4824,-0.32244 -1.07758,-0.05686 -0.59518,0.26556 -0.56362,0.75196 -0.56362,0.75196 z"/>
</svg>
