<svg xmlns="http://www.w3.org/2000/svg" width="64" height="64" version="1">
 <path style="opacity:0.2" d="m 32,48.4 c 0,0 17,4.2 17,7 v 2.8 C 49,59.7512 47.736333,61 46.166667,61 H 17.833333 C 16.263667,61 15,59.7512 15,58.2 v -2.8 c 0,-2.8 17,-7 17,-7 z"/>
 <path style="fill:#57779f" d="m 32,47.4 c 0,0 17,4.2 17,7 v 2.8 C 49,58.7512 47.736333,60 46.166667,60 H 17.833333 C 16.263667,60 15,58.7512 15,57.2 v -2.8 c 0,-2.8 17,-7 17,-7 z"/>
 <circle style="opacity:0.2" cx="32" cy="30" r="25"/>
 <circle style="fill:#73a0d6" cx="32" cy="29" r="25"/>
 <circle style="fill:#2f2f2f" cx="32" cy="-29" r="18" transform="scale(1,-1)"/>
 <circle style="opacity:0.2" cx="32" cy="-30" r="14" transform="scale(1,-1)"/>
 <circle style="fill:#a95b86" cx="32" cy="-29" r="14" transform="scale(1,-1)"/>
 <circle style="opacity:0.2" cx="32" cy="30" r="8"/>
 <circle style="fill:#d29ab8" cx="32" cy="29" r="8"/>
 <path style="opacity:0.2;fill:#ffffff" d="M 31.878906,21 A 8,8 0 0 0 24,29 8,8 0 0 0 24.015625,29.505859 8,8 0 0 1 31.878906,22 8,8 0 0 1 32,22 8,8 0 0 1 39.984375,29.498047 8,8 0 0 0 40,29 8,8 0 0 0 32,21 8,8 0 0 0 31.878906,21 Z"/>
 <path style="fill:#ffffff;opacity:0.2" d="M 31.832031 4 A 25 25 0 0 0 7 29 A 25 25 0 0 0 7.0058594 29.490234 A 25 25 0 0 1 32 5 A 25 25 0 0 1 56.994141 29.509766 A 25 25 0 0 0 57 29 A 25 25 0 0 0 32 4 A 25 25 0 0 0 31.832031 4 z"/>
</svg>
