<?xml version="1.0" encoding="UTF-8" standalone="no"?>
<svg xmlns="http://www.w3.org/2000/svg" height="64" width="64" version="1">
 <path d="m34.759 30.965-14.074 11.688 1.644.63799 12.43-10.326 1.964 15.88 0.258 0.102zm-32.689 28.035-1.0704 2h62.001l-1.124-2h-59.807z" style="opacity:.2;stroke-width:2"/>
 <path d="m45.301 38.45a14.057 15.37 0 0 1 -14.057 15.37 14.057 15.37 0 0 1 -14.057 -15.37 14.057 15.37 0 0 1 14.057 -15.37 14.057 15.37 0 0 1 14.057 15.37z" style="fill:#ffffff"/>
 <g transform="matrix(1.5122 0 0 1.4872 -5.0484 -3.9496)">
  <path d="m4 43 20-38 2.5 19z" style="fill:#4a86d8"/>
  <path d="m24 5 21 38-17.2-6.7z" style="fill:#dd3c3d"/>
  <path d="m45 43h-41l13-11z" style="fill:#339c33"/>
 </g>
 <path style="opacity:.2;stroke-width:1.4996;fill:#ffffff" d="m31.244 3.4863-30.244 56.514h.5332l29.711-55.514 31.195 55.514h.561zm-9.7363 40.482-.82226.68164 16.293 6.2949-.12891-1.0488z"/>
</svg>
