<svg xmlns="http://www.w3.org/2000/svg" width="64" height="64" version="1.1">
 <rect style="opacity:.2" width="56" height="56" x="4" y="5" rx="5" ry="5"/>
 <rect style="fill:#bcaaa4" width="56" height="56" x="4" y="4" rx="5" ry="5"/>
 <path style="fill:#ffffff;opacity:.2" d="m9 4c-2.77 0-5 2.23-5 5v1c0-2.77 2.23-5 5-5h46c2.77 0 5 2.23 5 5v-1c0-2.77-2.23-5-5-5h-46z"/>
 <rect style="opacity:0.2" width="44" height="44" x="10" y="11" rx="6" ry="6"/>
 <rect style="fill:#ffffff" width="44" height="44" x="10" y="10" rx="6" ry="6"/>
 <path style="fill:#3f3f3f" d="m 44,18 -16,18 -8,-8 -4,4 c 4.147734,4.14784 7.854828,7.8496 12,12 L 48,22 Z"/>
</svg>
