<svg xmlns="http://www.w3.org/2000/svg" width="64" height="64" version="1.1">
 <path style="opacity:0.2" d="m 41.15626,7.0326764 c 6.034844,-0.13224 11.683316,4.4270486 12.625666,10.4415086 0.289852,2.41806 0.29168,4.89755 0,7.315634 -0.947072,6.057762 -6.669714,10.40088 -12.745606,10.210182 -8.279084,-0.017 -16.559762,0.06002 -24.83785,0 -1.90627,-0.291964 -3.492115,-0.236132 -4.960611,1.300186 -2.0958504,1.041262 -4.8178964,0.956852 -6.7011484,-0.498214 1.18544,-1.005216 4.7864,-2.651044 3.041896,-4.165764 -2.590038,-2.65982 -3.762236,-6.46723 -3.548156,-10.152042 -0.223508,-3.6742 0.773318,-7.498374 3.324072,-10.22162 C 10.035243,8.1873764 14.178732,6.7607364 18.175062,7.0326804 H 41.15626 Z"/>
 <path style="opacity:0.2" d="m 22.84374,29.032675 c -6.034843,-0.13224 -11.683316,4.427048 -12.625665,10.441508 -0.2898522,2.41806 -0.2916796,4.897552 0,7.315636 0.947072,6.057762 6.669713,10.40088 12.745605,10.210182 8.279084,-0.017 16.559762,0.06002 24.83785,0 1.90627,-0.291964 3.492116,-0.236132 4.960612,1.300186 2.09585,1.041262 4.817896,0.956852 6.701148,-0.498214 -1.18544,-1.005216 -4.7864,-2.651044 -3.041896,-4.165764 2.590038,-2.65982 3.762236,-6.46723 3.548156,-10.152042 0.223508,-3.674202 -0.773318,-7.498376 -3.324072,-10.221622 -2.68072,-3.07517 -6.82421,-4.50181 -10.82054,-4.229866 H 22.84374 Z"/>
 <path style="fill:#616161" d="m 41.15626,6.0326748 c 6.034844,-0.13224 11.683316,4.4270482 12.625666,10.4415082 0.289852,2.41806 0.29168,4.897551 0,7.315635 C 52.834854,29.84758 47.112212,34.190698 41.03632,34 32.757236,33.983 24.476558,34.06002 16.19847,34 14.2922,33.708036 12.706355,33.763868 11.237859,35.300186 9.1420086,36.341448 6.4199626,36.257038 4.5367106,34.801972 c 1.18544,-1.005216 4.7864,-2.651044 3.041896,-4.165764 -2.590038,-2.65982 -3.762236,-6.46723 -3.548156,-10.152042 -0.223508,-3.674201 0.773318,-7.498375 3.324072,-10.221621 C 10.035243,7.1873748 14.178732,5.7607348 18.175062,6.0326788 H 41.15626 Z"/>
 <path style="fill:#42a9ff" d="m 22.84374,28.032674 c -6.034843,-0.13224 -11.683316,4.427048 -12.625665,10.441508 -0.2898522,2.41806 -0.2916796,4.897552 0,7.315636 C 11.165147,51.84758 16.887788,56.190698 22.96368,56 c 8.279084,-0.017 16.559762,0.06002 24.83785,0 1.90627,-0.291964 3.492116,-0.236132 4.960612,1.300186 2.09585,1.041262 4.817896,0.956852 6.701148,-0.498214 -1.18544,-1.005216 -4.7864,-2.651044 -3.041896,-4.165764 2.590038,-2.65982 3.762236,-6.46723 3.548156,-10.152042 0.223508,-3.674202 -0.773318,-7.498376 -3.324072,-10.221622 -2.68072,-3.07517 -6.82421,-4.50181 -10.82054,-4.229866 H 22.84374 Z"/>
 <path style="opacity:0.1" d="M 18.265625,47.000001 C 17.559188,47.035579 17,47.616447 17,48.332033 v 1.335936 c 0,0.738666 0.593366,1.332032 1.332031,1.332032 h 1.335937 C 20.406634,51.000001 21,50.406635 21,49.667969 v -1.335936 c 0,-0.738668 -0.593366,-1.332032 -1.332032,-1.332032 h -1.335937 c -0.02308,0 -0.04362,-0.0011 -0.06641,0 z m 5.999999,0 C 23.559188,47.035579 23,47.616447 23,48.332033 v 1.335936 c 0,0.738666 0.593366,1.332032 1.332032,1.332032 h 1.335936 C 26.406638,51.000001 27,50.406635 27,49.667969 v -1.335936 c 0,-0.738668 -0.593362,-1.332032 -1.332032,-1.332032 h -1.335936 c -0.02308,0 -0.04362,-0.0011 -0.0664,0 z m 6,0 C 29.559186,47.035579 29,47.616447 29,48.332033 v 1.335936 c 0,0.738666 0.593364,1.332032 1.332032,1.332032 h 1.335936 C 32.406636,51.000001 33,50.406635 33,49.667969 v -1.335936 c 0,-0.738668 -0.593364,-1.332032 -1.332032,-1.332032 h -1.335936 c -0.02308,0 -0.04362,-0.0011 -0.0664,0 z"/>
 <path style="fill:#235ed0" d="M 18.265625,46 C 17.559188,46.035578 17,46.616446 17,47.332032 v 1.335936 C 17,49.406634 17.593366,50 18.332031,50 h 1.335937 C 20.406634,50 21,49.406634 21,48.667968 V 47.332032 C 21,46.593364 20.406634,46 19.667968,46 h -1.335937 c -0.02308,0 -0.04362,-0.0011 -0.06641,0 z m 5.999999,0 C 23.559188,46.035578 23,46.616446 23,47.332032 v 1.335936 C 23,49.406634 23.593366,50 24.332032,50 h 1.335936 C 26.406638,50 27,49.406634 27,48.667968 V 47.332032 C 27,46.593364 26.406638,46 25.667968,46 h -1.335936 c -0.02308,0 -0.04362,-0.0011 -0.0664,0 z m 6,0 C 29.559186,46.035578 29,46.616446 29,47.332032 v 1.335936 C 29,49.406634 29.593364,50 30.332032,50 h 1.335936 C 32.406636,50 33,49.406634 33,48.667968 V 47.332032 C 33,46.593364 32.406636,46 31.667968,46 h -1.335936 c -0.02308,0 -0.04362,-0.0011 -0.0664,0 z"/>
 <path style="fill:#ffffff;opacity:0.1" d="M 17.423828 6.0019531 C 13.665919 5.9458751 9.8686441 7.3787467 7.3554688 10.261719 C 4.9632365 12.815723 3.9514226 16.338063 4.0175781 19.796875 C 4.1502551 16.669036 5.1938118 13.569555 7.3554688 11.261719 C 10.036189 8.1865484 14.179451 6.7612591 18.175781 7.0332031 L 41.15625 7.0332031 C 47.191094 6.9009631 52.8389 11.460149 53.78125 17.474609 C 53.906441 18.518998 53.967087 19.575401 53.984375 20.632812 C 54.00665 19.241835 53.945932 17.848456 53.78125 16.474609 C 52.8389 10.460149 47.191094 5.9009631 41.15625 6.0332031 L 18.175781 6.0332031 C 17.926011 6.0162066 17.674355 6.0056917 17.423828 6.0019531 z M 4.0175781 20.833984 C 4.0055934 21.183925 4.002647 21.534425 4.015625 21.884766 C 4.0197399 21.751127 4.023501 21.617753 4.03125 21.484375 C 4.0181091 21.268355 4.0222145 21.050787 4.0175781 20.833984 z M 7.9023438 32.029297 C 7.3553827 33.090222 5.3627712 34.102599 4.5371094 34.802734 C 4.7671647 34.980483 5.0092999 35.13615 5.2617188 35.273438 C 6.5887792 34.375066 8.5701943 33.18653 7.9023438 32.029297 z"/>
 <path style="fill:#ffffff;opacity:0.2" d="M 46.576172 28.001953 C 46.325645 28.005692 46.073989 28.016207 45.824219 28.033203 L 22.84375 28.033203 C 16.808907 27.900963 11.161099 32.460149 10.21875 38.474609 C 10.054067 39.848456 9.9933496 41.241835 10.015625 42.632812 C 10.032913 41.575401 10.093559 40.518998 10.21875 39.474609 C 11.161099 33.460149 16.808907 28.900963 22.84375 29.033203 L 45.824219 29.033203 C 49.820549 28.761259 53.963811 30.186549 56.644531 33.261719 C 58.806188 35.569555 59.849745 38.669036 59.982422 41.796875 C 60.048577 38.338063 59.036763 34.815723 56.644531 32.261719 C 54.131356 29.378747 50.334081 27.945875 46.576172 28.001953 z M 59.982422 42.833984 C 59.977785 43.050787 59.981891 43.268355 59.96875 43.484375 C 59.976499 43.617753 59.98026 43.751127 59.984375 43.884766 C 59.997353 43.534425 59.994407 43.183925 59.982422 42.833984 z M 56.097656 54.029297 C 55.429806 55.18653 57.411221 56.375066 58.738281 57.273438 C 58.9907 57.13615 59.232835 56.980483 59.462891 56.802734 C 58.637229 56.102599 56.644617 55.090222 56.097656 54.029297 z"/>
</svg>
