<svg width="64" height="64" version="1.1" xmlns="http://www.w3.org/2000/svg">
 <rect x="4" y="5" width="56" height="56" rx="2.8" ry="2.8" style="opacity:.2"/>
 <rect x="4" y="4" width="56" height="56" rx="2.8" ry="2.8" style="fill:#e4e4e4"/>
 <path d="m26 15-8 36h6l8-36zm14 0-8 36h6l8-36z" style="opacity:.1"/>
 <path d="m26 14h6l-8 36h-6z" style="fill:#8e8e8e"/>
 <path d="m40 14h6l-8 36h-6z" style="fill:#8e8e8e"/>
 <path d="m6.8007812 4c-1.5511999 0-2.8007812 1.2495813-2.8007812 2.8007812v1c0-1.5511999 1.2495813-2.8007812 2.8007812-2.8007812h50.398438c1.5512 0 2.800781 1.2495813 2.800781 2.8007812v-1c0-1.5511999-1.249581-2.8007812-2.800781-2.8007812h-50.398438z" style="fill:#ffffff;opacity:.2"/>
</svg>
