<svg xmlns="http://www.w3.org/2000/svg" width="64" height="64" version="1.1">
 <rect style="opacity:.2" width="56" height="56" x="4" y="5" rx="2.8" ry="2.8"/>
 <rect style="fill:#8e8e8e" width="56" height="56" x="4" y="4" rx="2.8" ry="2.8"/>
 <path style="opacity:.2" d="m26 15-1.777344 8h-7.777344l-1.335937 6h7.779297l-1.777344 8h-7.779297l-1.332031 6h7.777344l-1.777344 8h6l1.777344-8h8l-1.777344 8h6l1.777344-8h7.824218l1.332032-6h-7.822266l1.777344-8h7.822266l1.289062-5.792969v-0.207031h-7.777344l1.777344-8h-6l-1.777344 8h-8l1.777344-8h-6zm2.888672 14h8l-1.777344 8h-8l1.777344-8z"/>
 <path style="fill:#3f3f3f" d="m26 14h6l-8 36h-6z"/>
 <path style="fill:#3f3f3f" d="m40 14h6l-8 36h-6z"/>
 <path style="fill:#3f3f3f" d="m16.445656 22-1.335937 6h35.601438l1.289062-5.792968v-0.207032zm-3.113281 14-1.332031 6h35.601437l1.332032-6z"/>
 <path style="opacity:.2;fill:#ffffff" d="m6.8007812 4c-1.5511999 0-2.8007812 1.2495813-2.8007812 2.8007812v1c0-1.5511999 1.2495813-2.8007812 2.8007812-2.8007812h50.398438c1.5512 0 2.800781 1.2495813 2.800781 2.8007812v-1c0-1.5511999-1.249581-2.8007812-2.800781-2.8007812h-50.398438z"/>
</svg>
