<svg xmlns="http://www.w3.org/2000/svg" width="64" height="64" version="1.1">
 <g transform="translate(0,-988.3622)">
  <path style="opacity:0.2" d="m 32.0358,994.3681 c -16.450751,0 -29.9641042,13.3894 -29.9642236,29.8068 -0.172736,2.4302 0,4.2018 0.17167,6.9968 0.4804828,6.8158 4.691853,11.6968 8.4625516,14.0456 3.555832,2.2144 6.819982,2.9968 6.819982,2.9968 0.08543,0.02 0.171286,0.038 0.257505,0.054 2.212654,0.402 4.814373,-0.5228 6.258155,-2.0354 1.44378,-1.5128 2.002664,-3.3532 2.001516,-5.091 l 0,-21.5316 c 0.0015,-1.547 -0.42541,-3.2034 -1.638666,-4.6886 -0.35773,-0.4378 -0.93907,-0.7396 -1.447492,-1.094 2.475214,-2.1358 5.675972,-3.4514 9.079,-3.4576 3.404168,0 6.605458,1.3162 9.082904,3.4538 -0.509248,0.354 -1.08948,0.6564 -1.44749,1.094 -1.213286,1.4828 -1.641108,3.1364 -1.64257,4.6806 l 0,21.5394 c -0.0011,1.7378 0.557734,3.5784 2.001516,5.091 1.443782,1.5124 4.046188,2.4366 6.258154,2.0354 0.08622,-0.02 0.17208,-0.034 0.257504,-0.054 0,0 3.26415,-0.7824 6.819982,-2.9968 3.767638,-2.3468 7.972308,-7.223 8.45865,-14.03 0.17558,-2.8066 0.17554,-4.627 0.17554,-7.0142 -1.2e-4,-16.4174 -13.513472,-29.8068 -29.964222,-29.8068 z"/>
  <path style="fill:#0093b8" d="m 32.0358,993.3681 c -16.450751,0 -29.9641042,13.3894 -29.9642236,29.8068 -0.172736,2.4302 0,4.2018 0.17167,6.9968 0.4804828,6.8158 4.691853,11.6968 8.4625516,14.0456 3.555832,2.2144 6.819982,2.9968 6.819982,2.9968 0.08543,0.02 0.171286,0.038 0.257505,0.054 2.212654,0.402 4.814373,-0.5228 6.258155,-2.0354 1.44378,-1.5128 2.002664,-3.3532 2.001516,-5.091 l 0,-21.5316 c 0.0015,-1.547 -0.42541,-3.2034 -1.638666,-4.6886 -0.35773,-0.4378 -0.93907,-0.7396 -1.447492,-1.094 2.475214,-2.1358 5.675972,-3.4514 9.079,-3.4576 3.404168,0 6.605458,1.3162 9.082904,3.4538 -0.509248,0.354 -1.08948,0.6564 -1.44749,1.094 -1.213286,1.4828 -1.641108,3.1364 -1.64257,4.6806 l 0,21.5394 c -0.0011,1.7378 0.557734,3.5784 2.001516,5.091 1.443782,1.5124 4.046188,2.4366 6.258154,2.0354 0.08622,-0.02 0.17208,-0.034 0.257504,-0.054 0,0 3.26415,-0.7824 6.819982,-2.9968 3.767638,-2.3468 7.972308,-7.223 8.45865,-14.03 0.17558,-2.8066 0.17554,-4.627 0.17554,-7.0142 -1.2e-4,-16.4174 -13.513472,-29.8068 -29.964222,-29.8068 z"/>
  <path style="opacity:0.2" d="m 32.000002,1000.3621 c -13.254763,0 -23.9998986,10.6556 -23.9999944,23.7998 l 0,5.6 0.00828,0 c -0.00148,0.086 -0.0086,0.17 -0.00828,0.26 0.01916,5.1234 3.0026814,8.3338 5.8124994,10.0816 2.809816,1.7474 4.989379,2.2422 4.989379,2.2422 0.683402,0.124 1.198616,-0.4546 1.198114,-1.214 l 0,-21.539 c 6.8e-4,-0.6932 -0.414678,-1.2496 -1.046459,-1.2304 -0.02114,-6e-4 -0.04229,-6e-4 -0.06342,0 0,0 -2.20273,0.2526 -5.041772,1.7718 -0.454637,0.2432 -1.111295,0.7406 -1.562345,1.064 1.474824,-9.5602 9.96135,-16.8244 19.714002,-16.836 9.760442,0 18.25347,7.2782 19.723998,16.8468 -0.454596,-0.3268 -1.113994,-0.8278 -1.572348,-1.0728 -2.839044,-1.5192 -5.041772,-1.772 -5.041772,-1.772 -0.02114,-6e-4 -0.04228,-6e-4 -0.06342,0 -0.63085,-0.02 -1.045804,0.5358 -1.04646,1.2278 l 0,21.5398 c -5.02e-4,0.7594 0.514712,1.3378 1.198114,1.214 0,0 2.179574,-0.4948 4.98938,-2.2422 2.809818,-1.7478 5.793342,-4.9582 5.812498,-10.0816 3.32e-4,-0.088 -0.0068,-0.172 -0.0082,-0.26 l 0.0082,0 0,-5.6 c -9.6e-5,-13.1442 -10.745228,-23.7998 -23.99999,-23.7998 z"/>
  <path style="fill:#ffffff" d="m 32.000002,999.3621 c -13.254763,0 -23.9998986,10.6556 -23.9999944,23.7998 l 0,5.6 0.00828,0 c -0.00148,0.086 -0.0086,0.17 -0.00828,0.26 0.01916,5.1234 3.0026814,8.3338 5.8124994,10.0816 2.809816,1.7474 4.989379,2.2422 4.989379,2.2422 0.683402,0.124 1.198616,-0.4546 1.198114,-1.214 l 0,-21.539 c 6.8e-4,-0.6932 -0.414678,-1.2496 -1.046459,-1.2304 -0.02114,-6e-4 -0.04229,-6e-4 -0.06342,0 0,0 -2.20273,0.2526 -5.041772,1.7718 -0.454637,0.2432 -1.111295,0.7406 -1.562345,1.064 1.474824,-9.5602 9.96135,-16.8244 19.714002,-16.836 9.760442,0 18.25347,7.2782 19.723998,16.8468 -0.454596,-0.3268 -1.113994,-0.8278 -1.572348,-1.0728 -2.839044,-1.5192 -5.041772,-1.772 -5.041772,-1.772 -0.02114,-6e-4 -0.04228,-6e-4 -0.06342,0 -0.63085,-0.02 -1.045804,0.5358 -1.04646,1.2278 l 0,21.5398 c -5.02e-4,0.7594 0.514712,1.3378 1.198114,1.214 0,0 2.179574,-0.4948 4.98938,-2.2422 2.809818,-1.7478 5.793342,-4.9582 5.812498,-10.0816 3.32e-4,-0.088 -0.0068,-0.172 -0.0082,-0.26 l 0.0082,0 0,-5.6 c -9.6e-5,-13.1442 -10.745228,-23.7998 -23.99999,-23.7998 z"/>
  <path style="opacity:0.2;fill:#ffffff" transform="translate(0,988.3622)" d="M 32.035156 5 L 32.035156 5.0058594 C 15.584405 5.0058594 2.072385 18.3951 2.0722656 34.8125 C 2.0099401 35.689349 2.0023238 36.479296 2.0136719 37.263672 C 2.0226764 36.795586 2.0359701 36.323137 2.0722656 35.8125 C 2.072385 19.3951 15.584405 6.0058594 32.035156 6.0058594 L 32.035156 6 C 48.418274 6 61.883546 19.280533 61.994141 35.605469 C 61.994437 35.334298 62 35.091297 62 34.806641 C 61.99988 18.389241 48.485906 5 32.035156 5 z M 40.429688 24.916016 C 40.142048 25.108688 39.871909 25.310184 39.671875 25.554688 C 38.458589 27.037487 38.030759 28.692128 38.029297 30.236328 L 38.029297 31.236328 C 38.030759 29.692128 38.458589 28.037487 39.671875 26.554688 C 40.029885 26.117087 40.609893 25.814938 41.119141 25.460938 C 40.897478 25.269682 40.662566 25.093766 40.429688 24.916016 z M 23.644531 24.919922 C 23.411948 25.097453 23.178384 25.273844 22.957031 25.464844 C 23.465453 25.819244 24.046567 26.120794 24.404297 26.558594 C 25.617553 28.043794 26.044469 29.701047 26.042969 31.248047 L 26.042969 30.248047 C 26.044469 28.701047 25.617553 27.043794 24.404297 25.558594 C 24.204383 25.313933 23.932361 25.112552 23.644531 24.919922 z"/>
 </g>
</svg>
