<svg xmlns="http://www.w3.org/2000/svg" width="64" height="64" version="1">
 <path style="opacity:0.2" d="m 10,56 0,2 c 0,1.662 1.338,3 3,3 l 38,0 c 1.662,0 3,-1.338 3,-3 l 0,-2 c 0,1.662 -1.338,3 -3,3 l -38,0 c -1.662,0 -3,-1.338 -3,-3 z"/>
 <path style="fill:#1f4a55" d="M 54,57 54,7 C 54,5.338 52.662,4 51,4 L 13,4 c -1.662,0 -3,1.338 -3,3 l 0,50 c 0,1.662 1.338,3 3,3 l 38,0 c 1.662,0 3,-1.338 3,-3 z"/>
 <path style="opacity:0.1;fill:#ffffff" d="M 13 4 C 11.338 4 10 5.338 10 7 L 10 8 C 10 6.338 11.338 5 13 5 L 51 5 C 52.662 5 54 6.338 54 8 L 54 7 C 54 5.338 52.662 4 51 4 L 13 4 z"/>
 <path d="M 29.00195,23 22,23 l 0,20 6.99805,0 m 4.028317,0 0.947266,0 C 38.405633,43 42,39.432 42,35 l 0,-4 c 0,-4.432 -3.594367,-8 -8.026367,-8 l -0.947266,0" style="opacity:0.2;fill:none;stroke:#000000;stroke-width:4"/>
 <path style="fill:none;stroke:#ffffff;stroke-width:4" d="M 29.00195,22 22,22 l 0,20 6.99805,0 m 4.028317,0 0.947266,0 C 38.405633,42 42,38.432 42,34 l 0,-4 c 0,-4.432 -3.594367,-8 -8.026367,-8 l -0.947266,0"/>
 <path style="opacity:0.15;fill:#ffffff;fill-rule:evenodd" d="m 15,12 0,6 6,0 0,-6 z m 11,0 0,6 23,0 0,-6 z m -11,11 0,6 13,0 0,-6 z m 18,0 0,6 5,0 0,-6 z m 10,0 0,6 6,0 0,-6 z m -28,11 0,6 5.666667,0 0,-6 z m 11,0 0,6 7,0 0,-6 z m 13,0 0,6 10,0 0,-6 z m -24,12 0,6 11,0 0,-6 z m 17,0 0,6 17,0 0,-6 z"/>
</svg>
