<svg xmlns="http://www.w3.org/2000/svg" width="64" height="64" version="1.1" viewBox="0 0 16.93 16.93">
 <g transform="translate(0,-280.06664)">
  <path style="opacity:.2" d="m8.4666667 288.7979c-4.8154136 0-7.4083333 7.40832-7.4083333 7.40832h2.5931233c1.852082 0 2.222295-2.59332 4.81521-5.18624 2.5929153 2.59292 2.9631283 5.18624 4.8152093 5.18624h2.593124s-1.666471-4.7544-4.805908-6.64454c0.0021 0.0002 0.0041-0.00022 0.0062 0-0.01346-0.008-0.03641-0.018-0.05064-0.028-0.106652-0.063-0.215546-0.1218-0.325561-0.1778-0.07725-0.039-0.147474-0.0748-0.233578-0.1126-0.166982-0.0756-0.338283-0.1408-0.5126301-0.1984-0.045492-0.016-0.088136-0.0312-0.134358-0.0454-0.039012-0.012-0.078452-0.0224-0.117822-0.033-0.4208606-0.1196-0.8583506-0.195-1.234033-0.1684z"/>
  <path style="fill:#eba43c" d="m15.874996 295.94165s-2.592915-7.40834-7.4083289-7.40834l-2e-7 2.2225c2.5929151 2.59292 2.9633311 5.18584 4.8154141 5.18584z"/>
  <path style="opacity:.1;fill:#ffffff" d="m32 32v1c16.309685 0 25.810349 22.329138 27.621094 27h0.378906s-9.800013-28-28-28z" transform="matrix(.26458333 0 0 .26458333 0 280.06664)"/>
  <path style="fill:#4f4f4f" d="m1.0583378 295.94165s2.5929153-7.40834 7.4083289-7.40834c0.8639518-0.061 2.0606453 0.39802 2.6091363 0.7637-1.3552769-0.1428-2.6091361 1.4588-2.6091361 1.4588-2.592915 2.59292-2.9633314 5.18584-4.8154136 5.18584z"/>
  <path style="opacity:.1;fill:#ffffff" d="m32 32c-18.199988 0-28 28-28 28h0.3789062c1.8107451-4.670862 11.3114078-27 27.6210938-27 2.544336-0.179645 5.837348 0.83499 8.154297 1.945312 0.55907-0.090777 1.128384-0.119348 1.705078-0.058593-2.073037-1.382098-6.594045-3.11727-9.859375-2.886719z" transform="matrix(.26458333 0 0 .26458333 0 280.06664)"/>
  <path style="opacity:.2" d="m1.0583334 281.38951s1.6668229 4.75484 4.8069415 6.64456c-0.00242-0.00024-0.0048 0.00026-0.00724 0 0.01648 0.01 0.044386 0.023 0.062012 0.034 0.097532 0.0574 0.197318 0.1108 0.2976562 0.1622 0.082468 0.042 0.157258 0.081 0.2501138 0.122 0.166982 0.0756 0.338283 0.1408 0.5126302 0.1984 0.045492 0.016 0.088136 0.0312 0.134358 0.0454 0.03799 0.012 0.076394 0.0216 0.114722 0.032 0.4218188 0.1202 0.860517 0.196 1.237134 0.1696 4.8154139 0 7.4083329-7.40834 7.4083329-7.40834h-2.593118c-1.852081 0-2.222294 2.59334-4.8152093 5.18624-2.592915-2.5929-2.963128-5.18624-4.81521-5.18624z"/>
  <path style="fill:#568cbf" d="m1.0583379 281.12499s2.5929148 7.40832 7.4083286 7.40832l2e-7 -2.2225c-2.592915-2.5929-2.9633314-5.18582-4.8154136-5.18582z"/>
  <path style="opacity:.1;fill:#ffffff" d="m4 4s0.2584637 0.6444079 0.3984375 1h9.4023435c6.999995 0 8.399225 9.801625 18.199219 19.601562v-1c-9.799994-9.799937-11.199224-19.601562-18.199219-19.601562h-9.800781z" transform="matrix(.26458333 0 0 .26458333 0 280.06664)"/>
  <path style="fill:#4f4f4f" d="m15.874996 281.12499s-2.592915 7.40832-7.4083293 7.40832c-0.8639516 0.061-2.060645-0.39802-2.609136-0.76368 1.3552768 0.1428 2.609136-1.45882 2.609136-1.45882 2.5929153-2.5929 2.9633313-5.18582 4.8154133-5.18582z"/>
  <path style="opacity:.1;fill:#ffffff" d="m50.199219 4c-6.999991 0-8.399224 9.801625-18.199219 19.601562 0 0-4.737067 6.051436-9.859375 5.511719 0.46242 0.308283 1.085277 0.622783 1.763672 0.933594 4.39544-0.726671 8.095703-5.445313 8.095703-5.445313 9.799995-9.799937 11.199228-19.601562 18.199219-19.601562h9.402343c0.139974-0.3555921 0.398438-1 0.398438-1h-9.800781z" transform="matrix(.26458333 0 0 .26458333 0 280.06664)"/>
 </g>
</svg>
