<?xml version="1.0" encoding="utf-8"?>
<!-- Generator: Adobe Illustrator 16.0.0, SVG Export Plug-In . SVG Version: 6.00 Build 0)  -->
<!DOCTYPE svg PUBLIC "-//W3C//DTD SVG 1.1//EN" "http://www.w3.org/Graphics/SVG/1.1/DTD/svg11.dtd">
<svg version="1.1" id="Capa_1" xmlns="http://www.w3.org/2000/svg" xmlns:xlink="http://www.w3.org/1999/xlink" x="0px" y="0px"
	 width="64px" height="64px" viewBox="0 0 64 64" enable-background="new 0 0 64 64" xml:space="preserve">
<g id="Capa_3">
	<polygon opacity="0.2" enable-background="new    " points="54.563,58.346 54.563,60.5 22.375,60.5 22.373,58.178 	"/>
	<rect x="16.521" y="41.927" opacity="0.2" enable-background="new    " width="6.458" height="2.343"/>
	<rect x="9.438" y="26.6" opacity="0.2" enable-background="new    " width="7.792" height="2.413"/>
	<polygon fill="#393939" points="14.792,3.5 49.396,3.5 49.396,39.188 54.563,39.188 54.563,59.438 22.375,59.438 22.354,43.208 
		16.521,43.208 16.521,27.951 9.438,27.951 9.438,5.163 14.781,5.163 	"/>
</g>
<g id="Capa_4">
	<g>
		<g>
			<g>
				<path opacity="0.2" enable-background="new    " d="M18.313,7.374v3.563h-5.906v15.25h8.813V7.374H18.313z M18.313,23.812
					h-2.344V12.687h2.344V23.812z"/>
			</g>
		</g>
		<polygon opacity="0.2" enable-background="new    " points="24.719,7.374 33.563,7.374 33.563,9.155 28.25,9.155 28.25,10.874 
			33.563,10.874 33.563,12.687 28.219,12.687 28.219,22.687 29.969,22.687 29.969,14.78 33.563,14.78 33.563,26.187 24.719,26.187 
					"/>
		<polygon opacity="0.2" enable-background="new    " points="36.969,7.374 45.344,7.374 45.344,9.187 40.563,9.187 40.563,10.874 
			45.344,10.874 45.344,26.187 36.969,26.187 36.969,14.687 40,14.687 40,23.124 42.281,23.124 42.281,12.687 36.969,12.687 		"/>
		<polygon opacity="0.2" enable-background="new    " points="20.094,29.687 32.938,29.687 32.938,41.404 30.531,41.404 
			30.531,32.029 28.25,32.029 28.25,41.404 25.219,41.404 25.219,32.063 23.531,32.063 23.531,41.404 20.094,41.404 		"/>
		<polygon opacity="0.2" enable-background="new    " points="36.969,29.687 39.938,29.687 39.938,37.904 41.688,37.904 
			41.688,29.687 45.188,29.687 45.188,41.404 36.969,41.404 		"/>
		<polygon opacity="0.2" enable-background="new    " points="25.906,43.718 39.375,43.718 39.375,57.779 36.406,57.779 
			36.406,46.124 34.094,46.124 34.094,57.779 30.531,57.779 30.531,46.188 28.781,46.188 28.781,57.779 25.906,57.779 		"/>
		<polygon opacity="0.2" enable-background="new    " points="42.875,43.718 51.094,43.718 51.094,45.529 46.406,45.529 
			46.406,47.154 51.094,47.154 51.094,48.999 46.406,48.999 46.406,55.404 48.094,55.404 48.094,50.749 51.094,50.749 
			51.094,57.779 44.063,57.779 42.875,56.593 		"/>
	</g>
	<g>
		<g>
			<g>
				<path fill="#CECDFF" d="M18.313,6.313v3.563h-5.906v15.25h8.813V6.313H18.313z M18.313,22.75h-2.344V11.625h2.344V22.75z"/>
			</g>
		</g>
		<polygon fill="#CECDFF" points="24.719,6.313 33.563,6.313 33.563,8.094 28.25,8.094 28.25,9.813 33.563,9.813 33.563,11.625 
			28.219,11.625 28.219,21.625 29.969,21.625 29.969,13.719 33.563,13.719 33.563,25.125 24.719,25.125 		"/>
		<polygon fill="#CECDFF" points="36.969,6.313 45.344,6.313 45.344,8.125 40.563,8.125 40.563,9.813 45.344,9.813 45.344,25.125 
			36.969,25.125 36.969,13.625 40,13.625 40,22.063 42.281,22.063 42.281,11.625 36.969,11.625 		"/>
		<polygon fill="#9999FF" points="20.094,28.625 32.938,28.625 32.938,40.344 30.531,40.344 30.531,30.969 28.25,30.969 
			28.25,40.344 25.219,40.344 25.219,31 23.531,31 23.531,40.344 20.094,40.344 		"/>
		<polygon fill="#9999FF" points="36.969,28.625 39.938,28.625 39.938,36.844 41.688,36.844 41.688,28.625 45.188,28.625 
			45.188,40.344 36.969,40.344 		"/>
		<polygon fill="#7473FF" points="25.906,42.656 39.375,42.656 39.375,56.719 36.406,56.719 36.406,45.063 34.094,45.063 
			34.094,56.719 30.531,56.719 30.531,45.125 28.781,45.125 28.781,56.719 25.906,56.719 		"/>
		<polygon fill="#7473FF" points="42.875,42.656 51.094,42.656 51.094,44.469 46.406,44.469 46.406,46.094 51.094,46.094 
			51.094,47.938 46.406,47.938 46.406,54.344 48.094,54.344 48.094,49.688 51.094,49.688 51.094,56.719 44.063,56.719 
			42.875,55.531 		"/>
	</g>
</g>
</svg>
