<svg xmlns="http://www.w3.org/2000/svg" height="64" width="64" version="1.1">
 <rect style="opacity:.2" rx="2.8" ry="2.8" height="56" width="56" y="5" x="4.1992002"/>
 <rect style="fill:#4f4f4f" rx="2.8" ry="2.8" height="56" width="56" y="4" x="4.1992002"/>
 <path style="opacity:.1;fill:#ffffff" d="m7 4c-1.5512 0-2.8008 1.2496-2.8008 2.8008v1c0-1.5512 1.2496-2.8008 2.8008-2.8008h50.3982c1.551 0 2.801 1.2496 2.801 2.8008v-1c0-1.5512-1.25-2.8008-2.801-2.8008z"/>
 <path style="opacity:.2" d="m10 11v44h5v-44zm13 0v5l23 13v3h8v-5l-23-12v-4zm23 0v4l-4.625 2.412109 5.265625 2.748047 7.359375-4.160156v-5zm-16.560547 12.640625-6.439453 3.359375v5h8v-3l3.960938-2.238281zm-1.439453 10.359375c-2.77 0-5 2.23-5 5v11c0 2.77 2.23 5 5 5h26v-6h-24c-1.108 0-2-0.892-2-2v-6c0-1.108 0.892-2 2-2h14l-10 7h9l11-7c0-2.77-2.23-5-5-5z"/>
 <path style="fill:#ffffff" d="m10 10v44h5v-44h-5zm13 0v5l23 13v3h8v-5l-23-12v-4h-8zm23 0v4l-4.625 2.412109 5.265625 2.748047 7.359375-4.160156v-5h-8zm-16.560547 12.640625l-6.439453 3.359375v5h8v-3l3.960938-2.238281-5.521485-3.121094zm-1.439453 10.359375c-2.77 0-5 2.23-5 5v11c0 2.77 2.23 5 5 5h20 1 5v-5-1h-6-18c-1.108 0-2-0.892-2-2v-6c0-1.108 0.892-2 2-2h14l-10 7h9l11-7c0-2.77-2.23-5-5-5h-21z"/>
</svg>
