<svg width="64" height="64" version="1.1" xmlns="http://www.w3.org/2000/svg">
 <g>
  <circle cx="31.447763" cy="32.447762" r="27.447763" style="opacity:.2"/>
  <circle cx="31.447763" cy="31.447763" r="27.447763" style="fill:#4f4f4f"/>
  <path d="m16 51 12.9224-18.6137-6.4601-10.4385h5.3834l4.1543 7.0522 6-10h-31.036c1.05088-1.8202 1.91999-3.1526 3.351-5h35.1489l-11.6964 17.848 7.9755 12.152h-5.243l-5.5-8-7.4614 10h31.1504c-1.1944 1.76-2.6351 3.6141-4.021 5z" style="fill-rule:evenodd;fill:#c2352a"/>
  <path d="m31.447266 4a27.447763 27.447763 0 0 0-27.447266 27.447266 27.447763 27.447763 0 0 0 0.0351562 0.5 27.447763 27.447763 0 0 1 27.41211-26.947266 27.447763 27.447763 0 0 1 27.43164 26.703125 27.447763 27.447763 0 0 0 0.017578-0.255859 27.447763 27.447763 0 0 0-27.449218-27.447266z" style="fill:#ffffff;opacity:.2"/>
 </g>
</svg>
