<svg xmlns="http://www.w3.org/2000/svg" width="64" height="64" version="1">
 <circle style="opacity:0.2" cx="32" cy="33" r="28"/>
 <circle style="fill:#ff8dcb" cx="32" cy="32" r="28"/>
 <path style="opacity:0.2;fill:#ffffff" d="M 32,4 A 28,28 0 0 0 4,32 28,28 0 0 0 4.0215,32.586 28,28 0 0 1 32,5 28,28 0 0 1 59.979,32.414 28,28 0 0 0 60,32 28,28 0 0 0 32,4 Z"/>
 <circle style="opacity:0.2" cx="32" cy="33" r="20"/>
 <circle style="fill:#fdcfea" cx="32" cy="32" r="20"/>
 <path style="opacity:0.1" d="M 25.56227,23 C 21.398121,23 18,26.126665 18,30 c 0,2.01544 0.911514,3.854107 2.375085,5.133335 L 31.811493,45.4 43.623916,35.133335 C 45.087967,33.854665 46,32.016002 46,30 46,26.126667 42.601877,23 38.43773,23 35.693631,23 33.317546,24.345865 31.999498,26.3824 30.679453,24.345865 28.303369,23 25.55927,23 Z"/>
 <path style="fill:#03adee" d="M 25.56227,22 C 21.398121,22 18,25.126665 18,29 c 0,2.01544 0.911514,3.854107 2.375085,5.133335 L 31.811493,44.4 43.623916,34.133335 C 45.087967,32.854665 46,31.016002 46,29 46,25.126667 42.601877,22 38.43773,22 35.693631,22 33.317546,23.345865 31.999498,25.3824 30.679453,23.345865 28.303369,22 25.55927,22 Z"/>
 <path style="opacity:0.1" d="M 21.683594 23 C 21.173095 23.283493 20.698679 23.616629 20.275391 24 L 30.828125 24 C 30.408603 23.615582 29.936345 23.28373 29.429688 23 L 21.683594 23 z M 34.566406 23 C 34.059953 23.283707 33.589125 23.615633 33.169922 24 L 43.724609 24 C 43.30132 23.616629 42.826905 23.283494 42.316406 23 L 34.566406 23 z M 19.361328 25 C 19.12385 25.314666 18.918157 25.650341 18.738281 26 L 45.261719 26 C 45.081461 25.649598 44.874817 25.315254 44.636719 25 L 32.285156 25 C 32.189848 25.127389 32.086408 25.249302 32 25.382812 C 31.913461 25.249302 31.810266 25.127389 31.714844 25 L 19.361328 25 z M 18.318359 27 C 18.214132 27.323645 18.138904 27.658429 18.085938 28 L 45.914062 28 C 45.861097 27.658429 45.785868 27.323644 45.681641 27 L 18.318359 27 z M 18 29 C 18 29.339968 18.035791 29.671928 18.085938 30 L 45.914062 30 C 45.964236 29.671865 46 29.340063 46 29 L 18 29 z M 18.316406 31 C 18.425631 31.345091 18.560852 31.678907 18.722656 32 L 45.277344 32 C 45.439177 31.67885 45.574375 31.345186 45.683594 31 L 18.316406 31 z M 19.335938 33 C 19.602412 33.360598 19.906191 33.69382 20.238281 34 L 43.761719 34 C 44.09424 33.693559 44.399271 33.361027 44.666016 33 L 19.335938 33 z M 21.341797 35 L 22.455078 36 L 41.474609 36 L 42.625 35 L 21.341797 35 z M 23.568359 37 L 24.681641 38 L 39.173828 38 L 40.324219 37 L 23.568359 37 z M 25.794922 39 L 26.910156 40 L 36.873047 40 L 38.023438 39 L 25.794922 39 z M 28.023438 41 L 29.136719 42 L 34.572266 42 L 35.722656 41 L 28.023438 41 z M 30.25 43 L 31.365234 44 L 32.271484 44 L 33.421875 43 L 30.25 43 z"/>
 <path style="opacity:0.2;fill:#ffffff" d="M 32,12 A 20,20 0 0 0 12,32 20,20 0 0 0 12.021484,32.582031 20,20 0 0 1 32,13 20,20 0 0 1 51.978516,32.417969 20,20 0 0 0 52,32 20,20 0 0 0 32,12 Z"/>
 <circle style="opacity:0.2" cx="48" cy="48" r="16"/>
 <circle style="fill:#d82687" cx="48" cy="47" r="16"/>
 <rect style="fill:#ffffff" width="6" height="22" x="45" y="36" rx="3" ry="3"/>
 <rect style="fill:#ffffff" width="6" height="22" x="44" y="-59" rx="3" ry="3" transform="matrix(0,1,-1,0,0,0)"/>
</svg>
