<svg xmlns="http://www.w3.org/2000/svg" width="64" height="64" version="1">
 <rect style="opacity:0.2" width="56" height="56" x="4" y="5" rx="4.2" ry="4.2"/>
 <rect style="fill:#6692ab" width="56" height="56" x="4" y="4" rx="4.2" ry="4.2"/>
 <path style="fill:#313c43" d="m 20.750782,4 c 1.544804,0 2.127822,2.3270932 2.310546,2.9832032 0.1822,0.6509838 0.849992,3.0805638 0.13946,7.6425788 -0.485526,2.716704 -0.765626,1.547655 -0.765626,1.547655 0,0 -0.64904,-1.327067 -0.669922,-2.321484 -0.0048,-0.246041 0,-0.451206 0,-0.615235 0.0058,-0.492081 0.0058,-0.620667 -0.16132,-0.45664 -0.219792,0.220411 -0.604528,0.856875 -0.782032,2.42539 -0.18324,1.563387 0.31719,3.566666 0.31719,3.664064 0,0.09738 -0.07926,0.117908 -0.2625,0.08203 C 20.69436,18.910552 18.596796,18.593391 16.816016,13.933979 15.0415,9.2745738 15.082422,7.8445258 15.082422,7.8445258 c 0,-4e-7 -0.06266,-0.5947316 -0.16133,-0.6152346 -0.09919,-0.020502 -0.266443,-0.081266 -0.303515,0.2980468 -0.04124,0.3793136 -0.363225,3.724709 0.382813,7.615234 0.747083,3.8854 1.654234,6.346114 2.504687,7.81211 0.846276,1.47112 0.930167,1.768928 1.11289,2.378906 0.182204,0.615102 0.11956,1.844788 0.21875,2.3625 0.07778,0.384438 0.126812,0.877092 0.0793,1.071874 -0.01514,0.06662 -0.0467,0.09844 -0.120316,0.05742 -0.1253,-0.07176 -0.924452,-0.87194 -1.044529,-0.989834 -0.1253,-0.117894 -0.834417,-0.748744 -1.476563,-1.722658 -0.647367,-0.968786 -1.17574,-1.650614 -1.577734,-2.004296 -0.266256,-0.240916 -0.84591,-0.733454 -0.866798,-0.538672 -0.02036,0.19992 0.156566,0.324756 0.298048,0.560546 0.14096,0.23579 0.850076,1.603242 1.257812,2.597656 0.401473,0.989292 1.732046,3.686386 2.05625,4.183594 0.323163,0.492082 1.174713,1.388868 1.90039,2.08086 0.725157,0.69199 1.797205,2.177336 2.042579,2.597656 0.240674,0.415194 0.745734,1.565144 0.7875,1.826564 0.0522,0.34856 0.099,0.353058 -0.246094,0.27617 -0.338822,-0.07688 -2.138468,-0.696616 -2.499219,-0.85039 -0.312719,-0.1384 -0.992295,-0.406428 -1.331641,-0.555078 -0.130522,-0.05638 -0.533237,0.0568 -0.18867,0.333594 0.344045,0.276796 3.395072,2.240516 3.661328,2.419922 0.261036,0.1794 1.856882,1.527584 2.195704,1.963282 0.345088,0.435698 1.035018,1.450192 1.698046,2.81367 0.668772,1.37373 1.230746,2.999168 0.948828,5.73125 -0.255814,1.537758 -0.83848,2.340982 -0.864062,2.38711 -0.03132,0.04614 -0.0905,0.05262 -0.1996,0.02188 -0.261038,-0.06664 -0.809628,-0.354464 -1.033596,-0.46211 -0.28244,-0.1384 -0.851378,-0.497646 -0.929686,-0.45664 -0.083,0.041 -0.238646,0.14022 0.0793,0.519532 0.324204,0.374186 1.068104,1.1683 1.230466,1.342578 0.16184,0.1794 0.268248,0.281324 0.205078,0.399218 -0.0569,0.1179 -0.05892,0.29774 0.08202,0.456642 0.14096,0.1589 0.804392,0.912972 0.929688,1.071874 0.12008,0.1589 0.5844,0.788582 0.683594,1.05 0.09972,0.256292 0.204326,0.476528 0.246092,0.773828 0.03602,0.2973 0.13448,0.892152 0.259766,1.189452 0.12008,0.2973 0.344536,0.635104 0.563282,0.850392 C 27.888294,58.91338 29.2,60 29.2,60 h 5.6 c 0,0 1.311706,-1.08662 1.536718,-1.307032 0.218748,-0.215286 0.443206,-0.55309 0.563282,-0.85039 0.1253,-0.2973 0.223742,-0.892154 0.259766,-1.189454 0.04176,-0.297298 0.14638,-0.517534 0.246094,-0.773826 0.0992,-0.26142 0.563516,-0.8911 0.683592,-1.05 0.1253,-0.1589 0.78873,-0.912972 0.929688,-1.071876 0.14096,-0.1589 0.13894,-0.338746 0.08202,-0.45664 -0.06316,-0.1179 0.04324,-0.219814 0.205078,-0.399218 0.16236,-0.17428 0.906264,-0.968392 1.230468,-1.34258 0.317942,-0.379314 0.1623,-0.478524 0.0793,-0.519532 -0.07832,-0.041 -0.647248,0.318242 -0.929688,0.456642 -0.223968,0.10764 -0.772558,0.395472 -1.033592,0.462108 -0.10912,0.03076 -0.16556,0.02426 -0.19688,-0.02188 -0.02558,-0.04614 -0.610982,-0.849352 -0.866796,-2.387108 -0.28192,-2.732084 0.280056,-4.35752 0.948828,-5.73125 0.663028,-1.363478 1.352958,-2.377974 1.698046,-2.813672 0.338826,-0.435698 1.934668,-1.783876 2.195704,-1.963282 0.266254,-0.1794 3.317282,-2.143124 3.661328,-2.419922 0.344566,-0.276796 -0.05816,-0.389976 -0.18868,-0.333594 -0.339344,0.14866 -1.018922,0.41668 -1.33164,0.555078 -0.360752,0.15378 -2.160398,0.773504 -2.49922,0.850392 -0.345088,0.07688 -0.2983,0.0724 -0.246094,-0.276172 0.04176,-0.261418 0.546826,-1.41137 0.7875,-1.826562 0.245374,-0.420322 1.317424,-1.905666 2.04258,-2.597658 0.725676,-0.69199 1.57723,-1.588776 1.90039,-2.080858 0.324206,-0.49721 1.654776,-3.194304 2.05625,-4.183594 0.407736,-0.994416 1.116852,-2.361868 1.257812,-2.597656 0.14148,-0.23579 0.318408,-0.360638 0.298048,-0.560546 -0.02088,-0.19478 -0.600542,0.297754 -0.866798,0.53867 -0.401994,0.353684 -0.930368,1.03551 -1.577734,2.004298 -0.642146,0.973912 -1.351266,1.60476 -1.476564,1.722656 -0.12008,0.1179 -0.919232,0.918082 -1.04453,0.989844 -0.07362,0.041 -0.10516,0.0092 -0.12032,-0.05742 -0.0475,-0.19478 0.0015,-0.687436 0.0793,-1.071876 0.0992,-0.51771 0.03656,-1.747396 0.21875,-2.3625 0.18272,-0.609976 0.266616,-0.907784 1.112892,-2.378906 0.850452,-1.465994 1.757602,-3.926709 2.504686,-7.812109 0.746038,-3.890525 0.424058,-7.2359204 0.382814,-7.615234 -0.03708,-0.3793132 -0.204324,-0.3185502 -0.303516,-0.2980468 -0.09868,0.020502 -0.16132,0.6152344 -0.16132,0.6152346 0,0 0.04092,1.430048 -1.733594,6.0894532 -1.78078,4.659405 -3.878344,4.97657 -4.060546,5.017579 -0.18324,0.03588 -0.2625,0.01536 -0.2625,-0.08203 0,-0.0974 0.500436,-2.100677 0.317188,-3.664064 -0.1775,-1.568512 -0.56224,-2.204979 -0.782032,-2.42539 -0.16706,-0.164026 -0.16708,-0.03543 -0.16132,0.45664 0,0.164028 0.0048,0.369194 0,0.615235 -0.02088,0.994417 -0.669922,2.321484 -0.669922,2.321484 0,1e-6 -0.2801,1.169049 -0.765624,-1.547655 C 40.08868,10.063777 40.756466,7.634187 40.938676,6.9832032 41.121396,6.3270932 41.704412,4 43.249218,4 Z m 4.626562,26.83789 c 0.0661,0.02018 0.10376,0.253802 0.1996,0.475782 0.12108,0.287568 0.665844,0.947484 0.877734,1.159376 0.13622,0.13116 0.245412,0.288882 0.360938,0.440234 0.298164,0.373334 0.600258,0.746296 0.877736,1.134766 0.17708,0.237116 0.30883,0.510446 0.404688,0.792968 0.378378,1.084684 0.336326,2.154316 0.336326,3.289452 0,0.17658 0.03632,1.173048 -0.08476,1.173048 -0.12614,0 -0.07052,5.38e-4 -0.16132,-0.15586 -0.08526,-0.16144 -0.595788,-1.08867 -0.7875,-1.386328 -0.1917,-0.297658 -0.97217,-1.406898 -1.178512,-1.684376 -0.19222,-0.277476 -0.779032,-1.231438 -1.03633,-1.796484 C 25.039128,33.95254 25,33.60361 25,33.260548 c 0,-0.267388 0.02084,-0.534824 0.04102,-0.782032 0.04086,-0.504504 0.085,-0.928964 0.12032,-1.47383 0.01,-0.1564 0.16606,-0.18696 0.216016,-0.1668 z m 13.045704,0 c 0.04994,-0.02018 0.205924,0.0104 0.216016,0.1668 0.03532,0.544866 0.07946,0.969326 0.12032,1.47383 0.02018,0.247208 0.04102,0.514644 0.04102,0.782032 0,0.343062 -0.03914,0.691992 -0.18594,1.01992 -0.257296,0.565046 -0.84411,1.519008 -1.036326,1.796484 -0.206342,0.277478 -0.986804,1.386718 -1.178516,1.684376 -0.19172,0.297658 -0.70224,1.224888 -0.7875,1.386328 -0.0908,0.1564 -0.0352,0.15586 -0.16132,0.15586 -0.12108,0 -0.08476,-0.996472 -0.08476,-1.173048 0,-1.135136 -0.04206,-2.204768 0.336328,-3.289452 0.09586,-0.282522 0.227606,-0.555852 0.404688,-0.792968 0.277476,-0.38847 0.579572,-0.761432 0.877734,-1.134766 0.11552,-0.15136 0.227456,-0.309064 0.36367,-0.440234 0.211894,-0.211892 0.756654,-0.871808 0.877736,-1.159376 0.09586,-0.22198 0.13078,-0.455602 0.19688,-0.475782 z m -8.919532,19.531642 c 0.007,-0.0058 0.02148,6.36e-4 0.04922,0.0082 0.04996,0.02018 0.09782,0.212282 0.12304,0.298046 0.02522,0.0908 0.16378,0.56548 0.1996,0.721876 0.06004,0.262342 0.231536,1.05374 0.292576,1.32617 0.07568,0.36829 0.288528,1.22084 0.298048,1.301564 0.07618,0.771892 0.262342,1.306534 0,1.528516 -0.261838,0.216936 -0.500046,-0.06844 -0.626172,-0.1996 -0.12108,-0.13116 -0.462798,-0.55562 -0.56875,-0.757422 -0.06104,-0.11604 -0.11758,-0.1477 -0.11758,-0.213282 0,-0.06054 0.08202,-0.13946 0.08202,-0.13946 0.28253,-0.49946 0.327266,-1.116244 0.317186,-1.449218 -0.005,-0.13116 0,-0.283414 0,-0.434766 0.0046,-0.232072 0.0064,-0.453134 -0.0082,-0.57422 -0.02522,-0.2018 -0.0504,-0.614504 -0.0711,-0.80117 -0.02018,-0.18162 0.02462,-0.47394 0.02462,-0.54961 0,-0.04036 -0.0014,-0.05994 0.0054,-0.06562 z m 4.949218,0 c 0.007,0.0058 0.0054,0.02526 0.0054,0.06562 0,0.07568 0.04752,0.367986 0.02734,0.549608 -0.02068,0.18666 -0.0486,0.59937 -0.07382,0.801172 -0.0146,0.12108 -0.0128,0.342148 -0.0082,0.57422 0,0.15136 0.005,0.303594 0,0.434766 -0.01,0.332972 0.03466,0.949758 0.317186,1.449218 0,0 0.08202,0.07892 0.08202,0.13946 0,0.0656 -0.05654,0.09724 -0.11758,0.213282 -0.10596,0.2018 -0.447668,0.62625 -0.56875,0.757422 -0.12612,0.13116 -0.364336,0.416546 -0.626172,0.1996 -0.262342,-0.221982 -0.07618,-0.756624 0,-1.528514 0.0096,-0.08072 0.222372,-0.933276 0.298048,-1.301564 0.06104,-0.272432 0.232542,-1.06383 0.292578,-1.326172 0.03582,-0.1564 0.17712,-0.631064 0.202342,-0.721874 0.02522,-0.08576 0.07036,-0.277868 0.12032,-0.298048 0.02774,-0.0076 0.04228,-0.0138 0.04922,-0.0082 z"/>
 <path style="opacity:0.1;fill:#ffffff" d="M 8.1992188 4 C 5.8724187 4 4 5.8724187 4 8.1992188 L 4 9.1992188 C 4 6.8724188 5.8724187 5 8.1992188 5 L 55.800781 5 C 58.127581 5 60 6.8724188 60 9.1992188 L 60 8.1992188 C 60 5.8724187 58.127581 4 55.800781 4 L 8.1992188 4 z"/>
 <path style="opacity:0.2" d="M 20.75 4 C 21.422409 4 21.905494 4.4479215 22.259766 5 L 41.740234 5 C 42.094505 4.4479215 42.57759 4 43.25 4 L 20.75 4 z M 14.746094 7.2285156 C 14.687248 7.258176 14.635723 7.3376874 14.617188 7.5273438 C 14.594254 7.7382777 14.490016 8.8845965 14.525391 10.513672 C 14.540723 9.4653773 14.599646 8.6886845 14.617188 8.5273438 C 14.654259 8.148031 14.822685 8.2080136 14.921875 8.2285156 C 15.020545 8.2490186 15.082031 8.8437496 15.082031 8.84375 C 15.082031 8.84375 15.04189 10.274189 16.816406 14.933594 C 18.597186 19.593006 20.694735 19.910162 20.876953 19.951172 C 21.060193 19.98705 21.138672 19.966521 21.138672 19.869141 C 21.138672 19.834467 21.049983 19.368956 20.976562 18.957031 C 20.943354 18.955435 20.922785 18.960146 20.876953 18.951172 C 20.694735 18.910162 18.597186 18.593006 16.816406 13.933594 C 15.04189 9.2741885 15.082031 7.84375 15.082031 7.84375 C 15.082031 7.8437496 15.020545 7.2490186 14.921875 7.2285156 C 14.87228 7.2182646 14.80494 7.1988553 14.746094 7.2285156 z M 49.078125 7.2285156 C 48.979445 7.2490176 48.917969 7.8437498 48.917969 7.84375 C 48.917969 7.84375 48.958108 9.2741885 47.183594 13.933594 C 45.402814 18.592999 43.305249 18.910163 43.123047 18.951172 C 43.077215 18.960146 43.056646 18.955434 43.023438 18.957031 C 42.950016 19.368956 42.861328 19.834466 42.861328 19.869141 C 42.861328 19.966531 42.939807 19.987052 43.123047 19.951172 C 43.305249 19.910163 45.402814 19.592999 47.183594 14.933594 C 48.958108 10.274189 48.917969 8.84375 48.917969 8.84375 C 48.917969 8.8437498 48.979445 8.2490176 49.078125 8.2285156 C 49.177317 8.2080122 49.345732 8.1480305 49.382812 8.5273438 C 49.400356 8.6886845 49.459277 9.4653773 49.474609 10.513672 C 49.509985 8.8845965 49.405748 7.7382777 49.382812 7.5273438 C 49.345732 7.1480305 49.177317 7.2080122 49.078125 7.2285156 z M 23.507812 11.189453 C 23.488861 12.166153 23.408457 13.294112 23.201172 14.625 C 22.715646 17.341704 22.435547 16.173828 22.435547 16.173828 C 22.435547 16.173828 21.786507 14.845979 21.765625 13.851562 C 21.760825 13.605522 21.765625 13.400357 21.765625 13.236328 C 21.771425 12.744247 21.770636 12.61527 21.603516 12.779297 C 21.383724 12.999708 20.99977 13.636563 20.822266 15.205078 C 20.773305 15.622804 20.776665 16.068118 20.802734 16.503906 C 20.809119 16.404325 20.810924 16.301845 20.822266 16.205078 C 20.99977 14.636563 21.383724 13.999708 21.603516 13.779297 C 21.770636 13.61527 21.771425 13.744247 21.765625 14.236328 C 21.765625 14.400357 21.760825 14.605522 21.765625 14.851562 C 21.786507 15.845979 22.435547 17.173828 22.435547 17.173828 C 22.435547 17.173828 22.715646 18.341704 23.201172 15.625 C 23.483514 13.812204 23.543797 12.351024 23.507812 11.189453 z M 40.492188 11.189453 C 40.456204 12.351024 40.516486 13.812208 40.798828 15.625 C 41.284352 18.341704 41.564453 17.173829 41.564453 17.173828 C 41.564453 17.173828 42.213495 15.84598 42.234375 14.851562 C 42.239175 14.605522 42.234375 14.400356 42.234375 14.236328 C 42.228615 13.744258 42.229424 13.615271 42.396484 13.779297 C 42.616276 13.999708 43.000234 14.636566 43.177734 16.205078 C 43.189077 16.301845 43.190881 16.404325 43.197266 16.503906 C 43.223335 16.068118 43.226697 15.622804 43.177734 15.205078 C 43.000234 13.636566 42.616276 12.999708 42.396484 12.779297 C 42.229424 12.615271 42.228615 12.744258 42.234375 13.236328 C 42.234375 13.400356 42.239175 13.605522 42.234375 13.851562 C 42.213495 14.84598 41.564453 16.173828 41.564453 16.173828 C 41.564453 16.173829 41.284352 17.341704 40.798828 14.625 C 40.591543 13.294115 40.51114 12.166152 40.492188 11.189453 z M 13.863281 23.527344 C 13.844912 23.532047 13.832689 23.545965 13.830078 23.570312 C 13.809718 23.770232 13.987424 23.895069 14.128906 24.130859 C 14.190981 24.234694 14.385573 24.609186 14.59375 25.023438 C 14.625315 25.051231 14.670973 25.085584 14.697266 25.109375 C 15.09926 25.463057 15.628024 26.144495 16.275391 27.113281 C 16.917537 28.087195 17.626653 28.718044 17.751953 28.835938 C 17.87203 28.953831 18.669622 29.754412 18.794922 29.826172 C 18.868538 29.867192 18.900876 29.834198 18.916016 29.767578 C 18.958107 29.595018 18.917782 29.191756 18.855469 28.833984 C 18.838484 28.836739 18.822037 28.841281 18.794922 28.826172 C 18.669622 28.754412 17.87203 27.953831 17.751953 27.835938 C 17.626653 27.718044 16.917537 27.087195 16.275391 26.113281 C 15.628024 25.144495 15.09926 24.463057 14.697266 24.109375 C 14.464292 23.898574 13.991864 23.494424 13.863281 23.527344 z M 50.136719 23.527344 C 50.00814 23.494424 49.535708 23.898573 49.302734 24.109375 C 48.90074 24.463059 48.371975 25.144493 47.724609 26.113281 C 47.082463 27.087193 46.373345 27.718041 46.248047 27.835938 C 46.127967 27.953837 45.330376 28.75441 45.205078 28.826172 C 45.177961 28.841274 45.161514 28.836738 45.144531 28.833984 C 45.082209 29.191758 45.041903 29.59502 45.083984 29.767578 C 45.099144 29.834198 45.131458 29.867172 45.205078 29.826172 C 45.330376 29.75441 46.127967 28.953837 46.248047 28.835938 C 46.373345 28.718041 47.082463 28.087193 47.724609 27.113281 C 48.371975 26.144493 48.90074 25.463059 49.302734 25.109375 C 49.329027 25.085584 49.374685 25.051231 49.40625 25.023438 C 49.614427 24.609186 49.809019 24.234693 49.871094 24.130859 C 50.012574 23.895069 50.190282 23.77022 50.169922 23.570312 C 50.167312 23.545965 50.155087 23.532047 50.136719 23.527344 z M 38.769531 33.669922 C 38.744252 33.876786 38.703646 34.083752 38.615234 34.28125 C 38.357938 34.846296 37.770341 35.798696 37.578125 36.076172 C 37.371783 36.35365 36.592103 37.464061 36.400391 37.761719 C 36.208671 38.059377 35.696588 38.986997 35.611328 39.148438 C 35.520528 39.304837 35.577292 39.302734 35.451172 39.302734 C 35.398485 39.302734 35.378182 39.104659 35.369141 38.876953 C 35.369425 38.962826 35.365234 39.04426 35.365234 39.130859 C 35.365234 39.307435 35.330092 40.302734 35.451172 40.302734 C 35.577292 40.302734 35.520528 40.304837 35.611328 40.148438 C 35.696588 39.986997 36.208671 39.059377 36.400391 38.761719 C 36.592103 38.464061 37.371783 37.35365 37.578125 37.076172 C 37.770341 36.798696 38.357938 35.846296 38.615234 35.28125 C 38.762034 34.953322 38.800781 34.602828 38.800781 34.259766 C 38.800781 34.057883 38.784037 33.863133 38.769531 33.669922 z M 25.03125 33.681641 C 25.017137 33.871358 25 34.061882 25 34.259766 C 25 34.602828 25.038731 34.953322 25.185547 35.28125 C 25.442845 35.846296 26.030436 36.798696 26.222656 37.076172 C 26.428998 37.35365 27.208691 38.464061 27.400391 38.761719 C 27.592103 39.059377 28.10224 39.986998 28.1875 40.148438 C 28.2783 40.304836 28.223469 40.302734 28.349609 40.302734 C 28.470689 40.302734 28.433594 39.307439 28.433594 39.130859 C 28.433594 39.051585 28.429435 38.977101 28.429688 38.898438 C 28.420023 39.115603 28.400494 39.302734 28.349609 39.302734 C 28.223469 39.302734 28.2783 39.304835 28.1875 39.148438 C 28.10224 38.986998 27.592103 38.059377 27.400391 37.761719 C 27.208691 37.464061 26.428998 36.35365 26.222656 36.076172 C 26.030436 35.798696 25.442845 34.846296 25.185547 34.28125 C 25.098801 34.087495 25.056949 33.884517 25.03125 33.681641 z M 17.962891 36.277344 C 17.810715 36.298365 17.647825 36.413498 17.90625 36.621094 C 18.110353 36.785302 19.140626 37.459085 20.103516 38.085938 C 20.779711 38.328256 21.677963 38.637128 21.925781 38.693359 C 22.270875 38.770247 22.224075 38.764576 22.171875 38.416016 C 22.154046 38.304423 22.03046 37.994689 21.900391 37.685547 C 21.535825 37.598593 19.784805 36.994002 19.427734 36.841797 C 19.115015 36.703397 18.435049 36.435759 18.095703 36.287109 C 18.063073 36.273014 18.013616 36.270337 17.962891 36.277344 z M 46.037109 36.277344 C 45.986383 36.270337 45.936927 36.273014 45.904297 36.287109 C 45.564953 36.435769 44.884984 36.703399 44.572266 36.841797 C 44.215194 36.994008 42.464175 37.598586 42.099609 37.685547 C 41.96954 37.994689 41.845951 38.304423 41.828125 38.416016 C 41.775919 38.764588 41.729131 38.770239 42.074219 38.693359 C 42.322037 38.637123 43.220289 38.328255 43.896484 38.085938 C 44.859374 37.459085 45.889646 36.785303 46.09375 36.621094 C 46.352175 36.413497 46.189288 36.298364 46.037109 36.277344 z M 26.472656 48.652344 C 26.461434 48.93851 26.44257 49.234703 26.410156 49.548828 C 26.154342 51.086586 25.572457 51.889419 25.546875 51.935547 C 25.515555 51.981687 25.456756 51.989724 25.347656 51.958984 C 25.086618 51.892344 24.538421 51.60374 24.314453 51.496094 C 24.032013 51.357694 23.463074 50.998056 23.384766 51.039062 C 23.301766 51.080062 23.144945 51.179282 23.462891 51.558594 C 23.690427 51.821209 24.031304 52.185098 24.326172 52.501953 C 24.554951 52.612456 25.089677 52.893125 25.347656 52.958984 C 25.456756 52.989724 25.515555 52.981687 25.546875 52.935547 C 25.572457 52.889419 26.154342 52.086586 26.410156 50.548828 C 26.482451 49.848213 26.498922 49.221828 26.472656 48.652344 z M 37.527344 48.652344 C 37.501078 49.221828 37.517548 49.848212 37.589844 50.548828 C 37.845658 52.086584 38.429498 52.889407 38.455078 52.935547 C 38.486398 52.981687 38.543224 52.989744 38.652344 52.958984 C 38.910319 52.893129 39.445049 52.612451 39.673828 52.501953 C 39.968696 52.185097 40.309573 51.82121 40.537109 51.558594 C 40.855051 51.17928 40.698234 51.080071 40.615234 51.039062 C 40.536914 50.998063 39.967987 51.357694 39.685547 51.496094 C 39.461579 51.603734 38.913378 51.892348 38.652344 51.958984 C 38.543224 51.989744 38.486398 51.981687 38.455078 51.935547 C 38.429498 51.889407 37.845658 51.086584 37.589844 49.548828 C 37.55743 49.234703 37.538566 48.93851 37.527344 48.652344 z M 29.503906 51.369141 C 29.497106 51.374821 29.498047 51.395187 29.498047 51.435547 C 29.498047 51.511217 29.452476 51.802755 29.472656 51.984375 C 29.493356 52.171041 29.519702 52.583356 29.544922 52.785156 C 29.547405 52.805751 29.545274 52.856871 29.546875 52.882812 C 29.546742 52.858343 29.553403 52.81701 29.552734 52.794922 C 29.547734 52.663762 29.552734 52.510727 29.552734 52.359375 C 29.557334 52.127303 29.559522 51.906242 29.544922 51.785156 C 29.531821 51.680328 29.520269 51.526543 29.507812 51.369141 C 29.507173 51.369449 29.504452 51.368688 29.503906 51.369141 z M 34.451172 51.369141 C 34.438005 51.526574 34.425213 51.680306 34.412109 51.785156 C 34.397509 51.906236 34.399697 52.127303 34.404297 52.359375 C 34.404297 52.510735 34.409297 52.66375 34.404297 52.794922 C 34.403634 52.81701 34.410285 52.858343 34.410156 52.882812 C 34.411758 52.856872 34.409626 52.80575 34.412109 52.785156 C 34.437329 52.583354 34.465648 52.171035 34.486328 51.984375 C 34.506508 51.802753 34.458984 51.511227 34.458984 51.435547 C 34.458984 51.395187 34.460125 51.374941 34.453125 51.369141 C 34.452854 51.368922 34.451466 51.369324 34.451172 51.369141 z M 34.539062 54.808594 C 34.392799 55.017593 34.206629 55.25662 34.117188 55.353516 C 33.991067 55.484676 33.75207 55.771634 33.490234 55.554688 C 33.459907 55.529025 33.452797 55.485074 33.433594 55.451172 C 33.357439 55.969634 33.285445 56.381404 33.490234 56.554688 C 33.75207 56.771634 33.991067 56.484676 34.117188 56.353516 C 34.23827 56.222344 34.579587 55.799456 34.685547 55.597656 C 34.746587 55.481614 34.802734 55.448413 34.802734 55.382812 C 34.802734 55.322272 34.720703 55.244141 34.720703 55.244141 C 34.642042 55.105081 34.5848 54.957186 34.539062 54.808594 z M 29.417969 54.810547 C 29.372294 54.958515 29.314662 55.10566 29.236328 55.244141 C 29.236328 55.244141 29.154297 55.322272 29.154297 55.382812 C 29.154297 55.448394 29.210444 55.481616 29.271484 55.597656 C 29.377436 55.799458 29.718764 56.222356 29.839844 56.353516 C 29.96597 56.484676 30.204959 56.771623 30.466797 56.554688 C 30.671587 56.381404 30.599593 55.969635 30.523438 55.451172 C 30.504235 55.485074 30.497125 55.529025 30.466797 55.554688 C 30.204959 55.771623 29.96597 55.484676 29.839844 55.353516 C 29.750673 55.256922 29.564171 55.019205 29.417969 54.810547 z"/>
 <path style="opacity:0.1;fill:#ffffff" d="M 20.75 5 C 22.294804 5 22.877823 7.3263119 23.060547 7.9824219 C 23.170347 8.3747259 23.45324 9.4278584 23.507812 11.189453 C 23.553824 8.8182243 23.189593 7.4434926 23.060547 6.9824219 C 22.957357 6.6118979 22.719403 5.7162756 22.259766 5 L 20.75 5 z M 41.740234 5 C 41.280598 5.7162756 41.04264 6.6118979 40.939453 6.9824219 C 40.8104 7.4434926 40.446176 8.8182253 40.492188 11.189453 C 40.546759 9.4278579 40.829647 8.3747259 40.939453 7.9824219 C 41.122173 7.3263119 41.705194 5 43.25 5 L 41.740234 5 z M 14.525391 10.513672 C 14.504676 11.929928 14.571289 13.906885 15 16.142578 C 15.747083 20.027978 16.655406 22.489082 17.505859 23.955078 C 18.352135 25.426198 18.434465 25.724006 18.617188 26.333984 C 18.799391 26.949086 18.736747 28.177601 18.835938 28.695312 C 18.844811 28.739171 18.847444 28.787912 18.855469 28.833984 C 18.884597 28.829261 18.906452 28.80966 18.916016 28.767578 C 18.963528 28.572796 18.913718 28.079751 18.835938 27.695312 C 18.736747 27.177601 18.799391 25.949086 18.617188 25.333984 C 18.434463 24.724006 18.352135 24.426198 17.505859 22.955078 C 16.655406 21.489082 15.747083 19.027978 15 15.142578 C 14.668829 13.41555 14.553629 11.814094 14.525391 10.513672 z M 49.474609 10.513672 C 49.446371 11.814094 49.331171 13.41555 49 15.142578 C 48.252916 19.027978 47.344593 21.489084 46.494141 22.955078 C 45.647865 24.4262 45.565533 24.724008 45.382812 25.333984 C 45.200623 25.949088 45.263264 27.177602 45.164062 27.695312 C 45.086262 28.079752 45.036484 28.572798 45.083984 28.767578 C 45.09356 28.80966 45.115407 28.829262 45.144531 28.833984 C 45.152557 28.787911 45.155188 28.739172 45.164062 28.695312 C 45.263264 28.177602 45.200623 26.949088 45.382812 26.333984 C 45.565534 25.724008 45.647865 25.4262 46.494141 23.955078 C 47.344593 22.489084 48.252916 20.027978 49 16.142578 C 49.428711 13.906885 49.495324 11.929928 49.474609 10.513672 z M 20.802734 16.503906 C 20.742694 17.440427 20.85651 18.283483 20.976562 18.957031 C 21.076125 18.961817 21.138672 18.942164 21.138672 18.869141 C 21.138672 18.797767 20.874233 17.699107 20.802734 16.503906 z M 43.197266 16.503906 C 43.125768 17.699107 42.861328 18.797765 42.861328 18.869141 C 42.861328 18.942171 42.923874 18.96182 43.023438 18.957031 C 43.14349 18.283483 43.25731 17.440427 43.197266 16.503906 z M 13.863281 24.527344 C 13.844912 24.532047 13.832689 24.545965 13.830078 24.570312 C 13.809718 24.770232 13.987424 24.895069 14.128906 25.130859 C 14.269866 25.366649 14.978983 26.734102 15.386719 27.728516 C 15.788192 28.717808 17.117202 31.414901 17.441406 31.912109 C 17.764569 32.404191 18.61612 33.300196 19.341797 33.992188 C 20.066954 34.684176 21.139392 36.169524 21.384766 36.589844 C 21.522703 36.827803 21.725757 37.270486 21.900391 37.685547 C 21.904148 37.686443 21.922325 37.692575 21.925781 37.693359 C 22.270875 37.770247 22.224075 37.764576 22.171875 37.416016 C 22.130109 37.154596 21.62544 36.005038 21.384766 35.589844 C 21.139392 35.169524 20.066954 33.684176 19.341797 32.992188 C 18.61612 32.300196 17.764569 31.404191 17.441406 30.912109 C 17.117202 30.414901 15.788192 27.717808 15.386719 26.728516 C 15.158537 26.172012 14.858305 25.549876 14.59375 25.023438 C 14.345624 24.804958 13.977353 24.498139 13.863281 24.527344 z M 50.136719 24.527344 C 50.022651 24.498139 49.654377 24.804958 49.40625 25.023438 C 49.141695 25.549876 48.841463 26.172011 48.613281 26.728516 C 48.211807 27.717806 46.8828 30.414899 46.558594 30.912109 C 46.235434 31.404191 45.383879 32.300198 44.658203 32.992188 C 43.933047 33.684179 42.860608 35.169522 42.615234 35.589844 C 42.37456 36.005036 41.869885 37.154598 41.828125 37.416016 C 41.775919 37.764588 41.729131 37.770239 42.074219 37.693359 C 42.077675 37.692575 42.095852 37.686443 42.099609 37.685547 C 42.274244 37.270486 42.477297 36.827802 42.615234 36.589844 C 42.860608 36.169522 43.933047 34.684179 44.658203 33.992188 C 45.383879 33.300198 46.235434 32.404191 46.558594 31.912109 C 46.8828 31.414899 48.211807 28.717806 48.613281 27.728516 C 49.021017 26.7341 49.730134 25.366647 49.871094 25.130859 C 50.012574 24.895069 50.190282 24.77022 50.169922 24.570312 C 50.167312 24.545965 50.155087 24.532047 50.136719 24.527344 z M 25.376953 30.837891 C 25.326997 30.817731 25.172109 30.847506 25.162109 31.003906 C 25.126789 31.548772 25.081876 31.974012 25.041016 32.478516 C 25.020836 32.725724 25 32.992378 25 33.259766 C 25 33.40013 25.013454 33.541152 25.03125 33.681641 C 25.036207 33.615004 25.03577 33.542775 25.041016 33.478516 C 25.081876 32.974012 25.126789 32.548772 25.162109 32.003906 C 25.172109 31.847506 25.326997 31.817731 25.376953 31.837891 C 25.443053 31.858071 25.480332 32.092473 25.576172 32.314453 C 25.697252 32.602021 26.243188 33.260764 26.455078 33.472656 C 26.591298 33.603816 26.70088 33.76271 26.816406 33.914062 C 27.11457 34.287396 27.415881 34.660358 27.693359 35.048828 C 27.870439 35.285944 28.001798 35.559275 28.097656 35.841797 C 28.449609 36.850729 28.433053 37.850721 28.429688 38.898438 C 28.44302 38.598855 28.433594 38.233231 28.433594 38.130859 C 28.433594 36.995723 28.476034 35.926481 28.097656 34.841797 C 28.001798 34.559275 27.870439 34.285944 27.693359 34.048828 C 27.415881 33.660358 27.11457 33.287396 26.816406 32.914062 C 26.70088 32.762712 26.591298 32.603816 26.455078 32.472656 C 26.243188 32.260764 25.697252 31.602021 25.576172 31.314453 C 25.480332 31.092473 25.443053 30.858071 25.376953 30.837891 z M 38.423828 30.837891 C 38.357728 30.858071 38.322423 31.092473 38.226562 31.314453 C 38.10548 31.602021 37.55955 32.260764 37.347656 32.472656 C 37.211442 32.603826 37.099895 32.762704 36.984375 32.914062 C 36.686213 33.287396 36.384898 33.660358 36.107422 34.048828 C 35.93034 34.285944 35.798985 34.559275 35.703125 34.841797 C 35.324737 35.926481 35.365234 36.995723 35.365234 38.130859 C 35.365234 38.230599 35.357404 38.581371 35.369141 38.876953 C 35.365699 37.837215 35.353604 36.843731 35.703125 35.841797 C 35.798985 35.559275 35.93034 35.285944 36.107422 35.048828 C 36.384898 34.660358 36.686213 34.287396 36.984375 33.914062 C 37.099895 33.762704 37.211442 33.603826 37.347656 33.472656 C 37.55955 33.260764 38.10548 32.602021 38.226562 32.314453 C 38.322423 32.092473 38.357728 31.858071 38.423828 31.837891 C 38.473768 31.817711 38.62858 31.847506 38.638672 32.003906 C 38.673992 32.548772 38.718906 32.974012 38.759766 33.478516 C 38.764709 33.539077 38.764824 33.607231 38.769531 33.669922 C 38.786226 33.533306 38.800781 33.396215 38.800781 33.259766 C 38.800781 32.992378 38.779946 32.725724 38.759766 32.478516 C 38.718906 31.974012 38.673992 31.548772 38.638672 31.003906 C 38.62858 30.847506 38.473768 30.817711 38.423828 30.837891 z M 17.962891 37.277344 C 17.810715 37.298365 17.647825 37.413498 17.90625 37.621094 C 18.250295 37.89789 21.302103 39.86161 21.568359 40.041016 C 21.829395 40.220416 23.42485 41.568208 23.763672 42.003906 C 24.10876 42.439604 24.799863 43.454881 25.462891 44.818359 C 25.960163 45.83981 26.396497 47.0011 26.472656 48.652344 C 26.55904 46.449602 26.05477 45.034143 25.462891 43.818359 C 24.799863 42.454881 24.10876 41.439604 23.763672 41.003906 C 23.42485 40.568208 21.829395 39.220416 21.568359 39.041016 C 21.460059 38.968042 20.763711 38.515732 20.103516 38.085938 C 19.855204 37.996954 19.524628 37.883099 19.427734 37.841797 C 19.115015 37.703397 18.435049 37.435759 18.095703 37.287109 C 18.063073 37.273014 18.013616 37.270337 17.962891 37.277344 z M 46.037109 37.277344 C 45.986383 37.270337 45.936927 37.273014 45.904297 37.287109 C 45.564953 37.435769 44.884984 37.703399 44.572266 37.841797 C 44.475372 37.8831 44.144796 37.996954 43.896484 38.085938 C 43.236289 38.515732 42.53994 38.968044 42.431641 39.041016 C 42.170605 39.220422 40.575154 40.568208 40.236328 41.003906 C 39.89124 41.439604 39.200137 42.454881 38.537109 43.818359 C 37.94523 45.034143 37.440959 46.449601 37.527344 48.652344 C 37.603503 47.001099 38.039837 45.83981 38.537109 44.818359 C 39.200137 43.454881 39.89124 42.439604 40.236328 42.003906 C 40.575154 41.568208 42.170605 40.220422 42.431641 40.041016 C 42.697895 39.861616 45.749704 37.897892 46.09375 37.621094 C 46.352175 37.413497 46.189288 37.298364 46.037109 37.277344 z M 29.503906 50.369141 C 29.497106 50.374821 29.498047 50.395187 29.498047 50.435547 C 29.498047 50.511217 29.452476 50.802755 29.472656 50.984375 C 29.482603 51.074075 29.49629 51.223534 29.507812 51.369141 C 29.515375 51.365491 29.527158 51.369979 29.552734 51.376953 C 29.602694 51.397133 29.650561 51.590017 29.675781 51.675781 C 29.701001 51.766581 29.83918 52.242041 29.875 52.398438 C 29.93504 52.660778 30.106929 53.452179 30.167969 53.724609 C 30.243649 54.092899 30.457277 54.944667 30.466797 55.025391 C 30.483509 55.194728 30.502035 55.305467 30.523438 55.451172 C 30.670343 55.191811 30.53417 54.708049 30.466797 54.025391 C 30.457277 53.944667 30.243649 53.092899 30.167969 52.724609 C 30.106929 52.452179 29.93504 51.660779 29.875 51.398438 C 29.83918 51.242041 29.701001 50.766581 29.675781 50.675781 C 29.650561 50.590017 29.602694 50.397133 29.552734 50.376953 C 29.524994 50.369389 29.510906 50.363341 29.503906 50.369141 z M 34.453125 50.369141 C 34.446185 50.363541 34.432037 50.369353 34.404297 50.376953 C 34.354337 50.397133 34.308423 50.590021 34.283203 50.675781 C 34.257981 50.766591 34.115898 51.242037 34.080078 51.398438 C 34.020042 51.660778 33.850102 52.452177 33.789062 52.724609 C 33.713386 53.092897 33.499834 53.944671 33.490234 54.025391 C 33.422861 54.708047 33.286689 55.191811 33.433594 55.451172 C 33.454996 55.305468 33.473522 55.194727 33.490234 55.025391 C 33.499834 54.944671 33.713386 54.092897 33.789062 53.724609 C 33.850102 53.452177 34.020042 52.660778 34.080078 52.398438 C 34.115898 52.242038 34.257981 51.766591 34.283203 51.675781 C 34.308423 51.590021 34.354337 51.397133 34.404297 51.376953 C 34.430955 51.36965 34.443925 51.364628 34.451172 51.369141 C 34.463347 51.223567 34.476393 51.074052 34.486328 50.984375 C 34.506508 50.802753 34.458984 50.511227 34.458984 50.435547 C 34.458984 50.395187 34.460125 50.374941 34.453125 50.369141 z M 23.384766 52.039062 C 23.301766 52.080062 23.144945 52.179282 23.462891 52.558594 C 23.787095 52.93278 24.530997 53.728066 24.693359 53.902344 C 24.855199 54.081744 24.961607 54.182887 24.898438 54.300781 C 24.841538 54.418681 24.839529 54.59891 24.980469 54.757812 C 25.121429 54.916714 25.78486 55.671176 25.910156 55.830078 C 26.030236 55.988978 26.494556 56.617488 26.59375 56.878906 C 26.69347 57.135198 26.798078 57.355044 26.839844 57.652344 C 26.875864 57.949644 26.974323 58.544497 27.099609 58.841797 C 27.219689 59.139097 27.445317 59.478071 27.664062 59.693359 C 27.716793 59.74501 27.882351 59.878376 28.023438 60 L 29.199219 60 C 29.199219 60 27.889076 58.913765 27.664062 58.693359 C 27.445317 58.478071 27.219689 58.139097 27.099609 57.841797 C 26.974323 57.544497 26.875864 56.949644 26.839844 56.652344 C 26.798078 56.355044 26.69347 56.135198 26.59375 55.878906 C 26.494556 55.617488 26.030236 54.988978 25.910156 54.830078 C 25.78486 54.671176 25.121429 53.916714 24.980469 53.757812 C 24.839529 53.59891 24.841538 53.418681 24.898438 53.300781 C 24.961607 53.182887 24.855199 53.081744 24.693359 52.902344 C 24.644948 52.850379 24.451445 52.636568 24.326172 52.501953 C 24.323459 52.500643 24.317078 52.497355 24.314453 52.496094 C 24.032013 52.357694 23.463074 51.998056 23.384766 52.039062 z M 40.615234 52.039062 C 40.536914 51.998064 39.967987 52.357694 39.685547 52.496094 C 39.682922 52.497355 39.676541 52.500643 39.673828 52.501953 C 39.548555 52.636568 39.355051 52.850379 39.306641 52.902344 C 39.144803 53.081748 39.038402 53.182881 39.101562 53.300781 C 39.158482 53.418675 39.160491 53.598912 39.019531 53.757812 C 38.878573 53.916717 38.215144 54.671178 38.089844 54.830078 C 37.969768 54.988978 37.50545 55.617486 37.40625 55.878906 C 37.306536 56.135198 37.201916 56.355046 37.160156 56.652344 C 37.124132 56.949644 37.025691 57.544497 36.900391 57.841797 C 36.780315 58.139097 36.554685 58.478073 36.335938 58.693359 C 36.110926 58.913771 34.800781 60 34.800781 60 L 35.976562 60 C 36.117649 59.878375 36.283208 59.745011 36.335938 59.693359 C 36.554685 59.478073 36.780315 59.139097 36.900391 58.841797 C 37.025691 58.544497 37.124132 57.949644 37.160156 57.652344 C 37.201916 57.355046 37.306536 57.135198 37.40625 56.878906 C 37.50545 56.617486 37.969768 55.988978 38.089844 55.830078 C 38.215144 55.671178 38.878573 54.916717 39.019531 54.757812 C 39.160491 54.598912 39.158482 54.418675 39.101562 54.300781 C 39.038402 54.182881 39.144803 54.081748 39.306641 53.902344 C 39.469001 53.728064 40.212905 52.932782 40.537109 52.558594 C 40.855051 52.17928 40.698234 52.080071 40.615234 52.039062 z M 29.546875 52.882812 C 29.548744 53.227207 29.500116 53.777813 29.236328 54.244141 C 29.236328 54.244141 29.154297 54.322272 29.154297 54.382812 C 29.154297 54.448394 29.210444 54.481616 29.271484 54.597656 C 29.299407 54.650839 29.36565 54.735879 29.417969 54.810547 C 29.537029 54.424833 29.56002 54.035576 29.552734 53.794922 C 29.547734 53.663762 29.552734 53.510727 29.552734 53.359375 C 29.556552 53.166774 29.554688 53.009393 29.546875 52.882812 z M 34.410156 52.882812 C 34.402343 53.009391 34.400479 53.166774 34.404297 53.359375 C 34.404297 53.510735 34.409297 53.66375 34.404297 53.794922 C 34.397081 54.035188 34.420527 54.42349 34.539062 54.808594 C 34.590803 54.73466 34.657858 54.650389 34.685547 54.597656 C 34.746587 54.481614 34.802734 54.448414 34.802734 54.382812 C 34.802734 54.322272 34.720703 54.244141 34.720703 54.244141 C 34.456919 53.777813 34.408343 53.227205 34.410156 52.882812 z"/>
</svg>
