<svg xmlns="http://www.w3.org/2000/svg" width="64" height="64" version="1.1">
 <rect style="opacity:0.2" width="56" height="56" x="4" y="5" rx="2.8" ry="2.8"/>
 <rect style="fill:#f79042" width="56" height="56" x="4" y="4" rx="2.8" ry="2.8"/>
 <path style="opacity:0.2" d="m 36.054688,11.031492 c -0.08504,0.0968 -0.05874,0.826994 0.0118,1.550781 0.0162,-0.514992 0.0184,-1.031916 0.04296,-1.546875 -0.0194,-0.02067 -0.04054,-0.01998 -0.05468,-0.0039 z m 0.0118,1.550781 c -0.15684,4.983213 0.03956,9.566363 0.285156,14.542969 0.214606,9.00733 -0.11216,13.802732 0.11328,22.808594 1.452184,0.07022 3.353546,-0.13908 4.28125,0.285156 0.430514,-0.14084 0.626036,3.35339 1.238282,1.433594 -0.09822,-0.937894 -0.34863,-1.464744 -0.789064,-1.26172 2.2009,-1.860446 0.502728,4.347602 1.210938,3.539064 0.232796,-2.3952 -0.27661,-4.840364 0.230468,-7.207032 0.77961,1.718686 0.838016,3.69014 0.82422,5.589844 0.1358,-0.658812 0.281618,-1.358676 0.273438,-1.585938 0.28262,-1.070884 2.61336,-0.938062 2.593748,0.257814 0.20654,-1.52148 -0.775902,-0.44864 0.652344,-0.933594 0.84611,-0.362202 2.51136,-0.455574 2.617188,0.316406 0.27479,-0.668604 0.276298,1.45502 0.570312,-0.1211 1.188136,-0.24953 2.445802,-0.91452 1.88672,-2.59375 -0.251232,-1.963438 0.347346,-4.30018 -2.191406,-3.625 -2.276248,0.04964 -3.979266,-0.20232 -6.234376,0.07812 -1.254812,1.29291 -0.924346,-0.08834 -1.382812,-0.5625 -2.001242,0.91548 -0.772782,-2.538676 -0.34375,-3.359374 -0.18218,-9.306302 -0.02454,-13.601418 -0.07422,-22.914063 0.238042,-1.094615 -0.759108,-1.208372 -1.031328,-2.06249 -0.330156,1.626463 -3.70592,1.149649 -2.98047,-0.804687 -0.81696,0.03858 -0.90804,-2.976012 -1.128906,-0.527344 -0.287502,0.874389 -0.51608,-0.212199 -0.621094,-1.292969 z m 4.73047,2.625 c 0.045,-0.221666 0.03954,-0.479673 -0.04688,-0.78125 -0.05196,0.328333 -0.02014,0.571029 0.04688,0.78125 z m 2.66398,37.105469 c -0.204074,0.990008 -0.387554,1.879768 -0.004,0.851562 0.0032,-0.27877 0.0018,-0.56816 0.004,-0.851562 z m -29.683594,-38.3125 c -2.721254,0.08202 -1.860208,3.200474 -1.832032,5.027344 0.04593,3.614926 0.07538,7.235914 -0.08594,10.84375 -0.221278,2.89393 0.24274,5.822832 -0.04687,8.730468 0.0598,2.132758 -0.09423,3.69371 0.07422,5.671876 0.02838,1.326158 0.164278,3.068818 -0.08594,4.167968 0.07946,-0.904828 -0.557314,-4.081352 -0.324218,-1.882812 -0.251556,1.346644 0.10835,3.275466 1.132812,3.789062 0.130232,0.921246 0.322604,1.741946 0.648438,0.910156 1.145387,0.693482 1.025202,-2.319896 1.699218,-0.375 0.470235,-0.588082 2.111768,-1.165616 2.04297,0.265626 1.269589,-1.74487 4.110146,-0.936556 6.105468,-1.054688 0.700838,0.2397 3.75167,-1.710348 4.902344,-3.015626 2.818426,-3.493242 2.127716,-8.005752 2.101562,-12.074218 -0.02198,-5.051296 0.419586,-10.155874 -0.48047,-15.164062 -1.164582,-4.206473 -6.402974,-6.208825 -10.769531,-5.683594 -1.503267,0.03765 -2.993847,-0.05263 -4.492187,-0.132812 -0.214602,-0.02279 -0.408427,-0.0289 -0.589844,-0.02344 z m 5.515625,4.738282 c 0.141816,0.006 0.297492,0.02154 0.460937,0.05468 3.094724,-0.13898 5.680586,2.844588 4.757812,5.582032 -0.14538,0.945682 0.1706,2.80004 -0.359374,1.835938 -0.209194,-0.660472 0.58375,-2.212574 -0.265626,-2.54297 -0.1842,2.531224 -0.10918,5.094206 0.38672,7.597656 0.11544,1.724608 -0.586746,2.991254 -0.578126,4.816408 -0.327426,2.032744 0.601172,3.79389 0.02734,5.58203 -0.377382,1.492752 -0.17962,-1.88599 -0.308594,-2.476562 -0.449112,-2.137228 -0.790724,1.384078 -0.07422,2.097656 0.25124,0.914622 -0.609324,0.06038 -0.4375,1.234376 0.04342,0.752582 -0.223966,2.681998 -0.363282,1.007812 -0.400248,0.35566 -0.803086,0.879006 -0.839844,1.066406 -1.47175,0.576892 -3.353454,1.013204 -4.066406,-0.476562 -0.552532,-2.073484 -0.04838,-4.13644 -0.230468,-6.210938 0.671844,-0.08292 0.152278,-2.472626 0.0078,-1.148438 -0.167076,-1.645828 0.618997,-2.787796 0.730469,-3.86328 -0.328062,-0.411724 -0.659204,-2.8038 -0.285157,-3.597656 -0.02087,-1.17411 0.544387,-3.063586 -0.121094,-3.3125 0.386741,-1.265558 -0.407972,-2.913414 0.03906,-3.82422 0.139508,1.292624 0.284207,1.365012 0.355469,-0.0586 -0.71583,-0.652196 -0.96314,-3.452574 1.164063,-3.36328 z"/>
 <path style="fill:#ffffff" d="m 36.054688,10.031492 c -0.08504,0.0968 -0.05874,0.826994 0.0118,1.550781 0.0162,-0.514992 0.0184,-1.031916 0.04296,-1.546875 -0.0194,-0.02067 -0.04054,-0.01998 -0.05468,-0.0039 z m 0.0118,1.550781 c -0.15684,4.983213 0.03956,9.566363 0.285156,14.542969 0.214606,9.00733 -0.11216,13.802732 0.11328,22.808594 1.452184,0.07022 3.353546,-0.13908 4.28125,0.285156 0.430514,-0.14084 0.626036,3.35339 1.238282,1.433594 -0.09822,-0.937894 -0.34863,-1.464744 -0.789064,-1.26172 2.2009,-1.860446 0.502728,4.347602 1.210938,3.539064 0.232796,-2.3952 -0.27661,-4.840364 0.230468,-7.207032 0.77961,1.718686 0.838016,3.69014 0.82422,5.589844 0.1358,-0.658812 0.281618,-1.358676 0.273438,-1.585938 0.28262,-1.070884 2.61336,-0.938062 2.593748,0.257814 0.20654,-1.52148 -0.775902,-0.44864 0.652344,-0.933594 0.84611,-0.362202 2.51136,-0.455574 2.617188,0.316406 0.27479,-0.668604 0.276298,1.45502 0.570312,-0.1211 1.188136,-0.24953 2.445802,-0.91452 1.88672,-2.59375 -0.251232,-1.963438 0.347346,-4.30018 -2.191406,-3.625 -2.276248,0.04964 -3.979266,-0.20232 -6.234376,0.07812 -1.254812,1.29291 -0.924346,-0.08834 -1.382812,-0.5625 -2.001242,0.91548 -0.772782,-2.538676 -0.34375,-3.359374 -0.18218,-9.306302 -0.02454,-13.601418 -0.07422,-22.914063 0.238042,-1.094615 -0.759108,-1.208372 -1.031328,-2.06249 -0.330156,1.626463 -3.70592,1.149649 -2.98047,-0.804687 -0.81696,0.03858 -0.90804,-2.976012 -1.128906,-0.527344 -0.287502,0.874389 -0.51608,-0.212199 -0.621094,-1.292969 z m 4.73047,2.625 c 0.045,-0.221666 0.03954,-0.479673 -0.04688,-0.78125 -0.05196,0.328333 -0.02014,0.571029 0.04688,0.78125 z m 2.66398,37.105469 c -0.204074,0.990008 -0.387554,1.879768 -0.004,0.851562 0.0032,-0.27877 0.0018,-0.56816 0.004,-0.851562 z m -29.683594,-38.3125 c -2.721254,0.08202 -1.860208,3.200474 -1.832032,5.027344 0.04593,3.614926 0.07538,7.235914 -0.08594,10.84375 -0.221278,2.89393 0.24274,5.822832 -0.04687,8.730468 0.0598,2.132758 -0.09423,3.69371 0.07422,5.671876 0.02838,1.326158 0.164278,3.068818 -0.08594,4.167968 0.07946,-0.904828 -0.557314,-4.081352 -0.324218,-1.882812 -0.251556,1.346644 0.10835,3.275466 1.132812,3.789062 0.130232,0.921246 0.322604,1.741946 0.648438,0.910156 1.145387,0.693482 1.025202,-2.319896 1.699218,-0.375 0.470235,-0.588082 2.111768,-1.165616 2.04297,0.265626 1.269589,-1.74487 4.110146,-0.936556 6.105468,-1.054688 0.700838,0.2397 3.75167,-1.710348 4.902344,-3.015626 2.818426,-3.493242 2.127716,-8.005752 2.101562,-12.074218 -0.02198,-5.051296 0.419586,-10.155874 -0.48047,-15.164062 -1.164582,-4.206473 -6.402974,-6.208825 -10.769531,-5.683594 -1.503267,0.03765 -2.993847,-0.05263 -4.492187,-0.132812 -0.214602,-0.02279 -0.408427,-0.0289 -0.589844,-0.02344 z m 5.515625,4.738281 c 0.141816,0.0059 0.297492,0.02154 0.460937,0.05469 3.094724,-0.138974 5.680586,2.844587 4.757812,5.582031 -0.14538,0.945682 0.1706,2.80004 -0.359374,1.835938 -0.209194,-0.660472 0.58375,-2.212574 -0.265626,-2.54297 -0.1842,2.531224 -0.10918,5.094206 0.38672,7.597656 0.11544,1.724608 -0.586746,2.991254 -0.578126,4.816408 -0.327426,2.032744 0.601172,3.79389 0.02734,5.58203 -0.377382,1.492752 -0.17962,-1.88599 -0.308594,-2.476562 -0.449112,-2.137228 -0.790724,1.384078 -0.07422,2.097656 0.25124,0.914622 -0.609324,0.06038 -0.4375,1.234376 0.04342,0.752582 -0.223966,2.681998 -0.363282,1.007812 -0.400248,0.35566 -0.803086,0.879006 -0.839844,1.066406 -1.47175,0.576892 -3.353454,1.013204 -4.066406,-0.476562 -0.552532,-2.073484 -0.04838,-4.13644 -0.230468,-6.210938 0.671844,-0.08292 0.152278,-2.472626 0.0078,-1.148438 -0.167076,-1.645828 0.618997,-2.787796 0.730469,-3.86328 -0.328062,-0.411724 -0.659204,-2.8038 -0.285157,-3.597656 -0.02087,-1.17411 0.544387,-3.063586 -0.121094,-3.3125 0.386741,-1.265558 -0.407972,-2.913414 0.03906,-3.82422 0.139508,1.292624 0.284207,1.365012 0.355469,-0.0586 -0.715831,-0.65219 -0.96314,-3.452568 1.164062,-3.363275 z"/>
 <path style="fill:#ffffff" d="m 23.201254,49.033444 c -0.03262,0.34599 0.14204,0.02838 0,0 z"/>
 <path style="opacity:0.2;fill:#ffffff" d="M 6.8007812 4 C 5.2495812 4 4 5.2495812 4 6.8007812 L 4 7.8007812 C 4 6.2495813 5.2495812 5 6.8007812 5 L 57.199219 5 C 58.750419 5 60 6.2495812 60 7.8007812 L 60 6.8007812 C 60 5.2495813 58.750419 4 57.199219 4 L 6.8007812 4 z"/>
</svg>
