<svg width="64" height="64" version="1.1" xmlns="http://www.w3.org/2000/svg">
 <path d="m29.00301 19c-2.99612 0-5.69098 0.206222-8.199218 1.640624-2.397536 1.371094-3.968976 3.661524-5.24219 6.359376h-5.558592c-4.7450636 0.0114-5.5252916 6.808154-0.9062496 7.894532l2.4843736 0.578124-3.2812496 8.011718c-1.358752 3.321582 2.0054376 6.613824 5.2968756 5.183594l9.199218-4c0.681538-0.349912 1.248266-0.888168 1.632814-1.55078 0.233584 0.0942 0.475544 0.16614 0.722656 0.214844l5-1.5c0.1478-0.1138 0.287468-0.237802 0.417968-0.371094 0.404646 0.222394 0.844738 0.373056 1.300782 0.445312l4.5-1c0.344532-0.209856 0.655338-0.470618 0.921874-0.773438 0.294076 0.15538 0.606382 0.273478 0.929688 0.351562l4.101562-0.75c0.02216-0.0038 0.0443-0.0076 0.0664-0.0118 1.273904-0.254782 2.664386-1.000182 3.492188-1.910156s1.10537-1.648064 1.273438-1.972656l-0.14454 0.257812 1.847656-3c0.0656-0.224724 0.11136-0.454774 0.13672-0.6875 1.697464-0.49625 3.27134-1.21808 4.570312-2.234374 2.03279-1.590424 3.714564-3.523046 4.339844-6.296876 0.56291-2.500964-1.338798-4.878546-3.90233-4.878824z" style="opacity:.2"/>
 <path d="m29.000766 18c-2.99612 0-5.69098 0.206223-8.199218 1.640625-2.397535 1.371093-3.968975 3.661523-5.242189 6.359375h-5.558594a4.0004 4.0004 0 0 0-0.9062502 7.894532l2.4843752 0.578124-3.2812502 8.011718a4.0004 4.0004 0 0 0 5.2968752 5.183594l9.199219-4a4.0004 4.0004 0 0 0 1.632814-1.55078 4.0004 4.0004 0 0 0 0.722656 0.214844l5-1.5a4.0004 4.0004 0 0 0 0.417968-0.371094 4.0004 4.0004 0 0 0 1.300782 0.445312l4.5-1a4.0004 4.0004 0 0 0 0.921874-0.773438 4.0004 4.0004 0 0 0 0.929688 0.351562l4.101562-0.75a4.0004 4.0004 0 0 0 0.0664-0.0118c1.273904-0.254782 2.664386-1.000182 3.492188-1.910156s1.10537-1.648064 1.273438-1.972656l-0.14454 0.257812 1.847656-3a4.0004 4.0004 0 0 0 0.13672-0.6875c1.697464-0.49625 3.27134-1.21808 4.570312-2.234374 2.03279-1.590424 3.714564-3.523046 4.339844-6.296876a4.0004 4.0004 0 0 0-3.90233-4.878824z" style="fill:#e3536d"/>
 <path d="m29.000766 23c-5.522818 0-7.71464 0.972212-10 6h27c3.540124 0 7.38376-3.266274 8-6zm-19 8 16.332032 3.800782-2.332032 4.699218 5-1.5 3-7zm24 0-3 7 4.5-1 2.5-6zm6 0-2.5 5.550782 4.101562-0.75c1.288324-0.257666 1.56367-0.958092 2-1.800782l1.847656-3zm-23.472656 2.949218-4.527344 11.050782 9.199218-4 2.441406-4.890624z" style="opacity:.2"/>
 <path d="m29.000766 22c-5.522818 0-7.71464 0.972212-10.000001 6h27.000001c3.540124 0 7.38376-3.266274 8-6zm-19.000001 8 16.332033 3.800782-2.332032 4.699218 5-1.5 3-7zm24.000001 0-3 7 4.5-1 2.5-6zm6 0-2.5 5.550782 4.101562-0.75c1.288324-0.257666 1.56367-0.958092 2-1.800782l1.847656-3zm-23.472657 2.949218-4.527344 11.050782 9.199219-4 2.441406-4.890624z" style="fill:#2f2f2f"/>
 <path d="m29.003906 18c-2.996112 0-5.690988 0.206226-8.199218 1.640625-2.397532 1.371091-3.968976 3.661527-5.242188 6.359375h-5.558594c-2.8682628 0.0069-4.2801032 2.489936-3.9335936 4.695312a4.0004 4.0004 0 0 1 3.9296876-3.695312h5.558594c1.273212-2.69785 2.844655-4.988282 5.242188-6.359376 2.508234-1.434399 5.203098-1.640624 8.199218-1.640624h25a4.0004 4.0004 0 0 1 3.964844 3.535156c0.325016-2.370948-1.514978-4.534891-3.960938-4.535156zm-18.167968 18.296876-2.5351568 6.1875c-0.2960924 0.723822-0.3534676 1.441054-0.25 2.11328a4.0004 4.0004 0 0 1 0.2460938-1.11328l2.90625-7.101564z" style="fill:#ffffff;opacity:.2"/>
</svg>
