<svg xmlns="http://www.w3.org/2000/svg" width="64" height="64" version="1">
 <path style="opacity:0.2" d="m 4,56 0,2 c 0,1.662 1.338,3 3,3 l 50,0 c 1.662,0 3,-1.338 3,-3 l 0,-2 c 0,1.662 -1.338,3 -3,3 L 7,59 C 5.338,59 4,57.662 4,56 Z"/>
 <rect style="fill:#418357" width="56" height="56" x="4" y="4" rx="3" ry="3"/>
 <path style="opacity:0.1;fill:#ffffff" d="M 7 4 C 5.338 4 4 5.338 4 7 L 4 8 C 4 6.338 5.338 5 7 5 L 57 5 C 58.662 5 60 6.338 60 8 L 60 7 C 60 5.338 58.662 4 57 4 L 7 4 z"/>
 <path style="opacity:0.2" d="m 32.7,11 c -14,0 -20.524373,11.766708 -20.7,22 -0.17025,9.920008 6,21 18.6,21 9.8,0 12.6,-6 12.6,-6 l 1.8,6 h 7 V 30 H 33 v 9 h 7 c 0,0 0.4,5 -8,5 -7,0 -10,-5.679181 -10,-11 0,-5.320819 3.7,-13 10.7,-13 7,0 9.3,6 9.3,6 h 9.6 c 0,0 -2.1,-15 -18.9,-15 z"/>
 <path style="fill:#fac345" d="m 32.7,10 c -14,0 -20.524373,11.766708 -20.7,22 -0.17025,9.920008 6,21 18.6,21 9.8,0 12.6,-6 12.6,-6 l 1.8,6 h 7 V 29 H 33 v 9 h 7 c 0,0 0.4,5 -8,5 -7,0 -10,-5.679181 -10,-11 0,-5.320819 3.7,-13 10.7,-13 7,0 9.3,6 9.3,6 h 9.6 c 0,0 -2.1,-15 -18.9,-15 z"/>
</svg>
