<svg xmlns="http://www.w3.org/2000/svg" width="64" height="64" version="1.1">
 <circle style="opacity:0.2" cx="32" cy="33" r="28"/>
 <circle style="fill:#4f4f4f" cx="32" cy="32" r="28"/>
 <path style="opacity:0.2;fill:none;stroke:#000000;stroke-width:6;stroke-linejoin:round" d="m 13.05,42.45415 c 1.488169,-6.77022 1.991411,-15.586392 7.095142,-20.453686 2.205564,3.921162 0.220298,13.911318 2.879126,20 l 3.753166,-9 2.968422,5 5.286032,-4 4.354178,2 6.146908,-1 4.089164,1 3.84246,-0.669726"/>
 <path style="fill:none;stroke:#ffffff;stroke-width:6;stroke-linejoin:round" d="M 13.05,41.453686 C 14.538169,34.683466 15.041411,25.867294 20.145142,21 c 2.205564,3.921162 0.220298,13.911318 2.879126,20 l 3.753166,-9 2.968422,5 5.286032,-4 4.354178,2 6.146908,-1 4.089164,1 3.84246,-0.669726"/>
 <path style="opacity:0.15;fill:#ffffff" d="M 32,4 A 28,28 0 0 0 4.4457032,27.173828 28,28 0 0 1 22.2,20.8 a 28,28 0 0 1 28,28 28,28 0 0 1 -0.445702,4.826172 A 28,28 0 0 0 60,32 28,28 0 0 0 32,4 Z"/>
 <path style="opacity:0.1;fill:#ffffff" d="M 32 4 A 28 28 0 0 0 4 32 A 28 28 0 0 0 4.0175781 32.492188 A 28 28 0 0 1 32 5 A 28 28 0 0 1 59.974609 32.492188 A 28 28 0 0 0 60 32 A 28 28 0 0 0 32 4 z"/>
</svg>
