<svg xmlns="http://www.w3.org/2000/svg" width="64" height="64" version="1">
 <path style="opacity:.2" d="m6.8007812 61c-1.5512 0-2.8007812-1.249582-2.8007812-2.800782v-2c0 1.5512 1.2495812 2.800782 2.8007812 2.800782h25.199219 25.199218c1.5512 0 2.800782-1.249582 2.800782-2.800782v2c0 1.5512-1.249582 2.800782-2.800782 2.800782h-25.199218z"/>
 <path style="fill:#2086e7" d="m32 4h-25.2c-1.5512 0-2.8 1.2488-2.8 2.8v25.2h28z"/>
 <path style="fill:#21d789" d="m32 4h25.2c1.5512 0 2.8 1.2488 2.8 2.8v25.2h-28z"/>
 <path style="fill:#21d789" d="m32 60h-25.2c-1.5512 0-2.8-1.2488-2.8-2.8v-25.2h28z"/>
 <path style="fill:#6655e4" d="m32 60h25.2c1.5512 0 2.8-1.2488 2.8-2.8v-25.2h-28z"/>
 <path style="opacity:.2;fill:#ffffff" d="m6.8007812 4c-1.5512 0-2.8007812 1.2495812-2.8007812 2.8007812v1c0-1.5511999 1.2495812-2.8007812 2.8007812-2.8007812h25.199219 25.199219c1.5512 0 2.800781 1.2495812 2.800781 2.8007812v-1c0-1.5511999-1.249581-2.8007812-2.800781-2.8007812h-25.199219-25.199219z"/>
 <rect style="fill:#3f3f3f" width="40" height="40" x="12" y="12"/>
 <path style="opacity:.2;stroke:#000000;stroke-linecap:round;stroke-width:4;fill:none" d="m18.000487 46.9998h15.999999"/>
 <path style="stroke:#ffffff;stroke-width:4;stroke-linecap:round;fill:none" d="m18.000487 46h15.999999"/>
 <path style="opacity:.2;stroke-linejoin:bevel;stroke:#000000;stroke-linecap:round;stroke-width:3.999748;fill:none" d="m24.001294 28.999876h3.99974m-1.999872 0s0.981746 5.999622-3.99975 5.999622c-3.999743 0-3.999743-3.99975-3.999743-7.999502 0-3.999742 0-7.999494 3.999743-7.999494 3.99975 0 3.984506 1.999872 3.984506 1.999872"/>
 <path style="stroke-linejoin:bevel;stroke:#ffffff;stroke-width:3.999748;stroke-linecap:round;fill:none" d="m24.001294 27.999876h3.99974m-1.999872 0s0.981746 5.999622-3.99975 5.999622c-3.999743 0-3.999743-3.99975-3.999743-7.999502 0-3.999742 0-7.999494 3.999743-7.999494 3.99975 0 3.984506 1.999872 3.984506 1.999872"/>
 <path style="opacity:.2;stroke-linejoin:bevel;stroke:#000000;stroke-linecap:round;stroke-width:3.999748;fill:none" d="m38.086252 18.998614c4.799056 0 3.99975 3.999752 3.99975 7.999494 0 3.999752 0.711112 8.121694-3.99975 7.999502-4.696878 0-3.999744-3.99975-3.999744-7.999502 0-3.999742-0.870846-7.999494 3.999744-7.999494"/>
 <path style="stroke-linejoin:bevel;stroke:#ffffff;stroke-width:3.999748;stroke-linecap:round;fill:none" d="m38.086252 17.998614c4.799056 0 3.99975 3.999752 3.99975 7.999494 0 3.999752 0.711112 8.121694-3.99975 7.999502-4.696878 0-3.999744-3.99975-3.999744-7.999502 0-3.999742-0.870846-7.999494 3.999744-7.999494"/>
</svg>
