<svg xmlns="http://www.w3.org/2000/svg" width="64" height="64" version="1.1">
 <path style="opacity:0.2" d="M 8.421875,5 C 5.979253,5 4,6.9792432 4,9.421875 V 49 56.578124 C 4,59.020756 5.979253,61 8.421875,61 H 16 48 L 60,49 V 17 9.421875 C 60,6.9792432 58.020748,5 55.578124,5 H 48 Z"/>
 <path fill="#ffffff" d="M 48,16 H 16 v 32 h 32 z"/>
 <path fill="#ea4335" d="M 48,60 60,48 H 48 Z"/>
 <path fill="#fbbc04" d="M 60,16 H 48 v 32 h 12 z"/>
 <path fill="#34a853" d="M 48,48 H 16 v 12 h 32 z"/>
 <path fill="#188038" d="m 4,48 v 7.578946 C 4,58.021578 5.978424,60 8.421046,60 H 16 V 48 Z"/>
 <path fill="#1967d2" d="M 60,16 V 8.421053 C 60,5.9784212 58.021576,4 55.578954,4 H 48 v 12 z"/>
 <path fill="#4285f4" d="M 48,4 H 8.421046 C 5.978424,4 4,5.9784212 4,8.421053 V 48 H 16 V 16 h 32 z"/>
 <path style="opacity:0.1" d="m 27.486328,24.999977 c -1.27064,0 -2.317493,0.325162 -3.136719,0.972656 -0.819214,0.647492 -1.377334,1.396155 -1.68164,2.244141 l 2.296875,0.941406 c 0.173614,-0.505238 0.475967,-0.959149 0.876953,-1.318359 0.401254,-0.358264 0.94288,-0.535156 1.625,-0.535156 0.698854,-1e-6 1.273768,0.183998 1.728515,0.548828 0.454758,0.364832 0.681641,0.85155 0.681641,1.46289 0,0.686932 -0.253439,1.224727 -0.761719,1.619141 -0.508254,0.394412 -1.134621,1.064453 -1.876953,1.064453 H 26 v 1.986328 h 1.375 c 0.858991,0.07984 1.585036,0.02689 2.160156,0.480469 0.57516,0.453574 0.863282,1.037392 0.863282,1.753906 0,0.700082 -0.273334,1.278848 -0.81836,1.732422 -0.54504,0.453574 -1.197991,0.679687 -1.957031,0.679687 -0.74232,0 -1.376812,-0.212632 -1.898438,-0.646484 -0.52496,-0.433854 -0.892861,-1.04516 -1.103515,-1.833984 l -2.320313,0.939453 c 0.37784,1.281838 1.06856,2.252089 2.06836,2.916015 0.999814,0.663926 2.084146,0.995388 3.257812,0.992188 1.013174,0 1.925733,-0.204483 2.738281,-0.605469 0.809186,-0.400984 1.448691,-0.952261 1.910157,-1.652343 0.461426,-0.700082 0.691406,-1.498579 0.691406,-2.392579 0,-0.894 -0.243662,-1.659863 -0.728516,-2.300781 -0.47812,-0.634478 -1.124547,-1.128733 -1.867187,-1.429687 v -0.134766 c 0.575134,-0.299096 1.060504,-0.726406 1.455078,-1.285156 0.394554,-0.558752 0.591797,-1.239666 0.591797,-2.044922 0,-0.788824 -0.2101,-1.498469 -0.634766,-2.132813 -0.424654,-0.631062 -1.012707,-1.12807 -1.761719,-1.486328 -0.749,-0.358262 -1.595556,-0.535156 -2.535156,-0.535156 z m 11.652344,0 -4.81836,3.392578 1.34375,1.988281 L 38,28.484352 v 12.515625 h 2.986328 v -16 z"/>
 <path style="fill:#4285f4" d="M 38,27.484842 35.6632,29.380348 34.32,27.391958 39.139346,24 h 1.84732 V 39.999998 H 38 Z"/>
 <path style="fill:#4285f4" d="M 24.3698,39.00737 C 23.37,38.343444 22.67784,37.373848 22.3,36.09201 l 2.320586,-0.940016 c 0.210654,0.788824 0.57848,1.400162 1.10344,1.834016 0.521626,0.433852 1.15696,0.647492 1.89928,0.647492 0.75904,0 1.41108,-0.226786 1.95612,-0.68036 0.545026,-0.453574 0.819226,-1.032042 0.819226,-1.732124 0,-0.716514 -0.28756,-1.30156 -0.86272,-1.755134 -0.57512,-0.453574 -1.301075,-0.400613 -2.160066,-0.480455 H 26 V 31 h 1.23876 c 0.742332,0 1.367612,-0.66969 1.875866,-1.064102 0.50828,-0.394414 0.7624,-0.933442 0.7624,-1.620374 0,-0.61134 -0.227388,-1.09778 -0.682146,-1.462612 -0.454748,-0.36483 -1.02988,-0.54889 -1.728734,-0.54889 -0.68212,0 -1.223826,0.17748 -1.62508,0.535744 -0.400986,0.35921 -0.702452,0.812754 -0.876066,1.317992 l -2.2972,-0.940014 c 0.304306,-0.847986 0.86272,-1.59737 1.681934,-2.244862 C 25.16896,24.325388 26.215572,24 27.486212,24 c 0.9396,0 1.785574,0.17748 2.534574,0.535742 0.749012,0.358258 1.337532,0.854558 1.762186,1.48562 0.424666,0.634344 0.635334,1.344286 0.635334,2.13311 0,0.805256 -0.1973,1.485616 -0.591854,2.044368 -0.394574,0.55875 -0.879426,0.986028 -1.45456,1.285124 v 0.13476 c 0.74264,0.300954 1.38772,0.795266 1.86584,1.429744 0.484854,0.640918 0.728934,1.406734 0.728934,2.300734 0,0.894 -0.230708,1.692684 -0.692134,2.392766 -0.461466,0.700082 -1.10012,1.252258 -1.909306,1.653242 -0.812548,0.400986 -1.7254,0.604764 -2.738574,0.604764 -1.173666,0.0032 -2.257038,-0.328676 -3.256852,-0.992602 z"/>
 <path style="opacity:0.2;fill:#ffffff" d="M 8.421875 4 C 5.979253 4 4 5.9792432 4 8.421875 L 4 9.421875 C 4 6.9792432 5.979253 5 8.421875 5 L 48 5 L 55.578125 5 C 58.020749 5 60 6.9792432 60 9.421875 L 60 8.421875 C 60 5.9792432 58.020749 4 55.578125 4 L 48 4 L 8.421875 4 z"/>
</svg>
