<svg xmlns="http://www.w3.org/2000/svg" width="64" height="64" version="1">
 <circle style="opacity:0.2" cx="32" cy="33" r="28"/>
 <path style="fill:#109f5b" d="M 8.7,16.504 C 8.218,17.236 7.773,18.02 7.321,18.797 5.145,22.858 4.0046,27.393 4.001,32 4.001,47.464 16.536,58 32,58 L 45.689,37.937 C 44.627,39.667 40.202,41.882 38.314,42.972 32.272,46.46 24.599,44.206 21.111,38.163 L 8.701,16.503 Z"/>
 <path style="fill:#dd4d3e" d="M 19.145,37.731 7.766,18.02 C 11.864,10.926 18.414,6.714 24.512,5.02 27.31,4.248 29.502,4.059 32,4 35.325,4 46.87,4.822 54.688,15.649 55.233,16.407 55.74,17.192 56.207,18 H 32 C 29.331,18.299 27.811,19.706 26.942,21.711 L 36.446,38.176 24.887,43.117"/>
 <path style="fill:#ffce41" d="M 43.375,40.281 32,58 C 32.075,58.002 32.149,58.008 32.223,58.008 46.411,57.788 59.998,48.564 60,32 59.987,27.081 58.679,22.253 56.207,18 H 32.032 C 32.001,18 36.476,19.996 38.364,21.086 43.188,23.872 43.692,33.821 43.703,37.848 L 44.512,38.317"/>
 <path style="opacity:0.2;fill:#ffffff" d="M 32,4 A 28,28 0 0 0 4,32 28,28 0 0 0 4.0352,32.5 28,28 0 0 1 32,5 28,28 0 0 1 59.982,32.252 28,28 0 0 0 60,32 28,28 0 0 0 32,4 Z"/>
 <circle style="opacity:0.2" cx="32" cy="33" r="14"/>
 <circle style="fill:#ffffff" cx="32" cy="32" r="14"/>
 <circle style="fill:#4587f3" cx="32" cy="32" r="11"/>
 <path style="fill:#4f4f4f" d="M 4.2891,36 A 28,28 0 0 0 32,60 28,28 0 0 0 59.711,36 Z"/>
 <path style="opacity:0.2" d="M 18,40.999 V 42.035 46.033 47.065 52.063 52.999 H 23.338 C 24.816,52.999 26,51.044 26,49.567 26,48.645 25.536,47.37 24.828,46.697 25.536,46.023 26,44.953 26,44.031 26,42.554 24.816,40.999 23.338,40.999 H 19.332 Z M 19.332,42.035 H 23.338 C 24.1,42.035 24.668,43.27 24.668,44.031 24.668,44.793 24.099,45.994 23.338,46.033 H 19.332 Z M 35.93,42.999 C 35.93,43.863 35.941,44.289 35.941,44.999 H 34.598 V 46.031 H 35.949 C 35.964,48.341 36.014,50.384 36.289,51.347 36.488,52.043 36.923,52.586 37.484,52.804 38.046,53.022 38.599,52.999 39.266,52.999 V 51.663 C 38.599,51.663 38.153,51.639 37.965,51.566 37.776,51.492 37.709,51.45 37.574,50.98 37.389,50.33 37.327,48.331 37.297,46.031 H 38.598 V 44.999 H 37.285 C 37.281,44.286 37.266,43.865 37.266,42.999 Z M 30.623,44.999 C 29.899,44.999 29.261,45.157 28.711,45.484 28.171,45.81 27.749,46.274 27.443,46.878 27.148,47.483 27,48.612 27,49.456 27,50.32 27.162,50.644 27.488,51.23 27.825,51.815 28.288,52.257 28.879,52.554 29.47,52.851 30.159,52.999 30.943,52.999 31.504,52.999 31.989,52.957 32.396,52.87 32.804,52.794 33.217,52.668 33.635,52.495 V 51.486 C 33.207,51.659 32.787,51.796 32.379,51.892 31.981,51.979 31.524,52.021 31.004,52.021 30.189,52.021 29.55,51.796 29.092,51.345 28.543,50.711 28.458,49.696 28.398,49.011 H 34 V 48.878 C 34,48.178 33.865,47.166 33.59,46.648 33.325,46.12 32.937,45.717 32.428,45.429 31.918,45.141 31.316,44.999 30.623,44.999 Z M 43.061,44.999 C 42.5,44.999 42.011,45.042 41.604,45.128 41.196,45.205 40.783,45.327 40.365,45.499 V 46.609 C 40.793,46.436 41.213,46.298 41.621,46.202 42.019,46.116 42.48,46.074 43,46.074 43.815,46.074 44.45,46.298 44.908,46.749 45.122,46.968 45.285,47.6 45.4,47.976 L 44.525,48.003 C 42.988,48.046 41.851,48.302 41.111,48.773 40.372,49.233 40,49.591 40,50.447 40,51.324 40.286,51.973 40.85,52.39 41.413,52.796 42.122,52.999 42.979,52.999 43.765,52.999 44.384,52.884 44.842,52.659 45.103,52.531 45.355,52.353 45.602,52.144 V 52.288 52.999 H 47 V 49.238 C 47,48.374 46.838,47.35 46.512,46.765 46.175,46.18 45.712,45.738 45.121,45.441 44.53,45.143 43.845,44.999 43.061,44.999 Z M 30.607,46.031 C 31.29,46.031 31.793,46.235 32.109,46.648 32.324,46.921 32.436,47.672 32.51,48.06 H 28.555 C 28.667,47.649 28.827,46.885 29.08,46.62 29.457,46.227 29.965,46.031 30.607,46.031 Z M 19.332,47.065 H 23.338 C 24.1,47.065 24.668,48.806 24.668,49.567 24.668,50.329 24.1,52.063 23.338,52.063 H 19.332 Z M 45.58,48.952 C 45.58,48.952 45.415,51.279 45.301,51.365 44.773,51.761 44.115,51.963 43.328,51.963 42.823,51.963 42.405,51.847 42.076,51.623 41.759,51.398 41.604,50.948 41.604,50.466 41.604,49.92 41.823,49.797 42.27,49.497 42.727,49.198 43.545,49.023 44.719,48.98 Z"/>
 <path style="fill:#ffffff" d="M 18,40 V 52 H 23.338 C 24.816,52 26,50.045 26,48.568 26,47.646 25.536,46.371 24.828,45.697 25.536,45.024 26,43.954 26,43.032 26,41.555 24.816,40 23.338,40 Z M 19.332,41.036 H 23.338 C 24.1,41.036 24.668,42.27 24.668,43.032 24.668,43.794 24.099,44.995 23.338,45.033 H 19.332 Z M 35.93,42 C 35.93,42.864 35.941,43.29 35.941,44 H 34.598 V 45.032 H 35.949 C 35.964,47.341 36.014,49.385 36.289,50.348 36.488,51.044 36.923,51.586 37.484,51.805 38.046,52.023 38.599,52 39.266,52 V 50.664 C 38.599,50.664 38.153,50.64 37.965,50.566 37.776,50.493 37.709,50.451 37.574,49.98 37.389,49.331 37.327,47.332 37.297,45.032 H 38.598 V 44 H 37.285 C 37.281,43.286 37.266,42.866 37.266,42 Z M 30.623,44 C 29.899,44 29.261,44.158 28.711,44.484 28.171,44.811 27.749,45.274 27.443,45.879 27.148,46.483 27,47.613 27,48.457 27,49.321 27.162,49.645 27.488,50.23 27.825,50.816 28.288,51.257 28.879,51.555 29.47,51.852 30.159,52 30.943,52 31.504,52 31.989,51.957 32.396,51.871 32.804,51.794 33.217,51.669 33.635,51.496 V 50.487 C 33.207,50.659 32.787,50.797 32.379,50.893 31.981,50.979 31.524,51.022 31.004,51.022 30.189,51.022 29.55,50.797 29.092,50.346 28.543,49.713 28.458,48.695 28.398,48.012 H 34 V 47.879 C 34,47.178 33.865,46.167 33.59,45.648 33.325,45.121 32.937,44.718 32.428,44.43 31.918,44.142 31.316,44 30.623,44 Z M 43.061,44 C 42.5,44 42.011,44.043 41.604,44.129 41.196,44.206 40.783,44.327 40.365,44.5 V 45.609 C 40.793,45.437 41.213,45.299 41.621,45.203 42.019,45.117 42.48,45.074 43,45.074 43.815,45.074 44.45,45.299 44.908,45.75 45.122,45.969 45.285,46.601 45.4,46.977 L 44.525,47.004 C 42.988,47.047 41.851,47.303 41.111,47.773 40.372,48.233 40,48.591 40,49.447 40,50.325 40.286,50.973 40.85,51.391 41.413,51.797 42.122,52 42.979,52 43.765,52 44.384,51.885 44.842,51.66 45.103,51.532 45.355,51.354 45.602,51.145 V 51.289 52 H 47 V 48.238 C 47,47.375 46.838,46.351 46.512,45.766 46.175,45.18 45.712,44.739 45.121,44.441 44.53,44.144 43.845,44 43.061,44 Z M 30.607,45.031 C 31.29,45.031 31.793,45.236 32.109,45.648 32.324,45.922 32.436,46.673 32.51,47.061 H 28.555 C 28.667,46.65 28.827,45.886 29.08,45.621 29.457,45.228 29.965,45.031 30.607,45.031 Z M 19.332,46.066 H 23.338 C 24.1,46.066 24.668,47.806 24.668,48.568 24.668,49.33 24.1,51.064 23.338,51.064 H 19.332 Z M 45.58,47.953 45.602,50.071 C 45.511,50.176 45.415,50.279 45.301,50.366 44.773,50.761 44.115,50.963 43.328,50.963 42.823,50.963 42.405,50.848 42.076,50.623 41.759,50.399 41.604,49.948 41.604,49.467 41.604,48.921 41.823,48.798 42.27,48.498 42.727,48.198 43.545,48.023 44.719,47.98 Z"/>
</svg>
