<svg xmlns="http://www.w3.org/2000/svg" width="64" height="64" version="1">
 <path style="opacity:0.2" d="m 4.0000004,56.200069 0,1.999971 c 0,1.549978 1.2495821,2.79996 2.80076,2.79996 L 57.20004,61 C 58.750017,61 60,59.750018 60,58.20004 l 0,-1.999971 c 0,1.549977 -1.249983,2.79996 -2.79996,2.79996 l -50.3992796,0 c -1.5503779,0 -2.79996,-1.249983 -2.79996,-2.79996 z"/>
 <rect style="fill:#ff4646" width="56" height="56" x="4" y="4" rx="2.8" ry="2.8"/>
 <g style="opacity:0.2" transform="matrix(2.0779703,0,0,2.0407708,-1.2466846,0.34811336)">
  <path d="m 17.444,25.8 6.2562,0 -8.6625,-8.82 -3.3688,2.45 z"/>
  <path d="m 17.444,6.2 6.2562,0 L 11.6692,19.43 8.3002,16 Z"/>
 </g>
 <g transform="matrix(2.0779703,0,0,2.0407708,-1.2466846,-0.65216406)">
  <path style="fill:#ffabab" d="m 17.444,25.8 6.2562,0 -8.6625,-8.82 -3.3688,2.45 z"/>
  <path style="fill:#ffffff" d="m 17.444,6.2 6.2562,0 L 11.6692,19.43 8.3002,16 Z"/>
 </g>
 <path style="opacity:0.2;fill:#ffffff" d="M 6.8007812 4 C 5.2496034 4 4 5.2496034 4 6.8007812 L 4 7.8027344 C 4 6.2515566 5.2496034 5.0019531 6.8007812 5.0019531 L 57.199219 5.0019531 C 58.749196 5.0019531 60 6.2515566 60 7.8027344 L 60 6.8007812 C 60 5.2496035 58.749196 4 57.199219 4 L 6.8007812 4 z"/>
</svg>
