<svg xmlns="http://www.w3.org/2000/svg" width="64" height="64" version="1">
 <rect width="56" height="56" x="-61" y="-60" rx="16.8" ry="16.8" transform="matrix(0,-1,-1,0,0,0)" style="opacity:0.2"/>
 <rect style="fill:#2a5083" width="56" height="56" x="-60" y="-60" rx="16.8" ry="16.8" transform="matrix(0,-1,-1,0,0,0)"/>
 <path style="opacity:0.2" d="m 31.9996,14.999058 c -9.827459,0 -17.999743,7.752289 -17.999743,17.132555 0,9.380266 8.172284,16.866959 17.999743,16.866959 l 0.004,0 c 1.37778,-0.003 2.730361,-0.266757 4.070342,-0.562492 2.76336,1.817874 6.136912,3.060556 9.968657,2.370966 1.756135,-0.319156 2.458565,-2.057371 1.234363,-3.355352 -1.310822,-1.38542 -2.14757,-2.247768 -2.187569,-4.093742 2.993957,-3.073956 4.90593,-6.9919 4.90993,-11.225839 0,-9.381866 -8.171884,-17.133355 -17.999743,-17.133355 z m 0,3.999943 c 7.72209,0 13.9974,6.073313 13.9998,13.128812 -0.003,3.033157 -1.370461,5.970714 -3.773346,8.437479 a 4.0003428,4.0003428 0 0 0 -1.136704,2.878959 c 0.02538,1.174403 0.479473,2.259968 0.933587,3.273353 -1.291002,-0.298615 -2.537364,-0.820808 -3.753947,-1.621077 a 4.0003428,4.0003428 0 0 0 -3.059956,-0.565991 c -1.271982,0.279996 -2.335966,0.465993 -3.209954,0.467993 -7.796488,0 -13.9998,-5.809917 -13.9998,-12.867016 -2e-6,-7.057099 6.27631,-13.132612 13.9998,-13.132612 z"/>
 <path style="fill:#ffffff" d="m 31.9996,14.031886 c -9.827859,0 -17.999743,7.752689 -17.999743,17.132555 0,9.379866 8.171884,16.867759 17.999743,16.867759 l 0.004,0 c 1.37798,-0.004 2.729961,-0.267996 4.069942,-0.563992 2.76396,1.817974 6.137912,3.061956 9.967857,2.371966 1.757975,-0.319996 2.459965,-2.057971 1.235983,-3.355952 -1.311982,-1.38598 -2.14797,-2.247968 -2.187969,-4.093942 2.993957,-3.073956 4.90593,-6.9919 4.90993,-11.225839 0,-9.379866 -8.171884,-17.132555 -17.999743,-17.132555 z m 0,3.999943 c 7.72189,0 13.9978,6.072713 13.9998,13.128612 -0.004,3.033957 -1.369981,5.969915 -3.773946,8.437879 a 4.0003428,4.0003428 0 0 0 -1.135984,2.877959 c 0.026,1.173983 0.479993,2.259968 0.933987,3.273953 -1.291982,-0.297995 -2.537964,-0.819988 -3.753947,-1.621976 a 4.0003428,4.0003428 0 0 0 -3.059956,-0.565992 c -1.271982,0.281996 -2.335966,0.465993 -3.209954,0.469993 -7.795889,0 -13.9998,-5.809917 -13.9998,-12.867816 0,-7.057899 6.27591,-13.132612 13.9998,-13.132612 z"/>
 <path style="opacity:0.2;fill:none;stroke:#000000;stroke-width:3.99994278;stroke-linecap:round;stroke-linejoin:round" d="m 25.999686,38.000343 c 0,0 3.199954,1.999972 5.999914,1.999972 2.79996,0 5.999914,-1.999972 5.999914,-1.999972"/>
 <path style="fill:none;stroke:#ffffff;stroke-width:3.99994278;stroke-linecap:round;stroke-linejoin:round" d="m 25.999686,36.000372 c 0,0 3.199954,1.999971 5.999914,1.999971 2.79996,0 5.999914,-1.999971 5.999914,-1.999971"/>
 <path style="fill:#ffffff;opacity:0.1" d="M 20.800781 4 C 11.493582 4 4 11.493582 4 20.800781 L 4 21.800781 C 4 12.493582 11.493582 5 20.800781 5 L 43.199219 5 C 52.506418 5 60 12.493582 60 21.800781 L 60 20.800781 C 60 11.493582 52.506418 4 43.199219 4 L 20.800781 4 z"/>
</svg>
