<svg xmlns="http://www.w3.org/2000/svg" width="64" height="64" version="1">
 <path style="opacity:0.2" d="m 4.0507997,32.000415 c -0.0118,0.333995 -0.050799,0.66199 -0.050799,0.999985 C 4.0000004,48.512179 16.487822,61 31.9996,61 47.511378,61 59.9992,48.512179 59.9992,33.0004 c 0,-0.337995 -0.04,-0.66599 -0.05,-0.999985 C 59.421208,47.0422 47.173383,59.000029 31.9996,59.000029 16.825417,59.000029 4.5779921,47.0422 4.0499997,32.000415 Z"/>
 <rect style="fill:#0286c2" width="56" height="56" x="4" y="4" rx="28" ry="28"/>
 <path style="opacity:0.2" d="m 30.299929,5.0554981 c -2.35399,0.1399951 -4.62798,0.56798 -6.78797,1.249956 -4.167582,11.9135799 -8.355764,24.9791199 -12.515946,36.5027129 0.302399,0.09 0.601597,0.054 0.914196,0.06 1.721593,-0.012 3.452985,0.004 5.179577,0 0.233799,0 0.2018,-0.335988 0.300799,-0.485983 2.074791,-5.853793 4.185382,-11.681588 6.269373,-17.533382 0.123999,-0.361987 0.261999,-0.751973 0.425998,-1.097961 1.081995,0.02 2.149991,-0.016 3.225986,0 -2.26199,6.347776 -4.51798,12.731551 -6.81997,19.057328 0.241999,0.094 0.481998,0.054 0.733996,0.06 1.807993,-0.016 3.611985,0.024 5.417977,0 2.043991,-5.767796 4.155982,-11.523594 6.211973,-17.28939 0.435998,-1.175959 0.497998,-2.681906 -0.245999,-3.647872 -1.581993,-2.049927 -5.095978,-2.395915 -7.367968,-2.479912 1.657993,-4.692835 3.377985,-9.5990619 5.057978,-14.3948929 z m 8.215964,15.2348629 c -0.044,0.094 -0.078,0.327989 -0.121999,0.419985 -4.201982,11.787585 -9.12996,25.205112 -13.507941,37.350684 1.577993,0.411985 3.201986,0.693975 4.875978,0.823971 1.941992,-5.009824 4.271982,-10.489631 5.947974,-15.163466 2.257991,-0.044 4.503981,-0.022 6.765971,-0.066 1.435994,-0.05 3.601984,-0.909967 4.077982,-2.307918 1.905992,-5.365811 3.809984,-10.681624 5.655976,-16.069434 0.303998,-0.815971 0.489998,-1.709939 0.247999,-2.55591 -0.323999,-1.081961 -1.309995,-1.901933 -2.37199,-2.189922 -0.923996,-0.28999 -1.851992,-0.163995 -2.799988,-0.183994 -2.899987,-0.006 -5.871974,-0.028 -8.769962,-0.058 z m 5.447977,3.39788 c 0.092,0.01 0.183999,0.02 0.273998,0.008 0.837997,0.014 1.661993,-0.022 2.49599,0 -1.943992,5.551804 -3.923983,11.109608 -5.839975,16.679412 -1.085995,0.074 -2.20399,0.004 -3.291986,0 1.979992,-5.519805 3.931983,-11.033611 5.905975,-16.563416 0.044,-0.05 0.123999,-0.105996 0.183999,-0.119996 v 0.004 c 0.088,-0.028 0.181999,-0.018 0.271999,-0.008 z"/>
 <path style="fill:#ffffff" d="M 30.299351,4.0557775 C 27.944284,4.1956401 25.671825,4.6260084 23.51278,5.3081015 19.344506,17.22289 15.158031,30.287381 10.998158,41.812403 c 0.302406,0.08894 0.600822,0.05235 0.91338,0.05743 1.721636,-0.01022 3.449992,0.005 5.176808,0 0.233799,0 0.204451,-0.338078 0.303555,-0.486733 2.074895,-5.855613 4.182835,-11.681265 6.267952,-17.532537 0.124516,-0.362089 0.262698,-0.749659 0.426614,-1.096501 1.082547,0.02033 2.149525,-0.01525 3.226947,0 -2.262937,6.347302 -4.518033,12.731984 -6.820315,19.058566 0.24269,0.09403 0.482775,0.05235 0.73563,0.05743 1.806765,-0.01525 3.60793,0.02541 5.414695,0 2.044372,-5.766711 4.157352,-11.523061 6.213206,-17.290332 0.437088,-1.176471 0.499353,-2.684272 -0.24612,-3.65043 -1.58218,-2.05076 -5.095039,-2.392786 -7.367217,-2.477348 1.656948,-4.69233 3.375363,-9.6006844 5.056394,-14.3964766 z M 38.514365,19.28947 c -0.04405,0.09516 -0.07338,0.330378 -0.117586,0.42383 -4.40728,12.363498 -9.638975,26.585111 -14.16821,39.181153 1.538915,0.441261 3.124175,0.772605 4.761101,0.94611 2.040872,-5.471725 4.830269,-11.844507 6.721884,-17.115329 2.257897,-0.04446 4.502632,-0.02115 6.765569,-0.06562 1.434463,-0.04955 3.600929,-0.911795 4.077403,-2.310604 1.905897,-5.365183 3.811934,-10.680805 5.658043,-16.070909 0.302407,-0.814382 0.48734,-1.707753 0.24339,-2.553929 -0.322737,-1.082445 -1.308757,-1.904597 -2.371029,-2.193002 -0.923727,-0.288406 -1.852411,-0.162879 -2.800319,-0.183208 -2.898189,-0.005 -5.871847,-0.02967 -8.770176,-0.06016 z m 5.450259,3.398845 c 0.09179,0.0099 0.183897,0.02365 0.273465,0.01092 0.838597,0.01525 1.663249,-0.02033 2.496764,0 -1.945241,5.553206 -3.925206,11.110193 -5.841324,16.67992 -1.086355,0.07496 -2.20497,0.005 -3.292614,0 1.980805,-5.518906 3.932347,-11.035992 5.906991,-16.565118 0.04447,-0.04955 0.123508,-0.105058 0.183225,-0.120318 v 0.0055 c 0.08958,-0.02731 0.181671,-0.02094 0.273465,-0.01092 z"/>
 <path style="opacity:0.2;fill:#ffffff" d="M 32 4 C 16.488222 4 4 16.488222 4 32 C 4 32.113554 4.0112846 32.224034 4.0175781 32.335938 C 4.3691163 17.134398 16.710946 5 32 5 C 47.289054 5 59.630884 17.134398 59.982422 32.335938 C 59.988797 32.224034 60 32.113554 60 32 C 60 16.488222 47.511778 4 32 4 z"/>
</svg>
