<svg width="64" height="64" version="1.1" xmlns="http://www.w3.org/2000/svg">
 <g>
  <path d="m59.917223 50.865377c-0.55304-2.772897-1.571397-4.686571-3.917233-5.754751-0.02037-11.456237-3.351243-24.175853-13.999997-30.110618 0.850854-0.368875 3.603431-0.940311 4.451935-1.096932 0.633576-0.116005 1.163378-0.510947 1.41613-1.055299 0.252752-0.544366 0.195628-1.167763-0.152852-1.666051-0.330478-0.472504-2.70001-1.615189-6.002993-2.016071-3.712219-0.165645-5.712219-0.165645-10.55896 0.809235-2.569247 0.878383-3.817095 1.000161-5.261873 1.141019-1.228544 0.119816-2.621155 0.255707-4.833577 0.823231-6.371997 1.634764-9.369541 4.227893-11.06994 5.929987-1.3274013 1.328675-2.061419 4.032116-1.9878628 5.13088-0.3158737 0.159488-0.2837701 0.186066-0.6330313 0.370376-2.3352773 1.231975-3.1438731 1.807629-3.3303719 2.788921-0.137462 0.724148 0.11503 1.199232 0.7118253 1.848414 0.9631046 0.902558 1.5107761 0.992288 3.0231052 0.992288 2.389366-0.373016 4.366776-1.15025 6.800471-1.9 1.443995-0.14058 2.689316 0.11124 4.868874 0.540718 2.822235 0.653406 5.84236 1.387884 8.348388 1.359282 0.484898 0.915145 1.290362 2.626181 2.589069 4.184553 3.38802 4.065533 7.341869 3.812579 7.747209 3.815445 0.73269 0.0098 1.314793 0.03188 1.652315-0.570024 0.337524-0.602144 0.28014-1.321054-0.15572-1.867564-0.352442-0.448563-1.627899-1.154143-1.975335-2.992819-0.09912-0.523832-0.05488-0.965566-0.0468-1.383624 4.509437 1.32245 11.469932 5.350845 12.385063 9.738814l0.02986 3.152034c-0.0128-5.5e-4 0.013 2.82e-4 0 0-0.207366-0.0084-0.649616-0.0106-0.965229-0.0106-0.820334 0-1.708224 0.0831-2.714274 0.24356-3.267251 0.521194-5.567671 2.447447-5.789383 2.688363 0 0-0.634878 0.506316-0.266318 1.150726 0.365696 0.639854 1.087172 1.017576 1.872292 0.95599l0.03626-2.4e-4c4.995067 0.696232 11.733758 3.839603 13.786919 7.85079 0.320566 0.639896 1.017524 1.04459 1.777604 1.04459 0.04878 0 0.09782-0.0014 0.14686-0.0056 0.815902-0.0559 1.507641-0.570616 1.733787-1.290232 0.05764-0.18598 0.56106-2.479933 0.28379-4.839083z" style="opacity:.2"/>
  <path d="m59.917223 49.854743c-0.55304-2.777705-1.571397-4.694695-3.917233-5.764727-0.02037-11.476099-3.351243-24.217765-13.999997-30.162818 0.850854-0.369515 3.603431-0.941941 4.451935-1.098833 0.633576-0.116206 1.163378-0.511834 1.41613-1.05713 0.252752-0.545309 0.195628-1.169786-0.152852-1.668938-0.330478-0.4733239-2.70001-1.6179892-6.002993-2.0195671-3.712219-0.1659321-5.712219-0.1659321-10.55896 0.8106385-2.569247 0.879906-3.817095 1.0018949-5.261873 1.1429976-1.228544 0.120024-2.621155 0.256149-4.833577 0.824658-6.371997 1.637597-9.369541 4.235221-11.06994 5.940266-1.3274013 1.330979-2.061419 4.039106-1.9878628 5.139775-0.3158737 0.159764-0.2837701 0.186389-0.6330313 0.371018-2.3352773 1.234112-3.1438731 1.810764-3.3303719 2.793757-0.137462 0.725402 0.11503 1.20131 0.7118253 1.851617 0.9631046 0.904123 1.5107761 0.994009 3.0231052 0.994009 2.389366-0.373663 4.366776-1.152245 6.800471-1.903294 1.443995-0.140824 2.689316 0.111433 4.868874 0.541655 2.822235 0.654539 5.84236 1.39029 8.348388 1.361639 0.484898 0.916732 1.290362 2.630733 2.589069 4.191807 3.38802 4.072581 7.341869 3.819188 7.747209 3.822059 0.73269 0.0098 1.314793 0.03194 1.652315-0.571011 0.337524-0.603188 0.28014-1.323344-0.15572-1.870802-0.352442-0.449341-1.627899-1.156144-1.975335-2.998008-0.09912-0.524739-0.05488-0.967239-0.0468-1.386021 4.509437 1.324741 11.469932 5.360121 12.385063 9.755697l0.02986 3.157497c-0.0128-5.51e-4 0.013 2.82e-4 0 0-0.207366-0.0084-0.649616-0.01062-0.965229-0.01062-0.820334 0-1.708224 0.08324-2.714274 0.243982-3.267251 0.522097-5.567671 2.451691-5.789383 2.693024 0 0-0.634878 0.507193-0.266318 1.15272 0.365696 0.640963 1.087172 1.01934 1.872292 0.957647l0.03626-2.4e-4c4.995067 0.697439 11.733758 3.846259 13.786919 7.864401 0.320566 0.641004 1.017524 1.0464 1.777604 1.0464 0.04878 0 0.09782-0.0014 0.14686-0.0056 0.815902-0.056 1.507641-0.571604 1.733787-1.292467 0.05764-0.186303 0.56106-2.484234 0.28379-4.847472z" style="fill:#d41c46"/>
  <circle cx="14" cy="21" r="2" style="opacity:.2"/>
  <circle cx="14" cy="20" r="2" style="fill:#ffffff"/>
  <path d="m39.177734 8.0019531c-2.355783-0.024226-4.390335 0.1581971-8.02539 0.890625-2.569247 0.879906-3.816941 1.0034286-5.261719 1.1445309-1.228544 0.120024-2.619609 0.25571-4.832031 0.824219-6.371997 1.637597-9.369913 4.234408-11.070313 5.939453-1.3274013 1.330979-2.0618374 4.039956-1.9882812 5.140625-0.3158737 0.159764-0.2835513 0.186465-0.6328125 0.371094-2.3352773 1.234112-3.1435793 1.809976-3.3300781 2.792969-0.0590624 0.311679-0.0324678 0.574941 0.0488281 0.828125 0.2496732-0.880003 1.0887124-1.462415 3.28125-2.621094 0.3492612-0.184629 0.3169388-0.21133 0.6328125-0.371094-0.0735562-1.100669 0.6608799-3.809646 1.9882812-5.140625 1.7003998-1.705045 4.6983158-4.301856 11.070313-5.939453 2.212422-0.568509 3.603487-0.704195 4.832031-0.824219 1.444778-0.141103 2.692472-0.264625 5.261719-1.1445309 4.846741-0.9765706 6.848328-0.9764789 10.560547-0.8105469 3.302983 0.4015779 5.671475 1.5462078 6.001953 2.0195308 0.09956 0.142615 0.169137 0.296772 0.220703 0.455079 0.151506-0.490272 0.08318-1.019806-0.220703-1.455079-0.330478-0.4733234-2.69897-1.6179529-6.001953-2.0195308-0.928055-0.041483-1.749896-0.0720028-2.535157-0.0800781zm3.916016 6.5800779c-0.454169 0.121983-0.854987 0.242012-1.09375 0.345703 10.648754 5.945053 13.97963 18.686011 14 30.16211 2.345294 1.069784 3.364841 2.987007 3.917969 5.763672v2e-3c0.03549 0.302915 0.05593 0.605902 0.06836 0.902343 0.01755-0.604271 0.0088-1.243487-0.06836-1.902343v-2e-3c-0.553128-2.776665-1.572675-4.693888-3.917969-5.763672-0.019653-11.072362-3.124122-23.320143-12.90625-29.507813zm-5.494141 15.556641c-0.0081 0.418782-0.05224 0.86198 0.04687 1.386719 0.347436 1.841864 1.624121 2.548706 1.976563 2.998047 0.133191 0.167292 0.217259 0.353641 0.279297 0.544921 0.166265-0.524967 0.08102-1.09235-0.279297-1.544921-0.352442-0.449341-1.629127-1.156183-1.976563-2.998047-0.02578-0.136454-0.02366-0.254499-0.0332-0.38086-0.0044-0.0013-0.0093-0.0046-0.01367-0.0059zm11.449219 11.904297c-0.820334 0-1.70684 0.08145-2.71289 0.242187-3.267252 0.522097-5.567351 2.452027-5.789063 2.69336 0 0-0.636138 0.506816-0.267578 1.152343 0.0182 0.03191 0.04648 0.05535 0.06641 0.08594 0.09869-0.139767 0.201172-0.238281 0.201172-0.238281 0.221712-0.241333 2.521811-2.171263 5.789063-2.69336 1.00605-0.160742 1.892556-0.242187 2.71289-0.242187 0.315613 0 0.759431 0.0014 0.966797 0.0098l-0.0098-1c-0.209931-0.0082-0.644606-0.0098-0.957031-0.0098z" style="fill:#ffffff;opacity:.2"/>
 </g>
</svg>
