<svg xmlns="http://www.w3.org/2000/svg" width="64" height="64" version="1.1">
 <path style="opacity:0.2" d="M 45.925782,33.078186 50.308594,42.461 c 8.272728,-1.72271 9.54481,-4.30566 9.59375,-4.44922 C 59.951304,37.868226 60,37.771564 60,37.675844 v -0.57422 c 0,0 -0.0196,-0.0287 -0.05078,-0.07032 V 37.72271 C 57.948886,35.767242 51.529184,34.01213 45.925784,33.078178 Z"/>
 <path style="opacity:0.2" d="m 45.804688,32.761718 -6.984376,9.585938 c 4.525374,5.41647 9.228252,9.698958 12.773438,10.628906 0.09696,0.0146 0.19494,0.02734 0.28125,0.02734 0.0979,-0.04786 0.14638,-0.14258 0.19532,-0.238282 0.14686,-0.19142 2.83927,-4.499502 -6.265624,-20.003906 z"/>
 <path style="opacity:0.2" d="m 13.988281,40.445312 -0.785156,2.269532 c -2.888112,7.512938 -1.418215,9.85937 -1.320313,10.05078 0.04895,0.09572 0.09741,0.19044 0.195312,0.238282 0.195804,0 0.390134,-0.04588 0.585938,-0.09374 0,0 0.0076,-3.8e-5 0.0078,0 2.604294,-0.726122 6.413935,-2.996038 12.031248,-9.457032 z"/>
 <path style="opacity:0.2" d="m 13.643357,24.334244 c -3.083916,-7.752201 -1.566434,-10.192709 -1.468532,-10.336269 0.195804,-0.239265 0.440559,-0.430677 0.685314,-0.574237 l 8.517483,-5.311694 c -0.734266,3.39757 1.125874,8.613559 4.013986,14.690902 z"/>
 <ellipse style="fill:#4b5b90" cx="32" cy="31.994" rx="16.8" ry="16.417"/>
 <path style="fill:#4767b5" d="M 45.412588,30.981558 C 58.188812,32.99139 60,36.10184 60,36.10184 c 0,0.19142 0,0.382826 0,0.574236 0,0.09572 -0.04894,0.19142 -0.0979,0.334974 -0.04894,0.14356 -1.321678,2.727626 -9.594406,4.450336 z"/>
 <path style="fill:#4b5b90" d="m 13.202798,41.71475 c -2.888113,7.512938 -1.419581,9.85774 -1.321679,10.049152 0.04895,0.09572 0.0979,0.19142 0.195804,0.239266 0.195804,0 0.391608,-0.04786 0.587412,-0.09572 0,0 5.336316,1.223988 11.455197,-7.293864 v 0 L 26.125874,42.84912 13.987665,39.444942 Z"/>
 <path style="fill:#2f4479" d="m 32.293706,13.050744 c -7,-7.4650842 -10.377622,-7.0344064 -10.573426,-7.0344064 -0.0979,0 -0.244756,0.047852 -0.342658,0.095706 -0.244756,0.095706 -0.48951,0.8613558 -0.48951,0.8613558 0,0 -1.468532,4.1632196 4.454546,15.2651406 z"/>
 <path style="fill:#2f4479" d="m 38.412588,41.906162 c 9.496502,10.62339 12.825174,10.001298 12.825174,10.001298 0.1958,0.04786 0.44056,0.09572 0.636364,0.09572 0.0979,-0.04786 0.14686,-0.14356 0.1958,-0.239266 0.14686,-0.19142 2.83916,-4.498192 -6.265734,-20.002596 z"/>
 <path style="opacity:0.2" d="m 4.9335938,37.000438 c -0.3402796,0.247322 -0.6539912,0.500748 -0.9257814,0.765624 0.01528,0.09578 0.052158,0.17242 0.089844,0.246094 C 4.1955584,38.25142 6.5445808,43.038496 26.125,43.852 L 24.816406,41.785594 C 11.420448,41.079408 6.5996908,38.459666 4.9335938,37.000438 Z"/>
 <path style="fill:#4767b5" d="M 26.125874,42.849128 C 6.5454546,42.035624 4.1958042,37.250314 4.0979022,37.01105 4.048951,36.915344 4,36.819636 4,36.676076 c 0.04895,-0.33497 0.7342658,-0.95706 0.7342658,-0.95706 0,0 5.188811,-3.110452 13.8531462,-4.78531 z"/>
 <path style="fill:#4b5b90" d="m 39.636362,21.090064 c 5.139862,-11.8197154 3.13287,-14.4994892 3.13287,-14.4994892 -0.04896,-0.14356 -0.0979,-0.3349716 -0.14686,-0.478531 -0.0979,-0.047852 -0.1958,-0.047852 -0.342658,-0.095706 -0.244756,-0.047852 -5.58042,-0.7177964 -16.839162,14.6909002 z"/>
 <path style="fill:#0084db" d="M 13.643357,22.334244 C 10.559441,14.582043 12.076923,12.141535 12.174825,11.997975 12.370629,11.75871 12.615384,11.567297 12.860139,11.423738 L 21.377622,6.1120438 C 20.643356,9.509614 22.503496,14.725602 25.391608,20.802946 Z"/>
 <path style="fill:#0cb4ff" d="M 40.665516,20.354952 C 39.196984,20.3071 34.741258,20.089048 32,20.089048 6.986014,20.089048 4.2447552,25.334892 4.0979022,25.62201 4,25.90913 4,26.196248 4,26.53122 v 10.240564 c 2.4475524,-2.392656 7.783217,-4.067514 14.293706,-5.024576 4.20979,-0.574238 8.41958,-0.90921 12.678322,-0.957062 l 5.502692,0.14374 c 1.125474,0.0294 5.659326,-10.483226 4.190796,-10.578934 z"/>
 <path style="fill:#0cb4ff" d="m 41.968982,31.532714 c 6.072582,0.598784 15.485564,2.750708 17.982066,5.191216 v -9.857738 c 0,-0.287118 -0.04894,-0.62209 -0.0979,-0.90921 -0.04894,-0.14356 -2.575764,-4.012722 -13.555464,-4.800138 z"/>
 <path style="opacity:0.2" d="M 42.623048,7.1122251 C 43.846822,12.758891 39.001338,23.668294 32.246094,33.669592 21.762968,48.64531 15.699989,52.284218 12.126562,53.049868 l 8.760938,5.55249 c 0.244754,0.14356 0.540276,0.28639 0.833984,0.382102 0.1958,0 5.190802,1.126016 17.620314,-15.791734 0.48951,-0.526384 1.714068,-2.48671 2.644138,-3.87445 C 55.59433,18.837148 52.266384,13.475798 52.119532,13.236532 51.923728,12.997267 51.677958,12.805604 51.433202,12.662044 Z"/>
 <path style="opacity:0.2;fill:#ffffff" d="M 32 20.089844 C 6.986014 20.089844 4.2445092 25.333976 4.0976562 25.621094 C 3.9997541 25.908214 4 26.196278 4 26.53125 L 4 27.53125 C 4 27.196278 3.9997541 26.908214 4.0976562 26.621094 C 4.2445092 26.333976 6.986014 21.089844 32 21.089844 C 34.741258 21.089844 39.19553 21.307537 40.664062 21.355469 C 40.76864 21.362285 40.84049 21.425056 40.886719 21.53125 C 41.004662 20.831027 40.96067 20.374801 40.664062 20.355469 C 39.19553 20.307537 34.741258 20.089844 32 20.089844 z M 46.296875 21.15625 L 41.96875 31.53125 C 42.093446 31.54355 42.230659 31.562456 42.365234 31.580078 L 46.296875 22.15625 C 57.276575 22.943666 59.802622 26.813471 59.851562 26.957031 C 59.900523 27.244151 59.949219 27.58007 59.949219 27.867188 L 59.949219 26.867188 C 59.949219 26.58007 59.900523 26.244151 59.851562 25.957031 C 59.802622 25.813471 57.276575 21.943666 46.296875 21.15625 z"/>
 <path style="fill:#00ccfa" d="M 42.623048,6.1122256 C 43.846822,11.758892 39.001338,22.668294 32.246094,32.669592 21.762968,47.64531 15.699989,51.284218 12.126562,52.049868 l 8.760938,5.55249 c 0.244754,0.14356 0.540276,0.28639 0.833984,0.382102 0.1958,0 5.190802,1.126016 17.620314,-15.791734 0.48951,-0.526384 1.714068,-2.48671 2.644138,-3.87445 C 55.59433,17.837148 52.266384,12.475798 52.119532,12.236532 51.923728,11.997267 51.677958,11.805604 51.433202,11.662044 Z"/>
 <path style="opacity:0.2" d="m 30.971874,31.79115 c -4.234728,0.04758 -8.422146,0.377586 -12.608202,0.9459 0.912147,1.551538 2.771102,4.565526 3.942968,6.340742 13.608392,20.481126 19.97348,19.668614 20.267188,19.620758 0.293706,-0.0957 0.586494,-0.241212 0.83125,-0.384772 l 8.468358,-5.26391 C 46.328026,51.853416 37.75648,42.010212 31.554298,32.475192 L 31.171484,31.79115 Z"/>
 <path style="fill:#ffffff;opacity:0.2" d="M 42.623047 6.1113281 C 42.698233 6.4582485 42.750918 6.8257183 42.78125 7.2109375 L 51.433594 12.662109 C 51.67835 12.805669 51.923337 12.997063 52.119141 13.236328 C 52.163685 13.308905 52.497944 13.864034 52.566406 15.158203 C 52.669174 13.1293 52.173862 12.325486 52.119141 12.236328 C 51.923337 11.997063 51.67835 11.805669 51.433594 11.662109 L 42.623047 6.1113281 z M 42.791016 8.6464844 C 42.511651 14.661575 38.099627 24.003627 32.246094 32.669922 C 21.762968 47.64564 15.70038 51.285131 12.126953 52.050781 L 13.212891 52.738281 C 16.890109 51.486113 22.751046 47.234117 32.246094 33.669922 C 38.436839 24.504378 43.009558 14.587856 42.791016 8.6464844 z"/>
 <path style="fill:#0084db" d="m 30.971874,30.79115 c -4.234728,0.04758 -8.422146,0.377586 -12.608202,0.9459 0.912147,1.551538 2.771102,4.565526 3.942968,6.340742 13.608392,20.481126 19.97348,19.668614 20.267188,19.620758 0.293706,-0.0957 0.586494,-0.241212 0.83125,-0.384772 l 8.468358,-5.26391 C 46.328026,50.853416 37.75648,41.010212 31.554298,31.475192 L 31.171484,30.79115 Z"/>
 <path style="opacity:0.2" d="M 30.972656 30.791016 C 26.713914 30.838868 22.502759 31.173809 18.292969 31.748047 C 11.78248 32.705109 6.4475524 34.378828 4 36.771484 L 4 37.773438 C 6.4475524 35.380781 11.782479 33.703156 18.292969 32.746094 C 22.502758 32.171856 26.713914 31.836915 30.972656 31.789062 L 32.136719 31.820312 C 32.173919 31.767292 32.208774 31.721269 32.246094 31.667969 C 32.432152 31.392507 32.610396 31.114374 32.792969 30.837891 L 30.972656 30.791016 z M 45.34375 31.984375 C 45.162348 32.286289 44.990321 32.580252 44.800781 32.890625 C 50.636231 33.765045 57.814805 35.636114 59.949219 37.722656 L 59.949219 36.722656 C 57.877604 34.700334 51.074492 32.890306 45.34375 31.984375 z"/>
 <path style="fill:#ffffff;opacity:0.1" d="M 21.376953 6.1113281 L 12.859375 11.423828 C 12.61462 11.567387 12.371585 11.758782 12.175781 11.998047 C 12.121471 12.077687 11.633067 12.869074 11.732422 14.876953 C 11.802202 13.601795 12.131636 13.062781 12.175781 12.998047 C 12.371585 12.758782 12.61462 12.567387 12.859375 12.423828 L 21.240234 7.1972656 C 21.263124 6.8190974 21.302994 6.4535643 21.376953 6.1113281 z M 21.232422 8.2890625 C 21.081786 11.331927 22.516056 15.49797 24.6875 20.261719 C 24.835836 20.254385 24.980394 20.245174 25.130859 20.238281 C 22.945288 15.574142 21.398367 11.439311 21.232422 8.2890625 z M 30.972656 30.791016 C 30.791522 30.793051 30.610648 30.797711 30.429688 30.800781 L 31.554688 32.474609 C 37.365877 41.408533 45.255929 50.615291 50.789062 52.724609 L 51.873047 52.050781 C 46.327637 50.854329 37.75687 41.009629 31.554688 31.474609 L 31.175781 30.796875 L 30.972656 30.791016 z"/>
</svg>
