<svg xmlns="http://www.w3.org/2000/svg" width="64" height="64" version="1">
 <path style="opacity:0.2" d="m 27,5.0000009 v 7.9980511 h 3.640285 c 1.607594,0 2.724767,0.249527 3.041017,0.565899 C 34.100973,13.983792 34,19.631667 34,32.699054 c 0,21.878353 0.812698,21.314804 -6.040536,21.300947 -5.857225,-0.01176 -7.022565,-1.518874 -4.161007,-4.687526 2.966427,-3.284798 2.928062,-6.650427 -0.109312,-9.502755 -1.744078,-1.637814 -3.896352,-2.663705 -6.149978,-2.809719 -2.860124,-0.185311 -6.443131,0.962584 -9.002511,3.154179 -1.9895129,1.703621 -3.2992227,3.822354 -3.504907,6.110162 -0.2776751,3.088548 1.2778024,6.485231 4.2044892,9.584694 4.9632838,5.432477 9.0459858,4.957072 18.8871828,5.13958 7.595791,0.135142 16.929871,-0.808349 20.995926,-9.647648 1.006028,-2.179968 0.754033,-2.860107 0.885415,-19.232417 0.153853,-19.172183 0.226005,-19.1105 4.213891,-19.1105 0.966213,0 1.470745,0.03094 2.000108,0 H 58 V 5.0000009 H 57.738167 42.473064 Z"/>
 <path style="fill:#ef3135" d="m 27,4.0000003 v 7.9980507 h 3.640285 c 1.607594,0 2.724767,0.249527 3.041017,0.565899 C 34.100973,12.983791 34,18.631666 34,31.699053 34,53.577406 34.812698,53.013857 27.959464,53 22.102239,52.98824 20.936899,51.481126 23.798457,48.312474 26.764884,45.027676 26.726519,41.662047 23.689145,38.809719 21.945067,37.171905 19.792793,36.146014 17.539167,36 14.679043,35.814689 11.096036,36.962584 8.536656,39.154179 6.5471431,40.8578 5.2374333,42.976533 5.031749,45.264341 c -0.2776751,3.088548 1.2778024,6.485231 4.2044892,9.584694 4.9632838,5.432477 9.0459858,4.957072 18.8871828,5.13958 7.595791,0.135142 16.929871,-0.808349 20.995926,-9.647648 1.006028,-2.179968 0.754033,-2.860107 0.885415,-19.232417 0.153853,-19.172183 0.226005,-19.1105 4.213891,-19.1105 0.966213,0 1.470745,0.03094 2.000108,0 H 58 V 4.0000003 H 57.738167 42.473064 Z"/>
 <path style="fill:#ffffff;opacity:0.2" d="M 27 4 L 27 5 L 42.472656 5 L 57.738281 5 L 58 5 L 58 4 L 57.738281 4 L 42.472656 4 L 27 4 z M 16.435547 35.992188 C 13.798686 36.117721 10.776567 37.236651 8.5371094 39.154297 C 6.5475965 40.857918 5.2369343 42.975864 5.03125 45.263672 C 4.9931284 45.687694 4.9975577 46.118663 5.0273438 46.552734 C 5.0324333 46.456941 5.0226888 46.358897 5.03125 46.263672 C 5.2369343 43.975864 6.5475965 41.857918 8.5371094 40.154297 C 11.096489 37.962702 14.678939 36.814689 17.539062 37 C 19.792689 37.146014 21.945375 38.172733 23.689453 39.810547 C 25.080748 41.11708 25.834547 42.531263 25.966797 43.996094 C 26.154128 42.175349 25.395532 40.412686 23.689453 38.810547 C 21.945375 37.172733 19.792689 36.146014 17.539062 36 C 17.181547 35.976836 16.812241 35.974254 16.435547 35.992188 z M 34.019531 44.259766 C 33.926857 53.330548 33.09891 53.010393 27.958984 53 C 24.606336 52.993269 22.797425 52.494325 22.394531 51.476562 C 21.889167 53.170338 23.649555 53.991348 27.958984 54 C 33.258636 54.010716 33.967527 54.223843 34.019531 44.259766 z"/>
</svg>
