<svg xmlns="http://www.w3.org/2000/svg" width="64" height="64" version="1">
 <rect style="opacity:0.2" width="57" height="57" x="4" y="4" rx="2.85" ry="2.85"/>
 <rect style="fill:#dad6cd" width="57" height="57" x="4" y="3" rx="2.85" ry="2.85"/>
 <path style="fill:none;stroke:#4f4f4f;stroke-width:3;stroke-linecap:round" d="m 32.5,50.478636 v -14.25"/>
 <path style="fill:none;stroke:#896a2a;stroke-width:5.69999981;stroke-linecap:round" d="m 20.7,37.116178 c 0,0 -2.85,-4.275 -2.85,-9.975 0,-5.7 2.85,-8.55 2.85,-8.55"/>
 <path style="fill:none;stroke:#896a2a;stroke-width:5.69999981;stroke-linecap:round" d="m 44.228786,37.116178 c 0,0 2.85,-4.275 2.85,-9.975 0,-5.7 -2.85,-8.55 -2.85,-8.55"/>
 <circle style="opacity:0.1" cx="32.5" cy="25.5" r="12.5"/>
 <circle style="fill:#b1a17f" cx="32.5" cy="24.5" r="12.5"/>
 <path style="fill:#ffffff;opacity:0.2" d="M 6.8496094 3 C 5.2707094 3 4 4.2707094 4 5.8496094 L 4 6.8496094 C 4 5.2707094 5.2707094 4 6.8496094 4 L 58.150391 4 C 59.729291 4 61 5.2707094 61 6.8496094 L 61 5.8496094 C 61 4.2707094 59.729291 3 58.150391 3 L 6.8496094 3 z"/>
</svg>
