<svg xmlns="http://www.w3.org/2000/svg" width="64" height="64" version="1.1">
 <path style="fill:#4763ad" d="m 6.8008004,7.0019434 c -1.5512,0 -2.8008,1.2495821 -2.8008,2.8007599 l 0,35.1974967 L 60,45.0002 60,9.8007034 c 0,-1.5511779 -1.25,-2.80076 -2.8,-2.80076 l -50.3999996,0 z"/>
 <path style="fill:#6194bf" d="m 6.8000004,57.000028 c -1.5512001,0 -2.8,-1.247982 -2.8,-2.79996 l 0,-9.199868 55.9999996,0 0,9.199868 c 0,1.551178 -1.2488,2.79996 -2.8,2.79996 z"/>
 <circle style="opacity:0.2" cx="37" cy="52" r="3"/>
 <circle style="opacity:0.2" cx="44.999" cy="52" r="3"/>
 <circle style="opacity:0.2" cx="53" cy="52" r="3"/>
 <circle style="fill:#ffffff" cx="37" cy="51" r="3"/>
 <circle style="fill:#ffffff" cx="44.999" cy="51" r="3"/>
 <circle style="fill:#ffffff" cx="53" cy="51" r="3"/>
 <path style="opacity:0.1;fill:#ffffff" d="M 6.8007812,7 C 5.2496034,7 4,8.2493467 4,9.8002057 L 4,10.8 C 4,9.2491415 5.2496034,7.9997945 6.8007812,7.9997945 l 50.3984378,0 C 58.749196,7.9997945 60,9.2491415 60,10.8 L 60,9.8002057 C 60,8.2493467 58.749196,7 57.199219,7 L 6.8007812,7 Z"/>
 <path style="opacity:0.2" d="m 4,54.2 0,0.999795 C 4,56.749454 5.2496034,58 6.8007812,58 L 57.199219,58 C 58.749196,58 60,56.749454 60,55.199795 L 60,54.2 c 0,1.54966 -1.250804,2.800205 -2.800781,2.800205 l -50.3984378,0 C 5.2496034,57.000205 4,55.74966 4,54.2 Z"/>
 <rect style="opacity:0.2" width="23" height="17" x="14" y="16" rx="2.875" ry="2.833"/>
 <rect style="fill:#ffffff" width="23" height="17" x="14" y="15" rx="2.875" ry="2.833"/>
 <path style="opacity:0.2" d="m 33.4,21.8 c 0,0 7,4.4 7,14.2 h -5.6 l 8.4,11 8.4,-11 H 46 C 46,23.4 33.4,21.8 33.4,21.8 Z"/>
 <path style="fill:#8fff08" d="m 33.4,20.8 c 0,0 7,4.4 7,14.2 h -5.6 l 8.4,11 8.4,-11 H 46 C 46,22.4 33.4,20.8 33.4,20.8 Z"/>
 <rect style="opacity:0.2;fill:#ffffff" width="56" height="1" x="4" y="45"/>
</svg>
