<?xml version="1.0" encoding="utf-8"?>
<svg version="1.1" xmlns="http://www.w3.org/2000/svg" x="0" y="0" width="64" height="64" viewBox="0 0 64 64" xml:space="preserve">
 <g>
  <path opacity=".2" d="M14.899,14.204c-3.536-3.433-10.22-9.825-11.345-8.596 C2.5,6.761,8.764,13.292,12.269,16.833L14.899,14.204z"/>
  <path opacity=".2" d="M5.107,31.984c-0.021,0.375-0.035,0.751-0.042,1.125 C5.065,47.96,17.106,60,31.958,60S58.85,47.96,58.85,33.108c-0.01-0.265-0.021-0.529-0.04-0.795 C58.206,46.709,46.365,58.07,31.96,58.079C17.427,58.063,5.538,46.509,5.107,31.984L5.107,31.984z"/>
  <path fill="#666666" d="M32.01,5.181c-14.859,0-26.904,12.045-26.904,26.905c0,14.858,12.045,26.904,26.904,26.904 c14.859,0,26.904-12.046,26.904-26.904C58.914,17.226,46.869,5.181,32.01,5.181z"/>
  <path opacity=".2" d="M13.157,16.686c-0.532-0.538-1.149-1.164-1.808-1.844 c0,0,0.153-0.174,0.527-0.601c0.563-0.642,1.045-1.11,1.045-1.11c0.016,0.017,1.765,1.922,1.781,1.939L13.157,16.686"/>
  <path opacity=".1" fill="#FFFFFF" d="M32.02,5.181C17.156,5.182,5.107,17.231,5.107,32.096 c0.006,0.128,0.012,0.26,0.021,0.39C5.437,17.853,17.385,6.203,32.021,6.194l0,0c14.701,0.01,26.675,11.764,26.894,26.465 c0.009-0.187,0.015-0.376,0.021-0.563c0-14.864-12.05-26.914-26.913-26.915H32.02z"/>
 </g>
 <g>
  <path opacity=".2" d="M7.067,32.033c-0.02,0.347-0.032,0.698-0.038,1.046 c0,13.791,11.18,24.97,24.973,24.97c13.79,0,24.97-11.179,24.97-24.97c-0.01-0.247-0.021-0.493-0.036-0.74 C56.372,45.706,45.38,56.256,32.002,56.264C18.508,56.25,7.468,45.519,7.067,32.033L7.067,32.033z"/>
  <path display="none" opacity=".7" fill="#41E583" d="M32.02,7.133 c-13.78,0-24.951,11.171-24.951,24.952c0,13.783,11.171,24.95,24.951,24.95c13.782,0,24.952-11.167,24.952-24.95 C56.972,18.305,45.802,7.133,32.02,7.133z"/>
  <path fill="#C1E27F" d="M33.013,30.871l1.368,26.054c7.483-0.7,14.004-4.708,18.091-10.541L33.013,30.871z"/>
  <path fill="#C94C8E" d="M29.959,7.216c-7.502,0.613-14.065,4.545-18.217,10.324l21.27,13.33L29.959,7.216z"/>
  <path fill="#E88B63" d="M56.846,29.557C56.11,22.27,52.244,15.907,46.61,11.84L33.013,30.873L56.846,29.557z"/>
  <path fill="#3BE4EB" d="M33.013,30.871L7.211,34.768c0.779,7.282,4.688,13.624,10.356,17.657L33.013,30.871z"/>
  <path fill="#E03378" d="M47.222,12.286c-4.247-3.298-9.598-5.152-15.264-5.152c-1.144,0-2.269,0.077-3.371,0.226l4.426,23.513 L47.222,12.286z"/>
  <path fill="#70AACE" d="M33.013,30.871l-20.83-13.923c-3.208,4.198-5.115,9.445-5.115,15.136c0,1.148,0.078,2.278,0.228,3.384 L33.013,30.871z"/>
  <path fill="#63D6A2" d="M33.013,30.871L16.957,51.978c4.185,3.175,9.404,5.058,15.064,5.058c1.208,0,2.397-0.087,3.562-0.253 L33.013,30.871z"/>
  <path fill="#F2EB5E" d="M51.971,47.049c3.143-4.172,5.003-9.362,5.003-14.987c0-1.158-0.079-2.295-0.231-3.411l-23.728,2.219 L51.971,47.049z"/>
  <path opacity=".2" fill="#FFFFFF" d="M32.018,7.133C18.243,7.134,7.077,18.268,7.077,32 c0.004,0.119,0.011,0.243,0.019,0.359C7.382,18.842,18.456,8.154,32.018,8.146l0,0C45.643,8.155,56.744,18.94,56.943,32.521 c0.011-0.172,0.015-0.344,0.019-0.519C56.962,18.268,45.798,7.134,32.018,7.133L32.018,7.133z"/>
 </g>
 <g>
  <path opacity=".2" d="M15.83,13.083c4.904,4.672,14.406,15.39,14.406,15.39l6.787,7.077 c0,0-0.796-0.052-1.44,0.026c-0.699,0.085-1.047,0.131-1.047,0.131l-5.911-5.623c0,0-10.822-9.702-15.457-14.367 c0,0,0.442-0.501,0.978-1.06C14.958,13.807,15.83,13.083,15.83,13.083z"/>
  <g>
   <g>
    <g>
     <path opacity=".1" d="M27.846,36.938c1.013,0.584,2.105,0.586,2.444,0.002 c0.152-0.263,0.115-0.603-0.055-0.947c-0.384,0.511-1.419,0.49-2.389-0.067c-0.557-0.32-0.965-0.75-1.171-1.168 c-0.018,0.023-0.041,0.042-0.055,0.065C26.284,35.405,26.831,36.353,27.846,36.938z"/>
     <path opacity=".1" d="M35.96,50.314c-9.122,0.246-16.368-5.108-19.676-10.064 c-2.709-4.061-4.303-8.316-4.501-13.543c-0.014-0.028-0.026-0.055-0.04-0.083c0,5.744,1.643,10.296,4.541,14.639 c3.308,4.956,10.554,10.312,19.676,10.064c3.503-0.095,11.684-2.35,11.684-7.289c0-0.225-0.019-0.438-0.038-0.651 C47.208,48.07,39.374,50.222,35.96,50.314z"/>
    </g>
   </g>
  </g>
  <g transform="translate(0,960)" opacity=".5">
   <path fill="#5596EA" d="M11.743-934.389L11.743-934.389c0,5.744,1.643,10.296,4.541,14.639 c3.308,4.956,10.554,10.311,19.676,10.064c3.503-0.095,11.684-2.351,11.684-7.289c0-8.724-15.997-8.686-15.705-5.636 c0.447,4.711-8.183,1.849-11.898-0.723C16.161-926.02,13.958-929.61,11.743-934.389z M29.064-926.188 c-1.013-0.585-2.107-0.587-2.444-0.003c-0.336,0.582,0.211,1.529,1.226,2.114c1.013,0.585,2.105,0.587,2.444,0.003 C30.626-924.657,30.08-925.603,29.064-926.188z"/>
  </g>
  <g transform="translate(0,960)" opacity=".1">
   <path fill="#FFFFFF" d="M11.743-934.389c0,0,0.549,5.372,6.863,10.967c2.597,2.3,7.703,4.377,10.576,4.377 c2.301,0,3.501-0.877,3.651-1.975c0.127-0.922-0.148-1.544,0.534-1.96c1.077-0.654,4.475-0.544,7.685,0.021 c5.898,1.036,6.593,5.979,6.593,5.979c0-8.723-15.997-8.686-15.705-5.635c0.446,4.71-8.183,1.849-11.898-0.723 C16.161-926.02,13.958-929.61,11.743-934.389L11.743-934.389 M30.29-924.073c0.336-0.582-0.21-1.529-1.226-2.113 c-1.013-0.586-2.107-0.588-2.444-0.004c-0.084,0.146-0.113,0.314-0.093,0.494c0,0,0.598-0.488,1.703-0.146 C30.175-925.241,30.29-924.073,30.29-924.073z"/>
  </g>
 </g>
 <g>
  <path opacity=".2" d="M44.241,43.025l0.797-3.703c0.896,1.934,0.703,3.958-0.173,5.741 c-1.442,2.932-3.679,2.387-3.679,2.387s2.139-0.618,2.129-1.926c-0.013-1.348-1.318-2.343-2.105-2.651 c-2.045-0.807-4.325-2.326-4.941-4.255c-0.324-1.02-0.303-2.561-0.303-2.561l-0.493-0.47c0,0,0-0.025,0.649-0.037L44.241,43.025z"/>
  <path fill="#4D4D4D" d="M3.555,1.556c1.334-1.459,10.501,7.819,12.939,10.142c4.904,4.671,13.903,14.927,13.903,14.927l-1.54,1.655 c0,0-10.262-9.131-14.896-13.796C11.57,12.076,2.289,2.94,3.555,1.556z"/>
  <polygon fill="#B3B3B3" points="30.24 26.45 37.33 34.26 36.31 35.38 28.62 28.06"/>
  <path fill="#333333" d="M44.865,44.048c-1.442,2.932-3.679,2.389-3.679,2.389s2.139-0.619,2.129-1.926 c-0.013-1.35-1.318-2.344-2.105-2.653c-2.045-0.808-4.325-2.327-4.941-4.255c-0.324-1.019-0.303-2.561-0.303-2.561l1.074-1.075 c0,0,2.929-0.899,5.842,1.592C45.953,38.187,46.173,41.389,44.865,44.048z"/>
  <g opacity=".1">
   <path fill="#FFFFFF" d="M36.583,34.424c0,0-15.121-16.402-20.679-21.838c-2.861-2.797-6.945-6.99-10.797-9.651 C3.56,1.865,3.442,2.008,3.442,2.008c-0.02-0.192,0.015-0.345,0.112-0.452c1.334-1.459,10.501,7.819,12.939,10.142 c4.904,4.671,13.741,14.748,13.741,14.748l7.098,7.815L36.583,34.424z"/>
   <path fill="#FFFFFF" d="M44.863,44.048c1.309-2.659,1.089-5.861-1.984-8.489c-2.913-2.491-5.841-1.592-5.841-1.592l-0.455,0.457 c0,0,1.864-0.106,3.867,0.777c2.067,0.912,3.742,2.299,4.676,4.721C45.973,42.113,44.863,44.048,44.863,44.048z"/>
   <path fill="#FFFFFF" d="M41.187,46.437c0,0,2.139-0.617,2.129-1.926c-0.006-0.614-0.281-1.159-0.654-1.595 c0,0,0.836,0.602,0.836,1.76C43.497,45.992,41.187,46.437,41.187,46.437z"/>
  </g>
 </g>
</svg>
