<svg xmlns="http://www.w3.org/2000/svg" width="64" height="64" version="1">
 <rect style="opacity:0.2" width="16.8" height="16.8" x="-9.07" y="11.67" rx="2.8" ry="2.8" transform="matrix(0.70710678,-0.70710678,0.70710678,0.70710678,0,0)"/>
 <rect style="opacity:0.2" width="57.999" height="57.999" x="-62" y="-61" rx="29" ry="29" transform="matrix(0,-1,-1,0,0,0)"/>
 <rect style="fill:#048ede" width="16.8" height="16.8" x="-8.38" y="10.98" rx="2.8" ry="2.8" transform="matrix(0.70710678,-0.70710678,0.70710678,0.70710678,0,0)"/>
 <path style="opacity:0.1;fill:#ffffff" d="M 13.722656 2.9589844 C 13.007068 2.9589844 12.290578 3.2309061 11.742188 3.7792969 L 3.8242188 11.699219 C 3.1498715 12.373566 2.8989404 13.299339 3.0546875 14.167969 C 3.1535439 13.631473 3.4070599 13.118331 3.8242188 12.701172 L 11.742188 4.7792969 C 12.290578 4.2309061 13.007068 3.9589844 13.722656 3.9589844 C 14.438444 3.9589844 15.154535 4.2309061 15.703125 4.7792969 L 23.621094 12.701172 C 24.036645 13.117341 24.291392 13.62895 24.390625 14.164062 C 24.544531 13.29659 24.293409 12.372533 23.621094 11.699219 L 15.703125 3.7792969 C 15.154535 3.2309061 14.438444 2.9589844 13.722656 2.9589844 z"/>
 <rect style="fill:#07aef5" width="57.999" height="57.999" x="-61" y="-61" rx="29" ry="29" transform="matrix(0,-1,-1,0,0,0)"/>
 <circle style="opacity:0.2" cx="32" cy="33" r="21"/>
 <circle style="fill:#ffffff" cx="32" cy="32.001" r="21"/>
 <g style="opacity:0.1" transform="matrix(1.9999662,0,0,1.9999662,-0.99975222,2.000845)">
  <circle cx="16.5" cy="23.5" r="1.5"/>
  <circle cx="16.5" cy="7.5" r="1.5"/>
  <circle cx="15.5" cy="-8.5" r="1.5" transform="matrix(0,1,-1,0,0,0)"/>
  <circle cx="15.5" cy="-24.5" r="1.5" transform="matrix(0,1,-1,0,0,0)"/>
 </g>
 <rect style="fill:#ff8b29" width="6" height="18" x="40.77" y="-3.39" rx="3" ry="2.572" transform="matrix(0.8660254,0.50000001,-0.50000001,0.8660254,0,0)"/>
 <circle style="opacity:0.1" cx="32" cy="33" r="5"/>
 <circle style="fill:#4d4d4d" cx="32" cy="32.001" r="5"/>
 <g style="fill:#4d4d4d" transform="matrix(1.9999662,0,0,1.9999662,-0.99975222,1.0010478)">
  <circle cx="16.5" cy="23.5" r="1.5"/>
  <circle cx="16.5" cy="7.5" r="1.5"/>
  <circle cx="15.5" cy="-8.5" r="1.5" transform="matrix(0,1,-1,0,0,0)"/>
  <circle cx="15.5" cy="-24.5" r="1.5" transform="matrix(0,1,-1,0,0,0)"/>
 </g>
 <path style="opacity:0.2;fill:#ffffff" d="M 32 3.0019531 C 15.934272 3.0019531 3 15.934271 3 32 C 3 32.11092 3.0114739 32.218793 3.0175781 32.328125 C 3.3741736 16.576952 16.160105 4.0019531 32 4.0019531 C 47.839896 4.0019531 60.625825 16.576952 60.982422 32.328125 C 60.988564 32.218793 61 32.11092 61 32 C 60.999999 15.934271 48.065729 3.0019531 32 3.0019531 z"/>
</svg>
