<svg width="64" height="64" version="1.1" xmlns="http://www.w3.org/2000/svg">
 <circle cx="32" cy="33" r="28" style="opacity:.2"/>
 <circle cx="32" cy="32" r="28" style="fill:#31aae4"/>
 <path d="M 32,4 A 28,28 0 0 0 4,32 28,28 0 0 0 4.0215,32.586 28,28 0 0 1 32,5 28,28 0 0 1 59.979,32.414 28,28 0 0 0 60,32 28,28 0 0 0 32,4 Z" style="fill:#ffffff;opacity:.2"/>
 <path d="m32 11c-12.150264 0-22 9.849736-22 22s9.849736 22 22 22 22-9.849736 22-22-9.849736-22-22-22zm0 3c10.63148 0 19 8.36852 19 19-0.0083 8.838208-5.784202 16.035545-14.36206 18.164949-0.121949-0.30795 0.02738-0.63659 0.05993-0.743898 0.164884-0.543703 0.282192-0.777524 0.322266-1.53067 0.06349-1.193197 0.342822-3.086 1.099455-3.947754 0.665528-0.758 0.792566-1.362456 0.805662-3.824218 0.01086-2.037905 0.03349-2.276676 0.295411-3.190431 0.445845-1.555464 1.182797-2.652765 1.722209-3.440186 0.274134-0.400174 0.711116-1.114506 0.97217-1.587157 0.261045-0.472662 0.641145-1.109935 0.843262-1.415283 0.528-0.797685 2.205484-1.899893 2.762794-2.161865 0.622832-0.292761 1.109001-1.080764 1.33607-1.764404 0.23341-0.702734 0.162637-1.811352-0.142333-2.218262-0.179717-0.239787-0.09411-0.281983-0.554577-0.281983-0.421727 0-0.604031-0.05579-0.813721-0.252441-0.288425-0.270502-0.499512-0.234282-0.499512 0.08594 0 0.251146-0.9322 0.72913-1.044044 0.617676-0.04658-0.04642 6.46e-4 -0.312295 0.107428-0.59082 0.391213-1.020785 0.519012-1.671501 0.456543-2.331055-0.103001-1.087488-0.780259-2.551585-1.149414-2.622715-0.08877-0.01711-0.571076 0.312046-1.071534 0.733154-2.609788 2.196025-4.594381 3.154017-5.975341 3.988777-0.658987 0.398314-0.661077 0.397407-1.772461 0.373292-1.315854-0.02853-1.087393-0.0201-3.282207 1.310482-0.760181 0.460855-1.617396 1.439951-1.904053 1.548872-0.288108 0.109477-1.201138-0.03291-2.043701 0.0537-1.730447 0.177854-1.793776 0.283974-2.441234 0.657959-0.640296 0.369845-0.802237 0.645314-0.666015 1.138672 0.133389 0.483072 0.442183 1.434241 1.294505 2.271974l0.641845 0.83148-0.49414 0.765382c-0.272803 0.421181-0.684381 1.199665-0.913086 1.729491-0.45453 1.052987-0.579051 1.250698-1.485107 2.365967-0.784915 0.966141-2.065923 2.355925-2.878438 3.947754-0.694827 1.361266-1.028717 1.714097-2.304198 2.443848-0.319051 0.182543-0.712331 0.489295-1.117188 0.679444-2.625533-3.375554-3.802306-7.52926-3.805186-11.805671 0-10.63148 8.36852-19 19-19zm3.034 12.269417-0.890532 1.270265-1.597902 0.222899 0.993653-1.270263z" style="opacity:.2"/>
 <path d="m32 10c-12.150264 0-22 9.849736-22 22s9.849736 22 22 22 22-9.849736 22-22-9.849736-22-22-22zm0 3c10.63148 0 19 8.36852 19 19-0.0083 8.838208-5.784202 16.035545-14.36206 18.164949-0.121949-0.30795 0.02738-0.63659 0.05993-0.743898 0.164884-0.543703 0.282192-0.777524 0.322266-1.53067 0.06349-1.193197 0.342822-3.086 1.099455-3.947754 0.665528-0.758 0.792566-1.362456 0.805662-3.824218 0.01086-2.037905 0.03349-2.276676 0.295411-3.190431 0.445845-1.555464 1.182797-2.652765 1.722209-3.440186 0.274134-0.400174 0.711116-1.114506 0.97217-1.587157 0.261045-0.472662 0.641145-1.109935 0.843262-1.415283 0.528-0.797685 2.205484-1.899893 2.762794-2.161865 0.622832-0.292761 1.109001-1.080764 1.33607-1.764404 0.23341-0.702734 0.162637-1.811352-0.142333-2.218262-0.179717-0.239787-0.09411-0.281983-0.554577-0.281983-0.421727 0-0.604031-0.05579-0.813721-0.252441-0.288425-0.270502-0.499512-0.234282-0.499512 0.08594 0 0.251146-0.9322 0.72913-1.044044 0.617676-0.04658-0.04642 6.46e-4 -0.312295 0.107428-0.59082 0.391213-1.020785 0.519012-1.671501 0.456543-2.331055-0.103001-1.087488-0.780259-2.551585-1.149414-2.622715-0.08877-0.01711-0.571076 0.312046-1.071534 0.733154-2.609788 2.196025-4.594381 3.154017-5.975341 3.988777-0.658987 0.398314-0.661077 0.397407-1.772461 0.373292-1.315854-0.02853-1.087393-0.0201-3.282207 1.310482-0.760181 0.460855-1.617396 1.439951-1.904053 1.548872-0.288108 0.109477-1.201138-0.03291-2.043701 0.0537-1.730447 0.177854-1.793776 0.283974-2.441234 0.657959-0.640296 0.369845-0.802237 0.645314-0.666015 1.138672 0.133389 0.483072 0.442183 1.434241 1.294505 2.271974l0.641845 0.83148-0.49414 0.765382c-0.272803 0.421181-0.684381 1.199665-0.913086 1.729491-0.45453 1.052987-0.579051 1.250698-1.485107 2.365967-0.784915 0.966141-2.065923 2.355925-2.878438 3.947754-0.694827 1.361266-1.028717 1.714097-2.304198 2.443848-0.319051 0.182543-0.712331 0.489295-1.117188 0.679444-2.625533-3.375554-3.802306-7.52926-3.805186-11.805671 0-10.63148 8.36852-19 19-19zm3.034 12.269417-0.890532 1.270265-1.597902 0.222899 0.993653-1.270263z" style="fill:#ffffff"/>
</svg>
