<svg width="64" height="64" version="1" xmlns="http://www.w3.org/2000/svg">
 <rect x="4" y="5" width="56" height="56" rx="2.8" ry="2.8" style="opacity:.2"/>
 <rect x="4" y="4" width="56" height="56" rx="2.8" ry="2.8" style="fill:#636e72"/>
 <g transform="translate(8,7)">
  <rect x="10" y="4" width="28" height="24" rx="1.5" ry="1.5" style="fill:#5294e2"/>
  <rect x="8" y="8" width="32" height="24" rx="1.5" ry="1.5" style="fill:#89e058"/>
  <rect x="6" y="12" width="36" height="24" rx="1.5" ry="1.5" style="fill:#ffcd54"/>
  <rect x="4" y="17" width="40" height="28" rx="2" ry="2" style="opacity:.2"/>
  <rect x="4" y="16" width="40" height="28" rx="2" ry="2" style="fill:#8e8e8e"/>
  <rect x="17" y="28" width="14" height="4" rx="1" ry="1" style="opacity:.2"/>
  <rect x="17" y="27" width="14" height="4" rx="1" ry="1" style="fill:#ececec"/>
  <path d="m11.5 4c-0.831 0-1.5 0.669-1.5 1.5v1c0-0.831 0.669-1.5 1.5-1.5h25c0.831 0 1.5 0.669 1.5 1.5v-1c0-0.831-0.669-1.5-1.5-1.5z" style="fill:#ffffff;opacity:.1"/>
  <path d="m9.5 8c-0.831 0-1.5 0.669-1.5 1.5v1c0-0.831 0.669-1.5 1.5-1.5h29c0.831 0 1.5 0.669 1.5 1.5v-1c0-0.831-0.669-1.5-1.5-1.5z" style="fill:#ffffff;opacity:.1"/>
  <path d="m7.5 12c-0.831 0-1.5 0.669-1.5 1.5v1c0-0.831 0.669-1.5 1.5-1.5h33c0.831 0 1.5 0.669 1.5 1.5v-1c0-0.831-0.669-1.5-1.5-1.5z" style="fill:#ffffff;opacity:.1"/>
  <path d="m9.5 7c-0.831 0-1.5 0.669-1.5 1.5v1c0-0.831 0.669-1.5 1.5-1.5h29c0.831 0 1.5 0.669 1.5 1.5v-1c0-0.831-0.669-1.5-1.5-1.5z" style="opacity:.1"/>
  <path d="m7.5 11c-0.831 0-1.5 0.669-1.5 1.5v1c0-0.831 0.669-1.5 1.5-1.5h33c0.831 0 1.5 0.669 1.5 1.5v-1c0-0.831-0.669-1.5-1.5-1.5z" style="opacity:.1"/>
 </g>
 <path d="M 6.8007812 4 C 5.2495812 4 4 5.2495812 4 6.8007812 L 4 7.8007812 C 4 6.2495812 5.2495812 5 6.8007812 5 L 57.199219 5 C 58.750419 5 60 6.2495813 60 7.8007812 L 60 6.8007812 C 60 5.2495813 58.750419 4 57.199219 4 L 6.8007812 4 z" style="fill:#ffffff;opacity:.1"/>
 <g>
  <circle cx="48" cy="47" r="16" style="opacity:.2"/>
  <circle cx="48" cy="46" r="16" style="fill:#6ec149"/>
  <path d="m46 38-0.1764 2.1072a6.2858 6.2858 0 0 0-1.83704 1.06252l-1.91518-0.9018-2 3.4642 1.73882 1.2076a6.2858 6.2858 0 0 0-0.096 1.06026 6.2858 6.2858 0 0 0 0.0914 1.06474l-1.73438 1.20312 2 3.4642 1.91072-0.89956a6.2858 6.2858 0 0 0 1.8415 1.0558l0.1764 2.1116h4l0.1764-2.1072a6.2858 6.2858 0 0 0 1.83708-1.06252l1.91516 0.9018 2-3.4642-1.73884-1.2076a6.2858 6.2858 0 0 0 0.096-1.06026 6.2858 6.2858 0 0 0-0.0914-1.06474l1.73438-1.20312-2-3.4642-1.91072 0.89956a6.2858 6.2858 0 0 0-1.842-1.056l-0.176-2.112h-4zm2 5.7144a2.2858 2.2858 0 0 1 2.286 2.286 2.2858 2.2858 0 0 1-2.286 2.286 2.2858 2.2858 0 0 1-2.286-2.286 2.2858 2.2858 0 0 1 2.286-2.286z" style="fill:#ffffff"/>
 </g>
</svg>
