<svg xmlns="http://www.w3.org/2000/svg" width="64" height="64" version="1">
 <path style="opacity:0.2" d="M 61.96,31.828 A 30,30 0 0 1 32,61 30,30 0 0 1 2.04,32.172 30,30 0 0 0 2,33 30,30 0 0 0 32,63 30,30 0 0 0 62,33 30,30 0 0 0 61.96,31.828 Z"/>
 <path style="fill:#4f4f4f" d="M 62,32 A 30,30 0 0 1 32,62 30,30 0 0 1 2,32 30,30 0 0 1 32,2 30,30 0 0 1 62,32 Z"/>
 <path style="opacity:0.1;fill:#ffffff" d="M 31.998047 2 A 30 30 0 0 0 2 32 A 30 30 0 0 0 2.0175781 32.511719 A 30 30 0 0 1 31.998047 3 L 32 3 A 30 30 0 0 1 61.974609 32.511719 A 30 30 0 0 0 61.998047 32 A 30 30 0 0 0 32 2 L 31.998047 2 z"/>
 <path style="opacity:0.1;fill:#ffffff" d="M 15.3722,7.0636 C 7.3212,12.4326 2.0334,21.592 2.0334,32.0356 l 24,0 c 0,-2.4314 1.454,-4.5126 3.5332,-5.455 L 15.368,7.0654 Z"/>
 <path style="opacity:0.1;fill:#ffffff" d="M 48.628,56.936 C 56.6792,51.567 61.9668,42.4076 61.9668,31.964 l -24,0 c 0,2.4314 -1.454,4.5126 -3.5332,5.455 L 48.628,56.9366 Z"/>
 <path style="opacity:0.2" d="m 32,21 c -6.648,0 -12,5.352 -12,12 0,6.648 5.352,12 12,12 6.648,0 12,-5.352 12,-12 0,-6.648 -5.352,-12 -12,-12 z"/>
 <path style="fill:#ffffff" d="M 32 20 L 32 44 C 38.648 44 44 38.648 44 32 C 44 25.352 38.648 20 32 20 z"/>
 <path style="fill:#fe4b4b" d="M 32,20 V 44 C 25.352,44 20,38.648 20,32 20,25.352 25.352,20 32,20 Z"/>
 <rect style="fill:#3f3f3f" width="8" height="8" x="28" y="-36" ry="4" transform="scale(1,-1)"/>
</svg>
