<svg xmlns="http://www.w3.org/2000/svg" width="64" height="64" version="1">
 <path style="opacity:0.2" d="M 20.8,5 C 11.4928,5 4,12.4928 4,21.8 V 44.2 C 4,53.5072 11.4928,61 20.8,61 H 43.2 C 52.5072,61 60,53.5072 60,44.2 V 21.8 C 60,12.4928 52.5072,5 43.2,5 Z"/>
 <path style="fill:#219652" d="M 20.8,4 C 11.4928,4 4,11.4928 4,20.8 V 43.2 C 4,52.5072 11.4928,60 20.8,60 H 43.2 C 52.5072,60 60,52.5072 60,43.2 V 20.8 C 60,11.4928 52.5072,4 43.2,4 Z"/>
 <path style="opacity:0.1" d="M 10.074219,8.8515624 C 8.6056654,10.067652 7.365704,11.537434 6.3828124,13.183594 L 49.761718,57.679688 c 1.803798,-0.761978 3.433598,-1.843642 4.847658,-3.152344 L 35.960938,35.402344 57.617188,13.1875 C 56.63412,11.540522 55.394932,10.068145 53.925782,8.8515624 L 32,31.339844 Z"/>
 <path style="fill:#eff0f1" d="M 10.075781,7.8527344 C 8.607228,9.0688234 7.364532,10.537824 6.3816406,12.183984 L 51.091406,58.042186 c 1.700208,-0.902626 3.21346,-2.098168 4.50078,-3.505468 L 35.959374,34.400782 57.61836,12.186719 C 56.635292,10.539741 55.393368,9.0693172 53.924218,7.8527344 L 32,30.340234 Z"/>
 <path style="fill:#f64d4d" d="M 54.974218,8.8070314 31.010156,33.386328 a 1.4001337,1.4360336 0 0 0 0,2.028906 l 7.298046,7.486718 C 37.993078,41.45737 37.766798,40.3125 37.766798,40.3125 c 0,0 1.11161,0.232264 2.518358,0.555078 l -6.30547,-6.466796 22.84297,-23.428126 C 56.265234,10.199667 55.652482,9.4728978 54.974218,8.8070314 Z"/>
 <path style="fill:#fdbc4b" d="m 4.0000246,26.850404 v 5.858964 c 0.169366,0.04456 0.3368572,0.09234 0.50064,0.14618 1.2061978,0.396594 2.301499,1.05308 3.1188658,1.892144 1.3283298,1.363592 2.2331142,3.59317 3.2172566,6.17061 0.99605,2.60863 2.197637,5.74937 4.892806,8.10876 2.689721,2.354618 5.967233,3.105624 8.824127,3.503806 2.828962,0.39427 5.3659,0.51323 7.441578,1.169418 1.950482,0.616618 3.7793,1.7611 5.24875,3.261904 0.873632,0.892262 1.62635,1.922722 2.243476,3.037816 h 6.17406 c -0.98225,-2.645748 -2.488706,-5.087604 -4.46596,-7.10704 C 39.096586,50.74914 36.50692,49.11566 33.644802,48.210838 30.625346,47.256278 27.761736,47.18164 25.30757,46.839592 22.881336,46.50144 20.731366,45.853552 19.365736,44.658062 17.991915,43.4554 17.006245,41.324688 16.051535,38.824326 15.084917,36.29278 14.03399,33.206722 11.581234,30.688856 10.047143,29.114042 8.1714118,28.031954 6.209492,27.386882 5.4764514,27.145862 4.7373832,26.974352 4.0000246,26.850404 Z"/>
 <path style="fill:#2980b9" d="M 4,29.763282 V 43.2 C 4,52.5072 11.4928,60 20.8,60 H 42.63125 C 41.797642,58.118952 40.645884,56.385318 39.21875,54.927734 37.434506,53.105418 35.22661,51.71541 32.820314,50.954686 30.272744,50.149308 27.573206,50.054104 24.93164,49.685936 22.290076,49.317776 19.576502,48.61724 17.548828,46.842186 15.514332,45.06116 14.419913,42.426758 13.444532,39.872266 12.46915,37.317772 11.490543,34.659868 9.6,32.71914 8.4242714,31.512204 6.940309,30.642316 5.35625,30.121484 4.91146,29.975238 4.4576028,29.856866 4,29.763282 Z"/>
 <path style="opacity:0.1" d="m 40,42.999814 c 0,0 1.83629,10.03664 4.100528,12.301232 2.264426,2.264818 5.936046,2.265052 8.200764,5.32e-4 2.264944,-2.264716 2.264944,-5.93687 0,-8.201586 C 50.036574,44.83547 40,42.999814 40,42.999814 Z"/>
 <path style="fill:#f64d4d" d="m 40,42 c 0,0 1.83629,10.03664 4.100528,12.301232 2.264426,2.264818 5.936046,2.265052 8.200764,5.32e-4 2.264944,-2.264716 2.264944,-5.93687 0,-8.201586 C 50.036574,43.835656 40,42 40,42 Z"/>
 <circle style="fill:#eff0f1" cx="-1.414" cy="69.296" r="3" transform="rotate(-45.000001)"/>
 <path style="opacity:0.2;fill:#ffffff" d="M 20.800781 4 C 11.49358 4 4 11.49358 4 20.800781 L 4 21.800781 C 4 12.49358 11.49358 5 20.800781 5 L 43.199219 5 C 52.506419 5 60 12.49358 60 21.800781 L 60 20.800781 C 60 11.49358 52.506419 4 43.199219 4 L 20.800781 4 z"/>
 <path style="opacity:0.1" d="M 4 29.763672 L 4 30.763672 C 4.4576028 30.857256 4.9106787 30.974848 5.3554688 31.121094 C 6.9395277 31.641926 8.4238808 32.511814 9.5996094 33.71875 C 11.490152 35.659478 12.469931 38.318553 13.445312 40.873047 C 14.420694 43.427539 15.514332 46.060771 17.548828 47.841797 C 19.576502 49.616851 22.290077 50.317387 24.931641 50.685547 C 27.573207 51.053715 30.272742 51.1497 32.820312 51.955078 C 35.226608 52.715802 37.434506 54.105418 39.21875 55.927734 C 40.3876 57.121523 41.360809 58.506539 42.136719 60 L 42.630859 60 C 41.797251 58.118952 40.645884 56.385318 39.21875 54.927734 C 37.434506 53.105418 35.226608 51.715802 32.820312 50.955078 C 30.272742 50.1497 27.573207 50.053715 24.931641 49.685547 C 22.290077 49.317387 19.576502 48.616851 17.548828 46.841797 C 15.514332 45.060771 14.420694 42.427539 13.445312 39.873047 C 12.469931 37.318553 11.490152 34.659478 9.5996094 32.71875 C 8.4238808 31.511814 6.9395277 30.641926 5.3554688 30.121094 C 4.9106787 29.974848 4.4576028 29.857256 4 29.763672 z"/>
</svg>
