<?xml version="1.0" encoding="UTF-8" standalone="no"?>
<svg xmlns="http://www.w3.org/2000/svg" height="64" width="64" version="1">
 <path style="opacity:0.2" d="m 5.0007996,54.110072 0,1.999971 C 5.0007996,57.710019 6.2041818,59 7.6999597,59 L 56.29924,59 c 1.495978,0 2.69996,-1.289981 2.69996,-2.889957 l 0,-1.999971 c 0,1.599977 -1.203982,2.889958 -2.69996,2.889958 l -48.5992803,0 c -1.4965779,0 -2.6999601,-1.289981 -2.6999601,-2.889958 z"/>
 <path style="fill:#5d5d5d" d="M 59,55.112072 59,8.8887565 C 59,7.2891801 57.796018,6.0007992 56.30004,6.0007992 l -48.5992804,0 c -1.4957778,0 -2.69996,1.2883809 -2.69996,2.8887572 l 0,46.2233156 c 0,1.599977 1.2041822,2.887958 2.69996,2.887958 l 48.5992804,0 C 57.796018,58.00083 59,56.712849 59,55.112872 Z"/>
 <rect style="fill:#da6156" ry="2" height="41.999" width="6" y="12" x="11"/>
 <rect style="fill:#eb8644" ry="2" height="41.999" width="6" y="12" x="17"/>
 <rect style="fill:#ecb554" ry="2" height="41.999" width="6" y="12" x="23"/>
 <rect style="fill:#40a95d" ry="2" height="41.999" width="6" y="12" x="29"/>
 <rect style="fill:#4cb094" ry="2" height="41.999" width="6" y="12" x="35"/>
 <rect style="fill:#476eb9" ry="2" height="41.999" width="6" y="12" x="41"/>
 <rect style="fill:#a860a2" ry="2" height="41.999" width="6" y="12" x="47"/>
 <path style="fill:#5d5d5d" d="m 15.992837,10.00074 c -0.548392,0 -0.992185,0.637391 -0.992185,1.429579 l 0,23.139657 c 0,0.791989 0.443793,1.429979 0.992185,1.429979 l 2.01957,0 c 0.548392,0 0.988185,-0.63799 0.988185,-1.429979 l 0,-23.139657 c 0,-0.792588 -0.439793,-1.429979 -0.988185,-1.429979 l -2.01957,0 z m 5.995711,0 c -0.547992,0 -0.987985,0.637391 -0.987985,1.429579 l 0,23.139657 c 0,0.791989 0.439993,1.429979 0.987985,1.429979 l 2.02337,0 c 0.547992,0 0.987986,-0.63799 0.987986,-1.429979 l 0,-23.139657 c 0,-0.792588 -0.439994,-1.429979 -0.987986,-1.429979 l -2.02337,0 z m 11.999823,0 c -0.547992,0 -0.987986,0.637391 -0.987986,1.429579 l 0,23.139657 c 0,0.791989 0.439994,1.429979 0.987986,1.429979 l 2.02337,0 c 0.547992,0 0.987985,-0.63799 0.987985,-1.429979 l 0,-23.139657 c 0,-0.792588 -0.439993,-1.429979 -0.987985,-1.429979 l -2.02337,0 z m 5.999911,0 c -0.547992,0 -0.987986,0.637391 -0.987986,1.429579 l 0,23.139657 c 0,0.791989 0.439994,1.429979 0.987986,1.429979 l 2.02337,0 c 0.547992,0 0.987985,-0.63799 0.987985,-1.429979 l 0,-23.139657 c 0,-0.792588 -0.439993,-1.429979 -0.987985,-1.429979 l -2.02337,0 z m 5.999911,0 c -0.547992,0 -0.987985,0.637391 -0.987985,1.429579 l 0,23.139657 c 0,0.791989 0.439993,1.429979 0.987985,1.429979 l 2.02337,0 c 0.547992,0 0.987985,-0.63799 0.987985,-1.429979 l 0,-23.139657 c 0,-0.792588 -0.439993,-1.429979 -0.987985,-1.429979 l -2.02337,0 z"/>
 <path style="opacity:0.1;fill:#ffffff" d="M 15.992188 10 C 15.443796 10 15 10.637499 15 11.429688 L 15 12.429688 C 15 11.637499 15.443796 11 15.992188 11 L 18.011719 11 C 18.560111 11 19 11.6375 19 12.429688 L 19 11.429688 C 19 10.6375 18.560111 10 18.011719 10 L 15.992188 10 z M 21.988281 10 C 21.440289 10 21 10.637499 21 11.429688 L 21 12.429688 C 21 11.637499 21.440289 11 21.988281 11 L 24.011719 11 C 24.559711 11 25 11.6375 25 12.429688 L 25 11.429688 C 25 10.6375 24.559711 10 24.011719 10 L 21.988281 10 z M 33.988281 10 C 33.440289 10 33 10.637499 33 11.429688 L 33 12.429688 C 33 11.637499 33.440289 11 33.988281 11 L 36.011719 11 C 36.559711 11 37 11.6375 37 12.429688 L 37 11.429688 C 37 10.6375 36.559711 10 36.011719 10 L 33.988281 10 z M 39.988281 10 C 39.440289 10 39 10.637499 39 11.429688 L 39 12.429688 C 39 11.637499 39.440289 11 39.988281 11 L 42.011719 11 C 42.559711 11 43 11.6375 43 12.429688 L 43 11.429688 C 43 10.6375 42.559711 10 42.011719 10 L 39.988281 10 z M 45.988281 10 C 45.440289 10 45 10.637499 45 11.429688 L 45 12.429688 C 45 11.637499 45.440289 11 45.988281 11 L 48.011719 11 C 48.559711 11 49 11.6375 49 12.429688 L 49 11.429688 C 49 10.6375 48.559711 10 48.011719 10 L 45.988281 10 z"/>
 <path style="color:#000000;opacity:0.2" d="M 15 33.570312 L 15 34.570312 C 15 35.362302 15.443796 36 15.992188 36 L 18.011719 36 C 18.560111 36 19 35.362302 19 34.570312 L 19 33.570312 C 19 34.362302 18.560111 35 18.011719 35 L 15.992188 35 C 15.443796 35 15 34.362302 15 33.570312 z M 21 33.570312 L 21 34.570312 C 21 35.362302 21.440289 36 21.988281 36 L 24.011719 36 C 24.559711 36 25 35.362302 25 34.570312 L 25 33.570312 C 25 34.362302 24.559711 35 24.011719 35 L 21.988281 35 C 21.440289 35 21 34.362302 21 33.570312 z M 33 33.570312 L 33 34.570312 C 33 35.362302 33.440289 36 33.988281 36 L 36.011719 36 C 36.559711 36 37 35.362302 37 34.570312 L 37 33.570312 C 37 34.362302 36.559711 35 36.011719 35 L 33.988281 35 C 33.440289 35 33 34.362302 33 33.570312 z M 39 33.570312 L 39 34.570312 C 39 35.362302 39.440289 36 39.988281 36 L 42.011719 36 C 42.559711 36 43 35.362302 43 34.570312 L 43 33.570312 C 43 34.362302 42.559711 35 42.011719 35 L 39.988281 35 C 39.440289 35 39 34.362302 39 33.570312 z M 45 33.570312 L 45 34.570312 C 45 35.362302 45.440289 36 45.988281 36 L 48.011719 36 C 48.559711 36 49 35.362302 49 34.570312 L 49 33.570312 C 49 34.362302 48.559711 35 48.011719 35 L 45.988281 35 C 45.440289 35 45 34.362302 45 33.570312 z"/>
 <path style="opacity:0.1;fill:#ffffff" d="M 7.6992188 6 C 6.2034408 6 5 7.2902487 5 8.890625 L 5 9.890625 C 5 8.2902487 6.2034408 7 7.6992188 7 L 56.298828 7 C 57.794806 7 59 8.2902487 59 9.890625 L 59 8.890625 C 59 7.2902487 57.794806 6 56.298828 6 L 7.6992188 6 z"/>
</svg>
