<svg xmlns="http://www.w3.org/2000/svg" width="64" height="64" version="1.1">
 <path style="opacity:0.2" d="m 48.753478,10.011355 c -2.555657,0.289314 -4.830061,1.596398 -7.26946,2.628293 -1.542523,0.655077 -2.92043,1.788558 -3.484343,3.366401 C 37.342379,15.376402 37.0282,14.665055 36.316097,14.143203 32.409305,11.280176 27.772653,9.718472 22.960757,10.042598 10.871729,9.976107 4.1690548,22.671703 3.9999999,31.197814 c 0.071871,9.825968 3.281599,16.028469 5.398386,21.10835 1.2853941,3.084893 4.8443021,4.524997 7.9139871,3.202376 3.222499,-1.277326 7.805475,-2.236291 8.687417,-5.510432 0.414096,0.405913 0.167218,0.326673 0.613276,0.710774 3.564248,3.072132 8.299129,5.287825 13.695181,5.287825 5.012162,0 9.591525,-2.253046 13.285029,-5.869722 3.693505,-3.616675 6.450861,-8.95152 6.406189,-15.183953 -0.07124,-9.657 -3.000473,-16.165423 -5.42573,-20.948232 -0.0805,-0.225413 -0.174412,-0.445808 -0.281247,-0.660002 -0.0078,-0.01696 -0.0156,-0.03388 -0.02344,-0.05077 -1.052232,-2.064136 -3.199216,-3.338051 -5.51557,-3.272673 z"/>
 <path style="fill:#4a5579" d="m 48.753478,9.0113752 c -2.555657,0.2893139 -4.830061,1.5963978 -7.26946,2.6282928 -1.542523,0.655077 -2.92043,1.788558 -3.484343,3.366401 C 37.342379,14.376422 37.0282,13.665075 36.316097,13.143223 32.409305,10.280196 27.772653,8.7184916 22.960757,9.0426179 10.871729,8.9761266 4.1690548,21.671723 3.9999999,30.197833 c 0.071871,9.825968 3.281599,16.028469 5.398386,21.108351 1.2853941,3.084892 4.8443021,4.524996 7.9139871,3.202375 3.222499,-1.277326 7.805475,-2.236291 8.687417,-5.510431 0.414096,0.405912 0.167218,0.326672 0.613276,0.710773 3.564248,3.072132 8.299129,5.287825 13.695181,5.287825 5.012162,0 9.591525,-2.253046 13.285029,-5.869722 3.693505,-3.616675 6.450861,-8.95152 6.406189,-15.183953 -0.07124,-9.656999 -3.000473,-16.165423 -5.42573,-20.948231 -0.0805,-0.225413 -0.174412,-0.445808 -0.281247,-0.660002 -0.0078,-0.01696 -0.0156,-0.03388 -0.02344,-0.05077 -1.052232,-2.064136 -3.199216,-3.3380513 -5.51557,-3.2726728 z"/>
 <path style="opacity:0.2" d="M 23.358341,16.027205 C 17.298875,16.434517 9.9335214,22.051927 10.000395,31.15175 10.063555,39.78828 12.671612,44.560184 14.937876,50 l 4.731286,-2.040414 C 16.968223,43.844013 12.942821,35.504761 13.17502,29.997379 c 0.15418,-3.629117 1.4192,-6.171431 3.616732,-8.219563 5.295995,-4.937918 12.596331,-3.77776 16.885512,1.488322 2.437161,3.104052 2.855119,7.663617 0.620437,10.993527 -3.791344,5.65023 -12.399428,2.903294 -12.992,-3.642633 -0.280498,-3.109845 2.706512,-5.503518 5.450176,-5.530544 -2.814254,-1.633104 -7.168448,1.380223 -6.932535,5.074974 0.69474,10.889288 12.548035,11.10163 16.203778,4.893519 C 42.55284,23.968797 31.472303,15.478977 23.363913,16.025275 Z"/>
 <path style="opacity:0.2" d="m 48.929327,16.000325 -5.105591,2.161361 c 3.075408,5.978811 6.644234,10.5609 6.649884,17.944115 0.0018,2.710828 -1.07159,5.782847 -3.615907,8.067165 -2.312676,2.074906 -5.327818,3.300641 -8.923011,2.795361 -3.760924,-0.528331 -6.346676,-2.27087 -7.960652,-4.255481 -2.534904,-3.383254 -2.954876,-7.704056 -0.907746,-10.868292 1.167639,-1.804019 3.760925,-3.337144 6.329726,-3.112362 4.531189,0.393848 7.067973,2.933688 7.028425,6.774193 -0.03954,3.907743 -2.777848,5.408206 -5.849486,5.141159 2.873892,1.28337 7.214869,-0.39577 7.197919,-4.701203 -0.0226,-5.802059 -3.888985,-8.595502 -8.062349,-8.618554 -4.310843,-0.02496 -6.695084,1.598445 -8.077415,3.798234 -1.382333,2.199787 -1.755225,5.100817 -1.600795,7.47159 0.158199,2.407277 1.883288,5.317916 4.495406,7.567654 C 33.136086,48.415 36.639,50 40.307641,50 c 5.90787,0 13.755525,-6.080633 13.691491,-15.016186 -0.06592,-8.937475 -2.640364,-14.24386 -5.071689,-18.979647 z"/>
 <path style="fill:#f9f9f9" d="m 23.358341,15.02728 c -6.059466,0.407312 -13.4248196,6.024722 -13.357946,15.124546 0.06316,8.636529 2.671217,13.408433 4.937481,18.84825 l 4.731286,-2.040415 C 16.968223,42.844088 12.942821,34.504836 13.17502,28.997455 c 0.15418,-3.629118 1.4192,-6.171431 3.616732,-8.219564 5.295995,-4.937918 12.596331,-3.77776 16.885512,1.488322 2.437161,3.104052 2.855119,7.663617 0.620437,10.993527 -3.791344,5.65023 -12.399428,2.903294 -12.992,-3.642633 -0.280498,-3.109845 2.706512,-5.503518 5.450176,-5.530544 -2.814254,-1.633104 -7.168448,1.380223 -6.932535,5.074974 0.69474,10.889288 12.548035,11.10163 16.203778,4.893519 C 42.55284,22.968872 31.472303,14.479052 23.363913,15.02535 Z"/>
 <path style="fill:#4696e2" d="m 48.929327,15.0004 -5.105591,2.161362 c 3.075408,5.978811 6.644234,10.560899 6.649884,17.944114 0.0018,2.710828 -1.07159,5.782847 -3.615907,8.067165 -2.312676,2.074906 -5.327818,3.300641 -8.923011,2.795361 -3.760924,-0.52833 -6.346676,-2.27087 -7.960652,-4.255481 -2.534904,-3.383254 -2.954876,-7.704056 -0.907746,-10.868292 1.167639,-1.804019 3.760925,-3.337144 6.329726,-3.112362 4.531189,0.393848 7.067973,2.933688 7.028425,6.774193 -0.03954,3.907743 -2.777848,5.408206 -5.849486,5.141159 2.873892,1.28337 7.214869,-0.39577 7.197919,-4.701203 -0.0226,-5.802059 -3.888985,-8.595502 -8.062349,-8.618554 -4.310843,-0.02496 -6.695084,1.598445 -8.077415,3.798234 -1.382333,2.199787 -1.755225,5.100817 -1.600795,7.47159 0.158199,2.407277 1.883288,5.317916 4.495406,7.567654 2.608351,2.249735 6.111265,3.834736 9.779906,3.834736 5.90787,0 13.755525,-6.080634 13.691491,-15.016187 -0.06592,-8.937475 -2.640364,-14.24386 -5.071689,-18.979647 z"/>
 <path style="fill:#f9f9f9" d="m 35.3741,25.599043 c 0.304035,1.056086 0.432808,2.159329 0.372283,3.250229 l 2.062462,0.616632 c 0.25535,-1.371841 0.246078,-2.680136 0.0221,-3.909257 z"/>
 <path style="opacity:0.1;fill:#ffffff" d="M 24.755859 9.0078125 C 24.160932 8.9905377 23.562424 9.002453 22.960938 9.0429688 C 10.871909 8.9764775 4.1690549 21.671156 4 30.197266 C 4.0017637 30.438389 4.014051 30.667501 4.0195312 30.904297 C 4.3306147 22.38339 11.006682 9.9772186 22.960938 10.042969 C 27.772833 9.7188423 32.409614 11.279551 36.316406 14.142578 C 37.028509 14.66443 37.342704 15.376212 38 16.005859 C 38.563913 14.428016 39.941852 13.295702 41.484375 12.640625 C 43.923774 11.60873 46.198249 10.301033 48.753906 10.011719 C 51.07026 9.9463404 53.217299 11.219067 54.269531 13.283203 C 54.277371 13.300093 54.285169 13.317024 54.292969 13.333984 C 54.399804 13.548178 54.493719 13.768728 54.574219 13.994141 C 56.96079 18.700656 59.829296 25.085767 59.988281 34.490234 C 59.991795 34.307896 60.001318 34.127282 60 33.943359 C 59.92876 24.28636 56.999476 17.776949 54.574219 12.994141 C 54.493719 12.768728 54.399804 12.548178 54.292969 12.333984 C 54.285169 12.317024 54.277371 12.300093 54.269531 12.283203 C 53.217299 10.219067 51.07026 8.9463402 48.753906 9.0117188 C 46.198249 9.3010326 43.923774 10.60873 41.484375 11.640625 C 39.941852 12.295702 38.563913 13.428016 38 15.005859 C 37.342704 14.376212 37.028509 13.66443 36.316406 13.142578 C 32.897963 10.637429 28.920351 9.1287361 24.755859 9.0078125 z"/>
</svg>
