<?xml version="1.0" encoding="utf-8"?>
<svg version="1.1" xmlns="http://www.w3.org/2000/svg" x="0" y="0" width="64" height="64" viewBox="0 0 64 64" xml:space="preserve">
 <g>
  <path opacity=".2" d="M59.375,50.567c0,1.094,0,2.178,0,2.584c0,1.186-0.208,1.406-1.188,1.406 c-0.563,0-4.597,0-4.597,0s0,3.744,0,4.425c0,1.271-0.194,1.419-1.375,1.419c-0.635,0-4.222,0-5.278,0 c-1.271,0-1.438-0.23-1.438-1.563c0-0.814,0-4.25,0-4.25s-3.583,0-4.416,0c-1.271,0-1.334-0.205-1.334-1.496 c0-0.463,0-1.59,0-2.692c0-0.981,0-1.946,0-2.405c0-1.234,0.167-1.469,1.313-1.469c0.563,0,0.937,0,0.937,0v-3.625l-2.845-1.313 c0,0,0,12.451,0,13.719c0,1.273-0.071,1.482-1.313,2.063c-0.887,0.415-3.85,1.816-5.125,2.438 c-1.216,0.593-1.216,0.593-2.435-0.032c-1.303-0.668-3.773-1.813-5.281-2.531c-1-0.476-0.938-0.912-0.938-2.143 c0-1.625,0-13.514,0-13.514l-2.938,1.403c0,0,0,2.55,0,3.656c0,1.228,0.084,1.287-1.188,1.903 c-1.493,0.729-3.708,1.798-4.938,2.406c-1.416,0.705-1.416,0.705-2.844-0.031c-1.236-0.637-3.753-1.819-5-2.438 c-1.031-0.509-1.031-0.509-1.031-1.951c0-0.354,0-1.304,0-2.643l28.959-9.588L59.375,50.567z"/>
  <path fill="#E2E2E2" d="M30.688,4.558c0.729-0.356,1.277-0.343,1.969,0c1.761,0.873,3.836,1.892,4.905,2.469 c1.293,0.696,1.375,0.8,1.97,1.969c0.626,1.232,3.655,7.063,3.655,7.063s4.055-1.975,5.438-2.625 c1.188-0.558,1.229-0.433,1.971-0.063c1.393,0.699,4.432,2.156,5.563,2.688c0.886,0.417,0.969,0.729,0.969,1.969 c0,1.841,0,27.531,0,27.531s0.542,0,1.095,0c0.928,0,1.155,0.372,1.155,1.288c0,0.759,0,4.47,0,5.306 c0,1.187-0.208,1.406-1.188,1.406c-0.563,0-4.594,0-4.594,0s0,3.745,0,4.425c0,1.271-0.197,1.419-1.375,1.419 c-0.637,0-4.224,0-5.281,0c-1.271,0-1.438-0.231-1.438-1.563c0-0.813,0-4.25,0-4.25s-3.583,0-4.416,0 c-1.271,0-1.334-0.203-1.334-1.496c0-0.875,0-4.125,0-5.098c0-1.234,0.167-1.469,1.313-1.469c0.564,0,0.938,0,0.938,0v-3.625 l-2.844-1.313c0,0,0,12.451,0,13.719c0,1.273-0.072,1.482-1.313,2.063c-0.888,0.415-3.851,1.816-5.125,2.438 c-1.221,0.593-1.221,0.593-2.439-0.032c-1.303-0.668-3.773-1.813-5.281-2.531c-1-0.476-0.938-0.912-0.938-2.143 c0-1.625,0-13.514,0-13.514l-2.938,1.403c0,0,0,2.55,0,3.656c0,1.228,0.084,1.287-1.188,1.903 c-1.493,0.729-3.708,1.798-4.938,2.406c-1.416,0.705-1.416,0.705-2.844-0.031c-1.236-0.637-3.753-1.819-5-2.438 c-1.031-0.509-1.031-0.509-1.031-1.951c0-2.168,0-26.179,0-27.611c0-1.147,0-1.355,0.781-1.719c1.012-0.471,4.315-2.081,5.75-2.781 c0.984-0.48,1.136-0.439,2.219,0.063c1.316,0.609,5.219,2.531,5.219,2.531s2.844-5.5,3.813-7.469 c0.256-0.52,0.558-1.073,1.68-1.594C27.17,6.229,28.703,5.526,30.688,4.558z"/>
 </g>
 <g>
  <path opacity=".2" d="M25.563,55.464l5.938,3l6.125-3V38.755l4.5,2.084l1.438-0.674v5.965h1.953 c0,0,0.006-3.76,0.006-4.569c0-1.019,0.244-1.24,1.432-1.24c0.797,0,4.813,0,5.672,0c0.75,0,0.984,0.24,0.984,1.418 c0,0.822,0,4.427,0,4.427h2.016l-0.156-10.82L7.844,35.308L7.688,46.589l5.75,2.813l6.156-2.875v-6.235l1.531,0.734l4.438-2.282 V55.464z"/>
 </g>
 <g>
  <polygon fill="#8E8E8E" points="25.56 8.46 32 10.53 25.88 24.28 20.64 18.2"/>
  <polyline fill="#8E8E8E" points="31 10.15 37.31 24.83 42.6 18.26 37.56 8.56 31 10.15"/>
  <polygon fill="#B60000" points="31.56 11.4 37.44 23.09 43.56 17.37 39.44 27.64 28.25 26.82"/>
  <polygon fill="#9D0000" points="31.58 26.81 23.2 28.19 19.59 17.21 25.81 23.09 31.56 11.4"/>
  <polygon fill="#9D0000" points="13.44 48.78 19.59 45.9 19.59 34.71 10.5 26.82"/>
  <polygon fill="#9D0000" points="21.13 40.4 27.69 37.03 25.59 34.53"/>
  <polygon fill="#9D0000" points="42.13 40.21 36.19 37.46 37.38 33.9"/>
  <polygon fill="#8E8E8E" points="13.13 19.52 19.59 17.21 24.67 26.82 19.05 33.24"/>
  <polygon fill="#B0B0B0" points="7.69 17.65 14 14.46 19.59 17.21 12.56 20.78"/>
  <polygon fill="#B0B0B0" points="55.63 17.37 49.5 14.46 43.56 17.37 49.69 20.78"/>
  <polygon fill="#8E8E8E" points="43.56 17.37 49.69 20.28 44.12 33.24 38.55 26.8"/>
  <polygon fill="#B0B0B0" points="25.25 26.28 31.5 23.09 37.88 26.15 31.5 30.78"/>
  <polygon fill="#B0B0B0" points="31.56 11.4 25.56 8.46 31.5 5.71 37.56 8.56"/>
  <polygon fill="#FF2727" points="7.69 45.96 7.69 17.65 13.44 20.28 19.31 31.81 25.25 26.28 32.75 29.71 31.5 57.84 25.56 54.84 25.56 36.15 21.13 40.4 18 38.9 13.44 30.4 13.44 48.78"/>
  <path fill="#9D0000" d="M50.834,39.692V25.91l-7.271,9.741v9.854h1.953c0,0,0.006-3.619,0.006-4.569c0-0.984,0.213-1.24,1.435-1.24 C47.859,39.692,50.834,39.692,50.834,39.692z"/>
  <g>
   <g>
    <path fill="#C70000" d="M49.688,20.276l-5.875,11.531l-5.938-5.656l-6.375,3v28.688l6.125-3V35.776l4.5,4.438l3.063-1.438 l4.5-8.75v9.666c0,0,2.172,0,2.781,0c1.031,0,1.139,0.443,1.139,1.24c0,0.722,0.002,4.604,0.002,4.604h2.019V17.37L49.688,20.276 z"/>
   </g>
  </g>
 </g>
 <g>
  <path opacity=".2" d="M57.917,50.651c0,0.609,0.224,0.969,0.224,1.609c0,0.75,0,0.773-0.797,0.773 c-0.656,0-4.979,0-4.979,0s0,4.114,0,4.911s0,0.797-0.786,0.797c-0.453,0-3.595,0-4.078,0c-0.767,0-0.767,0-0.767-0.78 c0-0.595,0-4.904,0-4.904s-4.219,0-4.969,0c-0.781,0-0.781,0-0.781-0.797c0-0.578,0.225-0.912,0.225-1.568L57.917,50.651z"/>
  <path fill="#70C74D" d="M51.594,58.089c-0.453,0-3.594,0-4.078,0c-0.766,0-0.766,0-0.766-0.779c0-0.596,0-4.905,0-4.905 s-4.219,0-4.971,0c-0.779,0-0.779,0-0.779-0.797c0-0.578,0-3.394,0-4.047c0-0.781,0-0.781,0.779-0.781c0.502,0,4.971,0,4.971,0 s0-4.344,0-5.063c0-0.779,0-0.779,0.781-0.779c0.453,0,3.375,0,4.063,0c0.781,0,0.786,0,0.786,0.797c0,0.654,0,5.047,0,5.047 s4.261,0,4.995,0c0.781,0,0.781,0,0.781,0.797c0,0.609,0,3.393,0,4.031c0,0.75,0,0.775-0.797,0.775c-0.656,0-4.979,0-4.979,0 s0,4.113,0,4.91S52.38,58.089,51.594,58.089z"/>
  <path opacity=".2" fill="#FFFFFF" d="M58.156,47.839c0-0.107,0-0.197,0-0.266 c0-0.797,0-0.797-0.781-0.797c-0.734,0-4.995,0-4.995,0v0.641c0,0,3.948-0.06,4.662-0.06c0.205,0,0.729,0.044,0.911,0.138 C58.04,47.54,58.156,47.839,58.156,47.839z"/>
  <path opacity=".2" fill="#FFFFFF" d="M52.38,41.995c0-0.115,0-0.205,0-0.266 c0-0.797-0.005-0.797-0.786-0.797c-0.688,0-3.607,0-4.063,0c-0.781,0-0.781,0-0.781,0.781c0,0.063,0,0.16,0,0.278 c0,0,0.068-0.245,0.297-0.356c0.201-0.103,0.525-0.066,1.031-0.066c0.75,0,2.354,0,3.063,0c0.428,0,0.781,0.023,0.984,0.129 C52.329,41.806,52.38,41.995,52.38,41.995z"/>
  <path opacity=".2" fill="#FFFFFF" d="M41,47.776c0-0.087,0-0.161,0-0.219 c0-0.781,0-0.781,0.779-0.781c0.502,0,4.971,0,4.971,0v0.656c0,0-3.828,0-4.604,0c-0.184,0-0.676,0.011-0.852,0.063 C41.184,47.529,41,47.776,41,47.776z"/>
 </g>
 <g>
  <polygon opacity=".2" fill="#FFFFFF" points="55.63 17.37 49.5 14.46 43.56 17.37 44.21 17.67 49.47 15.12 54.94 17.71"/>
  <polygon opacity=".2" fill="#FFFFFF" points="7.69 17.65 14 14.46 19.59 17.21 18.97 17.52 13.95 15.12 8.28 17.92"/>
  <polygon opacity=".2" fill="#FFFFFF" points="20.64 18.2 25.56 8.46 31.5 5.71 37.56 8.56 42.6 18.26 42 18.84 36.88 8.88 31.48 6.4 26.23 8.82 21.23 18.78"/>
  <polygon opacity=".2" fill="#FFFFFF" points="25.25 26.28 31.5 23.09 37.88 26.15 37.14 26.5 31.5 23.75 25.89 26.57"/>
 </g>
</svg>
