<svg xmlns="http://www.w3.org/2000/svg" width="64" height="64" version="1">
 <path style="opacity:0.2" d="m 4,50 0,2 c 0,1.662 1.338,3 3,3 l 50,0 c 1.662,0 3,-1.338 3,-3 l 0,-2 c 0,1.662 -1.338,3 -3,3 L 7,53 C 5.338,53 4,51.662 4,50 Z"/>
 <rect style="fill:#5f7c8a" width="44" height="56" x="-54" y="-60" rx="3" ry="3" transform="matrix(0,-1,-1,0,0,0)"/>
 <rect style="fill:#7f96a1" width="36" height="48" x="-50" y="-56" rx="0" ry="0" transform="matrix(0,-1,-1,0,0,0)"/>
 <path style="opacity:0.1;fill:#ffffff" d="M 7 9.9980469 C 5.338 9.9980469 4 11.336047 4 12.998047 L 4 14 C 4 12.338 5.338 11 7 11 L 57 11 C 58.662 11 60 12.338 60 14 L 60 12.998047 C 60 11.336047 58.662 9.9980469 57 9.9980469 L 7 9.9980469 z"/>
 <path style="opacity:0.2" d="M 10.75,19 C 10.3344,19 10,19.3344 10,19.75 l 0,4.5 c 0,0.416 0.3344,0.75 0.75,0.75 l 4.5,0 C 15.6656,25 16,24.666 16,24.25 l 0,-4.5 C 16,19.3344 15.6656,19 15.25,19 Z m 10,0 C 20.3344,19 20,19.3344 20,19.75 l 0,4.5 c 0,0.416 0.3344,0.75 0.75,0.75 l 4.5,0 C 25.666,25 26,24.666 26,24.25 l 0,-4.5 C 26,19.3344 25.666,19 25.25,19 Z m 10,0 C 30.334,19 30,19.3344 30,19.75 l 0,4.5 c 0,0.416 0.334,0.75 0.75,0.75 l 4.5,0 C 35.666,25 36,24.666 36,24.25 l 0,-4.5 C 36,19.3344 35.666,19 35.25,19 Z m 10,0 C 40.334,19 40,19.3344 40,19.75 l 0,4.5 c 0,0.416 0.334,0.75 0.75,0.75 l 4.5,0 C 45.666,25 46,24.666 46,24.25 l 0,-4.5 C 46,19.3344 45.666,19 45.25,19 Z m 10,0 C 50.334,19 50,19.3344 50,19.75 l 0,4.5 c 0,0.416 0.334,0.75 0.75,0.75 l 4.5,0 C 55.666,25 56,24.666 56,24.25 l 0,-4.5 C 56,19.3344 55.666,19 55.25,19 Z m -40,10 C 10.3344,29 10,29.334 10,29.75 l 0,4.5 c 0,0.416 0.3344,0.75 0.75,0.75 l 4.5,0 C 15.6656,35 16,34.666 16,34.25 l 0,-4.5 C 16,29.334 15.6656,29 15.25,29 Z m 10,0 C 20.3344,29 20,29.334 20,29.75 l 0,4.5 c 0,0.416 0.3344,0.75 0.75,0.75 l 4.5,0 C 25.666,35 26,34.666 26,34.25 l 0,-4.5 C 26,29.334 25.666,29 25.25,29 Z m 10,0 C 30.334,29 30,29.334 30,29.75 l 0,4.5 c 0,0.416 0.334,0.75 0.75,0.75 l 4.5,0 C 35.666,35 36,34.666 36,34.25 l 0,-4.5 C 36,29.334 35.666,29 35.25,29 Z m 10,0 C 40.334,29 40,29.334 40,29.75 l 0,4.5 c 0,0.416 0.334,0.75 0.75,0.75 l 4.5,0 C 45.666,35 46,34.666 46,34.25 l 0,-4.5 C 46,29.334 45.666,29 45.25,29 Z m 10,0 C 50.334,29 50,29.334 50,29.75 l 0,4.5 c 0,0.416 0.334,0.75 0.75,0.75 l 4.5,0 C 55.666,35 56,34.666 56,34.25 l 0,-4.5 C 56,29.334 55.666,29 55.25,29 Z m -30,10 C 20.3344,39 20,39.334 20,39.75 l 0,4.5 c 0,0.416 0.3344,0.75 0.75,0.75 l 24.5,0 C 45.666,45 46,44.666 46,44.25 l 0,-4.5 C 46,39.334 45.666,39 45.25,39 Z"/>
 <path style="fill:#ebebeb" d="m 10.75,18.000044 c -0.4156,0 -0.75,0.3344 -0.75,0.75 l 0,4.5 c 0,0.4156 0.3344,0.75 0.75,0.75 l 4.5,0 c 0.4156,0 0.75,-0.3344 0.75,-0.75 l 0,-4.5 c 0,-0.4156 -0.3344,-0.75 -0.75,-0.75 z m 10,0 c -0.4156,0 -0.75,0.3344 -0.75,0.75 l 0,4.5 c 0,0.4156 0.3344,0.75 0.75,0.75 l 4.5,0 c 0.416,0 0.75,-0.3344 0.75,-0.75 l 0,-4.5 c 0,-0.4156 -0.334,-0.75 -0.75,-0.75 z m 10,0 c -0.416,0 -0.75,0.3344 -0.75,0.75 l 0,4.5 c 0,0.4156 0.334,0.75 0.75,0.75 l 4.5,0 c 0.416,0 0.75,-0.3344 0.75,-0.75 l 0,-4.5 c 0,-0.4156 -0.334,-0.75 -0.75,-0.75 z m 10,0 c -0.416,0 -0.75,0.3344 -0.75,0.75 l 0,4.5 c 0,0.4156 0.334,0.75 0.75,0.75 l 4.5,0 c 0.416,0 0.75,-0.3344 0.75,-0.75 l 0,-4.5 c 0,-0.4156 -0.334,-0.75 -0.75,-0.75 z m 10,0 c -0.416,0 -0.75,0.3344 -0.75,0.75 l 0,4.5 c 0,0.4156 0.334,0.75 0.75,0.75 l 4.5,0 c 0.416,0 0.75,-0.3344 0.75,-0.75 l 0,-4.5 c 0,-0.4156 -0.334,-0.75 -0.75,-0.75 z m -40,10 c -0.4156,0 -0.75,0.334 -0.75,0.75 l 0,4.5 c 0,0.416 0.3344,0.75 0.75,0.75 l 4.5,0 c 0.4156,0 0.75,-0.334 0.75,-0.75 l 0,-4.5 c 0,-0.416 -0.3344,-0.75 -0.75,-0.75 z m 10,0 c -0.4156,0 -0.75,0.334 -0.75,0.75 l 0,4.5 c 0,0.416 0.3344,0.75 0.75,0.75 l 4.5,0 c 0.416,0 0.75,-0.334 0.75,-0.75 l 0,-4.5 c 0,-0.416 -0.334,-0.75 -0.75,-0.75 z m 10,0 c -0.416,0 -0.75,0.334 -0.75,0.75 l 0,4.5 c 0,0.416 0.334,0.75 0.75,0.75 l 4.5,0 c 0.416,0 0.75,-0.334 0.75,-0.75 l 0,-4.5 c 0,-0.416 -0.334,-0.75 -0.75,-0.75 z m 10,0 c -0.416,0 -0.75,0.334 -0.75,0.75 l 0,4.5 c 0,0.416 0.334,0.75 0.75,0.75 l 4.5,0 c 0.416,0 0.75,-0.334 0.75,-0.75 l 0,-4.5 c 0,-0.416 -0.334,-0.75 -0.75,-0.75 z m 10,0 c -0.416,0 -0.75,0.334 -0.75,0.75 l 0,4.5 c 0,0.416 0.334,0.75 0.75,0.75 l 4.5,0 c 0.416,0 0.75,-0.334 0.75,-0.75 l 0,-4.5 c 0,-0.416 -0.334,-0.75 -0.75,-0.75 z m -30,10 c -0.4156,0 -0.75,0.334 -0.75,0.75 l 0,4.5 c 0,0.416 0.3344,0.75 0.75,0.75 l 24.5,0 c 0.416,0 0.75,-0.334 0.75,-0.75 l 0,-4.5 c 0,-0.416 -0.334,-0.75 -0.75,-0.75 z"/>
</svg>
