<svg xmlns="http://www.w3.org/2000/svg" width="64" height="64" version="1.1">
 <path style="opacity:0.2" d="M 4,16.2 V 61 H 55.69231 C 58.079626,61 60,59.097914 60,56.733334 V 20.466666 C 60,18.102082 58.079626,16.2 55.69231,16.2 Z m 0,0"/>
 <path style="fill:#e4e4e4" d="M 4,15.2 V 60 H 55.69231 C 58.079626,60 60,58.097914 60,55.733334 V 19.466667 C 60,17.102082 58.079626,15.2 55.69231,15.2 Z m 0,0"/>
 <path style="fill:#3f3f3f" d="M 9.6,4 V 29 54 H 34.8 56.85 C 58.595218,54 60,52.47893 60,50.59017 V 29 7.4098306 C 60,5.52107 58.595218,4 56.85,4 H 34.8 Z"/>
 <path style="opacity:0.2" d="m 27,19 c -6.075132,0 -11,4.924868 -11,11 0,6.075132 4.924868,11 11,11 4.91648,-0.0039 9.233361,-3.269895 10.574218,-8 H 45 v 6 h 6 v -6 h 3 V 27 H 37.582032 C 36.240383,22.267109 31.919378,19.000435 27,19 Z m 0,6 c 2.761424,0 5,2.238576 5,5 0,2.761424 -2.238576,5 -5,5 -2.761424,0 -5,-2.238576 -5,-5 0,-2.761424 2.238576,-5 5,-5 z"/>
 <path style="fill:#79de7d" d="m 4,4 h 6 V 54 H 4 Z m 0,0"/>
 <path style="fill:#79de7d" d="m 27,18 c -6.075132,0 -11,4.924868 -11,11 0,6.075132 4.924868,11 11,11 4.91648,-0.0039 9.233361,-3.269895 10.574218,-8 H 45 v 6 h 6 v -6 h 3 V 26 H 37.582032 C 36.240383,21.267109 31.919378,18.000435 27,18 Z m 0,6 c 2.761424,0 5,2.238576 5,5 0,2.761424 -2.238576,5 -5,5 -2.761424,0 -5,-2.238576 -5,-5 0,-2.761424 2.238576,-5 5,-5 z"/>
 <path style="opacity:0.2;fill:#ffffff" d="M 27 18 A 11 11 0 0 0 16 29 A 11 11 0 0 0 16.044922 29.494141 A 11 11 0 0 1 27 19 A 11 11 0 0 1 37.582031 27 L 54 27 L 54 26 L 37.582031 26 A 11 11 0 0 0 27 18 z M 31.878906 29.921875 A 5 5 0 0 1 27 34 A 5 5 0 0 1 22.132812 30 A 5 5 0 0 0 22 31 A 5 5 0 0 0 22.060547 31.541016 A 5 5 0 0 1 22.132812 31 A 5 5 0 0 0 27 35 A 5 5 0 0 0 31.878906 30.921875 A 5 5 0 0 1 31.943359 31.5 A 5 5 0 0 0 32 31 A 5 5 0 0 0 31.878906 29.921875 z"/>
 <path style="opacity:0.1;fill:#ffffff" d="M 4 4 L 4 5 L 9.6015625 5 L 10 5 L 34.800781 5 L 56.851562 5 C 58.596781 5 60 6.5213957 60 8.4101562 L 60 7.4101562 C 60 5.5213957 58.596781 4 56.851562 4 L 34.800781 4 L 10 4 L 9.6015625 4 L 4 4 z"/>
</svg>
