<svg xmlns="http://www.w3.org/2000/svg" width="64" height="64" version="1.1">
 <path style="opacity:0.2" d="M 31.997953,5.0000948 C 31.238498,5.0000308 30.489421,5.2420063 29.86476,5.699329 L 4.485235,24.293488 c -0.3213775,0.2354 -0.5796865,0.526221 -0.8009242,0.839863 -0.00658,-3.48e-4 -0.01296,3.48e-4 -0.01954,0 -0.035424,0.05028 -0.06492,0.104399 -0.097674,0.156259 -0.01776,0.0283 -0.033826,0.0572 -0.050792,0.08594 -0.1086119,0.1828 -0.2022251,0.372368 -0.2773932,0.570325 -0.00456,0.012 -0.0112,0.02304 -0.01562,0.03516 -0.1558158,0.423538 -0.2304496,0.875027 -0.2226963,1.332062 0.00308,0.208652 0.01902,0.416394 0.058604,0.625013 0.027892,0.14554 0.063178,0.29382 0.1093938,0.437512 l 0.3164627,0.980488 0.4024154,1.253936 8.1420768,25.281803 0.414136,1.28128 0.703251,1.964885 c 0.264057,0.471495 0.629907,0.862074 1.054875,1.16409 0.0091,0.0066 0.01816,0.0132 0.02735,0.0196 0.04335,0.03022 0.08827,0.05764 0.132836,0.08594 0.05177,0.03316 0.103046,0.06706 0.156278,0.09766 0.0374,0.02124 0.0752,0.04258 0.113302,0.0625 0.08316,0.04412 0.167862,0.08334 0.253951,0.1211 0.445505,0.19542 0.923865,0.303904 1.414315,0.308602 0.901275,0.0086 1.511988,-0.0078 1.511988,-0.0078 h 14.186129 14.186122 c 0,0 0.610716,0.0164 1.511988,0.0078 0.482559,-0.0046 0.955189,-0.11142 1.39478,-0.30079 0.09692,-0.04174 0.19198,-0.08694 0.285208,-0.136719 0.07654,-0.04086 0.152899,-0.08284 0.226601,-0.1289 0.0329,-0.02046 0.06542,-0.041 0.09768,-0.0625 0.03142,-0.021 0.06296,-0.04056 0.09376,-0.0625 -3.58e-4,-0.0024 3.62e-4,-0.0056 0,-0.0078 0.378731,-0.270336 0.710777,-0.609053 0.965017,-1.015649 l 1.617477,-4.664165 7.731847,-24.008338 0.671995,-2.08989 0.04688,-0.14454 c 0.0533,-0.16572 0.0923,-0.335926 0.121119,-0.503917 4.44e-4,-0.0026 -4.38e-4,-0.0052 0,-0.0078 0.02492,-0.1472 0.04402,-0.294144 0.05078,-0.441418 0.0019,-0.0405 -5.58e-4,-0.08066 0,-0.1211 0.0018,-0.137999 -0.002,-0.273765 -0.0156,-0.410167 -0.0028,-0.02886 -0.0082,-0.05718 -0.0118,-0.08594 -0.011,-0.08932 -0.02942,-0.17756 -0.04688,-0.265631 -0.02722,-0.13766 -0.06284,-0.272844 -0.105479,-0.40626 -0.007,-0.0217 -0.0084,-0.04484 -0.0156,-0.0664 v -0.004 c -0.0078,-0.02272 -0.0192,-0.04384 -0.02734,-0.0664 -0.03932,-0.108299 -0.08736,-0.212151 -0.13674,-0.316413 -0.02474,-0.05244 -0.047,-0.10498 -0.07424,-0.15626 -0.06382,-0.11972 -0.13386,-0.235212 -0.210976,-0.347663 -0.02336,-0.03418 -0.04576,-0.06814 -0.07034,-0.10156 -0.06632,-0.09 -0.139979,-0.1737 -0.214881,-0.257818 -0.1679,-0.18906 -0.348848,-0.369745 -0.558694,-0.523449 L 34.127238,5.699329 C 33.502576,5.2420063 32.757406,5.0000308 31.997953,5.0000948 Z"/>
 <path style="fill:#765338" d="m 31.998727,46.801305 c -14.439623,0 -17.246443,8.9943 -17.793379,12.498865 0.612277,0.436807 1.34671,0.690039 2.101114,0.697267 0.901112,0.0086 1.510427,-0.0082 1.510427,-0.0082 h 14.181838 14.184534 c 0,0 0.609318,0.0168 1.510428,0.0082 0.753147,-0.0072 1.486734,-0.25909 2.098417,-0.694533 C 49.247137,55.800071 46.445497,46.801305 31.998727,46.801305 Z"/>
 <path style="fill:#b7835a" d="m 3.0551552,25.628974 c -0.09753,0.57039 -0.064152,1.167641 0.1213738,1.744536 l 0.7174533,2.233992 8.1428237,25.282107 0.412671,1.282426 0.703967,1.963287 c 0.453734,0.810304 1.200267,1.391662 2.049866,1.670707 L 31.998727,46.801305 Z"/>
 <path style="fill:#5b422d" d="M 60.802046,25.065691 31.998727,46.801305 48.79684,59.806029 c 0.79751,-0.261935 1.501709,-0.791375 1.960859,-1.525786 l 1.615619,-4.664857 7.732851,-24.007884 0.717453,-2.233992 c 0.247803,-0.770547 0.226239,-1.577958 -0.02158,-2.307819 z"/>
 <path style="fill:#72b147" d="m 33.329439,47.829575 -1.33045,1.029989 -1.3315,-1.029989 c 0,-1.029988 1.330976,-1.029988 1.330976,-1.029988 0,0 1.330974,0 1.330974,1.029988 z"/>
 <path style="fill:#5a9a30" d="m 59.925457,23.654747 c -26.273669,1.467966 -27.92673,23.146558 -27.92673,23.146558 l 1.332414,1.03086 3.355307,-0.538673 3.358005,-4.659389 3.355305,-0.538673 3.358005,-4.659389 3.358007,-0.538674 3.355305,-4.659389 3.358005,-0.538675 3.94869,-4.180871 0.04584,-0.14492 c 0.426123,-1.325038 0.062,-2.760248 -0.898165,-3.718763 z"/>
 <path style="fill:#88b858" d="M 3.670115,24.133265 C 3.0200046,25.056181 2.8166005,26.254307 3.1765288,27.37351 l 0.3155715,0.981642 3.6762731,3.341417 3.3580046,0.538675 3.355307,4.659389 3.358005,0.538672 3.358006,4.659389 3.355305,0.538675 3.358005,4.659389 3.355307,0.538673 1.332414,-1.030862 c 0,0 -1.942259,-21.275766 -28.328612,-22.665304 z"/>
 <path style="fill:#6da843" d="m 31.998727,4.0000016 c -0.759317,-6.4e-5 -1.506234,0.2399559 -2.130783,0.6972678 L 4.4927586,23.29381 C 3.7116654,23.866029 3.2151635,24.711168 3.0578524,25.62624 L 31.998727,46.798569 60.802046,25.062957 C 60.56606,24.369498 60.125301,23.746481 59.507391,23.29381 L 34.12951,4.6972694 C 33.50496,4.2399575 32.758044,3.9999376 31.998727,4.0000016 Z"/>
 <path style="opacity:0.2;fill:#ffffff" d="M 32 4 C 31.240683 3.999936 30.491737 4.2419069 29.867188 4.6992188 L 4.4921875 23.292969 C 4.1708676 23.528365 3.9126042 23.819179 3.6914062 24.132812 C 3.6848262 24.132465 3.678455 24.133161 3.671875 24.132812 C 3.636457 24.183093 3.6069667 24.237203 3.5742188 24.289062 C 3.5564588 24.317363 3.5403995 24.34626 3.5234375 24.375 C 3.4148456 24.5578 3.3212485 24.747359 3.2460938 24.945312 C 3.2415337 24.957313 3.2348887 24.968349 3.2304688 24.980469 C 3.0746809 25.403997 3.0000603 25.855475 3.0078125 26.3125 C 3.0099971 26.460491 3.0298592 26.608145 3.0488281 26.755859 C 3.0839663 26.490865 3.1384685 26.230583 3.2304688 25.980469 C 3.2348887 25.968349 3.2415337 25.957313 3.2460938 25.945312 C 3.3212485 25.747359 3.4148456 25.5578 3.5234375 25.375 C 3.5403995 25.34626 3.5564588 25.317363 3.5742188 25.289062 C 3.6069667 25.237203 3.636457 25.183093 3.671875 25.132812 C 3.678455 25.13316 3.6848262 25.132465 3.6914062 25.132812 C 3.9126042 24.819179 4.1708676 24.528365 4.4921875 24.292969 L 29.867188 5.6992188 C 30.491737 5.2419068 31.240683 4.999936 32 5 C 32.759317 4.999936 33.504356 5.2419069 34.128906 5.6992188 L 59.507812 24.292969 C 59.717621 24.446671 59.898526 24.627346 60.066406 24.816406 C 60.14129 24.900518 60.21495 24.984219 60.28125 25.074219 C 60.30581 25.107639 60.328203 25.141601 60.351562 25.175781 C 60.42866 25.28823 60.4987 25.403717 60.5625 25.523438 C 60.58972 25.574717 60.611979 25.627247 60.636719 25.679688 C 60.686099 25.783947 60.734118 25.887795 60.773438 25.996094 C 60.781578 26.018654 60.792981 26.03978 60.800781 26.0625 L 60.800781 26.066406 C 60.807981 26.087966 60.809406 26.111113 60.816406 26.132812 C 60.859045 26.266224 60.894655 26.401402 60.921875 26.539062 C 60.935614 26.608362 60.948139 26.67809 60.958984 26.748047 C 60.974821 26.639363 60.991099 26.530683 60.996094 26.421875 C 60.997994 26.381375 60.995536 26.341221 60.996094 26.300781 C 60.997894 26.162782 60.994069 26.027025 60.980469 25.890625 C 60.977669 25.861765 60.97235 25.833448 60.96875 25.804688 C 60.95775 25.715367 60.939335 25.627128 60.921875 25.539062 C 60.894655 25.401402 60.859045 25.266224 60.816406 25.132812 C 60.809406 25.111113 60.807981 25.087966 60.800781 25.066406 L 60.800781 25.0625 C 60.792981 25.03978 60.781578 25.018654 60.773438 24.996094 C 60.734118 24.887795 60.686099 24.783947 60.636719 24.679688 C 60.611979 24.627247 60.58972 24.574718 60.5625 24.523438 C 60.4987 24.403717 60.42866 24.28823 60.351562 24.175781 C 60.328203 24.141601 60.30581 24.107639 60.28125 24.074219 C 60.21495 23.984219 60.14129 23.900518 60.066406 23.816406 C 59.898526 23.627346 59.717621 23.446671 59.507812 23.292969 L 34.128906 4.6992188 C 33.504356 4.2419069 32.759317 3.999936 32 4 z"/>
</svg>
