<svg xmlns="http://www.w3.org/2000/svg" width="64" height="64" version="1.1">
 <path style="opacity:0.2" d="M 8.3076923,5 H 55.692308 C 58.071214,5 60,7.0059374 60,9.48 V 56.52 C 60,58.994063 58.071214,61 55.692308,61 H 8.3076923 C 5.9287859,61 4,58.994063 4,56.52 V 9.48 C 4,7.0059374 5.9287859,5 8.3076923,5 Z m 0,0"/>
 <path style="fill:#e4e4e4" d="M 8.3076923,4 H 55.692308 C 58.071214,4 60,6.0059374 60,8.48 V 55.52 C 60,57.994063 58.071214,60 55.692308,60 H 8.3076923 C 5.9287859,60 4,57.994063 4,55.52 V 8.48 C 4,6.0059374 5.9287859,4 8.3076923,4 Z m 0,0"/>
 <path style="opacity:0.1" d="M 19.5,9 C 13.148047,9 8,14.148047 8,20.5 8,26.851952 13.148047,32 19.5,32 25.851953,32 31,26.851952 31,20.5 31,14.148047 25.851953,9 19.5,9 Z m 25,0 C 38.148048,9 33,14.148047 33,20.5 33,26.851952 38.148048,32 44.5,32 50.851953,32 56,26.851952 56,20.5 56,14.148047 50.851953,9 44.5,9 Z m -25,25 C 13.148047,34 8,39.148048 8,45.5 8,51.851954 13.148047,57 19.5,57 25.851953,57 31,51.851954 31,45.5 31,39.148048 25.851953,34 19.5,34 Z m 25,0 C 38.148048,34 33,39.148047 33,45.5 33,51.851953 38.148048,57 44.5,57 50.851953,57 56,51.851953 56,45.5 56,39.148047 50.851953,34 44.5,34 Z"/>
 <path style="fill:#ffaa04" d="M 19.5,33.000001 C 25.851953,33.000001 31,38.148048 31,44.5 31,50.851954 25.851953,56 19.5,56 13.148047,56 8,50.851954 8,44.5 8,38.148048 13.148047,33.000001 19.5,33.000001 Z m 0,0"/>
 <path style="fill:#ff753a" d="M 44.5,7.9999996 C 50.851953,7.9999996 56,13.148047 56,19.5 56,25.851952 50.851953,31 44.5,31 38.148048,31 33,25.851952 33,19.5 33,13.148047 38.148048,7.9999996 44.5,7.9999996 Z m 0,0"/>
 <path style="fill:#6358c7" d="M 44.5,56 C 50.851953,56 56,50.851953 56,44.5 56,38.148047 50.851953,33 44.5,33 38.148048,33 33,38.148047 33,44.5 33,50.851953 38.148048,56 44.5,56 Z m 0,0"/>
 <path fill="#ed333b" d="M 19.5,7.9999996 C 25.851953,7.9999996 31,13.148047 31,19.5 31,25.851952 25.851953,31 19.5,31 13.148047,31 8,25.851952 8,19.5 8,13.148047 13.148047,7.9999996 19.5,7.9999996 Z m 0,0"/>
 <path style="opacity:0.2" d="m 17.328125,16 c -0.323362,0 -0.722886,0.101073 -0.931641,0.316406 L 13,20.5 16.396484,24.683594 C 16.605239,24.898943 17.004763,25 17.328125,25 H 19 v -1.125 c -0.0081,-0.28992 -0.125978,-0.593262 -0.318359,-0.808594 L 17.427734,22 H 26 v -3 h -8.572266 l 1.253907,-1.066406 C 18.874028,17.722657 19,17.41504 19,17.125 V 16 Z M 43,39 v 5 h -5 v 3 h 5 v 5 h 3 v -5 h 5 v -3 h -5 v -5 z"/>
 <path style="fill:#ffffff" d="m 18.999999,15 v 1.125 c 0,0.29004 -0.125653,0.597657 -0.31804,0.808594 L 17.428668,18 H 26 v 3 h -8.571332 l 1.253292,1.066406 c 0.192381,0.215332 0.309957,0.518675 0.318041,0.808595 V 24 H 17.327472 C 17.00411,24 16.606171,23.898943 16.397416,23.683594 L 13,19.5 16.397416,15.316406 C 16.606171,15.101073 17.00411,15 17.327472,15 Z"/>
 <path style="fill:#ffffff" d="M 51,46 H 38 v -3 h 13 z m 0,0"/>
 <path style="fill:#ffffff" d="M 43,51 V 38 h 3 v 13 z m 0,0"/>
 <path style="opacity:0.1" d="M 41.199219,12.999701 C 40.000393,12.999701 39,13.876513 39,14.927435 v 11.144532 c 0,1.05092 1.000393,1.927734 2.199219,1.927734 h 6.601562 C 48.999608,27.999701 50,27.122887 50,26.071967 V 14.927435 c 0,-1.050922 -1.000392,-1.927734 -2.199219,-1.927734 z m 0.800781,3 h 5 v 3 h -5 z m 0,6 h 5 v 3 h -5 z m -22.5,16 c -1.920326,0 -3.840949,0.731573 -5.304688,2.195312 -2.927481,2.927481 -2.927477,7.681899 0,10.609376 2.927482,2.927481 7.681895,2.927481 10.609376,0 2.927476,-2.927476 2.927479,-7.681897 0,-10.609376 C 23.34095,38.731274 21.420326,37.999701 19.5,37.999701 Z m 0.369141,3.015625 a 4.5009247,4.5009245 0 0 1 2.814453,1.300781 4.5009247,4.5009245 0 0 1 0.875,5.121094 L 17.5625,41.441107 a 4.5009247,4.5009245 0 0 1 2.306641,-0.425781 z m -4.427735,2.546875 5.996094,5.996094 a 4.5009247,4.5009245 0 0 1 -5.121094,-0.875 4.5009247,4.5009245 0 0 1 -0.875,-5.121094 z"/>
 <path style="fill:#3a3a3a" d="m 24.804391,39.195609 c -2.927476,-2.927478 -7.681305,-2.927478 -10.608781,0 -2.927482,2.92748 -2.927478,7.681303 0,10.60878 2.927481,2.927481 7.681301,2.927481 10.608781,0 2.927477,-2.927475 2.92748,-7.681301 0,-10.60878 z m -2.121758,2.121756 a 4.5009247,4.5009245 0 0 1 0.876471,5.119982 l -5.996451,-5.996449 a 4.5009247,4.5009245 0 0 1 5.11998,0.876467 z m -7.241735,1.245286 5.99645,5.99645 a 4.5009247,4.5009245 0 0 1 -5.119982,-0.876468 4.5009247,4.5009245 0 0 1 -0.876468,-5.119982 z"/>
 <path style="fill:#3a3a3a" d="M 41.199462,12 C 40.000636,12 39,12.876811 39,13.927733 V 25.072267 C 39,26.123187 40.000636,27 41.199462,27 h 6.601076 C 48.999365,27 50,26.123187 50,25.072267 V 13.927733 C 50,12.876811 48.999365,12 47.800538,12 Z M 42,15 h 5 v 3 h -5 z m 0,6 h 5 v 3 h -5 z"/>
 <path style="fill:#ffffff;opacity:0.2" d="M 8.3085938 4 C 5.9296874 4 4 6.0064061 4 8.4804688 L 4 9.4804688 C 4 7.0064061 5.9296874 5 8.3085938 5 L 55.691406 5 C 58.070312 5 60 7.0064061 60 9.4804688 L 60 8.4804688 C 60 6.0064061 58.070312 4 55.691406 4 L 8.3085938 4 z"/>
</svg>
