<svg xmlns="http://www.w3.org/2000/svg" width="64" height="64" version="1.1">
 <path style="opacity:0.2" d="m 11,4.9998 a 2.0002,2.0002 0 0 0 -2,2 v 52 a 2.0002,2.0002 0 0 0 2,2 h 7 a 2.0002,2.0002 0 1 0 0,-4 h -5 v -48 h 5 a 2.0002,2.0002 0 1 0 0,-4 z m 35,0 a 2.0002,2.0002 0 1 0 0,4 h 5 v 48 h -5 a 2.0002,2.0002 0 1 0 0,4 h 7 a 2.0002,2.0002 0 0 0 2,-2 v -52 a 2.0002,2.0002 0 0 0 -2,-2 z"/>
 <path style="opacity:0.2" d="m 3,11 v 7 h 4 v -7 z m 54,0 v 7 h 4 V 11 Z M 3,48 v 7 h 4 v -7 z m 54,0 v 7 h 4 v -7 z"/>
 <path style="fill:#ee7cf3" d="m 11.700152,19.400095 h 41.999685 c 0,0 0,0.532453 0,1.190188 v 22.819434 c 0,0.657735 0,1.190188 0,1.190188 H 11.700152 c 0,0 0,-0.532453 0,-1.190188 V 20.590283 c 0,-0.657735 0,-1.190188 0,-1.190188 z m 0,0"/>
 <path style="opacity:0.2" d="M 11.700152,11 V 22 H 20 V 44 H 11.700152 V 55 H 53.699837 V 44 H 44 V 22 h 9.699837 V 11 Z M 16,15 h 5 v 3 h -5 z m 9,0 h 5 v 3 h -5 z m 9,0 h 5 v 3 h -5 z m 9.000016,0 H 48 v 3 H 43.000016 Z M 24,22 H 40 V 44 H 24 Z m -8,26 h 5 v 3 h -5 z m 9,0 h 5 v 3 h -5 z m 9,0 h 5 v 3 h -5 z m 9.000016,0 H 48 v 3 h -4.999984 z"/>
 <path style="fill:#3382e3" d="M 11.700152,10 V 21 H 20 V 43 H 11.700152 V 54 H 53.699837 V 43 H 44 V 21 h 9.699837 V 10 Z M 16,14 h 5 v 3 h -5 z m 9,0 h 5 v 3 h -5 z m 9,0 h 5 v 3 h -5 z m 9.000016,0 H 48 v 3 H 43.000016 Z M 24,21 H 40 V 43 H 24 Z m -8,26 h 5 v 3 h -5 z m 9,0 h 5 v 3 h -5 z m 9,0 h 5 v 3 h -5 z m 9.000016,0 H 48 v 3 h -4.999984 z"/>
 <path style="fill:#ffffff;opacity:0.2" d="M 11.699219 10 L 11.699219 11 L 53.699219 11 L 53.699219 10 L 11.699219 10 z M 16 17 L 16 18 L 21 18 L 21 17 L 16 17 z M 25 17 L 25 18 L 30 18 L 30 17 L 25 17 z M 34 17 L 34 18 L 39 18 L 39 17 L 34 17 z M 43 17 L 43 18 L 48 18 L 48 17 L 43 17 z M 11.699219 43 L 11.699219 44 L 20 44 L 20 43 L 11.699219 43 z M 24 43 L 24 44 L 40 44 L 40 43 L 24 43 z M 44 43 L 44 44 L 53.699219 44 L 53.699219 43 L 44 43 z M 16 50 L 16 51 L 21 51 L 21 50 L 16 50 z M 25 50 L 25 51 L 30 51 L 30 50 L 25 50 z M 34 50 L 34 51 L 39 51 L 39 50 L 34 50 z M 43 50 L 43 51 L 48 51 L 48 50 L 43 50 z"/>
 <path style="fill:#195eb3" d="M 3 10 L 3 17 L 7 17 L 7 10 L 3 10 z M 57 10 L 57 17 L 61 17 L 61 10 L 57 10 z M 3 47 L 3 54 L 7 54 L 7 47 L 3 47 z M 57 47 L 57 54 L 61 54 L 61 47 L 57 47 z"/>
 <path style="fill:none;stroke:#f5d12b;stroke-width:4;stroke-linecap:round;stroke-linejoin:round" d="m 18.000105,6 h -6.999947 v 52 h 6.999947"/>
 <path style="fill:none;stroke:#f5d12b;stroke-width:4;stroke-linecap:round;stroke-linejoin:round" d="M 46.000053,6 H 53 v 52 h -6.999947"/>
 <path style="opacity:0.2;fill:#ffffff" d="M 11 4 A 2.0002 2.0002 0 0 0 9 6 L 9 7 A 2.0002 2.0002 0 0 1 11 5 L 18 5 A 2.0002 2.0002 0 0 1 19.962891 6.5 A 2.0002 2.0002 0 0 0 18 4 L 11 4 z M 46 4 A 2.0002 2.0002 0 0 0 44.037109 6.5 A 2.0002 2.0002 0 0 1 46 5 L 53 5 A 2.0002 2.0002 0 0 1 55 7 L 55 6 A 2.0002 2.0002 0 0 0 53 4 L 46 4 z M 13 56 L 13 57 L 18 57 A 2.0002 2.0002 0 0 1 19.962891 58.5 A 2.0002 2.0002 0 0 0 18 56 L 13 56 z M 46 56 A 2.0002 2.0002 0 0 0 44.037109 58.5 A 2.0002 2.0002 0 0 1 46 57 L 51 57 L 51 56 L 46 56 z"/>
</svg>
