<svg width="64" height="64" version="1" xmlns="http://www.w3.org/2000/svg">
 <path d="M 52,25 V 8.375 C 52,7.05925 50.9296,6 49.6,6 H 6.4 C 5.0704,6 4,7.05925 4,8.375 v 33.25 C 4,42.94075 5.0704,44 6.4,44 h 26.4 z" style="opacity:.2"/>
 <path d="m56 32.296296v-15.921296c0-1.31575-1.0704-2.375-2.4-2.375h-43.2c-1.3296 0-2.4 1.05925-2.4 2.375v33.25c0 1.31575 1.0704 2.375 2.4 2.375h25.835294z" style="opacity:.2"/>
 <path d="m60.000002 40v-15.625c0-1.31575-1.0704-2.375-2.4-2.375h-43.200002c-1.3296 0-2.4 1.05925-2.4 2.375v33.25c0 1.31575 1.0704 2.375 2.4 2.375h25.6z" style="opacity:.2"/>
 <path d="M 52,24 V 7.375 C 52,6.05925 50.9296,5 49.6,5 H 6.4 C 5.0704,5 4,6.05925 4,7.375 v 33.25 C 4,41.94075 5.0704,43 6.4,43 h 26.4 z" style="fill:#ff9212"/>
 <path d="M 48,26.263847 V 9 H 8 v 30 h 27.271764 z" style="opacity:.3"/>
 <path d="m56 31.296296v-15.921296c0-1.31575-1.0704-2.375-2.4-2.375h-43.2c-1.3296 0-2.4 1.05925-2.4 2.375v33.25c0 1.31575 1.0704 2.375 2.4 2.375h25.835294z" style="fill:#cfff3d"/>
 <path d="m52 34.263847v-17.263847h-40v30h27.271764z" style="opacity:.3"/>
 <path d="m60.000002 39v-15.625c0-1.31575-1.0704-2.375-2.4-2.375h-43.200002c-1.3296 0-2.4 1.05925-2.4 2.375v33.25c0 1.31575 1.0704 2.375 2.4 2.375h25.6z" style="fill:#39ddff"/>
 <path d="m56 42.263847v-17.263847h-40v30h27.271764z" style="opacity:.3"/>
 <path d="M 60,39 H 42.500001 C 41.119251,39 40,40.119301 40,41.500001 V 59 Z" style="fill:#93edff"/>
 <path d="M 6.4003906,5 C 5.0707906,5 4,6.05925 4,7.375 v 1 C 4,7.05925 5.0707906,6 6.4003906,6 H 49.599609 C 50.929209,6 52,7.05925 52,8.375 v -1 C 52,6.05925 50.929209,5 49.599609,5 Z" style="fill:#ffffff;opacity:.2"/>
 <path d="M 10.400391,13 C 9.0707906,13 8,14.05925 8,15.375 v 1 C 8,15.05925 9.0707906,14 10.400391,14 H 53.599609 C 54.929209,14 56,15.05925 56,16.375 v -1 C 56,14.05925 54.929209,13 53.599609,13 Z" style="fill:#ffffff;opacity:.2"/>
 <path d="M 14.400391,21 C 13.070791,21 12,22.05925 12,23.375 v 1 C 12,23.05925 13.070791,22 14.400391,22 H 57.599609 C 58.929209,22 60,23.05925 60,24.375 v -1 C 60,22.05925 58.929209,21 57.599609,21 Z" style="fill:#ffffff;opacity:.2"/>
 <path d="m42.5 39c-1.38075 0-2.5 1.1193-2.5 2.5v1c0-1.3807 1.11925-2.5 2.5-2.5h16.5l1-1z" style="fill:#ffffff;opacity:.2"/>
</svg>
