<svg xmlns="http://www.w3.org/2000/svg" width="64" height="64" version="1.1">
 <path style="opacity:0.2" d="m 7.6158172,10.000156 c -2.5568553,0 -4.6158174,2.050479 -4.6158174,4.594282 V 51.407744 C 2.9999998,53.951548 5.0589619,56 7.6158172,56 H 38.657489 c 3.20781,0 5.413564,-1.721596 7.121791,-3.299018 L 57.963587,40.209342 C 59.904176,38.31925 60.997963,35.73075 61,33.028794 60.997911,30.328655 59.904176,27.74213 57.963587,25.851883 L 45.65495,13.370118 C 43.704124,11.429249 40.998282,10 37.594418,10 Z"/>
 <path style="fill:#69e683" d="m 7.6158172,9.0001559 c -2.5568553,0 -4.6158174,2.0504791 -4.6158174,4.5942821 V 50.407744 C 2.9999998,52.951548 5.0589619,55 7.6158172,55 H 38.657489 c 3.20781,0 5.413564,-1.721596 7.121791,-3.299018 L 57.963587,39.209342 C 59.904176,37.31925 60.997963,34.73075 61,32.028794 60.997911,29.328655 59.904176,26.74213 57.963587,24.851883 L 45.65495,12.370118 C 43.704124,10.429249 40.998282,9 37.594418,9 Z"/>
 <path style="opacity:0.2" d="m 51,29.000001 c 2.208827,-0.002 4,1.789667 4,3.999029 0,2.211302 -1.791173,4.002908 -4,4.000968 -2.208827,0 -4,-1.789666 -4,-4.000968 0,-2.209362 1.791173,-3.999029 4,-3.999029 z"/>
 <path style="fill:#ffffff" d="m 51,28.000001 c 2.208827,-0.002 4,1.789667 4,3.999029 0,2.211302 -1.791173,4.002908 -4,4.000968 -2.208827,0 -4,-1.789666 -4,-4.000968 0,-2.209362 1.791173,-3.999029 4,-3.999029 z"/>
 <path style="opacity:0.1" d="m 18,17 v 11 h 4 v 3 h -8 v 6 H 10 V 48 H 21 V 37 h -4 v -3 h 13 v 3 H 26 V 48 H 37 V 37 h -4 v -6 h -8 v -3 h 4 V 17 Z"/>
 <path style="fill:#176642" d="m 18,16 v 11 h 4 v 3 h -8 v 6 H 10 V 47 H 21 V 36 h -4 v -3 h 13 v 3 H 26 V 47 H 37 V 36 h -4 v -6 h -8 v -3 h 4 V 16 Z"/>
 <path style="fill:#ffffff;opacity:0.2" d="M 7.6152344 9 C 5.0583791 9 3 11.049947 3 13.59375 L 3 14.59375 C 3 12.049947 5.0583791 10 7.6152344 10 L 37.59375 10 C 40.997614 10 43.703471 11.430225 45.654297 13.371094 L 57.962891 25.851562 C 59.782898 27.624356 60.846303 30.012288 60.974609 32.529297 C 60.983108 32.362422 60.999873 32.197188 61 32.029297 C 60.997911 29.329158 59.90348 26.741809 57.962891 24.851562 L 45.654297 12.371094 C 43.703471 10.430225 40.997614 9 37.59375 9 L 7.6152344 9 z"/>
</svg>
