<svg xmlns="http://www.w3.org/2000/svg" width="64" height="64" version="1.1">
 <circle style="opacity:0.2" class="st1" cx="32" cy="33" r="28"/>
 <circle style="fill:#3f3f3f" class="st1" cx="32" cy="32" r="28"/>
 <path style="opacity:0.2" class="st2" d="m 32,20 a 7,7 0 0 0 -7,7 7,7 0 0 0 7,7 7,7 0 0 0 7,-7 7,7 0 0 0 -7,-7 z M 8.5898438,38 a 24,24 0 0 0 0.84375,3 H 54.566406 a 24,24 0 0 0 0.84375,-3 z m 2.1406252,6 a 24,24 0 0 0 2.595703,4 h 37.347656 a 24,24 0 0 0 2.595703,-4 z m 5.414062,7 A 24,24 0 0 0 32,57 24,24 0 0 0 47.855469,51 Z"/>
 <circle style="fill:#54b6ff" class="st2" cx="32" cy="26" r="7"/>
 <path style="fill:#e5e5e5" d="M 8.5898438 37 A 24 24 0 0 0 9.4335938 40 L 54.566406 40 A 24 24 0 0 0 55.410156 37 L 8.5898438 37 z M 10.730469 43 A 24 24 0 0 0 13.326172 47 L 50.673828 47 A 24 24 0 0 0 53.269531 43 L 10.730469 43 z M 16.144531 50 A 24 24 0 0 0 32 56 A 24 24 0 0 0 47.855469 50 L 16.144531 50 z"/>
 <path style="fill:#ffffff;opacity:0.1" class="st1" d="M 32 4 A 28 28 0 0 0 4 32 A 28 28 0 0 0 4.0351562 32.5 A 28 28 0 0 1 32 5 A 28 28 0 0 1 59.982422 32.251953 A 28 28 0 0 0 60 32 A 28 28 0 0 0 32 4 z"/>
 <path style="fill:#ffffff;opacity:0.2" class="st2" d="M 32 19 A 7 7 0 0 0 25 26 A 7 7 0 0 0 25.056641 26.5 A 7 7 0 0 1 32 20 A 7 7 0 0 1 38.962891 26.320312 A 7 7 0 0 0 39 26 A 7 7 0 0 0 32 19 z M 8.5898438 37 A 24 24 0 0 0 8.8710938 38 L 55.128906 38 A 24 24 0 0 0 55.410156 37 L 8.5898438 37 z M 10.730469 43 A 24 24 0 0 0 11.310547 44 L 52.689453 44 A 24 24 0 0 0 53.269531 43 L 10.730469 43 z M 16.144531 50 A 24 24 0 0 0 17.425781 51 L 46.574219 51 A 24 24 0 0 0 47.855469 50 L 16.144531 50 z"/>
</svg>
