<svg width="64" height="64" version="1.1" xmlns="http://www.w3.org/2000/svg">
 <g transform="scale(2)">
  <g transform="matrix(.99999947 -2.3633169e-6 -2.3487954e-6 1.0000076 -9.9999206 -.24983376)">
   <path d="m14.483326 7.9470819c-1.070239 0.2867667-1.700974 1.3792184-1.414209 2.4494681l2.588214 9.659191 2.199983 8.210313c0.286774 1.070245 1.379262 1.700975 2.449494 1.414208l15.454811-4.141037c1.070238-0.286766 1.700984-1.379223 1.41421-2.449468l-2.199983-8.210312-2.588215-9.6591911c-0.286775-1.0702445-1.379256-1.700975-2.449494-1.4142086z" style="opacity:.2"/>
   <g transform="matrix(.96592461 -.25881694 .25882115 .96592705 -46.115711 20.83749)">
    <path d="m60.000002 14.749997 5e-6 8.499999c1e-6 1.107999 0.892011 2 2 1.999999l16.000017-4e-6c1.107994 1e-6 2.000001-0.892001 2-2l-2.1e-5 -8.499995z" style="fill:#7767c0"/>
    <path d="m62 2.7499991c-1.107995-1e-6 -1.999989 0.8919983-1.999998 1.9999993v9.9999986l20.000001-1e-6v-9.9999986c-2e-6 -1.1079988-0.892003-1.9999992-1.999997-2.0000002z" style="fill:#248afd"/>
    <path d="m61.999961 2.7499594c-1.107994-1e-6 -1.999987 0.8919802-1.999996 1.9999801l1e-6 0.4999962c1.1e-5 -1.1080072 0.892004-1.9999789 1.999996-1.9999801l16.000009 3.78e-5c1.107994-2.2e-6 2.000006 0.8919842 2.000005 1.9999895l-1e-6 -0.4999962c-2e-6 -1.1079977-0.892013-1.9999885-2.000006-1.9999895z" style="fill:#ffffff;opacity:.2"/>
   </g>
  </g>
  <g transform="matrix(1.0000044 -3.4271017e-6 -3.4280057e-6 .99999256 -39.435534 17.158356)">
   <path d="m50.898229-14.656798c-0.852697 0.0329-1.617573 0.611889-1.850572 1.481477l-4.785074 17.856885c-0.286768 1.0702613 0.343818 2.1634824 1.414065 2.4502624l13.847608 3.7101033 3.448227 1.2e-5c0.285344-0.251558 0.503119-0.586884 0.609369-0.9834223l4.784097-17.856884c0.286768-1.070262-0.343818-2.1634835-1.414065-2.4502635l-15.455024-4.140784c-0.200671-0.05377-0.401855-0.07497-0.598631-0.06739z" style="opacity:.2"/>
   <rect transform="matrix(.96592759 .25882211 -.25881598 .96592405 -30.439669 -23.939504)" x="79.435211" y="-12.658116" width="20" height="22.487" rx="2" ry="2" style="fill:#b6b6b6"/>
   <path transform="matrix(.96592759 .25882211 -.25881598 .96592405 -30.310266 -24.42247)" d="m81.435134-12.158168c-1.107999 0-1.999984 0.892009-1.999984 2.000008l2e-6 0.5000043c0-1.1079993 0.891985-2.0000083 1.999984-2.0000083l15.99993 5.4e-5c1.107998 0 1.999998 0.892023 1.999998 2.0000223l-2e-6 -0.5000043c0-1.107998-0.891999-2.000021-1.999998-2.000021z" style="fill:#ffffff;opacity:.2"/>
  </g>
  <g>
   <rect x="6" y="4.4933872" width="20" height="24" rx="2" ry="2" style="opacity:.201"/>
   <rect x="6" y="4" width="20" height="24" rx="2" ry="2" style="fill:#e4e4e4"/>
   <path d="m8 4c-1.107999 0-2 0.8920011-2 2v10h20v-5h-5c-1.107998 0-2-0.892002-2-2v-5zm16 0c0.06925 0 0.137681 0.00296 0.205078 0.00977-0.067397-0.0068081-0.135828-0.00977-0.205078-0.00977zm0.205078 0.00977c0.0674 0.0068 0.134004 0.017973 0.199219 0.03125-0.06521-0.013277-0.131822-0.024446-0.199219-0.03125zm0.199219 0.03125c0.06522 0.013277 0.128704 0.029407 0.191406 0.048828-0.0627-0.019421-0.126191-0.035551-0.191406-0.048828zm1.505859 1.3632813c0.01942 0.062702 0.03555 0.1261914 0.04883 0.1914062-0.01328-0.065215-0.02941-0.1287042-0.04883-0.1914062zm0.04883 0.1914062c0.01328 0.065215 0.02445 0.1318214 0.03125 0.1992188-0.0068-0.067397-0.01797-0.134004-0.03125-0.1992188zm0.03125 0.1992188c0.0068 0.067393 0.0098 0.1358238 0.0098 0.2050737 0-0.06925-3e-3 -0.1376808-0.0098-0.2050781z" style="fill:#e83c44"/>
   <rect x="9" y="25" width="14" height="1.5" style="opacity:.2"/>
   <rect x="9" y="22.5" width="14" height="1.5" style="opacity:.2"/>
   <rect x="9" y="20" width="14" height="1.5" style="opacity:.2"/>
   <rect x="9" y="17.5" width="14" height="1.5" style="opacity:.2"/>
   <rect x="9" y="11" width="6" height="1.5" style="fill:#e4e4e4"/>
   <rect x="9" y="8" width="7" height="1.5" style="fill:#ffffff"/>
   <path d="m19 4v5c0 1.107998 0.892002 2 2 2h5z" style="fill:#ffffff"/>
   <path d="m19 9v0.5c0 1.107996 0.892004 2 2 2h5v-0.5h-5c-1.107997 0-2-0.892003-2-2z" style="opacity:.2"/>
   <path d="m8.0000001 4c-1.1079987 0-1.9999998 0.8920011-1.9999998 2v0.5c0-1.1079989 0.8920011-2 1.9999998-2h16c1.107999 0 2 0.8920011 2 2v-0.5c0-1.1079989-0.892001-2-2-2z" style="fill:#ffffff;opacity:.2"/>
  </g>
 </g>
</svg>
