<svg width="64" height="64" version="1.1" xmlns="http://www.w3.org/2000/svg">
 <path d="M 6.7363281 5 C 5.2201177 5 4 6.2201177 4 7.7363281 L 4 28.263672 C 4 29.779883 5.2201177 31 6.7363281 31 L 10 31 L 10 35 L 6.7363281 35 C 5.2201177 35 4 36.220117 4 37.736328 L 4 58.263672 C 4 59.779883 5.2201177 61 6.7363281 61 L 27.263672 61 C 28.779883 61 30 59.779883 30 58.263672 L 30 55 L 34 55 L 34 58.263672 C 34 59.779883 35.220117 61 36.736328 61 L 57.263672 61 C 58.779883 61 60 59.779883 60 58.263672 L 60 37.736328 C 60 36.220117 58.779883 35 57.263672 35 L 54 35 L 54 31 L 57.263672 31 C 58.779883 31 60 29.779883 60 28.263672 L 60 7.7363281 C 60 6.2201177 58.779883 5 57.263672 5 L 36.736328 5 C 35.220117 5 34 6.2201177 34 7.7363281 L 34 11 L 30 11 L 30 7.7363281 C 30 6.2201177 28.779883 5 27.263672 5 L 6.7363281 5 z " style="opacity:.2"/>
 <rect x="4" y="4" width="26" height="26" ry="2.7368419" style="fill:#e4e4e4"/>
 <rect x="34" y="4" width="26" height="26" ry="2.7368419" style="fill:#e4e4e4"/>
 <rect x="4" y="34" width="26" height="26" ry="2.7368419" style="fill:#e4e4e4"/>
 <rect x="34" y="34" width="26" height="26" ry="2.7368419" style="fill:#e4e4e4"/>
 <path d="m12.75 11c-1.5235 0-2.75 1.2265-2.75 2.75v16.25h17.263672c1.516211 0 2.736328-1.220117 2.736328-2.736328v-16.263672h-17.25zm21.25 0v16.263672c0 1.516211 1.220117 2.736328 2.736328 2.736328h17.263672v-16.25c0-1.5235-1.2265-2.75-2.75-2.75h-17.25zm-24 23v18.25c0 1.5235 1.2265 2.75 2.75 2.75h17.25v-18.263672c0-1.516211-1.220117-2.736328-2.736328-2.736328h-17.263672zm26.736328 0c-1.516211 0-2.736328 1.220117-2.736328 2.736328v18.263672h17.25c1.5235 0 2.75-1.2265 2.75-2.75v-18.25h-17.263672z" style="opacity:.1"/>
 <rect x="10.000002" y="10" width="44" height="44" ry="2.75" style="fill:#4f4f4f"/>
 <path d="m23 21c-1.662 0-3 1.338-3 3v18c0 1.662 1.338 3 3 3h18c1.662 0 3-1.338 3-3v-18c0-1.662-1.338-3-3-3zm2 3h14c1.108 0 2 0.892 2 2v14c0 1.108-0.892 2-2 2h-14c-1.108 0-2-0.892-2-2v-14c0-1.108 0.892-2 2-2z" style="opacity:.2"/>
 <path d="m23 20c-1.662 0-3 1.338-3 3v18c0 1.662 1.338 3 3 3h18c1.662 0 3-1.338 3-3v-18c0-1.662-1.338-3-3-3h-18zm2 3h14c1.108 0 2 0.892 2 2v14c0 1.108-0.892 2-2 2h-14c-1.108 0-2-0.892-2-2v-14c0-1.108 0.892-2 2-2z" style="fill:#ffffff"/>
 <path d="m12.75 10c-1.5235 0-2.75 1.2265-2.75 2.75v1c0-1.5235 1.2265-2.75 2.75-2.75h38.5c1.5235 0 2.75 1.2265 2.75 2.75v-1c0-1.5235-1.2265-2.75-2.75-2.75h-38.5z" style="fill:#ffffff;opacity:.1"/>
</svg>
