<svg xmlns="http://www.w3.org/2000/svg" width="64" height="64" version="1.1">
 <rect style="opacity:0.2" width="56" height="56" x="4" y="5" rx="3" ry="3"/>
 <rect style="fill:#8e8e8e" width="56" height="56" x="4" y="4" rx="3" ry="3"/>
 <path style="opacity:0.2" d="M 31,9 C 19.954,9 11,17.954 11,29 V 57 H 25 V 48.082 C 26.894,48.677 28.909,49 31,49 32.828,49 34.591,48.733 36.273,48.273 L 45,57 54,48 46.984,40.984 C 49.495,37.642 51,33.502 51,29 51,17.954 42.046,9 31,9 Z"/>
 <path style="fill:#dddddd" d="M 31,8 C 19.954,8 11,16.954 11,28 V 56 H 25 V 47.082 C 26.894,47.677 28.909,48 31,48 32.828,48 34.591,47.733 36.273,47.273 L 45,56 54,47 46.984,39.984 C 49.495,36.642 51,32.502 51,28 51,16.954 42.046,8 31,8 Z"/>
 <path style="opacity:0.2" d="M 31,13 A 16,16 0 0 0 15,29 V 53 H 21 V 41.471 A 16,16 0 0 0 31,45 16,16 0 0 0 47,29 16,16 0 0 0 31,13 Z"/>
 <path style="fill:#333333" d="M 31,12 A 16,16 0 0 0 15,28 V 52 H 21 V 40.471 A 16,16 0 0 0 31,44 16,16 0 0 0 47,28 16,16 0 0 0 31,12 Z"/>
 <circle style="opacity:0.2" cx="31" cy="29" r="10"/>
 <circle style="fill:#ffffff" cx="31" cy="28" r="10"/>
 <path style="fill:#ffffff;opacity:0.1" d="M 31 12 A 16 16 0 0 0 15 28 L 15 29 A 16 16 0 0 1 31 13 A 16 16 0 0 1 46.979 28.58 A 16 16 0 0 0 47 28 A 16 16 0 0 0 31 12 z"/>
 <path style="fill:#ffffff;opacity:0.2" d="M 7 4 C 5.338 4 4 5.338 4 7 L 4 8 C 4 6.338 5.338 5 7 5 L 57 5 C 58.662 5 60 6.338 60 8 L 60 7 C 60 5.338 58.662 4 57 4 L 7 4 z"/>
</svg>
