<svg xmlns="http://www.w3.org/2000/svg" width="64" height="64" version="1.1">
 <rect style="opacity:0.200191;fill-opacity:1;stroke-width:1.39511" width="56" height="55.609756" x="4" y="5.390244" rx="2.8" ry="2.7804878"/>
 <rect style="fill:#eef4f7;fill-opacity:1;stroke-width:1.39511" width="56" height="55.609756" x="4" y="4" rx="2.8" ry="2.7804878"/>
 <path fill="#ffffff" style="opacity:0.2;stroke-width:1.39511" d="M 6.8,4 C 5.2488,4 4,5.2400977 4,6.7804879 V 8.1707316 C 4,6.6303416 5.2488,5.390244 6.8,5.390244 h 50.4 c 1.5512,0 2.8,1.2400976 2.8,2.7804876 V 6.7804879 C 60,5.2400977 58.7512,4 57.2,4 Z"/>
 <path style="opacity:0.199585;fill:none;fill-opacity:1;stroke:#000000;stroke-width:3.18882;stroke-linecap:round;stroke-opacity:1" d="m 13.172597,24.178395 h 6.399998 m 0,6.355398 V 17.822994 M 13.172597,30.533793 V 17.822994"/>
 <path style="opacity:0.199585;fill:none;fill-opacity:1;stroke:#000000;stroke-width:2.12589;stroke-linecap:round;stroke-linejoin:round;stroke-opacity:1" d="m 26.257354,27.885711 h 4.266665 m -4.266665,3.1777 V 24.70801 c 0,0 0,-2.118465 2.133334,-2.118465 2.133331,0 2.133331,2.118465 2.133331,2.118465 v 6.355401"/>
 <path style="opacity:0.199585;fill:none;fill-opacity:1;stroke:#000000;stroke-width:2.12589;stroke-linecap:round;stroke-linejoin:round;stroke-opacity:1" d="m 36.675444,30.004178 c 0,0 0.53333,1.059233 2.133331,1.059233 1.6,0 2.133334,-1.059233 2.133334,-2.118468 0,-4.236933 -4.266665,0 -4.266665,-4.236933 0,-1.059233 0.53333,-2.118465 2.133331,-2.118465 1.6,0 2.133334,1.059232 2.133334,1.059232"/>
 <path style="opacity:0.199585;fill:none;fill-opacity:1;stroke:#000000;stroke-width:2.12589;stroke-linecap:round;stroke-opacity:1" d="m 47.093463,26.826479 h 4.266667 m 0,4.236932 v -8.473866 m -4.266667,8.473866 v -8.473866"/>
 <path style="opacity:0.199585;fill:none;fill-opacity:1;stroke:#000000;stroke-width:3.18882;stroke-linecap:round;stroke-linejoin:round;stroke-opacity:1" d="m 22.792186,46.951912 c 0,0 0,1.059232 -3.200001,1.059232 -3.2,0 -3.2,-3.196767 -3.2,-6.355398 0,-3.161811 0,-6.355401 3.2,-6.355401 3.200001,0 3.200001,1.059232 3.200001,1.059232"/>
 <path style="opacity:0.199585;fill:none;fill-opacity:1;stroke:#000000;stroke-width:2.12589;stroke-linecap:round;stroke-linejoin:round;stroke-opacity:1" d="m 27.330703,45.363061 h 4.266667 m -4.266667,3.177701 v -6.355397 c 0,0 0,-2.118469 2.133331,-2.118469 2.133336,0 2.133336,2.118469 2.133336,2.118469 v 6.355397"/>
 <path style="opacity:0.199585;fill:none;fill-opacity:1;stroke:#000000;stroke-width:2.12589;stroke-linecap:round;stroke-linejoin:round;stroke-opacity:1" d="m 35.602553,40.066896 v 8.473866 h 4.266665"/>
 <path style="opacity:0.199585;fill:none;fill-opacity:1;stroke:#000000;stroke-width:2.12589;stroke-linecap:round;stroke-linejoin:round;stroke-opacity:1" d="m 48.141957,47.48153 c 0,0 0,1.059232 -2.133334,1.059232 -2.133332,0 -2.133332,-2.118465 -2.133332,-4.236934 0,-2.118463 0,-4.236932 2.133332,-4.236932 2.133334,0 2.133334,1.059232 2.133334,1.059232"/>
 <path style="fill:none;stroke:#0051cb;stroke-width:3.18882;stroke-linecap:round;stroke-opacity:1" d="m 13.172898,23.066201 h 6.399998 m 0,6.355399 V 16.7108 M 13.172898,29.4216 V 16.7108"/>
 <path style="fill:none;stroke:#0051cb;stroke-width:2.12589;stroke-linecap:round;stroke-linejoin:round;stroke-opacity:1" d="m 26.257655,26.773517 h 4.266665 m -4.266665,3.1777 v -6.355401 c 0,0 0,-2.118465 2.133334,-2.118465 2.133331,0 2.133331,2.118465 2.133331,2.118465 v 6.355401"/>
 <path style="fill:none;stroke:#0051cb;stroke-width:2.12589;stroke-linecap:round;stroke-linejoin:round;stroke-opacity:1" d="m 36.675745,28.891985 c 0,0 0.53333,1.059232 2.133331,1.059232 1.6,0 2.133334,-1.059232 2.133334,-2.118467 0,-4.236934 -4.266665,0 -4.266665,-4.236934 0,-1.059233 0.53333,-2.118465 2.133331,-2.118465 1.6,0 2.133334,1.059232 2.133334,1.059232"/>
 <path style="fill:none;stroke:#0051cb;stroke-width:2.12589;stroke-linecap:round;stroke-opacity:1" d="m 47.093764,25.714285 h 4.266667 m 0,4.236932 v -8.473866 m -4.266667,8.473866 v -8.473866"/>
 <path style="fill:none;stroke:#0051cb;stroke-width:3.18882;stroke-linecap:round;stroke-linejoin:round;stroke-opacity:1" d="m 22.792487,45.839718 c 0,0 0,1.059233 -3.200001,1.059233 -3.2,0 -3.2,-3.196767 -3.2,-6.355399 0,-3.161811 0,-6.355401 3.2,-6.355401 3.200001,0 3.200001,1.059232 3.200001,1.059232"/>
 <path style="fill:none;stroke:#0051cb;stroke-width:2.12589;stroke-linecap:round;stroke-linejoin:round;stroke-opacity:1" d="m 27.331004,44.250867 h 4.266667 m -4.266667,3.177701 v -6.355397 c 0,0 0,-2.118469 2.133331,-2.118469 2.133336,0 2.133336,2.118469 2.133336,2.118469 v 6.355397"/>
 <path style="fill:none;stroke:#0051cb;stroke-width:2.12589;stroke-linecap:round;stroke-linejoin:round;stroke-opacity:1" d="m 35.602854,38.954702 v 8.473866 h 4.266665"/>
 <path style="fill:none;stroke:#0051cb;stroke-width:2.12589;stroke-linecap:round;stroke-linejoin:round;stroke-opacity:1" d="m 48.142258,46.369336 c 0,0 0,1.059232 -2.133334,1.059232 -2.133332,0 -2.133332,-2.118465 -2.133332,-4.236933 0,-2.118464 0,-4.236933 2.133332,-4.236933 2.133334,0 2.133334,1.059233 2.133334,1.059233"/>
</svg>
