<svg xmlns="http://www.w3.org/2000/svg" width="64" height="64" version="1.1">
 <path style="opacity:0.2" d="m 22.462504,14.2 c -1.48847,0 -2.969893,1.277121 -2.686768,2.8 L 23.9397,39.4 16.477624,54.953124 c -0.531122,1.067304 -0.630632,1.71866 -0.241389,2.646876 0.371563,0.886056 1.331749,1.4 2.329931,1.4 H 32 45.433834 c 0.998182,0 1.958368,-0.513944 2.32993,-1.4 0.389242,-0.928216 0.289736,-1.579572 -0.241388,-2.646876 L 40.0603,39.4 44.224266,17 c 0.283124,-1.522879 -1.1983,-2.8 -2.686768,-2.8 H 32 Z"/>
 <path style="fill:#cccccc" d="m 22.462504,13.2 c -1.48847,0 -2.969893,1.277121 -2.686768,2.8 L 23.9397,38.4 16.477624,53.953124 c -0.531122,1.067304 -0.630632,1.71866 -0.241389,2.646876 0.371563,0.886056 1.331749,1.4 2.329931,1.4 H 32 45.433834 c 0.998182,0 1.958368,-0.513944 2.32993,-1.4 0.389242,-0.928216 0.289736,-1.579572 -0.241388,-2.646876 L 40.0603,38.4 44.224266,16 c 0.283124,-1.522879 -1.1983,-2.8 -2.686768,-2.8 H 32 Z"/>
 <path style="opacity:0.2" d="m 4,45 v 3.2 C 4,49.7512 5.2488,51 6.8,51 H 57.2 C 58.7512,51 60,49.7512 60,48.2 V 45 Z"/>
 <path style="fill:#e4e4e4" d="m 4,44 v 3.2 C 4,48.7512 5.2488,50 6.8,50 H 57.2 C 58.7512,50 60,48.7512 60,47.2 V 44 Z"/>
 <path style="fill:#077063" d="M 6.8,6 C 5.2488,6 4,7.2488 4,8.8 V 44 H 60 V 8.8 C 60,7.2488 58.7512,6 57.2,6 Z"/>
 <path style="opacity:0.1" d="m 49.828124,19 a 2.1,2.1 0 0 0 -1.61328,0.847656 l -4.726562,6.355468 C 40.140538,24.172424 36.210864,23 32.003906,23 c -4.209174,0 -8.139944,1.174068 -11.488282,3.207032 l -4.730468,-6.359376 a 2.1,2.1 0 0 0 -1.378906,-0.824218 2.1,2.1 0 0 0 -1.558594,0.390624 2.1,2.1 0 0 0 -0.433594,2.9375 l 4.734376,6.363282 C 13.191051,32.294412 10.541342,37.281052 10.003906,42.882812 9.9028528,45.000236 12.136719,45 12.136719,45 h 39.671875 c 0,0 2.298956,5.18e-4 2.1875,-2.222656 -0.560636,-5.560814 -3.201062,-10.51342 -7.136718,-14.070312 l 4.726562,-6.351564 A 2.1,2.1 0 0 0 51.152344,19.414062 2.1,2.1 0 0 0 49.828124,19 Z"/>
 <path style="fill:none;stroke:#30dd81;stroke-width:4.2;stroke-linecap:round" d="M 19.67972,27.600036 14.1,20.1"/>
 <path style="fill:none;stroke:#30dd81;stroke-width:4.2;stroke-linecap:round" d="M 44.31967,27.600036 49.9,20.1"/>
 <path style="fill:#30dd81" d="M 32.003282,22 C 20.513964,22 11.073721,30.726928 10.003326,41.883788 9.9022724,44.001212 12.137437,44 12.137437,44 h 39.670819 c 0,0 2.299276,-4.62e-4 2.18782,-2.223636 C 52.876362,30.670166 43.456276,22 32.003282,22 Z"/>
 <path style="opacity:0.2" d="m 21,33 a 3.0000002,3.0000002 0 0 0 -3,3 3.0000002,3.0000002 0 0 0 3,3 3.0000002,3.0000002 0 0 0 3,-3 3.0000002,3.0000002 0 0 0 -3,-3 z m 22,0 a 3.0000002,3.0000002 0 0 0 -3,3 3.0000002,3.0000002 0 0 0 3,3 3.0000002,3.0000002 0 0 0 3,-3 3.0000002,3.0000002 0 0 0 -3,-3 z"/>
 <path style="fill:#ffffff" d="m 21,32 a 3.0000002,3.0000002 0 0 1 3,3 3.0000002,3.0000002 0 0 1 -3,3 3.0000002,3.0000002 0 0 1 -3,-3 3.0000002,3.0000002 0 0 1 3,-3 z"/>
 <path style="fill:#ffffff" d="m 43,32 a 3.0000002,3.0000002 0 0 1 3,3 3.0000002,3.0000002 0 0 1 -3,3 3.0000002,3.0000002 0 0 1 -3,-3 3.0000002,3.0000002 0 0 1 3,-3 z"/>
 <path style="opacity:0.1;fill:#ffffff" d="M 6.8007812 6 C 5.2495812 6 4 7.2495813 4 8.8007812 L 4 9.8007812 C 4 8.2495812 5.2495812 7 6.8007812 7 L 57.199219 7 C 58.750419 7 60 8.2495812 60 9.8007812 L 60 8.8007812 C 60 7.2495813 58.750419 6 57.199219 6 L 6.8007812 6 z"/>
</svg>
