<svg xmlns="http://www.w3.org/2000/svg" width="64" height="64" version="1.1">
 <circle style="opacity:0.2" cx="32" cy="32" r="27"/>
 <circle style="fill:#4f4f4f" cx="32" cy="31" r="27"/>
 <path style="opacity:0.2" d="M 30.6,33 33,35.7 V 53.65 L 36,62 39,53.65 V 35.7 L 41.4,33 h -2.7 -5.4 z"/>
 <path style="opacity:0.2" d="M 24.916666,16.57161 A 17,17 0 0 0 15,32 17,17 0 0 0 32,49 17,17 0 0 0 49,32 17,17 0 0 0 39.083334,16.58268 v 0.33203 A 14.166667,14.166667 0 0 1 46.166666,29.16667 14.166667,14.166667 0 0 1 32,43.333334 14.166667,14.166667 0 0 1 17.833333,29.16667 14.166667,14.166667 0 0 1 24.916666,16.92025 Z"/>
 <path style="fill:#86c14d" d="M 24.916666,15.571615 A 17,17 0 0 0 15,31 17,17 0 0 0 32,48 17,17 0 0 0 49,31 17,17 0 0 0 39.083334,15.582683 v 0.33203 A 14.166667,14.166667 0 0 1 46.166666,28.166666 14.166667,14.166667 0 0 1 32,42.333334 14.166667,14.166667 0 0 1 17.833333,28.166666 14.166667,14.166667 0 0 1 24.916666,15.920248 Z"/>
 <path style="opacity:0.2;fill:#ffffff" d="M 24.916016 15.572266 A 17 17 0 0 0 15 31 A 17 17 0 0 0 15.015625 31.310547 A 17 17 0 0 1 21.580078 18.617188 A 14.166667 14.166667 0 0 1 24.916016 15.919922 L 24.916016 15.572266 z M 39.083984 15.582031 L 39.083984 15.914062 A 14.166667 14.166667 0 0 1 42.46875 18.646484 A 17 17 0 0 1 48.978516 31.591797 A 17 17 0 0 0 49 31 A 17 17 0 0 0 39.083984 15.582031 z M 46.148438 28.503906 A 14.166667 14.166667 0 0 1 32 42.333984 A 14.166667 14.166667 0 0 1 17.855469 28.759766 A 14.166667 14.166667 0 0 0 17.833984 29.166016 A 14.166667 14.166667 0 0 0 32 43.333984 A 14.166667 14.166667 0 0 0 46.166016 29.166016 A 14.166667 14.166667 0 0 0 46.148438 28.503906 z"/>
 <path style="opacity:0.1;fill:#ffffff" d="M 32 4 A 27 27 0 0 0 5 31 A 27 27 0 0 0 5.0175781 31.498047 A 27 27 0 0 1 32 5 A 27 27 0 0 1 58.974609 31.486328 A 27 27 0 0 0 59 31 A 27 27 0 0 0 32 4 z"/>
 <path style="opacity:0.2" d="M 22.6,33 25,35.7 V 53.65 L 28,62 31,53.65 V 35.7 L 33.4,33 h -2.7 -5.4 z"/>
 <path style="fill:#86c14d" d="M 22.6,32 25,34.7 V 52.65 L 28,61 31,52.65 V 34.7 L 33.4,32 h -2.7 -5.4 z"/>
 <path style="fill:#86c14d" d="M 30.6,32 33,34.7 V 52.65 L 36,61 39,52.65 V 34.7 L 41.4,32 h -2.7 -5.4 z"/>
 <path style="opacity:0.2;fill:#ffffff" d="M 22.599609 32 L 23.488281 33 L 25.300781 33 L 30.699219 33 L 32.511719 33 L 33.400391 32 L 30.699219 32 L 25.300781 32 L 22.599609 32 z"/>
 <path style="opacity:0.2;fill:#ffffff" d="M 30.599609 32 L 31.488281 33 L 33.300781 33 L 38.699219 33 L 40.511719 33 L 41.400391 32 L 38.699219 32 L 33.300781 32 L 30.599609 32 z"/>
</svg>
