<svg xmlns="http://www.w3.org/2000/svg" width="64" height="64" version="1">
 <path style="opacity:0.2" d="m 4,57 0,1 c 0,1.662 1.338,3 3,3 l 50,0 c 1.662,0 3,-1.338 3,-3 l 0,-1 c 0,1.662 -1.338,3 -3,3 L 7,60 C 5.338,60 4,58.662 4,57 Z"/>
 <rect style="fill:#2095f2" width="56" height="56" x="-60" y="-60" rx="3" ry="3" transform="matrix(0,-1,-1,0,0,0)"/>
 <path style="opacity:0.2;fill:#ffffff" d="M 7 4 C 5.338 4 4 5.338 4 7 L 4 8 C 4 6.338 5.338 5 7 5 L 57 5 C 58.662 5 60 6.338 60 8 L 60 7 C 60 5.338 58.662 4 57 4 L 7 4 z"/>
 <path style="opacity:0.2" d="m 42.291016,11.00047 c -4.5822,-0.004 -13.940826,1.915538 -14.939486,3.142578 -0.3006,0.36928 -0.310843,0.744063 -0.03906,1.539063 0.61036,1.7854 1.002776,4.776834 -0.335905,13.490234 -1.552459,10.1044 -2.2072,13.603837 -2.55664,13.960157 -0.14428,0.14714 -0.908659,-0.03074 -1.699219,-0.396484 -1.947,-0.900761 -4.965337,-0.908599 -6.398437,-0.01758 -4.2708,2.654 -2.388153,8.126812 3.498046,10.082812 l 0,0.002 c 0.447,0.14858 1.710134,0.230354 2.808594,0.183594 1.5454,-0.06578 2.354812,-0.305413 3.576172,-1.064453 2.3264,-1.4456 3.4332,-3.905169 4.6875,-10.417969 C 31.435618,38.684576 31.90764,36.09467 32,36.00047 c 0.09238,-0.0942 0.75165,0.704164 1.40625,1.521484 4.2564,5.3144 6.977947,7.478516 10.060547,7.478516 0.95582,0 1.572265,-0.107658 1.572265,-0.335938 0,-0.20662 -0.754634,-1.034357 -1.677734,-1.960937 C 40.727267,39.960812 39.568847,35.931926 37,33.00047 l 1.263672,-0.660156 c 8.4976,-5.2556 13.456547,-13.056103 11.185547,-17.595703 -1.3342,-2.66702 -3.386003,-3.740741 -7.158203,-3.744141 z m -1.517578,7 c 1.583866,-0.0045 3.009016,0.151604 3.640624,0.507812 0.680055,0.383526 0.76396,0.497055 0.271485,0.371094 -0.574576,-0.146983 -0.915186,0.101508 -1.775391,1.300782 -1.343276,1.872845 -3.501634,3.878246 -6.021484,5.59375 -2.986776,2.033445 -3.687318,2.423729 -3.863281,2.148437 -0.223135,-0.34904 1.103877,-8.331378 1.457031,-8.763672 0.57203,-0.700234 3.651238,-1.15077 6.291016,-1.158203 z"/>
 <path style="fill:#ffffff" d="m 42.291016,10 c -4.5822,-0.004 -13.940826,1.915538 -14.939486,3.142578 -0.3006,0.36928 -0.310843,0.744063 -0.03906,1.539063 0.61036,1.7854 1.002776,4.776834 -0.335905,13.490234 -1.552459,10.1044 -2.2072,13.603837 -2.55664,13.960157 -0.14428,0.14714 -0.908659,-0.03074 -1.699219,-0.396484 -1.947,-0.900761 -4.965337,-0.908599 -6.398437,-0.01758 -4.2708,2.654 -2.388153,8.126812 3.498046,10.082812 l 0,0.002 c 0.447,0.14858 1.710134,0.230354 2.808594,0.183594 1.5454,-0.06578 2.354812,-0.305413 3.576172,-1.064453 2.3264,-1.4456 3.4332,-3.905169 4.6875,-10.417969 C 31.435618,37.684106 31.90764,35.0942 32,35 c 0.09238,-0.0942 0.75165,0.704164 1.40625,1.521484 C 37.66265,41.835884 40.384197,44 43.466797,44 c 0.95582,0 1.572265,-0.107658 1.572265,-0.335938 0,-0.20662 -0.754634,-1.034357 -1.677734,-1.960937 C 40.727267,38.960342 39.568847,34.931456 37,32 l 1.263672,-0.660156 c 8.4976,-5.2556 13.456547,-13.056103 11.185547,-17.595703 C 48.115019,11.077121 46.063216,10.0034 42.291016,10 Z m -1.517578,7 c 1.583866,-0.0045 3.009016,0.151604 3.640624,0.507812 0.680055,0.383526 0.76396,0.497055 0.271485,0.371094 -0.574576,-0.146983 -0.915186,0.101508 -1.775391,1.300782 -1.343276,1.872845 -3.501634,3.878246 -6.021484,5.59375 -2.986776,2.033445 -3.687318,2.423729 -3.863281,2.148437 -0.223135,-0.34904 1.103877,-8.331378 1.457031,-8.763672 C 35.054452,17.457969 38.13366,17.007433 40.773438,17 Z"/>
</svg>
