<svg xmlns="http://www.w3.org/2000/svg" width="64" height="64" version="1.1" viewBox="0 0 64 64">
 <ellipse cx="32" cy="33" rx="28" ry="10" style="opacity:0.2"/>
 <ellipse style="fill:#c22c2d" cx="32" cy="32" rx="28" ry="10"/>
 <path style="opacity:0.1;fill:#ffffff" d="M 32 22 A 28 10 0 0 0 4 32 A 28 10 0 0 0 4.0625 32.378906 A 28 10 0 0 1 32 23 A 28 10 0 0 1 59.929688 32.496094 A 28 10 0 0 0 60 32 A 28 10 0 0 0 32 22 z"/>
 <ellipse style="opacity:0.2" cx="44.596" cy="-12.966" rx="28.827" ry="10.051" transform="matrix(0.4655682,0.885012,-0.8667044,0.4988221,0,0)"/>
 <ellipse cx="43.728" cy="-13.432" rx="28.827" ry="10.051" transform="matrix(0.4655682,0.885012,-0.8667044,0.4988221,0,0)" style="fill:#ed5633"/>
 <path style="opacity:0.2;fill:#ffffff" d="M 20.578125 6 A 28.829658 10.042452 62.55358 0 0 18.578125 6.4882812 A 28.829658 10.042452 62.55358 0 0 16.039062 14.171875 A 28.829658 10.042452 62.55358 0 1 18.578125 7.4882812 A 28.829658 10.042452 62.55358 0 1 20.578125 7 A 28.829658 10.042452 62.55358 0 1 40.710938 27.988281 A 28.829658 10.042452 62.55358 0 1 47.958984 50.744141 A 28.829658 10.042452 62.55358 0 0 40.710938 26.988281 A 28.829658 10.042452 62.55358 0 0 20.578125 6 z"/>
 <ellipse cx="12.648" cy="43.716" rx="28.827" ry="10.051" transform="matrix(-0.4655682,0.885012,0.8667044,0.4988221,0,0)" style="opacity:0.2"/>
 <ellipse style="fill:#ff9c31" cx="11.781" cy="43.25" rx="28.827" ry="10.051" transform="matrix(-0.4655682,0.885012,0.8667044,0.4988221,0,0)"/>
 <path style="opacity:0.2;fill:#ffffff" d="M 43.421875 6 A 10.042452 28.829658 27.44642 0 0 23.289062 26.988281 A 10.042452 28.829658 27.44642 0 0 16.037109 51.306641 A 10.042452 28.829658 27.44642 0 1 23.289062 27.988281 A 10.042452 28.829658 27.44642 0 1 43.421875 7 A 10.042452 28.829658 27.44642 0 1 45.421875 7.4882812 A 10.042452 28.829658 27.44642 0 1 47.962891 13.511719 A 10.042452 28.829658 27.44642 0 0 45.421875 6.4882812 A 10.042452 28.829658 27.44642 0 0 43.421875 6 z"/>
 <path d="m 26,22.999998 h 12 l 5.2,10 -5.2,10 H 26 l -5.2,-10 z" style="opacity:0.2"/>
 <path style="fill:#ffffff" d="M 26,22 H 38 L 43.2,32 38,42 H 26 L 20.8,32 Z"/>
 <circle style="fill:#c22c2d" cx="32" cy="32" r="5"/>
</svg>
