<svg width="64" height="64" version="1.1" xmlns="http://www.w3.org/2000/svg">
 <path d="m10 55.9998v2c0 1.662 1.338 3 3 3h38c1.662 0 3-1.338 3-3v-2c0 1.662-1.338 3-3 3h-38c-1.662 0-3-1.338-3-3z" style="opacity:.2"/>
 <path d="m54 56.9998v-50c0-1.662-1.338-3-3-3h-38c-1.662 0-3 1.338-3 3v50c0 1.662 1.338 3 3 3h38c1.662 0 3-1.338 3-3z" style="fill:#afb225"/>
 <path d="m13 3.9998c-1.662 0-3 1.338-3 3v1c0-1.662 1.338-3 3-3h38c1.662 0 3 1.338 3 3v-1c0-1.662-1.338-3-3-3z" style="fill:#ffffff;opacity:.1"/>
 <g transform="translate(0,-2e-4)" style="fill:#ffffff;opacity:.5">
  <path d="m14.75 10a0.750075 0.66673333 0 0 0-0.75 0.666016v6.667968a0.750075 0.66673333 0 0 0 0.75 0.666016h4.5a0.750075 0.66673333 0 0 0 0.75-0.666016v-6.667968a0.750075 0.66673333 0 0 0-0.75-0.666016zm0.25 1h4v6h-4z" style="fill:#ffffff"/>
  <path d="m24.492192 9.9999999a0.49998983 0.66507862 0 0 0-0.492131 0.6754131v6.650119a0.49998983 0.66507862 0 1 0 0.99988 0v-6.650119a0.49998983 0.66507862 0 0 0-0.507939-0.675213z" style="fill-rule:evenodd;fill:#ffffff"/>
  <path d="m30.492192 9.9999999a0.49998983 0.66507862 0 0 0-0.492131 0.6754131v6.650119a0.49998983 0.66507862 0 1 0 0.99988 0v-6.650119a0.49998983 0.66507862 0 0 0-0.507939-0.675213z" style="fill-rule:evenodd;fill:#ffffff"/>
  <path d="m34.75 10a0.750075 0.66673333 0 0 0-0.75 0.666016v6.667968a0.750075 0.66673333 0 0 0 0.75 0.666016h4.5a0.750075 0.66673333 0 0 0 0.75-0.666016v-6.667968a0.750075 0.66673333 0 0 0-0.75-0.666016zm0.25 1h4v6h-4z" style="fill:#ffffff"/>
  <path d="m44.75 10a0.750075 0.66673333 0 0 0-0.75 0.666016v6.667968a0.750075 0.66673333 0 0 0 0.75 0.666016h4.5a0.750075 0.66673333 0 0 0 0.75-0.666016v-6.667968a0.750075 0.66673333 0 0 0-0.75-0.666016zm0.25 1h4v6h-4z" style="fill:#ffffff"/>
  <path d="m49.25 34a0.750075 0.66673333 0 0 1 0.75 0.666016v6.667968a0.750075 0.66673333 0 0 1-0.75 0.666016h-4.5a0.750075 0.66673333 0 0 1-0.75-0.666016v-6.667968a0.750075 0.66673333 0 0 1 0.75-0.666016zm-0.25 1h-4v6h4z" style="fill:#ffffff"/>
  <path d="m39.507808 34a0.49998983 0.66507862 0 0 1 0.492131 0.675413v6.650119a0.49998983 0.66507862 0 1 1-0.99988 0v-6.650119a0.49998983 0.66507862 0 0 1 0.507939-0.675213z" style="fill-rule:evenodd;fill:#ffffff"/>
  <path d="m33.507808 34a0.49998983 0.66507862 0 0 1 0.492131 0.675413v6.650119a0.49998983 0.66507862 0 1 1-0.99988 0v-6.650119a0.49998983 0.66507862 0 0 1 0.507939-0.675213z" style="fill-rule:evenodd;fill:#ffffff"/>
  <path d="m29.25 34a0.750075 0.66673333 0 0 1 0.75 0.666016v6.667968a0.750075 0.66673333 0 0 1-0.75 0.666016h-4.5a0.750075 0.66673333 0 0 1-0.75-0.666016v-6.667968a0.750075 0.66673333 0 0 1 0.75-0.666016zm-0.25 1h-4v6h4z" style="fill:#ffffff"/>
  <path d="m19.25 34a0.750075 0.66673333 0 0 1 0.75 0.666016v6.667968a0.750075 0.66673333 0 0 1-0.75 0.666016h-4.5a0.750075 0.66673333 0 0 1-0.75-0.666016v-6.667968a0.750075 0.66673333 0 0 1 0.75-0.666016zm-0.25 1h-4v6h4z" style="fill:#ffffff"/>
  <path d="m27.25 22a0.750075 0.66673333 0 0 1 0.75 0.666016v6.667968a0.750075 0.66673333 0 0 1-0.75 0.666016h-4.5a0.750075 0.66673333 0 0 1-0.75-0.666016v-6.667968a0.750075 0.66673333 0 0 1 0.75-0.666016zm-0.25 1h-4v6h4z" style="fill:#ffffff"/>
  <path d="m16.507808 22a0.49998983 0.66507862 0 0 1 0.492131 0.675413v6.650119a0.49998983 0.66507862 0 1 1-0.99988 0v-6.650119a0.49998983 0.66507862 0 0 1 0.507939-0.675213z" style="fill-rule:evenodd;fill:#ffffff"/>
  <path d="m34.492192 22a0.49998983 0.66507862 0 0 0-0.492131 0.675413v6.650119a0.49998983 0.66507862 0 1 0 0.99988 0v-6.650119a0.49998983 0.66507862 0 0 0-0.507939-0.675213z" style="fill-rule:evenodd;fill:#ffffff"/>
  <path d="m44.75 22a0.750075 0.66673333 0 0 0-0.75 0.666016v6.667968a0.750075 0.66673333 0 0 0 0.75 0.666016h4.5a0.750075 0.66673333 0 0 0 0.75-0.666016v-6.667968a0.750075 0.66673333 0 0 0-0.75-0.666016zm0.25 1h4v6h-4z" style="fill:#ffffff"/>
  <path d="m38.492192 22a0.49998983 0.66507862 0 0 0-0.492131 0.675413v6.650119a0.49998983 0.66507862 0 1 0 0.99988 0v-6.650119a0.49998983 0.66507862 0 0 0-0.507939-0.675213z" style="fill-rule:evenodd;fill:#ffffff"/>
  <path d="m36.75 46a0.750075 0.66673333 0 0 0-0.75 0.666016v6.667968a0.750075 0.66673333 0 0 0 0.75 0.666016h4.5a0.750075 0.66673333 0 0 0 0.75-0.666016v-6.667968a0.750075 0.66673333 0 0 0-0.75-0.666016zm0.25 1h4v6h-4z" style="fill:#ffffff"/>
  <path d="m47.492192 46a0.49998983 0.66507862 0 0 0-0.492131 0.675413v6.650119a0.49998983 0.66507862 0 1 0 0.99988 0v-6.650119a0.49998983 0.66507862 0 0 0-0.507939-0.675213z" style="fill-rule:evenodd;fill:#ffffff"/>
  <path d="m29.507808 46a0.49998983 0.66507862 0 0 1 0.492131 0.675413v6.650119a0.49998983 0.66507862 0 1 1-0.99988 0v-6.650119a0.49998983 0.66507862 0 0 1 0.507939-0.675213z" style="fill-rule:evenodd;fill:#ffffff"/>
  <path d="m19.25 46a0.750075 0.66673333 0 0 1 0.75 0.666016v6.667968a0.750075 0.66673333 0 0 1-0.75 0.666016h-4.5a0.750075 0.66673333 0 0 1-0.75-0.666016v-6.667968a0.750075 0.66673333 0 0 1 0.75-0.666016zm-0.25 1h-4v6h4z" style="fill:#ffffff"/>
  <path d="m25.507808 46a0.49998983 0.66507862 0 0 1 0.492131 0.675413v6.650119a0.49998983 0.66507862 0 1 1-0.99988 0v-6.650119a0.49998983 0.66507862 0 0 1 0.507939-0.675213z" style="fill-rule:evenodd;fill:#ffffff"/>
 </g>
 <path d="m63.958 45.8478a16 16 0 0 1-15.958 15.152 16 16 0 0 1-15.958-14.848 16 16 0 0 0-0.042 0.848 16 16 0 0 0 16 16 16 16 0 0 0 16-16 16 16 0 0 0-0.04296-1.15234z" style="opacity:.2"/>
 <circle cx="48" cy="45.999802" r="16" style="fill:#d2d638"/>
 <path d="m45 38c-1.662 0-3 1.338-3 3v10c0 1.662 1.338 3 3 3h6c1.662 0 3-1.338 3-3v-2h-3c0 1.108-0.892 2-2 2h-2c-1.108 0-2-0.892-2-2v-6c0-1.108 0.892-2 2-2h2c1.108 0 2 0.892 2 2h3v-2c0-1.662-1.338-3-3-3h-6z" style="fill:#ffffff"/>
</svg>
