<svg xmlns="http://www.w3.org/2000/svg" width="64" height="64" version="1.1">
 <rect style="opacity:0.2" width="56" height="56" x="4" y="5" rx="13" ry="13"/>
 <rect style="fill:#e4e4e4" width="56" height="56" x="4" y="4" rx="13" ry="13"/>
 <path style="fill:#ffffff;opacity:0.2" d="M 17 4 C 9.798 4 4 9.798 4 17 L 4 18 C 4 10.798 9.798 5 17 5 L 47 5 C 54.202 5 60 10.798 60 18 L 60 17 C 60 9.798 54.202 4 47 4 L 17 4 z"/>
 <path style="opacity:0.2" d="M 29.62,13 C 28.7,13 28.24,13 27.89,13.18 27.58,13.33 27.34,13.58 27.18,13.88 27,14.23 27,14.68 27,15.59 V 25.83 L 19.71,18.59 C 19.06,17.95 18.74,17.63 18.36,17.51 18.04,17.4 17.68,17.4 17.35,17.51 16.98,17.63 16.66,17.95 16.01,18.59 L 12.63,21.94 C 11.99,22.58 11.66,22.9 11.54,23.27 11.44,23.6 11.44,23.95 11.54,24.27 11.66,24.64 11.99,24.96 12.63,25.61 L 19.93,33 H 9.62 C 8.7,33 8.24,33.05 7.89,33.22 7.58,33.38 7.34,33.62 7.18,33.93 7,34.28 7,34.73 7,35.64 V 40.17 C 7,41.08 7,41.54 7.18,41.88 7.34,42.19 7.58,42.44 7.89,42.59 8.24,42.77 8.7,43 9.62,43 H 24.73 L 29.91,35.92 C 30.46,35.02 31.02,34.47 32,34.24 33.02,34.3 33.51,35.17 34.09,35.92 L 39.26,43 H 54.38 C 55.3,43 55.76,42.77 56.1,42.59 56.41,42.44 56.66,42.19 56.82,41.88 57,41.54 57,41.08 57,40.17 V 35.64 C 57,34.73 57,34.28 56.82,33.93 56.66,33.62 56.41,33.38 56.1,33.22 55.76,33.05 55.3,33 54.38,33 H 44.07 L 51.36,25.61 C 52.01,24.96 52.34,24.64 52.46,24.27 52.56,23.95 52.56,23.6 52.46,23.27 52.34,22.9 52.01,22.58 51.36,21.94 L 47.99,18.59 C 47.34,17.95 47.02,17.63 46.65,17.51 46.32,17.4 45.97,17.4 45.64,17.51 45.26,17.63 44.94,17.95 44.29,18.59 L 37,25.83 V 15.59 C 37,14.68 37,14.23 36.82,13.88 36.66,13.58 36.41,13.33 36.11,13.18 35.76,13 35.3,13 34.38,13 Z M 39.26,43 H 24.73 L 20.14,48.85 C 19.13,50.19 18.62,50.85 18.63,51.41 18.65,51.9 18.87,52.36 19.26,52.66 19.7,53 20.54,53 22.23,53 H 41.77 C 43.45,53 44.3,53 44.74,52.66 45.12,52.36 45.35,51.9 45.37,51.41 45.38,50.85 44.87,50.19 43.86,48.85 Z"/>
 <path style="fill:#506cf7" d="M 29.62,12 C 28.7,12 28.24,12 27.89,12.18 27.58,12.33 27.34,12.58 27.18,12.88 27,13.23 27,13.68 27,14.59 V 24.83 L 19.71,17.59 C 19.06,16.95 18.74,16.63 18.36,16.51 18.04,16.4 17.68,16.4 17.35,16.51 16.98,16.63 16.66,16.95 16.01,17.59 L 12.63,20.94 C 11.99,21.58 11.66,21.9 11.54,22.27 11.44,22.6 11.44,22.95 11.54,23.27 11.66,23.64 11.99,23.96 12.63,24.61 L 19.93,32 H 9.62 C 8.7,32 8.24,32.05 7.89,32.22 7.58,32.38 7.34,32.62 7.18,32.93 7,33.28 7,33.73 7,34.64 V 39.17 C 7,40.08 7,40.54 7.18,40.88 7.34,41.19 7.58,41.44 7.89,41.59 8.24,41.77 8.7,42 9.62,42 H 24.73 L 29.91,34.92 C 30.46,34.02 31.02,33.47 32,33.24 33.02,33.3 33.51,34.17 34.09,34.92 L 39.26,42 H 54.38 C 55.3,42 55.76,41.77 56.1,41.59 56.41,41.44 56.66,41.19 56.82,40.88 57,40.54 57,40.08 57,39.17 V 34.64 C 57,33.73 57,33.28 56.82,32.93 56.66,32.62 56.41,32.38 56.1,32.22 55.76,32.05 55.3,32 54.38,32 H 44.07 L 51.36,24.61 C 52.01,23.96 52.34,23.64 52.46,23.27 52.56,22.95 52.56,22.6 52.46,22.27 52.34,21.9 52.01,21.58 51.36,20.94 L 47.99,17.59 C 47.34,16.95 47.02,16.63 46.65,16.51 46.32,16.4 45.97,16.4 45.64,16.51 45.26,16.63 44.94,16.95 44.29,17.59 L 37,24.83 V 14.59 C 37,13.68 37,13.23 36.82,12.88 36.66,12.58 36.41,12.33 36.11,12.18 35.76,12 35.3,12 34.38,12 Z M 39.26,42 H 24.73 L 20.14,47.85 C 19.13,49.19 18.62,49.85 18.63,50.41 18.65,50.9 18.87,51.36 19.26,51.66 19.7,52 20.54,52 22.23,52 H 41.77 C 43.45,52 44.3,52 44.74,51.66 45.12,51.36 45.35,50.9 45.37,50.41 45.38,49.85 44.87,49.19 43.86,47.85 Z"/>
 <path style="fill:#ffffff;opacity:0.2" d="M 29.619 12 C 28.699 12 28.241 12 27.891 12.18 C 27.581 12.33 27.34 12.581 27.18 12.881 C 27 13.231 27 13.68 27 14.59 L 27 15.59 C 27 14.68 27 14.231 27.18 13.881 C 27.34 13.581 27.581 13.33 27.891 13.18 C 28.241 13 28.699 13 29.619 13 L 34.381 13 C 35.301 13 35.759 13 36.109 13.18 C 36.409 13.33 36.66 13.581 36.82 13.881 C 37 14.231 37 14.68 37 15.59 L 37 14.59 C 37 13.68 37 13.231 36.82 12.881 C 36.66 12.581 36.409 12.33 36.109 12.18 C 35.759 12 35.301 12 34.381 12 L 29.619 12 z M 17.859 16.428 C 17.688 16.428 17.515 16.455 17.35 16.51 C 16.98 16.63 16.66 16.95 16.01 17.59 L 12.631 20.939 C 11.991 21.579 11.659 21.9 11.539 22.27 C 11.439 22.6 11.439 22.95 11.539 23.27 C 11.659 22.9 11.991 22.579 12.631 21.939 L 16.01 18.59 C 16.66 17.95 16.98 17.63 17.35 17.51 C 17.68 17.4 18.039 17.4 18.359 17.51 C 18.739 17.63 19.061 17.95 19.711 18.59 L 27 25.83 L 27 24.83 L 19.711 17.59 C 19.061 16.95 18.739 16.63 18.359 16.51 C 18.199 16.455 18.031 16.428 17.859 16.428 z M 46.145 16.428 C 45.975 16.428 45.806 16.455 45.641 16.51 C 45.261 16.63 44.939 16.95 44.289 17.59 L 37 24.83 L 37 25.83 L 44.289 18.59 C 44.939 17.95 45.261 17.63 45.641 17.51 C 45.971 17.4 46.32 17.4 46.65 17.51 C 47.02 17.63 47.34 17.95 47.99 18.59 L 51.359 21.939 C 52.009 22.579 52.341 22.9 52.461 23.27 C 52.561 22.95 52.561 22.6 52.461 22.27 C 52.341 21.9 52.009 21.579 51.359 20.939 L 47.99 17.59 C 47.34 16.95 47.02 16.63 46.65 16.51 C 46.485 16.455 46.315 16.428 46.145 16.428 z M 9.6191 32 C 8.6991 32 8.2406 32.051 7.8906 32.221 C 7.5806 32.381 7.3397 32.62 7.1797 32.93 C 6.9997 33.28 7 33.731 7 34.641 L 7 35.641 C 7 34.731 6.9997 34.28 7.1797 33.93 C 7.3397 33.62 7.5806 33.381 7.8906 33.221 C 8.2406 33.051 8.6991 33 9.6191 33 L 19.93 33 L 18.941 32 L 9.6191 32 z M 45.057 32 L 44.07 33 L 54.381 33 C 55.301 33 55.76 33.051 56.1 33.221 C 56.41 33.381 56.66 33.62 56.82 33.93 C 57 34.28 57 34.731 57 35.641 L 57 34.641 C 57 33.731 57 33.28 56.82 32.93 C 56.66 32.62 56.41 32.381 56.1 32.221 C 55.76 32.051 55.301 32 54.381 32 L 45.057 32 z M 25.463 42 L 24.73 43 L 39.26 43 L 38.529 42 L 25.463 42 z M 39.26 43 L 43.859 48.85 C 44.597 49.828 45.063 50.441 45.26 50.92 C 45.319 50.757 45.362 50.587 45.369 50.41 C 45.379 49.85 44.869 49.19 43.859 47.85 L 40.047 43 L 39.26 43 z M 24.73 43 L 23.945 43 L 20.141 47.85 C 19.131 49.19 18.621 49.85 18.631 50.41 C 18.638 50.589 18.679 50.759 18.738 50.924 C 18.934 50.444 19.401 49.831 20.141 48.85 L 24.73 43 z"/>
</svg>
