<svg xmlns="http://www.w3.org/2000/svg" width="64" height="64" version="1.1" viewBox="0 0 64 64">
 <path style="opacity:.2" d="m17 5a7 7 0 0 0 -7 7 7 7 0 0 0 7 7 7 7 0 0 0 7 -7 7 7 0 0 0 -7 -7zm5.5742 0c2.068 1.6532 3.426 4.1642 3.426 7 0 4.9468-4.054 9-9 9-2.8358 0-5.3468-1.3572-7-3.4258v37.426c0 3.718 3.2808 6 7 6 3.72 0 7-2.28 7-6v-14h2.9219l-1.266-1.809v-0.004l-0.004-0.004c-1.072-1.515-1.648-3.323-1.652-5.179v-0.004c0-4.946 4.054-9 9-9 3.094 0.002 5.9771 1.5988 7.6211 4.2188l5.5781 7.9648c4.72-3.742 7.799-9.544 7.801-14.184 0-9.941-8.058-18-18-18zm10.426 22c-3.866 0-7 3.134-7 7 0.0028 1.4362 0.44746 2.8368 1.2734 4.0117l14 20c1.308 1.87 3.445 2.985 5.727 2.988 3.866 0 7-3.134 7-7-0.0028-1.4362-0.44746-2.8368-1.2734-4.0117l-14-20c-1.308-1.87-3.445-2.985-5.727-2.988z"/>
 <path style="fill:#3eb07b" d="m22.574 4c2.068 1.6532 3.426 4.1642 3.426 7 0 4.9468-4.054 9-9 9-2.8358 0-5.3468-1.3572-7-3.4258v37.426c0 3.718 3.2808 6 7 6 3.72 0 7-2.28 7-6v-14h2.922l-1.266-1.808v-0.004l-0.004-0.004c-1.072-1.516-1.648-3.324-1.652-5.18v-0.004c0-4.946 4.054-9 9-9 3.094 0.002 5.978 1.598 7.622 4.218l5.578 7.966c4.72-3.742 7.798-9.544 7.8-14.184 0-9.9412-8.058-18-18-18h-13.426z"/>
 <circle style="fill:#764d80" cx="17" cy="11" r="7"/>
 <path style="fill:#764d80" d="m33 26c-3.866 0-7 3.134-7 7 0.0028 1.4362 0.44746 2.8368 1.2734 4.0117l14 20c1.308 1.87 3.445 2.985 5.727 2.988 3.866 0 7-3.134 7-7-0.0028-1.4362-0.44746-2.8368-1.2734-4.0117l-14-20c-1.308-1.87-3.445-2.985-5.727-2.988z"/>
 <path style="fill:#ffffff;opacity:0.1" d="M 22.574219 4 C 22.952971 4.3027822 23.29786 4.6429449 23.625 5 L 36 5 C 45.793598 5 53.742902 12.82445 53.978516 22.560547 C 53.988193 22.372962 53.999921 22.184126 54 22 C 54 12.0588 45.942 4 36 4 L 22.574219 4 z M 25.972656 11.539062 C 25.689536 16.23649 21.764088 20 17 20 C 14.1642 20 11.6532 18.642819 10 16.574219 L 10 17.574219 C 11.6532 19.642819 14.1642 21 17 21 C 21.946 21 26 16.9468 26 12 C 26 11.843929 25.980775 11.693077 25.972656 11.539062 z M 24.021484 33.566406 C 24.014471 33.711075 24 33.853689 24 34 L 24 34.003906 C 24.004 35.859906 24.580344 37.667594 25.652344 39.183594 L 25.65625 39.1875 L 25.65625 39.191406 L 26.222656 40 L 26.921875 40 L 25.65625 38.191406 L 25.65625 38.1875 L 25.652344 38.183594 C 24.689048 36.821321 24.128619 35.223199 24.021484 33.566406 z"/>
 <path style="fill:#ffffff;opacity:0.1" d="M 17 4 A 7 7 0 0 0 10 11 A 7 7 0 0 0 10.023438 11.541016 A 7 7 0 0 1 17 5 A 7 7 0 0 1 23.976562 11.458984 A 7 7 0 0 0 24 11 A 7 7 0 0 0 17 4 z"/>
 <path style="fill:#ffffff;opacity:0.1" d="M 33 26 C 29.134 26 26 29.134 26 33 C 26.00026 33.133251 26.023431 33.263998 26.03125 33.396484 C 26.33743 29.81321 29.337439 27 33 27 C 35.282 27.003 37.418563 28.118281 38.726562 29.988281 L 52.726562 49.988281 C 53.478152 51.057418 53.896211 52.315554 53.970703 53.615234 C 53.988463 53.411904 54 53.20794 54 53 C 53.9972 51.5638 53.552503 50.163181 52.726562 48.988281 L 38.726562 28.988281 C 37.418563 27.118281 35.282 26.003 33 26 z"/>
</svg>
