<svg width="64" height="64" version="1.1" xmlns="http://www.w3.org/2000/svg">
 <path d="m7 10v9h3l5 17h15v-6h-4l-2-11v-9zm33 0v9l-2 11h-4v6h15l5-17h3v-9z" style="opacity:.2"/>
 <rect x="4" y="36" width="56" height="25" rx="3" ry="3" style="opacity:.2"/>
 <path d="m7 9v9h3l5 17h15v-6h-4l-2-11v-9h-17zm33 0v9l-2 11h-4v6h15l5-17h3v-9h-17z" style="fill:#32476b"/>
 <path d="m24 36-3-17v-3h22v3l-3 17z" style="opacity:.2"/>
 <path d="m4 5v9h22v-9h-5v3h-3v-3h-6v3h-3v-3zm34 0v9h22v-9h-5v3h-3v-3h-6v3h-3v-3z" style="opacity:.2"/>
 <path d="m4 4v9h22v-9h-5v3h-3v-3h-6v3h-3v-3h-5zm34 0v9h22v-9h-5v3h-3v-3h-6v3h-3v-3h-5z" style="fill:#456294"/>
 <path d="m4 4v1h5v-1h-5zm8 0v1h6v-1h-6zm9 0v1h5v-1h-5zm17 0v1h5v-1h-5zm8 0v1h6v-1h-6zm9 0v1h5v-1h-5zm-46 3v1h3v-1h-3zm9 0v1h3v-1h-3zm25 0v1h3v-1h-3zm9 0v1h3v-1h-3z" style="fill:#ffffff;opacity:.1"/>
 <path d="m24 35-3-17v-3h22v3l-3 17z" style="fill:#43668f"/>
 <path d="m32 23c3 0 3 3 3 3v12h-6v-12s0-3 3-3z" style="fill:#ffffff"/>
 <rect x="4" y="35" width="56" height="25" rx="3" ry="3" style="fill:#856fbb"/>
 <path d="m7 36c-1.662 0-3 1.338-3 3v8h8v-3h6v9h8v-9h6v6h8v-6h6v9h9v-9h5v-5c0-1.662-1.338-3-3-3z" style="opacity:.2"/>
 <path d="m7 35c-1.662 0-3 1.338-3 3v8h8v-3h6v9h8v-9h6v6h8v-6h6v9h9v-9h5v-5c0-1.662-1.338-3-3-3h-50z" style="fill:#8dff2b"/>
 <path d="m18 19h27.999998l2e-6 -8h-6v3h-5v-3h-6v3h-5v-3h-6z" style="opacity:.2"/>
 <path d="m18 18h27.999998l2e-6 -8h-6v3h-5v-3h-6v3h-5v-3h-6z" style="fill:#5491ba"/>
 <path d="m7 35c-1.662 0-3 1.338-3 3v1c0-1.662 1.338-3 3-3h50c1.662 0 3 1.338 3 3v-1c0-1.662-1.338-3-3-3h-50z" style="fill:#ffffff;opacity:.2"/>
 <path d="m18 10v1h6v-1h-6zm11 0v1h6v-1h-6zm11 0v1h6v-1h-6zm-16 3v1h5v-1h-5zm11 0v1h5v-1h-5z" style="fill:#ffffff;opacity:.2"/>
</svg>
