<svg xmlns="http://www.w3.org/2000/svg" width="64" height="64" version="1.1">
 <rect style="opacity:0.2" width="56" height="56" x="4" y="5.39" rx="2.8" ry="2.799"/>
 <rect style="fill:#283593" width="56" height="56" x="4" y="4" rx="2.8" ry="2.799"/>
 <path style="opacity:0.2" d="M 52,13 H 51.783044 48.817974 25.16973 20.179734 16.997707 12.080029 v 11.063741 l 30.807804,21.389902 c -0.723187,0.67053 -1.518695,1.34106 -2.38652,1.877484 L 12.007711,27.617549 v 0.938742 c 0,3.218544 -0.289274,9.320365 2.675795,13.947021 3.254345,5.230132 8.895211,9.253312 14.753032,10.594372 0,0 0,0 0,0 0,0 0,0 0,0 0.289275,0.06705 0.578551,0.134104 0.867827,0.134104 0.578549,0.134107 1.157099,0.20116 1.73565,0.268212 2.820432,-0.201159 5.713184,-1.206954 8.388979,-2.682119 0.07232,0 0.07232,-0.06705 0.144637,-0.06705 0.289277,-0.134106 0.578551,-0.335265 0.867826,-0.536423 0.57855,-0.335265 1.084782,-0.670531 1.663333,-1.072849 v 0 c 2.531158,-1.81043 4.70072,-4.090231 6.364052,-6.705298 0.867827,-1.475165 1.518695,-3.017384 1.88029,-4.626655 V 37.6755 c 0.216955,-0.804636 0.361594,-1.609272 0.433912,-2.346855 V 34.725166 L 24.518861,15.883279 h 4.989996 L 52,31.506623 c 0,-1.139902 0,-2.212749 0,-3.084437 z"/>
 <path style="fill:#50beee" d="M 52,12 H 51.783044 48.817974 25.16973 20.179734 16.997707 12.080029 v 11.063741 l 30.807804,21.389902 c -0.723187,0.67053 -1.518695,1.34106 -2.38652,1.877484 L 12.007711,26.617549 v 0.938742 c 0,3.218544 -0.289274,9.320365 2.675795,13.947021 3.254345,5.230132 8.895211,9.253312 14.753032,10.594372 0,0 0,0 0,0 0,0 0,0 0,0 0.289275,0.06705 0.578551,0.134104 0.867827,0.134104 0.578549,0.134107 1.157099,0.20116 1.73565,0.268212 2.820432,-0.201159 5.713184,-1.206954 8.388979,-2.682119 0.07232,0 0.07232,-0.06705 0.144637,-0.06705 0.289277,-0.134106 0.578551,-0.335265 0.867826,-0.536423 0.57855,-0.335265 1.084782,-0.670531 1.663333,-1.072849 v 0 c 2.531158,-1.81043 4.70072,-4.090231 6.364052,-6.705298 0.867827,-1.475165 1.518695,-3.017384 1.88029,-4.626655 V 36.6755 c 0.216955,-0.804636 0.361594,-1.609272 0.433912,-2.346855 V 33.725166 L 24.518861,14.883279 h 4.989996 L 52,30.506623 c 0,-1.139902 0,-2.212749 0,-3.084437 z"/>
 <path style="fill:#ffffff;opacity:0.1" d="M 6.8,4 C 5.2488,4 4,5.1893335 4,6.6666668 V 8 C 4,6.5226669 5.2488,5.3333335 6.8,5.3333335 H 57.2 C 58.7512,5.3333335 60,6.5226669 60,8 V 6.6666668 C 60,5.1893335 58.7512,4 57.2,4 Z"/>
</svg>
