<svg xmlns="http://www.w3.org/2000/svg" width="64" height="64" version="1.1">
 <rect style="opacity:0.2" width="56" height="56" x="4" y="5" ry="11.2"/>
 <rect style="fill:#3a54b4" width="56" height="56" x="4" y="4" ry="11.2"/>
 <path style="opacity:0.2" d="M 44.058593,5 43.000391,14.182032 41.8,24.6 51.422266,20.430078 60,16.714063 V 16.2 c 0,-0.249277 -0.01967,-0.493154 -0.03555,-0.738282 L 52.622657,10.014844 45.863282,5 Z m 2.36797,3.9046875 4.52539,3.3578125 4.528125,3.357813 -5.173437,2.242187 -5.170704,2.239453 0.645313,-5.597266 z M 4,40.505859 v 2.958594 l 0.2460937,0.08477 12.8679693,4.402344 -4.11797,12.01211 -0.259765,0.757421 C 13.529212,60.897908 14.352308,61 15.2,61 h 0.401953 l 0.04375,-0.12852 5.025781,-14.661718 -15.5175777,-5.310157 z"/>
 <path stroke="#139ffb" stroke-linecap="square" stroke-width="2.626" style="opacity:0.2;fill:none;stroke:#000000;stroke-width:2.99971" d="m 57.234059,41.564822 -6.658443,3.95489 3.859565,6.714347 -3.954893,-6.658441 -6.714348,3.859559 6.658444,-3.954888 -3.859559,-6.714346 3.954885,6.658439 z"/>
 <path style="fill:#139ffb" d="M 44.058593,4 43.000391,13.182032 41.8,23.6 51.422266,19.430078 60,15.714063 V 15.2 c 0,-0.249277 -0.01967,-0.493154 -0.03555,-0.738282 L 52.622657,9.0148437 45.863282,4 Z m 2.36797,3.9046875 4.52539,3.3578125 4.528125,3.357813 -5.173437,2.242187 -5.170704,2.239453 0.645313,-5.597266 z M 4,39.505859 v 2.958594 l 0.2460937,0.08477 12.8679693,4.402344 -4.11797,12.01211 -0.259765,0.757421 C 13.529212,59.897908 14.352308,60 15.2,60 h 0.401953 l 0.04375,-0.12852 5.025781,-14.661718 -15.5175777,-5.310157 z"/>
 <path stroke="#139ffb" stroke-linecap="square" stroke-width="2.626" style="fill:none;stroke-width:2.99971" d="m 57.234059,40.564822 -6.658443,3.95489 3.859565,6.714347 -3.954893,-6.658441 -6.714348,3.859559 6.658444,-3.954888 -3.859559,-6.714346 3.954885,6.658439 z"/>
 <path stroke="#ffffff" stroke-linecap="square" stroke-linejoin="round" stroke-width="2.32" style="opacity:0.2;fill:none;stroke:#000000;stroke-width:5" d="m 37.5,44.5 v -28 l -21,22 h 27"/>
 <path stroke="#ffffff" stroke-linecap="square" stroke-linejoin="round" stroke-width="2.32" style="fill:none;stroke-width:5" d="m 37.5,43.5 v -28 l -21,22 h 27"/>
 <path stroke="#139ffb" stroke-linecap="round" stroke-width="2.192" style="opacity:0.2;fill:none;stroke:#000000;stroke-width:3" d="m 22.499714,18.500196 a 6.9999136,6.99975 0 0 1 -6.972238,6.999749 6.9999136,6.99975 0 0 1 -7.0272538,-6.944441 6.9999136,6.99975 0 0 1 6.9165608,-7.054725 6.9999136,6.99975 0 0 1 7.081935,6.888468" stop-color="#000000"/>
 <path stroke="#139ffb" stroke-linecap="round" stroke-width="2.192" style="fill:none;stroke-width:3" d="m 22.499714,17.500196 a 6.9999136,6.99975 0 0 1 -6.972238,6.999749 6.9999136,6.99975 0 0 1 -7.0272538,-6.944441 6.9999136,6.99975 0 0 1 6.9165608,-7.054725 6.9999136,6.99975 0 0 1 7.081935,6.888468" stop-color="#000000"/>
 <path style="fill:#ffffff;opacity:0.2" d="M 44.058594 4 L 43 13.181641 L 41.800781 23.599609 L 41.921875 23.546875 L 43 14.181641 L 44.058594 5 L 45.863281 5 L 52.623047 10.015625 L 59.964844 15.460938 C 59.970514 15.54847 59.971058 15.637093 59.976562 15.724609 L 60 15.714844 L 60 15.199219 C 60 14.949942 59.980724 14.706065 59.964844 14.460938 L 52.623047 9.015625 L 45.863281 4 L 44.058594 4 z M 15.398438 9 C 10.735073 9.0553861 6.9630427 12.904867 7 17.568359 C 7.0011573 17.710779 7.0172372 17.849531 7.0253906 17.990234 C 7.2906005 13.592236 10.930267 10.053068 15.398438 10 C 19.941679 9.9461929 23.714641 13.514109 23.974609 18.009766 C 23.984821 17.8401 24.000001 17.672118 24 17.5 A 1.5 1.5 0 0 0 23.976562 17.476562 A 1.5 1.5 0 0 0 23.998047 17.365234 C 23.924238 12.70229 20.061692 8.9447716 15.398438 9 z M 54.628906 14.990234 L 50.306641 16.863281 L 45.257812 19.048828 L 45.136719 20.101562 L 50.306641 17.863281 L 55.480469 15.621094 L 54.628906 14.990234 z M 10.025391 17.966797 C 10.007539 18.155994 9.998459 18.348519 10 18.542969 C 10.024049 21.589336 12.474918 24.011994 15.521484 24 C 18.568075 23.987955 21.000023 21.546487 21 18.5 A 1.5 1.5 0 0 1 21.017578 18.457031 A 1.5 1.5 0 0 1 20.998047 18.412109 C 20.996069 18.287195 20.984605 18.165593 20.974609 18.042969 C 20.70598 20.831746 18.384926 22.988679 15.521484 23 C 12.618395 23.011429 10.262252 20.80989 10.025391 17.966797 z M 47.853516 37 L 45.263672 38.513672 L 45.693359 39.261719 L 47.853516 38 L 47.865234 38.017578 L 47.902344 38.082031 L 51.054688 43.386719 L 56.486328 40.263672 L 57.566406 42.111328 L 57.917969 41.902344 L 57.982422 41.865234 L 58 41.853516 L 56.486328 39.263672 L 51.054688 42.386719 L 47.902344 37.082031 L 47.865234 37.017578 L 47.853516 37 z M 4 39.505859 L 4 40.505859 L 5.1542969 40.900391 L 20.365234 46.103516 L 20.671875 45.208984 L 5.1542969 39.900391 L 4 39.505859 z M 47.958984 44.199219 L 43.082031 47.097656 L 43.017578 47.134766 L 43 47.146484 L 43.433594 47.888672 L 48.386719 44.945312 L 47.958984 44.199219 z M 53.041016 45.800781 L 52.613281 46.054688 L 55.306641 50.738281 L 55.736328 50.486328 L 53.041016 45.800781 z M 16.806641 47.845703 L 12.996094 58.962891 L 12.736328 59.720703 C 12.84246 59.74437 12.95337 59.754454 13.060547 59.775391 L 17.113281 47.951172 L 16.806641 47.845703 z"/>
 <path style="fill:#ffffff;opacity:0.1" d="M 15.199219 4 C 8.9944189 4 4 8.9944189 4 15.199219 L 4 16.199219 C 4 9.9944189 8.9944189 5 15.199219 5 L 48.800781 5 C 55.005581 5 60 9.9944189 60 16.199219 L 60 15.199219 C 60 8.9944189 55.005581 4 48.800781 4 L 15.199219 4 z"/>
</svg>
