<svg xmlns="http://www.w3.org/2000/svg" width="64" height="64" version="1.0">
 <rect style="opacity:0.2" width="58" height="46" x="3" y="10" rx="4" ry="4"/>
 <rect style="fill:#2769bc" width="58" height="46" x="3" y="9" rx="4" ry="4"/>
 <path style="opacity:0.2" d="m 41.000001,26.999683 c 0,1.592232 -15.622255,10.747481 -16.981153,9.951365 -1.358461,-0.796115 -1.358461,-19.106774 0,-19.902096 1.358461,-0.796116 16.981155,8.359135 16.981155,9.951365 z"/>
 <path style="fill:#ffffff" d="m 41.000001,26.000032 c 0,1.592232 -15.622255,10.747481 -16.981153,9.951365 -1.358461,-0.796115 -1.358461,-19.106774 0,-19.902096 1.358461,-0.796116 16.981155,8.359135 16.981155,9.951365 z"/>
 <rect style="opacity:0.5;fill:#ffffff" width="34" height="3" x="15" y="45" rx="1.5" ry="1.5"/>
 <rect style="opacity:0.2" width="9" height="9" x="19" y="43" rx="4.5" ry="4.5"/>
 <rect style="fill:#ffffff" width="9" height="9" x="19" y="42" rx="4.5" ry="4.5"/>
 <path style="fill:#ffffff;opacity:0.1" d="M 7 9 C 4.784 9 3 10.784 3 13 L 3 14 C 3 11.784 4.784 10 7 10 L 57 10 C 59.216 10 61 11.784 61 14 L 61 13 C 61 10.784 59.216 9 57 9 L 7 9 z"/>
</svg>
