<svg xmlns="http://www.w3.org/2000/svg" width="64" height="64" version="1">
 <path style="opacity:0.2" d="M 2.0508,36.39 C 2.0244,36.742 2,37.094 2,37.454 2,45.486 8.7158,52 17,52 l 31.876,0 C 56.124,52 62,46.302 62,39.274 62,38.928 61.978,38.586 61.95,38.246 61.434,44.818 55.784,50 48.876,50 L 17,50 C 9.0418,50 2.5512,43.986 2.0508,36.39 Z"/>
 <path style="fill:#31ade4" d="M 32,11 C 24.234,11 17.6198,15.6106 14.7734,22.136 7.544,23.178 2,29.154 2,36.454 2,44.488 8.7158,51 17,51 l 31.876,0 C 56.124,51 62,45.302 62,38.272 62,31.74 56.934,26.386 50.398,25.66 48.694,17.3194 41.1,11 32,11 Z"/>
 <path style="opacity:0.2;fill:#ffffff" d="M 32 11 C 24.234 11 17.619837 15.612119 14.773438 22.136719 C 7.5440375 23.178719 2 29.153125 2 36.453125 C 2 36.611125 2.0152656 36.766125 2.0253906 36.921875 C 2.2888217 29.866791 7.7216393 24.15312 14.773438 23.136719 C 17.619838 16.612119 24.234 12 32 12 C 41.1 12 48.692484 18.319756 50.396484 26.660156 C 56.756938 27.366657 61.712314 32.461244 61.974609 38.753906 C 61.983924 38.594082 62 38.435467 62 38.273438 C 62 31.741437 56.932484 26.386156 50.396484 25.660156 C 48.692484 17.319756 41.1 11 32 11 z"/>
 <g style="opacity:0.2" transform="scale(2,2)">
  <rect width="6" height="5" x="13" y="12"/>
  <path d="m 22.942,48.203 -5.9272,-10.266 -5.9272,-10.266 23.708,0 -5.9272,10.266 z" transform="matrix(0.42178,0,0,0.24352,6.3233,10.262)"/>
 </g>
 <rect style="fill:#ffffff" width="12" height="10" x="26" y="23"/>
 <path style="fill:#ffffff" d="m 31.999554,43 -4.999949,-4.999953 -4.999949,-4.999952 19.99912,0 -4.999948,4.999952 z"/>
</svg>
