<?xml version="1.0" encoding="UTF-8" standalone="no"?>
<svg xmlns="http://www.w3.org/2000/svg" height="64" width="64" version="1">
 <path style="opacity:0.2" d="m 32,14.999495 a 16.00028,16.00028 0 0 0 -16.00028,16.00108 16.00028,16.00028 0 0 0 0.043,1.152021 A 16.00028,16.00028 0 0 1 32,16.99953 16.00028,16.00028 0 0 1 47.958279,31.84859 16.00028,16.00028 0 0 0 48.00028,31.000575 16.00028,16.00028 0 0 0 32,14.999495 Z M 4.0495109,31.926592 C 3.9033083,35.84666 4.5535197,39.86273 6.1627479,43.734798 12.110852,58.049049 28.423137,64.785167 42.737388,58.837062 53.833582,54.224982 60.341696,43.386792 59.949689,32.078594 59.553682,42.646779 53.177571,52.498952 42.737388,56.837027 28.423137,62.785132 12.110852,56.049014 6.1627479,41.734763 4.8261245,38.518707 4.1633129,35.204649 4.0495109,31.926592 Z"/>
 <path style="fill:#cccccc" d="M 32.180003,3.9980853 C 28.54394,3.979485 24.839875,4.6750972 21.261812,6.1621232 6.9475616,12.110227 0.21544378,28.418513 6.1635479,42.732763 12.111652,57.047014 28.423937,63.783132 42.738188,57.835027 57.052438,51.886923 63.784556,35.578638 57.836452,21.264387 53.374374,10.5288 43.084194,4.0538863 32.180003,3.9980853 Z M 32,15.998295 A 16.00028,16.00028 0 0 1 48.00028,31.998575 16.00028,16.00028 0 0 1 32,47.998855 16.00028,16.00028 0 0 1 15.99972,31.998575 16.00028,16.00028 0 0 1 32,15.998295 Z"/>
 <path style="fill:#e74c3c" d="M 32.180003,3.9980853 C 28.807944,3.980885 25.381884,4.5880956 22.045826,5.8613179 L 26.3079,17.049114 A 16.00028,16.00028 0 0 1 32,15.998295 16.00028,16.00028 0 0 1 37.6881,17.060714 L 41.958174,5.8535178 C 38.85612,4.6724971 35.552062,4.0152856 32.180003,3.9980853 Z M 5.8675427,22.040401 c -1.2732223,3.336058 -1.8806329,6.762118 -1.8632326,10.134177 0.0172,3.372059 0.6784119,6.680117 1.8592325,9.782172 L 17.051338,37.694675 a 16.00028,16.00028 0 0 1 -1.050818,-5.6961 16.00028,16.00028 0 0 1 1.066419,-5.692099 L 5.8675427,22.040401 Z m 52.2689143,0 -11.186195,4.262075 a 16.00028,16.00028 0 0 1 1.050018,5.696099 16.00028,16.00028 0 0 1 -1.062019,5.6881 l 11.202196,4.270075 c 1.182021,-3.102055 1.838033,-6.410113 1.856033,-9.782172 0.018,-3.372059 -0.58601,-6.798119 -1.860033,-10.134177 z M 26.3119,46.936837 22.045826,58.135033 c 3.336058,1.274022 6.762118,1.882033 10.134177,1.864032 3.372059,-0.018 6.676117,-0.674011 9.778171,-1.856032 L 37.6961,46.948837 A 16.00028,16.00028 0 0 1 32,47.998855 16.00028,16.00028 0 0 1 26.3119,46.936837 Z"/>
 <path style="opacity:0.2;fill:#ffffff" d="M 32.179688 3.9980469 C 28.543624 3.9794466 24.839782 4.6750834 21.261719 6.1621094 C 10.163525 10.77379 3.6571744 21.61363 4.0507812 32.923828 C 4.0512698 32.910757 4.0522275 32.897835 4.0527344 32.884766 C 4.0809463 21.956101 10.505214 11.63376 21.261719 7.1640625 C 24.839782 5.6770365 28.543624 4.9813997 32.179688 5 C 43.083879 5.055801 53.37386 11.530038 57.835938 22.265625 C 59.21604 25.586444 59.886383 29.011725 59.958984 32.392578 C 60.0091 28.688268 59.352668 24.913247 57.835938 21.263672 C 53.37386 10.528085 43.083879 4.0538479 32.179688 3.9980469 z M 47.958984 32.851562 A 16.00028 16.00028 0 0 1 32 47.998047 A 16.00028 16.00028 0 0 1 16.042969 33.150391 A 16.00028 16.00028 0 0 0 16 33.998047 A 16.00028 16.00028 0 0 0 16.025391 34.501953 A 16.00028 16.00028 0 0 1 16.042969 34.152344 A 16.00028 16.00028 0 0 0 32 49 A 16.00028 16.00028 0 0 0 47.958984 33.851562 A 16.00028 16.00028 0 0 1 47.982422 34.507812 A 16.00028 16.00028 0 0 0 48 33.998047 A 16.00028 16.00028 0 0 0 47.958984 32.851562 z"/>
</svg>
