<svg xmlns="http://www.w3.org/2000/svg" width="64" height="64" version="1">
 <rect style="opacity:0.2" width="56" height="56" x="4" y="5" rx="16.8" ry="16.8"/>
 <rect style="fill:#4e7ad9" width="56" height="56" x="4" y="4" rx="16.8" ry="16.8"/>
 <path style="opacity:0.2" d="M 32,12 C 20.402021,12 11,21.402021 11,33 11,44.597979 20.402021,54 32,54 43.597979,54 53,44.597979 53,33 53,21.402021 43.597979,12 32,12 Z m -8,13 v 4 h 16 v -4 l 11,8 -11,8 V 37 H 24 v 4 L 13,33 Z"/>
 <path style="fill:#ffffff" d="M 32 11 C 20.402021 11 11 20.402021 11 32 C 11 43.597979 20.402021 53 32 53 C 43.597979 53 53 43.597979 53 32 C 53 20.402021 43.597979 11 32 11 z M 24 24 L 24 28 L 40 28 L 40 24 L 51 32 L 40 40 L 40 36 L 24 36 L 24 40 L 13 32 L 24 24 z"/>
 <path style="fill:#ffffff;opacity:0.2" d="M 20.800781 4 C 11.493582 4 4 11.493582 4 20.800781 L 4 21.800781 C 4 12.493582 11.493582 5 20.800781 5 L 43.199219 5 C 52.506418 5 60 12.493582 60 21.800781 L 60 20.800781 C 60 11.493582 52.506418 4 43.199219 4 L 20.800781 4 z"/>
</svg>
