<svg xmlns="http://www.w3.org/2000/svg" xml:space="preserve" width="64" height="64" version="1.1">
 <g transform="matrix(0.93333333,0,0,0.93333333,4,-217.2)">
  <path style="opacity:0.2" d="m 0,238.07143 v 10.0007 h 10.000698 v 9.9986 40.0007 H 19.999303 30 v -10.0007 h 19.999303 v -9.9986 h -9.998605 v -20.0014 H 30 19.999303 v -9.9986 H 30 v -10.0007 z m 40.000698,19.9993 h 9.998605 v 20.0014 H 60 v -30 H 40.000698 Z"/>
  <rect style="fill:#c040aa" width="10" height="40" x="10" y="257"/>
  <rect style="fill:#7e5fe3" width="10" height="40" x="20" y="257"/>
  <path style="fill:#2f51aa" d="M 30,287 H 50 V 277 H 40 V 257 H 30 Z"/>
  <path style="fill:#15919d" d="M 60,247 H 40 v 10 h 10 v 20 h 10 z"/>
  <path style="fill:#df4eaa" d="m 0,237 v 10 h 10 v 10 h 10 v -10 h 10 v -10 z"/>
  <path style="opacity:0.2;fill:#ffffff" d="m 0,237 v 1.07143 H 30 V 237 Z m 40.000698,10.0007 v 1.07143 H 60 v -1.07143 z m -20.001395,9.9986 v 1.07143 H 30 40.000698 V 256.9993 H 30 Z m 20.001395,20.0014 v 1.07143 h 9.998605 v -1.07143 z"/>
 </g>
</svg>
