<svg xmlns="http://www.w3.org/2000/svg" width="64" height="64" version="1.1">
 <path style="opacity:0.2" d="m 4,5 v 9 h 9 v 10 37 h 10 9 V 52 H 51 V 42 H 41 V 24 H 32 23 V 14 h 9 V 5 Z m 37,19 h 10 v 18 h 9 V 14 H 41 Z"/>
 <path style="fill:#dd4da9" d="m 4,4 v 9 h 9 v 10 l 5,2 5,-2 V 13 h 9 V 4 Z"/>
 <rect style="fill:#bf3fa9" width="10" height="37" x="13" y="23"/>
 <rect style="fill:#7d5ee2" width="9" height="37" x="23" y="23"/>
 <path style="fill:#365dc5" d="M 32,23 V 51 H 51 V 41 H 41 V 23 Z"/>
 <path style="fill:#179dab" d="M 60,41 V 13 H 41 v 10 h 10 v 18 z"/>
 <path style="opacity:0.2;fill:#ffffff" d="M 4 4 L 4 5 L 32 5 L 32 4 L 4 4 z M 41 13 L 41 14 L 60 14 L 60 13 L 41 13 z M 23 23 L 23 24 L 32 24 L 41 24 L 41 23 L 32 23 L 23 23 z M 41 41 L 41 42 L 51 42 L 51 41 L 41 41 z"/>
</svg>
