<svg width="64" height="64" version="1.1" xmlns="http://www.w3.org/2000/svg">
 <g transform="matrix(1.3934542,0,0,1.3934542,-1.4429004,-1.442901)">
  <path d="m20.185402 4.8864764a2.1280519 2.2521647 0 0 0-1.865767 1.1694954l-7.653648 14.752591a2.1280519 2.2521647 0 0 0 8e-3 2.179668l10.521972 19.959389a2.1280519 2.2521647 0 0 0 1.85936 1.155936h1.912212a2.1280519 2.2521647 0 0 0 1.859361-1.155936l10.521964-19.959389a2.1280519 2.2521647 0 0 0 8e-3 -2.179668l-7.65364-14.752591a2.1280519 2.2521647 0 0 0-1.865768-1.1694954z" style="opacity:.2"/>
  <path d="m20.185402 3.9060494a2.1280519 2.2521647 0 0 0-1.865767 1.1694955l-7.653648 14.752592a2.1280519 2.2521647 0 0 0 8e-3 2.179667l10.521972 19.959388a2.1280519 2.2521647 0 0 0 1.85936 1.155937h1.912212a2.1280519 2.2521647 0 0 0 1.859361-1.155937l10.521964-19.959388a2.1280519 2.2521647 0 0 0 8e-3 -2.179667l-7.65364-14.752592a2.1280519 2.2521647 0 0 0-1.865768-1.1694955z" style="fill:#4f4f4f"/>
  <path d="m20.999857 8.4999997-7.000008 13.333333 7.129586 13.372036v-5.333332c-1.286256-0.141471-1.784457-0.813809-1.869913-1.754653-0.09885-1.088253 0.705146-1.942719 0.323946-2.809613 1.485515 0.389915 1.522403 1.010759 1.894524 1.928337 0.184257-0.64061 0.131975-1.106815 0.07853-1.518238 1.928857 0.910333 2.474971 1.937045 2.448848 4.128048-7e-3 0.585616-1.526126 2.468437-1.496675 3.026869 0.02945 0.558434 0.610287 1.189558 0.677317 1.657848 0.06585 0.46006-1.128863 1.060893-1.128863 1.980878 0 0.872151 1.942699 3.988487 1.942699 3.988487l2-3.555556c-1.062092 0.604803-1.748537 0.661452-2.245836 0.635154-0.712496 0.03653-1.079769-0.664049-0.983344-1.092603 0.152461-0.677605 1.229179-1.463496 1.229179-1.966687 0-0.600965-0.44082-0.984381-0.39174-1.568991 0.04908-0.584608 2.180819-2.247474 1.973058-3.481478-0.32443-1.926964-0.750324-3.034437 0.991427-3.839225-0.21897 0.662675-0.08571 1.048145 0.02945 1.692749 0.207621-1.23793 0.83012-1.401416 1.874892-2.102848-0.301929 1.322521 0.315395 1.820108 0.274844 2.81834-0.04055 0.998232-1.236437 1.884133-1.881214 1.906171v2.666667c0.430437-0.210813 0.604668 3.11e-4 1 0l6.129283-10.77836-6.999999-13.333333v1.7777783c-0.614888 0.355927-0.663558 0.605368-0.646626 1.181657 0 0 0.342323-0.318945 0.646626-0.292769 0.304301 0.02617 1.990181 4.897058 2 5.333334-1.5e-5 0.540981-2 0.888888-2 1.777778 0.480554-0.426682 1.267739-0.28254 1.98518 0.01264 0.557836 0.229515 0.983957 2.731811 1.062485 3.246616-0.01942 0.523531-0.647869 0.985982-1.433164 0.994708-0.785296 0.0088-1.138679-0.122151-1.148494-0.436269-0.0098-0.31412 1.011066-1.143042 1.011066-1.143042-1.170287-0.05714-1.69351 0.660596-2.130114 1.169218 0.05825-0.305393 0.117756-0.523532 0.17671-0.785296-0.595257 0.102121-0.871392 0.518069-1.089598 0.8551-0.2959-0.679432-2.050854-2.326049-2.022144-2.921734-0.107504-0.978703 3.215813-0.917211 3.568819-3.193536-0.0196-0.863825-0.921972-1.47108-1.75282-1.666573-0.667503-0.157058-0.883459-0.209412-0.883459-0.209412 0.448211-0.214393 1.793457-0.826519 1.472426-1.675298-0.123587 0.335094-0.276286 0.759733-1.658937 0.828924-1.413816-0.605507-1.230173-1.514447-1.001243-2.251182-0.932218 0.604733-0.793704 1.193554-0.559523 2.05922 0.06654 0.427546-0.428098 0.786165-0.572487 1.069735 0.02857 0.357103 0.05162 0.745427-0.173544 0.910955-0.559573 0.542737 0.123637 1.369421 0.441711 1.317552-0.04358-1.072964 1.179097-1.490836 1.668752-1.605493 0.80493-9e-6 2.253447 0.732943 2.243632 1.265199-0.0098 0.532256-0.977341 1.055786-2.174918 1.413532-1.197575 0.357746-2.159564 0.828923-2.130114 1.980691 0.03749 1.125563 0.631621 2.395899 0.74603 2.703595-0.399216-0.341062-0.619222-0.834376-1.197575-0.907452 0.137911 0.261335 0.280237 0.551983 0.402487 0.855099-0.605334-0.870491-1.231661-1.124063-2.32644-1.256473 1.925273 1.366308 0.595014 1.651896-0.117782 1.640396-0.679761-0.01096-1.524181-0.257469-1.433163-0.959806 0.05478-0.422703 0.361469-2.98924 1.061363-3.296768 0.737841-0.324203 1.514648-0.306467 1.964858-0.01485 0-0.888888-2.013033-1.374946-1.999999-1.777778 0.01302-0.402831 1.680155-5.333333 1.999999-5.333333s0.432807 0.05952 0.625 0.319444c0.182892-0.84218-0.42062-0.905573-0.625-1.208334 1e-5 -0.209412 0-1.7777773 0-1.7777773z" style="opacity:.2"/>
  <path d="m20.999857 7.4999999-7.000008 13.333333 7.129586 13.372036v-5.333332c-1.286256-0.141471-1.784457-0.813809-1.869913-1.754653-0.09885-1.088253 0.705146-1.942719 0.323946-2.809613 1.485515 0.389915 1.522403 1.010759 1.894524 1.928337 0.184257-0.64061 0.131975-1.106815 0.07853-1.518238 1.928857 0.910333 2.474971 1.937045 2.448848 4.128048-7e-3 0.585616-1.526126 2.468437-1.496675 3.026869 0.02945 0.558434 0.610287 1.189558 0.677317 1.657848 0.06585 0.46006-1.128863 1.060893-1.128863 1.980878 0 0.872151 1.942699 3.988487 1.942699 3.988487l2-3.555556c-1.062092 0.604803-1.748537 0.661452-2.245836 0.635154-0.712496 0.03653-1.079769-0.664049-0.983344-1.092603 0.152461-0.677605 1.229179-1.463496 1.229179-1.966687 0-0.600965-0.44082-0.984381-0.39174-1.568991 0.04908-0.584608 2.180819-2.247474 1.973058-3.481478-0.32443-1.926964-0.750324-3.034437 0.991427-3.839225-0.21897 0.662675-0.08571 1.048145 0.02945 1.692749 0.207621-1.23793 0.83012-1.401416 1.874892-2.102848-0.301929 1.322521 0.315395 1.820108 0.274844 2.81834-0.04055 0.998232-1.236437 1.884133-1.881214 1.906171v2.666667c0.430437-0.210813 0.604668 3.11e-4 1 0l6.129283-10.77836-6.999999-13.333333v1.7777778c-0.614888 0.355927-0.663558 0.605368-0.646626 1.1816573 0 0 0.342323-0.318945 0.646626-0.292769 0.304301 0.02617 1.990181 4.897058 2 5.333334-1.5e-5 0.540981-2 0.888888-2 1.777778 0.480554-0.426682 1.267739-0.28254 1.98518 0.01264 0.557836 0.229515 0.983957 2.731811 1.062485 3.246616-0.01942 0.523531-0.647869 0.985982-1.433164 0.994708-0.785296 0.0088-1.138679-0.122151-1.148494-0.436269-0.0098-0.31412 1.011066-1.143042 1.011066-1.143042-1.170287-0.05714-1.69351 0.660596-2.130114 1.169218 0.05825-0.305393 0.117756-0.523532 0.17671-0.785296-0.595257 0.102121-0.871392 0.518069-1.089598 0.8551-0.2959-0.679432-2.050854-2.326049-2.022144-2.921734-0.107504-0.978703 3.215813-0.917211 3.568819-3.193536-0.0196-0.863825-0.921972-1.47108-1.75282-1.666573-0.667503-0.157058-0.883459-0.209412-0.883459-0.209412 0.448211-0.214393 1.793457-0.826519 1.472426-1.675298-0.123587 0.335094-0.276286 0.759733-1.658937 0.828924-1.413816-0.605507-1.230173-1.514447-1.001243-2.251182-0.932218 0.604733-0.793704 1.193554-0.559523 2.05922 0.06654 0.427546-0.428098 0.786165-0.572487 1.069735 0.02857 0.357103 0.05162 0.745427-0.173544 0.910955-0.559573 0.542737 0.123637 1.369421 0.441711 1.317552-0.04358-1.072964 1.179097-1.490836 1.668752-1.605493 0.80493-9e-6 2.253447 0.732943 2.243632 1.265199-0.0098 0.532256-0.977341 1.055786-2.174918 1.413532-1.197575 0.357746-2.159564 0.828923-2.130114 1.980691 0.03749 1.125563 0.631621 2.395899 0.74603 2.703595-0.399216-0.341062-0.619222-0.834376-1.197575-0.907452 0.137911 0.261335 0.280237 0.551983 0.402487 0.855099-0.605334-0.870491-1.231661-1.124063-2.32644-1.256473 1.925273 1.366308 0.595014 1.651896-0.117782 1.640396-0.679761-0.01096-1.524181-0.257469-1.433163-0.959806 0.05478-0.422703 0.361469-2.98924 1.061363-3.296768 0.737841-0.324203 1.514648-0.306467 1.964858-0.01485 0-0.888888-2.013033-1.374946-1.999999-1.777778 0.01302-0.402831 1.680155-5.333333 1.999999-5.333333s0.432807 0.05952 0.625 0.319444c0.182892-0.8421803-0.42062-0.9055733-0.625-1.2083333 1e-5 -0.209413 0-1.7777781 0-1.7777781z" style="fill:#efefef"/>
  <path d="m20.18629 3.9060494a2.1280519 2.2521647 0 0 0-1.866053 1.1700018l-7.654046 14.752362a2.1280519 2.2521647 0 0 0-0.208816 1.57213 2.1280519 2.2521647 0 0 1 0.208816-0.591703l7.654046-14.752362a2.1280519 2.2521647 0 0 1 1.866053-1.1700018h7.650251a2.1280519 2.2521647 0 0 1 1.866054 1.1700018l7.654046 14.752362a2.1280519 2.2521647 0 0 1 0.210715 0.595532 2.1280519 2.2521647 0 0 0-0.210715-1.575959l-7.654046-14.752362a2.1280519 2.2521647 0 0 0-1.866054-1.1700018z" style="fill:#ffffff;opacity:.1"/>
 </g>
</svg>
