<svg xmlns="http://www.w3.org/2000/svg" width="64" height="64" version="1.0">
 <path style="opacity:0.2" d="M 16.6,5 C 9.6196,5 4,10.6196 4,17.6 V 48.4 C 4,55.3804 9.6196,61 16.6,61 H 47.4 C 54.3804,61 60,55.3804 60,48.4 V 17.6 C 60,10.6196 54.3804,5 47.4,5 Z"/>
 <path style="fill:#ff7f2a" d="M 17,4 C 10.0196,4 4.4,9.6196 4.4,16.6 V 47.4 C 4.4,54.3804 10.0196,60 17,60 h 30.8 c 6.9804,0 12.6,-5.6196 12.6,-12.6 V 16.6 C 60.4,9.6196 54.7804,4 47.8,4 Z"/>
 <path style="opacity:0.1" d="m 20.75,4.9998226 c 0.721946,3.2960744 1.650582,7.8063374 2.375,8.0039064 1.06282,0.289852 -0.51924,-4.7890586 -0.917968,-8.0039064 z m 11.964844,0 C 32.46298,7.661358 30.587616,9.959696 30.164062,11.046698 c -0.657498,1.687334 -3.4646,4.533945 -1.964844,5.84375 0.786946,0.687272 2.175316,-1.008216 2.652344,-1.722657 1.800138,-2.696065 0.490568,-0.785925 3.597656,-7.1445308 0.560922,-1.147911 1.025938,-1.8381758 1.234376,-3.0234376 z m -21.15625,1.046875 C 10.292045,6.5973792 9.1442568,7.3553972 8.1367188,8.2693538 9.5089718,10.123485 10.943353,12.318449 11.90625,14.730291 14.249833,20.600456 9.371133,25.20737 10,30.663884 c 0.387892,3.36565 2.80389,4.53352 6.070312,6.015626 0.264201,0.15784 0.532106,0.309022 0.804688,0.445312 0.844817,0.422408 1.855322,0.896712 2.925781,1.367188 1.555651,0.84243 3.194877,1.884142 4.839843,3.328124 2.595166,2.27809 6.515048,0.730048 8.566408,0.503906 1.989438,-0.219306 4.277344,0.93958 4.277344,0.125 0,-0.05676 -0.0156,-0.11324 -0.04688,-0.17188 1.954914,-0.17068 5.352056,-1.043772 8.414062,-3.78125 5.53687,-4.95005 4.68065,-9.168062 11.54297,-12.98047 C 58.187834,25.074726 59.2216,24.685836 60,24.32404 v -6.722655 c 0,-0.771988 -0.07923,-1.524872 -0.210938,-2.257812 -0.613054,-0.09536 -1.282074,-0.189665 -1.828124,-0.289063 -0.356498,-1.392663 -3.20612,-3.051788 -5.828126,-3.484375 -2.630244,-0.433943 -6.988692,-1.03885 -11.89453,1.046875 -2.414162,1.026381 -6.734302,2.207273 -6.191406,3.878906 0.189342,0.583007 0.563584,0.865617 1.101562,0.949219 -0.634684,0.271447 -1.233664,0.528947 -1.703126,0.714844 -5.459262,2.161735 -7.79364,-0.641918 -11.84375,-0.558594 -1.772809,0.03647 -3.921016,1.02986 -6.757812,2.601563 0.346015,-2.118272 0.440385,-4.253251 -0.261719,-5.988282 C 12.992579,10.286822 12.042562,9.293224 11.558594,6.0466976 Z M 60,39.468572 c -0.655054,0.408678 -1.44394,1.161846 -2.382812,2.378906 -4.785158,6.202978 -9.036458,7.79615 -17.01172,10.277344 -7.975258,2.481192 -16.039842,-0.746748 -20.73828,-3.367188 -1.237904,-0.69041 -4.608506,-4.764034 -5.671876,-3.523436 -1.063367,1.240596 0.891206,3.703702 1.777344,4.589842 0.88614,0.88614 7.882886,5.66956 15.769532,6.910158 6.710206,1.055534 19.321612,-2.83666 22.511718,-5.140626 C 56.14651,50.22669 58.335164,48.427342 60,46.74201 Z"/>
 <path style="fill:#ffffff" d="m 48.089844,13.0625 c -0.505416,-0.0067 -0.993578,-0.0054 -1.453126,0.0078 -1.225458,0.03527 -2.361238,0.145643 -3.26953,0.36718 -3.633174,0.886141 -7.777028,2.873345 -9.921876,3.722656 -5.459262,2.161736 -7.79364,-0.641917 -11.84375,-0.558594 -2.066548,0.04252 -4.579713,1.334188 -8.183593,3.394532 -2.002387,1.144766 -1.863282,7.44213 -1.863281,9.746094 0,2.303964 2.484665,4.964988 5.320312,6.382812 2.83565,1.417824 7.444158,3.409338 10.457032,3.941024 3.012878,0.531682 7.531392,1.105362 8.949218,1.238282 1.417826,0.13294 5.772442,-0.413242 9.570312,-3.808594 5.53687,-4.95005 4.68065,-9.167682 11.54297,-12.980088 C 58.187834,24.074902 59.2216,23.686014 60,23.324218 V 16.601562 C 60,15.829574 59.92077,15.07669 59.789062,14.34375 58.997948,14.220694 58.02709,14.104429 57.484376,13.96875 56.019712,13.602584 51.627752,13.109662 48.089844,13.0625 Z"/>
 <path style="fill:#383838" d="m 34.046706,15.495456 c 0.47225,1.454102 2.069076,1.069022 4.589978,0.270645 0.709326,-0.242376 3.009482,-1.270442 6.129266,-1.751422 3.335404,-0.514224 2.890756,-0.480234 7.371892,0.02587 3.302814,0.373028 5.656628,1.658977 5.850004,0.451399 0.233854,-1.460413 -2.949542,-3.441271 -5.853476,-3.920371 -2.630244,-0.433943 -6.990266,-1.0385212 -11.896104,1.047204 -2.414162,1.026381 -6.734454,2.205052 -6.19156,3.876686 z"/>
 <path style="fill:#383838" d="m 29.58963,23.052686 c -1.063368,0.575992 -3.987632,3.27872 -5.272534,3.411642 -1.284904,0.13294 -1.816586,-0.575994 -2.879954,-0.17722 -1.06337,0.398762 -6.601745,2.126736 -7.26635,2.569806 -0.664605,0.44307 -0.88614,1.32921 -0.443068,1.727972 0.443068,0.398764 5.89283,0.75322 6.646048,1.151984 0.75322,0.398762 5.228226,2.614112 6.513132,2.569806 1.284902,-0.04432 6.02575,0.354456 7.842338,-0.398762 1.816586,-0.75322 4.918076,-5.449764 6.557436,-6.646052 1.63936,-1.196288 3.544558,-2.702726 5.361146,-3.234412 1.816588,-0.531684 3.943324,-1.949508 4.740848,-3.012874 0.79753,-1.063369 1.019064,-2.038122 0,-2.259659 -1.01906,-0.221535 -2.436884,1.107675 -3.677478,1.373517 -1.240596,0.265844 -5.228226,0.265844 -7.620806,0 -2.392576,-0.265842 -10.412144,3.012876 -10.500758,2.924262 z"/>
 <circle style="fill:#8af258" cx="33" cy="29" r="7"/>
 <circle style="fill:#383838" cx="32" cy="28" r="2"/>
 <path style="fill:#383838" d="m 44.063486,19.961175 c -3.752608,-0.900567 -8.49865,0.054 -11.242422,0.719617 -2.515202,0.610158 -4.87666,1.957128 -5.841736,2.890108 -0.5132,0.496116 -1.596736,1.440848 -2.172142,1.716242 -0.436176,0.208756 -1.05316,0.26671 -1.663906,0.17754 -0.7932,-0.11578 -1.402352,-0.644224 -1.682904,-1.614388 -0.35738,-1.235864 -0.681938,-2.301678 -0.211538,-3.68085 0.06576,-0.185042 -0.03094,-0.388375 -0.216006,-0.454145 -0.18504,-0.06576 -0.388378,0.03094 -0.454148,0.216006 -0.64986,1.819633 -0.694912,3.610557 -0.227064,5.017767 0.467828,1.40719 1.491942,2.44899 2.90211,2.59749 0.954654,0.10054 1.727086,-0.08422 2.392576,-0.443072 0.665508,-0.358814 1.227466,-0.876764 1.860894,-1.43443 1.266862,-1.11533 2.807488,-2.437276 5.903908,-3.273188 6.498916,-1.754414 3.54495,-1.59328 10.668986,-1.725794 0.19576,-0.0048 0.350732,-0.167 0.34616,-0.362768 -0.0048,-0.19574 -0.16702,-0.350733 -0.362768,-0.346143 z"/>
 <path style="fill:#383838" d="m 50.509052,18.113165 c -0.370566,0.05547 -0.73158,0.209056 -1.113224,0.387685 -1.894352,1.144627 -3.336542,1.440104 -5.48396,1.291994 -1.341316,-0.09358 -2.769064,-0.226497 -4.02639,-0.09415 -2.482468,0.261323 -4.198088,1.318134 -4.198088,1.318134 l 0.465222,0.753218 c 0,0 1.547362,-0.950774 3.82701,-1.190758 1.12373,-0.11828 2.518286,0 3.871332,0.09416 1.353048,0.09438 2.241542,0.03602 3.296296,-0.24525 1.015692,-0.27084 1.915958,-0.792296 2.62519,-1.124281 0.354614,-0.165992 0.658862,-0.279454 0.863988,-0.310149 0.205122,-0.0307 0.264192,-0.01274 0.343378,0.06646 0.14012,0.140114 0.19602,0.254625 0.216006,0.37661 0.02,0.121968 0.0058,0.27479 -0.09968,0.498453 -0.21124,0.447323 -0.795628,1.118165 -1.83874,1.977191 -0.981064,0.807946 -1.92976,1.446412 -3.440312,2.028606 -1.51055,0.582194 -3.065228,1.380446 -4.663312,2.497798 -1.761132,1.23138 -1.87438,2.491774 -3.839342,4.257938 -1.238418,1.113134 -2.758892,2.66597 -4.579094,2.880114 -5.26103,0.618952 -6.63758,-0.627704 -10.018824,-1.422448 -2.14024,-0.503044 -4.248935,-1.174456 -6.031281,-1.33474 -0.891174,-0.08014 -1.661938,-0.16122 -2.148889,-0.310148 -0.243495,-0.07448 -0.408867,-0.16646 -0.492926,-0.24369 -0.08404,-0.07724 -0.106596,-0.12346 -0.110782,-0.243688 -0.01302,-0.378844 0.07309,-0.500882 0.371081,-0.692306 0.297991,-0.1914 0.838128,-0.365144 1.545198,-0.54829 1.414172,-0.366314 3.483433,-0.814576 5.815295,-2.11566 L 21.23221,25.890594 c -2.213297,1.234942 -4.158852,1.65804 -5.604835,2.032574 -0.722986,0.18728 -1.328182,0.35247 -1.80551,0.659076 -0.477312,0.306604 -0.797296,0.84217 -0.775375,1.473208 0.01162,0.335334 0.167802,0.651738 0.398763,0.863986 0.230982,0.21225 0.5132,0.340402 0.830758,0.437522 0.635149,0.19426 1.429981,0.262794 2.326116,0.343382 1.792272,0.16118 3.973399,0.345608 5.704527,1.240594 3.391808,1.753564 6.145364,3.686006 11.536444,3.05176 2.170318,-0.255332 4.732504,-2.182278 5.805742,-3.800406 1.07324,-1.618146 1.874098,-2.887328 3.26167,-3.935402 0.98023,-0.740406 1.863588,-1.761594 3.360702,-2.825988 1.30766,-0.929684 2.396172,-1.885122 3.545532,-2.831664 1.08731,-0.895424 1.755532,-1.606782 2.076898,-2.287338 0.16068,-0.340279 0.231656,-0.686775 0.17722,-1.019061 -0.05441,-0.332282 -0.229376,-0.622597 -0.465214,-0.858452 -0.296768,-0.296751 -0.726032,-0.376681 -1.096598,-0.321226 z"/>
 <path style="fill:#383838" d="m 20.750782,4 c 0.721946,3.2960744 1.649018,7.804432 2.373436,8.002 1.06282,0.289852 -0.520022,-4.7871522 -0.91875,-8.002 z m 11.96289,0 c -0.251864,2.6615354 -2.127618,4.9598084 -2.551172,6.04681 -0.657498,1.687335 -3.463628,4.534059 -1.963872,5.843864 0.786946,0.687272 2.175316,-1.008216 2.652344,-1.722657 1.800138,-2.696065 0.489206,-0.784085 3.596294,-7.1426908 C 35.008188,5.8774154 35.474764,5.1852618 35.683202,4 Z M 11.560547,5.0472656 C 10.293998,5.5979472 9.1446474,6.3563558 8.1371094,7.2703124 9.5093624,9.1244436 10.942181,11.319798 11.905078,13.731641 14.248661,19.601804 9.371633,24.20833 10.0005,29.664844 c 0.686271,5.95461 7.615458,4.992252 14.638564,11.157272 2.595166,2.27809 6.51817,0.726534 8.56953,0.500392 1.989438,-0.219306 4.276562,0.94036 4.276562,0.12578 0,-0.88614 -3.957492,-2.04058 -7.421092,-2.187732 C 26.441806,39.10935 22.654878,35.134194 17.8755,34.29961 15.263387,33.843478 12.691257,31.56365 15.399512,31.417578 17.405663,29.926596 17.815059,29.160576 15.14248,28.448048 10.415406,29.282172 16.929869,19.013443 14.583387,13.214843 12.993935,9.2869992 12.044515,8.293792 11.560547,5.0472656 Z M 60,38.467578 c -0.655054,0.408678 -1.442768,1.161848 -2.38164,2.378908 -4.785158,6.202978 -9.03802,7.797322 -17.013282,10.278516 -7.975258,2.481192 -16.039062,-0.745576 -20.7375,-3.366016 -1.237904,-0.69041 -4.607724,-4.765582 -5.671094,-3.524986 -1.063367,1.240596 0.888471,3.702518 1.774609,4.588658 0.88614,0.88614 7.885229,5.669168 15.771875,6.909766 6.710206,1.055534 19.31927,-2.833926 22.509376,-5.137892 C 56.144948,49.22765 58.335164,47.426348 60,45.741016 Z"/>
 <path style="opacity:0.2;fill:#ffffff" d="M 16.601562 4 C 9.6211631 4 4 9.6211631 4 16.601562 L 4 17.601562 C 4 10.621164 9.6211631 5 16.601562 5 L 47.398438 5 C 54.378838 5 60 10.621163 60 17.601562 L 60 16.601562 C 60 9.6211631 54.378838 4 47.398438 4 L 16.601562 4 z"/>
</svg>
