<svg xmlns="http://www.w3.org/2000/svg" width="64" height="64" version="1">
 <rect style="fill:#616bdd" width="55.999" height="55.999" x="-60" y="-60" rx="2.8" ry="2.8" transform="matrix(0,-1,-1,0,0,0)"/>
 <path style="opacity:0.1;fill:#ffffff" d="M 6.8007812,4 C 5.2496033,4 4,5.2495828 4,6.8002055 L 4,7.8 C 4,6.2493773 5.2496033,4.9997945 6.8007812,4.9997945 l 50.3984378,0 C 58.749197,4.9997945 60,6.2493774 60,7.8 L 60,6.8002055 C 60,5.2495829 58.749197,4 57.199219,4 L 6.8007812,4 Z"/>
 <path style="opacity:0.2" d="m 4,57.2 0,0.999795 C 4,59.749454 5.2496033,61 6.8007812,61 L 57.199219,61 C 58.749197,61 60,59.749454 60,58.199795 L 60,57.2 c 0,1.54966 -1.250803,2.800205 -2.800781,2.800205 l -50.3984378,0 C 5.2496033,60.000205 4,58.74966 4,57.2 Z"/>
 <path style="opacity:0.5" d="m 39,15 10,0 0,10 -10,0 z m -24,0 10,0 0,10 -10,0 z m 12,0 10,0 0,10 -10,0 z m 0,12 10,0 0,10 -10,0 z m 0,12 10,0 0,10 -10,0 z"/>
</svg>
