<svg xmlns="http://www.w3.org/2000/svg" width="64" height="64" version="1.1">
 <rect style="opacity:0.2" width="56" height="56" x="4" y="5" rx="2.8" ry="2.8"/>
 <path style="fill:#00a1f1" d="m 6.8,4 43.833396,6.566604 c 1.5512,0 2.8,1.2488 2.8,2.800001 L 60,57.2 C 60,58.7512 58.7512,60 57.2,60 H 6.8 C 5.2488,60 4,58.7512 4,57.2 V 6.8 C 4,5.2488 5.2488,4 6.8,4 Z"/>
 <path style="fill:#008aee" d="M 6.8,4 C 6.0244,4 5.3236782,4.3114782 4.8175782,4.8175782 L 59.182422,59.182422 C 59.688522,58.676322 60,57.9756 60,57.2 V 6.8 C 60,5.2488 58.7512,4 57.2,4 Z"/>
 <path style="opacity:0.2" d="m 32,11.000906 a 22,22 0 0 0 -22,22 22,22 0 0 0 22,22 22,22 0 0 0 12.296876,-3.765624 L 51.429688,58.372 57.371094,52.430594 50.226562,45.289968 A 22,22 0 0 0 54,33.000906 a 22,22 0 0 0 -22,-22 z m 0,4 a 18,18 0 0 1 18,18 H 38.65625 L 34.691406,27.196218 30.761718,33.747 23.382812,18.997 19.4375,29.000906 h -4.96875 a 18,18 0 0 1 17.53125,-14 z m -8.183594,13.800782 6.625,13.253906 4.46875,-7.44922 1.632812,2.394532 H 49.53125 a 18,18 0 0 1 -17.53125,14 18,18 0 0 1 -18,-18 h 8.160156 z"/>
 <path style="fill:#ffffff" d="M 32,10 A 22,22 0 0 0 10,32 22,22 0 0 0 32,54 22,22 0 0 0 54,32 22,22 0 0 0 32,10 Z m 0,4 A 18,18 0 0 1 50,32 18,18 0 0 1 32,50 18,18 0 0 1 14,32 18,18 0 0 1 32,14 Z"/>
 <path style="fill:none;stroke:#ffffff;stroke-width:4" d="m 12.4,30 h 8.4 l 2.8,-7.099792 7,14 4.2,-7 L 37.6,34 h 14"/>
 <path style="fill:none;stroke:#ffffff;stroke-width:8.39999962" d="M 54.4,54.4 46.971858,46.971858"/>
 <path style="opacity:0.1;fill:#ffffff" d="M 6.8007812 4 C 5.2495812 4 4 5.2495812 4 6.8007812 L 4 7.8007812 C 4 6.2495813 5.2495812 5 6.8007812 5 L 57.199219 5 C 58.750419 5 60 6.2495812 60 7.8007812 L 60 6.8007812 C 60 5.2495813 58.750419 4 57.199219 4 L 6.8007812 4 z"/>
</svg>
