<svg width="64" height="64" version="1.1" xmlns="http://www.w3.org/2000/svg">
 <path d="m31.953505 17.000222c-0.776564 0.0085-1.517938 0.226982-2.067189 0.609384l-25.011327 17.416408c-1.1666516 0.812992-1.1666516 2.13055 0 2.943541l25.011327 17.42185c1.167166 0.81146 3.057445 0.81146 4.224611 0l25.014062-17.42185c1.166652-0.812991 1.166652-2.130549 0-2.943541l-25.014062-17.416408c-0.571371-0.397785-1.34959-0.6176-2.157422-0.609384z" style="opacity:.2"/>
 <path d="m31.953505 16.000222c-0.776564 0.0085-1.517938 0.226982-2.067189 0.609384l-25.011327 17.416408c-1.1666516 0.812992-1.1666516 2.13055 0 2.943541l25.011327 17.42185c1.167166 0.81146 3.057445 0.81146 4.224611 0l25.014062-17.42185c1.166652-0.812991 1.166652-2.130549 0-2.943541l-25.014062-17.416408c-0.571371-0.397785-1.34959-0.6176-2.157422-0.609384z" style="fill:#4f4f4f"/>
 <path d="m31.953505 11.000222c-0.776564 0.0084-1.517938 0.226982-2.067189 0.609384l-25.011327 17.41641c-1.1666516 0.812991-1.1666516 2.130549 0 2.943541l25.011327 17.421848c1.167166 0.81146 3.057445 0.81146 4.224611 0l25.014062-17.421848c1.166652-0.812992 1.166652-2.13055 0-2.943541l-25.014062-17.41641c-0.571371-0.397785-1.34959-0.6176-2.157422-0.609384z" style="opacity:.2"/>
 <path d="m31.953505 10.000222c-0.776564 0.0084-1.517938 0.226982-2.067189 0.609384l-25.011327 17.41641c-1.1666516 0.812991-1.1666516 2.130549 0 2.943541l25.011327 17.421848c1.167166 0.81146 3.057445 0.81146 4.224611 0l25.014062-17.421848c1.166652-0.812992 1.166652-2.13055 0-2.943541l-25.014062-17.41641c-0.571371-0.397785-1.34959-0.6176005-2.157422-0.609384z" style="fill:#e4e4e4"/>
 <path d="m28 17-4 3 15 9.5 1-0.7 7.5 5.2 1.5-1.5-6.945313-4.803125 0.945313-0.696875zm-10 6-4 3 15 10 1.2-1 7.4 5 1.4-1.4-7-4.6 1-1z" style="opacity:.1"/>
 <path d="m28 16-4 3 15 9.5 1-0.7 7.5 5.2 1.5-1.5-6.945313-4.803125 0.945313-0.696875zm-10 6-4 3 15 10 1.2-1 7.4 5 1.4-1.4-7-4.6 1-1z" style="fill:#4f4f4f"/>
 <path d="m31.953125 10c-0.776564 0.0084-1.517155 0.226973-2.066406 0.609375l-25.011719 17.416016c-0.7680646 0.535232-1.0205891 1.287991-0.7773438 1.972656 0.1260633-0.35576 0.3782969-0.694577 0.7773438-0.972656l25.011719-17.416016c0.549251-0.382402 1.289842-0.600975 2.066406-0.609375 0.807832-0.008216 1.586832 0.21159 2.158203 0.609375l25.013672 17.416016c0.399047 0.278079 0.65128 0.616896 0.777344 0.972656 0.243245-0.684665-0.009279-1.437424-0.777344-1.972656l-25.013672-17.416016c-0.571371-0.397785-1.350371-0.6175912-2.158203-0.609375z" style="fill:#ffffff;opacity:.2"/>
</svg>
