<svg xmlns="http://www.w3.org/2000/svg" width="64" height="64" version="1.1" viewBox="0 0 64 64">
 <rect style="fill:#32434d" width="56" height="56" x="-60" y="-60" rx="28" ry="28" transform="matrix(0,-1,-1,0,0,0)"/>
 <path style="opacity:0.2" d="M 31.999599,13.003399 A 19.999714,20.0044 0 0 0 11.999886,33.007799 19.999714,20.0044 0 0 0 24.9685,51.710913 c -0.0098,-0.284663 -0.0108,-0.650743 -0.03004,-0.86279 -0.05882,-0.663145 0.101919,-3.625197 0.246397,-4.526195 0.04984,-0.311269 0.230917,-0.924604 0.402634,-1.3615 0.340535,-0.86619 0.72459,-2.165076 0.862368,-2.930245 0.04822,-0.266858 0.170797,-0.778371 0.273436,-1.136249 0.157378,-0.546921 0.175897,-0.784573 0.123198,-1.511533 -0.0482,-0.664946 -0.02926,-0.960011 0.07812,-1.292284 0.182657,-0.566924 0.174338,-0.763568 -0.03906,-1.271479 -0.110799,-0.263658 -0.177178,-0.643742 -0.180278,-1.006622 l -0.006,-0.583328 -0.171257,0.222648 c -0.09432,0.122028 -0.234597,0.472705 -0.312496,0.778372 -0.342535,1.341495 -0.868247,2.121266 -2.391766,3.561383 -0.550772,0.520315 -1.035645,1.039428 -1.078704,1.154054 -0.593932,1.582148 -0.650551,1.808398 -0.603952,2.416531 0.02566,0.334875 0.07452,0.701555 0.108179,0.81438 0.08254,0.276661 -0.191797,0.391486 -0.414654,0.174038 -0.09252,-0.08802 -0.227897,-0.128028 -0.312496,-0.09602 -0.120618,0.05201 -0.139958,0.158034 -0.105178,0.54692 0.0518,0.582128 0.0791,0.621737 0.459733,0.610134 0.247437,0 0.311396,0.03401 0.393635,0.27066 0.05494,0.158035 0.06354,0.282462 0.018,0.282462 -0.04524,0 -0.08414,0.126027 -0.08414,0.291664 0,0.279462 -0.0142,0.291264 -0.396635,0.291264 -0.344995,0 -0.404794,0.02801 -0.429674,0.215648 -0.0184,0.13803 -0.09998,0.23125 -0.228356,0.249454 -0.265877,0.04201 -0.994506,-0.742963 -1.277022,-1.373501 -0.284156,-0.63454 -0.231217,-1.613155 0.150238,-2.834024 0.150378,-0.480906 0.320855,-1.13745 0.381614,-1.457721 0.143638,-0.758366 0.314036,-1.100041 0.579912,-1.172057 0.165198,-0.04201 0.318615,-0.288064 0.661051,-1.04583 0.245456,-0.54332 0.540872,-1.27248 0.65503,-1.619957 0.247117,-0.751765 0.516833,-1.200264 1.237962,-2.058853 0.295836,-0.352478 0.587152,-0.806777 0.649031,-1.012822 0.06194,-0.209046 0.299396,-0.812579 0.525833,-1.346297 l 0.411654,-0.971013 0.05708,-1.748985 c 0.03218,-0.961811 0.103339,-1.905619 0.159238,-2.094861 0.05572,-0.188041 0.325195,-0.634939 0.597951,-0.991818 0.293456,-0.383484 0.495793,-0.744163 0.495793,-0.880593 0,-0.27426 0.420174,-0.929405 0.742169,-1.157255 0.125839,-0.08802 0.345496,-0.190042 0.486774,-0.225249 0.506412,-0.122028 0.573931,-0.160035 0.66705,-0.345677 0.07504,-0.154033 0.03522,-0.313468 -0.189317,-0.790373 -0.155578,-0.330874 -0.337616,-0.688951 -0.405635,-0.793575 -0.108678,-0.168037 -0.102478,-0.206645 0.05408,-0.324471 0.09806,-0.07602 0.430394,-0.194042 0.739169,-0.258458 0.524393,-0.118025 0.564072,-0.13803 0.588932,-0.405689 0.02402,-0.257456 -0.02914,-0.31987 -0.540853,-0.643341 -1.179363,-0.745364 -1.603977,-1.231271 -1.598537,-1.821201 0.0066,-0.664346 0.360395,-1.041229 1.376181,-1.466722 0.516272,-0.215647 0.65197,-0.314669 0.67607,-0.495909 0.0166,-0.122027 0.06586,-0.268059 0.111178,-0.31867 0.04526,-0.05401 0.08414,-0.275061 0.08414,-0.495709 0,-0.665146 0.192037,-1.537339 0.393615,-1.779391 0.373814,-0.449099 0.67011,-0.545121 1.631596,-0.54092 0.755029,0 0.962426,0.03801 1.289042,0.219849 0.439593,0.247254 0.526532,0.422493 0.826308,1.664966 0.109478,0.4543 0.272556,0.896598 0.363575,0.982816 0.09102,0.08602 0.189257,0.264259 0.219357,0.393687 0.0412,0.176038 0.189117,0.291664 0.594951,0.465902 1.049485,0.4499 1.612037,1.244674 1.41826,2.00184 -0.168238,0.657545 -1.028305,1.403309 -1.616557,1.403309 -0.09496,0 -0.171258,0.06802 -0.171258,0.146032 0,0.07802 0.05618,0.144032 0.123199,0.144032 0.08644,0 0.137418,0.206645 0.177277,0.718158 0.03106,0.396087 0.103739,0.834984 0.162258,0.973814 0.102458,0.242654 0.135538,0.250055 0.880387,0.249254 0.659151,-2e-4 0.876448,0.04201 1.490359,0.309669 0.395994,0.172038 0.753369,0.367681 0.793269,0.438897 0.03986,0.07402 0.263436,0.234851 0.495792,0.36368 0.588892,0.326071 1.43222,1.296285 2.076371,2.386324 0.299935,0.507512 0.629931,1.026026 0.730149,1.151254 0.100219,0.122026 0.180278,0.291664 0.180278,0.372482 0,0.08202 0.09304,0.284863 0.204337,0.453899 0.111598,0.170038 0.208277,0.468503 0.216357,0.670348 0.0186,0.474104 0.373094,1.27448 1.268002,2.86103 0.556052,0.986217 0.738469,1.399507 0.787248,1.782391 0.035,0.27426 0.0883,1.649964 0.120199,3.056473 0.05574,2.46034 0.0671,2.566364 0.258416,2.786013 0.198657,0.228649 0.198217,0.228449 0.117178,2.608773 -0.04462,1.309489 -0.121118,2.49655 -0.171257,2.638781 -0.05018,0.142031 -0.213457,0.326071 -0.360575,0.40869 -0.147058,0.08202 -0.289716,0.22885 -0.318516,0.327671 -0.02878,0.09802 -0.297635,0.304668 -0.597951,0.460102 -0.300296,0.156034 -0.566412,0.314869 -0.588932,0.354477 -0.02254,0.04001 0.130218,0.434496 0.336536,0.877594 0.213516,0.4587 0.468973,0.833783 0.796268,1.235271 a 19.999714,20.0044 0 0 0 8.647675,-16.444415 19.999714,20.0044 0 0 0 -19.999714,-20.0044 z m 5.393523,18.973573 c -0.03646,0 -0.05666,0.227851 -0.04506,0.507912 0.0176,0.412691 -0.0223,0.574527 -0.204337,0.844586 -0.123738,0.18404 -0.411374,0.72896 -0.640011,1.214067 l -0.414654,0.880594 1.712716,3.642601 c 1.889293,4.014483 2.07497,4.369761 2.265567,4.369761 0.07176,0 0.287436,-0.248654 0.480753,-0.555722 l 0.0032,0 c 0.193357,-0.307267 0.493733,-0.745964 0.670071,-0.973815 0.219116,-0.282462 0.356755,-0.589929 0.432693,-0.971013 0.06108,-0.306468 0.138718,-0.601532 0.174258,-0.654944 0.223097,-0.334674 0.179077,-0.733361 -0.195317,-1.764188 -0.429234,-1.182461 -0.605992,-2.082258 -0.612971,-3.107884 l -0.006,-0.697153 -0.637011,-0.27346 c -0.507333,-0.220049 -0.798469,-0.438097 -1.43026,-1.076037 -0.436534,-0.440896 -0.857028,-0.802376 -0.934486,-0.802376 -0.07746,0 -0.187738,-0.09802 -0.246397,-0.215648 -0.108038,-0.222249 -0.251436,-0.361079 -0.372595,-0.36368 z m -0.246396,9.208625 c -0.127018,-0.104022 -0.108659,0.280462 -0.09316,1.033829 0.0178,0.853587 0.300616,2.212086 0.474753,2.2751 0.06066,0.02201 0.212437,0.154034 0.339536,0.291664 l 0.231356,0.249454 0.117179,3.781032 c 0.04916,1.619556 0.105218,2.503552 0.153237,3.128689 a 19.999714,20.0044 0 0 0 4.050343,-1.884414 c -1.098164,-0.63214 -2.09317,-1.892617 -2.827559,-3.672609 -0.240257,-0.582528 -0.909547,-2.065054 -1.484359,-3.294124 -0.564832,-1.207266 -0.834508,-1.803397 -0.961526,-1.90842 z m 4.224739,2.617777 c -0.05972,-0.02601 -0.115498,-0.02201 -0.189317,0.02801 -0.407174,0.235651 -0.396174,0.488108 0.06312,1.541939 0.286076,0.656344 0.455894,0.942607 0.504793,0.859589 0.04038,-0.07202 0.07124,-0.525915 0.07212,-1.016023 0.0011,-0.817381 -0.0156,-0.913801 -0.228357,-1.187261 -0.09684,-0.124027 -0.162637,-0.196043 -0.222357,-0.22525 z m -10.396451,4.880873 c -0.08992,0 -0.129098,0.110025 -0.129198,0.36348 -2.92e-4,0.359079 -0.280716,2.058053 -0.456733,2.768209 -0.02692,0.108024 -0.119239,0.689752 -0.189318,1.106044 A 19.999714,20.0044 0 0 0 31.741743,53 c -0.0034,-0.655945 -0.201737,-1.828202 -0.399634,-2.335114 -0.101319,-0.259457 -0.140538,-0.592931 -0.123198,-1.058033 0.02644,-0.713557 -0.02846,-0.922603 -0.243397,-0.922603 z"/>
 <path style="fill:#ffffff" d="M 31.999599,12.0034 A 19.999714,20.004401 0 0 0 11.999886,32.0078 19.999714,20.004401 0 0 0 24.9685,50.710915 c -0.0098,-0.284663 -0.0108,-0.650743 -0.03004,-0.86279 -0.05882,-0.663145 0.101919,-3.625197 0.246397,-4.526196 0.04984,-0.311268 0.230917,-0.924603 0.402634,-1.361499 0.340535,-0.86619 0.72459,-2.165077 0.862368,-2.930245 0.04822,-0.266858 0.170797,-0.778371 0.273436,-1.13625 0.157378,-0.54692 0.175897,-0.784572 0.123198,-1.511532 -0.0482,-0.664947 -0.02926,-0.960011 0.07812,-1.292285 0.182657,-0.566924 0.174338,-0.763568 -0.03906,-1.271479 -0.110799,-0.263659 -0.177178,-0.643742 -0.180278,-1.006622 l -0.006,-0.583328 -0.171257,0.222649 c -0.09432,0.122026 -0.234597,0.472704 -0.312496,0.778371 -0.342535,1.341495 -0.868247,2.121267 -2.391766,3.561383 -0.550772,0.520315 -1.035645,1.039429 -1.078704,1.154055 -0.593932,1.582148 -0.650551,1.808398 -0.603952,2.416531 0.02566,0.334873 0.07452,0.701554 0.108179,0.814379 0.08254,0.276661 -0.191797,0.391486 -0.414654,0.174039 -0.09252,-0.08802 -0.227897,-0.128028 -0.312496,-0.09602 -0.120618,0.05201 -0.139958,0.158035 -0.105178,0.54692 0.0518,0.582129 0.0791,0.621738 0.459733,0.610135 0.247437,0 0.311396,0.03401 0.393635,0.27066 0.05494,0.158035 0.06354,0.282462 0.018,0.282462 -0.04524,0 -0.08414,0.126027 -0.08414,0.291664 0,0.279462 -0.0142,0.291264 -0.396635,0.291264 -0.344995,0 -0.404794,0.02801 -0.429674,0.215647 -0.0184,0.13803 -0.09998,0.231251 -0.228356,0.249455 -0.265877,0.04201 -0.994506,-0.742963 -1.277022,-1.373502 -0.284156,-0.634539 -0.231217,-1.613154 0.150238,-2.834023 0.150378,-0.480906 0.320855,-1.137451 0.381614,-1.457721 0.143638,-0.758367 0.314036,-1.100042 0.579912,-1.172058 0.165198,-0.04201 0.318615,-0.288063 0.661051,-1.04583 0.245456,-0.54332 0.540872,-1.27248 0.65503,-1.619956 0.247117,-0.751766 0.516833,-1.200264 1.237962,-2.058853 0.295836,-0.352478 0.587152,-0.806777 0.649031,-1.012823 0.06194,-0.209046 0.299396,-0.812579 0.525833,-1.346296 l 0.411654,-0.971014 0.05708,-1.748984 c 0.03218,-0.961812 0.103339,-1.90562 0.159238,-2.094861 0.05572,-0.188042 0.325195,-0.63494 0.597951,-0.991818 0.293456,-0.383485 0.495793,-0.744164 0.495793,-0.880594 0,-0.274261 0.420174,-0.929405 0.742169,-1.157255 0.125839,-0.08802 0.345496,-0.190041 0.486774,-0.22525 0.506412,-0.122026 0.573931,-0.160034 0.66705,-0.345676 0.07504,-0.154034 0.03522,-0.313468 -0.189317,-0.790373 -0.155578,-0.330873 -0.337616,-0.688952 -0.405635,-0.793575 -0.108678,-0.168037 -0.102478,-0.206645 0.05408,-0.324471 0.09806,-0.07602 0.430394,-0.194043 0.739169,-0.258457 0.524393,-0.118026 0.564072,-0.138031 0.588932,-0.405689 0.02402,-0.257457 -0.02914,-0.31987 -0.540853,-0.643342 -1.179363,-0.745364 -1.603977,-1.231271 -1.598537,-1.821201 0.0066,-0.664345 0.360395,-1.041229 1.376181,-1.466722 0.516272,-0.215648 0.65197,-0.314669 0.67607,-0.49591 0.0166,-0.122026 0.06586,-0.268058 0.111178,-0.318669 0.04526,-0.05401 0.08414,-0.275061 0.08414,-0.495709 0,-0.665147 0.192037,-1.537338 0.393615,-1.779392 0.373814,-0.449098 0.67011,-0.54512 1.631596,-0.540919 0.755029,0 0.962426,0.03801 1.289042,0.219849 0.439593,0.247254 0.526532,0.422493 0.826308,1.664966 0.109478,0.4543 0.272556,0.896597 0.363575,0.982816 0.09102,0.08602 0.189257,0.264258 0.219357,0.393686 0.0412,0.176039 0.189117,0.291664 0.594951,0.465903 1.049485,0.449899 1.612037,1.244674 1.41826,2.00184 -0.168238,0.657545 -1.028305,1.403309 -1.616557,1.403309 -0.09496,0 -0.171258,0.06802 -0.171258,0.146032 0,0.07802 0.05618,0.144032 0.123199,0.144032 0.08644,0 0.137418,0.206645 0.177277,0.718158 0.03106,0.396087 0.103739,0.834984 0.162258,0.973814 0.102458,0.242653 0.135538,0.250055 0.880387,0.249255 0.659151,-2e-4 0.876448,0.04201 1.490359,0.309668 0.395994,0.172038 0.753369,0.367681 0.793269,0.438897 0.03986,0.07402 0.263436,0.234851 0.495792,0.363679 0.588892,0.326073 1.43222,1.296286 2.076371,2.386325 0.299935,0.507512 0.629931,1.026027 0.730149,1.151254 0.100219,0.122027 0.180278,0.291664 0.180278,0.372481 0,0.08202 0.09304,0.284863 0.204337,0.453901 0.111598,0.170038 0.208277,0.468502 0.216357,0.670347 0.0186,0.474105 0.373094,1.27448 1.268002,2.861029 0.556052,0.986217 0.738469,1.399508 0.787248,1.782393 0.035,0.27426 0.0883,1.649962 0.120199,3.056472 0.05574,2.460341 0.0671,2.566365 0.258416,2.786012 0.198657,0.228651 0.198217,0.228451 0.117178,2.608775 -0.04462,1.309487 -0.121118,2.496548 -0.171257,2.63878 -0.05018,0.142031 -0.213457,0.326072 -0.360575,0.40869 -0.147058,0.08202 -0.289716,0.22885 -0.318516,0.327672 -0.02878,0.09802 -0.297635,0.304668 -0.597951,0.460101 -0.300296,0.156035 -0.566412,0.31487 -0.588932,0.354478 -0.02254,0.04001 0.130218,0.434496 0.336536,0.877594 0.213516,0.4587 0.468973,0.833783 0.796268,1.235271 A 19.999714,20.004401 0 0 0 51.999493,32.0044 19.999714,20.004401 0 0 0 31.999779,11.999999 Z m 5.393523,18.973574 c -0.03646,0 -0.05666,0.22785 -0.04506,0.507912 0.0176,0.412691 -0.0223,0.574525 -0.204337,0.844586 -0.123738,0.18404 -0.411374,0.728959 -0.640011,1.214066 l -0.414654,0.880594 1.712716,3.642601 c 1.889293,4.014483 2.07497,4.369762 2.265567,4.369762 0.07176,0 0.287436,-0.248655 0.480753,-0.555723 l 0.0032,0 c 0.193357,-0.307268 0.493733,-0.745963 0.670071,-0.973814 0.219116,-0.282462 0.356755,-0.58993 0.432693,-0.971013 0.06108,-0.306468 0.138718,-0.601533 0.174258,-0.654945 0.223097,-0.334673 0.179077,-0.733361 -0.195317,-1.764188 -0.429234,-1.18246 -0.605992,-2.082258 -0.612971,-3.107883 l -0.006,-0.697153 -0.637011,-0.273461 c -0.507333,-0.220048 -0.798469,-0.438096 -1.43026,-1.076037 -0.436534,-0.440897 -0.857028,-0.802376 -0.934486,-0.802376 -0.07746,0 -0.187738,-0.09802 -0.246397,-0.215647 -0.108038,-0.222249 -0.251436,-0.36108 -0.372595,-0.36368 z m -0.246396,9.208625 c -0.127018,-0.104022 -0.108659,0.280462 -0.09316,1.033827 0.0178,0.853588 0.300616,2.212088 0.474753,2.275101 0.06066,0.02201 0.212437,0.154034 0.339536,0.291665 l 0.231356,0.249454 0.117179,3.781032 c 0.04916,1.619556 0.105218,2.50355 0.153237,3.128688 A 19.999714,20.004401 0 0 0 42.41997,49.060951 C 41.321806,48.428812 40.3268,47.168335 39.592411,45.388344 39.352154,44.805816 38.682864,43.323289 38.108052,42.094219 37.54322,40.886953 37.273544,40.290823 37.146526,40.185799 Z m 4.224739,2.617776 c -0.05972,-0.02601 -0.115498,-0.02201 -0.189317,0.02801 -0.407174,0.235652 -0.396174,0.488107 0.06312,1.541939 0.286076,0.656345 0.455894,0.942608 0.504793,0.85959 0.04038,-0.07202 0.07124,-0.525916 0.07212,-1.016023 0.0011,-0.817381 -0.0156,-0.913801 -0.228357,-1.187262 -0.09684,-0.124028 -0.162637,-0.196043 -0.222357,-0.225249 z m -10.396451,4.880874 c -0.08992,0 -0.129098,0.110024 -0.129198,0.36348 -2.92e-4,0.359079 -0.280716,2.058052 -0.456733,2.768209 -0.02692,0.108024 -0.119239,0.689751 -0.189318,1.106043 a 19.999714,20.004401 0 0 0 1.541438,0.07802 c -0.004,-0.656144 -0.201997,-1.828402 -0.399994,-2.334513 -0.101999,-0.260058 -0.139998,-0.594131 -0.123998,-1.058233 0.028,-0.714157 -0.028,-0.924203 -0.241997,-0.924203 z"/>
 <path style="opacity:0.1;fill:#ffffff" d="M 32,4 C 16.488222,4 4,16.494419 4,32.013895 4,32.127506 4.011285,32.23804 4.017578,32.35 4.3691162,17.140916 16.710946,5.0004963 32,5.0004963 47.289055,5.0004963 59.630884,17.140916 59.982422,32.35 59.988797,32.23804 60,32.127506 60,32.013895 60,16.494419 47.511779,4 32,4 Z"/>
 <path style="opacity:0.2" d="M 4.0175781,32.664062 C 4.0112845,32.775966 4,32.886446 4,33 4,48.511779 16.488,61 32,61 47.512001,61 60,48.511779 60,33 60,32.886446 59.988797,32.775966 59.982422,32.664062 59.630879,47.865603 47.289273,60 32,60 16.710728,60 4.3691213,47.865603 4.0175781,32.664062 Z"/>
</svg>
