<svg xmlns="http://www.w3.org/2000/svg" width="64" height="64" version="1.1" viewBox="0 0 64 64">
 <g style="opacity:0.2" transform="matrix(1.9939485,0,0,1.9948611,0.11734023,-2034.3512)">
  <g>
   <g transform="translate(-0.01281,0.0213)">
    <path d="m 8.99766,1023.7849 c -2.2939143,-6e-4 -4.3327021,1.5473 -5.0976562,3.4297 -0.7653934,1.8835 -0.3828553,4.4162 1.2636718,6.0157 l 3.0722656,3.0703 -3.0527343,3.0547 c -1.09419,1.0505 -1.7893771,2.7223 -1.7128907,4.2226 0.076487,1.5003 0.7313105,2.7313 1.6328126,3.6328 0.901502,0.9015 2.1325207,1.5564 3.6328124,1.6328 1.5002918,0.077 3.1720808,-0.6187 4.2226568,-1.7128 l 3.054687,-3.0528 3.103516,3.1055 c 1.059504,1.064 2.712148,1.724 4.191406,1.6387 1.479258,-0.085 2.698894,-0.7349 3.59375,-1.6289 0.894856,-0.8941 1.544124,-2.1107 1.630859,-3.5899 0.08663,-1.4774 -0.569993,-3.1308 -1.630859,-4.1914 h -0.0039 l -3.107422,-3.1074 3.068359,-3.0684 c 1.668439,-1.6187 2.036841,-4.1976 1.236328,-6.0898 -0.800513,-1.8923 -2.908879,-3.4256 -5.232422,-3.3555 -1.427904,0.044 -2.786708,0.6425 -3.78125,1.668 l -3.068359,3.0683 -3.070313,-3.0703 c -1.033601,-1.0644 -2.457824,-1.6668 -3.9414058,-1.668 z"/>
   </g>
  </g>
 </g>
 <g style="fill:none" transform="matrix(1.9939485,0,0,1.9948611,0.11734023,-2035.3511)">
  <g style="fill:none">
   <g style="fill:none" transform="translate(-0.01281,0.0213)">
    <path style="fill:#4f4f4f" d="m 8.99766,1023.7849 c -2.2939143,-6e-4 -4.3327021,1.5473 -5.0976562,3.4297 -0.7653934,1.8835 -0.3828553,4.4162 1.2636718,6.0157 l 3.0722656,3.0703 -3.0527343,3.0547 c -1.09419,1.0505 -1.7893771,2.7223 -1.7128907,4.2226 0.076487,1.5003 0.7313105,2.7313 1.6328126,3.6328 0.901502,0.9015 2.1325207,1.5564 3.6328124,1.6328 1.5002918,0.077 3.1720808,-0.6187 4.2226568,-1.7128 l 3.054687,-3.0528 3.103516,3.1055 c 1.059504,1.064 2.712148,1.724 4.191406,1.6387 1.479258,-0.085 2.698894,-0.7349 3.59375,-1.6289 0.894856,-0.8941 1.544124,-2.1107 1.630859,-3.5899 0.08663,-1.4774 -0.569993,-3.1308 -1.630859,-4.1914 h -0.0039 l -3.107422,-3.1074 3.068359,-3.0684 c 1.668439,-1.6187 2.036841,-4.1976 1.236328,-6.0898 -0.800513,-1.8923 -2.908879,-3.4256 -5.232422,-3.3555 -1.427904,0.044 -2.786708,0.6425 -3.78125,1.668 l -3.068359,3.0683 -3.070313,-3.0703 c -1.033601,-1.0644 -2.457824,-1.6668 -3.9414058,-1.668 z"/>
   </g>
  </g>
 </g>
 <g transform="matrix(2,0,0,2,0.03030011,-2041.7999)">
  <g>
   <g style="fill:none;stroke:#000000;stroke-width:3;stroke-linecap:round;stroke-linejoin:round" transform="translate(-0.01281,0.0213)">
    <path style="opacity:0.2" d="m 9.0128,1030.4 14,14"/>
    <path style="opacity:0.2" d="m 23.013,1030.4 -14,14"/>
   </g>
  </g>
 </g>
 <g transform="matrix(2,0,0,2,0.03030011,-2040.7999)">
  <g>
   <g style="fill:none" transform="translate(-0.01281,0.0213)">
    <path style="fill:#ffffff" d="M 9.5,6.90625 A 1.50015,1.50015 0 0 0 8.453125,9.4824219 l 5.941406,5.9394531 -5.9394529,5.939453 a 1.50015,1.50015 0 1 0 2.1210939,2.121094 l 5.939453,-5.939453 5.9375,5.939453 a 1.5005327,1.5005327 0 1 0 2.123047,-2.121094 L 18.636719,15.421875 24.576172,9.4824219 A 1.50015,1.50015 0 0 0 23.486328,6.90625 1.50015,1.50015 0 0 0 22.455078,7.3613281 L 16.515625,13.300781 10.576172,7.3613281 A 1.50015,1.50015 0 0 0 9.5,6.90625 Z" transform="translate(-0.50234,1020.8787)"/>
   </g>
  </g>
 </g>
 <g style="fill:#ffffff;opacity:0.2" transform="matrix(1.9939485,0,0,1.9948611,0.11734023,-2035.3511)">
  <g style="fill:#ffffff">
   <g style="fill:#ffffff" transform="translate(-0.01281,0.0213)">
    <path style="fill:#ffffff" d="M 18.033203 7 C 13.459256 6.9988031 9.3944197 10.08667 7.8691406 13.841797 C 7.3028648 15.235941 7.0531021 16.808951 7.1289062 18.398438 C 7.177312 17.154825 7.4220595 15.942489 7.8691406 14.841797 C 9.3944197 11.08667 13.459256 7.9988031 18.033203 8 L 18.041016 8.0078125 C 20.999201 8.0102063 23.839443 9.2126073 25.900391 11.335938 L 32.021484 17.460938 L 38.138672 11.339844 C 40.121737 9.2941137 42.83252 8.0994926 45.679688 8.0117188 C 50.312713 7.871879 54.5171 10.930202 56.113281 14.705078 C 56.591942 15.837023 56.85579 17.093086 56.908203 18.382812 C 56.982883 16.746629 56.714959 15.127937 56.113281 13.705078 C 54.5171 9.9302025 50.312713 6.871879 45.679688 7.0117188 C 42.83252 7.0994926 40.121737 8.2941137 38.138672 10.339844 L 32.021484 16.460938 L 25.900391 10.335938 C 23.839443 8.2126073 20.999201 7.0102063 18.041016 7.0078125 L 18.033203 7 z M 16.013672 32.466797 L 10.427734 38.060547 C 8.2459759 40.156148 6.8592088 43.491485 7.0117188 46.484375 C 7.0135862 46.521021 7.0212255 46.555312 7.0234375 46.591797 C 7.1522704 43.846302 8.4604932 40.950102 10.427734 39.060547 L 16.513672 32.966797 L 16.013672 32.466797 z M 48.029297 32.474609 L 47.529297 32.974609 L 53.724609 39.173828 L 53.732422 39.173828 C 55.618852 41.060648 56.85556 43.886349 56.980469 46.566406 C 56.981124 46.555747 56.983749 46.54583 56.984375 46.535156 C 57.157111 43.587948 55.847734 40.289578 53.732422 38.173828 L 53.724609 38.173828 L 48.029297 32.474609 z" transform="matrix(0.50151747,0,0,0.50128803,-0.04603817,1020.2759)"/>
   </g>
  </g>
 </g>
</svg>
