<svg xmlns="http://www.w3.org/2000/svg" width="64" height="64" version="1">
 <rect style="opacity:0.2" width="56" height="56" x="4" y="5" rx="28" ry="28"/>
 <rect style="fill:#228cc9" width="56" height="56" x="4" y="4" rx="28" ry="28"/>
 <path style="opacity:0.2" d="m 16.958984,16.958688 a 4.0004,4.0004 0 0 0 -2.787109,6.869141 L 28,37.655954 v 14.34375 a 4.0004,4.0004 0 0 0 0.01367,0.400391 4.0004,4.0004 0 0 0 0.279297,1.162109 4.0004,4.0004 0 0 0 0.611328,1.027344 4.0004,4.0004 0 0 0 0.886719,0.802734 4.0004,4.0004 0 0 0 0.34375,0.203125 4.0004,4.0004 0 0 0 0.740234,0.300781 4.0004,4.0004 0 0 0 0.785156,0.146485 4.0004,4.0004 0 0 0 1.19336,-0.07813 4.0004,4.0004 0 0 0 1.117187,-0.427735 4.0004,4.0004 0 0 0 0.337891,-0.21289 4.0004,4.0004 0 0 0 0.314453,-0.248047 4.0004,4.0004 0 0 0 0.775391,-0.908203 4.0004,4.0004 0 0 0 0.193359,-0.351563 A 4.0004,4.0004 0 0 0 35.75,53.448923 4.0004,4.0004 0 0 0 35.871094,53.068063 4.0004,4.0004 0 0 0 36,51.999704 V 37.655954 L 49.828125,23.827829 a 4.0004,4.0004 0 1 0 -5.65625,-5.65625 L 32,30.343454 19.828125,18.171579 a 4.0004,4.0004 0 0 0 -2.869141,-1.212891 z"/>
 <path style="fill:none;stroke:#80fe9b;stroke-width:8;stroke-linecap:round;stroke-linejoin:round" d="M 47,20 32,35 V 51 M 17,20 32,35 v 16"/>
 <path style="opacity:0.2;fill:#ffffff" d="M 32 4 C 16.488 4 4 16.488 4 32 C 4 32.11345 4.0112805 32.224113 4.0175781 32.335938 C 4.3691213 17.134181 16.710728 5 32 5 C 47.289272 5 59.630879 17.134181 59.982422 32.335938 C 59.98872 32.224113 60 32.11345 60 32 C 60 16.488 47.512 4 32 4 z"/>
 <path style="opacity:0.2;fill:#ffffff" d="M 46.962891 15.943359 A 4.0004 4.0004 0 0 0 44.171875 17.171875 L 32 29.34375 L 19.828125 17.171875 A 4.0004 4.0004 0 0 0 16.958984 15.958984 A 4.0004 4.0004 0 0 0 12.992188 20.480469 A 4.0004 4.0004 0 0 1 16.958984 16.958984 A 4.0004 4.0004 0 0 1 19.828125 18.171875 L 32 30.34375 L 44.171875 18.171875 A 4.0004 4.0004 0 0 1 51.023438 20.443359 A 4.0004 4.0004 0 0 0 46.962891 15.943359 z"/>
</svg>
