<svg xmlns="http://www.w3.org/2000/svg" width="64" height="64" version="1">
 <path style="opacity:0.2" d="M 43,19.736841 V 7.9473676 H 20 V 19.736841 L 5.2446026,56.578947 C 4.3611595,58.789469 5.980805,61 8.3366407,61 H 54.717263 c 2.355847,0 3.82824,-2.357888 3.092038,-4.421053 z"/>
 <path style="fill:#9ccc65" d="M 43,18.736841 V 6.9473676 H 20 V 18.736841 L 5.2446026,55.578947 C 4.3611595,57.789469 5.980805,60 8.3366407,60 H 54.717263 c 2.355847,0 3.82824,-2.357888 3.092038,-4.421053 z"/>
 <path style="opacity:0.1" d="M 43.900004,11 H 19.099997 C 17.395004,11 16,9.6500007 16,7.9999994 16,6.3500004 17.395004,5 19.099997,5 H 43.900004 C 45.604997,5 47,6.3500004 47,7.9999994 47,9.6500007 45.604997,11 43.900004,11 Z"/>
 <path style="fill:#75aa38" d="M 43.900004,10 H 19.099997 C 17.395004,10 16,8.6500007 16,6.9999994 16,5.3500004 17.395004,4 19.099997,4 H 43.900004 C 45.604997,4 47,5.3500004 47,6.9999994 47,8.6500007 45.604997,10 43.900004,10 Z"/>
 <path style="opacity:0.1" d="m 30.868135,39.433906 c -6.930007,-1.149474 -11.868129,-8.223855 -11.868129,-8.223855 0,0 6.40186,-5.193433 13.331871,-4.043957 C 39.261874,28.315566 44,35.09 44,35.09 c 0,0 -6.201854,5.49338 -13.131865,4.343906 z"/>
 <path style="fill:#2e7d32" d="m 30.868135,38.433906 c -6.930007,-1.149474 -11.868129,-8.223855 -11.868129,-8.223855 0,0 6.40186,-5.193433 13.331871,-4.043957 C 39.261874,27.315566 44,34.09 44,34.09 c 0,0 -6.201854,5.49338 -13.131865,4.343906 z"/>
 <path style="opacity:0.1" d="M 34.760292,55.971684 C 26.128671,55.48602 18,48.871982 18,48.871982 c 0,0 5.565841,-5.983418 14.039721,-5.436671 8.473868,0.546746 16.760279,7.09969 16.760279,7.09969 0,0 -5.40809,5.922335 -14.039708,5.436683 z"/>
 <path style="fill:#388e3c" d="M 34.760292,54.971684 C 26.128671,54.48602 18,47.871982 18,47.871982 c 0,0 5.565841,-5.983418 14.039721,-5.436671 8.473868,0.546746 16.760279,7.09969 16.760279,7.09969 0,0 -5.40809,5.922335 -14.039708,5.436683 z"/>
 <path style="opacity:0.1" d="m 25.076082,38.253625 c -7.263923,3.907325 -7.075625,10.702583 -7.075625,10.702583 0,0 11.872636,0.666907 18.923932,-3.204417 C 43.975673,41.880479 44,35.04921 44,35.04921 c 0,0 -11.659996,-0.702908 -18.923918,3.204415 z"/>
 <path style="fill:#43a047" d="m 25.076082,37.253625 c -7.263923,3.907325 -7.075625,10.702583 -7.075625,10.702583 0,0 11.872636,0.666907 18.923932,-3.204417 C 43.975673,40.880479 44,34.04921 44,34.04921 c 0,0 -11.659996,-0.702908 -18.923918,3.204415 z"/>
 <path style="fill:#ffffff;opacity:0.2" d="M 19.099609 4 C 17.394616 4 16 5.350001 16 7 C 16 7.1709073 16.024007 7.3366969 16.052734 7.5 C 16.301355 6.0867171 17.57122 5 19.099609 5 L 43.900391 5 C 45.42878 5 46.698645 6.0867171 46.947266 7.5 C 46.975993 7.3366969 47 7.1709073 47 7 C 47 5.350001 45.605384 4 43.900391 4 L 19.099609 4 z"/>
</svg>
