<svg width="64" height="64" version="1.1" xmlns="http://www.w3.org/2000/svg">
 <rect x="49" y="32" width="10" height="9" style="opacity:.2"/>
 <rect x="49" y="31" width="10" height="9" style="fill:#6ec2f2"/>
 <rect x="4" y="31" width="9" height="15" style="opacity:.2"/>
 <rect x="8" y="13" width="48" height="46" rx="10" ry="10" style="opacity:.2"/>
 <rect x="8" y="12" width="48" height="46" rx="10" ry="10" style="fill:#e4e4e4"/>
 <rect x="17" y="4" width="14.666668" height="12" style="fill:#cf6e9f"/>
 <path d="m21.457363 18.976743h19.844961" style="fill:#f4f4f4"/>
 <path d="m18 8c-5.54 0-10 4.46-10 10v26c0 5.54 4.46 10 10 10h23l15-15v-21c0-5.54-4.46-10-10-10h-28z" style="fill:#e4e4e4"/>
 <rect x="8" y="12" width="48" height="46" rx="10" ry="10" style="fill:#e0e0e0"/>
 <rect x="4" y="30" width="9" height="15" style="fill:#ff935d"/>
 <rect x="52" y="18" width="8" height="15" style="opacity:.2"/>
 <rect x="52" y="17" width="8" height="15" style="fill:#8498fb"/>
 <path d="m39 42v4h13v-4zm0 5v4h13v-4z" style="fill:#f2e271"/>
 <path d="m18 9c-5.54 0-10 4.46-10 10v26c0 5.54 4.46 10 10 10h23.5l14.5-14.5v-21.5c0-5.54-4.46-10-10-10z" style="opacity:.2"/>
 <path d="m18 8c-5.54 0-10 4.46-10 10v26c0 5.54 4.46 10 10 10h23l15-15v-21c0-5.54-4.46-10-10-10z" style="fill:#e4e4e4"/>
 <path d="m21 17h21l2 4.5-14 17.5h14v6h-22l-2-4.5 15-17.5h-14z" style="fill:#f66364"/>
 <path d="m41 54 15-15h-5c-5.54 0-10 4.46-10 10z" style="fill:#f0f0f0"/>
 <path d="m18 8c-5.54 0-10 4.46-10 10v1c0-5.54 4.46-10 10-10h28c5.54 0 10 4.46 10 10v-1c0-5.54-4.46-10-10-10h-28z" style="fill:#ffffff;opacity:.2"/>
 <path d="m51 39c-5.54 0-10 4.46-10 10v1c0-5.54 4.46-10 10-10h4l1-1h-5z" style="fill:#ffffff;opacity:.2"/>
</svg>
