<?xml version="1.0" encoding="UTF-8" standalone="no"?>
<!--Created with Inkscape (http://www.inkscape.org/)-->
<svg id="svg4355" xmlns:rdf="http://www.w3.org/1999/02/22-rdf-syntax-ns#" xmlns="http://www.w3.org/2000/svg" height="22" width="22" version="1.1" xmlns:cc="http://creativecommons.org/ns#" xmlns:dc="http://purl.org/dc/elements/1.1/">
 <defs id="defs4357">
 </defs>
 <metadata id="metadata4360">
  <rdf:RDF>
   <cc:Work rdf:about="">
    <dc:format>image/svg+xml</dc:format>
    <dc:type rdf:resource="http://purl.org/dc/dcmitype/StillImage"/>
    <dc:title/>
   </cc:Work>
  </rdf:RDF>
 </metadata>
 <g id="layer1" transform="translate(-544.57 -742.93)">
  <path id="rect4194" opacity="1" fill="#d3dae3" transform="translate(544.57 742.93)" d="m14 5a3 3 0 0 0 -2.824 2h-7.176v2h7.174a3 3 0 0 0 2.826 2 3 3 0 0 0 2.824 -2h1.176v-2h-1.174a3 3 0 0 0 -2.826 -2zm-5 6a3 3 0 0 0 -2.8242 2h-2.1758v2h2.1738a3 3 0 0 0 2.8262 2 3 3 0 0 0 2.824 -2h6.176v-2h-6.174a3 3 0 0 0 -2.826 -2z"/>
 </g>
</svg>
