<svg height="22" width="22" xmlns="http://www.w3.org/2000/svg"><text opacity=".8" x="877.22626" y="8.8126011"><tspan x="877.22626" y="8.8126011"/></text><text opacity=".8" x="901.18719" y="-31.929106"><tspan x="901.18719" y="-31.929106"/></text><text opacity=".8" x="-569.37115" y="-62.007248"><tspan x="-569.37115" y="-62.007248"/></text><text opacity=".8" x="-2393.0571" y="683.5462"><tspan x="-2393.0571" y="683.5462"/></text><text opacity=".8" x="-454.88007" y="-447.32822"><tspan x="-454.88007" y="-447.32822"/></text><text opacity=".8" x="352.72208" y="-860.79834"><tspan x="352.72208" y="-860.79834"/></text><text opacity=".8" x="376.68301" y="-901.54004"><tspan x="376.68301" y="-901.54004"/></text><text opacity=".8" x="-1114.7802" y="-908.74994"><tspan x="-1114.7802" y="-908.74994"/></text><text opacity=".8" x="345.7626" y="-1181.9841"><tspan x="345.7626" y="-1181.9841"/></text><text opacity=".8" x="1831.8861" y="-555.29272"><tspan x="1831.8861" y="-555.29272"/></text><text opacity=".8" x="1855.8469" y="-596.03448"><tspan x="1855.8469" y="-596.03448"/></text><text opacity=".8" x="364.38376" y="-603.24438"><tspan x="364.38376" y="-603.24438"/></text><text opacity=".8" x="1824.9266" y="-876.47839"><tspan x="1824.9266" y="-876.47839"/></text><text opacity=".8" x="-573.43256" y="-651.33569"><tspan x="-573.43256" y="-651.33569"/></text><text opacity=".8" x="-2397.1182" y="94.217857"><tspan x="-2397.1182" y="94.217857"/></text><text opacity=".8" x="-682.36279" y="187.09"><tspan x="-682.36279" y="187.09"/></text><text opacity=".8" x="426.66153" y="7.9078522"><tspan x="426.66153" y="7.9078522"/></text><text opacity=".8" x="450.62247" y="-32.833855"><tspan x="450.62247" y="-32.833855"/></text><text opacity=".8" x="-1040.8407" y="-40.043827"><tspan x="-1040.8407" y="-40.043827"/></text><text opacity=".8" x="419.70206" y="-313.27789"><tspan x="419.70206" y="-313.27789"/></text><text opacity=".8" x="-608.03253" y="-42.758072"><tspan x="-608.03253" y="-42.758072"/></text><text opacity=".8" x="-2431.7185" y="702.79541"><tspan x="-2431.7185" y="702.79541"/></text><text opacity=".8" x="-456.93948" y="-904.28857"><tspan x="-456.93948" y="-904.28857"/></text><text opacity=".8" x="350.66266" y="-1317.7588"><tspan x="350.66266" y="-1317.7588"/></text><text opacity=".8" x="374.62357" y="-1358.5005"><tspan x="374.62357" y="-1358.5005"/></text><text opacity=".8" x="-1116.8396" y="-1365.7104"><tspan x="-1116.8396" y="-1365.7104"/></text><text opacity=".8" x="343.70316" y="-1638.9446"><tspan x="343.70316" y="-1638.9446"/></text><text opacity=".8" x="1829.8265" y="-1012.2533"><tspan x="1829.8265" y="-1012.2533"/></text><text opacity=".8" x="1853.7874" y="-1052.9949"><tspan x="1853.7874" y="-1052.9949"/></text><text opacity=".8" x="362.32431" y="-1060.2048"><tspan x="362.32431" y="-1060.2048"/></text><text opacity=".8" x="1822.8671" y="-1333.439"><tspan x="1822.8671" y="-1333.439"/></text><text opacity=".8" x="-575.492" y="-1108.2961"><tspan x="-575.492" y="-1108.2961"/></text><text opacity=".8" x="-2399.1777" y="-362.74261"><tspan x="-2399.1777" y="-362.74261"/></text><text opacity=".8" x="-684.42224" y="-269.87045"><tspan x="-684.42224" y="-269.87045"/></text><text opacity=".8" x="155.5923" y="-28.956278"><tspan x="155.5923" y="-28.956278"/></text><text opacity=".8" x="179.55324" y="-69.697998"><tspan x="179.55324" y="-69.697998"/></text><text opacity=".8" x="-1090.2634" y="-263.72662"><tspan x="-1090.2634" y="-263.72662"/></text><text opacity=".8" x="-282.66141" y="-677.19678"><tspan x="-282.66141" y="-677.19678"/></text><text opacity=".8" x="-258.70047" y="-717.93848"><tspan x="-258.70047" y="-717.93848"/></text><text opacity=".8" x="-1750.1636" y="-725.14838"><tspan x="-1750.1636" y="-725.14838"/></text><text opacity=".8" x="-289.62085" y="-998.38251"><tspan x="-289.62085" y="-998.38251"/></text><text opacity=".8" x="1196.5026" y="-371.69113"><tspan x="1196.5026" y="-371.69113"/></text><text opacity=".8" x="1220.4634" y="-412.43286"><tspan x="1220.4634" y="-412.43286"/></text><text opacity=".8" x="-270.99973" y="-419.64282"><tspan x="-270.99973" y="-419.64282"/></text><text opacity=".8" x="1189.5431" y="-692.87689"><tspan x="1189.5431" y="-692.87689"/></text><text opacity=".8" x="-1208.816" y="-467.7341"><tspan x="-1208.816" y="-467.7341"/></text><text opacity=".8" x="-3032.5017" y="277.81946"><tspan x="-3032.5017" y="277.81946"/></text><text opacity=".8" transform="matrix(.90475 0 0 .90475 -716.75 -678.29)" x="-664.2738" y="1159.4154"><tspan x="-664.2738" y="1159.4154"/></text><text opacity=".8" x="877.22626" y="16.050589"><tspan x="877.22626" y="16.050589"/></text><text opacity=".8" x="901.18719" y="-24.691116"><tspan x="901.18719" y="-24.691116"/></text><text opacity=".8" x="-569.37115" y="-54.76926"><tspan x="-569.37115" y="-54.76926"/></text><text opacity=".8" x="-2393.0571" y="690.78418"><tspan x="-2393.0571" y="690.78418"/></text><text opacity=".8" x="-454.88007" y="-440.09021"><tspan x="-454.88007" y="-440.09021"/></text><text opacity=".8" x="352.72208" y="-853.5603"><tspan x="352.72208" y="-853.5603"/></text><text opacity=".8" x="376.68301" y="-894.30206"><tspan x="376.68301" y="-894.30206"/></text><text opacity=".8" x="-1114.7802" y="-901.51196"><tspan x="-1114.7802" y="-901.51196"/></text><text opacity=".8" x="345.7626" y="-1174.7461"><tspan x="345.7626" y="-1174.7461"/></text><text opacity=".8" x="1831.8861" y="-548.05475"><tspan x="1831.8861" y="-548.05475"/></text><text opacity=".8" x="1855.8469" y="-588.79651"><tspan x="1855.8469" y="-588.79651"/></text><text opacity=".8" x="364.38376" y="-596.00641"><tspan x="364.38376" y="-596.00641"/></text><text opacity=".8" x="1824.9266" y="-869.24036"><tspan x="1824.9266" y="-869.24036"/></text><text opacity=".8" x="-573.43256" y="-644.09772"><tspan x="-573.43256" y="-644.09772"/></text><text opacity=".8" x="-2397.1182" y="101.45585"><tspan x="-2397.1182" y="101.45585"/></text><text opacity=".8" x="-682.36279" y="194.32799"><tspan x="-682.36279" y="194.32799"/></text><text opacity=".8" x="426.66153" y="15.14584"><tspan x="426.66153" y="15.14584"/></text><text opacity=".8" x="450.62247" y="-25.595865"><tspan x="450.62247" y="-25.595865"/></text><text opacity=".8" x="-1040.8407" y="-32.805836"><tspan x="-1040.8407" y="-32.805836"/></text><text opacity=".8" x="419.70206" y="-306.03989"><tspan x="419.70206" y="-306.03989"/></text><text opacity=".8" x="-608.03253" y="-35.520081"><tspan x="-608.03253" y="-35.520081"/></text><text opacity=".8" x="-2431.7185" y="710.03345"><tspan x="-2431.7185" y="710.03345"/></text><text opacity=".8" x="-456.93948" y="-897.0506"><tspan x="-456.93948" y="-897.0506"/></text><text opacity=".8" x="350.66266" y="-1310.5208"><tspan x="350.66266" y="-1310.5208"/></text><text opacity=".8" x="374.62357" y="-1351.2626"><tspan x="374.62357" y="-1351.2626"/></text><text opacity=".8" x="-1116.8396" y="-1358.4724"><tspan x="-1116.8396" y="-1358.4724"/></text><text opacity=".8" x="343.70316" y="-1631.7065"><tspan x="343.70316" y="-1631.7065"/></text><text opacity=".8" x="1829.8265" y="-1005.0153"><tspan x="1829.8265" y="-1005.0153"/></text><text opacity=".8" x="1853.7874" y="-1045.757"><tspan x="1853.7874" y="-1045.757"/></text><text opacity=".8" x="362.32431" y="-1052.9668"><tspan x="362.32431" y="-1052.9668"/></text><text opacity=".8" x="1822.8671" y="-1326.2009"><tspan x="1822.8671" y="-1326.2009"/></text><text opacity=".8" x="-575.492" y="-1101.0581"><tspan x="-575.492" y="-1101.0581"/></text><text opacity=".8" x="-2399.1777" y="-355.50461"><tspan x="-2399.1777" y="-355.50461"/></text><text opacity=".8" x="-684.42224" y="-262.63245"><tspan x="-684.42224" y="-262.63245"/></text><text opacity=".8" x="155.5923" y="-21.71829"><tspan x="155.5923" y="-21.71829"/></text><text opacity=".8" x="179.55324" y="-62.460011"><tspan x="179.55324" y="-62.460011"/></text><text opacity=".8" x="-1090.2634" y="-256.48859"><tspan x="-1090.2634" y="-256.48859"/></text><text opacity=".8" x="-282.66141" y="-669.9588"><tspan x="-282.66141" y="-669.9588"/></text><text opacity=".8" x="-258.70047" y="-710.7005"><tspan x="-258.70047" y="-710.7005"/></text><text opacity=".8" x="-1750.1636" y="-717.91046"><tspan x="-1750.1636" y="-717.91046"/></text><text opacity=".8" x="-289.62085" y="-991.14447"><tspan x="-289.62085" y="-991.14447"/></text><text opacity=".8" x="1196.5026" y="-364.45316"><tspan x="1196.5026" y="-364.45316"/></text><text opacity=".8" x="1220.4634" y="-405.19489"><tspan x="1220.4634" y="-405.19489"/></text><text opacity=".8" x="-270.99973" y="-412.40482"><tspan x="-270.99973" y="-412.40482"/></text><text opacity=".8" x="1189.5431" y="-685.63892"><tspan x="1189.5431" y="-685.63892"/></text><text opacity=".8" x="-1208.816" y="-460.49609"><tspan x="-1208.816" y="-460.49609"/></text><text opacity=".8" x="-3032.5017" y="285.05743"><tspan x="-3032.5017" y="285.05743"/></text><text opacity=".8" transform="matrix(.90475 0 0 .90475 -716.75 -671.05)" x="-664.2738" y="1159.4154"><tspan x="-664.2738" y="1159.4154"/></text><text x="435.90427" y="-363.22546"><tspan x="435.90427" y="-363.22546"/><tspan x="435.90427" y="-347.3924"/></text><text opacity=".8" x="901.0882" y="-845.27002"><tspan x="901.0882" y="-845.27002"/></text><text opacity=".8" x="-922.59778" y="-99.716553"><tspan x="-922.59778" y="-99.716553"/></text><text opacity=".8" x="1628.1677" y="-1130.2659"><tspan x="1628.1677" y="-1130.2659"/></text><text opacity=".8" x="1652.1285" y="-1171.0076"><tspan x="1652.1285" y="-1171.0076"/></text><text opacity=".8" x="160.66542" y="-1178.2175"><tspan x="160.66542" y="-1178.2175"/></text><text opacity=".8" x="1621.2083" y="-1451.4517"><tspan x="1621.2083" y="-1451.4517"/></text><text opacity=".8" x="1216.3293" y="-176.09953"><tspan x="1216.3293" y="-176.09953"/></text><text opacity=".8" x="1240.2903" y="-216.84123"><tspan x="1240.2903" y="-216.84123"/></text><text opacity=".8" x="-230.26811" y="-246.91937"><tspan x="-230.26811" y="-246.91937"/></text><text opacity=".8" x="-2053.9541" y="498.63406"><tspan x="-2053.9541" y="498.63406"/></text><text opacity=".8" x="-115.77702" y="-632.24036"><tspan x="-115.77702" y="-632.24036"/></text><text opacity=".8" x="691.82513" y="-1045.7104"><tspan x="691.82513" y="-1045.7104"/></text><text opacity=".8" x="715.78607" y="-1086.4521"><tspan x="715.78607" y="-1086.4521"/></text><text opacity=".8" x="-775.67712" y="-1093.6621"><tspan x="-775.67712" y="-1093.6621"/></text><text opacity=".8" x="684.86566" y="-1366.8962"><tspan x="684.86566" y="-1366.8962"/></text><text opacity=".8" x="2170.9893" y="-740.20483"><tspan x="2170.9893" y="-740.20483"/></text><text opacity=".8" x="2194.95" y="-780.94659"><tspan x="2194.95" y="-780.94659"/></text><text opacity=".8" x="703.48682" y="-788.15649"><tspan x="703.48682" y="-788.15649"/></text><text opacity=".8" x="2164.0298" y="-1061.3905"><tspan x="2164.0298" y="-1061.3905"/></text><text opacity=".8" x="-234.32951" y="-836.2478"><tspan x="-234.32951" y="-836.2478"/></text><text opacity=".8" x="-2058.0151" y="-90.694275"><tspan x="-2058.0151" y="-90.694275"/></text><text opacity=".8" x="-343.25977" y="2.1778665"><tspan x="-343.25977" y="2.1778665"/></text><text opacity=".8" x="765.76459" y="-177.00427"><tspan x="765.76459" y="-177.00427"/></text><text opacity=".8" x="789.72552" y="-217.74599"><tspan x="789.72552" y="-217.74599"/></text><text opacity=".8" x="-701.73767" y="-224.95596"><tspan x="-701.73767" y="-224.95596"/></text><text opacity=".8" x="758.80511" y="-498.19003"><tspan x="758.80511" y="-498.19003"/></text><text opacity=".8" x="-268.9295" y="-227.6702"><tspan x="-268.9295" y="-227.6702"/></text><text opacity=".8" x="-2092.6155" y="517.8833"><tspan x="-2092.6155" y="517.8833"/></text><text opacity=".8" x="-117.83644" y="-1089.2007"><tspan x="-117.83644" y="-1089.2007"/></text><text opacity=".8" x="689.76569" y="-1502.6709"><tspan x="689.76569" y="-1502.6709"/></text><text opacity=".8" x="713.72662" y="-1543.4126"><tspan x="713.72662" y="-1543.4126"/></text><text opacity=".8" x="-777.73657" y="-1550.6226"><tspan x="-777.73657" y="-1550.6226"/></text><text opacity=".8" x="682.80621" y="-1823.8567"><tspan x="682.80621" y="-1823.8567"/></text><text opacity=".8" x="2168.9297" y="-1197.1654"><tspan x="2168.9297" y="-1197.1654"/></text><text opacity=".8" x="2192.8904" y="-1237.907"><tspan x="2192.8904" y="-1237.907"/></text><text opacity=".8" x="701.42737" y="-1245.1169"><tspan x="701.42737" y="-1245.1169"/></text><text opacity=".8" x="2161.9702" y="-1518.3511"><tspan x="2161.9702" y="-1518.3511"/></text><text opacity=".8" x="-236.38896" y="-1293.2083"><tspan x="-236.38896" y="-1293.2083"/></text><text opacity=".8" x="-2060.0747" y="-547.65472"><tspan x="-2060.0747" y="-547.65472"/></text><text opacity=".8" x="-345.31921" y="-454.78259"><tspan x="-345.31921" y="-454.78259"/></text><text opacity=".8" x="494.69534" y="-213.86841"><tspan x="494.69534" y="-213.86841"/></text><text opacity=".8" x="518.65625" y="-254.61012"><tspan x="518.65625" y="-254.61012"/></text><text opacity=".8" x="-751.1604" y="-448.63876"><tspan x="-751.1604" y="-448.63876"/></text><text opacity=".8" x="56.441631" y="-862.10889"><tspan x="56.441631" y="-862.10889"/></text><text opacity=".8" x="80.402573" y="-902.85059"><tspan x="80.402573" y="-902.85059"/></text><text opacity=".8" x="-1411.0605" y="-910.06049"><tspan x="-1411.0605" y="-910.06049"/></text><text opacity=".8" x="49.482189" y="-1183.2947"><tspan x="49.482189" y="-1183.2947"/></text><text opacity=".8" x="1535.6056" y="-556.60327"><tspan x="1535.6056" y="-556.60327"/></text><text opacity=".8" x="1559.5664" y="-597.34497"><tspan x="1559.5664" y="-597.34497"/></text><text opacity=".8" x="68.103317" y="-604.55493"><tspan x="68.103317" y="-604.55493"/></text><text opacity=".8" x="1528.6461" y="-877.789"><tspan x="1528.6461" y="-877.789"/></text><text opacity=".8" x="-869.71301" y="-652.64624"><tspan x="-869.71301" y="-652.64624"/></text><text opacity=".8" x="-2693.3987" y="92.907326"><tspan x="-2693.3987" y="92.907326"/></text><text opacity=".8" transform="matrix(.90475 0 0 .90475 -377.64 -863.2)" x="-664.2738" y="1159.4154"><tspan x="-664.2738" y="1159.4154"/></text><text opacity=".8" x="1216.3293" y="-168.86154"><tspan x="1216.3293" y="-168.86154"/></text><text opacity=".8" x="1240.2903" y="-209.60324"><tspan x="1240.2903" y="-209.60324"/></text><text opacity=".8" x="-230.26811" y="-239.6814"><tspan x="-230.26811" y="-239.6814"/></text><text opacity=".8" x="-2053.9541" y="505.87204"><tspan x="-2053.9541" y="505.87204"/></text><text opacity=".8" x="-115.77702" y="-625.00232"><tspan x="-115.77702" y="-625.00232"/></text><text opacity=".8" x="691.82513" y="-1038.4724"><tspan x="691.82513" y="-1038.4724"/></text><text opacity=".8" x="715.78607" y="-1079.2142"><tspan x="715.78607" y="-1079.2142"/></text><text opacity=".8" x="-775.67712" y="-1086.4241"><tspan x="-775.67712" y="-1086.4241"/></text><text opacity=".8" x="684.86566" y="-1359.6582"><tspan x="684.86566" y="-1359.6582"/></text><text opacity=".8" x="2170.9893" y="-732.96686"><tspan x="2170.9893" y="-732.96686"/></text><text opacity=".8" x="2194.95" y="-773.70862"><tspan x="2194.95" y="-773.70862"/></text><text opacity=".8" x="703.48682" y="-780.91852"><tspan x="703.48682" y="-780.91852"/></text><text opacity=".8" x="2164.0298" y="-1054.1525"><tspan x="2164.0298" y="-1054.1525"/></text><text opacity=".8" x="-234.32951" y="-829.00983"><tspan x="-234.32951" y="-829.00983"/></text><text opacity=".8" x="-2058.0151" y="-83.456284"><tspan x="-2058.0151" y="-83.456284"/></text><text opacity=".8" x="-343.25977" y="9.4158573"><tspan x="-343.25977" y="9.4158573"/></text><text opacity=".8" x="765.76459" y="-169.7663"><tspan x="765.76459" y="-169.7663"/></text><text opacity=".8" x="789.72552" y="-210.508"><tspan x="789.72552" y="-210.508"/></text><text opacity=".8" x="-701.73767" y="-217.71797"><tspan x="-701.73767" y="-217.71797"/></text><text opacity=".8" x="758.80511" y="-490.95203"><tspan x="758.80511" y="-490.95203"/></text><text opacity=".8" x="-268.9295" y="-220.43221"><tspan x="-268.9295" y="-220.43221"/></text><text opacity=".8" x="-2092.6155" y="525.12134"><tspan x="-2092.6155" y="525.12134"/></text><text opacity=".8" x="-117.83644" y="-1081.9628"><tspan x="-117.83644" y="-1081.9628"/></text><text opacity=".8" x="689.76569" y="-1495.4329"><tspan x="689.76569" y="-1495.4329"/></text><text opacity=".8" x="713.72662" y="-1536.1747"><tspan x="713.72662" y="-1536.1747"/></text><text opacity=".8" x="-777.73657" y="-1543.3845"><tspan x="-777.73657" y="-1543.3845"/></text><text opacity=".8" x="682.80621" y="-1816.6187"><tspan x="682.80621" y="-1816.6187"/></text><text opacity=".8" x="2168.9297" y="-1189.9275"><tspan x="2168.9297" y="-1189.9275"/></text><text opacity=".8" x="2192.8904" y="-1230.6691"><tspan x="2192.8904" y="-1230.6691"/></text><text opacity=".8" x="701.42737" y="-1237.8789"><tspan x="701.42737" y="-1237.8789"/></text><text opacity=".8" x="2161.9702" y="-1511.113"><tspan x="2161.9702" y="-1511.113"/></text><text opacity=".8" x="-236.38896" y="-1285.9702"><tspan x="-236.38896" y="-1285.9702"/></text><text opacity=".8" x="-2060.0747" y="-540.41675"><tspan x="-2060.0747" y="-540.41675"/></text><text opacity=".8" x="-345.31921" y="-447.54459"><tspan x="-345.31921" y="-447.54459"/></text><text opacity=".8" x="494.69534" y="-206.63042"><tspan x="494.69534" y="-206.63042"/></text><text opacity=".8" x="518.65625" y="-247.37215"><tspan x="518.65625" y="-247.37215"/></text><text opacity=".8" x="-751.1604" y="-441.40073"><tspan x="-751.1604" y="-441.40073"/></text><text opacity=".8" x="56.441631" y="-854.87091"><tspan x="56.441631" y="-854.87091"/></text><text opacity=".8" x="80.402573" y="-895.61261"><tspan x="80.402573" y="-895.61261"/></text><text opacity=".8" x="-1411.0605" y="-902.82257"><tspan x="-1411.0605" y="-902.82257"/></text><text opacity=".8" x="49.482189" y="-1176.0566"><tspan x="49.482189" y="-1176.0566"/></text><text opacity=".8" x="1535.6056" y="-549.3653"><tspan x="1535.6056" y="-549.3653"/></text><text opacity=".8" x="1559.5664" y="-590.10699"><tspan x="1559.5664" y="-590.10699"/></text><text opacity=".8" x="68.103317" y="-597.31696"><tspan x="68.103317" y="-597.31696"/></text><text opacity=".8" x="1528.6461" y="-870.55103"><tspan x="1528.6461" y="-870.55103"/></text><text opacity=".8" x="-869.71301" y="-645.4082"><tspan x="-869.71301" y="-645.4082"/></text><text opacity=".8" x="-2693.3987" y="100.1453"><tspan x="-2693.3987" y="100.1453"/></text><text opacity=".8" transform="matrix(.90475 0 0 .90475 -377.64 -855.96)" x="-664.2738" y="1159.4154"><tspan x="-664.2738" y="1159.4154"/></text><text x="775.00732" y="-548.13757"><tspan x="775.00732" y="-548.13757"/><tspan x="775.00732" y="-532.3045"/></text><text opacity=".8" x="1240.1913" y="-1030.1821"><tspan x="1240.1913" y="-1030.1821"/></text><text opacity=".8" x="-583.49475" y="-284.62869"><tspan x="-583.49475" y="-284.62869"/></text><text opacity=".8" x="1967.2708" y="-1315.178"><tspan x="1967.2708" y="-1315.178"/></text><text opacity=".8" x="1991.2316" y="-1355.9197"><tspan x="1991.2316" y="-1355.9197"/></text><text opacity=".8" x="499.76846" y="-1363.1296"><tspan x="499.76846" y="-1363.1296"/></text><text opacity=".8" x="1960.3113" y="-1636.3638"><tspan x="1960.3113" y="-1636.3638"/></text><text opacity=".8" x="1155.0768" y="-177.09457"><tspan x="1155.0768" y="-177.09457"/></text><text opacity=".8" x="1179.0377" y="-217.83629"><tspan x="1179.0377" y="-217.83629"/></text><text opacity=".8" x="-291.52063" y="-247.91443"><tspan x="-291.52063" y="-247.91443"/></text><text opacity=".8" x="-2115.2065" y="497.63901"><tspan x="-2115.2065" y="497.63901"/></text><text opacity=".8" x="-177.02953" y="-633.23541"><tspan x="-177.02953" y="-633.23541"/></text><text opacity=".8" x="630.57263" y="-1046.7056"><tspan x="630.57263" y="-1046.7056"/></text><text opacity=".8" x="654.53357" y="-1087.4473"><tspan x="654.53357" y="-1087.4473"/></text><text opacity=".8" x="-836.92957" y="-1094.6571"><tspan x="-836.92957" y="-1094.6571"/></text><text opacity=".8" x="623.61316" y="-1367.8912"><tspan x="623.61316" y="-1367.8912"/></text><text opacity=".8" x="2109.7368" y="-741.19989"><tspan x="2109.7368" y="-741.19989"/></text><text opacity=".8" x="2133.6975" y="-781.94165"><tspan x="2133.6975" y="-781.94165"/></text><text opacity=".8" x="642.23431" y="-789.15155"><tspan x="642.23431" y="-789.15155"/></text><text opacity=".8" x="2102.7773" y="-1062.3856"><tspan x="2102.7773" y="-1062.3856"/></text><text opacity=".8" x="-295.58203" y="-837.24286"><tspan x="-295.58203" y="-837.24286"/></text><text opacity=".8" x="-2119.2676" y="-91.689323"><tspan x="-2119.2676" y="-91.689323"/></text><text opacity=".8" x="-404.51227" y="1.1828101"><tspan x="-404.51227" y="1.1828101"/></text><text opacity=".8" x="704.51208" y="-177.99933"><tspan x="704.51208" y="-177.99933"/></text><text opacity=".8" x="728.47302" y="-218.74103"><tspan x="728.47302" y="-218.74103"/></text><text opacity=".8" x="-762.99011" y="-225.951"><tspan x="-762.99011" y="-225.951"/></text><text opacity=".8" x="697.55261" y="-499.18509"><tspan x="697.55261" y="-499.18509"/></text><text opacity=".8" x="-330.18201" y="-228.66525"><tspan x="-330.18201" y="-228.66525"/></text><text opacity=".8" x="-2153.8679" y="516.88824"><tspan x="-2153.8679" y="516.88824"/></text><text opacity=".8" x="-179.08891" y="-1090.1958"><tspan x="-179.08891" y="-1090.1958"/></text><text opacity=".8" x="628.51324" y="-1503.6659"><tspan x="628.51324" y="-1503.6659"/></text><text opacity=".8" x="652.47412" y="-1544.4076"><tspan x="652.47412" y="-1544.4076"/></text><text opacity=".8" x="-838.98901" y="-1551.6176"><tspan x="-838.98901" y="-1551.6176"/></text><text opacity=".8" x="621.55371" y="-1824.8517"><tspan x="621.55371" y="-1824.8517"/></text><text opacity=".8" x="2107.6772" y="-1198.1605"><tspan x="2107.6772" y="-1198.1605"/></text><text opacity=".8" x="2131.6379" y="-1238.902"><tspan x="2131.6379" y="-1238.902"/></text><text opacity=".8" x="640.17487" y="-1246.1119"><tspan x="640.17487" y="-1246.1119"/></text><text opacity=".8" x="2100.7178" y="-1519.3461"><tspan x="2100.7178" y="-1519.3461"/></text><text opacity=".8" x="-297.64148" y="-1294.2032"><tspan x="-297.64148" y="-1294.2032"/></text><text opacity=".8" x="-2121.3271" y="-548.64978"><tspan x="-2121.3271" y="-548.64978"/></text><text opacity=".8" x="-406.57172" y="-455.77765"><tspan x="-406.57172" y="-455.77765"/></text><text opacity=".8" x="433.44287" y="-214.86346"><tspan x="433.44287" y="-214.86346"/></text><text opacity=".8" x="457.40381" y="-255.60518"><tspan x="457.40381" y="-255.60518"/></text><text opacity=".8" x="-812.41284" y="-449.63382"><tspan x="-812.41284" y="-449.63382"/></text><text opacity=".8" x="-4.8108392" y="-863.10394"><tspan x="-4.8108392" y="-863.10394"/></text><text opacity=".8" x="19.150099" y="-903.84564"><tspan x="19.150099" y="-903.84564"/></text><text opacity=".8" x="-1472.313" y="-911.05554"><tspan x="-1472.313" y="-911.05554"/></text><text opacity=".8" x="-11.770282" y="-1184.2897"><tspan x="-11.770282" y="-1184.2897"/></text><text opacity=".8" x="1474.3531" y="-557.59833"><tspan x="1474.3531" y="-557.59833"/></text><text opacity=".8" x="1498.314" y="-598.34003"><tspan x="1498.314" y="-598.34003"/></text><text opacity=".8" x="6.850843" y="-605.54999"><tspan x="6.850843" y="-605.54999"/></text><text opacity=".8" x="1467.3937" y="-878.78406"><tspan x="1467.3937" y="-878.78406"/></text><text opacity=".8" x="-930.96545" y="-653.6413"><tspan x="-930.96545" y="-653.6413"/></text><text opacity=".8" x="-2754.6511" y="91.91227"><tspan x="-2754.6511" y="91.91227"/></text><text opacity=".8" x="-1039.8958" y="184.78438"><tspan x="-1039.8958" y="184.78438"/></text><text opacity=".8" x="1155.0768" y="-169.8566"><tspan x="1155.0768" y="-169.8566"/></text><text opacity=".8" x="1179.0377" y="-210.5983"><tspan x="1179.0377" y="-210.5983"/></text><text opacity=".8" x="-291.52063" y="-240.67644"><tspan x="-291.52063" y="-240.67644"/></text><text opacity=".8" x="-2115.2065" y="504.87698"><tspan x="-2115.2065" y="504.87698"/></text><text opacity=".8" x="-177.02953" y="-625.99738"><tspan x="-177.02953" y="-625.99738"/></text><text opacity=".8" x="630.57263" y="-1039.4675"><tspan x="630.57263" y="-1039.4675"/></text><text opacity=".8" x="654.53357" y="-1080.2092"><tspan x="654.53357" y="-1080.2092"/></text><text opacity=".8" x="-836.92957" y="-1087.4192"><tspan x="-836.92957" y="-1087.4192"/></text><text opacity=".8" x="623.61316" y="-1360.6532"><tspan x="623.61316" y="-1360.6532"/></text><text opacity=".8" x="2109.7368" y="-733.96191"><tspan x="2109.7368" y="-733.96191"/></text><text opacity=".8" x="2133.6975" y="-774.70367"><tspan x="2133.6975" y="-774.70367"/></text><text opacity=".8" x="642.23431" y="-781.91357"><tspan x="642.23431" y="-781.91357"/></text><text opacity=".8" x="2102.7773" y="-1055.1476"><tspan x="2102.7773" y="-1055.1476"/></text><text opacity=".8" x="-295.58203" y="-830.00488"><tspan x="-295.58203" y="-830.00488"/></text><text opacity=".8" x="-2119.2676" y="-84.451332"><tspan x="-2119.2676" y="-84.451332"/></text><text opacity=".8" x="-404.51227" y="8.4208012"><tspan x="-404.51227" y="8.4208012"/></text><text opacity=".8" x="704.51208" y="-170.76134"><tspan x="704.51208" y="-170.76134"/></text><text opacity=".8" x="728.47302" y="-211.50305"><tspan x="728.47302" y="-211.50305"/></text><text opacity=".8" x="-762.99011" y="-218.71301"><tspan x="-762.99011" y="-218.71301"/></text><text opacity=".8" x="697.55261" y="-491.94708"><tspan x="697.55261" y="-491.94708"/></text><text opacity=".8" x="-330.18201" y="-221.42726"><tspan x="-330.18201" y="-221.42726"/></text><text opacity=".8" x="-2153.8679" y="524.12628"><tspan x="-2153.8679" y="524.12628"/></text><text opacity=".8" x="-179.08891" y="-1082.9578"><tspan x="-179.08891" y="-1082.9578"/></text><text opacity=".8" x="628.51324" y="-1496.4279"><tspan x="628.51324" y="-1496.4279"/></text><text opacity=".8" x="652.47412" y="-1537.1697"><tspan x="652.47412" y="-1537.1697"/></text><text opacity=".8" x="-838.98901" y="-1544.3795"><tspan x="-838.98901" y="-1544.3795"/></text><text opacity=".8" x="621.55371" y="-1817.6136"><tspan x="621.55371" y="-1817.6136"/></text><text opacity=".8" x="2107.6772" y="-1190.9225"><tspan x="2107.6772" y="-1190.9225"/></text><text opacity=".8" x="2131.6379" y="-1231.6641"><tspan x="2131.6379" y="-1231.6641"/></text><text opacity=".8" x="640.17487" y="-1238.8739"><tspan x="640.17487" y="-1238.8739"/></text><text opacity=".8" x="2100.7178" y="-1512.108"><tspan x="2100.7178" y="-1512.108"/></text><text opacity=".8" x="-297.64148" y="-1286.9652"><tspan x="-297.64148" y="-1286.9652"/></text><text opacity=".8" x="-2121.3271" y="-541.4118"><tspan x="-2121.3271" y="-541.4118"/></text><text opacity=".8" x="-406.57172" y="-448.53964"><tspan x="-406.57172" y="-448.53964"/></text><text opacity=".8" x="433.44287" y="-207.62547"><tspan x="433.44287" y="-207.62547"/></text><text opacity=".8" x="457.40381" y="-248.36719"><tspan x="457.40381" y="-248.36719"/></text><text opacity=".8" x="-812.41284" y="-442.39578"><tspan x="-812.41284" y="-442.39578"/></text><text opacity=".8" x="-4.8108392" y="-855.86597"><tspan x="-4.8108392" y="-855.86597"/></text><text opacity=".8" x="19.150099" y="-896.60767"><tspan x="19.150099" y="-896.60767"/></text><text opacity=".8" x="-1472.313" y="-903.81763"><tspan x="-1472.313" y="-903.81763"/></text><text opacity=".8" x="-11.770282" y="-1177.0516"><tspan x="-11.770282" y="-1177.0516"/></text><text opacity=".8" x="1474.3531" y="-550.36035"><tspan x="1474.3531" y="-550.36035"/></text><text opacity=".8" x="1498.314" y="-591.10205"><tspan x="1498.314" y="-591.10205"/></text><text opacity=".8" x="6.850843" y="-598.31201"><tspan x="6.850843" y="-598.31201"/></text><text opacity=".8" x="1467.3937" y="-871.54608"><tspan x="1467.3937" y="-871.54608"/></text><text opacity=".8" x="-930.96545" y="-646.40326"><tspan x="-930.96545" y="-646.40326"/></text><text opacity=".8" x="-2754.6511" y="99.150253"><tspan x="-2754.6511" y="99.150253"/></text><text opacity=".8" x="-1039.8958" y="192.02238"><tspan x="-1039.8958" y="192.02238"/></text><text x="713.75482" y="-549.13263"><tspan x="713.75482" y="-549.13263"/><tspan x="713.75482" y="-533.29956"/></text><text opacity=".8" x="1178.9387" y="-1031.1772"><tspan x="1178.9387" y="-1031.1772"/></text><text opacity=".8" x="-644.74725" y="-285.62372"><tspan x="-644.74725" y="-285.62372"/></text><text opacity=".8" x="1906.0183" y="-1316.173"><tspan x="1906.0183" y="-1316.173"/></text><text opacity=".8" x="1929.9791" y="-1356.9147"><tspan x="1929.9791" y="-1356.9147"/></text><text opacity=".8" x="438.51599" y="-1364.1246"><tspan x="438.51599" y="-1364.1246"/></text><text opacity=".8" x="1899.0588" y="-1637.3588"><tspan x="1899.0588" y="-1637.3588"/></text><g transform="matrix(.50255781 0 0 .50255781 -1.0203268 -1.6151014)"><path d="m10 22.188c-1.108 0-2 .892-2 2v10c0 1.108.892 2 2 2 1.108 0 2-.892 2-2v-10c0-1.108-.892-2-2-2z" fill="#93b133"/><path d="m38 22.188c-1.108 0-2 .892-2 2v10c0 1.108.892 2 2 2 1.108 0 2-.892 2-2v-10c0-1.108-.892-2-2-2z" fill="#93b133"/><path d="m18.139 5.2129c-.129-.0178-.263-.0105-.397.0254-.535.1434-.85.6895-.707 1.2246l1.264 4.7151c-6.294 3.021-6.299 10.822-6.299 10.822v12.732c0 2.364 1.784 4.268 4 4.268h2v4c0 1.108.892 2 2 2 1.108 0 2-.892 2-2v-4h4v4c0 1.108.892 2 2 2 1.108 0 2-.892 2-2v-4h2c2.216 0 4-1.904 4-4.268v-12.732c0 0-.005-7.801-6.299-10.822l1.264-4.7151c.143-.5351-.172-1.0812-.707-1.2246-.535-.1434-1.081.1719-1.225.707l-1.215 4.5347c-1.115-.304-2.378-.48-3.818-.48-1.44 0-2.703.176-3.818.48l-1.215-4.5347c-.108-.4013-.442-.6791-.828-.7324z" fill="#a4c639"/><path d="m14.5 22h19c .277 0 .5.223.5.5 0 .277-.223.5-.5.5h-19c-.277 0-.5-.223-.5-.5 0-.277.223-.5.5-.5z" fill="#fff"/><circle cx="18" cy="17" fill="#fff" r="1"/><circle cx="30" cy="17" fill="#fff" r="1"/><path d="m18.139 5.2129c-.129-.0178-.263-.0105-.397.0254-.535.1434-.85.6895-.707 1.2246l.08008.29688c.1233-.24649.33853-.4442.62695-.52148.13378-.035846.26778-.043154.39648-.025391.3861.053291.72059.33108.82812.73242l1.2148 4.5352c1.116-.305 2.379-.481 3.819-.481 1.4401 0 2.7032.17631 3.8184.48047l1.2148-4.5352c.14339-.53512.68949-.85042 1.2246-.70703.28842.077283.50365.27499.62695.52148l.08008-.29688c.143-.5345-.172-1.0806-.707-1.224-.535-.1434-1.081.1719-1.225.707l-1.215 4.5347c-1.115-.304-2.378-.48-3.818-.48-1.4401 0-2.7032.17631-3.8184.48047l-1.215-4.5347c-.108-.4013-.442-.6791-.828-.7324zm-.07227 6.0957c-6.049 3.103-6.067 10.691-6.067 10.691v1c0 0 .0052-7.8011 6.2988-10.822l-.23242-.86914zm11.867 0l-.23242.86914c6.293 3.021 6.298 10.822 6.298 10.822v-1c0 0-.01752-7.5881-6.0664-10.691zm-19.934 10.879c-1.108 0-2 .892-2 2v1c0-1.108.892-2 2-2 1.108 0 2 .892 2 2v-1c0-1.108-.892-2-2-2zm28 0c-1.108 0-2 .892-2 2v1c0-1.108.892-2 2-2 1.108 0 2 .892 2 2v-1c0-1.108-.892-2-2-2z" fill="#fff" opacity=".2"/><path d="m30.885 5.7598c-20.59 28.16-10.295 14.08 0 0zm-22.885 27.428v1c0 1.108.892 2 2 2 1.108 0 2-.892 2-2v .54492c0 2.363 1.784 4.267 4 4.267h2v-1h-2c-2.216 0-4-1.9038-4-4.2676v-.544c0 1.108-.892 2-2 2-1.108 0-2-.892-2-2zm28 0v .54492c0 2.363-1.784 4.267-4 4.267h-2v1h2c2.216 0 4-1.9038 4-4.2676v-.544c0 1.108.892 2 2 2 1.108 0 2-.892 2-2v-1c0 1.108-.892 2-2 2-1.108 0-2-.892-2-2zm-14 4.812v1h4v-1zm-4 4v1c0 1.108.892 2 2 2 1.108 0 2-.892 2-2v-1c0 1.108-.892 2-2 2-1.108 0-2-.892-2-2zm8 0v1c0 1.108.892 2 2 2 1.108 0 2-.892 2-2v-1c0 1.108-.892 2-2 2-1.108 0-2-.892-2-2z" opacity=".3"/></g></svg>