<?xml version="1.0" encoding="UTF-8" standalone="no"?>
<!-- Created with Inkscape (http://www.inkscape.org/) -->

<svg
   xmlns:dc="http://purl.org/dc/elements/1.1/"
   xmlns:cc="http://creativecommons.org/ns#"
   xmlns:rdf="http://www.w3.org/1999/02/22-rdf-syntax-ns#"
   xmlns:svg="http://www.w3.org/2000/svg"
   xmlns="http://www.w3.org/2000/svg"
   xmlns:sodipodi="http://sodipodi.sourceforge.net/DTD/sodipodi-0.dtd"
   xmlns:inkscape="http://www.inkscape.org/namespaces/inkscape"
   id="svg4346"
   height="22"
   viewBox="0 0 44 44.000001"
   width="22"
   version="1.1"
   inkscape:version="0.91 r13725"
   sodipodi:docname="application-x-deb.svg">
  <defs
     id="defs13" />
  <sodipodi:namedview
     pagecolor="#ffffff"
     bordercolor="#666666"
     borderopacity="1"
     objecttolerance="10"
     gridtolerance="10"
     guidetolerance="10"
     inkscape:pageopacity="0"
     inkscape:pageshadow="2"
     inkscape:window-width="1600"
     inkscape:window-height="849"
     id="namedview11"
     showgrid="false"
     inkscape:zoom="2.16"
     inkscape:cx="-168.26852"
     inkscape:cy="12"
     inkscape:window-x="0"
     inkscape:window-y="0"
     inkscape:window-maximized="1"
     inkscape:current-layer="svg4346" />
  <metadata
     id="metadata4351">
    <rdf:RDF>
      <cc:Work
         rdf:about="">
        <dc:format>image/svg+xml</dc:format>
        <dc:type
           rdf:resource="http://purl.org/dc/dcmitype/StillImage" />
        <dc:title></dc:title>
      </cc:Work>
    </rdf:RDF>
  </metadata>
  <g
     id="g4137"
     transform="translate(-2,2)">
    <rect
       style="fill:#f9548f"
       x="-40"
       y="-44"
       width="40"
       height="40"
       transform="matrix(0,-1,-1,0,0,0)"
       rx="2"
       ry="2"
       id="rect4203" />
    <path
       style="opacity:0.2;fill:#ffffff"
       inkscape:connector-curvature="0"
       d="M 6,0 C 4.892,0 4,0.892 4,2 L 4,3 C 4,1.892 4.892,1 6,1 l 36,0 c 1.108,0 2,0.892 2,2 L 44,2 C 44,0.892 43.108,0 42,0 L 6,0 Z"
       id="rect4592" />
    <path
       style="opacity:0.3"
       inkscape:connector-curvature="0"
       d="M 6,40 C 4.892,40 4,39.108 4,38 l 0,-1 c 0,1.108 0.892,2 2,2 l 36,0 c 1.108,0 2,-0.892 2,-2 l 0,1 c 0,1.108 -0.892,2 -2,2 L 6,40 Z"
       id="path4597" />
    <path
       id="path4152"
       d="m 31.676,18.983915 c 0.02502,0.755531 -0.19601,1.122668 -0.39592,1.771824 l -0.3595,0.201079 c -0.29388,0.642317 0.02918,0.407779 -0.18128,0.918445 -0.45931,0.458759 -1.3918,1.435077 -1.6904,1.52446 -0.21825,-0.0054 0.14764,-0.289579 0.19546,-0.400586 -0.61418,0.474073 -0.49295,0.711745 -1.4324,1.000376 l -0.02724,-0.06912 c -2.316,1.225835 -5.5334,-1.203006 -5.4911,-4.51652 -0.02447,0.210146 -0.07035,0.157615 -0.1215,0.242044 -0.11955,-1.704626 0.70009,-3.416789 2.0825,-4.116882 1.3521,-0.752398 2.9371,-0.44406 3.905,0.571963 -0.5316,-0.783671 -1.5906,-1.614597 -2.8448,-1.537598 -1.2292,0.02252 -2.3794,0.900935 -2.7631,1.855068 -0.62947,0.445622 -0.70287,1.718733 -0.97701,1.95199 -0.36951,3.052151 0.69425,4.370169 2.494,5.921659 0.28248,0.214519 0.07952,0.247364 0.11733,0.410601 -0.59777,-0.314595 -1.1449,-0.789928 -1.5954,-1.371864 0.23911,0.393091 0.49684,0.775229 0.83021,1.075436 -0.56413,-0.214206 -1.3173,-1.536414 -1.5367,-1.590151 0.97172,1.956943 3.9419,3.432081 5.4981,2.700005 -0.72011,0.03001 -1.6346,0.01656 -2.4431,-0.319592 -0.34059,-0.196707 -0.80184,-0.603549 -0.71927,-0.679535 2.1231,0.891555 4.3156,0.67484 6.1523,-0.980992 0.46765,-0.409663 0.97812,-1.106084 1.1258,-1.115453 -0.22215,0.375881 0.03808,0.180747 -0.13262,0.51254 0.46487,-0.844645 -0.20269,-0.343983 0.481,-1.458554 l 0.25245,0.390894 c -0.09453,-0.701741 0.77432,-1.552998 0.68591,-2.661883 0.19935,-0.338986 0.22215,0.365253 0.01084,1.145176 0.29333,-0.865289 0.07757,-1.004446 0.15264,-1.718733 0.08091,0.240171 0.18851,0.49503 0.24328,0.74864 -0.19129,-0.836515 0.19546,-1.408155 0.29166,-1.894483 -0.09508,-0.04691 -0.29499,0.369635 -0.34115,-0.617926 0.007,-0.429047 0.10649,-0.224846 0.14458,-0.330543 -0.07452,-0.04847 -0.27108,-0.377454 -0.39036,-1.008194 0.08591,-0.148537 0.23132,0.384324 0.34921,0.405905 -0.07591,-0.501286 -0.2063,-0.883737 -0.21186,-1.268696 -0.34476,-0.809937 -0.12206,0.108207 -0.4012,-0.347742 -0.367,-1.286465 0.30417,-0.298646 0.34977,-0.8828 0.55551,0.905318 0.87219,2.309413 1.0182,2.890723 -0.11122,-0.708923 -0.29055,-1.395985 -0.50991,-2.060433 0.16932,0.08036 -0.27219,-1.458231 0.21992,-0.439364 -0.5252,-2.171785 -2.2459,-4.201312 -3.8293,-5.153291 0.19323,0.199205 0.43762,0.449369 0.35032,0.488772 C 29.44342,8.643653 29.58188,8.602063 29.469,8.379403 28.82814,8.085765 28.78532,8.403483 28.3613,8.380029 27.1519,7.658285 26.9189,7.734896 25.8059,7.283319 l 0.05061,0.266436 c -0.80101,-0.300208 -0.93336,0.113204 -1.7989,6.26e-4 -0.05255,-0.04595 0.27748,-0.16762 0.54939,-0.211708 -0.7746,0.115077 -0.73845,-0.171992 -1.4964,0.03158 0.18656,-0.147287 0.38452,-0.245167 0.58359,-0.37026 -0.63141,0.04315 -1.508,0.413412 -1.2375,0.0763 -1.0301,0.517236 -2.8598,1.243066 -3.8866,2.325997 L 18.53784,9.159622 c -0.47043,0.635123 -2.0516,1.896959 -2.1776,2.720357 l -0.12595,0.03284 c -0.24439,0.466266 -0.40315,0.994442 -0.59722,1.473846 -0.32002,0.613865 -0.46932,0.236412 -0.42372,0.33273 -0.63,1.436585 -0.943,2.642713 -1.213,3.633461 0.1924,0.323663 0.0048,1.948867 0.07729,3.249439 -0.31584,6.424464 4.0087,12.661117 8.7358,14.100933 0.69286,0.279262 1.723,0.269246 2.5993,0.296772 -1.0337,-0.33273 -1.1672,-0.176062 -2.1748,-0.571016 -0.7265,-0.385271 -0.88554,-0.824636 -1.4005,-1.327172 l 0.2038,0.404969 c -1.009,-0.402761 -0.587,-0.497528 -1.408,-0.790445 l 0.2177,-0.319279 c -0.32725,-0.02815 -0.86663,-0.61981 -1.014,-0.94847 l -0.35811,0.01595 c -0.42984,-0.596042 -0.65922,-1.026652 -0.64226,-1.36034 l -0.11566,0.23204 c -0.132,-0.253072 -1.583,-2.238876 -0.83,-1.775809 -0.14,-0.143228 -0.326,-0.233687 -0.527,-0.64614 l 0.1532,-0.196696 c -0.36172,-0.524429 -0.66672,-1.196436 -0.64337,-1.420324 0.19323,0.293326 0.32725,0.348367 0.46014,0.398712 -0.915,-2.553008 -0.96644,-0.140407 -1.659,-2.598668 l 0.14624,-0.01313 c -0.11205,-0.191089 -0.18072,-0.397165 -0.2708,-0.600117 l 0.06395,-0.714556 c -0.658,-0.855059 -0.184,-3.641 -0.089,-5.169121 0.066,-0.620295 0.55,-1.282589 0.918,-2.319644 l -0.22409,-0.04315 c 0.42873,-0.840585 2.4472,-3.377052 3.3825,-3.246962 0.45292,-0.639819 -0.09009,-0.0025 -0.17878,-0.163237 0.99508,-1.15799 1.3079,-0.818067 1.9793,-1.026652 0.72372,-0.483151 -0.6214,0.188878 -0.27831,-0.184193 1.252,-0.359318 0.88692,-0.817442 2.5198,-0.999751 0.17238,0.110081 -0.39953,0.170118 -0.543,0.313033 1.0426,-0.574149 3.3,-0.443122 4.7669,0.318343 1.7007,0.894689 3.6128,3.538048 3.6884,6.025149 l 0.08591,0.02594 c -0.04337,0.98881 0.13457,2.13237 -0.17432,3.182563 l 0.2088,-0.497528"
       inkscape:connector-curvature="0"
       style="opacity:0.2;fill:#000000;fill-opacity:1" />
    <path
       style="fill:#ffffff"
       inkscape:connector-curvature="0"
       d="m 31.676,17.983912 c 0.02502,0.755531 -0.19601,1.122668 -0.39592,1.771824 l -0.3595,0.201079 c -0.29388,0.642317 0.02918,0.407779 -0.18128,0.918445 -0.45931,0.458759 -1.3918,1.435077 -1.6904,1.52446 -0.21825,-0.0054 0.14764,-0.289579 0.19546,-0.400586 -0.61418,0.474073 -0.49295,0.711745 -1.4324,1.000376 l -0.02724,-0.06912 c -2.316,1.225835 -5.5334,-1.203006 -5.4911,-4.51652 -0.02447,0.210146 -0.07035,0.157615 -0.1215,0.242044 -0.11955,-1.704626 0.70009,-3.416789 2.0825,-4.116882 1.3521,-0.752398 2.9371,-0.44406 3.905,0.571963 -0.5316,-0.783671 -1.5906,-1.614597 -2.8448,-1.537598 -1.2292,0.02252 -2.3794,0.900935 -2.7631,1.855068 -0.62947,0.445622 -0.70287,1.718733 -0.97701,1.95199 -0.36951,3.052151 0.69425,4.370169 2.494,5.921659 0.28248,0.214519 0.07952,0.247364 0.11733,0.410601 -0.59777,-0.314595 -1.1449,-0.789928 -1.5954,-1.371864 0.23911,0.393091 0.49684,0.775229 0.83021,1.075436 -0.56413,-0.214206 -1.3173,-1.536414 -1.5367,-1.590151 0.97172,1.956943 3.9419,3.432081 5.4981,2.700005 -0.72011,0.03001 -1.6346,0.01656 -2.4431,-0.319592 -0.34059,-0.196707 -0.80184,-0.603549 -0.71927,-0.679535 2.1231,0.891555 4.3156,0.67484 6.1523,-0.980992 0.46765,-0.409663 0.97812,-1.106084 1.1258,-1.115453 -0.22215,0.375881 0.03808,0.180747 -0.13262,0.51254 0.46487,-0.844645 -0.20269,-0.343983 0.481,-1.458554 l 0.25245,0.390894 c -0.09453,-0.701741 0.77432,-1.552998 0.68591,-2.661883 0.19935,-0.338986 0.22215,0.365253 0.01084,1.145176 0.29333,-0.865289 0.07757,-1.004446 0.15264,-1.718733 0.08091,0.240171 0.18851,0.49503 0.24328,0.74864 -0.19129,-0.836515 0.19546,-1.408155 0.29166,-1.894483 -0.09508,-0.04691 -0.29499,0.369635 -0.34115,-0.617926 0.007,-0.429047 0.10649,-0.224846 0.14458,-0.330543 -0.07452,-0.04847 -0.27108,-0.377454 -0.39036,-1.008194 0.08591,-0.148537 0.23132,0.384324 0.34921,0.405905 -0.07591,-0.501286 -0.2063,-0.883737 -0.21186,-1.268696 -0.34476,-0.809937 -0.12206,0.108207 -0.4012,-0.347742 -0.367,-1.286465 0.30417,-0.298646 0.34977,-0.8828 0.55551,0.905318 0.87219,2.309413 1.0182,2.890723 -0.11122,-0.708923 -0.29055,-1.395985 -0.50991,-2.060433 0.16932,0.08036 -0.27219,-1.458231 0.21992,-0.439364 -0.5252,-2.171785 -2.2459,-4.201312 -3.8293,-5.153291 0.19323,0.199205 0.43762,0.449369 0.35032,0.488772 C 29.44342,7.64365 29.58188,7.60206 29.469,7.3794 28.82814,7.085762 28.78532,7.40348 28.3613,7.380026 27.1519,6.658282 26.9189,6.734893 25.8059,6.283316 l 0.05061,0.266436 C 25.0555,6.249544 24.92315,6.662956 24.05761,6.550378 24.00506,6.504428 24.33509,6.382758 24.607,6.33867 23.8324,6.453747 23.86855,6.166678 23.1106,6.37025 c 0.18656,-0.147287 0.38452,-0.245167 0.58359,-0.3702596 -0.63141,0.043151 -1.508,0.4134116 -1.2375,0.076298 -1.0301,0.517236 -2.8598,1.243066 -3.8866,2.325997 l -0.03225,-0.242668 c -0.47043,0.635123 -2.0516,1.8969586 -2.1776,2.7203566 l -0.12595,0.03284 c -0.24439,0.466266 -0.40315,0.994442 -0.59722,1.473846 -0.32002,0.613865 -0.46932,0.236412 -0.42372,0.33273 -0.63,1.436585 -0.943,2.642713 -1.213,3.633461 0.1924,0.323663 0.0048,1.948867 0.07729,3.249439 -0.31584,6.424464 4.0087,12.661117 8.7358,14.100933 0.69286,0.279262 1.723,0.269246 2.5993,0.296772 -1.0337,-0.33273 -1.1672,-0.176062 -2.1748,-0.571016 -0.7265,-0.385271 -0.88554,-0.824636 -1.4005,-1.327172 l 0.2038,0.404969 c -1.009,-0.402761 -0.587,-0.497528 -1.408,-0.790445 l 0.2177,-0.319279 c -0.32725,-0.02815 -0.86663,-0.61981 -1.014,-0.94847 l -0.35811,0.01595 C 19.04899,29.86849 18.81961,29.43788 18.83657,29.104192 l -0.11566,0.23204 c -0.132,-0.253072 -1.583,-2.238876 -0.83,-1.775809 -0.14,-0.143228 -0.326,-0.233687 -0.527,-0.64614 l 0.1532,-0.196696 c -0.36172,-0.524429 -0.66672,-1.196436 -0.64337,-1.420324 0.19323,0.293326 0.32725,0.348367 0.46014,0.398712 -0.915,-2.553008 -0.96644,-0.140407 -1.659,-2.598668 l 0.14624,-0.01313 C 15.70907,22.893088 15.6404,22.687012 15.55032,22.48406 l 0.06395,-0.714556 c -0.658,-0.855059 -0.184,-3.641 -0.089,-5.169121 0.066,-0.620295 0.55,-1.282589 0.918,-2.319644 l -0.22409,-0.04315 c 0.42873,-0.840585 2.4472,-3.377052 3.3825,-3.246962 0.45292,-0.639819 -0.09009,-0.0025 -0.17878,-0.163237 0.99508,-1.15799 1.3079,-0.818067 1.9793,-1.026652 0.72372,-0.483151 -0.6214,0.188878 -0.27831,-0.184193 1.252,-0.359318 0.88692,-0.817442 2.5198,-0.999751 0.17238,0.110081 -0.39953,0.170118 -0.543,0.313033 1.0426,-0.574149 3.3,-0.443122 4.7669,0.318343 1.7007,0.894689 3.6128,3.538048 3.6884,6.025149 l 0.08591,0.02594 c -0.04337,0.98881 0.13457,2.13237 -0.17432,3.182563 l 0.2088,-0.497528"
       id="path3032" />
  </g>
</svg>
