<?xml version="1.0" encoding="UTF-8" standalone="no"?>
<!-- Created with Inkscape (http://www.inkscape.org/) -->

<svg
   xmlns:dc="http://purl.org/dc/elements/1.1/"
   xmlns:cc="http://creativecommons.org/ns#"
   xmlns:rdf="http://www.w3.org/1999/02/22-rdf-syntax-ns#"
   xmlns:svg="http://www.w3.org/2000/svg"
   xmlns="http://www.w3.org/2000/svg"
   xmlns:sodipodi="http://sodipodi.sourceforge.net/DTD/sodipodi-0.dtd"
   xmlns:inkscape="http://www.inkscape.org/namespaces/inkscape"
   id="svg2817"
   height="22"
   width="22"
   version="1.0"
   inkscape:version="0.91 r13725"
   sodipodi:docname="computerjanitor.svg">
  <defs
     id="defs221" />
  <sodipodi:namedview
     pagecolor="#ffffff"
     bordercolor="#666666"
     borderopacity="1"
     objecttolerance="10"
     gridtolerance="10"
     guidetolerance="10"
     inkscape:pageopacity="0"
     inkscape:pageshadow="2"
     inkscape:window-width="1600"
     inkscape:window-height="849"
     id="namedview219"
     showgrid="false"
     inkscape:zoom="7.03"
     inkscape:cx="-17.220484"
     inkscape:cy="12"
     inkscape:window-x="0"
     inkscape:window-y="0"
     inkscape:window-maximized="1"
     inkscape:current-layer="svg2817" />
  <metadata
     id="metadata57">
    <rdf:RDF>
      <cc:Work
         rdf:about="">
        <dc:format>image/svg+xml</dc:format>
        <dc:type
           rdf:resource="http://purl.org/dc/dcmitype/StillImage" />
        <dc:title></dc:title>
      </cc:Work>
    </rdf:RDF>
  </metadata>
  <text
     id="text4087-2-6-5"
     font-size="12.666px"
     xml:space="preserve"
     y="8.8126011"
     x="877.22626"
     style="font-size:12.66600037px;font-family:'Bitstream Vera Sans';opacity:0.8;fill:#000000"><tspan
       id="tspan4089-7-2-9"
       y="8.8126011"
       x="877.22626" /></text>
  <text
     id="text4087-2-6-5-5"
     font-size="12.666px"
     xml:space="preserve"
     y="-31.929106"
     x="901.18719"
     style="font-size:12.66600037px;font-family:'Bitstream Vera Sans';opacity:0.8;fill:#000000"><tspan
       id="tspan4089-7-2-9-6"
       y="-31.929106"
       x="901.18719" /></text>
  <text
     id="text4087-2-6-5-2"
     font-size="12.666px"
     xml:space="preserve"
     y="-62.007248"
     x="-569.37115"
     style="font-size:12.66600037px;font-family:'Bitstream Vera Sans';opacity:0.8;fill:#000000"><tspan
       id="tspan4089-7-2-9-2"
       y="-62.007248"
       x="-569.37115" /></text>
  <text
     id="text4087-2-6-5-59"
     font-size="12.666px"
     xml:space="preserve"
     y="683.5462"
     x="-2393.0571"
     style="font-size:12.66600037px;font-family:'Bitstream Vera Sans';opacity:0.8;fill:#000000"><tspan
       id="tspan4089-7-2-9-4"
       y="683.5462"
       x="-2393.0571" /></text>
  <text
     id="text4087-2-6-5-1"
     font-size="12.666px"
     xml:space="preserve"
     y="-447.32822"
     x="-454.88007"
     style="font-size:12.66600037px;font-family:'Bitstream Vera Sans';opacity:0.8;fill:#000000"><tspan
       id="tspan4089-7-2-9-7"
       y="-447.32822"
       x="-454.88007" /></text>
  <text
     id="text4087-2-6-5-7"
     font-size="12.666px"
     xml:space="preserve"
     y="-860.79834"
     x="352.72208"
     style="font-size:12.66600037px;font-family:'Bitstream Vera Sans';opacity:0.8;fill:#000000"><tspan
       id="tspan4089-7-2-9-1"
       y="-860.79834"
       x="352.72208" /></text>
  <text
     id="text4087-2-6-5-5-3"
     font-size="12.666px"
     xml:space="preserve"
     y="-901.54004"
     x="376.68301"
     style="font-size:12.66600037px;font-family:'Bitstream Vera Sans';opacity:0.8;fill:#000000"><tspan
       id="tspan4089-7-2-9-6-5"
       y="-901.54004"
       x="376.68301" /></text>
  <text
     id="text4087-2-6-5-3"
     font-size="12.666px"
     xml:space="preserve"
     y="-908.74994"
     x="-1114.7802"
     style="font-size:12.66600037px;font-family:'Bitstream Vera Sans';opacity:0.8;fill:#000000"><tspan
       id="tspan4089-7-2-9-18"
       y="-908.74994"
       x="-1114.7802" /></text>
  <text
     id="text4087-2-6-5-4"
     font-size="12.666px"
     xml:space="preserve"
     y="-1181.9841"
     x="345.7626"
     style="font-size:12.66600037px;font-family:'Bitstream Vera Sans';opacity:0.8;fill:#000000"><tspan
       id="tspan4089-7-2-9-9"
       y="-1181.9841"
       x="345.7626" /></text>
  <text
     id="text4087-2-6-5-7-1"
     font-size="12.666px"
     xml:space="preserve"
     y="-555.29272"
     x="1831.8861"
     style="font-size:12.66600037px;font-family:'Bitstream Vera Sans';opacity:0.8;fill:#000000"><tspan
       id="tspan4089-7-2-9-1-8"
       y="-555.29272"
       x="1831.8861" /></text>
  <text
     id="text4087-2-6-5-5-5"
     font-size="12.666px"
     xml:space="preserve"
     y="-596.03448"
     x="1855.8469"
     style="font-size:12.66600037px;font-family:'Bitstream Vera Sans';opacity:0.8;fill:#000000"><tspan
       id="tspan4089-7-2-9-6-9"
       y="-596.03448"
       x="1855.8469" /></text>
  <text
     id="text4087-2-6-5-75"
     font-size="12.666px"
     xml:space="preserve"
     y="-603.24438"
     x="364.38376"
     style="font-size:12.66600037px;font-family:'Bitstream Vera Sans';opacity:0.8;fill:#000000"><tspan
       id="tspan4089-7-2-9-3"
       y="-603.24438"
       x="364.38376" /></text>
  <text
     id="text4087-2-6-5-4-8"
     font-size="12.666px"
     xml:space="preserve"
     y="-876.47839"
     x="1824.9266"
     style="font-size:12.66600037px;font-family:'Bitstream Vera Sans';opacity:0.8;fill:#000000"><tspan
       id="tspan4089-7-2-9-9-8"
       y="-876.47839"
       x="1824.9266" /></text>
  <text
     id="text4087-2-6-5-45"
     font-size="12.666px"
     xml:space="preserve"
     y="-651.33569"
     x="-573.43256"
     style="font-size:12.66600037px;font-family:'Bitstream Vera Sans';opacity:0.8;fill:#000000"><tspan
       id="tspan4089-7-2-9-75"
       y="-651.33569"
       x="-573.43256" /></text>
  <text
     id="text4087-2-6-5-59-7"
     font-size="12.666px"
     xml:space="preserve"
     y="94.217857"
     x="-2397.1182"
     style="font-size:12.66600037px;font-family:'Bitstream Vera Sans';opacity:0.8;fill:#000000"><tspan
       id="tspan4089-7-2-9-4-0"
       y="94.217857"
       x="-2397.1182" /></text>
  <text
     id="text4087-2-6-5-8"
     font-size="12.666px"
     xml:space="preserve"
     y="187.09"
     x="-682.36279"
     style="font-size:12.66600037px;font-family:'Bitstream Vera Sans';opacity:0.8;fill:#000000"><tspan
       id="tspan4089-7-2-9-19"
       y="187.09"
       x="-682.36279" /></text>
  <text
     id="text4087-2-6-5-7-5"
     font-size="12.666px"
     xml:space="preserve"
     y="7.9078522"
     x="426.66153"
     style="font-size:12.66600037px;font-family:'Bitstream Vera Sans';opacity:0.8;fill:#000000"><tspan
       id="tspan4089-7-2-9-1-2"
       y="7.9078522"
       x="426.66153" /></text>
  <text
     id="text4087-2-6-5-5-0"
     font-size="12.666px"
     xml:space="preserve"
     y="-32.833855"
     x="450.62247"
     style="font-size:12.66600037px;font-family:'Bitstream Vera Sans';opacity:0.8;fill:#000000"><tspan
       id="tspan4089-7-2-9-6-2"
       y="-32.833855"
       x="450.62247" /></text>
  <text
     id="text4087-2-6-5-26"
     font-size="12.666px"
     xml:space="preserve"
     y="-40.043827"
     x="-1040.8407"
     style="font-size:12.66600037px;font-family:'Bitstream Vera Sans';opacity:0.8;fill:#000000"><tspan
       id="tspan4089-7-2-9-90"
       y="-40.043827"
       x="-1040.8407" /></text>
  <text
     id="text4087-2-6-5-4-3"
     font-size="12.666px"
     xml:space="preserve"
     y="-313.27789"
     x="419.70206"
     style="font-size:12.66600037px;font-family:'Bitstream Vera Sans';opacity:0.8;fill:#000000"><tspan
       id="tspan4089-7-2-9-9-5"
       y="-313.27789"
       x="419.70206" /></text>
  <text
     id="text4087-2-6-5-55"
     font-size="12.666px"
     xml:space="preserve"
     y="-42.758072"
     x="-608.03253"
     style="font-size:12.66600037px;font-family:'Bitstream Vera Sans';opacity:0.8;fill:#000000"><tspan
       id="tspan4089-7-2-9-32"
       y="-42.758072"
       x="-608.03253" /></text>
  <text
     id="text4087-2-6-5-59-9"
     font-size="12.666px"
     xml:space="preserve"
     y="702.79541"
     x="-2431.7185"
     style="font-size:12.66600037px;font-family:'Bitstream Vera Sans';opacity:0.8;fill:#000000"><tspan
       id="tspan4089-7-2-9-4-1"
       y="702.79541"
       x="-2431.7185" /></text>
  <text
     id="text4087-2-6-5-1-8"
     font-size="12.666px"
     xml:space="preserve"
     y="-904.28857"
     x="-456.93948"
     style="font-size:12.66600037px;font-family:'Bitstream Vera Sans';opacity:0.8;fill:#000000"><tspan
       id="tspan4089-7-2-9-7-8"
       y="-904.28857"
       x="-456.93948" /></text>
  <text
     id="text4087-2-6-5-7-8"
     font-size="12.666px"
     xml:space="preserve"
     y="-1317.7588"
     x="350.66266"
     style="font-size:12.66600037px;font-family:'Bitstream Vera Sans';opacity:0.8;fill:#000000"><tspan
       id="tspan4089-7-2-9-1-9"
       y="-1317.7588"
       x="350.66266" /></text>
  <text
     id="text4087-2-6-5-5-52"
     font-size="12.666px"
     xml:space="preserve"
     y="-1358.5005"
     x="374.62357"
     style="font-size:12.66600037px;font-family:'Bitstream Vera Sans';opacity:0.8;fill:#000000"><tspan
       id="tspan4089-7-2-9-6-4"
       y="-1358.5005"
       x="374.62357" /></text>
  <text
     id="text4087-2-6-5-3-4"
     font-size="12.666px"
     xml:space="preserve"
     y="-1365.7104"
     x="-1116.8396"
     style="font-size:12.66600037px;font-family:'Bitstream Vera Sans';opacity:0.8;fill:#000000"><tspan
       id="tspan4089-7-2-9-18-3"
       y="-1365.7104"
       x="-1116.8396" /></text>
  <text
     id="text4087-2-6-5-4-7"
     font-size="12.666px"
     xml:space="preserve"
     y="-1638.9446"
     x="343.70316"
     style="font-size:12.66600037px;font-family:'Bitstream Vera Sans';opacity:0.8;fill:#000000"><tspan
       id="tspan4089-7-2-9-9-54"
       y="-1638.9446"
       x="343.70316" /></text>
  <text
     id="text4087-2-6-5-7-1-2"
     font-size="12.666px"
     xml:space="preserve"
     y="-1012.2533"
     x="1829.8265"
     style="font-size:12.66600037px;font-family:'Bitstream Vera Sans';opacity:0.8;fill:#000000"><tspan
       id="tspan4089-7-2-9-1-8-0"
       y="-1012.2533"
       x="1829.8265" /></text>
  <text
     id="text4087-2-6-5-5-5-6"
     font-size="12.666px"
     xml:space="preserve"
     y="-1052.9949"
     x="1853.7874"
     style="font-size:12.66600037px;font-family:'Bitstream Vera Sans';opacity:0.8;fill:#000000"><tspan
       id="tspan4089-7-2-9-6-9-8"
       y="-1052.9949"
       x="1853.7874" /></text>
  <text
     id="text4087-2-6-5-75-4"
     font-size="12.666px"
     xml:space="preserve"
     y="-1060.2048"
     x="362.32431"
     style="font-size:12.66600037px;font-family:'Bitstream Vera Sans';opacity:0.8;fill:#000000"><tspan
       id="tspan4089-7-2-9-3-9"
       y="-1060.2048"
       x="362.32431" /></text>
  <text
     id="text4087-2-6-5-4-8-1"
     font-size="12.666px"
     xml:space="preserve"
     y="-1333.439"
     x="1822.8671"
     style="font-size:12.66600037px;font-family:'Bitstream Vera Sans';opacity:0.8;fill:#000000"><tspan
       id="tspan4089-7-2-9-9-8-8"
       y="-1333.439"
       x="1822.8671" /></text>
  <text
     id="text4087-2-6-5-45-0"
     font-size="12.666px"
     xml:space="preserve"
     y="-1108.2961"
     x="-575.492"
     style="font-size:12.66600037px;font-family:'Bitstream Vera Sans';opacity:0.8;fill:#000000"><tspan
       id="tspan4089-7-2-9-75-2"
       y="-1108.2961"
       x="-575.492" /></text>
  <text
     id="text4087-2-6-5-59-5"
     font-size="12.666px"
     xml:space="preserve"
     y="-362.74261"
     x="-2399.1777"
     style="font-size:12.66600037px;font-family:'Bitstream Vera Sans';opacity:0.8;fill:#000000"><tspan
       id="tspan4089-7-2-9-4-00"
       y="-362.74261"
       x="-2399.1777" /></text>
  <text
     id="text4087-2-6-5-264"
     font-size="12.666px"
     xml:space="preserve"
     y="-269.87045"
     x="-684.42224"
     style="font-size:12.66600037px;font-family:'Bitstream Vera Sans';opacity:0.8;fill:#000000"><tspan
       id="tspan4089-7-2-9-8"
       y="-269.87045"
       x="-684.42224" /></text>
  <text
     id="text4087-2-6-5-42"
     font-size="12.666px"
     xml:space="preserve"
     y="-28.956278"
     x="155.5923"
     style="font-size:12.66600037px;font-family:'Bitstream Vera Sans';opacity:0.8;fill:#000000"><tspan
       id="tspan4089-7-2-9-93"
       y="-28.956278"
       x="155.5923" /></text>
  <text
     id="text4087-2-6-5-5-05"
     font-size="12.666px"
     xml:space="preserve"
     y="-69.697998"
     x="179.55324"
     style="font-size:12.66600037px;font-family:'Bitstream Vera Sans';opacity:0.8;fill:#000000"><tspan
       id="tspan4089-7-2-9-6-49"
       y="-69.697998"
       x="179.55324" /></text>
  <text
     id="text4087-2-6-5-1-4"
     font-size="12.666px"
     xml:space="preserve"
     y="-263.72662"
     x="-1090.2634"
     style="font-size:12.66600037px;font-family:'Bitstream Vera Sans';opacity:0.8;fill:#000000"><tspan
       id="tspan4089-7-2-9-7-7"
       y="-263.72662"
       x="-1090.2634" /></text>
  <text
     id="text4087-2-6-5-7-56"
     font-size="12.666px"
     xml:space="preserve"
     y="-677.19678"
     x="-282.66141"
     style="font-size:12.66600037px;font-family:'Bitstream Vera Sans';opacity:0.8;fill:#000000"><tspan
       id="tspan4089-7-2-9-1-1"
       y="-677.19678"
       x="-282.66141" /></text>
  <text
     id="text4087-2-6-5-5-8"
     font-size="12.666px"
     xml:space="preserve"
     y="-717.93848"
     x="-258.70047"
     style="font-size:12.66600037px;font-family:'Bitstream Vera Sans';opacity:0.8;fill:#000000"><tspan
       id="tspan4089-7-2-9-6-7"
       y="-717.93848"
       x="-258.70047" /></text>
  <text
     id="text4087-2-6-5-3-42"
     font-size="12.666px"
     xml:space="preserve"
     y="-725.14838"
     x="-1750.1636"
     style="font-size:12.66600037px;font-family:'Bitstream Vera Sans';opacity:0.8;fill:#000000"><tspan
       id="tspan4089-7-2-9-18-39"
       y="-725.14838"
       x="-1750.1636" /></text>
  <text
     id="text4087-2-6-5-4-4"
     font-size="12.666px"
     xml:space="preserve"
     y="-998.38251"
     x="-289.62085"
     style="font-size:12.66600037px;font-family:'Bitstream Vera Sans';opacity:0.8;fill:#000000"><tspan
       id="tspan4089-7-2-9-9-3"
       y="-998.38251"
       x="-289.62085" /></text>
  <text
     id="text4087-2-6-5-7-1-0"
     font-size="12.666px"
     xml:space="preserve"
     y="-371.69113"
     x="1196.5026"
     style="font-size:12.66600037px;font-family:'Bitstream Vera Sans';opacity:0.8;fill:#000000"><tspan
       id="tspan4089-7-2-9-1-8-5"
       y="-371.69113"
       x="1196.5026" /></text>
  <text
     id="text4087-2-6-5-5-5-5"
     font-size="12.666px"
     xml:space="preserve"
     y="-412.43286"
     x="1220.4634"
     style="font-size:12.66600037px;font-family:'Bitstream Vera Sans';opacity:0.8;fill:#000000"><tspan
       id="tspan4089-7-2-9-6-9-2"
       y="-412.43286"
       x="1220.4634" /></text>
  <text
     id="text4087-2-6-5-75-9"
     font-size="12.666px"
     xml:space="preserve"
     y="-419.64282"
     x="-270.99973"
     style="font-size:12.66600037px;font-family:'Bitstream Vera Sans';opacity:0.8;fill:#000000"><tspan
       id="tspan4089-7-2-9-3-1"
       y="-419.64282"
       x="-270.99973" /></text>
  <text
     id="text4087-2-6-5-4-8-18"
     font-size="12.666px"
     xml:space="preserve"
     y="-692.87689"
     x="1189.5431"
     style="font-size:12.66600037px;font-family:'Bitstream Vera Sans';opacity:0.8;fill:#000000"><tspan
       id="tspan4089-7-2-9-9-8-4"
       y="-692.87689"
       x="1189.5431" /></text>
  <text
     id="text4087-2-6-5-45-3"
     font-size="12.666px"
     xml:space="preserve"
     y="-467.7341"
     x="-1208.816"
     style="font-size:12.66600037px;font-family:'Bitstream Vera Sans';opacity:0.8;fill:#000000"><tspan
       id="tspan4089-7-2-9-75-7"
       y="-467.7341"
       x="-1208.816" /></text>
  <text
     id="text4087-2-6-5-59-8"
     font-size="12.666px"
     xml:space="preserve"
     y="277.81946"
     x="-3032.5017"
     style="font-size:12.66600037px;font-family:'Bitstream Vera Sans';opacity:0.8;fill:#000000"><tspan
       id="tspan4089-7-2-9-4-2"
       y="277.81946"
       x="-3032.5017" /></text>
  <g
     id="layer4-0"
     transform="matrix(0.90475,0,0,0.90475,-716.75,-678.29)">
    <text
       id="text4087-2-6-5-20"
       font-size="14px"
       xml:space="preserve"
       y="1159.4154"
       x="-664.2738"
       style="font-size:14px;font-family:'Bitstream Vera Sans';opacity:0.8;fill:#000000"><tspan
         id="tspan4089-7-2-9-82"
         y="1159.4154"
         x="-664.2738" /></text>
  </g>
  <text
     id="text4087-2-6-5-9"
     font-size="12.666px"
     xml:space="preserve"
     y="16.050589"
     x="877.22626"
     style="font-size:12.66600037px;font-family:'Bitstream Vera Sans';opacity:0.8;fill:#000000"><tspan
       id="tspan4089-7-2-9-43"
       y="16.050589"
       x="877.22626" /></text>
  <text
     id="text4087-2-6-5-5-51"
     font-size="12.666px"
     xml:space="preserve"
     y="-24.691116"
     x="901.18719"
     style="font-size:12.66600037px;font-family:'Bitstream Vera Sans';opacity:0.8;fill:#000000"><tspan
       id="tspan4089-7-2-9-6-74"
       y="-24.691116"
       x="901.18719" /></text>
  <text
     id="text4087-2-6-5-2-3"
     font-size="12.666px"
     xml:space="preserve"
     y="-54.76926"
     x="-569.37115"
     style="font-size:12.66600037px;font-family:'Bitstream Vera Sans';opacity:0.8;fill:#000000"><tspan
       id="tspan4089-7-2-9-2-1"
       y="-54.76926"
       x="-569.37115" /></text>
  <text
     id="text4087-2-6-5-59-4"
     font-size="12.666px"
     xml:space="preserve"
     y="690.78418"
     x="-2393.0571"
     style="font-size:12.66600037px;font-family:'Bitstream Vera Sans';opacity:0.8;fill:#000000"><tspan
       id="tspan4089-7-2-9-4-6"
       y="690.78418"
       x="-2393.0571" /></text>
  <text
     id="text4087-2-6-5-1-9"
     font-size="12.666px"
     xml:space="preserve"
     y="-440.09021"
     x="-454.88007"
     style="font-size:12.66600037px;font-family:'Bitstream Vera Sans';opacity:0.8;fill:#000000"><tspan
       id="tspan4089-7-2-9-7-4"
       y="-440.09021"
       x="-454.88007" /></text>
  <text
     id="text4087-2-6-5-7-2"
     font-size="12.666px"
     xml:space="preserve"
     y="-853.5603"
     x="352.72208"
     style="font-size:12.66600037px;font-family:'Bitstream Vera Sans';opacity:0.8;fill:#000000"><tspan
       id="tspan4089-7-2-9-1-26"
       y="-853.5603"
       x="352.72208" /></text>
  <text
     id="text4087-2-6-5-5-3-4"
     font-size="12.666px"
     xml:space="preserve"
     y="-894.30206"
     x="376.68301"
     style="font-size:12.66600037px;font-family:'Bitstream Vera Sans';opacity:0.8;fill:#000000"><tspan
       id="tspan4089-7-2-9-6-5-1"
       y="-894.30206"
       x="376.68301" /></text>
  <text
     id="text4087-2-6-5-3-2"
     font-size="12.666px"
     xml:space="preserve"
     y="-901.51196"
     x="-1114.7802"
     style="font-size:12.66600037px;font-family:'Bitstream Vera Sans';opacity:0.8;fill:#000000"><tspan
       id="tspan4089-7-2-9-18-8"
       y="-901.51196"
       x="-1114.7802" /></text>
  <text
     id="text4087-2-6-5-4-89"
     font-size="12.666px"
     xml:space="preserve"
     y="-1174.7461"
     x="345.7626"
     style="font-size:12.66600037px;font-family:'Bitstream Vera Sans';opacity:0.8;fill:#000000"><tspan
       id="tspan4089-7-2-9-9-2"
       y="-1174.7461"
       x="345.7626" /></text>
  <text
     id="text4087-2-6-5-7-1-8"
     font-size="12.666px"
     xml:space="preserve"
     y="-548.05475"
     x="1831.8861"
     style="font-size:12.66600037px;font-family:'Bitstream Vera Sans';opacity:0.8;fill:#000000"><tspan
       id="tspan4089-7-2-9-1-8-8"
       y="-548.05475"
       x="1831.8861" /></text>
  <text
     id="text4087-2-6-5-5-5-8"
     font-size="12.666px"
     xml:space="preserve"
     y="-588.79651"
     x="1855.8469"
     style="font-size:12.66600037px;font-family:'Bitstream Vera Sans';opacity:0.8;fill:#000000"><tspan
       id="tspan4089-7-2-9-6-9-6"
       y="-588.79651"
       x="1855.8469" /></text>
  <text
     id="text4087-2-6-5-75-8"
     font-size="12.666px"
     xml:space="preserve"
     y="-596.00641"
     x="364.38376"
     style="font-size:12.66600037px;font-family:'Bitstream Vera Sans';opacity:0.8;fill:#000000"><tspan
       id="tspan4089-7-2-9-3-3"
       y="-596.00641"
       x="364.38376" /></text>
  <text
     id="text4087-2-6-5-4-8-8"
     font-size="12.666px"
     xml:space="preserve"
     y="-869.24036"
     x="1824.9266"
     style="font-size:12.66600037px;font-family:'Bitstream Vera Sans';opacity:0.8;fill:#000000"><tspan
       id="tspan4089-7-2-9-9-8-3"
       y="-869.24036"
       x="1824.9266" /></text>
  <text
     id="text4087-2-6-5-45-33"
     font-size="12.666px"
     xml:space="preserve"
     y="-644.09772"
     x="-573.43256"
     style="font-size:12.66600037px;font-family:'Bitstream Vera Sans';opacity:0.8;fill:#000000"><tspan
       id="tspan4089-7-2-9-75-8"
       y="-644.09772"
       x="-573.43256" /></text>
  <text
     id="text4087-2-6-5-59-7-0"
     font-size="12.666px"
     xml:space="preserve"
     y="101.45585"
     x="-2397.1182"
     style="font-size:12.66600037px;font-family:'Bitstream Vera Sans';opacity:0.8;fill:#000000"><tspan
       id="tspan4089-7-2-9-4-0-4"
       y="101.45585"
       x="-2397.1182" /></text>
  <text
     id="text4087-2-6-5-8-7"
     font-size="12.666px"
     xml:space="preserve"
     y="194.32799"
     x="-682.36279"
     style="font-size:12.66600037px;font-family:'Bitstream Vera Sans';opacity:0.8;fill:#000000"><tspan
       id="tspan4089-7-2-9-19-6"
       y="194.32799"
       x="-682.36279" /></text>
  <text
     id="text4087-2-6-5-7-5-8"
     font-size="12.666px"
     xml:space="preserve"
     y="15.14584"
     x="426.66153"
     style="font-size:12.66600037px;font-family:'Bitstream Vera Sans';opacity:0.8;fill:#000000"><tspan
       id="tspan4089-7-2-9-1-2-9"
       y="15.14584"
       x="426.66153" /></text>
  <text
     id="text4087-2-6-5-5-0-0"
     font-size="12.666px"
     xml:space="preserve"
     y="-25.595865"
     x="450.62247"
     style="font-size:12.66600037px;font-family:'Bitstream Vera Sans';opacity:0.8;fill:#000000"><tspan
       id="tspan4089-7-2-9-6-2-6"
       y="-25.595865"
       x="450.62247" /></text>
  <text
     id="text4087-2-6-5-26-8"
     font-size="12.666px"
     xml:space="preserve"
     y="-32.805836"
     x="-1040.8407"
     style="font-size:12.66600037px;font-family:'Bitstream Vera Sans';opacity:0.8;fill:#000000"><tspan
       id="tspan4089-7-2-9-90-7"
       y="-32.805836"
       x="-1040.8407" /></text>
  <text
     id="text4087-2-6-5-4-3-9"
     font-size="12.666px"
     xml:space="preserve"
     y="-306.03989"
     x="419.70206"
     style="font-size:12.66600037px;font-family:'Bitstream Vera Sans';opacity:0.8;fill:#000000"><tspan
       id="tspan4089-7-2-9-9-5-0"
       y="-306.03989"
       x="419.70206" /></text>
  <text
     id="text4087-2-6-5-55-3"
     font-size="12.666px"
     xml:space="preserve"
     y="-35.520081"
     x="-608.03253"
     style="font-size:12.66600037px;font-family:'Bitstream Vera Sans';opacity:0.8;fill:#000000"><tspan
       id="tspan4089-7-2-9-32-3"
       y="-35.520081"
       x="-608.03253" /></text>
  <text
     id="text4087-2-6-5-59-9-3"
     font-size="12.666px"
     xml:space="preserve"
     y="710.03345"
     x="-2431.7185"
     style="font-size:12.66600037px;font-family:'Bitstream Vera Sans';opacity:0.8;fill:#000000"><tspan
       id="tspan4089-7-2-9-4-1-7"
       y="710.03345"
       x="-2431.7185" /></text>
  <text
     id="text4087-2-6-5-1-8-3"
     font-size="12.666px"
     xml:space="preserve"
     y="-897.0506"
     x="-456.93948"
     style="font-size:12.66600037px;font-family:'Bitstream Vera Sans';opacity:0.8;fill:#000000"><tspan
       id="tspan4089-7-2-9-7-8-2"
       y="-897.0506"
       x="-456.93948" /></text>
  <text
     id="text4087-2-6-5-7-8-6"
     font-size="12.666px"
     xml:space="preserve"
     y="-1310.5208"
     x="350.66266"
     style="font-size:12.66600037px;font-family:'Bitstream Vera Sans';opacity:0.8;fill:#000000"><tspan
       id="tspan4089-7-2-9-1-9-5"
       y="-1310.5208"
       x="350.66266" /></text>
  <text
     id="text4087-2-6-5-5-52-2"
     font-size="12.666px"
     xml:space="preserve"
     y="-1351.2626"
     x="374.62357"
     style="font-size:12.66600037px;font-family:'Bitstream Vera Sans';opacity:0.8;fill:#000000"><tspan
       id="tspan4089-7-2-9-6-4-6"
       y="-1351.2626"
       x="374.62357" /></text>
  <text
     id="text4087-2-6-5-3-4-5"
     font-size="12.666px"
     xml:space="preserve"
     y="-1358.4724"
     x="-1116.8396"
     style="font-size:12.66600037px;font-family:'Bitstream Vera Sans';opacity:0.8;fill:#000000"><tspan
       id="tspan4089-7-2-9-18-3-8"
       y="-1358.4724"
       x="-1116.8396" /></text>
  <text
     id="text4087-2-6-5-4-7-7"
     font-size="12.666px"
     xml:space="preserve"
     y="-1631.7065"
     x="343.70316"
     style="font-size:12.66600037px;font-family:'Bitstream Vera Sans';opacity:0.8;fill:#000000"><tspan
       id="tspan4089-7-2-9-9-54-9"
       y="-1631.7065"
       x="343.70316" /></text>
  <text
     id="text4087-2-6-5-7-1-2-6"
     font-size="12.666px"
     xml:space="preserve"
     y="-1005.0153"
     x="1829.8265"
     style="font-size:12.66600037px;font-family:'Bitstream Vera Sans';opacity:0.8;fill:#000000"><tspan
       id="tspan4089-7-2-9-1-8-0-0"
       y="-1005.0153"
       x="1829.8265" /></text>
  <text
     id="text4087-2-6-5-5-5-6-4"
     font-size="12.666px"
     xml:space="preserve"
     y="-1045.757"
     x="1853.7874"
     style="font-size:12.66600037px;font-family:'Bitstream Vera Sans';opacity:0.8;fill:#000000"><tspan
       id="tspan4089-7-2-9-6-9-8-1"
       y="-1045.757"
       x="1853.7874" /></text>
  <text
     id="text4087-2-6-5-75-4-0"
     font-size="12.666px"
     xml:space="preserve"
     y="-1052.9668"
     x="362.32431"
     style="font-size:12.66600037px;font-family:'Bitstream Vera Sans';opacity:0.8;fill:#000000"><tspan
       id="tspan4089-7-2-9-3-9-4"
       y="-1052.9668"
       x="362.32431" /></text>
  <text
     id="text4087-2-6-5-4-8-1-8"
     font-size="12.666px"
     xml:space="preserve"
     y="-1326.2009"
     x="1822.8671"
     style="font-size:12.66600037px;font-family:'Bitstream Vera Sans';opacity:0.8;fill:#000000"><tspan
       id="tspan4089-7-2-9-9-8-8-7"
       y="-1326.2009"
       x="1822.8671" /></text>
  <text
     id="text4087-2-6-5-45-0-0"
     font-size="12.666px"
     xml:space="preserve"
     y="-1101.0581"
     x="-575.492"
     style="font-size:12.66600037px;font-family:'Bitstream Vera Sans';opacity:0.8;fill:#000000"><tspan
       id="tspan4089-7-2-9-75-2-8"
       y="-1101.0581"
       x="-575.492" /></text>
  <text
     id="text4087-2-6-5-59-5-6"
     font-size="12.666px"
     xml:space="preserve"
     y="-355.50461"
     x="-2399.1777"
     style="font-size:12.66600037px;font-family:'Bitstream Vera Sans';opacity:0.8;fill:#000000"><tspan
       id="tspan4089-7-2-9-4-00-2"
       y="-355.50461"
       x="-2399.1777" /></text>
  <text
     id="text4087-2-6-5-264-4"
     font-size="12.666px"
     xml:space="preserve"
     y="-262.63245"
     x="-684.42224"
     style="font-size:12.66600037px;font-family:'Bitstream Vera Sans';opacity:0.8;fill:#000000"><tspan
       id="tspan4089-7-2-9-8-7"
       y="-262.63245"
       x="-684.42224" /></text>
  <text
     id="text4087-2-6-5-42-9"
     font-size="12.666px"
     xml:space="preserve"
     y="-21.71829"
     x="155.5923"
     style="font-size:12.66600037px;font-family:'Bitstream Vera Sans';opacity:0.8;fill:#000000"><tspan
       id="tspan4089-7-2-9-93-3"
       y="-21.71829"
       x="155.5923" /></text>
  <text
     id="text4087-2-6-5-5-05-9"
     font-size="12.666px"
     xml:space="preserve"
     y="-62.460011"
     x="179.55324"
     style="font-size:12.66600037px;font-family:'Bitstream Vera Sans';opacity:0.8;fill:#000000"><tspan
       id="tspan4089-7-2-9-6-49-2"
       y="-62.460011"
       x="179.55324" /></text>
  <text
     id="text4087-2-6-5-1-4-8"
     font-size="12.666px"
     xml:space="preserve"
     y="-256.48859"
     x="-1090.2634"
     style="font-size:12.66600037px;font-family:'Bitstream Vera Sans';opacity:0.8;fill:#000000"><tspan
       id="tspan4089-7-2-9-7-7-3"
       y="-256.48859"
       x="-1090.2634" /></text>
  <text
     id="text4087-2-6-5-7-56-0"
     font-size="12.666px"
     xml:space="preserve"
     y="-669.9588"
     x="-282.66141"
     style="font-size:12.66600037px;font-family:'Bitstream Vera Sans';opacity:0.8;fill:#000000"><tspan
       id="tspan4089-7-2-9-1-1-1"
       y="-669.9588"
       x="-282.66141" /></text>
  <text
     id="text4087-2-6-5-5-8-7"
     font-size="12.666px"
     xml:space="preserve"
     y="-710.7005"
     x="-258.70047"
     style="font-size:12.66600037px;font-family:'Bitstream Vera Sans';opacity:0.8;fill:#000000"><tspan
       id="tspan4089-7-2-9-6-7-8"
       y="-710.7005"
       x="-258.70047" /></text>
  <text
     id="text4087-2-6-5-3-42-9"
     font-size="12.666px"
     xml:space="preserve"
     y="-717.91046"
     x="-1750.1636"
     style="font-size:12.66600037px;font-family:'Bitstream Vera Sans';opacity:0.8;fill:#000000"><tspan
       id="tspan4089-7-2-9-18-39-1"
       y="-717.91046"
       x="-1750.1636" /></text>
  <text
     id="text4087-2-6-5-4-4-5"
     font-size="12.666px"
     xml:space="preserve"
     y="-991.14447"
     x="-289.62085"
     style="font-size:12.66600037px;font-family:'Bitstream Vera Sans';opacity:0.8;fill:#000000"><tspan
       id="tspan4089-7-2-9-9-3-4"
       y="-991.14447"
       x="-289.62085" /></text>
  <text
     id="text4087-2-6-5-7-1-0-9"
     font-size="12.666px"
     xml:space="preserve"
     y="-364.45316"
     x="1196.5026"
     style="font-size:12.66600037px;font-family:'Bitstream Vera Sans';opacity:0.8;fill:#000000"><tspan
       id="tspan4089-7-2-9-1-8-5-2"
       y="-364.45316"
       x="1196.5026" /></text>
  <text
     id="text4087-2-6-5-5-5-5-5"
     font-size="12.666px"
     xml:space="preserve"
     y="-405.19489"
     x="1220.4634"
     style="font-size:12.66600037px;font-family:'Bitstream Vera Sans';opacity:0.8;fill:#000000"><tspan
       id="tspan4089-7-2-9-6-9-2-7"
       y="-405.19489"
       x="1220.4634" /></text>
  <text
     id="text4087-2-6-5-75-9-4"
     font-size="12.666px"
     xml:space="preserve"
     y="-412.40482"
     x="-270.99973"
     style="font-size:12.66600037px;font-family:'Bitstream Vera Sans';opacity:0.8;fill:#000000"><tspan
       id="tspan4089-7-2-9-3-1-9"
       y="-412.40482"
       x="-270.99973" /></text>
  <text
     id="text4087-2-6-5-4-8-18-9"
     font-size="12.666px"
     xml:space="preserve"
     y="-685.63892"
     x="1189.5431"
     style="font-size:12.66600037px;font-family:'Bitstream Vera Sans';opacity:0.8;fill:#000000"><tspan
       id="tspan4089-7-2-9-9-8-4-4"
       y="-685.63892"
       x="1189.5431" /></text>
  <text
     id="text4087-2-6-5-45-3-5"
     font-size="12.666px"
     xml:space="preserve"
     y="-460.49609"
     x="-1208.816"
     style="font-size:12.66600037px;font-family:'Bitstream Vera Sans';opacity:0.8;fill:#000000"><tspan
       id="tspan4089-7-2-9-75-7-9"
       y="-460.49609"
       x="-1208.816" /></text>
  <text
     id="text4087-2-6-5-59-8-3"
     font-size="12.666px"
     xml:space="preserve"
     y="285.05743"
     x="-3032.5017"
     style="font-size:12.66600037px;font-family:'Bitstream Vera Sans';opacity:0.8;fill:#000000"><tspan
       id="tspan4089-7-2-9-4-2-5"
       y="285.05743"
       x="-3032.5017" /></text>
  <g
     id="layer4-0-7"
     transform="matrix(0.90475,0,0,0.90475,-716.75,-671.05)">
    <text
       id="text4087-2-6-5-20-0"
       font-size="14px"
       xml:space="preserve"
       y="1159.4154"
       x="-664.2738"
       style="font-size:14px;font-family:'Bitstream Vera Sans';opacity:0.8;fill:#000000"><tspan
         id="tspan4089-7-2-9-82-8"
         y="1159.4154"
         x="-664.2738" /></text>
  </g>
  <text
     id="text7276"
     font-size="12.666px"
     xml:space="preserve"
     y="-363.22546"
     x="435.90427"
     style="font-size:12.66600037px;font-family:'Droid Sans';fill:#000000"><tspan
       id="tspan7278"
       y="-363.22546"
       x="435.90427" /><tspan
       id="tspan7280"
       y="-347.3924"
       x="435.90427" /></text>
  <text
     id="text4087-2-6-5-51"
     font-size="12.666px"
     xml:space="preserve"
     y="-845.27002"
     x="901.0882"
     style="font-size:12.66600037px;font-family:'Bitstream Vera Sans';opacity:0.8;fill:#000000"><tspan
       id="tspan4089-7-2-9-97"
       y="-845.27002"
       x="901.0882" /></text>
  <text
     id="text4087-2-6-5-59-2"
     font-size="12.666px"
     xml:space="preserve"
     y="-99.716553"
     x="-922.59778"
     style="font-size:12.66600037px;font-family:'Bitstream Vera Sans';opacity:0.8;fill:#000000"><tspan
       id="tspan4089-7-2-9-4-4"
       y="-99.716553"
       x="-922.59778" /></text>
  <text
     id="text4087-2-6-5-7-7"
     font-size="12.666px"
     xml:space="preserve"
     y="-1130.2659"
     x="1628.1677"
     style="font-size:12.66600037px;font-family:'Bitstream Vera Sans';opacity:0.8;fill:#000000"><tspan
       id="tspan4089-7-2-9-1-6"
       y="-1130.2659"
       x="1628.1677" /></text>
  <text
     id="text4087-2-6-5-5-6"
     font-size="12.666px"
     xml:space="preserve"
     y="-1171.0076"
     x="1652.1285"
     style="font-size:12.66600037px;font-family:'Bitstream Vera Sans';opacity:0.8;fill:#000000"><tspan
       id="tspan4089-7-2-9-6-53"
       y="-1171.0076"
       x="1652.1285" /></text>
  <text
     id="text4087-2-6-5-54"
     font-size="12.666px"
     xml:space="preserve"
     y="-1178.2175"
     x="160.66542"
     style="font-size:12.66600037px;font-family:'Bitstream Vera Sans';opacity:0.8;fill:#000000"><tspan
       id="tspan4089-7-2-9-0"
       y="-1178.2175"
       x="160.66542" /></text>
  <text
     id="text4087-2-6-5-4-1"
     font-size="12.666px"
     xml:space="preserve"
     y="-1451.4517"
     x="1621.2083"
     style="font-size:12.66600037px;font-family:'Bitstream Vera Sans';opacity:0.8;fill:#000000"><tspan
       id="tspan4089-7-2-9-9-28"
       y="-1451.4517"
       x="1621.2083" /></text>
  <g
     id="g4349"
     transform="matrix(0.49999926,0,0,0.49999926,-1.0000772,-0.99996753)">
    <path
       d="m 21.998,22.666 -2.482,2.816 -1.914,1.854 -2.131,1.422 L 12.908,30.1 9.9395,31.197 8.0801,31.629 8,31.869 l 0.1074,0.645 0.4317,1.074 0.916,1.771 0.8909,1.313 1.726,1.799 0.782,0.777 0.701,0.244 3.181,-0.029 -1.886,1.287 -0.028,0.324 1.133,0.885 1.537,0.885 c 1.987,1.102 3.778,-1.076 3.778,-1.076 0,0 -0.964,1.651 -0.905,2.232 l 1.889,0 0.998,-0.16 1.133,-0.565 -0.379,0.59 2.053,0.026 c 2.166,-0.051 3.598,-1.296 4.88,-2.629 l 1.348,-1.584 1.053,-1.582 0.781,-1.45 1.242,-2.871 0.944,-2.334 0.459,-1.236 -0.448,0 -3.41,-0.393 C 30.17,29.041 28.694,27.03 26.156,25.492 l -2.103,-1.289 -1.672,-0.992 -0.242,-0.35 -0.049,-0.136 -0.092,-0.059 z"
       id="path4425"
       inkscape:connector-curvature="0"
       style="fill:#fed24c" />
    <path
       d="m 37.309,5.0467 -1.9832,3.7195 -1.7151,3.7941 -2.0985,4.1382 -1.4499,3.4041 -1.6113,-0.67393 -2.3204,-0.99512 -0.56785,0 -0.48426,0.13479 -0.78116,1.0209 -2.2657,2.9768 0.10666,0.29538 0.24213,0.34987 1.6719,0.99226 2.1042,1.2876 c 2.5379,1.5382 4.0128,3.5487 6.7513,4.3204 l 3.4096,0.39443 0.57362,0 0.03747,-0.14913 0.49579,-3.037 0.40643,-2.4548 0.04035,-0.52481 -0.2969,-0.55062 -1.9976,-0.91196 -1.1588,-0.49613 -0.7091,-0.45311 -0.08071,-0.03442 0.09512,-0.15199 1.1847,-2.9223 1.0665,-2.581 1.3346,-3.4901 1.0319,-2.4692 0.87628,-2.1996 0.71979,-2.1315 c 0.43102,-1.5922 -1.4632,-2.4534 -2.628,-0.6016 z"
       id="path4429"
       inkscape:connector-curvature="0"
       style="fill:#c2352a" />
    <path
       d="m 38.766,4.0039 c -0.481,0.0359 -1.021,0.3486 -1.457,1.043 l -1.983,3.7187 -1.715,3.7954 -2.099,4.138 -1.45,3.405 -1.611,-0.674 -2.32,-0.996 -0.569,0 -0.484,0.134 -0.781,1.022 -2.266,2.976 0.108,0.295 0.205,0.295 1.953,-2.566 0.781,-1.022 0.484,-0.134 0.569,0 2.32,0.994 1.611,0.676 1.45,-3.405 2.099,-4.138 1.715,-3.7954 1.983,-3.7187 C 38.22,4.5981 39.563,4.8208 39.904,5.7441 L 39.938,5.6484 C 40.207,4.6533 39.567,3.9441 38.766,4.0039 Z m -4.784,17.799 -0.259,0.638 -0.094,0.153 0.08,0.035 0.709,0.453 1.158,0.496 1.998,0.912 0.207,0.383 0.051,-0.309 0.039,-0.523 -0.297,-0.551 -1.998,-0.912 -1.158,-0.496 -0.436,-0.279 z"
       id="path6069"
       inkscape:connector-curvature="0"
       style="opacity:0.2;fill:#ffffff" />
    <path
       d="m 39.904,4.7441 -0.687,2.0352 -0.875,2.1992 -1.033,2.4705 -1.334,3.49 -1.067,2.581 -1.185,2.921 -0.094,0.153 0.08,0.035 0.273,0.174 0.926,-2.283 1.067,-2.581 1.334,-3.49 1.033,-2.4705 0.875,-2.1992 0.721,-2.1309 C 40.031,5.302 39.999,5.001 39.904,4.7441 Z m -17.56,17.412 -0.313,0.41 0.108,0.295 0.242,0.35 1.672,0.992 2.103,1.289 c 2.538,1.538 4.014,3.549 6.752,4.32 l 3.41,0.393 0.573,0 0.039,-0.148 0.494,-3.037 0.408,-2.456 0.039,-0.523 -0.09,-0.168 -0.357,2.147 -0.494,3.037 -0.039,0.148 -0.573,0 -3.41,-0.393 c -2.738,-0.771 -4.214,-2.782 -6.752,-4.32 l -2.103,-1.289 -1.672,-0.992 -0.037,-0.055 z"
       id="path6074"
       inkscape:connector-curvature="0"
       style="opacity:0.3" />
    <path
       d="m 21.998,22.666 -2.482,2.816 -1.914,1.854 -2.131,1.422 L 12.908,30.1 9.9395,31.197 8.0801,31.629 8,31.869 l 0.1074,0.645 0.0391,0.099 1.793,-0.416 2.9685,-1.097 2.563,-1.342 2.131,-1.422 1.914,-1.854 2.482,-2.816 0.092,0.059 0.049,0.136 0.242,0.35 1.672,0.992 2.103,1.289 c 2.538,1.538 4.014,3.549 6.752,4.32 l 3.41,0.393 0.077,0 0.371,-1 -0.448,0 -3.41,-0.393 C 30.17,29.041 28.694,27.03 26.156,25.492 l -2.103,-1.289 -1.672,-0.992 -0.242,-0.35 -0.049,-0.136 -0.092,-0.059 z m -5.262,17.797 -1.486,0.014 -0.4,0.273 -0.028,0.324 0.475,0.371 1.439,-0.982 z m 4.534,2.305 c 0,0 -0.316,0.368 -0.813,0.726 -0.063,0.199 -0.105,0.38 -0.092,0.506 l 0.289,0 c 0.267,-0.614 0.616,-1.232 0.616,-1.232 z"
       id="path6084"
       inkscape:connector-curvature="0"
       style="opacity:0.2;fill:#ffffff" />
    <path
       d="m 36.395,30.205 -0.088,0.236 -0.944,2.334 -1.242,2.871 -0.781,1.45 -1.053,1.582 -1.348,1.584 c -1.282,1.333 -2.714,2.578 -4.88,2.629 l -2.053,-0.026 0.379,-0.59 -1.133,0.565 -0.998,0.16 -1.6,0 c -0.168,0.388 -0.312,0.775 -0.289,1 l 1.889,0 0.998,-0.16 1.133,-0.565 -0.379,0.59 2.053,0.026 c 2.166,-0.051 3.598,-1.296 4.88,-2.629 l 1.348,-1.584 1.053,-1.582 0.781,-1.45 1.242,-2.871 0.944,-2.334 0.459,-1.236 -0.371,0 z m -28.248,1.408 -0.0664,0.016 -0.0801,0.24 0.1074,0.645 0.4317,1.074 0.916,1.771 0.8909,1.313 1.726,1.799 0.782,0.777 0.701,0.244 1.695,-0.015 1.486,-1.014 -3.181,0.029 -0.701,-0.244 -0.782,-0.777 -1.726,-1.799 L 9.4556,34.359 8.5396,32.588 8.147,31.613 Z m 7.1505,8.832 -0.447,0.305 -0.028,0.324 1.133,0.885 1.537,0.885 c 1.168,0.647 2.257,0.16 2.965,-0.35 0.228,-0.718 0.813,-1.726 0.813,-1.726 0,0 -1.791,2.178 -3.778,1.076 l -1.537,-0.885 -0.658,-0.514 z"
       id="path6089"
       inkscape:connector-curvature="0"
       style="opacity:0.3" />
  </g>
</svg>
