<?xml version="1.0" encoding="UTF-8" standalone="no"?>
<!-- Created with Inkscape (http://www.inkscape.org/) -->

<svg
   xmlns:dc="http://purl.org/dc/elements/1.1/"
   xmlns:cc="http://creativecommons.org/ns#"
   xmlns:rdf="http://www.w3.org/1999/02/22-rdf-syntax-ns#"
   xmlns:svg="http://www.w3.org/2000/svg"
   xmlns="http://www.w3.org/2000/svg"
   xmlns:sodipodi="http://sodipodi.sourceforge.net/DTD/sodipodi-0.dtd"
   xmlns:inkscape="http://www.inkscape.org/namespaces/inkscape"
   id="svg2817"
   height="22"
   width="22"
   version="1.0"
   inkscape:version="0.91 r13725"
   sodipodi:docname="doublecmd.svg">
  <sodipodi:namedview
     pagecolor="#ffffff"
     bordercolor="#666666"
     borderopacity="1"
     objecttolerance="10"
     gridtolerance="10"
     guidetolerance="10"
     inkscape:pageopacity="0"
     inkscape:pageshadow="2"
     inkscape:window-width="1600"
     inkscape:window-height="846"
     id="namedview14"
     showgrid="false"
     inkscape:zoom="4.3299648"
     inkscape:cx="-55.580519"
     inkscape:cy="10"
     inkscape:window-x="0"
     inkscape:window-y="0"
     inkscape:window-maximized="1"
     inkscape:current-layer="svg2817" />
  <metadata
     id="metadata57">
    <rdf:RDF>
      <cc:Work
         rdf:about="">
        <dc:format>image/svg+xml</dc:format>
        <dc:type
           rdf:resource="http://purl.org/dc/dcmitype/StillImage" />
        <dc:title></dc:title>
      </cc:Work>
    </rdf:RDF>
  </metadata>
  <defs
     id="defs2819">
    <linearGradient
       id="linearGradient4191"
       y2="3.9509001"
       gradientUnits="userSpaceOnUse"
       x2="24.239"
       gradientTransform="translate(0,1)"
       y1="22.121"
       x1="24.292">
      <stop
         id="stop4187"
         offset="0" />
      <stop
         id="stop4189"
         stop-opacity="0"
         offset="1" />
    </linearGradient>
  </defs>
  <g
     id="g4142"
     transform="matrix(0.5,0,0,0.5,-1,-1)">
    <rect
       x="-44"
       y="-44"
       width="40"
       height="40"
       transform="matrix(0,-1,-1,0,0,0)"
       rx="2"
       ry="2"
       id="rect4203-6"
       style="fill:#d95951" />
    <path
       d="M 6,4 C 4.892,4 4,4.892 4,6 L 4,7 C 4,5.892 4.892,5 6,5 l 36,0 c 1.108,0 2,0.892 2,2 L 44,6 C 44,4.892 43.108,4 42,4 L 6,4 Z"
       id="rect4592"
       inkscape:connector-curvature="0"
       style="opacity:0.2;fill:#ffffff" />
    <path
       d="M 6,44 C 4.892,44 4,43.108 4,42 l 0,-1 c 0,1.108 0.892,2 2,2 l 36,0 c 1.108,0 2,-0.892 2,-2 l 0,1 c 0,1.108 -0.892,2 -2,2 L 6,44 Z"
       id="path4597"
       inkscape:connector-curvature="0"
       style="opacity:0.3" />
    <g
       transform="matrix(-0.99415,0,0,1.0059,35.415,0.58376)"
       id="text4220"
       style="opacity:0.8;fill:#ffffff">
      <path
         d="M 12.844,13 C 10.606,13 8.6588,13.421 7,14.26 l 1.0703,2.2832 c 1.6878,-0.78066 3.2886,-1.1719 4.8027,-1.1719 2.2761,0 4.0652,0.7707 5.3672,2.3125 1.302,1.5418 1.9531,3.6505 1.9531,6.3242 0,2.7616 -0.63112,4.8937 -1.8945,6.3965 -1.2634,1.493 -3.0625,2.2383 -5.3965,2.2383 -1.5045,0 -3.1975,-0.28168 -5.0781,-0.84766 l 0,2.3418 c 0.89693,0.33178 1.7604,0.55673 2.5898,0.67383 0.829,0.127 1.785,0.19 2.865,0.19 3.1151,0 5.5154,-0.95652 7.2031,-2.8691 1.679,-1.923 2.518,-4.64 2.518,-8.152 0,-2.206 -0.401,-4.138 -1.201,-5.797 -0.81,-1.659 -1.982,-2.939 -3.516,-3.836 -1.543,-0.898 -3.356,-1.346 -5.439,-1.346 z m 22.312,0 c -2.0832,0 -3.8964,0.44794 -5.4395,1.3457 -1.5335,0.89776 -2.7055,2.177 -3.5156,3.8359 -0.8,1.659 -1.201,3.591 -1.201,5.797 0,3.513 0.83946,6.23 2.5176,8.1523 1.687,1.912 4.088,2.869 7.203,2.869 1.0802,0 2.0358,-0.0626 2.8652,-0.18945 0.82942,-0.1171 1.6929,-0.34205 2.5898,-0.67383 l 0,-2.3418 c -1.8807,0.56598 -3.5736,0.84766 -5.0781,0.84766 -2.3339,0 -4.1331,-0.74527 -5.3965,-2.2383 -1.2634,-1.5028 -1.8945,-3.6349 -1.8945,-6.3965 0,-2.6738 0.65114,-4.7824 1.9531,-6.3242 1.30196,-1.5418 3.0911,-2.3125 5.3672,-2.3125 1.5142,0 3.115,0.39121 4.8027,1.1719 l 1.071,-2.283 c -1.659,-0.839 -3.606,-1.26 -5.844,-1.26 z"
         transform="matrix(-1.0059,0,0,0.99415,35.623,0.4138)"
         id="path4225"
         inkscape:connector-curvature="0" />
    </g>
    <path
       d="M 6,5 C 4.892,5 4,5.892 4,7 L 4,24 44,24 44,7 C 44,5.892 43.108,5 42,5 L 6,5 Z"
       id="path4026"
       style="opacity:0.1;fill:url(#linearGradient4191)"
       inkscape:connector-curvature="0" />
  </g>
</svg>
