<?xml version="1.0" encoding="UTF-8" standalone="no"?>
<svg
   xmlns:dc="http://purl.org/dc/elements/1.1/"
   xmlns:cc="http://creativecommons.org/ns#"
   xmlns:rdf="http://www.w3.org/1999/02/22-rdf-syntax-ns#"
   xmlns:svg="http://www.w3.org/2000/svg"
   xmlns="http://www.w3.org/2000/svg"
   version="1.1"
   id="svg4182"
   viewBox="0 0 21.999999 21.999999"
   height="22"
   width="22">
  <defs
     id="defs4184" />
  <metadata
     id="metadata4187">
    <rdf:RDF>
      <cc:Work
         rdf:about="">
        <dc:format>image/svg+xml</dc:format>
        <dc:type
           rdf:resource="http://purl.org/dc/dcmitype/StillImage" />
        <dc:title></dc:title>
      </cc:Work>
    </rdf:RDF>
  </metadata>
  <g
     transform="translate(0,-1030.3622)"
     id="layer1">
    <g
       id="layer1-5"
       transform="matrix(0.44999995,0,0,0.44999995,0.20000001,579.49926)">
      <path
         id="rect3200"
         d="m 7,1015.3622 7,0 c 1,0 2,2 2,2 l 25,0 c 1,0 2,5 2,5 l -38,0 c 0,0 1,-7 2,-7 z"
         style="opacity:1;fill:#631b1b;fill-opacity:1;stroke:none;stroke-width:2;stroke-miterlimit:4;stroke-dasharray:none;stroke-opacity:1" />
      <path
         style="opacity:1;fill:#ffffff;fill-opacity:1;stroke:none;stroke-width:2;stroke-miterlimit:4;stroke-dasharray:none;stroke-opacity:1"
         d="m 7,1018.3622 6.000003,0 c 1,0 0.999997,2 0.999997,2 l 21,0 0,5 -29,0 c 0,0 0,-7 1,-7 z"
         id="path3203" />
      <path
         style="opacity:0.3;fill:#000000;fill-opacity:1;stroke:none;stroke-width:2;stroke-miterlimit:4;stroke-dasharray:none;stroke-opacity:1"
         d="m 7,1018.3622 c -1,0 -1,7 -1,7 0,0 0,-6 1,-6 l 6,0 c 1,0 1,1 1,1 0,0 0,-2 -1,-2 l -6,0 z"
         id="path3214" />
      <path
         id="path3205"
         d="m 10,1018.3622 6.000003,0 c 1,0 0.999997,2 0.999997,2 l 18,0 0,5 -26,0 c 0,0 0,-7 1,-7 z"
         style="opacity:1;fill:#e6e6e6;fill-opacity:1;stroke:none;stroke-width:2;stroke-miterlimit:4;stroke-dasharray:none;stroke-opacity:1" />
      <path
         id="path3212"
         d="m 10,1018.3622 c -1,0 -1,7 -1,7 0,0 0,-6 1,-6 l 6,0 c 1,0 1,1 1,1 0,0 0,-2 -1,-2 l -6,0 z"
         style="opacity:0.3;fill:#000000;fill-opacity:1;stroke:none;stroke-width:2;stroke-miterlimit:4;stroke-dasharray:none;stroke-opacity:1" />
      <path
         style="opacity:1;fill:#cccccc;fill-opacity:1;stroke:none;stroke-width:2;stroke-miterlimit:4;stroke-dasharray:none;stroke-opacity:1"
         d="m 14,14 c -1,0 -1,7 -1,7 l 19,0 3,0 4,0 c 1.108,0 2,-0.892 2,-2 l 0,-1 c 0,-1.108 -0.892,-2 -2,-2 l -4,0 -3,0 -11,0 c 0,0 0,-2 -1,-2 l -6,0 z"
         transform="translate(0,1004.3622)"
         id="path3211" />
      <path
         style="opacity:0.3;fill:#000000;fill-opacity:1;stroke:none;stroke-width:2;stroke-miterlimit:4;stroke-dasharray:none;stroke-opacity:1"
         d="m 14,14 c -1,0 -1,7 -1,7 0,0 0,-6 1,-6 l 6,0 c 1,0 1,1 1,1 0,0 0,-2 -1,-2 l -6,0 z"
         transform="translate(0,1004.3622)"
         id="path3207" />
      <rect
         y="1021.3622"
         x="4"
         height="24.999966"
         width="40"
         id="rect3196"
         style="opacity:1;fill:#d35f5f;fill-opacity:1;stroke:none;stroke-width:2;stroke-miterlimit:4;stroke-dasharray:none;stroke-opacity:1"
         rx="2" />
      <path
         style="opacity:0.2;fill:#ffffff;fill-opacity:1;stroke:none;stroke-width:2;stroke-miterlimit:4;stroke-dasharray:none;stroke-opacity:1"
         d="m 7,11 c -1,0 -2,7 -2,7 0,0 1,-6.5 2,-6.5 l 7,0 c 1,0 2,2 2,2 l 25,0 c 1,0 2,4.5 2,4.5 0,0 -1,-5 -2,-5 l -25,0 c 0,0 -1,-2 -2,-2 z"
         transform="translate(0,1004.3622)"
         id="path3201" />
      <rect
         rx="0.90909094"
         y="1028.0441"
         x="19"
         height="1.8181819"
         width="10"
         id="rect3221"
         style="opacity:0.3;fill:#000000;fill-opacity:1;stroke:none;stroke-width:2;stroke-miterlimit:4;stroke-dasharray:none;stroke-opacity:1" />
      <rect
         style="opacity:1;fill:#ffffff;fill-opacity:1;stroke:none;stroke-width:2;stroke-miterlimit:4;stroke-dasharray:none;stroke-opacity:1"
         id="rect3219"
         width="10"
         height="1.8181819"
         x="19"
         y="1027.4531"
         rx="0.90909094" />
      <path
         style="opacity:0.2;fill:#ffffff;fill-opacity:1;stroke:none;stroke-width:2;stroke-miterlimit:4;stroke-dasharray:none;stroke-opacity:1"
         d="m 6,17 c -1.108,0 -2,0.892 -2,2 l 0,1 c 0,-1.108 0.892,-2 2,-2 l 36,0 c 1.108,0 2,0.892 2,2 l 0,-1 c 0,-1.108 -0.892,-2 -2,-2 L 6,17 Z"
         transform="translate(0,1004.3622)"
         id="rect3223" />
      <path
         style="opacity:0.3;fill:#000000;fill-opacity:1;stroke:none;stroke-width:2;stroke-miterlimit:4;stroke-dasharray:none;stroke-opacity:1"
         d="m 4,39 0,1 c 0,1.108 0.892,2 2,2 l 36,0 c 1.108,0 2,-0.892 2,-2 l 0,-1 c 0,1.108 -0.892,2 -2,2 L 6,41 C 4.892,41 4,40.108 4,39 Z"
         transform="translate(0,1004.3622)"
         id="rect3228" />
    </g>
  </g>
</svg>
