<svg height="22" width="22" xmlns="http://www.w3.org/2000/svg"><text opacity=".8" x="877.22626" y="8.8126011"><tspan x="877.22626" y="8.8126011"/></text><text opacity=".8" x="901.18719" y="-31.929106"><tspan x="901.18719" y="-31.929106"/></text><text opacity=".8" x="-569.37115" y="-62.007248"><tspan x="-569.37115" y="-62.007248"/></text><text opacity=".8" x="-2393.0571" y="683.5462"><tspan x="-2393.0571" y="683.5462"/></text><text opacity=".8" x="-454.88007" y="-447.32822"><tspan x="-454.88007" y="-447.32822"/></text><text opacity=".8" x="352.72208" y="-860.79834"><tspan x="352.72208" y="-860.79834"/></text><text opacity=".8" x="376.68301" y="-901.54004"><tspan x="376.68301" y="-901.54004"/></text><text opacity=".8" x="-1114.7802" y="-908.74994"><tspan x="-1114.7802" y="-908.74994"/></text><text opacity=".8" x="345.7626" y="-1181.9841"><tspan x="345.7626" y="-1181.9841"/></text><text opacity=".8" x="1831.8861" y="-555.29272"><tspan x="1831.8861" y="-555.29272"/></text><text opacity=".8" x="1855.8469" y="-596.03448"><tspan x="1855.8469" y="-596.03448"/></text><text opacity=".8" x="364.38376" y="-603.24438"><tspan x="364.38376" y="-603.24438"/></text><text opacity=".8" x="1824.9266" y="-876.47839"><tspan x="1824.9266" y="-876.47839"/></text><text opacity=".8" x="-573.43256" y="-651.33569"><tspan x="-573.43256" y="-651.33569"/></text><text opacity=".8" x="-2397.1182" y="94.217857"><tspan x="-2397.1182" y="94.217857"/></text><text opacity=".8" x="-682.36279" y="187.09"><tspan x="-682.36279" y="187.09"/></text><text opacity=".8" x="426.66153" y="7.9078522"><tspan x="426.66153" y="7.9078522"/></text><text opacity=".8" x="450.62247" y="-32.833855"><tspan x="450.62247" y="-32.833855"/></text><text opacity=".8" x="-1040.8407" y="-40.043827"><tspan x="-1040.8407" y="-40.043827"/></text><text opacity=".8" x="419.70206" y="-313.27789"><tspan x="419.70206" y="-313.27789"/></text><text opacity=".8" x="-608.03253" y="-42.758072"><tspan x="-608.03253" y="-42.758072"/></text><text opacity=".8" x="-2431.7185" y="702.79541"><tspan x="-2431.7185" y="702.79541"/></text><text opacity=".8" x="-456.93948" y="-904.28857"><tspan x="-456.93948" y="-904.28857"/></text><text opacity=".8" x="350.66266" y="-1317.7588"><tspan x="350.66266" y="-1317.7588"/></text><text opacity=".8" x="374.62357" y="-1358.5005"><tspan x="374.62357" y="-1358.5005"/></text><text opacity=".8" x="-1116.8396" y="-1365.7104"><tspan x="-1116.8396" y="-1365.7104"/></text><text opacity=".8" x="343.70316" y="-1638.9446"><tspan x="343.70316" y="-1638.9446"/></text><text opacity=".8" x="1829.8265" y="-1012.2533"><tspan x="1829.8265" y="-1012.2533"/></text><text opacity=".8" x="1853.7874" y="-1052.9949"><tspan x="1853.7874" y="-1052.9949"/></text><text opacity=".8" x="362.32431" y="-1060.2048"><tspan x="362.32431" y="-1060.2048"/></text><text opacity=".8" x="1822.8671" y="-1333.439"><tspan x="1822.8671" y="-1333.439"/></text><text opacity=".8" x="-575.492" y="-1108.2961"><tspan x="-575.492" y="-1108.2961"/></text><text opacity=".8" x="-2399.1777" y="-362.74261"><tspan x="-2399.1777" y="-362.74261"/></text><text opacity=".8" x="-684.42224" y="-269.87045"><tspan x="-684.42224" y="-269.87045"/></text><text opacity=".8" x="155.5923" y="-28.956278"><tspan x="155.5923" y="-28.956278"/></text><text opacity=".8" x="179.55324" y="-69.697998"><tspan x="179.55324" y="-69.697998"/></text><text opacity=".8" x="-1090.2634" y="-263.72662"><tspan x="-1090.2634" y="-263.72662"/></text><text opacity=".8" x="-282.66141" y="-677.19678"><tspan x="-282.66141" y="-677.19678"/></text><text opacity=".8" x="-258.70047" y="-717.93848"><tspan x="-258.70047" y="-717.93848"/></text><text opacity=".8" x="-1750.1636" y="-725.14838"><tspan x="-1750.1636" y="-725.14838"/></text><text opacity=".8" x="-289.62085" y="-998.38251"><tspan x="-289.62085" y="-998.38251"/></text><text opacity=".8" x="1196.5026" y="-371.69113"><tspan x="1196.5026" y="-371.69113"/></text><text opacity=".8" x="1220.4634" y="-412.43286"><tspan x="1220.4634" y="-412.43286"/></text><text opacity=".8" x="-270.99973" y="-419.64282"><tspan x="-270.99973" y="-419.64282"/></text><text opacity=".8" x="1189.5431" y="-692.87689"><tspan x="1189.5431" y="-692.87689"/></text><text opacity=".8" x="-1208.816" y="-467.7341"><tspan x="-1208.816" y="-467.7341"/></text><text opacity=".8" x="-3032.5017" y="277.81946"><tspan x="-3032.5017" y="277.81946"/></text><text opacity=".8" transform="matrix(.90475 0 0 .90475 -716.75 -678.29)" x="-664.2738" y="1159.4154"><tspan x="-664.2738" y="1159.4154"/></text><text opacity=".8" x="877.22626" y="16.050589"><tspan x="877.22626" y="16.050589"/></text><text opacity=".8" x="901.18719" y="-24.691116"><tspan x="901.18719" y="-24.691116"/></text><text opacity=".8" x="-569.37115" y="-54.76926"><tspan x="-569.37115" y="-54.76926"/></text><text opacity=".8" x="-2393.0571" y="690.78418"><tspan x="-2393.0571" y="690.78418"/></text><text opacity=".8" x="-454.88007" y="-440.09021"><tspan x="-454.88007" y="-440.09021"/></text><text opacity=".8" x="352.72208" y="-853.5603"><tspan x="352.72208" y="-853.5603"/></text><text opacity=".8" x="376.68301" y="-894.30206"><tspan x="376.68301" y="-894.30206"/></text><text opacity=".8" x="-1114.7802" y="-901.51196"><tspan x="-1114.7802" y="-901.51196"/></text><text opacity=".8" x="345.7626" y="-1174.7461"><tspan x="345.7626" y="-1174.7461"/></text><text opacity=".8" x="1831.8861" y="-548.05475"><tspan x="1831.8861" y="-548.05475"/></text><text opacity=".8" x="1855.8469" y="-588.79651"><tspan x="1855.8469" y="-588.79651"/></text><text opacity=".8" x="364.38376" y="-596.00641"><tspan x="364.38376" y="-596.00641"/></text><text opacity=".8" x="1824.9266" y="-869.24036"><tspan x="1824.9266" y="-869.24036"/></text><text opacity=".8" x="-573.43256" y="-644.09772"><tspan x="-573.43256" y="-644.09772"/></text><text opacity=".8" x="-2397.1182" y="101.45585"><tspan x="-2397.1182" y="101.45585"/></text><text opacity=".8" x="-682.36279" y="194.32799"><tspan x="-682.36279" y="194.32799"/></text><text opacity=".8" x="426.66153" y="15.14584"><tspan x="426.66153" y="15.14584"/></text><text opacity=".8" x="450.62247" y="-25.595865"><tspan x="450.62247" y="-25.595865"/></text><text opacity=".8" x="-1040.8407" y="-32.805836"><tspan x="-1040.8407" y="-32.805836"/></text><text opacity=".8" x="419.70206" y="-306.03989"><tspan x="419.70206" y="-306.03989"/></text><text opacity=".8" x="-608.03253" y="-35.520081"><tspan x="-608.03253" y="-35.520081"/></text><text opacity=".8" x="-2431.7185" y="710.03345"><tspan x="-2431.7185" y="710.03345"/></text><text opacity=".8" x="-456.93948" y="-897.0506"><tspan x="-456.93948" y="-897.0506"/></text><text opacity=".8" x="350.66266" y="-1310.5208"><tspan x="350.66266" y="-1310.5208"/></text><text opacity=".8" x="374.62357" y="-1351.2626"><tspan x="374.62357" y="-1351.2626"/></text><text opacity=".8" x="-1116.8396" y="-1358.4724"><tspan x="-1116.8396" y="-1358.4724"/></text><text opacity=".8" x="343.70316" y="-1631.7065"><tspan x="343.70316" y="-1631.7065"/></text><text opacity=".8" x="1829.8265" y="-1005.0153"><tspan x="1829.8265" y="-1005.0153"/></text><text opacity=".8" x="1853.7874" y="-1045.757"><tspan x="1853.7874" y="-1045.757"/></text><text opacity=".8" x="362.32431" y="-1052.9668"><tspan x="362.32431" y="-1052.9668"/></text><text opacity=".8" x="1822.8671" y="-1326.2009"><tspan x="1822.8671" y="-1326.2009"/></text><text opacity=".8" x="-575.492" y="-1101.0581"><tspan x="-575.492" y="-1101.0581"/></text><text opacity=".8" x="-2399.1777" y="-355.50461"><tspan x="-2399.1777" y="-355.50461"/></text><text opacity=".8" x="-684.42224" y="-262.63245"><tspan x="-684.42224" y="-262.63245"/></text><text opacity=".8" x="155.5923" y="-21.71829"><tspan x="155.5923" y="-21.71829"/></text><text opacity=".8" x="179.55324" y="-62.460011"><tspan x="179.55324" y="-62.460011"/></text><text opacity=".8" x="-1090.2634" y="-256.48859"><tspan x="-1090.2634" y="-256.48859"/></text><text opacity=".8" x="-282.66141" y="-669.9588"><tspan x="-282.66141" y="-669.9588"/></text><text opacity=".8" x="-258.70047" y="-710.7005"><tspan x="-258.70047" y="-710.7005"/></text><text opacity=".8" x="-1750.1636" y="-717.91046"><tspan x="-1750.1636" y="-717.91046"/></text><text opacity=".8" x="-289.62085" y="-991.14447"><tspan x="-289.62085" y="-991.14447"/></text><text opacity=".8" x="1196.5026" y="-364.45316"><tspan x="1196.5026" y="-364.45316"/></text><text opacity=".8" x="1220.4634" y="-405.19489"><tspan x="1220.4634" y="-405.19489"/></text><text opacity=".8" x="-270.99973" y="-412.40482"><tspan x="-270.99973" y="-412.40482"/></text><text opacity=".8" x="1189.5431" y="-685.63892"><tspan x="1189.5431" y="-685.63892"/></text><text opacity=".8" x="-1208.816" y="-460.49609"><tspan x="-1208.816" y="-460.49609"/></text><text opacity=".8" x="-3032.5017" y="285.05743"><tspan x="-3032.5017" y="285.05743"/></text><text opacity=".8" transform="matrix(.90475 0 0 .90475 -716.75 -671.05)" x="-664.2738" y="1159.4154"><tspan x="-664.2738" y="1159.4154"/></text><text x="435.90427" y="-363.22546"><tspan x="435.90427" y="-363.22546"/><tspan x="435.90427" y="-347.3924"/></text><text opacity=".8" x="901.0882" y="-845.27002"><tspan x="901.0882" y="-845.27002"/></text><text opacity=".8" x="-922.59778" y="-99.716553"><tspan x="-922.59778" y="-99.716553"/></text><text opacity=".8" x="1628.1677" y="-1130.2659"><tspan x="1628.1677" y="-1130.2659"/></text><text opacity=".8" x="1652.1285" y="-1171.0076"><tspan x="1652.1285" y="-1171.0076"/></text><text opacity=".8" x="160.66542" y="-1178.2175"><tspan x="160.66542" y="-1178.2175"/></text><text opacity=".8" x="1621.2083" y="-1451.4517"><tspan x="1621.2083" y="-1451.4517"/></text><text opacity=".8" x="815.97375" y="7.8175516"><tspan x="815.97375" y="7.8175516"/></text><text opacity=".8" x="839.93469" y="-32.924156"><tspan x="839.93469" y="-32.924156"/></text><text opacity=".8" x="-630.62366" y="-63.002296"><tspan x="-630.62366" y="-63.002296"/></text><text opacity=".8" x="-2454.3096" y="682.55115"><tspan x="-2454.3096" y="682.55115"/></text><text opacity=".8" x="-516.13257" y="-448.32327"><tspan x="-516.13257" y="-448.32327"/></text><text opacity=".8" x="291.4696" y="-861.7934"><tspan x="291.4696" y="-861.7934"/></text><text opacity=".8" x="315.43054" y="-902.5351"><tspan x="315.43054" y="-902.5351"/></text><text opacity=".8" x="-1176.0326" y="-909.745"><tspan x="-1176.0326" y="-909.745"/></text><text opacity=".8" x="284.51013" y="-1182.9791"><tspan x="284.51013" y="-1182.9791"/></text><text opacity=".8" x="1770.6337" y="-556.28778"><tspan x="1770.6337" y="-556.28778"/></text><text opacity=".8" x="1794.5945" y="-597.02954"><tspan x="1794.5945" y="-597.02954"/></text><text opacity=".8" x="303.13129" y="-604.23944"><tspan x="303.13129" y="-604.23944"/></text><text opacity=".8" x="1763.6742" y="-877.47345"><tspan x="1763.6742" y="-877.47345"/></text><text opacity=".8" x="-634.68506" y="-652.33075"><tspan x="-634.68506" y="-652.33075"/></text><text opacity=".8" x="-2458.3706" y="93.222809"><tspan x="-2458.3706" y="93.222809"/></text><text opacity=".8" x="-743.6153" y="186.09494"><tspan x="-743.6153" y="186.09494"/></text><text opacity=".8" x="365.40906" y="6.9128027"><tspan x="365.40906" y="6.9128027"/></text><text opacity=".8" x="389.37" y="-33.828903"><tspan x="389.37" y="-33.828903"/></text><text opacity=".8" x="-1102.0931" y="-41.038876"><tspan x="-1102.0931" y="-41.038876"/></text><text opacity=".8" x="358.44958" y="-314.27295"><tspan x="358.44958" y="-314.27295"/></text><text opacity=".8" x="-669.28503" y="-43.75312"><tspan x="-669.28503" y="-43.75312"/></text><text opacity=".8" x="-2492.9709" y="701.80035"><tspan x="-2492.9709" y="701.80035"/></text><text opacity=".8" x="-518.19196" y="-905.28363"><tspan x="-518.19196" y="-905.28363"/></text><text opacity=".8" x="289.41019" y="-1318.7538"><tspan x="289.41019" y="-1318.7538"/></text><text opacity=".8" x="313.37109" y="-1359.4955"><tspan x="313.37109" y="-1359.4955"/></text><text opacity=".8" x="-1178.092" y="-1366.7054"><tspan x="-1178.092" y="-1366.7054"/></text><text opacity=".8" x="282.45068" y="-1639.9396"><tspan x="282.45068" y="-1639.9396"/></text><text opacity=".8" x="1768.5741" y="-1013.2484"><tspan x="1768.5741" y="-1013.2484"/></text><text opacity=".8" x="1792.5349" y="-1053.9899"><tspan x="1792.5349" y="-1053.9899"/></text><text opacity=".8" x="301.07184" y="-1061.1998"><tspan x="301.07184" y="-1061.1998"/></text><text opacity=".8" x="1761.6146" y="-1334.434"><tspan x="1761.6146" y="-1334.434"/></text><text opacity=".8" x="-636.74451" y="-1109.2911"><tspan x="-636.74451" y="-1109.2911"/></text><text opacity=".8" x="-2460.4302" y="-363.73767"><tspan x="-2460.4302" y="-363.73767"/></text><text opacity=".8" x="-745.67474" y="-270.86551"><tspan x="-745.67474" y="-270.86551"/></text><text opacity=".8" x="94.339828" y="-29.951328"><tspan x="94.339828" y="-29.951328"/></text><text opacity=".8" x="118.30077" y="-70.693047"><tspan x="118.30077" y="-70.693047"/></text><text opacity=".8" x="-1151.5159" y="-264.72168"><tspan x="-1151.5159" y="-264.72168"/></text><text opacity=".8" x="-343.91388" y="-678.19183"><tspan x="-343.91388" y="-678.19183"/></text><text opacity=".8" x="-319.95294" y="-718.93353"><tspan x="-319.95294" y="-718.93353"/></text><text opacity=".8" x="-1811.416" y="-726.14343"><tspan x="-1811.416" y="-726.14343"/></text><text opacity=".8" x="-350.87332" y="-999.37756"><tspan x="-350.87332" y="-999.37756"/></text><text opacity=".8" x="1135.2501" y="-372.68619"><tspan x="1135.2501" y="-372.68619"/></text><text opacity=".8" x="1159.2109" y="-413.42792"><tspan x="1159.2109" y="-413.42792"/></text><text opacity=".8" x="-332.2522" y="-420.63788"><tspan x="-332.2522" y="-420.63788"/></text><text opacity=".8" x="1128.2906" y="-693.87195"><tspan x="1128.2906" y="-693.87195"/></text><text opacity=".8" x="-1270.0685" y="-468.72916"><tspan x="-1270.0685" y="-468.72916"/></text><text opacity=".8" x="-3093.7542" y="276.8244"><tspan x="-3093.7542" y="276.8244"/></text><text opacity=".8" x="-1378.9988" y="369.6965"><tspan x="-1378.9988" y="369.6965"/></text><text opacity=".8" x="815.97375" y="15.055538"><tspan x="815.97375" y="15.055538"/></text><text opacity=".8" x="839.93469" y="-25.686167"><tspan x="839.93469" y="-25.686167"/></text><text opacity=".8" x="-630.62366" y="-55.764309"><tspan x="-630.62366" y="-55.764309"/></text><text opacity=".8" x="-2454.3096" y="689.78912"><tspan x="-2454.3096" y="689.78912"/></text><text opacity=".8" x="-516.13257" y="-441.08527"><tspan x="-516.13257" y="-441.08527"/></text><text opacity=".8" x="291.4696" y="-854.55536"><tspan x="291.4696" y="-854.55536"/></text><text opacity=".8" x="315.43054" y="-895.29712"><tspan x="315.43054" y="-895.29712"/></text><text opacity=".8" x="-1176.0326" y="-902.50702"><tspan x="-1176.0326" y="-902.50702"/></text><text opacity=".8" x="284.51013" y="-1175.7411"><tspan x="284.51013" y="-1175.7411"/></text><text opacity=".8" x="1770.6337" y="-549.0498"><tspan x="1770.6337" y="-549.0498"/></text><text opacity=".8" x="1794.5945" y="-589.79156"><tspan x="1794.5945" y="-589.79156"/></text><text opacity=".8" x="303.13129" y="-597.00146"><tspan x="303.13129" y="-597.00146"/></text><text opacity=".8" x="1763.6742" y="-870.23541"><tspan x="1763.6742" y="-870.23541"/></text><text opacity=".8" x="-634.68506" y="-645.09277"><tspan x="-634.68506" y="-645.09277"/></text><text opacity=".8" x="-2458.3706" y="100.4608"><tspan x="-2458.3706" y="100.4608"/></text><text opacity=".8" x="-743.6153" y="193.33293"><tspan x="-743.6153" y="193.33293"/></text><text opacity=".8" x="365.40906" y="14.150789"><tspan x="365.40906" y="14.150789"/></text><text opacity=".8" x="389.37" y="-26.590916"><tspan x="389.37" y="-26.590916"/></text><text opacity=".8" x="-1102.0931" y="-33.800888"><tspan x="-1102.0931" y="-33.800888"/></text><text opacity=".8" x="358.44958" y="-307.03494"><tspan x="358.44958" y="-307.03494"/></text><text opacity=".8" x="-669.28503" y="-36.515129"><tspan x="-669.28503" y="-36.515129"/></text><text opacity=".8" x="-2492.9709" y="709.03839"><tspan x="-2492.9709" y="709.03839"/></text><text opacity=".8" x="-518.19196" y="-898.04565"><tspan x="-518.19196" y="-898.04565"/></text><text opacity=".8" x="289.41019" y="-1311.5157"><tspan x="289.41019" y="-1311.5157"/></text><text opacity=".8" x="313.37109" y="-1352.2576"><tspan x="313.37109" y="-1352.2576"/></text><text opacity=".8" x="-1178.092" y="-1359.4674"><tspan x="-1178.092" y="-1359.4674"/></text><text opacity=".8" x="282.45068" y="-1632.7015"><tspan x="282.45068" y="-1632.7015"/></text><text opacity=".8" x="1768.5741" y="-1006.0104"><tspan x="1768.5741" y="-1006.0104"/></text><text opacity=".8" x="1792.5349" y="-1046.752"><tspan x="1792.5349" y="-1046.752"/></text><text opacity=".8" x="301.07184" y="-1053.9618"><tspan x="301.07184" y="-1053.9618"/></text><text opacity=".8" x="1761.6146" y="-1327.1959"><tspan x="1761.6146" y="-1327.1959"/></text><text opacity=".8" x="-636.74451" y="-1102.0531"><tspan x="-636.74451" y="-1102.0531"/></text><text opacity=".8" x="-2460.4302" y="-356.49966"><tspan x="-2460.4302" y="-356.49966"/></text><text opacity=".8" x="-745.67474" y="-263.6275"><tspan x="-745.67474" y="-263.6275"/></text><text opacity=".8" x="94.339828" y="-22.713341"><tspan x="94.339828" y="-22.713341"/></text><text opacity=".8" x="118.30077" y="-63.455059"><tspan x="118.30077" y="-63.455059"/></text><text opacity=".8" x="-1151.5159" y="-257.48364"><tspan x="-1151.5159" y="-257.48364"/></text><text opacity=".8" x="-343.91388" y="-670.95386"><tspan x="-343.91388" y="-670.95386"/></text><text opacity=".8" x="-319.95294" y="-711.69556"><tspan x="-319.95294" y="-711.69556"/></text><text opacity=".8" x="-1811.416" y="-718.90552"><tspan x="-1811.416" y="-718.90552"/></text><text opacity=".8" x="-350.87332" y="-992.13953"><tspan x="-350.87332" y="-992.13953"/></text><text opacity=".8" x="1135.2501" y="-365.44821"><tspan x="1135.2501" y="-365.44821"/></text><text opacity=".8" x="1159.2109" y="-406.18994"><tspan x="1159.2109" y="-406.18994"/></text><text opacity=".8" x="-332.2522" y="-413.39987"><tspan x="-332.2522" y="-413.39987"/></text><text opacity=".8" x="1128.2906" y="-686.63397"><tspan x="1128.2906" y="-686.63397"/></text><text opacity=".8" x="-1270.0685" y="-461.49115"><tspan x="-1270.0685" y="-461.49115"/></text><text opacity=".8" x="-3093.7542" y="284.06238"><tspan x="-3093.7542" y="284.06238"/></text><text opacity=".8" x="-1378.9988" y="376.93451"><tspan x="-1378.9988" y="376.93451"/></text><text x="374.65179" y="-364.22052"><tspan x="374.65179" y="-364.22052"/><tspan x="374.65179" y="-348.38745"/></text><text opacity=".8" x="839.83569" y="-846.26508"><tspan x="839.83569" y="-846.26508"/></text><text opacity=".8" x="-983.85028" y="-100.7116"><tspan x="-983.85028" y="-100.7116"/></text><text opacity=".8" x="1566.9153" y="-1131.2609"><tspan x="1566.9153" y="-1131.2609"/></text><text opacity=".8" x="1590.8761" y="-1172.0026"><tspan x="1590.8761" y="-1172.0026"/></text><text opacity=".8" x="99.412949" y="-1179.2125"><tspan x="99.412949" y="-1179.2125"/></text><text opacity=".8" x="1559.9558" y="-1452.4467"><tspan x="1559.9558" y="-1452.4467"/></text><text opacity=".8" x="825.30481" y="9.4376011"><tspan x="825.30481" y="9.4376011"/></text><text opacity=".8" x="849.26575" y="-31.304106"><tspan x="849.26575" y="-31.304106"/></text><text opacity=".8" x="-621.2926" y="-61.382248"><tspan x="-621.2926" y="-61.382248"/></text><text opacity=".8" x="-2444.9785" y="684.1712"><tspan x="-2444.9785" y="684.1712"/></text><text opacity=".8" x="-506.80148" y="-446.70322"><tspan x="-506.80148" y="-446.70322"/></text><text opacity=".8" x="300.80066" y="-860.17334"><tspan x="300.80066" y="-860.17334"/></text><text opacity=".8" x="324.7616" y="-900.91504"><tspan x="324.7616" y="-900.91504"/></text><text opacity=".8" x="-1166.7015" y="-908.12494"><tspan x="-1166.7015" y="-908.12494"/></text><text opacity=".8" x="293.84119" y="-1181.3591"><tspan x="293.84119" y="-1181.3591"/></text><text opacity=".8" x="1779.9647" y="-554.66772"><tspan x="1779.9647" y="-554.66772"/></text><text opacity=".8" x="1803.9255" y="-595.40948"><tspan x="1803.9255" y="-595.40948"/></text><text opacity=".8" x="312.46234" y="-602.61938"><tspan x="312.46234" y="-602.61938"/></text><text opacity=".8" x="1773.0052" y="-875.85339"><tspan x="1773.0052" y="-875.85339"/></text><text opacity=".8" x="-625.354" y="-650.71069"><tspan x="-625.354" y="-650.71069"/></text><text opacity=".8" x="-2449.0396" y="94.842857"><tspan x="-2449.0396" y="94.842857"/></text><text opacity=".8" x="-734.28424" y="187.715"><tspan x="-734.28424" y="187.715"/></text><text opacity=".8" x="374.74011" y="8.5328522"><tspan x="374.74011" y="8.5328522"/></text><text opacity=".8" x="398.70105" y="-32.208855"><tspan x="398.70105" y="-32.208855"/></text><text opacity=".8" x="-1092.7621" y="-39.418827"><tspan x="-1092.7621" y="-39.418827"/></text><text opacity=".8" x="367.78064" y="-312.65289"><tspan x="367.78064" y="-312.65289"/></text><text opacity=".8" x="-659.95398" y="-42.133072"><tspan x="-659.95398" y="-42.133072"/></text><text opacity=".8" x="-2483.6399" y="703.42041"><tspan x="-2483.6399" y="703.42041"/></text><text opacity=".8" x="-508.8609" y="-903.66357"><tspan x="-508.8609" y="-903.66357"/></text><text opacity=".8" x="298.74124" y="-1317.1338"><tspan x="298.74124" y="-1317.1338"/></text><text opacity=".8" x="322.70215" y="-1357.8755"><tspan x="322.70215" y="-1357.8755"/></text><text opacity=".8" x="-1168.761" y="-1365.0854"><tspan x="-1168.761" y="-1365.0854"/></text><text opacity=".8" x="291.78174" y="-1638.3196"><tspan x="291.78174" y="-1638.3196"/></text><text opacity=".8" x="1777.9052" y="-1011.6283"><tspan x="1777.9052" y="-1011.6283"/></text><text opacity=".8" x="1801.866" y="-1052.3699"><tspan x="1801.866" y="-1052.3699"/></text><text opacity=".8" x="310.40289" y="-1059.5798"><tspan x="310.40289" y="-1059.5798"/></text><text opacity=".8" x="1770.9457" y="-1332.814"><tspan x="1770.9457" y="-1332.814"/></text><text opacity=".8" x="-627.41345" y="-1107.6711"><tspan x="-627.41345" y="-1107.6711"/></text><text opacity=".8" x="-2451.0991" y="-362.11761"><tspan x="-2451.0991" y="-362.11761"/></text><text opacity=".8" x="-736.34369" y="-269.24545"><tspan x="-736.34369" y="-269.24545"/></text><text opacity=".8" x="103.67087" y="-28.331278"><tspan x="103.67087" y="-28.331278"/></text><text opacity=".8" x="127.63181" y="-69.072998"><tspan x="127.63181" y="-69.072998"/></text><text opacity=".8" x="-1142.1848" y="-263.10162"><tspan x="-1142.1848" y="-263.10162"/></text><text opacity=".8" x="-334.58282" y="-676.57178"><tspan x="-334.58282" y="-676.57178"/></text><text opacity=".8" x="-310.62189" y="-717.31348"><tspan x="-310.62189" y="-717.31348"/></text><text opacity=".8" x="-1802.085" y="-724.52338"><tspan x="-1802.085" y="-724.52338"/></text><text opacity=".8" x="-341.54227" y="-997.75751"><tspan x="-341.54227" y="-997.75751"/></text><text opacity=".8" x="1144.5812" y="-371.06613"><tspan x="1144.5812" y="-371.06613"/></text><text opacity=".8" x="1168.542" y="-411.80786"><tspan x="1168.542" y="-411.80786"/></text><text opacity=".8" x="-322.92114" y="-419.01782"><tspan x="-322.92114" y="-419.01782"/></text><text opacity=".8" x="1137.6217" y="-692.25189"><tspan x="1137.6217" y="-692.25189"/></text><text opacity=".8" x="-1260.7374" y="-467.1091"><tspan x="-1260.7374" y="-467.1091"/></text><text opacity=".8" x="-3084.4231" y="278.44446"><tspan x="-3084.4231" y="278.44446"/></text><text opacity=".8" transform="matrix(.90475 0 0 .90475 -768.67 -677.66)" x="-664.2738" y="1159.4154"><tspan x="-664.2738" y="1159.4154"/></text><text opacity=".8" x="825.30481" y="16.675589"><tspan x="825.30481" y="16.675589"/></text><text opacity=".8" x="849.26575" y="-24.066116"><tspan x="849.26575" y="-24.066116"/></text><text opacity=".8" x="-621.2926" y="-54.14426"><tspan x="-621.2926" y="-54.14426"/></text><text opacity=".8" x="-2444.9785" y="691.40918"><tspan x="-2444.9785" y="691.40918"/></text><text opacity=".8" x="-506.80148" y="-439.46521"><tspan x="-506.80148" y="-439.46521"/></text><text opacity=".8" x="300.80066" y="-852.9353"><tspan x="300.80066" y="-852.9353"/></text><text opacity=".8" x="324.7616" y="-893.67706"><tspan x="324.7616" y="-893.67706"/></text><text opacity=".8" x="-1166.7015" y="-900.88696"><tspan x="-1166.7015" y="-900.88696"/></text><text opacity=".8" x="293.84119" y="-1174.1211"><tspan x="293.84119" y="-1174.1211"/></text><text opacity=".8" x="1779.9647" y="-547.42975"><tspan x="1779.9647" y="-547.42975"/></text><text opacity=".8" x="1803.9255" y="-588.17151"><tspan x="1803.9255" y="-588.17151"/></text><text opacity=".8" x="312.46234" y="-595.38141"><tspan x="312.46234" y="-595.38141"/></text><text opacity=".8" x="1773.0052" y="-868.61536"><tspan x="1773.0052" y="-868.61536"/></text><text opacity=".8" x="-625.354" y="-643.47272"><tspan x="-625.354" y="-643.47272"/></text><text opacity=".8" x="-2449.0396" y="102.08085"><tspan x="-2449.0396" y="102.08085"/></text><text opacity=".8" x="-734.28424" y="194.95299"><tspan x="-734.28424" y="194.95299"/></text><text opacity=".8" x="374.74011" y="15.77084"><tspan x="374.74011" y="15.77084"/></text><text opacity=".8" x="398.70105" y="-24.970865"><tspan x="398.70105" y="-24.970865"/></text><text opacity=".8" x="-1092.7621" y="-32.180836"><tspan x="-1092.7621" y="-32.180836"/></text><text opacity=".8" x="367.78064" y="-305.41489"><tspan x="367.78064" y="-305.41489"/></text><text opacity=".8" x="-659.95398" y="-34.895081"><tspan x="-659.95398" y="-34.895081"/></text><text opacity=".8" x="-2483.6399" y="710.65845"><tspan x="-2483.6399" y="710.65845"/></text><text opacity=".8" x="-508.8609" y="-896.4256"><tspan x="-508.8609" y="-896.4256"/></text><text opacity=".8" x="298.74124" y="-1309.8958"><tspan x="298.74124" y="-1309.8958"/></text><text opacity=".8" x="322.70215" y="-1350.6376"><tspan x="322.70215" y="-1350.6376"/></text><text opacity=".8" x="-1168.761" y="-1357.8474"><tspan x="-1168.761" y="-1357.8474"/></text><text opacity=".8" x="291.78174" y="-1631.0815"><tspan x="291.78174" y="-1631.0815"/></text><text opacity=".8" x="1777.9052" y="-1004.3903"><tspan x="1777.9052" y="-1004.3903"/></text><text opacity=".8" x="1801.866" y="-1045.132"><tspan x="1801.866" y="-1045.132"/></text><text opacity=".8" x="310.40289" y="-1052.3418"><tspan x="310.40289" y="-1052.3418"/></text><text opacity=".8" x="1770.9457" y="-1325.5759"><tspan x="1770.9457" y="-1325.5759"/></text><text opacity=".8" x="-627.41345" y="-1100.4331"><tspan x="-627.41345" y="-1100.4331"/></text><text opacity=".8" x="-2451.0991" y="-354.87961"><tspan x="-2451.0991" y="-354.87961"/></text><text opacity=".8" x="-736.34369" y="-262.00745"><tspan x="-736.34369" y="-262.00745"/></text><text opacity=".8" x="103.67087" y="-21.09329"><tspan x="103.67087" y="-21.09329"/></text><text opacity=".8" x="127.63181" y="-61.835011"><tspan x="127.63181" y="-61.835011"/></text><text opacity=".8" x="-1142.1848" y="-255.8636"><tspan x="-1142.1848" y="-255.8636"/></text><text opacity=".8" x="-334.58282" y="-669.3338"><tspan x="-334.58282" y="-669.3338"/></text><text opacity=".8" x="-310.62189" y="-710.0755"><tspan x="-310.62189" y="-710.0755"/></text><text opacity=".8" x="-1802.085" y="-717.28546"><tspan x="-1802.085" y="-717.28546"/></text><text opacity=".8" x="-341.54227" y="-990.51947"><tspan x="-341.54227" y="-990.51947"/></text><text opacity=".8" x="1144.5812" y="-363.82816"><tspan x="1144.5812" y="-363.82816"/></text><text opacity=".8" x="1168.542" y="-404.56989"><tspan x="1168.542" y="-404.56989"/></text><text opacity=".8" x="-322.92114" y="-411.77982"><tspan x="-322.92114" y="-411.77982"/></text><text opacity=".8" x="1137.6217" y="-685.01392"><tspan x="1137.6217" y="-685.01392"/></text><text opacity=".8" x="-1260.7374" y="-459.87109"><tspan x="-1260.7374" y="-459.87109"/></text><text opacity=".8" x="-3084.4231" y="285.68243"><tspan x="-3084.4231" y="285.68243"/></text><text opacity=".8" transform="matrix(.90475 0 0 .90475 -768.67 -670.42)" x="-664.2738" y="1159.4154"><tspan x="-664.2738" y="1159.4154"/></text><text x="383.98285" y="-362.60046"><tspan x="383.98285" y="-362.60046"/><tspan x="383.98285" y="-346.7674"/></text><text opacity=".8" x="849.16675" y="-844.64502"><tspan x="849.16675" y="-844.64502"/></text><text opacity=".8" x="-974.51923" y="-99.091553"><tspan x="-974.51923" y="-99.091553"/></text><text opacity=".8" x="1576.2463" y="-1129.6409"><tspan x="1576.2463" y="-1129.6409"/></text><text opacity=".8" x="1600.2072" y="-1170.3826"><tspan x="1600.2072" y="-1170.3826"/></text><text opacity=".8" x="108.74399" y="-1177.5925"><tspan x="108.74399" y="-1177.5925"/></text><text opacity=".8" x="1569.2869" y="-1450.8267"><tspan x="1569.2869" y="-1450.8267"/></text><text opacity=".8" x="775.73584" y="9.006567"><tspan x="775.73584" y="9.006567"/></text><text opacity=".8" x="799.69678" y="-31.73514"><tspan x="799.69678" y="-31.73514"/></text><text opacity=".8" x="-670.86157" y="-61.813282"><tspan x="-670.86157" y="-61.813282"/></text><text opacity=".8" x="-2494.5474" y="683.74017"><tspan x="-2494.5474" y="683.74017"/></text><text opacity=".8" x="-556.37048" y="-447.13425"><tspan x="-556.37048" y="-447.13425"/></text><text opacity=".8" x="251.23167" y="-860.60437"><tspan x="251.23167" y="-860.60437"/></text><text opacity=".8" x="275.19263" y="-901.34607"><tspan x="275.19263" y="-901.34607"/></text><text opacity=".8" x="-1216.2705" y="-908.55597"><tspan x="-1216.2705" y="-908.55597"/></text><text opacity=".8" x="244.2722" y="-1181.7902"><tspan x="244.2722" y="-1181.7902"/></text><text opacity=".8" x="1730.3958" y="-555.09875"><tspan x="1730.3958" y="-555.09875"/></text><text opacity=".8" x="1754.3566" y="-595.84052"><tspan x="1754.3566" y="-595.84052"/></text><text opacity=".8" x="262.89337" y="-603.05042"><tspan x="262.89337" y="-603.05042"/></text><text opacity=".8" x="1723.4363" y="-876.28442"><tspan x="1723.4363" y="-876.28442"/></text><text opacity=".8" x="-674.92297" y="-651.14172"><tspan x="-674.92297" y="-651.14172"/></text><text opacity=".8" x="-2498.6084" y="94.411819"><tspan x="-2498.6084" y="94.411819"/></text><text opacity=".8" x="-783.85321" y="187.28397"><tspan x="-783.85321" y="187.28397"/></text><text opacity=".8" x="325.17114" y="8.1018181"><tspan x="325.17114" y="8.1018181"/></text><text opacity=".8" x="349.13208" y="-32.639889"><tspan x="349.13208" y="-32.639889"/></text><text opacity=".8" x="-1142.3311" y="-39.849861"><tspan x="-1142.3311" y="-39.849861"/></text><text opacity=".8" x="318.21167" y="-313.08392"><tspan x="318.21167" y="-313.08392"/></text><text opacity=".8" x="-709.52295" y="-42.564106"><tspan x="-709.52295" y="-42.564106"/></text><text opacity=".8" x="-2533.2087" y="702.98938"><tspan x="-2533.2087" y="702.98938"/></text><text opacity=".8" x="-558.42987" y="-904.0946"><tspan x="-558.42987" y="-904.0946"/></text><text opacity=".8" x="249.17226" y="-1317.5648"><tspan x="249.17226" y="-1317.5648"/></text><text opacity=".8" x="273.13318" y="-1358.3065"><tspan x="273.13318" y="-1358.3065"/></text><text opacity=".8" x="-1218.33" y="-1365.5165"><tspan x="-1218.33" y="-1365.5165"/></text><text opacity=".8" x="242.21275" y="-1638.7506"><tspan x="242.21275" y="-1638.7506"/></text><text opacity=".8" x="1728.3362" y="-1012.0593"><tspan x="1728.3362" y="-1012.0593"/></text><text opacity=".8" x="1752.297" y="-1052.8009"><tspan x="1752.297" y="-1052.8009"/></text><text opacity=".8" x="260.83392" y="-1060.0109"><tspan x="260.83392" y="-1060.0109"/></text><text opacity=".8" x="1721.3767" y="-1333.245"><tspan x="1721.3767" y="-1333.245"/></text><text opacity=".8" x="-676.98242" y="-1108.1022"><tspan x="-676.98242" y="-1108.1022"/></text><text opacity=".8" x="-2500.668" y="-362.54865"><tspan x="-2500.668" y="-362.54865"/></text><text opacity=".8" x="-785.91266" y="-269.67648"><tspan x="-785.91266" y="-269.67648"/></text><text opacity=".8" x="54.101906" y="-28.762312"><tspan x="54.101906" y="-28.762312"/></text><text opacity=".8" x="78.062836" y="-69.504036"><tspan x="78.062836" y="-69.504036"/></text><text opacity=".8" x="-1191.7538" y="-263.53265"><tspan x="-1191.7538" y="-263.53265"/></text><text opacity=".8" x="-384.15179" y="-677.00281"><tspan x="-384.15179" y="-677.00281"/></text><text opacity=".8" x="-360.19086" y="-717.74451"><tspan x="-360.19086" y="-717.74451"/></text><text opacity=".8" x="-1851.6539" y="-724.95441"><tspan x="-1851.6539" y="-724.95441"/></text><text opacity=".8" x="-391.11124" y="-998.18854"><tspan x="-391.11124" y="-998.18854"/></text><text opacity=".8" x="1095.0122" y="-371.49716"><tspan x="1095.0122" y="-371.49716"/></text><text opacity=".8" x="1118.973" y="-412.23889"><tspan x="1118.973" y="-412.23889"/></text><text opacity=".8" x="-372.49011" y="-419.44885"><tspan x="-372.49011" y="-419.44885"/></text><text opacity=".8" x="1088.0527" y="-692.68292"><tspan x="1088.0527" y="-692.68292"/></text><text opacity=".8" x="-1310.3064" y="-467.54013"><tspan x="-1310.3064" y="-467.54013"/></text><text opacity=".8" x="-3133.9919" y="278.01343"><tspan x="-3133.9919" y="278.01343"/></text><text opacity=".8" transform="matrix(.90475 0 0 .90475 -818.24 -678.1)" x="-664.2738" y="1159.4154"><tspan x="-664.2738" y="1159.4154"/></text><text opacity=".8" x="775.73584" y="16.244555"><tspan x="775.73584" y="16.244555"/></text><text opacity=".8" x="799.69678" y="-24.49715"><tspan x="799.69678" y="-24.49715"/></text><text opacity=".8" x="-670.86157" y="-54.575294"><tspan x="-670.86157" y="-54.575294"/></text><text opacity=".8" x="-2494.5474" y="690.97815"><tspan x="-2494.5474" y="690.97815"/></text><text opacity=".8" x="-556.37048" y="-439.89624"><tspan x="-556.37048" y="-439.89624"/></text><text opacity=".8" x="251.23167" y="-853.36633"><tspan x="251.23167" y="-853.36633"/></text><text opacity=".8" x="275.19263" y="-894.10809"><tspan x="275.19263" y="-894.10809"/></text><text opacity=".8" x="-1216.2705" y="-901.31799"><tspan x="-1216.2705" y="-901.31799"/></text><text opacity=".8" x="244.2722" y="-1174.5521"><tspan x="244.2722" y="-1174.5521"/></text><text opacity=".8" x="1730.3958" y="-547.86078"><tspan x="1730.3958" y="-547.86078"/></text><text opacity=".8" x="1754.3566" y="-588.60254"><tspan x="1754.3566" y="-588.60254"/></text><text opacity=".8" x="262.89337" y="-595.81244"><tspan x="262.89337" y="-595.81244"/></text><text opacity=".8" x="1723.4363" y="-869.04639"><tspan x="1723.4363" y="-869.04639"/></text><text opacity=".8" x="-674.92297" y="-643.90375"><tspan x="-674.92297" y="-643.90375"/></text><text opacity=".8" x="-2498.6084" y="101.64981"><tspan x="-2498.6084" y="101.64981"/></text><text opacity=".8" x="-783.85321" y="194.52196"><tspan x="-783.85321" y="194.52196"/></text><text opacity=".8" x="325.17114" y="15.339806"><tspan x="325.17114" y="15.339806"/></text><text opacity=".8" x="349.13208" y="-25.401899"><tspan x="349.13208" y="-25.401899"/></text><text opacity=".8" x="-1142.3311" y="-32.61187"><tspan x="-1142.3311" y="-32.61187"/></text><text opacity=".8" x="318.21167" y="-305.84592"><tspan x="318.21167" y="-305.84592"/></text><text opacity=".8" x="-709.52295" y="-35.326115"><tspan x="-709.52295" y="-35.326115"/></text><text opacity=".8" x="-2533.2087" y="710.22742"><tspan x="-2533.2087" y="710.22742"/></text><text opacity=".8" x="-558.42987" y="-896.85663"><tspan x="-558.42987" y="-896.85663"/></text><text opacity=".8" x="249.17226" y="-1310.3268"><tspan x="249.17226" y="-1310.3268"/></text><text opacity=".8" x="273.13318" y="-1351.0686"><tspan x="273.13318" y="-1351.0686"/></text><text opacity=".8" x="-1218.33" y="-1358.2784"><tspan x="-1218.33" y="-1358.2784"/></text><text opacity=".8" x="242.21275" y="-1631.5126"><tspan x="242.21275" y="-1631.5126"/></text><text opacity=".8" x="1728.3362" y="-1004.8214"><tspan x="1728.3362" y="-1004.8214"/></text><text opacity=".8" x="1752.297" y="-1045.563"><tspan x="1752.297" y="-1045.563"/></text><text opacity=".8" x="260.83392" y="-1052.7728"><tspan x="260.83392" y="-1052.7728"/></text><text opacity=".8" x="1721.3767" y="-1326.007"><tspan x="1721.3767" y="-1326.007"/></text><text opacity=".8" x="-676.98242" y="-1100.8641"><tspan x="-676.98242" y="-1100.8641"/></text><text opacity=".8" x="-2500.668" y="-355.31064"><tspan x="-2500.668" y="-355.31064"/></text><text opacity=".8" x="-785.91266" y="-262.43848"><tspan x="-785.91266" y="-262.43848"/></text><text opacity=".8" x="54.101906" y="-21.524324"><tspan x="54.101906" y="-21.524324"/></text><text opacity=".8" x="78.062836" y="-62.266045"><tspan x="78.062836" y="-62.266045"/></text><text opacity=".8" x="-1191.7538" y="-256.29462"><tspan x="-1191.7538" y="-256.29462"/></text><text opacity=".8" x="-384.15179" y="-669.76483"><tspan x="-384.15179" y="-669.76483"/></text><text opacity=".8" x="-360.19086" y="-710.50653"><tspan x="-360.19086" y="-710.50653"/></text><text opacity=".8" x="-1851.6539" y="-717.71649"><tspan x="-1851.6539" y="-717.71649"/></text><text opacity=".8" x="-391.11124" y="-990.9505"><tspan x="-391.11124" y="-990.9505"/></text><text opacity=".8" x="1095.0122" y="-364.25919"><tspan x="1095.0122" y="-364.25919"/></text><text opacity=".8" x="1118.973" y="-405.00092"><tspan x="1118.973" y="-405.00092"/></text><text opacity=".8" x="-372.49011" y="-412.21085"><tspan x="-372.49011" y="-412.21085"/></text><text opacity=".8" x="1088.0527" y="-685.44495"><tspan x="1088.0527" y="-685.44495"/></text><text opacity=".8" x="-1310.3064" y="-460.30212"><tspan x="-1310.3064" y="-460.30212"/></text><text opacity=".8" x="-3133.9919" y="285.2514"><tspan x="-3133.9919" y="285.2514"/></text><text opacity=".8" transform="matrix(.90475 0 0 .90475 -818.24 -670.86)" x="-664.2738" y="1159.4154"><tspan x="-664.2738" y="1159.4154"/></text><text x="334.41388" y="-363.03149"><tspan x="334.41388" y="-363.03149"/><tspan x="334.41388" y="-347.19843"/></text><text opacity=".8" x="799.59778" y="-845.07605"><tspan x="799.59778" y="-845.07605"/></text><text opacity=".8" x="-1024.0881" y="-99.522591"><tspan x="-1024.0881" y="-99.522591"/></text><text opacity=".8" x="1526.6774" y="-1130.0719"><tspan x="1526.6774" y="-1130.0719"/></text><text opacity=".8" x="1550.6382" y="-1170.8136"><tspan x="1550.6382" y="-1170.8136"/></text><text opacity=".8" x="59.175026" y="-1178.0236"><tspan x="59.175026" y="-1178.0236"/></text><text opacity=".8" x="1519.7179" y="-1451.2577"><tspan x="1519.7179" y="-1451.2577"/></text><text opacity=".8" x="722.85651" y="13.972086"><tspan x="722.85651" y="13.972086"/></text><text opacity=".8" x="746.81744" y="-26.769621"><tspan x="746.81744" y="-26.769621"/></text><text opacity=".8" x="-723.74091" y="-56.847763"><tspan x="-723.74091" y="-56.847763"/></text><text opacity=".8" x="-2547.4268" y="688.70569"><tspan x="-2547.4268" y="688.70569"/></text><text opacity=".8" x="-609.24976" y="-442.16873"><tspan x="-609.24976" y="-442.16873"/></text><text opacity=".8" x="198.35237" y="-855.63885"><tspan x="198.35237" y="-855.63885"/></text><text opacity=".8" x="222.31331" y="-896.38055"><tspan x="222.31331" y="-896.38055"/></text><text opacity=".8" x="-1269.1498" y="-903.59045"><tspan x="-1269.1498" y="-903.59045"/></text><text opacity=".8" x="191.3929" y="-1176.8246"><tspan x="191.3929" y="-1176.8246"/></text><text opacity=".8" x="1677.5165" y="-550.13324"><tspan x="1677.5165" y="-550.13324"/></text><text opacity=".8" x="1701.4773" y="-590.875"><tspan x="1701.4773" y="-590.875"/></text><text opacity=".8" x="210.01405" y="-598.0849"><tspan x="210.01405" y="-598.0849"/></text><text opacity=".8" x="1670.557" y="-871.31891"><tspan x="1670.557" y="-871.31891"/></text><text opacity=".8" x="-727.80231" y="-646.17621"><tspan x="-727.80231" y="-646.17621"/></text><text opacity=".8" x="-2551.4878" y="99.377342"><tspan x="-2551.4878" y="99.377342"/></text><text opacity=".8" x="-836.73254" y="192.24948"><tspan x="-836.73254" y="192.24948"/></text><text opacity=".8" x="272.29184" y="13.067337"><tspan x="272.29184" y="13.067337"/></text><text opacity=".8" x="296.25278" y="-27.67437"><tspan x="296.25278" y="-27.67437"/></text><text opacity=".8" x="-1195.2103" y="-34.884342"><tspan x="-1195.2103" y="-34.884342"/></text><text opacity=".8" x="265.33237" y="-308.11841"><tspan x="265.33237" y="-308.11841"/></text><text opacity=".8" x="-762.40228" y="-37.598587"><tspan x="-762.40228" y="-37.598587"/></text><text opacity=".8" x="-2586.0881" y="707.9549"><tspan x="-2586.0881" y="707.9549"/></text><text opacity=".8" x="-611.3092" y="-899.12909"><tspan x="-611.3092" y="-899.12909"/></text><text opacity=".8" x="196.29295" y="-1312.5992"><tspan x="196.29295" y="-1312.5992"/></text><text opacity=".8" x="220.25386" y="-1353.3409"><tspan x="220.25386" y="-1353.3409"/></text><text opacity=".8" x="-1271.2092" y="-1360.5509"><tspan x="-1271.2092" y="-1360.5509"/></text><text opacity=".8" x="189.33345" y="-1633.785"><tspan x="189.33345" y="-1633.785"/></text><text opacity=".8" x="1675.4569" y="-1007.0938"><tspan x="1675.4569" y="-1007.0938"/></text><text opacity=".8" x="1699.4177" y="-1047.8353"><tspan x="1699.4177" y="-1047.8353"/></text><text opacity=".8" x="207.95461" y="-1055.0453"><tspan x="207.95461" y="-1055.0453"/></text><text opacity=".8" x="1668.4974" y="-1328.2794"><tspan x="1668.4974" y="-1328.2794"/></text><text opacity=".8" x="-729.86176" y="-1103.1366"><tspan x="-729.86176" y="-1103.1366"/></text><text opacity=".8" x="-2553.5474" y="-357.58313"><tspan x="-2553.5474" y="-357.58313"/></text><text opacity=".8" x="-838.79199" y="-264.71097"><tspan x="-838.79199" y="-264.71097"/></text><text opacity=".8" x="1.2225919" y="-23.796793"><tspan x="1.2225919" y="-23.796793"/></text><text opacity=".8" x="25.183533" y="-64.538513"><tspan x="25.183533" y="-64.538513"/></text><text opacity=".8" x="-1244.6331" y="-258.56714"><tspan x="-1244.6331" y="-258.56714"/></text><text opacity=".8" x="-437.0311" y="-672.03729"><tspan x="-437.0311" y="-672.03729"/></text><text opacity=".8" x="-413.07016" y="-712.77899"><tspan x="-413.07016" y="-712.77899"/></text><text opacity=".8" x="-1904.5332" y="-719.98889"><tspan x="-1904.5332" y="-719.98889"/></text><text opacity=".8" x="-443.99054" y="-993.22302"><tspan x="-443.99054" y="-993.22302"/></text><text opacity=".8" x="1042.1329" y="-366.53165"><tspan x="1042.1329" y="-366.53165"/></text><text opacity=".8" x="1066.0938" y="-407.27338"><tspan x="1066.0938" y="-407.27338"/></text><text opacity=".8" x="-425.36942" y="-414.48334"><tspan x="-425.36942" y="-414.48334"/></text><text opacity=".8" x="1035.1735" y="-687.71741"><tspan x="1035.1735" y="-687.71741"/></text><text opacity=".8" x="-1363.1857" y="-462.57462"><tspan x="-1363.1857" y="-462.57462"/></text><text opacity=".8" x="-3186.8713" y="282.97894"><tspan x="-3186.8713" y="282.97894"/></text><text opacity=".8" transform="matrix(.90475 0 0 .90475 -871.11 -673.13)" x="-664.2738" y="1159.4154"><tspan x="-664.2738" y="1159.4154"/></text><text opacity=".8" x="722.85651" y="21.210073"><tspan x="722.85651" y="21.210073"/></text><text opacity=".8" x="746.81744" y="-19.531631"><tspan x="746.81744" y="-19.531631"/></text><text opacity=".8" x="-723.74091" y="-49.609776"><tspan x="-723.74091" y="-49.609776"/></text><text opacity=".8" x="-2547.4268" y="695.94366"><tspan x="-2547.4268" y="695.94366"/></text><text opacity=".8" x="-609.24976" y="-434.93073"><tspan x="-609.24976" y="-434.93073"/></text><text opacity=".8" x="198.35237" y="-848.40082"><tspan x="198.35237" y="-848.40082"/></text><text opacity=".8" x="222.31331" y="-889.14258"><tspan x="222.31331" y="-889.14258"/></text><text opacity=".8" x="-1269.1498" y="-896.35248"><tspan x="-1269.1498" y="-896.35248"/></text><text opacity=".8" x="191.3929" y="-1169.5865"><tspan x="191.3929" y="-1169.5865"/></text><text opacity=".8" x="1677.5165" y="-542.89526"><tspan x="1677.5165" y="-542.89526"/></text><text opacity=".8" x="1701.4773" y="-583.63702"><tspan x="1701.4773" y="-583.63702"/></text><text opacity=".8" x="210.01405" y="-590.84692"><tspan x="210.01405" y="-590.84692"/></text><text opacity=".8" x="1670.557" y="-864.08087"><tspan x="1670.557" y="-864.08087"/></text><text opacity=".8" x="-727.80231" y="-638.93823"><tspan x="-727.80231" y="-638.93823"/></text><text opacity=".8" x="-2551.4878" y="106.61533"><tspan x="-2551.4878" y="106.61533"/></text><text opacity=".8" x="-836.73254" y="199.48747"><tspan x="-836.73254" y="199.48747"/></text><text opacity=".8" x="272.29184" y="20.305325"><tspan x="272.29184" y="20.305325"/></text><text opacity=".8" x="296.25278" y="-20.43638"><tspan x="296.25278" y="-20.43638"/></text><text opacity=".8" x="-1195.2103" y="-27.646351"><tspan x="-1195.2103" y="-27.646351"/></text><text opacity=".8" x="265.33237" y="-300.8804"><tspan x="265.33237" y="-300.8804"/></text><text opacity=".8" x="-762.40228" y="-30.360596"><tspan x="-762.40228" y="-30.360596"/></text><text opacity=".8" x="-2586.0881" y="715.19293"><tspan x="-2586.0881" y="715.19293"/></text><text opacity=".8" x="-611.3092" y="-891.89111"><tspan x="-611.3092" y="-891.89111"/></text><text opacity=".8" x="196.29295" y="-1305.3612"><tspan x="196.29295" y="-1305.3612"/></text><text opacity=".8" x="220.25386" y="-1346.103"><tspan x="220.25386" y="-1346.103"/></text><text opacity=".8" x="-1271.2092" y="-1353.3129"><tspan x="-1271.2092" y="-1353.3129"/></text><text opacity=".8" x="189.33345" y="-1626.547"><tspan x="189.33345" y="-1626.547"/></text><text opacity=".8" x="1675.4569" y="-999.85583"><tspan x="1675.4569" y="-999.85583"/></text><text opacity=".8" x="1699.4177" y="-1040.5974"><tspan x="1699.4177" y="-1040.5974"/></text><text opacity=".8" x="207.95461" y="-1047.8073"><tspan x="207.95461" y="-1047.8073"/></text><text opacity=".8" x="1668.4974" y="-1321.0414"><tspan x="1668.4974" y="-1321.0414"/></text><text opacity=".8" x="-729.86176" y="-1095.8986"><tspan x="-729.86176" y="-1095.8986"/></text><text opacity=".8" x="-2553.5474" y="-350.34512"><tspan x="-2553.5474" y="-350.34512"/></text><text opacity=".8" x="-838.79199" y="-257.47296"><tspan x="-838.79199" y="-257.47296"/></text><text opacity=".8" x="1.2225919" y="-16.558805"><tspan x="1.2225919" y="-16.558805"/></text><text opacity=".8" x="25.183533" y="-57.300526"><tspan x="25.183533" y="-57.300526"/></text><text opacity=".8" x="-1244.6331" y="-251.32912"><tspan x="-1244.6331" y="-251.32912"/></text><text opacity=".8" x="-437.0311" y="-664.79932"><tspan x="-437.0311" y="-664.79932"/></text><text opacity=".8" x="-413.07016" y="-705.54102"><tspan x="-413.07016" y="-705.54102"/></text><text opacity=".8" x="-1904.5332" y="-712.75098"><tspan x="-1904.5332" y="-712.75098"/></text><text opacity=".8" x="-443.99054" y="-985.98499"><tspan x="-443.99054" y="-985.98499"/></text><text opacity=".8" x="1042.1329" y="-359.29367"><tspan x="1042.1329" y="-359.29367"/></text><text opacity=".8" x="1066.0938" y="-400.0354"><tspan x="1066.0938" y="-400.0354"/></text><text opacity=".8" x="-425.36942" y="-407.24533"><tspan x="-425.36942" y="-407.24533"/></text><text opacity=".8" x="1035.1735" y="-680.47943"><tspan x="1035.1735" y="-680.47943"/></text><text opacity=".8" x="-1363.1857" y="-455.33661"><tspan x="-1363.1857" y="-455.33661"/></text><text opacity=".8" x="-3186.8713" y="290.21692"><tspan x="-3186.8713" y="290.21692"/></text><text opacity=".8" transform="matrix(.90475 0 0 .90475 -871.11 -665.89)" x="-664.2738" y="1159.4154"><tspan x="-664.2738" y="1159.4154"/></text><text x="281.53458" y="-358.06598"><tspan x="281.53458" y="-358.06598"/><tspan x="281.53458" y="-342.23291"/></text><text opacity=".8" x="746.71844" y="-840.11053"><tspan x="746.71844" y="-840.11053"/></text><text opacity=".8" x="-1076.9674" y="-94.557068"><tspan x="-1076.9674" y="-94.557068"/></text><text opacity=".8" x="1473.7981" y="-1125.1063"><tspan x="1473.7981" y="-1125.1063"/></text><text opacity=".8" x="1497.7589" y="-1165.848"><tspan x="1497.7589" y="-1165.848"/></text><text opacity=".8" x="6.295712" y="-1173.058"><tspan x="6.295712" y="-1173.058"/></text><text opacity=".8" x="1466.8386" y="-1446.2921"><tspan x="1466.8386" y="-1446.2921"/></text><g transform="translate(-1 -1)"><g transform="scale(.5)"><path d="m24 4c-11.023 0-20 8.978-20 20 0 11.024 8.978 20 20 20 11.022 0 20-8.977 20-20 0-11.022-8.977-20-20-20z" fill="#f37b21"/><path d="m24 9a16 16 0 0 0 -16 16 16 16 0 0 0  16 16 16 16 0 0 0  16-16 16 16 0 0 0 -16-16zm-6.418 4.7109h6.1309l7.0391 17.902 3.0957-1.0078 1.0312 3.4668-6.676 1.928-4.49-11.383-6.584 10.375h-4.1289l9.1953-14.85-1.0312-2.9336h-3.582v-3.498z" opacity=".2"/><path d="m24 8a16 16 0 0 0 -16 16 16 16 0 0 0  16 16 16 16 0 0 0  16-16 16 16 0 0 0 -16-16zm-6.418 4.7109h6.1309l7.0391 17.902 3.0957-1.0078 1.0312 3.4668-6.676 1.928-4.49-11.383-6.584 10.375h-4.1289l9.1953-14.85-1.0312-2.9336h-3.582v-3.498z" fill="#fff"/><path d="m24 4c-11.023 0-20 8.978-20 20 0 .168.0076.333.0117.5.2673-10.792 9.1333-19.5 19.988-19.5 10.8547 0 19.721 8.708 19.988 19.5.004-.167.012-.332.012-.5 0-11.022-8.977-20-20-20z" fill="#fff" opacity=".2"/><path d="m4.0117 23.5c-.0041.167-.0117.332-.0117.5 0 11.024 8.978 20 20 20 11.022 0 20-8.977 20-20 0-.168-.008-.333-.012-.5-.267 10.793-9.133 19.5-19.988 19.5-10.855 0-19.721-8.707-19.988-19.5z" opacity=".3"/></g><circle cx="17" cy="17" fill="#42a1cd" r="6"/><path d="m22.99 16.703a6 6 0 0 1 -5.99 5.797 6 6 0 0 1 -5.99-5.703 6 6 0 0 0 -.01.203 6 6 0 0 0  6 6 6 6 0 0 0  6-6 6 6 0 0 0 -.01-.297z" opacity=".3"/><path d="m39.417 41h-8.3826v-1.8372l2.9395-3.1702q.55542-.59814 1.0083-1.1023.45288-.50415.77759-.98267.32471-.47852.50415-.97412.17944-.49561.17944-1.0681 0-.63232-.38452-.98267-.37598-.35034-1.0168-.35034-.67505 0-1.2988.33325-.62378.33325-1.3074.94849l-1.436-1.7q.38452-.35034.80322-.6665.4187-.32471.92285-.57251.50415-.2478 1.1108-.39307.60669-.15381 1.3586-.15381.89722 0 1.6064.2478.71777.2478 1.2219.70923.50415.45288.76904 1.1023.27344.64941.27344 1.4612 0 .73486-.25635 1.4099-.25635.6665-.70068 1.3159-.44434.64087-1.0339 1.2817-.58105.63232-1.2476 1.2903l-1.5039 1.5125v.11963h5.0928v2.2217z" fill="#fff" transform="matrix(.5 0 0 .5 -.5 -.5)"/></g></svg>