<svg height="22" width="22" xmlns="http://www.w3.org/2000/svg"><text opacity=".8" x="877.22626" y="-15.187399"><tspan x="877.22626" y="-15.187399"/></text><text opacity=".8" x="901.18719" y="-55.929108"><tspan x="901.18719" y="-55.929108"/></text><text opacity=".8" x="-569.37115" y="-86.007248"><tspan x="-569.37115" y="-86.007248"/></text><text opacity=".8" x="-2393.0571" y="659.5462"><tspan x="-2393.0571" y="659.5462"/></text><text opacity=".8" x="-454.88007" y="-471.32822"><tspan x="-454.88007" y="-471.32822"/></text><text opacity=".8" x="352.72208" y="-884.79834"><tspan x="352.72208" y="-884.79834"/></text><text opacity=".8" x="376.68301" y="-925.54004"><tspan x="376.68301" y="-925.54004"/></text><text opacity=".8" x="-1114.7802" y="-932.74994"><tspan x="-1114.7802" y="-932.74994"/></text><text opacity=".8" x="345.7626" y="-1205.9841"><tspan x="345.7626" y="-1205.9841"/></text><text opacity=".8" x="1831.8861" y="-579.29272"><tspan x="1831.8861" y="-579.29272"/></text><text opacity=".8" x="1855.8469" y="-620.03448"><tspan x="1855.8469" y="-620.03448"/></text><text opacity=".8" x="364.38376" y="-627.24438"><tspan x="364.38376" y="-627.24438"/></text><text opacity=".8" x="1824.9266" y="-900.47839"><tspan x="1824.9266" y="-900.47839"/></text><text opacity=".8" x="-573.43256" y="-675.33569"><tspan x="-573.43256" y="-675.33569"/></text><text opacity=".8" x="-2397.1182" y="70.217857"><tspan x="-2397.1182" y="70.217857"/></text><text opacity=".8" x="-682.36279" y="163.09"><tspan x="-682.36279" y="163.09"/></text><text opacity=".8" x="426.66153" y="-16.092148"><tspan x="426.66153" y="-16.092148"/></text><text opacity=".8" x="450.62247" y="-56.833855"><tspan x="450.62247" y="-56.833855"/></text><text opacity=".8" x="-1040.8407" y="-64.043823"><tspan x="-1040.8407" y="-64.043823"/></text><text opacity=".8" x="419.70206" y="-337.27789"><tspan x="419.70206" y="-337.27789"/></text><text opacity=".8" x="-608.03253" y="-66.758072"><tspan x="-608.03253" y="-66.758072"/></text><text opacity=".8" x="-2431.7185" y="678.79541"><tspan x="-2431.7185" y="678.79541"/></text><text opacity=".8" x="-456.93948" y="-928.28857"><tspan x="-456.93948" y="-928.28857"/></text><text opacity=".8" x="350.66266" y="-1341.7588"><tspan x="350.66266" y="-1341.7588"/></text><text opacity=".8" x="374.62357" y="-1382.5005"><tspan x="374.62357" y="-1382.5005"/></text><text opacity=".8" x="-1116.8396" y="-1389.7104"><tspan x="-1116.8396" y="-1389.7104"/></text><text opacity=".8" x="343.70316" y="-1662.9446"><tspan x="343.70316" y="-1662.9446"/></text><text opacity=".8" x="1829.8265" y="-1036.2533"><tspan x="1829.8265" y="-1036.2533"/></text><text opacity=".8" x="1853.7874" y="-1076.9949"><tspan x="1853.7874" y="-1076.9949"/></text><text opacity=".8" x="362.32431" y="-1084.2048"><tspan x="362.32431" y="-1084.2048"/></text><text opacity=".8" x="1822.8671" y="-1357.439"><tspan x="1822.8671" y="-1357.439"/></text><text opacity=".8" x="-575.492" y="-1132.2961"><tspan x="-575.492" y="-1132.2961"/></text><text opacity=".8" x="-2399.1777" y="-386.74261"><tspan x="-2399.1777" y="-386.74261"/></text><text opacity=".8" x="-684.42224" y="-293.87045"><tspan x="-684.42224" y="-293.87045"/></text><text opacity=".8" x="155.5923" y="-52.956276"><tspan x="155.5923" y="-52.956276"/></text><text opacity=".8" x="179.55324" y="-93.697998"><tspan x="179.55324" y="-93.697998"/></text><text opacity=".8" x="-1090.2634" y="-287.72662"><tspan x="-1090.2634" y="-287.72662"/></text><text opacity=".8" x="-282.66141" y="-701.19678"><tspan x="-282.66141" y="-701.19678"/></text><text opacity=".8" x="-258.70047" y="-741.93848"><tspan x="-258.70047" y="-741.93848"/></text><text opacity=".8" x="-1750.1636" y="-749.14838"><tspan x="-1750.1636" y="-749.14838"/></text><text opacity=".8" x="-289.62085" y="-1022.3825"><tspan x="-289.62085" y="-1022.3825"/></text><text opacity=".8" x="1196.5026" y="-395.69113"><tspan x="1196.5026" y="-395.69113"/></text><text opacity=".8" x="1220.4634" y="-436.43286"><tspan x="1220.4634" y="-436.43286"/></text><text opacity=".8" x="-270.99973" y="-443.64282"><tspan x="-270.99973" y="-443.64282"/></text><text opacity=".8" x="1189.5431" y="-716.87689"><tspan x="1189.5431" y="-716.87689"/></text><text opacity=".8" x="-1208.816" y="-491.7341"><tspan x="-1208.816" y="-491.7341"/></text><text opacity=".8" x="-3032.5017" y="253.81946"><tspan x="-3032.5017" y="253.81946"/></text><text opacity=".8" transform="matrix(.90475 0 0 .90475 -716.75 -702.29)" x="-664.2738" y="1159.4154"><tspan x="-664.2738" y="1159.4154"/></text><text opacity=".8" x="877.22626" y="-7.9494114"><tspan x="877.22626" y="-7.9494114"/></text><text opacity=".8" x="901.18719" y="-48.691116"><tspan x="901.18719" y="-48.691116"/></text><text opacity=".8" x="-569.37115" y="-78.769257"><tspan x="-569.37115" y="-78.769257"/></text><text opacity=".8" x="-2393.0571" y="666.78418"><tspan x="-2393.0571" y="666.78418"/></text><text opacity=".8" x="-454.88007" y="-464.09021"><tspan x="-454.88007" y="-464.09021"/></text><text opacity=".8" x="352.72208" y="-877.5603"><tspan x="352.72208" y="-877.5603"/></text><text opacity=".8" x="376.68301" y="-918.30206"><tspan x="376.68301" y="-918.30206"/></text><text opacity=".8" x="-1114.7802" y="-925.51196"><tspan x="-1114.7802" y="-925.51196"/></text><text opacity=".8" x="345.7626" y="-1198.7461"><tspan x="345.7626" y="-1198.7461"/></text><text opacity=".8" x="1831.8861" y="-572.05475"><tspan x="1831.8861" y="-572.05475"/></text><text opacity=".8" x="1855.8469" y="-612.79651"><tspan x="1855.8469" y="-612.79651"/></text><text opacity=".8" x="364.38376" y="-620.00641"><tspan x="364.38376" y="-620.00641"/></text><text opacity=".8" x="1824.9266" y="-893.24036"><tspan x="1824.9266" y="-893.24036"/></text><text opacity=".8" x="-573.43256" y="-668.09772"><tspan x="-573.43256" y="-668.09772"/></text><text opacity=".8" x="-2397.1182" y="77.455849"><tspan x="-2397.1182" y="77.455849"/></text><text opacity=".8" x="-682.36279" y="170.32799"><tspan x="-682.36279" y="170.32799"/></text><text opacity=".8" x="426.66153" y="-8.8541603"><tspan x="426.66153" y="-8.8541603"/></text><text opacity=".8" x="450.62247" y="-49.595863"><tspan x="450.62247" y="-49.595863"/></text><text opacity=".8" x="-1040.8407" y="-56.805836"><tspan x="-1040.8407" y="-56.805836"/></text><text opacity=".8" x="419.70206" y="-330.03989"><tspan x="419.70206" y="-330.03989"/></text><text opacity=".8" x="-608.03253" y="-59.520081"><tspan x="-608.03253" y="-59.520081"/></text><text opacity=".8" x="-2431.7185" y="686.03345"><tspan x="-2431.7185" y="686.03345"/></text><text opacity=".8" x="-456.93948" y="-921.0506"><tspan x="-456.93948" y="-921.0506"/></text><text opacity=".8" x="350.66266" y="-1334.5208"><tspan x="350.66266" y="-1334.5208"/></text><text opacity=".8" x="374.62357" y="-1375.2626"><tspan x="374.62357" y="-1375.2626"/></text><text opacity=".8" x="-1116.8396" y="-1382.4724"><tspan x="-1116.8396" y="-1382.4724"/></text><text opacity=".8" x="343.70316" y="-1655.7065"><tspan x="343.70316" y="-1655.7065"/></text><text opacity=".8" x="1829.8265" y="-1029.0154"><tspan x="1829.8265" y="-1029.0154"/></text><text opacity=".8" x="1853.7874" y="-1069.757"><tspan x="1853.7874" y="-1069.757"/></text><text opacity=".8" x="362.32431" y="-1076.9668"><tspan x="362.32431" y="-1076.9668"/></text><text opacity=".8" x="1822.8671" y="-1350.2009"><tspan x="1822.8671" y="-1350.2009"/></text><text opacity=".8" x="-575.492" y="-1125.0581"><tspan x="-575.492" y="-1125.0581"/></text><text opacity=".8" x="-2399.1777" y="-379.50461"><tspan x="-2399.1777" y="-379.50461"/></text><text opacity=".8" x="-684.42224" y="-286.63245"><tspan x="-684.42224" y="-286.63245"/></text><text opacity=".8" x="155.5923" y="-45.718292"><tspan x="155.5923" y="-45.718292"/></text><text opacity=".8" x="179.55324" y="-86.460007"><tspan x="179.55324" y="-86.460007"/></text><text opacity=".8" x="-1090.2634" y="-280.48859"><tspan x="-1090.2634" y="-280.48859"/></text><text opacity=".8" x="-282.66141" y="-693.9588"><tspan x="-282.66141" y="-693.9588"/></text><text opacity=".8" x="-258.70047" y="-734.7005"><tspan x="-258.70047" y="-734.7005"/></text><text opacity=".8" x="-1750.1636" y="-741.91046"><tspan x="-1750.1636" y="-741.91046"/></text><text opacity=".8" x="-289.62085" y="-1015.1445"><tspan x="-289.62085" y="-1015.1445"/></text><text opacity=".8" x="1196.5026" y="-388.45316"><tspan x="1196.5026" y="-388.45316"/></text><text opacity=".8" x="1220.4634" y="-429.19489"><tspan x="1220.4634" y="-429.19489"/></text><text opacity=".8" x="-270.99973" y="-436.40482"><tspan x="-270.99973" y="-436.40482"/></text><text opacity=".8" x="1189.5431" y="-709.63892"><tspan x="1189.5431" y="-709.63892"/></text><text opacity=".8" x="-1208.816" y="-484.49609"><tspan x="-1208.816" y="-484.49609"/></text><text opacity=".8" x="-3032.5017" y="261.05743"><tspan x="-3032.5017" y="261.05743"/></text><text opacity=".8" transform="matrix(.90475 0 0 .90475 -716.75 -695.05)" x="-664.2738" y="1159.4154"><tspan x="-664.2738" y="1159.4154"/></text><text x="435.90427" y="-387.22546"><tspan x="435.90427" y="-387.22546"/><tspan x="435.90427" y="-371.3924"/></text><text opacity=".8" x="901.0882" y="-869.27002"><tspan x="901.0882" y="-869.27002"/></text><text opacity=".8" x="-922.59778" y="-123.71655"><tspan x="-922.59778" y="-123.71655"/></text><text opacity=".8" x="1628.1677" y="-1154.2659"><tspan x="1628.1677" y="-1154.2659"/></text><text opacity=".8" x="1652.1285" y="-1195.0076"><tspan x="1652.1285" y="-1195.0076"/></text><text opacity=".8" x="160.66542" y="-1202.2175"><tspan x="160.66542" y="-1202.2175"/></text><text opacity=".8" x="1621.2083" y="-1475.4517"><tspan x="1621.2083" y="-1475.4517"/></text><text opacity=".8" x="877.22626" y="-15.187399"><tspan x="877.22626" y="-15.187399"/></text><text opacity=".8" x="901.18719" y="-55.929108"><tspan x="901.18719" y="-55.929108"/></text><text opacity=".8" x="-569.37115" y="-86.007248"><tspan x="-569.37115" y="-86.007248"/></text><text opacity=".8" x="-2393.0571" y="659.5462"><tspan x="-2393.0571" y="659.5462"/></text><text opacity=".8" x="-454.88007" y="-471.32822"><tspan x="-454.88007" y="-471.32822"/></text><text opacity=".8" x="352.72208" y="-884.79834"><tspan x="352.72208" y="-884.79834"/></text><text opacity=".8" x="376.68301" y="-925.54004"><tspan x="376.68301" y="-925.54004"/></text><text opacity=".8" x="-1114.7802" y="-932.74994"><tspan x="-1114.7802" y="-932.74994"/></text><text opacity=".8" x="345.7626" y="-1205.9841"><tspan x="345.7626" y="-1205.9841"/></text><text opacity=".8" x="1831.8861" y="-579.29272"><tspan x="1831.8861" y="-579.29272"/></text><text opacity=".8" x="1855.8469" y="-620.03448"><tspan x="1855.8469" y="-620.03448"/></text><text opacity=".8" x="364.38376" y="-627.24438"><tspan x="364.38376" y="-627.24438"/></text><text opacity=".8" x="1824.9266" y="-900.47839"><tspan x="1824.9266" y="-900.47839"/></text><text opacity=".8" x="-573.43256" y="-675.33569"><tspan x="-573.43256" y="-675.33569"/></text><text opacity=".8" x="-2397.1182" y="70.217857"><tspan x="-2397.1182" y="70.217857"/></text><text opacity=".8" x="-682.36279" y="163.09"><tspan x="-682.36279" y="163.09"/></text><text opacity=".8" x="426.66153" y="-16.092148"><tspan x="426.66153" y="-16.092148"/></text><text opacity=".8" x="450.62247" y="-56.833855"><tspan x="450.62247" y="-56.833855"/></text><text opacity=".8" x="-1040.8407" y="-64.043823"><tspan x="-1040.8407" y="-64.043823"/></text><text opacity=".8" x="419.70206" y="-337.27789"><tspan x="419.70206" y="-337.27789"/></text><text opacity=".8" x="-608.03253" y="-66.758072"><tspan x="-608.03253" y="-66.758072"/></text><text opacity=".8" x="-2431.7185" y="678.79541"><tspan x="-2431.7185" y="678.79541"/></text><text opacity=".8" x="-456.93948" y="-928.28857"><tspan x="-456.93948" y="-928.28857"/></text><text opacity=".8" x="350.66266" y="-1341.7588"><tspan x="350.66266" y="-1341.7588"/></text><text opacity=".8" x="374.62357" y="-1382.5005"><tspan x="374.62357" y="-1382.5005"/></text><text opacity=".8" x="-1116.8396" y="-1389.7104"><tspan x="-1116.8396" y="-1389.7104"/></text><text opacity=".8" x="343.70316" y="-1662.9446"><tspan x="343.70316" y="-1662.9446"/></text><text opacity=".8" x="1829.8265" y="-1036.2533"><tspan x="1829.8265" y="-1036.2533"/></text><text opacity=".8" x="1853.7874" y="-1076.9949"><tspan x="1853.7874" y="-1076.9949"/></text><text opacity=".8" x="362.32431" y="-1084.2048"><tspan x="362.32431" y="-1084.2048"/></text><text opacity=".8" x="1822.8671" y="-1357.439"><tspan x="1822.8671" y="-1357.439"/></text><text opacity=".8" x="-575.492" y="-1132.2961"><tspan x="-575.492" y="-1132.2961"/></text><text opacity=".8" x="-2399.1777" y="-386.74261"><tspan x="-2399.1777" y="-386.74261"/></text><text opacity=".8" x="-684.42224" y="-293.87045"><tspan x="-684.42224" y="-293.87045"/></text><text opacity=".8" x="155.5923" y="-52.956276"><tspan x="155.5923" y="-52.956276"/></text><text opacity=".8" x="179.55324" y="-93.697998"><tspan x="179.55324" y="-93.697998"/></text><text opacity=".8" x="-1090.2634" y="-287.72662"><tspan x="-1090.2634" y="-287.72662"/></text><text opacity=".8" x="-282.66141" y="-701.19678"><tspan x="-282.66141" y="-701.19678"/></text><text opacity=".8" x="-258.70047" y="-741.93848"><tspan x="-258.70047" y="-741.93848"/></text><text opacity=".8" x="-1750.1636" y="-749.14838"><tspan x="-1750.1636" y="-749.14838"/></text><text opacity=".8" x="-289.62085" y="-1022.3825"><tspan x="-289.62085" y="-1022.3825"/></text><text opacity=".8" x="1196.5026" y="-395.69113"><tspan x="1196.5026" y="-395.69113"/></text><text opacity=".8" x="1220.4634" y="-436.43286"><tspan x="1220.4634" y="-436.43286"/></text><text opacity=".8" x="-270.99973" y="-443.64282"><tspan x="-270.99973" y="-443.64282"/></text><text opacity=".8" x="1189.5431" y="-716.87689"><tspan x="1189.5431" y="-716.87689"/></text><text opacity=".8" x="-1208.816" y="-491.7341"><tspan x="-1208.816" y="-491.7341"/></text><text opacity=".8" x="-3032.5017" y="253.81946"><tspan x="-3032.5017" y="253.81946"/></text><text opacity=".8" x="-1317.7462" y="346.69156"><tspan x="-1317.7462" y="346.69156"/></text><text opacity=".8" x="877.22626" y="-7.9494114"><tspan x="877.22626" y="-7.9494114"/></text><text opacity=".8" x="901.18719" y="-48.691116"><tspan x="901.18719" y="-48.691116"/></text><text opacity=".8" x="-569.37115" y="-78.769257"><tspan x="-569.37115" y="-78.769257"/></text><text opacity=".8" x="-2393.0571" y="666.78418"><tspan x="-2393.0571" y="666.78418"/></text><text opacity=".8" x="-454.88007" y="-464.09021"><tspan x="-454.88007" y="-464.09021"/></text><text opacity=".8" x="352.72208" y="-877.5603"><tspan x="352.72208" y="-877.5603"/></text><text opacity=".8" x="376.68301" y="-918.30206"><tspan x="376.68301" y="-918.30206"/></text><text opacity=".8" x="-1114.7802" y="-925.51196"><tspan x="-1114.7802" y="-925.51196"/></text><text opacity=".8" x="345.7626" y="-1198.7461"><tspan x="345.7626" y="-1198.7461"/></text><text opacity=".8" x="1831.8861" y="-572.05475"><tspan x="1831.8861" y="-572.05475"/></text><text opacity=".8" x="1855.8469" y="-612.79651"><tspan x="1855.8469" y="-612.79651"/></text><text opacity=".8" x="364.38376" y="-620.00641"><tspan x="364.38376" y="-620.00641"/></text><text opacity=".8" x="1824.9266" y="-893.24036"><tspan x="1824.9266" y="-893.24036"/></text><text opacity=".8" x="-573.43256" y="-668.09772"><tspan x="-573.43256" y="-668.09772"/></text><text opacity=".8" x="-2397.1182" y="77.455849"><tspan x="-2397.1182" y="77.455849"/></text><text opacity=".8" x="-682.36279" y="170.32799"><tspan x="-682.36279" y="170.32799"/></text><text opacity=".8" x="426.66153" y="-8.8541603"><tspan x="426.66153" y="-8.8541603"/></text><text opacity=".8" x="450.62247" y="-49.595863"><tspan x="450.62247" y="-49.595863"/></text><text opacity=".8" x="-1040.8407" y="-56.805836"><tspan x="-1040.8407" y="-56.805836"/></text><text opacity=".8" x="419.70206" y="-330.03989"><tspan x="419.70206" y="-330.03989"/></text><text opacity=".8" x="-608.03253" y="-59.520081"><tspan x="-608.03253" y="-59.520081"/></text><text opacity=".8" x="-2431.7185" y="686.03345"><tspan x="-2431.7185" y="686.03345"/></text><text opacity=".8" x="-456.93948" y="-921.0506"><tspan x="-456.93948" y="-921.0506"/></text><text opacity=".8" x="350.66266" y="-1334.5208"><tspan x="350.66266" y="-1334.5208"/></text><text opacity=".8" x="374.62357" y="-1375.2626"><tspan x="374.62357" y="-1375.2626"/></text><text opacity=".8" x="-1116.8396" y="-1382.4724"><tspan x="-1116.8396" y="-1382.4724"/></text><text opacity=".8" x="343.70316" y="-1655.7065"><tspan x="343.70316" y="-1655.7065"/></text><text opacity=".8" x="1829.8265" y="-1029.0154"><tspan x="1829.8265" y="-1029.0154"/></text><text opacity=".8" x="1853.7874" y="-1069.757"><tspan x="1853.7874" y="-1069.757"/></text><text opacity=".8" x="362.32431" y="-1076.9668"><tspan x="362.32431" y="-1076.9668"/></text><text opacity=".8" x="1822.8671" y="-1350.2009"><tspan x="1822.8671" y="-1350.2009"/></text><text opacity=".8" x="-575.492" y="-1125.0581"><tspan x="-575.492" y="-1125.0581"/></text><text opacity=".8" x="-2399.1777" y="-379.50461"><tspan x="-2399.1777" y="-379.50461"/></text><text opacity=".8" x="-684.42224" y="-286.63245"><tspan x="-684.42224" y="-286.63245"/></text><text opacity=".8" x="155.5923" y="-45.718292"><tspan x="155.5923" y="-45.718292"/></text><text opacity=".8" x="179.55324" y="-86.460007"><tspan x="179.55324" y="-86.460007"/></text><text opacity=".8" x="-1090.2634" y="-280.48859"><tspan x="-1090.2634" y="-280.48859"/></text><text opacity=".8" x="-282.66141" y="-693.9588"><tspan x="-282.66141" y="-693.9588"/></text><text opacity=".8" x="-258.70047" y="-734.7005"><tspan x="-258.70047" y="-734.7005"/></text><text opacity=".8" x="-1750.1636" y="-741.91046"><tspan x="-1750.1636" y="-741.91046"/></text><text opacity=".8" x="-289.62085" y="-1015.1445"><tspan x="-289.62085" y="-1015.1445"/></text><text opacity=".8" x="1196.5026" y="-388.45316"><tspan x="1196.5026" y="-388.45316"/></text><text opacity=".8" x="1220.4634" y="-429.19489"><tspan x="1220.4634" y="-429.19489"/></text><text opacity=".8" x="-270.99973" y="-436.40482"><tspan x="-270.99973" y="-436.40482"/></text><text opacity=".8" x="1189.5431" y="-709.63892"><tspan x="1189.5431" y="-709.63892"/></text><text opacity=".8" x="-1208.816" y="-484.49609"><tspan x="-1208.816" y="-484.49609"/></text><text opacity=".8" x="-3032.5017" y="261.05743"><tspan x="-3032.5017" y="261.05743"/></text><text opacity=".8" x="-1317.7462" y="353.92953"><tspan x="-1317.7462" y="353.92953"/></text><text x="435.90427" y="-387.22546"><tspan x="435.90427" y="-387.22546"/><tspan x="435.90427" y="-371.3924"/></text><text opacity=".8" x="901.0882" y="-869.27002"><tspan x="901.0882" y="-869.27002"/></text><text opacity=".8" x="-922.59778" y="-123.71655"><tspan x="-922.59778" y="-123.71655"/></text><text opacity=".8" x="1628.1677" y="-1154.2659"><tspan x="1628.1677" y="-1154.2659"/></text><text opacity=".8" x="1652.1285" y="-1195.0076"><tspan x="1652.1285" y="-1195.0076"/></text><text opacity=".8" x="160.66542" y="-1202.2175"><tspan x="160.66542" y="-1202.2175"/></text><text opacity=".8" x="1621.2083" y="-1475.4517"><tspan x="1621.2083" y="-1475.4517"/></text><text opacity=".8" x="823.14215" y="-14.336931"><tspan x="823.14215" y="-14.336931"/></text><text opacity=".8" x="847.10309" y="-55.078636"><tspan x="847.10309" y="-55.078636"/></text><text opacity=".8" x="-623.45526" y="-85.156784"><tspan x="-623.45526" y="-85.156784"/></text><text opacity=".8" x="-2447.1414" y="660.39667"><tspan x="-2447.1414" y="660.39667"/></text><text opacity=".8" x="-508.96417" y="-470.47775"><tspan x="-508.96417" y="-470.47775"/></text><text opacity=".8" x="298.63797" y="-883.94788"><tspan x="298.63797" y="-883.94788"/></text><text opacity=".8" x="322.59891" y="-924.68958"><tspan x="322.59891" y="-924.68958"/></text><text opacity=".8" x="-1168.8643" y="-931.89948"><tspan x="-1168.8643" y="-931.89948"/></text><text opacity=".8" x="291.6785" y="-1205.1337"><tspan x="291.6785" y="-1205.1337"/></text><text opacity=".8" x="1777.802" y="-578.44226"><tspan x="1777.802" y="-578.44226"/></text><text opacity=".8" x="1801.7628" y="-619.18402"><tspan x="1801.7628" y="-619.18402"/></text><text opacity=".8" x="310.29965" y="-626.39392"><tspan x="310.29965" y="-626.39392"/></text><text opacity=".8" x="1770.8425" y="-899.62793"><tspan x="1770.8425" y="-899.62793"/></text><text opacity=".8" x="-627.51666" y="-674.48523"><tspan x="-627.51666" y="-674.48523"/></text><text opacity=".8" x="-2451.2024" y="71.068321"><tspan x="-2451.2024" y="71.068321"/></text><text opacity=".8" x="-736.4469" y="163.94046"><tspan x="-736.4469" y="163.94046"/></text><text opacity=".8" x="372.57742" y="-15.24168"><tspan x="372.57742" y="-15.24168"/></text><text opacity=".8" x="396.53836" y="-55.983387"><tspan x="396.53836" y="-55.983387"/></text><text opacity=".8" x="-1094.9248" y="-63.193359"><tspan x="-1094.9248" y="-63.193359"/></text><text opacity=".8" x="365.61795" y="-336.42743"><tspan x="365.61795" y="-336.42743"/></text><text opacity=".8" x="-662.11664" y="-65.907608"><tspan x="-662.11664" y="-65.907608"/></text><text opacity=".8" x="-2485.8027" y="679.64587"><tspan x="-2485.8027" y="679.64587"/></text><text opacity=".8" x="-511.02359" y="-927.43811"><tspan x="-511.02359" y="-927.43811"/></text><text opacity=".8" x="296.57855" y="-1340.9083"><tspan x="296.57855" y="-1340.9083"/></text><text opacity=".8" x="320.53946" y="-1381.65"><tspan x="320.53946" y="-1381.65"/></text><text opacity=".8" x="-1170.9237" y="-1388.86"><tspan x="-1170.9237" y="-1388.86"/></text><text opacity=".8" x="289.61905" y="-1662.0941"><tspan x="289.61905" y="-1662.0941"/></text><text opacity=".8" x="1775.7424" y="-1035.4028"><tspan x="1775.7424" y="-1035.4028"/></text><text opacity=".8" x="1799.7032" y="-1076.1444"><tspan x="1799.7032" y="-1076.1444"/></text><text opacity=".8" x="308.2402" y="-1083.3544"><tspan x="308.2402" y="-1083.3544"/></text><text opacity=".8" x="1768.783" y="-1356.5885"><tspan x="1768.783" y="-1356.5885"/></text><text opacity=".8" x="-629.57611" y="-1131.4457"><tspan x="-629.57611" y="-1131.4457"/></text><text opacity=".8" x="-2453.262" y="-385.89215"><tspan x="-2453.262" y="-385.89215"/></text><text opacity=".8" x="-738.50635" y="-293.01999"><tspan x="-738.50635" y="-293.01999"/></text><text opacity=".8" x="101.50819" y="-52.105812"><tspan x="101.50819" y="-52.105812"/></text><text opacity=".8" x="125.46912" y="-92.847534"><tspan x="125.46912" y="-92.847534"/></text><text opacity=".8" x="-1144.3475" y="-286.87616"><tspan x="-1144.3475" y="-286.87616"/></text><text opacity=".8" x="-336.74551" y="-700.34631"><tspan x="-336.74551" y="-700.34631"/></text><text opacity=".8" x="-312.78458" y="-741.08801"><tspan x="-312.78458" y="-741.08801"/></text><text opacity=".8" x="-1804.2477" y="-748.29791"><tspan x="-1804.2477" y="-748.29791"/></text><text opacity=".8" x="-343.70496" y="-1021.532"><tspan x="-343.70496" y="-1021.532"/></text><text opacity=".8" x="1142.4185" y="-394.84067"><tspan x="1142.4185" y="-394.84067"/></text><text opacity=".8" x="1166.3793" y="-435.5824"><tspan x="1166.3793" y="-435.5824"/></text><text opacity=".8" x="-325.08383" y="-442.79236"><tspan x="-325.08383" y="-442.79236"/></text><text opacity=".8" x="1135.459" y="-716.02643"><tspan x="1135.459" y="-716.02643"/></text><text opacity=".8" x="-1262.9001" y="-490.88364"><tspan x="-1262.9001" y="-490.88364"/></text><text opacity=".8" x="-3086.5859" y="254.66992"><tspan x="-3086.5859" y="254.66992"/></text><text opacity=".8" x="-1371.8358" y="347.54156"><tspan x="-1371.8358" y="347.54156"/></text><text opacity=".8" x="823.14215" y="-7.0989437"><tspan x="823.14215" y="-7.0989437"/></text><text opacity=".8" x="847.10309" y="-47.840649"><tspan x="847.10309" y="-47.840649"/></text><text opacity=".8" x="-623.45526" y="-77.918793"><tspan x="-623.45526" y="-77.918793"/></text><text opacity=".8" x="-2447.1414" y="667.63464"><tspan x="-2447.1414" y="667.63464"/></text><text opacity=".8" x="-508.96417" y="-463.23975"><tspan x="-508.96417" y="-463.23975"/></text><text opacity=".8" x="298.63797" y="-876.70984"><tspan x="298.63797" y="-876.70984"/></text><text opacity=".8" x="322.59891" y="-917.4516"><tspan x="322.59891" y="-917.4516"/></text><text opacity=".8" x="-1168.8643" y="-924.6615"><tspan x="-1168.8643" y="-924.6615"/></text><text opacity=".8" x="291.6785" y="-1197.8956"><tspan x="291.6785" y="-1197.8956"/></text><text opacity=".8" x="1777.802" y="-571.20428"><tspan x="1777.802" y="-571.20428"/></text><text opacity=".8" x="1801.7628" y="-611.94604"><tspan x="1801.7628" y="-611.94604"/></text><text opacity=".8" x="310.29965" y="-619.15594"><tspan x="310.29965" y="-619.15594"/></text><text opacity=".8" x="1770.8425" y="-892.38989"><tspan x="1770.8425" y="-892.38989"/></text><text opacity=".8" x="-627.51666" y="-667.24725"><tspan x="-627.51666" y="-667.24725"/></text><text opacity=".8" x="-2451.2024" y="78.306313"><tspan x="-2451.2024" y="78.306313"/></text><text opacity=".8" x="-736.4469" y="171.17845"><tspan x="-736.4469" y="171.17845"/></text><text opacity=".8" x="372.57742" y="-8.0036926"><tspan x="372.57742" y="-8.0036926"/></text><text opacity=".8" x="396.53836" y="-48.745399"><tspan x="396.53836" y="-48.745399"/></text><text opacity=".8" x="-1094.9248" y="-55.955368"><tspan x="-1094.9248" y="-55.955368"/></text><text opacity=".8" x="365.61795" y="-329.18942"><tspan x="365.61795" y="-329.18942"/></text><text opacity=".8" x="-662.11664" y="-58.669613"><tspan x="-662.11664" y="-58.669613"/></text><text opacity=".8" x="-2485.8027" y="686.88391"><tspan x="-2485.8027" y="686.88391"/></text><text opacity=".8" x="-511.02359" y="-920.20013"><tspan x="-511.02359" y="-920.20013"/></text><text opacity=".8" x="296.57855" y="-1333.6703"><tspan x="296.57855" y="-1333.6703"/></text><text opacity=".8" x="320.53946" y="-1374.4121"><tspan x="320.53946" y="-1374.4121"/></text><text opacity=".8" x="-1170.9237" y="-1381.6219"><tspan x="-1170.9237" y="-1381.6219"/></text><text opacity=".8" x="289.61905" y="-1654.8561"><tspan x="289.61905" y="-1654.8561"/></text><text opacity=".8" x="1775.7424" y="-1028.1649"><tspan x="1775.7424" y="-1028.1649"/></text><text opacity=".8" x="1799.7032" y="-1068.9065"><tspan x="1799.7032" y="-1068.9065"/></text><text opacity=".8" x="308.2402" y="-1076.1163"><tspan x="308.2402" y="-1076.1163"/></text><text opacity=".8" x="1768.783" y="-1349.3505"><tspan x="1768.783" y="-1349.3505"/></text><text opacity=".8" x="-629.57611" y="-1124.2076"><tspan x="-629.57611" y="-1124.2076"/></text><text opacity=".8" x="-2453.262" y="-378.65414"><tspan x="-2453.262" y="-378.65414"/></text><text opacity=".8" x="-738.50635" y="-285.78198"><tspan x="-738.50635" y="-285.78198"/></text><text opacity=".8" x="101.50819" y="-44.867821"><tspan x="101.50819" y="-44.867821"/></text><text opacity=".8" x="125.46912" y="-85.609543"><tspan x="125.46912" y="-85.609543"/></text><text opacity=".8" x="-1144.3475" y="-279.63812"><tspan x="-1144.3475" y="-279.63812"/></text><text opacity=".8" x="-336.74551" y="-693.10834"><tspan x="-336.74551" y="-693.10834"/></text><text opacity=".8" x="-312.78458" y="-733.85004"><tspan x="-312.78458" y="-733.85004"/></text><text opacity=".8" x="-1804.2477" y="-741.06"><tspan x="-1804.2477" y="-741.06"/></text><text opacity=".8" x="-343.70496" y="-1014.294"><tspan x="-343.70496" y="-1014.294"/></text><text opacity=".8" x="1142.4185" y="-387.60269"><tspan x="1142.4185" y="-387.60269"/></text><text opacity=".8" x="1166.3793" y="-428.34442"><tspan x="1166.3793" y="-428.34442"/></text><text opacity=".8" x="-325.08383" y="-435.55435"><tspan x="-325.08383" y="-435.55435"/></text><text opacity=".8" x="1135.459" y="-708.78845"><tspan x="1135.459" y="-708.78845"/></text><text opacity=".8" x="-1262.9001" y="-483.64563"><tspan x="-1262.9001" y="-483.64563"/></text><text opacity=".8" x="-3086.5859" y="261.9079"><tspan x="-3086.5859" y="261.9079"/></text><text opacity=".8" x="-1371.8358" y="354.78156"><tspan x="-1371.8358" y="354.78156"/></text><text x="381.82016" y="-386.375"><tspan x="381.82016" y="-386.375"/><tspan x="381.82016" y="-370.54193"/></text><text opacity=".8" x="847.00409" y="-868.41956"><tspan x="847.00409" y="-868.41956"/></text><text opacity=".8" x="-976.68188" y="-122.86609"><tspan x="-976.68188" y="-122.86609"/></text><text opacity=".8" x="1574.0836" y="-1153.4154"><tspan x="1574.0836" y="-1153.4154"/></text><text opacity=".8" x="1598.0444" y="-1194.1571"><tspan x="1598.0444" y="-1194.1571"/></text><text opacity=".8" x="106.58131" y="-1201.3671"><tspan x="106.58131" y="-1201.3671"/></text><text opacity=".8" x="1567.1241" y="-1474.6012"><tspan x="1567.1241" y="-1474.6012"/></text><text opacity=".8" x="842.92157" y="-20.119476"><tspan x="842.92157" y="-20.119476"/></text><text opacity=".8" x="866.88251" y="-60.861187"><tspan x="866.88251" y="-60.861187"/></text><text opacity=".8" x="-603.67584" y="-90.939323"><tspan x="-603.67584" y="-90.939323"/></text><text opacity=".8" x="-2427.3618" y="654.61414"><tspan x="-2427.3618" y="654.61414"/></text><text opacity=".8" x="-489.18472" y="-476.26028"><tspan x="-489.18472" y="-476.26028"/></text><text opacity=".8" x="318.41742" y="-889.73041"><tspan x="318.41742" y="-889.73041"/></text><text opacity=".8" x="342.37836" y="-930.47211"><tspan x="342.37836" y="-930.47211"/></text><text opacity=".8" x="-1149.0848" y="-937.68201"><tspan x="-1149.0848" y="-937.68201"/></text><text opacity=".8" x="311.45795" y="-1210.9163"><tspan x="311.45795" y="-1210.9163"/></text><text opacity=".8" x="1797.5814" y="-584.22479"><tspan x="1797.5814" y="-584.22479"/></text><text opacity=".8" x="1821.5422" y="-624.96655"><tspan x="1821.5422" y="-624.96655"/></text><text opacity=".8" x="330.0791" y="-632.17645"><tspan x="330.0791" y="-632.17645"/></text><text opacity=".8" x="1790.6219" y="-905.41046"><tspan x="1790.6219" y="-905.41046"/></text><text opacity=".8" x="-607.73724" y="-680.26776"><tspan x="-607.73724" y="-680.26776"/></text><text opacity=".8" x="-2431.4229" y="65.285782"><tspan x="-2431.4229" y="65.285782"/></text><text opacity=".8" x="-716.66748" y="158.15791"><tspan x="-716.66748" y="158.15791"/></text><text opacity=".8" x="392.35687" y="-21.024225"><tspan x="392.35687" y="-21.024225"/></text><text opacity=".8" x="416.31781" y="-61.765934"><tspan x="416.31781" y="-61.765934"/></text><text opacity=".8" x="-1075.1454" y="-68.975906"><tspan x="-1075.1454" y="-68.975906"/></text><text opacity=".8" x="385.3974" y="-342.20996"><tspan x="385.3974" y="-342.20996"/></text><text opacity=".8" x="-642.33722" y="-71.690155"><tspan x="-642.33722" y="-71.690155"/></text><text opacity=".8" x="-2466.0232" y="673.86334"><tspan x="-2466.0232" y="673.86334"/></text><text opacity=".8" x="-491.24414" y="-933.22064"><tspan x="-491.24414" y="-933.22064"/></text><text opacity=".8" x="316.358" y="-1346.6909"><tspan x="316.358" y="-1346.6909"/></text><text opacity=".8" x="340.31891" y="-1387.4326"><tspan x="340.31891" y="-1387.4326"/></text><text opacity=".8" x="-1151.1443" y="-1394.6426"><tspan x="-1151.1443" y="-1394.6426"/></text><text opacity=".8" x="309.3985" y="-1667.8767"><tspan x="309.3985" y="-1667.8767"/></text><text opacity=".8" x="1795.5219" y="-1041.1854"><tspan x="1795.5219" y="-1041.1854"/></text><text opacity=".8" x="1819.4827" y="-1081.927"><tspan x="1819.4827" y="-1081.927"/></text><text opacity=".8" x="328.01965" y="-1089.137"><tspan x="328.01965" y="-1089.137"/></text><text opacity=".8" x="1788.5624" y="-1362.3711"><tspan x="1788.5624" y="-1362.3711"/></text><text opacity=".8" x="-609.79669" y="-1137.2283"><tspan x="-609.79669" y="-1137.2283"/></text><text opacity=".8" x="-2433.4824" y="-391.67468"><tspan x="-2433.4824" y="-391.67468"/></text><text opacity=".8" x="-718.72693" y="-298.80252"><tspan x="-718.72693" y="-298.80252"/></text><text opacity=".8" x="121.28764" y="-57.888355"><tspan x="121.28764" y="-57.888355"/></text><text opacity=".8" x="145.24858" y="-98.630074"><tspan x="145.24858" y="-98.630074"/></text><text opacity=".8" x="-1124.5681" y="-292.65869"><tspan x="-1124.5681" y="-292.65869"/></text><text opacity=".8" x="-316.96606" y="-706.12885"><tspan x="-316.96606" y="-706.12885"/></text><text opacity=".8" x="-293.00513" y="-746.87054"><tspan x="-293.00513" y="-746.87054"/></text><text opacity=".8" x="-1784.4683" y="-754.08044"><tspan x="-1784.4683" y="-754.08044"/></text><text opacity=".8" x="-323.92551" y="-1027.3146"><tspan x="-323.92551" y="-1027.3146"/></text><text opacity=".8" x="1162.1979" y="-400.6232"><tspan x="1162.1979" y="-400.6232"/></text><text opacity=".8" x="1186.1587" y="-441.36493"><tspan x="1186.1587" y="-441.36493"/></text><text opacity=".8" x="-305.30438" y="-448.57489"><tspan x="-305.30438" y="-448.57489"/></text><text opacity=".8" x="1155.2384" y="-721.80896"><tspan x="1155.2384" y="-721.80896"/></text><text opacity=".8" x="-1243.1207" y="-496.66617"><tspan x="-1243.1207" y="-496.66617"/></text><text opacity=".8" x="-3066.8064" y="248.88739"><tspan x="-3066.8064" y="248.88739"/></text><text opacity=".8" x="-1352.0564" y="341.759"><tspan x="-1352.0564" y="341.759"/></text><text opacity=".8" x="842.92157" y="-12.881489"><tspan x="842.92157" y="-12.881489"/></text><text opacity=".8" x="866.88251" y="-53.623196"><tspan x="866.88251" y="-53.623196"/></text><text opacity=".8" x="-603.67584" y="-83.701332"><tspan x="-603.67584" y="-83.701332"/></text><text opacity=".8" x="-2427.3618" y="661.85211"><tspan x="-2427.3618" y="661.85211"/></text><text opacity=".8" x="-489.18472" y="-469.02228"><tspan x="-489.18472" y="-469.02228"/></text><text opacity=".8" x="318.41742" y="-882.49237"><tspan x="318.41742" y="-882.49237"/></text><text opacity=".8" x="342.37836" y="-923.23413"><tspan x="342.37836" y="-923.23413"/></text><text opacity=".8" x="-1149.0848" y="-930.44403"><tspan x="-1149.0848" y="-930.44403"/></text><text opacity=".8" x="311.45795" y="-1203.6782"><tspan x="311.45795" y="-1203.6782"/></text><text opacity=".8" x="1797.5814" y="-576.98682"><tspan x="1797.5814" y="-576.98682"/></text><text opacity=".8" x="1821.5422" y="-617.72858"><tspan x="1821.5422" y="-617.72858"/></text><text opacity=".8" x="330.0791" y="-624.93848"><tspan x="330.0791" y="-624.93848"/></text><text opacity=".8" x="1790.6219" y="-898.17242"><tspan x="1790.6219" y="-898.17242"/></text><text opacity=".8" x="-607.73724" y="-673.02979"><tspan x="-607.73724" y="-673.02979"/></text><text opacity=".8" x="-2431.4229" y="72.523773"><tspan x="-2431.4229" y="72.523773"/></text><text opacity=".8" x="-716.66748" y="165.3959"><tspan x="-716.66748" y="165.3959"/></text><text opacity=".8" x="392.35687" y="-13.786238"><tspan x="392.35687" y="-13.786238"/></text><text opacity=".8" x="416.31781" y="-54.527943"><tspan x="416.31781" y="-54.527943"/></text><text opacity=".8" x="-1075.1454" y="-61.737915"><tspan x="-1075.1454" y="-61.737915"/></text><text opacity=".8" x="385.3974" y="-334.97195"><tspan x="385.3974" y="-334.97195"/></text><text opacity=".8" x="-642.33722" y="-64.452164"><tspan x="-642.33722" y="-64.452164"/></text><text opacity=".8" x="-2466.0232" y="681.10138"><tspan x="-2466.0232" y="681.10138"/></text><text opacity=".8" x="-491.24414" y="-925.98267"><tspan x="-491.24414" y="-925.98267"/></text><text opacity=".8" x="316.358" y="-1339.4529"><tspan x="316.358" y="-1339.4529"/></text><text opacity=".8" x="340.31891" y="-1380.1947"><tspan x="340.31891" y="-1380.1947"/></text><text opacity=".8" x="-1151.1443" y="-1387.4045"><tspan x="-1151.1443" y="-1387.4045"/></text><text opacity=".8" x="309.3985" y="-1660.6387"><tspan x="309.3985" y="-1660.6387"/></text><text opacity=".8" x="1795.5219" y="-1033.9474"><tspan x="1795.5219" y="-1033.9474"/></text><text opacity=".8" x="1819.4827" y="-1074.6891"><tspan x="1819.4827" y="-1074.6891"/></text><text opacity=".8" x="328.01965" y="-1081.8989"><tspan x="328.01965" y="-1081.8989"/></text><text opacity=".8" x="1788.5624" y="-1355.1331"><tspan x="1788.5624" y="-1355.1331"/></text><text opacity=".8" x="-609.79669" y="-1129.9902"><tspan x="-609.79669" y="-1129.9902"/></text><text opacity=".8" x="-2433.4824" y="-384.43668"><tspan x="-2433.4824" y="-384.43668"/></text><text opacity=".8" x="-718.72693" y="-291.56451"><tspan x="-718.72693" y="-291.56451"/></text><text opacity=".8" x="121.28764" y="-50.650372"><tspan x="121.28764" y="-50.650372"/></text><text opacity=".8" x="145.24858" y="-91.392082"><tspan x="145.24858" y="-91.392082"/></text><text opacity=".8" x="-1124.5681" y="-285.42065"><tspan x="-1124.5681" y="-285.42065"/></text><text opacity=".8" x="-316.96606" y="-698.89087"><tspan x="-316.96606" y="-698.89087"/></text><text opacity=".8" x="-293.00513" y="-739.63257"><tspan x="-293.00513" y="-739.63257"/></text><text opacity=".8" x="-1784.4683" y="-746.84253"><tspan x="-1784.4683" y="-746.84253"/></text><text opacity=".8" x="-323.92551" y="-1020.0765"><tspan x="-323.92551" y="-1020.0765"/></text><text opacity=".8" x="1162.1979" y="-393.38522"><tspan x="1162.1979" y="-393.38522"/></text><text opacity=".8" x="1186.1587" y="-434.12695"><tspan x="1186.1587" y="-434.12695"/></text><text opacity=".8" x="-305.30438" y="-441.33688"><tspan x="-305.30438" y="-441.33688"/></text><text opacity=".8" x="1155.2384" y="-714.57098"><tspan x="1155.2384" y="-714.57098"/></text><text opacity=".8" x="-1243.1207" y="-489.42816"><tspan x="-1243.1207" y="-489.42816"/></text><text opacity=".8" x="-3066.8064" y="256.12537"><tspan x="-3066.8064" y="256.12537"/></text><text opacity=".8" x="-1352.0564" y="348.99899"><tspan x="-1352.0564" y="348.99899"/></text><text x="401.59961" y="-392.15753"><tspan x="401.59961" y="-392.15753"/><tspan x="401.59961" y="-376.32446"/></text><text opacity=".8" x="866.78351" y="-874.20209"><tspan x="866.78351" y="-874.20209"/></text><text opacity=".8" x="-956.90247" y="-128.64862"><tspan x="-956.90247" y="-128.64862"/></text><text opacity=".8" x="1593.863" y="-1159.198"><tspan x="1593.863" y="-1159.198"/></text><text opacity=".8" x="1617.8239" y="-1199.9397"><tspan x="1617.8239" y="-1199.9397"/></text><text opacity=".8" x="126.36076" y="-1207.1497"><tspan x="126.36076" y="-1207.1497"/></text><text opacity=".8" x="1586.9036" y="-1480.3838"><tspan x="1586.9036" y="-1480.3838"/></text><g transform="translate(-1.0000212 -1)"><rect fill="#ff6c89" height="20" rx="10" transform="matrix(0 -1 -1 0 0 0)" width="20" x="-22" y="-21.999929"/><path d="m7.004888 17.927601c.035026-.348172.2404921-1.100993.7508033-2.7509.8634197-2.791571 1.4048908-6.05672 1.1752758-6.9791469-.057073-.2292721-.0633693-.3468518-.0214016-.3997617.1306985-.1647854.6549274-.343873 1.0866356-.3712164.8914969-.018734.8471709.3147001.8178609 1.0407086-.02628.6507316-.196541 2.1509074-.354492 2.9712774-.04902.254559-.07515.500921-.05807.54747.02574.07021.265132.08448 1.404457.08373.75538-.000461 1.357518-.02102 1.394459-.04559.115255-.07668.182748-.52061.672087-2.7657236.261758-1.2009843.520676-2.2633193.575369-2.3607533.124791-.2223158.431868-.3976903.696338-.3976903.270095 0 .792077.1517987.955167.2899838l.131397.1113342-.12549.3764041c-.287336.8618619-1.084735 4.7066911-1.397574 6.7388981-.08268.537112-.199502 1.234709-.2596 1.550216-.130286.683983-.13372.760472-.01659 1.076622.185339.500293.17649.549064-.124957.688592-.14931.06911-.491394.164456-.760188.21188-.909108.160398-1.186614-.04412-1.187004-.874805-.000272-.558916.05103-.672913.399555-2.140367.153441-.646065.279045-1.042432.279045-1.106351 0-.108217-.027-.113431-.392396-.07576-.215818.02225-.875477.04384-1.465908.04796-.590433.0042-1.090778.02558-1.111881.04766-.02109.02208-.1377649.303638-.2592519.851225-.121482.547587-.3401326 1.448387-.4858838 2.001776-.145752.553388-.2758999 1.171222-.2892148 1.372961-.015831.239595-.056321.396614-.1167974.45277-.1374079.12759-.8167461.329991-1.2446718.370835-.5218511.05547-.7053976-.176122-.6670742-.564253z" opacity=".2"/><path d="m7.004888 17.427599c.035026-.348172.2404921-1.100993.7508033-2.7509.8634197-2.791571 1.4048908-6.0567206 1.1752758-6.9791475-.057073-.2292721-.0633693-.3468518-.0214016-.3997617.1306985-.1647854.6549274-.343873 1.0866356-.3712164.8914969-.018734.8471709.3147001.8178609 1.0407086-.02628.6507316-.196541 2.150908-.354492 2.971278-.04902.254559-.07515.500921-.05807.54747.02574.07021.265132.08448 1.404457.08373.75538-.000461 1.357518-.02102 1.394459-.04559.115255-.07668.182748-.52061.672087-2.7657242.261758-1.2009843.520676-2.2633193.575369-2.3607533.124791-.2223158.431868-.3976903.696338-.3976903.270095 0 .792077.1517987.955167.2899838l.131397.1113342-.12549.3764041c-.287336.8618619-1.084735 4.7066917-1.397574 6.7388987-.08268.537112-.199502 1.234709-.2596 1.550216-.130286.683983-.13372.760472-.01659 1.076622.185339.500293.17649.549064-.124957.688592-.14931.06911-.491394.164456-.760188.21188-.909108.160398-1.186614-.04412-1.187004-.874805-.000272-.558916.05103-.672913.399555-2.140367.153441-.646065.279045-1.042432.279045-1.106351 0-.108217-.027-.113431-.392396-.07576-.215818.02225-.875477.04384-1.465908.04796-.590433.0042-1.090778.02558-1.111881.04766-.02109.02208-.1377649.303638-.2592519.851225-.121482.547587-.3401326 1.448387-.4858838 2.001776-.145752.553388-.2758999 1.171222-.2892148 1.372961-.015831.239595-.056321.396614-.1167974.45277-.1374079.12759-.8167461.329991-1.2446718.370835-.5218511.05547-.7053976-.176122-.6670742-.564253z" fill="#fff"/><path d="m12.000072 2c-5.5400005 0-10.0000005 4.46-10.0000005 10 0 .08394.00383.166571.00586.25.1323357-5.4230685 4.5380775-9.75 9.9941415-9.75 5.456063 0 9.861805 4.3269315 9.99414 9.75.002-.08343.0059-.166063.0059-.25 0-5.54-4.46-10-10-10z" fill="#fff" opacity=".2"/><path d="m2.0059309 11.75c-.00204.08343-.00586.166063-.00586.25 0 5.54 4.46 10 10.0000001 10 5.54 0 10-4.46 10-10 0-.08394-.0038-.166571-.0059-.25-.132335 5.423068-4.538077 9.75-9.99414 9.75-5.4560631 0-9.8618049-4.326932-9.9941407-9.75z" opacity=".3"/></g></svg>