/* XPM */
static char * links_32x32_xpm[] = {
"22 22 80 1",
" 	c None",
".	c #878787",
"+	c #818181",
"@	c #808080",
"#	c #888888",
"$	c #757575",
"%	c #717171",
"&	c #858585",
"*	c #777777",
"=	c #868686",
"-	c #848484",
";	c #737373",
">	c #756F6F",
",	c #8B5550",
"'	c #656565",
")	c #747474",
"!	c #816C6A",
"~	c #C14940",
"{	c #544D4C",
"]	c #515151",
"^	c #976360",
"/	c #E44439",
"(	c #634B49",
"_	c #4D4D4D",
":	c #585858",
"<	c #727171",
"[	c #AD5B55",
"}	c #F24235",
"|	c #814A46",
"1	c #4E4E4E",
"2	c #787878",
"3	c #7B6E6D",
"4	c #CE4F45",
"5	c #F34235",
"6	c #A24841",
"7	c #565656",
"8	c #8B6865",
"9	c #E3483D",
"0	c #C7453B",
"a	c #4F4D4D",
"b	c #505050",
"c	c #727272",
"d	c #8C8C8C",
"e	c #D07A74",
"f	c #DF4338",
"g	c #5A4C4B",
"h	c #6F6F6F",
"i	c #7B7B7B",
"j	c #E3E3E3",
"k	c #F2F2F2",
"l	c #C7726C",
"m	c #704B48",
"n	c #4C4C4C",
"o	c #6E6E6E",
"p	c #CECECE",
"q	c #DFDFDF",
"r	c #4A4A4A",
"s	c #6A6A6A",
"t	c #B4B4B4",
"u	c #C8C8C8",
"v	c #5C5C5C",
"w	c #484848",
"x	c #979797",
"y	c #F1F1F1",
"z	c #A5A5A5",
"A	c #4F4F4F",
"B	c #686868",
"C	c #828282",
"D	c #464646",
"E	c #6D6D6D",
"F	c #C1C1C1",
"G	c #636363",
"H	c #5B5B5B",
"I	c #535353",
"J	c #4B4B4B",
"K	c #3F3F3F",
"L	c #3D3D3D",
"M	c #494949",
"N	c #3C3C3C",
"O	c #414141",
"                      ",
"        .+@@+#        ",
"      @$%%%%%%$+      ",
"    &*%%%%%%%%%%*=    ",
"   -;%%%%%%%%%%%>,'   ",
"   )%%%%%%%%%%%!~{]   ",
"  *%%%%%%%%%%%^/(__:  ",
"  %%%%%%%%%%<[}|___1  ",
" 2%%%%%%%%%3456_____7 ",
" ;%%%%%%%%8950a_____b ",
" c%%%%%%%de5fg______1 ",
" h%%%%%%ijklm_______n ",
" o%%%%%cpkq%________r ",
" s%%%%%tkuv_________w ",
"  %%%%xyzA__________  ",
"  B%%@jC___________D  ",
"   E$FG___________r   ",
"   H=I___________JK   ",
"    LM__________wN    ",
"      OM______MO      ",
"        LOOOOL        ",
"                      "};
