<?xml version="1.0" encoding="UTF-8" standalone="no"?>
<svg
   xmlns:dc="http://purl.org/dc/elements/1.1/"
   xmlns:cc="http://creativecommons.org/ns#"
   xmlns:rdf="http://www.w3.org/1999/02/22-rdf-syntax-ns#"
   xmlns:svg="http://www.w3.org/2000/svg"
   xmlns="http://www.w3.org/2000/svg"
   id="svg2817"
   height="22"
   width="22"
   version="1.0">
  <defs
     id="defs221" />
  <metadata
     id="metadata57">
    <rdf:RDF>
      <cc:Work
         rdf:about="">
        <dc:format>image/svg+xml</dc:format>
        <dc:type
           rdf:resource="http://purl.org/dc/dcmitype/StillImage" />
        <dc:title></dc:title>
      </cc:Work>
    </rdf:RDF>
  </metadata>
  <text
     id="text4087-2-6-5"
     font-size="12.666px"
     xml:space="preserve"
     y="-15.187399"
     x="877.22626"
     style="font-size:12.66600037px;font-family:'Bitstream Vera Sans';opacity:0.8;fill:#000000"><tspan
       id="tspan4089-7-2-9"
       y="-15.187399"
       x="877.22626" /></text>
  <text
     id="text4087-2-6-5-5"
     font-size="12.666px"
     xml:space="preserve"
     y="-55.929108"
     x="901.18719"
     style="font-size:12.66600037px;font-family:'Bitstream Vera Sans';opacity:0.8;fill:#000000"><tspan
       id="tspan4089-7-2-9-6"
       y="-55.929108"
       x="901.18719" /></text>
  <text
     id="text4087-2-6-5-2"
     font-size="12.666px"
     xml:space="preserve"
     y="-86.007248"
     x="-569.37115"
     style="font-size:12.66600037px;font-family:'Bitstream Vera Sans';opacity:0.8;fill:#000000"><tspan
       id="tspan4089-7-2-9-2"
       y="-86.007248"
       x="-569.37115" /></text>
  <text
     id="text4087-2-6-5-59"
     font-size="12.666px"
     xml:space="preserve"
     y="659.5462"
     x="-2393.0571"
     style="font-size:12.66600037px;font-family:'Bitstream Vera Sans';opacity:0.8;fill:#000000"><tspan
       id="tspan4089-7-2-9-4"
       y="659.5462"
       x="-2393.0571" /></text>
  <text
     id="text4087-2-6-5-1"
     font-size="12.666px"
     xml:space="preserve"
     y="-471.32822"
     x="-454.88007"
     style="font-size:12.66600037px;font-family:'Bitstream Vera Sans';opacity:0.8;fill:#000000"><tspan
       id="tspan4089-7-2-9-7"
       y="-471.32822"
       x="-454.88007" /></text>
  <text
     id="text4087-2-6-5-7"
     font-size="12.666px"
     xml:space="preserve"
     y="-884.79834"
     x="352.72208"
     style="font-size:12.66600037px;font-family:'Bitstream Vera Sans';opacity:0.8;fill:#000000"><tspan
       id="tspan4089-7-2-9-1"
       y="-884.79834"
       x="352.72208" /></text>
  <text
     id="text4087-2-6-5-5-3"
     font-size="12.666px"
     xml:space="preserve"
     y="-925.54004"
     x="376.68301"
     style="font-size:12.66600037px;font-family:'Bitstream Vera Sans';opacity:0.8;fill:#000000"><tspan
       id="tspan4089-7-2-9-6-5"
       y="-925.54004"
       x="376.68301" /></text>
  <text
     id="text4087-2-6-5-3"
     font-size="12.666px"
     xml:space="preserve"
     y="-932.74994"
     x="-1114.7802"
     style="font-size:12.66600037px;font-family:'Bitstream Vera Sans';opacity:0.8;fill:#000000"><tspan
       id="tspan4089-7-2-9-18"
       y="-932.74994"
       x="-1114.7802" /></text>
  <text
     id="text4087-2-6-5-4"
     font-size="12.666px"
     xml:space="preserve"
     y="-1205.9841"
     x="345.7626"
     style="font-size:12.66600037px;font-family:'Bitstream Vera Sans';opacity:0.8;fill:#000000"><tspan
       id="tspan4089-7-2-9-9"
       y="-1205.9841"
       x="345.7626" /></text>
  <text
     id="text4087-2-6-5-7-1"
     font-size="12.666px"
     xml:space="preserve"
     y="-579.29272"
     x="1831.8861"
     style="font-size:12.66600037px;font-family:'Bitstream Vera Sans';opacity:0.8;fill:#000000"><tspan
       id="tspan4089-7-2-9-1-8"
       y="-579.29272"
       x="1831.8861" /></text>
  <text
     id="text4087-2-6-5-5-5"
     font-size="12.666px"
     xml:space="preserve"
     y="-620.03448"
     x="1855.8469"
     style="font-size:12.66600037px;font-family:'Bitstream Vera Sans';opacity:0.8;fill:#000000"><tspan
       id="tspan4089-7-2-9-6-9"
       y="-620.03448"
       x="1855.8469" /></text>
  <text
     id="text4087-2-6-5-75"
     font-size="12.666px"
     xml:space="preserve"
     y="-627.24438"
     x="364.38376"
     style="font-size:12.66600037px;font-family:'Bitstream Vera Sans';opacity:0.8;fill:#000000"><tspan
       id="tspan4089-7-2-9-3"
       y="-627.24438"
       x="364.38376" /></text>
  <text
     id="text4087-2-6-5-4-8"
     font-size="12.666px"
     xml:space="preserve"
     y="-900.47839"
     x="1824.9266"
     style="font-size:12.66600037px;font-family:'Bitstream Vera Sans';opacity:0.8;fill:#000000"><tspan
       id="tspan4089-7-2-9-9-8"
       y="-900.47839"
       x="1824.9266" /></text>
  <text
     id="text4087-2-6-5-45"
     font-size="12.666px"
     xml:space="preserve"
     y="-675.33569"
     x="-573.43256"
     style="font-size:12.66600037px;font-family:'Bitstream Vera Sans';opacity:0.8;fill:#000000"><tspan
       id="tspan4089-7-2-9-75"
       y="-675.33569"
       x="-573.43256" /></text>
  <text
     id="text4087-2-6-5-59-7"
     font-size="12.666px"
     xml:space="preserve"
     y="70.217857"
     x="-2397.1182"
     style="font-size:12.66600037px;font-family:'Bitstream Vera Sans';opacity:0.8;fill:#000000"><tspan
       id="tspan4089-7-2-9-4-0"
       y="70.217857"
       x="-2397.1182" /></text>
  <text
     id="text4087-2-6-5-8"
     font-size="12.666px"
     xml:space="preserve"
     y="163.09"
     x="-682.36279"
     style="font-size:12.66600037px;font-family:'Bitstream Vera Sans';opacity:0.8;fill:#000000"><tspan
       id="tspan4089-7-2-9-19"
       y="163.09"
       x="-682.36279" /></text>
  <text
     id="text4087-2-6-5-7-5"
     font-size="12.666px"
     xml:space="preserve"
     y="-16.092148"
     x="426.66153"
     style="font-size:12.66600037px;font-family:'Bitstream Vera Sans';opacity:0.8;fill:#000000"><tspan
       id="tspan4089-7-2-9-1-2"
       y="-16.092148"
       x="426.66153" /></text>
  <text
     id="text4087-2-6-5-5-0"
     font-size="12.666px"
     xml:space="preserve"
     y="-56.833855"
     x="450.62247"
     style="font-size:12.66600037px;font-family:'Bitstream Vera Sans';opacity:0.8;fill:#000000"><tspan
       id="tspan4089-7-2-9-6-2"
       y="-56.833855"
       x="450.62247" /></text>
  <text
     id="text4087-2-6-5-26"
     font-size="12.666px"
     xml:space="preserve"
     y="-64.043823"
     x="-1040.8407"
     style="font-size:12.66600037px;font-family:'Bitstream Vera Sans';opacity:0.8;fill:#000000"><tspan
       id="tspan4089-7-2-9-90"
       y="-64.043823"
       x="-1040.8407" /></text>
  <text
     id="text4087-2-6-5-4-3"
     font-size="12.666px"
     xml:space="preserve"
     y="-337.27789"
     x="419.70206"
     style="font-size:12.66600037px;font-family:'Bitstream Vera Sans';opacity:0.8;fill:#000000"><tspan
       id="tspan4089-7-2-9-9-5"
       y="-337.27789"
       x="419.70206" /></text>
  <text
     id="text4087-2-6-5-55"
     font-size="12.666px"
     xml:space="preserve"
     y="-66.758072"
     x="-608.03253"
     style="font-size:12.66600037px;font-family:'Bitstream Vera Sans';opacity:0.8;fill:#000000"><tspan
       id="tspan4089-7-2-9-32"
       y="-66.758072"
       x="-608.03253" /></text>
  <text
     id="text4087-2-6-5-59-9"
     font-size="12.666px"
     xml:space="preserve"
     y="678.79541"
     x="-2431.7185"
     style="font-size:12.66600037px;font-family:'Bitstream Vera Sans';opacity:0.8;fill:#000000"><tspan
       id="tspan4089-7-2-9-4-1"
       y="678.79541"
       x="-2431.7185" /></text>
  <text
     id="text4087-2-6-5-1-8"
     font-size="12.666px"
     xml:space="preserve"
     y="-928.28857"
     x="-456.93948"
     style="font-size:12.66600037px;font-family:'Bitstream Vera Sans';opacity:0.8;fill:#000000"><tspan
       id="tspan4089-7-2-9-7-8"
       y="-928.28857"
       x="-456.93948" /></text>
  <text
     id="text4087-2-6-5-7-8"
     font-size="12.666px"
     xml:space="preserve"
     y="-1341.7588"
     x="350.66266"
     style="font-size:12.66600037px;font-family:'Bitstream Vera Sans';opacity:0.8;fill:#000000"><tspan
       id="tspan4089-7-2-9-1-9"
       y="-1341.7588"
       x="350.66266" /></text>
  <text
     id="text4087-2-6-5-5-52"
     font-size="12.666px"
     xml:space="preserve"
     y="-1382.5005"
     x="374.62357"
     style="font-size:12.66600037px;font-family:'Bitstream Vera Sans';opacity:0.8;fill:#000000"><tspan
       id="tspan4089-7-2-9-6-4"
       y="-1382.5005"
       x="374.62357" /></text>
  <text
     id="text4087-2-6-5-3-4"
     font-size="12.666px"
     xml:space="preserve"
     y="-1389.7104"
     x="-1116.8396"
     style="font-size:12.66600037px;font-family:'Bitstream Vera Sans';opacity:0.8;fill:#000000"><tspan
       id="tspan4089-7-2-9-18-3"
       y="-1389.7104"
       x="-1116.8396" /></text>
  <text
     id="text4087-2-6-5-4-7"
     font-size="12.666px"
     xml:space="preserve"
     y="-1662.9446"
     x="343.70316"
     style="font-size:12.66600037px;font-family:'Bitstream Vera Sans';opacity:0.8;fill:#000000"><tspan
       id="tspan4089-7-2-9-9-54"
       y="-1662.9446"
       x="343.70316" /></text>
  <text
     id="text4087-2-6-5-7-1-2"
     font-size="12.666px"
     xml:space="preserve"
     y="-1036.2533"
     x="1829.8265"
     style="font-size:12.66600037px;font-family:'Bitstream Vera Sans';opacity:0.8;fill:#000000"><tspan
       id="tspan4089-7-2-9-1-8-0"
       y="-1036.2533"
       x="1829.8265" /></text>
  <text
     id="text4087-2-6-5-5-5-6"
     font-size="12.666px"
     xml:space="preserve"
     y="-1076.9949"
     x="1853.7874"
     style="font-size:12.66600037px;font-family:'Bitstream Vera Sans';opacity:0.8;fill:#000000"><tspan
       id="tspan4089-7-2-9-6-9-8"
       y="-1076.9949"
       x="1853.7874" /></text>
  <text
     id="text4087-2-6-5-75-4"
     font-size="12.666px"
     xml:space="preserve"
     y="-1084.2048"
     x="362.32431"
     style="font-size:12.66600037px;font-family:'Bitstream Vera Sans';opacity:0.8;fill:#000000"><tspan
       id="tspan4089-7-2-9-3-9"
       y="-1084.2048"
       x="362.32431" /></text>
  <text
     id="text4087-2-6-5-4-8-1"
     font-size="12.666px"
     xml:space="preserve"
     y="-1357.439"
     x="1822.8671"
     style="font-size:12.66600037px;font-family:'Bitstream Vera Sans';opacity:0.8;fill:#000000"><tspan
       id="tspan4089-7-2-9-9-8-8"
       y="-1357.439"
       x="1822.8671" /></text>
  <text
     id="text4087-2-6-5-45-0"
     font-size="12.666px"
     xml:space="preserve"
     y="-1132.2961"
     x="-575.492"
     style="font-size:12.66600037px;font-family:'Bitstream Vera Sans';opacity:0.8;fill:#000000"><tspan
       id="tspan4089-7-2-9-75-2"
       y="-1132.2961"
       x="-575.492" /></text>
  <text
     id="text4087-2-6-5-59-5"
     font-size="12.666px"
     xml:space="preserve"
     y="-386.74261"
     x="-2399.1777"
     style="font-size:12.66600037px;font-family:'Bitstream Vera Sans';opacity:0.8;fill:#000000"><tspan
       id="tspan4089-7-2-9-4-00"
       y="-386.74261"
       x="-2399.1777" /></text>
  <text
     id="text4087-2-6-5-264"
     font-size="12.666px"
     xml:space="preserve"
     y="-293.87045"
     x="-684.42224"
     style="font-size:12.66600037px;font-family:'Bitstream Vera Sans';opacity:0.8;fill:#000000"><tspan
       id="tspan4089-7-2-9-8"
       y="-293.87045"
       x="-684.42224" /></text>
  <text
     id="text4087-2-6-5-42"
     font-size="12.666px"
     xml:space="preserve"
     y="-52.956276"
     x="155.5923"
     style="font-size:12.66600037px;font-family:'Bitstream Vera Sans';opacity:0.8;fill:#000000"><tspan
       id="tspan4089-7-2-9-93"
       y="-52.956276"
       x="155.5923" /></text>
  <text
     id="text4087-2-6-5-5-05"
     font-size="12.666px"
     xml:space="preserve"
     y="-93.697998"
     x="179.55324"
     style="font-size:12.66600037px;font-family:'Bitstream Vera Sans';opacity:0.8;fill:#000000"><tspan
       id="tspan4089-7-2-9-6-49"
       y="-93.697998"
       x="179.55324" /></text>
  <text
     id="text4087-2-6-5-1-4"
     font-size="12.666px"
     xml:space="preserve"
     y="-287.72662"
     x="-1090.2634"
     style="font-size:12.66600037px;font-family:'Bitstream Vera Sans';opacity:0.8;fill:#000000"><tspan
       id="tspan4089-7-2-9-7-7"
       y="-287.72662"
       x="-1090.2634" /></text>
  <text
     id="text4087-2-6-5-7-56"
     font-size="12.666px"
     xml:space="preserve"
     y="-701.19678"
     x="-282.66141"
     style="font-size:12.66600037px;font-family:'Bitstream Vera Sans';opacity:0.8;fill:#000000"><tspan
       id="tspan4089-7-2-9-1-1"
       y="-701.19678"
       x="-282.66141" /></text>
  <text
     id="text4087-2-6-5-5-8"
     font-size="12.666px"
     xml:space="preserve"
     y="-741.93848"
     x="-258.70047"
     style="font-size:12.66600037px;font-family:'Bitstream Vera Sans';opacity:0.8;fill:#000000"><tspan
       id="tspan4089-7-2-9-6-7"
       y="-741.93848"
       x="-258.70047" /></text>
  <text
     id="text4087-2-6-5-3-42"
     font-size="12.666px"
     xml:space="preserve"
     y="-749.14838"
     x="-1750.1636"
     style="font-size:12.66600037px;font-family:'Bitstream Vera Sans';opacity:0.8;fill:#000000"><tspan
       id="tspan4089-7-2-9-18-39"
       y="-749.14838"
       x="-1750.1636" /></text>
  <text
     id="text4087-2-6-5-4-4"
     font-size="12.666px"
     xml:space="preserve"
     y="-1022.3825"
     x="-289.62085"
     style="font-size:12.66600037px;font-family:'Bitstream Vera Sans';opacity:0.8;fill:#000000"><tspan
       id="tspan4089-7-2-9-9-3"
       y="-1022.3825"
       x="-289.62085" /></text>
  <text
     id="text4087-2-6-5-7-1-0"
     font-size="12.666px"
     xml:space="preserve"
     y="-395.69113"
     x="1196.5026"
     style="font-size:12.66600037px;font-family:'Bitstream Vera Sans';opacity:0.8;fill:#000000"><tspan
       id="tspan4089-7-2-9-1-8-5"
       y="-395.69113"
       x="1196.5026" /></text>
  <text
     id="text4087-2-6-5-5-5-5"
     font-size="12.666px"
     xml:space="preserve"
     y="-436.43286"
     x="1220.4634"
     style="font-size:12.66600037px;font-family:'Bitstream Vera Sans';opacity:0.8;fill:#000000"><tspan
       id="tspan4089-7-2-9-6-9-2"
       y="-436.43286"
       x="1220.4634" /></text>
  <text
     id="text4087-2-6-5-75-9"
     font-size="12.666px"
     xml:space="preserve"
     y="-443.64282"
     x="-270.99973"
     style="font-size:12.66600037px;font-family:'Bitstream Vera Sans';opacity:0.8;fill:#000000"><tspan
       id="tspan4089-7-2-9-3-1"
       y="-443.64282"
       x="-270.99973" /></text>
  <text
     id="text4087-2-6-5-4-8-18"
     font-size="12.666px"
     xml:space="preserve"
     y="-716.87689"
     x="1189.5431"
     style="font-size:12.66600037px;font-family:'Bitstream Vera Sans';opacity:0.8;fill:#000000"><tspan
       id="tspan4089-7-2-9-9-8-4"
       y="-716.87689"
       x="1189.5431" /></text>
  <text
     id="text4087-2-6-5-45-3"
     font-size="12.666px"
     xml:space="preserve"
     y="-491.7341"
     x="-1208.816"
     style="font-size:12.66600037px;font-family:'Bitstream Vera Sans';opacity:0.8;fill:#000000"><tspan
       id="tspan4089-7-2-9-75-7"
       y="-491.7341"
       x="-1208.816" /></text>
  <text
     id="text4087-2-6-5-59-8"
     font-size="12.666px"
     xml:space="preserve"
     y="253.81946"
     x="-3032.5017"
     style="font-size:12.66600037px;font-family:'Bitstream Vera Sans';opacity:0.8;fill:#000000"><tspan
       id="tspan4089-7-2-9-4-2"
       y="253.81946"
       x="-3032.5017" /></text>
  <g
     id="layer4-0"
     transform="matrix(0.90475,0,0,0.90475,-716.75,-702.29)">
    <text
       id="text4087-2-6-5-20"
       font-size="14px"
       xml:space="preserve"
       y="1159.4154"
       x="-664.2738"
       style="font-size:14px;font-family:'Bitstream Vera Sans';opacity:0.8;fill:#000000"><tspan
         id="tspan4089-7-2-9-82"
         y="1159.4154"
         x="-664.2738" /></text>
  </g>
  <text
     id="text4087-2-6-5-9"
     font-size="12.666px"
     xml:space="preserve"
     y="-7.9494114"
     x="877.22626"
     style="font-size:12.66600037px;font-family:'Bitstream Vera Sans';opacity:0.8;fill:#000000"><tspan
       id="tspan4089-7-2-9-43"
       y="-7.9494114"
       x="877.22626" /></text>
  <text
     id="text4087-2-6-5-5-51"
     font-size="12.666px"
     xml:space="preserve"
     y="-48.691116"
     x="901.18719"
     style="font-size:12.66600037px;font-family:'Bitstream Vera Sans';opacity:0.8;fill:#000000"><tspan
       id="tspan4089-7-2-9-6-74"
       y="-48.691116"
       x="901.18719" /></text>
  <text
     id="text4087-2-6-5-2-3"
     font-size="12.666px"
     xml:space="preserve"
     y="-78.769257"
     x="-569.37115"
     style="font-size:12.66600037px;font-family:'Bitstream Vera Sans';opacity:0.8;fill:#000000"><tspan
       id="tspan4089-7-2-9-2-1"
       y="-78.769257"
       x="-569.37115" /></text>
  <text
     id="text4087-2-6-5-59-4"
     font-size="12.666px"
     xml:space="preserve"
     y="666.78418"
     x="-2393.0571"
     style="font-size:12.66600037px;font-family:'Bitstream Vera Sans';opacity:0.8;fill:#000000"><tspan
       id="tspan4089-7-2-9-4-6"
       y="666.78418"
       x="-2393.0571" /></text>
  <text
     id="text4087-2-6-5-1-9"
     font-size="12.666px"
     xml:space="preserve"
     y="-464.09021"
     x="-454.88007"
     style="font-size:12.66600037px;font-family:'Bitstream Vera Sans';opacity:0.8;fill:#000000"><tspan
       id="tspan4089-7-2-9-7-4"
       y="-464.09021"
       x="-454.88007" /></text>
  <text
     id="text4087-2-6-5-7-2"
     font-size="12.666px"
     xml:space="preserve"
     y="-877.5603"
     x="352.72208"
     style="font-size:12.66600037px;font-family:'Bitstream Vera Sans';opacity:0.8;fill:#000000"><tspan
       id="tspan4089-7-2-9-1-26"
       y="-877.5603"
       x="352.72208" /></text>
  <text
     id="text4087-2-6-5-5-3-4"
     font-size="12.666px"
     xml:space="preserve"
     y="-918.30206"
     x="376.68301"
     style="font-size:12.66600037px;font-family:'Bitstream Vera Sans';opacity:0.8;fill:#000000"><tspan
       id="tspan4089-7-2-9-6-5-1"
       y="-918.30206"
       x="376.68301" /></text>
  <text
     id="text4087-2-6-5-3-2"
     font-size="12.666px"
     xml:space="preserve"
     y="-925.51196"
     x="-1114.7802"
     style="font-size:12.66600037px;font-family:'Bitstream Vera Sans';opacity:0.8;fill:#000000"><tspan
       id="tspan4089-7-2-9-18-8"
       y="-925.51196"
       x="-1114.7802" /></text>
  <text
     id="text4087-2-6-5-4-89"
     font-size="12.666px"
     xml:space="preserve"
     y="-1198.7461"
     x="345.7626"
     style="font-size:12.66600037px;font-family:'Bitstream Vera Sans';opacity:0.8;fill:#000000"><tspan
       id="tspan4089-7-2-9-9-2"
       y="-1198.7461"
       x="345.7626" /></text>
  <text
     id="text4087-2-6-5-7-1-8"
     font-size="12.666px"
     xml:space="preserve"
     y="-572.05475"
     x="1831.8861"
     style="font-size:12.66600037px;font-family:'Bitstream Vera Sans';opacity:0.8;fill:#000000"><tspan
       id="tspan4089-7-2-9-1-8-8"
       y="-572.05475"
       x="1831.8861" /></text>
  <text
     id="text4087-2-6-5-5-5-8"
     font-size="12.666px"
     xml:space="preserve"
     y="-612.79651"
     x="1855.8469"
     style="font-size:12.66600037px;font-family:'Bitstream Vera Sans';opacity:0.8;fill:#000000"><tspan
       id="tspan4089-7-2-9-6-9-6"
       y="-612.79651"
       x="1855.8469" /></text>
  <text
     id="text4087-2-6-5-75-8"
     font-size="12.666px"
     xml:space="preserve"
     y="-620.00641"
     x="364.38376"
     style="font-size:12.66600037px;font-family:'Bitstream Vera Sans';opacity:0.8;fill:#000000"><tspan
       id="tspan4089-7-2-9-3-3"
       y="-620.00641"
       x="364.38376" /></text>
  <text
     id="text4087-2-6-5-4-8-8"
     font-size="12.666px"
     xml:space="preserve"
     y="-893.24036"
     x="1824.9266"
     style="font-size:12.66600037px;font-family:'Bitstream Vera Sans';opacity:0.8;fill:#000000"><tspan
       id="tspan4089-7-2-9-9-8-3"
       y="-893.24036"
       x="1824.9266" /></text>
  <text
     id="text4087-2-6-5-45-33"
     font-size="12.666px"
     xml:space="preserve"
     y="-668.09772"
     x="-573.43256"
     style="font-size:12.66600037px;font-family:'Bitstream Vera Sans';opacity:0.8;fill:#000000"><tspan
       id="tspan4089-7-2-9-75-8"
       y="-668.09772"
       x="-573.43256" /></text>
  <text
     id="text4087-2-6-5-59-7-0"
     font-size="12.666px"
     xml:space="preserve"
     y="77.455849"
     x="-2397.1182"
     style="font-size:12.66600037px;font-family:'Bitstream Vera Sans';opacity:0.8;fill:#000000"><tspan
       id="tspan4089-7-2-9-4-0-4"
       y="77.455849"
       x="-2397.1182" /></text>
  <text
     id="text4087-2-6-5-8-7"
     font-size="12.666px"
     xml:space="preserve"
     y="170.32799"
     x="-682.36279"
     style="font-size:12.66600037px;font-family:'Bitstream Vera Sans';opacity:0.8;fill:#000000"><tspan
       id="tspan4089-7-2-9-19-6"
       y="170.32799"
       x="-682.36279" /></text>
  <text
     id="text4087-2-6-5-7-5-8"
     font-size="12.666px"
     xml:space="preserve"
     y="-8.8541603"
     x="426.66153"
     style="font-size:12.66600037px;font-family:'Bitstream Vera Sans';opacity:0.8;fill:#000000"><tspan
       id="tspan4089-7-2-9-1-2-9"
       y="-8.8541603"
       x="426.66153" /></text>
  <text
     id="text4087-2-6-5-5-0-0"
     font-size="12.666px"
     xml:space="preserve"
     y="-49.595863"
     x="450.62247"
     style="font-size:12.66600037px;font-family:'Bitstream Vera Sans';opacity:0.8;fill:#000000"><tspan
       id="tspan4089-7-2-9-6-2-6"
       y="-49.595863"
       x="450.62247" /></text>
  <text
     id="text4087-2-6-5-26-8"
     font-size="12.666px"
     xml:space="preserve"
     y="-56.805836"
     x="-1040.8407"
     style="font-size:12.66600037px;font-family:'Bitstream Vera Sans';opacity:0.8;fill:#000000"><tspan
       id="tspan4089-7-2-9-90-7"
       y="-56.805836"
       x="-1040.8407" /></text>
  <text
     id="text4087-2-6-5-4-3-9"
     font-size="12.666px"
     xml:space="preserve"
     y="-330.03989"
     x="419.70206"
     style="font-size:12.66600037px;font-family:'Bitstream Vera Sans';opacity:0.8;fill:#000000"><tspan
       id="tspan4089-7-2-9-9-5-0"
       y="-330.03989"
       x="419.70206" /></text>
  <text
     id="text4087-2-6-5-55-3"
     font-size="12.666px"
     xml:space="preserve"
     y="-59.520081"
     x="-608.03253"
     style="font-size:12.66600037px;font-family:'Bitstream Vera Sans';opacity:0.8;fill:#000000"><tspan
       id="tspan4089-7-2-9-32-3"
       y="-59.520081"
       x="-608.03253" /></text>
  <text
     id="text4087-2-6-5-59-9-3"
     font-size="12.666px"
     xml:space="preserve"
     y="686.03345"
     x="-2431.7185"
     style="font-size:12.66600037px;font-family:'Bitstream Vera Sans';opacity:0.8;fill:#000000"><tspan
       id="tspan4089-7-2-9-4-1-7"
       y="686.03345"
       x="-2431.7185" /></text>
  <text
     id="text4087-2-6-5-1-8-3"
     font-size="12.666px"
     xml:space="preserve"
     y="-921.0506"
     x="-456.93948"
     style="font-size:12.66600037px;font-family:'Bitstream Vera Sans';opacity:0.8;fill:#000000"><tspan
       id="tspan4089-7-2-9-7-8-2"
       y="-921.0506"
       x="-456.93948" /></text>
  <text
     id="text4087-2-6-5-7-8-6"
     font-size="12.666px"
     xml:space="preserve"
     y="-1334.5208"
     x="350.66266"
     style="font-size:12.66600037px;font-family:'Bitstream Vera Sans';opacity:0.8;fill:#000000"><tspan
       id="tspan4089-7-2-9-1-9-5"
       y="-1334.5208"
       x="350.66266" /></text>
  <text
     id="text4087-2-6-5-5-52-2"
     font-size="12.666px"
     xml:space="preserve"
     y="-1375.2626"
     x="374.62357"
     style="font-size:12.66600037px;font-family:'Bitstream Vera Sans';opacity:0.8;fill:#000000"><tspan
       id="tspan4089-7-2-9-6-4-6"
       y="-1375.2626"
       x="374.62357" /></text>
  <text
     id="text4087-2-6-5-3-4-5"
     font-size="12.666px"
     xml:space="preserve"
     y="-1382.4724"
     x="-1116.8396"
     style="font-size:12.66600037px;font-family:'Bitstream Vera Sans';opacity:0.8;fill:#000000"><tspan
       id="tspan4089-7-2-9-18-3-8"
       y="-1382.4724"
       x="-1116.8396" /></text>
  <text
     id="text4087-2-6-5-4-7-7"
     font-size="12.666px"
     xml:space="preserve"
     y="-1655.7065"
     x="343.70316"
     style="font-size:12.66600037px;font-family:'Bitstream Vera Sans';opacity:0.8;fill:#000000"><tspan
       id="tspan4089-7-2-9-9-54-9"
       y="-1655.7065"
       x="343.70316" /></text>
  <text
     id="text4087-2-6-5-7-1-2-6"
     font-size="12.666px"
     xml:space="preserve"
     y="-1029.0154"
     x="1829.8265"
     style="font-size:12.66600037px;font-family:'Bitstream Vera Sans';opacity:0.8;fill:#000000"><tspan
       id="tspan4089-7-2-9-1-8-0-0"
       y="-1029.0154"
       x="1829.8265" /></text>
  <text
     id="text4087-2-6-5-5-5-6-4"
     font-size="12.666px"
     xml:space="preserve"
     y="-1069.757"
     x="1853.7874"
     style="font-size:12.66600037px;font-family:'Bitstream Vera Sans';opacity:0.8;fill:#000000"><tspan
       id="tspan4089-7-2-9-6-9-8-1"
       y="-1069.757"
       x="1853.7874" /></text>
  <text
     id="text4087-2-6-5-75-4-0"
     font-size="12.666px"
     xml:space="preserve"
     y="-1076.9668"
     x="362.32431"
     style="font-size:12.66600037px;font-family:'Bitstream Vera Sans';opacity:0.8;fill:#000000"><tspan
       id="tspan4089-7-2-9-3-9-4"
       y="-1076.9668"
       x="362.32431" /></text>
  <text
     id="text4087-2-6-5-4-8-1-8"
     font-size="12.666px"
     xml:space="preserve"
     y="-1350.2009"
     x="1822.8671"
     style="font-size:12.66600037px;font-family:'Bitstream Vera Sans';opacity:0.8;fill:#000000"><tspan
       id="tspan4089-7-2-9-9-8-8-7"
       y="-1350.2009"
       x="1822.8671" /></text>
  <text
     id="text4087-2-6-5-45-0-0"
     font-size="12.666px"
     xml:space="preserve"
     y="-1125.0581"
     x="-575.492"
     style="font-size:12.66600037px;font-family:'Bitstream Vera Sans';opacity:0.8;fill:#000000"><tspan
       id="tspan4089-7-2-9-75-2-8"
       y="-1125.0581"
       x="-575.492" /></text>
  <text
     id="text4087-2-6-5-59-5-6"
     font-size="12.666px"
     xml:space="preserve"
     y="-379.50461"
     x="-2399.1777"
     style="font-size:12.66600037px;font-family:'Bitstream Vera Sans';opacity:0.8;fill:#000000"><tspan
       id="tspan4089-7-2-9-4-00-2"
       y="-379.50461"
       x="-2399.1777" /></text>
  <text
     id="text4087-2-6-5-264-4"
     font-size="12.666px"
     xml:space="preserve"
     y="-286.63245"
     x="-684.42224"
     style="font-size:12.66600037px;font-family:'Bitstream Vera Sans';opacity:0.8;fill:#000000"><tspan
       id="tspan4089-7-2-9-8-7"
       y="-286.63245"
       x="-684.42224" /></text>
  <text
     id="text4087-2-6-5-42-9"
     font-size="12.666px"
     xml:space="preserve"
     y="-45.718292"
     x="155.5923"
     style="font-size:12.66600037px;font-family:'Bitstream Vera Sans';opacity:0.8;fill:#000000"><tspan
       id="tspan4089-7-2-9-93-3"
       y="-45.718292"
       x="155.5923" /></text>
  <text
     id="text4087-2-6-5-5-05-9"
     font-size="12.666px"
     xml:space="preserve"
     y="-86.460007"
     x="179.55324"
     style="font-size:12.66600037px;font-family:'Bitstream Vera Sans';opacity:0.8;fill:#000000"><tspan
       id="tspan4089-7-2-9-6-49-2"
       y="-86.460007"
       x="179.55324" /></text>
  <text
     id="text4087-2-6-5-1-4-8"
     font-size="12.666px"
     xml:space="preserve"
     y="-280.48859"
     x="-1090.2634"
     style="font-size:12.66600037px;font-family:'Bitstream Vera Sans';opacity:0.8;fill:#000000"><tspan
       id="tspan4089-7-2-9-7-7-3"
       y="-280.48859"
       x="-1090.2634" /></text>
  <text
     id="text4087-2-6-5-7-56-0"
     font-size="12.666px"
     xml:space="preserve"
     y="-693.9588"
     x="-282.66141"
     style="font-size:12.66600037px;font-family:'Bitstream Vera Sans';opacity:0.8;fill:#000000"><tspan
       id="tspan4089-7-2-9-1-1-1"
       y="-693.9588"
       x="-282.66141" /></text>
  <text
     id="text4087-2-6-5-5-8-7"
     font-size="12.666px"
     xml:space="preserve"
     y="-734.7005"
     x="-258.70047"
     style="font-size:12.66600037px;font-family:'Bitstream Vera Sans';opacity:0.8;fill:#000000"><tspan
       id="tspan4089-7-2-9-6-7-8"
       y="-734.7005"
       x="-258.70047" /></text>
  <text
     id="text4087-2-6-5-3-42-9"
     font-size="12.666px"
     xml:space="preserve"
     y="-741.91046"
     x="-1750.1636"
     style="font-size:12.66600037px;font-family:'Bitstream Vera Sans';opacity:0.8;fill:#000000"><tspan
       id="tspan4089-7-2-9-18-39-1"
       y="-741.91046"
       x="-1750.1636" /></text>
  <text
     id="text4087-2-6-5-4-4-5"
     font-size="12.666px"
     xml:space="preserve"
     y="-1015.1445"
     x="-289.62085"
     style="font-size:12.66600037px;font-family:'Bitstream Vera Sans';opacity:0.8;fill:#000000"><tspan
       id="tspan4089-7-2-9-9-3-4"
       y="-1015.1445"
       x="-289.62085" /></text>
  <text
     id="text4087-2-6-5-7-1-0-9"
     font-size="12.666px"
     xml:space="preserve"
     y="-388.45316"
     x="1196.5026"
     style="font-size:12.66600037px;font-family:'Bitstream Vera Sans';opacity:0.8;fill:#000000"><tspan
       id="tspan4089-7-2-9-1-8-5-2"
       y="-388.45316"
       x="1196.5026" /></text>
  <text
     id="text4087-2-6-5-5-5-5-5"
     font-size="12.666px"
     xml:space="preserve"
     y="-429.19489"
     x="1220.4634"
     style="font-size:12.66600037px;font-family:'Bitstream Vera Sans';opacity:0.8;fill:#000000"><tspan
       id="tspan4089-7-2-9-6-9-2-7"
       y="-429.19489"
       x="1220.4634" /></text>
  <text
     id="text4087-2-6-5-75-9-4"
     font-size="12.666px"
     xml:space="preserve"
     y="-436.40482"
     x="-270.99973"
     style="font-size:12.66600037px;font-family:'Bitstream Vera Sans';opacity:0.8;fill:#000000"><tspan
       id="tspan4089-7-2-9-3-1-9"
       y="-436.40482"
       x="-270.99973" /></text>
  <text
     id="text4087-2-6-5-4-8-18-9"
     font-size="12.666px"
     xml:space="preserve"
     y="-709.63892"
     x="1189.5431"
     style="font-size:12.66600037px;font-family:'Bitstream Vera Sans';opacity:0.8;fill:#000000"><tspan
       id="tspan4089-7-2-9-9-8-4-4"
       y="-709.63892"
       x="1189.5431" /></text>
  <text
     id="text4087-2-6-5-45-3-5"
     font-size="12.666px"
     xml:space="preserve"
     y="-484.49609"
     x="-1208.816"
     style="font-size:12.66600037px;font-family:'Bitstream Vera Sans';opacity:0.8;fill:#000000"><tspan
       id="tspan4089-7-2-9-75-7-9"
       y="-484.49609"
       x="-1208.816" /></text>
  <text
     id="text4087-2-6-5-59-8-3"
     font-size="12.666px"
     xml:space="preserve"
     y="261.05743"
     x="-3032.5017"
     style="font-size:12.66600037px;font-family:'Bitstream Vera Sans';opacity:0.8;fill:#000000"><tspan
       id="tspan4089-7-2-9-4-2-5"
       y="261.05743"
       x="-3032.5017" /></text>
  <g
     id="layer4-0-7"
     transform="matrix(0.90475,0,0,0.90475,-716.75,-695.05)">
    <text
       id="text4087-2-6-5-20-0"
       font-size="14px"
       xml:space="preserve"
       y="1159.4154"
       x="-664.2738"
       style="font-size:14px;font-family:'Bitstream Vera Sans';opacity:0.8;fill:#000000"><tspan
         id="tspan4089-7-2-9-82-8"
         y="1159.4154"
         x="-664.2738" /></text>
  </g>
  <text
     id="text7276"
     font-size="12.666px"
     xml:space="preserve"
     y="-387.22546"
     x="435.90427"
     style="font-size:12.66600037px;font-family:'Droid Sans';fill:#000000"><tspan
       id="tspan7278"
       y="-387.22546"
       x="435.90427" /><tspan
       id="tspan7280"
       y="-371.3924"
       x="435.90427" /></text>
  <text
     id="text4087-2-6-5-51"
     font-size="12.666px"
     xml:space="preserve"
     y="-869.27002"
     x="901.0882"
     style="font-size:12.66600037px;font-family:'Bitstream Vera Sans';opacity:0.8;fill:#000000"><tspan
       id="tspan4089-7-2-9-97"
       y="-869.27002"
       x="901.0882" /></text>
  <text
     id="text4087-2-6-5-59-2"
     font-size="12.666px"
     xml:space="preserve"
     y="-123.71655"
     x="-922.59778"
     style="font-size:12.66600037px;font-family:'Bitstream Vera Sans';opacity:0.8;fill:#000000"><tspan
       id="tspan4089-7-2-9-4-4"
       y="-123.71655"
       x="-922.59778" /></text>
  <text
     id="text4087-2-6-5-7-7"
     font-size="12.666px"
     xml:space="preserve"
     y="-1154.2659"
     x="1628.1677"
     style="font-size:12.66600037px;font-family:'Bitstream Vera Sans';opacity:0.8;fill:#000000"><tspan
       id="tspan4089-7-2-9-1-6"
       y="-1154.2659"
       x="1628.1677" /></text>
  <text
     id="text4087-2-6-5-5-6"
     font-size="12.666px"
     xml:space="preserve"
     y="-1195.0076"
     x="1652.1285"
     style="font-size:12.66600037px;font-family:'Bitstream Vera Sans';opacity:0.8;fill:#000000"><tspan
       id="tspan4089-7-2-9-6-53"
       y="-1195.0076"
       x="1652.1285" /></text>
  <text
     id="text4087-2-6-5-54"
     font-size="12.666px"
     xml:space="preserve"
     y="-1202.2175"
     x="160.66542"
     style="font-size:12.66600037px;font-family:'Bitstream Vera Sans';opacity:0.8;fill:#000000"><tspan
       id="tspan4089-7-2-9-0"
       y="-1202.2175"
       x="160.66542" /></text>
  <text
     id="text4087-2-6-5-4-1"
     font-size="12.666px"
     xml:space="preserve"
     y="-1475.4517"
     x="1621.2083"
     style="font-size:12.66600037px;font-family:'Bitstream Vera Sans';opacity:0.8;fill:#000000"><tspan
       id="tspan4089-7-2-9-9-28"
       y="-1475.4517"
       x="1621.2083" /></text>
  <rect
     id="rect4203"
     ry="1"
     rx="1"
     transform="matrix(0,-1,-1,0,0,0)"
     height="16"
     width="20"
     y="-19"
     x="-21"
     style="fill:#ff4848;fill-opacity:1" />
  <path
     style="opacity:0.2"
     id="rect4486"
     d="m 3,20 0,0.5 c 0,0.554 0.446,1 1,1 l 14,0 c 0.554,0 1,-0.446 1,-1 L 19,20 c 0,0.554 -0.446,1 -1,1 L 4,21 C 3.446,21 3,20.554 3,20 Z" />
  <path
     style="opacity:0.2;fill:#ffffff"
     id="rect4585"
     d="M 4,1 C 3.446,1 3,1.446 3,2 l 0,0.5 c 0,-0.554 0.446,-1 1,-1 l 14,0 c 0.554,0 1,0.446 1,1 L 19,2 C 19,1.446 18.554,1 18,1 L 4,1 Z" />
  <path
     id="path4369"
     d="M 7.5585938 1.5 C 7.5779958 1.56611 7.6289072 1.7617187 7.6289062 1.7617188 L 7.7519531 2.1308594 L 7.7460938 2.1308594 L 7.7558594 2.15625 C 7.7871494 2.25395 7.8117653 2.3544111 7.8320312 2.4550781 C 7.8522513 2.5557331 7.8676631 2.6577087 7.8769531 2.7597656 C 7.8860731 2.8618411 7.8904419 2.9644405 7.8886719 3.0664062 C 7.8871719 3.1683858 7.8793615 3.2688091 7.8671875 3.3691406 C 7.8550465 3.4694692 7.8371171 3.5688701 7.8144531 3.6660156 C 7.7917881 3.7631776 7.7654839 3.8586974 7.7324219 3.9511719 C 7.6993519 4.0436269 7.6624679 4.1344796 7.6191406 4.2207031 C 7.5758006 4.3069271 7.5261367 4.3883274 7.4726562 4.4667969 L 7.4824219 4.4628906 C 7.4256039 4.5425866 7.3736734 4.6273336 7.3261719 4.7128906 C 7.2786519 4.7984396 7.2369018 4.8860585 7.1992188 4.9765625 C 7.1615487 5.0670625 7.1269374 5.1574321 7.0996094 5.2519531 C 7.0722794 5.3464811 7.0515992 5.4433796 7.0351562 5.5410156 C 7.0186763 5.6386406 7.0069731 5.7400398 7.0019531 5.8398438 C 6.9967831 5.9396427 6.9989594 6.039576 7.0058594 6.140625 C 7.0127094 6.241679 7.0255909 6.343919 7.0449219 6.4453125 C 7.0642319 6.546692 7.0888387 6.6453087 7.1210938 6.7460938 C 7.1478138 6.8294967 7.1787616 6.9117029 7.2128906 6.9902344 C 7.2470256 7.0687474 7.2851116 7.1453705 7.3261719 7.21875 C 7.4082479 7.365512 7.502876 7.500431 7.609375 7.625 C 7.7158825 7.749559 7.834228 7.8627056 7.9609375 7.9628906 C 8.0876065 8.0630676 8.2225989 8.1509814 8.3652344 8.2246094 C 8.5078649 8.2982284 8.6601306 8.3574437 8.8144531 8.4023438 C 8.9687981 8.4472338 9.1272655 8.4762334 9.2890625 8.4902344 C 9.450859 8.5042344 9.6123206 8.503466 9.7773438 8.484375 C 9.8598607 8.474825 9.9428825 8.4615694 10.025391 8.4433594 C 10.107921 8.4251344 10.191432 8.4002379 10.273438 8.3730469 C 10.355417 8.3458769 10.436461 8.3179331 10.513672 8.2832031 C 10.590882 8.2484881 10.664153 8.2077201 10.736328 8.1660156 C 10.880671 8.0825776 11.016087 7.9851836 11.138672 7.8769531 C 11.261231 7.7687236 11.372074 7.6502089 11.470703 7.5214844 C 11.569333 7.3927584 11.654024 7.2562316 11.726562 7.1113281 C 11.799103 6.9663921 11.856133 6.8150416 11.900391 6.6582031 C 11.944671 6.5013651 11.976374 6.3363235 11.990234 6.171875 C 12.004104 6.007424 12.003085 5.8435523 11.984375 5.6757812 C 11.975075 5.5918962 11.963223 5.5057605 11.945312 5.421875 C 11.927411 5.3379606 11.90171 5.2533214 11.875 5.1699219 C 11.84272 5.0691314 11.804867 4.9743524 11.761719 4.8808594 C 11.718589 4.7873694 11.670208 4.6970771 11.617188 4.6113281 C 11.564127 4.5255981 11.507292 4.4428184 11.445312 4.3652344 C 11.383363 4.2876564 11.317991 4.2154914 11.248047 4.1464844 C 11.178077 4.0774944 11.104322 4.011121 11.027344 3.9511719 C 10.950364 3.8912039 10.868197 3.8375899 10.785156 3.7871094 C 10.702106 3.7366044 10.617455 3.6909804 10.529297 3.6503906 C 10.441137 3.6097836 10.350127 3.5732235 10.257812 3.5429688 L 10.271484 3.5371094 C 10.182596 3.5058335 10.0971 3.4713194 10.011719 3.4277344 C 9.926331 3.3841709 9.8425416 3.3340014 9.7617188 3.2792969 C 9.680904 3.2245764 9.6025588 3.1643369 9.5273438 3.0996094 C 9.4521498 3.0348745 9.3790739 2.964223 9.3105469 2.890625 C 9.2420154 2.817024 9.177987 2.7414818 9.1171875 2.6601562 C 9.056379 2.5788115 8.9992881 2.4922239 8.9472656 2.4042969 C 8.8952466 2.3163689 8.846859 2.2242429 8.8046875 2.1308594 C 8.7725505 2.0597039 8.7447005 1.9879509 8.71875 1.9140625 L 8.7246094 1.9121094 L 8.5878906 1.5 L 7.5585938 1.5 z M 14.634766 6.5019531 C 14.535046 6.4978031 14.434843 6.4999825 14.333984 6.5078125 C 14.233116 6.5155925 14.130364 6.5305562 14.029297 6.5507812 C 13.928212 6.5710013 13.828874 6.5957213 13.728516 6.6289062 C 13.645466 6.6563562 13.564446 6.6878123 13.486328 6.7226562 C 13.408228 6.7575012 13.33267 6.7962012 13.259766 6.8378906 C 13.113945 6.9212756 12.978884 7.0174125 12.855469 7.125 C 12.732049 7.2326035 12.620356 7.3509521 12.521484 7.4785156 C 12.422604 7.6060741 12.335885 7.7414981 12.263672 7.8847656 C 12.191472 8.0280181 12.133274 8.1792819 12.089844 8.3339844 C 12.046444 8.4886859 12.018339 8.6486644 12.005859 8.8105469 C 11.993359 8.9724334 11.996958 9.1359658 12.017578 9.3007812 C 12.027868 9.3831912 12.041587 9.4664946 12.060547 9.5488281 C 12.079507 9.6311761 12.102959 9.7131834 12.130859 9.7949219 C 12.158749 9.8766469 12.189209 9.9563267 12.224609 10.033203 C 12.259989 10.110083 12.301399 10.184075 12.34375 10.255859 C 12.42842 10.399418 12.525537 10.532722 12.634766 10.654297 C 12.744 10.775862 12.864659 10.884972 12.994141 10.982422 C 13.123623 11.079872 13.262797 11.167057 13.408203 11.238281 C 13.553636 11.309491 13.704283 11.365343 13.861328 11.408203 C 14.01839 11.451053 14.181283 11.479757 14.345703 11.492188 C 14.51007 11.504587 14.67832 11.502702 14.845703 11.482422 C 14.929393 11.472322 15.012077 11.45614 15.095703 11.4375 C 15.179343 11.41885 15.262654 11.394638 15.345703 11.367188 C 15.446065 11.334008 15.543747 11.295918 15.636719 11.251953 C 15.729689 11.207993 15.817187 11.159253 15.902344 11.105469 C 15.987494 11.051679 16.069572 10.994295 16.146484 10.931641 C 16.223404 10.868991 16.295023 10.802981 16.363281 10.732422 C 16.431541 10.661862 16.497471 10.585321 16.556641 10.507812 C 16.615811 10.430323 16.667137 10.349103 16.716797 10.265625 C 16.766467 10.182145 16.813787 10.096319 16.853516 10.007812 C 16.893256 9.9193195 16.927646 9.8289006 16.957031 9.7363281 L 16.962891 9.75 C 16.993291 9.66085 17.027602 9.5740345 17.070312 9.4882812 C 17.113042 9.4025192 17.162902 9.3176346 17.216797 9.2363281 C 17.270697 9.1550381 17.332537 9.075763 17.396484 9 C 17.460434 8.924235 17.528682 8.8523896 17.601562 8.7832031 C 17.674422 8.7140341 17.749405 8.647449 17.830078 8.5859375 C 17.910738 8.5244085 17.996647 8.4688121 18.083984 8.4160156 C 18.171324 8.3632166 18.260643 8.3145069 18.353516 8.2714844 C 18.423716 8.2389744 18.497327 8.2100778 18.570312 8.1835938 L 18.572266 8.1875 C 18.71773 8.1581247 18.858604 8.1500373 19 8.1367188 L 19 7.1386719 C 18.790053 7.1554579 18.579699 7.1724919 18.345703 7.2167969 L 18.34375 7.2128906 L 18.320312 7.2207031 C 18.223022 7.2528681 18.121824 7.2796342 18.021484 7.3007812 C 17.92114 7.3219113 17.82062 7.3374362 17.71875 7.3476562 C 17.616884 7.3578563 17.513965 7.3637662 17.412109 7.3632812 C 17.310292 7.3627376 17.209687 7.354995 17.109375 7.34375 C 17.009053 7.33252 16.909748 7.318655 16.8125 7.296875 C 16.71525 7.275075 16.618046 7.2451246 16.525391 7.2128906 C 16.432741 7.1806506 16.344319 7.1460656 16.257812 7.1035156 C 16.171292 7.0609606 16.088633 7.0117356 16.009766 6.9589844 L 16.013672 6.9707031 C 15.933542 6.9146131 15.849561 6.8611706 15.763672 6.8144531 C 15.677782 6.7677181 15.588788 6.7263121 15.498047 6.6894531 C 15.407313 6.6526024 15.315368 6.62021 15.220703 6.59375 C 15.126043 6.567285 15.029299 6.546823 14.931641 6.53125 C 14.833991 6.51568 14.734492 6.5060831 14.634766 6.5019531 z M 6.4023438 8.5 C 6.3194798 8.50185 6.2360356 8.5074701 6.1523438 8.5175781 C 6.0686538 8.5276781 5.9840261 8.543865 5.9003906 8.5625 C 5.8167606 8.581145 5.7334526 8.6034184 5.6503906 8.6308594 C 5.5500281 8.6640448 5.4562577 8.7021262 5.3632812 8.7460938 C 5.2703147 8.7900535 5.1788935 8.8407199 5.09375 8.8945312 C 5.008589 8.9483132 4.9284755 9.0057049 4.8515625 9.0683594 C 4.774636 9.1310079 4.7010665 9.198973 4.6328125 9.2695312 C 4.56455 9.34009 4.5005765 9.4127199 4.4414062 9.4902344 C 4.3822317 9.5677314 4.3289517 9.6489394 4.2792969 9.7324219 C 4.2296349 9.8159109 4.1862143 9.9017104 4.1464844 9.9902344 C 4.1067364 10.078733 4.0703604 10.169128 4.0410156 10.261719 L 4.0351562 10.25 C 4.0047403 10.33915 3.9684913 10.424005 3.9257812 10.509766 C 3.8830582 10.595526 3.8351472 10.680419 3.78125 10.761719 C 3.727354 10.843009 3.6694197 10.924231 3.6054688 11 C 3.5837627 11.025718 3.2613425 11.048367 3 11.072266 L 3 12.494141 C 3.2830916 12.496741 3.8096432 12.500636 3.890625 12.509766 C 4.0009765 12.500966 4.277288 12.692231 4.4726562 12.785156 C 4.5653073 12.817396 4.6556675 12.855905 4.7421875 12.898438 C 4.8287025 12.940997 4.9113874 12.986319 4.9902344 13.039062 L 4.984375 13.029297 C 5.064497 13.085387 5.1504496 13.136875 5.2363281 13.183594 C 5.3222261 13.230334 5.409263 13.271724 5.5 13.308594 C 5.590746 13.345444 5.6826881 13.377837 5.7773438 13.404297 C 5.8720038 13.430767 5.9687757 13.449274 6.0664062 13.464844 C 6.1640643 13.480424 6.2635553 13.493917 6.3632812 13.498047 C 6.4630022 13.502147 6.5632035 13.499988 6.6640625 13.492188 C 6.7649215 13.484388 6.8657259 13.471402 6.9667969 13.451172 C 7.0678774 13.430952 7.1671976 13.404294 7.2675781 13.371094 C 7.3506171 13.343644 7.4335911 13.312184 7.5117188 13.277344 C 7.5898188 13.242504 7.6653727 13.203804 7.7382812 13.162109 C 7.8840984 13.078719 8.0191636 12.982583 8.1425781 12.875 C 8.2659971 12.767391 8.377699 12.647101 8.4765625 12.519531 C 8.5754485 12.391967 8.662162 12.256561 8.734375 12.113281 C 8.806574 11.970022 8.862865 11.818774 8.90625 11.664062 C 8.94965 11.509355 8.9777744 11.351331 8.9902344 11.189453 C 9.0026994 11.027557 9.0010527 10.864042 8.9804688 10.699219 C 8.9701288 10.616809 8.956505 10.531545 8.9375 10.449219 C 8.918537 10.366859 8.8931804 10.284854 8.8652344 10.203125 C 8.8373394 10.121395 8.8068794 10.043683 8.7714844 9.9667969 C 8.7360914 9.8900629 8.6946937 9.8159126 8.6523438 9.7441406 C 8.5676701 9.6005691 8.4705436 9.4672951 8.3613281 9.3457031 C 8.2520896 9.2241331 8.1314536 9.1130795 8.0019531 9.015625 C 7.8724751 8.918173 7.7352628 8.8348929 7.5898438 8.7636719 C 7.4444147 8.6924549 7.2918146 8.6346639 7.1347656 8.5917969 C 6.9777071 8.5489419 6.8147581 8.520208 6.6503906 8.5078125 C 6.5682046 8.5016125 6.4852075 8.49814 6.4023438 8.5 z M 11.46875 11.519531 L 11.46875 11.521484 C 11.38683 11.522484 11.305155 11.527579 11.222656 11.537109 C 11.140156 11.546709 11.057122 11.557962 10.974609 11.576172 C 10.892099 11.594402 10.81051 11.619304 10.728516 11.646484 C 10.646546 11.673654 10.565475 11.705504 10.488281 11.740234 C 10.411081 11.774944 10.33779 11.811804 10.265625 11.853516 C 10.1213 11.936909 9.9858402 12.036301 9.8632812 12.144531 C 9.7407325 12.252761 9.629865 12.371276 9.53125 12.5 C 9.432635 12.628726 9.3459665 12.767187 9.2734375 12.912109 C 9.2009225 13.057045 9.1439054 13.208401 9.0996094 13.365234 C 9.0553444 13.52208 9.0236266 13.683209 9.0097656 13.847656 C 8.9959006 14.012107 8.996919 14.179888 9.015625 14.347656 C 9.024955 14.431546 9.0407288 14.515713 9.0585938 14.599609 C 9.0764837 14.683529 9.098293 14.768163 9.125 14.851562 C 9.15728 14.952355 9.1951371 15.047133 9.2382812 15.140625 C 9.2814062 15.234115 9.3297932 15.326346 9.3828125 15.412109 C 9.4358325 15.497859 9.4927285 15.578665 9.5546875 15.65625 C 9.6166415 15.73385 9.6820141 15.807954 9.7519531 15.876953 C 9.8218961 15.945953 9.8976369 16.010355 9.9746094 16.070312 C 10.051572 16.130273 10.129863 16.18388 10.212891 16.234375 C 10.295931 16.284875 10.382561 16.330505 10.470703 16.371094 C 10.558843 16.411694 10.649898 16.448264 10.742188 16.478516 L 10.728516 16.482422 C 10.817396 16.513692 10.902907 16.552142 10.988281 16.595703 C 11.073651 16.639273 11.157474 16.687473 11.238281 16.742188 C 11.319091 16.796907 11.399418 16.859096 11.474609 16.923828 C 11.549799 16.988558 11.620927 17.057273 11.689453 17.130859 C 11.757963 17.204459 11.823975 17.281943 11.884766 17.363281 C 11.945566 17.444611 12.000723 17.529261 12.052734 17.617188 C 12.104744 17.705118 12.153149 17.795289 12.195312 17.888672 C 12.227403 17.959742 12.253307 18.033605 12.279297 18.107422 L 12.275391 18.109375 L 12.435547 18.585938 C 12.435547 18.585938 12.767572 19.647565 12.876953 21 L 13.867188 21 C 13.754064 19.463329 13.371097 18.25977 13.371094 18.259766 L 13.248047 17.892578 L 13.251953 17.890625 L 13.244141 17.863281 C 13.212851 17.765581 13.190142 17.667067 13.169922 17.566406 C 13.149692 17.465751 13.132327 17.363803 13.123047 17.261719 C 13.113947 17.15964 13.112021 17.057044 13.113281 16.955078 C 13.114781 16.853096 13.120683 16.75267 13.132812 16.652344 C 13.144963 16.552005 13.162887 16.452625 13.185547 16.355469 C 13.208227 16.258309 13.236481 16.160822 13.269531 16.068359 C 13.302601 15.975899 13.339491 15.886999 13.382812 15.800781 C 13.426153 15.714551 13.475832 15.63315 13.529297 15.554688 L 13.517578 15.558594 C 13.574388 15.478904 13.626333 15.39415 13.673828 15.308594 C 13.721338 15.223044 13.763108 15.135422 13.800781 15.044922 C 13.838451 14.954422 13.873071 14.8621 13.900391 14.767578 C 13.927711 14.673048 13.948404 14.576141 13.964844 14.478516 C 13.981234 14.380896 13.991074 14.281444 13.996094 14.181641 C 14.000994 14.081851 14.003094 13.981908 13.996094 13.880859 C 13.989194 13.779804 13.974408 13.677552 13.955078 13.576172 C 13.935778 13.474785 13.911156 13.374219 13.878906 13.273438 C 13.852196 13.190038 13.821279 13.109776 13.787109 13.03125 C 13.752979 12.95273 13.714879 12.876114 13.673828 12.802734 C 13.591758 12.655971 13.497113 12.519089 13.390625 12.394531 C 13.284137 12.269971 13.165736 12.158776 13.039062 12.058594 C 12.912396 11.958414 12.777377 11.870502 12.634766 11.796875 C 12.492161 11.723255 12.341814 11.664041 12.1875 11.619141 C 12.033186 11.574251 11.874665 11.543287 11.712891 11.529297 C 11.632001 11.522297 11.550669 11.518561 11.46875 11.519531 z "
     style="opacity:0.2;fill:#000000;fill-opacity:1" />
  <path
     id="path4363"
     d="M 7.5585938 1 C 7.5779957 1.0661103 7.6289065 1.2617188 7.6289062 1.2617188 L 7.7519531 1.6308594 L 7.7460938 1.6308594 L 7.7558594 1.65625 C 7.7871494 1.75395 7.8117654 1.8544111 7.8320312 1.9550781 C 7.8522513 2.0557331 7.8676631 2.1577087 7.8769531 2.2597656 C 7.8860731 2.3618411 7.8904419 2.4644404 7.8886719 2.5664062 C 7.8871719 2.6683858 7.8793625 2.7688091 7.8671875 2.8691406 C 7.8550465 2.9694692 7.8371171 3.0688701 7.8144531 3.1660156 C 7.7917881 3.2631776 7.7654839 3.3586974 7.7324219 3.4511719 C 7.6993519 3.5436269 7.6624681 3.6344796 7.6191406 3.7207031 C 7.5758006 3.8069271 7.5261368 3.8883274 7.4726562 3.9667969 L 7.4824219 3.9628906 C 7.4256039 4.0425866 7.3736734 4.1273336 7.3261719 4.2128906 C 7.2786519 4.2984396 7.2369018 4.3860585 7.1992188 4.4765625 C 7.1615487 4.5670625 7.1269374 4.6574321 7.0996094 4.7519531 C 7.0722794 4.8464811 7.0515994 4.9433796 7.0351562 5.0410156 C 7.0186763 5.1386406 7.0069731 5.2400398 7.0019531 5.3398438 C 6.9967831 5.4396427 6.9989594 5.539576 7.0058594 5.640625 C 7.0127094 5.741679 7.0255919 5.843919 7.0449219 5.9453125 C 7.0642319 6.046692 7.0888388 6.1453087 7.1210938 6.2460938 C 7.1478138 6.3294967 7.1787616 6.4117029 7.2128906 6.4902344 C 7.2470256 6.5687474 7.2851119 6.6453705 7.3261719 6.71875 C 7.4082479 6.865512 7.502876 7.000431 7.609375 7.125 C 7.7158825 7.249559 7.834228 7.3627056 7.9609375 7.4628906 C 8.0876065 7.5630676 8.2225989 7.6509814 8.3652344 7.7246094 C 8.5078649 7.7982284 8.6601306 7.8574437 8.8144531 7.9023438 C 8.9687981 7.9472337 9.1272655 7.9762334 9.2890625 7.9902344 C 9.450859 8.0042344 9.6123207 8.003465 9.7773438 7.984375 C 9.8598606 7.974825 9.9428829 7.9615694 10.025391 7.9433594 C 10.107921 7.9251344 10.191432 7.9002379 10.273438 7.8730469 C 10.355416 7.8458769 10.436461 7.8179331 10.513672 7.7832031 C 10.590882 7.7484881 10.664153 7.7077201 10.736328 7.6660156 C 10.880671 7.5825776 11.016087 7.4851836 11.138672 7.3769531 C 11.261231 7.2687236 11.372074 7.1502089 11.470703 7.0214844 C 11.569333 6.8927584 11.654023 6.7562316 11.726562 6.6113281 C 11.799104 6.4663921 11.856133 6.3150416 11.900391 6.1582031 C 11.944671 6.0013651 11.976374 5.8363235 11.990234 5.671875 C 12.004104 5.507424 12.003045 5.3435523 11.984375 5.1757812 C 11.975075 5.0918962 11.963223 5.0057605 11.945312 4.921875 C 11.927384 4.837957 11.90171 4.7533214 11.875 4.6699219 C 11.84272 4.5691314 11.804867 4.4743524 11.761719 4.3808594 C 11.718589 4.2873694 11.670212 4.1970771 11.617188 4.1113281 C 11.564126 4.0255981 11.507292 3.9428184 11.445312 3.8652344 C 11.383363 3.7876564 11.317991 3.7154914 11.248047 3.6464844 C 11.178077 3.5774944 11.104322 3.511121 11.027344 3.4511719 C 10.950364 3.3912039 10.868197 3.3375899 10.785156 3.2871094 C 10.702106 3.2366044 10.617455 3.1909804 10.529297 3.1503906 C 10.441137 3.1097836 10.350127 3.0732238 10.257812 3.0429688 L 10.271484 3.0371094 C 10.182594 3.0058329 10.0971 2.9713194 10.011719 2.9277344 C 9.9263312 2.8841709 9.8425417 2.8340014 9.7617188 2.7792969 C 9.6809041 2.7245764 9.6025588 2.6643369 9.5273438 2.5996094 C 9.4521498 2.5348745 9.3790739 2.464223 9.3105469 2.390625 C 9.2420154 2.317024 9.177987 2.2414818 9.1171875 2.1601562 C 9.056379 2.0788114 8.9992881 1.9922239 8.9472656 1.9042969 C 8.8952466 1.8163689 8.846859 1.7242429 8.8046875 1.6308594 C 8.7725505 1.5597039 8.7447005 1.4879509 8.71875 1.4140625 L 8.7246094 1.4121094 L 8.5878906 1 L 7.5585938 1 z M 14.634766 6.0019531 C 14.535046 5.9978031 14.434843 5.9999825 14.333984 6.0078125 C 14.233116 6.0155925 14.130364 6.0305562 14.029297 6.0507812 C 13.928212 6.0710013 13.828874 6.0957213 13.728516 6.1289062 C 13.645466 6.1563562 13.564446 6.1878124 13.486328 6.2226562 C 13.408228 6.2575012 13.33267 6.2962011 13.259766 6.3378906 C 13.113945 6.4212756 12.978884 6.5174125 12.855469 6.625 C 12.732049 6.7326035 12.620356 6.8509521 12.521484 6.9785156 C 12.422604 7.1060741 12.335885 7.2414981 12.263672 7.3847656 C 12.191472 7.5280181 12.133274 7.6792819 12.089844 7.8339844 C 12.046444 7.9886859 12.018329 8.1486644 12.005859 8.3105469 C 11.993359 8.4724334 11.996958 8.6359658 12.017578 8.8007812 C 12.027868 8.8831913 12.041587 8.9664946 12.060547 9.0488281 C 12.079507 9.1311761 12.102959 9.2131834 12.130859 9.2949219 C 12.158749 9.3766469 12.189209 9.4563266 12.224609 9.5332031 C 12.259989 9.6100851 12.301399 9.6840749 12.34375 9.7558594 C 12.42842 9.8994184 12.525537 10.032722 12.634766 10.154297 C 12.744 10.275862 12.864659 10.384972 12.994141 10.482422 C 13.123623 10.579872 13.262797 10.667057 13.408203 10.738281 C 13.553636 10.809491 13.704283 10.865343 13.861328 10.908203 C 14.01839 10.951053 14.181283 10.979766 14.345703 10.992188 C 14.51007 11.004587 14.67832 11.002672 14.845703 10.982422 C 14.929393 10.972322 15.012077 10.95614 15.095703 10.9375 C 15.179343 10.91885 15.262654 10.894638 15.345703 10.867188 C 15.446065 10.834008 15.543747 10.795914 15.636719 10.751953 C 15.729689 10.707993 15.817187 10.659257 15.902344 10.605469 C 15.987494 10.551679 16.069572 10.494295 16.146484 10.431641 C 16.223404 10.368991 16.295023 10.302981 16.363281 10.232422 C 16.431541 10.161862 16.497471 10.085321 16.556641 10.007812 C 16.615811 9.930318 16.667137 9.849103 16.716797 9.765625 C 16.766467 9.682141 16.813784 9.5963205 16.853516 9.5078125 C 16.893256 9.4193205 16.927646 9.3289006 16.957031 9.2363281 L 16.962891 9.25 C 16.993291 9.16085 17.027604 9.0740344 17.070312 8.9882812 C 17.113042 8.9025193 17.162903 8.8176346 17.216797 8.7363281 C 17.270697 8.6550381 17.332537 8.575763 17.396484 8.5 C 17.460434 8.424235 17.528681 8.3523896 17.601562 8.2832031 C 17.674422 8.2140341 17.749405 8.147449 17.830078 8.0859375 C 17.910738 8.0244085 17.996647 7.9688121 18.083984 7.9160156 C 18.171324 7.8632166 18.260643 7.8145069 18.353516 7.7714844 C 18.423716 7.7389744 18.497327 7.7100777 18.570312 7.6835938 L 18.572266 7.6875 C 18.717776 7.6581281 18.858604 7.6500373 19 7.6367188 L 19 6.6386719 C 18.790053 6.6554576 18.579699 6.6724916 18.345703 6.7167969 L 18.34375 6.7128906 L 18.320312 6.7207031 C 18.223022 6.7528681 18.121824 6.7796342 18.021484 6.8007812 C 17.92114 6.8219113 17.82062 6.8374363 17.71875 6.8476562 C 17.616884 6.8578563 17.513965 6.8637663 17.412109 6.8632812 C 17.310243 6.8627313 17.209687 6.854995 17.109375 6.84375 C 17.009053 6.83252 16.909748 6.818655 16.8125 6.796875 C 16.71525 6.775075 16.618046 6.7451246 16.525391 6.7128906 C 16.432741 6.6806506 16.344319 6.6460656 16.257812 6.6035156 C 16.171292 6.5609606 16.088633 6.5117354 16.009766 6.4589844 L 16.013672 6.4707031 C 15.933542 6.4146131 15.849561 6.3611706 15.763672 6.3144531 C 15.677782 6.2677181 15.588788 6.2263116 15.498047 6.1894531 C 15.407307 6.1526031 15.315368 6.12021 15.220703 6.09375 C 15.126043 6.067285 15.029299 6.046823 14.931641 6.03125 C 14.833991 6.01568 14.734492 6.0060831 14.634766 6.0019531 z M 6.4023438 8 C 6.3194798 8.00185 6.2360357 8.0074681 6.1523438 8.0175781 C 6.0686538 8.0276781 5.9840261 8.043865 5.9003906 8.0625 C 5.8167606 8.081145 5.7334526 8.1034184 5.6503906 8.1308594 C 5.5500281 8.1640444 5.4562577 8.2021262 5.3632812 8.2460938 C 5.2703147 8.2900536 5.1788935 8.3407198 5.09375 8.3945312 C 5.008589 8.4483132 4.9284755 8.5057049 4.8515625 8.5683594 C 4.774636 8.6310079 4.7010665 8.6989729 4.6328125 8.7695312 C 4.56455 8.8400899 4.5005765 8.9127199 4.4414062 8.9902344 C 4.3822317 9.0677314 4.3289517 9.1489394 4.2792969 9.2324219 C 4.2296349 9.3159109 4.1862143 9.4017104 4.1464844 9.4902344 C 4.1067364 9.5787334 4.0703604 9.6691277 4.0410156 9.7617188 L 4.0351562 9.75 C 4.0047403 9.83915 3.9684914 9.9240052 3.9257812 10.009766 C 3.8830582 10.095526 3.8351473 10.180419 3.78125 10.261719 C 3.727354 10.343009 3.6694197 10.424231 3.6054688 10.5 C 3.5837628 10.525718 3.2613425 10.548367 3 10.572266 L 3 11.994141 C 3.2830916 11.996704 3.8096432 12.000662 3.890625 12.009766 C 4.0009765 12.000976 4.277288 12.192231 4.4726562 12.285156 C 4.5653073 12.317396 4.6556675 12.355903 4.7421875 12.398438 C 4.8287025 12.440996 4.9113874 12.486313 4.9902344 12.539062 L 4.984375 12.529297 C 5.064497 12.585387 5.1504496 12.636875 5.2363281 12.683594 C 5.3222261 12.730334 5.409263 12.771724 5.5 12.808594 C 5.590746 12.845444 5.6826881 12.877837 5.7773438 12.904297 C 5.8720038 12.930767 5.9687757 12.949274 6.0664062 12.964844 C 6.1640643 12.980424 6.2635553 12.993917 6.3632812 12.998047 C 6.4630022 13.002147 6.5632035 12.999987 6.6640625 12.992188 C 6.7649215 12.984387 6.8657259 12.971402 6.9667969 12.951172 C 7.0678774 12.930952 7.1671976 12.904294 7.2675781 12.871094 C 7.3506171 12.843644 7.4335912 12.812184 7.5117188 12.777344 C 7.5898188 12.742504 7.6653727 12.703803 7.7382812 12.662109 C 7.8840983 12.578719 8.0191636 12.482583 8.1425781 12.375 C 8.2659971 12.267391 8.377699 12.147101 8.4765625 12.019531 C 8.5754485 11.891967 8.662162 11.756561 8.734375 11.613281 C 8.806574 11.470022 8.862865 11.318774 8.90625 11.164062 C 8.94965 11.009354 8.9777744 10.851331 8.9902344 10.689453 C 9.0026994 10.527557 9.0010486 10.364042 8.9804688 10.199219 C 8.9701287 10.116809 8.956505 10.031545 8.9375 9.9492188 C 8.9185372 9.8668586 8.8931804 9.784854 8.8652344 9.703125 C 8.8373394 9.621395 8.8068794 9.5436829 8.7714844 9.4667969 C 8.7360854 9.3899829 8.6946937 9.3159126 8.6523438 9.2441406 C 8.5676701 9.1005691 8.4705436 8.9672951 8.3613281 8.8457031 C 8.2520896 8.7241331 8.1314536 8.6130795 8.0019531 8.515625 C 7.8724751 8.418173 7.7352628 8.3348929 7.5898438 8.2636719 C 7.4444147 8.1924549 7.2918146 8.1346639 7.1347656 8.0917969 C 6.9777071 8.0489419 6.8147581 8.020208 6.6503906 8.0078125 C 6.5682046 8.0016125 6.4852076 7.99814 6.4023438 8 z M 11.46875 11.019531 L 11.46875 11.021484 C 11.38683 11.022484 11.305155 11.027579 11.222656 11.037109 C 11.140156 11.046709 11.057122 11.057962 10.974609 11.076172 C 10.892099 11.094402 10.81051 11.119304 10.728516 11.146484 C 10.646546 11.173654 10.565475 11.205504 10.488281 11.240234 C 10.411081 11.274944 10.33779 11.311802 10.265625 11.353516 C 10.1213 11.436956 9.9858402 11.536301 9.8632812 11.644531 C 9.7407324 11.752761 9.629865 11.871276 9.53125 12 C 9.432635 12.128726 9.3459665 12.267187 9.2734375 12.412109 C 9.2009225 12.557045 9.1439054 12.708401 9.0996094 12.865234 C 9.0553444 13.02208 9.0236266 13.183209 9.0097656 13.347656 C 8.9959006 13.512107 8.99692 13.679888 9.015625 13.847656 C 9.024955 13.931546 9.0407287 14.015713 9.0585938 14.099609 C 9.0764837 14.183529 9.098293 14.268163 9.125 14.351562 C 9.15728 14.452354 9.1951367 14.547133 9.2382812 14.640625 C 9.2814062 14.734115 9.3297935 14.826346 9.3828125 14.912109 C 9.4358325 14.997859 9.4927285 15.078665 9.5546875 15.15625 C 9.6166415 15.23385 9.6820141 15.307954 9.7519531 15.376953 C 9.8218961 15.445953 9.8976369 15.510354 9.9746094 15.570312 C 10.051572 15.630274 10.129863 15.68388 10.212891 15.734375 C 10.295931 15.784875 10.382561 15.830509 10.470703 15.871094 C 10.558843 15.911694 10.649898 15.948268 10.742188 15.978516 L 10.728516 15.982422 C 10.817396 16.013692 10.902907 16.052138 10.988281 16.095703 C 11.073651 16.139273 11.157474 16.187473 11.238281 16.242188 C 11.319091 16.296907 11.399418 16.359096 11.474609 16.423828 C 11.549799 16.488558 11.620927 16.557273 11.689453 16.630859 C 11.757963 16.704459 11.823975 16.781943 11.884766 16.863281 C 11.945566 16.944611 12.000723 17.029262 12.052734 17.117188 C 12.104744 17.205118 12.153148 17.295289 12.195312 17.388672 C 12.227404 17.459742 12.253307 17.533605 12.279297 17.607422 L 12.275391 17.609375 L 12.435547 18.085938 C 12.435547 18.085938 12.873436 19.405413 12.919922 21 L 13.908203 21 C 13.861593 19.218341 13.371098 17.759771 13.371094 17.759766 L 13.248047 17.392578 L 13.251953 17.390625 L 13.244141 17.363281 C 13.212851 17.265581 13.190142 17.167067 13.169922 17.066406 C 13.149692 16.965751 13.132327 16.863803 13.123047 16.761719 C 13.113947 16.65964 13.111991 16.557044 13.113281 16.455078 C 13.114781 16.353096 13.120703 16.25267 13.132812 16.152344 C 13.144964 16.052005 13.162887 15.952625 13.185547 15.855469 C 13.208227 15.758309 13.236481 15.660822 13.269531 15.568359 C 13.302601 15.475899 13.339492 15.386999 13.382812 15.300781 C 13.426153 15.214551 13.475832 15.13315 13.529297 15.054688 L 13.517578 15.058594 C 13.574388 14.978904 13.626333 14.89415 13.673828 14.808594 C 13.721338 14.723044 13.763104 14.635422 13.800781 14.544922 C 13.838451 14.454422 13.873071 14.3621 13.900391 14.267578 C 13.927711 14.173048 13.948404 14.076141 13.964844 13.978516 C 13.981234 13.880896 13.991074 13.781444 13.996094 13.681641 C 14.000994 13.581851 14.003094 13.481908 13.996094 13.380859 C 13.989194 13.279804 13.974408 13.177552 13.955078 13.076172 C 13.935778 12.974785 13.911156 12.87422 13.878906 12.773438 C 13.852196 12.690037 13.821279 12.609776 13.787109 12.53125 C 13.752979 12.45273 13.714879 12.376114 13.673828 12.302734 C 13.591758 12.155971 13.497113 12.019089 13.390625 11.894531 C 13.284137 11.769971 13.165736 11.658776 13.039062 11.558594 C 12.912395 11.458414 12.777377 11.370502 12.634766 11.296875 C 12.492161 11.223255 12.341814 11.164041 12.1875 11.119141 C 12.033186 11.074251 11.874665 11.043287 11.712891 11.029297 C 11.632001 11.022297 11.550669 11.018531 11.46875 11.019531 z "
     style="fill:#ffffff;fill-opacity:1" />
  <path
     style="fill:#ffffff;fill-opacity:1"
     d="M 18.991211,1.9111328 19,6.689453 19,2 c 0,-0.030436 -0.0062,-0.05914 -0.0088,-0.088867 z"
     id="path4381" />
</svg>
