<svg height="22" width="22" xmlns="http://www.w3.org/2000/svg"><text opacity=".8" x="877.22626" y="-15.187399"><tspan x="877.22626" y="-15.187399"/></text><text opacity=".8" x="901.18719" y="-55.929108"><tspan x="901.18719" y="-55.929108"/></text><text opacity=".8" x="-569.37115" y="-86.007248"><tspan x="-569.37115" y="-86.007248"/></text><text opacity=".8" x="-2393.0571" y="659.5462"><tspan x="-2393.0571" y="659.5462"/></text><text opacity=".8" x="-454.88007" y="-471.32822"><tspan x="-454.88007" y="-471.32822"/></text><text opacity=".8" x="352.72208" y="-884.79834"><tspan x="352.72208" y="-884.79834"/></text><text opacity=".8" x="376.68301" y="-925.54004"><tspan x="376.68301" y="-925.54004"/></text><text opacity=".8" x="-1114.7802" y="-932.74994"><tspan x="-1114.7802" y="-932.74994"/></text><text opacity=".8" x="345.7626" y="-1205.9841"><tspan x="345.7626" y="-1205.9841"/></text><text opacity=".8" x="1831.8861" y="-579.29272"><tspan x="1831.8861" y="-579.29272"/></text><text opacity=".8" x="1855.8469" y="-620.03448"><tspan x="1855.8469" y="-620.03448"/></text><text opacity=".8" x="364.38376" y="-627.24438"><tspan x="364.38376" y="-627.24438"/></text><text opacity=".8" x="1824.9266" y="-900.47839"><tspan x="1824.9266" y="-900.47839"/></text><text opacity=".8" x="-573.43256" y="-675.33569"><tspan x="-573.43256" y="-675.33569"/></text><text opacity=".8" x="-2397.1182" y="70.217857"><tspan x="-2397.1182" y="70.217857"/></text><text opacity=".8" x="-682.36279" y="163.09"><tspan x="-682.36279" y="163.09"/></text><text opacity=".8" x="426.66153" y="-16.092148"><tspan x="426.66153" y="-16.092148"/></text><text opacity=".8" x="450.62247" y="-56.833855"><tspan x="450.62247" y="-56.833855"/></text><text opacity=".8" x="-1040.8407" y="-64.043823"><tspan x="-1040.8407" y="-64.043823"/></text><text opacity=".8" x="419.70206" y="-337.27789"><tspan x="419.70206" y="-337.27789"/></text><text opacity=".8" x="-608.03253" y="-66.758072"><tspan x="-608.03253" y="-66.758072"/></text><text opacity=".8" x="-2431.7185" y="678.79541"><tspan x="-2431.7185" y="678.79541"/></text><text opacity=".8" x="-456.93948" y="-928.28857"><tspan x="-456.93948" y="-928.28857"/></text><text opacity=".8" x="350.66266" y="-1341.7588"><tspan x="350.66266" y="-1341.7588"/></text><text opacity=".8" x="374.62357" y="-1382.5005"><tspan x="374.62357" y="-1382.5005"/></text><text opacity=".8" x="-1116.8396" y="-1389.7104"><tspan x="-1116.8396" y="-1389.7104"/></text><text opacity=".8" x="343.70316" y="-1662.9446"><tspan x="343.70316" y="-1662.9446"/></text><text opacity=".8" x="1829.8265" y="-1036.2533"><tspan x="1829.8265" y="-1036.2533"/></text><text opacity=".8" x="1853.7874" y="-1076.9949"><tspan x="1853.7874" y="-1076.9949"/></text><text opacity=".8" x="362.32431" y="-1084.2048"><tspan x="362.32431" y="-1084.2048"/></text><text opacity=".8" x="1822.8671" y="-1357.439"><tspan x="1822.8671" y="-1357.439"/></text><text opacity=".8" x="-575.492" y="-1132.2961"><tspan x="-575.492" y="-1132.2961"/></text><text opacity=".8" x="-2399.1777" y="-386.74261"><tspan x="-2399.1777" y="-386.74261"/></text><text opacity=".8" x="-684.42224" y="-293.87045"><tspan x="-684.42224" y="-293.87045"/></text><text opacity=".8" x="155.5923" y="-52.956276"><tspan x="155.5923" y="-52.956276"/></text><text opacity=".8" x="179.55324" y="-93.697998"><tspan x="179.55324" y="-93.697998"/></text><text opacity=".8" x="-1090.2634" y="-287.72662"><tspan x="-1090.2634" y="-287.72662"/></text><text opacity=".8" x="-282.66141" y="-701.19678"><tspan x="-282.66141" y="-701.19678"/></text><text opacity=".8" x="-258.70047" y="-741.93848"><tspan x="-258.70047" y="-741.93848"/></text><text opacity=".8" x="-1750.1636" y="-749.14838"><tspan x="-1750.1636" y="-749.14838"/></text><text opacity=".8" x="-289.62085" y="-1022.3825"><tspan x="-289.62085" y="-1022.3825"/></text><text opacity=".8" x="1196.5026" y="-395.69113"><tspan x="1196.5026" y="-395.69113"/></text><text opacity=".8" x="1220.4634" y="-436.43286"><tspan x="1220.4634" y="-436.43286"/></text><text opacity=".8" x="-270.99973" y="-443.64282"><tspan x="-270.99973" y="-443.64282"/></text><text opacity=".8" x="1189.5431" y="-716.87689"><tspan x="1189.5431" y="-716.87689"/></text><text opacity=".8" x="-1208.816" y="-491.7341"><tspan x="-1208.816" y="-491.7341"/></text><text opacity=".8" x="-3032.5017" y="253.81946"><tspan x="-3032.5017" y="253.81946"/></text><text opacity=".8" transform="matrix(.90475 0 0 .90475 -716.75 -702.29)" x="-664.2738" y="1159.4154"><tspan x="-664.2738" y="1159.4154"/></text><text opacity=".8" x="877.22626" y="-7.9494114"><tspan x="877.22626" y="-7.9494114"/></text><text opacity=".8" x="901.18719" y="-48.691116"><tspan x="901.18719" y="-48.691116"/></text><text opacity=".8" x="-569.37115" y="-78.769257"><tspan x="-569.37115" y="-78.769257"/></text><text opacity=".8" x="-2393.0571" y="666.78418"><tspan x="-2393.0571" y="666.78418"/></text><text opacity=".8" x="-454.88007" y="-464.09021"><tspan x="-454.88007" y="-464.09021"/></text><text opacity=".8" x="352.72208" y="-877.5603"><tspan x="352.72208" y="-877.5603"/></text><text opacity=".8" x="376.68301" y="-918.30206"><tspan x="376.68301" y="-918.30206"/></text><text opacity=".8" x="-1114.7802" y="-925.51196"><tspan x="-1114.7802" y="-925.51196"/></text><text opacity=".8" x="345.7626" y="-1198.7461"><tspan x="345.7626" y="-1198.7461"/></text><text opacity=".8" x="1831.8861" y="-572.05475"><tspan x="1831.8861" y="-572.05475"/></text><text opacity=".8" x="1855.8469" y="-612.79651"><tspan x="1855.8469" y="-612.79651"/></text><text opacity=".8" x="364.38376" y="-620.00641"><tspan x="364.38376" y="-620.00641"/></text><text opacity=".8" x="1824.9266" y="-893.24036"><tspan x="1824.9266" y="-893.24036"/></text><text opacity=".8" x="-573.43256" y="-668.09772"><tspan x="-573.43256" y="-668.09772"/></text><text opacity=".8" x="-2397.1182" y="77.455849"><tspan x="-2397.1182" y="77.455849"/></text><text opacity=".8" x="-682.36279" y="170.32799"><tspan x="-682.36279" y="170.32799"/></text><text opacity=".8" x="426.66153" y="-8.8541603"><tspan x="426.66153" y="-8.8541603"/></text><text opacity=".8" x="450.62247" y="-49.595863"><tspan x="450.62247" y="-49.595863"/></text><text opacity=".8" x="-1040.8407" y="-56.805836"><tspan x="-1040.8407" y="-56.805836"/></text><text opacity=".8" x="419.70206" y="-330.03989"><tspan x="419.70206" y="-330.03989"/></text><text opacity=".8" x="-608.03253" y="-59.520081"><tspan x="-608.03253" y="-59.520081"/></text><text opacity=".8" x="-2431.7185" y="686.03345"><tspan x="-2431.7185" y="686.03345"/></text><text opacity=".8" x="-456.93948" y="-921.0506"><tspan x="-456.93948" y="-921.0506"/></text><text opacity=".8" x="350.66266" y="-1334.5208"><tspan x="350.66266" y="-1334.5208"/></text><text opacity=".8" x="374.62357" y="-1375.2626"><tspan x="374.62357" y="-1375.2626"/></text><text opacity=".8" x="-1116.8396" y="-1382.4724"><tspan x="-1116.8396" y="-1382.4724"/></text><text opacity=".8" x="343.70316" y="-1655.7065"><tspan x="343.70316" y="-1655.7065"/></text><text opacity=".8" x="1829.8265" y="-1029.0154"><tspan x="1829.8265" y="-1029.0154"/></text><text opacity=".8" x="1853.7874" y="-1069.757"><tspan x="1853.7874" y="-1069.757"/></text><text opacity=".8" x="362.32431" y="-1076.9668"><tspan x="362.32431" y="-1076.9668"/></text><text opacity=".8" x="1822.8671" y="-1350.2009"><tspan x="1822.8671" y="-1350.2009"/></text><text opacity=".8" x="-575.492" y="-1125.0581"><tspan x="-575.492" y="-1125.0581"/></text><text opacity=".8" x="-2399.1777" y="-379.50461"><tspan x="-2399.1777" y="-379.50461"/></text><text opacity=".8" x="-684.42224" y="-286.63245"><tspan x="-684.42224" y="-286.63245"/></text><text opacity=".8" x="155.5923" y="-45.718292"><tspan x="155.5923" y="-45.718292"/></text><text opacity=".8" x="179.55324" y="-86.460007"><tspan x="179.55324" y="-86.460007"/></text><text opacity=".8" x="-1090.2634" y="-280.48859"><tspan x="-1090.2634" y="-280.48859"/></text><text opacity=".8" x="-282.66141" y="-693.9588"><tspan x="-282.66141" y="-693.9588"/></text><text opacity=".8" x="-258.70047" y="-734.7005"><tspan x="-258.70047" y="-734.7005"/></text><text opacity=".8" x="-1750.1636" y="-741.91046"><tspan x="-1750.1636" y="-741.91046"/></text><text opacity=".8" x="-289.62085" y="-1015.1445"><tspan x="-289.62085" y="-1015.1445"/></text><text opacity=".8" x="1196.5026" y="-388.45316"><tspan x="1196.5026" y="-388.45316"/></text><text opacity=".8" x="1220.4634" y="-429.19489"><tspan x="1220.4634" y="-429.19489"/></text><text opacity=".8" x="-270.99973" y="-436.40482"><tspan x="-270.99973" y="-436.40482"/></text><text opacity=".8" x="1189.5431" y="-709.63892"><tspan x="1189.5431" y="-709.63892"/></text><text opacity=".8" x="-1208.816" y="-484.49609"><tspan x="-1208.816" y="-484.49609"/></text><text opacity=".8" x="-3032.5017" y="261.05743"><tspan x="-3032.5017" y="261.05743"/></text><text opacity=".8" transform="matrix(.90475 0 0 .90475 -716.75 -695.05)" x="-664.2738" y="1159.4154"><tspan x="-664.2738" y="1159.4154"/></text><text x="435.90427" y="-387.22546"><tspan x="435.90427" y="-387.22546"/><tspan x="435.90427" y="-371.3924"/></text><text opacity=".8" x="901.0882" y="-869.27002"><tspan x="901.0882" y="-869.27002"/></text><text opacity=".8" x="-922.59778" y="-123.71655"><tspan x="-922.59778" y="-123.71655"/></text><text opacity=".8" x="1628.1677" y="-1154.2659"><tspan x="1628.1677" y="-1154.2659"/></text><text opacity=".8" x="1652.1285" y="-1195.0076"><tspan x="1652.1285" y="-1195.0076"/></text><text opacity=".8" x="160.66542" y="-1202.2175"><tspan x="160.66542" y="-1202.2175"/></text><text opacity=".8" x="1621.2083" y="-1475.4517"><tspan x="1621.2083" y="-1475.4517"/></text><text opacity=".8" x="758.24323" y="-30.645025"><tspan x="758.24323" y="-30.645025"/></text><text opacity=".8" x="782.20416" y="-71.386734"><tspan x="782.20416" y="-71.386734"/></text><text opacity=".8" x="-688.35419" y="-101.46487"><tspan x="-688.35419" y="-101.46487"/></text><text opacity=".8" x="-2512.0403" y="644.08856"><tspan x="-2512.0403" y="644.08856"/></text><text opacity=".8" x="-573.8631" y="-486.78586"><tspan x="-573.8631" y="-486.78586"/></text><text opacity=".8" x="233.73903" y="-900.25598"><tspan x="233.73903" y="-900.25598"/></text><text opacity=".8" x="257.69995" y="-940.99768"><tspan x="257.69995" y="-940.99768"/></text><text opacity=".8" x="-1233.7632" y="-948.20758"><tspan x="-1233.7632" y="-948.20758"/></text><text opacity=".8" x="226.77956" y="-1221.4418"><tspan x="226.77956" y="-1221.4418"/></text><text opacity=".8" x="1712.9031" y="-594.75037"><tspan x="1712.9031" y="-594.75037"/></text><text opacity=".8" x="1736.8639" y="-635.49213"><tspan x="1736.8639" y="-635.49213"/></text><text opacity=".8" x="245.40071" y="-642.70203"><tspan x="245.40071" y="-642.70203"/></text><text opacity=".8" x="1705.9436" y="-915.93604"><tspan x="1705.9436" y="-915.93604"/></text><text opacity=".8" x="-692.41559" y="-690.79333"><tspan x="-692.41559" y="-690.79333"/></text><text opacity=".8" x="-2516.1013" y="54.760231"><tspan x="-2516.1013" y="54.760231"/></text><text opacity=".8" x="-801.34583" y="147.63237"><tspan x="-801.34583" y="147.63237"/></text><text opacity=".8" x="307.67847" y="-31.549774"><tspan x="307.67847" y="-31.549774"/></text><text opacity=".8" x="331.6394" y="-72.291481"><tspan x="331.6394" y="-72.291481"/></text><text opacity=".8" x="-1159.8237" y="-79.50145"><tspan x="-1159.8237" y="-79.50145"/></text><text opacity=".8" x="300.71899" y="-352.73553"><tspan x="300.71899" y="-352.73553"/></text><text opacity=".8" x="-727.01556" y="-82.215698"><tspan x="-727.01556" y="-82.215698"/></text><text opacity=".8" x="-2550.7017" y="663.33777"><tspan x="-2550.7017" y="663.33777"/></text><text opacity=".8" x="-575.92255" y="-943.74622"><tspan x="-575.92255" y="-943.74622"/></text><text opacity=".8" x="231.67961" y="-1357.2164"><tspan x="231.67961" y="-1357.2164"/></text><text opacity=".8" x="255.64052" y="-1397.9581"><tspan x="255.64052" y="-1397.9581"/></text><text opacity=".8" x="-1235.8226" y="-1405.1681"><tspan x="-1235.8226" y="-1405.1681"/></text><text opacity=".8" x="224.72011" y="-1678.4022"><tspan x="224.72011" y="-1678.4022"/></text><text opacity=".8" x="1710.8435" y="-1051.7109"><tspan x="1710.8435" y="-1051.7109"/></text><text opacity=".8" x="1734.8043" y="-1092.4525"><tspan x="1734.8043" y="-1092.4525"/></text><text opacity=".8" x="243.34126" y="-1099.6625"><tspan x="243.34126" y="-1099.6625"/></text><text opacity=".8" x="1703.884" y="-1372.8966"><tspan x="1703.884" y="-1372.8966"/></text><text opacity=".8" x="-694.47504" y="-1147.7538"><tspan x="-694.47504" y="-1147.7538"/></text><text opacity=".8" x="-2518.1609" y="-402.20026"><tspan x="-2518.1609" y="-402.20026"/></text><text opacity=".8" x="-803.40527" y="-309.32809"><tspan x="-803.40527" y="-309.32809"/></text><text opacity=".8" x="36.609249" y="-68.41391"><tspan x="36.609249" y="-68.41391"/></text><text opacity=".8" x="60.570187" y="-109.15562"><tspan x="60.570187" y="-109.15562"/></text><text opacity=".8" x="-1209.2465" y="-303.18427"><tspan x="-1209.2465" y="-303.18427"/></text><text opacity=".8" x="-401.64447" y="-716.65442"><tspan x="-401.64447" y="-716.65442"/></text><text opacity=".8" x="-377.68353" y="-757.39612"><tspan x="-377.68353" y="-757.39612"/></text><text opacity=".8" x="-1869.1466" y="-764.60602"><tspan x="-1869.1466" y="-764.60602"/></text><text opacity=".8" x="-408.60391" y="-1037.8401"><tspan x="-408.60391" y="-1037.8401"/></text><text opacity=".8" x="1077.5195" y="-411.14877"><tspan x="1077.5195" y="-411.14877"/></text><text opacity=".8" x="1101.4803" y="-451.8905"><tspan x="1101.4803" y="-451.8905"/></text><text opacity=".8" x="-389.98279" y="-459.10046"><tspan x="-389.98279" y="-459.10046"/></text><text opacity=".8" x="1070.5601" y="-732.33453"><tspan x="1070.5601" y="-732.33453"/></text><text opacity=".8" x="-1327.7991" y="-507.19174"><tspan x="-1327.7991" y="-507.19174"/></text><text opacity=".8" x="-3151.4849" y="238.36182"><tspan x="-3151.4849" y="238.36182"/></text><text opacity=".8" transform="matrix(.90475 0 0 .90475 -835.73 -717.75)" x="-664.2738" y="1159.4154"><tspan x="-664.2738" y="1159.4154"/></text><text opacity=".8" x="758.24323" y="-23.407038"><tspan x="758.24323" y="-23.407038"/></text><text opacity=".8" x="782.20416" y="-64.148743"><tspan x="782.20416" y="-64.148743"/></text><text opacity=".8" x="-688.35419" y="-94.226891"><tspan x="-688.35419" y="-94.226891"/></text><text opacity=".8" x="-2512.0403" y="651.32654"><tspan x="-2512.0403" y="651.32654"/></text><text opacity=".8" x="-573.8631" y="-479.54785"><tspan x="-573.8631" y="-479.54785"/></text><text opacity=".8" x="233.73903" y="-893.01794"><tspan x="233.73903" y="-893.01794"/></text><text opacity=".8" x="257.69995" y="-933.7597"><tspan x="257.69995" y="-933.7597"/></text><text opacity=".8" x="-1233.7632" y="-940.9696"><tspan x="-1233.7632" y="-940.9696"/></text><text opacity=".8" x="226.77956" y="-1214.2037"><tspan x="226.77956" y="-1214.2037"/></text><text opacity=".8" x="1712.9031" y="-587.51239"><tspan x="1712.9031" y="-587.51239"/></text><text opacity=".8" x="1736.8639" y="-628.25415"><tspan x="1736.8639" y="-628.25415"/></text><text opacity=".8" x="245.40071" y="-635.46405"><tspan x="245.40071" y="-635.46405"/></text><text opacity=".8" x="1705.9436" y="-908.698"><tspan x="1705.9436" y="-908.698"/></text><text opacity=".8" x="-692.41559" y="-683.55536"><tspan x="-692.41559" y="-683.55536"/></text><text opacity=".8" x="-2516.1013" y="61.998222"><tspan x="-2516.1013" y="61.998222"/></text><text opacity=".8" x="-801.34583" y="154.87036"><tspan x="-801.34583" y="154.87036"/></text><text opacity=".8" x="307.67847" y="-24.311787"><tspan x="307.67847" y="-24.311787"/></text><text opacity=".8" x="331.6394" y="-65.053497"><tspan x="331.6394" y="-65.053497"/></text><text opacity=".8" x="-1159.8237" y="-72.263458"><tspan x="-1159.8237" y="-72.263458"/></text><text opacity=".8" x="300.71899" y="-345.49753"><tspan x="300.71899" y="-345.49753"/></text><text opacity=".8" x="-727.01556" y="-74.977707"><tspan x="-727.01556" y="-74.977707"/></text><text opacity=".8" x="-2550.7017" y="670.57581"><tspan x="-2550.7017" y="670.57581"/></text><text opacity=".8" x="-575.92255" y="-936.50824"><tspan x="-575.92255" y="-936.50824"/></text><text opacity=".8" x="231.67961" y="-1349.9784"><tspan x="231.67961" y="-1349.9784"/></text><text opacity=".8" x="255.64052" y="-1390.7202"><tspan x="255.64052" y="-1390.7202"/></text><text opacity=".8" x="-1235.8226" y="-1397.9301"><tspan x="-1235.8226" y="-1397.9301"/></text><text opacity=".8" x="224.72011" y="-1671.1642"><tspan x="224.72011" y="-1671.1642"/></text><text opacity=".8" x="1710.8435" y="-1044.473"><tspan x="1710.8435" y="-1044.473"/></text><text opacity=".8" x="1734.8043" y="-1085.2146"><tspan x="1734.8043" y="-1085.2146"/></text><text opacity=".8" x="243.34126" y="-1092.4244"><tspan x="243.34126" y="-1092.4244"/></text><text opacity=".8" x="1703.884" y="-1365.6586"><tspan x="1703.884" y="-1365.6586"/></text><text opacity=".8" x="-694.47504" y="-1140.5157"><tspan x="-694.47504" y="-1140.5157"/></text><text opacity=".8" x="-2518.1609" y="-394.96225"><tspan x="-2518.1609" y="-394.96225"/></text><text opacity=".8" x="-803.40527" y="-302.09009"><tspan x="-803.40527" y="-302.09009"/></text><text opacity=".8" x="36.609249" y="-61.175919"><tspan x="36.609249" y="-61.175919"/></text><text opacity=".8" x="60.570187" y="-101.91764"><tspan x="60.570187" y="-101.91764"/></text><text opacity=".8" x="-1209.2465" y="-295.94623"><tspan x="-1209.2465" y="-295.94623"/></text><text opacity=".8" x="-401.64447" y="-709.41644"><tspan x="-401.64447" y="-709.41644"/></text><text opacity=".8" x="-377.68353" y="-750.15814"><tspan x="-377.68353" y="-750.15814"/></text><text opacity=".8" x="-1869.1466" y="-757.3681"><tspan x="-1869.1466" y="-757.3681"/></text><text opacity=".8" x="-408.60391" y="-1030.6021"><tspan x="-408.60391" y="-1030.6021"/></text><text opacity=".8" x="1077.5195" y="-403.9108"><tspan x="1077.5195" y="-403.9108"/></text><text opacity=".8" x="1101.4803" y="-444.65253"><tspan x="1101.4803" y="-444.65253"/></text><text opacity=".8" x="-389.98279" y="-451.86246"><tspan x="-389.98279" y="-451.86246"/></text><text opacity=".8" x="1070.5601" y="-725.09656"><tspan x="1070.5601" y="-725.09656"/></text><text opacity=".8" x="-1327.7991" y="-499.95374"><tspan x="-1327.7991" y="-499.95374"/></text><text opacity=".8" x="-3151.4849" y="245.59979"><tspan x="-3151.4849" y="245.59979"/></text><text opacity=".8" transform="matrix(.90475 0 0 .90475 -835.73 -710.51)" x="-664.2738" y="1159.4154"><tspan x="-664.2738" y="1159.4154"/></text><text x="316.9212" y="-402.68311"><tspan x="316.9212" y="-402.68311"/><tspan x="316.9212" y="-386.85004"/></text><text opacity=".8" x="782.10516" y="-884.72766"><tspan x="782.10516" y="-884.72766"/></text><text opacity=".8" x="-1041.5808" y="-139.17418"><tspan x="-1041.5808" y="-139.17418"/></text><text opacity=".8" x="1509.1847" y="-1169.7235"><tspan x="1509.1847" y="-1169.7235"/></text><text opacity=".8" x="1533.1455" y="-1210.4652"><tspan x="1533.1455" y="-1210.4652"/></text><text opacity=".8" x="41.682369" y="-1217.6752"><tspan x="41.682369" y="-1217.6752"/></text><text opacity=".8" x="1502.2252" y="-1490.9093"><tspan x="1502.2252" y="-1490.9093"/></text><g transform="translate(-1 -1)"><rect fill="#f57635" height="20" rx="1" transform="matrix(0 -1 -1 0 0 0)" width="20" x="-22" y="-22"/><path d="m3 2c-.554 0-1 .446-1 1v .5c0-.554.446-1 1-1h18c .554 0 1 .446 1 1v-.5c0-.554-.446-1-1-1z" fill="#fff" opacity=".2"/><path d="m3 22c-.554 0-1-.446-1-1v-.5c0 .554.446 1 1 1h18c .554 0 1-.446 1-1v .5c0 .554-.446 1-1 1z" opacity=".3"/><path d="m12.724609 7.5c-1.466991.002-2.8066276.8612304-3.4570309 2.2167969-.274274-.14742-.5793582-.225812-.8886719-.2265625-1.0664809 0-1.9296875.8927476-1.9296874 1.9921876.0005793.06951.00409.137961.011719.207031-.853093.353743-1.4609378 1.253438-1.4609378 2.322266 0 1.378568 1.0038609 2.488281 2.2519531 2.488281h9.0136719c.201167 0 .390849-.03766.576172-.0918 1.251122-.246201 2.157272-1.374427 2.158203-2.6875-.000966-1.431388-1.072455-2.61931-2.457031-2.726562.000065-.000257.0078-.0098.0078-.0098-.242577-1.9892845-1.881295-3.4818905-3.82616-3.484338zm-.724609 2l1.5 1.5 1.5 1.5h-2v3h-2v-3h-2l1.5-1.5z" opacity=".2"/><path d="m12.724609 7c-1.466991.002-2.8066276.8612304-3.4570309 2.2167969-.274274-.14742-.5793582-.225812-.8886719-.2265625-1.0664809 0-1.9296875.8927475-1.9296874 1.9921876.0005793.06951.00409.137961.011719.207031-.853093.353743-1.4609378 1.253438-1.4609378 2.322266 0 1.378568 1.0038609 2.488281 2.2519531 2.488281h9.0136719c.201167 0 .390849-.03766.576172-.0918 1.251122-.246201 2.157272-1.374427 2.158203-2.6875-.000966-1.431388-1.072455-2.61931-2.457031-2.726562.000065-.000257.0078-.0098.0078-.0098-.242577-1.9892845-1.881295-3.4818905-3.82616-3.484338zm-.724609 2l1.5 1.5 1.5 1.5h-2v3h-2v-3h-2l1.5-1.5z" fill="#fff"/></g></svg>