<svg height="22" width="22" xmlns="http://www.w3.org/2000/svg"><text opacity=".8" x="877.22626" y="8.8126011"><tspan x="877.22626" y="8.8126011"/></text><text opacity=".8" x="901.18719" y="-31.929106"><tspan x="901.18719" y="-31.929106"/></text><text opacity=".8" x="-569.37115" y="-62.007248"><tspan x="-569.37115" y="-62.007248"/></text><text opacity=".8" x="-2393.0571" y="683.5462"><tspan x="-2393.0571" y="683.5462"/></text><text opacity=".8" x="-454.88007" y="-447.32822"><tspan x="-454.88007" y="-447.32822"/></text><text opacity=".8" x="352.72208" y="-860.79834"><tspan x="352.72208" y="-860.79834"/></text><text opacity=".8" x="376.68301" y="-901.54004"><tspan x="376.68301" y="-901.54004"/></text><text opacity=".8" x="-1114.7802" y="-908.74994"><tspan x="-1114.7802" y="-908.74994"/></text><text opacity=".8" x="345.7626" y="-1181.9841"><tspan x="345.7626" y="-1181.9841"/></text><text opacity=".8" x="1831.8861" y="-555.29272"><tspan x="1831.8861" y="-555.29272"/></text><text opacity=".8" x="1855.8469" y="-596.03448"><tspan x="1855.8469" y="-596.03448"/></text><text opacity=".8" x="364.38376" y="-603.24438"><tspan x="364.38376" y="-603.24438"/></text><text opacity=".8" x="1824.9266" y="-876.47839"><tspan x="1824.9266" y="-876.47839"/></text><text opacity=".8" x="-573.43256" y="-651.33569"><tspan x="-573.43256" y="-651.33569"/></text><text opacity=".8" x="-2397.1182" y="94.217857"><tspan x="-2397.1182" y="94.217857"/></text><text opacity=".8" x="-682.36279" y="187.09"><tspan x="-682.36279" y="187.09"/></text><text opacity=".8" x="426.66153" y="7.9078522"><tspan x="426.66153" y="7.9078522"/></text><text opacity=".8" x="450.62247" y="-32.833855"><tspan x="450.62247" y="-32.833855"/></text><text opacity=".8" x="-1040.8407" y="-40.043827"><tspan x="-1040.8407" y="-40.043827"/></text><text opacity=".8" x="419.70206" y="-313.27789"><tspan x="419.70206" y="-313.27789"/></text><text opacity=".8" x="-608.03253" y="-42.758072"><tspan x="-608.03253" y="-42.758072"/></text><text opacity=".8" x="-2431.7185" y="702.79541"><tspan x="-2431.7185" y="702.79541"/></text><text opacity=".8" x="-456.93948" y="-904.28857"><tspan x="-456.93948" y="-904.28857"/></text><text opacity=".8" x="350.66266" y="-1317.7588"><tspan x="350.66266" y="-1317.7588"/></text><text opacity=".8" x="374.62357" y="-1358.5005"><tspan x="374.62357" y="-1358.5005"/></text><text opacity=".8" x="-1116.8396" y="-1365.7104"><tspan x="-1116.8396" y="-1365.7104"/></text><text opacity=".8" x="343.70316" y="-1638.9446"><tspan x="343.70316" y="-1638.9446"/></text><text opacity=".8" x="1829.8265" y="-1012.2533"><tspan x="1829.8265" y="-1012.2533"/></text><text opacity=".8" x="1853.7874" y="-1052.9949"><tspan x="1853.7874" y="-1052.9949"/></text><text opacity=".8" x="362.32431" y="-1060.2048"><tspan x="362.32431" y="-1060.2048"/></text><text opacity=".8" x="1822.8671" y="-1333.439"><tspan x="1822.8671" y="-1333.439"/></text><text opacity=".8" x="-575.492" y="-1108.2961"><tspan x="-575.492" y="-1108.2961"/></text><text opacity=".8" x="-2399.1777" y="-362.74261"><tspan x="-2399.1777" y="-362.74261"/></text><text opacity=".8" x="-684.42224" y="-269.87045"><tspan x="-684.42224" y="-269.87045"/></text><text opacity=".8" x="155.5923" y="-28.956278"><tspan x="155.5923" y="-28.956278"/></text><text opacity=".8" x="179.55324" y="-69.697998"><tspan x="179.55324" y="-69.697998"/></text><text opacity=".8" x="-1090.2634" y="-263.72662"><tspan x="-1090.2634" y="-263.72662"/></text><text opacity=".8" x="-282.66141" y="-677.19678"><tspan x="-282.66141" y="-677.19678"/></text><text opacity=".8" x="-258.70047" y="-717.93848"><tspan x="-258.70047" y="-717.93848"/></text><text opacity=".8" x="-1750.1636" y="-725.14838"><tspan x="-1750.1636" y="-725.14838"/></text><text opacity=".8" x="-289.62085" y="-998.38251"><tspan x="-289.62085" y="-998.38251"/></text><text opacity=".8" x="1196.5026" y="-371.69113"><tspan x="1196.5026" y="-371.69113"/></text><text opacity=".8" x="1220.4634" y="-412.43286"><tspan x="1220.4634" y="-412.43286"/></text><text opacity=".8" x="-270.99973" y="-419.64282"><tspan x="-270.99973" y="-419.64282"/></text><text opacity=".8" x="1189.5431" y="-692.87689"><tspan x="1189.5431" y="-692.87689"/></text><text opacity=".8" x="-1208.816" y="-467.7341"><tspan x="-1208.816" y="-467.7341"/></text><text opacity=".8" x="-3032.5017" y="277.81946"><tspan x="-3032.5017" y="277.81946"/></text><text opacity=".8" transform="matrix(.90475 0 0 .90475 -716.75 -678.29)" x="-664.2738" y="1159.4154"><tspan x="-664.2738" y="1159.4154"/></text><text opacity=".8" x="877.22626" y="16.050589"><tspan x="877.22626" y="16.050589"/></text><text opacity=".8" x="901.18719" y="-24.691116"><tspan x="901.18719" y="-24.691116"/></text><text opacity=".8" x="-569.37115" y="-54.76926"><tspan x="-569.37115" y="-54.76926"/></text><text opacity=".8" x="-2393.0571" y="690.78418"><tspan x="-2393.0571" y="690.78418"/></text><text opacity=".8" x="-454.88007" y="-440.09021"><tspan x="-454.88007" y="-440.09021"/></text><text opacity=".8" x="352.72208" y="-853.5603"><tspan x="352.72208" y="-853.5603"/></text><text opacity=".8" x="376.68301" y="-894.30206"><tspan x="376.68301" y="-894.30206"/></text><text opacity=".8" x="-1114.7802" y="-901.51196"><tspan x="-1114.7802" y="-901.51196"/></text><text opacity=".8" x="345.7626" y="-1174.7461"><tspan x="345.7626" y="-1174.7461"/></text><text opacity=".8" x="1831.8861" y="-548.05475"><tspan x="1831.8861" y="-548.05475"/></text><text opacity=".8" x="1855.8469" y="-588.79651"><tspan x="1855.8469" y="-588.79651"/></text><text opacity=".8" x="364.38376" y="-596.00641"><tspan x="364.38376" y="-596.00641"/></text><text opacity=".8" x="1824.9266" y="-869.24036"><tspan x="1824.9266" y="-869.24036"/></text><text opacity=".8" x="-573.43256" y="-644.09772"><tspan x="-573.43256" y="-644.09772"/></text><text opacity=".8" x="-2397.1182" y="101.45585"><tspan x="-2397.1182" y="101.45585"/></text><text opacity=".8" x="-682.36279" y="194.32799"><tspan x="-682.36279" y="194.32799"/></text><text opacity=".8" x="426.66153" y="15.14584"><tspan x="426.66153" y="15.14584"/></text><text opacity=".8" x="450.62247" y="-25.595865"><tspan x="450.62247" y="-25.595865"/></text><text opacity=".8" x="-1040.8407" y="-32.805836"><tspan x="-1040.8407" y="-32.805836"/></text><text opacity=".8" x="419.70206" y="-306.03989"><tspan x="419.70206" y="-306.03989"/></text><text opacity=".8" x="-608.03253" y="-35.520081"><tspan x="-608.03253" y="-35.520081"/></text><text opacity=".8" x="-2431.7185" y="710.03345"><tspan x="-2431.7185" y="710.03345"/></text><text opacity=".8" x="-456.93948" y="-897.0506"><tspan x="-456.93948" y="-897.0506"/></text><text opacity=".8" x="350.66266" y="-1310.5208"><tspan x="350.66266" y="-1310.5208"/></text><text opacity=".8" x="374.62357" y="-1351.2626"><tspan x="374.62357" y="-1351.2626"/></text><text opacity=".8" x="-1116.8396" y="-1358.4724"><tspan x="-1116.8396" y="-1358.4724"/></text><text opacity=".8" x="343.70316" y="-1631.7065"><tspan x="343.70316" y="-1631.7065"/></text><text opacity=".8" x="1829.8265" y="-1005.0153"><tspan x="1829.8265" y="-1005.0153"/></text><text opacity=".8" x="1853.7874" y="-1045.757"><tspan x="1853.7874" y="-1045.757"/></text><text opacity=".8" x="362.32431" y="-1052.9668"><tspan x="362.32431" y="-1052.9668"/></text><text opacity=".8" x="1822.8671" y="-1326.2009"><tspan x="1822.8671" y="-1326.2009"/></text><text opacity=".8" x="-575.492" y="-1101.0581"><tspan x="-575.492" y="-1101.0581"/></text><text opacity=".8" x="-2399.1777" y="-355.50461"><tspan x="-2399.1777" y="-355.50461"/></text><text opacity=".8" x="-684.42224" y="-262.63245"><tspan x="-684.42224" y="-262.63245"/></text><text opacity=".8" x="155.5923" y="-21.71829"><tspan x="155.5923" y="-21.71829"/></text><text opacity=".8" x="179.55324" y="-62.460011"><tspan x="179.55324" y="-62.460011"/></text><text opacity=".8" x="-1090.2634" y="-256.48859"><tspan x="-1090.2634" y="-256.48859"/></text><text opacity=".8" x="-282.66141" y="-669.9588"><tspan x="-282.66141" y="-669.9588"/></text><text opacity=".8" x="-258.70047" y="-710.7005"><tspan x="-258.70047" y="-710.7005"/></text><text opacity=".8" x="-1750.1636" y="-717.91046"><tspan x="-1750.1636" y="-717.91046"/></text><text opacity=".8" x="-289.62085" y="-991.14447"><tspan x="-289.62085" y="-991.14447"/></text><text opacity=".8" x="1196.5026" y="-364.45316"><tspan x="1196.5026" y="-364.45316"/></text><text opacity=".8" x="1220.4634" y="-405.19489"><tspan x="1220.4634" y="-405.19489"/></text><text opacity=".8" x="-270.99973" y="-412.40482"><tspan x="-270.99973" y="-412.40482"/></text><text opacity=".8" x="1189.5431" y="-685.63892"><tspan x="1189.5431" y="-685.63892"/></text><text opacity=".8" x="-1208.816" y="-460.49609"><tspan x="-1208.816" y="-460.49609"/></text><text opacity=".8" x="-3032.5017" y="285.05743"><tspan x="-3032.5017" y="285.05743"/></text><text opacity=".8" transform="matrix(.90475 0 0 .90475 -716.75 -671.05)" x="-664.2738" y="1159.4154"><tspan x="-664.2738" y="1159.4154"/></text><text x="435.90427" y="-363.22546"><tspan x="435.90427" y="-363.22546"/><tspan x="435.90427" y="-347.3924"/></text><text opacity=".8" x="901.0882" y="-845.27002"><tspan x="901.0882" y="-845.27002"/></text><text opacity=".8" x="-922.59778" y="-99.716553"><tspan x="-922.59778" y="-99.716553"/></text><text opacity=".8" x="1628.1677" y="-1130.2659"><tspan x="1628.1677" y="-1130.2659"/></text><text opacity=".8" x="1652.1285" y="-1171.0076"><tspan x="1652.1285" y="-1171.0076"/></text><text opacity=".8" x="160.66542" y="-1178.2175"><tspan x="160.66542" y="-1178.2175"/></text><text opacity=".8" x="1621.2083" y="-1451.4517"><tspan x="1621.2083" y="-1451.4517"/></text><text opacity=".8" x="837.22626" y="-10.187399"><tspan x="837.22626" y="-10.187399"/></text><text opacity=".8" x="861.18719" y="-50.929108"><tspan x="861.18719" y="-50.929108"/></text><text opacity=".8" x="-609.37115" y="-81.007248"><tspan x="-609.37115" y="-81.007248"/></text><text opacity=".8" x="-2433.0571" y="664.5462"><tspan x="-2433.0571" y="664.5462"/></text><text opacity=".8" x="-494.88007" y="-466.32822"><tspan x="-494.88007" y="-466.32822"/></text><text opacity=".8" x="312.72208" y="-879.79834"><tspan x="312.72208" y="-879.79834"/></text><text opacity=".8" x="336.68301" y="-920.54004"><tspan x="336.68301" y="-920.54004"/></text><text opacity=".8" x="-1154.7802" y="-927.74994"><tspan x="-1154.7802" y="-927.74994"/></text><text opacity=".8" x="305.7626" y="-1200.9841"><tspan x="305.7626" y="-1200.9841"/></text><text opacity=".8" x="1791.8861" y="-574.29272"><tspan x="1791.8861" y="-574.29272"/></text><text opacity=".8" x="1815.8469" y="-615.03448"><tspan x="1815.8469" y="-615.03448"/></text><text opacity=".8" x="324.38376" y="-622.24438"><tspan x="324.38376" y="-622.24438"/></text><text opacity=".8" x="1784.9266" y="-895.47839"><tspan x="1784.9266" y="-895.47839"/></text><text opacity=".8" x="-613.43256" y="-670.33569"><tspan x="-613.43256" y="-670.33569"/></text><text opacity=".8" x="-2437.1182" y="75.217857"><tspan x="-2437.1182" y="75.217857"/></text><text opacity=".8" x="-722.36279" y="168.09"><tspan x="-722.36279" y="168.09"/></text><text opacity=".8" x="386.66153" y="-11.092148"><tspan x="386.66153" y="-11.092148"/></text><text opacity=".8" x="410.62247" y="-51.833855"><tspan x="410.62247" y="-51.833855"/></text><text opacity=".8" x="-1080.8407" y="-59.043827"><tspan x="-1080.8407" y="-59.043827"/></text><text opacity=".8" x="379.70206" y="-332.27789"><tspan x="379.70206" y="-332.27789"/></text><text opacity=".8" x="-648.03253" y="-61.758072"><tspan x="-648.03253" y="-61.758072"/></text><text opacity=".8" x="-2471.7185" y="683.79541"><tspan x="-2471.7185" y="683.79541"/></text><text opacity=".8" x="-496.93948" y="-923.28857"><tspan x="-496.93948" y="-923.28857"/></text><text opacity=".8" x="310.66266" y="-1336.7588"><tspan x="310.66266" y="-1336.7588"/></text><text opacity=".8" x="334.62357" y="-1377.5005"><tspan x="334.62357" y="-1377.5005"/></text><text opacity=".8" x="-1156.8396" y="-1384.7104"><tspan x="-1156.8396" y="-1384.7104"/></text><text opacity=".8" x="303.70316" y="-1657.9446"><tspan x="303.70316" y="-1657.9446"/></text><text opacity=".8" x="1789.8265" y="-1031.2533"><tspan x="1789.8265" y="-1031.2533"/></text><text opacity=".8" x="1813.7874" y="-1071.9949"><tspan x="1813.7874" y="-1071.9949"/></text><text opacity=".8" x="322.32431" y="-1079.2048"><tspan x="322.32431" y="-1079.2048"/></text><text opacity=".8" x="1782.8671" y="-1352.439"><tspan x="1782.8671" y="-1352.439"/></text><text opacity=".8" x="-615.492" y="-1127.2961"><tspan x="-615.492" y="-1127.2961"/></text><text opacity=".8" x="-2439.1777" y="-381.74261"><tspan x="-2439.1777" y="-381.74261"/></text><text opacity=".8" x="-724.42224" y="-288.87045"><tspan x="-724.42224" y="-288.87045"/></text><text opacity=".8" x="115.5923" y="-47.956276"><tspan x="115.5923" y="-47.956276"/></text><text opacity=".8" x="139.55324" y="-88.697998"><tspan x="139.55324" y="-88.697998"/></text><text opacity=".8" x="-1130.2634" y="-282.72662"><tspan x="-1130.2634" y="-282.72662"/></text><text opacity=".8" x="-322.66141" y="-696.19678"><tspan x="-322.66141" y="-696.19678"/></text><text opacity=".8" x="-298.70047" y="-736.93848"><tspan x="-298.70047" y="-736.93848"/></text><text opacity=".8" x="-1790.1636" y="-744.14838"><tspan x="-1790.1636" y="-744.14838"/></text><text opacity=".8" x="-329.62085" y="-1017.3825"><tspan x="-329.62085" y="-1017.3825"/></text><text opacity=".8" x="1156.5026" y="-390.69113"><tspan x="1156.5026" y="-390.69113"/></text><text opacity=".8" x="1180.4634" y="-431.43286"><tspan x="1180.4634" y="-431.43286"/></text><text opacity=".8" x="-310.99973" y="-438.64282"><tspan x="-310.99973" y="-438.64282"/></text><text opacity=".8" x="1149.5431" y="-711.87689"><tspan x="1149.5431" y="-711.87689"/></text><text opacity=".8" x="-1248.816" y="-486.7341"><tspan x="-1248.816" y="-486.7341"/></text><text opacity=".8" x="-3072.5017" y="258.81946"><tspan x="-3072.5017" y="258.81946"/></text><text opacity=".8" transform="matrix(.90475 0 0 .90475 -756.75 -697.29)" x="-664.2738" y="1159.4154"><tspan x="-664.2738" y="1159.4154"/></text><text opacity=".8" x="837.22626" y="-2.9494114"><tspan x="837.22626" y="-2.9494114"/></text><text opacity=".8" x="861.18719" y="-43.691116"><tspan x="861.18719" y="-43.691116"/></text><text opacity=".8" x="-609.37115" y="-73.769257"><tspan x="-609.37115" y="-73.769257"/></text><text opacity=".8" x="-2433.0571" y="671.78418"><tspan x="-2433.0571" y="671.78418"/></text><text opacity=".8" x="-494.88007" y="-459.09021"><tspan x="-494.88007" y="-459.09021"/></text><text opacity=".8" x="312.72208" y="-872.5603"><tspan x="312.72208" y="-872.5603"/></text><text opacity=".8" x="336.68301" y="-913.30206"><tspan x="336.68301" y="-913.30206"/></text><text opacity=".8" x="-1154.7802" y="-920.51196"><tspan x="-1154.7802" y="-920.51196"/></text><text opacity=".8" x="305.7626" y="-1193.7461"><tspan x="305.7626" y="-1193.7461"/></text><text opacity=".8" x="1791.8861" y="-567.05475"><tspan x="1791.8861" y="-567.05475"/></text><text opacity=".8" x="1815.8469" y="-607.79651"><tspan x="1815.8469" y="-607.79651"/></text><text opacity=".8" x="324.38376" y="-615.00641"><tspan x="324.38376" y="-615.00641"/></text><text opacity=".8" x="1784.9266" y="-888.24036"><tspan x="1784.9266" y="-888.24036"/></text><text opacity=".8" x="-613.43256" y="-663.09772"><tspan x="-613.43256" y="-663.09772"/></text><text opacity=".8" x="-2437.1182" y="82.455849"><tspan x="-2437.1182" y="82.455849"/></text><text opacity=".8" x="-722.36279" y="175.32799"><tspan x="-722.36279" y="175.32799"/></text><text opacity=".8" x="386.66153" y="-3.8541603"><tspan x="386.66153" y="-3.8541603"/></text><text opacity=".8" x="410.62247" y="-44.595863"><tspan x="410.62247" y="-44.595863"/></text><text opacity=".8" x="-1080.8407" y="-51.805836"><tspan x="-1080.8407" y="-51.805836"/></text><text opacity=".8" x="379.70206" y="-325.03989"><tspan x="379.70206" y="-325.03989"/></text><text opacity=".8" x="-648.03253" y="-54.520081"><tspan x="-648.03253" y="-54.520081"/></text><text opacity=".8" x="-2471.7185" y="691.03345"><tspan x="-2471.7185" y="691.03345"/></text><text opacity=".8" x="-496.93948" y="-916.0506"><tspan x="-496.93948" y="-916.0506"/></text><text opacity=".8" x="310.66266" y="-1329.5208"><tspan x="310.66266" y="-1329.5208"/></text><text opacity=".8" x="334.62357" y="-1370.2626"><tspan x="334.62357" y="-1370.2626"/></text><text opacity=".8" x="-1156.8396" y="-1377.4724"><tspan x="-1156.8396" y="-1377.4724"/></text><text opacity=".8" x="303.70316" y="-1650.7065"><tspan x="303.70316" y="-1650.7065"/></text><text opacity=".8" x="1789.8265" y="-1024.0154"><tspan x="1789.8265" y="-1024.0154"/></text><text opacity=".8" x="1813.7874" y="-1064.757"><tspan x="1813.7874" y="-1064.757"/></text><text opacity=".8" x="322.32431" y="-1071.9668"><tspan x="322.32431" y="-1071.9668"/></text><text opacity=".8" x="1782.8671" y="-1345.2009"><tspan x="1782.8671" y="-1345.2009"/></text><text opacity=".8" x="-615.492" y="-1120.0581"><tspan x="-615.492" y="-1120.0581"/></text><text opacity=".8" x="-2439.1777" y="-374.50461"><tspan x="-2439.1777" y="-374.50461"/></text><text opacity=".8" x="-724.42224" y="-281.63245"><tspan x="-724.42224" y="-281.63245"/></text><text opacity=".8" x="115.5923" y="-40.718292"><tspan x="115.5923" y="-40.718292"/></text><text opacity=".8" x="139.55324" y="-81.460007"><tspan x="139.55324" y="-81.460007"/></text><text opacity=".8" x="-1130.2634" y="-275.48859"><tspan x="-1130.2634" y="-275.48859"/></text><text opacity=".8" x="-322.66141" y="-688.9588"><tspan x="-322.66141" y="-688.9588"/></text><text opacity=".8" x="-298.70047" y="-729.7005"><tspan x="-298.70047" y="-729.7005"/></text><text opacity=".8" x="-1790.1636" y="-736.91046"><tspan x="-1790.1636" y="-736.91046"/></text><text opacity=".8" x="-329.62085" y="-1010.1445"><tspan x="-329.62085" y="-1010.1445"/></text><text opacity=".8" x="1156.5026" y="-383.45316"><tspan x="1156.5026" y="-383.45316"/></text><text opacity=".8" x="1180.4634" y="-424.19489"><tspan x="1180.4634" y="-424.19489"/></text><text opacity=".8" x="-310.99973" y="-431.40482"><tspan x="-310.99973" y="-431.40482"/></text><text opacity=".8" x="1149.5431" y="-704.63892"><tspan x="1149.5431" y="-704.63892"/></text><text opacity=".8" x="-1248.816" y="-479.49609"><tspan x="-1248.816" y="-479.49609"/></text><text opacity=".8" x="-3072.5017" y="266.05743"><tspan x="-3072.5017" y="266.05743"/></text><text opacity=".8" transform="matrix(.90475 0 0 .90475 -756.75 -690.05)" x="-664.2738" y="1159.4154"><tspan x="-664.2738" y="1159.4154"/></text><text x="395.90427" y="-382.22546"><tspan x="395.90427" y="-382.22546"/><tspan x="395.90427" y="-366.3924"/></text><text opacity=".8" x="861.0882" y="-864.27002"><tspan x="861.0882" y="-864.27002"/></text><text opacity=".8" x="-962.59778" y="-118.71655"><tspan x="-962.59778" y="-118.71655"/></text><text opacity=".8" x="1588.1677" y="-1149.2659"><tspan x="1588.1677" y="-1149.2659"/></text><text opacity=".8" x="1612.1285" y="-1190.0076"><tspan x="1612.1285" y="-1190.0076"/></text><text opacity=".8" x="120.66542" y="-1197.2175"><tspan x="120.66542" y="-1197.2175"/></text><text opacity=".8" x="1581.2083" y="-1470.4517"><tspan x="1581.2083" y="-1470.4517"/></text><g transform="translate(-1 -1)"><rect fill="#eac046" height="20" rx="1" transform="matrix(0 -1 -1 0 0 0)" width="20" x="-22" y="-22"/><path d="m3 2c-.554 0-1 .446-1 1v .5c0-.554.446-1 1-1h18c .554 0 1 .446 1 1v-.5c0-.554-.446-1-1-1z" fill="#fff" opacity=".2"/><path d="m3 22c-.554 0-1-.446-1-1v-.5c0 .554.446 1 1 1h18c .554 0 1-.446 1-1v .5c0 .554-.446 1-1 1z" opacity=".3"/><path d="m12 4.5v2c-3.866154 0-7 3.133846-7 7 0 3.866154 3.133846 7 7 7 3.866154 0 7-3.133846 7-7 0-.6423-1-.706831-1-.707031 0 0-1 .06473-1 .707031 0 2.7615-2.2385 5-5 5-2.7615 0-5-2.2385-5-5 0-2.7615 2.2385-5 5-5v2l3-3z" fill-rule="evenodd" opacity=".2"/><path d="m12 4v2c-3.866154 0-7 3.133846-7 7 0 3.866154 3.133846 7 7 7 3.866154 0 7-3.133846 7-7 0-.6423-1-.706831-1-.707031 0 0-1 .06473-1 .707031 0 2.7615-2.2385 5-5 5-2.7615 0-5-2.2385-5-5 0-2.7615 2.2385-5 5-5v2l3-3z" fill="#fff" fill-rule="evenodd"/></g><text opacity=".8" x="841.22626" y="18.812601"><tspan x="841.22626" y="18.812601"/></text><text opacity=".8" x="865.18719" y="-21.929106"><tspan x="865.18719" y="-21.929106"/></text><text opacity=".8" x="-605.37115" y="-52.007248"><tspan x="-605.37115" y="-52.007248"/></text><text opacity=".8" x="-2429.0571" y="693.5462"><tspan x="-2429.0571" y="693.5462"/></text><text opacity=".8" x="-490.88007" y="-437.32822"><tspan x="-490.88007" y="-437.32822"/></text><text opacity=".8" x="316.72208" y="-850.79834"><tspan x="316.72208" y="-850.79834"/></text><text opacity=".8" x="340.68301" y="-891.54004"><tspan x="340.68301" y="-891.54004"/></text><text opacity=".8" x="-1150.7802" y="-898.74994"><tspan x="-1150.7802" y="-898.74994"/></text><text opacity=".8" x="309.7626" y="-1171.9841"><tspan x="309.7626" y="-1171.9841"/></text><text opacity=".8" x="1795.8861" y="-545.29272"><tspan x="1795.8861" y="-545.29272"/></text><text opacity=".8" x="1819.8469" y="-586.03448"><tspan x="1819.8469" y="-586.03448"/></text><text opacity=".8" x="328.38376" y="-593.24438"><tspan x="328.38376" y="-593.24438"/></text><text opacity=".8" x="1788.9266" y="-866.47839"><tspan x="1788.9266" y="-866.47839"/></text><text opacity=".8" x="-609.43256" y="-641.33569"><tspan x="-609.43256" y="-641.33569"/></text><text opacity=".8" x="-2433.1182" y="104.21786"><tspan x="-2433.1182" y="104.21786"/></text><text opacity=".8" x="-718.36279" y="197.09"><tspan x="-718.36279" y="197.09"/></text><text opacity=".8" x="390.66153" y="17.907852"><tspan x="390.66153" y="17.907852"/></text><text opacity=".8" x="414.62247" y="-22.833855"><tspan x="414.62247" y="-22.833855"/></text><text opacity=".8" x="-1076.8407" y="-30.043827"><tspan x="-1076.8407" y="-30.043827"/></text><text opacity=".8" x="383.70206" y="-303.27789"><tspan x="383.70206" y="-303.27789"/></text><text opacity=".8" x="-644.03253" y="-32.758072"><tspan x="-644.03253" y="-32.758072"/></text><text opacity=".8" x="-2467.7185" y="712.79541"><tspan x="-2467.7185" y="712.79541"/></text><text opacity=".8" x="-492.93948" y="-894.28857"><tspan x="-492.93948" y="-894.28857"/></text><text opacity=".8" x="314.66266" y="-1307.7588"><tspan x="314.66266" y="-1307.7588"/></text><text opacity=".8" x="338.62357" y="-1348.5005"><tspan x="338.62357" y="-1348.5005"/></text><text opacity=".8" x="-1152.8396" y="-1355.7104"><tspan x="-1152.8396" y="-1355.7104"/></text><text opacity=".8" x="307.70316" y="-1628.9446"><tspan x="307.70316" y="-1628.9446"/></text><text opacity=".8" x="1793.8265" y="-1002.2533"><tspan x="1793.8265" y="-1002.2533"/></text><text opacity=".8" x="1817.7874" y="-1042.9949"><tspan x="1817.7874" y="-1042.9949"/></text><text opacity=".8" x="326.32431" y="-1050.2048"><tspan x="326.32431" y="-1050.2048"/></text><text opacity=".8" x="1786.8671" y="-1323.439"><tspan x="1786.8671" y="-1323.439"/></text><text opacity=".8" x="-611.492" y="-1098.2961"><tspan x="-611.492" y="-1098.2961"/></text><text opacity=".8" x="-2435.1777" y="-352.74261"><tspan x="-2435.1777" y="-352.74261"/></text><text opacity=".8" x="-720.42224" y="-259.87045"><tspan x="-720.42224" y="-259.87045"/></text><text opacity=".8" x="119.5923" y="-18.956278"><tspan x="119.5923" y="-18.956278"/></text><text opacity=".8" x="143.55324" y="-59.697998"><tspan x="143.55324" y="-59.697998"/></text><text opacity=".8" x="-1126.2634" y="-253.72662"><tspan x="-1126.2634" y="-253.72662"/></text><text opacity=".8" x="-318.66141" y="-667.19678"><tspan x="-318.66141" y="-667.19678"/></text><text opacity=".8" x="-294.70047" y="-707.93848"><tspan x="-294.70047" y="-707.93848"/></text><text opacity=".8" x="-1786.1636" y="-715.14838"><tspan x="-1786.1636" y="-715.14838"/></text><text opacity=".8" x="-325.62085" y="-988.38251"><tspan x="-325.62085" y="-988.38251"/></text><text opacity=".8" x="1160.5026" y="-361.69113"><tspan x="1160.5026" y="-361.69113"/></text><text opacity=".8" x="1184.4634" y="-402.43286"><tspan x="1184.4634" y="-402.43286"/></text><text opacity=".8" x="-306.99973" y="-409.64282"><tspan x="-306.99973" y="-409.64282"/></text><text opacity=".8" x="1153.5431" y="-682.87689"><tspan x="1153.5431" y="-682.87689"/></text><text opacity=".8" x="-1244.816" y="-457.7341"><tspan x="-1244.816" y="-457.7341"/></text><text opacity=".8" x="-3068.5017" y="287.81946"><tspan x="-3068.5017" y="287.81946"/></text><text opacity=".8" transform="matrix(.90475 0 0 .90475 -752.75 -668.29)" x="-664.2738" y="1159.4154"><tspan x="-664.2738" y="1159.4154"/></text><text opacity=".8" x="841.22626" y="26.050589"><tspan x="841.22626" y="26.050589"/></text><text opacity=".8" x="865.18719" y="-14.691116"><tspan x="865.18719" y="-14.691116"/></text><text opacity=".8" x="-605.37115" y="-44.76926"><tspan x="-605.37115" y="-44.76926"/></text><text opacity=".8" x="-2429.0571" y="700.78418"><tspan x="-2429.0571" y="700.78418"/></text><text opacity=".8" x="-490.88007" y="-430.09021"><tspan x="-490.88007" y="-430.09021"/></text><text opacity=".8" x="316.72208" y="-843.5603"><tspan x="316.72208" y="-843.5603"/></text><text opacity=".8" x="340.68301" y="-884.30206"><tspan x="340.68301" y="-884.30206"/></text><text opacity=".8" x="-1150.7802" y="-891.51196"><tspan x="-1150.7802" y="-891.51196"/></text><text opacity=".8" x="309.7626" y="-1164.7461"><tspan x="309.7626" y="-1164.7461"/></text><text opacity=".8" x="1795.8861" y="-538.05475"><tspan x="1795.8861" y="-538.05475"/></text><text opacity=".8" x="1819.8469" y="-578.79651"><tspan x="1819.8469" y="-578.79651"/></text><text opacity=".8" x="328.38376" y="-586.00641"><tspan x="328.38376" y="-586.00641"/></text><text opacity=".8" x="1788.9266" y="-859.24036"><tspan x="1788.9266" y="-859.24036"/></text><text opacity=".8" x="-609.43256" y="-634.09772"><tspan x="-609.43256" y="-634.09772"/></text><text opacity=".8" x="-2433.1182" y="111.45585"><tspan x="-2433.1182" y="111.45585"/></text><text opacity=".8" x="-718.36279" y="204.32799"><tspan x="-718.36279" y="204.32799"/></text><text opacity=".8" x="390.66153" y="25.14584"><tspan x="390.66153" y="25.14584"/></text><text opacity=".8" x="414.62247" y="-15.595865"><tspan x="414.62247" y="-15.595865"/></text><text opacity=".8" x="-1076.8407" y="-22.805836"><tspan x="-1076.8407" y="-22.805836"/></text><text opacity=".8" x="383.70206" y="-296.03989"><tspan x="383.70206" y="-296.03989"/></text><text opacity=".8" x="-644.03253" y="-25.520081"><tspan x="-644.03253" y="-25.520081"/></text><text opacity=".8" x="-2467.7185" y="720.03345"><tspan x="-2467.7185" y="720.03345"/></text><text opacity=".8" x="-492.93948" y="-887.0506"><tspan x="-492.93948" y="-887.0506"/></text><text opacity=".8" x="314.66266" y="-1300.5208"><tspan x="314.66266" y="-1300.5208"/></text><text opacity=".8" x="338.62357" y="-1341.2626"><tspan x="338.62357" y="-1341.2626"/></text><text opacity=".8" x="-1152.8396" y="-1348.4724"><tspan x="-1152.8396" y="-1348.4724"/></text><text opacity=".8" x="307.70316" y="-1621.7065"><tspan x="307.70316" y="-1621.7065"/></text><text opacity=".8" x="1793.8265" y="-995.01532"><tspan x="1793.8265" y="-995.01532"/></text><text opacity=".8" x="1817.7874" y="-1035.757"><tspan x="1817.7874" y="-1035.757"/></text><text opacity=".8" x="326.32431" y="-1042.9668"><tspan x="326.32431" y="-1042.9668"/></text><text opacity=".8" x="1786.8671" y="-1316.2009"><tspan x="1786.8671" y="-1316.2009"/></text><text opacity=".8" x="-611.492" y="-1091.0581"><tspan x="-611.492" y="-1091.0581"/></text><text opacity=".8" x="-2435.1777" y="-345.50461"><tspan x="-2435.1777" y="-345.50461"/></text><text opacity=".8" x="-720.42224" y="-252.63245"><tspan x="-720.42224" y="-252.63245"/></text><text opacity=".8" x="119.5923" y="-11.71829"><tspan x="119.5923" y="-11.71829"/></text><text opacity=".8" x="143.55324" y="-52.460011"><tspan x="143.55324" y="-52.460011"/></text><text opacity=".8" x="-1126.2634" y="-246.4886"><tspan x="-1126.2634" y="-246.4886"/></text><text opacity=".8" x="-318.66141" y="-659.9588"><tspan x="-318.66141" y="-659.9588"/></text><text opacity=".8" x="-294.70047" y="-700.7005"><tspan x="-294.70047" y="-700.7005"/></text><text opacity=".8" x="-1786.1636" y="-707.91046"><tspan x="-1786.1636" y="-707.91046"/></text><text opacity=".8" x="-325.62085" y="-981.14447"><tspan x="-325.62085" y="-981.14447"/></text><text opacity=".8" x="1160.5026" y="-354.45316"><tspan x="1160.5026" y="-354.45316"/></text><text opacity=".8" x="1184.4634" y="-395.19489"><tspan x="1184.4634" y="-395.19489"/></text><text opacity=".8" x="-306.99973" y="-402.40482"><tspan x="-306.99973" y="-402.40482"/></text><text opacity=".8" x="1153.5431" y="-675.63892"><tspan x="1153.5431" y="-675.63892"/></text><text opacity=".8" x="-1244.816" y="-450.49609"><tspan x="-1244.816" y="-450.49609"/></text><text opacity=".8" x="-3068.5017" y="295.05743"><tspan x="-3068.5017" y="295.05743"/></text><text opacity=".8" transform="matrix(.90475 0 0 .90475 -752.75 -661.05)" x="-664.2738" y="1159.4154"><tspan x="-664.2738" y="1159.4154"/></text><text x="399.90427" y="-353.22546"><tspan x="399.90427" y="-353.22546"/><tspan x="399.90427" y="-337.3924"/></text><text opacity=".8" x="865.0882" y="-835.27002"><tspan x="865.0882" y="-835.27002"/></text><text opacity=".8" x="-958.59778" y="-89.716553"><tspan x="-958.59778" y="-89.716553"/></text><text opacity=".8" x="1592.1677" y="-1120.2659"><tspan x="1592.1677" y="-1120.2659"/></text><text opacity=".8" x="1616.1285" y="-1161.0076"><tspan x="1616.1285" y="-1161.0076"/></text><text opacity=".8" x="124.66542" y="-1168.2175"><tspan x="124.66542" y="-1168.2175"/></text><text opacity=".8" x="1585.2083" y="-1441.4517"><tspan x="1585.2083" y="-1441.4517"/></text></svg>