/* XPM */
static char * veracrypt_xpm[] = {
"22 22 70 1",
" 	c None",
".	c #616161",
"+	c #606060",
"@	c #626262",
"#	c #4E4E4E",
"$	c #4D4D4D",
"%	c #0B8DB3",
"&	c #0198C4",
"*	c #2E6879",
"=	c #495350",
"-	c #07B486",
";	c #06B788",
">	c #169B78",
",	c #1C748E",
"'	c #197A97",
")	c #346D5E",
"!	c #366256",
"~	c #315F6D",
"{	c #0791B9",
"]	c #4D4E4E",
"^	c #208A6E",
"/	c #149976",
"(	c #4C4C4C",
"_	c #484F50",
":	c #0396C1",
"<	c #3E5961",
"[	c #0EA87F",
"}	c #2B6E5C",
"|	c #454545",
"1	c #484848",
"2	c #1182A4",
"3	c #286D80",
"4	c #415D55",
"5	c #415751",
"6	c #246C81",
"7	c #147F9F",
"8	c #2C7964",
"9	c #0DA87F",
"0	c #3A5860",
"a	c #0495BF",
"b	c #179775",
"c	c #1D8B6E",
"d	c #4C4D4D",
"e	c #078FB7",
"f	c #0399C4",
"g	c #19B698",
"h	c #1E8C6F",
"i	c #187894",
"j	c #13A0C4",
"k	c #2DB8A8",
"l	c #2C6373",
"m	c #26A9C3",
"n	c #40BAB7",
"o	c #435953",
"p	c #445154",
"q	c #0197C2",
"r	c #38B1C2",
"s	c #4DBAC2",
"t	c #0CB88D",
"u	c #0F88AB",
"v	c #4AB9C2",
"w	c #1FB89C",
"x	c #3B675B",
"y	c #2C8296",
"z	c #2CB2A7",
"A	c #159A77",
"B	c #494949",
"C	c #464646",
"D	c #3F3F3F",
"E	c #424242",
"                      ",
" .++++++++++++++++++@ ",
" #$$$$$$$$$$$$$$$$$$# ",
" $$$$$$$$$$$$$$$$$$$$ ",
" $$$$$$$$$$$$$$$$$$$$ ",
" $$$%&&*$$=-;;;;;>$$$ ",
" $$$,&&'$$);;;;;;!$$$ ",
" $$$~&&{]$^;;;;;/($$$ ",
" $$$_:&&<$[;;}||1$$$$ ",
" $$$$2&&34;;;5$$$$$$$ ",
" $$$$6&&78;;9($$$$$$$ ",
" $$$$0&&ab;;c$$$$$$$$ ",
" $$$$de&fg;;h$$$$$$$$ ",
" $$$$$i&jk;;9$$$$$$$$ ",
" $$$$$l&mn;;;o$$$$$$$ ",
" $$$$$pqrst;;;;;>$$$$ ",
" $$$$$$uvsw;;;;;;x$$$ ",
" $$$$$$yssz;;;;;;A$$$ ",
" $$$$$$B|||||||||C$$$ ",
" ($$$$$$$$$$$$$$$$$$( ",
" DEEEEEEEEEEEEEEEEEED ",
"                      "};
