<?xml version="1.0" encoding="UTF-8" standalone="no"?>
<svg id="svg2817" xmlns:rdf="http://www.w3.org/1999/02/22-rdf-syntax-ns#" xmlns="http://www.w3.org/2000/svg" height="22" width="22" version="1.0" xmlns:cc="http://creativecommons.org/ns#" xmlns:dc="http://purl.org/dc/elements/1.1/">
 <metadata id="metadata57">
  <rdf:RDF>
   <cc:Work rdf:about="">
    <dc:format>image/svg+xml</dc:format>
    <dc:type rdf:resource="http://purl.org/dc/dcmitype/StillImage"/>
    <dc:title/>
   </cc:Work>
  </rdf:RDF>
 </metadata>
 <text id="text4087-2-6-5" opacity=".8" xml:space="preserve" font-size="12.666px" y="8.8126011" x="877.22626" font-family="&apos;Bitstream Vera Sans&apos;" fill="#000000"><tspan id="tspan4089-7-2-9" y="8.8126011" x="877.22626"/></text>
 <text id="text4087-2-6-5-5" opacity=".8" xml:space="preserve" font-size="12.666px" y="-31.929106" x="901.18719" font-family="&apos;Bitstream Vera Sans&apos;" fill="#000000"><tspan id="tspan4089-7-2-9-6" y="-31.929106" x="901.18719"/></text>
 <text id="text4087-2-6-5-2" opacity=".8" xml:space="preserve" font-size="12.666px" y="-62.007248" x="-569.37115" font-family="&apos;Bitstream Vera Sans&apos;" fill="#000000"><tspan id="tspan4089-7-2-9-2" y="-62.007248" x="-569.37115"/></text>
 <text id="text4087-2-6-5-59" opacity=".8" xml:space="preserve" font-size="12.666px" y="683.5462" x="-2393.0571" font-family="&apos;Bitstream Vera Sans&apos;" fill="#000000"><tspan id="tspan4089-7-2-9-4" y="683.5462" x="-2393.0571"/></text>
 <text id="text4087-2-6-5-1" opacity=".8" xml:space="preserve" font-size="12.666px" y="-447.32822" x="-454.88007" font-family="&apos;Bitstream Vera Sans&apos;" fill="#000000"><tspan id="tspan4089-7-2-9-7" y="-447.32822" x="-454.88007"/></text>
 <text id="text4087-2-6-5-7" opacity=".8" xml:space="preserve" font-size="12.666px" y="-860.79834" x="352.72208" font-family="&apos;Bitstream Vera Sans&apos;" fill="#000000"><tspan id="tspan4089-7-2-9-1" y="-860.79834" x="352.72208"/></text>
 <text id="text4087-2-6-5-5-3" opacity=".8" xml:space="preserve" font-size="12.666px" y="-901.54004" x="376.68301" font-family="&apos;Bitstream Vera Sans&apos;" fill="#000000"><tspan id="tspan4089-7-2-9-6-5" y="-901.54004" x="376.68301"/></text>
 <text id="text4087-2-6-5-3" opacity=".8" xml:space="preserve" font-size="12.666px" y="-908.74994" x="-1114.7802" font-family="&apos;Bitstream Vera Sans&apos;" fill="#000000"><tspan id="tspan4089-7-2-9-18" y="-908.74994" x="-1114.7802"/></text>
 <text id="text4087-2-6-5-4" opacity=".8" xml:space="preserve" font-size="12.666px" y="-1181.9841" x="345.7626" font-family="&apos;Bitstream Vera Sans&apos;" fill="#000000"><tspan id="tspan4089-7-2-9-9" y="-1181.9841" x="345.7626"/></text>
 <text id="text4087-2-6-5-7-1" opacity=".8" xml:space="preserve" font-size="12.666px" y="-555.29272" x="1831.8861" font-family="&apos;Bitstream Vera Sans&apos;" fill="#000000"><tspan id="tspan4089-7-2-9-1-8" y="-555.29272" x="1831.8861"/></text>
 <text id="text4087-2-6-5-5-5" opacity=".8" xml:space="preserve" font-size="12.666px" y="-596.03448" x="1855.8469" font-family="&apos;Bitstream Vera Sans&apos;" fill="#000000"><tspan id="tspan4089-7-2-9-6-9" y="-596.03448" x="1855.8469"/></text>
 <text id="text4087-2-6-5-75" opacity=".8" xml:space="preserve" font-size="12.666px" y="-603.24438" x="364.38376" font-family="&apos;Bitstream Vera Sans&apos;" fill="#000000"><tspan id="tspan4089-7-2-9-3" y="-603.24438" x="364.38376"/></text>
 <text id="text4087-2-6-5-4-8" opacity=".8" xml:space="preserve" font-size="12.666px" y="-876.47839" x="1824.9266" font-family="&apos;Bitstream Vera Sans&apos;" fill="#000000"><tspan id="tspan4089-7-2-9-9-8" y="-876.47839" x="1824.9266"/></text>
 <text id="text4087-2-6-5-45" opacity=".8" xml:space="preserve" font-size="12.666px" y="-651.33569" x="-573.43256" font-family="&apos;Bitstream Vera Sans&apos;" fill="#000000"><tspan id="tspan4089-7-2-9-75" y="-651.33569" x="-573.43256"/></text>
 <text id="text4087-2-6-5-59-7" opacity=".8" xml:space="preserve" font-size="12.666px" y="94.217857" x="-2397.1182" font-family="&apos;Bitstream Vera Sans&apos;" fill="#000000"><tspan id="tspan4089-7-2-9-4-0" y="94.217857" x="-2397.1182"/></text>
 <text id="text4087-2-6-5-8" opacity=".8" xml:space="preserve" font-size="12.666px" y="187.09" x="-682.36279" font-family="&apos;Bitstream Vera Sans&apos;" fill="#000000"><tspan id="tspan4089-7-2-9-19" y="187.09" x="-682.36279"/></text>
 <text id="text4087-2-6-5-7-5" opacity=".8" xml:space="preserve" font-size="12.666px" y="7.9078522" x="426.66153" font-family="&apos;Bitstream Vera Sans&apos;" fill="#000000"><tspan id="tspan4089-7-2-9-1-2" y="7.9078522" x="426.66153"/></text>
 <text id="text4087-2-6-5-5-0" opacity=".8" xml:space="preserve" font-size="12.666px" y="-32.833855" x="450.62247" font-family="&apos;Bitstream Vera Sans&apos;" fill="#000000"><tspan id="tspan4089-7-2-9-6-2" y="-32.833855" x="450.62247"/></text>
 <text id="text4087-2-6-5-26" opacity=".8" xml:space="preserve" font-size="12.666px" y="-40.043827" x="-1040.8407" font-family="&apos;Bitstream Vera Sans&apos;" fill="#000000"><tspan id="tspan4089-7-2-9-90" y="-40.043827" x="-1040.8407"/></text>
 <text id="text4087-2-6-5-4-3" opacity=".8" xml:space="preserve" font-size="12.666px" y="-313.27789" x="419.70206" font-family="&apos;Bitstream Vera Sans&apos;" fill="#000000"><tspan id="tspan4089-7-2-9-9-5" y="-313.27789" x="419.70206"/></text>
 <text id="text4087-2-6-5-55" opacity=".8" xml:space="preserve" font-size="12.666px" y="-42.758072" x="-608.03253" font-family="&apos;Bitstream Vera Sans&apos;" fill="#000000"><tspan id="tspan4089-7-2-9-32" y="-42.758072" x="-608.03253"/></text>
 <text id="text4087-2-6-5-59-9" opacity=".8" xml:space="preserve" font-size="12.666px" y="702.79541" x="-2431.7185" font-family="&apos;Bitstream Vera Sans&apos;" fill="#000000"><tspan id="tspan4089-7-2-9-4-1" y="702.79541" x="-2431.7185"/></text>
 <text id="text4087-2-6-5-1-8" opacity=".8" xml:space="preserve" font-size="12.666px" y="-904.28857" x="-456.93948" font-family="&apos;Bitstream Vera Sans&apos;" fill="#000000"><tspan id="tspan4089-7-2-9-7-8" y="-904.28857" x="-456.93948"/></text>
 <text id="text4087-2-6-5-7-8" opacity=".8" xml:space="preserve" font-size="12.666px" y="-1317.7588" x="350.66266" font-family="&apos;Bitstream Vera Sans&apos;" fill="#000000"><tspan id="tspan4089-7-2-9-1-9" y="-1317.7588" x="350.66266"/></text>
 <text id="text4087-2-6-5-5-52" opacity=".8" xml:space="preserve" font-size="12.666px" y="-1358.5005" x="374.62357" font-family="&apos;Bitstream Vera Sans&apos;" fill="#000000"><tspan id="tspan4089-7-2-9-6-4" y="-1358.5005" x="374.62357"/></text>
 <text id="text4087-2-6-5-3-4" opacity=".8" xml:space="preserve" font-size="12.666px" y="-1365.7104" x="-1116.8396" font-family="&apos;Bitstream Vera Sans&apos;" fill="#000000"><tspan id="tspan4089-7-2-9-18-3" y="-1365.7104" x="-1116.8396"/></text>
 <text id="text4087-2-6-5-4-7" opacity=".8" xml:space="preserve" font-size="12.666px" y="-1638.9446" x="343.70316" font-family="&apos;Bitstream Vera Sans&apos;" fill="#000000"><tspan id="tspan4089-7-2-9-9-54" y="-1638.9446" x="343.70316"/></text>
 <text id="text4087-2-6-5-7-1-2" opacity=".8" xml:space="preserve" font-size="12.666px" y="-1012.2533" x="1829.8265" font-family="&apos;Bitstream Vera Sans&apos;" fill="#000000"><tspan id="tspan4089-7-2-9-1-8-0" y="-1012.2533" x="1829.8265"/></text>
 <text id="text4087-2-6-5-5-5-6" opacity=".8" xml:space="preserve" font-size="12.666px" y="-1052.9949" x="1853.7874" font-family="&apos;Bitstream Vera Sans&apos;" fill="#000000"><tspan id="tspan4089-7-2-9-6-9-8" y="-1052.9949" x="1853.7874"/></text>
 <text id="text4087-2-6-5-75-4" opacity=".8" xml:space="preserve" font-size="12.666px" y="-1060.2048" x="362.32431" font-family="&apos;Bitstream Vera Sans&apos;" fill="#000000"><tspan id="tspan4089-7-2-9-3-9" y="-1060.2048" x="362.32431"/></text>
 <text id="text4087-2-6-5-4-8-1" opacity=".8" xml:space="preserve" font-size="12.666px" y="-1333.439" x="1822.8671" font-family="&apos;Bitstream Vera Sans&apos;" fill="#000000"><tspan id="tspan4089-7-2-9-9-8-8" y="-1333.439" x="1822.8671"/></text>
 <text id="text4087-2-6-5-45-0" opacity=".8" xml:space="preserve" font-size="12.666px" y="-1108.2961" x="-575.492" font-family="&apos;Bitstream Vera Sans&apos;" fill="#000000"><tspan id="tspan4089-7-2-9-75-2" y="-1108.2961" x="-575.492"/></text>
 <text id="text4087-2-6-5-59-5" opacity=".8" xml:space="preserve" font-size="12.666px" y="-362.74261" x="-2399.1777" font-family="&apos;Bitstream Vera Sans&apos;" fill="#000000"><tspan id="tspan4089-7-2-9-4-00" y="-362.74261" x="-2399.1777"/></text>
 <text id="text4087-2-6-5-264" opacity=".8" xml:space="preserve" font-size="12.666px" y="-269.87045" x="-684.42224" font-family="&apos;Bitstream Vera Sans&apos;" fill="#000000"><tspan id="tspan4089-7-2-9-8" y="-269.87045" x="-684.42224"/></text>
 <text id="text4087-2-6-5-42" opacity=".8" xml:space="preserve" font-size="12.666px" y="-28.956278" x="155.5923" font-family="&apos;Bitstream Vera Sans&apos;" fill="#000000"><tspan id="tspan4089-7-2-9-93" y="-28.956278" x="155.5923"/></text>
 <text id="text4087-2-6-5-5-05" opacity=".8" xml:space="preserve" font-size="12.666px" y="-69.697998" x="179.55324" font-family="&apos;Bitstream Vera Sans&apos;" fill="#000000"><tspan id="tspan4089-7-2-9-6-49" y="-69.697998" x="179.55324"/></text>
 <text id="text4087-2-6-5-1-4" opacity=".8" xml:space="preserve" font-size="12.666px" y="-263.72662" x="-1090.2634" font-family="&apos;Bitstream Vera Sans&apos;" fill="#000000"><tspan id="tspan4089-7-2-9-7-7" y="-263.72662" x="-1090.2634"/></text>
 <text id="text4087-2-6-5-7-56" opacity=".8" xml:space="preserve" font-size="12.666px" y="-677.19678" x="-282.66141" font-family="&apos;Bitstream Vera Sans&apos;" fill="#000000"><tspan id="tspan4089-7-2-9-1-1" y="-677.19678" x="-282.66141"/></text>
 <text id="text4087-2-6-5-5-8" opacity=".8" xml:space="preserve" font-size="12.666px" y="-717.93848" x="-258.70047" font-family="&apos;Bitstream Vera Sans&apos;" fill="#000000"><tspan id="tspan4089-7-2-9-6-7" y="-717.93848" x="-258.70047"/></text>
 <text id="text4087-2-6-5-3-42" opacity=".8" xml:space="preserve" font-size="12.666px" y="-725.14838" x="-1750.1636" font-family="&apos;Bitstream Vera Sans&apos;" fill="#000000"><tspan id="tspan4089-7-2-9-18-39" y="-725.14838" x="-1750.1636"/></text>
 <text id="text4087-2-6-5-4-4" opacity=".8" xml:space="preserve" font-size="12.666px" y="-998.38251" x="-289.62085" font-family="&apos;Bitstream Vera Sans&apos;" fill="#000000"><tspan id="tspan4089-7-2-9-9-3" y="-998.38251" x="-289.62085"/></text>
 <text id="text4087-2-6-5-7-1-0" opacity=".8" xml:space="preserve" font-size="12.666px" y="-371.69113" x="1196.5026" font-family="&apos;Bitstream Vera Sans&apos;" fill="#000000"><tspan id="tspan4089-7-2-9-1-8-5" y="-371.69113" x="1196.5026"/></text>
 <text id="text4087-2-6-5-5-5-5" opacity=".8" xml:space="preserve" font-size="12.666px" y="-412.43286" x="1220.4634" font-family="&apos;Bitstream Vera Sans&apos;" fill="#000000"><tspan id="tspan4089-7-2-9-6-9-2" y="-412.43286" x="1220.4634"/></text>
 <text id="text4087-2-6-5-75-9" opacity=".8" xml:space="preserve" font-size="12.666px" y="-419.64282" x="-270.99973" font-family="&apos;Bitstream Vera Sans&apos;" fill="#000000"><tspan id="tspan4089-7-2-9-3-1" y="-419.64282" x="-270.99973"/></text>
 <text id="text4087-2-6-5-4-8-18" opacity=".8" xml:space="preserve" font-size="12.666px" y="-692.87689" x="1189.5431" font-family="&apos;Bitstream Vera Sans&apos;" fill="#000000"><tspan id="tspan4089-7-2-9-9-8-4" y="-692.87689" x="1189.5431"/></text>
 <text id="text4087-2-6-5-45-3" opacity=".8" xml:space="preserve" font-size="12.666px" y="-467.7341" x="-1208.816" font-family="&apos;Bitstream Vera Sans&apos;" fill="#000000"><tspan id="tspan4089-7-2-9-75-7" y="-467.7341" x="-1208.816"/></text>
 <text id="text4087-2-6-5-59-8" opacity=".8" xml:space="preserve" font-size="12.666px" y="277.81946" x="-3032.5017" font-family="&apos;Bitstream Vera Sans&apos;" fill="#000000"><tspan id="tspan4089-7-2-9-4-2" y="277.81946" x="-3032.5017"/></text>
 <g id="layer4-0" transform="matrix(.90475 0 0 .90475 -716.75 -678.29)">
  <text id="text4087-2-6-5-20" opacity=".8" xml:space="preserve" font-size="14px" y="1159.4154" x="-664.2738" font-family="&apos;Bitstream Vera Sans&apos;" fill="#000000"><tspan id="tspan4089-7-2-9-82" y="1159.4154" x="-664.2738"/></text>
 </g>
 <text id="text4087-2-6-5-9" opacity=".8" xml:space="preserve" font-size="12.666px" y="16.050589" x="877.22626" font-family="&apos;Bitstream Vera Sans&apos;" fill="#000000"><tspan id="tspan4089-7-2-9-43" y="16.050589" x="877.22626"/></text>
 <text id="text4087-2-6-5-5-51" opacity=".8" xml:space="preserve" font-size="12.666px" y="-24.691116" x="901.18719" font-family="&apos;Bitstream Vera Sans&apos;" fill="#000000"><tspan id="tspan4089-7-2-9-6-74" y="-24.691116" x="901.18719"/></text>
 <text id="text4087-2-6-5-2-3" opacity=".8" xml:space="preserve" font-size="12.666px" y="-54.76926" x="-569.37115" font-family="&apos;Bitstream Vera Sans&apos;" fill="#000000"><tspan id="tspan4089-7-2-9-2-1" y="-54.76926" x="-569.37115"/></text>
 <text id="text4087-2-6-5-59-4" opacity=".8" xml:space="preserve" font-size="12.666px" y="690.78418" x="-2393.0571" font-family="&apos;Bitstream Vera Sans&apos;" fill="#000000"><tspan id="tspan4089-7-2-9-4-6" y="690.78418" x="-2393.0571"/></text>
 <text id="text4087-2-6-5-1-9" opacity=".8" xml:space="preserve" font-size="12.666px" y="-440.09021" x="-454.88007" font-family="&apos;Bitstream Vera Sans&apos;" fill="#000000"><tspan id="tspan4089-7-2-9-7-4" y="-440.09021" x="-454.88007"/></text>
 <text id="text4087-2-6-5-7-2" opacity=".8" xml:space="preserve" font-size="12.666px" y="-853.5603" x="352.72208" font-family="&apos;Bitstream Vera Sans&apos;" fill="#000000"><tspan id="tspan4089-7-2-9-1-26" y="-853.5603" x="352.72208"/></text>
 <text id="text4087-2-6-5-5-3-4" opacity=".8" xml:space="preserve" font-size="12.666px" y="-894.30206" x="376.68301" font-family="&apos;Bitstream Vera Sans&apos;" fill="#000000"><tspan id="tspan4089-7-2-9-6-5-1" y="-894.30206" x="376.68301"/></text>
 <text id="text4087-2-6-5-3-2" opacity=".8" xml:space="preserve" font-size="12.666px" y="-901.51196" x="-1114.7802" font-family="&apos;Bitstream Vera Sans&apos;" fill="#000000"><tspan id="tspan4089-7-2-9-18-8" y="-901.51196" x="-1114.7802"/></text>
 <text id="text4087-2-6-5-4-89" opacity=".8" xml:space="preserve" font-size="12.666px" y="-1174.7461" x="345.7626" font-family="&apos;Bitstream Vera Sans&apos;" fill="#000000"><tspan id="tspan4089-7-2-9-9-2" y="-1174.7461" x="345.7626"/></text>
 <text id="text4087-2-6-5-7-1-8" opacity=".8" xml:space="preserve" font-size="12.666px" y="-548.05475" x="1831.8861" font-family="&apos;Bitstream Vera Sans&apos;" fill="#000000"><tspan id="tspan4089-7-2-9-1-8-8" y="-548.05475" x="1831.8861"/></text>
 <text id="text4087-2-6-5-5-5-8" opacity=".8" xml:space="preserve" font-size="12.666px" y="-588.79651" x="1855.8469" font-family="&apos;Bitstream Vera Sans&apos;" fill="#000000"><tspan id="tspan4089-7-2-9-6-9-6" y="-588.79651" x="1855.8469"/></text>
 <text id="text4087-2-6-5-75-8" opacity=".8" xml:space="preserve" font-size="12.666px" y="-596.00641" x="364.38376" font-family="&apos;Bitstream Vera Sans&apos;" fill="#000000"><tspan id="tspan4089-7-2-9-3-3" y="-596.00641" x="364.38376"/></text>
 <text id="text4087-2-6-5-4-8-8" opacity=".8" xml:space="preserve" font-size="12.666px" y="-869.24036" x="1824.9266" font-family="&apos;Bitstream Vera Sans&apos;" fill="#000000"><tspan id="tspan4089-7-2-9-9-8-3" y="-869.24036" x="1824.9266"/></text>
 <text id="text4087-2-6-5-45-33" opacity=".8" xml:space="preserve" font-size="12.666px" y="-644.09772" x="-573.43256" font-family="&apos;Bitstream Vera Sans&apos;" fill="#000000"><tspan id="tspan4089-7-2-9-75-8" y="-644.09772" x="-573.43256"/></text>
 <text id="text4087-2-6-5-59-7-0" opacity=".8" xml:space="preserve" font-size="12.666px" y="101.45585" x="-2397.1182" font-family="&apos;Bitstream Vera Sans&apos;" fill="#000000"><tspan id="tspan4089-7-2-9-4-0-4" y="101.45585" x="-2397.1182"/></text>
 <text id="text4087-2-6-5-8-7" opacity=".8" xml:space="preserve" font-size="12.666px" y="194.32799" x="-682.36279" font-family="&apos;Bitstream Vera Sans&apos;" fill="#000000"><tspan id="tspan4089-7-2-9-19-6" y="194.32799" x="-682.36279"/></text>
 <text id="text4087-2-6-5-7-5-8" opacity=".8" xml:space="preserve" font-size="12.666px" y="15.14584" x="426.66153" font-family="&apos;Bitstream Vera Sans&apos;" fill="#000000"><tspan id="tspan4089-7-2-9-1-2-9" y="15.14584" x="426.66153"/></text>
 <text id="text4087-2-6-5-5-0-0" opacity=".8" xml:space="preserve" font-size="12.666px" y="-25.595865" x="450.62247" font-family="&apos;Bitstream Vera Sans&apos;" fill="#000000"><tspan id="tspan4089-7-2-9-6-2-6" y="-25.595865" x="450.62247"/></text>
 <text id="text4087-2-6-5-26-8" opacity=".8" xml:space="preserve" font-size="12.666px" y="-32.805836" x="-1040.8407" font-family="&apos;Bitstream Vera Sans&apos;" fill="#000000"><tspan id="tspan4089-7-2-9-90-7" y="-32.805836" x="-1040.8407"/></text>
 <text id="text4087-2-6-5-4-3-9" opacity=".8" xml:space="preserve" font-size="12.666px" y="-306.03989" x="419.70206" font-family="&apos;Bitstream Vera Sans&apos;" fill="#000000"><tspan id="tspan4089-7-2-9-9-5-0" y="-306.03989" x="419.70206"/></text>
 <text id="text4087-2-6-5-55-3" opacity=".8" xml:space="preserve" font-size="12.666px" y="-35.520081" x="-608.03253" font-family="&apos;Bitstream Vera Sans&apos;" fill="#000000"><tspan id="tspan4089-7-2-9-32-3" y="-35.520081" x="-608.03253"/></text>
 <text id="text4087-2-6-5-59-9-3" opacity=".8" xml:space="preserve" font-size="12.666px" y="710.03345" x="-2431.7185" font-family="&apos;Bitstream Vera Sans&apos;" fill="#000000"><tspan id="tspan4089-7-2-9-4-1-7" y="710.03345" x="-2431.7185"/></text>
 <text id="text4087-2-6-5-1-8-3" opacity=".8" xml:space="preserve" font-size="12.666px" y="-897.0506" x="-456.93948" font-family="&apos;Bitstream Vera Sans&apos;" fill="#000000"><tspan id="tspan4089-7-2-9-7-8-2" y="-897.0506" x="-456.93948"/></text>
 <text id="text4087-2-6-5-7-8-6" opacity=".8" xml:space="preserve" font-size="12.666px" y="-1310.5208" x="350.66266" font-family="&apos;Bitstream Vera Sans&apos;" fill="#000000"><tspan id="tspan4089-7-2-9-1-9-5" y="-1310.5208" x="350.66266"/></text>
 <text id="text4087-2-6-5-5-52-2" opacity=".8" xml:space="preserve" font-size="12.666px" y="-1351.2626" x="374.62357" font-family="&apos;Bitstream Vera Sans&apos;" fill="#000000"><tspan id="tspan4089-7-2-9-6-4-6" y="-1351.2626" x="374.62357"/></text>
 <text id="text4087-2-6-5-3-4-5" opacity=".8" xml:space="preserve" font-size="12.666px" y="-1358.4724" x="-1116.8396" font-family="&apos;Bitstream Vera Sans&apos;" fill="#000000"><tspan id="tspan4089-7-2-9-18-3-8" y="-1358.4724" x="-1116.8396"/></text>
 <text id="text4087-2-6-5-4-7-7" opacity=".8" xml:space="preserve" font-size="12.666px" y="-1631.7065" x="343.70316" font-family="&apos;Bitstream Vera Sans&apos;" fill="#000000"><tspan id="tspan4089-7-2-9-9-54-9" y="-1631.7065" x="343.70316"/></text>
 <text id="text4087-2-6-5-7-1-2-6" opacity=".8" xml:space="preserve" font-size="12.666px" y="-1005.0153" x="1829.8265" font-family="&apos;Bitstream Vera Sans&apos;" fill="#000000"><tspan id="tspan4089-7-2-9-1-8-0-0" y="-1005.0153" x="1829.8265"/></text>
 <text id="text4087-2-6-5-5-5-6-4" opacity=".8" xml:space="preserve" font-size="12.666px" y="-1045.757" x="1853.7874" font-family="&apos;Bitstream Vera Sans&apos;" fill="#000000"><tspan id="tspan4089-7-2-9-6-9-8-1" y="-1045.757" x="1853.7874"/></text>
 <text id="text4087-2-6-5-75-4-0" opacity=".8" xml:space="preserve" font-size="12.666px" y="-1052.9668" x="362.32431" font-family="&apos;Bitstream Vera Sans&apos;" fill="#000000"><tspan id="tspan4089-7-2-9-3-9-4" y="-1052.9668" x="362.32431"/></text>
 <text id="text4087-2-6-5-4-8-1-8" opacity=".8" xml:space="preserve" font-size="12.666px" y="-1326.2009" x="1822.8671" font-family="&apos;Bitstream Vera Sans&apos;" fill="#000000"><tspan id="tspan4089-7-2-9-9-8-8-7" y="-1326.2009" x="1822.8671"/></text>
 <text id="text4087-2-6-5-45-0-0" opacity=".8" xml:space="preserve" font-size="12.666px" y="-1101.0581" x="-575.492" font-family="&apos;Bitstream Vera Sans&apos;" fill="#000000"><tspan id="tspan4089-7-2-9-75-2-8" y="-1101.0581" x="-575.492"/></text>
 <text id="text4087-2-6-5-59-5-6" opacity=".8" xml:space="preserve" font-size="12.666px" y="-355.50461" x="-2399.1777" font-family="&apos;Bitstream Vera Sans&apos;" fill="#000000"><tspan id="tspan4089-7-2-9-4-00-2" y="-355.50461" x="-2399.1777"/></text>
 <text id="text4087-2-6-5-264-4" opacity=".8" xml:space="preserve" font-size="12.666px" y="-262.63245" x="-684.42224" font-family="&apos;Bitstream Vera Sans&apos;" fill="#000000"><tspan id="tspan4089-7-2-9-8-7" y="-262.63245" x="-684.42224"/></text>
 <text id="text4087-2-6-5-42-9" opacity=".8" xml:space="preserve" font-size="12.666px" y="-21.71829" x="155.5923" font-family="&apos;Bitstream Vera Sans&apos;" fill="#000000"><tspan id="tspan4089-7-2-9-93-3" y="-21.71829" x="155.5923"/></text>
 <text id="text4087-2-6-5-5-05-9" opacity=".8" xml:space="preserve" font-size="12.666px" y="-62.460011" x="179.55324" font-family="&apos;Bitstream Vera Sans&apos;" fill="#000000"><tspan id="tspan4089-7-2-9-6-49-2" y="-62.460011" x="179.55324"/></text>
 <text id="text4087-2-6-5-1-4-8" opacity=".8" xml:space="preserve" font-size="12.666px" y="-256.48859" x="-1090.2634" font-family="&apos;Bitstream Vera Sans&apos;" fill="#000000"><tspan id="tspan4089-7-2-9-7-7-3" y="-256.48859" x="-1090.2634"/></text>
 <text id="text4087-2-6-5-7-56-0" opacity=".8" xml:space="preserve" font-size="12.666px" y="-669.9588" x="-282.66141" font-family="&apos;Bitstream Vera Sans&apos;" fill="#000000"><tspan id="tspan4089-7-2-9-1-1-1" y="-669.9588" x="-282.66141"/></text>
 <text id="text4087-2-6-5-5-8-7" opacity=".8" xml:space="preserve" font-size="12.666px" y="-710.7005" x="-258.70047" font-family="&apos;Bitstream Vera Sans&apos;" fill="#000000"><tspan id="tspan4089-7-2-9-6-7-8" y="-710.7005" x="-258.70047"/></text>
 <text id="text4087-2-6-5-3-42-9" opacity=".8" xml:space="preserve" font-size="12.666px" y="-717.91046" x="-1750.1636" font-family="&apos;Bitstream Vera Sans&apos;" fill="#000000"><tspan id="tspan4089-7-2-9-18-39-1" y="-717.91046" x="-1750.1636"/></text>
 <text id="text4087-2-6-5-4-4-5" opacity=".8" xml:space="preserve" font-size="12.666px" y="-991.14447" x="-289.62085" font-family="&apos;Bitstream Vera Sans&apos;" fill="#000000"><tspan id="tspan4089-7-2-9-9-3-4" y="-991.14447" x="-289.62085"/></text>
 <text id="text4087-2-6-5-7-1-0-9" opacity=".8" xml:space="preserve" font-size="12.666px" y="-364.45316" x="1196.5026" font-family="&apos;Bitstream Vera Sans&apos;" fill="#000000"><tspan id="tspan4089-7-2-9-1-8-5-2" y="-364.45316" x="1196.5026"/></text>
 <text id="text4087-2-6-5-5-5-5-5" opacity=".8" xml:space="preserve" font-size="12.666px" y="-405.19489" x="1220.4634" font-family="&apos;Bitstream Vera Sans&apos;" fill="#000000"><tspan id="tspan4089-7-2-9-6-9-2-7" y="-405.19489" x="1220.4634"/></text>
 <text id="text4087-2-6-5-75-9-4" opacity=".8" xml:space="preserve" font-size="12.666px" y="-412.40482" x="-270.99973" font-family="&apos;Bitstream Vera Sans&apos;" fill="#000000"><tspan id="tspan4089-7-2-9-3-1-9" y="-412.40482" x="-270.99973"/></text>
 <text id="text4087-2-6-5-4-8-18-9" opacity=".8" xml:space="preserve" font-size="12.666px" y="-685.63892" x="1189.5431" font-family="&apos;Bitstream Vera Sans&apos;" fill="#000000"><tspan id="tspan4089-7-2-9-9-8-4-4" y="-685.63892" x="1189.5431"/></text>
 <text id="text4087-2-6-5-45-3-5" opacity=".8" xml:space="preserve" font-size="12.666px" y="-460.49609" x="-1208.816" font-family="&apos;Bitstream Vera Sans&apos;" fill="#000000"><tspan id="tspan4089-7-2-9-75-7-9" y="-460.49609" x="-1208.816"/></text>
 <text id="text4087-2-6-5-59-8-3" opacity=".8" xml:space="preserve" font-size="12.666px" y="285.05743" x="-3032.5017" font-family="&apos;Bitstream Vera Sans&apos;" fill="#000000"><tspan id="tspan4089-7-2-9-4-2-5" y="285.05743" x="-3032.5017"/></text>
 <g id="layer4-0-7" transform="matrix(.90475 0 0 .90475 -716.75 -671.05)">
  <text id="text4087-2-6-5-20-0" opacity=".8" xml:space="preserve" font-size="14px" y="1159.4154" x="-664.2738" font-family="&apos;Bitstream Vera Sans&apos;" fill="#000000"><tspan id="tspan4089-7-2-9-82-8" y="1159.4154" x="-664.2738"/></text>
 </g>
 <text id="text7276" xml:space="preserve" font-size="12.666px" y="-363.22546" x="435.90427" font-family="&apos;Droid Sans&apos;" fill="#000000"><tspan id="tspan7278" y="-363.22546" x="435.90427"/><tspan id="tspan7280" y="-347.3924" x="435.90427"/></text>
 <text id="text4087-2-6-5-51" opacity=".8" xml:space="preserve" font-size="12.666px" y="-845.27002" x="901.0882" font-family="&apos;Bitstream Vera Sans&apos;" fill="#000000"><tspan id="tspan4089-7-2-9-97" y="-845.27002" x="901.0882"/></text>
 <text id="text4087-2-6-5-59-2" opacity=".8" xml:space="preserve" font-size="12.666px" y="-99.716553" x="-922.59778" font-family="&apos;Bitstream Vera Sans&apos;" fill="#000000"><tspan id="tspan4089-7-2-9-4-4" y="-99.716553" x="-922.59778"/></text>
 <text id="text4087-2-6-5-7-7" opacity=".8" xml:space="preserve" font-size="12.666px" y="-1130.2659" x="1628.1677" font-family="&apos;Bitstream Vera Sans&apos;" fill="#000000"><tspan id="tspan4089-7-2-9-1-6" y="-1130.2659" x="1628.1677"/></text>
 <text id="text4087-2-6-5-5-6" opacity=".8" xml:space="preserve" font-size="12.666px" y="-1171.0076" x="1652.1285" font-family="&apos;Bitstream Vera Sans&apos;" fill="#000000"><tspan id="tspan4089-7-2-9-6-53" y="-1171.0076" x="1652.1285"/></text>
 <text id="text4087-2-6-5-54" opacity=".8" xml:space="preserve" font-size="12.666px" y="-1178.2175" x="160.66542" font-family="&apos;Bitstream Vera Sans&apos;" fill="#000000"><tspan id="tspan4089-7-2-9-0" y="-1178.2175" x="160.66542"/></text>
 <text id="text4087-2-6-5-4-1" opacity=".8" xml:space="preserve" font-size="12.666px" y="-1451.4517" x="1621.2083" font-family="&apos;Bitstream Vera Sans&apos;" fill="#000000"><tspan id="tspan4089-7-2-9-9-28" y="-1451.4517" x="1621.2083"/></text>
 <path id="path4138" fill="#47ad5d" d="m11 0.99998c-0.24079 0-0.47841 0.011747-0.71484 0.02832-0.02967 0.00219-0.05921 0.00437-0.08887 0.00684-3.5723 0.28191-6.5975 2.4266-8.126 5.4668-0.000338 0.00065-0.00064 0.0013-0.000975 0.00195-0.0989 0.1967-0.2001 0.3925-0.2861 0.5966-0.4682 1.0571-0.7224 2.179-0.7686 3.3534-0.00203 0.03794-0.0023 0.0762-0.00391 0.11426-0.00309 0.1122-0.00954 0.22376-0.00879 0.33691-0.0002902 0.03173-0.00195 0.06293-0.00195 0.09473 0 1.1628 0.20666 2.2732 0.56836 3.3096 0.14557 0.4646 0.31327 0.93379 0.51562 1.4092 0.50403 1.1841 0.56662 1.507 0.4873 2.4961-0.055261 0.68918-0.24206 1.3929-0.47559 1.7891-0.21173 0.35922-0.38477 0.72986-0.38477 0.82422 0 0.29178 1.6886 0.18963 3.1807-0.19238 1.7479-0.44752 1.9007-0.44683 3.334 0.003 0.65566 0.20575 1.4039 0.31706 2.248 0.34766 0.03532 0.0018 0.07103 0.0015 0.10644 0.0029 0.11553 0.0032 0.22636 0.01074 0.3457 0.01074 0.0097 0 0.01863-0.00095 0.02832-0.001 0.01539 0.000069 0.03049 0.001 0.0459 0.001 0.27924 0 0.5548-0.01391 0.82812-0.03614 2.4722-0.17582 4.4579-1.0908 6.2451-2.875 1.4724-1.47 2.3845-3.2847 2.7451-5.1836 0.03323-0.17354 0.06077-0.34873 0.08496-0.52539 0.01463-0.10845 0.02999-0.21639 0.04102-0.3252 0.02425-0.23334 0.03882-0.47008 0.04687-0.70801 0.0018-0.05996 0.0042-0.1197 0.0049-0.17969 0.000894-0.05587 0.0039-0.11096 0.0039-0.16702 0-5.4475-4.3134-9.8477-9.7246-9.9932-0.04203-0.00122-0.08394-0.00226-0.12598-0.00293-0.04999-0.0007288-0.09924-0.003906-0.14941-0.003906z"/>
 <path id="path4384" opacity=".2" d="m5 9.5a2 2 0 0 0 -2 2 2 2 0 0 0 2 2 2 2 0 0 0 2 -2 2 2 0 0 0 -2 -2zm6 0a2 2 0 0 0 -2 2 2 2 0 0 0 2 2 2 2 0 0 0 2 -2 2 2 0 0 0 -2 -2zm6 0a2 2 0 0 0 -2 2 2 2 0 0 0 2 2 2 2 0 0 0 2 -2 2 2 0 0 0 -2 -2z"/>
 <path id="circle4364" d="m5 9a2 2 0 0 0 -2 2 2 2 0 0 0 2 2 2 2 0 0 0 2 -2 2 2 0 0 0 -2 -2zm6 0a2 2 0 0 0 -2 2 2 2 0 0 0 2 2 2 2 0 0 0 2 -2 2 2 0 0 0 -2 -2zm6 0a2 2 0 0 0 -2 2 2 2 0 0 0 2 2 2 2 0 0 0 2 -2 2 2 0 0 0 -2 -2z" fill="#fff"/>
 <path id="path4381" opacity=".2" d="m1.0078 11.179c-0.00279 0.07533-0.00637 0.15047-0.00586 0.22656-0.0002927 0.03173-0.001953 0.06292-0.001953 0.09473 0 1.1628 0.20666 2.2732 0.56836 3.3096 0.14557 0.4646 0.31327 0.93379 0.51562 1.4092 0.32568 0.76512 0.46603 1.1719 0.50391 1.6299 0.02797-0.71125-0.07191-1.115-0.50391-2.1299-0.2024-0.476-0.3701-0.945-0.5157-1.409-0.3429-0.983-0.5403-2.034-0.5605-3.131zm19.986 0.07324c-0.00095 0.03156-0.002 0.06311-0.0029 0.09473-0.0081 0.23793-0.02263 0.47467-0.04687 0.70801-0.01103 0.1088-0.02639 0.21675-0.04102 0.3252-0.02419 0.17666-0.05174 0.35185-0.08496 0.52539-0.36058 1.8989-1.2727 3.7136-2.7451 5.1836-1.7872 1.7842-3.7729 2.6992-6.2451 2.875-0.273 0.022-0.549 0.036-0.828 0.036-0.01541 0-0.0305-0.0009-0.0459-0.001-0.0097 0.00005-0.01862 0.001-0.02832 0.001-0.11934 0-0.23017-0.0076-0.3457-0.01074-0.03541-0.0014-0.07113-0.0011-0.10644-0.0029-0.84419-0.0306-1.5924-0.14191-2.248-0.34766-1.4333-0.44978-1.586-0.45045-3.334-0.003-1.2368 0.31666-2.5942 0.43661-3.0273 0.30371-0.088689 0.18193-0.15332 0.33448-0.15332 0.38867 0 0.29178 1.6886 0.18963 3.1807-0.19238 1.7479-0.44752 1.9007-0.44683 3.334 0.003 0.65566 0.20575 1.4039 0.31706 2.248 0.34766 0.03531 0.0018 0.07103 0.0015 0.10644 0.0029 0.11553 0.0032 0.22636 0.01074 0.3457 0.01074 0.0097 0 0.01863-0.00095 0.02832-0.001 0.01539 0.000069 0.03049 0.001 0.0459 0.001 0.27924 0 0.5548-0.0139 0.82812-0.03613 2.4722-0.17582 4.4579-1.0908 6.2451-2.875 1.4724-1.47 2.3845-3.2847 2.7451-5.1836 0.03323-0.17354 0.06077-0.34873 0.08496-0.52539 0.01462-0.10845 0.02998-0.21639 0.04101-0.3252 0.02425-0.23334 0.03882-0.47008 0.04687-0.70801 0.0018-0.05996 0.0042-0.1197 0.0049-0.17969 0.000894-0.05584 0.0039-0.11092 0.0039-0.16699 0-0.08315-0.0038-0.1654-0.0059-0.24805z"/>
 <path id="path4386" opacity=".2" d="m11 0.99998c-0.24079 0-0.47841 0.011747-0.71484 0.02832-0.02967 0.00219-0.05921 0.00437-0.08887 0.00684-3.5723 0.28191-6.5975 2.4266-8.126 5.4668-0.000338 0.00065-0.00064 0.0013-0.000975 0.00195-0.0989 0.1967-0.2001 0.3925-0.2861 0.5966-0.4682 1.0571-0.7224 2.179-0.7686 3.3534-0.00203 0.03794-0.0023 0.0762-0.00391 0.11426-0.00309 0.1122-0.00954 0.22376-0.00879 0.33691-0.0002902 0.03173-0.00195 0.06293-0.00195 0.09473 0 0.06025 0.00671 0.11875 0.00781 0.17871 0.00136-0.03669 0.00192-0.0736 0.00293-0.11035 0.00161-0.03806 0.00188-0.07631 0.00391-0.11426 0.0462-1.1744 0.3004-2.2963 0.7686-3.3534 0.086-0.2041 0.1872-0.3999 0.2861-0.5967 0.000335-0.00065 0.00064-0.0013 0.000975-0.00195 1.5284-3.0402 4.5537-5.1849 8.126-5.4668 0.02965-0.00246 0.0592-0.00465 0.08887-0.00684 0.23643-0.016573 0.47405-0.028319 0.71484-0.028319 0.05017 0 0.09943 0.00318 0.14941 0.00391 0.04204 0.000665 0.08395 0.00171 0.12598 0.00293 5.3286 0.14325 9.5898 4.413 9.7187 9.7451 0.00085-0.0283 0.0017-0.0566 0.0019-0.08496 0.000964-0.05585 0.004-0.11093 0.004-0.167 0-5.4475-4.3134-9.8477-9.7246-9.9932-0.04203-0.00122-0.08394-0.00226-0.12598-0.00293-0.051-0.0006-0.1-0.00382-0.15-0.00382zm-8.4121 16.849c-0.00467 0.1186-0.00527 0.22485-0.016602 0.36621-0.055261 0.68918-0.24206 1.3929-0.47559 1.7891-0.21173 0.35922-0.38477 0.72986-0.38477 0.82422 0 0.04992 0.063914 0.0839 0.15332 0.11133 0.065747-0.13487 0.14131-0.28262 0.23145-0.43555 0.23352-0.39621 0.42032-1.0999 0.47559-1.7891 0.028065-0.34999 0.037344-0.61538 0.016602-0.86621z" fill="#fff"/>
</svg>
