<svg height="22" width="22" xmlns="http://www.w3.org/2000/svg"><text opacity=".8" x="877.22626" y="8.8126011"><tspan x="877.22626" y="8.8126011"/></text><text opacity=".8" x="901.18719" y="-31.929106"><tspan x="901.18719" y="-31.929106"/></text><text opacity=".8" x="-569.37115" y="-62.007248"><tspan x="-569.37115" y="-62.007248"/></text><text opacity=".8" x="-2393.0571" y="683.5462"><tspan x="-2393.0571" y="683.5462"/></text><text opacity=".8" x="-454.88007" y="-447.32822"><tspan x="-454.88007" y="-447.32822"/></text><text opacity=".8" x="352.72208" y="-860.79834"><tspan x="352.72208" y="-860.79834"/></text><text opacity=".8" x="376.68301" y="-901.54004"><tspan x="376.68301" y="-901.54004"/></text><text opacity=".8" x="-1114.7802" y="-908.74994"><tspan x="-1114.7802" y="-908.74994"/></text><text opacity=".8" x="345.7626" y="-1181.9841"><tspan x="345.7626" y="-1181.9841"/></text><text opacity=".8" x="1831.8861" y="-555.29272"><tspan x="1831.8861" y="-555.29272"/></text><text opacity=".8" x="1855.8469" y="-596.03448"><tspan x="1855.8469" y="-596.03448"/></text><text opacity=".8" x="364.38376" y="-603.24438"><tspan x="364.38376" y="-603.24438"/></text><text opacity=".8" x="1824.9266" y="-876.47839"><tspan x="1824.9266" y="-876.47839"/></text><text opacity=".8" x="-573.43256" y="-651.33569"><tspan x="-573.43256" y="-651.33569"/></text><text opacity=".8" x="-2397.1182" y="94.217857"><tspan x="-2397.1182" y="94.217857"/></text><text opacity=".8" x="-682.36279" y="187.09"><tspan x="-682.36279" y="187.09"/></text><text opacity=".8" x="426.66153" y="7.9078522"><tspan x="426.66153" y="7.9078522"/></text><text opacity=".8" x="450.62247" y="-32.833855"><tspan x="450.62247" y="-32.833855"/></text><text opacity=".8" x="-1040.8407" y="-40.043827"><tspan x="-1040.8407" y="-40.043827"/></text><text opacity=".8" x="419.70206" y="-313.27789"><tspan x="419.70206" y="-313.27789"/></text><text opacity=".8" x="-608.03253" y="-42.758072"><tspan x="-608.03253" y="-42.758072"/></text><text opacity=".8" x="-2431.7185" y="702.79541"><tspan x="-2431.7185" y="702.79541"/></text><text opacity=".8" x="-456.93948" y="-904.28857"><tspan x="-456.93948" y="-904.28857"/></text><text opacity=".8" x="350.66266" y="-1317.7588"><tspan x="350.66266" y="-1317.7588"/></text><text opacity=".8" x="374.62357" y="-1358.5005"><tspan x="374.62357" y="-1358.5005"/></text><text opacity=".8" x="-1116.8396" y="-1365.7104"><tspan x="-1116.8396" y="-1365.7104"/></text><text opacity=".8" x="343.70316" y="-1638.9446"><tspan x="343.70316" y="-1638.9446"/></text><text opacity=".8" x="1829.8265" y="-1012.2533"><tspan x="1829.8265" y="-1012.2533"/></text><text opacity=".8" x="1853.7874" y="-1052.9949"><tspan x="1853.7874" y="-1052.9949"/></text><text opacity=".8" x="362.32431" y="-1060.2048"><tspan x="362.32431" y="-1060.2048"/></text><text opacity=".8" x="1822.8671" y="-1333.439"><tspan x="1822.8671" y="-1333.439"/></text><text opacity=".8" x="-575.492" y="-1108.2961"><tspan x="-575.492" y="-1108.2961"/></text><text opacity=".8" x="-2399.1777" y="-362.74261"><tspan x="-2399.1777" y="-362.74261"/></text><text opacity=".8" x="-684.42224" y="-269.87045"><tspan x="-684.42224" y="-269.87045"/></text><text opacity=".8" x="155.5923" y="-28.956278"><tspan x="155.5923" y="-28.956278"/></text><text opacity=".8" x="179.55324" y="-69.697998"><tspan x="179.55324" y="-69.697998"/></text><text opacity=".8" x="-1090.2634" y="-263.72662"><tspan x="-1090.2634" y="-263.72662"/></text><text opacity=".8" x="-282.66141" y="-677.19678"><tspan x="-282.66141" y="-677.19678"/></text><text opacity=".8" x="-258.70047" y="-717.93848"><tspan x="-258.70047" y="-717.93848"/></text><text opacity=".8" x="-1750.1636" y="-725.14838"><tspan x="-1750.1636" y="-725.14838"/></text><text opacity=".8" x="-289.62085" y="-998.38251"><tspan x="-289.62085" y="-998.38251"/></text><text opacity=".8" x="1196.5026" y="-371.69113"><tspan x="1196.5026" y="-371.69113"/></text><text opacity=".8" x="1220.4634" y="-412.43286"><tspan x="1220.4634" y="-412.43286"/></text><text opacity=".8" x="-270.99973" y="-419.64282"><tspan x="-270.99973" y="-419.64282"/></text><text opacity=".8" x="1189.5431" y="-692.87689"><tspan x="1189.5431" y="-692.87689"/></text><text opacity=".8" x="-1208.816" y="-467.7341"><tspan x="-1208.816" y="-467.7341"/></text><text opacity=".8" x="-3032.5017" y="277.81946"><tspan x="-3032.5017" y="277.81946"/></text><text opacity=".8" transform="matrix(.90475 0 0 .90475 -716.75 -678.29)" x="-664.2738" y="1159.4154"><tspan x="-664.2738" y="1159.4154"/></text><text opacity=".8" x="877.22626" y="16.050589"><tspan x="877.22626" y="16.050589"/></text><text opacity=".8" x="901.18719" y="-24.691116"><tspan x="901.18719" y="-24.691116"/></text><text opacity=".8" x="-569.37115" y="-54.76926"><tspan x="-569.37115" y="-54.76926"/></text><text opacity=".8" x="-2393.0571" y="690.78418"><tspan x="-2393.0571" y="690.78418"/></text><text opacity=".8" x="-454.88007" y="-440.09021"><tspan x="-454.88007" y="-440.09021"/></text><text opacity=".8" x="352.72208" y="-853.5603"><tspan x="352.72208" y="-853.5603"/></text><text opacity=".8" x="376.68301" y="-894.30206"><tspan x="376.68301" y="-894.30206"/></text><text opacity=".8" x="-1114.7802" y="-901.51196"><tspan x="-1114.7802" y="-901.51196"/></text><text opacity=".8" x="345.7626" y="-1174.7461"><tspan x="345.7626" y="-1174.7461"/></text><text opacity=".8" x="1831.8861" y="-548.05475"><tspan x="1831.8861" y="-548.05475"/></text><text opacity=".8" x="1855.8469" y="-588.79651"><tspan x="1855.8469" y="-588.79651"/></text><text opacity=".8" x="364.38376" y="-596.00641"><tspan x="364.38376" y="-596.00641"/></text><text opacity=".8" x="1824.9266" y="-869.24036"><tspan x="1824.9266" y="-869.24036"/></text><text opacity=".8" x="-573.43256" y="-644.09772"><tspan x="-573.43256" y="-644.09772"/></text><text opacity=".8" x="-2397.1182" y="101.45585"><tspan x="-2397.1182" y="101.45585"/></text><text opacity=".8" x="-682.36279" y="194.32799"><tspan x="-682.36279" y="194.32799"/></text><text opacity=".8" x="426.66153" y="15.14584"><tspan x="426.66153" y="15.14584"/></text><text opacity=".8" x="450.62247" y="-25.595865"><tspan x="450.62247" y="-25.595865"/></text><text opacity=".8" x="-1040.8407" y="-32.805836"><tspan x="-1040.8407" y="-32.805836"/></text><text opacity=".8" x="419.70206" y="-306.03989"><tspan x="419.70206" y="-306.03989"/></text><text opacity=".8" x="-608.03253" y="-35.520081"><tspan x="-608.03253" y="-35.520081"/></text><text opacity=".8" x="-2431.7185" y="710.03345"><tspan x="-2431.7185" y="710.03345"/></text><text opacity=".8" x="-456.93948" y="-897.0506"><tspan x="-456.93948" y="-897.0506"/></text><text opacity=".8" x="350.66266" y="-1310.5208"><tspan x="350.66266" y="-1310.5208"/></text><text opacity=".8" x="374.62357" y="-1351.2626"><tspan x="374.62357" y="-1351.2626"/></text><text opacity=".8" x="-1116.8396" y="-1358.4724"><tspan x="-1116.8396" y="-1358.4724"/></text><text opacity=".8" x="343.70316" y="-1631.7065"><tspan x="343.70316" y="-1631.7065"/></text><text opacity=".8" x="1829.8265" y="-1005.0153"><tspan x="1829.8265" y="-1005.0153"/></text><text opacity=".8" x="1853.7874" y="-1045.757"><tspan x="1853.7874" y="-1045.757"/></text><text opacity=".8" x="362.32431" y="-1052.9668"><tspan x="362.32431" y="-1052.9668"/></text><text opacity=".8" x="1822.8671" y="-1326.2009"><tspan x="1822.8671" y="-1326.2009"/></text><text opacity=".8" x="-575.492" y="-1101.0581"><tspan x="-575.492" y="-1101.0581"/></text><text opacity=".8" x="-2399.1777" y="-355.50461"><tspan x="-2399.1777" y="-355.50461"/></text><text opacity=".8" x="-684.42224" y="-262.63245"><tspan x="-684.42224" y="-262.63245"/></text><text opacity=".8" x="155.5923" y="-21.71829"><tspan x="155.5923" y="-21.71829"/></text><text opacity=".8" x="179.55324" y="-62.460011"><tspan x="179.55324" y="-62.460011"/></text><text opacity=".8" x="-1090.2634" y="-256.48859"><tspan x="-1090.2634" y="-256.48859"/></text><text opacity=".8" x="-282.66141" y="-669.9588"><tspan x="-282.66141" y="-669.9588"/></text><text opacity=".8" x="-258.70047" y="-710.7005"><tspan x="-258.70047" y="-710.7005"/></text><text opacity=".8" x="-1750.1636" y="-717.91046"><tspan x="-1750.1636" y="-717.91046"/></text><text opacity=".8" x="-289.62085" y="-991.14447"><tspan x="-289.62085" y="-991.14447"/></text><text opacity=".8" x="1196.5026" y="-364.45316"><tspan x="1196.5026" y="-364.45316"/></text><text opacity=".8" x="1220.4634" y="-405.19489"><tspan x="1220.4634" y="-405.19489"/></text><text opacity=".8" x="-270.99973" y="-412.40482"><tspan x="-270.99973" y="-412.40482"/></text><text opacity=".8" x="1189.5431" y="-685.63892"><tspan x="1189.5431" y="-685.63892"/></text><text opacity=".8" x="-1208.816" y="-460.49609"><tspan x="-1208.816" y="-460.49609"/></text><text opacity=".8" x="-3032.5017" y="285.05743"><tspan x="-3032.5017" y="285.05743"/></text><text opacity=".8" transform="matrix(.90475 0 0 .90475 -716.75 -671.05)" x="-664.2738" y="1159.4154"><tspan x="-664.2738" y="1159.4154"/></text><text x="435.90427" y="-363.22546"><tspan x="435.90427" y="-363.22546"/><tspan x="435.90427" y="-347.3924"/></text><text opacity=".8" x="901.0882" y="-845.27002"><tspan x="901.0882" y="-845.27002"/></text><text opacity=".8" x="-922.59778" y="-99.716553"><tspan x="-922.59778" y="-99.716553"/></text><text opacity=".8" x="1628.1677" y="-1130.2659"><tspan x="1628.1677" y="-1130.2659"/></text><text opacity=".8" x="1652.1285" y="-1171.0076"><tspan x="1652.1285" y="-1171.0076"/></text><text opacity=".8" x="160.66542" y="-1178.2175"><tspan x="160.66542" y="-1178.2175"/></text><text opacity=".8" x="1621.2083" y="-1451.4517"><tspan x="1621.2083" y="-1451.4517"/></text><text opacity=".8" x="825.66693" y="11.761754"><tspan x="825.66693" y="11.761754"/></text><text opacity=".8" x="849.62787" y="-28.979954"><tspan x="849.62787" y="-28.979954"/></text><text opacity=".8" x="-620.93048" y="-59.058094"><tspan x="-620.93048" y="-59.058094"/></text><text opacity=".8" x="-2444.6165" y="686.49536"><tspan x="-2444.6165" y="686.49536"/></text><text opacity=".8" x="-506.43939" y="-444.37906"><tspan x="-506.43939" y="-444.37906"/></text><text opacity=".8" x="301.16275" y="-857.84918"><tspan x="301.16275" y="-857.84918"/></text><text opacity=".8" x="325.12369" y="-898.59088"><tspan x="325.12369" y="-898.59088"/></text><text opacity=".8" x="-1166.3395" y="-905.80078"><tspan x="-1166.3395" y="-905.80078"/></text><text opacity=".8" x="294.20328" y="-1179.035"><tspan x="294.20328" y="-1179.035"/></text><text opacity=".8" x="1780.3268" y="-552.34357"><tspan x="1780.3268" y="-552.34357"/></text><text opacity=".8" x="1804.2876" y="-593.08533"><tspan x="1804.2876" y="-593.08533"/></text><text opacity=".8" x="312.82443" y="-600.29523"><tspan x="312.82443" y="-600.29523"/></text><text opacity=".8" x="1773.3673" y="-873.52924"><tspan x="1773.3673" y="-873.52924"/></text><text opacity=".8" x="-624.99188" y="-648.38654"><tspan x="-624.99188" y="-648.38654"/></text><text opacity=".8" x="-2448.6775" y="97.167007"><tspan x="-2448.6775" y="97.167007"/></text><text opacity=".8" x="-733.92212" y="190.03915"><tspan x="-733.92212" y="190.03915"/></text><text opacity=".8" x="375.1022" y="10.857005"><tspan x="375.1022" y="10.857005"/></text><text opacity=".8" x="399.06314" y="-29.884703"><tspan x="399.06314" y="-29.884703"/></text><text opacity=".8" x="-1092.4" y="-37.094673"><tspan x="-1092.4" y="-37.094673"/></text><text opacity=".8" x="368.14273" y="-310.32874"><tspan x="368.14273" y="-310.32874"/></text><text opacity=".8" x="-659.59186" y="-39.808918"><tspan x="-659.59186" y="-39.808918"/></text><text opacity=".8" x="-2483.2778" y="705.74457"><tspan x="-2483.2778" y="705.74457"/></text><text opacity=".8" x="-508.49881" y="-901.33942"><tspan x="-508.49881" y="-901.33942"/></text><text opacity=".8" x="299.10333" y="-1314.8097"><tspan x="299.10333" y="-1314.8097"/></text><text opacity=".8" x="323.06424" y="-1355.5514"><tspan x="323.06424" y="-1355.5514"/></text><text opacity=".8" x="-1168.3989" y="-1362.7614"><tspan x="-1168.3989" y="-1362.7614"/></text><text opacity=".8" x="292.14383" y="-1635.9955"><tspan x="292.14383" y="-1635.9955"/></text><text opacity=".8" x="1778.2672" y="-1009.3041"><tspan x="1778.2672" y="-1009.3041"/></text><text opacity=".8" x="1802.228" y="-1050.0458"><tspan x="1802.228" y="-1050.0458"/></text><text opacity=".8" x="310.76498" y="-1057.2557"><tspan x="310.76498" y="-1057.2557"/></text><text opacity=".8" x="1771.3077" y="-1330.4899"><tspan x="1771.3077" y="-1330.4899"/></text><text opacity=".8" x="-627.05133" y="-1105.347"><tspan x="-627.05133" y="-1105.347"/></text><text opacity=".8" x="-2450.7371" y="-359.79346"><tspan x="-2450.7371" y="-359.79346"/></text><text opacity=".8" x="-735.98157" y="-266.9213"><tspan x="-735.98157" y="-266.9213"/></text><text opacity=".8" x="104.03298" y="-26.007126"><tspan x="104.03298" y="-26.007126"/></text><text opacity=".8" x="127.99392" y="-66.748848"><tspan x="127.99392" y="-66.748848"/></text><text opacity=".8" x="-1141.8228" y="-260.77747"><tspan x="-1141.8228" y="-260.77747"/></text><text opacity=".8" x="-334.22073" y="-674.24762"><tspan x="-334.22073" y="-674.24762"/></text><text opacity=".8" x="-310.2598" y="-714.98932"><tspan x="-310.2598" y="-714.98932"/></text><text opacity=".8" x="-1801.7229" y="-722.19922"><tspan x="-1801.7229" y="-722.19922"/></text><text opacity=".8" x="-341.18018" y="-995.43335"><tspan x="-341.18018" y="-995.43335"/></text><text opacity=".8" x="1144.9432" y="-368.74197"><tspan x="1144.9432" y="-368.74197"/></text><text opacity=".8" x="1168.9041" y="-409.4837"><tspan x="1168.9041" y="-409.4837"/></text><text opacity=".8" x="-322.55905" y="-416.69366"><tspan x="-322.55905" y="-416.69366"/></text><text opacity=".8" x="1137.9838" y="-689.92773"><tspan x="1137.9838" y="-689.92773"/></text><text opacity=".8" x="-1260.3754" y="-464.78494"><tspan x="-1260.3754" y="-464.78494"/></text><text opacity=".8" x="-3084.061" y="280.76862"><tspan x="-3084.061" y="280.76862"/></text><text opacity=".8" transform="matrix(.90475 0 0 .90475 -768.30932 -675.34085)" x="-664.2738" y="1159.4154"><tspan x="-664.2738" y="1159.4154"/></text><text opacity=".8" x="825.66693" y="18.999741"><tspan x="825.66693" y="18.999741"/></text><text opacity=".8" x="849.62787" y="-21.741964"><tspan x="849.62787" y="-21.741964"/></text><text opacity=".8" x="-620.93048" y="-51.820107"><tspan x="-620.93048" y="-51.820107"/></text><text opacity=".8" x="-2444.6165" y="693.73334"><tspan x="-2444.6165" y="693.73334"/></text><text opacity=".8" x="-506.43939" y="-437.14105"><tspan x="-506.43939" y="-437.14105"/></text><text opacity=".8" x="301.16275" y="-850.61115"><tspan x="301.16275" y="-850.61115"/></text><text opacity=".8" x="325.12369" y="-891.35291"><tspan x="325.12369" y="-891.35291"/></text><text opacity=".8" x="-1166.3395" y="-898.56281"><tspan x="-1166.3395" y="-898.56281"/></text><text opacity=".8" x="294.20328" y="-1171.797"><tspan x="294.20328" y="-1171.797"/></text><text opacity=".8" x="1780.3268" y="-545.10559"><tspan x="1780.3268" y="-545.10559"/></text><text opacity=".8" x="1804.2876" y="-585.84735"><tspan x="1804.2876" y="-585.84735"/></text><text opacity=".8" x="312.82443" y="-593.05725"><tspan x="312.82443" y="-593.05725"/></text><text opacity=".8" x="1773.3673" y="-866.2912"><tspan x="1773.3673" y="-866.2912"/></text><text opacity=".8" x="-624.99188" y="-641.14856"><tspan x="-624.99188" y="-641.14856"/></text><text opacity=".8" x="-2448.6775" y="104.405"><tspan x="-2448.6775" y="104.405"/></text><text opacity=".8" x="-733.92212" y="197.27715"><tspan x="-733.92212" y="197.27715"/></text><text opacity=".8" x="375.1022" y="18.094992"><tspan x="375.1022" y="18.094992"/></text><text opacity=".8" x="399.06314" y="-22.646713"><tspan x="399.06314" y="-22.646713"/></text><text opacity=".8" x="-1092.4" y="-29.856684"><tspan x="-1092.4" y="-29.856684"/></text><text opacity=".8" x="368.14273" y="-303.09073"><tspan x="368.14273" y="-303.09073"/></text><text opacity=".8" x="-659.59186" y="-32.57093"><tspan x="-659.59186" y="-32.57093"/></text><text opacity=".8" x="-2483.2778" y="712.9826"><tspan x="-2483.2778" y="712.9826"/></text><text opacity=".8" x="-508.49881" y="-894.10144"><tspan x="-508.49881" y="-894.10144"/></text><text opacity=".8" x="299.10333" y="-1307.5717"><tspan x="299.10333" y="-1307.5717"/></text><text opacity=".8" x="323.06424" y="-1348.3135"><tspan x="323.06424" y="-1348.3135"/></text><text opacity=".8" x="-1168.3989" y="-1355.5233"><tspan x="-1168.3989" y="-1355.5233"/></text><text opacity=".8" x="292.14383" y="-1628.7574"><tspan x="292.14383" y="-1628.7574"/></text><text opacity=".8" x="1778.2672" y="-1002.0662"><tspan x="1778.2672" y="-1002.0662"/></text><text opacity=".8" x="1802.228" y="-1042.8079"><tspan x="1802.228" y="-1042.8079"/></text><text opacity=".8" x="310.76498" y="-1050.0177"><tspan x="310.76498" y="-1050.0177"/></text><text opacity=".8" x="1771.3077" y="-1323.2518"><tspan x="1771.3077" y="-1323.2518"/></text><text opacity=".8" x="-627.05133" y="-1098.109"><tspan x="-627.05133" y="-1098.109"/></text><text opacity=".8" x="-2450.7371" y="-352.55545"><tspan x="-2450.7371" y="-352.55545"/></text><text opacity=".8" x="-735.98157" y="-259.68329"><tspan x="-735.98157" y="-259.68329"/></text><text opacity=".8" x="104.03298" y="-18.769138"><tspan x="104.03298" y="-18.769138"/></text><text opacity=".8" x="127.99392" y="-59.510857"><tspan x="127.99392" y="-59.510857"/></text><text opacity=".8" x="-1141.8228" y="-253.53944"><tspan x="-1141.8228" y="-253.53944"/></text><text opacity=".8" x="-334.22073" y="-667.00964"><tspan x="-334.22073" y="-667.00964"/></text><text opacity=".8" x="-310.2598" y="-707.75134"><tspan x="-310.2598" y="-707.75134"/></text><text opacity=".8" x="-1801.7229" y="-714.9613"><tspan x="-1801.7229" y="-714.9613"/></text><text opacity=".8" x="-341.18018" y="-988.19531"><tspan x="-341.18018" y="-988.19531"/></text><text opacity=".8" x="1144.9432" y="-361.504"><tspan x="1144.9432" y="-361.504"/></text><text opacity=".8" x="1168.9041" y="-402.24573"><tspan x="1168.9041" y="-402.24573"/></text><text opacity=".8" x="-322.55905" y="-409.45566"><tspan x="-322.55905" y="-409.45566"/></text><text opacity=".8" x="1137.9838" y="-682.68976"><tspan x="1137.9838" y="-682.68976"/></text><text opacity=".8" x="-1260.3754" y="-457.54694"><tspan x="-1260.3754" y="-457.54694"/></text><text opacity=".8" x="-3084.061" y="288.00659"><tspan x="-3084.061" y="288.00659"/></text><text opacity=".8" transform="matrix(.90475 0 0 .90475 -768.30932 -668.10085)" x="-664.2738" y="1159.4154"><tspan x="-664.2738" y="1159.4154"/></text><text x="384.34494" y="-360.27631"><tspan x="384.34494" y="-360.27631"/><tspan x="384.34494" y="-344.44324"/></text><text opacity=".8" x="849.52887" y="-842.32086"><tspan x="849.52887" y="-842.32086"/></text><text opacity=".8" x="-974.1571" y="-96.767403"><tspan x="-974.1571" y="-96.767403"/></text><text opacity=".8" x="1576.6084" y="-1127.3168"><tspan x="1576.6084" y="-1127.3168"/></text><text opacity=".8" x="1600.5692" y="-1168.0585"><tspan x="1600.5692" y="-1168.0585"/></text><text opacity=".8" x="109.1061" y="-1175.2684"><tspan x="109.1061" y="-1175.2684"/></text><text opacity=".8" x="1569.6489" y="-1448.5026"><tspan x="1569.6489" y="-1448.5026"/></text><g transform="translate(-1 -1)"><path d="m20 21v-18c0-.554-.446-1-1-1h-14c-.554 0-1 .446-1 1v18c0 .554.446 1 1 1h14c .554 0 1-.446 1-1z" fill="#4e9e45"/><path d="m19 2.5c.554 0 1 .446 1 1v8.5h-16v-8.5c0-.554.446-1 1-1z" opacity=".05"/><path d="m5 2c-.554 0-1 .446-1 1v .5c0-.554.446-1 1-1h14c .554 0 1 .446 1 1v-.5c0-.554-.446-1-1-1z" fill="#fff" opacity=".2"/><path d="m4 20.5v.5c0 .554.446 1 1 1h14c .554 0 1-.446 1-1v-.5c0 .554-.446 1-1 1h-14c-.554 0-1-.446-1-1z" opacity=".3"/><g fill="#4c4c4c" transform="translate(51.559322 -1.949152)"><path d="m-44.559322 8.9491525h10v1h-10z"/><path d="m-44.559322 14.949153h10v1h-10z"/><path d="m-44.559322 10.949153h10v1h-10z"/><path d="m-44.559322 16.949152h10v1h-10z"/><path d="m-44.559322 12.949153h10v1h-10z"/><path d="m-44.559322 18.949152h10v1h-10z"/></g></g></svg>