<svg xmlns="http://www.w3.org/2000/svg" width="16" height="16" version="1.1">
 <defs>
  <style id="current-color-scheme" type="text/css">
   .ColorScheme-Text { color:#d3dae3; } .ColorScheme-Highlight { color:#5294e2; }
  </style>
 </defs>
 <g transform="matrix(0.91136767,0,0,0.91136767,0.9986585,0.4198689)">
  <path style="fill:currentColor" class="ColorScheme-Text" d="m 2.6367,0.6367 a 9,9 0 0 0 0,12.7263 9,9 0 0 0 12.7263,0 l -1.414,-1.414 a 7,7 0 0 1 -9.8985,0 7,7 0 0 1 0,-9.8985 L 2.6364,0.6364 Z M 4.7402,2.8105 A 6,6 0 0 0 3.3457,6.1816 l 4.7653,0 z M 3.3379,7.182 a 6,6 0 0 0 1.4023,3.371 L 8.111,7.182 Z M 8.818,7.889 5.4473,11.26 a 6,6 0 0 0 3.3707,1.394 z m 1,0 0,4.773 a 6,6 0 0 0 3.371,-1.402 z"/>
 </g>
</svg>
