<svg xmlns="http://www.w3.org/2000/svg" width="16" height="16" version="1">
 <defs>
  <style id="current-color-scheme" type="text/css">
   .ColorScheme-Text { color:#d3dae3; } .ColorScheme-Highlight { color:#5294e2; }
  </style>
 </defs>
 <g>
  <path style="fill:currentColor" class="ColorScheme-Text" d="M 8 1 A 7 7 0 0 0 1 8 A 7 7 0 0 0 8 15 A 7 7 0 0 0 15 8 A 7 7 0 0 0 8 1 z M 6.5 4 L 9.5 4 C 10.331 4 11 4.6792375 11 5.5234375 L 11 6.2871094 C 11 7.1310094 10.331 8 9.5 8 L 9 8 L 9 11.238281 C 9 11.660281 8.79 12 8.375 12 L 7.625 12 C 7.21 12 7.015 11.660281 7 11.238281 L 7 8 L 6.5 8 C 5.669 8 5 7.1307094 5 6.2871094 L 5 5.5234375 C 5 4.6792375 5.669 4 6.5 4 z"/>
 </g>
</svg>
