<?xml version="1.0" encoding="UTF-8" standalone="no"?>
<svg
   xmlns:dc="http://purl.org/dc/elements/1.1/"
   xmlns:cc="http://creativecommons.org/ns#"
   xmlns:rdf="http://www.w3.org/1999/02/22-rdf-syntax-ns#"
   xmlns:svg="http://www.w3.org/2000/svg"
   xmlns="http://www.w3.org/2000/svg"
   xmlns:sodipodi="http://sodipodi.sourceforge.net/DTD/sodipodi-0.dtd"
   xmlns:inkscape="http://www.inkscape.org/namespaces/inkscape"
   width="16"
   height="16"
   version="1.1"
   id="svg2"
   inkscape:version="0.91 r13725"
   sodipodi:docname="notes.svg">
  <metadata
     id="metadata13">
    <rdf:RDF>
      <cc:Work
         rdf:about="">
        <dc:format>image/svg+xml</dc:format>
        <dc:type
           rdf:resource="http://purl.org/dc/dcmitype/StillImage" />
      </cc:Work>
    </rdf:RDF>
  </metadata>
  <sodipodi:namedview
     pagecolor="#ffffff"
     bordercolor="#666666"
     borderopacity="1"
     objecttolerance="10"
     gridtolerance="10"
     guidetolerance="10"
     inkscape:pageopacity="0"
     inkscape:pageshadow="2"
     inkscape:window-width="1920"
     inkscape:window-height="1016"
     id="namedview11"
     showgrid="false"
     inkscape:object-nodes="true"
     inkscape:zoom="33.89"
     inkscape:cx="8"
     inkscape:cy="8"
     inkscape:window-x="0"
     inkscape:window-y="34"
     inkscape:window-maximized="1"
     inkscape:current-layer="svg2" />
  <defs
     id="defs4">
    <style
       id="current-color-scheme"
       type="text/css">
   .ColorScheme-Text { color:#d3dae3; } .ColorScheme-Highlight { color:#5294e2; }
  </style>
  </defs>
  <g
     id="g7">
    <path
       style="fill:#d3dae3;fill-opacity:1"
       d="M 15.189453,1.1601562 C 15.119453,1.2001563 15.05,1.2503125 15,1.3203125 l -0.5,0.5 -0.150391,-0.1601563 -0.904297,0.9042969 -3.6152339,3.6152344 0,0.00195 -0.4492187,0.4492188 0.1484375,0.1582031 -0.5,0.5 L 9,8 l 0.7207031,-0.029297 0.4999999,-0.5 0.160156,0.1601563 L 10.683594,7.3261719 14.195312,3.8144531 15.349609,2.6601562 15.189453,2.5 l 0.5,-0.5 C 15.979453,1.71 15.67,1.0901563 15.25,1.1601562 Z M 3,2 C 2.45,2 2,2.45 2,3 l 0,9 c 0,0.55 0.45,1 1,1 l 11,0 c 0.55,0 1,-0.45 1,-1 L 15,4.4394531 11.089844,8.3398438 10.380859,9.0292969 10.220703,8.8691406 10.160156,8.9394531 9.75,8.9707031 9.0292969,9 7.9707031,9.0292969 8,7.9707031 8.0292969,7.25 8.0605469,6.8398438 8.1191406,6.7792969 7.9707031,6.6191406 8.6601562,5.9101562 12.560547,2 Z m -1,11 0,1 c 0,0.55 0.45,1 1,1 l 11,0 c 0.55,0 1,-0.45 1,-1 l 0,-1 c 0,0.55 -0.45,1 -1,1 L 3,14 C 2.45,14 2,13.55 2,13 Z"
       id="path3953"
       inkscape:connector-curvature="0"
       sodipodi:nodetypes="ccccccccccccccccccsccsssssscccccccccccccccscsssscssc" />
  </g>
</svg>
