<?xml version="1.0" encoding="UTF-8" standalone="no"?>
<svg
   xmlns:dc="http://purl.org/dc/elements/1.1/"
   xmlns:cc="http://creativecommons.org/ns#"
   xmlns:rdf="http://www.w3.org/1999/02/22-rdf-syntax-ns#"
   xmlns:svg="http://www.w3.org/2000/svg"
   xmlns="http://www.w3.org/2000/svg"
   xmlns:sodipodi="http://sodipodi.sourceforge.net/DTD/sodipodi-0.dtd"
   xmlns:inkscape="http://www.inkscape.org/namespaces/inkscape"
   width="16"
   height="16"
   version="1.1"
   id="svg2"
   inkscape:version="0.91 r13725"
   sodipodi:docname="nylas-tray-full.svg">
  <metadata
     id="metadata13">
    <rdf:RDF>
      <cc:Work
         rdf:about="">
        <dc:format>image/svg+xml</dc:format>
        <dc:type
           rdf:resource="http://purl.org/dc/dcmitype/StillImage" />
      </cc:Work>
    </rdf:RDF>
  </metadata>
  <sodipodi:namedview
     pagecolor="#ffffff"
     bordercolor="#666666"
     borderopacity="1"
     objecttolerance="10"
     gridtolerance="10"
     guidetolerance="10"
     inkscape:pageopacity="0"
     inkscape:pageshadow="2"
     inkscape:window-width="1920"
     inkscape:window-height="1016"
     id="namedview11"
     showgrid="true"
     inkscape:zoom="31.62"
     inkscape:cx="8"
     inkscape:cy="8"
     inkscape:window-x="0"
     inkscape:window-y="34"
     inkscape:window-maximized="1"
     inkscape:current-layer="svg2">
    <inkscape:grid
       type="xygrid"
       id="grid3949" />
  </sodipodi:namedview>
  <defs
     id="defs4">
    <style
       id="current-color-scheme"
       type="text/css">
   .ColorScheme-Text { color:#d3dae3; } .ColorScheme-Highlight { color:#5294e2; }
  </style>
  </defs>
  <g
     id="g7"
     transform="matrix(0.75,0,0,0.82352941,2,1.4117647)">
    <path
       style="color:#d3dae3;fill:currentColor;fill-rule:evenodd"
       class="ColorScheme-Text"
       d="m 8,-0.5 0,3 6.666667,4 0,-3 z M 1,0.2227 c -0.552,0 -1,0.448 -1,1 L 0,2.5 l 6.6666667,4 0,-2.998 C 4.8336667,2.454 3.3261,1.3985 1.4961,0.3555 1.3451,0.2685 1.174,0.2227 1,0.2227 Z M 0,4.5 l 0,3 6.6666667,4 0,-3 z m 8,0 0,3 6.666667,4 0,-3 z m -8,5 0,3 7,4 -0.3333333,-3 z m 8,0 0,2.998 c 1.833,1.048 3.340667,2.104 5.170667,3.147 0.151,0.087 0.322,0.132 0.496,0.132 0.552,0 1,-0.448 1,-1 l 0,-1.277 z"
       id="path9"
       inkscape:connector-curvature="0"
       sodipodi:nodetypes="cccccssccccsccccccccccccccccccsscc" />
  </g>
</svg>
