<svg xmlns="http://www.w3.org/2000/svg" width="16" height="16" version="1">
 <defs>
  <style id="current-color-scheme" type="text/css">
   .ColorScheme-Text { color:#d3dae3; } .ColorScheme-Highlight { color:#5294e2; }
  </style>
 </defs>
 <g style="fill:currentColor" class="ColorScheme-Text" transform="translate(-1,-5e-4)">
  <path style="fill:currentColor" class="ColorScheme-Highlight" d="m 2,6.9995 0,0 0,5.001 c 0,2 0,3 1.5,3 1.5,0 1.5,-1 1.5,-3 0,2 0,3 1.5,3 1.5,0 1.5,-1 1.5,-3 0,2 0,2.999 1.5,2.999 1.5,0 1.5,-1 1.5,-3 0,2 0,3 1.5,3 1.5,0 1.5,-1 1.5,-3 l 0,-5.0008 -0.002,0 C 14,3.9995 13,0.9987 8,0.9985 3,0.9983 2,3.9995 2,6.9987 Z M 5.5,4.9998 c 0.831,0 1.5,0.669 1.5,1.5 C 7,7.331 6.331,8 5.5,8 4.669,8 4,7.331 4,6.4998 c 0,-0.831 0.669,-1.5 1.5,-1.5 z m 6,0 c 0.831,0 1.5,0.669 1.5,1.5 C 13,7.331 12.331,8 11.5,8 10.669,8 10,7.331 10,6.4998 c 0,-0.831 0.669,-1.5 1.5,-1.5 z"/>
 </g>
</svg>
