<?xml version="1.0" encoding="UTF-8" standalone="no"?>
<svg
   xmlns:dc="http://purl.org/dc/elements/1.1/"
   xmlns:cc="http://creativecommons.org/ns#"
   xmlns:rdf="http://www.w3.org/1999/02/22-rdf-syntax-ns#"
   xmlns:svg="http://www.w3.org/2000/svg"
   xmlns="http://www.w3.org/2000/svg"
   xmlns:sodipodi="http://sodipodi.sourceforge.net/DTD/sodipodi-0.dtd"
   xmlns:inkscape="http://www.inkscape.org/namespaces/inkscape"
   width="16"
   height="16"
   version="1.1"
   id="svg2"
   inkscape:version="0.91 r13725"
   sodipodi:docname="si-syncthing-unknown.svg">
  <metadata
     id="metadata13">
    <rdf:RDF>
      <cc:Work
         rdf:about="">
        <dc:format>image/svg+xml</dc:format>
        <dc:type
           rdf:resource="http://purl.org/dc/dcmitype/StillImage" />
        <dc:title></dc:title>
      </cc:Work>
    </rdf:RDF>
  </metadata>
  <sodipodi:namedview
     pagecolor="#ffffff"
     bordercolor="#666666"
     borderopacity="1"
     objecttolerance="10"
     gridtolerance="10"
     guidetolerance="10"
     inkscape:pageopacity="0"
     inkscape:pageshadow="2"
     inkscape:window-width="1920"
     inkscape:window-height="1016"
     id="namedview11"
     showgrid="true"
     inkscape:zoom="25.679692"
     inkscape:cx="-0.15819754"
     inkscape:cy="8"
     inkscape:window-x="0"
     inkscape:window-y="34"
     inkscape:window-maximized="1"
     inkscape:current-layer="svg2">
    <inkscape:grid
       type="xygrid"
       id="grid3949" />
  </sodipodi:namedview>
  <defs
     id="defs4">
    <style
       id="current-color-scheme"
       type="text/css">
   .ColorScheme-Text { color:#d3dae3; } .ColorScheme-Highlight { color:#5294e2; }
  </style>
  </defs>
  <path
     style="opacity:0.3;fill:#d3dae3;fill-opacity:1;stroke:none;stroke-width:2;stroke-linecap:round;stroke-linejoin:round;stroke-miterlimit:4;stroke-dasharray:none;stroke-dashoffset:0;stroke-opacity:1"
     d="m 3.0502525,3.0502525 a 7,7 0 0 0 0,9.8994945 7,7 0 0 0 9.8994945,0 7,7 0 0 0 0,-9.8994945 7,7 0 0 0 -9.8994945,0 z m 1.4142136,1.4142136 a 5,5 0 0 1 6.3391019,-0.6021456 1.5,1.5 0 0 1 1.792626,0.2485922 1.5,1.5 0 0 1 0.05248,2.0633155 5,5 0 0 1 0.0028,3.6543055 1.5,1.5 0 0 1 -0.05524,2.0605533 1.5,1.5 0 0 1 -1.794007,0.247211 5,5 0 0 1 -6.3377209,-0.600764 5,5 0 0 1 -0.059386,-0.06215 1.5,1.5 0 0 1 -1.7083811,-0.291405 1.5,1.5 0 0 1 0,-2.1213208 1.5,1.5 0 0 1 0.3728883,-0.2706893 5,5 0 0 1 1.3948787,-4.3255048 z m 0.7071068,0.7071068 a 4,4 0 0 0 -1.1131408,3.4802912 1.5,1.5 0 0 1 0.7595874,0.4087961 1.5,1.5 0 0 1 0.040051,0.045575 L 7.2114103,8.0980558 A 1.5,1.5 0 0 1 7.6464466,6.9393398 1.5,1.5 0 0 1 9.3520655,6.6479345 L 10.183469,5.8165313 A 1.5,1.5 0 0 1 10.140656,4.6274317 4,4 0 0 0 5.1715729,5.1715729 Z m 0.080102,4.8530731 a 1.5,1.5 0 0 1 -0.140869,0.73749 4,4 0 0 0 0.060767,0.06629 4,4 0 0 0 4.9690831,0.546903 1.5,1.5 0 0 1 0.04281,-1.191861 L 9.3520655,9.3520655 A 1.5,1.5 0 0 1 7.6464466,9.0606602 1.5,1.5 0 0 1 7.6063956,9.0150849 L 5.2516748,10.024646 Z M 10.059172,7.3550413 a 1.5,1.5 0 0 1 0,1.2899174 l 0.831403,0.8314032 a 1.5,1.5 0 0 1 0.870073,-0.1270587 4,4 0 0 0 0,-2.6958444 1.5,1.5 0 0 1 -0.870073,-0.1298207 l -0.831403,0.8314032 z"
     id="path3974"
     inkscape:connector-curvature="0" />
</svg>
