<?xml version="1.0" encoding="UTF-8" standalone="no"?>
<svg
   xmlns:dc="http://purl.org/dc/elements/1.1/"
   xmlns:cc="http://creativecommons.org/ns#"
   xmlns:rdf="http://www.w3.org/1999/02/22-rdf-syntax-ns#"
   xmlns:svg="http://www.w3.org/2000/svg"
   xmlns="http://www.w3.org/2000/svg"
   xmlns:sodipodi="http://sodipodi.sourceforge.net/DTD/sodipodi-0.dtd"
   xmlns:inkscape="http://www.inkscape.org/namespaces/inkscape"
   width="16"
   height="16"
   version="1"
   id="svg2"
   inkscape:version="0.91 r13725"
   sodipodi:docname="simplescreenrecorder-recording.svg">
  <metadata
     id="metadata15">
    <rdf:RDF>
      <cc:Work
         rdf:about="">
        <dc:format>image/svg+xml</dc:format>
        <dc:type
           rdf:resource="http://purl.org/dc/dcmitype/StillImage" />
      </cc:Work>
    </rdf:RDF>
  </metadata>
  <sodipodi:namedview
     pagecolor="#ffffff"
     bordercolor="#666666"
     borderopacity="1"
     objecttolerance="10"
     gridtolerance="10"
     guidetolerance="10"
     inkscape:pageopacity="0"
     inkscape:pageshadow="2"
     inkscape:window-width="1920"
     inkscape:window-height="1016"
     id="namedview13"
     showgrid="false"
     inkscape:zoom="23.96"
     inkscape:cx="8"
     inkscape:cy="8"
     inkscape:window-x="0"
     inkscape:window-y="34"
     inkscape:window-maximized="1"
     inkscape:current-layer="svg2" />
  <defs
     id="defs4">
    <style
       id="current-color-scheme"
       type="text/css">
   .ColorScheme-Text { color:#d3dae3; } .ColorScheme-Highlight { color:#5294e2; }
  </style>
  </defs>
  <g
     id="g7"
     transform="translate(1,0)">
    <path
       style="color:#d3dae3;fill:currentColor"
       class="ColorScheme-Text"
       d="M 0.1816,2 C -0.4731,2 -1,2.5344 -1,3.1992 l 0,9.6018 C -1,13.466 -0.4731,14 0.1816,14 L 9.818,14 C 10.473,14 11,13.466 11,12.801 L 11,10 15,12 15,4 11,6 11,3.1992 C 11,2.5344 10.473,2 9.818,2 Z M 5,4 C 7.209139,4 9,5.790861 9,8 9,10.209139 7.209139,12 5,12 2.790861,12 1,10.209139 1,8 1,5.790861 2.790861,4 5,4 Z"
       id="path9"
       inkscape:connector-curvature="0"
       sodipodi:nodetypes="ssssssccccssssssss" />
    <circle
       style="color:#5294e2;fill:currentColor"
       class="ColorScheme-Highlight"
       cx="5"
       cy="8"
       r="3"
       id="circle11" />
  </g>
</svg>
