<svg xmlns="http://www.w3.org/2000/svg" width="16" height="16" version="1.1">
 <defs>
  <style id="current-color-scheme" type="text/css">
   .ColorScheme-Text { color:#d3dae3; } .ColorScheme-Highlight { color:#5294e2; }
  </style>
 </defs>
 <g>
  <path style="fill:currentColor;fill-rule:evenodd" class="ColorScheme-Text" d="M 7.96,1 7.94,1 C 7.26,1 6.79,1.19 6.72,1.46 6.69,1.51 6.64,1.56 6.63,1.63 L 5.98,3.5 c 0.97,0.7 3.07,0.7 4.03,0 L 9.37,1.63 C 9.36,1.61 9.35,1.6 9.35,1.59 l 0,0 C 9.35,1.5 9.29,1.42 9.21,1.35 9.13,1.27 9.03,1.2 8.92,1.16 8.63,1.06 8.32,1 8,1 Z M 5.15,6.4 4.5,9 3.45,9 C 3.16,9 2.91,9.17 2.8,9.43 l -1.75,4.6 C 0.86,14.49 1.2,15 1.7,15 l 12.6,0 c 0.5,0 0.83,-0.51 0.64,-0.97 L 13.19,9.43 C 13.08,9.17 12.83,9 12.55,9 L 11.49,9 10.84,6.4 C 8.91,7.17 7.3,7.36 5.15,6.4 Z m 6.44,2.74 0.58,1.94 c 0.09,0.31 -0.04,0.63 -0.31,0.8 -1.1,0.67 -2.5,1.1 -3.89,1.12 C 6.58,13.01 5.18,12.61 4.1,11.86 3.85,11.68 3.74,11.37 3.83,11.08 L 4.38,9.22 C 4.8333607,9.4920164 6.2586782,9.9852118 7.9889078,10 9.1210173,10.009676 10.383667,9.867755 11.59,9.14 Z"/>
 </g>
</svg>
