<svg xmlns="http://www.w3.org/2000/svg" width="16" height="16" version="1.1">
 <defs>
  <style id="current-color-scheme" type="text/css">
   .ColorScheme-Text { color:#d3dae3; } .ColorScheme-Highlight { color:#5294e2; }
  </style>
 </defs>
 <g transform="translate(-0.01395578,-0.035)">
  <path style="fill:currentColor" class="ColorScheme-Text" d="M 7.75,1.0312 C 4.9872,1.1327 2.4413,2.8358 1.4375,5.5937 0.9133,7.034 0.8937,8.536 1.2793,9.91 1.683,8.592 2.7637,7.577 4.1172,7.227 4.2872,6.9363 4.4887,6.6669 4.707,6.4141 4.7175,5.7038 4.8374,4.9855 5.0937,4.2812 5.6079,2.8686 6.5682,1.7729 7.75,1.0312 Z m 0.35,4.754 c -1.5537,0 -2.8764,0.9509 -3.4457,2.2968 -1.4459,0.215 -2.5547,1.447 -2.5547,2.953 0,1.657 1.3431,3 3,3 l 6.3754,0 c 1.449,0 2.625,-1.175 2.625,-2.625 0,-1.347 -1.013,-2.451 -2.321,-2.601 C 11.438,7.089 9.92,5.7852 8.1,5.7852 Z"/>
 </g>
</svg>
