<?xml version="1.0" encoding="UTF-8" standalone="no"?>
<!-- Created with Inkscape (http://www.inkscape.org/) -->
<svg id="svg6530" xmlns:rdf="http://www.w3.org/1999/02/22-rdf-syntax-ns#" xmlns="http://www.w3.org/2000/svg" height="22" viewBox="0 0 22 22" width="22" version="1.1" xmlns:cc="http://creativecommons.org/ns#" xmlns:xlink="http://www.w3.org/1999/xlink" xmlns:dc="http://purl.org/dc/elements/1.1/">
 <metadata id="metadata6535">
  <rdf:RDF>
   <cc:Work rdf:about="">
    <dc:format>image/svg+xml</dc:format>
    <dc:type rdf:resource="http://purl.org/dc/dcmitype/StillImage"/>
    <dc:title/>
   </cc:Work>
  </rdf:RDF>
 </metadata>
 <g id="layer1" transform="translate(-81 -623.36)">
  <rect id="rect10472" style="color:#bebebe" height="22" width="22" y="623.36" x="81" fill="none"/>
  <path id="path10474" opacity=".3" d="m99 627.37-14 14h8v-0.004-2-2h1.0137c0.01965-1.6349 1.3425-3 2.9863-3 0.77442 0 1.4708 0.30948 2 0.80078v-7.7969z" fill="#fff"/>
  <path id="path10476" d="m93 633.37-8 8h8v-8z" fill="#fff"/>
  <path id="path10567" style="color:#ffffff" d="m97 635.36c-1.108 0-2 0.91085-2 2.0312v0.96875h-1v1 2 1h1 4 1v-1-2-1h-1v-0.96875c0-1.1199-0.892-2.0312-2-2.0312zm0 1c0.554 0 1 0.4424 1 1v1h-2v-1c0-0.5576 0.446-1 1-1z" fill="#fff"/>
 </g>
</svg>
