<?xml version="1.0" encoding="UTF-8" standalone="no"?>
<svg
   xmlns:dc="http://purl.org/dc/elements/1.1/"
   xmlns:cc="http://creativecommons.org/ns#"
   xmlns:rdf="http://www.w3.org/1999/02/22-rdf-syntax-ns#"
   xmlns:svg="http://www.w3.org/2000/svg"
   xmlns="http://www.w3.org/2000/svg"
   id="svg2"
   viewBox="0 0 22 22"
   version="1.1"
   width="22"
   height="22">
  <metadata
     id="metadata14">
    <rdf:RDF>
      <cc:Work
         rdf:about="">
        <dc:format>image/svg+xml</dc:format>
        <dc:type
           rdf:resource="http://purl.org/dc/dcmitype/StillImage" />
        <dc:title />
      </cc:Work>
    </rdf:RDF>
  </metadata>
  <defs
     id="defs12" />
  <path
     d="m 14.49998,6.0148808 c -2.2208,0 -4.1069,1.6249251 -4.4414,3.8178947 -0.55606,-0.5262927 -1.2926,-0.8201537 -2.0586,-0.8213523 -1.6569,0 -3,1.3415518 -3,2.9965428 0.00109,0.343204 0.061206,0.683711 0.17773,1.006638 -0.0591,-0.01 -0.1184,-0.01 -0.17773,-0.01 -1.1046,0 -2,0.894368 -2,1.997695 0,1.103327 0.89543,1.997695 2,1.997695 l 1.0449,0 c 0.37118,-0.102482 0.64896,-0.203266 0.9668,-0.477949 0.33976,-0.293761 3.4977,-5.499554 6.377,-5.499554 1.5268,5.99e-4 3.0074,0.748137 3.5254,2.797572 0.04577,0.192078 0.1078,0.564848 0.08594,0.682812 0,0.827445 -0.67157,1.498271 -1.5,1.498271 -0.82843,0 -1.5,-0.670826 -1.5,-1.498271 -8.4e-5,-0.819155 0.65849,-1.486585 1.4785,-1.498271 -0.46843,-0.297357 -1.0396,-0.472355 -1.4746,-0.476051 -1.181,-0.01 -1.917,1.02232 -2.0215,1.945056 -0.1034,0.913246 0.1956,1.974222 2.0098,2.526385 l 4.5078,0 c 1.3807,0 2.5,-1.11801 2.5,-2.497119 -4.6e-4,-1.288813 -0.98284,-2.365571 -2.2676,-2.485432 C 18.90754,11.533213 18.99806,11.022403 19,10.507497 19,8.0250613 16.9853,6.0126833 14.5,6.0126833 Z"
     id="path6"
     style="fill:#ffffff;opacity:1" />
  <path
     d="m 7.99998,4.0171858 a 3,2.9965424 0 0 0 -3,2.9965425 l 0,0.2711871 a 2,1.997695 0 0 0 -1,-0.2711871 2,1.997695 0 0 0 -2,1.9976949 l -0.5,0 a 0.5,0.49942374 0 0 0 -0.5,0.4994238 0.5,0.49942374 0 0 0 0.5,0.499424 l 0.77148,0 2.2891,0 C 5.25687,8.8241393 6.53336,8.0125758 8.00006,8.0125758 l 0.00195,0 c 0.53313,7.99e-4 1.0499,0.1177641 1.5332,0.3199308 0.32866,-0.7450403 0.80826,-1.40398 1.3984,-1.935267 a 3,2.9965424 0 0 0 -2.934,-2.3972339 z"
     id="path8"
     style="fill:#ffffff;opacity:0.3" />
</svg>
