<?xml version="1.0" encoding="UTF-8" standalone="no"?>
<!-- Created with Inkscape (http://www.inkscape.org/) -->
<svg id="svg7384" xmlns:rdf="http://www.w3.org/1999/02/22-rdf-syntax-ns#" style="enable-background:new" xmlns="http://www.w3.org/2000/svg" xmlns:osb="http://www.openswatchbook.org/uri/2009/osb" height="16" width="16" version="1.1" xmlns:cc="http://creativecommons.org/ns#" xmlns:dc="http://purl.org/dc/elements/1.1/">
 <metadata id="metadata90">
  <rdf:RDF>
   <cc:Work rdf:about="">
    <dc:format>image/svg+xml</dc:format>
    <dc:type rdf:resource="http://purl.org/dc/dcmitype/StillImage"/>
    <dc:title>Paper Symbolic Icon Theme</dc:title>
   </cc:Work>
  </rdf:RDF>
 </metadata>
 <title id="title8473">Paper Symbolic Icon Theme</title>
 <g id="layer12" transform="translate(-265 38)">
  <g id="layer1" opacity=".5" transform="translate(-116.86 -581.08)">
   <g id="g4240" transform="matrix(.026144 0 0 .028027 381.86 542.5)">
    <g id="g4186">
     <g id="g4188">
      <path id="path4190" d="m175.2 239.62c0.127-1.965-0.533-3.902-1.833-5.381l-58.84-66.941c-1.3-1.479-3.135-2.381-5.102-2.508-1.975-0.126-3.902 0.533-5.381 1.833-27.037 23.766-49.479 51.794-66.706 83.305-0.944 1.729-1.165 3.762-0.611 5.651 0.554 1.89 1.836 3.483 3.565 4.427l78.205 42.748c1.131 0.619 2.352 0.912 3.557 0.912 2.627 0 5.174-1.398 6.523-3.866 11.386-20.828 26.229-39.359 44.114-55.08 1.482-1.298 2.384-3.133 2.509-5.1z"/>
      <path id="path4192" d="m201.46 214.83c1.334 2.515 3.907 3.948 6.568 3.948 1.174 0 2.365-0.279 3.473-0.867 20.962-11.117 43.512-18.371 67.025-21.561 4.064-0.551 6.913-4.293 6.362-8.358l-11.98-88.315c-0.551-4.064-4.304-6.909-8.358-6.362-35.708 4.843-69.949 15.857-101.77 32.736-3.623 1.922-5.002 6.416-3.082 10.041l41.763 78.739z"/>
      <path id="path4194" d="m105.78 334.34-86.012-23.33c-1.901-0.514-3.929-0.255-5.638 0.725s-2.958 2.598-3.475 4.499c-7.069 26.07-10.655 53.08-10.655 80.29 0 4.657 0.111 9.329 0.342 14.284 0.185 3.981 3.468 7.083 7.414 7.083 0.116 0 0.234-0.002 0.35-0.008l89.031-4.113c1.967-0.09 3.82-0.96 5.145-2.415 1.327-1.455 2.022-3.38 1.93-5.347-0.155-3.341-0.23-6.444-0.23-9.484 0-18.02 2.365-35.873 7.029-53.066 1.071-3.958-1.268-8.037-5.226-9.112z"/>
      <path id="path4196" d="m438.73 120.74c-32.41-15.62-67.04-25.303-102.92-28.781-1.972-0.198-3.918 0.408-5.439 1.659-1.521 1.252-2.481 3.056-2.671 5.018l-8.593 88.712c-0.396 4.082 2.594 7.713 6.677 8.108 23.652 2.291 46.463 8.669 67.8 18.954 1.015 0.49 2.118 0.738 3.225 0.738 0.826 0 1.654-0.139 2.45-0.416 1.859-0.649 3.385-2.012 4.24-3.786l38.7-80.287c1.783-3.694 0.232-8.134-3.464-9.914z"/>
      <path id="path4198" d="m569.64 245.34c0.48-1.911 0.184-3.932-0.828-5.624-18.432-30.835-41.933-57.983-69.848-80.686-1.529-1.242-3.48-1.824-5.447-1.627-1.959 0.203-3.758 1.174-5 2.702l-56.237 69.144c-1.242 1.529-1.828 3.488-1.625 5.447 0.201 1.959 1.173 3.758 2.702 5.002 18.47 15.019 34.015 32.975 46.205 53.369 1.392 2.326 3.855 3.618 6.383 3.618 1.297 0 2.61-0.34 3.803-1.054l76.5-45.72c1.689-1.011 2.909-2.652 3.391-4.563z"/>
      <path id="path4200" d="m598.04 304.94c-1.228-3.915-5.397-6.096-9.308-4.867l-85.048 26.648c-3.915 1.226-6.093 5.393-4.867 9.306 6.104 19.486 9.199 39.839 9.199 60.494 0 3.041-0.076 6.144-0.23 9.484-0.092 1.967 0.602 3.892 1.93 5.347 1.327 1.456 3.178 2.325 5.145 2.415l89.031 4.113c0.118 0.005 0.234 0.008 0.35 0.008 3.944 0 7.228-3.103 7.414-7.083 0.229-4.955 0.342-9.627 0.342-14.284-0.002-31.214-4.696-62.026-13.958-91.581z"/>
      <path id="path4202" d="m305.74 380.76c-1.281 0-2.555 0.042-3.824 0.11l-120.66-71.19c-2.953-1.745-6.702-1.308-9.176 1.065-2.476 2.371-3.07 6.099-1.456 9.121l65.815 123.36c-0.242 2.376-0.371 4.775-0.371 7.195 0 18.608 7.246 36.101 20.403 49.258 13.158 13.158 30.652 20.404 49.26 20.404s36.101-7.248 49.258-20.404c13.158-13.157 20.403-30.65 20.403-49.258s-7.246-36.101-20.403-49.258-30.652-20.403-49.259-20.403z"/>
     </g>
    </g>
   </g>
  </g>
 </g>
</svg>
