<?xml version="1.0" encoding="UTF-8" standalone="no"?>
<!-- Created with Inkscape (http://www.inkscape.org/) -->
<svg id="svg7384" xmlns:rdf="http://www.w3.org/1999/02/22-rdf-syntax-ns#" style="enable-background:new" xmlns="http://www.w3.org/2000/svg" xmlns:osb="http://www.openswatchbook.org/uri/2009/osb" height="16" width="16" version="1.1" xmlns:cc="http://creativecommons.org/ns#" xmlns:dc="http://purl.org/dc/elements/1.1/">
 <metadata id="metadata90">
  <rdf:RDF>
   <cc:Work rdf:about="">
    <dc:format>image/svg+xml</dc:format>
    <dc:type rdf:resource="http://purl.org/dc/dcmitype/StillImage"/>
    <dc:title>Paper Symbolic Icon Theme</dc:title>
   </cc:Work>
  </rdf:RDF>
 </metadata>
 <title id="title8473">Paper Symbolic Icon Theme</title>
 <g id="layer12" transform="translate(-467 -141)">
  <path id="rect5719" opacity=".5" d="m2 2c-1.108 0-2 0.892-2 2v8c0 1.108 0.892 2 2 2h11c-1.645 0-3-1.355-3-3s1.355-3 3-3 3 1.355 3 3v-7c0-1.108-0.892-2-2-2h-12zm14 9c0 0.176-0.023 0.347-0.053 0.516 0.033-0.175 0.052-0.348 0.053-0.516zm-0.053 0.516c-0.028 0.147-0.07 0.296-0.121 0.443 0.05-0.145 0.094-0.29 0.121-0.443zm-0.121 0.443c-0.008 0.024-0.014 0.049-0.023 0.072 0.009-0.024 0.015-0.048 0.023-0.072zm-0.023 0.072c-0.052 0.138-0.118 0.272-0.19 0.405 0.073-0.131 0.137-0.264 0.19-0.405zm-0.19 0.405c-0.021 0.037-0.04 0.076-0.062 0.113 0.022-0.038 0.042-0.075 0.062-0.113zm-0.062 0.113c-0.062 0.102-0.135 0.198-0.209 0.295 0.075-0.095 0.145-0.192 0.209-0.295zm-0.209 0.295c-0.054 0.068-0.105 0.138-0.164 0.201 0.059-0.065 0.111-0.133 0.164-0.201zm-0.164 0.201c-0.054 0.059-0.117 0.111-0.176 0.166 0.06-0.054 0.12-0.107 0.176-0.166zm-0.176 0.166c-0.092 0.083-0.184 0.165-0.285 0.236 0.102-0.073 0.195-0.153 0.285-0.236zm-0.285 0.236c-0.052 0.037-0.109 0.068-0.164 0.102 0.055-0.034 0.111-0.065 0.164-0.102zm-0.164 0.102c-0.108 0.066-0.218 0.129-0.334 0.181 0.119-0.052 0.227-0.116 0.334-0.181zm-0.334 0.181c-0.114 0.051-0.235 0.091-0.36 0.127 0.123-0.037 0.244-0.074 0.36-0.127zm-0.36 0.127c-0.061 0.019-0.12 0.044-0.183 0.059 0.065-0.015 0.121-0.04 0.183-0.059zm-0.183 0.059c-0.211 0.048-0.436 0.079-0.676 0.084 0.233 0 0.458-0.033 0.676-0.084zm-11.676-9.916l6 3 6-3v2l-6 3-6-3v-2zm11 5a2 2 0 0 0 -2 2 2 2 0 0 0 2 2 2 2 0 0 0 2 -2 2 2 0 0 0 -2 -2z" transform="translate(467 141)"/>
 </g>
</svg>
