<?xml version="1.0" encoding="UTF-8" standalone="no"?>
<!-- Created with Inkscape (http://www.inkscape.org/) -->
<svg id="svg3049" xmlns:rdf="http://www.w3.org/1999/02/22-rdf-syntax-ns#" xmlns="http://www.w3.org/2000/svg" height="16" width="16" version="1.1" xmlns:cc="http://creativecommons.org/ns#" xmlns:dc="http://purl.org/dc/elements/1.1/">
 <defs id="defs3051">
  <style id="current-color-scheme" type="text/css">.ColorScheme-Text {
        color:#4d4d4d;
      }
      .ColorScheme-Background {
        color:#eff0f1;
      }
      .ColorScheme-Highlight {
        color:#3daee9;
      }
      .ColorScheme-ViewText {
        color:#31363b;
      }
      .ColorScheme-ViewBackground {
        color:#fcfcfc;
      }
      .ColorScheme-ViewHover {
        color:#93cee9;
      }
      .ColorScheme-ViewFocus{
        color:#3daee9;
      }
      .ColorScheme-ButtonText {
        color:#31363b;
      }
      .ColorScheme-ButtonBackground {
        color:#eff0f1;
      }
      .ColorScheme-ButtonHover {
        color:#93cee9;
      }
      .ColorScheme-ButtonFocus{
        color:#3daee9;
      }</style>
 </defs>
 <metadata id="metadata3054">
  <rdf:RDF>
   <cc:Work rdf:about="">
    <dc:format>image/svg+xml</dc:format>
    <dc:type rdf:resource="http://purl.org/dc/dcmitype/StillImage"/>
    <dc:title/>
   </cc:Work>
  </rdf:RDF>
 </metadata>
 <g id="layer1" transform="translate(-421.71 -531.79)">
  <path id="path4141" opacity=".5" style="color-rendering:auto;text-decoration-color:#000000;color:#4d4d4d;isolation:auto;mix-blend-mode:normal;shape-rendering:auto;solid-color:#000000;block-progression:tb;text-decoration-line:none;text-decoration-style:solid;image-rendering:auto;white-space:normal;text-indent:0;text-transform:none" d="m3 1a2 2 0 0 0 -2 2 2 2 0 0 0 2 2 2 2 0 0 0 2 -2 2 2 0 0 0 -2 -2zm8.109 0c-0.259 0.004-0.507 0.1092-0.691 0.293l-3.5 3.5-0.5 0.5-2 2-1.5 1.5-0.5 0.5-1.125 1.125c-0.3904 0.39-0.3904 1.024 0 1.414l2.875 2.875c0.3905 0.39 1.0235 0.39 1.414 0l1.125-1.125 0.5-0.5 3.5-3.5 0.5-0.5 3.5-3.5c0.39-0.3905 0.39-1.0235 0-1.414l-2.875-2.875c-0.191-0.1914-0.452-0.29715-0.723-0.293zm-3.484 5.9141l0.0117 0.0117 1.4375 1.4375 0.0117 0.0117-3.2929 3.293-0.5 0.5-0.418 0.418-1.4609-1.461 0.4179-0.418 0.5-0.5 1.5-1.5 1.793-1.7929z" transform="translate(421.71 531.79)"/>
 </g>
</svg>
