<?xml version="1.0" encoding="UTF-8" standalone="no"?>
<!-- Created with Inkscape (http://www.inkscape.org/) -->
<svg id="svg7384" xmlns:rdf="http://www.w3.org/1999/02/22-rdf-syntax-ns#" style="enable-background:new" xmlns="http://www.w3.org/2000/svg" xmlns:osb="http://www.openswatchbook.org/uri/2009/osb" height="16" width="16" version="1.1" xmlns:cc="http://creativecommons.org/ns#" xmlns:dc="http://purl.org/dc/elements/1.1/">
 <metadata id="metadata90">
  <rdf:RDF>
   <cc:Work rdf:about="">
    <dc:format>image/svg+xml</dc:format>
    <dc:type rdf:resource="http://purl.org/dc/dcmitype/StillImage"/>
    <dc:title>Paper Symbolic Icon Theme</dc:title>
   </cc:Work>
  </rdf:RDF>
 </metadata>
 <title id="title8473">Paper Symbolic Icon Theme</title>
 <g id="layer12" transform="translate(-347.14 -41)">
  <path id="path4144" opacity=".5" style="color:#bebebe;enable-background:accumulate" d="m8 1c-3.866 0-7 3.134-7 7s3.134 7 7 7 7-3.134 7-7-3.134-7-7-7zm-3 4c0.5541 0 1 0.4494 1 1s-0.4459 1-1 1c-0.5542 0-1-0.4494-1-1s0.4458-1 1-1zm6 0c0.554 0 1 0.4494 1 1s-0.446 1-1 1-1-0.4494-1-1 0.446-1 1-1zm-3 5c1.5741 0.002 3.056 0.743 4 2h-8c0.9445-1.257 2.4259-1.998 4-2z" transform="translate(347.14 41)"/>
 </g>
</svg>
