<svg xmlns="http://www.w3.org/2000/svg" width="64" height="64" version="1.1" viewBox="0 0 64 64">
 <g transform="translate(0,-988.3622)">
  <path style="opacity:0.2" d="m 43.430878,996.36281 c -2.53698,0.192 -4.11162,1.0846 -5.801582,2.3756 -1.553858,-0.4232 -3.120124,-0.6298 -4.090416,-0.4354 -2.22338,0.4456 -3.805754,1.3388 -5.242922,2.79159 -0.08324,0 -0.17182,-0.076 -0.25394,-0.078 -2.28871,-0.036 -3.351242,0.6152 -3.87945,0.8084 -1.024356,0.3628 -1.868248,1.2024 -2.625368,1.843 -0.795578,-0.9042 -1.895132,-2.1944 -2.496443,-2.846 -1.76163,-1.98219 -3.341691,-3.25459 -4.711597,-3.74399 -1.959417,-0.685 -4.297716,-0.5092 -6.0164672,0.2138 -1.7187516,0.7228 -2.9327586,1.7992 -3.9341444,2.94319 -0.3343766,0.3818 -1.5208354,1.2044 -2.1643656,3.7092 -0.6435301,2.5048 0.2930624,4.838 1.0939032,6.2166 1.6016818,2.7574 3.8776366,5.2772 8.712157,11.139 0.259871,0.315 0.420963,0.5112 0.675876,0.8202 -0.671758,0.3848 -1.374904,0.7082 -1.945585,1.2792 -1.7778126,1.7796 -2.5658452,4.2342 -2.6253674,6.279 -0.07533,2.5874 1.0836182,4.5766 2.2229674,5.8826 1.138591,1.305 2.382643,2.1538 3.691923,2.8186 1.359568,0.691 1.549929,0.6702 2.785546,1.1392 1.235617,0.4688 2.853684,1.066 4.688157,1.7224 3.668944,1.3128 8.183682,2.8554 12.197018,4.059 1.860016,0.5578 3.35493,0.9788 5.219482,1.0574 1.142642,0.048 2.473702,-0.2698 3.738804,-0.7386 0.798882,-0.2012 1.547608,-0.5636 2.199526,-1.0652 l 0.0078,0 0.004,0 c 1.31268,-1.0112 4.182372,-3.424 7.27055,-6.0262 3.089158,-2.6034 5.49664,-4.5844 6.89159,-5.9176 0.451472,-0.4314 1.043742,-0.9586 1.70727,-1.9866 0.663528,-1.0282 1.198054,-2.6464 1.242362,-3.962 0.08862,-2.631 -0.589908,-3.8108 -1.246268,-5.7112 -1.492356,-4.3214 -3.480768,-8.9878 -5.446074,-12.9546 -0.982654,-1.9834 -1.950828,-3.7836 -2.910564,-5.3304 -0.959738,-1.5468 -1.55556,-2.73439 -3.457516,-4.23399 -1.877518,-1.4808 -3.715696,-2.0882 -5.50077,-2.0684 z"/>
  <path style="fill:#4f4f4f" d="m 43.430878,995.3628 c -2.53698,0.192 -4.11162,1.0846 -5.801582,2.3756 -1.553858,-0.4232 -3.120124,-0.6298 -4.090416,-0.4354 -2.22338,0.4456 -3.805754,1.3388 -5.242922,2.7916 -0.08324,0 -0.17182,-0.076 -0.25394,-0.078 -2.28871,-0.036 -3.351242,0.6152 -3.87945,0.8084 -1.024356,0.3628 -1.868248,1.2024 -2.625368,1.843 -0.795578,-0.9042 -1.895132,-2.1944 -2.496443,-2.846 -1.76163,-1.9822 -3.341691,-3.2546 -4.711597,-3.744 -1.959417,-0.685 -4.297716,-0.5092 -6.0164672,0.2138 -1.7187516,0.7228 -2.9327586,1.7992 -3.9341444,2.9432 -0.3343766,0.3818 -1.5208354,1.2044 -2.1643656,3.7092 -0.6435301,2.5048 0.2930624,4.838 1.0939032,6.2166 1.6016818,2.7574 3.8776366,5.2772 8.712157,11.139 0.259871,0.315 0.420963,0.5112 0.675876,0.8202 -0.671758,0.3848 -1.374904,0.7082 -1.945585,1.2792 -1.7778126,1.7796 -2.5658452,4.2342 -2.6253674,6.279 -0.07533,2.5874 1.0836182,4.5766 2.2229674,5.8826 1.138591,1.305 2.382643,2.1538 3.691923,2.8186 1.359568,0.691 1.549929,0.6702 2.785546,1.1392 1.235617,0.4688 2.853684,1.066 4.688157,1.7224 3.668944,1.3128 8.183682,2.8554 12.197018,4.059 1.860016,0.5578 3.35493,0.9788 5.219482,1.0574 1.142642,0.048 2.473702,-0.2698 3.738804,-0.7386 0.798882,-0.2012 1.547608,-0.5636 2.199526,-1.0652 l 0.0078,0 0.004,0 c 1.31268,-1.0112 4.182372,-3.424 7.27055,-6.0262 3.089158,-2.6034 5.49664,-4.5844 6.89159,-5.9176 0.451472,-0.4314 1.043742,-0.9586 1.70727,-1.9866 0.663528,-1.0282 1.198054,-2.6464 1.242362,-3.962 0.08862,-2.631 -0.589908,-3.8108 -1.246268,-5.7112 -1.492356,-4.3214 -3.480768,-8.9878 -5.446074,-12.9546 -0.982654,-1.9834 -1.950828,-3.7836 -2.910564,-5.3304 -0.959738,-1.5468 -1.55556,-2.7344 -3.457516,-4.234 -1.877518,-1.4808 -3.715696,-2.0882 -5.50077,-2.0684 z"/>
  <path style="opacity:0.2" d="m 41.212742,1039.7928 c 1.698302,-1.3142 12.585656,-10.5336 13.678886,-11.5834 1.439636,-1.3822 1.451776,-1.7448 0.1823,-5.4382 -2.777992,-8.0834 -7.664564,-18.129 -9.864172,-19.8716 -0.915572,-0.7256 -2.605002,-0.7146 -3.792066,0.022 -1.655424,1.0306 -1.581882,2.4168 0.302752,5.7082 0.67889,1.1856 1.234338,2.6358 1.234338,2.7344 0,0.098 -0.235804,0.18 -0.52401,0.18 -0.368968,0 -1.212216,-1.0454 -2.85024,-3.533 -2.492468,-3.7864 -3.211914,-4.3878 -4.849562,-4.058 -1.23462,0.2486 -2.641198,1.2026 -3.104822,2.1056 -0.53617,1.0444 -0.314738,1.5722 2.181436,5.2004 1.533238,2.2288 1.951562,3.0258 1.713478,3.2658 -0.17326,0.176 -0.402344,0.317 -0.509102,0.317 -0.10676,0 -1.502842,-1.793 -3.102368,-3.9846 -1.022824,-1.4012 -1.820686,-2.4314 -2.415852,-3.116 -1.023322,-1.393 -1.993866,-0.9606 -3.248888,-0.499 -0.898318,0.4418 -1.806922,1.078 -2.254854,1.6696 -1.053114,1.3906 -0.897628,2.2688 0.831768,4.6968 0.831378,1.1672 2.065254,2.8064 2.741948,3.6432 1.184676,1.465 1.470764,2.4976 0.757484,2.7338 -0.41472,0.136 -0.19948,0.3744 -8.152204,-8.974 -4.92518,-5.7896 -7.237938,-8.3078 -7.816259,-8.5108 -1.089207,-0.3826 -2.275359,0.118 -3.439238,1.4542 -1.7207996,1.974 -1.9228988,1.6244 7.755698,13.4166 4.751007,5.7884 8.758811,10.682 8.906241,10.8746 0.547048,0.7148 -0.934094,-0.134 -3.530222,-1.0018 -2.185507,-0.73 -2.977643,-0.87 -4.408584,-0.7782 -2.371221,0.198 -3.449629,1.5012 -3.50184,3.3036 -0.03647,1.2586 1.169865,2.4712 2.645684,3.224 0.844464,0.4312 10.988682,4.2384 18.671158,6.5532 3.357056,1.0116 4.696274,1.0686 5.761092,0.2444 z"/>
  <path style="fill:#ffffff" d="m 41.212742,1038.7928 c 1.698302,-1.3142 12.585656,-10.5336 13.678886,-11.5834 1.439636,-1.3822 1.451776,-1.7448 0.1823,-5.4382 -2.777992,-8.0834 -7.664564,-18.129 -9.864172,-19.8716 -0.915572,-0.7256 -2.605002,-0.7146 -3.792066,0.022 -1.655424,1.0306 -1.581882,2.4168 0.302752,5.7082 0.67889,1.1856 1.234338,2.6358 1.234338,2.7344 0,0.098 -0.235804,0.18 -0.52401,0.18 -0.368968,0 -1.212216,-1.0454 -2.85024,-3.533 -2.492468,-3.7864 -3.211914,-4.3878 -4.849562,-4.058 -1.23462,0.2486 -2.641198,1.2026 -3.104822,2.1056 -0.53617,1.0444 -0.314738,1.5722 2.181436,5.2004 1.533238,2.2288 1.951562,3.0258 1.713478,3.2658 -0.17326,0.176 -0.402344,0.317 -0.509102,0.317 -0.10676,0 -1.502842,-1.793 -3.102368,-3.9846 -1.022824,-1.4012 -1.820686,-2.4314 -2.415852,-3.116 -1.023322,-1.393 -1.993866,-0.9606 -3.248888,-0.499 -0.898318,0.4418 -1.806922,1.078 -2.254854,1.6696 -1.053114,1.3906 -0.897628,2.2688 0.831768,4.6968 0.831378,1.1672 2.065254,2.8064 2.741948,3.6432 1.184676,1.465 1.470764,2.4976 0.757484,2.7338 -0.41472,0.136 -0.19948,0.3744 -8.152204,-8.974 -4.92518,-5.7896 -7.237938,-8.3078 -7.816259,-8.5108 -1.089207,-0.3826 -2.275359,0.118 -3.439238,1.4542 -1.7207996,1.974 -1.9228988,1.6244 7.755698,13.4166 4.751007,5.7884 8.758811,10.682 8.906241,10.8746 0.547048,0.7148 -0.934094,-0.134 -3.530222,-1.0018 -2.185507,-0.73 -2.977643,-0.87 -4.408584,-0.7782 -2.371221,0.198 -3.449629,1.5012 -3.50184,3.3036 -0.03647,1.2586 1.169865,2.4712 2.645684,3.224 0.844464,0.4312 10.988682,4.2384 18.671158,6.5532 3.357056,1.0116 4.696274,1.0686 5.761092,0.2444 z"/>
  <path style="opacity:0.1;fill:#ffffff" d="M 43.431641 7 C 40.894661 7.192 39.318868 8.0859531 37.628906 9.3769531 C 36.075048 8.9537531 34.509355 8.7470062 33.539062 8.9414062 C 31.315683 9.3870063 29.734043 10.279622 28.296875 11.732422 C 28.213635 11.732422 28.125089 11.656297 28.042969 11.654297 C 25.754259 11.618297 24.690317 12.269691 24.162109 12.462891 C 23.137753 12.825691 22.294229 13.666041 21.537109 14.306641 C 20.741531 13.402441 19.642327 12.110584 19.041016 11.458984 C 17.279386 9.4767844 15.699984 8.2042438 14.330078 7.7148438 C 12.370661 7.0298438 10.031251 7.2066875 8.3125 7.9296875 C 6.5937484 8.6524875 5.3802921 9.7290469 4.3789062 10.873047 C 4.0445297 11.254847 2.858374 12.077231 2.2148438 14.582031 C 2.0187964 15.345103 1.9805624 16.087793 2.0292969 16.796875 C 2.0572988 16.397791 2.1090336 15.993874 2.2148438 15.582031 C 2.858374 13.077231 4.0445297 12.254847 4.3789062 11.873047 C 5.3802921 10.729057 6.5937484 9.6524875 8.3125 8.9296875 C 10.031251 8.2066875 12.370661 8.0298438 14.330078 8.7148438 C 15.699984 9.2042438 17.279386 10.476794 19.041016 12.458984 C 19.642327 13.110584 20.741531 14.402441 21.537109 15.306641 C 22.294229 14.666041 23.137753 13.825691 24.162109 13.462891 C 24.690317 13.269691 25.754259 12.618297 28.042969 12.654297 C 28.125089 12.656297 28.213635 12.732422 28.296875 12.732422 C 29.734043 11.279632 31.315683 10.387006 33.539062 9.9414062 C 34.509355 9.7470062 36.075048 9.9537531 37.628906 10.376953 C 39.318868 9.0859531 40.894661 8.192 43.431641 8 C 45.216715 7.9802 47.054123 8.5875594 48.931641 10.068359 C 50.833597 11.567959 51.428934 12.755934 52.388672 14.302734 C 53.348408 15.849534 54.318127 17.649413 55.300781 19.632812 C 57.266087 23.599613 59.253738 28.266491 60.746094 32.587891 C 61.316668 34.239911 61.902718 35.350222 61.988281 37.339844 C 61.988818 37.326709 61.991747 37.311903 61.992188 37.298828 C 62.080807 34.667828 61.402454 33.488291 60.746094 31.587891 C 59.253738 27.266491 57.266087 22.599613 55.300781 18.632812 C 54.318127 16.649413 53.348408 14.849534 52.388672 13.302734 C 51.428934 11.755934 50.833597 10.567959 48.931641 9.0683594 C 47.054123 7.5875594 45.216715 6.9802 43.431641 7 z M 12.132812 33.076172 C 11.644813 33.346364 11.161649 33.62523 10.75 34.037109 C 8.9721874 35.816709 8.1845222 38.271606 8.125 40.316406 C 8.1178692 40.561331 8.1325589 40.795164 8.1464844 41.029297 C 8.2673729 39.044387 9.053465 36.73535 10.75 35.037109 C 11.320681 34.466109 12.023554 34.142613 12.695312 33.757812 C 12.483346 33.500871 12.325771 33.310283 12.132812 33.076172 z" transform="translate(0,988.3622)"/>
 </g>
</svg>
