<svg xmlns="http://www.w3.org/2000/svg" width="16" height="16" viewBox="0 0 16 16">
 <defs>
  <style id="current-color-scheme" type="text/css">
   .ColorScheme-Text { color:#31363b; } .ColorScheme-Highlight { color:#3daee9; }
  </style>
 </defs>
 <path style="fill:currentColor" class="ColorScheme-Text" d="M 1 1.0039062 C 0 1.0039062 0 2.0039062 0 2.0039062 L 0 12.003906 C 0 13.003906 1 13.003906 1 13.003906 L 6 13.003906 C 6 13.003906 5 13.003906 5 14.003906 L 5 15 L 11 15 L 11 14.003906 C 11 13.003906 10.021484 13.003906 10.021484 13.003906 L 15 13.003906 C 16 13.003906 16 12.003906 16 12.003906 L 16 2.0039062 C 16 2.0039062 16 1.0039062 15 1.0039062 L 1 1.0039062 z M 2 3.0039062 L 14 3.0039062 L 14 10.978516 L 2 11.003906 L 2 3.0039062 z"/>
</svg>
