<svg xmlns="http://www.w3.org/2000/svg" width="16" height="16" version="1.1">
 <path style="fill:#1370ba" d="M 2.8125,0 C 2.362375,0 2,0.3568 2,0.8 V 15.2 C 2,15.6432 2.362375,16 2.8125,16 h 11.375 C 14.637625,16 15,15.6432 15,15.2 V 5 L 11,4 10,0 Z"/>
 <path style="fill:#2993ea" d="M 15,5 10,0 V 4.1666667 C 10,4.6283333 10.371667,5 10.833333,5 Z"/>
 <path style="fill:#ffffff" d="M 10.558816,6.999995 C 9.8706966,6.999995 9.4706534,7.3889 9.2921586,7.7617139 9.1136637,8.1345278 9.1176413,8.5008321 9.1176413,8.5008321 a 0.20590266,0.21430714 0 1 0 0.4117642,-0.00167 c 0,0 0.00182,-0.2765529 0.1310888,-0.5465962 0.1292907,-0.2700483 0.3469977,-0.523998 0.8983217,-0.523998 0.551325,0 0.769031,0.2539527 0.898321,0.5239954 0.129291,0.2700433 0.13109,0.5465962 0.13109,0.5465962 a 0.20590266,0.21430714 0 1 0 0.411763,0.00167 c 0,0 0.0041,-0.3663042 -0.174516,-0.7391181 C 11.646979,7.3889026 11.246936,6.999995 10.558816,6.999995 Z m 0,1.2857143 c -0.113706,0 -0.205882,0.09594 -0.205882,0.2142858 0,0.1183465 0.09218,0.2142857 0.205882,0.2142857 0.113705,0 0.205882,-0.095939 0.205882,-0.2142857 0,-0.1183466 -0.09218,-0.2142858 -0.205882,-0.2142858 z M 6.2352925,9.1428522 C 5.4117642,9.1428522 5,9.6075861 5,10.873879 v 1.915179 c 0,0 0,0.210937 0.2058821,0.210937 0.2058821,0 0.2058821,-0.210937 0.2058821,-0.210937 V 10.873879 C 5.4115175,9.9115156 5.637359,9.5714237 6.2352925,9.5714237 c 0.6125765,0 0.8235283,0.2991437 0.8235283,1.2857143 v 0.01674 1.915178 c 0,0 0,0.210938 0.205882,0.210938 0.05147,0 0.090074,-0.01288 0.1190253,-0.03265 0.086857,-0.05932 0.086857,-0.178285 0.086857,-0.178285 v -1.915175 c -2.469e-4,-0.9623634 0.2255946,-1.3024553 0.823528,-1.3024553 0.6125766,0 0.8235283,0.2991437 0.8235283,1.2857143 v 0.132254 0.279576 C 9.1176414,12.535266 9.7352877,13 10.558816,13 11.382344,13 11.99999,12.571429 11.99999,11.285715 V 9.3537898 c 0,-8e-7 0,-0.2109376 -0.205881,-0.2109376 -0.205882,0 -0.205882,0.2109372 -0.205882,0.2109376 V 11.28571 c 0,0.98657 -0.416835,1.285714 -1.029411,1.285714 -0.5979334,0 -1.029657,-0.340092 -1.0294104,-1.302456 v -0.329799 -0.08204 c 0,-1.2857137 -0.4117642,-1.7142851 -1.2352925,-1.7142851 -0.4858771,0 -0.8245683,0.1680403 -1.0237806,0.5608261 C 7.0727272,9.302159 6.729617,9.1428522 6.2352925,9.1428522 Z"/>
</svg>
