<svg xmlns="http://www.w3.org/2000/svg" width="24" height="24" version="1.1">
 <defs>
  <style id="current-color-scheme" type="text/css">
   .ColorScheme-Text { color:#dfdfdf; } .ColorScheme-Highlight { color:#4285f4; } .ColorScheme-NeutralText { color:#ff9800; } .ColorScheme-PositiveText { color:#4caf50; } .ColorScheme-NegativeText { color:#f44336; }
  </style>
 </defs>
 <path style="fill:currentColor" class="ColorScheme-Text" d="M 15,4 V 6 H 8 6 v 6 H 8 V 8 h 7 v 2 l 4,-3 z m 1.5,9 C 14.567003,13 13,14.567003 13,16.5 13,18.432997 14.567003,20 16.5,20 18.432997,20 20,18.432997 20,16.5 20,14.567003 18.432997,13 16.5,13 Z M 9,14 5,17 9,20 v -2 h 3.267578 C 12.09377,17.518845 12.00328,17.011575 12,16.5 12.0024,16.33281 12.01416,16.165884 12.03516,16 H 9 Z m 9.294922,1 H 19 v 0.708984 l -3,2.998047 -2,-2 V 16 h 0.707031 L 16,17.292969 Z"/>
</svg>
