<svg width="48" height="48" version="1.1" xmlns="http://www.w3.org/2000/svg">
 <path d="m10 5c-1.108 0-2 0.892-2 2v36c0 1.108 0.892 2 2 2h28c1.108 0 2-0.892 2-2v-26l-12-12z" style="opacity:.2"/>
 <path d="m10 4c-1.108 0-2 0.892-2 2v36c0 1.108 0.892 2 2 2h28c1.108 0 2-0.892 2-2v-26l-10-2-2-10z" style="fill:#f54b3e"/>
 <path d="m40 17-12-12v10c0 1.108 0.892 2 2 2z" style="opacity:.2"/>
 <path d="m40 16-12-12v10c0 1.108 0.892 2 2 2z" style="fill:#ff7d74"/>
 <path d="m10 4c-1.108 0-2 0.892-2 2v1c0-1.108 0.892-2 2-2h18v-1z" style="fill:#ffffff;opacity:.2"/>
 <path d="m24 18.999987-9 4.5v4l13.2 4.4-4.2 2.1-5-2.5v-1.5l-4-1.333333v4.833333l9 4.500013 9-4.500013v-4l-13.200006-4.400002 4.200006-2.099998 5 2.5v1.5l4 1.333333v-4.833333z" style="opacity:.2"/>
 <path d="m24 17.999987-9 4.5v4l13.2 4.4-4.2 2.1-5-2.5v-1.5l-4-1.333333v4.833333l9 4.500013 9-4.500013v-4l-13.200006-4.400002 4.200006-2.099998 5 2.5v1.5l4 1.333333v-4.833333z" style="fill:#ffffff"/>
</svg>
