<svg xmlns="http://www.w3.org/2000/svg" width="48" height="48" version="1.1">
 <path style="opacity:0.2" d="M 10,5 C 8.892,5 8,5.892 8,7 V 43 C 8,44.108 8.892,45 10,45 H 38 C 39.108,45 40,44.108 40,43 V 17 L 28,5 Z"/>
 <path style="fill:#e93a3a" d="M 10,4 C 8.892,4 8,4.892 8,6 V 42 C 8,43.108 8.892,44 10,44 H 38 C 39.108,44 40,43.108 40,42 V 16 L 30,14 28,4 Z"/>
 <path style="opacity:0.2" d="M 40,17 28,5 V 15 C 28,16.108 28.892,17 30,17 Z"/>
 <path style="fill:#f18080" d="M 40,16 28,4 V 14 C 28,15.108 28.892,16 30,16 Z"/>
 <path style="opacity:0.2;fill:#ffffff" d="M 10 4 C 8.892 4 8 4.892 8 6 L 8 7 C 8 5.892 8.892 5 10 5 L 28 5 L 28 4 L 10 4 z"/>
 <path style="opacity:0.2" d="m 28.990234,23.297109 c -0.118347,-0.0036 -0.244055,0.0019 -0.376953,0.01758 -1.185937,0.139933 -2.372785,0.329022 -3.523437,0.648438 -2.462932,0.6837 -3.234375,3.451171 -3.234375,3.451171 l -0.863281,5.357422 c -2e-6,0 -0.228912,2.458398 2.683593,2.138672 L 27,31.586172 v -0.972657 l -0.183594,0.03711 c 0,0 0.06747,0.747572 -0.324218,0.826171 -0.57181,0.114749 -1.146956,0.20681 -1.72461,0.28711 -0.368595,0.05124 -0.251953,-0.359375 -0.251953,-0.359375 l 0.646484,-4.314453 c 0,0 0.0016,-0.269627 0.576172,-0.394532 0.452518,-0.09837 0.908322,-0.176593 1.365235,-0.251953 0.348481,-0.05748 0.324218,0.251954 0.324218,0.251953 V 27.1975 l 3.34375,-0.501954 0.179688,-1.259765 c 0,0 -0.185723,-2.084786 -1.960938,-2.138672 z m -10.148437,1.720703 -6.152344,1.117188 -1.832031,12 3.253906,-0.710938 0.458984,-3.355469 2.197266,-0.43164 c 0,0 3.009725,-0.29158 3.955078,-3.382813 0.269903,-0.882564 0.306728,-1.824469 0.355469,-2.746094 0.126287,-2.387923 -2.236328,-2.490234 -2.236328,-2.490234 z M 38,28.000234 l -8,3 -2,-2 v 3 l -6,6 7,-4 3,3 -1,-4 z m -20.589844,0.162109 c 0.140993,0.0023 0.411635,0.07767 0.316406,0.636719 -0.06902,0.405202 -0.153298,0.849347 -0.199218,1.257813 -0.08883,0.790188 -0.681641,0.808593 -0.681641,0.808593 l -1.691406,0.306641 0.46875,-2.697266 1.707031,-0.30664 c 0,0 0.03308,-0.0066 0.08008,-0.0059 z"/>
 <path style="fill:#ffffff" d="M 28.990234 22.296875 C 28.871887 22.293283 28.746179 22.298772 28.613281 22.314453 C 27.427344 22.454386 26.240496 22.643475 25.089844 22.962891 C 22.626912 23.646591 21.855469 26.414062 21.855469 26.414062 L 20.992188 31.771484 C 20.992187 31.771484 20.763276 34.229882 23.675781 33.910156 L 27 30.585938 L 27 29.613281 L 26.816406 29.650391 C 26.816406 29.650391 26.883872 30.397963 26.492188 30.476562 C 25.920378 30.591311 25.345232 30.683372 24.767578 30.763672 C 24.398983 30.814909 24.515625 30.404297 24.515625 30.404297 L 25.162109 26.089844 C 25.162109 26.089844 25.163703 25.820217 25.738281 25.695312 C 26.190799 25.596942 26.646603 25.518719 27.103516 25.443359 C 27.451997 25.38588 27.427734 25.695312 27.427734 25.695312 L 27.427734 26.197266 L 30.771484 25.695312 L 30.951172 24.435547 C 30.951172 24.435547 30.765449 22.350761 28.990234 22.296875 z M 18.841797 24.017578 L 12.689453 25.134766 L 10.857422 37.134766 L 14.111328 36.423828 L 14.570312 33.068359 L 16.767578 32.636719 C 16.767578 32.636719 19.777303 32.345139 20.722656 29.253906 C 20.992559 28.371342 21.029384 27.429437 21.078125 26.507812 C 21.204412 24.119889 18.841797 24.017578 18.841797 24.017578 z M 38 27 L 30 30 L 28 28 L 28 31 L 22 37 L 29 33 L 32 36 L 31 32 L 38 27 z M 17.410156 27.162109 C 17.551149 27.164409 17.821791 27.239779 17.726562 27.798828 C 17.657543 28.20403 17.573264 28.648175 17.527344 29.056641 C 17.438514 29.846829 16.845703 29.865234 16.845703 29.865234 L 15.154297 30.171875 L 15.623047 27.474609 L 17.330078 27.167969 C 17.330078 27.167969 17.363156 27.161409 17.410156 27.162109 z"/>
 <path style="fill:#ffffff" d="m 22,37 6,-6 v -3 l 2,2 8,-3 -7,5 1,4 -3,-3 z"/>
</svg>
