<svg xmlns="http://www.w3.org/2000/svg" width="48" height="48" version="1.1">
 <path style="opacity:0.2" d="M 10,5 C 8.892,5 8,5.892 8,7 V 43 C 8,44.108 8.892,45 10,45 H 38 C 39.108,45 40,44.108 40,43 V 17 L 28,5 Z"/>
 <path style="fill:#e4e4e4" d="M 10,4 C 8.892,4 8,4.892 8,6 V 42 C 8,43.108 8.892,44 10,44 H 38 C 39.108,44 40,43.108 40,42 V 16 L 30,14 28,4 Z"/>
 <path style="opacity:0.2" d="M 40,17 28,5 V 15 C 28,16.108 28.892,17 30,17 Z"/>
 <path style="fill:#fafafa" d="M 40,16 28,4 V 14 C 28,15.108 28.892,16 30,16 Z"/>
 <path style="opacity:0.2;fill:#ffffff" d="M 10 4 C 8.892 4 8 4.892 8 6 L 8 7 C 8 5.892 8.892 5 10 5 L 28 5 L 28 4 L 10 4 z"/>
 <path style="fill:#8e8e8e" d="m 32.656631,21.000071 c -0.847196,0.0099 -5.824317,1.13843 -6.22233,1.557004 -0.770879,1.133545 -7.932931,9.707331 -11.294979,12.775723 0.497939,1.249965 3.040848,2.719467 3.88018,3.667197 1.60747,-1.244072 6.802669,-7.054533 12.743053,-11.278731 0.499584,-1.062731 1.378083,-5.868825 1.005972,-6.708099 -0.01719,-0.0098 -0.05542,-0.01376 -0.111896,-0.01309 z M 15.383082,21.44031 c -0.196446,-0.0591 -0.361452,0.04385 -0.383082,0.08895 0,0 1.114272,4.873304 1.407484,5.448967 0.583223,0.513211 2.390289,2.269473 3.009142,2.309866 0.193647,-0.125346 3.245595,-3.570484 3.333861,-4.122187 0.06358,-0.397422 -1.558785,-1.660878 -2.661384,-2.726667 -0.12256,-0.0817 -3.448834,-0.620704 -4.706021,-0.998925 z m 0.165431,0.583215 0.141516,0.02837 c 0.254861,0.518993 0.454169,2.4528 0.454169,2.4528 0,0 -0.416673,-1.970685 -0.595685,-2.481168 z m 3.57411,0.482268 c 0.158877,-0.0029 0.864456,0.159302 0.864456,0.159302 0.295714,0.203905 0.406997,0.438623 0.406997,0.438623 0,0 -0.64379,-0.315995 -1.295587,-0.594652 0.0054,-0.0018 0.01355,-0.0032 0.02413,-0.0033 z m 7.143832,1.308233 c 0,0 -3.528077,5.826572 -10.178205,11.379112 6.075398,-5.749046 10.178205,-11.379112 10.178205,-11.379112 z m -0.618721,0.232405 c 0,0 -2.85709,4.365877 -7.495979,8.535697 4.179585,-4.322297 7.495979,-8.535697 7.495979,-8.535697 z m 3.283398,0.305508 c 0.42876,-0.01213 0.820456,0.204541 0.887493,0.828147 0.219087,2.038059 -2.392985,1.681866 -2.115066,-0.02509 0.06409,-0.393679 0.676308,-0.78745 1.227573,-0.803052 z m 2.912603,1.596284 c 0.08271,-0.01236 0.167629,0.08863 0.155778,0.174576 -0.244112,1.770328 -0.716407,1.624219 -3.232936,3.636646 1.561548,-1.676194 2.812664,-1.9527 2.933448,-3.515533 0.01601,-0.207242 0.07938,-0.286074 0.14371,-0.295689 z m -2.749147,5.3715 c 0,0 -2.185101,1.034307 -3.58508,3.255849 0.420161,0.655643 4.572844,3.903205 4.86092,4.094911 C 30.844233,38.553735 33,35.900172 33,35.900172 c 0,0 -2.273699,-3.019084 -3.905412,-4.580449 z m -1.858362,1.92034 c 0,0 -0.851202,0.951881 -0.868845,1.682481 l 0.698807,0.619746 -1.227572,-0.932894 z m -2.885178,0.225859 -2.922477,2.846687 c 0,-1e-6 1.237734,-1.51777 2.922477,-2.846687 z m 4.016212,2.865236 c 0.881305,0.657387 1.799705,1.331825 1.945027,1.476262 0.139996,0.139148 -0.0066,0.220404 -0.0066,0.220404 -0.226734,-0.09135 -1.823148,-1.514977 -1.938444,-1.696666 z"/>
</svg>
