<svg xmlns="http://www.w3.org/2000/svg" width="48" height="48" version="1">
 <path style="opacity:0.2" d="M 10,5 C 8.892,5 8,5.892 8,7 v 36 c 0,1.108 0.892,2 2,2 h 28 c 1.108,0 2,-0.892 2,-2 V 17 L 29,16 28,5 Z"/>
 <path style="fill:#008cff" d="m10 4c-1.108 0-2 0.892-2 2v36c0 1.108 0.892 2 2 2h28c1.108 0 2-0.892 2-2v-26l-11-1-1-11z"/>
 <path fill="#fff" style="opacity:0.2" d="m10 4c-1.108 0-2 0.892-2 2v1c0-1.108 0.892-2 2-2h18l11 11h1l-12-12z"/>
 <path style="opacity:0.2" d="m 28,5 v 10 c 0,1.1046 0.89543,2 2,2 h 10 z"/>
 <path style="fill:#54b1ff" d="m28 4v10c0 1.1046 0.89543 2 2 2h10l-12-12z"/>
 <path style="opacity:0.2;fill-rule:evenodd" d="m 20.520242,39.403587 c -0.67912,-0.217967 -1.131867,-0.449414 -1.810988,-0.898831 2.693845,0.199992 6.179997,-0.449417 8.556921,-2.5392 0,0 4.50483,-3.482975 1.358241,-9.190561 0,0 0.452744,2.292022 -0.144883,4.20204 0,0 -0.679119,2.584145 -3.486151,3.325678 -4.187909,1.123544 -8.941752,-1.797662 -10.93384,-3.100969 -0.15167,-1.34825 -0.0181,-2.853793 0.452747,-4.291925 0.67912,-2.022374 2.286374,-3.752625 4.097361,-4.853696 -0.452747,3.078502 -0.09507,5.909824 0.452747,7.078306 0.67912,1.572956 1.810988,3.438034 4.255822,3.685212 2.354283,0.22471 3.644614,-1.797665 3.644614,-1.797665 1.131866,-1.797663 1.358241,-4.314395 1.358241,-4.381807 -0.01812,-0.06292 -0.226375,-0.224708 -0.226375,-0.224708 -0.905492,3.168384 -2.263732,4.224511 -2.263732,4.224511 -2.037364,2.022373 -3.599342,0.674125 -3.599342,0.674125 -1.584614,-1.572957 -0.452746,-4.381808 -0.452746,-4.381808 0.67912,-1.797664 2.467471,-4.539103 4.550106,-5.932292 0.452747,0.08314 0.679122,0.134825 1.131871,0.224707 1.358241,0.449416 2.354281,1.12354 3.282414,2.022373 -1.584615,0.449416 -3.984174,1.572957 -3.984174,1.572957 -3.893624,1.572956 -4.142635,3.977333 -4.142635,3.977333 -0.452747,2.471788 1.584615,1.348247 1.584615,1.348247 2.037361,-0.898831 3.101316,-4.044744 3.101316,-4.044744 -0.679118,-0.119094 -1.131866,0.07191 -1.131866,0.07191 -0.905496,2.022372 -2.535384,2.80885 -2.535384,2.80885 -0.679121,0.449415 -0.905494,-0.224708 -0.905494,-0.224708 -0.113182,-0.449417 0.452746,-0.449417 0.452746,-0.449417 0.905494,-0.449416 1.584615,-1.348248 1.584615,-1.572956 0.13356,-0.449417 0.452747,-0.449417 0.452747,-0.449417 1.35824,-0.449415 2.422196,-0.449415 2.422196,-0.449415 1.584615,-0.186508 3.984174,0.449415 3.984174,0.449415 0.452748,0.208979 1.131867,0.449417 1.584615,0.449417 0.905493,2.022373 1.131866,4.561574 0.147143,6.89854 -1.81099,5.010986 -7.628786,7.617603 -12.81274,5.774995 z"/>
 <path style="fill:#ffffff;fill-rule:evenodd" d="m 20.520242,38.403587 c -0.67912,-0.217967 -1.131867,-0.449414 -1.810988,-0.898831 2.693845,0.199992 6.179997,-0.449417 8.556921,-2.5392 0,0 4.50483,-3.482975 1.358241,-9.190561 0,0 0.452744,2.292022 -0.144883,4.20204 0,0 -0.679119,2.584145 -3.486151,3.325678 -4.187909,1.123544 -8.941752,-1.797662 -10.93384,-3.100969 -0.15167,-1.34825 -0.0181,-2.853793 0.452747,-4.291925 0.67912,-2.022374 2.286374,-3.752625 4.097361,-4.853696 -0.452747,3.078502 -0.09507,5.909824 0.452747,7.078306 0.67912,1.572956 1.810988,3.438034 4.255822,3.685212 2.354283,0.22471 3.644614,-1.797665 3.644614,-1.797665 1.131866,-1.797663 1.358241,-4.314395 1.358241,-4.381807 -0.01812,-0.06292 -0.226375,-0.224708 -0.226375,-0.224708 -0.905492,3.168384 -2.263732,4.224511 -2.263732,4.224511 -2.037364,2.022373 -3.599342,0.674125 -3.599342,0.674125 -1.584614,-1.572957 -0.452746,-4.381808 -0.452746,-4.381808 0.67912,-1.797664 2.467471,-4.539103 4.550106,-5.932292 0.452747,0.08314 0.679122,0.134825 1.131871,0.224707 1.358241,0.449416 2.354281,1.12354 3.282414,2.022373 -1.584615,0.449416 -3.984174,1.572957 -3.984174,1.572957 -3.893624,1.572956 -4.142635,3.977333 -4.142635,3.977333 -0.452747,2.471788 1.584615,1.348247 1.584615,1.348247 2.037361,-0.898831 3.101316,-4.044744 3.101316,-4.044744 -0.679118,-0.119094 -1.131866,0.07191 -1.131866,0.07191 -0.905496,2.022372 -2.535384,2.80885 -2.535384,2.80885 -0.679121,0.449415 -0.905494,-0.224708 -0.905494,-0.224708 -0.113182,-0.449417 0.452746,-0.449417 0.452746,-0.449417 0.905494,-0.449416 1.584615,-1.348248 1.584615,-1.572956 0.13356,-0.449417 0.452747,-0.449417 0.452747,-0.449417 1.35824,-0.449415 2.422196,-0.449415 2.422196,-0.449415 1.584615,-0.186508 3.984174,0.449415 3.984174,0.449415 0.452748,0.208979 1.131867,0.449417 1.584615,0.449417 0.905493,2.022373 1.131866,4.561574 0.147143,6.89854 -1.81099,5.010986 -7.628786,7.617603 -12.81274,5.774995 z"/>
</svg>
