<svg width="48" height="48" version="1.1" xmlns="http://www.w3.org/2000/svg">
 <path d="m10 5c-1.108 0-2 0.892-2 2v36c0 1.108 0.892 2 2 2h28c1.108 0 2-0.892 2-2v-26l-12-12z" style="opacity:.2"/>
 <path d="m10 4c-1.108 0-2 0.892-2 2v36c0 1.108 0.892 2 2 2h28c1.108 0 2-0.892 2-2v-26l-10-2-2-10z" style="fill:#6657ac"/>
 <path d="m18.34375 21.978556c-0.09523 6e-3 -0.17291 0.03567-0.230469 0.08789-0.319239 0.290161 0.03865 1.197572 0.798828 2.025391 0.759385 0.826779 1.632152 1.260538 1.949219 0.96875 0.317413-0.291069-0.04017-1.196818-0.798828-2.023438-0.603-0.656712-1.299957-1.085974-1.71875-1.058593zm10.291016 0.0059c-0.42692 0.0062-1.095597 0.40413-1.683594 1.001953-0.78586 0.799145-1.174703 1.691298-0.869141 1.994141 0.305919 0.304221 1.194116-0.09919 1.982422-0.900391 0.787428-0.800319 1.176613-1.694133 0.869141-1.996094-0.06904-0.06781-0.170373-0.101593-0.298828-0.09961zm5.703125 3.023437c-0.428412 0.0081-1.000057 0.175683-1.552735 0.455079-1.000726 0.505418-1.655297 1.226407-1.46289 1.611328 0.192988 0.38562 1.163191 0.287637 2.166015-0.21875 1.002726-0.506633 1.657117-1.229263 1.460938-1.613281-0.07933-0.157137-0.294779-0.239737-0.611328-0.234376zm-10.296875 0.896147c-3.686071 0.0552-8.928012 2.371282-9.00586 5.855766-0.0881 3.943606 5.965374 5.042174 9.457032 5.089843 2.962405 0.04044 6.49702-1.414787 7.621093-3.669921 0.244362-0.490242-0.07552-1.488436-0.109375-2.035157-0.02467-0.398238 0.166566-0.794576 0.125-1.191406-0.296813-2.833564-5.322584-4.090543-8.08789-4.049125zm-11.41211 0.670219c-0.264815-0.0085-0.449981 0.05889-0.53125 0.193359-0.222511 0.368819 0.375548 1.138252 1.335938 1.71875 0.961 0.580726 1.920448 0.75215 2.142578 0.382813 0.222511-0.368819-0.375548-1.138252-1.335938-1.71875-0.574515-0.347006-1.177528-0.562629-1.611328-0.576172zm11.564453 2.384765 0.957032 0.115235s-0.242314 0.53612-0.144532 0.783203c0.150279 0.379741 0.589104 0.631693 0.986329 0.726562 0.286269 0.06837 0.757168 0.126846 0.871093-0.144531 0.09145-0.217835-0.447995-0.349857-0.404297-0.582031 0.05163-0.274318 0.43181-0.556942 0.695313-0.464844 0.84609 0.147233 2.845265 0.608371 2.822265 1.308594-0.0895 2.724759-3.513823 3.813287-5.638671 3.773437-2.140928-0.04015-5.45565-0.86304-5.361329-2.65039 0.07057-1.33709 2.195173-2.579283 2.904297-2.56836 0.527084 0.0082 0.07991 1.263035 1.00586 1.298829 0.474224 0.01834 1.37774-0.02141 1.335937-0.494141-0.03378-0.381951-1.036702 0.168077-1.132812-0.203125-0.118953-0.459429 1.103515-0.898438 1.103515-0.898438zm10.578125 1.888672c-0.976502-0.0017-1.708592 0.273674-1.734375 0.652344-0.02876 0.429725 0.855152 0.839771 1.97461 0.916016 1.118083 0.07605 2.048624-0.209664 2.080078-0.638672 0.03162-0.430313-0.853118-0.841614-1.974609-0.917969-0.115641-0.0077-0.231297-0.01165-0.345704-0.01172zm-13.380859 0.94336c-0.180796 0.0036-0.302188 0.05318-0.328125 0.177734-0.144084 0.69189 1.607764 1.005253 2.505859 1.070312 2.143086 0.155258 3.808934 0.116529 3.777344-0.65625-0.02292-0.560594-0.473055-0.219361-3.695312-0.207031-0.639351 0.0024-1.717379-0.395589-2.259766-0.384765zm-9.224609 0.964843c-0.06757 6.45e-4 -0.135364 0.0026-0.203125 0.0059-1.12059 0.05211-2.0131469 0.442875-1.994141 0.873047 0.01888 0.430729 0.944386 0.737772 2.066406 0.685546 1.120589-0.05211 2.013145-0.442875 1.994141-0.873046-0.01714-0.400693-0.822919-0.699694-1.863281-0.691407zm20.384765 3.210938c-0.265402-0.0096-0.451268 0.05711-0.533203 0.191406-0.22405 0.367928 0.371411 1.139142 1.330078 1.722656 0.959097 0.5839 1.918554 0.758824 2.142578 0.390625 0.22405-0.367928-0.371411-1.139142-1.330078-1.722656-0.573011-0.348752-1.175218-0.566541-1.609375-0.582031zm-15.96875 1.035156c-0.434883 0.0027-1.091291 0.295422-1.699219 0.757813-0.892516 0.678391-1.4055 1.505981-1.146484 1.849609 0.259859 0.343864 1.195715 0.07185 2.089844-0.607422 0.894293-0.679428 1.407754-1.508663 1.146484-1.851562-0.07435-0.09827-0.208218-0.149134-0.390625-0.148438zm5.140625 0.939453c-0.409951-0.01754-1.034761 0.613866-1.480468 1.496094-0.506376 1.001786-0.605192 1.971578-0.220704 2.166016 0.384664 0.194294 1.107059-0.460759 1.613282-1.462891 0.505336-1.000547 0.604081-1.96877 0.220703-2.164063-0.03991-0.02086-0.08435-0.03262-0.132813-0.03516zm5.78125 0.05273c-0.0265 0.0027-0.05193 0.0086-0.07617 0.01758-0.402509 0.153835-0.404258 1.128929-0.0039 2.177734 0.399982 1.048572 1.050524 1.774312 1.453125 1.621094 0.402509-0.153835 0.404258-1.128929 0.0039-2.177735-0.372169-0.975311-0.967389-1.683665-1.376953-1.638671z" style="opacity:.2"/>
 <path d="m40 17-12-12v10c0 1.108 0.892 2 2 2z" style="opacity:.2"/>
 <path d="m40 16-12-12v10c0 1.108 0.892 2 2 2z" style="fill:#877cbe"/>
 <path d="m10 4c-1.108 0-2 0.892-2 2v1c0-1.108 0.892-2 2-2h18v-1h-18z" style="fill:#ffffff;opacity:.1"/>
 <path d="m18.34375 20.978516c-0.09523 6e-3 -0.17291 0.03567-0.230469 0.08789-0.319239 0.290161 0.03865 1.197572 0.798828 2.025391 0.759385 0.826779 1.632152 1.260538 1.949219 0.96875 0.317413-0.291069-0.04017-1.196818-0.798828-2.023438-0.603-0.656712-1.299957-1.085974-1.71875-1.058593zm10.291016 0.0059c-0.42692 0.0062-1.095597 0.40413-1.683594 1.001953-0.78586 0.799145-1.174703 1.691298-0.869141 1.994141 0.305919 0.304221 1.194116-0.09919 1.982422-0.900391 0.787428-0.800319 1.176613-1.694133 0.869141-1.996094-0.06904-0.06781-0.170373-0.101593-0.298828-0.09961zm5.703125 3.023437c-0.428412 0.0081-1.000057 0.175683-1.552735 0.455079-1.000726 0.505418-1.655297 1.226407-1.46289 1.611328 0.192988 0.38562 1.163191 0.287637 2.166015-0.21875 1.002726-0.506633 1.657117-1.229263 1.460938-1.613281-0.07933-0.157137-0.294779-0.239737-0.611328-0.234376zm-10.296875 0.896147c-3.686071 0.0552-8.928012 2.371282-9.00586 5.855766-0.0881 3.943606 5.965374 5.042174 9.457032 5.089843 2.962405 0.04044 6.49702-1.414787 7.621093-3.669921 0.244362-0.490242-0.07552-1.488436-0.109375-2.035157-0.02467-0.398238 0.166566-0.794576 0.125-1.191406-0.296813-2.833564-5.322584-4.090543-8.08789-4.049125zm-11.41211 0.670219c-0.264815-0.0085-0.449981 0.05889-0.53125 0.193359-0.222511 0.368819 0.375548 1.138252 1.335938 1.71875 0.961 0.580726 1.920448 0.75215 2.142578 0.382813 0.222511-0.368819-0.375548-1.138252-1.335938-1.71875-0.574515-0.347006-1.177528-0.562629-1.611328-0.576172zm11.564453 2.384765 0.957032 0.115235s-0.242314 0.53612-0.144532 0.783203c0.150279 0.379741 0.589104 0.631693 0.986329 0.726562 0.286269 0.06837 0.757168 0.126846 0.871093-0.144531 0.09145-0.217835-0.447995-0.349857-0.404297-0.582031 0.05163-0.274318 0.43181-0.556942 0.695313-0.464844 0.84609 0.147233 2.845265 0.608371 2.822265 1.308594-0.0895 2.724759-3.513823 3.813287-5.638671 3.773437-2.140928-0.04015-5.45565-0.86304-5.361329-2.65039 0.07057-1.33709 2.195173-2.579283 2.904297-2.56836 0.527084 0.0082 0.07991 1.263035 1.00586 1.298829 0.474224 0.01834 1.37774-0.02141 1.335937-0.494141-0.03378-0.381951-1.036702 0.168077-1.132812-0.203125-0.118953-0.459429 1.103515-0.898438 1.103515-0.898438zm10.578125 1.888672c-0.976502-0.0017-1.708592 0.273674-1.734375 0.652344-0.02876 0.429725 0.855152 0.839771 1.97461 0.916016 1.118083 0.07605 2.048624-0.209664 2.080078-0.638672 0.03162-0.430313-0.853118-0.841614-1.974609-0.917969-0.115641-0.0077-0.231297-0.01165-0.345704-0.01172zm-13.380859 0.94336c-0.180796 0.0036-0.302188 0.05318-0.328125 0.177734-0.144084 0.69189 1.607764 1.005253 2.505859 1.070312 2.143086 0.155258 3.808934 0.116529 3.777344-0.65625-0.02292-0.560594-0.473055-0.219361-3.695312-0.207031-0.639351 0.0024-1.717379-0.395589-2.259766-0.384765zm-9.224609 0.964843c-0.06757 6.45e-4 -0.135364 0.0026-0.203125 0.0059-1.12059 0.05211-2.0131469 0.442875-1.994141 0.873047 0.01888 0.430729 0.944386 0.737772 2.066406 0.685546 1.120589-0.05211 2.013145-0.442875 1.994141-0.873046-0.01714-0.400693-0.822919-0.699694-1.863281-0.691407zm20.384765 3.210938c-0.265402-0.0096-0.451268 0.05711-0.533203 0.191406-0.22405 0.367928 0.371411 1.139142 1.330078 1.722656 0.959097 0.5839 1.918554 0.758824 2.142578 0.390625 0.22405-0.367928-0.371411-1.139142-1.330078-1.722656-0.573011-0.348752-1.175218-0.566541-1.609375-0.582031zm-15.96875 1.035156c-0.434883 0.0027-1.091291 0.295422-1.699219 0.757813-0.892516 0.678391-1.4055 1.505981-1.146484 1.849609 0.259859 0.343864 1.195715 0.07185 2.089844-0.607422 0.894293-0.679428 1.407754-1.508663 1.146484-1.851562-0.07435-0.09827-0.208218-0.149134-0.390625-0.148438zm5.140625 0.939453c-0.409951-0.01754-1.034761 0.613866-1.480468 1.496094-0.506376 1.001786-0.605192 1.971578-0.220704 2.166016 0.384664 0.194294 1.107059-0.460759 1.613282-1.462891 0.505336-1.000547 0.604081-1.96877 0.220703-2.164063-0.03991-0.02086-0.08435-0.03262-0.132813-0.03516zm5.78125 0.05273c-0.0265 0.0027-0.05193 0.0086-0.07617 0.01758-0.402509 0.153835-0.404258 1.128929-0.0039 2.177734 0.399982 1.048572 1.050524 1.774312 1.453125 1.621094 0.402509-0.153835 0.404258-1.128929 0.0039-2.177735-0.372169-0.975311-0.967389-1.683665-1.376953-1.638671z" style="fill:#efd211"/>
</svg>
