<?xml version="1.0" encoding="UTF-8" standalone="no"?>
<svg xmlns="http://www.w3.org/2000/svg" height="48" width="48" version="1">
 <g style="enable-background:new" transform="translate(-136 -236)">
  <path d="m155.5 239c-2.493 0-4.5 2.007-4.5 4.5v4.5h-9c-1.662 0-3 1.338-3 3v9h4.5c2.493 0 4.5 2.007 4.5 4.5s-2.007 4.5-4.5 4.5h-4.5v9c0 1.662 1.338 3 3 3h9v-4.5c0-2.493 2.007-4.5 4.5-4.5s4.5 2.007 4.5 4.5v4.5h9c1.662 0 3-1.338 3-3v-9h4.5c2.493 0 4.5-2.007 4.5-4.5s-2.007-4.5-4.5-4.5h-4.5v-9c0-1.662-1.338-3-3-3h-9v-4.5c0-2.493-2.007-4.5-4.5-4.5z" fill="#2279bf"/>
  <path opacity=".1" d="m155.5 163c-2.493 0-4.5 2.007-4.5 4.5v1c0-2.493 2.007-4.5 4.5-4.5s4.5 2.007 4.5 4.5v-1c0-2.493-2.007-4.5-4.5-4.5zm-13.5 9c-1.662 0-3 1.338-3 3v1c0-1.662 1.338-3 3-3h9v-1h-9zm18 0v1h9c1.662 0 3 1.338 3 3v-1c0-1.662-1.338-3-3-3h-9zm12 12v1h4.5c2.3214 0 4.1987 1.7476 4.4492 4 0.0185-0.16647 0.0508-0.32843 0.0508-0.5 0-2.493-2.007-4.5-4.5-4.5h-4.5zm-24.051 5c-0.25053 2.2524-2.1278 4-4.4492 4h-4.5v1h4.5c2.493 0 4.5-2.007 4.5-4.5 0-0.17157-0.0323-0.33353-0.0508-0.5z" fill="#fff" transform="translate(0,76)"/>
 </g>
</svg>
