<svg xmlns="http://www.w3.org/2000/svg" width="48" height="48" version="1">
 <g style="opacity:0.2" transform="translate(0,1)">
  <rect width="32" height="4" x="8" y="10"/>
  <rect width="32" height="4" x="8" y="16"/>
  <rect width="32" height="4" x="8" y="22"/>
  <rect width="32" height="4" x="8" y="28"/>
  <rect width="32" height="4" x="8" y="34"/>
 </g>
 <g style="fill:#b7b7b7">
  <rect width="32" height="4" x="8" y="10"/>
  <rect width="32" height="4" x="8" y="16"/>
  <rect width="32" height="4" x="8" y="22"/>
  <rect width="32" height="4" x="8" y="28"/>
  <rect width="32" height="4" x="8" y="34"/>
 </g>
 <rect style="opacity:0.2" width="28" height="36" x="10" y="7" rx="2" ry="2"/>
 <rect style="fill:#4f4f4f" width="28" height="36" x="10" y="6" rx="2" ry="2"/>
 <path style="opacity:0.1;fill:#ffffff" d="M 12 6 C 10.892 6 10 6.892 10 8 L 10 9 C 10 7.892 10.892 7 12 7 L 36 7 C 37.108 7 38 7.892 38 9 L 38 8 C 38 6.892 37.108 6 36 6 L 12 6 z"/>
 <g style="fill:#ffffff;opacity:0.4">
  <rect width="2" height="4" x="17" y="11"/>
  <rect width="2" height="4" x="17" y="17"/>
  <rect width="2" height="8" x="17" y="23"/>
  <rect width="2" height="11" x="23" y="11"/>
  <rect width="2" height="9" x="29" y="11"/>
  <rect width="2" height="11" x="23" y="24"/>
  <rect width="2" height="4" x="29" y="22"/>
  <rect width="2" height="9" x="29" y="28"/>
 </g>
</svg>
