<svg xmlns="http://www.w3.org/2000/svg" width="48" height="48" version="1.1">
 <path style="opacity:0.2" d="m10 5c-1.108 0-2 0.892-2 2v36c0 1.108 0.892 2 2 2h28c1.108 0 2-0.892 2-2v-26l-12-12z"/>
 <path style="fill:#4f4f4f" d="m10 4c-1.108 0-2 0.892-2 2v36c0 1.108 0.892 2 2 2h28c1.108 0 2-0.892 2-2v-26l-10-2-2-10z"/>
 <path style="opacity:0.2" d="m40 17-12-12v10c0 1.108 0.892 2 2 2z"/>
 <path style="fill:#696969" d="m40 16-12-12v10c0 1.108 0.892 2 2 2z"/>
 <path style="fill:#ffffff;opacity:0.1" d="m10 4c-1.108 0-2 0.892-2 2v1c0-1.108 0.892-2 2-2h18v-1h-18z"/>
 <path style="opacity:0.1" d="M 20.998,25.593 C 12.305,27.922 8.7346,31.985 9.5111,34.882 10.288,37.78 15.411,39.513 24.104,37.184 24.828,36.99 24.828,36.99 23.91,36.459 17.92,37.288 14.44,35.891 13.858,33.718 13.275,31.544 15.591,28.595 21.183,26.283 21.192,26.318 21.723,25.399 20.998,25.593 Z M 23.896,24.816 C 23.172,25.01 24.09,25.541 24.081,25.507 30.08,24.712 33.56,26.109 34.142,28.282 34.725,30.456 32.409,33.406 28.178,35.081 L 25.397,27.52 C 24.478,26.99 24.672,27.714 24.672,27.714 L 26.083,35.877 C 26.23,36.426 26.267,36.558 26.591,36.505 26.641,36.497 26.697,36.486 26.762,36.47 26.763,36.47 26.763,36.47 26.764,36.47 26.833,36.453 26.912,36.432 27.002,36.407 35.695,34.078 39.265,30.016 38.489,27.118 37.713,24.22 32.589,22.487 23.896,24.816 Z"/>
 <path style="fill:#fecd38" d="M 20.998,24.593 C 12.305,26.922 8.7346,30.985 9.5111,33.882 10.288,36.78 15.411,38.513 24.104,36.184 24.828,35.99 24.828,35.99 23.91,35.459 17.92,36.288 14.44,34.891 13.858,32.718 13.275,30.544 15.591,27.594 21.183,25.283 21.192,25.318 21.723,24.399 20.998,24.593 Z M 23.896,23.816 C 23.172,24.01 24.09,24.541 24.081,24.507 30.08,23.712 33.56,25.109 34.142,27.282 34.725,29.456 32.409,32.406 28.178,34.081 L 25.397,26.52 C 24.478,25.99 24.672,26.714 24.672,26.714 L 26.083,34.877 C 26.23,35.426 26.267,35.558 26.591,35.505 26.641,35.497 26.697,35.486 26.762,35.47 26.763,35.47 26.763,35.47 26.764,35.47 26.833,35.452 26.912,35.432 27.002,35.407 35.695,33.078 39.265,29.016 38.489,26.118 37.713,23.22 32.589,21.487 23.896,23.816 Z"/>
</svg>
