<svg xmlns="http://www.w3.org/2000/svg" width="48" height="48" version="1.1">
 <path style="opacity:0.2" d="M 10,5 C 8.892,5 8,5.892 8,7 v 36 c 0,1.108 0.892,2 2,2 h 28 c 1.108,0 2,-0.892 2,-2 V 17 L 29,16 28,5 Z"/>
 <path fill="#4f4f4f" d="m10 4c-1.108 0-2 0.892-2 2v36c0 1.108 0.892 2 2 2h28c1.108 0 2-0.892 2-2v-26l-11-1-1-11z"/>
 <path style="opacity:0.5;fill:#ffffff" d="M 11.5 8 A 0.5 0.5 0 0 0 11 8.5 L 11 13.5 A 0.5 0.5 0 0 0 11.5 14 L 14.5 14 A 0.5 0.5 0 0 0 15 13.5 L 15 8.5 A 0.5 0.5 0 0 0 14.5 8 L 11.5 8 z M 18.5 8 A 0.5 0.5 0 0 0 18 8.5 L 18 13.5 A 0.5 0.5 0 1 0 19 13.5 L 19 8.5 A 0.5 0.5 0 0 0 18.5 8 z M 22.5 8 A 0.5 0.5 0 0 0 22 8.5 L 22 13.5 A 0.5 0.5 0 1 0 23 13.5 L 23 8.5 A 0.5 0.5 0 0 0 22.5 8 z M 26.5 8 A 0.5 0.5 0 0 0 26 8.5 L 26 13.5 A 0.5 0.5 0 0 0 26.5 14 L 29.5 14 A 0.5 0.5 0 0 0 30 13.5 L 30 8.5 A 0.5 0.5 0 0 0 29.5 8 L 26.5 8 z M 12 9 L 14 9 L 14 13 L 12 13 L 12 9 z M 27 9 L 29 9 L 29 13 L 27 13 L 27 9 z M 13.5 17 L 13.5 17 A 0.5 0.5 0 0 0 13 17.5 L 13 22.5 A 0.5 0.5 0 1 0 14 22.5 L 14 17.5 A 0.5 0.5 0 0 0 13.5 17 z M 18.5 17 A 0.5 0.5 0 0 0 18 17.5 L 18 22.5 A 0.5 0.5 0 0 0 18.5 23 L 21.5 23 A 0.5 0.5 0 0 0 22 22.5 L 22 17.5 A 0.5 0.5 0 0 0 21.5 17 L 18.5 17 z M 25.5 17 L 25.5 17 A 0.5 0.5 0 0 0 25 17.5 L 25 22.5 A 0.5 0.5 0 1 0 26 22.5 L 26 17.5 A 0.5 0.5 0 0 0 25.5 17 z M 29.5 17 L 29.5 17 A 0.5 0.5 0 0 0 29 17.5 L 29 22.5 A 0.5 0.5 0 1 0 30 22.5 L 30 17.5 A 0.5 0.5 0 0 0 29.5 17 z M 33.5 17 A 0.5 0.5 0 0 0 33 17.5 L 33 22.5 A 0.5 0.5 0 0 0 33.5 23 L 36.5 23 A 0.5 0.5 0 0 0 37 22.5 L 37 17.5 A 0.5 0.5 0 0 0 36.5 17 L 33.5 17 z M 19 18 L 21 18 L 21 22 L 19 22 L 19 18 z M 34 18 L 36 18 L 36 22 L 34 22 L 34 18 z M 11.5 25 A 0.5 0.5 0 0 0 11 25.5 L 11 30.5 A 0.5 0.5 0 0 0 11.5 31 L 14.5 31 A 0.5 0.5 0 0 0 15 30.5 L 15 25.5 A 0.5 0.5 0 0 0 14.5 25 L 11.5 25 z M 18.5 25 A 0.5 0.5 0 0 0 18 25.5 L 18 30.5 A 0.5 0.5 0 0 0 18.5 31 L 21.5 31 A 0.5 0.5 0 0 0 22 30.5 L 22 25.5 A 0.5 0.5 0 0 0 21.5 25 L 18.5 25 z M 25.5 25 A 0.5 0.5 0 0 0 25 25.5 L 25 30.5 A 0.5 0.5 0 1 0 26 30.5 L 26 25.5 A 0.5 0.5 0 0 0 25.5 25 A 0.5 0.5 0 0 1 25.5 25 z M 29.5 25 A 0.5 0.5 0 0 0 29 25.5 L 29 30.5 A 0.5 0.5 0 1 0 30 30.5 L 30 25.5 A 0.5 0.5 0 0 0 29.5 25 A 0.5 0.5 0 0 1 29.5 25 z M 33.5 25 A 0.5 0.5 0 0 0 33 25.5 L 33 30.5 A 0.5 0.5 0 0 0 33.5 31 L 36.5 31 A 0.5 0.5 0 0 0 37 30.5 L 37 25.5 A 0.5 0.5 0 0 0 36.5 25 L 33.5 25 z M 12 26 L 14 26 L 14 30 L 12 30 L 12 26 z M 19 26 L 21 26 L 21 30 L 19 30 L 19 26 z M 34 26 L 36 26 L 36 30 L 34 30 L 34 26 z M 11.5 34 A 0.5 0.5 0 0 0 11 34.5 L 11 39.5 A 0.5 0.5 0 0 0 11.5 40 L 14.5 40 A 0.5 0.5 0 0 0 15 39.5 L 15 34.5 A 0.5 0.5 0 0 0 14.5 34 L 11.5 34 z M 18.492 34 A 0.5 0.5 0 0 0 18 34.5 L 18 39.5 A 0.5 0.5 0 1 0 19 39.5 L 19 34.5 A 0.5 0.5 0 0 0 18.5 34 L 18.5 34 z M 22.5 34 A 0.5 0.5 0 0 0 22 34.5 L 22 39.5 A 0.5 0.5 0 1 0 23 39.5 L 23 34.5 A 0.5 0.5 0 0 0 22.5 34 L 22.5 34 z M 26.5 34 A 0.5 0.5 0 0 0 26 34.5 L 26 39.5 A 0.5 0.5 0 0 0 26.5 40 L 29.5 40 A 0.5 0.5 0 0 0 30 39.5 L 30 34.5 A 0.5 0.5 0 0 0 29.5 34 L 26.5 34 z M 34.5 34 A 0.5 0.5 0 0 0 34 34.5 L 34 39.5 A 0.5 0.5 0 1 0 35 39.5 L 35 34.5 A 0.5 0.5 0 0 0 34.5 34 L 34.5 34 z M 12 35 L 14 35 L 14 39 L 12 39 L 12 35 z M 27 35 L 29 35 L 29 39 L 27 39 L 27 35 z"/>
 <path style="opacity:0.2" d="m 28,5 v 10 c 0,1.1046 0.89543,2 2,2 h 10 z"/>
 <path fill="#696969" d="m28 4v10c0 1.1046 0.89543 2 2 2h10l-12-12z"/>
 <path style="fill:#ffffff;opacity:0.1" d="M 10 4 C 8.892 4 8 4.892 8 6 L 8 7 C 8 5.892 8.892 5 10 5 L 28 5 L 28 4 L 10 4 z"/>
</svg>
