<?xml version="1.0" encoding="UTF-8" standalone="no"?>
<svg id="svg2817" xmlns:rdf="http://www.w3.org/1999/02/22-rdf-syntax-ns#" xmlns="http://www.w3.org/2000/svg" height="48" width="48" version="1.0" xmlns:cc="http://creativecommons.org/ns#" xmlns:dc="http://purl.org/dc/elements/1.1/">
 <metadata id="metadata57">
  <rdf:RDF>
   <cc:Work rdf:about="">
    <dc:format>image/svg+xml</dc:format>
    <dc:type rdf:resource="http://purl.org/dc/dcmitype/StillImage"/>
    <dc:title/>
   </cc:Work>
  </rdf:RDF>
 </metadata>
 <g id="layer4-0" transform="matrix(.90475 0 0 .90475 -716.75 -676.29)">
 </g>
 <g id="layer4-0-7" transform="matrix(.90475 0 0 .90475 -716.75 -669.05)">
 </g>
 <text id="text7276" font-size="12.666px" xml:space="preserve" y="-361.22546" x="435.90427" font-family="&apos;Droid Sans&apos;" fill="#000000"><tspan id="tspan7278" y="-361.22546" x="435.90427"/><tspan id="tspan7280" y="-345.3924" x="435.90427"/></text>
 <path id="path14228" d="m10 4c-1.108 0-2 0.892-2 2v36c0 1.108 0.892 2 2 2h28c1.108 0 2-0.892 2-2v-26l-11-1-1-11z" fill="#ff5722"/>
 <path id="path14307" d="m18 25c-2.2091 0-4 1.7909-4 4s1.7909 4 4 4 4-1.7909 4-4h-4zm7 0v2h9v-2zm0 5v2h9v-2zm-11 5v2h16v-2z" style="color:#000000;text-indent:0;block-progression:tb;text-decoration-line:none;enable-background:new;text-transform:none" fill="#fff"/>
 <path id="path14230" opacity=".1" d="m10 4c-1.108 0-2 0.892-2 2v1c0-1.108 0.892-2 2-2h18l11 11h1l-12-12z" fill="#fff"/>
 <path id="path14234" d="m28 4v10c0 1.1046 0.89543 2 2 2h10l-12-12z" fill="#ff8660"/>
 <g id="layer4-0-5" transform="matrix(.90475 0 0 .90475 -664.89 -677.1)">
 </g>
 <g id="layer4-0-7-5" transform="matrix(.90475 0 0 .90475 -664.89 -669.86)">
 </g>
 <text id="text7276-4" font-size="12.666px" xml:space="preserve" y="-362.03903" x="487.76868" font-family="&apos;Droid Sans&apos;" fill="#000000"><tspan id="tspan7278-2" y="-362.03903" x="487.76868"/><tspan id="tspan7280-2" y="-346.20596" x="487.76868"/></text>
</svg>
