<?xml version="1.0" encoding="UTF-8" standalone="no"?>
<svg id="svg2817" xmlns:rdf="http://www.w3.org/1999/02/22-rdf-syntax-ns#" xmlns="http://www.w3.org/2000/svg" height="48" width="48" version="1.0" xmlns:cc="http://creativecommons.org/ns#" xmlns:dc="http://purl.org/dc/elements/1.1/">
 <metadata id="metadata57">
  <rdf:RDF>
   <cc:Work rdf:about="">
    <dc:format>image/svg+xml</dc:format>
    <dc:type rdf:resource="http://purl.org/dc/dcmitype/StillImage"/>
    <dc:title/>
   </cc:Work>
  </rdf:RDF>
 </metadata>
 <g id="layer4-0" transform="matrix(.90475 0 0 .90475 -716.75 -676.29)">
 </g>
 <g id="layer4-0-7" transform="matrix(.90475 0 0 .90475 -716.75 -669.05)">
 </g>
 <text id="text7276" font-size="12.666px" xml:space="preserve" y="-361.22546" x="435.90427" font-family="&apos;Droid Sans&apos;" fill="#000000"><tspan id="tspan7278" y="-361.22546" x="435.90427"/><tspan id="tspan7280" y="-345.3924" x="435.90427"/></text>
 <path id="path13672" d="m10 4c-1.108 0-2 0.892-2 2v36c0 1.108 0.892 2 2 2h28c1.108 0 2-0.892 2-2v-26l-11-1-1-11z" fill="#3e50b4"/>
 <path id="path13674" opacity=".1" d="m10 4c-1.108 0-2 0.892-2 2v1c0-1.108 0.892-2 2-2h18l11 11h1l-12-12z" fill="#fff"/>
 <path id="path13678" d="m28 4v10c0 1.1046 0.89543 2 2 2h10l-12-12z" fill="#7482d0"/>
 <path id="path13992" d="m15 37v-2h11v2zm0-4v-2h17v2zm0-4v-2h17v2zm0-4v-2h17v2z" style="enable-background:new" fill="#fff"/>
 <g id="layer4-0-9" transform="matrix(.90475 0 0 .90475 -673.47 -676.62)">
 </g>
 <g id="layer4-0-7-4" transform="matrix(.90475 0 0 .90475 -673.47 -669.38)">
 </g>
 <text id="text7276-6" font-size="12.666px" xml:space="preserve" y="-361.55457" x="479.18814" font-family="&apos;Droid Sans&apos;" fill="#000000"><tspan id="tspan7278-4" y="-361.55457" x="479.18814"/><tspan id="tspan7280-0" y="-345.7215" x="479.18814"/></text>
 <g id="layer4-0-4" transform="matrix(.90475 0 0 .90475 -728.87 -688.2)">
 </g>
 <g id="layer4-0-7-2" transform="matrix(.90475 0 0 .90475 -728.87 -680.96)">
 </g>
 <text id="text7276-2" font-size="12.666px" xml:space="preserve" y="-373.13425" x="423.78833" font-family="&apos;Droid Sans&apos;" fill="#000000"><tspan id="tspan7278-5" y="-373.13425" x="423.78833"/><tspan id="tspan7280-7" y="-357.30118" x="423.78833"/></text>
</svg>
