<svg xmlns="http://www.w3.org/2000/svg" width="16" height="16" version="1.1">
 <rect style="fill:#70c74d" width="16" height="16" x="0" y="0" rx="1.2" ry="1.2"/>
 <path style="fill:#ffffff" d="m 9.4999996,9.0000003 c -0.822505,0 -1.5,0 -1.5,1.4999997 0,0.3843 0.25851,0.7333 0.5,1 -0.24149,0.2667 -0.5,0.6157 -0.5,1 0,1.5 0.677495,1.5 1.5,1.5 C 10.322505,14 11,14 11,12.5 11,12.1157 10.74149,11.7667 10.5,11.5 10.74149,11.2333 11,10.8843 11,10.5 11,9.0000003 10.322505,9.0000003 9.4999996,9.0000003 Z m 0,0.9999997 c 0.282065,0 0.5,0.21795 0.5,0.5 0,0.28205 -0.217935,0.5 -0.5,0.5 -0.282065,0 -0.5,-0.21795 -0.5,-0.5 0,-0.28205 0.217935,-0.5 0.5,-0.5 z m 0,2 c 0.282065,0 0.5,0.21795 0.5,0.5 0,0.28205 -0.217935,0.5 -0.5,0.5 -0.282065,0 -0.5,-0.21795 -0.5,-0.5 0,-0.28205 0.217935,-0.5 0.5,-0.5 z"/>
 <path style="fill:#ffffff;fill-rule:evenodd" d="M 5,9.0000003 5,11 l 1,0 0,-1.9999997 0.9999996,0 0,1.9999997 0.5,0 0,1 -0.5,0 0,2 L 6,14 6,12 4,12 4,9.0000003 l 1,0 0,0"/>
 <path style="fill:#ffffff;fill-rule:evenodd" d="m 5.5,2.9999998 c 0,0 -0.354375,-0.007 -0.723635,0.17775 C 4.40711,3.3623498 4,3.8333503 4,4.5000003 l 1,0 c 0,-0.5 0.5,-0.5 0.5,-0.5 0,0 0.5,0 0.5,0.5 0,0.2639 -0.0698,0.41145 -0.203125,0.578099 -0.133325,0.166701 -0.34668,0.334 -0.59668,0.5215 -0.25,0.1875 -0.536645,0.395201 -0.77832,0.6973 C 4.1802,6.5989503 4,7.0139003 4,7.5000003 L 4,8 7,8 7,7.0000003 l -1.82422,0 c 0.01565,-0.022 0.00935,-0.0556 0.02735,-0.0781 0.133325,-0.1667 0.34668,-0.334 0.59668,-0.5215 0.25,-0.1875 0.536645,-0.3952 0.77832,-0.6973 0.241675,-0.30205 0.421875,-0.717 0.421875,-1.2031 0,-0.66665 -0.40711,-1.1376505 -0.776365,-1.3222505 C 5.854375,2.9930998 5.5,2.9999998 5.5,2.9999998 Z"/>
 <path style="fill:#ffffff" d="m 9.75,2.9999823 c -0.96085,0 -1.75,0.78915 -1.75,1.75 l 0,1.5 c 0,0.96085 0.78915,1.7499997 1.75,1.7499997 0.96085,0 1.75,-0.7891497 1.75,-1.7499997 l 0,-1.5 c 0,-0.96085 -0.78915,-1.75 -1.75,-1.75 z m 0,1 c 0.42415,0 0.75,0.32585 0.75,0.75 l 0,1.5 c 0,0.42415 -0.32585,0.75 -0.75,0.75 -0.42415,0 -0.75,-0.32585 -0.75,-0.75 l 0,-1.5 c 0,-0.42415 0.32585,-0.75 0.75,-0.75 z"/>
</svg>
