<svg xmlns="http://www.w3.org/2000/svg" width="16" height="16" version="1">
 <rect style="fill:#ffeb3b" width="16" height="16" x="0" y="0" rx="8" ry="8"/>
 <path style="fill:#4f4f4f" d="M 8,1 C 4.1340066,1 1,4.1340066 1,8 c 0,3.865993 3.1340066,7 7,7 1.867922,-0.0011 3.657926,-0.748724 4.971738,-2.076517 L 12.38063,12.347657 C 11.222335,13.516463 9.645525,14.174745 8,14.176471 4.5888296,14.176471 1.8235294,11.41117 1.8235294,8 1.8235294,4.5888296 4.5888296,1.8235294 8,1.8235294 c 1.645688,0.0013 3.22281,0.6593012 4.381434,1.8280101 L 12.970129,3.078125 C 11.656975,1.7501383 9.867597,1.0019581 8,1 Z M 8,3.0588235 C 5.2710636,3.0588235 3.0588235,5.2710636 3.0588235,8 c 0,2.728937 2.2122401,4.941176 4.9411765,4.941176 1.312445,-0.001 2.570552,-0.5242 3.496783,-1.454044 L 10.907284,10.912109 C 10.136056,11.683077 9.090496,12.11663 8,12.117647 5.7258865,12.117647 3.8823529,10.274114 3.8823529,8 3.8823529,5.7258865 5.7258865,3.8823529 8,3.8823529 c 1.090496,0.00103 2.136056,0.4345703 2.907284,1.2055376 L 11.496783,4.5136718 C 10.570684,3.5835324 9.312561,3.060086 8,3.0588235 Z M 8,5.1176471 C 6.4081205,5.1176471 5.1176471,6.4081205 5.1176471,8 5.1176471,9.5918795 6.4081205,10.882353 8,10.882353 8.757386,10.881406 9.483968,10.5824 10.022633,10.049977 L 9.433938,9.4773669 C 9.049746,9.8502622 8.5354016,10.058827 8,10.058823 6.8629431,10.058823 5.9411765,9.1370569 5.9411765,8 5.9411765,6.8629431 6.8629431,5.9411765 8,5.9411765 8.5350705,5.9420412 9.048794,6.1511456 9.43233,6.5242419 L 10.023437,5.9484145 C 9.484314,5.4163852 8.7574358,5.1179493 8,5.1176471 Z"/>
</svg>
