<svg xmlns="http://www.w3.org/2000/svg" width="16" height="16" version="1.1">
 <rect style="fill:#75aa03" width="16" height="16" x="0" y="0" rx="1.6" ry="1.6"/>
 <path style="fill:#ffffff" d="M 5.3945312 2.4609375 L 5.1289062 2.6367188 L 5.8046875 3.6503906 C 4.8909148 4.2296708 4.2420351 4.9455025 4 6 L 12 6 C 11.758396 4.9453218 11.110892 4.2280982 10.197266 3.6484375 L 10.871094 2.6367188 L 10.605469 2.4609375 L 9.9199219 3.4882812 C 9.3292341 3.1729279 8.6695921 3.0024971 8 3 C 7.3297274 3.0012379 6.6698499 3.1714812 6.078125 3.4863281 L 5.3945312 2.4609375 z M 6.5 4 A 0.5 0.5 0 0 1 7 4.5 A 0.5 0.5 0 0 1 6.5 5 A 0.5 0.5 0 0 1 6 4.5 A 0.5 0.5 0 0 1 6.5 4 z M 9.5 4 A 0.50000005 0.50000005 0 0 1 10 4.5 A 0.50000005 0.50000005 0 0 1 9.5 5 A 0.50000005 0.50000005 0 0 1 9 4.5 A 0.50000005 0.50000005 0 0 1 9.5 4 z M 2.4921875 7 A 0.50005 0.49855484 0 0 0 2 7.5058594 L 2 11.494141 A 0.50005 0.49855484 0 1 0 3 11.494141 L 3 7.5058594 A 0.50005 0.49855484 0 0 0 2.4921875 7 z M 4 7 L 4 7.4375 L 4 8.3125 L 4 11.8125 L 4 13.125 C 4 13.60975 4.3962273 14 4.8886719 14 L 5 14 L 6 14 L 6 13 L 7.5 13 L 7.5 11.933594 A 2 2 0 0 1 6 10 A 2 2 0 0 1 8 8 A 2 2 0 0 1 10 10 A 2 2 0 0 1 8.5 11.935547 L 8.5 13 L 10 13 L 10 14 L 11 14 L 11.111328 14 C 11.603773 14 12 13.60975 12 13.125 L 12 11.8125 L 12 8.3125 L 12 7.4375 L 12 7 L 11 7 L 5 7 L 4 7 z M 13.492188 7 A 0.50005 0.49855484 0 0 0 13 7.5058594 L 13 11.494141 A 0.50005 0.49855484 0 1 0 14 11.494141 L 14 7.5058594 A 0.50005 0.49855484 0 0 0 13.492188 7 z M 8 9 A 0.99987954 0.99987954 0 0 0 7 10 A 0.99987954 0.99987954 0 0 0 8 11 A 0.99987954 0.99987954 0 0 0 9 10 A 0.99987954 0.99987954 0 0 0 8 9 z M 8 9.3320312 A 0.66658638 0.66658638 0 0 1 8.6679688 10 A 0.66658638 0.66658638 0 0 1 8 10.667969 A 0.66658638 0.66658638 0 0 1 7.3320312 10 A 0.66658638 0.66658638 0 0 1 7.3632812 9.8046875 A 0.33329319 0.33329319 0 0 0 7.6679688 10 A 0.33329319 0.33329319 0 0 0 8 9.6679688 A 0.33329319 0.33329319 0 0 0 7.8046875 9.3632812 A 0.66658638 0.66658638 0 0 1 8 9.3320312 z"/>
</svg>
