<svg xmlns="http://www.w3.org/2000/svg" width="16" height="16" version="1.1">
 <circle style="fill:#e27c3e" cx="8" cy="8" r="8"/>
 <path style="fill:#f2f2f2" d="M 13,12.419524 C 13,12.740136 12.740983,13 12.421492,13 H 3.5785088 C 3.2589829,13 3,12.740102 3,12.419524 V 3.5804763 C 3,3.2598638 3.2590175,3 3.5785088,3 h 8.8429492 c 0.319525,0 0.578509,0.2598979 0.578509,0.5804763 z"/>
 <path style="fill:#7c9bad" d="M 7.9999438,11 C 6.3457813,11 5,9.654191 5,8.0000277 5,6.3457809 6.345809,5 7.9999438,5 9.6541351,5 10.999972,6.345809 10.999972,8.0000277 10.999972,9.654191 9.6541351,11 7.9999438,11 Z"/>
 <circle style="fill:#233540" cx="8" cy="8" r="2.625"/>
 <path style="fill:#355061" d="M 7.4211084,7.7161415 6.958904,5.5899935 C 7.2781438,5.4519189 7.6300329,5.3749137 8.0000443,5.3749137 c 0.3621581,0 0.7070853,0.073438 1.020975,0.2059613 L 8.5836969,7.592651 Z"/>
 <path style="fill:#355061" d="M 9.9411436,9.7670097 8.3020246,8.2838007 8.456438,8.1001329 10.373691,9.1214248 c -0.1121,0.2367116 -0.258229,0.4542078 -0.4325474,0.6455849 z"/>
 <path style="fill:#355061" d="M 7.4211084,8.2838007 6.958904,10.410006 C 7.2781438,10.548052 7.6300329,10.625 8.0000443,10.625 c 0.3621581,0 0.7070853,-0.07335 1.020975,-0.205961 L 8.5836969,8.4073201 Z"/>
 <path style="fill:#355061" d="m 7.9999438,9.1954584 c -0.6591904,0 -1.1954584,-0.536268 -1.1954584,-1.1954307 0,-0.6592181 0.536268,-1.1954861 1.1954584,-1.1954861 0.6592747,0 1.1955146,0.536268 1.1955146,1.1954861 0,0.6591349 -0.5362399,1.1954307 -1.1955146,1.1954307 z"/>
 <path style="fill:#e27c3e" d="M 7.9999465,8.9999734 C 7.4485694,8.9999734 7,8.5514036 7,8.0000266 7,7.4486226 7.4485431,7.0000265 7.9999465,7.0000265 8.5513772,7.0000265 9,7.4485959 9,8.0000266 9,8.5514036 8.5514039,8.9999734 7.9999465,8.9999734 Z"/>
 <path style="fill:#233540" d="M 8.0000327,8.6 C 7.6691822,8.6 7.4000164,8.3308018 7.4000164,8.0000161 7.4000164,7.6691658 7.6691822,7.4 8.0000327,7.4 8.3308178,7.4 8.5999836,7.6691658 8.5999836,8.0000161 8.5999836,8.3308014 8.3308178,8.6 8.0000327,8.6 Z"/>
 <path style="fill:#ffffff" d="m 8.0000705,8.3750836 c -0.2068474,0 -0.3750844,-0.1682362 -0.3750844,-0.3749996 0,-0.2067619 0.1682363,-0.3751676 0.3750844,-0.3751676 0.2066779,0 0.3749156,0.1684057 0.3749156,0.3751676 0,0.2067634 -0.1682377,0.3749996 -0.3749156,0.3749996 z"/>
 <polygon id="polygon28" style="fill:#7c9bad" transform="matrix(0.02793062,0,0,0.02793062,0.8929418,0.9657848)" points="190.65 323.87 188.11 321.59 185.63 319.25 185.57 319.31 169.02 304.49 163.15 331.05 169.45 336.84 174.48 341.46 180.76 347.24 206.75 339.17 190.59 323.94"/>
 <path style="fill:none;stroke:#7c9bad;stroke-width:0.0531089;stroke-miterlimit:10" d="m 11.4,11.973444 c -0.205907,0 -0.373446,-0.167539 -0.373446,-0.373477 0,-0.205876 0.167539,-0.373414 0.373446,-0.373414 0.205907,0 0.373414,0.167538 0.373414,0.373414 0,0.205938 -0.167507,0.373477 -0.373414,0.373477 z"/>
 <path style="fill:#efc84a" d="m 11.4,11.867207 c -0.147374,0 -0.26724,-0.119866 -0.26724,-0.26724 0,-0.147281 0.119866,-0.267209 0.26724,-0.267209 0.147312,0 0.267241,0.119928 0.267241,0.267209 0,0.147374 -0.119929,0.26724 -0.267241,0.26724 z"/>
 <path style="fill:none;stroke:#7c9bad;stroke-width:0.0531088;stroke-miterlimit:10" d="m 10.400031,11.973446 c -0.205938,0 -0.373477,-0.167539 -0.373477,-0.373477 0,-0.205876 0.167539,-0.373414 0.373477,-0.373414 0.205907,0 0.373415,0.167538 0.373415,0.373414 0,0.205938 -0.167508,0.373477 -0.373415,0.373477 z"/>
 <path style="fill:#e27c3e" d="m 10.400031,11.867209 c -0.147374,0 -0.26724,-0.119866 -0.26724,-0.26724 0,-0.147281 0.119866,-0.267209 0.26724,-0.267209 0.147312,0 0.267209,0.119928 0.267209,0.267209 0,0.147374 -0.119897,0.26724 -0.267209,0.26724 z"/>
 <path style="fill:none;stroke:#7c9bad;stroke-width:0.0531088;stroke-miterlimit:10" d="m 9.4000312,11.973446 c -0.205938,0 -0.3734768,-0.167539 -0.3734768,-0.373477 0,-0.205876 0.1675388,-0.373415 0.3734768,-0.373415 0.2059072,0 0.3734144,0.167539 0.3734144,0.373415 0,0.205938 -0.1675072,0.373477 -0.3734144,0.373477 z"/>
 <path style="fill:#334d5c" d="m 9.4000312,11.867209 c -0.147374,0 -0.2672404,-0.119866 -0.2672404,-0.26724 0,-0.147281 0.119866,-0.267209 0.2672404,-0.267209 0.1472808,0 0.2672092,0.119928 0.2672092,0.267209 0,0.147374 -0.1198972,0.26724 -0.2672092,0.26724 z"/>
 <circle style="fill:#7c9bad" cx="11.55" cy="4.75" r=".75"/>
 <circle style="fill:#efc84a;stroke:#f2f2f2;stroke-width:0.173497;stroke-miterlimit:10" cx="11.55" cy="4.75" r=".407"/>
 <path style="fill:#efc84a" d="m 11.5352,4.7484688 -0.33445,1.7779688 c 0.0045,-0.037408 0.04019,-0.067469 -0.0093,-0.019092 -0.04378,0.042781 -0.08762,0.085594 -0.131406,0.1283752 -0.138906,0.135656 -0.277813,0.2713436 -0.416688,0.407 -0.215531,0.2105 -0.431062,0.4210312 -0.6465936,0.6315312 -0.073906,0.072219 0.039312,0.18525 0.1131566,0.1131564 0.2155,-0.2105312 0.431031,-0.4210628 0.646562,-0.6315628 0.138875,-0.1356872 0.277813,-0.2713436 0.416688,-0.407 0.05459,-0.053344 0.176812,-0.1330624 0.186875,-0.2161872 0.07166,-0.5947188 0.263512,-1.1894376 0.335168,-1.7841876 0.01231,-0.1022812 -0.14003,0.099848 -0.16,0 z"/>
 <path style="fill:#efc84a" d="m 10.219156,7.5857812 c 0.05862,0.065594 0.05294,0.16725 -0.01266,0.2259064 l -0.03975,0.035532 C 10.101156,7.9058756 9.9994964,7.9001886 9.94084,7.8345636 9.882215,7.7689386 9.887903,7.6672824 9.953528,7.6086576 l 0.03972,-0.0355 c 0.065625,-0.058656 0.167281,-0.052969 0.225906,0.012624 z"/>
</svg>
