<svg xmlns="http://www.w3.org/2000/svg" width="16" height="16" version="1.1">
 <circle style="fill:#f4f803" cx="12.5" cy="8.5" r="3.5"/>
 <circle style="fill:#3f3f3f" cx="12.5" cy="8.5" r="1.5"/>
 <circle style="fill:#4b5dee" cx="3.287" cy="11.649" r="3.5" transform="rotate(-22.531566)"/>
 <path style="fill:#3f3f3f" d="M 10.100695,7.1583122 7.4118927,8.2733294 7.5615236,8.6325958 10.352865,7.4742844 a 3.5,3.5 0 0 0 -0.25217,-0.3159722 z m 0.886393,2.1578776 -2.680447,1.1127382 0.1488713,0.358507 2.5300567,-1.0496962 a 3.5,3.5 0 0 0 0.0015,-0.421549 z"/>
 <circle style="fill:#f4f803" cx="8.5" cy="4.5" r="3.5"/>
 <path style="fill:#3f3f3f" d="M 9.6666673,1.2005211 V 5.666667 H 10.055556 V 1.3653432 A 3.5,3.5 0 0 0 9.6666673,1.2005211 Z M 6.944445,3.3333337 V 7.6285811 A 3.5,3.5 0 0 0 7.3333339,7.7911246 V 3.3333337 Z"/>
 <circle style="fill:#f4f803" cx="-2.451" cy="11.768" r="3.5" transform="rotate(-28.691527)"/>
 <path style="fill:#3f3f3f" d="M 6.5700951,9.8198782 4.1820743,11.126301 3.841037,11.31315 4.027886,11.654188 4.4015838,12.337023 4.742621,12.150173 4.3689234,11.467339 6.7569441,10.160915 Z"/>
 <circle style="fill:#4b5dee" cx="-.908" cy="7.853" r="3.5" transform="rotate(-41.288181)"/>
 <path style="fill:#3f3f3f" d="M 7.1295576,4.1902129 5.0840929,5.9865455 4.7924263,6.2432728 5.0491537,6.535699 5.5618492,7.1197919 5.8542753,6.8630645 5.3408203,6.2789717 7.3862849,4.4826391 Z"/>
</svg>
