<svg xmlns="http://www.w3.org/2000/svg" height="16" width="16" version="1.1">
 <path style="fill:#b2b2b2" d="m8 0c-3.2777778 0-5.2060996 1.4841243-6.1074219 2.9863281-0.90132226 1.5022038-0.8925781 3.0136719-0.8925781 3.0136719v9c0.0000552 0.552262 0.4477381 0.999945 1 1h12c0.552262-0.000055 0.999945-0.447738 1-1v-9s0.008744-1.5114681-0.892578-3.0136719-2.829644-2.9863281-6.107422-2.9863281z"/>
 <path style="fill:#ffffff" d="m3 6v2h10v-2s0-4-5-4-5 4-5 4z"/>
 <circle r="2" style="fill:#1b87e6" cx="8" cy="5"/>
 <circle r="1" style="fill:#3f3f3f" cx="8" cy="5"/>
 <rect style="fill:#e4e4e4" ry="1" height="4" width="16" y="8" x="0"/>
 <path style="fill:#3f3f3f" d="m8 12a1 1 0 0 0 -1 1 1 1 0 0 0 0.5527344 0.892578l-0.5527344 1.107422h2l-0.5527344-1.107422a1 1 0 0 0 0.5527344 -0.892578 1 1 0 0 0 -1 -1z"/>
 <circle r="1" style="fill:#3f3f3f" cx="2" cy="10"/>
 <circle r="1" style="fill:#3f3f3f" cx="6" cy="10"/>
 <circle r="1" style="fill:#3f3f3f" cx="10" cy="10"/>
 <circle r="1" style="fill:#3f3f3f" cx="14" cy="10"/>
</svg>
