<svg xmlns="http://www.w3.org/2000/svg" width="16" height="16" version="1">
 <path style="fill:#ffca12" d="m 1.0030381,4.954297 c -0.00176,0.030436 -0.00277,0.060916 -0.00304,0.091406 v 6.044884 c 1.823e-4,0.649794 0.338636,1.250149 0.8879123,1.574994 l 5.2241753,3.090615 c 0.5494268,0.325072 1.226398,0.325072 1.7758245,0 L 14.112085,12.665581 C 14.6616,12.340596 15.00009,11.739879 15,11.089805 V 5.0457027 c -8.56e-4,-0.02294 -0.0021,-0.04586 -0.0038,-0.06875 C 15,4.9762373 1.0030381,4.954297 1.0030381,4.954297 Z"/>
 <path style="opacity:0.1" d="M 7.9582247,-2e-8 C 7.9419225,3.8613867e-4 7.9258731,0.00306397 7.9096136,0.00390797 A 1.7768903,1.8191537 0 0 1 8,0.00156245 V -2e-8 Z M 7.7941622,0.01406233 c -0.027934,0.003328 -0.055846,0.0062644 -0.08355,0.01093756 a 1.7768903,1.8191537 0 0 1 0.08355,-0.01093756 z m -0.464084,0.12031211 c -0.0248,0.0103252 -0.048561,0.0228947 -0.072917,0.0343747 a 1.7768903,1.8191537 0 0 1 0.072917,-0.0343747 z M 1.7162543,3.4476445 c -0.018245,0.013856 -0.035516,0.02846 -0.053168,0.042968 a 1.7768903,1.8191537 0 0 1 0.053168,-0.042968 z M 1.5575086,3.5843628 c -0.016781,0.01618 -0.033254,0.03242 -0.049371,0.049218 a 1.7768903,1.8191537 0 0 1 0.049371,-0.049218 z M 1.4086371,3.7468623 c -0.010591,0.013064 -0.021679,0.025708 -0.031901,0.039064 a 1.7768903,1.8191537 0 0 1 0.031901,-0.039064 z m -0.2476129,0.399217 c -0.0044,0.00976 -0.00792,0.019844 -0.012153,0.029688 a 1.7768903,1.8191537 0 0 1 0.012153,-0.029688 z M 1.087348,4.3398286 c -0.00549,0.017092 -0.01019,0.03428 -0.015191,0.051563 a 1.7768903,1.8191537 0 0 1 0.015191,-0.051563 z m -0.056207,0.220312 c -0.00198,0.01044 -0.00427,0.020756 -0.00608,0.031252 a 1.7768903,1.8191537 0 0 1 0.00608,-0.031252 z M 1.000759,4.7999834 c -1.373e-4,0.00236 -6.3e-4,0.00466 -7.584e-4,0.00703 7.389e-4,0.0073 0.00146,0.014588 0.00228,0.021876 -8.166e-4,0.01354 -0.00177,0.027068 -0.00228,0.040625 v 6.2202906 c -9.018e-5,0.650073 0.3383999,1.250791 0.8879124,1.575776 l 5.2241742,3.090613 C 7.3850076,15.917671 7.6954031,15.998905 8,15.999945 V 9.5984045 A 1.7768903,1.8191537 0 0 1 7.1113282,9.3562177 L 1.883355,6.2656032 A 1.7768903,1.8191537 0 0 1 1.000759,4.7999834 Z"/>
 <g transform="scale(1,1.0416643)">
  <path style="fill:#ffa81c" d="M 8.0418071,-2e-8 V 7.7997731e-4 A 1.7768903,1.8191537 0 0 0 7.1114126,0.2429679 L 1.8832663,3.3335821 A 1.7768903,1.8191537 0 0 0 0.99999994,4.792171 1.7768903,1.8191537 0 0 0 1.8832663,6.2656032 l 5.2281463,3.0906145 a 1.7768903,1.8191537 0 0 0 1.7771744,0 L 14.116734,6.2656032 A 1.7768903,1.8191537 0 0 0 15,4.8070146 1.7768903,1.8191537 0 0 0 14.116734,3.3335821 L 8.888587,0.2429679 A 1.7768903,1.8191537 0 0 0 8.0418071,-2e-8 Z"/>
  <path style="opacity:0.07" d="M 8,-2e-8 V 9.5913733 A 1.7768903,1.8191537 0 0 0 8.8886717,9.3491865 L 14.116645,6.258572 A 1.7768903,1.8191537 0 0 0 14.99924,4.8038898 c -0.0042,-0.074383 -0.01305,-0.1479979 -0.02583,-0.220312 a 1.7768903,1.8191537 0 0 0 0,-0.00312 c -3.79e-4,-0.00212 -0.0011,-0.00413 -0.0015,-0.00625 C 14.95917,4.5041958 14.943,4.4353711 14.92254,4.3679585 a 1.7768903,1.8191537 0 0 0 -0.0015,-0.00625 c -7.38e-4,-0.00244 -0.0023,-0.00458 -0.003,-0.00703 C 14.785341,3.9293556 14.503048,3.5627873 14.116654,3.3335821 L 8.8886717,0.2429679 C 8.630721,0.09060059 8.3395011,0.00705196 8.0417752,-2e-8 Z"/>
 </g>
</svg>
