<svg xmlns="http://www.w3.org/2000/svg" width="16" height="16" version="1.1">
 <circle style="fill:#e4e4e4" cx="8" cy="8" r="8"/>
 <path style="fill:#83ad39" d="M 8 3 A 5 5 0 0 0 4.0371094 4.9511719 L 4.9023438 5.4707031 A 4 4 0 0 1 7.9394531 4 A 4 4 0 0 1 8 4 A 4 4 0 0 1 12 8 A 4 4 0 0 1 8 12 A 4 4 0 0 1 4.9003906 10.527344 L 4.0351562 11.044922 A 5 5 0 0 0 8 13 A 5 5 0 0 0 13 8 A 5 5 0 0 0 8 3 z M 3 4.9863281 L 3 11.009766 L 8.0136719 7.9980469 L 3 4.9863281 z M 7.9492188 5 A 3 3 0 0 0 5.7714844 5.9921875 L 6.6523438 6.5234375 A 2 2 0 0 1 7.9492188 6 A 2 2 0 0 1 7.9511719 6 A 2 2 0 0 1 8 6 A 2 2 0 0 1 10 8 A 2 2 0 0 1 8 10 A 2 2 0 0 1 6.6503906 9.4746094 L 5.7695312 10.003906 A 3 3 0 0 0 8 11 A 3 3 0 0 0 11 8 A 3 3 0 0 0 8 5 A 3 3 0 0 0 7.9492188 5 z"/>
</svg>
