<svg xmlns="http://www.w3.org/2000/svg" width="16" height="16" version="1.1">
 <ellipse id="ellipse1089" style="fill:#cccccc" cx="8" cy="8" rx="8" ry="8"/>
 <path style="fill:#4a4455" d="m 8.0000002,14 a 6,6 0 0 1 -5.1961526,-3 6,6 0 0 1 0,-6 6,6 0 0 1 5.1961522,-3"/>
 <path style="fill:#ffffff" d="M 11.286439,3.2548211 6.7298272,7.8108145 C 6.3649136,8.3581109 6.5473706,8.9054073 6,9.4527036 L 6.5473706,10 C 7.0947412,9.4527036 7.8346871,9.6411438 8.1894825,9.2702714 L 12.746093,4.7142779 Z"/>
 <path style="fill:#4f4f4f;fill-rule:evenodd" d="m 13.816788,1.0000521 c -0.316225,3.765e-4 -0.619154,0.1272605 -0.841192,0.3524222 L 12.975019,1.3519089 11.757903,2.569015 10.997107,1.8082204 c -0.177482,-0.1774822 -0.354965,9e-7 -0.354965,9e-7 l -0.563261,0.5632585 c 0,0 -0.1774821,0.1774813 0,0.3549636 l 3.194685,3.1946756 c 0.177483,0.1774819 0.354965,7e-7 0.354965,7e-7 l 0.563262,-0.5632588 c 0.177481,-0.1774819 0,-0.3549643 0,-0.3549643 L 13.431022,4.2421281 14.6412,3.0319537 l 0.007,-0.00692 -2.48e-4,-1.919e-4 C 14.873078,2.8026587 14.99986,2.4995821 15,2.1832792 15,1.529808 14.470257,1.0000655 13.816786,1.0000665 Z"/>
</svg>
