<svg xmlns="http://www.w3.org/2000/svg" width="16" height="16" version="1">
 <path style="fill:#3f3f3f" d="M 7,8 H 16 V 15 C 16,16 15,16 15,16 H 7 Z"/>
 <path style="fill:#71c454" d="M 0,7 V 15.25 C 0,15.666 0.3345,16 0.75,16 H 8 V 7 Z"/>
 <path style="fill:#86d478" d="M 0.75,0 C 0.3345,0 0,0.3345 0,0.75 V 8 H 9 V 0 Z"/>
 <path style="fill:#36862c" d="M 15.25,0 C 15.666,0 16,0.3345 16,0.75 V 8 H 8 V 0 Z"/>
 <path style="fill:#ffffff" d="M 10,11 V 12 H 14 V 11 Z M 10,13 V 14 H 14 V 13 Z"/>
 <path style="fill:#3f3f3f" d="M 10,4 V 5 H 14 V 4 Z"/>
 <path style="fill:#3f3f3f" d="M 4,2 V 4 H 2 V 5 H 4 V 7 H 5 V 5 H 7 V 4 H 5 V 2 Z"/>
 <path style="fill:none;stroke:#3f3f3f;stroke-width:1px" d="M 2,10 6,14 M 6,10 2,14"/>
</svg>
