<svg xmlns="http://www.w3.org/2000/svg" width="16" height="16" version="1">
 <rect style="fill:#4f4f4f" width="16" height="16" x="0" y="0" rx=".8" ry=".8"/>
 <path style="fill:none;stroke:#a287e9;stroke-linecap:round;stroke-linejoin:bevel" d="m 1.5,8.5 c 0,0 2,-0.028936 2,-1.5 C 3.5,5.5289344 1.5070766,5.4927648 1.5070766,5.4927648 m 5.76e-5,5.0001142 V 5.492824"/>
 <path style="fill:none;stroke:#ffb145;stroke-linecap:round;stroke-linejoin:round" d="M 9.5,10.492879 V 5.4928528 m -3.9957073,0 L 7.5,8.5 9.5,5.4928528 M 5.5042927,10.492879 V 5.4928528"/>
 <path style="fill:none;stroke:#ffb145;stroke-linecap:round;stroke-linejoin:bevel" d="M 11.507121,8.5 H 14.5 m -2.992819,1.992879 V 6.7112352 M 14.5,10.492879 V 6.7112352 m -2.992879,0 C 11.507121,6.7112352 11.806146,5.5 13,5.5 c 1.193805,0 1.5,1.2112352 1.5,1.2112352"/>
</svg>
