<svg xmlns="http://www.w3.org/2000/svg" width="16" height="16" version="1">
 <path style="fill:#e4e4e4" d="M 16,8 A 8,8 0 0 1 8,16 8,8 0 0 1 0,8 8,8 0 0 1 8,0 8,8 0 0 1 16,8 Z"/>
 <path style="fill:#7774d7" d="M 8 3 C 7.749069 3 7.4976878 3.0111961 7.3378906 3.0332031 C 5.4090924 3.2987609 4.2692424 4.1972813 4.0410156 5.6328125 C 4.015803 5.7914196 4.0079552 6.0733112 4.0039062 7.1523438 L 4.0019531 8 L 4 8 L 4 8.4335938 L 4 9.4335938 L 4.0039062 8.4375 L 4.0566406 8.5195312 C 4.1947842 8.7306659 4.3848529 8.878177 5.2929688 9.4804688 C 6.811192 10.487406 7.4359919 10.854887 7.8203125 10.966797 C 7.8809655 10.984447 7.9641486 10.99949 8.0058594 11 C 8.2609237 11.0032 9.0055931 10.603262 10.134766 9.8574219 C 11.542925 8.9273034 11.804176 8.734284 11.941406 8.5234375 L 12 8.4335938 L 12 8.3769531 L 12 8 L 12 7.3769531 C 12 5.9981933 11.989325 5.754467 11.921875 5.4589844 C 11.801584 4.9320453 11.583332 4.5149638 11.234375 4.1523438 C 10.674266 3.5703024 9.7988592 3.189711 8.6621094 3.0332031 C 8.5023064 3.0112032 8.2509306 3 8 3 z M 4 9.4335938 L 4 12.195312 L 4.0078125 12.195312 L 4.0097656 12.664062 L 4.0703125 12.769531 C 4.1165215 12.850091 4.1533399 12.886285 4.2285156 12.927734 L 4.3261719 12.982422 L 5.9199219 12.992188 C 6.7964462 12.997085 8.4374298 13.0004 9.5664062 13 L 11.619141 13 L 11.71875 12.958984 C 11.8463 12.907614 11.884232 12.877406 11.943359 12.773438 L 11.990234 12.6875 L 11.990234 12.195312 L 12 12.195312 L 12 9.4335938 L 11.941406 9.5234375 C 11.804176 9.734284 11.542925 9.9273031 10.134766 10.857422 C 9.0055927 11.603262 8.2609237 12.0032 8.0058594 12 C 7.9641486 11.99949 7.8809655 11.984447 7.8203125 11.966797 C 7.4359919 11.854887 6.8111918 11.487406 5.2929688 10.480469 C 4.3848529 9.8781764 4.1947842 9.7306659 4.0566406 9.5195312 L 4 9.4335938 z M 8 5 C 8.9074535 5 9.6953946 5.7077118 9.953125 6.5742188 C 9.998495 6.726774 10 6.7329872 10 7.3535156 C 10 7.6975696 9.9947793 7.9852504 9.9882812 7.9921875 C 9.9817114 7.9991175 9.0909066 8.002608 8 8 C 6.9090934 8.00262 6.0182512 7.9991174 6.0117188 7.9921875 C 6.0051987 7.9852475 6 7.6975696 6 7.3535156 C 6 6.7329872 6.001501 6.726774 6.046875 6.5742188 C 6.3046105 5.7077118 7.092547 5 8 5 z"/>
</svg>
