<svg xmlns="http://www.w3.org/2000/svg" width="16" height="16" version="1">
 <rect style="fill:#e4e4e4" width="16" height="16" rx=".8" ry=".8"/>
 <path style="fill:#999999" d="m5 8.5 0.5-0.5h1.5v1h-1.5z"/>
 <circle style="fill:#c162c9" cx="7.5" cy="8.5" r="1.5"/>
 <circle style="fill:#009688" cx="3.5" cy="8.5" r="1.5"/>
 <path style="fill:#999999" d="m7.5 7-0.5-0.5v-2.5h1v2.5z"/>
 <circle style="fill:#03a9f4" cx="7.5" cy="3.5" r="1.5"/>
 <path style="fill:#999999" d="m9 3.5 0.5-0.5h2.5v1h-2.5z"/>
 <circle style="fill:#ffc107" cx="12.5" cy="3.5" r="1.5"/>
 <circle style="fill:#ffffff" cx="6.5" cy="12.5" r="1.5"/>
 <path style="fill:#999999" d="m12.5 5 0.5 0.5v6.5h-1v-6.5z"/>
 <path style="fill:#999999" d="m8 12.5 0.5-0.5h3.5v1h-3.5z"/>
 <circle style="fill:#fa3e30" cx="12.5" cy="12.5" r="1.5"/>
 <path style="fill:#999999" d="m9 9v1l1.4 1.4h1v-1l-1.4-1.4z"/>
</svg>
