<svg xmlns="http://www.w3.org/2000/svg" width="16" height="16" version="1">
 <path style="fill:#2cb978" d="M 1.1427557,2 C 0.50961291,2 8e-8,2.4868587 8e-8,3.0912224 V 4.1529411 H 16 V 3.0912224 C 16,2.4868587 15.490387,2 14.857244,2 Z M 8e-8,5.9 v 7.008777 C 8e-8,13.513141 0.50961291,14 1.1427557,14 H 14.857244 C 15.490387,14 16,13.513141 16,12.908777 V 5.9 Z"/>
 <path style="fill:#b2f5c0" d="M 1.7011719 11 L 1.9023438 11.84375 L 1.25 11.298828 L 1.0039062 11.730469 L 1.84375 12.005859 L 1 12.271484 L 1.2402344 12.710938 L 1.9023438 12.160156 L 1.7011719 13 L 2.2714844 13 L 2.0878906 12.173828 L 2.7304688 12.726562 L 2.9765625 12.289062 L 2.1445312 12.007812 L 3 11.771484 L 2.7578125 11.333984 L 2.0820312 11.847656 L 2.2714844 11 L 1.7011719 11 z M 4.7011719 11 L 4.9023438 11.84375 L 4.25 11.298828 L 4.0039062 11.730469 L 4.84375 12.005859 L 4 12.271484 L 4.2402344 12.710938 L 4.9023438 12.160156 L 4.7011719 13 L 5.2714844 13 L 5.0878906 12.173828 L 5.7304688 12.726562 L 5.9765625 12.289062 L 5.1445312 12.007812 L 6 11.771484 L 5.7578125 11.333984 L 5.0820312 11.847656 L 5.2714844 11 L 4.7011719 11 z M 7.7011719 11 L 7.9023438 11.84375 L 7.25 11.298828 L 7.0039062 11.730469 L 7.84375 12.005859 L 7 12.271484 L 7.2402344 12.710938 L 7.9023438 12.160156 L 7.7011719 13 L 8.2714844 13 L 8.0878906 12.173828 L 8.7304688 12.726562 L 8.9765625 12.289062 L 8.1445312 12.007812 L 9 11.771484 L 8.7578125 11.333984 L 8.0820312 11.847656 L 8.2714844 11 L 7.7011719 11 z M 10.701172 11 L 10.902344 11.84375 L 10.25 11.298828 L 10.003906 11.730469 L 10.84375 12.005859 L 10 12.271484 L 10.240234 12.710938 L 10.902344 12.160156 L 10.701172 13 L 11.271484 13 L 11.087891 12.173828 L 11.730469 12.726562 L 11.976562 12.289062 L 11.144531 12.007812 L 12 11.771484 L 11.757812 11.333984 L 11.082031 11.847656 L 11.271484 11 L 10.701172 11 z M 13.701172 11 L 13.902344 11.84375 L 13.25 11.298828 L 13.003906 11.730469 L 13.84375 12.005859 L 13 12.271484 L 13.240234 12.710938 L 13.902344 12.160156 L 13.701172 13 L 14.271484 13 L 14.087891 12.173828 L 14.730469 12.726562 L 14.976562 12.289062 L 14.144531 12.007812 L 15 11.771484 L 14.757812 11.333984 L 14.082031 11.847656 L 14.271484 11 L 13.701172 11 z"/>
 <rect style="fill:#3f3f3f" width="16" height="2" x="0" y="4"/>
 <path style="fill:#e4e4e4" d="m 4,7.9999971 3.9999987,7e-7 L 8,9.9880945 7.0133337,10.011906 v 0.559521 l -0.3333332,0.285714 0.3333332,0.285715 v 0.428571 l -0.4999995,0.428572 0.4999995,0.428571 -0.3333332,0.285714 0.333332,0.285714 -0.6666662,0.571428 0.6666674,0.571429 -0.3333332,0.285714 0.3333332,0.285715 L 5.6666676,15.999998 4.4444862,16 4,15.571425 Z"/>
 <path style="opacity:0.2" d="M 5.4140625,9.0039062 C 5.318728,9.0125296 5.2258478,9.035594 5.1464844,9.078125 5.0508196,9.1294106 4.9981437,9.2008479 5,9.2734375 V 16 H 5.6660156 L 6,15.681641 V 9.2734375 C 6.00456,9.0928087 5.700066,8.9780361 5.4140625,9.0039062 Z"/>
 <path style="opacity:0.2" d="m 3.0000002,7 -1,1 1,1 z M 3.3333335,7 V 9 H 3.6666669 V 7 Z M 4.0000001,7 V 9 H 4.6666669 V 7 Z m 1,0 V 9 H 5.3333335 V 7 Z M 5.6666669,7 V 9 H 6.0000001 V 7 Z M 6.3333335,7 V 9 H 7.0000001 V 7 Z m 1,0 V 9 H 8.0000002 V 7 Z m 1,0 V 9 H 8.6666669 V 7 Z M 9.0000002,7 V 9 H 9.3333335 V 7 Z m 0.6666667,0 v 2 h 0.333333 V 7 Z m 0.6666671,0 v 2 h 0.333333 V 7 Z M 11,7 v 2 h 0.666667 V 7 Z m 1,0 v 2 h 0.333334 V 7 Z m 0.666667,0 v 2 h 0.666667 V 7 Z m 1,0 V 9 H 14 V 7 Z"/>
 <path style="fill:#e4e4e4" d="M 6,1 C 3.790861,1 2,2.790861 2,5 2,7.2091389 3.790861,9 6,9 8.2091389,9 10,7.2091389 10,5 10,2.790861 8.2091389,1 6,1 Z m 0,1 c 0.552274,10e-8 0.999985,0.4477108 1,1 C 6.999985,3.5522891 6.552274,4 6,4 5.447726,4 5.000015,3.5522891 5,3 5.000015,2.4477108 5.447726,2.0000001 6,2 Z"/>
</svg>
