<svg xmlns="http://www.w3.org/2000/svg" width="16" height="16" version="1">
 <circle style="fill:#33b67a" cx="-11.314" cy="-2.121" r="6.5" transform="rotate(-135)"/>
 <path style="opacity:0.2" d="M 2.3625987,14.505624 A 6.5000003,6.5000003 0 0 0 4.50847,15.686478 c 0.050352,-0.09677 0.1604529,-0.152639 0.3182862,-0.141333 0.1068158,0.0077 0.2309359,-0.02273 0.2760245,-0.06781 0.1378169,-0.137818 0.2248691,-0.473983 0.1561097,-0.604239 -0.091235,-0.173047 0.094131,-0.269705 0.342095,-0.177551 0.1146749,0.04251 0.3152986,0.0354 0.4456011,-0.01586 0.1307617,-0.05125 0.278759,-0.0825 0.3290874,-0.0694 0.050328,0.01264 0.1473079,-0.0324 0.2155614,-0.100658 0.095371,-0.09537 0.097899,-0.185226 0.011949,-0.385621 -0.061359,-0.143631 -0.1542022,-0.296225 -0.206369,-0.339199 -0.299442,-0.247965 -0.1590286,-0.426526 0.3918254,-0.498917 0.2925479,-0.03838 0.3952727,-0.01884 0.4609983,0.08871 0.061359,0.09996 0.128234,0.121339 0.244977,0.07814 0.1234079,-0.04619 0.2155619,-0.01149 0.397571,0.147078 0.1792517,0.155811 0.2881814,0.196718 0.4426133,0.167762 0.1128367,-0.02091 0.2332572,-0.0089 0.268418,0.0262 0.035253,0.03525 0.1630731,0.07299 0.283769,0.08429 0.2457584,0.02284 0.3094619,0.06402 0.2837001,0.183962 -0.034285,0.158753 0.1487097,0.244311 0.5399608,0.252699 0.3458638,0.0076 0.4125318,-0.01629 0.5327218,-0.1898 0.213861,-0.308726 0.304015,-0.682328 0.223076,-0.925054 -0.07067,-0.211768 -0.06584,-0.222109 0.110331,-0.227028 0.101414,-0.0029 0.24176,0.02574 0.311945,0.06329 0.202922,0.10824 0.174631,-0.03863 -0.06758,-0.351633 -0.248056,-0.320216 -0.233394,-0.511464 0.03976,-0.51914 0.152386,-0.0043 0.162934,-0.0232 0.118604,-0.216458 -0.08641,-0.377806 -0.360157,-0.473223 -0.294892,-0.102769 0.04189,0.238152 -0.09601,0.180217 -0.230268,-0.09652 -0.107092,-0.220618 -0.142712,-0.249804 -0.323572,-0.262444 -0.3709133,-0.02666 -0.3323053,-0.497307 0.0416,-0.50765 0.238083,-0.0069 0.350689,-0.189363 0.221307,-0.359652 -0.05723,-0.07515 -0.133063,-0.274165 -0.168683,-0.442615 -0.03585,-0.16822 -0.09261,-0.3339136 -0.126166,-0.3674663 C 10.065268,9.776233 10.03792,9.6142171 10.03792,9.4496735 10.03769,9.1162192 9.9662194,9.0024635 9.8016757,9.0727855 9.6040394,9.1573555 9.5539408,9.2529563 9.540152,9.5714723 9.5288917,9.8249526 9.3742296,10.373509 9.2898894,10.457848 9.2379525,10.509786 9.0819115,10.265497 9.0462912,10.076825 9.0242293,9.9587022 8.9725223,9.7833572 8.9318456,9.6866072 8.8886416,9.5836522 8.9056468,9.4149719 8.9725223,9.2786948 9.0780047,9.0652015 9.070421,9.0300407 8.8792193,8.838839 L 8.6714712,8.6310909 9.0134283,8.2261666 C 9.4250175,7.7391995 9.4799421,7.612115 9.362739,7.4209133 9.2765601,7.2800399 9.3312561,6.9831256 9.4686814,6.8456995 c 0.036542,-0.036541 0.2077477,-0.044583 0.3803349,-0.017695 0.2139527,0.033322 0.3440247,0.00988 0.4108997,-0.073539 0.08365,-0.1043343 0.119731,-0.097669 0.242909,0.045273 0.07929,0.092154 0.258306,0.2109652 0.397111,0.2633617 0.164315,0.062279 0.303349,0.1686803 0.397801,0.3044979 0.1087,0.1560409 0.162705,0.1916613 0.214413,0.1399542 0.03815,-0.038147 0.15581,-0.062968 0.261522,-0.055614 0.260835,0.018613 0.267269,-0.1031846 0.01402,-0.2792186 -0.157189,-0.1093896 -0.198555,-0.1718979 -0.164083,-0.2523311 0.07308,-0.1709784 0.371831,-0.2215366 0.45824,-0.077676 0.0547,0.091465 0.114675,0.1013465 0.223605,0.037918 0.03838,-0.02275 0.07883,-0.034243 0.118123,-0.039068 A 6.5000003,6.5000003 0 0 0 11.911098,5.8993424 c -0.02091,0.066874 -0.0347,0.1330595 -0.02711,0.1764936 0.0347,0.2020028 -0.261983,0.3401187 -0.463985,0.2162512 -0.20614,-0.1261658 -0.287722,0.00781 -0.127775,0.2091269 0.140414,0.1762639 0.148457,0.5051215 0.01356,0.5343073 C 11.215234,7.0548264 11.071833,6.8953377 10.838116,6.5163812 10.732404,6.3454029 10.572227,6.3166767 9.9009525,6.3467817 9.5123442,6.364477 9.2850625,6.3063353 9.128562,6.1498348 9.0688118,6.0900844 8.8008535,5.9319754 8.5328955,5.798226 8.0266246,5.5461246 7.8829934,5.3933012 8.0355869,5.2687444 8.3527246,5.009519 8.1576161,4.8337146 7.5534464,4.8334849 7.3018046,4.8332551 7.0956655,4.8091252 7.0949761,4.779939 7.0926821,4.6668727 7.4661185,4.50118 7.6966177,4.5133599 7.9887059,4.5287572 8.0836173,4.4490133 8.0174321,4.2444823 7.9815827,4.1323352 8.0270827,4.0238651 8.1884103,3.839098 L 8.4090281,3.5872268 8.2169072,3.395106 C 8.1495729,3.3277716 8.1029213,3.2627353 8.0751142,3.2004569 A 6.5000003,6.5000003 0 0 0 2.0550214,4.7668396 C 1.9750476,4.9874568 1.8792169,5.0731759 1.7116857,5.1101754 A 6.5000003,6.5000003 0 0 0 1.4747519,5.3884747 c 0.039757,0.043894 0.080663,0.088477 0.1319107,0.1355878 0.2413003,0.2219965 0.3483915,0.5115565 0.2321079,0.6278404 -0.024589,0.024589 -0.043664,0.2082076 -0.042285,0.4076823 0.00184,0.2261327 -0.039068,0.3837822 -0.107551,0.4182536 -0.062509,0.031253 -0.1045633,0.1404137 -0.09652,0.2509524 0.00759,0.1077807 -0.025509,0.2355547 -0.073769,0.2838148 -0.076986,0.076986 -0.037689,0.1355878 0.3249508,0.4812215 L 2.2565645,8.387032 2.6470112,7.9827966 C 3.330925,7.2749828 3.4079114,6.9907081 2.9717323,6.7875563 2.7717979,6.6947133 2.4525922,6.2946146 2.4314497,6.1112263 2.4238661,6.0448115 2.476952,5.884634 2.5498018,5.755251 2.6221918,5.6258682 2.6918241,5.3457304 2.7035444,5.1326967 2.7279041,4.7011139 2.8009837,4.5963209 3.1852256,4.4455657 3.5205181,4.3138848 3.6034792,4.4506204 3.3283968,4.6820399 L 3.1238663,4.8543972 3.3283968,4.9945809 c 0.1135263,0.077216 0.303349,0.1263955 0.426527,0.1103088 0.1753448,-0.02275 0.2254433,-0.00161 0.2373934,0.1008862 0.00827,0.071701 -0.026198,0.1709784 -0.075838,0.2206173 -0.049639,0.049639 -0.055614,0.1539724 -0.014017,0.2318779 0.041826,0.078136 0.033552,0.2504929 -0.018842,0.3833226 C 3.8001997,6.2541681 3.7533187,6.2978321 3.4984598,6.4023953 3.2401536,6.5085674 3.2093589,6.537983 3.2121168,6.6754095 c 0.00275,0.1259355 0.03401,0.1613262 0.1693697,0.1951082 0.1358176,0.034243 0.1723571,0.078136 0.2056796,0.2470455 0.022062,0.1126067 0.1024951,0.2679579 0.178792,0.3442549 0.1551218,0.1551218 0.1266254,0.2773802 -0.1229483,0.5269535 -0.2304992,0.2304992 -0.1767235,0.4515764 0.1806305,0.7487201 0.2479646,0.2061395 0.2831259,0.2711755 0.3251809,0.5954372 0.026198,0.2003938 -0.00459,0.5887725 -0.068483,0.8640841 -0.063887,0.275313 -0.1273148,0.566251 -0.1408733,0.646455 -0.019994,0.115594 -0.09675,0.168911 -0.3748199,0.259915 l -0.3502299,0.113985 0.2833556,0.215792 c 0.5039725,0.384012 0.6512805,0.416415 0.5628037,0.122948 -0.034702,-0.114215 -0.017466,-0.137886 0.1064019,-0.146848 0.080893,-0.0056 0.1673016,-0.05653 0.1916613,-0.113526 0.02413,-0.05676 0.1404139,-0.131681 0.2578466,-0.166383 0.1178925,-0.0347 0.2594552,-0.106861 0.3157585,-0.160407 0.1755747,-0.166842 0.6050889,-0.0099 0.9137235,0.335063 0.4676628,0.522357 0.5156928,0.55476 0.8546625,0.5674 0.4237691,0.01563 0.5469471,-0.05102 0.6340448,-0.342646 0.0848,-0.282896 -0.017925,-0.53224 -0.3378203,-0.8218 -0.2861132,-0.258996 -0.2927776,-0.31392 -0.050329,-0.431812 0.2061395,-0.09996 0.4428435,0.01907 0.4678926,0.235325 0.019075,0.166612 0.3961918,0.429744 0.6023314,0.419862 0.086178,-0.0039 0.2658897,-0.06136 0.3984901,-0.127314 0.2288902,-0.113986 0.2562377,-0.107781 0.5384439,0.124786 0.2819766,0.231878 0.2985229,0.26497 0.3130011,0.620027 0.016315,0.395962 -0.093992,0.576133 -0.4433032,0.726888 -0.1548915,0.06665 -0.2056794,0.05217 -0.3017399,-0.0871 -0.1905123,-0.275542 -0.3633294,-0.286573 -0.6122132,-0.03769 -0.12065,0.12065 -0.2100459,0.256927 -0.1983258,0.30266 0.01149,0.04551 -0.028956,0.13283 -0.090315,0.194189 -0.061359,0.06136 -0.1109982,0.16983 -0.1100791,0.240151 0.00161,0.102727 -0.033092,0.122259 -0.1751149,0.0979 C 7.2383834,12.968056 7.1175032,12.901418 7.066945,12.837071 7.0166165,12.772954 6.8334582,12.639435 6.6601815,12.540158 6.4101487,12.396296 6.3120201,12.378601 6.1817181,12.45559 5.9344427,12.601749 5.6531556,12.63622 5.549741,12.532801 5.3863463,12.369406 4.9986575,12.750202 4.5985589,13.467897 c -0.059062,0.105942 -0.046882,0.222916 0.038838,0.365167 0.069403,0.115365 0.1068615,0.27876 0.083007,0.363284 -0.024084,0.08429 -0.012824,0.183802 0.024635,0.22126 0.037459,0.03746 0.06591,0.155628 0.06283,0.262122 -0.00298,0.107321 0.060302,0.259593 0.1423438,0.341635 0.1941894,0.194189 0.063704,0.33111 -0.1993829,0.209035 C 4.4728986,15.101567 4.2539357,14.687173 4.3382529,14.449803 4.452721,14.128046 4.2465819,14.103917 3.8800584,14.396441 3.4267587,14.758276 3.1689809,14.734767 2.7256781,14.291464 l -0.3187491,-0.318746 1.379e-4,0.27931 c -1.379e-4,0.08701 -0.017304,0.176334 -0.044468,0.253596 z m -1.50780452,-1.79686 c 0.0170518,8.8e-4 0.0324032,0.0029 0.0502134,0.0026 0.21546962,-0.0022 0.28108032,0.03238 0.42071272,0.222295 0.2438511,0.33162 0.3226987,0.178773 0.1440677,-0.279628 C 1.3732908,12.406289 1.3487472,12.209297 1.3982941,12.084372 1.6376639,11.481902 1.7392629,11.130271 1.6995057,11.044551 1.6193022,10.871046 1.4500703,10.889063 1.1824798,11.10012 0.87550005,11.342293 0.72444612,11.307661 0.707716,10.990708 0.7011664,10.867644 0.65828391,10.729436 0.61255178,10.683704 0.46983995,10.540993 0.42164884,10.378219 0.49902576,10.300842 0.53979404,10.260073 0.58977761,10.113569 0.61020773,9.9750177 0.640083,9.7709459 0.60905868,9.6838483 0.44635339,9.5211428 0.24664876,9.3214384 0.16161915,9.1614906 0.04970181,8.7733423 0.0478627,8.7673626 0.04464594,8.76277 0.04280756,8.7567977 A 6.5000003,6.5000003 0 0 0 0.85479418,12.708764 Z M 11.075582,14.114971 a 6.5000003,6.5000003 0 0 0 0.02066,-0.01888 6.5000003,6.5000003 0 0 0 0.793165,-0.972693 c -0.09872,-0.234314 -0.171622,-0.253434 -0.343795,-0.115824 -0.08914,0.07126 -0.221789,0.120168 -0.295834,0.109091 -0.114238,-0.01726 -0.127199,0.01942 -0.08443,0.246034 0.02767,0.146711 0.0097,0.336511 -0.03997,0.421495 -0.04816,0.08236 -0.0616,0.211424 -0.0498,0.330764 z m 0.0726,-2.965948 c 0.03861,0.04734 0.113365,0.07614 0.225972,0.07843 0.23783,0.0053 0.453184,-0.246815 0.40782,-0.476947 -0.05192,-0.263799 -0.143608,-0.293903 -0.358939,-0.118559 -0.265431,0.216251 -0.359193,0.412968 -0.274853,0.517072 z m -0.08503,-1.4749187 c 0.04849,0.045273 0.13375,0.063427 0.256239,0.044353 0.129842,-0.019989 0.24153,-0.1018058 0.367466,-0.2695681 0.154661,-0.2065982 0.20453,-0.2339452 0.347471,-0.1879833 0.183618,0.059521 0.394354,-0.099278 0.389987,-0.2939267 C 12.420175,8.77348 12.301133,8.7040775 12.137509,8.7996784 11.904482,8.9361853 11.612394,8.6873014 11.59355,8.3366118 11.58545,8.1870056 11.55701,8.0868085 11.52989,8.1139261 c -0.02711,0.027117 -0.04366,0.2077481 -0.03631,0.4007881 0.0108,0.2957653 -0.02138,0.3849315 -0.204761,0.5683195 -0.258765,0.2587658 -0.332304,0.4908735 -0.225672,0.5910706 z m 1.874306,0.6875677 a 6.5000003,6.5000003 0 0 0 0.02783,-0.240588 c -0.01717,0.07982 -0.02783,0.161993 -0.02783,0.240588 z M 12.094074,8.1072617 c 0.03125,0.015168 0.07032,-0.00414 0.12157,-0.055385 0.05194,-0.051938 0.139495,-0.073309 0.194649,-0.047571 0.07354,0.03401 0.148227,-0.015856 0.276231,-0.1852266 0.0239,-0.031713 0.04504,-0.055154 0.06687,-0.079744 a 6.5000003,6.5000003 0 0 0 -0.09307,-0.2893297 c -0.0763,0.082732 -0.184307,0.1617857 -0.343105,0.2373934 -0.269568,0.1284633 -0.321965,0.1758043 -0.299443,0.2681878 0.02114,0.086409 0.04481,0.136277 0.0763,0.1516744 z"/>
 <path style="fill:#a91f1f" d="M 14.347656 0 C 14.255131 -0.002212064 14.159597 0.0012801368 14.060547 0.0078125 C 12.438692 0.11556371 10.170973 1.3806573 8.15625 3.2207031 C 8.3162122 3.2627021 8.4738551 3.3108493 8.6308594 3.3652344 C 9.5427676 2.6981895 10.498257 2.1750937 11.314453 1.8203125 C 11.741802 1.634554 12.618872 1.2937358 13.263672 1.2539062 C 14.087476 1.2030193 14.630368 1.5437796 14.4375 2.2636719 C 14.190361 3.1585146 13.401946 4.5680375 12.123047 5.984375 C 10.844148 7.4007124 9.1019811 8.8947975 7.8027344 9.5820312 L 8.5761719 10.994141 C 10.096473 10.029307 11.767669 8.548784 13.203125 6.9589844 C 15.983131 3.879999 16.827455 0.82701908 15.087891 0.13867188 C 14.874348 0.054000175 14.625232 0.006639146 14.347656 0 z"/>
 <circle style="fill:#e13c3c" cx="8" cy="10" r="3"/>
 <circle style="fill:#ffa833" cx="8" cy="10" r="2"/>
 <circle style="fill:#ffffff" cx="8" cy="10" r="1"/>
</svg>
