<svg xmlns="http://www.w3.org/2000/svg" width="16" height="16" version="1">
 <rect style="fill:#1955aa" width="16" height="16" x="0" y="0" rx="4.8" ry="4.8"/>
 <path style="fill:#ffffff" d="M 8 2 A 6 6 0 0 0 2 8 A 6 6 0 0 0 8 14 A 6 6 0 0 0 14 8 A 6 6 0 0 0 8 2 z M 7.9882812 5 C 9.1849899 4.9999563 10.381327 5.0144639 10.541016 5.0449219 C 10.920994 5.1174229 11.034012 5.2692634 11.335938 6.0996094 C 11.642651 6.9431297 11.903367 8.1049753 11.982422 8.9863281 C 12.028212 9.4968154 11.989738 9.8478881 11.851562 10.185547 C 11.643645 10.693501 11.06521 11.075955 10.638672 10.988281 C 10.419229 10.943175 10.283585 10.762749 9.9238281 10.046875 C 9.7404215 9.6819174 9.5511155 9.0612094 9.4960938 9 L 6.4824219 9 C 6.3182414 9.2404692 6.2080192 9.773132 6.0917969 9.9863281 C 5.9367706 10.298333 5.7706703 10.619091 5.7226562 10.699219 C 5.5639576 10.964063 5.2273298 11.068769 4.921875 10.949219 C 4.5432547 10.801034 4.2333058 10.483482 4.0996094 10.107422 C 3.8386748 9.3734698 4.1092483 7.5498408 4.7226562 5.9082031 C 4.961543 5.2688774 5.0916528 5.1105462 5.4316406 5.046875 C 5.594399 5.0163959 6.7915732 5.0000437 7.9882812 5 z M 6 6 A 1 1 0 0 0 5 7 A 1 1 0 0 0 6 8 A 1 1 0 0 0 7 7 A 1 1 0 0 0 6 6 z M 10 6 A 1 1 0 0 0 9 7 A 1 1 0 0 0 10 8 A 1 1 0 0 0 11 7 A 1 1 0 0 0 10 6 z"/>
</svg>
