<svg width="16" height="16" version="1.1" xmlns="http://www.w3.org/2000/svg">
 <circle cx="8" cy="8" r="8" style="fill:#cf6237"/>
 <path d="M 8.0000002,5 A 3.0000002,3.0000002 0 0 0 5,8.0000002 3.0000002,3.0000002 0 0 0 8.0000002,11 3.0000002,3.0000002 0 0 0 11.000001,8.0000002 3.0000002,3.0000002 0 0 0 8.0000002,5 Z m 0,0.8571428 A 2.1428573,2.1428573 0 0 1 10.142857,8.0000002 2.1428573,2.1428573 0 0 1 8.0000002,10.142857 2.1428573,2.1428573 0 0 1 5.8571429,8.0000002 2.1428573,2.1428573 0 0 1 8.0000002,5.8571428 Z" style="fill:#ffffff"/>
 <path d="m7.8199781 1.8601817c-2.0505532 0.0966713-3.6643624 1.7818423-3.6757963 3.8323734-0.3663017 0.18154-0.7122495 0.4175162-1.0173332 0.7225995-1.4325306 1.4359925-1.508686 3.7358374-0.1741607 5.2633384-0.8344192-1.022795-0.7591141-2.5112296 0.1741607-3.4446986 1.0045145-1.0045145 2.6327654-1.0045136 3.63728 0 1.0045144 1.0045154 1.0045144 2.6327666 0 3.6372806-0.9546856 0.954482-2.4845182 1.008691-3.5041475 0.123922 1.3331949 1.213149 3.2944416 1.323329 4.740019 0.355857 1.4455769 0.967472 3.4068239 0.857292 4.7400179-0.355857-1.019629 0.884769-2.549461 0.83056-3.5041467-0.123922-1.0045146-1.004514-1.0045146-2.6327656 0-3.6372806 1.0045147-1.0045136 2.6327647-1.0045145 3.6372797 0 0.933274 0.933469 1.00858 2.4219036 0.174161 3.4446986 1.334525-1.527501 1.25837-3.8273459-0.174161-5.2633384-0.304119-0.3041195-0.648983-0.5395694-1.013983-0.7209251-0.011584-2.0203833-1.580084-3.6912935-3.5979268-3.8273494 1.3132487 0.133202 2.3125168 1.2388365 2.3126538 2.5588231 0 1.4205977-1.1516227 2.57222-2.5722204 2.57222s-2.57222-1.1516223-2.57222-2.57222c1.431e-4 -1.3499855 1.0439102-2.4701612 2.3905235-2.5655215zm0.1816965 5.5664449 0.6430551 0.6430551-0.6430551 0.643055-0.643055-0.643055z" style="fill:#ffffff"/>
</svg>
