<svg xmlns="http://www.w3.org/2000/svg" width="24" height="24" version="1.1">
 <defs>
  <style id="current-color-scheme" type="text/css">
   .ColorScheme-Text { color:#444444; } .ColorScheme-Highlight { color:#4285f4; } .ColorScheme-NeutralText { color:#ff9800; } .ColorScheme-PositiveText { color:#4caf50; } .ColorScheme-NegativeText { color:#f44336; }
  </style>
 </defs>
 <g transform="translate(4,4)">
  <path style="fill:currentColor" class="ColorScheme-Text" d="M 3,1 C 3,1 2,1 2,2 V 14 C 2,15 3,15 3,15 H 7 V 13 H 4 V 3 H 12 V 8 H 14 V 2 C 14,1 13,1 13,1 Z M 11,9 C 9,9 9,10 9,10 V 12 H 8 V 15 H 14 V 12 H 13 V 10 C 13,10 13,9 11,9 Z M 11,10 C 12,10 12,10.5 12,10.5 V 12 H 10 V 10.5 C 10,10.5 10,10 11,10 Z"/>
 </g>
</svg>
