<?xml version='1.0' encoding='UTF-8' standalone='no'?>
<svg height="16" style="enable-background:new" version="1.1" width="16" xmlns="http://www.w3.org/2000/svg">
 <title>
  Paper Symbolic Icon Theme
 </title>
 <g transform="translate(-136,-180)">
  <path d="m 147.28105,180.00525 c -0.27821,0.0752 -0.37465,0.49932 -0.15625,0.68727 l 3.1875,3.18646 c 0.21982,0.23021 0.69212,0.0371 0.6875,-0.28116 l 0,-3.21769 c -0.0122,-0.20318 -0.20269,-0.37897 -0.40625,-0.37488 l -3.1875,0 c -0.0413,-0.007 -0.0837,-0.007 -0.125,0 z" style="fill:#5c616c;fill-opacity:0.96862745;"/>
  <path d="m 137.84375,180.00525 c -0.4813,0.0874 -0.85238,0.53322 -0.84375,0.99967 l 0,13.99541 c 6e-5,0.52341 0.51276,0.99962 1.0625,0.99967 l 11.875,0 c 0.54975,-5e-5 1.06245,-0.47626 1.0625,-0.99967 l -0.0312,-7.59126 c 0.006,-0.26397 -0.0884,-0.52879 -0.28125,-0.71852 l -6.40625,-6.40414 c -0.19927,-0.18364 -0.47275,-0.28728 -0.75,-0.28116 l -5.46875,0 c -0.0654,-0.006 -0.15331,-0.006 -0.21875,0 z m 1.15625,1.99934 4,0 3.5,3.49885 2.5,2.49918 0,5.99804 -10,0 0,-11.99607 z" style="font-family:'Andale Mono';pt;fill:#5c616c;fill-opacity:0.96862745;"/>
  <rect height="3" style="fill:#5c616c;fill-opacity:0.99607843;" transform="scale(-1,1)" width="2" x="-142" y="189"/>
  <rect height="2" style="fill:#5c616c;fill-opacity:0.99607843;" width="2" x="146" y="190"/>
  <rect height="5" style="fill:#5c616c;fill-opacity:0.99607843;" transform="scale(-1,1)" width="2" x="-145" y="187"/>
 </g>
</svg>
