<svg width="32" height="32" version="1.1" xmlns="http://www.w3.org/2000/svg">
 <g transform="translate(1.0004064)">
  <circle cx="15.5" cy="27" r="4" style="opacity:.2"/>
  <circle cx="15.5" cy="26" r="4" style="fill:#2191ad"/>
  <path d="m3.9472656 3.0062962c-0.1052165-0.00884-0.1997798-0.00568-0.2851562 0.00977-0.1138352 0.020589-0.2107771 0.061414-0.2910156 0.125-0.6567968 0.5204892-0.4513964 2.5880154 0.6855468 6.8886718 0.63754 2.411589 1.1631351 3.694716 2.0683594 5.054687 0.5943921 0.892968 0.8815121 1.23293 1.8632812 2.203125 0.8792572 0.968632 1.988982 2.323094 2.0117188 3.462891-0.2524832 2.250007-1.9000018 3.42847-2 5.34375 0 2.318938 1.0808171 3.90625 3.400391 3.90625 1.454932 0.145589 2.797003-1.737526 4.099609-2 1.302606 0.262474 2.644677 2.145589 4.099609 2 2.319574 0 3.400391-1.587312 3.400391-3.90625-0.1-1.91528-1.747517-3.093743-2-5.34375 0.02274-1.139797 1.132461-2.494261 2.011719-3.462891 0.981769-0.970195 1.268889-1.310157 1.863281-2.203125 0.905225-1.359971 1.430819-2.643099 2.068359-5.054687 1.136943-4.3006564 1.342344-6.3681826 0.685547-6.8886718-0.08024-0.063587-0.17718-0.104411-0.291015-0.125-0.08538-0.01544-0.179941-0.018606-0.285157-0.00977-0.31565 0.026526-0.722292 0.1624088-1.230468 0.4101562-1.007787 0.4913269-1.993284 1.2161501-3.103516 2.2851563-1.66597 1.6040977-2.261169 2.5235897-4.222656 6.5156253-0.585852 1.189415-1.304735 2.345884-2.183594 3.609375-0.255398 0.175825-0.8125 0.173828-0.8125 0.173828s-0.557102 2e-3 -0.8125-0.173828c-0.878859-1.263491-1.597742-2.41996-2.183594-3.609375-1.961487-3.9920356-2.5566855-4.9115276-4.222656-6.5156253-1.1102314-1.0690062-2.0957291-1.7938294-3.1035156-2.2851563-0.5081767-0.2477474-0.9148196-0.3836304-1.2304688-0.4101562z" style="opacity:.2"/>
  <rect x="14" y="27" width="1.5" height="3" rx=".375" ry=".375" style="opacity:.2"/>
  <rect x="14" y="26" width="1.5" height="3" rx=".375" ry=".375" style="fill:#ffffff"/>
  <rect x="15.5" y="27" width="1.5" height="3" rx=".375" ry=".375" style="opacity:.2"/>
  <rect x="15.5" y="26" width="1.5" height="3" rx=".375" ry=".375" style="fill:#ffffff"/>
  <path d="m3.9472656 2.0058594c-0.1052165-0.0088419-0.1997798-0.0056761-0.2851562 0.0097656-0.1138352 0.0205888-0.2107771 0.0614139-0.2910156 0.125-0.6567968 0.5204892-0.4513964 2.5880154 0.6855468 6.8886719 0.63754 2.4115891 1.1631351 3.6947161 2.0683594 5.0546871 0.5943921 0.892968 0.8815121 1.23293 1.8632812 2.203125 0.8792572 0.968632 1.988982 2.323094 2.0117188 3.462891-0.2524832 2.250007-1.9000018 3.42847-2 5.34375 0 2.318938 1.0808171 3.90625 3.400391 3.90625 1.454932 0.145589 2.797003-1.737526 4.099609-2 1.302606 0.262474 2.644677 2.145589 4.099609 2 2.319574 0 3.400391-1.587312 3.400391-3.90625-0.1-1.91528-1.747517-3.093743-2-5.34375 0.02274-1.139797 1.132461-2.494261 2.011719-3.462891 0.981769-0.970195 1.268889-1.310157 1.863281-2.203125 0.905225-1.359971 1.430819-2.643099 2.068359-5.0546871 1.136943-4.3006565 1.342344-6.3681827 0.685547-6.8886719-0.08024-0.063587-0.17718-0.104411-0.291015-0.125-0.08538-0.01544-0.179941-0.018606-0.285157-0.00977-0.31565 0.026526-0.722292 0.1624088-1.230468 0.4101562-1.007787 0.4913313-1.993284 1.2161545-3.103516 2.2851607-1.66597 1.6040977-2.261169 2.5235897-4.222656 6.5156251-0.585852 1.189415-1.304735 2.345884-2.183594 3.609375-0.255398 0.175825-0.8125 0.173828-0.8125 0.173828s-0.557102 2e-3 -0.8125-0.173828c-0.878859-1.263491-1.597742-2.41996-2.183594-3.609375-1.961487-3.9920354-2.5566855-4.9115274-4.222656-6.5156251-1.1102314-1.0690062-2.0957291-1.7938294-3.1035156-2.2851563-0.5081767-0.2477474-0.9148196-0.3836304-1.2304688-0.4101562z" style="fill:#27abcc"/>
  <path d="m4.4298602 3.6162122c0.00214 0.1507423-0.016574 0.206077 0.0041 0.4142478 0.096759 0.9742271 0.4165399 2.5254738 0.9761484 4.6428571 0.6203188 2.3470899 1.0626416 3.4100599 1.8812047 4.6401229h-0.0014c0.5695847 0.855934 0.7199719 1.030469 1.6829674 1.982374l0.027341 0.02598 0.024612 0.02871c0.4119058 0.4539 0.9174301 0.976895 1.3589513 1.591368 0.719436-0.807007 1.616025-1.436397 2.619469-1.838823-0.706588-1.141461-1.28408-2.308927-1.755427-3.266133v-0.0014c-1.9494143-3.9685936-2.3435412-4.5883972-3.9373721-6.1234558-1.0402898-1.001937-1.9042314-1.6276277-2.7466136-2.0384275-0.1162456-0.0566854-0.0409937-0.0237618-0.1339811-0.0574205zm22.339307 0.00684c-0.0625 0.027227-0.06335 0.016142-0.133981 0.050585-0.842383 0.4107998-1.706324 1.0364906-2.746614 2.0384276-1.593831 1.5350587-1.987958 2.1548623-3.937405 6.1234852v0.0014c-0.471568 0.957653-1.04975 2.125533-1.756794 3.2675 1.003936 0.402242 1.90101 1.031644 2.620835 1.838823 0.441669-0.614869 0.946832-1.138615 1.358952-1.592735l0.02461-0.02871 0.02734-0.02598c0.962995-0.951905 1.113382-1.126441 1.682967-1.982374h-0.0014c0.81853-1.230065 1.260886-2.293033 1.881205-4.6401228 0.559609-2.1173833 0.879389-3.6686301 0.976148-4.6428572 0.02036-0.204736 0.0018-0.2581524 0.0041-0.4074121z" style="opacity:.3"/>
  <path d="m15.499999 27c-1.609616-0.09879-2.991843-1.532882-2.331057-2.23963 0.705097-0.557318 1.590057-0.766906 2.331057-0.760215 0.741002-0.0066 1.625962 0.202897 2.331059 0.760215 0.660786 0.706748-0.721439 2.140845-2.331059 2.23963z" style="fill:#bf3667"/>
  <path d="m12.326116 24.000167c-0.950824 0-2.324187-0.671573-2.324187-1.5s-0.090014-1.5 0.86081-1.5c2.443994 0.253368 2.58243 3 1.463377 3z" style="opacity:.2"/>
  <path d="m12.326116 22.99973c-0.950824 0-2.324187-0.671573-2.324187-1.5s-0.090014-1.5 0.86081-1.5c2.443994 0.253368 2.58243 3 1.463377 3z" style="fill:#ffffff"/>
  <circle cx="12.5" cy="22.5" r=".5" style="fill:#323232"/>
  <path d="m18.673884 24.000167c0.950824 0 2.324187-0.671573 2.324187-1.5s0.09001-1.5-0.86081-1.5c-2.443994 0.253368-2.58243 3-1.463377 3z" style="opacity:.2"/>
  <path d="m18.673884 22.99973c0.950824 0 2.324187-0.671573 2.324187-1.5s0.09001-1.5-0.86081-1.5c-2.443994 0.253368-2.58243 3-1.463377 3z" style="fill:#ffffff"/>
  <circle transform="scale(-1,1)" cx="-18.5" cy="22.5" r=".5" style="fill:#323232"/>
  <path d="m3.9472656 2.0058594c-0.1052165-0.0088419-0.1997798-0.0056761-0.2851562 0.0097656-0.1138352 0.0205888-0.2107771 0.0614139-0.2910156 0.125-0.3073463 0.2435615-0.4172019 0.8425964-0.3398438 1.8339844 0.0464356-0.408912 0.1544391-0.6948713 0.3398438-0.8417969 0.080238-0.063586 0.1771804-0.104411 0.2910156-0.125 0.085376-0.01545 0.1799397-0.018606 0.2851562-0.00977 0.3156492 0.026526 0.7222921 0.1624088 1.2304688 0.4101562 1.0077865 0.4913269 1.9932842 1.2161501 3.1035156 2.2851563 1.6659705 1.6040977 2.261169 2.5235936 4.222656 6.515625 0.585852 1.189415 1.304735 2.345884 2.183594 3.609375 0.255398 0.175828 0.8125 0.173829 0.8125 0.173829s0.557102 2e-3 0.8125-0.173829c0.878859-1.263491 1.597742-2.41996 2.183594-3.609375 1.961487-3.9920358 2.556686-4.9115273 4.222656-6.515625 1.110232-1.0690062 2.095729-1.7938294 3.103516-2.2851563 0.508176-0.2477474 0.914818-0.3836302 1.230468-0.4101562 0.105216-0.00884 0.199777-0.00567 0.285157 0.00977 0.113835 0.020589 0.210775 0.061413 0.291015 0.125 0.185405 0.1469269 0.293408 0.4328843 0.339844 0.8417969 0.07736-0.991388-0.0325-1.5904229-0.339844-1.8339844-0.08024-0.063587-0.17718-0.104411-0.291015-0.125-0.08538-0.01544-0.179941-0.018606-0.285157-0.00977-0.31565 0.026526-0.722292 0.1624088-1.230468 0.4101562-1.007787 0.4913313-1.993284 1.2161545-3.103516 2.2851607-1.66597 1.6040977-2.261169 2.5235896-4.222656 6.5156251-0.585852 1.189415-1.304735 2.345884-2.183594 3.609375-0.255398 0.175825-0.8125 0.173828-0.8125 0.173828s-0.557102 2e-3 -0.8125-0.173828c-0.878859-1.263491-1.597742-2.41996-2.183594-3.609375-1.961487-3.9920355-2.5566855-4.9115274-4.222656-6.5156251-1.1102314-1.0690062-2.0957291-1.7938294-3.1035156-2.2851563-0.5081767-0.2477474-0.9148196-0.3836304-1.2304688-0.4101562zm5.9648438 18.201172c-0.4059954 1.954772-1.8192784 3.108714-1.9121094 4.886719 0 0.245741 0.018506 0.478741 0.042969 0.707031 0.2394635-1.748144 1.7176384-2.925244 1.957031-5.058593-0.0034684-0.17387-0.0385109-0.353428-0.0878906-0.535157zm11.175782 0c-0.04938 0.181729-0.08442 0.361287-0.08789 0.535157 0.239392 2.133349 1.717566 3.310449 1.957031 5.058593 0.024462-0.22829 0.042968-0.46129 0.042968-0.707031-0.092831-1.778005-1.506114-2.931947-1.912109-4.886719z" style="fill:#ffffff;opacity:.2"/>
 </g>
</svg>
