<svg width="32" height="32" version="1.1" xmlns="http://www.w3.org/2000/svg">
 <rect x="2" y="3" width="28" height="28" rx="1.4" ry="1.4" style="opacity:.2"/>
 <rect x="2" y="2" width="28" height="28" rx="1.4" ry="1.4" style="fill:#264864"/>
 <path d="M 3.4003906,2 C 2.6247906,2 2,2.6247906 2,3.4003906 v 1 C 2,3.6247906 2.6247906,3 3.4003906,3 H 28.599609 C 29.375209,3 30,3.6247906 30,4.4003906 v -1 C 30,2.6247906 29.375209,2 28.599609,2 Z" style="fill:#ffffff;opacity:.1"/>
 <path d="m 9,23 3,-8 -1,1 1,-5 1,-1 -0.5,-0.5 0.857608,-2.6263076 C 13.357608,6.8736924 13.974299,5 14.590991,5 16.441065,5 18,7.5044226 18,7.5044226 L 17,9 l 1.5,-1 1.641214,3.288802 -0.616691,2.52292 1.233383,-0.63073 c 0,0 1.160651,3.73965 1.233383,5.67657 0.05577,1.485549 -0.157037,3.004754 -0.616691,4.415109 C 20.141214,27.057051 18,29 18,29 L 19,25 17.972226,24.058824 19,24 17.972226,22.647059 19,22 l -1,-1 1,-1 -1,-1 1,-1 v -1 h -1 l 1,-1 h -2 l 1,-1 H 17 L 17.674448,13.180992 16,14 16.5,12.058823 16,11 12,24 11.5,25 V 23 L 10.380342,25.470588 10.623733,24 10.035258,24.764706 10.380342,23.352941 9.5,24.058824 9.6901714,22.647059 Z" style="opacity:.2"/>
 <path d="m 9,22 3,-8 -1,1 1,-5 1,-1 -0.5,-0.5 0.857608,-2.6263076 C 13.357608,5.8736924 13.974299,4 14.590991,4 16.441065,4 18,6.5044226 18,6.5044226 L 17,8 l 1.5,-1 1.641214,3.288802 -0.616691,2.52292 1.233383,-0.63073 c 0,0 1.160651,3.73965 1.233383,5.67657 0.05577,1.485549 -0.157037,3.004754 -0.616691,4.415109 C 20.141214,26.057051 18,28 18,28 L 19,24 17.972226,23.058824 19,23 17.972226,21.647059 19,21 l -1,-1 1,-1 -1,-1 1,-1 v -1 h -1 l 1,-1 h -2 l 1,-1 H 17 L 17.674448,12.180992 16,13 16.5,11.058823 16,10 12,23 11.5,24 V 22 L 10.380342,24.470588 10.623733,23 10.035258,23.764706 10.380342,22.352941 9.5,23.058824 9.6901714,21.647059 Z" style="fill:#2fd9dc"/>
</svg>
