<svg xmlns="http://www.w3.org/2000/svg" width="32" height="32" version="1.1">
 <path style="opacity:0.2" d="M 17.289888,3.0052113 C 16.236665,2.9037533 15.792309,4.3109743 16.713199,4.8315123 19.677468,6.5128503 21.998883,9.6505313 22,13.055603 22,18.291819 17.280081,22.998605 12.038449,23 8.640617,22.9908 5.5123621,20.684229 3.8321175,17.734147 3.3094555,16.817672 1.904988,17.261475 2.0050861,18.311477 2.6949517,25.486491 8.736857,30.983741 15.952786,30.999998 c 8.4e-4,2e-6 0.0017,2e-6 0.0025,0 C 23.700376,30.999998 30,24.707285 30,16.970745 29.999532,9.7478723 24.487977,3.6915253 17.289888,3.0052113 Z"/>
 <path style="fill:#fdd835" d="M 17.289888,2.0052118 C 16.236665,1.9037538 15.792309,3.3109748 16.713199,3.8315128 19.677468,5.5128508 21.998883,8.6505318 22,12.055603 22,17.291819 17.280081,21.998605 12.038449,22 8.640617,21.9908 5.5123621,19.68423 3.8321175,16.734147 3.3094555,15.817672 1.904988,16.261475 2.0050861,17.311477 2.6949517,24.486491 8.736857,29.983742 15.952786,29.999999 c 8.4e-4,2e-6 0.0017,2e-6 0.0025,0 C 23.700376,29.999999 30,23.707286 30,15.970745 29.999532,8.7478728 24.487977,2.6915258 17.289888,2.0052118 Z"/>
 <path style="fill:#ffffff;opacity:0.2" d="M 17.099609 2.0039062 C 16.35783 2.0631246 15.998519 2.9087694 16.351562 3.4863281 C 16.525167 3.1809893 16.852893 2.9638428 17.289062 3.0058594 C 24.316328 3.675886 29.73456 9.4638875 29.988281 16.458984 C 29.993883 16.296528 30 16.1345 30 15.970703 C 29.999532 8.7478309 24.487151 2.6921734 17.289062 2.0058594 C 17.223236 1.9995182 17.160494 1.9990456 17.099609 2.0039062 z M 21.980469 12.609375 C 21.663114 17.618956 17.095086 21.998654 12.039062 22 C 8.6412305 21.9908 5.5122759 19.684458 3.8320312 16.734375 C 3.3093693 15.8179 1.9057613 16.260545 2.0058594 17.310547 C 2.0231945 17.490843 2.0462848 17.66954 2.0703125 17.847656 C 2.346118 17.153814 3.3952843 16.96855 3.8320312 17.734375 C 5.5122759 20.684457 8.6412305 22.9908 12.039062 23 C 17.280694 22.998605 22 18.290903 22 13.054688 C 21.999951 12.905383 21.989298 12.757551 21.980469 12.609375 z"/>
</svg>
