<svg xmlns="http://www.w3.org/2000/svg" height="32" width="32" version="1.1">
 <circle cx="16" cy="17" r="14" style="opacity:.2"/>
 <circle cx="16" cy="16" r="14" style="fill:#fecd38"/>
 <path d="m16 2a14 14 0 0 0 -14 14 14 14 0 0 0 0.0215 0.586 14 14 0 0 1 13.9785 -13.586 14 14 0 0 1 13.979 13.414 14 14 0 0 0 0.021 -0.414 14 14 0 0 0 -14 -14z" style="opacity:.2;fill:#ffffff"/>
 <path style="opacity:.2" d="m21 7h-7l-3 9h3l-2 5h4l-4 7 9-9h-4l4-5h-4z"/>
 <path style="fill:#ffffff" d="m21 6h-7l-3 9h3l-2 5h4l-4 7 9-9h-4l4-5h-4z"/>
</svg>
