<svg width="32" height="32" version="1.1" xmlns="http://www.w3.org/2000/svg">
 <rect transform="matrix(0,-1,-1,0,0,0)" x="-31" y="-30" width="29" height="29" rx="1.45" ry="1.45" style="opacity:.2"/>
 <rect transform="matrix(0,-1,-1,0,0,0)" x="-30" y="-30" width="29" height="29" rx="1.45" ry="1.45" style="fill:#752828"/>
 <path d="M 2.4492188,1 C 1.6459187,1 1,1.6459187 1,2.4492188 v 1 C 1,2.6459187 1.6459187,2 2.4492188,2 H 28.550781 C 29.354081,2 30,2.6459187 30,3.4492188 v -1 C 30,1.6459187 29.354081,1 28.550781,1 Z" style="fill:#ffffff;opacity:.1"/>
 <path d="m15 16a10 5 0 0 0-10 5 10 5 0 0 0 10 5 10 5 0 0 0 10-5 10 5 0 0 0-10-5zm0 2a8 3 0 0 1 8 3 8 3 0 0 1-8 3 8 3 0 0 1-8-3 8 3 0 0 1 8-3z" style="opacity:.2"/>
 <path d="m15 15a10 5 0 0 0-10 5 10 5 0 0 0 10 5 10 5 0 0 0 10-5 10 5 0 0 0-10-5zm0 2a8 3 0 0 1 8 3 8 3 0 0 1-8 3 8 3 0 0 1-8-3 8 3 0 0 1 8-3z" style="fill:#6c7f94"/>
 <path d="m18 6c-0.554 0-1 0.446-1 1v11.244141c-0.468462-0.159837-0.980838-0.243232-1.5-0.244141-1.932997 0-3.5 1.119288-3.5 2.5s1.567003 2.5 3.5 2.5 3.5-1.119288 3.5-2.5v-13.5c0-0.554-0.446-1-1-1z" style="opacity:.2"/>
 <path d="m18 5c-0.554 0-1 0.446-1 1v11.244141c-0.468462-0.159837-0.980838-0.243232-1.5-0.244141-1.932997 0-3.5 1.119288-3.5 2.5s1.567003 2.5 3.5 2.5 3.5-1.119288 3.5-2.5v-13.5c0-0.554-0.446-1-1-1z" style="fill:#4c66cc"/>
</svg>
