<svg xmlns="http://www.w3.org/2000/svg" height="32" width="32" version="1.1">
 <circle r="8" style="fill:#003d82" cx="16" cy="16"/>
 <path style="opacity:.2" d="m16 4a13 13 0 0 0 -13 13 13 13 0 0 0 13 13 13 13 0 0 0 13 -13 13 13 0 0 0 -13 -13zm0 6a7 7 0 0 1 7 7 7 7 0 0 1 -7 7 7 7 0 0 1 -7 -7 7 7 0 0 1 7 -7z"/>
 <path style="fill:#0075f8" d="m16 3a13 13 0 0 0 -13 13 13 13 0 0 0 13 13 13 13 0 0 0 13 -13 13 13 0 0 0 -13 -13zm0 6a7 7 0 0 1 7 7 7 7 0 0 1 -7 7 7 7 0 0 1 -7 -7 7 7 0 0 1 7 -7z"/>
 <path style="opacity:.2" d="m16 3a14 14 0 0 0 -14 14 14 14 0 0 0 14 14 14 14 0 0 0 14 -14 14 14 0 0 0 -14 -14zm0 3a11 11 0 0 1 11 11 11 11 0 0 1 -11 11 11 11 0 0 1 -11 -11 11 11 0 0 1 11 -11z"/>
 <path style="fill:#a1ccfe" d="m16 2a14 14 0 0 0 -14 14 14 14 0 0 0 14 14 14 14 0 0 0 14 -14 14 14 0 0 0 -14 -14zm0 3a11 11 0 0 1 11 11 11 11 0 0 1 -11 11 11 11 0 0 1 -11 -11 11 11 0 0 1 11 -11z"/>
 <path style="opacity:.2;fill:#ffffff" d="m16 2a14 14 0 0 0 -14 14 14 14 0 0 0 0.0214844 0.414062 14 14 0 0 1 13.978516 -13.414062 14 14 0 0 1 13.978516 13.585938 14 14 0 0 0 0.021484 -0.585938 14 14 0 0 0 -14 -14zm10.978516 14.414062a11 11 0 0 1 -10.978516 10.585938 11 11 0 0 1 -10.978516 -10.414062 11 11 0 0 0 -0.021484 0.414062 11 11 0 0 0 11 11 11 11 0 0 0 11 -11 11 11 0 0 0 -0.021484 -0.585938z"/>
 <path style="opacity:.2" d="m11.976562 8.953125a9 9 0 0 0 -4.976562 8.046875h6a3 3 0 0 0 1.335938 2.494141l-3.326172 4.990234a9 9 0 0 0 4.990234 1.515625 9 9 0 0 0 4.988281 -1.517578l-3.326172-4.988281a3 3 0 0 0 1.337891 -2.494141h6a9 9 0 0 0 -4.589844 -7.8398438l-2.939453 5.2265628a3 3 0 0 0 -1.470703 -0.386719 3 3 0 0 0 -1.341797 0.316406zm4.023438 7.046875a1 1 0 0 1 1 1 1 1 0 0 1 -1 1 1 1 0 0 1 -1 -1 1 1 0 0 1 1 -1z"/>
 <path style="fill:#ffffff" d="m11.976562 7.953125a9 9 0 0 0 -4.976562 8.046875h6a3 3 0 0 0 1.335938 2.494141l-3.326172 4.990234a9 9 0 0 0 4.990234 1.515625 9 9 0 0 0 4.988281 -1.517578l-3.326172-4.988281a3 3 0 0 0 1.337891 -2.494141h6a9 9 0 0 0 -4.589844 -7.8398438l-2.939453 5.2265628a3 3 0 0 0 -1.470703 -0.386719 3 3 0 0 0 -1.341797 0.316406l-2.681641-5.363281zm4.023438 7.046875a1 1 0 0 1 1 1 1 1 0 0 1 -1 1 1 1 0 0 1 -1 -1 1 1 0 0 1 1 -1z"/>
</svg>
