<svg xmlns="http://www.w3.org/2000/svg" width="32" height="32" version="1.1">
 <rect style="opacity:0.2" width="28" height="28" x="2" y="3" rx="2" ry="2"/>
 <rect style="fill:#ffcaab" width="28" height="28" x="2" y="2" rx="2" ry="2"/>
 <path style="opacity:0.2" d="m8 21s6 7 14 7c4 0 5-3 5-3l-2-5-5-5-8-4-5-1-1 7z"/>
 <path style="fill:#ffffff" d="m8 20s6 7 14 7c4 0 5-3 5-3l-2-5-5-5-8-4-5-1-1 7z"/>
 <path style="fill:#54116e" d="M 12.586 10.596 A 6 8 0 0 0 11 16 A 6 8 0 0 0 11.014 16.355 L 20.998 21.945 A 6 8 0 0 0 22.992 16.193 L 19 13 L 12.586 10.596 z"/>
 <path style="fill:#6b5ca7" d="M 13.5 16 A 7.5 6 0 0 0 11.014 16.348 A 6 8 0 0 0 11.215 18.055 L 17.896 23.896 A 6 8 0 0 0 20.998 21.947 A 7.5 6 0 0 0 13.5 16 z"/>
 <path style="fill:#86bdcd" d="m12 18a6 5 0 0 0 -0.792969 0.048828 6 8 0 0 0 5.792969 5.951172 6 8 0 0 0 0.898438 -0.101562 6 5 0 0 0 0.101562 -0.898438 6 5 0 0 0 -6 -5z"/>
 <path style="fill:#b8d8e2" d="m17 17s-1-2-2-2c-2 0-2 2-2 2 0 2 4 4 4 4s4-2 4-4c0 0 0-2-2-2-1 0-2 2-2 2z"/>
 <ellipse style="fill:#ffffff" cx="12" cy="15" rx="3" ry="2"/>
 <path style="opacity:0.1" d="m8 21s-1-2.625631-1-4c0-2 1-6 1-6s5 1 10 4c4.287465 2.572479 5 4 5 4l4 6v-2h1l-3-5s0-1-6-5-9-5-15-8l3 5-2-1 1 3v5c0 1.490712 2 4 2 4z"/>
 <path style="fill:#4f4f4f" d="m8 20s-1-2.625631-1-4c0-2 1-6 1-6s5 1 10 4c4.287465 2.572479 5 4 5 4l4 6v-2h1l-3-5s0-1-6-5-9-5-15-8l3 5-2-1 1 3v5c0 1.490712 2 4 2 4z"/>
 <path style="opacity:0.2;fill:#ffffff" d="m4 2c-1.108 0-2 0.892-2 2v1c0-1.108 0.892-2 2-2h24c1.108 0 2 0.892 2 2v-1c0-1.108-0.892-2-2-2h-24z"/>
</svg>
