<svg xmlns="http://www.w3.org/2000/svg" width="32" height="32" version="1">
 <rect style="opacity:0.2" width="27" height="27" x="3" y="3" rx="8.1" ry="8.1"/>
 <rect style="fill:#3f3f3f" width="27" height="27" x="3" y="2" rx="8.1" ry="8.1"/>
 <path style="opacity:0.2" d="M 25.970703 19.412109 A 6 6 0 0 1 20 25 A 6 6 0 0 1 14.035156 19.5 A 6 6 0 0 0 14 20 A 6 6 0 0 0 20 26 A 6 6 0 0 0 26 20 A 6 6 0 0 0 25.970703 19.412109 z"/>
 <path style="fill:#25b265" d="m 19,19 a 6,6 0 0 1 -6,6 6,6 0 0 1 -6,-6 6,6 0 0 1 6,-6 6,6 0 0 1 6,6 z"/>
 <path style="fill:#3584e4" d="m 14,19 a 6,6 0 0 0 6,6 6,6 0 0 0 6,-6 6,6 0 0 0 -6,-6 6,6 0 0 0 -6,6 z"/>
 <path style="fill:#e3424a" d="m 23,12 a 6,6 0 0 1 -6,6 6,6 0 0 1 -6,-6 6,6 0 0 1 6,-6 6,6 0 0 1 6,6 z"/>
 <path style="fill:#9e3cc8" d="M 20,13 A 6,6 0 0 0 14.242188,17.3125 6,6 0 0 0 17,18 6,6 0 0 0 22.761719,13.675781 6,6 0 0 0 20,13 Z"/>
 <path style="fill:#ffc224" d="M 13,13 A 6,6 0 0 0 11.158203,13.298828 6,6 0 0 0 17,18 6,6 0 0 0 18.855469,17.695312 6,6 0 0 0 13,13 Z"/>
 <path style="fill:#29e1d5" d="M 16.509766,14.136719 A 6,6 0 0 0 14,19 6,6 0 0 0 16.5,23.855469 6,6 0 0 0 19,19 6,6 0 0 0 16.509766,14.136719 Z"/>
 <path style="fill:#ffffff" d="M 16.509766,14.136719 A 6,6 0 0 0 14.255859,17.320312 6,6 0 0 0 17,18 6,6 0 0 0 18.849609,17.697266 6,6 0 0 0 16.509766,14.136719 Z"/>
 <path style="fill:#ffffff;opacity:0.1" d="M 11.099609 2 C 6.6122097 2 3 5.6122097 3 10.099609 L 3 11.099609 C 3 6.6122097 6.6122097 3 11.099609 3 L 21.900391 3 C 26.38779 3 30 6.6122097 30 11.099609 L 30 10.099609 C 30 5.6122097 26.38779 2 21.900391 2 L 11.099609 2 z"/>
 <path style="opacity:0.2" d="M 18.970703 19.412109 A 6 6 0 0 1 13 25 A 6 6 0 0 1 7.0351562 19.5 A 6 6 0 0 0 7 20 A 6 6 0 0 0 13 26 A 6 6 0 0 0 19 20 A 6 6 0 0 0 18.970703 19.412109 z"/>
 <path style="opacity:0.2" d="M 22.970703 12.412109 A 6 6 0 0 1 17 18 A 6 6 0 0 1 11.035156 12.5 A 6 6 0 0 0 11 13 A 6 6 0 0 0 17 19 A 6 6 0 0 0 23 13 A 6 6 0 0 0 22.970703 12.412109 z"/>
 <path style="fill:#ffffff;opacity:0.2" d="M 17 6 A 6 6 0 0 0 11 12 A 6 6 0 0 0 11.035156 12.5 A 6 6 0 0 1 17 7 A 6 6 0 0 1 22.970703 12.412109 A 6 6 0 0 0 23 12 A 6 6 0 0 0 17 6 z"/>
</svg>
