<svg xmlns="http://www.w3.org/2000/svg" width="32" height="32" version="1">
 <circle style="opacity:0.2" cx="16" cy="17" r="14"/>
 <circle style="fill:#17a0db" cx="16" cy="16" r="14"/>
 <path style="opacity:0.2" d="m 19.296378,5.9999835 a 1.1098433,1.1233914 0 0 0 -0.812595,0.3660632 1.1098433,1.1233914 0 0 0 -0.276817,0.8767466 c 0.032,0.3308858 -0.05343,0.8990898 -0.107155,1.102711 -0.0046,0.012726 -0.102972,0.3065166 -0.852779,0.6778954 a 1.3578723,1.374448 0 0 0 -0.111624,0.040679 c -0.388617,0.1307349 -1.112845,0.3747426 -1.58947,1.0168463 -0.362328,0.441952 -0.456376,0.891713 -0.558101,1.410023 a 4.7799847,4.8383346 0 0 0 -0.111626,1.197617 v 0.08587 l -0.08483,0.0226 c -1.213844,0.270725 -2.089876,0.827071 -2.598505,1.645029 -0.52692,0.850353 -0.617752,1.907292 -0.263423,3.154475 0.0034,0.01735 0.01329,0.04129 0.01786,0.06327 l 0.05357,0.167215 -0.169661,-0.02712 c -0.06172,-0.01273 -0.120194,-0.01787 -0.183058,-0.02712 a 1.7327729,1.7539253 0 0 0 -0.156268,-0.009 c -0.58864,0 -1.219179,0.379478 -1.6832323,1.012324 -0.3577555,0.492859 -0.7909852,1.355866 -0.8081296,2.702548 -0.00914,1.012325 0.098685,1.94312 0.3170008,2.770335 0.1657342,0.609709 0.3488264,0.984377 0.4196924,1.116269 l 1.3885527,2.634756 0.634003,-2.914953 c 0.258317,-1.16967 0.508666,-1.613067 0.808131,-1.916186 l 0.05804,-0.05874 0.07144,0.04519 c 0.68808,0.421126 1.508998,0.641742 2.370813,0.641742 a 5.7263805,5.7962833 0 0 0 2.839616,-0.795399 c 0.562349,-0.335512 1.040228,-0.745867 1.424271,-1.220212 l 0.04911,-0.03616 0.0893,-0.0044 c 0.222883,-0.0047 0.536064,-0.121985 0.857242,-0.316352 0.26746,-0.161974 0.683544,-0.465958 1.093877,-0.976171 a 6.2178662,6.2937686 0 0 0 1.013513,-1.875512 c 0.298318,-0.849196 0.482982,-1.843806 0.544705,-2.955629 0.072,-1.021579 -0.04994,-1.862748 -0.348256,-2.503694 a 2.6768828,2.70956 0 0 0 -1.866314,-1.495941 l -0.06697,-0.01808 -0.0134,-0.07231 A 3.342103,3.3829006 0 0 0 20.50632,10.853791 l -0.01787,-0.05423 0.02679,-0.04519 A 2.899766,2.9351638 0 0 0 20.885832,8.1376702 C 20.658393,7.414533 20.479765,6.9532379 20.327747,6.6778858 20.01914,6.1179251 19.599269,5.9999902 19.296377,5.9999902 Z m -0.01562,0.8586693 a 0.24002792,0.24295797 0 0 1 0.01562,0 c 0.161162,0 0.294321,3.55e-5 0.785805,1.5410829 0.259459,0.8087027 0.06744,1.5724299 -0.571494,2.2596533 l -0.02232,0.02712 c 0.0046,0.0047 0.0043,0.0089 0.0089,0.01356 0.268602,0.44658 0.415156,1.007083 0.370579,1.423582 a 2.0916718,2.1172052 0 0 1 -0.04465,0.271158 v 0.0045 c 0.05373,-0.0047 0.115513,-0.009 0.187522,-0.009 0.316608,0 0.771518,0.04976 1.14299,0.289236 0.222884,0.144619 0.50863,0.365954 0.714369,0.804436 0.236599,0.506741 0.326288,1.206547 0.263423,2.078882 -0.05487,1.029679 -0.219097,1.948834 -0.491129,2.725143 a 5.3629095,5.4283755 0 0 1 -0.875101,1.617911 c -0.589783,0.732344 -1.205819,0.97722 -1.334977,0.980691 -0.08915,0 -0.13298,-0.03196 -0.317001,-0.162695 -0.01714,-0.0092 -0.0409,-0.02795 -0.05804,-0.04068 -0.348613,0.628218 -0.889246,1.169993 -1.571611,1.577237 a 4.8725667,4.932047 0 0 1 -2.415456,0.682432 c -0.946395,0 -1.790849,-0.311723 -2.437783,-0.894823 -0.777233,0.506741 -1.281721,0.957769 -1.696625,2.851684 l -0.142852,0.650741 -0.308072,-0.58751 A 4.50681,4.5618253 0 0 1 10.134593,24.022997 9.0902004,9.201166 0 0 1 9.8488452,21.487664 c 0.01372,-1.057447 0.3252158,-1.744489 0.5938178,-2.128593 0.307465,-0.455837 0.709762,-0.736648 1.049231,-0.736648 h 0.06251 c 0.540636,0.06363 0.879422,0.293031 1.504639,0.70953 l 0.19646,0.131058 c 0.214881,0.139989 0.469161,0.285114 0.54917,0.316352 0.05487,-0.03124 0.183236,-0.243391 0.223241,-0.560394 l 0.0089,-0.04519 v -0.01357 c -0.0046,-0.0047 -0.0043,-0.0045 -0.0089,-0.0045 -0.419478,-0.144616 -0.994295,-0.813909 -1.290329,-1.807721 -0.281175,-0.994972 -0.223526,-1.816617 0.169662,-2.449463 0.637788,-1.029681 2.005411,-1.265879 2.451177,-1.342236 0.138303,-0.02777 0.281391,-0.0537 0.419694,-0.07683 0.02743,-0.0047 0.04753,-0.01459 0.06696,-0.01808 a 0.30746434,0.3112176 0 0 1 -0.0134,-0.0452 c -0.008,-0.04049 -0.02429,-0.09129 -0.03572,-0.149137 -0.139446,-0.637475 -0.06786,-1.1705 0.01786,-1.604353 0.09831,-0.483603 0.156303,-0.773128 0.392902,-1.048481 0.317751,-0.443109 0.866244,-0.6277854 1.196569,-0.741166 a 2.766036,2.7998015 0 0 0 0.196452,-0.072308 c 0.937244,-0.4558356 1.231386,-0.9213972 1.317108,-1.2337727 0.06629,-0.2579976 0.178629,-0.939147 0.129481,-1.4100228 a 0.2663167,0.26956767 0 0 1 0.06696,-0.2169263 0.24002792,0.24295797 0 0 1 0.167429,-0.081345 z m 0.243332,1.7444517 c -0.08915,0.5830988 -0.228134,1.1398058 -0.495592,1.7263755 0.29032,-0.334356 0.460768,-0.6955757 0.517917,-1.0981918 0.02286,-0.1665999 0.04626,-0.3296922 -0.02232,-0.6281837 z m -0.647395,0.9942468 c -0.450339,0.4384817 -1.005262,0.6788367 -1.357302,0.8315527 a 3.45183,3.4939671 0 0 0 -0.290215,0.131062 c -0.02286,0.01735 -0.05408,0.0312 -0.08036,0.04971 -0.214883,0.126106 -0.536886,0.31711 -0.58489,0.429334 v 0.009 c -0.147447,0.312375 -0.228098,0.781226 -0.258959,1.04848 0.344039,-0.208251 0.691936,-0.347481 0.982256,-0.465489 0.272032,-0.107596 0.504023,-0.198561 0.620608,-0.307313 0.522347,-0.474347 0.835133,-1.261285 0.968864,-1.7263757 z M 19.1044,11.115839 c -0.116585,0.08099 -0.347934,0.262228 -0.504524,0.402218 a 0.6469324,0.65482961 0 0 0 -0.165195,0.216929 c -0.0046,0.0092 -0.0088,0.01797 -0.0134,0.0226 -0.08458,0.253371 0.03048,0.601503 0.254495,0.727609 0.05715,0.03587 0.115942,0.05864 0.169661,0.06327 h 0.02232 c 0.169162,0 0.309034,-0.126361 0.410761,-0.375105 a 1.0778397,1.0909969 0 0 0 0.02679,-0.614625 1.5338927,1.5526172 0 0 0 -0.200914,-0.44289 z m -1.22336,0.754726 c -1.049264,0.35171 -1.366623,0.551353 -1.540357,0.695971 -0.09372,0.07636 -0.147946,0.293215 0.116084,0.894824 0.133731,0.301962 0.593677,0.717704 0.790271,0.754727 a 0.13715881,0.13883313 0 0 0 0.04465,0.0045 c 0.330323,0 1.071661,-0.487399 1.209962,-0.709532 l 0.0134,-0.01808 0.0134,-0.01356 c 0.04915,-0.04513 0.183736,-0.293754 0.25003,-0.438372 -0.705224,-0.216317 -0.780771,-0.602049 -0.852779,-0.944504 a 0.64464643,0.65251572 0 0 0 -0.02232,-0.108464 0.89153235,0.90241539 0 0 0 -0.02232,-0.117502 z m 2.676649,1.197615 a 0.20688121,0.20940664 0 0 0 -0.07365,0.01808 c -0.09373,0.03702 -0.244887,0.473768 -0.178593,0.795399 0.04572,0.220975 0.302785,0.957731 0.433084,1.3106 0.04343,0.135362 0.07134,0.198196 0.07592,0.225964 a 0.43433625,0.43963825 0 0 1 0.02679,0.08134 c 0.10287,0.312374 0.362007,1.116738 0.442017,1.771568 a 9.4639581,9.5794859 0 0 0 0.21431,-2.535332 2.3911353,2.4203242 0 0 0 -0.348253,-1.224731 c -0.174888,-0.275348 -0.3932,-0.442889 -0.571507,-0.442889 a 0.20688121,0.20940664 0 0 0 -0.0201,0 z m -0.658558,0.09943 a 2.6288773,2.6609683 0 0 0 -0.642932,0.366064 l -0.0134,0.009 a 5.8292495,5.900408 0 0 0 -0.348257,0.289237 c -0.718939,0.654829 -1.259859,0.994969 -1.607329,1.012323 h -0.01786 C 16.966454,14.816454 16.505795,14.37049 16.318344,14.14373 A 0.24459988,0.24758575 0 0 0 16.17547,14.10305 c -0.05715,0 -0.125694,0.01323 -0.191988,0.02712 -0.04458,0.0081 -0.09372,0.01681 -0.142872,0.0226 a 4.4862362,4.5410003 0 0 0 -0.567031,0.112988 15.384647,15.57245 0 0 0 -0.410761,0.09491 c -0.508625,0.149249 -0.891883,0.324852 -1.080476,0.492608 l -0.0134,0.01356 c -0.130301,0.09024 -0.434265,0.347768 -0.526846,0.790879 v 0.0045 c -0.192023,0.817959 0.09919,1.825801 0.486662,2.404271 0.182879,0.270724 0.374615,0.438878 0.535777,0.465488 0.03886,0.0047 0.08915,0.009 0.142874,0.009 0.620643,0 1.928689,-0.374921 2.790502,-0.623664 l 0.348257,-0.09943 a 0.73151363,0.74044336 0 0 0 0.04911,-0.01356 c -0.04458,-0.04976 -0.129801,-0.121622 -0.258958,-0.235003 -0.576067,-0.39336 -1.120237,-0.578471 -1.710021,-0.578471 -0.130301,0 -0.262173,0.0085 -0.410761,0.02712 -0.499488,0.05785 -0.915036,0.175999 -1.116202,0.235003 a 0.63550251,0.64326018 0 0 1 -0.165199,0.0407 0.14401674,0.14577478 0 0 1 -0.133945,-0.09491 0.1497317,0.1515595 0 0 1 0.04465,-0.158177 h 0.0044 c 0.342896,-0.293864 0.990507,-0.840519 2.210078,-1.084634 0.209167,-0.04049 0.436444,-0.06328 0.674185,-0.06328 0.544064,0 1.111738,0.113346 1.683231,0.33895 0.772663,0.307747 1.302689,0.699841 1.72788,1.016844 0.232027,0.166601 0.429015,0.315557 0.60275,0.3977 0.04572,0.02314 0.06677,0.02713 0.0759,0.02713 a 0.30860734,0.31237456 0 0 0 0.04911,-0.112989 c 0.008,-0.01736 0.05726,-0.226471 -0.290212,-1.410023 a 20.848141,21.102637 0 0 0 -0.571485,-1.699307 c -0.245742,-0.605081 -0.187058,-1.028957 -0.111624,-1.283484 z m -3.196801,3.195149 c -0.536062,0 -1.003795,0.103222 -1.370694,0.230485 0.0903,-0.0047 0.182986,-0.0045 0.281282,-0.0045 0.112014,0 0.231562,9.62e-4 0.352719,0.009 0.382903,0.02776 1.36673,0.203115 2.250261,1.274444 0.17945,0.212877 0.371117,0.393179 0.919752,0.393179 0.192022,0 0.420012,-0.02267 0.692045,-0.06778 l 0.0759,-0.0226 c 0.187451,-0.04975 0.33561,-0.09414 0.446482,-0.126539 -0.227456,-0.157345 -0.4917,-0.361763 -0.848315,-0.641743 -0.880102,-0.691851 -1.821033,-1.043959 -2.799432,-1.043959 z m 1.174244,1.803204 c -0.01257,0.0047 -0.03486,0.0088 -0.07144,0.01808 l -0.0134,0.0044 c -0.182878,0.06826 -0.513488,0.181097 -0.89296,0.311831 -0.459481,0.158502 -0.978827,0.334104 -1.41088,0.492605 -0.554349,0.20825 -0.731978,0.289742 -0.79027,0.316352 l -0.03573,0.10394 c -0.129158,0.402616 -0.428585,1.324844 -1.90647,1.970418 0.308605,0.312374 0.969469,0.872227 2.27705,0.872227 0.112012,0 0.231669,-0.0042 0.348253,-0.01356 a 4.0256112,4.0747525 0 0 0 2.611912,-1.24281 c 0.634361,-0.664086 0.990973,-1.49647 1.000117,-2.291289 a 2.083671,2.1091066 0 0 1 -0.6608,-0.167198 c 0,-0.0047 -0.277318,-0.140569 -0.446482,-0.361545 -0.0046,-0.0047 -0.0089,-0.0089 -0.0089,-0.01356 z m 3.107504,0.06778 a 2.5042913,2.5348616 0 0 1 -0.709905,0.302793 c -0.308604,0.09024 -0.606782,0.139449 -0.767945,0.167215 -0.01371,0.161971 -0.04036,0.474563 -0.08036,0.714051 a 3.7627235,3.8086556 0 0 1 -0.187523,0.655299 l 0.236636,0.216926 c 0.228599,-0.153873 0.986757,-0.737371 1.509103,-2.056284 z m -9.510033,1.111751 c -0.107442,0.02777 -0.840098,0.528723 -1.000118,2.02465 -0.08001,0.723088 0.05753,1.648715 0.174129,2.214459 0.09372,-0.335512 0.241099,-0.700745 0.526845,-1.075595 0.267461,-0.352867 0.557424,-0.628112 0.919752,-0.872227 A 0.86752947,0.87811953 0 0 1 11.76872,21.406299 0.73608562,0.74507113 0 0 1 11.603522,20.823306 c 0.09373,-1.125703 -0.03546,-1.396104 -0.09376,-1.459735 -0.01372,-0.01851 -0.02337,-0.01809 -0.02679,-0.01807 z m 0.794733,0.284715 c -0.0046,0.239487 -0.03508,0.460283 -0.06251,0.682414 a 8.0100752,8.1078553 0 0 0 -0.04465,0.366065 c -0.01714,0.248743 0.03632,0.335043 0.05804,0.357026 0.01371,0.01851 0.03578,0.03164 0.08036,0.03164 a 0.32918116,0.33319952 0 0 0 0.120549,-0.02712 c 0.437763,-0.18511 0.852525,-0.511078 1.053693,-0.686933 -0.308607,-0.141148 -0.776877,-0.439639 -1.205498,-0.723089 z"/>
 <path style="fill:#ffffff" d="m 19.296378,4.9999835 a 1.1098433,1.1233914 0 0 0 -0.812595,0.3660632 1.1098433,1.1233914 0 0 0 -0.276817,0.8767466 c 0.032,0.3308858 -0.05343,0.8990898 -0.107155,1.102711 -0.0046,0.012726 -0.102972,0.3065166 -0.852779,0.6778954 a 1.3578723,1.374448 0 0 0 -0.111624,0.040679 c -0.388617,0.1307349 -1.112845,0.3747426 -1.58947,1.016846 -0.362328,0.4419522 -0.456376,0.8917128 -0.558101,1.4100233 a 4.7799847,4.8383346 0 0 0 -0.111626,1.197617 v 0.08587 l -0.08483,0.0226 c -1.213844,0.270725 -2.089876,0.827071 -2.598505,1.645029 -0.52692,0.850353 -0.617752,1.907292 -0.263423,3.154475 0.0034,0.01735 0.01329,0.04129 0.01786,0.06327 l 0.05357,0.167215 -0.169661,-0.02712 c -0.06172,-0.01273 -0.120194,-0.01787 -0.183058,-0.02712 a 1.7327729,1.7539253 0 0 0 -0.156268,-0.009 c -0.58864,0 -1.219179,0.379478 -1.6832323,1.012324 -0.3577555,0.492859 -0.7909852,1.355866 -0.8081296,2.702548 -0.00914,1.012325 0.098685,1.94312 0.3170008,2.770335 0.1657342,0.609709 0.3488264,0.984377 0.4196924,1.116269 l 1.3885527,2.634756 0.634003,-2.914953 c 0.258317,-1.16967 0.508666,-1.613067 0.808131,-1.916186 l 0.05804,-0.05874 0.07144,0.04519 c 0.68808,0.421126 1.508998,0.641742 2.370813,0.641742 a 5.7263805,5.7962833 0 0 0 2.839616,-0.795399 c 0.562349,-0.335512 1.040228,-0.745867 1.424271,-1.220212 l 0.04911,-0.03616 0.0893,-0.0044 c 0.222883,-0.0047 0.536064,-0.121985 0.857242,-0.316352 0.26746,-0.161974 0.683544,-0.465958 1.093877,-0.976171 a 6.2178662,6.2937686 0 0 0 1.013513,-1.875512 c 0.298318,-0.849196 0.482982,-1.843806 0.544705,-2.955629 0.072,-1.021579 -0.04994,-1.862748 -0.348256,-2.503694 a 2.6768828,2.70956 0 0 0 -1.866314,-1.495941 l -0.06697,-0.01808 -0.0134,-0.07231 A 3.342103,3.3829006 0 0 0 20.50632,9.8537905 l -0.01787,-0.05423 0.02679,-0.045189 A 2.899766,2.9351638 0 0 0 20.885832,7.1376702 C 20.658393,6.414533 20.479765,5.9532379 20.327747,5.6778858 20.01914,5.1179251 19.599269,4.9999902 19.296377,4.9999902 Z m -0.01562,0.8586693 a 0.24002792,0.24295797 0 0 1 0.01562,0 c 0.161162,0 0.294321,3.55e-5 0.785805,1.5410829 0.259459,0.8087027 0.06744,1.5724299 -0.571494,2.2596534 l -0.02232,0.027115 c 0.0046,0.00468 0.0043,0.00891 0.0089,0.013564 0.268602,0.4465799 0.415156,1.0070829 0.370579,1.4235819 a 2.0916718,2.1172052 0 0 1 -0.04465,0.271158 v 0.0045 c 0.05373,-0.0047 0.115513,-0.009 0.187522,-0.009 0.316608,0 0.771518,0.04976 1.14299,0.289236 0.222884,0.144619 0.50863,0.365954 0.714369,0.804436 0.236599,0.506741 0.326288,1.206547 0.263423,2.078882 -0.05487,1.029679 -0.219097,1.948834 -0.491129,2.725143 a 5.3629095,5.4283755 0 0 1 -0.875101,1.617911 c -0.589783,0.732344 -1.205819,0.97722 -1.334977,0.980691 -0.08915,0 -0.13298,-0.03196 -0.317001,-0.162695 -0.01714,-0.0092 -0.0409,-0.02795 -0.05804,-0.04068 -0.348613,0.628218 -0.889246,1.169993 -1.571611,1.577237 a 4.8725667,4.932047 0 0 1 -2.415456,0.682432 c -0.946395,0 -1.790849,-0.311723 -2.437783,-0.894823 -0.777233,0.506741 -1.281721,0.957769 -1.696625,2.851684 l -0.142852,0.650741 -0.308072,-0.58751 A 4.50681,4.5618253 0 0 1 10.134593,23.022997 9.0902004,9.201166 0 0 1 9.8488452,20.487664 c 0.01372,-1.057447 0.3252158,-1.744489 0.5938178,-2.128593 0.307465,-0.455837 0.709762,-0.736648 1.049231,-0.736648 h 0.06251 c 0.540636,0.06363 0.879422,0.293031 1.504639,0.70953 l 0.19646,0.131058 c 0.214881,0.139989 0.469161,0.285114 0.54917,0.316352 0.05487,-0.03124 0.183236,-0.243391 0.223241,-0.560394 l 0.0089,-0.04519 v -0.01357 c -0.0046,-0.0047 -0.0043,-0.0045 -0.0089,-0.0045 -0.419478,-0.144616 -0.994295,-0.813909 -1.290329,-1.807721 -0.281175,-0.994972 -0.223526,-1.816617 0.169662,-2.449463 0.637788,-1.029681 2.005411,-1.265879 2.451177,-1.342236 0.138303,-0.02777 0.281391,-0.0537 0.419694,-0.07683 0.02743,-0.0047 0.04753,-0.01459 0.06696,-0.01808 a 0.30746434,0.3112176 0 0 1 -0.0134,-0.0452 c -0.008,-0.04049 -0.02429,-0.09129 -0.03572,-0.149137 -0.139446,-0.637475 -0.06786,-1.1705 0.01786,-1.604353 0.09831,-0.483603 0.156303,-0.7731285 0.392902,-1.0484808 0.317751,-0.4431092 0.866244,-0.6277856 1.196569,-0.7411662 a 2.766036,2.7998015 0 0 0 0.196452,-0.072308 c 0.937244,-0.4558356 1.231386,-0.9213972 1.317108,-1.2337727 0.06629,-0.2579976 0.178629,-0.939147 0.129481,-1.4100228 a 0.2663167,0.26956767 0 0 1 0.06696,-0.2169263 0.24002792,0.24295797 0 0 1 0.167429,-0.081345 z m 0.243332,1.7444517 c -0.08915,0.5830988 -0.228134,1.1398058 -0.495592,1.7263757 0.29032,-0.3343562 0.460768,-0.6955759 0.517917,-1.098192 0.02286,-0.1665999 0.04626,-0.3296922 -0.02232,-0.6281837 z M 18.876695,8.5973513 C 18.426356,9.035833 17.871433,9.276188 17.519393,9.4289038 a 3.45183,3.4939671 0 0 0 -0.290215,0.1310617 c -0.02286,0.017353 -0.05408,0.031199 -0.08036,0.049713 -0.214883,0.1261062 -0.536886,0.31711 -0.58489,0.4293345 v 0.009 c -0.147447,0.312375 -0.228098,0.781226 -0.258959,1.04848 0.344039,-0.208251 0.691936,-0.347481 0.982256,-0.465489 0.272032,-0.107596 0.504023,-0.198561 0.620608,-0.307313 0.522347,-0.4743475 0.835133,-1.261285 0.968864,-1.7263757 z M 19.1044,10.115839 c -0.116585,0.08099 -0.347934,0.262228 -0.504524,0.402218 a 0.6469324,0.65482961 0 0 0 -0.165195,0.216929 c -0.0046,0.0092 -0.0088,0.01797 -0.0134,0.0226 -0.08458,0.253371 0.03048,0.601503 0.254495,0.727609 0.05715,0.03587 0.115942,0.05864 0.169661,0.06327 h 0.02232 c 0.169162,0 0.309034,-0.126361 0.410761,-0.375105 a 1.0778397,1.0909969 0 0 0 0.02679,-0.614625 1.5338927,1.5526172 0 0 0 -0.200914,-0.44289 z m -1.22336,0.754726 c -1.049264,0.35171 -1.366623,0.551353 -1.540357,0.695971 -0.09372,0.07636 -0.147946,0.293215 0.116084,0.894824 0.133731,0.301962 0.593677,0.717704 0.790271,0.754727 a 0.13715881,0.13883313 0 0 0 0.04465,0.0045 c 0.330323,0 1.071661,-0.487399 1.209962,-0.709532 l 0.0134,-0.01808 0.0134,-0.01356 c 0.04915,-0.04513 0.183736,-0.293754 0.25003,-0.438372 -0.705224,-0.216317 -0.780771,-0.602049 -0.852779,-0.944504 a 0.64464643,0.65251572 0 0 0 -0.02232,-0.108464 0.89153235,0.90241539 0 0 0 -0.02232,-0.117502 z m 2.676649,1.197615 a 0.20688121,0.20940664 0 0 0 -0.07365,0.01808 c -0.09373,0.03702 -0.244887,0.473768 -0.178593,0.795399 0.04572,0.220975 0.302785,0.957731 0.433084,1.3106 0.04343,0.135362 0.07134,0.198196 0.07592,0.225964 a 0.43433625,0.43963825 0 0 1 0.02679,0.08134 c 0.10287,0.312374 0.362007,1.116738 0.442017,1.771568 a 9.4639581,9.5794859 0 0 0 0.21431,-2.535332 2.3911353,2.4203242 0 0 0 -0.348253,-1.224731 c -0.174888,-0.275348 -0.3932,-0.442889 -0.571507,-0.442889 a 0.20688121,0.20940664 0 0 0 -0.0201,0 z m -0.658558,0.09943 a 2.6288773,2.6609683 0 0 0 -0.642932,0.366064 l -0.0134,0.009 a 5.8292495,5.900408 0 0 0 -0.348257,0.289237 c -0.718939,0.654829 -1.259859,0.994969 -1.607329,1.012323 h -0.01786 C 16.966454,13.816454 16.505795,13.37049 16.318344,13.14373 A 0.24459988,0.24758575 0 0 0 16.17547,13.10305 c -0.05715,0 -0.125694,0.01323 -0.191988,0.02712 -0.04458,0.0081 -0.09372,0.01681 -0.142872,0.0226 a 4.4862362,4.5410003 0 0 0 -0.567031,0.112988 15.384647,15.57245 0 0 0 -0.410761,0.09491 c -0.508625,0.149249 -0.891883,0.324852 -1.080476,0.492608 l -0.0134,0.01356 c -0.130301,0.09024 -0.434265,0.347768 -0.526846,0.790879 v 0.0045 c -0.192023,0.817959 0.09919,1.825801 0.486662,2.404271 0.182879,0.270724 0.374615,0.438878 0.535777,0.465488 0.03886,0.0047 0.08915,0.009 0.142874,0.009 0.620643,0 1.928689,-0.374921 2.790502,-0.623664 l 0.348257,-0.09943 a 0.73151363,0.74044336 0 0 0 0.04911,-0.01356 c -0.04458,-0.04976 -0.129801,-0.121622 -0.258958,-0.235003 -0.576067,-0.39336 -1.120237,-0.578471 -1.710021,-0.578471 -0.130301,0 -0.262173,0.0085 -0.410761,0.02712 -0.499488,0.05785 -0.915036,0.175999 -1.116202,0.235003 a 0.63550251,0.64326018 0 0 1 -0.165199,0.0407 0.14401674,0.14577478 0 0 1 -0.133945,-0.09491 0.1497317,0.1515595 0 0 1 0.04465,-0.158177 h 0.0044 c 0.342896,-0.293864 0.990507,-0.840519 2.210078,-1.084634 0.209167,-0.04049 0.436444,-0.06328 0.674185,-0.06328 0.544064,0 1.111738,0.113346 1.683231,0.33895 0.772663,0.307747 1.302689,0.699841 1.72788,1.016844 0.232027,0.166601 0.429015,0.315557 0.60275,0.3977 0.04572,0.02314 0.06677,0.02713 0.0759,0.02713 a 0.30860734,0.31237456 0 0 0 0.04911,-0.112989 c 0.008,-0.01736 0.05726,-0.226471 -0.290212,-1.410023 a 20.848141,21.102637 0 0 0 -0.571485,-1.699307 c -0.245742,-0.605081 -0.187058,-1.028957 -0.111624,-1.283484 z m -3.196801,3.195149 c -0.536062,0 -1.003795,0.103222 -1.370694,0.230485 0.0903,-0.0047 0.182986,-0.0045 0.281282,-0.0045 0.112014,0 0.231562,9.62e-4 0.352719,0.009 0.382903,0.02776 1.36673,0.203115 2.250261,1.274444 0.17945,0.212877 0.371117,0.393179 0.919752,0.393179 0.192022,0 0.420012,-0.02267 0.692045,-0.06778 l 0.0759,-0.0226 c 0.187451,-0.04975 0.33561,-0.09414 0.446482,-0.126539 -0.227456,-0.157345 -0.4917,-0.361763 -0.848315,-0.641743 -0.880102,-0.691851 -1.821033,-1.043959 -2.799432,-1.043959 z m 1.174244,1.803204 c -0.01257,0.0047 -0.03486,0.0088 -0.07144,0.01808 l -0.0134,0.0044 c -0.182878,0.06826 -0.513488,0.181097 -0.89296,0.311831 -0.459481,0.158502 -0.978827,0.334104 -1.41088,0.492605 -0.554349,0.20825 -0.731978,0.289742 -0.79027,0.316352 l -0.03573,0.10394 c -0.129158,0.402616 -0.428585,1.324844 -1.90647,1.970418 0.308605,0.312374 0.969469,0.872227 2.27705,0.872227 0.112012,0 0.231669,-0.0042 0.348253,-0.01356 a 4.0256112,4.0747525 0 0 0 2.611912,-1.24281 c 0.634361,-0.664086 0.990973,-1.49647 1.000117,-2.291289 a 2.083671,2.1091066 0 0 1 -0.6608,-0.167198 c 0,-0.0047 -0.277318,-0.140569 -0.446482,-0.361545 -0.0046,-0.0047 -0.0089,-0.0089 -0.0089,-0.01356 z m 3.107504,0.06778 a 2.5042913,2.5348616 0 0 1 -0.709905,0.302793 c -0.308604,0.09024 -0.606782,0.139449 -0.767945,0.167215 -0.01371,0.161971 -0.04036,0.474563 -0.08036,0.714051 a 3.7627235,3.8086556 0 0 1 -0.187523,0.655299 l 0.236636,0.216926 c 0.228599,-0.153873 0.986757,-0.737371 1.509103,-2.056284 z m -9.510033,1.111751 c -0.107442,0.02777 -0.840098,0.528723 -1.000118,2.02465 -0.08001,0.723088 0.05753,1.648715 0.174129,2.214459 0.09372,-0.335512 0.241099,-0.700745 0.526845,-1.075595 0.267461,-0.352867 0.557424,-0.628112 0.919752,-0.872227 A 0.86752947,0.87811953 0 0 1 11.76872,20.406299 0.73608562,0.74507113 0 0 1 11.603522,19.823306 c 0.09373,-1.125703 -0.03546,-1.396104 -0.09376,-1.459735 -0.01372,-0.01851 -0.02337,-0.01809 -0.02679,-0.01807 z m 0.794733,0.284715 c -0.0046,0.239487 -0.03508,0.460283 -0.06251,0.682414 a 8.0100752,8.1078553 0 0 0 -0.04465,0.366065 c -0.01714,0.248743 0.03632,0.335043 0.05804,0.357026 0.01371,0.01851 0.03578,0.03164 0.08036,0.03164 a 0.32918116,0.33319952 0 0 0 0.120549,-0.02712 c 0.437763,-0.18511 0.852525,-0.511078 1.053693,-0.686933 -0.308607,-0.141148 -0.776877,-0.439639 -1.205498,-0.723089 z"/>
 <path style="fill:#ffffff;opacity:0.2" d="M 16 2 A 14 14 0 0 0 2 16 A 14 14 0 0 0 2.0214844 16.585938 A 14 14 0 0 1 16 3 A 14 14 0 0 1 29.978516 16.414062 A 14 14 0 0 0 30 16 A 14 14 0 0 0 16 2 z"/>
</svg>
