<svg width="32" height="32" version="1.1" xmlns="http://www.w3.org/2000/svg">
 <rect x="2" y="3" width="28" height="28" rx="7" ry="7" style="opacity:.2"/>
 <rect x="2" y="2" width="28" height="28" rx="7" ry="7" style="fill:#3f3f3f"/>
 <path d="m15.335449 4.75-0.07178 0.6870117c-0.12299 1.1635727-0.50978 3.5346041-0.60498 3.7084962-0.05897 0.1077142-0.26132 0.1655028-0.581055 0.1674802-0.593317 0.00368-0.967666 0.287867-0.919434 0.7006839 0.02477 0.212039 0.121951 0.302764 0.413575 0.382812 0.5022 0.137849 0.495716 0.12392 0.263183 0.475098-0.221662 0.334762-0.252865 0.537169-0.290526 1.842285l-0.02734 0.878418-0.587891 0.02734c-0.323456 0.01477-0.606911 0.04615-0.628906 0.06836-0.022 0.02221 0.01682 0.637216 0.08545 1.367188 0.06863 0.729971 0.09553 1.449035 0.0581 1.599609-0.05006 0.201383-0.248377 0.360187-0.748534 0.598144-0.373968 0.17792-0.846803 0.358826-1.049317 0.40332-0.202514 0.04449-0.567156 0.174163-0.8134764 0.287109-0.2463199 0.112945-0.5827602 0.207167-0.7451173 0.208496-0.4385015 0.0036-1.9036325 0.915936-2.25 1.248536-0.1670278 0.160395-0.4770121 0.486863-0.5707987 0.775883l-0.2666016 0.82373v6c0 1 1 2 2 2h17c1 0 1.990642-1.047228 2-2 0.0098-0.999952 0.01843-1.133696 0-2-0.03661-1.731582 0-2 0-3-0.200655-0.386243-0.427255-0.443439-0.604078-0.929199-0.176755-0.485762-0.608612-1.601851-0.956961-2.478028s-0.688615-1.774329-0.75879-1.996093c-0.152089-0.480653-0.329647-0.642602-0.792969-0.738282-0.42697-0.08817-0.557604-0.459167-0.471679-1.329589 0.06625-0.67108 0.02645-0.755763-0.803224-1.739746-0.432365-0.512783-0.521202-0.569779-0.92285-0.570801-0.265568-6.77e-4 -0.644585-0.109218-0.936525-0.27002-0.269301-0.14833-0.645989-0.34524-0.837402-0.4375l-0.348632-0.16748 0.16748-0.577637c0.196737-0.680524 0.77642-2.0055989 1.312505-3.0078125 0.363141-0.6788952 0.372365-0.7247664 0.194824-0.9228517-0.195216-0.2178074-1.791514-1.0712537-2.447265-1.3090819-0.209456-0.0759652-0.478456-0.1829374-0.598145-0.2358398-0.508584-0.2247932-1.881842-0.5400391-2.351562-0.5400391zm4.053711 7.522949c0.04168-0.02777 0.117003-0.01489 0.249512 0.0171 0.424095 0.102352 0.462134 0.133469 0.464844 0.40332 0.0013 0.132393 0.0983 0.365048 0.215332 0.516113 0.117027 0.151065 0.213999 0.427867 0.215331 0.615235 0.0042 0.580405 0.228199 1.065498 0.738281 1.599609 0.511461 0.535524 0.561196 0.861328 0.133298 0.861328-0.368135 0-0.366968 0.289897 0 0.89209 0.408667 0.67062 1.038525 2.528416 0.94336 2.778808-0.107135 0.281904-0.225113 0.213536-0.827146-0.485359-0.377134-0.437815-0.834495-0.810708-1.350097-1.100586-0.86757-0.487757-1.378312-0.902301-1.377441-1.117675 3.24e-4 -0.07843 0.294089-0.528416 0.652832-0.998047 0.358743-0.46963 0.652832-0.898791 0.652832-0.957031s-0.194704-0.239951-0.434082-0.399903c-0.451689-0.301817-0.554565-0.478515-0.273438-0.478515 0.219481 0 0.205479-0.144958-0.06494-0.680176-0.184085-0.364343-0.202148-0.50119-0.105957-0.714356 0.06549-0.145137 0.116211-0.387248 0.116211-0.536621 0-0.12027 0.0096-0.187561 0.05127-0.215332zm1.408203 0.430664c0.03591-0.03733 0.1274-0.01896 0.27002 0.05811 0.132633 0.07167 0.197535 0.186622 0.16065 0.283691-0.08675 0.228242-0.226481 0.204219-0.369141-0.06494-0.077-0.145288-0.09742-0.239523-0.06153-0.276855z" style="opacity:.2"/>
 <path d="m15.335449 3.75-0.07178 0.6870117c-0.12299 1.1635727-0.50978 3.5346041-0.60498 3.7084962-0.05897 0.1077142-0.26132 0.1655028-0.581055 0.1674802-0.593317 0.00368-0.967666 0.287867-0.919434 0.7006836 0.02477 0.2120389 0.121951 0.302764 0.413575 0.3828125 0.5022 0.1378492 0.495716 0.1239193 0.263183 0.4750978-0.221662 0.334762-0.252865 0.537169-0.290526 1.842285l-0.02734 0.878418-0.587891 0.02734c-0.323456 0.01477-0.606911 0.04615-0.628906 0.06836-0.022 0.02221 0.01682 0.637216 0.08545 1.367188 0.06863 0.729971 0.09553 1.449035 0.0581 1.599609-0.05006 0.201383-0.248377 0.360187-0.748534 0.598144-0.373968 0.17792-0.846803 0.358826-1.049317 0.40332-0.202514 0.04449-0.567156 0.174163-0.8134764 0.287109-0.2463199 0.112945-0.5827602 0.207167-0.7451173 0.208496-0.4385015 0.0036-1.9036325 0.915936-2.25 1.248536-0.1670278 0.160395-0.4770121 0.486863-0.5707987 0.775883l-0.2666016 0.82373v6c0 1 1 2 2 2h17c1 0 1.990642-1.047228 2-2 0.0098-0.999952 0.01843-1.133696 0-2-0.03661-1.731582 0-2 0-3-0.200655-0.386243-0.427255-0.443439-0.604078-0.929199-0.176755-0.485762-0.608612-1.601851-0.956961-2.478028s-0.688615-1.774329-0.75879-1.996093c-0.152089-0.480653-0.329647-0.642602-0.792969-0.738282-0.42697-0.08817-0.557604-0.459167-0.471679-1.329589 0.06625-0.67108 0.02645-0.755763-0.803224-1.739746-0.432365-0.512783-0.521202-0.569779-0.92285-0.570801-0.265568-6.77e-4 -0.644585-0.109218-0.936525-0.27002-0.269301-0.14833-0.645989-0.34524-0.837402-0.4375l-0.348632-0.16748 0.16748-0.577637c0.196737-0.6805244 0.77642-2.0055989 1.312505-3.0078125 0.363141-0.6788952 0.372365-0.7247664 0.194824-0.9228517-0.195216-0.2178074-1.791514-1.0712537-2.447265-1.3090819-0.209456-0.0759652-0.478456-0.1829374-0.598145-0.2358398-0.508584-0.2247932-1.881842-0.5400391-2.351562-0.5400391zm4.053711 7.522949c0.04168-0.02777 0.117003-0.01489 0.249512 0.0171 0.424095 0.102352 0.462134 0.133469 0.464844 0.40332 0.0013 0.132393 0.0983 0.365048 0.215332 0.516113 0.117027 0.151065 0.213999 0.427867 0.215331 0.615235 0.0042 0.580405 0.228199 1.065498 0.738281 1.599609 0.511461 0.535524 0.561196 0.861328 0.133298 0.861328-0.368135 0-0.366968 0.289897 0 0.89209 0.408667 0.67062 1.038525 2.528416 0.94336 2.778808-0.107135 0.281904-0.225113 0.213536-0.827146-0.485359-0.377134-0.437815-0.834495-0.810708-1.350097-1.100586-0.86757-0.487757-1.378312-0.902301-1.377441-1.117675 3.24e-4 -0.07843 0.294089-0.528416 0.652832-0.998047 0.358743-0.46963 0.652832-0.898791 0.652832-0.957031s-0.194704-0.239951-0.434082-0.399903c-0.451689-0.301817-0.554565-0.478515-0.273438-0.478515 0.219481 0 0.205479-0.144958-0.06494-0.680176-0.184085-0.364343-0.202148-0.50119-0.105957-0.714356 0.06549-0.145137 0.116211-0.387248 0.116211-0.536621 0-0.12027 0.0096-0.187561 0.05127-0.215332zm1.408203 0.430664c0.03591-0.03733 0.1274-0.01896 0.27002 0.05811 0.132633 0.07167 0.197535 0.186622 0.16065 0.283691-0.08675 0.228242-0.226481 0.204219-0.369141-0.06494-0.077-0.145288-0.09742-0.239523-0.06153-0.276855z" style="fill:#d92113"/>
 <path d="m14.969727 8.2377929c0.888836 0.1352033 3.896508 1.2891326 4.378418 1.7294921 0.151777 0.138692 0.165905 0.237304 0.0752 0.598145-0.06003 0.238816-0.140131 0.434917-0.177735 0.434082-0.0376-8.38e-4 -0.655888-0.401791-1.374023-0.89209-1.237115-0.8446283-2.466798-1.5267283-3.014648-1.6713868-0.184433-0.048699-0.214441-0.095707-0.123046-0.1879883 0.02697-0.027235 0.108864-0.029568 0.235839-0.010254z" style="fill:#f1d204"/>
 <path d="m9 2c-3.878 0-7 3.122-7 7v1c0-3.878 3.122-7 7-7h14c3.878 0 7 3.122 7 7v-1c0-3.878-3.122-7-7-7z" style="fill:#ffffff;opacity:.1"/>
 <path d="m15.335938 3.75-0.072266 0.6875c-0.12299 1.1635727-0.510269 3.5350923-0.605469 3.7089844-0.05897 0.1077142-0.260343 0.1640382-0.580078 0.1660156-0.593317 0.00368-0.968154 0.2883553-0.919922 0.7011719 0.02477 0.2120389 0.122439 0.302764 0.414063 0.3828125 0.011238 0.0030849 0.014658 0.0048738 0.02539 0.0078125 0.137524-0.0526252 0.292537-0.0906313 0.480469-0.0917969 0.319735-0.0019774 0.521108-0.0583014 0.580078-0.1660156 0.0952-0.1738921 0.482479-2.5454117 0.605469-3.7089844l0.072266-0.6875h0.509765c0.46972 0 1.841026 0.3162224 2.349609 0.5410156 0.11969 0.0529024 0.390154 0.1584098 0.59961 0.234375 0.579539 0.2101875 1.841041 0.8793654 2.273437 1.1875 0.32663-0.6131372 0.345139-0.6877719 0.173829-0.8789062-0.195217-0.2178074-1.791515-1.0707656-2.447266-1.3085938-0.209456-0.0759652-0.47992-0.1814726-0.59961-0.234375-0.508583-0.2247932-1.879889-0.5410156-2.349609-0.5410156h-0.509765zm-1.710938 6.662109c-0.042677 0.255884-0.060722 0.630021-0.080078 1.300782l-0.027344 0.878906-0.58789 0.027344c-0.323457 0.01477-0.606912 0.046149-0.628907 0.068359-0.015997 0.01615 0.026104 0.534834 0.0625 0.994141 0.064585-0.021417 0.275044-0.049196 0.566407-0.0625l0.58789-0.027344 0.027344-0.878906c0.037661-1.305116 0.0674-1.507035 0.289062-1.841797 0.221758-0.334905 0.225564-0.33988-0.208984-0.458985zm6.220703 0.064453c-0.028471 0.084183-0.090749 0.217879-0.111328 0.289063l-0.152344 0.521484c0.024423 0.005036 0.026622-0.00334 0.056641 0.003907 0.365322 0.088167 0.440459 0.131917 0.457031 0.3125 0.202192 0.102191 0.444798 0.227282 0.65625 0.34375 0.035854 0.019748 0.079078 0.030759 0.117188 0.048828-0.00348-0.006281-0.006282-0.009052-0.009766-0.015625-0.077-0.145288-0.09839-0.240012-0.0625-0.277344 0.03591-0.03733 0.128864-0.018476 0.271484 0.058594 0.132633 0.07167 0.197042 0.186134 0.160157 0.283203-0.013592 0.035761-0.030875 0.054722-0.046875 0.078125 0.181628 0.056543 0.361517 0.09533 0.507812 0.095703 0.401648 0.001022 0.48951 0.057529 0.921875 0.570312 0.531865 0.630786 0.724294 0.892737 0.78711 1.175782-1.75e-4 -0.13263 9.45e-4 -0.267063 0.017578-0.435547 0.06625-0.67108 0.024986-0.756251-0.804688-1.740235-0.432365-0.512783-0.520227-0.56929-0.921875-0.570312-0.265568-6.77e-4 -0.64556-0.110682-0.9375-0.271484-0.269301-0.14833-0.644524-0.34524-0.835937-0.4375l-0.070313-0.033204zm-0.546875 2.189454c-0.019834 0.127057-0.032376 0.262316-0.076172 0.359375-0.07352 0.162925-0.051833 0.310121 0.03125 0.519531-0.047039-0.081902-0.001891-0.125 0.138672-0.125 0.219481 0 0.205966-0.14447-0.064453-0.679688-0.016568-0.032791-0.015381-0.044891-0.029297-0.074218zm-0.044922 0.878906c0.02562 0.064574 0.030833 0.109442 0.074219 0.195312 0.270419 0.535218 0.283934 0.679688 0.064453 0.679688-0.281127 0-0.178251 0.176699 0.273438 0.478516 0.006018 0.004021 0.009665 0.007671 0.015625 0.011718 0.180486-0.25414 0.417968-0.57409 0.417968-0.611328 0-0.05824-0.194215-0.240439-0.433593-0.40039-0.225845-0.150909-0.36507-0.271614-0.41211-0.353516zm1.638672-0.855469c-0.045189-0.00956-0.077748-0.004993-0.095703 0.013672-0.03589 0.037332-0.0145 0.132056 0.0625 0.277344 0.14266 0.269159 0.282391 0.292695 0.369141 0.064453 0.036885-0.097069-0.027524-0.211533-0.160157-0.283203-0.07131-0.038535-0.130592-0.062706-0.175781-0.072266zm2.535156 1.605469c-0.003234 0.075131-0.00243 0.140284-0.011718 0.234375-0.085925 0.870422 0.043733 1.239955 0.470703 1.328125 0.463322 0.09568 0.640879 0.259581 0.792969 0.740234 0.070175 0.221764 0.411416 1.117964 0.759765 1.994141s0.780276 1.992753 0.957031 2.478515c0.173557 0.476787 0.393933 0.546634 0.591797 0.914063 0.004694-0.307487 0.011719-0.583098 0.011719-0.984375-0.200655-0.386243-0.426693-0.443927-0.603516-0.929688-0.176755-0.485762-0.608682-1.602338-0.957031-2.478515s-0.68959-1.772377-0.759765-1.994141c-0.15209-0.480653-0.329647-0.644554-0.792969-0.740234-0.265228-0.05477-0.40333-0.237541-0.458985-0.5625zm-2.228515 1.044922c-0.137777 0.109761-0.068195 0.386246 0.207031 0.83789 0.01436 0.023564 0.03201 0.069329 0.046875 0.095704 0.360143-0.031134 0.30384-0.341288-0.181641-0.84961-0.027299-0.028585-0.044642-0.055658-0.070312-0.083984-4.09e-4 3.2e-4 -0.001548-3.23e-4 -0.001953 0zm-8.769531 0.345703c-0.062837 0.186599-0.261029 0.341205-0.734376 0.566406-0.373967 0.17792-0.846314 0.359803-1.048828 0.404297-0.202514 0.04449-0.568132 0.174163-0.8144528 0.287109-0.2463198 0.112945-0.5817835 0.207656-0.7441406 0.208985-0.4385015 0.0036-1.9036325 0.915447-2.25 1.248047-0.1670278 0.160395-0.4765259 0.48637-0.5703125 0.77539l-0.2675781 0.824219v1l0.2675781-0.824219c0.0937866-0.28902 0.4032847-0.614995 0.5703125-0.77539 0.3463675-0.3326 1.8114985-1.244447 2.25-1.248047 0.1623571-0.001329 0.4978208-0.09604 0.7441406-0.208985 0.2463208-0.112946 0.6119388-0.242619 0.8144528-0.287109 0.202514-0.044494 0.674861-0.226377 1.048828-0.404297 0.500157-0.237957 0.697987-0.396273 0.748047-0.597656 0.025827-0.103896 0.014333-0.506709-0.013671-0.96875zm6.707031 1.003906c-0.191831 0.276369-0.341582 0.512418-0.341797 0.564453-8.71e-4 0.215374 0.509383 0.629431 1.376953 1.117188 0.515602 0.289878 0.972475 0.661794 1.349609 1.099609 0.602033 0.698895 0.72099 0.768232 0.828125 0.486328 0.036601-0.096301-0.051722-0.456291-0.175781-0.86914-0.115151-0.028405-0.294102-0.201308-0.652344-0.617188-0.377134-0.437815-0.834007-0.809731-1.349609-1.099609-0.45054-0.253298-0.798757-0.485472-1.035156-0.681641zm7.853515 6.128906c-0.008132 0.50389-0.014631 1.027718 0.009766 2.181641 0.001079-0.266718 0.009215-0.566848 0-1-0.012197-0.576879-0.009761-0.848401-0.009766-1.181641z" style="fill:#ffffff;opacity:.2"/>
</svg>
