<svg xmlns="http://www.w3.org/2000/svg" width="32" height="32" version="1">
 <path style="opacity:0.2" d="M 16,3 C 8.244,3 2,9.244 2,17 2,24.756 8.244,31 16,31 23.756,31 30,24.756 30,17 30,9.244 23.756,3 16,3 Z"/>
 <path style="fill:#e4e4e4" d="M 16,2 C 8.244,2 2,8.244 2,16 2,23.756 8.244,30 16,30 23.756,30 30,23.756 30,16 30,8.244 23.756,2 16,2 Z"/>
 <path style="opacity:0.1" d="m 11.303747,9.0000003 -0.948268,0.5482708 -0.303337,0.1750084 -1.0480148,0.6056955 -0.00413,0.0027 0.00413,0.0027 v 0.974863 11.290666 L 11,24.000036 13,22.599964 v -7.881513 l 3,2.050393 3,-2.050393 v 7.881513 l 2,1.400072 1.995872,-1.400072 V 11.309298 10.334444 L 23,10.331714 22.995872,10.328984 21.947858,9.7232886 21.644521,9.5482802 20.696254,9.0000094 16,11.970558 Z"/>
 <path style="fill:#8b8b8b" d="m 11.303747,8.0000003 -0.948268,0.5482708 -0.303337,0.1750084 -1.0480148,0.6056953 -0.00413,0.00273 0.00413,0.00273 V 10.309298 21.599964 L 11,23.000036 13,21.599964 v -7.881513 l 3,2.050393 3,-2.050393 v 7.881513 l 2,1.400072 1.995872,-1.400072 V 10.309298 9.3344439 L 23,9.3317139 22.995872,9.3289839 21.947858,8.7232886 21.644521,8.5482802 20.696254,8.0000094 16,10.970558 Z"/>
 <path style="opacity:0.2" d="m 11.303747,8.0000003 -0.948268,0.5482708 -0.303337,0.1750084 -1.0480148,0.6056953 -0.00413,0.00273 0.00413,0.00273 V 10.309298 21.599964 L 11,23.000036 13,21.599964 v -7.881513 l 3,2.050393 v -4.798286 z"/>
 <path style="fill:#ffffff;opacity:0.2" d="M 16 2 C 8.244 2 2 8.244 2 16 C 2 16.168842 2.0195214 16.33264 2.0253906 16.5 C 2.2891326 8.9794325 8.4128418 3 16 3 C 23.587158 3 29.710867 8.9794325 29.974609 16.5 C 29.980479 16.33264 30 16.168842 30 16 C 30 8.244 23.756 2 16 2 z"/>
</svg>
