<svg xmlns="http://www.w3.org/2000/svg" width="32" height="32" version="1">
 <path style="opacity:0.2" d="M 3.4003906,3 C 2.6247906,3 2,3.6247906 2,4.4003906 V 17 29.599609 C 2,30.375209 2.6247906,31 3.4003906,31 H 4 6 8 15.789062 c 0.01966,0 0.04266,-0.0056 0.0625,-0.0059 A 14,14 0 0 0 16,31 14,14 0 0 0 30,17 14,14 0 0 0 16,3 14,14 0 0 0 15.876953,3.0078125 C 15.848966,3.0073213 15.816701,3 15.789062,3 H 8 6 4 Z"/>
 <path style="fill:#e4e4e4" d="m 7.9,2 v 28 h 7.89 c 4.41,0 13.3,-6.268014 13.3,-14 0,-7.7319865 -8.89,-14 -13.3,-14 z"/>
 <path style="fill:#e8494e" d="M 3.4,2 C 2.6244,2 2,2.6244 2,3.4 V 16 28.6 C 2,29.3756 2.6244,30 3.4,30 H 4 V 2 Z"/>
 <rect style="fill:#38af29" width="2" height="28" x="4" y="2"/>
 <rect style="fill:#1f72c7" width="2" height="28" x="6" y="2"/>
 <path style="opacity:0.1" d="M 16,3 A 14,14 0 0 0 14.654297,3.078125 14,14 0 0 1 27.199219,17 14,14 0 0 1 14.544922,30.921875 14,14 0 0 0 16,31 14,14 0 0 0 30,17 14,14 0 0 0 16,3 Z m 0.0332,6 A 7.9999998,7.9999998 0 0 0 14.673828,9.1152344 7.9999998,7.9999998 0 0 1 21.365234,17 7.9999998,7.9999998 0 0 1 14.726562,24.884766 7.9999998,7.9999998 0 0 0 16.033203,25 a 7.9999998,7.9999998 0 0 0 8,-8 7.9999998,7.9999998 0 0 0 -8,-8 z M 14,13 a 4,4 0 0 0 -4,4 4,4 0 0 0 4,4 4,4 0 0 0 4,-4 4,4 0 0 0 -4,-4 z"/>
 <path style="fill:#4f4f4f" d="M 16,2 A 14,14 0 0 0 14.654687,2.0779297 14,14 0 0 1 27.2,16 14,14 0 0 1 14.545312,29.92207 14,14 0 0 0 16,30 14,14 0 0 0 30,16 14,14 0 0 0 16,2 Z"/>
 <path style="fill:#4f4f4f" d="M 16.032374,8.0000004 A 7.9999998,7.9999998 0 0 0 14.673,8.1158858 7.9999998,7.9999998 0 0 1 21.365707,16 7.9999998,7.9999998 0 0 1 14.726385,23.884114 7.9999998,7.9999998 0 0 0 16.032374,24 a 7.9999998,7.9999998 0 0 0 8,-8 7.9999998,7.9999998 0 0 0 -8,-7.9999996 z"/>
 <circle style="fill:#4f4f4f" cx="14" cy="16" r="4"/>
 <path style="fill:#ffffff" d="m 12.909201,18.324279 c 0,-0.124548 0.01788,-0.229774 0.05364,-0.315966 0.03576,-0.08591 0.08534,-0.155395 0.149045,-0.208435 0.06342,-0.05303 0.138377,-0.09139 0.224576,-0.115317 0.0859,-0.02364 0.177876,-0.03576 0.275895,-0.03576 0.09282,0 0.181051,0.01212 0.264369,0.03576 0.08332,0.02395 0.156828,0.06227 0.220539,0.115317 0.06343,0.05303 0.113589,0.122523 0.150778,0.208435 0.0372,0.0862 0.05563,0.191418 0.05563,0.315966 0,0.11935 -0.01843,0.221408 -0.05563,0.306165 -0.0372,0.08448 -0.08736,0.155098 -0.150778,0.21074 -0.06371,0.05538 -0.137226,0.09571 -0.220539,0.121084 -0.08332,0.02508 -0.17154,0.03773 -0.264369,0.03773 -0.09801,0 -0.189983,-0.01266 -0.275895,-0.03773 -0.0862,-0.02539 -0.161153,-0.06573 -0.224576,-0.121084 -0.06371,-0.05562 -0.113301,-0.126269 -0.149045,-0.21074 -0.0354,-0.0846 -0.0534,-0.186607 -0.0534,-0.30601 m 0.131177,-1.324435 v -0.328321 c 0,-0.13521 0.01385,-0.257734 0.04176,-0.367573 0.02766,-0.110126 0.07006,-0.214483 0.127139,-0.313949 0.05681,-0.09917 0.130306,-0.196033 0.220255,-0.29002 0.09024,-0.09398 0.198919,-0.19143 0.326056,-0.292042 0.111285,-0.08736 0.205267,-0.165481 0.28195,-0.234668 0.07697,-0.06861 0.138954,-0.136943 0.186817,-0.204685 0.04758,-0.06746 0.08216,-0.138095 0.103197,-0.212185 0.02136,-0.07437 0.03204,-0.160585 0.03204,-0.258309 0,-0.151068 -0.0513,-0.275896 -0.153089,-0.373627 -0.102049,-0.09802 -0.257733,-0.147029 -0.467027,-0.147029 -0.182496,0 -0.379393,0.03834 -0.590137,0.11503 -0.210164,0.07697 -0.428404,0.170952 -0.653543,0.282238 L 12.091,13.496728 c 0.11359,-0.06631 0.237554,-0.129156 0.371316,-0.188539 0.134062,-0.05971 0.273017,-0.112726 0.417165,-0.159137 0.14443,-0.04614 0.290883,-0.08274 0.439065,-0.10926 0.148474,-0.02652 0.294057,-0.03979 0.437343,-0.03979 0.270129,0 0.513737,0.03258 0.730825,0.09745 0.217375,0.06487 0.401592,0.159418 0.552366,0.283965 0.151355,0.12454 0.266962,0.275895 0.347681,0.453195 0.08101,0.177589 0.121373,0.379969 0.121373,0.607701 0,0.16692 -0.01879,0.315972 -0.05562,0.447141 -0.0369,0.131177 -0.09225,0.253119 -0.164615,0.365551 -0.07323,0.112725 -0.164615,0.221408 -0.274455,0.325777 -0.109845,0.104647 -0.237842,0.215352 -0.383432,0.331822 -0.111285,0.08736 -0.202087,0.163745 -0.272433,0.228613 -0.07007,0.06487 -0.125122,0.126563 -0.164615,0.184506 -0.03978,0.05851 -0.06689,0.118781 -0.08159,0.18105 -0.01447,0.06199 -0.0219,0.135497 -0.0219,0.220257 v 0.272971 h -1.048836 z"/>
 <path style="fill:#ffffff;opacity:0.1" d="M 3.4003906 2 C 2.6247906 2 2 2.6247906 2 3.4003906 L 2 4.4003906 C 2 3.6247906 2.6247906 3 3.4003906 3 L 4 3 L 6 3 L 8 3 L 15.789062 3 C 15.816702 3 15.848966 3.0073213 15.876953 3.0078125 A 14 14 0 0 1 16 3 A 14 14 0 0 1 29.978516 16.585938 A 14 14 0 0 0 30 16 A 14 14 0 0 0 16 2 A 14 14 0 0 0 15.876953 2.0078125 C 15.848966 2.0073213 15.816702 2 15.789062 2 L 8 2 L 6 2 L 4 2 L 3.4003906 2 z"/>
</svg>
