<svg xmlns="http://www.w3.org/2000/svg" width="32" height="32" version="1.1">
 <rect style="opacity:0.2" width="28" height="28" x="2" y="3" ry="4.2"/>
 <path style="fill:#4dbb1a" d="M 2,20.83 V 25.8 C 2,28.1268 3.8732,30 6.2,30 h 19.6 c 2.3268,0 4.2,-1.8732 4.2,-4.2 v -4.97 z"/>
 <path style="fill:#0098ff" d="M 6.2,2 C 3.8732,2 2,3.8732 2,6.2 V 21 H 30 V 6.2 C 30,3.8732 28.1268,2 25.8,2 Z"/>
 <path style="opacity:0.2" d="m 5.5644531,13.940968 -0.027344,0.136719 c -0.041551,0.202465 -0.1181065,0.704443 -0.2324219,1.515625 -0.056216,0.398911 -0.1346011,0.935997 -0.1738281,1.193359 -0.039228,0.257364 -0.1172962,0.783878 -0.1738282,1.169922 -0.056531,0.386045 -0.1161673,0.769866 -0.1308593,0.853516 l -0.025391,0.152344 h 0.5644532 c 0.2920233,0 0.4360466,-0.0023 0.5546875,-0.02734 0.00598,0.0134 0.013759,0.02287 0.021484,0.01953 0.067558,-0.02874 0.199873,-0.09661 0.3222657,-0.158203 0.088634,-0.04461 0.1163643,-0.06054 0.1816406,-0.0957 0.01251,-0.0067 0.020556,-0.0097 0.03125,-0.01563 0.00162,-0.0011 0.00231,-0.0028 0.00391,-0.0039 0.04111,-0.0228 0.1210937,-0.0632 0.1210937,-0.06641 0,-0.005 0.027788,-0.134026 0.035156,-0.173828 1.752e-4,-9.46e-4 0.00177,-0.0029 0.00195,-0.0039 0.03412,-0.116543 0.06975,-0.314794 0.1191406,-0.583984 0.040931,-0.19799 0.074538,-0.380803 0.089844,-0.44336 0.00126,-0.0052 8.576e-4,-0.01052 0.00195,-0.01563 0.03011,-0.118259 0.04889,-0.130694 0.074219,-0.06445 0.013709,0.03585 0.1020872,0.254703 0.1953125,0.486328 l 0.1699219,0.421875 0.3398437,0.0039 c 0.1390503,0.0022 0.2788459,-0.0097 0.4101563,-0.0332 0.011779,2.77e-4 0.037385,-0.0076 0.058594,-0.01172 0.05595,-0.01179 0.1108166,-0.02478 0.1621094,-0.04102 0.00484,-0.0015 0.00704,-0.0024 0.011719,-0.0039 0.018894,-0.0058 0.021567,-0.0049 0.042969,-0.01172 0.037269,-0.0119 0.065841,-0.02568 0.095703,-0.03906 0.0066,-0.003 0.015082,-0.0046 0.021484,-0.0078 0.00266,-0.0013 0.00519,-0.0026 0.00781,-0.0039 0.00891,-0.0046 0.018637,-0.01032 0.027344,-0.01563 0.122593,-0.07058 0.2167183,-0.198262 0.5058593,-0.59961 0.3096317,-0.429788 0.4248782,-0.558209 0.4238282,-0.474609 -8.04e-4,0.06317 -0.032464,0.451501 -0.072266,0.863281 -0.039803,0.411781 -0.073625,0.829175 -0.074219,0.927735 v 0.179687 l 0.6445312,-0.01563 c 0.1602778,-0.0038 0.3019648,-0.01034 0.4199218,-0.01758 0.01885,0.02635 0.06208,0.02319 0.169922,-0.0039 0.02762,-0.0069 0.047,-0.01 0.06445,-0.02149 0.0023,-8.53e-4 0.0206,-0.0011 0.02148,-0.002 6.92e-4,-6.51e-4 0.0049,-0.03069 0.0059,-0.0332 0.04773,-0.09277 0.08713,-0.390531 0.242187,-1.458984 0.06889,-0.474704 0.145891,-1.002904 0.216797,-1.486328 0.02712,-0.184908 0.06462,-0.437231 0.08399,-0.56836 0.0013,-0.0086 0.0026,-0.01481 0.0039,-0.02344 0.06831,-0.461083 0.123297,-0.892485 0.123047,-0.958985 -1.43e-4,-0.041 -0.01309,-0.07337 -0.04102,-0.105468 -0.0062,-0.0073 -0.0094,-0.0141 -0.01758,-0.02149 -0.04336,-0.03934 -0.115402,-0.08058 -0.234375,-0.140625 l -0.292969,-0.148437 -0.002,0.0293 c -0.119019,-0.03325 -0.241959,-0.03984 -0.492187,-0.03906 H 9.7109375 l -0.7558594,1.228516 c -0.4152995,0.674789 -0.7539062,1.213419 -0.7539062,1.199218 l -0.03125,-0.09961 C 8.1465057,16.19721 8.0633076,15.92696 7.9335938,15.519093 c -0.08605,-0.27057 -0.1397872,-0.445892 -0.2109376,-0.673828 -0.031548,-0.101915 -0.030685,-0.09778 -0.058594,-0.1875 -0.024693,-0.07975 -0.077014,-0.244347 -0.089844,-0.287109 -0.02315,-0.07716 -0.04028,-0.135607 -0.056641,-0.179688 -0.00578,-0.01791 -0.038551,-0.126125 -0.039063,-0.126953 -6.006e-4,-9.71e-4 -0.06328,-0.006 -0.074219,-0.0078 -0.031169,-0.01081 -0.069733,-0.01766 -0.125,-0.02539 C 7.2368578,14.024883 7.1172264,14.017294 7,14.009328 c -0.047205,-0.0032 -0.073834,-0.0065 -0.1289062,-0.0098 -0.1622789,-0.0141 -0.3490605,-0.03125 -0.3535157,-0.02734 -2.72e-5,2.4e-5 0.00391,0.0097 0.00391,0.0098 -0.069677,-0.0033 -0.1307404,-0.0069 -0.2011719,-0.0098 z m 6.0820309,0.01367 -0.0039,0.269531 c -0.002,0.147983 -0.01278,0.343504 -0.02344,0.433594 -0.01067,0.09008 -0.05448,0.804889 -0.09766,1.589844 -0.04318,0.784958 -0.08788,1.514353 -0.09961,1.619141 -0.02074,0.185285 -0.0086,0.202529 0.453125,0.664062 0.356428,0.356311 0.514708,0.481083 0.634766,0.501953 0.07964,0.01384 0.559482,0.06898 1.048828,0.123047 0.05108,0.0056 0.05746,0.008 0.109375,0.01367 0.549322,0.05984 1.063748,0.112234 1.142578,0.115234 0.07907,0.0028 0.189527,-0.04619 0.384765,-0.173828 0.004,-0.0026 0.0096,-0.0071 0.01367,-0.0098 0.141211,-0.08766 0.291842,-0.193967 0.419922,-0.296874 0.153932,-0.115178 0.237053,-0.192084 0.277344,-0.279297 0.0041,-0.0081 0.014,-0.0205 0.01563,-0.02734 0.0013,-0.0055 0.0043,-0.01715 0.0059,-0.02344 0.01697,-0.06987 0.04574,-0.177118 0.06836,-0.259765 0.02464,-0.09008 0.04477,-0.44342 0.04492,-0.785156 1.5e-4,-0.341738 0.03362,-0.931669 0.07422,-1.310547 0.02924,-0.272871 0.05212,-0.498735 0.07422,-0.708985 0.0086,-0.08168 0.02464,-0.230099 0.0293,-0.27539 0.0084,-0.08196 0.0084,-0.159752 0.0039,-0.240235 -6.65e-4,-0.02806 -0.0035,-0.05943 -0.0059,-0.08594 -0.01004,-0.114495 -0.03268,-0.222196 -0.07813,-0.394532 -0.0023,-0.0088 -0.0016,-0.007 -0.0039,-0.01562 l -0.113282,-0.44336 h -0.507812 -0.50586 l -0.0332,0.570313 c -0.01795,0.312877 -0.0332,1.164414 -0.0332,1.892578 v 1.324219 l -0.216797,0.169921 -0.21875,0.169922 -0.792968,-0.0059 c -0.521338,-0.0042 -0.773367,7.71e-4 -0.884766,-0.08789 -0.0038,-0.003 -0.0063,-0.0066 -0.0098,-0.0098 -0.0014,-0.0014 -0.0026,-0.0025 -0.0039,-0.0039 -0.01,-0.01053 -0.0177,-0.021 -0.02539,-0.0332 -0.0026,-0.0041 -0.0055,-0.0091 -0.0078,-0.01367 -0.0059,-0.01181 -0.0098,-0.02588 -0.01367,-0.04297 -0.0027,-0.0096 -0.004,-0.02263 -0.0059,-0.0332 -0.01171,-0.09055 0.006,-0.3143 0.04297,-0.664062 0.03866,-0.349173 0.114048,-0.992933 0.1875,-1.591797 l 0.146484,-1.191406 v -0.002 l -0.208984,-0.21875 -0.208985,-0.21875 -0.537109,-0.0039 z m 8.753907,0 -1.292969,0.002 -1.294922,0.002 -0.427734,0.388672 -0.429688,0.386719 -0.0293,1.072266 c -0.01026,0.377304 -0.03071,0.828007 -0.05273,1.242187 -0.01137,0.166516 -0.0212,0.281701 -0.03516,0.498047 l -0.04883,0.759766 -0.01367,0.185547 0.002,0.002 0.392578,0.408203 v 0.002 c 0.216085,0.225167 0.41044,0.420907 0.43164,0.435547 0.0212,0.01466 0.50477,0.05312 1.074219,0.08594 0.56945,0.03281 1.045201,0.06967 1.056641,0.08008 0.01144,0.01026 0.117723,0.01758 0.236328,0.01758 0.0022,5e-6 0.0037,0 0.0059,0 0.198585,0 0.246466,-0.02619 0.498047,-0.251954 0.0013,-0.0011 0.0027,-8.51e-4 0.0039,-0.002 0.154539,-0.138773 0.337667,-0.291815 0.408204,-0.34375 4.31e-4,-3.17e-4 0.0015,-0.0016 0.002,-0.002 0.03698,-0.02759 0.100679,-0.08964 0.171875,-0.166016 0.0012,-0.0013 0.0027,-0.0026 0.0039,-0.0039 0.07652,-0.08089 0.164866,-0.180175 0.246094,-0.277344 0.07591,-0.09081 0.131818,-0.161583 0.175781,-0.226562 0.139559,-0.206272 0.134389,-0.338957 0.06836,-0.75 l -0.02734,-0.175781 h -0.533203 l -0.53125,0.002 -0.212891,0.322266 c -0.09915,0.150614 -0.170361,0.276631 -0.193359,0.333984 -0.0041,0.01017 -0.01953,0.03479 -0.01953,0.03906 0,0.06071 0.06057,0.05774 -0.845703,0.05664 l -0.720703,-0.002 -0.189453,-0.175781 -0.1875,-0.177735 -0.0332,-1.005859 -0.0332,-1.005859 0.02344,-0.02149 0.002,0.0039 0.13086,-0.117187 0.130859,-0.117188 0.720703,0.04687 h 0.002 l 0.71875,0.04687 0.08398,0.08789 0.08203,0.08203 v 0.002 c 0.117639,0.124667 0.162562,0.219641 0.164062,0.341797 l 0.002,0.167969 v 0.0098 l 0.236328,0.01758 c 0.0378,0.0028 0.09378,0.0049 0.142578,0.0078 0.227995,0.02062 0.376461,0.034 0.46875,0.02148 l 0.132812,0.0039 0.150391,-0.369141 0.0098,-0.02148 c 0.0037,-0.0092 0.0041,-0.0085 0.0078,-0.01758 0.01684,-0.04134 0.02524,-0.07112 0.03906,-0.107422 0.05113,-0.131192 0.111328,-0.283176 0.111328,-0.294922 0,-0.0021 -0.01447,-0.0039 -0.02148,-0.0059 0.03046,-0.160418 0.02614,-0.314028 -0.0078,-0.564454 -0.02632,-0.194119 -0.05647,-0.225436 -0.701172,-0.75 z m 1.607421,0 -0.136718,0.503906 -0.01563,0.05859 -0.119141,0.398438 v 0.03906 l -0.002,0.0078 v 2.300781 0.02344 2.324219 l 0.210937,0.02539 c 0.116732,0.01333 0.349948,0.03372 0.517579,0.04492 l 0.04883,0.0039 c 0.08377,0.007 0.175265,0.01429 0.197265,0.01758 0.0014,2.16e-4 0.0075,-0.0052 0.0098,-0.0059 l 0.04883,0.0039 0.402344,-0.359375 0.404297,-0.361328 -0.04297,-0.347657 c -0.09224,-0.759746 -0.103367,-0.933593 -0.06055,-0.933593 0.02448,0 0.375009,0.483574 0.779297,1.074219 l 0.736328,1.074218 h 0.0059 l 0.251953,0.01563 c 0.08861,0.0058 0.239908,0.01059 0.378906,0.01563 0.08455,0.0031 0.157752,0.0083 0.230469,0.0098 0.0078,2.25e-4 0.01787,0.0018 0.02539,0.002 l 0.326172,0.0078 0.146484,-0.136719 0.337891,-0.308594 c 0.196448,-0.17892 0.333706,-0.314489 0.410156,-0.396484 l 0.09961,-0.09375 h -0.0332 c -0.01409,-0.03493 -0.307212,-0.404908 -0.675782,-0.847657 -1.335611,-1.604423 -1.421745,-1.715035 -1.384765,-1.824218 0.01877,-0.05541 0.17447,-0.294295 0.345703,-0.529297 0.02952,-0.04052 0.05899,-0.08386 0.08789,-0.126953 0.0074,-0.01001 0.01195,-0.01703 0.01953,-0.02734 0.0065,-0.0089 0.016,-0.02585 0.02344,-0.03711 0.0036,-0.0054 0.008,-0.01165 0.01172,-0.01758 0.01346,-0.0211 0.02589,-0.04303 0.03906,-0.06445 0.0023,-0.004 0.0055,-0.0096 0.0078,-0.01367 0.119399,-0.195647 0.227551,-0.401282 0.300781,-0.583984 0.03328,-0.08302 0.05962,-0.145545 0.0957,-0.234375 0.03621,-0.08495 0.07101,-0.167983 0.0918,-0.226562 0.03068,-0.07457 0.07481,-0.183696 0.09375,-0.228516 l 0.103516,-0.246094 h -0.589844 -0.589844 l -0.517578,1.007813 c -0.448702,0.873539 -0.53246,1.004912 -0.632812,1.007812 -0.06357,0.0015 -0.227905,0.0039 -0.365235,0.0039 -0.137331,0 -0.278923,-0.0021 -0.314453,-0.0039 -0.04745,-0.0023 -0.08789,-0.255167 -0.154297,-0.951172 -0.04973,-0.52116 -0.09935,-0.973679 -0.109375,-1.005859 -0.01304,-0.04192 -0.163149,-0.05859 -0.53125,-0.05859 z"/>
 <path style="fill:#ffcc1e" d="M 25.244854,18.864173 24.985741,18.8471 24.250669,17.773202 c -0.404288,-0.590644 -0.755103,-1.073899 -0.779585,-1.073899 -0.04282,0 -0.03152,0.173709 0.06072,0.933455 l 0.04232,0.34854 -0.40323,0.359996 -0.40323,0.359998 -0.304783,-0.02038 c -0.167631,-0.0112 -0.400291,-0.03127 -0.517022,-0.0446 L 21.733621,18.6121 V 16.287349 13.9626 l 0.136884,-0.503375 0.136885,-0.503375 h 0.513881 c 0.368101,0 0.519047,0.01659 0.532091,0.05851 0.01002,0.03218 0.05889,0.484896 0.108617,1.006056 0.06641,0.696005 0.107557,0.948392 0.155008,0.950682 0.03553,0.0018 0.17696,0.003 0.314291,0.003 0.13733,0 0.301701,-0.0015 0.365267,-0.003 0.100352,-0.0029 0.183642,-0.135634 0.632344,-1.009173 l 0.516769,-1.006055 h 0.590417 0.590417 l -0.103806,0.245663 c -0.05709,0.135117 -0.183886,0.445457 -0.281763,0.689649 -0.110596,0.275925 -0.295804,0.605719 -0.489291,0.871263 -0.171233,0.235002 -0.326689,0.472613 -0.345458,0.528024 -0.03698,0.109183 0.04754,0.220715 1.383151,1.825138 0.377152,0.453058 0.686145,0.839439 0.686652,0.858622 5.1e-4,0.0192 -0.218181,0.234432 -0.485975,0.478332 l -0.486899,0.443451 -0.349568,-0.0074 c -0.192263,-0.0039 -0.46617,-0.01506 -0.608684,-0.02445 z M 19.73193,18.505259 c -0.01144,-0.01043 -0.486722,-0.04582 -1.056172,-0.07864 -0.569449,-0.03282 -1.052707,-0.07166 -1.073905,-0.08632 -0.0212,-0.01465 -0.215962,-0.211525 -0.43281,-0.437479 l -0.394268,-0.410824 0.06085,-0.8058 c 0.03347,-0.443191 0.07398,-1.28863 0.09003,-1.878754 l 0.02918,-1.072953 0.429313,-0.387703 0.429312,-0.387707 1.293013,-0.0017 1.293013,-0.0017 0.255075,0.207543 c 0.644702,0.524564 0.675547,0.557599 0.701869,0.751719 0.05874,0.4332 0.04178,0.567784 -0.122424,0.970959 -0.188793,0.463564 -0.13564,0.438736 -0.811268,0.378946 l -0.337083,-0.02984 -0.0021,-0.168706 c -0.0015,-0.122156 -0.04691,-0.216218 -0.164549,-0.340885 l -0.16247,-0.172176 -0.721857,-0.04728 -0.721856,-0.04728 -0.143403,0.125862 -0.143403,0.125862 0.03256,1.006055 0.03256,1.006055 0.188344,0.177215 0.188343,0.177216 0.721514,7.86e-4 c 0.906274,0.0011 0.84636,0.0049 0.84636,-0.05581 0,-0.02835 0.09551,-0.196636 0.212238,-0.373945 l 0.212238,-0.322384 0.532447,-4.21e-4 0.532448,-4.2e-4 0.02819,0.175475 c 0.08683,0.540528 0.07239,0.598237 -0.244489,0.977305 -0.162455,0.194337 -0.352431,0.395176 -0.422168,0.446307 -0.06973,0.05113 -0.253888,0.207092 -0.409223,0.346581 -0.254936,0.228971 -0.303951,0.253658 -0.503546,0.253658 -0.121614,0 -0.230482,-0.0087 -0.241926,-0.01896 z m -6.063348,-0.334777 c -0.549321,-0.05983 -1.070725,-0.121306 -1.158673,-0.136592 -0.120058,-0.02087 -0.278218,-0.14606 -0.634646,-0.502371 -0.461687,-0.461533 -0.474152,-0.479819 -0.453416,-0.665104 0.01173,-0.104787 0.05665,-0.83276 0.09983,-1.617718 0.04318,-0.784955 0.08723,-1.500893 0.0979,-1.590969 0.01066,-0.09009 0.02099,-0.284856 0.02295,-0.432839 l 0.0036,-0.269062 0.536837,0.0047 0.536837,0.0047 0.209107,0.219029 0.209108,0.21903 -0.146168,1.191707 c -0.08039,0.655438 -0.172766,1.440155 -0.205274,1.743817 -0.08104,0.756979 -0.11626,0.728948 0.926415,0.737325 l 0.793436,0.0064 0.217816,-0.170604 0.217816,-0.170606 v -1.323899 c 0,-0.728164 0.01469,-1.579922 0.03264,-1.892799 l 0.03264,-0.568866 h 0.506849 0.50685 l 0.113892,0.442681 c 0.08595,0.334073 0.106472,0.514884 0.08365,0.736995 -0.01664,0.161871 -0.06347,0.604303 -0.104064,0.983183 -0.0406,0.378878 -0.07394,0.968473 -0.07409,1.310211 -1.49e-4,0.341737 -0.02045,0.69504 -0.04509,0.785117 -0.02465,0.09008 -0.05776,0.218329 -0.07358,0.285003 -0.0416,0.175302 -0.915345,0.793246 -1.111016,0.785753 -0.07883,-0.003 -0.592779,-0.05445 -1.142101,-0.114289 z M 4.8267133,17.810628 c 0.014692,-0.08365 0.072966,-0.467932 0.1294972,-0.853977 0.056532,-0.386044 0.1348799,-0.912468 0.1741075,-1.169832 0.039227,-0.257362 0.1173177,-0.794315 0.1735342,-1.193226 0.1143154,-0.811182 0.191582,-1.313666 0.2331332,-1.516131 l 0.027856,-0.135728 0.7559396,0.03048 c 0.4157671,0.01676 0.8467781,0.04317 0.9578016,0.05868 0.2003414,0.02802 0.2025639,0.03058 0.2951634,0.339225 0.051317,0.17105 0.2132914,0.688286 0.3599449,1.149417 0.1466535,0.461131 0.2666426,0.850039 0.2666426,0.86424 0,0.0142 0.3397912,-0.526279 0.7550907,-1.201068 l 0.7550914,-1.226889 0.4559134,-0.0014 c 0.419884,-0.0013 0.480546,0.01081 0.767607,0.152077 0.259286,0.127607 0.311765,0.173732 0.312115,0.274329 2.5e-4,0.0665 -0.05546,0.498178 -0.123766,0.959261 -0.06831,0.461083 -0.213108,1.446045 -0.32179,2.188804 -0.108681,0.742761 -0.21191,1.363942 -0.229397,1.380401 -0.01749,0.01645 -0.322128,0.03687 -0.6769779,0.04535 l -0.6451809,0.01542 0.00105,-0.179193 c 5.936e-4,-0.09856 0.033642,-0.516106 0.073445,-0.927887 0.039802,-0.41178 0.073028,-0.800375 0.073832,-0.863546 0.00105,-0.0836 -0.1143023,0.04584 -0.423934,0.475628 -0.4218746,0.585591 -0.4277882,0.591237 -0.714245,0.681882 -0.1866634,0.05908 -0.4094706,0.08947 -0.6298131,0.08591 L 7.2884104,17.237422 7.118911,16.816283 C 7.0256857,16.584658 6.9381955,16.365808 6.9244867,16.329956 6.8836277,16.223099 6.8631877,16.280945 6.7772179,16.746614 6.6060763,17.673665 6.6362407,17.612011 6.262972,17.797733 5.9398155,17.958522 5.9169986,17.962719 5.3656803,17.962719 H 4.8000004 Z"/>
 <path style="fill:#444444" d="m 25.273522,18.864179 -0.280385,-0.01669 -0.736939,-1.074098 c -0.405318,-0.590754 -0.754705,-1.074099 -0.776416,-1.074099 -0.04033,0 -0.06916,-0.14392 -0.124207,-0.620011 l -0.03111,-0.269062 h 0.425778 0.425778 l 0.863728,1.074604 0.863727,1.074603 0.648262,0.0018 0.648261,0.0017 -0.497509,0.467934 -0.49751,0.467931 -0.325536,-0.009 c -0.179045,-0.0048 -0.45171,-0.01638 -0.605922,-0.02554 z M 22.45773,18.680317 c -0.109864,-0.0086 -0.317733,-0.02748 -0.461929,-0.0423 l -0.262177,-0.02696 0.0016,-2.347995 0.0016,-2.347995 0.139022,-0.464758 0.139023,-0.464762 0.08533,0.956089 c 0.120929,1.354961 0.2704,3.079955 0.310919,3.588212 l 0.03451,0.432836 h 0.554194 0.554193 l -0.397163,0.374348 c -0.21844,0.205889 -0.420164,0.370805 -0.448274,0.366479 -0.02811,-0.0042 -0.140999,-0.01476 -0.250863,-0.02321 z m -2.7258,-0.175061 c -0.01144,-0.01041 -0.486722,-0.04582 -1.056172,-0.07863 -0.569449,-0.03282 -1.052707,-0.07166 -1.073905,-0.08632 -0.0212,-0.01464 -0.215339,-0.210883 -0.431424,-0.43605 l -0.392883,-0.409393 0.06112,-0.947612 c 0.113166,-1.754411 0.136675,-1.851625 0.144062,-0.595737 l 0.0067,1.147359 0.462868,0.431914 0.462868,0.431913 h 1.430251 1.430253 l 0.359558,-0.362648 0.35956,-0.362647 -0.242007,0.297781 c -0.133102,0.163779 -0.29848,0.339375 -0.367506,0.390212 -0.06903,0.05085 -0.255055,0.206368 -0.4134,0.345625 -0.256591,0.225662 -0.31135,0.253197 -0.503545,0.253197 -0.118605,0 -0.225009,-0.0087 -0.236453,-0.01896 z m -6.172462,-0.349588 c -0.609335,-0.06847 -1.124324,-0.139894 -1.144421,-0.158726 -0.0201,-0.01882 0.567917,-0.03425 1.306697,-0.03425 h 1.343235 l 0.468418,-0.432838 0.468417,-0.432837 -0.03318,0.187175 c -0.05608,0.316337 -0.06714,0.329933 -0.547647,0.672821 -0.343457,0.245093 -0.504881,0.331897 -0.610303,0.328181 -0.07883,-0.0029 -0.64188,-0.06106 -1.251214,-0.129538 z m -7.6562982,-0.33263 c 0,-0.08112 0.03344,-0.372394 0.074313,-0.647307 0.1268943,-0.853511 0.2752555,-2.019836 0.2752555,-2.163889 0,-0.07562 0.017843,-0.137491 0.039655,-0.137491 0.021812,0 0.1651146,0.306716 0.3184524,0.68159 0.2417394,0.591003 0.2731876,0.704503 0.2366133,0.853978 -0.041615,0.170086 -0.2451554,1.171379 -0.2451554,1.20603 0,0.01419 -0.4973032,0.268688 -0.6616833,0.338622 -0.0206,0.0089 -0.037453,-0.05042 -0.037453,-0.131533 z m 4.3957072,0.03437 c 6.24e-4,-0.05792 0.023,-0.368497 0.04974,-0.6902 0.02673,-0.321704 0.08238,-1.058697 0.123662,-1.637765 0.04128,-0.579065 0.08505,-1.147604 0.09726,-1.263418 0.01222,-0.115811 0.03763,-0.455934 0.05648,-0.755825 l 0.03427,-0.54526 0.292311,0.147515 c 0.239702,0.120969 0.292459,0.16928 0.293141,0.268445 4.49e-4,0.0665 -0.05644,0.508708 -0.126443,0.982657 -0.07,0.473952 -0.205197,1.398683 -0.300438,2.054959 -0.232321,1.600866 -0.206165,1.482604 -0.335078,1.514986 -0.171155,0.043 -0.186121,0.03682 -0.184905,-0.07609 z m -2.284099,-0.67849 c 0.1784986,-0.311785 1.4548282,-2.300663 1.4683067,-2.288033 0.010241,0.0095 0.00308,0.225085 -0.015995,0.478862 L 9.4324747,15.83116 8.9890408,16.448682 C 8.5751924,17.025005 8.5301642,17.071136 8.3141337,17.14011 8.057793,17.22193 7.9847116,17.23144 8.0147731,17.17893 Z m 12.021992,-0.14038 c 5.74e-4,-0.04502 0.09608,-0.218759 0.212238,-0.386044 l 0.211189,-0.304156 0.0157,0.205509 c 0.01403,0.183727 -0.0043,0.224645 -0.172435,0.386044 -0.207558,0.199172 -0.268269,0.221628 -0.266693,0.09865 z m -7.345307,-0.156008 -0.16153,-0.191103 0.05951,-1.364772 c 0.03273,-0.750625 0.07301,-1.587046 0.0895,-1.858709 l 0.02998,-0.493935 0.214496,0.214872 0.214496,0.214871 -0.146146,1.191531 c -0.272695,2.223277 -0.276562,2.276653 -0.172757,2.384134 0.05005,0.05182 0.07816,0.09422 0.06248,0.09422 -0.01568,0 -0.101201,-0.08601 -0.190042,-0.191103 z M 7.7282526,16.088656 C 7.4137258,15.303367 6.5107699,12.979365 6.5177937,12.97321 c 0.012159,-0.01065 0.9532789,0.07779 0.9610314,0.09032 0.00315,0.0051 0.1132887,0.356712 0.2447368,0.78136 0.1314481,0.424648 0.2947434,0.951072 0.3628786,1.169831 l 0.1238818,0.397743 -0.2274426,0.372026 c -0.1424073,0.232938 -0.2376066,0.346656 -0.2546271,0.30416 z m 8.3078624,-1.752429 c -0.01123,-0.720617 -0.01757,-1.316401 -0.01408,-1.323965 0.0035,-0.0077 0.05559,0.172964 0.11577,0.401174 0.102571,0.38897 0.105767,0.4513 0.0511,0.996412 -0.128401,1.280335 -0.131704,1.278742 -0.152792,-0.07361 z m 4.286751,0.924868 -0.237207,-0.01753 v -0.175466 c 0,-0.133486 -0.03969,-0.216063 -0.165896,-0.345174 l -0.165895,-0.169709 -0.72051,-0.0472 -0.72051,-0.0472 -0.130719,0.116982 -0.13072,0.116983 -0.0309,-0.108104 c -0.017,-0.05946 -0.03121,-0.193323 -0.03158,-0.297479 -5.69e-4,-0.157976 0.03072,-0.218107 0.188693,-0.362648 l 0.189375,-0.173273 h 0.799257 0.799258 l 0.184919,0.177447 c 0.145969,0.14008 0.184919,0.214001 0.184919,0.350958 v 0.173502 h 0.524353 c 0.288394,0 0.524352,0.01368 0.524352,0.0304 0,0.01672 -0.07128,0.206235 -0.158398,0.42114 l -0.158398,0.390735 -0.253593,-0.0086 c -0.139476,-0.0046 -0.360337,-0.01634 -0.490801,-0.02595 z m 5.019508,-0.42184 c 0.01049,-0.01931 0.195693,-0.376943 0.411551,-0.794761 0.215856,-0.417816 0.399116,-0.753433 0.407243,-0.745818 0.0436,0.04084 -0.436088,1.082564 -0.603076,1.309683 -0.107564,0.146296 -0.204397,0.265992 -0.215185,0.265992 -0.01079,0 -0.01103,-0.0158 -5.35e-4,-0.0351 z"/>
 <path style="opacity:0.2;fill:#ffffff" d="M 6.1992188 2 C 3.8724189 2 2 3.8724189 2 6.1992188 L 2 7.1992188 C 2 4.8724189 3.8724189 3 6.1992188 3 L 25.800781 3 C 28.127581 3 30 4.8724189 30 7.1992188 L 30 6.1992188 C 30 3.8724189 28.127581 2 25.800781 2 L 6.1992188 2 z"/>
 <rect style="opacity:0.2;fill:#ffffff" width="28" height="1" x="2" y="21"/>
</svg>
