<svg xmlns="http://www.w3.org/2000/svg" width="32" height="32" version="1.1">
 <path style="opacity:0.2" d="M 16,3 A 14,14 0 0 0 2,17 14,14 0 0 0 9.5390625,29.382812 L 11.808594,22.572266 A 7,7 0 0 1 9,17 a 7,7 0 0 1 7,-7 7,7 0 0 1 7,7 7,7 0 0 1 -2.808594,5.572266 l 2.269532,6.810546 A 14,14 0 0 0 30,17 14,14 0 0 0 16,3 Z m 0,10 a 4,4 0 0 0 -4,4 4,4 0 0 0 2.429688,3.673828 L 12,31 h 8 L 17.570312,20.673828 A 4,4 0 0 0 20,17 4,4 0 0 0 16,13 Z"/>
 <path style="fill:#e97e10" d="M 16 2 A 14 14 0 0 0 2 16 A 14 14 0 0 0 9.5390625 28.382812 L 11.808594 21.572266 A 7 7 0 0 1 9 16 A 7 7 0 0 1 16 9 A 7 7 0 0 1 23 16 A 7 7 0 0 1 20.191406 21.572266 L 22.460938 28.382812 A 14 14 0 0 0 30 16 A 14 14 0 0 0 16 2 z"/>
 <path style="fill:#ffffff;opacity:0.2" d="M 16 2 A 14 14 0 0 0 2 16 A 14 14 0 0 0 2.0351562 16.501953 A 14 14 0 0 1 16 3 A 14 14 0 0 1 29.980469 16.28125 A 14 14 0 0 0 30 16 A 14 14 0 0 0 16 2 z M 22.966797 16.345703 A 7 7 0 0 1 20.191406 21.572266 L 20.447266 22.341797 A 7 7 0 0 0 23 17 A 7 7 0 0 0 22.966797 16.345703 z M 9.0488281 16.503906 A 7 7 0 0 0 9 17 A 7 7 0 0 0 11.552734 22.341797 L 11.808594 21.572266 A 7 7 0 0 1 9.0488281 16.503906 z"/>
 <path style="fill:#7767c0" d="M 16 12 A 4 4 0 0 0 12 16 A 4 4 0 0 0 14.429688 19.673828 L 12 30 L 20 30 L 17.570312 19.673828 A 4 4 0 0 0 20 16 A 4 4 0 0 0 16 12 z"/>
 <path style="fill:#ffffff;opacity:0.1" d="M 16 12 A 4 4 0 0 0 12 16 A 4 4 0 0 0 12.048828 16.496094 A 4 4 0 0 1 16 13 A 4 4 0 0 1 19.957031 16.431641 A 4 4 0 0 0 20 16 A 4 4 0 0 0 16 12 z M 14.220703 20.560547 L 12 30 L 12.234375 30 L 14.429688 20.673828 A 4 4 0 0 1 14.220703 20.560547 z M 17.779297 20.560547 A 4 4 0 0 1 17.570312 20.673828 L 19.765625 30 L 20 30 L 17.779297 20.560547 z"/>
</svg>
