<svg xmlns="http://www.w3.org/2000/svg" width="32" height="32" version="1.1">
 <circle style="opacity:0.2" cx="16" cy="17" r="14"/>
 <circle style="fill:#e74c3c" cx="16" cy="16" r="14"/>
 <path style="opacity:0.2" d="m 7,11.803848 1.6645895,6.212333 2.0707785,-0.554863 -1.6645905,-6.212333 z m 3.991908,-1.069628 1.664591,6.212333 2.070777,-0.554864 -1.664588,-6.212332 z M 14.98382,9.6645913 16.648408,15.876925 22.860742,14.212334 21.196153,8.0000019 Z M 9.1793547,19.937312 10.803846,26 12.874624,25.445136 11.250133,19.38245 Z m 3.9919093,-1.069628 0.554863,2.070777 10.204245,-2.734218 -0.554864,-2.070777 z m 1.06963,3.991908 0.554863,2.070781 L 25,22.196153 24.445136,20.125376 Z"/>
 <path style="fill:#ffffff" d="M 7,10.803847 8.6645895,17.01618 10.735368,16.461317 9.0707775,10.248984 Z m 3.991908,-1.069628 1.664591,6.212333 2.070777,-0.554864 -1.664588,-6.2123323 z m 3.991912,-1.0696287 1.664588,6.2123337 6.212334,-1.664591 -1.664589,-6.2123321 z m -5.8044653,10.2727207 1.6244913,6.062688 2.070778,-0.554864 -1.624491,-6.062686 z m 3.9919093,-1.069628 0.554863,2.070777 10.204245,-2.734218 -0.554864,-2.070777 z m 1.06963,3.991908 0.554863,2.070781 L 25,21.196152 24.445136,19.125375 Z"/>
 <path style="fill:#ffffff;opacity:0.2" d="M 16 2 A 14 14 0 0 0 2 16 A 14 14 0 0 0 2.0214844 16.585938 A 14 14 0 0 1 16 3 A 14 14 0 0 1 29.978516 16.414062 A 14 14 0 0 0 30 16 A 14 14 0 0 0 16 2 z"/>
</svg>
