<svg xmlns="http://www.w3.org/2000/svg" width="32" height="32" version="1.1">
 <rect style="opacity:0.2" width="28" height="28" x="2" y="3" rx="3.5" ry="3.5"/>
 <rect style="fill:#2e4153" width="28" height="28" x="2" y="2" rx="3.5" ry="3.5"/>
 <path style="opacity:0.2" d="M 9.828125,8 C 8.5297185,8.0000195 7.7140663,8.3275011 7.3710938,8.9824219 7.1996047,9.3220371 7.0861041,9.6257683 7.0371094,9.8925781 7.0126064,10.159423 6.9999929,10.574918 7,11.132812 V 31 h 6 v -5.605438 c 0.906423,1.115824 2.649343,1.673828 4.658203,1.673828 2.008835,0 3.894318,-0.93299 5.658203,-2.800781 C 25.104752,22.399824 25.99998,19.82969 26,17.355469 25.99998,14.881266 25.104752,12.703741 23.316406,10.835938 21.528023,8.9681668 19.631884,8.0371289 17.623047,8.0371094 15.638686,8.0371289 13.964125,8.6663886 13.033203,9.9277344 12.959701,9.2970709 12.60413,8.8270788 12.138672,8.5117188 11.697698,8.1721404 11.126521,8.0000195 9.828125,8 Z m 6.123047,7 c 0.912149,1.2e-5 1.645688,0.315785 2.207031,0.947266 0.561316,0.608118 0.841785,1.300448 0.841797,2.072265 -1.2e-5,0.771837 -0.304014,1.460264 -0.912109,2.06836 C 17.503162,20.696004 16.775529,21.000006 15.910156,21 15.068153,21.000006 14.36796,20.696004 13.806641,20.087891 13.268693,19.456404 12.999992,18.767979 13,18.019531 c -8e-6,-0.748427 0.268693,-1.440758 0.806641,-2.072265 C 14.344572,15.315785 15.062393,15.000012 15.951172,15 Z"/>
 <path style="fill:#ffffff" d="M 9.828125,7 C 8.5297185,7.0000195 7.7140663,7.3275011 7.3710938,7.9824219 7.1996047,8.3220371 7.0861041,8.6257683 7.0371094,8.8925781 7.0126064,9.1594227 6.9999929,9.5749176 7,10.132812 V 30 h 6 v -5.605438 c 0.906423,1.115824 2.649343,1.673828 4.658203,1.673828 2.008835,0 3.894318,-0.93299 5.658203,-2.800781 C 25.104752,21.399824 25.99998,18.82969 26,16.355469 25.99998,13.881266 25.104752,11.703741 23.316406,9.8359375 21.528023,7.9681668 19.631884,7.0371289 17.623047,7.0371094 15.638686,7.0371289 13.964125,7.6663886 13.033203,8.9277344 12.959701,8.2970709 12.60413,7.8270788 12.138672,7.5117188 11.697698,7.1721404 11.126521,7.0000195 9.828125,7 Z m 6.123047,7 c 0.912149,1.2e-5 1.645688,0.315785 2.207031,0.947266 0.561316,0.608118 0.841785,1.300448 0.841797,2.072265 -1.2e-5,0.771837 -0.304014,1.460264 -0.912109,2.06836 C 17.503162,19.696004 16.775529,20.000006 15.910156,20 15.068153,20.000006 14.36796,19.696004 13.806641,19.087891 13.268693,18.456404 12.999992,17.767979 13,17.019531 c -8e-6,-0.748427 0.268693,-1.440758 0.806641,-2.072265 C 14.344572,14.315785 15.062393,14.000012 15.951172,14 Z"/>
 <path style="fill:#ffffff;opacity:0.1" d="M 5.5 2 C 3.561 2 2 3.561 2 5.5 L 2 6.5 C 2 4.561 3.561 3 5.5 3 L 26.5 3 C 28.439 3 30 4.561 30 6.5 L 30 5.5 C 30 3.561 28.439 2 26.5 2 L 5.5 2 z"/>
</svg>
