<svg xmlns="http://www.w3.org/2000/svg" width="32" height="32" version="1.1">
 <path style="opacity:0.2" d="M 16,3 A 14,14 0 0 0 2.3746091,13.940234 c -0.038357,0.162447 -0.074341,0.324981 -0.1066406,0.488086 a 14,14 0 0 0 -0.1476563,0.888672 c -0.068671,0.525752 -0.1057648,1.05289 -0.1134766,1.579101 A 14,14 0 0 0 1.9999997,17 a 14,14 0 0 0 0.00274,0.03691 c -0.016029,3.610988 1.3861447,7.161268 4.0304688,9.812305 0.7301899,0.732043 1.5360999,1.376356 2.398047,1.927734 0.5456381,0.349039 1.1148039,0.658956 1.7007815,0.929688 a 14,14 0 0 0 0.116211,0.05195 c 0.57478,0.259322 1.165574,0.480394 1.76914,0.660352 a 14,14 0 0 0 0.07109,0.02051 c 0.629059,0.183949 1.269636,0.325254 1.919531,0.418359 0.213042,0.03052 0.426655,0.05751 0.641211,0.07793 0.446377,0.04248 0.891659,0.06247 1.333008,0.06289 A 14,14 0 0 0 16,31 14,14 0 0 0 16.02734,30.9986 c 0.650775,-0.0015 1.294403,-0.04946 1.927735,-0.138086 a 14,14 0 0 0 0.07656,-0.01094 c 5.34642,-0.777957 9.9247,-4.569411 11.455665,-9.854651 0.425857,-1.470139 0.51095,-2.119747 0.5127,-3.89922 3.3e-5,-0.03256 -0.0013,-0.05039 -0.0014,-0.08203 A 14,14 0 0 0 30,17 14,14 0 0 0 29.9973,16.90977 c -0.0029,-1.512807 -0.05811,-1.978468 -0.396484,-3.316798 -0.154896,-0.61264 -0.3612,-1.216446 -0.609766,-1.806054 A 14,14 0 0 0 24.259179,5.6974609 C 24.209617,5.5197291 24.161362,5.2218547 24.069141,4.6365234 23.963186,3.9640302 23.860033,3.3202999 23.839453,3.2064453 L 23.801171,3 23.277539,3.35 C 22.989281,3.542218 22.493926,3.839585 22.176953,4.0117188 L 21.754492,4.2414062 A 14,14 0 0 0 16,3 Z"/>
 <path style="fill:#fddb00" d="M 16,2 A 14,14 0 0 0 2.3746091,12.940234 c -0.038357,0.162447 -0.074341,0.324981 -0.1066406,0.488086 a 14,14 0 0 0 -0.1476563,0.888672 c -0.068671,0.525752 -0.1057648,1.05289 -0.1134766,1.579101 A 14,14 0 0 0 1.9999997,16 a 14,14 0 0 0 0.00274,0.03691 c -0.016029,3.610988 1.3861447,7.161268 4.0304688,9.812305 0.7301899,0.732043 1.5360999,1.376356 2.398047,1.927734 0.5456381,0.349039 1.1148039,0.658956 1.7007815,0.929688 a 14,14 0 0 0 0.116211,0.05195 c 0.57478,0.259322 1.165574,0.480394 1.76914,0.660352 a 14,14 0 0 0 0.07109,0.02051 c 0.629059,0.183949 1.269636,0.325254 1.919531,0.418359 0.213042,0.03052 0.426655,0.05751 0.641211,0.07793 0.446377,0.04248 0.891659,0.06247 1.333008,0.06289 A 14,14 0 0 0 16,30 14,14 0 0 0 16.02734,29.9986 c 0.650775,-0.0015 1.294403,-0.04946 1.927735,-0.138086 a 14,14 0 0 0 0.07656,-0.01094 c 5.34642,-0.777957 9.9247,-4.569411 11.455665,-9.854651 0.425857,-1.470139 0.51095,-2.119747 0.5127,-3.89922 3.3e-5,-0.03256 -0.0013,-0.05039 -0.0014,-0.08203 A 14,14 0 0 0 30,16 14,14 0 0 0 29.9973,15.90977 c -0.0029,-1.512807 -0.05811,-1.978468 -0.396484,-3.316798 -0.154896,-0.61264 -0.3612,-1.216446 -0.609766,-1.806054 A 14,14 0 0 0 24.259179,4.6974609 C 24.209617,4.5197291 24.161362,4.2218547 24.069141,3.6365234 23.963186,2.9640302 23.860033,2.3202999 23.839453,2.2064453 L 23.801171,2 23.277539,2.35 C 22.989281,2.542218 22.493926,2.839585 22.176953,3.0117188 L 21.754492,3.2414062 A 14,14 0 0 0 16,2 Z"/>
 <path style="opacity:0.1" d="m 15.758947,29.98933 c -2.654157,-0.173436 -4.820775,-1.662735 -5.537894,-3.80666 -0.528096,-1.578815 -0.09705,-3.645543 1.153625,-5.044991 0.84164,-0.941759 2.322052,-1.73128 3.766497,-2.008718 0.658469,-0.126473 1.832492,-0.148741 2.296261,-0.03922 0.24089,0.05689 0.280897,0.0525 0.250115,-0.02742 -0.02015,-0.05232 -1.930588,-2.842797 -3.817984,-6.067063 C 11.982171,9.7709929 10.42637,7.4047409 10.412232,7.3087688 10.377778,7.0748854 10.558497,6.7434595 10.781596,6.6313888 10.908083,6.5678491 11.374164,6.5274019 12.322914,6.4976311 16.57346,6.364252 20.57781,5.0957188 23.15428,3.4034045 c 0.355756,-0.2336733 0.64683,-0.4019718 0.64683,-0.4019718 0,0.093968 -0.389006,0.982225 -0.643428,1.4890642 -1.36003,2.7093434 -3.711379,5.0431953 -6.559321,6.7531381 -0.389495,0.233858 -0.701919,0.448737 -0.694275,0.477509 0.0076,0.02877 1.347652,2.323735 2.977798,5.099918 1.630145,2.776182 2.597651,5.211184 2.687622,5.411115 1.230965,2.735453 -0.377862,6.181105 -3.677012,7.361313 -0.782078,0.279773 -1.286529,0.451187 -2.133547,0.395838 z"/>
 <path style="fill:#ffffff;opacity:0.2" d="M 16 2 A 14 14 0 0 0 2.375 12.939453 C 2.336643 13.1019 2.2998777 13.264629 2.2675781 13.427734 A 14 14 0 0 0 2.1210938 14.316406 C 2.0524227 14.842158 2.0135712 15.370273 2.0058594 15.896484 A 14 14 0 0 0 2 16 A 14 14 0 0 0 2.0019531 16.037109 C 2.0009889 16.25432 2.0063644 16.470911 2.015625 16.6875 C 2.029089 16.23063 2.061495 15.7727 2.1210938 15.316406 A 14 14 0 0 1 2.2675781 14.427734 C 2.2998777 14.264629 2.336643 14.1019 2.375 13.939453 A 14 14 0 0 1 16 3 A 14 14 0 0 1 21.753906 4.2421875 L 22.177734 4.0117188 C 22.494707 3.839585 22.989086 3.5418274 23.277344 3.3496094 L 23.800781 3 L 23.839844 3.2070312 C 23.860424 3.3208858 23.962404 3.9642256 24.068359 4.6367188 C 24.16058 5.2220501 24.210204 5.5195338 24.259766 5.6972656 A 14 14 0 0 1 28.990234 11.787109 C 29.2388 12.376717 29.446666 12.98111 29.601562 13.59375 C 29.906679 14.800542 29.97829 15.334061 29.992188 16.529297 C 29.994041 16.38028 29.999835 16.263092 30 16.095703 C 30.000033 16.063143 29.998147 16.045312 29.998047 16.013672 A 14 14 0 0 0 30 16 A 14 14 0 0 0 29.998047 15.910156 C 29.995147 14.397349 29.939937 13.93208 29.601562 12.59375 C 29.446666 11.98111 29.2388 11.376717 28.990234 10.787109 A 14 14 0 0 0 24.259766 4.6972656 C 24.210204 4.5195338 24.16058 4.2220501 24.068359 3.6367188 C 23.962404 2.9642255 23.860424 2.3208859 23.839844 2.2070312 L 23.800781 2 L 23.277344 2.3496094 C 22.989086 2.5418274 22.494707 2.839585 22.177734 3.0117188 L 21.753906 3.2421875 A 14 14 0 0 0 16 2 z"/>
 <path style="fill:#16bd73" d="m 15.758947,28.98933 c -2.654157,-0.173436 -4.820775,-1.662735 -5.537894,-3.80666 -0.528096,-1.578815 -0.09705,-3.645543 1.153625,-5.044991 0.84164,-0.941759 2.322052,-1.73128 3.766497,-2.008718 0.658469,-0.126473 1.832492,-0.148741 2.296261,-0.03922 0.24089,0.05689 0.280897,0.0525 0.250115,-0.02742 -0.02015,-0.05232 -1.930588,-2.842797 -3.817984,-6.067063 C 11.982171,8.7709929 10.42637,6.4047409 10.412232,6.3087688 10.377778,6.0748854 10.558497,5.7434595 10.781596,5.6313888 10.908083,5.5678491 11.374164,5.5274019 12.322914,5.4976311 16.57346,5.364252 20.57781,4.0957188 23.15428,2.4034045 c 0.355756,-0.2336733 0.64683,-0.4019718 0.64683,-0.4019718 0,0.093968 -0.389006,0.982225 -0.643428,1.4890642 -1.36003,2.7093434 -3.711379,5.0431953 -6.559321,6.7531381 -0.389495,0.233858 -0.701919,0.448737 -0.694275,0.477509 0.0076,0.02877 1.347652,2.323735 2.977798,5.099918 1.630145,2.776182 2.597651,5.211184 2.687622,5.411115 1.230965,2.735453 -0.377862,6.181105 -3.677012,7.361313 -0.782078,0.279773 -1.286529,0.451187 -2.133547,0.395838 z"/>
</svg>
