<svg xmlns="http://www.w3.org/2000/svg" width="32" height="32" version="1">
 <rect style="opacity:0.2" width="28" height="28" x="2" y="3" rx="1.4" ry="1.4"/>
 <path style="fill:#c72566" d="M 16,2 H 3.4 C 2.6244,2 2,2.6244 2,3.4 V 16 H 16 Z"/>
 <path style="fill:#6655e4" d="M 16,2 H 28.6 C 29.376,2 30,2.6244 30,3.4 V 16 H 16 Z"/>
 <path style="fill:#ff8c2a" d="M 16,30 H 3.4 C 2.6244,30 2,29.376 2,28.6 V 16 H 16 Z"/>
 <path style="fill:#c72566" d="M 16,30 H 28.6 C 29.376,30 30,29.376 30,28.6 V 16 H 16 Z"/>
 <rect style="fill:#3f3f3f" width="20" height="20" x="6" y="6"/>
 <path style="opacity:0.2;fill:none;stroke:#000000;stroke-width:2;stroke-linecap:round" d="M 9,24 H 17"/>
 <path style="fill:none;stroke:#ffffff;stroke-width:2;stroke-linecap:round" d="M 9,23 H 17"/>
 <path style="opacity:0.2;fill:none;stroke:#000000;stroke-width:2;stroke-linecap:round;stroke-linejoin:bevel" d="M 17,18 C 17,18 21.044,18.35 21,14 20.956,9.6499 17,10 17,10 M 16.986,18 V 10"/>
 <path style="fill:none;stroke:#ffffff;stroke-width:2;stroke-linecap:round;stroke-linejoin:bevel" d="M 17,17 C 17,17 21.044,17.351 21,13 20.956,8.65 17,9 17,9 M 16.986,17 V 9"/>
 <path style="opacity:0.2;fill:none;stroke:#000000;stroke-width:2;stroke-linecap:round" d="M 13,18 11,15 M 9,14 C 9,14 13,14.464 13,12 13,9.5353 9,10 9,10 M 9,18 V 10"/>
 <path style="fill:none;stroke:#ffffff;stroke-width:2;stroke-linecap:round" d="M 13,17 11,14 M 9,13 C 9,13 13,13.464 13,11 13,8.5354 9,9 9,9 M 9,17 V 9"/>
 <path style="opacity:0.2;fill:#ffffff" d="M 3.4004,1.9996 C 2.6248,1.9996 2,2.6244 2,3.4 V 4.4 C 2,3.6244 2.6248,2.9996 3.4004,2.9996 H 28.6 C 29.375,2.9996 30,3.6244 30,4.4 V 3.4 C 30,2.6244 29.375,1.9996 28.6,1.9996 Z"/>
</svg>
