<svg xmlns="http://www.w3.org/2000/svg" width="32" height="32" version="1">
 <rect style="opacity:0.2" width="28" height="28" x="2" y="3" rx="1.4" ry="1.4"/>
 <rect style="fill:#eb6416" width="28" height="28" x="2" y="2" rx="1.4" ry="1.4"/>
 <path style="opacity:0.3;fill:#ffffff" d="M 3.4,2 C 2.6244,2 2,2.6244 2,3.4 V 16 H 2.7 29.3 30 V 3.4 C 30,2.6244 29.3756,2 28.6,2 Z"/>
 <path style="opacity:0.1;fill:none;stroke:#000000;stroke-width:2;stroke-linejoin:round" d="m 4,16.999665 h 3.647348 l 1.7755577,-6 1.1837053,11 3.013066,-15.0000001 2.044581,19.0000001 2.797848,-18.0000001 2.15219,15.0000001 2.098387,-11 1.398923,6 H 28"/>
 <path style="fill:none;stroke:#3f3f3f;stroke-width:2;stroke-linejoin:round" d="m 4,16 h 3.647348 l 1.7755577,-6 1.1837053,11 3.013066,-15 2.044581,19 2.797848,-18 2.15219,15 2.098387,-11 1.398923,6 H 28"/>
 <path style="opacity:0.2;fill:#ffffff" d="M 3.4003906 2 C 2.6247906 2 2 2.6247906 2 3.4003906 L 2 4.4003906 C 2 3.6247906 2.6247906 3 3.4003906 3 L 28.599609 3 C 29.375209 3 30 3.6247906 30 4.4003906 L 30 3.4003906 C 30 2.6247906 29.375209 2 28.599609 2 L 3.4003906 2 z"/>
</svg>
