<svg xmlns="http://www.w3.org/2000/svg" width="32" height="32" version="1.1">
 <path style="opacity:0.2" d="m11 3c-0.265199 5.1e-5 -0.519519 0.105433-0.707031 0.292969l-8 8c-0.187536 0.187512-0.292918 0.441832-0.292969 0.707031v18c5.5e-5 0.552262 0.447738 0.999945 1 1h17c0.244725 9.3e-5 0.48099-0.08955 0.664062-0.251953l9-8c0.213756-0.189868 0.336031-0.462142 0.335938-0.748047v-18c-5.5e-5 -0.552262-0.447738-0.999945-1-1z"/>
 <path style="fill:#1ed760" d="m11 2c-0.265199 5.11e-5 -0.519519 0.1054326-0.707031 0.2929688l-8.0000002 8.0000002c-0.1875362 0.187512-0.2929177 0.441832-0.2929688 0.707031v18c5.52e-5 0.552262 0.4477381 0.999945 1 1h17c0.244725 9.3e-5 0.48099-0.08955 0.664062-0.251953l9-8c0.213756-0.189868 0.336031-0.462142 0.335938-0.748047v-18c-5.5e-5 -0.5522619-0.447738-0.9999448-1-1z"/>
 <path style="fill:#ffffff;opacity:0.2" d="m11 2c-0.265199 5.1e-5 -0.519519 0.1054327-0.707031 0.2929688l-8.0000002 8.0000002c-0.187536 0.187512-0.2929178 0.441832-0.2929688 0.707031v1c5.1e-5 -0.265199 0.1054328-0.519519 0.2929688-0.707031l8.0000002-8.0000002c0.187512-0.1875361 0.441832-0.2929178 0.707031-0.2929688h18c0.552262 5.5e-5 0.999945 0.447738 1 1v-1c-5.5e-5 -0.552262-0.447738-0.999945-1-1h-18z"/>
 <path style="opacity:0.2;fill:none;stroke:#ffffff;stroke-width:3;stroke-linecap:round" d="m 7.5,12.5 c 5,-1.5 13,-1.5 18,2"/>
 <path style="fill:none;stroke:#3f3f3f;stroke-width:3;stroke-linecap:round" d="m 7.5,11.5 c 5,-1.5 13,-1.5 18,2"/>
 <path style="opacity:0.2;fill:none;stroke:#ffffff;stroke-width:2;stroke-linecap:round" d="M 8,17.5 C 13,16 19,16 24,19.5"/>
 <path style="fill:none;stroke:#3f3f3f;stroke-width:2;stroke-linecap:round" d="M 8,16.5 C 13,15 19,15 24,18.5"/>
 <path style="opacity:0.2;fill:none;stroke:#ffffff;stroke-width:2;stroke-linecap:round" d="m 9,22 c 3,-1.5 9,-1.5 13,1"/>
 <path style="fill:none;stroke:#3f3f3f;stroke-width:2;stroke-linecap:round" d="m 9,21 c 3,-1.5 9,-1.5 13,1"/>
</svg>
