<svg xmlns="http://www.w3.org/2000/svg" width="32" height="32" version="1">
 <circle style="opacity:.2" cx="16" cy="17" r="14"/>
 <circle style="fill:#28a4e2" cx="16" cy="16" r="14"/>
 <path style="fill:#ffffff;opacity:.2" d="M 16 2 A 14 14 0 0 0 2 16 A 14 14 0 0 0 2.0214844 16.585938 A 14 14 0 0 1 16 3 A 14 14 0 0 1 29.978516 16.414062 A 14 14 0 0 0 30 16 A 14 14 0 0 0 16 2 z"/>
 <path style="opacity:.2" d="m20.931 23.391c0.269-0.517 1.818-9.346 2.039-11.629 0.24-2.2614-1.009-1.8408-2.158-1.459-2.819 0.941-11.7312 4.754-14.1707 6.012-0.6005 0.246-0.8601 0.664-0.4231 1.025 0.3762 0.306 1.753 0.727 2.8633 0.941 0.9465 0.283 1.6815 0.012 2.3605-0.367 1.631-0.955 6.491-3.994 6.752-4.164 0.262-0.169 0.548 0.145 0.402 0.297-0.146 0.153-3.588 3.203-4.718 4.582-0.599 0.758-0.581 1.163 0.034 1.641 1.38 1.069 5.066 3.507 5.615 3.654 0.699 0.188 1.109 0.032 1.404-0.533z"/>
 <path style="fill:#e1f5fe" d="m20.931 22.391c0.269-0.517 1.818-9.346 2.039-11.629 0.24-2.2615-1.009-1.8409-2.158-1.4588-2.819 0.9408-11.7312 4.7538-14.1707 6.0118-0.6005 0.246-0.8601 0.664-0.4231 1.025 0.3762 0.306 1.753 0.727 2.8633 0.941 0.9465 0.283 1.6815 0.012 2.3605-0.367 1.631-0.955 6.491-3.994 6.752-4.164 0.262-0.169 0.548 0.145 0.402 0.297-0.146 0.153-3.588 3.203-4.718 4.582-0.599 0.758-0.581 1.163 0.034 1.641 1.38 1.069 5.066 3.507 5.615 3.654 0.699 0.188 1.109 0.032 1.404-0.533z"/>
</svg>
