<?xml version="1.0" encoding="UTF-8" standalone="no"?>
<svg xmlns="http://www.w3.org/2000/svg" height="64" width="64" version="1">
 <path style="opacity:0.2" d="m 4,56 0,2 c 0,1.662 1.338,3 3,3 l 50,0 c 1.662,0 3,-1.338 3,-3 l 0,-2 c 0,1.662 -1.338,3 -3,3 L 7,59 C 5.338,59 4,57.662 4,56 Z"/>
 <rect style="fill:#d54747;fill-opacity:1" ry="3" rx="3" transform="matrix(0,-1,-1,0,0,0)" height="56" width="56" y="-60" x="-60"/>
 <path style="opacity:0.2;fill:#ffffff" d="M 7,4 C 5.338,4 4,5.338 4,7 L 4,8 C 4,6.338 5.338,5 7,5 l 50,0 c 1.662,0 3,1.338 3,3 L 60,7 C 60,5.338 58.662,4 57,4 L 7,4 Z"/>
 <path d="m 32.001953,14.999145 c -1.682106,-0.0174 -3.352506,0.231581 -4.974609,0.675781 -7.553475,2.0262 -13.081404,9.502172 -12.966797,17.326172 l -4.060547,0 c 2.069963,3.043664 6,8.998047 6,8.998047 0,0 6,-9.000953 6,-9.001953 l -3.917969,0 c -0.0144,-3.2766 1.215348,-6.571578 3.396485,-9.017578 4.099458,-4.9288 11.522763,-6.980569 17.232422,-2.792969 1.809993,2.3692 5.757599,-0.319189 3.720703,-2.662109 -3.000188,-2.33646 -6.64185,-3.517391 -10.429688,-3.525391 z m 15.998047,9 c 0,0 -6,8.999 -6,9 l 3.917969,0 c 0.0144,3.2766 -1.215348,6.573531 -3.396485,9.019531 -4.099458,4.9288 -11.522762,6.980569 -17.232422,2.792969 -1.809993,-2.3692 -5.757599,0.319189 -3.720703,2.662109 3.000188,2.33646 6.64185,3.517391 10.429688,3.525391 1.682106,0.0174 3.352506,-0.231581 4.974609,-0.675781 7.553475,-2.0262 13.081404,-9.502172 12.966797,-17.326172 l 4.060547,0 c -2.069963,-3.043664 -6,-8.998047 -6,-8.998047 z" style="opacity:0.2;fill:#000000;fill-opacity:1;enable-background:new"/>
 <path style="fill:#ffad87;fill-opacity:1;enable-background:new" d="m 32.001953,14 c -1.682106,-0.0174 -3.352506,0.231581 -4.974609,0.675781 -7.553475,2.0262 -13.081404,9.502172 -12.966797,17.326172 l -4.060547,0 C 12.069963,35.045617 16,41 16,41 c 0,0 6,-9.000953 6,-9.001953 l -3.917969,0 c -0.0144,-3.2766 1.215348,-6.571578 3.396485,-9.017578 4.099458,-4.9288 11.522763,-6.980569 17.232422,-2.792969 1.809993,2.3692 5.757599,-0.319189 3.720703,-2.662109 C 39.431453,15.188931 35.789791,14.008 32.001953,14 Z M 48,23 c 0,0 -6,8.999 -6,9 l 3.917969,0 c 0.0144,3.2766 -1.215348,6.573531 -3.396485,9.019531 -4.099458,4.9288 -11.522762,6.980569 -17.232422,2.792969 -1.809993,-2.3692 -5.757599,0.319189 -3.720703,2.662109 3.000188,2.33646 6.64185,3.517391 10.429688,3.525391 1.682106,0.0174 3.352506,-0.231581 4.974609,-0.675781 7.553475,-2.0262 13.081404,-9.502172 12.966797,-17.326172 l 4.060547,0 C 51.930037,28.954383 48,23 48,23 Z"/>
</svg>
