<?xml version="1.0" encoding="UTF-8" standalone="no"?>
<svg xmlns="http://www.w3.org/2000/svg" height="64" width="64" version="1">
 <path style="opacity:0.2" d="m 4.0000004,56.200069 0,1.999971 c 0,1.549978 1.2495821,2.79996 2.80076,2.79996 L 57.20004,61 C 58.750017,61 60,59.750018 60,58.20004 l 0,-1.999971 c 0,1.549977 -1.249983,2.79996 -2.79996,2.79996 l -50.3992796,0 c -1.5503779,0 -2.79996,-1.249983 -2.79996,-2.79996 z"/>
 <polygon display="none" points="628.5 616 668 619.5 707 615 713 603 688.5 578 676.5 569.5 693.5 560.5 693.5 540 732.5 497.5 664 430.5 588 333 517.5 214 500 192 386 355 328 328 304 332.5 299.5 366 318.5 403.5 338 431 309.5 462 275.5 507 300 533 304 551 318.5 569.5 340.5 583 351.5 604.5 373.5 617 395 637.5 452.5 723 488.5 788.5 502 812.5 551.5 721.5 612.5 637" transform="matrix(0.063142,0,0,0.063142,-131,7.97)" style="display:none;fill:#5a0e00"/>
 <rect style="fill:#cccccc" transform="matrix(0,-1,-1,0,0,0)" rx="2.8" ry="2.8" height="55.999" width="55.999" y="-60" x="-60"/>
 <rect style="fill:#49a2d6" transform="matrix(-0.70710678,-0.70710678,-0.70710678,0.70710678,0,0)" rx=".874" ry=".874" height="17.482" width="17.482" y="-8.74" x="-37.02"/>
 <rect style="fill:#caa52a" transform="matrix(-0.70710678,-0.70710678,-0.70710678,0.70710678,0,0)" rx=".874" ry=".874" height="17.482" width="17.482" y="-25.72" x="-54"/>
 <rect style="fill:#e94a63" transform="matrix(-0.70710678,-0.70710678,-0.70710678,0.70710678,0,0)" rx=".874" ry=".874" height="17.482" width="17.482" y="8.24" x="-54"/>
 <rect style="fill:#6eaa53" transform="matrix(-0.70710678,-0.70710678,-0.70710678,0.70710678,0,0)" rx=".874" ry=".874" height="17.482" width="17.482" y="-8.74" x="-70.96"/>
 <path style="opacity:0.2;fill:#ffffff" d="M 6.8007812 4 C 5.2496034 4 4 5.2496034 4 6.8007812 L 4 7.8027344 C 4 6.2515566 5.2496034 5.0019531 6.8007812 5.0019531 L 57.199219 5.0019531 C 58.749196 5.0019531 60 6.2515566 60 7.8027344 L 60 6.8007812 C 60 5.2496035 58.749196 4 57.199219 4 L 6.8007812 4 z"/>
</svg>
