<?xml version="1.0" encoding="UTF-8" standalone="no"?>
<svg xmlns="http://www.w3.org/2000/svg" height="64" width="64" version="1">
 <path d="M 6.8007812,61 C 5.2495812,61 4,59.750418 4,58.199218 v -2 C 4,57.750418 5.2495812,59 6.8007812,59 H 32 57.199218 C 58.750418,59 60,57.750418 60,56.199218 v 2 C 60,59.750418 58.750418,61 57.199218,61 H 32 Z" style="opacity:0.2;fill:#000000;fill-opacity:1;stroke-width:1.39999998"/>
 <path d="M 32,4 H 6.8 C 5.2488,4 4,5.2488 4,6.8 V 32 h 28 z" style="fill:#cf4f8c;fill-opacity:1;stroke-width:1.39999998"/>
 <path d="M 32,4 H 57.2 C 58.7512,4 60,5.2488 60,6.8 V 32 H 32 Z" style="fill:#6655e4;fill-opacity:1;stroke-width:1.39999998"/>
 <path d="M 32,60 H 6.8 C 5.2488,60 4,58.7512 4,57.2 V 32 h 28 z" style="fill:#6655e4;fill-opacity:1;stroke-width:1.39999998"/>
 <path d="M 32,60 H 57.2 C 58.7512,60 60,58.7512 60,57.2 V 32 H 32 Z" style="fill:#cf4f8c;fill-opacity:1;stroke-width:1.39999998"/>
 <path style="opacity:0.2;fill:#ffffff;fill-opacity:1;stroke-width:1.39999998" d="M 6.8007812 4 C 5.2495812 4 4 5.2495812 4 6.8007812 L 4 7.8007812 C 4 6.2495813 5.2495812 5 6.8007812 5 L 32 5 L 57.199219 5 C 58.750419 5 60 6.2495812 60 7.8007812 L 60 6.8007812 C 60 5.2495813 58.750419 4 57.199219 4 L 32 4 L 6.8007812 4 z"/>
 <rect height="40" width="40" y="12" x="12" style="fill:#3f3f3f;fill-opacity:1;stroke-width:1"/>
 <path d="M 18.000485,46.9998 H 34.000484" style="opacity:0.2;fill:none;stroke:#000000;stroke-width:4;stroke-linecap:round;stroke-opacity:1"/>
 <path style="fill:none;stroke:#ffffff;stroke-width:4;stroke-linecap:round;stroke-opacity:1" d="M 18.000485,46 H 34.000484"/>
 <path d="m 18.000485,26.999314 c 0,0 8.000005,0.929002 8.000005,-3.999994 0,-4.929003 -8.000005,-4.000003 -8.000005,-4.000003 m 1.98e-4,16.000199 V 18.999513" style="opacity:0.2;fill:none;stroke:#000000;stroke-width:3.99999976;stroke-linecap:round;stroke-linejoin:bevel;stroke-opacity:1"/>
 <path style="fill:none;stroke:#ffffff;stroke-width:3.99999976;stroke-linecap:round;stroke-linejoin:bevel;stroke-opacity:1" d="m 18.000485,25.999514 c 0,0 8.000005,0.929002 8.000005,-3.999994 0,-4.929003 -8.000005,-4.000003 -8.000005,-4.000003 m 1.98e-4,16.000199 V 17.999713"/>
 <path style="opacity:0.2;fill:none;stroke:#000000;stroke-width:3.99999976;stroke-linecap:round;stroke-linejoin:round;stroke-opacity:1" d="m 34.000484,32.999314 c 0,0 1.00877,2.001934 4.000002,2.000966 2.991224,-9.6e-4 3.999994,-2.000966 3.999994,-4.000962 0,-8.42877 -7.999996,0.422324 -7.976034,-7.98141 -0.02418,-2.018594 0.943732,-4.018591 3.97604,-4.018591 3.0323,0 3.999768,1.999997 3.999768,1.999997"/>
 <path d="m 34.000484,31.999514 c 0,0 1.00877,2.001934 4.000002,2.000966 2.991224,-9.6e-4 3.999994,-2.000966 3.999994,-4.000962 0,-8.42877 -7.999996,0.422324 -7.976034,-7.98141 -0.02418,-2.018595 0.943732,-4.018591 3.97604,-4.018591 3.0323,0 3.999768,1.999996 3.999768,1.999996" style="fill:none;stroke:#ffffff;stroke-width:3.99999976;stroke-linecap:round;stroke-linejoin:round;stroke-opacity:1"/>
</svg>
