<?xml version="1.0" encoding="UTF-8" standalone="no"?>
<svg xmlns="http://www.w3.org/2000/svg" height="48" width="48" version="1.1">
 <path fill="#324e89" d="m24 4c-11.041 0-19.992 8.95-20 19.989v16.906c0 1.7193 1.3845 3.1038 3.1038 3.1038h16.907c11.042 0 19.989-8.9569 19.989-20 0-11.046-8.9544-20-20-20z"/>
 <path opacity=".2" fill="#fff" d="m30.028 7.7c-5.2967 0-9.5901 4.2937-9.5901 9.5902v5.0858h-5.0614c-5.2966 0-9.59 4.2727-9.59 9.569 0 5.297 4.2936 9.5905 9.59 9.5905 5.2959 0 9.5895-4.2935 9.5895-9.5905v-5.1068h5.062c5.2959 0 9.5895-4.2518 9.5895-9.548 0-5.297-4.294-9.591-9.59-9.591zm-9.5901 24.251c-0.004 2.7908-2.2691 5.0533-5.0614 5.0533-2.7953 0-5.0823-2.2662-5.0823-5.0615 0-2.7963 2.287-5.1045 5.0823-5.1045h4.347c0.39486 0 0.71505 0.3196 0.71505 0.7138 0 0.0007-0.000486 0.0007-0.000486 0v4.3972h-0.000162zm9.5896-9.578h-4.3473c-0.39486 0-0.71424-0.3194-0.71424-0.7146v-4.3761c0.0047-2.7925 2.2691-5.0541 5.0616-5.0541 2.7953 0 5.0828 2.2663 5.0828 5.0622 0 2.7955-2.2875 5.0826-5.0828 5.0826z"/>
 <path fill="#fff" d="m20.438 22.4v-5.086c0-5.2966 4.2934-9.5903 9.5901-9.5903 0.80348 0 1.3744 0.091 2.1181 0.2852 1.0846 0.2845 1.9704 1.173 1.9709 2.2073 0.000483 1.2504-0.90714 2.1593-2.2636 2.1593-0.64622 0-0.87976-0.1237-1.8259-0.1237-2.7925 0-5.0569 2.2616-5.0616 5.0541v4.3759c0 0.3952 0.31938 0.7146 0.71424 0.7146h3.3263c1.2387 0 2.2389 0.9917 2.2399 2.2336 0 1.2425-1.0017 2.2319-2.2399 2.2319h-4.0406v5.1069c0 5.296-4.2936 9.5895-9.5895 9.5895-0.80364 0-1.3746-0.091-2.1183-0.2853-1.0846-0.2843-1.9707-1.1733-1.9712-2.2073 0-1.25 0.90698-2.1593 2.264-2.1593 0.64557 0 0.87976 0.1239 1.8254 0.1239 2.7925 0 5.0575-2.2618 5.0619-5.0533v-4.3988c0-0.3943-0.3202-0.7137-0.71505-0.7137h-3.3254c-1.239 0-2.2401-0.9885-2.2401-2.2313-0.000324-1.2497 1.0114-2.2341 2.2636-2.2341h4.0164v-0.0001z"/>
 <path opacity=".2" d="m43.988 24.5c-0.266 10.812-9.104 19.5-19.978 19.5h-16.906c-1.7193 0-3.1035-1.384-3.1035-3.104v1c0 1.72 1.3842 3.104 3.1035 3.104h16.906c11.041 0 19.99-8.957 19.99-20 0-0.168-0.008-0.333-0.012-0.5z"/>
 <path opacity=".1" fill="#fff" d="m24 4c-11.041 0-19.992 8.951-20 19.99v1c0.0076-11.039 8.959-19.99 20-19.99 10.878 0 19.722 8.685 19.988 19.5 0.004-0.167 0.012-0.332 0.012-0.5 0-11.046-8.954-20-20-20z"/>
 <path fill="#fff" d="m20.438 22.4v-5.086c0-5.2966 4.2934-9.5903 9.5901-9.5903 0.80348 0 1.3744 0.091 2.1181 0.2852 1.0846 0.2845 1.9704 1.173 1.9709 2.2073 0.000483 1.2504-0.90714 2.1593-2.2636 2.1593-0.64622 0-0.87976-0.1237-1.8259-0.1237-2.7925 0-5.0569 2.2616-5.0616 5.0541v4.3759c0 0.3952 0.31938 0.7146 0.71424 0.7146h3.3263c1.2387 0 2.2389 0.9917 2.2399 2.2336 0 1.2425-1.0017 2.2319-2.2399 2.2319h-4.0406v5.1069c0 5.296-4.2936 9.5895-9.5895 9.5895-0.80364 0-1.3746-0.091-2.1183-0.2853-1.0846-0.2843-1.9707-1.1733-1.9712-2.2073 0-1.25 0.90698-2.1593 2.264-2.1593 0.64557 0 0.87976 0.1239 1.8254 0.1239 2.7925 0 5.0575-2.2618 5.0619-5.0533v-4.3988c0-0.3943-0.3202-0.7137-0.71505-0.7137h-3.3254c-1.239 0-2.2401-0.9885-2.2401-2.2313-0.000324-1.2497 1.0114-2.2341 2.2636-2.2341h4.0164v-0.0001z"/>
</svg>
