<svg width="48" height="48" version="1" xmlns="http://www.w3.org/2000/svg">
 <defs>
  <style id="current-color-scheme" type="text/css">.ColorScheme-Text { color:#444444; } .ColorScheme-Highlight { color:#4285f4; } .ColorScheme-NeutralText { color:#ff9800; } .ColorScheme-PositiveText { color:#4caf50; } .ColorScheme-NegativeText { color:#f44336; }</style>
 </defs>
 <rect x="4" y="21" width="40" height="22" rx="2" ry="2" style="opacity:.2"/>
 <path class="ColorScheme-Highlight" d="m4 40c0 1.108 0.892 2 2 2h36c1.108 0 2-0.892 2-2v-28c0-1.108-0.892-2-2-2h-18c-3 0-4-4-7-4h-11c-1.108 0-2 0.892-2 2" style="fill:currentColor"/>
 <path class="ColorScheme-Text" d="m6 6c-1.1079989 0-2 0.8920011-2 2v10c0-1.107999 0.8920011-2 2-2h36c1.107999 0 2 0.892001 2 2v-6c0-1.107999-0.892001-2-2-2h-18c-2.999997 0-4.000003-4-7-4z" style="fill:currentColor;opacity:.3"/>
 <path d="m6 15c-1.1079989 0-2 0.892001-2 2v1c0-1.107999 0.8920011-2 2-2h36c1.107999 0 2 0.892001 2 2v-1c0-1.107999-0.892001-2-2-2z" style="opacity:.2"/>
 <path d="m8 13c-1.1079978 0-2 0.892002-2 2v1h36v-1c0-1.107998-0.892002-2-2-2z" style="fill:#e4e4e4"/>
 <path d="m6 6c-1.108 0-2 0.892-2 2v1c0-1.108 0.892-2 2-2h11c3 0 4 4 7 4h18c1.108 0 2 0.892 2 2v-1c0-1.108-0.892-2-2-2h-18c-3 0-4-4-7-4z" style="fill:currentColor;opacity:.1" class="ColorScheme-Text"/>
 <path class="ColorScheme-Text" style="fill:currentColor;opacity:.7" d="M 24 21 C 19.581726 21.000001 16 24.581726 16 29 C 16 29.090298 16.002891 29.179955 16.005859 29.269531 A 2 2 0 0 0 15 31 A 2 2 0 0 0 17 33 A 2 2 0 0 0 17.070312 32.996094 C 18.453198 35.388653 21.037858 36.999999 24 37 C 25.743665 37 27.355573 36.439141 28.669922 35.492188 A 2 2 0 0 0 30 36 A 2 2 0 0 0 32 34 A 2 2 0 0 0 31.230469 32.423828 C 31.722849 31.385761 32 30.225294 32 29 C 32 28.584456 31.969285 28.175804 31.908203 27.777344 A 2 2 0 0 0 33 26 A 2 2 0 0 0 31 24 A 2 2 0 0 0 30.335938 24.119141 C 28.873056 22.222882 26.58019 21 24 21 z M 24 22 C 26.233058 22 28.220243 23.047428 29.501953 24.675781 A 2 2 0 0 0 29 26 A 2 2 0 0 0 29.064453 26.494141 L 27.349609 27.523438 A 2 2 0 0 0 26 27 A 2 2 0 0 0 24.009766 28.857422 L 18.746094 30.025391 A 2 2 0 0 0 17 29 C 17 25.13401 20.13401 22.000001 24 22 z M 29.652344 27.474609 A 2 2 0 0 0 30.927734 27.994141 C 30.975019 28.322665 31 28.658387 31 29 C 31 30.083576 30.753974 31.109713 30.314453 32.025391 A 2 2 0 0 0 30 32 A 2 2 0 0 0 29.251953 32.150391 L 27.640625 30.136719 A 2 2 0 0 0 28 29 A 2 2 0 0 0 27.9375 28.503906 L 29.652344 27.474609 z M 24.257812 29.972656 A 2 2 0 0 0 26 31 A 2 2 0 0 0 26.748047 30.849609 L 28.359375 32.863281 A 2 2 0 0 0 28 34 A 2 2 0 0 0 28.117188 34.660156 C 26.96157 35.502308 25.539375 36 24 36 C 21.491207 35.999999 19.292492 34.67848 18.056641 32.695312 A 2 2 0 0 0 18.990234 31.142578 L 24.257812 29.972656 z "/>
</svg>
