<svg xmlns="http://www.w3.org/2000/svg" width="16" height="16" version="1.1">
 <defs>
  <style id="current-color-scheme" type="text/css">
   .ColorScheme-Text { color:#444444; } .ColorScheme-Highlight { color:#4285f4; } .ColorScheme-NeutralText { color:#ff9800; } .ColorScheme-PositiveText { color:#4caf50; } .ColorScheme-NegativeText { color:#f44336; }
  </style>
 </defs>
 <path style="fill:currentColor" class="ColorScheme-Text" d="m 5.8749459,14.969863 c -1.5642,-0.14377 -2.776685,-0.64821 -3.68692,-1.53389 -0.77329,-0.752435 -1.18601,-2.336855 -1.187935,-3.24597 -0.0015,-0.6372298 0.181915,-1.1463348 0.55136,-1.5316548 0.419995,-0.43805 0.900125,-0.638375 1.53957,-0.64235 0.801025,-0.005 1.449523,0.274695 1.745733,0.894985 0.124985,0.261735 0.132285,0.306495 0.15838,0.970895 0.0296,0.7538198 0.06693,1.8496738 0.249115,2.2074738 0.26148,0.513535 0.727751,0.909112 1.741751,0.90988 1.014,7.68e-4 1.668504,-0.5187 1.937609,-1.567465 0.06873,-0.26789 0.0747,-0.792969 0.0747,-4.2693138 0,-3.7186252 -0.0015,-3.6801267 -0.0856,-3.8255517 C 8.7643499,3.080834 8.5811439,3.0163675 7.8756239,2.9999995 H 6.9996909 V 0.99999938 H 14.999918 V 2.9999995 h -0.84677 c -0.669599,0.026515 -0.788545,0.056767 -0.936425,0.2163435 -0.204055,0.220195 -0.14892,0.0271 -0.177644,4.0727512 -0.0285,4.0128998 -0.0304,4.0523248 -0.22132,4.5831098 -0.47753,1.327585 -1.667396,2.43722 -3.3069411,2.86321 -0.83807,0.21775 -2.705367,0.31998 -3.635887,0.23445 z"/>
</svg>
