<svg xmlns="http://www.w3.org/2000/svg" width="16" height="16" version="1">
 <defs>
  <style id="current-color-scheme" type="text/css">
   .ColorScheme-Text { color:#444444; } .ColorScheme-Highlight { color:#4285f4; }
  </style>
 </defs>
 <path style="fill:currentColor" class="ColorScheme-Text" d="M 11 1 A 4 4 0 0 0 7 5 A 4 4 0 0 0 7.5566406 7.0273438 L 6.9511719 7.6328125 L 6.9492188 7.6328125 L 2.7089844 3.390625 C 2.5130844 3.194725 2.2556 3.0976563 2 3.0976562 C 1.7444 3.0976562 1.4887687 3.194725 1.2929688 3.390625 C 0.90116875 3.782325 0.90116875 4.4129875 1.2929688 4.8046875 L 5.5351562 9.046875 L 5.5351562 9.0488281 L 1.2929688 13.291016 C 0.9011687 13.682016 0.9011687 14.315031 1.2929688 14.707031 C 1.6846687 15.098031 2.3172844 15.098031 2.7089844 14.707031 L 3.4160156 14 L 5 14 L 5 12.416016 L 5.4160156 12 L 7 12 L 7 10.513672 L 11.193359 14.705078 C 11.585359 15.097078 12.216422 15.097078 12.607422 14.705078 C 12.999422 14.313078 12.999422 13.681062 12.607422 13.289062 L 8.3652344 9.0488281 L 8.3652344 9.046875 L 8.9707031 8.4414062 A 4 4 0 0 0 11 9 A 4 4 0 0 0 15 5 A 4 4 0 0 0 11 1 z M 12 3 A 1 1 0 0 1 13 4 A 1 1 0 0 1 12 5 A 1 1 0 0 1 11 4 A 1 1 0 0 1 12 3 z"/>
</svg>
