<svg xmlns="http://www.w3.org/2000/svg" width="16" height="16" version="1.1">
 <defs>
  <style id="current-color-scheme" type="text/css">
   .ColorScheme-Text { color:#444444; } .ColorScheme-Highlight { color:#4285f4; } .ColorScheme-NeutralText { color:#ff9800; } .ColorScheme-PositiveText { color:#4caf50; } .ColorScheme-NegativeText { color:#f44336; }
  </style>
 </defs>
 <path style="fill:currentColor" class="ColorScheme-Text" d="M 6.9257812 0.001953125 C 6.8009319 0.011717985 6.6790273 0.04289115 6.5664062 0.09765625 C 6.2204118 0.26416787 6.0002998 0.61407012 6 0.99804688 L 6 5.0644531 L 3.6132812 3.2089844 C 3.1773941 2.8706433 2.5498304 2.9493072 2.2109375 3.3847656 C 1.8725964 3.8206529 1.9512604 4.4482165 2.3867188 4.7871094 L 6 7.5976562 L 6 8.3984375 L 2.3867188 11.208984 C 1.9512606 11.547877 1.8725969 12.175441 2.2109375 12.611328 C 2.5498305 13.046786 3.177394 13.12545 3.6132812 12.787109 L 6 10.931641 L 6 14.998047 C 5.9996501 15.836916 6.970049 16.303454 7.625 15.779297 L 8 15.478516 L 8 12.916016 L 8 12.75 L 8 11 L 8 9.375 L 8.1425781 9.2636719 L 9.1289062 10.03125 C 9.2311474 9.666097 9.400938 9.3072633 9.6699219 8.984375 C 9.8499555 8.7682628 10.074169 8.5824048 10.330078 8.4316406 L 9.7714844 7.9980469 L 12.613281 5.7871094 C 13.123813 5.3904929 13.129556 4.6209889 12.625 4.2167969 L 7.625 0.21679688 C 7.4277023 0.05875988 7.1778773 -0.016746745 6.9257812 0.001953125 z M 8 3.0800781 L 10.384766 4.9882812 L 8.1425781 6.7324219 L 8 6.6210938 L 8 3.0800781 z M 2 7 C 1.4477153 7 1 7.4477153 1 8 C 1 8.5522847 1.4477153 9 2 9 C 2.5522847 9 3 8.5522847 3 8 C 3 7.4477153 2.5522847 7 2 7 z M 14 7 C 13.447715 7 13 7.4477153 13 8 C 13 8.5522847 13.447715 9 14 9 C 14.552285 9 15 8.5522847 15 8 C 15 7.4477153 14.552285 7 14 7 z M 12 9 C 10.5 9 10 10 10 11 L 10 12 L 9 12 L 9 12.75 L 9 16 L 9.75 16 L 14.25 16 L 15 16 L 15 12 L 14 12 L 14 11 C 14 10 13.5 9 12 9 z M 12 10 C 12.5 10 13 10 13 11.375 L 13 12 L 11 12 L 11 11.375 C 11 10 11.51912 10 12 10 z"/>
</svg>
