<svg xmlns="http://www.w3.org/2000/svg" width="16" height="16" version="1">
 <path style="fill:#31363b" d="M 8 1 A 7 7 0 0 0 1 8 A 7 7 0 0 0 8 15 A 7 7 0 0 0 15 8 A 7 7 0 0 0 8 1 z M 5 3 C 6.6 4.2 10.298967 4.201999 12 4.5 C 10.821221 4.7616295 8.8828226 4.8157437 7.2304688 5.1523438 C 8.6561434 6.1680861 9.391453 6.2182015 11 6.5 C 9.287227 6.8801489 8.6393061 6.8421866 7.2109375 7.8613281 C 8.8952874 8.2286678 10.878459 8.3035192 12 8.5 C 10.196179 8.900357 6.6 8.8 5 10 L 6.5 10.199219 L 8 10 C 6.8 11.6 6.7980011 12.298967 6.5 14 C 6.0996432 12.196179 6.2 11.6 5 10 L 5.1992188 8.5 L 5 7 C 5.5052456 7.3789342 6.2285944 7.6313016 7.0234375 7.8183594 L 7.1992188 6.5 L 7.0273438 5.1992188 C 6.2334253 5.3758405 5.5105256 5.6171058 5 6 L 5.1992188 4.5 L 5 3 z M 9 10 L 10.5 10.199219 L 12 10 C 10.8 11.6 10.798001 12.298967 10.5 14 C 10.099643 12.196179 10.2 11.6 9 10 z"/>
</svg>
