<svg xmlns="http://www.w3.org/2000/svg" width="16" height="16" version="1.1">
 <defs>
  <style id="current-color-scheme" type="text/css">
   .ColorScheme-Text { color:#444444; } .ColorScheme-Highlight { color:#4285f4; } .ColorScheme-NeutralText { color:#ff9800; } .ColorScheme-PositiveText { color:#4caf50; } .ColorScheme-NegativeText { color:#f44336; }
  </style>
 </defs>
 <path style="fill:currentColor" class="ColorScheme-Text" d="M 1.7322049,1.0004459 C 1.6904289,0.99946323 1.6499769,1.0006785 1.609158,1.0023959 0.38457684,1.0543639 -0.42776326,2.32129 0.24001744,3.3715366 l 0.064453,0.064453 10.75000056,1.1816406 c 0.325127,0.028405 0.566809,0.2008028 0.699218,0.4316406 0.0012,0.00201 0.0028,0.00384 0.0039,0.00586 0.15448,0.2741254 0.153098,0.6292649 -0.05664,0.9316406 L 7.4275169,12.45943 6.8454859,13.268024 c -0.259018,0.311185 -0.7783925,0.310925 -0.9726561,-0.0625 l 0.5839841,0.996094 c 0.129509,0.18671 0.259163,0.311073 0.388672,0.435547 0.7123,0.560131 1.878147,0.498269 2.460938,-0.373047 L 15.71658,4.8676334 c 0.362248,-0.5064193 0.353066,-1.1089627 0.09766,-1.5957031 l 0.002,-0.00195 c -0.006,-0.011379 -0.01329,-0.021953 -0.01953,-0.033203 -0.0061,-0.011004 -0.01121,-0.022328 -0.01758,-0.033203 -0.0052,-0.00888 -0.01175,-0.016946 -0.01758,-0.025391 C 15.502586,2.7538592 15.050076,2.4344561 14.486111,2.377399 L 1.859158,1.0082584 C 1.816663,1.0043684 1.773981,1.0014284 1.7322049,1.0004484 Z M 0.88845494,4.5063053 5.5486111,12.639118 C 6.1327387,12.544728 6.241801,12.393826 6.603299,11.891071 l 4.160156,-6.2988282 z"/>
</svg>
