<svg xmlns="http://www.w3.org/2000/svg" width="24" height="24" version="1.1">
 <circle style="fill:#252a35" cx="12" cy="12" r="10"/>
 <path style="fill:#ffffff" d="m 10.5,5 0,1.709961 A 5.5000005,5.5000005 0 0 0 9.324219,7.2021485 L 8.111328,5.989258 5.989258,8.111328 7.199219,9.321289 A 5.5000005,5.5000005 0 0 0 6.713867,10.5 L 5,10.5 l 0,3 1.709961,0 a 5.5000005,5.5000005 0 0 0 0.4921875,1.175781 l -1.2128905,1.212891 2.12207,2.12207 1.209961,-1.209961 A 5.5000005,5.5000005 0 0 0 10.5,17.286133 L 10.5,19 l 3,0 0,-1.709961 a 5.5000005,5.5000005 0 0 0 1.175781,-0.492188 l 1.212891,1.212891 2.12207,-2.12207 -1.209961,-1.209961 A 5.5000005,5.5000005 0 0 0 17.286133,13.5 L 19,13.5 l 0,-3 -1.709961,0 A 5.5000005,5.5000005 0 0 0 16.797851,9.324219 l 1.212891,-1.212891 -2.12207,-2.12207 -1.209961,1.209961 A 5.5000005,5.5000005 0 0 0 13.5,6.713867 L 13.5,5 10.5,5 Z M 12,9.5 A 2.5,2.5 0 0 1 14.5,12 2.5,2.5 0 0 1 12,14.5 2.5,2.5 0 0 1 9.5,12 2.5,2.5 0 0 1 12,9.5 Z"/>
</svg>
