<svg xmlns="http://www.w3.org/2000/svg" width="22" height="22" version="1">
 <rect style="opacity:0.2;paint-order:markers fill stroke" width="20" height="17" x="1" y="3.5" rx="1.065" ry="1.078"/>
 <rect style="fill:#ec4b02" width="18" height="2" x="2" y="2" rx=".641" ry=".693"/>
 <path style="opacity:0.2;fill:#ffffff;fill-rule:evenodd" d="M 2.640625,2 C 2.2857489,2 2,2.3085455 2,2.6923828 v 0.5 C 2,2.8085455 2.2857489,2.5 2.640625,2.5 h 16.71875 C 19.714251,2.5 20,2.8085455 20,3.1923828 v -0.5 C 20,2.3085455 19.714251,2 19.359375,2 Z"/>
 <rect style="fill:#959595;paint-order:markers fill stroke" width="20" height="17" x="1" y="3" rx="1.065" ry="1.078"/>
 <rect style="fill:#14232b;paint-order:markers fill stroke" width="16" height="13" x="3" y="5" rx="0" ry="0"/>
 <path style="opacity:0.2" d="m 10.091031,13.087639 -0.285194,0.691 C 10.572182,16.138447 10.572182,16.138447 11,18.197 c 0.427818,-2.058553 0.427818,-2.058553 1.194163,-4.418361 l -0.285194,-0.691 L 11,10.885282 Z"/>
 <path style="fill:#3c98fe" d="m 10.091031,12.587473 -0.285194,0.691 c 0.766345,2.359808 0.766345,2.359808 1.194163,4.418361 0.427818,-2.058553 0.427818,-2.058553 1.194163,-4.418361 l -0.285194,-0.691 L 11,10.385116 Z"/>
 <path style="opacity:0.2" d="m 10.078948,6.5 h 1.842104 L 16,16.5 H 14.289473 L 11,8.8623041 7.7105268,16.5 H 6 Z"/>
 <path style="fill:#ec7a02" d="m 10.078948,6 h 1.842104 L 16,16 H 14.289473 L 11,8.3623041 7.7105268,16 H 6 Z"/>
 <rect style="opacity:0.2" width="16" height=".5" x="3" y="5"/>
 <rect style="opacity:0.2;fill:#ffffff" width="16" height=".5" x="3" y="18"/>
 <path style="opacity:0.2;fill:#ffffff;fill-rule:evenodd;paint-order:markers fill stroke" d="M 2.0644531,3 C 1.4746543,3 1,3.4810699 1,4.078125 v 0.5 C 1,3.9810699 1.4746543,3.5 2.0644531,3.5 H 19.935547 C 20.525346,3.5 21,3.9810699 21,4.578125 v -0.5 C 21,3.4810699 20.525346,3 19.935547,3 Z"/>
 <path style="opacity:0.2;fill:#ffffff" d="m 11,10.384766 -0.909179,2.203125 -0.285157,0.69043 c 0.03859,0.118833 0.05596,0.173819 0.09082,0.28125 L 10.090821,13.087891 11,10.885742 l 0.90918,2.202149 0.194336,0.47168 c 0.03485,-0.107431 0.05223,-0.162417 0.09082,-0.28125 l -0.285156,-0.69043 z"/>
 <path style="opacity:0.2;fill:#ffffff" d="M 10.078125,6 6,16 h 0.203125 l 3.875,-9.5 h 1.84375 l 3.875,9.5 H 16 L 11.921875,6 Z"/>
</svg>
