<svg xmlns="http://www.w3.org/2000/svg" width="22" height="22" version="1">
 <rect style="opacity:0.2" width="20" height="20" x="1" y="1.5" rx="10" ry="10"/>
 <rect style="fill:#bb2612" width="20" height="20" x="1" y="1" rx="10" ry="10"/>
 <path style="opacity:0.2;fill:#ffffff" d="M 11,1 C 5.46,1 1,5.46 1,11 1,11.08394 1.00382,11.166571 1.00586,11.25 1.1381952,5.8269315 5.543937,1.5 11,1.5 c 5.456063,0 9.861805,4.3269315 9.99414,9.75 C 20.996176,11.166571 21,11.083937 21,11 21,5.46 16.54,1 11,1 Z"/>
 <path style="opacity:0.2" d="m 15.5,3.400366 a 1.5,1.5 0 0 0 -1.5,1.5 1.5,1.5 0 0 0 1.5,1.5 1.5,1.5 0 0 0 1.5,-1.5 1.5,1.5 0 0 0 -1.5,-1.5 z m -3.302734,2 C 11.478324,5.442691 10.941554,5.9943123 10.316406,6.2948972 9.782025,6.6123332 9.348609,6.9309936 8.8085938,7.2382566 8.1621175,6.7702306 7.5822193,6.1966477 6.8886719,5.8027098 6.6146015,5.7233402 6.3319633,5.5834929 6.0527344,5.7187254 c -0.6658796,0.090274 -1.0915587,0.75836 -1.0566406,1.4199218 -0.01177,1.0188586 0.02163,2.0378488 0.033203,3.0566388 -0.601441,0.671005 -1.3363713,1.321405 -1.8652344,2.052734 -0.3799317,0.706946 -0.074956,1.698222 0.6679687,1.998047 0.5535643,0.301685 1.1211279,0.573974 1.6835938,0.857422 0.2932104,1.17534 0.5218318,2.370396 0.8496094,3.535156 0.3506275,0.8237 1.5302516,1.028976 2.1269531,0.373047 0.7746016,-0.869521 1.6757816,-2.693359 1.6757816,-2.693359 0,0 2.596288,0.506765 3.634765,0.474609 0.620671,-0.04299 1.139547,-0.555767 1.185547,-1.197266 0.116544,-0.876338 -0.617986,-1.496291 -1.021484,-2.175781 -0.500361,-0.7541 -1.043133,-1.477593 -1.53125,-2.240234 0.368847,-1.449441 0.854471,-2.8671457 1.138672,-4.3378888 0.0085,-0.6617534 -0.428831,-1.3370153 -1.103516,-1.4042968 -0.09073,-0.016195 -0.181089,-0.034514 -0.273437,-0.037109 z m 0.03516,1.0117188 c 0.02129,0.00318 0.01272,8.757e-4 0.0625,0.00977 l 0.03906,0.00586 0.03711,0.00391 c 0.0548,0.00546 0.165832,0.1742199 0.185547,0.3613281 -0.271011,1.3353138 -0.720375,2.6887361 -1.089844,4.1406231 l -0.107422,0.419922 0.234375,0.367187 c 0.515261,0.805052 1.06245,1.530701 1.541016,2.251954 0.259983,0.426253 0.537133,0.746227 0.691406,0.992187 0.16056,0.255984 0.188022,0.361944 0.169922,0.498047 l -0.0039,0.03125 -0.002,0.0293 c -0.01012,0.141117 -0.141017,0.253243 -0.251953,0.265625 -0.344785,0.0064 -1.240505,-0.09145 -1.986328,-0.208984 -0.758306,-0.1195 -1.390625,-0.244141 -1.390625,-0.244141 l -0.75,-0.146485 -0.339844,0.685547 c 0,0 -0.9499,1.818414 -1.5195309,2.462891 -0.082648,0.09085 -0.3827155,0.03636 -0.453125,-0.08984 -0.2961464,-1.076586 -0.5205077,-2.216262 -0.8125,-3.386718 L 6.375,14.415989 5.9667969,14.210911 c -0.5733708,-0.288944 -1.1322148,-0.558158 -1.65625,-0.84375 l -0.050781,-0.02734 -0.052734,-0.02148 C 4.0903893,13.271251 3.9862149,12.924422 4.0527344,12.74802 4.4916148,12.168684 5.144574,11.564854 5.7734375,10.863255 l 0.2597656,-0.291016 -0.00391,-0.388672 C 6.0175647,9.150429 5.9846658,8.1396069 5.9960938,7.150366 V 7.117163 l -0.00195,-0.03125 C 5.9836338,6.8867835 6.113762,6.7206453 6.1855501,6.710913 L 6.34375,6.6894285 6.35352,6.6855185 c 0.018251,0.00574 0.063733,0.018524 0.097656,0.029297 0.5241226,0.310849 1.0638157,0.8216637 1.7714802,1.333988 L 8.7441406,8.4257566 9.302734,8.1073972 C 9.900972,7.7670063 10.342077,7.4429974 10.828125,7.1542722 11.582548,6.775818 12.00399,6.435781 12.232422,6.4120848 Z"/>
 <path style="fill:#ffffff" d="M 12.197266,5 C 11.478324,5.042325 10.941554,5.5939462 10.316406,5.8945312 9.782025,6.2119672 9.348609,6.5306276 8.8085938,6.8378906 8.1621175,6.3698646 7.5822193,5.7962818 6.8886719,5.4023438 6.6146015,5.3229742 6.3319633,5.1831269 6.0527344,5.3183594 5.3868548,5.4086329 4.9611757,6.0767193 4.9960938,6.7382812 c -0.01177,1.0188586 0.02163,2.0378493 0.033203,3.0566408 -0.601441,0.671005 -1.3363713,1.321405 -1.8652344,2.052734 -0.3799317,0.706946 -0.074956,1.698222 0.6679687,1.998047 0.5535643,0.301685 1.1211279,0.573974 1.6835938,0.857422 0.2932104,1.17534 0.5218318,2.370396 0.8496094,3.535156 0.3506275,0.8237 1.5302516,1.028976 2.1269531,0.373047 0.7746016,-0.869521 1.6757816,-2.693359 1.6757816,-2.693359 0,0 2.596288,0.506765 3.634765,0.474609 0.620671,-0.04299 1.139547,-0.555767 1.185547,-1.197266 0.116544,-0.876338 -0.617986,-1.496291 -1.021484,-2.175781 -0.500361,-0.7541 -1.043133,-1.477593 -1.53125,-2.240234 C 12.804394,9.329856 13.290018,7.9121493 13.574219,6.4414062 13.582719,5.7796528 13.145388,5.1043909 12.470703,5.0371094 12.379973,5.0209144 12.289614,5.002595 12.197266,5 Z m 0.03516,1.0117188 c 0.02129,0.00318 0.01272,8.757e-4 0.0625,0.00977 l 0.03906,0.00586 0.03711,0.00391 c 0.0548,0.00546 0.165832,0.1742199 0.185547,0.3613281 -0.271011,1.3353138 -0.720375,2.6887381 -1.089844,4.1406251 l -0.107422,0.419922 0.234375,0.367187 c 0.515261,0.805052 1.06245,1.530701 1.541016,2.251954 0.259983,0.426253 0.537133,0.746227 0.691406,0.992187 0.16056,0.255984 0.188022,0.361944 0.169922,0.498047 l -0.0039,0.03125 -0.002,0.0293 c -0.01012,0.141117 -0.141017,0.253243 -0.251953,0.265625 -0.344785,0.0064 -1.240505,-0.09145 -1.986328,-0.208984 -0.758306,-0.1195 -1.390625,-0.244141 -1.390625,-0.244141 l -0.75,-0.146485 -0.339844,0.685547 c 0,0 -0.9499,1.818414 -1.5195309,2.462891 -0.082648,0.09085 -0.3827155,0.03636 -0.453125,-0.08984 -0.2961464,-1.076586 -0.5205077,-2.216262 -0.8125,-3.386718 L 6.375,14.015625 5.9667969,13.810547 c -0.5733708,-0.288944 -1.1322148,-0.558158 -1.65625,-0.84375 l -0.050781,-0.02734 -0.052734,-0.02148 C 4.0903893,12.870887 3.9862149,12.524058 4.0527344,12.347656 4.4916148,11.76832 5.144574,11.16449 5.7734375,10.462891 L 6.0332031,10.171875 6.0292931,9.783203 C 6.0175647,8.7500637 5.9846658,7.7392409 5.9960938,6.75 V 6.716797 l -0.00195,-0.03125 c -0.01051,-0.1991295 0.1196182,-0.3652677 0.1914063,-0.375 l 0.1582031,-0.021484 0.00977,-0.00391 c 0.018251,0.00574 0.063733,0.018524 0.097656,0.029297 0.5241267,0.3108454 1.0638197,0.8216601 1.7714843,1.3339844 L 8.7441406,8.0253906 9.302734,7.7070312 C 9.900972,7.3666402 10.342077,7.0426314 10.828125,6.7539062 11.582548,6.375452 12.00399,6.035415 12.232422,6.0117188 Z"/>
 <circle style="fill:#ffffff" cx="15.5" cy="4.5" r="1.5"/>
</svg>
