<svg width="22" height="22" version="1.1" xmlns="http://www.w3.org/2000/svg">
 <path d="m6.5003596 6.995096-2 7c-0.843501 2.952251-2.232777 5.067228-3 6-0.59949895 0.728857-0.61209395 1.396087 0 1.5 0.531649 0.09026 1.5-0.5 1.5-0.5s2.742806-2.513819 4-5.5c1.404907-3.337039 4.0000004-3.5 4.0000004-3.5s2.595093 0.162961 4 3.5c1.257194 2.98618 4 5.5 4 5.5s0.968351 0.590256 1.5 0.5c0.612094-0.103913 0.5995-0.771143 0-1.5-0.767223-0.932772-2.1565-3.047749-3-6l-2-7c-1.673792-5.8582736-4.5-5.495697-4.5-5.495697s-2.8566924-0.2558833-4.5000004 5.495697z" style="opacity:.2"/>
 <path d="m6.5 6.4953892-2 6.9999998c-0.843501 2.952251-2.232777 5.067229-3 6.000001-0.599499 0.728857-0.612094 1.396087 0 1.5 0.531649 0.09026 1.5-0.5 1.5-0.5s2.742806-2.513819 4-5.500001c1.404907-3.337039 4-3.5 4-3.5s2.595093 0.162961 4 3.5c1.257194 2.986181 4 5.500001 4 5.500001s0.968351 0.590256 1.5 0.5c0.612094-0.103913 0.5995-0.771143 0-1.5-0.767223-0.932772-2.1565-3.04775-3-6.000001l-2-6.9999998c-1.673792-5.8582736-4.5-5.495697-4.5-5.495697s-2.856692-0.2558833-4.5 5.495697z" style="fill:#4587f3"/>
 <path d="m9.5 1.4992954c-0.942386 0.6148538-2.137812 1.978435-3 4.9960938 2.39936-2.239729 4.4941-2.000681 4.5-2-0.329702-0.1510044-1.245376-1.8391629-1.5-2.9960938z" style="fill:#34a853"/>
 <path d="m10.931641 0.9973423c-0.242564 0.00255-1.107366 0.083145-2.085938 1.0273438 0.254072 1.1573535 1.824741 2.323152 2.154297 2.4726562-1.267068-1.7868873-0.07344-3.406643-0.0039-3.4980469-0.0077-5.371e-4 -0.0298-0.00232-0.06445-0.00195z" style="fill:#ffce41"/>
 <path d="m11.119141 0.9953892c-0.07664-0.00114-0.119141 0.00391-0.119141 0.00391s0.0021-0.00376 0-0.00391c-0.06956 0.09135-1.26688 1.7131987 0 3.5 2.149585 0.9750568 3.659672 1.5356312 4.875 3.3085938l-0.375-1.30859c-0.04368-0.1501693-0.08686-0.2960706-0.130859-0.4394531-1.475201-4.7245987-3.713498-5.0525963-4.25-5.0605469z" style="fill:#e7453c"/>
 <path d="m11.119141 0.9955547c-0.07658-0.00113-0.119067 0.0039-0.119141 0.00391-0.0088 0.011656-0.03325 0.041863-0.06641 0.091797 0.03149-0.04769 0.05465-0.081477 0.0625-0.091797-0.0077-5.37e-4 -0.0298-0.00232-0.06445-0.00195-0.186365 0.00196-0.74127 0.053531-1.431641 0.5039063v-0.00195c-0.06022 0.039292-0.123411 0.089123-0.185547 0.1347657-0.03991 0.029341-0.07855 0.053815-0.119141 0.085937-0.114446 0.090452-0.230936 0.1902074-0.349608 0.3046779-0.799304 0.7710032-1.673681 2.1186245-2.345703 4.4707031 0.0713-0.0665611 0.142171-0.1311064 0.21289-0.1933594 1.66505-5.0375283 4.28711-4.8027344 4.28711-4.8027344s2.826208-0.3621798 4.5 5.4960938l0.136719 0.4804688c5.8e-4 7.511e-4 0.0014 0.0012 2e-3 0.00195 0.08028 0.1039577 0.158552 0.21271 0.236328 0.3261719l-0.375047-1.3085907c-0.04368-0.1501693-0.08686-0.2960706-0.130859-0.4394531-1.475201-4.7245987-3.713498-5.0525963-4.25-5.0605469z" style="fill:#ffffff;opacity:.2"/>
</svg>
