<svg xmlns="http://www.w3.org/2000/svg" width="22" height="22" version="1.1" viewBox="0 0 22 22">
 <g transform="translate(0,-1030.3622)">
  <path style="opacity:0.2" d="m 10.500012,1031.8633 c -5.77471,0 -10.50000015,4.7228 -10.50000003,10.498 l 0,0.012 c 0.00352,0.5837 0,1.2492 0,1.8223 l 0,0.01 c 0.010667,2.7427 1.76445023,4.6267 3.26171883,5.5215 1.4589689,0.8722 2.8771338,1.1007 2.8828124,1.1016 1.5063448,0.2618 2.8564068,-1.0063 2.8554688,-2.4297 l 0,-8.0684 c 1.22e-4,-1.0897 -0.8478285,-1.9418 -1.9199219,-2.2246 0.9384328,-0.7553 2.1080089,-1.2402 3.4199219,-1.2402 1.313878,0 2.484771,0.4868 3.423828,1.2441 -1.080188,0.2814 -1.923948,1.1354 -1.923828,2.2207 l 0,8.0684 c -9.36e-4,1.4234 1.349123,2.6915 2.855469,2.4297 6.77e-4,-10e-5 0.0013,10e-5 0.002,0 0.0074,0 1.422753,-0.2299 2.880859,-1.1016 1.49725,-0.8948 3.251108,-2.7807 3.261719,-5.5234 l 0,-0.01 c 0,-0.5731 -0.0035,-1.2384 0,-1.8223 l 0,-0.012 c 0,-5.7751 -4.725262,-10.498 -10.5,-10.498 z"/>
  <path style="fill:#0093b8" d="m 10.500012,1031.3633 c -5.77471,0 -10.50000015,4.7228 -10.50000003,10.498 l 0,0.012 c 0.00352,0.5837 0,1.2492 0,1.8223 l 0,0.01 c 0.010667,2.7427 1.76445023,4.6267 3.26171883,5.5215 1.4589689,0.8722 2.8771338,1.1007 2.8828124,1.1016 1.5063448,0.2618 2.8564068,-1.0063 2.8554688,-2.4297 l 0,-8.0684 c 1.22e-4,-1.0897 -0.8478285,-1.9418 -1.9199219,-2.2246 0.9384328,-0.7553 2.1080089,-1.2402 3.4199219,-1.2402 1.313878,0 2.484771,0.4868 3.423828,1.2441 -1.080188,0.2814 -1.923948,1.1354 -1.923828,2.2207 l 0,8.0684 c -9.36e-4,1.4234 1.349123,2.6915 2.855469,2.4297 6.77e-4,-10e-5 0.0013,10e-5 0.002,0 0.0074,0 1.422753,-0.2299 2.880859,-1.1016 1.49725,-0.8948 3.251108,-2.7807 3.261719,-5.5234 l 0,-0.01 c 0,-0.5731 -0.0035,-1.2384 0,-1.8223 l 0,-0.012 c 0,-5.7751 -4.725262,-10.498 -10.5,-10.498 z"/>
  <path style="opacity:0.2" d="m 10.500012,1033.8622 c -4.6944204,0 -8.5000001,3.8035 -8.5,8.4978 0.00362,0.6006 0,1.2693 0,1.8339 0.00754,1.9386 1.1813939,3.1535 2.2871094,3.8143 1.1057149,0.661 2.1992187,0.8476 2.1992187,0.8476 0.2690573,0.047 0.5138612,-0.1716 0.5136719,-0.4589 l 0,-8.07 c 2.94e-5,-0.2617 -0.2048375,-0.4719 -0.453125,-0.4649 -0.00846,-2e-4 -0.016929,-2e-4 -0.025391,0 0,0 -1.1034871,0.096 -2.2207032,0.6699 -0.4267358,0.2194 -0.8627518,0.5248 -1.2402343,0.9238 0.4479551,-3.714 3.6044637,-6.5935 7.4394535,-6.5935 3.834989,0 6.991498,2.8794 7.439453,6.5935 -0.377482,-0.3991 -0.813498,-0.7044 -1.240234,-0.9238 -1.117216,-0.5739 -2.220703,-0.6699 -2.220703,-0.6699 -0.0085,-3e-4 -0.01689,-3e-4 -0.02539,0 -0.248287,-0.01 -0.453154,0.2033 -0.453125,0.4649 l 0,8.07 c -1.89e-4,0.2873 0.244615,0.5059 0.513672,0.4589 0,0 1.093504,-0.1866 2.199219,-0.8476 1.105715,-0.6608 2.279609,-1.8757 2.287109,-3.8143 0,-0.5646 -0.0036,-1.2332 0,-1.8339 0,-4.6942 -3.80558,-8.4978 -8.5,-8.4978 z"/>
  <path style="fill:#ffffff" d="m 10.500012,1033.3627 c -4.6944204,0 -8.5000001,3.8035 -8.5,8.4978 0.00362,0.6006 0,1.2693 0,1.8339 0.00754,1.9386 1.1813939,3.1535 2.2871094,3.8143 1.1057149,0.661 2.1992187,0.8476 2.1992187,0.8476 0.2690573,0.047 0.5138612,-0.1716 0.5136719,-0.4589 l 0,-8.07 c 2.94e-5,-0.2617 -0.2048375,-0.4719 -0.453125,-0.4649 -0.00846,-2e-4 -0.016929,-2e-4 -0.025391,0 0,0 -1.1034871,0.096 -2.2207032,0.6699 -0.4267358,0.2194 -0.8627518,0.5248 -1.2402343,0.9238 0.4479551,-3.714 3.6044637,-6.5935 7.4394535,-6.5935 3.834989,0 6.991498,2.8794 7.439453,6.5935 -0.377482,-0.3991 -0.813498,-0.7044 -1.240234,-0.9238 -1.117216,-0.5739 -2.220703,-0.6699 -2.220703,-0.6699 -0.0085,-3e-4 -0.01689,-3e-4 -0.02539,0 -0.248287,-0.01 -0.453154,0.2033 -0.453125,0.4649 l 0,8.07 c -1.89e-4,0.2873 0.244615,0.5059 0.513672,0.4589 0,0 1.093504,-0.1866 2.199219,-0.8476 1.105715,-0.6608 2.279609,-1.8757 2.287109,-3.8143 0,-0.5646 -0.0036,-1.2332 0,-1.8339 0,-4.6942 -3.80558,-8.4978 -8.5,-8.4978 z"/>
  <path style="opacity:0.2;fill:#ffffff" d="m 10.500012,1031.3622 0,0 c -5.77471,0 -10.50000015,4.7228 -10.50000003,10.498 l 0,0.012 c 9.432e-4,0.1564 -1.3543e-4,0.3235 0,0.4883 -1.2e-7,-5.7752 4.72529003,-10.498 10.50000003,-10.498 l 0,-0 c 5.774738,0 10.5,4.7229 10.5,10.498 1.35e-4,-0.1648 -9.38e-4,-0.3318 0,-0.4882 l 0,-0.012 c 0,-5.7751 -4.725262,-10.498 -10.5,-10.498 z m -2.9453125,6.418 c -0.1604755,0.1055 -0.3254554,0.2061 -0.4746094,0.3261 1.0720934,0.2828 1.9200439,1.135 1.9199219,2.2247 l 0,-0.5 c 1.03e-4,-0.9218 -0.6094862,-1.6698 -1.4453125,-2.0508 z m 5.8925785,0 c -0.840413,0.3803 -1.447368,1.1304 -1.447266,2.0489 l 0,0.5 c -1.2e-4,-1.0853 0.84364,-1.9394 1.923828,-2.2208 -0.149957,-0.1209 -0.315143,-0.2218 -0.476562,-0.3281 z"/>
 </g>
</svg>
