<svg xmlns="http://www.w3.org/2000/svg" width="22" height="22" version="1.1">
 <rect style="opacity:0.2" width="17" height="17" x="3" y="2.5" rx=".85" ry=".85"/>
 <rect style="fill:#f44336" width="17" height="17" x="3" y="2" rx=".85" ry=".85"/>
 <path style="opacity:0.2" d="M 5.4472656,4.5000005 0.5,17.5 H 3.9628906 L 4.8125,15.5 h 5.384766 L 11,17.412109 V 17.5 H 11.037109 14.5 22 v -3 H 15.832031 L 22,6.5292974 V 4.5000005 H 11 v 3 h 6.171875 L 12.828125,13.109375 9.552734,4.5000005 Z M 7.5039062,7.5468755 9.330078,12.5 H 5.6699219 Z"/>
 <path style="fill:#ffffff" d="M 10.197125,15 H 4.811821 L 3.9619808,17 H 0.5 L 5.446965,4.0000005 h 4.10607 L 14.5,17 H 11.038019 Z M 5.670607,12 H 9.329393 L 7.5044735,7.0475555 Z"/>
 <path style="fill:#ffffff" d="m 11,4.0000005 h 11 v 2.028801 L 15.833,14 H 22 v 3 H 11 V 14.971198 L 17.172,7.0000005 H 11 Z"/>
 <path style="opacity:0.2;fill:#ffffff" d="M 3.8496094,2.0000005 C 3.3787094,2.0000005 3,2.3787099 3,2.8496099 v 0.5 C 3,2.8787099 3.3787094,2.5000005 3.8496094,2.5000005 H 19.150391 C 19.621291,2.5000005 20,2.8787099 20,3.3496099 v -0.5 c 0,-0.4709 -0.378709,-0.8496094 -0.849609,-0.8496094 z"/>
</svg>
