<svg width="22" height="22" version="1.1" viewBox="0 0 22 22" xmlns="http://www.w3.org/2000/svg">
 <path d="m11.000001 1.1754384c-2.9999999 0.885722-6.0000002 1.774467-9.0000002 2.662456 0.21975 6.5922816 1.89825 14.633308 9.0000002 16.986668 7.177498-2.282321 8.695499-10.465425 8.999998-16.986668-2.999997-0.888745-5.999997-1.77749-8.999998-2.662456zm0 1.511471c2.538751 0.748933 5.077501 1.500135 7.615499 2.252092-0.257997 5.5176256-1.542748 12.44243-7.615499 14.37409-6.0075002-1.991363-7.4295002-8.796005-7.6155002-14.37409 2.53875-0.751202 5.0775014-1.503159 7.6155002-2.252092z" style="fill-rule:evenodd;opacity:.2"/>
 <path d="m11 1.5384609c-2.7689994 0.853116-5.5387497 1.708595-8.3099996 2.564077 0.2024999 6.3471161 1.7519999 14.092962 8.3099996 16.359001 6.625502-2.198232 8.0265-10.078905 8.31-16.359001-2.768998-0.856269-5.538749-1.71175-8.31-2.564077" style="fill-rule:evenodd;fill:#e6e6e6"/>
 <path d="m10.999999 1.5384609-2.2499988 0.788462 1.4999998 2.365384v3.153847h-4.5000001l-3-1.576924v2.365385l0.749999 2.3653841 2.250001-1.5769221h4.5000001v7.8846161l-1.4999998 2.365384 2.2499988 0.788462 2.250002-0.788462-1.500001-2.365384v-7.8846161h4.5l2.249999 1.5769221 0.750001-2.3653841v-2.365385l-3 1.576924h-4.500001v-3.153847l1.500001-2.365384z" style="fill:#e04a4a"/>
 <path d="m11 0.74999991c-2.9999989 0.92407699-6.0000002 1.851307-9.0000002 2.77775 0.2197501 6.8777501 1.8982501 15.266981 9.0000002 17.72225 7.1775-2.381154 8.6955-10.918616 9-17.72225-2.999999-0.927231-5.999999-1.854462-9-2.77775zm0 1.576923c2.538751 0.781366 5.077501 1.565095 7.6155 2.349615-0.258 5.7565571-1.542749 12.981231-7.6155 14.996539-6.0075002-2.077596-7.4295001-9.176904-7.6155001-14.996539 2.538751-0.783731 5.0775003-1.568249 7.6155001-2.349615z" style="fill-rule:evenodd;fill:#d3b06b"/>
 <path d="m11 0.74999991c-2.9999988 0.92407699-6.0000001 1.851267-9.0000001 2.77771 0.0038 0.118879 0.01148 0.241321 0.01617 0.361066 2.994609-0.924781 5.9892223-1.850289 8.9838291-2.772705 2.993191 0.921193 5.98642 1.84615 8.979609 2.771275 6e-3 -0.119181 0.0151-0.24146 0.02039-0.359636-2.999998-0.927231-5.999999-1.854422-8.999998-2.77771z" style="fill-rule:evenodd;fill:#ffffff;opacity:.2"/>
</svg>
