<svg xmlns="http://www.w3.org/2000/svg" width="22" height="22" version="1">
 <g transform="translate(-1,-1)">
  <path fill="#ffffff" d="M 16.291,16.1 A 4.5344,5.1675 0 0 1 11.756,21.268 4.5344,5.1675 0 0 1 7.2216,16.1 4.5344,5.1675 0 0 1 11.756,10.932 4.5344,5.1675 0 0 1 16.291,16.1 Z"/>
  <path style="opacity:0.2" d="M 12,3.5 2,22.5 H 22 Z M 12.977,13.004 13.605,19.121 8.3535,17.006 Z"/>
  <path style="fill:#4a86d8" d="M 12,3 12.98,12.5 13,8 Z M 2,22 6,20 8.3487,16.507 Z M 2,22 12,3 12.98,12.5 Z"/>
  <path style="fill:#dd3c3d" d="M 22,22 16,21 13.61,18.65 Z M 12,3 22,22 13.61,18.65 Z"/>
  <path style="fill:#339c33" d="M 22,22 H 2 L 8.34,16.5 Z"/>
  <path style="opacity:0.2;fill:#ffffff" d="M 12,3 2,22 H 2.2637 L 12,3.5 21.736,22 H 22 Z M 8.748,16.664 8.3535,17.006 13.605,19.121 13.553,18.6 Z"/>
 </g>
</svg>
