<svg xmlns="http://www.w3.org/2000/svg" width="22" height="22" version="1">
 <rect fill="#4f4f4f" width="20" height="20" x="-21" y="-21" rx="10" ry="10" transform="matrix(0,-1,-1,0,0,0)"/>
 <g opacity=".2" transform="translate(-.99911 -.5)">
  <path d="m17.396 9.2012a9 9 0 0 1 0.0039 0.099609 9 9 0 0 1 -0.496 2.9162 2 2 0 0 1 1.096 1.783 2 2 0 0 1 -2 2 2 2 0 0 1 -1.1895 -0.39453 9 9 0 0 1 -2.4199 1.7559l-0.0332 0.05469a5 5 0 0 0 3.642 1.584 5 5 0 0 0 5 -5 5 5 0 0 0 -3.604 -4.7988z"/>
  <path d="m6.6094 9.2012a5 5 0 0 0 -3.6094 4.7988 5 5 0 0 0 5 5 5 5 0 0 0 3.609 -1.545 9 9 0 0 1 -2.482 -1.805 2 2 0 0 1 -1.127 0.35 2 2 0 0 1 -2 -2 2 2 0 0 1 1.0684 -1.77 9 9 0 0 1 -0.4688 -2.8296 9 9 0 0 1 0.0098 -0.1992z"/>
  <path d="m12 3a5 5 0 0 0 -5 5 5 5 0 0 0 0.0938 0.959 9 9 0 0 1 2.9262 -1.2266 2 2 0 0 1 1.98 -1.7324 2 2 0 0 1 1.979 1.7285 9 9 0 0 1 2.921 1.2324 5 5 0 0 0 0.1 -0.9609 5 5 0 0 0 -5 -5z"/>
  <circle cx="8" cy="14" r="1"/>
  <circle cx="12" cy="8" r="1"/>
  <circle cx="16" cy="14" r="1"/>
 </g>
 <path fill="#fff" opacity=".1" d="m11.001 1c-5.5401 0-10 4.46-10 10 0 0.084-0.002 0.1665 0 0.25 0.1322-5.423 4.544-9.75 10-9.75s9.868 4.327 10 9.75c0.002-0.0835 0-0.166 0-0.25 0-5.54-4.46-10-10-10z"/>
 <path opacity=".2" d="m1.0067 11.25c-0.00205 0.0835-0.00585 0.166-0.00585 0.25 0 5.54 4.46 10 10 10s10-4.46 10-10c0-0.084-0.004-0.1665-0.006-0.25-0.132 5.423-4.538 9.75-9.994 9.75s-9.862-4.327-9.994-9.75z"/>
 <path fill="#9d9d9d" d="m16.397 8.2012a9 9 0 0 1 0.0039 0.099609 9 9 0 0 1 -0.496 2.9162 2 2 0 0 1 1.096 1.783 2 2 0 0 1 -2 2 2 2 0 0 1 -1.1895 -0.39453 9 9 0 0 1 -2.4199 1.7559l-0.0332 0.05469a5 5 0 0 0 3.642 1.584 5 5 0 0 0 5 -5 5 5 0 0 0 -3.6035 -4.7988z"/>
 <path fill="#9d9d9d" d="m5.6103 8.2012a5 5 0 0 0 -3.6094 4.7988 5 5 0 0 0 5 5 5 5 0 0 0 3.6091 -1.545 9 9 0 0 1 -2.4822 -1.805 2 2 0 0 1 -1.1269 0.35 2 2 0 0 1 -2 -2 2 2 0 0 1 1.0684 -1.7695 9 9 0 0 1 -0.46875 -2.8301 9 9 0 0 1 0.00977 -0.19922z"/>
 <path fill="#9d9d9d" d="m11.001 2a5 5 0 0 0 -5.0001 5 5 5 0 0 0 0.0937 0.959 9 9 0 0 1 2.9258 -1.2266 2 2 0 0 1 1.9806 -1.7324 2 2 0 0 1 1.978 1.7285 9 9 0 0 1 2.922 1.2324 5 5 0 0 0 0.1 -0.9609 5 5 0 0 0 -5 -5z"/>
 <circle fill="#eb9595" cx="7.001" cy="13" r="1"/>
 <circle fill="#a5e98c" cx="11.001" cy="7" r="1"/>
 <circle fill="#8ccde4" cx="15.001" cy="13" r="1"/>
</svg>
