<svg xmlns="http://www.w3.org/2000/svg" width="22" height="22" version="1.1">
 <defs>
  <clipPath id="clipPath5578" clipPathUnits="userSpaceOnUse">
   <rect style="fill:#ff0000" width="18.386" height="7.358" x="-51.77" y="43.34" rx=".448"/>
  </clipPath>
  <clipPath id="clipPath944" clipPathUnits="userSpaceOnUse">
   <rect style="fill:#3e3d40" width="9.216" height="7.363" x="-42.6" y="43.34" rx=".384"/>
  </clipPath>
  <clipPath id="clipPath1071" clipPathUnits="userSpaceOnUse">
   <rect style="fill:#3e3d40" width="7.352" height="7.363" x="-40.73" y="43.34" rx=".306"/>
  </clipPath>
 </defs>
 <g transform="matrix(0.34375,0,0,0.34375,1.1406478,-1.03868)">
  <rect style="opacity:0.2" width="56" height="45" x=".69" y="-58.03" rx="2.8" ry="2.813" transform="scale(1,-1)"/>
  <rect style="fill:#4f4f4f" width="56" height="45" x=".69" y="-57.03" rx="2.8" ry="2.813" transform="scale(1,-1)"/>
  <path style="opacity:0.1;fill:#ffffff" d="m 3.8469225,12.023001 c -1.939037,3.02e-4 -3.25811498,0.934625 -3.17976598,3.415181 l 0.03906,1.23666 c 0,-1.930426 1.59229198,-3.415181 3.53132898,-3.415181 H 53.238639 c 1.93903,0 3.43758,1.570693 3.46102,3.462056 l -0.0156,-1.916348 c 0.11739,-0.794731 -0.74074,-2.790482 -2.67977,-2.79018 z"/>
 </g>
 <g transform="matrix(0.65588284,0,0,0.65588284,55.675327,-7.51657)">
  <ellipse style="fill:#f5c211" cx="-71.55" cy="22.468" rx="4.861" ry="4.971"/>
  <ellipse style="fill:#c64600" cx="-77.185" cy="22.468" rx="4.861" ry="4.971"/>
  <ellipse style="opacity:0.5;fill:#f5c211" cx="-71.55" cy="22.468" rx="4.861" ry="4.971"/>
 </g>
 <g transform="matrix(0.82676048,0,0,0.82676048,47.045487,-24.578431)" clip-path="url(#clipPath1071)">
  <g>
   <rect style="fill:#808080" width="3.679" height="3.679" x="-37.06" y="47.02"/>
   <rect style="fill:#ececec" width="3.679" height="3.679" x="-40.73" y="47.02"/>
   <rect style="fill:#ececec" width="3.679" height="3.679" x="-37.06" y="43.34"/>
   <rect style="fill:#808080" width="3.679" height="3.679" x="-40.73" y="43.34"/>
  </g>
 </g>
 <g transform="matrix(0.34375,0,0,0.34375,0.98888482,0)">
  <rect style="opacity:0.2" width="57" height="6" x="4" y="-38.99" rx="1.425" ry="1.5" transform="rotate(90)"/>
  <rect style="fill:#f34235" width="57" height="6" x="3" y="-38.99" rx="1.425" ry="1.5" transform="rotate(90)"/>
 </g>
 <g transform="matrix(1.1842788,0,0,1.2096068,94.096147,-30.787917)">
  <rect style="fill:#ffffff" width="1.036" height="3.658" x="-76.2" y="34.75" rx=".272" ry="0"/>
  <rect style="fill:#ffffff" width="1.036" height="3.024" x="37.37" y="73.17" rx=".272" ry="0" transform="rotate(90)"/>
  <rect style="fill:#ffffff" width="1.036" height="3.002" x="-72.51" y="36.79" rx=".272" ry="0"/>
  <rect style="fill:#ffffff" width="1.036" height="4.011" x="-74.21" y="35.78" rx=".272" ry="0"/>
  <rect style="fill:#ffffff" width="1.036" height="3.048" x="38.75" y="69.46" rx=".272" ry="0" transform="rotate(90)"/>
  <rect style="fill:#ffffff" width="1.036" height="2.567" x="34.75" y="69.47" rx=".272" ry="0" transform="rotate(90)"/>
  <rect style="fill:#ffffff" width="1.036" height="3.002" x="-70.5" y="34.75" rx=".272" ry="0"/>
  <rect style="fill:#ffffff" width="1.036" height="3.036" x="36.79" y="69.47" rx=".272" ry="0" transform="rotate(90)"/>
 </g>
</svg>
