<svg width="22" height="22" version="1.1" xmlns="http://www.w3.org/2000/svg">
 <path d="m15 3.4998581a2 2 0 0 0-1.751953 1.0371094c-1.243061 0.080045-2.254781 0.3498302-3.119141 0.84375-1.0352906 0.5915949-1.8359372 1.4121094-2.8359372 2.4121094-0.923836 0.9238357-2.3865879 1.6698632-3.7304688 2.7402341-1.3438809 1.070371-2.5625 2.647886-2.5625 4.966797 0 0.75 0.3060474 1.447704 0.7636719 1.970703 0.4576244 0.522999 1.0483707 0.90149 1.7050781 1.193359 1.3134148 0.58374 2.9201389 0.835938 4.53125 0.835938 3.222222 0 5.471329-1.057266 6.707031-2.292969 0.617851-0.617851 0.953628-1.293249 1.220703-1.960937 0.267076-0.667689 0.496611-1.358457 0.966797-2.298828 0.410558-0.821115 1.388236-2.075889 2.269531-3.2089847 0.44065-0.5665478 0.857799-1.1080989 1.1875-1.6113281 0.329702-0.5032291 0.648438-0.8769531 0.648438-1.6269531 0-0.375-0.173615-0.761053-0.398438-1.0058594-0.224821-0.2448063-0.474074-0.3856525-0.722656-0.4921875-0.497163-0.2130699-1.031596-0.3032068-1.642578-0.3710937-0.449195-0.0499106-0.967487-0.0668168-1.480469-0.0859375a2 2 0 0 0-1.755859-1.0449219z" style="opacity:.2"/>
 <path d="m15 3a2 2 0 0 0-1.751953 1.0371094c-1.243061 0.0800448-2.254781 0.3498302-3.119141 0.84375-1.0352906 0.5915949-1.8359372 1.4121094-2.8359372 2.4121094-0.923836 0.9238357-2.3865879 1.6698632-3.7304688 2.7402342s-2.5625 2.647886-2.5625 4.966797c0 0.75 0.3060474 1.447704 0.7636719 1.970703 0.4576244 0.522999 1.0483707 0.90149 1.7050781 1.193359 1.3134148 0.58374 2.9201389 0.835938 4.53125 0.835938 3.222222 0 5.471329-1.057266 6.707031-2.292969 0.617851-0.617851 0.953628-1.293249 1.220703-1.960937 0.267076-0.667689 0.496611-1.358457 0.966797-2.298828 0.410558-0.821115 1.388236-2.075889 2.269531-3.2089848 0.44065-0.5665478 0.857799-1.1080989 1.1875-1.6113281 0.329702-0.5032291 0.648438-0.8769531 0.648438-1.6269531 0-0.375-0.173615-0.761053-0.398438-1.0058594-0.224821-0.2448063-0.474074-0.3856525-0.722656-0.4921875-0.497163-0.2130699-1.031596-0.3032068-1.642578-0.3710937-0.449195-0.0499106-0.967487-0.0668168-1.480469-0.0859375a2 2 0 0 0-1.755859-1.0449219z" style="fill:#38ac52"/>
 <path d="m20.662109 5.0917969c-0.80904 0.2154954-4.153455 1.1538762-7.662109 2.9082031-4.7713474 2.385674-8.2331415 6.805784-10.179688 9.824219 0.20788 0.123513 0.4221452 0.239269 0.6484375 0.339843 1.3134148 0.58374 2.9201389 0.835938 4.53125 0.835938 3.222222 0 5.471329-1.057266 6.707031-2.292969 0.617851-0.617851 0.953628-1.293249 1.220703-1.960937 0.267076-0.667689 0.496611-1.358457 0.966797-2.298828 0.410558-0.821115 1.388236-2.075889 2.269531-3.2089848 0.440651-0.5665478 0.857799-1.1080989 1.1875-1.6113281 0.329702-0.5032291 0.648438-0.8769531 0.648438-1.6269531 0-0.3348058-0.148222-0.6641649-0.337891-0.9082031z" style="fill:#d5bd80"/>
 <path d="m15 3a2 2 0 0 0-1.751953 1.0371094c-1.243061 0.080045-2.254781 0.3498302-3.119141 0.84375-1.0352904 0.5915949-1.8359372 1.4121094-2.8359372 2.4121094-0.923836 0.9238357-2.3865879 1.6698633-3.7304688 2.7402342-1.3438809 1.070371-2.5625 2.647886-2.5625 4.966797 0 0.067811 0.0146417 0.132353 0.0195312 0.199219 0.1025732-2.151381 1.2595292-3.643785 2.5429688-4.666016 1.3438809-1.0703708 2.8066328-1.8163986 3.7304688-2.7402342 1-1 1.8006468-1.8205145 2.8359372-2.4121094 0.86436-0.4939198 1.87608-0.763705 3.119141-0.84375a2 2 0 0 1 1.751953-1.0371094 2 2 0 0 1 1.755859 1.0449219c0.512982 0.0191207 1.031274 0.0360269 1.480469 0.0859375 0.610982 0.0678869 1.145415 0.1580238 1.642578 0.3710937 0.248582 0.106535 0.497835 0.2473812 0.722656 0.4921875 0.175258 0.1908352 0.316057 0.4674582 0.371094 0.7578125 0.0095-0.0835438 0.027344-0.1574793 0.027344-0.2519531 0-0.375-0.173615-0.761053-0.398438-1.0058594-0.224821-0.2448063-0.474074-0.3856525-0.722656-0.4921875-0.497163-0.2130699-1.031596-0.3032068-1.642578-0.3710937-0.449195-0.0499106-0.967487-0.0668168-1.480469-0.0859375a2 2 0 0 0-1.755859-1.0449219z" style="fill:#ffffff;opacity:.2"/>
 <path d="m14.029297 11.499858c-0.165127-0.0047-0.328857 0.03149-0.476563 0.105469l-2 1c-0.537974 0.269069-0.718423 0.948733-0.384765 1.449219l4 6c0.185472 0.278184 0.497687 0.445285 0.832031 0.445312h3s0.458752 0.01379 0.947266-0.230469c0.488514-0.244257 1.052734-0.936198 1.052734-1.769531s-0.56422-1.525274-1.052734-1.769531-0.947266-0.230469-0.947266-0.230469h-1.433594l-2.708984-4.513672c-0.175057-0.292712-0.487216-0.476032-0.828125-0.486328z" style="opacity:.2"/>
 <path d="m14.029297 11c-0.165127-0.0047-0.328857 0.03149-0.476563 0.105469l-2 1c-0.537974 0.269069-0.718423 0.948733-0.384765 1.449219l4 6c0.185472 0.278184 0.497687 0.445285 0.832031 0.445312h3s0.458752 0.01379 0.947266-0.230469c0.488514-0.244257 1.052734-0.936198 1.052734-1.769531s-0.56422-1.525274-1.052734-1.769531-0.947266-0.230469-0.947266-0.230469h-1.433594l-2.708984-4.513672c-0.175057-0.292712-0.487216-0.476032-0.828125-0.486328z" style="fill:#3fbf5b"/>
 <path d="m14.029297 11c-0.165127-0.0047-0.328857 0.03149-0.476563 0.105469l-2 1c-0.428449 0.21429-0.615902 0.685818-0.511718 1.123047 0.073379-0.259914 0.247872-0.491084 0.511718-0.623047l2-1c0.147706-0.073979 0.311436-0.110169 0.476563-0.105469 0.340909 0.010296 0.653068 0.193616 0.828125 0.486328l2.708984 4.513672h1.433594s0.458752-0.013788 0.947266 0.230469c0.437068 0.218534 0.911746 0.80364 1.011718 1.519531 0.011768-0.084265 0.041016-0.162241 0.041016-0.25 0-0.833333-0.56422-1.525274-1.052734-1.769531s-0.947266-0.230469-0.947266-0.230469h-1.433594l-2.708984-4.513672c-0.175057-0.292712-0.487216-0.476032-0.828125-0.486328z" style="fill:#ffffff;opacity:.2"/>
 <circle cx="15" cy="5.4998579" r="1" style="opacity:.1"/>
 <circle cx="15" cy="5" r="1" style="fill:#3f3f3f"/>
 <path d="m5 11.499858c-0.9722222 0-1.8231082 0.35907-2.4140625 0.90625s-0.9375198 1.234434-1.1601563 1.902344c-0.44527279 1.335818-0.4257812 2.691406-0.4257812 3.191406 0 1.166667 0.3072665 1.971329 0.7929688 2.457031 0.2428511 0.242851 0.5141338 0.387524 0.734375 0.460938 0.2202411 0.073413 0.4726562 0.082031 0.4726562 0.082031h9s0.458752 0.01379 0.947266-0.230469c0.488514-0.244257 1.052734-0.936198 1.052734-1.769531s-0.56422-1.525274-1.052734-1.769531-0.947266-0.230469-0.947266-0.230469h-2c0-0.5 0.03198-1.711132-0.6308594-2.871094-0.6628353-1.159962-2.1191406-2.128906-4.3691406-2.128906z" style="opacity:.2"/>
 <path d="M 5,11 C 4.0277778,11 3.1768918,11.35907 2.5859375,11.90625 1.9949832,12.45343 1.6484177,13.140684 1.4257812,13.808594 0.98050841,15.144412 1,16.5 1,17 c 0,1.166667 0.3072665,1.971329 0.7929688,2.457031 0.2428511,0.242851 0.5141338,0.387524 0.734375,0.460938 C 2.7475849,19.991382 3,20 3,20 h 9 c 0,0 0.458752,0.01379 0.947266,-0.230469 C 13.43578,19.525274 14,18.833333 14,18 14,17.166667 13.43578,16.474726 12.947266,16.230469 12.458752,15.986212 12,16 12,16 H 10 C 10,15.5 10.031976,14.288868 9.3691406,13.128906 8.7063053,11.968944 7.25,11 5,11 Z" style="fill:#5dca75"/>
 <path d="m5 11c-0.9722222 0-1.8231082 0.35907-2.4140625 0.90625s-0.9375197 1.234434-1.1601563 1.902344c-0.44527274 1.335818-0.4257812 2.691406-0.4257812 3.191406 0 0.063402 0.0099245 0.114511 0.0117188 0.175781 0.0024494-0.613493 0.025041-1.700123 0.4140624-2.867187 0.2226366-0.66791 0.569202-1.355164 1.1601563-1.902344s1.4418403-0.90625 2.4140625-0.90625c2.25 0 3.7063053 0.968944 4.3691406 2.128906 0.6628394 1.159962 0.6308594 2.371094 0.6308594 2.871094h2s0.458752-0.013788 0.947266 0.230469c0.437068 0.218534 0.911746 0.80364 1.011718 1.519531 0.011768-0.084265 0.041016-0.162241 0.041016-0.25 0-0.833333-0.56422-1.525274-1.052734-1.769531s-0.947266-0.230469-0.947266-0.230469h-2c0-0.5 0.031976-1.711132-0.6308594-2.871094-0.6628353-1.159962-2.1191406-2.128906-4.3691406-2.128906z" style="fill:#ffffff;opacity:.2"/>
</svg>
