<svg xmlns="http://www.w3.org/2000/svg" width="22" height="22" version="1.1">
 <path style="opacity:0.2" d="M 20.472727,3.5 H 2.5272727 C 1.6837791,3.5 1,4.1822286 1,5.0238094 V 17.97619 C 1,18.817714 1.6837791,19.5 2.5272727,19.5 H 20.472727 C 21.316164,19.5 22,18.817714 22,17.97619 V 5.0238094 C 22,4.1822286 21.316164,3.5 20.472727,3.5 Z"/>
 <path style="fill:#757575" d="M 20.472727,3 H 2.5272727 C 1.6837791,3 1,3.6822286 1,4.5238094 V 17.47619 C 1,18.317714 1.6837791,19 2.5272727,19 H 20.472727 C 21.316164,19 22,18.317714 22,17.47619 V 4.5238094 C 22,3.6822286 21.316164,3 20.472727,3 Z"/>
 <path style="fill:#4c4854" d="M 3,5 H 20 V 17 H 3 Z"/>
 <path style="fill:none;stroke:#616161;stroke-width:0.5" d="M 18.25,5 V 17"/>
 <path style="fill:none;stroke:#616161;stroke-width:0.5" d="M 16.25,5 V 17"/>
 <path style="fill:none;stroke:#616161;stroke-width:0.5" d="M 14.25,5 V 17"/>
 <path style="fill:none;stroke:#616161;stroke-width:0.5" d="M 10.25,5 V 17"/>
 <path style="fill:none;stroke:#616161;stroke-width:0.5" d="M 8.25,5 V 17"/>
 <path style="fill:none;stroke:#616161;stroke-width:0.5" d="M 6.25,5 V 17"/>
 <path style="fill:none;stroke:#616161;stroke-width:0.5" d="M 4.25,5 V 17"/>
 <path style="fill:none;stroke:#1fb9aa;stroke-width:0.5;stroke-linecap:round;stroke-linejoin:round" d="M 3,11.999999 4,11.3 H 6 L 7,9.000001 8,13 9,11.999999 10,14.000001 11,10 h 1 L 14,11.000001 15,8.3 17,10.8 18.999999,8.7 H 20"/>
 <path style="fill:none;stroke:#ffffff;stroke-width:0.5" d="M 12.25,5 V 17"/>
 <path style="opacity:0.2" d="M 12.000001,9.5 C 12.552344,9.5 13,9.947656 13,10.499999 13,11.052344 12.552344,11.5 12.000001,11.5 11.447656,11.5 11,11.052344 11,10.499999 11,9.947656 11.447656,9.5 12.000001,9.5 Z m 0,0"/>
 <path style="fill:#15fd91" d="M 12.000001,9 C 12.552344,9 13,9.447656 13,9.999999 13,10.552344 12.552344,11 12.000001,11 11.447656,11 11,10.552344 11,9.999999 11,9.447656 11.447656,9 12.000001,9 Z m 0,0"/>
 <rect style="opacity:0.2" width="17" height=".5" x="3" y="5"/>
 <path style="opacity:0.1;fill:#ffffff" d="M 2.5273438,3 C 1.6838502,3 1,3.6818567 1,4.5234375 v 0.5 C 1,4.1818567 1.6838502,3.5 2.5273438,3.5 H 20.472656 C 21.316093,3.5 22,4.1818567 22,5.0234375 v -0.5 C 22,3.6818567 21.316093,3 20.472656,3 Z"/>
</svg>
