<svg xmlns="http://www.w3.org/2000/svg" width="22" height="22" version="1">
 <rect style="opacity:0.2" width="18" height="18" x="-21.5" y="-21" rx=".9" ry=".9" transform="matrix(0,-1,-1,0,0,0)"/>
 <rect style="fill:#4f4f4f" width="18" height="18" x="-21" y="-21" rx=".9" ry=".9" transform="matrix(0,-1,-1,0,0,0)"/>
 <rect style="opacity:0.2" width="18" height="18" x="-19.5" y="-19" rx=".9" ry=".9" transform="matrix(0,-1,-1,0,0,0)"/>
 <rect style="fill:#2d50e6" width="18" height="18" x="-19" y="-19" rx=".9" ry=".9" transform="matrix(0,-1,-1,0,0,0)"/>
 <path style="opacity:0.1" d="M 18.43457,1.5654297 1.2626953,18.737304 C 1.1000203,18.574629 1,18.34891 1,18.099609 v 0.5 c 0,0.249301 0.1000203,0.47502 0.2626953,0.637695 L 18.737304,1.7626953 C 18.652006,1.6773961 18.548848,1.6108886 18.43457,1.5654297 Z"/>
 <path style="opacity:0.1;fill:#ffffff" d="M 1.9003906,1 C 1.4017906,1 1,1.4017907 1,1.9003906 V 18.099609 c 0,0.249301 0.1000203,0.47502 0.2626953,0.637695 L 18.737304,1.2626953 C 18.574629,1.1000203 18.34891,1 18.099609,1 Z"/>
 <path style="opacity:0.2" d="m 3,5.5 v 10 h 3 3 v -2 h 1 v -1 h 1 v -4 h -1 v -1 H 9 v -2 H 6 Z m 10,0 v 2 h 3 v -2 z m -7,2 h 2 v 1 h 1 v 4 H 8 v 1 H 6 Z m 7,1 v 5 h 1 v 2 h 3 v -2 h -1 v -5 z"/>
 <rect style="fill:#ffffff" width="3" height="10" x="3" y="5"/>
 <rect style="fill:#ffffff" width="3" height="2" x="6" y="5"/>
 <rect style="fill:#ffffff" width="2" height="1" x="8" y="7"/>
 <rect style="fill:#ffffff" width="3" height="2" x="6" y="13"/>
 <rect style="fill:#ffffff" width="2" height="1" x="8" y="12"/>
 <rect style="fill:#ffffff" width="2" height="4" x="9" y="8"/>
 <rect style="fill:#ffffff" width="3" height="5" x="13" y="8"/>
 <rect style="fill:#ffffff" width="3" height="2" x="14" y="13"/>
 <rect style="fill:#ffffff" width="3" height="2" x="13" y="5"/>
 <path style="opacity:0.1;fill:#ffffff" d="M 1.9003906,1 C 1.4017907,1 1,1.4017907 1,1.9003906 v 0.5 C 1,1.9017907 1.4017907,1.5 1.9003906,1.5 H 18.099609 C 18.598209,1.5 19,1.9017907 19,2.4003906 v -0.5 C 19,1.4017907 18.598209,1 18.099609,1 Z"/>
</svg>
