<svg xmlns="http://www.w3.org/2000/svg" width="22" height="22" version="1">
 <rect width="20" height="20" x="-21" y="-21" rx="1" ry="1" transform="matrix(0,-1,-1,0,0,0)" style="fill:#bc5ae7"/>
 <path d="m 6.4998612,7.9996031 -2e-6,4.4997179 c 0,1.130145 -0.7865685,1.518532 -1.4999035,1.500028 -0.6685015,0.0026 -1.4999077,-0.355661 -1.4999077,-1.500028 l 2e-6,-4.4997179" style="opacity:0.2;fill:none;stroke:#000000;stroke-linecap:round;stroke-linejoin:bevel"/>
 <path style="opacity:0.2;fill:#ffffff" d="M 1,2.5 1,2 C 1,1.446 1.446,1 2,1 l 18,0 c 0.554,0 1,0.446 1,1 l 0,0.5 c 0,-0.554 -0.446,-1 -1,-1 l -18,0 c -0.554,0 -1,0.446 -1,1 z"/>
 <path style="opacity:0.2" d="m 1,20 0,0.5 c 0,0.554 0.446,1 1,1 l 18,0 c 0.554,0 1,-0.446 1,-1 L 21,20 c 0,0.554 -0.446,1 -1,1 L 2,21 C 1.446,21 1,20.554 1,20 Z"/>
 <path style="fill:none;stroke:#ffffff;stroke-linecap:round;stroke-linejoin:bevel" d="m 6.4998612,7.4996079 -2e-6,4.4997171 c 0,1.130145 -0.7865685,1.518532 -1.4999035,1.500028 -0.6685015,0.0026 -1.4999077,-0.355661 -1.4999077,-1.500028 l 2e-6,-4.4997171"/>
 <path style="opacity:0.2;fill:none;stroke:#000000;stroke-linecap:round" d="m 11.506926,13.992801 -1.901642,-2.95302 m -1.0982074,-0.04691 c 0,0 2.9998494,0.338925 2.9998494,-1.499906 0,-1.8388325 -2.9998494,-1.499942 -2.9998494,-1.499942 m 7.35e-5,5.999856 0,-5.999782"/>
 <path d="m 11.506926,13.492805 -1.901642,-2.95302 m -1.0982074,-0.04691 c 0,0 2.9998494,0.338925 2.9998494,-1.4999062 0,-1.8388315 -2.9998494,-1.499941 -2.9998494,-1.499941 m 7.35e-5,5.9998552 0,-5.9997812" style="fill:none;stroke:#ffffff;stroke-linecap:round"/>
 <path style="opacity:0.2;fill:none;stroke:#000000;stroke-linecap:round;stroke-linejoin:round" d="m 18.5,13.992875 0,-5.999746 m -4.995707,0 L 16,10.999996 18.500001,7.993129 m -4.995707,5.999746 0,-5.999746"/>
 <path d="m 18.5,13.492879 0,-5.9997452 m -4.995707,0 L 16,10.5 18.500001,7.4931338 m -4.995707,5.9997452 0,-5.9997452" style="fill:none;stroke:#ffffff;stroke-linecap:round;stroke-linejoin:round"/>
</svg>
