<svg xmlns="http://www.w3.org/2000/svg" width="22" height="22" version="1.1" viewBox="0 0 22 22">
 <g transform="translate(0,-1030.3622)">
  <path style="opacity:0.2;isolation:isolate" stroke-miterlimit="3" d="m 0,1044.8622 c 0,-3.3115 4.7048923,-6 10.5,-6 5.795108,0 10.5,2.6885 10.5,6 0,3.3115 -4.704892,6 -10.5,6 -5.7951077,0 -10.5,-2.6885 -10.5,-6 z" vector-effect="non-scaling-stroke"/>
  <path stroke-miterlimit="3" d="m 0,1044.3622 c 0,-3.3115 4.7048923,-6 10.5,-6 5.795108,0 10.5,2.6885 10.5,6 0,3.3115 -4.704892,6 -10.5,6 -5.7951077,0 -10.5,-2.6885 -10.5,-6 z" vector-effect="non-scaling-stroke" style="isolation:isolate;fill:#3ca13c"/>
  <path d="m 20,1043.3078 c 0,3.0656 -4.256807,5.5544 -9.5,5.5544 -5.2431927,0 -9.5000005,-2.4888 -9.5000005,-5.5544 l 0,-4.9456 19.0000005,0 0,4.9456 z" style="opacity:0.2;isolation:isolate"/>
  <path style="isolation:isolate;fill:none" d="m 19.953737,1043.2921 c 0,3.0418 -4.236078,5.5114 -9.453737,5.5114 -5.2176592,0 -9.4537367,-2.4696 -9.4537367,-5.5114 l 0,-5.8453 18.9074737,0 0,5.8453 0,0 z"/>
  <path style="isolation:isolate;fill:#e4e4e4" d="m 20,1042.8078 c 0,3.0656 -4.256807,5.5544 -9.5,5.5544 -5.2431927,0 -9.5000005,-2.4888 -9.5000005,-5.5544 l 0,-4.9456 19.0000005,0 0,4.9456 z"/>
  <path stroke-miterlimit="3" d="m 0.9999995,1038.3622 c 0,-3.0355 4.2568078,-5.5 9.5000005,-5.5 5.243193,0 9.5,2.4645 9.5,5.5 0,3.0356 -4.256807,5.5 -9.5,5.5 -5.2431927,0 -9.5000005,-2.4644 -9.5000005,-5.5 z" vector-effect="non-scaling-stroke" style="opacity:0.1;isolation:isolate"/>
  <path style="isolation:isolate;fill:#f7f7f7" stroke-miterlimit="3" d="m 0.9999995,1037.8622 c 0,-3.0355 4.2568078,-5.5 9.5000005,-5.5 5.243193,0 9.5,2.4645 9.5,5.5 0,3.0356 -4.256807,5.5 -9.5,5.5 -5.2431927,0 -9.5000005,-2.4644 -9.5000005,-5.5 z" vector-effect="non-scaling-stroke"/>
  <rect style="isolation:isolate;fill:#3ca13c" width="11" height="2.139" x="5" y="1035.72"/>
  <path stroke-miterlimit="3" d="m 5.0000088,1037.864 c 0,-1.3788 2.464465,-2.4982 5.4999942,-2.4982 3.03553,0 5.499995,1.1194 5.499995,2.4982 0,1.3788 -2.464465,2.4982 -5.499995,2.4982 -3.0355292,0 -5.4999942,-1.1194 -5.4999942,-2.4982 z" vector-effect="non-scaling-stroke" style="isolation:isolate;fill:#3ca13c"/>
  <path stroke-miterlimit="3" d="m 5.0000088,1036.3622 c 0,-1.3798 2.464465,-2.5 5.4999942,-2.5 3.03553,0 5.499995,1.1202 5.499995,2.5 0,1.3799 -2.464465,2.5 -5.499995,2.5 -3.0355292,0 -5.4999942,-1.1201 -5.4999942,-2.5 z" vector-effect="non-scaling-stroke" style="opacity:0.2;isolation:isolate"/>
  <path style="isolation:isolate;fill:#4ccc4c" stroke-miterlimit="3" d="m 5.0000088,1035.8622 c 0,-1.3798 2.464465,-2.5 5.4999942,-2.5 3.03553,0 5.499995,1.1202 5.499995,2.5 0,1.3799 -2.464465,2.5 -5.499995,2.5 -3.0355292,0 -5.4999942,-1.1201 -5.4999942,-2.5 z" vector-effect="non-scaling-stroke"/>
  <path style="isolation:isolate;fill:none" stroke-miterlimit="3" d="m 5.0913408,1035.9583 c -0.01518,-0.071 -0.02294,-0.1421 -0.02294,-0.2144 0,-1.2797 2.4332571,-2.319 5.4303472,-2.319 2.997091,0 5.430348,1.0394 5.430348,2.319 0,0.1633 -0.03963,0.3228 -0.114987,0.4766" vector-effect="non-scaling-stroke"/>
  <path style="opacity:0.2;isolation:isolate;fill:#ffffff" d="m 10.5,1032.3622 c -5.2431927,0 -9.5,2.4645 -9.5,5.5 0,0.084 0.014986,0.1666 0.021484,0.25 0.2274504,-2.9189 4.3809562,-5.25 9.478516,-5.25 5.09756,0 9.251065,2.3311 9.478516,5.25 0.0065,-0.083 0.02148,-0.1657 0.02148,-0.25 0,-3.0355 -4.256807,-5.5 -9.5,-5.5 z"/>
 </g>
</svg>
