<svg xmlns="http://www.w3.org/2000/svg" width="22" height="22" version="1.1">
 <rect style="opacity:0.2" width="18" height="20" x="2" y="1.5" rx="1.5" ry="1.5"/>
 <rect style="fill:#4f4f4f" width="18" height="20" x="2" y="1" rx="1.5" ry="1.5"/>
 <circle style="opacity:0.2" cx="11" cy="11.5" r="7"/>
 <path style="fill:#1ac63a" d="M 11,11 H 3.9999998 C 3.9999998,7.1340065 7.1340065,3.9999998 11,3.9999998 Z"/>
 <path style="fill:#2186ff" d="M 11,11 H 3.9999998 c 0,3.865993 3.1340067,7 7.0000002,7 z"/>
 <path style="fill:#f54646" d="m 11,11 h 7 c 0,3.865993 -3.134007,7 -7,7 z"/>
 <path style="fill:#ffeb23" d="m 11,11 h 7 C 18,7.1340065 14.865993,3.9999998 11,3.9999998 Z"/>
 <circle style="fill:#6b6b6b" cx="11" cy="11" r="6"/>
 <circle style="fill:#3f3f3f" cx="11" cy="11" r="3"/>
 <path style="opacity:0.1;fill:#ffffff" d="M 3.5,1 C 2.669,1 2,1.669 2,2.5 V 3 C 2,2.169 2.669,1.5 3.5,1.5 h 15 C 19.331,1.5 20,2.169 20,3 V 2.5 C 20,1.669 19.331,1 18.5,1 Z"/>
 <path style="opacity:0.2;fill:#ffffff" d="M 11,4 A 7,7 0 0 0 4,11 7,7 0 0 0 4.00977,11.292969 7,7 0 0 1 11,4.5 7,7 0 0 1 17.990234,11.207031 7,7 0 0 0 18,11 7,7 0 0 0 11,4 Z"/>
</svg>
