<svg width="22" height="22" version="1.1" xmlns="http://www.w3.org/2000/svg">
 <rect x="1" y="1.5" width="20" height="20" rx="1" ry=".881356" style="opacity:.2"/>
 <rect x="1" y="1" width="20" height="20" rx="1" ry=".881356" style="fill:#4f4f4f"/>
 <path d="m10 4.5-1 2v12h2v-14zm2 0v14h1l1-2v-12zm-4 4-5 10h2l3-6zm7 8-1 2h5v-2z" style="opacity:.2"/>
 <path d="m10 4-1 2v4 5 3h2v-14h-1zm-2 4-5 10h2l3-6v-4z" style="fill:#16ae16"/>
 <path d="m12 4v14h1l1-2v-12h-2zm3 12-1 2h5v-2h-4z" style="fill:#ff8416"/>
 <path d="m2 1c-0.554 0-1 0.3925882-1 0.8808594v0.5c0-0.4882712 0.446-0.8808594 1-0.8808594h18c0.554 0 1 0.3925882 1 0.8808594v-0.5c0-0.4882712-0.446-0.8808594-1-0.8808594h-18z" style="fill:#ffffff;opacity:.1"/>
 <path d="m10 4-1 2v0.5l1-2h1v-0.5h-1zm2 0v0.5h2v-0.5h-2zm-4 4-5 10h0.25l4.75-9.5v-0.5zm7 8-1 2h0.25l0.75-1.5h4v-0.5h-4z" style="fill:#ffffff;opacity:.2"/>
</svg>
