<?xml version="1.0" encoding="UTF-8" standalone="no"?>
<svg id="svg2817" xmlns:rdf="http://www.w3.org/1999/02/22-rdf-syntax-ns#" xmlns="http://www.w3.org/2000/svg" height="22" width="22" version="1.0" xmlns:cc="http://creativecommons.org/ns#" xmlns:dc="http://purl.org/dc/elements/1.1/">
 <metadata id="metadata57">
  <rdf:RDF>
   <cc:Work rdf:about="">
    <dc:format>image/svg+xml</dc:format>
    <dc:type rdf:resource="http://purl.org/dc/dcmitype/StillImage"/>
    <dc:title/>
   </cc:Work>
  </rdf:RDF>
 </metadata>
 <g id="layer4-0" transform="matrix(.90475 0 0 .90475 -716.75 -678.29)">
 </g>
 <g id="layer4-0-7" transform="matrix(.90475 0 0 .90475 -716.75 -671.05)">
 </g>
 <text id="text7276" font-size="12.666px" xml:space="preserve" y="-363.22546" x="435.90427" font-family="&apos;Droid Sans&apos;" fill="#000000"><tspan id="tspan7278" y="-363.22546" x="435.90427"/><tspan id="tspan7280" y="-347.3924" x="435.90427"/></text>
 <path id="rect4203" fill="#3b80ae" d="m21 19v-16c0-0.554-0.446-1-1-1h-18c-0.554 0-1 0.446-1 1v16c0 0.554 0.446 1 1 1h18c0.554 0 1-0.446 1-1z"/>
 <path id="path4421" opacity=".2" fill="#fff" d="m2 2c-0.554 0-1 0.446-1 1v0.5c0-0.554 0.446-1 1-1h18c0.554 0 1 0.446 1 1v-0.5c0-0.554-0.446-1-1-1h-18z"/>
 <path id="path4460" opacity=".2" d="m1 19v0.5c0 0.554 0.446 1 1 1h18c0.554 0 1-0.446 1-1v-0.5c0 0.554-0.446 1-1 1h-18c-0.554 0-1-0.446-1-1z"/>
 <path id="path4363" opacity=".2" d="m3.9902 4.5c-0.5489 0-0.9902 0.4702-0.9902 1.0527v3.8965c0 0.5818 0.4413 1.0508 0.9902 1.0508h3.4512l2 4h-0.4414c-0.554 0-1 0.446-1 1v2c0 0.554 0.446 1 1 1h4c0.554 0 1-0.446 1-1v-2c0-0.44879-0.29744-0.81406-0.70312-0.94141l1.742-2.059h3.1113c0.471 0 0.85-0.391 0.85-0.877v-3.248c0-0.4855-0.379-0.875-0.85-0.875h-4.3008c-0.47 0-0.849 0.3895-0.849 0.875v0.23438l-3-0.75v-2.3086c0-0.5825-0.4417-1.0508-0.9902-1.0508h-5.0196zm6.0098 4.3906l3 0.75v1.9824c0 0.4461 0.32128 0.80883 0.73828 0.86523l-1.701 2.012h-1.4785l-2-4h0.44922c0.5491 0 0.9923-0.47 0.9923-1.0527v-0.55664z"/>
 <path id="rect4352" fill="#c9a1ff" d="m3.9902 4c-0.5489 0-0.9902 0.4702-0.9902 1.0527v3.8965c0 0.582 0.4413 1.0508 0.9902 1.0508h3.4512l2 4h-0.4414c-0.554 0-1 0.446-1 1v2c0 0.554 0.446 1 1 1h4c0.554 0 1-0.446 1-1v-2c0-0.44879-0.29744-0.81406-0.70312-0.94141l1.742-2.059h3.111c0.471 0 0.85-0.391 0.85-0.877v-3.248c0-0.4855-0.379-0.875-0.85-0.875h-4.3c-0.471 0-0.85 0.3895-0.85 0.875v0.23438l-3-0.75v-2.3086c0-0.5825-0.4417-1.0508-0.9902-1.0508h-5.0196zm6.0098 4.3906l3 0.75v1.9824c0 0.4461 0.32128 0.80883 0.73828 0.86523l-1.701 2.012h-1.478l-2.0004-4h0.4492c0.549 0 0.9922-0.4702 0.9922-1.0527v-0.5567z"/>
</svg>
