<svg xmlns="http://www.w3.org/2000/svg" width="22" height="22" version="1.1">
 <rect style="opacity:0.2" width="20" height="20" x="1" y="1.5" ry="3"/>
 <rect style="fill:#2e49bc" width="20" height="20" x="1" y="1" ry="3"/>
 <rect style="fill:#00e5ff" width="9.321" height=".5" x="6.39" y="11"/>
 <path style="fill:#b0b9f5" d="M 7.580115,9 11.087202,8.3496795 14.413678,9 5.813607,15 5.9257315,11.414533 Z"/>
 <path style="opacity:0.2" d="m 16.846265,6.3872185 c 0.548618,-0.61203 1.032703,-1.1576955 1.075746,-1.21259 0.146104,-0.1863205 0.077,-0.534895 -0.124695,-0.6289925 C 17.726856,4.512767 15.81957,4.5 10.979242,4.5 H 4.258993 L 4.133011,4.615256 c -0.100583,0.09202 -0.1268575,0.149608 -0.1303415,0.28566 -0.00536,0.208338 -0.082018,0.1094245 1.152197,1.486302 L 6.152354,7.5 h 4.848212 4.848217 z"/>
 <path style="fill:#b0b9f5" d="m 16.846265,5.8872185 c 0.548618,-0.61203 1.032703,-1.1576955 1.075746,-1.21259 0.146104,-0.1863205 0.077,-0.534895 -0.124695,-0.6289925 C 17.726856,4.012767 15.81957,4 10.979242,4 H 4.258993 L 4.133011,4.115256 c -0.100583,0.09202 -0.1268575,0.149608 -0.1303415,0.28566 -0.00536,0.208338 -0.082018,0.1094245 1.152197,1.486302 L 6.152354,7 h 4.848212 4.848217 z"/>
 <path style="opacity:0.2" d="m 10.992188,8.5 c -4.3513985,0 -4.518628,0.0031 -4.5830085,0.074219 -0.03676,0.04057 -0.649878,1.79466 -1.361328,3.898437 -0.7114505,2.103777 -1.3539309,4.002777 -1.4287109,4.220703 -0.1356532,0.395325 -0.136353,0.397259 -0.095703,0.792969 0.048552,0.472546 0.1391296,0.819042 0.2441406,0.931641 L 3.8447265,18.5 h 7.1455085 c 6.596773,0 7.151219,-0.0048 7.211913,-0.06543 0.123397,-0.123263 0.235295,-0.549853 0.274414,-1.045898 L 18.5,17.091797 17.887695,15.286133 C 17.551121,14.293041 16.907529,12.391639 16.457031,11.061524 16.006531,9.731408 15.608957,8.6107175 15.573242,8.571289 15.511338,8.502961 15.296772,8.5 10.992188,8.5 Z m -3.41211,1 h 6.833985 l 1.77246,6 H 5.8134765 Z"/>
 <path style="fill:#ffffff" d="M 10.992188,8 C 6.6407895,8 6.47356,8.0031 6.4091795,8.074219 c -0.03676,0.04057 -0.649878,1.79466 -1.361328,3.898437 -0.7114505,2.103777 -1.3539309,4.002777 -1.4287109,4.220703 -0.1356532,0.395325 -0.136353,0.397259 -0.095703,0.792969 0.048552,0.472546 0.1391296,0.819042 0.2441406,0.931641 L 3.8447265,18 h 7.1455085 c 6.596773,0 7.151219,-0.0048 7.211913,-0.06543 0.123397,-0.123263 0.235295,-0.549853 0.274414,-1.045898 L 18.5,16.591797 17.887695,14.786133 C 17.551121,13.793041 16.907529,11.891639 16.457031,10.561524 16.006531,9.231408 15.608957,8.1107175 15.573242,8.071289 15.511338,8.002961 15.296772,8 10.992188,8 Z m -3.41211,1 h 6.833985 l 1.77246,6 H 5.8134765 Z"/>
 <path style="fill:#b0b9f5" d="m 3.5253906,16.5 c -0.032307,0.136851 -0.027949,0.233266 -0.00195,0.486328 0.048552,0.472546 0.1391296,0.819042 0.2441406,0.931641 L 3.8447265,18 h 7.1455085 c 6.596773,0 7.151219,-0.0048 7.211913,-0.06543 0.123397,-0.123263 0.235295,-0.549853 0.274414,-1.045898 L 18.5,16.591797 18.46875,16.5 Z"/>
 <path style="fill:#ffffff" d="M 4.258789,4 4.1328125,4.1152345 c -0.100583,0.092021 -0.126399,0.1500805 -0.129883,0.2861325 -0.00105,0.04014 -0.0026,0.068551 0.001,0.098633 H 17.993164 C 18.021098,4.3212975 17.945196,4.1150945 17.796875,4.0458985 17.726416,4.0130295 15.81982,4 10.979492,4 Z"/>
 <path style="opacity:0.1;fill:#ffffff" d="M 4,1 C 2.338,1 1,2.338 1,4 v 0.5 c 0,-1.662 1.338,-3 3,-3 h 14 c 1.662,0 3,1.338 3,3 V 4 C 21,2.338 19.662,1 18,1 Z"/>
</svg>
