<svg xmlns="http://www.w3.org/2000/svg" width="22" height="22" version="1">
 <path fill="#ffc851" d="m16 6v2.5c0 1.385-1.115 2.5-2.5 2.5h-5s-2.5 0-2.5 2.5v4.375c0 1.731 1.951 3.125 4.375 3.125h1.25c2.424 0 4.375-1.394 4.375-3.125v-0.875h-5v-1h6.875c1.731 0 3.125-1.951 3.125-4.375v-1.25c0-2.424-1.394-4.375-3.125-4.375h-1.875zm-2.5 13a0.5 0.5 0 0 1 0.5 0.5 0.5 0.5 0 0 1 -0.5 0.5 0.5 0.5 0 0 1 -0.5 -0.5 0.5 0.5 0 0 1 0.5 -0.5z"/>
 <path fill="#4795d1" d="m10.375 1c-2.424 0-4.375 1.3938-4.375 3.125v0.875h5v1h-6.875c-1.7312 0-3.125 1.951-3.125 4.375v1.25c0 2.424 1.3938 4.375 3.125 4.375h1.875v-2.5c0-1.385 1.115-2.5 2.5-2.5h5s2.5 0 2.5-2.5v-4.375c0-1.7312-1.951-3.125-4.375-3.125h-1.25z"/>
 <path opacity=".2" d="m8.5 2.5a0.5 0.5 0 0 1 0.5 0.5 0.5 0.5 0 0 1 -0.5 0.5 0.5 0.5 0 0 1 -0.5 -0.5 0.5 0.5 0 0 1 0.5 -0.5z"/>
 <path fill="#fff" d="m8.5 2a0.5 0.5 0 0 1 0.5 0.5 0.5 0.5 0 0 1 -0.5 0.5 0.5 0.5 0 0 1 -0.5 -0.5 0.5 0.5 0 0 1 0.5 -0.5z"/>
 <path fill="#fff" opacity=".1" d="m10.375 1c-2.424 0-4.375 1.3938-4.375 3.125v0.5c0-1.7312 1.951-3.125 4.375-3.125h1.25c2.424 0 4.375 1.3938 4.375 3.125v-0.5c0-1.7312-1.951-3.125-4.375-3.125zm-6.25 5c-1.7312 0-3.125 1.951-3.125 4.375v0.5c0-2.424 1.3938-4.375 3.125-4.375h6.875v-0.5h-5z"/>
 <path fill="#fff" opacity=".1" d="m16 6v0.5h1.875c1.731 0 3.125 1.951 3.125 4.375v-0.5c0-2.424-1.394-4.375-3.125-4.375h-1.875zm0 2.5c0 1.385-1.115 2.5-2.5 2.5h-5s-2.5 0-2.5 2.5v0.5c0-2.5 2.5-2.5 2.5-2.5h5c1.385 0 2.5-1.115 2.5-2.5v-0.5zm-5 8.5v0.5h5v-0.5h-5zm2.0675 2.75a0.5 0.5 0 0 0 -0.068 0.25 0.5 0.5 0 0 0 0.5 0.5 0.5 0.5 0 0 0 0.5 -0.5 0.5 0.5 0 0 0 -0.068 -0.25 0.5 0.5 0 0 1 -0.432 0.25 0.5 0.5 0 0 1 -0.432 -0.25z"/>
 <path opacity=".2" d="m6 5v0.5h5v-0.5zm10 3.5c0 2.5-2.5 2.5-2.5 2.5h-5c-1.385 0-2.5 1.115-2.5 2.5v0.5c0-1.385 1.115-2.5 2.5-2.5h5s2.5 0 2.5-2.5zm-15 3.125v0.5c0 2.424 1.3938 4.375 3.125 4.375h1.875v-0.5h-1.875c-1.7312 0-3.125-1.951-3.125-4.375z"/>
 <path opacity=".2" d="m21 11.625c0 2.424-1.394 4.375-3.125 4.375h-6.875v0.5h6.875c1.731 0 3.125-1.951 3.125-4.375zm-15 6.25v0.5c0 1.7312 1.9512 3.125 4.375 3.125h1.25c2.424 0 4.375-1.394 4.375-3.125v-0.5c0 1.731-1.951 3.125-4.375 3.125h-1.25c-2.424 0-4.375-1.394-4.375-3.125z"/>
 <circle fill="#cc5e55" cx="17" cy="17" r="5"/>
 <path fill="#fff" d="m16.244 14-0.06673 0.7902a2.3784 2.3572 0 0 0 -0.6951 0.39844l-0.72465-0.33818-0.75675 1.2991 0.65795 0.45285a2.3784 2.3572 0 0 0 -0.03632 0.3976 2.3784 2.3572 0 0 0 0.03461 0.39928l-0.657 0.4515 0.75675 1.2991 0.72295-0.33733a2.3784 2.3572 0 0 0 0.6968 0.39592l0.06672 0.79185h1.5135l0.06672-0.7902a2.3784 2.3572 0 0 0 0.6951 -0.39844l0.72465 0.33817 0.75675-1.2991-0.65795-0.45285a2.3784 2.3572 0 0 0 0.03632 -0.3976 2.3784 2.3572 0 0 0 -0.03461 -0.39928l0.6565-0.4505-0.75675-1.2991-0.723 0.33734a2.3784 2.3572 0 0 0 -0.6965 -0.396l-0.06672-0.79185h-1.5135zm0.75675 2.1428a0.86485 0.85715 0 0 1 0.864 0.857 0.86485 0.85715 0 0 1 -0.865 0.857 0.86485 0.85715 0 0 1 -0.865 -0.857 0.86485 0.85715 0 0 1 0.865 -0.857z"/>
</svg>
