<svg xmlns="http://www.w3.org/2000/svg" width="22" height="22" version="1">
 <path style="opacity:0.2" d="M 15.58121,2.5074832 C 11.568031,2.7301584 6.8618394,3.3242282 3.9767652,4.5699746 0.869623,5.9116086 -0.18379785,7.8075728 0.0256095,9.3785481 L 0.842989,15.506453 c 0.083391,0.625597 0.2305157,1.233634 0.4394513,1.800774 -0.00172,-0.0023 -0.00317,-0.0045 -0.00488,-0.0068 0.00422,0.0115 0.010374,0.02174 0.014648,0.0332 0.080287,0.215313 0.1687404,0.424889 0.2685536,0.625974 0.00237,0.0048 0.00445,0.0099 0.00684,0.01465 0.012201,0.02442 0.021683,0.05101 0.034179,0.07519 0.069198,0.1339 0.1427847,0.251348 0.2187491,0.362304 0.7793969,1.267346 2.0167114,2.127067 3.839828,2.086905 l 4.411114,-0.07422 c 2.581116,-0.04314 8.296813,-1.48808 9.944295,-2.746082 1.52365,-1.076437 2.239119,-1.848775 1.902337,-4.517559 L 21.218882,7.6148841 C 21.086592,4.9281881 18.603346,2.3397967 15.58121,2.5074832 Z"/>
 <path style="fill:#e4e4e4" d="M 3.9769644,4.0705756 C 6.8620384,2.8248291 11.56839,2.2303991 15.581569,2.0077239 c 3.022136,-0.1676865 5.5046,2.4211232 5.63689,5.1078192 l 0.277679,5.6393999 c 0.13229,2.686695 -0.972347,3.168604 -2.495997,4.245042 -1.647483,1.258001 -6.835233,2.816775 -9.397538,2.502756 L 5.5001965,18.999976 C 3.5045491,19.043939 2.3604521,19.017412 1.6017858,17.549372 1.2100534,16.791359 0.963733,15.91527 0.8427046,15.007315 L 0.0258287,8.8791084 C -0.1835787,7.3081323 0.8698222,5.4122096 3.9769644,4.0705756 Z"/>
 <path style="opacity:0.1;fill:none;stroke:#000000;stroke-width:0.49999794" d="m 8.8798026,13.612109 1.6203734,1.138096 1.26906,-1.959862"/>
 <ellipse id="ellipse916" style="opacity:0.1" cx="5.445" cy="9.758" rx="1.213" ry="3.015" transform="matrix(0.98891953,0.14845259,-0.11624302,0.9932208,0,0)"/>
 <ellipse style="fill:#3f3f3f" cx="5.387" cy="9.263" rx="1.213" ry="3.015" transform="matrix(0.98891953,0.14845259,-0.11624302,0.9932208,0,0)"/>
 <ellipse id="ellipse918" style="opacity:0.1" cx="15.149" cy="6.294" rx="1.213" ry="3.015" transform="matrix(0.98891953,0.14845259,-0.11624302,0.9932208,0,0)"/>
 <ellipse id="ellipse844" style="fill:#ffffff" cx="3.143" cy="10.598" rx=".532" ry=".67" transform="matrix(0.73343411,-0.67976055,0.1988081,0.98003844,0,0)"/>
 <ellipse id="ellipse889" style="fill:#3f3f3f" cx="15.091" cy="5.799" rx="1.213" ry="3.015" transform="matrix(0.98891953,0.14845259,-0.11624302,0.9932208,0,0)"/>
 <ellipse id="ellipse891" style="fill:#ffffff" cx="15.086" cy="16.841" rx=".532" ry=".67" transform="matrix(0.73343411,-0.67976055,0.1988081,0.98003844,0,0)"/>
 <path style="fill:none;stroke:#3f3f3f;stroke-width:0.49999794" d="m 8.8798026,13.1119 1.6203734,1.138096 1.26906,-1.959862"/>
 <path style="fill:#eb73ff" d="M 20.604368,5.1367667 C 21.11082,9.0997621 21.444014,13.87009 19.231529,15.452728 14.250859,18.25616 9.392619,18.51084 3.9678349,18.60151 3.0048259,18.62273 2.0924416,17.890986 1.2779126,16.800526 c 0.6805041,1.854201 2.0626306,3.24913 4.3821547,3.198033 l 4.4116937,-0.07351 c 2.581116,-0.04314 8.296553,-1.488682 9.944036,-2.746684 1.523649,-1.076437 2.239113,-1.848377 1.902331,-4.517162 L 21.218416,7.1156436 C 21.132789,6.4371094 20.921286,5.7626992 20.604368,5.1367667 Z"/>
 <path style="opacity:0.2" d="m 20.604627,5.1367522 c 0.02804,0.2194506 0.05155,0.4481482 0.07812,0.6718723 0.271014,0.5772511 0.458205,1.1891186 0.536131,1.8066331 l 0.699216,5.5458754 c 0.03716,0.294485 0.05649,0.557339 0.06836,0.80859 0.0099,-0.384005 -0.0047,-0.80372 -0.06836,-1.308588 L 21.218882,7.1152596 C 21.133255,6.4367254 20.921545,5.7626842 20.604627,5.1367522 Z m 0.368162,5.0175578 c -0.02187,2.326689 -0.438457,4.366924 -1.741203,5.298806 -4.98067,2.803431 -9.838825,3.057755 -15.2636098,3.148424 -0.963009,0.02122 -1.8758897,-0.710314 -2.6904186,-1.800774 0.1599916,0.435937 0.3619158,0.843476 0.6025365,1.215816 0.652804,0.680918 1.3558206,1.101083 2.0878821,1.084956 5.4247848,-0.09067 10.2829398,-0.344993 15.2636098,-3.148424 1.395543,-0.998263 1.775926,-3.266613 1.741203,-5.798804 z"/>
 <path style="opacity:0.2;fill:#ffffff" d="M 15.58121,2.0078586 C 11.568031,2.2305338 6.8618394,2.8246036 3.9767652,4.0703501 0.9657466,5.3704788 -0.11258859,7.1904203 0.0138909,8.731464 0.1380983,7.3093538 1.286221,5.7320993 3.9767652,4.5703481 6.8618394,3.3246015 11.568031,2.7305318 15.58121,2.5078565 18.603346,2.34017 21.086592,4.9285616 21.218882,7.6152576 l 0.277343,5.6396254 c 0.0027,0.05483 0.0023,0.103228 0.0039,0.156249 0.007,-0.204649 0.0078,-0.419192 -0.0039,-0.656247 L 21.218882,7.1152596 C 21.086592,4.4285636 18.603346,1.8401721 15.58121,2.0078586 Z"/>
</svg>
