<svg xmlns="http://www.w3.org/2000/svg" width="22" height="22" version="1.1">
 <rect style="opacity:0.2" width="21" height="21" x="1" y=".5" rx="1.615" ry="1.615"/>
 <path style="fill:#e4e4e4" d="M 2.6153846,0 C 1.7204615,0 1,0.7204615 1,1.6153846 V 7 H 8 V 0 Z"/>
 <rect style="fill:#f3f3f3" width="7" height="7" x="8" y="0"/>
 <path style="fill:#e4e4e4" d="M 20.384615,0 C 21.279539,0 22,0.7204615 22,1.6153846 V 7 H 15 V 0 Z"/>
 <rect style="fill:#e4e4e4" width="7" height="7" x="8" y="7"/>
 <rect style="fill:#f3f3f3" width="7" height="7" x="1" y="7"/>
 <rect style="fill:#f3f3f3" width="7" height="7" x="15" y="7"/>
 <path style="fill:#bebebb" d="M 2.6153846,21 C 1.7204615,21 1,20.279538 1,19.384615 V 14 h 7 v 7 z"/>
 <rect style="fill:#f3f3f3" width="7" height="7" x="8" y="-21" transform="scale(1,-1)"/>
 <path style="fill:#e4e4e4" d="M 20.384615,21 C 21.279539,21 22,20.279538 22,19.384615 V 14 h -7 v 7 z"/>
 <path style="opacity:0.1" d="M 22,3.1914062 A 8.9893763,8.244348 0 0 0 17.691406,7.5 h 1.535156 A 7.5338771,6.9094787 0 0 1 22,4.6679688 Z M 8,3.2460938 V 4.6542969 C 9.12,5.1840321 10.382368,5.484375 11.71875,5.484375 A 8.7071756,8.7071756 0 0 0 15,4.8476562 V 3.484375 C 14.021853,3.9723159 12.905868,4.25 11.71875,4.25 10.350868,4.25 9.076765,3.8814466 8,3.2460938 Z M 3.8515625,7.5 A 7.4543436,7.4543436 0 0 1 4.5996094,10.765625 7.4440628,7.4440623 0 0 1 3.6035156,14.5 H 5.171875 A 8.8099378,8.8099373 0 0 0 6,10.765625 8.8140936,8.8140936 0 0 0 5.3730469,7.5 Z M 8,10.191406 v 1.365235 c 1.271099,0.65505 2.294339,1.686202 2.923828,2.943359 h 0.695313 c -0.414347,1.039195 -0.62722,2.146871 -0.626953,3.265625 -7.93e-4,1.290081 0.282206,2.565495 0.828124,3.734375 h 1.570313 c -0.655562,-1.134925 -0.999847,-2.423721 -0.998047,-3.734375 0,-1.1725 0.268985,-2.2795 0.748047,-3.265625 H 12.308594 C 11.514875,12.567441 9.965264,11.01783 8,10.191406 Z m 10.71875,0.322266 c -1.336381,0 -2.598955,0.302296 -3.71875,0.832031 v 1.408203 c 1.076767,-0.635353 2.350665,-1.003907 3.71875,-1.003906 1.186915,0 2.303102,0.277478 3.28125,0.765625 V 11.150391 A 8.7071767,8.7071767 0 0 0 18.71875,10.513672 Z M 17.691406,14.5 A 9.4380166,9.1675113 0 0 0 22,18.808594 V 17.167969 A 7.9075075,7.6808685 0 0 1 19.353516,14.5 Z"/>
 <path style="fill:#2e7bdd" d="M 22,2.6914062 A 8.9893763,8.244348 0 0 0 17.691406,7 h 1.535156 A 7.5338771,6.9094787 0 0 1 22,4.1679688 Z M 8,2.7460938 V 4.1542969 C 9.12,4.6840321 10.382368,4.984375 11.71875,4.984375 A 8.7071756,8.7071756 0 0 0 15,4.3476562 V 2.984375 C 14.021853,3.4723159 12.905868,3.75 11.71875,3.75 10.350868,3.75 9.076765,3.3814466 8,2.7460938 Z M 3.8515625,7 A 7.4543436,7.4543436 0 0 1 4.5996094,10.265625 7.4440628,7.4440623 0 0 1 3.6035156,14 H 5.171875 A 8.8099378,8.8099373 0 0 0 6,10.265625 8.8140936,8.8140936 0 0 0 5.3730469,7 Z M 8,9.691406 v 1.365235 C 9.271099,11.711691 10.294339,12.742843 10.923828,14 h 0.695313 c -0.414347,1.039195 -0.62722,2.146871 -0.626953,3.265625 -7.93e-4,1.290081 0.282206,2.565495 0.828124,3.734375 h 1.570313 c -0.655562,-1.134925 -0.999847,-2.423721 -0.998047,-3.734375 0,-1.1725 0.268985,-2.2795 0.748047,-3.265625 H 12.308594 C 11.514875,12.067441 9.965264,10.51783 8,9.691406 Z m 10.71875,0.322266 c -1.336381,0 -2.598955,0.302296 -3.71875,0.832031 v 1.408203 c 1.076767,-0.635353 2.350665,-1.003907 3.71875,-1.003906 1.186915,0 2.303102,0.277478 3.28125,0.765625 V 10.650391 A 8.7071767,8.7071767 0 0 0 18.71875,10.013672 Z M 17.691406,14 A 9.4380166,9.1675113 0 0 0 22,18.308594 V 16.667969 A 7.9075075,7.6808685 0 0 1 19.353516,14 Z"/>
 <path style="opacity:0.2;fill:#ffffff" d="M 2.6152344,0 C 1.7203113,0 1,0.7203113 1,1.6152344 v 0.5 C 1,1.2203113 1.7203113,0.5 2.6152344,0.5 H 20.384766 C 21.279689,0.5 22,1.2203113 22,2.1152344 v -0.5 C 22,0.7203113 21.279689,0 20.384766,0 Z"/>
</svg>
