<svg xmlns="http://www.w3.org/2000/svg" width="22" height="22" version="1">
 <path style="opacity:0.2" d="M 18,19.5 V 5 C 18,4.446 17.554,4 17,4 H 3 C 2.446,4 2,4.446 2,5 v 14.5 c 0,0.554 0.446,1 1,1 h 14 c 0.554,0 1,-0.446 1,-1 z"/>
 <path style="fill:#e4e4e4" d="M 18,19 V 4 C 18,3.446 17.554,3 17,3 H 3 C 2.446,3 2,3.446 2,4 v 15 c 0,0.554 0.446,1 1,1 h 14 c 0.554,0 1,-0.446 1,-1 z"/>
 <path style="fill:#a2a2a2" d="M 18,4 V 2 C 18,1.446 17.554,1 17,1 H 3 C 2.446,1 2,1.446 2,2 v 2 z"/>
 <path style="opacity:0.1;fill:#ffffff" d="M 3,1 C 2.446,1 2,1.446 2,2 v 0.5 c 0,-0.554 0.446,-1 1,-1 h 14 c 0.554,0 1,0.446 1,1 V 2 C 18,1.446 17.554,1 17,1 Z"/>
 <path style="opacity:0.2" d="M 3.46875,0.5 C 3.2091615,0.5 3,0.7039324 3,0.9570312 V 3.042969 C 3,3.2960675 3.2091615,3.5 3.46875,3.5 h 1.0625 C 4.7908385,3.5 5,3.2960675 5,3.042969 V 0.9570312 C 5,0.7039324 4.7908385,0.5 4.53125,0.5 Z m 4,0 C 7.2091615,0.5 7,0.7039324 7,0.9570312 V 3.042969 C 7,3.2960675 7.2091615,3.5 7.46875,3.5 h 1.0625 C 8.7908385,3.5 9,3.2960675 9,3.042969 V 0.9570312 C 9,0.7039324 8.7908385,0.5 8.53125,0.5 Z m 4,0 C 11.209162,0.5 11,0.7039324 11,0.9570312 V 3.042969 C 11,3.2960675 11.209162,3.5 11.46875,3.5 h 1.0625 C 12.790839,3.5 13,3.2960675 13,3.042969 V 0.9570312 C 13,0.7039324 12.790839,0.5 12.53125,0.5 Z m 4,0 C 15.209161,0.5 15,0.7039324 15,0.9570312 V 3.042969 C 15,3.2960675 15.209161,3.5 15.46875,3.5 h 1.0625 C 16.790838,3.5 17,3.2960675 17,3.042969 V 0.9570312 C 17,0.7039324 16.790838,0.5 16.53125,0.5 Z"/>
 <path style="fill:#f7c13e" d="M 3.46875,0 C 3.2091615,0 3,0.2039324 3,0.4570312 V 2.5429688 C 3,2.7960677 3.2091615,3 3.46875,3 h 1.0625 C 4.7908385,3 5,2.7960677 5,2.5429688 V 0.4570312 C 5,0.2039324 4.7908385,0 4.53125,0 Z m 4,0 C 7.2091615,0 7,0.2039324 7,0.4570312 V 2.5429688 C 7,2.7960677 7.2091615,3 7.46875,3 h 1.0625 C 8.7908385,3 9,2.7960677 9,2.5429688 V 0.4570312 C 9,0.2039324 8.7908385,0 8.53125,0 Z m 4,0 C 11.209162,0 11,0.2039324 11,0.4570312 V 2.5429688 C 11,2.7960677 11.209162,3 11.46875,3 h 1.0625 C 12.790839,3 13,2.7960677 13,2.5429688 V 0.4570312 C 13,0.2039324 12.790839,0 12.53125,0 Z m 4,0 C 15.209161,0 15,0.2039324 15,0.4570312 V 2.5429688 C 15,2.7960677 15.209161,3 15.46875,3 h 1.0625 C 16.790838,3 17,2.7960677 17,2.5429688 V 0.4570312 C 17,0.2039324 16.790838,0 16.53125,0 Z"/>
 <path style="opacity:0.2;fill:#ffffff" d="M 3.46875,0 C 3.2091615,0 3,0.2039324 3,0.4570312 v 0.5 C 3,0.7039324 3.2091615,0.5 3.46875,0.5 h 1.0625 C 4.7908385,0.5 5,0.7039324 5,0.9570312 v -0.5 C 5,0.2039324 4.7908385,0 4.53125,0 Z m 4,0 C 7.2091615,0 7,0.2039324 7,0.4570312 v 0.5 C 7,0.7039324 7.2091615,0.5 7.46875,0.5 h 1.0625 C 8.7908385,0.5 9,0.7039324 9,0.9570312 v -0.5 C 9,0.2039324 8.7908385,0 8.53125,0 Z m 4,0 C 11.209162,0 11,0.2039324 11,0.4570312 v 0.5 C 11,0.7039324 11.209162,0.5 11.46875,0.5 h 1.0625 C 12.790839,0.5 13,0.7039324 13,0.9570312 v -0.5 C 13,0.2039324 12.790839,0 12.53125,0 Z m 4,0 C 15.209161,0 15,0.2039324 15,0.4570312 v 0.5 C 15,0.7039324 15.209161,0.5 15.46875,0.5 h 1.0625 C 16.790838,0.5 17,0.7039324 17,0.9570312 v -0.5 C 17,0.2039324 16.790838,0 16.53125,0 Z"/>
 <rect style="fill:#4f4f4f" width="12" height="2" x="4" y="7"/>
 <rect style="fill:#4f4f4f" width="12" height="2" x="4" y="15"/>
 <rect style="fill:#4f4f4f" width="12" height="2" x="4" y="11"/>
 <circle style="opacity:0.2" cx="16.5" cy="16" r="5.5"/>
 <circle style="fill:#00b897" cx="16.5" cy="15.5" r="5.5"/>
 <path style="fill:#ffffff" d="M 16.5,12 C 15.67,12 15,12.609092 15,13.363637 v 2.272725 C 15,16.390908 15.67,17 16.5,17 17.33,17 18,16.390908 18,15.636362 V 13.363637 C 18,12.609092 17.33,12 16.5,12 Z"/>
 <path style="fill:#ffffff" d="m 13,15 v 0.5 0.5 c 0,1.485 1.58,2.715078 3,2.955078 V 20 h 1 V 18.955078 C 18.42,18.715078 20,17.485 20,16 V 15.5 15 h -1 v 0.5 0.5 c 0,1 -1,2 -2.5,2 C 15,18 14,17 14,16 V 15.5 15 Z"/>
</svg>
