<svg width="22" height="22" version="1.1" xmlns="http://www.w3.org/2000/svg">
 <path d="M 11,1 A 10,10 0 0 0 1,11 10,10 0 0 0 1.0098,11.293 10,10 0 0 1 11,1.5 10,10 0 0 1 20.99,11.207 10,10 0 0 0 21,11 10,10 0 0 0 11,1 Z" style="fill:#ffffff;opacity:.2"/>
 <rect x=".9999994" y="1.5" width="20" height="20" rx="1.5" ry="1.5" style="opacity:.2"/>
 <rect x="1" y="1" width="20" height="20" rx="1.5" ry="1.5" style="fill:#546e7a"/>
 <path d="m21 3.0000003v-0.5c0-0.831-0.669-1.5000003-1.5-1.5000003h-17c-0.831 0-1.5 0.6690003-1.5 1.5000003v0.5c0-0.831 0.669-1.5 1.5-1.5h17c0.831 0 1.5 0.669 1.5 1.5z" style="fill:#ffffff;opacity:.2"/>
 <path d="m4.5 6.5c-0.277 0-0.5 0.223-0.5 0.5v9c0 0.277 0.223 0.5 0.5 0.5h1c0.277 0 0.5-0.223 0.5-0.5v-4.5h3v4.5c0 0.277 0.223 0.5 0.5 0.5h1c0.277 0 0.5-0.223 0.5-0.5v-9c0-0.277-0.223-0.5-0.5-0.5h-1c-0.277 0-0.5 0.223-0.5 0.5v2.5h-3v-2.5c0-0.277-0.223-0.5-0.5-0.5z" style="opacity:.2"/>
 <path d="m12.5 6.5c-0.277 0-0.5 0.223-0.5 0.5v9c0 0.277 0.223 0.5 0.5 0.5h5c0.277 0 0.5-0.223 0.5-0.5v-2c0-0.277-0.223-0.5-0.5-0.5h-3.5v-2h3.5c0.277 0 0.5-0.223 0.5-0.5v-1c0-0.277-0.223-0.5-0.5-0.5h-3.5v-2.5c0-0.277-0.223-0.5-0.5-0.5z" style="opacity:.2"/>
 <path d="m4.5 6c-0.277 0-0.5 0.223-0.5 0.5v9c0 0.277 0.223 0.5 0.5 0.5h1c0.277 0 0.5-0.223 0.5-0.5v-4.5h3v4.5c0 0.277 0.223 0.5 0.5 0.5h1c0.277 0 0.5-0.223 0.5-0.5v-9c0-0.277-0.223-0.5-0.5-0.5h-1c-0.277 0-0.5 0.223-0.5 0.5v2.5h-3v-2.5c0-0.277-0.223-0.5-0.5-0.5z" style="fill:#e0f7fa"/>
 <path d="m12.5 6c-0.277 0-0.5 0.223-0.5 0.5v9c0 0.277 0.223 0.5 0.5 0.5h5c0.277 0 0.5-0.223 0.5-0.5v-3c0-0.277-0.223-0.5-0.5-0.5h-3.5v-1h3.5c0.277 0 0.5-0.223 0.5-0.5v-1c0-0.277-0.223-0.5-0.5-0.5h-3.5v-2.5c0-0.277-0.223-0.5-0.5-0.5z" style="fill:#e0f7fa"/>
</svg>
