<svg width="22" height="22" version="1" xmlns="http://www.w3.org/2000/svg">
 <defs>
  <clipPath id="clipPath6">
   <rect x=".20383048" y="1.4183204" width="2.0213189" height="2.1232343" style="fill:#ffffff;opacity:.2"/>
  </clipPath>
 </defs>
 <path d="m10 1.5000002c-0.9992489-1e-7 -1.4729535 0.4729537-2 0.9999999l-2.9999999 3.0000004-3.0000001 3c-0.527046 0.5270464-1 1.254644-1 2.0000005v10c0 0.627369 0.2824918 0.999999 1 1h10c0.999249 0 1.472954-0.472954 2-1l6-6c0.527047-0.527047 1-1.254644 1-2.000001v-9.9999999c0-0.627369-0.282492-0.9999999-1-0.9999999z" style="fill:#1a1a1a;opacity:.2"/>
 <path d="m17 17.000001-3 2.999999c-0.527046 0.527047-1.000751 1.000001-2 1.000001l-10-1e-6c-0.7175084 0-0.9999998-0.372632-0.9999998-1.000001v-9.999998c0-0.7453565 0.4729537-1.4729542 0.9999998-2.0000006l3.0000003-2.9999999z" style="fill:#2086e7"/>
 <path transform="matrix(3.6795282 0 0 3.6795282 -1 -.99999988)" d="m1.6306439 1.6306439-0.81532196 0.8153219c-0.1432374 0.1432375-0.27177398 0.3409796-0.27177398 0.543548v0.135887c0-0.2025684 0.12853658-0.4003105 0.27177398-0.543548l0.81532196-0.8153219 3.1933442 3.1933442 0.0679435-0.0679435z" clip-path="url(#clipPath6)" style="fill:#ffffff;opacity:.2"/>
 <path d="M 5.0000001,5.0000005 8,2.0000002 C 8.5270465,1.4729538 9.0007511,0.99999995 10,1 l 10,7e-7 c 0.717509,0 1,0.3726317 1,1.0000008 V 12 c 0,0.745357 -0.472953,1.472954 -1,2.000001 l -3,3 z" style="fill:#fe4b71"/>
 <path d="m10 1.0000002c-0.9992489-1e-7 -1.4729535 0.4729536-2 1l-2.9999999 3.0000003 0.25 0.25 2.7499999-2.7500003c0.5270465-0.5270463 1.0007511-1.0000001 2-1h10c0.717509 0 1 0.3726309 1 1v-0.5c0-0.6273691-0.282492-1-1-1z" style="fill:#ffffff;opacity:.2"/>
 <rect x="5" y="5" width="12" height="12" style="fill:#3f3f3f"/>
 <rect x="5.9998822" y="14.5" width="4.9998822" height=".9995985" style="opacity:.2"/>
 <rect x="5.9998822" y="14" width="4.9998822" height=".9995985" style="fill:#ffffff"/>
 <path d="m10.999764 6.5000003 0.999976 3e-7 1e-6 3.4971933c0 0.7677241-0.742058 1.4988011-1.499965 1.4987971l-0.499776 0.004009v-0.999599l0.499776-0.0036c0.245638-0.0018 0.499988-0.239331 0.499988-0.4995947z" style="opacity:.2"/>
 <path d="m10.999764 6.0000006 0.999976 4e-7 1e-6 3.4971932c0 0.7677238-0.742058 1.4988008-1.499965 1.4987968l-0.499776 0.004011v-0.999601l0.499776-0.00362c0.245638-0.00178 0.499988-0.2393312 0.499988-0.4995949z" style="fill:#ffffff"/>
 <path d="m5.9998821 6.5000003 2.9999289 8.8e-6 4e-7 0.9999997h-0.9999766v2.9999912h0.9999766v1h-2.9999293v-1h0.9999765v-2.9999996h-0.9999765z" style="opacity:.2"/>
 <path d="m5.9998821 6.0000006 2.9999289 8.8e-6 4e-7 0.9999997h-0.9999766v2.9999919h0.9999766v1h-2.9999293v-1h0.9999765v-3.0000003h-0.9999765z" style="fill:#ffffff"/>
</svg>
