<svg xmlns="http://www.w3.org/2000/svg" width="22" height="22" version="1">
 <rect fill="#e4e4e4" width="20" height="20" x="-21" y="-21" rx="1" ry="1" transform="matrix(0,-1,-1,0,0,0)"/>
 <path fill="#fff" opacity=".2" d="m2 1c-0.554 0-1 0.446-1 1v0.5c0-0.554 0.446-1 1-1h18c0.554 0 1 0.446 1 1v-0.5c0-0.554-0.446-1-1-1h-18z"/>
 <path opacity=".2" d="m2 21.5c-0.554 0-1-0.446-1-1v-0.5c0 0.554 0.446 1 1 1h18c0.554 0 1-0.446 1-1v0.5c0 0.554-0.446 1-1 1h-18z"/>
 <circle fill="#4d4d4d" cx="11" cy="11" r="2"/>
 <circle fill="#4d4d4d" cx="5" cy="5" r="2"/>
 <circle fill="#4d4d4d" cx="17" cy="17" r="2"/>
 <circle fill="#4d4d4d" cx="5" cy="-17" r="2" transform="scale(1,-1)"/>
 <circle fill="#4d4d4d" cx="17" cy="-5" r="2" transform="scale(1,-1)"/>
</svg>
