<?xml version="1.0" encoding="utf-8"?>
<svg version="1.1" xmlns="http://www.w3.org/2000/svg" x="0" y="0" width="22" height="22" viewBox="0 0 22 22" xml:space="preserve">
 <g>
  <path opacity=".2" d="M5.361,5.041C4.19,3.905,1.979,1.791,1.61,2.199 C1.259,2.579,3.332,4.739,4.49,5.91L5.361,5.041z"/>
  <path opacity=".2" d="M2.107,11.158c-0.003,0.125-0.01,0.249-0.012,0.372 c0,4.928,3.995,8.923,8.922,8.923c4.929,0,8.925-3.993,8.925-8.923c-0.002-0.087-0.01-0.173-0.017-0.264 c-0.198,4.777-4.128,8.039-8.907,8.041C6.195,19.305,2.251,15.975,2.107,11.158L2.107,11.158z"/>
  <path display="none" opacity=".7" fill="#41E583" d="M11.021,2.119c-4.922,0-8.915,3.991-8.915,8.914 c0,4.924,3.993,8.916,8.915,8.916c4.927,0,8.919-3.991,8.919-8.916C19.94,6.109,15.948,2.119,11.021,2.119z"/>
  <path fill="#C1E27F" d="M11.378,10.599l0.491,9.309c2.672-0.252,5.001-1.683,6.461-3.766L11.378,10.599z"/>
  <path fill="#C94C8E" d="M10.286,2.146C7.607,2.365,5.262,3.771,3.777,5.834l7.601,4.763L10.286,2.146z"/>
  <path fill="#E88B63" d="M19.892,10.128c-0.262-2.604-1.644-4.876-3.655-6.33l-4.858,6.799L19.892,10.128z"/>
  <path fill="#3BE4EB" d="M11.378,10.599L2.16,11.993c0.277,2.602,1.675,4.868,3.699,6.307L11.378,10.599z"/>
  <path fill="#E03378" d="M16.454,3.958c-1.52-1.178-3.431-1.839-5.453-1.839c-0.409,0-0.812,0.026-1.205,0.079l1.582,8.401 L16.454,3.958z"/>
  <path fill="#70AACE" d="M11.378,10.599L3.936,5.622c-1.146,1.5-1.829,3.375-1.829,5.411c0,0.407,0.029,0.812,0.084,1.208 L11.378,10.599z"/>
  <path fill="#63D6A2" d="M11.378,10.599l-5.737,7.542c1.496,1.131,3.359,1.808,5.381,1.808c0.431,0,0.856-0.036,1.274-0.094 L11.378,10.599z"/>
  <path fill="#F2EB5E" d="M18.149,16.379c1.126-1.487,1.792-3.345,1.792-5.354c0-0.414-0.028-0.821-0.084-1.218L11.378,10.6 L18.149,16.379z"/>
  <path opacity=".2" fill="#FFFFFF" d="M11.021,2.119c-4.92,0-8.91,3.977-8.91,8.883 c0.001,0.042,0.004,0.087,0.005,0.128c0.104-4.829,4.061-8.496,8.904-8.497l0,0c4.871,0.001,8.836,3.705,8.908,8.556 c0.005-0.063,0.005-0.124,0.01-0.187C19.938,6.095,15.948,2.119,11.021,2.119L11.021,2.119z"/>
 </g>
 <g>
  <path opacity=".2" d="M5.119,4.338c1.622,1.545,5.314,5.638,5.314,5.638l2.243,2.215 c0,0-0.298-0.008-0.514,0.021c-0.23,0.029-0.411,0.058-0.411,0.058L9.9,10.509c0,0-4.105-3.75-5.638-5.294 c0,0,0.197-0.218,0.373-0.401C4.904,4.533,5.119,4.338,5.119,4.338z"/>
  <g>
   <g>
    <g>
     <path opacity=".1" d="M9.644,12.657c0.333,0.19,0.696,0.193,0.809,0 c0.048-0.089,0.037-0.198-0.019-0.315c-0.128,0.171-0.47,0.167-0.79-0.021c-0.186-0.104-0.32-0.249-0.389-0.387 c-0.005,0.009-0.013,0.016-0.018,0.021C9.125,12.148,9.307,12.461,9.644,12.657z"/>
     <path opacity=".1" d="M12.327,17.081c-3.02,0.081-5.416-1.69-6.509-3.33 c-0.896-1.337-1.423-2.749-1.489-4.479C4.326,9.263,4.321,9.254,4.316,9.244c0,1.899,0.544,3.407,1.502,4.841 c1.093,1.638,3.49,3.41,6.509,3.332c1.157-0.032,3.862-0.777,3.862-2.411c0-0.075-0.006-0.144-0.011-0.216 C16.047,16.338,13.454,17.048,12.327,17.081z"/>
    </g>
   </g>
  </g>
  <g transform="translate(0,960)" opacity=".5">
   <path fill="#5596EA" d="M4.316-951.09L4.316-951.09c0,1.9,0.544,3.405,1.502,4.841 c1.093,1.64,3.49,3.411,6.509,3.33c1.157-0.031,3.862-0.777,3.862-2.409c0-2.888-5.29-2.872-5.191-1.866 c0.146,1.559-2.708,0.612-3.936-0.24C5.777-948.319,5.047-949.511,4.316-951.09z M10.045-948.375 c-0.334-0.196-0.697-0.196-0.81-0.002c-0.111,0.19,0.071,0.504,0.407,0.699c0.333,0.192,0.696,0.192,0.809,0 C10.561-947.87,10.381-948.185,10.045-948.375z"/>
  </g>
  <g transform="translate(0,960)" opacity=".1">
   <path fill="#FFFFFF" d="M4.316-951.09c0,0,0.182,1.777,2.271,3.625c0.858,0.763,2.547,1.448,3.497,1.448 c0.761,0,1.159-0.29,1.209-0.654c0.041-0.305-0.05-0.511,0.175-0.647c0.357-0.214,1.48-0.177,2.544,0.008 c1.949,0.345,2.18,1.979,2.18,1.979c0-2.887-5.29-2.873-5.195-1.863c0.146,1.556-2.708,0.612-3.935-0.24 C5.777-948.319,5.047-949.511,4.316-951.09L4.316-951.09 M10.452-947.679c0.109-0.191-0.071-0.506-0.406-0.697 c-0.334-0.196-0.697-0.196-0.81-0.002c-0.026,0.047-0.035,0.103-0.029,0.163c0,0,0.197-0.16,0.563-0.049 C10.414-948.065,10.452-947.679,10.452-947.679z"/>
  </g>
 </g>
 <g>
  <path opacity=".2" d="M15.064,14.842l0.261-1.227c0.301,0.64,0.235,1.31-0.057,1.9 c-0.476,0.973-1.214,0.79-1.214,0.79s0.71-0.205,0.705-0.637c-0.004-0.445-0.437-0.772-0.699-0.876 c-0.673-0.268-1.429-0.77-1.634-1.408c-0.105-0.338-0.099-0.848-0.099-0.848l-0.333-0.31c0,0,0.323-0.032,0.537-0.036 L15.064,14.842z"/>
  <path fill="#4D4D4D" d="M1.61,0.953c0.441-0.482,3.471,2.587,4.278,3.355c1.621,1.545,4.598,4.936,4.598,4.936L9.977,9.792 c0,0-3.394-3.019-4.927-4.563C4.259,4.434,1.189,1.412,1.61,0.953z"/>
  <polygon fill="#B3B3B3" points="10.43 9.19 12.78 11.77 12.44 12.14 9.9 9.72"/>
  <path fill="#333333" d="M15.269,15.008c-0.476,0.971-1.214,0.789-1.214,0.789s0.71-0.203,0.705-0.638 c-0.004-0.443-0.437-0.771-0.699-0.874c-0.673-0.268-1.429-0.768-1.634-1.407c-0.105-0.341-0.099-0.846-0.099-0.846l0.353-0.357 c0,0,0.973-0.299,1.938,0.523C15.632,13.068,15.701,14.128,15.269,15.008z"/>
  <g opacity=".1">
   <path fill="#FFFFFF" d="M12.529,11.824c0,0-4.998-5.424-6.838-7.222C4.747,3.676,3.396,2.29,2.121,1.411 c-0.51-0.353-0.549-0.308-0.549-0.308C1.565,1.041,1.575,0.989,1.61,0.953c0.441-0.482,3.471,2.587,4.278,3.355 c1.621,1.545,4.545,4.878,4.545,4.878l2.349,2.584L12.529,11.824z"/>
   <path fill="#FFFFFF" d="M15.269,15.008c0.433-0.88,0.361-1.939-0.651-2.81c-0.968-0.824-1.937-0.523-1.937-0.523l-0.151,0.149 c0,0,0.618-0.032,1.282,0.259c0.682,0.301,1.237,0.761,1.544,1.561C15.643,14.367,15.269,15.008,15.269,15.008z"/>
   <path fill="#FFFFFF" d="M14.055,15.797c0,0,0.71-0.201,0.705-0.638c-0.004-0.199-0.091-0.383-0.219-0.525c0,0,0.28,0.2,0.28,0.579 C14.82,15.649,14.055,15.797,14.055,15.797z"/>
  </g>
 </g>
</svg>
