<?xml version="1.0" encoding="UTF-8" standalone="no"?>
<svg id="svg2817" xmlns:rdf="http://www.w3.org/1999/02/22-rdf-syntax-ns#" xmlns="http://www.w3.org/2000/svg" height="22" width="22" version="1.0" xmlns:cc="http://creativecommons.org/ns#" xmlns:dc="http://purl.org/dc/elements/1.1/">
    <metadata id="metadata57">
        <rdf:RDF>
            <cc:Work rdf:about="">
                <dc:format>
                    image/svg+xml
                </dc:format>
                <dc:type rdf:resource="http://purl.org/dc/dcmitype/StillImage"/>
                <dc:title/>
            </cc:Work>
        </rdf:RDF>
    </metadata>
    <path id="path4432" opacity=".2" d="m11 5.0001c-1.0764 0-2.0907 0.28342-3 0.77539v0.5c0.9093-0.4919 1.9236-0.7754 3-0.7754s2.0907 0.28342 3 0.77539v-0.5c-0.909-0.4919-1.924-0.7754-3-0.7754zm-4.7266 2.1172c-0.7986 0.8397-1.4314 1.879-1.8203 3.0647l-1.3808-0.7971c-0.5699-0.329-0.9109-0.8922-0.9825-1.4961-0.1054 0.7793 0.2567 1.5771 0.9825 1.9961l1.3809 0.79687c0.43864-1.3371 1.1745-2.5042 2.125-3.3887l-0.3048-0.176zm9.4531 0-0.30469 0.17578c0.9505 0.88446 1.6864 2.0516 2.125 3.3887l1.382-0.7971c0.725-0.419 1.088-1.2168 0.982-1.9961-0.071 0.6039-0.412 1.1671-0.982 1.4961l-1.381 0.7971c-0.389-1.1857-1.022-2.225-1.82-3.0647zm-13.636 8.8027c-0.048914 0.41328 0.025039 0.84473 0.25 1.2344 0.554 0.95956 1.7729 1.2845 2.7324 0.73047l0.052734-0.03125c-0.0728-0.129-0.1308-0.269-0.1972-0.403-0.9347 0.446-2.0609 0.116-2.5879-0.797-0.135-0.233-0.216-0.483-0.25-0.734zm17.82 0c-0.03397 0.25126-0.11499 0.50054-0.25 0.73438-0.52696 0.91272-1.6532 1.2428-2.5879 0.79688-0.0664 0.13357-0.12434 0.27376-0.19727 0.40234l0.05273 0.03125c0.95956 0.554 2.1784 0.22909 2.7324-0.73047 0.22496-0.38964 0.29891-0.8211 0.25-1.2344z"/>
    <path id="rect4416" d="m11 1c-1.662 0-3 1.784-3 4v0.77539c0.9093-0.492 1.9236-0.7754 3-0.7754s2.0907 0.28342 3 0.77539v-0.7754c0-2.216-1.338-4-3-4zm-7.0684 4.6562c-0.64 0.0449-1.2455 0.3984-1.5918 0.9981-0.554 0.9596-0.2271 2.1765 0.7325 2.7305l1.3809 0.79688c0.43864-1.3371 1.1745-2.5042 2.125-3.3887l-1.5059-0.8714c-0.3599-0.2078-0.7566-0.2926-1.1407-0.2657zm14.137 0c-0.385-0.0269-0.781 0.0579-1.141 0.2657l-1.5059 0.87109c0.9505 0.88446 1.6864 2.0516 2.125 3.3887l1.381-0.7972c0.959-0.554 1.286-1.7709 0.732-2.7305-0.346-0.5997-0.952-0.9532-1.592-0.9981zm-14.053 7.7208-0.9433 0.545c-0.95956 0.554-1.2864 1.7729-0.73242 2.7324 0.554 0.95956 1.7729 1.2845 2.7324 0.73047l0.052734-0.03125c-0.6539-1.154-1.0501-2.512-1.1094-3.977zm13.969 0c-0.05931 1.4648-0.45547 2.8235-1.1094 3.9766l0.05273 0.03125c0.95956 0.554 2.1784 0.22909 2.7324-0.73047s0.22714-2.1784-0.73242-2.7324l-0.94336-0.54492z" fill="#5db43e"/>
    <rect id="rect4203-4" transform="matrix(0,-1,-1,0,0,0)" rx="8" ry="7" height="14" width="16" y="-18" x="-21" fill="#7f6436"/>
    <path id="rect4406" opacity=".1" d="m11 5c-3.878 0-7 3.568-7 8 0 0.08441 0.00752 0.16624 0.00977 0.25 0.1158-4.3144 3.1861-7.75 6.9902-7.75s6.8744 3.4356 6.9902 7.75c0.002-0.084 0.01-0.166 0.01-0.25 0-4.432-3.122-8-7-8z" fill="#fff"/>
    <path id="rect4411" opacity=".2" d="m4.0098 13.25c-0.00225 0.08376-0.00977 0.1656-0.00977 0.25 0 4.432 3.122 8 7 8s7-3.568 7-8c0-0.08441-0.0075-0.16624-0.0098-0.25-0.116 4.314-3.186 7.75-6.99 7.75-3.8041 0-6.8744-3.436-6.9902-7.75z"/>
    <path id="path4427" opacity=".2" d="m11 1c-1.662 0-3 1.784-3 4v0.5c0-2.216 1.338-4 3-4s3 1.784 3 4v-0.5c0-2.216-1.338-4-3-4zm-7.0684 4.6562c-0.64005 0.044843-1.2455 0.39832-1.5918 0.99805-0.22522 0.39009-0.29927 0.82104-0.25 1.2344 0.033983-0.25106 0.11501-0.50057 0.25-0.73438 0.3463-0.5996 0.9518-0.9531 1.5918-0.998 0.3841-0.0269 0.7808 0.0579 1.1407 0.2657l1.2011 0.6953c0.1022-0.1074 0.197-0.224 0.3047-0.3242l-1.5058-0.8711c-0.3599-0.2078-0.7566-0.2926-1.1407-0.2657zm14.137 0c-0.385-0.0269-0.781 0.0579-1.141 0.2657l-1.5059 0.87109c0.10777 0.10028 0.20256 0.21684 0.30469 0.32422l1.201-0.6953c0.35983-0.20775 0.7566-0.29253 1.1406-0.26562 0.64005 0.044843 1.2455 0.39832 1.5918 0.99805 0.13499 0.23381 0.21602 0.48332 0.25 0.73438 0.04927-0.41333-0.02478-0.84428-0.25-1.2344-0.346-0.5997-0.952-0.9532-1.592-0.9981zm-14.053 7.7208-0.9433 0.545c-0.72575 0.41901-1.0879 1.2182-0.98242 1.998 0.071544-0.60448 0.41251-1.169 0.98242-1.498l0.94336-0.54492c0.052699 1.3014 0.38308 2.5101 0.91211 3.5742 0.047963-0.02288 0.097696-0.03937 0.14453-0.06641l0.052734-0.03125c-0.6539-1.154-1.0501-2.512-1.1094-3.977zm13.969 0c-0.05931 1.4648-0.45547 2.8235-1.1094 3.9766l0.05273 0.03125c0.04683 0.02704 0.09657 0.04353 0.14453 0.06641 0.52903-1.0641 0.85941-2.2728 0.91211-3.5742l0.94336 0.54492c0.56991 0.32904 0.91088 0.89356 0.98242 1.498 0.10548-0.77982-0.25667-1.579-0.98242-1.998l-0.94336-0.54492z" fill="#fff"/>
</svg>
