<svg xmlns="http://www.w3.org/2000/svg" width="22" height="22" version="1">
 <rect style="fill:#3f51b5" width="20" height="20" x="1" y="0" rx="10" ry="10"/>
 <path style="opacity:0.1;fill-rule:evenodd" d="m 17.621514,3.502571 c -0.116693,-0.0121 -0.299857,0.01588 -0.637696,0.1015625 -0.672484,0.170557 -0.8143,0.2221625 -0.80664,0.369141 0.0043,0.082481 0.04791,0.156302 0.166015,0.2890625 L 15.851006,4.7545245 15.71624,4.6207355 c -0.07376,-0.073743 -0.192839,-0.073743 -0.266601,0 L 10.285576,9.783821 c -0.105125,-0.03814 -0.220009,-0.03792 -0.325195,0 L 9.735772,9.559212 c -0.07724,-0.07722 -0.200942,-0.07736 -0.278321,0 l -4.3984369,4.397461 c -0.077379,0.07736 -0.078218,0.202076 -10e-4,0.279296 l 0.19043,0.19043 -1.107422,1.107422 c -0.1880295,0.187978 -0.1880295,0.490733 0,0.678711 l 1.1464845,1.146484 c 0.1880295,0.187978 0.4906815,0.187978 0.678711,0 l 1.1083985,-1.107422 0.1904295,0.19043 c 0.077241,0.07722 0.200942,0.07736 0.2783205,0 l 4.3984369,-4.397461 c 0.07738,-0.07736 0.07822,-0.202076 10e-4,-0.279297 l -0.22461,-0.224609 c 0.03779,-0.104827 0.03781,-0.218421 0,-0.323242 l 5.165039,-5.1640625 c 0.07376,-0.073743 0.07376,-0.192859 0,-0.2666015 L 16.749443,5.652962 17.242607,5.1597975 c 0.128863,0.113718 0.201185,0.156921 0.288086,0.1669925 0.14145,0.01639 0.174259,-0.1521115 0.354492,-0.8222655 0.178013,-0.6618915 0.132901,-0.707962 -0.02246,-0.8632815 -0.0742,-0.07418 -0.124518,-0.1265695 -0.241211,-0.138672 z"/>
 <path style="opacity:0.1;fill:#ffffff" d="M 11,0 C 5.46,0 1,4.46 1,10 1,10.084 1.004,10.1665 1.00585,10.25 1.1382,4.827 5.544,0.5 10.99985,0.5 c 5.45585,0 9.862,4.32695 9.994,9.75 0.002,-0.08343 0.0059,-0.166065 0.0059,-0.25 0,-5.54 -4.46,-10 -10,-10 z"/>
 <path style="opacity:0.2" d="M 1.00585,10.25 C 1.0038,10.3335 1,10.416 1,10.5 c 0,5.54 4.46,10 10,10 5.54,0 10,-4.46 10,-10 0,-0.084 -0.004,-0.1665 -0.006,-0.25 C 20.862,15.673 16.456,20 11,20 5.544,20 1.138,15.673 1.006,10.25 Z"/>
 <rect style="fill:#b6b6b6" width="1.243" height="1.271" x="7.93" y="14.22" transform="matrix(0.70720361,-0.70700993,0.70720361,0.70700993,0,0)"/>
 <rect style="fill:#d5d5d5" width="9.036" height="2.026" x="-.84" y="13.84" rx=".188" ry=".188" transform="matrix(0.70720361,-0.70700993,0.70720361,0.70700993,0,0)"/>
 <rect style="fill:#b6b6b6" width="8.937" height="2.581" x="-8.18" y="13.56" rx=".48" ry=".48" transform="matrix(0.70720361,-0.70700993,0.70720361,0.70700993,0,0)"/>
 <rect style="fill:#3f3f3f" width="6.615" height="3.514" x="-6.14" y="13.09" rx=".197" ry=".197" transform="matrix(0.70720361,-0.70700993,0.70720361,0.70700993,0,0)"/>
 <path style="fill:#d5d5d5;fill-rule:evenodd" d="m 17.863097,3.141119 c 0.155362,0.1553195 0.200138,0.2018955 0.02212,0.863787 C 17.704989,4.67506 17.671798,4.843272 17.530349,4.82688 17.379177,4.80936 17.376898,4.811445 16.784605,4.2193155 16.187382,3.622257 16.184284,3.616006 16.176875,3.4737755 c -0.0077,-0.1469785 0.134927,-0.199002 0.807412,-0.369559 0.675678,-0.1713673 0.730411,-0.1114551 0.87881,0.036905 z"/>
 <path style="fill:#3f3f3f" d="M 15.257395,4.3133895 14.944973,4.625812 16.390574,6.045522 16.703428,5.7331 Z"/>
 <path style="opacity:0.2" d="M 13.819629,11.500395 A 0.79609383,0.78463039 0 0 0 13,12.284576 v 8.430558 a 0.79609383,0.78463039 0 0 0 1.194343,0.67963 l 3.703495,-2.107765 3.703945,-2.107264 a 0.79609383,0.78463039 0 0 0 0,-1.359285 L 17.897838,13.713186 14.194343,11.605071 A 0.79609383,0.78463039 0 0 0 13.819675,11.50052 Z"/>
 <path style="fill:#26a69a" d="M 13.819629,11.000398 A 0.79609383,0.78463039 0 0 0 13,11.784579 v 8.430558 a 0.79609383,0.78463039 0 0 0 1.194343,0.67963 l 3.703495,-2.107765 3.703945,-2.107264 a 0.79609383,0.78463039 0 0 0 0,-1.359285 l -3.703945,-2.107265 -3.703495,-2.108114 a 0.79609383,0.78463039 0 0 0 -0.374668,-0.104551 z"/>
 <path style="opacity:0.2;fill:#ffffff" d="M 13.819332,11.000055 A 0.79609383,0.78463039 0 0 0 13,11.78423 v 0.499998 a 0.79609383,0.78463039 0 0 1 0.819332,-0.784176 0.79609383,0.78463039 0 0 1 0.374998,0.105469 l 3.703105,2.10741 3.704083,2.107411 a 0.79609383,0.78463039 0 0 1 0.356443,0.429685 0.79609383,0.78463039 0 0 0 -0.356443,-0.929682 L 17.897435,13.212934 14.19433,11.105523 a 0.79609383,0.78463039 0 0 0 -0.374998,-0.105468 z"/>
</svg>
