<svg xmlns="http://www.w3.org/2000/svg" width="22" height="22" version="1">
 <rect style="opacity:0.2" width="18" height="20" x="-20" y="1.5" rx="1" ry="1" transform="scale(-1,1)"/>
 <rect style="fill:#e4e4e4" width="18" height="20" x="-20" y="1" rx="1" ry="1" transform="scale(-1,1)"/>
 <rect style="fill:#65424f" width="14" height="14" x="-18" y="3" rx="0" ry="0" transform="scale(-1,1)"/>
 <path style="opacity:0.2;fill:#ffffff" d="M 3,1 C 2.446,1 2,1.446 2,2 l 0,0.5 c 0,-0.554 0.446,-1 1,-1 l 16,0 c 0.554,0 1,0.446 1,1 L 20,2 C 20,1.446 19.554,1 19,1 L 3,1 Z"/>
 <path style="opacity:0.2;fill-rule:evenodd" d="m 12.339777,5.4898319 c -0.110592,-0.00146 -0.213872,0.00341 -0.306641,0.00977 -1.035018,0.070927 -2.031706,1.0772562 -2.033203,2.6093706 l 0,0.00195 c 9.47e-4,0.7886534 0.372406,1.4107065 0.845703,1.8535175 0.473297,0.442811 1.039356,0.754699 1.552735,1.078125 0.513377,0.323426 0.968096,0.652367 1.255859,1.052734 0.282932,0.393647 0.430422,0.86246 0.34375,1.601563 -0.114602,0.512269 -0.396711,0.663957 -0.748047,0.755859 -0.356811,0.09333 -0.703125,0.05078 -0.703125,0.05078 l -0.0332,-0.0039 -0.0332,0 c -0.656581,0 -1.480475,-0.773543 -1.480475,-1.500002 l -1,0 c 0,1.356792 1.165393,2.480653 2.462891,2.492188 0.04462,0.0061 0.490197,0.07182 1.041015,-0.07227 0.577702,-0.151114 1.295877,-0.614984 1.486328,-1.529297 l 0.0039,-0.01953 0.002,-0.01953 C 15.118952,12.883103 14.8873,12.096405 14.46677,11.511317 14.04624,10.926228 13.472663,10.537723 12.931614,10.196864 12.390564,9.856004 11.874818,9.557264 11.52927,9.233972 11.184133,8.9111425 11.001054,8.6118881 10.999933,8.1109256 l 0,-0.00195 c 0.0021,-1.1038096 0.695501,-1.5835 1.101562,-1.6113281 0.324311,-0.022225 0.487991,-0.00759 0.59961,0.097656 0.111619,0.1052422 0.298828,0.4658101 0.298828,1.404294 l 1,0 c 0,-1.0615161 -0.181998,-1.726147 -0.613281,-2.1328125 C 13.063189,5.5617859 12.671553,5.4942151 12.339777,5.4898319 Z M 7,5.4995975 7,15.499599 l 1,0 0,-10.0000015 z"/>
 <path style="fill:none;stroke:#ffffff;stroke-width:1.00010812" d="m 13.500054,7.4997963 c 0,-2 -0.738113,-2.047654 -1.433497,-2 -0.720688,0.04939 -1.565214,0.7915875 -1.566503,2.1104075 0.0031,2.5818082 4.438813,2.2184322 3.9997,5.6776582 C 14.198452,14.734346 12.480078,14.5 12.480078,14.5 c -0.981051,0 -1.980024,-0.954889 -1.980024,-2"/>
 <rect style="fill:#ffffff" width="1" height="10" x="7" y="5"/>
</svg>
