<svg width="22" height="22" version="1.1" xmlns="http://www.w3.org/2000/svg">
 <g transform="matrix(.5 0 0 .5 -1 -1)">
  <rect x="4" y="4" width="40" height="40" rx="2" ry="2" style="fill:#636e72"/>
  <path d="m6 4c-1.108 0-2 0.892-2 2v1c0-1.108 0.892-2 2-2h36c1.108 0 2 0.892 2 2v-1c0-1.108-0.892-2-2-2z" style="fill:#ffffff;opacity:.1"/>
  <path d="m6 45c-1.108 0-2-0.892-2-2v-1c0 1.108 0.892 2 2 2h36c1.108 0 2-0.892 2-2v1c0 1.108-0.892 2-2 2z" style="opacity:.2"/>
  <path d="m24 10.062481c-3.212038 0-6.141323 1.002803-8.302167 2.686687-2.160845 1.683885-3.564541 4.093135-3.564541 6.773402v0.968705c-2.1454554 1.086996-3.6326273 3.938364-3.6326273 7.280449 0 4.277797 2.4337453 7.749633 5.5700583 7.749633v-15.998566c0-2.007155 1.038906-3.854446 2.822892-5.24462 1.783765-1.390395 4.303532-2.278171 7.106718-2.278171 2.803296 0 5.32251 0.887798 7.106496 2.27795 1.783986 1.390151 2.822892 3.237465 2.822892 5.24462v15.998566c3.136424 0 5.569837-3.471836 5.569837-7.749634 0-3.342307-1.48684-6.193065-3.632407-7.280227v-0.968705c0-2.680267-1.403696-5.089517-3.56454-6.773402-2.161065-1.683995-5.090461-2.686798-8.302168-2.686798z" style="fill:#319dd5"/>
  <path d="m24 10.062481c-3.211706 0-6.139994 1.00391-8.30106 2.687684-2.160955 1.683884-3.565759 4.092249-3.565759 6.772516v0.968704c-2.1453444 1.087163-3.632627 3.937921-3.632627 7.280228 0 0.226953 0.010407 0.448372 0.023803 0.669789 0.1247706-3.148565 1.558801-5.804476 3.608824-6.842926v-0.968705c0-2.680266 1.404804-5.088631 3.565759-6.772516 2.161066-1.683774 5.089354-2.687684 8.30106-2.687684 3.211708 0 6.139996 1.00391 8.301061 2.687684 2.161066 1.683885 3.56598 4.09225 3.56598 6.772516v0.968705c2.049248 1.03845 3.484054 3.694361 3.609156 6.842926 0.01329-0.221417 0.02325-0.442836 0.02325-0.669789 0-3.342307-1.48684-6.193065-3.632406-7.280228v-0.968704c0-2.680267-1.404914-5.088632-3.56598-6.772516-2.161065-1.683774-5.089353-2.687684-8.301061-2.687684z" style="fill:#ffffff;opacity:.2"/>
  <path d="m24 12c-2.803296 0-5.323506 0.886735-7.107492 2.276843-1.783986 1.390173-2.821896 3.238793-2.821896 5.245948v1.107091c0-2.007155 1.037832-3.855554 2.821786-5.245728 1.783542-1.390173 4.304417-2.276953 7.107602-2.276953 2.803297 0 5.323507 0.886725 7.107493 2.276843 1.783986 1.390173 2.821785 3.238572 2.821785 5.245727v-1.10709c0-2.007156-1.037832-3.855554-2.821785-5.245728-1.783544-1.390284-4.304418-2.277064-7.107603-2.277064zm-15.47509 16.441402c-0.00587 0.147244-0.023803 0.288951-0.023803 0.437301 1e-7 4.277798 2.4337457 7.749634 5.5700587 7.749634v-1.107091c-2.970248 0-5.3067895-3.115353-5.5462557-7.079844zm30.951287 0c-0.239134 3.964491-2.575121 7.079844-5.54548 7.079844v1.107091c3.136424 0 5.569837-3.471836 5.569837-7.749634 0-0.148572-0.01798-0.290268-0.02378-0.436781z" style="opacity:.2"/>
  <path d="m27.967367 21.003902a1.0001 1.0001 0 0 0-0.894531 0.662109l-4.111328 11.513672-3.019532-7.548828a1.0001 1.0001 0 0 0-1.728515-0.228515l-2.699219 3.599609h-2.5a1.0001 1.0001 0 1 0 0 2h3a1.0001 1.0001 0 0 0 0.800781-0.400391l1.931641-2.576171 3.339844 8.347656a1.0001 1.0001 0 0 0 1.86914-0.03516l4.160156-11.646485 2.984376 6.716797a1.0001 1.0001 0 0 0 0.914062 0.593754h4a1.0001 1.0001 0 1 0 0-2h-3.349609l-3.736329-8.40625a1.0001 1.0001 0 0 0-0.960937-0.591797z" style="opacity:.2"/>
  <path d="m27.967367 20.003953a1.0001 1.0001 0 0 0-0.894531 0.662109l-4.111328 11.513672-3.019532-7.548828a1.0001 1.0001 0 0 0-1.728515-0.228515l-2.699219 3.599609h-2.5a1.0001 1.0001 0 1 0 0 2h3a1.0001 1.0001 0 0 0 0.800781-0.400391l1.931641-2.576171 3.339844 8.347656a1.0001 1.0001 0 0 0 1.86914-0.03516l4.160156-11.646485 2.984376 6.716797a1.0001 1.0001 0 0 0 0.914062 0.593754h4a1.0001 1.0001 0 1 0 0-2h-3.349609l-3.736329-8.40625a1.0001 1.0001 0 0 0-0.960937-0.591797z" style="fill:#ff395d"/>
  <path d="m27.967367 20.003953a1.0001 1.0001 0 0 0-0.894531 0.662109l-4.111328 11.513672-3.019532-7.548828a1.0001 1.0001 0 0 0-1.728515-0.228515l-2.699219 3.599609h-2.5a1.0001 1.0001 0 0 0-0.878906 1.5 1.0001 1.0001 0 0 1 0.878906-0.5h2.5l2.699219-3.599609a1.0001 1.0001 0 0 1 1.728515 0.228515l3.019532 7.548828 4.111328-11.513672a1.0001 1.0001 0 0 1 0.894531-0.662109 1.0001 1.0001 0 0 1 0.960937 0.591797l3.736329 8.40625h3.349609a1.0001 1.0001 0 0 1 0.878906 0.5 1.0001 1.0001 0 0 0-0.878906-1.5h-3.349609l-3.736329-8.40625a1.0001 1.0001 0 0 0-0.960937-0.591797z" style="fill:#ffffff;opacity:.2"/>
 </g>
</svg>
