<svg xmlns="http://www.w3.org/2000/svg" width="22" height="22" version="1">
 <rect style="opacity:0.2" width="20" height="20" x="1" y="1.5" rx="1" ry="1"/>
 <rect style="fill:#d64b60" width="20" height="20" x="1" y="1" rx="1" ry="1"/>
 <path style="fill:#ffff6c" d="M 10.578,2 C 10.231,2.0013 9.9343,2.0392 9.6117,2.1209 9.056,2.2617 8.5464,2.5191 8.0689,2.9003 7.7378,3.1645 7.4029,3.5212 7.187,3.8394 6.9083,4.25 6.7307,4.7456 6.6705,5.2807 6.641,5.5424 6.6404,5.6383 6.6671,5.7817 6.6932,5.9222 6.6983,5.9745 6.6974,6.0925 6.6967,6.1802 6.6982,6.2074 6.7056,6.2379 6.7139,6.2723 6.714,6.2763 6.7064,6.2879 6.6889,6.3146 6.6387,6.3296 6.5402,6.3374 6.4005,6.3485 6.0895,6.3234 5.7991,6.2777 5.7581,6.2712 5.7225,6.2678 5.72,6.2701 5.7142,6.2754 5.7214,6.3132 5.7503,6.4317 5.8147,6.6947 5.9153,6.9064 6.0482,7.0585 6.1859,7.2162 6.2915,7.3175 6.4249,7.4198 6.5364,7.5053 6.5484,7.5215 6.5292,7.5611 6.5089,7.6031 6.445,7.6403 6.3203,7.6828 6.2508,7.7065 6.124,7.7401 6.0185,7.7627 5.9938,7.768 5.9792,7.7736 5.9804,7.7772 5.983,7.785 6.0662,7.821 6.1342,7.8437 6.3066,7.9012 6.4504,7.9196 6.6553,7.9103 6.7208,7.9074 6.7892,7.9069 6.8098,7.9092 6.873,7.9164 6.9121,7.9398 6.9348,7.9842 6.9463,8.0068 6.9475,8.015 6.9472,8.0708 6.9471,8.1047 6.9426,8.1718 6.9373,8.2198 6.9296,8.2891 6.9275,8.3506 6.9268,8.5178 6.9259,8.74 6.9217,8.8066 6.8958,9.0086 6.8824,9.1131 6.8691,9.1964 6.8395,9.3605 6.8235,9.449 6.7871,9.6983 6.5905,11.064 6.5267,11.507 6.5106,11.608 6.4537,11.927 6.36,12.451 6.3042,12.646 6.2262,12.723 6.192,12.757 6.1626,12.769 6.1069,12.773 6.0066,12.781 5.8739,12.73 5.7149,12.624 5.3972,12.412 4.9688,11.981 4.4689,11.371 4.4254,11.318 4.388,11.275 4.3857,11.275 4.3781,11.275 4.3764,11.282 4.3608,11.388 4.2942,11.841 4.2822,12.279 4.3246,12.713 4.3441,12.911 4.3998,13.292 4.4295,13.43 4.4795,13.661 4.5231,13.783 4.6433,14.029 4.6873,14.119 4.7237,14.2 4.7288,14.22 4.7374,14.253 4.7373,14.255 4.7274,14.279 4.6794,14.395 4.3851,14.373 3.9133,14.218 3.4832,14.076 3.0771,13.892 2.7094,13.673 2.3599,13.465 1.9951,13.184 1.6777,12.88 1.6408,12.844 1.6093,12.816 1.608,12.818 1.6065,12.819 1.6067,12.822 1.6179,12.844 1.6134,12.835 1.6094,12.827 1.6073,12.823 1.593,12.795 1.5825,12.781 1.5758,12.781 V 12.781 C 1.5682,12.781 1.5655,12.8 1.5677,12.837 1.5691,12.861 1.5726,12.922 1.5755,12.973 1.6038,13.481 1.6836,13.979 1.8299,14.564 2.0008,15.247 2.2615,15.783 2.6559,16.264 2.6783,16.291 2.6892,16.308 2.685,16.309 2.6758,16.312 2.4401,16.193 2.321,16.125 2.1686,16.038 2.0209,15.942 1.8465,15.816 1.8303,15.804 1.8155,15.796 1.8136,15.798 1.8071,15.804 1.8802,15.935 1.9491,16.04 2.05,16.194 2.1433,16.309 2.2763,16.441 2.4387,16.604 2.5329,16.674 2.9185,16.924 3.3421,17.198 3.5915,17.338 3.8645,17.454 4.3073,17.644 4.7681,17.763 5.2801,17.82 9.0043,17.911 13.015,18.948 16.296,18.069 16.626,17.978 17.334,17.684 17.701,17.486 18.109,17.265 18.457,17.022 18.804,16.713 18.891,16.636 19.139,16.39 19.216,16.305 19.353,16.153 19.529,15.939 19.522,15.932 19.518,15.928 19.502,15.937 19.267,16.067 19.082,16.17 18.957,16.241 18.57,16.463 18.436,16.54 18.374,16.571 18.366,16.563 18.358,16.554 18.382,16.531 18.545,16.387 18.938,16.042 19.175,15.788 19.429,15.439 19.585,15.224 19.881,14.762 20.001,14.545 20.173,14.234 20.315,13.884 20.408,13.538 20.417,13.504 20.426,13.474 20.429,13.471 L 20.433,13.145 20.339,13.246 C 20.288,13.301 20.232,13.363 20.215,13.383 20.199,13.401 20.182,13.42 20.166,13.439 20.179,13.423 20.186,13.413 20.186,13.411 20.186,13.405 20.201,13.398 20.035,13.478 19.527,13.721 19.003,13.927 18.547,14.062 18.125,14.187 17.947,14.21 17.378,14.211 17.072,14.211 17.056,14.21 16.984,14.188 16.943,14.175 16.906,14.145 16.897,14.116 16.889,14.089 16.901,14.051 16.935,14 16.95,13.978 16.99,13.919 17.023,13.869 17.093,13.766 17.147,13.661 17.197,13.528 17.245,13.403 17.375,13.043 17.406,12.952 17.547,12.531 17.625,12.13 17.653,11.68 17.659,11.58 17.66,11.495 17.654,11.495 17.652,11.495 17.623,11.526 17.589,11.563 17.443,11.722 17.213,11.919 17.049,12.026 16.921,12.11 16.739,12.196 16.196,12.432 15.75,12.626 15.66,12.658 15.554,12.659 15.498,12.659 15.496,12.659 15.458,12.64 15.386,12.604 15.371,12.576 15.26,12.274 15.092,11.814 15.075,11.762 15.028,11.575 14.933,11.202 14.844,10.737 14.773,10.239 14.73,9.9363 14.705,9.6983 14.683,9.3965 14.662,9.0977 14.657,9.0294 14.642,8.9134 14.622,8.7542 14.616,8.6793 14.612,8.514 14.607,8.3475 14.611,8.2618 14.626,8.2232 14.655,8.1465 14.704,8.12 14.855,8.099 14.992,8.0801 15.052,8.0611 15.13,8.0129 15.18,7.9819 15.259,7.903 15.296,7.8468 15.328,7.7973 15.365,7.7259 15.361,7.7213 15.359,7.7196 15.33,7.7276 15.296,7.739 15.22,7.7642 15.156,7.7753 15.084,7.7753 14.909,7.7753 14.704,7.6925 14.704,7.6216 14.704,7.602 14.737,7.5754 14.807,7.5393 14.958,7.4609 15.028,7.4013 15.164,7.2339 15.296,7.0707 15.369,6.9497 15.449,6.7631 15.502,6.6397 15.583,6.3792 15.575,6.3589 15.573,6.3542 15.558,6.359 15.522,6.3758 15.329,6.4659 15.084,6.5317 14.894,6.5449 14.837,6.5489 14.772,6.5412 14.73,6.5257 14.694,6.512 14.66,6.4784 14.654,6.4514 14.652,6.4396 14.655,6.3924 14.662,6.334 14.668,6.2803 14.677,6.189 14.681,6.131 14.685,6.0731 14.694,5.9841 14.701,5.9332 14.721,5.7839 14.726,5.681 14.723,5.4733 14.714,4.9461 14.647,4.5779 14.487,4.1821 14.219,3.5181 13.78,3.0105 13.147,2.6307 12.814,2.4312 12.389,2.2492 12.034,2.1542 11.719,2.07 11.43,2.027 11.099,2.0153 11.02,2.0124 10.898,2.0078 10.827,2.0049 10.741,2.0014 10.658,1.9998 10.578,2 Z"/>
 <path style="opacity:0.4;fill:#c91919" d="M 10.535,4.9245 V 4.9246 C 10.535,4.9246 10.535,4.9247 10.534,4.9249 10.534,4.9249 10.534,4.925 10.534,4.9251 10.533,4.9253 10.533,4.9255 10.532,4.9258 10.532,4.9259 10.532,4.9261 10.532,4.9263 10.531,4.9266 10.531,4.927 10.53,4.9274 10.53,4.9277 10.53,4.928 10.529,4.9283 10.529,4.9285 10.529,4.9288 10.528,4.929 10.527,4.9303 10.525,4.9319 10.523,4.934 10.523,4.9341 10.523,4.9342 10.523,4.9344 10.522,4.9351 10.521,4.9362 10.52,4.937 10.518,4.9393 10.515,4.9418 10.512,4.9449 10.511,4.9466 10.509,4.9485 10.507,4.9504 10.505,4.9533 10.502,4.9564 10.498,4.9598 10.497,4.9617 10.495,4.9638 10.493,4.9659 10.482,4.9776 10.468,4.9928 10.451,5.0112 10.45,5.0131 10.449,5.0141 10.447,5.0161 10.386,5.0833 10.321,5.1532 10.253,5.2245 10.231,5.2483 10.208,5.2722 10.185,5.2963 10.116,5.3684 10.045,5.4415 9.9736,5.5144 9.9497,5.5387 9.9256,5.563 9.9016,5.5871 9.8534,5.6355 9.8051,5.6836 9.757,5.7309 9.7207,5.7667 9.6847,5.8018 9.6488,5.8366 9.6142,5.8701 9.5799,5.9032 9.546,5.9355 9.545,5.9364 9.5441,5.9374 9.5431,5.9383 9.5419,5.9395 9.5407,5.9406 9.5395,5.9418 9.4707,6.0073 9.4036,6.0701 9.3394,6.129 9.2406,6.2195 9.1791,6.2752 9.1413,6.3078 9.1401,6.3089 9.1383,6.3104 9.1372,6.3114 9.1365,6.312 9.136,6.3125 9.1353,6.3131 9.1277,6.3196 9.1212,6.325 9.1157,6.3295 9.1151,6.33 9.1143,6.3306 9.1138,6.331 9.1131,6.3316 9.1126,6.332 9.1119,6.3325 9.1073,6.3361 9.1036,6.3389 9.1005,6.3411 9.0999,6.3415 9.0991,6.3421 9.0986,6.3424 9.0967,6.3437 9.095,6.3447 9.0937,6.3454 9.093,6.3457 9.0924,6.346 9.0919,6.3462 9.0909,6.3467 9.0901,6.3468 9.0894,6.3468 9.0893,6.3468 9.0893,6.3468 9.0893,6.3468 9.089,6.3467 9.0887,6.3467 9.0885,6.3465 9.0881,6.3462 9.0879,6.3457 9.0879,6.345 9.0879,6.3439 9.1411,6.1925 9.2061,6.0084 9.2711,5.8244 9.3242,5.6709 9.3241,5.6674 9.3241,5.666 9.3239,5.6652 9.3234,5.6649 9.3229,5.6646 9.3222,5.6649 9.3211,5.6658 9.315,5.6712 9.2985,5.6993 9.263,5.7637 9.1512,5.9662 9.0319,6.1902 8.928,6.3908 8.8835,6.4768 8.8418,6.5585 8.8047,6.6324 8.78,6.6816 8.7574,6.7273 8.7374,6.7686 8.7023,6.8407 8.6752,6.899 8.659,6.9378 8.6567,6.9433 8.6546,6.9484 8.6527,6.9532 8.6505,6.9586 8.648,6.9653 8.6451,6.9728 8.6366,6.9956 8.6252,7.027 8.6128,7.0623 8.6045,7.0858 8.5957,7.111 8.5869,7.1365 8.5781,7.1621 8.5694,7.1879 8.5611,7.2127 8.5509,7.2432 8.5416,7.2708 8.5332,7.2956 8.5123,7.3571 8.4965,7.4017 8.4836,7.4349 8.4835,7.4353 8.4833,7.4358 8.4831,7.4363 8.4831,7.4364 8.4831,7.4365 8.483,7.4366 8.4815,7.4404 8.4801,7.4439 8.4787,7.4474 8.4774,7.4507 8.4761,7.454 8.4749,7.457 8.4745,7.458 8.4741,7.4589 8.4737,7.4598 8.4558,7.5026 8.4436,7.5213 8.4292,7.5347 L 8.4141,7.5489 8.42,7.5991 C 8.4379,7.7509 8.457,7.8108 8.4932,7.8284 8.5111,7.8371 8.5212,7.8359 8.5601,7.8208 8.6229,7.7965 8.8001,7.6828 8.8816,7.6147 8.9823,7.5304 9.2166,7.3156 9.4681,7.0769 9.5289,7.0192 9.6238,6.9292 9.6789,6.8769 L 9.7751,6.7856 C 9.7815,6.7723 9.7947,6.7413 9.8113,6.7007 L 9.8191,6.6812 C 9.8379,6.6339 9.8804,6.5266 9.9177,6.4324 9.93,6.4012 9.9424,6.3699 9.9548,6.3387 9.9695,6.3019 9.9842,6.2649 9.9994,6.2268 10.006,6.2113 10.012,6.1959 10.018,6.1804 10.033,6.144 10.047,6.1076 10.062,6.0704 10.08,6.027 10.098,5.9836 10.115,5.9402 10.117,5.935 10.119,5.9298 10.122,5.9245 10.232,5.653 10.345,5.3821 10.459,5.1143 10.462,5.1078 10.465,5.1023 10.467,5.096 10.506,5.0034 10.537,4.93 10.537,4.9276 10.537,4.927 10.537,4.9266 10.537,4.9261 10.537,4.9261 10.537,4.926 10.537,4.9259 10.537,4.9256 10.537,4.9253 10.537,4.9251 10.537,4.9251 10.537,4.925 10.536,4.925 10.536,4.9249 10.536,4.9249 10.536,4.9248 10.536,4.9247 10.536,4.9246 10.536,4.9246 10.536,4.9246 10.536,4.9246 10.536,4.9246 Z M 12.325,5.2773 12.312,5.2867 C 12.312,5.2873 12.307,5.2909 12.305,5.2929 12.3,5.2976 12.291,5.3053 12.278,5.3164 12.249,5.3417 12.206,5.3795 12.157,5.4222 12.115,5.4594 12.072,5.497 12.028,5.5347 11.724,5.7988 11.394,6.0732 11.076,6.3245 10.838,6.5127 10.693,6.6237 10.682,6.625 10.682,6.625 10.682,6.625 10.682,6.6249 10.682,6.6249 10.681,6.6248 10.681,6.6247 10.681,6.6245 10.681,6.6242 10.681,6.6237 10.682,6.6233 10.682,6.6227 10.682,6.622 10.684,6.6165 10.691,6.6031 10.703,6.5806 10.706,6.575 10.71,6.5688 10.713,6.562 10.744,6.5078 10.798,6.4161 10.88,6.2774 10.901,6.2428 10.924,6.2051 10.948,6.1644 10.984,6.1038 11.011,6.0582 11.032,6.0239 11.072,5.9553 11.086,5.9319 11.09,5.9231 11.09,5.9209 11.091,5.9196 11.091,5.9188 11.091,5.9183 11.091,5.918 11.091,5.9178 11.09,5.9176 11.09,5.9176 11.09,5.9175 11.09,5.9173 11.09,5.9172 11.09,5.9171 11.09,5.917 11.09,5.9172 11.089,5.9176 11.089,5.9177 11.089,5.9177 11.089,5.9177 11.088,5.9181 11.088,5.9187 11.087,5.9194 11.087,5.9196 11.087,5.9198 11.086,5.92 11.085,5.9214 11.083,5.9237 11.081,5.926 11.079,5.9278 11.077,5.9299 11.074,5.9323 11.072,5.9353 11.069,5.9384 11.065,5.9423 11.063,5.9444 11.061,5.947 11.058,5.9494 11.054,5.954 11.05,5.9586 11.044,5.9643 11.034,5.9752 11.02,5.9903 11.007,6.0049 10.845,6.1806 10.471,6.5941 10.125,6.9784 9.9044,7.2243 9.6789,7.4764 9.5431,7.6291 9.4696,7.712 9.4215,7.7672 9.4172,7.774 9.4208,7.7769 9.4434,7.7738 9.5245,7.7597 10.311,7.6238 11.042,7.3049 11.692,6.8135 11.732,6.7829 11.768,6.7579 11.77,6.7579 11.773,6.7579 11.775,6.7637 11.775,6.7708 11.775,6.8062 11.7,7.1209 11.649,7.2973 11.623,7.3881 11.556,7.6004 11.547,7.6224 11.544,7.6277 11.545,7.6314 11.548,7.6314 11.567,7.6314 11.901,7.3074 12.024,7.169 12.252,6.9138 12.44,6.6584 12.617,6.3642 L 12.677,6.2656 C 12.678,6.2546 12.679,6.236 12.679,6.217 V 6.2163 6.2147 C 12.679,6.1878 12.681,6.1658 12.687,6.1414 12.688,6.1389 12.688,6.1364 12.689,6.1339 12.689,6.132 12.69,6.13 12.69,6.1281 12.69,6.1278 12.691,6.1275 12.691,6.1272 12.702,6.0885 12.723,6.0414 12.764,5.9596 12.807,5.873 12.838,5.804 12.861,5.746 12.87,5.7228 12.877,5.7014 12.884,5.6812 12.887,5.6711 12.89,5.6614 12.893,5.6519 12.895,5.6444 12.897,5.6361 12.899,5.6273 12.913,5.5654 12.926,5.4768 12.921,5.4711 12.92,5.4704 12.919,5.4698 12.919,5.4694 12.918,5.4689 12.917,5.4686 12.917,5.4683 12.916,5.4681 12.916,5.468 12.915,5.468 12.915,5.4681 12.914,5.4682 12.914,5.4685 12.913,5.4697 12.887,5.5031 12.857,5.5427 12.845,5.5574 12.834,5.5722 12.822,5.5871 12.786,5.6318 12.749,5.6769 12.711,5.7221 12.66,5.7823 12.607,5.8426 12.552,5.9015 12.539,5.9163 12.525,5.931 12.512,5.9455 12.484,5.9747 12.457,6.0034 12.429,6.0316 12.402,6.0598 12.374,6.0875 12.347,6.1144 12.32,6.1413 12.292,6.1676 12.265,6.193 12.252,6.2056 12.239,6.2181 12.225,6.2304 12.207,6.247 12.192,6.2605 12.18,6.271 12.171,6.2788 12.163,6.285 12.157,6.2896 12.153,6.2927 12.149,6.2951 12.147,6.2968 12.144,6.2985 12.142,6.2995 12.14,6.2999 12.139,6.3001 12.138,6.3002 12.138,6.3001 12.137,6.3 12.137,6.2997 12.136,6.2993 12.136,6.2989 12.136,6.2983 12.136,6.2976 12.136,6.2969 12.136,6.296 12.136,6.295 12.136,6.294 12.136,6.2928 12.137,6.2915 12.141,6.2785 12.152,6.2279 12.167,6.1602 12.176,6.1151 12.187,6.0624 12.198,6.0081 12.21,5.9538 12.221,5.898 12.231,5.8467 12.236,5.821 12.241,5.7965 12.245,5.7738 12.267,5.6599 12.301,5.4602 12.316,5.3577 12.322,5.3235 12.325,5.3001 12.325,5.2943 Z M 13.576,5.9678 V 5.9678 C 13.575,5.9678 13.575,5.9679 13.575,5.968 13.575,5.9681 13.575,5.9682 13.575,5.9683 13.575,5.9684 13.574,5.9686 13.574,5.9688 13.574,5.9699 13.573,5.9722 13.572,5.9761 13.571,5.9782 13.571,5.9809 13.57,5.9842 13.568,5.9906 13.566,6 13.564,6.0116 13.562,6.0225 13.559,6.0368 13.555,6.0535 13.554,6.0575 13.554,6.0599 13.553,6.0643 13.514,6.252 13.461,6.4239 13.39,6.5938 13.334,6.7296 13.267,6.8606 13.191,6.9858 13.189,6.9903 13.186,6.9947 13.183,6.9992 13.182,7.0022 13.18,7.0052 13.178,7.0082 13.132,7.0835 13.082,7.1559 13.027,7.2297 13.019,7.24 13.009,7.2519 13,7.2644 12.97,7.3018 12.94,7.3385 12.909,7.3745 12.906,7.3779 12.903,7.3812 12.9,7.3846 12.869,7.4217 12.841,7.4533 12.826,7.4667 12.826,7.467 12.826,7.4672 12.826,7.4674 12.825,7.468 12.824,7.4689 12.824,7.4694 12.823,7.4703 12.822,7.4714 12.821,7.4724 12.811,7.483 12.808,7.4905 12.808,7.5028 12.808,7.5317 12.828,7.7244 12.832,7.7301 12.833,7.733 12.85,7.7204 12.869,7.7022 12.888,7.684 13.007,7.5713 13.134,7.4518 L 13.365,7.235 C 13.365,7.2342 13.366,7.2328 13.366,7.2318 L 13.403,7.1234 C 13.412,7.095 13.422,7.0662 13.431,7.0369 13.432,7.0311 13.434,7.0253 13.436,7.0195 13.438,7.0129 13.44,7.0063 13.442,6.9996 13.445,6.9897 13.447,6.9801 13.45,6.9704 13.49,6.8283 13.522,6.6781 13.544,6.5278 13.558,6.4358 13.568,6.3421 13.575,6.2446 13.579,6.1782 13.582,6.1137 13.583,6.0639 13.583,6.0567 13.583,6.0496 13.583,6.0431 V 6.0409 C 13.583,6.0074 13.582,5.9835 13.58,5.9748 13.58,5.9743 13.58,5.9739 13.579,5.9736 13.579,5.9731 13.579,5.9726 13.579,5.9722 13.579,5.9722 13.579,5.9721 13.579,5.9721 13.578,5.9705 13.577,5.9689 13.576,5.9682 13.576,5.968 13.576,5.9678 13.576,5.9678 Z M 14.458,7.0195 C 14.458,7.0195 14.458,7.0196 14.457,7.0198 14.457,7.0199 14.457,7.02 14.457,7.0201 14.457,7.0203 14.457,7.0204 14.456,7.0205 14.456,7.0207 14.456,7.0209 14.456,7.0211 14.455,7.0213 14.455,7.0215 14.455,7.0217 14.454,7.0224 14.454,7.0234 14.453,7.0244 14.452,7.0252 14.451,7.0261 14.451,7.027 14.45,7.0278 14.449,7.0285 14.449,7.0293 14.448,7.0304 14.447,7.0318 14.446,7.0331 14.446,7.0341 14.445,7.035 14.444,7.0361 14.444,7.0368 14.443,7.0377 14.443,7.0384 14.44,7.0431 14.436,7.0486 14.432,7.0551 14.428,7.0627 14.422,7.0715 14.416,7.0817 14.344,7.2013 14.259,7.3271 14.166,7.4523 14.142,7.4847 14.119,7.516 14.096,7.5449 14.009,7.6579 13.916,7.7696 13.818,7.8775 13.739,7.9649 13.659,8.0475 13.581,8.1225 13.512,8.1898 13.441,8.2546 13.37,8.3162 13.322,8.3584 13.283,8.3921 13.257,8.4117 13.232,8.4326 13.229,8.4335 13.227,8.4278 13.226,8.4265 13.225,8.4247 13.225,8.4228 13.222,8.4138 13.215,8.4293 13.191,8.5004 13.132,8.6781 13.067,8.8331 12.975,9.0128 12.942,9.0759 12.916,9.1285 12.916,9.1297 12.916,9.1352 12.925,9.128 12.996,9.0672 13.038,9.0316 13.079,8.9997 13.086,8.9963 13.124,8.9797 13.446,8.6665 13.589,8.5076 13.779,8.2954 13.945,8.0863 14.095,7.8683 14.179,7.7449 14.257,7.6239 14.257,7.6149 14.257,7.6143 14.257,7.6131 14.258,7.6115 14.257,7.6112 14.257,7.6109 14.257,7.6107 14.257,7.6092 14.272,7.5854 14.29,7.5579 14.302,7.5393 14.314,7.5202 14.325,7.5007 14.328,7.4958 14.33,7.4909 14.333,7.486 14.336,7.481 14.338,7.4761 14.341,7.4711 14.346,7.4612 14.351,7.4511 14.356,7.441 14.359,7.4359 14.361,7.4308 14.364,7.4257 14.371,7.4104 14.378,7.3949 14.384,7.3793 14.386,7.3741 14.388,7.3689 14.39,7.3637 14.395,7.3532 14.399,7.3427 14.402,7.3321 14.406,7.3216 14.41,7.311 14.413,7.3003 14.417,7.2897 14.42,7.2791 14.423,7.2684 14.426,7.2577 14.429,7.247 14.432,7.2363 14.435,7.2256 14.437,7.2149 14.44,7.2042 14.442,7.1935 14.444,7.1828 14.446,7.1722 14.449,7.1562 14.452,7.1402 14.454,7.1243 14.456,7.1137 14.457,7.1031 14.458,7.0926 14.459,7.0821 14.46,7.0716 14.46,7.0612 14.461,7.054 14.461,7.0478 14.462,7.0424 14.462,7.0416 14.462,7.041 14.462,7.0403 14.462,7.0385 14.462,7.0368 14.462,7.0352 V 7.0327 C 14.462,7.0315 14.462,7.0304 14.462,7.0294 14.462,7.0286 14.462,7.0279 14.462,7.0272 14.462,7.0263 14.462,7.0255 14.461,7.0248 14.461,7.0238 14.461,7.0229 14.461,7.0222 14.461,7.022 14.461,7.0218 14.461,7.0216 14.461,7.0214 14.461,7.0212 14.46,7.021 14.46,7.0208 14.46,7.0207 14.46,7.0206 14.46,7.0204 14.46,7.0203 14.46,7.0201 14.46,7.02 14.46,7.02 14.46,7.0199 14.459,7.0198 14.459,7.0197 14.459,7.0197 14.459,7.0196 14.459,7.0195 14.458,7.0196 Z M 7.8439,7.038 C 7.8436,7.038 7.8433,7.038 7.8431,7.0381 7.8343,7.0403 7.8341,7.0763 7.8434,7.1549 7.8437,7.1574 7.8441,7.1604 7.8444,7.163 7.8454,7.1709 7.8464,7.1788 7.8475,7.1876 7.849,7.199 7.8507,7.2111 7.8525,7.224 7.8562,7.2501 7.8605,7.2792 7.8655,7.3114 7.868,7.3275 7.8707,7.3445 7.8736,7.3622 7.8745,7.3678 7.8755,7.374 7.8764,7.3798 7.8844,7.4287 7.8935,7.4831 7.9039,7.5441 7.9058,7.555 7.9075,7.5647 7.9091,7.5741 7.9149,7.6063 7.9205,7.6351 7.9251,7.6562 7.9298,7.6765 7.9334,7.687 7.9367,7.6906 7.9419,7.6962 7.9847,7.7575 8.0319,7.8267 8.079,7.896 8.164,8.0191 8.2207,8.1003 8.2774,8.1816 8.3259,8.2481 8.3285,8.2481 8.3311,8.2481 8.3318,8.2372 8.3301,8.2237 8.3284,8.2102 8.312,8.0513 8.2935,7.8704 8.2751,7.6895 8.259,7.5369 8.2577,7.5313 8.2567,7.527 8.2466,7.5177 8.2319,7.5071 L 8.2188,7.4987 C 8.2084,7.492 8.1984,7.4853 8.1885,7.4785 8.1323,7.4406 8.0827,7.3976 8.0387,7.3486 7.9886,7.2932 7.9468,7.2308 7.9098,7.1577 7.9098,7.1576 7.9098,7.1576 7.9098,7.1576 7.9074,7.1529 7.905,7.1481 7.9027,7.1433 7.8814,7.0995 7.8611,7.0579 7.8577,7.0508 7.856,7.0473 7.8535,7.0441 7.851,7.0418 7.8508,7.0415 7.8505,7.0413 7.8502,7.0411 7.8492,7.0403 7.8482,7.0395 7.8473,7.039 7.8461,7.0384 7.845,7.038 7.8439,7.038 Z M 14.381,8.2481 C 14.378,8.2481 14.363,8.2728 14.346,8.3032 14.271,8.4451 14.044,8.827 13.968,8.9405 13.831,9.1465 13.718,9.2642 13.549,9.3768 13.482,9.4209 13.364,9.4835 13.288,9.5146 13.26,9.5262 13.233,9.5378 13.229,9.5406 13.224,9.5433 13.199,9.5883 13.174,9.6405 13.023,9.947 12.847,10.193 12.602,10.437 12.457,10.582 12.328,10.69 12.174,10.794 12.15,10.811 12.128,10.83 12.127,10.835 12.125,10.843 12.118,10.979 12.115,11.071 11.723,11.378 11.319,11.66 10.839,11.633 10.404,11.609 10.008,11.314 9.6062,11.142 L 9.6085,11.131 C 9.6139,11.103 9.6187,10.933 9.6145,10.916 9.6125,10.909 9.5768,10.882 9.5026,10.832 9.2246,10.644 9.0141,10.472 8.7945,10.252 8.6248,10.082 8.5496,9.9912 8.4242,9.8036 8.3534,9.6976 8.3434,9.679 8.3254,9.6197 8.3174,9.5935 8.3035,9.563 8.2907,9.544 8.2705,9.5139 8.2661,9.5106 8.2071,9.4807 8.0711,9.4118 7.8223,9.2536 7.7475,9.1885 7.6506,9.1042 7.5214,8.939 7.4059,8.7518 7.3959,8.7356 7.3857,8.7234 7.3821,8.7233 V 8.7233 C 7.3819,8.7233 7.3817,8.7233 7.3815,8.7234 7.3785,8.7253 7.3765,8.7796 7.3765,8.8611 7.3765,8.8985 7.3761,8.937 7.3753,8.9761 7.3745,9.0249 7.3732,9.0734 7.3713,9.1164 7.3661,9.2382 7.3576,9.3657 7.3463,9.4961 7.3461,9.4985 7.3459,9.5009 7.3456,9.5033 7.3443,9.5184 7.343,9.5334 7.3416,9.5485 7.3407,9.5576 7.3399,9.5667 7.339,9.5757 7.3384,9.5828 7.3377,9.5899 7.337,9.597 7.3048,9.9298 7.2542,10.28 7.1902,10.606 7.1893,10.61 7.1884,10.615 7.1874,10.62 7.1851,10.632 7.1827,10.643 7.1803,10.655 7.1787,10.663 7.177,10.671 7.1754,10.679 7.1734,10.689 7.1714,10.698 7.1695,10.708 7.1672,10.719 7.165,10.729 7.1627,10.74 7.161,10.748 7.1594,10.755 7.1578,10.763 7.1539,10.781 7.1499,10.799 7.1459,10.817 7.1235,10.918 7.1008,11.015 7.0765,11.111 7.0583,11.184 7.0393,11.257 7.0191,11.331 7.0056,11.381 6.9915,11.431 6.9768,11.483 6.9546,11.56 6.9309,11.64 6.9052,11.725 6.8966,11.753 6.8879,11.781 6.8788,11.81 6.8517,11.898 6.8225,11.99 6.7906,12.089 6.7595,12.185 6.7368,12.257 6.7205,12.31 6.7108,12.342 6.7034,12.368 6.698,12.388 6.6899,12.418 6.6863,12.438 6.6858,12.45 6.6857,12.453 6.6857,12.455 6.6859,12.457 6.6863,12.462 6.6872,12.465 6.6886,12.467 6.689,12.468 6.6894,12.468 6.6898,12.469 6.6914,12.471 6.6927,12.473 6.6941,12.474 6.6944,12.474 6.6948,12.474 6.6951,12.474 6.6955,12.474 6.6959,12.474 6.6963,12.474 6.7002,12.475 6.7057,12.47 6.7186,12.458 6.7208,12.456 6.7231,12.454 6.7256,12.451 6.733,12.444 6.7417,12.433 6.7517,12.419 6.7985,12.356 6.8733,12.232 6.9719,12.054 7.0706,11.876 7.193,11.644 7.3351,11.366 7.358,11.321 7.3794,11.28 7.3953,11.25 7.4113,11.22 7.4218,11.2 7.4231,11.2 7.4285,11.196 7.429,11.22 7.4244,11.286 7.4219,11.329 7.4174,11.383 7.4118,11.44 7.4071,11.49 7.4019,11.536 7.3957,11.583 7.3903,11.626 7.3846,11.666 7.3789,11.698 7.3713,11.742 7.3596,11.8 7.3437,11.87 7.3146,12.003 7.2737,12.167 7.2127,12.402 7.2069,12.425 7.2015,12.445 7.1966,12.464 7.1966,12.464 7.1966,12.464 7.1966,12.464 7.195,12.471 7.1936,12.476 7.1921,12.481 7.0336,12.923 6.8587,13.346 6.6652,13.748 6.6659,13.741 6.6663,13.735 6.666,13.734 6.6651,13.731 6.6538,13.75 6.6393,13.777 6.6368,13.782 6.6343,13.787 6.6314,13.792 6.6269,13.801 6.6224,13.81 6.6177,13.819 6.5622,13.924 6.4855,14.048 6.3839,14.195 6.2538,14.384 6.0835,14.609 5.8614,14.888 5.8344,14.922 5.8067,14.957 5.7782,14.992 5.7671,15.006 5.7562,15.019 5.7454,15.033 5.7432,15.035 5.7411,15.038 5.739,15.04 5.7299,15.052 5.7207,15.063 5.7117,15.074 5.7106,15.075 5.7095,15.076 5.7084,15.078 5.698,15.09 5.6877,15.103 5.6775,15.115 5.5121,15.314 5.3629,15.476 5.2092,15.621 5.2049,15.625 5.2006,15.629 5.1963,15.633 5.1925,15.636 5.1886,15.64 5.1848,15.643 5.0467,15.772 4.905,15.888 4.7476,16.002 4.7179,16.024 4.6806,16.05 4.6434,16.075 4.5718,16.125 4.5098,16.166 4.4871,16.178 4.4833,16.18 4.4805,16.182 4.4797,16.182 4.4795,16.182 4.4792,16.182 4.4789,16.182 4.4788,16.182 4.4786,16.182 4.4785,16.182 4.4758,16.182 4.4483,16.169 4.4112,16.151 4.409,16.15 4.4069,16.149 4.4046,16.148 4.3978,16.144 4.3911,16.141 4.3837,16.138 4.3203,16.106 4.241,16.066 4.1933,16.04 4.1359,16.009 4.0799,15.976 4.0247,15.943 3.835,15.829 3.6572,15.702 3.4567,15.539 3.4564,15.538 3.456,15.538 3.4556,15.538 3.4388,15.524 3.4218,15.51 3.4046,15.496 3.3911,15.485 3.3778,15.474 3.3647,15.463 3.3587,15.458 3.3529,15.452 3.347,15.447 3.3332,15.436 3.3198,15.424 3.3065,15.412 3.3008,15.407 3.2949,15.402 3.2892,15.397 3.2783,15.387 3.2676,15.378 3.257,15.368 3.2559,15.367 3.2546,15.366 3.2535,15.365 3.2418,15.354 3.2303,15.344 3.2191,15.333 3.1741,15.291 3.1326,15.25 3.0943,15.209 3.0657,15.179 3.0389,15.148 3.0138,15.119 2.9929,15.094 2.9732,15.069 2.9547,15.044 V 15.044 C 2.9473,15.035 2.9401,15.025 2.933,15.015 V 15.015 C 2.9295,15.01 2.9261,15.005 2.9226,15 2.9017,14.971 2.8811,14.942 2.8611,14.915 2.8212,14.86 2.7841,14.811 2.7539,14.774 2.7388,14.755 2.7255,14.74 2.7143,14.727 2.7082,14.721 2.7012,14.713 2.6938,14.704 2.6863,14.696 2.6784,14.687 2.6706,14.678 V 14.678 C 2.6628,14.669 2.655,14.66 2.6477,14.651 V 14.651 C 2.6405,14.642 2.6337,14.634 2.6279,14.627 2.625,14.624 2.6219,14.62 2.6186,14.616 2.6086,14.604 2.5968,14.591 2.5849,14.577 2.577,14.568 2.5691,14.56 2.5615,14.551 2.5577,14.547 2.5541,14.543 2.5506,14.54 V 14.54 C 2.5471,14.536 2.5437,14.532 2.5406,14.529 2.5282,14.516 2.5178,14.505 2.5094,14.495 2.5066,14.491 2.5041,14.488 2.5017,14.485 2.497,14.478 2.4931,14.472 2.4901,14.467 2.4894,14.465 2.4887,14.464 2.488,14.463 V 14.463 C 2.4874,14.461 2.4868,14.46 2.4862,14.459 2.4841,14.453 2.4828,14.449 2.4823,14.444 2.4822,14.443 2.4821,14.442 2.4821,14.441 2.482,14.438 2.4824,14.435 2.4833,14.432 2.4839,14.43 2.4846,14.428 2.4856,14.426 2.4895,14.419 2.4966,14.412 2.5068,14.406 2.5083,14.405 2.5098,14.404 2.5112,14.403 2.5235,14.396 2.5331,14.387 2.5391,14.378 2.5474,14.364 2.5477,14.349 2.5392,14.328 2.5283,14.303 2.5043,14.27 2.4629,14.223 2.4604,14.221 2.4579,14.218 2.4552,14.215 2.4527,14.212 2.4501,14.209 2.4475,14.206 2.4413,14.199 2.435,14.193 2.4281,14.185 2.4063,14.162 2.3901,14.144 2.3761,14.128 2.3674,14.118 2.3598,14.109 2.3557,14.104 2.3504,14.097 2.3415,14.084 2.3301,14.067 2.314,14.044 2.2954,14.014 2.2686,13.971 2.1951,13.853 2.1205,13.73 2.042,13.596 2.0053,13.534 1.9693,13.472 1.9365,13.415 1.9087,13.366 1.8693,13.296 1.8277,13.222 1.8055,13.182 1.7827,13.142 1.7596,13.1 1.7548,13.092 1.75,13.083 1.7454,13.075 1.7431,13.071 1.7409,13.067 1.7386,13.063 1.7315,13.05 1.7285,13.044 1.7221,13.033 1.7102,13.011 1.6988,12.991 1.688,12.971 1.6532,12.908 1.6297,12.866 1.6193,12.846 1.6187,12.845 1.6185,12.844 1.618,12.843 1.6135,12.835 1.6094,12.827 1.6073,12.823 1.593,12.795 1.5825,12.781 1.5758,12.781 V 12.781 C 1.5753,12.781 1.5749,12.781 1.5745,12.781 1.5679,12.784 1.5657,12.802 1.5677,12.837 1.5692,12.861 1.5726,12.922 1.5755,12.973 1.6038,13.481 1.6836,13.979 1.8299,14.564 2.0008,15.247 2.2615,15.783 2.6559,16.264 2.6783,16.291 2.6892,16.308 2.6851,16.309 2.685,16.309 2.6851,16.309 2.6851,16.309 2.6848,16.309 2.6843,16.309 2.6835,16.309 2.6828,16.309 2.6819,16.309 2.6808,16.308 2.6469,16.298 2.4327,16.189 2.321,16.125 2.1686,16.038 2.0209,15.942 1.8465,15.816 1.8344,15.807 1.823,15.8 1.8173,15.798 1.8158,15.798 1.8148,15.797 1.8141,15.798 1.8139,15.798 1.8137,15.798 1.8136,15.798 1.8071,15.804 1.8802,15.935 1.9492,16.04 2.05,16.194 2.1433,16.309 2.2763,16.441 2.4387,16.604 2.5329,16.674 2.9185,16.924 3.3421,17.198 3.5915,17.338 3.8645,17.454 3.989,17.508 4.115,17.556 4.2431,17.598 4.2574,17.603 4.2716,17.607 4.2859,17.612 4.2859,17.612 4.2859,17.612 4.2859,17.612 4.3002,17.616 4.3145,17.621 4.3288,17.625 4.3288,17.625 4.3288,17.625 4.3288,17.625 4.3432,17.63 4.3576,17.634 4.372,17.639 4.372,17.639 4.372,17.638 4.372,17.639 4.3864,17.643 4.4008,17.647 4.4153,17.651 4.4153,17.651 4.4153,17.651 4.4153,17.651 4.4297,17.655 4.4442,17.66 4.4587,17.664 4.4587,17.664 4.4587,17.664 4.4587,17.664 4.4733,17.668 4.4878,17.672 4.5024,17.676 4.5024,17.676 4.5024,17.676 4.5024,17.676 4.517,17.679 4.5316,17.683 4.5463,17.687 4.5463,17.687 4.5463,17.687 4.5463,17.687 4.5609,17.691 4.5756,17.695 4.5903,17.698 4.5903,17.698 4.5903,17.698 4.5903,17.698 4.6051,17.702 4.6198,17.706 4.6346,17.709 4.6346,17.709 4.6346,17.709 4.6346,17.709 4.6494,17.713 4.6642,17.716 4.6791,17.719 4.6791,17.719 4.6791,17.719 4.6791,17.719 4.694,17.723 4.7089,17.726 4.7238,17.729 4.7238,17.729 4.7238,17.729 4.7238,17.729 4.7387,17.733 4.7537,17.736 4.7687,17.739 4.7687,17.739 4.7687,17.739 4.7687,17.739 4.7838,17.742 4.7988,17.745 4.8139,17.748 4.8139,17.748 4.8139,17.748 4.8139,17.748 4.829,17.751 4.8441,17.754 4.8593,17.757 4.8593,17.757 4.8593,17.757 4.8593,17.757 4.8745,17.76 4.8897,17.763 4.905,17.766 4.905,17.766 4.905,17.766 4.905,17.766 4.9202,17.769 4.9355,17.771 4.9509,17.774 4.9509,17.774 4.9509,17.774 4.9509,17.774 4.9662,17.777 4.9816,17.779 4.997,17.782 4.997,17.782 4.997,17.782 4.997,17.782 5.0125,17.784 5.0279,17.787 5.0435,17.789 5.0435,17.789 5.0435,17.789 5.0435,17.789 5.059,17.791 5.0745,17.794 5.0902,17.796 5.0902,17.796 5.0902,17.796 5.0902,17.796 5.1058,17.798 5.1214,17.801 5.1371,17.803 5.1371,17.803 5.1371,17.803 5.1371,17.803 5.1528,17.805 5.1686,17.807 5.1844,17.809 5.1844,17.809 5.1844,17.809 5.1844,17.809 5.2002,17.811 5.216,17.813 5.2319,17.815 5.2319,17.815 5.2319,17.815 5.2319,17.815 5.2478,17.817 5.2638,17.819 5.2798,17.82 5.2798,17.82 5.2798,17.82 5.2798,17.82 V 17.82 C 8.7992,17.906 12.575,18.837 15.748,18.197 V 18.172 C 15.909,18.155 16.067,18.128 16.221,18.089 16.246,18.082 16.271,18.076 16.296,18.069 16.347,18.055 16.408,18.036 16.475,18.013 16.489,18.008 16.502,18.004 16.516,17.999 16.6,17.969 16.692,17.935 16.788,17.897 16.82,17.884 16.853,17.872 16.886,17.858 17.18,17.739 17.494,17.598 17.7,17.486 17.713,17.479 17.726,17.472 17.739,17.466 17.751,17.459 17.764,17.452 17.776,17.445 17.801,17.431 17.826,17.417 17.851,17.402 17.863,17.395 17.876,17.388 17.888,17.381 17.949,17.345 18.009,17.309 18.067,17.271 18.079,17.264 18.091,17.256 18.103,17.249 18.126,17.234 18.149,17.219 18.172,17.203 18.184,17.195 18.195,17.188 18.207,17.18 18.218,17.172 18.23,17.164 18.241,17.157 18.252,17.149 18.264,17.141 18.275,17.133 18.377,17.061 18.477,16.986 18.575,16.907 18.586,16.898 18.597,16.889 18.608,16.88 18.652,16.845 18.695,16.808 18.739,16.77 18.75,16.761 18.76,16.752 18.771,16.742 18.782,16.732 18.793,16.723 18.804,16.713 18.837,16.684 18.892,16.631 18.952,16.572 18.972,16.553 18.993,16.532 19.013,16.512 19.096,16.43 19.177,16.347 19.215,16.305 19.233,16.286 19.25,16.266 19.268,16.245 19.304,16.205 19.341,16.162 19.374,16.122 19.391,16.102 19.407,16.082 19.422,16.064 19.483,15.991 19.525,15.935 19.522,15.932 19.521,15.931 19.518,15.931 19.508,15.935 19.506,15.936 19.504,15.937 19.501,15.939 19.475,15.952 19.413,15.986 19.266,16.067 19.082,16.17 18.956,16.241 18.57,16.463 18.436,16.54 18.374,16.571 18.366,16.563 18.365,16.562 18.365,16.562 18.365,16.561 18.364,16.56 18.364,16.559 18.364,16.559 18.364,16.558 18.365,16.557 18.365,16.556 18.366,16.553 18.368,16.551 18.371,16.547 18.386,16.528 18.432,16.486 18.544,16.387 18.557,16.377 18.569,16.366 18.581,16.355 18.593,16.345 18.605,16.334 18.616,16.324 18.768,16.188 18.896,16.065 19.012,15.943 19.03,15.924 19.047,15.905 19.065,15.886 19.177,15.764 19.278,15.641 19.381,15.503 19.397,15.482 19.412,15.461 19.428,15.439 19.448,15.412 19.47,15.382 19.493,15.348 19.516,15.314 19.541,15.278 19.567,15.239 19.696,15.047 19.849,14.806 19.948,14.637 19.968,14.603 19.986,14.572 20.001,14.545 20.109,14.351 20.204,14.141 20.283,13.927 20.291,13.905 20.299,13.884 20.307,13.862 20.31,13.852 20.314,13.841 20.318,13.83 20.325,13.808 20.333,13.787 20.34,13.765 20.364,13.69 20.387,13.614 20.407,13.538 20.414,13.512 20.421,13.489 20.425,13.478 20.427,13.474 20.428,13.472 20.428,13.471 L 20.433,13.145 20.339,13.246 C 20.288,13.301 20.232,13.362 20.215,13.382 20.199,13.401 20.182,13.42 20.166,13.439 20.166,13.439 20.166,13.439 20.166,13.439 20.113,13.504 19.963,13.672 19.819,13.828 19.739,13.915 19.656,14.001 19.572,14.087 19.564,14.095 19.556,14.103 19.548,14.111 19.541,14.118 19.534,14.125 19.527,14.132 19.213,14.45 18.885,14.752 18.54,15.039 18.538,15.041 18.535,15.043 18.533,15.045 18.522,15.054 18.51,15.064 18.499,15.074 18.275,15.259 18.05,15.434 17.827,15.595 L 17.783,15.627 17.678,15.575 C 17.638,15.555 17.597,15.534 17.557,15.513 17.531,15.498 17.504,15.484 17.478,15.47 17.456,15.458 17.434,15.446 17.413,15.433 17.408,15.431 17.403,15.428 17.399,15.425 17.359,15.403 17.321,15.38 17.282,15.357 17.192,15.302 17.103,15.246 17.016,15.186 16.991,15.169 16.967,15.152 16.942,15.135 16.782,15.022 16.628,14.9 16.478,14.77 16.471,14.764 16.464,14.757 16.456,14.75 16.416,14.714 16.363,14.664 16.308,14.61 16.297,14.599 16.286,14.588 16.274,14.577 16.263,14.565 16.252,14.554 16.24,14.543 16.229,14.532 16.218,14.52 16.207,14.509 16.129,14.43 16.056,14.354 16.014,14.306 16.005,14.296 15.997,14.286 15.989,14.277 15.984,14.272 15.98,14.267 15.976,14.262 15.973,14.258 15.969,14.254 15.966,14.25 15.792,14.045 15.641,13.837 15.502,13.609 15.374,13.4 15.258,13.177 15.151,12.934 15.071,12.755 14.998,12.569 14.925,12.361 14.922,12.352 14.919,12.342 14.915,12.333 14.847,12.137 14.769,11.882 14.696,11.627 14.634,11.412 14.583,11.22 14.542,11.046 14.527,10.983 14.513,10.924 14.502,10.871 14.492,10.827 14.483,10.781 14.474,10.733 14.474,10.733 14.474,10.733 14.474,10.733 14.465,10.688 14.457,10.644 14.45,10.601 14.447,10.587 14.445,10.574 14.443,10.56 14.441,10.549 14.439,10.538 14.437,10.527 14.408,10.35 14.386,10.189 14.368,10.016 14.358,9.9232 14.349,9.8316 14.342,9.7433 14.339,9.7033 14.336,9.6697 14.334,9.6382 14.332,9.6088 14.33,9.5789 14.328,9.548 14.322,9.4618 14.32,9.2583 14.322,9.0774 14.322,8.9567 14.323,8.888 14.328,8.8107 14.329,8.7959 14.33,8.7824 14.33,8.7721 14.331,8.7627 14.332,8.7538 14.333,8.7446 14.336,8.7131 14.339,8.6775 14.343,8.6359 14.347,8.5915 14.351,8.5496 14.355,8.51 14.363,8.4306 14.37,8.3706 14.377,8.3228 14.379,8.3051 14.381,8.2882 14.383,8.2724 14.386,8.2567 14.385,8.248 14.381,8.248 Z"/>
 <path style="fill:#8f9696" d="M 7.9045,20.047 C 7.908,20.046 7.9138,20.046 7.9173,20.047 7.9209,20.049 7.918,20.05 7.9109,20.05 7.9038,20.05 7.901,20.049 7.9045,20.047 Z"/>
 <path style="fill:#8f9696" d="M 7.9973,20.027 C 8.001,20.025 8.0054,20.025 8.0072,20.027 8.0089,20.029 8.0058,20.03 8.0004,20.03 7.9944,20.03 7.9932,20.028 7.9973,20.027 Z"/>
 <path style="fill:#8f9696" d="M 8.023,20.022 C 8.0267,20.02 8.0311,20.02 8.0328,20.022 8.0345,20.024 8.0315,20.025 8.0261,20.025 8.0201,20.024 8.0189,20.023 8.023,20.022 Z"/>
 <path style="fill:#8f9696" d="M 8.0538,20.016 C 8.0575,20.015 8.062,20.015 8.0637,20.017 8.0654,20.019 8.0623,20.02 8.0569,20.02 8.0509,20.019 8.0497,20.018 8.0538,20.016 Z"/>
 <path style="fill:#8f9696" d="M 8.0847,20.011 C 8.0884,20.01 8.0928,20.01 8.0945,20.012 8.0962,20.013 8.0932,20.015 8.0878,20.014 8.0818,20.014 8.0806,20.013 8.0847,20.011 Z"/>
 <path style="fill:#ebdeb0" d="M 8.3408,12.345 C 8.3408,12.345 8.3447,12.335 8.3408,12.345 8.3386,12.351 8.3227,12.353 8.2666,12.355 7.9513,12.371 7.645,12.45 7.3428,12.595 7.2331,12.647 7.1073,12.73 7.0947,12.758 7.0912,12.766 7.0606,12.813 7.0273,12.864 6.9564,12.973 6.9179,13.04 6.8721,13.132 6.8104,13.255 6.7878,13.321 6.7422,13.515 6.7345,13.547 6.7177,13.6 6.7051,13.633 6.6845,13.686 6.6805,13.705 6.665,13.811 6.6318,14.038 6.6211,14.177 6.6211,14.395 6.6211,14.619 6.6229,14.643 6.6924,15.167 6.7483,15.589 6.7802,15.839 6.7881,15.922 6.8011,16.059 6.8058,16.229 6.8008,16.377 6.7859,16.81 6.7843,16.934 6.79,17.132 6.7975,17.388 6.8149,17.646 6.8369,17.838 6.8445,17.904 6.9572,18.286 7.043,18.537 7.1126,18.741 7.2081,18.984 7.292,19.172 7.34,19.279 7.3949,19.38 7.4541,19.467 7.6566,19.764 7.7205,19.863 7.7822,19.982 7.808,20.032 7.8169,20.046 7.8271,20.049 7.8457,20.053 7.919,20.047 7.9521,20.038 7.9677,20.034 8.0122,20.024 8.0518,20.017 8.0913,20.009 8.1424,19.997 8.165,19.989 8.3084,19.939 9.5958,19.423 10.161,19.188 10.264,19.146 10.351,19.11 10.354,19.11 10.357,19.11 10.475,19.157 10.616,19.213 11.484,19.558 12.277,19.855 13.231,20.19 L 13.479,20.277 13.514,20.273 C 13.533,20.272 13.562,20.266 13.577,20.261 13.603,20.251 13.608,20.245 13.647,20.192 13.808,19.977 13.932,19.75 14.021,19.509 14.097,19.3 14.272,18.767 14.416,18.301 14.433,18.244 14.457,18.176 14.468,18.148 14.482,18.112 14.488,18.09 14.488,18.07 14.488,17.988 14.581,17.067 14.647,16.487 14.689,16.124 14.71,15.875 14.75,15.267 14.776,14.877 14.792,14.657 14.812,14.437 14.852,13.98 14.84,13.769 14.757,13.513 14.716,13.388 14.661,13.275 14.58,13.155 14.491,13.022 14.396,12.914 14.278,12.811 14.065,12.623 13.903,12.541 13.653,12.497 13.514,12.473 13.414,12.44 13.305,12.385 13.237,12.35 13.15,12.297 13.12,12.271 L 13.099,12.253 C 13.099,12.253 12.036,11.503 12.047,11.452 L 12.036,11.503 11.963,11.575 C 11.117,11.743 10.101,11.273 9.4303,11.643 Z M 8.5771,16.318 C 8.6072,16.319 8.6421,16.327 8.6895,16.342 8.7495,16.36 8.8094,16.388 8.8535,16.42 8.8925,16.448 8.9762,16.534 9.001,16.572 9.0493,16.646 9.1564,16.88 9.1992,17.007 9.2274,17.09 9.2272,17.09 9.2432,17.093 9.2521,17.094 9.3097,17.102 9.3711,17.109 9.6422,17.142 9.8452,17.184 10.221,17.286 10.404,17.336 10.474,17.346 10.613,17.342 10.755,17.337 10.93,17.309 11.226,17.243 11.388,17.207 11.47,17.19 11.593,17.171 11.638,17.164 11.683,17.157 11.692,17.155 11.705,17.153 11.723,17.14 11.762,17.103 11.874,16.995 11.961,16.922 12.09,16.825 12.271,16.69 12.394,16.611 12.556,16.531 12.668,16.476 12.759,16.439 12.872,16.401 12.955,16.374 13.142,16.327 13.175,16.324 13.195,16.323 13.195,16.323 13.194,16.338 13.189,16.416 13.109,17.174 13.105,17.183 13.101,17.194 13.1,17.193 13.046,17.16 12.905,17.074 12.778,17.029 12.631,17.014 12.541,17.004 12.442,17.016 12.347,17.046 12.319,17.055 12.24,17.085 12.171,17.115 11.837,17.259 11.755,17.281 11.369,17.33 11.013,17.375 10.804,17.396 10.334,17.433 9.8901,17.467 9.5304,17.501 9.2197,17.536 9.0915,17.551 9.0783,17.551 9.0752,17.542 9.0739,17.538 9.0631,17.498 9.0518,17.452 8.9893,17.201 8.8763,16.944 8.7334,16.727 8.6583,16.612 8.5269,16.448 8.4561,16.38 8.4444,16.369 8.4346,16.358 8.4346,16.355 8.4346,16.353 8.4436,16.35 8.4541,16.348 8.4646,16.346 8.4833,16.34 8.4951,16.335 8.5222,16.323 8.5471,16.317 8.5772,16.318 Z"/>
 <path style="fill:#ebdeb0" d="M 10.76,11.432 C 10.365,11.306 10.042,11.161 9.7031,10.958 9.6587,10.931 9.6209,10.907 9.6192,10.904 9.6175,10.901 9.5678,10.867 9.5088,10.827 9.2277,10.639 9.0273,10.475 8.8019,10.25 8.6268,10.075 8.5563,9.9894 8.4263,9.7945 8.3592,9.694 8.3529,9.6823 8.3354,9.6248 8.328,9.6007 8.3146,9.5694 8.3055,9.5555 8.2913,9.5335 8.2845,9.5091 8.2549,9.3733 8.2361,9.2871 8.2217,9.2148 8.2229,9.2126 8.2252,9.2085 8.2291,9.2111 8.278,9.2495 8.2939,9.2619 8.308,9.2709 8.3094,9.2695 8.3108,9.2681 8.2942,9.2221 8.2726,9.1673 8.1847,8.9448 8.1076,8.687 8.0653,8.4741 8.0312,8.3027 7.9337,7.7148 7.9386,7.71 7.9407,7.7078 7.9444,7.7095 7.9468,7.7137 7.9714,7.7575 8.3231,8.2597 8.331,8.2623 8.3352,8.2636 8.3374,8.2587 8.3374,8.2475 8.3374,8.2383 8.321,8.0733 8.301,7.881 8.2676,7.5603 8.2648,7.5253 8.2678,7.4593 8.2723,7.3578 8.2765,7.3174 8.2822,7.3193 8.285,7.3202 8.2939,7.3393 8.3021,7.3617 8.3235,7.4206 8.372,7.5156 8.3913,7.5367 8.4066,7.5534 8.4084,7.5591 8.4142,7.6098 8.4219,7.6777 8.4375,7.7573 8.4478,7.7821 8.4595,7.8102 8.4848,7.8362 8.5038,7.8398 8.5375,7.8461 8.6102,7.8101 8.7562,7.7149 8.8484,7.6547 8.9158,7.5983 9.126,7.4056 9.2805,7.264 9.5991,6.964 9.7233,6.8434 9.7437,6.8235 9.7619,6.8088 9.7638,6.8107 9.7657,6.8125 9.7353,6.8968 9.6965,6.9979 9.6226,7.1901 9.506,7.5003 9.4421,7.6742 9.4193,7.7365 9.4066,7.7778 9.4095,7.7807 9.4171,7.7883 9.6308,7.7503 9.8044,7.7105 10.469,7.5581 11.111,7.2572 11.676,6.8338 11.725,6.7971 11.766,6.7682 11.768,6.7696 11.771,6.7724 11.742,6.9072 11.713,7.0278 11.675,7.1855 11.611,7.4085 11.557,7.5696 11.543,7.6094 11.535,7.6406 11.538,7.6432 11.546,7.6517 11.744,7.4726 11.877,7.3355 12.162,7.0427 12.42,6.7089 12.618,6.3761 12.647,6.3263 12.674,6.2862 12.677,6.2871 12.68,6.288 12.681,6.2989 12.68,6.3114 12.677,6.362 12.723,6.8305 12.777,7.2975 12.786,7.3695 12.799,7.4976 12.807,7.582 12.816,7.6664 12.825,7.7377 12.827,7.7406 12.831,7.744 12.848,7.7315 12.878,7.7027 13.214,7.3854 13.354,7.2535 13.358,7.2521 13.361,7.2511 13.363,7.2546 13.363,7.2598 13.363,7.265 13.333,7.5155 13.296,7.8164 L 13.23,8.3637 13.189,8.4844 C 13.113,8.7094 13.026,8.9116 12.925,9.0918 12.911,9.1172 12.9,9.1417 12.901,9.1461 12.903,9.1538 12.971,9.1004 13.054,9.0271 13.073,9.0099 13.083,9.0042 13.087,9.008 13.095,9.0158 13.094,9.1854 13.086,9.2449 13.067,9.3856 13.019,9.5366 12.938,9.7157 12.801,10.015 12.494,10.398 12.149,10.702 12.058,10.782 12.008,10.819 11.886,10.897 11.771,10.969 11.664,11.043 11.51,11.156 11.454,11.198 11.387,11.245 11.361,11.262 11.23,11.35 11.106,11.404 10.961,11.436 10.86,11.459 10.844,11.458 10.76,11.432 Z"/>
 <path style="fill:#d49063" d="M 14.261,7.6162 C 14.26,7.6175 14.236,7.6537 14.209,7.6963 14.031,7.9755 13.825,8.2444 13.589,8.5078 13.45,8.6629 13.124,8.9797 13.088,8.9951 13.081,8.998 13.039,9.0317 12.995,9.0693 12.951,9.1069 12.913,9.137 12.912,9.1357 12.911,9.1344 12.927,9.1001 12.949,9.0596 13.003,8.9603 13.074,8.8 13.093,8.7481 13.059,8.831 12.994,8.9671 12.946,9.0566 12.921,9.1042 12.901,9.1449 12.902,9.1465 12.906,9.1501 12.928,9.1324 13.015,9.0586 13.063,9.0173 13.083,9.0036 13.087,9.0078 13.095,9.0159 13.094,9.184 13.086,9.2451 13.067,9.3858 13.019,9.5368 12.937,9.7158 12.801,10.015 12.494,10.398 12.148,10.702 12.058,10.782 12.008,10.819 11.886,10.896 11.772,10.969 11.665,11.043 11.511,11.156 11.34,11.281 11.268,11.326 11.168,11.369 11.059,11.416 10.928,11.451 10.857,11.451 10.819,11.451 10.808,11.449 10.67,11.402 10.251,11.261 9.8961,11.09 9.5566,10.863 9.4663,10.803 9.3915,10.743 9.3115,10.684 9.3776,10.733 9.4389,10.788 9.5078,10.834 9.5623,10.87 9.6094,10.905 9.6123,10.91 9.6185,10.922 9.6153,11.096 9.6084,11.131 L 9.6035,11.153 9.5293,11.152 C 9.4362,11.15 9.2163,11.159 9.1006,11.17 L 9.4502,11.159 H 9.6093 L 9.6103,11.143 C 9.6112,11.133 9.6146,11.126 9.6171,11.126 9.6237,11.126 9.65,11.179 9.6601,11.213 9.6647,11.228 9.673,11.283 9.6787,11.334 9.6843,11.385 9.6909,11.431 9.6933,11.437 9.6957,11.442 9.7656,11.494 9.8486,11.552 9.9316,11.61 10.075,11.711 10.168,11.777 10.353,11.909 10.504,12.01 10.617,12.078 10.704,12.13 10.706,12.13 10.86,12.13 11.045,12.13 11.143,12.102 11.374,11.985 11.624,11.859 11.795,11.74 11.963,11.575 L 12.036,11.503 12.047,11.452 C 12.073,11.333 12.113,11.176 12.119,11.17 12.128,11.161 12.345,11.158 12.44,11.166 12.4,11.163 12.374,11.159 12.287,11.158 12.191,11.157 12.113,11.156 12.112,11.155 12.11,11.152 12.124,10.845 12.127,10.835 12.128,10.829 12.15,10.812 12.175,10.795 12.328,10.691 12.457,10.583 12.602,10.437 12.847,10.193 13.023,9.947 13.174,9.6405 13.199,9.5883 13.224,9.5436 13.228,9.5409 13.233,9.5382 13.26,9.5262 13.288,9.5146 13.364,9.4835 13.483,9.421 13.549,9.3769 13.718,9.2642 13.83,9.1464 13.968,8.9404 14.044,8.8268 14.271,8.4446 14.347,8.3027 14.363,8.2724 14.378,8.248 14.382,8.248 14.385,8.248 14.391,8.2339 14.394,8.2157 14.398,8.1981 14.423,8.1191 14.449,8.04 14.476,7.9608 14.501,7.8819 14.504,7.8642 14.528,7.7392 14.464,7.6597 14.314,7.6259 14.286,7.6194 14.262,7.6149 14.261,7.6161 Z M 12.44,11.166 C 12.484,11.176 12.528,11.194 12.571,11.213 12.559,11.195 12.553,11.189 12.541,11.171 12.515,11.167 12.467,11.168 12.44,11.166 Z M 7.1387,7.7139 C 7.1272,7.7139 7.106,7.7411 7.0996,7.7637 7.0798,7.8341 7.0789,7.9831 7.0986,8.0762 7.1235,8.1934 7.1579,8.2704 7.247,8.415 7.3308,8.5509 7.3587,8.6127 7.372,8.6914 7.3752,8.7104 7.38,8.7252 7.3828,8.7246 7.3856,8.724 7.4093,8.7567 7.4355,8.7979 7.5434,8.9674 7.6532,9.1059 7.7461,9.1875 7.8202,9.2526 8.0685,9.4108 8.206,9.4805 8.2627,9.5092 8.2699,9.5138 8.289,9.541 8.3005,9.5574 8.3136,9.5793 8.3174,9.5899 8.3212,9.6004 8.3249,9.6087 8.3261,9.6074 8.3294,9.6042 8.3171,9.575 8.3008,9.5479 8.2899,9.5298 8.2794,9.4921 8.2549,9.376 8.2375,9.294 8.2216,9.2204 8.2187,9.2119 8.2152,9.2018 8.1906,9.1769 8.1465,9.1397 7.8843,8.9181 7.6458,8.6336 7.4804,8.3447 7.4292,8.2552 7.3693,8.1348 7.2998,7.9834 7.2738,7.9269 7.2381,7.8532 7.2207,7.8193 7.1894,7.7586 7.1545,7.7139 7.1386,7.7139 Z M 8.3301,9.6279 C 8.3413,9.6888 8.4791,9.8978 8.6201,10.067 8.642,10.094 8.6987,10.144 8.7412,10.188 8.6302,10.073 8.5499,9.978 8.4502,9.833 8.3852,9.7385 8.3547,9.6864 8.3369,9.6387 8.3314,9.6239 8.3285,9.6195 8.3301,9.6279 Z M 8.7412,10.188 C 8.7635,10.212 8.7788,10.231 8.8047,10.257 8.8177,10.27 8.8326,10.281 8.8457,10.294 8.8049,10.254 8.7781,10.227 8.7412,10.188 Z M 8.8457,10.294 C 8.9026,10.35 8.9528,10.406 8.9922,10.44 9.0304,10.474 9.0726,10.499 9.1113,10.531 9.0183,10.455 8.9303,10.376 8.8457,10.294 Z M 9.7275,11.925 C 9.7214,11.927 9.6722,12.016 9.6387,12.084 9.6037,12.155 9.5722,12.243 9.5293,12.392 9.5065,12.471 9.4716,12.588 9.4521,12.651 9.4102,12.789 9.3809,12.896 9.3809,12.909 9.3809,12.92 9.3808,12.92 9.4707,12.932 9.5074,12.936 9.5555,12.944 9.5781,12.949 9.6457,12.965 9.642,12.968 9.6611,12.894 9.6944,12.764 9.7474,12.646 9.8232,12.531 L 9.8701,12.46 9.8564,12.369 C 9.8372,12.243 9.814,12.129 9.7998,12.088 9.7756,12.018 9.7332,11.923 9.7275,11.925 Z M 11.957,11.962 C 11.951,11.963 11.928,12.071 11.915,12.158 11.907,12.216 11.906,12.262 11.906,12.632 11.907,12.857 11.908,13.045 11.91,13.05 11.913,13.056 11.919,13.058 11.936,13.056 11.948,13.054 12.03,13.045 12.119,13.036 12.208,13.028 12.283,13.019 12.285,13.017 12.29,13.012 12.25,12.816 12.214,12.672 12.177,12.527 12.15,12.449 12.076,12.284 12.043,12.211 11.997,12.082 11.969,11.983 11.965,11.971 11.96,11.961 11.957,11.962 Z M 11.32,12.832 C 11.317,12.836 11.301,12.883 11.285,12.937 11.252,13.046 11.234,13.096 11.205,13.147 11.182,13.189 11.158,13.265 11.158,13.297 11.158,13.325 11.177,13.342 11.219,13.351 11.235,13.354 11.25,13.357 11.253,13.358 11.27,13.364 11.278,13.359 11.291,13.337 11.299,13.324 11.327,13.282 11.355,13.245 11.382,13.208 11.414,13.162 11.424,13.143 11.442,13.107 11.442,13.107 11.439,13.058 11.435,12.975 11.405,12.907 11.352,12.851 11.331,12.829 11.326,12.826 11.32,12.832 Z"/>
 <path style="fill:#ffffff" d="M 9.6172,11.155 C 9.6092,11.165 9.6023,11.165 9.416,11.168 9.0674,11.173 8.8052,11.208 8.4893,11.29 8.3596,11.324 8.1084,11.404 8.0967,11.416 8.0949,11.418 8.0997,11.437 8.1074,11.459 8.2054,11.735 8.279,11.989 8.333,12.24 8.3443,12.293 8.3555,12.337 8.3574,12.339 8.3594,12.341 8.5881,12.229 8.8662,12.091 9.1443,11.953 9.3749,11.84 9.3789,11.84 9.3964,11.84 9.264,12.069 9.1582,12.223 8.9172,12.572 8.8301,12.741 8.6094,13.292 8.5322,13.484 8.4719,13.629 8.4141,13.76 8.2919,14.036 8.2465,14.297 8.2363,14.78 8.2345,14.864 8.2202,14.946 8.2217,14.946 L 8.3057,16.081 C 8.3059,16.085 8.3064,16.097 8.3067,16.1 8.3096,16.135 8.3128,16.183 8.3145,16.207 L 8.3184,16.251 C 8.4798,17.54 8.5207,18.853 8.2481,20.013 8.2227,20.12 7.9799,20.561 7.7363,21 H 13.625 L 13.479,20.277 13.167,16.313 C 13.179,16.31 13.198,16.306 13.199,16.304 13.202,16.3 13.203,16.292 13.203,16.285 13.203,16.269 13.27,15.804 13.293,15.657 13.303,15.594 13.31,15.542 13.31,15.541 13.309,15.541 13.295,15.536 13.294,15.536 L 13.357,15.009 C 13.388,14.896 13.402,14.76 13.394,14.654 13.382,14.508 13.368,14.455 13.252,14.105 13.164,13.841 13.092,13.609 13.039,13.428 13.018,13.355 12.96,13.222 12.579,12.353 12.55,12.287 12.525,12.228 12.523,12.223 12.522,12.217 12.51,12.175 12.497,12.131 12.478,12.066 12.475,12.048 12.479,12.042 12.489,12.03 12.504,12.033 12.545,12.053 12.565,12.062 12.609,12.08 12.643,12.092 12.676,12.103 12.738,12.128 12.782,12.145 12.882,12.186 13.085,12.253 13.091,12.247 13.096,12.242 13.444,11.556 13.444,11.551 13.444,11.546 13.307,11.454 13.248,11.421 13.021,11.291 12.766,11.209 12.501,11.18 12.409,11.169 12.246,11.165 12.176,11.17 L 12.122,11.175 12.105,11.238 C 12.096,11.274 12.079,11.345 12.067,11.397 12.056,11.45 12.043,11.5 12.039,11.509 12.028,11.532 11.997,11.688 11.973,11.847 L 11.96,11.928 11.97,11.96 C 11.975,11.977 11.989,12.022 12.001,12.06 12.031,12.157 12.052,12.212 12.102,12.322 12.125,12.374 12.156,12.452 12.17,12.493 12.21,12.61 12.285,12.923 12.294,13.014 12.296,13.036 12.311,13.124 12.326,13.209 12.421,13.723 12.474,14.167 12.495,14.647 12.498,14.721 12.503,14.784 12.506,14.788 12.508,14.791 12.511,14.791 12.514,14.792 L 12.501,14.789 12.499,15.117 C 12.121,14.933 11.467,14.821 10.766,14.821 10.148,14.821 9.5639,14.908 9.1729,15.057 L 9.1279,14.75 C 9.1279,14.75 9.1142,14.762 9.1416,14.738 9.1511,14.735 9.1505,14.728 9.1494,14.591 9.1478,14.392 9.1581,14.278 9.1933,14.062 9.203,14.003 9.2184,13.888 9.2285,13.808 9.2385,13.727 9.26,13.588 9.2754,13.497 9.2907,13.407 9.3091,13.288 9.3164,13.234 9.3295,13.137 9.3457,13.045 9.3642,12.968 9.3696,12.945 9.3734,12.925 9.372,12.921 9.3688,12.913 9.4007,12.794 9.4472,12.642 9.4667,12.578 9.5008,12.462 9.5234,12.385 9.5459,12.307 9.5718,12.223 9.581,12.197 9.6002,12.144 9.6845,11.974 9.7119,11.933 L 9.7304,11.905 9.7226,11.761 C 9.7182,11.681 9.7112,11.591 9.707,11.56 9.7028,11.528 9.6979,11.493 9.6963,11.48 9.6947,11.468 9.6908,11.454 9.6885,11.449 9.6862,11.445 9.6804,11.405 9.6758,11.361 9.6652,11.26 9.6607,11.236 9.6416,11.186 9.6266,11.146 9.6252,11.145 9.6172,11.155 Z"/>
 <path style="fill:#afb3b3" d="M 8.5771,16.318 C 8.5471,16.317 8.5222,16.323 8.4951,16.335 8.4832,16.34 8.4646,16.346 8.4541,16.348 8.4436,16.35 8.4346,16.353 8.4346,16.355 8.4346,16.358 8.4444,16.369 8.4561,16.38 8.5269,16.448 8.6583,16.612 8.7334,16.727 8.8763,16.944 8.9892,17.201 9.0518,17.452 9.0624,17.495 9.0709,17.528 9.0732,17.536 L 8.2295,19.977 C 8.2298,19.978 8.1969,19.989 8.1973,19.991 8.2002,20.006 8.1492,20.181 8.1152,20.271 8.0681,20.397 7.9845,20.576 7.958,20.608 7.9497,20.618 7.9495,20.618 7.96,20.609 7.9658,20.604 7.9742,20.601 7.9785,20.601 7.9917,20.601 8.1336,20.651 8.2197,20.686 8.3341,20.732 8.4354,20.779 8.5303,20.83 L 8.6123,20.874 8.7148,20.821 C 9.0074,20.671 9.3231,20.503 9.5811,20.362 9.7424,20.274 9.8333,20.23 9.9434,20.186 10.095,20.125 10.246,20.083 10.406,20.059 10.528,20.04 10.55,20.039 10.555,20.047 10.557,20.051 10.561,20.114 10.563,20.188 10.57,20.412 10.59,20.677 10.616,20.889 10.623,20.941 10.626,20.985 10.624,20.987 10.624,20.987 10.456,21.01 13.623,20.995 13.623,20.995 13.591,20.831 13.548,20.636 13.505,20.441 13.471,20.28 13.473,20.278 13.473,20.278 13.47,20.277 13.47,20.277 H 13.478 L 13.097,17.18 C 13.097,17.179 13.105,17.184 13.105,17.183 13.109,17.174 13.189,16.416 13.194,16.338 13.195,16.323 13.195,16.323 13.175,16.324 13.142,16.327 12.955,16.374 12.872,16.401 12.657,16.472 12.458,16.57 12.261,16.702 12.081,16.823 11.912,16.958 11.762,17.103 11.732,17.131 11.721,17.136 11.709,17.143 L 11.708,17.144 C 11.704,17.145 11.695,17.155 11.692,17.155 11.683,17.157 11.638,17.164 11.593,17.171 11.47,17.19 11.388,17.207 11.225,17.243 10.93,17.309 10.755,17.338 10.613,17.342 10.474,17.346 10.404,17.336 10.221,17.286 9.8451,17.184 9.6421,17.142 9.371,17.109 9.3096,17.102 9.252,17.094 9.2431,17.093 9.2415,17.093 9.2396,17.084 9.2382,17.084 9.2343,17.083 9.2286,17.063 9.2255,17.059 V 17.058 C 9.2195,17.049 9.2159,17.056 9.1991,17.007 9.1563,16.88 9.0491,16.646 9.0009,16.572 8.9761,16.535 8.8925,16.448 8.8535,16.42 8.8094,16.388 8.7495,16.36 8.6894,16.342 8.642,16.327 8.6071,16.319 8.5771,16.318 Z M 11.177,20.038 11.212,20.039 C 11.381,20.046 11.67,20.087 11.88,20.134 11.999,20.16 12.279,20.232 12.402,20.269 12.692,20.354 12.878,20.446 13.01,20.569 13.029,20.587 13.066,20.63 13.094,20.664 13.184,20.777 13.308,20.893 13.415,20.963 13.431,20.974 13.445,20.983 13.445,20.984 13.445,20.987 11.168,20.987 11.168,20.984 11.168,20.984 11.166,20.899 11.164,20.796 11.16,20.619 11.164,20.27 11.173,20.105 Z"/>
 <path style="opacity:0.1" d="M 6.7031,15.754 C 6.7477,16.093 6.7811,16.348 6.7881,16.422 6.8011,16.559 6.8058,16.73 6.8008,16.877 6.7859,17.31 6.7843,17.434 6.79,17.632 6.7975,17.888 6.8149,18.147 6.8369,18.338 6.8445,18.404 6.9572,18.786 7.043,19.037 7.1126,19.241 7.2081,19.485 7.292,19.672 7.34,19.779 7.3949,19.88 7.4541,19.967 7.6566,20.264 7.7205,20.363 7.7822,20.483 7.808,20.532 7.8169,20.546 7.8271,20.549 7.8457,20.554 7.919,20.547 7.9521,20.538 7.9677,20.534 8.0122,20.524 8.0518,20.517 8.0913,20.51 8.1424,20.497 8.165,20.489 8.3084,20.439 9.5958,19.923 10.161,19.689 10.264,19.646 10.351,19.611 10.354,19.611 10.357,19.611 10.475,19.657 10.616,19.713 11.484,20.058 12.277,20.355 13.231,20.691 L 13.479,20.777 13.514,20.774 C 13.533,20.772 13.562,20.767 13.577,20.761 13.603,20.751 13.608,20.745 13.647,20.693 13.808,20.477 13.932,20.25 14.021,20.009 14.097,19.8 14.272,19.267 14.416,18.801 14.433,18.744 14.457,18.676 14.468,18.649 14.482,18.612 14.488,18.59 14.488,18.57 14.488,18.488 14.581,17.568 14.647,16.987 14.658,16.9 14.664,16.774 14.672,16.694 L 13.167,16.814 13.141,16.833 C 13.148,16.832 13.171,16.825 13.175,16.824 13.195,16.823 13.195,16.823 13.194,16.838 13.189,16.916 13.109,17.674 13.105,17.683 13.101,17.694 13.1,17.693 13.046,17.66 12.905,17.575 12.778,17.53 12.631,17.514 12.541,17.504 12.442,17.516 12.347,17.546 12.319,17.555 12.24,17.586 12.171,17.615 11.837,17.759 11.755,17.781 11.369,17.83 11.013,17.876 10.804,17.896 10.334,17.933 9.8901,17.968 9.5304,18.001 9.2197,18.036 9.0914,18.051 9.0783,18.051 9.0752,18.042 9.0739,18.039 9.0631,17.998 9.0517,17.952 8.9892,17.701 8.8763,17.445 8.7334,17.227 8.6642,17.121 8.5509,16.983 8.4775,16.907 8.1748,16.628 7.901,16.373 7.7031,16.276 7.3509,16.102 7.0222,15.929 6.7031,15.754 Z M 9.2187,17.545 C 9.2254,17.56 9.2343,17.592 9.2432,17.593 9.2468,17.593 9.2778,17.598 9.2939,17.6 9.2688,17.581 9.2437,17.564 9.2187,17.545 Z"/>
 <path style="fill:#ff78c4" d="M 11.37,16.14 C 11.525,16.061 11.624,15.988 11.656,15.928 11.686,15.872 11.685,15.869 11.623,15.732 11.524,15.512 11.438,15.346 11.35,15.208 11.324,15.166 11.315,15.149 11.32,15.147 11.333,15.145 11.491,15.216 11.657,15.299 11.744,15.342 11.817,15.378 11.82,15.378 11.823,15.378 11.841,15.365 11.86,15.35 11.921,15.302 11.971,15.226 11.991,15.147 12,15.113 12,15.113 12.019,15.111 12.044,15.109 12.162,15.124 12.248,15.139 12.332,15.155 12.38,15.167 12.553,15.216 12.627,15.237 12.745,15.269 12.815,15.288 12.969,15.328 13.11,15.369 13.22,15.404 13.264,15.418 13.304,15.429 13.308,15.429 13.317,15.429 13.333,15.389 13.348,15.331 13.369,15.246 13.385,15.042 13.373,15.006 13.364,14.979 13.338,14.958 13.303,14.951 13.147,14.92 13.005,14.875 12.739,14.774 12.429,14.656 11.904,14.551 11.438,14.512 11.131,14.487 10.62,14.489 10.218,14.517 9.922,14.538 9.5359,14.586 9.0516,14.661 8.7498,14.708 8.5235,14.758 8.2706,14.832 L 8.2218,14.846 V 15.015 C 8.2218,15.108 8.2232,15.186 8.2249,15.188 8.227,15.192 8.2416,15.19 8.266,15.183 8.3746,15.153 8.6549,15.096 8.8204,15.07 9.0605,15.033 9.4204,14.998 9.5651,14.998 H 9.596 L 9.6073,15.024 C 9.6392,15.1 9.7365,15.263 9.7632,15.285 9.7693,15.29 9.7953,15.282 9.9006,15.24 10.224,15.111 10.347,15.071 10.492,15.046 10.544,15.037 10.552,15.037 10.552,15.043 10.552,15.045 10.518,15.081 10.476,15.124 10.319,15.282 10.142,15.512 10.028,15.704 9.9858,15.775 9.92,15.903 9.92,15.914 9.92,15.918 9.9285,15.938 9.9388,15.959 9.9623,16.006 10.013,16.059 10.055,16.078 10.139,16.118 10.204,16.102 10.276,16.025 10.305,15.994 10.321,15.971 10.349,15.917 10.418,15.783 10.513,15.626 10.636,15.442 10.705,15.34 10.786,15.217 10.817,15.168 L 10.872,15.08 10.898,15.072 C 10.932,15.062 10.951,15.062 10.977,15.074 11.007,15.088 11.021,15.114 11.064,15.245 11.109,15.377 11.147,15.537 11.189,15.766 11.229,15.985 11.266,16.175 11.27,16.181 11.274,16.188 11.283,16.185 11.37,16.14 Z"/>
 <path style="opacity:0.1" d="M 10.533,5.4248 C 10.533,5.4248 10.532,5.4258 10.532,5.4258 10.532,5.4258 10.531,5.4268 10.531,5.4268 10.531,5.4268 10.53,5.4278 10.53,5.4278 10.53,5.4278 10.529,5.4288 10.529,5.4288 10.529,5.4288 10.528,5.4288 10.528,5.4288 10.527,5.4301 10.526,5.4317 10.523,5.4337 10.523,5.4337 10.522,5.4347 10.522,5.4347 10.522,5.4354 10.521,5.4369 10.52,5.4377 10.518,5.44 10.516,5.4424 10.513,5.4455 10.511,5.4471 10.508,5.4484 10.507,5.4504 10.504,5.4532 10.501,5.4567 10.498,5.4601 10.496,5.462 10.495,5.4639 10.493,5.466 10.482,5.4777 10.468,5.4935 10.451,5.5119 10.449,5.5138 10.449,5.5138 10.447,5.5158 10.386,5.583 10.32,5.6534 10.253,5.7248 10.23,5.7485 10.208,5.772 10.185,5.7961 10.179,5.8024 10.173,5.8092 10.167,5.8156 10.152,5.8522 10.136,5.8883 10.121,5.925 10.119,5.9302 10.117,5.9353 10.115,5.9406 10.097,5.984 10.08,6.027 10.062,6.0705 10.047,6.1076 10.032,6.1444 10.017,6.1808 10.011,6.1963 10.005,6.2112 9.9987,6.2267 9.9835,6.2648 9.9694,6.3022 9.9548,6.339 9.9424,6.3703 9.929,6.4016 9.9167,6.4328 9.8794,6.527 9.8379,6.6344 9.819,6.6818 L 9.8112,6.7013 C 9.7946,6.7419 9.7806,6.773 9.7741,6.7863 L 9.6784,6.8771 C 9.6234,6.9294 9.5284,7.0196 9.4676,7.0773 9.2161,7.316 8.9824,7.5301 8.8817,7.6144 8.8002,7.6826 8.6222,7.7971 8.5594,7.8215 8.5376,7.8299 8.5324,7.8249 8.5223,7.8254 8.5075,7.8684 8.4934,7.9085 8.4832,7.9347 8.4831,7.9352 8.4834,7.9362 8.4832,7.9367 8.4832,7.9367 8.4822,7.9367 8.4822,7.9367 8.4807,7.9405 8.4797,7.9439 8.4783,7.9474 8.477,7.9507 8.4757,7.9542 8.4744,7.9572 8.474,7.9582 8.4738,7.9592 8.4734,7.9601 8.4556,8.0029 8.4429,8.0219 8.4285,8.0353 L 8.4139,8.049 8.4197,8.0998 C 8.4376,8.2515 8.4568,8.3107 8.493,8.3283 8.5109,8.337 8.5204,8.3366 8.5594,8.3215 8.6221,8.2971 8.8002,8.1826 8.8816,8.1144 8.9824,8.0301 9.2161,7.816 9.4676,7.5773 9.5284,7.5196 9.6234,7.4294 9.6785,7.3771 L 9.7742,7.2863 C 9.7806,7.273 9.7947,7.2419 9.8113,7.2013 L 9.8191,7.1818 C 9.8379,7.1344 9.8795,7.027 9.9168,6.9328 9.9291,6.9016 9.9424,6.8703 9.9549,6.839 9.9695,6.8022 9.9836,6.7648 9.9988,6.7267 10.005,6.7113 10.011,6.6963 10.017,6.6808 10.032,6.6444 10.047,6.6077 10.062,6.5705 10.08,6.527 10.097,6.484 10.115,6.4406 10.117,6.4354 10.119,6.4302 10.121,6.425 10.232,6.1534 10.344,5.8823 10.459,5.6144 10.462,5.608 10.464,5.6022 10.467,5.5959 10.506,5.5033 10.537,5.4304 10.537,5.4279 10.537,5.4273 10.537,5.4264 10.537,5.4259 10.537,5.4259 10.536,5.4259 10.536,5.4259 10.536,5.4259 10.536,5.4249 10.536,5.4249 10.536,5.4249 10.535,5.4249 10.535,5.4249 10.535,5.4249 10.534,5.4249 10.534,5.4249 10.534,5.4249 10.533,5.4249 10.533,5.4249 Z M 12.325,5.7773 12.312,5.7871 C 12.312,5.7877 12.307,5.791 12.305,5.793 12.299,5.7976 12.291,5.8054 12.278,5.8164 12.266,5.827 12.244,5.8459 12.228,5.8603 12.218,5.908 12.208,5.9581 12.198,6.0078 12.187,6.0621 12.176,6.115 12.166,6.1601 12.152,6.2278 12.141,6.279 12.137,6.292 12.136,6.2933 12.136,6.2939 12.136,6.2949 12.136,6.2959 12.136,6.2972 12.136,6.2979 12.136,6.2986 12.136,6.2994 12.137,6.2998 12.137,6.2998 12.138,6.2998 12.138,6.2998 12.138,6.2999 12.139,6.3 12.14,6.2998 12.141,6.2994 12.144,6.2986 12.146,6.2969 12.149,6.2952 12.153,6.2931 12.157,6.2901 12.163,6.2855 12.17,6.2794 12.18,6.2715 12.192,6.261 12.206,6.2472 12.225,6.2305 12.235,6.2205 12.247,6.2105 12.258,6.2002 12.278,6.0861 12.304,5.9419 12.316,5.8574 12.322,5.8233 12.325,5.7998 12.325,5.794 Z M 12.915,5.9678 C 12.915,5.9678 12.914,5.9688 12.914,5.9688 12.913,5.97 12.887,6.0034 12.856,6.043 12.845,6.0577 12.833,6.0721 12.821,6.0869 12.786,6.1316 12.749,6.1765 12.711,6.2217 12.7,6.2346 12.688,6.2469 12.677,6.2598 12.677,6.2613 12.677,6.2643 12.677,6.2656 L 12.617,6.3643 C 12.44,6.6584 12.252,6.9138 12.024,7.169 11.949,7.2542 11.844,7.3471 11.731,7.4541 11.705,7.571 11.681,7.682 11.648,7.7969 11.622,7.8877 11.556,8.1 11.547,8.1221 11.545,8.1274 11.545,8.1319 11.548,8.1319 11.567,8.1319 11.901,7.8074 12.024,7.669 12.252,7.4138 12.44,7.1584 12.617,6.8643 L 12.677,6.7656 C 12.678,6.7546 12.68,6.7358 12.68,6.7168 V 6.7149 C 12.68,6.688 12.681,6.6661 12.687,6.6416 12.687,6.6392 12.688,6.6363 12.689,6.6338 12.689,6.6319 12.69,6.6299 12.69,6.6279 12.69,6.6279 12.69,6.6269 12.69,6.6269 12.702,6.5883 12.723,6.5417 12.764,6.46 12.807,6.3733 12.838,6.3041 12.86,6.2461 12.869,6.2229 12.877,6.2018 12.884,6.1816 12.887,6.1716 12.89,6.1618 12.893,6.1523 12.895,6.1449 12.896,6.1358 12.899,6.127 12.913,6.0651 12.927,5.9764 12.921,5.9707 12.92,5.9701 12.92,5.9702 12.919,5.9697 12.918,5.9692 12.918,5.969 12.917,5.9687 12.916,5.9685 12.916,5.9677 12.915,5.9677 Z M 13.575,6.4678 C 13.575,6.4678 13.574,6.4688 13.574,6.4688 13.573,6.4699 13.573,6.4727 13.572,6.4766 13.572,6.4787 13.57,6.4811 13.569,6.4844 13.568,6.4908 13.566,6.5001 13.563,6.5117 13.561,6.5226 13.558,6.537 13.554,6.5537 13.554,6.5577 13.553,6.5601 13.552,6.5645 13.531,6.6693 13.504,6.7688 13.472,6.8662 13.464,6.9006 13.459,6.9371 13.45,6.9707 13.447,6.9804 13.444,6.99 13.441,7 13.439,7.0066 13.437,7.013 13.435,7.0195 13.434,7.0254 13.432,7.0313 13.43,7.0371 13.421,7.0664 13.413,7.0947 13.403,7.1231 L 13.366,7.2315 C 13.365,7.2325 13.365,7.2346 13.365,7.2354 L 13.275,7.3193 C 13.246,7.3744 13.223,7.4323 13.191,7.4854 13.188,7.4899 13.186,7.4946 13.183,7.499 13.181,7.502 13.179,7.5048 13.177,7.5078 13.131,7.5831 13.082,7.6558 13.026,7.7295 13.018,7.7399 13.009,7.7522 13,7.7647 12.97,7.8021 12.94,7.839 12.909,7.875 12.906,7.8784 12.903,7.8814 12.9,7.8848 12.868,7.9218 12.84,7.9533 12.826,7.9668 12.826,7.9668 12.825,7.9678 12.825,7.9678 12.824,7.9684 12.824,7.9692 12.824,7.9697 12.823,7.9707 12.821,7.9717 12.82,7.9727 12.81,7.9833 12.807,7.9907 12.807,8.003 12.807,8.0319 12.827,8.2247 12.831,8.2305 12.832,8.2334 12.85,8.2204 12.869,8.2022 12.887,8.184 13.006,8.0717 13.133,7.9522 L 13.365,7.7354 C 13.365,7.7346 13.365,7.7325 13.366,7.7315 L 13.403,7.6231 C 13.413,7.5947 13.421,7.5664 13.43,7.5372 13.432,7.5313 13.433,7.5254 13.435,7.5196 13.437,7.513 13.439,7.5067 13.441,7.5 13.444,7.4901 13.447,7.4804 13.45,7.4708 13.49,7.3286 13.521,7.1787 13.544,7.0284 13.557,6.9363 13.568,6.8427 13.575,6.7452 13.579,6.6788 13.582,6.6134 13.583,6.5635 13.583,6.5564 13.583,6.5495 13.583,6.543 V 6.5411 C 13.583,6.5075 13.582,6.4834 13.58,6.4747 13.58,6.4747 13.579,6.4737 13.579,6.4737 13.579,6.4737 13.579,6.4727 13.579,6.4727 13.579,6.4727 13.579,6.4717 13.579,6.4717 13.578,6.4701 13.576,6.4685 13.576,6.4678 13.576,6.4678 13.575,6.4678 13.575,6.4678 Z M 11.771,6.7578 C 11.768,6.7578 11.732,6.7829 11.691,6.8135 11.165,7.2113 10.585,7.4901 9.9658,7.6562 9.8086,7.8316 9.6417,8.018 9.543,8.1289 9.4695,8.2118 9.4213,8.2676 9.417,8.2744 9.4206,8.2773 9.4433,8.2738 9.5244,8.2598 10.287,8.128 10.995,7.8209 11.631,7.3545 11.637,7.3326 11.644,7.3129 11.648,7.2969 11.699,7.1204 11.775,6.8059 11.775,6.7705 11.775,6.7634 11.773,6.7578 11.77,6.7578 Z M 14.457,7.5195 C 14.457,7.5195 14.457,7.5205 14.457,7.5205 14.457,7.5205 14.456,7.5205 14.456,7.5205 14.456,7.5205 14.456,7.5215 14.456,7.5215 14.456,7.5215 14.455,7.5215 14.455,7.5215 14.454,7.5222 14.453,7.5234 14.452,7.5245 14.451,7.5252 14.451,7.5265 14.45,7.5274 14.45,7.5282 14.45,7.5286 14.449,7.5294 14.448,7.5305 14.447,7.5319 14.446,7.5333 14.445,7.5343 14.445,7.5351 14.444,7.5362 14.444,7.5369 14.443,7.5374 14.442,7.5382 14.439,7.5429 14.436,7.5483 14.432,7.5548 14.428,7.5624 14.422,7.5719 14.416,7.5821 14.344,7.7017 14.259,7.827 14.166,7.9522 14.142,7.9847 14.119,8.0161 14.096,8.045 14.009,8.1581 13.915,8.2701 13.817,8.378 13.738,8.4655 13.659,8.5482 13.581,8.6231 13.512,8.6905 13.441,8.7549 13.37,8.8165 13.322,8.8587 13.283,8.8927 13.258,8.9122 13.232,8.9331 13.228,8.9335 13.226,8.9278 13.226,8.9265 13.225,8.9248 13.224,8.9229 13.221,8.9139 13.215,8.929 13.191,9.0001 13.132,9.1777 13.066,9.3331 12.974,9.5128 12.942,9.5759 12.916,9.6288 12.916,9.63 12.916,9.6355 12.924,9.6283 12.996,9.5675 13.038,9.5318 13.078,9.4995 13.086,9.4962 13.123,9.4796 13.446,9.1668 13.589,9.0079 13.779,8.7957 13.945,8.5862 14.094,8.3682 14.179,8.2449 14.257,8.1242 14.257,8.1153 14.257,8.1147 14.257,8.113 14.258,8.1114 14.258,8.1114 14.257,8.1104 14.257,8.1104 14.257,8.1089 14.272,8.0852 14.29,8.0577 14.302,8.0391 14.314,8.0206 14.325,8.001 14.328,7.9961 14.33,7.9913 14.333,7.9864 14.335,7.9814 14.338,7.9757 14.341,7.9708 14.346,7.9608 14.351,7.9516 14.356,7.9415 14.359,7.9364 14.361,7.9309 14.363,7.9258 14.37,7.9105 14.377,7.8946 14.383,7.879 14.386,7.8738 14.388,7.8686 14.39,7.8633 14.394,7.8529 14.398,7.8426 14.402,7.8321 14.406,7.8215 14.409,7.8115 14.413,7.8008 14.416,7.7902 14.419,7.7793 14.423,7.7686 14.426,7.7579 14.429,7.7471 14.431,7.7364 14.434,7.7257 14.437,7.7149 14.439,7.7042 14.442,7.6935 14.444,7.6826 14.446,7.6719 14.449,7.6559 14.452,7.64 14.454,7.6241 14.455,7.6135 14.457,7.6034 14.458,7.5928 14.459,7.5823 14.46,7.572 14.461,7.5616 14.461,7.5544 14.461,7.5474 14.462,7.5421 14.462,7.5413 14.462,7.5408 14.462,7.5401 14.462,7.5383 14.462,7.5368 14.462,7.5352 V 7.5333 C 14.462,7.5321 14.462,7.5304 14.462,7.5294 14.462,7.5285 14.462,7.5282 14.462,7.5274 14.462,7.5266 14.462,7.5252 14.462,7.5245 14.462,7.5235 14.461,7.5232 14.461,7.5225 14.461,7.5225 14.461,7.5215 14.461,7.5215 14.461,7.5215 14.46,7.5205 14.46,7.5205 14.46,7.5205 14.46,7.5195 14.46,7.5195 14.46,7.5195 14.459,7.5195 14.459,7.5195 14.459,7.5195 14.458,7.5195 14.458,7.5195 14.458,7.5195 14.457,7.5195 14.457,7.5195 Z M 7.8428,7.5381 C 7.834,7.5403 7.8344,7.5767 7.8438,7.6553 7.8441,7.6578 7.8445,7.6605 7.8448,7.6631 7.8457,7.671 7.8466,7.6788 7.8477,7.6875 7.8492,7.6989 7.8508,7.7108 7.8526,7.7236 7.8563,7.7497 7.8603,7.7793 7.8653,7.8115 7.8678,7.8277 7.8713,7.8446 7.8741,7.8623 7.875,7.8679 7.8752,7.8741 7.8761,7.8799 7.884,7.9289 7.8939,7.9829 7.9044,8.044 7.9062,8.0548 7.9076,8.0648 7.9093,8.0742 7.9151,8.1065 7.9204,8.1351 7.9249,8.1563 7.9296,8.1765 7.9333,8.1868 7.9366,8.1904 7.9418,8.1961 7.9852,8.2579 8.0323,8.3272 8.0795,8.3964 8.1641,8.5194 8.2208,8.6006 8.2775,8.6819 8.3256,8.7481 8.3282,8.7481 8.3308,8.7481 8.3319,8.7372 8.3302,8.7236 8.3285,8.7102 8.3125,8.551 8.294,8.3701 8.2833,8.2643 8.2793,8.2346 8.2726,8.1719 8.2532,8.1454 8.2482,8.1398 8.2208,8.1006 8.1721,8.0309 8.1072,7.9371 8.0587,7.8662 8.0526,7.8599 8.045,7.8551 8.0392,7.8486 7.9891,7.7933 7.9472,7.7314 7.9103,7.6582 7.9103,7.6582 7.9103,7.6572 7.9103,7.6572 7.9079,7.6525 7.9048,7.6483 7.9024,7.6435 7.8811,7.5997 7.861,7.5578 7.8575,7.5508 7.8558,7.5472 7.8532,7.5443 7.8507,7.542 7.8507,7.542 7.8507,7.541 7.8507,7.541 7.8497,7.5402 7.8486,7.5395 7.8477,7.539 7.8465,7.5384 7.8449,7.538 7.8438,7.538 7.8438,7.538 7.8428,7.538 7.8428,7.538 Z M 14.381,8.748 C 14.378,8.748 14.363,8.7724 14.347,8.8027 14.343,8.8099 14.332,8.8266 14.327,8.835 14.323,8.9042 14.322,8.9676 14.321,9.0771 14.32,9.2066 14.323,9.3127 14.325,9.4141 14.326,9.3831 14.326,9.3405 14.328,9.3105 14.329,9.2957 14.329,9.2828 14.33,9.2725 14.331,9.2631 14.332,9.2544 14.333,9.2451 14.336,9.2136 14.339,9.1774 14.343,9.1357 14.347,9.0914 14.352,9.0494 14.356,9.0098 14.364,8.9304 14.37,8.8711 14.377,8.8232 14.379,8.8056 14.381,8.7882 14.383,8.7725 14.385,8.7567 14.385,8.748 14.381,8.748 Z M 7.4229,11.2 C 7.4216,11.201 7.4115,11.22 7.3955,11.25 7.3796,11.28 7.3579,11.321 7.335,11.366 7.1929,11.644 7.0703,11.876 6.9717,12.054 6.9575,12.079 6.9536,12.083 6.9404,12.106 6.9288,12.146 6.9178,12.183 6.9053,12.225 6.8967,12.253 6.8879,12.281 6.8789,12.311 6.8518,12.398 6.8229,12.49 6.791,12.589 6.7599,12.685 6.7369,12.757 6.7207,12.811 6.711,12.843 6.7036,12.867 6.6982,12.888 6.6901,12.918 6.686,12.938 6.6855,12.95 6.6854,12.953 6.6854,12.955 6.6855,12.957 6.6859,12.961 6.6871,12.965 6.6885,12.968 6.6885,12.968 6.6895,12.969 6.6895,12.969 6.6911,12.971 6.693,12.973 6.6944,12.974 6.6944,12.974 6.6954,12.975 6.6954,12.975 6.6954,12.975 6.6964,12.975 6.6964,12.975 6.7003,12.975 6.7059,12.97 6.7189,12.958 6.721,12.956 6.7233,12.954 6.7257,12.951 6.7331,12.943 6.742,12.933 6.7521,12.92 6.7988,12.857 6.8732,12.732 6.9718,12.554 7.0704,12.376 7.193,12.144 7.3351,11.866 7.3412,11.854 7.3449,11.846 7.3507,11.835 7.3619,11.783 7.373,11.733 7.379,11.698 7.3846,11.666 7.3902,11.626 7.3956,11.583 7.4018,11.537 7.4075,11.49 7.4122,11.44 7.4178,11.384 7.4224,11.33 7.4249,11.287 7.4295,11.221 7.4283,11.197 7.423,11.2 Z M 1.5742,13.281 C 1.5677,13.284 1.5653,13.302 1.5674,13.337 1.5688,13.361 1.5723,13.422 1.5752,13.473 1.6035,13.981 1.6838,14.479 1.8301,15.063 1.9205,15.425 2.0383,15.743 2.1855,16.036 2.2291,16.063 2.2776,16.1 2.3213,16.125 2.4329,16.189 2.6468,16.298 2.6807,16.309 2.6818,16.309 2.6829,16.309 2.6836,16.31 2.6836,16.31 2.6846,16.31 2.6846,16.31 2.6887,16.308 2.6786,16.291 2.6562,16.264 2.2619,15.783 2.001,15.246 1.8301,14.563 1.7186,14.118 1.6552,13.725 1.6143,13.337 1.6116,13.332 1.6088,13.326 1.6074,13.323 1.5931,13.295 1.5829,13.281 1.5762,13.281 1.5757,13.281 1.5746,13.281 1.5742,13.281 Z M 20.433,13.646 20.349,13.735 C 20.345,13.745 20.343,13.756 20.34,13.766 20.333,13.787 20.325,13.809 20.317,13.83 20.314,13.841 20.31,13.852 20.307,13.862 20.299,13.884 20.291,13.905 20.283,13.927 20.204,14.141 20.109,14.351 20.001,14.545 19.986,14.572 19.968,14.603 19.948,14.637 19.849,14.806 19.695,15.047 19.566,15.239 19.541,15.278 19.516,15.314 19.493,15.348 19.47,15.381 19.447,15.413 19.428,15.439 19.412,15.461 19.397,15.483 19.381,15.504 19.278,15.641 19.177,15.764 19.064,15.887 19.047,15.906 19.03,15.925 19.012,15.943 18.896,16.065 18.768,16.188 18.616,16.324 18.605,16.335 18.593,16.345 18.581,16.355 18.569,16.366 18.556,16.377 18.544,16.388 18.432,16.486 18.385,16.528 18.37,16.547 18.367,16.55 18.366,16.553 18.365,16.556 18.365,16.557 18.364,16.558 18.364,16.559 18.364,16.559 18.364,16.56 18.364,16.56 18.364,16.561 18.366,16.562 18.366,16.562 18.374,16.57 18.436,16.54 18.57,16.463 18.957,16.241 19.082,16.17 19.267,16.067 19.338,16.028 19.343,16.025 19.38,16.005 19.38,16.004 19.381,16.004 19.381,16.004 19.397,15.983 19.412,15.961 19.428,15.939 19.447,15.913 19.47,15.881 19.493,15.848 19.516,15.814 19.541,15.778 19.566,15.739 19.695,15.547 19.849,15.306 19.948,15.137 19.968,15.103 19.986,15.072 20.001,15.045 20.109,14.851 20.204,14.641 20.283,14.427 20.291,14.405 20.299,14.384 20.307,14.362 20.31,14.351 20.314,14.341 20.317,14.33 20.325,14.308 20.333,14.287 20.34,14.266 20.365,14.19 20.387,14.114 20.407,14.038 20.414,14.013 20.421,13.99 20.425,13.978 20.426,13.975 20.428,13.972 20.429,13.972 Z M 1.8135,16.298 C 1.807,16.304 1.8803,16.435 1.9492,16.54 2.0501,16.694 2.1434,16.809 2.2764,16.941 2.4388,17.104 2.5333,17.174 2.9189,17.424 3.3426,17.698 3.5912,17.837 3.8643,17.954 3.9888,18.007 4.115,18.055 4.2432,18.098 4.2574,18.102 4.2718,18.108 4.2861,18.112 4.3004,18.117 4.3148,18.121 4.3291,18.125 4.3434,18.129 4.3577,18.134 4.3721,18.139 4.3865,18.143 4.4006,18.147 4.415,18.151 4.4295,18.156 4.4445,18.16 4.459,18.164 4.4735,18.168 4.4874,18.172 4.502,18.176 4.5165,18.18 4.5312,18.184 4.5459,18.188 4.5606,18.191 4.5761,18.195 4.5908,18.198 4.6055,18.202 4.62,18.205 4.6348,18.209 4.6496,18.212 4.6638,18.216 4.6787,18.22 4.6936,18.223 4.7087,18.226 4.7236,18.23 4.7386,18.233 4.7535,18.236 4.7686,18.239 4.7836,18.243 4.7984,18.245 4.8135,18.248 4.8286,18.251 4.8442,18.255 4.8594,18.258 4.8745,18.261 4.89,18.263 4.9053,18.266 4.9205,18.268 4.9358,18.272 4.9512,18.275 4.9665,18.277 4.9816,18.28 4.9971,18.282 5.0125,18.285 5.0284,18.287 5.0439,18.289 5.0595,18.292 5.0742,18.294 5.0898,18.296 5.1055,18.298 5.121,18.301 5.1367,18.303 5.1524,18.305 5.1688,18.307 5.1846,18.309 5.2004,18.311 5.2156,18.314 5.2314,18.315 5.2473,18.317 5.2633,18.319 5.2793,18.32 8.7988,18.405 12.575,19.337 15.748,18.697 V 18.672 C 15.909,18.655 16.068,18.628 16.222,18.589 16.246,18.582 16.271,18.576 16.296,18.569 16.348,18.555 16.408,18.536 16.476,18.513 16.489,18.508 16.503,18.504 16.517,18.499 16.6,18.47 16.692,18.435 16.788,18.397 16.82,18.385 16.853,18.372 16.886,18.358 17.18,18.24 17.494,18.098 17.7,17.986 17.713,17.979 17.726,17.973 17.738,17.966 17.751,17.959 17.764,17.951 17.776,17.944 17.801,17.93 17.826,17.917 17.851,17.902 17.863,17.895 17.875,17.888 17.888,17.881 17.949,17.845 18.009,17.809 18.067,17.772 18.079,17.764 18.091,17.757 18.103,17.749 18.126,17.734 18.149,17.719 18.172,17.703 18.183,17.695 18.196,17.687 18.207,17.68 18.218,17.672 18.23,17.664 18.241,17.656 18.253,17.648 18.264,17.641 18.275,17.633 18.377,17.561 18.477,17.487 18.575,17.407 18.586,17.398 18.597,17.39 18.608,17.381 18.652,17.345 18.695,17.308 18.738,17.271 18.749,17.261 18.761,17.252 18.771,17.242 18.782,17.233 18.793,17.223 18.804,17.213 18.836,17.184 18.892,17.131 18.952,17.072 18.972,17.053 18.993,17.032 19.014,17.012 19.096,16.93 19.177,16.847 19.216,16.805 19.233,16.786 19.251,16.766 19.269,16.745 19.304,16.704 19.34,16.662 19.374,16.622 19.391,16.602 19.408,16.582 19.423,16.564 19.483,16.49 19.525,16.435 19.521,16.432 19.52,16.43 19.518,16.431 19.508,16.436 19.506,16.436 19.504,16.437 19.501,16.438 19.475,16.452 19.414,16.486 19.267,16.567 19.082,16.67 18.957,16.741 18.57,16.963 18.441,17.037 18.386,17.063 18.374,17.059 18.341,17.083 18.309,17.109 18.275,17.133 18.264,17.141 18.253,17.148 18.241,17.156 18.23,17.164 18.219,17.172 18.207,17.18 18.196,17.187 18.183,17.195 18.172,17.203 18.149,17.219 18.126,17.234 18.103,17.249 18.091,17.257 18.079,17.264 18.067,17.271 18.009,17.309 17.949,17.345 17.888,17.381 17.876,17.388 17.863,17.395 17.851,17.402 17.826,17.417 17.801,17.43 17.776,17.444 17.764,17.451 17.751,17.459 17.738,17.466 17.726,17.473 17.713,17.479 17.7,17.486 17.494,17.598 17.18,17.74 16.886,17.858 16.853,17.872 16.82,17.885 16.788,17.897 16.692,17.935 16.6,17.97 16.517,17.999 16.503,18.004 16.489,18.008 16.476,18.013 16.408,18.036 16.348,18.055 16.296,18.069 16.271,18.076 16.246,18.082 16.222,18.089 16.068,18.128 15.909,18.155 15.748,18.172 V 18.197 C 12.575,18.837 8.7988,17.905 5.2793,17.82 5.2633,17.819 5.2474,17.817 5.2315,17.815 5.2156,17.814 5.2004,17.811 5.1846,17.809 5.1688,17.807 5.1525,17.805 5.1368,17.803 5.121,17.801 5.1055,17.798 5.0899,17.796 5.0743,17.794 5.0595,17.791 5.044,17.789 5.0285,17.787 5.0125,17.785 4.9971,17.782 4.9817,17.78 4.9665,17.777 4.9512,17.775 4.9359,17.772 4.9206,17.769 4.9053,17.766 4.89,17.763 4.8746,17.761 4.8594,17.758 4.8442,17.755 4.8286,17.751 4.8135,17.748 4.7984,17.745 4.7836,17.743 4.7686,17.739 4.7536,17.736 4.7386,17.733 4.7237,17.73 4.7087,17.726 4.6936,17.723 4.6787,17.72 4.6639,17.716 4.6496,17.713 4.6348,17.709 4.62,17.705 4.6056,17.702 4.5909,17.698 4.5761,17.695 4.5606,17.691 4.5459,17.688 4.5313,17.684 4.5166,17.68 4.502,17.676 4.4874,17.672 4.4735,17.668 4.459,17.664 4.4445,17.66 4.4295,17.656 4.4151,17.651 4.4006,17.647 4.3865,17.643 4.3721,17.639 4.3577,17.634 4.3435,17.629 4.3291,17.625 4.3148,17.621 4.3004,17.617 4.2862,17.612 4.2719,17.608 4.2574,17.602 4.2432,17.598 4.115,17.555 3.9888,17.507 3.8643,17.454 3.5912,17.337 3.3426,17.198 2.9189,16.924 2.7824,16.836 2.7113,16.786 2.6318,16.73 2.6405,16.741 2.6474,16.753 2.6562,16.764 2.6786,16.791 2.6887,16.808 2.6846,16.81 2.6846,16.81 2.6836,16.81 2.6836,16.81 2.6829,16.809 2.6818,16.809 2.6807,16.809 2.6468,16.798 2.433,16.689 2.3213,16.625 2.1689,16.538 2.0211,16.442 1.8467,16.315 1.8345,16.307 1.8231,16.3 1.8174,16.298 1.816,16.297 1.8151,16.298 1.8145,16.298 1.8145,16.298 1.8135,16.298 1.8135,16.298 Z"/>
 <path style="fill:#ebdeb0" d="M 6.7031,15.254 C 6.7477,15.592 6.7811,15.848 6.7881,15.922 6.8011,16.059 6.8058,16.229 6.8008,16.377 6.7859,16.81 6.7843,16.934 6.79,17.132 6.7975,17.388 6.8149,17.646 6.8369,17.838 6.8445,17.904 6.9572,18.286 7.043,18.537 7.1126,18.741 7.2081,18.984 7.292,19.172 7.34,19.279 7.3949,19.38 7.4541,19.467 7.6566,19.764 7.7205,19.863 7.7822,19.982 7.808,20.032 7.8169,20.046 7.8271,20.049 7.8457,20.053 7.919,20.047 7.9521,20.038 7.9677,20.034 8.0122,20.024 8.0518,20.017 8.0913,20.009 8.1424,19.997 8.165,19.989 8.3084,19.939 9.5958,19.423 10.161,19.188 10.264,19.146 10.351,19.11 10.354,19.11 10.357,19.11 10.475,19.157 10.616,19.213 11.484,19.558 12.277,19.855 13.231,20.19 L 13.479,20.277 13.514,20.273 C 13.533,20.272 13.562,20.266 13.577,20.261 13.603,20.251 13.608,20.245 13.647,20.192 13.808,19.976 13.932,19.75 14.021,19.509 14.097,19.3 14.272,18.767 14.416,18.301 14.433,18.244 14.457,18.176 14.468,18.148 14.482,18.112 14.488,18.09 14.488,18.07 14.488,17.988 14.581,17.067 14.647,16.487 14.658,16.4 14.664,16.274 14.672,16.193 L 13.167,16.313 13.141,16.333 C 13.148,16.332 13.171,16.324 13.175,16.324 13.195,16.323 13.195,16.323 13.194,16.338 13.189,16.416 13.109,17.174 13.105,17.183 13.101,17.194 13.1,17.193 13.046,17.16 12.905,17.074 12.778,17.029 12.631,17.014 12.541,17.004 12.442,17.016 12.347,17.046 12.319,17.055 12.24,17.085 12.171,17.115 11.837,17.259 11.755,17.281 11.369,17.33 11.013,17.375 10.804,17.396 10.334,17.433 9.8901,17.467 9.5304,17.501 9.2197,17.536 9.0914,17.551 9.0783,17.551 9.0752,17.542 9.0739,17.538 9.0631,17.498 9.0517,17.452 8.9892,17.201 8.8763,16.944 8.7334,16.727 8.6642,16.621 8.5509,16.483 8.4775,16.407 8.1748,16.128 7.901,15.873 7.7031,15.775 7.3509,15.602 7.0222,15.428 6.7031,15.254 Z M 9.2187,17.045 C 9.2254,17.06 9.2343,17.091 9.2432,17.093 9.2468,17.093 9.2778,17.097 9.2939,17.1 9.2688,17.081 9.2437,17.064 9.2187,17.045 Z"/>
 <path style="opacity:0.1;fill:#ffffff" d="M 2,1 C 1.446,1 1,1.446 1,2 V 2.5 C 1,1.946 1.446,1.5 2,1.5 H 20 C 20.554,1.5 21,1.946 21,2.5 V 2 C 21,1.446 20.554,1 20,1 Z"/>
 <path style="opacity:0.1" d="M 11.768,7.2694 C 11.766,7.2681 11.726,7.2972 11.677,7.3339 11.656,7.3495 11.633,7.3625 11.612,7.3778 11.592,7.4446 11.576,7.5123 11.557,7.5692 11.543,7.609 11.535,7.6408 11.538,7.6434 11.543,7.6481 11.647,7.5448 11.724,7.4745 11.745,7.3788 11.77,7.2717 11.768,7.2694 Z M 9.7637,7.3104 C 9.7619,7.3086 9.744,7.3238 9.7236,7.3436 9.6731,7.3927 9.5712,7.4864 9.4805,7.5721 9.4688,7.6036 9.452,7.6476 9.4424,7.6737 9.4195,7.736 9.4063,7.7773 9.4092,7.7802 9.4129,7.7839 9.529,7.759 9.6025,7.746 9.6365,7.6561 9.6692,7.5685 9.6963,7.4979 9.7351,7.3968 9.7655,7.3123 9.7637,7.3104 Z M 13.358,7.7518 C 13.358,7.752 13.302,7.8049 13.297,7.8095 13.296,7.8132 13.296,7.8126 13.296,7.8163 L 13.229,8.3632 13.188,8.4843 C 13.113,8.7092 13.026,8.9115 12.926,9.0917 12.912,9.1171 12.9,9.1419 12.901,9.1464 12.903,9.1541 12.971,9.1006 13.054,9.0272 13.073,9.01 13.083,9.0039 13.087,9.0077 13.095,9.0155 13.094,9.1855 13.086,9.245 13.085,9.2518 13.082,9.2596 13.081,9.2665 13.119,9.1762 13.155,9.0834 13.188,8.9843 L 13.229,8.8632 13.296,8.3163 C 13.332,8.0153 13.362,7.7648 13.362,7.7597 13.362,7.7545 13.361,7.7509 13.358,7.7518 Z M 8.2822,7.8192 C 8.2765,7.8173 8.2721,7.8574 8.2676,7.9589 8.2659,7.9964 8.2795,8.1232 8.2861,8.1991 8.2953,8.2114 8.3301,8.2623 8.3311,8.2626 8.3353,8.2639 8.3369,8.2581 8.3369,8.247 8.3369,8.2377 8.3208,8.0731 8.3008,7.8807 8.2987,7.8607 8.3007,7.8723 8.2988,7.8544 8.2919,7.8368 8.2845,7.82 8.2822,7.8192 Z M 7.9385,8.2098 C 7.9336,8.2147 8.0313,8.803 8.0654,8.9745 8.1078,9.1873 8.1846,9.4444 8.2725,9.6669 8.2941,9.7217 8.311,9.768 8.3096,9.7694 8.3082,9.7708 8.2942,9.7613 8.2783,9.7489 8.2294,9.7106 8.2249,9.7087 8.2227,9.7128 8.2215,9.715 8.2361,9.7867 8.2549,9.8729 8.2845,10.009 8.2914,10.034 8.3057,10.056 8.3147,10.07 8.3276,10.101 8.335,10.125 8.3525,10.182 8.3596,10.194 8.4268,10.295 8.5568,10.49 8.6266,10.575 8.8018,10.75 9.0272,10.975 9.2277,11.139 9.5088,11.327 9.5678,11.367 9.6174,11.401 9.6191,11.404 9.6208,11.407 9.6587,11.431 9.7031,11.458 10.042,11.661 10.364,11.805 10.76,11.932 10.844,11.958 10.861,11.959 10.961,11.936 11.106,11.904 11.23,11.85 11.361,11.763 11.387,11.746 11.454,11.698 11.511,11.656 11.665,11.543 11.772,11.469 11.886,11.396 12.008,11.319 12.058,11.282 12.148,11.202 12.494,10.898 12.801,10.515 12.938,10.216 13.019,10.037 13.067,9.8857 13.086,9.745 13.094,9.6855 13.095,9.5155 13.087,9.5077 13.083,9.5039 13.073,9.51 13.054,9.5273 13.02,9.5568 13.017,9.5547 12.992,9.5751 12.975,9.6214 12.96,9.6654 12.938,9.7157 12.801,10.015 12.494,10.398 12.148,10.702 12.058,10.782 12.008,10.819 11.886,10.896 11.772,10.969 11.665,11.043 11.511,11.156 11.454,11.198 11.387,11.246 11.361,11.263 11.23,11.35 11.106,11.404 10.961,11.436 10.861,11.459 10.844,11.458 10.76,11.432 10.364,11.305 10.042,11.161 9.7032,10.958 9.6587,10.931 9.6209,10.907 9.6192,10.904 9.6175,10.901 9.5679,10.867 9.5088,10.827 9.2277,10.639 9.0272,10.475 8.8018,10.25 8.6266,10.075 8.5568,9.9896 8.4268,9.7948 8.3597,9.6942 8.3525,9.6823 8.335,9.6249 8.3276,9.6007 8.3147,9.5695 8.3057,9.5555 8.2915,9.5335 8.2845,9.5087 8.2549,9.3729 8.2361,9.2867 8.2215,9.215 8.2227,9.2128 8.2249,9.2087 8.2294,9.2106 8.2783,9.2489 8.2942,9.2613 8.3082,9.2708 8.3096,9.2694 8.311,9.268 8.2941,9.2217 8.2725,9.1669 8.1846,8.9444 8.1078,8.6863 8.0655,8.4735 8.0601,8.4468 8.0537,8.3976 8.0459,8.3544 8.0079,8.299 7.9536,8.225 7.9473,8.2137 7.9449,8.2095 7.9406,8.2077 7.9385,8.2098 Z"/>
</svg>
