<svg width="22" height="22" version="1.1" xmlns="http://www.w3.org/2000/svg">
 <g transform="translate(-1,-1)">
  <rect x="11" y="3.5" width="2" height="5" style="fill:#4d401e"/>
  <rect x="6" y="18" width="12" height="3" style="fill:#4d401e"/>
  <path d="m11 2.5c-0.554 0-1 0.446-1 1v2c0 0.554 0.446 1 1 1h2c0.554 0 1-0.446 1-1v-2c0-0.554-0.446-1-1-1zm1 5a7 7 0 0 0-7 7v5h14v-5a7 7 0 0 0-7-7zm-7 13v1c0 0.554 0.446 1 1 1h12c0.554 0 1-0.446 1-1v-1z" style="opacity:.2"/>
  <path d="m12 7a7 7 0 0 0-7 7v5h14v-5a7 7 0 0 0-7-7zm-7 13v1c0 0.554 0.446 1 1 1h12c0.554 0 1-0.446 1-1v-1z" style="fill:#baa74b"/>
  <rect x="10" y="2" width="4" height="4" rx="1" ry="1" style="fill:#baa74b"/>
  <path d="m8 14.5a2 2 0 0 0-2 2 2 2 0 0 0 2 2 2 2 0 0 0 2-2 2 2 0 0 0-2-2zm8 0a2 2 0 0 0-2 2 2 2 0 0 0 2 2 2 2 0 0 0 2-2 2 2 0 0 0-2-2z" style="opacity:.2"/>
  <circle cx="8" cy="16" r="2" style="fill:#e7c275"/>
  <circle cx="16" cy="16" r="2" style="fill:#e7c275"/>
  <circle cx="8" cy="16" r="1" style="opacity:.8"/>
  <circle cx="16" cy="16" r="1" style="opacity:.8"/>
  <path d="m11 7v12h2v-12zm2 1.5a0.5 0.5 0 0 0 0.5 0.5 0.5 0.5 0 0 0 0.5-0.5 0.5 0.5 0 0 0-0.5-0.5 0.5 0.5 0 0 0-0.5 0.5zm0 2a0.5 0.5 0 0 0 0.5 0.5 0.5 0.5 0 0 0 0.5-0.5 0.5 0.5 0 0 0-0.5-0.5 0.5 0.5 0 0 0-0.5 0.5zm0 2a0.5 0.5 0 0 0 0.5 0.5 0.5 0.5 0 0 0 0.5-0.5 0.5 0.5 0 0 0-0.5-0.5 0.5 0.5 0 0 0-0.5 0.5z" style="opacity:.2"/>
  <path d="m11 2c-0.554 0-1 0.446-1 1v0.5c0-0.554 0.446-1 1-1h2c0.554 0 1 0.446 1 1v-0.5c0-0.554-0.446-1-1-1zm1 5a7 7 0 0 0-7 7v0.5a7 7 0 0 1 7-7 7 7 0 0 1 7 7v-0.5a7 7 0 0 0-7-7zm-7 13v0.5h14v-0.5z" style="fill:#ffffff;opacity:.2"/>
  <path d="M 8,14 A 2,2 0 0 0 6,16 2,2 0 0 0 6.0175781,16.255859 2,2 0 0 1 8,14.5 2,2 0 0 1 9.9824219,16.244141 2,2 0 0 0 10,16 2,2 0 0 0 8,14 Z m 8,0 a 2,2 0 0 0 -2,2 2,2 0 0 0 0.01758,0.255859 A 2,2 0 0 1 16,14.5 2,2 0 0 1 17.982422,16.244141 2,2 0 0 0 18,16 2,2 0 0 0 16,14 Z" style="fill:#ffffff;opacity:.2"/>
 </g>
</svg>
