<svg width="22" height="22" version="1.1" xmlns="http://www.w3.org/2000/svg">
 <path d="m11.090575 7.5021445a1.9324752 1.9466645 0 0 0-1.7643391 0.971334l-2.5332895 4.4204255-2.5342325 4.420425a1.9324752 1.9466645 0 0 0 0.5906285 2.585155s2.4344195 1.600516 6.1506576 1.600516c3.716238 0 6.150657-1.600516 6.150657-1.600516a1.9324752 1.9466645 0 0 0 0.590629-2.585155l-2.534233-4.420425-2.533289-4.4204255a1.9324752 1.9466645 0 0 0-1.583189-0.971334z" style="opacity:.2"/>
 <path d="m11.090575 7.0021445a1.9324752 1.9466645 0 0 0-1.7643391 0.971334l-2.5332895 4.4204255-2.5342325 4.420425a1.9324752 1.9466645 0 0 0 0.5906285 2.585155s2.4344195 1.600516 6.1506576 1.600516c3.716238 0 6.150657-1.600516 6.150657-1.600516a1.9324752 1.9466645 0 0 0 0.590629-2.585155l-2.534233-4.420425-2.533289-4.4204255a1.9324752 1.9466645 0 0 0-1.583189-0.971334z" style="fill:#1d4d85"/>
 <path d="m11.077636 5.501838a1.6564074 1.6685697 0 0 0-1.5122911 0.832572l-2.171391 3.788936-2.1721995 3.788937a1.6564074 1.6685697 0 0 0 0.506253 2.215847s2.0866455 1.37187 5.2719916 1.37187c3.185348 0 5.271993-1.37187 5.271993-1.37187a1.6564074 1.6685697 0 0 0 0.506254-2.215847l-2.1722-3.788937-2.171391-3.788936a1.6564074 1.6685697 0 0 0-1.357019-0.832572z" style="opacity:.2"/>
 <path d="m11.077636 5.001838a1.6564074 1.6685697 0 0 0-1.5122911 0.832572l-2.171391 3.788936-2.1721995 3.788937a1.6564074 1.6685697 0 0 0 0.506253 2.215847s2.0866455 1.37187 5.2719916 1.37187c3.185348 0 5.271993-1.37187 5.271993-1.37187a1.6564074 1.6685697 0 0 0 0.506254-2.215847l-2.1722-3.788937-2.171391-3.788936a1.6564074 1.6685697 0 0 0-1.357019-0.832572z" style="fill:#2a83c0"/>
 <path d="m11.064696 3.5015315a1.3803395 1.3904748 0 0 0-1.2602421 0.69381l-1.8094925 3.1574465-1.810166 3.157448a1.3803395 1.3904748 0 0 0 0.4218775 1.846539s1.738871 1.143225 4.3933261 1.143225c2.654457 0 4.393327-1.143225 4.393327-1.143225a1.3803395 1.3904748 0 0 0 0.421878-1.846539l-1.810166-3.157448-1.809492-3.1574465a1.3803395 1.3904748 0 0 0-1.13085-0.69381z" style="opacity:.2"/>
 <path d="m11.064696 3.0015315a1.3803395 1.3904748 0 0 0-1.2602421 0.69381l-1.8094925 3.1574465-1.810166 3.157448a1.3803395 1.3904748 0 0 0 0.4218775 1.846539s1.738871 1.143225 4.3933261 1.143225c2.654457 0 4.393327-1.143225 4.393327-1.143225a1.3803395 1.3904748 0 0 0 0.421878-1.846539l-1.810166-3.157448-1.809492-3.1574465a1.3803395 1.3904748 0 0 0-1.13085-0.69381z" style="fill:#5bb9db"/>
 <path d="m9.9999999 11.5a1 1 0 0 1-1 1 1 1 0 0 1-1-1 1 1 0 0 1 1-1 1 1 0 0 1 1 1z" style="opacity:.2"/>
 <path d="m10.999952 1.500091c-0.360604 0.00534-0.617775 0.230315-0.738465 0.6027375l0.0045-0.016795-0.5665901 1.4645345h-1.4108258c-0.00415-6.92e-5 -0.00811-6.92e-5 -0.012275 0-0.228172 0.00766-0.4339125 0.1180012-0.5788675 0.3007831-0.3134935 0.372713-0.247049 0.809042 0.1510415 1.0870065l1.0023443 1.1371165-0.5829595 1.3753307c-6.5e-4 0.00205-0.00125 0.00415-0.00185 0.00625-0.089076 0.303075-0.00534 0.615315 0.21875 0.828911 0.00155 0.0016 0.0035 0.00315 0.00522 0.0047 0.2692515 0.2479095 0.647566 0.2794185 0.951634 0.074219 0.0058-0.0039 0.01154-0.00792 0.01711-0.01211l1.5412971-1.15274 1.54129 1.15274c0.0056 0.00415 0.01132 0.00824 0.01711 0.01211 0.304068 0.205199 0.682383 0.17369 0.951634-0.074219 0.0016-0.00155 0.0035-0.0031 0.0052-0.0047 0.224061-0.213596 0.307826-0.525836 0.218749-0.828911l-0.0018-0.00625-0.582993-1.3753307 1.002327-1.137116c0.39809-0.277965 0.464535-0.714294 0.15104-1.0870068-0.144954-0.182782-0.350695-0.2931232-0.578867-0.3007832-0.0042-6.91e-5 -0.0081-6.91e-5 -0.01228 0h-1.410807l-0.56659-1.4645344 0.0045 0.016795c-0.120802-0.3724227-0.377973-0.5973993-0.738577-0.6027377z" style="opacity:.2"/>
 <path d="m10.999952 0.9996312c-0.360604 0.00534-0.617775 0.230315-0.738465 0.6027375l0.0045-0.016795-0.5665901 1.4645345h-1.4108258c-0.00415-6.92e-5 -0.00811-6.92e-5 -0.012275 0-0.228172 0.00766-0.4339125 0.1180012-0.5788675 0.3007831-0.3134935 0.372713-0.247049 0.809042 0.1510415 1.0870065l1.0023443 1.1371165-0.5829595 1.3753307c-6.5e-4 0.00205-0.00125 0.00415-0.00185 0.00625-0.089076 0.303075-0.00534 0.615315 0.21875 0.828911 0.00155 0.0016 0.0035 0.00315 0.00522 0.0047 0.2692515 0.2479095 0.647566 0.2794185 0.951634 0.074219 0.0058-0.0039 0.01154-0.00792 0.01711-0.01211l1.5412971-1.15274 1.54129 1.15274c0.0056 0.00415 0.01132 0.00824 0.01711 0.01211 0.304068 0.205199 0.682383 0.17369 0.951634-0.074219 0.0016-0.00155 0.0035-0.0031 0.0052-0.0047 0.224061-0.213596 0.307826-0.525836 0.218749-0.828911l-0.0018-0.00625-0.582993-1.3753307 1.002327-1.137116c0.39809-0.277965 0.464535-0.714294 0.15104-1.0870068-0.144954-0.182782-0.350695-0.2931232-0.578867-0.3007832-0.0042-6.91e-5 -0.0081-6.91e-5 -0.01228 0h-1.410807l-0.56659-1.4645344 0.0045 0.016795c-0.120802-0.3724227-0.377973-0.5973993-0.738577-0.6027377z" style="fill:#e4e4e4"/>
 <path d="m9.9999999 11a1 1 0 0 1-1 1 1 1 0 0 1-1-1 1 1 0 0 1 1-1 1 1 0 0 1 1 1z" style="fill:#ffffff"/>
 <path d="m15 14.5a1 1 0 0 1-1 1 1 1 0 0 1-1-1 1 1 0 0 1 1-1 1 1 0 0 1 1 1z" style="opacity:.2"/>
 <path d="m15 14a1 1 0 0 1-1 1 1 1 0 0 1-1-1 1 1 0 0 1 1-1 1 1 0 0 1 1 1z" style="fill:#ffffff"/>
 <path d="m8.9999999 19.5a1 1 0 0 1-1 1 1 1 0 0 1-1-1 1 1 0 0 1 1-1 1 1 0 0 1 1 1z" style="opacity:.2"/>
 <path d="m8.9999999 19a1 1 0 0 1-1 1 1 1 0 0 1-1-1 1 1 0 0 1 1-1 1 1 0 0 1 1 1z" style="fill:#ffffff"/>
 <path d="m13 11a0.5 0.5 0 0 1-0.5 0.5 0.5 0.5 0 0 1-0.5-0.5 0.5 0.5 0 0 1 0.5-0.5 0.5 0.5 0 0 1 0.5 0.5z" style="opacity:.2"/>
 <path d="m13 10.5a0.5 0.5 0 0 1-0.5 0.5 0.5 0.5 0 0 1-0.5-0.5 0.5 0.5 0 0 1 0.5-0.5 0.5 0.5 0 0 1 0.5 0.5z" style="fill:#ffffff"/>
 <path d="M 11,16 A 0.5,0.5 0 0 1 10.5,16.5 0.5,0.5 0 0 1 9.9999999,16 0.5,0.5 0 0 1 10.5,15.5 0.5,0.5 0 0 1 11,16 Z" style="opacity:.2"/>
 <path d="M 11,15.5 A 0.5,0.5 0 0 1 10.5,16 0.5,0.5 0 0 1 9.9999999,15.5 0.5,0.5 0 0 1 10.5,15 0.5,0.5 0 0 1 11,15.5 Z" style="fill:#ffffff"/>
 <path d="m14 19a0.5 0.5 0 0 1-0.5 0.5 0.5 0.5 0 0 1-0.5-0.5 0.5 0.5 0 0 1 0.5-0.5 0.5 0.5 0 0 1 0.5 0.5z" style="opacity:.2"/>
 <path d="m14 18.5a0.5 0.5 0 0 1-0.5 0.5 0.5 0.5 0 0 1-0.5-0.5 0.5 0.5 0 0 1 0.5-0.5 0.5 0.5 0 0 1 0.5 0.5z" style="fill:#ffffff"/>
 <path d="m7.9999999 14a0.5 0.5 0 0 1-0.5 0.5 0.5 0.5 0 0 1-0.5-0.5 0.5 0.5 0 0 1 0.5-0.5 0.5 0.5 0 0 1 0.5 0.5z" style="opacity:.2"/>
 <path d="m7.9999999 13.5a0.5 0.5 0 0 1-0.5 0.5 0.5 0.5 0 0 1-0.5-0.5 0.5 0.5 0 0 1 0.5-0.5 0.5 0.5 0 0 1 0.5 0.5z" style="fill:#ffffff"/>
 <path d="m17 18a0.5 0.5 0 0 1-0.5 0.5 0.5 0.5 0 0 1-0.5-0.5 0.5 0.5 0 0 1 0.5-0.5 0.5 0.5 0 0 1 0.5 0.5z" style="opacity:.2"/>
 <path d="m17 17.5a0.5 0.5 0 0 1-0.5 0.5 0.5 0.5 0 0 1-0.5-0.5 0.5 0.5 0 0 1 0.5-0.5 0.5 0.5 0 0 1 0.5 0.5z" style="fill:#ffffff"/>
 <path d="m11 1c-0.360604 0.00534-0.617591 0.22914-0.738281 0.6015625l0.0039-0.015625-0.5664061 1.4648437h-1.4101565c-0.00415-6.92e-5 -0.00951-6.92e-5 -0.013672 0-0.228172 0.00766-0.43317 0.1179994-0.578125 0.3007813-0.2004799 0.238351-0.2285112 0.4981398-0.1308594 0.7304687 0.032696-0.078001 0.068046-0.1557896 0.1308594-0.2304687 0.144955-0.1827819 0.349953-0.2931213 0.578125-0.3007813 0.00417-6.92e-5 0.00952-6.92e-5 0.013672 0h1.4101565l0.5664061-1.4648437-0.0039 0.017578c0.12069-0.3724224 0.377677-0.5981755 0.738281-0.6035155 0.360604 0.00534 0.617479 0.2310929 0.738281 0.6035156l-0.0039-0.017578 0.566406 1.4648437h1.410157c0.0042-6.91e-5 0.0095-6.91e-5 0.01367 0 0.228172 0.00766 0.433171 0.1179993 0.578125 0.3007813 0.06281 0.074679 0.09816 0.1524673 0.13086 0.2304687 0.09765-0.232329 0.06962-0.4921178-0.13086-0.7304687-0.144954-0.182782-0.349953-0.2931212-0.578125-0.3007813-0.0042-6.91e-5 -0.0095-6.91e-5 -0.01367 0h-1.410157l-0.566406-1.4648437 0.0039 0.015625c-0.120802-0.3724228-0.377677-0.5962242-0.738281-0.6015626zm-2.2929689 4.9140625-0.4394531 1.0371094c-6.5e-4 0.00205-0.00135 0.00376-0.00195 0.00586-0.04839 0.1646441-0.040593 0.3296524 0.00781 0.4824219l0.5781244-1.3632819zm4.5859379 0-0.144531 0.1621094 0.578124 1.3632812c0.04841-0.1527695 0.0562-0.3177778 0.0078-0.4824219l-2e-3 -0.00586-0.439453-1.0371094z" style="fill:#ffffff;opacity:.2"/>
</svg>
