<svg xmlns="http://www.w3.org/2000/svg" width="22" height="22" version="1.1">
 <rect style="opacity:0.2" width="20" height="20" x="0" y="1.5" rx="1" ry="1"/>
 <path style="fill:#eb643d" d="m 1,1 h 18 c 0.554,0 1,0.446 1,1 v 12.197183 l -2.665996,4.847083 c -0.266991,0.485419 -0.999366,1.208375 -1.55332,1.201207 L 4.1187123,20.094567 C 3.5647586,20.087399 2.7070525,19.211832 2.5150905,18.692153 L 0,11.8833 V 2 C 0,1.446 0.446,1 1,1 Z"/>
 <path style="fill:#7cc42e" d="M 1,1 C 0.919355,1 0.8419162,1.010512 0.7675781,1.029297 c -0.00476,0.00113 -0.00893,0.00368 -0.013672,0.00488 -0.07175,0.019264 -0.1409952,0.04499 -0.2060547,0.078125 L 13.264649,17.834961 16.971679,16.057617 5.0527345,1 Z M 9.780274,1 20,14.510742 V 7.4501955 L 14.339844,1 Z"/>
 <path style="fill:#2be0de" d="M 3.859375,9.230469 0,11.671875 V 20 c 0,0.554 0.446,1 1,1 h 18 c 0.554,0 1,-0.446 1,-1 v -6.779 z"/>
 <path style="opacity:0.2" d="m 5.8583985,8.495647 a 1.9095477,2.3115578 23.444494 0 0 -1.9746095,1.492188 1.9095477,2.3115578 23.444494 0 0 0.833008,2.880859 1.9095477,2.3115578 23.444494 0 0 2.461914,-0.969727 2.472751,2.8762293 56.175374 0 0 1.323242,2.949219 2.472751,2.8762293 56.175374 0 0 3.326172,-0.99414 2.472751,2.8762293 22.173135 0 0 0.01367,0.460937 2.472751,2.8762293 22.173135 0 0 2.823242,2.112305 2.472751,2.8762293 22.173135 0 0 2.041015,-1.976562 1.9095477,2.3115578 23.444494 0 0 1.027344,1.417968 1.9095477,2.3115578 23.444494 0 0 2.671875,-1.361328 1.9095477,2.3115578 23.444494 0 0 -0.832031,-2.879883 1.9095477,2.3115578 23.444494 0 0 -2.671875,1.360352 1.9095477,2.3115578 23.444494 0 0 -0.02832,0.07031 2.472751,2.8762293 22.173135 0 0 -0.001,-0.01758 2.472751,2.8762293 22.173135 0 0 -2.824219,-2.111328 2.472751,2.8762293 22.173135 0 0 -1.511719,1.012695 A 2.472751,2.8762293 56.175374 0 0 11.065404,9.943887 2.472751,2.8762293 56.175374 0 0 7.462865,11.311075 1.9095477,2.3115578 23.444494 0 0 6.5556385,8.627481 1.9095477,2.3115578 23.444494 0 0 5.858373,8.495645 Z"/>
 <ellipse style="fill:#ffffff" cx="9.248" cy="7.159" rx="1.91" ry="2.312" transform="rotate(23.444493)"/>
 <ellipse style="fill:#ffffff" cx="14.314" cy="7.955" rx="2.595" ry="2.767" transform="matrix(0.94096018,0.33851726,-0.4632675,0.8862185,0,0)"/>
 <ellipse style="fill:#ffffff" cx="12.917" cy="16.452" rx="2.595" ry="2.767" transform="matrix(0.9693782,-0.24557262,0.11153978,0.99375997,0,0)"/>
 <ellipse style="fill:#ffffff" cx="22.384" cy="4.732" rx="1.91" ry="2.312" transform="rotate(23.444493)"/>
 <path style="fill:#ffd520" d="M 13.049805,4.0542892 C 8.4101625,5.3361391 8.7332285,7.0737455 4.6589945,7.020508 3.7631395,7.020607 2.9646455,7.4174625 2.4446175,8.0371415 1.8451899,8.6983295 2.036314,9.600956 2.1080056,10.239612 2.3294962,10.330482 3.079174,9.582767 3.3043395,9.668388 6.9143405,11.041118 12.424448,12.488047 16.682,12.9355 c 1.880173,0.1976 3.318,-0.12886 4.537726,-0.413039 0.46446,-0.483183 0.750082,-1.12612 0.75,-1.833984 C 21.969899,9.189821 20.698898,7.974783 19.130859,7.9746095 16.914134,7.577144 16.459014,4.2001058 13.049805,4.0542892 Z"/>
 <path style="fill:#5e5e5e" d="m 10.489453,6.7500165 c -0.1285,0.0015 -0.231308,0.107459 -0.229304,0.2363165 0.07796,1.090035 -0.474253,1.019794 -1.016007,1.019794 -0.0078,-4e-4 -0.01572,-4e-4 -0.02356,0 -0.3093643,0.015755 -0.2857993,0.4811155 0.02356,0.4653615 0.537923,0 1.016007,0.01099 1.016007,1.0425175 -0.0045,0.314659 0.468484,0.314659 0.464046,0 -0.08,-1.1153105 0.491792,-1.0425175 1.040479,-1.0425175 0.313769,0.00445 0.313769,-0.4698115 0,-0.4653615 -0.786637,0 -1.040479,0.01831 -1.040479,-1.019794 0.0021,-0.130994 -0.104112,-0.2378545 -0.234742,-0.2363165 z"/>
 <path style="opacity:0.2;fill:#ffffff" d="M 1,1 C 0.446,1 0,1.446 0,2 v 0.5 c 0,-0.554 0.446,-1 1,-1 h 18 c 0.554,0 1,0.446 1,1 V 2 C 20,1.446 19.554,1 19,1 Z"/>
 <path style="fill:#5e5e5e" d="m 14.489449,6.7500165 c -0.1285,0.0015 -0.231308,0.107459 -0.229304,0.2363165 0.07796,1.090035 -0.474254,1.019794 -1.016007,1.019794 -0.0078,-4e-4 -0.01572,-4e-4 -0.02356,0 -0.309364,0.015755 -0.2858,0.4811155 0.02356,0.4653615 0.537923,0 1.016007,0.01099 1.016007,1.0425175 -0.0045,0.314659 0.468484,0.314659 0.464046,0 -0.08,-1.1153105 0.491792,-1.0425175 1.040478,-1.0425175 0.31377,0.00445 0.31377,-0.4698115 0,-0.4653615 -0.786637,0 -1.040478,0.01831 -1.040478,-1.019794 0.0021,-0.130994 -0.104112,-0.2378545 -0.234742,-0.2363165 z"/>
 <path style="opacity:0.1" d="M 4.760742,13.237305 A 1.0001,1.0001 0 0 0 4.0009765,14.883789 L 9.03418,21 h 2.589844 L 5.544922,13.612305 a 1.0001,1.0001 0 0 0 -0.78418,-0.375 z m 12.329102,2.739257 a 1.0001,1.0001 0 0 0 -0.759766,1.646485 l 2.770508,3.367187 C 19.606324,20.939451 20,20.519557 20,20 V 18.936523 L 17.874023,16.352539 A 1.0001,1.0001 0 0 0 17.089844,15.976562 Z M 2.1728515,16.357422 A 1.0001,1.0001 0 0 0 1.413086,18.003906 L 3.8779295,21 H 6.46875 L 2.9580078,16.733398 A 1.0001,1.0001 0 0 0 2.1728515,16.357422 Z m 10.1982425,0 a 1.0001,1.0001 0 0 0 -0.759766,1.646484 L 14.076172,21 h 2.589843 l -3.510741,-4.266602 a 1.0001,1.0001 0 0 0 -0.78418,-0.375976 z"/>
 <path style="opacity:0.2;fill:#ffffff" d="M 13.049805,4.054 C 8.4101625,5.3358501 8.7334135,7.0737455 4.6591795,7.020508 3.7633245,7.020607 2.964364,7.4174305 2.444336,8.0371095 2.0474479,8.4748895 2.0059671,9.01481 2.038086,9.517578 2.0720675,9.172697 2.1779177,8.8309775 2.444336,8.5371095 2.964364,7.9174305 3.7633245,7.520607 4.6591795,7.520508 c 4.074234,0.053237 3.750983,-1.6846579 8.3906255,-2.9665079 3.409209,0.145817 3.864329,3.5231439 6.081054,3.9206094 1.483493,1.64e-4 2.699328,1.0882535 2.826172,2.4746095 0.0086,-0.08565 0.01271,-0.172916 0.0127,-0.260742 C 21.969899,9.189821 20.698897,7.974783 19.130859,7.9746095 16.914134,7.577144 16.459013,4.1998166 13.049805,4.054 Z"/>
</svg>
