<svg xmlns="http://www.w3.org/2000/svg" width="22" height="22" version="1">
 <path style="opacity:0.05" d="m 2,1.5 c -0.554,0 -1,0.446 -1,1 V 11 H 21 V 2.5 c 0,-0.554 -0.446,-1 -1,-1 z"/>
 <rect style="fill:#687df9" width="20" height="20" x="1" y="1" rx="1" ry="1"/>
 <path style="opacity:0.2" d="M 9.8571,18.5 C 9.5406,18.5 8.9899,18.2597 9,17.9615 V 9.5 H 7 l 4,-5 4,5 h -2 v 8.4615 C 13,18.2598 12.459,18.5 12.143,18.5 Z"/>
 <path style="fill:#ffffff" d="M 9.8571,18 C 9.5406,18 8.9899,17.7597 9,17.4615 V 9 H 7 l 4,-5 4,5 h -2 v 8.4615 C 13,17.7598 12.459,18 12.143,18 Z"/>
 <path style="opacity:0.2;fill:#ffffff" d="M 1,2.5 V 2 C 1,1.446 1.446,1 2,1 h 18 c 0.554,0 1,0.446 1,1 v 0.5 c 0,-0.554 -0.446,-1 -1,-1 H 2 c -0.554,0 -1,0.446 -1,1 z"/>
 <path style="opacity:0.2" d="m 1,20 v 0.5 c 0,0.554 0.446,1 1,1 h 18 c 0.554,0 1,-0.446 1,-1 V 20 c 0,0.554 -0.446,1 -1,1 H 2 C 1.446,21 1,20.554 1,20 Z"/>
</svg>
