<svg width="22" height="22" version="1" xmlns="http://www.w3.org/2000/svg">
 <path d="m8 6.5v13.5c0 0.831 0.669 1.5 1.5 1.5h3c0.831 0 1.5-0.669 1.5-1.5v-13.5z" style="opacity:.2"/>
 <path d="m8 6v13.5c0 0.831 0.669 1.5 1.5 1.5h3c0.831 0 1.5-0.669 1.5-1.5v-13.5z" style="fill:#ffbc2c"/>
 <path d="m9.199219 4-1.199219 2h6l-1.199219-2z" style="fill:#b7785d"/>
 <path d="m8 6v0.5h6v-0.5z" style="fill:#ffffff;opacity:.2"/>
 <path d="m2 6.5v13.5c0 0.831 0.669 1.5 1.5 1.5h3c0.831 0 1.5-0.669 1.5-1.5v-13.5z" style="opacity:.2"/>
 <path d="m2 6v13.5c0 0.831 0.669 1.5 1.5 1.5h3c0.831 0 1.5-0.669 1.5-1.5v-13.5z" style="fill:#eb4646"/>
 <path d="M 3.1992188,4 2,6 H 5 8 L 6.8007812,4 Z" style="fill:#b7785d"/>
 <path d="m2 6v0.5h6v-0.5z" style="fill:#ffffff;opacity:.2"/>
 <path d="m14 6.5v13.5c0 0.831 0.669 1.5 1.5 1.5h3c0.831 0 1.5-0.669 1.5-1.5v-13.5z" style="opacity:.2"/>
 <path d="m14 6v13.5c0 0.831 0.669 1.5 1.5 1.5h3c0.831 0 1.5-0.669 1.5-1.5v-13.5z" style="fill:#4f82ea"/>
 <path d="m15.199219 4-1.199219 2h6l-1.199219-2z" style="fill:#b7785d"/>
 <path d="m14 6v0.5h6v-0.5z" style="fill:#ffffff;opacity:.2"/>
 <rect x="10" y="6" width="2" height="15" style="opacity:.1"/>
 <rect x="4" y="6" width="2" height="15" style="opacity:.1"/>
 <rect x="15.999994" y="6" width="2" height="15" style="opacity:.1"/>
 <path d="M 11,1.5 9.5,4 9.199219,4.5 h 3.601562 L 12.5,4 Z" style="opacity:.2"/>
 <path d="M 11,1 9.5,3.5 9.199219,4 h 3.601562 L 12.5,3.5 Z" style="fill:#ffbc2c"/>
 <path d="M 5,1.5 3.5,4 3.1992188,4.5 H 6.8007812 L 6.5,4 Z" style="opacity:.2"/>
 <path d="M 5,1 3.5,3.5 3.1992188,4 H 6.8007812 L 6.5,3.5 Z" style="fill:#eb4646"/>
 <path d="M 17,1.5 15.5,4 15.199219,4.5 h 3.601562 L 18.5,4 Z" style="opacity:.2"/>
 <path d="m17 1-1.5 2.5-0.300781 0.5h3.601562l-0.300781-0.5z" style="fill:#4f82ea"/>
 <path d="M 11,1 9.5,3.5 9.199219,4 H 9.5 L 11,1.5 12.5,4 h 0.300781 L 12.5,3.5 Z" style="fill:#ffffff;opacity:.2"/>
 <path d="M 5,1 3.5,3.5 3.1992188,4 H 3.5 L 5,1.5 6.5,4 H 6.8007812 L 6.5,3.5 Z" style="fill:#ffffff;opacity:.2"/>
 <path d="M 17,1 15.5,3.5 15.199219,4 H 15.5 L 17,1.5 18.5,4 h 0.300781 L 18.5,3.5 Z" style="fill:#ffffff;opacity:.2"/>
</svg>
