<svg xmlns="http://www.w3.org/2000/svg" width="22" height="22" version="1">
 <path style="opacity:0.2" d="m 2,1.5 c -0.554,0 -1,0.446 -1,1 v 18 c 0,0.554 0.446,1 1,1 h 11 l 8,-8 v -11 c 0,-0.554 -0.446,-1 -1,-1 z"/>
 <path style="fill:#e4e4e4" d="M 2,1 C 1.446,1 1,1.446 1,2 v 18 c 0,0.554 0.446,1 1,1 h 11 l 8,-8 V 2 C 21,1.446 20.554,1 20,1 Z"/>
 <path style="opacity:0.1" d="m 3.5,3.5 v 3 h 3 v -3 z m 4,0 v 3 h 3 v -3 z m 4,0 v 3 h 3 v -3 z m 4,0 v 3 h 3 v -3 z m -12,4 v 3 h 3 v -3 z m 4,0 v 3 h 3 v -3 z m 4,0 v 3 h 3 v -3 z m 0,4 v 3 h 3 v -3 z m 4,0 v 3 h 3 v -3 z m -12,4 v 3 h 3 v -3 z m 4,0 v 3 h 3 v -3 z m 4,0 v 3 h 3 v -3 z"/>
 <path style="fill:#b7b2b2" d="m 21,13 h -7 c -0.552,0 -1,0.448 -1,1 v 7 z"/>
 <path style="opacity:0.2;fill:#ffffff" d="M 2,1 C 1.446,1 1,1.446 1,2 v 0.5 c 0,-0.554 0.446,-1 1,-1 h 18 c 0.554,0 1,0.446 1,1 V 2 C 21,1.446 20.554,1 20,1 Z"/>
 <path style="opacity:0.2" d="m 15.5,7.5 v 3 h 3 v -3 z m -12,4 v 3 h 3 v -3 z m 4,0 v 3 h 3 v -3 z"/>
 <path style="opacity:0.2;fill:#ffffff" d="m 14,13 c -0.552,0 -1,0.448 -1,1 v 0.5 c 0,-0.552 0.448,-1 1,-1 h 6.5 L 21,13 Z"/>
 <path style="opacity:0.2" d="M 2.3007812,4.5 C 1.0265813,4.5 0,5.5265813 0,6.8007812 V 10.199219 C 0,11.473419 1.0265813,12.5 2.3007812,12.5 H 6.5996094 L 9,15.5 v -3.021484 c 1.130902,-0.146618 2,-1.107189 2,-2.279297 V 6.8007812 C 11,5.5265813 9.973419,4.5 8.6992188,4.5 Z"/>
 <path style="fill:#50beee" d="M 2.3007812,4 C 1.0265813,4 0,5.0265813 0,6.3007812 V 9.699219 C 0,10.973419 1.0265813,12 2.3007812,12 H 6.5996094 L 9,15 v -3.021484 c 1.130902,-0.146618 2,-1.107189 2,-2.279297 V 6.3007812 C 11,5.0265813 9.973419,4 8.6992188,4 Z"/>
 <path style="opacity:0.2;fill:#ffffff" d="M 2.3007812,4 C 1.0265814,4 0,5.0265814 0,6.3007812 v 0.5 C 0,5.5265814 1.0265814,4.5 2.3007812,4.5 H 8.6992188 C 9.973419,4.5 11,5.5265813 11,6.8007812 v -0.5 C 11,5.0265813 9.973419,4 8.6992188,4 Z"/>
</svg>
