<svg xmlns="http://www.w3.org/2000/svg" width="22" height="22" version="1">
 <rect style="opacity:0.2" width="12" height="20" x="-16.5" y="-21" rx="1" ry="1" transform="matrix(0,-1,-1,0,0,0)"/>
 <rect style="fill:#e4e4e4" width="12" height="20" x="-16" y="-21" rx="1" ry="1" transform="matrix(0,-1,-1,0,0,0)"/>
 <path style="opacity:0.2;fill:#ffffff" d="M 2,4 C 1.4460006,4 1,4.4460006 1,5 v 0.5 c 0,-0.5539994 0.4460006,-1 1,-1 h 18 c 0.553999,0 1,0.4460006 1,1 V 5 C 21,4.4460006 20.553999,4 20,4 Z"/>
 <rect style="opacity:0.2" width="9" height="17" x="-15" y="-19.5" rx=".75" ry=".75" transform="matrix(0,-1,-1,0,0,0)"/>
 <rect style="fill:#263238" width="9" height="17" x="-14.5" y="-19.5" rx=".75" ry=".75" transform="matrix(0,-1,-1,0,0,0)"/>
 <path style="opacity:0.2" d="M 4,9.5 C 3.7230003,9.5 3.5,9.723 3.5,10 v 0.5 C 3.5,10.777 3.7230003,11 4,11 H 9.5 C 9.7769997,11 10,10.777 10,10.5 V 10 C 10,9.723 9.7769997,9.5 9.5,9.5 Z m 7.474609,0 C 11.209695,9.513342 11,9.731657 11,10 v 0.5 c 0,0.277 0.223,0.5 0.5,0.5 h 1 C 12.777,11 13,10.777 13,10.5 V 10 C 13,9.723 12.777,9.5 12.5,9.5 h -1 c -0.0087,0 -0.01685,-4.3e-4 -0.02539,0 z M 14.5,9.5 C 14.223,9.5 14,9.723 14,10 v 0.5 c 0,0.277 0.223,0.5 0.5,0.5 h 3 C 17.777,11 18,10.777 18,10.5 V 10 C 18,9.723 17.777,9.5 17.5,9.5 Z M 4,12 C 3.7230003,12 3.5,12.223 3.5,12.5 V 13 c 0,0.277 0.2230003,0.5 0.5,0.5 h 3 c 0.2769997,0 0.5,-0.223 0.5,-0.5 V 12.5 C 7.5,12.223 7.2769997,12 7,12 Z m 5,0 C 8.7230003,12 8.5,12.223 8.5,12.5 V 13 c 0,0.277 0.2230003,0.5 0.5,0.5 h 7 c 0.277,0 0.5,-0.223 0.5,-0.5 V 12.5 C 16.5,12.223 16.277,12 16,12 Z"/>
 <rect style="fill:#fafafa" width="6.5" height="1.5" x="3.5" y="9" rx=".5" ry=".5"/>
 <rect style="fill:#e0e0e0" width="2" height="1.5" x="11" y="9" rx=".5" ry=".5"/>
 <rect style="fill:#f5f5f5" width="4" height="1.5" x="14" y="9" rx=".5" ry=".5"/>
 <rect style="fill:#f5f5f5" width="4" height="1.5" x="3.5" y="11.5" rx=".5" ry=".5"/>
 <rect style="fill:#bdbdbd" width="8" height="1.5" x="8.5" y="11.5" rx=".5" ry=".5"/>
</svg>
