<?xml version="1.0" encoding="UTF-8" standalone="no"?>
<svg id="svg2817" xmlns:rdf="http://www.w3.org/1999/02/22-rdf-syntax-ns#" xmlns="http://www.w3.org/2000/svg" height="22" width="22" version="1.0" xmlns:cc="http://creativecommons.org/ns#" xmlns:dc="http://purl.org/dc/elements/1.1/">
 <metadata id="metadata57">
  <rdf:RDF>
   <cc:Work rdf:about="">
    <dc:format>image/svg+xml</dc:format>
    <dc:type rdf:resource="http://purl.org/dc/dcmitype/StillImage"/>
    <dc:title/>
   </cc:Work>
  </rdf:RDF>
 </metadata>
 <g id="layer4-0" transform="matrix(.90475 0 0 .90475 -716.75 -678.29)">
 </g>
 <g id="layer4-0-7" transform="matrix(.90475 0 0 .90475 -716.75 -671.05)">
 </g>
 <text id="text7276" font-size="12.666px" xml:space="preserve" y="-363.22546" x="435.90427" font-family="&apos;Droid Sans&apos;" fill="#000000"><tspan id="tspan7278" y="-363.22546" x="435.90427"/><tspan id="tspan7280" y="-347.3924" x="435.90427"/></text>
 <path id="rect4203" fill="#5d5d5d" d="m19 20v-18c0-0.554-0.446-1-1-1h-14c-0.554 0-1 0.446-1 1v18c0 0.554 0.446 1 1 1h14c0.554 0 1-0.446 1-1z"/>
 <path id="rect4199" opacity=".1" fill="#fff" d="m4 1c-0.554 0-1 0.446-1 1v0.5c0-0.554 0.446-1 1-1h14c0.554 0 1 0.446 1 1v-0.5c0-0.554-0.446-1-1-1z"/>
 <path id="path4447" opacity=".2" d="m3 20v0.5c0 0.554 0.446 1 1 1h14c0.554 0 1-0.446 1-1v-0.5c0 0.554-0.446 1-1 1h-14c-0.554 0-1-0.446-1-1z"/>
 <g id="g5119" opacity=".5" fill="#fff" transform="matrix(.5 0 0 .5 0 -.5)">
  <g id="g5075" style="">
   <g id="g5035" style="">
    <path id="rect5007" opacity="1" style="color-rendering:auto;text-decoration-color:#000000;color:#000000;isolation:auto;mix-blend-mode:normal;shape-rendering:auto;solid-color:#000000;block-progression:tb;text-decoration-line:none;image-rendering:auto;white-space:normal;text-indent:0;text-transform:none;text-decoration-style:solid" d="m9.5 8a0.50005 0.50005 0 0 0 -0.5 0.5v5a0.50005 0.50005 0 0 0 0.5 0.5h3a0.50005 0.50005 0 0 0 0.5 -0.5v-5a0.50005 0.50005 0 0 0 -0.5 -0.5h-3zm0.5 1h2v4h-2v-4z"/>
    <path id="path5011" opacity="1" style="color-rendering:auto;text-decoration-color:#000000;color:#000000;isolation:auto;mix-blend-mode:normal;shape-rendering:auto;solid-color:#000000;block-progression:tb;text-decoration-line:none;image-rendering:auto;white-space:normal;text-indent:0;text-transform:none;text-decoration-style:solid" fill-rule="evenodd" d="m16.492 8.0001a0.50005 0.4988 0 0 0 -0.49219 0.50655v4.9875a0.50005 0.4988 0 1 0 1 0v-4.9875a0.50005 0.4988 0 0 0 -0.508 -0.5064z"/>
    <path id="path5015" opacity="1" style="color-rendering:auto;text-decoration-color:#000000;color:#000000;isolation:auto;mix-blend-mode:normal;shape-rendering:auto;solid-color:#000000;block-progression:tb;text-decoration-line:none;image-rendering:auto;white-space:normal;text-indent:0;text-transform:none;text-decoration-style:solid" fill-rule="evenodd" d="m20.492 8.0001a0.50005 0.4988 0 0 0 -0.49219 0.50655v4.9875a0.50005 0.4988 0 1 0 1 0v-4.9875a0.50005 0.4988 0 0 0 -0.508 -0.5064z"/>
    <path id="path5017" opacity="1" style="color-rendering:auto;text-decoration-color:#000000;color:#000000;isolation:auto;mix-blend-mode:normal;shape-rendering:auto;solid-color:#000000;block-progression:tb;text-decoration-line:none;image-rendering:auto;white-space:normal;text-indent:0;text-transform:none;text-decoration-style:solid" d="m24.5 8a0.50005 0.50005 0 0 0 -0.5 0.5v5a0.50005 0.50005 0 0 0 0.5 0.5h3a0.50005 0.50005 0 0 0 0.5 -0.5v-5a0.50005 0.50005 0 0 0 -0.5 -0.5h-3zm0.5 1h2v4h-2v-4z"/>
    <path id="path5019" opacity="1" style="color-rendering:auto;text-decoration-color:#000000;color:#000000;isolation:auto;mix-blend-mode:normal;shape-rendering:auto;solid-color:#000000;block-progression:tb;text-decoration-line:none;image-rendering:auto;white-space:normal;text-indent:0;text-transform:none;text-decoration-style:solid" d="m31.5 8a0.50005 0.50005 0 0 0 -0.5 0.5v5a0.50005 0.50005 0 0 0 0.5 0.5h3a0.50005 0.50005 0 0 0 0.5 -0.5v-5a0.50005 0.50005 0 0 0 -0.5 -0.5h-3zm0.5 1h2v4h-2v-4z"/>
   </g>
   <path id="path5058" opacity="1" style="color-rendering:auto;text-decoration-color:#000000;color:#000000;isolation:auto;mix-blend-mode:normal;shape-rendering:auto;solid-color:#000000;block-progression:tb;text-decoration-line:none;image-rendering:auto;white-space:normal;text-indent:0;text-transform:none;text-decoration-style:solid" d="m34.5 17a0.50005 0.50005 0 0 1 0.5 0.5v5a0.50005 0.50005 0 0 1 -0.5 0.5h-3a0.50005 0.50005 0 0 1 -0.5 -0.5v-5a0.50005 0.50005 0 0 1 0.5 -0.5h3zm-0.5 1h-2v4h2v-4z"/>
   <path id="path5060" opacity="1" style="color-rendering:auto;text-decoration-color:#000000;color:#000000;isolation:auto;mix-blend-mode:normal;shape-rendering:auto;solid-color:#000000;block-progression:tb;text-decoration-line:none;image-rendering:auto;white-space:normal;text-indent:0;text-transform:none;text-decoration-style:solid" fill-rule="evenodd" d="m27.508 17a0.50005 0.4988 0 0 1 0.49219 0.50655v4.9875a0.50005 0.4988 0 1 1 -1 0v-4.9875a0.50005 0.4988 0 0 1 0.508 -0.506z"/>
   <path id="path5062" opacity="1" style="color-rendering:auto;text-decoration-color:#000000;color:#000000;isolation:auto;mix-blend-mode:normal;shape-rendering:auto;solid-color:#000000;block-progression:tb;text-decoration-line:none;image-rendering:auto;white-space:normal;text-indent:0;text-transform:none;text-decoration-style:solid" fill-rule="evenodd" d="m23.508 17a0.50005 0.4988 0 0 1 0.49219 0.50655v4.9875a0.50005 0.4988 0 1 1 -1 0v-4.9875a0.50005 0.4988 0 0 1 0.508 -0.506z"/>
   <path id="path5064" opacity="1" style="color-rendering:auto;text-decoration-color:#000000;color:#000000;isolation:auto;mix-blend-mode:normal;shape-rendering:auto;solid-color:#000000;block-progression:tb;text-decoration-line:none;image-rendering:auto;white-space:normal;text-indent:0;text-transform:none;text-decoration-style:solid" d="m19.5 17a0.50005 0.50005 0 0 1 0.5 0.5v5a0.50005 0.50005 0 0 1 -0.5 0.5h-3a0.50005 0.50005 0 0 1 -0.5 -0.5v-5a0.50005 0.50005 0 0 1 0.5 -0.5h3zm-0.5 1h-2v4h2v-4z"/>
   <path id="path5073" opacity="1" style="color-rendering:auto;text-decoration-color:#000000;color:#000000;isolation:auto;mix-blend-mode:normal;shape-rendering:auto;solid-color:#000000;block-progression:tb;text-decoration-line:none;image-rendering:auto;white-space:normal;text-indent:0;text-transform:none;text-decoration-style:solid" fill-rule="evenodd" d="m11.508 17a0.50005 0.4988 0 0 1 0.49219 0.50655v4.9875a0.50005 0.4988 0 1 1 -1 0v-4.9875a0.50005 0.4988 0 0 1 0.508 -0.506z"/>
  </g>
  <g id="g5095" style="" transform="matrix(-1,0,0,1,44,17)">
   <g id="g5097" style="">
    <path id="path5099" opacity="1" style="color-rendering:auto;text-decoration-color:#000000;color:#000000;isolation:auto;mix-blend-mode:normal;shape-rendering:auto;solid-color:#000000;block-progression:tb;text-decoration-line:none;image-rendering:auto;white-space:normal;text-indent:0;text-transform:none;text-decoration-style:solid" d="m9.5 8a0.50005 0.50005 0 0 0 -0.5 0.5v5a0.50005 0.50005 0 0 0 0.5 0.5h3a0.50005 0.50005 0 0 0 0.5 -0.5v-5a0.50005 0.50005 0 0 0 -0.5 -0.5h-3zm0.5 1h2v4h-2v-4z"/>
    <path id="path5101" opacity="1" style="color-rendering:auto;text-decoration-color:#000000;color:#000000;isolation:auto;mix-blend-mode:normal;shape-rendering:auto;solid-color:#000000;block-progression:tb;text-decoration-line:none;image-rendering:auto;white-space:normal;text-indent:0;text-transform:none;text-decoration-style:solid" fill-rule="evenodd" d="m16.492 8.0001a0.50005 0.4988 0 0 0 -0.49219 0.50655v4.9875a0.50005 0.4988 0 1 0 1 0v-4.9875a0.50005 0.4988 0 0 0 -0.508 -0.5064z"/>
    <path id="path5103" opacity="1" style="color-rendering:auto;text-decoration-color:#000000;color:#000000;isolation:auto;mix-blend-mode:normal;shape-rendering:auto;solid-color:#000000;block-progression:tb;text-decoration-line:none;image-rendering:auto;white-space:normal;text-indent:0;text-transform:none;text-decoration-style:solid" fill-rule="evenodd" d="m20.492 8.0001a0.50005 0.4988 0 0 0 -0.49219 0.50655v4.9875a0.50005 0.4988 0 1 0 1 0v-4.9875a0.50005 0.4988 0 0 0 -0.508 -0.5064z"/>
    <path id="path5105" opacity="1" style="color-rendering:auto;text-decoration-color:#000000;color:#000000;isolation:auto;mix-blend-mode:normal;shape-rendering:auto;solid-color:#000000;block-progression:tb;text-decoration-line:none;image-rendering:auto;white-space:normal;text-indent:0;text-transform:none;text-decoration-style:solid" d="m24.5 8a0.50005 0.50005 0 0 0 -0.5 0.5v5a0.50005 0.50005 0 0 0 0.5 0.5h3a0.50005 0.50005 0 0 0 0.5 -0.5v-5a0.50005 0.50005 0 0 0 -0.5 -0.5h-3zm0.5 1h2v4h-2v-4z"/>
    <path id="path5107" opacity="1" style="color-rendering:auto;text-decoration-color:#000000;color:#000000;isolation:auto;mix-blend-mode:normal;shape-rendering:auto;solid-color:#000000;block-progression:tb;text-decoration-line:none;image-rendering:auto;white-space:normal;text-indent:0;text-transform:none;text-decoration-style:solid" d="m31.5 8a0.50005 0.50005 0 0 0 -0.5 0.5v5a0.50005 0.50005 0 0 0 0.5 0.5h3a0.50005 0.50005 0 0 0 0.5 -0.5v-5a0.50005 0.50005 0 0 0 -0.5 -0.5h-3zm0.5 1h2v4h-2v-4z"/>
   </g>
   <path id="path5109" opacity="1" style="color-rendering:auto;text-decoration-color:#000000;color:#000000;isolation:auto;mix-blend-mode:normal;shape-rendering:auto;solid-color:#000000;block-progression:tb;text-decoration-line:none;image-rendering:auto;white-space:normal;text-indent:0;text-transform:none;text-decoration-style:solid" d="m34.5 17a0.50005 0.50005 0 0 1 0.5 0.5v5a0.50005 0.50005 0 0 1 -0.5 0.5h-3a0.50005 0.50005 0 0 1 -0.5 -0.5v-5a0.50005 0.50005 0 0 1 0.5 -0.5h3zm-0.5 1h-2v4h2v-4z"/>
   <path id="path5111" opacity="1" style="color-rendering:auto;text-decoration-color:#000000;color:#000000;isolation:auto;mix-blend-mode:normal;shape-rendering:auto;solid-color:#000000;block-progression:tb;text-decoration-line:none;image-rendering:auto;white-space:normal;text-indent:0;text-transform:none;text-decoration-style:solid" fill-rule="evenodd" d="m27.508 17a0.50005 0.4988 0 0 1 0.49219 0.50655v4.9875a0.50005 0.4988 0 1 1 -1 0v-4.9875a0.50005 0.4988 0 0 1 0.508 -0.506z"/>
   <path id="path5113" opacity="1" style="color-rendering:auto;text-decoration-color:#000000;color:#000000;isolation:auto;mix-blend-mode:normal;shape-rendering:auto;solid-color:#000000;block-progression:tb;text-decoration-line:none;image-rendering:auto;white-space:normal;text-indent:0;text-transform:none;text-decoration-style:solid" fill-rule="evenodd" d="m23.508 17a0.50005 0.4988 0 0 1 0.49219 0.50655v4.9875a0.50005 0.4988 0 1 1 -1 0v-4.9875a0.50005 0.4988 0 0 1 0.508 -0.506z"/>
   <path id="path5115" opacity="1" style="color-rendering:auto;text-decoration-color:#000000;color:#000000;isolation:auto;mix-blend-mode:normal;shape-rendering:auto;solid-color:#000000;block-progression:tb;text-decoration-line:none;image-rendering:auto;white-space:normal;text-indent:0;text-transform:none;text-decoration-style:solid" d="m19.5 17a0.50005 0.50005 0 0 1 0.5 0.5v5a0.50005 0.50005 0 0 1 -0.5 0.5h-3a0.50005 0.50005 0 0 1 -0.5 -0.5v-5a0.50005 0.50005 0 0 1 0.5 -0.5h3zm-0.5 1h-2v4h2v-4z"/>
   <path id="path5117" opacity="1" style="color-rendering:auto;text-decoration-color:#000000;color:#000000;isolation:auto;mix-blend-mode:normal;shape-rendering:auto;solid-color:#000000;block-progression:tb;text-decoration-line:none;image-rendering:auto;white-space:normal;text-indent:0;text-transform:none;text-decoration-style:solid" fill-rule="evenodd" d="m11.508 17a0.50005 0.4988 0 0 1 0.49219 0.50655v4.9875a0.50005 0.4988 0 1 1 -1 0v-4.9875a0.50005 0.4988 0 0 1 0.508 -0.506z"/>
  </g>
 </g>
 <circle id="path4058-7" style="enable-background:new" cx="16" cy="16" r="6" fill="#f34235"/>
 <path id="path4-0" style="enable-background:new" fill="#fff" d="m13 17.664v1.3364h1.3364l3.3754-3.3754-1.3364-1.3364zm5.894-3.2168c0.14136-0.14136 0.14136-0.36409 0-0.50545l-0.83525-0.83525c-0.14136-0.14136-0.36409-0.14136-0.50545 0l-0.6982 0.7025 1.3364 1.3364z"/>
</svg>
