<svg width="22" height="22" version="1.1" xmlns="http://www.w3.org/2000/svg">
 <rect x="3" y="1.5" width="15" height="20" rx="1.5" ry="1.626" style="opacity:.2"/>
 <rect x="3" y="1" width="15" height="20" rx="1.5" ry="1.626" style="fill:#e4e4e4"/>
 <path d="m4.5 2c-0.2761424 0-0.5 0.2238576-0.5 0.5s0.2238576 0.5 0.5 0.5 0.5-0.2238576 0.5-0.5-0.2238576-0.5-0.5-0.5zm2.027344 0c-0.400111 0-0.72168 0.3345-0.72168 0.75 0 0.6213207-0.484697 1.125-1.083008 1.125-0.4001095 0-0.722656 0.3345-0.722656 0.75v2.0005c0 0.4155005 0.3225455 0.75 0.722656 0.75 0.598311 0 1.083008 0.503679 1.083008 1.125-6e-4 0.276966-0.099054 0.54401-0.2773435 0.75-1.0692805 1.236118-1.52576 2.337878-1.5283205 3.9995 0 0.0223 0.0027 0.03774 0.00295 0.05957-0.0019133 0.063459-0.0028967 0.126942-0.00295 0.19043 0 3.589851 2.9101491 6.5 6.5 6.5 3.589851 0 6.5-2.910149 6.5-6.5 3.1e-5 -0.06609-9.46e-4 -0.13218-0.0029-0.198242 1.27e-4 -0.019026 0.0029-0.032369 0.0029-0.051758-0.0028-1.661779-0.458623-2.763559-1.528321-3.9995-0.178224-0.206016-0.276907-0.4730585-0.277343-0.75 0-0.621321 0.484698-1.125 1.083008-1.125 0.40011 0 0.722656-0.3344995 0.722656-0.75v-2.0005c0-0.4155-0.322546-0.75-0.722656-0.75-0.59831 0-1.083008-0.5036793-1.083008-1.125 0-0.4155-0.321569-0.75-0.72168-0.75zm9.972656 0c-0.276142 0-0.5 0.2238576-0.5 0.5s0.223858 0.5 0.5 0.5 0.5-0.2238576 0.5-0.5-0.223858-0.5-0.5-0.5zm-12 6.0005c-0.2761424 0-0.5 0.2238576-0.5 0.5s0.2238576 0.5 0.5 0.5 0.5-0.2238576 0.5-0.5-0.2238576-0.5-0.5-0.5zm12 0c-0.276142 0-0.5 0.2238576-0.5 0.5s0.223858 0.5 0.5 0.5 0.5-0.2238576 0.5-0.5-0.223858-0.5-0.5-0.5zm-12 10.9995c-0.2761424 0-0.5 0.223858-0.5 0.5s0.2238576 0.5 0.5 0.5 0.5-0.223858 0.5-0.5-0.2238576-0.5-0.5-0.5zm12 0c-0.276142 0-0.5 0.223858-0.5 0.5s0.223858 0.5 0.5 0.5 0.5-0.223858 0.5-0.5-0.223858-0.5-0.5-0.5z" style="fill:#ababab"/>
 <path d="m10.617037 8.4999998c-0.417361 0-0.821889 0.095954-1.194913 0.2258967l1.969995 1.9683655c0.404835 0.404492 0.404835 1.047555 0 1.452068l-0.742785 0.74217c-0.404836 0.404492-1.048438 0.404492-1.453275 0l-1.9699928-1.968363c-0.1300588 0.372698-0.2260662 0.776898-0.2260662 1.193919 0 1.995983 1.6194038 3.614034 3.617038 3.614034 0.417364 0 0.821892-0.09596 1.194917-0.225873l5.365722 5.372659c1.724719 1.728035 3.886566-0.50056 2.228347-2.161964l-5.398014-5.404934c0.130056-0.3727 0.226063-0.7769 0.226063-1.19392 0-1.995984-1.619403-3.6140582-3.617039-3.6140582z" style="opacity:.2"/>
 <path d="m4.5 2c-0.2761424 0-0.5 0.2238576-0.5 0.5 0 0.0928949 0.0320373 0.1754706 0.0761719 0.25 0.0870614-0.1470193 0.2405806-0.25 0.4238281-0.25s0.3367667 0.1029807 0.4238281 0.25c0.0441346-0.0745294 0.0761719-0.1571051 0.0761719-0.25 0-0.2761424-0.2238576-0.5-0.5-0.5zm2.0273438 0c-0.400111 0-0.7226563 0.3345-0.7226563 0.75 0 0.6213207-0.4837202 1.125-1.0820313 1.125-0.4001094 0-0.7226562 0.3345-0.7226562 0.75v0.5c0-0.4155 0.3225468-0.75 0.7226562-0.75 0.5983111 0 1.0820313-0.5036793 1.0820313-1.125 0-0.4155 0.3225453-0.75 0.7226563-0.75h7.9453122c0.400111 0 0.722656 0.3345 0.722656 0.75 0 0.6213207 0.483722 1.125 1.082032 1.125 0.40011 0 0.722656 0.3345 0.722656 0.75v-0.5c0-0.4155-0.322546-0.75-0.722656-0.75-0.59831 0-1.082032-0.5036793-1.082032-1.125 0-0.4155-0.322545-0.75-0.722656-0.75zm9.9726562 0c-0.276142 0-0.5 0.2238576-0.5 0.5 0 0.092895 0.03204 0.1754706 0.07617 0.25 0.087063-0.1470193 0.240583-0.25 0.42383-0.25s0.336767 0.1029807 0.423828 0.25c0.044135-0.0745294 0.076172-0.1571051 0.076172-0.25 0-0.2761424-0.223858-0.5-0.5-0.5zm-12 6c-0.2761424 0-0.5 0.2238576-0.5 0.5 0 0.0928949 0.0320373 0.1754706 0.0761719 0.25 0.0871835-0.1465137 0.2409606-0.25 0.4238281-0.25s0.3366446 0.1034863 0.4238281 0.25c0.0441346-0.0745294 0.0761719-0.1571051 0.0761719-0.25 0-0.2761424-0.2238576-0.5-0.5-0.5zm12 0c-0.276142 0-0.5 0.2238576-0.5 0.5 0 0.092895 0.03204 0.1754706 0.07617 0.25 0.087185-0.1465137 0.240963-0.25 0.42383-0.25s0.336645 0.1034863 0.423828 0.25c0.044135-0.0745294 0.076172-0.1571051 0.076172-0.25 0-0.2761424-0.223858-0.5-0.5-0.5zm-10.740234 0.7617188c-0.0420581 0.1789318-0.110136 0.3492522-0.2304687 0.4882812-1.0692805 1.236118-1.5267364 2.338378-1.5292969 4 0 0.0223 0.00366 0.03676 0.00391 0.05859-0.0019171 0.063463-0.0038567 0.127922-0.00391 0.19141 0 0.05147 0.00662 0.101154 0.00781 0.152344 0.0214078-1.603494 0.4748642-2.692419 1.5214869-3.902344 0.1782895-0.20599 0.2747906-0.473034 0.2753906-0.75 0-0.084546-0.027907-0.1590648-0.044922-0.2382812zm9.4804684 0c-0.017014 0.0792164-0.044922 0.1537356-0.044922 0.2382812 4.36e-4 0.276942 0.09717 0.543984 0.275391 0.75 1.047031 1.209752 1.499881 2.298702 1.521485 3.902344 0.00119-0.05119 0.007812-0.100869 0.007812-0.152344 3.1e-5 -0.06609 1e-6 -0.131204-2e-3 -0.197266 1.74e-4 -0.019026 2e-3 -0.033345 2e-3 -0.052734-0.0028-1.661779-0.459599-2.764059-1.529297-4-0.120288-0.139046-0.188398-0.3093555-0.230469-0.4882812zm-10.740234 10.238281c-0.2761424 0-0.5 0.223858-0.5 0.5 0 0.09289 0.032037 0.175471 0.076172 0.25 0.0870613-0.147019 0.2405805-0.25 0.423828-0.25s0.3367667 0.102981 0.4238281 0.25c0.0441346-0.074529 0.0761719-0.157105 0.0761719-0.25 0-0.276142-0.2238576-0.5-0.5-0.5zm12 0c-0.276142 0-0.5 0.223858-0.5 0.5 0 0.09289 0.03204 0.175471 0.07617 0.25 0.08706-0.147019 0.240581-0.25 0.423828-0.25s0.336767 0.102981 0.423828 0.25c0.044137-0.074529 0.076174-0.157105 0.076174-0.25 0-0.276142-0.223858-0.5-0.5-0.5z" style="opacity:.2"/>
 <path d="m10.617037 8c-0.417361 0-0.821889 0.095954-1.194913 0.2258967l1.969995 1.9683663c0.404835 0.404491 0.404835 1.047554 0 1.452068l-0.742785 0.74217c-0.404836 0.404492-1.048438 0.404492-1.453275 0l-1.9699928-1.968364c-0.1300588 0.372699-0.2260662 0.776898-0.2260662 1.193919 0 1.995984 1.6194038 3.614035 3.617038 3.614035 0.417364 0 0.821892-0.09596 1.194917-0.225874l5.365722 5.37266c1.724719 1.728035 3.886566-0.50056 2.228347-2.161965l-5.398014-5.404934c0.130056-0.372699 0.226063-0.776899 0.226063-1.19392 0-1.995983-1.619403-3.614058-3.617039-3.614058z" style="fill:#4f4f4f"/>
 <path d="M 4.5,1 C 3.669,1 3,1.7249655 3,2.6259765 v 0.5 C 3,2.2249655 3.669,1.5 4.5,1.5 h 12 c 0.831,0 1.5,0.7249655 1.5,1.6259765 v -0.5 C 18,1.7249655 17.331,1 16.5,1 Z" style="fill:#ffffff;opacity:.2"/>
</svg>
