<svg width="22" height="22" version="1.1" xmlns="http://www.w3.org/2000/svg">
 <path d="m18.419984 17.468276-6.348329 3.611474c-0.98274 0.559027-2.19441 0.560333-3.1791414 0.0039l-6.2627287-3.538311c-0.9847308-0.556416-1.5938838-1.586959-1.5991923-2.704361l-0.030524-6.6005715c-0.00530853-1.1174017 0.5945545-2.1531697 1.5746403-2.718075l6.2308775-3.5925342c0.9800866-0.564905 2.1910926-0.573395 3.1791416-0.022204l6.379517 3.5566159c0.987385 0.5505373 1.599855 1.5784683 1.604501 2.695217l0.03119 6.6005718c0.0046 1.116095-0.597873 2.149904-1.579949 2.708278z" style="opacity:.2"/>
 <path d="m18.419984 16.968277-6.348329 3.611473c-0.98274 0.559028-2.19441 0.560334-3.1791414 0.0039l-6.2627287-3.538311c-0.9847308-0.556415-1.5938838-1.586959-1.5991923-2.70436l-0.030524-6.6005721c-0.00530853-1.1174016 0.5945545-2.1531696 1.5746403-2.7180749l6.2308775-3.5925341c0.9800866-0.56490498 2.1910926-0.57339498 3.1791416-0.022204l6.379517 3.5566157c0.987385 0.5505374 1.599855 1.5784684 1.604501 2.695217l0.03119 6.6005714c0.0046 1.116096-0.597873 2.149905-1.579949 2.708279z" style="fill:#e4e4e4"/>
 <path d="m10.5 6.5000002c-4.0441363 0-6.2402344 2.328125-6.2402344 2.328125a0.99999499 0.99999499 0 0 0 0.068359 1.4121088 0.99999499 0.99999499 0 0 0 1.4121094-0.06836c8e-7 2e-6 1.4398605-1.6718738 4.759766-1.6718738 3.319906 0 4.759766 1.6718748 4.759766 1.6718748a0.99999499 0.99999499 0 0 0 1.412109 0.06836 0.99999499 0.99999499 0 0 0 0.06836-1.4121088c-2e-6 -2e-6 -2.196099-2.328126-6.240235-2.328126zm0 3.9999998c-2.7818396 0-4.2949219 1.894531-4.2949219 1.894531a0.99999499 0.99999499 0 0 0 0.1894531 1.400391 0.99999499 0.99999499 0 0 0 1.4003907-0.189453s0.7715147-1.105469 2.7050781-1.105469c1.933563 0 2.705078 1.105469 2.705078 1.105469a0.99999499 0.99999499 0 0 0 1.400391 0.189453 0.99999499 0.99999499 0 0 0 0.189453-1.400391s-1.513083-1.894531-4.294922-1.894531zm0 4a1.4999942 1.4999942 0 0 0-1.5 1.5 1.4999942 1.4999942 0 0 0 1.5 1.5 1.4999942 1.4999942 0 0 0 1.5-1.5 1.4999942 1.4999942 0 0 0-1.5-1.5z" style="opacity:.1;stop-color:#000000"/>
 <path d="m7.0000114 12.499984s1.1422851-1.499994 3.4999866-1.499994c2.357701 0 3.499986 1.499994 3.499986 1.499994" style="fill:none;stroke-linecap:round;stroke-linejoin:round;stroke-width:1.99999;stroke:#ff9026"/>
 <path d="m10.527105 14.012614" style="fill:#ff9026"/>
 <circle cx="10.499998" cy="15.500006" r="1.4999942" style="fill:#ff9026"/>
 <path d="m5 8.9999793s1.8179771-1.9999849 5.499998-1.9999849c3.682021 0 5.500002 1.9999849 5.500002 1.9999849" style="fill:none;stroke-linecap:round;stroke-linejoin:round;stroke-width:1.99999;stroke:#ff9026"/>
 <path d="m10.392576 1.0000796c-0.548768 0.00384-1.096864 0.1472334-1.5869076 0.4296858l-6.2314208 3.5927596c-0.9800858 0.5649053-1.5795211 1.6003613-1.5742126 2.7177629l0.001955 0.3798811c0.0364898-1.0711574 0.627355-2.0530186 1.5722595-2.597646l6.2314209-3.5927595c0.9800866-0.564905 2.1906506-0.5736514 3.1786986-0.0224609l6.379858 3.5566267c0.987386 0.5505373 1.59984 1.5785533 1.604486 2.695302l0.02929 6.2128667c0.0012-0.03721 0.0021-0.0749 2e-3 -0.112305l-0.03125-6.6005598c-0.0046-1.1167486-0.6171-2.1447646-1.604486-2.695302l-6.3799-3.5566266c-0.494024-0.2755953-1.043022-0.41106178-1.591791-0.407225z" style="fill:#ffffff;opacity:.2"/>
 <path d="m10.527105 14.512612" style="opacity:.1"/>
 <path d="m10.527105 14.012614"/>
 <path d="m10.527105 14.512612" style="opacity:.1"/>
</svg>
