<?xml version="1.0" encoding="UTF-8" standalone="no"?>
<svg xmlns="http://www.w3.org/2000/svg" height="22" width="22" version="1">
 <polygon display="none" points="395 637.5 452.5 723 488.5 788.5 502 812.5 551.5 721.5 612.5 637 628.5 616 668 619.5 707 615 713 603 688.5 578 676.5 569.5 693.5 560.5 693.5 540 732.5 497.5 664 430.5 588 333 517.5 214 500 192 386 355 328 328 304 332.5 299.5 366 318.5 403.5 338 431 309.5 462 275.5 507 300 533 304 551 318.5 569.5 340.5 583 351.5 604.5 373.5 617" transform="matrix(.063142 0 0 .063142 -131 -34.03)" fill="#5a0e00"/>
 <path d="m13.999 14v6h5.1c0.49858 0 0.89996-0.40138 0.89996-0.89996v-5.1h-6z" fill="#9b26af"/>
 <rect height="6" width="6" y="14" x="8" fill="#f34235"/>
 <path d="m2 14v5.1c0 0.499 0.4014 0.9 0.9 0.9h5.1v-6h-6z" fill="#fe9700"/>
 <rect opacity=".2" height="6" width="6" y="8.5" x="2"/>
 <rect height="6" width="6" y="8" x="2" fill="#feac33"/>
 <rect opacity=".2" height="6" width="6" y="8.5" x="8"/>
 <rect height="6" width="6" y="8" x="8" fill="#f5685d"/>
 <rect opacity=".2" height="6" width="6" y="8.5" x="14"/>
 <rect height="6" width="6" y="8" x="14" fill="#af51bf"/>
 <path opacity=".2" d="m14 2.5v6h6v-5.1c0-0.4986-0.401-0.9-0.9-0.9h-5.1z"/>
 <path d="m14 2v6h6v-5.1c0-0.4986-0.401-0.9-0.9-0.9h-5.1z" fill="#c37dcf"/>
 <rect opacity=".2" height="6" width="6" y="2.5" x="8"/>
 <rect height="6" width="6" y="2" x="8" fill="#f88e86"/>
 <path opacity=".2" d="m2.9 2.5c-0.4986 0-0.9 0.4014-0.9 0.9v5.1h6v-6h-5.1z"/>
 <path d="m2.9 2c-0.4986 0-0.9 0.4014-0.9 0.9v5.1h6v-6h-5.1z" fill="#fec166"/>
 <path opacity=".2" d="m2.9004 2c-0.4986 0-0.9004 0.4018-0.9004 0.9004v0.5c0-0.4986 0.4018-0.9004 0.9004-0.9004h16.2c0.498 0 0.9 0.4018 0.9 0.9004v-0.5c0-0.4986-0.402-0.9004-0.9-0.9004h-16.2z" fill="#fff"/>
 <path opacity=".2" d="m2 19.1v0.5c0 0.49858 0.40181 0.90039 0.90039 0.90039h16.2c0.498 0 0.9-0.402 0.9-0.9v-0.5c0 0.498-0.402 0.9-0.9 0.9h-16.2c-0.4986 0-0.9004-0.402-0.9004-0.9z"/>
</svg>
