<svg xmlns="http://www.w3.org/2000/svg" width="22" height="22" version="1.1">
 <rect style="opacity:0.2" width="21" height="21" x="1" y=".5" rx="1.05" ry="1.05"/>
 <rect style="fill:#e4e4e4" width="21" height="21" x="1" y="0" rx="1.05" ry="1.05"/>
 <path style="opacity:0.1" d="m 6,4.5 v 5 H 7 V 8 C 7,7.8645842 7.0468757,7.7473955 7.140625,7.6484375 7.239583,7.5494795 7.3593757,7.5 7.5,7.5 H 10 c 0.276041,0 0.510417,-0.096354 0.703125,-0.2890625 C 10.90104,7.013022 11,6.7760401 11,6.5 v -1 C 11,5.2239599 10.901038,4.9895826 10.703125,4.796875 10.505209,4.5989595 10.270833,4.5 10,4.5 Z m 6,0 v 4 c 0,0.27604 0.09635,0.513023 0.289062,0.710937 C 12.48177,9.403645 12.718751,9.5 13,9.5 h 3 c 0.27604,0 0.510418,-0.09635 0.703125,-0.289063 C 16.901041,9.013023 17,8.77604 17,8.5 v -4 H 16 V 8 C 16,8.1406243 15.950519,8.260417 15.851562,8.359375 15.752602,8.453125 15.635416,8.5 15.5,8.5 h -2 C 13.359376,8.5 13.239583,8.4531248 13.140625,8.359375 13.046876,8.260417 13,8.1406243 13,8 V 4.5 Z m -4.5,1 h 2 C 9.635416,5.5 9.752606,5.549481 9.851562,5.6484375 9.950522,5.7473955 10,5.8645842 10,6 10,6.1406243 9.950519,6.260417 9.851562,6.359375 9.752604,6.453124 9.635416,6.5 9.5,6.5 h -2 C 7.3593757,6.5 7.239583,6.453124 7.140625,6.359375 7.0468755,6.260417 7,6.1406243 7,6 7,5.8645842 7.0468757,5.7473955 7.140625,5.6484375 7.239583,5.5494795 7.3593757,5.5 7.5,5.5 Z m -4.5,6 v 5 h 1 v -4 h 2.5 c 0.1354158,0 0.2526045,0.04948 0.3515625,0.148438 C 6.9505205,12.747397 7,12.864584 7,13 v 3.5 h 1 v -4 C 8,12.229168 7.9010405,11.994791 7.703125,11.796875 7.5104174,11.59896 7.2760401,11.5 7,11.5 Z m 6,0 v 4 c 0,0.276041 0.09635,0.513022 0.289062,0.710938 C 9.48177,16.403645 9.718752,16.5 10,16.5 h 4 v -1 h -3.5 c -0.140624,0 -0.260418,-0.04687 -0.359375,-0.140625 C 10.046875,15.260415 10,15.140624 10,15 10,14.864584 10.04687,14.747395 10.140625,14.648438 10.239585,14.549478 10.359377,14.5 10.5,14.5 H 14 v -1 h -3.5 c -0.140624,0 -0.260418,-0.04687 -0.359375,-0.140625 C 10.046875,13.260415 10,13.140624 10,13 10,12.864584 10.04687,12.747396 10.140625,12.648438 10.239585,12.549478 10.359377,12.5 10.5,12.5 H 14 v -1 z m 7,0 c -0.27604,0 -0.513022,0.09896 -0.710938,0.296875 C 15.096356,11.989583 15,12.22396 15,12.5 v 1 c 0,0.276041 0.09635,0.513023 0.289062,0.710938 C 15.48177,14.403645 15.718752,14.5 16,14.5 h 2.5 c 0.135416,0 0.252604,0.04948 0.351562,0.148438 C 18.950523,14.747397 19,14.864584 19,15 19,15.140624 18.95052,15.260417 18.851562,15.359375 18.752602,15.453125 18.635416,15.5 18.5,15.5 H 15 v 1 h 4 c 0.270832,0 0.50521,-0.09635 0.703125,-0.289062 C 19.901041,16.018231 20,15.781249 20,15.5 v -1 C 20,14.229168 19.901039,13.994791 19.703125,13.796875 19.510418,13.59896 19.27604,13.5 19,13.5 h -2.5 c -0.140624,0 -0.260417,-0.04687 -0.359375,-0.140625 C 16.046875,13.260415 16,13.140624 16,13 16,12.864584 16.046871,12.747395 16.140625,12.648438 16.239585,12.549478 16.359376,12.5 16.5,12.5 H 20 v -1 z"/>
 <path style="fill:#007f0e" d="M 6,4 V 9 H 7 V 7.5 C 7,7.3645842 7.0468757,7.2473955 7.140625,7.1484375 7.239583,7.0494795 7.3593757,7 7.5,7 H 10 C 10.276041,7 10.510417,6.903646 10.703125,6.7109375 10.90104,6.513022 11,6.2760401 11,6 V 5 C 11,4.7239599 10.901038,4.4895826 10.703125,4.296875 10.505209,4.0989595 10.270833,4 10,4 Z m 6,0 v 4 c 0,0.27604 0.09635,0.5130225 0.289062,0.7109375 C 12.48177,8.9036455 12.718751,9 13,9 h 3 C 16.27604,9 16.510418,8.90365 16.703125,8.7109375 16.901041,8.5130225 17,8.27604 17,8 V 4 H 16 V 7.5 C 16,7.6406243 15.950519,7.760417 15.851562,7.859375 15.752602,7.953125 15.635416,8 15.5,8 h -2 C 13.359376,8 13.239583,7.9531248 13.140625,7.859375 13.046876,7.760417 13,7.6406243 13,7.5 V 4 Z M 7.5,5 h 2 C 9.635416,5 9.752606,5.049481 9.851562,5.1484375 9.950522,5.2473955 10,5.3645842 10,5.5 10,5.6406243 9.950519,5.760417 9.851562,5.859375 9.752604,5.953124 9.635416,6 9.5,6 h -2 C 7.3593757,6 7.239583,5.953124 7.140625,5.859375 7.0468755,5.760417 7,5.6406243 7,5.5 7,5.3645842 7.0468757,5.2473955 7.140625,5.1484375 7.239583,5.0494795 7.3593757,5 7.5,5 Z M 3,11 v 5 h 1 v -4 h 2.5 c 0.1354158,0 0.2526045,0.04948 0.3515625,0.148438 C 6.9505205,12.247397 7,12.364584 7,12.5 V 16 H 8 V 12 C 8,11.729168 7.9010405,11.494791 7.703125,11.296875 7.5104174,11.09896 7.2760401,11 7,11 Z m 6,0 v 4 c 0,0.276041 0.09635,0.513022 0.289062,0.710938 C 9.48177,15.903645 9.718752,16 10,16 h 4 V 15 H 10.5 C 10.359376,15 10.239582,14.953129 10.140625,14.859375 10.046875,14.760415 10,14.640624 10,14.5 10,14.364584 10.04687,14.247395 10.140625,14.148438 10.239585,14.049478 10.359377,14 10.5,14 H 14 V 13 H 10.5 C 10.359376,13 10.239582,12.953129 10.140625,12.859375 10.046875,12.760415 10,12.640624 10,12.5 10,12.364584 10.04687,12.247396 10.140625,12.148438 10.239585,12.049478 10.359377,12 10.5,12 H 14 v -1 z m 7,0 c -0.27604,0 -0.513022,0.09896 -0.710938,0.296875 C 15.096356,11.489583 15,11.72396 15,12 v 1 c 0,0.276041 0.09635,0.513023 0.289062,0.710938 C 15.48177,13.903645 15.718752,14 16,14 h 2.5 c 0.135416,0 0.252604,0.04948 0.351562,0.148438 C 18.950523,14.247397 19,14.364584 19,14.5 19,14.640624 18.95052,14.760417 18.851562,14.859375 18.752602,14.953125 18.635416,15 18.5,15 H 15 v 1 h 4 c 0.270832,0 0.50521,-0.09635 0.703125,-0.289062 C 19.901041,15.518231 20,15.281249 20,15 V 14 C 20,13.729168 19.901039,13.494791 19.703125,13.296875 19.510418,13.09896 19.27604,13 19,13 H 16.5 C 16.359376,13 16.239583,12.953129 16.140625,12.859375 16.046875,12.760415 16,12.640624 16,12.5 16,12.364584 16.046871,12.247395 16.140625,12.148438 16.239585,12.049478 16.359376,12 16.5,12 H 20 v -1 z"/>
 <path style="opacity:0.2;fill:#ffffff" d="M 2.0507812,0 C 1.4690813,0 1,0.4690813 1,1.0507812 v 1 C 1,1.4690813 1.4690813,1 2.0507812,1 H 20.949219 C 21.530919,1 22,1.4690813 22,2.0507812 v -1 C 22,0.4690813 21.530919,0 20.949219,0 Z"/>
</svg>
