<svg xmlns="http://www.w3.org/2000/svg" width="22" height="22" version="1">
 <g style="opacity:0.2" transform="matrix(0.5,0,0,0.48387,-0.99998,-0.30641)">
  <path d="M 13,12 C 8.0294,12 4,16.925 4,23 4.0039,27.714 6.465,31.901 10.119,33.41 10.04,33.933 9.9998,34.466 10,35 c 0,4.4183 2.6863,8 6,8 3.3137,3e-6 6,-3.5817 6,-8 V 23 C 22,16.925 17.971,12 13,12 Z"/>
  <path d="m 35,12 c 4.9706,0 9,4.9249 9,11 -0.0039,4.7141 -2.465,8.9012 -6.1191,10.41 0.079,0.523 0.119,1.056 0.119,1.59 0,4.4183 -2.6863,8 -6,8 -3.3137,3e-6 -6,-3.5817 -6,-8 V 23 c 0,-6.0751 4.0294,-11 9,-11 z"/>
 </g>
 <path style="opacity:0.2" d="m 8.3584,3.50034 c -0.1975,0 -0.3585,0.17665 -0.3585,0.39455 0,0.17809 0.10714,0.32786 0.25488,0.37695 0.222,0.8329 0.7448,1.6174 1.4672,2.1874 a 1.5,2 0 0 0 -0.222,1.041 1.5,2 0 0 0 0.5,1.4885 v 10.011 c 0,0.86804 0.39907,1.5 0.99999,1.5 0.60092,0 0.99864,-0.65769 0.99999,-1.5 v -10.012 a 1.5,2 0 0 0 0.5,-1.4879 1.5,2 0 0 0 -0.22,-1.041 c 0.72149,-0.56999 1.2435,-1.355 1.4655,-2.1875 0.148,-0.049099 0.255,-0.1989 0.255,-0.37695 0,-0.2179 -0.161,-0.39455 -0.3585,-0.39455 -0.19829,0 -0.35937,0.17702 -0.35937,0.39453 0,0.12004 0.04899,0.2268 0.12597,0.29883 -0.20251,0.73544 -0.67054,1.4299 -1.3125,1.9433 a 1.5,2 0 0 0 -1.096,-0.6363 1.5,2 0 0 0 -1.094,0.6365 c -0.643,-0.5135 -1.1113,-1.2075 -1.3138,-1.9432 0.077,-0.072 0.126,-0.1788 0.126,-0.2988 0,-0.2175 -0.1615,-0.3945 -0.3595,-0.3945 z"/>
 <path style="fill:#4f4f4f" d="m 8.3584,3.0002 c -0.1975,0 -0.3585,0.17665 -0.3585,0.39455 0,0.17809 0.10714,0.32786 0.25488,0.37695 0.222,0.8329 0.7448,1.6174 1.4672,2.1874 a 1.5,2 0 0 0 -0.222,1.041 1.5,2 0 0 0 0.5,1.4885 v 10.011 c 0,0.86804 0.39907,1.5 0.99999,1.5 0.60092,0 0.99864,-0.65769 0.99999,-1.5 V 8.4876 a 1.5,2 0 0 0 0.5,-1.4879 1.5,2 0 0 0 -0.22,-1.041 c 0.72149,-0.56999 1.2435,-1.355 1.4655,-2.1875 0.148,-0.049099 0.255,-0.1989 0.255,-0.37695 0,-0.2179 -0.161,-0.39455 -0.3585,-0.39455 -0.19829,0 -0.35937,0.17702 -0.35937,0.39453 0,0.12004 0.04899,0.2268 0.12597,0.29883 -0.20251,0.73544 -0.67054,1.4299 -1.3125,1.9433 a 1.5,2 0 0 0 -1.096,-0.6363 1.5,2 0 0 0 -1.094,0.6365 c -0.643,-0.5135 -1.1113,-1.2075 -1.3138,-1.9432 0.077,-0.072 0.126,-0.1788 0.126,-0.2988 0,-0.2175 -0.1615,-0.3945 -0.3595,-0.3945 z"/>
 <g style="fill:#e75177" transform="matrix(0.5,0,0,0.48387,-0.99998,-0.80655)">
  <path d="M 13,12 C 8.0294,12 4,16.925 4,23 4.0039,27.714 6.465,31.901 10.119,33.41 10.04,33.933 9.9998,34.466 10,35 c 0,4.4183 2.6863,8 6,8 3.3137,3e-6 6,-3.5817 6,-8 V 23 C 22,16.925 17.971,12 13,12 Z"/>
  <path d="m 35,12 c 4.9706,0 9,4.9249 9,11 -0.0039,4.7141 -2.465,8.9012 -6.1191,10.41 0.079,0.523 0.119,1.056 0.119,1.59 0,4.4183 -2.6863,8 -6,8 -3.3137,3e-6 -6,-3.5817 -6,-8 V 23 c 0,-6.0751 4.0294,-11 9,-11 z"/>
 </g>
 <path style="opacity:0.2" d="M 4.9921875,6.5015765 A 4.0673307,2.3887266 77.04598 0 0 4.515625,6.5543109 4.0673307,2.3887266 77.04598 0 0 3.203125,11.15978 4.0673307,2.3887266 77.04598 0 0 6.484375,14.444936 4.0673307,2.3887266 77.04598 0 0 7.7988281,9.839468 4.0673307,2.3887266 77.04598 0 0 4.9921875,6.5015765 Z m 12.0175785,0 a 2.3887266,4.0673307 12.95402 0 0 -2.806641,3.3378915 2.3887266,4.0673307 12.95402 0 0 1.3125,4.605468 2.3887266,4.0673307 12.95402 0 0 3.283203,-3.285156 2.3887266,4.0673307 12.95402 0 0 -1.314453,-4.6054691 2.3887266,4.0673307 12.95402 0 0 -0.474609,-0.052734 z M 6.2851562,15.499624 a 2.0251,1.4658 76.838 0 0 -0.2890624,0.03906 2.0251,1.4658 76.838 0 0 -0.9082032,2.355469 2.0251,1.4658 76.838 0 0 1.9160156,1.566407 2.0251,1.4658 76.838 0 0 0.9082032,-2.355469 2.0251,1.4658 76.838 0 0 -1.6269532,-1.605469 z m 9.4277348,0 a 1.4658,2.0251 13.162 0 0 -1.625,1.605469 1.4658,2.0251 13.162 0 0 0.90625,2.355469 1.4658,2.0251 13.162 0 0 1.917968,-1.566407 1.4658,2.0251 13.162 0 0 -0.908203,-2.355469 1.4658,2.0251 13.162 0 0 -0.291015,-0.03906 z"/>
 <path style="fill:#ff85aa" d="M 4.9921875,6.0019531 A 4.0673307,2.3887266 77.04598 0 0 4.515625,6.0546871 4.0673307,2.3887266 77.04598 0 0 3.203125,10.660156 4.0673307,2.3887266 77.04598 0 0 6.484375,13.945312 4.0673307,2.3887266 77.04598 0 0 7.7988281,9.339844 4.0673307,2.3887266 77.04598 0 0 4.9921875,6.0019531 Z m 12.0175785,0 a 2.3887266,4.0673307 12.95402 0 0 -2.806641,3.3378909 2.3887266,4.0673307 12.95402 0 0 1.3125,4.605468 2.3887266,4.0673307 12.95402 0 0 3.283203,-3.285156 2.3887266,4.0673307 12.95402 0 0 -1.314453,-4.6054685 2.3887266,4.0673307 12.95402 0 0 -0.474609,-0.052734 z M 6.2851562,15 A 2.0251,1.4658 76.838 0 0 5.9960938,15.039062 2.0251,1.4658 76.838 0 0 5.0878906,17.394531 2.0251,1.4658 76.838 0 0 7.0039062,18.960938 2.0251,1.4658 76.838 0 0 7.9121094,16.605469 2.0251,1.4658 76.838 0 0 6.2851562,15 Z m 9.4277348,0 a 1.4658,2.0251 13.162 0 0 -1.625,1.605469 1.4658,2.0251 13.162 0 0 0.90625,2.355469 1.4658,2.0251 13.162 0 0 1.917968,-1.566407 A 1.4658,2.0251 13.162 0 0 16.003906,15.039062 1.4658,2.0251 13.162 0 0 15.712891,15 Z"/>
 <path style="opacity:0.1;fill:#ffffff" d="M 4.9921875,6.0019531 A 4.0673307,2.3887266 77.04598 0 0 4.515625,6.0546875 4.0673307,2.3887266 77.04598 0 0 3.0078125,9.28125 4.0673307,2.3887266 77.04598 0 1 4.515625,6.5546875 4.0673307,2.3887266 77.04598 0 1 4.9921875,6.5019531 4.0673307,2.3887266 77.04598 0 1 7.7988281,9.839844 4.0673307,2.3887266 77.04598 0 1 7.9941406,11.220703 4.0673307,2.3887266 77.04598 0 0 7.7988281,9.339844 4.0673307,2.3887266 77.04598 0 0 4.9921875,6.0019531 Z m 12.0175785,0 a 2.3887266,4.0673307 12.95402 0 0 -2.806641,3.3378909 2.3887266,4.0673307 12.95402 0 0 -0.195313,1.871094 2.3887266,4.0673307 12.95402 0 1 0.195313,-1.371094 2.3887266,4.0673307 12.95402 0 1 2.806641,-3.3378909 2.3887266,4.0673307 12.95402 0 1 0.474609,0.052734 2.3887266,4.0673307 12.95402 0 1 1.507813,2.7285159 2.3887266,4.0673307 12.95402 0 0 -1.507813,-3.2285159 2.3887266,4.0673307 12.95402 0 0 -0.474609,-0.052734 z M 6.2851562,15 A 2.0251,1.4658 76.838 0 0 5.9960938,15.039062 2.0251,1.4658 76.838 0 0 5.0136719,16.955078 2.0251,1.4658 76.838 0 1 5.9960938,15.539062 2.0251,1.4658 76.838 0 1 6.2851562,15.5 2.0251,1.4658 76.838 0 1 7.9121094,17.105469 2.0251,1.4658 76.838 0 1 7.9882812,17.544922 2.0251,1.4658 76.838 0 0 7.9121094,16.605469 2.0251,1.4658 76.838 0 0 6.2851562,15 Z m 9.4277348,0 a 1.4658,2.0251 13.162 0 0 -1.625,1.605469 1.4658,2.0251 13.162 0 0 -0.07422,0.933593 1.4658,2.0251 13.162 0 1 0.07422,-0.433593 1.4658,2.0251 13.162 0 1 1.625,-1.605469 1.4658,2.0251 13.162 0 1 0.291015,0.03906 1.4658,2.0251 13.162 0 1 0.982422,1.431641 A 1.4658,2.0251 13.162 0 0 16.003906,15.039062 1.4658,2.0251 13.162 0 0 15.712891,15 Z"/>
 <g style="opacity:0.2;fill:#ffffff" transform="matrix(0.5,0,0,0.48387,-0.99998,-0.80655)">
  <path style="fill:#ffffff" d="M 6.5,6 C 4.0147,6 2,8.3827554 2,11.322266 c 8.09e-5,0.09461 0.015268,0.185632 0.019531,0.279296 C 2.1195626,8.7667822 4.078659,6.5 6.5,6.5 8.9855,6.5 11,8.8827554 11,11.822266 v -0.5 C 11,8.3827554 8.9855,6 6.5,6 Z M 5.0214844,16.839844 C 5.0158654,16.936522 4.9999624,17.031861 5,17.128906 c 0,0.08507 0.015343,0.164346 0.019531,0.248047 0.00877,-0.173252 0.012497,-0.347379 0.039063,-0.517578 -0.013051,-0.0052 -0.024119,-0.01418 -0.037109,-0.01953 z" transform="matrix(2,0,0,2.0666708,-4.0002e-5,-0.39979747)"/>
  <path style="fill:#ffffff" d="M 17.5,6 C 15.0147,6 13,8.382707 13,11.322266 v 0.5 C 13,8.882707 15.0147,6.5 17.5,6.5 c 2.421341,0 4.380437,2.2667398 4.480469,5.101562 0.0043,-0.09367 0.01945,-0.184678 0.01953,-0.279296 C 22,8.382707 19.9853,6 17.5,6 Z m 1.478516,10.839844 c -0.01299,0.0053 -0.02406,0.01432 -0.03711,0.01953 0.02657,0.170199 0.03029,0.344326 0.03906,0.517578 0.0042,-0.0837 0.01953,-0.16298 0.01953,-0.248047 0,-0.09705 -0.01587,-0.192384 -0.02148,-0.289062 z" transform="matrix(2,0,0,2.0666708,-4.0002e-5,-0.39979747)"/>
 </g>
 <path style="opacity:0.1;fill:#ffffff" d="M 8.359375,3 C 8.161875,3 8,3.1766313 8,3.3945312 8,3.4911463 8.0354493,3.5741865 8.0878906,3.6425781 8.1537328,3.5570318 8.24986,3.5 8.359375,3.5 8.4683422,3.5 8.5628842,3.5561601 8.6289062,3.640625 8.6806761,3.5726422 8.71875,3.490327 8.71875,3.3945312 8.71875,3.1770312 8.557375,3 8.359375,3 Z m 5.283203,0 c -0.19829,0 -0.359375,0.1770213 -0.359375,0.3945312 0,0.096849 0.03709,0.1797518 0.08984,0.2480469 C 13.438994,3.5574544 13.532965,3.5 13.642578,3.5 c 0.109638,0 0.203688,0.056866 0.269531,0.1425781 C 13.964555,3.5741813 14,3.4911246 14,3.3945312 14,3.1766312 13.840078,3 13.642578,3 Z M 8.6992188,3.984375 C 8.6811028,4.065918 8.6481708,4.1406464 8.5917969,4.1933594 8.7409788,4.7353503 9.036228,5.2540813 9.4375,5.6953125 c 0.09402,0.08886 0.182845,0.1829449 0.285156,0.2636719 a 1.5,2 0 0 0 -0.002,0.00586 c 0.06258,0.056728 0.119143,0.1188444 0.185547,0.171875 A 1.5,2 0 0 1 11,5.5 1.5,2 0 0 1 12.095703,6.1367188 c 0.06645,-0.053144 0.122924,-0.1150059 0.185547,-0.171875 a 1.5,2 0 0 0 -0.002,-0.00586 C 12.380238,5.8792393 12.46769,5.7869225 12.560547,5.6992188 12.96283,5.2572154 13.25865,4.7364812 13.408203,4.1933594 13.351803,4.1405858 13.318873,4.0659982 13.300781,3.984375 13.065122,4.6091512 12.651309,5.1923791 12.095703,5.6367188 A 1.5,2 0 0 0 11,5 1.5,2 0 0 0 9.90625,5.6367188 C 9.349642,5.1922112 8.9349158,4.6093595 8.6992188,3.984375 Z M 9.587891,6.3339844 A 1.5,2 0 0 0 9.5,7 1.5,2 0 0 0 9.51367,7.2539062 1.5,2 0 0 1 9.722654,6.4589844 c -0.04842,-0.038207 -0.08817,-0.084916 -0.134765,-0.125 z m 2.824218,0.00195 c -0.04596,0.039545 -0.08508,0.085336 -0.132812,0.1230469 A 1.5,2 0 0 1 12.486328,7.2480469 1.5,2 0 0 0 12.5,7 1.5,2 0 0 0 12.412109,6.3359375 Z"/>
</svg>
