<svg xmlns="http://www.w3.org/2000/svg" width="22" height="22" version="1.1">
 <path style="opacity:0.2" d="M 1.0163754,7.939421 C 1.6492845,6.5097583 3.1492703,7.2878073 3.6910724,6.4122896 4.2038885,5.5836116 2.4998333,4.2951752 1.4477373,4.3525713 1.8207706,3.9967158 4.2244045,4.4318909 4.9714389,4.453839 5.8781751,4.480479 4.4665605,2.6917243 4.4665605,2.6917243 4.7982746,2.0387414 6.5340063,2.4579348 7.2221136,3.3677499 8.0044486,4.4021534 9.187001,1.6377507 8.478091,1.1651445 c 1.472665,0.069442 1.688623,2.2423837 2.446465,2.3143216 1.243072,0.1179982 1.493515,-0.4908503 1.719113,-1.2543178 0.876804,0.8671511 0.180898,1.9969417 0.629981,2.0604763 1.469969,0.8212251 2.547988,-1.4189751 3.356893,-0.6795275 -1.203171,0.8173368 -2.290798,3.1808327 -0.531205,3.1882268 0.858468,0.051942 1.071642,0.1832748 2.075988,1.0166549 -2.285764,-0.7885065 -2.325945,1.1277421 -1.277128,0.9092452 2.187272,-0.4556684 2.725963,1.352402 2.484279,1.400738 -0.646847,-0.323424 -4.197493,-0.460751 -3.875591,0.09653 1.65412,2.863636 -1.552271,4.067141 -4.238005,4.743587 l -5.5897468,0.03891 C 4.6566258,14.383962 1.1665418,12.584598 1.0163754,9.964393 0.99560586,9.601991 2.2470223,10.045877 2.5100358,9.634064 3.2243032,8.5156991 2.4156155,7.9240155 1.0163754,7.939421 Z"/>
 <path style="fill:#ff3c3c" d="M 1.0163754,7.4394201 C 1.6492845,6.0097574 3.1492703,6.7878063 3.6910724,5.9122887 4.2038885,5.0836106 2.4998333,3.7951744 1.4477373,3.8525705 1.8207706,3.4967149 4.2244045,3.9318898 4.9714389,3.9538381 5.8781751,3.9804786 4.4665605,2.1917234 4.4665605,2.1917234 4.7982746,1.5387404 6.5340063,1.9579338 7.2221136,2.8677489 8.0044486,3.9021522 9.187001,1.1377497 8.478091,0.6651436 c 1.472665,0.069442 1.688623,2.2423837 2.446465,2.3143216 1.243072,0.1179982 1.493515,-0.4908503 1.719113,-1.2543179 0.876804,0.8671512 0.180898,1.9969419 0.629981,2.0604763 1.469969,0.8212251 2.547988,-1.4189751 3.356893,-0.6795275 -1.203171,0.8173371 -2.290798,3.1808328 -0.531205,3.1882268 0.858468,0.051942 1.071642,0.1832749 2.075988,1.0166549 -2.285764,-0.7885065 -2.325945,1.1277421 -1.277128,0.9092452 2.187272,-0.4556683 2.725963,1.352402 2.484279,1.400738 -0.646847,-0.323423 -4.197493,-0.460751 -3.875591,0.09653 1.65412,2.863636 -1.552271,4.067141 -4.238005,4.743587 l -5.5897468,0.03891 C 4.6566258,13.883961 1.1665418,12.084597 1.0163754,9.464392 0.99560586,9.10199 2.2470223,9.545877 2.5100358,9.134063 3.2243032,8.0156981 2.4156155,7.4240145 1.0163754,7.4394201 Z"/>
 <path style="opacity:0.2;fill:#ffffff" d="m 8.4781835,0.6649999 c 0.1454123,0.096941 0.2078424,0.2930446 0.2138679,0.5302744 1.2800986,0.259372 1.5132886,2.2159201 2.2324256,2.284184 1.243072,0.1179982 1.493156,-0.4904411 1.718754,-1.2539086 0.366804,0.362766 0.454429,0.7676009 0.469727,1.1250021 0.01348,-0.4210874 0.09704,-1.0644747 -0.469727,-1.625003 C 12.417633,2.4890163 12.167549,3.0974556 10.924477,2.9794574 10.166636,2.9075194 9.950848,0.7344415 8.4781835,0.6649999 Z M 8.6705669,1.5048452 C 8.5329206,2.4208621 7.7783317,3.6032853 7.2223216,2.868129 6.5342148,1.9583139 4.7981716,1.538387 4.4664575,2.1913699 c 0,0 0.092057,0.1180273 0.2138674,0.2910162 C 5.2605025,2.1658612 6.6294415,2.5842239 7.2223216,3.36813 7.8900109,4.2509486 8.8444682,2.3698283 8.6705669,1.5048452 Z m 7.6435691,1.4521512 c -0.76834,-0.077812 -1.753821,1.5476751 -3.040045,0.8291031 -0.101062,-0.014298 -0.140187,-0.089139 -0.15625,-0.1962894 -0.01103,0.3789896 -0.06086,0.665574 0.15625,0.6962905 1.22747,0.6857483 2.180227,-0.7580485 2.932623,-0.8242205 0.13652,-0.1361204 0.279229,-0.2572399 0.423829,-0.3554694 C 16.52943,3.0139798 16.423899,2.9681123 16.314136,2.9569964 Z M 2.0504372,3.7148103 C 1.7609663,3.7237118 1.5411553,3.7635419 1.447897,3.8525059 1.8278584,3.8317773 2.2917922,3.9900306 2.7066884,4.235319 3.5385508,4.2901401 4.5350621,4.4412514 4.9713409,4.4540695 5.3178546,4.4642495 5.3242786,4.208533 5.2018103,3.8896153 5.1533252,3.9324529 5.0801216,3.9572646 4.9713409,3.9540686 4.4110654,3.9376074 2.9188498,3.6881055 2.0504372,3.7148103 Z m 13.1533448,2.008793 c -0.105783,0.5946492 0.110532,1.0670155 0.89551,1.0703146 0.528987,0.032005 0.813437,0.096005 1.188479,0.3339846 0.248351,0.011545 0.538846,0.062277 0.887696,0.1826178 -1.004345,-0.83338 -1.217707,-0.9646618 -2.076175,-1.0166034 -0.545393,-0.0023 -0.815847,-0.2315139 -0.89551,-0.5703136 z m -11.4707245,0.09375 c -0.013038,0.031775 -0.023048,0.064114 -0.041992,0.094727 -0.5418021,0.8755176 -2.0419006,0.097684 -2.6748097,1.5273464 0.1134997,-0.00125 0.2160589,0.00795 0.3212897,0.01465 C 2.0604987,6.7025942 3.2267836,7.1623325 3.6910654,6.4120826 3.8038809,6.2297798 3.8042759,6.0249349 3.7330575,5.817355 Z M 16.308277,8.0155996 c -0.200799,0.3596177 0.04708,0.8181506 0.589845,0.7050794 1.426853,-0.2972521 2.14345,0.364471 2.408207,0.876955 0.02071,0.0082 0.0593,0.015 0.07617,0.02344 C 19.624185,9.572739 19.085394,7.7650117 16.898122,8.22068 16.610224,8.2806571 16.408143,8.17723 16.308277,8.0156016 Z M 2.7340322,8.6474368 C 2.6934142,8.7969756 2.6227501,8.9578519 2.510399,9.133766 2.2473855,9.54558 0.99548596,9.102416 1.0162555,9.464821 c 0.00773,0.134864 0.030054,0.26602 0.054688,0.396485 C 1.3088898,9.705217 2.2818515,9.991616 2.5103994,9.633767 2.763875,9.236887 2.8224768,8.9080663 2.7340322,8.6474368 Z M 15.643236,9.996072 c -0.129401,0.05659 -0.190232,0.129037 -0.136719,0.22168 0.25664,0.4443 0.385004,0.844288 0.427736,1.212893 0.0559,-0.42192 -0.03099,-0.897719 -0.291017,-1.434573 z"/>
 <circle style="opacity:0.2" cx="9.5" cy="10" r="6.5"/>
 <circle style="fill:#ffffff" cx="9.5" cy="9.5" r="6.5"/>
 <circle style="opacity:0.2" cx="13" cy="13.5" r="8"/>
 <circle style="fill:#4f4f4f" cx="13" cy="13" r="8"/>
 <path style="opacity:0.1" d="m 12.999677,4.999969 a 8.000015,8.000015 0 0 0 -8.0000155,8.000015 8.000015,8.000015 0 0 0 0.010742,0.29004 8.000015,8.000015 0 0 1 7.9892735,-7.7900541 8.000015,8.000015 0 0 1 1.898441,0.2392585 6.5000122,6.5000122 0 0 0 -0.627931,-0.6337902 8.000015,8.000015 0 0 0 -1.27051,-0.1054692 z"/>
</svg>
