<svg xmlns="http://www.w3.org/2000/svg" xmlns:xlink="http://www.w3.org/1999/xlink" width="22" height="22" version="1">
 <defs>
  <linearGradient id="linearGradient938">
   <stop style="stop-color:#2bb5fe" offset="0"/>
   <stop style="stop-color:#2bb5fe;stop-opacity:0" offset="1"/>
  </linearGradient>
  <linearGradient id="linearGradient940" x1="22.26" x2="21.73" y1="32.569" y2="30.835" gradientTransform="matrix(0.49999999,0,0,0.49999999,-1,-1.5)" gradientUnits="userSpaceOnUse" xlink:href="#linearGradient938"/>
  <linearGradient id="linearGradient944" x1="22.26" x2="21.73" y1="32.569" y2="30.835" gradientTransform="matrix(0.49999999,0,0,0.49999999,3.7409456,-1.5628772)" gradientUnits="userSpaceOnUse" xlink:href="#linearGradient938"/>
 </defs>
 <path style="fill:#3fbcfe" d="M 11,1 C 5.4599999,1 1,5.4599999 1,11 1,16.54 5.4599999,21 11,21 16.54,21 21,16.54 21,11 21,5.4599999 16.54,1 11,1 Z"/>
 <ellipse style="opacity:0.2" cx="11.712" cy="13.352" rx="4.488" ry="4.648"/>
 <path style="opacity:0.2;fill:#ffffff" d="M 11,1 C 5.4604924,1 1.0008889,5.4599999 1.0008889,11 c 0,0.084 -0.002,0.1665 0,0.25 C 1.1330771,5.8269999 5.5444849,1.5 11,1.5 c 5.455515,0 9.867123,4.3269999 9.999111,9.75 0.002,-0.0835 0,-0.166 0,-0.25 C 20.999111,5.4599999 16.539507,1 11,1 Z"/>
 <path style="opacity:0.2" d="M 1.00585,11.25 C 1.0038,11.3335 1,11.416 1,11.5 c 0,5.54 4.4599999,10 10,10 5.54,0 10,-4.46 10,-10 0,-0.084 -0.004,-0.1665 -0.006,-0.25 C 20.862,16.673 16.456,21 11,21 5.5439999,21 1.138,16.673 1.006,11.25 Z"/>
 <ellipse style="fill:#f6dcc2" cx="11.712" cy="12.852" rx="4.488" ry="4.648"/>
 <path style="opacity:0.1" d="M 7.7164438,9.0173 C 11.443132,8.7680853 13.059509,7.5635328 16.567892,8.6241463 18.133643,9.71969 18.577495,15.780118 17.080996,17.7515 l -0.163779,-1.319587 c -0.03202,0.689796 -0.183301,0.962167 -0.334842,1.233635 l -0.118708,-0.58357 -0.449685,0.644526 0.29321,-1.57711 c -0.216129,0.537396 -0.46974,1.059798 -0.987806,1.476419 l -1.313201,-0.139716 0.963788,-0.878606 1.022915,-2.361777 -0.512386,0.245279 -0.109197,-3.537035 c -0.146559,1.105706 -0.155295,2.324171 -0.476695,2.905355 -0.346559,-0.720202 -0.507349,-1.99771 -0.744786,-3.04528 0.125264,2.006252 -0.470252,2.955363 -1.255799,3.62576 -0.375373,-0.593809 -0.464076,-1.510122 -0.350064,-2.654488 -0.487106,0.556667 -0.866826,1.43549 -1.233285,2.354096 0.02288,-1.086046 -0.432025,-1.917269 0.421506,-3.446327 -0.851279,0.452048 -1.515573,1.371557 -2.123672,2.431553 0.05419,-0.705894 0.136419,-1.431811 0.611403,-2.438269 -0.637566,0.995886 -1.2725507,1.993061 -1.6708727,3.108568 -0.2266075,-0.755083 -0.3951595,-1.532496 0.1602025,-2.588337 -1.464609,0.921811 -0.746139,5.01346 -0.477647,6.303814 H 5.9125494 l -0.279885,-0.55977 -0.3198685,0.55977 H 4.3132064 l 0.992644,-6.900522 z"/>
 <path style="fill:#ff7f7f" d="M 11.5,4 C 7.1504141,4 5.6702392,7.579753 5.2421875,10.552734 L 4.3125,17.009766 h 1 l 0.3203125,-0.558594 0.2792969,0.558594 H 8.2324219 C 7.9639299,15.719412 7.2443754,11.628842 8.7089844,10.707031 8.1536224,11.762872 8.3222206,12.539839 8.5488281,13.294922 8.9471501,12.179415 9.583137,11.181433 10.220703,10.185547 9.745719,11.192005 9.663565,11.919106 9.609375,12.625 c 0.608099,-1.059996 1.271768,-1.979593 2.123047,-2.431641 -0.853531,1.529058 -0.398995,2.359267 -0.421875,3.445313 0.366459,-0.918606 0.747269,-1.796849 1.234375,-2.353516 -0.114012,1.144366 -0.02576,2.060488 0.349609,2.654297 0.785547,-0.670397 1.381124,-1.618748 1.25586,-3.625 0.237437,1.04757 0.397581,2.32472 0.74414,3.044922 0.3214,-0.581184 0.330004,-1.800544 0.476563,-2.90625 l 0.109375,3.537109 0.511719,-0.24414 -1.021485,2.361328 -0.964844,0.878906 1.314453,0.138672 c 0.518066,-0.416621 0.7702,-0.939166 0.986329,-1.476562 l -0.292969,1.578124 0.449219,-0.644531 0.11914,0.583985 c 0.151541,-0.271468 0.303918,-0.544579 0.335938,-1.234375 l 0.162109,1.320312 c 0.897309,-1.182051 1.065815,-3.822549 0.765625,-5.996094 C 17.386635,7.931947 16,4 11.5,4 Z"/>
 <path style="fill:#29325f" d="m 9.646484,13.000976 c -0.546172,0.01985 -1.1435547,0.644219 -1.1435547,1.196289 0.1701685,0.237705 0.4057805,0.444708 0.6015627,0.636719 9.5e-4,0.001 0.0019,0.002 0.003,0.003 0.0074,0.0049 0.01395,0.01095 0.02148,0.01563 0.176922,0.141361 0.396586,0.218485 0.623047,0.21875 0.552284,0 1,-0.447715 1,-1 0.0089,-0.267497 -0.09565,-0.534794 -0.172852,-0.745117 C 10.383562,13.096602 9.95065,12.989997 9.64655,13.001052 Z"/>
 <path style="fill:#29325f" d="m 13.529964,14.208891 c 0.175862,0.558241 0.288325,0.685248 0.783804,0.785861 0.469347,0.05007 0.871831,-0.265593 1.137543,-0.631382 0.06968,-0.579268 0.0613,-1.218876 -0.431347,-1.340257 -0.274297,-0.06758 -0.907223,0.01519 -1.113542,0.220143 -0.227577,0.226069 -0.497499,0.581414 -0.376458,0.965635 z"/>
 <path style="fill:#ffffff" d="m 11.286943,16.001299 h 1.446198 c -0.247928,1.083973 -1.486569,0.752508 -1.446198,0 z"/>
 <path style="fill:#a66067" d="m 15.840038,8.6950253 c 0.861053,2.4030227 0.9857,3.4152187 1.082693,4.3750187 0.455315,-2.101181 0.148332,-2.794222 -1.082693,-4.3750187 z M 9.877424,9.280202 c -0.560162,0.722792 -1.2710777,1.068515 -1.7172717,2.076229 l 0.091985,-1.296105 -0.631585,2.99375 -0.192952,-1.149562 -0.4477815,3.144951 -0.3251905,-2.553786 -0.2683029,1.444977 -0.397381,-3.120665 -0.3576265,1.926692 -0.2621485,-1.674191 -1.055913,5.937897 h 0.9995245 l 0.3198675,-0.559727 0.279947,0.559727 h 2.3190829 c -0.268492,-1.290354 -0.987053,-5.382029 0.477556,-6.30384 -0.542869,1.032089 -0.393449,1.797946 -0.1748215,2.537152 0.250223,-1.390113 0.5797802,-2.805302 1.3430112,-3.963499 z m 3.218139,0.845162 c -0.564058,0.299665 -1.293798,1.564257 -1.828718,2.739419 0.02581,0.252241 0.04958,0.505602 0.04392,0.774636 0.366459,-0.918607 0.746124,-1.797514 1.233229,-2.35418 -0.114012,1.144366 -0.0254,2.060777 0.349976,2.654586 0.07429,-0.06341 0.146291,-0.13039 0.216738,-0.199439 -0.26303,-1.199803 -0.467087,-2.443492 -0.01514,-3.615022 z m 1.05425,0.188628 c 0.237437,1.047569 0.398302,2.325112 0.744861,3.045314 0.04832,-0.08737 0.09134,-0.190606 0.130908,-0.304232 -0.0038,-0.743225 -0.173183,-1.622872 -0.875769,-2.741082 z m 1.312305,0.199439 c 0.06638,0.599391 0.04381,1.13719 -0.03876,1.626285 l 0.05722,1.851175 0.512321,-0.245183 -1.171125,2.334878 -0.815514,0.905551 1.313137,0.139724 c 0.518067,-0.416621 0.771586,-0.93902 0.987714,-1.476416 l -0.293087,1.57705 0.449611,-0.644559 0.118765,0.583513 c 0.151541,-0.271468 0.302822,-0.543765 0.334839,-1.233562 l 0.163676,1.319559 c 0.242102,-0.318928 0.432694,-0.745915 0.576693,-1.240548 -0.480675,-1.702942 -1.178874,-3.879452 -2.195493,-5.497467 z"/>
 <path style="fill:url(#linearGradient940)" d="m 9.734375,13.33789 a 0.74999999,0.74999999 0 0 0 -0.7500002,0.75 0.74999999,0.74999999 0 0 0 0.7500002,0.75 0.74999999,0.74999999 0 0 0 0.75,-0.75 0.74999999,0.74999999 0 0 0 -0.75,-0.75 z m 0.0068,0.215821 a 0.54102169,0.54102169 0 0 1 0.541015,0.541015 0.54102169,0.54102169 0 0 1 -0.541015,0.541016 0.54102169,0.54102169 0 0 1 -0.541016,-0.541016 0.54102169,0.54102169 0 0 1 0.541016,-0.541015 z"/>
 <path style="fill:url(#linearGradient944)" d="m 14.47532,13.275013 a 0.74999999,0.74999999 0 0 0 -0.75,0.75 0.74999999,0.74999999 0 0 0 0.75,0.75 0.74999999,0.74999999 0 0 0 0.75,-0.75 0.74999999,0.74999999 0 0 0 -0.75,-0.75 z m 0.0068,0.21582 a 0.54102169,0.54102169 0 0 1 0.541016,0.541016 0.54102169,0.54102169 0 0 1 -0.541016,0.541015 0.54102169,0.54102169 0 0 1 -0.541015,-0.541015 0.54102169,0.54102169 0 0 1 0.541015,-0.541016 z"/>
</svg>
