<svg xmlns="http://www.w3.org/2000/svg" width="22" height="22" version="1.1">
 <path style="opacity:0.2" d="m 16,4.5 v 17 h 1 c 2.216,0 4,-1.784 4,-4 v -9 c 0,-2.216 -1.784,-4 -4,-4 z"/>
 <path style="opacity:0.2" d="M 9.904297,8 9.639649,9.5 H 8.3359375 l -0.1865235,1 h 1.313477 l -0.352539,2 H 7.7753905 l -0.1865235,1 h 1.344727 l -0.3525395,2 H 9.595703 l 0.352539,-2 h 0.742188 0.743164 l -0.352539,2 h 1.014648 l 0.352539,-2 h 1.328125 l 0.186524,-1 H 12.625 l 0.353516,-2 h 1.357422 l 0.186523,-1 H 13.154297 L 13.418946,8 H 12.404297 L 12.139649,9.5 H 11.4375 10.654297 L 10.918946,8 Z m 0.574219,2.5 h 0.772461 0.711914 l -0.352539,2 H 10.876953 10.125 Z"/>
 <path style="opacity:0.2" d="m 5,1.5 c -2.216,0 -4,1.784 -4,4 v 9 c 0,2.216 1.784,4 4,4 h 1 v -17 z"/>
 <path style="fill:#02ace5" d="M 5,1 C 2.784,1 1,2.784 1,5 v 9 c 0,2.216 1.784,4 4,4 H 6 V 1 Z"/>
 <path style="fill:#ff4a3e" d="m 16,4 v 17 h 1 c 2.216,0 4,-1.784 4,-4 V 8 C 21,5.784 19.216,4 17,4 Z"/>
 <path style="fill:#ff4a3e" d="M 12.404297,7.5 12.139649,9 H 11.4375 l -0.186523,1 h 0.711914 l -0.352539,2 h -0.733399 l -0.186523,1 h 0.743164 l -0.352539,2 h 1.014648 l 0.352539,-2 h 1.328125 l 0.186524,-1 H 12.625 l 0.353516,-2 h 1.357422 l 0.186523,-1 h -1.368164 l 0.264649,-1.5 z"/>
 <path style="fill:#02ace5" d="M 9.904297,7.5 9.639649,9 H 8.3359375 L 8.149414,10 H 9.462891 L 9.110352,12 H 7.7753905 L 7.588867,13 H 8.933594 L 8.5810545,15 H 9.595703 l 0.352539,-2 h 0.742188 l 0.186523,-1 H 10.125 l 0.353516,-2 h 0.772461 L 11.4375,9 h -0.783203 l 0.264649,-1.5 z"/>
 <path style="opacity:0.2;fill:#ffffff" d="m 16,4 v 0.5 h 1 c 2.216,0 4,1.784 4,4 V 8 C 21,5.784 19.216,4 17,4 Z"/>
 <path style="opacity:0.2;fill:#ffffff" d="M 5,1 C 2.784,1 1,2.784 1,5 v 0.5 c 0,-2.216 1.784,-4 4,-4 H 6 V 1 Z"/>
 <path style="opacity:0.2;fill:#ffffff" d="M 9.904297,7.5 9.639649,9 H 8.3359375 L 8.149414,10 H 8.242187 L 8.335937,9.5 H 9.639649 L 9.904297,8 h 0.926758 l 0.08789,-0.5 z m 2.5,0 L 12.139649,9 H 11.4375 10.742188 l -0.08789,0.5 H 11.4375 12.139649 L 12.404297,8 h 0.926758 l 0.08789,-0.5 z m 0.837891,1.5 -0.08789,0.5 h 1.275391 L 14.522461,9 Z M 9.375,10.5 9.110352,12 H 7.7753905 L 7.588867,13 H 7.68164 l 0.09375,-0.5 h 1.334962 l 0.352539,-2 z m 2.5,0 -0.264648,1.5 H 10.876953 10.212891 L 10.125,12.5 h 0.751953 0.733399 l 0.352539,-2 z M 12.712891,12 12.625,12.5 h 1.244141 L 13.962891,12 Z M 8.845703,13.5 8.5810545,15 h 0.087891 L 8.933594,13.5 Z m 2.5,0 -0.264648,1.5 h 0.08789 l 0.264648,-1.5 z"/>
</svg>
