<svg xmlns="http://www.w3.org/2000/svg" width="22" height="22" version="1.1" viewBox="0 0 22 22">
 <g transform="translate(0,-1030.3622)">
  <path style="opacity:0.2" d="m 16.108547,1048.0669 c -0.02957,0.03 -0.05461,0.062 -0.07819,0.094 0.03458,0.027 0.06696,0.064 0.107046,0.1181 0.0899,0.121 0.328959,0.3017 0.531034,0.4012 0.536005,0.2639 1.409259,1.2549 1.656572,1.8803 l 0.188532,0.4758 0.396358,0.077 c 0.527225,0.1021 0.699486,0.2055 0.876987,0.5262 0.183681,0.3319 0.757741,0.2204 1.108299,0.1167 0.103561,-0.351 0.214746,-0.9257 -0.116709,-1.1097 -0.320231,-0.1777 -0.423672,-0.3497 -0.525505,-0.8777 l -0.07595,-0.3977 -0.475759,-0.1885 c -0.624512,-0.2477 -1.614708,-1.1219 -1.878266,-1.6587 -0.09937,-0.2023 -0.279685,-0.4417 -0.400524,-0.5317 -0.05888,-0.044 -0.09647,-0.08 -0.122223,-0.1181 l -1.191861,1.1919 z"/>
  <path d="m 1,1031.8618 0.190416,3.9481 9.828575,9.8425 1.877396,-1.8775 1.877405,-1.8773 -9.8285754,-9.8425 -3.9425639,-0.1907 z" style="opacity:0.2"/>
  <path style="fill:#8e8e8e" d="m 1,1031.3619 0.190416,3.9481 9.828575,9.8425 1.877396,-1.8775 1.877405,-1.8773 -9.8285754,-9.8425 -3.9425639,-0.1907 z"/>
  <path style="opacity:0.2;fill:#ffffff" d="m 1.0000007,1031.362 0.024414,0.5039 3.9208969,0.1895 9.5781214,9.5927 0.25,-0.25 -9.8281214,-9.8427 -3.9423812,-0.1905 -0.00293,0 z"/>
  <path d="m 1,1031.3619 c 0,0 11.767754,11.7678 11.896384,11.9131 l 1.877405,-1.8773 -9.8285754,-9.8425 -3.9425931,-0.1907 z" style="opacity:0.3;fill:#ffffff"/>
  <path d="m 16.108547,1047.567 c -0.02957,0.03 -0.05461,0.062 -0.07819,0.095 0.03458,0.026 0.06696,0.064 0.107046,0.1181 0.0899,0.121 0.328959,0.3017 0.531034,0.4012 0.536005,0.2639 1.409259,1.2549 1.656572,1.8803 l 0.188532,0.4758 0.396358,0.077 c 0.527225,0.1021 0.699486,0.2055 0.876987,0.5262 0.183681,0.3319 0.757741,0.2204 1.108299,0.1167 0.103561,-0.351 0.214746,-0.9257 -0.116709,-1.1097 -0.320231,-0.1777 -0.423672,-0.3497 -0.525505,-0.8777 l -0.07595,-0.3977 -0.475759,-0.1885 c -0.624512,-0.2477 -1.614708,-1.1219 -1.878266,-1.6587 -0.09937,-0.2023 -0.279685,-0.4417 -0.400524,-0.5317 -0.05888,-0.044 -0.09647,-0.08 -0.122223,-0.1181 l -1.191861,1.1919 z" style="fill:#bc7538"/>
  <path d="m 16.067378,1035.9029 c -0.181918,-0.023 -0.533499,0.3156 -0.766602,0.9873 -0.316399,0.9114 -0.358846,1.1385 -0.209961,1.9186 0.174701,0.9154 0.362338,1.1449 -0.17871,1.0859 -0.497954,-0.054 -0.600446,0.01 -0.236329,0.1455 0.165238,0.062 0.30772,0.2028 0.529297,0.5254 0.238521,0.3472 0.304169,0.3426 0.308594,0.7148 0.0031,0.2603 -0.03224,0.5471 -0.0791,0.6377 -0.106308,0.2054 -0.413569,0.1718 -0.657226,-0.072 l -0.175781,-0.1758 -0.363282,0.4394 c -0.47313,0.5715 -0.837393,0.7491 -1.537108,0.7491 -0.307562,-10e-5 -0.58867,0.03 -0.625,0.066 -0.03635,0.036 -0.0664,0.318 -0.06641,0.6259 7e-6,0.7007 -0.177451,1.0653 -0.748046,1.5391 l -0.438477,0.3643 0.175781,0.1757 c 0.243657,0.244 0.277436,0.5509 0.07227,0.6573 -0.09075,0.047 -0.177634,0.083 -0.4375,0.08 -0.371739,0 -0.566359,-0.071 -0.9130859,-0.3096 -0.322054,-0.2219 -0.463589,-0.3638 -0.52539,-0.5293 -0.136151,-0.3647 -0.1987471,-0.2623 -0.144532,0.2363 0.05892,0.5419 -0.170828,0.3536 -1.0849597,0.1787 -0.7789166,-0.1491 -1.0045374,-0.1058 -1.914771,0.211 -0.4790643,0.1667 -0.7886452,0.5157 -0.9179686,0.6396 -0.075998,0.076 -0.090782,0.1397 -0.03613,0.1943 0.04565,0.045 0.3852883,0.1584 0.7548822,0.25 0.6658902,0.1651 0.6533795,0.2515 0.5544201,0.3506 -0.02815,0.028 -0.3045879,0.1618 -0.6132808,0.2969 -0.3087204,0.135 -0.6984363,0.2835 -0.7439722,0.3291 -0.2344979,0.2349 0.7739277,0.4756 1.6765888,0.418 0.2958989,-0.019 0.5579518,-0.014 0.5830078,0.012 0.065233,0.065 -0.4392728,0.3551 -0.8946391,0.6055 -0.5458158,0.3004 -0.5346728,0.4777 0.038085,0.5947 0.6497307,0.1324 1.1181765,0.01 1.7129978,-0.4111 0.8922017,-0.6226 0.8071108,-0.3118 0.2173189,0.6045 -0.3210889,0.4988 -0.3920323,0.6851 -0.3867184,1.0273 0.0036,0.2301 0.035005,0.4189 0.069336,0.4189 0.163977,0 1.9440381,-1.2826 2.2680311,-1.6787 0.452708,-0.5534 0.578174,-0.4741 0.384766,0.2442 -0.07588,0.2816 -0.116217,0.7332 -0.08984,1.0029 l 0.04785,0.4893 0.384766,-0.3848 c 0.478862,-0.4795 0.855689,-1.0563 1.095702,-1.6758 0.101683,-0.2623 0.222974,-0.468 0.269531,-0.457 0.04635,0.011 0.155111,0.1979 0.241211,0.415 0.08616,0.2173 0.272306,0.5495 0.414062,0.7383 0.237028,0.3156 0.268912,0.3327 0.390625,0.2109 0.217734,-0.218 0.363014,-0.6677 0.472656,-1.4629 l 0.103516,-0.7519 0.429687,0.1553 c 0.371835,0.1341 0.500419,0.1263 0.96289,-0.058 0.373629,-0.1486 0.491352,-0.1854 0.589844,-0.1114 0.02346,-0.033 0.04874,-0.064 0.07813,-0.094 l 1.191406,-1.1924 c 2.08e-4,3e-4 7.5e-4,6e-4 10e-4,10e-4 -0.06633,-0.097 -0.03023,-0.2166 0.114258,-0.5811 0.183655,-0.4631 0.191626,-0.5926 0.05762,-0.9648 l -0.155273,-0.4297 0.750976,-0.1035 c 0.794069,-0.1099 1.24319,-0.2555 1.460937,-0.4736 0.121712,-0.1218 0.10408,-0.1534 -0.210938,-0.3907 -0.188486,-0.1419 -0.519441,-0.3289 -0.736328,-0.415 -0.21696,-0.086 -0.404058,-0.1946 -0.415039,-0.2412 -0.01083,-0.046 0.195225,-0.1685 0.457032,-0.2705 0.618627,-0.2404 1.194061,-0.6181 1.67285,-1.0977 l 0.384766,-0.3847 -0.489258,-0.048 c -0.269151,-0.026 -0.719703,0.014 -1.000976,0.09 -0.717173,0.1936 -0.796766,0.068 -0.244141,-0.3857 0.395516,-0.3243 2.07589,-2.1072 2.075872,-2.2716 -1.13e-4,-0.035 -0.188226,-0.065 -0.417969,-0.068 -0.341696,-0.01 -0.528244,0.064 -1.026366,0.3857 -0.914928,0.5906 -1.425048,0.6778 -0.803411,-0.2157 0.414465,-0.5957 0.543387,-1.0665 0.411132,-1.7172 -0.116528,-0.5734 -0.293792,-0.5849 -0.593749,-0.038 -0.250226,0.4558 -0.740451,0.9622 -0.805664,0.8969 -0.02517,-0.025 -0.02958,-0.2877 -0.01074,-0.584 0.05747,-0.904 -0.183481,-1.9128 -0.417968,-1.6779 -0.04557,0.045 -0.193259,0.4352 -0.328125,0.7443 -0.134853,0.3092 -0.267721,0.585 -0.295899,0.6133 -0.09896,0.099 -0.186729,0.1116 -0.351562,-0.5553 -0.09152,-0.3702 -0.203366,-0.7102 -0.249023,-0.7559 -0.01822,-0.018 -0.04042,-0.029 -0.06641,-0.032 z m 4.109373,13.4684 0.07617,0.3984 c 0.02546,0.132 0.05106,0.2408 0.08008,0.334 -0.02896,-0.093 -0.05365,-0.202 -0.0791,-0.334 z m -1.663085,1.665 0,0 0.333007,0.063 z m 2.486327,0.1025 c 7e-4,0.2106 -0.05271,0.4427 -0.104492,0.6182 0.05178,-0.1755 0.105224,-0.4076 0.104492,-0.6182 z" style="opacity:0.2"/>
  <path style="fill:#f4955b" d="m 16.067378,1035.4034 c -0.181918,-0.023 -0.533499,0.3156 -0.766602,0.9873 -0.316399,0.9114 -0.358846,1.1385 -0.209961,1.9186 0.174701,0.9154 0.362338,1.1449 -0.17871,1.0859 -0.497954,-0.054 -0.600446,0.01 -0.236329,0.1455 0.165238,0.062 0.30772,0.2028 0.529297,0.5254 0.238521,0.3472 0.304169,0.3426 0.308594,0.7148 0.0031,0.2603 -0.03224,0.5471 -0.0791,0.6377 -0.106308,0.2054 -0.413569,0.1718 -0.657226,-0.072 l -0.175781,-0.1758 -0.363282,0.4394 c -0.47313,0.5715 -0.837393,0.7491 -1.537108,0.7491 -0.307562,-10e-5 -0.58867,0.03 -0.625,0.066 -0.03635,0.036 -0.0664,0.318 -0.06641,0.6259 7e-6,0.7007 -0.177451,1.0653 -0.748046,1.5391 l -0.438477,0.3643 0.175781,0.1757 c 0.243657,0.244 0.277436,0.5509 0.07227,0.6573 -0.09075,0.047 -0.177634,0.083 -0.4375,0.08 -0.371739,0 -0.566359,-0.071 -0.9130859,-0.3096 -0.322054,-0.2219 -0.463589,-0.3638 -0.52539,-0.5293 -0.136151,-0.3647 -0.1987471,-0.2623 -0.144532,0.2363 0.05892,0.5419 -0.170828,0.3536 -1.0849597,0.1787 -0.7789166,-0.1491 -1.0045374,-0.1058 -1.914771,0.211 -0.4790643,0.1667 -0.7886452,0.5157 -0.9179686,0.6396 -0.075998,0.076 -0.090782,0.1397 -0.03613,0.1943 0.04565,0.045 0.3852883,0.1584 0.7548822,0.25 0.6658902,0.1651 0.6533795,0.2515 0.5544201,0.3506 -0.02815,0.028 -0.3045879,0.1618 -0.6132808,0.2969 -0.3087204,0.135 -0.6984363,0.2835 -0.7439722,0.3291 -0.2344979,0.2349 0.7739277,0.4756 1.6765888,0.418 0.2958989,-0.019 0.5579518,-0.014 0.5830078,0.012 0.065233,0.065 -0.4392728,0.3551 -0.8946391,0.6055 -0.5458158,0.3004 -0.5346728,0.4777 0.038085,0.5947 0.6497307,0.1324 1.1181765,0.01 1.7129978,-0.4111 0.8922017,-0.6226 0.8071108,-0.3118 0.2173189,0.6045 -0.3210889,0.4988 -0.3920323,0.6851 -0.3867184,1.0273 0.0036,0.2301 0.035005,0.4189 0.069336,0.4189 0.163977,0 1.9440381,-1.2826 2.2680311,-1.6787 0.452708,-0.5534 0.578174,-0.4741 0.384766,0.2442 -0.07588,0.2816 -0.116217,0.7332 -0.08984,1.0029 l 0.04785,0.4893 0.384766,-0.3848 c 0.478862,-0.4795 0.855689,-1.0563 1.095702,-1.6758 0.101683,-0.2623 0.222974,-0.468 0.269531,-0.457 0.04635,0.011 0.155111,0.1979 0.241211,0.415 0.08616,0.2173 0.272306,0.5495 0.414062,0.7383 0.237028,0.3156 0.268912,0.3327 0.390625,0.2109 0.217734,-0.218 0.363014,-0.6677 0.472656,-1.4629 l 0.103516,-0.7519 0.429687,0.1553 c 0.371835,0.1341 0.500419,0.1263 0.96289,-0.058 0.373629,-0.1486 0.491352,-0.1854 0.589844,-0.1114 0.02346,-0.033 0.04874,-0.064 0.07813,-0.094 l 1.191406,-1.1924 c 2.08e-4,3e-4 7.5e-4,6e-4 10e-4,10e-4 -0.06633,-0.097 -0.03023,-0.2166 0.114258,-0.5811 0.183655,-0.4631 0.191626,-0.5926 0.05762,-0.9648 l -0.155273,-0.4297 0.750976,-0.1035 c 0.794069,-0.1099 1.24319,-0.2555 1.460937,-0.4736 0.121712,-0.1218 0.10408,-0.1534 -0.210938,-0.3907 -0.188486,-0.1419 -0.519441,-0.3289 -0.736328,-0.415 -0.21696,-0.086 -0.404058,-0.1946 -0.415039,-0.2412 -0.01083,-0.046 0.195225,-0.1685 0.457032,-0.2705 0.618627,-0.2404 1.194061,-0.6181 1.67285,-1.0977 l 0.384766,-0.3847 -0.489258,-0.048 c -0.269151,-0.026 -0.719703,0.014 -1.000976,0.09 -0.717173,0.1936 -0.796766,0.068 -0.244141,-0.3857 0.395516,-0.3243 2.07589,-2.1072 2.075872,-2.2716 -1.13e-4,-0.035 -0.188226,-0.065 -0.417969,-0.068 -0.341696,-0.01 -0.528244,0.064 -1.026366,0.3857 -0.914928,0.5906 -1.425048,0.6778 -0.803411,-0.2157 0.414465,-0.5957 0.543387,-1.0665 0.411132,-1.7172 -0.116528,-0.5734 -0.293792,-0.5849 -0.593749,-0.038 -0.250226,0.4558 -0.740451,0.9622 -0.805664,0.8969 -0.02517,-0.025 -0.02958,-0.2877 -0.01074,-0.584 0.05747,-0.904 -0.183481,-1.9128 -0.417968,-1.6779 -0.04557,0.045 -0.193259,0.4352 -0.328125,0.7443 -0.134853,0.3092 -0.267721,0.585 -0.295899,0.6133 -0.09896,0.099 -0.186729,0.1116 -0.351562,-0.5553 -0.09152,-0.3702 -0.203366,-0.7102 -0.249023,-0.7559 -0.01822,-0.018 -0.04042,-0.029 -0.06641,-0.032 z m 4.109373,13.4684 0.07617,0.3984 c 0.02546,0.132 0.05106,0.2408 0.08008,0.334 -0.02896,-0.093 -0.05365,-0.202 -0.0791,-0.334 z m -1.663085,1.665 0,10e-4 0.333007,0.063 z m 2.486327,0.1025 c 7e-4,0.2106 -0.05271,0.4427 -0.104492,0.6182 0.05178,-0.1755 0.105224,-0.4076 0.104492,-0.6182 z"/>
  <path style="opacity:0.2;fill:#ffffff" d="m 17.445312,1035.3561 c -0.02892,-0.01 -0.05663,0 -0.08594,0.033 -0.04557,0.045 -0.193259,0.4351 -0.328125,0.7442 -0.134853,0.3092 -0.268697,0.585 -0.296875,0.6133 -0.09896,0.099 -0.186729,0.1122 -0.351563,-0.5547 -0.09152,-0.3702 -0.202389,-0.7102 -0.248046,-0.7559 -0.01822,-0.018 -0.04042,-0.03 -0.06641,-0.033 l -0.002,0 c -0.181918,-0.023 -0.532522,0.3166 -0.765625,0.9883 -0.248105,0.7147 -0.324352,1.0166 -0.27539,1.4863 0.03357,-0.2625 0.121086,-0.5438 0.27539,-0.9883 0.233103,-0.6717 0.583707,-1.0093 0.765625,-0.9863 l 0.002,0 c 0.02599,0 0.04819,0.013 0.06641,0.031 0.04566,0.046 0.156527,0.3856 0.248046,0.7558 0.164834,0.6669 0.252603,0.6557 0.351563,0.5567 0.02818,-0.028 0.162022,-0.3041 0.296875,-0.6133 0.134866,-0.3091 0.282555,-0.6992 0.328125,-0.7442 0.234487,-0.2349 0.475439,0.7738 0.417969,1.6778 -0.01884,0.2963 -0.0154,0.559 0.0098,0.584 0.06521,0.065 0.556415,-0.4427 0.806641,-0.8985 0.299957,-0.5469 0.477222,-0.5343 0.59375,0.039 0.01394,0.069 0.01338,0.1284 0.02148,0.1933 0.02916,-0.2168 0.03002,-0.4399 -0.02148,-0.6933 -0.116528,-0.5734 -0.293793,-0.584 -0.59375,-0.037 -0.250226,0.4558 -0.741428,0.9618 -0.806641,0.8965 -0.02517,-0.025 -0.02861,-0.2877 -0.0098,-0.584 0.05029,-0.791 -0.12961,-1.6629 -0.332032,-1.711 z m 3.160157,2.9825 c -0.341696,-0.01 -0.529222,0.065 -1.027344,0.3867 -0.397246,0.2564 -0.691832,0.3923 -0.876953,0.4199 -0.435759,0.7072 0.02545,0.6297 0.876953,0.08 0.498122,-0.3217 0.685648,-0.3967 1.027344,-0.3867 0.0373,4e-4 0.06122,0.01 0.0957,0.01 0.188377,-0.2217 0.32227,-0.3948 0.322266,-0.4395 -1.13e-4,-0.035 -0.188226,-0.065 -0.417969,-0.068 z m -5.404297,1.0332 c -0.05473,0.033 -0.144933,0.039 -0.289063,0.023 -0.497954,-0.054 -0.600445,0.01 -0.236328,0.1445 0.124423,0.047 0.24657,0.1677 0.388672,0.3477 0.198298,-0.015 0.198644,-0.2222 0.136719,-0.5156 z m 4.992187,1.6035 c -0.269151,-0.026 -0.72068,0.014 -1.001953,0.09 -0.0704,0.019 -0.105947,0.02 -0.164062,0.033 -0.0161,0.014 -0.06678,0.069 -0.08008,0.08 -0.552625,0.4537 -0.473033,0.5784 0.24414,0.3848 0.281273,-0.076 0.732802,-0.1159 1.001953,-0.09 l 0.02734,0 c 0.02462,-0.024 0.05203,-0.044 0.07617,-0.068 l 0.384766,-0.3848 -0.488282,-0.047 z m -4.701171,0.1875 c -0.01431,0.1155 -0.03516,0.2105 -0.05859,0.2558 -0.106308,0.2054 -0.412593,0.1716 -0.65625,-0.072 l -0.175782,-0.1758 -0.363281,0.4394 c -0.47313,0.5715 -0.837394,0.75 -1.537109,0.75 -0.307562,-10e-5 -0.58867,0.028 -0.625,0.064 -0.03635,0.036 -0.0664,0.319 -0.06641,0.6269 7e-6,0.7007 -0.177452,1.0653 -0.748047,1.5391 l -0.439453,0.3633 0.175781,0.1758 c 0.03502,0.035 0.05772,0.072 0.08398,0.1093 l 0.179688,-0.1484 c 0.570595,-0.4738 0.748054,-0.8384 0.748047,-1.5391 10e-6,-0.3079 0.03006,-0.5909 0.06641,-0.6269 0.03633,-0.036 0.317438,-0.067 0.625,-0.066 0.699715,0 1.063979,-0.1766 1.537109,-0.7481 l 0.363281,-0.4394 0.175782,0.1758 c 0.243657,0.2438 0.549942,0.2776 0.65625,0.072 0.04686,-0.091 0.08318,-0.3783 0.08008,-0.6386 -7.07e-4,-0.059 -0.0172,-0.074 -0.02148,-0.1172 z m 3.097656,1.8574 c -0.24213,0.098 -0.432138,0.2103 -0.421875,0.2539 0.01098,0.047 0.197102,0.1562 0.414062,0.2422 0.216887,0.086 0.547842,0.2722 0.736328,0.4141 0.01628,0.012 0.01263,0.014 0.02734,0.025 0.07152,-0.041 0.135685,-0.085 0.183594,-0.1328 0.121712,-0.1218 0.10408,-0.1533 -0.210938,-0.3906 -0.186541,-0.1404 -0.511564,-0.3248 -0.728515,-0.4121 z m -9.5390629,1.8027 c -0.02589,0.042 -0.02711,0.1921 0,0.4414 0.05892,0.5419 -0.1718055,0.3546 -1.0859372,0.1797 -0.7789167,-0.1491 -1.003829,-0.1058 -1.9140626,0.211 -0.4790643,0.1667 -0.7886453,0.5147 -0.9179687,0.6386 -0.075998,0.076 -0.089808,0.1408 -0.035156,0.1954 0.016329,0.016 0.1900562,0.06 0.2695313,0.09 0.1650556,-0.1498 0.3751163,-0.3165 0.6835937,-0.4238 0.9102336,-0.3168 1.1351459,-0.3601 1.9140626,-0.211 0.9141317,0.1749 1.1448569,0.3622 1.0859369,-0.1797 -0.054215,-0.4986 0.0084,-0.601 0.144531,-0.2363 0.0618,0.1655 0.203337,0.3074 0.525391,0.5293 0.3467269,0.2386 0.5403709,0.3106 0.9121089,0.3106 0.259867,0 0.346751,-0.033 0.4375,-0.08 0.169997,-0.088 0.168906,-0.3137 0.02734,-0.5274 -0.01072,0.01 -0.01486,0.021 -0.02734,0.027 -0.09075,0.047 -0.177633,0.083 -0.4375,0.08 -0.371738,0 -0.565382,-0.072 -0.9121089,-0.3106 -0.322054,-0.2219 -0.46359,-0.3638 -0.525391,-0.5293 -0.06808,-0.1823 -0.11864,-0.2474 -0.144531,-0.2051 z m 8.4355469,0.053 -0.167969,0.023 0.154297,0.4297 c 0.01757,0.049 0.02645,0.085 0.03906,0.1269 0.04505,-0.1912 0.04967,-0.3615 -0.02539,-0.58 z m -11.4824217,2.4082 c -0.089687,0.042 -0.1048709,0.055 -0.2109374,0.1015 -0.3087205,0.135 -0.6986048,0.2845 -0.7441407,0.3301 -0.116984,0.1172 0.075929,0.2361 0.4101563,0.3184 7.568e-4,2e-4 0.00119,-2e-4 0.00195,0 0.1323454,-0.055 0.1941038,-0.088 0.3320313,-0.1485 0.3086929,-0.1351 0.5851312,-0.2688 0.6132812,-0.2968 0.089043,-0.089 0.079836,-0.1695 -0.4023438,-0.3047 z m 0.6132813,1.3476 c -0.072165,0.041 -0.130965,0.08 -0.203125,0.1192 -0.4939669,0.2718 -0.5077615,0.4398 -0.085937,0.5566 0.032851,-0.02 0.047585,-0.035 0.085937,-0.057 0.4553663,-0.2504 0.9597642,-0.5405 0.8945313,-0.6055 -0.025056,-0.026 -0.2861324,-0.031 -0.5820313,-0.012 -0.036526,0 -0.072591,0 -0.109375,0 z m 13.5585934,0.2403 0.07617,0.3984 c 0.02546,0.132 0.05106,0.2408 0.08008,0.334 -0.02896,-0.093 -0.05268,-0.202 -0.07813,-0.334 l -0.07813,-0.3984 z m -11.3945309,0.2382 c -0.034491,0 -0.1041832,0.026 -0.1777344,0.061 -0.067037,0.1152 -0.1251822,0.2207 -0.2207031,0.3691 -0.3210889,0.4988 -0.3920327,0.6832 -0.3867187,1.0254 0.00203,0.1297 0.014053,0.2355 0.029297,0.3125 0.026595,-0.2364 0.1024975,-0.4438 0.3574219,-0.8398 0.3686199,-0.5727 0.539494,-0.9082 0.3984375,-0.9277 z m 1.9863279,0.3418 c -0.0064,0 -0.02326,0.013 -0.03125,0.012 -0.0084,0.034 -0.0075,0.05 -0.01758,0.088 -0.07588,0.2816 -0.116221,0.7322 -0.08984,1.0019 l 0.0059,0.055 c 0.01495,-0.2002 0.04203,-0.4029 0.08398,-0.5586 0.0967,-0.3591 0.112607,-0.5572 0.04883,-0.5977 z m 7.746094,1.084 0,0 0.332031,0.062 -0.332031,-0.064 z m 0,0.5 0.332031,0.062 -0.332031,-0.062 z"/>
  <path style="fill:#f12a2a" d="m 12.099812,1042.4705 c 0.159134,0.3057 0.233582,0.6072 0.382826,1.5506 0.09102,0.5754 0.16194,0.8268 0.284455,1.0082 0.148766,0.2204 0.379011,0.3421 0.628464,0.3321 0.167731,-0.01 0.292852,-0.063 0.416932,-0.1867 0.204562,-0.2044 0.250074,-0.4901 0.128908,-0.8092 -0.03469,-0.091 -0.05215,-0.1653 -0.0388,-0.1644 0.01335,0 0.06601,0.021 0.117029,0.044 0.221113,0.1019 0.496585,0.1058 0.68373,0.01 0.126888,-0.065 0.280511,-0.2552 0.320642,-0.3969 0.111707,-0.3943 -0.142352,-0.7584 -0.650855,-0.9328 -0.199842,-0.069 -0.352282,-0.099 -0.822485,-0.1645 -0.657314,-0.091 -1.112855,-0.206 -1.391712,-0.3497 -0.05736,-0.029 -0.106307,-0.052 -0.108764,-0.049 -0.0024,0 0.01988,0.051 0.04963,0.1083 z"/>
 </g>
</svg>
