<?xml version="1.0" encoding="UTF-8" standalone="no"?>
<svg xmlns="http://www.w3.org/2000/svg" width="22" version="1.1" height="22" viewBox="0 0 22 22">
 <g transform="translate(0 -1030.4)">
  <g transform="translate(-1 1)">
   <circle opacity=".2" cy="1040.9" cx="12" r="10"/>
   <circle cy="1040.4" cx="12" r="10" fill="#5d5d5d"/>
   <path opacity=".2" style="enable-background:new" d="m9 1035.9v1h1.5v1h-2.5v2.5h-1v-1.5h-1v4h1v-1.5h1v1.5l2 2h4.5l1-1 1 0.01v0.4922h1l0.5-0.5v-4l-0.5-0.5h-1v0.5h-0.375l-2-2h-2.625v-1h1.5v-1zm0 3h4.5l2 2h1.5v2h-2l-1 1h-3.375l-1.625-1.625z"/>
   <path style="enable-background:new" fill="#ffa92c" d="m9 1035.4v1h1.5v1h-2.5v2.5h-1v-1.5h-1v4h1v-1.5h1v1.5l2 2h4.5l1-1 1 0.01v0.4922h1l0.5-0.5v-4l-0.5-0.5h-1v0.5h-0.375l-2-2h-2.625v-1h1.5v-1zm0 3h4.5l2 2h1.5v2h-2l-1 1h-3.375l-1.625-1.625z"/>
   <path opacity=".1" fill="#fff" d="m12 1030.4a10 10 0 0 0 -10 10 10 10 0 0 0 0.010742 0.291 10 10 0 0 1 9.9893 -9.791 10 10 0 0 1 9.9893 9.709 10 10 0 0 0 0.01074 -0.209 10 10 0 0 0 -10 -10z"/>
  </g>
 </g>
</svg>
