<svg xmlns="http://www.w3.org/2000/svg" width="22" height="22" version="1">
 <rect fill="#86316b" width="20" height="20" x="-21" y="-21" rx="10" ry="10" transform="matrix(0,-1,-1,0,0,0)"/>
 <g opacity=".2" transform="translate(-1 -.5)">
  <path fill-rule="evenodd" d="m15.127 6.6934-5.2872 1.7636a1 1 0 0 0 -0.8398 -0.457 1 1 0 0 0 -1 1 1 1 0 0 0 0.457 0.8398l-1.7422 5.2285 3.2031 3.2031 5.3516-1.0547 2-6.2383-2.1426-4.2852zm-0.576 0.7207-2.588 6.0369-2.2501-3.7498a1 1 0 0 0 0.2871 -0.7012 1 1 0 0 0 -0.002 -0.0684l4.553-1.5175zm0.4668 0.18164 1.6543 3.3086-4.1367 2.4824 2.4824-5.791zm-5.7368 2.3633 2.3208 3.865-4.229 0.846 1.5586-4.6739a1 1 0 0 0 0.0684 0.0039 1 1 0 0 0 0.2812 -0.041zm7.2773 1.5977-1.6133 5.0332-2.541-2.541 4.1543-2.4922zm-5.0117 2.7891-1.6152 3.2324-2.4238-2.4238 4.0391-0.80859zm0.51953 0.07617 2.4355 2.4355-4.0508 0.79883 1.6152-3.2344z"/>
  <g>
   <circle cx="15" cy="7" r="1"/>
   <circle cx="17" cy="11" r="1"/>
   <circle cx="15" cy="17" r="1"/>
   <circle cx="10" cy="18" r="1"/>
   <circle cx="7" cy="15" r="1"/>
   <circle cx="12" cy="14" r="1"/>
  </g>
 </g>
 <path fill="#fff" opacity=".2" d="m11 1c-5.54 0-10 4.46-10 10 0 0.084 0.004 0.166 0.0058 0.25 0.1324-5.423 4.5382-9.75 9.9942-9.75 5.4558 0 9.862 4.327 9.994 9.75 0.002-0.08343 0.0059-0.16606 0.0059-0.25 0-5.54-4.46-10-10-10z"/>
 <path opacity=".2" d="m1.0058 11.25c-0.002 0.084-0.0058 0.166-0.0058 0.25 0 5.54 4.46 10 10 10s10-4.46 10-10c0-0.084-0.004-0.1665-0.006-0.25-0.132 5.423-4.538 9.75-9.994 9.75s-9.862-4.327-9.994-9.75z"/>
 <g transform="translate(-1,-1)">
  <path fill="none" stroke="#fff" stroke-width=".5" d="m9 9 6-2 2 4-1.924 6l-5.076 1-3-3z"/>
  <path fill="none" stroke="#fff" stroke-width=".5" d="m12 14 3-7"/>
  <path fill="none" stroke="#fff" stroke-width=".5" d="m12 14-3-5"/>
  <path fill="none" stroke="#fff" stroke-width=".5" d="m12 14-5 1"/>
  <path fill="none" stroke="#fff" stroke-width=".5" d="m12 14 3 3"/>
  <path fill="none" stroke="#fff" stroke-width=".5" d="m12 14-2 4"/>
  <path fill="none" stroke="#fff" stroke-width=".5" d="m12 14 5-3"/>
  <circle fill="#fff" cx="15" cy="7" r="1"/>
  <circle fill="#fff" cx="17" cy="11" r="1"/>
  <circle fill="#fff" cx="15" cy="17" r="1"/>
  <circle fill="#fff" cx="10" cy="18" r="1"/>
  <circle fill="#fff" cx="7" cy="15" r="1"/>
  <circle fill="#fff" cx="9" cy="9" r="1"/>
  <circle fill="#fff" cx="12" cy="14" r="1"/>
 </g>
</svg>
