<svg xmlns="http://www.w3.org/2000/svg" width="22" height="22" version="1.1">
 <path style="opacity:0.2" d="m 17.37221,6.8267233 1.171796,-1.5699056 c 0.07384,-0.084267 0.05964,-0.214256 -0.03062,-0.2803403 L 17.43066,3.8831503 C 17.35671,3.8080492 17.240714,3.7951979 17.152324,3.8523129 L 15.607556,5.0717928 15.050883,4.7073505 15.565806,2.8122504 C 15.591437,2.7115275 15.539077,2.607252 15.443338,2.5683543 L 14.009904,1.9572125 c -0.102877,-0.035639 -0.216724,0.0022 -0.278336,0.092512 l -0.91016,1.7100758 C 12.612096,3.7036042 12.399101,3.6623849 12.184017,3.6364509 L 11.941865,1.6740688 C 11.926473,1.5721503 11.838217,1.4976735 11.735896,1.5002578 h -1.541985 c -0.0997,0.014138 -0.182207,0.085216 -0.2115347,0.1822212 l -0.242153,1.9623821 c -0.214319,0.030838 -0.425855,0.092512 -0.637391,0.1233497 L 8.1592717,2.0609384 C 8.0976599,1.9706274 7.9838132,1.9327874 7.8809354,1.9684261 L 6.4335855,2.5683543 C 6.3378461,2.6072519 6.2854857,2.7115275 6.3111174,2.8122504 L 6.82604,4.7073505 6.2693673,5.0717928 4.7357329,3.8831503 c -0.083473,-0.07316 -0.2109006,-0.060326 -0.2783368,0.028034 l -1.085512,1.101737 c -0.072607,0.075423 -0.08521,0.1908248 -0.030617,0.2803403 L 4.5548145,6.8491505 4.1901931,7.4098311 2.311422,6.8743812 C 2.212292,6.8494612 2.1098216,6.9004762 2.0692692,6.9949273 L 1.4624957,8.4611071 c -0.035384,0.1036188 0.00219,0.218285 0.091851,0.2803403 L 3.2521993,9.7198352 C 3.1964043,9.9306532 3.1554803,10.145181 3.1297314,10.361814 L 1.1813759,10.60571 C 1.074657,10.61744 0.99541194,10.710763 1.0004572,10.818769 v 1.555889 c 0.017275,0.09953 0.086395,0.182006 0.1809187,0.215862 l 1.9483555,0.243896 c 0.030617,0.213058 0.091851,0.426117 0.122468,0.639176 l -1.6867191,0.97278 c -0.089666,0.06206 -0.1272349,0.176722 -0.091851,0.280341 l 0.6067736,1.466179 c 0.040552,0.09445 0.1430225,0.145464 0.2421527,0.120547 l 1.8676376,-0.515827 0.3646214,0.560681 -1.1829304,1.539068 c -0.07201,0.08484 -0.057982,0.213293 0.030617,0.280341 l 0.8100471,0.832291 0.4411759,0.208351 c 0.086091,0.07121 0.1630987,0.127945 0.2742694,0.13512 l 3.5040479,-0.138503 c 0.8073598,0.271505 1.6538925,0.406031 2.5050285,0.398083 4.37445,0.0016 7.921457,-3.569739 7.921457,-7.975681 0.04035,-1.7241288 -0.481764,-3.4140152 -1.486317,-4.8106397 z"/>
 <path style="fill:#297b3b" d="m 17.37221,6.3267475 1.171796,-1.5699056 c 0.07384,-0.084267 0.05964,-0.214256 -0.03062,-0.2803403 L 17.43066,3.3831744 C 17.35671,3.3080733 17.240714,3.2952219 17.152324,3.3523369 L 15.607556,4.5718171 15.050883,4.2073747 15.565806,2.3122744 C 15.591437,2.2115516 15.539077,2.107276 15.443338,2.0683783 L 14.009904,1.4572365 c -0.102877,-0.035639 -0.216724,0.0022 -0.278336,0.092512 l -0.91016,1.7100758 C 12.612096,3.2036283 12.399101,3.1624089 12.184017,3.1364749 L 11.941865,1.1740928 C 11.926473,1.0721743 11.838217,0.99769747 11.735896,1.0002818 h -1.541985 c -0.0997,0.014138 -0.182207,0.085216 -0.2115347,0.1822212 l -0.242153,1.9623821 c -0.214319,0.030837 -0.425855,0.092512 -0.637391,0.1233497 L 8.1592717,1.5609624 C 8.0976599,1.4706514 7.9838132,1.4328115 7.8809354,1.4684501 L 6.4335855,2.0683783 C 6.3378461,2.107276 6.2854857,2.2115516 6.3111174,2.3122744 L 6.82604,4.2073747 6.2693673,4.5718171 4.7357329,3.3831744 c -0.083473,-0.07316 -0.2109006,-0.060326 -0.2783368,0.028034 l -1.085512,1.1017372 c -0.072607,0.075423 -0.08521,0.1908248 -0.030617,0.2803403 L 4.5548145,6.3491747 4.1901931,6.9098553 2.311422,6.3744054 C 2.212292,6.3494854 2.1098216,6.4005004 2.0692692,6.4949516 L 1.4624957,7.9611313 c -0.035384,0.1036188 0.00219,0.218285 0.091851,0.2803403 l 1.6978526,0.9783876 c -0.055795,0.210818 -0.096719,0.425346 -0.1224679,0.641979 L 1.1813759,10.105735 c -0.1067189,0.01173 -0.18596396,0.105052 -0.1809187,0.213058 v 1.555889 c 0.017275,0.09953 0.086395,0.182006 0.1809187,0.215862 l 1.9483555,0.243896 c 0.030617,0.213059 0.091851,0.426117 0.122468,0.639176 l -1.6867191,0.972781 c -0.089666,0.06206 -0.1272349,0.176721 -0.091851,0.28034 l 0.6067736,1.46618 c 0.040552,0.09445 0.1430225,0.145463 0.2421527,0.120546 l 1.8676376,-0.515826 0.3646214,0.56068 -1.1829304,1.539069 c -0.07201,0.08484 -0.057982,0.213292 0.030617,0.28034 l 0.8100471,0.832291 0.4411759,0.208352 c 0.086091,0.07121 0.1630987,0.127945 0.2742694,0.135119 l 3.5040479,-0.138503 c 0.8073598,0.271505 1.6538925,0.406031 2.5050285,0.398083 4.37445,0.0016 7.921457,-3.569739 7.921457,-7.975681 0.04035,-1.7241288 -0.481764,-3.414015 -1.486317,-4.8106395 z"/>
 <path style="opacity:0.1;fill:#ffffff" d="m 10.193483,1.0002349 c -0.0997,0.014138 -0.181607,0.08561 -0.2109347,0.1826151 l -0.242185,1.9618916 c -0.214319,0.030838 -0.426152,0.092208 -0.637688,0.1230455 L 8.1593267,1.5607754 C 8.0977149,1.4704644 7.9838877,1.4323644 7.8810099,1.468003 L 6.433761,2.0685821 C 6.3380216,2.1074797 6.2850837,2.211997 6.3107154,2.3127199 l 0.077148,0.2841764 c 0.0142,-0.010808 0.0287,-0.021332 0.045899,-0.02832 l 1.447249,-0.6005792 c 0.1028778,-0.035639 0.216705,0.00246 0.2783168,0.092772 l 0.9433491,1.7070121 c 0.211536,-0.030837 0.423369,-0.092208 0.637688,-0.1230455 l 0.242183,-1.9618914 c 0.02933,-0.097005 0.1112397,-0.1684768 0.2109347,-0.1826151 h 1.541975 c 0.102321,-0.00258 0.190661,0.071908 0.206052,0.1738261 l 0.242185,1.9628682 c 0.215084,0.025934 0.428376,0.066849 0.637688,0.1230454 l 0.910146,-1.7099413 c 0.06161,-0.090312 0.175439,-0.128411 0.278316,-0.092772 l 1.433578,0.6113212 c 0.01694,0.00688 0.03089,0.017729 0.04492,0.02832 l 0.07715,-0.2841766 C 15.591123,2.211997 15.539163,2.1074797 15.443423,2.0685821 L 14.009845,1.4572609 c -0.102877,-0.035639 -0.216705,0.00246 -0.278316,0.092772 L 12.821383,3.2599747 C 12.612071,3.2037783 12.398779,3.1628632 12.183695,3.1369292 L 11.94151,1.174061 C 11.926119,1.0721425 11.837779,0.99765057 11.735458,1.0002349 Z m 7.103434,2.3183329 c -0.04929,-0.00546 -0.100334,0.00562 -0.144529,0.034179 l -1.544904,1.2187363 -0.441402,-0.2890592 -0.115233,0.4247996 0.556635,0.3642538 1.544904,-1.2187361 c 0.08839,-0.057115 0.204366,-0.044828 0.278317,0.030273 l 1.006824,1.01659 0.106445,-0.1425764 c 0.07384,-0.084267 0.05999,-0.214186 -0.03027,-0.2802703 L 17.430703,3.3830201 c -0.03697,-0.037551 -0.08449,-0.058991 -0.133786,-0.064452 z M 4.5910085,3.3361457 c -0.050721,0.00511 -0.1000698,0.031015 -0.1337879,0.075194 L 3.3722723,4.5128902 c -0.072607,0.075423 -0.085843,0.1907543 -0.03125,0.2802703 L 3.4503964,4.9337839 4.4572206,3.9113344 c 0.067436,-0.08836 0.1948447,-0.1014802 0.2783173,-0.02832 L 6.2696998,5.0714773 6.8263345,4.7072235 6.7111013,4.2824239 6.2696998,4.5714831 4.7355379,3.38302 C 4.6938019,3.3464401 4.641729,3.3310371 4.5910085,3.3361457 Z M 2.2375197,6.369314 C 2.1649787,6.377574 2.0999671,6.424451 2.0695528,6.495289 L 1.4621379,7.9610928 c -0.03523,0.1031683 0.002,0.217054 0.090819,0.2792938 L 2.0695528,6.9952833 C 2.1101054,6.9008319 2.2126073,6.8492715 2.3117376,6.8741912 L 4.1906221,7.4103176 4.554876,6.848801 4.37812,6.6222411 4.1906221,6.9103233 2.3117376,6.3741969 c -0.024783,-0.00623 -0.050038,-0.00763 -0.074218,-0.0049 z M 17.546915,6.5919679 17.372112,6.8263403 c 0.931306,1.2947891 1.44221,2.8429899 1.480452,4.4354957 6.5e-4,-0.04172 0.0059,-0.08215 0.0059,-0.124022 0.03786,-1.6176388 -0.425201,-3.2024209 -1.311509,-4.5458461 z M 3.1662199,9.6700582 c -0.010371,0.06419 -0.028453,0.126794 -0.036132,0.191403 L 1.1808911,10.1056 c -0.1067189,0.01173 -0.18570726,0.104882 -0.180662,0.212888 v 0.499994 c -0.00505,-0.108006 0.073943,-0.201158 0.180662,-0.212888 l 1.9491965,-0.244138 c 0.025749,-0.216633 0.066274,-0.4307758 0.1220689,-0.6415948 z m 0,3.3534768 -1.6005675,0.922841 c -0.089665,0.06205 -0.1271797,0.176651 -0.091796,0.28027 l 0.090819,0.2207 c 3.844e-4,-2.69e-4 5.9e-4,-7e-4 9.75e-4,-10e-4 l 1.6865057,-0.972621 c -0.021549,-0.149956 -0.055403,-0.300235 -0.085936,-0.45019 z m 1.2128766,3.064418 -1.0068242,1.309555 c -0.07201,0.08484 -0.058326,0.213223 0.030273,0.28027 l 0.077148,0.0791 1.075183,-1.398421 z"/>
 <path style="opacity:0.2" d="m 18.585757,5.0409567 c -0.336837,0.6407807 -0.766469,1.22751 -1.274782,1.7409131 -0.970323,1.0096574 -2.171618,1.7643083 -3.49869,2.1978678 -1.923305,0.6503886 -3.412478,0.4905946 -5.0797137,1.1914454 -2.9976842,1.314796 -3.2704536,4.948006 -2.05969,6.728167 l 0.6373908,-0.120546 c 1.5386984,-0.268935 3.2569349,-0.643597 4.7448469,-1.121361 2.535645,-0.967174 4.832785,-3.319229 5.773562,-6.0273168 -0.487089,2.8398478 -2.783365,5.5871818 -5.33571,6.9019778 -1.302615,0.66721 -4.1610423,1.950849 -8.2804226,2.477889 1.8278266,1.699456 4.3288689,2.506838 6.8163726,2.489741 8.488109,0.05378 13.094811,-9.979607 7.556836,-16.4587773 z"/>
 <path style="fill:#77bd43" d="M 18.585757,4.5409799 C 18.24892,5.1817606 17.819288,5.7684899 17.310975,6.281893 16.340652,7.2915504 15.139357,8.0462013 13.812285,8.4797608 11.88898,9.1301502 10.399807,8.9703562 8.7325713,9.6712072 5.7348871,10.986003 5.4621177,14.619213 6.6728813,16.399374 l 0.6373908,-0.120546 c 1.5386984,-0.268935 3.2569349,-0.643597 4.7448469,-1.121361 2.535645,-0.967174 4.832785,-3.319229 5.773562,-6.0273168 -0.487089,2.8398478 -2.783365,5.5871818 -5.33571,6.9019778 -1.302615,0.66721 -4.1610423,1.950849 -8.2804226,2.477889 1.8278266,1.699456 4.3288689,2.506838 6.8163726,2.489741 8.488109,0.05378 13.094811,-9.979607 7.556836,-16.4587781 z"/>
 <path style="opacity:0.2;fill:#ffffff" d="M 18.585938,4.5410158 C 18.2491,5.1817965 17.81886,5.7678471 17.310547,6.2812502 16.340224,7.2909076 15.139572,8.0469094 13.8125,8.480469 11.889195,9.1308582 10.399658,8.9710242 8.7324222,9.6718752 6.7275211,10.551232 5.9619315,12.460518 6.0234378,14.166016 6.1207042,12.600855 6.9235899,10.965236 8.7324222,10.171875 10.399658,9.4710242 11.889195,9.6308582 13.8125,8.980469 15.139572,8.5469095 16.340224,7.7909076 17.310547,6.7812502 17.81886,6.2678471 18.2491,5.6817965 18.585938,5.0410158 c 1.645297,1.9249208 2.375825,4.1627944 2.394531,6.3574222 0.09873,-2.3523568 -0.623903,-4.7858695 -2.394531,-6.8574222 z m -0.757813,5.0898434 c -0.138868,0.3997418 -0.315386,0.7870518 -0.509766,1.1679688 -0.917454,2.203258 -2.781329,4.179057 -4.826171,5.232422 -1.302615,0.66721 -4.1599168,1.951476 -8.2792971,2.478516 0.1617339,0.150375 0.3340594,0.285422 0.5058594,0.421875 3.8405686,-0.563914 6.5263047,-1.7616 7.7734377,-2.400391 2.552344,-1.314796 4.848848,-4.060543 5.335937,-6.9003908 z"/>
</svg>
