<svg xmlns="http://www.w3.org/2000/svg" width="22" height="22" version="1.1">
 <path style="opacity:0.2" d="m 3,1.5 c -0.554,0 -1,0.446 -1,1 v 4 c 0,0.554 0.446,1 1,1 h 6 c 0.554,0 1,-0.446 1,-1 v -4 c 0,-0.554 -0.446,-1 -1,-1 z m 9,0 c -0.554,0 -1,0.446 -1,1 v 4 c 0,0.554 0.446,1 1,1 h 6 c 0.554,0 1,-0.446 1,-1 v -4 c 0,-0.554 -0.446,-1 -1,-1 z m -9,7 c -0.554,0 -1,0.446 -1,1 v 4 c 0,0.554 0.446,1 1,1 h 6 c 0.554,0 1,-0.446 1,-1 v -4 c 0,-0.554 -0.446,-1 -1,-1 z m 9,0 c -0.554,0 -1,0.446 -1,1 v 4 c 0,0.554 0.446,1 1,1 h 6 c 0.554,0 1,-0.446 1,-1 v -4 c 0,-0.554 -0.446,-1 -1,-1 z m -9,7 c -0.554,0 -1,0.446 -1,1 v 4 c 0,0.554 0.446,1 1,1 h 6 c 0.554,0 1,-0.446 1,-1 v -4 c 0,-0.554 -0.446,-1 -1,-1 z m 9,0 c -0.554,0 -1,0.446 -1,1 v 4 c 0,0.554 0.446,1 1,1 h 6 c 0.554,0 1,-0.446 1,-1 v -4 c 0,-0.554 -0.446,-1 -1,-1 z"/>
 <rect style="fill:#e44545" width="8" height="6" x="2" y="1" rx="1" ry="1"/>
 <rect style="fill:#ffb027" width="8" height="6" x="2" y="8" rx="1" ry="1"/>
 <rect style="fill:#e4e4e4" width="8" height="6" x="2" y="15" rx="1" ry="1"/>
 <rect style="fill:#32b12f" width="8" height="6" x="11" y="1" rx="1" ry="1"/>
 <rect style="fill:#4359cd" width="8" height="6" x="11" y="8" rx="1" ry="1"/>
 <rect style="opacity:0.2" width="6" height="1" x="12" y="11"/>
 <rect style="fill:#4f4f4f" width="8" height="6" x="11" y="15" rx="1" ry="1"/>
 <rect style="opacity:0.2" width="6" height="1" x="12" y="9"/>
 <path style="opacity:0.1;fill:#ffffff" d="M 3,1 C 2.446,1 2,1.446 2,2 v 0.5 c 0,-0.554 0.446,-1 1,-1 h 6 c 0.554,0 1,0.446 1,1 V 2 C 10,1.446 9.554,1 9,1 Z m 9,0 c -0.554,0 -1,0.446 -1,1 v 0.5 c 0,-0.554 0.446,-1 1,-1 h 6 c 0.554,0 1,0.446 1,1 V 2 C 19,1.446 18.554,1 18,1 Z M 3,8 C 2.446,8 2,8.446 2,9 v 0.5 c 0,-0.554 0.446,-1 1,-1 h 6 c 0.554,0 1,0.446 1,1 V 9 C 10,8.446 9.554,8 9,8 Z m 9,0 c -0.554,0 -1,0.446 -1,1 v 0.5 c 0,-0.554 0.446,-1 1,-1 h 6 c 0.554,0 1,0.446 1,1 V 9 C 19,8.446 18.554,8 18,8 Z m -9,7 c -0.554,0 -1,0.446 -1,1 v 0.5 c 0,-0.554 0.446,-1 1,-1 h 6 c 0.554,0 1,0.446 1,1 V 16 C 10,15.446 9.554,15 9,15 Z m 9,0 c -0.554,0 -1,0.446 -1,1 v 0.5 c 0,-0.554 0.446,-1 1,-1 h 6 c 0.554,0 1,0.446 1,1 V 16 c 0,-0.554 -0.446,-1 -1,-1 z"/>
 <rect style="opacity:0.2" width="6" height="1" x="12" y="4"/>
 <rect style="opacity:0.2" width="6" height="1" x="3" y="16"/>
 <rect style="opacity:0.2" width="6" height="1" x="3" y="2"/>
 <rect style="opacity:0.2" width="6" height="1" x="3" y="4"/>
 <rect style="opacity:0.2" width="6" height="1" x="12" y="2"/>
 <path style="opacity:0.1" d="m 19.046875,6.5 c -0.517981,7.8e-5 -1.014631,0.2059685 -1.38086,0.5722655 L 9.442383,15.295898 9.205078,17.307617 9,18.5 l 1.173828,-0.201172 2.030274,-0.241211 8.223632,-8.223632 c 0.76256,-0.762704 0.76256,-1.9990155 0,-2.7617195 C 20.061506,6.7059685 19.564855,6.500078 19.046875,6.5 Z"/>
 <path style="fill:#07a7c9" d="m 10.173982,17.799229 2.03042,-0.241731 -2.761889,-2.761821 -0.237211,2.012336 z"/>
 <path fill="#3d3846" d="m 9,18 1.173982,-0.200771 -0.96868,-0.991216 z"/>
 <path style="fill:#24d0f7" d="m 19.047136,6 c -0.517981,7.8e-5 -1.014717,0.2059035 -1.380945,0.5722005 l -8.223678,8.2234765 2.761889,2.761821 8.223678,-8.223476 c 0.76256,-0.7627035 0.76256,-1.9991175 0,-2.7618215 C 20.061852,6.2059035 19.565116,6.000078 19.047136,6 Z"/>
 <rect style="opacity:0.2" width="6" height="1" x="3" y="9"/>
 <rect style="opacity:0.2" width="6" height="1" x="3" y="11"/>
 <rect style="opacity:0.2" width="6" height="1" x="3" y="18"/>
 <path style="opacity:0.2;fill:#ffffff" d="m 19.046875,6 c -0.517981,7.8e-5 -1.014631,0.2059685 -1.38086,0.5722655 l -8.223632,8.2236335 -0.237305,2.011718 0.05274,0.05371 0.18457,-1.56543 8.223632,-8.2236325 C 18.032244,6.7059685 18.528894,6.500078 19.046875,6.5 c 0.51798,7.8e-5 1.014631,0.2059685 1.380859,0.5722655 0.317407,0.317467 0.500538,0.7175915 0.553711,1.1308595 C 21.055801,7.6237225 20.872724,7.01734 20.427734,6.5722655 20.061506,6.2059685 19.564855,6.000078 19.046875,6 Z"/>
</svg>
