<svg xmlns="http://www.w3.org/2000/svg" width="22" height="22" version="1.1">
 <rect style="opacity:0.2" width="20" height="20" x="1" y="1.5" ry="2"/>
 <rect style="fill:#e4e4e4" width="20" height="20" x="1" y="1" ry="2"/>
 <path style="opacity:0.1" d="m 6,4.5 v 2 2 H 4 v 2 h 2 v 2 2 h 2 v 2 H 6 4 v 2 h 2 2 2 2 2 2 2 v -2 h -2 -2 v -2 h 2 v -2 -2 h 2 v -2 h -2 v -2 -2 h -2 -2 v 2 h 2 v 2 2 2 h -2 v 2 2 h -2 v -2 -2 H 8 v -2 -2 -2 h 2 v -2 H 8 Z m 4,4 v 2 h 2 v -2 z"/>
 <path style="fill:#4f4f4f" d="M 6,4 V 6 8 H 4 v 2 h 2 v 2 2 h 2 v 2 H 6 4 v 2 h 2 2 2 2 2 2 2 v -2 h -2 -2 v -2 h 2 v -2 -2 h 2 V 8 H 16 V 6 4 h -2 -2 v 2 h 2 v 2 2 2 h -2 v 2 2 H 10 V 14 12 H 8 V 10 8 6 h 2 V 4 H 8 Z m 4,4 v 2 h 2 V 8 Z"/>
 <path style="opacity:0.2;fill:#ffffff" d="M 3,1 C 1.892,1 1,1.892 1,3 v 0.5 c 0,-1.108 0.892,-2 2,-2 h 16 c 1.108,0 2,0.892 2,2 V 3 C 21,1.892 20.108,1 19,1 Z"/>
</svg>
