<svg width="22" height="22" version="1.1" xmlns="http://www.w3.org/2000/svg">
 <g transform="translate(-183.99998,-272)">
  <path d="m194.99998 273.50003c-5.54 0-10 3.1628-10 7.09375 0 0.0347 2e-3 0.071 2e-3 0.10547-5.3e-4 0.0253-2e-3 0.0509-2e-3 0.0762v4.86328c0 1.82609 1.35931 3.31844 3.125 3.53711v0.75391c0 1.97784 1.53311 3.57031 3.4375 3.57031h6.875c1.90438 0 3.4375-1.59247 3.4375-3.57031v-0.75391c1.76568-0.21864 3.125-1.71101 3.125-3.53711v-4.86328c0-0.0254-2e-3 -0.0508-2e-3 -0.0762 7e-4 -0.0346 2e-3 -0.0709 2e-3 -0.10547 0-3.93088-4.46-7.09375-10-7.09375z" style="opacity:.2"/>
  <path d="m201.875 285.14577v4.28413c0 1.97784-1.53314 3.57011-3.43752 3.57011h-6.87497c-1.90439 0-3.43751-1.59227-3.43751-3.57011v-4.28413c0-5.31141 13.75-5.31141 13.75 0z" style="fill:#f0c3a5"/>
  <path d="m192.85715 284.4243c0.39571 0 0.71427 0.31846 0.71427 0.71402v4.28413c0 0.39556-0.31856 0.71402-0.71427 0.71402-0.39573 0-0.71429-0.31846-0.71429-0.71402v-4.28413c0-0.39556 0.31856-0.71402 0.71429-0.71402z" style="fill:#3f3f3f"/>
  <path d="m197.14286 284.4243c0.39571 0 0.71429 0.31846 0.71429 0.71402v4.28413c0 0.39556-0.31858 0.71402-0.71429 0.71402s-0.71429-0.31846-0.71429-0.71402v-4.28413c0-0.39556 0.31858-0.71402 0.71429-0.71402z" style="fill:#3f3f3f"/>
  <path d="m195 273.00001c-5.54 0-10 3.16358-10 7.09453 0 0.0347 2e-3 0.0705 2e-3 0.10496-5.3e-4 0.0253-2e-3 0.0504-2e-3 0.0757v4.86391c0 1.82609 1.35931 3.31762 3.125 3.53629v-0.99336c0-1.21143 0.97562-2.18669 2.1875-2.18669h9.375c1.21187 0 2.1875 0.97526 2.1875 2.18669v0.99328c1.76568-0.21864 3.12499-1.71019 3.12499-3.53629v-4.86391c0-0.0254-2e-3 -0.0503-2e-3 -0.0757 7e-4 -0.0346 2e-3 -0.0704 2e-3 -0.10496 0-3.93088-4.45999-7.09446-9.99999-7.09446z" style="fill:#3e50b4"/>
  <g transform="matrix(1.4285711,0,0,1.428042,257.85712,-14.036447)" style="fill:#ffffff">
   <path d="m-38.347656 203.03125c-0.94096 0.16379-1.652344 0.97951-1.652344 1.96875v0.97852c0 1.108 0.892 2 2 2 0.365224 0 0.705924-0.098 1-0.26758v-1.61719c0-0.0178-0.0016-0.035-2e-3 -0.0527 4.84e-4 -0.0242 2e-3 -0.048 2e-3 -0.0723 0-1.10108-0.50004-2.11563-1.347656-2.9375zm-11.324219 0.0195c-0.835588 0.81847-1.328125 1.82553-1.328125 2.918 0 0.0243 0.0015 0.0481 2e-3 0.0723-3.67e-4 0.0177-2e-3 0.0349-2e-3 0.0527v1.63867c0.294076 0.16963 0.634776 0.26758 1 0.26758 1.108 0 2-0.892 2-2v-0.97852c0-0.99596-0.721386-1.81476-1.671875-1.9707zm5.171875 0.07425c-1.385 0-2.5 1.115-2.5 2.5s1.115 2.5 2.5 2.5h1c1.385 0 2.5-1.115 2.5-2.5s-1.115-2.5-2.5-2.5z" style="fill:#2c9bff"/>
  </g>
  <path d="m191.60645 274.63505-1.60645 1.60855 0.80357 0.80286 2.58998 2.58929-2.58998 2.58719-0.80357 0.80288 1.60645 1.60574 0.80566-0.80286 2.58789-2.58859 2.58788 2.58859 0.80567 0.80286 1.60645-1.60574-0.80358-0.80288-2.58997-2.58928 2.58997-2.5872 0.80358-0.80286-1.60645-1.60855-0.80567 0.80567-2.58788 2.58719-2.58789-2.58719z" style="fill:#ffffff"/>
  <path d="m194.99998 273.00002c-5.54 0-10 3.1628-10 7.09375 0 0.0347 2e-3 0.071 2e-3 0.10547-5.3e-4 0.0253-2e-3 0.0509-2e-3 0.0762v0.31836c0-3.93095 4.46-7.09375 10-7.09375s10 3.16287 10 7.09375v-0.31836c0-0.0254-2e-3 -0.0508-2e-3 -0.0762 7e-4 -0.0346 2e-3 -0.0709 2e-3 -0.10547 0-3.93088-4.46-7.09375-10-7.09375zm10 7.59375c0 0.0346-1e-3 0.0709-2e-3 0.10547 0 0.0254 2e-3 0.0508 2e-3 0.0762zm-20 0v0.18164c0-0.0253 1e-3 -0.0509 2e-3 -0.0762 0-0.0345-2e-3 -0.0708-2e-3 -0.10547z" style="fill:#ffffff;opacity:.2"/>
  <path d="m190.31248 285.49611c-1.21188 0-2.1875 0.97412-2.1875 2.18555v0.5c0-1.21143 0.97562-2.18555 2.1875-2.18555h9.375c1.21187 0 2.1875 0.97412 2.1875 2.18555v-0.5c0-1.21143-0.97563-2.18555-2.1875-2.18555z" style="opacity:.2"/>
 </g>
</svg>
