<svg width="22" height="22" version="1.1" xmlns="http://www.w3.org/2000/svg">
 <circle cx="11" cy="11.5" r="10" style="opacity:.2"/>
 <circle cx="11" cy="11" r="10" style="fill:#e4e4e4"/>
 <path d="M 11,1 A 10,10 0 0 0 1,11 10,10 0 0 0 1.0098,11.293 10,10 0 0 1 11,1.5 10,10 0 0 1 20.99,11.207 10,10 0 0 0 21,11 10,10 0 0 0 11,1 Z" style="fill:#ffffff;opacity:.2"/>
 <path d="m9 6a3 3 0 0 0-3 3 3 3 0 0 0 1.0566406 2.287109 5 5 0 0 0-0.0566406 0.712891 5 5 0 0 0 5 5 5 5 0 0 0 5-5 5 5 0 0 0-5-5 5 5 0 0 0-0.71875 0.0566406 3 3 0 0 0-2.28125-1.0566406zm-5 3a1 1 0 0 0-1 1 1 1 0 0 0 1 1 1 1 0 0 0 1-1 1 1 0 0 0-1-1z" style="fill:#e82929"/>
 <path d="m11 3.5a2 2 0 0 0-2 2 2 2 0 0 0 1 1.7304688v10.269531h0.05078c-0.033679 0.164538-0.05069 0.332051-0.05078 0.5 0 1.380712 1.119288 2.5 2.5 2.5s2.5-1.119288 2.5-2.5c-0.0016-0.966883-0.560684-1.846133-1.435547-2.257812 0.281188-0.353056 0.434688-0.790841 0.435547-1.242188 0-1.104569-0.895431-2-2-2-0.351395 0.0011-0.696304 0.09471-1 0.271484v-5.271484a2 2 0 0 0 2-2 2 2 0 0 0-2-2zm-5 1c-0.5522847 0-1 0.4477153-1 1s0.4477153 1 1 1 1-0.4477153 1-1-0.4477153-1-1-1zm10 0c-0.552285 0-1 0.4477153-1 1s0.447715 1 1 1 1-0.4477153 1-1-0.447715-1-1-1z" style="opacity:.1"/>
 <path d="m11 3a2 2 0 0 0-2 2 2 2 0 0 0 1 1.7304688v10.269531h0.050781c-0.03368 0.164538-0.050691 0.332051-0.050781 0.5 0 1.380712 1.119288 2.5 2.5 2.5s2.5-1.119288 2.5-2.5c-0.0016-0.966883-0.560684-1.846133-1.435547-2.257812 0.281188-0.353056 0.434688-0.790841 0.435547-1.242188 0-1.104569-0.895431-2-2-2-0.351395 0.0011-0.696304 0.09471-1 0.271484v-5.271484a2 2 0 0 0 2-2 2 2 0 0 0-2-2zm-5 1c-0.5522847 0-1 0.4477153-1 1s0.4477153 1 1 1 1-0.4477153 1-1-0.4477153-1-1-1zm10 0c-0.552285 0-1 0.4477153-1 1s0.447715 1 1 1 1-0.4477153 1-1-0.447715-1-1-1z" style="fill:#4c4c4c"/>
</svg>
