<svg xmlns="http://www.w3.org/2000/svg" width="22" height="22" version="1.1">
 <path style="opacity:0.2" d="M 2.875,1.5 C 1.847,1.5 1,2.347 1,3.375 V 19.625 C 1,20.653 1.847,21.5 2.875,21.5 H 19.125 C 20.153,21.5 21,20.653 21,19.625 V 3.375 C 21,2.347 20.153,1.5 19.125,1.5 Z M 2.6646,2.5235 H 19.335 C 19.702,2.5235 19.977,2.7984 19.977,3.1646 V 19.835 C 19.977,20.202 19.702,20.477 19.335,20.477 H 2.6646 C 2.2984,20.477 2.0235,20.202 2.0235,19.835 V 3.1646 C 2.0235,2.7984 2.2984,2.5235 2.6646,2.5235 Z"/>
 <path style="fill:#d35cc6" d="M 2.875,1 C 1.847,1 1,1.847 1,2.875 V 19.125 C 1,20.153 1.847,21 2.875,21 H 19.125 C 20.153,21 21,20.153 21,19.125 V 2.875 C 21,1.847 20.153,1 19.125,1 Z M 2.6646,2.0235 H 19.335 C 19.702,2.0235 19.977,2.2984 19.977,2.6646 V 19.335 C 19.977,19.702 19.702,19.977 19.335,19.977 H 2.6646 C 2.2984,19.977 2.0235,19.702 2.0235,19.335 V 2.6646 C 2.0235,2.2984 2.2984,2.0235 2.6646,2.0235 Z"/>
 <path style="opacity:0.1;fill:#ffffff" d="M 2.875,1 C 1.847,1 1,1.847 1,2.875 V 3.375 C 1,2.347 1.847,1.5 2.875,1.5 H 19.125 C 20.153,1.5 21,2.347 21,3.375 V 2.875 C 21,1.847 20.153,1 19.125,1 Z M 2.0234,19.336 V 19.836 C 2.0234,20.202 2.2978,20.477 2.6641,20.477 H 19.336 C 19.702,20.477 19.977,20.202 19.977,19.836 V 19.336 C 19.977,19.702 19.702,19.977 19.336,19.977 H 2.6641 C 2.2978,19.977 2.0234,19.702 2.0234,19.336 Z"/>
 <path style="opacity:0.2" d="M 14.772,8.7818 13.455,5.49 A 0.51543,0.53114 0 0 1 13.89,4.7582 L 15.912,4.5872 A 0.09561,0.09852 0 0 0 15.968,4.4153 L 15.105,3.6261 A 4.107,4.2322 0 0 0 12.523,2.5622 L 10.859,2.5017 A 2.6988,2.781 0 0 0 8.5799,3.647 L 8.5496,3.69 A 9.7,9.9957 0 0 0 7.8082,4.9206 L 6.8562,6.7913 A 7.4837,7.7118 0 0 0 6,10.373 V 11.204 A 0.28747,0.29623 0 0 0 6.3616,11.49 L 14.553,9.2377 A 0.32837,0.33838 0 0 0 14.772,8.7818 Z"/>
 <path style="fill:#4f4f4f" d="M 14.772,8.2818 13.455,4.99 A 0.51543,0.53114 0 0 1 13.89,4.2582 L 15.912,4.0872 A 0.09561,0.09852 0 0 0 15.968,3.9153 L 15.105,3.1261 A 4.107,4.2322 0 0 0 12.523,2.0622 L 10.859,2.0017 A 2.6988,2.781 0 0 0 8.5799,3.147 L 8.5496,3.19 A 9.7,9.9957 0 0 0 7.8082,4.4206 L 6.8562,6.2913 A 7.4837,7.7118 0 0 0 6,9.8731 V 10.704 A 0.28747,0.29623 0 0 0 6.3616,10.99 L 14.553,8.7377 A 0.32837,0.33838 0 0 0 14.772,8.2818 Z"/>
 <path style="opacity:0.1;fill:#ffffff" d="M 10.859,2.002 C 9.9619,1.9692 9.1078,2.3982 8.5801,3.1465 L 8.5488,3.1895 C 8.2735,3.5807 8.0262,3.9919 7.8086,4.4199 L 6.8555,6.291 C 6.2933,7.3961 5.9998,8.6253 6,9.873 V 10.373 C 5.9998,9.1253 6.2933,7.8961 6.8555,6.791 L 7.8086,4.9199 C 8.0262,4.4919 8.2735,4.0807 8.5488,3.6895 L 8.5801,3.6465 C 9.1078,2.8982 9.9619,2.4692 10.859,2.502 L 12.523,2.5625 C 13.478,2.5971 14.391,2.9736 15.105,3.627 L 15.635,4.1113 15.912,4.0879 C 15.997,4.0819 16.032,3.974 15.969,3.916 L 15.105,3.127 C 14.391,2.4736 13.478,2.0971 12.523,2.0625 Z"/>
 <path style="fill:#e4e4e4" d="M 5.0035,4.9425 5.3584,8.3032 A 0.76272,0.7807 0 0 0 6.4159,8.9374 L 9.4426,7.6163 A 3.0573,3.1294 0 0 1 10.143,7.4075 L 11.304,7.2107 A 21.703,22.214 0 0 1 12.031,7.1005 L 15.806,6.5945 A 0.22252,0.22777 0 0 0 15.96,6.2379 L 14.533,4.155 A 0.35533,0.36371 0 0 0 14.029,4.0729 L 11.431,6.0703 A 0.58314,0.59689 0 0 1 11.184,6.1803 L 10.556,6.2968 A 0.74254,0.76004 0 0 1 10.124,6.2444 L 5.8444,4.3128 A 0.60168,0.61587 0 0 0 5.0035,4.9425 Z"/>
 <path style="opacity:0.2;fill:#ffffff" d="M 14.299,4.0039 A 0.35533,0.36371 0 0 0 14.029,4.0723 L 11.43,6.0703 A 0.58314,0.59689 0 0 1 11.184,6.1797 L 10.557,6.2969 A 0.74254,0.76004 0 0 1 10.123,6.2441 L 5.8437,4.3125 A 0.60168,0.61587 0 0 0 5.0039,4.9434 L 5.0312,5.1973 A 0.60168,0.61587 0 0 1 5.8437,4.8125 L 10.123,6.7441 A 0.74254,0.76004 0 0 0 10.557,6.7969 L 11.184,6.6797 A 0.58314,0.59689 0 0 0 11.43,6.5703 L 14.029,4.5723 A 0.35533,0.36371 0 0 1 14.533,4.6543 L 15.852,6.582 A 0.22252,0.22777 0 0 0 15.959,6.2383 L 14.533,4.1543 A 0.35533,0.36371 0 0 0 14.299,4.0039 Z"/>
 <g transform="matrix(0.95704,-0.28997,0.29509,0.95547,0,0)">
  <ellipse style="opacity:0.2" cx="7.264" cy="13.717" rx="9.332" ry="3.763"/>
  <ellipse style="fill:#4f4f4f" cx="7.412" cy="13.239" rx="9.332" ry="3.763"/>
 </g>
 <path style="opacity:0.1;fill:#ffffff" d="M 15.557,5.9996 A 3.7629,9.3322 73.203 0 0 9.8886,6.9043 3.7629,9.3322 73.203 0 0 2.0373,12.983 3.7629,9.3322 73.203 0 1 9.8887,7.4044 3.7629,9.3322 73.203 0 1 19.931,8.2926 3.7629,9.3322 73.203 0 1 19.963,8.518 3.7629,9.3322 73.203 0 0 19.932,7.793 3.7629,9.3322 73.203 0 0 15.557,5.9996 Z"/>
 <path style="opacity:0.2" d="M 6.6731,11.665 6.7652,13.929 A 2.4873,2.6161 0 0 1 6.0852,15.841 L 5.0472,16.992 A 0.17223,0.18115 0 0 0 5.1608,17.298 L 7.9679,17.494 A 2.4793,2.6077 0 0 0 9.6846,16.926 L 9.7559,16.866 A 3.3338,3.5064 0 0 1 11.333,16.135 L 12.372,15.966 A 1.6629,1.7491 0 0 1 13.528,16.225 L 14.457,16.856 A 0.41611,0.43766 0 0 0 15.001,16.77 3.8403,4.0392 0 0 0 15.886,14.347 L 15.979,12.202 A 20.15,21.194 0 0 0 15.933,9.5107 L 15.891,8.9624 A 0.40989,0.43112 0 0 0 15.494,8.5665 L 13.553,8.5051 A 10.642,11.193 0 0 0 10.379,8.9099 L 8.7298,9.3927 C 8.2359,9.5373 7.471,9.8692 7.0626,10.195 6.7826,10.419 6.6512,11.126 6.6731,11.665 Z"/>
 <path style="fill:#ffe300" d="M 6.6731,11.165 6.7652,13.429 A 2.4873,2.6161 0 0 1 6.0852,15.341 L 5.0472,16.492 A 0.17223,0.18115 0 0 0 5.1608,16.798 L 7.9679,16.994 A 2.4793,2.6077 0 0 0 9.6846,16.426 L 9.7559,16.366 A 3.3338,3.5064 0 0 1 11.333,15.635 L 12.372,15.466 A 1.6629,1.7491 0 0 1 13.528,15.725 L 14.457,16.356 A 0.41611,0.43766 0 0 0 15.001,16.27 3.8403,4.0392 0 0 0 15.886,13.847 L 15.979,11.702 A 20.15,21.194 0 0 0 15.933,9.0107 L 15.891,8.4624 A 0.40989,0.43112 0 0 0 15.494,8.0665 L 13.553,8.0051 A 10.642,11.193 0 0 0 10.379,8.4099 L 8.7298,8.8927 C 8.2359,9.0373 7.471,9.3692 7.0626,9.6951 6.7826,9.9186 6.6512,10.626 6.6731,11.165 Z"/>
 <path style="opacity:0.2;fill:#ffffff" d="M 13.553,8.0059 A 10.642,11.193 0 0 0 10.379,8.4102 L 8.7305,8.8926 C 8.2366,9.0372 7.4708,9.3694 7.0625,9.6953 6.7825,9.9188 6.6519,10.625 6.6738,11.164 L 6.6797,11.324 C 6.7114,10.861 6.8389,10.374 7.0625,10.195 7.4708,9.8694 8.2366,9.5372 8.7305,9.3926 L 10.379,8.9102 A 10.642,11.193 0 0 1 13.553,8.5059 L 15.494,8.5664 A 0.40989,0.43112 0 0 1 15.891,8.9629 L 15.934,9.5098 A 20.15,21.194 0 0 1 15.998,10.967 20.15,21.194 0 0 0 15.934,9.0098 L 15.891,8.4629 A 0.40989,0.43112 0 0 0 15.494,8.0664 Z M 6.7578,13.756 A 2.4873,2.6161 0 0 1 6.0859,15.34 L 5.0469,16.492 A 0.17223,0.18115 0 0 0 5.1602,16.797 L 5.2187,16.801 6.0859,15.84 A 2.4873,2.6161 0 0 0 6.7656,13.93 Z"/>
 <path style="opacity:0.2" d="M 6,20.5 C 6.0506,20.203 6.856,19.153 7.6269,18.202 8.4047,17.242 9.8778,16.167 10.894,15.765 L 11.329,15.593 A 1.6913,2.2558 0 0 1 12.296,15.595 L 12.944,15.855 A 3.5824,4.778 0 0 1 15.076,18.186 L 16,20.5 Z"/>
 <path style="fill:#e4e4e4" d="M 6,20 C 6.0506,19.703 6.856,18.653 7.6269,17.702 8.4047,16.742 9.8778,15.667 10.894,15.265 L 11.329,15.093 A 1.6913,2.2558 0 0 1 12.296,15.095 L 12.944,15.355 A 3.5824,4.778 0 0 1 15.076,17.686 L 16,20 Z"/>
 <path style="opacity:0.2;fill:#ffffff" d="M 11.65,15.01 A 1.6913,2.2558 0 0 0 11.328,15.094 L 10.895,15.266 C 9.8785,15.667 8.4048,16.742 7.627,17.701 6.856,18.652 6.0506,19.703 6,20 H 6.2656 C 6.5743,19.53 7.1051,18.845 7.627,18.201 8.4048,17.242 9.8785,16.167 10.895,15.766 L 11.328,15.594 A 1.6913,2.2558 0 0 1 12.297,15.596 L 12.945,15.855 A 3.5824,4.778 0 0 1 15.076,18.186 L 15.801,20 H 16 L 15.076,17.686 A 3.5824,4.778 0 0 0 12.945,15.355 L 12.297,15.096 A 1.6913,2.2558 0 0 0 11.65,15.01 Z"/>
 <path style="opacity:0.2" d="M 9.0003,11.642 9.0229,12.97 A 2.2285,2.2286 0 0 0 9.9229,14.722 L 10.444,15.109 A 2.4935,2.4936 0 0 0 13.393,15.126 L 14.121,14.599 A 2.127,2.1271 0 0 0 15,12.858 L 14.989,11.586 A 2.003,2.0031 0 0 0 12.967,9.6001 L 10.97,9.6187 A 1.989,1.9891 0 0 0 9.0003,11.642 Z"/>
 <path style="fill:#ffeedb" d="M 9.0003,11.042 9.0229,12.37 A 2.2285,2.2286 0 0 0 9.9229,14.122 L 10.444,14.509 A 2.4935,2.4936 0 0 0 13.393,14.526 L 14.121,13.999 A 2.127,2.1271 0 0 0 15,12.258 L 14.989,10.986 A 2.003,2.0031 0 0 0 12.967,9.0001 L 10.97,9.0187 A 1.989,1.9891 0 0 0 9.0003,11.042 Z"/>
</svg>
