<svg width="22" height="22" version="1" xmlns="http://www.w3.org/2000/svg">
 <rect x="7.9995294" y="13.5" width="6" height="8" rx="2.4000001" ry="2" style="opacity:.2"/>
 <path d="m10.49953 1.4999981c-1.3850005 0-2.5000005 1.115-2.5000005 2.5v0.087891c-0.6889399 0.2781077-1.3357807 0.65083-1.921875 1.1074215l-0.0742188-0.0429687c-1.1994451-0.6925001-2.7215625-0.2853827-3.4140624 0.9140624l-0.5 0.8671876c-0.6925 1.1994451-0.2853827 2.7215622 0.9140624 3.4140621l0.082031 0.04687c-0.054178 0.366064-0.082893 0.73544-0.085937 1.105474 0.00304 0.370034 0.031759 0.73941 0.085937 1.105469l-0.082031 0.04687c-1.1994451 0.6925-1.6065624 2.214617-0.9140624 3.414062l0.5 0.867188c0.6924999 1.199445 2.2146173 1.606562 3.4140624 0.914062l0.080078-0.04687c0.5841679 0.456808 1.2290136 0.830174 1.916016 1.109375l0.2515271 0.08984c1.3042919 0.465885 0.8634729 1.9 2.2484734 1.9h1c1.384999 0 0.774138-1.069978 1.996945-1.720338l0.503055-0.267553c0.68894-0.278108 1.335781-0.65083 1.921875-1.107421l0.07422 0.04297c1.199445 0.6925 2.721561 0.285383 3.414062-0.914062l0.5-0.867188c0.6925-1.199445 0.285383-2.721562-0.914062-3.414062l-0.08203-0.04687c0.05418-0.366066 0.08289-0.735442 0.08593-1.105476-3e-3 -0.370034-0.03176-0.73941-0.08594-1.105469l0.08203-0.04687c1.199445-0.6924999 1.606562-2.214617 0.914063-3.4140621l-0.5-0.8671876c-0.6924922-1.1994461-2.2146092-1.6065635-3.4140552-0.9140634l-0.08008 0.046875c-0.584165-0.456808-1.22901-0.8301744-1.916013-1.109375v-0.089844c0-1.385-1.115001-2.5-2.5-2.5z" style="opacity:.2"/>
 <path d="m10.49953 0.9999981c-1.3850005 0-2.5000005 1.115-2.5000005 2.5v0.087891c-0.6889399 0.2781077-1.3357807 0.65083-1.921875 1.1074215l-0.0742188-0.0429687c-1.1994451-0.6925001-2.7215625-0.2853827-3.4140624 0.9140624l-0.5 0.8671876c-0.6925 1.1994451-0.2853827 2.7215622 0.9140624 3.4140622l0.082031 0.04687c-0.054178 0.3660639-0.082893 0.7354399-0.085937 1.1054739 0.00304 0.370034 0.031759 0.73941 0.085937 1.105469l-0.082031 0.04687c-1.1994451 0.6925-1.6065624 2.214617-0.9140624 3.414062l0.5 0.867188c0.6924999 1.199445 2.2146173 1.606562 3.4140624 0.914062l0.080078-0.04687c0.5841679 0.456808 1.2290136 0.830174 1.916016 1.109375l0.2515271 0.08984c1.3042919 0.465885 0.8634729 1.9 2.2484734 1.9h1c1.384999 0 0.774138-1.069978 1.996945-1.720338l0.503055-0.267553c0.68894-0.278108 1.335781-0.65083 1.921875-1.107421l0.07422 0.04297c1.199445 0.6925 2.721561 0.285383 3.414062-0.914062l0.5-0.867188c0.6925-1.199445 0.285383-2.721562-0.914062-3.414062l-0.08203-0.04687c0.05418-0.366066 0.08289-0.735442 0.08593-1.105476-3e-3 -0.370034-0.03176-0.73941-0.08594-1.1054689l0.08203-0.04687c1.199445-0.6925 1.606562-2.2146171 0.914063-3.4140622l-0.5-0.8671876c-0.6924922-1.1994461-2.2146092-1.6065635-3.4140552-0.9140634l-0.08008 0.046875c-0.584165-0.456808-1.22901-0.8301744-1.916013-1.109375v-0.089844c0-1.385-1.115001-2.5-2.5-2.5z" style="fill:#008374"/>
 <rect x="7.9995294" y="12.999998" width="6" height="8" rx="2.4000001" ry="2" style="fill:#e4e4e4"/>
 <rect x="9.9995298" y="13.999998" width="2" height="6" rx="1" ry="1" style="opacity:.4"/>
 <path d="m12.99953 6.9199196v3.5800784l-2 1.5-2.0000005-1.5v-3.5761724c-1.820005 0.7943135-2.997456 2.5903865-3 4.5761724 0 2.761423 2.2385765 5 5.0000005 5 2.761423 0 5-2.238577 5-5-1e-3 -1.9872039-1.178697-3.7851969-3-4.5800784z" style="opacity:.2"/>
 <path d="m12.99953 6.4199196v3.5800785l-2 1.4999999-2.0000005-1.4999999v-3.5761725c-1.820005 0.7943135-2.997456 2.5903865-3 4.5761724 0 2.761423 2.2385765 5 5.0000005 5 2.761423 0 5-2.238577 5-5-1e-3 -1.9872039-1.178697-3.7851969-3-4.5800784z" style="fill:#ffffff"/>
 <path d="m12.99953 6.4199196v0.5c1.733 0.7563425 2.880928 2.4213895 2.989257 4.2929684 3e-3 -0.0712 0.01074-0.140949 0.01074-0.21289-1e-3 -1.9872049-1.178697-3.7851969-3-4.5800784zm-4.0000005 0.0039c-1.820005 0.7943135-2.997456 2.5903855-3 4.5761714 0 0.07194 0.00774 0.141689 0.01074 0.212891 0.109636-1.8701809 1.2574955-3.5332544 2.98926-4.2890564v-0.5zm0 3.5761725v0.4999999l2.0000005 1.5 2-1.5v-0.4999999l-2 1.4999999z" style="fill:#ffffff;opacity:.1"/>
 <path d="m10.49953 0.9999981c-1.3850005 0-2.5000005 1.115-2.5000005 2.5v0.087891c-0.6889399 0.2781073-1.3357807 0.65083-1.921875 1.1074215l-0.0742188-0.0429687c-1.1994451-0.6925001-2.7215625-0.2853826-3.4140624 0.9140624l-0.5 0.8671876c-0.2729065 0.4726877-0.3701528 0.9937052-0.3203126 1.4960937 0.0351262-0.3406543 0.1373727-0.6792327 0.3203126-0.9960937l0.5-0.8671876c0.6924999-1.199445 2.2146173-1.6065625 3.4140624-0.9140624l0.074219 0.042969c0.5860941-0.4565918 1.2329349-0.8293145 1.9218748-1.1074222v-0.087891c0-1.385 1.115-2.5 2.5000005-2.5h1c1.384999 0 2.5 1.115 2.5 2.5v0.089844c0.687003 0.2792005 1.331849 0.652567 1.916015 1.109375l0.08008-0.046875c1.199445-0.6925002 2.721566-0.2853876 3.414062 0.9140624l0.5 0.8671876c0.18294 0.316861 0.285187 0.6554394 0.320313 0.9960937 0.04984-0.5023885-0.04741-1.023406-0.320313-1.4960937l-0.5-0.8671876c-0.692498-1.1994498-2.214618-1.6065624-3.414064-0.9140622l-0.08008 0.046875c-0.584164-0.456808-1.22901-0.8301745-1.916013-1.109375v-0.089844c0-1.385-1.115001-2.5-2.5-2.5zm-7.4511724 9.3730469c-0.018203 0.208955-0.047102 0.41709-0.048828 0.626953 6.875e-4 0.08368 0.01622 0.166413 0.019531 0.25 0.011333-0.286014 0.024481-0.572192 0.066406-0.855469zm15.902343 0-0.03711 0.02148c0.04193 0.283273 0.05508 0.569456 0.06641 0.855469 0.0033-0.08359 0.01884-0.166315 0.01953-0.25-0.0017-0.209863-0.03062-0.417999-0.04883-0.626953zm-15.902343 1.753906-0.044922 0.02539c-0.882584 0.50956-1.3322153 1.469111-1.234375 2.417968 0.07663-0.772422 0.5076177-1.498375 1.234375-1.917968l0.082031-0.04687c-0.023451-0.158451-0.023216-0.319038-0.037109-0.478516zm15.902343 0c-0.01389 0.159479-0.01366 0.320062-0.03711 0.478516l0.08203 0.04687c0.726757 0.419593 1.157744 1.145546 1.234375 1.917968 0.09784-0.948857-0.351791-1.908408-1.234375-2.417968z" style="fill:#ffffff;opacity:.1"/>
</svg>
