<svg xmlns="http://www.w3.org/2000/svg" width="22" height="22" version="1">
 <rect style="opacity:0.2" width="20" height="20" x="1" y="1.5" rx="1" ry="1"/>
 <rect style="fill:#e4e4e4" width="20" height="20" x="1" y="1" rx="1" ry="1"/>
 <path style="opacity:0.1" d="M 7.84584,4.25 V 17.992546 H 7.8 V 18.25 H 18.218095 V 17.992546 H 8.379084 L 8.270751,17.752118 8.0118005,17.989926 V 4.25 Z M 10.102492,6.4750315 9.949816,6.767287 9.622572,6.807327 9.853458,7.042703 9.790218,7.3662045 10.085467,7.2195155 10.373793,7.379489 10.325523,7.053368 10.566699,6.828657 10.241513,6.773835 Z m 1.677381,0.9809825 -0.09561,0.157354 -0.183922,0.01029 0.12012,0.139579 -0.04697,0.1781225 0.16989,-0.0711 0.154734,0.099726 -0.01497,-0.183548 0.142573,-0.1163785 -0.179245,-0.04247 z M 9.504884,7.995807 9.282793,8.1840325 9.001763,8.1075075 9.112154,8.377123 8.9527425,8.6207315 9.24294,8.5990265 9.425365,8.8259825 9.494595,8.5430825 9.76683,8.4398015 9.519105,8.286564 Z m 6.105366,0.3560575 -0.113946,0.083635 -0.133404,-0.0464 0.04434,0.134153 -0.08532,0.112449 0.141263,-7.5e-4 0.08064,0.116004 0.04303,-0.134527 0.135088,-0.040975 -0.114694,-0.082325 z m -4.598624,1.4073905 -0.08513,0.147063 -0.169515,0.01328 0.113572,0.126481 -0.03985,0.1654 0.155482,-0.06904 0.145005,0.08906 -0.01759,-0.169142 0.129288,-0.110391 -0.166334,-0.03555 z m 3.989602,0.266622 -0.166334,0.158663 -0.225085,-0.04697 0.09973,0.207124 -0.114321,0.199639 0.227893,-0.03069 0.154547,0.170264 0.04116,-0.226208 0.209555,-0.0943 -0.202258,-0.109081 z m -5.615342,1.182118 -0.177934,0.353439 -0.392169,0.0537 0.281216,0.278597 -0.07016,0.389362 0.351754,-0.181303 0.348761,0.186916 -0.06362,-0.390485 0.285519,-0.273919 -0.391046,-0.06006 z m 4.84242,0.851507 0.09748,0.332857 -0.09748,0.332856 0.332856,-0.09748 0.332856,0.09748 -0.09748,-0.332856 0.09748,-0.332857 -0.332856,0.09748 z m -0.855998,0.04753 -0.240615,0.147998 -0.282526,-0.0052 0.147999,0.240615 -0.0052,0.282339 0.240615,-0.147812 0.282525,0.0052 -0.147998,-0.240614 z m -4.35988,0.997821 -0.051827,0.242112 -0.2288275,0.09467 0.2144205,0.124237 0.01927,0.246976 0.184297,-0.165586 0.240802,0.058 -0.100474,-0.226395 0.129475,-0.211239 -0.246415,0.02564 z m 5.236833,1.052456 -0.312462,0.19964 -0.366162,-0.110766 0.121618,0.320133 -0.234254,0.268681 0.387678,-0.0017 0.22153,0.276726 0.117875,-0.321069 0.371026,-0.09767 -0.314708,-0.196833 z m -2.443194,0.101411 -0.162967,0.162218 -0.226208,-0.04228 0.104029,0.205253 -0.110203,0.201884 0.22733,-0.03537 0.158102,0.167083 0.03649,-0.227143 0.207685,-0.0986 -0.204691,-0.104964 z m 3.136037,0.470564 0.05538,0.309281 -0.247164,0.216853 0.338657,0.04753 0.149121,0.281965 0.153986,-0.279907 0.339219,-0.04266 -0.243422,-0.220408 0.06043,-0.308346 -0.304229,0.143696 z m -3.398543,0.735128 -0.145566,0.196085 -0.26288,0.0035 0.162966,0.184857 -0.07727,0.225085 0.246415,-0.08195 0.215169,0.135462 -0.01085,-0.235375 0.210304,-0.141263 -0.253151,-0.06362 z m 1.876458,0.531747 -0.132282,0.317327 -0.357554,0.07915 0.28552,0.21442 -0.02919,0.339218 0.308533,-0.184858 0.339405,0.130411 -0.09449,-0.328741 0.238931,-0.258577 -0.367097,-0.01815 z m -2.498763,0.07316 -0.21124,0.295436 -0.381316,0.0054 0.236498,0.278409 -0.112262,0.339219 0.357555,-0.123489 0.311901,0.204317 -0.01553,-0.354748 0.304979,-0.212923 -0.367097,-0.0958 z m 4.42892,0.05108 0.05538,0.309095 -0.247163,0.21704 0.338657,0.04733 0.149121,0.281965 0.153986,-0.279719 0.339217,-0.04284 -0.24342,-0.220221 0.06044,-0.308346 -0.304231,0.143508 z"/>
 <path style="opacity:0.1" d="M 4,4.5 4.9785155,11.862305 5.861328,18.5 H 8.34375 L 13.008789,10.660156 16.673828,4.5 H 14.69043 L 10.886719,10.978516 7.4697265,16.797851 6.8203125,11.586914 5.9365235,4.5 Z"/>
 <path style="opacity:0.2;fill:#ffffff" d="M 2,1 C 1.446,1 1,1.446 1,2 v 0.5 c 0,-0.554 0.446,-1 1,-1 h 18 c 0.554,0 1,0.446 1,1 V 2 C 21,1.446 20.554,1 20,1 Z"/>
 <path style="fill:#a2adc7" d="M 7.84584,4 V 17.742546 H 7.8 V 18 H 18.218095 V 17.742546 H 8.379084 L 8.270751,17.502118 8.0118005,17.739926 V 4 Z M 10.102492,6.2250315 9.949816,6.517287 9.622572,6.557327 9.853458,6.792703 9.790218,7.1162045 10.085467,6.9695155 10.373793,7.129489 10.325523,6.803368 10.566699,6.578657 10.241513,6.523835 Z m 1.677381,0.9809825 -0.09561,0.157354 -0.183922,0.01029 0.12012,0.139579 -0.04697,0.1781225 0.16989,-0.0711 0.154734,0.099726 -0.01497,-0.183548 0.142573,-0.1163785 -0.179245,-0.04247 z M 9.504884,7.745807 9.282793,7.9340325 9.001763,7.8575075 9.112154,8.127123 8.9527425,8.3707315 9.24294,8.3490265 9.425365,8.5759825 9.494595,8.2930825 9.76683,8.1898015 9.519105,8.036564 Z m 6.105366,0.3560575 -0.113946,0.083635 -0.133404,-0.0464 0.04434,0.134153 -0.08532,0.112449 0.141263,-7.5e-4 0.08064,0.116004 0.04303,-0.134527 0.135088,-0.040975 -0.114694,-0.082325 z m -4.598624,1.4073905 -0.08513,0.147063 -0.169515,0.01328 0.113572,0.126481 -0.03985,0.1654 0.155482,-0.06904 0.145005,0.08906 -0.01759,-0.169142 0.129288,-0.110391 -0.166334,-0.03555 z m 3.989602,0.266622 -0.166334,0.158663 -0.225085,-0.04697 0.09973,0.207124 -0.114321,0.199639 0.227893,-0.03069 0.154547,0.170264 0.04116,-0.226208 0.209555,-0.0943 -0.202258,-0.109081 z m -5.615342,1.182118 -0.177934,0.353439 -0.392169,0.0537 0.281216,0.278597 -0.07016,0.389362 0.351754,-0.181303 0.348761,0.186916 -0.06362,-0.390485 0.285519,-0.273919 -0.391046,-0.06006 z m 4.84242,0.851507 0.09748,0.332857 -0.09748,0.332856 0.332856,-0.09748 0.332856,0.09748 -0.09748,-0.332856 0.09748,-0.332857 -0.332856,0.09748 z m -0.855998,0.04753 -0.240615,0.147998 -0.282526,-0.0052 0.147999,0.240615 -0.0052,0.282339 0.240615,-0.147812 0.282525,0.0052 -0.147998,-0.240614 z m -4.35988,0.997821 -0.051827,0.242112 -0.2288275,0.09467 0.2144205,0.124237 0.01927,0.246976 0.184297,-0.165586 0.240802,0.058 -0.100474,-0.226395 0.129475,-0.211239 -0.246415,0.02564 z m 5.236833,1.052456 -0.312462,0.19964 -0.366162,-0.110766 0.121618,0.320133 -0.234254,0.268681 0.387678,-0.0017 0.22153,0.276726 0.117875,-0.321069 0.371026,-0.09767 -0.314708,-0.196833 z m -2.443194,0.101411 -0.162967,0.162218 -0.226208,-0.04228 0.104029,0.205253 -0.110203,0.201884 0.22733,-0.03537 0.158102,0.167083 0.03649,-0.227143 0.207685,-0.0986 -0.204691,-0.104964 z m 3.136037,0.470564 0.05538,0.309281 -0.247164,0.216853 0.338657,0.04753 0.149121,0.281965 0.153986,-0.279907 0.339219,-0.04266 -0.243422,-0.220408 0.06043,-0.308346 -0.304229,0.143696 z m -3.398543,0.735128 -0.145566,0.196085 -0.26288,0.0035 0.162966,0.184857 -0.07727,0.225085 0.246415,-0.08195 0.215169,0.135462 -0.01085,-0.235375 0.210304,-0.141263 -0.253151,-0.06362 z m 1.876458,0.531747 -0.132282,0.317327 -0.357554,0.07915 0.28552,0.21442 -0.02919,0.339218 0.308533,-0.184858 0.339405,0.130411 -0.09449,-0.328741 0.238931,-0.258577 -0.367097,-0.01815 z m -2.498763,0.07316 -0.21124,0.295436 -0.381316,0.0054 0.236498,0.278409 -0.112262,0.339219 0.357555,-0.123489 0.311901,0.204317 -0.01553,-0.354748 0.304979,-0.212923 -0.367097,-0.0958 z m 4.42892,0.05108 0.05538,0.309095 -0.247163,0.21704 0.338657,0.04733 0.149121,0.281965 0.153986,-0.279719 0.339217,-0.04284 -0.24342,-0.220221 0.06044,-0.308346 -0.304231,0.143508 z"/>
 <path style="fill:#0ba10b" d="m 13.008789,10.160156 -2.12207,0.31836 -3.4169925,5.819335 -0.649414,-5.210937 -1.841797,0.275391 L 5.861328,18 H 8.34375 Z"/>
 <path style="fill:#244bb6" d="M 4,4.0000405 4.978966,11.362593 6.8201215,11.087106 5.9368705,4.0000405 Z m 10.690397,0 -3.803788,6.4781745 2.121907,-0.317609 3.665762,-6.1605655 z"/>
</svg>
