<svg xmlns="http://www.w3.org/2000/svg" width="22" height="22" version="1">
 <path style="fill:#3f3f3f" d="M 1,4.9 V 19 c 0,0.5544 0.445625,1 1,1 H 20.0005 C 20.5545,20 21,19.5545 21,19 V 4.9 Z"/>
 <path style="fill:#4f4f4f" d="M 11,4.5 V 20 h 9.000976 C 20.554976,20 21,19.5545 21,19 V 4.5 Z"/>
 <path d="M 2,2 C 1.4456,2 1,2.44575 1,2.99975 V 5 H 21 V 2.99975 C 21,2.44575 20.5545,2 20,2 Z" style="fill:#c8c8c8"/>
 <path d="M 2,2 C 1.4456,2 1,2.446 1,3 v 0.5 c 0,-0.554 0.4456,-1 1,-1 h 18 c 0.5544,0 1,0.446 1,1 V 3 C 21,2.446 20.5545,2 20,2 Z" style="opacity:0.2;fill:#ffffff"/>
 <path style="opacity:0.2" d="m 1,19 v 0.5 c 0,0.5544 0.445625,1 1,1 H 20.001 C 20.5545,20.5 21,20.0545 21,19.5 V 19 c 0,0.5544 -0.445275,1 -0.999,1 H 2 C 1.4456,20 1,19.5545 1,19 Z"/>
 <rect style="opacity:0.2" width="20" height=".5" x="1" y="5"/>
 <path d="M 12.673828,8.5 9.964844,14.427734 7.46875,9.5 H 5.7890625 L 9.330078,16.496094 10.681641,16.46875 14.324219,8.5 Z M 15,10.5 v 1 h 1 v -1 z m 0,2 v 4 h 1 v -4 z" style="opacity:0.2"/>
 <path style="fill:#1b6cff" d="M 12.673828,8 9.964844,13.927734 7.46875,9 H 5.7890625 L 9.330078,15.996094 10.681641,15.96875 14.324219,8 Z M 15,10 v 1 h 1 v -1 z m 0,2 v 4 h 1 v -4 z"/>
</svg>
