<svg xmlns="http://www.w3.org/2000/svg" height="22" width="22" version="1.1" viewBox="0 0 22 22">
 <path fill="#248afd" d="m11 1a10 10 0 0 0 -10 10 10 10 0 0 0 10 10 10 10 0 0 0 10 -10 10 10 0 0 0 -10 -10z"/>
 <path opacity=".2" d="m11 1a10 10 0 0 0 -9.9297 8.9258 10 9.5 0 0 1 9.9297 -8.4258 10 9.5 0 0 1 9.961 8.724 10 10 0 0 0 -9.961 -9.224zm9.9609 9.2236a10 10 0 0 1 0.039 0.776 10 9.5 0 0 0 -0.039 -0.776zm-19.891-0.2982a10 9.5 0 0 0 -0.024414 0.19629 10 10 0 0 1 0.024414 -0.19629zm-0.024414 0.19629a10 10 0 0 0 -0.0459 0.878 10 9.5 0 0 1 0.0459 -0.878z" fill="#ffffff"/>
 <path opacity=".2" d="m11 21.5a10 10 0 0 1 -9.9297 -8.926 10 9.5 0 0 0 9.9297 8.426 10 9.5 0 0 0 9.961 -8.724 10 10 0 0 1 -9.961 9.224zm9.9609-9.2236a10 10 0 0 0 0.039 -0.776 10 9.5 0 0 1 -0.039 0.776zm-19.891 0.298a10 9.5 0 0 1 -0.024414 -0.19625 10 10 0 0 0 0.024414 0.19625zm-0.0244-0.196a10 10 0 0 1 -0.0459 -0.878 10 9.5 0 0 0 0.0459 0.878z"/>
 <path style="fill:#ffffff" d="m11.000001 2.071538c-4.9232829 0-8.9284629 4.005458-8.9284629 8.928461 0 4.923309 4.005332 8.928463 8.9284629 8.928463 4.922977 0 8.928461-4.005153 8.928461-8.928463 0-4.923003-4.005485-8.928461-8.928461-8.928461zm0 0.687073c2.145722 4e-7 4.099994 0.8197353 5.566338 2.1630596-0.0356-0.00205-0.07088-0.00697-0.107421-0.00697-0.809389 0-1.383912 0.7051334-1.383912 1.4627334 0 0.678875 0.39205 1.253997 0.80984 1.932872 0.313813 0.549027 0.6794 1.25472 0.6794 2.273269 0 0.705535-0.270771 1.52466-0.627085 2.664588l-0.822395 2.746897-2.978479-8.859404c0.495891-0.02603 0.943069-0.07882 0.943069-0.07882 0.44398-0.05254 0.392292-0.705589-0.05232-0.6794 0 0-1.33531 0.10463-2.197238 0.10463-0.809861 0-2.1707321-0.10463-2.1707321-0.10463-0.444137-0.02619-0.496453 0.653371-0.05232 0.6794 0 0 0.421121 0.05279 0.864945 0.07882l1.2841631 3.517673-1.8045251 5.409392-3.0007998-8.927065c0.4968308-0.02603 0.9437648-0.07812 0.9437648-0.07812 0.443824-0.05254 0.391282-0.70559-0.05301-0.679401 0 0-1.3351538 0.10463-2.1972388 0.10463-0.15479 0.000001-0.336758-0.0039-0.530127-0.0098 1.473713-2.2375157 4.0067118-3.7143806 6.8860769-3.7143807zm7.232053 4.286359c0.643777 1.173958 1.009493 2.522161 1.009336 3.955029 0 3.040436-1.647744 5.694447-4.098026 7.123239l2.518107-7.278091c0.470485-1.175527 0.626387-2.115649 0.626387-2.951972 0-0.303134-0.02036-0.585688-0.05581-0.848205zm-14.759863 0.60058 3.9313128 10.77135c-2.7491968-1.335954-4.6448928-4.154722-4.6448928-7.416901 0-1.194815 0.256269-2.329471 0.71358-3.354449zm7.6728969 4.074306 2.533451 6.940484c0.01647 0.04077 0.03649 0.07911 0.05859 0.114396-0.856752 0.301252-1.777343 0.466652-2.737131 0.466652-0.809077 0-1.5893321-0.118475-2.3276791-0.335515z"/>
</svg>
