<svg xmlns="http://www.w3.org/2000/svg" width="22" height="22" version="1.1">
 <rect style="opacity:0.2" width="16" height="18" x="3" y="1.5" ry="2"/>
 <rect style="fill:#e4e4e4" width="16" height="18" x="3" y="1" ry="2"/>
 <rect style="opacity:0.1" width="12" height="1" x="5" y="3"/>
 <rect style="opacity:0.1" width="12" height="1" x="5" y="6"/>
 <rect style="opacity:0.1" width="12" height="1" x="5" y="9"/>
 <rect style="opacity:0.1" width="12" height="1" x="5" y="12"/>
 <path style="opacity:0.1" d="m 8,3.5 a 1,1 0 0 0 -1,1 1,1 0 0 0 0.4277344,0.8183594 C 6.6944999,7.5299999 5.355,11.145 4,12.5 c 0,0 2,3 2,5 H 5.8085938 C 5.3611323,17.5 5,17.946 5,18.5 c 0,0.554 0.3611322,1 0.8085938,1 H 6 v 2 h 5 v -2 h 0.191406 C 11.638867,19.5 12,19.054 12,18.5 c 0,-0.554 -0.361133,-1 -0.808594,-1 H 11 c 0,-2 2,-5 2,-5 C 11.645,11.145 10.305719,7.5358125 9.574219,5.3203125 A 1,1 0 0 0 10,4.5 1,1 0 0 0 9,3.5 v 9.134766 c 0.309,0.1785 0.4995,0.508734 0.5,0.865234 0,0.5525 -0.4475,1 -1,1 -0.5525,0 -1,-0.4475 -1,-1 5e-4,-0.3565 0.191,-0.686734 0.5,-0.865234 V 5.5 Z"/>
 <path style="fill:#808c90" d="M 8,3 A 1,1 0 0 0 7,4 1,1 0 0 0 7.4277345,4.8183595 C 6.6945,7.03 5.355,10.645 4,12 c 0,0 2,3 2,5 h 5 c 0,-2 2,-5 2,-5 C 11.645,10.645 10.3065,7.035 9.575,4.8195 A 1,1 0 0 0 10,4 1,1 0 0 0 9,3 v 9.135 c 0.309,0.1785 0.4995,0.5085 0.5,0.865 0,0.5525 -0.4475,1 -1,1 -0.5525,0 -1,-0.4475 -1,-1 5e-4,-0.3565 0.191,-0.686 0.5,-0.8645 V 5 Z"/>
 <rect style="fill:#3a444c" width="5" height="2.5" x="6" y="18.5" rx="0"/>
 <path style="fill:#ff9120" d="M 5.8076923,17 H 11.192308 C 11.639769,17 12,17.446 12,18 c 0,0.554 -0.360231,1 -0.807692,1 H 5.8076923 C 5.3602308,19 5,18.554 5,18 5,17.446 5.3602308,17 5.8076923,17"/>
 <path style="opacity:0.2;fill:#ffffff" d="M 5,1 C 3.892,1 3,1.892 3,3 v 0.5 c 0,-1.108 0.892,-2 2,-2 h 12 c 1.108,0 2,0.892 2,2 V 3 C 19,1.892 18.108,1 17,1 Z"/>
</svg>
