<?xml version="1.0" encoding="UTF-8" standalone="no"?>
<svg xmlns="http://www.w3.org/2000/svg" height="22" width="22" version="1">
 <rect transform="matrix(0,-1,-1,0,0,0)" rx="10" ry="10" height="20" width="20" y="-21" x="-21" fill="#608ab5"/>
 <path opacity=".2" fill="#fff" d="m11 1c-5.54 0-10 4.46-10 10 0 0.084 0.0038 0.166 0.0058 0.25 0.1324-5.423 4.5382-9.75 9.9942-9.75 5.4558 0 9.862 4.327 9.994 9.75 0.002-0.0835 0.006-0.166 0.006-0.25 0-5.54-4.46-10-10-10z"/>
 <path opacity=".2" d="m1.0058 11.25c-0.002 0.084-0.0058 0.166-0.0058 0.25 0 5.54 4.46 10 10 10s10-4.46 10-10c0-0.08394-0.0038-0.16657-0.0059-0.25-0.132 5.423-4.538 9.75-9.994 9.75s-9.862-4.327-9.994-9.75z"/>
 <path opacity=".2" d="m4.2456 12.887c-0.1074 0.12-0.1877 0.223-0.2456 0.306 0.0656-0.093 0.1495-0.196 0.2456-0.306zm13.302-3.4888c0.03741 0.0185 0.07546 0.03668 0.10643 0.05549-0.0238-0.01443-0.06128-0.03407-0.10643-0.05549zm-7.1939 0.32532c3.971-1.1229 6.102-0.7237 6.928-0.4336-0.908-0.3211-2.686-0.5803-3.598-1.1391-0.872-0.5342-1.799-2.1509-4.109-1.4978-2.3095 0.6531-2.3151 2.485-2.849 3.466-0.4373 0.804-1.7919 1.98-2.4801 2.768 0.6537-0.732 2.3173-2.091 6.1081-3.1636zm1.199-2.3808c0.21724-0.061365 0.55941 0.011044 0.82849 0.20924 0.38241 0.28121 0.49727 0.70929 0.08151 0.82682-0.4162 0.11754-0.94872-0.19188-1.1143-0.53446-0.11658-0.24185-0.0126-0.44059 0.20432-0.50162zm-1.6999 0.3068c0.35588-0.10017 0.70901 0.073662 0.78935 0.38929 0.0799 0.31495-0.1435 0.65235-0.49934 0.75262-0.3558 0.1005-0.7089-0.0732-0.7894-0.3888-0.0799-0.315 0.1435-0.6521 0.4994-0.7531zm-2.2363 1.2498c0.1396-0.3138 0.4013-0.5568 0.6181-0.6185 0.2167-0.0612 0.4014 0.0559 0.4147 0.3265 0.0189 0.3841-0.2956 0.933-0.7118 1.0508-0.4155 0.1176-0.5187-0.3134-0.321-0.7588zm10.363 1.6347c-0.27999-1.111-3.5537-1.0443-7.3405 0.03266-3.7859 1.0773-6.6527 2.7569-6.3717 3.8676 0.18959 0.75148 1.806 1.177 4.0032 1.0405 0.91831 0.08101 2.1485-0.05798 3.4604-0.42909 1.2931-0.36549 2.4115-0.88415 3.1681-1.4294 2.0299-1.0603 3.274-2.3174 3.0808-3.0822zm-6.3816 3.9876c-1.647 0.46589-3.0464 0.59265-3.157 0.15567-0.11098-0.43656 1.1393-1.1483 2.7867-1.614 1.6469-0.46632 3.0675-0.50852 3.1787-0.07175 0.11098 0.43632-1.1614 1.0644-2.8083 1.53z"/>
 <path fill="#f9ad6c" d="m4.2456 12.387c-0.1074 0.12-0.1877 0.223-0.2456 0.306 0.0656-0.093 0.1495-0.196 0.2456-0.306zm13.302-3.4888c0.03741 0.018498 0.07546 0.036678 0.10643 0.055493-0.0238-0.014432-0.06128-0.034073-0.10643-0.055493zm-7.193 0.3254c3.97-1.123 6.101-0.7238 6.927-0.4337-0.908-0.3211-2.686-0.5803-3.598-1.1391-0.872-0.5342-1.799-2.1509-4.109-1.4978-2.3095 0.6531-2.3151 2.485-2.849 3.4656-0.4373 0.8044-1.7919 1.9804-2.4801 2.7684 0.6537-0.732 2.3173-2.091 6.1081-3.1636zm1.199-2.3808c0.21724-0.061365 0.55941 0.011044 0.82849 0.20924 0.38241 0.28121 0.49727 0.70929 0.08151 0.82682-0.4162 0.11754-0.94872-0.19188-1.1143-0.53446-0.11658-0.24185-0.0126-0.44059 0.20432-0.50162zm-1.7009 0.3067c0.35588-0.10017 0.70901 0.073662 0.78935 0.38929 0.0799 0.31495-0.1435 0.65235-0.49934 0.75262-0.3558 0.1005-0.7089-0.0732-0.7894-0.3888-0.0799-0.315 0.1435-0.6521 0.4994-0.7531zm-2.2363 1.2498c0.1396-0.3138 0.4013-0.5568 0.6181-0.6185 0.2167-0.0612 0.4014 0.0559 0.4147 0.3265 0.0189 0.3841-0.2956 0.933-0.7118 1.0508-0.4155 0.1176-0.5187-0.3135-0.321-0.7588zm10.363 1.6347c-0.27999-1.111-3.5537-1.0443-7.3405 0.03266-3.7859 1.0773-6.6527 2.7569-6.3717 3.8676 0.18959 0.75148 1.806 1.177 4.0032 1.0405 0.91831 0.08101 2.1485-0.05798 3.4604-0.42909 1.2931-0.36549 2.4115-0.88415 3.1681-1.4294 2.0299-1.0603 3.274-2.3174 3.0808-3.0822zm-6.3816 3.9876c-1.647 0.46589-3.0464 0.59265-3.157 0.15567-0.11098-0.43656 1.1393-1.1483 2.7867-1.614 1.6469-0.46632 3.0675-0.50852 3.1787-0.07175 0.11098 0.43632-1.1614 1.0644-2.8083 1.53z"/>
</svg>
