<svg xmlns="http://www.w3.org/2000/svg" width="22" height="22" version="1">
 <ellipse style="opacity:0.2" cx="7.237" cy="14.85" rx="10.251" ry="4.462" transform="matrix(0.96845416,-0.24919178,0.26876305,0.96320632,0,0)"/>
 <path style="fill:#4f4f4f" d="m 10.333335,3.9999984 c -4.6666666,0 -4.0439954,4.9158593 -6.4333328,6.2000016 -1,2 -0.6257584,1.821123 -0.2333338,3.150007 0.6620546,2.215822 2.5166365,0.650282 7.9999986,-0.666666 5.483097,-1.316646 6.662138,-1.117677 6,-3.3333334 C 17.269644,8.0359407 18.000002,7.4710477 16.000002,6.9999996 13.696957,7.1261411 13.666667,3.9999984 10.333335,3.9999984 Z"/>
 <path style="opacity:0.1;fill:#ffffff" d="m 10.333985,3.9999996 c -4.6666663,0 -4.0442561,4.9150769 -6.4335936,6.1992194 -0.5805894,1.161179 -0.6918177,1.588201 -0.611328,2.001953 0.063728,-0.329362 0.2440884,-0.767474 0.611328,-1.501953 2.3893375,-1.2841424 1.7669273,-6.1992194 6.4335936,-6.1992194 3.333332,0 3.362971,3.1261415 5.666016,3 2,0.4710481 1.268993,1.0355426 1.666016,2.349609 0.07275,0.2434234 0.113639,0.4483284 0.138672,0.6386724 0.05529,-0.293765 0.0052,-0.6571774 -0.138672,-1.1386724 -0.397023,-1.3140665 0.333984,-1.8785609 -1.666016,-2.349609 -2.303045,0.1261415 -2.332684,-3 -5.666016,-3 z"/>
 <ellipse style="fill:#2e72de" cx="7.372" cy="14.366" rx="10.251" ry="4.462" transform="matrix(0.96845416,-0.24919178,0.26876305,0.96320632,0,0)"/>
 <ellipse style="opacity:0.2" cx="8.187" cy="18.452" rx="4.634" ry="2.242" transform="matrix(0.96652659,-0.25656647,0.19441229,0.98091991,0,0)"/>
 <ellipse style="fill:#fbfbfb" cx="8.284" cy="17.968" rx="4.634" ry="2.242" transform="matrix(0.96652659,-0.25656647,0.19441229,0.98091991,0,0)"/>
 <path style="opacity:0.1;fill:#ffffff" d="M 14.707032,7.0039058 A 4.4612484,10.251695 75.8416 0 0 9.8007819,7.7011715 4.4612484,10.251695 75.8416 0 0 1.0253915,14.255859 4.4612484,10.251695 75.8416 0 1 9.8007819,8.2011715 4.4612484,10.251695 75.8416 0 1 20.927735,9.9453116 4.4612484,10.251695 75.8416 0 1 20.974605,10.244141 4.4612484,10.251695 75.8416 0 0 20.927735,9.4453116 4.4612484,10.251695 75.8416 0 0 14.707032,7.0039058 Z"/>
</svg>
