<?xml version="1.0" encoding="utf-8"?>
<!-- Generator: Adobe Illustrator 16.0.0, SVG Export Plug-In . SVG Version: 6.00 Build 0)  -->
<!DOCTYPE svg PUBLIC "-//W3C//DTD SVG 1.1//EN" "http://www.w3.org/Graphics/SVG/1.1/DTD/svg11.dtd">
<svg version="1.1" id="Capa_2_1_" xmlns="http://www.w3.org/2000/svg" xmlns:xlink="http://www.w3.org/1999/xlink" x="0px" y="0px"
	 width="22px" height="22px" viewBox="0 0 22 22" enable-background="new 0 0 22 22" xml:space="preserve">
<sodipodi:namedview  showgrid="false" pagecolor="#ffffff" inkscape:cy="22.747036" inkscape:cx="32" bordercolor="#666666" objecttolerance="10" inkscape:zoom="11.977833" guidetolerance="10" borderopacity="1" id="namedview14" gridtolerance="10" inkscape:window-width="1332" inkscape:window-x="0" inkscape:window-y="0" inkscape:pageshadow="2" inkscape:window-maximized="1" inkscape:current-layer="svg2" inkscape:pageopacity="0" inkscape:window-height="735">
	</sodipodi:namedview>
<g>
	<path id="path4" opacity="0.2" enable-background="new    " d="M1.025,11.151c-0.004,0.119-0.018,0.236-0.018,0.356
		c0,5.535,4.457,9.992,9.993,9.992s9.993-4.457,9.993-9.992c0-0.12-0.015-0.237-0.02-0.356C20.786,16.52,15.14,19.125,11,19.125
		C6.973,19.125,1.213,16.52,1.025,11.151L1.025,11.151z"/>
	<path id="rect6" fill="#D8D8D8" d="M20.992,10.99L20.992,10.99c0-5.519-4.474-9.993-9.992-9.993l0,0
		c-5.518,0-9.993,4.474-9.993,9.993l0,0c0,5.52,4.475,9.993,9.993,9.993l0,0C16.519,20.983,20.992,16.51,20.992,10.99z"/>
	<path id="path12" opacity="0.2" fill="#FFFFFF" enable-background="new    " d="M11,0.998c-5.536,0-9.993,4.456-9.993,9.993
		c0,0.041,0.004,0.08,0.006,0.119C1.139,5.684,5.543,1.458,11,1.458c5.458,0,9.861,4.226,9.986,9.651
		c0.003-0.04,0.007-0.08,0.007-0.119C20.992,5.453,16.535,0.998,11,0.998z"/>
	<g id="Capa_5" transform="matrix(0.53440278,0,0,0.53440278,-73.915744,-37.100741)">
		<circle id="circle49" opacity="0.2" fill="#010002" enable-background="new    " cx="158.922" cy="90.884" r="15.929"/>
		<circle id="circle51" fill="#56575A" cx="158.922" cy="89.972" r="15.929"/>
		<g id="g53" opacity="0.2">
			<path id="path55" inkscape:connector-curvature="0" fill="#010002" d="M148.175,87.606c1.952-1.486,5.791-4.578,8.033-6.44
				c1.519-1.261,4.039-1.205,5.515,0.569c1.513,1.816,1.012,4.138-0.344,5.406c-1.731,1.621-5.834,4.851-7.9,6.494
				c-2.271,1.804-4.384,1.226-5.894-0.283C146.379,92.145,146.282,89.048,148.175,87.606z"/>
			<path id="path57" inkscape:connector-curvature="0" fill="#010002" d="M156.299,93.946c1.952-1.484,5.788-4.575,8.032-6.437
				c1.52-1.261,4.039-1.207,5.517,0.567c1.511,1.818,1.014,4.139-0.34,5.407c-1.736,1.621-5.84,4.852-7.905,6.496
				c-2.27,1.804-4.383,1.223-5.892-0.287C154.503,98.486,154.407,95.392,156.299,93.946z"/>
		</g>
		<g id="g59">
			<path id="path61" inkscape:connector-curvature="0" fill="#D7D7D7" d="M148.336,86.72c1.951-1.486,5.789-4.578,8.032-6.44
				c1.519-1.261,4.038-1.205,5.516,0.569c1.511,1.816,1.014,4.138-0.342,5.407c-1.733,1.621-5.837,4.85-7.903,6.495
				c-2.271,1.804-4.384,1.223-5.893-0.285C146.54,91.258,146.443,88.162,148.336,86.72z"/>
			<path id="path63" inkscape:connector-curvature="0" fill="#D7D7D7" d="M156.307,93.066c1.949-1.486,5.789-4.579,8.031-6.439
				c1.52-1.261,4.039-1.207,5.515,0.567c1.509,1.818,1.016,4.141-0.34,5.409c-1.734,1.621-5.837,4.852-7.903,6.493
				c-2.271,1.804-4.385,1.226-5.893-0.287C154.51,97.601,154.413,94.507,156.307,93.066z"/>
		</g>
		<g id="g65" opacity="0.2">
			<circle id="circle67" fill="#010002" cx="158.82" cy="83.912" r="3.044"/>
			<circle id="circle69" fill="#010002" cx="150.786" cy="90.227" r="3.045"/>
			<circle id="circle71" fill="#010002" cx="158.912" cy="96.401" r="3.045"/>
			<circle id="circle73" fill="#010002" cx="166.855" cy="90.227" r="3.045"/>
		</g>
		<g id="g75">
			<circle id="circle77" fill="#2B2F85" cx="158.82" cy="83.167" r="3.044"/>
			<circle id="circle79" fill="#24954E" cx="150.786" cy="89.482" r="3.043"/>
			<circle id="circle81" fill="#EFCB4A" cx="158.912" cy="95.658" r="3.044"/>
			<circle id="circle83" fill="#C23235" cx="166.855" cy="89.482" r="3.043"/>
		</g>
		<path id="path85" inkscape:connector-curvature="0" opacity="0.15" fill="#FFFFFF" enable-background="new    " d="M153.83,89.475
			c0,0-0.65-2.292-3.044-2.292c-2.389,0-3.043,2.292-3.043,2.292c0-1.681,1.362-3.044,3.043-3.044
			C152.466,86.431,153.83,87.794,153.83,89.475z"/>
		<path id="path87" inkscape:connector-curvature="0" opacity="0.15" fill="#FFFFFF" enable-background="new    " d="
			M161.864,83.189c0,0-0.651-2.292-3.044-2.292c-2.389,0-3.043,2.292-3.043,2.292c0-1.68,1.362-3.043,3.043-3.043
			C160.503,80.147,161.864,81.509,161.864,83.189z"/>
		<path id="path89" inkscape:connector-curvature="0" opacity="0.15" fill="#FFFFFF" enable-background="new    " d="
			M169.897,89.438c0,0-0.651-2.292-3.043-2.292c-2.39,0-3.043,2.292-3.043,2.292c0-1.68,1.361-3.043,3.043-3.043
			C168.536,86.396,169.897,87.758,169.897,89.438z"/>
		<path id="path91" inkscape:connector-curvature="0" opacity="0.15" fill="#FFFFFF" enable-background="new    " d="
			M161.965,95.659c0,0-0.647-2.293-3.043-2.293c-2.388,0-3.043,2.293-3.043,2.293c0-1.681,1.363-3.044,3.043-3.044
			C160.603,92.614,161.965,93.977,161.965,95.659z"/>
		<path id="path93" inkscape:connector-curvature="0" opacity="0.15" fill="#FFFFFF" enable-background="new    " d="
			M174.851,89.972c0,0-1.517-15.017-15.928-15.017c-14.257,0-15.929,15.017-15.929,15.017c0-8.795,7.132-15.927,15.929-15.927
			C167.719,74.043,174.851,81.177,174.851,89.972z"/>
	</g>
</g>
</svg>
