<svg xmlns="http://www.w3.org/2000/svg" width="16" viewBox="0 0 4.5155556 4.5155556" height="16">
 <g>
  <path d="m 8 0 c -4.406 0 -8 3.594 -8 8 c 0 4.406 3.594 8 8 8 0.714 0 1.403 -0.103 2.063 -0.279 l -1.135 -1.133 0.854 -0.854 c -0.562 0.173 -1.161 0.266 -1.781 0.266 -3.326 0 -6 -2.674 -6 -6 0 -3.326 2.674 -6 6 -6 c 3.326 0 6 2.674 6 6 0 0.618 -0.092 1.213 -0.264 1.773 l 0.852 -0.846 1.133 1.135 c 0.177 -0.659 0.279 -1.349 0.279 -2.063 0 -4.406 -3.594 -8 -8 -8" transform="scale(0.2822222,0.2822222)" mix-blend-mode="normal" isolation="auto" white-space="normal" solid-opacity="1" solid-color="#000000" style="visibility:visible;shape-rendering:auto;color-interpolation-filters:linearRGB;fill:#ececec;opacity:1;image-rendering:auto;fill-opacity:1;stroke:none;display:inline;color:#000;fill-rule:nonzero;color-rendering:auto;color-interpolation:sRGB"/>
  <path d="m 0.847 2.258 0.847 -0.564 0 0.282 1.129 0 0 -0.282 0.847 0.564 -0.847 0.564 0 -0.282 -1.129 0 0 0.282 z" style="fill:#ececec;fill-opacity:1;stroke:none;fill-rule:evenodd"/>
 </g>
 <path d="m 4.116 2.919 -0.399 0.399 -0.399 -0.399 -0.399 0.399 0.399 0.399 -0.399 0.399 0.399 0.399 0.399 -0.399 0.399 0.399 0.399 -0.399 -0.399 -0.399 0.399 -0.399 -0.399 -0.399" style="fill:#ececec;opacity:1;fill-opacity:1;stroke:none;fill-rule:nonzero"/>
</svg>
