<svg xmlns="http://www.w3.org/2000/svg" width="24" height="24" version="1">
 <rect style="opacity:0.2" width="20" height="12" x="2" y="9.5" rx="1" ry="1"/>
 <path style="fill:#e95420" d="M 2,17 C 2,17.554 2.446,18 3,18 H 21 C 21.554,18 22,17.554 22,17 V 6 C 22,5.446 21.554,5 21,5 H 11 V 4 C 11,3.446 10.554,3 10,3 H 3 C 2.446,3 2,3.446 2,4"/>
 <rect style="opacity:0.2" width="20" height="12" x="2" y="8.5" rx="1" ry="1"/>
 <rect style="fill:#e4e4e4" width="16" height="8" x="4" y="7" rx="1" ry="1"/>
 <rect style="fill:#eb6637" width="20" height="12" x="2" y="9" rx="1" ry="1"/>
 <path style="opacity:0.1;fill:#ffffff" d="M 3,3 C 2.446,3 2,3.446 2,4 V 4.5 C 2,3.946 2.446,3.5 3,3.5 H 10 C 10.554,3.5 11,3.946 11,4.5 V 4 C 11,3.446 10.554,3 10,3 Z M 11,5 V 5.5 H 21 C 21.554,5.5 22,5.946 22,6.5 V 6 C 22,5.446 21.554,5 21,5 Z"/>
 <path style="fill:#522413" d="M 12,11 A 2,2 0 0 0 9.9999,13 2,2 0 0 0 12,15 2,2 0 0 0 14,13 2,2 0 0 0 12,11 Z M 10.307,15.062 C 9.0431,15.278 8.1267,15.714 8.0116,16.236 8.0099,16.242 8.0128,16.249 8.0116,16.254 8.0076,16.274 8.0075,16.292 8.0058,16.312 8.0052,16.322 7.9999,16.328 7.9999,16.338 7.9998,16.341 7.9999,16.341 7.9999,16.344 V 17.732 C 7.9999,17.881 8.0883,18 8.1991,18 H 15.801 C 15.912,18 16,17.881 16,17.732 V 16.328 C 15.999,16.296 15.988,16.268 15.98,16.236 15.865,15.715 14.951,15.278 13.691,15.062 A 2,2 0 0 1 12,16 2,2 0 0 1 10.307,15.062 Z"/>
</svg>
