<?xml version="1.0" encoding="UTF-8" standalone="no"?>
<svg id="svg2817" xmlns:rdf="http://www.w3.org/1999/02/22-rdf-syntax-ns#" xmlns="http://www.w3.org/2000/svg" height="16" width="16" version="1.0" xmlns:cc="http://creativecommons.org/ns#" xmlns:dc="http://purl.org/dc/elements/1.1/">
 <metadata id="metadata57">
  <rdf:RDF>
   <cc:Work rdf:about="">
    <dc:format>image/svg+xml</dc:format>
    <dc:type rdf:resource="http://purl.org/dc/dcmitype/StillImage"/>
    <dc:title/>
   </cc:Work>
  </rdf:RDF>
 </metadata>
 <text id="text4087-2-6-5" opacity=".8" font-size="12.666px" xml:space="preserve" y="-21.187399" x="877.22626" font-family="&apos;Bitstream Vera Sans&apos;" fill="#000000"><tspan id="tspan4089-7-2-9" y="-21.187399" x="877.22626"/></text>
 <text id="text4087-2-6-5-5" opacity=".8" font-size="12.666px" xml:space="preserve" y="-61.929108" x="901.18719" font-family="&apos;Bitstream Vera Sans&apos;" fill="#000000"><tspan id="tspan4089-7-2-9-6" y="-61.929108" x="901.18719"/></text>
 <text id="text4087-2-6-5-2" opacity=".8" font-size="12.666px" xml:space="preserve" y="-92.007248" x="-569.37115" font-family="&apos;Bitstream Vera Sans&apos;" fill="#000000"><tspan id="tspan4089-7-2-9-2" y="-92.007248" x="-569.37115"/></text>
 <text id="text4087-2-6-5-59" opacity=".8" font-size="12.666px" xml:space="preserve" y="653.5462" x="-2393.0571" font-family="&apos;Bitstream Vera Sans&apos;" fill="#000000"><tspan id="tspan4089-7-2-9-4" y="653.5462" x="-2393.0571"/></text>
 <text id="text4087-2-6-5-1" opacity=".8" font-size="12.666px" xml:space="preserve" y="-477.32822" x="-454.88007" font-family="&apos;Bitstream Vera Sans&apos;" fill="#000000"><tspan id="tspan4089-7-2-9-7" y="-477.32822" x="-454.88007"/></text>
 <text id="text4087-2-6-5-7" opacity=".8" font-size="12.666px" xml:space="preserve" y="-890.79834" x="352.72208" font-family="&apos;Bitstream Vera Sans&apos;" fill="#000000"><tspan id="tspan4089-7-2-9-1" y="-890.79834" x="352.72208"/></text>
 <text id="text4087-2-6-5-5-3" opacity=".8" font-size="12.666px" xml:space="preserve" y="-931.54004" x="376.68301" font-family="&apos;Bitstream Vera Sans&apos;" fill="#000000"><tspan id="tspan4089-7-2-9-6-5" y="-931.54004" x="376.68301"/></text>
 <text id="text4087-2-6-5-3" opacity=".8" font-size="12.666px" xml:space="preserve" y="-938.74994" x="-1114.7802" font-family="&apos;Bitstream Vera Sans&apos;" fill="#000000"><tspan id="tspan4089-7-2-9-18" y="-938.74994" x="-1114.7802"/></text>
 <text id="text4087-2-6-5-4" opacity=".8" font-size="12.666px" xml:space="preserve" y="-1211.9841" x="345.7626" font-family="&apos;Bitstream Vera Sans&apos;" fill="#000000"><tspan id="tspan4089-7-2-9-9" y="-1211.9841" x="345.7626"/></text>
 <text id="text4087-2-6-5-7-1" opacity=".8" font-size="12.666px" xml:space="preserve" y="-585.29272" x="1831.8861" font-family="&apos;Bitstream Vera Sans&apos;" fill="#000000"><tspan id="tspan4089-7-2-9-1-8" y="-585.29272" x="1831.8861"/></text>
 <text id="text4087-2-6-5-5-5" opacity=".8" font-size="12.666px" xml:space="preserve" y="-626.03448" x="1855.8469" font-family="&apos;Bitstream Vera Sans&apos;" fill="#000000"><tspan id="tspan4089-7-2-9-6-9" y="-626.03448" x="1855.8469"/></text>
 <text id="text4087-2-6-5-75" opacity=".8" font-size="12.666px" xml:space="preserve" y="-633.24438" x="364.38376" font-family="&apos;Bitstream Vera Sans&apos;" fill="#000000"><tspan id="tspan4089-7-2-9-3" y="-633.24438" x="364.38376"/></text>
 <text id="text4087-2-6-5-4-8" opacity=".8" font-size="12.666px" xml:space="preserve" y="-906.47839" x="1824.9266" font-family="&apos;Bitstream Vera Sans&apos;" fill="#000000"><tspan id="tspan4089-7-2-9-9-8" y="-906.47839" x="1824.9266"/></text>
 <text id="text4087-2-6-5-45" opacity=".8" font-size="12.666px" xml:space="preserve" y="-681.33569" x="-573.43256" font-family="&apos;Bitstream Vera Sans&apos;" fill="#000000"><tspan id="tspan4089-7-2-9-75" y="-681.33569" x="-573.43256"/></text>
 <text id="text4087-2-6-5-59-7" opacity=".8" font-size="12.666px" xml:space="preserve" y="64.217857" x="-2397.1182" font-family="&apos;Bitstream Vera Sans&apos;" fill="#000000"><tspan id="tspan4089-7-2-9-4-0" y="64.217857" x="-2397.1182"/></text>
 <text id="text4087-2-6-5-8" opacity=".8" font-size="12.666px" xml:space="preserve" y="157.09" x="-682.36279" font-family="&apos;Bitstream Vera Sans&apos;" fill="#000000"><tspan id="tspan4089-7-2-9-19" y="157.09" x="-682.36279"/></text>
 <text id="text4087-2-6-5-7-5" opacity=".8" font-size="12.666px" xml:space="preserve" y="-22.092148" x="426.66153" font-family="&apos;Bitstream Vera Sans&apos;" fill="#000000"><tspan id="tspan4089-7-2-9-1-2" y="-22.092148" x="426.66153"/></text>
 <text id="text4087-2-6-5-5-0" opacity=".8" font-size="12.666px" xml:space="preserve" y="-62.833855" x="450.62247" font-family="&apos;Bitstream Vera Sans&apos;" fill="#000000"><tspan id="tspan4089-7-2-9-6-2" y="-62.833855" x="450.62247"/></text>
 <text id="text4087-2-6-5-26" opacity=".8" font-size="12.666px" xml:space="preserve" y="-70.043823" x="-1040.8407" font-family="&apos;Bitstream Vera Sans&apos;" fill="#000000"><tspan id="tspan4089-7-2-9-90" y="-70.043823" x="-1040.8407"/></text>
 <text id="text4087-2-6-5-4-3" opacity=".8" font-size="12.666px" xml:space="preserve" y="-343.27789" x="419.70206" font-family="&apos;Bitstream Vera Sans&apos;" fill="#000000"><tspan id="tspan4089-7-2-9-9-5" y="-343.27789" x="419.70206"/></text>
 <text id="text4087-2-6-5-55" opacity=".8" font-size="12.666px" xml:space="preserve" y="-72.758072" x="-608.03253" font-family="&apos;Bitstream Vera Sans&apos;" fill="#000000"><tspan id="tspan4089-7-2-9-32" y="-72.758072" x="-608.03253"/></text>
 <text id="text4087-2-6-5-59-9" opacity=".8" font-size="12.666px" xml:space="preserve" y="672.79541" x="-2431.7185" font-family="&apos;Bitstream Vera Sans&apos;" fill="#000000"><tspan id="tspan4089-7-2-9-4-1" y="672.79541" x="-2431.7185"/></text>
 <text id="text4087-2-6-5-1-8" opacity=".8" font-size="12.666px" xml:space="preserve" y="-934.28857" x="-456.93948" font-family="&apos;Bitstream Vera Sans&apos;" fill="#000000"><tspan id="tspan4089-7-2-9-7-8" y="-934.28857" x="-456.93948"/></text>
 <text id="text4087-2-6-5-7-8" opacity=".8" font-size="12.666px" xml:space="preserve" y="-1347.7588" x="350.66266" font-family="&apos;Bitstream Vera Sans&apos;" fill="#000000"><tspan id="tspan4089-7-2-9-1-9" y="-1347.7588" x="350.66266"/></text>
 <text id="text4087-2-6-5-5-52" opacity=".8" font-size="12.666px" xml:space="preserve" y="-1388.5005" x="374.62357" font-family="&apos;Bitstream Vera Sans&apos;" fill="#000000"><tspan id="tspan4089-7-2-9-6-4" y="-1388.5005" x="374.62357"/></text>
 <text id="text4087-2-6-5-3-4" opacity=".8" font-size="12.666px" xml:space="preserve" y="-1395.7104" x="-1116.8396" font-family="&apos;Bitstream Vera Sans&apos;" fill="#000000"><tspan id="tspan4089-7-2-9-18-3" y="-1395.7104" x="-1116.8396"/></text>
 <text id="text4087-2-6-5-4-7" opacity=".8" font-size="12.666px" xml:space="preserve" y="-1668.9446" x="343.70316" font-family="&apos;Bitstream Vera Sans&apos;" fill="#000000"><tspan id="tspan4089-7-2-9-9-54" y="-1668.9446" x="343.70316"/></text>
 <text id="text4087-2-6-5-7-1-2" opacity=".8" font-size="12.666px" xml:space="preserve" y="-1042.2533" x="1829.8265" font-family="&apos;Bitstream Vera Sans&apos;" fill="#000000"><tspan id="tspan4089-7-2-9-1-8-0" y="-1042.2533" x="1829.8265"/></text>
 <text id="text4087-2-6-5-5-5-6" opacity=".8" font-size="12.666px" xml:space="preserve" y="-1082.9949" x="1853.7874" font-family="&apos;Bitstream Vera Sans&apos;" fill="#000000"><tspan id="tspan4089-7-2-9-6-9-8" y="-1082.9949" x="1853.7874"/></text>
 <text id="text4087-2-6-5-75-4" opacity=".8" font-size="12.666px" xml:space="preserve" y="-1090.2048" x="362.32431" font-family="&apos;Bitstream Vera Sans&apos;" fill="#000000"><tspan id="tspan4089-7-2-9-3-9" y="-1090.2048" x="362.32431"/></text>
 <text id="text4087-2-6-5-4-8-1" opacity=".8" font-size="12.666px" xml:space="preserve" y="-1363.439" x="1822.8671" font-family="&apos;Bitstream Vera Sans&apos;" fill="#000000"><tspan id="tspan4089-7-2-9-9-8-8" y="-1363.439" x="1822.8671"/></text>
 <text id="text4087-2-6-5-45-0" opacity=".8" font-size="12.666px" xml:space="preserve" y="-1138.2961" x="-575.492" font-family="&apos;Bitstream Vera Sans&apos;" fill="#000000"><tspan id="tspan4089-7-2-9-75-2" y="-1138.2961" x="-575.492"/></text>
 <text id="text4087-2-6-5-59-5" opacity=".8" font-size="12.666px" xml:space="preserve" y="-392.74261" x="-2399.1777" font-family="&apos;Bitstream Vera Sans&apos;" fill="#000000"><tspan id="tspan4089-7-2-9-4-00" y="-392.74261" x="-2399.1777"/></text>
 <text id="text4087-2-6-5-264" opacity=".8" font-size="12.666px" xml:space="preserve" y="-299.87045" x="-684.42224" font-family="&apos;Bitstream Vera Sans&apos;" fill="#000000"><tspan id="tspan4089-7-2-9-8" y="-299.87045" x="-684.42224"/></text>
 <text id="text4087-2-6-5-42" opacity=".8" font-size="12.666px" xml:space="preserve" y="-58.956276" x="155.5923" font-family="&apos;Bitstream Vera Sans&apos;" fill="#000000"><tspan id="tspan4089-7-2-9-93" y="-58.956276" x="155.5923"/></text>
 <text id="text4087-2-6-5-5-05" opacity=".8" font-size="12.666px" xml:space="preserve" y="-99.697998" x="179.55324" font-family="&apos;Bitstream Vera Sans&apos;" fill="#000000"><tspan id="tspan4089-7-2-9-6-49" y="-99.697998" x="179.55324"/></text>
 <text id="text4087-2-6-5-1-4" opacity=".8" font-size="12.666px" xml:space="preserve" y="-293.72662" x="-1090.2634" font-family="&apos;Bitstream Vera Sans&apos;" fill="#000000"><tspan id="tspan4089-7-2-9-7-7" y="-293.72662" x="-1090.2634"/></text>
 <text id="text4087-2-6-5-7-56" opacity=".8" font-size="12.666px" xml:space="preserve" y="-707.19678" x="-282.66141" font-family="&apos;Bitstream Vera Sans&apos;" fill="#000000"><tspan id="tspan4089-7-2-9-1-1" y="-707.19678" x="-282.66141"/></text>
 <text id="text4087-2-6-5-5-8" opacity=".8" font-size="12.666px" xml:space="preserve" y="-747.93848" x="-258.70047" font-family="&apos;Bitstream Vera Sans&apos;" fill="#000000"><tspan id="tspan4089-7-2-9-6-7" y="-747.93848" x="-258.70047"/></text>
 <text id="text4087-2-6-5-3-42" opacity=".8" font-size="12.666px" xml:space="preserve" y="-755.14838" x="-1750.1636" font-family="&apos;Bitstream Vera Sans&apos;" fill="#000000"><tspan id="tspan4089-7-2-9-18-39" y="-755.14838" x="-1750.1636"/></text>
 <text id="text4087-2-6-5-4-4" opacity=".8" font-size="12.666px" xml:space="preserve" y="-1028.3826" x="-289.62085" font-family="&apos;Bitstream Vera Sans&apos;" fill="#000000"><tspan id="tspan4089-7-2-9-9-3" y="-1028.3826" x="-289.62085"/></text>
 <text id="text4087-2-6-5-7-1-0" opacity=".8" font-size="12.666px" xml:space="preserve" y="-401.69113" x="1196.5026" font-family="&apos;Bitstream Vera Sans&apos;" fill="#000000"><tspan id="tspan4089-7-2-9-1-8-5" y="-401.69113" x="1196.5026"/></text>
 <text id="text4087-2-6-5-5-5-5" opacity=".8" font-size="12.666px" xml:space="preserve" y="-442.43286" x="1220.4634" font-family="&apos;Bitstream Vera Sans&apos;" fill="#000000"><tspan id="tspan4089-7-2-9-6-9-2" y="-442.43286" x="1220.4634"/></text>
 <text id="text4087-2-6-5-75-9" opacity=".8" font-size="12.666px" xml:space="preserve" y="-449.64282" x="-270.99973" font-family="&apos;Bitstream Vera Sans&apos;" fill="#000000"><tspan id="tspan4089-7-2-9-3-1" y="-449.64282" x="-270.99973"/></text>
 <text id="text4087-2-6-5-4-8-18" opacity=".8" font-size="12.666px" xml:space="preserve" y="-722.87689" x="1189.5431" font-family="&apos;Bitstream Vera Sans&apos;" fill="#000000"><tspan id="tspan4089-7-2-9-9-8-4" y="-722.87689" x="1189.5431"/></text>
 <text id="text4087-2-6-5-45-3" opacity=".8" font-size="12.666px" xml:space="preserve" y="-497.7341" x="-1208.816" font-family="&apos;Bitstream Vera Sans&apos;" fill="#000000"><tspan id="tspan4089-7-2-9-75-7" y="-497.7341" x="-1208.816"/></text>
 <text id="text4087-2-6-5-59-8" opacity=".8" font-size="12.666px" xml:space="preserve" y="247.81946" x="-3032.5017" font-family="&apos;Bitstream Vera Sans&apos;" fill="#000000"><tspan id="tspan4089-7-2-9-4-2" y="247.81946" x="-3032.5017"/></text>
 <g id="layer4-0" transform="matrix(.90475 0 0 .90475 -716.75 -708.29)">
  <text id="text4087-2-6-5-20" opacity=".8" font-size="14px" xml:space="preserve" y="1159.4154" x="-664.2738" font-family="&apos;Bitstream Vera Sans&apos;" fill="#000000"><tspan id="tspan4089-7-2-9-82" y="1159.4154" x="-664.2738"/></text>
 </g>
 <text id="text4087-2-6-5-9" opacity=".8" font-size="12.666px" xml:space="preserve" y="-13.949411" x="877.22626" font-family="&apos;Bitstream Vera Sans&apos;" fill="#000000"><tspan id="tspan4089-7-2-9-43" y="-13.949411" x="877.22626"/></text>
 <text id="text4087-2-6-5-5-51" opacity=".8" font-size="12.666px" xml:space="preserve" y="-54.691116" x="901.18719" font-family="&apos;Bitstream Vera Sans&apos;" fill="#000000"><tspan id="tspan4089-7-2-9-6-74" y="-54.691116" x="901.18719"/></text>
 <text id="text4087-2-6-5-2-3" opacity=".8" font-size="12.666px" xml:space="preserve" y="-84.769257" x="-569.37115" font-family="&apos;Bitstream Vera Sans&apos;" fill="#000000"><tspan id="tspan4089-7-2-9-2-1" y="-84.769257" x="-569.37115"/></text>
 <text id="text4087-2-6-5-59-4" opacity=".8" font-size="12.666px" xml:space="preserve" y="660.78418" x="-2393.0571" font-family="&apos;Bitstream Vera Sans&apos;" fill="#000000"><tspan id="tspan4089-7-2-9-4-6" y="660.78418" x="-2393.0571"/></text>
 <text id="text4087-2-6-5-1-9" opacity=".8" font-size="12.666px" xml:space="preserve" y="-470.09021" x="-454.88007" font-family="&apos;Bitstream Vera Sans&apos;" fill="#000000"><tspan id="tspan4089-7-2-9-7-4" y="-470.09021" x="-454.88007"/></text>
 <text id="text4087-2-6-5-7-2" opacity=".8" font-size="12.666px" xml:space="preserve" y="-883.5603" x="352.72208" font-family="&apos;Bitstream Vera Sans&apos;" fill="#000000"><tspan id="tspan4089-7-2-9-1-26" y="-883.5603" x="352.72208"/></text>
 <text id="text4087-2-6-5-5-3-4" opacity=".8" font-size="12.666px" xml:space="preserve" y="-924.30206" x="376.68301" font-family="&apos;Bitstream Vera Sans&apos;" fill="#000000"><tspan id="tspan4089-7-2-9-6-5-1" y="-924.30206" x="376.68301"/></text>
 <text id="text4087-2-6-5-3-2" opacity=".8" font-size="12.666px" xml:space="preserve" y="-931.51196" x="-1114.7802" font-family="&apos;Bitstream Vera Sans&apos;" fill="#000000"><tspan id="tspan4089-7-2-9-18-8" y="-931.51196" x="-1114.7802"/></text>
 <text id="text4087-2-6-5-4-89" opacity=".8" font-size="12.666px" xml:space="preserve" y="-1204.7461" x="345.7626" font-family="&apos;Bitstream Vera Sans&apos;" fill="#000000"><tspan id="tspan4089-7-2-9-9-2" y="-1204.7461" x="345.7626"/></text>
 <text id="text4087-2-6-5-7-1-8" opacity=".8" font-size="12.666px" xml:space="preserve" y="-578.05475" x="1831.8861" font-family="&apos;Bitstream Vera Sans&apos;" fill="#000000"><tspan id="tspan4089-7-2-9-1-8-8" y="-578.05475" x="1831.8861"/></text>
 <text id="text4087-2-6-5-5-5-8" opacity=".8" font-size="12.666px" xml:space="preserve" y="-618.79651" x="1855.8469" font-family="&apos;Bitstream Vera Sans&apos;" fill="#000000"><tspan id="tspan4089-7-2-9-6-9-6" y="-618.79651" x="1855.8469"/></text>
 <text id="text4087-2-6-5-75-8" opacity=".8" font-size="12.666px" xml:space="preserve" y="-626.00641" x="364.38376" font-family="&apos;Bitstream Vera Sans&apos;" fill="#000000"><tspan id="tspan4089-7-2-9-3-3" y="-626.00641" x="364.38376"/></text>
 <text id="text4087-2-6-5-4-8-8" opacity=".8" font-size="12.666px" xml:space="preserve" y="-899.24036" x="1824.9266" font-family="&apos;Bitstream Vera Sans&apos;" fill="#000000"><tspan id="tspan4089-7-2-9-9-8-3" y="-899.24036" x="1824.9266"/></text>
 <text id="text4087-2-6-5-45-33" opacity=".8" font-size="12.666px" xml:space="preserve" y="-674.09772" x="-573.43256" font-family="&apos;Bitstream Vera Sans&apos;" fill="#000000"><tspan id="tspan4089-7-2-9-75-8" y="-674.09772" x="-573.43256"/></text>
 <text id="text4087-2-6-5-59-7-0" opacity=".8" font-size="12.666px" xml:space="preserve" y="71.455849" x="-2397.1182" font-family="&apos;Bitstream Vera Sans&apos;" fill="#000000"><tspan id="tspan4089-7-2-9-4-0-4" y="71.455849" x="-2397.1182"/></text>
 <text id="text4087-2-6-5-8-7" opacity=".8" font-size="12.666px" xml:space="preserve" y="164.32799" x="-682.36279" font-family="&apos;Bitstream Vera Sans&apos;" fill="#000000"><tspan id="tspan4089-7-2-9-19-6" y="164.32799" x="-682.36279"/></text>
 <text id="text4087-2-6-5-7-5-8" opacity=".8" font-size="12.666px" xml:space="preserve" y="-14.85416" x="426.66153" font-family="&apos;Bitstream Vera Sans&apos;" fill="#000000"><tspan id="tspan4089-7-2-9-1-2-9" y="-14.85416" x="426.66153"/></text>
 <text id="text4087-2-6-5-5-0-0" opacity=".8" font-size="12.666px" xml:space="preserve" y="-55.595863" x="450.62247" font-family="&apos;Bitstream Vera Sans&apos;" fill="#000000"><tspan id="tspan4089-7-2-9-6-2-6" y="-55.595863" x="450.62247"/></text>
 <text id="text4087-2-6-5-26-8" opacity=".8" font-size="12.666px" xml:space="preserve" y="-62.805836" x="-1040.8407" font-family="&apos;Bitstream Vera Sans&apos;" fill="#000000"><tspan id="tspan4089-7-2-9-90-7" y="-62.805836" x="-1040.8407"/></text>
 <text id="text4087-2-6-5-4-3-9" opacity=".8" font-size="12.666px" xml:space="preserve" y="-336.03989" x="419.70206" font-family="&apos;Bitstream Vera Sans&apos;" fill="#000000"><tspan id="tspan4089-7-2-9-9-5-0" y="-336.03989" x="419.70206"/></text>
 <text id="text4087-2-6-5-55-3" opacity=".8" font-size="12.666px" xml:space="preserve" y="-65.520081" x="-608.03253" font-family="&apos;Bitstream Vera Sans&apos;" fill="#000000"><tspan id="tspan4089-7-2-9-32-3" y="-65.520081" x="-608.03253"/></text>
 <text id="text4087-2-6-5-59-9-3" opacity=".8" font-size="12.666px" xml:space="preserve" y="680.03345" x="-2431.7185" font-family="&apos;Bitstream Vera Sans&apos;" fill="#000000"><tspan id="tspan4089-7-2-9-4-1-7" y="680.03345" x="-2431.7185"/></text>
 <text id="text4087-2-6-5-1-8-3" opacity=".8" font-size="12.666px" xml:space="preserve" y="-927.0506" x="-456.93948" font-family="&apos;Bitstream Vera Sans&apos;" fill="#000000"><tspan id="tspan4089-7-2-9-7-8-2" y="-927.0506" x="-456.93948"/></text>
 <text id="text4087-2-6-5-7-8-6" opacity=".8" font-size="12.666px" xml:space="preserve" y="-1340.5208" x="350.66266" font-family="&apos;Bitstream Vera Sans&apos;" fill="#000000"><tspan id="tspan4089-7-2-9-1-9-5" y="-1340.5208" x="350.66266"/></text>
 <text id="text4087-2-6-5-5-52-2" opacity=".8" font-size="12.666px" xml:space="preserve" y="-1381.2626" x="374.62357" font-family="&apos;Bitstream Vera Sans&apos;" fill="#000000"><tspan id="tspan4089-7-2-9-6-4-6" y="-1381.2626" x="374.62357"/></text>
 <text id="text4087-2-6-5-3-4-5" opacity=".8" font-size="12.666px" xml:space="preserve" y="-1388.4724" x="-1116.8396" font-family="&apos;Bitstream Vera Sans&apos;" fill="#000000"><tspan id="tspan4089-7-2-9-18-3-8" y="-1388.4724" x="-1116.8396"/></text>
 <text id="text4087-2-6-5-4-7-7" opacity=".8" font-size="12.666px" xml:space="preserve" y="-1661.7065" x="343.70316" font-family="&apos;Bitstream Vera Sans&apos;" fill="#000000"><tspan id="tspan4089-7-2-9-9-54-9" y="-1661.7065" x="343.70316"/></text>
 <text id="text4087-2-6-5-7-1-2-6" opacity=".8" font-size="12.666px" xml:space="preserve" y="-1035.0154" x="1829.8265" font-family="&apos;Bitstream Vera Sans&apos;" fill="#000000"><tspan id="tspan4089-7-2-9-1-8-0-0" y="-1035.0154" x="1829.8265"/></text>
 <text id="text4087-2-6-5-5-5-6-4" opacity=".8" font-size="12.666px" xml:space="preserve" y="-1075.757" x="1853.7874" font-family="&apos;Bitstream Vera Sans&apos;" fill="#000000"><tspan id="tspan4089-7-2-9-6-9-8-1" y="-1075.757" x="1853.7874"/></text>
 <text id="text4087-2-6-5-75-4-0" opacity=".8" font-size="12.666px" xml:space="preserve" y="-1082.9668" x="362.32431" font-family="&apos;Bitstream Vera Sans&apos;" fill="#000000"><tspan id="tspan4089-7-2-9-3-9-4" y="-1082.9668" x="362.32431"/></text>
 <text id="text4087-2-6-5-4-8-1-8" opacity=".8" font-size="12.666px" xml:space="preserve" y="-1356.2009" x="1822.8671" font-family="&apos;Bitstream Vera Sans&apos;" fill="#000000"><tspan id="tspan4089-7-2-9-9-8-8-7" y="-1356.2009" x="1822.8671"/></text>
 <text id="text4087-2-6-5-45-0-0" opacity=".8" font-size="12.666px" xml:space="preserve" y="-1131.0581" x="-575.492" font-family="&apos;Bitstream Vera Sans&apos;" fill="#000000"><tspan id="tspan4089-7-2-9-75-2-8" y="-1131.0581" x="-575.492"/></text>
 <text id="text4087-2-6-5-59-5-6" opacity=".8" font-size="12.666px" xml:space="preserve" y="-385.50461" x="-2399.1777" font-family="&apos;Bitstream Vera Sans&apos;" fill="#000000"><tspan id="tspan4089-7-2-9-4-00-2" y="-385.50461" x="-2399.1777"/></text>
 <text id="text4087-2-6-5-264-4" opacity=".8" font-size="12.666px" xml:space="preserve" y="-292.63245" x="-684.42224" font-family="&apos;Bitstream Vera Sans&apos;" fill="#000000"><tspan id="tspan4089-7-2-9-8-7" y="-292.63245" x="-684.42224"/></text>
 <text id="text4087-2-6-5-42-9" opacity=".8" font-size="12.666px" xml:space="preserve" y="-51.718292" x="155.5923" font-family="&apos;Bitstream Vera Sans&apos;" fill="#000000"><tspan id="tspan4089-7-2-9-93-3" y="-51.718292" x="155.5923"/></text>
 <text id="text4087-2-6-5-5-05-9" opacity=".8" font-size="12.666px" xml:space="preserve" y="-92.460007" x="179.55324" font-family="&apos;Bitstream Vera Sans&apos;" fill="#000000"><tspan id="tspan4089-7-2-9-6-49-2" y="-92.460007" x="179.55324"/></text>
 <text id="text4087-2-6-5-1-4-8" opacity=".8" font-size="12.666px" xml:space="preserve" y="-286.48859" x="-1090.2634" font-family="&apos;Bitstream Vera Sans&apos;" fill="#000000"><tspan id="tspan4089-7-2-9-7-7-3" y="-286.48859" x="-1090.2634"/></text>
 <text id="text4087-2-6-5-7-56-0" opacity=".8" font-size="12.666px" xml:space="preserve" y="-699.9588" x="-282.66141" font-family="&apos;Bitstream Vera Sans&apos;" fill="#000000"><tspan id="tspan4089-7-2-9-1-1-1" y="-699.9588" x="-282.66141"/></text>
 <text id="text4087-2-6-5-5-8-7" opacity=".8" font-size="12.666px" xml:space="preserve" y="-740.7005" x="-258.70047" font-family="&apos;Bitstream Vera Sans&apos;" fill="#000000"><tspan id="tspan4089-7-2-9-6-7-8" y="-740.7005" x="-258.70047"/></text>
 <text id="text4087-2-6-5-3-42-9" opacity=".8" font-size="12.666px" xml:space="preserve" y="-747.91046" x="-1750.1636" font-family="&apos;Bitstream Vera Sans&apos;" fill="#000000"><tspan id="tspan4089-7-2-9-18-39-1" y="-747.91046" x="-1750.1636"/></text>
 <text id="text4087-2-6-5-4-4-5" opacity=".8" font-size="12.666px" xml:space="preserve" y="-1021.1445" x="-289.62085" font-family="&apos;Bitstream Vera Sans&apos;" fill="#000000"><tspan id="tspan4089-7-2-9-9-3-4" y="-1021.1445" x="-289.62085"/></text>
 <text id="text4087-2-6-5-7-1-0-9" opacity=".8" font-size="12.666px" xml:space="preserve" y="-394.45316" x="1196.5026" font-family="&apos;Bitstream Vera Sans&apos;" fill="#000000"><tspan id="tspan4089-7-2-9-1-8-5-2" y="-394.45316" x="1196.5026"/></text>
 <text id="text4087-2-6-5-5-5-5-5" opacity=".8" font-size="12.666px" xml:space="preserve" y="-435.19489" x="1220.4634" font-family="&apos;Bitstream Vera Sans&apos;" fill="#000000"><tspan id="tspan4089-7-2-9-6-9-2-7" y="-435.19489" x="1220.4634"/></text>
 <text id="text4087-2-6-5-75-9-4" opacity=".8" font-size="12.666px" xml:space="preserve" y="-442.40482" x="-270.99973" font-family="&apos;Bitstream Vera Sans&apos;" fill="#000000"><tspan id="tspan4089-7-2-9-3-1-9" y="-442.40482" x="-270.99973"/></text>
 <text id="text4087-2-6-5-4-8-18-9" opacity=".8" font-size="12.666px" xml:space="preserve" y="-715.63892" x="1189.5431" font-family="&apos;Bitstream Vera Sans&apos;" fill="#000000"><tspan id="tspan4089-7-2-9-9-8-4-4" y="-715.63892" x="1189.5431"/></text>
 <text id="text4087-2-6-5-45-3-5" opacity=".8" font-size="12.666px" xml:space="preserve" y="-490.49609" x="-1208.816" font-family="&apos;Bitstream Vera Sans&apos;" fill="#000000"><tspan id="tspan4089-7-2-9-75-7-9" y="-490.49609" x="-1208.816"/></text>
 <text id="text4087-2-6-5-59-8-3" opacity=".8" font-size="12.666px" xml:space="preserve" y="255.05743" x="-3032.5017" font-family="&apos;Bitstream Vera Sans&apos;" fill="#000000"><tspan id="tspan4089-7-2-9-4-2-5" y="255.05743" x="-3032.5017"/></text>
 <g id="layer4-0-7" transform="matrix(.90475 0 0 .90475 -716.75 -701.05)">
  <text id="text4087-2-6-5-20-0" opacity=".8" font-size="14px" xml:space="preserve" y="1159.4154" x="-664.2738" font-family="&apos;Bitstream Vera Sans&apos;" fill="#000000"><tspan id="tspan4089-7-2-9-82-8" y="1159.4154" x="-664.2738"/></text>
 </g>
 <text id="text7276" font-size="12.666px" xml:space="preserve" y="-393.22546" x="435.90427" font-family="&apos;Droid Sans&apos;" fill="#000000"><tspan id="tspan7278" y="-393.22546" x="435.90427"/><tspan id="tspan7280" y="-377.3924" x="435.90427"/></text>
 <text id="text4087-2-6-5-51" opacity=".8" font-size="12.666px" xml:space="preserve" y="-875.27002" x="901.0882" font-family="&apos;Bitstream Vera Sans&apos;" fill="#000000"><tspan id="tspan4089-7-2-9-97" y="-875.27002" x="901.0882"/></text>
 <text id="text4087-2-6-5-59-2" opacity=".8" font-size="12.666px" xml:space="preserve" y="-129.71655" x="-922.59778" font-family="&apos;Bitstream Vera Sans&apos;" fill="#000000"><tspan id="tspan4089-7-2-9-4-4" y="-129.71655" x="-922.59778"/></text>
 <text id="text4087-2-6-5-7-7" opacity=".8" font-size="12.666px" xml:space="preserve" y="-1160.2659" x="1628.1677" font-family="&apos;Bitstream Vera Sans&apos;" fill="#000000"><tspan id="tspan4089-7-2-9-1-6" y="-1160.2659" x="1628.1677"/></text>
 <text id="text4087-2-6-5-5-6" opacity=".8" font-size="12.666px" xml:space="preserve" y="-1201.0076" x="1652.1285" font-family="&apos;Bitstream Vera Sans&apos;" fill="#000000"><tspan id="tspan4089-7-2-9-6-53" y="-1201.0076" x="1652.1285"/></text>
 <text id="text4087-2-6-5-54" opacity=".8" font-size="12.666px" xml:space="preserve" y="-1208.2175" x="160.66542" font-family="&apos;Bitstream Vera Sans&apos;" fill="#000000"><tspan id="tspan4089-7-2-9-0" y="-1208.2175" x="160.66542"/></text>
 <text id="text4087-2-6-5-4-1" opacity=".8" font-size="12.666px" xml:space="preserve" y="-1481.4517" x="1621.2083" font-family="&apos;Bitstream Vera Sans&apos;" fill="#000000"><tspan id="tspan4089-7-2-9-9-28" y="-1481.4517" x="1621.2083"/></text>
 <g id="g4380" transform="matrix(1.2308 0 0 1.2308 -1.8462 -1.8462)">
  <rect id="rect4203" transform="matrix(0,-1,-1,0,0,0)" rx=".65" ry=".65" height="13" width="13" y="-14.5" x="-14.5" fill="#fec006"/>
  <path id="path4009" d="m13.85 14.5c0.36 0 0.65-0.2815 0.65-0.6315v-5.8685h-13v5.8685c0 0.3499 0.2899 0.6316 0.65 0.6316z" fill="#7ec242"/>
 </g>
 <path id="path4378" style="enable-background:new" fill="#4d4d4d" d="m10.322 2c-0.258 0-0.4927 0.0433-0.7009 0.1309-0.2059 0.0876-0.3806 0.2179-0.5273 0.3906-0.1444 0.1704-0.2559 0.3831-0.334 0.6387-0.0781 0.2531-0.1172 0.5472-0.1172 0.8808v1.2344c0 0.3336 0.0391 0.6292 0.1172 0.8848 0.0804 0.2531 0.1935 0.4659 0.3379 0.6386 0.1467 0.1704 0.323 0.2992 0.5312 0.3867 0.2082 0.0876 0.4411 0.1309 0.6991 0.1309 0.26 0 0.495-0.0433 0.703-0.1309s0.385-0.2163 0.53-0.3867c0.144-0.1727 0.254-0.3855 0.33-0.6386 0.078-0.2556 0.117-0.5512 0.117-0.8848v-1.2344c0-0.3336-0.039-0.6277-0.117-0.8808-0.078-0.2556-0.192-0.4683-0.338-0.6387-0.145-0.1727-0.321-0.3031-0.53-0.3906-0.208-0.0876-0.44-0.1309-0.701-0.1309zm0 0.7988c0.227 0 0.396 0.084 0.51 0.252 0.09 0.1334 0.137 0.9284 0.16 1.4609l0.022-0.0156v0.9297c0 0.3715-0.057 0.6463-0.17 0.8262-0.111 0.1798-0.284 0.2695-0.516 0.2695-0.222 0-0.3902-0.0809-0.5038-0.2442-0.1096-0.1598-0.1687-0.4056-0.1836-0.7285l-0.0039 0.002v-1.666c0-0.3692 0.0564-0.6429 0.1699-0.8203 0.1136-0.1775 0.2864-0.2657 0.5154-0.2657z"/>
 <path id="path4376" style="enable-background:new" fill="#4d4d4d" d="m5.8633 2.0038c-0.27448 0-0.52531 0.045-0.75247 0.13488-0.22479 0.0876-0.41764 0.20822-0.57855 0.36203-0.15854 0.15381-0.28158 0.33365-0.36914 0.53951-0.08755 0.20349-0.13133 0.42-0.13133 0.64954h0.99028c0-0.27213 0.06625-0.48391 0.19876-0.63535 0.13488-0.15144 0.33838-0.22716 0.61049-0.22716 0.10175 0 0.19403 0.0166 0.27685 0.0497 0.08519 0.0331 0.15736 0.0816 0.21651 0.14553 0.06152 0.0616 0.10885 0.13724 0.14198 0.22715 0.03313 0.0899 0.04969 0.19285 0.04969 0.30881 0 0.0781-0.01302 0.15853-0.03905 0.24135-0.02366 0.0828-0.06389 0.17274-0.12068 0.26976-0.05442 0.0947-0.12659 0.19994-0.21651 0.31589-0.08991 0.11592-0.19995 0.24491-0.33009 0.38688l-1.6718 1.796v0.67439h3.5245v-0.79152h-2.2681l0.97253-1.0293c0.168-0.17274 0.32063-0.3372 0.45787-0.49336 0.13724-0.15855 0.25437-0.31354 0.35139-0.46497 0.09938-0.15144 0.1751-0.30407 0.22716-0.45787 0.05442-0.15618 0.08163-0.31945 0.08163-0.48982 0-0.2248-0.03549-0.42948-0.10649-0.61405-0.07099-0.18692-0.1751-0.34665-0.31235-0.47916-0.13488-0.13251-0.30406-0.23544-0.50756-0.3088-0.20113-0.0733-0.43302-0.11003-0.69568-0.11003z"/>
 <path id="path4370" style="enable-background:new" fill="#fff" d="m10.258 8.6895c-0.234 0-0.4518 0.0317-0.6506 0.0957-0.1964 0.0616-0.3654 0.1542-0.5097 0.2773-0.142 0.123-0.2536 0.2752-0.334 0.4551-0.0805 0.1775-0.1211 0.3829-0.1211 0.6174 0 0.251 0.0621 0.475 0.1875 0.672 0.1254 0.194 0.2994 0.347 0.5195 0.461-0.1254 0.059-0.24 0.131-0.3418 0.216-0.0994 0.083-0.1849 0.177-0.2558 0.284-0.071 0.104-0.1258 0.219-0.1661 0.347-0.0378 0.126-0.0566 0.259-0.0566 0.401 0 0.243 0.0433 0.458 0.1309 0.642 0.0899 0.185 0.2129 0.34 0.3691 0.465 0.1562 0.123 0.3402 0.217 0.5508 0.281 0.2129 0.064 0.4409 0.096 0.6879 0.096 0.243 0 0.471-0.032 0.681-0.096 0.211-0.064 0.393-0.158 0.547-0.281 0.156-0.125 0.278-0.28 0.365-0.465 0.09-0.184 0.135-0.399 0.135-0.642 0-0.287-0.073-0.535-0.223-0.748-0.146-0.213-0.346-0.378-0.597-0.497 0.22-0.115 0.394-0.27 0.519-0.464 0.128-0.197 0.192-0.421 0.192-0.672 0-0.2345-0.042-0.4399-0.125-0.6174-0.081-0.1799-0.193-0.3321-0.34-0.4551-0.144-0.1231-0.317-0.2158-0.516-0.2773-0.199-0.0638-0.414-0.0957-0.648-0.0957zm0 0.7988c0.099 0 0.187 0.0177 0.265 0.0508 0.081 0.0331 0.149 0.079 0.204 0.1406 0.056 0.0592 0.1 0.1316 0.13 0.2168 0.031 0.0852 0.047 0.1815 0.047 0.2855s-0.016 0.199-0.047 0.287c-0.028 0.085-0.07 0.157-0.125 0.219-0.054 0.061-0.119 0.111-0.197 0.146-0.078 0.033-0.168 0.049-0.267 0.049-0.1 0-0.19-0.016-0.27-0.049-0.078-0.036-0.1443-0.085-0.2011-0.146-0.0544-0.062-0.0966-0.134-0.125-0.219-0.0284-0.088-0.043-0.183-0.043-0.287 0-0.2157 0.0552-0.3851 0.1641-0.5082 0.1088-0.123 0.264-0.1855 0.465-0.1855zm0.004 2.1917c0.113 0 0.214 0.017 0.304 0.052 0.093 0.036 0.171 0.088 0.235 0.157 0.066 0.066 0.117 0.145 0.152 0.24 0.036 0.095 0.053 0.202 0.053 0.32 0 0.119-0.019 0.224-0.057 0.319-0.035 0.092-0.086 0.172-0.152 0.238-0.064 0.066-0.141 0.117-0.231 0.152-0.09 0.033-0.19 0.051-0.298 0.051-0.23 0-0.4124-0.068-0.5473-0.203s-0.2012-0.32-0.2012-0.557c0-0.118 0.0173-0.225 0.0528-0.32s0.0845-0.174 0.1484-0.24c0.0639-0.069 0.1406-0.121 0.2305-0.157 0.0918-0.035 0.1968-0.052 0.3108-0.052z"/>
 <path id="path4368" style="enable-background:new" fill="#fff" d="m6.1641 8.7617l-2.1719 3.4273 0.039 0.618h2.1485v1.123h0.9863v-1.123h0.5996v-0.797h-0.5996v-3.2483h-1.0019zm0.0156 1.3263v1.922h-1.2188l1.1231-1.75 0.0957-0.172z"/>
</svg>
