<svg height="16" viewBox="0 0 16 16" width="16" xmlns="http://www.w3.org/2000/svg"><g transform="matrix(1.0666667 0 0 1.0526316 -.53333361 -.68420877)"><path d="m6.2607406 9.6482981c1.9416452 1.1507689 2.1378404 2.0329869 1.7392594 2.7416649-.3985811.708679-1.2409891.975415-3.1826347-.175354-1.9416273-1.150769-4.13731579-3.4785695-4.31736529-4.2696283.75740579-.2354359 3.81911299.5525484 5.76074059 1.7033174z" fill="#80ffb3"/><path d="m7.8291764 9.1229011c1.120998 1.9931669.8611903 2.8579019.1708236 3.2670619-.6903668.409161-1.549825.207766-2.670823-1.785401-1.1209979-1.9931302-1.8886936-5.1360293-1.659305-5.9135308.7706184.1848372 3.0383065 2.4387397 4.1593044 4.4318699z" fill="#2aff80"/><path d="m9.443376 9.4729435c0 2.3015005-.6462215 2.9170195-1.443376 2.9170195-.7971546 0-1.443376-.615519-1.443376-2.9170195 0-2.3015009.8660256-5.4173226 1.443376-5.9729454.5773504.5556228 1.443376 3.6714445 1.443376 5.9729454z" fill="#00d455"/><path d="m10.670823 10.604562c-1.1210157 1.993167-1.9804671 2.194562-2.670823 1.785401-.6903563-.40916-.9501932-1.273895.1708228-3.2670619 1.121016-1.9931302 3.3886722-4.2470327 4.1593052-4.4318699.229367.7775015-.538289 3.9204006-1.659305 5.9135308z" fill="#0a4"/><path d="m10.670823 10.604562c-1.1210157 1.993167-1.9804671 2.194562-2.670823 1.785401-.6903563-.40916-.9501932-1.273895.1708228-3.2670619 1.121016-1.9931302 3.3886722-4.2470327 4.1593052-4.4318699.229367.7775015-.538289 3.9204006-1.659305 5.9135308z" fill="#0a4"/><path d="m11.182635 12.214609c-1.9416611 1.150732-2.7840633.884033-3.182635.175354-.3985721-.708678-.2024021-1.590933 1.739259-2.7416649 1.941643-1.1507319 5.003322-1.9387903 5.760741-1.7033174-.180068.7910588-2.375722 3.1188963-4.317365 4.2696283z" fill="#008033"/></g></svg>