<svg height="16" width="16" xmlns="http://www.w3.org/2000/svg"><text opacity=".8" x="877.22626" y="-21.187399"><tspan x="877.22626" y="-21.187399"/></text><text opacity=".8" x="901.18719" y="-61.929108"><tspan x="901.18719" y="-61.929108"/></text><text opacity=".8" x="-569.37115" y="-92.007248"><tspan x="-569.37115" y="-92.007248"/></text><text opacity=".8" x="-2393.0571" y="653.5462"><tspan x="-2393.0571" y="653.5462"/></text><text opacity=".8" x="-454.88007" y="-477.32822"><tspan x="-454.88007" y="-477.32822"/></text><text opacity=".8" x="352.72208" y="-890.79834"><tspan x="352.72208" y="-890.79834"/></text><text opacity=".8" x="376.68301" y="-931.54004"><tspan x="376.68301" y="-931.54004"/></text><text opacity=".8" x="-1114.7802" y="-938.74994"><tspan x="-1114.7802" y="-938.74994"/></text><text opacity=".8" x="345.7626" y="-1211.9841"><tspan x="345.7626" y="-1211.9841"/></text><text opacity=".8" x="1831.8861" y="-585.29272"><tspan x="1831.8861" y="-585.29272"/></text><text opacity=".8" x="1855.8469" y="-626.03448"><tspan x="1855.8469" y="-626.03448"/></text><text opacity=".8" x="364.38376" y="-633.24438"><tspan x="364.38376" y="-633.24438"/></text><text opacity=".8" x="1824.9266" y="-906.47839"><tspan x="1824.9266" y="-906.47839"/></text><text opacity=".8" x="-573.43256" y="-681.33569"><tspan x="-573.43256" y="-681.33569"/></text><text opacity=".8" x="-2397.1182" y="64.217857"><tspan x="-2397.1182" y="64.217857"/></text><text opacity=".8" x="-682.36279" y="157.09"><tspan x="-682.36279" y="157.09"/></text><text opacity=".8" x="426.66153" y="-22.092148"><tspan x="426.66153" y="-22.092148"/></text><text opacity=".8" x="450.62247" y="-62.833855"><tspan x="450.62247" y="-62.833855"/></text><text opacity=".8" x="-1040.8407" y="-70.043823"><tspan x="-1040.8407" y="-70.043823"/></text><text opacity=".8" x="419.70206" y="-343.27789"><tspan x="419.70206" y="-343.27789"/></text><text opacity=".8" x="-608.03253" y="-72.758072"><tspan x="-608.03253" y="-72.758072"/></text><text opacity=".8" x="-2431.7185" y="672.79541"><tspan x="-2431.7185" y="672.79541"/></text><text opacity=".8" x="-456.93948" y="-934.28857"><tspan x="-456.93948" y="-934.28857"/></text><text opacity=".8" x="350.66266" y="-1347.7588"><tspan x="350.66266" y="-1347.7588"/></text><text opacity=".8" x="374.62357" y="-1388.5005"><tspan x="374.62357" y="-1388.5005"/></text><text opacity=".8" x="-1116.8396" y="-1395.7104"><tspan x="-1116.8396" y="-1395.7104"/></text><text opacity=".8" x="343.70316" y="-1668.9446"><tspan x="343.70316" y="-1668.9446"/></text><text opacity=".8" x="1829.8265" y="-1042.2533"><tspan x="1829.8265" y="-1042.2533"/></text><text opacity=".8" x="1853.7874" y="-1082.9949"><tspan x="1853.7874" y="-1082.9949"/></text><text opacity=".8" x="362.32431" y="-1090.2048"><tspan x="362.32431" y="-1090.2048"/></text><text opacity=".8" x="1822.8671" y="-1363.439"><tspan x="1822.8671" y="-1363.439"/></text><text opacity=".8" x="-575.492" y="-1138.2961"><tspan x="-575.492" y="-1138.2961"/></text><text opacity=".8" x="-2399.1777" y="-392.74261"><tspan x="-2399.1777" y="-392.74261"/></text><text opacity=".8" x="-684.42224" y="-299.87045"><tspan x="-684.42224" y="-299.87045"/></text><text opacity=".8" x="155.5923" y="-58.956276"><tspan x="155.5923" y="-58.956276"/></text><text opacity=".8" x="179.55324" y="-99.697998"><tspan x="179.55324" y="-99.697998"/></text><text opacity=".8" x="-1090.2634" y="-293.72662"><tspan x="-1090.2634" y="-293.72662"/></text><text opacity=".8" x="-282.66141" y="-707.19678"><tspan x="-282.66141" y="-707.19678"/></text><text opacity=".8" x="-258.70047" y="-747.93848"><tspan x="-258.70047" y="-747.93848"/></text><text opacity=".8" x="-1750.1636" y="-755.14838"><tspan x="-1750.1636" y="-755.14838"/></text><text opacity=".8" x="-289.62085" y="-1028.3826"><tspan x="-289.62085" y="-1028.3826"/></text><text opacity=".8" x="1196.5026" y="-401.69113"><tspan x="1196.5026" y="-401.69113"/></text><text opacity=".8" x="1220.4634" y="-442.43286"><tspan x="1220.4634" y="-442.43286"/></text><text opacity=".8" x="-270.99973" y="-449.64282"><tspan x="-270.99973" y="-449.64282"/></text><text opacity=".8" x="1189.5431" y="-722.87689"><tspan x="1189.5431" y="-722.87689"/></text><text opacity=".8" x="-1208.816" y="-497.7341"><tspan x="-1208.816" y="-497.7341"/></text><text opacity=".8" x="-3032.5017" y="247.81946"><tspan x="-3032.5017" y="247.81946"/></text><text opacity=".8" transform="matrix(.90475 0 0 .90475 -716.75 -708.29)" x="-664.2738" y="1159.4154"><tspan x="-664.2738" y="1159.4154"/></text><text opacity=".8" x="877.22626" y="-13.949411"><tspan x="877.22626" y="-13.949411"/></text><text opacity=".8" x="901.18719" y="-54.691116"><tspan x="901.18719" y="-54.691116"/></text><text opacity=".8" x="-569.37115" y="-84.769257"><tspan x="-569.37115" y="-84.769257"/></text><text opacity=".8" x="-2393.0571" y="660.78418"><tspan x="-2393.0571" y="660.78418"/></text><text opacity=".8" x="-454.88007" y="-470.09021"><tspan x="-454.88007" y="-470.09021"/></text><text opacity=".8" x="352.72208" y="-883.5603"><tspan x="352.72208" y="-883.5603"/></text><text opacity=".8" x="376.68301" y="-924.30206"><tspan x="376.68301" y="-924.30206"/></text><text opacity=".8" x="-1114.7802" y="-931.51196"><tspan x="-1114.7802" y="-931.51196"/></text><text opacity=".8" x="345.7626" y="-1204.7461"><tspan x="345.7626" y="-1204.7461"/></text><text opacity=".8" x="1831.8861" y="-578.05475"><tspan x="1831.8861" y="-578.05475"/></text><text opacity=".8" x="1855.8469" y="-618.79651"><tspan x="1855.8469" y="-618.79651"/></text><text opacity=".8" x="364.38376" y="-626.00641"><tspan x="364.38376" y="-626.00641"/></text><text opacity=".8" x="1824.9266" y="-899.24036"><tspan x="1824.9266" y="-899.24036"/></text><text opacity=".8" x="-573.43256" y="-674.09772"><tspan x="-573.43256" y="-674.09772"/></text><text opacity=".8" x="-2397.1182" y="71.455849"><tspan x="-2397.1182" y="71.455849"/></text><text opacity=".8" x="-682.36279" y="164.32799"><tspan x="-682.36279" y="164.32799"/></text><text opacity=".8" x="426.66153" y="-14.85416"><tspan x="426.66153" y="-14.85416"/></text><text opacity=".8" x="450.62247" y="-55.595863"><tspan x="450.62247" y="-55.595863"/></text><text opacity=".8" x="-1040.8407" y="-62.805836"><tspan x="-1040.8407" y="-62.805836"/></text><text opacity=".8" x="419.70206" y="-336.03989"><tspan x="419.70206" y="-336.03989"/></text><text opacity=".8" x="-608.03253" y="-65.520081"><tspan x="-608.03253" y="-65.520081"/></text><text opacity=".8" x="-2431.7185" y="680.03345"><tspan x="-2431.7185" y="680.03345"/></text><text opacity=".8" x="-456.93948" y="-927.0506"><tspan x="-456.93948" y="-927.0506"/></text><text opacity=".8" x="350.66266" y="-1340.5208"><tspan x="350.66266" y="-1340.5208"/></text><text opacity=".8" x="374.62357" y="-1381.2626"><tspan x="374.62357" y="-1381.2626"/></text><text opacity=".8" x="-1116.8396" y="-1388.4724"><tspan x="-1116.8396" y="-1388.4724"/></text><text opacity=".8" x="343.70316" y="-1661.7065"><tspan x="343.70316" y="-1661.7065"/></text><text opacity=".8" x="1829.8265" y="-1035.0154"><tspan x="1829.8265" y="-1035.0154"/></text><text opacity=".8" x="1853.7874" y="-1075.757"><tspan x="1853.7874" y="-1075.757"/></text><text opacity=".8" x="362.32431" y="-1082.9668"><tspan x="362.32431" y="-1082.9668"/></text><text opacity=".8" x="1822.8671" y="-1356.2009"><tspan x="1822.8671" y="-1356.2009"/></text><text opacity=".8" x="-575.492" y="-1131.0581"><tspan x="-575.492" y="-1131.0581"/></text><text opacity=".8" x="-2399.1777" y="-385.50461"><tspan x="-2399.1777" y="-385.50461"/></text><text opacity=".8" x="-684.42224" y="-292.63245"><tspan x="-684.42224" y="-292.63245"/></text><text opacity=".8" x="155.5923" y="-51.718292"><tspan x="155.5923" y="-51.718292"/></text><text opacity=".8" x="179.55324" y="-92.460007"><tspan x="179.55324" y="-92.460007"/></text><text opacity=".8" x="-1090.2634" y="-286.48859"><tspan x="-1090.2634" y="-286.48859"/></text><text opacity=".8" x="-282.66141" y="-699.9588"><tspan x="-282.66141" y="-699.9588"/></text><text opacity=".8" x="-258.70047" y="-740.7005"><tspan x="-258.70047" y="-740.7005"/></text><text opacity=".8" x="-1750.1636" y="-747.91046"><tspan x="-1750.1636" y="-747.91046"/></text><text opacity=".8" x="-289.62085" y="-1021.1445"><tspan x="-289.62085" y="-1021.1445"/></text><text opacity=".8" x="1196.5026" y="-394.45316"><tspan x="1196.5026" y="-394.45316"/></text><text opacity=".8" x="1220.4634" y="-435.19489"><tspan x="1220.4634" y="-435.19489"/></text><text opacity=".8" x="-270.99973" y="-442.40482"><tspan x="-270.99973" y="-442.40482"/></text><text opacity=".8" x="1189.5431" y="-715.63892"><tspan x="1189.5431" y="-715.63892"/></text><text opacity=".8" x="-1208.816" y="-490.49609"><tspan x="-1208.816" y="-490.49609"/></text><text opacity=".8" x="-3032.5017" y="255.05743"><tspan x="-3032.5017" y="255.05743"/></text><text opacity=".8" transform="matrix(.90475 0 0 .90475 -716.75 -701.05)" x="-664.2738" y="1159.4154"><tspan x="-664.2738" y="1159.4154"/></text><text x="435.90427" y="-393.22546"><tspan x="435.90427" y="-393.22546"/><tspan x="435.90427" y="-377.3924"/></text><text opacity=".8" x="901.0882" y="-875.27002"><tspan x="901.0882" y="-875.27002"/></text><text opacity=".8" x="-922.59778" y="-129.71655"><tspan x="-922.59778" y="-129.71655"/></text><text opacity=".8" x="1628.1677" y="-1160.2659"><tspan x="1628.1677" y="-1160.2659"/></text><text opacity=".8" x="1652.1285" y="-1201.0076"><tspan x="1652.1285" y="-1201.0076"/></text><text opacity=".8" x="160.66542" y="-1208.2175"><tspan x="160.66542" y="-1208.2175"/></text><text opacity=".8" x="1621.2083" y="-1481.4517"><tspan x="1621.2083" y="-1481.4517"/></text><text opacity=".8" x="808.80414" y="-28.039158"><tspan x="808.80414" y="-28.039158"/></text><text opacity=".8" x="832.76508" y="-68.780869"><tspan x="832.76508" y="-68.780869"/></text><text opacity=".8" x="-637.79327" y="-98.859009"><tspan x="-637.79327" y="-98.859009"/></text><text opacity=".8" x="-2461.4792" y="646.69446"><tspan x="-2461.4792" y="646.69446"/></text><text opacity=".8" x="-523.30219" y="-484.17996"><tspan x="-523.30219" y="-484.17996"/></text><text opacity=".8" x="284.29996" y="-897.65009"><tspan x="284.29996" y="-897.65009"/></text><text opacity=".8" x="308.26089" y="-938.39178"><tspan x="308.26089" y="-938.39178"/></text><text opacity=".8" x="-1183.2023" y="-945.60168"><tspan x="-1183.2023" y="-945.60168"/></text><text opacity=".8" x="277.34048" y="-1218.8359"><tspan x="277.34048" y="-1218.8359"/></text><text opacity=".8" x="1763.464" y="-592.14447"><tspan x="1763.464" y="-592.14447"/></text><text opacity=".8" x="1787.4248" y="-632.88623"><tspan x="1787.4248" y="-632.88623"/></text><text opacity=".8" x="295.96164" y="-640.09613"><tspan x="295.96164" y="-640.09613"/></text><text opacity=".8" x="1756.5045" y="-913.33014"><tspan x="1756.5045" y="-913.33014"/></text><text opacity=".8" x="-641.85468" y="-688.18744"><tspan x="-641.85468" y="-688.18744"/></text><text opacity=".8" x="-2465.5403" y="57.366096"><tspan x="-2465.5403" y="57.366096"/></text><text opacity=".8" x="-750.78491" y="150.23824"><tspan x="-750.78491" y="150.23824"/></text><text opacity=".8" x="358.23941" y="-28.943907"><tspan x="358.23941" y="-28.943907"/></text><text opacity=".8" x="382.20035" y="-69.685616"><tspan x="382.20035" y="-69.685616"/></text><text opacity=".8" x="-1109.2628" y="-76.895584"><tspan x="-1109.2628" y="-76.895584"/></text><text opacity=".8" x="351.27994" y="-350.12964"><tspan x="351.27994" y="-350.12964"/></text><text opacity=".8" x="-676.45465" y="-79.609833"><tspan x="-676.45465" y="-79.609833"/></text><text opacity=".8" x="-2500.1406" y="665.94366"><tspan x="-2500.1406" y="665.94366"/></text><text opacity=".8" x="-525.36157" y="-941.14032"><tspan x="-525.36157" y="-941.14032"/></text><text opacity=".8" x="282.24054" y="-1354.6106"><tspan x="282.24054" y="-1354.6106"/></text><text opacity=".8" x="306.20145" y="-1395.3523"><tspan x="306.20145" y="-1395.3523"/></text><text opacity=".8" x="-1185.2617" y="-1402.5623"><tspan x="-1185.2617" y="-1402.5623"/></text><text opacity=".8" x="275.28104" y="-1675.7964"><tspan x="275.28104" y="-1675.7964"/></text><text opacity=".8" x="1761.4044" y="-1049.1051"><tspan x="1761.4044" y="-1049.1051"/></text><text opacity=".8" x="1785.3652" y="-1089.8467"><tspan x="1785.3652" y="-1089.8467"/></text><text opacity=".8" x="293.90219" y="-1097.0566"><tspan x="293.90219" y="-1097.0566"/></text><text opacity=".8" x="1754.4449" y="-1370.2908"><tspan x="1754.4449" y="-1370.2908"/></text><text opacity=".8" x="-643.91412" y="-1145.1479"><tspan x="-643.91412" y="-1145.1479"/></text><text opacity=".8" x="-2467.5999" y="-399.59436"><tspan x="-2467.5999" y="-399.59436"/></text><text opacity=".8" x="-752.84436" y="-306.7222"><tspan x="-752.84436" y="-306.7222"/></text><text opacity=".8" x="87.170189" y="-65.808037"><tspan x="87.170189" y="-65.808037"/></text><text opacity=".8" x="111.13113" y="-106.54976"><tspan x="111.13113" y="-106.54976"/></text><text opacity=".8" x="-1158.6855" y="-300.57837"><tspan x="-1158.6855" y="-300.57837"/></text><text opacity=".8" x="-351.08353" y="-714.04852"><tspan x="-351.08353" y="-714.04852"/></text><text opacity=".8" x="-327.12259" y="-754.79022"><tspan x="-327.12259" y="-754.79022"/></text><text opacity=".8" x="-1818.5857" y="-762.00012"><tspan x="-1818.5857" y="-762.00012"/></text><text opacity=".8" x="-358.04297" y="-1035.2344"><tspan x="-358.04297" y="-1035.2344"/></text><text opacity=".8" x="1128.0804" y="-408.54288"><tspan x="1128.0804" y="-408.54288"/></text><text opacity=".8" x="1152.0413" y="-449.28461"><tspan x="1152.0413" y="-449.28461"/></text><text opacity=".8" x="-339.42184" y="-456.49457"><tspan x="-339.42184" y="-456.49457"/></text><text opacity=".8" x="1121.121" y="-729.72864"><tspan x="1121.121" y="-729.72864"/></text><text opacity=".8" x="-1277.2382" y="-504.58585"><tspan x="-1277.2382" y="-504.58585"/></text><text opacity=".8" x="-3100.9238" y="240.96771"><tspan x="-3100.9238" y="240.96771"/></text><text opacity=".8" transform="matrix(.90475 0 0 .90475 -785.17 -715.14)" x="-664.2738" y="1159.4154"><tspan x="-664.2738" y="1159.4154"/></text><text opacity=".8" x="808.80414" y="-20.80117"><tspan x="808.80414" y="-20.80117"/></text><text opacity=".8" x="832.76508" y="-61.542877"><tspan x="832.76508" y="-61.542877"/></text><text opacity=".8" x="-637.79327" y="-91.621017"><tspan x="-637.79327" y="-91.621017"/></text><text opacity=".8" x="-2461.4792" y="653.93243"><tspan x="-2461.4792" y="653.93243"/></text><text opacity=".8" x="-523.30219" y="-476.94196"><tspan x="-523.30219" y="-476.94196"/></text><text opacity=".8" x="284.29996" y="-890.41205"><tspan x="284.29996" y="-890.41205"/></text><text opacity=".8" x="308.26089" y="-931.15381"><tspan x="308.26089" y="-931.15381"/></text><text opacity=".8" x="-1183.2023" y="-938.36371"><tspan x="-1183.2023" y="-938.36371"/></text><text opacity=".8" x="277.34048" y="-1211.5979"><tspan x="277.34048" y="-1211.5979"/></text><text opacity=".8" x="1763.464" y="-584.90649"><tspan x="1763.464" y="-584.90649"/></text><text opacity=".8" x="1787.4248" y="-625.64825"><tspan x="1787.4248" y="-625.64825"/></text><text opacity=".8" x="295.96164" y="-632.85815"><tspan x="295.96164" y="-632.85815"/></text><text opacity=".8" x="1756.5045" y="-906.0921"><tspan x="1756.5045" y="-906.0921"/></text><text opacity=".8" x="-641.85468" y="-680.94946"><tspan x="-641.85468" y="-680.94946"/></text><text opacity=".8" x="-2465.5403" y="64.604088"><tspan x="-2465.5403" y="64.604088"/></text><text opacity=".8" x="-750.78491" y="157.47623"><tspan x="-750.78491" y="157.47623"/></text><text opacity=".8" x="358.23941" y="-21.705919"><tspan x="358.23941" y="-21.705919"/></text><text opacity=".8" x="382.20035" y="-62.447624"><tspan x="382.20035" y="-62.447624"/></text><text opacity=".8" x="-1109.2628" y="-69.657593"><tspan x="-1109.2628" y="-69.657593"/></text><text opacity=".8" x="351.27994" y="-342.89163"><tspan x="351.27994" y="-342.89163"/></text><text opacity=".8" x="-676.45465" y="-72.371841"><tspan x="-676.45465" y="-72.371841"/></text><text opacity=".8" x="-2500.1406" y="673.1817"><tspan x="-2500.1406" y="673.1817"/></text><text opacity=".8" x="-525.36157" y="-933.90234"><tspan x="-525.36157" y="-933.90234"/></text><text opacity=".8" x="282.24054" y="-1347.3726"><tspan x="282.24054" y="-1347.3726"/></text><text opacity=".8" x="306.20145" y="-1388.1144"><tspan x="306.20145" y="-1388.1144"/></text><text opacity=".8" x="-1185.2617" y="-1395.3242"><tspan x="-1185.2617" y="-1395.3242"/></text><text opacity=".8" x="275.28104" y="-1668.5583"><tspan x="275.28104" y="-1668.5583"/></text><text opacity=".8" x="1761.4044" y="-1041.8671"><tspan x="1761.4044" y="-1041.8671"/></text><text opacity=".8" x="1785.3652" y="-1082.6088"><tspan x="1785.3652" y="-1082.6088"/></text><text opacity=".8" x="293.90219" y="-1089.8186"><tspan x="293.90219" y="-1089.8186"/></text><text opacity=".8" x="1754.4449" y="-1363.0527"><tspan x="1754.4449" y="-1363.0527"/></text><text opacity=".8" x="-643.91412" y="-1137.9099"><tspan x="-643.91412" y="-1137.9099"/></text><text opacity=".8" x="-2467.5999" y="-392.35635"><tspan x="-2467.5999" y="-392.35635"/></text><text opacity=".8" x="-752.84436" y="-299.48419"><tspan x="-752.84436" y="-299.48419"/></text><text opacity=".8" x="87.170189" y="-58.570049"><tspan x="87.170189" y="-58.570049"/></text><text opacity=".8" x="111.13113" y="-99.311768"><tspan x="111.13113" y="-99.311768"/></text><text opacity=".8" x="-1158.6855" y="-293.34036"><tspan x="-1158.6855" y="-293.34036"/></text><text opacity=".8" x="-351.08353" y="-706.81055"><tspan x="-351.08353" y="-706.81055"/></text><text opacity=".8" x="-327.12259" y="-747.55225"><tspan x="-327.12259" y="-747.55225"/></text><text opacity=".8" x="-1818.5857" y="-754.76221"><tspan x="-1818.5857" y="-754.76221"/></text><text opacity=".8" x="-358.04297" y="-1027.9962"><tspan x="-358.04297" y="-1027.9962"/></text><text opacity=".8" x="1128.0804" y="-401.3049"><tspan x="1128.0804" y="-401.3049"/></text><text opacity=".8" x="1152.0413" y="-442.04663"><tspan x="1152.0413" y="-442.04663"/></text><text opacity=".8" x="-339.42184" y="-449.25656"><tspan x="-339.42184" y="-449.25656"/></text><text opacity=".8" x="1121.121" y="-722.49066"><tspan x="1121.121" y="-722.49066"/></text><text opacity=".8" x="-1277.2382" y="-497.34784"><tspan x="-1277.2382" y="-497.34784"/></text><text opacity=".8" x="-3100.9238" y="248.20569"><tspan x="-3100.9238" y="248.20569"/></text><text opacity=".8" transform="matrix(.90475 0 0 .90475 -785.17 -707.9)" x="-664.2738" y="1159.4154"><tspan x="-664.2738" y="1159.4154"/></text><text x="367.48215" y="-400.07721"><tspan x="367.48215" y="-400.07721"/><tspan x="367.48215" y="-384.24414"/></text><text opacity=".8" x="832.66608" y="-882.12177"><tspan x="832.66608" y="-882.12177"/></text><text opacity=".8" x="-991.0199" y="-136.56831"><tspan x="-991.0199" y="-136.56831"/></text><text opacity=".8" x="1559.7456" y="-1167.1177"><tspan x="1559.7456" y="-1167.1177"/></text><text opacity=".8" x="1583.7064" y="-1207.8594"><tspan x="1583.7064" y="-1207.8594"/></text><text opacity=".8" x="92.243309" y="-1215.0693"><tspan x="92.243309" y="-1215.0693"/></text><text opacity=".8" x="1552.7861" y="-1488.3035"><tspan x="1552.7861" y="-1488.3035"/></text><text opacity=".8" x="827.22626" y="-9.6873989"><tspan x="827.22626" y="-9.6873989"/></text><text opacity=".8" x="851.18719" y="-50.429108"><tspan x="851.18719" y="-50.429108"/></text><text opacity=".8" x="-619.37115" y="-80.507248"><tspan x="-619.37115" y="-80.507248"/></text><text opacity=".8" x="-2443.0571" y="665.0462"><tspan x="-2443.0571" y="665.0462"/></text><text opacity=".8" x="-504.88007" y="-465.82822"><tspan x="-504.88007" y="-465.82822"/></text><text opacity=".8" x="302.72208" y="-879.29834"><tspan x="302.72208" y="-879.29834"/></text><text opacity=".8" x="326.68301" y="-920.04004"><tspan x="326.68301" y="-920.04004"/></text><text opacity=".8" x="-1164.7802" y="-927.24994"><tspan x="-1164.7802" y="-927.24994"/></text><text opacity=".8" x="295.7626" y="-1200.4841"><tspan x="295.7626" y="-1200.4841"/></text><text opacity=".8" x="1781.8861" y="-573.79272"><tspan x="1781.8861" y="-573.79272"/></text><text opacity=".8" x="1805.8469" y="-614.53448"><tspan x="1805.8469" y="-614.53448"/></text><text opacity=".8" x="314.38376" y="-621.74438"><tspan x="314.38376" y="-621.74438"/></text><text opacity=".8" x="1774.9266" y="-894.97839"><tspan x="1774.9266" y="-894.97839"/></text><text opacity=".8" x="-623.43256" y="-669.83569"><tspan x="-623.43256" y="-669.83569"/></text><text opacity=".8" x="-2447.1182" y="75.717857"><tspan x="-2447.1182" y="75.717857"/></text><text opacity=".8" x="-732.36279" y="168.59"><tspan x="-732.36279" y="168.59"/></text><text opacity=".8" x="376.66153" y="-10.592148"><tspan x="376.66153" y="-10.592148"/></text><text opacity=".8" x="400.62247" y="-51.333855"><tspan x="400.62247" y="-51.333855"/></text><text opacity=".8" x="-1090.8407" y="-58.543827"><tspan x="-1090.8407" y="-58.543827"/></text><text opacity=".8" x="369.70206" y="-331.77789"><tspan x="369.70206" y="-331.77789"/></text><text opacity=".8" x="-658.03253" y="-61.258072"><tspan x="-658.03253" y="-61.258072"/></text><text opacity=".8" x="-2481.7185" y="684.29541"><tspan x="-2481.7185" y="684.29541"/></text><text opacity=".8" x="-506.93948" y="-922.78857"><tspan x="-506.93948" y="-922.78857"/></text><text opacity=".8" x="300.66266" y="-1336.2588"><tspan x="300.66266" y="-1336.2588"/></text><text opacity=".8" x="324.62357" y="-1377.0005"><tspan x="324.62357" y="-1377.0005"/></text><text opacity=".8" x="-1166.8396" y="-1384.2104"><tspan x="-1166.8396" y="-1384.2104"/></text><text opacity=".8" x="293.70316" y="-1657.4446"><tspan x="293.70316" y="-1657.4446"/></text><text opacity=".8" x="1779.8265" y="-1030.7533"><tspan x="1779.8265" y="-1030.7533"/></text><text opacity=".8" x="1803.7874" y="-1071.4949"><tspan x="1803.7874" y="-1071.4949"/></text><text opacity=".8" x="312.32431" y="-1078.7048"><tspan x="312.32431" y="-1078.7048"/></text><text opacity=".8" x="1772.8671" y="-1351.939"><tspan x="1772.8671" y="-1351.939"/></text><text opacity=".8" x="-625.492" y="-1126.7961"><tspan x="-625.492" y="-1126.7961"/></text><text opacity=".8" x="-2449.1777" y="-381.24261"><tspan x="-2449.1777" y="-381.24261"/></text><text opacity=".8" x="-734.42224" y="-288.37045"><tspan x="-734.42224" y="-288.37045"/></text><text opacity=".8" x="105.5923" y="-47.456276"><tspan x="105.5923" y="-47.456276"/></text><text opacity=".8" x="129.55324" y="-88.197998"><tspan x="129.55324" y="-88.197998"/></text><text opacity=".8" x="-1140.2634" y="-282.22662"><tspan x="-1140.2634" y="-282.22662"/></text><text opacity=".8" x="-332.66141" y="-695.69678"><tspan x="-332.66141" y="-695.69678"/></text><text opacity=".8" x="-308.70047" y="-736.43848"><tspan x="-308.70047" y="-736.43848"/></text><text opacity=".8" x="-1800.1636" y="-743.64838"><tspan x="-1800.1636" y="-743.64838"/></text><text opacity=".8" x="-339.62085" y="-1016.8825"><tspan x="-339.62085" y="-1016.8825"/></text><text opacity=".8" x="1146.5026" y="-390.19113"><tspan x="1146.5026" y="-390.19113"/></text><text opacity=".8" x="1170.4634" y="-430.93286"><tspan x="1170.4634" y="-430.93286"/></text><text opacity=".8" x="-320.99973" y="-438.14282"><tspan x="-320.99973" y="-438.14282"/></text><text opacity=".8" x="1139.5431" y="-711.37689"><tspan x="1139.5431" y="-711.37689"/></text><text opacity=".8" x="-1258.816" y="-486.2341"><tspan x="-1258.816" y="-486.2341"/></text><text opacity=".8" x="-3082.5017" y="259.31946"><tspan x="-3082.5017" y="259.31946"/></text><text opacity=".8" transform="matrix(.90475 0 0 .90475 -766.75 -696.79)" x="-664.2738" y="1159.4154"><tspan x="-664.2738" y="1159.4154"/></text><text opacity=".8" x="827.22626" y="-2.4494114"><tspan x="827.22626" y="-2.4494114"/></text><text opacity=".8" x="851.18719" y="-43.191116"><tspan x="851.18719" y="-43.191116"/></text><text opacity=".8" x="-619.37115" y="-73.269257"><tspan x="-619.37115" y="-73.269257"/></text><text opacity=".8" x="-2443.0571" y="672.28418"><tspan x="-2443.0571" y="672.28418"/></text><text opacity=".8" x="-504.88007" y="-458.59021"><tspan x="-504.88007" y="-458.59021"/></text><text opacity=".8" x="302.72208" y="-872.0603"><tspan x="302.72208" y="-872.0603"/></text><text opacity=".8" x="326.68301" y="-912.80206"><tspan x="326.68301" y="-912.80206"/></text><text opacity=".8" x="-1164.7802" y="-920.01196"><tspan x="-1164.7802" y="-920.01196"/></text><text opacity=".8" x="295.7626" y="-1193.2461"><tspan x="295.7626" y="-1193.2461"/></text><text opacity=".8" x="1781.8861" y="-566.55475"><tspan x="1781.8861" y="-566.55475"/></text><text opacity=".8" x="1805.8469" y="-607.29651"><tspan x="1805.8469" y="-607.29651"/></text><text opacity=".8" x="314.38376" y="-614.50641"><tspan x="314.38376" y="-614.50641"/></text><text opacity=".8" x="1774.9266" y="-887.74036"><tspan x="1774.9266" y="-887.74036"/></text><text opacity=".8" x="-623.43256" y="-662.59772"><tspan x="-623.43256" y="-662.59772"/></text><text opacity=".8" x="-2447.1182" y="82.955849"><tspan x="-2447.1182" y="82.955849"/></text><text opacity=".8" x="-732.36279" y="175.82799"><tspan x="-732.36279" y="175.82799"/></text><text opacity=".8" x="376.66153" y="-3.3541603"><tspan x="376.66153" y="-3.3541603"/></text><text opacity=".8" x="400.62247" y="-44.095863"><tspan x="400.62247" y="-44.095863"/></text><text opacity=".8" x="-1090.8407" y="-51.305836"><tspan x="-1090.8407" y="-51.305836"/></text><text opacity=".8" x="369.70206" y="-324.53989"><tspan x="369.70206" y="-324.53989"/></text><text opacity=".8" x="-658.03253" y="-54.020081"><tspan x="-658.03253" y="-54.020081"/></text><text opacity=".8" x="-2481.7185" y="691.53345"><tspan x="-2481.7185" y="691.53345"/></text><text opacity=".8" x="-506.93948" y="-915.5506"><tspan x="-506.93948" y="-915.5506"/></text><text opacity=".8" x="300.66266" y="-1329.0208"><tspan x="300.66266" y="-1329.0208"/></text><text opacity=".8" x="324.62357" y="-1369.7626"><tspan x="324.62357" y="-1369.7626"/></text><text opacity=".8" x="-1166.8396" y="-1376.9724"><tspan x="-1166.8396" y="-1376.9724"/></text><text opacity=".8" x="293.70316" y="-1650.2065"><tspan x="293.70316" y="-1650.2065"/></text><text opacity=".8" x="1779.8265" y="-1023.5153"><tspan x="1779.8265" y="-1023.5153"/></text><text opacity=".8" x="1803.7874" y="-1064.257"><tspan x="1803.7874" y="-1064.257"/></text><text opacity=".8" x="312.32431" y="-1071.4668"><tspan x="312.32431" y="-1071.4668"/></text><text opacity=".8" x="1772.8671" y="-1344.7009"><tspan x="1772.8671" y="-1344.7009"/></text><text opacity=".8" x="-625.492" y="-1119.5581"><tspan x="-625.492" y="-1119.5581"/></text><text opacity=".8" x="-2449.1777" y="-374.00461"><tspan x="-2449.1777" y="-374.00461"/></text><text opacity=".8" x="-734.42224" y="-281.13245"><tspan x="-734.42224" y="-281.13245"/></text><text opacity=".8" x="105.5923" y="-40.218292"><tspan x="105.5923" y="-40.218292"/></text><text opacity=".8" x="129.55324" y="-80.960007"><tspan x="129.55324" y="-80.960007"/></text><text opacity=".8" x="-1140.2634" y="-274.98859"><tspan x="-1140.2634" y="-274.98859"/></text><text opacity=".8" x="-332.66141" y="-688.4588"><tspan x="-332.66141" y="-688.4588"/></text><text opacity=".8" x="-308.70047" y="-729.2005"><tspan x="-308.70047" y="-729.2005"/></text><text opacity=".8" x="-1800.1636" y="-736.41046"><tspan x="-1800.1636" y="-736.41046"/></text><text opacity=".8" x="-339.62085" y="-1009.6445"><tspan x="-339.62085" y="-1009.6445"/></text><text opacity=".8" x="1146.5026" y="-382.95316"><tspan x="1146.5026" y="-382.95316"/></text><text opacity=".8" x="1170.4634" y="-423.69489"><tspan x="1170.4634" y="-423.69489"/></text><text opacity=".8" x="-320.99973" y="-430.90482"><tspan x="-320.99973" y="-430.90482"/></text><text opacity=".8" x="1139.5431" y="-704.13892"><tspan x="1139.5431" y="-704.13892"/></text><text opacity=".8" x="-1258.816" y="-478.99609"><tspan x="-1258.816" y="-478.99609"/></text><text opacity=".8" x="-3082.5017" y="266.55743"><tspan x="-3082.5017" y="266.55743"/></text><text opacity=".8" transform="matrix(.90475 0 0 .90475 -766.75 -689.55)" x="-664.2738" y="1159.4154"><tspan x="-664.2738" y="1159.4154"/></text><text x="385.90427" y="-381.72546"><tspan x="385.90427" y="-381.72546"/><tspan x="385.90427" y="-365.8924"/></text><text opacity=".8" x="851.0882" y="-863.77002"><tspan x="851.0882" y="-863.77002"/></text><text opacity=".8" x="-972.59778" y="-118.21655"><tspan x="-972.59778" y="-118.21655"/></text><text opacity=".8" x="1578.1677" y="-1148.7659"><tspan x="1578.1677" y="-1148.7659"/></text><text opacity=".8" x="1602.1285" y="-1189.5076"><tspan x="1602.1285" y="-1189.5076"/></text><text opacity=".8" x="110.66542" y="-1196.7175"><tspan x="110.66542" y="-1196.7175"/></text><text opacity=".8" x="1571.2083" y="-1469.9517"><tspan x="1571.2083" y="-1469.9517"/></text><path d="m14 15.142857v-14.285714c0-.474858-.364908-.857143-.818182-.857143h-10.3636362c-.4532727 0-.8181818.382285-.8181818.857143v14.285714c0 .474858.3649091.857143.8181818.857143h10.3636362c.453274 0 .818182-.382285.818182-.857143z" fill="#636e73"/><text opacity=".8" x="845.97205" y="-22.272144"><tspan x="845.97205" y="-22.272144"/></text><text opacity=".8" x="869.93298" y="-63.013855"><tspan x="869.93298" y="-63.013855"/></text><text opacity=".8" x="-600.62537" y="-93.091995"><tspan x="-600.62537" y="-93.091995"/></text><text opacity=".8" x="-2424.3113" y="652.46149"><tspan x="-2424.3113" y="652.46149"/></text><text opacity=".8" x="-486.13431" y="-478.41296"><tspan x="-486.13431" y="-478.41296"/></text><text opacity=".8" x="321.46783" y="-891.88306"><tspan x="321.46783" y="-891.88306"/></text><text opacity=".8" x="345.42877" y="-932.62476"><tspan x="345.42877" y="-932.62476"/></text><text opacity=".8" x="-1146.0344" y="-939.83466"><tspan x="-1146.0344" y="-939.83466"/></text><text opacity=".8" x="314.50836" y="-1213.0688"><tspan x="314.50836" y="-1213.0688"/></text><text opacity=".8" x="1800.6318" y="-586.37744"><tspan x="1800.6318" y="-586.37744"/></text><text opacity=".8" x="1824.5927" y="-627.1192"><tspan x="1824.5927" y="-627.1192"/></text><text opacity=".8" x="333.12952" y="-634.3291"><tspan x="333.12952" y="-634.3291"/></text><text opacity=".8" x="1793.6724" y="-907.56311"><tspan x="1793.6724" y="-907.56311"/></text><text opacity=".8" x="-604.68677" y="-682.42041"><tspan x="-604.68677" y="-682.42041"/></text><text opacity=".8" x="-2428.3723" y="63.13311"><tspan x="-2428.3723" y="63.13311"/></text><text opacity=".8" x="-713.617" y="156.00525"><tspan x="-713.617" y="156.00525"/></text><text opacity=".8" x="395.40729" y="-23.176893"><tspan x="395.40729" y="-23.176893"/></text><text opacity=".8" x="419.36823" y="-63.918602"><tspan x="419.36823" y="-63.918602"/></text><text opacity=".8" x="-1072.095" y="-71.128571"><tspan x="-1072.095" y="-71.128571"/></text><text opacity=".8" x="388.44781" y="-344.36264"><tspan x="388.44781" y="-344.36264"/></text><text opacity=".8" x="-639.28674" y="-73.842819"><tspan x="-639.28674" y="-73.842819"/></text><text opacity=".8" x="-2462.9727" y="671.71069"><tspan x="-2462.9727" y="671.71069"/></text><text opacity=".8" x="-488.19373" y="-935.37329"><tspan x="-488.19373" y="-935.37329"/></text><text opacity=".8" x="319.40842" y="-1348.8435"><tspan x="319.40842" y="-1348.8435"/></text><text opacity=".8" x="343.36932" y="-1389.5852"><tspan x="343.36932" y="-1389.5852"/></text><text opacity=".8" x="-1148.0939" y="-1396.7952"><tspan x="-1148.0939" y="-1396.7952"/></text><text opacity=".8" x="312.44891" y="-1670.0293"><tspan x="312.44891" y="-1670.0293"/></text><text opacity=".8" x="1798.5723" y="-1043.338"><tspan x="1798.5723" y="-1043.338"/></text><text opacity=".8" x="1822.5331" y="-1084.0796"><tspan x="1822.5331" y="-1084.0796"/></text><text opacity=".8" x="331.07007" y="-1091.2896"><tspan x="331.07007" y="-1091.2896"/></text><text opacity=".8" x="1791.6128" y="-1364.5237"><tspan x="1791.6128" y="-1364.5237"/></text><text opacity=".8" x="-606.74622" y="-1139.3809"><tspan x="-606.74622" y="-1139.3809"/></text><text opacity=".8" x="-2430.4319" y="-393.82736"><tspan x="-2430.4319" y="-393.82736"/></text><text opacity=".8" x="-715.67645" y="-300.9552"><tspan x="-715.67645" y="-300.9552"/></text><text opacity=".8" x="124.33807" y="-60.041023"><tspan x="124.33807" y="-60.041023"/></text><text opacity=".8" x="148.299" y="-100.78275"><tspan x="148.299" y="-100.78275"/></text><text opacity=".8" x="-1121.5177" y="-294.81137"><tspan x="-1121.5177" y="-294.81137"/></text><text opacity=".8" x="-313.91565" y="-708.28149"><tspan x="-313.91565" y="-708.28149"/></text><text opacity=".8" x="-289.95471" y="-749.02319"><tspan x="-289.95471" y="-749.02319"/></text><text opacity=".8" x="-1781.4178" y="-756.23309"><tspan x="-1781.4178" y="-756.23309"/></text><text opacity=".8" x="-320.87509" y="-1029.4673"><tspan x="-320.87509" y="-1029.4673"/></text><text opacity=".8" x="1165.2483" y="-402.77588"><tspan x="1165.2483" y="-402.77588"/></text><text opacity=".8" x="1189.2091" y="-443.51761"><tspan x="1189.2091" y="-443.51761"/></text><text opacity=".8" x="-302.25397" y="-450.72757"><tspan x="-302.25397" y="-450.72757"/></text><text opacity=".8" x="1158.2888" y="-723.96161"><tspan x="1158.2888" y="-723.96161"/></text><text opacity=".8" x="-1240.0703" y="-498.81885"><tspan x="-1240.0703" y="-498.81885"/></text><text opacity=".8" x="-3063.7559" y="246.73471"><tspan x="-3063.7559" y="246.73471"/></text><text opacity=".8" x="-1349.006" y="339.60632"><tspan x="-1349.006" y="339.60632"/></text><text opacity=".8" x="845.97205" y="-15.034157"><tspan x="845.97205" y="-15.034157"/></text><text opacity=".8" x="869.93298" y="-55.775864"><tspan x="869.93298" y="-55.775864"/></text><text opacity=".8" x="-600.62537" y="-85.854004"><tspan x="-600.62537" y="-85.854004"/></text><text opacity=".8" x="-2424.3113" y="659.69946"><tspan x="-2424.3113" y="659.69946"/></text><text opacity=".8" x="-486.13431" y="-471.17496"><tspan x="-486.13431" y="-471.17496"/></text><text opacity=".8" x="321.46783" y="-884.64502"><tspan x="321.46783" y="-884.64502"/></text><text opacity=".8" x="345.42877" y="-925.38678"><tspan x="345.42877" y="-925.38678"/></text><text opacity=".8" x="-1146.0344" y="-932.59668"><tspan x="-1146.0344" y="-932.59668"/></text><text opacity=".8" x="314.50836" y="-1205.8308"><tspan x="314.50836" y="-1205.8308"/></text><text opacity=".8" x="1800.6318" y="-579.13947"><tspan x="1800.6318" y="-579.13947"/></text><text opacity=".8" x="1824.5927" y="-619.88123"><tspan x="1824.5927" y="-619.88123"/></text><text opacity=".8" x="333.12952" y="-627.09113"><tspan x="333.12952" y="-627.09113"/></text><text opacity=".8" x="1793.6724" y="-900.32507"><tspan x="1793.6724" y="-900.32507"/></text><text opacity=".8" x="-604.68677" y="-675.18243"><tspan x="-604.68677" y="-675.18243"/></text><text opacity=".8" x="-2428.3723" y="70.371101"><tspan x="-2428.3723" y="70.371101"/></text><text opacity=".8" x="-713.617" y="163.24324"><tspan x="-713.617" y="163.24324"/></text><text opacity=".8" x="395.40729" y="-15.938906"><tspan x="395.40729" y="-15.938906"/></text><text opacity=".8" x="419.36823" y="-56.680611"><tspan x="419.36823" y="-56.680611"/></text><text opacity=".8" x="-1072.095" y="-63.890583"><tspan x="-1072.095" y="-63.890583"/></text><text opacity=".8" x="388.44781" y="-337.12463"><tspan x="388.44781" y="-337.12463"/></text><text opacity=".8" x="-639.28674" y="-66.604828"><tspan x="-639.28674" y="-66.604828"/></text><text opacity=".8" x="-2462.9727" y="678.94873"><tspan x="-2462.9727" y="678.94873"/></text><text opacity=".8" x="-488.19373" y="-928.13531"><tspan x="-488.19373" y="-928.13531"/></text><text opacity=".8" x="319.40842" y="-1341.6055"><tspan x="319.40842" y="-1341.6055"/></text><text opacity=".8" x="343.36932" y="-1382.3473"><tspan x="343.36932" y="-1382.3473"/></text><text opacity=".8" x="-1148.0939" y="-1389.5571"><tspan x="-1148.0939" y="-1389.5571"/></text><text opacity=".8" x="312.44891" y="-1662.7913"><tspan x="312.44891" y="-1662.7913"/></text><text opacity=".8" x="1798.5723" y="-1036.1"><tspan x="1798.5723" y="-1036.1"/></text><text opacity=".8" x="1822.5331" y="-1076.8417"><tspan x="1822.5331" y="-1076.8417"/></text><text opacity=".8" x="331.07007" y="-1084.0515"><tspan x="331.07007" y="-1084.0515"/></text><text opacity=".8" x="1791.6128" y="-1357.2856"><tspan x="1791.6128" y="-1357.2856"/></text><text opacity=".8" x="-606.74622" y="-1132.1428"><tspan x="-606.74622" y="-1132.1428"/></text><text opacity=".8" x="-2430.4319" y="-386.58936"><tspan x="-2430.4319" y="-386.58936"/></text><text opacity=".8" x="-715.67645" y="-293.71719"><tspan x="-715.67645" y="-293.71719"/></text><text opacity=".8" x="124.33807" y="-52.80304"><tspan x="124.33807" y="-52.80304"/></text><text opacity=".8" x="148.299" y="-93.544754"><tspan x="148.299" y="-93.544754"/></text><text opacity=".8" x="-1121.5177" y="-287.57333"><tspan x="-1121.5177" y="-287.57333"/></text><text opacity=".8" x="-313.91565" y="-701.04352"><tspan x="-313.91565" y="-701.04352"/></text><text opacity=".8" x="-289.95471" y="-741.78522"><tspan x="-289.95471" y="-741.78522"/></text><text opacity=".8" x="-1781.4178" y="-748.99518"><tspan x="-1781.4178" y="-748.99518"/></text><text opacity=".8" x="-320.87509" y="-1022.2292"><tspan x="-320.87509" y="-1022.2292"/></text><text opacity=".8" x="1165.2483" y="-395.5379"><tspan x="1165.2483" y="-395.5379"/></text><text opacity=".8" x="1189.2091" y="-436.27963"><tspan x="1189.2091" y="-436.27963"/></text><text opacity=".8" x="-302.25397" y="-443.48956"><tspan x="-302.25397" y="-443.48956"/></text><text opacity=".8" x="1158.2888" y="-716.72363"><tspan x="1158.2888" y="-716.72363"/></text><text opacity=".8" x="-1240.0703" y="-491.58084"><tspan x="-1240.0703" y="-491.58084"/></text><text opacity=".8" x="-3063.7559" y="253.97269"><tspan x="-3063.7559" y="253.97269"/></text><text opacity=".8" x="-1349.006" y="346.84634"><tspan x="-1349.006" y="346.84634"/></text><text x="404.65002" y="-394.31021"><tspan x="404.65002" y="-394.31021"/><tspan x="404.65002" y="-378.47714"/></text><text opacity=".8" x="869.83398" y="-876.35474"><tspan x="869.83398" y="-876.35474"/></text><text opacity=".8" x="-953.85199" y="-130.8013"><tspan x="-953.85199" y="-130.8013"/></text><text opacity=".8" x="1596.9135" y="-1161.3506"><tspan x="1596.9135" y="-1161.3506"/></text><text opacity=".8" x="1620.8743" y="-1202.0923"><tspan x="1620.8743" y="-1202.0923"/></text><text opacity=".8" x="129.41118" y="-1209.3022"><tspan x="129.41118" y="-1209.3022"/></text><text opacity=".8" x="1589.954" y="-1482.5364"><tspan x="1589.954" y="-1482.5364"/></text><text opacity=".8" x="802.13196" y="-16.586098"><tspan x="802.13196" y="-16.586098"/></text><text opacity=".8" x="826.0929" y="-57.327805"><tspan x="826.0929" y="-57.327805"/></text><text opacity=".8" x="-644.46545" y="-87.405945"><tspan x="-644.46545" y="-87.405945"/></text><text opacity=".8" x="-2468.1514" y="658.14752"><tspan x="-2468.1514" y="658.14752"/></text><text opacity=".8" x="-529.97443" y="-472.72693"><tspan x="-529.97443" y="-472.72693"/></text><text opacity=".8" x="277.62772" y="-886.19702"><tspan x="277.62772" y="-886.19702"/></text><text opacity=".8" x="301.58865" y="-926.93872"><tspan x="301.58865" y="-926.93872"/></text><text opacity=".8" x="-1189.8745" y="-934.14862"><tspan x="-1189.8745" y="-934.14862"/></text><text opacity=".8" x="270.66824" y="-1207.3828"><tspan x="270.66824" y="-1207.3828"/></text><text opacity=".8" x="1756.7917" y="-580.69141"><tspan x="1756.7917" y="-580.69141"/></text><text opacity=".8" x="1780.7526" y="-621.43317"><tspan x="1780.7526" y="-621.43317"/></text><text opacity=".8" x="289.2894" y="-628.64307"><tspan x="289.2894" y="-628.64307"/></text><text opacity=".8" x="1749.8323" y="-901.87708"><tspan x="1749.8323" y="-901.87708"/></text><text opacity=".8" x="-648.52686" y="-676.73438"><tspan x="-648.52686" y="-676.73438"/></text><text opacity=".8" x="-2472.2124" y="68.81916"><tspan x="-2472.2124" y="68.81916"/></text><text opacity=".8" x="-757.45709" y="161.6913"><tspan x="-757.45709" y="161.6913"/></text><text opacity=".8" x="351.56717" y="-17.490847"><tspan x="351.56717" y="-17.490847"/></text><text opacity=".8" x="375.52811" y="-58.232555"><tspan x="375.52811" y="-58.232555"/></text><text opacity=".8" x="-1115.9351" y="-65.442528"><tspan x="-1115.9351" y="-65.442528"/></text><text opacity=".8" x="344.6077" y="-338.67661"><tspan x="344.6077" y="-338.67661"/></text><text opacity=".8" x="-683.12683" y="-68.156769"><tspan x="-683.12683" y="-68.156769"/></text><text opacity=".8" x="-2506.8127" y="677.39673"><tspan x="-2506.8127" y="677.39673"/></text><text opacity=".8" x="-532.03381" y="-929.68726"><tspan x="-532.03381" y="-929.68726"/></text><text opacity=".8" x="275.5683" y="-1343.1575"><tspan x="275.5683" y="-1343.1575"/></text><text opacity=".8" x="299.52921" y="-1383.8992"><tspan x="299.52921" y="-1383.8992"/></text><text opacity=".8" x="-1191.934" y="-1391.1091"><tspan x="-1191.934" y="-1391.1091"/></text><text opacity=".8" x="268.6088" y="-1664.3433"><tspan x="268.6088" y="-1664.3433"/></text><text opacity=".8" x="1754.7322" y="-1037.652"><tspan x="1754.7322" y="-1037.652"/></text><text opacity=".8" x="1778.693" y="-1078.3936"><tspan x="1778.693" y="-1078.3936"/></text><text opacity=".8" x="287.22995" y="-1085.6035"><tspan x="287.22995" y="-1085.6035"/></text><text opacity=".8" x="1747.7727" y="-1358.8376"><tspan x="1747.7727" y="-1358.8376"/></text><text opacity=".8" x="-650.5863" y="-1133.6948"><tspan x="-650.5863" y="-1133.6948"/></text><text opacity=".8" x="-2474.272" y="-388.14133"><tspan x="-2474.272" y="-388.14133"/></text><text opacity=".8" x="-759.51654" y="-295.26917"><tspan x="-759.51654" y="-295.26917"/></text><text opacity=".8" x="80.497948" y="-54.354977"><tspan x="80.497948" y="-54.354977"/></text><text opacity=".8" x="104.45889" y="-95.096695"><tspan x="104.45889" y="-95.096695"/></text><text opacity=".8" x="-1165.3578" y="-289.12534"><tspan x="-1165.3578" y="-289.12534"/></text><text opacity=".8" x="-357.75577" y="-702.59546"><tspan x="-357.75577" y="-702.59546"/></text><text opacity=".8" x="-333.79483" y="-743.33716"><tspan x="-333.79483" y="-743.33716"/></text><text opacity=".8" x="-1825.2579" y="-750.54706"><tspan x="-1825.2579" y="-750.54706"/></text><text opacity=".8" x="-364.71521" y="-1023.7812"><tspan x="-364.71521" y="-1023.7812"/></text><text opacity=".8" x="1121.4082" y="-397.08984"><tspan x="1121.4082" y="-397.08984"/></text><text opacity=".8" x="1145.369" y="-437.83157"><tspan x="1145.369" y="-437.83157"/></text><text opacity=".8" x="-346.09409" y="-445.04153"><tspan x="-346.09409" y="-445.04153"/></text><text opacity=".8" x="1114.4487" y="-718.27557"><tspan x="1114.4487" y="-718.27557"/></text><text opacity=".8" x="-1283.9104" y="-493.13281"><tspan x="-1283.9104" y="-493.13281"/></text><text opacity=".8" x="-3107.5959" y="252.42075"><tspan x="-3107.5959" y="252.42075"/></text><text opacity=".8" x="-1392.8461" y="345.29239"><tspan x="-1392.8461" y="345.29239"/></text><text opacity=".8" x="802.13196" y="-9.3481102"><tspan x="802.13196" y="-9.3481102"/></text><text opacity=".8" x="826.0929" y="-50.089817"><tspan x="826.0929" y="-50.089817"/></text><text opacity=".8" x="-644.46545" y="-80.167961"><tspan x="-644.46545" y="-80.167961"/></text><text opacity=".8" x="-2468.1514" y="665.3855"><tspan x="-2468.1514" y="665.3855"/></text><text opacity=".8" x="-529.97443" y="-465.48892"><tspan x="-529.97443" y="-465.48892"/></text><text opacity=".8" x="277.62772" y="-878.95898"><tspan x="277.62772" y="-878.95898"/></text><text opacity=".8" x="301.58865" y="-919.70074"><tspan x="301.58865" y="-919.70074"/></text><text opacity=".8" x="-1189.8745" y="-926.91064"><tspan x="-1189.8745" y="-926.91064"/></text><text opacity=".8" x="270.66824" y="-1200.1448"><tspan x="270.66824" y="-1200.1448"/></text><text opacity=".8" x="1756.7917" y="-573.45343"><tspan x="1756.7917" y="-573.45343"/></text><text opacity=".8" x="1780.7526" y="-614.19519"><tspan x="1780.7526" y="-614.19519"/></text><text opacity=".8" x="289.2894" y="-621.40509"><tspan x="289.2894" y="-621.40509"/></text><text opacity=".8" x="1749.8323" y="-894.63904"><tspan x="1749.8323" y="-894.63904"/></text><text opacity=".8" x="-648.52686" y="-669.4964"><tspan x="-648.52686" y="-669.4964"/></text><text opacity=".8" x="-2472.2124" y="76.057152"><tspan x="-2472.2124" y="76.057152"/></text><text opacity=".8" x="-757.45709" y="168.92929"><tspan x="-757.45709" y="168.92929"/></text><text opacity=".8" x="351.56717" y="-10.252859"><tspan x="351.56717" y="-10.252859"/></text><text opacity=".8" x="375.52811" y="-50.994564"><tspan x="375.52811" y="-50.994564"/></text><text opacity=".8" x="-1115.9351" y="-58.204536"><tspan x="-1115.9351" y="-58.204536"/></text><text opacity=".8" x="344.6077" y="-331.4386"><tspan x="344.6077" y="-331.4386"/></text><text opacity=".8" x="-683.12683" y="-60.918781"><tspan x="-683.12683" y="-60.918781"/></text><text opacity=".8" x="-2506.8127" y="684.63477"><tspan x="-2506.8127" y="684.63477"/></text><text opacity=".8" x="-532.03381" y="-922.44928"><tspan x="-532.03381" y="-922.44928"/></text><text opacity=".8" x="275.5683" y="-1335.9194"><tspan x="275.5683" y="-1335.9194"/></text><text opacity=".8" x="299.52921" y="-1376.6613"><tspan x="299.52921" y="-1376.6613"/></text><text opacity=".8" x="-1191.934" y="-1383.8711"><tspan x="-1191.934" y="-1383.8711"/></text><text opacity=".8" x="268.6088" y="-1657.1052"><tspan x="268.6088" y="-1657.1052"/></text><text opacity=".8" x="1754.7322" y="-1030.4141"><tspan x="1754.7322" y="-1030.4141"/></text><text opacity=".8" x="1778.693" y="-1071.1556"><tspan x="1778.693" y="-1071.1556"/></text><text opacity=".8" x="287.22995" y="-1078.3655"><tspan x="287.22995" y="-1078.3655"/></text><text opacity=".8" x="1747.7727" y="-1351.5996"><tspan x="1747.7727" y="-1351.5996"/></text><text opacity=".8" x="-650.5863" y="-1126.4568"><tspan x="-650.5863" y="-1126.4568"/></text><text opacity=".8" x="-2474.272" y="-380.90332"><tspan x="-2474.272" y="-380.90332"/></text><text opacity=".8" x="-759.51654" y="-288.03116"><tspan x="-759.51654" y="-288.03116"/></text><text opacity=".8" x="80.497948" y="-47.116989"><tspan x="80.497948" y="-47.116989"/></text><text opacity=".8" x="104.45889" y="-87.858711"><tspan x="104.45889" y="-87.858711"/></text><text opacity=".8" x="-1165.3578" y="-281.8873"><tspan x="-1165.3578" y="-281.8873"/></text><text opacity=".8" x="-357.75577" y="-695.35748"><tspan x="-357.75577" y="-695.35748"/></text><text opacity=".8" x="-333.79483" y="-736.09918"><tspan x="-333.79483" y="-736.09918"/></text><text opacity=".8" x="-1825.2579" y="-743.30914"><tspan x="-1825.2579" y="-743.30914"/></text><text opacity=".8" x="-364.71521" y="-1016.5432"><tspan x="-364.71521" y="-1016.5432"/></text><text opacity=".8" x="1121.4082" y="-389.85187"><tspan x="1121.4082" y="-389.85187"/></text><text opacity=".8" x="1145.369" y="-430.5936"><tspan x="1145.369" y="-430.5936"/></text><text opacity=".8" x="-346.09409" y="-437.80353"><tspan x="-346.09409" y="-437.80353"/></text><text opacity=".8" x="1114.4487" y="-711.0376"><tspan x="1114.4487" y="-711.0376"/></text><text opacity=".8" x="-1283.9104" y="-485.89481"><tspan x="-1283.9104" y="-485.89481"/></text><text opacity=".8" x="-3107.5959" y="259.65872"><tspan x="-3107.5959" y="259.65872"/></text><text opacity=".8" x="-1392.8461" y="352.53238"><tspan x="-1392.8461" y="352.53238"/></text><text x="360.80991" y="-388.62418"><tspan x="360.80991" y="-388.62418"/><tspan x="360.80991" y="-372.79111"/></text><text opacity=".8" x="825.9939" y="-870.6687"><tspan x="825.9939" y="-870.6687"/></text><text opacity=".8" x="-997.69208" y="-125.11525"><tspan x="-997.69208" y="-125.11525"/></text><text opacity=".8" x="1553.0734" y="-1155.6646"><tspan x="1553.0734" y="-1155.6646"/></text><text opacity=".8" x="1577.0342" y="-1196.4062"><tspan x="1577.0342" y="-1196.4062"/></text><text opacity=".8" x="85.571068" y="-1203.6162"><tspan x="85.571068" y="-1203.6162"/></text><text opacity=".8" x="1546.1139" y="-1476.8503"><tspan x="1546.1139" y="-1476.8503"/></text><text opacity=".8" x="797.6756" y="-16.752445"><tspan x="797.6756" y="-16.752445"/></text><text opacity=".8" x="821.63654" y="-57.494152"><tspan x="821.63654" y="-57.494152"/></text><text opacity=".8" x="-648.92181" y="-87.572296"><tspan x="-648.92181" y="-87.572296"/></text><text opacity=".8" x="-2472.6077" y="657.9812"><tspan x="-2472.6077" y="657.9812"/></text><text opacity=".8" x="-534.43073" y="-472.89325"><tspan x="-534.43073" y="-472.89325"/></text><text opacity=".8" x="273.17139" y="-886.36334"><tspan x="273.17139" y="-886.36334"/></text><text opacity=".8" x="297.13232" y="-927.10504"><tspan x="297.13232" y="-927.10504"/></text><text opacity=".8" x="-1194.3308" y="-934.31494"><tspan x="-1194.3308" y="-934.31494"/></text><text opacity=".8" x="266.21191" y="-1207.5492"><tspan x="266.21191" y="-1207.5492"/></text><text opacity=".8" x="1752.3354" y="-580.85773"><tspan x="1752.3354" y="-580.85773"/></text><text opacity=".8" x="1776.2963" y="-621.59949"><tspan x="1776.2963" y="-621.59949"/></text><text opacity=".8" x="284.83307" y="-628.80939"><tspan x="284.83307" y="-628.80939"/></text><text opacity=".8" x="1745.376" y="-902.0434"><tspan x="1745.376" y="-902.0434"/></text><text opacity=".8" x="-652.98322" y="-676.9007"><tspan x="-652.98322" y="-676.9007"/></text><text opacity=".8" x="-2476.6687" y="68.652809"><tspan x="-2476.6687" y="68.652809"/></text><text opacity=".8" x="-761.91345" y="161.52495"><tspan x="-761.91345" y="161.52495"/></text><text opacity=".8" x="347.11084" y="-17.657194"><tspan x="347.11084" y="-17.657194"/></text><text opacity=".8" x="371.07178" y="-58.398903"><tspan x="371.07178" y="-58.398903"/></text><text opacity=".8" x="-1120.3914" y="-65.608871"><tspan x="-1120.3914" y="-65.608871"/></text><text opacity=".8" x="340.15137" y="-338.84293"><tspan x="340.15137" y="-338.84293"/></text><text opacity=".8" x="-687.58319" y="-68.32312"><tspan x="-687.58319" y="-68.32312"/></text><text opacity=".8" x="-2511.269" y="677.23041"><tspan x="-2511.269" y="677.23041"/></text><text opacity=".8" x="-536.49017" y="-929.85358"><tspan x="-536.49017" y="-929.85358"/></text><text opacity=".8" x="271.11197" y="-1343.3239"><tspan x="271.11197" y="-1343.3239"/></text><text opacity=".8" x="295.07288" y="-1384.0656"><tspan x="295.07288" y="-1384.0656"/></text><text opacity=".8" x="-1196.3903" y="-1391.2755"><tspan x="-1196.3903" y="-1391.2755"/></text><text opacity=".8" x="264.15247" y="-1664.5096"><tspan x="264.15247" y="-1664.5096"/></text><text opacity=".8" x="1750.2759" y="-1037.8184"><tspan x="1750.2759" y="-1037.8184"/></text><text opacity=".8" x="1774.2367" y="-1078.5599"><tspan x="1774.2367" y="-1078.5599"/></text><text opacity=".8" x="282.77362" y="-1085.7699"><tspan x="282.77362" y="-1085.7699"/></text><text opacity=".8" x="1743.3164" y="-1359.004"><tspan x="1743.3164" y="-1359.004"/></text><text opacity=".8" x="-655.04266" y="-1133.8612"><tspan x="-655.04266" y="-1133.8612"/></text><text opacity=".8" x="-2478.7283" y="-388.30765"><tspan x="-2478.7283" y="-388.30765"/></text><text opacity=".8" x="-763.9729" y="-295.43549"><tspan x="-763.9729" y="-295.43549"/></text><text opacity=".8" x="76.041634" y="-54.521324"><tspan x="76.041634" y="-54.521324"/></text><text opacity=".8" x="100.00257" y="-95.263046"><tspan x="100.00257" y="-95.263046"/></text><text opacity=".8" x="-1169.8141" y="-289.29166"><tspan x="-1169.8141" y="-289.29166"/></text><text opacity=".8" x="-362.2121" y="-702.76178"><tspan x="-362.2121" y="-702.76178"/></text><text opacity=".8" x="-338.25116" y="-743.50348"><tspan x="-338.25116" y="-743.50348"/></text><text opacity=".8" x="-1829.7142" y="-750.71338"><tspan x="-1829.7142" y="-750.71338"/></text><text opacity=".8" x="-369.17154" y="-1023.9475"><tspan x="-369.17154" y="-1023.9475"/></text><text opacity=".8" x="1116.9519" y="-397.25616"><tspan x="1116.9519" y="-397.25616"/></text><text opacity=".8" x="1140.9127" y="-437.99789"><tspan x="1140.9127" y="-437.99789"/></text><text opacity=".8" x="-350.55042" y="-445.20786"><tspan x="-350.55042" y="-445.20786"/></text><text opacity=".8" x="1109.9924" y="-718.44189"><tspan x="1109.9924" y="-718.44189"/></text><text opacity=".8" x="-1288.3667" y="-493.29913"><tspan x="-1288.3667" y="-493.29913"/></text><text opacity=".8" x="-3112.0522" y="252.25443"><tspan x="-3112.0522" y="252.25443"/></text><text opacity=".8" x="-1397.3024" y="345.12604"><tspan x="-1397.3024" y="345.12604"/></text><text opacity=".8" x="797.6756" y="-9.5144577"><tspan x="797.6756" y="-9.5144577"/></text><text opacity=".8" x="821.63654" y="-50.256165"><tspan x="821.63654" y="-50.256165"/></text><text opacity=".8" x="-648.92181" y="-80.334305"><tspan x="-648.92181" y="-80.334305"/></text><text opacity=".8" x="-2472.6077" y="665.21918"><tspan x="-2472.6077" y="665.21918"/></text><text opacity=".8" x="-534.43073" y="-465.65524"><tspan x="-534.43073" y="-465.65524"/></text><text opacity=".8" x="273.17139" y="-879.12531"><tspan x="273.17139" y="-879.12531"/></text><text opacity=".8" x="297.13232" y="-919.86707"><tspan x="297.13232" y="-919.86707"/></text><text opacity=".8" x="-1194.3308" y="-927.07697"><tspan x="-1194.3308" y="-927.07697"/></text><text opacity=".8" x="266.21191" y="-1200.3112"><tspan x="266.21191" y="-1200.3112"/></text><text opacity=".8" x="1752.3354" y="-573.61975"><tspan x="1752.3354" y="-573.61975"/></text><text opacity=".8" x="1776.2963" y="-614.36151"><tspan x="1776.2963" y="-614.36151"/></text><text opacity=".8" x="284.83307" y="-621.57141"><tspan x="284.83307" y="-621.57141"/></text><text opacity=".8" x="1745.376" y="-894.80536"><tspan x="1745.376" y="-894.80536"/></text><text opacity=".8" x="-652.98322" y="-669.66272"><tspan x="-652.98322" y="-669.66272"/></text><text opacity=".8" x="-2476.6687" y="75.8908"><tspan x="-2476.6687" y="75.8908"/></text><text opacity=".8" x="-761.91345" y="168.76294"><tspan x="-761.91345" y="168.76294"/></text><text opacity=".8" x="347.11084" y="-10.419207"><tspan x="347.11084" y="-10.419207"/></text><text opacity=".8" x="371.07178" y="-51.160912"><tspan x="371.07178" y="-51.160912"/></text><text opacity=".8" x="-1120.3914" y="-58.370884"><tspan x="-1120.3914" y="-58.370884"/></text><text opacity=".8" x="340.15137" y="-331.60492"><tspan x="340.15137" y="-331.60492"/></text><text opacity=".8" x="-687.58319" y="-61.085129"><tspan x="-687.58319" y="-61.085129"/></text><text opacity=".8" x="-2511.269" y="684.46844"><tspan x="-2511.269" y="684.46844"/></text><text opacity=".8" x="-536.49017" y="-922.6156"><tspan x="-536.49017" y="-922.6156"/></text><text opacity=".8" x="271.11197" y="-1336.0858"><tspan x="271.11197" y="-1336.0858"/></text><text opacity=".8" x="295.07288" y="-1376.8276"><tspan x="295.07288" y="-1376.8276"/></text><text opacity=".8" x="-1196.3903" y="-1384.0375"><tspan x="-1196.3903" y="-1384.0375"/></text><text opacity=".8" x="264.15247" y="-1657.2716"><tspan x="264.15247" y="-1657.2716"/></text><text opacity=".8" x="1750.2759" y="-1030.5803"><tspan x="1750.2759" y="-1030.5803"/></text><text opacity=".8" x="1774.2367" y="-1071.322"><tspan x="1774.2367" y="-1071.322"/></text><text opacity=".8" x="282.77362" y="-1078.5319"><tspan x="282.77362" y="-1078.5319"/></text><text opacity=".8" x="1743.3164" y="-1351.766"><tspan x="1743.3164" y="-1351.766"/></text><text opacity=".8" x="-655.04266" y="-1126.6232"><tspan x="-655.04266" y="-1126.6232"/></text><text opacity=".8" x="-2478.7283" y="-381.06964"><tspan x="-2478.7283" y="-381.06964"/></text><text opacity=".8" x="-763.9729" y="-288.19748"><tspan x="-763.9729" y="-288.19748"/></text><text opacity=".8" x="76.041634" y="-47.283337"><tspan x="76.041634" y="-47.283337"/></text><text opacity=".8" x="100.00257" y="-88.025055"><tspan x="100.00257" y="-88.025055"/></text><text opacity=".8" x="-1169.8141" y="-282.05365"><tspan x="-1169.8141" y="-282.05365"/></text><text opacity=".8" x="-362.2121" y="-695.5238"><tspan x="-362.2121" y="-695.5238"/></text><text opacity=".8" x="-338.25116" y="-736.2655"><tspan x="-338.25116" y="-736.2655"/></text><text opacity=".8" x="-1829.7142" y="-743.47546"><tspan x="-1829.7142" y="-743.47546"/></text><text opacity=".8" x="-369.17154" y="-1016.7095"><tspan x="-369.17154" y="-1016.7095"/></text><text opacity=".8" x="1116.9519" y="-390.01819"><tspan x="1116.9519" y="-390.01819"/></text><text opacity=".8" x="1140.9127" y="-430.75992"><tspan x="1140.9127" y="-430.75992"/></text><text opacity=".8" x="-350.55042" y="-437.96985"><tspan x="-350.55042" y="-437.96985"/></text><text opacity=".8" x="1109.9924" y="-711.20392"><tspan x="1109.9924" y="-711.20392"/></text><text opacity=".8" x="-1288.3667" y="-486.06113"><tspan x="-1288.3667" y="-486.06113"/></text><text opacity=".8" x="-3112.0522" y="259.4924"><tspan x="-3112.0522" y="259.4924"/></text><text opacity=".8" x="-1397.3024" y="352.36603"><tspan x="-1397.3024" y="352.36603"/></text><text x="356.35358" y="-388.7905"><tspan x="356.35358" y="-388.7905"/><tspan x="356.35358" y="-372.95743"/></text><text opacity=".8" x="821.53754" y="-870.83502"><tspan x="821.53754" y="-870.83502"/></text><text opacity=".8" x="-1002.1484" y="-125.2816"><tspan x="-1002.1484" y="-125.2816"/></text><text opacity=".8" x="1548.6171" y="-1155.8309"><tspan x="1548.6171" y="-1155.8309"/></text><text opacity=".8" x="1572.5779" y="-1196.5726"><tspan x="1572.5779" y="-1196.5726"/></text><text opacity=".8" x="81.114754" y="-1203.7826"><tspan x="81.114754" y="-1203.7826"/></text><text opacity=".8" x="1541.6576" y="-1477.0167"><tspan x="1541.6576" y="-1477.0167"/></text><text opacity=".8" x="742.27582" y="-28.332111"><tspan x="742.27582" y="-28.332111"/></text><text opacity=".8" x="766.23676" y="-69.073822"><tspan x="766.23676" y="-69.073822"/></text><text opacity=".8" x="-704.32159" y="-99.151962"><tspan x="-704.32159" y="-99.151962"/></text><text opacity=".8" x="-2528.0076" y="646.40155"><tspan x="-2528.0076" y="646.40155"/></text><text opacity=".8" x="-589.83051" y="-484.47293"><tspan x="-589.83051" y="-484.47293"/></text><text opacity=".8" x="217.77159" y="-897.94299"><tspan x="217.77159" y="-897.94299"/></text><text opacity=".8" x="241.73251" y="-938.68469"><tspan x="241.73251" y="-938.68469"/></text><text opacity=".8" x="-1249.7306" y="-945.89459"><tspan x="-1249.7306" y="-945.89459"/></text><text opacity=".8" x="210.81212" y="-1219.1289"><tspan x="210.81212" y="-1219.1289"/></text><text opacity=".8" x="1696.9357" y="-592.43738"><tspan x="1696.9357" y="-592.43738"/></text><text opacity=".8" x="1720.8965" y="-633.17914"><tspan x="1720.8965" y="-633.17914"/></text><text opacity=".8" x="229.43326" y="-640.38904"><tspan x="229.43326" y="-640.38904"/></text><text opacity=".8" x="1689.9762" y="-913.62305"><tspan x="1689.9762" y="-913.62305"/></text><text opacity=".8" x="-708.383" y="-688.48035"><tspan x="-708.383" y="-688.48035"/></text><text opacity=".8" x="-2532.0686" y="57.073143"><tspan x="-2532.0686" y="57.073143"/></text><text opacity=".8" x="-817.31323" y="149.94528"><tspan x="-817.31323" y="149.94528"/></text><text opacity=".8" x="291.71103" y="-29.236858"><tspan x="291.71103" y="-29.236858"/></text><text opacity=".8" x="315.67197" y="-69.978569"><tspan x="315.67197" y="-69.978569"/></text><text opacity=".8" x="-1175.7911" y="-77.188538"><tspan x="-1175.7911" y="-77.188538"/></text><text opacity=".8" x="284.75156" y="-350.42261"><tspan x="284.75156" y="-350.42261"/></text><text opacity=".8" x="-742.98297" y="-79.902786"><tspan x="-742.98297" y="-79.902786"/></text><text opacity=".8" x="-2566.6689" y="665.65076"><tspan x="-2566.6689" y="665.65076"/></text><text opacity=".8" x="-591.88995" y="-941.43323"><tspan x="-591.88995" y="-941.43323"/></text><text opacity=".8" x="215.71217" y="-1354.9036"><tspan x="215.71217" y="-1354.9036"/></text><text opacity=".8" x="239.67307" y="-1395.6453"><tspan x="239.67307" y="-1395.6453"/></text><text opacity=".8" x="-1251.79" y="-1402.8552"><tspan x="-1251.79" y="-1402.8552"/></text><text opacity=".8" x="208.75267" y="-1676.0894"><tspan x="208.75267" y="-1676.0894"/></text><text opacity=".8" x="1694.8761" y="-1049.3979"><tspan x="1694.8761" y="-1049.3979"/></text><text opacity=".8" x="1718.8369" y="-1090.1396"><tspan x="1718.8369" y="-1090.1396"/></text><text opacity=".8" x="227.37381" y="-1097.3496"><tspan x="227.37381" y="-1097.3496"/></text><text opacity=".8" x="1687.9166" y="-1370.5837"><tspan x="1687.9166" y="-1370.5837"/></text><text opacity=".8" x="-710.44244" y="-1145.4409"><tspan x="-710.44244" y="-1145.4409"/></text><text opacity=".8" x="-2534.1282" y="-399.88733"><tspan x="-2534.1282" y="-399.88733"/></text><text opacity=".8" x="-819.37268" y="-307.01517"><tspan x="-819.37268" y="-307.01517"/></text><text opacity=".8" x="20.641817" y="-66.10099"><tspan x="20.641817" y="-66.10099"/></text><text opacity=".8" x="44.602757" y="-106.84271"><tspan x="44.602757" y="-106.84271"/></text><text opacity=".8" x="-1225.2139" y="-300.87134"><tspan x="-1225.2139" y="-300.87134"/></text><text opacity=".8" x="-417.61191" y="-714.34143"><tspan x="-417.61191" y="-714.34143"/></text><text opacity=".8" x="-393.65097" y="-755.08313"><tspan x="-393.65097" y="-755.08313"/></text><text opacity=".8" x="-1885.114" y="-762.29303"><tspan x="-1885.114" y="-762.29303"/></text><text opacity=".8" x="-424.57135" y="-1035.5272"><tspan x="-424.57135" y="-1035.5272"/></text><text opacity=".8" x="1061.5521" y="-408.83585"><tspan x="1061.5521" y="-408.83585"/></text><text opacity=".8" x="1085.5129" y="-449.57758"><tspan x="1085.5129" y="-449.57758"/></text><text opacity=".8" x="-405.95023" y="-456.78754"><tspan x="-405.95023" y="-456.78754"/></text><text opacity=".8" x="1054.5927" y="-730.02155"><tspan x="1054.5927" y="-730.02155"/></text><text opacity=".8" x="-1343.7665" y="-504.87881"><tspan x="-1343.7665" y="-504.87881"/></text><text opacity=".8" x="-3167.4521" y="240.67474"><tspan x="-3167.4521" y="240.67474"/></text><text opacity=".8" x="-1452.7023" y="333.54636"><tspan x="-1452.7023" y="333.54636"/></text><text opacity=".8" x="742.27582" y="-21.094124"><tspan x="742.27582" y="-21.094124"/></text><text opacity=".8" x="766.23676" y="-61.835831"><tspan x="766.23676" y="-61.835831"/></text><text opacity=".8" x="-704.32159" y="-91.913971"><tspan x="-704.32159" y="-91.913971"/></text><text opacity=".8" x="-2528.0076" y="653.63953"><tspan x="-2528.0076" y="653.63953"/></text><text opacity=".8" x="-589.83051" y="-477.23492"><tspan x="-589.83051" y="-477.23492"/></text><text opacity=".8" x="217.77159" y="-890.70496"><tspan x="217.77159" y="-890.70496"/></text><text opacity=".8" x="241.73251" y="-931.44672"><tspan x="241.73251" y="-931.44672"/></text><text opacity=".8" x="-1249.7306" y="-938.65662"><tspan x="-1249.7306" y="-938.65662"/></text><text opacity=".8" x="210.81212" y="-1211.8909"><tspan x="210.81212" y="-1211.8909"/></text><text opacity=".8" x="1696.9357" y="-585.1994"><tspan x="1696.9357" y="-585.1994"/></text><text opacity=".8" x="1720.8965" y="-625.94116"><tspan x="1720.8965" y="-625.94116"/></text><text opacity=".8" x="229.43326" y="-633.15106"><tspan x="229.43326" y="-633.15106"/></text><text opacity=".8" x="1689.9762" y="-906.38501"><tspan x="1689.9762" y="-906.38501"/></text><text opacity=".8" x="-708.383" y="-681.24237"><tspan x="-708.383" y="-681.24237"/></text><text opacity=".8" x="-2532.0686" y="64.311134"><tspan x="-2532.0686" y="64.311134"/></text><text opacity=".8" x="-817.31323" y="157.18327"><tspan x="-817.31323" y="157.18327"/></text><text opacity=".8" x="291.71103" y="-21.998873"><tspan x="291.71103" y="-21.998873"/></text><text opacity=".8" x="315.67197" y="-62.740578"><tspan x="315.67197" y="-62.740578"/></text><text opacity=".8" x="-1175.7911" y="-69.950546"><tspan x="-1175.7911" y="-69.950546"/></text><text opacity=".8" x="284.75156" y="-343.1846"><tspan x="284.75156" y="-343.1846"/></text><text opacity=".8" x="-742.98297" y="-72.664795"><tspan x="-742.98297" y="-72.664795"/></text><text opacity=".8" x="-2566.6689" y="672.88879"><tspan x="-2566.6689" y="672.88879"/></text><text opacity=".8" x="-591.88995" y="-934.19525"><tspan x="-591.88995" y="-934.19525"/></text><text opacity=".8" x="215.71217" y="-1347.6655"><tspan x="215.71217" y="-1347.6655"/></text><text opacity=".8" x="239.67307" y="-1388.4073"><tspan x="239.67307" y="-1388.4073"/></text><text opacity=".8" x="-1251.79" y="-1395.6172"><tspan x="-1251.79" y="-1395.6172"/></text><text opacity=".8" x="208.75267" y="-1668.8513"><tspan x="208.75267" y="-1668.8513"/></text><text opacity=".8" x="1694.8761" y="-1042.16"><tspan x="1694.8761" y="-1042.16"/></text><text opacity=".8" x="1718.8369" y="-1082.9017"><tspan x="1718.8369" y="-1082.9017"/></text><text opacity=".8" x="227.37381" y="-1090.1116"><tspan x="227.37381" y="-1090.1116"/></text><text opacity=".8" x="1687.9166" y="-1363.3457"><tspan x="1687.9166" y="-1363.3457"/></text><text opacity=".8" x="-710.44244" y="-1138.2029"><tspan x="-710.44244" y="-1138.2029"/></text><text opacity=".8" x="-2534.1282" y="-392.64932"><tspan x="-2534.1282" y="-392.64932"/></text><text opacity=".8" x="-819.37268" y="-299.77716"><tspan x="-819.37268" y="-299.77716"/></text><text opacity=".8" x="20.641817" y="-58.863007"><tspan x="20.641817" y="-58.863007"/></text><text opacity=".8" x="44.602757" y="-99.604721"><tspan x="44.602757" y="-99.604721"/></text><text opacity=".8" x="-1225.2139" y="-293.6333"><tspan x="-1225.2139" y="-293.6333"/></text><text opacity=".8" x="-417.61191" y="-707.10345"><tspan x="-417.61191" y="-707.10345"/></text><text opacity=".8" x="-393.65097" y="-747.84515"><tspan x="-393.65097" y="-747.84515"/></text><text opacity=".8" x="-1885.114" y="-755.05511"><tspan x="-1885.114" y="-755.05511"/></text><text opacity=".8" x="-424.57135" y="-1028.2891"><tspan x="-424.57135" y="-1028.2891"/></text><text opacity=".8" x="1061.5521" y="-401.59787"><tspan x="1061.5521" y="-401.59787"/></text><text opacity=".8" x="1085.5129" y="-442.3396"><tspan x="1085.5129" y="-442.3396"/></text><text opacity=".8" x="-405.95023" y="-449.54953"><tspan x="-405.95023" y="-449.54953"/></text><text opacity=".8" x="1054.5927" y="-722.78357"><tspan x="1054.5927" y="-722.78357"/></text><text opacity=".8" x="-1343.7665" y="-497.64081"><tspan x="-1343.7665" y="-497.64081"/></text><text opacity=".8" x="-3167.4521" y="247.91272"><tspan x="-3167.4521" y="247.91272"/></text><text opacity=".8" x="-1452.7023" y="340.78638"><tspan x="-1452.7023" y="340.78638"/></text><text x="300.95377" y="-400.37018"><tspan x="300.95377" y="-400.37018"/><tspan x="300.95377" y="-384.53711"/></text><text opacity=".8" x="766.13776" y="-882.41467"><tspan x="766.13776" y="-882.41467"/></text><text opacity=".8" x="-1057.5482" y="-136.86127"><tspan x="-1057.5482" y="-136.86127"/></text><text opacity=".8" x="1493.2173" y="-1167.4106"><tspan x="1493.2173" y="-1167.4106"/></text><text opacity=".8" x="1517.1781" y="-1208.1523"><tspan x="1517.1781" y="-1208.1523"/></text><text opacity=".8" x="25.714937" y="-1215.3623"><tspan x="25.714937" y="-1215.3623"/></text><text opacity=".8" x="1486.2578" y="-1488.5964"><tspan x="1486.2578" y="-1488.5964"/></text><text opacity=".8" x="801.0354" y="-14.264621"><tspan x="801.0354" y="-14.264621"/></text><text opacity=".8" x="824.99634" y="-55.006329"><tspan x="824.99634" y="-55.006329"/></text><text opacity=".8" x="-645.56201" y="-85.084473"><tspan x="-645.56201" y="-85.084473"/></text><text opacity=".8" x="-2469.2478" y="660.46899"><tspan x="-2469.2478" y="660.46899"/></text><text opacity=".8" x="-531.07092" y="-470.40543"><tspan x="-531.07092" y="-470.40543"/></text><text opacity=".8" x="276.53119" y="-883.87555"><tspan x="276.53119" y="-883.87555"/></text><text opacity=".8" x="300.49213" y="-924.61725"><tspan x="300.49213" y="-924.61725"/></text><text opacity=".8" x="-1190.9711" y="-931.82715"><tspan x="-1190.9711" y="-931.82715"/></text><text opacity=".8" x="269.57172" y="-1205.0613"><tspan x="269.57172" y="-1205.0613"/></text><text opacity=".8" x="1755.6952" y="-578.36993"><tspan x="1755.6952" y="-578.36993"/></text><text opacity=".8" x="1779.656" y="-619.11169"><tspan x="1779.656" y="-619.11169"/></text><text opacity=".8" x="288.19287" y="-626.32159"><tspan x="288.19287" y="-626.32159"/></text><text opacity=".8" x="1748.7357" y="-899.5556"><tspan x="1748.7357" y="-899.5556"/></text><text opacity=".8" x="-649.62341" y="-674.4129"><tspan x="-649.62341" y="-674.4129"/></text><text opacity=".8" x="-2473.3088" y="71.140633"><tspan x="-2473.3088" y="71.140633"/></text><text opacity=".8" x="-758.55365" y="164.01277"><tspan x="-758.55365" y="164.01277"/></text><text opacity=".8" x="350.47064" y="-15.16937"><tspan x="350.47064" y="-15.16937"/></text><text opacity=".8" x="374.43158" y="-55.911079"><tspan x="374.43158" y="-55.911079"/></text><text opacity=".8" x="-1117.0316" y="-63.121052"><tspan x="-1117.0316" y="-63.121052"/></text><text opacity=".8" x="343.51117" y="-336.3551"><tspan x="343.51117" y="-336.3551"/></text><text opacity=".8" x="-684.22339" y="-65.835297"><tspan x="-684.22339" y="-65.835297"/></text><text opacity=".8" x="-2507.9092" y="679.7182"><tspan x="-2507.9092" y="679.7182"/></text><text opacity=".8" x="-533.13037" y="-927.36578"><tspan x="-533.13037" y="-927.36578"/></text><text opacity=".8" x="274.47177" y="-1340.8359"><tspan x="274.47177" y="-1340.8359"/></text><text opacity=".8" x="298.43268" y="-1381.5776"><tspan x="298.43268" y="-1381.5776"/></text><text opacity=".8" x="-1193.0305" y="-1388.7876"><tspan x="-1193.0305" y="-1388.7876"/></text><text opacity=".8" x="267.51227" y="-1662.0217"><tspan x="267.51227" y="-1662.0217"/></text><text opacity=".8" x="1753.6356" y="-1035.3306"><tspan x="1753.6356" y="-1035.3306"/></text><text opacity=".8" x="1777.5964" y="-1076.072"><tspan x="1777.5964" y="-1076.072"/></text><text opacity=".8" x="286.13342" y="-1083.282"><tspan x="286.13342" y="-1083.282"/></text><text opacity=".8" x="1746.6761" y="-1356.5161"><tspan x="1746.6761" y="-1356.5161"/></text><text opacity=".8" x="-651.68286" y="-1131.3733"><tspan x="-651.68286" y="-1131.3733"/></text><text opacity=".8" x="-2475.3684" y="-385.81982"><tspan x="-2475.3684" y="-385.81982"/></text><text opacity=".8" x="-760.6131" y="-292.94766"><tspan x="-760.6131" y="-292.94766"/></text><text opacity=".8" x="79.401436" y="-52.033501"><tspan x="79.401436" y="-52.033501"/></text><text opacity=".8" x="103.36237" y="-92.775223"><tspan x="103.36237" y="-92.775223"/></text><text opacity=".8" x="-1166.4543" y="-286.80383"><tspan x="-1166.4543" y="-286.80383"/></text><text opacity=".8" x="-358.85229" y="-700.27399"><tspan x="-358.85229" y="-700.27399"/></text><text opacity=".8" x="-334.89136" y="-741.01569"><tspan x="-334.89136" y="-741.01569"/></text><text opacity=".8" x="-1826.3545" y="-748.22559"><tspan x="-1826.3545" y="-748.22559"/></text><text opacity=".8" x="-365.81174" y="-1021.4597"><tspan x="-365.81174" y="-1021.4597"/></text><text opacity=".8" x="1120.3116" y="-394.76834"><tspan x="1120.3116" y="-394.76834"/></text><text opacity=".8" x="1144.2725" y="-435.51007"><tspan x="1144.2725" y="-435.51007"/></text><text opacity=".8" x="-347.19061" y="-442.72003"><tspan x="-347.19061" y="-442.72003"/></text><text opacity=".8" x="1113.3522" y="-715.9541"><tspan x="1113.3522" y="-715.9541"/></text><text opacity=".8" x="-1285.007" y="-490.81131"><tspan x="-1285.007" y="-490.81131"/></text><text opacity=".8" x="-3108.6924" y="254.74225"><tspan x="-3108.6924" y="254.74225"/></text><text opacity=".8" x="-1393.9426" y="347.61386"><tspan x="-1393.9426" y="347.61386"/></text><text opacity=".8" x="801.0354" y="-7.0266333"><tspan x="801.0354" y="-7.0266333"/></text><text opacity=".8" x="824.99634" y="-47.768341"><tspan x="824.99634" y="-47.768341"/></text><text opacity=".8" x="-645.56201" y="-77.846481"><tspan x="-645.56201" y="-77.846481"/></text><text opacity=".8" x="-2469.2478" y="667.70697"><tspan x="-2469.2478" y="667.70697"/></text><text opacity=".8" x="-531.07092" y="-463.16742"><tspan x="-531.07092" y="-463.16742"/></text><text opacity=".8" x="276.53119" y="-876.63751"><tspan x="276.53119" y="-876.63751"/></text><text opacity=".8" x="300.49213" y="-917.37927"><tspan x="300.49213" y="-917.37927"/></text><text opacity=".8" x="-1190.9711" y="-924.58917"><tspan x="-1190.9711" y="-924.58917"/></text><text opacity=".8" x="269.57172" y="-1197.8232"><tspan x="269.57172" y="-1197.8232"/></text><text opacity=".8" x="1755.6952" y="-571.13196"><tspan x="1755.6952" y="-571.13196"/></text><text opacity=".8" x="1779.656" y="-611.87372"><tspan x="1779.656" y="-611.87372"/></text><text opacity=".8" x="288.19287" y="-619.08362"><tspan x="288.19287" y="-619.08362"/></text><text opacity=".8" x="1748.7357" y="-892.31757"><tspan x="1748.7357" y="-892.31757"/></text><text opacity=".8" x="-649.62341" y="-667.17493"><tspan x="-649.62341" y="-667.17493"/></text><text opacity=".8" x="-2473.3088" y="78.378624"><tspan x="-2473.3088" y="78.378624"/></text><text opacity=".8" x="-758.55365" y="171.25076"><tspan x="-758.55365" y="171.25076"/></text><text opacity=".8" x="350.47064" y="-7.9313822"><tspan x="350.47064" y="-7.9313822"/></text><text opacity=".8" x="374.43158" y="-48.673088"><tspan x="374.43158" y="-48.673088"/></text><text opacity=".8" x="-1117.0316" y="-55.88306"><tspan x="-1117.0316" y="-55.88306"/></text><text opacity=".8" x="343.51117" y="-329.1171"><tspan x="343.51117" y="-329.1171"/></text><text opacity=".8" x="-684.22339" y="-58.597305"><tspan x="-684.22339" y="-58.597305"/></text><text opacity=".8" x="-2507.9092" y="686.95624"><tspan x="-2507.9092" y="686.95624"/></text><text opacity=".8" x="-533.13037" y="-920.12781"><tspan x="-533.13037" y="-920.12781"/></text><text opacity=".8" x="274.47177" y="-1333.5979"><tspan x="274.47177" y="-1333.5979"/></text><text opacity=".8" x="298.43268" y="-1374.3397"><tspan x="298.43268" y="-1374.3397"/></text><text opacity=".8" x="-1193.0305" y="-1381.5496"><tspan x="-1193.0305" y="-1381.5496"/></text><text opacity=".8" x="267.51227" y="-1654.7837"><tspan x="267.51227" y="-1654.7837"/></text><text opacity=".8" x="1753.6356" y="-1028.0925"><tspan x="1753.6356" y="-1028.0925"/></text><text opacity=".8" x="1777.5964" y="-1068.8341"><tspan x="1777.5964" y="-1068.8341"/></text><text opacity=".8" x="286.13342" y="-1076.0439"><tspan x="286.13342" y="-1076.0439"/></text><text opacity=".8" x="1746.6761" y="-1349.2781"><tspan x="1746.6761" y="-1349.2781"/></text><text opacity=".8" x="-651.68286" y="-1124.1353"><tspan x="-651.68286" y="-1124.1353"/></text><text opacity=".8" x="-2475.3684" y="-378.58182"><tspan x="-2475.3684" y="-378.58182"/></text><text opacity=".8" x="-760.6131" y="-285.70966"><tspan x="-760.6131" y="-285.70966"/></text><text opacity=".8" x="79.401436" y="-44.795513"><tspan x="79.401436" y="-44.795513"/></text><text opacity=".8" x="103.36237" y="-85.537231"><tspan x="103.36237" y="-85.537231"/></text><text opacity=".8" x="-1166.4543" y="-279.56583"><tspan x="-1166.4543" y="-279.56583"/></text><text opacity=".8" x="-358.85229" y="-693.03601"><tspan x="-358.85229" y="-693.03601"/></text><text opacity=".8" x="-334.89136" y="-733.77771"><tspan x="-334.89136" y="-733.77771"/></text><text opacity=".8" x="-1826.3545" y="-740.98767"><tspan x="-1826.3545" y="-740.98767"/></text><text opacity=".8" x="-365.81174" y="-1014.2217"><tspan x="-365.81174" y="-1014.2217"/></text><text opacity=".8" x="1120.3116" y="-387.53036"><tspan x="1120.3116" y="-387.53036"/></text><text opacity=".8" x="1144.2725" y="-428.27209"><tspan x="1144.2725" y="-428.27209"/></text><text opacity=".8" x="-347.19061" y="-435.48203"><tspan x="-347.19061" y="-435.48203"/></text><text opacity=".8" x="1113.3522" y="-708.71613"><tspan x="1113.3522" y="-708.71613"/></text><text opacity=".8" x="-1285.007" y="-483.5733"><tspan x="-1285.007" y="-483.5733"/></text><text opacity=".8" x="-3108.6924" y="261.98022"><tspan x="-3108.6924" y="261.98022"/></text><text opacity=".8" x="-1393.9426" y="354.85385"><tspan x="-1393.9426" y="354.85385"/></text><text x="359.71338" y="-386.30267"><tspan x="359.71338" y="-386.30267"/><tspan x="359.71338" y="-370.4696"/></text><text opacity=".8" x="824.89734" y="-868.34723"><tspan x="824.89734" y="-868.34723"/></text><text opacity=".8" x="-998.78864" y="-122.79378"><tspan x="-998.78864" y="-122.79378"/></text><text opacity=".8" x="1551.9768" y="-1153.343"><tspan x="1551.9768" y="-1153.343"/></text><text opacity=".8" x="1575.9376" y="-1194.0847"><tspan x="1575.9376" y="-1194.0847"/></text><text opacity=".8" x="84.474556" y="-1201.2947"><tspan x="84.474556" y="-1201.2947"/></text><text opacity=".8" x="1545.0173" y="-1474.5288"><tspan x="1545.0173" y="-1474.5288"/></text><text opacity=".8" x="745.63562" y="-25.844288"><tspan x="745.63562" y="-25.844288"/></text><text opacity=".8" x="769.59656" y="-66.585999"><tspan x="769.59656" y="-66.585999"/></text><text opacity=".8" x="-700.96179" y="-96.664139"><tspan x="-700.96179" y="-96.664139"/></text><text opacity=".8" x="-2524.6477" y="648.88934"><tspan x="-2524.6477" y="648.88934"/></text><text opacity=".8" x="-586.4707" y="-481.98511"><tspan x="-586.4707" y="-481.98511"/></text><text opacity=".8" x="221.13139" y="-895.4552"><tspan x="221.13139" y="-895.4552"/></text><text opacity=".8" x="245.09232" y="-936.1969"><tspan x="245.09232" y="-936.1969"/></text><text opacity=".8" x="-1246.3708" y="-943.4068"><tspan x="-1246.3708" y="-943.4068"/></text><text opacity=".8" x="214.17192" y="-1216.641"><tspan x="214.17192" y="-1216.641"/></text><text opacity=".8" x="1700.2954" y="-589.94958"><tspan x="1700.2954" y="-589.94958"/></text><text opacity=".8" x="1724.2562" y="-630.69135"><tspan x="1724.2562" y="-630.69135"/></text><text opacity=".8" x="232.79306" y="-637.90125"><tspan x="232.79306" y="-637.90125"/></text><text opacity=".8" x="1693.3359" y="-911.13525"><tspan x="1693.3359" y="-911.13525"/></text><text opacity=".8" x="-705.02319" y="-685.99255"><tspan x="-705.02319" y="-685.99255"/></text><text opacity=".8" x="-2528.7087" y="59.560966"><tspan x="-2528.7087" y="59.560966"/></text><text opacity=".8" x="-813.95343" y="152.43311"><tspan x="-813.95343" y="152.43311"/></text><text opacity=".8" x="295.07083" y="-26.749035"><tspan x="295.07083" y="-26.749035"/></text><text opacity=".8" x="319.03177" y="-67.490746"><tspan x="319.03177" y="-67.490746"/></text><text opacity=".8" x="-1172.4314" y="-74.700714"><tspan x="-1172.4314" y="-74.700714"/></text><text opacity=".8" x="288.11136" y="-347.93478"><tspan x="288.11136" y="-347.93478"/></text><text opacity=".8" x="-739.62317" y="-77.414963"><tspan x="-739.62317" y="-77.414963"/></text><text opacity=".8" x="-2563.3091" y="668.13855"><tspan x="-2563.3091" y="668.13855"/></text><text opacity=".8" x="-588.53015" y="-938.94543"><tspan x="-588.53015" y="-938.94543"/></text><text opacity=".8" x="219.07198" y="-1352.4156"><tspan x="219.07198" y="-1352.4156"/></text><text opacity=".8" x="243.03287" y="-1393.1573"><tspan x="243.03287" y="-1393.1573"/></text><text opacity=".8" x="-1248.4303" y="-1400.3673"><tspan x="-1248.4303" y="-1400.3673"/></text><text opacity=".8" x="212.11247" y="-1673.6014"><tspan x="212.11247" y="-1673.6014"/></text><text opacity=".8" x="1698.2358" y="-1046.91"><tspan x="1698.2358" y="-1046.91"/></text><text opacity=".8" x="1722.1967" y="-1087.6517"><tspan x="1722.1967" y="-1087.6517"/></text><text opacity=".8" x="230.73361" y="-1094.8617"><tspan x="230.73361" y="-1094.8617"/></text><text opacity=".8" x="1691.2764" y="-1368.0958"><tspan x="1691.2764" y="-1368.0958"/></text><text opacity=".8" x="-707.08264" y="-1142.953"><tspan x="-707.08264" y="-1142.953"/></text><text opacity=".8" x="-2530.7683" y="-397.39951"><tspan x="-2530.7683" y="-397.39951"/></text><text opacity=".8" x="-816.01288" y="-304.52734"><tspan x="-816.01288" y="-304.52734"/></text><text opacity=".8" x="24.001619" y="-63.613167"><tspan x="24.001619" y="-63.613167"/></text><text opacity=".8" x="47.962559" y="-104.35489"><tspan x="47.962559" y="-104.35489"/></text><text opacity=".8" x="-1221.8541" y="-298.38351"><tspan x="-1221.8541" y="-298.38351"/></text><text opacity=".8" x="-414.25211" y="-711.85364"><tspan x="-414.25211" y="-711.85364"/></text><text opacity=".8" x="-390.29117" y="-752.59534"><tspan x="-390.29117" y="-752.59534"/></text><text opacity=".8" x="-1881.7543" y="-759.80524"><tspan x="-1881.7543" y="-759.80524"/></text><text opacity=".8" x="-421.21155" y="-1033.0394"><tspan x="-421.21155" y="-1033.0394"/></text><text opacity=".8" x="1064.9119" y="-406.34802"><tspan x="1064.9119" y="-406.34802"/></text><text opacity=".8" x="1088.8727" y="-447.08975"><tspan x="1088.8727" y="-447.08975"/></text><text opacity=".8" x="-402.59042" y="-454.29971"><tspan x="-402.59042" y="-454.29971"/></text><text opacity=".8" x="1057.9524" y="-727.53375"><tspan x="1057.9524" y="-727.53375"/></text><text opacity=".8" x="-1340.4067" y="-502.39099"><tspan x="-1340.4067" y="-502.39099"/></text><text opacity=".8" x="-3164.0923" y="243.16257"><tspan x="-3164.0923" y="243.16257"/></text><text opacity=".8" x="-1449.3424" y="336.03418"><tspan x="-1449.3424" y="336.03418"/></text><text opacity=".8" x="745.63562" y="-18.6063"><tspan x="745.63562" y="-18.6063"/></text><text opacity=".8" x="769.59656" y="-59.348007"><tspan x="769.59656" y="-59.348007"/></text><text opacity=".8" x="-700.96179" y="-89.426147"><tspan x="-700.96179" y="-89.426147"/></text><text opacity=".8" x="-2524.6477" y="656.12732"><tspan x="-2524.6477" y="656.12732"/></text><text opacity=".8" x="-586.4707" y="-474.7471"><tspan x="-586.4707" y="-474.7471"/></text><text opacity=".8" x="221.13139" y="-888.21716"><tspan x="221.13139" y="-888.21716"/></text><text opacity=".8" x="245.09232" y="-928.95892"><tspan x="245.09232" y="-928.95892"/></text><text opacity=".8" x="-1246.3708" y="-936.16882"><tspan x="-1246.3708" y="-936.16882"/></text><text opacity=".8" x="214.17192" y="-1209.403"><tspan x="214.17192" y="-1209.403"/></text><text opacity=".8" x="1700.2954" y="-582.71161"><tspan x="1700.2954" y="-582.71161"/></text><text opacity=".8" x="1724.2562" y="-623.45337"><tspan x="1724.2562" y="-623.45337"/></text><text opacity=".8" x="232.79306" y="-630.66327"><tspan x="232.79306" y="-630.66327"/></text><text opacity=".8" x="1693.3359" y="-903.89722"><tspan x="1693.3359" y="-903.89722"/></text><text opacity=".8" x="-705.02319" y="-678.75458"><tspan x="-705.02319" y="-678.75458"/></text><text opacity=".8" x="-2528.7087" y="66.798958"><tspan x="-2528.7087" y="66.798958"/></text><text opacity=".8" x="-813.95343" y="159.6711"><tspan x="-813.95343" y="159.6711"/></text><text opacity=".8" x="295.07083" y="-19.511049"><tspan x="295.07083" y="-19.511049"/></text><text opacity=".8" x="319.03177" y="-60.252754"><tspan x="319.03177" y="-60.252754"/></text><text opacity=".8" x="-1172.4314" y="-67.462723"><tspan x="-1172.4314" y="-67.462723"/></text><text opacity=".8" x="288.11136" y="-340.69678"><tspan x="288.11136" y="-340.69678"/></text><text opacity=".8" x="-739.62317" y="-70.176971"><tspan x="-739.62317" y="-70.176971"/></text><text opacity=".8" x="-2563.3091" y="675.37659"><tspan x="-2563.3091" y="675.37659"/></text><text opacity=".8" x="-588.53015" y="-931.70746"><tspan x="-588.53015" y="-931.70746"/></text><text opacity=".8" x="219.07198" y="-1345.1776"><tspan x="219.07198" y="-1345.1776"/></text><text opacity=".8" x="243.03287" y="-1385.9194"><tspan x="243.03287" y="-1385.9194"/></text><text opacity=".8" x="-1248.4303" y="-1393.1293"><tspan x="-1248.4303" y="-1393.1293"/></text><text opacity=".8" x="212.11247" y="-1666.3634"><tspan x="212.11247" y="-1666.3634"/></text><text opacity=".8" x="1698.2358" y="-1039.6721"><tspan x="1698.2358" y="-1039.6721"/></text><text opacity=".8" x="1722.1967" y="-1080.4138"><tspan x="1722.1967" y="-1080.4138"/></text><text opacity=".8" x="230.73361" y="-1087.6237"><tspan x="230.73361" y="-1087.6237"/></text><text opacity=".8" x="1691.2764" y="-1360.8578"><tspan x="1691.2764" y="-1360.8578"/></text><text opacity=".8" x="-707.08264" y="-1135.715"><tspan x="-707.08264" y="-1135.715"/></text><text opacity=".8" x="-2530.7683" y="-390.1615"><tspan x="-2530.7683" y="-390.1615"/></text><text opacity=".8" x="-816.01288" y="-297.28934"><tspan x="-816.01288" y="-297.28934"/></text><text opacity=".8" x="24.001619" y="-56.375183"><tspan x="24.001619" y="-56.375183"/></text><text opacity=".8" x="47.962559" y="-97.116898"><tspan x="47.962559" y="-97.116898"/></text><text opacity=".8" x="-1221.8541" y="-291.14548"><tspan x="-1221.8541" y="-291.14548"/></text><text opacity=".8" x="-414.25211" y="-704.61566"><tspan x="-414.25211" y="-704.61566"/></text><text opacity=".8" x="-390.29117" y="-745.35736"><tspan x="-390.29117" y="-745.35736"/></text><text opacity=".8" x="-1881.7543" y="-752.56732"><tspan x="-1881.7543" y="-752.56732"/></text><text opacity=".8" x="-421.21155" y="-1025.8013"><tspan x="-421.21155" y="-1025.8013"/></text><text opacity=".8" x="1064.9119" y="-399.11005"><tspan x="1064.9119" y="-399.11005"/></text><text opacity=".8" x="1088.8727" y="-439.85178"><tspan x="1088.8727" y="-439.85178"/></text><text opacity=".8" x="-402.59042" y="-447.06171"><tspan x="-402.59042" y="-447.06171"/></text><text opacity=".8" x="1057.9524" y="-720.29578"><tspan x="1057.9524" y="-720.29578"/></text><text opacity=".8" x="-1340.4067" y="-495.15298"><tspan x="-1340.4067" y="-495.15298"/></text><text opacity=".8" x="-3164.0923" y="250.40054"><tspan x="-3164.0923" y="250.40054"/></text><text opacity=".8" x="-1449.3424" y="343.2742"><tspan x="-1449.3424" y="343.2742"/></text><text x="304.31357" y="-397.88235"><tspan x="304.31357" y="-397.88235"/><tspan x="304.31357" y="-382.04929"/></text><text opacity=".8" x="769.49756" y="-879.92688"><tspan x="769.49756" y="-879.92688"/></text><text opacity=".8" x="-1054.1885" y="-134.37344"><tspan x="-1054.1885" y="-134.37344"/></text><text opacity=".8" x="1496.577" y="-1164.9227"><tspan x="1496.577" y="-1164.9227"/></text><text opacity=".8" x="1520.5378" y="-1205.6644"><tspan x="1520.5378" y="-1205.6644"/></text><text opacity=".8" x="29.074739" y="-1212.8744"><tspan x="29.074739" y="-1212.8744"/></text><text opacity=".8" x="1489.6176" y="-1486.1085"><tspan x="1489.6176" y="-1486.1085"/></text><text opacity=".8" x="735.57196" y="-14.842482"><tspan x="735.57196" y="-14.842482"/></text><text opacity=".8" x="759.5329" y="-55.58419"><tspan x="759.5329" y="-55.58419"/></text><text opacity=".8" x="-711.02545" y="-85.662331"><tspan x="-711.02545" y="-85.662331"/></text><text opacity=".8" x="-2534.7112" y="659.89111"><tspan x="-2534.7112" y="659.89111"/></text><text opacity=".8" x="-596.53436" y="-470.98328"><tspan x="-596.53436" y="-470.98328"/></text><text opacity=".8" x="211.06779" y="-884.45343"><tspan x="211.06779" y="-884.45343"/></text><text opacity=".8" x="235.02872" y="-925.19513"><tspan x="235.02872" y="-925.19513"/></text><text opacity=".8" x="-1256.4344" y="-932.40503"><tspan x="-1256.4344" y="-932.40503"/></text><text opacity=".8" x="204.10832" y="-1205.6392"><tspan x="204.10832" y="-1205.6392"/></text><text opacity=".8" x="1690.2318" y="-578.94781"><tspan x="1690.2318" y="-578.94781"/></text><text opacity=".8" x="1714.1926" y="-619.68958"><tspan x="1714.1926" y="-619.68958"/></text><text opacity=".8" x="222.72948" y="-626.89948"><tspan x="222.72948" y="-626.89948"/></text><text opacity=".8" x="1683.2723" y="-900.13348"><tspan x="1683.2723" y="-900.13348"/></text><text opacity=".8" x="-715.08685" y="-674.99078"><tspan x="-715.08685" y="-674.99078"/></text><text opacity=".8" x="-2538.7722" y="70.562775"><tspan x="-2538.7722" y="70.562775"/></text><text opacity=".8" x="-824.01709" y="163.43491"><tspan x="-824.01709" y="163.43491"/></text><text opacity=".8" x="285.00723" y="-15.747231"><tspan x="285.00723" y="-15.747231"/></text><text opacity=".8" x="308.96817" y="-56.488941"><tspan x="308.96817" y="-56.488941"/></text><text opacity=".8" x="-1182.495" y="-63.698914"><tspan x="-1182.495" y="-63.698914"/></text><text opacity=".8" x="278.04776" y="-336.93295"><tspan x="278.04776" y="-336.93295"/></text><text opacity=".8" x="-749.68683" y="-66.413162"><tspan x="-749.68683" y="-66.413162"/></text><text opacity=".8" x="-2573.3726" y="679.14032"><tspan x="-2573.3726" y="679.14032"/></text><text opacity=".8" x="-598.59375" y="-927.94366"><tspan x="-598.59375" y="-927.94366"/></text><text opacity=".8" x="209.00838" y="-1341.4138"><tspan x="209.00838" y="-1341.4138"/></text><text opacity=".8" x="232.96927" y="-1382.1555"><tspan x="232.96927" y="-1382.1555"/></text><text opacity=".8" x="-1258.4939" y="-1389.3655"><tspan x="-1258.4939" y="-1389.3655"/></text><text opacity=".8" x="202.04887" y="-1662.5996"><tspan x="202.04887" y="-1662.5996"/></text><text opacity=".8" x="1688.1722" y="-1035.9084"><tspan x="1688.1722" y="-1035.9084"/></text><text opacity=".8" x="1712.1331" y="-1076.6499"><tspan x="1712.1331" y="-1076.6499"/></text><text opacity=".8" x="220.67003" y="-1083.8599"><tspan x="220.67003" y="-1083.8599"/></text><text opacity=".8" x="1681.2128" y="-1357.094"><tspan x="1681.2128" y="-1357.094"/></text><text opacity=".8" x="-717.1463" y="-1131.9512"><tspan x="-717.1463" y="-1131.9512"/></text><text opacity=".8" x="-2540.8318" y="-386.39767"><tspan x="-2540.8318" y="-386.39767"/></text><text opacity=".8" x="-826.07654" y="-293.52551"><tspan x="-826.07654" y="-293.52551"/></text><text opacity=".8" x="13.938012" y="-52.611362"><tspan x="13.938012" y="-52.611362"/></text><text opacity=".8" x="37.898952" y="-93.353081"><tspan x="37.898952" y="-93.353081"/></text><text opacity=".8" x="-1231.9177" y="-287.38168"><tspan x="-1231.9177" y="-287.38168"/></text><text opacity=".8" x="-424.3157" y="-700.85187"><tspan x="-424.3157" y="-700.85187"/></text><text opacity=".8" x="-400.35477" y="-741.59357"><tspan x="-400.35477" y="-741.59357"/></text><text opacity=".8" x="-1891.8179" y="-748.80347"><tspan x="-1891.8179" y="-748.80347"/></text><text opacity=".8" x="-431.27515" y="-1022.0376"><tspan x="-431.27515" y="-1022.0376"/></text><text opacity=".8" x="1054.8483" y="-395.34619"><tspan x="1054.8483" y="-395.34619"/></text><text opacity=".8" x="1078.8091" y="-436.08792"><tspan x="1078.8091" y="-436.08792"/></text><text opacity=".8" x="-412.65402" y="-443.29788"><tspan x="-412.65402" y="-443.29788"/></text><text opacity=".8" x="1047.8888" y="-716.53198"><tspan x="1047.8888" y="-716.53198"/></text><text opacity=".8" x="-1350.4703" y="-491.38916"><tspan x="-1350.4703" y="-491.38916"/></text><text opacity=".8" x="-3174.1558" y="254.1644"><tspan x="-3174.1558" y="254.1644"/></text><text opacity=".8" x="-1459.406" y="347.03601"><tspan x="-1459.406" y="347.03601"/></text><text opacity=".8" x="735.57196" y="-7.604495"><tspan x="735.57196" y="-7.604495"/></text><text opacity=".8" x="759.5329" y="-48.346203"><tspan x="759.5329" y="-48.346203"/></text><text opacity=".8" x="-711.02545" y="-78.424347"><tspan x="-711.02545" y="-78.424347"/></text><text opacity=".8" x="-2534.7112" y="667.12909"><tspan x="-2534.7112" y="667.12909"/></text><text opacity=".8" x="-596.53436" y="-463.74527"><tspan x="-596.53436" y="-463.74527"/></text><text opacity=".8" x="211.06779" y="-877.21539"><tspan x="211.06779" y="-877.21539"/></text><text opacity=".8" x="235.02872" y="-917.95715"><tspan x="235.02872" y="-917.95715"/></text><text opacity=".8" x="-1256.4344" y="-925.16705"><tspan x="-1256.4344" y="-925.16705"/></text><text opacity=".8" x="204.10832" y="-1198.4011"><tspan x="204.10832" y="-1198.4011"/></text><text opacity=".8" x="1690.2318" y="-571.70984"><tspan x="1690.2318" y="-571.70984"/></text><text opacity=".8" x="1714.1926" y="-612.4516"><tspan x="1714.1926" y="-612.4516"/></text><text opacity=".8" x="222.72948" y="-619.6615"><tspan x="222.72948" y="-619.6615"/></text><text opacity=".8" x="1683.2723" y="-892.89545"><tspan x="1683.2723" y="-892.89545"/></text><text opacity=".8" x="-715.08685" y="-667.75281"><tspan x="-715.08685" y="-667.75281"/></text><text opacity=".8" x="-2538.7722" y="77.800766"><tspan x="-2538.7722" y="77.800766"/></text><text opacity=".8" x="-824.01709" y="170.6729"><tspan x="-824.01709" y="170.6729"/></text><text opacity=".8" x="285.00723" y="-8.5092449"><tspan x="285.00723" y="-8.5092449"/></text><text opacity=".8" x="308.96817" y="-49.25095"><tspan x="308.96817" y="-49.25095"/></text><text opacity=".8" x="-1182.495" y="-56.460922"><tspan x="-1182.495" y="-56.460922"/></text><text opacity=".8" x="278.04776" y="-329.69495"><tspan x="278.04776" y="-329.69495"/></text><text opacity=".8" x="-749.68683" y="-59.175167"><tspan x="-749.68683" y="-59.175167"/></text><text opacity=".8" x="-2573.3726" y="686.37836"><tspan x="-2573.3726" y="686.37836"/></text><text opacity=".8" x="-598.59375" y="-920.70569"><tspan x="-598.59375" y="-920.70569"/></text><text opacity=".8" x="209.00838" y="-1334.1758"><tspan x="209.00838" y="-1334.1758"/></text><text opacity=".8" x="232.96927" y="-1374.9176"><tspan x="232.96927" y="-1374.9176"/></text><text opacity=".8" x="-1258.4939" y="-1382.1274"><tspan x="-1258.4939" y="-1382.1274"/></text><text opacity=".8" x="202.04887" y="-1655.3616"><tspan x="202.04887" y="-1655.3616"/></text><text opacity=".8" x="1688.1722" y="-1028.6704"><tspan x="1688.1722" y="-1028.6704"/></text><text opacity=".8" x="1712.1331" y="-1069.412"><tspan x="1712.1331" y="-1069.412"/></text><text opacity=".8" x="220.67003" y="-1076.6218"><tspan x="220.67003" y="-1076.6218"/></text><text opacity=".8" x="1681.2128" y="-1349.856"><tspan x="1681.2128" y="-1349.856"/></text><text opacity=".8" x="-717.1463" y="-1124.7131"><tspan x="-717.1463" y="-1124.7131"/></text><text opacity=".8" x="-2540.8318" y="-379.15967"><tspan x="-2540.8318" y="-379.15967"/></text><text opacity=".8" x="-826.07654" y="-286.28751"><tspan x="-826.07654" y="-286.28751"/></text><text opacity=".8" x="13.938012" y="-45.373375"><tspan x="13.938012" y="-45.373375"/></text><text opacity=".8" x="37.898952" y="-86.115097"><tspan x="37.898952" y="-86.115097"/></text><text opacity=".8" x="-1231.9177" y="-280.14368"><tspan x="-1231.9177" y="-280.14368"/></text><text opacity=".8" x="-424.3157" y="-693.61389"><tspan x="-424.3157" y="-693.61389"/></text><text opacity=".8" x="-400.35477" y="-734.35559"><tspan x="-400.35477" y="-734.35559"/></text><text opacity=".8" x="-1891.8179" y="-741.56555"><tspan x="-1891.8179" y="-741.56555"/></text><text opacity=".8" x="-431.27515" y="-1014.7996"><tspan x="-431.27515" y="-1014.7996"/></text><text opacity=".8" x="1054.8483" y="-388.10822"><tspan x="1054.8483" y="-388.10822"/></text><text opacity=".8" x="1078.8091" y="-428.84995"><tspan x="1078.8091" y="-428.84995"/></text><text opacity=".8" x="-412.65402" y="-436.05988"><tspan x="-412.65402" y="-436.05988"/></text><text opacity=".8" x="1047.8888" y="-709.29401"><tspan x="1047.8888" y="-709.29401"/></text><text opacity=".8" x="-1350.4703" y="-484.15115"><tspan x="-1350.4703" y="-484.15115"/></text><text opacity=".8" x="-3174.1558" y="261.40237"><tspan x="-3174.1558" y="261.40237"/></text><text opacity=".8" x="-1459.406" y="354.276"><tspan x="-1459.406" y="354.276"/></text><text x="294.24997" y="-386.88052"><tspan x="294.24997" y="-386.88052"/><tspan x="294.24997" y="-371.04745"/></text><text opacity=".8" x="759.4339" y="-868.92511"><tspan x="759.4339" y="-868.92511"/></text><text opacity=".8" x="-1064.2521" y="-123.37164"><tspan x="-1064.2521" y="-123.37164"/></text><text opacity=".8" x="1486.5134" y="-1153.9209"><tspan x="1486.5134" y="-1153.9209"/></text><text opacity=".8" x="1510.4742" y="-1194.6626"><tspan x="1510.4742" y="-1194.6626"/></text><text opacity=".8" x="19.011133" y="-1201.8726"><tspan x="19.011133" y="-1201.8726"/></text><text opacity=".8" x="1479.554" y="-1475.1067"><tspan x="1479.554" y="-1475.1067"/></text><g fill="#fff" transform="translate(0 -2)"><path d="m7.5 7.5l-1.1 3.9-.9-1.9h-1.5v.5h1.2l1.3 3 0 0 1.5-5h2.6v-.5z"/><path d="m8.11256 9.625l1.2234 1.6074-1.33596 1.7676h.66564l.9984-1.326 1.00356 1.326h.6648l-1.3074-1.734 1.2426-1.641h-.665628l-.90936 1.2042-.91416-1.2042z"/></g></svg>