<svg height="16" width="16" xmlns="http://www.w3.org/2000/svg"><path d="m5.2443623 13.198186c.7190562.411051.968691 1.32717.557666 2.046176-.4110499.719057-1.3271691.968691-2.0461753.557667-.7192562-.410976-.968941-1.32692-.557866-2.046376.411025-.718957 1.3269192-.968441 2.0463753-.557467z" fill="#ffcf3f"/><path d="m2.9923173 8.2641095c.9588002.5480974 1.2917146 1.7696575.7436001 2.7284575-.5481144.958858-1.7696576 1.291429-2.7284007.743429-.95880026-.548-1.29171463-1.7697146-.7436002-2.728572.54811444-.9588573 1.7696576-1.2914289 2.7284008-.7434288z" fill="#7cc327"/><path d="m4.7407078 2.3299995c1.1981544.6851418 1.6144145 2.211929.9293978 3.4107084-.6850168 1.1981543-2.2121166 1.6144144-3.4105834.9293977-1.1985293-.6850168-1.61466449-2.2121166-.9295227-3.4105834.6851417-1.1985292 2.2121165-1.6146644 3.4107083-.9295227z" fill="#27adc3"/><path d="m12.23674.46195475c1.677843.95919515 2.260437 3.09694085 1.301306 4.77478455-.959195 1.6778436-3.096941 2.2604371-4.7747853 1.3013056-1.6778436-.9591951-2.2604371-3.0969408-1.3013056-4.7747845.9591951-1.67784366 3.0969409-2.26043711 4.7747849-1.30130565z" fill="#ffcf3f"/><path d="m14.740527 7.329977c1.198433.6851224 1.614619 2.2120541.929496 3.41055-.685122 1.198432-2.212054 1.614619-3.41055.929496-1.198432-.685122-1.614619-2.2120539-.929496-3.4105495.685122-1.198433 2.212054-1.614619 3.41055-.9294965z" fill="#7cc327"/><path d="m10.896545 12.212577c.987146.495053 1.386061 1.696634.891032 2.68378-.495053.987146-1.696634 1.386061-2.6837801.891031-.9871459-.495053-1.3860614-1.696634-.8910314-2.68378.495053-.987145 1.6966337-1.386061 2.6837795-.891031z" fill="#27adc3"/></svg>