<svg height="16" width="16" xmlns="http://www.w3.org/2000/svg"><text opacity=".8" x="877.22626" y="-21.187399"><tspan x="877.22626" y="-21.187399"/></text><text opacity=".8" x="901.18719" y="-61.929108"><tspan x="901.18719" y="-61.929108"/></text><text opacity=".8" x="-569.37115" y="-92.007248"><tspan x="-569.37115" y="-92.007248"/></text><text opacity=".8" x="-2393.0571" y="653.5462"><tspan x="-2393.0571" y="653.5462"/></text><text opacity=".8" x="-454.88007" y="-477.32822"><tspan x="-454.88007" y="-477.32822"/></text><text opacity=".8" x="352.72208" y="-890.79834"><tspan x="352.72208" y="-890.79834"/></text><text opacity=".8" x="376.68301" y="-931.54004"><tspan x="376.68301" y="-931.54004"/></text><text opacity=".8" x="-1114.7802" y="-938.74994"><tspan x="-1114.7802" y="-938.74994"/></text><text opacity=".8" x="345.7626" y="-1211.9841"><tspan x="345.7626" y="-1211.9841"/></text><text opacity=".8" x="1831.8861" y="-585.29272"><tspan x="1831.8861" y="-585.29272"/></text><text opacity=".8" x="1855.8469" y="-626.03448"><tspan x="1855.8469" y="-626.03448"/></text><text opacity=".8" x="364.38376" y="-633.24438"><tspan x="364.38376" y="-633.24438"/></text><text opacity=".8" x="1824.9266" y="-906.47839"><tspan x="1824.9266" y="-906.47839"/></text><text opacity=".8" x="-573.43256" y="-681.33569"><tspan x="-573.43256" y="-681.33569"/></text><text opacity=".8" x="-2397.1182" y="64.217857"><tspan x="-2397.1182" y="64.217857"/></text><text opacity=".8" x="-682.36279" y="157.09"><tspan x="-682.36279" y="157.09"/></text><text opacity=".8" x="426.66153" y="-22.092148"><tspan x="426.66153" y="-22.092148"/></text><text opacity=".8" x="450.62247" y="-62.833855"><tspan x="450.62247" y="-62.833855"/></text><text opacity=".8" x="-1040.8407" y="-70.043823"><tspan x="-1040.8407" y="-70.043823"/></text><text opacity=".8" x="419.70206" y="-343.27789"><tspan x="419.70206" y="-343.27789"/></text><text opacity=".8" x="-608.03253" y="-72.758072"><tspan x="-608.03253" y="-72.758072"/></text><text opacity=".8" x="-2431.7185" y="672.79541"><tspan x="-2431.7185" y="672.79541"/></text><text opacity=".8" x="-456.93948" y="-934.28857"><tspan x="-456.93948" y="-934.28857"/></text><text opacity=".8" x="350.66266" y="-1347.7588"><tspan x="350.66266" y="-1347.7588"/></text><text opacity=".8" x="374.62357" y="-1388.5005"><tspan x="374.62357" y="-1388.5005"/></text><text opacity=".8" x="-1116.8396" y="-1395.7104"><tspan x="-1116.8396" y="-1395.7104"/></text><text opacity=".8" x="343.70316" y="-1668.9446"><tspan x="343.70316" y="-1668.9446"/></text><text opacity=".8" x="1829.8265" y="-1042.2533"><tspan x="1829.8265" y="-1042.2533"/></text><text opacity=".8" x="1853.7874" y="-1082.9949"><tspan x="1853.7874" y="-1082.9949"/></text><text opacity=".8" x="362.32431" y="-1090.2048"><tspan x="362.32431" y="-1090.2048"/></text><text opacity=".8" x="1822.8671" y="-1363.439"><tspan x="1822.8671" y="-1363.439"/></text><text opacity=".8" x="-575.492" y="-1138.2961"><tspan x="-575.492" y="-1138.2961"/></text><text opacity=".8" x="-2399.1777" y="-392.74261"><tspan x="-2399.1777" y="-392.74261"/></text><text opacity=".8" x="-684.42224" y="-299.87045"><tspan x="-684.42224" y="-299.87045"/></text><text opacity=".8" x="155.5923" y="-58.956276"><tspan x="155.5923" y="-58.956276"/></text><text opacity=".8" x="179.55324" y="-99.697998"><tspan x="179.55324" y="-99.697998"/></text><text opacity=".8" x="-1090.2634" y="-293.72662"><tspan x="-1090.2634" y="-293.72662"/></text><text opacity=".8" x="-282.66141" y="-707.19678"><tspan x="-282.66141" y="-707.19678"/></text><text opacity=".8" x="-258.70047" y="-747.93848"><tspan x="-258.70047" y="-747.93848"/></text><text opacity=".8" x="-1750.1636" y="-755.14838"><tspan x="-1750.1636" y="-755.14838"/></text><text opacity=".8" x="-289.62085" y="-1028.3826"><tspan x="-289.62085" y="-1028.3826"/></text><text opacity=".8" x="1196.5026" y="-401.69113"><tspan x="1196.5026" y="-401.69113"/></text><text opacity=".8" x="1220.4634" y="-442.43286"><tspan x="1220.4634" y="-442.43286"/></text><text opacity=".8" x="-270.99973" y="-449.64282"><tspan x="-270.99973" y="-449.64282"/></text><text opacity=".8" x="1189.5431" y="-722.87689"><tspan x="1189.5431" y="-722.87689"/></text><text opacity=".8" x="-1208.816" y="-497.7341"><tspan x="-1208.816" y="-497.7341"/></text><text opacity=".8" x="-3032.5017" y="247.81946"><tspan x="-3032.5017" y="247.81946"/></text><text opacity=".8" transform="matrix(.90475 0 0 .90475 -716.75 -708.29)" x="-664.2738" y="1159.4154"><tspan x="-664.2738" y="1159.4154"/></text><text opacity=".8" x="877.22626" y="-13.949411"><tspan x="877.22626" y="-13.949411"/></text><text opacity=".8" x="901.18719" y="-54.691116"><tspan x="901.18719" y="-54.691116"/></text><text opacity=".8" x="-569.37115" y="-84.769257"><tspan x="-569.37115" y="-84.769257"/></text><text opacity=".8" x="-2393.0571" y="660.78418"><tspan x="-2393.0571" y="660.78418"/></text><text opacity=".8" x="-454.88007" y="-470.09021"><tspan x="-454.88007" y="-470.09021"/></text><text opacity=".8" x="352.72208" y="-883.5603"><tspan x="352.72208" y="-883.5603"/></text><text opacity=".8" x="376.68301" y="-924.30206"><tspan x="376.68301" y="-924.30206"/></text><text opacity=".8" x="-1114.7802" y="-931.51196"><tspan x="-1114.7802" y="-931.51196"/></text><text opacity=".8" x="345.7626" y="-1204.7461"><tspan x="345.7626" y="-1204.7461"/></text><text opacity=".8" x="1831.8861" y="-578.05475"><tspan x="1831.8861" y="-578.05475"/></text><text opacity=".8" x="1855.8469" y="-618.79651"><tspan x="1855.8469" y="-618.79651"/></text><text opacity=".8" x="364.38376" y="-626.00641"><tspan x="364.38376" y="-626.00641"/></text><text opacity=".8" x="1824.9266" y="-899.24036"><tspan x="1824.9266" y="-899.24036"/></text><text opacity=".8" x="-573.43256" y="-674.09772"><tspan x="-573.43256" y="-674.09772"/></text><text opacity=".8" x="-2397.1182" y="71.455849"><tspan x="-2397.1182" y="71.455849"/></text><text opacity=".8" x="-682.36279" y="164.32799"><tspan x="-682.36279" y="164.32799"/></text><text opacity=".8" x="426.66153" y="-14.85416"><tspan x="426.66153" y="-14.85416"/></text><text opacity=".8" x="450.62247" y="-55.595863"><tspan x="450.62247" y="-55.595863"/></text><text opacity=".8" x="-1040.8407" y="-62.805836"><tspan x="-1040.8407" y="-62.805836"/></text><text opacity=".8" x="419.70206" y="-336.03989"><tspan x="419.70206" y="-336.03989"/></text><text opacity=".8" x="-608.03253" y="-65.520081"><tspan x="-608.03253" y="-65.520081"/></text><text opacity=".8" x="-2431.7185" y="680.03345"><tspan x="-2431.7185" y="680.03345"/></text><text opacity=".8" x="-456.93948" y="-927.0506"><tspan x="-456.93948" y="-927.0506"/></text><text opacity=".8" x="350.66266" y="-1340.5208"><tspan x="350.66266" y="-1340.5208"/></text><text opacity=".8" x="374.62357" y="-1381.2626"><tspan x="374.62357" y="-1381.2626"/></text><text opacity=".8" x="-1116.8396" y="-1388.4724"><tspan x="-1116.8396" y="-1388.4724"/></text><text opacity=".8" x="343.70316" y="-1661.7065"><tspan x="343.70316" y="-1661.7065"/></text><text opacity=".8" x="1829.8265" y="-1035.0154"><tspan x="1829.8265" y="-1035.0154"/></text><text opacity=".8" x="1853.7874" y="-1075.757"><tspan x="1853.7874" y="-1075.757"/></text><text opacity=".8" x="362.32431" y="-1082.9668"><tspan x="362.32431" y="-1082.9668"/></text><text opacity=".8" x="1822.8671" y="-1356.2009"><tspan x="1822.8671" y="-1356.2009"/></text><text opacity=".8" x="-575.492" y="-1131.0581"><tspan x="-575.492" y="-1131.0581"/></text><text opacity=".8" x="-2399.1777" y="-385.50461"><tspan x="-2399.1777" y="-385.50461"/></text><text opacity=".8" x="-684.42224" y="-292.63245"><tspan x="-684.42224" y="-292.63245"/></text><text opacity=".8" x="155.5923" y="-51.718292"><tspan x="155.5923" y="-51.718292"/></text><text opacity=".8" x="179.55324" y="-92.460007"><tspan x="179.55324" y="-92.460007"/></text><text opacity=".8" x="-1090.2634" y="-286.48859"><tspan x="-1090.2634" y="-286.48859"/></text><text opacity=".8" x="-282.66141" y="-699.9588"><tspan x="-282.66141" y="-699.9588"/></text><text opacity=".8" x="-258.70047" y="-740.7005"><tspan x="-258.70047" y="-740.7005"/></text><text opacity=".8" x="-1750.1636" y="-747.91046"><tspan x="-1750.1636" y="-747.91046"/></text><text opacity=".8" x="-289.62085" y="-1021.1445"><tspan x="-289.62085" y="-1021.1445"/></text><text opacity=".8" x="1196.5026" y="-394.45316"><tspan x="1196.5026" y="-394.45316"/></text><text opacity=".8" x="1220.4634" y="-435.19489"><tspan x="1220.4634" y="-435.19489"/></text><text opacity=".8" x="-270.99973" y="-442.40482"><tspan x="-270.99973" y="-442.40482"/></text><text opacity=".8" x="1189.5431" y="-715.63892"><tspan x="1189.5431" y="-715.63892"/></text><text opacity=".8" x="-1208.816" y="-490.49609"><tspan x="-1208.816" y="-490.49609"/></text><text opacity=".8" x="-3032.5017" y="255.05743"><tspan x="-3032.5017" y="255.05743"/></text><text opacity=".8" transform="matrix(.90475 0 0 .90475 -716.75 -701.05)" x="-664.2738" y="1159.4154"><tspan x="-664.2738" y="1159.4154"/></text><text x="435.90427" y="-393.22546"><tspan x="435.90427" y="-393.22546"/><tspan x="435.90427" y="-377.3924"/></text><text opacity=".8" x="901.0882" y="-875.27002"><tspan x="901.0882" y="-875.27002"/></text><text opacity=".8" x="-922.59778" y="-129.71655"><tspan x="-922.59778" y="-129.71655"/></text><text opacity=".8" x="1628.1677" y="-1160.2659"><tspan x="1628.1677" y="-1160.2659"/></text><text opacity=".8" x="1652.1285" y="-1201.0076"><tspan x="1652.1285" y="-1201.0076"/></text><text opacity=".8" x="160.66542" y="-1208.2175"><tspan x="160.66542" y="-1208.2175"/></text><text opacity=".8" x="1621.2083" y="-1481.4517"><tspan x="1621.2083" y="-1481.4517"/></text><path d="m .800108.0001771c-.22159668 0-.42182224.08897009-.5663915.2335965l7.7661692 7.7661692 7.7661693-7.7661692c-.144569-.14474069-.344566-.23371078-.566277-.23371078h-14.39978428z" fill="#4987d7"/><path d="m .800108 15.999937c-.22159668 0-.42182224-.08914-.5663915-.233711l7.7661692-7.7661689 7.7661693 7.7661689c-.144569.14457-.344566.233711-.566277.233711h-14.39978428z" fill="#a45390"/><path d="m15.99988.8001651c0-.22159668-.08899-.42179939-.233591-.56639722l-7.766169 7.76616922 7.766169 7.7661689c.144569-.144569.233711-.344566.233711-.566277v-14.3997839z" fill="#6db832"/><path d="m .00012.8001651c0-.22159668.08899295-.42179939.23359078-.56639722l7.76616922 7.76616922-7.76616922 7.7661689c-.14474068-.144569-.23371078-.344566-.23371078-.566277v-14.3997839z" fill="#c2352a"/><text opacity=".8" x="842.59186" y="-23.821823"><tspan x="842.59186" y="-23.821823"/></text><text opacity=".8" x="866.5528" y="-64.56353"><tspan x="866.5528" y="-64.56353"/></text><text opacity=".8" x="-604.00555" y="-94.64167"><tspan x="-604.00555" y="-94.64167"/></text><text opacity=".8" x="-2427.6917" y="650.9118"><tspan x="-2427.6917" y="650.9118"/></text><text opacity=".8" x="-489.5145" y="-479.96265"><tspan x="-489.5145" y="-479.96265"/></text><text opacity=".8" x="318.08765" y="-893.43274"><tspan x="318.08765" y="-893.43274"/></text><text opacity=".8" x="342.04858" y="-934.17444"><tspan x="342.04858" y="-934.17444"/></text><text opacity=".8" x="-1149.4146" y="-941.38434"><tspan x="-1149.4146" y="-941.38434"/></text><text opacity=".8" x="311.12817" y="-1214.6185"><tspan x="311.12817" y="-1214.6185"/></text><text opacity=".8" x="1797.2517" y="-587.92712"><tspan x="1797.2517" y="-587.92712"/></text><text opacity=".8" x="1821.2125" y="-628.66888"><tspan x="1821.2125" y="-628.66888"/></text><text opacity=".8" x="329.74933" y="-635.87878"><tspan x="329.74933" y="-635.87878"/></text><text opacity=".8" x="1790.2922" y="-909.11279"><tspan x="1790.2922" y="-909.11279"/></text><text opacity=".8" x="-608.06696" y="-683.97009"><tspan x="-608.06696" y="-683.97009"/></text><text opacity=".8" x="-2431.7527" y="61.583435"><tspan x="-2431.7527" y="61.583435"/></text><text opacity=".8" x="-716.99719" y="154.45557"><tspan x="-716.99719" y="154.45557"/></text><text opacity=".8" x="392.0271" y="-24.726572"><tspan x="392.0271" y="-24.726572"/></text><text opacity=".8" x="415.98804" y="-65.468277"><tspan x="415.98804" y="-65.468277"/></text><text opacity=".8" x="-1075.4751" y="-72.678253"><tspan x="-1075.4751" y="-72.678253"/></text><text opacity=".8" x="385.06763" y="-345.91232"><tspan x="385.06763" y="-345.91232"/></text><text opacity=".8" x="-642.66693" y="-75.392494"><tspan x="-642.66693" y="-75.392494"/></text><text opacity=".8" x="-2466.353" y="670.16101"><tspan x="-2466.353" y="670.16101"/></text><text opacity=".8" x="-491.57391" y="-936.92297"><tspan x="-491.57391" y="-936.92297"/></text><text opacity=".8" x="316.02823" y="-1350.3932"><tspan x="316.02823" y="-1350.3932"/></text><text opacity=".8" x="339.98914" y="-1391.1349"><tspan x="339.98914" y="-1391.1349"/></text><text opacity=".8" x="-1151.474" y="-1398.3448"><tspan x="-1151.474" y="-1398.3448"/></text><text opacity=".8" x="309.06873" y="-1671.579"><tspan x="309.06873" y="-1671.579"/></text><text opacity=".8" x="1795.1921" y="-1044.8877"><tspan x="1795.1921" y="-1044.8877"/></text><text opacity=".8" x="1819.153" y="-1085.6293"><tspan x="1819.153" y="-1085.6293"/></text><text opacity=".8" x="327.68988" y="-1092.8392"><tspan x="327.68988" y="-1092.8392"/></text><text opacity=".8" x="1788.2327" y="-1366.0734"><tspan x="1788.2327" y="-1366.0734"/></text><text opacity=".8" x="-610.1264" y="-1140.9305"><tspan x="-610.1264" y="-1140.9305"/></text><text opacity=".8" x="-2433.8123" y="-395.37704"><tspan x="-2433.8123" y="-395.37704"/></text><text opacity=".8" x="-719.05664" y="-302.50488"><tspan x="-719.05664" y="-302.50488"/></text><text opacity=".8" x="120.95788" y="-61.590698"><tspan x="120.95788" y="-61.590698"/></text><text opacity=".8" x="144.91881" y="-102.33242"><tspan x="144.91881" y="-102.33242"/></text><text opacity=".8" x="-1124.8978" y="-296.36105"><tspan x="-1124.8978" y="-296.36105"/></text><text opacity=".8" x="-317.29584" y="-709.83118"><tspan x="-317.29584" y="-709.83118"/></text><text opacity=".8" x="-293.3349" y="-750.57288"><tspan x="-293.3349" y="-750.57288"/></text><text opacity=".8" x="-1784.798" y="-757.78278"><tspan x="-1784.798" y="-757.78278"/></text><text opacity=".8" x="-324.25528" y="-1031.0168"><tspan x="-324.25528" y="-1031.0168"/></text><text opacity=".8" x="1161.8682" y="-404.32556"><tspan x="1161.8682" y="-404.32556"/></text><text opacity=".8" x="1185.829" y="-445.06729"><tspan x="1185.829" y="-445.06729"/></text><text opacity=".8" x="-305.63416" y="-452.27725"><tspan x="-305.63416" y="-452.27725"/></text><text opacity=".8" x="1154.9087" y="-725.51129"><tspan x="1154.9087" y="-725.51129"/></text><text opacity=".8" x="-1243.4504" y="-500.36853"><tspan x="-1243.4504" y="-500.36853"/></text><text opacity=".8" x="-3067.1362" y="245.18503"><tspan x="-3067.1362" y="245.18503"/></text><text opacity=".8" transform="matrix(.90475 0 0 .90475 -751.38 -710.92)" x="-664.2738" y="1159.4154"><tspan x="-664.2738" y="1159.4154"/></text><text opacity=".8" x="842.59186" y="-16.583836"><tspan x="842.59186" y="-16.583836"/></text><text opacity=".8" x="866.5528" y="-57.325539"><tspan x="866.5528" y="-57.325539"/></text><text opacity=".8" x="-604.00555" y="-87.403679"><tspan x="-604.00555" y="-87.403679"/></text><text opacity=".8" x="-2427.6917" y="658.14978"><tspan x="-2427.6917" y="658.14978"/></text><text opacity=".8" x="-489.5145" y="-472.72464"><tspan x="-489.5145" y="-472.72464"/></text><text opacity=".8" x="318.08765" y="-886.1947"><tspan x="318.08765" y="-886.1947"/></text><text opacity=".8" x="342.04858" y="-926.93646"><tspan x="342.04858" y="-926.93646"/></text><text opacity=".8" x="-1149.4146" y="-934.14636"><tspan x="-1149.4146" y="-934.14636"/></text><text opacity=".8" x="311.12817" y="-1207.3805"><tspan x="311.12817" y="-1207.3805"/></text><text opacity=".8" x="1797.2517" y="-580.68915"><tspan x="1797.2517" y="-580.68915"/></text><text opacity=".8" x="1821.2125" y="-621.43091"><tspan x="1821.2125" y="-621.43091"/></text><text opacity=".8" x="329.74933" y="-628.64081"><tspan x="329.74933" y="-628.64081"/></text><text opacity=".8" x="1790.2922" y="-901.87476"><tspan x="1790.2922" y="-901.87476"/></text><text opacity=".8" x="-608.06696" y="-676.73212"><tspan x="-608.06696" y="-676.73212"/></text><text opacity=".8" x="-2431.7527" y="68.821426"><tspan x="-2431.7527" y="68.821426"/></text><text opacity=".8" x="-716.99719" y="161.69356"><tspan x="-716.99719" y="161.69356"/></text><text opacity=".8" x="392.0271" y="-17.488585"><tspan x="392.0271" y="-17.488585"/></text><text opacity=".8" x="415.98804" y="-58.230286"><tspan x="415.98804" y="-58.230286"/></text><text opacity=".8" x="-1075.4751" y="-65.440262"><tspan x="-1075.4751" y="-65.440262"/></text><text opacity=".8" x="385.06763" y="-338.67432"><tspan x="385.06763" y="-338.67432"/></text><text opacity=".8" x="-642.66693" y="-68.154503"><tspan x="-642.66693" y="-68.154503"/></text><text opacity=".8" x="-2466.353" y="677.39905"><tspan x="-2466.353" y="677.39905"/></text><text opacity=".8" x="-491.57391" y="-929.685"><tspan x="-491.57391" y="-929.685"/></text><text opacity=".8" x="316.02823" y="-1343.1552"><tspan x="316.02823" y="-1343.1552"/></text><text opacity=".8" x="339.98914" y="-1383.897"><tspan x="339.98914" y="-1383.897"/></text><text opacity=".8" x="-1151.474" y="-1391.1068"><tspan x="-1151.474" y="-1391.1068"/></text><text opacity=".8" x="309.06873" y="-1664.3409"><tspan x="309.06873" y="-1664.3409"/></text><text opacity=".8" x="1795.1921" y="-1037.6497"><tspan x="1795.1921" y="-1037.6497"/></text><text opacity=".8" x="1819.153" y="-1078.3914"><tspan x="1819.153" y="-1078.3914"/></text><text opacity=".8" x="327.68988" y="-1085.6012"><tspan x="327.68988" y="-1085.6012"/></text><text opacity=".8" x="1788.2327" y="-1358.8353"><tspan x="1788.2327" y="-1358.8353"/></text><text opacity=".8" x="-610.1264" y="-1133.6925"><tspan x="-610.1264" y="-1133.6925"/></text><text opacity=".8" x="-2433.8123" y="-388.13904"><tspan x="-2433.8123" y="-388.13904"/></text><text opacity=".8" x="-719.05664" y="-295.26688"><tspan x="-719.05664" y="-295.26688"/></text><text opacity=".8" x="120.95788" y="-54.352715"><tspan x="120.95788" y="-54.352715"/></text><text opacity=".8" x="144.91881" y="-95.094429"><tspan x="144.91881" y="-95.094429"/></text><text opacity=".8" x="-1124.8978" y="-289.12302"><tspan x="-1124.8978" y="-289.12302"/></text><text opacity=".8" x="-317.29584" y="-702.5932"><tspan x="-317.29584" y="-702.5932"/></text><text opacity=".8" x="-293.3349" y="-743.3349"><tspan x="-293.3349" y="-743.3349"/></text><text opacity=".8" x="-1784.798" y="-750.54486"><tspan x="-1784.798" y="-750.54486"/></text><text opacity=".8" x="-324.25528" y="-1023.7789"><tspan x="-324.25528" y="-1023.7789"/></text><text opacity=".8" x="1161.8682" y="-397.08759"><tspan x="1161.8682" y="-397.08759"/></text><text opacity=".8" x="1185.829" y="-437.82932"><tspan x="1185.829" y="-437.82932"/></text><text opacity=".8" x="-305.63416" y="-445.03925"><tspan x="-305.63416" y="-445.03925"/></text><text opacity=".8" x="1154.9087" y="-718.27332"><tspan x="1154.9087" y="-718.27332"/></text><text opacity=".8" x="-1243.4504" y="-493.13052"><tspan x="-1243.4504" y="-493.13052"/></text><text opacity=".8" x="-3067.1362" y="252.423"><tspan x="-3067.1362" y="252.423"/></text><text opacity=".8" transform="matrix(.90475 0 0 .90475 -751.38 -703.68)" x="-664.2738" y="1159.4154"><tspan x="-664.2738" y="1159.4154"/></text><text x="401.26984" y="-395.85989"><tspan x="401.26984" y="-395.85989"/><tspan x="401.26984" y="-380.02682"/></text><text opacity=".8" x="866.4538" y="-877.90442"><tspan x="866.4538" y="-877.90442"/></text><text opacity=".8" x="-957.23218" y="-132.35098"><tspan x="-957.23218" y="-132.35098"/></text><text opacity=".8" x="1593.5333" y="-1162.9003"><tspan x="1593.5333" y="-1162.9003"/></text><text opacity=".8" x="1617.4941" y="-1203.642"><tspan x="1617.4941" y="-1203.642"/></text><text opacity=".8" x="126.031" y="-1210.8519"><tspan x="126.031" y="-1210.8519"/></text><text opacity=".8" x="1586.5739" y="-1484.0861"><tspan x="1586.5739" y="-1484.0861"/></text></svg>