<svg height="16" viewBox="0 0 16 16" width="16" xmlns="http://www.w3.org/2000/svg"><path d="m14.361621 7.1007802l-11.8277388-6.89366005c-.5053832-.2910252-.9575681-.2637416-1.2324256.009095l0 0c-.1950602.19098483-.30145663.50019912-.30145663.90035885v13.760037c0 .40016.11526293.709375.30145663.900359l0 0c .2837238.281932.7270424.309215 1.2324256.0091l11.8277388-6.8936647c.851172-.4911051.851172-1.2914245 0-1.791624z" fill="#eb4d27"/><path d="m8 2c-1.7234042 0-3.2728323.730953-4.3671875 1.8945312a6 6 0 0 0 -.015625.015625c-.1331963.1426622-.25804.2921244-.3769531.4472657-.1142629.1490743-.2201941.3032506-.3203125.4628906a6 6 0 0 0 -.046875.0761719c-.0895856.1476789-.1731602.2994116-.25.4550781a6 6 0 0 0 -.0253907.0507813c-.0791536.1642704-.1506342.3317349-.2148437.5039062a6 6 0 0 0 -.0175781.046875c-.0591918.162891-.1111163.3289251-.15625.4980469a6 6 0 0 0 -.0273438.1015625c-.0370895.1495077-.0681098.3013794-.09375.4550781a6 6 0 0 0 -.0253906.171875c-.0174446.1272209-.0316776.255133-.0410156.3847656a6 6 0 0 0 -.0214844.4355469 6 6 0 0 0  .0507812.7285156c.0107979.0890023.0263643.1759154.0410157.2636719a6 6 0 0 0  .0996093.4746094c.0212471.084308.03968.1691065.0644532.2519531a6 6 0 0 0  .21875.617188 6 6 0 0 0  .0039062.007812c.0412165.096967.090625.188931.1367188.283203a6 6 0 0 0  .1777344.341797c.0575074.100641.1185809.198041.1816406.294922a6 6 0 0 0  .2226562.316406c.0623793.083533.1229047.167953.1894532.248047a6 6 0 0 0  .40625.441406 6 6 0 0 0  .03125.033203c.0778956.075639.1622436.143487.2441406.214844a6 6 0 0 0  .2773437.230469c.0981273.075661.1979732.147211.3007813.216797a6 6 0 0 0  .2734375.171875c.0754672.045355.1450774.098544.2226562.140625.01721.009335.0319716.005931.0488281.013672a6 6 0 0 0  .9296876.402343l7.7636722-4.5234371a6 6 0 0 0  .115234-1.1699219c0-3.3137085-2.686292-6-6-6z" fill="#ffd739"/><circle cx="8" cy="8" fill="#ff8c00" r="3"/></svg>