<svg height="16" viewBox="0 0 16 16" width="16" xmlns="http://www.w3.org/2000/svg"><path d="m5.6591323 15.991829c-.3320184-.0371-.5743686-.10504-.8376302-.234815-.5677397-.279867-.9523098-.768942-1.0914792-1.388081-.046892-.208616-.046867-.687626.0000536-.903018.1244744-.571478.3866282-.996232 1.2795549-2.073196.5415625-.653188 1.5200882-1.7710808 1.5502764-1.7710808.00923 0 .081246.042314.1600327.094027.2777853.1823325.6072093.3052938.9682573.3614118.036462.0057.070311.01658.075232.02426.00493.0077.037237.365355.071821.79485.1249255 1.551523.1731939 2.480028.1491046 2.868234-.022683.365506-.1289322.758088-.2894591 1.069502-.2305551.447267-.6151791.809636-1.0590013.997726-.3034733.12861-.6908406.192137-.9767626.160187zm4.4608617-.8568c-.7487246-.131966-1.3040163-.740421-1.5607856-1.710215-.1192849-.450527-.4949558-2.64469-.546274-3.190598l-.012049-.128186.078165-.0086c.4362317-.04805.6081936-.09031.8854521-.2176241.1005216-.04616.2415944-.1231263.3134973-.1710411.071902-.047914.1350769-.087117.1403877-.087117.010581 0 .7288815.7556052 1.0956065 1.1525092.569036.615864 1.026864 1.144548 1.184087 1.367341.455556.645544.61708 1.375829.429295 1.940928-.08726.262599-.242197.479346-.467889.654556-.419589.325738-1.039864.486118-1.539492.398057zm3.586532-2.771782c-.574822-.054989-1.133774-.287203-1.623753-.674583-.282044-.222984-1.107013-.934265-1.498547-1.292035-.329727-.301292-.9727708-.9199702-.9727708-.9359119 0-.00826.038997-.058633.086664-.1119486.245096-.2741525.3980718-.5668799.5018108-.9602428l.01901-.072089.896229.00766c2.554676.021829 2.783035.033869 3.28725.1733063.614922.1700554 1.108636.5264965 1.374102.9920456.30463.5342324.29752 1.1934174-.01946 1.8039964-.101792.196071-.174163.294607-.336878.458664-.29556.297996-.650508.486025-1.072481.568136-.175587.03417-.503585.05617-.64118.04301zm-3.457693-4.4917435c-.0057-.1300777-.02307-.294556-.0387-.3655074-.061729-.2801903-.184718-.5671285-.3342956-.7799171-.0388553-.0552743-.0664603-.1110217-.0613415-.1238783.0198031-.0497428 1.4050801-1.1429919 1.9827821-1.5647907.396236-.2893046.626221-.433144.910015-.5691497.874778-.4192291 1.684282-.3945867 2.286125.069593.276528.2132749.509764.5702411.607586.9299023.0645.2371359.06875.6107982.0096.8394965-.182976.7069308-.745439 1.1927793-1.60471 1.3861267-.295815.066562-1.377206.2074212-2.253182.2934932-.411988.040474-1.373554.121136-1.444151.121136h-.04945l-.01028-.2365045zm-8.194077.0983611c-.6452485-.0633011-1.17553578-.2809891-1.53359096-.6295525-.5860088-.5704742-.68666857-1.4566216-.25704483-2.2628656.29129745-.5466575.75640639-.893409 1.37131479-1.0223525.2264716-.04749.7112136-.043694.9572608.007496.357552.074389.7385508.2284955 1.0553217.4268566.38799.2429583 1.6407308 1.186849 2.3020268 1.7344873l.3265989.2704657-.0310462.0456914c-.0170773.025126-.0642016.089102-.1047189.142164-.1723285.2256754-.3234627.5886234-.3776749.9069845l-.029336.1722726-.081974.010217c-.3095498.038583-1.6327498.1470195-2.2142673.1814658-.4317184.025571-1.1979731.034811-1.3828669.016674zm7.4934075-1.6185044c-.2751323-.2770046-.7802689-.5122908-1.2386469-.5769468-.1033938-.0145829-.1907162-.0289658-.1940493-.03196-.0033229-.0030286-.0211445-.2092183-.0395815-.4582772-.1078665-1.4572625-.1409556-2.3255031-.1098258-2.8817673.0306708-.5480849.0817791-.7955249.2274578-1.1012501.1488099-.31229515.4789188-.6853749.7758432-.87683643.6446296-.41566654 1.437089-.53275584 2.172984-.32106797 1.152175.33143449 1.837133 1.5474174 1.529709 2.7156399-.145839.5541935-.520409 1.1012921-1.40137 2.0468488-.331238.3555263-1.5827408 1.5566314-1.6219463 1.5566314-.016523 0-.061782-.031954-.100576-.071014zm-3.9236945-.7933028c-1.4404161-1.3867571-1.8630148-1.8959969-2.0712275-2.4958683-.0952854-.2745227-.1212143-.4555599-.1099802-.767897.0112548-.312943.0454433-.4586291.1648909-.7026602.2271209-.4640084.6123537-.77638733 1.1766508-.95412714.3972425-.12512171.7798696-.14026891 1.1598242-.04591429.2067335.05133829.5085753.20065365.6868788.33978564.3244942.25320639.5874425.65582879.6943909 1.06324079.07635.2908488.1879827 1.0014233.3308129 2.1057114.134832 1.042448.2024486 1.6247456.1901864 1.6378371-.00639.00682-.07167.020486-.1450671.030366-.4146455.055806-.794856.2120868-1.1158264.4586559-.065859.050594-.1312702.091988-.1453571.091988-.014086 0-.3813655-.3425017-.8161766-.7611153z" fill="#37b648"/><path d="m2.7690506 12.043967c-.7018158-.0771-1.3796163-.684695-1.5814929-1.417684-.0537631-.195207-.0656815-.523504-.0259028-.7135014.0658394-.3144742.222255-.5813434.481173-.8209559.4116542-.3809611.9198022-.5788137 2.0356819-.7926148.6719824-.1287514 1.9996374-.3189617 2.0361665-.2917177.010923.00814.025348.07323.032062.1446314.036874.3922594.2293016.833408.4975841 1.1407394.060886.06975.118259.1367634.1274917.1489194.011766.015486-.00425.046948-.053532.1051697-.1048906.1239148-1.3033066 1.2792219-1.5606445 1.5045059-.2471476.216363-.682653.579843-.7936329.662378-.129694.09645-.3544657.210502-.5182864.262977-.1384463.04435-.4215159.09167-.507712.08488-.01472-.0011-.090751-.0091-.1689579-.01772z" fill="#f15b43"/><circle cx="8" cy="8" fill="#ffca2b" r="3"/></svg>