<?xml version="1.0" encoding="UTF-8" standalone="no"?>
<!-- Created with Inkscape (http://www.inkscape.org/) -->

<svg
   xmlns:dc="http://purl.org/dc/elements/1.1/"
   xmlns:cc="http://creativecommons.org/ns#"
   xmlns:rdf="http://www.w3.org/1999/02/22-rdf-syntax-ns#"
   xmlns:svg="http://www.w3.org/2000/svg"
   xmlns="http://www.w3.org/2000/svg"
   xmlns:sodipodi="http://sodipodi.sourceforge.net/DTD/sodipodi-0.dtd"
   xmlns:inkscape="http://www.inkscape.org/namespaces/inkscape"
   width="16"
   height="16"
   viewBox="0 0 16 16.000001"
   id="svg4205"
   version="1.1"
   inkscape:version="0.91 r13725"
   sodipodi:docname="insurgency.svg">
  <defs
     id="defs4207" />
  <sodipodi:namedview
     id="base"
     pagecolor="#ffffff"
     bordercolor="#666666"
     borderopacity="1.0"
     inkscape:pageopacity="0.0"
     inkscape:pageshadow="2"
     inkscape:zoom="3.52"
     inkscape:cx="-47.039773"
     inkscape:cy="31.6875"
     inkscape:document-units="px"
     inkscape:current-layer="layer1"
     showgrid="false"
     units="px"
     inkscape:window-width="1600"
     inkscape:window-height="849"
     inkscape:window-x="0"
     inkscape:window-y="0"
     inkscape:window-maximized="1" />
  <metadata
     id="metadata4210">
    <rdf:RDF>
      <cc:Work
         rdf:about="">
        <dc:format>image/svg+xml</dc:format>
        <dc:type
           rdf:resource="http://purl.org/dc/dcmitype/StillImage" />
        <dc:title></dc:title>
      </cc:Work>
    </rdf:RDF>
  </metadata>
  <g
     inkscape:label="Layer 1"
     inkscape:groupmode="layer"
     id="layer1"
     transform="translate(0,-1036.3622)">
    <g
       transform="translate(-16,1020.3622)"
       id="g4201">
      <rect
         rx="1"
         ry="1"
         y="16"
         x="16"
         height="16"
         width="16"
         id="rect4223"
         style="opacity:1;fill:#58807c;fill-opacity:1;stroke:none;stroke-width:6;stroke-linecap:round;stroke-linejoin:round;stroke-miterlimit:4;stroke-dasharray:none;stroke-opacity:1" />
      <path
         inkscape:connector-curvature="0"
         id="path4169"
         d="m 19.996094,21 -1.34961,1.396484 1.34961,0 0.451172,0.466797 0.90039,-1.398437 L 20.896484,21 l -0.90039,0 z m 1.802734,0.464844 -0.902344,1.398437 0.451172,1.396485 1.351563,-1.396485 0,0.464844 -1.351563,1.398437 0.451172,0.929688 1.800781,-1.861328 0,0.464844 -1.800781,1.863281 0.900391,0 0.90039,0 0.900391,-0.931641 0,-0.93164 -0.451172,-0.464844 0,-0.931641 -0.90039,-0.466797 -0.449219,-0.93164 -0.900391,0 z m -4.054687,1.398437 -0.449219,0.464844 0.90039,3.259766 L 16,29.111328 16,31 c 0,0.554 0.446,1 1,1 l 0.986328,0 2.910156,-4.013672 0.902344,0 0.449219,-0.466797 0.900391,-0.464843 0.451171,-0.466797 -2.251953,0 -0.451172,-1.396485 -0.449218,0 -0.451172,1.396485 -0.900391,0 0.451172,-1.396485 -0.900391,-0.93164 0.449219,-0.464844 0.900391,0.93164 0.90039,0 0,-0.466796 -0.90039,-1.396485 -1.800782,0 -0.451171,0 z m -0.900391,0.931641 0.451172,2.328125 0,0.464844 L 16,27.792969 l 0,0.417969 c 0.684291,-0.637511 1.159803,-1.085522 1.744141,-1.623047 L 16.84375,23.794922 Z m 3.152344,4.191406 0.451172,0 -2.251954,2.792969 1.800782,-2.792969 z"
         style="fill:#ececec;fill-rule:evenodd;stroke:none" />
    </g>
  </g>
</svg>
