/* XPM */
static char * links_32x32_xpm[] = {
"16 16 46 1",
" 	c None",
".	c #7C7C7C",
"+	c #808080",
"@	c #838383",
"#	c #7B7B7B",
"$	c #828282",
"%	c #7D7D7D",
"&	c #848282",
"*	c #786261",
"=	c #8C7E7D",
"-	c #AA5650",
";	c #504D4D",
">	c #4C4C4C",
",	c #9A7573",
"'	c #D54B40",
")	c #5D4B4A",
"!	c #4D4D4D",
"~	c #B06964",
"{	c #ED4337",
"]	c #744B47",
"^	c #878080",
"/	c #C95B53",
"(	c #F34235",
"_	c #934943",
":	c #888888",
"<	c #CC857F",
"[	c #B7453D",
"}	c #CDCDCD",
"|	c #F4F4F4",
"1	c #B7706B",
"2	c #544D4C",
"3	c #B4B4B4",
"4	c #B8B8B8",
"5	c #545454",
"6	c #9C9C9C",
"7	c #EFEFEF",
"8	c #9A9A9A",
"9	c #4E4E4E",
"0	c #8D8D8D",
"a	c #D6D6D6",
"b	c #727272",
"c	c #848484",
"d	c #ACACAC",
"e	c #5D5D5D",
"f	c #797979",
"g	c #4F4F4F",
"     .+@@+.     ",
"   #$@@@@@@$.   ",
"  %@@@@@@@@@&*  ",
" %@@@@@@@@@=-;> ",
" $@@@@@@@@,')!! ",
".@@@@@@@@~{]!!!!",
"+@@@@@@^/(_!!!!!",
"@@@@@@:<([!!!!!!",
"$@@@@@}|12!!!!!!",
"+@@@@3|45!!!!!!!",
".@@@678!!!!!!!!9",
" $@0ab!!!!!!!!! ",
" .cde!!!!!!!!!! ",
"  fg!!!!!!!!!>  ",
"   >!!!!!!!!!   ",
"     !!!!!9     "};
