<?xml version="1.0" encoding="UTF-8" standalone="no"?>
<!-- Created with Inkscape (http://www.inkscape.org/) -->

<svg
   xmlns:dc="http://purl.org/dc/elements/1.1/"
   xmlns:cc="http://creativecommons.org/ns#"
   xmlns:rdf="http://www.w3.org/1999/02/22-rdf-syntax-ns#"
   xmlns:svg="http://www.w3.org/2000/svg"
   xmlns="http://www.w3.org/2000/svg"
   xmlns:sodipodi="http://sodipodi.sourceforge.net/DTD/sodipodi-0.dtd"
   xmlns:inkscape="http://www.inkscape.org/namespaces/inkscape"
   width="16"
   height="16"
   viewBox="0 0 16 16"
   id="svg2"
   version="1.1"
   inkscape:version="0.91 r13725"
   sodipodi:docname="money-manager-ex.svg">
  <defs
     id="defs4" />
  <sodipodi:namedview
     id="base"
     pagecolor="#ffffff"
     bordercolor="#666666"
     borderopacity="1.0"
     inkscape:pageopacity="0.0"
     inkscape:pageshadow="2"
     inkscape:zoom="1"
     inkscape:cx="5.1737156"
     inkscape:cy="14.099889"
     inkscape:document-units="px"
     inkscape:current-layer="layer1"
     showgrid="false"
     units="px"
     inkscape:window-width="1600"
     inkscape:window-height="849"
     inkscape:window-x="0"
     inkscape:window-y="0"
     inkscape:window-maximized="1">
    <inkscape:grid
       type="xygrid"
       id="grid4136" />
  </sodipodi:namedview>
  <metadata
     id="metadata7">
    <rdf:RDF>
      <cc:Work
         rdf:about="">
        <dc:format>image/svg+xml</dc:format>
        <dc:type
           rdf:resource="http://purl.org/dc/dcmitype/StillImage" />
        <dc:title></dc:title>
      </cc:Work>
    </rdf:RDF>
  </metadata>
  <g
     inkscape:label="Layer 1"
     inkscape:groupmode="layer"
     id="layer1"
     transform="translate(0,-1036.3622)">
    <circle
       style="opacity:1;fill:#329c32;fill-opacity:1;stroke:none;stroke-width:0.2;stroke-miterlimit:4;stroke-dasharray:none;stroke-opacity:1"
       id="path4136"
       cx="8"
       cy="1044.3622"
       r="8" />
    <path
       style="font-style:normal;font-variant:normal;font-weight:normal;font-stretch:normal;font-size:medium;line-height:125%;font-family:'Arial Black';-inkscape-font-specification:'Arial Black, Normal';text-align:start;letter-spacing:0px;word-spacing:0px;writing-mode:lr-tb;text-anchor:start;fill:#262626;fill-opacity:1;stroke:none;stroke-width:1px;stroke-linecap:butt;stroke-linejoin:miter;stroke-opacity:1"
       sodipodi:nodetypes="ccccccscccccccccccccccccsccccccccsscccccsccc"
       inkscape:connector-curvature="0"
       id="path4143"
       d="m 10.67784,1041.9139 -2.0770533,0.3294 c -0.1042245,-0.2643 -0.1991439,-0.4467 -0.2847573,-0.5472 -0.081891,-0.1045 -0.2196166,-0.2085 -0.4131772,-0.3127 l 0,1.6137 c 1.1315848,0.3014 1.8872158,0.6198 2.2668938,0.9548 0.502512,0.4503 0.75377,1.0217 0.75377,1.7141 0,0.4058 -0.0912,0.778 -0.27359,1.1166 -0.178672,0.3388 -0.409455,0.6217 -0.692354,0.8488 -0.279173,0.227 -0.576959,0.3927 -0.893356,0.4969 -0.3163977,0.1 -0.7035182,0.16 -1.1613638,0.1787 l 0,1.0552 -0.8151878,0 0,-1.0552 c -0.5471811,-0.048 -0.9919983,-0.1359 -1.3344516,-0.2625 -0.3387311,-0.1302 -0.6327945,-0.3089 -0.88219,-0.536 -0.2456728,-0.2271 -0.4355111,-0.4709 -0.5695145,-0.7314 C 4.1675044,1046.5128 4.0670017,1046.4011 4,1046.0289 l 2.2557256,-0.5556 c 0.067001,0.3686 0.1563377,0.7212 0.2680072,0.885 0.1153916,0.1638 0.3033689,0.309 0.5639316,0.4356 l 0,-1.971 c -0.7519088,-0.2085 -1.2860616,-0.389 -1.6024588,-0.5416 -0.3126745,-0.1527 -0.5844039,-0.3964 -0.8151878,-0.7314 -0.2307839,-0.3388 -0.3461756,-0.7501 -0.3461756,-1.234 0,-0.6626 0.2307839,-1.2154 0.6923511,-1.6583 0.46529,-0.4467 1.1557806,-0.6942 2.0714711,-0.7426 l 0,-0.5528 0.8151878,0 0,0.5528 c 0.8337995,0.052 1.4703158,0.2494 1.9095498,0.5919 0.442957,0.3424 0.731436,0.8114 0.865439,1.407 z m -3.5901756,-0.5584 c -0.2382283,0.078 -0.4038722,0.1749 -0.49693,0.2904 -0.093058,0.1154 -0.1395866,0.2512 -0.1395866,0.4075 0,0.1638 0.046528,0.3071 0.1395866,0.43 0.09678,0.1191 0.2624234,0.2196 0.49693,0.3015 z m 0.8151878,5.4941 c 0.3163972,-0.071 0.5471806,-0.1861 0.6923511,-0.3461 0.1488928,-0.1637 0.2233395,-0.3462 0.2233395,-0.5472 0,-0.1749 -0.063279,-0.335 -0.1898384,-0.4802 -0.1228366,-0.1489 -0.3647872,-0.2866 -0.7258522,-0.4131 z" />
  </g>
</svg>
