<svg height="16" width="16" xmlns="http://www.w3.org/2000/svg"><text opacity=".8" x="877.22626" y="-21.187399"><tspan x="877.22626" y="-21.187399"/></text><text opacity=".8" x="901.18719" y="-61.929108"><tspan x="901.18719" y="-61.929108"/></text><text opacity=".8" x="-569.37115" y="-92.007248"><tspan x="-569.37115" y="-92.007248"/></text><text opacity=".8" x="-2393.0571" y="653.5462"><tspan x="-2393.0571" y="653.5462"/></text><text opacity=".8" x="-454.88007" y="-477.32822"><tspan x="-454.88007" y="-477.32822"/></text><text opacity=".8" x="352.72208" y="-890.79834"><tspan x="352.72208" y="-890.79834"/></text><text opacity=".8" x="376.68301" y="-931.54004"><tspan x="376.68301" y="-931.54004"/></text><text opacity=".8" x="-1114.7802" y="-938.74994"><tspan x="-1114.7802" y="-938.74994"/></text><text opacity=".8" x="345.7626" y="-1211.9841"><tspan x="345.7626" y="-1211.9841"/></text><text opacity=".8" x="1831.8861" y="-585.29272"><tspan x="1831.8861" y="-585.29272"/></text><text opacity=".8" x="1855.8469" y="-626.03448"><tspan x="1855.8469" y="-626.03448"/></text><text opacity=".8" x="364.38376" y="-633.24438"><tspan x="364.38376" y="-633.24438"/></text><text opacity=".8" x="1824.9266" y="-906.47839"><tspan x="1824.9266" y="-906.47839"/></text><text opacity=".8" x="-573.43256" y="-681.33569"><tspan x="-573.43256" y="-681.33569"/></text><text opacity=".8" x="-2397.1182" y="64.217857"><tspan x="-2397.1182" y="64.217857"/></text><text opacity=".8" x="-682.36279" y="157.09"><tspan x="-682.36279" y="157.09"/></text><text opacity=".8" x="426.66153" y="-22.092148"><tspan x="426.66153" y="-22.092148"/></text><text opacity=".8" x="450.62247" y="-62.833855"><tspan x="450.62247" y="-62.833855"/></text><text opacity=".8" x="-1040.8407" y="-70.043823"><tspan x="-1040.8407" y="-70.043823"/></text><text opacity=".8" x="419.70206" y="-343.27789"><tspan x="419.70206" y="-343.27789"/></text><text opacity=".8" x="-608.03253" y="-72.758072"><tspan x="-608.03253" y="-72.758072"/></text><text opacity=".8" x="-2431.7185" y="672.79541"><tspan x="-2431.7185" y="672.79541"/></text><text opacity=".8" x="-456.93948" y="-934.28857"><tspan x="-456.93948" y="-934.28857"/></text><text opacity=".8" x="350.66266" y="-1347.7588"><tspan x="350.66266" y="-1347.7588"/></text><text opacity=".8" x="374.62357" y="-1388.5005"><tspan x="374.62357" y="-1388.5005"/></text><text opacity=".8" x="-1116.8396" y="-1395.7104"><tspan x="-1116.8396" y="-1395.7104"/></text><text opacity=".8" x="343.70316" y="-1668.9446"><tspan x="343.70316" y="-1668.9446"/></text><text opacity=".8" x="1829.8265" y="-1042.2533"><tspan x="1829.8265" y="-1042.2533"/></text><text opacity=".8" x="1853.7874" y="-1082.9949"><tspan x="1853.7874" y="-1082.9949"/></text><text opacity=".8" x="362.32431" y="-1090.2048"><tspan x="362.32431" y="-1090.2048"/></text><text opacity=".8" x="1822.8671" y="-1363.439"><tspan x="1822.8671" y="-1363.439"/></text><text opacity=".8" x="-575.492" y="-1138.2961"><tspan x="-575.492" y="-1138.2961"/></text><text opacity=".8" x="-2399.1777" y="-392.74261"><tspan x="-2399.1777" y="-392.74261"/></text><text opacity=".8" x="-684.42224" y="-299.87045"><tspan x="-684.42224" y="-299.87045"/></text><text opacity=".8" x="155.5923" y="-58.956276"><tspan x="155.5923" y="-58.956276"/></text><text opacity=".8" x="179.55324" y="-99.697998"><tspan x="179.55324" y="-99.697998"/></text><text opacity=".8" x="-1090.2634" y="-293.72662"><tspan x="-1090.2634" y="-293.72662"/></text><text opacity=".8" x="-282.66141" y="-707.19678"><tspan x="-282.66141" y="-707.19678"/></text><text opacity=".8" x="-258.70047" y="-747.93848"><tspan x="-258.70047" y="-747.93848"/></text><text opacity=".8" x="-1750.1636" y="-755.14838"><tspan x="-1750.1636" y="-755.14838"/></text><text opacity=".8" x="-289.62085" y="-1028.3826"><tspan x="-289.62085" y="-1028.3826"/></text><text opacity=".8" x="1196.5026" y="-401.69113"><tspan x="1196.5026" y="-401.69113"/></text><text opacity=".8" x="1220.4634" y="-442.43286"><tspan x="1220.4634" y="-442.43286"/></text><text opacity=".8" x="-270.99973" y="-449.64282"><tspan x="-270.99973" y="-449.64282"/></text><text opacity=".8" x="1189.5431" y="-722.87689"><tspan x="1189.5431" y="-722.87689"/></text><text opacity=".8" x="-1208.816" y="-497.7341"><tspan x="-1208.816" y="-497.7341"/></text><text opacity=".8" x="-3032.5017" y="247.81946"><tspan x="-3032.5017" y="247.81946"/></text><text opacity=".8" transform="matrix(.90475 0 0 .90475 -716.75 -708.29)" x="-664.2738" y="1159.4154"><tspan x="-664.2738" y="1159.4154"/></text><text opacity=".8" x="877.22626" y="-13.949411"><tspan x="877.22626" y="-13.949411"/></text><text opacity=".8" x="901.18719" y="-54.691116"><tspan x="901.18719" y="-54.691116"/></text><text opacity=".8" x="-569.37115" y="-84.769257"><tspan x="-569.37115" y="-84.769257"/></text><text opacity=".8" x="-2393.0571" y="660.78418"><tspan x="-2393.0571" y="660.78418"/></text><text opacity=".8" x="-454.88007" y="-470.09021"><tspan x="-454.88007" y="-470.09021"/></text><text opacity=".8" x="352.72208" y="-883.5603"><tspan x="352.72208" y="-883.5603"/></text><text opacity=".8" x="376.68301" y="-924.30206"><tspan x="376.68301" y="-924.30206"/></text><text opacity=".8" x="-1114.7802" y="-931.51196"><tspan x="-1114.7802" y="-931.51196"/></text><text opacity=".8" x="345.7626" y="-1204.7461"><tspan x="345.7626" y="-1204.7461"/></text><text opacity=".8" x="1831.8861" y="-578.05475"><tspan x="1831.8861" y="-578.05475"/></text><text opacity=".8" x="1855.8469" y="-618.79651"><tspan x="1855.8469" y="-618.79651"/></text><text opacity=".8" x="364.38376" y="-626.00641"><tspan x="364.38376" y="-626.00641"/></text><text opacity=".8" x="1824.9266" y="-899.24036"><tspan x="1824.9266" y="-899.24036"/></text><text opacity=".8" x="-573.43256" y="-674.09772"><tspan x="-573.43256" y="-674.09772"/></text><text opacity=".8" x="-2397.1182" y="71.455849"><tspan x="-2397.1182" y="71.455849"/></text><text opacity=".8" x="-682.36279" y="164.32799"><tspan x="-682.36279" y="164.32799"/></text><text opacity=".8" x="426.66153" y="-14.85416"><tspan x="426.66153" y="-14.85416"/></text><text opacity=".8" x="450.62247" y="-55.595863"><tspan x="450.62247" y="-55.595863"/></text><text opacity=".8" x="-1040.8407" y="-62.805836"><tspan x="-1040.8407" y="-62.805836"/></text><text opacity=".8" x="419.70206" y="-336.03989"><tspan x="419.70206" y="-336.03989"/></text><text opacity=".8" x="-608.03253" y="-65.520081"><tspan x="-608.03253" y="-65.520081"/></text><text opacity=".8" x="-2431.7185" y="680.03345"><tspan x="-2431.7185" y="680.03345"/></text><text opacity=".8" x="-456.93948" y="-927.0506"><tspan x="-456.93948" y="-927.0506"/></text><text opacity=".8" x="350.66266" y="-1340.5208"><tspan x="350.66266" y="-1340.5208"/></text><text opacity=".8" x="374.62357" y="-1381.2626"><tspan x="374.62357" y="-1381.2626"/></text><text opacity=".8" x="-1116.8396" y="-1388.4724"><tspan x="-1116.8396" y="-1388.4724"/></text><text opacity=".8" x="343.70316" y="-1661.7065"><tspan x="343.70316" y="-1661.7065"/></text><text opacity=".8" x="1829.8265" y="-1035.0154"><tspan x="1829.8265" y="-1035.0154"/></text><text opacity=".8" x="1853.7874" y="-1075.757"><tspan x="1853.7874" y="-1075.757"/></text><text opacity=".8" x="362.32431" y="-1082.9668"><tspan x="362.32431" y="-1082.9668"/></text><text opacity=".8" x="1822.8671" y="-1356.2009"><tspan x="1822.8671" y="-1356.2009"/></text><text opacity=".8" x="-575.492" y="-1131.0581"><tspan x="-575.492" y="-1131.0581"/></text><text opacity=".8" x="-2399.1777" y="-385.50461"><tspan x="-2399.1777" y="-385.50461"/></text><text opacity=".8" x="-684.42224" y="-292.63245"><tspan x="-684.42224" y="-292.63245"/></text><text opacity=".8" x="155.5923" y="-51.718292"><tspan x="155.5923" y="-51.718292"/></text><text opacity=".8" x="179.55324" y="-92.460007"><tspan x="179.55324" y="-92.460007"/></text><text opacity=".8" x="-1090.2634" y="-286.48859"><tspan x="-1090.2634" y="-286.48859"/></text><text opacity=".8" x="-282.66141" y="-699.9588"><tspan x="-282.66141" y="-699.9588"/></text><text opacity=".8" x="-258.70047" y="-740.7005"><tspan x="-258.70047" y="-740.7005"/></text><text opacity=".8" x="-1750.1636" y="-747.91046"><tspan x="-1750.1636" y="-747.91046"/></text><text opacity=".8" x="-289.62085" y="-1021.1445"><tspan x="-289.62085" y="-1021.1445"/></text><text opacity=".8" x="1196.5026" y="-394.45316"><tspan x="1196.5026" y="-394.45316"/></text><text opacity=".8" x="1220.4634" y="-435.19489"><tspan x="1220.4634" y="-435.19489"/></text><text opacity=".8" x="-270.99973" y="-442.40482"><tspan x="-270.99973" y="-442.40482"/></text><text opacity=".8" x="1189.5431" y="-715.63892"><tspan x="1189.5431" y="-715.63892"/></text><text opacity=".8" x="-1208.816" y="-490.49609"><tspan x="-1208.816" y="-490.49609"/></text><text opacity=".8" x="-3032.5017" y="255.05743"><tspan x="-3032.5017" y="255.05743"/></text><text opacity=".8" transform="matrix(.90475 0 0 .90475 -716.75 -701.05)" x="-664.2738" y="1159.4154"><tspan x="-664.2738" y="1159.4154"/></text><text x="435.90427" y="-393.22546"><tspan x="435.90427" y="-393.22546"/><tspan x="435.90427" y="-377.3924"/></text><text opacity=".8" x="901.0882" y="-875.27002"><tspan x="901.0882" y="-875.27002"/></text><text opacity=".8" x="-922.59778" y="-129.71655"><tspan x="-922.59778" y="-129.71655"/></text><text opacity=".8" x="1628.1677" y="-1160.2659"><tspan x="1628.1677" y="-1160.2659"/></text><text opacity=".8" x="1652.1285" y="-1201.0076"><tspan x="1652.1285" y="-1201.0076"/></text><text opacity=".8" x="160.66542" y="-1208.2175"><tspan x="160.66542" y="-1208.2175"/></text><text opacity=".8" x="1621.2083" y="-1481.4517"><tspan x="1621.2083" y="-1481.4517"/></text><g transform="matrix(1 0 0 1.0001306 0 -.0010448)"><text opacity=".8" x="877.22626" y="-21.186354"><tspan x="877.22626" y="-21.186354"/></text><text opacity=".8" x="901.18719" y="-61.928062"><tspan x="901.18719" y="-61.928062"/></text><text opacity=".8" x="-569.37115" y="-92.006203"><tspan x="-569.37115" y="-92.006203"/></text><text opacity=".8" x="-2393.0571" y="653.54724"><tspan x="-2393.0571" y="653.54724"/></text><text opacity=".8" x="-454.88007" y="-477.32718"><tspan x="-454.88007" y="-477.32718"/></text><text opacity=".8" x="352.72208" y="-890.7973"><tspan x="352.72208" y="-890.7973"/></text><text opacity=".8" x="376.68301" y="-931.539"><tspan x="376.68301" y="-931.539"/></text><text opacity=".8" x="-1114.7802" y="-938.7489"><tspan x="-1114.7802" y="-938.7489"/></text><text opacity=".8" x="345.7626" y="-1211.983"><tspan x="345.7626" y="-1211.983"/></text><text opacity=".8" x="1831.8861" y="-585.29169"><tspan x="1831.8861" y="-585.29169"/></text><text opacity=".8" x="1855.8469" y="-626.03345"><tspan x="1855.8469" y="-626.03345"/></text><text opacity=".8" x="364.38376" y="-633.24335"><tspan x="364.38376" y="-633.24335"/></text><text opacity=".8" x="1824.9266" y="-906.47736"><tspan x="1824.9266" y="-906.47736"/></text><text opacity=".8" x="-573.43256" y="-681.33466"><tspan x="-573.43256" y="-681.33466"/></text><text opacity=".8" x="-2397.1182" y="64.218903"><tspan x="-2397.1182" y="64.218903"/></text><text opacity=".8" x="-682.36279" y="157.09103"><tspan x="-682.36279" y="157.09103"/></text><text opacity=".8" x="426.66153" y="-22.091103"><tspan x="426.66153" y="-22.091103"/></text><text opacity=".8" x="450.62247" y="-62.832809"><tspan x="450.62247" y="-62.832809"/></text><text opacity=".8" x="-1040.8407" y="-70.042778"><tspan x="-1040.8407" y="-70.042778"/></text><text opacity=".8" x="419.70206" y="-343.27686"><tspan x="419.70206" y="-343.27686"/></text><text opacity=".8" x="-608.03253" y="-72.757027"><tspan x="-608.03253" y="-72.757027"/></text><text opacity=".8" x="-2431.7185" y="672.79645"><tspan x="-2431.7185" y="672.79645"/></text><text opacity=".8" x="-456.93948" y="-934.28754"><tspan x="-456.93948" y="-934.28754"/></text><text opacity=".8" x="350.66266" y="-1347.7577"><tspan x="350.66266" y="-1347.7577"/></text><text opacity=".8" x="374.62357" y="-1388.4994"><tspan x="374.62357" y="-1388.4994"/></text><text opacity=".8" x="-1116.8396" y="-1395.7094"><tspan x="-1116.8396" y="-1395.7094"/></text><text opacity=".8" x="343.70316" y="-1668.9435"><tspan x="343.70316" y="-1668.9435"/></text><text opacity=".8" x="1829.8265" y="-1042.2522"><tspan x="1829.8265" y="-1042.2522"/></text><text opacity=".8" x="1853.7874" y="-1082.9938"><tspan x="1853.7874" y="-1082.9938"/></text><text opacity=".8" x="362.32431" y="-1090.2037"><tspan x="362.32431" y="-1090.2037"/></text><text opacity=".8" x="1822.8671" y="-1363.4379"><tspan x="1822.8671" y="-1363.4379"/></text><text opacity=".8" x="-575.492" y="-1138.295"><tspan x="-575.492" y="-1138.295"/></text><text opacity=".8" x="-2399.1777" y="-392.74158"><tspan x="-2399.1777" y="-392.74158"/></text><text opacity=".8" x="-684.42224" y="-299.86942"><tspan x="-684.42224" y="-299.86942"/></text><text opacity=".8" x="155.5923" y="-58.955231"><tspan x="155.5923" y="-58.955231"/></text><text opacity=".8" x="179.55324" y="-99.696953"><tspan x="179.55324" y="-99.696953"/></text><text opacity=".8" x="-1090.2634" y="-293.72559"><tspan x="-1090.2634" y="-293.72559"/></text><text opacity=".8" x="-282.66141" y="-707.19574"><tspan x="-282.66141" y="-707.19574"/></text><text opacity=".8" x="-258.70047" y="-747.93744"><tspan x="-258.70047" y="-747.93744"/></text><text opacity=".8" x="-1750.1636" y="-755.14734"><tspan x="-1750.1636" y="-755.14734"/></text><text opacity=".8" x="-289.62085" y="-1028.3815"><tspan x="-289.62085" y="-1028.3815"/></text><text opacity=".8" x="1196.5026" y="-401.69009"><tspan x="1196.5026" y="-401.69009"/></text><text opacity=".8" x="1220.4634" y="-442.43182"><tspan x="1220.4634" y="-442.43182"/></text><text opacity=".8" x="-270.99973" y="-449.64178"><tspan x="-270.99973" y="-449.64178"/></text><text opacity=".8" x="1189.5431" y="-722.87585"><tspan x="1189.5431" y="-722.87585"/></text><text opacity=".8" x="-1208.816" y="-497.73306"><tspan x="-1208.816" y="-497.73306"/></text><text opacity=".8" x="-3032.5017" y="247.8205"><tspan x="-3032.5017" y="247.8205"/></text><text opacity=".8" x="-1317.7517" y="340.69214"><tspan x="-1317.7517" y="340.69214"/></text><text opacity=".8" x="877.22626" y="-13.948366"><tspan x="877.22626" y="-13.948366"/></text><text opacity=".8" x="901.18719" y="-54.690071"><tspan x="901.18719" y="-54.690071"/></text><text opacity=".8" x="-569.37115" y="-84.768211"><tspan x="-569.37115" y="-84.768211"/></text><text opacity=".8" x="-2393.0571" y="660.78522"><tspan x="-2393.0571" y="660.78522"/></text><text opacity=".8" x="-454.88007" y="-470.08917"><tspan x="-454.88007" y="-470.08917"/></text><text opacity=".8" x="352.72208" y="-883.55927"><tspan x="352.72208" y="-883.55927"/></text><text opacity=".8" x="376.68301" y="-924.30103"><tspan x="376.68301" y="-924.30103"/></text><text opacity=".8" x="-1114.7802" y="-931.51093"><tspan x="-1114.7802" y="-931.51093"/></text><text opacity=".8" x="345.7626" y="-1204.745"><tspan x="345.7626" y="-1204.745"/></text><text opacity=".8" x="1831.8861" y="-578.05371"><tspan x="1831.8861" y="-578.05371"/></text><text opacity=".8" x="1855.8469" y="-618.79547"><tspan x="1855.8469" y="-618.79547"/></text><text opacity=".8" x="364.38376" y="-626.00537"><tspan x="364.38376" y="-626.00537"/></text><text opacity=".8" x="1824.9266" y="-899.23932"><tspan x="1824.9266" y="-899.23932"/></text><text opacity=".8" x="-573.43256" y="-674.09668"><tspan x="-573.43256" y="-674.09668"/></text><text opacity=".8" x="-2397.1182" y="71.456894"><tspan x="-2397.1182" y="71.456894"/></text><text opacity=".8" x="-682.36279" y="164.32903"><tspan x="-682.36279" y="164.32903"/></text><text opacity=".8" x="426.66153" y="-14.853115"><tspan x="426.66153" y="-14.853115"/></text><text opacity=".8" x="450.62247" y="-55.594818"><tspan x="450.62247" y="-55.594818"/></text><text opacity=".8" x="-1040.8407" y="-62.80479"><tspan x="-1040.8407" y="-62.80479"/></text><text opacity=".8" x="419.70206" y="-336.03885"><tspan x="419.70206" y="-336.03885"/></text><text opacity=".8" x="-608.03253" y="-65.519035"><tspan x="-608.03253" y="-65.519035"/></text><text opacity=".8" x="-2431.7185" y="680.03448"><tspan x="-2431.7185" y="680.03448"/></text><text opacity=".8" x="-456.93948" y="-927.04956"><tspan x="-456.93948" y="-927.04956"/></text><text opacity=".8" x="350.66266" y="-1340.5197"><tspan x="350.66266" y="-1340.5197"/></text><text opacity=".8" x="374.62357" y="-1381.2615"><tspan x="374.62357" y="-1381.2615"/></text><text opacity=".8" x="-1116.8396" y="-1388.4713"><tspan x="-1116.8396" y="-1388.4713"/></text><text opacity=".8" x="343.70316" y="-1661.7054"><tspan x="343.70316" y="-1661.7054"/></text><text opacity=".8" x="1829.8265" y="-1035.0143"><tspan x="1829.8265" y="-1035.0143"/></text><text opacity=".8" x="1853.7874" y="-1075.7559"><tspan x="1853.7874" y="-1075.7559"/></text><text opacity=".8" x="362.32431" y="-1082.9657"><tspan x="362.32431" y="-1082.9657"/></text><text opacity=".8" x="1822.8671" y="-1356.1998"><tspan x="1822.8671" y="-1356.1998"/></text><text opacity=".8" x="-575.492" y="-1131.057"><tspan x="-575.492" y="-1131.057"/></text><text opacity=".8" x="-2399.1777" y="-385.50357"><tspan x="-2399.1777" y="-385.50357"/></text><text opacity=".8" x="-684.42224" y="-292.63141"><tspan x="-684.42224" y="-292.63141"/></text><text opacity=".8" x="155.5923" y="-51.717247"><tspan x="155.5923" y="-51.717247"/></text><text opacity=".8" x="179.55324" y="-92.458961"><tspan x="179.55324" y="-92.458961"/></text><text opacity=".8" x="-1090.2634" y="-286.48755"><tspan x="-1090.2634" y="-286.48755"/></text><text opacity=".8" x="-282.66141" y="-699.95776"><tspan x="-282.66141" y="-699.95776"/></text><text opacity=".8" x="-258.70047" y="-740.69946"><tspan x="-258.70047" y="-740.69946"/></text><text opacity=".8" x="-1750.1636" y="-747.90942"><tspan x="-1750.1636" y="-747.90942"/></text><text opacity=".8" x="-289.62085" y="-1021.1434"><tspan x="-289.62085" y="-1021.1434"/></text><text opacity=".8" x="1196.5026" y="-394.45212"><tspan x="1196.5026" y="-394.45212"/></text><text opacity=".8" x="1220.4634" y="-435.19385"><tspan x="1220.4634" y="-435.19385"/></text><text opacity=".8" x="-270.99973" y="-442.40378"><tspan x="-270.99973" y="-442.40378"/></text><text opacity=".8" x="1189.5431" y="-715.63788"><tspan x="1189.5431" y="-715.63788"/></text><text opacity=".8" x="-1208.816" y="-490.49506"><tspan x="-1208.816" y="-490.49506"/></text><text opacity=".8" x="-3032.5017" y="255.05847"><tspan x="-3032.5017" y="255.05847"/></text><text opacity=".8" x="-1317.7517" y="347.93213"><tspan x="-1317.7517" y="347.93213"/></text><text x="435.90427" y="-393.22443"><tspan x="435.90427" y="-393.22443"/><tspan x="435.90427" y="-377.39136"/></text><text opacity=".8" x="901.0882" y="-875.26898"><tspan x="901.0882" y="-875.26898"/></text><text opacity=".8" x="-922.59778" y="-129.71552"><tspan x="-922.59778" y="-129.71552"/></text><text opacity=".8" x="1628.1677" y="-1160.2648"><tspan x="1628.1677" y="-1160.2648"/></text><text opacity=".8" x="1652.1285" y="-1201.0065"><tspan x="1652.1285" y="-1201.0065"/></text><text opacity=".8" x="160.66542" y="-1208.2164"><tspan x="160.66542" y="-1208.2164"/></text><text opacity=".8" x="1621.2083" y="-1481.4506"><tspan x="1621.2083" y="-1481.4506"/></text><path d="m8.000016.001045l-7.635932 4.9269494c-.01643.010703-.03132.023307-.04688.03521l-.0094.007v.0008603c-.186232.146275-.307817.3712507-.307817.6275356v7.6022107c0 .44333.3568.800234.800002.800234h14.399992c.4432 0 .8-.356904.8-.800234v-7.6022107c0-.2620866-.126789-.4918937-.320312-.6376863l.0032-.005-7.682853-4.95476747z" fill="#3f3f3f"/><path d="m2.000016 2.001045h12v10h-12z" fill="#ebebeb"/><path d="m .000019 5.598955l15.199994 10.4h-14.342852c-.05714 0-.857142 0-.857142-.85714z" fill="#4d4d4d"/><path d="m15.14287 15.998955c.857143 0 .857143-.85714.857143-.85714v-9.54286l0 0-15.199992 10.4z" fill="#6a6a6a"/></g></svg>