<svg height="16" viewBox="0 0 16 16.000001" width="16" xmlns="http://www.w3.org/2000/svg" xmlns:xlink="http://www.w3.org/1999/xlink"><clipPath id="a"><path d="m81.454545 86.999998c-9.665534 0-17.454545 7.889005-17.454545 17.684082 0 72.55382 13.099571 122.04909 80 122.31487 66.90044.26579 80-49.69947 80-122.31487-.00001-9.795077-7.78901-17.684082-17.45455-17.684082l-125.090905 0zm99.371905 39.822672c2.74532 0 5.49546 1.07973 7.6033 3.21529 4.21567 4.27113 4.21567 11.20244 0 15.47357l-36 36.4734c-2.31516 2.34561-5.41517 3.31202-8.42975 3.08132-3.01458.23069-6.11459-.73571-8.42976-3.08132l-35.999988-36.4734c-4.215688-4.27113-4.215688-11.20244 0-15.47357 2.107828-2.13556 4.885498-3.18179 7.636348-3.18179 2.75087 0 5.46242 1.04623 7.57025 3.18179l29.22315 29.60743 29.22314-29.60743c2.10785-2.13556 4.85796-3.21529 7.60331-3.21529z" overflow="visible"/></clipPath><g enable-background="new" transform="translate(-16 -268)"><rect fill="#ee4056" height="16" rx="1.2" transform="matrix(0 -1 -1 0 0 0)" width="16" x="-284" y="-32"/><g enable-background="new" fill="#fff" transform="matrix(-.07142857 0 0 .07142857 34.285714 264.78571)"><path d="m81.454545 86.999996c-9.665534 0-17.454545 7.889005-17.454545 17.684084 0 72.55382 13.099571 122.04909 80 122.31487 66.90044.26579 80-49.69947 80-122.31487-.00001-9.795079-7.78901-17.684084-17.45455-17.684084l-125.090905 0zm99.371905 39.822674c2.74532 0 5.49546 1.07973 7.6033 3.21529 4.21567 4.27113 4.21567 11.20244 0 15.47357l-36 36.4734c-2.31516 2.34561-5.41517 3.31202-8.42975 3.08132-3.01458.23069-6.11459-.73571-8.42976-3.08132l-35.999988-36.4734c-4.215688-4.27113-4.215688-11.20244 0-15.47357 2.107828-2.13556 4.885498-3.18179 7.636348-3.18179 2.75087 0 5.46242 1.04623 7.57025 3.18179l29.22315 29.60743 29.22314-29.60743c2.10785-2.13556 4.85796-3.21529 7.60331-3.21529z" overflow="visible"/><path clip-path="url(#a)" d="m81.454545 86.999998c-9.665534 0-17.454545 7.889005-17.454545 17.684082 0 72.55382 13.099571 122.04909 80 122.31487 66.90044.26579 80-49.69947 80-122.31487-.00001-9.795077-7.78901-17.684082-17.45455-17.684082l-125.090905 0zm99.371905 39.822672c2.74532 0 5.49546 1.07973 7.6033 3.21529 4.21567 4.27113 4.21567 11.20244 0 15.47357l-36 36.4734c-2.31516 2.34561-5.41517 3.31202-8.42975 3.08132-3.01458.23069-6.11459-.73571-8.42976-3.08132l-35.999988-36.4734c-4.215688-4.27113-4.215688-11.20244 0-15.47357 2.107828-2.13556 4.885498-3.18179 7.636348-3.18179 2.75087 0 5.46242 1.04623 7.57025 3.18179l29.22315 29.60743 29.22314-29.60743c2.10785-2.13556 4.85796-3.21529 7.60331-3.21529z" opacity="0" overflow="visible" stroke="#000" stroke-width="2.46153855" transform="translate(0 -.00000165)"/><path clip-path="url(#a)" d="m81.454545 86.999998c-9.665534 0-17.454545 7.889005-17.454545 17.684082 0 72.55382 13.099571 122.04909 80 122.31487 66.90044.26579 80-49.69947 80-122.31487-.00001-9.795077-7.78901-17.684082-17.45455-17.684082l-125.090905 0zm99.371905 39.822672c2.74532 0 5.49546 1.07973 7.6033 3.21529 4.21567 4.27113 4.21567 11.20244 0 15.47357l-36 36.4734c-2.31516 2.34561-5.41517 3.31202-8.42975 3.08132-3.01458.23069-6.11459-.73571-8.42976-3.08132l-35.999988-36.4734c-4.215688-4.27113-4.215688-11.20244 0-15.47357 2.107828-2.13556 4.885498-3.18179 7.636348-3.18179 2.75087 0 5.46242 1.04623 7.57025 3.18179l29.22315 29.60743 29.22314-29.60743c2.10785-2.13556 4.85796-3.21529 7.60331-3.21529z" opacity="0" overflow="visible" stroke="#000" stroke-width="1.23076928" transform="translate(0 -.00000165)"/></g></g></svg>