<svg height="16" width="16" xmlns="http://www.w3.org/2000/svg"><text opacity=".8" x="877.22626" y="-21.187399"><tspan x="877.22626" y="-21.187399"/></text><text opacity=".8" x="901.18719" y="-61.929108"><tspan x="901.18719" y="-61.929108"/></text><text opacity=".8" x="-569.37115" y="-92.007248"><tspan x="-569.37115" y="-92.007248"/></text><text opacity=".8" x="-2393.0571" y="653.5462"><tspan x="-2393.0571" y="653.5462"/></text><text opacity=".8" x="-454.88007" y="-477.32822"><tspan x="-454.88007" y="-477.32822"/></text><text opacity=".8" x="352.72208" y="-890.79834"><tspan x="352.72208" y="-890.79834"/></text><text opacity=".8" x="376.68301" y="-931.54004"><tspan x="376.68301" y="-931.54004"/></text><text opacity=".8" x="-1114.7802" y="-938.74994"><tspan x="-1114.7802" y="-938.74994"/></text><text opacity=".8" x="345.7626" y="-1211.9841"><tspan x="345.7626" y="-1211.9841"/></text><text opacity=".8" x="1831.8861" y="-585.29272"><tspan x="1831.8861" y="-585.29272"/></text><text opacity=".8" x="1855.8469" y="-626.03448"><tspan x="1855.8469" y="-626.03448"/></text><text opacity=".8" x="364.38376" y="-633.24438"><tspan x="364.38376" y="-633.24438"/></text><text opacity=".8" x="1824.9266" y="-906.47839"><tspan x="1824.9266" y="-906.47839"/></text><text opacity=".8" x="-573.43256" y="-681.33569"><tspan x="-573.43256" y="-681.33569"/></text><text opacity=".8" x="-2397.1182" y="64.217857"><tspan x="-2397.1182" y="64.217857"/></text><text opacity=".8" x="-682.36279" y="157.09"><tspan x="-682.36279" y="157.09"/></text><text opacity=".8" x="426.66153" y="-22.092148"><tspan x="426.66153" y="-22.092148"/></text><text opacity=".8" x="450.62247" y="-62.833855"><tspan x="450.62247" y="-62.833855"/></text><text opacity=".8" x="-1040.8407" y="-70.043823"><tspan x="-1040.8407" y="-70.043823"/></text><text opacity=".8" x="419.70206" y="-343.27789"><tspan x="419.70206" y="-343.27789"/></text><text opacity=".8" x="-608.03253" y="-72.758072"><tspan x="-608.03253" y="-72.758072"/></text><text opacity=".8" x="-2431.7185" y="672.79541"><tspan x="-2431.7185" y="672.79541"/></text><text opacity=".8" x="-456.93948" y="-934.28857"><tspan x="-456.93948" y="-934.28857"/></text><text opacity=".8" x="350.66266" y="-1347.7588"><tspan x="350.66266" y="-1347.7588"/></text><text opacity=".8" x="374.62357" y="-1388.5005"><tspan x="374.62357" y="-1388.5005"/></text><text opacity=".8" x="-1116.8396" y="-1395.7104"><tspan x="-1116.8396" y="-1395.7104"/></text><text opacity=".8" x="343.70316" y="-1668.9446"><tspan x="343.70316" y="-1668.9446"/></text><text opacity=".8" x="1829.8265" y="-1042.2533"><tspan x="1829.8265" y="-1042.2533"/></text><text opacity=".8" x="1853.7874" y="-1082.9949"><tspan x="1853.7874" y="-1082.9949"/></text><text opacity=".8" x="362.32431" y="-1090.2048"><tspan x="362.32431" y="-1090.2048"/></text><text opacity=".8" x="1822.8671" y="-1363.439"><tspan x="1822.8671" y="-1363.439"/></text><text opacity=".8" x="-575.492" y="-1138.2961"><tspan x="-575.492" y="-1138.2961"/></text><text opacity=".8" x="-2399.1777" y="-392.74261"><tspan x="-2399.1777" y="-392.74261"/></text><text opacity=".8" x="-684.42224" y="-299.87045"><tspan x="-684.42224" y="-299.87045"/></text><text opacity=".8" x="155.5923" y="-58.956276"><tspan x="155.5923" y="-58.956276"/></text><text opacity=".8" x="179.55324" y="-99.697998"><tspan x="179.55324" y="-99.697998"/></text><text opacity=".8" x="-1090.2634" y="-293.72662"><tspan x="-1090.2634" y="-293.72662"/></text><text opacity=".8" x="-282.66141" y="-707.19678"><tspan x="-282.66141" y="-707.19678"/></text><text opacity=".8" x="-258.70047" y="-747.93848"><tspan x="-258.70047" y="-747.93848"/></text><text opacity=".8" x="-1750.1636" y="-755.14838"><tspan x="-1750.1636" y="-755.14838"/></text><text opacity=".8" x="-289.62085" y="-1028.3826"><tspan x="-289.62085" y="-1028.3826"/></text><text opacity=".8" x="1196.5026" y="-401.69113"><tspan x="1196.5026" y="-401.69113"/></text><text opacity=".8" x="1220.4634" y="-442.43286"><tspan x="1220.4634" y="-442.43286"/></text><text opacity=".8" x="-270.99973" y="-449.64282"><tspan x="-270.99973" y="-449.64282"/></text><text opacity=".8" x="1189.5431" y="-722.87689"><tspan x="1189.5431" y="-722.87689"/></text><text opacity=".8" x="-1208.816" y="-497.7341"><tspan x="-1208.816" y="-497.7341"/></text><text opacity=".8" x="-3032.5017" y="247.81946"><tspan x="-3032.5017" y="247.81946"/></text><text opacity=".8" transform="matrix(.90475 0 0 .90475 -716.75 -708.29)" x="-664.2738" y="1159.4154"><tspan x="-664.2738" y="1159.4154"/></text><text opacity=".8" x="877.22626" y="-13.949411"><tspan x="877.22626" y="-13.949411"/></text><text opacity=".8" x="901.18719" y="-54.691116"><tspan x="901.18719" y="-54.691116"/></text><text opacity=".8" x="-569.37115" y="-84.769257"><tspan x="-569.37115" y="-84.769257"/></text><text opacity=".8" x="-2393.0571" y="660.78418"><tspan x="-2393.0571" y="660.78418"/></text><text opacity=".8" x="-454.88007" y="-470.09021"><tspan x="-454.88007" y="-470.09021"/></text><text opacity=".8" x="352.72208" y="-883.5603"><tspan x="352.72208" y="-883.5603"/></text><text opacity=".8" x="376.68301" y="-924.30206"><tspan x="376.68301" y="-924.30206"/></text><text opacity=".8" x="-1114.7802" y="-931.51196"><tspan x="-1114.7802" y="-931.51196"/></text><text opacity=".8" x="345.7626" y="-1204.7461"><tspan x="345.7626" y="-1204.7461"/></text><text opacity=".8" x="1831.8861" y="-578.05475"><tspan x="1831.8861" y="-578.05475"/></text><text opacity=".8" x="1855.8469" y="-618.79651"><tspan x="1855.8469" y="-618.79651"/></text><text opacity=".8" x="364.38376" y="-626.00641"><tspan x="364.38376" y="-626.00641"/></text><text opacity=".8" x="1824.9266" y="-899.24036"><tspan x="1824.9266" y="-899.24036"/></text><text opacity=".8" x="-573.43256" y="-674.09772"><tspan x="-573.43256" y="-674.09772"/></text><text opacity=".8" x="-2397.1182" y="71.455849"><tspan x="-2397.1182" y="71.455849"/></text><text opacity=".8" x="-682.36279" y="164.32799"><tspan x="-682.36279" y="164.32799"/></text><text opacity=".8" x="426.66153" y="-14.85416"><tspan x="426.66153" y="-14.85416"/></text><text opacity=".8" x="450.62247" y="-55.595863"><tspan x="450.62247" y="-55.595863"/></text><text opacity=".8" x="-1040.8407" y="-62.805836"><tspan x="-1040.8407" y="-62.805836"/></text><text opacity=".8" x="419.70206" y="-336.03989"><tspan x="419.70206" y="-336.03989"/></text><text opacity=".8" x="-608.03253" y="-65.520081"><tspan x="-608.03253" y="-65.520081"/></text><text opacity=".8" x="-2431.7185" y="680.03345"><tspan x="-2431.7185" y="680.03345"/></text><text opacity=".8" x="-456.93948" y="-927.0506"><tspan x="-456.93948" y="-927.0506"/></text><text opacity=".8" x="350.66266" y="-1340.5208"><tspan x="350.66266" y="-1340.5208"/></text><text opacity=".8" x="374.62357" y="-1381.2626"><tspan x="374.62357" y="-1381.2626"/></text><text opacity=".8" x="-1116.8396" y="-1388.4724"><tspan x="-1116.8396" y="-1388.4724"/></text><text opacity=".8" x="343.70316" y="-1661.7065"><tspan x="343.70316" y="-1661.7065"/></text><text opacity=".8" x="1829.8265" y="-1035.0154"><tspan x="1829.8265" y="-1035.0154"/></text><text opacity=".8" x="1853.7874" y="-1075.757"><tspan x="1853.7874" y="-1075.757"/></text><text opacity=".8" x="362.32431" y="-1082.9668"><tspan x="362.32431" y="-1082.9668"/></text><text opacity=".8" x="1822.8671" y="-1356.2009"><tspan x="1822.8671" y="-1356.2009"/></text><text opacity=".8" x="-575.492" y="-1131.0581"><tspan x="-575.492" y="-1131.0581"/></text><text opacity=".8" x="-2399.1777" y="-385.50461"><tspan x="-2399.1777" y="-385.50461"/></text><text opacity=".8" x="-684.42224" y="-292.63245"><tspan x="-684.42224" y="-292.63245"/></text><text opacity=".8" x="155.5923" y="-51.718292"><tspan x="155.5923" y="-51.718292"/></text><text opacity=".8" x="179.55324" y="-92.460007"><tspan x="179.55324" y="-92.460007"/></text><text opacity=".8" x="-1090.2634" y="-286.48859"><tspan x="-1090.2634" y="-286.48859"/></text><text opacity=".8" x="-282.66141" y="-699.9588"><tspan x="-282.66141" y="-699.9588"/></text><text opacity=".8" x="-258.70047" y="-740.7005"><tspan x="-258.70047" y="-740.7005"/></text><text opacity=".8" x="-1750.1636" y="-747.91046"><tspan x="-1750.1636" y="-747.91046"/></text><text opacity=".8" x="-289.62085" y="-1021.1445"><tspan x="-289.62085" y="-1021.1445"/></text><text opacity=".8" x="1196.5026" y="-394.45316"><tspan x="1196.5026" y="-394.45316"/></text><text opacity=".8" x="1220.4634" y="-435.19489"><tspan x="1220.4634" y="-435.19489"/></text><text opacity=".8" x="-270.99973" y="-442.40482"><tspan x="-270.99973" y="-442.40482"/></text><text opacity=".8" x="1189.5431" y="-715.63892"><tspan x="1189.5431" y="-715.63892"/></text><text opacity=".8" x="-1208.816" y="-490.49609"><tspan x="-1208.816" y="-490.49609"/></text><text opacity=".8" x="-3032.5017" y="255.05743"><tspan x="-3032.5017" y="255.05743"/></text><text opacity=".8" transform="matrix(.90475 0 0 .90475 -716.75 -701.05)" x="-664.2738" y="1159.4154"><tspan x="-664.2738" y="1159.4154"/></text><text x="435.90427" y="-393.22546"><tspan x="435.90427" y="-393.22546"/><tspan x="435.90427" y="-377.3924"/></text><text opacity=".8" x="901.0882" y="-875.27002"><tspan x="901.0882" y="-875.27002"/></text><text opacity=".8" x="-922.59778" y="-129.71655"><tspan x="-922.59778" y="-129.71655"/></text><text opacity=".8" x="1628.1677" y="-1160.2659"><tspan x="1628.1677" y="-1160.2659"/></text><text opacity=".8" x="1652.1285" y="-1201.0076"><tspan x="1652.1285" y="-1201.0076"/></text><text opacity=".8" x="160.66542" y="-1208.2175"><tspan x="160.66542" y="-1208.2175"/></text><text opacity=".8" x="1621.2083" y="-1481.4517"><tspan x="1621.2083" y="-1481.4517"/></text><path d="m .681 8.667a7.3333 7.2789 0 0 1 -.0143-.388 7.3333 7.2789 0 0 1  7.3333-7.279 7.3333 7.2789 0 0 1  7.333 7.279 7.3333 7.2789 0 0 1 -.014.274 7.3333 7.2789 0 0 0 -7.319-6.8913 7.3333 7.2789 0 0 0 -7.319 7.0053z" opacity=".2"/><circle cx="8" cy="8" fill="#3f3f3f" r="8"/><circle cx="8" cy="-8" fill="#ba174e" r="7" transform="scale(1 -1)"/><g fill="#fff" transform="matrix(.4714 .4714 -.4714 .4714 55.14 -189.99)"><path d="m160 178a6 6 0 0 0 -6 6h6z" opacity=".2" transform="translate(0 76)"/><path d="m160 254a6 6 0 0 1 6 6h-6z" opacity=".4"/><path d="m160 266a6 6 0 0 1 -6-6h6z" opacity=".4"/><path d="m160 266a6 6 0 0 0 6-6h-6z" opacity=".6"/></g><text opacity=".8" x="814.461" y="-22.260015"><tspan x="814.461" y="-22.260015"/></text><text opacity=".8" x="838.42194" y="-63.001724"><tspan x="838.42194" y="-63.001724"/></text><text opacity=".8" x="-632.13641" y="-93.079865"><tspan x="-632.13641" y="-93.079865"/></text><text opacity=".8" x="-2455.8223" y="652.47357"><tspan x="-2455.8223" y="652.47357"/></text><text opacity=".8" x="-517.64532" y="-478.40085"><tspan x="-517.64532" y="-478.40085"/></text><text opacity=".8" x="289.95682" y="-891.87097"><tspan x="289.95682" y="-891.87097"/></text><text opacity=".8" x="313.91776" y="-932.61267"><tspan x="313.91776" y="-932.61267"/></text><text opacity=".8" x="-1177.5454" y="-939.82257"><tspan x="-1177.5454" y="-939.82257"/></text><text opacity=".8" x="282.99734" y="-1213.0568"><tspan x="282.99734" y="-1213.0568"/></text><text opacity=".8" x="1769.1208" y="-586.36536"><tspan x="1769.1208" y="-586.36536"/></text><text opacity=".8" x="1793.0817" y="-627.10712"><tspan x="1793.0817" y="-627.10712"/></text><text opacity=".8" x="301.6185" y="-634.31702"><tspan x="301.6185" y="-634.31702"/></text><text opacity=".8" x="1762.1614" y="-907.55103"><tspan x="1762.1614" y="-907.55103"/></text><text opacity=".8" x="-636.19781" y="-682.40833"><tspan x="-636.19781" y="-682.40833"/></text><text opacity=".8" x="-2459.8833" y="63.145241"><tspan x="-2459.8833" y="63.145241"/></text><text opacity=".8" x="-745.12805" y="156.01738"><tspan x="-745.12805" y="156.01738"/></text><text opacity=".8" x="363.89627" y="-23.164764"><tspan x="363.89627" y="-23.164764"/></text><text opacity=".8" x="387.85721" y="-63.906471"><tspan x="387.85721" y="-63.906471"/></text><text opacity=".8" x="-1103.606" y="-71.11644"><tspan x="-1103.606" y="-71.11644"/></text><text opacity=".8" x="356.9368" y="-344.35052"><tspan x="356.9368" y="-344.35052"/></text><text opacity=".8" x="-670.79779" y="-73.830688"><tspan x="-670.79779" y="-73.830688"/></text><text opacity=".8" x="-2494.4836" y="671.72278"><tspan x="-2494.4836" y="671.72278"/></text><text opacity=".8" x="-519.70471" y="-935.36121"><tspan x="-519.70471" y="-935.36121"/></text><text opacity=".8" x="287.8974" y="-1348.8314"><tspan x="287.8974" y="-1348.8314"/></text><text opacity=".8" x="311.85831" y="-1389.5731"><tspan x="311.85831" y="-1389.5731"/></text><text opacity=".8" x="-1179.6049" y="-1396.7831"><tspan x="-1179.6049" y="-1396.7831"/></text><text opacity=".8" x="280.9379" y="-1670.0172"><tspan x="280.9379" y="-1670.0172"/></text><text opacity=".8" x="1767.0613" y="-1043.3259"><tspan x="1767.0613" y="-1043.3259"/></text><text opacity=".8" x="1791.0221" y="-1084.0675"><tspan x="1791.0221" y="-1084.0675"/></text><text opacity=".8" x="299.55905" y="-1091.2775"><tspan x="299.55905" y="-1091.2775"/></text><text opacity=".8" x="1760.1018" y="-1364.5116"><tspan x="1760.1018" y="-1364.5116"/></text><text opacity=".8" x="-638.25726" y="-1139.3688"><tspan x="-638.25726" y="-1139.3688"/></text><text opacity=".8" x="-2461.9429" y="-393.81525"><tspan x="-2461.9429" y="-393.81525"/></text><text opacity=".8" x="-747.1875" y="-300.94308"><tspan x="-747.1875" y="-300.94308"/></text><text opacity=".8" x="92.827057" y="-60.028893"><tspan x="92.827057" y="-60.028893"/></text><text opacity=".8" x="116.78799" y="-100.77061"><tspan x="116.78799" y="-100.77061"/></text><text opacity=".8" x="-1153.0287" y="-294.79926"><tspan x="-1153.0287" y="-294.79926"/></text><text opacity=".8" x="-345.42667" y="-708.26941"><tspan x="-345.42667" y="-708.26941"/></text><text opacity=".8" x="-321.46573" y="-749.01111"><tspan x="-321.46573" y="-749.01111"/></text><text opacity=".8" x="-1812.9288" y="-756.22101"><tspan x="-1812.9288" y="-756.22101"/></text><text opacity=".8" x="-352.38611" y="-1029.4551"><tspan x="-352.38611" y="-1029.4551"/></text><text opacity=".8" x="1133.7373" y="-402.76376"><tspan x="1133.7373" y="-402.76376"/></text><text opacity=".8" x="1157.6981" y="-443.50549"><tspan x="1157.6981" y="-443.50549"/></text><text opacity=".8" x="-333.76498" y="-450.71545"><tspan x="-333.76498" y="-450.71545"/></text><text opacity=".8" x="1126.7778" y="-723.94952"><tspan x="1126.7778" y="-723.94952"/></text><text opacity=".8" x="-1271.5813" y="-498.80673"><tspan x="-1271.5813" y="-498.80673"/></text><text opacity=".8" x="-3095.2668" y="246.74683"><tspan x="-3095.2668" y="246.74683"/></text><text opacity=".8" transform="matrix(.90475 0 0 .90475 -779.51 -709.36)" x="-664.2738" y="1159.4154"><tspan x="-664.2738" y="1159.4154"/></text><text opacity=".8" x="814.461" y="-15.022029"><tspan x="814.461" y="-15.022029"/></text><text opacity=".8" x="838.42194" y="-55.763733"><tspan x="838.42194" y="-55.763733"/></text><text opacity=".8" x="-632.13641" y="-85.841873"><tspan x="-632.13641" y="-85.841873"/></text><text opacity=".8" x="-2455.8223" y="659.71155"><tspan x="-2455.8223" y="659.71155"/></text><text opacity=".8" x="-517.64532" y="-471.16284"><tspan x="-517.64532" y="-471.16284"/></text><text opacity=".8" x="289.95682" y="-884.63293"><tspan x="289.95682" y="-884.63293"/></text><text opacity=".8" x="313.91776" y="-925.37469"><tspan x="313.91776" y="-925.37469"/></text><text opacity=".8" x="-1177.5454" y="-932.58459"><tspan x="-1177.5454" y="-932.58459"/></text><text opacity=".8" x="282.99734" y="-1205.8187"><tspan x="282.99734" y="-1205.8187"/></text><text opacity=".8" x="1769.1208" y="-579.12738"><tspan x="1769.1208" y="-579.12738"/></text><text opacity=".8" x="1793.0817" y="-619.86914"><tspan x="1793.0817" y="-619.86914"/></text><text opacity=".8" x="301.6185" y="-627.07904"><tspan x="301.6185" y="-627.07904"/></text><text opacity=".8" x="1762.1614" y="-900.31299"><tspan x="1762.1614" y="-900.31299"/></text><text opacity=".8" x="-636.19781" y="-675.17035"><tspan x="-636.19781" y="-675.17035"/></text><text opacity=".8" x="-2459.8833" y="70.383232"><tspan x="-2459.8833" y="70.383232"/></text><text opacity=".8" x="-745.12805" y="163.25537"><tspan x="-745.12805" y="163.25537"/></text><text opacity=".8" x="363.89627" y="-15.926778"><tspan x="363.89627" y="-15.926778"/></text><text opacity=".8" x="387.85721" y="-56.66848"><tspan x="387.85721" y="-56.66848"/></text><text opacity=".8" x="-1103.606" y="-63.878452"><tspan x="-1103.606" y="-63.878452"/></text><text opacity=".8" x="356.9368" y="-337.11252"><tspan x="356.9368" y="-337.11252"/></text><text opacity=".8" x="-670.79779" y="-66.592697"><tspan x="-670.79779" y="-66.592697"/></text><text opacity=".8" x="-2494.4836" y="678.96082"><tspan x="-2494.4836" y="678.96082"/></text><text opacity=".8" x="-519.70471" y="-928.12323"><tspan x="-519.70471" y="-928.12323"/></text><text opacity=".8" x="287.8974" y="-1341.5934"><tspan x="287.8974" y="-1341.5934"/></text><text opacity=".8" x="311.85831" y="-1382.3352"><tspan x="311.85831" y="-1382.3352"/></text><text opacity=".8" x="-1179.6049" y="-1389.545"><tspan x="-1179.6049" y="-1389.545"/></text><text opacity=".8" x="280.9379" y="-1662.7792"><tspan x="280.9379" y="-1662.7792"/></text><text opacity=".8" x="1767.0613" y="-1036.088"><tspan x="1767.0613" y="-1036.088"/></text><text opacity=".8" x="1791.0221" y="-1076.8296"><tspan x="1791.0221" y="-1076.8296"/></text><text opacity=".8" x="299.55905" y="-1084.0394"><tspan x="299.55905" y="-1084.0394"/></text><text opacity=".8" x="1760.1018" y="-1357.2736"><tspan x="1760.1018" y="-1357.2736"/></text><text opacity=".8" x="-638.25726" y="-1132.1307"><tspan x="-638.25726" y="-1132.1307"/></text><text opacity=".8" x="-2461.9429" y="-386.57724"><tspan x="-2461.9429" y="-386.57724"/></text><text opacity=".8" x="-747.1875" y="-293.70508"><tspan x="-747.1875" y="-293.70508"/></text><text opacity=".8" x="92.827057" y="-52.790909"><tspan x="92.827057" y="-52.790909"/></text><text opacity=".8" x="116.78799" y="-93.532623"><tspan x="116.78799" y="-93.532623"/></text><text opacity=".8" x="-1153.0287" y="-287.56122"><tspan x="-1153.0287" y="-287.56122"/></text><text opacity=".8" x="-345.42667" y="-701.03143"><tspan x="-345.42667" y="-701.03143"/></text><text opacity=".8" x="-321.46573" y="-741.77313"><tspan x="-321.46573" y="-741.77313"/></text><text opacity=".8" x="-1812.9288" y="-748.98309"><tspan x="-1812.9288" y="-748.98309"/></text><text opacity=".8" x="-352.38611" y="-1022.2171"><tspan x="-352.38611" y="-1022.2171"/></text><text opacity=".8" x="1133.7373" y="-395.52579"><tspan x="1133.7373" y="-395.52579"/></text><text opacity=".8" x="1157.6981" y="-436.26752"><tspan x="1157.6981" y="-436.26752"/></text><text opacity=".8" x="-333.76498" y="-443.47745"><tspan x="-333.76498" y="-443.47745"/></text><text opacity=".8" x="1126.7778" y="-716.71155"><tspan x="1126.7778" y="-716.71155"/></text><text opacity=".8" x="-1271.5813" y="-491.56873"><tspan x="-1271.5813" y="-491.56873"/></text><text opacity=".8" x="-3095.2668" y="253.9848"><tspan x="-3095.2668" y="253.9848"/></text><text opacity=".8" transform="matrix(.90475 0 0 .90475 -779.51 -702.12)" x="-664.2738" y="1159.4154"><tspan x="-664.2738" y="1159.4154"/></text><text x="373.13901" y="-394.2981"><tspan x="373.13901" y="-394.2981"/><tspan x="373.13901" y="-378.46503"/></text><text opacity=".8" x="838.32294" y="-876.34265"><tspan x="838.32294" y="-876.34265"/></text><text opacity=".8" x="-985.36304" y="-130.78917"><tspan x="-985.36304" y="-130.78917"/></text><text opacity=".8" x="1565.4025" y="-1161.3385"><tspan x="1565.4025" y="-1161.3385"/></text><text opacity=".8" x="1589.3633" y="-1202.0802"><tspan x="1589.3633" y="-1202.0802"/></text><text opacity=".8" x="97.900177" y="-1209.2902"><tspan x="97.900177" y="-1209.2902"/></text><text opacity=".8" x="1558.443" y="-1482.5243"><tspan x="1558.443" y="-1482.5243"/></text></svg>