<svg height="16" width="16" xmlns="http://www.w3.org/2000/svg"><text opacity=".8" x="877.22626" y="-21.187399"><tspan x="877.22626" y="-21.187399"/></text><text opacity=".8" x="901.18719" y="-61.929108"><tspan x="901.18719" y="-61.929108"/></text><text opacity=".8" x="-569.37115" y="-92.007248"><tspan x="-569.37115" y="-92.007248"/></text><text opacity=".8" x="-2393.0571" y="653.5462"><tspan x="-2393.0571" y="653.5462"/></text><text opacity=".8" x="-454.88007" y="-477.32822"><tspan x="-454.88007" y="-477.32822"/></text><text opacity=".8" x="352.72208" y="-890.79834"><tspan x="352.72208" y="-890.79834"/></text><text opacity=".8" x="376.68301" y="-931.54004"><tspan x="376.68301" y="-931.54004"/></text><text opacity=".8" x="-1114.7802" y="-938.74994"><tspan x="-1114.7802" y="-938.74994"/></text><text opacity=".8" x="345.7626" y="-1211.9841"><tspan x="345.7626" y="-1211.9841"/></text><text opacity=".8" x="1831.8861" y="-585.29272"><tspan x="1831.8861" y="-585.29272"/></text><text opacity=".8" x="1855.8469" y="-626.03448"><tspan x="1855.8469" y="-626.03448"/></text><text opacity=".8" x="364.38376" y="-633.24438"><tspan x="364.38376" y="-633.24438"/></text><text opacity=".8" x="1824.9266" y="-906.47839"><tspan x="1824.9266" y="-906.47839"/></text><text opacity=".8" x="-573.43256" y="-681.33569"><tspan x="-573.43256" y="-681.33569"/></text><text opacity=".8" x="-2397.1182" y="64.217857"><tspan x="-2397.1182" y="64.217857"/></text><text opacity=".8" x="-682.36279" y="157.09"><tspan x="-682.36279" y="157.09"/></text><text opacity=".8" x="426.66153" y="-22.092148"><tspan x="426.66153" y="-22.092148"/></text><text opacity=".8" x="450.62247" y="-62.833855"><tspan x="450.62247" y="-62.833855"/></text><text opacity=".8" x="-1040.8407" y="-70.043823"><tspan x="-1040.8407" y="-70.043823"/></text><text opacity=".8" x="419.70206" y="-343.27789"><tspan x="419.70206" y="-343.27789"/></text><text opacity=".8" x="-608.03253" y="-72.758072"><tspan x="-608.03253" y="-72.758072"/></text><text opacity=".8" x="-2431.7185" y="672.79541"><tspan x="-2431.7185" y="672.79541"/></text><text opacity=".8" x="-456.93948" y="-934.28857"><tspan x="-456.93948" y="-934.28857"/></text><text opacity=".8" x="350.66266" y="-1347.7588"><tspan x="350.66266" y="-1347.7588"/></text><text opacity=".8" x="374.62357" y="-1388.5005"><tspan x="374.62357" y="-1388.5005"/></text><text opacity=".8" x="-1116.8396" y="-1395.7104"><tspan x="-1116.8396" y="-1395.7104"/></text><text opacity=".8" x="343.70316" y="-1668.9446"><tspan x="343.70316" y="-1668.9446"/></text><text opacity=".8" x="1829.8265" y="-1042.2533"><tspan x="1829.8265" y="-1042.2533"/></text><text opacity=".8" x="1853.7874" y="-1082.9949"><tspan x="1853.7874" y="-1082.9949"/></text><text opacity=".8" x="362.32431" y="-1090.2048"><tspan x="362.32431" y="-1090.2048"/></text><text opacity=".8" x="1822.8671" y="-1363.439"><tspan x="1822.8671" y="-1363.439"/></text><text opacity=".8" x="-575.492" y="-1138.2961"><tspan x="-575.492" y="-1138.2961"/></text><text opacity=".8" x="-2399.1777" y="-392.74261"><tspan x="-2399.1777" y="-392.74261"/></text><text opacity=".8" x="-684.42224" y="-299.87045"><tspan x="-684.42224" y="-299.87045"/></text><text opacity=".8" x="155.5923" y="-58.956276"><tspan x="155.5923" y="-58.956276"/></text><text opacity=".8" x="179.55324" y="-99.697998"><tspan x="179.55324" y="-99.697998"/></text><text opacity=".8" x="-1090.2634" y="-293.72662"><tspan x="-1090.2634" y="-293.72662"/></text><text opacity=".8" x="-282.66141" y="-707.19678"><tspan x="-282.66141" y="-707.19678"/></text><text opacity=".8" x="-258.70047" y="-747.93848"><tspan x="-258.70047" y="-747.93848"/></text><text opacity=".8" x="-1750.1636" y="-755.14838"><tspan x="-1750.1636" y="-755.14838"/></text><text opacity=".8" x="-289.62085" y="-1028.3826"><tspan x="-289.62085" y="-1028.3826"/></text><text opacity=".8" x="1196.5026" y="-401.69113"><tspan x="1196.5026" y="-401.69113"/></text><text opacity=".8" x="1220.4634" y="-442.43286"><tspan x="1220.4634" y="-442.43286"/></text><text opacity=".8" x="-270.99973" y="-449.64282"><tspan x="-270.99973" y="-449.64282"/></text><text opacity=".8" x="1189.5431" y="-722.87689"><tspan x="1189.5431" y="-722.87689"/></text><text opacity=".8" x="-1208.816" y="-497.7341"><tspan x="-1208.816" y="-497.7341"/></text><text opacity=".8" x="-3032.5017" y="247.81946"><tspan x="-3032.5017" y="247.81946"/></text><text opacity=".8" transform="matrix(.90475 0 0 .90475 -716.75 -708.29)" x="-664.2738" y="1159.4154"><tspan x="-664.2738" y="1159.4154"/></text><text opacity=".8" x="877.22626" y="-13.949411"><tspan x="877.22626" y="-13.949411"/></text><text opacity=".8" x="901.18719" y="-54.691116"><tspan x="901.18719" y="-54.691116"/></text><text opacity=".8" x="-569.37115" y="-84.769257"><tspan x="-569.37115" y="-84.769257"/></text><text opacity=".8" x="-2393.0571" y="660.78418"><tspan x="-2393.0571" y="660.78418"/></text><text opacity=".8" x="-454.88007" y="-470.09021"><tspan x="-454.88007" y="-470.09021"/></text><text opacity=".8" x="352.72208" y="-883.5603"><tspan x="352.72208" y="-883.5603"/></text><text opacity=".8" x="376.68301" y="-924.30206"><tspan x="376.68301" y="-924.30206"/></text><text opacity=".8" x="-1114.7802" y="-931.51196"><tspan x="-1114.7802" y="-931.51196"/></text><text opacity=".8" x="345.7626" y="-1204.7461"><tspan x="345.7626" y="-1204.7461"/></text><text opacity=".8" x="1831.8861" y="-578.05475"><tspan x="1831.8861" y="-578.05475"/></text><text opacity=".8" x="1855.8469" y="-618.79651"><tspan x="1855.8469" y="-618.79651"/></text><text opacity=".8" x="364.38376" y="-626.00641"><tspan x="364.38376" y="-626.00641"/></text><text opacity=".8" x="1824.9266" y="-899.24036"><tspan x="1824.9266" y="-899.24036"/></text><text opacity=".8" x="-573.43256" y="-674.09772"><tspan x="-573.43256" y="-674.09772"/></text><text opacity=".8" x="-2397.1182" y="71.455849"><tspan x="-2397.1182" y="71.455849"/></text><text opacity=".8" x="-682.36279" y="164.32799"><tspan x="-682.36279" y="164.32799"/></text><text opacity=".8" x="426.66153" y="-14.85416"><tspan x="426.66153" y="-14.85416"/></text><text opacity=".8" x="450.62247" y="-55.595863"><tspan x="450.62247" y="-55.595863"/></text><text opacity=".8" x="-1040.8407" y="-62.805836"><tspan x="-1040.8407" y="-62.805836"/></text><text opacity=".8" x="419.70206" y="-336.03989"><tspan x="419.70206" y="-336.03989"/></text><text opacity=".8" x="-608.03253" y="-65.520081"><tspan x="-608.03253" y="-65.520081"/></text><text opacity=".8" x="-2431.7185" y="680.03345"><tspan x="-2431.7185" y="680.03345"/></text><text opacity=".8" x="-456.93948" y="-927.0506"><tspan x="-456.93948" y="-927.0506"/></text><text opacity=".8" x="350.66266" y="-1340.5208"><tspan x="350.66266" y="-1340.5208"/></text><text opacity=".8" x="374.62357" y="-1381.2626"><tspan x="374.62357" y="-1381.2626"/></text><text opacity=".8" x="-1116.8396" y="-1388.4724"><tspan x="-1116.8396" y="-1388.4724"/></text><text opacity=".8" x="343.70316" y="-1661.7065"><tspan x="343.70316" y="-1661.7065"/></text><text opacity=".8" x="1829.8265" y="-1035.0154"><tspan x="1829.8265" y="-1035.0154"/></text><text opacity=".8" x="1853.7874" y="-1075.757"><tspan x="1853.7874" y="-1075.757"/></text><text opacity=".8" x="362.32431" y="-1082.9668"><tspan x="362.32431" y="-1082.9668"/></text><text opacity=".8" x="1822.8671" y="-1356.2009"><tspan x="1822.8671" y="-1356.2009"/></text><text opacity=".8" x="-575.492" y="-1131.0581"><tspan x="-575.492" y="-1131.0581"/></text><text opacity=".8" x="-2399.1777" y="-385.50461"><tspan x="-2399.1777" y="-385.50461"/></text><text opacity=".8" x="-684.42224" y="-292.63245"><tspan x="-684.42224" y="-292.63245"/></text><text opacity=".8" x="155.5923" y="-51.718292"><tspan x="155.5923" y="-51.718292"/></text><text opacity=".8" x="179.55324" y="-92.460007"><tspan x="179.55324" y="-92.460007"/></text><text opacity=".8" x="-1090.2634" y="-286.48859"><tspan x="-1090.2634" y="-286.48859"/></text><text opacity=".8" x="-282.66141" y="-699.9588"><tspan x="-282.66141" y="-699.9588"/></text><text opacity=".8" x="-258.70047" y="-740.7005"><tspan x="-258.70047" y="-740.7005"/></text><text opacity=".8" x="-1750.1636" y="-747.91046"><tspan x="-1750.1636" y="-747.91046"/></text><text opacity=".8" x="-289.62085" y="-1021.1445"><tspan x="-289.62085" y="-1021.1445"/></text><text opacity=".8" x="1196.5026" y="-394.45316"><tspan x="1196.5026" y="-394.45316"/></text><text opacity=".8" x="1220.4634" y="-435.19489"><tspan x="1220.4634" y="-435.19489"/></text><text opacity=".8" x="-270.99973" y="-442.40482"><tspan x="-270.99973" y="-442.40482"/></text><text opacity=".8" x="1189.5431" y="-715.63892"><tspan x="1189.5431" y="-715.63892"/></text><text opacity=".8" x="-1208.816" y="-490.49609"><tspan x="-1208.816" y="-490.49609"/></text><text opacity=".8" x="-3032.5017" y="255.05743"><tspan x="-3032.5017" y="255.05743"/></text><text opacity=".8" transform="matrix(.90475 0 0 .90475 -716.75 -701.05)" x="-664.2738" y="1159.4154"><tspan x="-664.2738" y="1159.4154"/></text><text x="435.90427" y="-393.22546"><tspan x="435.90427" y="-393.22546"/><tspan x="435.90427" y="-377.3924"/></text><text opacity=".8" x="901.0882" y="-875.27002"><tspan x="901.0882" y="-875.27002"/></text><text opacity=".8" x="-922.59778" y="-129.71655"><tspan x="-922.59778" y="-129.71655"/></text><text opacity=".8" x="1628.1677" y="-1160.2659"><tspan x="1628.1677" y="-1160.2659"/></text><text opacity=".8" x="1652.1285" y="-1201.0076"><tspan x="1652.1285" y="-1201.0076"/></text><text opacity=".8" x="160.66542" y="-1208.2175"><tspan x="160.66542" y="-1208.2175"/></text><text opacity=".8" x="1621.2083" y="-1481.4517"><tspan x="1621.2083" y="-1481.4517"/></text><rect fill="#8283d7" height="16" rx=".85714287" transform="matrix(0 -1 -1 0 0 0)" width="16" x="-16" y="-16"/><text opacity=".8" x="846.79901" y="-17.637863"><tspan x="846.79901" y="-17.637863"/></text><text opacity=".8" x="870.75995" y="-58.379574"><tspan x="870.75995" y="-58.379574"/></text><text opacity=".8" x="-599.7984" y="-88.45771"><tspan x="-599.7984" y="-88.45771"/></text><text opacity=".8" x="-2423.4844" y="657.09576"><tspan x="-2423.4844" y="657.09576"/></text><text opacity=".8" x="-485.30731" y="-473.77869"><tspan x="-485.30731" y="-473.77869"/></text><text opacity=".8" x="322.29483" y="-887.24878"><tspan x="322.29483" y="-887.24878"/></text><text opacity=".8" x="346.25577" y="-927.99048"><tspan x="346.25577" y="-927.99048"/></text><text opacity=".8" x="-1145.2074" y="-935.20038"><tspan x="-1145.2074" y="-935.20038"/></text><text opacity=".8" x="315.33536" y="-1208.4346"><tspan x="315.33536" y="-1208.4346"/></text><text opacity=".8" x="1801.4589" y="-581.74316"><tspan x="1801.4589" y="-581.74316"/></text><text opacity=".8" x="1825.4197" y="-622.48492"><tspan x="1825.4197" y="-622.48492"/></text><text opacity=".8" x="333.95651" y="-629.69482"><tspan x="333.95651" y="-629.69482"/></text><text opacity=".8" x="1794.4994" y="-902.92883"><tspan x="1794.4994" y="-902.92883"/></text><text opacity=".8" x="-603.8598" y="-677.78613"><tspan x="-603.8598" y="-677.78613"/></text><text opacity=".8" x="-2427.5454" y="67.767395"><tspan x="-2427.5454" y="67.767395"/></text><text opacity=".8" x="-712.79004" y="160.63953"><tspan x="-712.79004" y="160.63953"/></text><text opacity=".8" x="396.23428" y="-18.542612"><tspan x="396.23428" y="-18.542612"/></text><text opacity=".8" x="420.19522" y="-59.284321"><tspan x="420.19522" y="-59.284321"/></text><text opacity=".8" x="-1071.2679" y="-66.494293"><tspan x="-1071.2679" y="-66.494293"/></text><text opacity=".8" x="389.27481" y="-339.72836"><tspan x="389.27481" y="-339.72836"/></text><text opacity=".8" x="-638.45978" y="-69.208542"><tspan x="-638.45978" y="-69.208542"/></text><text opacity=".8" x="-2462.1458" y="676.34497"><tspan x="-2462.1458" y="676.34497"/></text><text opacity=".8" x="-487.36673" y="-930.73901"><tspan x="-487.36673" y="-930.73901"/></text><text opacity=".8" x="320.23541" y="-1344.2092"><tspan x="320.23541" y="-1344.2092"/></text><text opacity=".8" x="344.19632" y="-1384.9509"><tspan x="344.19632" y="-1384.9509"/></text><text opacity=".8" x="-1147.2668" y="-1392.1609"><tspan x="-1147.2668" y="-1392.1609"/></text><text opacity=".8" x="313.27591" y="-1665.395"><tspan x="313.27591" y="-1665.395"/></text><text opacity=".8" x="1799.3993" y="-1038.7036"><tspan x="1799.3993" y="-1038.7036"/></text><text opacity=".8" x="1823.3601" y="-1079.4453"><tspan x="1823.3601" y="-1079.4453"/></text><text opacity=".8" x="331.89706" y="-1086.6553"><tspan x="331.89706" y="-1086.6553"/></text><text opacity=".8" x="1792.4398" y="-1359.8894"><tspan x="1792.4398" y="-1359.8894"/></text><text opacity=".8" x="-605.91925" y="-1134.7466"><tspan x="-605.91925" y="-1134.7466"/></text><text opacity=".8" x="-2429.605" y="-389.19308"><tspan x="-2429.605" y="-389.19308"/></text><text opacity=".8" x="-714.84949" y="-296.32092"><tspan x="-714.84949" y="-296.32092"/></text><text opacity=".8" x="125.16505" y="-55.406742"><tspan x="125.16505" y="-55.406742"/></text><text opacity=".8" x="149.12599" y="-96.14846"><tspan x="149.12599" y="-96.14846"/></text><text opacity=".8" x="-1120.6907" y="-290.17709"><tspan x="-1120.6907" y="-290.17709"/></text><text opacity=".8" x="-313.08865" y="-703.64722"><tspan x="-313.08865" y="-703.64722"/></text><text opacity=".8" x="-289.12772" y="-744.38892"><tspan x="-289.12772" y="-744.38892"/></text><text opacity=".8" x="-1780.5908" y="-751.59882"><tspan x="-1780.5908" y="-751.59882"/></text><text opacity=".8" x="-320.0481" y="-1024.8329"><tspan x="-320.0481" y="-1024.8329"/></text><text opacity=".8" x="1166.0753" y="-398.1416"><tspan x="1166.0753" y="-398.1416"/></text><text opacity=".8" x="1190.0361" y="-438.88333"><tspan x="1190.0361" y="-438.88333"/></text><text opacity=".8" x="-301.42697" y="-446.09329"><tspan x="-301.42697" y="-446.09329"/></text><text opacity=".8" x="1159.1158" y="-719.32733"><tspan x="1159.1158" y="-719.32733"/></text><text opacity=".8" x="-1239.2433" y="-494.18457"><tspan x="-1239.2433" y="-494.18457"/></text><text opacity=".8" x="-3062.929" y="251.36899"><tspan x="-3062.929" y="251.36899"/></text><text opacity=".8" transform="matrix(.90475 0 0 .90475 -747.17 -704.74)" x="-664.2738" y="1159.4154"><tspan x="-664.2738" y="1159.4154"/></text><text opacity=".8" x="846.79901" y="-10.399876"><tspan x="846.79901" y="-10.399876"/></text><text opacity=".8" x="870.75995" y="-51.141582"><tspan x="870.75995" y="-51.141582"/></text><text opacity=".8" x="-599.7984" y="-81.219719"><tspan x="-599.7984" y="-81.219719"/></text><text opacity=".8" x="-2423.4844" y="664.33374"><tspan x="-2423.4844" y="664.33374"/></text><text opacity=".8" x="-485.30731" y="-466.54068"><tspan x="-485.30731" y="-466.54068"/></text><text opacity=".8" x="322.29483" y="-880.01074"><tspan x="322.29483" y="-880.01074"/></text><text opacity=".8" x="346.25577" y="-920.7525"><tspan x="346.25577" y="-920.7525"/></text><text opacity=".8" x="-1145.2074" y="-927.9624"><tspan x="-1145.2074" y="-927.9624"/></text><text opacity=".8" x="315.33536" y="-1201.1965"><tspan x="315.33536" y="-1201.1965"/></text><text opacity=".8" x="1801.4589" y="-574.50519"><tspan x="1801.4589" y="-574.50519"/></text><text opacity=".8" x="1825.4197" y="-615.24695"><tspan x="1825.4197" y="-615.24695"/></text><text opacity=".8" x="333.95651" y="-622.45685"><tspan x="333.95651" y="-622.45685"/></text><text opacity=".8" x="1794.4994" y="-895.6908"><tspan x="1794.4994" y="-895.6908"/></text><text opacity=".8" x="-603.8598" y="-670.54816"><tspan x="-603.8598" y="-670.54816"/></text><text opacity=".8" x="-2427.5454" y="75.005386"><tspan x="-2427.5454" y="75.005386"/></text><text opacity=".8" x="-712.79004" y="167.87752"><tspan x="-712.79004" y="167.87752"/></text><text opacity=".8" x="396.23428" y="-11.304625"><tspan x="396.23428" y="-11.304625"/></text><text opacity=".8" x="420.19522" y="-52.046329"><tspan x="420.19522" y="-52.046329"/></text><text opacity=".8" x="-1071.2679" y="-59.256302"><tspan x="-1071.2679" y="-59.256302"/></text><text opacity=".8" x="389.27481" y="-332.49036"><tspan x="389.27481" y="-332.49036"/></text><text opacity=".8" x="-638.45978" y="-61.970547"><tspan x="-638.45978" y="-61.970547"/></text><text opacity=".8" x="-2462.1458" y="683.58301"><tspan x="-2462.1458" y="683.58301"/></text><text opacity=".8" x="-487.36673" y="-923.50104"><tspan x="-487.36673" y="-923.50104"/></text><text opacity=".8" x="320.23541" y="-1336.9712"><tspan x="320.23541" y="-1336.9712"/></text><text opacity=".8" x="344.19632" y="-1377.713"><tspan x="344.19632" y="-1377.713"/></text><text opacity=".8" x="-1147.2668" y="-1384.9229"><tspan x="-1147.2668" y="-1384.9229"/></text><text opacity=".8" x="313.27591" y="-1658.157"><tspan x="313.27591" y="-1658.157"/></text><text opacity=".8" x="1799.3993" y="-1031.4658"><tspan x="1799.3993" y="-1031.4658"/></text><text opacity=".8" x="1823.3601" y="-1072.2074"><tspan x="1823.3601" y="-1072.2074"/></text><text opacity=".8" x="331.89706" y="-1079.4172"><tspan x="331.89706" y="-1079.4172"/></text><text opacity=".8" x="1792.4398" y="-1352.6514"><tspan x="1792.4398" y="-1352.6514"/></text><text opacity=".8" x="-605.91925" y="-1127.5085"><tspan x="-605.91925" y="-1127.5085"/></text><text opacity=".8" x="-2429.605" y="-381.95508"><tspan x="-2429.605" y="-381.95508"/></text><text opacity=".8" x="-714.84949" y="-289.08292"><tspan x="-714.84949" y="-289.08292"/></text><text opacity=".8" x="125.16505" y="-48.168758"><tspan x="125.16505" y="-48.168758"/></text><text opacity=".8" x="149.12599" y="-88.910469"><tspan x="149.12599" y="-88.910469"/></text><text opacity=".8" x="-1120.6907" y="-282.93906"><tspan x="-1120.6907" y="-282.93906"/></text><text opacity=".8" x="-313.08865" y="-696.40924"><tspan x="-313.08865" y="-696.40924"/></text><text opacity=".8" x="-289.12772" y="-737.15094"><tspan x="-289.12772" y="-737.15094"/></text><text opacity=".8" x="-1780.5908" y="-744.3609"><tspan x="-1780.5908" y="-744.3609"/></text><text opacity=".8" x="-320.0481" y="-1017.5949"><tspan x="-320.0481" y="-1017.5949"/></text><text opacity=".8" x="1166.0753" y="-390.90363"><tspan x="1166.0753" y="-390.90363"/></text><text opacity=".8" x="1190.0361" y="-431.64536"><tspan x="1190.0361" y="-431.64536"/></text><text opacity=".8" x="-301.42697" y="-438.85529"><tspan x="-301.42697" y="-438.85529"/></text><text opacity=".8" x="1159.1158" y="-712.08936"><tspan x="1159.1158" y="-712.08936"/></text><text opacity=".8" x="-1239.2433" y="-486.94656"><tspan x="-1239.2433" y="-486.94656"/></text><text opacity=".8" x="-3062.929" y="258.60696"><tspan x="-3062.929" y="258.60696"/></text><text opacity=".8" transform="matrix(.90475 0 0 .90475 -747.17 -697.5)" x="-664.2738" y="1159.4154"><tspan x="-664.2738" y="1159.4154"/></text><text x="405.47702" y="-389.67593"><tspan x="405.47702" y="-389.67593"/><tspan x="405.47702" y="-373.84286"/></text><text opacity=".8" x="870.66095" y="-871.72046"><tspan x="870.66095" y="-871.72046"/></text><text opacity=".8" x="-953.02502" y="-126.16702"><tspan x="-953.02502" y="-126.16702"/></text><text opacity=".8" x="1597.7405" y="-1156.7163"><tspan x="1597.7405" y="-1156.7163"/></text><text opacity=".8" x="1621.7013" y="-1197.458"><tspan x="1621.7013" y="-1197.458"/></text><text opacity=".8" x="130.23817" y="-1204.668"><tspan x="130.23817" y="-1204.668"/></text><text opacity=".8" x="1590.781" y="-1477.9021"><tspan x="1590.781" y="-1477.9021"/></text><g fill="#fff" transform="translate(24.991525 4.1610169)"><path d="m-21.991525 1.8389831v1h1v3h1v-3h1v-1z"/><path d="m-18.991525 2.8389831v4h3v-1h-2v-.5h2v-1h-2v-.5h2v-1z"/><path d="m-15.991525 1.8389831l1 2-1 2h1l .5-1 .5 1h1l-1-2 1-2h-1l-.5 1-.5-1z"/></g></svg>