<svg height="16" width="16" xmlns="http://www.w3.org/2000/svg"><text opacity=".8" x="877.22626" y="-21.187399"><tspan x="877.22626" y="-21.187399"/></text><text opacity=".8" x="901.18719" y="-61.929108"><tspan x="901.18719" y="-61.929108"/></text><text opacity=".8" x="-569.37115" y="-92.007248"><tspan x="-569.37115" y="-92.007248"/></text><text opacity=".8" x="-2393.0571" y="653.5462"><tspan x="-2393.0571" y="653.5462"/></text><text opacity=".8" x="-454.88007" y="-477.32822"><tspan x="-454.88007" y="-477.32822"/></text><text opacity=".8" x="352.72208" y="-890.79834"><tspan x="352.72208" y="-890.79834"/></text><text opacity=".8" x="376.68301" y="-931.54004"><tspan x="376.68301" y="-931.54004"/></text><text opacity=".8" x="-1114.7802" y="-938.74994"><tspan x="-1114.7802" y="-938.74994"/></text><text opacity=".8" x="345.7626" y="-1211.9841"><tspan x="345.7626" y="-1211.9841"/></text><text opacity=".8" x="1831.8861" y="-585.29272"><tspan x="1831.8861" y="-585.29272"/></text><text opacity=".8" x="1855.8469" y="-626.03448"><tspan x="1855.8469" y="-626.03448"/></text><text opacity=".8" x="364.38376" y="-633.24438"><tspan x="364.38376" y="-633.24438"/></text><text opacity=".8" x="1824.9266" y="-906.47839"><tspan x="1824.9266" y="-906.47839"/></text><text opacity=".8" x="-573.43256" y="-681.33569"><tspan x="-573.43256" y="-681.33569"/></text><text opacity=".8" x="-2397.1182" y="64.217857"><tspan x="-2397.1182" y="64.217857"/></text><text opacity=".8" x="-682.36279" y="157.09"><tspan x="-682.36279" y="157.09"/></text><text opacity=".8" x="426.66153" y="-22.092148"><tspan x="426.66153" y="-22.092148"/></text><text opacity=".8" x="450.62247" y="-62.833855"><tspan x="450.62247" y="-62.833855"/></text><text opacity=".8" x="-1040.8407" y="-70.043823"><tspan x="-1040.8407" y="-70.043823"/></text><text opacity=".8" x="419.70206" y="-343.27789"><tspan x="419.70206" y="-343.27789"/></text><text opacity=".8" x="-608.03253" y="-72.758072"><tspan x="-608.03253" y="-72.758072"/></text><text opacity=".8" x="-2431.7185" y="672.79541"><tspan x="-2431.7185" y="672.79541"/></text><text opacity=".8" x="-456.93948" y="-934.28857"><tspan x="-456.93948" y="-934.28857"/></text><text opacity=".8" x="350.66266" y="-1347.7588"><tspan x="350.66266" y="-1347.7588"/></text><text opacity=".8" x="374.62357" y="-1388.5005"><tspan x="374.62357" y="-1388.5005"/></text><text opacity=".8" x="-1116.8396" y="-1395.7104"><tspan x="-1116.8396" y="-1395.7104"/></text><text opacity=".8" x="343.70316" y="-1668.9446"><tspan x="343.70316" y="-1668.9446"/></text><text opacity=".8" x="1829.8265" y="-1042.2533"><tspan x="1829.8265" y="-1042.2533"/></text><text opacity=".8" x="1853.7874" y="-1082.9949"><tspan x="1853.7874" y="-1082.9949"/></text><text opacity=".8" x="362.32431" y="-1090.2048"><tspan x="362.32431" y="-1090.2048"/></text><text opacity=".8" x="1822.8671" y="-1363.439"><tspan x="1822.8671" y="-1363.439"/></text><text opacity=".8" x="-575.492" y="-1138.2961"><tspan x="-575.492" y="-1138.2961"/></text><text opacity=".8" x="-2399.1777" y="-392.74261"><tspan x="-2399.1777" y="-392.74261"/></text><text opacity=".8" x="-684.42224" y="-299.87045"><tspan x="-684.42224" y="-299.87045"/></text><text opacity=".8" x="155.5923" y="-58.956276"><tspan x="155.5923" y="-58.956276"/></text><text opacity=".8" x="179.55324" y="-99.697998"><tspan x="179.55324" y="-99.697998"/></text><text opacity=".8" x="-1090.2634" y="-293.72662"><tspan x="-1090.2634" y="-293.72662"/></text><text opacity=".8" x="-282.66141" y="-707.19678"><tspan x="-282.66141" y="-707.19678"/></text><text opacity=".8" x="-258.70047" y="-747.93848"><tspan x="-258.70047" y="-747.93848"/></text><text opacity=".8" x="-1750.1636" y="-755.14838"><tspan x="-1750.1636" y="-755.14838"/></text><text opacity=".8" x="-289.62085" y="-1028.3826"><tspan x="-289.62085" y="-1028.3826"/></text><text opacity=".8" x="1196.5026" y="-401.69113"><tspan x="1196.5026" y="-401.69113"/></text><text opacity=".8" x="1220.4634" y="-442.43286"><tspan x="1220.4634" y="-442.43286"/></text><text opacity=".8" x="-270.99973" y="-449.64282"><tspan x="-270.99973" y="-449.64282"/></text><text opacity=".8" x="1189.5431" y="-722.87689"><tspan x="1189.5431" y="-722.87689"/></text><text opacity=".8" x="-1208.816" y="-497.7341"><tspan x="-1208.816" y="-497.7341"/></text><text opacity=".8" x="-3032.5017" y="247.81946"><tspan x="-3032.5017" y="247.81946"/></text><text opacity=".8" transform="matrix(.90475 0 0 .90475 -716.75 -708.29)" x="-664.2738" y="1159.4154"><tspan x="-664.2738" y="1159.4154"/></text><text opacity=".8" x="877.22626" y="-13.949411"><tspan x="877.22626" y="-13.949411"/></text><text opacity=".8" x="901.18719" y="-54.691116"><tspan x="901.18719" y="-54.691116"/></text><text opacity=".8" x="-569.37115" y="-84.769257"><tspan x="-569.37115" y="-84.769257"/></text><text opacity=".8" x="-2393.0571" y="660.78418"><tspan x="-2393.0571" y="660.78418"/></text><text opacity=".8" x="-454.88007" y="-470.09021"><tspan x="-454.88007" y="-470.09021"/></text><text opacity=".8" x="352.72208" y="-883.5603"><tspan x="352.72208" y="-883.5603"/></text><text opacity=".8" x="376.68301" y="-924.30206"><tspan x="376.68301" y="-924.30206"/></text><text opacity=".8" x="-1114.7802" y="-931.51196"><tspan x="-1114.7802" y="-931.51196"/></text><text opacity=".8" x="345.7626" y="-1204.7461"><tspan x="345.7626" y="-1204.7461"/></text><text opacity=".8" x="1831.8861" y="-578.05475"><tspan x="1831.8861" y="-578.05475"/></text><text opacity=".8" x="1855.8469" y="-618.79651"><tspan x="1855.8469" y="-618.79651"/></text><text opacity=".8" x="364.38376" y="-626.00641"><tspan x="364.38376" y="-626.00641"/></text><text opacity=".8" x="1824.9266" y="-899.24036"><tspan x="1824.9266" y="-899.24036"/></text><text opacity=".8" x="-573.43256" y="-674.09772"><tspan x="-573.43256" y="-674.09772"/></text><text opacity=".8" x="-2397.1182" y="71.455849"><tspan x="-2397.1182" y="71.455849"/></text><text opacity=".8" x="-682.36279" y="164.32799"><tspan x="-682.36279" y="164.32799"/></text><text opacity=".8" x="426.66153" y="-14.85416"><tspan x="426.66153" y="-14.85416"/></text><text opacity=".8" x="450.62247" y="-55.595863"><tspan x="450.62247" y="-55.595863"/></text><text opacity=".8" x="-1040.8407" y="-62.805836"><tspan x="-1040.8407" y="-62.805836"/></text><text opacity=".8" x="419.70206" y="-336.03989"><tspan x="419.70206" y="-336.03989"/></text><text opacity=".8" x="-608.03253" y="-65.520081"><tspan x="-608.03253" y="-65.520081"/></text><text opacity=".8" x="-2431.7185" y="680.03345"><tspan x="-2431.7185" y="680.03345"/></text><text opacity=".8" x="-456.93948" y="-927.0506"><tspan x="-456.93948" y="-927.0506"/></text><text opacity=".8" x="350.66266" y="-1340.5208"><tspan x="350.66266" y="-1340.5208"/></text><text opacity=".8" x="374.62357" y="-1381.2626"><tspan x="374.62357" y="-1381.2626"/></text><text opacity=".8" x="-1116.8396" y="-1388.4724"><tspan x="-1116.8396" y="-1388.4724"/></text><text opacity=".8" x="343.70316" y="-1661.7065"><tspan x="343.70316" y="-1661.7065"/></text><text opacity=".8" x="1829.8265" y="-1035.0154"><tspan x="1829.8265" y="-1035.0154"/></text><text opacity=".8" x="1853.7874" y="-1075.757"><tspan x="1853.7874" y="-1075.757"/></text><text opacity=".8" x="362.32431" y="-1082.9668"><tspan x="362.32431" y="-1082.9668"/></text><text opacity=".8" x="1822.8671" y="-1356.2009"><tspan x="1822.8671" y="-1356.2009"/></text><text opacity=".8" x="-575.492" y="-1131.0581"><tspan x="-575.492" y="-1131.0581"/></text><text opacity=".8" x="-2399.1777" y="-385.50461"><tspan x="-2399.1777" y="-385.50461"/></text><text opacity=".8" x="-684.42224" y="-292.63245"><tspan x="-684.42224" y="-292.63245"/></text><text opacity=".8" x="155.5923" y="-51.718292"><tspan x="155.5923" y="-51.718292"/></text><text opacity=".8" x="179.55324" y="-92.460007"><tspan x="179.55324" y="-92.460007"/></text><text opacity=".8" x="-1090.2634" y="-286.48859"><tspan x="-1090.2634" y="-286.48859"/></text><text opacity=".8" x="-282.66141" y="-699.9588"><tspan x="-282.66141" y="-699.9588"/></text><text opacity=".8" x="-258.70047" y="-740.7005"><tspan x="-258.70047" y="-740.7005"/></text><text opacity=".8" x="-1750.1636" y="-747.91046"><tspan x="-1750.1636" y="-747.91046"/></text><text opacity=".8" x="-289.62085" y="-1021.1445"><tspan x="-289.62085" y="-1021.1445"/></text><text opacity=".8" x="1196.5026" y="-394.45316"><tspan x="1196.5026" y="-394.45316"/></text><text opacity=".8" x="1220.4634" y="-435.19489"><tspan x="1220.4634" y="-435.19489"/></text><text opacity=".8" x="-270.99973" y="-442.40482"><tspan x="-270.99973" y="-442.40482"/></text><text opacity=".8" x="1189.5431" y="-715.63892"><tspan x="1189.5431" y="-715.63892"/></text><text opacity=".8" x="-1208.816" y="-490.49609"><tspan x="-1208.816" y="-490.49609"/></text><text opacity=".8" x="-3032.5017" y="255.05743"><tspan x="-3032.5017" y="255.05743"/></text><text opacity=".8" transform="matrix(.90475 0 0 .90475 -716.75 -701.05)" x="-664.2738" y="1159.4154"><tspan x="-664.2738" y="1159.4154"/></text><text x="435.90427" y="-393.22546"><tspan x="435.90427" y="-393.22546"/><tspan x="435.90427" y="-377.3924"/></text><text opacity=".8" x="901.0882" y="-875.27002"><tspan x="901.0882" y="-875.27002"/></text><text opacity=".8" x="-922.59778" y="-129.71655"><tspan x="-922.59778" y="-129.71655"/></text><text opacity=".8" x="1628.1677" y="-1160.2659"><tspan x="1628.1677" y="-1160.2659"/></text><text opacity=".8" x="1652.1285" y="-1201.0076"><tspan x="1652.1285" y="-1201.0076"/></text><text opacity=".8" x="160.66542" y="-1208.2175"><tspan x="160.66542" y="-1208.2175"/></text><text opacity=".8" x="1621.2083" y="-1481.4517"><tspan x="1621.2083" y="-1481.4517"/></text><g transform="matrix(.57142857 0 0 .57142857 -1.1428571 -1.1428571)"><rect fill="#4d4d4d" height="28" rx="1.4" transform="matrix(0 -1 -1 0 0 0)" width="28" x="-30" y="-30"/><path d="m5.4931641 2.0013665l-.1230469.2871094c-.173591.4060065-.6469019 1.9444075-.9173829 2.9791016-.170415.6519041-.3959012 1.2645039-.8791015 2.3884764-.6403341 1.489481-1.1782738 2.8424581-1.1785156 2.9640621-.0000648.029776-.1905769.745521-.3951172 1.501172v16.478711c0 .361874.139883.687174.3636718.935157l.065625-.202344c.4583365-1.401801.8123605-2.657517.8736329-3.098047.035563-.255695.175375-.771899.3103516-1.14707.1349765-.375172.268044-.873449.2953125-1.107422.027268-.233974.1598661-.808036.2953124-1.275586.1354465-.46755.2460938-.909948.2460938-.983008 0-.07306-.057307-.211302-.1285157-.307617-.098214-.132846-.1208666-.227525-.094336-.391016.02975-.183329.011321-.231307-.1189452-.321289-.4647781-.321049-.4794163-.432605-.1421875-1.10332.1328964-.264317.3486915-.74661.4785155-1.071875.1298247-.325266.5757103-1.380259.991211-2.344727.7187801-1.668446.7646064-1.799717.9433591-2.698828.1033305-.519743.1873053-.992642.1873053-1.05-.0000007-.11986 1.1131988-2.9083374 1.7486322-4.381836.4275061-.9912973.4292974-.9968497.4292974-1.5449217 0-.4458824.039928-.6972541.214648-1.3234375.2106329-.7548967.2145039-.7839782.1503909-1.2960938-.0894985-.7149307-.0896819-.6633046.015036-1.0691405.051492-.1995451.110341-.4645422.13125-.5892579l.038283-.2269531h-1.9003908-1.9003905zm6.4708979 0l-.09297.3486328c-.0517.1912308-.113463.4427783-.136718.5591797-.06705.335584-.259895.6717471-.563282.984375-.350346.36102-.364726.3471721.616602.5933594.161001.04039.304761.1054131.319922.1449218.01516.039509-.02763.2725078-.0957.5181641-.06808.2456564-.124293.5298327-.124414.6302734-.0001.1004413-.05678.4683738-.125782.8175779-.06901.3492041-.14716.9478126-.175 1.3302737-.05636.774333-.275466 1.6193184-.783398 3.0228517-.162482.448976-.475991 1.4253-.695898 2.169727-.2359885.798865-.5692459 1.753134-.8134766 2.32832-.2275875.535989-.4331558 1.055916-.4566408 1.155273-.023485.09936-.2596258.724864-.525 1.39043-.3629219.910212-.4961816 1.322751-.5373066 1.663867-.030072.249431-.1104243.643565-.1791013.876368-.068677.232802-.1786729.804511-.2433599 1.270117-.1324043.953054-.1834812 1.160577-.3541013 1.43828-.2055249.334516-.3593681.955606-.3992191 1.606446-.027566.450178-.099037.832256-.2529296 1.360352-.4810749 1.650848-.503722 1.752121-.504492 2.266797-.000735.493301-.1092305 1.016342-.2816405 1.354882l-.084766.166797h1.8990231 1.8990237l.036911-.188672c.082601-.413007.046739-.552769-.2064447-.810742-.3850525-.392339-.3802743-.444988.1818355-2.232617.6383783-2.03018 1.1511721-3.842628 1.1511721-4.06875 0-.247138.208261-.826884.415625-1.159375.434323-.696402.595102-1.086514 1.26875-3.065235.395162-1.160719.786757-2.300596.870899-2.533398.0875-.242079.182072-.689028.220117-1.044531.06012-.561801.117757-.754412.605664-1.996094.296913-.755617.559602-1.45472.582422-1.554492.02282-.09977.201373-.590786.396484-1.089648.421049-1.076543.598829-1.735124.598829-2.2162116 0-.3156251-.01949-.3694089-.181837-.5140625-.23229-.2069711-.239057-.5000023-.03008-1.2605467.20526-.7470138.529416-1.3522252 1.015821-1.8976563.430342-.4825648.91484-1.3125019 1.158008-1.9824219l.139453-.3828125h-2.76582-2.767188zm8.964649 0l-.173633.4990235c-.09521.2743581-.276876.8528084-.40332 1.2851561-.126445.4323478-.336974 1.0309559-.468946 1.3302735-.337972.7665344-.811346 2.1063736-1.06914 3.0269534-.242067.8644139-1.160012 3.816106-1.756836 5.650586-.210988.648521-.545573 1.518851-.74375 1.93457-.238521.500349-.455217 1.086921-.639844 1.736328-.153399.539564-.47991 1.60092-.725976 2.358399-.246066.757478-.601519 1.889174-.790234 2.514257-.188718.625084-.447298 1.428167-.57422 1.78418-.224914.630883-.62696 2.0754-1.28789 4.622461l-.32539 1.255078h2.760351 2.761718l.188673-.499024c.10409-.274374.322733-.880051.485351-1.346679.290592-.833846 1.189783-2.947939 1.633789-3.839063.210717-.422909.267884-.484209.851758-.920117l.626171-.467578.440235.02871.440235.03008.442969-.298047c.510496-.343044.517147-.353075.83125-1.138868.129642-.324328.361739-.813121.515429-1.085546.153691-.272425.59377-1.210002.977539-2.084961.38377-.87496.904506-1.98554 1.158008-2.467773.923653-1.757054 1.39365-2.724566 1.517578-3.126758.06965-.226029.224245-.732607.344531-1.125196.120287-.392589.337189-.967931.48125-1.27832.391454-.8434117 1.13042-2.7421855 1.573633-4.0044927v-2.975c0-.7086017-.522982-1.2841621-1.204492-1.3794922l-1.454688.010937-.0793.4539063c-.04358.2494314-.157612.794242-.252931 1.2099609-.09867.4303523-.160116.8461029-.143554.9666016.0218.1586268-.04887.4088609-.280273.9980468-.287367.7316837-.644345 1.9685683-.914649 3.1677733-.07245.3214169-.24806.7790846-.478516 1.24961-.199997.408336-.363671.772765-.363671.809375 0 .161001-.574314 1.64235-.775196 1.998827-.121819.216173-.268656.50765-.325391.64668-.05673.13903-.240869.49353-.408788.788867-.167921.295337-.43627.835211-.596094 1.199023-.159824.363814-.444794.923918-.634375 1.245508-.18958.321592-.429345.754561-.531836.961133-.114283.23034-.376769.577247-.679492.896876-.597599.630972-.825774.921776-1.004883 1.27832-.2002.39853-.354057.542773-.57832.542773-.10641 0-.267591-.0589-.359571-.13125-.161062-.126693-.16566-.144836-.125781-.529102.02271-.218848.06204-.751636.0875-1.183983.05584-.948192.102905-1.080415.803906-2.268164.657109-1.113383.693677-1.18834.86543-1.729493.07844-.24716.264717-.673887.412891-.94746.802498-1.481651.947778-1.910975.948828-2.812305.000182-.156614.02921-.393337.06563-.526367.119618-.4369696 1.622958-4.1430538 2.358399-5.814649.163109-.3707349.296679-.713122.296679-.7615235 0-.048401-.150678-.2276076-.333594-.3978515-.182916-.1702442-.332226-.344831-.332226-.3882814 0-.04345.09408-.2752511.209179-.5154296l.20918-.4375h-1.736328-1.734961zm9.071289 12.8966795c-.02461.0803-.391273.959726-.869532 2.08086-2.278609 5.341524-2.716737 6.735841-2.727538 8.688476-.002.367549.02394.520421.113477.665821.115306.187236.114889.192635-.03008.883203-.08029.382461-.162941.971189-.184571 1.308398l-.03965.613867.265234.129883c.772453.376587.840821.422908.840821.57832v.151758h1.245508c.769088-.007477 1.386331-.627716 1.386331-1.398633zm-5.728516 10.565625c-.184691 0-.829181.31499-1.134766.555078-.285626.224408-.926413 1.045839-1.075976 1.379492-.08199.182917-.237268.563601-.345899.84629-.10863.282689-.307533.731986-.441601.998047-.134068.26606-.261175.544506-.283008.619335l-.03965.136719h1.748632 1.748633l.185938-.408789c.102254-.224488.216616-.529834.254297-.679492.03768-.149659.0806-.315189.0957-.367773.03076-.107054-.07317-.245126-.530469-.702735l-.314453-.314453.220117-.921484c.243927-1.023835.234604-1.140235-.0875-1.140235z" fill="#ff893c"/></g></svg>