/* XPM */
static char * veracrypt_xpm[] = {
"16 16 51 1",
" 	c None",
".	c #4D4D4D",
"+	c #0C8CB2",
"@	c #0198C4",
"#	c #1C7D99",
"$	c #1F9172",
"%	c #06B788",
"&	c #386D5F",
"*	c #24768F",
"=	c #0792BB",
"-	c #4C4E4E",
";	c #4C4D4D",
">	c #0CAE83",
",	c #0DAB81",
"'	c #3A606B",
")	c #3C5D66",
"!	c #3D6359",
"~	c #228F72",
"{	c #27866D",
"]	c #376F60",
"^	c #0793BB",
"/	c #267288",
"(	c #29826A",
"_	c #09B285",
":	c #4B504F",
"<	c #1C7E9B",
"[	c #1188AB",
"}	c #15A07B",
"|	c #1B9776",
"1	c #326776",
"2	c #0398C3",
"3	c #0BB48A",
"4	c #239175",
"5	c #485154",
"6	c #0397C2",
"7	c #0F9FC4",
"8	c #1FB89C",
"9	c #0CAD83",
"0	c #1485A6",
"a	c #21A6C4",
"b	c #32B9AC",
"c	c #25886E",
"d	c #2C7E68",
"e	c #396B5D",
"f	c #2A6F82",
"g	c #32AEC3",
"h	c #46B9BB",
"i	c #42595F",
"j	c #44B6C2",
"k	c #4DBAC2",
"l	c #11AD88",
"................",
"................",
"................",
"...+@#..$%%%%&..",
"...*@=-;>%%%,-..",
"...'@@)!%%~{]...",
"...-^@/(%_:.....",
"....<@[}%|......",
"....1@23%4......",
"....5678%9-.....",
".....0ab%%cde...",
".....fgh%%%%,-..",
".....ijkl%%%%&..",
"................",
"................",
"................"};
