/* XPM */
static char * veracrypt_xpm[] = {
"16 16 43 1",
" 	c None",
".	c #4D4D4D",
"+	c #326776",
"@	c #0198C4",
"#	c #42575E",
"$	c #435D56",
"%	c #06B788",
"&	c #14A17C",
"*	c #485154",
"=	c #0397C2",
"-	c #2C6E81",
";	c #2F7B67",
">	c #307764",
",	c #1485A6",
"'	c #1783A3",
")	c #1A9977",
"!	c #10A77F",
"~	c #27866D",
"{	c #495250",
"]	c #2A6F82",
"^	c #0395C0",
"/	c #475354",
"(	c #09B386",
"_	c #2B8069",
":	c #297B77",
"<	c #3E6259",
"[	c #0C8CB2",
"}	c #1FA098",
"|	c #465853",
"1	c #24768F",
"2	c #30AEB5",
"3	c #2F7966",
"4	c #3A606B",
"5	c #46B7C2",
"6	c #0EB88F",
"7	c #13A57E",
"8	c #2C7E68",
"9	c #4C4E4E",
"0	c #1199BC",
"a	c #4DBAC2",
"b	c #22B89F",
"c	c #2F95AA",
"d	c #31B3AB",
"................",
"................",
"................",
"...+@@#.$%%%%&..",
"...*=@-.;%%%%>..",
"....,@'.)%!~~{..",
"....]@^/(%_.....",
"....#@@:%%<.....",
".....[@}%%|.....",
".....1@2%%3.....",
".....4@56%788{..",
".....90ab%%%%>..",
"......cad%%%%&..",
"................",
"................",
"................"};
