/* XPM */
static char * wordview_xpm[] = {
"16 16 47 1",
" 	c None",
".	c #C0372F",
"+	c #C03630",
"@	c #BF3530",
"#	c #C03631",
"$	c #C1362F",
"%	c #C13631",
"&	c #C3403B",
"*	c #CC5C57",
"=	c #CD615C",
"-	c #C33F39",
";	c #C64A44",
">	c #E9B8B6",
",	c #FDF9F9",
"'	c #FFFFFF",
")	c #FEFCFC",
"!	c #E9B9B7",
"~	c #C74C47",
"{	c #C9524C",
"]	c #F9ECEC",
"^	c #EECAC9",
"/	c #C74B46",
"(	c #C74E48",
"_	c #EFCDCC",
":	c #F8E9E8",
"<	c #C9524D",
"[	c #F1D1D0",
"}	c #D67D79",
"|	c #D67C78",
"1	c #F0CECD",
"2	c #E7B1AF",
"3	c #D2706B",
"4	c #CD5E59",
"5	c #D3726E",
"6	c #E7B3B1",
"7	c #C33F3A",
"8	c #F8EAE9",
"9	c #D7807C",
"0	c #D88380",
"a	c #EFCBC9",
"b	c #C13933",
"c	c #D98683",
"d	c #FBF2F1",
"e	c #F1D4D2",
"f	c #DA8A86",
"g	c #C13832",
"h	c #C03730",
"     .++++@     ",
"   +++++++++@   ",
"  +++++++++++#  ",
" $++++++++++++% ",
" +++++&*=-+++++ ",
".+++;>,'')!~++++",
"+++{]'^/(_':<+++",
"+++[''=}|=''1+++",
"+++2''3445''6+++",
"+++7^'8908'a-+++",
"@+++bc[ddefg+++#",
" ++++++++++++++ ",
" @++++++++++++. ",
"  $++++++++++h  ",
"   %++++++++.   ",
"     +++++#     "};
