<svg xmlns="http://www.w3.org/2000/svg" width="16" height="16" version="1.1" viewBox="0 0 16 16">
 <defs>
  <style id="current-color-scheme" type="text/css">
   .ColorScheme-Text { color:#6e6e6e; } .ColorScheme-Highlight { color:#4285f4; } .ColorScheme-NeutralText { color:#ff9800; } .ColorScheme-PositiveText { color:#4caf50; } .ColorScheme-NegativeText { color:#f44336; }
  </style>
 </defs>
 <path style="fill:currentColor" class="ColorScheme-Text" d="M 8,-8.4999999e-8 A 8,8 0 0 0 -5.0000001e-8,7.9999999 8,8 0 0 0 8,16 8,8 0 0 0 16,7.9999999 8,8 0 0 0 8,-8.4999999e-8 Z M 9.544922,1.9101559 c 0,5.7268 4.390984,6.553607 3.271484,9.8164061 C 12.178206,13.586662 10.619203,15 7.908203,15 c -0.0086,0 -0.01729,4e-5 -0.02539,0 1.342,-0.0075 2.116214,-0.709746 2.433594,-1.634766 0.5598,-1.6314 -1.636718,-2.046656 -1.636718,-4.9101561 -2.0453,0.8181 -3.271485,2.7362971 -3.271485,4.0917971 0,1.171625 0.821556,2.147234 1.919922,2.390625 -2.433489,-0.290552 -4.3281261,-2.333992 -4.3281261,-4.845703 0,-2.7110001 2.4539221,-6.5456411 6.5449221,-8.1816411 z"/>
</svg>
