<svg xmlns="http://www.w3.org/2000/svg" width="24" height="24" version="1.1">
 <defs>
  <style id="current-color-scheme" type="text/css">
   .ColorScheme-Text { color:#444444; } .ColorScheme-Highlight { color:#4285f4; } .ColorScheme-NeutralText { color:#ff9800; } .ColorScheme-PositiveText { color:#4caf50; } .ColorScheme-NegativeText { color:#f44336; }
  </style>
 </defs>
 <path style="fill:currentColor" class="ColorScheme-Text" d="m 12,4 a 8,8 0 0 0 -8,8 8,8 0 0 0 8,8 8,8 0 0 0 2,-0.253906 V 17.65625 A 6,6 0 0 1 12,18 6,6 0 0 1 6,12 a 6,6 0 0 1 6,-6 6,6 0 0 1 6,6 6,6 0 0 1 -0.08594,1.009766 C 17.943328,13.008894 17.970522,13 18,13 c 0.693453,0 1.320753,0.252696 1.826172,0.65625 A 8,8 0 0 0 20,12 8,8 0 0 0 12,4 Z M 10.667969,7 C 10.298635,7 10,7.2469097 10,7.5546875 V 9.806641 c 0,0 1,0.529483 1,0.886718 0,0.357232 -1,0.886719 -1,0.886719 v 4.865234 C 10,16.753092 10.298634,17 10.667969,17 h 2.664062 C 13.701365,17 14,16.753107 14,16.445312 V 16 14.201172 l -0.0078,-0.0098 c -5e-6,0 -0.992064,-0.549291 -0.992188,-0.921875 -1.2e-4,-0.372934 0.992186,-0.925781 0.992188,-0.925781 L 14,12.335938 V 7.5546875 C 14,7.2469097 13.701365,7 13.332031,7 Z M 18,14 c -1.108,0 -2,0.9109 -2,2.03125 V 17 h -1 v 4 h 6 V 17 H 20 V 16.03125 C 20,14.91135 19.108,14 18,14 Z m 0,1 c 0.554,0 1,0.4424 1,1 v 1 h -2 v -1 c 0,-0.5576 0.446,-1 1,-1 z"/>
</svg>
