<?xml version="1.0"?>
<svg xmlns="http://www.w3.org/2000/svg" id="svg2" fill-rule="evenodd" xml:space="preserve" viewBox="0 0 1771.65 1771.65" width="24" version="1.1" clip-rule="evenodd" height="24">
 <defs id="defs10">
  <style type="text/css" id="current-color-scheme">
   .ColorScheme-Text { color:#5c616c; } .ColorScheme-Highlight { color:#5294e2; } .ColorScheme-ButtonBackground { color:#5c616c; }
  </style>
 </defs>
 <g id="g4137" transform="translate(73.819 73.819)">
  <path id="path4142" style="fill:currentColor" d="m8.5762 3 3.9746 7h5.4395l-3.99-7h-5.4238z" transform="scale(73.819)" class="ColorScheme-Text"/>
  <path id="path4140" style="fill:currentColor" d="m569.35 258.94-421.71 744.96 200.4 360.9 424.89-747.58-203.58-358.28z" class="ColorScheme-Text"/>
  <path id="path4136" style="fill:currentColor" d="m8.3809 14.064-2.8047 4.936h3.4238 1v-4.9355h-1-0.61914z" transform="scale(73.819)" class="ColorScheme-Text"/>
  <path id="path4138" style="fill:currentColor" d="m1367.9 1015c-16.176-28.018-36.846-51.848-60.654-71.03-23.775-19.169-50.792-33.676-79.272-43.3-14.295-4.8303-28.927-8.5118-43.862-10.803-44.69-6.8555-91.404-2.1281-135.31 15.356l40.946 70.921 15.138 26.221c63.49-17.885 132.44 7.9399 167.12 67.999 20.573 35.634 24.27 75.611 14.34 111.92l-91.778-24.592 67.908 117.62 42.821 74.167 191.79-110.73-104.97-28.128c4.3715-15.99 7.1894-32.253 8.4381-48.823 1.2049-15.986 1.1312-32.122-0.6975-48.21-0.061-0.5346-0.032-1.0746-0.097-1.609-0.023-0.1948-0.1412-0.3771-0.1636-0.5716-1.6449-13.437-4.6825-26.64-8.5289-39.859-1.0298-3.6222-1.5826-7.284-2.7845-10.878-5.2889-15.545-11.855-30.913-20.376-45.672zm-384.9-76.114-191.79 110.73 104.97 28.128c-4.3461 15.899-7.1268 32.152-8.3854 48.626l-0.0527 0.1969 0.0722 0.1248c-1.1952 15.901-1.1278 31.884 0.67822 47.888 0.0841 0.7969 0.11559 1.5807 0.20728 2.3775 1.779 14.537 4.882 28.84 9.2408 43.111 0.67619 2.2602 1.0215 4.5565 1.765 6.8056 5.327 15.836 12.008 31.468 20.683 46.493 8.0735 13.984 17.371 26.893 27.516 38.72l0.0722 0.1248c20.334 23.679 44.467 42.938 70.948 57.429 13.266 7.2469 27.125 13.243 41.39 18.056 28.553 9.6482 58.613 14.375 88.994 13.714l0.1248-0.072c15.173-0.3228 30.356-1.8976 45.437-4.9235 15.084-3.0344 29.978-7.4429 44.613-13.271l-40.946-70.921-15.139-26.221c-63.498 17.904-132.44-7.9294-167.12-67.999-20.577-35.64-24.268-75.613-14.34-111.92l91.779 24.592-52.769-91.398-15.139-26.221-42.821-74.167z" class="ColorScheme-Text"/>
 </g>
</svg>
