<svg xmlns="http://www.w3.org/2000/svg" width="16" height="16" version="1.1">
 <g style="fill:#dfdfdf" transform="translate(-8.5227273e-6)">
  <path style="fill:#dfdfdf" d="M 8.5254,0.13284 8.4961,0.16213 C 8.0959,0.56226 7.8721,1.0932 7.8691,1.6563 7.8663,2.1787 8.0531,2.672 8.3965,3.0566 L 5.0566,6.3965 C 4.672,6.0531 4.1787,5.8683 3.6562,5.8711 3.0932,5.8741 2.5622,6.0959 2.1621,6.4961 L 2.1328,6.5254 C 1.9575,6.7006 1.9554,6.9848 2.1289,7.1582 L 4.7187,9.7461 0.39257,14.074 0,16 1.9258,15.607 6.2539,11.281 8.8418,13.871 C 8.9285,13.958 9.044,14.001 9.1582,14 9.2724,13.999 9.3871,13.955 9.4746,13.867 l 0.0293,-0.029 c 0.4002,-0.4 0.6221,-0.931 0.6251,-1.494 0.003,-0.523 -0.1842,-1.016 -0.5274,-1.401 L 12.943,7.6016 c 0.385,0.3432 0.878,0.5301 1.401,0.5273 0.563,-0.003 1.094,-0.2248 1.494,-0.625 L 15.867,7.4746 C 15.955,7.3871 15.999,7.2724 16,7.1582 16.001,7.044 15.958,6.9285 15.871,6.8418 L 9.1582,0.12893 C 9.0715,0.04219 8.9561,0 8.8418,0 8.7275,0 8.613,0.04517 8.5254,0.13284 Z"/>
 </g>
</svg>
