<?xml version="1.0" encoding="UTF-8" standalone="no"?>
<svg xmlns="http://www.w3.org/2000/svg" height="24" width="24" version="1">
 <path d="M 12,2 H 3 C 2.446,2 2,2.446 2,3 v 9 h 10 z" style="fill:#14ddb1;fill-opacity:1;stroke-width:0.5"/>
 <path d="m 12,2 h 9 c 0.554,0 1,0.446 1,1 v 9 H 12 Z" style="fill:#f7c73c;fill-opacity:1;stroke-width:0.5"/>
 <path d="M 12,22 H 3 C 2.446,22 2,21.554 2,21 v -9 h 10 z" style="fill:#2086e7;fill-opacity:1;stroke-width:0.5"/>
 <path d="m 12,22 h 9 c 0.554,0 1,-0.446 1,-1 V 12 H 12 Z" style="fill:#14ddb1;fill-opacity:1;stroke-width:0.5"/>
 <path style="opacity:0.2;fill:#ffffff;stroke-width:0.5" d="M 3,2 C 2.446,2 2,2.446 2,3 v 0.5 c 0,-0.554 0.446,-1 1,-1 h 18 c 0.554,0 1,0.446 1,1 V 3 C 22,2.446 21.554,2 21,2 Z"/>
 <path style="opacity:0.2;stroke-width:0.5" d="m 3,22.5 c -0.554,0 -1,-0.446 -1,-1 V 21 c 0,0.554 0.446,1 1,1 h 18 c 0.554,0 1,-0.446 1,-1 v 0.5 c 0,0.554 -0.446,1 -1,1 z"/>
 <rect height="14" width="14" y="5" x="5" style="fill:#3f3f3f;fill-opacity:1;stroke-width:0.34999999"/>
 <path d="M 7.5071212,15.99995 H 11.507121" style="opacity:0.2;fill:none;stroke:#000000;stroke-linecap:round;stroke-opacity:1"/>
 <path style="fill:none;stroke:#ffffff;stroke-linecap:round;stroke-opacity:1" d="M 7.5071212,15.5 H 11.507121"/>
 <path d="m 11.50712,7.99995 -1e-6,3.000001 c 0,0.757339 -0.521974,1.012399 -0.999999,1 -0.44798,0.0018 -1.0000008,-0.233131 -1.0000008,-1 l 2e-6,-3.000001 m -2e-6,0 -2e-6,3.000001 c 0,0.757339 -0.5219735,1.012399 -0.9999985,1 -0.44798,0.0018 -1.000001,-0.233131 -1.000001,-1 l 2e-6,-3.000001" style="opacity:0.2;fill:none;stroke:#000000;stroke-width:0.99999994;stroke-linecap:round;stroke-linejoin:bevel;stroke-opacity:1"/>
 <path style="fill:none;stroke:#ffffff;stroke-width:0.99999994;stroke-linecap:round;stroke-linejoin:bevel;stroke-opacity:1" d="m 11.50712,7.5 -1e-6,3.000001 c 0,0.757339 -0.521974,1.012399 -0.999999,1 -0.44798,0.0018 -1.0000008,-0.233131 -1.0000008,-1 L 9.5071212,7.5 m -2e-6,0 -2e-6,3.000001 c 0,0.757339 -0.5219735,1.012399 -0.9999985,1 -0.44798,0.0018 -1.000001,-0.233131 -1.000001,-1 L 7.5071197,7.5"/>
 <path style="opacity:0.2;fill:none;stroke:#000000;stroke-width:0.99999994;stroke-linecap:round;stroke-linejoin:round;stroke-opacity:1" d="m 13.507179,11.49995 c 0,0 0.252193,0.500483 1,0.500241 0.747806,-2.4e-4 0.999999,-0.500241 0.999999,-1.00024 0,-2.107193 -1.999999,0.105581 -1.994009,-1.995353 -0.0061,-0.504648 0.235934,-1.0046475 0.99401,-1.0046475 0.758075,0 0.999942,0.4999995 0.999942,0.4999995"/>
 <path d="m 13.507179,11 c 0,0 0.252193,0.500483 1,0.500241 0.747806,-2.4e-4 0.999999,-0.500241 0.999999,-1.00024 0,-2.107193 -1.999999,0.105581 -1.994009,-1.995353 C 13.507119,8 13.749103,7.5000005 14.507179,7.5000005 15.265254,7.5000005 15.507121,8 15.507121,8" style="fill:none;stroke:#ffffff;stroke-width:0.99999994;stroke-linecap:round;stroke-linejoin:round;stroke-opacity:1"/>
</svg>
