<?xml version="1.0" encoding="UTF-8" standalone="no"?>
<!--Created with Inkscape (http://www.inkscape.org/)-->
<svg id="svg4355" xmlns:rdf="http://www.w3.org/1999/02/22-rdf-syntax-ns#" xmlns="http://www.w3.org/2000/svg" height="22" width="22" version="1.1" xmlns:cc="http://creativecommons.org/ns#" xmlns:dc="http://purl.org/dc/elements/1.1/">
 <defs id="defs4357">
 </defs>
 <metadata id="metadata4360">
  <rdf:RDF>
   <cc:Work rdf:about="">
    <dc:format>image/svg+xml</dc:format>
    <dc:type rdf:resource="http://purl.org/dc/dcmitype/StillImage"/>
    <dc:title/>
   </cc:Work>
  </rdf:RDF>
 </metadata>
 <g id="layer1" transform="translate(-544.57 -742.93)">
  <path id="rect4148" opacity="1" fill="#5c616c" transform="translate(544.57 742.93)" d="m10.5 3v1.8125h1v-1.8125h-1zm-4.8125 1.9688l-0.7187 0.7187 1.2812 1.3125 0.7188-0.75-1.2813-1.2812zm10.624 0l-1.281 1.2812 0.719 0.75 1.281-1.3125-0.719-0.7187zm-5.312 1.0312c-2.7614 0-5 2.2386-5 5 0 2.761 2.2386 5 5 5 2.761 0 5-2.239 5-5 0-2.7614-2.239-5-5-5zm-8 4.5v1h1.8125v-1h-1.8125zm14.188 0v1h1.812v-1h-1.812zm-10.938 4.531l-1.2812 1.281 0.7187 0.719 1.2813-1.281-0.7188-0.719zm9.5 0l-0.719 0.719 1.281 1.281 0.719-0.719-1.281-1.281zm-5.25 2.157v1.812h1v-1.812h-1z"/>
 </g>
</svg>
