<svg width="22" height="22" version="1.1" xmlns="http://www.w3.org/2000/svg">
 <defs>
  <style id="current-color-scheme" type="text/css">.ColorScheme-Text { color:#444444; } .ColorScheme-Highlight { color:#4285f4; } .ColorScheme-NeutralText { color:#ff9800; } .ColorScheme-PositiveText { color:#4caf50; } .ColorScheme-NegativeText { color:#f44336; }</style>
 </defs>
 <path d="m10 3.0000965v7.5859375l0.292969-0.292969c0.39053-0.3903675 1.023532-0.3903675 1.414062 0l0.292969 0.292969v-7.5859375zm1 7.9999995a1.0001 1.0001 0 0 0-0.707031 0.292969l-3 3a1.0001 1.0001 0 0 0 0 1.414062l3 3a1.0001 1.0001 0 0 0 1.414062 0l3-3a1.0001 1.0001 0 0 0 0-1.414062l-3-3a1.0001 1.0001 0 0 0-0.707031-0.292969zm0 2.414062 1.585938 1.585938-1.585938 1.585938-1.5859373-1.585938z" style="fill:currentColor" class="ColorScheme-Text"/>
</svg>
