<?xml version="1.0" encoding="UTF-8" standalone="no"?>
<!--Created with Inkscape (http://www.inkscape.org/)-->
<svg id="svg7384" xmlns:rdf="http://www.w3.org/1999/02/22-rdf-syntax-ns#" style="enable-background:new" xmlns="http://www.w3.org/2000/svg" height="22" width="22" version="1.1" xmlns:cc="http://creativecommons.org/ns#" xmlns:dc="http://purl.org/dc/elements/1.1/">
 <metadata id="metadata90">
  <rdf:RDF>
   <cc:Work rdf:about="">
    <dc:format>image/svg+xml</dc:format>
    <dc:type rdf:resource="http://purl.org/dc/dcmitype/StillImage"/>
   </cc:Work>
  </rdf:RDF>
 </metadata>
 <defs id="defs7386">
 </defs>
 <g id="layer12" transform="translate(-525 105.01)">
  <path id="path4247" opacity="1" style="color:#000000;text-indent:0;block-progression:tb;text-decoration-line:none;enable-background:accumulate;text-transform:none" d="m529.84-100.01c-0.28125 0.0469-0.84375 0.25-0.84375 1v11s0 1 1 1h8.6719v-1.6816c-0.39787 0.31542-0.96894 0.28266-1.3281-0.07617l-0.70703-0.70703c-0.39037-0.39053-0.39037-1.0235 0-1.4141l0.94922-0.94922 1.8789-1.8789c0.18415-0.18422 0.43291-0.28933 0.69336-0.29297 0.26993-0.0036 0.52986 0.10205 0.72071 0.29297l1.8789 1.8789 0.24219 0.24219v-5.4141c0-1-1-1-1-1h-5l-2-2h-5s-0.0625-0.0156-0.15625 0zm10.328 7-1.8789 1.8789-0.94922 0.94922 0.70703 0.70703 0.94922-0.94922 0.67188-0.67188v4.0859h1v-4.0859l0.67187 0.67188 0.94922 0.94922 0.70703-0.70703-0.94922-0.94922-1.8789-1.8789z"/>
  <rect id="rect4035" style="color:#4d4d4d" class="ColorScheme-Text" transform="scale(-1,1)" height="11" width="0" y="-84.076" x="-571.67" fill="currentColor"/>
  <rect id="rect4035-5" style="color:#4d4d4d" class="ColorScheme-Text" transform="scale(-1,1)" height="11" width="0" y="-86.127" x="-553.63" fill="currentColor"/>
  <rect id="rect4035-8" style="color:#4d4d4d" class="ColorScheme-Text" transform="scale(-1,1)" height="11" width="0" y="-84.076" x="-571.67" fill="currentColor"/>
  <rect id="rect4035-59" style="color:#4d4d4d" class="ColorScheme-Text" transform="scale(-1,1)" height="11" width="0" y="-84.076" x="-571.67" fill="currentColor"/>
  <rect id="rect4035-9" style="color:#4d4d4d" class="ColorScheme-Text" transform="scale(-1,1)" height="11" width="0" y="-84.076" x="-571.67" fill="currentColor"/>
  <rect id="rect4035-5-7" style="color:#4d4d4d" class="ColorScheme-Text" transform="scale(-1,1)" height="11" width="0" y="-86.127" x="-553.63" fill="currentColor"/>
  <rect id="rect4035-9-0" style="color:#4d4d4d" class="ColorScheme-Text" transform="scale(-1,1)" height="11" width="0" y="-84.076" x="-591.67" fill="currentColor"/>
  <rect id="rect4035-5-7-5" style="color:#4d4d4d" class="ColorScheme-Text" transform="scale(-1,1)" height="11" width="0" y="-86.127" x="-573.63" fill="currentColor"/>
  <rect id="rect4035-3" style="color:#4d4d4d" class="ColorScheme-Text" transform="scale(-1,1)" height="11" width="0" y="-84.076" x="-571.67" fill="currentColor"/>
  <rect id="rect4035-5-4" style="color:#4d4d4d" class="ColorScheme-Text" transform="scale(-1,1)" height="11" width="0" y="-86.127" x="-553.63" fill="currentColor"/>
  <rect id="rect4035-8-7" style="color:#4d4d4d" class="ColorScheme-Text" transform="scale(-1,1)" height="11" width="0" y="-84.076" x="-571.67" fill="currentColor"/>
  <rect id="rect4035-59-1" style="color:#4d4d4d" class="ColorScheme-Text" transform="scale(-1,1)" height="11" width="0" y="-84.076" x="-571.67" fill="currentColor"/>
  <rect id="rect4035-9-08" style="color:#4d4d4d" class="ColorScheme-Text" transform="scale(-1,1)" height="11" width="0" y="-84.076" x="-571.67" fill="currentColor"/>
  <rect id="rect4035-5-7-8" style="color:#4d4d4d" class="ColorScheme-Text" transform="scale(-1,1)" height="11" width="0" y="-86.127" x="-553.63" fill="currentColor"/>
  <rect id="rect4035-9-0-2" style="color:#4d4d4d" class="ColorScheme-Text" transform="scale(-1,1)" height="11" width="0" y="-84.076" x="-591.67" fill="currentColor"/>
  <rect id="rect4035-5-7-5-2" style="color:#4d4d4d" class="ColorScheme-Text" transform="scale(-1,1)" height="11" width="0" y="-86.127" x="-573.63" fill="currentColor"/>
  <rect id="rect4035-2" style="color:#4d4d4d" class="ColorScheme-Text" transform="scale(-1,1)" height="11" width="0" y="-82.101" x="-575.9" fill="currentColor"/>
  <rect id="rect4035-5-0" style="color:#4d4d4d" class="ColorScheme-Text" transform="scale(-1,1)" height="11" width="0" y="-84.152" x="-557.86" fill="currentColor"/>
  <rect id="rect4035-8-1" style="color:#4d4d4d" class="ColorScheme-Text" transform="scale(-1,1)" height="11" width="0" y="-82.101" x="-575.9" fill="currentColor"/>
  <rect id="rect4035-59-7" style="color:#4d4d4d" class="ColorScheme-Text" transform="scale(-1,1)" height="11" width="0" y="-82.101" x="-575.9" fill="currentColor"/>
  <rect id="rect4035-9-9" style="color:#4d4d4d" class="ColorScheme-Text" transform="scale(-1,1)" height="11" width="0" y="-82.101" x="-575.9" fill="currentColor"/>
  <rect id="rect4035-5-7-9" style="color:#4d4d4d" class="ColorScheme-Text" transform="scale(-1,1)" height="11" width="0" y="-84.152" x="-557.86" fill="currentColor"/>
  <rect id="rect4035-9-0-5" style="color:#4d4d4d" class="ColorScheme-Text" transform="scale(-1,1)" height="11" width="0" y="-82.101" x="-595.9" fill="currentColor"/>
  <rect id="rect4035-5-7-5-3" style="color:#4d4d4d" class="ColorScheme-Text" transform="scale(-1,1)" height="11" width="0" y="-84.152" x="-577.86" fill="currentColor"/>
 </g>
</svg>
