<?xml version="1.0" encoding="UTF-8" standalone="no"?>
<!-- Created with Inkscape (http://www.inkscape.org/) -->
<svg id="svg3049" xmlns:rdf="http://www.w3.org/1999/02/22-rdf-syntax-ns#" xmlns="http://www.w3.org/2000/svg" height="22" width="22" version="1.1" xmlns:cc="http://creativecommons.org/ns#" xmlns:dc="http://purl.org/dc/elements/1.1/">
 <defs id="defs3051">
  <style id="current-color-scheme" type="text/css">.ColorScheme-Text {
        color:#4d4d4d;
      }
      .ColorScheme-Background {
        color:#eff0f1;
      }
      .ColorScheme-Highlight {
        color:#3daee9;
      }
      .ColorScheme-ViewText {
        color:#31363b;
      }
      .ColorScheme-ViewBackground {
        color:#fcfcfc;
      }
      .ColorScheme-ViewHover {
        color:#93cee9;
      }
      .ColorScheme-ViewFocus{
        color:#3daee9;
      }
      .ColorScheme-ButtonText {
        color:#31363b;
      }
      .ColorScheme-ButtonBackground {
        color:#eff0f1;
      }
      .ColorScheme-ButtonHover {
        color:#93cee9;
      }
      .ColorScheme-ButtonFocus{
        color:#3daee9;
      }</style>
 </defs>
 <metadata id="metadata3054">
  <rdf:RDF>
   <cc:Work rdf:about="">
    <dc:format>image/svg+xml</dc:format>
    <dc:type rdf:resource="http://purl.org/dc/dcmitype/StillImage"/>
    <dc:title/>
   </cc:Work>
  </rdf:RDF>
 </metadata>
 <g id="layer1" transform="translate(-421.71 -525.79)">
  <path id="path4139" opacity=".5" style="color:#4d4d4d" d="m432.71 530.79a6 6 0 0 0 -0.86719 0.0703 6 6 0 0 0 -0.55859 0.10937 6 6 0 0 0 -0.0996 0.0215c-0.0256 0.007-0.0509 0.0141-0.0762 0.0215a6 6 0 0 0 -0.39649 0.12695 6 6 0 0 0 -0.14453 0.0488c-0.0337 0.0129-0.0667 0.0268-0.0996 0.041a6 6 0 0 0 -0.28125 0.125 6 6 0 0 0 -0.18164 0.082c-0.024 0.0121-0.0471 0.0258-0.0703 0.0391a6 6 0 0 0 -0.28906 0.16406 6 6 0 0 0 -0.17774 0.10156 6 6 0 0 0 -0.0762 0.0547 6 6 0 0 0 -0.24219 0.17187 6 6 0 0 0 -0.16992 0.12305 6 6 0 0 0 -0.0625 0.0547 6 6 0 0 0 -0.26172 0.23242c-0.0512 0.045-0.10366 0.0888-0.15234 0.13672a6 6 0 0 0 -0.0332 0.0352 6 6 0 0 0 -0.28321 0.31054c-0.0358 0.0397-0.0734 0.0778-0.10742 0.11914a6 6 0 0 0 -0.0117 0.0156 6 6 0 0 0 -1.3574 3.7949 6 6 0 0 0 6 6 6 6 0 0 0 6 -6 6 6 0 0 0 -0.44141 -2.2422 6 6 0 0 0 -5.5586 -3.7578zm0 1a5 5 0 0 1 2.6465 0.76563l-1.5879 2.541c0.51946 0.32485 0.87029 0.88127 0.92383 1.5273l2.998-0.25a5 5 0 0 1 0.0195 0.41602 5 5 0 0 1 -5 5v-1.5-1.5c-0.554 0-1.0545-0.22248-1.416-0.58398l-2.1172 2.1172a5 5 0 0 1 -1.4668 -3.5332 5 5 0 0 1 1.0996 -3.1211l2.3438 1.875c0.36593-0.45681 0.92316-0.75391 1.5566-0.75391v-0.5-2-0.5zm-3.4356 8.625c0.18126 0.17175 0.37257 0.3334 0.57813 0.47655a5 5 0 0 1 -0.57813 -0.47655zm0.73438 0.57617c0.2137 0.13731 0.43731 0.26127 0.67187 0.36524a5 5 0 0 1 -0.67187 -0.36524zm0.83008 0.43164c0.26481 0.10654 0.5389 0.1935 0.82421 0.25391a5 5 0 0 1 -0.82421 -0.25391z" class="ColorScheme-Text"/>
 </g>
</svg>
