<svg xmlns="http://www.w3.org/2000/svg" width="22" height="22" version="1.1">
 <defs>
  <style id="current-color-scheme" type="text/css">
   .ColorScheme-Text { color:#444444; } .ColorScheme-Highlight { color:#4285f4; } .ColorScheme-NeutralText { color:#ff9800; } .ColorScheme-PositiveText { color:#4caf50; } .ColorScheme-NegativeText { color:#f44336; }
  </style>
 </defs>
 <g transform="translate(3,3)">
  <path style="fill:currentColor" class="ColorScheme-Text" d="M 10.973 5 A 5.5 5.5 0 0 1 11 5.5 A 5.5 5.5 0 0 1 5.5 11 A 5.5 5.5 0 0 1 5 10.975 L 5 15 L 15 15 L 15 5 L 10.973 5 z"/>
  <path style="opacity:0.3;fill:currentColor" class="ColorScheme-Text" d="M 11,5.5 A 5.5,5.5 0 0 1 5.5,11 5.5,5.5 0 0 1 0,5.5 5.5,5.5 0 0 1 5.5,0 5.5,5.5 0 0 1 11,5.5 Z"/>
 </g>
</svg>
