<svg xmlns="http://www.w3.org/2000/svg" width="22" height="22" viewBox="0 0 22 22">
 <defs>
  <style id="current-color-scheme" type="text/css">
   .ColorScheme-Text { color:#444444; } .ColorScheme-Highlight { color:#4285f4; } .ColorScheme-NeutralText { color:#ff9800; } .ColorScheme-PositiveText { color:#4caf50; } .ColorScheme-NegativeText { color:#f44336; }
  </style>
 </defs>
 <path style="fill:currentColor" class="ColorScheme-NegativeText error" d="M 7 1 L 7 2.0859375 C 6.10944 2.2386175 5.2648969 2.5904744 4.5292969 3.1152344 L 3.7578125 2.34375 L 2.34375 3.7578125 L 3.1132812 4.5273438 C 2.5903313 5.2640038 2.2404537 6.1092 2.0898438 7 L 1 7 L 1 9 L 2.0859375 9 C 2.2386175 9.89056 2.5904744 10.735103 3.1152344 11.470703 L 2.34375 12.242188 L 3.7578125 13.65625 L 4.5273438 12.886719 C 5.2640037 13.409669 6.1092 13.759546 7 13.910156 L 7 15 L 9 15 L 9 13.914062 C 9.89056 13.761382 10.735103 13.409526 11.470703 12.884766 L 12.242188 13.65625 L 13.65625 12.242188 L 12.886719 11.472656 C 13.409669 10.735996 13.759546 9.8908 13.910156 9 L 15 9 L 15 7 L 13.914062 7 C 13.761383 6.10944 13.409526 5.2648969 12.884766 4.5292969 L 13.65625 3.7578125 L 12.242188 2.34375 L 11.472656 3.1132812 C 10.735996 2.5903312 9.8908 2.2404538 9 2.0898438 L 9 1 L 7 1 z M 7 4.3359375 L 9 4.3359375 L 9 7.8359375 L 9.4140625 7.421875 L 10.828125 8.8359375 L 9.4140625 10.25 L 8 11.664062 L 6.5859375 10.25 L 5.171875 8.8359375 L 6.5859375 7.421875 L 7 7.8359375 L 7 4.3359375 z" transform="translate(3 3)"/>
</svg>
