<?xml version="1.0" encoding="UTF-8" standalone="no"?>
<!--Created with Inkscape (http://www.inkscape.org/)-->
<svg id="svg7384" xmlns:rdf="http://www.w3.org/1999/02/22-rdf-syntax-ns#" style="enable-background:new" xmlns="http://www.w3.org/2000/svg" height="22" width="22" version="1.1" xmlns:cc="http://creativecommons.org/ns#" xmlns:dc="http://purl.org/dc/elements/1.1/">
 <metadata id="metadata90">
  <rdf:RDF>
   <cc:Work rdf:about="">
    <dc:format>image/svg+xml</dc:format>
    <dc:type rdf:resource="http://purl.org/dc/dcmitype/StillImage"/>
   </cc:Work>
  </rdf:RDF>
 </metadata>
 <defs id="defs7386">
 </defs>
 <g id="layer12" transform="translate(-505 -14.997)">
  <path id="path4538" opacity=".5" d="m508 18.997v13.996c3-0.0011 6 0.000243 9 0.002v-6.0001h6v0.002h1v-7.9961c-5.3333 0.002-10.667-0.0059-16-0.0039zm9 2h6v1h-6v-1zm-5.5 1c0.831 0 1.5 0.66732 1.5 1.498v1.5h1v3h-5v-3h1v-1.5c0-0.83073 0.669-1.498 1.5-1.498zm0 0.99805c-0.277 0-0.5 0.22309-0.5 0.5v1.5h1v-1.5c0-0.27691-0.223-0.5-0.5-0.5zm5.5 1h6v1h-6v-1zm4 4.002-3 2.5 3 2.5v-1h3v-3h-3v-1z"/>
 </g>
</svg>
