<svg xmlns="http://www.w3.org/2000/svg" viewBox="0 0 22 22">
  <defs id="defs3051">
    <style type="text/css" id="current-color-scheme">
      .ColorScheme-Text {
        color:#bebebe;
      }
      </style>
  </defs>
 <path 
     style="fill:currentColor;fill-opacity:1;stroke:none" 
     class="ColorScheme-Text"
     d="M 4.25,6 C 4.1115,6 4,6.1115 4,6.25 l 0,1.5 C 4,7.8885 4.1115,8 4.25,8 l 1.5,0 C 5.8885,8 6,7.8885 6,7.75 L 6,6.25 C 6,6.1115 5.8885,6 5.75,6 l -1.5,0 z m 4,0 C 8.1115,6 8,6.1115 8,6.25 l 0,1.5 C 8,7.8885 8.1115,8 8.25,8 l 1.5,0 C 9.8885,8 10,7.8885 10,7.75 l 0,-1.5 C 10,6.1115 9.8885,6 9.75,6 l -1.5,0 z m 4,0 C 12.1115,6 12,6.1115 12,6.25 l 0,1.5 C 12,7.8885 12.1115,8 12.25,8 l 1.5,0 C 13.8885,8 14,7.8885 14,7.75 l 0,-1.5 C 14,6.1115 13.8885,6 13.75,6 l -1.5,0 z m 4,0 C 16.1115,6 16,6.1115 16,6.25 l 0,1.5 C 16,7.8885 16.1115,8 16.25,8 l 1.5,0 C 17.8885,8 18,7.8885 18,7.75 l 0,-1.5 C 18,6.1115 17.8885,6 17.75,6 l -1.5,0 z m -12,4 C 4.1115,10 4,10.1115 4,10.25 l 0,1.5 C 4,11.8885 4.1115,12 4.25,12 l 1.5,0 C 5.8885,12 6,11.8885 6,11.75 l 0,-1.5 C 6,10.1115 5.8885,10 5.75,10 l -1.5,0 z m 4,0 C 8.1115,10 8,10.1115 8,10.25 l 0,1.5 C 8,11.8885 8.1115,12 8.25,12 l 1.5,0 C 9.8885,12 10,11.8885 10,11.75 l 0,-1.5 C 10,10.1115 9.8885,10 9.75,10 l -1.5,0 z m 4,0 C 12.1115,10 12,10.1115 12,10.25 l 0,1.5 c 0,0.1385 0.1115,0.25 0.25,0.25 l 1.5,0 C 13.8885,12 14,11.8885 14,11.75 l 0,-1.5 C 14,10.1115 13.8885,10 13.75,10 l -1.5,0 z m 4,0 C 16.1115,10 16,10.1115 16,10.25 l 0,1.5 c 0,0.1385 0.1115,0.25 0.25,0.25 l 1.5,0 C 17.8885,12 18,11.8885 18,11.75 l 0,-1.5 C 18,10.1115 17.8885,10 17.75,10 l -1.5,0 z m -12,4 C 4.1115,14 4,14.1115 4,14.25 l 0,1.5 C 4,15.8885 4.1115,16 4.25,16 l 1.5,0 C 5.8885,16 6,15.8885 6,15.75 l 0,-1.5 C 6,14.1115 5.8885,14 5.75,14 l -1.5,0 z m 4,0 C 8.1115,14 8,14.1115 8,14.25 l 0,1.5 C 8,15.8885 8.1115,16 8.25,16 l 1.5,0 C 9.8885,16 10,15.8885 10,15.75 l 0,-1.5 C 10,14.1115 9.8885,14 9.75,14 l -1.5,0 z m 4,0 C 12.1115,14 12,14.1115 12,14.25 l 0,1.5 c 0,0.1385 0.1115,0.25 0.25,0.25 l 1.5,0 C 13.8885,16 14,15.8885 14,15.75 l 0,-1.5 C 14,14.1115 13.8885,14 13.75,14 l -1.5,0 z m 4,0 C 16.1115,14 16,14.1115 16,14.25 l 0,1.5 c 0,0.1385 0.1115,0.25 0.25,0.25 l 1.5,0 C 17.8885,16 18,15.8885 18,15.75 l 0,-1.5 C 18,14.1115 17.8885,14 17.75,14 l -1.5,0 z"
     />
</svg>
