<?xml version="1.0" encoding="UTF-8" standalone="no"?>
<!-- Created with Inkscape (http://www.inkscape.org/) -->
<svg id="svg7384" xmlns:rdf="http://www.w3.org/1999/02/22-rdf-syntax-ns#" style="enable-background:new" xmlns="http://www.w3.org/2000/svg" xmlns:osb="http://www.openswatchbook.org/uri/2009/osb" height="22" width="22" version="1.1" xmlns:cc="http://creativecommons.org/ns#" xmlns:dc="http://purl.org/dc/elements/1.1/">
 <metadata id="metadata90">
  <rdf:RDF>
   <cc:Work rdf:about="">
    <dc:format>image/svg+xml</dc:format>
    <dc:type rdf:resource="http://purl.org/dc/dcmitype/StillImage"/>
    <dc:title>Paper Symbolic Icon Theme</dc:title>
   </cc:Work>
  </rdf:RDF>
 </metadata>
 <title id="title8473">Paper Symbolic Icon Theme</title>
 <defs id="defs7386">
  <filter id="filter7554" style="color-interpolation-filters:sRGB">
   <feBlend id="feBlend7556" in2="BackgroundImage" mode="darken"/>
  </filter>
 </defs>
 <g id="g6058" transform="translate(-424 -509)">
  <g id="g4149" opacity=".5" transform="translate(3 2.9966)">
   <path id="path6174-9" style="color:#000000;text-indent:0;block-progression:tb;text-decoration-line:none;enable-background:accumulate;text-transform:none" d="m435 512.95c-0.38828 0-0.75331 0.0893-1.084 0.23828 0.0546 0.26205 0.084 0.53308 0.084 0.81054 0 1.1021-0.45422 2.1042-1.1836 2.8301 0.46 0.7 1.26 1.17 2.18 1.17 1.4327 0 2.5938-1.1303 2.5938-2.5254s-1.1611-2.5273-2.5938-2.5273zm0 6.05c-0.1961 0-0.37171 0.0126-0.55273 0.0215 0.69756 0.39966 1.2291 0.87712 1.6035 1.377 0.94 1.26 0.95 2.6 0.95 2.6h3v-1s0-3-5-3z"/>
   <path id="path6174-8-0" style="color:#000000;text-indent:0;block-progression:tb;text-decoration-line:none;enable-background:accumulate;text-transform:none" d="m430 511c1.6569 0 3 1.3432 3 3s-1.3431 3-3 3-3-1.3432-3-3 1.3431-3 3-3zm0 8c6-0.01 6 4 6 4v1h-12v-1s0-4 6.0002-4.0034z"/>
  </g>
 </g>
</svg>
