<?xml version="1.0" encoding="UTF-8" standalone="no"?>
<!-- Created with Inkscape (http://www.inkscape.org/) -->
<svg id="svg2" xmlns:rdf="http://www.w3.org/1999/02/22-rdf-syntax-ns#" xmlns="http://www.w3.org/2000/svg" height="16" viewBox="0 0 16 16" width="16" version="1.1" xmlns:cc="http://creativecommons.org/ns#" xmlns:dc="http://purl.org/dc/elements/1.1/">
 <metadata id="metadata7">
  <rdf:RDF>
   <cc:Work rdf:about="">
    <dc:format>image/svg+xml</dc:format>
    <dc:type rdf:resource="http://purl.org/dc/dcmitype/StillImage"/>
    <dc:title/>
   </cc:Work>
  </rdf:RDF>
 </metadata>
 <g id="layer1" transform="translate(0 -1036.4)">
  <path id="path5121" opacity=".5" style="color-rendering:auto;text-decoration-color:#000000;color:#000000;isolation:auto;mix-blend-mode:normal;shape-rendering:auto;solid-color:#000000;block-progression:tb;text-decoration-line:none;text-decoration-style:solid;image-rendering:auto;white-space:normal;text-indent:0;text-transform:none" d="m7.0273 1037.4a1.0001 1.0001 0 0 0 -1.0137 0.8359l-1.209 7.2559-0.83398-3.334a1.0001 1.0001 0 0 0 -0.9706 -0.7h-3v2h2.2188l1.8105 7.2422a1.0001 1.0001 0 0 0 1.957 -0.078l1.3672-8.2031 1.2051 3.375a1.0001 1.0001 0 0 0 1.8984 -0.049l0.5918-1.9746 1.002 3.0039a1.0001 1.0001 0 0 0 0.949 0.7h3v-2h-2.2793l-1.7715-5.3164a1.0001 1.0001 0 0 0 -1.9062 0.029l-0.625 2.0839-1.4766-4.1328a1.0001 1.0001 0 0 0 -0.91406 -0.664z" fill-rule="evenodd"/>
 </g>
</svg>
