<?xml version="1.0" encoding="UTF-8" standalone="no"?>
<!-- Created with Inkscape (http://www.inkscape.org/) -->
<svg id="svg6530" xmlns:rdf="http://www.w3.org/1999/02/22-rdf-syntax-ns#" xmlns:xlink="http://www.w3.org/1999/xlink" version="1.1" height="22" viewBox="0 0 22 22" width="22" xmlns="http://www.w3.org/2000/svg" xmlns:cc="http://creativecommons.org/ns#" xmlns:dc="http://purl.org/dc/elements/1.1/">
 <defs id="defs6532">
  <linearGradient id="linearGradient3816" y2="4.125" gradientUnits="userSpaceOnUse" y1="31.125" gradientTransform="matrix(-.86603 .5 .5 .86603 584.22 387.56)" x2="3.875" x1="5.875">
   <stop id="stop3770" stop-color="#dbdee0" offset="0"/>
   <stop id="stop3772" stop-color="#dbdee0" stop-opacity="0" offset="1"/>
  </linearGradient>
  <linearGradient id="linearGradient3819" y2="10" gradientUnits="userSpaceOnUse" y1="6" gradientTransform="matrix(.86603 -.5 .5 .86603 563.61 399.61)" x2="23" x1="12">
   <stop id="stop4949" stop-color="#dbdee0" offset="0"/>
   <stop id="stop4951" stop-color="#dbdee0" stop-opacity="0" offset="1"/>
  </linearGradient>
 </defs>
 <metadata id="metadata6535">
  <rdf:RDF>
   <cc:Work rdf:about="">
    <dc:format>image/svg+xml</dc:format>
    <dc:type rdf:resource="http://purl.org/dc/dcmitype/StillImage"/>
    <dc:title/>
   </cc:Work>
  </rdf:RDF>
 </metadata>
 <g id="layer2" transform="translate(-569 -393)">
  <path id="path5182" style="block-progression:tb;text-indent:0;color:#000000;text-transform:none" d="m576 397.07c-3.8161 2.2032-5.1314 7.1121-2.9282 10.928 2.2032 3.8161 7.1121 5.1314 10.928 2.9282l-1-1.73c-2.88 1.6628-6.5334 0.68384-8.1962-2.1962s-0.68386-6.5334 2.1961-8.1962c0.4783-0.27613 0.64218-0.88772 0.36604-1.366-0.27614-0.47831-0.88773-0.64217-1.366-0.36604z" fill="url(#linearGradient3819)"/>
  <path id="path5184" style="block-progression:tb;text-indent:0;color:#000000;text-transform:none" d="m576 397.07c3.8161-2.2032 8.725-0.88788 10.928 2.9282 2.2032 3.8161 0.88788 8.725-2.9282 10.928l-1-1.73c2.88-1.6628 3.8589-5.3161 2.1962-8.1962-1.6628-2.88-5.3161-3.8589-8.1962-2.1962z" fill="url(#linearGradient3816)"/>
  <rect id="rect5186" style="color:#bebebe" height="22" width="22" y="393" x="569" fill="none"/>
 </g>
</svg>
