<svg xmlns="http://www.w3.org/2000/svg" width="22" height="22" version="1.1">
 <defs>
  <style id="current-color-scheme" type="text/css">
   .ColorScheme-Text { color:#6e6e6e; } .ColorScheme-Highlight { color:#5294e2; }
  </style>
 </defs>
 <path style="fill:currentColor" class="ColorScheme-Text" d="M 5,3 C 3.892,3 3,3.8919999 3,5 v 12 c 0,1.108 0.892,2 2,2 h 12 c 1.108,0 2,-0.892 2,-2 V 5 C 19,3.8919999 18.108,3 17,3 Z M 9.3339844,5 H 10.611328 C 10.537254,5.5555556 10.407842,6.1252809 10.222656,6.9771328 12.72969,6.8754963 14.608604,6.7403586 16,6.5767422 V 7.8560391 C 14.831778,7.9890428 12.904644,7.9222541 9.9453125,8.0552578 9.6490162,9.2404432 9.258825,11.271629 8.7773438,12.345703 l 0.1113281,0.05469 c 1.3703701,-0.925926 2.3358651,-1.388672 3.2988281,-1.388672 1.222222,0 2.167318,0.296079 2.833984,0.888672 0.666667,0.592593 1,1.351417 1,2.277343 0,1.074074 -0.425491,1.489366 -1.277343,2.044922 C 13.929327,16.741172 12.705801,17 11.076172,17 10.053992,17 9.1201884,17.025761 8,16.945312 v -1.447265 c 0.944255,0.190566 1.8384533,0.224609 2.964844,0.224609 1.185184,0 2.075377,-0.149016 2.667968,-0.445312 0.629631,-0.333334 0.94336,-0.432944 0.94336,-1.09961 0,-0.592593 -0.203921,-1.055339 -0.611328,-1.388672 -0.407408,-0.370369 -0.999566,-0.554687 -1.777344,-0.554687 -1.518519,0 -2.7428386,0.647063 -4.0761719,1.943359 l -1,-0.777343 C 7.7039211,12.43743 8.2215712,9.9746812 8.6660156,8.0117188 H 6 v -1.03125 c 0.9590519,-0.0046 1.9321263,-0.015213 2.9453125,-0.046875 z"/>
</svg>
