<?xml version="1.0" encoding="UTF-8" standalone="no"?>
<!-- Created with Inkscape (http://www.inkscape.org/) -->
<svg id="svg7384" xmlns:rdf="http://www.w3.org/1999/02/22-rdf-syntax-ns#" style="enable-background:new" xmlns="http://www.w3.org/2000/svg" height="48" width="48" version="1.1" xmlns:cc="http://creativecommons.org/ns#" xmlns:dc="http://purl.org/dc/elements/1.1/">
 <metadata id="metadata90">
  <rdf:RDF>
   <cc:Work rdf:about="">
    <dc:format>image/svg+xml</dc:format>
    <dc:type rdf:resource="http://purl.org/dc/dcmitype/StillImage"/>
    <dc:title>Paper Symbolic Icon Theme</dc:title>
   </cc:Work>
  </rdf:RDF>
 </metadata>
 <title id="title8473">Paper Symbolic Icon Theme</title>
 <g id="layer12" transform="translate(-385 58)">
  <path id="path7977" d="m409-43-2 6h4zm-11.312 4.6875 2.8125 5.6562 2.8438-2.8438zm22.656 0.0625-5.75 2.75 2.8438 2.8438zm-16.875 8.25-0.46913 5h12l-0.53125-5c-0.10566-0.9944-1-1-1-1-2.8014 0.50335-6.5345 0.46237-9.2184 0.0234-0.21875 0.0234-0.71119 0.22984-0.78125 0.97656zm-4.5316 1-6 2 6 2zm20 0v4l6-1.9062z" style="color:#000000" fill="#fff"/>
  <rect id="rect5816" opacity=".1" style="color:#bebebe" height="48" width="48" y="-58" x="385" fill="none"/>
 </g>
</svg>
