<?xml version='1.0' encoding='UTF-8' standalone='no'?>
<svg height="16.02" style="enable-background:new" version="1.1" width="16" xmlns="http://www.w3.org/2000/svg">
 <title>
  Paper Symbolic Icon Theme
 </title>
 <g transform="translate(-285.0002,355.01999)">
  <path d="m 293.5002,-355 c -3.047,0 -5.5,2.676 -5.5,6 l 0,4 c 0,3.324 2.453,6 5.5,6 3.047,0 5.5,-2.676 5.5,-6 l 0,-4 c 0,-3.324 -2.453,-6 -5.5,-6 z m -0.5,1.29297 4.24023,4.23828 -2.93945,2.46875 2.93945,2.46875 -4.24023,4.23828 0,-5.61328 -2.42773,2.03906 -0.64454,-0.76562 2.81836,-2.36719 -2.81836,-2.36719 0.64454,-0.76562 2.42773,2.03906 0,-5.61328 z m 1,2.41406 0,3.24024 1.75977,-1.48047 -1.75977,-1.75977 z m 0,5.3457 0,3.24024 1.75977,-1.75977 -1.75977,-1.48047 z" style="opacity:0.35;fill:#5c616c;fill-opacity:1;"/>
 </g>
</svg>
