<?xml version='1.0' encoding='UTF-8' standalone='no'?>
<svg height="16" style="enable-background:new" version="1.1" width="16" xmlns="http://www.w3.org/2000/svg">
 <title>
  Paper Symbolic Icon Theme
 </title>
 <g transform="translate(-285.00043,295.00336)">
  <path d="m 288.0004,-289.00336 c -1.108,0 -2,0.892 -2,2 0,1.108 0.892,2 2,2 1.108,0 2,-0.892 2,-2 0,-1.108 -0.892,-2 -2,-2 z m 5,0 c -1.108,0 -2,0.892 -2,2 0,1.108 0.892,2 2,2 1.108,0 2,-0.892 2,-2 0,-1.108 -0.892,-2 -2,-2 z m 5,0 c -1.108,0 -2,0.892 -2,2 0,1.108 0.892,2 2,2 1.108,0 2,-0.892 2,-2 0,-1.108 -0.892,-2 -2,-2 z" style="fill:#5c616c;fill-opacity:1;enable-background:new"/>
 </g>
</svg>
