<?xml version='1.0' encoding='UTF-8' standalone='no'?>
<svg height="16" version="1.1" width="16" xmlns="http://www.w3.org/2000/svg">
 <g transform="translate(-421.0002,223)">
  <g transform="translate(380.00025,-500)">
   <g>
    <g transform="translate(2e-4,0)" fill="#5c616c">
     <path d="m 180,219 c -1.6447,0 -3,1.3553 -3,3 l 0,4 c 0,1.6447 1.3553,3 3,3 l 1,0 0.65625,0 3.34375,0 3,0 c 1.6447,0 3,-1.3553 3,-3 l 0,-4 c 0,-1.6447 -1.3553,-3 -3,-3 l -0.25,0 -0.75,0 0,0.5 0,1 0,0.5 0.75,0 0.25,0 c 0.5713,0 1,0.4287 1,1 l 0,4 c 0,0.5713 -0.4287,1 -1,1 l -3,0 -3.34375,0 -0.65625,0 -1,0 c -0.5713,0 -1,-0.4287 -1,-1 l 0,-4 c 0,-0.5713 0.4287,-1 1,-1 l 3,0 0,-2 -3,0 z" transform="translate(-135.00025,61)" color="#000000"/>
    </g>
    <path d="m 51.0002,281 -4,-3 0,6 z" fill="#5c616c"/>
   </g>
  </g>
 </g>
</svg>
