<?xml version='1.0' encoding='UTF-8' standalone='no'?>
<svg height="16" version="1.1" width="16" xmlns="http://www.w3.org/2000/svg">
 <g transform="translate(-441.0002,203)">
  <g transform="matrix(-1,0,0,1,758.00041,90)">
   <path d="m 200,239 c -1.6447,0 -3,1.3553 -3,3 l 0,2.6875 c 0.51709,-0.64597 1.20552,-1.1229 2,-1.40625 L 199,242 c 0,-0.5713 0.4287,-1 1,-1 l 1,0 0,-0.5 0,-1 0,-0.5 -1,0 z m 5,0 0,2 3,0 c 0.5713,0 1,0.4287 1,1 l 0,4 c 0,0.5713 -0.4287,1 -1,1 l -1,0 -0.65625,0 -1.40625,0 c 0.0187,0.16677 0.0625,0.32822 0.0625,0.5 0,0.53043 -0.11271,1.02745 -0.28125,1.5 l 1.625,0 0.65625,0 1,0 c 1.6447,0 3,-1.3553 3,-3 l 0,-4 c 0,-1.6447 -1.3553,-3 -3,-3 l -3,0 z" transform="matrix(-1,0,0,1,513.00022,-529)" fill="#5c616c" color="#000000"/>
   <path d="m 311.00045,-289 -4,-3 0,6 z" fill="#5c616c"/>
   <path d="m 312.5002,-285 c 1.933,0 3.5,1.567 3.5,3.5 0,1.933 -1.567,3.5 -3.5,3.5 -1.933,0 -3.5,-1.567 -3.5,-3.5 0,-1.933 1.567,-3.5 3.5,-3.5 z m 0.5,1 -1,0 0,5 1,0 0,-3.5 1,0 0,-0.5 c -1,0 -1,-1 -1,-1 z" fill="#5c616c" color="#5c616c" stroke-width="2"/>
  </g>
 </g>
</svg>
