<?xml version='1.0' encoding='UTF-8' standalone='no'?>
<svg height="16" style="enable-background:new" version="1.1" width="16" xmlns="http://www.w3.org/2000/svg">
 <title>
  Paper Symbolic Icon Theme
 </title>
 <g transform="translate(-485.0004,455.00336)">
  <g transform="translate(40,0)">
   <path d="m 246,44 c 0,0 -1,0 -1,1 l 0,2 2,0 0,-1 10,0 0,1 2,0 0,-2 c 0,-1 -1,-1 -1,-1 l -12,0 z m -1,9 0,1 c 0,1 1,1 1,1 l 2,0 1,1 6,0 1,-1 2,0 c 0,0 1,0.129944 1,-1 l 0,-1 -2,0 -2,0 -1,1 -4,0 -1,-1 -2,0 -2,0 z" style="opacity:0.35;fill:#5c616c;fill-opacity:1;" transform="translate(201.0002,-497)"/>
  </g>
  <path d="m 488.0002,-449 c -1.108,0 -2,0.892 -2,2 0,1.108 0.892,2 2,2 1.108,0 2,-0.892 2,-2 0,-1.108 -0.892,-2 -2,-2 z m 5,0 c -1.108,0 -2,0.892 -2,2 0,1.108 0.892,2 2,2 1.108,0 2,-0.892 2,-2 0,-1.108 -0.892,-2 -2,-2 z m 5,0 c -1.108,0 -2,0.892 -2,2 0,1.108 0.892,2 2,2 1.108,0 2,-0.892 2,-2 0,-1.108 -0.892,-2 -2,-2 z" style="fill:#5c616c;fill-opacity:1;enable-background:new"/>
 </g>
</svg>
