<svg xmlns="http://www.w3.org/2000/svg" width="16" height="16" version="1.1">
 <path style="fill:#5c616c" d="M 8,0 7.5,1.03 C 7.67,1.02 7.83,1 8,1 8.17,1 8.33,1.02 8.5,1.03 Z M 8,2 C 4.69,2 2,4.68 2,8 2,11.31 4.69,14 8,14 11.31,14 14,11.31 14,8 14,4.68 11.31,2 8,2 Z M 2.34,2.34 2.72,3.43 C 2.94,3.18 3.19,2.93 3.44,2.71 Z M 13.66,2.34 12.56,2.71 C 12.81,2.93 13.06,3.18 13.28,3.43 Z M 1.03,7.5 0,8 1.03,8.5 C 1.02,8.33 1,8.16 1,8 1,7.83 1.02,7.66 1.03,7.5 Z M 14.97,7.5 C 14.98,7.66 15,7.83 15,8 15,8.16 14.98,8.33 14.97,8.5 L 16,8 Z M 2.72,12.56 2.34,13.65 3.44,13.28 C 3.19,13.06 2.94,12.81 2.72,12.56 Z M 13.28,12.56 C 13.06,12.81 12.81,13.06 12.56,13.28 L 13.66,13.65 Z M 7.5,14.96 8,16 8.5,14.96 C 8.33,14.98 8.17,15 8,15 7.83,15 7.67,14.98 7.5,14.96 Z"/>
</svg>
