<?xml version="1.0" encoding="UTF-8" standalone="no"?>
<!-- Created with Inkscape (http://www.inkscape.org/) -->
<svg id="svg2" xmlns:rdf="http://www.w3.org/1999/02/22-rdf-syntax-ns#" xmlns="http://www.w3.org/2000/svg" height="24" width="24" version="1.1" xmlns:cc="http://creativecommons.org/ns#" xmlns:xlink="http://www.w3.org/1999/xlink" xmlns:dc="http://purl.org/dc/elements/1.1/">
 <metadata id="metadata7">
  <rdf:RDF>
   <cc:Work rdf:about="">
    <dc:format>image/svg+xml</dc:format>
    <dc:type rdf:resource="http://purl.org/dc/dcmitype/StillImage"/>
    <dc:title/>
   </cc:Work>
  </rdf:RDF>
 </metadata>
 <g id="layer1" transform="translate(0 -1028.4)">
  <path id="rect3055" opacity=".5" style="color:#000000" d="m14.583 1034.5-1.3375 2.5115h-9.2458v7.8666h5.0562l-0.9625 1.8073 1.3229 0.7042 1.3375-2.5115h9.2458v-7.8666h-5.0562l0.9625-1.8073-1.3229-0.7042zm-9.8167 3.0448h8.1948l-0.49896 0.9375h-0.12083v0.226l-1.4594 2.7407v-1.5355h-0.75938v2.9615l-0.78229 1.4698h-4.574v-6.8zm9.8927 0h4.574v6.8h-8.1948l1.3031-2.4469v1.4469h0.75938v-2.8729l1.5583-2.9271zm-4.1521 1.0844c-0.12512 0-0.23152 0.028-0.31771 0.084-0.08341 0.056-0.125 0.1469-0.125 0.2719 0 0.1229 0.04159 0.2135 0.125 0.2719 0.08619 0.058 0.19259 0.087 0.31771 0.087 0.12234 0 0.22631-0.029 0.3125-0.087 0.08897-0.06 0.13333-0.151 0.13333-0.2719 0-0.062-0.01248-0.1156-0.0375-0.1594-0.02224-0.046-0.05413-0.083-0.09583-0.1125-0.03892-0.029-0.08606-0.05-0.14167-0.062-0.05283-0.014-0.10966-0.022-0.17083-0.022zm-4.4833 0.1468v4.5688h0.775v-1.9313h2.2313v-0.5125h-2.2313v-1.6125h2.3896v-0.5125h-3.1646zm10.176 1.1c-0.28082 0-0.53832 0.041-0.77188 0.1219-0.23077 0.081-0.42901 0.2-0.59583 0.3563-0.16682 0.1541-0.29679 0.3427-0.38854 0.5656s-0.1375 0.476-0.1375 0.7594c0 0.2812 0.0499 0.5312 0.15 0.75 0.10009 0.2187 0.24115 0.4021 0.42188 0.55 0.1835 0.1479 0.40115 0.2604 0.65417 0.3375 0.25301 0.077 0.5327 0.1156 0.83854 0.1156 0.1418 0 0.27211 0 0.39167-0.013 0.12234-0.01 0.23983-0.022 0.35104-0.041 0.114-0.019 0.22351-0.043 0.32917-0.072 0.10844-0.029 0.21795-0.063 0.32917-0.1031v-0.5063c-0.10844 0.038-0.21518 0.072-0.32083 0.1031-0.10565 0.029-0.21517 0.054-0.32917 0.075-0.11122 0.019-0.2287 0.033-0.35104 0.044-0.11956 0.011-0.24987 0.016-0.39167 0.016-0.41984 0-0.73695-0.095-0.95104-0.2844-0.21131-0.1895-0.3236-0.4853-0.3375-0.8875h2.8854v-0.3531c0-0.2291-0.04159-0.4375-0.125-0.625-0.08063-0.1896-0.19708-0.351-0.35-0.4844-0.15292-0.1354-0.33973-0.2395-0.55938-0.3125-0.21965-0.075-0.46641-0.1125-0.74167-0.1125zm-0.01667 0.4719c0.17238 0 0.31933 0.023 0.44167 0.069s0.22215 0.1104 0.3 0.1937c0.08063 0.083 0.1399 0.1844 0.17604 0.3031 0.03893 0.1167 0.05833 0.2459 0.05833 0.3875h-2.0521c0.03059-0.3103 0.13733-0.5468 0.32083-0.7093 0.18628-0.1625 0.43825-0.2438 0.75521-0.2438z" fill-rule="evenodd"/>
 </g>
</svg>
