<?xml version='1.0' encoding='UTF-8' standalone='no'?>
<svg height="16" xmlns:inkscape="http://www.inkscape.org/namespaces/inkscape" xmlns:sodipodi="http://sodipodi.sourceforge.net/DTD/sodipodi-0.dtd" version="1.1" width="16" xmlns="http://www.w3.org/2000/svg">
 <metadata id="metadata90"/>
 <g inkscape:groupmode="layer" id="layer14" inkscape:label="mimetypes" transform="translate(-521,-321.00012)">
  <path inkscape:connector-curvature="0" d="m 523.0002,324 0,8 12,0 0,-8 z m 6,1 c 1.10457,0 2,0.89543 2,2 l -2,0 z m -1,1 0,2 2,0 c 0,1.10457 -0.89543,2 -2,2 -1.10457,0 -2,-0.89543 -2,-2 0,-1.10457 0.89543,-2 2,-2 z" id="rect35810" sodipodi:nodetypes="ccccccccccccssc" fill="#555555" color="#000000"/>
  <path inkscape:connector-curvature="0" d="m 523,323 a 1.001098,1.001098 0 1 0 0.0937,2 l 11.625,0 a 1.0001,1.0001 0 1 0 0,-2 l -11.625,0 A 1.0001,1.0001 0 0 0 523,323 z" id="path35812" color="#000000" stroke-width="2" fill="#555555"/>
  <path inkscape:connector-curvature="0" d="M 528.40625,331.5 A 0.50005,0.50005 0 0 0 528,332 l 0,1.75 -1.8125,1.375 a 0.51253811,0.51253811 0 1 0 0.625,0.8125 l 2,-1.53125 L 529,334.25 l 0,-0.25 0,-2 a 0.50005,0.50005 0 0 0 -0.59375,-0.5 z" id="path35814" color="#000000" fill="#555555"/>
  <path inkscape:connector-curvature="0" d="m 528.375,333.5 a 0.50005,0.50005 0 0 0 -0.1875,0.90625 l 2,1.5625 a 0.51253811,0.51253811 0 1 0 0.625,-0.8125 l -2,-1.5625 A 0.50005,0.50005 0 0 0 528.375,333.5 z" id="path35816" color="#000000" fill="#555555"/>
 </g>
</svg>
