<svg xmlns="http://www.w3.org/2000/svg" width="48" height="48" version="1">
 <path style="opacity:0.2" d="M 10,5 C 8.892,5 8,5.892 8,7 v 36 c 0,1.108 0.892,2 2,2 h 28 c 1.108,0 2,-0.892 2,-2 V 17 L 29,16 28,5 Z"/>
 <path style="fill:#fe9700" d="M 10,4 C 8.892,4 8,4.892 8,6 v 36 c 0,1.108 0.892,2 2,2 h 28 c 1.108,0 2,-0.892 2,-2 V 16 L 29,15 28,4 Z"/>
 <path style="opacity:0.2;fill:#ffffff" d="M 10,4 C 8.892,4 8,4.892 8,6 V 7 C 8,5.892 8.892,5 10,5 h 18 l 11,11 h 1 L 28,4 Z"/>
 <path style="opacity:0.2" d="m 28,5 v 10 c 0,1.1046 0.89543,2 2,2 h 10 z"/>
 <path style="fill:#ffbd63" d="m 28,4 v 10 c 0,1.1046 0.89543,2 2,2 h 10 z"/>
 <path style="opacity:0.2" d="m 16.783203,27 -3.113281,8 h 1.015625 l 0.845703,-2.056641 h 3.363281 L 19.75,35 h 1.039062 L 17.6875,27 Z m 7.582031,0 -3.113281,8 h 1.015625 l 0.845703,-2.056641 h 3.363281 L 27.332031,35 h 1.039063 l -3.101563,-8 z m 8.373047,0 c -0.799273,0 -1.477618,0.170211 -2.037109,0.511719 -0.559491,0.334241 -0.984746,0.803161 -1.275391,1.40625 C 29.142403,29.513791 29,30.203541 29,30.988281 c 0,0.813806 0.130998,1.523865 0.392578,2.126953 0.268847,0.603088 0.668792,1.067556 1.199219,1.394532 C 31.122224,34.836741 31.782212,35 32.574219,35 c 0.428701,0 0.796385,-0.02531 1.101562,-0.07617 0.312444,-0.05086 0.613652,-0.131242 0.904297,-0.240234 v -0.84961 c -0.297911,0.0872 -0.59912,0.160624 -0.904297,0.21875 -0.305177,0.05813 -0.624743,0.08594 -0.958984,0.08594 -0.893733,0 -1.565126,-0.280353 -2.015625,-0.839844 C 30.257939,32.732071 30.035156,31.966395 30.035156,31 c 0,-0.97366 0.239186,-1.739337 0.71875,-2.298828 0.479564,-0.559491 1.137052,-0.839844 1.972656,-0.839844 0.348775,0 0.670293,0.04367 0.960938,0.13086 0.297911,0.08719 0.566858,0.183976 0.806641,0.292968 l 0.390625,-0.828125 C 34.274412,27.151854 33.559353,27 32.738281,27 Z M 17.21875,28.037109 c 0.02977,0.08926 0.06671,0.219541 0.111328,0.390625 0.05207,0.163645 0.10418,0.324262 0.15625,0.480469 0.05207,0.156209 0.08901,0.264709 0.111328,0.324219 l 0.996094,2.818359 h -2.726562 l 1.005859,-2.818359 c 0.04463,-0.126453 0.09674,-0.297959 0.15625,-0.513672 0.06695,-0.223153 0.129943,-0.451051 0.189453,-0.681641 z m 7.582031,0 c 0.02977,0.08926 0.06671,0.219541 0.111328,0.390625 0.05207,0.163645 0.10418,0.324262 0.15625,0.480469 0.05207,0.156209 0.08901,0.264709 0.111329,0.324219 l 0.996093,2.818359 h -2.726562 l 1.005859,-2.818359 c 0.04463,-0.126453 0.09674,-0.297959 0.15625,-0.513672 0.06695,-0.223153 0.129943,-0.451051 0.189453,-0.681641 z"/>
 <path style="fill:#ffffff" d="M 19.750893,34 18.894135,31.943327 H 15.531629 L 14.685342,34 H 13.67 l 3.112971,-8 h 0.903766 l 3.101813,8 z M 18.592879,31.050719 17.597476,28.23152 c -0.02232,-0.05951 -0.05951,-0.167361 -0.111576,-0.32357 -0.05207,-0.156207 -0.104135,-0.316132 -0.156206,-0.479777 -0.04462,-0.171084 -0.08181,-0.301256 -0.111576,-0.390516 -0.05951,0.23059 -0.122732,0.457461 -0.18968,0.680614 -0.05951,0.215713 -0.111574,0.386796 -0.156207,0.513249 l -1.005873,2.819199 z"/>
 <path style="fill:#ffffff" d="m 32.72752,26.861034 q -1.253406,0 -1.972752,0.839237 -0.719346,0.839237 -0.719346,2.299727 0,1.449592 0.66485,2.299728 0.675749,0.839237 2.016349,0.839237 0.501362,0 0.959128,-0.08719 0.457765,-0.08719 0.904632,-0.217983 v 0.850136 q -0.435967,0.163488 -0.904632,0.239782 -0.457766,0.07629 -1.100818,0.07629 -1.18801,0 -1.983651,-0.490463 Q 29.79564,33.019072 29.39237,32.11444 29,31.209808 29,29.989099 q 0,-1.177111 0.425068,-2.070844 0.435967,-0.904633 1.275204,-1.405995 0.839237,-0.512262 2.038147,-0.512262 1.231608,0 2.147139,0.457766 l -0.39237,0.828338 q -0.359674,-0.163488 -0.80654,-0.294278 -0.435967,-0.13079 -0.959128,-0.13079 z"/>
 <path style="fill:#ffffff" d="M 27.332893,34 26.476135,31.943327 H 23.113629 L 22.267342,34 H 21.252 l 3.112971,-8 h 0.903766 l 3.101813,8 z M 26.174879,31.050719 25.179476,28.23152 c -0.02232,-0.05951 -0.05951,-0.167361 -0.111576,-0.32357 -0.05207,-0.156207 -0.104135,-0.316132 -0.156206,-0.479777 -0.04462,-0.171084 -0.08181,-0.301256 -0.111576,-0.390516 -0.05951,0.23059 -0.122732,0.457461 -0.18968,0.680614 -0.05951,0.215713 -0.111574,0.386796 -0.156207,0.513249 l -1.005873,2.819199 z"/>
</svg>
