<svg xmlns="http://www.w3.org/2000/svg" width="24" height="24" version="1.1">
 <defs>
  <style id="current-color-scheme" type="text/css">
   .ColorScheme-Text { color:#444444; } .ColorScheme-Highlight { color:#4285f4; } .ColorScheme-NeutralText { color:#ff9800; } .ColorScheme-PositiveText { color:#4caf50; } .ColorScheme-NegativeText { color:#f44336; }
  </style>
 </defs>
 <path style="fill:currentColor" class="ColorScheme-Text" d="m 14.03,5.1499998 c -0.15,0 -0.3,0.01 -0.46,0.03 -0.57,0.08 -1.25,0.35 -2.02,0.76 -1.54,-0.85 -2.74,-0.9 -3.74,-0.64 -1.07,0.27 -1.94,0.72 -3.29,0.68 L 4,5.9599998 V 20 H 19 V 5.9799998 l -0.52,0.02 c -1.51,0.05 -2.27,-0.39 -3.25,-0.68 -0.36,-0.11 -0.76,-0.18 -1.2,-0.17 z m -5.29,0.99 c 0.62,-0.07 1.3,0.08 2.26,0.6 V 15.38 C 9.9,14.75 8.79,14.7 7.82,14.94 7.16,15.1 6.57,15.28 6,15.43 V 6.7899998 c 0.8,-0.14 1.47,-0.37 2.05,-0.52 0.24,-0.06 0.46,-0.11 0.69,-0.13 z m 5.6,0 c 0.2,0.02 0.4,0.07 0.61,0.14 0.53,0.15 1.19,0.4 2.05,0.55 V 15.43 C 16.43,15.28 15.84,15.09 15.19,14.93 14.21,14.69 13.1,14.75 12,15.41 V 6.7999998 c 0.7,-0.38 1.25,-0.59 1.68,-0.66 0.24,-0.03 0.45,-0.03 0.66,0 z M 13.8,15.75 c 0.37,-0.01 0.75,0.05 1.15,0.15 0.64,0.16 1.32,0.43 2.05,0.63 V 18 H 6 v -1.46 c 0.72,-0.2 1.41,-0.47 2.05,-0.63 1.08,-0.27 2,-0.3 3.15,0.74 l 0.34,0.3 0.33,-0.31 c 0.7,-0.64 1.31,-0.87 1.93,-0.89 z"/>
 <path style="opacity:0.35;fill:currentColor" class="ColorScheme-Text" d="m 4.94,18.75 v -2.19 l 4.22,-1.13 2.34,0.6 2.39,-0.67 3.74,1 v 2.45 z"/>
</svg>
