<svg xmlns="http://www.w3.org/2000/svg" width="22" height="22" version="1.1">
 <path style="opacity:0.2" d="m 11.5,1.5 c 4.709,0 8.5,6.791 8.5,11.5 0,4.709 -3.791,8.5 -8.5,8.5 C 6.791,21.5 3,17.709 3,13 3,8.291 6.791,1.5 11.5,1.5 Z"/>
 <path style="fill:#e4e4e4" d="M 11.5,1 C 16.209,1 20,7.791 20,12.5 20,17.209 16.209,21 11.5,21 6.791,21 3,17.209 3,12.5 3,7.791 6.791,1 11.5,1 Z"/>
 <path style="opacity:0.1" d="M 16.029297,3.6676568 A 3,3 0 0 0 14,6.499688 a 3,3 0 0 0 3,3 3,3 0 0 0 2.117188,-0.890625 C 18.421652,6.7660783 17.350744,4.9863333 16.033203,3.6676568 a 3,3 0 0 0 -0.0039,0 z M 5.4511719,5.5348442 C 4.3666302,7.164005 3.5827926,9.084563 3.2226562,10.902032 A 3,3 0 0 0 5,11.499688 a 3,3 0 0 0 3,-3 A 3,3 0 0 0 5.4511719,5.5348442 Z M 14,11.499688 a 3,3 0 0 0 -3,3 3,3 0 0 0 3,3 3,3 0 0 0 3,-3 3,3 0 0 0 -3,-3 z m -10,2 A 3,3 0 0 0 3.0292969,13.673516 C 3.1936229,15.785779 4.1212948,17.676311 5.5410156,19.07 A 3,3 0 0 0 7,16.499688 a 3,3 0 0 0 -3,-3 z"/>
 <circle style="fill:#f14545" cx="14" cy="14" r="3"/>
 <path style="fill:#f0ac00" d="m 4,13 a 3,3 0 0 0 -0.9707031,0.173828 c 0.164326,2.112263 1.0919979,4.002795 2.5117187,5.396484 A 3,3 0 0 0 7,16 3,3 0 0 0 4,13 Z"/>
 <path style="fill:#4d9ef4" d="M 5.4511719,5.0351562 C 4.3666302,6.664317 3.5827925,8.584875 3.2226562,10.402344 A 3,3 0 0 0 5,11 3,3 0 0 0 8,8 3,3 0 0 0 5.4511719,5.0351562 Z"/>
 <path style="fill:#64b01c" d="M 16.029297,3.1679688 A 3,3 0 0 0 14,6 3,3 0 0 0 17,9 3,3 0 0 0 19.117188,8.109375 C 18.421652,6.2663903 17.350744,4.4866453 16.033203,3.1679688 a 3,3 0 0 0 -0.0039,0 z"/>
 <path style="opacity:0.2;fill:#ffffff" d="M 11.5,1 C 6.791,1 3,7.791 3,12.5 3,12.58292 3.00352,12.664738 3.00586,12.747071 3.1365962,8.0517235 6.8742155,1.5 11.5,1.5 c 4.625785,0 8.363404,6.5517235 8.49414,11.247071 C 19.996475,12.664738 20,12.582917 20,12.5 20,7.791 16.209,1 11.5,1 Z"/>
</svg>
