<svg xmlns="http://www.w3.org/2000/svg" width="22" height="22" version="1">
 <g transform="translate(-1,-1)">
  <path style="fill:#2279bf" d="M 10,2 C 8.892,2 8,2.892 8,4 V 6 H 4 C 2.892,6 2,6.892 2,8 v 4 h 2 c 1.108,0 2,0.892 2,2 0,1.108 -0.892,2 -2,2 H 2 v 4 c 0,1.108 0.892,2 2,2 h 4 v -2 c 0,-1.108 0.892,-2 2,-2 1.108,0 2,0.892 2,2 v 2 h 4 c 1.108,0 2,-0.892 2,-2 v -4 h 2 c 1.108,0 2,-0.892 2,-2 0,-1.108 -0.892,-2 -2,-2 H 18 V 8 C 18,6.892 17.108,6 16,6 H 12 V 4 C 12,2.892 11.108,2 10,2 Z"/>
  <path style="opacity:0.2;fill:#ffffff" d="M 10,2 C 8.892,2 8,2.892 8,4 v 0.5 c 0,-1.108 0.892,-2 2,-2 1.108,0 2,0.892 2,2 V 4 C 12,2.892 11.108,2 10,2 Z M 4,6 C 2.892,6 2,6.892 2,8 v 0.5 c 0,-1.108 0.892,-2 2,-2 H 8 V 6 Z m 8,0 v 0.5 h 4 c 1.108,0 2,0.892 2,2 V 8 C 18,6.892 17.108,6 16,6 Z m 6,6 v 0.5 h 2 c 1.0083,0 1.8296,0.74102 1.9707,1.709 0.009,-0.07 0.029,-0.136 0.029,-0.209 0,-1.108 -0.892,-2 -2,-2 h -2 z M 5.93,14.5 C 5.708,15.363 4.9345,16 4.0003,16 h -2 v 0.5 h 2 c 0.93416,0 1.7077,-0.63701 1.9297,-1.5 0.024039,0.09347 0.028601,0.19352 0.041016,0.29102 0.014,-0.096 0.0293,-0.191 0.0293,-0.291 0,-0.174 -0.029,-0.339 -0.0703,-0.5 z"/>
  <path style="opacity:0.2" d="m 2,12 v 0.5 h 2 c 1.0224,0 1.8511,0.76218 1.9746,1.75 C 5.985,14.167 6,14.086 6,14 6,12.892 5.108,12 4,12 Z m 19.975,2.25 C 21.851,15.238 21.022,16 20,16 h -2 v 0.5 h 2 c 1.108,0 2,-0.892 2,-2 0,-0.08564 -0.01504,-0.16725 -0.02539,-0.25 z M 10,18 c -1.108,0 -2,0.892 -2,2 v 0.5 c 0,-1.108 0.892,-2 2,-2 1.108,0 2,0.892 2,2 V 20 c 0,-1.108 -0.892,-2 -2,-2 z m -8,2 v 0.5 c 0,1.108 0.892,2 2,2 H 8 V 22 H 4 C 2.892,22 2,21.108 2,20 Z m 16,0 c 0,1.108 -0.892,2 -2,2 h -4 v 0.5 h 4 c 1.108,0 2,-0.892 2,-2 z"/>
 </g>
</svg>
