<svg xmlns="http://www.w3.org/2000/svg" width="24" height="24" version="1.1">
 <defs>
  <style id="current-color-scheme" type="text/css">
   .ColorScheme-Text { color:#444444; } .ColorScheme-Highlight { color:#4285f4; } .ColorScheme-NeutralText { color:#ff9800; } .ColorScheme-PositiveText { color:#4caf50; } .ColorScheme-NegativeText { color:#f44336; }
  </style>
 </defs>
 <path style="fill:currentColor" class="ColorScheme-Text" d="m 15,15 v 1 c 0,0.28 0.1,0.54 0.28,0.72 l 0.78,0.78 -0.78,0.78 C 15.1,18.46 15,18.72 15,19 v 1 h 1 c 0.28,0 0.54,-0.1 0.72,-0.28 l 0.78,-0.78 0.78,0.78 C 18.46,19.9 18.72,20 19,20 h 1 v -1 c 0,-0.28 -0.1,-0.54 -0.28,-0.72 L 18.94,17.5 19.72,16.72 C 19.9,16.54 20,16.28 20,16 v -1 h -1 c -0.28,0 -0.54,0.1 -0.72,0.28 L 17.5,16.06 16.72,15.28 C 16.54,15.1 16.28,15 16,15 Z"/>
 <path style="opacity:0.35;fill:currentColor" class="ColorScheme-Text" d="m 12,5 a 7,7 0 0 0 -7,7 7,7 0 0 0 7,7 7,7 0 0 0 2,-0.295 V 16.576 A 5,5 0 0 1 12,17 5,5 0 0 1 7,12 a 5,5 0 0 1 5,-5 5,5 0 0 1 5,5 5,5 0 0 1 -0.42,2 h 2.121 A 7,7 0 0 0 19,12 7,7 0 0 0 12,5 Z"/>
 <path style="opacity:0.35;fill:currentColor" class="ColorScheme-Text" d="M 14.49,8.9961 A 0.50005,0.50005 0 0 0 14.146,9.1465 L 12,11.293 10.3535,9.6465 a 0.50005,0.50005 0 1 0 -0.707,0.707 l 2,2 a 0.50005,0.50005 0 0 0 0.707,0 l 2.5005,-2.5 A 0.50005,0.50005 0 0 0 14.49,8.9961 Z"/>
</svg>
