<svg xmlns="http://www.w3.org/2000/svg" width="64" height="64" version="1.1">
 <circle style="opacity:0.2" cx="32" cy="33" r="28"/>
 <circle style="fill:#1b627c" cx="32" cy="32" r="28"/>
 <path style="opacity:0.2" d="M 32,13.750084 14.812522,42.62505 29.84927,34.142562 32,32.930128 Z m 0,0 L 49.187476,42.62505 34.150728,34.142562 32,32.930128 Z"/>
 <path style="opacity:0.2" d="M 32,11 A 22.000016,22.000028 0 0 0 10.000001,33 22.000016,22.000028 0 0 0 32,55 22.000016,22.000028 0 0 0 54,33 22.000016,22.000028 0 0 0 32,11 Z m 0,2.75 A 19.25001,19.250021 0 0 1 51.25,33 19.25001,19.250021 0 0 1 32,52.25 19.25001,19.250021 0 0 1 12.750001,33 19.25001,19.250021 0 0 1 32,13.75 Z"/>
 <path style="fill:#ffffff" d="M 32,10 A 22.000016,22.000028 0 0 0 10.000001,32 22.000016,22.000028 0 0 0 32,54 22.000016,22.000028 0 0 0 54,32 22.000016,22.000028 0 0 0 32,10 Z m 0,2.75 A 19.25001,19.250021 0 0 1 51.25,32 19.25001,19.250021 0 0 1 32,51.25 19.25001,19.250021 0 0 1 12.750001,32 19.25001,19.250021 0 0 1 32,12.75 Z"/>
 <path style="fill:#ffffff" d="M 32,12.750084 14.812522,41.62505 29.84927,33.142562 32,31.930128 Z m 0,0 L 49.187476,41.62505 34.150728,33.142562 32,31.930128 Z"/>
 <path style="opacity:0.1;fill:#ffffff" d="M 32 4 A 28 28 0 0 0 4 32 A 28 28 0 0 0 4.0175781 32.492188 A 28 28 0 0 1 32 5 A 28 28 0 0 1 59.974609 32.492188 A 28 28 0 0 0 60 32 A 28 28 0 0 0 32 4 z"/>
</svg>
