<svg xmlns="http://www.w3.org/2000/svg" width="64" height="64" version="1.1">
 <path style="opacity:0.2;fill-rule:evenodd" d="m 4.5999733,30.001002 c -2.094033,0.01031 -3.3228371,2.352062 -2.1370514,4.072499 L 16.80842,54.872699 C 17.295061,55.578415 18.0991,56.000036 18.958208,56 l 26.082724,0 c 0.859106,3.6e-5 1.663146,-0.421585 2.149788,-1.127301 L 61.536218,34.073501 c 1.252192,-1.818845 -0.1937,-4.267884 -2.39686,-4.059804 L 31.999568,32.889778 4.8597817,30.013697 c -0.086336,-0.0084 -0.173048,-0.0128 -0.2598084,-0.0128 z"/>
 <path style="fill:#bcbcbc;fill-rule:evenodd" d="m 4.5999733,29.001073 c -2.094033,0.01031 -3.3228371,2.352062 -2.1370514,4.072499 L 16.80842,53.87277 c 0.486641,0.705716 1.29068,1.127337 2.149788,1.127301 l 26.082724,0 c 0.859106,3.6e-5 1.663146,-0.421585 2.149788,-1.127301 L 61.536218,33.073572 c 1.252192,-1.818846 -0.1937,-4.267884 -2.39686,-4.059804 L 31.999568,29 4.8597817,29.013768 c -0.086336,-0.0084 -0.173048,-0.0128 -0.2598084,-0.0128 z"/>
 <path style="opacity:0.3;fill-rule:evenodd" d="M 4.8666321,29.015178 31.999178,36.000765 59.131726,29.015178 31.999178,29.001021 Z"/>
 <path style="fill:#bcbcbc;fill-rule:evenodd" d="m 32.089024,9.0035015 c -0.87978,-0.034003 -1.70704,0.4291128 -2.155258,1.2065525 L 14.340952,37.282957 c -1.073306,1.862718 0.550023,4.137767 2.60505,3.650901 L 32,36.000765 47.054002,40.933858 c 2.055024,0.486864 3.678352,-1.788183 2.605046,-3.650901 L 34.066236,10.210054 C 33.650342,9.4887616 32.905322,9.0341272 32.089024,9.0035015 Z"/>
 <path style="opacity:0.1;fill:#ffffff;fill-rule:evenodd" d="M 32.089844 9.0039062 C 31.210064 8.9699032 30.381812 9.4334978 29.933594 10.210938 L 14.341797 37.283203 C 14.019362 37.842788 13.961563 38.432519 14.064453 38.980469 C 14.119146 38.74551 14.210185 38.511615 14.341797 38.283203 L 29.933594 11.210938 C 30.381812 10.433498 31.210064 9.9699043 32.089844 10.003906 C 32.906142 10.034532 33.650512 10.489645 34.066406 11.210938 L 49.658203 38.283203 C 49.789815 38.511615 49.880854 38.74551 49.935547 38.980469 C 50.038437 38.432519 49.980638 37.842788 49.658203 37.283203 L 34.066406 10.210938 C 33.650512 9.4896451 32.906142 9.034532 32.089844 9.0039062 z"/>
 <path style="opacity:0.3;fill-rule:evenodd" d="M 31.999178,10 35.484,39.289098 31.999178,36.000765 28.614,39.289098 Z"/>
 <path style="fill:#e4e4e4;fill-rule:evenodd" d="m 4.6044011,29.001073 c -2.0936982,0.0104 -3.3225005,2.353192 -2.1369042,4.073625 L 16.809304,53.871644 c 0.486564,0.705714 1.291883,1.128463 2.150853,1.128427 L 31.999178,36.000743 4.8638423,29.015178 c -0.086324,-0.0085 -0.172694,-0.01416 -0.2594412,-0.01416 z M 31.999178,36.000743 45.0382,55.000071 c 0.85897,3.6e-5 1.66429,-0.422713 2.150854,-1.128427 L 61.530862,33.074698 c 1.185596,-1.720433 -0.0432,-4.063226 -2.136904,-4.073625 -0.08674,-1.46e-4 -0.17312,0.0056 -0.259442,0.0142 l -27.135338,6.985515 z"/>
 <path style="opacity:0.1;fill-rule:evenodd" d="m 2.0625,32.125 c -8.686e-4,0.0045 -0.00111,0.0092 -0.00195,0.01367 0.033312,0.155635 0.083726,0.308624 0.1484375,0.460937 C 2.1440263,32.443162 2.0957669,32.284842 2.0625,32.125 Z m 59.873047,0 c -0.03381,0.16243 -0.08187,0.32353 -0.148438,0.482422 0.06615,-0.154068 0.11653,-0.309798 0.150391,-0.466797 -9.62e-4,-0.0051 -9.62e-4,-0.01049 -0.002,-0.01563 z m -0.148438,0.482422 c -0.06657,0.158891 -0.151647,0.315574 -0.255859,0.466797 L 47.189453,53.871094 c -0.121641,0.176428 -0.262622,0.335691 -0.419922,0.474609 0.157237,-0.138768 0.300215,-0.296227 0.421875,-0.472656 L 61.537109,33.074219 c 0.104301,-0.151499 0.182017,-0.308453 0.25,-0.466797 z m -59.5722652,0.0059 c 0.067449,0.156249 0.1454485,0.31208 0.2480468,0.460938 L 16.808594,53.871094 2.4667969,33.074219 C 2.3639588,32.924989 2.2809946,32.770005 2.2148438,32.613281 Z M 31.416016,36.849609 18.960938,55 19.646484,55 32,37 32,36 Z M 32,37 44.353516,55 45.039062,55 32.583984,36.849609 32,36 Z"/>
 <path style="opacity:0.2;fill:#ffffff;fill-rule:evenodd" d="M 4.6035156 29.001953 C 2.8778812 29.010525 1.7455118 30.601924 2.0625 32.125 C 2.2839557 30.977834 3.2596403 30.008629 4.6035156 30.001953 L 4.6035156 30 C 4.6902628 30 4.7769572 30.007125 4.8632812 30.015625 L 31.416016 36.849609 L 32 36 L 4.8632812 29.015625 C 4.7769572 29.007125 4.6902628 29.001953 4.6035156 29.001953 z M 32 36 L 32.583984 36.849609 L 59.134766 30.015625 C 59.221088 30.007025 59.307791 30.001807 59.394531 30.001953 C 60.73841 30.008628 61.714092 30.977834 61.935547 32.125 C 62.252536 30.601924 61.12017 29.010524 59.394531 29.001953 C 59.307791 29.001807 59.221088 29.007025 59.134766 29.015625 L 32 36 z"/>
</svg>
