<svg width="64" height="64" version="1.1" xmlns="http://www.w3.org/2000/svg">
 <path d="m13.625042 53c2.123191 4.549734 4.748501 8 7.374989 8 5.999992 0 7.999989-2 11.999984-2 3.999994 0 5.999991 2 11.999982 2 2.622015 0 5.220719-3.462688 7.335928-8z" style="opacity:.2"/>
 <path d="m13.625042 52c2.123191 4.549734 4.748501 8 7.374989 8 5.999992 0 7.999989-2 11.999984-2 3.999994 0 5.999991 2 11.999982 2 2.622015 0 5.220719-3.462688 7.335928-8z" style="fill:#009bda"/>
 <path d="m10.734422 45c0.775725 2.745146 1.736979 5.52789 2.89062 8h38.710883c0.976859-2.09545 1.861374-4.399126 2.578121-6.734376a11.999983 12 0 0 1-2.499997-1.265624z" style="opacity:.2"/>
 <path d="m10.734422 44c0.775725 2.745146 1.736979 5.52789 2.89062 8h38.710883c0.976859-2.09545 1.861374-4.399126 2.578121-6.734376a11.999983 12 0 0 1-2.499997-1.265624z" style="fill:#953c96"/>
 <path d="m9.3789526 39c0.289078 1.86455 0.7644914 3.908646 1.3554694 6h41.679627a11.999983 12 0 0 1-4.714837-6z" style="opacity:.2"/>
 <path d="m9.3789526 38c0.289078 1.86455 0.7644914 3.908646 1.3554694 6h41.679627a11.999983 12 0 0 1-4.714837-6z" style="fill:#de393d"/>
 <path d="m9.4961406 31c-0.311859 1.309432-0.496093 2.652322-0.496093 4 0 1.14556 0.15046 2.526556 0.378905 4h38.320259a11.999983 12 0 0 1-0.699217-4 11.999983 12 0 0 1 0.703123-4z" style="opacity:.2"/>
 <path d="m9.4961406 30c-0.311859 1.309432-0.496093 2.652322-0.496093 4 0 1.14556 0.15046 2.526556 0.378905 4h38.320259a11.999983 12 0 0 1-0.699217-4 11.999983 12 0 0 1 0.703123-4z" style="fill:#f4811e"/>
 <path d="m12.058638 25c-1.157945 1.781458-2.047533 3.837778-2.5624974 6h38.206977a11.999983 12 0 0 1 4.679681-6z" style="opacity:.2"/>
 <path d="m12.058638 24c-1.157945 1.781458-2.047533 3.837778-2.5624974 6h38.206977a11.999983 12 0 0 1 4.679681-6z" style="fill:#fbb625"/>
 <path d="m43 5s-3.999994 0-7.999988 3.9999999c-3.999995 4.0000001-3.999995 10-3.999995 10s5.999992 0 9.999986-6c1.568928-2.353394 1.999997-8 1.999997-8zm-21.999969 14c-3.320205 0-6.63789 2.45614-8.941393 6h40.324161a11.999983 12 0 0 1 1.105469-0.65625c-2.274467-3.184904-5.378111-5.34375-8.488271-5.34375-7.999988 0-7.999988 2-11.999982 2-3.999995 0-3.999995-2-11.999984-2z" style="opacity:.2"/>
 <path d="m43 4s-3.999994 0-7.999988 4c-3.999995 4-3.999995 10-3.999995 10s5.999992 0 9.999986-6c1.568928-2.3533941 1.999997-8 1.999997-8zm-21.999969 14c-3.320205 0-6.63789 2.45614-8.941393 6h40.324161a11.999983 12 0 0 1 1.105469-0.65625c-2.274467-3.184904-5.378111-5.34375-8.488271-5.34375-7.999988 0-7.999988 2-11.999982 2-3.999995 0-3.999995-2-11.999984-2z" style="fill:#60ba45"/>
 <path d="m43 4s-4.000006 0-8 4c-3.999995 4-4 10-4 10s0.052334-0.001801 0.0625-0.001953c0.18777-1.875756 0.938369-5.998912 3.9375-8.998047 3.846562-3.8465676 7.605097-3.9845748 7.894531-3.9902344 0.07084-0.6072351 0.105469-1.0097656 0.105469-1.0097656zm-22 14c-5.999992 0-12 8-12 16 0 0.160794 0.0166853 0.348931 0.0214844 0.517578 0.2342708-7.835816 6.0992806-15.517578 11.978516-15.517578 7.999989 0 8.000005 2 12 2 3.999994 0 4.000011-2 12-2 2.875869 0 5.736845 1.8582 7.951172 4.654297a11.999984 12 0 0 1 0.537109-0.310547c-2.274467-3.184904-5.378121-5.34375-8.488281-5.34375-7.999989 0-8.000006 2-12 2-3.999995 0-4.000011-2-12-2zm26.023438 16.533203a11.999984 12 0 0 0-0.023438 0.466797 11.999984 12 0 0 0 7.621094 11.142578c0.09504-0.293431 0.202718-0.582907 0.292968-0.876953a11.999984 12 0 0 1-7.890624-10.732422z" style="fill:#ffffff;opacity:.2"/>
</svg>
