<svg xmlns="http://www.w3.org/2000/svg" width="64" height="64" version="1">
 <rect style="opacity:0.2" width="55" height="39" x="4" y="13" rx="2.75" ry="2.8"/>
 <rect style="fill:#cfcfcf" width="55" height="39" x="4" y="12" rx="2.75" ry="2.8"/>
 <path style="opacity:0.1" d="M 10.25,19 C 9.5575,19 9,19.5575 9,20.25 v 2.5 C 9,23.4425 9.5575,24 10.25,24 h 2.5 C 13.4425,24 14,23.4425 14,22.75 v -2.5 C 14,19.5575 13.4425,19 12.75,19 Z m 8,0 C 17.5575,19 17,19.5575 17,20.25 v 2.5 c 0,0.6925 0.5575,1.25 1.25,1.25 h 2.5 C 21.4425,24 22,23.4425 22,22.75 v -2.5 C 22,19.5575 21.4425,19 20.75,19 Z m 8,0 C 25.5575,19 25,19.5575 25,20.25 v 2.5 c 0,0.6925 0.5575,1.25 1.25,1.25 h 2.5 C 29.4425,24 30,23.4425 30,22.75 v -2.5 C 30,19.5575 29.4425,19 28.75,19 Z m 8,0 C 33.5575,19 33,19.5575 33,20.25 v 2.5 c 0,0.6925 0.5575,1.25 1.25,1.25 h 2.5 C 37.4425,24 38,23.4425 38,22.75 v -2.5 C 38,19.5575 37.4425,19 36.75,19 Z m 8,0 C 41.5575,19 41,19.5575 41,20.25 v 2.5 c 0,0.6925 0.5575,1.25 1.25,1.25 h 2.5 C 45.4425,24 46,23.4425 46,22.75 v -2.5 C 46,19.5575 45.4425,19 44.75,19 Z m 8,0 C 49.5575,19 49,19.5575 49,20.25 v 2.5 c 0,0.6925 0.5575,1.25 1.25,1.25 h 2.5 C 53.4425,24 54,23.4425 54,22.75 v -2.5 C 54,19.5575 53.4425,19 52.75,19 Z m -36,11 C 13.5575,30 13,30.5575 13,31.25 v 2.5 c 0,0.6925 0.5575,1.25 1.25,1.25 h 2.5 C 17.4425,35 18,34.4425 18,33.75 v -2.5 C 18,30.5575 17.4425,30 16.75,30 Z m 8,0 C 21.5575,30 21,30.5575 21,31.25 v 2.5 c 0,0.6925 0.5575,1.25 1.25,1.25 h 2.5 C 25.4425,35 26,34.4425 26,33.75 v -2.5 C 26,30.5575 25.4425,30 24.75,30 Z m 8,0 C 29.5575,30 29,30.5575 29,31.25 v 2.5 c 0,0.6925 0.5575,1.25 1.25,1.25 h 2.5 C 33.4425,35 34,34.4425 34,33.75 v -2.5 C 34,30.5575 33.4425,30 32.75,30 Z m 8,0 C 37.5575,30 37,30.5575 37,31.25 v 2.5 c 0,0.6925 0.5575,1.25 1.25,1.25 h 2.5 C 41.4425,35 42,34.4425 42,33.75 v -2.5 C 42,30.5575 41.4425,30 40.75,30 Z m 8,0 C 45.5575,30 45,30.5575 45,31.25 v 2.5 c 0,0.6925 0.5575,1.25 1.25,1.25 h 2.5 C 49.4425,35 50,34.4425 50,33.75 v -2.5 C 50,30.5575 49.4425,30 48.75,30 Z M 14.232422,41 C 13.549155,41 13,41.5575 13,42.25 v 2.5 C 13,45.4425 13.549155,46 14.232422,46 H 48.767578 C 49.450845,46 50,45.4425 50,44.75 v -2.5 C 50,41.5575 49.450845,41 48.767578,41 Z"/>
 <rect style="fill:#898989" width="5" height="5" x="9" y="18" rx="1.25" ry="1.25"/>
 <rect style="fill:#898989" width="5" height="5" x="17" y="18" rx="1.25" ry="1.25"/>
 <rect style="fill:#898989" width="5" height="5" x="25" y="18" rx="1.25" ry="1.25"/>
 <rect style="fill:#898989" width="5" height="5" x="33" y="18" rx="1.25" ry="1.25"/>
 <rect style="fill:#898989" width="5" height="5" x="41" y="18" rx="1.25" ry="1.25"/>
 <rect style="fill:#898989" width="5" height="5" x="49" y="18" rx="1.25" ry="1.25"/>
 <rect style="fill:#898989" width="5" height="5" x="13" y="29" rx="1.25" ry="1.25"/>
 <rect style="fill:#898989" width="37" height="5" x="13" y="40" rx="1.233" ry="1.25"/>
 <rect style="fill:#898989" width="5" height="5" x="21" y="29" rx="1.25" ry="1.25"/>
 <rect style="fill:#898989" width="5" height="5" x="29" y="29" rx="1.25" ry="1.25"/>
 <rect style="fill:#898989" width="5" height="5" x="37" y="29" rx="1.25" ry="1.25"/>
 <rect style="fill:#898989" width="5" height="5" x="45" y="29" rx="1.25" ry="1.25"/>
 <path style="fill:#ffffff;opacity:0.2" d="M 6.75 12 C 5.2265 12 4 13.249581 4 14.800781 L 4 15.800781 C 4 14.249581 5.2265 13 6.75 13 L 56.25 13 C 57.7735 13 59 14.249581 59 15.800781 L 59 14.800781 C 59 13.249581 57.7735 12 56.25 12 L 6.75 12 z"/>
</svg>
