<svg xmlns="http://www.w3.org/2000/svg" width="64" height="64" version="1">
 <rect style="opacity:0.2" width="56" height="56" x="4" y="5" rx="2.8" ry="2.8"/>
 <rect style="fill:#3cae48" width="56" height="56" x="4" y="4" rx="2.8" ry="2.8"/>
 <path style="opacity:0.2;stroke:#552200;stroke-width:0.18543038;stroke-opacity:0" d="m 28.68056,5.0927154 c 0.322364,0.5007922 0.515026,1.23099 0.51781,1.842317 0.0058,1.2789642 -0.56505,1.686332 -1.171888,0.8339482 C 27.686454,7.2913734 27.033106,6.888702 26.59569,6.888702 c -0.31788,0 -1.651548,0.8145612 -1.651548,1.0083686 0,0.072646 0.30424,0.09645 0.675882,0.054506 0.71125,-0.080178 0.93298,0.06204 0.93751,0.6022962 0.0046,0.4910122 -0.908436,1.5486512 -2.414634,2.7989042 -1.939304,1.609759 -2.575426,2.316648 -2.575426,2.867039 0,0.315384 -0.14102,0.54527 -0.534166,0.869377 l -0.534162,0.441502 0.23983,0.509634 c 0.329484,0.694463 0.308234,0.853836 -0.1935,1.485299 -0.589104,0.741434 -0.654113,1.026057 -0.346116,1.496202 0.30643,0.467758 0.321592,1.610624 0.04088,3.098688 -0.242289,1.284306 -0.09976,3.18317 0.35429,4.73661 0.200598,0.686358 0.82611,2.468766 1.389916,3.962616 1.200492,3.180864 1.435118,3.956508 1.637916,5.407036 0.290328,2.07667 -0.22013,3.753746 -1.509828,4.97371 -0.893714,0.845386 -1.459426,1.03763 -2.180257,0.735836 -1.458315,-0.610574 -2.40604,-2.559488 -4.104332,-8.440318 C 14.10308,27.523154 12.631862,25.060144 9.308979,22.589274 8.0095112,21.62299 5.9065152,20.143712 4.0927152,18.662087 v 18.698425 c 2.1509872,2.0623 4.7939826,3.804916 7.3256618,5.1127 0.730701,0.377468 1.363893,0.743556 1.406264,0.81215 0.04241,0.0686 -0.267183,0.16842 -0.689504,0.223474 -3.2683394,0.426024 -6.1045474,1.507038 -8.0424218,3.23768 v 11.37004 c 0,1.076488 0.6105024,1.997844 1.4989264,2.46369 0.4064682,0.18676 0.8459664,0.306162 1.291802,0.327038 H 50.295078 c 0.81463,-1.228614 1.286296,-2.713464 1.07105,-3.512938 -0.565492,-2.10048 -4.179044,-2.902312 -8.276796,-1.836866 -0.736066,0.19138 -2.456454,0.75525 -3.823628,1.250922 -1.81519,0.658078 -2.68653,0.8994 -3.229504,0.899354 -0.87026,-1.04e-4 -1.522886,-0.21408 -1.64882,-0.542338 -0.14418,-0.37574 0.229646,-2.275814 0.610474,-3.10959 0.96093,-2.103888 2.341398,-2.817594 4.186092,-2.16663 0.744486,0.262724 0.73311,0.262362 0.73311,0.06268 0,-0.087 -0.19462,-0.352642 -0.4306,-0.58867 -0.59477,-0.594862 -1.517596,-0.588462 -3.106866,0.02452 -0.64874,0.250222 -1.208956,0.426228 -1.245472,0.38972 -0.03648,-0.0365 -0.10842,-0.593478 -0.15806,-1.237296 -0.15168,-1.967516 0.302192,-2.773384 1.537082,-2.728046 l 0.686778,0.02724 -0.438774,-0.362466 c -0.601004,-0.491384 -0.997976,-0.451936 -1.676072,0.1608 -0.689716,0.623226 -1.041074,1.539176 -1.041074,2.72532 0,1.330374 -0.43097,1.302742 -1.128282,-0.07356 -0.619214,-1.222156 -0.455928,-2.725784 0.275258,-2.534548 0.3315,0.08666 0.331432,0.06322 -0.011,-0.607746 -0.511558,-1.002926 -0.464038,-1.925928 0.13082,-2.567252 0.241396,-0.260246 0.866914,-1.193838 1.39264,-2.076696 1.265322,-2.124858 2.348834,-3.527774 4.038924,-5.229888 3.123376,-3.145598 6.326326,-5.227718 13.356798,-8.680148 4.252724,-2.088372 6.461836,-3.062624 7.808026,-3.777298 v -2.286546 c -1.511096,0.720168 -3.44388,1.491886 -5.385234,2.3465 -5.120568,2.254178 -9.165044,4.275768 -11.318256,5.660492 -3.536964,2.274604 -6.80484,5.225384 -8.930878,8.064224 -0.634954,0.847854 -1.2156,1.542532 -1.291802,1.542532 -0.07622,0 -0.347984,-0.286886 -0.602298,-0.637726 -0.437498,-0.603576 -0.464618,-0.721816 -0.512358,-2.180258 l -0.05174,-1.539802 -0.583218,-0.585944 c -0.512166,-0.512232 -0.567886,-0.630968 -0.452404,-0.975666 0.22365,-0.667592 -0.02844,-1.329164 -0.81487,-2.136652 -0.645592,-0.66291 -0.725758,-0.809362 -0.659528,-1.229118 0.09244,-0.586198 -0.19082,-1.061992 -0.90208,-1.501652 -0.369544,-0.228416 -0.523262,-0.426942 -0.523262,-0.684056 0,-0.19948 -0.12624,-0.6062 -0.280708,-0.904806 -1.416038,-2.737762 -1.397086,-3.520618 0.07086,-2.962424 0.602112,0.22896 0.850414,0.06698 1.13646,-0.738562 0.14922,-0.420242 0.41654,-0.836914 0.624098,-0.972938 0.524152,-0.343494 1.361372,-0.17438 1.825964,0.367916 0.53657,0.626298 1.103074,0.941786 1.477126,0.823048 0.288358,-0.09154 0.312046,-0.17066 0.231652,-0.855752 -0.260916,-2.223126 -0.283624,-2.886112 -0.09266,-2.886112 0.10506,0 0.727732,0.546598 1.384464,1.212766 1.01036,1.02486 1.324006,1.469078 2.033088,2.88884 0.460912,0.922866 0.836674,1.832038 0.836674,2.019462 0,0.18742 0.0609,0.340666 0.13354,0.340666 0.1759,0 0.278132,-1.275254 0.1499,-1.86957 -0.08156,-0.377826 -0.05102,-0.48773 0.15534,-0.55324 0.2306,-0.07324 0.19964,-0.202104 -0.30251,-1.201866 -0.545186,-1.085412 -1.209392,-2.837682 -1.111932,-2.935172 0.02642,-0.02642 0.592018,-0.12406 1.256372,-0.218024 1.475094,-0.208648 2.55185,-0.0438 3.938092,0.605022 0.524218,0.245354 0.976346,0.44695 1.005642,0.44695 0.02932,0 -0.0148,-0.1813 -0.09812,-0.403346 -0.207822,-0.554044 -1.239242,-1.594492 -3.068656,-3.087794 -1.56704,-1.279151 -2.48098,-2.183301 -2.490944,-2.466416 -0.01924,-0.54796 -0.526342,-1.731046 -1.030172,-2.406458 -0.975212,-1.307316 -0.81034,-1.609474 1.062878,-1.943154 0.618736,-0.110186 0.923176,-0.249343 1.136458,-0.520536 0.360544,-0.45842 0.375914,-0.690512 0.03542,-0.54779 -0.41318,0.173172 -1.673498,0.389572 -1.760556,0.302511 -0.04392,-0.04391 0.1888,-0.373394 0.51781,-0.730386 0.650954,-0.7063246 1.21001,-1.6846876 1.199142,-2.1012222 -0.0036,-0.144774 -0.16526,0.043696 -0.362466,0.4224248 -0.441716,0.8484096 -0.8514,1.1473598 -1.569786,1.1473598 -0.304972,0 -0.555968,-0.024442 -0.555968,-0.057232 0,-0.032906 0.19892,-0.5030096 0.441504,-1.043798 0.620626,-1.3834852 0.679122,-2.0713256 0.269808,-2.7062428 l -0.02726,-0.043604 H 35.69824 L 35.641,5.749515 c -0.17964,1.7152232 -0.783066,3.0496376 -1.381738,3.0496376 -0.11876,0 -0.330986,-0.13557 -0.471484,-0.2997854 C 33.581756,8.2585178 33.531338,7.910598 33.528906,6.7006546 33.527784,6.0524562 33.497166,5.4663142 33.422626,5.0927154 H 32.670438 C 32.750458,6.1657058 32.488858,7.166858 31.890996,7.730826 31.610672,7.995229 31.338046,8.2111082 31.28324,8.2104824 31.22844,8.2099148 31.17546,7.7843602 31.16606,7.2675216 31.15026,6.3982052 30.95547,5.5932306 30.593738,5.0927154 Z m 2.668088,44.6080506 0.504184,0.294334 c 0.782182,0.4569 1.163714,1.136038 1.163714,2.068518 0,1.243138 -0.243686,1.55855 -1.798714,2.311072 -0.74526,0.360642 -1.949654,0.828378 -2.676266,1.038348 -1.374784,0.397302 -3.459892,0.602658 -3.959888,0.38972 -0.254048,-0.1082 -0.17488,-0.208626 0.659526,-0.823046 0.522342,-0.384626 1.380888,-0.954196 1.907726,-1.267274 0.526826,-0.313068 1.350006,-0.887034 1.828688,-1.272724 0.788644,-0.635462 1.116324,-1.002432 2.068518,-2.319248 z M 31.08429,55.77278 c 0.450764,-0.0024 0.704008,0.291048 1.185516,0.942962 0.326738,0.442372 0.661488,0.845614 0.744012,0.89663 0.269838,0.1668 0.15798,0.367918 -0.204398,0.367918 -0.19514,0 -1.050026,0.339082 -1.899548,0.752188 -1.659786,0.807128 -2.621242,1.01512 -3.10414,0.67588 -0.16146,-0.11342 -0.672236,-0.360946 -1.136458,-0.550516 -0.464226,-0.18956 -0.84485,-0.385268 -0.84485,-0.43605 0,-0.19198 0.83384,-0.861228 1.468946,-1.180064 0.36331,-0.1824 1.343594,-0.616168 2.180258,-0.962038 0.789316,-0.32631 1.260062,-0.50524 1.610662,-0.50691 z"/>
 <path style="fill:#ffffff;stroke:#552200;stroke-width:0.18543038;stroke-opacity:0" d="m 28.68056,4.0927166 c 0.322364,0.5007922 0.515026,1.23099 0.51781,1.842317 0.0058,1.2789642 -0.56505,1.686332 -1.171888,0.8339482 -0.340028,-0.4776072 -0.993376,-0.8802786 -1.430792,-0.8802786 -0.31788,0 -1.651548,0.8145612 -1.651548,1.0083686 0,0.072646 0.30424,0.09645 0.675882,0.054506 0.71125,-0.080178 0.93298,0.06204 0.93751,0.6022962 0.0046,0.4910124 -0.908436,1.5486514 -2.414634,2.798904 -1.939304,1.609759 -2.575426,2.316648 -2.575426,2.86704 0,0.315383 -0.14102,0.545269 -0.534166,0.869376 l -0.534162,0.441502 0.23983,0.509634 c 0.329484,0.694463 0.308234,0.853836 -0.1935,1.485299 -0.589104,0.741435 -0.654113,1.026057 -0.346116,1.496203 0.30643,0.467758 0.321592,1.610623 0.04088,3.098688 -0.242289,1.284306 -0.09976,3.18317 0.35429,4.73661 0.200598,0.686358 0.82611,2.468766 1.389916,3.962616 1.200492,3.180864 1.435118,3.956508 1.637916,5.407036 0.290328,2.07667 -0.22013,3.753746 -1.509828,4.97371 -0.893714,0.845386 -1.459426,1.03763 -2.180257,0.735836 C 18.473962,40.325754 17.526237,38.37684 15.827945,32.49601 14.10308,26.523156 12.631862,24.060146 9.308979,21.589276 8.0095112,20.622992 5.9065152,19.143713 4.0927152,17.662088 v 18.698426 c 2.1509872,2.0623 4.7939826,3.804916 7.3256618,5.1127 0.730701,0.377468 1.363893,0.743556 1.406264,0.81215 0.04241,0.0686 -0.267183,0.16842 -0.689504,0.223474 -3.2683394,0.426024 -6.1045474,1.507038 -8.0424218,3.23768 v 11.37004 c 0,1.076488 0.6105024,1.997844 1.4989264,2.46369 0.4064682,0.18676 0.8459664,0.306162 1.291802,0.327038 H 50.295078 c 0.81463,-1.228614 1.286296,-2.713464 1.07105,-3.512938 -0.565492,-2.10048 -4.179044,-2.902312 -8.276796,-1.836866 -0.736066,0.19138 -2.456454,0.75525 -3.823628,1.250922 -1.81519,0.658078 -2.68653,0.8994 -3.229504,0.899354 -0.87026,-1.04e-4 -1.522886,-0.21408 -1.64882,-0.542338 -0.14418,-0.37574 0.229646,-2.275814 0.610474,-3.10959 0.96093,-2.103888 2.341398,-2.817594 4.186092,-2.16663 0.744486,0.262724 0.73311,0.262362 0.73311,0.06268 0,-0.087 -0.19462,-0.352642 -0.4306,-0.58867 -0.59477,-0.594862 -1.517596,-0.588462 -3.106866,0.02452 -0.64874,0.250222 -1.208956,0.426228 -1.245472,0.38972 -0.03648,-0.0365 -0.10842,-0.593478 -0.15806,-1.237296 -0.15168,-1.967516 0.302192,-2.773384 1.537082,-2.728046 l 0.686778,0.02724 -0.438774,-0.362466 c -0.601004,-0.491384 -0.997976,-0.451936 -1.676072,0.1608 -0.689716,0.623226 -1.041074,1.539176 -1.041074,2.72532 0,1.330374 -0.43097,1.302742 -1.128282,-0.07356 -0.619214,-1.222156 -0.455928,-2.725784 0.275258,-2.534548 0.3315,0.08666 0.331432,0.06322 -0.011,-0.607746 -0.511558,-1.002926 -0.464038,-1.925928 0.13082,-2.567252 0.241396,-0.260246 0.866914,-1.193838 1.39264,-2.076696 1.265322,-2.124858 2.348834,-3.527774 4.038924,-5.229888 3.123376,-3.145598 6.326326,-5.227718 13.356798,-8.680148 4.252724,-2.088372 6.461836,-3.062624 7.808026,-3.777298 V 21.52932 c -1.511096,0.720168 -3.44388,1.491886 -5.385234,2.3465 -5.120568,2.254178 -9.165044,4.275768 -11.318256,5.660492 -3.536964,2.274604 -6.80484,5.225384 -8.930878,8.064224 -0.634954,0.847854 -1.2156,1.542532 -1.291802,1.542532 -0.07622,0 -0.347984,-0.286886 -0.602298,-0.637726 -0.437498,-0.603576 -0.464618,-0.721816 -0.512358,-2.180258 l -0.05174,-1.539802 -0.583218,-0.585944 c -0.512166,-0.512232 -0.567886,-0.630968 -0.452404,-0.975666 0.22365,-0.667592 -0.02844,-1.329164 -0.81487,-2.136652 -0.645592,-0.66291 -0.725758,-0.809362 -0.659528,-1.229118 0.09244,-0.586198 -0.19082,-1.061992 -0.90208,-1.501652 -0.369544,-0.228416 -0.523262,-0.426942 -0.523262,-0.684056 0,-0.19948 -0.12624,-0.6062 -0.280708,-0.904806 -1.416038,-2.737762 -1.397086,-3.520618 0.07086,-2.962424 0.602112,0.22896 0.850414,0.06698 1.13646,-0.738562 0.14922,-0.420242 0.41654,-0.836914 0.624098,-0.972938 0.524152,-0.343494 1.361372,-0.17438 1.825964,0.367916 0.53657,0.626298 1.103074,0.941786 1.477126,0.823048 0.288358,-0.09154 0.312046,-0.17066 0.231652,-0.855752 -0.260916,-2.223126 -0.283624,-2.886113 -0.09266,-2.886113 0.10506,0 0.727732,0.546599 1.384464,1.212767 1.01036,1.02486 1.324006,1.469078 2.033088,2.88884 0.460912,0.922866 0.836674,1.832038 0.836674,2.019462 0,0.18742 0.0609,0.340666 0.13354,0.340666 0.1759,0 0.278132,-1.275254 0.1499,-1.86957 -0.08156,-0.377826 -0.05102,-0.48773 0.15534,-0.55324 0.2306,-0.07324 0.19964,-0.202104 -0.30251,-1.201866 -0.545186,-1.085412 -1.209392,-2.837682 -1.111932,-2.935173 0.02642,-0.02642 0.592018,-0.124054 1.256372,-0.218023 1.475094,-0.208649 2.55185,-0.04379 3.938092,0.605021 0.524218,0.245355 0.976346,0.446951 1.005642,0.446951 0.02932,0 -0.0148,-0.1813 -0.09812,-0.403347 -0.207822,-0.554044 -1.239242,-1.594492 -3.068656,-3.087794 -1.56704,-1.27915 -2.48098,-2.183301 -2.490944,-2.466416 -0.01924,-0.54796 -0.526342,-1.731046 -1.030172,-2.406458 -0.975212,-1.307316 -0.81034,-1.609474 1.062878,-1.9431536 0.618736,-0.110186 0.923176,-0.2493428 1.136458,-0.5205362 0.360544,-0.45842 0.375914,-0.690512 0.03542,-0.5477896 -0.41318,0.173172 -1.673498,0.3895716 -1.760556,0.3025108 -0.04392,-0.043914 0.1888,-0.3733944 0.51781,-0.730386 0.650954,-0.7063248 1.21001,-1.6846878 1.199142,-2.1012224 -0.0036,-0.144774 -0.16526,0.043696 -0.362466,0.4224248 -0.441716,0.8484096 -0.8514,1.1473598 -1.569786,1.1473598 -0.304972,0 -0.555968,-0.024442 -0.555968,-0.057232 0,-0.032906 0.19892,-0.5030096 0.441504,-1.043798 0.620626,-1.3834852 0.679122,-2.0713256 0.269808,-2.7062428 l -0.02726,-0.043604 H 35.69824 L 35.641,4.7495162 c -0.17964,1.7152232 -0.783066,3.0496376 -1.381738,3.0496376 -0.11876,0 -0.330986,-0.13557 -0.471484,-0.2997854 -0.206022,-0.2408494 -0.25644,-0.5887692 -0.258872,-1.7987126 -0.0011,-0.6481984 -0.03174,-1.2343404 -0.10628,-1.6079392 h -0.752188 c 0.08002,1.0729904 -0.18158,2.0741426 -0.779442,2.6381106 -0.280324,0.264403 -0.55295,0.4802822 -0.607756,0.4796564 C 31.22844,7.209916 31.17546,6.7843614 31.16606,6.2675228 31.15026,5.3982064 30.95547,4.5932318 30.593738,4.0927166 Z m 2.668088,44.6080514 0.504184,0.294334 c 0.782182,0.4569 1.163714,1.136038 1.163714,2.068518 0,1.243138 -0.243686,1.55855 -1.798714,2.311072 -0.74526,0.360642 -1.949654,0.828378 -2.676266,1.038348 -1.374784,0.397302 -3.459892,0.602658 -3.959888,0.38972 -0.254048,-0.1082 -0.17488,-0.208626 0.659526,-0.823046 0.522342,-0.384626 1.380888,-0.954196 1.907726,-1.267274 0.526826,-0.313068 1.350006,-0.887034 1.828688,-1.272724 0.788644,-0.635462 1.116324,-1.002432 2.068518,-2.319248 z m -0.264358,6.072014 c 0.450764,-0.0024 0.704008,0.291048 1.185516,0.942962 0.326738,0.442372 0.661488,0.845614 0.744012,0.89663 0.269838,0.1668 0.15798,0.367918 -0.204398,0.367918 -0.19514,0 -1.050026,0.339082 -1.899548,0.752188 -1.659786,0.807128 -2.621242,1.01512 -3.10414,0.67588 -0.16146,-0.11342 -0.672236,-0.360946 -1.136458,-0.550516 -0.464226,-0.18956 -0.84485,-0.385268 -0.84485,-0.43605 0,-0.19198 0.83384,-0.861228 1.468946,-1.180064 0.36331,-0.1824 1.343594,-0.616168 2.180258,-0.962038 0.789316,-0.32631 1.260062,-0.50524 1.610662,-0.50691 z"/>
 <path style="opacity:0.2;fill:#ffffff" d="M 6.8007812 4 C 5.2495812 4 4 5.2495812 4 6.8007812 L 4 7.8007812 C 4 6.2495813 5.2495812 5 6.8007812 5 L 57.199219 5 C 58.750419 5 60 6.2495812 60 7.8007812 L 60 6.8007812 C 60 5.2495813 58.750419 4 57.199219 4 L 6.8007812 4 z"/>
</svg>
