<svg xmlns="http://www.w3.org/2000/svg" width="64" height="64" version="1">
 <rect style="fill:#713a9d" width="56" height="56" x="4" y="4" rx="3" ry="3"/>
 <path style="fill:#ffffff;opacity:0.1" d="m7 4c-1.662 0-3 1.338-3 3v1c0-1.662 1.338-3 3-3h50c1.662 0 3 1.338 3 3v-1c0-1.662-1.338-3-3-3h-50z"/>
 <path style="opacity:0.2" d="m4 57v1c0 1.662 1.338 3 3 3h50c1.662 0 3-1.338 3-3v-1c0 1.662-1.338 3-3 3h-50c-1.662 0-3-1.338-3-3z"/>
 <path style="opacity:0.5;fill:#ffffff" d="m 30,29 v 6 h 17 c 1.662,0 3,-1.338 3,-3 0,-1.662 -1.338,-3 -3,-3 z m 6,16 v 6 h 11 c 1.662,0 3,-1.338 3,-3 0,-1.662 -1.338,-3 -3,-3 z"/>
 <path style="fill:#f44336" d="M 43,13 H 17 c -1.662,0 -3,1.338 -3,3 0,1.662 1.338,3 3,3 h 26 z"/>
 <path style="fill:#03a9f4" d="M 37,45 H 17 C 15.338,45 14,46.338 14,48 14,49.662 15.338,51 17,51 H 37 Z"/>
 <path style="fill:#4caf50" d="M 28,29 H 17 C 15.338,29 14,30.338 14,32 14,33.662 15.338,35 17,35 H 28 Z"/>
 <path style="opacity:0.2" d="m 50,17 c 0,-3.314 -2.686,-6 -6,-6 -3.314,0 -6,2.686 -6,6 0,3.314 2.686,6 6,6 3.314,0 6,-2.686 6,-6 z"/>
 <path style="opacity:0.2" d="m 42,49 c 0,-3.314 -2.686,-6 -6,-6 -3.314,0 -6,2.686 -6,6 0,3.314 2.686,6 6,6 3.314,0 6,-2.686 6,-6 z"/>
 <path style="opacity:0.2" d="m 36,33 c 0,-3.314 -2.686,-6 -6,-6 -3.314,0 -6,2.686 -6,6 0,3.314 2.686,6 6,6 3.314,0 6,-2.686 6,-6 z"/>
 <path style="fill:#ffffff" d="m 50,16 c 0,-3.314 -2.686,-6 -6,-6 -3.314,0 -6,2.686 -6,6 0,3.314 2.686,6 6,6 3.314,0 6,-2.686 6,-6 z"/>
 <path style="fill:#ffffff" d="m 42,48 c 0,-3.314 -2.686,-6 -6,-6 -3.314,0 -6,2.686 -6,6 0,3.314 2.686,6 6,6 3.314,0 6,-2.686 6,-6 z"/>
 <path style="fill:#ffffff" d="m 36,32 c 0,-3.314 -2.686,-6 -6,-6 -3.314,0 -6,2.686 -6,6 0,3.314 2.686,6 6,6 3.314,0 6,-2.686 6,-6 z"/>
</svg>
