<svg xmlns="http://www.w3.org/2000/svg" width="64" height="64" version="1.1">
 <path style="opacity:0.2" d="m 6.592604,4.9999989 c -1.4362958,0 -2.5925916,1.1564354 -2.5925916,2.592904 V 47.843114 c 0,1.43647 1.1562958,3.157438 2.5925916,3.157772 h 14.64409 l 10.086802,9.722242 c 0.385196,0.363672 0.978442,0.374614 1.353008,0 l 10.086802,-9.722242 h 14.64409 c 1.436296,0 2.592592,-1.721302 2.592592,-3.157772 V 7.5929029 c 0,-1.4364686 -1.156296,-2.592904 -2.592592,-2.592904 z"/>
 <path style="fill:#e4e4e4" d="m 6.592604,3.9999998 c -1.4362958,0 -2.5925916,1.1564354 -2.5925916,2.592904 V 46.843114 c 0,1.43647 1.1562958,3.157438 2.5925916,3.157772 h 14.64409 l 10.086802,9.722242 c 0.385196,0.363672 0.978442,0.374614 1.353008,0 l 10.086802,-9.722242 h 14.64409 c 1.436296,0 2.592592,-1.721302 2.592592,-3.157772 V 6.5929038 c 0,-1.4364686 -1.156296,-2.592904 -2.592592,-2.592904 z"/>
 <path style="opacity:0.1" d="M 50,27.997464 C 50,37.384906 42.713402,45.22817 32,44.994928 22.061318,44.778552 14,38.31787 14,27.997464 14,17.61875 22.058876,11.000001 32,11.000001 c 9.941124,0 18,6.793679 18,16.997463 z"/>
 <path style="fill:#ffae2e" d="M 50,26.997464 C 50,36.384906 42.713402,44.22817 32,43.994928 22.061318,43.778552 14,37.31787 14,26.997464 14,16.618749 22.058876,10.000001 32,10.000001 c 9.941124,0 18,6.793679 18,16.997463 z"/>
 <path style="opacity:0.1" d="m 25.5,18 c -1.309378,0 -2.5,1.127386 -2.5,3 0,1.872614 1.190622,3 2.5,3 1.309374,0 2.5,-1.127386 2.5,-3 0,-1.872614 -1.190626,-3 -2.5,-3 z m 13,0 c -1.309376,0 -2.5,1.127386 -2.5,3 0,1.872614 1.190624,3 2.5,3 1.309376,0 2.5,-1.127386 2.5,-3 0,-1.872614 -1.190624,-3 -2.5,-3 z M 18,27 c 1.752636,7.607032 6.406172,12 14,12 7.59383,0 12.247364,-4.392968 14,-12 0,0 -8.649488,1.503906 -14,1.503906 C 26.64949,28.503906 18,27 18,27 Z"/>
 <path style="fill:#3d3d3d" d="m 38.5,17 c 1.309376,0 2.5,1.127387 2.5,3 0,1.872614 -1.190624,3 -2.5,3 -1.309376,0 -2.5,-1.127386 -2.5,-3 0,-1.872613 1.190624,-3 2.5,-3 z"/>
 <path style="fill:#3d3d3d" d="M 25.500002,17 C 24.190624,17 23,18.127387 23,20 c 0,1.872614 1.190624,3 2.500002,3 C 26.809376,23 28,21.872614 28,20 28,18.127387 26.809376,17 25.500002,17 Z"/>
 <path style="fill:#3d3d3d" d="M 18.000319,26.00049 C 19.752956,33.607522 24.406206,38 32.000034,38 c 7.59383,0 12.247082,-4.392478 13.999718,-11.99951 0,0 -8.649206,1.50197 -13.999718,1.50197 -5.35051,0 -13.999715,-1.50197 -13.999715,-1.50197 z"/>
 <path style="fill:#ff6153" d="m 32.207674,34 c -2.738828,6.36e-4 -5.26179,0.97673 -6.590568,2.689198 C 27.44537,37.549026 29.571674,38 32.000034,38 34.559352,38 36.783342,37.499168 38.676168,36.546408 37.318294,34.915922 34.8616,34.002442 32.207674,34 Z"/>
 <path style="opacity:0.2" d="m 18,27 c 0.12166,0.528026 0.260792,1.037406 0.410412,1.534062 C 20.897642,30.543508 26.343456,30.997076 32.345764,31 37.66577,30.9972 42.601806,30.817762 45.387812,29.150614 45.617628,28.46296 45.826846,27.751544 46,27 c 0,0 -8.64949,1 -14,1 -5.35051,0 -14,-1 -14,-1 z"/>
 <path style="fill:#fdfdff" d="m 18,26 c 0.12166,0.528026 0.260792,1.037406 0.410412,1.534062 C 20.897642,29.543508 26.343456,29.997076 32.345764,30 37.66577,29.9972 42.601806,29.817762 45.387812,28.150614 45.617628,27.46296 45.826846,26.751544 46,26 c 0,0 -8.64949,1 -14,1 -5.35051,0 -14,-1 -14,-1 z"/>
 <path style="opacity:0.2;fill:#ffffff" d="M 6.59375 4 C 5.1574542 4 4 5.1572814 4 6.59375 L 4 7.59375 C 4 6.1572814 5.1574542 5 6.59375 5 L 57.40625 5 C 58.842546 5 60 6.1572814 60 7.59375 L 60 6.59375 C 60 5.1572814 58.842546 4 57.40625 4 L 6.59375 4 z"/>
</svg>
