<svg xmlns="http://www.w3.org/2000/svg" width="64" height="64" version="1.1">
 <rect style="opacity:0.2" width="56" height="56" x="4" y="5" rx="11.2" ry="11.2"/>
 <rect style="fill:#80502e" width="56" height="56" x="4" y="4" rx="11.2" ry="11.2"/>
 <path style="opacity:0.2" d="M 22,24.764707 V 43.882354 C 27.943244,47.807399 35.479383,50.157533 42,53 V 45.857143 C 34.84287,44.302407 29.046933,40.990246 29.047059,40.303922 29.047324,38.490196 29.023529,36 29.023529,36 H 38 v -6 h -8.999999 c 0,0 -0.04508,-1.804296 -0.04706,-2.735289 C 28.951841,26.71217 35.604767,22.215989 41,20.142857 V 13 c -6.053863,3.11183 -13.721457,7.27416 -19,11.764707 z"/>
 <path style="fill:#ffffff" d="M 22,23.764707 V 42.882354 C 27.943244,46.807399 35.479383,49.157533 42,52 V 44.857143 C 34.84287,43.302407 29.046933,39.990246 29.047059,39.303922 29.047324,37.490196 29.023529,35 29.023529,35 H 38 v -6 h -8.999999 c 0,0 -0.04508,-1.804296 -0.04706,-2.735289 C 28.951841,25.71217 35.604767,21.215989 41,19.142857 V 12 c -6.053863,3.11183 -13.721457,7.27416 -19,11.764707 z"/>
 <path style="fill:#ffffff;opacity:0.1" d="M 15.199219 4 C 8.9944189 4 4 8.9944189 4 15.199219 L 4 16.199219 C 4 9.9944189 8.9944189 5 15.199219 5 L 48.800781 5 C 55.005581 5 60 9.9944189 60 16.199219 L 60 15.199219 C 60 8.9944189 55.005581 4 48.800781 4 L 15.199219 4 z"/>
</svg>
