<svg xmlns="http://www.w3.org/2000/svg" width="64" height="64" version="1">
 <path style="opacity:0.2" d="M 4.0508,32 C 4.039,32.334 4,32.662 4,33 4,48.512 16.488,61 32,61 47.512,61 60,48.512 60,33 c 0,-0.33768 -0.03904,-0.66528 -0.05078,-1 -0.528,15.042 -12.776,27 -27.95,27 -15.1744,0 -27.422,-11.958 -27.95,-27 z"/>
 <rect style="fill:#4f4f4f" width="56" height="56" x="4" y="4" rx="28" ry="28"/>
 <path style="opacity:0.2" d="m 35.1412,18.993041 c -6.0576,0 -11.0624,4.9492 -11.0624,11 0,2.2998 0.77842,4.4156 2,6.1876 l -7.375,7.375 a 2.011,2.011 0 0 0 2.8126,2.875 l 7.375,-7.375 c 1.77458,1.22182 3.946,1.9375 6.25,1.9375 6.0578,0 11,-4.9492 11,-11 0,-6.0508 -4.9422,-11 -11,-11 z m 0,4 c 3.8948,0 7,3.1096 7,7 0,3.8902 -3.1052,7 -7,7 -3.8948,0 -7,-3.1098 -7,-7 0,-3.8904 3.1052,-7 7,-7 z"/>
 <path style="opacity:0.1;fill:#ffffff" d="M 32 4 C 16.488 4 4 16.488 4 32 C 4 32.113556 4.0112845 32.224032 4.0175781 32.335938 C 4.3691213 17.134181 16.710728 5 32 5 L 32.001953 5 C 47.291226 5 59.632832 17.134181 59.984375 32.335938 C 59.990646 32.224113 60.001953 32.113448 60.001953 32 C 60.001953 16.488 47.513953 4 32.001953 4 L 32 4 z"/>
 <path style="fill:#ffffff" d="m 35.1412,17.989 c -6.0576,0 -11.0624,4.9492 -11.0624,11 0,2.2998 0.77842,4.4156 2,6.1876 l -7.375,7.375 a 2.011,2.011 0 0 0 2.8126,2.875 l 7.375,-7.375 c 1.77458,1.22182 3.946,1.9375 6.25,1.9375 6.0578,0 11,-4.9492 11,-11 0,-6.0508 -4.9422,-11 -11,-11 z m 0,4 c 3.8948,0 7,3.1096 7,7 0,3.8902 -3.1052,7 -7,7 -3.8948,0 -7,-3.1098 -7,-7 0,-3.8904 3.1052,-7 7,-7 z"/>
</svg>
