<svg xmlns="http://www.w3.org/2000/svg" width="64" height="64" version="1.1">
 <path style="opacity:0.2" d="M 19.154,61 C 17.443,61 15.344,59.773 14.49,58.274 L 1.6407,35.726 C 0.78643,34.227 0.78643,31.773 1.6407,30.274 L 14.49,7.7258 C 15.344,6.2266 17.443,5 19.154,5 H 44.846 C 46.556,5 48.655,6.2266 49.509,7.7258 L 62.359,30.274 C 63.213,31.773 63.213,34.227 62.359,35.726 L 49.509,58.274 C 48.655,59.773 46.557,61 44.846,61 Z"/>
 <path style="fill:#0d597f" d="M 19.154,60 C 17.443,60 15.344,58.773 14.49,57.274 L 1.6407,34.726 C 0.78643,33.227 0.78643,30.773 1.6407,29.274 L 14.49,6.7258 C 15.344,5.2266 17.443,4 19.154,4 H 44.846 C 46.556,4 48.655,5.2266 49.509,6.7258 L 62.359,29.274 C 63.213,30.773 63.213,33.227 62.359,34.726 L 49.509,57.274 C 48.655,58.773 46.557,60 44.846,60 Z"/>
 <path style="opacity:0.2" d="M 26,23 10,40 H 17 L 26,30 34,40 H 41 L 36,35 40,32 48,40 H 55 L 40,25 33,31 Z M 24,35 20,40 H 24 Z"/>
 <path style="fill:#ffffff" d="M 26,22 10,39 H 17 L 26,29 34,39 H 41 L 36,34 40,31 48,39 H 55 L 40,24 33,30 Z M 24,34 20,39 H 24 Z"/>
 <path style="fill:#ffffff;opacity:0.1" d="M 19.154 4 C 17.443 4 15.344 5.2274 14.49 6.7266 L 1.6406 29.273 C 1.1412 30.15 0.94278 31.352 1.0273 32.5 C 1.0874 31.685 1.2858 30.896 1.6406 30.273 L 14.49 7.7266 C 15.344 6.2274 17.443 5 19.154 5 L 44.846 5 C 46.556 5 48.656 6.2274 49.51 7.7266 L 62.359 30.273 C 62.714 30.896 62.913 31.685 62.973 32.5 C 63.057 31.352 62.859 30.15 62.359 29.273 L 49.51 6.7266 C 48.656 5.2274 46.556 4 44.846 4 L 19.154 4 z"/>
</svg>
