<svg xmlns="http://www.w3.org/2000/svg" width="64" height="64" version="1.1">
 <rect style="opacity:.2" width="56" height="56" x="4" y="5" rx="3" ry="3"/>
 <path style="fill:#4f4f4f" d="m 7,4 h 24.09151 l 25.136715,1.9845645 c 1.656844,0.1308092 2.213932,2.5554626 2.338478,4.2127895 L 60,29.270121 v 5.292172 l -1.212789,18.027564 c -0.111558,1.658251 -2.000402,6.584282 -3.661522,6.638368 L 31.422271,60 H 7 C 5.338,60 4,58.662 4,57 V 7 C 4,5.338 5.338,4 7,4 Z"/>
 <path style="fill:#ffffff;opacity:.1" d="m7 4c-1.662 0-3 1.338-3 3v1c0-1.662 1.338-3 3-3h50c1.662 0 3 1.338 3 3v-1c0-1.662-1.338-3-3-3h-50z"/>
 <path style="opacity:.2" d="m31 5v26h6.857422l3.142578-22h10l2.693359 22h6.306641v-23c0-1.662-1.338-3-3-3h-26zm15 15-1.158203 11h2.025391l-0.867188-11zm-15 15v23h3l3.285156-23h-6.285156zm13.419922 0-0.736328 7h4.052734l-0.552734-7h-2.763672zm9.763672 0 2.816406 23h3v-23h-5.816406zm-11.13086 13-1.052734 10h7l-0.789062-10h-5.158204z"/>
 <path style="fill:#e4e4e4" d="m31 4v26h6.857422l3.142578-22h10l2.693359 22h6.306641v-23c0-1.662-1.338-3-3-3h-26zm15 15-1.158203 11h2.025391l-0.867188-11zm-15 15v26h26c1.662 0 3-1.338 3-3v-23h-5.816406l2.816406 23h-8l-0.789062-10h-5.158204l-1.052734 10h-8l3.285156-23h-6.285156zm13.419922 0-0.736328 7h4.052734l-0.552734-7h-2.763672z"/>
 <path style="opacity:.2" d="m7 8v23h9v-14h4v14h10v-15s0-8-8-8zm0 27v23h15c8 0 8-7 8-7v-16h-10v15h-4v-15z"/>
 <path style="fill:#edd20c" d="m7 7v23h9v-14h4v14h10v-15s0-8-8-8h-15zm0 27v23h15c8 0 8-7 8-7v-16h-10v15h-4v-15h-9z"/>
 <path style="fill:#ffffff;opacity:.2" d="m31 4v1h26c1.662 0 3 1.338 3 3v-1c0-1.662-1.338-3-3-3h-26zm15 15-1.158203 11h0.105469l1.052734-10 0.789062 10h0.078126l-0.867188-11zm-15 15v1h6.142578l0.142578-1h-6.285156zm13.419922 0-0.736328 7h0.105468l0.63086-6h2.763672l0.474609 6h0.078125l-0.552734-7h-2.763672zm9.763672 0 0.123047 1h5.693359v-1h-5.816406zm-11.13086 13-1.052734 10h-7.857422l-0.142578 1h8l1.052734-10h5.158204l0.789062 10h8l-0.123047-1h-7.876953l-0.789062-10h-5.158204z"/>
 <path style="fill:#ffffff;opacity:.2" d="m7 7v1h15c8 0 8 8 8 8v-1s0-8-8-8h-15zm0 27v1h9v-1h-9zm13 0v1h10v-1h-10zm-4 15v1h4v-1h-4z"/>
 <path style="fill:#e4e4e4" d="m31 4v26h6.857422l3.142578-22h10l2.693359 22h6.306641v-23c0-1.662-1.338-3-3-3h-26zm15 15-1.158203 11h2.025391l-0.867188-11zm-15 15v26h26c1.662 0 3-1.338 3-3v-23h-5.816406l2.816406 23h-8l-0.789062-10h-5.158204l-1.052734 10h-8l3.285156-23h-6.285156zm13.419922 0-0.736328 7h4.052734l-0.552734-7h-2.763672z"/>
</svg>
