<svg width="64" height="64" version="1.1" xmlns="http://www.w3.org/2000/svg">
 <path d="m18 41s5.600001 9 14 9c11.199999 0 17-6 20-6 5 0 8 3 8 6 0 5-16 11-28 11-13.999998 0-28-11-28-23 0-9 4-33 36.399996-33 14.600004 2e-7 19.599992 4.9999996 19.599998 14 6e-6 9-6.999994 15-19.999994 20-7.974508 3.067119-22 2-22 2z" style="opacity:.2"/>
 <path d="m18 40s5.600001 9 14 9c11.199999 0 17-6 20-6 5 0 8 3 8 6 0 5-16 11-28 11-13.999998 0-28-11-28-23 0-9 4-33 36.399996-33 14.600004 2e-7 19.599992 4.9999996 19.599998 14s-6.999994 15-19.999994 20c-7.974508 3.067119-22 2-22 2z" style="fill:#00d792"/>
 <circle cx="32" cy="22" r="11" style="opacity:.2"/>
 <circle cx="32" cy="21" r="11" style="fill:#ffffff"/>
 <path d="m40.400391 4c-32.399996-4e-7 -36.400391 24-36.400391 33 0 0.146337 0.0114865 0.291479 0.015625 0.4375 0.1574691-9.37375 4.5992994-32.4375 36.384766-32.4375 14.280623 2e-7 19.361998 4.7943027 19.578125 13.425781 0.003627-0.143404 0.021484-0.280828 0.021484-0.425781-6e-6 -9.0000004-4.999605-14-19.599609-14zm-22.400391 37s5.600001 9 14 9c11.199999 0 17-6 20-6 4.671011 0 7.594218 2.61773 7.958984 5.408203 0.023109-0.136845 0.041016-0.272688 0.041016-0.408203 0-3-3-6-8-6-3 0-8.800001 6-20 6-6.679527 0-11.532957-5.631721-13.263672-7.962891-0.167057-0.010867-0.736328-0.037109-0.736328-0.037109z" style="fill:#ffffff;opacity:.2"/>
</svg>
