<svg xmlns="http://www.w3.org/2000/svg" width="64" height="64" version="1">
 <rect style="opacity:0.2" width="56" height="56" x="4" y="5" rx="2.8" ry="2.8"/>
 <rect style="fill:#8a4b2c" width="56" height="56" x="4" y="4" rx="2.8" ry="2.8"/>
 <path style="opacity:0.2" d="m 19.440385,56.858101 c 0.0308,-0.07962 0.120022,-0.630138 0.198266,-1.223376 0.469541,-3.560272 0.436579,-5.84177 1.362423,-7.362902 0.17054,-0.2802 0.655736,-0.899836 1.078196,-1.376968 0.42246,-0.47713 0.768108,-0.775738 0.768108,-0.834116 0,-0.07328 -0.12256,-0.0865 -0.39569,-0.04274 C 21.146186,46.227203 20.3587,45.989819 20,45.377713 c -0.1859,-0.317226 0.02484,0.09048 0,-7.740206 -0.02854,-8.997844 0.06708,-8.135304 0.892198,-8.549462 0.596878,-0.299604 1.340282,-0.76524 1.998004,-0.870284 1.1199,-0.17886 1.880026,0.651676 2.435326,1.734736 0.1521,0.296658 0.325472,0.52056 0.387266,0.500146 0.17646,-0.0583 0.208748,-8.161052 0.03254,-8.161052 -0.07048,0 -0.203208,0.19492 -0.294954,0.433154 -0.232972,0.60497 -0.780282,1.998612 -1.433824,2.289468 -0.682806,0.30388 -2.857606,1.072534 -3.31145,1.072534 -0.18388,0 -0.643654,-0.04986 -0.705106,-0.1108 -0.08454,-0.08384 -0.0011,-1.505434 0,-5.83989 9.32e-4,-3.151001 -0.0394,-5.379334 0,-5.440842 0.35006,-0.546263 5.833548,-0.772442 7.730928,-0.350094 0.384052,0.08548 1.033452,0.315229 1.443108,0.510533 1.063936,0.507237 1.731676,1.44639 2.460652,2.821077 0.0404,0.07617 0.13172,0.138502 0.202946,0.138502 0.10796,0 0.13384,-0.237911 0.15542,-3.239429 0.0142,-1.980483 0.002,-5.2979594 -0.02714,-5.4166998 0,0 -1.029394,1.3615288 -1.164786,1.6311898 l -0.29138,0.24315 -1.785108,-0.03156 c -0.981656,-0.01736 -5.277978,4.62e-4 -8.814899,-0.0034 -3.536921,-0.0039 -7.703154,0.05488 -7.789136,0.0876 -0.313376,0.119252 9.75e-4,0.317675 0.79879,0.751189 1.3756,0.747482 2.66366,2.346516 2.998443,3.593605 0.195956,0.729984 0.188908,10.082607 -0.0081,10.911597 -0.19089,0.8029 -0.83158,1.388854 -1.433803,2.033922 -0.282999,0.303134 -0.514549,0.58857 -0.514549,0.6343 0,0.04572 0.23277,0.31024 0.517268,0.587804 0.571033,0.557124 1.319109,1.231412 1.461438,1.797286 0.135296,0.537928 0.240317,16.241294 0.114408,17.107524 -0.125342,0.86226 -0.680168,1.232662 -1.395754,1.991276 -0.669241,0.709472 -0.669641,0.708218 0.354548,1.095252 0.835849,0.315862 2.405039,1.029028 2.723352,1.505366 0.331161,0.495554 0.76347,1.421544 1.116788,2.707414 0.160456,0.58399 0.310635,1.09296 0.333724,1.131046 0.06976,0.11508 0.19385,0.07808 0.253288,-0.07552 z"/>
 <path style="fill:#fbb64a" d="m 19.440385,55.857924 c 0.0308,-0.07962 0.120022,-0.630138 0.198266,-1.223376 0.469541,-3.560272 0.436579,-5.84177 1.362423,-7.362902 0.17054,-0.2802 0.655736,-0.899836 1.078196,-1.376968 0.42246,-0.47713 0.768108,-0.775738 0.768108,-0.834116 0,-0.07328 -0.12256,-0.0865 -0.39569,-0.04274 C 21.146186,45.227026 20.3587,44.989642 20,44.377536 c -0.1859,-0.317226 0.02484,0.09048 0,-7.740206 -0.02854,-8.997844 0.06708,-8.135304 0.892198,-8.549462 0.596878,-0.299604 1.340282,-0.76524 1.998004,-0.870284 1.1199,-0.17886 1.880026,0.651676 2.435326,1.734736 0.1521,0.296658 0.325472,0.52056 0.387266,0.500146 0.17646,-0.0583 0.208748,-8.161052 0.03254,-8.161052 -0.07048,0 -0.203208,0.19492 -0.294954,0.433154 -0.232972,0.60497 -0.780282,1.998612 -1.433824,2.289468 -0.682806,0.30388 -2.857606,1.072534 -3.31145,1.072534 -0.18388,0 -0.643654,-0.04986 -0.705106,-0.1108 -0.08454,-0.08384 -0.0011,-1.505434 0,-5.83989 9.32e-4,-3.151001 -0.0394,-5.379334 0,-5.440842 0.35006,-0.546263 5.833548,-0.772442 7.730928,-0.350094 0.384052,0.08548 1.033452,0.315229 1.443108,0.510533 1.063936,0.507237 1.731676,1.44639 2.460652,2.821077 0.0404,0.07617 0.13172,0.138502 0.202946,0.138502 0.10796,0 0.13384,-0.237911 0.15542,-3.239429 0.0142,-1.980483 0.002,-5.2979596 -0.02714,-5.4167 0,0 -1.029394,1.3615292 -1.164786,1.63119 l -0.29138,0.24315 -1.785108,-0.03156 c -0.981656,-0.01736 -5.277978,4.62e-4 -8.814899,-0.00344 -3.536921,-0.00388 -7.703154,0.054882 -7.789136,0.087602 -0.313376,0.119252 9.75e-4,0.317675 0.79879,0.751189 1.3756,0.747482 2.66366,2.346516 2.998443,3.593605 0.195956,0.729984 0.188908,10.082607 -0.0081,10.911597 -0.19089,0.8029 -0.83158,1.388854 -1.433803,2.033922 -0.282999,0.303134 -0.514549,0.58857 -0.514549,0.6343 0,0.04572 0.23277,0.31024 0.517268,0.587804 0.571033,0.557124 1.319109,1.231412 1.461438,1.797286 0.135296,0.537928 0.240317,16.241294 0.114408,17.107524 -0.125342,0.86226 -0.680168,1.232662 -1.395754,1.991276 -0.669241,0.709472 -0.669641,0.708218 0.354548,1.095252 0.835849,0.315862 2.405039,1.029028 2.723352,1.505366 0.331161,0.495554 0.76347,1.421544 1.116788,2.707414 0.160456,0.58399 0.310635,1.09296 0.333724,1.131046 0.06976,0.11508 0.19385,0.07808 0.253288,-0.07552 z"/>
 <path style="opacity:0.2" d="m 36.105468,13.000177 c -0.09864,0.06049 -0.11824,1.863454 -0.09766,4.45275 0.02994,3.765015 -0.09752,2.548723 0.675782,1.5625 1.075256,-1.371286 2.50855,-1.011426 3.113282,-1.078125 1.545962,-0.03784 1.91997,-0.02029 2.066406,0.125 0.14984,0.148668 0.290716,0.882266 0.16406,4.332407 l 0,4.640624 c 0,0 -1.066578,0.84642 -1.648438,1.417968 -0.19802,0.217474 -0.359374,0.45143 -0.359374,0.519532 0,0.0681 0.14306,0.284584 0.316406,0.480468 0.439742,0.783202 1.640624,1.457032 1.640624,1.457032 l 0.03126,8.01172 c 0.02742,8.751106 0.02224,8.212906 -0.17968,8.386718 0,0 -1.436734,1.498274 -1.828124,1.691406 2.054506,0.675442 2.876908,1.220724 3.742188,3.097656 0.141416,0.460978 0.178006,0.902344 0.2578,0.902344 0.0798,0 0.11638,-0.441366 0.257812,-0.902344 0.86528,-1.876932 1.687682,-2.422214 3.742188,-3.097656 -0.39139,-0.19314 -1.828124,-1.691406 -1.828124,-1.691406 -0.201922,-0.17382 -0.207108,0.364388 -0.17968,-8.386718 l 0.03126,-8.01172 c 0,0 1.200882,-0.67383 1.640624,-1.457032 0.17334,-0.19588 0.316406,-0.412368 0.316406,-0.480468 0,-0.0681 -0.16136,-0.302058 -0.359374,-0.519532 -0.58186,-0.571548 -1.648438,-1.417968 -1.648438,-1.417968 l 0,-4.640624 c -0.12666,-3.450141 0.0142,-4.183739 0.16406,-4.332407 0.14644,-0.145292 0.520444,-0.162842 2.066406,-0.125 0.604732,0.0667 2.038026,-0.293161 3.113282,1.078125 0.773302,0.986223 0.645842,2.202515 0.675782,-1.5625 0.02056,-2.589296 9.68e-4,-4.392256 -0.09767,-4.45275 -0.356674,0.551845 -1.144532,1.96875 -1.144532,1.96875 -0.151026,0.07654 -2.925162,0.03029 -6.75,0.03125 -3.824838,-9.59e-4 -6.598974,0.04529 -6.75,-0.03125 0,0 -0.787858,-1.416905 -1.144532,-1.96875 z"/>
 <path style="fill:#fbb64a" d="m 36.105468,12 c -0.09864,0.06049 -0.11824,1.863454 -0.09766,4.45275 0.02994,3.765015 -0.09752,2.548723 0.675782,1.5625 1.075256,-1.371286 2.50855,-1.011426 3.113282,-1.078125 1.545962,-0.03784 1.91997,-0.02029 2.066406,0.125 0.14984,0.148668 0.290716,0.882266 0.16406,4.332407 l 0,4.640624 c 0,0 -1.066578,0.84642 -1.648438,1.417968 -0.19802,0.217474 -0.359374,0.45143 -0.359374,0.519532 0,0.0681 0.14306,0.284584 0.316406,0.480468 0.439742,0.783202 1.640624,1.457032 1.640624,1.457032 l 0.03126,8.01172 c 0.02742,8.751106 0.02224,8.212906 -0.17968,8.386718 0,0 -1.436734,1.498274 -1.828124,1.691406 2.054506,0.675442 2.876908,1.220724 3.742188,3.097656 C 43.883616,51.558634 43.920206,52 44,52 44.0798,52 44.11638,51.558634 44.257812,51.097656 45.123092,49.220724 45.945494,48.675442 48,48 c -0.39139,-0.19314 -1.828124,-1.691406 -1.828124,-1.691406 -0.201922,-0.17382 -0.207108,0.364388 -0.17968,-8.386718 l 0.03126,-8.01172 c 0,0 1.200882,-0.67383 1.640624,-1.457032 0.17334,-0.19588 0.316406,-0.412368 0.316406,-0.480468 0,-0.0681 -0.16136,-0.302058 -0.359374,-0.519532 -0.58186,-0.571548 -1.648438,-1.417968 -1.648438,-1.417968 l 0,-4.640624 c -0.12666,-3.450141 0.0142,-4.183739 0.16406,-4.332407 0.14644,-0.145292 0.520444,-0.162842 2.066406,-0.125 0.604732,0.0667 2.038026,-0.293161 3.113282,1.078125 0.773302,0.986223 0.645842,2.202515 0.675782,-1.5625 C 52.012768,13.863454 51.993172,12.060494 51.894532,12 51.537858,12.551845 50.75,13.96875 50.75,13.96875 50.598974,14.04529 47.824838,13.999041 44,14 c -3.824838,-9.59e-4 -6.598974,0.04529 -6.75,-0.03125 0,0 -0.787858,-1.416905 -1.144532,-1.96875 z"/>
 <path style="opacity:0.1;fill:#ffffff" d="M 6.8007812 4 C 5.2495812 4 4 5.2495812 4 6.8007812 L 4 7.8007812 C 4 6.2495813 5.2495812 5 6.8007812 5 L 57.199219 5 C 58.750419 5 60 6.2495812 60 7.8007812 L 60 6.8007812 C 60 5.2495813 58.750419 4 57.199219 4 L 6.8007812 4 z"/>
</svg>
