<svg xmlns="http://www.w3.org/2000/svg" width="64" height="64" version="1.1">
 <path style="opacity:0.2" d="m 41.692982,19.079485 c -2.342114,-2.342116 -6.113354,-2.342116 -8.455618,0 L 13.811907,38.10459 c -1.583623,1.550985 -2.06215,4.068709 -1.531814,6.05941 l -6.523455,6.623796 c -2.342115,2.342264 -2.3422644,6.113354 3.38e-5,8.455618 2.3421148,2.342115 6.1133552,2.342115 8.4556192,0 l 6.923805,-7.323508 c 1.990852,0.530484 4.19201,0.03586 5.7594,-1.531812 L 45.920602,31.76269 c 2.342266,-2.342116 2.342266,-6.113356 4.2e-5,-8.45547 l -4.227886,-4.227885 z"/>
 <path style="opacity:0.2" d="m 24,23.638518 7.716216,7.716216 1.929052,1.929052 L 41.361482,41 l 7.716216,-7.716214 4.630484,-4.630482 3.085732,-3.085732 c 4.274782,-4.274782 4.274782,-11.157648 0,-15.432432 L 54.86486,8.2060871 c -4.274784,-4.2747826 -11.157648,-4.2747826 -15.432432,0 l -3.08573,3.0857319 -4.630482,4.630484 z"/>
 <path style="fill:#e4e4e4" d="m 41.692982,18.079485 c -2.342114,-2.342116 -6.113354,-2.342116 -8.455618,0 L 13.811907,37.10459 c -1.583623,1.550985 -2.06215,4.068708 -1.531814,6.05941 l -6.523455,6.623796 c -2.342115,2.342264 -2.3422644,6.113354 3.38e-5,8.455618 2.3421148,2.342114 6.1133552,2.342114 8.4556192,0 l 6.923805,-7.323508 c 1.990852,0.530484 4.19201,0.03586 5.7594,-1.531812 L 45.920602,30.76269 c 2.342266,-2.342116 2.342266,-6.113356 4.2e-5,-8.45547 l -4.227886,-4.227885 z"/>
 <path style="fill:#ffffff;opacity:0.2" d="M 37.464844 16.322266 C 35.936487 16.322266 34.409413 16.90902 33.238281 18.080078 L 13.8125 37.105469 C 12.521946 38.369425 11.97636 40.272147 12.101562 42.011719 C 12.21121 40.574495 12.766719 39.129697 13.8125 38.105469 L 33.238281 19.080078 C 35.580545 16.737962 39.351245 16.737962 41.693359 19.080078 L 45.919922 23.306641 C 46.963136 24.349806 47.540371 25.677524 47.654297 27.035156 C 47.796169 25.344634 47.218931 23.605589 45.919922 22.306641 L 41.693359 18.080078 C 40.522302 16.90902 38.993201 16.322266 37.464844 16.322266 z M 12.123047 43.322266 L 5.7558594 49.787109 C 4.4569103 51.086141 3.8815886 52.825102 4.0234375 54.515625 C 4.1373787 53.157992 4.7126934 51.830342 5.7558594 50.787109 L 12.279297 44.164062 C 12.206857 43.892149 12.157596 43.610039 12.123047 43.322266 z"/>
 <path style="fill:#ff9913" d="m 24,22.638518 7.716216,7.716216 1.929052,1.929052 L 41.361482,40 l 7.716216,-7.716214 4.630484,-4.630482 3.085732,-3.085732 c 4.274782,-4.274782 4.274782,-11.157649 0,-15.4324328 L 54.86486,7.2060862 c -4.274784,-4.2747826 -11.157648,-4.2747826 -15.432432,0 l -3.08573,3.0857318 -4.630482,4.630483 z"/>
 <path style="opacity:0.1" d="m 22.076556,16.999426 a 4.0775516,4.0775516 0 0 0 -2.840198,7.002282 l 21.74477,21.744768 a 4.0775516,4.0775516 0 1 0 5.765336,-5.765335 L 25.001696,18.236371 a 4.0775516,4.0775516 0 0 0 -2.92514,-1.236945 z"/>
 <path style="opacity:0.2;fill:#ffffff" d="M 47.148438 4 C 44.359026 4 41.570986 5.0696401 39.433594 7.2070312 L 36.347656 10.292969 L 31.714844 14.921875 L 24 22.636719 L 24.425781 23.0625 L 31.566406 15.921875 L 36.199219 11.292969 L 39.285156 8.2070312 C 41.422548 6.0696401 44.210588 5 47 5 C 49.789412 5 52.577452 6.0696401 54.714844 8.2070312 L 56.644531 10.136719 C 58.493235 11.985422 59.533476 14.321127 59.783203 16.722656 C 59.857649 17.096793 59.918353 17.47275 59.953125 17.851562 C 60.239967 14.738354 59.186505 11.530255 56.792969 9.1367188 L 54.863281 7.2070312 C 52.725889 5.06964 49.937849 4 47.148438 4 z"/>
 <path style="fill:#ffbc48" d="m 22.076556,15.999426 a 4.0775516,4.0775516 0 0 0 -2.840198,7.002282 l 21.74477,21.744768 A 4.0775516,4.0775516 0 1 0 46.746464,38.98114 L 25.001696,17.236371 a 4.0775516,4.0775516 0 0 0 -2.92514,-1.236945 z"/>
 <rect style="fill:#4e79ff" width="5.765" height="23.06" x="42.37" y="11.1" rx="2.883" ry="2.883" transform="rotate(45)"/>
 <path style="opacity:0.2;fill:#ffffff" d="M 22.078125 16 A 4.0775516 4.0775516 0 0 0 18.037109 20.601562 A 4.0775516 4.0775516 0 0 1 22.078125 17 A 4.0775516 4.0775516 0 0 1 25 18.238281 L 46.746094 39.980469 A 4.0775516 4.0775516 0 0 1 47.960938 42.421875 A 4.0775516 4.0775516 0 0 0 46.746094 38.980469 L 25 17.238281 A 4.0775516 4.0775516 0 0 0 22.078125 16 z"/>
</svg>
