<svg width="64" height="64" version="1" xmlns="http://www.w3.org/2000/svg">
 <rect x="4" y="5" width="56" height="56" rx="2.8" ry="2.8" style="opacity:.2"/>
 <rect x="4" y="4" width="56" height="56" rx="2.8" ry="2.8" style="fill:#e4e4e4"/>
 <path d="m6.8007812 4c-1.5512 0-2.8007812 1.2495812-2.8007812 2.8007812v1c0-1.5511999 1.2495812-2.8007812 2.8007812-2.8007812h50.398438c1.5512 0 2.800781 1.2495812 2.800781 2.8007812v-1c0-1.5511999-1.249581-2.8007812-2.800781-2.8007812h-50.398438z" style="fill:#ffffff;opacity:.2"/>
 <path d="m39.324219 16.921875c-1.540088-0.01665-2.548828 0.06641-2.548828 0.06641a3.0003 3.0003 0 0 0-2.775391 2.992184v13.009766a3.0003 3.0003 0 0 0 0 0.984375v13.021484a3.0003 3.0003 0 1 0 6 0v-10.513672c1.463361-0.03762 3.18629-0.117231 5.0625-0.46875 2.126658-0.398442 4.376167-1.050642 6.351562-2.457031 1.975397-1.406389 3.607422-3.899198 3.607422-6.822266 0-2.923067-1.632025-5.41783-3.607422-6.824219-1.975394-1.406387-4.224904-2.058588-6.351562-2.457031-2.126658-0.398442-4.198194-0.514598-5.738281-0.53125zm-12.369141 0.01563a3.0003 3.0003 0 0 0-2.955078 3.042964c0 6.192229-0.06678 12.794469-1.302734 17.371094-0.617978 2.288312-1.503119 3.996388-2.552735 5.035156s-2.232597 1.613281-4.394531 1.613281h-0.75v-0.376953a3.0003 3.0003 0 1 0-6 0v3.376953a3.0003 3.0003 0 0 0 3 3h3.75c3.462954 0 6.500851-1.255126 8.615234-3.347656s3.336757-4.817539 4.125-7.736328c1.576488-5.837579 1.509766-12.743318 1.509766-18.935547a3.0003 3.0003 0 0 0-3.044922-3.042969zm13.044922 6.050777c1.189845 0.03625 2.552416 0.09816 3.957031 0.361328 1.628519 0.305113 3.135575 0.850474 3.976563 1.449218s1.08789 0.918705 1.08789 1.935547c0 1.016843-0.246902 1.336803-1.08789 1.935547s-2.348044 1.142153-3.976563 1.447266c-1.404615 0.263163-2.767186 0.325073-3.957031 0.361328z" style="opacity:.1"/>
 <path d="m39.324219 15.925781c-1.540088-0.01665-2.548828 0.066406-2.548828 0.066407a3.0003 3.0003 0 0 0-2.775391 2.992187v13.009766a3.0003 3.0003 0 0 0 0 0.984375v13.021484a3.0003 3.0003 0 1 0 6 0v-10.513672c1.463361-0.03762 3.18629-0.117231 5.0625-0.46875 2.126658-0.398442 4.376167-1.050642 6.351562-2.457031 1.975397-1.406389 3.607422-3.899198 3.607422-6.822266 0-2.923067-1.632025-5.41783-3.607422-6.824219-1.975394-1.406387-4.224904-2.058588-6.351562-2.457031-2.126658-0.398442-4.198194-0.514598-5.738281-0.53125zm-12.369141 0.015625a3.0003 3.0003 0 0 0-2.955078 3.042969c0 6.192229-0.06678 12.794469-1.302734 17.371094-0.617978 2.288312-1.503119 3.996388-2.552735 5.035156s-2.232597 1.613281-4.394531 1.613281h-0.75v-0.376953a3.0003 3.0003 0 1 0-6 0v3.376953a3.0003 3.0003 0 0 0 3 3h3.75c3.462954 0 6.500851-1.255126 8.615234-3.347656s3.336757-4.817539 4.125-7.736328c1.576488-5.837579 1.509766-12.743318 1.509766-18.935547a3.0003 3.0003 0 0 0-3.044922-3.042969zm13.044922 6.050782c1.189845 0.036249 2.552416 0.09816 3.957031 0.361328 1.628519 0.305113 3.135575 0.850474 3.976563 1.449218s1.08789 0.918705 1.08789 1.935547c0 1.016843-0.246902 1.336803-1.08789 1.935547s-2.348044 1.142153-3.976563 1.447266c-1.404615 0.263163-2.767186 0.325073-3.957031 0.361328v-7.490234z" style="fill:#4c4c4c"/>
</svg>
