<svg xmlns="http://www.w3.org/2000/svg" width="64" height="64" version="1">
 <path style="opacity:0.2" d="M 32,8.0000004 A 26,6.857143 0 0 0 6.0000004,14.855469 V 49.144532 A 26,6.857143 0 0 0 32,56 26,6.857143 0 0 0 58,49.144532 V 14.855469 A 26,6.857143 0 0 0 32,8.0000004 Z"/>
 <rect style="fill:#6666b2" width="34.286" height="52" x="-48.14" y="-58" transform="matrix(0,-1,-1,0,0,0)"/>
 <ellipse style="fill:#6666b2" cx="32" cy="48.143" rx="26" ry="6.857"/>
 <ellipse id="ellipse834" style="fill:#6666b2" cx="32" cy="13.857" rx="26" ry="6.857"/>
 <ellipse id="ellipse900" style="opacity:0.2" cx="32" cy="17.5" rx="22" ry="5.5"/>
 <ellipse id="ellipse836" style="fill:#ffae2b" cx="32" cy="16.5" rx="22" ry="5.5"/>
 <path id="ellipse906" style="opacity:0.2;fill:#ffffff" d="M 32 11 A 22 5.5 0 0 0 10 16.5 A 22 5.5 0 0 0 10.107422 17.001953 A 22 5.5 0 0 1 32 12 A 22 5.5 0 0 1 53.898438 16.994141 A 22 5.5 0 0 0 54 16.5 A 22 5.5 0 0 0 32 11 z"/>
 <path style="opacity:0.1;fill:#ffffff" d="M 32 7 A 26 6.857143 0 0 0 6 13.855469 L 6 14.855469 A 26 6.857143 0 0 1 32 8 A 26 6.857143 0 0 1 58 14.855469 L 58 13.855469 A 26 6.857143 0 0 0 32 7 z"/>
 <path style="opacity:0.1" d="M 7.125,28 C 4.5,28 1,25 1,23.5 1,22.669 1.39025,22 1.875,22 h 5.25 C 7.60975,22 8,22.669 8,23.5 v 3 C 8,27.331 7.60975,28 7.125,28 Z"/>
 <path style="fill:#3f3f3f" d="M 7.125,27 C 4.5,27 1,24 1,22.5 1,21.669 1.39025,21 1.875,21 h 5.25 C 7.60975,21 8,21.669 8,22.5 v 3 C 8,26.331 7.60975,27 7.125,27 Z"/>
 <path style="opacity:0.1" d="M 56.775,28 C 59.4,28 62.9,25 62.9,23.5 62.9,22.669 62.50975,22 62.025,22 h -5.25 C 56.29025,22 55.9,22.669 55.9,23.5 v 3 c 0,0.831 0.39025,1.5 0.875,1.5 z"/>
 <path style="fill:#3f3f3f" d="M 56.775,27 C 59.4,27 62.9,24 62.9,22.5 62.9,21.669 62.50975,21 62.025,21 h -5.25 C 56.29025,21 55.9,21.669 55.9,22.5 v 3 c 0,0.831 0.39025,1.5 0.875,1.5 z"/>
 <rect style="opacity:0.2" width="30" height="30" x="33" y="31" rx="2.727" ry="2.727"/>
 <rect style="fill:#f34235" width="30" height="30" x="33" y="30" rx="2.727" ry="2.727"/>
 <rect style="fill:#ffffff" width="18" height="4" x="39" y="36"/>
 <rect style="fill:#ffffff" width="18" height="4" x="39" y="43"/>
 <rect style="fill:#ffffff" width="18" height="4" x="39" y="50"/>
</svg>
