<svg xmlns="http://www.w3.org/2000/svg" width="64" height="64" version="1.1">
 <path style="opacity:0.2" d="M 60,33.000026 C 60,48.463985 47.463985,61 32.000026,61 c -4.5149,0 -8.780216,-1.068598 -12.556825,-2.966673 1.17779,-6.040003 2.715466,-11.197184 4.489756,-15.600304 2.051895,-5.092034 6.998048,-4.415409 9.492191,-7.689632 3.994983,-5.244473 5.734901,-13.172718 9.591898,-15.082779 4.767256,-2.360841 11.522321,-3.304024 11.522321,-3.304024 l 0.304924,0.448869 c 0.296226,0.417104 0.581314,0.842672 0.854832,1.276268 C 58.423553,22.400648 60,27.516238 60,33.000026 Z"/>
 <path style="fill:#001e55" d="m 57.961258,32.081908 c 0,15.463959 -13.217856,21.733701 -28.681814,21.733701 -15.463959,0 -21.7122545,-6.45542 -21.7122545,-21.919378 0,-5.708671 -1.8587426,-10.914557 1.0746771,-15.341824 C 13.654653,8.9888515 22.244739,4.000026 32.000026,4.000026 c 9.236485,0 17.428405,4.4723065 22.528404,11.369559 0.10871,0.147018 0.216013,0.295139 0.321893,0.444341 3.243172,4.570174 3.110935,10.23739 3.110935,16.267982 z"/>
 <path style="fill:#ffffff;opacity:0.1" d="M 32 4 C 22.244713 4 13.655365 8.989132 8.6425781 16.554688 C 7.2414788 18.669298 6.9373498 20.962531 6.9980469 23.402344 C 7.0452225 21.334541 7.4346796 19.37771 8.6425781 17.554688 C 13.655365 9.989132 22.244713 5 32 5 C 41.236485 5 49.429298 9.4718881 54.529297 16.369141 C 54.638007 16.516159 54.743729 16.665251 54.849609 16.814453 C 57.687385 20.813355 57.941908 25.652595 57.960938 30.839844 C 57.962328 25.276993 57.868189 20.068139 54.849609 15.814453 C 54.743729 15.665251 54.638007 15.516159 54.529297 15.369141 C 49.429298 8.4718881 41.236485 4 32 4 z"/>
 <circle style="fill:#ffffff" cx="24.21" cy="16.79" r=".21"/>
 <path style="fill:#cdfaf0" d="m 60,32 c 0,15.463959 -12.536015,27.999974 -27.999974,27.999974 -4.5149,0 -8.780216,-1.068598 -12.556825,-2.966673 1.17779,-6.040003 2.715466,-11.197184 4.489756,-15.600304 2.051895,-5.092034 6.998048,-4.415409 9.492191,-7.689632 3.994983,-5.244473 5.734901,-13.172718 9.591898,-15.082779 4.767256,-2.360841 11.522321,-3.304024 11.522321,-3.304024 l 0.304924,0.448869 c 0.296226,0.417104 0.581314,0.842672 0.854832,1.276268 C 58.423553,21.400622 60,26.516212 60,32 Z"/>
 <path style="opacity:0.2" d="m 51.701172,15.992214 c -3.631843,4.77e-4 -7.543734,1.058467 -10.785156,2.591796 -2.776701,1.313497 -5.484984,3.585609 -10.736328,7.75586 -3.885067,3.08525 -6.495522,4.146759 -8.996094,4.636718 -0.986794,0.193354 -2.974453,0.149693 -4.019532,-0.08789 -4.467114,-1.015506 -7.893169,-4.363907 -8.5292964,-8.9375 -0.1944118,-1.397768 -0.061195,-3.285849 0.3222656,-4.544922 0.080186,-0.263287 0.133062,-0.493892 0.1152344,-0.511719 -0.053042,-0.05305 -1.1620039,1.697234 -1.6894531,2.667969 -1.5858637,2.918677 -2.5727301,5.829611 -3.1171875,9.191406 -0.2861283,1.766689 -0.3549774,5.456838 -0.1367188,7.347656 0.7497675,6.495405 3.7108389,12.54752 8.3203128,17.007813 l 0.746093,0.720703 -0.617187,0.572266 c -2.424704,2.237228 -5.4979398,4.139848 -8.4433594,5.228515 -0.1653988,0.06112 -0.1374336,0.09039 0.1933594,0.208985 1.1934654,0.427854 3.6934992,0.931693 5.4609375,1.097656 1.4002175,0.131488 3.9252395,0.03856 5.2656255,-0.191406 1.661122,-0.284994 3.183408,-0.711015 4.736328,-1.326172 l 2.236328,-1.03125 c 2.787712,-1.439797 5.686237,-3.824322 7.353515,-6.050781 2.177877,-2.908307 4.940388,-8.631998 7.949219,-16.478516 1.450802,-3.783446 2.110279,-5.345065 3.097656,-7.324219 1.382128,-2.77042 2.777875,-4.867021 4.191407,-6.294922 2.238517,-2.261271 5.860297,-4.70653 9.353515,-5.646484 l 0.53711,-0.220703 -0.01563,-0.01953 -1.25586,-0.306641 c -0.504651,-0.03542 -1.018275,-0.05476 -1.537109,-0.05469 z M 32.5,31.000026 c 0.828429,0 1.5,0.671573 1.5,1.5 0,0.828428 -0.671571,1.5 -1.5,1.5 -0.828427,0 -1.5,-0.671572 -1.5,-1.5 0,-0.828427 0.671573,-1.5 1.5,-1.5 z"/>
 <path style="fill:#00e6b9" d="M 51.701172 14.992188 C 48.069329 14.992665 44.157438 16.050655 40.916016 17.583984 C 38.139315 18.897481 35.431032 21.169593 30.179688 25.339844 C 26.294621 28.425094 23.684166 29.486603 21.183594 29.976562 C 20.1968 30.169916 18.209141 30.126255 17.164062 29.888672 C 12.696948 28.873166 9.270893 25.524765 8.6347656 20.951172 C 8.4403538 19.553404 8.5735704 17.665323 8.9570312 16.40625 C 9.0372172 16.142963 9.0900932 15.912358 9.0722656 15.894531 C 9.0192236 15.841481 7.9102617 17.591765 7.3828125 18.5625 C 5.7969488 21.481177 4.8100824 24.392111 4.265625 27.753906 C 3.9794967 29.520595 3.9106476 33.210744 4.1289062 35.101562 C 4.8786737 41.596967 7.8397451 47.649082 12.449219 52.109375 L 13.195312 52.830078 L 12.578125 53.402344 C 10.153421 55.639572 7.0801852 57.542192 4.1347656 58.630859 C 3.9693668 58.691979 3.997332 58.721247 4.328125 58.839844 C 5.5215904 59.267698 8.0216242 59.771537 9.7890625 59.9375 C 11.18928 60.068988 13.714302 59.97606 15.054688 59.746094 C 16.71581 59.4611 18.238096 59.035079 19.791016 58.419922 L 22.027344 57.388672 C 24.815056 55.948875 27.713581 53.56435 29.380859 51.337891 C 31.558736 48.429584 34.321247 42.705893 37.330078 34.859375 C 38.78088 31.075929 39.440357 29.51431 40.427734 27.535156 C 41.809862 24.764736 43.205609 22.668135 44.619141 21.240234 C 46.857658 18.978963 50.479438 16.533704 53.972656 15.59375 L 54.509766 15.373047 L 54.494141 15.353516 L 53.238281 15.046875 C 52.73363 15.011455 52.220006 14.992118 51.701172 14.992188 z M 32.5 30 C 33.328429 30 34 30.671573 34 31.5 C 34 32.328428 33.328429 33 32.5 33 C 31.671573 33 31 32.328428 31 31.5 C 31 30.671573 31.671573 30 32.5 30 z"/>
 <circle style="fill:#ffffff" cx="35" cy="9" r="1"/>
 <circle style="fill:#ffffff" cx="42.5" cy="11.5" r=".5"/>
 <circle style="fill:#ffffff" cx="23.81" cy="17.79" r=".21"/>
 <circle style="fill:#ffffff" cx="32.5" cy="17.5" r=".5"/>
 <circle style="fill:#ffffff" cx="17.5" cy="18.5" r=".5"/>
 <circle style="fill:#ffffff" cx="22" cy="21.9" r="1"/>
 <path style="fill:#ffffff;opacity:0.2" d="M 51.701172 14.992188 C 48.069329 14.992665 44.157438 16.050655 40.916016 17.583984 C 38.139315 18.897481 35.431032 21.169593 30.179688 25.339844 C 26.294621 28.425094 23.684166 29.486603 21.183594 29.976562 C 20.1968 30.169916 18.209141 30.126255 17.164062 29.888672 C 12.696948 28.873166 9.270893 25.524765 8.6347656 20.951172 C 8.5971515 20.680737 8.5820056 20.381068 8.5683594 20.082031 C 8.5445518 20.735752 8.5558944 21.386062 8.6347656 21.953125 C 9.270893 26.526718 12.696949 29.875119 17.164062 30.890625 C 18.209141 31.128208 20.1968 31.17187 21.183594 30.978516 C 23.684166 30.488557 26.294621 29.427047 30.179688 26.341797 C 35.431032 22.171546 38.139315 19.899435 40.916016 18.585938 C 44.157438 17.052609 48.069329 15.994618 51.701172 15.994141 C 52.013662 15.994098 52.319065 16.014031 52.626953 16.027344 C 53.075719 15.86097 53.524931 15.714224 53.972656 15.59375 L 54.509766 15.373047 L 54.494141 15.353516 L 53.238281 15.046875 C 52.73363 15.011455 52.220006 14.992118 51.701172 14.992188 z M 9.0722656 15.894531 C 9.0192236 15.841481 7.9102617 17.591765 7.3828125 18.5625 C 5.7969488 21.481177 4.8100824 24.392111 4.265625 27.753906 C 4.0907305 28.833786 4.0083064 30.61427 4.0117188 32.28125 C 4.0398767 30.93761 4.1261926 29.61678 4.265625 28.755859 C 4.8100824 25.394064 5.7969488 22.48313 7.3828125 19.564453 C 7.743387 18.90084 8.35731 17.904947 8.7382812 17.337891 C 8.7982018 17.005232 8.8711164 16.688347 8.9570312 16.40625 C 9.0372173 16.142963 9.0900932 15.912358 9.0722656 15.894531 z M 31.091797 32 C 31.035582 32.157561 31 32.325083 31 32.501953 C 31 33.330381 31.671573 34.001953 32.5 34.001953 C 33.328429 34.001953 34 33.330381 34 32.501953 C 34 32.325083 33.964418 32.157561 33.908203 32 C 33.701611 32.581346 33.152216 33 32.5 33 C 31.847785 33 31.298389 32.581346 31.091797 32 z M 12.666016 53.320312 L 12.578125 53.402344 C 10.153421 55.639572 7.0801852 57.542192 4.1347656 58.630859 C 3.9693668 58.691979 3.997332 58.721247 4.328125 58.839844 C 4.6017484 58.937937 4.9573445 59.039531 5.34375 59.140625 C 7.9055442 58.016393 10.483744 56.336742 12.578125 54.404297 L 13.195312 53.832031 L 12.666016 53.320312 z"/>
</svg>
