<svg xmlns="http://www.w3.org/2000/svg" width="64" height="64" version="1.1">
 <circle style="opacity:0.2" cx="32" cy="33" r="29"/>
 <circle style="fill:#3f3f3f" cx="32" cy="32" r="29"/>
 <path style="opacity:0.2" d="M 31,10.035156 A 23,23 0 0 0 9.0507812,32 H 19.050782 A 13,13 0 0 1 31,20.042968 Z M 33,10.050781 V 20.050782 A 13,13 0 0 1 44.957032,32 H 54.964844 A 23,23 0 0 0 33,10.050781 Z M 9.0351562,34 A 23,23 0 0 0 31,55.949218 V 45.949218 A 13,13 0 0 1 19.042968,34 Z M 44.949218,34 A 13,13 0 0 1 33,45.957032 V 55.964844 A 23,23 0 0 0 54.949218,34 Z"/>
 <path style="fill:#39b44a" d="M 31,9.0351562 A 23,23 0 0 0 9.0507812,31 H 19.050782 A 13,13 0 0 1 31,19.042969 Z M 33,9.0507812 V 19.050781 A 13,13 0 0 1 44.957032,31 H 54.964844 A 23,23 0 0 0 33,9.0507812 Z M 9.0351562,33 A 23,23 0 0 0 31,54.949218 V 44.949218 A 13,13 0 0 1 19.042968,33 Z M 44.949218,33 A 13,13 0 0 1 33,44.957032 V 54.964844 A 23,23 0 0 0 54.949218,33 Z"/>
 <path style="opacity:0.2" d="M 49,23 C 49,23 48.527502,22.991193 48.035156,23.212891 47.542818,23.434409 47,24.200026 47,25 H 48 C 48,24 49,24 49,24 49,24 49.966797,24.000753 49.966797,24.800781 49.966797,25.117461 49.873078,25.294161 49.695312,25.494141 49.517547,25.694177 49.233721,25.894143 48.900391,26.119141 48.000593,26.768421 47,27.657953 47,28.400391 V 29 H 51 V 28 H 47.96875 C 48.949548,26.864389 51,26.000753 51,24.800781 51,24.000807 50.457182,23.434409 49.964844,23.212891 49.47249,22.991313 49,23 49,23 Z M 21,29 V 37 H 23 V 35 H 23.628906 C 24.469566,34.935254 25.138186,34.9965 25.625,34.75 26.11993,34.503502 26.472642,34.176797 26.683594,33.773438 26.894552,33.362606 27,31.959212 27,31.496094 27,30.71925 26.741926,30.112583 26.222656,29.671875 25.711498,29.223693 24.893114,29 23.773438,29 Z M 29,29 V 37 H 31 V 34 H 33 V 37 H 35 V 29 H 33 V 32 H 31 V 29 Z M 37,29 V 37 H 39.046875 C 40.296875,37 41.267841,36.660209 41.957031,35.980469 42.652979,35.293263 43,34.273885 43,32.921875 43,32.062865 42.845966,31.344695 42.535156,30.769531 42.231102,30.186897 41.799089,29.748005 41.238281,29.449219 40.684225,29.150431 40.026289,29 39.269531,29 Z M 23,31 H 23.892578 C 24.630754,31 25,31.3267 25,31.980469 25,32.338785 24.882191,32.600231 24.648438,32.763672 24.420831,32.920829 24.110492,33 23.716797,33 H 23 Z M 39,31 H 39.570312 C 40.0351,31 40.390635,31.161431 40.634766,31.482422 40.878899,31.79768 41,32.298365 41,32.980469 41,34.327482 40.483252,35 39.455078,35 H 39 Z"/>
 <path style="fill:#ffffff" d="M 21 28 L 21 36 L 23 36 L 23 34 L 23.628906 34 C 24.469566 33.935254 25.138186 33.9965 25.625 33.75 C 26.11993 33.503502 26.472642 33.176797 26.683594 32.773438 C 26.894552 32.362606 27 30.959212 27 30.496094 C 27 29.71925 26.741926 29.112583 26.222656 28.671875 C 25.711498 28.223693 24.893114 28 23.773438 28 L 21 28 z M 23 30 L 23.892578 30 C 24.630754 30 25 30.3267 25 30.980469 C 25 31.338785 24.882191 31.600231 24.648438 31.763672 C 24.420831 31.920829 24.110492 32 23.716797 32 L 23 32 L 23 30 z"/>
 <path style="fill:#ffffff" d="M 29,28 V 36 H 31 V 33 H 33 V 36 H 35 V 28 H 33 V 31 H 31 V 28 Z"/>
 <path style="fill:#ffffff" d="M 37 28 L 37 36 L 39.046875 36 C 40.296875 36 41.267841 35.660209 41.957031 34.980469 C 42.652979 34.293263 43 33.273885 43 31.921875 C 43 31.062865 42.845966 30.344695 42.535156 29.769531 C 42.231102 29.186897 41.799089 28.748005 41.238281 28.449219 C 40.684225 28.150431 40.026289 28 39.269531 28 L 37 28 z M 39 30 L 39.570312 30 C 40.0351 30 40.390635 30.161431 40.634766 30.482422 C 40.878899 30.79768 41 31.298365 41 31.980469 C 41 33.327482 40.483252 34 39.455078 34 L 39 34 L 39 30 z"/>
 <path style="fill:#ffffff;fill-rule:evenodd" d="M 48.999998,22.000042 C 48.999998,22.000042 48.527498,21.991642 48.035152,22.21334 47.542814,22.434858 47,23.200026 47,24 H 48 C 48,23 48.999998,23 48.999998,23 48.999998,23 49.966202,23 49.966202,23.800028 49.966202,24.116708 49.873136,24.293766 49.69537,24.493746 49.517604,24.693782 49.233128,24.894542 48.899798,25.11954 48,25.76882 47,26.657566 47,27.400004 V 28 H 50.999996 V 27 H 47.968101 C 48.948899,25.864389 51,25 51,23.800028 51,23.000054 50.457188,22.434858 49.96485,22.21334 49.472496,21.991762 48.999998,22.000042 48.999998,22.000042 Z"/>
 <path style="opacity:0.1;fill:#ffffff" d="M 32 3 A 29 29 0 0 0 3 32 A 29 29 0 0 0 3.0175781 32.488281 A 29 29 0 0 1 32 4 A 29 29 0 0 1 60.974609 32.494141 A 29 29 0 0 0 61 32 A 29 29 0 0 0 32 3 z"/>
 <path style="opacity:0.2;fill:#ffffff" d="M 31 9.0351562 A 23 23 0 0 0 9.0507812 31 L 9.1367188 31 A 23 23 0 0 1 31 10.035156 L 31 9.0351562 z M 33 9.0507812 L 33 10.050781 A 23 23 0 0 1 54.871094 31 L 54.964844 31 A 23 23 0 0 0 33 9.0507812 z M 9.0351562 33 A 23 23 0 0 0 9.1308594 34 L 19.042969 34 A 13 13 0 0 0 31 45.949219 L 31 44.949219 A 13 13 0 0 1 19.042969 33 L 9.0507812 33 L 9.0351562 33 z M 44.949219 33 A 13 13 0 0 1 33 44.957031 L 33 45.957031 A 13 13 0 0 0 44.949219 34 L 44.957031 34 L 54.857422 34 A 23 23 0 0 0 54.949219 33 L 44.957031 33 L 44.949219 33 z"/>
</svg>
