<svg xmlns="http://www.w3.org/2000/svg" width="64" height="64" version="1.1">
 <circle style="opacity:0.2" cx="32" cy="33" r="28"/>
 <circle style="fill:#6a1b9a" cx="32" cy="32" r="28"/>
 <path style="opacity:0.1;fill:#ffffff" d="M 32,4 A 28,28 0 0 0 4,32 28,28 0 0 0 4.0352,32.5 28,28 0 0 1 32,5 28,28 0 0 1 59.982,32.252 28,28 0 0 0 60,32 28,28 0 0 0 32,4 Z"/>
 <path style="opacity:0.2" d="M 52.027,12.441 39.635,22.826 38.521,25.687 C 38.353,25.624 38.164,25.582 37.975,25.582 37.618,25.582 37.261,25.73 36.988,26.004 36.442,26.551 36.442,27.455 36.988,28.002 37.261,28.276 37.618,28.424 37.996,28.424 38.353,28.424 38.71,28.276 39.004,28.002 39.424,27.581 39.528,26.972 39.318,26.467 L 42.176,25.352 52.545,12.986 A 28,28 0 0 0 52.027,12.441 Z M 23.725,13 C 20.377,13.019 17.389,14.065 15.229,16.219 12.278,19.167 11.317,23.706 12.488,28.996 12.795,30.345 13.232,31.702 13.789,33.049 11.458,39.16 11.338,44.846 13.828,48.002 L 15.041,46.561 C 13.398,43.58 13.396,39.53 14.822,35.266 15.961,37.472 17.414,39.627 19.143,41.646 L 20.293,40.266 C 18.372,37.964 16.816,35.506 15.701,33.016 17.164,29.731 19.433,26.405 22.428,23.412 25.36,20.482 28.657,18.185 32.016,16.699 34.463,17.796 36.932,19.341 39.27,21.301 L 40.65,20.15 C 38.595,18.4 36.429,16.959 34.246,15.838 34.966,15.599 35.686,15.395 36.402,15.236 40.001,14.421 43.182,14.714 45.588,16.031 L 47.031,14.818 C 45.061,13.568 42.635,12.949 39.904,13.004 38.663,13.029 37.359,13.193 36.006,13.5 34.664,13.8 33.313,14.234 31.971,14.785 29.151,13.592 26.329,12.985 23.725,13 Z M 23.646,14.754 C 25.561,14.734 27.633,15.094 29.758,15.811 26.73,17.367 23.799,19.52 21.172,22.158 18.482,24.846 16.352,27.802 14.826,30.789 14.579,30.057 14.369,29.325 14.203,28.598 13.157,23.935 13.952,19.984 16.463,17.475 18.275,15.663 20.786,14.784 23.646,14.754 Z M 50.191,17.977 48.979,19.418 C 49.983,21.258 50.379,23.56 50.148,26.152 50.672,26.989 51.154,27.804 51.572,28.641 52.451,24.459 51.97,20.758 50.191,17.977 Z M 31.959,22 C 25.908,22 21,26.944 21,33.041 21,35.178 21.604,37.149 22.664,38.846 L 23.268,38.615 C 23.372,37.987 23.641,37.42 24.078,36.98 24.161,36.897 24.265,36.813 24.369,36.75 23.829,35.619 23.496,34.362 23.496,33.021 23.496,28.307 27.3,24.473 31.979,24.473 33.309,24.473 34.557,24.786 35.68,25.352 35.763,25.247 35.827,25.142 35.91,25.059 36.347,24.619 36.887,24.347 37.49,24.264 L 37.719,23.654 C 36.034,22.607 34.08,22 31.959,22 Z M 44.855,24.332 43.705,25.713 C 45.667,28.05 47.213,30.52 48.311,32.969 L 48.266,33.072 C 46.759,36.418 44.458,39.723 41.592,42.566 37.386,46.769 32.427,49.676 27.615,50.742 24.017,51.558 20.836,51.264 18.43,49.926 L 16.986,51.139 C 18.89,52.372 21.408,53 24.002,53 25.341,53 26.549,52.811 28.014,52.477 33.161,51.327 38.433,48.253 42.848,43.82 45.457,41.213 47.63,38.267 49.197,35.223 50.985,40.524 50.559,45.493 47.533,48.504 45.253,50.783 41.676,51.642 37.533,50.973 36.759,51.454 35.963,51.892 35.168,52.289 36.925,52.749 38.599,53 40.189,53 43.663,53 46.655,51.912 48.789,49.779 54.313,44.238 52.45,33.261 44.855,24.332 Z M 41.357,27.154 40.754,27.385 C 40.629,28.013 40.359,28.58 39.922,29.02 39.839,29.103 39.735,29.187 39.631,29.25 40.172,30.381 40.506,31.638 40.506,32.979 40.506,37.693 36.7,41.527 32.021,41.527 30.691,41.527 29.443,41.214 28.32,40.648 28.237,40.753 28.175,40.858 28.092,40.941 27.655,41.381 27.113,41.653 26.51,41.736 L 26.281,42.346 C 27.966,43.393 29.92,44 32.041,44 38.092,44 43,39.056 43,32.959 43,30.822 42.397,28.851 41.357,27.154 Z M 32,28 A 5,5 0 0 0 27,33 5,5 0 0 0 32,38 5,5 0 0 0 37,33 5,5 0 0 0 32,28 Z M 26.004,37.576 C 25.647,37.576 25.29,37.724 24.996,37.998 24.576,38.419 24.47,39.028 24.68,39.533 L 21.824,40.648 12.395,51.891 A 28,28 0 0 0 13.104,52.6 L 24.324,43.152 25.438,40.291 C 25.606,40.354 25.793,40.396 25.982,40.396 26.339,40.396 26.696,40.248 26.969,39.975 27.515,39.428 27.515,38.524 26.969,37.977 26.717,37.703 26.361,37.576 26.004,37.576 Z M 24.729,44.656 23.348,45.807 C 24.561,46.852 25.838,47.793 27.156,48.65 27.658,48.483 28.703,48.065 29.143,47.793 27.511,46.852 26.235,45.911 24.729,44.656 Z"/>
 <path style="fill:#ffffff" d="M 53.753,10.011 39.64,21.837 38.527,24.699 C 38.359,24.636 38.17,24.594 37.981,24.594 37.624,24.594 37.267,24.741 36.994,25.014 36.448,25.561 36.448,26.466 36.994,27.013 37.267,27.287 37.624,27.434 38.002,27.434 38.359,27.434 38.716,27.287 39.01,27.013 39.43,26.593 39.535,25.982 39.325,25.477 L 42.181,24.362 54.005,10.264 Z M 39.911,12.01 C 38.67,12.031 37.366,12.2 36.011,12.515 34.669,12.81 33.318,13.252 31.976,13.799 25.531,11.064 19.077,11.4 15.236,15.23 12.285,18.176 11.323,22.721 12.495,28.002 12.802,29.349 13.238,30.717 13.795,32.063 11.464,38.166 11.344,43.847 13.835,47.003 L 15.047,45.572 C 13.404,42.584 13.402,38.544 14.828,34.273 15.967,36.482 17.42,38.629 19.148,40.649 L 20.299,39.281 C 18.378,36.966 16.821,34.525 15.708,32.021 17.17,28.739 19.44,25.414 22.433,22.426 25.365,19.501 28.662,17.187 32.021,15.714 34.469,16.808 36.937,18.344 39.275,20.322 L 40.657,19.165 C 38.6,17.418 36.435,15.966 34.251,14.851 34.971,14.62 35.692,14.409 36.408,14.241 40.008,13.441 43.187,13.715 45.594,15.04 L 47.037,13.82 C 45.067,12.579 42.641,11.968 39.911,12.01 Z M 23.653,13.757 C 25.567,13.736 27.639,14.115 29.763,14.83 26.736,16.387 23.805,18.533 21.177,21.164 18.489,23.857 16.357,26.803 14.832,29.791 14.585,29.075 14.375,28.339 14.209,27.603 13.163,22.952 13.959,18.996 16.469,16.492 18.281,14.683 20.793,13.799 23.653,13.757 Z M 50.198,16.997 48.984,18.428 C 49.988,20.259 50.385,22.574 50.154,25.162 50.677,26.003 51.16,26.824 51.578,27.645 52.458,23.478 51.975,19.775 50.198,16.997 Z M 31.966,21.016 C 25.913,21.016 21.007,25.961 21.007,32.042 21.007,34.189 21.61,36.167 22.67,37.85 L 23.273,37.619 C 23.378,36.987 23.647,36.44 24.084,35.998 24.168,35.914 24.271,35.83 24.376,35.767 23.834,34.631 23.502,33.368 23.502,32.042 23.502,27.308 27.306,23.478 31.985,23.478 33.314,23.478 34.562,23.794 35.685,24.362 35.769,24.257 35.832,24.152 35.916,24.067 36.353,23.626 36.893,23.352 37.496,23.268 L 37.725,22.658 C 36.04,21.627 34.085,21.016 31.966,21.016 Z M 44.861,23.352 43.71,24.72 C 45.672,27.055 47.218,29.538 48.316,31.979 L 48.272,32.084 C 46.764,35.43 44.464,38.734 41.597,41.574 37.393,45.783 32.434,48.687 27.621,49.76 24.023,50.559 20.841,50.265 18.436,48.939 L 16.994,50.16 C 18.896,51.38 21.414,52.011 24.008,52.011 25.346,52.011 26.556,51.822 28.02,51.485 33.167,50.328 38.439,47.256 42.853,42.837 45.462,40.228 47.635,37.282 49.202,34.231 50.992,39.533 50.565,44.499 47.539,47.508 45.258,49.802 41.681,50.644 37.54,49.991 36.765,50.454 35.969,50.896 35.173,51.296 36.931,51.759 38.605,52.011 40.194,52.011 43.668,52.011 46.661,50.917 48.795,48.792 54.318,43.258 52.455,32.274 44.861,23.352 Z M 41.362,26.172 40.759,26.403 C 40.636,27.034 40.365,27.582 39.928,28.023 39.844,28.108 39.741,28.192 39.636,28.255 40.178,29.391 40.512,30.654 40.512,31.979 40.512,36.714 36.706,40.543 32.027,40.543 30.697,40.543 29.45,40.228 28.326,39.66 28.242,39.765 28.181,39.87 28.097,39.954 27.66,40.396 27.119,40.67 26.516,40.754 L 26.287,41.364 C 27.971,42.395 29.927,43.005 32.048,43.005 38.098,43.005 43.007,38.06 43.007,31.979 43.007,29.833 42.402,27.855 41.362,26.172 Z M 32.006,27.013 A 4.9999,4.9998 0 0 0 27.005,32 4.9999,4.9998 0 0 0 32.006,37.008 4.9999,4.9998 0 0 0 37.006,32 4.9999,4.9998 0 0 0 32.006,27.013 Z M 26.01,36.587 C 25.653,36.587 25.296,36.735 25.002,37.008 24.582,37.429 24.477,38.039 24.687,38.544 L 21.83,39.66 10.006,53.758 10.258,54.01 24.33,42.164 25.443,39.302 C 25.611,39.365 25.8,39.407 25.989,39.407 26.346,39.407 26.701,39.26 26.974,38.986 27.52,38.439 27.52,37.534 26.974,36.987 26.722,36.714 26.367,36.587 26.01,36.587 Z M 24.735,43.658 23.353,44.815 C 24.567,45.867 25.844,46.814 27.163,47.656 27.665,47.487 28.708,47.066 29.15,46.814 27.516,45.867 26.241,44.92 24.735,43.658 Z"/>
</svg>
