<svg xmlns="http://www.w3.org/2000/svg" width="64" height="64" version="1">
 <path style="opacity:0.2" d="m 4,36.602 0,2 C 4,51.012 13.9888,61 26.398,61 l 11.2032,0 c 12.41,0 22.398,-9.988 22.398,-22.398 l 0,-2 C 59.9992,49.012 50.0112,59 37.6012,59 L 26.398,59 C 13.9888,59 4,49.012 4,36.602 Z"/>
 <rect style="fill:#e73c4f" width="56" height="56" x="4" y="4" rx="22.4" ry="22.4"/>
 <path style="opacity:0.2;fill:#ffffff" d="M 26.398438 4 C 13.989237 4 4 13.989237 4 26.398438 L 4 27.398438 C 4 14.989237 13.989237 5 26.398438 5 L 37.601562 5 C 50.011562 5 60 14.989237 60 27.398438 L 60 26.398438 C 60 13.989237 50.011562 4 37.601562 4 L 26.398438 4 z"/>
 <path style="opacity:0.2" d="m 32.008,5.0001133 0.0156,19.9725997 0.02734,21.972 5.9022,0 0.0156,-5.7774 c 0.011,-4.5748 0.02534,-5.7736 0.07812,-5.754 0.0367,0.0142 1.17704,1.76538 2.3478,3.8906 1.17076,2.12522 2.281,4.1034 2.461,4.3984 0.37224,0.61028 1.10276,1.45318 1.57812,1.8164 0.99488,0.76016 2.0314,1.15058 3.6328,1.36718 0.85736,0.116 3.7546,0.15746 3.8438,0.05468 0.03892,-0.04486 0.05242,-1.08948 0.04296,-3.3124 l -0.0156,-3.60853 -1.07032,-0.03906 c -1.86742,0.01953 -2.743965,-0.469175 -3.7891,-1.83669 -0.16424,-0.26564 -0.99276,-1.75828 -1.83984,-3.3164 -1.49354,-2.7472 -1.53714,-2.8394 -1.45704,-2.9804 0.04542,-0.08006 1.90656,-3.077 4.1368,-6.6602 2.2302,-3.583 4.0704,-6.09721 4.086,-6.14381 0.0237,-0.07131 -0.54628,-0.04297 -3.5898,-0.04297 l -3.625,0 -3.2618,4.74544 c -1.79568,2.8832 -3.4502,5.2524 -3.4846,5.2656 -0.05884,0.02266 -0.05908,-16.691 -0.02734,-23.9839997 -0.194,-0.001 -0.2236,-0.0236 -0.4156,-0.0236 l -5.594,0 z M 18.5196,19.000113 c -0.7474,0.0064 -1.4776,0.0428 -1.8282,0.1094 -2.882,0.5478 -4.823481,2.0966 -5.927681,4.5786 -0.34966,0.78612 -0.56364,1.54728 -0.69922,2.4726 -0.090296,0.61622 -0.097962,0.88144 -0.074218,1.88282 0.01942,0.81746 0.05418,1.33464 0.125,1.73438 0.48392,2.7306 1.768601,4.4608 4.177681,5.3632 0.77746,0.29124 1.26314,0.40274 3.3438,0.75 1.1562,0.19298 2.0376,0.3658 2.2226,0.4414 0.79582,0.3252 1.16644,0.91366 1.23438,1.94532 0.08362,1.27002 -0.53472,2.1392 -1.78124,2.5 -0.49984,0.14472 -1.41496,0.22572 -2.0586,0.1836 -2.115,-0.14 -3.496,-0.66 -4.6916,-1.774 l -0.1406,-0.134 -1.8086,2.118 c -0.99652,1.16394 -1.8125,2.166 -1.8125,2.2226 0,0.14252 0.8359,0.98136 1.47656,1.48438 1.61708,1.26964 3.3332,1.86812 6.0546,2.1054 0.5717,0.04992 2.6796,-0.02384 3.168,-0.10938 3.6612,-0.64112 6.388238,-2.8316 7.216038,-6.0898 0.38478,-1.51432 0.37616,-3.8032 -0.0196,-5.5 -0.29,-1.246 -0.668,-2.026 -1.402,-2.892 -0.768,-0.902 -1.628438,-1.37 -2.786438,-1.824 -0.782,-0.306 -1.937562,-0.452 -4.023162,-0.792 -2.2242,-0.366 -2.4888,-0.458 -2.9962,-1.012 -0.575,-0.628 -0.6742,-1.464 -0.289,-2.38 0.2724,-0.646 0.8282,-1.0138 1.629,-1.2698 0.41812,-0.13368 2.589962,-0.14654 3.257362,-0.02344 0.89648,0.16532 1.73754,0.47428 2.336,1.04042 0.17402,0.16464 0.34628,0.30078 0.38282,0.30078 0.09918,0 3.5664,-4.0748 3.5664,-4.1914 0,-0.13532 -0.66992,-0.79896 -1.32032,-1.3086 -1.254,-0.9834 -2.746,-1.5858 -4.604,-1.8558 -0.416,-0.0604 -1.1792,-0.0844 -1.9264,-0.0782 z"/>
 <path style="fill:#ffffff" d="m 32.008,4 0.0156,19.9726 0.02734,21.972 5.9022,0 0.0156,-5.7774 c 0.011,-4.5748 0.02534,-5.7736 0.07812,-5.754 0.0367,0.0142 1.17704,1.76538 2.3478,3.8906 1.17076,2.12522 2.281,4.1034 2.461,4.3984 0.37224,0.61028 1.10276,1.45318 1.57812,1.8164 0.99488,0.76016 2.0314,1.15058 3.6328,1.36718 0.85736,0.116 3.7546,0.15746 3.8438,0.05468 0.03892,-0.04486 0.05242,-1.08948 0.04296,-3.3124 l -0.0156,-3.60853 -1.07032,-0.03906 C 49,39 48.123455,38.511295 47.07832,37.14378 c -0.16424,-0.26564 -0.99276,-1.75828 -1.83984,-3.3164 -1.49354,-2.7472 -1.53714,-2.8394 -1.45704,-2.9804 0.04542,-0.08006 1.90656,-3.077 4.1368,-6.6602 2.2302,-3.583 4.0704,-6.09721 4.086,-6.14381 C 52.02794,17.97166 51.45796,18 48.41444,18 l -3.625,0 -3.2618,4.74544 c -1.79568,2.8832 -3.4502,5.2524 -3.4846,5.2656 -0.05884,0.02266 -0.05908,-16.691 -0.02734,-23.984 -0.194,-0.001 -0.2236,-0.0236 -0.4156,-0.0236 l -5.594,0 z M 18.5196,18 c -0.7474,0.0064 -1.4776,0.0428 -1.8282,0.1094 -2.882,0.5478 -4.823481,2.0966 -5.927681,4.5786 -0.34966,0.78612 -0.56364,1.54728 -0.69922,2.4726 -0.090296,0.61622 -0.097962,0.88144 -0.074218,1.88282 0.01942,0.81746 0.05418,1.33464 0.125,1.73438 0.48392,2.7306 1.768601,4.4608 4.177681,5.3632 0.77746,0.29124 1.26314,0.40274 3.3438,0.75 1.1562,0.19298 2.0376,0.3658 2.2226,0.4414 0.79582,0.3252 1.16644,0.91366 1.23438,1.94532 0.08362,1.27002 -0.53472,2.1392 -1.78124,2.5 -0.49984,0.14472 -1.41496,0.22572 -2.0586,0.1836 -2.115,-0.14 -3.496,-0.66 -4.6916,-1.774 l -0.1406,-0.134 -1.8086,2.118 c -0.99652,1.16394 -1.8125,2.166 -1.8125,2.2226 0,0.14252 0.8359,0.98136 1.47656,1.48438 1.61708,1.26964 3.3332,1.86812 6.0546,2.1054 0.5717,0.04992 2.6796,-0.02384 3.168,-0.10938 3.6612,-0.64112 6.388238,-2.8316 7.216038,-6.0898 0.38478,-1.51432 0.37616,-3.8032 -0.0196,-5.5 -0.29,-1.246 -0.668,-2.026 -1.402,-2.892 -0.768,-0.902 -1.628438,-1.37 -2.786438,-1.824 -0.782,-0.306 -1.937562,-0.452 -4.023162,-0.792 -2.2242,-0.366 -2.4888,-0.458 -2.9962,-1.012 -0.575,-0.628 -0.6742,-1.464 -0.289,-2.38 0.2724,-0.646 0.8282,-1.0138 1.629,-1.2698 0.41812,-0.13368 2.589962,-0.14654 3.257362,-0.02344 0.89648,0.16532 1.73754,0.47428 2.336,1.04042 0.17402,0.16464 0.34628,0.30078 0.38282,0.30078 0.09918,0 3.5664,-4.0748 3.5664,-4.1914 0,-0.13532 -0.66992,-0.79896 -1.32032,-1.3086 -1.254,-0.9834 -2.746,-1.5858 -4.604,-1.8558 -0.416,-0.0604 -1.1792,-0.0844 -1.9264,-0.0782 z"/>
</svg>
