<svg width="64" height="64" version="1.1" xmlns="http://www.w3.org/2000/svg" xmlns:xlink="http://www.w3.org/1999/xlink">
 <circle cx="32" cy="33" r="28" style="opacity:.2"/>
 <circle cx="32" cy="32" r="28" style="fill:#6ab1e6"/>
 <path d="m26.841797 19.001953c-2.571163 0.451894-5.03223 1.242565-7.328125 2.318359-0.01987 0.0088-0.03362 0.02208-0.04492 0.04102-4.667008 7.115091-5.947495 14.055992-5.320312 20.910156 0.0029 0.03353 0.02132 0.06555 0.04687 0.08594 3.079158 2.307537 6.060979 3.708177 8.988282 4.636719 0.04686 0.01459 0.09715-0.0018 0.126953-0.04102 0.692454-0.964968 1.310603-1.76203 1.839844-2.832031 0.03123-0.06266 0.0014-0.137322-0.0625-0.16211-0.979078-0.379001-1.909853-0.840479-2.806641-1.365234-0.07093-0.04228-0.07884-0.145744-0.01367-0.195312 0.188717-0.144306 0.378396-0.295664 0.558594-0.447266 0.03261-0.02768 0.07886-0.0331 0.117187-0.01563 5.891517 2.744904 12.269794 2.744904 18.091797 0 0.03832-0.01893 0.08121-0.01417 0.115235 0.01367 0.180249 0.1516 0.370409 0.304914 0.560547 0.449219 0.06525 0.04956 0.05921 0.153042-0.01172 0.195312-0.896788 0.534951-1.828091 0.987681-2.808594 1.365234-0.06383 0.02479-0.09178 0.09945-0.06055 0.16211 0.540598 1.068502 1.15626 1.86506 1.835938 2.830078 0.02839 0.04082 0.0801 0.05757 0.126953 0.04297 2.941502-0.928542 5.924747-2.32918 9.003906-4.636719 0.02697-0.02039 0.04599-0.05241 0.04883-0.08594 0.75061-7.924165-1.260834-14.804242-5.326172-20.90625-0.01-0.02039-0.02504-0.03618-0.04492-0.04492-2.294474-1.074345-4.75359-1.865015-7.326171-2.318359-0.04686-0.0088-0.09501 0.01108-0.119141 0.05469-0.316437 0.57433-0.664702 0.643506-0.910156 1.232421-2.766979-0.422723-5.522181-0.422722-8.232422 0-0.245505-0.602004-0.607922-0.658091-0.925781-1.232421-0.02413-0.04228-0.07229-0.06199-0.119141-0.05469zm-1.345703 12.998047c1.964368 0 3.534616 1.584517 3.503906 3.5 0 1.929277-1.554892 3.5-3.503906 3.5-1.918413 0-3.496094-1.570723-3.496094-3.5 0-1.929278 1.547025-3.5 3.496094-3.5zm13.003906 0c1.964425 0 3.530658 1.584517 3.5 3.5 1e-6 1.929277-1.535575 3.5-3.5 3.5-1.918357 0-3.5-1.570723-3.5-3.5 0-1.929278 1.550932-3.5 3.5-3.5z" style="opacity:.2"/>
 <path d="m26.841797 18.001953c-2.571163 0.451894-5.03223 1.242565-7.328125 2.318359-0.01987 0.008801-0.033622 0.022076-0.044922 0.041016-4.667008 7.115091-5.947495 14.055992-5.320312 20.910156 0.0029 0.03353 0.021325 0.065548 0.046874 0.085938 3.079158 2.307537 6.060979 3.708177 8.988282 4.636719 0.04686 0.01459 0.097148-0.001786 0.126953-0.041016 0.692454-0.964968 1.310603-1.76203 1.839844-2.832031 0.03123-0.06266 0.0014-0.137322-0.0625-0.16211-0.979078-0.379001-1.909853-0.840479-2.806641-1.365234-0.07093-0.04228-0.078842-0.145744-0.013672-0.195312 0.188717-0.144306 0.378396-0.295664 0.558594-0.447266 0.03261-0.02768 0.078859-0.033105 0.117187-0.015625 5.891517 2.744904 12.269794 2.744904 18.091797 0 0.03832-0.01893 0.081207-0.014168 0.115235 0.013672 0.180249 0.1516 0.370409 0.304914 0.560547 0.449219 0.065249 0.049559 0.059211 0.153042-0.011719 0.195312-0.896788 0.534951-1.828091 0.987681-2.808594 1.365234-0.06383 0.02479-0.091777 0.099446-0.060547 0.16211 0.540598 1.068502 1.15626 1.86506 1.835938 2.830078 0.02839 0.04082 0.080098 0.057569 0.126953 0.042969 2.941502-0.928542 5.924747-2.32918 9.003906-4.636719 0.02697-0.02039 0.045988-0.052408 0.048828-0.085938 0.75061-7.924165-1.260834-14.804242-5.326172-20.90625-0.01-0.02039-0.025042-0.036181-0.044922-0.044922-2.294474-1.074345-4.75359-1.865015-7.326171-2.318359-0.046861-0.0088-0.095009 0.011078-0.119141 0.054688-0.316437 0.57433-0.664702 0.643506-0.910156 1.232421-2.766979-0.422723-5.522181-0.422722-8.232422 0-0.245505-0.602004-0.607922-0.658091-0.925781-1.232421-0.02413-0.04228-0.072289-0.061988-0.119141-0.054688zm-1.345703 12.998047c1.964368 0 3.534616 1.584517 3.503906 3.5 0 1.929277-1.554892 3.5-3.503906 3.5-1.918413 0-3.496094-1.570723-3.496094-3.5 0-1.929278 1.547025-3.5 3.496094-3.5zm13.003906 0c1.964425 0 3.530658 1.584517 3.5 3.5 1e-6 1.929277-1.535575 3.5-3.5 3.5-1.918357 0-3.5-1.570723-3.5-3.5 0-1.929278 1.550932-3.5 3.5-3.5z" style="fill:#ffffff"/>
 <path d="M 32 4 A 28 28 0 0 0 4 32 A 28 28 0 0 0 4.0058594 32.509766 A 28 28 0 0 1 32 5 A 28 28 0 0 1 59.994141 32.490234 A 28 28 0 0 0 60 32 A 28 28 0 0 0 32 4 z" style="fill:#ffffff;opacity:.1"/>
</svg>
