<svg xmlns="http://www.w3.org/2000/svg" width="64" height="64" version="1.1">
 <path style="fill:#e4e4e4" d="M 32.155597,4.0017289 A 6.5946984,6.3671019 0 0 0 28.70165,4.8511158 L 9.2973497,15.667749 a 6.5946984,6.3671019 0 0 0 -3.2973492,5.513915 l 0,21.633667 a 6.5946984,6.3671019 0 0 0 3.2973492,5.513915 L 28.70225,59.14608 a 6.5946984,6.3671019 0 0 0 6.594699,0 L 54.70185,48.329246 a 6.5946984,6.3671019 0 0 0 3.297949,-5.515915 l 0,-21.633667 A 6.5946984,6.3671019 0 0 0 54.70185,15.665749 L 35.298149,4.8491158 A 6.5946984,6.3671019 0 0 0 32.156197,3.9997289 Z"/>
 <path style="opacity:0.2;fill:#ffffff" d="M 32.15625,4.0019531 A 6.5947745,6.3719333 0 0 0 28.703125,4.8535156 L 9.296875,15.677734 A 6.5947745,6.3719333 0 0 0 6,21.197266 l 0,1.001953 A 6.5947745,6.3719333 0 0 1 9.296875,16.677734 L 28.703125,5.8535156 A 6.5947745,6.3719333 0 0 1 32.15625,5.0019531 6.5947745,6.3719333 0 0 1 35.296875,5.8535156 L 54.703125,16.677734 A 6.5947745,6.3719333 0 0 1 58,22.199219 l 0,-1.001953 A 6.5947745,6.3719333 0 0 0 54.703125,15.677734 L 35.296875,4.8535156 A 6.5947745,6.3719333 0 0 0 32.15625,4.0019531 Z"/>
 <path style="opacity:0.2" d="m 6,41.800859 a 6.5946984,6.3721235 0 0 0 0.00195,0.07422 l 0,-0.07422 -0.00195,0 z m 0.00195,1 0,1 a 6.5946984,6.3721235 0 0 0 3.296875,5.517578 l 19.406253,10.828125 a 6.5946984,6.3721235 0 0 0 6.59375,0 L 54.703125,49.318437 A 6.5946984,6.3721235 0 0 0 58,43.800859 l 0,-1 a 6.5946984,6.3721235 0 0 1 -3.296875,5.517578 L 35.298828,59.146562 a 6.5946984,6.3721235 0 0 1 -6.59375,0 L 9.2988281,48.318437 a 6.5946984,6.3721235 0 0 1 -3.296875,-5.517578 z"/>
 <path style="fill:none;stroke:#a81717;stroke-width:6;stroke-linecap:square;stroke-linejoin:round" d="m 20.014176,18 h 23.972 l -23.972,28 h 23.944"/>
</svg>
