<?xml version="1.0" encoding="UTF-8" standalone="no"?>
<svg xmlns="http://www.w3.org/2000/svg" height="22" width="22" version="1.1">
 <defs>
  <style type="text/css" id="current-color-scheme">
   .ColorScheme-Text { color:#5c616c; } .ColorScheme-Highlight { color:#5294e2; } .ColorScheme-ButtonBackground { color:#d3dae3; }
  </style>
 </defs>
 <path style="fill:currentColor;stroke-width:1.00131023;stroke-linecap:round;stroke-linejoin:round" class="ColorScheme-ButtonBackground" d="M 11 3 A 8 8 0 0 0 3 11 A 8 8 0 0 0 11 19 A 8 8 0 0 0 19 11 A 8 8 0 0 0 11 3 z M 10.875 5 L 11.125 5 C 11.60975 5 12 5.39025 12 5.875 L 12 10 L 16.125 10 C 16.60975 10 17 10.39025 17 10.875 L 17 11.125 C 17 11.60975 16.60975 12 16.125 12 L 11.125 12 L 10.875 12 C 10.39025 12 10 11.60975 10 11.125 L 10 10.875 L 10 5.875 C 10 5.39025 10.39025 5 10.875 5 z"/>
</svg>
