<svg xmlns="http://www.w3.org/2000/svg" width="22" height="22" version="1.1">
 <defs>
  <style id="current-color-scheme" type="text/css">
   .ColorScheme-Text { color:#dfdfdf; } .ColorScheme-Highlight { color:#4285f4; } .ColorScheme-NeutralText { color:#ff9800; } .ColorScheme-PositiveText { color:#4caf50; } .ColorScheme-NegativeText { color:#f44336; }
  </style>
 </defs>
 <g transform="translate(-57 -719.36)">
  <path opacity=".3" style="fill:currentColor" class="ColorScheme-Text" d="m60.5 722.36c-0.277 0-0.5 0.22301-0.5 0.50001v0.5h-2v-0.00026l-0.000015 14.502c0 0.277 0.223 0.5 0.5 0.5h6c0.277 0 0.5-0.223 0.5-0.5v-14.5l-0.50002 0.002h-1.5v-0.5c0-0.277-0.223-0.50001-0.5-0.50001z"/>
  <path style="fill:currentColor" class="ColorScheme-Text" d="m58 727.36-0.000015 10.502c0 0.277 0.223 0.5 0.5 0.5h6c0.277 0 0.5-0.223 0.5-0.5v-10.5z"/>
  <path fill-rule="evenodd" style="fill:currentColor" class="ColorScheme-Text" d="m68 723.36c-0.554 0-1 0.446-1 1v13c0 0.554 0.446 1 1 1h5c0.554 0 1-0.446 1-1v-13c0-0.554-0.446-1-1-1h-5zm0 3h1v1h-1v-1zm2 0h1v1h-1v-1zm2 1h1v7h-1v-7zm-4 1h1v1h-1v-1zm2 0h1v1h-1v-1zm-2 2h1v1h-1v-1zm2 0h1v1h-1v-1zm-2 2h1v1h-1v-1zm2 0h1v1h-1v-1zm-2 2h1v1h-1v-1zm2 0h1v1h-1v-1z"/>
 </g>
</svg>
