<?xml version="1.0" encoding="UTF-8" standalone="no"?>
<svg id="svg7384" xmlns:rdf="http://www.w3.org/1999/02/22-rdf-syntax-ns#" style="enable-background:new" xmlns="http://www.w3.org/2000/svg" height="22" width="22" version="1.1" xmlns:cc="http://creativecommons.org/ns#" xmlns:dc="http://purl.org/dc/elements/1.1/">
 <metadata id="metadata90">
  <rdf:RDF>
   <cc:Work rdf:about="">
    <dc:format>image/svg+xml</dc:format>
    <dc:type rdf:resource="http://purl.org/dc/dcmitype/StillImage"/>
   </cc:Work>
  </rdf:RDF>
 </metadata>
 <path id="path4186" opacity=".3" style="color:#bebebe" d="m11 3c-1.6621 0-3 1.3381-3 3v5.002c0 1.662 1.3379 2.998 3 2.998 1.662 0 3-1.336 3-2.998v-5.002c0-1.6619-1.338-3-3-3zm-6 7v0.998c0 2.967 2 6.002 5 6.002v2h2v-2c3 0 5-3.036 5-6.002v-0.998h-2v0.998c0 2.234-1.767 4.002-4 4.002-2.2334 0-4-1.768-4-4.002v-0.998h-2z" fill="#fff"/>
</svg>
