<svg xmlns="http://www.w3.org/2000/svg" width="22" height="22" version="1.1">
 <defs>
  <style id="current-color-scheme" type="text/css">
   .ColorScheme-Text { color:#dfdfdf; } .ColorScheme-Highlight { color:#4285f4; }
  </style>
 </defs>
 <path style="opacity:0.3;fill:currentColor" class="ColorScheme-Text" d="m 11,3 c -4.418278,0 -8,3.581722 -8,8 0,4.418278 3.581722,8 8,8 0.338712,0 0.670405,-0.0275 0.998047,-0.06836 0.05173,-0.0066 0.102741,-0.01582 0.154297,-0.02344 0.299691,-0.04336 0.592886,-0.104065 0.880859,-0.179687 0.02863,-0.0076 0.05739,-0.01358 0.08594,-0.02148 0.676028,-0.185594 1.314428,-0.456829 1.90625,-0.802734 1.775458,-1.037712 3.113063,-2.736107 3.675781,-4.761719 0.0058,-0.02073 0.01,-0.04173 0.01563,-0.0625 0.07946,-0.295263 0.142041,-0.596573 0.1875,-0.904297 0.0086,-0.05675 0.01802,-0.112956 0.02539,-0.169922 C 18.971209,11.675649 19,11.341472 19,11 19,6.581722 15.418278,3 11,3 Z M 9,6 c 0.6026,0 1.262525,0.065 1.828125,0.25 0.2828,0.0925 0.546431,0.2130031 0.769531,0.4082031 C 11.688256,6.7375031 11.694519,6.889 11.761719,7 H 12.5 c 0.276131,2.76e-5 0.499972,0.2238691 0.5,0.5 V 8 c 0.202,0.0034 0.317172,0.0103 1.201172,0 0.376,-0.0044 0.605719,-0.0015 0.886719,0 C 15.299511,7.4014455 15.865138,7.0009371 16.5,7 17.328427,7 18,7.6715729 18,8.5 18,9.3284271 17.328427,10 16.5,10 c -0.05347,-4.125e-4 -0.107035,-0.00365 -0.160156,-0.00977 -0.695,0.8637996 -1.640703,1.5575156 -2.345703,2.2285156 L 14,12.488281 C 14.0068,12.771458 13.777378,13.003452 13.494141,13 c -0.447,-0.005 -0.501375,0.09245 -0.484375,0.06445 0.016,-0.027 -0.01688,0.0878 0.07813,0.341797 0.095,0.255 0.275125,0.587734 0.453125,0.927734 0.178,0.34 0.359312,0.680735 0.445312,1.052735 C 14.058908,15.699741 13.821326,15.999276 13.5,16 h -3 c -0.0013,5e-6 -0.0026,5e-6 -0.0039,0 -1.3257002,-0.008 -3.994141,0 -3.994141,0 -0.415933,0.0018 -0.652096,-0.47505 -0.398437,-0.804688 0.2764,-0.359999 0.535097,-1.041906 0.716796,-1.753906 0.130601,-0.511 0.222129,-1.008937 0.298829,-1.460937 -0.0699,-0.013 -0.14105,-0.03322 -0.21875,-0.07422 -0.1626,-0.085 -0.339225,-0.3415 -0.328125,-0.5625 0.0073,-0.148 0.024,-0.141156 0.0293,-0.160156 0.0052,-0.02 0.0066,-0.02911 0.0078,-0.03711 v -0.002 C 6.190375,10.558531 6,9.78265 6,9.09375 6,8.21625 6.415569,7.4454375 6.980469,6.8984375 7.545269,6.3515375 8.2656,6 9,6 Z M 9,7 C 8.6082,7 8.0793813,7.2263875 7.675781,7.6171875 7.272181,8.0079875 7,8.53515 7,9.09375 c 0,0.5009 0.225744,1.247922 0.464844,1.544922 0.0327,0.03972 0.059,0.08505 0.07813,0.132812 0.0267,0.069 0.009,0.115688 0.01953,0.179688 0.1366,-0.019 0.268541,-0.03105 0.5566406,-0.123047 0.3417,-0.135 0.6431813,-0.285406 0.9257813,-0.441406 0.0962,-0.054 0.1893562,-0.116782 0.2851562,-0.175781 0.2095,-0.132 0.4112375,-0.267063 0.5859375,-0.414063 0.3210004,-0.2901 0.5848814,-0.6474938 0.8632814,-0.9960938 0.0964,-0.1595 0.186165,-0.3224937 0.259765,-0.4960937 C 11.117543,8.1197601 11.299109,7.9997644 11.5,8 11.223869,7.9999724 11.000028,7.7761309 11,7.5 11,7.4728 11.0072,7.4711562 10.9375,7.4101562 10.8678,7.3490563 10.718978,7.2669719 10.517578,7.2011719 10.114678,7.0693719 9.5236,7 9,7 Z m 3.583984,2 c -0.02905,0.00519 -0.05838,0.00781 -0.08789,0.00781 L 11.984375,9.0039 c -0.0864,0.0518 -0.194784,0.1407938 -0.333984,0.3085938 -0.3124,0.3764 -0.6995,1.0072812 -1.375,1.4882812 -0.6310004,0.449 -1.1564129,0.688516 -1.5703129,0.853516 -0.08,0.035 -0.1458156,0.07833 -0.2285156,0.111328 -0.00967,0.0033 -0.019441,0.0071 -0.029297,0.0098 -0.0665,0.022 -0.1125281,0.02887 -0.1738281,0.04687 -0.0289,0.01 -0.1081063,0.04378 -0.1289063,0.05078 -0.0829,0.511 -0.1825692,1.139406 -0.3554692,1.816406 -0.1219,0.478 -0.355634,0.879547 -0.552734,1.310547 0.691,-0.002 2.1758783,-0.007 3.2675781,0 h 2.240235 c -0.038,-0.077 -0.04489,-0.120172 -0.08789,-0.201172 -0.172,-0.329 -0.368906,-0.680969 -0.503906,-1.042969 -0.135,-0.362 -0.250047,-0.791984 0.002,-1.208984 0.157,-0.259 0.525891,-0.263844 0.837891,-0.339844 l -0.0039,-0.195312 c -0.0032,-0.136988 0.04941,-0.268529 0.146485,-0.365235 0.762,-0.764 1.616656,-1.477534 2.222656,-2.1777342 C 15.240109,9.3300605 15.148432,9.1712656 15.087891,9 c -0.28,-0.0015 -0.52,-0.0041 -0.875,0 -1.179,0.0138 -1.577907,0.0014 -1.628907,0 z"/>
 <path style="fill:currentColor" class="ColorScheme-Text" d="M 11 3 L 11 6.3203125 C 11.215819 6.4042324 11.421758 6.5043018 11.597656 6.6582031 C 11.688256 6.7375031 11.694519 6.889 11.761719 7 L 12.5 7 C 12.776131 7.0000276 12.999972 7.2238691 13 7.5 L 13 8 C 13.202 8.0034 13.317172 8.0103 14.201172 8 C 14.577172 7.9956 14.806891 7.9985 15.087891 8 C 15.299511 7.4014455 15.865138 7.0009371 16.5 7 C 17.328427 7 18 7.6715729 18 8.5 C 18 9.3284271 17.328427 10 16.5 10 C 16.44653 9.9995875 16.392965 9.9963505 16.339844 9.9902344 C 15.644844 10.854034 14.699141 11.54775 13.994141 12.21875 L 14 12.488281 C 14.0068 12.771458 13.777378 13.003452 13.494141 13 C 13.047141 12.995 12.992766 13.092453 13.009766 13.064453 C 13.025766 13.037453 12.992891 13.15225 13.087891 13.40625 C 13.182891 13.66125 13.363016 13.993984 13.541016 14.333984 C 13.719016 14.673984 13.900328 15.014719 13.986328 15.386719 C 14.058908 15.699741 13.821326 15.999276 13.5 16 L 10.5 16 C 10.4987 16.000005 10.497394 16.000005 10.496094 16 C 9.1703936 15.992 6.5019531 16 6.5019531 16 C 6.08602 16.001831 5.8498569 15.524951 6.1035156 15.195312 C 6.3799156 14.835313 6.6386125 14.153406 6.8203125 13.441406 C 6.9509125 12.930406 7.0424406 12.432469 7.1191406 11.980469 C 7.0492406 11.967469 6.9780906 11.94725 6.9003906 11.90625 C 6.7377906 11.82125 6.5611656 11.56475 6.5722656 11.34375 C 6.5795656 11.19575 6.5962625 11.202594 6.6015625 11.183594 C 6.6067625 11.163594 6.608175 11.154484 6.609375 11.146484 L 6.609375 11.144531 C 6.190375 10.558531 6 9.78265 6 9.09375 C 6 8.2376633 6.3995094 7.4875998 6.9433594 6.9433594 L 5.34375 5.34375 C 3.8960348 6.7914652 3 8.790861 3 11 C 3 15.418278 6.581722 19 11 19 C 11.338712 19 11.670405 18.972503 11.998047 18.931641 C 12.049774 18.925027 12.100788 18.915822 12.152344 18.908203 C 12.452035 18.864843 12.74523 18.804138 13.033203 18.728516 C 13.061832 18.720926 13.090598 18.714939 13.119141 18.707031 C 13.795169 18.521437 14.433569 18.250202 15.025391 17.904297 C 16.800849 16.866585 18.138454 15.16819 18.701172 13.142578 C 18.70699 13.121853 18.711146 13.100849 18.716797 13.080078 C 18.796253 12.784815 18.858838 12.483505 18.904297 12.175781 C 18.912884 12.119027 18.922319 12.062825 18.929688 12.005859 C 18.971209 11.675649 19 11.341472 19 11 C 19 6.581722 15.418278 3 11 3 z M 11 7.5 L 11 8.3789062 C 11.011716 8.3533578 11.028039 8.3306879 11.039062 8.3046875 C 11.117544 8.1197601 11.299109 7.9997644 11.5 8 C 11.223869 7.9999724 11.000028 7.7761309 11 7.5 z M 7.6484375 7.6484375 C 7.2612537 8.0360857 7 8.5489742 7 9.09375 C 7 9.59465 7.2257436 10.341672 7.4648438 10.638672 C 7.4975457 10.678392 7.5238477 10.723724 7.5429688 10.771484 C 7.5696687 10.840484 7.552 10.887172 7.5625 10.951172 C 7.6991 10.932172 7.8310406 10.920125 8.1191406 10.828125 C 8.4608406 10.693125 8.7623219 10.542719 9.0449219 10.386719 C 9.1411219 10.332719 9.2342781 10.269936 9.3300781 10.210938 C 9.5145829 10.094686 9.6864061 9.9727674 9.8457031 9.8457031 L 7.6484375 7.6484375 z M 12.583984 9 C 12.554934 9.00519 12.525604 9.0078125 12.496094 9.0078125 L 11.984375 9.0039062 C 11.897975 9.0557064 11.789591 9.1447 11.650391 9.3125 C 11.473181 9.5260133 11.264288 9.8215229 11 10.125 L 11 11 L 10.560547 10.560547 C 10.468012 10.641752 10.381275 10.725385 10.275391 10.800781 C 9.6443902 11.249781 9.1189781 11.489297 8.7050781 11.654297 C 8.6250781 11.689297 8.5592625 11.732625 8.4765625 11.765625 C 8.4668925 11.768925 8.4571216 11.772691 8.4472656 11.775391 C 8.3807656 11.797391 8.3347375 11.804266 8.2734375 11.822266 C 8.2445375 11.832266 8.1653313 11.866047 8.1445312 11.873047 C 8.0616313 12.384047 7.9619625 13.012453 7.7890625 13.689453 C 7.6671625 14.167453 7.4334281 14.569 7.2363281 15 C 7.9273281 14.998 9.4122065 14.993 10.503906 15 L 12.744141 15 C 12.706141 14.923 12.69925 14.879828 12.65625 14.798828 C 12.48425 14.469828 12.287344 14.117859 12.152344 13.755859 C 12.017344 13.393859 11.902297 12.963875 12.154297 12.546875 C 12.311297 12.287875 12.680187 12.283031 12.992188 12.207031 L 12.988281 12.011719 C 12.985081 11.874731 13.037686 11.74319 13.134766 11.646484 C 13.896766 10.882484 14.751422 10.16895 15.357422 9.46875 C 15.240109 9.3300605 15.148432 9.1712656 15.087891 9 C 14.807891 8.9985 14.567891 8.9959 14.212891 9 C 13.033891 9.0138 12.634984 9.0014 12.583984 9 z"/>
</svg>
