<svg width="22" height="22" version="1.1" xmlns="http://www.w3.org/2000/svg">
 <defs>
  <style type="text/css">.ColorScheme-Text { color:#d3dae3; } .ColorScheme-Highlight { color:#5294e2; }</style>
 </defs>
 <path d="m11 3c-4.432 0-8 3.5679998-8 8 0 4.432 3.568 8 8 8s8-3.568 8-8c0-4.4320001-3.568-8-8-8zm-3 2.9999999c1.6 1.2 5.298967 1.201999 7 1.5-1.178779 0.2616296-3.117177 0.3157436-4.769531 0.6523442 1.425675 1.015742 2.160985 1.065857 3.769531 1.347656-1.712773 0.380149-2.360694 0.342186-3.789063 1.3613279 1.684351 0.367339 3.667522 0.442191 4.789063 0.638672-1.803821 0.400357-5.4 0.3-6.9999998 1.5l1.4999998 0.199219 1.5-0.199219c-1.2 1.6-1.2019992 2.298967-1.5 4-0.4003568-1.803821-0.3-2.4-1.4999998-4l0.1992187-1.5-0.1992187-1.5c0.5052454 0.378934 1.228595 0.631302 2.0234378 0.818359l0.175781-1.3183589-0.171875-1.300781c-0.7939184 0.176621-1.5168182 0.417887-2.027344 0.800781l0.1992188-1.5000003zm4 7.0000001 1.5 0.199219 1.5-0.199219c-1.2 1.6-1.201999 2.298967-1.5 4-0.400357-1.803821-0.3-2.4-1.5-4z" style="fill:currentColor" class="ColorScheme-Text"/>
</svg>
