<?xml version="1.0" encoding="UTF-8" standalone="no"?>
<svg id="svg2" xmlns:rdf="http://www.w3.org/1999/02/22-rdf-syntax-ns#" xmlns="http://www.w3.org/2000/svg" height="22" width="22" version="1.1" xmlns:cc="http://creativecommons.org/ns#" xmlns:dc="http://purl.org/dc/elements/1.1/">
 <metadata id="metadata7">
  <rdf:RDF>
   <cc:Work rdf:about="">
    <dc:format>image/svg+xml</dc:format>
    <dc:type rdf:resource="http://purl.org/dc/dcmitype/StillImage"/>
    <dc:title/>
   </cc:Work>
  </rdf:RDF>
 </metadata>
 <g id="layer1" transform="translate(0 -1030.4)">
  <path id="path4531" d="m11 1032.4c-2.1276 0-4.0845 0.7344-5.625 1.9688l-1.8125-1.8125-1.4062 1.4062 1.8125 1.8125c-1.2343 1.5405-1.9688 3.4974-1.9688 5.625 0 4.9706 4.0294 9 9 9s9-4.0294 9-9c0-2.1276-0.73441-4.0845-1.9688-5.625l1.8125-1.8125-1.4062-1.4062-1.8125 1.8125c-1.5405-1.2344-3.4974-1.9688-5.625-1.9688zm0 2c3.866 0 7 3.134 7 7s-3.134 7-7 7-7-3.134-7-7 3.134-7 7-7zm0 1v6h-6a6 6 0 0 0 3.7031 5.543 6 6 0 0 0 6.5391 -1.3008 6 6 0 0 0 1.3008 -6.539 6 6 0 0 0 -5.543 -3.7032z" fill="#fff"/>
 </g>
</svg>
