<?xml version="1.0"?>
<svg xmlns="http://www.w3.org/2000/svg" height="22" width="22" version="1.1" id="svg2">
 <defs id="defs8">
  <style type="text/css" id="current-color-scheme">
   .ColorScheme-Text { color:#5c616c; } .ColorScheme-Highlight { color:#5294e2; } .ColorScheme-ButtonBackground { color:#d3dae3; }
  </style>
 </defs>
 <path style="fill:currentColor" class="ColorScheme-Highlight" d="m11 3c-1.662 0-3 1.338-3 3v6.361a4 4 0 0 0 -1 2.639 4 4 0 0 0 4 4 4 4 0 0 0 4 -4 4 4 0 0 0 -1 -2.639v-6.361c0-1.662-1.338-3-3-3zm0 2c0.554 0 1 0.446 1 1v7.27a2 2 0 0 1 1 1.73 2 2 0 0 1 -2 2 2 2 0 0 1 -2 -2 2 2 0 0 1 1 -1.729v-7.271c0-0.554 0.446-1 1-1z" id="path4"/>
</svg>
