<?xml version="1.0" encoding="UTF-8" standalone="no"?>
<svg id="svg7384" xmlns:rdf="http://www.w3.org/1999/02/22-rdf-syntax-ns#" style="enable-background:new" xmlns="http://www.w3.org/2000/svg" height="22" width="22" version="1.1" xmlns:cc="http://creativecommons.org/ns#" xmlns:dc="http://purl.org/dc/elements/1.1/">
 <metadata id="metadata90">
  <rdf:RDF>
   <cc:Work rdf:about="">
    <dc:format>image/svg+xml</dc:format>
    <dc:type rdf:resource="http://purl.org/dc/dcmitype/StillImage"/>
   </cc:Work>
  </rdf:RDF>
 </metadata>
 <g id="layer9" transform="translate(-545 401.01)">
  <path id="path4148" d="m11 3c-1.662 0-3 1.338-3 3v6.361a4 4 0 0 0 -1 2.639 4 4 0 0 0 4 4 4 4 0 0 0 4 -4 4 4 0 0 0 -1 -2.639v-6.361c0-1.662-1.338-3-3-3zm0 2c0.554 0 1 0.446 1 1v7.27a2 2 0 0 1 1 1.73 2 2 0 0 1 -2 2 2 2 0 0 1 -2 -2 2 2 0 0 1 1 -1.729v-7.271c0-0.554 0.446-1 1-1z" transform="translate(545 -401.01)" fill="#d3dae3"/>
 </g>
</svg>
