<svg xmlns="http://www.w3.org/2000/svg" width="22" height="22" version="1">
 <defs>
  <style id="current-color-scheme" type="text/css">
   .ColorScheme-Text { color:#d3dae3; } .ColorScheme-Highlight { color:#5294e2; }
  </style>
 </defs>
 <path opacity=".3" style="fill:currentColor" class="ColorScheme-Text" d="m11 3c-4.432 0-8 3.568-8 8s3.568 8 8 8c4.428 0 7.994-3.562 8-7.988v-0.012c0-4.432-3.568-8-8-8zm0.088 2a6 6 0 0 1 4.154 1.7578 6 6 0 0 1 0 8.4842 6 6 0 0 1 -8.4842 0 6 6 0 0 1 0 -8.4842 6 6 0 0 1 4.3302 -1.7578zm-0.088 1v5l5 0.008v-0.008c0-2.7733-2.227-5-5-5zm-4 4a1 1 0 0 0 -1 1 1 1 0 0 0 1 1 1 1 0 0 0 1 -1 1 1 0 0 0 -1 -1zm4 4a1 1 0 0 0 -1 1 1 1 0 0 0 1 1 1 1 0 0 0 1 -1 1 1 0 0 0 -1 -1z"/>
</svg>
