<?xml version="1.0" encoding="UTF-8" standalone="no"?>
<svg xmlns:dc="http://purl.org/dc/elements/1.1/" xmlns:cc="http://creativecommons.org/ns#" xmlns:rdf="http://www.w3.org/1999/02/22-rdf-syntax-ns#" xmlns:svg="http://www.w3.org/2000/svg" xmlns="http://www.w3.org/2000/svg" version="1.1" id="svg2" style="enable-background:new" viewBox="0 0 22 22">
    <metadata id="metadata20">
        <rdf:RDF>
            <cc:Work rdf:about="">
                <dc:format>
                    image/svg+xml
                </dc:format>
                <dc:type rdf:resource="http://purl.org/dc/dcmitype/StillImage"/>
            </cc:Work>
        </rdf:RDF>
    </metadata>
    <path id="path4" style="fill:#ffffff;fill-opacity:1;opacity:1" d="m 8.1 3.5 c -0.155 -0.001 -0.318 0.007 -0.487 0.03 -2.692 0.357 -2.609 2.738 -2.609 2.738 -1.103 0.193 -2 1.185 -2 2.222 0 1.037 1.152 1.955 2.118 2.222 0.574 0.159 1.328 0 1.328 0 0.341 0.619 1.461 1.032 2.245 1.032 1.278 0 2.59 -0.436 2.893 -1.032 0 0 5.292 0.436 6.391 0 1.599 -0.635 1.102 -2.622 0.038 -3.293 -1.064 -0.671 -2.458 -0.198 -2.458 -0.198 0 0 -0.003 -1.366 -1.508 -2.02 -1.505 -0.653 -2.779 0.789 -2.779 0.789 0 0 -0.839 -2.475 -3.167 -2.49 z m -3.323 8.163 c -0.043 0.011 -0.073 0.052 -0.071 0.099 l 0 0.298 -0.251 -0.169 c -0.104 -0.069 -0.203 0.094 -0.099 0.164 l 0.35 0.233 0 0.541 -0.444 -0.268 -0.019 -0.436 c 0 -0.063 -0.055 -0.109 -0.113 -0.094 -0.043 0.011 -0.073 0.052 -0.071 0.099 l 0.014 0.317 -0.246 -0.149 c -0.11 -0.094 -0.225 0.105 -0.095 0.164 l 0.251 0.149 -0.269 0.149 c -0.137 0.048 -0.03 0.26 0.085 0.169 l 0.373 -0.198 0.444 0.268 -0.449 0.268 -0.369 -0.198 c -0.115 -0.092 -0.222 0.12 -0.085 0.169 l 0.265 0.144 -0.246 0.149 c -0.107 0.066 -0.013 0.235 0.095 0.169 l 0.246 -0.149 -0.014 0.317 c -0.004 0.13 0.182 0.134 0.184 0.005 l 0.019 -0.436 0.444 -0.268 0 0.541 -0.35 0.233 c -0.105 0.069 -0.005 0.234 0.099 0.164 l 0.251 -0.169 0 0.298 c 0 0.129 0.184 0.129 0.184 0 l 0 -0.298 0.255 0.169 c 0.104 0.071 0.204 -0.095 0.099 -0.164 l -0.355 -0.233 0 -0.546 0.444 0.273 0.019 0.436 c 0.004 0.128 0.187 0.124 0.184 -0.005 l -0.014 -0.317 0.246 0.149 c 0.107 0.066 0.202 -0.102 0.095 -0.169 l -0.246 -0.149 0.265 -0.144 c 0.137 -0.048 0.03 -0.26 -0.085 -0.169 l -0.369 0.198 -0.449 -0.268 0.444 -0.268 0.373 0.198 c 0.115 0.092 0.222 -0.12 0.085 -0.169 l -0.269 -0.149 0.251 -0.149 c 0.131 -0.058 0.015 -0.258 -0.095 -0.164 l -0.246 0.149 0.014 -0.317 c 0.004 -0.067 -0.057 -0.118 -0.118 -0.099 -0.04 0.012 -0.067 0.051 -0.066 0.094 l -0.019 0.436 -0.444 0.268 0 -0.541 0.355 -0.233 c 0.104 -0.069 0.005 -0.233 -0.099 -0.164 l -0.255 0.169 0 -0.298 c 0.001 -0.055 -0.042 -0.101 -0.095 -0.099 -0.006 -0.001 -0.013 -0.001 -0.019 0 z m 11.713 0.243 c -0.045 0.009 -0.078 0.051 -0.076 0.099 l 0 0.298 -0.251 -0.169 c -0.104 -0.068 -0.202 0.094 -0.099 0.164 l 0.35 0.233 0 0.541 -0.444 -0.268 -0.019 -0.436 c 0 -0.063 -0.055 -0.109 -0.113 -0.094 -0.043 0.011 -0.073 0.052 -0.071 0.099 l 0.014 0.317 -0.246 -0.149 c -0.113 -0.108 -0.235 0.115 -0.09 0.164 l 0.246 0.149 -0.269 0.149 c -0.137 0.048 -0.03 0.26 0.085 0.169 l 0.373 -0.198 0.444 0.268 -0.444 0.268 -0.373 -0.198 c -0.115 -0.092 -0.222 0.12 -0.085 0.169 l 0.265 0.144 -0.241 0.149 c -0.115 0.06 -0.019 0.239 0.09 0.169 l 0.246 -0.149 -0.014 0.317 c -0.004 0.13 0.182 0.134 0.184 0.005 l 0.019 -0.436 0.444 -0.268 0 0.541 -0.35 0.233 c -0.104 0.069 -0.005 0.233 0.099 0.164 l 0.251 -0.169 0 0.298 c 0 0.129 0.184 0.129 0.184 0 l 0 -0.298 0.255 0.169 c 0.104 0.069 0.203 -0.094 0.099 -0.164 l -0.355 -0.233 0 -0.546 0.444 0.273 0.019 0.436 c 0.004 0.128 0.187 0.123 0.184 -0.005 l -0.014 -0.317 0.246 0.149 c 0.107 0.066 0.202 -0.103 0.095 -0.169 l -0.241 -0.149 0.26 -0.144 c 0.137 -0.048 0.03 -0.26 -0.085 -0.169 l -0.369 0.198 -0.444 -0.268 0.444 -0.268 0.369 0.198 c 0.115 0.092 0.222 -0.12 0.085 -0.169 l -0.265 -0.149 0.246 -0.149 c 0.131 -0.058 0.015 -0.258 -0.095 -0.164 l -0.246 0.149 0.014 -0.317 c 0.003 -0.065 -0.054 -0.114 -0.113 -0.099 -0.042 0.01 -0.071 0.049 -0.071 0.094 l -0.019 0.436 -0.444 0.268 0 -0.541 0.355 -0.233 c 0.103 -0.07 0.004 -0.232 -0.099 -0.164 l -0.255 0.169 0 -0.298 c 0.001 -0.053 -0.039 -0.098 -0.09 -0.099 l -0.009 0 -0.009 0 z m -5.744 -0.286 c -0.058 0.015 -0.098 0.071 -0.095 0.134 l 0 0.397 -0.34 -0.228 c -0.139 -0.093 -0.271 0.126 -0.132 0.218 l 0.473 0.312 0 0.729 -0.596 -0.362 -0.024 -0.59 c -0.002 -0.078 -0.069 -0.136 -0.142 -0.124 -0.064 0.01 -0.11 0.071 -0.104 0.139 l 0.014 0.417 -0.326 -0.198 c -0.145 -0.086 -0.268 0.142 -0.123 0.228 l 0.326 0.198 -0.355 0.193 c -0.168 0.071 -0.038 0.332 0.113 0.228 l 0.496 -0.268 0.596 0.357 -0.596 0.362 -0.496 -0.268 c -0.152 -0.104 -0.282 0.157 -0.113 0.228 l 0.355 0.193 -0.326 0.198 c -0.161 0.08 -0.024 0.329 0.123 0.223 l 0.326 -0.198 -0.014 0.422 c -0.018 0.183 0.25 0.193 0.246 0.01 l 0.024 -0.585 0.596 -0.362 0 0.724 -0.473 0.312 c -0.138 0.093 -0.006 0.31 0.132 0.218 l 0.34 -0.228 0 0.402 c -0.013 0.185 0.259 0.185 0.246 0 l 0 -0.402 0.34 0.228 c 0.138 0.092 0.27 -0.125 0.132 -0.218 l -0.473 -0.312 0 -0.724 0.6 0.362 0.019 0.585 c -0.004 0.184 0.263 0.173 0.246 -0.01 l -0.014 -0.422 0.326 0.198 c 0.147 0.106 0.284 -0.143 0.123 -0.223 l -0.326 -0.198 0.355 -0.193 c 0.168 -0.071 0.038 -0.332 -0.113 -0.228 l -0.492 0.268 -0.6 -0.357 0.6 -0.362 0.492 0.268 c 0.152 0.104 0.282 -0.157 0.113 -0.228 l -0.355 -0.193 0.326 -0.198 c 0.145 -0.086 0.022 -0.314 -0.123 -0.228 l -0.326 0.198 0.014 -0.417 c 0.007 -0.084 -0.063 -0.152 -0.142 -0.139 -0.059 0.01 -0.102 0.062 -0.104 0.124 l -0.019 0.585 -0.6 0.362 0 -0.724 0.473 -0.312 c 0.138 -0.093 0.006 -0.311 -0.132 -0.218 l -0.34 0.228 0 -0.397 c 0.003 -0.079 -0.062 -0.143 -0.137 -0.134 -0.005 0 -0.009 0 -0.014 0 z m -2.873 3.202 c -0.005 0.001 -0.01 0.003 -0.014 0.005 -0.057 0.014 -0.096 0.068 -0.095 0.129 l 0 0.402 -0.34 -0.228 c -0.139 -0.093 -0.271 0.126 -0.132 0.218 l 0.473 0.312 0 0.724 -0.6 -0.362 -0.019 -0.585 c 0 -0.085 -0.078 -0.147 -0.156 -0.124 -0.056 0.017 -0.094 0.073 -0.09 0.134 l 0.014 0.422 -0.326 -0.198 c -0.147 -0.106 -0.284 0.143 -0.123 0.223 l 0.326 0.198 -0.355 0.193 c -0.168 0.071 -0.038 0.332 0.113 0.228 l 0.492 -0.268 0.596 0.357 -0.596 0.362 l -0.492 -0.268 c -0.152 -0.104 -0.282 0.157 -0.113 0.228 l 0.355 0.193 -0.326 0.198 c -0.145 0.086 -0.022 0.314 0.123 0.228 l 0.326 -0.198 -0.014 0.417 c -0.018 0.18 0.244 0.195 0.246 0.015 l 0.019 -0.585 0.6 -0.362 0 0.724 -0.473 0.312 c -0.139 0.093 -0.006 0.311 0.132 0.218 l 0.34 -0.228 0 0.397 c -0.013 0.185 0.259 0.185 0.246 0 l 0 -0.397 0.34 0.228 c 0.139 0.093 0.272 -0.126 0.132 -0.218 l -0.473 -0.312 0 -0.724 0.6 0.362 0.019 0.585 c 0.002 0.18 0.264 0.165 0.246 -0.015 l -0.014 -0.417 0.326 0.198 c 0.145 0.086 0.268 -0.142 0.123 -0.228 l -0.326 -0.198 0.355 -0.193 c 0.168 -0.071 0.038 -0.332 -0.113 -0.228 l -0.492 0.268 -0.6 -0.362 0.6 -0.357 0.492 0.268 c 0.152 0.104 0.282 -0.157 0.113 -0.228 l -0.355 -0.193 0.326 -0.198 c 0.161 -0.08 0.024 -0.329 -0.123 -0.223 l -0.326 0.198 0.014 -0.422 c 0.005 -0.073 -0.048 -0.136 -0.118 -0.139 -0.07 -0.003 -0.127 0.056 -0.128 0.129 l -0.019 0.585 -0.6 0.362 0 -0.724 0.473 -0.312 c 0.143 -0.092 0.007 -0.315 -0.132 -0.218 l -0.34 0.228 0 -0.402 c 0.003 -0.079 -0.062 -0.143 -0.137 -0.134 z m 7.332 1.012 c -0.043 0.011 -0.073 0.052 -0.071 0.099 l 0 0.298 -0.255 -0.169 c -0.104 -0.071 -0.205 0.095 -0.099 0.164 l 0.355 0.233 0 0.541 -0.444 -0.268 -0.019 -0.441 c -0.002 -0.063 -0.06 -0.107 -0.118 -0.089 -0.042 0.013 -0.069 0.054 -0.066 0.099 l 0.014 0.317 -0.246 -0.149 c -0.11 -0.094 -0.225 0.105 -0.095 0.164 l 0.246 0.149 -0.265 0.149 c -0.137 0.048 -0.03 0.26 0.085 0.169 l 0.369 -0.203 0.449 0.273 -0.449 0.268 -0.369 -0.198 c -0.115 -0.092 -0.222 0.12 -0.085 0.169 l 0.265 0.144 -0.246 0.149 c -0.107 0.066 -0.013 0.235 0.095 0.169 l 0.246 -0.149 -0.014 0.317 c -0.003 0.129 0.181 0.133 0.184 0.005 l 0.019 -0.436 0.444 -0.268 0 0.541 -0.355 0.233 c -0.104 0.069 -0.005 0.233 0.099 0.164 l 0.255 -0.169 0 0.298 c 0 0.129 0.184 0.129 0.184 0 l 0 -0.298 0.251 0.169 c 0.104 0.069 0.203 -0.094 0.099 -0.164 l -0.35 -0.233 0 -0.546 0.444 0.273 0.019 0.436 c 0.004 0.128 0.187 0.124 0.184 -0.005 l -0.014 -0.317 0.246 0.149 c 0.109 0.071 0.204 -0.108 0.09 -0.169 l -0.241 -0.149 0.265 -0.144 c 0.137 -0.048 0.03 -0.26 -0.085 -0.169 l -0.373 0.198 -0.444 -0.268 0.444 -0.268 0.373 0.198 c 0.115 0.092 0.222 -0.12 0.085 -0.169 l -0.269 -0.149 0.246 -0.149 c 0.146 -0.048 0.023 -0.272 -0.09 -0.164 l -0.246 0.149 0.014 -0.317 c 0.004 -0.067 -0.057 -0.118 -0.118 -0.099 -0.038 0.012 -0.065 0.048 -0.066 0.089 l -0.019 0.441 -0.444 0.268 0 -0.541 0.35 -0.233 c 0.105 -0.069 0.005 -0.235 -0.099 -0.164 l -0.251 0.169 0 -0.298 c 0.001 -0.055 -0.042 -0.101 -0.095 -0.099 -0.006 -0.001 -0.013 -0.001 -0.019 0 z"/>
    <g id="g6" transform="translate(-0.0655,1.4100048e-5)">
        <path id="path8" style="fill:#ffffff;fill-opacity:1;opacity:1" d="m 4.91 17.821 c -1.224 -0.343 0.029 -2.66 0.781 -3.417 0.362 1 0.443 3.76 -0.781 3.417 z"/>
        <path id="path10" style="fill:#ffffff;fill-opacity:1;opacity:1" d="m 7.25 14.598 c -1.065 -0.298 0.025 -2.315 0.679 -2.974 0.315 0.871 0.386 3.273 -0.679 2.974 z"/>
        <path id="path12" style="fill:#ffffff;fill-opacity:1;opacity:1" d="m 11.166 18.11 c -1.065 -0.298 0.025 -2.315 0.679 -2.974 0.315 0.871 0.386 3.273 -0.679 2.974 z"/>
        <path id="path14" style="fill:#ffffff;fill-opacity:1;opacity:1" d="m 13.574 15.616 c -1.465 -0.41 0.035 -3.183 0.934 -4.09 0.433 1.198 0.531 4.5 -0.934 4.09 z"/>
    </g>
</svg>
