<?xml version="1.0" encoding="UTF-8" standalone="no"?>
<svg xmlns:dc="http://purl.org/dc/elements/1.1/" xmlns:cc="http://creativecommons.org/ns#" xmlns:rdf="http://www.w3.org/1999/02/22-rdf-syntax-ns#" xmlns:svg="http://www.w3.org/2000/svg" xmlns="http://www.w3.org/2000/svg" version="1.1" id="svg2" style="enable-background:new" viewBox="0 0 22 22">
    <metadata id="metadata10">
        <rdf:RDF>
            <cc:Work rdf:about="">
                <dc:format>
                    image/svg+xml
                </dc:format>
                <dc:type rdf:resource="http://purl.org/dc/dcmitype/StillImage"/>
            </cc:Work>
        </rdf:RDF>
    </metadata>
    <path id="path4" style="fill:#ffffff;fill-opacity:1;opacity:1" d="m 8.185 3.5 c -0.154 -0.001 -0.311 0.007 -0.478 0.03 -2.67 0.358 -2.588 2.745 -2.588 2.745 -1.094 0.194 -1.988 1.188 -1.988 2.228 c 0 1.039 1.143 1.96 2.1 2.228 0.57 0.159 1.313 0 1.313 0 0.338 0.621 1.454 1.034 2.232 1.034 1.268 0 2.564 -0.438 2.865 -1.034 0 0 5.254 0.438 6.343 0 1.586 -0.637 1.093 -2.629 0.038 -3.302 -1.055 -0.673 -2.438 -0.199 -2.438 -0.199 0 0 -0.008 -1.369 -1.5 -2.023 -1.492 -0.655 -2.752 0.79 -2.752 0.79 0 0 -0.837 -2.481 -3.146 -2.496 z m -2.818 7.985 c -0.797 0.392 -2.719 1.835 -2.311 2.377 0.408 0.541 1.924 -1.543 2.311 -2.377 z m 12.142 0.259 c -0.797 0.392 -2.724 1.83 -2.316 2.372 0.408 0.541 1.928 -1.538 2.316 -2.372 z m -3.066 0.124 c -0.797 0.392 -2.724 1.835 -2.316 2.377 0.408 0.541 1.928 -1.543 2.316 -2.377 z m -2.761 0.398 c -0.797 0.392 -2.724 1.835 -2.316 2.377 0.408 0.541 1.928 -1.543 2.316 -2.377 z m -3.258 0.363 c -0.797 0.392 -2.724 1.835 -2.316 2.377 0.408 0.541 1.928 -1.543 2.316 -2.377 z m -2.963 1.8 c -0.797 0.392 -2.724 1.835 -2.316 2.377 0.408 0.541 1.928 -1.543 2.316 -2.377 z m 8.837 0.244 c -0.797 0.392 -2.724 1.835 -2.316 2.377 0.408 0.541 1.928 -1.543 2.316 -2.377 z m -3.165 0.666 c -0.797 0.392 -2.724 1.835 -2.316 2.377 0.408 0.541 1.928 -1.543 2.316 -2.377 z m 4.759 0.482 c -0.797 0.392 -2.724 1.835 -2.316 2.377 0.408 0.541 1.928 -1.543 2.316 -2.377 z m -7.839 0.214 c -0.797 0.392 -2.724 1.835 -2.316 2.377 0.408 0.541 1.928 -1.543 2.316 -2.377"/>
</svg>
