<?xml version="1.0" encoding="UTF-8" standalone="no"?>
<svg xmlns:dc="http://purl.org/dc/elements/1.1/" xmlns:cc="http://creativecommons.org/ns#" xmlns:rdf="http://www.w3.org/1999/02/22-rdf-syntax-ns#" xmlns:svg="http://www.w3.org/2000/svg" xmlns="http://www.w3.org/2000/svg" version="1.0" width="22" height="22" id="svg2817">
    <metadata id="metadata57">
        <rdf:RDF>
            <cc:Work rdf:about="">
                <dc:format>
                    image/svg+xml
                </dc:format>
                <dc:type rdf:resource="http://purl.org/dc/dcmitype/StillImage"/>
                <dc:title/>
            </cc:Work>
        </rdf:RDF>
    </metadata>
    <path style="opacity:1000002;fill:#ffffff;fill-opacity:1" d="M 3.1879779,9.0227504 C 3.0150297,9.0766549 2.8781728,9.1301267 2.7753741,9.1759147 2.8913663,9.1249801 3.0317338,9.073536 3.1879779,9.0227504 Z M 18.293049,13.267088 c 0.02675,0.0392 0.05432,0.07841 0.07452,0.114218 -0.01553,-0.02749 -0.04172,-0.06781 -0.07452,-0.114218 z M 10.992267,9.4688865 C 15.54604,10.657676 17.433578,12.259768 18.090044,13.010711 17.369656,12.182752 15.7534,10.917174 15.160961,9.8580008 14.594916,8.8459121 14.575405,6.7602654 11.926285,6.0687409 9.2776472,5.3775549 8.2544698,7.1370569 7.1809945,7.7759058 6.3013771,8.2999935 4.3074917,8.6572229 3.1884262,9.0224006 4.2417806,8.6922118 6.643532,8.3346628 10.992452,9.4689931 Z m 2.509375,-1.6058119 c 0.249102,0.06509 0.547556,0.3303073 0.703762,0.6747841 0.222254,0.4891131 0.09812,0.9666737 -0.378688,0.8422271 C 13.349463,9.2553639 12.994324,8.653323 13.020725,8.2290395 13.039707,7.9297002 13.253032,7.7978717 13.50164,7.8631046 Z M 11.648071,7.186668 c 0.407875,0.1069707 0.660847,0.4760526 0.56504,0.8256733 -0.09592,0.3487185 -0.504447,0.5457316 -0.912337,0.4388931 C 10.89264,8.344554 10.639677,7.9756151 10.735441,7.6259626 10.831327,7.2772511 11.239719,7.080438 11.648107,7.1867119 Z M 8.7403097,7.111441 C 9.0527978,6.8892316 9.4468724,6.8049816 9.6957127,6.8695237 9.9441952,6.9344078 10.061919,7.152579 9.9247668,7.4206185 9.7300839,7.8010191 9.1138195,8.1494739 8.6364094,8.0250456 8.1599257,7.9007515 8.2972013,7.4269858 8.7402634,7.1114143 Z m 9.3492323,7.494894 c 0.339975,-1.228853 -2.937375,-3.03595 -7.283445,-4.16316 -4.3458387,-1.1270806 -8.1167826,-1.1486 -8.4555741,0.08033 -0.2298519,0.831469 1.133607,2.164591 3.3841395,3.288785 0.8638765,0.602683 2.1586337,1.171903 3.6632748,1.564472 1.4828618,0.387186 2.8779658,0.527254 3.9298678,0.434885 2.598232,0.139675 4.527935,-0.35908 4.761613,-1.205415 z m -8.5316004,0.19068 C 7.6689295,14.304128 6.2135163,13.626509 6.3467382,13.142751 c 0.1326873,-0.483488 1.7655919,-0.453966 3.6547848,0.03935 1.889074,0.492355 3.318585,1.263582 3.185964,1.747365 -0.132599,0.483276 -1.740899,0.360533 -3.6296105,-0.132449 z" id="yandex-ufo"/>
</svg>
