<?xml version="1.0" encoding="UTF-8" standalone="no"?>
<!-- Created with Inkscape (http://www.inkscape.org/) -->

<svg
   xmlns:dc="http://purl.org/dc/elements/1.1/"
   xmlns:cc="http://creativecommons.org/ns#"
   xmlns:rdf="http://www.w3.org/1999/02/22-rdf-syntax-ns#"
   xmlns:svg="http://www.w3.org/2000/svg"
   xmlns="http://www.w3.org/2000/svg"
   xmlns:sodipodi="http://sodipodi.sourceforge.net/DTD/sodipodi-0.dtd"
   xmlns:inkscape="http://www.inkscape.org/namespaces/inkscape"
   width="64"
   height="64"
   viewBox="0 0 64.000001 64.000001"
   id="svg2"
   version="1.1"
   inkscape:version="0.91 r13725"
   sodipodi:docname="folder-steam.svg">
  <defs
     id="defs4" />
  <sodipodi:namedview
     id="base"
     pagecolor="#525252"
     bordercolor="#666666"
     borderopacity="1.0"
     inkscape:pageopacity="0"
     inkscape:pageshadow="2"
     inkscape:zoom="7.46"
     inkscape:cx="19.511659"
     inkscape:cy="24.907718"
     inkscape:document-units="px"
     inkscape:current-layer="layer1"
     showgrid="false"
     units="px"
     inkscape:window-width="1600"
     inkscape:window-height="843"
     inkscape:window-x="0"
     inkscape:window-y="0"
     inkscape:window-maximized="1" />
  <metadata
     id="metadata7">
    <rdf:RDF>
      <cc:Work
         rdf:about="">
        <dc:format>image/svg+xml</dc:format>
        <dc:type
           rdf:resource="http://purl.org/dc/dcmitype/StillImage" />
        <dc:title></dc:title>
      </cc:Work>
    </rdf:RDF>
  </metadata>
  <g
     inkscape:label="Layer 1"
     inkscape:groupmode="layer"
     id="layer1"
     transform="translate(0,-988.36216)">
    <path
       id="path5171"
       d="m 6.99995,1035.8632 0,-34.988 c 0,-1.38454 1.1235,-2.65304 2.5,-2.50014 l 19.5,0 6,4.99924 19.628,0 c 0,0 2.3718,0 2.3718,2.4992 l 0,29.99 c 0,1.3845 -1.115,2.4992 -2.5,2.4992 l -44.999,0 c -1.385,0 -2.5,-1.1146 -2.5,-2.4992 z"
       inkscape:connector-curvature="0"
       style="fill:#5895dc" />
    <path
       id="path5041"
       d="m 33.67995,1003.2742 -3.68,4.088 -20.5,0 c -2.5,0 -2.5,2.396 -2.5,2.396 l 0,2 c 0,0 0,-2.396 2.5,-2.396 l 20.5,0 4.5,-5 0.48633,0 -1.3066,-1.0879 z m 22.355,1.5645 c 0.57756,0.4666 0.95676,1.2108 0.96289,2.0039 -0.0091,-1.0703 -0.45872,-1.6611 -0.96289,-2.0039 z"
       inkscape:connector-curvature="0"
       style="opacity:0.1" />
    <path
       id="path5173"
       d="m 56.99995,1040.8622 0,-35 c 0,-1.385 -1.1235,-2.653 -2.5,-2.5 l -20,0 -4.5,5 -20.5,0 c -2.5,0 -2.5,2.3959 -2.5,2.3959 l 0,30.104 c 0,1.385 1.115,2.5 2.5,2.5 l 45,0 c 1.385,0 2.5,-1.115 2.5,-2.5 z"
       inkscape:connector-curvature="0"
       style="fill:#6ba4e7" />
    <path
       style="opacity:0.1;fill:#ffffff"
       d="M 34.5 15 L 30 20 L 9.5 20 C 7 20 7 22.396484 7 22.396484 L 7 23.396484 C 7 23.396484 7 21 9.5 21 L 30 21 L 34.5 16 L 54.5 16 C 55.877 15.847 57 17.115 57 18.5 L 57 17.5 C 57 16.115 55.877 14.847 54.5 15 L 34.5 15 z "
       transform="translate(0,988.36216)"
       id="path5029" />
    <path
       style="opacity:0.3"
       d="M 7 51.5 L 7 52.5 C 7 53.885 8.115 55 9.5 55 L 54.5 55 C 55.885 55 57 53.885 57 52.5 L 57 51.5 C 57 52.885 55.885 54 54.5 54 L 9.5 54 C 8.115 54 7 52.885 7 51.5 z "
       transform="translate(0,988.36216)"
       id="path5034" />
    <path
       style="opacity:0.1;fill:#ffffff"
       d="M 9.5 10.013672 C 8.1235 9.8603719 7 11.128632 7 12.513672 L 7 13.513672 C 7 12.128572 8.1235 10.860372 9.5 11.013672 L 29 11.013672 L 35 16.011719 L 54.628906 16.011719 C 54.628906 16.011719 57 16.012519 57 18.511719 L 57 17.511719 C 57 15.012519 54.628906 15.011719 54.628906 15.011719 L 35 15.011719 L 29 10.013672 L 9.5 10.013672 z "
       transform="translate(0,988.36216)"
       id="path5024" />
    <g
       id="g56493"
       transform="translate(73.07708,991.53014)">
      <path
         id="path4517"
         d="m -23.599,35.832 c -1.3372,0 -2.5013,0.72459 -3.0977,1.8008 0,0 -0.96513,1.903 -1.6992,2.6641 -0.33332,0.34555 -0.9185,0.70123 -1.291,0.92188 l 1.3809,0.80469 c 0.06752,0.03911 0.12514,0.08555 0.18359,0.13281 0.01404,0.01135 0.03142,0.01752 0.04492,0.0293 0.42638,0.2902 0.71289,0.77683 0.71289,1.3242 0,0.8876 -0.73322,1.6074 -1.6387,1.6074 -0.48678,0 -0.91458,-0.22054 -1.2148,-0.55078 l -1.1074,-0.63868 c 0.20292,1.08 1.1618,1.9043 2.3223,1.9043 0.57605,0 1.0914,-0.21559 1.502,-0.55078 l 0.01563,0.01563 0.15234,-0.14844 c 0,0 1.1412,-1.3854 1.9121,-1.8164 0.71551,-0.40001 2.3828,-0.64062 2.3828,-0.64062 0.2835,-0.04428 0.54802,-0.11623 0.80469,-0.22266 l 0.12305,-0.0293 -0.01563,-0.01563 c 1.2092,-0.54673 2.0488,-1.7476 2.0488,-3.1387 0,-1.9067 -1.5764,-3.4531 -3.5215,-3.4531 z m 0,1.0723 c 1.3414,0 2.4277,1.0659 2.4277,2.3809 0,1.315 -1.0863,2.3809 -2.4277,2.3809 -1.3414,0 -2.4297,-1.0659 -2.4297,-2.3809 0,-1.315 1.0883,-2.3809 2.4297,-2.3809 z m 0,0.44531 a 1.9734,1.9345 0 0 0 -1.9746,1.9355 1.9734,1.9345 0 0 0 1.9746,1.9336 1.9734,1.9345 0 0 0 1.9727,-1.9336 1.9734,1.9345 0 0 0 -1.9727,-1.9355 z m -12.023,0.625 c -0.28808,0.87597 -0.44727,1.8151 -0.45508,2.7832 l 6.3008,3.7949 c 0.66983,0.38799 1.5157,0.18442 1.8965,-0.44726 0.38076,-0.63168 0.15421,-1.4421 -0.51562,-1.8301 l -6.9688,-4.1816 c -0.08373,-0.0485 -0.16984,-0.08861 -0.25781,-0.11914 z"
         inkscape:connector-curvature="0"
         style="opacity:0.2" />
      <path
         id="path3883"
         d="m -23.599,34.832 c -1.3372,0 -2.5013,0.72459 -3.0977,1.8008 0,0 -0.96513,1.903 -1.6992,2.6641 -0.33332,0.34555 -0.9185,0.70123 -1.291,0.92188 l 1.3809,0.80469 c 0.06752,0.03911 0.12514,0.08555 0.18359,0.13281 0.01404,0.01135 0.03142,0.01752 0.04492,0.0293 0.42638,0.2902 0.71289,0.77683 0.71289,1.3242 0,0.8876 -0.73322,1.6074 -1.6387,1.6074 -0.48678,0 -0.91458,-0.22054 -1.2148,-0.55078 l -1.1074,-0.63868 c 0.20292,1.08 1.1618,1.9043 2.3223,1.9043 0.57605,0 1.0914,-0.21559 1.502,-0.55078 l 0.01563,0.01563 0.15234,-0.14844 c 0,0 1.1412,-1.3854 1.9121,-1.8164 0.71551,-0.40001 2.3828,-0.64062 2.3828,-0.64062 0.2835,-0.04428 0.54802,-0.11623 0.80469,-0.22266 l 0.12305,-0.0293 -0.01563,-0.01563 c 1.2092,-0.54673 2.0488,-1.7476 2.0488,-3.1387 0,-1.9067 -1.5764,-3.4531 -3.5215,-3.4531 z m 0,1.0723 c 1.3414,0 2.4277,1.0659 2.4277,2.3809 0,1.315 -1.0863,2.3809 -2.4277,2.3809 -1.3414,0 -2.4297,-1.0659 -2.4297,-2.3809 0,-1.315 1.0883,-2.3809 2.4297,-2.3809 z m 0,0.44531 a 1.9734,1.9345 0 0 0 -1.9746,1.9355 1.9734,1.9345 0 0 0 1.9746,1.9336 1.9734,1.9345 0 0 0 1.9727,-1.9336 1.9734,1.9345 0 0 0 -1.9727,-1.9355 z m -12.023,0.625 c -0.28808,0.87597 -0.44727,1.8151 -0.45508,2.7832 l 6.3008,3.7949 c 0.66983,0.38799 1.5157,0.18442 1.8965,-0.44726 0.38076,-0.63168 0.15421,-1.4421 -0.51562,-1.8301 l -6.9688,-4.1816 c -0.08373,-0.0485 -0.16984,-0.08861 -0.25781,-0.11914 z"
         inkscape:connector-curvature="0"
         style="fill:#383c4a" />
    </g>
  </g>
</svg>
