<?xml version="1.0" encoding="UTF-8" standalone="no"?>
<!-- Created with Inkscape (http://www.inkscape.org/) -->

<svg
   xmlns:dc="http://purl.org/dc/elements/1.1/"
   xmlns:cc="http://creativecommons.org/ns#"
   xmlns:rdf="http://www.w3.org/1999/02/22-rdf-syntax-ns#"
   xmlns:svg="http://www.w3.org/2000/svg"
   xmlns="http://www.w3.org/2000/svg"
   xmlns:sodipodi="http://sodipodi.sourceforge.net/DTD/sodipodi-0.dtd"
   xmlns:inkscape="http://www.inkscape.org/namespaces/inkscape"
   width="64"
   height="64"
   viewBox="0 0 64.000001 64.000001"
   id="svg2"
   version="1.1"
   inkscape:version="0.91 r13725"
   sodipodi:docname="folder-gnome.svg">
  <defs
     id="defs4" />
  <sodipodi:namedview
     id="base"
     pagecolor="#525252"
     bordercolor="#666666"
     borderopacity="1.0"
     inkscape:pageopacity="0"
     inkscape:pageshadow="2"
     inkscape:zoom="5.27"
     inkscape:cx="19.511659"
     inkscape:cy="24.907718"
     inkscape:document-units="px"
     inkscape:current-layer="layer1"
     showgrid="false"
     units="px"
     inkscape:window-width="1600"
     inkscape:window-height="843"
     inkscape:window-x="0"
     inkscape:window-y="0"
     inkscape:window-maximized="1" />
  <metadata
     id="metadata7">
    <rdf:RDF>
      <cc:Work
         rdf:about="">
        <dc:format>image/svg+xml</dc:format>
        <dc:type
           rdf:resource="http://purl.org/dc/dcmitype/StillImage" />
        <dc:title></dc:title>
      </cc:Work>
    </rdf:RDF>
  </metadata>
  <g
     inkscape:label="Layer 1"
     inkscape:groupmode="layer"
     id="layer1"
     transform="translate(0,-988.36216)">
    <path
       id="path5171"
       d="m 6.99995,1035.8632 0,-34.988 c 0,-1.38454 1.1235,-2.65304 2.5,-2.50014 l 19.5,0 6,4.99924 19.628,0 c 0,0 2.3718,0 2.3718,2.4992 l 0,29.99 c 0,1.3845 -1.115,2.4992 -2.5,2.4992 l -44.999,0 c -1.385,0 -2.5,-1.1146 -2.5,-2.4992 z"
       inkscape:connector-curvature="0"
       style="fill:#5895dc" />
    <path
       id="path5041"
       d="m 33.67995,1003.2742 -3.68,4.088 -20.5,0 c -2.5,0 -2.5,2.396 -2.5,2.396 l 0,2 c 0,0 0,-2.396 2.5,-2.396 l 20.5,0 4.5,-5 0.48633,0 -1.3066,-1.0879 z m 22.355,1.5645 c 0.57756,0.4666 0.95676,1.2108 0.96289,2.0039 -0.0091,-1.0703 -0.45872,-1.6611 -0.96289,-2.0039 z"
       inkscape:connector-curvature="0"
       style="opacity:0.1" />
    <path
       id="path5173"
       d="m 56.99995,1040.8622 0,-35 c 0,-1.385 -1.1235,-2.653 -2.5,-2.5 l -20,0 -4.5,5 -20.5,0 c -2.5,0 -2.5,2.3959 -2.5,2.3959 l 0,30.104 c 0,1.385 1.115,2.5 2.5,2.5 l 45,0 c 1.385,0 2.5,-1.115 2.5,-2.5 z"
       inkscape:connector-curvature="0"
       style="fill:#6ba4e7" />
    <path
       style="opacity:0.1;fill:#ffffff"
       d="M 34.5 15 L 30 20 L 9.5 20 C 7 20 7 22.396484 7 22.396484 L 7 23.396484 C 7 23.396484 7 21 9.5 21 L 30 21 L 34.5 16 L 54.5 16 C 55.877 15.847 57 17.115 57 18.5 L 57 17.5 C 57 16.115 55.877 14.847 54.5 15 L 34.5 15 z "
       transform="translate(0,988.36216)"
       id="path5029" />
    <path
       style="opacity:0.3"
       d="M 7 51.5 L 7 52.5 C 7 53.885 8.115 55 9.5 55 L 54.5 55 C 55.885 55 57 53.885 57 52.5 L 57 51.5 C 57 52.885 55.885 54 54.5 54 L 9.5 54 C 8.115 54 7 52.885 7 51.5 z "
       transform="translate(0,988.36216)"
       id="path5034" />
    <path
       style="opacity:0.1;fill:#ffffff"
       d="M 9.5 10.013672 C 8.1235 9.8603719 7 11.128632 7 12.513672 L 7 13.513672 C 7 12.128572 8.1235 10.860372 9.5 11.013672 L 29 11.013672 L 35 16.011719 L 54.628906 16.011719 C 54.628906 16.011719 57 16.012519 57 18.511719 L 57 17.511719 C 57 15.012519 54.628906 15.011719 54.628906 15.011719 L 35 15.011719 L 29 10.013672 L 9.5 10.013672 z "
       transform="translate(0,988.36216)"
       id="path5024" />
    <g
       id="g20360"
       transform="translate(62.423511,989.0603)">
      <path
         id="path8042"
         d="m -12.782,33.302 c -2.7346,0 -3.2476,4.1551 -1.709,4.1551 1.5379,0 4.4439,-4.1551 1.709,-4.1551 z m -4.2121,0.63926 c -0.04308,-1.6e-4 -0.0899,0.004 -0.13838,0.009 -1.5496,0.19573 -1.0043,2.8184 -0.17931,2.8672 0.7988,0.0477 1.6727,-2.8714 0.31715,-2.876 z m -2.687,0.9682 c -0.09481,-0.006 -0.19976,0.012 -0.3166,0.0598 -1.2456,0.51147 -0.189,2.6228 0.5083,2.4808 0.63291,-0.12861 0.72364,-2.4813 -0.19169,-2.5408 z m -2.0331,1.7261 c -0.10826,-0.003 -0.22506,0.0343 -0.34999,0.12733 -0.99701,0.7441 0.33546,2.5417 0.92211,2.263 0.51315,-0.24414 0.18577,-2.3629 -0.57227,-2.3903 z m 5.8886,1.7161 c -2.1603,-0.03715 -5.0104,1.0592 -5.4966,3.2614 -0.52608,2.3827 2.1673,5.6888 4.977,5.6888 1.3822,0 2.9764,-1.2632 3.2749,-2.8629 0.22777,-1.2197 -2.6808,-0.7309 -2.5764,0.0761 0.12546,0.9675 -0.70151,1.4458 -1.5113,0.82217 -2.5777,-1.9855 4.2681,-2.9763 3.8165,-5.6888 -0.14054,-0.84441 -1.1883,-1.2744 -2.4845,-1.2966 z"
         inkscape:connector-curvature="0"
         style="opacity:0.2" />
      <path
         id="path4490"
         d="m -12.782,32.302 c -2.7346,0 -3.2476,4.1551 -1.709,4.1551 1.5379,0 4.4439,-4.1551 1.709,-4.1551 z m -4.2121,0.63926 c -0.04308,-1.6e-4 -0.0899,0.004 -0.13838,0.009 -1.5496,0.19573 -1.0043,2.8184 -0.17931,2.8672 0.7988,0.0477 1.6727,-2.8714 0.31715,-2.876 z m -2.687,0.9682 c -0.09481,-0.006 -0.19976,0.012 -0.3166,0.0598 -1.2456,0.51147 -0.189,2.6228 0.5083,2.4808 0.63291,-0.12861 0.72364,-2.4813 -0.19169,-2.5408 z m -2.0331,1.7261 c -0.10826,-0.003 -0.22506,0.0343 -0.34999,0.12733 -0.99701,0.7441 0.33546,2.5417 0.92211,2.263 0.51315,-0.24414 0.18577,-2.3629 -0.57227,-2.3903 z m 5.8886,1.7161 c -2.1603,-0.03715 -5.0104,1.0592 -5.4966,3.2614 -0.52608,2.3827 2.1673,5.6888 4.977,5.6888 1.3822,0 2.9764,-1.2632 3.2749,-2.8629 0.22777,-1.2197 -2.6808,-0.7309 -2.5764,0.0761 0.12546,0.9675 -0.70151,1.4458 -1.5113,0.82217 -2.5777,-1.9855 4.2681,-2.9763 3.8165,-5.6888 -0.14054,-0.84441 -1.1883,-1.2744 -2.4845,-1.2966 z"
         inkscape:connector-curvature="0"
         style="fill:#383c4a" />
    </g>
  </g>
</svg>
