<svg xmlns="http://www.w3.org/2000/svg" width="32" height="32" version="1">
 <rect style="opacity:0.2" width="28" height="18" x="2" y="11" rx="1.4" ry="1.385"/>
 <path style="fill:#4877b1" d="M 2,22.6 C 2,23.3756 2.6244,24 3.4,24 H 28.6 C 29.3756,24 30,23.3756 30,22.6 V 7.4 C 30,6.6244 29.37558,6.0055399 28.6,6 H 15 V 4.4 C 15,3.6244 14.3756,3 13.6,3 H 3.4 C 2.6244,3 2,3.6244 2,4.4"/>
 <rect style="opacity:0.2" width="28" height="18" x="2" y="9" rx="1.4" ry="1.385"/>
 <rect style="fill:#e4e4e4" width="24" height="11" x="4" y="8" rx="1.333" ry="1.375"/>
 <rect style="fill:#5294e2" width="28" height="18" x="2" y="10" rx="1.4" ry="1.385"/>
 <path style="opacity:0.1;fill:#ffffff" d="M 3.4003906,3 C 2.6247906,3 2,3.6247906 2,4.4003906 v 1 C 2,4.6247906 2.6247906,4 3.4003906,4 H 13.599609 C 14.375209,4 15,4.6247906 15,5.4003906 v -1 C 15,3.6247906 14.375209,3 13.599609,3 Z M 15,6 V 7 H 28.599609 C 29.375189,7.0055399 30,7.6247906 30,8.4003906 v -1 C 30,6.6247906 29.375189,6.0055399 28.599609,6 Z"/>
 <g style="fill:#1d344f" transform="matrix(0.64211621,0,0,0.625,-1.1806719,1.94837)">
  <path style="fill:#1d344f" d="m 29.573776,35.282608 -0.749596,-3.2 h -4.264944 l -0.723748,3.2 h -3.308562 c 0.758212,-3.153473 1.52504,-6.022617 2.300484,-8.607431 0.775445,-2.602047 1.525041,-5.066236 2.248789,-7.392569 h 3.463651 c 0.758212,2.343565 1.507808,4.833602 2.248788,7.470113 0.758213,2.619279 1.490577,5.462574 2.197092,8.529887 z M 26.73048,22.384385 25.153743,28.882608 h 3.127626 z"/>
 </g>
</svg>
