<svg width="32" height="32" version="1" xmlns="http://www.w3.org/2000/svg">
 <defs>
  <style id="current-color-scheme" type="text/css">.ColorScheme-Text { color:#444444; } .ColorScheme-Highlight { color:#4285f4; } .ColorScheme-NeutralText { color:#ff9800; } .ColorScheme-PositiveText { color:#4caf50; } .ColorScheme-NegativeText { color:#f44336; }</style>
 </defs>
 <rect x="2" y="11" width="28" height="18" rx="1.4" ry="1.4" style="opacity:.2"/>
 <path class="ColorScheme-Highlight" d="m2 26.6c0 0.776 0.6244 1.4 1.4 1.4h25.2c0.776 0 1.4-0.624 1.4-1.4v-19.2c0-0.7756-0.624-1.4-1.4-1.4h-12.6c-2.1 0-2.8-3-4.9-3h-7.7c-0.7756 0-1.4 0.6244-1.4 1.4" style="fill:currentColor"/>
 <path class="ColorScheme-Text" d="M 3.4003906 3 C 2.6247914 3 2 3.6247914 2 4.4003906 L 2 11.400391 C 2 10.624791 2.6247914 10 3.4003906 10 L 28.599609 10 C 29.375209 10 30 10.624791 30 11.400391 L 30 7.4003906 C 30 6.6247914 29.375609 6 28.599609 6 L 16 6 C 13.900002 6 13.199607 3 11.099609 3 L 3.4003906 3 z " style="fill:currentColor;opacity:.3"/>
 <path d="m3.4003906 9c-0.7755992 0-1.4003906 0.6247914-1.4003906 1.400391v1c0-0.7756 0.6247914-1.400391 1.4003906-1.400391h25.199218c0.7756 0 1.400391 0.624791 1.400391 1.400391v-1c0-0.7755996-0.624791-1.400391-1.400391-1.400391h-25.199218z" style="opacity:.2"/>
 <path d="M 5.4003906 8 C 4.6247914 8 4 8.6247914 4 9.4003906 L 4 10 L 28 10 L 28 9.4003906 C 28 8.6247914 27.375209 8 26.599609 8 L 5.4003906 8 z " style="fill:#e4e4e4"/>
 <path d="m3.4004 3c-0.7756 0-1.4004 0.6248-1.4004 1.4004v1c0-0.7756 0.6248-1.4004 1.4004-1.4004h7.6996c2.1 0 2.8 3 4.9 3h12.6c0.775 0 1.4 0.6248 1.4 1.4004v-1c0-0.7756-0.625-1.4004-1.4-1.4004h-12.6c-2.1 0-2.8-3-4.9-3z" style="fill:currentColor;opacity:.1" class="ColorScheme-Text"/>
 <path class="ColorScheme-Text" style="fill:currentColor;opacity:.7" d="m 10.989582,14.988281 a 1.0001,1.0001 0 0 0 -0.763672,1.644531 l 1.076172,1.316407 c -0.742235,1.034712 -1.126852,2.468362 -1.300781,4.28125 C 9.9645542,23.000441 10.776691,23 10.776691,23 h 10.425782 c 0,0 0.835451,-1.68e-4 0.794922,-0.808594 -0.189021,-1.874847 -0.601975,-3.337697 -1.402344,-4.373047 l 1.111328,-1.111328 a 1.0001,1.0001 0 0 0 -0.726562,-1.716797 1.0001,1.0001 0 0 0 -0.6875,0.302735 l -1.273438,1.273437 C 18.220959,16.195365 17.233296,16 15.999348,16 c -1.317391,0 -2.360855,0.215623 -3.185547,0.638672 L 11.772786,15.367188 A 1.0001,1.0001 0 0 0 10.989582,14.988281 Z M 12.999348,19 a 1,1 0 0 1 1,1 1,1 0 0 1 -1,1 1,1 0 0 1 -1,-1 1,1 0 0 1 1,-1 z m 6,0 a 1,1 0 0 1 1,1 1,1 0 0 1 -1,1 1,1 0 0 1 -1,-1 1,1 0 0 1 1,-1 z"/>
</svg>
