<?xml version="1.0" encoding="UTF-8" standalone="no"?>
<svg
   xmlns:dc="http://purl.org/dc/elements/1.1/"
   xmlns:cc="http://creativecommons.org/ns#"
   xmlns:rdf="http://www.w3.org/1999/02/22-rdf-syntax-ns#"
   xmlns:svg="http://www.w3.org/2000/svg"
   xmlns="http://www.w3.org/2000/svg"
   xmlns:sodipodi="http://sodipodi.sourceforge.net/DTD/sodipodi-0.dtd"
   xmlns:inkscape="http://www.inkscape.org/namespaces/inkscape"
   width="32"
   height="32"
   version="1"
   id="svg14"
   sodipodi:docname="folder-torrent@32x32.svg"
   inkscape:version="0.92.2 (5c3e80d, 2017-08-06)">
  <metadata
     id="metadata20">
    <rdf:RDF>
      <cc:Work
         rdf:about="">
        <dc:format>image/svg+xml</dc:format>
        <dc:type
           rdf:resource="http://purl.org/dc/dcmitype/StillImage" />
        <dc:title />
      </cc:Work>
    </rdf:RDF>
  </metadata>
  <defs
     id="defs18" />
  <sodipodi:namedview
     pagecolor="#ffffff"
     bordercolor="#666666"
     borderopacity="1"
     objecttolerance="10"
     gridtolerance="10"
     guidetolerance="10"
     inkscape:pageopacity="0"
     inkscape:pageshadow="2"
     inkscape:window-width="1920"
     inkscape:window-height="1048"
     id="namedview16"
     showgrid="true"
     inkscape:zoom="1"
     inkscape:cx="16.567201"
     inkscape:cy="15.895371"
     inkscape:window-x="1920"
     inkscape:window-y="32"
     inkscape:window-maximized="1"
     inkscape:current-layer="svg14">
    <inkscape:grid
       type="xygrid"
       id="grid827"
       empspacing="4" />
  </sodipodi:namedview>
  <rect
     style="opacity:0.2"
     width="25"
     height="16"
     x="3"
     y="12"
     rx="1.25"
     ry="1.25"
     id="rect2" />
  <path
     style="fill:#4877b1"
     d="M 3,21.75 C 3,22.442 3.5575,23 4.25,23 H 26.75 C 27.442,23 28,22.442 28,21.75 V 8.25 C 28,7.5575 27.442,7 26.75,7 H 14 V 6.25 C 14,5.5575 13.443,5 12.75,5 H 4.25 C 3.5575,5 3,5.5575 3,6.25"
     id="path4" />
  <rect
     style="opacity:0.2"
     width="25"
     height="16"
     x="3"
     y="10"
     rx="1.25"
     ry="1.25"
     id="rect6" />
  <rect
     style="fill:#dcdcdc"
     width="21"
     height="10"
     x="5"
     y="9"
     rx="1.25"
     ry="1.25"
     id="rect8" />
  <rect
     style="fill:#5294e2"
     width="25"
     height="16"
     x="3"
     y="11"
     rx="1.25"
     ry="1.25"
     id="rect10" />
  <path
     style="opacity:0.1;fill:#ffffff"
     d="M 4.25 5 C 3.5575 5 3 5.5575 3 6.25 L 3 7.25 C 3 6.5575 3.5575 6 4.25 6 L 12.75 6 C 13.443 6 14 6.5575 14 7.25 L 14 8 L 26.75 8 C 27.442 8 28 8.5575 28 9.25 L 28 8.25 C 28 7.5575 27.442 7 26.75 7 L 14 7 L 14 6.25 C 14 5.5575 13.443 5 12.75 5 L 4.25 5 z"
     id="path12" />
  <g
     id="g838"
     style="fill:#1d344f;fill-opacity:1">
    <rect
       y="16"
       x="14"
       height="6"
       width="2"
       id="rect829"
       style="fill:#1d344f;fill-opacity:1;fill-rule:evenodd;stroke-width:0.75592893" />
    <path
       inkscape:connector-curvature="0"
       id="path831"
       d="M 10,16 H 20 L 15,12 Z"
       style="fill:#1d344f;fill-opacity:1;stroke:none;stroke-width:1.11803389px;stroke-linecap:butt;stroke-linejoin:miter;stroke-opacity:1" />
    <path
       inkscape:connector-curvature="0"
       id="path833"
       d="m 10,22 h 10 l -5,4 z"
       style="fill:#1d344f;fill-opacity:1;stroke:none;stroke-width:1.11803389px;stroke-linecap:butt;stroke-linejoin:miter;stroke-opacity:1" />
  </g>
</svg>
