<?xml version="1.0" encoding="UTF-8" standalone="no"?>
<svg xmlns="http://www.w3.org/2000/svg" height="32" width="32" version="1">
 <path style="opacity:0.2;fill:#000000;fill-opacity:1" d="m 28,26.75055 0,-13.49477 c 0,-0.69222 -0.56175,-1.32597 -1.25,-1.2495 l -10,0 -2.25,2.1e-4 -10.25,0 C 3,12.00649 3,13.20396 3,13.20396 L 3,26.7505 C 3,27.44272 3.5575,28 4.25,28 l 22.5,0 C 27.4425,28 28,27.44272 28,26.7505 Z"/>
 <path d="M 3,23.75027 3,7 C 3,6 3,5 4,5 l 9,0 c 1,0 1,1 1,2.0001 l 12.814,0 c 0,0 1.1859,0.006 1.1859,1.2558 l 0,15.49452 C 27.9999,24.44266 27.4424,25 26.7499,25 L 4.2504,25 c -0.6925,0 -1.25,-0.55729 -1.25,-1.24958 z" style="fill:#505050;fill-opacity:1"/>
 <path style="opacity:0.2;fill:#000000;fill-opacity:1" d="m 28,24.75055 0,-13.49477 c 0,-0.69222 -0.56175,-1.32597 -1.25,-1.2495 l -10,0 -2.25,2.1e-4 -10.25,0 C 3,10.00649 3,11.20396 3,11.20396 L 3,24.7505 C 3,25.44272 3.5575,26 4.25,26 l 22.5,0 C 27.4425,26 28,25.44272 28,24.7505 Z"/>
 <rect style="opacity:1;fill:#dcdcdc;fill-opacity:1;" width="21" height="10" x="5" y="9" ry="1.25" rx="1.167"/>
 <path d="m 28,25.75055 0,-13.49477 c 0,-0.69222 -0.56175,-1.32597 -1.25,-1.2495 l -10,0 -2.25,2.1e-4 -10.25,0 C 3,11.00649 3,12.20396 3,12.20396 L 3,25.7505 C 3,26.44272 3.5575,27 4.25,27 l 22.5,0 C 27.4425,27 28,26.44272 28,25.7505 Z" style="fill:#5d5d5d;fill-opacity:1"/>
 <path style="opacity:0.1;fill:#ffffff;fill-opacity:1" d="M 4,5 C 3,5 3,6 3,7 L 3,8 C 3,7 3,6 4,6 l 9,0 c 1,0 1,0.9999 1,2 L 26.81445,8 C 26.81445,8 28,8.006 28,9.25586 l 0,-1 C 28,7.00606 26.81445,7 26.81445,7 L 14,7 C 14,5.9999 14,5 13,5 L 4,5 Z"/>
 <path style="opacity:0.65" d="m 15.84344,21.19634 c -0.80023,0.37228 -1.5445,0.36832 -2.0443,0.33222 -0.59621,-0.04303 -1.0758,-0.20629 -1.2865,-0.34892 -0.12988,-0.08793 -0.30648,-0.05394 -0.39443,0.07601 -0.08793,0.1299 -0.0539,0.30648 0.076,0.39441 0.33884,0.22936 0.93816,0.39996 1.5641,0.44513 0.10611,0.0077 0.22264,0.01243 0.3481,0.01243 0.54474,0 1.2366,-0.05191 1.9767,-0.39619 0.1422,-0.0662 0.20386,-0.2351 0.13771,-0.37732 -0.06613,-0.14228 -0.2351,-0.20388 -0.37734,-0.13783 z m 3.1572,-0.42089 c 0.02714,-2.4678 0.28086,-7.1308 -4.4431,-6.754 -4.664,0.37547 -3.4273,5.3025 -3.4968,6.9527 -0.06164,0.87284 -0.35138,1.9398 -0.76074,3.025801 l 1.2607,0 c 0.12955,-0.460171 0.22484,-0.915231 0.26594,-1.349101 0.076,0.05301 0.1573,0.10424 0.24408,0.15336 0.14118,0.08318 0.26254,0.19379 0.39101,0.31088 0.30023,0.27361 0.64052,0.58372 1.3058,0.62257 0.04464,0.0026 0.08958,0.0039 0.13356,0.0039 0.67281,0 1.1329,-0.29445 1.5027,-0.53103 0.17715,-0.11344 0.33023,-0.21133 0.47424,-0.25836 0.40927,-0.12813 0.76691,-0.33488 1.0342,-0.59816 0.04177,-0.0411 0.08048,-0.08338 0.1168,-0.12644 0.14888,0.54566 0.35275,1.1597 0.579,1.772501 l 2.692,0 C 19.65375,23.00184 18.98713,22.02367 19.00083,20.77567 Z m -7.4886,-1.3424 c 0,-1.56e-4 0,-2.93e-4 -1.8e-5,-4.3e-4 -0.04634,-0.80527 0.33896,-1.4827 0.8606,-1.513 0.5216,-0.03033 0.98202,0.59792 1.0284,1.4032 0,1.37e-4 3.9e-5,2.93e-4 3.9e-5,4.1e-4 0.0024,0.04344 0.0036,0.08643 0.0036,0.12898 -0.16527,0.04156 -0.31437,0.10191 -0.44796,0.17213 -5.09e-4,-0.006 -8.99e-4,-0.01186 -0.0014,-0.01783 l 0,-2.93e-4 c -0.04463,-0.45709 -0.28879,-0.80234 -0.54543,-0.77107 -0.25664,0.03128 -0.42851,0.42724 -0.3839,0.88433 0,1.17e-4 3.8e-5,1.94e-4 3.8e-5,2.73e-4 0.01946,0.19932 0.07684,0.37728 0.15666,0.51216 -0.01986,0.01566 -0.07601,0.05676 -0.14068,0.10406 -0.04853,0.03547 -0.10761,0.07868 -0.17885,0.13116 -0.19416,-0.25484 -0.3272,-0.62091 -0.35097,-1.0341 z m 5.2847,1.9904 c -0.01857,0.42564 -0.57529,0.82609 -1.0897,0.98675 l -0.0029,9.39e-4 c -0.21385,0.06936 -0.40455,0.1914 -0.60646,0.3206 -0.33918,0.21699 -0.6899,0.44148 -1.1965,0.44148 -0.03324,0 -0.06733,-0.001 -0.10084,-0.0029 -0.46398,-0.02713 -0.68103,-0.22492 -0.95581,-0.4753 -0.14494,-0.13213 -0.29482,-0.26873 -0.48804,-0.38207 l -0.0041,-0.0024 c -0.41711,-0.23535 -0.67595,-0.52812 -0.69251,-0.7832 -0.0083,-0.12675 0.04823,-0.2365 0.16779,-0.32617 0.26012,-0.19502 0.43435,-0.32248 0.54964,-0.40681 0.12803,-0.09363 0.16668,-0.12184 0.19531,-0.14906 0.02047,-0.0194 0.04261,-0.0409 0.06644,-0.06408 0.23873,-0.23217 0.63828,-0.6207 1.2515,-0.6207 0.37504,0 0.79001,0.14451 1.2321,0.42873 0.20824,0.13551 0.38945,0.1981 0.6189,0.27732 0.15777,0.05447 0.3366,0.11623 0.57609,0.21879 l 0.0039,0.0016 c 0.22342,0.0918 0.48724,0.25935 0.47519,0.5364 z m -0.12323,-0.99974 c -0.04294,-0.0216 -0.08761,-0.04217 -0.1342,-0.06141 -0.21588,-0.09234 -0.38898,-0.15502 -0.53257,-0.20504 0.07929,-0.15519 0.12851,-0.34882 0.13302,-0.55898 l 0,-3.33e-4 c 0.011,-0.51148 -0.24697,-0.92671 -0.57611,-0.92749 -0.3292,-7.61e-4 -0.60497,0.41322 -0.61597,0.92466 l 0,2.73e-4 c -3.7e-4,0.01674 -4.1e-4,0.03336 -1.94e-4,0.0499 -0.20275,-0.09324 -0.40215,-0.16099 -0.59732,-0.20273 -8.98e-4,-0.01919 -0.002,-0.0384 -0.0024,-0.05781 l 0,-4.69e-4 c -0.01893,-0.93175 0.55275,-1.703 1.2769,-1.7227 0.7241,-0.01967 1.3264,0.71972 1.3454,1.6515 l 0,5.07e-4 c 0.0086,0.42136 -0.1041,0.80925 -0.2966,1.1101 z"/>
</svg>
