<svg xmlns="http://www.w3.org/2000/svg" width="64" height="64" version="1">
 <path style="opacity:0.2" d="m 4,56 0,2 c 0,1.662 1.338,3 3,3 l 50,0 c 1.662,0 3,-1.338 3,-3 l 0,-2 c 0,1.662 -1.338,3 -3,3 L 7,59 C 5.338,59 4,57.662 4,56 Z"/>
 <rect style="fill:#4f4f4f" width="56" height="56" x="-60" y="-60" rx="3" ry="3" transform="matrix(0,-1,-1,0,0,0)"/>
 <path style="opacity:0.1;fill:#ffffff" d="M 7 4 C 5.338 4 4 5.338 4 7 L 4 8 C 4 6.338 5.338 5 7 5 L 57 5 C 58.662 5 60 6.338 60 8 L 60 7 C 60 5.338 58.662 4 57 4 L 7 4 z"/>
 <path style="opacity:0.2" d="m 14,15 0,36 36,0 0,-36 -36,0 z m 5.414,4 25.172,0 -6,6 -13.1718,0 -6,-6 z M 18,20.42 l 6,6 0,13.1718 -6,6 0,-25.172 z m 28,0 0,25.172 -6,-6 0,-13.1718 6,-6 z M 26,27 l 12,0 0,12 -12,0 0,-12 z m -0.58594,14 13.1718,0 6,6 -25.172,0 6,-6 z"/>
 <path style="fill:#c4c4c4" d="m 14,14 0,36 36,0 0,-36 -36,0 z m 5.414,4 25.172,0 -6,6 -13.1718,0 -6,-6 z M 18,19.42 l 6,6 0,13.1718 -6,6 0,-25.172 z m 28,0 0,25.172 -6,-6 0,-13.1718 6,-6 z M 26,26 l 12,0 0,12 -12,0 0,-12 z m -0.58594,14 13.1718,0 6,6 -25.172,0 6,-6 z"/>
 <path style="opacity:0.2" d="m 16,11 a 6,6 0 0 0 -6,6 6,6 0 0 0 6,6 6,6 0 0 0 6,-6 6,6 0 0 0 -6,-6 z m 32,0 a 6,6 0 0 0 -6,6 6,6 0 0 0 6,6 6,6 0 0 0 6,-6 6,6 0 0 0 -6,-6 z M 25,23 c -1.65686,0 -3,1.34314 -3,3 0,1.65686 1.34314,3 3,3 1.65686,0 3,-1.34314 3,-3 0,-1.65686 -1.34314,-3 -3,-3 z m 14,0 c -1.65686,0 -3,1.34314 -3,3 0,1.65686 1.34314,3 3,3 1.65686,0 3,-1.34314 3,-3 0,-1.65686 -1.34314,-3 -3,-3 z M 25,37 a 3,3 0 0 0 -3,3 3,3 0 0 0 3,3 3,3 0 0 0 3,-3 3,3 0 0 0 -3,-3 z m 14,0 a 3,3 0 0 0 -3,3 3,3 0 0 0 3,3 3,3 0 0 0 3,-3 3,3 0 0 0 -3,-3 z m -23,6 a 6,6 0 0 0 -6,6 6,6 0 0 0 6,6 6,6 0 0 0 6,-6 6,6 0 0 0 -6,-6 z m 32,0 a 6,6 0 0 0 -6,6 6,6 0 0 0 6,6 6,6 0 0 0 6,-6 6,6 0 0 0 -6,-6 z"/>
 <path style="fill:#e8e8e8" d="m 16,10 a 6,6 0 0 0 -6,6 6,6 0 0 0 6,6 6,6 0 0 0 6,-6 6,6 0 0 0 -6,-6 z m 32,0 a 6,6 0 0 0 -6,6 6,6 0 0 0 6,6 6,6 0 0 0 6,-6 6,6 0 0 0 -6,-6 z M 25,22 a 3,3 0 0 0 -3,3 3,3 0 0 0 3,3 3,3 0 0 0 3,-3 3,3 0 0 0 -3,-3 z m 14,0 a 3,3 0 0 0 -3,3 3,3 0 0 0 3,3 3,3 0 0 0 3,-3 3,3 0 0 0 -3,-3 z M 25,36 a 3,3 0 0 0 -3,3 3,3 0 0 0 3,3 3,3 0 0 0 3,-3 3,3 0 0 0 -3,-3 z m 14,0 a 3,3 0 0 0 -3,3 3,3 0 0 0 3,3 3,3 0 0 0 3,-3 3,3 0 0 0 -3,-3 z m -23,6 a 6,6 0 0 0 -6,6 6,6 0 0 0 6,6 6,6 0 0 0 6,-6 6,6 0 0 0 -6,-6 z m 32,0 a 6,6 0 0 0 -6,6 6,6 0 0 0 6,6 6,6 0 0 0 6,-6 6,6 0 0 0 -6,-6 z"/>
</svg>
