<svg xmlns="http://www.w3.org/2000/svg" width="22" height="22" version="1">
 <g style="fill:#666666">
  <rect width="1" height="20" x="12.5" y="-21" transform="rotate(90)"/>
  <rect width="1" height="20" x="10.5" y="-21" transform="rotate(90)"/>
  <rect width="1" height="20" x="8.5" y="-21" transform="rotate(90)"/>
  <rect width="1" height="20" x="6.5" y="-21" transform="rotate(90)"/>
  <rect width="1" height="20" x="14.5" y="-21" transform="rotate(90)"/>
  <rect width="1" height="20" x="16.5" y="-21" transform="rotate(90)"/>
  <rect width="1" height="20" x="18.5" y="-21" transform="rotate(90)"/>
  <rect width="1" height="20" x="4.5" y="-21" transform="rotate(90)"/>
  <rect width="1" height="20" x="2.5" y="-21" transform="rotate(90)"/>
  <rect width="1" height="20" x="10.5" y="1"/>
  <rect width="1" height="20" x="8.5" y="1"/>
  <rect width="1" height="20" x="6.5" y="1"/>
  <rect width="1" height="20" x="4.5" y="1"/>
  <rect width="1" height="20" x="12.5" y="1"/>
  <rect width="1" height="20" x="14.5" y="1"/>
  <rect width="1" height="20" x="16.5" y="1"/>
  <rect width="1" height="20" x="2.5" y="1"/>
  <rect width="1" height="20" x="18.5" y="1"/>
 </g>
 <rect style="opacity:0.2" width="18" height="18" x="-20.5" y="-20" rx="1" ry="1" transform="matrix(0,-1,-1,0,0,0)"/>
 <rect style="fill:#8e8e8e" width="18" height="18" x="-20" y="-20" rx="1" ry="1" transform="matrix(0,-1,-1,0,0,0)"/>
 <path style="opacity:0.2;fill:#ffffff" d="M 3,2 C 2.446,2 2,2.446 2,3 V 3.5 C 2,2.946 2.446,2.5 3,2.5 H 19 C 19.554,2.5 20,2.946 20,3.5 V 3 C 20,2.446 19.554,2 19,2 Z"/>
</svg>
