<?xml version="1.0" encoding="UTF-8" standalone="no"?>
<svg xmlns="http://www.w3.org/2000/svg" height="22" width="22" version="1">
 <rect style="fill:#5d5d5d" transform="matrix(0,-1,-1,0,0,0)" rx="1" ry="1" height="16" width="20" y="-19" x="-21"/>
 <path style="opacity:0.2" d="m 3,20 0,0.5 c 0,0.554 0.446,1 1,1 l 14,0 c 0.554,0 1,-0.446 1,-1 L 19,20 c 0,0.554 -0.446,1 -1,1 L 4,21 C 3.446,21 3,20.554 3,20 Z"/>
 <path style="opacity:0.1;fill:#ffffff" d="M 4,1 C 3.446,1 3,1.446 3,2 l 0,0.5 c 0,-0.554 0.446,-1 1,-1 l 14,0 c 0.554,0 1,0.446 1,1 L 19,2 C 19,1.446 18.554,1 18,1 L 4,1 Z"/>
 <path style="opacity:0.3;fill:#000000;fill-opacity:1;" d="m 11,4 a 5,5 0 0 0 -5,5 5,5 0 0 0 5,5 5,5 0 0 0 5,-5 5,5 0 0 0 -5,-5 z m 0,3 a 2,2 0 0 1 2,2 2,2 0 0 1 -2,2 2,2 0 0 1 -2,-2 2,2 0 0 1 2,-2 z"/>
</svg>
