<svg xmlns="http://www.w3.org/2000/svg" width="22" height="22" version="1">
 <rect style="opacity:0.2" width="20" height="16" x="-21.5" y="-19" rx="1" ry="1" transform="matrix(0,-1,-1,0,0,0)"/>
 <rect style="fill:#8e8e8e" width="20" height="16" x="-21" y="-19" rx="1" ry="1" transform="matrix(0,-1,-1,0,0,0)"/>
 <path style="opacity:.5" d="m 11,5 -4,5 8,0 -4,-5 z m -4,6 0,1 8,0 0,-1 -8,0 z"/>
 <path style="opacity:.2;fill:#ffffff" d="M 4,1 C 3.446,1 3,1.446 3,2 V 2.5 C 3,1.946 3.446,1.5 4,1.5 H 18 C 18.554,1.5 19,1.946 19,2.5 V 2 C 19,1.446 18.554,1 18,1 Z"/>
</svg>
