<?xml version='1.0' encoding='UTF-8' standalone='no'?>
<svg height="16" style="enable-background:new" version="1.1" width="16.001" xmlns="http://www.w3.org/2000/svg">
 <title>
  Paper Symbolic Icon Theme
 </title>
 <g transform="translate(-545.00606,-61)">
  <path d="m 553.00606,61.39258 -2.11719,5.49414 -5.88281,0.3164 4.57226,3.71485 -1.51562,5.69141 4.94336,-3.20118 0.004,0.002 C 553.05947,70.97867 555.0575,69 557.5002,69 c 0.38301,0 0.74975,0.063 1.10547,0.1543 l 2.40039,-1.95118 -5.88086,-0.3164 z" style="fill:#5c616c;fill-opacity:1;"/>
  <path d="m 557.5002,70 c -1.933,0 -3.5,1.567 -3.5,3.5 0,1.933 1.567,3.5 3.5,3.5 1.933,0 3.5,-1.567 3.5,-3.5 0,-1.933 -1.567,-3.5 -3.5,-3.5 z m -0.5,1 1,0 0,2 2,0 0,1 -2,0 0,2 -1,0 0,-2 -2,0 0,-1 2,0 z" style="opacity:1;fill:#5c616c;fill-opacity:1;fill-rule:evenodd;"/>
 </g>
</svg>
