<?xml version="1.0"?>
<svg xmlns="http://www.w3.org/2000/svg" height="22" width="22" version="1.1" viewBox="0 0 22 22" id="svg2">
 <defs id="defs14">
  <style type="text/css" id="current-color-scheme">
   .ColorScheme-Text { color:#5c616c; } .ColorScheme-Highlight { color:#5294e2; } .ColorScheme-ButtonBackground { color:#5c616c; }
  </style>
 </defs>
 <g transform="translate(-57 -527.36)" id="g4">
  <path opacity=".3" style="fill:currentColor" d="m68 533.36c-3.0344 0-5.7659 1.0782-8.0312 2.75l8.0312 8.75 1-1.1016v-1.3984h1.0137c0.01961-1.6316 1.3374-2.9924 2.9766-2.998l2.9785-3.2832c-2.258-1.65-4.959-2.72-7.97-2.72z" id="path6" class="ColorScheme-ButtonBackground"/>
  <path style="fill:currentColor" d="m73 540.36c-1.108 0-2 0.91085-2 2.0312v0.96875h-1v4h6v-4h-1v-0.96875c0-1.1199-0.892-2.0312-2-2.0312zm0 1c0.554 0 1 0.4424 1 1v1h-2v-1c0-0.5576 0.446-1 1-1z" id="path8" class="ColorScheme-ButtonBackground"/>
  <path style="fill:currentColor" d="m68 536.36c-2.2428 0-4.2611 0.79748-5.9355 2.0332l5.936 6.47 0.99414-1.0957v-1.3672h0.0059l-0.000041-0.0371h0.99609c0.0099-0.40425 0.10165-0.79042 0.25781-1.1426 0.45306-1.079 1.5032-1.8541 2.7383-1.8574l0.89844-0.99023c-1.667-1.22-3.664-2.01-5.89-2.01z" id="path10" class="ColorScheme-ButtonBackground"/>
 </g>
</svg>
