<svg xmlns="http://www.w3.org/2000/svg" width="22" height="22" version="1.1">
 <defs>
  <style id="current-color-scheme" type="text/css">
   .ColorScheme-Text { color:#31363b; } .ColorScheme-Highlight { color:#3daee9; }
  </style>
 </defs>
 <path style="fill:currentColor" class="ColorScheme-Text" d="m15 17.928a8 8 0 0 0 2.928 -10.928 8 8 0 0 0 -10.928 -2.9282 8 8 0 0 0 -2.9282 10.928 8 8 0 0 0 10.928 2.928zm-1-1.732a6 6 0 0 1 -4.897 0.491 1.5 1.5 0 0 1 -0.2166 0.152 1.5 1.5 0 0 1 -2.0491 -0.549 1.5 1.5 0 0 1 -0.1508 -1.128 6 6 0 0 1 -0.8827 -1.162 6 6 0 0 1 -0.7598 -3.664 1.5 1.5 0 0 1 -0.4991 -0.517 1.5 1.5 0 0 1 0.549 -2.0486 1.5 1.5 0 0 1 0.9796 -0.1822 6 6 0 0 1 1.9265 -1.7844 6 6 0 0 1 5.9969 0.0041 1.5 1.5 0 0 1 0.04975 -0.031031 1.5 1.5 0 0 1 2.049 0.54904 1.5 1.5 0 0 1 -0.0076 1.5064 6 6 0 0 1 0.10809 0.16762 6 6 0 0 1 -2.1962 8.1962zm-0.5-0.866a5 5 0 0 0 1.83 -6.83 5 5 0 0 0 -0.011 -0.0186 1.5 1.5 0 0 1 -1.302 -0.1274l-2.7209 2.2091a1.5 1.5 0 0 1 -0.66182 1.8029 1.5 1.5 0 0 1 -0.79832 0.1993l-0.71906 1.8405a1.5 1.5 0 0 1 0.31883 0.38425 1.5 1.5 0 0 1 0.17796 1.0114 5 5 0 0 0 3.886 -0.472zm-5.3153-1.288 0.7191-1.841a1.5 1.5 0 0 1 -0.3189 -0.384 1.5 1.5 0 0 1 -0.1887 -0.928l-1.5077-0.745a1.5 1.5 0 0 1 -0.2946 0.224 1.5 1.5 0 0 1 -0.5714 0.19 5 5 0 0 0 0.6474 2.942 5 5 0 0 0 0.59694 0.81908 1.5 1.5 0 0 1 0.11957 -0.07804 1.5 1.5 0 0 1 0.79832 -0.1993zm2.4792-4.2527 2.7199-2.2108a1.5 1.5 0 0 1 -0.0094 -0.97335 5 5 0 0 0 -4.8744 0.06507 5 5 0 0 0 -1.5411 1.3972 1.5 1.5 0 0 1 0.18403 0.25234 1.5 1.5 0 0 1 0.18873 0.92846l1.5077 0.74428a1.5 1.5 0 0 1 0.29456 -0.22418 1.5 1.5 0 0 1 1.53 0.02105z"/>
</svg>
