<svg xmlns="http://www.w3.org/2000/svg" width="22" height="22" version="1.1">
 <defs>
  <style id="current-color-scheme" type="text/css">
   .ColorScheme-Text { color:#444444; } .ColorScheme-Highlight { color:#4285f4; } .ColorScheme-NeutralText { color:#ff9800; } .ColorScheme-PositiveText { color:#4caf50; } .ColorScheme-NegativeText { color:#f44336; }
  </style>
 </defs>
 <path style="fill:currentColor;fill-rule:evenodd" class="ColorScheme-Text" d="M 11.5,3 C 9.0069996,3 7,5.040203 7,7.5332031 V 10 H 6.7851562 C 6.3497123,10 6,10.365187 6,10.818359 v 7.363282 C 6,18.634813 6.3497122,19 6.7851562,19 H 16.214844 C 16.650288,19 17,18.634813 17,18.181641 V 10.818359 C 17,10.365187 16.650288,10 16.214844,10 H 16 V 7.5332031 C 16,5.040203 13.993,3 11.5,3 Z m 0,2 c 1.838963,0 2.280276,1.1465511 2.5,2.9335938 V 10 H 9 V 7.9335938 C 9,6.1330939 9.6610378,5 11.5,5 Z m 0,6 C 13.432997,11 15,12.567004 15,14.5 15,16.432997 13.432997,18 11.5,18 9.5670033,18 8,16.432997 8,14.5 8,12.567004 9.5670033,11 11.5,11 Z m 0.386719,0.291016 a 0.09723195,0.09723195 0 0 0 -0.08594,0.09766 v 0.777343 a 0.09723195,0.09723195 0 1 0 0.193359,0 v -0.777343 a 0.09723195,0.09723195 0 0 0 -0.107421,-0.09766 z M 13.798828,13.25 a 0.29169585,0.29169585 0 0 0 -0.128906,0.04102 l -2.210938,1.27539 -1.6503902,-0.953125 a 0.29228627,0.29228627 0 0 0 -0.2929688,0.50586 l 1.798828,1.037109 a 0.29169585,0.29169585 0 0 0 0.291016,0 l 2.355469,-1.359379 A 0.29169585,0.29169585 0 0 0 13.798828,13.25 Z M 8.3691406,14.804688 A 0.09814307,0.09814307 0 0 0 8.3886719,15 h 0.7773437 a 0.097656,0.097656 0 1 0 0,-0.195312 H 8.3886719 a 0.097656,0.097656 0 0 0 -0.00977,0 0.097778,0.097778 0 0 0 -0.00977,0 z m 5.4453124,0 A 0.09814306,0.09814306 0 0 0 13.833984,15 h 0.777344 a 0.097656,0.097656 0 1 0 0,-0.195312 h -0.777344 a 0.097656,0.097656 0 0 0 -0.0098,0 0.09777798,0.09777798 0 0 0 -0.0098,0 z m -1.927734,1.929687 a 0.09723195,0.09723195 0 0 0 -0.08594,0.09961 v 0.777344 a 0.09723195,0.09723195 0 1 0 0.193359,0 v -0.777344 a 0.09723195,0.09723195 0 0 0 -0.09766,-0.09961 0.09723195,0.09723195 0 0 0 -0.0098,0 z"/>
 <path style="opacity:.35;fill:currentColor" class="ColorScheme-Text" d="m 10.085938,12.251953 a 0.29169585,0.29169585 0 0 0 -0.2382818,0.441406 l 1.3593748,2.357422 a 0.29228606,0.29228606 0 1 0 0.50586,-0.292969 l -1.361328,-2.355468 a 0.29169585,0.29169585 0 0 0 -0.265625,-0.150391 z"/>
 <path style="opacity:0.5;fill:currentColor" class="ColorScheme-Text" d="m 11.455078,11.886719 a 0.29169585,0.29169585 0 0 0 -0.287109,0.296875 v 0.115234 2.605469 a 0.29199215,0.29199215 0 1 0 0.583984,0 v -2.605469 -0.115234 a 0.29169585,0.29169585 0 0 0 -0.296875,-0.296875 z"/>
 <path style="opacity:0.7;fill:currentColor" class="ColorScheme-Text" d="m 12.824219,12.251953 a 0.29169585,0.29169585 0 0 0 -0.257813,0.150391 l -1.359375,2.355468 a 0.29228606,0.29228606 0 1 0 0.50586,0.292969 l 1.359375,-2.357422 a 0.29169585,0.29169585 0 0 0 -0.248047,-0.441406 z"/>
</svg>
