<svg xmlns="http://www.w3.org/2000/svg" width="22" height="22" version="1.1">
 <defs>
  <style id="current-color-scheme" type="text/css">
   .ColorScheme-Text { color:#444444; } .ColorScheme-Highlight { color:#4285f4; } .ColorScheme-NeutralText { color:#ff9800; } .ColorScheme-PositiveText { color:#4caf50; } .ColorScheme-NegativeText { color:#f44336; }
  </style>
 </defs>
 <path style="fill:currentColor" class="ColorScheme-Text" d="M 11.642578 4 C 8.9200492 4.10157 6.411051 5.8069694 5.421875 8.5683594 C 5.1347538 9.3698878 4.9985145 10.191987 5 11 L 8.8125 11 C 8.5298701 9.797512 8.5767331 8.5009299 9.0234375 7.2539062 C 9.5301065 5.8394762 10.477986 4.74257 11.642578 4 z M 12.5 10 C 11.865815 10.0017 11.301237 10.402082 11.089844 11 L 13 11 L 13 12 L 12.5 12 L 11.089844 12 L 5 12 L 5 13 L 12.5 13 C 13.328427 13 14 12.328427 14 11.5 C 14 10.671573 13.328427 10 12.5 10 z M 15.5 12 C 14.865815 12.0017 14.301237 12.402082 14.089844 13 L 16 13 L 16 14 L 15.5 14 L 14.089844 14 L 8 14 L 8 15 L 15.5 15 C 16.328427 15 17 14.328427 17 13.5 C 17 12.671573 16.328427 12 15.5 12 z M 5 16 L 5 17 L 11.089844 17 L 12.5 17 L 13 17 L 13 18 L 11.089844 18 C 11.301237 18.597918 11.865815 18.998284 12.5 19 C 13.328427 19 14 18.328427 14 17.5 C 14 16.671573 13.328427 16 12.5 16 L 5 16 z"/>
</svg>
