<?xml version='1.0' encoding='UTF-8' standalone='no'?>
<svg height="16" style="enable-background:new" version="1.1" width="16" xmlns="http://www.w3.org/2000/svg">
 <title>
  Paper Symbolic Icon Theme
 </title>
 <g transform="translate(-437.0004,-80.996638)">
  <path d="m 437.0004,81.996638 c 0,4.66667 0,9.33333 0,14 5.33327,-0.002 10.66653,0.005 15.9998,0.003 0,-4.66667 0,-9.33333 0,-14 -5.33327,0.002 -10.66653,-0.005 -15.9998,-0.003 z m 1.9998,2.00336 c 1.66673,-0.001 3.33347,-0.002 5.0002,-0.003 -7e-5,3.33445 -1.3e-4,6.66891 -2e-4,10.00336 -1.66673,10e-4 -3.33347,0.002 -5.0002,0.003 7e-5,-3.33433 1.3e-4,-6.66867 2e-4,-10.003 z m 7,0 c 1.66667,0 3.33333,0 5,0 -7e-5,3.33445 -1.3e-4,6.66891 -2e-4,10.00336 -1.66667,0 -3.33333,0 -5,0 7e-5,-3.33445 1.3e-4,-6.66891 2e-4,-10.00336 z" style="fill:#5c616c;fill-opacity:1;"/>
 </g>
</svg>
