<svg width="32" height="32" version="1.1" xmlns="http://www.w3.org/2000/svg">
 <path d="m6.375 3c-0.76175 0-1.375 0.6244-1.375 1.4v25.2c0 0.77504 0.61325 1.4 1.375 1.4h19.25c0.7612 0 1.375-0.62496 1.375-1.4v-17.6l-7-2-2-7z" style="opacity:.2"/>
 <path d="m6.375 2c-0.76175 0-1.375 0.6244-1.375 1.4v25.2c0 0.77504 0.61325 1.4 1.375 1.4h19.25c0.7612 0 1.375-0.62496 1.375-1.4v-17.6l-7-2-2-7z" style="fill:#495d73"/>
 <path d="M 6.375,2 C 5.61325,2 5,2.6247906 5,3.4003906 v 1 C 5,3.6247906 5.61325,3 6.375,3 H 18 V 2 Z" style="fill:#ffffff;opacity:.1"/>
 <path d="m10.5 10c-0.4155 0-0.791375 0.166375-1.0625 0.4375l-1.9980469 2 1.5605469 1.5625h0.5l1 1h11l1-1h0.5l1.558594-1.564453-1.992188-1.992188c-0.0018-0.0018-0.0021-0.0041-0.0039-0.0059-0.271131-0.271086-0.647004-0.437459-1.062506-0.437459z" style="fill:#41a6f6"/>
 <path d="m10.5 10c-0.4155 0-0.791375 0.166375-1.0625 0.4375l-1.9980469 2 1.5605469 1.5625h0.5l1 1h11l1-1h0.5l1.558594-1.564453-1.992188-1.992188c-0.0018-0.0018-0.0021-0.0041-0.0039-0.0059-0.271131-0.271086-0.647004-0.437459-1.062506-0.437459z" style="fill:#ffffff;opacity:.2"/>
 <path d="m27 12-9-9v7.59375c0 0.779625 0.62775 1.40625 1.40625 1.40625z" style="opacity:.2"/>
 <path d="m27 11-9-9v7.59375c0 0.779625 0.62775 1.40625 1.40625 1.40625z" style="fill:#617a97"/>
 <path d="m8.5 12h15c0.831 0 1.5 0.669 1.5 1.5v13c0 0.831-0.669 1.5-1.5 1.5h-15c-0.831 0-1.5-0.669-1.5-1.5v-13c0-0.831 0.669-1.5 1.5-1.5z" style="fill:#41a6f6"/>
 <path d="m8.5 12c-0.831 0-1.5 0.669-1.5 1.5v1c0-0.831 0.669-1.5 1.5-1.5h15c0.831 0 1.5 0.669 1.5 1.5v-1c0-0.831-0.669-1.5-1.5-1.5z" style="fill:#ffffff;opacity:.4"/>
 <path d="m8.5 29c-0.831 0-1.5-0.669-1.5-1.5v-1c0 0.831 0.669 1.5 1.5 1.5h15c0.831 0 1.5-0.669 1.5-1.5v1c0 0.831-0.669 1.5-1.5 1.5z" style="opacity:.2"/>
 <path d="m12 25 2 2h4l2-2-1.5-1-1 1h-3l-1-1z" style="fill:#cdf8fb"/>
 <path d="m13.5 24-1.5 1 0.5 0.5 1-1 1 1h3l1-1 1 1 0.5-0.5-1.5-1-1 1h-3z" style="opacity:.2"/>
 <path d="m10 14c-0.554 0-1 0.446-1 1v7c0 0.554 0.446 1 1 1h12c0.554 0 1-0.446 1-1v-7c0-0.554-0.446-1-1-1z" style="fill:#cdf8fb"/>
 <path d="m12 16v5h2v-5zm6 0v5h2v-5z" style="fill:#41a6f6"/>
 <path d="m12 21v1h2v-1zm6 0v1h2v-1z" style="opacity:.2"/>
</svg>
