<svg xmlns="http://www.w3.org/2000/svg" width="32" height="32" version="1">
 <path d="M 6.3125,3.000325 C 5.585375,3.000325 5,3.6024178 5,4.3503088 V 28.650016 C 5,29.397367 5.585375,30 6.3125,30 h 18.375 C 25.4141,30 26,29.397367 26,28.650016 V 12 L 18.78125,10.425236 17,3.000325 Z" style="opacity:0.2"/>
 <path style="fill:#48aeff" d="M 6.3125,2.000325 C 5.585375,2.000325 5,2.6024178 5,3.3503088 V 27.650016 C 5,28.397367 5.585375,29 6.3125,29 h 18.375 C 25.4141,29 26,28.397367 26,27.650016 V 11 L 18.78125,9.4252356 17,2.000325 Z"/>
 <path d="M 17,3.0003375 V 10.500375 C 17,11.328375 17.671625,12 18.499625,12 H 26 L 17,3 Z" style="opacity:0.2"/>
 <path style="fill:#90cdff" d="M 17,2.0003375 V 9.500375 C 17,10.328375 17.671625,11 18.499625,11 H 26 L 17,2 Z"/>
 <path d="m 9,14 v 6 h 6 v -6 z m 7,0 v 6 h 6 v -6 z m -7,7 v 6 h 6 v -6 z m 7,0 v 6 h 6 v -6 z" style="opacity:0.2"/>
 <path style="fill:#ffffff" d="M 9 13 L 9 19 L 15 19 L 15 13 L 9 13 z M 16 13 L 16 19 L 22 19 L 22 13 L 16 13 z M 9 20 L 9 26 L 15 26 L 15 20 L 9 20 z M 16 20 L 16 26 L 22 26 L 22 20 L 16 20 z"/>
 <path style="opacity:0.2;fill:#ffffff" d="M 6.3125,2 C 5.585375,2 5,2.6017184 5,3.3496094 v 1 C 5,3.6017184 5.585375,3 6.3125,3 H 17 c 0,-1 0,0 0,-1 z"/>
</svg>
