<svg xmlns="http://www.w3.org/2000/svg" width="32" height="32" version="1">
 <path style="opacity:0.2" d="M 6.375,3 C 5.61325,3 5,3.6244 5,4.4 V 29.6 C 5,30.3756 5.61325,31 6.375,31 h 19.25 C 26.38675,31 27,30.3756 27,29.6 V 11 L 19.63775,10.3 19,3 Z"/>
 <path style="fill:#008cff" d="M 6.375,2 C 5.61325,2 5,2.6244 5,3.4 V 28.6 C 5,29.3756 5.61325,30 6.375,30 h 19.25 C 26.38675,30 27,29.3756 27,28.6 V 10 L 19.63775,9.3 19,2 Z"/>
 <path style="opacity:0.2" d="M 19,3 V 9.6666667 C 19,10.403067 19.596953,11 20.333333,11 H 27 Z"/>
 <path style="fill:#54b1ff" d="M 19,2 V 8.6666667 C 19,9.4030667 19.596953,10 20.333333,10 H 27 Z"/>
 <path style="opacity:0.2;fill-rule:evenodd" d="m 13.564169,26.59193 c -0.475384,-0.149135 -0.792307,-0.307494 -1.267691,-0.614989 1.885691,0.136837 4.325998,-0.307496 5.989844,-1.737347 0,0 3.153381,-2.383087 0.950769,-6.288277 0,0 0.316921,1.568226 -0.101418,2.875079 0,0 -0.475383,1.768099 -2.440306,2.275464 -2.931536,0.76874 -6.259226,-1.229979 -7.6536876,-2.121715 -0.106169,-0.922486 -0.01267,-1.952594 0.3169229,-2.93658 0.475384,-1.383729 1.6004617,-2.567584 2.8681527,-3.320948 -0.316923,2.106342 -0.06655,4.043562 0.316923,4.843049 0.475384,1.076233 1.267692,2.352339 2.979075,2.521461 1.647998,0.153749 2.55123,-1.229981 2.55123,-1.229981 0.792306,-1.22998 0.950769,-2.951953 0.950769,-2.998078 -0.01268,-0.04305 -0.158463,-0.153747 -0.158463,-0.153747 -0.633844,2.16784 -1.584612,2.890453 -1.584612,2.890453 -1.426155,1.383729 -2.519539,0.461244 -2.519539,0.461244 -1.10923,-1.076233 -0.316923,-2.998078 -0.316923,-2.998078 0.475384,-1.229981 1.72723,-3.105701 3.185074,-4.058935 0.316923,0.05689 0.475386,0.09225 0.79231,0.153747 0.950769,0.307495 1.647997,0.768737 2.29769,1.383728 -1.109231,0.307495 -2.788922,1.076233 -2.788922,1.076233 -2.725537,1.076233 -2.899844,2.721333 -2.899844,2.721333 -0.316923,1.691222 1.10923,0.922484 1.10923,0.922484 1.426153,-0.61499 2.170921,-2.767456 2.170921,-2.767456 -0.475382,-0.08149 -0.792306,0.0492 -0.792306,0.0492 -0.633847,1.383727 -1.774769,1.921844 -1.774769,1.921844 -0.475384,0.307494 -0.633845,-0.153748 -0.633845,-0.153748 -0.07923,-0.307496 0.316922,-0.307496 0.316922,-0.307496 0.633846,-0.307495 1.10923,-0.922484 1.10923,-1.076232 0.09349,-0.307496 0.316923,-0.307496 0.316923,-0.307496 0.950768,-0.307494 1.695537,-0.307494 1.695537,-0.307494 1.109231,-0.127611 2.788922,0.307494 2.788922,0.307494 0.316924,0.142986 0.792307,0.307496 1.109231,0.307496 0.633845,1.383728 0.792306,3.121076 0.103,4.720052 -1.267693,3.428568 -5.34015,5.212042 -8.968918,3.951311 z"/>
 <path style="fill:#ffffff;fill-rule:evenodd" d="m 13.564169,25.59193 c -0.475384,-0.149135 -0.792307,-0.307494 -1.267691,-0.614989 1.885691,0.136837 4.325998,-0.307496 5.989844,-1.737347 0,0 3.153381,-2.383087 0.950769,-6.288277 0,0 0.316921,1.568226 -0.101418,2.875079 0,0 -0.475383,1.768099 -2.440306,2.275464 -2.931536,0.76874 -6.259226,-1.229979 -7.6536876,-2.121715 -0.106169,-0.922486 -0.01267,-1.952594 0.3169229,-2.93658 0.475384,-1.383729 1.6004617,-2.567584 2.8681527,-3.320948 -0.316923,2.106342 -0.06655,4.043562 0.316923,4.843049 0.475384,1.076233 1.267692,2.352339 2.979075,2.521461 1.647998,0.153749 2.55123,-1.229981 2.55123,-1.229981 0.792306,-1.22998 0.950769,-2.951953 0.950769,-2.998078 -0.01268,-0.04305 -0.158463,-0.153747 -0.158463,-0.153747 -0.633844,2.16784 -1.584612,2.890453 -1.584612,2.890453 -1.426155,1.383729 -2.519539,0.461244 -2.519539,0.461244 -1.10923,-1.076233 -0.316923,-2.998078 -0.316923,-2.998078 0.475384,-1.229981 1.72723,-3.105701 3.185074,-4.058935 0.316923,0.05689 0.475386,0.09225 0.79231,0.153747 0.950769,0.307495 1.647997,0.768737 2.29769,1.383728 -1.109231,0.307495 -2.788922,1.076233 -2.788922,1.076233 -2.725537,1.076233 -2.899844,2.721333 -2.899844,2.721333 -0.316923,1.691222 1.10923,0.922484 1.10923,0.922484 1.426153,-0.61499 2.170921,-2.767456 2.170921,-2.767456 -0.475382,-0.08149 -0.792306,0.0492 -0.792306,0.0492 -0.633847,1.383727 -1.774769,1.921844 -1.774769,1.921844 -0.475384,0.307494 -0.633845,-0.153748 -0.633845,-0.153748 -0.07923,-0.307496 0.316922,-0.307496 0.316922,-0.307496 0.633846,-0.307495 1.10923,-0.922484 1.10923,-1.076232 0.09349,-0.307496 0.316923,-0.307496 0.316923,-0.307496 0.950768,-0.307494 1.695537,-0.307494 1.695537,-0.307494 1.109231,-0.127611 2.788922,0.307494 2.788922,0.307494 0.316924,0.142986 0.792307,0.307496 1.109231,0.307496 0.633845,1.383728 0.792306,3.121076 0.103,4.720052 -1.267693,3.428568 -5.34015,5.212042 -8.968918,3.951311 z"/>
 <path style="opacity:0.2;fill:#ffffff" d="M 6.375,2 C 5.61325,2 5,2.6247906 5,3.4003906 v 1 C 5,3.6247906 5.61325,3 6.375,3 H 19 V 2 Z"/>
</svg>
