<svg xmlns="http://www.w3.org/2000/svg" width="32" height="32" version="1.1">
 <path style="opacity:0.2" d="M 6.375,3 C 5.61325,3 5,3.6244 5,4.4 V 29.6 C 5,30.37504 5.61325,31 6.375,31 h 19.25 C 26.3862,31 27,30.37504 27,29.6 V 12 L 20,10 18,3 Z"/>
 <path style="fill:#455a64" d="M 6.375,2 C 5.61325,2 5,2.6244 5,3.4 V 28.6 C 5,29.37504 5.61325,30 6.375,30 h 19.25 C 26.3862,30 27,29.37504 27,28.6 V 11 L 20,9 18,2 Z"/>
 <path style="opacity:0.2" d="M 27,12 18,3 v 7.59375 C 18,11.373375 18.62775,12 19.40625,12 Z"/>
 <path style="fill:#59737f" d="M 27,11 18,2 V 9.59375 C 18,10.373375 18.62775,11 19.40625,11 Z"/>
 <path style="opacity:0.1;fill:#ffffff" d="M 6.375,2 C 5.61325,2 5,2.6247906 5,3.4003906 v 1 C 5,3.6247906 5.61325,3 6.375,3 H 18 V 2 Z"/>
 <path style="opacity:0.2" d="M 9.4003906,14 C 8.6247906,14 8,14.624791 8,15.400391 v 4.199218 C 8,20.375209 8.6247906,21 9.4003906,21 H 13.599609 C 14.375209,21 15,20.375209 15,19.599609 V 15.400391 C 15,14.624791 14.375209,14 13.599609,14 Z m 9.0000004,8 C 17.624791,22 17,22.624791 17,23.400391 v 4.199218 C 17,28.375209 17.624791,29 18.400391,29 h 4.199218 C 23.375209,29 24,28.375209 24,27.599609 V 23.400391 C 24,22.624791 23.375209,22 22.599609,22 Z"/>
 <rect style="fill:#ffffff" width="7" height="7" x="8" y="13" ry="1.4"/>
 <rect style="fill:#ffffff" width="7" height="7" x="17" y="21" ry="1.4"/>
</svg>
