<svg xmlns="http://www.w3.org/2000/svg" width="32" height="32" version="1.1" viewBox="0 0 32 32">
 <rect width="28" height="28" x="-30.05" y="-30" rx="1.5" ry="1.5" transform="matrix(0,-1,-1,0,0,0)" style="fill:#e4e4e4"/>
 <path d="M 3.5,2.05 C 2.669,2.05 2,2.719 2,3.55 l 0,1 C 2,3.719 2.669,3.05 3.5,3.05 l 25,0 c 0.831,0 1.5,0.669 1.5,1.5 l 0,-1 c 0,-0.831 -0.669,-1.5 -1.5,-1.5 l -25,0 z" style="opacity:0.2;fill:#ffffff"/>
 <path style="fill:#707070;fill-rule:evenodd" d="M 3.4,30.05 16,17.45 28.6,30.05 Z"/>
 <path d="M 30,28.65 17.4,16.05 30,3.45 Z" style="fill:#9f9f9f;fill-rule:evenodd"/>
 <path d="m 17.238,14.75 -2.4766,2.4766 12.764,12.762 0.97461,0 c 0.831,0 1.5,-0.669 1.5,-1.5 l 0,-0.9746 -12.762,-12.764 z" style="fill:#ffffff;fill-rule:evenodd"/>
 <path style="fill:#ffffff;fill-rule:evenodd" d="M 27.525,2.05 2,27.55 2,28.5246 c 0,0.831 0.669,1.5 1.5,1.5 l 0.97461,0 25.525,-25.6 0,-0.9746 c 0,-0.831 -0.669,-1.5 -1.5,-1.5 l -0.97461,0 z"/>
 <path style="opacity:0.2" d="m 2,28.5 0,1 C 2,30.331 2.669,31 3.5,31 l 25,0 c 0.831,0 1.5,-0.669 1.5,-1.5 l 0,-1 c 0,0.831 -0.669,1.5 -1.5,1.5 l -25,0 C 2.669,30 2,29.331 2,28.5 Z"/>
</svg>
