<svg xmlns="http://www.w3.org/2000/svg" width="32" height="32" version="1">
 <path style="opacity:0.2" d="M 7.25,5 C 6.5575,5 6,5.5575 6,6.25 v 22.5 C 6,29.442 6.5575,30 7.25,30 h 17.5 C 25.442,30 26,29.442 26,28.75 V 13 L 19.125,11.875 18,5 Z"/>
 <path style="fill:#455a64" d="m7.25 4c-0.6925 0-1.25 0.5575-1.25 1.25v22.5c0 0.692 0.5575 1.25 1.25 1.25h17.5c0.692 0 1.25-0.558 1.25-1.25v-15.75l-6.875-1.125-1.125-6.875z"/>
 <path style="opacity:0.2" d="m 18,5 v 6.6667 c 0,0.736 0.597,1.333 1.333,1.333 H 26 l -8,-8 z"/>
 <path style="fill:#546e7a" d="m18 4v6.6667c0 0.736 0.597 1.333 1.333 1.333h6.667l-8-8z"/>
 <path fill="#fff" style="opacity:0.1" d="m7.25 4c-0.6925 0-1.25 0.5575-1.25 1.25v1c0-0.6925 0.5575-1.25 1.25-1.25h10.75v-1z"/>
 <path style="fill:#2196f3" d="m 10,16 v 1 h 12 v -1 z"/>
 <path style="fill:#8bc34a" d="m 10,19 v 1 h 12 v -1 z"/>
 <path style="fill:#ffc107" d="m 10,22 v 1 h 12 v -1 z"/>
 <path style="fill:#ff5722" d="m 10,25 v 1 h 8 v -1 z"/>
 <path style="opacity:0.2" d="m 10,17 v 1 h 12 v -1 z m 0,3 v 1 h 12 v -1 z m 0,3 v 1 h 12 v -1 z m 0,3 v 1 h 8 v -1 z"/>
</svg>
