<?xml version="1.0" encoding="UTF-8" standalone="no"?>
<svg xmlns="http://www.w3.org/2000/svg" height="24" width="24" version="1.1">
 <defs>
  <linearGradient id="linearGradient3605" x1="7" gradientUnits="userSpaceOnUse" y1="12" gradientTransform="matrix(0,-1,-1,0,24,24)" x2="19" y2="5">
   <stop stop-color="#5c616c" stop-opacity=".5" offset="0"/>
   <stop stop-color="#5c616c" stop-opacity="0" offset="1"/>
  </linearGradient>
  <linearGradient id="linearGradient3611" x1="7" gradientUnits="userSpaceOnUse" y1="12" gradientTransform="matrix(0,1,1,0,0,0)" x2="17" y2="12">
   <stop stop-color="#5c616c" offset="0"/>
   <stop stop-opacity=".5" stop-color="#5c616c" offset="1"/>
  </linearGradient>
 </defs>
 <path fill="url(#linearGradient3611)" d="m12 5c-3.866 0-7 3.134-7 7s3.134 7 7 7v-2c-2.7614 0-5-2.239-5-5 0-2.7614 2.2386-5 5-5 1.3 0 1.3-2 0-2z"/>
 <path fill="url(#linearGradient3605)" d="m12 5v2c2.7614 0 5 2.2386 5 5s-2.2386 5-5 5v2c3.866 0 7-3.134 7-7s-3.134-7-7-7z"/>
</svg>
