<?xml version="1.0" encoding="UTF-8" standalone="no"?>
<svg xmlns="http://www.w3.org/2000/svg" width="24" height="24" viewBox="0 0 24 24" id="svg2" version="1.1">
 <defs id="defs4">
  <style type="text/css" id="current-color-scheme">
   .ColorScheme-Text { color:#5c616c; } .ColorScheme-Highlight { color:#5294e2; } .ColorScheme-ButtonBackground { color:#d3dae3; }
  </style>
 </defs>
 <path style="fill:currentColor;fill-opacity:1" class="ColorScheme-Text" d="M 11.5,5 A 7.5,7.5 0 0 0 4,12.5 7.5,7.5 0 0 0 11.5,20 7.5,7.5 0 0 0 19,12.5 7.5,7.5 0 0 0 11.5,5 Z M 7,8 l 3,0 1,0 0,1 0,3 0,1 -3,0 0,3 3,0 0,1 -4,0 0,-1 0,-3 0,-1 1,0 2,0 0,-3 -3,0 0,-1 z m 5,0 1,0 0,4 2,0 0,-4 1,0 0,4 0,1 0,4 -1,0 0,-4 -3,0 0,-1 0,-4 z" id="path4141"/>
</svg>
