<?xml version="1.0" encoding="UTF-8" standalone="no"?>
<!--Created with Inkscape (http://www.inkscape.org/)-->
<svg id="svg7384" xmlns:rdf="http://www.w3.org/1999/02/22-rdf-syntax-ns#" style="enable-background:new" xmlns="http://www.w3.org/2000/svg" height="24" width="24" version="1.1" xmlns:cc="http://creativecommons.org/ns#" xmlns:dc="http://purl.org/dc/elements/1.1/">
 <metadata id="metadata90">
  <rdf:RDF>
   <cc:Work rdf:about="">
    <dc:format>image/svg+xml</dc:format>
    <dc:type rdf:resource="http://purl.org/dc/dcmitype/StillImage"/>
   </cc:Work>
  </rdf:RDF>
 </metadata>
 <g id="layer1" transform="translate(-524 -206)">
  <path id="path8770" opacity="1" fill="#5c616c" fill-rule="evenodd" d="m530 211c-1.0312 0.0625-1 1-1 1v12s-0.0312 0.9375 1 1h12c1 0 1-1 1-1v-12s0-1-1-1h-5.5312l0.3125 0.375 1.3125 1.625h2.9062v7h-3c0 1.108-0.892 2-2 2s-2-0.892-2-2h-3v-7h2.9062l1.3125-1.625 0.3125-0.375h-5.5312zm6 1-4 5h2v2h4v-2h2l-4-5z"/>
 </g>
</svg>
