<?xml version="1.0" encoding="UTF-8" standalone="no"?>
<!--Created with Inkscape (http://www.inkscape.org/)-->
<svg id="svg3049" xmlns:rdf="http://www.w3.org/1999/02/22-rdf-syntax-ns#" xmlns="http://www.w3.org/2000/svg" height="24" width="24" version="1.1" xmlns:cc="http://creativecommons.org/ns#" xmlns:dc="http://purl.org/dc/elements/1.1/">
 <defs id="defs3051">
 </defs>
 <metadata id="metadata3054">
  <rdf:RDF>
   <cc:Work rdf:about="">
    <dc:format>image/svg+xml</dc:format>
    <dc:type rdf:resource="http://purl.org/dc/dcmitype/StillImage"/>
    <dc:title/>
   </cc:Work>
  </rdf:RDF>
 </metadata>
 <g id="layer1" transform="translate(-421.71 -523.79)">
  <rect id="rect4035" style="color:#4d4d4d" class="ColorScheme-Text" height="11" width="0" y="534.79" x="417.71" fill="currentColor"/>
  <rect id="rect4035-2" style="color:#4d4d4d" class="ColorScheme-Text" height="11" width="0" y="535.06" x="411.57" fill="currentColor"/>
  <rect id="rect4035-5" style="color:#4d4d4d" class="ColorScheme-Text" height="11" width="0" y="533.01" x="429.61" fill="currentColor"/>
  <rect id="rect4035-8" style="color:#4d4d4d" class="ColorScheme-Text" height="11" width="0" y="535.06" x="411.57" fill="currentColor"/>
  <rect id="rect4035-59" style="color:#4d4d4d" class="ColorScheme-Text" height="11" width="0" y="535.06" x="411.57" fill="currentColor"/>
  <rect id="rect4035-9" style="color:#4d4d4d" class="ColorScheme-Text" height="11" width="0" y="535.06" x="411.57" fill="currentColor"/>
  <rect id="rect4035-5-7" style="color:#4d4d4d" class="ColorScheme-Text" height="11" width="0" y="533.01" x="429.61" fill="currentColor"/>
  <rect id="rect4035-9-0" style="color:#4d4d4d" class="ColorScheme-Text" height="11" width="0" y="535.06" x="391.57" fill="currentColor"/>
  <rect id="rect4035-5-7-5" style="color:#4d4d4d" class="ColorScheme-Text" height="11" width="0" y="533.01" x="409.61" fill="currentColor"/>
  <path id="rect4749" opacity=".5" style="color:#4d4d4d" d="m426.71 528.79v5h2.5c0.82843 0 1.5-0.67157 1.5-1.5 0-0.5333-0.2682-1.0153-0.6875-1.2812 0.11546-0.21254 0.1875-0.45987 0.1875-0.71875 0-0.82843-0.67157-1.5-1.5-1.5h-2zm10 0v5h2.5c0.82843 0 1.5-0.67157 1.5-1.5v-2c0-0.82843-0.67157-1.5-1.5-1.5h-2.5zm-9 1h1c0.27614 0 0.5 0.22386 0.5 0.5s-0.22386 0.5-0.5 0.5h-1v-1zm10 0h1.5c0.27614 0 0.5 0.22386 0.5 0.5v2c0 0.27614-0.22386 0.5-0.5 0.5h-1.5v-3zm-6 1v1h3v-1h-3zm-4 1h1.5c0.27614 0 0.5 0.22386 0.5 0.5s-0.22386 0.5-0.5 0.5h-1.5v-1zm-1 4v2h4v-2h-4zm6 0v2h2v-2h-2zm4 0v2h4v-2h-4zm-5 4-4 1.5 4 1.5v-3zm4 0v3l4-1.5-4-1.5zm-2 1c-0.27614 0-0.5 0.22386-0.5 0.5s0.22386 0.5 0.5 0.5 0.5-0.22386 0.5-0.5-0.22386-0.5-0.5-0.5z"/>
 </g>
</svg>
