<svg xmlns="http://www.w3.org/2000/svg" width="48" height="48" version="1.1">
 <circle style="fill:#252a35" cx="24" cy="24" r="20"/>
 <path style="fill:#ffffff" d="m 24.026,11.002844 c 2.735,0.006 5.5083,0.85839 7.6746,2.5456 1.5229,1.7544 -1.3789,3.6333 -2.6858,1.9226 -3.9343,-2.3806 -9.4829,-1.5424 -12.443,2.0167 -1.5749,1.7662 -2.4622,4.1231 -2.4518,6.4891 l 2.6,0 -4.16,6.24 -4.16,-6.24 2.6,0 c -0.083,-5.649 3.98,-11.023 9.435,-12.486 1.17,-0.321 2.376,-0.5006 3.591,-0.488 z m 11.414,6.76 4.16,6.24 -2.6,0 c 0.0737,5.7169 -4.093,11.151 -9.6433,12.537 -3.7452,1.0459 -7.9801,0.2827 -11.058,-2.1101 -1.5705,-1.7837 1.3716,-3.6445 2.6907,-1.9181 3.8119,2.3127 9.1499,1.5792 12.159,-1.724 1.742,-1.795 2.744,-4.283 2.731,-6.785 l -2.6,0 4.16,-6.24 z"/>
</svg>
