<svg xmlns="http://www.w3.org/2000/svg" width="48" height="48" version="1.1">
 <circle style="fill:#1474e7" cx="38" cy="38" r="10"/>
 <path style="fill:#ffffff" d="m 38.102448,31.000324 c 1.472944,0.003 2.966518,0.462289 4.133185,1.370946 0.820167,0.944839 -0.742611,1.956728 -1.446447,1.035423 -2.118835,-1.282083 -5.107054,-0.830666 -6.701227,1.086102 -0.848169,0.951195 -1.326031,2.220512 -1.320431,3.494734 H 34.16777 L 31.927385,41.348103 29.687,37.987529 h 1.400243 c -0.04468,-3.042294 2.143442,-5.936484 5.081256,-6.724388 0.63011,-0.172853 1.279607,-0.269584 1.933949,-0.262808 z m 6.147057,3.640628 2.240383,3.360579 h -1.40024 c 0.03971,3.078857 -2.204301,6.005415 -5.193439,6.751851 -2.016991,0.563274 -4.297715,0.152227 -5.95533,-1.136404 -0.8458,-0.960619 0.73868,-1.962758 1.449087,-1.032997 2.052916,1.24551 4.927713,0.850482 6.548277,-0.92847 0.938165,-0.966705 1.477793,-2.306624 1.470795,-3.654092 h -1.400245 l 2.240386,-3.360574 z"/>
</svg>
