<svg height="48" viewBox="0 0 48 48.000001" width="48" xmlns="http://www.w3.org/2000/svg"><g transform="translate(0 -1004.4)"><path d="m10 1008.4c-1.108 0-2 .892-2 2v36c0 1.108.892 2 2 2h13.979 14.021c1.108 0 2-.892 2-2v-36c0-1.108-.892-2-2-2h-14.021z" fill="#009587"/><path d="m10 1008.4c-1.108 0-2 .892-2 2v36c0 1.108.892 2 2 2h3.9785v-40z" opacity=".2"/><path d="m31.979 1008.4c-1 0-1 1-1 1v16.5l2.5-1.5 2.5 1.5v-16.5c0-1-1-1-1-1z" opacity=".2"/><path d="m30.979 1008.4v16.5l2.5-1.5 2.5 1.5v-16.5z" fill="#d8d8d8"/><path d="m10 1008.4c-1.108 0-2 .892-2 2v1c0-1.108.892-2 2-2h13.979 14.021c1.108 0 2 .892 2 2v-1c0-1.108-.892-2-2-2h-14.021z" fill="#fff" opacity=".2"/><path d="m8 41v1c0 1.108.892 2 2 2h13.979 14.021c1.108 0 2-.892 2-2v-1c0 1.108-.892 2-2 2h-14.021-13.979c-1.108 0-2-.892-2-2z" opacity=".3" transform="translate(0 1004.4)"/></g></svg>