<svg height="48" width="48" xmlns="http://www.w3.org/2000/svg"><text opacity=".8" x="877.22626" y="10.812601"><tspan x="877.22626" y="10.812601"/></text><text opacity=".8" x="901.18719" y="-29.929106"><tspan x="901.18719" y="-29.929106"/></text><text opacity=".8" x="-569.37115" y="-60.007248"><tspan x="-569.37115" y="-60.007248"/></text><text opacity=".8" x="-2393.0571" y="685.5462"><tspan x="-2393.0571" y="685.5462"/></text><text opacity=".8" x="-454.88007" y="-445.32822"><tspan x="-454.88007" y="-445.32822"/></text><text opacity=".8" x="352.72208" y="-858.79834"><tspan x="352.72208" y="-858.79834"/></text><text opacity=".8" x="376.68301" y="-899.54004"><tspan x="376.68301" y="-899.54004"/></text><text opacity=".8" x="-1114.7802" y="-906.74994"><tspan x="-1114.7802" y="-906.74994"/></text><text opacity=".8" x="345.7626" y="-1179.9841"><tspan x="345.7626" y="-1179.9841"/></text><text opacity=".8" x="1831.8861" y="-553.29272"><tspan x="1831.8861" y="-553.29272"/></text><text opacity=".8" x="1855.8469" y="-594.03448"><tspan x="1855.8469" y="-594.03448"/></text><text opacity=".8" x="364.38376" y="-601.24438"><tspan x="364.38376" y="-601.24438"/></text><text opacity=".8" x="1824.9266" y="-874.47839"><tspan x="1824.9266" y="-874.47839"/></text><text opacity=".8" x="-573.43256" y="-649.33569"><tspan x="-573.43256" y="-649.33569"/></text><text opacity=".8" x="-2397.1182" y="96.217857"><tspan x="-2397.1182" y="96.217857"/></text><text opacity=".8" x="-682.36279" y="189.09"><tspan x="-682.36279" y="189.09"/></text><text opacity=".8" x="426.66153" y="9.9078522"><tspan x="426.66153" y="9.9078522"/></text><text opacity=".8" x="450.62247" y="-30.833855"><tspan x="450.62247" y="-30.833855"/></text><text opacity=".8" x="-1040.8407" y="-38.043827"><tspan x="-1040.8407" y="-38.043827"/></text><text opacity=".8" x="419.70206" y="-311.27789"><tspan x="419.70206" y="-311.27789"/></text><text opacity=".8" x="-608.03253" y="-40.758072"><tspan x="-608.03253" y="-40.758072"/></text><text opacity=".8" x="-2431.7185" y="704.79541"><tspan x="-2431.7185" y="704.79541"/></text><text opacity=".8" x="-456.93948" y="-902.28857"><tspan x="-456.93948" y="-902.28857"/></text><text opacity=".8" x="350.66266" y="-1315.7588"><tspan x="350.66266" y="-1315.7588"/></text><text opacity=".8" x="374.62357" y="-1356.5005"><tspan x="374.62357" y="-1356.5005"/></text><text opacity=".8" x="-1116.8396" y="-1363.7104"><tspan x="-1116.8396" y="-1363.7104"/></text><text opacity=".8" x="343.70316" y="-1636.9446"><tspan x="343.70316" y="-1636.9446"/></text><text opacity=".8" x="1829.8265" y="-1010.2533"><tspan x="1829.8265" y="-1010.2533"/></text><text opacity=".8" x="1853.7874" y="-1050.9949"><tspan x="1853.7874" y="-1050.9949"/></text><text opacity=".8" x="362.32431" y="-1058.2048"><tspan x="362.32431" y="-1058.2048"/></text><text opacity=".8" x="1822.8671" y="-1331.439"><tspan x="1822.8671" y="-1331.439"/></text><text opacity=".8" x="-575.492" y="-1106.2961"><tspan x="-575.492" y="-1106.2961"/></text><text opacity=".8" x="-2399.1777" y="-360.74261"><tspan x="-2399.1777" y="-360.74261"/></text><text opacity=".8" x="-684.42224" y="-267.87045"><tspan x="-684.42224" y="-267.87045"/></text><text opacity=".8" x="155.5923" y="-26.956278"><tspan x="155.5923" y="-26.956278"/></text><text opacity=".8" x="179.55324" y="-67.697998"><tspan x="179.55324" y="-67.697998"/></text><text opacity=".8" x="-1090.2634" y="-261.72662"><tspan x="-1090.2634" y="-261.72662"/></text><text opacity=".8" x="-282.66141" y="-675.19678"><tspan x="-282.66141" y="-675.19678"/></text><text opacity=".8" x="-258.70047" y="-715.93848"><tspan x="-258.70047" y="-715.93848"/></text><text opacity=".8" x="-1750.1636" y="-723.14838"><tspan x="-1750.1636" y="-723.14838"/></text><text opacity=".8" x="-289.62085" y="-996.38251"><tspan x="-289.62085" y="-996.38251"/></text><text opacity=".8" x="1196.5026" y="-369.69113"><tspan x="1196.5026" y="-369.69113"/></text><text opacity=".8" x="1220.4634" y="-410.43286"><tspan x="1220.4634" y="-410.43286"/></text><text opacity=".8" x="-270.99973" y="-417.64282"><tspan x="-270.99973" y="-417.64282"/></text><text opacity=".8" x="1189.5431" y="-690.87689"><tspan x="1189.5431" y="-690.87689"/></text><text opacity=".8" x="-1208.816" y="-465.7341"><tspan x="-1208.816" y="-465.7341"/></text><text opacity=".8" x="-3032.5017" y="279.81946"><tspan x="-3032.5017" y="279.81946"/></text><text opacity=".8" transform="matrix(.90475 0 0 .90475 -716.75 -676.29)" x="-664.2738" y="1159.4154"><tspan x="-664.2738" y="1159.4154"/></text><text opacity=".8" x="877.22626" y="18.050589"><tspan x="877.22626" y="18.050589"/></text><text opacity=".8" x="901.18719" y="-22.691116"><tspan x="901.18719" y="-22.691116"/></text><text opacity=".8" x="-569.37115" y="-52.76926"><tspan x="-569.37115" y="-52.76926"/></text><text opacity=".8" x="-2393.0571" y="692.78418"><tspan x="-2393.0571" y="692.78418"/></text><text opacity=".8" x="-454.88007" y="-438.09021"><tspan x="-454.88007" y="-438.09021"/></text><text opacity=".8" x="352.72208" y="-851.5603"><tspan x="352.72208" y="-851.5603"/></text><text opacity=".8" x="376.68301" y="-892.30206"><tspan x="376.68301" y="-892.30206"/></text><text opacity=".8" x="-1114.7802" y="-899.51196"><tspan x="-1114.7802" y="-899.51196"/></text><text opacity=".8" x="345.7626" y="-1172.7461"><tspan x="345.7626" y="-1172.7461"/></text><text opacity=".8" x="1831.8861" y="-546.05475"><tspan x="1831.8861" y="-546.05475"/></text><text opacity=".8" x="1855.8469" y="-586.79651"><tspan x="1855.8469" y="-586.79651"/></text><text opacity=".8" x="364.38376" y="-594.00641"><tspan x="364.38376" y="-594.00641"/></text><text opacity=".8" x="1824.9266" y="-867.24036"><tspan x="1824.9266" y="-867.24036"/></text><text opacity=".8" x="-573.43256" y="-642.09772"><tspan x="-573.43256" y="-642.09772"/></text><text opacity=".8" x="-2397.1182" y="103.45585"><tspan x="-2397.1182" y="103.45585"/></text><text opacity=".8" x="-682.36279" y="196.32799"><tspan x="-682.36279" y="196.32799"/></text><text opacity=".8" x="426.66153" y="17.14584"><tspan x="426.66153" y="17.14584"/></text><text opacity=".8" x="450.62247" y="-23.595865"><tspan x="450.62247" y="-23.595865"/></text><text opacity=".8" x="-1040.8407" y="-30.805836"><tspan x="-1040.8407" y="-30.805836"/></text><text opacity=".8" x="419.70206" y="-304.03989"><tspan x="419.70206" y="-304.03989"/></text><text opacity=".8" x="-608.03253" y="-33.520081"><tspan x="-608.03253" y="-33.520081"/></text><text opacity=".8" x="-2431.7185" y="712.03345"><tspan x="-2431.7185" y="712.03345"/></text><text opacity=".8" x="-456.93948" y="-895.0506"><tspan x="-456.93948" y="-895.0506"/></text><text opacity=".8" x="350.66266" y="-1308.5208"><tspan x="350.66266" y="-1308.5208"/></text><text opacity=".8" x="374.62357" y="-1349.2626"><tspan x="374.62357" y="-1349.2626"/></text><text opacity=".8" x="-1116.8396" y="-1356.4724"><tspan x="-1116.8396" y="-1356.4724"/></text><text opacity=".8" x="343.70316" y="-1629.7065"><tspan x="343.70316" y="-1629.7065"/></text><text opacity=".8" x="1829.8265" y="-1003.0153"><tspan x="1829.8265" y="-1003.0153"/></text><text opacity=".8" x="1853.7874" y="-1043.757"><tspan x="1853.7874" y="-1043.757"/></text><text opacity=".8" x="362.32431" y="-1050.9668"><tspan x="362.32431" y="-1050.9668"/></text><text opacity=".8" x="1822.8671" y="-1324.2009"><tspan x="1822.8671" y="-1324.2009"/></text><text opacity=".8" x="-575.492" y="-1099.0581"><tspan x="-575.492" y="-1099.0581"/></text><text opacity=".8" x="-2399.1777" y="-353.50461"><tspan x="-2399.1777" y="-353.50461"/></text><text opacity=".8" x="-684.42224" y="-260.63245"><tspan x="-684.42224" y="-260.63245"/></text><text opacity=".8" x="155.5923" y="-19.71829"><tspan x="155.5923" y="-19.71829"/></text><text opacity=".8" x="179.55324" y="-60.460011"><tspan x="179.55324" y="-60.460011"/></text><text opacity=".8" x="-1090.2634" y="-254.4886"><tspan x="-1090.2634" y="-254.4886"/></text><text opacity=".8" x="-282.66141" y="-667.9588"><tspan x="-282.66141" y="-667.9588"/></text><text opacity=".8" x="-258.70047" y="-708.7005"><tspan x="-258.70047" y="-708.7005"/></text><text opacity=".8" x="-1750.1636" y="-715.91046"><tspan x="-1750.1636" y="-715.91046"/></text><text opacity=".8" x="-289.62085" y="-989.14447"><tspan x="-289.62085" y="-989.14447"/></text><text opacity=".8" x="1196.5026" y="-362.45316"><tspan x="1196.5026" y="-362.45316"/></text><text opacity=".8" x="1220.4634" y="-403.19489"><tspan x="1220.4634" y="-403.19489"/></text><text opacity=".8" x="-270.99973" y="-410.40482"><tspan x="-270.99973" y="-410.40482"/></text><text opacity=".8" x="1189.5431" y="-683.63892"><tspan x="1189.5431" y="-683.63892"/></text><text opacity=".8" x="-1208.816" y="-458.49609"><tspan x="-1208.816" y="-458.49609"/></text><text opacity=".8" x="-3032.5017" y="287.05743"><tspan x="-3032.5017" y="287.05743"/></text><text opacity=".8" transform="matrix(.90475 0 0 .90475 -716.75 -669.05)" x="-664.2738" y="1159.4154"><tspan x="-664.2738" y="1159.4154"/></text><text x="435.90427" y="-361.22546"><tspan x="435.90427" y="-361.22546"/><tspan x="435.90427" y="-345.3924"/></text><text opacity=".8" x="901.0882" y="-843.27002"><tspan x="901.0882" y="-843.27002"/></text><text opacity=".8" x="-922.59778" y="-97.716553"><tspan x="-922.59778" y="-97.716553"/></text><text opacity=".8" x="1628.1677" y="-1128.2659"><tspan x="1628.1677" y="-1128.2659"/></text><text opacity=".8" x="1652.1285" y="-1169.0076"><tspan x="1652.1285" y="-1169.0076"/></text><text opacity=".8" x="160.66542" y="-1176.2175"><tspan x="160.66542" y="-1176.2175"/></text><text opacity=".8" x="1621.2083" y="-1449.4517"><tspan x="1621.2083" y="-1449.4517"/></text><rect fill="#364558" height="40" rx="2" transform="matrix(0 -1 -1 0 0 0)" width="40" x="-44" y="-44"/><path d="m6 4c-1.108 0-2 .892-2 2v1c0-1.108.892-2 2-2h36c1.108 0 2 .892 2 2v-1c0-1.108-.892-2-2-2z" fill="#fff" opacity=".1"/><path d="m6 44c-1.108 0-2-.892-2-2v-1c0 1.108.892 2 2 2h36c1.108 0 2-.892 2-2v1c0 1.108-.892 2-2 2z" opacity=".3"/><g fill-rule="evenodd" opacity=".2" transform="translate(0 1)"><path d="m25.861 22.175c0 1.367.035 2.504-.625 3.715-.531.984-1.375 1.59-2.316 1.59-1.285 0-2.031-1.023-2.031-2.535 0-2.984 2.555-3.527 4.973-3.527v.758m3.375 8.531c-.219.207-.539.223-.789.086-1.109-.965-1.309-1.414-1.922-2.336-1.836 1.961-3.133 2.547-5.516 2.547-2.816 0-5.01-1.816-5.01-5.453 0-2.84 1.473-4.777 3.566-5.723 1.813-.836 4.352-.984 6.293-1.215v-.453c0-.832.063-1.816-.402-2.535-.41-.645-1.191-.91-1.879-.91-1.277 0-2.414.684-2.691 2.102-.059.316-.277.625-.582.641l-3.246-.363c-.273-.066-.574-.297-.5-.734.75-4.109 4.305-5.352 7.484-5.352 1.629 0 3.758.453 5.04 1.742 1.629 1.59 1.473 3.711 1.473 6.02v5.453c0 1.641.648 2.359 1.262 3.246.215.313.262.695-.008.93-.684.602-1.898 1.703-2.566 2.324l-.012-.012"/><path d="m35.092 30.998c-.90962.01312-1.9844.22259-2.7969.80859-.254.18-.21069.42953.07031.39453.914-.114 2.9573-.36372 3.3203.11328.367.476-.40609 2.4452-.74609 3.3242-.105.266.11756.37488.35156.17188 1.531-1.308 1.9224-4.0503 1.6094-4.4453-.154-.1975-.89897-.38031-1.8086-.36719zm-23.902.52734c-.18975.02545-.27372.26081-.07422.44531 3.393 3.144 7.879 5.03 12.859 5.03 3.554 0 7.677-1.149 10.525-3.297l.002-.0039c.473-.36.06994-.89059-.41406-.68359-3.188 1.391-6.6605 2.0586-9.8125 2.0586-4.676 0-9.2072-1.3121-12.867-3.4961-.08-.04775-.1555-.06122-.21875-.05273z"/></g><g fill-rule="evenodd"><path d="m25.861 22.175c0 1.367.035 2.504-.625 3.715-.531.984-1.375 1.59-2.316 1.59-1.285 0-2.031-1.023-2.031-2.535 0-2.984 2.555-3.527 4.973-3.527v.758m3.375 8.531c-.219.207-.539.223-.789.086-1.109-.965-1.309-1.414-1.922-2.336-1.836 1.961-3.133 2.547-5.516 2.547-2.816 0-5.01-1.816-5.01-5.453 0-2.84 1.473-4.777 3.566-5.723 1.813-.836 4.352-.984 6.293-1.215v-.453c0-.832.063-1.816-.402-2.535-.41-.645-1.191-.91-1.879-.91-1.277 0-2.414.684-2.691 2.102-.059.316-.277.625-.582.641l-3.246-.363c-.273-.066-.574-.297-.5-.734.75-4.109 4.305-5.352 7.484-5.352 1.629 0 3.758.453 5.04 1.742 1.629 1.59 1.473 3.711 1.473 6.02v5.453c0 1.641.648 2.359 1.262 3.246.215.313.262.695-.008.93-.684.602-1.898 1.703-2.566 2.324l-.012-.012" fill="#fff"/><path d="m35.092 30.998c-.91.013-1.985.223-2.797.809-.254.18-.211.429.07.394.914-.114 2.958-.364 3.321.113.367.476-.407 2.446-.747 3.325-.105.266.118.375.352.172 1.531-1.308 1.922-4.051 1.609-4.446-.154-.197-.899-.38-1.808-.367zm-23.903.527c-.189.026-.273.261-.074.446 3.394 3.143 7.88 5.029 12.86 5.029 3.554 0 7.677-1.149 10.525-3.297l.002-.004c.473-.36.07-.89-.414-.683-3.188 1.391-6.661 2.058-9.813 2.058-4.676 0-9.207-1.312-12.867-3.496-.08-.048-.155-.061-.219-.053z" fill="#f90"/></g></svg>