<svg height="48" width="48" xmlns="http://www.w3.org/2000/svg"><text opacity=".8" x="877.22626" y="10.812601"><tspan x="877.22626" y="10.812601"/></text><text opacity=".8" x="901.18719" y="-29.929106"><tspan x="901.18719" y="-29.929106"/></text><text opacity=".8" x="-569.37115" y="-60.007248"><tspan x="-569.37115" y="-60.007248"/></text><text opacity=".8" x="-2393.0571" y="685.5462"><tspan x="-2393.0571" y="685.5462"/></text><text opacity=".8" x="-454.88007" y="-445.32822"><tspan x="-454.88007" y="-445.32822"/></text><text opacity=".8" x="352.72208" y="-858.79834"><tspan x="352.72208" y="-858.79834"/></text><text opacity=".8" x="376.68301" y="-899.54004"><tspan x="376.68301" y="-899.54004"/></text><text opacity=".8" x="-1114.7802" y="-906.74994"><tspan x="-1114.7802" y="-906.74994"/></text><text opacity=".8" x="345.7626" y="-1179.9841"><tspan x="345.7626" y="-1179.9841"/></text><text opacity=".8" x="1831.8861" y="-553.29272"><tspan x="1831.8861" y="-553.29272"/></text><text opacity=".8" x="1855.8469" y="-594.03448"><tspan x="1855.8469" y="-594.03448"/></text><text opacity=".8" x="364.38376" y="-601.24438"><tspan x="364.38376" y="-601.24438"/></text><text opacity=".8" x="1824.9266" y="-874.47839"><tspan x="1824.9266" y="-874.47839"/></text><text opacity=".8" x="-573.43256" y="-649.33569"><tspan x="-573.43256" y="-649.33569"/></text><text opacity=".8" x="-2397.1182" y="96.217857"><tspan x="-2397.1182" y="96.217857"/></text><text opacity=".8" x="-682.36279" y="189.09"><tspan x="-682.36279" y="189.09"/></text><text opacity=".8" x="426.66153" y="9.9078522"><tspan x="426.66153" y="9.9078522"/></text><text opacity=".8" x="450.62247" y="-30.833855"><tspan x="450.62247" y="-30.833855"/></text><text opacity=".8" x="-1040.8407" y="-38.043827"><tspan x="-1040.8407" y="-38.043827"/></text><text opacity=".8" x="419.70206" y="-311.27789"><tspan x="419.70206" y="-311.27789"/></text><text opacity=".8" x="-608.03253" y="-40.758072"><tspan x="-608.03253" y="-40.758072"/></text><text opacity=".8" x="-2431.7185" y="704.79541"><tspan x="-2431.7185" y="704.79541"/></text><text opacity=".8" x="-456.93948" y="-902.28857"><tspan x="-456.93948" y="-902.28857"/></text><text opacity=".8" x="350.66266" y="-1315.7588"><tspan x="350.66266" y="-1315.7588"/></text><text opacity=".8" x="374.62357" y="-1356.5005"><tspan x="374.62357" y="-1356.5005"/></text><text opacity=".8" x="-1116.8396" y="-1363.7104"><tspan x="-1116.8396" y="-1363.7104"/></text><text opacity=".8" x="343.70316" y="-1636.9446"><tspan x="343.70316" y="-1636.9446"/></text><text opacity=".8" x="1829.8265" y="-1010.2533"><tspan x="1829.8265" y="-1010.2533"/></text><text opacity=".8" x="1853.7874" y="-1050.9949"><tspan x="1853.7874" y="-1050.9949"/></text><text opacity=".8" x="362.32431" y="-1058.2048"><tspan x="362.32431" y="-1058.2048"/></text><text opacity=".8" x="1822.8671" y="-1331.439"><tspan x="1822.8671" y="-1331.439"/></text><text opacity=".8" x="-575.492" y="-1106.2961"><tspan x="-575.492" y="-1106.2961"/></text><text opacity=".8" x="-2399.1777" y="-360.74261"><tspan x="-2399.1777" y="-360.74261"/></text><text opacity=".8" x="-684.42224" y="-267.87045"><tspan x="-684.42224" y="-267.87045"/></text><text opacity=".8" x="155.5923" y="-26.956278"><tspan x="155.5923" y="-26.956278"/></text><text opacity=".8" x="179.55324" y="-67.697998"><tspan x="179.55324" y="-67.697998"/></text><text opacity=".8" x="-1090.2634" y="-261.72662"><tspan x="-1090.2634" y="-261.72662"/></text><text opacity=".8" x="-282.66141" y="-675.19678"><tspan x="-282.66141" y="-675.19678"/></text><text opacity=".8" x="-258.70047" y="-715.93848"><tspan x="-258.70047" y="-715.93848"/></text><text opacity=".8" x="-1750.1636" y="-723.14838"><tspan x="-1750.1636" y="-723.14838"/></text><text opacity=".8" x="-289.62085" y="-996.38251"><tspan x="-289.62085" y="-996.38251"/></text><text opacity=".8" x="1196.5026" y="-369.69113"><tspan x="1196.5026" y="-369.69113"/></text><text opacity=".8" x="1220.4634" y="-410.43286"><tspan x="1220.4634" y="-410.43286"/></text><text opacity=".8" x="-270.99973" y="-417.64282"><tspan x="-270.99973" y="-417.64282"/></text><text opacity=".8" x="1189.5431" y="-690.87689"><tspan x="1189.5431" y="-690.87689"/></text><text opacity=".8" x="-1208.816" y="-465.7341"><tspan x="-1208.816" y="-465.7341"/></text><text opacity=".8" x="-3032.5017" y="279.81946"><tspan x="-3032.5017" y="279.81946"/></text><text opacity=".8" transform="matrix(.90475 0 0 .90475 -716.75 -676.29)" x="-664.2738" y="1159.4154"><tspan x="-664.2738" y="1159.4154"/></text><text opacity=".8" x="877.22626" y="18.050589"><tspan x="877.22626" y="18.050589"/></text><text opacity=".8" x="901.18719" y="-22.691116"><tspan x="901.18719" y="-22.691116"/></text><text opacity=".8" x="-569.37115" y="-52.76926"><tspan x="-569.37115" y="-52.76926"/></text><text opacity=".8" x="-2393.0571" y="692.78418"><tspan x="-2393.0571" y="692.78418"/></text><text opacity=".8" x="-454.88007" y="-438.09021"><tspan x="-454.88007" y="-438.09021"/></text><text opacity=".8" x="352.72208" y="-851.5603"><tspan x="352.72208" y="-851.5603"/></text><text opacity=".8" x="376.68301" y="-892.30206"><tspan x="376.68301" y="-892.30206"/></text><text opacity=".8" x="-1114.7802" y="-899.51196"><tspan x="-1114.7802" y="-899.51196"/></text><text opacity=".8" x="345.7626" y="-1172.7461"><tspan x="345.7626" y="-1172.7461"/></text><text opacity=".8" x="1831.8861" y="-546.05475"><tspan x="1831.8861" y="-546.05475"/></text><text opacity=".8" x="1855.8469" y="-586.79651"><tspan x="1855.8469" y="-586.79651"/></text><text opacity=".8" x="364.38376" y="-594.00641"><tspan x="364.38376" y="-594.00641"/></text><text opacity=".8" x="1824.9266" y="-867.24036"><tspan x="1824.9266" y="-867.24036"/></text><text opacity=".8" x="-573.43256" y="-642.09772"><tspan x="-573.43256" y="-642.09772"/></text><text opacity=".8" x="-2397.1182" y="103.45585"><tspan x="-2397.1182" y="103.45585"/></text><text opacity=".8" x="-682.36279" y="196.32799"><tspan x="-682.36279" y="196.32799"/></text><text opacity=".8" x="426.66153" y="17.14584"><tspan x="426.66153" y="17.14584"/></text><text opacity=".8" x="450.62247" y="-23.595865"><tspan x="450.62247" y="-23.595865"/></text><text opacity=".8" x="-1040.8407" y="-30.805836"><tspan x="-1040.8407" y="-30.805836"/></text><text opacity=".8" x="419.70206" y="-304.03989"><tspan x="419.70206" y="-304.03989"/></text><text opacity=".8" x="-608.03253" y="-33.520081"><tspan x="-608.03253" y="-33.520081"/></text><text opacity=".8" x="-2431.7185" y="712.03345"><tspan x="-2431.7185" y="712.03345"/></text><text opacity=".8" x="-456.93948" y="-895.0506"><tspan x="-456.93948" y="-895.0506"/></text><text opacity=".8" x="350.66266" y="-1308.5208"><tspan x="350.66266" y="-1308.5208"/></text><text opacity=".8" x="374.62357" y="-1349.2626"><tspan x="374.62357" y="-1349.2626"/></text><text opacity=".8" x="-1116.8396" y="-1356.4724"><tspan x="-1116.8396" y="-1356.4724"/></text><text opacity=".8" x="343.70316" y="-1629.7065"><tspan x="343.70316" y="-1629.7065"/></text><text opacity=".8" x="1829.8265" y="-1003.0153"><tspan x="1829.8265" y="-1003.0153"/></text><text opacity=".8" x="1853.7874" y="-1043.757"><tspan x="1853.7874" y="-1043.757"/></text><text opacity=".8" x="362.32431" y="-1050.9668"><tspan x="362.32431" y="-1050.9668"/></text><text opacity=".8" x="1822.8671" y="-1324.2009"><tspan x="1822.8671" y="-1324.2009"/></text><text opacity=".8" x="-575.492" y="-1099.0581"><tspan x="-575.492" y="-1099.0581"/></text><text opacity=".8" x="-2399.1777" y="-353.50461"><tspan x="-2399.1777" y="-353.50461"/></text><text opacity=".8" x="-684.42224" y="-260.63245"><tspan x="-684.42224" y="-260.63245"/></text><text opacity=".8" x="155.5923" y="-19.71829"><tspan x="155.5923" y="-19.71829"/></text><text opacity=".8" x="179.55324" y="-60.460011"><tspan x="179.55324" y="-60.460011"/></text><text opacity=".8" x="-1090.2634" y="-254.4886"><tspan x="-1090.2634" y="-254.4886"/></text><text opacity=".8" x="-282.66141" y="-667.9588"><tspan x="-282.66141" y="-667.9588"/></text><text opacity=".8" x="-258.70047" y="-708.7005"><tspan x="-258.70047" y="-708.7005"/></text><text opacity=".8" x="-1750.1636" y="-715.91046"><tspan x="-1750.1636" y="-715.91046"/></text><text opacity=".8" x="-289.62085" y="-989.14447"><tspan x="-289.62085" y="-989.14447"/></text><text opacity=".8" x="1196.5026" y="-362.45316"><tspan x="1196.5026" y="-362.45316"/></text><text opacity=".8" x="1220.4634" y="-403.19489"><tspan x="1220.4634" y="-403.19489"/></text><text opacity=".8" x="-270.99973" y="-410.40482"><tspan x="-270.99973" y="-410.40482"/></text><text opacity=".8" x="1189.5431" y="-683.63892"><tspan x="1189.5431" y="-683.63892"/></text><text opacity=".8" x="-1208.816" y="-458.49609"><tspan x="-1208.816" y="-458.49609"/></text><text opacity=".8" x="-3032.5017" y="287.05743"><tspan x="-3032.5017" y="287.05743"/></text><text opacity=".8" transform="matrix(.90475 0 0 .90475 -716.75 -669.05)" x="-664.2738" y="1159.4154"><tspan x="-664.2738" y="1159.4154"/></text><text x="435.90427" y="-361.22546"><tspan x="435.90427" y="-361.22546"/><tspan x="435.90427" y="-345.3924"/></text><text opacity=".8" x="901.0882" y="-843.27002"><tspan x="901.0882" y="-843.27002"/></text><text opacity=".8" x="-922.59778" y="-97.716553"><tspan x="-922.59778" y="-97.716553"/></text><text opacity=".8" x="1628.1677" y="-1128.2659"><tspan x="1628.1677" y="-1128.2659"/></text><text opacity=".8" x="1652.1285" y="-1169.0076"><tspan x="1652.1285" y="-1169.0076"/></text><text opacity=".8" x="160.66542" y="-1176.2175"><tspan x="160.66542" y="-1176.2175"/></text><text opacity=".8" x="1621.2083" y="-1449.4517"><tspan x="1621.2083" y="-1449.4517"/></text><text opacity=".8" x="877.22626" y="10.812601"><tspan x="877.22626" y="10.812601"/></text><text opacity=".8" x="901.18719" y="-29.929106"><tspan x="901.18719" y="-29.929106"/></text><text opacity=".8" x="-569.37115" y="-60.007248"><tspan x="-569.37115" y="-60.007248"/></text><text opacity=".8" x="-2393.0571" y="685.5462"><tspan x="-2393.0571" y="685.5462"/></text><text opacity=".8" x="-454.88007" y="-445.32822"><tspan x="-454.88007" y="-445.32822"/></text><text opacity=".8" x="352.72208" y="-858.79834"><tspan x="352.72208" y="-858.79834"/></text><text opacity=".8" x="376.68301" y="-899.54004"><tspan x="376.68301" y="-899.54004"/></text><text opacity=".8" x="-1114.7802" y="-906.74994"><tspan x="-1114.7802" y="-906.74994"/></text><text opacity=".8" x="345.7626" y="-1179.9841"><tspan x="345.7626" y="-1179.9841"/></text><text opacity=".8" x="1831.8861" y="-553.29272"><tspan x="1831.8861" y="-553.29272"/></text><text opacity=".8" x="1855.8469" y="-594.03448"><tspan x="1855.8469" y="-594.03448"/></text><text opacity=".8" x="364.38376" y="-601.24438"><tspan x="364.38376" y="-601.24438"/></text><text opacity=".8" x="1824.9266" y="-874.47839"><tspan x="1824.9266" y="-874.47839"/></text><text opacity=".8" x="-573.43256" y="-649.33569"><tspan x="-573.43256" y="-649.33569"/></text><text opacity=".8" x="-2397.1182" y="96.217857"><tspan x="-2397.1182" y="96.217857"/></text><text opacity=".8" x="-682.36279" y="189.09"><tspan x="-682.36279" y="189.09"/></text><text opacity=".8" x="426.66153" y="9.9078522"><tspan x="426.66153" y="9.9078522"/></text><text opacity=".8" x="450.62247" y="-30.833855"><tspan x="450.62247" y="-30.833855"/></text><text opacity=".8" x="-1040.8407" y="-38.043827"><tspan x="-1040.8407" y="-38.043827"/></text><text opacity=".8" x="419.70206" y="-311.27789"><tspan x="419.70206" y="-311.27789"/></text><text opacity=".8" x="-608.03253" y="-40.758072"><tspan x="-608.03253" y="-40.758072"/></text><text opacity=".8" x="-2431.7185" y="704.79541"><tspan x="-2431.7185" y="704.79541"/></text><text opacity=".8" x="-456.93948" y="-902.28857"><tspan x="-456.93948" y="-902.28857"/></text><text opacity=".8" x="350.66266" y="-1315.7588"><tspan x="350.66266" y="-1315.7588"/></text><text opacity=".8" x="374.62357" y="-1356.5005"><tspan x="374.62357" y="-1356.5005"/></text><text opacity=".8" x="-1116.8396" y="-1363.7104"><tspan x="-1116.8396" y="-1363.7104"/></text><text opacity=".8" x="343.70316" y="-1636.9446"><tspan x="343.70316" y="-1636.9446"/></text><text opacity=".8" x="1829.8265" y="-1010.2533"><tspan x="1829.8265" y="-1010.2533"/></text><text opacity=".8" x="1853.7874" y="-1050.9949"><tspan x="1853.7874" y="-1050.9949"/></text><text opacity=".8" x="362.32431" y="-1058.2048"><tspan x="362.32431" y="-1058.2048"/></text><text opacity=".8" x="1822.8671" y="-1331.439"><tspan x="1822.8671" y="-1331.439"/></text><text opacity=".8" x="-575.492" y="-1106.2961"><tspan x="-575.492" y="-1106.2961"/></text><text opacity=".8" x="-2399.1777" y="-360.74261"><tspan x="-2399.1777" y="-360.74261"/></text><text opacity=".8" x="-684.42224" y="-267.87045"><tspan x="-684.42224" y="-267.87045"/></text><text opacity=".8" x="155.5923" y="-26.956278"><tspan x="155.5923" y="-26.956278"/></text><text opacity=".8" x="179.55324" y="-67.697998"><tspan x="179.55324" y="-67.697998"/></text><text opacity=".8" x="-1090.2634" y="-261.72662"><tspan x="-1090.2634" y="-261.72662"/></text><text opacity=".8" x="-282.66141" y="-675.19678"><tspan x="-282.66141" y="-675.19678"/></text><text opacity=".8" x="-258.70047" y="-715.93848"><tspan x="-258.70047" y="-715.93848"/></text><text opacity=".8" x="-1750.1636" y="-723.14838"><tspan x="-1750.1636" y="-723.14838"/></text><text opacity=".8" x="-289.62085" y="-996.38251"><tspan x="-289.62085" y="-996.38251"/></text><text opacity=".8" x="1196.5026" y="-369.69113"><tspan x="1196.5026" y="-369.69113"/></text><text opacity=".8" x="1220.4634" y="-410.43286"><tspan x="1220.4634" y="-410.43286"/></text><text opacity=".8" x="-270.99973" y="-417.64282"><tspan x="-270.99973" y="-417.64282"/></text><text opacity=".8" x="1189.5431" y="-690.87689"><tspan x="1189.5431" y="-690.87689"/></text><text opacity=".8" x="-1208.816" y="-465.7341"><tspan x="-1208.816" y="-465.7341"/></text><text opacity=".8" x="-3032.5017" y="279.81946"><tspan x="-3032.5017" y="279.81946"/></text><text opacity=".8" x="-1317.7462" y="372.69156"><tspan x="-1317.7462" y="372.69156"/></text><text opacity=".8" x="877.22626" y="18.050589"><tspan x="877.22626" y="18.050589"/></text><text opacity=".8" x="901.18719" y="-22.691116"><tspan x="901.18719" y="-22.691116"/></text><text opacity=".8" x="-569.37115" y="-52.76926"><tspan x="-569.37115" y="-52.76926"/></text><text opacity=".8" x="-2393.0571" y="692.78418"><tspan x="-2393.0571" y="692.78418"/></text><text opacity=".8" x="-454.88007" y="-438.09021"><tspan x="-454.88007" y="-438.09021"/></text><text opacity=".8" x="352.72208" y="-851.5603"><tspan x="352.72208" y="-851.5603"/></text><text opacity=".8" x="376.68301" y="-892.30206"><tspan x="376.68301" y="-892.30206"/></text><text opacity=".8" x="-1114.7802" y="-899.51196"><tspan x="-1114.7802" y="-899.51196"/></text><text opacity=".8" x="345.7626" y="-1172.7461"><tspan x="345.7626" y="-1172.7461"/></text><text opacity=".8" x="1831.8861" y="-546.05475"><tspan x="1831.8861" y="-546.05475"/></text><text opacity=".8" x="1855.8469" y="-586.79651"><tspan x="1855.8469" y="-586.79651"/></text><text opacity=".8" x="364.38376" y="-594.00641"><tspan x="364.38376" y="-594.00641"/></text><text opacity=".8" x="1824.9266" y="-867.24036"><tspan x="1824.9266" y="-867.24036"/></text><text opacity=".8" x="-573.43256" y="-642.09772"><tspan x="-573.43256" y="-642.09772"/></text><text opacity=".8" x="-2397.1182" y="103.45585"><tspan x="-2397.1182" y="103.45585"/></text><text opacity=".8" x="-682.36279" y="196.32799"><tspan x="-682.36279" y="196.32799"/></text><text opacity=".8" x="426.66153" y="17.14584"><tspan x="426.66153" y="17.14584"/></text><text opacity=".8" x="450.62247" y="-23.595865"><tspan x="450.62247" y="-23.595865"/></text><text opacity=".8" x="-1040.8407" y="-30.805836"><tspan x="-1040.8407" y="-30.805836"/></text><text opacity=".8" x="419.70206" y="-304.03989"><tspan x="419.70206" y="-304.03989"/></text><text opacity=".8" x="-608.03253" y="-33.520081"><tspan x="-608.03253" y="-33.520081"/></text><text opacity=".8" x="-2431.7185" y="712.03345"><tspan x="-2431.7185" y="712.03345"/></text><text opacity=".8" x="-456.93948" y="-895.0506"><tspan x="-456.93948" y="-895.0506"/></text><text opacity=".8" x="350.66266" y="-1308.5208"><tspan x="350.66266" y="-1308.5208"/></text><text opacity=".8" x="374.62357" y="-1349.2626"><tspan x="374.62357" y="-1349.2626"/></text><text opacity=".8" x="-1116.8396" y="-1356.4724"><tspan x="-1116.8396" y="-1356.4724"/></text><text opacity=".8" x="343.70316" y="-1629.7065"><tspan x="343.70316" y="-1629.7065"/></text><text opacity=".8" x="1829.8265" y="-1003.0153"><tspan x="1829.8265" y="-1003.0153"/></text><text opacity=".8" x="1853.7874" y="-1043.757"><tspan x="1853.7874" y="-1043.757"/></text><text opacity=".8" x="362.32431" y="-1050.9668"><tspan x="362.32431" y="-1050.9668"/></text><text opacity=".8" x="1822.8671" y="-1324.2009"><tspan x="1822.8671" y="-1324.2009"/></text><text opacity=".8" x="-575.492" y="-1099.0581"><tspan x="-575.492" y="-1099.0581"/></text><text opacity=".8" x="-2399.1777" y="-353.50461"><tspan x="-2399.1777" y="-353.50461"/></text><text opacity=".8" x="-684.42224" y="-260.63245"><tspan x="-684.42224" y="-260.63245"/></text><text opacity=".8" x="155.5923" y="-19.71829"><tspan x="155.5923" y="-19.71829"/></text><text opacity=".8" x="179.55324" y="-60.460011"><tspan x="179.55324" y="-60.460011"/></text><text opacity=".8" x="-1090.2634" y="-254.4886"><tspan x="-1090.2634" y="-254.4886"/></text><text opacity=".8" x="-282.66141" y="-667.9588"><tspan x="-282.66141" y="-667.9588"/></text><text opacity=".8" x="-258.70047" y="-708.7005"><tspan x="-258.70047" y="-708.7005"/></text><text opacity=".8" x="-1750.1636" y="-715.91046"><tspan x="-1750.1636" y="-715.91046"/></text><text opacity=".8" x="-289.62085" y="-989.14447"><tspan x="-289.62085" y="-989.14447"/></text><text opacity=".8" x="1196.5026" y="-362.45316"><tspan x="1196.5026" y="-362.45316"/></text><text opacity=".8" x="1220.4634" y="-403.19489"><tspan x="1220.4634" y="-403.19489"/></text><text opacity=".8" x="-270.99973" y="-410.40482"><tspan x="-270.99973" y="-410.40482"/></text><text opacity=".8" x="1189.5431" y="-683.63892"><tspan x="1189.5431" y="-683.63892"/></text><text opacity=".8" x="-1208.816" y="-458.49609"><tspan x="-1208.816" y="-458.49609"/></text><text opacity=".8" x="-3032.5017" y="287.05743"><tspan x="-3032.5017" y="287.05743"/></text><text opacity=".8" x="-1317.7462" y="379.92953"><tspan x="-1317.7462" y="379.92953"/></text><text x="435.90427" y="-361.22546"><tspan x="435.90427" y="-361.22546"/><tspan x="435.90427" y="-345.3924"/></text><text opacity=".8" x="901.0882" y="-843.27002"><tspan x="901.0882" y="-843.27002"/></text><text opacity=".8" x="-922.59778" y="-97.716553"><tspan x="-922.59778" y="-97.716553"/></text><text opacity=".8" x="1628.1677" y="-1128.2659"><tspan x="1628.1677" y="-1128.2659"/></text><text opacity=".8" x="1652.1285" y="-1169.0076"><tspan x="1652.1285" y="-1169.0076"/></text><text opacity=".8" x="160.66542" y="-1176.2175"><tspan x="160.66542" y="-1176.2175"/></text><text opacity=".8" x="1621.2083" y="-1449.4517"><tspan x="1621.2083" y="-1449.4517"/></text><path d="m27.738 20.47c-6.118-6.068-7.858-11.817-10.421-14.783-6.762-7.8247-22.952 13.147-5.441 30.512 17.512 17.365 38.638 1.317 30.212-5.687-3.007-2.5-8.55-4.291-14.35-10.042z" fill="#f59335"/><path d="m14.279 5.033a21 21 0 0 0 -6.279 14.967 21 21 0 0 0  21 21 21 21 0 0 0  14.949-6.277c-.145-1.165-.729-2.27-1.861-3.211-3.008-2.5-8.55-4.292-14.35-10.043-6.118-6.068-7.858-11.815-10.422-14.782-.883-1.0216-1.928-1.5422-3.037-1.6538z" opacity=".2"/><path d="m14.279 4.0332a21 21 0 0 0 -6.279 14.967 21 21 0 0 0  21 21 21 21 0 0 0  14.949-6.277c-.145-1.165-.729-2.27-1.861-3.211-3.008-2.5-8.55-4.292-14.35-10.043-6.118-6.068-7.858-11.815-10.422-14.782-.883-1.0216-1.928-1.5422-3.037-1.6538z" fill="#f7a95d"/><path d="m13.621 4.0038c-4.4992.1992-9.7133 6.8172-9.6073 15.291.3856-10.492 8.8703-17.737 13.302-12.608 2.5633 2.9661 4.3032 8.7139 10.422 14.781 5.7997 5.7511 11.342 7.5429 14.35 10.043 1.1591.96351 1.7422 2.0997 1.8691 3.2949.16252-1.557-.39028-3.0656-1.8691-4.2949-3.008-2.499-8.55-4.291-14.35-10.042-6.118-6.068-7.858-11.816-10.422-14.782-1.056-1.2222-2.343-1.743-3.695-1.6832z" fill="#fff" opacity=".2"/><path d="m4.0137 18.295c-.2027 5.513 1.8313 11.923 7.8633 17.904 15.103 14.976 32.876 5.101 32.08-2.392-.763 7.313-17.642 15.709-32.08 1.392-5.6724-5.625-7.7973-11.624-7.8633-16.904z" opacity=".3"/></svg>