<svg viewBox="0 0 48 48" xmlns="http://www.w3.org/2000/svg"><path d="m6 11h36c1.069 0 2 .93096 2 2v22c0 1.069-.93096 2-2 2h-36c-1.069 0-2-.931-2-2v-22c0-1.069.93096-2 2-2z" fill="#ccc"/><path d="m36.859264 16.000025c3.428336.00079 3.128736 3.556334 3.128736 3.556334v3.110904c0 1.144377-1.488 3.332775-1.488 3.332775v2l3.4995 1.712763v2.287174h-11.99993v-2.287174l3.50043-1.712763v-2c0 0-1.492309-2.186029-1.484002-3.332775v-3.110904c0 0-.299995-3.555544 3.128341-3.556334" opacity=".2"/><path d="m8 27l-3-3 3-3z" fill="#289b36"/><path d="m4 34v1c0 1.108.892 2 2 2h36c1.108 0 2-.892 2-2v-1c0 1.108-.892 2-2 2h-36c-1.108 0-2-.892-2-2z" opacity=".3"/><path d="m6 11c-1.108 0-2 .892-2 2v1c0-1.108.892-2 2-2h36c1.108 0 2 .892 2 2v-1c0-1.108-.892-2-2-2z" fill="#fff" opacity=".2"/><path d="m10.25 20h7.5c.634487 0 1.25.656547 1.25 1.333333v5.333334c0 .676786-.615513 1.333333-1.25 1.333333h-7.5c-.6344875 0-1.25-.656547-1.25-1.333333v-5.333334c0-.676786.6155125-1.333333 1.25-1.333333z" fill="#ecb64e"/><path d="m42 12c1.108 0 2 .892 2 2v10h-40v-10c0-1.108.892-2 2-2z" opacity=".1"/><circle cx="-.70108646" cy="30.399622" fill="#484848" r="8.0000362" transform="matrix(.70710678 -.70710678 .70710678 .70710678 0 0)"/><rect fill="#484848" height="11.000051" rx="2.0000091" transform="matrix(.70710678 -.70710678 .70710678 .70710678 0 0)" width="4.0000181" x="-2.7010956" y="36.399651"/><path d="m20.999856 17.999522c-2.782 0-5 2.2212-5 5 0 2.7787 2.218 5 5 5 2.782 0 5-2.2212 5-5 0-2.7788-2.218-5-5-5z" opacity=".2" stroke-width="1.55499995"/><path d="m20.999856 16.999522c-2.782 0-5 2.2212-5 5 0 2.7787 2.218 5 5 5 2.782 0 5-2.2212 5-5 0-2.7788-2.218-5-5-5z" fill="#5d99ff" stroke-width="1.55499995"/></svg>