<?xml version="1.0" encoding="UTF-8" standalone="no"?>
<svg id="svg4432" xmlns:rdf="http://www.w3.org/1999/02/22-rdf-syntax-ns#" xmlns="http://www.w3.org/2000/svg" viewBox="0 0 48 48.000001" width="48" version="1.1" xmlns:cc="http://creativecommons.org/ns#" height="48" xmlns:dc="http://purl.org/dc/elements/1.1/">
 <metadata id="metadata4437">
  <rdf:RDF>
   <cc:Work rdf:about="">
    <dc:format>image/svg+xml</dc:format>
    <dc:type rdf:resource="http://purl.org/dc/dcmitype/StillImage"/>
    <dc:title/>
   </cc:Work>
  </rdf:RDF>
 </metadata>
 <g id="layer1" transform="translate(0 -1004.4)">
  <rect id="rect4203" transform="matrix(0,-1,-1,0,0,0)" rx="3" ry="3" height="40" width="40" y="-44" x="-1048.4" fill="#3b5999"/>
  <path id="path4368" opacity=".2" style="color:#000000;text-indent:0;block-progression:tb;text-decoration-line:none;text-transform:none" d="m32.781 1018.4c-2.9668 0.1094-6.7812 1-6.7812 8v4h-4v6h4v12h6v-12h5l1-6h-6v-4c0-2 2-2 2-2h4v-6h-4c-0.375 0-0.79492-0.016-1.2188 0z"/>
  <path id="rect4428" opacity=".1" d="m7 1008.4c-1.662 0-3 1.338-3 3v1c0-1.662 1.338-3 3-3h34c1.662 0 3 1.338 3 3v-1c0-1.662-1.338-3-3-3h-34z" fill="#fff"/>
  <path id="path3271" style="color:#000000;text-indent:0;block-progression:tb;text-decoration-line:none;text-transform:none" d="m32.781 1017.4c-2.9668 0.1094-6.7812 1-6.7812 8v4h-4v6h4v13h6v-13h5l1-6h-6v-4c0-2 2-2 2-2h4v-6h-4c-0.375 0-0.79492-0.016-1.2188 0z" fill="#fff"/>
  <path id="rect4388" opacity=".2" d="m4 1045.4v1c0 1.662 1.338 3 3 3h34c1.662 0 3-1.338 3-3v-1c0 1.662-1.338 3-3 3h-34c-1.662 0-3-1.338-3-3z"/>
 </g>
</svg>
