<?xml version="1.0" encoding="UTF-8" standalone="no"?>
<!-- Created with Inkscape (http://www.inkscape.org/) -->
<svg id="svg4354" xmlns:rdf="http://www.w3.org/1999/02/22-rdf-syntax-ns#" xmlns="http://www.w3.org/2000/svg" height="48" viewBox="0 0 48 48.000001" width="48" version="1.1" xmlns:cc="http://creativecommons.org/ns#" xmlns:dc="http://purl.org/dc/elements/1.1/">
 <metadata id="metadata4359">
  <rdf:RDF>
   <cc:Work rdf:about="">
    <dc:format>image/svg+xml</dc:format>
    <dc:type rdf:resource="http://purl.org/dc/dcmitype/StillImage"/>
    <dc:title/>
   </cc:Work>
  </rdf:RDF>
 </metadata>
 <rect id="rect4203-1" ry="2" rx="2" transform="matrix(0,-1,-1,0,0,0)" height="40" width="40" y="-44" x="-44" fill="#7b5ab7"/>
 <path id="path4190" opacity=".2" d="m12 10-1 5v22h5v3h4l3-3h4l10-10v-17h-25zm3 2h20v13.918l-4 4.082h-7l-4 4v-4h-5v-18zm6 5v8h3v-8h-3zm7 0v8h3v-8h-3z" fill-rule="evenodd"/>
 <path id="path2997" d="m12 9-1 5v22h5v3h4l3-3h4l10-10v-17h-25zm3 2h20v13.918l-4 4.082h-7l-4 4v-4h-5v-18zm6 5v8h3v-8h-3zm7 0v8h3v-8h-3z" fill-rule="evenodd" fill="#fff"/>
 <path id="rect4592" opacity=".2" fill="#fff" d="m6 4c-1.108 0-2 0.892-2 2v1c0-1.108 0.892-2 2-2h36c1.108 0 2 0.892 2 2v-1c0-1.108-0.892-2-2-2h-36z"/>
 <path id="path4597" opacity=".3" d="m6 44c-1.108 0-2-0.892-2-2v-1c0 1.108 0.892 2 2 2h36c1.108 0 2-0.892 2-2v1c0 1.108-0.892 2-2 2h-36z"/>
</svg>
