<svg height="48" width="48" xmlns="http://www.w3.org/2000/svg"><g transform="translate(0 1)"><rect fill="#37a0f2" height="40" rx="20" transform="matrix(0 -1 -1 0 0 0)" width="40" x="-43" y="-44"/><path d="m22 14c-.554 0-1 .32812-1 .73633v11.264h-4l7 9 7-9h-4v-11.264c0-.408-.446-.736-1-.736h-4zm2 21h-8.0996c-.498 0-.9.446-.9 1s .40179 1 .90039 1h16.199c.499 0 .901-.446.901-1s-.402-1-.9-1h-8.1z" opacity=".2"/><path d="m24 3c-11.08 0-20 8.92-20 20 0 .168-.004.333 0 .5.2644-10.846 9.088-19.5 20-19.5s19.736 8.654 20 19.5c.004-.167 0-.332 0-.5 0-11.08-8.92-20-20-20z" fill="#fff" opacity=".2"/><path d="m22 13c-.554 0-1 .32812-1 .73633v11.264h-4l7 9 7-9h-4v-11.264c0-.408-.446-.736-1-.736h-4zm2 21h-8.0996c-.498 0-.9.446-.9 1s .40179 1 .90039 1h16.199c.499 0 .901-.446.901-1s-.402-1-.9-1h-8.1z" fill="#fff"/><path d="m4.0117 22.5c-.0041.167-.0117.332-.0117.5 0 11.08 8.92 20 20 20s20-8.92 20-20c0-.168-.008-.333-.012-.5-.264 10.846-9.076 19.5-19.988 19.5s-19.724-8.654-19.988-19.5z" opacity=".3"/></g></svg>