<svg height="48" viewBox="0 0 48 48.000001" width="48" xmlns="http://www.w3.org/2000/svg"><g transform="translate(0 -1004.3622)"><circle cx="24" cy="1028.3622" fill="#00b88a" r="20"/><path d="m24 1014.3622a15 15 0 0 0 -15 15 15 15 0 0 0  15 15 15 15 0 0 0  15-15 15 15 0 0 0 -15-15zm-3 3h3 3l-1.5 5-1.5 5-1.5-5zm-3.363281 1.3926l2.474609 4.5976 2.47461 4.5957-4.595704-2.4746-4.597656-2.4746 2.123047-2.1211zm12.726562 0l2.121094 2.123 2.123047 2.1211-4.597656 2.4746-4.595704 2.4746 2.47461-4.5957zm-18.363281 7.6074l5 1.5 5 1.5-5 1.5-5 1.5v-3zm24 0v3 3l-5-1.5-5-1.5 5-1.5zm-13.414062 4.4141l-2.47461 4.5957-2.474609 4.5976-2.121094-2.123-2.123047-2.1211 4.597656-2.4746zm2.828124 0l4.595704 2.4746 4.597656 2.4746-2.123047 2.1211-2.121094 2.123-2.474609-4.5976zm-1.414062.5859l1.5 5 1.5 5h-3-3l1.5-5z" opacity=".2"/><path d="m24 1013.3622a15 15 0 0 0 -15 15 15 15 0 0 0  15 15 15 15 0 0 0  15-15 15 15 0 0 0 -15-15zm-3 3h3 3l-1.5 5-1.5 5-1.5-5zm-3.363281 1.3926l2.474609 4.5976 2.47461 4.5957-4.595704-2.4746-4.597656-2.4746 2.123047-2.1211zm12.726562 0l2.121094 2.123 2.123047 2.1211-4.597656 2.4746-4.595704 2.4746 2.47461-4.5957zm-18.363281 7.6074l5 1.5 5 1.5-5 1.5-5 1.5v-3zm24 0v3 3l-5-1.5-5-1.5 5-1.5zm-13.414062 4.4141l-2.47461 4.5957-2.474609 4.5976-2.121094-2.123-2.123047-2.1211 4.597656-2.4746zm2.828124 0l4.595704 2.4746 4.597656 2.4746-2.123047 2.1211-2.121094 2.123-2.474609-4.5976zm-1.414062.5859l1.5 5 1.5 5h-3-3l1.5-5z" fill="#fff763"/><path d="m24 1008.3622a20 20 0 0 0 -20 20 20 20 0 0 0  .021484.582 20 20 0 0 1  19.978516-19.582 20 20 0 0 1  19.978516 19.418 20 20 0 0 0  .02148-.418 20 20 0 0 0 -20-20z" fill="#fff" opacity=".2"/><path d="m43.978516 1027.7802a20 20 0 0 1 -19.978516 19.582 20 20 0 0 1 -19.9785156-19.418 20 20 0 0 0 -.0214844.418 20 20 0 0 0  20 20 20 20 0 0 0  20-20 20 20 0 0 0 -.02148-.582z" opacity=".3"/></g></svg>