/* XPM */
static char * links_32x32_xpm[] = {
"48 48 133 2",
"  	c None",
". 	c #878787",
"+ 	c #898989",
"@ 	c #8B8B8B",
"# 	c #8C8C8C",
"$ 	c #8D8D8D",
"% 	c #868686",
"& 	c #888888",
"* 	c #808080",
"= 	c #7A7A7A",
"- 	c #757575",
"; 	c #737373",
"> 	c #717171",
", 	c #767676",
"' 	c #8A8A8A",
") 	c #7E7E7E",
"! 	c #747474",
"~ 	c #7C7C7C",
"{ 	c #7D7D7D",
"] 	c #838383",
"^ 	c #727272",
"/ 	c #848484",
"( 	c #797979",
"_ 	c #757171",
": 	c #8C625F",
"< 	c #6E6E6E",
"[ 	c #836F6D",
"} 	c #BE5851",
"| 	c #544D4C",
"1 	c #575757",
"2 	c #986E6B",
"3 	c #E2554C",
"4 	c #674B49",
"5 	c #4D4D4D",
"6 	c #5C5C5C",
"7 	c #828282",
"8 	c #727171",
"9 	c #B36C67",
"0 	c #F3554A",
"a 	c #824945",
"b 	c #636363",
"c 	c #7B706F",
"d 	c #D16A63",
"e 	c #F4554A",
"f 	c #A54841",
"g 	c #505050",
"h 	c #696969",
"i 	c #7B7B7B",
"j 	c #8C6F6D",
"k 	c #E56960",
"l 	c #F45549",
"m 	c #C9453B",
"n 	c #4F4D4D",
"o 	c #A56D69",
"p 	c #F2685E",
"q 	c #E04338",
"r 	c #5B4C4B",
"s 	c #4E4E4E",
"t 	c #C36C65",
"u 	c #F5685D",
"v 	c #F04336",
"w 	c #734A47",
"x 	c #DD6961",
"y 	c #F34235",
"z 	c #914843",
"A 	c #515151",
"B 	c #ED695F",
"C 	c #B8463D",
"D 	c #F5685E",
"E 	c #D6443A",
"F 	c #585858",
"G 	c #EB4336",
"H 	c #545454",
"I 	c #CB8D88",
"J 	c #F24235",
"K 	c #804945",
"L 	c #D1D1D1",
"M 	c #F5F5F5",
"N 	c #D4928D",
"O 	c #6F6F6F",
"P 	c #B7B7B7",
"Q 	c #F3F3F3",
"R 	c #C97771",
"S 	c #C8453B",
"T 	c #4C4C4C",
"U 	c #999999",
"V 	c #F4F4F4",
"W 	c #F2F2F2",
"X 	c #BE716B",
"Y 	c #4A4A4A",
"Z 	c #6B6B6B",
"` 	c #EDEDED",
" .	c #C9C9C9",
"..	c #5D5D5D",
"+.	c #494949",
"@.	c #676767",
"#.	c #DBDBDB",
"$.	c #F1F1F1",
"%.	c #ABABAB",
"&.	c #474747",
"*.	c #5F5F5F",
"=.	c #C4C4C4",
"-.	c #EAEAEA",
";.	c #6D6D6D",
">.	c #A9A9A9",
",.	c #D7D7D7",
"'.	c #686868",
").	c #626262",
"!.	c #424242",
"~.	c #707070",
"{.	c #E5E5E5",
"].	c #EFEFEF",
"^.	c #9A9A9A",
"/.	c #3D3D3D",
"(.	c #E0E0E0",
"_.	c #444444",
":.	c #555555",
"<.	c #4B4B4B",
"[.	c #3B3B3B",
"}.	c #5B5B5B",
"|.	c #3F3F3F",
"1.	c #E2E2E2",
"2.	c #434343",
"3.	c #C0C0C0",
"4.	c #464646",
"5.	c #393939",
"6.	c #525252",
"7.	c #373737",
"8.	c #383838",
"9.	c #3E3E3E",
"0.	c #363636",
"a.	c #414141",
"b.	c #454545",
"                                                                                                ",
"                                                                                                ",
"                                                                                                ",
"                                                                                                ",
"                                      . + @ # $ $ # @ + %                                       ",
"                                & @ . * = - ; > > ; , = * . @ .                                 ",
"                            & ' ) ! > > > > > > > > > > > > ! ) ' &                             ",
"                          ' ~ > > > > > > > > > > > > > > > > > > { +                           ",
"                      + ] ^ > > > > > > > > > > > > > > > > > > > > ; / &                       ",
"                    + ~ > > > > > > > > > > > > > > > > > > > > > > > > { +                     ",
"                  . ( > > > > > > > > > > > > > > > > > > > > > > > > > _ : <                   ",
"                . ( > > > > > > > > > > > > > > > > > > > > > > > > > [ } | 1 <                 ",
"                ~ > > > > > > > > > > > > > > > > > > > > > > > > > 2 3 4 5 5 6                 ",
"              7 > > > > > > > > > > > > > > > > > > > > > > > > 8 9 0 a 5 5 5 5 b               ",
"            / ; > > > > > > > > > > > > > > > > > > > > > > > c d e f 5 5 5 5 5 g h             ",
"            i > > > > > > > > > > > > > > > > > > > > > > > j k l m n 5 5 5 5 5 5 6             ",
"          / > > > > > > > > > > > > > > > > > > > > > > > o p e q r 5 5 5 5 5 5 5 s h           ",
"          ~ > > > > > > > > > > > > > > > > > > > > > _ t u l v w 5 5 5 5 5 5 5 5 5 6           ",
"          ; > > > > > > > > > > > > > > > > > > > > [ x u e y z 5 5 5 5 5 5 5 5 5 5 A           ",
"        { > > > > > > > > > > > > > > > > > > > > 2 B u l y C 5 5 5 5 5 5 5 5 5 5 5 5           ",
"        , > > > > > > > > > > > > > > > > > > 8 9 D u e y E | 5 5 5 5 5 5 5 5 5 5 5 5 F         ",
"        - > > > > > > > > > > > > > > > > > c d u u l y G 4 5 5 5 5 5 5 5 5 5 5 5 5 5 H         ",
"        ! > > > > > > > > > > > > > > > > ~ I u u e y J K 5 5 5 5 5 5 5 5 5 5 5 5 5 5 g         ",
"        ^ > > > > > > > > > > > > > > > > L M N l y y f 5 5 5 5 5 5 5 5 5 5 5 5 5 5 5 s         ",
"        O > > > > > > > > > > > > > > > P M M Q R y S n 5 5 5 5 5 5 5 5 5 5 5 5 5 5 5 T         ",
"        < > > > > > > > > > > > > > > U V M Q W W X r 5 5 5 5 5 5 5 5 5 5 5 5 5 5 5 5 Y         ",
"        Z > > > > > > > > > > > > > ] ` M Q W W  ...5 5 5 5 5 5 5 5 5 5 5 5 5 5 5 5 5 +.        ",
"        @.> > > > > > > > > > > > - #.M Q W $.%.g 5 5 5 5 5 5 5 5 5 5 5 5 5 5 5 5 5 5 &.        ",
"        *.> > > > > > > > > > > > =.M Q W -.] 5 5 5 5 5 5 5 5 5 5 5 5 5 5 5 5 5 5 5 5           ",
"          ;.> > > > > > > > > > >.M Q W ,.'.5 5 5 5 5 5 5 5 5 5 5 5 5 5 5 5 5 5 5 5 Y           ",
"          ).> > > > > > > > > $ $.Q W P H 5 5 5 5 5 5 5 5 5 5 5 5 5 5 5 5 5 5 5 5 5 !.          ",
"          F ~.> > > > > > > ~ {.Q ].^.5 5 5 5 5 5 5 5 5 5 5 5 5 5 5 5 5 5 5 5 5 5 T /.          ",
"            ).> > > > > > > L Q (.^ 5 5 5 5 5 5 5 5 5 5 5 5 5 5 5 5 5 5 5 5 5 5 5 _.            ",
"            :.< > > > > > P Q  ...5 5 5 5 5 5 5 5 5 5 5 5 5 5 5 5 5 5 5 5 5 5 5 <.[.            ",
"              }.> > > > U W %.g 5 5 5 5 5 5 5 5 5 5 5 5 5 5 5 5 5 5 5 5 5 5 5 5 |.              ",
"                b > > ] 1.] 5 5 5 5 5 5 5 5 5 5 5 5 5 5 5 5 5 5 5 5 5 5 5 5 5 2.                ",
"                H @.- 3.'.5 5 5 5 5 5 5 5 5 5 5 5 5 5 5 5 5 5 5 5 5 5 5 5 5 4.5.                ",
"                  6.i H 5 5 5 5 5 5 5 5 5 5 5 5 5 5 5 5 5 5 5 5 5 5 5 5 5 4.7.                  ",
"                    8._.5 5 5 5 5 5 5 5 5 5 5 5 5 5 5 5 5 5 5 5 5 5 5 5 _.7.                    ",
"                      8.9.<.5 5 5 5 5 5 5 5 5 5 5 5 5 5 5 5 5 5 5 5 <.9.5.                      ",
"                          8._.T 5 5 5 5 5 5 5 5 5 5 5 5 5 5 5 5 T 2.8.                          ",
"                            8.5.!.<.5 5 5 5 5 5 5 5 5 5 5 5 <.!.5.5.                            ",
"                                8.0.[.a.b.+.<.T T <.+.b.a.[.0.5.                                ",
"                                      8.7.7.7.0.0.0.7.8.8.                                      ",
"                                                                                                ",
"                                                                                                ",
"                                                                                                ",
"                                                                                                "};
