<?xml version="1.0" encoding="UTF-8" standalone="no"?>
<svg id="svg2" xmlns:rdf="http://www.w3.org/1999/02/22-rdf-syntax-ns#" xmlns="http://www.w3.org/2000/svg" version="1.1" xmlns:cc="http://creativecommons.org/ns#" xmlns:dc="http://purl.org/dc/elements/1.1/" viewBox="0 0 48 48">
 <metadata id="metadata98">
  <rdf:RDF>
   <cc:Work rdf:about="">
    <dc:format>image/svg+xml</dc:format>
    <dc:type rdf:resource="http://purl.org/dc/dcmitype/StillImage"/>
    <dc:title/>
   </cc:Work>
  </rdf:RDF>
 </metadata>
 <defs id="defs4">
  <clipPath id="clipPath-429196716">
   <g id="g17" transform="translate(0 -1004.4)">
    <path id="path19" fill="#1890d0" d="m-24 13c0 1.105-0.672 2-1.5 2s-1.5-0.895-1.5-2 0.672-2 1.5-2 1.5 0.895 1.5 2z" transform="matrix(15.333 0 0 11.5 415 878.86)"/>
   </g>
  </clipPath>
 </defs>
 <g id="g72" transform="matrix(1.3846 0 0 1.3796 -9.2336 -9.791)">
  <g id="g74" clip-path="url(#clipPath-429196716)"><!-- color: #eeeeee -->
   <g id="g76">
    <path id="path78" d="m36.961 4.002c-5.634 0.0652-14.326 1.6316-17.043 4.8691h-0.0059c-2.168 3.1519-2.444 15.487-1.881 14.727 4.614-6.262 15.673-13.996 22.278-17.104 3.566-1.6856 1.034-2.5428-3.348-2.492zm-5.44 10.215c-3.8131 0.27454-10.52 6.7677-9.5781 6.7305 7.7994-0.26902 12.671 0.17695 18.756 2.0684 0.90275 0.28006-0.97269-8.1628-9.1777-8.7988zm-4.125 6.7598c-0.20115 0.01048-0.28447 0.06324-0.2168 0.16016 4.457 6.4026 6.722 10.739 8.4375 16.877 0.25476 0.91052 6.3274-5.2485 2.4062-12.484-2.011-2.675-9.218-4.627-10.627-4.553zm2.3203 5.1309c-0.04407-0.01149-0.07531 0.0094-0.08984 0.06641-1.9744 7.5504-3.797 12.095-7.3457 17.387-0.5303 0.78084 8.0969 1.4005 11.049-6.2852l0.002 0.0039c0.776-3.502-2.954-11-3.615-11.173zm-2.166 4.8242c-0.01803-0.0045-0.03993-0.000913-0.06641 0.01172-7.042 3.3676-11.687 4.9102-18.027 5.6055-0.93598 0.10761 4.1525 7.0983 11.93 4.3984l0.0078-0.002c3.2795-1.7227 6.7151-9.8734 6.1562-10.014z" transform="matrix(.72224 0 0 .72486 6.6681 7.0974)" fill="#37a0f2"/>
    <path id="path82" d="m15.916 11.049c-1.4234 0.24182-7.136 4.1804-5.8203 11.258l0.002 0.0039c1.2489 3.6159 9.2496 8.4226 8.9727 7.5176-2.2721-7.4635-3.0932-12.292-2.8398-18.656 0.0047-0.11795-0.11111-0.15759-0.31445-0.12305zm-9.1738 11.146c-0.73348-0.09648-2.4524 7.9161 4.4004 11.988 3.5432 1.4444 12.428-1.4017 11.566-1.7949-7.1126-3.2061-11.281-5.7725-15.9-10.158-0.021288-0.02039-0.042746-0.03204-0.066406-0.03516z" transform="matrix(.72224 0 0 .72486 6.6681 7.0974)" fill="#4d4d4d"/>
   </g>
  </g>
 </g>
 <g id="g4715" transform="matrix(1.3846 0 0 1.3796 -9.2336 -9.791)">
  <g id="g4717" clip-path="url(#clipPath-429196716)"><!-- color: #eeeeee -->
   <g id="g4719">
    <path id="path4721" opacity=".3" d="m41.682 4.6465c-0.27 0.2538-0.716 0.5371-1.373 0.8476-6.605 3.1082-17.664 10.842-22.278 17.104-0.132 0.178-0.212-0.407-0.238-1.377-0.013 1.56 0.067 2.607 0.238 2.377 4.614-6.262 15.673-13.996 22.278-17.104 1.718-0.812 2.01-1.4289 1.373-1.8475zm-25.469 6.4535c-0.014 0.608-0.021 1.212-0.014 1.798 0.005-0.568 0.008-1.135 0.031-1.726 0.002-0.029-0.004-0.053-0.017-0.072zm-6.2911 8.572c-0.0453 0.824 0 1.7 0.1741 2.635l0.002 0.004c0.509 1.474 2.143 3.13 3.879 4.533 1.523 0.958 3.186 1.866 5.037 2.789-0.077-0.252-0.14-0.483-0.213-0.729-1.386-0.382-7.613-4.438-8.703-7.593l-0.002-0.004c-0.1058-0.568-0.1532-1.108-0.1741-1.635zm14.816 0.209c-0.707 0.008-1.458 0.03-2.217 0.053-0.564 0.615-0.815 1.023-0.578 1.013 2.111-0.073 3.996-0.087 5.76-0.041-0.178-0.259-0.338-0.503-0.523-0.769-0.068-0.097 0.015-0.15 0.216-0.16 0.711-0.037 2.901 0.443 5.153 1.271 2.731 0.327 5.311 0.885 8.15 1.768 0.212 0.065 0.264-0.359 0.125-1.037-0.032 0.036-0.074 0.052-0.125 0.037-5.325-1.655-9.72-2.204-15.961-2.135zm2.658 1.096c-0.201 0.01-0.284 0.063-0.216 0.16 1.033 1.484 1.937 2.849 2.756 4.16 0.241 0.278 0.603 0.894 1.002 1.67 2.124 3.644 3.534 6.948 4.679 11.047 0.199 0.711 3.928-2.897 3.692-7.955-0.249 4.522-3.506 7.618-3.692 6.955-1.635-5.849-3.792-10.083-7.846-16.006-0.124-0.01-0.29-0.036-0.375-0.031zm-21.38 3.755c-0.1193 2.678 0.7646 6.859 5.1274 9.452 1.096 0.447 2.704 0.481 4.377 0.306 2.24-0.549 4.442-1.281 6.843-2.261-0.175-0.08-0.334-0.158-0.506-0.237-2.214 0.898-8.008 2.295-10.714 1.192-3.8469-2.286-4.992-5.814-5.1274-8.452zm21.535 6.2c-0.018-0.005-0.04-0.001-0.067 0.011-0.035 0.017-0.066 0.03-0.101 0.047-0.735 2.261-3.394 7.593-5.988 8.955l-0.008 0.002c-5.999 2.082-10.383-1.592-11.653-3.435-0.0942 0.011-0.1816 0.026-0.277 0.037-0.936 0.107 4.152 7.098 11.93 4.398l0.008-0.002c3.279-1.722 6.715-9.873 6.156-10.013zm5.863 4.74c-0.017 0.211-0.04 0.418-0.082 0.607l-0.002-0.004c-2.469 6.428-8.888 7.042-10.619 6.616-0.146 0.224-0.278 0.443-0.43 0.67-0.53 0.78 8.097 1.4 11.049-6.286l0.002 0.004c0.105-0.471 0.122-1.019 0.082-1.607z" transform="matrix(.72222 0 0 .72487 6.6687 7.0972)"/>
   </g>
  </g>
 </g>
 <g id="g4726" fill="#007e00" transform="matrix(1.3846 0 0 1.3796 -9.2336 -10.792)">
  <g id="g4728" fill="#007e00" clip-path="url(#clipPath-429196716)"><!-- color: #eeeeee --></g>
 </g>
 <g id="g4735" transform="matrix(1.3846 0 0 1.3796 -9.2336 -9.791)">
  <g id="g4737" clip-path="url(#clipPath-429196716)"><!-- color: #eeeeee -->
   <g id="g4739">
    <path id="path4741" opacity=".1" d="m36.961 4.002c-5.634 0.0652-14.326 1.6316-17.043 4.8691h-0.006c-1.661 2.4149-2.206 10.172-2.119 13.35 0.03-3.578 0.609-10.155 2.119-12.35l0.006 0.0001c2.717-3.2375 11.409-4.8039 17.043-4.8691 2.273-0.0264 4.038 0.1932 4.723 0.6445 1.19-1.1229-1.15-1.686-4.723-1.6445zm-21.045 7.047c-1.309 0.222-6.2345 3.579-5.9941 9.623 0.2981-5.415 4.7591-8.413 5.9941-8.623 0.158-0.027 0.26-0.008 0.297 0.056 0.007-0.312 0.005-0.613 0.017-0.933 0.005-0.118-0.111-0.158-0.314-0.123zm0.283 2.849c-0.043 5.285 0.745 9.749 2.602 16.01 0.202 0.056 0.305 0.035 0.269-0.08-1.936-6.361-2.809-10.814-2.871-15.93zm15.322 0.319c-3.813 0.274-10.519 6.768-9.578 6.73 0.202-0.007 0.381-0.007 0.578-0.013 1.678-1.829 6.148-5.512 9-5.717 6.287 0.487 8.851 5.545 9.303 7.763 0.546-0.612-1.559-8.163-9.303-8.763zm-3.818 7.689c0.024 0.034 0.045 0.068 0.068 0.102 1.942 0.155 8.362 2.008 10.252 4.521 0.859 1.585 1.22 3.111 1.286 4.53 0.092-1.687-0.221-3.565-1.286-5.53-0.996-1.325-3.269-2.471-5.48-3.283-1.537-0.184-3.129-0.295-4.84-0.34zm-20.961 0.289c-0.3217-0.042-0.832 1.477-0.7266 3.537 0.0679-1.529 0.4599-2.572 0.7266-2.537 0.0237 0.003 0.0451 0.015 0.0664 0.035 4.4254 4.202 8.4664 6.74 15.05 9.764 0.683-0.277 1.053-0.513 0.85-0.605-1.338-0.603-2.543-1.182-3.695-1.756 0.02 0.067 0.036 0.127 0.056 0.195 0.164 0.536-2.567-0.946-5.086-2.98-2.573-1.618-4.8184-3.38-7.1754-5.618-0.0213-0.02-0.0428-0.032-0.0664-0.035zm22.975 3.912c-0.044-0.011-0.076 0.01-0.09 0.067-1.975 7.55-3.797 12.095-7.346 17.387-0.086 0.127 0.091 0.246 0.428 0.33 3.259-5.012 5.028-9.49 6.918-16.717 0.014-0.057 0.046-0.078 0.09-0.067 0.572 0.15 3.438 5.781 3.697 9.565 0.201-2.524-1.3-6.415-2.476-8.705-0.319-0.547-0.647-1.1-1-1.666-0.089-0.103-0.168-0.18-0.221-0.194zm-2.166 4.825c-0.018-0.005-0.04-0.001-0.067 0.011-1.848 0.884-3.527 1.635-5.119 2.286 0.119 0.054 0.223 0.105 0.344 0.16 0.595 0.271-3.458 1.711-7.189 2.101-1.933 0.474-3.898 0.821-6.063 1.059-0.2138 0.024-0.0997 0.417 0.2754 0.963 6.1656-0.707 10.772-2.239 17.651-5.522 0.194-0.597 0.285-1.029 0.168-1.058z" transform="matrix(.72222 0 0 .72487 6.6687 7.0972)" fill="#fff"/>
   </g>
  </g>
 </g>
</svg>
