/* XPM */
static char * veracrypt_xpm[] = {
"48 48 117 2",
"  	c None",
". 	c #717171",
"+ 	c #707070",
"@ 	c #666666",
"# 	c #505050",
"$ 	c #4D4D4D",
"% 	c #515151",
"& 	c #646464",
"* 	c #0C8EB4",
"= 	c #0198C4",
"- 	c #1D7C98",
"; 	c #4C4E4E",
"> 	c #0CAF84",
", 	c #06B788",
"' 	c #179C79",
") 	c #1C748E",
"! 	c #088FB7",
"~ 	c #4D4E4E",
"{ 	c #3D645A",
"] 	c #335F53",
"^ 	c #2F5D6B",
"/ 	c #405960",
"( 	c #288069",
"_ 	c #149976",
": 	c #494949",
"< 	c #454C4D",
"[ 	c #0396C1",
"} 	c #2B6D80",
"| 	c #149D79",
"1 	c #4C4C4C",
"2 	c #1081A3",
"3 	c #167F9E",
"4 	c #485451",
"5 	c #07B687",
"6 	c #236B80",
"7 	c #0493BD",
"8 	c #4B4E4F",
"9 	c #357060",
"0 	c #39565F",
"a 	c #3B5E68",
"b 	c #208C6F",
"c 	c #0DA87F",
"d 	c #3E3E3E",
"e 	c #4A4B4B",
"f 	c #078FB7",
"g 	c #247086",
"h 	c #0DA980",
"i 	c #1C8A6D",
"j 	c #187894",
"k 	c #1184A6",
"l 	c #415F57",
"m 	c #2C6F5D",
"n 	c #2B6272",
"o 	c #0297C2",
"p 	c #495154",
"q 	c #2C7B66",
"r 	c #3F554F",
"s 	c #424F52",
"t 	c #0197C2",
"u 	c #356370",
"v 	c #179876",
"w 	c #4B4B4B",
"x 	c #0D86AA",
"y 	c #20758E",
"z 	c #4A504F",
"A 	c #08B385",
"B 	c #206F86",
"C 	c #0C8AAF",
"D 	c #396B5D",
"E 	c #345A64",
"F 	c #1F8B72",
"G 	c #484B4C",
"H 	c #0493BC",
"I 	c #21B19B",
"J 	c #435953",
"K 	c #157D9B",
"L 	c #079AC4",
"M 	c #38B8B0",
"N 	c #317462",
"O 	c #276678",
"P 	c #1AA3C3",
"Q 	c #49BABF",
"R 	c #08B789",
"S 	c #1F8D70",
"T 	c #3E5257",
"U 	c #2DACC3",
"V 	c #4DBAC2",
"W 	c #17B896",
"X 	c #0A8CB1",
"Y 	c #40B5C2",
"Z 	c #29B9A5",
"` 	c #445A54",
" .	c #1C738D",
"..	c #089BC4",
"+.	c #3CB9B4",
"@.	c #2F5D6A",
"#.	c #1BA4C3",
"$.	c #4CBAC1",
"%.	c #0AB78C",
"&.	c #3C685C",
"*.	c #2DACC2",
"=.	c #1BB799",
"-.	c #169B78",
";.	c #1181A2",
">.	c #41B4C3",
",.	c #2EB9A9",
"'.	c #236A7E",
").	c #41BAB8",
"!.	c #39565E",
"~.	c #1CA4C3",
"{.	c #0DB58C",
"].	c #34ABBE",
"^.	c #1AA98F",
"/.	c #3F3F3F",
"(.	c #424242",
"_.	c #4A4A4A",
":.	c #363636",
"                                                                                                ",
"                                                                                                ",
"                                                                                                ",
"                                                                                                ",
"          . . . . . . . . . . . . . . . . . . . . . . . . . . . . . . . . . . . . . +           ",
"        @ # $ $ $ $ $ $ $ $ $ $ $ $ $ $ $ $ $ $ $ $ $ $ $ $ $ $ $ $ $ $ $ $ $ $ $ $ % &         ",
"        % $ $ $ $ $ $ $ $ $ $ $ $ $ $ $ $ $ $ $ $ $ $ $ $ $ $ $ $ $ $ $ $ $ $ $ $ $ $ %         ",
"        $ $ $ $ $ $ $ $ $ $ $ $ $ $ $ $ $ $ $ $ $ $ $ $ $ $ $ $ $ $ $ $ $ $ $ $ $ $ $ $         ",
"        $ $ $ $ $ $ $ $ $ $ $ $ $ $ $ $ $ $ $ $ $ $ $ $ $ $ $ $ $ $ $ $ $ $ $ $ $ $ $ $         ",
"        $ $ $ $ $ $ $ $ $ $ $ $ $ $ $ $ $ $ $ $ $ $ $ $ $ $ $ $ $ $ $ $ $ $ $ $ $ $ $ $         ",
"        $ $ $ $ $ $ $ $ $ $ $ $ $ $ $ $ $ $ $ $ $ $ $ $ $ $ $ $ $ $ $ $ $ $ $ $ $ $ $ $         ",
"        $ $ $ $ $ $ $ $ $ $ $ $ $ $ $ $ $ $ $ $ $ $ $ $ $ $ $ $ $ $ $ $ $ $ $ $ $ $ $ $         ",
"        $ $ $ $ $ $ * = = = = = - $ $ $ $ $ $ ; > , , , , , , , , , , , , ' $ $ $ $ $ $         ",
"        $ $ $ $ $ $ ) = = = = = ! ~ $ $ $ $ $ { , , , , , , , , , , , , , ] $ $ $ $ $ $         ",
"        $ $ $ $ $ $ ^ = = = = = = / $ $ $ $ $ ( , , , , , , , , , , , , _ : $ $ $ $ $ $         ",
"        $ $ $ $ $ $ < [ = = = = = } $ $ $ $ $ | , , , , , , , , , , , , ] $ $ $ $ $ $ $         ",
"        $ $ $ $ $ $ 1 2 = = = = = 3 $ $ $ $ 4 5 , , , , , , , , , , , _ : $ $ $ $ $ $ $         ",
"        $ $ $ $ $ $ $ 6 = = = = = 7 8 $ $ $ 9 , , , , , , , , , , , , ] $ $ $ $ $ $ $ $         ",
"        $ $ $ $ $ $ $ 0 = = = = = = a $ $ $ b , , , , , c d d d d d d : $ $ $ $ $ $ $ $         ",
"        $ $ $ $ $ $ $ e f = = = = = g $ $ $ h , , , , , i $ $ $ $ $ $ $ $ $ $ $ $ $ $ $         ",
"        $ $ $ $ $ $ $ $ j = = = = = k $ $ l , , , , , , m $ $ $ $ $ $ $ $ $ $ $ $ $ $ $         ",
"        $ $ $ $ $ $ $ $ n = = = = = o p $ q , , , , , , r $ $ $ $ $ $ $ $ $ $ $ $ $ $ $         ",
"        $ $ $ $ $ $ $ $ s t = = = = = u $ v , , , , , c w $ $ $ $ $ $ $ $ $ $ $ $ $ $ $         ",
"        $ $ $ $ $ $ $ $ 1 x = = = = = y z A , , , , , i $ $ $ $ $ $ $ $ $ $ $ $ $ $ $ $         ",
"        $ $ $ $ $ $ $ $ $ B = = = = = C D , , , , , , m $ $ $ $ $ $ $ $ $ $ $ $ $ $ $ $         ",
"        $ $ $ $ $ $ $ $ $ E = = = = = = F , , , , , , r $ $ $ $ $ $ $ $ $ $ $ $ $ $ $ $         ",
"        $ $ $ $ $ $ $ $ $ G H = = = = = I , , , , , , J $ $ $ $ $ $ $ $ $ $ $ $ $ $ $ $         ",
"        $ $ $ $ $ $ $ $ $ $ K = = = = L M , , , , , , N $ $ $ $ $ $ $ $ $ $ $ $ $ $ $ $         ",
"        $ $ $ $ $ $ $ $ $ $ O = = = = P Q R , , , , , S $ $ $ $ $ $ $ $ $ $ $ $ $ $ $ $         ",
"        $ $ $ $ $ $ $ $ $ $ T = = = = U V W , , , , , c $ $ $ $ $ $ $ $ $ $ $ $ $ $ $ $         ",
"        $ $ $ $ $ $ $ $ $ $ w X = = = Y V Z , , , , , , ` $ $ $ $ $ $ $ $ $ $ $ $ $ $ $         ",
"        $ $ $ $ $ $ $ $ $ $ $  .= = ..V V +., , , , , , N $ $ $ $ $ $ $ $ $ $ $ $ $ $ $         ",
"        $ $ $ $ $ $ $ $ $ $ $ @.= = #.V V $.%., , , , , , , , , , , , &.$ $ $ $ $ $ $ $         ",
"        $ $ $ $ $ $ $ $ $ $ $ < [ = *.V V V =., , , , , , , , , , , , -.$ $ $ $ $ $ $ $         ",
"        $ $ $ $ $ $ $ $ $ $ $ 1 ;.= >.V V V ,., , , , , , , , , , , , , &.$ $ $ $ $ $ $         ",
"        $ $ $ $ $ $ $ $ $ $ $ $ '...V V V V )., , , , , , , , , , , , , -.$ $ $ $ $ $ $         ",
"        $ $ $ $ $ $ $ $ $ $ $ $ !.~.V V V V V {., , , , , , , , , , , , , &.$ $ $ $ $ $         ",
"        $ $ $ $ $ $ $ $ $ $ $ $ e ].V V V V V ^., , , , , , , , , , , , , -.$ $ $ $ $ $         ",
"        $ $ $ $ $ $ $ $ $ $ $ $ $ /.d d d d d d d d d d d d d d d d d d d (.$ $ $ $ $ $         ",
"        $ $ $ $ $ $ $ $ $ $ $ $ $ $ $ $ $ $ $ $ $ $ $ $ $ $ $ $ $ $ $ $ $ $ $ $ $ $ $ $         ",
"        $ $ $ $ $ $ $ $ $ $ $ $ $ $ $ $ $ $ $ $ $ $ $ $ $ $ $ $ $ $ $ $ $ $ $ $ $ $ $ $         ",
"        w $ $ $ $ $ $ $ $ $ $ $ $ $ $ $ $ $ $ $ $ $ $ $ $ $ $ $ $ $ $ $ $ $ $ $ $ $ $ _.        ",
"        /.w $ $ $ $ $ $ $ $ $ $ $ $ $ $ $ $ $ $ $ $ $ $ $ $ $ $ $ $ $ $ $ $ $ $ $ $ _.d         ",
"          :.:.:.:.:.:.:.:.:.:.:.:.:.:.:.:.:.:.:.:.:.:.:.:.:.:.:.:.:.:.:.:.:.:.:.:.:.:.          ",
"                                                                                                ",
"                                                                                                ",
"                                                                                                ",
"                                                                                                "};
