<?xml version="1.0" encoding="UTF-8" standalone="no"?>
<!-- Created with Inkscape (http://www.inkscape.org/) -->
<svg id="svg2817" xmlns:rdf="http://www.w3.org/1999/02/22-rdf-syntax-ns#" xmlns="http://www.w3.org/2000/svg" height="48" width="48" version="1.0" xmlns:cc="http://creativecommons.org/ns#" xmlns:xlink="http://www.w3.org/1999/xlink" xmlns:dc="http://purl.org/dc/elements/1.1/">
 <metadata id="metadata57">
  <rdf:RDF>
   <cc:Work rdf:about="">
    <dc:format>image/svg+xml</dc:format>
    <dc:type rdf:resource="http://purl.org/dc/dcmitype/StillImage"/>
    <dc:title/>
   </cc:Work>
  </rdf:RDF>
 </metadata>
 <text id="text4087-2-6-5" opacity=".8" font-size="12.666px" xml:space="preserve" y="10.812601" x="877.22626" font-family="&apos;Bitstream Vera Sans&apos;" fill="#000000"><tspan id="tspan4089-7-2-9" y="10.812601" x="877.22626"/></text>
 <text id="text4087-2-6-5-5" opacity=".8" font-size="12.666px" xml:space="preserve" y="-29.929106" x="901.18719" font-family="&apos;Bitstream Vera Sans&apos;" fill="#000000"><tspan id="tspan4089-7-2-9-6" y="-29.929106" x="901.18719"/></text>
 <text id="text4087-2-6-5-2" opacity=".8" font-size="12.666px" xml:space="preserve" y="-60.007248" x="-569.37115" font-family="&apos;Bitstream Vera Sans&apos;" fill="#000000"><tspan id="tspan4089-7-2-9-2" y="-60.007248" x="-569.37115"/></text>
 <text id="text4087-2-6-5-59" opacity=".8" font-size="12.666px" xml:space="preserve" y="685.5462" x="-2393.0571" font-family="&apos;Bitstream Vera Sans&apos;" fill="#000000"><tspan id="tspan4089-7-2-9-4" y="685.5462" x="-2393.0571"/></text>
 <text id="text4087-2-6-5-1" opacity=".8" font-size="12.666px" xml:space="preserve" y="-445.32822" x="-454.88007" font-family="&apos;Bitstream Vera Sans&apos;" fill="#000000"><tspan id="tspan4089-7-2-9-7" y="-445.32822" x="-454.88007"/></text>
 <text id="text4087-2-6-5-7" opacity=".8" font-size="12.666px" xml:space="preserve" y="-858.79834" x="352.72208" font-family="&apos;Bitstream Vera Sans&apos;" fill="#000000"><tspan id="tspan4089-7-2-9-1" y="-858.79834" x="352.72208"/></text>
 <text id="text4087-2-6-5-5-3" opacity=".8" font-size="12.666px" xml:space="preserve" y="-899.54004" x="376.68301" font-family="&apos;Bitstream Vera Sans&apos;" fill="#000000"><tspan id="tspan4089-7-2-9-6-5" y="-899.54004" x="376.68301"/></text>
 <text id="text4087-2-6-5-3" opacity=".8" font-size="12.666px" xml:space="preserve" y="-906.74994" x="-1114.7802" font-family="&apos;Bitstream Vera Sans&apos;" fill="#000000"><tspan id="tspan4089-7-2-9-18" y="-906.74994" x="-1114.7802"/></text>
 <text id="text4087-2-6-5-4" opacity=".8" font-size="12.666px" xml:space="preserve" y="-1179.9841" x="345.7626" font-family="&apos;Bitstream Vera Sans&apos;" fill="#000000"><tspan id="tspan4089-7-2-9-9" y="-1179.9841" x="345.7626"/></text>
 <text id="text4087-2-6-5-7-1" opacity=".8" font-size="12.666px" xml:space="preserve" y="-553.29272" x="1831.8861" font-family="&apos;Bitstream Vera Sans&apos;" fill="#000000"><tspan id="tspan4089-7-2-9-1-8" y="-553.29272" x="1831.8861"/></text>
 <text id="text4087-2-6-5-5-5" opacity=".8" font-size="12.666px" xml:space="preserve" y="-594.03448" x="1855.8469" font-family="&apos;Bitstream Vera Sans&apos;" fill="#000000"><tspan id="tspan4089-7-2-9-6-9" y="-594.03448" x="1855.8469"/></text>
 <text id="text4087-2-6-5-75" opacity=".8" font-size="12.666px" xml:space="preserve" y="-601.24438" x="364.38376" font-family="&apos;Bitstream Vera Sans&apos;" fill="#000000"><tspan id="tspan4089-7-2-9-3" y="-601.24438" x="364.38376"/></text>
 <text id="text4087-2-6-5-4-8" opacity=".8" font-size="12.666px" xml:space="preserve" y="-874.47839" x="1824.9266" font-family="&apos;Bitstream Vera Sans&apos;" fill="#000000"><tspan id="tspan4089-7-2-9-9-8" y="-874.47839" x="1824.9266"/></text>
 <text id="text4087-2-6-5-45" opacity=".8" font-size="12.666px" xml:space="preserve" y="-649.33569" x="-573.43256" font-family="&apos;Bitstream Vera Sans&apos;" fill="#000000"><tspan id="tspan4089-7-2-9-75" y="-649.33569" x="-573.43256"/></text>
 <text id="text4087-2-6-5-59-7" opacity=".8" font-size="12.666px" xml:space="preserve" y="96.217857" x="-2397.1182" font-family="&apos;Bitstream Vera Sans&apos;" fill="#000000"><tspan id="tspan4089-7-2-9-4-0" y="96.217857" x="-2397.1182"/></text>
 <text id="text4087-2-6-5-8" opacity=".8" font-size="12.666px" xml:space="preserve" y="189.09" x="-682.36279" font-family="&apos;Bitstream Vera Sans&apos;" fill="#000000"><tspan id="tspan4089-7-2-9-19" y="189.09" x="-682.36279"/></text>
 <text id="text4087-2-6-5-7-5" opacity=".8" font-size="12.666px" xml:space="preserve" y="9.9078522" x="426.66153" font-family="&apos;Bitstream Vera Sans&apos;" fill="#000000"><tspan id="tspan4089-7-2-9-1-2" y="9.9078522" x="426.66153"/></text>
 <text id="text4087-2-6-5-5-0" opacity=".8" font-size="12.666px" xml:space="preserve" y="-30.833855" x="450.62247" font-family="&apos;Bitstream Vera Sans&apos;" fill="#000000"><tspan id="tspan4089-7-2-9-6-2" y="-30.833855" x="450.62247"/></text>
 <text id="text4087-2-6-5-26" opacity=".8" font-size="12.666px" xml:space="preserve" y="-38.043827" x="-1040.8407" font-family="&apos;Bitstream Vera Sans&apos;" fill="#000000"><tspan id="tspan4089-7-2-9-90" y="-38.043827" x="-1040.8407"/></text>
 <text id="text4087-2-6-5-4-3" opacity=".8" font-size="12.666px" xml:space="preserve" y="-311.27789" x="419.70206" font-family="&apos;Bitstream Vera Sans&apos;" fill="#000000"><tspan id="tspan4089-7-2-9-9-5" y="-311.27789" x="419.70206"/></text>
 <text id="text4087-2-6-5-55" opacity=".8" font-size="12.666px" xml:space="preserve" y="-40.758072" x="-608.03253" font-family="&apos;Bitstream Vera Sans&apos;" fill="#000000"><tspan id="tspan4089-7-2-9-32" y="-40.758072" x="-608.03253"/></text>
 <text id="text4087-2-6-5-59-9" opacity=".8" font-size="12.666px" xml:space="preserve" y="704.79541" x="-2431.7185" font-family="&apos;Bitstream Vera Sans&apos;" fill="#000000"><tspan id="tspan4089-7-2-9-4-1" y="704.79541" x="-2431.7185"/></text>
 <text id="text4087-2-6-5-1-8" opacity=".8" font-size="12.666px" xml:space="preserve" y="-902.28857" x="-456.93948" font-family="&apos;Bitstream Vera Sans&apos;" fill="#000000"><tspan id="tspan4089-7-2-9-7-8" y="-902.28857" x="-456.93948"/></text>
 <text id="text4087-2-6-5-7-8" opacity=".8" font-size="12.666px" xml:space="preserve" y="-1315.7588" x="350.66266" font-family="&apos;Bitstream Vera Sans&apos;" fill="#000000"><tspan id="tspan4089-7-2-9-1-9" y="-1315.7588" x="350.66266"/></text>
 <text id="text4087-2-6-5-5-52" opacity=".8" font-size="12.666px" xml:space="preserve" y="-1356.5005" x="374.62357" font-family="&apos;Bitstream Vera Sans&apos;" fill="#000000"><tspan id="tspan4089-7-2-9-6-4" y="-1356.5005" x="374.62357"/></text>
 <text id="text4087-2-6-5-3-4" opacity=".8" font-size="12.666px" xml:space="preserve" y="-1363.7104" x="-1116.8396" font-family="&apos;Bitstream Vera Sans&apos;" fill="#000000"><tspan id="tspan4089-7-2-9-18-3" y="-1363.7104" x="-1116.8396"/></text>
 <text id="text4087-2-6-5-4-7" opacity=".8" font-size="12.666px" xml:space="preserve" y="-1636.9446" x="343.70316" font-family="&apos;Bitstream Vera Sans&apos;" fill="#000000"><tspan id="tspan4089-7-2-9-9-54" y="-1636.9446" x="343.70316"/></text>
 <text id="text4087-2-6-5-7-1-2" opacity=".8" font-size="12.666px" xml:space="preserve" y="-1010.2533" x="1829.8265" font-family="&apos;Bitstream Vera Sans&apos;" fill="#000000"><tspan id="tspan4089-7-2-9-1-8-0" y="-1010.2533" x="1829.8265"/></text>
 <text id="text4087-2-6-5-5-5-6" opacity=".8" font-size="12.666px" xml:space="preserve" y="-1050.9949" x="1853.7874" font-family="&apos;Bitstream Vera Sans&apos;" fill="#000000"><tspan id="tspan4089-7-2-9-6-9-8" y="-1050.9949" x="1853.7874"/></text>
 <text id="text4087-2-6-5-75-4" opacity=".8" font-size="12.666px" xml:space="preserve" y="-1058.2048" x="362.32431" font-family="&apos;Bitstream Vera Sans&apos;" fill="#000000"><tspan id="tspan4089-7-2-9-3-9" y="-1058.2048" x="362.32431"/></text>
 <text id="text4087-2-6-5-4-8-1" opacity=".8" font-size="12.666px" xml:space="preserve" y="-1331.439" x="1822.8671" font-family="&apos;Bitstream Vera Sans&apos;" fill="#000000"><tspan id="tspan4089-7-2-9-9-8-8" y="-1331.439" x="1822.8671"/></text>
 <text id="text4087-2-6-5-45-0" opacity=".8" font-size="12.666px" xml:space="preserve" y="-1106.2961" x="-575.492" font-family="&apos;Bitstream Vera Sans&apos;" fill="#000000"><tspan id="tspan4089-7-2-9-75-2" y="-1106.2961" x="-575.492"/></text>
 <text id="text4087-2-6-5-59-5" opacity=".8" font-size="12.666px" xml:space="preserve" y="-360.74261" x="-2399.1777" font-family="&apos;Bitstream Vera Sans&apos;" fill="#000000"><tspan id="tspan4089-7-2-9-4-00" y="-360.74261" x="-2399.1777"/></text>
 <text id="text4087-2-6-5-264" opacity=".8" font-size="12.666px" xml:space="preserve" y="-267.87045" x="-684.42224" font-family="&apos;Bitstream Vera Sans&apos;" fill="#000000"><tspan id="tspan4089-7-2-9-8" y="-267.87045" x="-684.42224"/></text>
 <text id="text4087-2-6-5-42" opacity=".8" font-size="12.666px" xml:space="preserve" y="-26.956278" x="155.5923" font-family="&apos;Bitstream Vera Sans&apos;" fill="#000000"><tspan id="tspan4089-7-2-9-93" y="-26.956278" x="155.5923"/></text>
 <text id="text4087-2-6-5-5-05" opacity=".8" font-size="12.666px" xml:space="preserve" y="-67.697998" x="179.55324" font-family="&apos;Bitstream Vera Sans&apos;" fill="#000000"><tspan id="tspan4089-7-2-9-6-49" y="-67.697998" x="179.55324"/></text>
 <text id="text4087-2-6-5-1-4" opacity=".8" font-size="12.666px" xml:space="preserve" y="-261.72662" x="-1090.2634" font-family="&apos;Bitstream Vera Sans&apos;" fill="#000000"><tspan id="tspan4089-7-2-9-7-7" y="-261.72662" x="-1090.2634"/></text>
 <text id="text4087-2-6-5-7-56" opacity=".8" font-size="12.666px" xml:space="preserve" y="-675.19678" x="-282.66141" font-family="&apos;Bitstream Vera Sans&apos;" fill="#000000"><tspan id="tspan4089-7-2-9-1-1" y="-675.19678" x="-282.66141"/></text>
 <text id="text4087-2-6-5-5-8" opacity=".8" font-size="12.666px" xml:space="preserve" y="-715.93848" x="-258.70047" font-family="&apos;Bitstream Vera Sans&apos;" fill="#000000"><tspan id="tspan4089-7-2-9-6-7" y="-715.93848" x="-258.70047"/></text>
 <text id="text4087-2-6-5-3-42" opacity=".8" font-size="12.666px" xml:space="preserve" y="-723.14838" x="-1750.1636" font-family="&apos;Bitstream Vera Sans&apos;" fill="#000000"><tspan id="tspan4089-7-2-9-18-39" y="-723.14838" x="-1750.1636"/></text>
 <text id="text4087-2-6-5-4-4" opacity=".8" font-size="12.666px" xml:space="preserve" y="-996.38251" x="-289.62085" font-family="&apos;Bitstream Vera Sans&apos;" fill="#000000"><tspan id="tspan4089-7-2-9-9-3" y="-996.38251" x="-289.62085"/></text>
 <text id="text4087-2-6-5-7-1-0" opacity=".8" font-size="12.666px" xml:space="preserve" y="-369.69113" x="1196.5026" font-family="&apos;Bitstream Vera Sans&apos;" fill="#000000"><tspan id="tspan4089-7-2-9-1-8-5" y="-369.69113" x="1196.5026"/></text>
 <text id="text4087-2-6-5-5-5-5" opacity=".8" font-size="12.666px" xml:space="preserve" y="-410.43286" x="1220.4634" font-family="&apos;Bitstream Vera Sans&apos;" fill="#000000"><tspan id="tspan4089-7-2-9-6-9-2" y="-410.43286" x="1220.4634"/></text>
 <text id="text4087-2-6-5-75-9" opacity=".8" font-size="12.666px" xml:space="preserve" y="-417.64282" x="-270.99973" font-family="&apos;Bitstream Vera Sans&apos;" fill="#000000"><tspan id="tspan4089-7-2-9-3-1" y="-417.64282" x="-270.99973"/></text>
 <text id="text4087-2-6-5-4-8-18" opacity=".8" font-size="12.666px" xml:space="preserve" y="-690.87689" x="1189.5431" font-family="&apos;Bitstream Vera Sans&apos;" fill="#000000"><tspan id="tspan4089-7-2-9-9-8-4" y="-690.87689" x="1189.5431"/></text>
 <text id="text4087-2-6-5-45-3" opacity=".8" font-size="12.666px" xml:space="preserve" y="-465.7341" x="-1208.816" font-family="&apos;Bitstream Vera Sans&apos;" fill="#000000"><tspan id="tspan4089-7-2-9-75-7" y="-465.7341" x="-1208.816"/></text>
 <text id="text4087-2-6-5-59-8" opacity=".8" font-size="12.666px" xml:space="preserve" y="279.81946" x="-3032.5017" font-family="&apos;Bitstream Vera Sans&apos;" fill="#000000"><tspan id="tspan4089-7-2-9-4-2" y="279.81946" x="-3032.5017"/></text>
 <g id="layer4-0" transform="matrix(.90475 0 0 .90475 -716.75 -676.29)">
  <text id="text4087-2-6-5-20" opacity=".8" font-size="14px" xml:space="preserve" y="1159.4154" x="-664.2738" font-family="&apos;Bitstream Vera Sans&apos;" fill="#000000"><tspan id="tspan4089-7-2-9-82" y="1159.4154" x="-664.2738"/></text>
 </g>
 <text id="text4087-2-6-5-9" opacity=".8" font-size="12.666px" xml:space="preserve" y="18.050589" x="877.22626" font-family="&apos;Bitstream Vera Sans&apos;" fill="#000000"><tspan id="tspan4089-7-2-9-43" y="18.050589" x="877.22626"/></text>
 <text id="text4087-2-6-5-5-51" opacity=".8" font-size="12.666px" xml:space="preserve" y="-22.691116" x="901.18719" font-family="&apos;Bitstream Vera Sans&apos;" fill="#000000"><tspan id="tspan4089-7-2-9-6-74" y="-22.691116" x="901.18719"/></text>
 <text id="text4087-2-6-5-2-3" opacity=".8" font-size="12.666px" xml:space="preserve" y="-52.76926" x="-569.37115" font-family="&apos;Bitstream Vera Sans&apos;" fill="#000000"><tspan id="tspan4089-7-2-9-2-1" y="-52.76926" x="-569.37115"/></text>
 <text id="text4087-2-6-5-59-4" opacity=".8" font-size="12.666px" xml:space="preserve" y="692.78418" x="-2393.0571" font-family="&apos;Bitstream Vera Sans&apos;" fill="#000000"><tspan id="tspan4089-7-2-9-4-6" y="692.78418" x="-2393.0571"/></text>
 <text id="text4087-2-6-5-1-9" opacity=".8" font-size="12.666px" xml:space="preserve" y="-438.09021" x="-454.88007" font-family="&apos;Bitstream Vera Sans&apos;" fill="#000000"><tspan id="tspan4089-7-2-9-7-4" y="-438.09021" x="-454.88007"/></text>
 <text id="text4087-2-6-5-7-2" opacity=".8" font-size="12.666px" xml:space="preserve" y="-851.5603" x="352.72208" font-family="&apos;Bitstream Vera Sans&apos;" fill="#000000"><tspan id="tspan4089-7-2-9-1-26" y="-851.5603" x="352.72208"/></text>
 <text id="text4087-2-6-5-5-3-4" opacity=".8" font-size="12.666px" xml:space="preserve" y="-892.30206" x="376.68301" font-family="&apos;Bitstream Vera Sans&apos;" fill="#000000"><tspan id="tspan4089-7-2-9-6-5-1" y="-892.30206" x="376.68301"/></text>
 <text id="text4087-2-6-5-3-2" opacity=".8" font-size="12.666px" xml:space="preserve" y="-899.51196" x="-1114.7802" font-family="&apos;Bitstream Vera Sans&apos;" fill="#000000"><tspan id="tspan4089-7-2-9-18-8" y="-899.51196" x="-1114.7802"/></text>
 <text id="text4087-2-6-5-4-89" opacity=".8" font-size="12.666px" xml:space="preserve" y="-1172.7461" x="345.7626" font-family="&apos;Bitstream Vera Sans&apos;" fill="#000000"><tspan id="tspan4089-7-2-9-9-2" y="-1172.7461" x="345.7626"/></text>
 <text id="text4087-2-6-5-7-1-8" opacity=".8" font-size="12.666px" xml:space="preserve" y="-546.05475" x="1831.8861" font-family="&apos;Bitstream Vera Sans&apos;" fill="#000000"><tspan id="tspan4089-7-2-9-1-8-8" y="-546.05475" x="1831.8861"/></text>
 <text id="text4087-2-6-5-5-5-8" opacity=".8" font-size="12.666px" xml:space="preserve" y="-586.79651" x="1855.8469" font-family="&apos;Bitstream Vera Sans&apos;" fill="#000000"><tspan id="tspan4089-7-2-9-6-9-6" y="-586.79651" x="1855.8469"/></text>
 <text id="text4087-2-6-5-75-8" opacity=".8" font-size="12.666px" xml:space="preserve" y="-594.00641" x="364.38376" font-family="&apos;Bitstream Vera Sans&apos;" fill="#000000"><tspan id="tspan4089-7-2-9-3-3" y="-594.00641" x="364.38376"/></text>
 <text id="text4087-2-6-5-4-8-8" opacity=".8" font-size="12.666px" xml:space="preserve" y="-867.24036" x="1824.9266" font-family="&apos;Bitstream Vera Sans&apos;" fill="#000000"><tspan id="tspan4089-7-2-9-9-8-3" y="-867.24036" x="1824.9266"/></text>
 <text id="text4087-2-6-5-45-33" opacity=".8" font-size="12.666px" xml:space="preserve" y="-642.09772" x="-573.43256" font-family="&apos;Bitstream Vera Sans&apos;" fill="#000000"><tspan id="tspan4089-7-2-9-75-8" y="-642.09772" x="-573.43256"/></text>
 <text id="text4087-2-6-5-59-7-0" opacity=".8" font-size="12.666px" xml:space="preserve" y="103.45585" x="-2397.1182" font-family="&apos;Bitstream Vera Sans&apos;" fill="#000000"><tspan id="tspan4089-7-2-9-4-0-4" y="103.45585" x="-2397.1182"/></text>
 <text id="text4087-2-6-5-8-7" opacity=".8" font-size="12.666px" xml:space="preserve" y="196.32799" x="-682.36279" font-family="&apos;Bitstream Vera Sans&apos;" fill="#000000"><tspan id="tspan4089-7-2-9-19-6" y="196.32799" x="-682.36279"/></text>
 <text id="text4087-2-6-5-7-5-8" opacity=".8" font-size="12.666px" xml:space="preserve" y="17.14584" x="426.66153" font-family="&apos;Bitstream Vera Sans&apos;" fill="#000000"><tspan id="tspan4089-7-2-9-1-2-9" y="17.14584" x="426.66153"/></text>
 <text id="text4087-2-6-5-5-0-0" opacity=".8" font-size="12.666px" xml:space="preserve" y="-23.595865" x="450.62247" font-family="&apos;Bitstream Vera Sans&apos;" fill="#000000"><tspan id="tspan4089-7-2-9-6-2-6" y="-23.595865" x="450.62247"/></text>
 <text id="text4087-2-6-5-26-8" opacity=".8" font-size="12.666px" xml:space="preserve" y="-30.805836" x="-1040.8407" font-family="&apos;Bitstream Vera Sans&apos;" fill="#000000"><tspan id="tspan4089-7-2-9-90-7" y="-30.805836" x="-1040.8407"/></text>
 <text id="text4087-2-6-5-4-3-9" opacity=".8" font-size="12.666px" xml:space="preserve" y="-304.03989" x="419.70206" font-family="&apos;Bitstream Vera Sans&apos;" fill="#000000"><tspan id="tspan4089-7-2-9-9-5-0" y="-304.03989" x="419.70206"/></text>
 <text id="text4087-2-6-5-55-3" opacity=".8" font-size="12.666px" xml:space="preserve" y="-33.520081" x="-608.03253" font-family="&apos;Bitstream Vera Sans&apos;" fill="#000000"><tspan id="tspan4089-7-2-9-32-3" y="-33.520081" x="-608.03253"/></text>
 <text id="text4087-2-6-5-59-9-3" opacity=".8" font-size="12.666px" xml:space="preserve" y="712.03345" x="-2431.7185" font-family="&apos;Bitstream Vera Sans&apos;" fill="#000000"><tspan id="tspan4089-7-2-9-4-1-7" y="712.03345" x="-2431.7185"/></text>
 <text id="text4087-2-6-5-1-8-3" opacity=".8" font-size="12.666px" xml:space="preserve" y="-895.0506" x="-456.93948" font-family="&apos;Bitstream Vera Sans&apos;" fill="#000000"><tspan id="tspan4089-7-2-9-7-8-2" y="-895.0506" x="-456.93948"/></text>
 <text id="text4087-2-6-5-7-8-6" opacity=".8" font-size="12.666px" xml:space="preserve" y="-1308.5208" x="350.66266" font-family="&apos;Bitstream Vera Sans&apos;" fill="#000000"><tspan id="tspan4089-7-2-9-1-9-5" y="-1308.5208" x="350.66266"/></text>
 <text id="text4087-2-6-5-5-52-2" opacity=".8" font-size="12.666px" xml:space="preserve" y="-1349.2626" x="374.62357" font-family="&apos;Bitstream Vera Sans&apos;" fill="#000000"><tspan id="tspan4089-7-2-9-6-4-6" y="-1349.2626" x="374.62357"/></text>
 <text id="text4087-2-6-5-3-4-5" opacity=".8" font-size="12.666px" xml:space="preserve" y="-1356.4724" x="-1116.8396" font-family="&apos;Bitstream Vera Sans&apos;" fill="#000000"><tspan id="tspan4089-7-2-9-18-3-8" y="-1356.4724" x="-1116.8396"/></text>
 <text id="text4087-2-6-5-4-7-7" opacity=".8" font-size="12.666px" xml:space="preserve" y="-1629.7065" x="343.70316" font-family="&apos;Bitstream Vera Sans&apos;" fill="#000000"><tspan id="tspan4089-7-2-9-9-54-9" y="-1629.7065" x="343.70316"/></text>
 <text id="text4087-2-6-5-7-1-2-6" opacity=".8" font-size="12.666px" xml:space="preserve" y="-1003.0153" x="1829.8265" font-family="&apos;Bitstream Vera Sans&apos;" fill="#000000"><tspan id="tspan4089-7-2-9-1-8-0-0" y="-1003.0153" x="1829.8265"/></text>
 <text id="text4087-2-6-5-5-5-6-4" opacity=".8" font-size="12.666px" xml:space="preserve" y="-1043.757" x="1853.7874" font-family="&apos;Bitstream Vera Sans&apos;" fill="#000000"><tspan id="tspan4089-7-2-9-6-9-8-1" y="-1043.757" x="1853.7874"/></text>
 <text id="text4087-2-6-5-75-4-0" opacity=".8" font-size="12.666px" xml:space="preserve" y="-1050.9668" x="362.32431" font-family="&apos;Bitstream Vera Sans&apos;" fill="#000000"><tspan id="tspan4089-7-2-9-3-9-4" y="-1050.9668" x="362.32431"/></text>
 <text id="text4087-2-6-5-4-8-1-8" opacity=".8" font-size="12.666px" xml:space="preserve" y="-1324.2009" x="1822.8671" font-family="&apos;Bitstream Vera Sans&apos;" fill="#000000"><tspan id="tspan4089-7-2-9-9-8-8-7" y="-1324.2009" x="1822.8671"/></text>
 <text id="text4087-2-6-5-45-0-0" opacity=".8" font-size="12.666px" xml:space="preserve" y="-1099.0581" x="-575.492" font-family="&apos;Bitstream Vera Sans&apos;" fill="#000000"><tspan id="tspan4089-7-2-9-75-2-8" y="-1099.0581" x="-575.492"/></text>
 <text id="text4087-2-6-5-59-5-6" opacity=".8" font-size="12.666px" xml:space="preserve" y="-353.50461" x="-2399.1777" font-family="&apos;Bitstream Vera Sans&apos;" fill="#000000"><tspan id="tspan4089-7-2-9-4-00-2" y="-353.50461" x="-2399.1777"/></text>
 <text id="text4087-2-6-5-264-4" opacity=".8" font-size="12.666px" xml:space="preserve" y="-260.63245" x="-684.42224" font-family="&apos;Bitstream Vera Sans&apos;" fill="#000000"><tspan id="tspan4089-7-2-9-8-7" y="-260.63245" x="-684.42224"/></text>
 <text id="text4087-2-6-5-42-9" opacity=".8" font-size="12.666px" xml:space="preserve" y="-19.71829" x="155.5923" font-family="&apos;Bitstream Vera Sans&apos;" fill="#000000"><tspan id="tspan4089-7-2-9-93-3" y="-19.71829" x="155.5923"/></text>
 <text id="text4087-2-6-5-5-05-9" opacity=".8" font-size="12.666px" xml:space="preserve" y="-60.460011" x="179.55324" font-family="&apos;Bitstream Vera Sans&apos;" fill="#000000"><tspan id="tspan4089-7-2-9-6-49-2" y="-60.460011" x="179.55324"/></text>
 <text id="text4087-2-6-5-1-4-8" opacity=".8" font-size="12.666px" xml:space="preserve" y="-254.4886" x="-1090.2634" font-family="&apos;Bitstream Vera Sans&apos;" fill="#000000"><tspan id="tspan4089-7-2-9-7-7-3" y="-254.4886" x="-1090.2634"/></text>
 <text id="text4087-2-6-5-7-56-0" opacity=".8" font-size="12.666px" xml:space="preserve" y="-667.9588" x="-282.66141" font-family="&apos;Bitstream Vera Sans&apos;" fill="#000000"><tspan id="tspan4089-7-2-9-1-1-1" y="-667.9588" x="-282.66141"/></text>
 <text id="text4087-2-6-5-5-8-7" opacity=".8" font-size="12.666px" xml:space="preserve" y="-708.7005" x="-258.70047" font-family="&apos;Bitstream Vera Sans&apos;" fill="#000000"><tspan id="tspan4089-7-2-9-6-7-8" y="-708.7005" x="-258.70047"/></text>
 <text id="text4087-2-6-5-3-42-9" opacity=".8" font-size="12.666px" xml:space="preserve" y="-715.91046" x="-1750.1636" font-family="&apos;Bitstream Vera Sans&apos;" fill="#000000"><tspan id="tspan4089-7-2-9-18-39-1" y="-715.91046" x="-1750.1636"/></text>
 <text id="text4087-2-6-5-4-4-5" opacity=".8" font-size="12.666px" xml:space="preserve" y="-989.14447" x="-289.62085" font-family="&apos;Bitstream Vera Sans&apos;" fill="#000000"><tspan id="tspan4089-7-2-9-9-3-4" y="-989.14447" x="-289.62085"/></text>
 <text id="text4087-2-6-5-7-1-0-9" opacity=".8" font-size="12.666px" xml:space="preserve" y="-362.45316" x="1196.5026" font-family="&apos;Bitstream Vera Sans&apos;" fill="#000000"><tspan id="tspan4089-7-2-9-1-8-5-2" y="-362.45316" x="1196.5026"/></text>
 <text id="text4087-2-6-5-5-5-5-5" opacity=".8" font-size="12.666px" xml:space="preserve" y="-403.19489" x="1220.4634" font-family="&apos;Bitstream Vera Sans&apos;" fill="#000000"><tspan id="tspan4089-7-2-9-6-9-2-7" y="-403.19489" x="1220.4634"/></text>
 <text id="text4087-2-6-5-75-9-4" opacity=".8" font-size="12.666px" xml:space="preserve" y="-410.40482" x="-270.99973" font-family="&apos;Bitstream Vera Sans&apos;" fill="#000000"><tspan id="tspan4089-7-2-9-3-1-9" y="-410.40482" x="-270.99973"/></text>
 <text id="text4087-2-6-5-4-8-18-9" opacity=".8" font-size="12.666px" xml:space="preserve" y="-683.63892" x="1189.5431" font-family="&apos;Bitstream Vera Sans&apos;" fill="#000000"><tspan id="tspan4089-7-2-9-9-8-4-4" y="-683.63892" x="1189.5431"/></text>
 <text id="text4087-2-6-5-45-3-5" opacity=".8" font-size="12.666px" xml:space="preserve" y="-458.49609" x="-1208.816" font-family="&apos;Bitstream Vera Sans&apos;" fill="#000000"><tspan id="tspan4089-7-2-9-75-7-9" y="-458.49609" x="-1208.816"/></text>
 <text id="text4087-2-6-5-59-8-3" opacity=".8" font-size="12.666px" xml:space="preserve" y="287.05743" x="-3032.5017" font-family="&apos;Bitstream Vera Sans&apos;" fill="#000000"><tspan id="tspan4089-7-2-9-4-2-5" y="287.05743" x="-3032.5017"/></text>
 <g id="layer4-0-7" transform="matrix(.90475 0 0 .90475 -716.75 -669.05)">
  <text id="text4087-2-6-5-20-0" opacity=".8" font-size="14px" xml:space="preserve" y="1159.4154" x="-664.2738" font-family="&apos;Bitstream Vera Sans&apos;" fill="#000000"><tspan id="tspan4089-7-2-9-82-8" y="1159.4154" x="-664.2738"/></text>
 </g>
 <text id="text7276" font-size="12.666px" xml:space="preserve" y="-361.22546" x="435.90427" font-family="&apos;Droid Sans&apos;" fill="#000000"><tspan id="tspan7278" y="-361.22546" x="435.90427"/><tspan id="tspan7280" y="-345.3924" x="435.90427"/></text>
 <text id="text4087-2-6-5-51" opacity=".8" font-size="12.666px" xml:space="preserve" y="-843.27002" x="901.0882" font-family="&apos;Bitstream Vera Sans&apos;" fill="#000000"><tspan id="tspan4089-7-2-9-97" y="-843.27002" x="901.0882"/></text>
 <text id="text4087-2-6-5-59-2" opacity=".8" font-size="12.666px" xml:space="preserve" y="-97.716553" x="-922.59778" font-family="&apos;Bitstream Vera Sans&apos;" fill="#000000"><tspan id="tspan4089-7-2-9-4-4" y="-97.716553" x="-922.59778"/></text>
 <text id="text4087-2-6-5-7-7" opacity=".8" font-size="12.666px" xml:space="preserve" y="-1128.2659" x="1628.1677" font-family="&apos;Bitstream Vera Sans&apos;" fill="#000000"><tspan id="tspan4089-7-2-9-1-6" y="-1128.2659" x="1628.1677"/></text>
 <text id="text4087-2-6-5-5-6" opacity=".8" font-size="12.666px" xml:space="preserve" y="-1169.0076" x="1652.1285" font-family="&apos;Bitstream Vera Sans&apos;" fill="#000000"><tspan id="tspan4089-7-2-9-6-53" y="-1169.0076" x="1652.1285"/></text>
 <text id="text4087-2-6-5-54" opacity=".8" font-size="12.666px" xml:space="preserve" y="-1176.2175" x="160.66542" font-family="&apos;Bitstream Vera Sans&apos;" fill="#000000"><tspan id="tspan4089-7-2-9-0" y="-1176.2175" x="160.66542"/></text>
 <text id="text4087-2-6-5-4-1" opacity=".8" font-size="12.666px" xml:space="preserve" y="-1449.4517" x="1621.2083" font-family="&apos;Bitstream Vera Sans&apos;" fill="#000000"><tspan id="tspan4089-7-2-9-9-28" y="-1449.4517" x="1621.2083"/></text>
 <rect id="rect4203-1" ry="2" rx="2" transform="matrix(0,-1,-1,0,0,0)" height="40" width="40" y="-44" x="-43" fill="#a03540"/>
 <path id="rect4592" opacity=".2" d="m6 3c-1.108 0-2 0.892-2 2v1c0-1.108 0.892-2 2-2h36c1.108 0 2 0.892 2 2v-1c0-1.108-0.892-2-2-2h-36z" fill="#fff"/>
 <path id="path4597" opacity=".3" d="m6 43c-1.108 0-2-0.892-2-2v-1c0 1.108 0.892 2 2 2h36c1.108 0 2-0.892 2-2v1c0 1.108-0.892 2-2 2h-36z"/>
 <g id="g4480" opacity=".2">
  <g id="g4482">
   <path id="path4484" opacity="1" d="m9 8h12c0.554 0 1 0.446 1 1v12c0 0.554-0.446 1-1 1h-12c-0.554 0-1-0.446-1-1v-12c0-0.554 0.446-1 1-1z"/>
   <path id="path4486" opacity="1" d="m27 8h12c0.554 0 1 0.446 1 1v12c0 0.554-0.446 1-1 1h-12c-0.554 0-1-0.446-1-1v-12c0-0.554 0.446-1 1-1z"/>
  </g>
  <g id="g4488" transform="translate(0,18)">
   <path id="path4490" opacity="1" d="m9 8h12c0.554 0 1 0.446 1 1v12c0 0.554-0.446 1-1 1h-12c-0.554 0-1-0.446-1-1v-12c0-0.554 0.446-1 1-1z"/>
   <path id="path4492" opacity="1" d="m27 8h12c0.554 0 1 0.446 1 1v12c0 0.554-0.446 1-1 1h-12c-0.554 0-1-0.446-1-1v-12c0-0.554 0.446-1 1-1z"/>
  </g>
 </g>
 <g id="g4472" fill="#fff" transform="translate(0,-1)">
  <g id="g4462">
   <path id="rect4454" d="m9 8h12c0.554 0 1 0.446 1 1v12c0 0.554-0.446 1-1 1h-12c-0.554 0-1-0.446-1-1v-12c0-0.554 0.446-1 1-1z"/>
   <path id="path4460" d="m27 8h12c0.554 0 1 0.446 1 1v12c0 0.554-0.446 1-1 1h-12c-0.554 0-1-0.446-1-1v-12c0-0.554 0.446-1 1-1z"/>
  </g>
  <g id="g4466" transform="translate(0,18)">
   <path id="path4468" d="m9 8h12c0.554 0 1 0.446 1 1v12c0 0.554-0.446 1-1 1h-12c-0.554 0-1-0.446-1-1v-12c0-0.554 0.446-1 1-1z"/>
   <path id="path4470" d="m27 8h12c0.554 0 1 0.446 1 1v12c0 0.554-0.446 1-1 1h-12c-0.554 0-1-0.446-1-1v-12c0-0.554 0.446-1 1-1z"/>
  </g>
 </g>
 <circle id="path4058" cy="33" cx="34" r="12" fill="#a183d0"/>
 <path id="path4061" d="m31.923 38.423c0-0.29059 0.0417-0.53611 0.12512-0.73723 0.0834-0.20045 0.19911-0.36256 0.34776-0.48633 0.14798-0.12377 0.32287-0.21323 0.524-0.26906 0.20045-0.0552 0.41503-0.0834 0.64373-0.0834 0.21659 0 0.42243 0.0283 0.61683 0.0834 0.19439 0.0559 0.36592 0.14529 0.51458 0.26906 0.14799 0.12377 0.26503 0.28588 0.3518 0.48633 0.0868 0.20112 0.12982 0.44664 0.12982 0.73723 0 0.27848-0.043 0.5166-0.12982 0.71436-0.0868 0.19709-0.20381 0.36189-0.3518 0.49171-0.14866 0.12915-0.32019 0.22332-0.51458 0.28252-0.1944 0.0585-0.40024 0.0881-0.61683 0.0881-0.2287 0-0.44328-0.0296-0.64373-0.0881-0.20113-0.0592-0.37602-0.15337-0.524-0.28252-0.14865-0.12982-0.26435-0.29462-0.34776-0.49171-0.0834-0.19776-0.12512-0.43588-0.12512-0.71436m0.30606-3.1709v-0.68544c0-0.31548 0.0323-0.60136 0.0975-0.85764 0.0645-0.25695 0.16346-0.50045 0.29664-0.73252 0.13251-0.23139 0.30404-0.4574 0.51391-0.67669 0.21054-0.21929 0.46413-0.44665 0.76077-0.6814 0.25965-0.20382 0.47894-0.38611 0.65786-0.54754 0.1796-0.1601 0.32422-0.31952 0.43589-0.47759 0.11098-0.1574 0.1917-0.3222 0.2408-0.49508 0.0498-0.17354 0.0747-0.37467 0.0747-0.6027 0-0.35247-0.11973-0.64373-0.35719-0.87176-0.23812-0.2287-0.60135-0.34305-1.0897-0.34305-0.4258 0-0.88522 0.0895-1.3769 0.26839-0.49037 0.17959-0.99957 0.39888-1.5249 0.65853l-0.944-2.049c0.26503-0.15471 0.55427-0.30135 0.86638-0.43991 0.31279-0.13924 0.63701-0.26301 0.97334-0.37131 0.337-0.10762 0.67871-0.19305 1.0244-0.25494 0.34642-0.0619 0.68611-0.0928 1.0204-0.0928 0.63028 0 1.1987 0.076 1.7052 0.22736 0.50719 0.15134 0.93701 0.37197 1.2888 0.66256 0.35314 0.29059 0.62288 0.64373 0.81122 1.0574 0.18902 0.41435 0.28319 0.88656 0.28319 1.418 0 0.38946-0.0438 0.73723-0.12982 1.0433-0.0861 0.30606-0.21525 0.59059-0.38409 0.85292-0.17085 0.26301-0.38409 0.5166-0.64037 0.76011-0.25628 0.24417-0.55494 0.50247-0.89463 0.77422-0.25965 0.20382-0.47153 0.38207-0.63566 0.53342-0.16346 0.15135-0.29194 0.2953-0.38409 0.4305-0.0928 0.13655-0.15605 0.27714-0.19036 0.42243-0.0337 0.14462-0.0511 0.31615-0.0511 0.51391v0.55629h-2.4471z" style="enable-background:new" fill="#fff"/>
 <path id="circle4477" opacity=".3" d="m45.98 32.406a12 12 0 0 1 -11.98 11.594 12 12 0 0 1 -11.98 -11.406 12 12 0 0 0 -0.02 0.406 12 12 0 0 0 12 12 12 12 0 0 0 12 -12 12 12 0 0 0 -0.02 -0.594z"/>
</svg>
