/* XPM */
static char * wordview_xpm[] = {
"48 48 225 2",
"  	c None",
". 	c #5EB2F4",
"+ 	c #5FB3F5",
"@ 	c #5DB2F4",
"# 	c #52ADF4",
"$ 	c #3BA2F2",
"% 	c #37A0F2",
"& 	c #3CA2F2",
"* 	c #51ADF4",
"= 	c #72BCF6",
"- 	c #E8F4FE",
"; 	c #E7F3FC",
"> 	c #FDFEFE",
", 	c #EAF4FC",
"' 	c #39A1F2",
") 	c #EAF3FA",
"! 	c #60B3F4",
"~ 	c #B7D5EC",
"{ 	c #96CAF3",
"] 	c #B7D4EB",
"^ 	c #81B8E4",
"/ 	c #CBE3F6",
"( 	c #CCE3F6",
"_ 	c #80B8E3",
": 	c #4BA0E3",
"< 	c #F8FBFD",
"[ 	c #41A5F3",
"} 	c #3DA3F2",
"| 	c #82C4F7",
"1 	c #369CEC",
"2 	c #DCEAF5",
"3 	c #72BBF4",
"4 	c #BDDFFA",
"5 	c #FDFEFF",
"6 	c #A4CAE7",
"7 	c #A7D2F3",
"8 	c #58B0F4",
"9 	c #FCFDFE",
"0 	c #6EB0E2",
"a 	c #DDECF8",
"b 	c #AAD5F6",
"c 	c #3E9CE5",
"d 	c #50ACF4",
"e 	c #44A6F3",
"f 	c #F3F8FD",
"g 	c #F4F9FD",
"h 	c #4FACF4",
"i 	c #3F9DE5",
"j 	c #379FF0",
"k 	c #CADFF0",
"l 	c #84C2F3",
"m 	c #8EC9F6",
"n 	c #8DC8F5",
"o 	c #85C3F3",
"p 	c #C9DFF0",
"q 	c #93C1E5",
"r 	c #B9DAF4",
"s 	c #38A0F2",
"t 	c #DEEDF9",
"u 	c #E0EFFA",
"v 	c #5CA7E2",
"w 	c #EDF5FB",
"x 	c #70BBF6",
"y 	c #F7FAFD",
"z 	c #4893DC",
"A 	c #7373A0",
"B 	c #CD6B69",
"C 	c #CA5550",
"D 	c #C33F39",
"E 	c #B1484C",
"F 	c #9A5466",
"G 	c #7173A0",
"H 	c #4794DB",
"I 	c #379AE8",
"J 	c #EDF4FA",
"K 	c #60B3F5",
"L 	c #C4E1F7",
"M 	c #AFCFE8",
"N 	c #B0D0E8",
"O 	c #C2CEE2",
"P 	c #89607E",
"Q 	c #BF3732",
"R 	c #C03630",
"S 	c #BE3732",
"T 	c #925971",
"U 	c #4893DA",
"V 	c #B7D5EB",
"W 	c #53ADF4",
"X 	c #FBFDFE",
"Y 	c #5AA3DD",
"Z 	c #58A2DC",
"` 	c #EABFBD",
" .	c #C33F3A",
"..	c #B93B3A",
"+.	c #6180B7",
"@.	c #A5D3F6",
"#.	c #CEE2F1",
"$.	c #3599E8",
"%.	c #359AE9",
"&.	c #CFE2F1",
"*.	c #E3A7A4",
"=.	c #C03832",
"-.	c #72729F",
";.	c #4CA0E3",
">.	c #4BAAF3",
",.	c #F0F7FC",
"'.	c #77B1DE",
").	c #8E8AA7",
"!.	c #C3E2FA",
"~.	c #E9F2F9",
"{.	c #3897E2",
"].	c #4694DC",
"^.	c #BA3A39",
"/.	c #95C0E2",
"(.	c #379FF1",
"_.	c #8C5E7A",
":.	c #479CDD",
"<.	c #D47470",
"[.	c #E9B8B6",
"}.	c #F3DAD9",
"|.	c #FBF2F2",
"1.	c #FDF9F9",
"2.	c #F7E7E6",
"3.	c #EABEBC",
"4.	c #D3736F",
"5.	c #B5D3EA",
"6.	c #369DED",
"7.	c #C9524D",
"8.	c #F2D7D6",
"9.	c #FFFFFF",
"0.	c #F0D0CE",
"a.	c #CB5853",
"b.	c #5EA5DC",
"c.	c #D06863",
"d.	c #FCF4F4",
"e.	c #FEFBFB",
"f.	c #DC918D",
"g.	c #C54640",
"h.	c #C64A44",
"i.	c #DE9592",
"j.	c #FBF2F1",
"k.	c #CE625D",
"l.	c #D6E6F3",
"m.	c #3498E7",
"n.	c #AD454B",
"o.	c #DE9693",
"p.	c #C74C47",
"q.	c #7EB4DF",
"r.	c #B93B39",
"s.	c #EDC5C3",
"t.	c #C4433D",
"u.	c #F1D1D0",
"v.	c #C64A45",
"w.	c #EBC0BE",
"x.	c #BF3630",
"y.	c #EBF3F9",
"z.	c #3A97E0",
"A.	c #B43937",
"B.	c #C54742",
"C.	c #F0D0CF",
"D.	c #F0CFCD",
"E.	c #C4433E",
"F.	c #ECC4C2",
"G.	c #B9342D",
"H.	c #6BA7D7",
"I.	c #E7F1F8",
"J.	c #6BA7D6",
"K.	c #A4434A",
"L.	c #C74D48",
"M.	c #DE9794",
"N.	c #C9524C",
"O.	c #B5342D",
"P.	c #3497E4",
"Q.	c #2D83C6",
"R.	c #2D84C7",
"S.	c #8D4D5D",
"T.	c #FFFDFD",
"U.	c #DC908D",
"V.	c #DF9996",
"W.	c #FEFCFC",
"X.	c #A82F2A",
"Y.	c #656790",
"Z.	c #448FD3",
"`.	c #AA312D",
" +	c #EABCBA",
".+	c #FCF6F6",
"++	c #FDF8F8",
"@+	c #F6E2E1",
"#+	c #E8B5B3",
"$+	c #D3726E",
"%+	c #AA302A",
"&+	c #745068",
"*+	c #BD352F",
"=+	c #BC352F",
"-+	c #922924",
";+	c #359BEA",
">+	c #4390D6",
",+	c #95302F",
"'+	c #992B26",
")+	c #2C80C1",
"!+	c #5575A9",
"~+	c #9E2E29",
"{+	c #9C2D28",
"]+	c #2771AA",
"^+	c #2670A9",
"/+	c #5B4C66",
"(+	c #972C27",
"_+	c #962B27",
":+	c #763C49",
"<+	c #8E2823",
"[+	c #A9302A",
"}+	c #BE3630",
"|+	c #A92F2A",
"1+	c #8D2823",
"2+	c #8A2722",
"3+	c #8D2723",
"4+	c #9E2C28",
"5+	c #AF312C",
"6+	c #B7332E",
"7+	c #8C2823",
"8+	c #8E2824",
"9+	c #8A2823",
"0+	c #892722",
"a+	c #882522",
"b+	c #8B2723",
"                                                                                                ",
"                                                                                                ",
"                                                                                                ",
"                                                                                                ",
"          . + + + + + + + + + + + + + + + + + + + + + + + + + + + + + + + + + + + + @           ",
"        # $ % % % % % % % % % % % % % % % % % % % % % % % % % % % % % % % % % % % % & *         ",
"        & % % % % % % % % % % % % % % % % % % % % % % % % % % % % % % % % % % % % % % &         ",
"        % % % % % % % % % % % % % % % % % % % % % % % % % % % % % % % % % % % % % % % %         ",
"        % % % % % % % % % % % % % % % % % % % % % % % % % % % % % % % % % % % % % % % %         ",
"        % % % % % % % % % % % % % % % % % % % % % % % % % % % % % % % % % % % % % % % %         ",
"        % % % % % % % % % % % % % % % % % % % % % % % % % % % % % % % % % % % % % % % %         ",
"        % % % % % = - - = % % % % % % % % % % % % % % % % % % % % % % = - - = % % % % %         ",
"        % % % % % ; > > , ' % % % % % % % % % % % % % % % % % % % % ' , > > ; % % % % %         ",
"        % % % % % ) > > > ! % % % % % % % % % % % % % % % % % % % % ! > > > ) % % % % %         ",
"        % % % % % ~ > > > { % % % % % % % % % % % % % % % % % % % % { > > > ] % % % % %         ",
"        % % % % % ^ > > > / % % % % % % % % % % % % % % % % % % % % ( > > > _ % % % % %         ",
"        % % % % % : > > > < [ % % % % % % % } | | } % % % % % % % [ < > > > : % % % % %         ",
"        % % % % % 1 2 > > > 3 % % % % % % % 4 5 5 4 % % % % % % % 3 > > > 2 1 % % % % %         ",
"        % % % % % % 6 > > > 7 % % % % % % 8 9 > > 9 8 % % % % % % 7 > > > 6 % % % % % %         ",
"        % % % % % % 0 > > > a % % % % % % b > > > > b % % % % % % a > > > 0 % % % % % %         ",
"        % % % % % % c < > > > d % % % % e f > > > > g e % % % % h > > > < i % % % % % %         ",
"        % % % % % % j k > > > l % % % % m > > > > > > n % % % % o > > > p j % % % % % %         ",
"        % % % % % % % q > > > r % % % s t > > > > > > u ' % % % r > > > q % % % % % % %         ",
"        % % % % % % % v > > > w ' % % x > > > y y > > > x % z A B C D D E F G H % % % %         ",
"        % % % % % % % I J > > > K % % L > > > M N > > > O P Q R R R R R R R R S T U % %         ",
"        % % % % % % % % V > > > { % W X > > > Y Z > > `  .R R R R R R R R R R R R ..+.%         ",
"        % % % % % % % % ^ > > > / % @.> > > #.$.%.&.*.=.R R R R R R R R R R R R R R S -.        ",
"        % % % % % % % % ;.> > > < >.,.> > > '.% % ).=.R R R R R R R R R R R R R R R R S         ",
"        % % % % % % % % 1 2 > > > !.> > > ~.{.% ].^.R R R R R R R R R R R R R R R R R R R       ",
"        % % % % % % % % % 6 > > > > > > > /.(.% _.R R R R R R R R R R R R R R R R R R R R R     ",
"        % % % % % % % % % 0 > > > > > > < :.% z Q R R R R R =.<.[.}.|.1.2.3.4.R R R R R R R     ",
"        % % % % % % % % % c < > > > > > 5.6.% -.R R R R R 7.8.9.9.9.9.9.9.9.9.0.a.R R R R R     ",
"        % % % % % % % % % j k > > > > > b.% % F R R R R c.d.9.9.e.f.g.h.i.e.9.9.j.k.R R R R R   ",
"        % % % % % % % % % % q > > > > l.m.% % n.R R R 7.j.9.9.9.f.R R R R o.9.9.9.d.p.R R R R   ",
"        % % % % % % % % % % v > > > > q.% % % r.R R R s.9.9.9.9.t.R u.0.R v.9.9.9.9.w.R R R x.  ",
"        % % % % % % % % % % I ~.> > y.z.% % % A.R R R w.9.9.9.9.B.R C.D.R E.9.9.9.9.F.R R R G.  ",
"        % % % % % % % % % % % H.I.I.J.j % % % K.R R R L.d.9.9.9.M.R R R R M.9.9.9.j.N.R R R O.  ",
"        % % % % % % % % % % % P.Q.R.P.% % % % S.R R R R k.j.9.9.T.U.E.E.V.W.9.9.d.c.R R R R X.  ",
"        % % % % % % % % % % % % % % % % % % % Y.x.R R R R a.D.9.9.9.9.9.9.9.9.8.7.R R R R x.    ",
"        % % % % % % % % % % % % % % % % % % % Z.`.R R R R R R 4. +2..+++@+#+$+=.R R R R R %+    ",
"        % % % % % % % % % % % % % % % % % % % % &+*+R R R R R R R R R R R R R R R R R R =+-+    ",
"        ;+% % % % % % % % % % % % % % % % % % % >+,+x.R R R R R R R R R R R R R R R R x.'+      ",
"        )+;+% % % % % % % % % % % % % % % % % % % !+~+R R R R R R R R R R R R R R R x.{+        ",
"          ]+^+^+^+^+^+^+^+^+^+^+^+^+^+^+^+^+^+^+^+^+/+(+=+R R R R R R R R R R R R =+_+:+        ",
"                                                        <+[+}+R R R R R R R R }+|+1+            ",
"                                                          2+3+4+5+6+*+*+6+5+4+7+8+              ",
"                                                                9+0+a+a+0+b+                    ",
"                                                                                                "};
