<svg xmlns="http://www.w3.org/2000/svg" width="22" height="22" version="1">
 <path style="opacity:0.2" d="M 2.1111,2.5 C 1.49555,2.5 1,3.13445 1,3.75 l 0,12.5 c 0,0.6155 0.49558,1.2434 1.1111,1.25 l 9.3889,0 2.5,3 2.5,-3 3.3889,0 c 0.616,0 1.111,-0.634 1.111,-1.25 l 0,-12.5 c 0,-0.6155 -0.495,-1.2499 -1.111,-1.2499 z"/>
 <path style="fill:#8e8e8e" d="M 2.1111,2 C 1.49555,2 1,2.63445 1,3.25 l 0,12.5 c 0,0.6155 0.49558,1.2434 1.1111,1.25 l 9.3889,0 2.5,3 2.5,-3 3.3889,0 c 0.616,0 1.111,-0.634 1.111,-1.25 l 0,-12.5 c 0,-0.6155 -0.495,-1.2499 -1.111,-1.2499 z"/>
 <path style="opacity:0.1;fill:#ffffff" d="M 2.1114,2 C 1.4958,2 1.0001,2.63445 1.0001,3.25 l 0,0.5 c 0,-0.61555 0.49575,-1.25 1.1113,-1.25 l 17.777,0 c 0.6155,0 1.1115,0.63445 1.1115,1.25 l 0,-0.5 C 20.9999,2.63445 20.5039,2 19.8884,2 L 2.1114,2 Z"/>
 <path d="m 15.042923,13.493539 -1.999875,-0.99994 M 11.043176,5.4940398 c 2.399528,0 1.999875,1.9998754 1.999875,3.9997472 0,1.999876 0.355556,4.060848 -1.999875,3.999752 -2.3484394,0 -1.999872,-1.999876 -1.999872,-3.999752 0,-1.9998718 -0.4354231,-3.9997472 1.999872,-3.9997472" style="opacity:0.2;fill:none;stroke:#000000;stroke-width:1.999874;stroke-linecap:round"/>
 <path style="fill:none;stroke:#ffffff;stroke-width:1.999874;stroke-linecap:round" d="m 15.042923,12.993539 -1.999875,-0.99994 M 11.043176,4.9940407 c 2.399528,0 1.999875,1.9998754 1.999875,3.999747 0,1.9998753 0.355556,4.0608473 -1.999875,3.9997513 -2.3484394,0 -1.999872,-1.999876 -1.999872,-3.9997513 0,-1.9998716 -0.4354231,-3.999747 1.999872,-3.999747"/>
</svg>
