<svg xmlns="http://www.w3.org/2000/svg" width="22" height="22" version="1">
 <path fill="#4f4f4f" d="m11 2c-2.2793 0-4.3588 0.7085-5.8923 1.899-1.5336 1.1906-2.6077 2.8946-2.6077 4.7894v0.68489c-1.5226 0.76858-2.4998 2.7844-2.4998 5.1474 0 3.0245 1.7739 5.4792 3.9998 5.4792v-11.312c0-1.4187 0.6912-2.7242 1.9572-3.707 1.266-0.9831 3.0534-1.481 5.0428-1.481 1.9895 0 3.777 0.49795 5.0429 1.481 1.266 0.9828 1.951 2.2883 1.957 3.7074v10.315h-0.5v-9.7907c-0.3435 0-0.828 0.17135-1 0.3422v9.4485h-2.5v-1.4943c0-0.828-0.169-1.509-1-1.509h-3c-0.8309 0-1 0.681-1 1.509v0.99621c0 0.82785 0.16915 1.4943 1.0001 1.4943h8.0499c2.225-0.001 3.95-2.455 3.95-5.478 0-2.363-0.978-4.379-2.5-5.1477v-0.68489c0-1.8948-1.074-3.5988-2.607-4.7894-1.534-1.1905-3.613-1.899-5.893-1.899zm-6.5 7.213v10.787c0.3435 0 0.828-0.17135 1-0.51355v-9.9312c-0.172-0.1704-0.6565-0.3418-1-0.3418z"/>
 <path fill="#fff" opacity=".1" d="m11 2c-2.2795 0-4.3591 0.7079-5.8926 1.8984-1.5336 1.1906-2.6074 2.8943-2.6074 4.7891v0.5c0-1.8948 1.0738-3.5985 2.6074-4.7891 1.5335-1.1905 3.6131-1.8984 5.8926-1.8984s4.3591 0.70792 5.8926 1.8984c1.533 1.1906 2.607 2.8943 2.607 4.7891v-0.5c0-1.8948-1.074-3.5985-2.607-4.7891-1.534-1.1905-3.614-1.8984-5.893-1.8984zm-6.5 7.2129v0.5c0.3435 0 0.828 0.17095 1 0.3418v-0.5c-0.172-0.1712-0.6565-0.3421-1-0.3421zm13 0c-0.3435 0-0.828 0.17095-1 0.3418v0.5c0.172-0.17085 0.6565-0.3418 1-0.3418v-0.5zm-15 0.1601c-1.5226 0.769-2.5 2.785-2.5 5.148 0 0.07094 0.01369 0.13674 0.015625 0.20703 0.078148-2.233 1.026-4.119 2.4844-4.855v-0.5zm17 0v0.5c1.4592 0.73662 2.4072 2.6238 2.4844 4.8594 0.002-0.071 0.016-0.138 0.016-0.211 0-2.363-0.978-4.379-2.5-5.148zm-9.5 6.627c-0.83099 0-1 0.68192-1 1.5098v0.5c0-0.828 0.169-1.51 1-1.51h3c0.83099 0 1 0.68192 1 1.5098v-0.5c0-0.828-0.169-1.51-1-1.51h-3zm4 3.0039v0.50005h2.5v-0.5h-2.5zm3.5 0v0.5h0.5v-0.5h-0.5z"/>
 <path opacity=".2" d="m11 3.5c-1.9895 0-3.777 0.4974-5.043 1.4805-1.266 0.9827-1.957 2.2879-1.957 3.707v0.5c0-1.4191 0.691-2.7243 1.957-3.707 1.266-0.9831 3.0535-1.4805 5.043-1.4805 1.989 0 3.777 0.4974 5.043 1.4805 1.266 0.9827 1.951 2.2879 1.957 3.707v-0.5c-0.006-1.4191-0.691-2.7243-1.957-3.707-1.266-0.9831-3.054-1.4805-5.043-1.4805zm-10.984 11.229c-0.003438 0.098-0.015625 0.193-0.015625 0.292 0 3.025 1.7742 5.479 4 5.479v-0.5c-2.1736 0-3.9038-2.345-3.9844-5.271zm21.969 0.0039c-0.081 2.922-1.763 5.265-3.934 5.267h-8.051c-0.831 0-1-0.666-1-1.494v0.5c0 0.828 0.169 1.494 1 1.494h8.0508c2.224-0.002 3.949-2.456 3.949-5.479 0-0.098-0.012-0.192-0.016-0.289zm-16.485 4.753c-0.172 0.343-0.6565 0.514-1 0.514v0.5c0.3435 0 0.828-0.17147 1-0.51367v-0.5z"/>
</svg>
