<svg width="22" height="22" version="1.1" xmlns="http://www.w3.org/2000/svg">
 <defs>
  <style id="current-color-scheme" type="text/css">.ColorScheme-Text { color:#444444; } .ColorScheme-Highlight { color:#4285f4; } .ColorScheme-NeutralText { color:#ff9800; } .ColorScheme-PositiveText { color:#4caf50; } .ColorScheme-NegativeText { color:#f44336; }</style>
 </defs>
 <g class="ColorScheme-Text" transform="translate(2.9960939,3)" style="fill:currentColor">
  <path class="ColorScheme-Text" d="m5.0039062 0c-1.09375 0-2 0.910156-2 2v9c0 1.089844 0.90625 2 2 2h8.9999998c1.089844 0 2-0.910156 2-2v-9c0-1.089844-0.910156-2-2-2zm4.9999998 2h3v2h-2v5c0 1.105469-0.898437 2-1.9999998 2-1.105468 0-2-0.894531-2-2s0.894532-2 2-2c0.3515631 0 0.6953131 0.09375 0.9999998 0.2695312zm-7.9999998 1c-1.09375 0-2 0.910156-2 2v9c0 1.089844 0.90625 2 2 2h8.9999998c1.089844 0 2-0.910156 2-2h-11z" style="fill:currentColor"/>
 </g>
</svg>
