<svg xmlns="http://www.w3.org/2000/svg" width="22" height="22" version="1.1">
 <defs>
  <style id="current-color-scheme" type="text/css">
   .ColorScheme-Text { color:#444444; } .ColorScheme-Highlight { color:#4285f4; } .ColorScheme-NeutralText { color:#ff9800; } .ColorScheme-PositiveText { color:#4caf50; } .ColorScheme-NegativeText { color:#f44336; }
  </style>
 </defs>
 <path style="fill:currentColor" class="ColorScheme-Text" d="m 4,4 v 14 h 5 1 V 17 H 9 v -1 h 1 V 15 H 9 v -1 h 1 V 13 H 9 v -1 h 1 V 11 H 9 v -1 h 1 V 9 H 9 V 8 h 1 V 7 H 9 V 6 h 1 V 5 H 9 V 4 Z m 6,1 h 1 V 4 h -1 z m 1,0 v 1 h 1 V 5 Z m 1,0 h 1 V 4 h -1 z m 1,0 v 1 h 1 V 5 Z m 0,1 h -1 v 1 h 1 z m 0,1 v 1 h 1 V 7 Z m 0,1 h -1 v 1 h 1 z m 0,1 v 1 h 1 V 9 Z m 0,1 h -1 v 1 h 1 z m 0,1 v 1 h 1 v -1 z m 0,1 h -1 v 1 h 1 z m 0,1 v 1 h 1 v -1 z m 0,1 h -1 v 1 h 1 z m 0,1 v 1 h 1 v -1 z m 0,1 h -1 v 1 h 1 z m 0,1 v 1 h 1 v -1 z m -1,0 h -1 v 1 h 1 z m -1,0 v -1 h -1 v 1 z m 0,-1 h 1 v -1 h -1 z m 0,-1 v -1 h -1 v 1 z m 0,-1 h 1 v -1 h -1 z m 0,-1 v -1 h -1 v 1 z m 0,-1 h 1 v -1 h -1 z m 0,-1 v -1 h -1 v 1 z m 0,-1 h 1 V 9 H 11 Z M 11,9 V 8 h -1 v 1 z m 0,-1 h 1 V 7 H 11 Z M 11,7 V 6 h -1 v 1 z"/>
 <path style="opacity:0.35;fill:currentColor" class="ColorScheme-Text" d="m 14,4 h 4 v 14 h -4 z"/>
</svg>
