<?xml version="1.0" encoding="UTF-8" standalone="no"?>
<svg xmlns="http://www.w3.org/2000/svg" height="48" width="48" version="1">
 <rect opacity=".2" transform="matrix(0,-1,-1,0,0,0)" rx="20" ry="20" height="40" width="40" y="-44" x="-45"/>
 <rect transform="matrix(0,-1,-1,0,0,0)" rx="20" ry="20" height="40" width="40" y="-44" x="-44" fill="#5d5d5d"/>
 <circle cy="24" cx="24" r="11" fill="#3f3f3f"/>
 <circle opacity=".2" transform="scale(1,-1)" cy="-25" cx="24" r="9"/>
 <circle transform="scale(1,-1)" cy="-24" cx="24" r="9" fill="#ba174e"/>
 <path opacity=".1" d="m24 4c-11.08 0-20 8.92-20 20 0 0.168 0.0076 0.333 0.0117 0.5 0.2647-10.846 9.0763-19.5 19.988-19.5s19.724 8.654 19.988 19.5c0.004-0.167 0.012-0.332 0.012-0.5 0-11.08-8.92-20-20-20z" fill="#fff"/>
 <circle opacity=".2" cy="25" cx="24" r="6"/>
 <circle cy="24" cx="24" r="6" fill="#d67495"/>
</svg>
