<svg xmlns="http://www.w3.org/2000/svg" width="48" height="48" version="1">
 <rect style="opacity:0.2" width="32" height="32" x="-45" y="-40" rx="8" ry="10" transform="matrix(0,-1,-1,0,0,0)"/>
 <rect style="fill:#8e8e8e" width="32" height="32" x="-36" y="-40" rx="3" ry="3" transform="matrix(0,-1,-1,0,0,0)"/>
 <rect style="fill:#8e8e8e" width="32" height="32" x="-44" y="-40" rx="8" ry="10" transform="matrix(0,-1,-1,0,0,0)"/>
 <rect style="fill:#333333" width="24" height="26" x="12" y="8" rx="1" ry="1"/>
 <circle style="fill:#4d4d4d" cx="15" cy="38" r="2"/>
 <circle style="fill:#4d4d4d" cx="33" cy="38" r="2"/>
 <rect style="fill:#4d4d4d" width="2" height="2" x="30" y="4"/>
 <circle style="fill:#4d4d4d" cx="24" cy="39" r="3"/>
 <path style="fill:#ffffff;opacity:0.1" d="M 11 4 C 9.338 4 8 5.338 8 7 L 8 8 C 8 6.338 9.338 5 11 5 L 37 5 C 38.662 5 40 6.338 40 8 L 40 7 C 40 5.338 38.662 4 37 4 L 11 4 z"/>
</svg>
