<svg xmlns="http://www.w3.org/2000/svg" width="48" height="48" version="1">
 <rect style="opacity:0.2" width="26" height="40" x="11" y="5" rx="2" ry="2"/>
 <rect style="fill:#8e8e8e" width="26" height="40" x="11" y="4" rx="2" ry="2"/>
 <rect style="fill:#333333" width="6" height="1" x="21" y="6" rx=".5" ry=".5"/>
 <rect style="fill:#333333" width="24" height="30" x="12" y="8"/>
 <path style="fill:#ffffff;opacity:0.2" d="M 13 4 C 11.892 4 11 4.892 11 6 L 11 7 C 11 5.892 11.892 5 13 5 L 35 5 C 36.108 5 37 5.892 37 7 L 37 6 C 37 4.892 36.108 4 35 4 L 13 4 z"/>
 <rect style="fill:#4d4d4d" width="4" height="4" x="22" y="39" rx="1" ry="1"/>
 <rect style="fill:#4d4d4d" width="4" height="2" x="29" y="40" rx="1" ry="1"/>
 <rect style="fill:#4d4d4d" width="4" height="2" x="15" y="40" rx="1" ry="1"/>
 <circle style="fill:#333333" cx="28.5" cy="6.5" r=".5"/>
</svg>
