<svg xmlns="http://www.w3.org/2000/svg" width="24" height="24" version="1">
 <g transform="translate(1,1)">
  <rect fill="#d2d2d2" width="20" height="20" x="-21" y="-21" rx="1" ry="1" transform="matrix(0,-1,-1,0,0,0)"/>
  <path fill="#fff" opacity=".2" d="m2 1c-0.554 0-1 0.446-1 1v0.5c0-0.554 0.446-1 1-1h18c0.554 0 1 0.446 1 1v-0.5c0-0.554-0.446-1-1-1h-18z"/>
  <path opacity=".2" d="m2 21.5c-0.554 0-1-0.446-1-1v-0.5c0 0.554 0.446 1 1 1h18c0.554 0 1-0.446 1-1v0.5c0 0.554-0.446 1-1 1h-18z"/>
  <path fill="#a9a9a9" d="m7.5 12.75v-3.5l3-1.75 3 1.75-0.000001 3.5-3 1.75-3-1.75z"/>
  <path fill="#a4a4a4" d="m11 4v2.8716l3 1.6284 2.5-1.5z"/>
  <path fill="#848484" d="m10 4v2.8716l-3 1.6284-2.5-1.5z"/>
  <path fill="#949494" d="m16.987 7.7369-2.487 1.4358 0.09 3.4123 2.549 1.415z"/>
  <path fill="#484848" d="m4.1519 7.7369 2.4869 1.4358-0.0898 3.4123-2.549 1.415z"/>
  <path fill="#454545" d="m11 18v-2.872l3-1.628 2.5 1.5z"/>
  <path fill="#5a5a5a" d="m10 18v-2.872l-3-1.628-2.5 1.5z"/>
 </g>
</svg>
