<svg xmlns="http://www.w3.org/2000/svg" width="16" height="16" version="1">
 <circle style="fill:#e4e4e4" cx="8" cy="8" r="8"/>
 <path style="fill:#4f4f4f" d="M 6.9859376,0.065625 C 6.7436724,0.0960266 6.505994,0.13921036 6.2710936,0.190625 5.9287672,2.5536988 6.3291232,5.0879756 7.60625,7.3140624 6.95025,8.3594476 6.1629312,9.3390696 5.2445312,10.057812 3.3455876,7.5990016 2.671388,4.5325592 3.0976564,1.6789062 2.828788,1.8873958 2.5694952,2.1070852 2.3296875,2.3476562 2.0930346,5.183274 2.8856996,8.0614752 4.6546876,10.515625 c -1.0610584,0.746011 -2.242202,1.31131 -3.4843751,1.646094 0.1220047,0.20037 0.2519871,0.394626 0.390625,0.582812 2.6805433,-0.809712 5.0973521,-2.549811 6.6359377,-5.1039062 1.2464168,8e-7 2.4925948,0.2610928 3.6078128,0.6531252 -1.480137,3.461301 -4.4767024,5.849031 -7.9343756,6.555469 0.3057284,0.184189 0.6214736,0.353436 0.952344,0.496093 C 8.1340208,14.381369 10.98538,11.940421 12.395312,8.6210936 13.56834,9.1745488 14.621945,9.9037652 15.507812,10.75 15.602048,10.491464 15.68315,10.227421 15.750781,9.9570312 13.740314,8.1612252 11.124011,7.0508956 8.1968752,6.9875 7.5408748,5.8767588 7.1475984,4.7003156 6.9507812,3.5242188 7.3853792,3.4752148 7.8167112,3.4510208 8.24375,3.45 11.11517,3.44314 13.781322,4.5002008 15.81875,6.30625 15.733171,5.9065016 15.612869,5.520912 15.470312,5.1460936 13.081716,3.3268932 10.045521,2.430384 6.8851564,2.8710936 6.823974,1.9567924 6.826438,0.98757436 6.9859376,0.065625 Z"/>
</svg>
