<svg xmlns="http://www.w3.org/2000/svg" width="16" height="16" version="1.1">
 <path style="fill:#d3dae3" d="M 8 0 L 7.5 1.0292969 C 7.67 1.0192969 7.83 1 8 1 C 8.17 1 8.33 1.0192969 8.5 1.0292969 L 8 0 z M 8 2 C 4.69 2 2 4.68 2 8 L 14 8 C 14 4.68 11.31 2 8 2 z M 2.3398438 2.3398438 L 2.7207031 3.4296875 C 2.9407031 3.1796875 3.1894531 2.9309375 3.4394531 2.7109375 L 2.3398438 2.3398438 z M 13.660156 2.3398438 L 12.560547 2.7109375 C 12.810547 2.9309375 13.059297 3.1796875 13.279297 3.4296875 L 13.660156 2.3398438 z M 1.0292969 7.5 L 0 8 L 0.009765625 8.0039062 C 0.02620603 8.0035503 0.040007823 8 0.056640625 8 L 1 8 C 1 7.83 1.0192969 7.66 1.0292969 7.5 z M 14.970703 7.5 C 14.980703 7.66 15 7.83 15 8 L 16 8 L 14.970703 7.5 z"/>
 <rect style="fill:#d3dae3" width="16" height="2" x="0" y="9" rx="1" ry="1"/>
 <path style="fill:#d3dae3" d="m 8.0000001,11 1.5189835,2.630957 1.5189834,2.630956 -3.037967,0 -3.0379671,0 1.5189835,-2.630956 z" transform="matrix(1,0,0,-0.76017976,0,24.361977)"/>
</svg>
