<?xml version='1.0' encoding='UTF-8' standalone='no'?>
<svg height="16" style="enable-background:new" version="1.1" width="16" xmlns="http://www.w3.org/2000/svg">
 <title>
  Paper Symbolic Icon Theme
 </title>
 <g style="display:inline" transform="translate(-325.0004,455.00336)">
  <path d="m 337.48067,-446.27148 c -0.15005,0.007 -0.28696,0.0902 -0.36133,0.2207 l -3.06055,5.39648 c -0.16565,0.29157 0.0436,0.65416 0.37891,0.6543 l 6.125,0 c 0.33534,-1.4e-4 0.54457,-0.36273 0.37891,-0.6543 l -3.06055,-5.39648 c -0.0813,-0.14271 -0.23629,-0.22812 -0.40039,-0.2207 z M 337.0002,-445 l 1,0 0,2 -1,0 0,-2 z m 0,3 1,0 0,1 -1,0 0,-1 z" style="color:#000000;font-style:normal;font-variant:normal;font-weight:normal;font-stretch:normal;font-size:medium;line-height:normal;font-family:sans-serif;text-indent:0;text-align:start;text-decoration:none;text-decoration-line:none;text-decoration-style:solid;text-decoration-color:#000000;letter-spacing:normal;word-spacing:normal;text-transform:none;direction:ltr;block-progression:tb;writing-mode:lr-tb;baseline-shift:baseline;text-anchor:start;white-space:normal;clip-rule:nonzero;display:inline;overflow:visible;visibility:visible;opacity:1;isolation:auto;mix-blend-mode:normal;color-interpolation:sRGB;color-interpolation-filters:linearRGB;solid-color:#000000;solid-opacity:1;fill:#ff9800;fill-opacity:1;fill-rule:evenodd;stroke:none;stroke-width:2;stroke-linecap:butt;stroke-linejoin:round;stroke-miterlimit:4;stroke-dasharray:none;stroke-dashoffset:0;stroke-opacity:1;color-rendering:auto;image-rendering:auto;shape-rendering:auto;text-rendering:auto;enable-background:accumulate"/>
  <path d="m 329.0002,-454 0,2 8,0 0,-2 z m -2,3 c -0.5,0 -1,0.5 -1,1 l 0,4 c 0,0.5 0.5,1 1,1 l 1,0 0,-2 7,0 1.67383,0 c 0.22177,-0.15629 0.48142,-0.25653 0.75976,-0.26953 l 0.002,0 c 0.5384,-0.0244 1.04753,0.25604 1.31446,0.72461 l 0.76758,1.35351 c 0.27379,-0.18968 0.48237,-0.49211 0.48237,-0.80859 l 0,-4 c 0,-0.5 -0.5,-1 -1,-1 z m 2,5 0,5 4.13086,0 c 0.0206,-0.0494 0.0314,-0.10057 0.0586,-0.14844 L 335.94161,-446 Z" style="fill:#d3dae3;fill-opacity:1;stroke:none"/>
 </g>
</svg>
