<?xml version="1.0" encoding="UTF-8" standalone="no"?>
<svg
   xmlns:dc="http://purl.org/dc/elements/1.1/"
   xmlns:cc="http://creativecommons.org/ns#"
   xmlns:rdf="http://www.w3.org/1999/02/22-rdf-syntax-ns#"
   xmlns:svg="http://www.w3.org/2000/svg"
   xmlns="http://www.w3.org/2000/svg"
   xmlns:sodipodi="http://sodipodi.sourceforge.net/DTD/sodipodi-0.dtd"
   xmlns:inkscape="http://www.inkscape.org/namespaces/inkscape"
   viewBox="0 0 8 8 "
   id="svg2"
   version="1.1"
   inkscape:version="0.91 r13725"
   sodipodi:docname="emblem-locked.svg">
  <metadata
     id="metadata12">
    <rdf:RDF>
      <cc:Work
         rdf:about="">
        <dc:format>image/svg+xml</dc:format>
        <dc:type
           rdf:resource="http://purl.org/dc/dcmitype/StillImage" />
      </cc:Work>
    </rdf:RDF>
  </metadata>
  <defs
     id="defs10" />
  <sodipodi:namedview
     pagecolor="#ffffff"
     bordercolor="#666666"
     borderopacity="1"
     objecttolerance="10"
     gridtolerance="10"
     guidetolerance="10"
     inkscape:pageopacity="0"
     inkscape:pageshadow="2"
     inkscape:window-width="1600"
     inkscape:window-height="849"
     id="namedview8"
     showgrid="false"
     inkscape:zoom="29.5"
     inkscape:cx="-1.3898305"
     inkscape:cy="4"
     inkscape:window-x="0"
     inkscape:window-y="0"
     inkscape:window-maximized="1"
     inkscape:current-layer="svg2" />
  <g
     transform="translate(-7,-1037.3622)"
     id="g4">
    <path
       style="opacity:0.5;fill:#000000;fill-opacity:1;stroke:none"
       d="M 1 0 C 0.4459807 0 0 0.446 0 1 L 0 7 C 0 7.5541 0.4459807 8 1 8 L 7 8 C 7.554019 8 8 7.5541 8 7 L 8 1 C 8 0.446 7.554019 0 7 0 L 1 0 z M 4 1 C 5.104576 1 6.00001 1.8954 6 3 L 6 4 L 7 4 L 7 7 L 1 7 L 1 4 L 2.0019531 4 L 2 3 C 1.9999904 1.8954 2.8954237 1 4 1 z M 4 2 C 3.447715 2 3 2.4477 3 3 L 3 4 L 5 4 L 5 3 C 5 2.4477 4.552285 2 4 2 z "
       transform="translate(7,1037.3622)"
       id="rect4153" />
  </g>
</svg>
