<svg xmlns="http://www.w3.org/2000/svg" width="24" height="24" version="1">
 <path fill="#64db2d" fill-rule="evenodd" d="m11.973 2.0003c-0.473 0.0067-0.92499 0.19765-1.2595 0.5322l-8.1809 8.1809c-0.71054 0.71014-0.71054 1.862 0 2.5721l8.1809 8.1814c0.71014 0.71054 1.8619 0.71054 2.5721 0l8.1809-8.1814c0.71054-0.71014 0.71054-1.862 0-2.5721l-8.181-8.1805c-0.347-0.3476-0.821-0.5396-1.312-0.5323z"/>
 <path opacity=".2" d="m13 19.5h-2v-2h2zm2.07-7.7499-0.89999 0.91999c-0.72 0.73-1.17 1.33-1.17 2.83h-2v-0.5c0-1.1 0.45-2.1 1.17-2.83l1.24-1.26c0.37-0.36 0.59-0.85999 0.59-1.41 0-1.1-0.89999-2-2-2s-2 0.89999-2 2h-2c0-2.21 1.79-4 4-4s4 1.79 4 4c0 0.87999-0.36 1.68-0.92999 2.25z"/>
 <path fill="#fff" d="m13 19h-2v-2h2zm2.07-7.7499-0.89999 0.91999c-0.72 0.73-1.17 1.33-1.17 2.83h-2v-0.5c0-1.1 0.45-2.1 1.17-2.83l1.24-1.26c0.37-0.36 0.59-0.85999 0.59-1.41 0-1.1-0.89999-2-2-2s-2 0.89999-2 2h-2c0-2.21 1.79-4 4-4s4 1.79 4 4c0 0.87999-0.36 1.68-0.92999 2.25z"/>
 <rect fill="none" width="16" height="16" x="4" y="4"/>
 <path fill="#fff" fill-rule="evenodd" opacity=".2" d="m11.973 2.0001c-0.473 0.0067-0.92499 0.19765-1.2595 0.53225l-8.1809 8.1819c-0.4191 0.419-0.58515 0.99099-0.50955 1.536 0.05235-0.379 0.21835-0.74499 0.50975-1.036l8.1807-8.1817c0.3345-0.33435 0.78649-0.5253 1.2595-0.532 0.49141-0.00726 0.96494 0.18474 1.3125 0.53225l8.1809 8.1819c0.29141 0.29126 0.45738 0.65724 0.50975 1.0361 0.07558-0.54515-0.09046-1.117-0.50975-1.5361l-8.181-8.1814c-0.347-0.3473-0.821-0.5393-1.312-0.532z"/>
 <path fill-rule="evenodd" opacity=".3" d="m2.0235 12.25c-0.075334 0.54494 0.090639 1.1172 0.50975 1.5361l8.1809 8.1809c0.71014 0.71054 1.8621 0.71054 2.5722 0l8.1809-8.1809c0.419-0.419 0.585-0.99099 0.5095-1.536-0.0525 0.37865-0.21853 0.74504-0.50975 1.0361l-8.1809 8.1809c-0.71014 0.71054-1.8621 0.71054-2.5722 0l-8.181-8.181c-0.2911-0.291-0.4571-0.657-0.5096-1.036z"/>
</svg>
