<svg xmlns="http://www.w3.org/2000/svg" width="16" height="16" version="1.1" viewBox="0 0 16 16">
 <path fill="#e61c61" d="m2.75 1c-0.4172 0-0.75 0.3328-0.75 0.75v13.5c0 0.417 0.3328 0.75 0.75 0.75h10.5c0.418 0 0.75-0.332 0.75-0.75v-9.25l-4.125-0.875-0.875-4.125z"/>
 <path fill="#f0709c" d="m9 1v4.1667c0 0.4584 0.3749 0.8333 0.8333 0.8333h4.1667z"/>
 <path fill="#fff" d="m7.5 7c-1.0498 0-1.9433 0.3907-2.3145 0.9375-0.0341 0.0469-0.0594 0.0937-0.0839 0.1406-0.0244 0.047-0.0421 0.0937-0.0567 0.1407-0.005 0.0156-0.00684 0.030616-0.011719 0.041016-0.00975 0.036533-0.018562 0.068409-0.023437 0.099609-0.0048 0.0469-0.0097 0.0937-0.0097 0.1406 0 0.046933 0.00393 0.099551 0.013672 0.14648 0.00487 0.0468 0.020406 0.093825 0.035156 0.14062 0.014625 0.046933 0.033234 0.093825 0.052734 0.14062 0.0245 0.046933 0.054734 0.087832 0.083984 0.13477 0.3809 0.5677 1.2989 0.9375 2.3145 0.9375s1.9336-0.3698 2.3145-0.9375c0.02925-0.041733 0.04886-0.078701 0.06836-0.11523 0.005-0.0104 0.01077-0.014991 0.01563-0.025391 0.01462-0.0312 0.02736-0.068409 0.03711-0.099609 0.0049-0.0156 0.01466-0.031142 0.01953-0.046875 0.0099-0.026 0.01661-0.055898 0.02149-0.082031 0.0049-0.0208 0.0089-0.042359 0.01367-0.068359 0.0048-0.0417 0.0097-0.0834 0.0097-0.125 0-0.0521-0.004-0.0983-0.0137-0.1504-0.0244-0.1459-0.084-0.2818-0.1718-0.4121-0.3712-0.5468-1.2647-0.9375-2.3145-0.9375zm-2.3145 3c-0.122 0.172-0.1855 0.359-0.1855 0.547 0 0.802 1.1181 1.453 2.5 1.453s2.5-0.651 2.5-1.453c0-0.188-0.0635-0.375-0.1855-0.547-0.3809 0.547-1.294 1-2.3145 1s-1.9336-0.453-2.3145-1zm0 2c-0.122 0.172-0.1855 0.36-0.1855 0.547 0 0.803 1.1181 1.453 2.5 1.453s2.5-0.651 2.5-1.453c0-0.187-0.0635-0.375-0.1855-0.547-0.3809 0.547-1.294 1-2.3145 1s-1.9336-0.453-2.3145-1z"/>
</svg>
