<svg xmlns="http://www.w3.org/2000/svg" width="16" height="16" version="1.1">
 <path style="fill:#e4e4e4" d="M 2.8125,0 C 2.362375,0 2,0.3568 2,0.8 V 15.2 C 2,15.6432 2.362375,16 2.8125,16 h 11.375 C 14.637625,16 15,15.6432 15,15.2 V 5 L 11,4 10,0 Z"/>
 <path style="fill:#fafafa" d="M 15,5 10,0 V 4.1666667 C 10,4.6283333 10.371667,5 10.833333,5 Z"/>
 <path style="fill:#8e8e8e" d="M 11.866467,7.0000262 C 11.537003,7.0038962 9.6014554,7.442749 9.4466725,7.6055278 9.1468862,8.0463509 6.361644,11.380601 5.054181,12.573864 c 0.193643,0.486098 1.182552,1.05757 1.508959,1.426132 0.6251268,-0.483806 2.6454821,-2.743429 4.955631,-4.3861725 0.194283,-0.4132843 0.535922,-2.2823209 0.391212,-2.6087054 -0.0067,-0.00382 -0.02155,-0.00535 -0.04352,-0.00509 z M 5.148976,7.1712303 C 5.072586,7.1482463 5.008412,7.1882833 5,7.2058203 c 0,0 0.433328,1.8951736 0.547355,2.1190427 0.226809,0.1995819 0.929557,0.882572 1.170222,0.898281 C 6.792887,10.174398 7.9797525,8.8346226 8.0140783,8.6200712 8.0388043,8.4655182 7.4078842,7.9741745 6.979095,7.559701 6.931435,7.527928 5.637882,7.318316 5.148976,7.1712303 Z m 0.06433,0.2268059 0.05504,0.011033 c 0.09911,0.2018305 0.176621,0.9538666 0.176621,0.9538666 0,0 -0.162039,-0.7663775 -0.231656,-0.9648989 z m 1.389932,0.1875486 c 0.06179,-0.00113 0.336178,0.061951 0.336178,0.061951 0.1149995,0.079297 0.1582762,0.1705758 0.1582762,0.1705758 0,0 -0.2503632,-0.1228869 -0.5038392,-0.2312537 0.0021,-7e-4 0.0053,-0.00124 0.0094,-0.00129 z m 2.7781571,0.508757 c 2e-7,0 -1.3720299,2.2658892 -3.9581911,4.4252102 2.3626552,-2.23574 3.9581911,-4.4252102 3.9581911,-4.4252102 z m -0.2406137,0.09038 c 0,0 -1.1110906,1.6978412 -2.9151034,3.3194382 C 7.8510726,9.8232665 9.1407814,8.1847218 9.1407814,8.1847218 Z m 1.2768766,0.1188089 c 0.16674,-0.00472 0.319067,0.079544 0.345136,0.322057 0.0852,0.7925786 -0.9306048,0.6540591 -0.8225251,-0.00976 0.024925,-0.1530972 0.2630091,-0.3062303 0.4773891,-0.312297 z m 1.132679,0.6207772 c 0.03217,-0.00481 0.06519,0.034469 0.06058,0.067891 -0.09493,0.6884608 -0.278602,0.6316407 -1.257252,1.4142511 0.607268,-0.6518531 1.093813,-0.7593833 1.140785,-1.3671516 0.0062,-0.080594 0.03087,-0.111251 0.05589,-0.1149905 z m -1.069108,2.0889161 c 0,0 -0.8497619,0.40223 -1.3941982,1.266164 0.1633959,0.254971 1.7783282,1.517912 1.8903582,1.592464 C 11.161646,13.82645 12,12.79451 12,12.79451 c 0,0 -0.884216,-1.174089 -1.518771,-1.781286 z m -0.7226968,0.746799 c 0,0 -0.331023,0.370176 -0.3378839,0.654298 l 0.2717581,0.241012 -0.4773892,-0.362791 z m -1.1220136,0.08783 -1.1365187,1.107045 c 0,0 0.481341,-0.590244 1.1365187,-1.107045 z m 1.5618604,1.114258 c 0.342729,0.255651 0.699885,0.517932 0.756399,0.574102 0.05444,0.05411 -0.0026,0.08571 -0.0026,0.08571 -0.08813,-0.03552 -0.708962,-0.589157 -0.753799,-0.659815 z"/>
</svg>
