<svg xmlns="http://www.w3.org/2000/svg" width="16" height="16" version="1.1" viewBox="0 0 16 16">
 <path style="fill:#e4e4e4" d="M 2.75,1 C 2.3328,1 2,1.3328 2,1.75 l 0,13.5 C 2,15.667 2.3328,16 2.75,16 l 10.5,0 C 13.668,16 14,15.668 14,15.25 L 14,6 9.875,5.125 9,1 Z"/>
 <path style="fill:#fafafa" d="M 9,1 9,5.1667 C 9,5.6251 9.3749,6 9.8333,6 L 14,6 Z"/>
 <path style="fill:#ffffff" d="m 6.0416,7.0002 0,4.2063 C 5.8594,11.1245 5.6589,11.0835 5.4583,11.0835 4.6517,11.0835 4,11.7355 4,12.5415 c 0,0.80663 0.65168,1.4583 1.4583,1.4583 0.79296,0 1.4447,-0.63802 1.4583,-1.431 l 0,-3.8184 3.2083,0 0,2.4558 C 9.94267,11.12454 9.74212,11.0837 9.54158,11.0837 c -0.80663,0 -1.4583,0.65168 -1.4583,1.4583 0,0.80663 0.65168,1.4583 1.4583,1.4583 0.77472,0 1.4172,-0.61067 1.4538,-1.3854 l 0.0047,-0.0082 0,-5.6057 z"/>
 <path style="fill:#2470b2" d="m 6.0416,7.0002 0,4.2063 C 5.8594,11.1245 5.6589,11.0835 5.4583,11.0835 4.6517,11.0835 4,11.7355 4,12.5415 c 0,0.80663 0.65168,1.4583 1.4583,1.4583 0.79296,0 1.4447,-0.63802 1.4583,-1.431 l 0,-3.8184 3.2083,0 0,2.4558 C 9.94267,11.12454 9.74212,11.0837 9.54158,11.0837 c -0.80663,0 -1.4583,0.65168 -1.4583,1.4583 0,0.80663 0.65168,1.4583 1.4583,1.4583 0.77472,0 1.4172,-0.61067 1.4538,-1.3854 l 0.0047,-0.0082 0,-5.6057 z"/>
</svg>
