<svg width="16" height="16" version="1" xmlns="http://www.w3.org/2000/svg">
 <path d="M 2.8125,0 C 2.362375,0 2,0.3568 2,0.8 V 15.2 C 2,15.6432 2.362375,16 2.8125,16 h 11.375 C 14.637625,16 15,15.6432 15,15.2 V 5 L 11,4 10,0 Z" style="fill:#4f4f4f"/>
 <path d="M 10,0 V 4.1666667 C 10,4.6269167 10.373095,5 10.833333,5 H 15 Z" style="fill:#696969"/>
 <path d="m5.5839844 6c-0.5833336 0-0.5839844 0.5703125-0.5839844 0.5703125v6.8593755s6.508e-4 0.570312 0.5839844 0.570312h5.8320316s0.583984 0.001112 0.583984-0.570312v-6.8593755s-6.5e-4 -0.5703125-0.583984-0.5703125h-5.8320316zm2.9160156 1c1.381249 0 2.5 1.1187497 2.5 2.5 0 1.381251-1.118751 2.5-2.5 2.5h-2.5v-2.5c0-1.3812503 1.1187495-2.5 2.5-2.5zm0 1c-0.825 0-1.5 0.6749991-1.5 1.5 0 0.825002 0.6749994 1.5 1.5 1.5 0.825 0 1.5-0.674998 1.5-1.5 0-0.8250009-0.675-1.5-1.5-1.5z" style="fill:#64c2ff"/>
</svg>
