<svg xmlns="http://www.w3.org/2000/svg" width="16" height="16" version="1">
 <rect fill="#8bc34a" width="16" height="16" x="-16" y="-16" rx=".857" ry=".857" transform="matrix(0,-1,-1,0,0,0)"/>
 <path style="opacity:0.1" d="M 6,0 V 4 C 6,5.1 6.895,6 8,6 9.105,6 10,5.1 10,4 V 0 Z"/>
 <path style="opacity:0.2" d="M 8,0 V 1 H 9 V 0 Z M 8,1 H 7 V 2 H 8 Z M 8,2 V 3 H 9 V 2 Z M 8,3 H 7 V 4 H 8 Z M 8,4 V 5 C 8.552,5 9,4.5 9,4 Z"/>
 <path style="fill:#dddddd" d="M 7,0 V 1 H 8 V 0 Z M 7,2 V 3 H 8 V 2 Z M 7,4 C 7,4.5 7.448,5 8,5 V 4 Z"/>
 <path style="fill:#b3b3b3" d="M 8,1 H 9 V 2 H 8 Z M 8,3 H 9 V 4 H 8 Z"/>
 <path style="fill:#f5f5f5" d="M 8,5 C 6.895,5 6,5.9 6,7 v 4 c 0,1.1 0.895,2 2,2 1.105,0 2,-0.9 2,-2 V 7 C 10,5.9 9.105,5 8,5 Z M 8,6 C 8.552,6 9,6.4 9,7 9,7.5 8.552,8 8,8 7.448,8 7,7.5 7,7 7,6.4 7.448,6 8,6 Z m 0,3 c 0.552,0 1,0.4 1,1 v 1 C 9,11.5 8.552,12 8,12 7.448,12 7,11.5 7,11 V 10 C 7,9.4 7.448,9 8,9 Z"/>
</svg>
