<svg xmlns="http://www.w3.org/2000/svg" width="16" height="16" version="1.1" viewBox="0 0 16 16">
 <path fill="#4f4f4f" d="m2.75 1c-0.4172 0-0.75 0.3328-0.75 0.75v13.5c0 0.417 0.3328 0.75 0.75 0.75h10.5c0.418 0 0.75-0.332 0.75-0.75v-9.25l-4.125-0.875-0.875-4.125z"/>
 <path fill="#696969" d="m9 1v4.1667c0 0.4584 0.3749 0.8333 0.8333 0.8333h4.1667z"/>
 <path style="fill:#ffc510" d="M 6.4726562 8 L 6.4726562 8.0019531 C 6.0788563 7.9831531 5.6889375 8.1146906 5.3984375 8.4003906 C 4.8220375 8.9767906 4.878225 9.9553563 5.515625 10.597656 L 5.9199219 11 L 5.515625 11.404297 C 4.878205 12.046057 4.8220875 13.025762 5.3984375 13.601562 C 5.9749075 14.177342 6.9555562 14.122535 7.5976562 13.484375 L 8 13.080078 L 8.4023438 13.484375 C 9.0443937 14.121635 10.025263 14.177912 10.601562 13.601562 C 11.177993 13.025213 11.121735 12.046197 10.484375 11.404297 L 10.080078 11 L 10.484375 10.597656 C 11.122375 9.9549563 11.177562 8.9748375 10.601562 8.3984375 C 10.025562 7.8221375 9.0444438 7.878325 8.4023438 8.515625 L 8 8.9199219 L 7.5976562 8.515625 C 7.2741562 8.197025 6.8709562 8.0234 6.4726562 8 z"/>
</svg>
