<svg width="48" height="48" version="1.1" xmlns="http://www.w3.org/2000/svg">
 <circle cx="24" cy="25" r="20" style="opacity:.2"/>
 <circle cx="24" cy="24" r="20" style="fill:#4fc8f3"/>
 <path d="M 24,4 A 20,20 0 0 0 4,24 20,20 0 0 0 4.0215,24.582 20,20 0 0 1 24,5 20,20 0 0 1 43.979,24.418 20,20 0 0 0 44,24 20,20 0 0 0 24,4 Z" style="fill:#ffffff;opacity:.2"/>
 <path d="m24 4.9492188a20 20 0 0 0-1 0.035156v3.964844a1.0001 1.0001 0 1 0 2 0v-3.9492188a20 20 0 0 0-1-0.050781zm7.949219 1.65625a8 6 0 0 1-7.949219 5.3437502 8 6 0 0 1-7.939453-5.3300783 20 20 0 0 0-1.861328 0.9238281 10 8 0 0 0 9.800781 6.4062502 10 8 0 0 0 9.794922-6.4238283 20 20 0 0 0-1.845703-0.9199219z" style="opacity:.2"/>
 <path d="M 24 4 A 20 20 0 0 0 23 4.0351562 L 23 8 A 1.0001 1.0001 0 1 0 25 8 L 25 4.0507812 A 20 20 0 0 0 24 4 z M 31.949219 5.65625 A 8 6 0 0 1 24 11 A 8 6 0 0 1 16.060547 5.6699219 A 20 20 0 0 0 14.199219 6.59375 A 10 8 0 0 0 24 13 A 10 8 0 0 0 33.794922 6.5761719 A 20 20 0 0 0 31.949219 5.65625 z " style="fill:#ffffff"/>
 <path d="m16.984375 16.986328a1.0001 1.0001 0 0 0-0.984375 1.013672v7a1.0001 1.0001 0 1 0 2 0v-7a1.0001 1.0001 0 0 0-1.015625-1.013672zm14 0a1.0001 1.0001 0 0 0-0.984375 1.013672v7a1.0001 1.0001 0 1 0 2 0v-7a1.0001 1.0001 0 0 0-1.015625-1.013672zm-20.984375 10.013672a1.0001 1.0001 0 1 0 0 2h5a1.0001 1.0001 0 1 0 0-2h-5zm23 0a1.0001 1.0001 0 1 0 0 2h5a1.0001 1.0001 0 1 0 0-2h-5zm-3 3a1.0001 1.0001 0 1 0 0 2h-12a1.0001 1.0001 0 1 0 0 2h13a1.0001 1.0001 0 0 0 0.707031-0.292969c0.735703-0.735702 0.826515-1.770455 0.617188-2.398437-0.209328-0.627982-0.617188-1.015625-0.617188-1.015625a1.0001 1.0001 0 0 0-0.707031-0.292969h-1z" style="opacity:.2"/>
 <path d="m17 17v7" style="fill:none;stroke-linecap:round;stroke-linejoin:round;stroke-width:2;stroke:#ffffff"/>
 <path d="m31 17v7" style="fill:none;stroke-linecap:round;stroke-linejoin:round;stroke-width:2;stroke:#ffffff"/>
 <path d="m33 27h5" style="fill:none;stroke-linecap:round;stroke-linejoin:round;stroke-width:2;stroke:#f8bfd5"/>
 <path d="m10 27h5" style="fill:none;stroke-linecap:round;stroke-linejoin:round;stroke-width:2;stroke:#f8bfd5"/>
 <path d="m18 32h13c1-1 0-2 0-2h-1" style="fill:none;stroke-linecap:round;stroke-linejoin:round;stroke-width:2;stroke:#ffffff"/>
</svg>
