<svg width="48" height="48" version="1.1" xmlns="http://www.w3.org/2000/svg">
 <path d="m4 42v1c0 1.108 0.892 2 2 2h36c1.108 0 2-0.892 2-2v-1c0 1.108-0.892 2-2 2h-36c-1.108 0-2-0.892-2-2z" style="opacity:.2"/>
 <rect x="4" y="4" width="40" height="40" rx="2" ry="2" style="fill:#808a36"/>
 <path d="m6 4c-1.108 0-2 0.892-2 2v1c0-1.108 0.892-2 2-2h36c1.108 0 2 0.892 2 2v-1c0-1.108-0.892-2-2-2z" style="fill:#ffffff;opacity:.1"/>
 <path d="m30 19v12s0 4 4 4 7-1 7-1v-15h-3v13h-3s-2 0-2-2v-11z" style="opacity:.2"/>
 <path d="m30 18v12s0 4 4 4 7-1 7-1v-15h-3v13h-3s-2 0-2-2v-11z" style="fill:#cfde3c"/>
 <path d="m29 35-5-20h-4l-2.222656 11.111328-2.777344-11.111328h-4l-4 20h4l2-15 3 15h4l2-15 3 15z" style="opacity:.2"/>
 <path d="m29 34-5-20h-4l-2.222656 11.111328-2.777344-11.111328h-4l-4 20h4l2-15 3 15h4l2-15 3 15z" style="fill:#cfde3c"/>
</svg>
