<svg width="48" height="48" version="1.1" xmlns="http://www.w3.org/2000/svg">
 <circle cx="24" cy="25" r="20" style="opacity:.2"/>
 <circle cx="24" cy="24" r="20" style="fill:#3f3f3f"/>
 <path d="M 24,4 A 20,20 0 0 0 4,24 20,20 0 0 0 4.0215,24.582 20,20 0 0 1 24,5 20,20 0 0 1 43.979,24.418 20,20 0 0 0 44,24 20,20 0 0 0 24,4 Z" style="fill:#ffffff;opacity:.1"/>
 <path d="m24 11c-7.731986 0-14 6.268014-14 14s6.268014 14 14 14 14-6.268014 14-14-6.268014-14-14-14zm4.214844 7c0.212386 0 0.42493 0.08313 0.589844 0.248047l1.947265 1.947265c0.329828 0.329839 0.329828 0.849861 0 1.179688l-1.638672 1.628906-3.117187-3.117187 1.628906-1.638672c0.164919-0.164914 0.377457-0.248047 0.589844-0.248047zm-3.339844 3.005859 3.119141 3.119141-6.875 6.875h-3.119141v-3.119141z" style="opacity:.2"/>
 <path d="m24 10c-7.731986 0-14 6.268014-14 14s6.268014 14 14 14 14-6.268014 14-14-6.268014-14-14-14zm4.214844 7c0.212386 0 0.42493 0.08313 0.589844 0.248047l1.947265 1.947265c0.329828 0.329839 0.329828 0.849861 0 1.179688l-1.638672 1.628906-3.117187-3.117187 1.628906-1.638672c0.164919-0.164914 0.377457-0.248047 0.589844-0.248047zm-3.339844 3.005859 3.119141 3.119141-6.875 6.875h-3.119141v-3.119141z" style="fill:#fdb316"/>
 <path d="m24 10c-7.731986 0-14 6.268014-14 14 0 0.167369 2e-3 0.334052 0.0078 0.5 0.263295-7.500408 6.427583-13.5 13.9922-13.5s13.728905 5.999592 13.992188 13.5c0.005825-0.165948 0.007812-0.332631 0.007812-0.5 0-7.731986-6.268014-14-14-14zm2.494141 9.384766-0.498047 0.501953 3.117187 3.117187 1.638672-1.628906c0.301228-0.301227 0.327113-0.761095 0.07813-1.089844-0.02364 0.03121-0.04952 0.06124-0.07813 0.08984l-1.638672 1.628906zm1 4.240234-6.375 6.375h-3.119141v1h3.119141l6.875-6.875z" style="fill:#ffffff;opacity:.2"/>
</svg>
