<svg xmlns="http://www.w3.org/2000/svg" width="48" height="48" version="1.1">
 <path fill="#11ab66" d="m14 4c-5.5228 0-10 4.4772-10 10 0.0048 2.7597 1.1499 5.3947 3.1641 7.2812-0.10341 0.27172-0.16406 0.57057-0.16406 0.88867v5.8301c-1.1046 0-2 0.89543-2 2s0.89543 2 2 2v5.8301c0 1.203 0.8217 2.17 1.8418 2.17h6.6738l-2.2988 2.4844c-0.623 0.674 0.156 1.516 1.402 1.516h14.762c0.913 0 1.647-0.471 1.619-1.041-0.008-0.167-0.083-0.33-0.217-0.475l-2.299-2.484h6.674c1.02 0 1.842-0.967 1.842-2.17v-5.3574l1.4941 0.92188 3.9902 2.4609c0.674 0.416 1.516-0.104 1.516-0.935v-9.842c0-0.608-0.472-1.096-1.041-1.078-0.16695 0.0055-0.33002 0.0552-0.47461 0.14453l-3.99 2.46-1.494 0.92v-5.355c0-0.316-0.06-0.613-0.162-0.883 2.015-1.888 3.159-4.526 3.162-7.287 0-5.5228-4.477-10-10-10-3.15 0.0048-6.114 1.4934-7.998 4.0176-1.885-2.5253-4.851-4.0141-8.002-4.0176z"/>
 <path opacity=".2" d="m14 10c-2.7496 0-5 2.2504-5 5s2.2504 5 5 5 5-2.2504 5-5-2.2504-5-5-5zm16 0c-2.7496 0-5 2.2504-5 5s2.2504 5 5 5 5-2.2504 5-5-2.2504-5-5-5zm-16 2c1.6687 0 3 1.3313 3 3s-1.3313 3-3 3-3-1.3313-3-3 1.3313-3 3-3zm16 0c1.6687 0 3 1.3313 3 3s-1.3313 3-3 3-3-1.3313-3-3 1.3313-3 3-3z"/>
 <path fill="#fff" d="m14 9c-2.75 0-5 2.25-5 5s2.25 5 5 5 5-2.25 5-5-2.25-5-5-5zm16 0c-2.75 0-5 2.25-5 5s2.25 5 5 5 5-2.25 5-5-2.25-5-5-5zm-16 2c1.669 0 3 1.331 3 3s-1.331 3-3 3-3-1.331-3-3 1.331-3 3-3zm16 0c1.669 0 3 1.331 3 3s-1.331 3-3 3-3-1.331-3-3 1.331-3 3-3z"/>
 <path fill="#fff" opacity=".2" d="m14 4c-5.5228 0-10 4.4772-10 10 0.0003 0.162 0.0173 0.321 0.0254 0.482 0.2707-5.2805 4.6264-9.482 9.9746-9.482 3.151 0.0035 6.117 1.4923 8.002 4.0176 1.884-2.5242 4.848-4.0128 7.998-4.0176 5.352 0 9.709 4.2067 9.975 9.492 0.008-0.164 0.025-0.327 0.025-0.492 0-5.5228-4.477-10-10-10-3.15 0.0048-6.114 1.4934-7.998 4.0176-1.885-2.5253-4.851-4.0141-8.002-4.0176zm-6.9941 18.115c-0.0005 0.019-0.0059 0.036-0.0059 0.055v1c0-0.318 0.0607-0.617 0.1641-0.889-0.0561-0.052-0.1036-0.112-0.1582-0.166zm29.99 0.008c-0.054 0.053-0.102 0.112-0.158 0.164 0.102 0.27 0.162 0.567 0.162 0.883v-1c0-0.016-0.004-0.031-0.004-0.047zm5.963 1.877c-0.167 0.006-0.33 0.055-0.475 0.145l-3.99 2.46-1.494 0.92v1l1.494-0.92 3.99-2.46c0.145-0.09 0.308-0.139 0.475-0.145 0.569-0.018 1.041 0.47 1.041 1.078v-1c0-0.608-0.472-1.096-1.041-1.078zm-35.959 4c-1.1046 0-2 0.895-2 2 0 0.174 0.0287 0.339 0.0703 0.5 0.2227-0.862 0.9984-1.5 1.9297-1.5v-1zm7.59 13l-1.373 1.484c-0.31 0.335-0.272 0.712-0.004 1.006 0.002-0.002 0.002-0.004 0.004-0.006l2.299-2.484h-0.926zm13.894 0l2.299 2.484 0.002 0.002c0.142-0.155 0.224-0.335 0.215-0.527-0.008-0.167-0.083-0.33-0.217-0.475l-1.373-1.484h-0.926z"/>
 <path opacity=".2" d="m4.0254 14.482c-0.0089 0.173-0.0254 0.343-0.0254 0.518 0.00467 2.6829 1.0949 5.2412 3.0059 7.1152 0.00669-0.29712 0.06091-0.57834 0.1582-0.83398-1.896-1.776-3.0091-4.217-3.1387-6.799zm35.949 0.0098c-0.13039 2.5797-1.2424 5.02-3.1367 6.7949 0.0968 0.25623 0.15244 0.53792 0.1582 0.83594 1.912-1.876 3.001-4.438 3.004-7.123 0-0.1716-0.01685-0.33833-0.02539-0.50781zm-34.904 16.008c-0.0416 0.161-0.0703 0.326-0.0703 0.5 0 1.1046 0.89543 2 2 2v-1c-0.9306 0-1.7064-0.639-1.9297-1.5zm31.93 1.973v1l1.4941 0.92188 3.9902 2.4609c0.674 0.415 1.516-0.105 1.516-0.936v-1c0 0.831-0.84162 1.3515-1.5156 0.93555l-3.99-2.461-1.494-0.922zm-30 5.3574v1c0 1.203 0.8217 2.17 1.8418 2.17h5.748l0.92578-1h-6.6738c-1.0201 0-1.8418-0.967-1.8418-2.17zm30 0c0 1.203-0.822 2.17-1.842 2.17h-6.6738l0.92578 1h5.748c1.02 0 1.842-0.967 1.842-2.17v-1zm-6.2168 5.6562c-0.278 0.305-0.798 0.514-1.402 0.514h-14.762c-0.626 0-1.134-0.213-1.406-0.51-0.613 0.673 0.164 1.51 1.406 1.51h14.762c0.913 0 1.647-0.471 1.619-1.041-0.008-0.16651-0.08353-0.32797-0.2168-0.47266z"/>
</svg>
