<?xml version="1.0" encoding="utf-8"?>
<!-- Generator: Adobe Illustrator 16.0.0, SVG Export Plug-In . SVG Version: 6.00 Build 0)  -->
<!DOCTYPE svg PUBLIC "-//W3C//DTD SVG 1.1//EN" "http://www.w3.org/Graphics/SVG/1.1/DTD/svg11.dtd">
<svg version="1.1" id="Capa_1" xmlns="http://www.w3.org/2000/svg" xmlns:xlink="http://www.w3.org/1999/xlink" x="0px" y="0px"
	 width="48px" height="48px" viewBox="0 0 48 48" enable-background="new 0 0 48 48" xml:space="preserve">
<g>
	<g id="Capa_2">
		<g opacity="0.2">
			<path d="M24.336,38.383c13.052,0,17.601-15.391,17.601-15.391c0,10.779-7.149,17.93-17.932,17.93
				c-9.902,0-17.93-8.027-17.93-17.93C6.075,22.994,11.353,38.383,24.336,38.383z"/>
			<path d="M28.733,32.119c-0.791,0.461-2.934,1.307-4.629,1.188c-2.067-0.143-3.44-0.654-3.44-0.654l-1.207-0.574l4.114-7.17
				l-2.825-1.885L9.649,42.059c0,0-0.121,0.15-0.125,0.215c-0.056,0.996,0.013,2.102,0.018,3.316c0,0.084,0.113,0.18,0.188,0.139
				c1.051-0.629,1.814-1.107,2.865-1.9c0.063-0.045,0.156-0.266,0.156-0.266l5.004-8.521c0,0,2.006,1.25,4.546,1.496
				c2.341,0.229,3.802,0.408,6.736-0.84c2.313-0.982,3.811-2.129,5.61-4.525c1.652-2.193,1.965-3.521,2.396-6.387
				c0.043-0.285,0.103-1.053,0.103-1.053h-3.367c0,0-0.174,1.83-0.48,2.793c-0.352,1.1-0.777,1.887-1.17,2.438
				C31.229,30.236,30.247,31.238,28.733,32.119z"/>
			<path d="M27.498,23.396l10.784,18.875c0,0,0.09,0.121,0.098,0.168c0.161,1.104,0.184,2.514,0.252,3.359
				c0.006,0.086-0.184,0.193-0.252,0.148c-0.816-0.488-2.104-1.229-2.841-1.924c-0.044-0.045-0.128-0.221-0.128-0.221L24.616,25.199
				L27.498,23.396z"/>
		</g>
		<circle fill="#86B951" cx="24.005" cy="21.991" r="17.931"/>
		<path fill="#93C756" d="M41.935,21.991c0,9.906-8.027,17.931-17.93,17.931s-17.93-8.027-17.93-17.931H41.935z"/>
		<g opacity="0.2">
			<path d="M33.851,36.979c-0.131,0.088-0.416,0.267-0.549,0.347c-0.107,0.064-0.434,0.253-0.543,0.317
				c-0.088,0.047-0.415,0.226-0.415,0.226l-7.728-13.393l2.882-1.803l7.64,13.374C34.754,36.344,34.544,36.524,33.851,36.979z"/>
			<path d="M12.773,35.969c0.31,0.236,1.309,0.969,1.551,1.117c0.148,0.092,0.807,0.484,0.957,0.57
				c0.116,0.066,0.385,0.213,0.385,0.213l2.002-3.41c0,0,2.007,1.252,4.546,1.498c2.341,0.227,3.801,0.408,6.738-0.84
				c2.312-0.984,3.81-2.129,5.609-4.525c1.651-2.195,1.969-3.523,2.396-6.391C37,23.918,37.06,23.15,37.06,23.15h-3.367
				c0,0-0.176,1.828-0.481,2.793c-0.353,1.098-0.776,1.885-1.169,2.438c-0.898,1.268-1.881,2.271-3.396,3.152
				c-0.791,0.459-2.934,1.305-4.629,1.186c-2.068-0.141-3.441-0.652-3.441-0.652l-1.206-0.574l2.87-5.002l1.244-2.166l-2.826-1.883
				L12.773,35.969"/>
			<g>
				<g>
					<path d="M27.231,17.054l-5.244,0.062c0,0-1.241-0.025-1.637,0.082c-0.23,0.062-0.656,0.317-0.818,0.49
						c-0.189,0.2-0.594,0.738-0.594,1.23c0,1.904,0,3.174,0,4.234c0,0.121,0.196,0.309,0.285,0.393
						c0.059,0.057,0.119,0.115,0.186,0.182l1.25-2.146l2.826,1.884l-1.576,2.744c0.533,0.531,1.014,1.018,1.328,1.328
						c0.146,0.148,0.572,0.281,0.776,0.287c0.242,0.008,0.75-0.117,0.923-0.287c0.315-0.313,0.764-0.75,1.25-1.227l-1.568-2.707
						l2.88-1.801l1.146,2.004c0.082-0.092,0.158-0.182,0.228-0.262c0.069-0.084,0.202-0.281,0.202-0.393c0-1,0-3.179,0-4.318
						c0.002-0.529-0.282-0.958-0.447-1.167c-0.141-0.181-0.553-0.446-0.78-0.491 M24.078,23.625c-1.334,0-2.417-1.082-2.417-2.416
						c0-1.334,1.083-2.416,2.417-2.416s2.418,1.082,2.418,2.416C26.496,22.545,25.412,23.625,24.078,23.625z"/>
				</g>
			</g>
		</g>
		<path fill="#E2E1E1" d="M27.498,21.5l10.784,18.876c0,0,0.09,0.119,0.098,0.166c0.161,1.104,0.184,2.514,0.252,3.359
			c0.006,0.084-0.184,0.193-0.252,0.145c-0.816-0.488-2.104-1.227-2.841-1.92c-0.044-0.047-0.128-0.223-0.128-0.223L24.616,23.303
			L27.498,21.5z"/>
		<path fill-opacity="0.2" d="M32.316,29.936l-2.486,2.352l0.904,1.558c0.955-0.551,1.762-1.245,2.596-2.136L32.316,29.936z"/>
		<path fill="#F2F2F2" d="M28.647,30.371c-0.791,0.463-2.935,1.309-4.629,1.189c-2.068-0.145-3.441-0.656-3.441-0.656L19.37,30.33
			l4.115-7.166l-2.825-1.883L9.562,40.314c0,0-0.121,0.15-0.125,0.215c-0.055,0.996,0.014,2.102,0.019,3.318
			c0,0.086,0.112,0.182,0.187,0.137c1.051-0.629,1.815-1.105,2.866-1.898c0.062-0.047,0.156-0.268,0.156-0.268l5.005-8.52
			c0,0,2.007,1.252,4.546,1.496c2.341,0.227,3.802,0.408,6.738-0.84c2.312-0.98,3.81-2.129,5.608-4.523
			c1.652-2.197,1.967-3.523,2.396-6.391c0.043-0.283,0.104-1.05,0.104-1.05h-3.369c0,0-0.174,1.828-0.48,2.792
			c-0.352,1.098-0.775,1.885-1.168,2.438C31.144,28.488,30.161,29.49,28.647,30.371z"/>
		<g opacity="0.2">
			<g>
				<path d="M23.39,23.321l-2.824-1.882l-0.922,1.585c0.729,0.721,1.711,1.688,2.498,2.475L23.39,23.321z"/>
			</g>
		</g>
		<polygon opacity="0.2" enable-background="new    " points="26.121,25.893 28.584,23.396 27.599,21.675 24.717,23.475 		"/>
		<g>
			<g>
				<path fill="#6F6F6E" d="M28.626,16.017c-0.143-0.18-0.555-0.445-0.78-0.491c-0.614-0.122-1.657-0.122-1.657-0.122l0.019-3.276
					h-4.239l0.02,3.338c0,0-1.239-0.025-1.637,0.082c-0.229,0.062-0.654,0.316-0.818,0.491c-0.188,0.2-0.594,0.736-0.594,1.229
					c0,1.904,0,3.174,0,4.234c0,0.121,0.199,0.308,0.287,0.393c1.016,0.986,3.144,3.125,4.012,3.996
					c0.146,0.145,0.572,0.279,0.779,0.283c0.242,0.01,0.748-0.113,0.922-0.283c0.939-0.943,3.024-2.926,3.933-3.996
					c0.071-0.084,0.202-0.282,0.202-0.393c0-1,0-3.178,0-4.317C29.073,16.653,28.79,16.227,28.626,16.017z M24.079,21.976
					c-1.335,0-2.416-1.082-2.416-2.416c0-1.335,1.081-2.417,2.416-2.417s2.419,1.081,2.419,2.417
					C26.496,20.894,25.414,21.976,24.079,21.976z"/>
			</g>
		</g>
		<path opacity="0.2" fill="#FFFFFF" enable-background="new    " d="M24,4.061c-9.938,0-17.937,8-17.937,17.938
			c0,0.07,0.006,0.143,0.011,0.213C6.299,12.474,14.205,5.061,24,5.061c9.793,0,17.698,7.413,17.925,17.15
			c0.003-0.071,0.01-0.143,0.01-0.217C41.935,12.061,33.938,4.061,24,4.061z"/>
		<g>
			<g opacity="0.1">
				<path fill="#FFFFFF" d="M28.616,16.017c-0.143-0.18-0.553-0.445-0.777-0.491c-0.613-0.122-1.659-0.122-1.659-0.122v0.551
					c0,0,0.515-0.004,1.212,0.043c0.668,0.044,1.096,0.238,1.393,0.654c0.248,0.348,0.283,0.535,0.283,0.535
					C29.067,16.653,28.78,16.227,28.616,16.017z"/>
			</g>
		</g>
		<g>
			<g opacity="0.1">
				<path fill="#FFFFFF" d="M20.344,15.548c-0.229,0.062-0.655,0.316-0.819,0.491c-0.188,0.2-0.594,0.736-0.594,1.229
					c0,0,0.057-0.174,0.397-0.557c0.348-0.388,0.696-0.608,1.129-0.675c0.635-0.098,1.524-0.058,1.524-0.058v-0.511
					C21.981,15.466,20.739,15.441,20.344,15.548z"/>
			</g>
		</g>
	</g>
	<g id="Capa_3">
		<rect x="21.971" y="12.127" opacity="0.1" fill="#FFFFFF" enable-background="new    " width="4.235" height="0.644"/>
	</g>
	<path opacity="0.1" fill="#FFFFFF" enable-background="new    " d="M24.078,22.502c-2.585,0-2.407-2.941-2.407-2.941
		c0,1.33,1.079,2.409,2.408,2.409c1.333,0,2.41-1.079,2.41-2.409C26.489,19.561,26.723,22.502,24.078,22.502z"/>
</g>
</svg>
