<svg width="48" height="48" version="1" xmlns="http://www.w3.org/2000/svg">
 <rect x="6.0000153" y="4.5000572" width="35.999912" height="39.000004" style="fill:#ffffff"/>
 <path d="m9.000006 1.5000701v3.0000051h29.999924v-3.0000051zm29.999924 3.0000051v2.9999973h2.99999v-2.9999973zm2.99999 2.9999973v32.999906h3v-32.999906zm0 32.999906h-2.99999v3.000003h2.99999zm-2.99999 3.000003h-29.999924v3.000018h29.999924zm-29.999924 0v-3.000003h-3.000018v3.000003zm-3.000018-3.000003v-32.999906h-2.999988v32.999906zm0-32.999906h3.000018v-2.9999973h-3.000018zm8.999978 5.9999925v11.999972h2.999999v-11.999972zm14.999995 0v11.999972h2.999996v-11.999972z" style="fill:#5c3e52"/>
 <path d="m5.999988 34.500034v5.999945h3.000018v3.000003h29.999924v-3.000003h2.99999v-5.999945h-2.99999v2.999976h-29.999924v-2.999976z" style="fill:#6d8292"/>
 <rect x="3" y="7.4998693" width="2.99999" height="1" style="opacity:.2"/>
 <rect x="6.0000153" y="4.4998593" width="2.99999" height="1" style="opacity:.2"/>
 <rect x="38.999878" y="4.4998593" width="2.99999" height="1" style="opacity:.2"/>
 <rect x="42.000023" y="7.4998693" width="2.99999" height="1" style="opacity:.2"/>
 <rect x="6.0000153" y="34.489784" width="2.99999" height="1" style="opacity:.2"/>
 <rect x="6.0000153" y="40.49971" width="2.99999" height="1" style="opacity:.2"/>
 <rect x="38.999878" y="34.489784" width="2.99999" height="1" style="opacity:.2"/>
 <rect x="38.999878" y="40.49971" width="2.99999" height="1" style="opacity:.2"/>
 <rect x="9.0000153" y="37.499977" width="29.999924" height="1" style="opacity:.2"/>
 <rect x="9.0000153" y="43.5" width="29.999924" height="1" style="opacity:.2"/>
 <path d="m14.999966 26.499827v-1h2.999999v1zm14.999995 0v-1h2.999996v1z" style="opacity:.2"/>
 <rect x="9.0000153" y="1.4998958" width="29.999924" height="1" style="opacity:.2"/>
 <path d="m5.999988 1.5000701v3.0000051h3.000018v-3.0000051zm0 3.0000051h-2.999988v2.9999973h2.999988zm32.999942-3.0000051v3.0000051h2.99849v-3.0000051zm2.99849 3.0000051v2.9999973h3.0015v-2.9999973zm-38.99842 35.999904v3.000003h2.999988v-3.000003zm2.999988 3.000003v3.000018h3.000018v-3.000018zm35.998432-3.000003v3.000003h3.0015v-3.000003zm0 3.000003h-2.99849v3.000018h2.99849z" style="fill:#5c3e52;opacity:.8"/>
</svg>
