<svg xmlns="http://www.w3.org/2000/svg" width="48" height="48" version="1.1">
 <g transform="translate(0,-284.29999)">
  <path style="opacity:0.2" d="m 7,303.79999 v 17.5 h 0.050781 c -0.032097,0.16619 -0.049042,0.33303 -0.050781,0.5 0,3.03757 4.924868,5.5 11,5.5 6.075132,0 11,-2.46243 11,-5.5 -0.003,-0.167 -0.02129,-0.33384 -0.05469,-0.5 H 29 v -17.5 z"/>
  <path style="fill:#1672b9" d="m 7,302.79999 v 17.5 h 0.050781 c -0.032097,0.16619 -0.049042,0.33303 -0.050781,0.5 0,3.03757 4.924868,5.5 11,5.5 6.075132,0 11,-2.46243 11,-5.5 -0.003,-0.167 -0.02129,-0.33384 -0.05469,-0.5 H 29 v -17.5 z"/>
  <ellipse style="opacity:0.2" cx="18" cy="303.8" rx="11" ry="5.5"/>
  <ellipse style="fill:#c5e636" cx="18" cy="302.8" rx="11" ry="5.5"/>
  <path style="opacity:0.2;fill:#ffffff" d="m 18,297.29999 a 11,5.5 0 0 0 -11,5.5 11,5.5 0 0 0 0.050781,0.48633 A 11,5.5 0 0 1 18,298.29999 11,5.5 0 0 1 28.949219,303.31366 11,5.5 0 0 0 29,302.79999 a 11,5.5 0 0 0 -11,-5.5 z"/>
  <path style="opacity:0.2" d="m 29.5,289.29999 a 6.5,6.5 0 0 0 -5.570312,3.16406 6.5,6.5 0 0 0 -1.429688,-0.16406 6.5,6.5 0 0 0 -6.5,6.5 6.5,6.5 0 0 0 6,6.47461 V 305.3 h 0.5 14 0.5 v -0.0332 a 4.5,4.5 0 0 0 4,-4.4668 4.5,4.5 0 0 0 -4.5,-4.5 4.5,4.5 0 0 0 -0.527344,0.0371 6.5,6.5 0 0 0 0.02734,-0.53711 6.5,6.5 0 0 0 -6.5,-6.5 z"/>
  <circle style="fill:#5cc9ed" cx="22.5" cy="297.8" r="6.5"/>
  <circle style="fill:#5cc9ed" cx="29.5" cy="294.8" r="6.5"/>
  <circle style="fill:#5cc9ed" cx="36.5" cy="299.8" r="4.5"/>
  <rect style="fill:#5cc9ed" width="15" height="6" x="22" y="298.3"/>
  <circle style="opacity:0.2" cx="34" cy="320.3" r="11"/>
  <circle style="fill:#013fa4" cx="34" cy="319.3" r="11"/>
  <path style="fill:#ffffff" d="m 32.488281,313.29804 -0.002,0.004 h 0.002 z m 0,0.004 -0.132812,1.57812 a 4.7567,4.7143 0 0 0 -1.390625,0.79688 l -1.449219,-0.67774 -1.513672,2.59961 1.316406,0.9043 a 4.7567,4.7143 0 0 0 -0.07422,0.79688 4.7567,4.7143 0 0 0 0.07031,0.79687 L 28,321.00116 l 1.513672,2.59766 1.445312,-0.67383 a 4.7567,4.7143 0 0 0 1.392578,0.79102 l 0.134766,1.58398 h 3.025391 l 0.134765,-1.58008 a 4.7567,4.7143 0 0 0 1.388672,-0.79687 l 1.451172,0.67578 1.511719,-2.59766 -1.314453,-0.90625 a 4.7567,4.7143 0 0 0 0.07226,-0.79492 4.7567,4.7143 0 0 0 -0.07031,-0.79883 L 40,317.60077 l -1.513672,-2.59766 -1.447266,0.67383 a 4.7567,4.7143 0 0 0 -1.392578,-0.79101 l -0.132812,-1.58399 H 32.488281 Z M 34,317.29999 a 2,2 0 0 1 2,2 2,2 0 0 1 -2,2 2,2 0 0 1 -2,-2 2,2 0 0 1 2,-2 z"/>
  <path style="opacity:0.2;fill:#ffffff" d="m 29.5,288.29999 a 6.5,6.5 0 0 0 -5.570312,3.16406 6.5,6.5 0 0 0 -1.429688,-0.16406 6.5,6.5 0 0 0 -6.5,6.5 6.5,6.5 0 0 0 0.02344,0.4707 6.5,6.5 0 0 1 6.476562,-5.9707 6.5,6.5 0 0 1 1.429688,0.16406 6.5,6.5 0 0 1 5.570312,-3.16406 6.5,6.5 0 0 1 6.474609,6.00195 6.5,6.5 0 0 0 0.02539,-0.50195 6.5,6.5 0 0 0 -6.5,-6.5 z m 7,7 a 4.5,4.5 0 0 0 -0.523438,0.0371 6.5,6.5 0 0 1 0.02344,0.46289 6.5,6.5 0 0 1 -0.02734,0.53711 4.5,4.5 0 0 1 0.527344,-0.0371 4.5,4.5 0 0 1 4.466797,3.98828 4.5,4.5 0 0 0 0.0332,-0.48828 4.5,4.5 0 0 0 -4.5,-4.5 z"/>
 </g>
</svg>
