<svg xmlns="http://www.w3.org/2000/svg" width="48" height="48" version="1">
 <path style="opacity:0.2" d="m 24.108302,5.000997 a 4.5656761,4.5479 0 0 0 -2.39104,0.6067 l -13.434224,7.726 A 4.5656761,4.5479 0 0 0 6,17.272697 v 15.453 a 4.5656761,4.5479 0 0 0 2.282838,3.9386 l 13.434224,7.7264 a 4.5656761,4.5479 0 0 0 4.565676,0 l 13.434224,-7.7264 A 4.5656761,4.5479 0 0 0 42,32.725297 v -15.453 a 4.5656761,4.5479 0 0 0 -2.283038,-3.939 l -13.434224,-7.726 a 4.5656761,4.5479 0 0 0 -2.175036,-0.6067 z"/>
 <path style="fill:#a86743" d="M 24.107422 4 L 24.107422 4.0019531 A 4.5656761 4.5479 0 0 0 21.716797 4.6074219 L 8.2832031 12.333984 A 4.5656761 4.5479 0 0 0 6 16.273438 L 6 31.726562 A 4.5656761 4.5479 0 0 0 8.2832031 35.664062 L 21.716797 43.390625 A 4.5656761 4.5479 0 0 0 26.283203 43.390625 L 39.716797 35.664062 A 4.5656761 4.5479 0 0 0 42 31.726562 L 42 16.273438 A 4.5656761 4.5479 0 0 0 39.716797 12.333984 L 26.283203 4.6074219 A 4.5656761 4.5479 0 0 0 24.107422 4 z"/>
 <path style="fill:#cc8342" d="M 24 4.0039062 A 4.5656761 4.5479 0 0 0 21.716797 4.6074219 L 8.2832031 12.333984 A 4.5656761 4.5479 0 0 0 6 16.273438 L 6 31.726562 A 4.5656761 4.5479 0 0 0 8.2832031 35.664062 L 21.716797 43.390625 A 4.5656761 4.5479 0 0 0 24 43.996094 L 24 4.0039062 z"/>
 <path style="opacity:0.5;fill:#2e0000" d="M 24.107422 4 L 24.107422 4.0019531 A 4.5656761 4.5479 0 0 0 21.716797 4.6074219 L 8.2832031 12.333984 A 4.5656761 4.5479 0 0 0 6.1875 15.001953 A 4.5656761 4.5479 0 0 0 8.2832031 17.664062 L 21.716797 25.390625 A 4.5656761 4.5479 0 0 0 26.283203 25.390625 L 39.716797 17.664062 A 4.5656761 4.5479 0 0 0 41.8125 14.994141 A 4.5656761 4.5479 0 0 0 39.716797 12.333984 L 26.283203 4.6074219 A 4.5656761 4.5479 0 0 0 24.107422 4 z"/>
 <path style="opacity:0.1;fill:#ffffff" d="m 24.106698,4.002 a 4.5655239,4.5479 0 0 0 -2.38996,0.6054 L 8.2829619,12.334 A 4.5655239,4.5479 0 0 0 6,16.273 v 1 A 4.5655239,4.5479 0 0 1 8.2831619,13.334 L 21.716938,5.6074 a 4.5655239,4.5479 0 0 1 2.39056,-0.60547 4.5655239,4.5479 0 0 1 2.175764,0.60547 L 39.717038,13.334 A 4.5655239,4.5479 0 0 1 42,17.273 v -1 A 4.5655239,4.5479 0 0 0 39.717038,12.334 L 26.283262,4.6074 A 4.5655239,4.5479 0 0 0 24.107298,4.002 Z"/>
 <path style="opacity:0.1;fill:#ffffff" d="M 41.628906 15.494141 A 4.5656761 4.5479 0 0 1 39.716797 17.664062 L 26.283203 25.390625 A 4.5656761 4.5479 0 0 1 21.716797 25.390625 L 8.2832031 17.664062 A 4.5656761 4.5479 0 0 1 6.3710938 15.503906 A 4.5656761 4.5479 0 0 0 6.1875 16.001953 A 4.5656761 4.5479 0 0 0 8.2832031 18.664062 L 21.716797 26.390625 A 4.5656761 4.5479 0 0 0 26.283203 26.390625 L 39.716797 18.664062 A 4.5656761 4.5479 0 0 0 41.8125 15.994141 A 4.5656761 4.5479 0 0 0 41.628906 15.494141 z"/>
 <rect style="opacity:0.2" width="18" height="18" x="15" y="5" rx="9" ry="9"/>
 <rect style="fill:#206fe4" width="18" height="18" x="15" y="4" rx="9" ry="9"/>
 <path style="fill:#c6ff87" d="m 24,7.0000034 c -3.313715,0 -6,2.686285 -6,6.0000006 0,3.313715 2.686285,6 6,6 3.313715,0 6,-2.686285 6,-6 0,-3.3137156 -2.686285,-6.0000006 -6,-6.0000006 z m -0.601004,1.146763 c 0.06996,-0.0073 0.158774,0.0042 0.229352,0 0.0084,0.03346 -0.05079,0.15222 -0.130575,0.326451 -0.508024,1.109823 -0.536781,2.4107586 -0.0653,3.1054706 0.08532,0.125954 0.162389,0.245577 0.162389,0.261159 0,0.01557 -0.09183,0.03181 -0.195871,0.03181 -0.244236,0 -0.475311,-0.14838 -0.947546,-0.522322 -0.209782,-0.166118 -0.481951,-0.305332 -0.587611,-0.326452 -0.165919,-0.03315 -0.210578,-0.0188 -0.425221,0.195871 -0.199709,0.199672 -0.261162,0.307718 -0.261162,0.490514 0,0.693185 0.82246,1.242716 2.352121,1.566964 2.077337,0.440279 2.589464,0.836232 2.646762,1.928572 0.07194,1.369764 -0.657729,2.40298 -2.255022,3.202566 -0.190647,0.09548 -0.311753,0.131535 -0.39174,0.162389 -0.03544,-0.0032 -0.06178,0.0031 -0.09711,0 -0.01365,-0.04236 -0.03348,-0.14028 -0.03348,-0.32645 0,-0.727524 -0.286089,-1.476318 -0.718192,-1.895091 -0.11599,-0.11242 -0.441752,-0.35016 -0.719865,-0.522321 -0.278105,-0.172152 -0.558566,-0.371712 -0.621095,-0.457033 -0.103623,-0.141584 -0.111417,-0.228949 -0.03181,-0.490513 0.145095,-0.477713 0.317174,-0.744476 0.652902,-1.046316 0.176009,-0.158245 0.35275,-0.289798 0.391742,-0.292969 0.039,-0.0031 -0.223547,-0.08309 -0.619421,-0.164063 -0.395851,-0.08113 -0.976277,-0.251575 -1.275669,-0.359932 -0.547467,-0.198095 -1.28517,-0.61309 -1.566965,-0.914062 -0.01185,-0.01275 -0.02313,-0.02219 -0.03348,-0.03348 0.403746,-1.608269 1.536469,-2.9256086 3.038505,-3.5608256 0.314282,-0.13293 0.639025,-0.224691 0.981028,-0.294642 0.170352,-0.03481 0.346427,-0.04741 0.52232,-0.0653 z m 4.901787,2.4508946 c 0.122804,0.0759 0.585824,1.079286 0.71819,1.568638 0.170897,0.631755 0.158526,1.724537 0,2.352121 -0.06033,0.238861 -0.136665,0.462698 -0.162388,0.490513 -0.02573,0.02782 -0.119625,-0.132 -0.229352,-0.326451 -0.109736,-0.194423 -0.460377,-0.608376 -0.751676,-0.915736 -0.840826,-0.887244 -0.9733,-1.349385 -0.621094,-2.057479 0.177621,-0.357068 0.951271,-1.170269 1.04632,-1.111606 z"/>
 <path style="fill:#ffffff;opacity:0.2" d="M 24 4 C 19.014 4 15 8.014 15 13 C 15 13.169016 15.016284 13.333336 15.025391 13.5 C 15.284923 8.7500577 19.183016 5 24 5 C 28.816984 5 32.715077 8.7500577 32.974609 13.5 C 32.983716 13.333336 33 13.169016 33 13 C 33 8.014 28.986 4 24 4 z"/>
</svg>
