<svg xmlns="http://www.w3.org/2000/svg" width="48" height="48" version="1.1">
 <path style="opacity:0.2" d="M 33.201172,21 C 32.352464,25.123894 30.51936,28.818667 27.949219,31.615234 21.726039,37.465886 15.167863,39.167226 8.5039062,40.236328 5.2429897,40.769124 3,41.237128 3,42.361328 3,44.139106 10.56,45 24,45 40.99147,45 41.034341,35.029309 41,26.041016 V 21 c 0,0 -8,0 -7.798828,0 z"/>
 <path style="fill:#3f3f3f" d="M 33.201172,20 C 32.352464,24.123894 30.51936,27.818667 27.949219,30.615234 21.726039,36.465886 15.167863,38.167226 8.5039062,39.236328 5.2429897,39.769124 3,40.237128 3,41.361328 3,43.139106 10.56,44 24,44 40.99147,44 41.034341,34.029309 41,25.041016 V 20 c 0,0 -8,0 -7.798828,0 z"/>
 <path style="opacity:0.2" d="m 43,5 a 2,2 0 0 0 -2,2 v 7.351562 A 6,6 0 0 0 39,14 6,6 0 0 0 36,14.8125 V 11 A 2,2 0 0 0 38,9 2,2 0 0 0 36,7 2,2 0 0 0 34,9 v 7.691406 A 6,6 0 0 0 33,20 a 6,6 0 0 0 6,6 6,6 0 0 0 6,-6 6,6 0 0 0 -2,-4.464844 V 9 A 2,2 0 0 0 45,7 2,2 0 0 0 43,5 Z"/>
 <circle style="fill:#4f4f4f" cx="39" cy="19" r="6"/>
 <path style="fill:#4f4f4f" d="m 36,6 a 2,2 0 0 0 -2,2 v 11 h 2 V 10 A 2,2 0 0 0 38,8 2,2 0 0 0 36,6 Z"/>
 <path style="fill:#4f4f4f" d="m 43,4 a 2,2 0 0 0 -2,2 v 11 h 2 V 8 A 2,2 0 0 0 45,6 2,2 0 0 0 43,4 Z"/>
 <circle style="opacity:0.2" cx="17" cy="26" r="14"/>
 <circle style="fill:#af2158" cx="17" cy="25" r="14"/>
 <path style="opacity:0.2;fill:none;stroke:#000000;stroke-width:1.94000006" d="m 17.870085,26.000189 c -0.263036,-0.455592 0.484356,-0.579341 0.757224,-0.437183 0.739455,0.385237 0.596004,1.426166 0.117142,1.951631 -0.856571,0.939934 -2.355948,0.675178 -3.146039,-0.202898 -1.15949,-1.288613 -0.760349,-3.299664 0.52294,-4.340447 1.710422,-1.387201 4.248496,-0.848295 5.534854,0.842981 1.61875,2.128297 0.93772,5.199811 -1.163022,6.729261 -2.544279,1.85237 -6.152533,1.02801 -7.923669,-1.483062 -2.087223,-2.959213 -1.118845,-7.106133 1.803104,-9.118077 3.373505,-2.32287 8.060318,-1.210043 10.312484,2.123145 2.559054,3.787379 1.301494,9.014915 -2.443186,11.506891 -4.200964,2.795622 -9.969811,1.39313 -12.7012991,-2.763226 C 6.5081487,26.194862 8.0557162,19.884271 12.623886,16.913498"/>
 <path style="fill:none;stroke:#ffffff;stroke-width:1.94004619" d="m 17.870085,25.000166 c -0.263036,-0.455592 0.484356,-0.579341 0.757224,-0.437183 0.739455,0.385237 0.596004,1.426166 0.117142,1.951631 -0.856571,0.939935 -2.355948,0.675178 -3.146039,-0.202898 -1.15949,-1.288613 -0.760349,-3.299663 0.52294,-4.340447 1.710422,-1.387201 4.248496,-0.848294 5.534854,0.842981 1.61875,2.128297 0.93772,5.199811 -1.163022,6.729262 -2.544279,1.852369 -6.152533,1.028009 -7.923669,-1.483063 -2.087223,-2.959213 -1.118845,-7.106133 1.803104,-9.118077 3.373505,-2.32287 8.060318,-1.210043 10.312484,2.123145 2.559054,3.787379 1.301494,9.014915 -2.443186,11.506892 C 18.040953,35.36803 12.272106,33.965538 9.5406179,29.809182 6.5081487,25.194839 8.0557162,18.884248 12.623886,15.913475"/>
 <path style="opacity:0.2;fill:#ffffff" d="M 17 11 A 14 14 0 0 0 3 25 A 14 14 0 0 0 3.0214844 25.585938 A 14 14 0 0 1 17 12 A 14 14 0 0 1 30.978516 25.414062 A 14 14 0 0 0 31 25 A 14 14 0 0 0 17 11 z"/>
 <path style="opacity:0.1;fill:#ffffff" d="M 43 4 A 2 2 0 0 0 41 6 L 41 7 A 2 2 0 0 1 43 5 A 2 2 0 0 1 44.935547 6.5039062 A 2 2 0 0 0 45 6 A 2 2 0 0 0 43 4 z M 36 6 A 2 2 0 0 0 34 8 L 34 9 A 2 2 0 0 1 36 7 A 2 2 0 0 1 37.935547 8.5039062 A 2 2 0 0 0 38 8 A 2 2 0 0 0 36 6 z M 39 13 A 6 6 0 0 0 36 13.8125 L 36 14.8125 A 6 6 0 0 1 39 14 A 6 6 0 0 1 41 14.351562 L 41 13.351562 A 6 6 0 0 0 39 13 z M 43 14.535156 L 43 15.535156 A 6 6 0 0 1 44.974609 19.507812 A 6 6 0 0 0 45 19 A 6 6 0 0 0 43 14.535156 z M 34 15.691406 A 6 6 0 0 0 33 19 A 6 6 0 0 0 33.023438 19.480469 A 6 6 0 0 1 34 16.691406 L 34 15.691406 z"/>
 <path style="opacity:0.3" d="m 37,17.000094 a 2,2 0 0 0 -2,2 A 2,2 0 0 0 35.064453,19.504 2,2 0 0 1 37,18.000094 2,2 0 0 1 38.935547,19.496188 2,2 0 0 0 39,19.000094 a 2,2 0 0 0 -2,-2 z"/>
 <path style="opacity:0.3" d="m 42,17.000094 a 2,2 0 0 0 -2,2 A 2,2 0 0 0 40.06445,19.504 2,2 0 0 1 42,18.000094 2,2 0 0 1 43.935547,19.496188 2,2 0 0 0 44,19.000094 a 2,2 0 0 0 -2,-2 z"/>
</svg>
