<svg xmlns="http://www.w3.org/2000/svg" width="48" height="48" version="1.1">
 <circle style="opacity:0.2" cx="24" cy="25" r="20"/>
 <circle style="fill:#3f3f3f" cx="24" cy="24" r="20"/>
 <path style="opacity:0.2" d="m 21.333984,15.966813 c -4,0.444444 -6.888672,3.255859 -6.888672,7.255859 v 0.666016 L 6.6660156,29.000016 C 8.2215712,35.666683 13.333333,40.778445 20,42.334 c 0.666667,-0.666666 1.110677,-1.333767 1.777344,-2.222656 2,-2.888889 2.888672,-6.000651 2.888672,-9.333984 0,-2.666667 0.889757,-5.111328 2.445312,-7.111328 1.555556,-2.222223 3.776694,-3.111328 6.44336,-3.111328 1.555555,-1e-6 2.889322,0.223524 4.222656,0.667968 -1.333334,-0.888889 -2.887804,-1.555555 -4.44336,-2 -0.888889,-0.222222 -1.77908,-0.222656 -2.667968,-0.222656 -0.666667,0 -1.333334,4.34e-4 -2,0.222656 -1.333334,-2.222222 -3.776693,-3.255859 -6.44336,-3.255859 z M 25,18.000016 a 1,1 0 0 1 1,1 1,1 0 0 1 -1,1 1,1 0 0 1 -1,-1 1,1 0 0 1 1,-1 z"/>
 <path style="opacity:0.1;fill:#ffffff" d="M 24,4 A 20,20 0 0 0 4,24 20,20 0 0 0 4.0215,24.582 20,20 0 0 1 24,5 20,20 0 0 1 43.979,24.418 20,20 0 0 0 44,24 20,20 0 0 0 24,4 Z"/>
 <path style="fill:#ffffff" d="M 21.333984 14.966797 C 17.333984 15.411241 14.445312 18.222656 14.445312 22.222656 L 14.445312 22.888672 L 6.6660156 28 C 8.2215712 34.666667 13.333333 39.778429 20 41.333984 C 20.666667 40.667318 21.110677 40.000217 21.777344 39.111328 C 23.777344 36.222439 24.666016 33.110677 24.666016 29.777344 C 24.666016 27.110677 25.555773 24.666016 27.111328 22.666016 C 28.666884 20.443793 30.888022 19.554688 33.554688 19.554688 C 35.110243 19.554687 36.44401 19.778212 37.777344 20.222656 C 36.44401 19.333767 34.88954 18.667101 33.333984 18.222656 C 32.445095 18.000434 31.554904 18 30.666016 18 C 29.999349 18 29.332682 18.000434 28.666016 18.222656 C 27.332682 16.000434 24.889323 14.966797 22.222656 14.966797 L 21.333984 14.966797 z M 25 17 A 1 1 0 0 1 26 18 A 1 1 0 0 1 25 19 A 1 1 0 0 1 24 18 A 1 1 0 0 1 25 17 z"/>
</svg>
