<svg width="48" height="48" version="1.1" xmlns="http://www.w3.org/2000/svg">
 <rect x="4" y="5" width="40" height="40" ry="6" style="opacity:.2"/>
 <rect x="4" y="4" width="40" height="40" ry="6" style="fill:#2a8fdb"/>
 <path d="m23 11.242376c-0.01639 0.0083-0.03267 0.01672-0.04883 0.02539l-10.902344 6c-0.649382 0.35722-1.049274 1.017746-1.048826 1.732422v3c0 0.973188 0.204161 1.08584 0.970703 1.554688l5.029297 2.767578v-4.929688l6-3.302734zm2 0v6.847656l6 3.302734v2e-3l6 3.302735v-5.697313c4.48e-4 -0.714676-0.399442-1.375202-1.048828-1.732422l-10.902344-6c-0.016158-0.008669-0.032435-0.017133-0.048828-0.02539zm6 12.435546v4.929688l-6 3.302734v6.847656c0.01639-0.0083 0.03267-0.01672 0.04883-0.02539l10.902344-6c0.649382-0.35722 1.049274-1.017746 1.048826-1.732422v-3c0-0.973188-0.204161-1.08584-0.970703-1.554688zm-20 1.625v5.697266c-4.48e-4 0.714676 0.399442 1.375202 1.048828 1.732422l10.902344 6c0.01616 0.0087 0.032428 0.017131 0.048828 0.02539v-6.847656l-6-3.302734v-2e-3z" style="opacity:.2"/>
 <path d="m23 10.242188c-0.01639 0.0083-0.032668 0.01672-0.048828 0.02539l-10.902344 6c-0.649384 0.35722-1.049276 1.017746-1.048828 1.732422v3c0 0.973188 0.204161 1.08584 0.970703 1.554688l5.029297 2.767578v-4.929688l6-3.302734v-6.847656zm2 0v6.847656l6 3.302734v0.001953l6 3.302735v-5.697266c4.48e-4 -0.714676-0.399442-1.375202-1.048828-1.732422l-10.902344-6c-0.016158-0.008669-0.032435-0.017133-0.048828-0.02539zm6 12.435546v4.929688l-6 3.302734v6.847656c0.01639-0.008299 0.032668-0.01672 0.048828-0.02539l10.902344-6c0.649384-0.35722 1.049276-1.017746 1.048828-1.732422v-3c0-0.973188-0.204161-1.08584-0.970703-1.554688l-5.029297-2.767578zm-20 1.625v5.697266c-4.48e-4 0.714676 0.399442 1.375202 1.048828 1.732422l10.902344 6c0.01616 0.0087 0.032428 0.017131 0.048828 0.02539v-6.847656l-6-3.302734v-0.001953l-6-3.302735z" style="fill:#ffffff"/>
 <path d="m10 4c-3.324 0-6 2.676-6 6v1c0-3.324 2.676-6 6-6h28c3.324 0 6 2.676 6 6v-1c0-3.324-2.676-6-6-6z" style="fill:#ffffff;opacity:.2"/>
</svg>
