<svg xmlns="http://www.w3.org/2000/svg" width="48" height="48" version="1">
 <path style="fill:#3285b8" d="m24 4c-11.08 0-20 8.92-20 20s8.92 20 20 20 20-8.92 20-20-8.92-20-20-20z"/>
 <path fill="#fff" style="opacity:0.1" d="m24 4c-11.08 0-20 8.92-20 20 0 0.168-0.004 0.333 0 0.5 0.2644-10.846 9.088-19.5 20-19.5s19.736 8.654 20 19.5c0.004-0.167 0-0.332 0-0.5 0-11.08-8.92-20-20-20z"/>
 <path opacity=".2" d="m4.0117 24.5c-0.0041 0.167-0.0117 0.332-0.0117 0.5 0 11.08 8.92 20 20 20s20-8.92 20-20c0-0.168-0.008-0.333-0.012-0.5-0.264 10.846-9.076 19.5-19.988 19.5s-19.724-8.654-19.988-19.5z"/>
 <path style="opacity:0.2" d="M 24,10 C 15.69,10 9,16.69 9,25 9,33.31 15.69,40 24,40 32.31,40 39,33.31 39,25 39,16.69 32.31,10 24,10 Z"/>
 <path style="fill:#40bc6d" d="m24 9c-8.31 0-15 6.69-15 15s6.69 15 15 15 15-6.69 15-15-6.69-15-15-15z"/>
 <path opacity=".2" d="m24 15c-5.54 0-10 4.46-10 10s4.46 10 10 10 10-4.46 10-10-4.46-10-10-10z"/>
 <path style="fill:#e9bf1c" d="m24 14c-5.54 0-10 4.46-10 10s4.46 10 10 10 10-4.46 10-10-4.46-10-10-10z"/>
 <path style="opacity:0.1" d="m 24,20 c -2.77,0 -5,2.23 -5,5 0,2.77 2.23,5 5,5 2.77,0 5,-2.23 5,-5 0,-2.77 -2.23,-5 -5,-5 z"/>
 <path style="fill:#dc5b4b" d="m24 19c-2.77 0-5 2.23-5 5s2.23 5 5 5 5-2.23 5-5-2.23-5-5-5z"/>
</svg>
