<svg xmlns="http://www.w3.org/2000/svg" width="48" height="48" version="1.1">
 <path style="opacity:0.2" d="M 6.8691406,9 A 2.8626769,2.9018174 0 0 0 4,11.908203 V 38.091797 C 4,39.70416 5.2785254,41 6.8691406,41 H 24 24.628906 38 v -4 h 6 V 13 H 38 V 9 H 24.628906 24 Z"/>
 <path style="fill:#1e88e5" d="M 6.8698608,8.0000091 A 2.8626769,2.9018174 0 0 0 4.0000093,10.909099 V 37.09091 C 4.0000093,38.703273 5.2792456,40 6.8698608,40 H 24.628502 V 8.0000091 Z m 0,0"/>
 <path style="opacity:0.2" d="M 15,17.50053 C 15,19.433137 13.433136,21 11.49947,21 9.5665102,21 8,19.433137 8,17.50053 8,15.566863 9.5668635,14 11.49947,14 A 3.4998233,3.4998233 0 0 1 15,17.50053 Z m 0,0"/>
 <path style="fill:#ff3737" d="M 15,16.50053 C 15,18.433137 13.433136,20 11.49947,20 9.5665102,20 8,18.433137 8,16.50053 8,14.566863 9.5668635,13 11.49947,13 A 3.4998233,3.4998233 0 0 1 15,16.50053 Z m 0,0"/>
 <path style="opacity:0.2" d="m 19.307991,17.50053 c 0,1.932607 -1.567923,3.49947 -3.500529,3.49947 -1.932607,0 -3.500531,-1.566863 -3.500531,-3.49947 0,-1.933667 1.567571,-3.50053 3.500531,-3.50053 1.93296,0 3.500529,1.566863 3.500529,3.50053 z m 0,0"/>
 <path style="fill:#ffc025" d="m 19.307991,16.50053 c 0,1.932607 -1.567923,3.49947 -3.500529,3.49947 -1.932607,0 -3.500531,-1.566863 -3.500531,-3.49947 0,-1.933667 1.567571,-3.50053 3.500531,-3.50053 1.93296,0 3.500529,1.566863 3.500529,3.50053 z m 0,0"/>
 <path style="fill:#ff872b" d="m 13.650108,13.743854 a 3.5054773,3.5054773 0 0 0 -1.343177,2.756676 3.5033571,3.5033571 0 0 0 1.349892,2.755263 3.5008835,3.5008835 0 0 0 1.342823,-2.755263 3.4998233,3.4998233 0 0 0 -1.349891,-2.756323 z m 0,0"/>
 <path style="fill:#9a9996" d="m 8,33 h 12 v 3 H 8 Z m 0,0"/>
 <path style="fill:#deddda" d="m 8,29 h 7 v 2 H 8 Z m 0,0"/>
 <path style="fill:#2196f3" d="M 24.000722,8.0000046 V 39.999995 H 38 V 36 h 6 V 12 H 38 V 8.0000046 Z"/>
 <path style="opacity:0.15" d="m 26,24 h 6 v 6 h -6 z m 0,0"/>
 <path style="fill:#ffffff;opacity:0.2" d="m 32,24 h 6.000001 v 6 H 32 Z m 0,0"/>
 <path style="fill:#ffffff;opacity:0.2" d="m 26,30 h 6 v 6 h -6 z m 0,0"/>
 <path style="opacity:0.15" d="m 32,30 h 6.000001 v 6 H 32 Z m 0,0"/>
 <path style="opacity:0.2;fill:none;stroke:#000000;stroke-width:4;stroke-linecap:round" d="m 24,6.999515 v 36"/>
 <path style="fill:none;stroke:#e4e4e4;stroke-width:4;stroke-linecap:round" d="M 24,6 V 42"/>
 <rect style="opacity:0.2" width="7" height="1" x="8" y="31"/>
 <rect style="opacity:0.2" width="12" height="1" x="8" y="36"/>
 <path style="fill:#ffffff;opacity:0.2" d="M 6.8691406 8 A 2.8626769 2.9018174 0 0 0 4 10.908203 L 4 11.908203 A 2.8626769 2.9018174 0 0 1 6.8691406 9 L 24 9 L 24.628906 9 L 38 9 L 38 8 L 24.628906 8 L 24 8 L 6.8691406 8 z M 38 12 L 38 13 L 44 13 L 44 12 L 38 12 z"/>
</svg>
