<svg xmlns="http://www.w3.org/2000/svg" width="48" height="48" version="1">
 <path style="opacity:0.2" d="m 5.0008724,30.885883 a 2.0462504,1.8323891 0 0 0 0.2737394,0.862425 l 3.9762019,6.167592 3.9762023,6.167591 a 2.0462504,1.8323891 0 0 0 3.544615,0 L 20.747833,37.9159 24.726032,31.748308 A 2.0462504,1.8323891 0 0 0 22.953726,29 H 7.0469179 a 2.0462504,1.8323891 0 0 0 -2.0460455,1.885883 z"/>
 <rect style="fill:#53990f" width="21" height="12" x="14" y="27" rx="2" ry="2" transform="matrix(0,1,1,0,0,0)"/>
 <rect style="fill:#b63312" width="21" height="12" x="-34" y="9" rx="2" ry="2" transform="rotate(-90)"/>
 <path style="opacity:0.2" d="m 23.000873,19.114117 a 2.0462504,1.8323891 0 0 1 0.273739,-0.862425 L 27.250814,12.0841 31.227016,5.916509 a 2.0462504,1.8323891 0 0 1 3.544615,0 l 3.976202,6.167591 3.978199,6.167592 A 2.0462504,1.8323891 0 0 1 40.953726,21 H 25.046918 a 2.0462504,1.8323891 0 0 1 -2.046045,-1.885883 z"/>
 <path style="fill:#88d216" d="m 23.000873,18.114117 a 2.0462504,1.8323891 0 0 1 0.273739,-0.862425 L 27.250814,11.0841 31.227016,4.916509 a 2.0462504,1.8323891 0 0 1 3.544615,0 l 3.976202,6.167591 3.978199,6.167592 A 2.0462504,1.8323891 0 0 1 40.953726,20 H 25.046918 a 2.0462504,1.8323891 0 0 1 -2.046045,-1.885883 z"/>
 <path style="fill:#e73e19" d="m 5.0008724,29.885883 a 2.0462504,1.8323891 0 0 0 0.2737394,0.862425 l 3.9762019,6.167592 3.9762023,6.167591 a 2.0462504,1.8323891 0 0 0 3.544615,0 L 20.747833,36.9159 24.726032,30.748308 A 2.0462504,1.8323891 0 0 0 22.953726,28 H 7.0469179 a 2.0462504,1.8323891 0 0 0 -2.0460455,1.885883 z"/>
 <rect style="opacity:0.2" width="22" height="22" x="-47" y="-47" rx="11" ry="11" transform="matrix(0,-1,-1,0,0,0)"/>
 <rect style="fill:#9c56e2" width="22" height="22" x="-46" y="-47" rx="11" ry="11" transform="matrix(0,-1,-1,0,0,0)"/>
 <path style="fill:#ffffff" d="m 36,28 c -3.866,0 -7,3.134 -7,7 0,3.866 3.134,7 7,7 3.866,0 7,-3.134 7,-7 0,-3.866 -3.134,-7 -7,-7 z m -0.701172,1.337891 c 0.08161,-0.0085 0.185238,0.0049 0.267578,0 0.0098,0.03904 -0.05926,0.177589 -0.152344,0.380859 -0.592693,1.294794 -0.626245,2.812551 -0.07617,3.623047 0.09954,0.146948 0.189454,0.286507 0.189454,0.304687 0,0.01817 -0.107137,0.03711 -0.228517,0.03711 -0.284941,0 -0.554529,-0.173105 -1.105469,-0.609375 -0.244747,-0.193805 -0.562277,-0.35622 -0.685547,-0.38086 -0.193573,-0.03867 -0.245674,-0.02193 -0.496093,0.228516 -0.232992,0.232951 -0.304688,0.359005 -0.304688,0.572266 0,0.808716 0.959536,1.449836 2.744141,1.828125 2.42356,0.51366 3.021041,0.975603 3.08789,2.25 0.08393,1.598058 -0.767351,2.803477 -2.630859,3.736328 -0.222422,0.111379 -0.363711,0.153463 -0.457031,0.189453 -0.04134,-0.0037 -0.07205,0.0037 -0.113281,0 -0.01586,-0.04941 -0.03906,-0.16367 -0.03906,-0.380859 0,-0.848777 -0.33377,-1.722371 -0.83789,-2.210938 -0.135322,-0.131163 -0.515377,-0.40852 -0.839843,-0.609375 -0.324456,-0.200843 -0.65166,-0.433663 -0.72461,-0.533203 -0.12089,-0.165186 -0.129989,-0.267109 -0.03711,-0.572266 0.169272,-0.557332 0.370035,-0.868556 0.761719,-1.220703 0.205343,-0.184617 0.411541,-0.338097 0.457031,-0.341797 0.0455,-0.0037 -0.260805,-0.09693 -0.722657,-0.191406 -0.461825,-0.09466 -1.138989,-0.293505 -1.488281,-0.419922 -0.63871,-0.231109 -1.499363,-0.715272 -1.828125,-1.066406 -0.01391,-0.01488 -0.02698,-0.02588 -0.03906,-0.03906 0.471037,-1.876315 1.792547,-3.413212 3.544922,-4.154297 0.366663,-0.155085 0.745529,-0.26214 1.144531,-0.34375 0.198745,-0.04062 0.404165,-0.05531 0.609375,-0.07617 z m 5.71875,2.859375 c 0.143276,0.08856 0.683464,1.259169 0.837891,1.830078 0.199379,0.737047 0.184947,2.01196 0,2.74414 -0.07039,0.278672 -0.159443,0.539816 -0.189453,0.572266 -0.03001,0.03244 -0.139563,-0.153996 -0.267578,-0.380859 -0.128029,-0.226827 -0.537105,-0.709773 -0.876954,-1.06836 -0.980964,-1.035115 -1.135518,-1.574279 -0.724609,-2.40039 0.207223,-0.41658 1.109815,-1.365315 1.220703,-1.296875 z"/>
 <path style="fill:#ffffff;opacity:0.1" d="M 11 13 C 9.892 13 9 13.892 9 15 L 9 16 C 9 14.892 9.892 14 11 14 L 19 14 C 20.108 14 21 14.892 21 16 L 21 15 C 21 13.892 20.108 13 19 13 L 11 13 z"/>
 <path style="fill:#ffffff;opacity:0.2" d="M 32.902344 4.0019531 A 2.0462504 1.8323891 0 0 0 31.226562 4.9160156 L 27.25 11.083984 L 23.275391 17.251953 A 2.0462504 1.8323891 0 0 0 23 18.113281 A 2.0462504 1.8323891 0 0 0 23.080078 18.671875 A 2.0462504 1.8323891 0 0 1 23.275391 18.251953 L 27.25 12.083984 L 31.226562 5.9160156 A 2.0462504 1.8323891 0 0 1 34.771484 5.9160156 L 38.748047 12.083984 L 42.726562 18.251953 A 2.0462504 1.8323891 0 0 1 42.919922 18.669922 A 2.0462504 1.8323891 0 0 0 42.726562 17.251953 L 38.748047 11.083984 L 34.771484 4.9160156 A 2.0462504 1.8323891 0 0 0 32.902344 4.0019531 z"/>
 <path style="fill:#ffffff;opacity:0.2" d="M 7.046875 28 A 2.0462504 1.8323891 0 0 0 5 29.886719 A 2.0462504 1.8323891 0 0 0 5.0800781 30.328125 A 2.0462504 1.8323891 0 0 1 7.046875 29 L 22.953125 29 A 2.0462504 1.8323891 0 0 1 24.919922 30.330078 A 2.0462504 1.8323891 0 0 0 22.953125 28 L 7.046875 28 z"/>
</svg>
