<svg xmlns="http://www.w3.org/2000/svg" width="48" height="48" version="1.1">
 <path style="opacity:0.2" d="M 6.8571428,11.999805 H 41.142857 c 1.577847,0 2.857143,1.298486 2.857143,2.9 V 37.1 C 44,38.701515 42.720704,40 41.142857,40 H 6.8571428 C 5.2792967,40 3.9999999,38.701515 3.9999999,37.1 V 14.899805 c 0,-1.601514 1.2792968,-2.9 2.8571429,-2.9 z"/>
 <path fill="#b5835a" d="M 6.8571428,10.999805 H 41.142857 c 1.577847,0 2.857143,1.298486 2.857143,2.9 V 36.1 C 44,37.701515 42.720704,39 41.142857,39 H 6.8571428 C 5.2792967,39 3.9999999,37.701515 3.9999999,36.1 V 13.899805 c 0,-1.601514 1.2792968,-2.9 2.8571429,-2.9 z"/>
 <path style="opacity:0.1;fill:#ffffff" d="M 6.8574219,10.999805 C 5.2795758,10.999805 4,12.298682 4,13.900196 v 1 C 4,13.298682 5.2795758,11.999805 6.8574219,11.999805 H 41.142578 C 42.720425,11.999805 44,13.298682 44,14.900196 v -1 c 0,-1.601514 -1.279575,-2.900391 -2.857422,-2.900391 z"/>
 <path style="fill:#6a4c30" d="M 6.7142858,17 H 15.285714 C 15.680525,17 16,17.313086 16,17.699999 V 23.3 C 16,23.686914 15.680525,24 15.285714,24 H 6.7142858 C 6.3194754,24 6,23.686914 6,23.3 V 17.699999 C 6,17.313086 6.3194754,17 6.7142858,17 Z m 0,0"/>
 <path fill="#c0bfbc" d="m 7,17 h 1 v 7 H 7 Z m 0,0"/>
 <path fill="#c0bfbc" d="m 14,17 h 1 v 7 h -1 z m 0,0"/>
 <path style="opacity:0.1" d="M 6.5,10 C 5.6708982,10 5,10.65612 5,11.466797 v 8.066406 C 5,20.34388 5.6708982,21 6.5,21 h 9 C 16.329102,21 17,20.34388 17,19.533203 V 11.466797 C 17,10.65612 16.329102,10 15.5,10 Z m 13,4 C 18.670898,14 18,14.65612 18,15.466797 v 8.066406 C 18,24.34388 18.670898,25 19.5,25 h 9 C 29.329102,25 30,24.34388 30,23.533203 V 15.466797 C 30,14.65612 29.329102,14 28.5,14 Z m 13,0 C 31.670898,14 31,14.65612 31,15.466797 v 8.066406 C 31,24.34388 31.670898,25 32.5,25 h 9 C 42.329102,25 43,24.34388 43,23.533203 V 15.466797 C 43,14.65612 42.329102,14 41.5,14 Z M 6.5,27 C 5.670898,27 5,27.65612 5,28.466797 v 8.066406 C 5,37.34388 5.670898,38 6.5,38 h 9 C 16.329102,38 17,37.34388 17,36.533203 V 28.466797 C 17,27.65612 16.329102,27 15.5,27 Z m 13,0 C 18.670898,27 18,27.65612 18,28.466797 v 8.066406 C 18,37.34388 18.670898,38 19.5,38 h 9 C 29.329102,38 30,37.34388 30,36.533203 V 28.466797 C 30,27.65612 29.329102,27 28.5,27 Z m 13,0 C 31.670898,27 31,27.65612 31,28.466797 v 8.066406 C 31,37.34388 31.670898,38 32.5,38 h 9 C 42.329102,38 43,37.34388 43,36.533203 V 28.466797 C 43,27.65612 42.329102,27 41.5,27 Z"/>
 <path style="fill:#926441" d="m 6.5,9 h 9 c 0.829102,0 1.5,0.6559894 1.5,1.466666 v 8.066667 C 17,19.34401 16.329102,20 15.5,20 h -9 C 5.6708982,20 5,19.34401 5,18.533333 V 10.466666 C 5,9.6559894 5.6708982,9 6.5,9 Z m 0,0"/>
 <path fill="none" stroke="#deddda" stroke-linecap="square" stroke-linejoin="round" stroke-width=".823" d="m 8.411438,14.588562 v -0.392375 c 0,-0.433757 0.3859249,-0.784749 0.862854,-0.784749 h 3.451416 c 0.47693,0 0.862854,0.350992 0.862854,0.784749 v 0.392375"/>
 <path style="fill:#926441" d="m 19.5,13 h 9 c 0.829102,0 1.5,0.655989 1.5,1.466666 v 8.066667 C 30,23.34401 29.329102,24 28.5,24 h -9 C 18.670898,24 18,23.34401 18,22.533333 V 14.466666 C 18,13.655989 18.670898,13 19.5,13 Z m 0,0"/>
 <path fill="none" stroke="#deddda" stroke-linecap="square" stroke-linejoin="round" stroke-width=".823" d="m 21.411438,18.588562 v -0.392375 c 0,-0.433757 0.385925,-0.784749 0.862854,-0.784749 h 3.451416 c 0.47693,0 0.862854,0.350992 0.862854,0.784749 v 0.392375"/>
 <path style="fill:#926441" d="m 32.5,13 h 9 c 0.829102,0 1.5,0.655989 1.5,1.466666 v 8.066667 C 43,23.34401 42.329102,24 41.5,24 h -9 C 31.670898,24 31,23.34401 31,22.533333 V 14.466666 C 31,13.655989 31.670898,13 32.5,13 Z m 0,0"/>
 <path fill="none" stroke="#deddda" stroke-linecap="square" stroke-linejoin="round" stroke-width=".823" d="m 34.411438,18.588562 v -0.392375 c 0,-0.433757 0.385925,-0.784749 0.862854,-0.784749 h 3.451416 c 0.47693,0 0.862854,0.350992 0.862854,0.784749 v 0.392375"/>
 <path style="fill:#926441" d="m 19.5,26 h 9 c 0.829102,0 1.5,0.655989 1.5,1.466666 v 8.066667 C 30,36.34401 29.329102,37 28.5,37 h -9 C 18.670898,37 18,36.34401 18,35.533333 V 27.466666 C 18,26.655989 18.670898,26 19.5,26 Z m 0,0"/>
 <path fill="none" stroke="#deddda" stroke-linecap="square" stroke-linejoin="round" stroke-width=".823" d="m 21.411438,31.588562 v -0.392375 c 0,-0.433757 0.385925,-0.784749 0.862854,-0.784749 h 3.451416 c 0.47693,0 0.862854,0.350992 0.862854,0.784749 v 0.392375"/>
 <path style="fill:#926441" d="m 32.5,26 h 9 c 0.829102,0 1.5,0.655989 1.5,1.466666 v 8.066667 C 43,36.34401 42.329102,37 41.5,37 h -9 C 31.670898,37 31,36.34401 31,35.533333 V 27.466666 C 31,26.655989 31.670898,26 32.5,26 Z m 0,0"/>
 <path fill="none" stroke="#deddda" stroke-linecap="square" stroke-linejoin="round" stroke-width=".823" d="m 34.411438,31.588562 v -0.392375 c 0,-0.433757 0.385925,-0.784749 0.862854,-0.784749 h 3.451416 c 0.47693,0 0.862854,0.350992 0.862854,0.784749 v 0.392375"/>
 <path style="fill:#926441" d="m 6.5,26 h 9 c 0.829102,0 1.5,0.655989 1.5,1.466666 v 8.066667 C 17,36.34401 16.329102,37 15.5,37 h -9 C 5.670898,37 5,36.34401 5,35.533333 V 27.466666 C 5,26.655989 5.670898,26 6.5,26 Z m 0,0"/>
 <path fill="none" stroke="#deddda" stroke-linecap="square" stroke-linejoin="round" stroke-width=".823" d="m 8.411438,31.588562 v -0.392375 c 0,-0.433757 0.385925,-0.784749 0.862854,-0.784749 h 3.451416 c 0.47693,0 0.862854,0.350992 0.862854,0.784749 v 0.392375"/>
</svg>
