<svg xmlns="http://www.w3.org/2000/svg" width="48" height="48" version="1.1">
 <path style="opacity:.2" d="m4 40v1c0 1.108 0.892 2 2 2h36c1.108 0 2-0.892 2-2v-1c0 1.108-0.892 2-2 2h-36c-1.108 0-2-0.892-2-2z"/>
 <rect style="fill:#4f4f4f" width="40" height="36" x="4" y="6" rx="2" ry="2"/>
 <path style="fill:#ffffff;opacity:.1" d="m6 6c-1.108 0-2 0.892-2 2v1c0-1.108 0.892-2 2-2h36c1.108 0 2 0.892 2 2v-1c0-1.108-0.892-2-2-2z"/>
 <path style="opacity:.2" d="m9 11v1h3v-1zm3 1v1h1v-1zm-3 0h-1l0.0918 5h0.9082zm0 5v1h3v-1zm3 0h1v-1h-1zm2-6v7h1v-2h3v-1h-3v-3h3v-1zm4 1v3h1v-3zm0 4v2h1v-2zm2-5v1h2v6h1v-6h2v-1h-3zm-12 8v7h5v-7z"/>
 <path style="fill:#ffc105" d="m9 10v1h3v-1h-3zm3 1v1h1v-1h-1zm-3 0h-1l0.0917969 5h0.9082031v-5zm0 5v1h3v-1h-3zm3 0h1v-1h-1v1zm2-6v7h1v-2h3v-1h-3v-3h3v-1h-4zm4 1v3h1v-3h-1zm0 4v2h1v-2h-1zm2-5v1h2v6h1v-6h2v-1h-2-1-2zm-12 8v7h5v-7h-5z"/>
</svg>
