<svg xmlns="http://www.w3.org/2000/svg" width="48" height="48" version="1.1">
 <path style="fill:#1c75bc" d="m24 4a20 20 0 0 0 -20 20 20 20 0 0 0 20 20 20 20 0 0 0 20 -20 20 20 0 0 0 -20 -20z"/>
 <path opacity=".2" d="m4.0215 24.418a20 20 0 0 0 -0.0215 0.582 20 20 0 0 0 20 20 20 20 0 0 0 20 -20 20 20 0 0 0 -0.021 -0.418 20 20 0 0 1 -19.979 19.418 20 20 0 0 1 -19.978 -19.582z"/>
 <path fill="#ffffff" style="opacity:.2" d="m24 4a20 20 0 0 0 -20 20 20 20 0 0 0 0.0215 0.418 20 20 0 0 1 19.978 -19.418 20 20 0 0 1 19.979 19.582 20 20 0 0 0 0.021 -0.582 20 20 0 0 0 -20 -20z"/>
 <path style="opacity:.2" d="m15.976562 17-1.24414 4h17.267578l-3 8h-16.755859l-1.244141 4h17.914062c1.995264-0.03641 4.04631-1.246355 4.830079-3.162109l3.132812-9.417969c0.739564-3.049333-1.991155-3.419922-4.103515-3.419922h-16.796876zm-3.476562 6-1.5 4h10l1.5-4h-10z"/>
 <path style="fill:#ffffff" d="m15.976562 16l-1.24414 4h17.267578l-3 8h-16.755859l-1.244141 4h17.914062c1.995264-0.036411 4.04631-1.246355 4.830079-3.162109l3.132812-9.417969c0.739564-3.049333-1.991155-3.419922-4.103515-3.419922h-16.796876zm-3.476562 6l-1.5 4h10l1.5-4h-10z"/>
</svg>
