<?xml version="1.0" encoding="UTF-8" standalone="no"?>
<svg id="svg2817" xmlns:rdf="http://www.w3.org/1999/02/22-rdf-syntax-ns#" xmlns="http://www.w3.org/2000/svg" height="48" width="48" version="1.0" xmlns:cc="http://creativecommons.org/ns#" xmlns:dc="http://purl.org/dc/elements/1.1/">
    <metadata id="metadata57">
        <rdf:RDF>
            <cc:Work rdf:about="">
                <dc:format>
                    image/svg+xml
                </dc:format>
                <dc:type rdf:resource="http://purl.org/dc/dcmitype/StillImage"/>
                <dc:title/>
            </cc:Work>
        </rdf:RDF>
    </metadata>
    <rect id="rect4787" ry="2.0001" rx="2.0001" transform="rotate(45)" height="29.453" width="29.453" y="-14.727" x="19.214" fill="#ffc35a"/>
    <path id="path25" stroke-width="2.8" fill="#2e2e2e" stroke-opacity=".55" d="m24 13v6.986l-4 4 0.014 0.014h-0.014v10h2v-9.186l2-2v11.186h2v-21z"/>
    <path id="rect4815" opacity=".2" d="m4.0723 24.5c-0.1722 0.663-0.0056 1.393 0.5156 1.914l17.998 17.998c0.783 0.784 2.045 0.784 2.828 0l17.998-17.998c0.521-0.521 0.688-1.251 0.516-1.914-0.087 0.334-0.254 0.652-0.516 0.914l-17.998 17.998c-0.783 0.784-2.045 0.784-2.828 0l-17.998-17.998c-0.2627-0.262-0.4293-0.58-0.5159-0.914z"/>
    <path id="rect4789" opacity=".2" d="m24 4c-0.511 0-1.022 0.1961-1.414 0.5879l-17.998 17.998c-0.5213 0.521-0.6879 1.251-0.5157 1.914 0.0866-0.334 0.2532-0.652 0.5156-0.914l17.998-17.998c0.783-0.7836 2.045-0.7836 2.828-0.0001l17.998 17.998c0.262 0.262 0.429 0.58 0.516 0.914 0.172-0.663 0.005-1.393-0.516-1.914l-17.998-17.998c-0.392-0.3919-0.903-0.588-1.414-0.588z" fill="#fff"/>
</svg>
