<svg width="48" height="48" version="1.1" xmlns="http://www.w3.org/2000/svg">
 <g transform="translate(.003756 -2)">
  <path d="m23.992799 6.001c-7.000311 15.999-7.000311 16.999-19.996556 39.999 6.3405865-3.659654 10.75554-5.915926 15.33647-6.776915 4.659773-0.726449 4.659773-0.726449 9.415639 0.0301 4.530918 0.886188 8.993123 3.13666 15.247891 6.746815-13.003756-23-13.003756-24-20.003756-40z" style="fill-rule:evenodd;opacity:.2"/>
  <path d="m23.992799 5.001c-7.000311 15.999-7.000311 16.999-19.996554 39.999 6.3405865-3.659654 10.75554-5.915926 15.33647-6.776915 4.659774-0.726449 4.659774-0.726449 9.415639 0.0301 4.530919 0.886188 8.993123 3.13666 15.247891 6.746815-13.003756-23-13.003756-24-20.003756-40z" style="fill-rule:evenodd;fill:#1793d1"/>
  <path transform="translate(-.003756 2)" d="M 24 3.0019531 C 16.99969 19.000953 17.000151 20 4.0039062 43 C 4.296908 42.830886 4.5372815 42.704137 4.8222656 42.541016 C 16.916871 21.089356 17.166199 19.620399 24 4.0019531 C 30.832664 19.619554 31.084284 21.089952 43.185547 42.541016 C 43.469938 42.703635 43.71189 42.831453 44.003906 43 C 31.000697 20.000967 30.999117 19.000019 24 3.0019531 z " style="fill-rule:evenodd;fill:#ffffff;opacity:.2"/>
  <path d="m27.976485 15.162701c-1.645198 0.603025-2.400481 0.837299-4.980241 0.837299 0 2.090589 1 2 1 7-0.0021 4.181178-1 10-1 10l3-2 2.960153-13.6325c-0.368856-0.805659-0.606777-1.353851-0.979912-2.204799zm-4.696069 19.66887c-1.183467 0-2.142856 0.95939-2.142856 2.142857 5.26e-4 0.763889 0.37171 1.451761 1.032683 1.8347 0.826001-0.102879 1.619287-0.14491 2.368543-0.104793 0.554325-0.402167 0.883032-1.045063 0.884488-1.729907 0-1.183468-0.959391-2.142858-2.142858-2.142857z" style="fill-rule:evenodd;opacity:.2"/>
  <path d="m27.976485 14.162701c-1.645198 0.603025-2.400481 0.837299-4.980241 0.837299 0 2.090589 1 2 1 7-0.0021 4.181178-1 10-1 10l3-2 2.960153-13.6325c-0.368856-0.805659-0.606777-1.353851-0.979912-2.204799zm-4.696069 19.66887c-1.183467 0-2.142856 0.95939-2.142856 2.142857 5.26e-4 0.763889 0.37171 1.451761 1.032683 1.8347 0.826001-0.102879 1.619287-0.14491 2.368543-0.104793 0.554325-0.402167 0.883032-1.045063 0.884488-1.729907 0-1.183468-0.959391-2.142858-2.142858-2.142857z" style="fill-rule:evenodd;fill:#ffffff"/>
 </g>
</svg>
