<svg xmlns="http://www.w3.org/2000/svg" width="48" height="48" version="1.1">
 <circle style="opacity:0.2" cx="24" cy="25" r="20"/>
 <circle style="fill:#3daee9" cx="24" cy="24" r="20"/>
 <path style="opacity:0.2;fill:#ffffff" d="M 24 4 A 20 20 0 0 0 4 24 A 20 20 0 0 0 4.0352 24.5 A 20 20 0 0 1 24 5 A 20 20 0 0 1 43.982 24.25 A 20 20 0 0 0 44 24 A 20 20 0 0 0 24 4 z"/>
 <path style="opacity:0.2;fill:none;stroke:#000000;stroke-width:6;stroke-linecap:round;stroke-linejoin:round" d="M 11,31 C 11,31 14,33 17,33 20,33 22,31 22,29 22,21 12,27 12,19 12,17 14,15 17,15 20,15 22,17 22,17"/>
 <path style="fill:none;stroke:#ffffff;stroke-width:6;stroke-linecap:round;stroke-linejoin:round" d="M 11,30 C 11,30 14,32 17,32 20,32 22,30 22,28 22,20 12,26 12,18 12,16 14,14 17,14 20,14 22,16 22,16"/>
 <path style="opacity:0.2;fill:none;stroke:#000000;stroke-width:6;stroke-linecap:round;stroke-linejoin:round" d="M 27,15 V 33 H 37"/>
 <path style="fill:none;stroke:#ffffff;stroke-width:2" d="M 16,16 C 16,16 14,16.424 14,18.5 14,20.576 16,21 16,21"/>
 <path style="fill:none;stroke:#f9f9f9;stroke-width:2" d="M 18,25 C 18,25 20,25.424 20,27.5 20,29.576 18,30 18,30"/>
 <path style="fill:none;stroke:#ffffff;stroke-width:6;stroke-linecap:round;stroke-linejoin:round" d="M 27,14 V 32 H 37"/>
</svg>
