<svg xmlns="http://www.w3.org/2000/svg" width="48" height="48" version="1.1">
 <circle style="opacity:.2" cx="24" cy="25" r="20"/>
 <circle style="fill:#2d61b8" cx="24" cy="24" r="20"/>
 <path style="opacity:0.2" d="m 12.100395,14 c -0.605957,0.82877 1.698498,1.513115 2.439292,1.712891 2.19983,0.393784 4.471745,0.856751 6.378486,2.064453 1.33509,1.012849 1.674882,2.304773 1.755743,4.265625 0.20478,1.692466 -1.756941,2.46191 -2.011586,2.085937 -0.778147,1.744993 1.873677,2.43987 2.560378,3.521485 0.249762,0.838411 -2.52647,1.375357 -0.765575,2.765625 0.307389,0.807753 -1.513572,1.515625 -1.513572,1.515625 0,0 1.055685,-0.217823 1.070243,0.292968 -0.0024,0.279622 -0.689348,0.192136 -0.581993,0.466797 0.359503,1.504317 0.567968,2.667296 -0.841741,3.007813 -0.933031,0.122127 -2.465012,-0.820098 -3.488052,-1.15625 -0.0639,0.251878 -0.07606,0.569368 -0.05078,0.914062 0.06676,0.910521 0.392569,2.005321 0.706985,2.542969 h 6.241776 6.241775 c 0.314416,-0.537648 0.640229,-1.632448 0.706985,-2.542969 0.02528,-0.344694 0.01312,-0.662184 -0.05078,-0.914062 -1.02304,0.336152 -2.555021,1.278377 -3.488052,1.15625 -1.409709,-0.340517 -1.201244,-1.503496 -0.841741,-3.007813 0.107355,-0.274661 -0.579593,-0.187175 -0.581993,-0.466797 0.01456,-0.510791 1.070243,-0.292968 1.070243,-0.292968 0,0 -1.820961,-0.707872 -1.513572,-1.515625 1.760895,-1.390268 -1.015337,-1.927214 -0.765575,-2.765625 0.686701,-1.081615 3.338525,-1.776492 2.560378,-3.521485 -0.254645,0.375973 -2.216365,-0.393471 -2.011586,-2.085937 0.08086,-1.960852 0.420653,-3.252776 1.755743,-4.265625 1.906741,-1.207702 4.178656,-1.670669 6.378486,-2.064453 C 34.201109,15.513115 36.505563,14.82877 35.899606,14 H 24.000001 Z"/>
 <path style="fill:#ffffff;opacity:0.1" d="M 24,4 A 20,20 0 0 0 4,24 20,20 0 0 0 4.0215,24.582 20,20 0 0 1 24,5 20,20 0 0 1 43.979,24.418 20,20 0 0 0 44,24 20,20 0 0 0 24,4 Z"/>
 <path style="fill:#ffeb3b" d="M 24,13.000068 H 12.100461 c -0.605997,0.82877 1.696964,1.513418 2.437808,1.713194 2.199974,0.393784 4.472307,0.856558 6.379174,2.06426 1.335178,1.012849 1.67615,2.305093 1.757016,4.265945 0.204793,1.692466 -1.757826,2.460887 -2.012488,2.084914 -0.778198,1.744993 1.874761,2.43961 2.561507,3.521225 0.249779,0.838411 -2.527107,1.376754 -0.766095,2.767022 0.307409,0.807753 -1.513754,1.514649 -1.513754,1.514649 0,0 1.054975,-0.218023 1.069534,0.292768 -0.0024,0.279622 -0.688357,0.192022 -0.580995,0.466683 0.359527,1.504317 0.567832,2.668634 -0.84197,3.009151 -0.933092,0.122127 -2.466091,-0.821057 -3.489198,-1.157209 -0.0639,0.251878 -0.07585,0.570246 -0.05057,0.91494 0.06676,0.910521 0.393213,2.004742 0.70765,2.54239 H 24 Z"/>
 <path style="fill:#ff5722" d="m 24,13.000068 h 11.899539 c 0.605997,0.82877 -1.696964,1.513418 -2.437808,1.713194 -2.199974,0.393784 -4.472307,0.856558 -6.379174,2.06426 -1.335178,1.012849 -1.67615,2.305093 -1.757016,4.265945 -0.204793,1.692466 1.757826,2.460887 2.012488,2.084914 0.778198,1.744993 -1.874761,2.43961 -2.561507,3.521225 -0.249779,0.838411 2.527107,1.376754 0.766095,2.767022 -0.307409,0.807753 1.513754,1.514649 1.513754,1.514649 0,0 -1.054975,-0.218023 -1.069534,0.292768 0.0024,0.279622 0.688357,0.192022 0.580995,0.466683 -0.359527,1.504317 -0.567832,2.668634 0.84197,3.009151 0.933092,0.122127 2.466091,-0.821057 3.489198,-1.157209 0.0639,0.251878 0.07585,0.570246 0.05057,0.91494 C 30.88281,35.368131 30.556357,36.462352 30.24192,37 H 24 Z"/>
 <path style="opacity:0.2;fill:#ffffff" d="M 12.099609 13 C 11.82588 13.374381 12.156554 13.715917 12.658203 14 L 24 14 L 35.341797 14 C 35.843446 13.715917 36.17412 13.374381 35.900391 13 L 24 13 L 12.099609 13 z M 22.640625 21.677734 C 22.370923 22.920301 20.882184 23.453838 20.662109 23.128906 C 20.473511 23.551837 20.489393 23.912407 20.626953 24.232422 C 20.6401 24.197417 20.646109 24.164787 20.662109 24.128906 C 20.916754 24.504879 22.878608 23.735435 22.673828 22.042969 C 22.668365 21.910482 22.64868 21.804233 22.640625 21.677734 z M 25.359375 21.677734 C 25.35132 21.804233 25.331635 21.910482 25.326172 22.042969 C 25.121393 23.735435 27.083246 24.504879 27.337891 24.128906 C 27.353891 24.164787 27.3599 24.197417 27.373047 24.232422 C 27.510607 23.912407 27.526489 23.551837 27.337891 23.128906 C 27.117816 23.453838 25.629078 22.920301 25.359375 21.677734 z M 22.90625 27.287109 C 22.377078 27.769901 21.467767 28.257588 22.083984 29.044922 C 22.495536 28.530549 23.368587 28.140257 23.222656 27.650391 C 23.142789 27.524593 23.030794 27.404705 22.90625 27.287109 z M 25.09375 27.287109 C 24.969206 27.404705 24.857211 27.524593 24.777344 27.650391 C 24.631413 28.140257 25.504464 28.530549 25.916016 29.044922 C 26.532233 28.257588 25.622922 27.769901 25.09375 27.287109 z M 22.185547 30.171875 C 21.735709 30.617211 20.943359 30.931641 20.943359 30.931641 C 20.943359 30.931641 21.999114 30.713818 22.013672 31.224609 C 22.011272 31.504231 21.324286 31.416745 21.431641 31.691406 C 21.947851 31.420594 22.660507 30.950707 22.457031 30.416016 C 22.349832 30.331379 22.260823 30.250447 22.185547 30.171875 z M 25.814453 30.171875 C 25.739177 30.250447 25.650168 30.331379 25.542969 30.416016 C 25.339493 30.950707 26.052149 31.420594 26.568359 31.691406 C 26.675714 31.416745 25.988728 31.504231 25.986328 31.224609 C 26.000888 30.713818 27.056641 30.931641 27.056641 30.931641 C 27.056641 30.931641 26.264291 30.617211 25.814453 30.171875 z M 21.472656 31.886719 C 21.5217 32.097524 21.561905 32.297716 21.597656 32.492188 C 21.772639 32.430797 22.012227 32.393002 22.013672 32.224609 C 22.006393 31.969214 21.738397 31.896112 21.472656 31.886719 z M 26.527344 31.886719 C 26.261603 31.896112 25.993608 31.969214 25.986328 32.224609 C 25.987773 32.393002 26.227361 32.430797 26.402344 32.492188 C 26.438095 32.297716 26.4783 32.097524 26.527344 31.886719 z M 17.101562 33.542969 C 17.037662 33.794847 17.025501 34.112337 17.050781 34.457031 C 17.056191 34.530816 17.073363 34.609736 17.082031 34.685547 C 17.089942 34.639435 17.090767 34.58552 17.101562 34.542969 C 18.124603 34.879121 19.656813 35.821346 20.589844 35.699219 C 21.653631 35.44226 21.795171 34.715422 21.646484 33.728516 C 21.544174 34.196404 21.247391 34.540387 20.589844 34.699219 C 19.656813 34.821346 18.124603 33.879121 17.101562 33.542969 z M 30.898438 33.542969 C 29.875398 33.879121 28.343187 34.821346 27.410156 34.699219 C 26.752609 34.540387 26.455826 34.196404 26.353516 33.728516 C 26.204829 34.715422 26.346369 35.44226 27.410156 35.699219 C 28.343187 35.821346 29.875398 34.879121 30.898438 34.542969 C 30.909233 34.58552 30.910058 34.639435 30.917969 34.685547 C 30.926637 34.609736 30.943809 34.530816 30.949219 34.457031 C 30.974499 34.112337 30.962338 33.794847 30.898438 33.542969 z"/>
</svg>
