<svg xmlns="http://www.w3.org/2000/svg" width="48" height="48" version="1.1">
 <path style="opacity:0.2" d="M 28.869141 5 C 24.894671 5 21.12273 7.2647046 16.742188 9.6464844 A 17 17 0 0 1 24 8 A 17 17 0 0 1 39.490234 18.050781 L 43.890625 15.607422 C 43.857065 15.530942 43.823443 15.683442 43.789062 15.607422 C 39.37498 9.3896362 34.274741 5 28.869141 5 z M 8.3105469 31.505859 L 4.0488281 33.808594 C 8.3160708 40.348978 13.211164 45 18.740234 45 C 22.670263 45 26.810248 42.816133 31.400391 40.289062 A 17 17 0 0 1 24 42 A 17 17 0 0 1 8.3105469 31.505859 z"/>
 <path style="fill:#3f3f3f" d="M 15.881425,9.1161897 22.789703,22.680723 4.0482406,32.8091 C 8.3154833,39.349484 13.210828,44 18.739898,44 23.008137,44 27.498111,41.448048 32.57381,38.650029 L 24.981899,25.10929 43.889866,14.607784 c -0.03356,-0.07648 -0.06549,0.07602 -0.09987,0 C 39.375913,8.3899983 34.275573,4 28.869973,4 24.630471,4 20.64806,6.5679317 15.881425,9.1161897 Z"/>
 <path style="fill:#ffffff;opacity:0.1" d="M 28.869141 4 C 24.629639 4 20.647494 6.5669764 15.880859 9.1152344 L 16.279297 9.8984375 C 20.864896 7.4248641 24.752233 5 28.869141 5 C 34.074017 5 38.990319 9.0886038 43.289062 14.941406 L 43.890625 14.607422 C 43.857065 14.530942 43.823443 14.683442 43.789062 14.607422 C 39.37498 8.3896362 34.274741 4 28.869141 4 z M 22.390625 22.896484 L 4.0488281 32.808594 C 4.2134233 33.060868 4.3843168 33.290617 4.5507812 33.537109 L 22.789062 23.681641 L 22.390625 22.896484 z M 25.410156 25.871094 L 24.982422 26.109375 L 32.144531 38.884766 C 32.290863 38.804031 32.42691 38.731596 32.574219 38.650391 L 25.410156 25.871094 z"/>
 <circle style="opacity:0.2" cx="24" cy="25" r="17"/>
 <circle style="fill:#00e6ff" cx="24" cy="24" r="17"/>
 <path style="fill:#00a6e2" d="m 24,7.0000003 a 16.999999,16.999999 0 0 0 -6.48291,1.3011474 c -0.0018,0.380382 0.226047,0.7476772 0.699342,0.7159424 1.723966,-0.1146416 1.751675,-0.4868669 2.355346,0.3175052 0.602831,0.8044097 0.315682,2.4683087 -0.776123,2.0087887 -1.091819,-0.460372 -2.902148,-1.234544 -3.361818,-0.31543 -0.459669,0.919878 0.202768,1.149636 1.093629,0.603881 0.890874,-0.545781 1.608038,-0.286738 1.780517,0.603882 0.171629,0.890631 0.11594,2.61365 -0.861205,2.297242 -0.977108,-0.31637 -1.294474,0.171909 -0.720094,0.659912 0.574368,0.487976 -0.05753,0.775922 -0.948364,0.402588 -0.890848,-0.37331 -0.862439,0.775719 -2.068969,0.718016 -1.207357,-0.0577 -1.292958,1.263528 -1.666382,1.751465 -0.373423,0.488039 -0.432604,2.069171 -0.518799,2.442506 -0.0862,0.373336 -0.458968,0.661019 -0.659912,-0.516725 -0.200932,-1.177744 0.05889,-1.696409 -1.004395,-1.782592 -1.0633543,-0.08617 -2.1272136,2.147135 -1.5812985,2.625121 0.5459029,0.477948 1.2924585,-0.440719 1.2347415,0.249024 -0.05695,0.689743 -0.429243,3.819634 0.69104,3.963623 1.120283,0.143963 1.86766,0.02932 2.786987,0.632935 0.919338,0.603521 2.642707,0.658998 3.87854,2.61267 1.23582,1.953673 2.673849,2.182128 4.052857,2.498536 1.379839,0.316471 1.235106,1.093332 0.516723,2.127075 -0.718396,1.033757 -0.314996,2.096712 -2.728881,2.901123 -2.41391,0.803571 -2.58682,2.816239 -2.500611,3.189575 0.0092,0.03972 -0.05,0.301582 -0.08923,0.525024 A 16.999999,16.999999 0 0 0 24,40.999998 16.999999,16.999999 0 0 0 36.044434,35.980101 c -0.38804,-1.238313 -0.803984,-2.941378 -0.817628,-3.664795 -0.02937,-1.521756 0.402714,-1.636424 -0.143187,-2.641723 -0.545917,-1.006151 -1.66794,-0.03055 -3.851563,-0.317505 -2.183625,-0.287926 -1.838819,-1.665141 -3.361817,-3.561036 -1.523023,-1.895906 1.409606,-3.448033 2.214233,-5.401732 0.680853,-1.653151 3.279888,-1.372706 4.538453,-1.160034 l 2.313842,-1.197387 c 0.113275,-0.09265 0.219761,-0.183823 0.35901,-0.286378 1.638547,-1.207042 -0.802401,-1.233802 -1.463013,-1.693358 -0.661453,-0.459521 -0.576453,-0.05775 -1.064576,0.545774 -0.48812,0.603482 -1.236115,-0.460322 -1.896729,-0.805175 -0.661453,-0.344014 -0.803071,0.803293 -1.579223,2.125 -0.775337,1.32167 -1.235863,0.718187 -1.925782,0 -0.689915,-0.718225 -0.259763,-1.350204 0.458619,-1.637329 0.71837,-0.287113 0.776838,-0.401104 0.259399,-0.975342 -0.517437,-0.574187 -0.74777,-0.345618 -0.230346,-0.805176 0.517452,-0.459519 0.83455,-0.401849 1.954834,-1.091553 1.121121,-0.689706 -0.172439,-1.320664 -0.919311,-0.817626 -0.746836,0.503102 -1.695786,-1.021108 -1.896729,-2.303467 -0.200945,-1.2822944 0.401635,-0.8727804 1.091552,-1.3322744 0.09669,-0.064632 0.04717,-0.4521386 -0.05189,-0.8300781 A 16.999999,16.999999 0 0 0 24,7.0000003 Z m -0.89441,0.9898681 c 1.045118,0.039654 2.24243,0.4203656 1.890504,1.5418695 -0.459669,1.4648191 -0.504287,1.0328791 -1.033447,1.3509521 -0.57269,0.344013 -0.862832,0.57405 -1.350953,1.263794 -0.488146,0.68973 -1.608188,0.545389 -0.991942,-0.201294 0.617058,-0.74747 0.388636,-2.7579433 0.04358,-3.3037102 0,0 -0.459208,-0.4314621 0.57483,-0.6038819 0.129356,-0.021479 0.275855,-0.035446 0.433715,-0.043579 0.138116,-0.00763 0.284413,-0.00924 0.433716,-0.00416 z M 8.8635256,16.334227 c -0.2018631,0.392382 -0.3915843,0.804679 -0.5831298,1.21399 a 16.999999,16.999999 0 0 0 -1.2803955,6.451782 16.999999,16.999999 0 0 0 0.7408447,4.907837 l 2.851318,-1.301148 c 0.05099,-0.505782 0.331942,-0.643238 0.439942,-0.751221 0.201783,-0.20089 -1.3498023,-1.033711 -1.2928469,-3.04431 0.05695,-2.010586 -1.6383933,-1.551181 -1.3218994,-3.677247 0.2712734,-1.823145 0.6219894,-3.093201 0.4461669,-3.799683 z M 11.092285,29.638305 8.5460207,30.999633 8.4277347,30.76721 a 16.999999,16.999999 0 0 0 6.8107903,7.777832 l 0.0747,-0.313354 c 0,0 -1.551421,-2.068035 -1.695435,-3.475952 -0.144016,-1.407078 -1.179956,-2.183719 -2.386475,-4.797852 -0.05213,-0.112989 -0.09418,-0.215068 -0.139038,-0.319579 z"/>
 <path style="opacity:0.1" d="M 24 7 A 16.999999 16.999999 0 0 0 17.517578 8.3007812 C 17.515778 8.6811632 17.743502 9.0493129 18.216797 9.0175781 C 18.267663 9.0141956 18.287966 9.0077005 18.335938 9.0039062 A 16.999999 16.999999 0 0 1 21.794922 8.1679688 C 21.897853 8.1184307 22.03198 8.0715089 22.238281 8.0371094 C 22.367637 8.0156304 22.514015 8.0022736 22.671875 7.9941406 C 22.809991 7.9865106 22.956166 7.9851544 23.105469 7.9902344 C 23.211436 7.994255 23.316505 8.0198002 23.423828 8.03125 A 16.999999 16.999999 0 0 1 24 8 A 16.999999 16.999999 0 0 1 29.869141 9.0761719 C 29.939906 9.0438175 30.01036 9.0080193 30.083984 8.9589844 C 30.180674 8.8943524 30.132263 8.5068457 30.033203 8.1289062 A 16.999999 16.999999 0 0 0 24 7 z M 21.849609 9.1425781 C 21.355051 9.3422324 21.664062 9.640625 21.664062 9.640625 C 21.810613 9.8724209 21.920115 10.384308 21.96875 10.935547 C 22.042891 10.323727 21.978181 9.6361558 21.849609 9.1425781 z M 24.929688 9.71875 C 24.540962 10.892376 24.4605 10.583705 23.962891 10.882812 C 23.390201 11.226826 23.099449 11.45674 22.611328 12.146484 C 22.40049 12.444389 22.076097 12.576648 21.820312 12.582031 C 21.766313 12.720504 21.701593 12.845434 21.619141 12.945312 C 21.002895 13.691996 22.123182 13.836214 22.611328 13.146484 C 23.099449 12.45674 23.390201 12.226826 23.962891 11.882812 C 24.492051 11.56474 24.536425 11.996069 24.996094 10.53125 C 25.101612 10.194987 25.056858 9.9325942 24.929688 9.71875 z M 29.037109 10.492188 C 28.954121 10.638891 28.925866 10.867797 28.992188 11.291016 C 29.19313 12.573375 30.143789 14.098805 30.890625 13.595703 C 31.154253 13.418143 31.482334 13.387586 31.751953 13.445312 C 31.774029 13.431924 31.785865 13.426102 31.808594 13.412109 C 32.929715 12.722403 31.637497 12.090712 30.890625 12.59375 C 30.182245 13.070946 29.298382 11.726432 29.037109 10.492188 z M 17.412109 10.601562 C 16.968977 10.575836 16.60597 10.682676 16.433594 11.027344 C 16.182233 11.53036 16.273295 11.820154 16.546875 11.896484 C 16.762841 11.64392 17.11909 11.574075 17.546875 11.621094 C 18.391566 11.113491 19.0728 11.33808 19.279297 12.134766 C 19.4548 12.206072 19.64194 12.279244 19.794922 12.34375 C 20.686912 12.719172 21.031436 11.680245 20.802734 10.847656 C 20.661911 11.284671 20.325305 11.566978 19.794922 11.34375 C 19.112535 11.056017 18.150664 10.64444 17.412109 10.601562 z M 19.34375 13.605469 C 19.25814 14.22242 19.006741 14.714366 18.447266 14.533203 C 17.470158 14.216833 17.152182 14.705356 17.726562 15.193359 C 17.833439 15.28416 17.886569 15.363523 17.916016 15.4375 C 18.063024 15.438969 18.236593 15.464991 18.447266 15.533203 C 19.308696 15.812142 19.43901 14.528925 19.34375 13.605469 z M 30.097656 15.326172 C 30.018133 15.37977 29.939499 15.42755 29.853516 15.503906 C 29.377071 15.927068 29.548547 15.792651 29.980469 16.212891 C 30.513219 15.980134 30.547671 15.829622 30.097656 15.326172 z M 16.482422 15.521484 C 15.874565 15.490538 15.764698 16.36299 14.708984 16.3125 C 13.501627 16.2548 13.416393 17.576516 13.042969 18.064453 C 12.669546 18.552492 12.609633 20.134478 12.523438 20.507812 C 12.437238 20.881148 12.066178 21.167978 11.865234 19.990234 C 11.664302 18.81249 11.92266 18.295167 10.859375 18.208984 C 9.8215498 18.124883 8.7956312 20.238678 9.2539062 20.785156 C 9.5220506 20.017642 10.190056 19.154745 10.859375 19.208984 C 11.92266 19.295167 11.664302 19.81249 11.865234 20.990234 C 12.066178 22.167978 12.437238 21.881148 12.523438 21.507812 C 12.609633 21.134477 12.669546 19.552492 13.042969 19.064453 C 13.416393 18.576516 13.501627 17.256753 14.708984 17.314453 C 15.915514 17.372156 15.886496 16.222393 16.777344 16.595703 C 17.668178 16.969037 18.30093 16.681335 17.726562 16.193359 C 17.545676 16.039675 17.462422 15.888364 17.451172 15.759766 C 17.260963 15.750346 17.032005 15.702427 16.777344 15.595703 C 16.665988 15.549039 16.569259 15.525905 16.482422 15.521484 z M 32.646484 15.734375 C 32.165645 15.741584 31.972102 16.765381 31.292969 17.921875 C 30.517632 19.243545 30.057107 18.640062 29.367188 17.921875 C 29.300094 17.852028 29.251751 17.782821 29.205078 17.714844 C 28.944387 18.036484 28.924008 18.46051 29.367188 18.921875 C 30.057107 19.640062 30.517632 20.243545 31.292969 18.921875 C 32.069121 17.600168 32.209641 16.452861 32.871094 16.796875 C 33.531708 17.141728 34.279458 18.205044 34.767578 17.601562 C 35.255701 16.998038 35.170578 16.59712 35.832031 17.056641 C 36.16336 17.28713 36.941974 17.408737 37.429688 17.625 C 38.708536 16.550611 36.466988 16.498349 35.832031 16.056641 C 35.170578 15.59712 35.255701 15.998038 34.767578 16.601562 C 34.279458 17.205044 33.531708 16.141728 32.871094 15.796875 C 32.788412 15.753873 32.715176 15.733345 32.646484 15.734375 z M 8.8632812 16.333984 C 8.6614181 16.726366 8.4727955 17.139517 8.28125 17.548828 A 16.999999 16.999999 0 0 0 7 24 A 16.999999 16.999999 0 0 0 7.0253906 24.466797 A 16.999999 16.999999 0 0 1 8.28125 18.548828 C 8.4727955 18.139517 8.6614181 17.726366 8.8632812 17.333984 C 8.9074974 16.937094 8.9262247 16.586901 8.8632812 16.333984 z M 8.4335938 21.039062 C 8.4279418 21.07616 8.4235585 21.097198 8.4179688 21.134766 C 8.1014748 23.260832 9.7971844 22.799961 9.7402344 24.810547 C 9.7047852 26.061948 10.267757 26.818559 10.667969 27.289062 C 10.773651 27.033295 10.950437 26.936269 11.03125 26.855469 C 11.233033 26.654579 9.683279 25.821146 9.7402344 23.810547 C 9.7869649 22.160752 8.6669017 22.155797 8.4335938 21.039062 z M 10.449219 21.845703 C 10.414909 22.313353 10.395373 22.866513 10.431641 23.417969 C 10.453418 22.841407 10.494546 22.313678 10.513672 22.082031 C 10.525572 21.939825 10.496887 21.877507 10.449219 21.845703 z M 27.525391 25.177734 C 27.364228 25.699632 27.418814 26.231911 27.871094 26.794922 C 29.394092 28.690817 29.048797 30.067543 31.232422 30.355469 C 33.416045 30.642424 34.538067 29.667677 35.083984 30.673828 C 35.193674 30.875826 35.256432 31.036826 35.298828 31.185547 C 35.376702 30.637583 35.444213 30.337204 35.083984 29.673828 C 34.538067 28.667677 33.416045 29.642424 31.232422 29.355469 C 29.048797 29.067543 29.394092 27.690817 27.871094 25.794922 C 27.702281 25.584778 27.593688 25.380446 27.525391 25.177734 z M 11.091797 29.638672 L 8.546875 31 L 8.4277344 30.767578 A 16.999999 16.999999 0 0 0 8.9355469 31.792969 L 11.091797 30.638672 C 11.136655 30.743183 11.178339 30.844042 11.230469 30.957031 C 12.436988 33.571164 13.473171 34.348781 13.617188 35.755859 C 13.692374 36.490899 14.146996 37.390982 14.568359 38.097656 A 16.999999 16.999999 0 0 0 15.238281 38.544922 L 15.3125 38.232422 C 15.3125 38.232422 13.761201 36.163776 13.617188 34.755859 C 13.473171 33.348781 12.436988 32.571164 11.230469 29.957031 C 11.178339 29.844042 11.136655 29.743183 11.091797 29.638672 z M 22.818359 32.257812 C 22.725492 32.464192 22.603063 32.682537 22.439453 32.917969 C 21.721057 33.951726 22.124823 35.013948 19.710938 35.818359 C 17.297027 36.62193 17.124728 38.634477 17.210938 39.007812 C 17.220137 39.047533 17.160324 39.309761 17.121094 39.533203 A 16.999999 16.999999 0 0 0 17.214844 39.570312 C 17.302048 38.830471 17.804672 37.45294 19.710938 36.818359 C 22.124823 36.013948 21.721057 34.951726 22.439453 33.917969 C 22.918094 33.229212 23.130289 32.658306 22.818359 32.257812 z M 35.259766 32.607422 C 35.241274 32.813359 35.220871 33.019554 35.226562 33.314453 C 35.237509 33.89487 35.521426 35.084021 35.828125 36.179688 A 16.999999 16.999999 0 0 0 36.044922 35.980469 C 35.69719 34.870786 35.342729 33.424109 35.259766 32.607422 z"/>
 <path style="opacity:0.1;fill-rule:evenodd" d="M 39.453125 11.03125 C 40.464295 12.456892 39.742427 14.185683 40.330078 15.705078 C 41.306638 16.511308 40.88472 16.760422 39.960938 17.160156 C 31.972448 21.458989 24.02187 25.830206 15.998047 30.060547 C 14.535903 30.690412 15.708274 31.726648 16.705078 30.935547 L 42.740234 19.244141 C 41.819802 18.154465 43.774288 17.5897 44 16.707031 C 44.02823 14.996535 42.426684 13.922574 41.457031 12.712891 C 40.837127 12.097004 40.156221 11.546574 39.453125 11.03125 z M 32.730469 18.382812 C 31.259707 18.646282 29.956808 19.49917 28.568359 20.044922 L 5.6132812 30.351562 C 6.8022801 32.151364 1.7559151 32.683155 5.2597656 34.896484 C 6.1998583 36.334736 7.5153197 37.511459 8.890625 38.525391 C 7.8900647 37.110688 8.5855513 35.401993 8.0292969 33.888672 C 7.0734351 33.0713 7.5056594 32.817203 8.421875 32.421875 C 16.399747 28.12833 24.341778 23.764941 32.353516 19.537109 C 32.726359 19.381477 33.633934 18.503485 32.730469 18.382812 z"/>
 <path style="fill:#ffffff;fill-rule:evenodd" d="m 13.10122,26.197382 -6.8948992,3.177249 1.2684606,2.224083 6.5934836,-3.494983 z"/>
 <path style="fill:#ffffff;fill-rule:evenodd" d="m 35.31368,21.362411 6.894899,-3.17725 -1.26846,-2.224082 -6.593483,3.494983 z"/>
 <path style="fill:#616161;fill-rule:evenodd" d="m 39.453637,10.031003 c 1.01117,1.425642 0.288623,3.154491 0.876274,4.673886 0.97656,0.80623 0.555405,1.05615 -0.368378,1.455884 -7.98849,4.298833 -15.93992,8.669908 -23.963743,12.900249 -1.462144,0.629865 -0.288769,1.665438 0.708035,0.874337 L 42.740321,18.24506 c -0.920432,-1.089676 1.033601,-1.655103 1.259313,-2.537772 0.02823,-1.710496 -1.572976,-2.784962 -2.542629,-3.994645 -0.619904,-0.615887 -1.300272,-1.166316 -2.003368,-1.68164 z m 1.486482,6.14831 0.955897,1.918954 -6.089103,2.861411 c -0.999335,-0.595103 -0.997308,-2.041858 0.221612,-2.234707 z m -8.209341,1.204133 c -1.470762,0.263469 -2.773144,1.114842 -4.161593,1.660594 L 5.6140541,29.35244 c 1.1889988,1.799802 -3.8587263,2.331585 -0.3548758,4.544914 0.9400927,1.438252 2.2557272,2.614789 3.6310325,3.628721 -1.0005603,-1.414703 -0.3038156,-3.123079 -0.86007,-4.6364 C 7.074279,32.072303 7.5061321,31.817216 8.4223477,31.421888 16.40022,27.128343 24.342731,22.765764 32.354469,18.537932 32.727312,18.3823 33.634243,17.504119 32.730778,17.383446 Z m -20.183315,9.256503 c 0.997227,0.597191 0.994563,2.041714 -0.223719,2.234707 L 7.4121505,31.420313 6.4562537,29.50136 Z"/>
</svg>
