<svg xmlns="http://www.w3.org/2000/svg" width="48" height="48" version="1">
 <path fill="#f58435" d="m40 42v-36c0-1.108-0.892-2-2-2h-28c-1.108 0-2 0.892-2 2v36c0 1.108 0.892 2 2 2h28c1.108 0 2-0.892 2-2z"/>
 <path fill="#fff" opacity=".2" d="m10 4c-1.108 0-2 0.892-2 2v1c0-1.108 0.892-2 2-2h28c1.108 0 2 0.892 2 2v-1c0-1.108-0.892-2-2-2z"/>
 <path fill="#d6352f" d="m18 19c-2.2091 0-4 1.7909-4 4s1.7909 4 4 4 4-1.7909 4-4h-4zm7 0v2h9v-2zm0 5v2h9v-2zm-11 5v2h16v-2z"/>
 <path opacity=".2" d="m8 42v1c0 1.108 0.892 2 2 2h28c1.108 0 2-0.892 2-2v-1c0 1.108-0.892 2-2 2h-28c-1.108 0-2-0.892-2-2z"/>
</svg>
