<svg xmlns="http://www.w3.org/2000/svg" width="48" height="48" version="1.1" viewBox="0 0 48 48">
 <path style="fill:#4347dc" d="m24 4a20 20 0 0 0 -20 20 20 20 0 0 0 20 20 20 20 0 0 0 20 -20 20 20 0 0 0 -20 -20z"/>
 <path opacity=".2" d="m4.0215 24.418a20 20 0 0 0 -0.0215 0.582 20 20 0 0 0 20 20 20 20 0 0 0 20 -20 20 20 0 0 0 -0.021 -0.418 20 20 0 0 1 -19.979 19.418 20 20 0 0 1 -19.978 -19.582z"/>
 <path fill="#ffffff" style="opacity:0.1" d="m24 4a20 20 0 0 0 -20 20 20 20 0 0 0 0.0215 0.418 20 20 0 0 1 19.978 -19.418 20 20 0 0 1 19.979 19.582 20 20 0 0 0 0.021 -0.582 20 20 0 0 0 -20 -20z"/>
 <path style="opacity:0.2;fill:none;stroke:#000000;stroke-width:2" d="m 16.658388,22.569 c 10.365469,-4.04139 21.101,0.168734 20.363612,8.16658 -0.263883,2.862121 -4.730011,4.607128 -7.706276,4.242839 -5.064512,-0.619884 -9.67718,-6.673908 -11.582608,-10.221915 -2.242092,-4.174893 -1.2035,-13.458021 5.121226,-13.762504 4.448984,0.309442 5.73991,4.074344 6.304729,6.75725 2.24332,10.655841 -9.527472,22.305906 -16.215397,16.878967 C 8.5719937,31.082802 12.217524,24.399988 16.658388,22.569 Z"/>
 <path style="fill:none;stroke:#81ff86;stroke-width:2" d="m 16.658388,21.569 c 10.365469,-4.04139 21.101,0.168734 20.363612,8.16658 -0.263883,2.862121 -4.730011,4.607128 -7.706276,4.242839 -5.064512,-0.619884 -9.67718,-6.673908 -11.582608,-10.221915 -2.242092,-4.174893 -1.2035,-13.458021 5.121226,-13.7625037 4.448984,0.3094417 5.73991,4.0743437 6.304729,6.7572497 2.24332,10.655841 -9.527472,22.305906 -16.215397,16.878967 C 8.5719937,30.082802 12.217524,23.399988 16.658388,21.569 Z"/>
</svg>
