<svg xmlns="http://www.w3.org/2000/svg" width="48" height="48" version="1">
 <rect style="opacity:0.2" width="2" height="8" x="34" y="21" rx=".5" ry=".5"/>
 <rect style="opacity:0.2" width="2" height="8" x="43" y="21" rx=".5" ry=".5"/>
 <path style="opacity:0.2" d="M 22.001953,5 C 10.923062,5 2.0039062,13.92 2.0039062,25 c 0,11.08 8.9191558,20 19.9980468,20 4.991485,0 9.533826,-1.81931 13.025187,-4.826518 C 36.127456,39.225749 32.127293,39.163937 33,38 L 26,25 35,11 C 33.532705,9.043056 34.713174,9.3676673 32.638752,8.0599579 29.56442,6.121908 25.921673,5 22.001953,5 Z"/>
 <path style="fill:#f7941e" d="M 22.001953,4 C 10.923062,4 2.0039062,12.92 2.0039062,24 c 0,11.08 8.9191558,20 19.9980468,20 4.991485,0 9.533826,-1.81931 13.025187,-4.826518 C 36.127456,38.225749 32.127293,38.163937 33,37 L 26,24 35,10 C 33.532705,8.043056 34.713174,8.3676673 32.638752,7.0599579 29.56442,5.121908 25.921673,4 22.001953,4 Z"/>
 <path style="fill:#ffffff;opacity:0.1" d="M 22.001953 4 C 10.923062 4 2.0039063 12.92 2.0039062 24 C 2.0039062 24.167874 2.0115536 24.333141 2.015625 24.5 C 2.2802716 13.653863 11.090919 5 22.001953 5 C 25.921673 5 29.56434 6.122497 32.638672 8.0605469 C 34.516113 9.2440803 33.746932 9.1066738 34.667969 10.517578 L 35 10 C 33.532705 8.043056 34.713094 8.3682563 32.638672 7.0605469 C 29.56434 5.122497 25.921673 4 22.001953 4 z M 26.292969 24.544922 L 26 25 L 33 38 C 32.434044 38.754821 33.904173 39.047957 34.716797 39.417969 C 34.818228 39.334022 34.927614 39.259728 35.027344 39.173828 C 36.12766 38.226095 32.127293 38.163937 33 37 L 26.292969 24.544922 z"/>
 <path style="opacity:0.2" d="M 26.001953,5 C 14.923062,5 6.0039062,13.92 6.0039062,25 c 0,11.08 8.9191558,20 19.9980468,20 5.538924,0 10.537785,-2.231305 14.152344,-5.845703 L 26,25 40.154297,10.845703 C 36.539738,7.2313049 31.540877,5 26.001953,5 Z"/>
 <path style="fill:#4c3a91" d="M 26.001953 4 C 14.923062 4 6.0039062 12.92 6.0039062 24 C 6.0039062 35.08 14.923062 44 26.001953 44 C 31.540877 44 36.539738 41.768695 40.154297 38.154297 L 26 24 L 40.154297 9.8457031 C 36.539738 6.2313049 31.540877 4 26.001953 4 z"/>
 <path style="opacity:0.2" d="M 26,11 A 14,14 0 0 0 13.896484,18 H 7.2753906 c -0.3608087,0.969747 -0.6704021,1.964769 -0.8789062,3 h 6.1992186 a 14,14 0 0 0 -0.4375,2 H 6.0996094 C 6.0348854,23.657678 6,24.324747 6,25 c 0,0.335764 0.0092,0.668391 0.025391,1 h 6.0253904 a 14,14 0 0 0 0.285157,2 H 6.2226562 c 0.1533605,1.028276 0.3848463,2.029968 0.6875,3 H 13.369141 A 14,14 0 0 0 26,39 14,14 0 0 0 35.892578,34.892578 L 33.066406,32.066406 A 10,10 0 0 1 26,35 10,10 0 0 1 16,25 10,10 0 0 1 26,15 a 10,10 0 0 1 7.066406,2.933594 l 2.826172,-2.826172 A 14,14 0 0 0 26,11 Z m 0,9 a 5,5 0 0 0 -5,5 5,5 0 0 0 5,5 5,5 0 0 0 5,-5 5,5 0 0 0 -5,-5 z"/>
 <path style="fill:#ffffff" d="M 26 10 A 14 14 0 0 0 13.896484 17 L 7.2753906 17 C 6.9145819 17.969747 6.6049885 18.964769 6.3964844 20 L 12.595703 20 A 14 14 0 0 0 12.158203 22 L 6.0996094 22 C 6.0348854 22.657678 6 23.324747 6 24 C 6 24.335764 6.0091996 24.668391 6.0253906 25 L 12.050781 25 A 14 14 0 0 0 12.335938 27 L 6.2226562 27 C 6.3760167 28.028276 6.6075025 29.029968 6.9101562 30 L 13.369141 30 A 14 14 0 0 0 26 38 A 14 14 0 0 0 35.892578 33.892578 L 33.066406 31.066406 A 10 10 0 0 1 26 34 A 10 10 0 0 1 16 24 A 10 10 0 0 1 26 14 A 10 10 0 0 1 33.066406 16.933594 L 35.892578 14.107422 A 14 14 0 0 0 26 10 z M 26 19 A 5 5 0 0 0 21 24 A 5 5 0 0 0 26 29 A 5 5 0 0 0 31 24 A 5 5 0 0 0 26 19 z"/>
 <path style="fill:#ffffff;opacity:0.1" d="M 26.001953 4 C 14.923062 4 6.0039062 12.92 6.0039062 24 C 6.0039062 24.167874 6.0115536 24.333141 6.015625 24.5 C 6.2802716 13.653863 15.090919 5 26.001953 5 C 31.285121 5 36.062982 7.0451895 39.630859 10.369141 L 40.154297 9.8457031 C 36.539738 6.2313049 31.540877 4 26.001953 4 z M 26.5 24.5 L 26 25 L 39.630859 38.630859 C 39.803579 38.469948 39.987397 38.32119 40.154297 38.154297 L 26.5 24.5 z"/>
 <rect style="fill:#4c3a91" width="2" height="8" x="34" y="20" rx=".5" ry=".5"/>
 <rect style="fill:#4c3a91" width="2" height="8" x="43" y="20" rx=".5" ry=".5"/>
 <rect style="opacity:0.2" width="2" height="8" x="24" y="-39" rx=".5" ry=".5" transform="rotate(90)"/>
 <rect style="fill:#4c3a91" width="2" height="8" x="23" y="-39" rx=".5" ry=".5" transform="rotate(90)"/>
 <rect style="opacity:0.2" width="2" height="8" x="24" y="-48" rx=".5" ry=".5" transform="rotate(90)"/>
 <rect style="fill:#4c3a91" width="2" height="8" x="23" y="-48" rx=".5" ry=".5" transform="rotate(90)"/>
</svg>
