<?xml version="1.0" encoding="UTF-8" standalone="no"?>
<svg id="svg2817" xmlns:rdf="http://www.w3.org/1999/02/22-rdf-syntax-ns#" xmlns="http://www.w3.org/2000/svg" height="48" width="48" version="1.0" xmlns:cc="http://creativecommons.org/ns#" xmlns:dc="http://purl.org/dc/elements/1.1/">
    <metadata id="metadata57">
        <rdf:RDF>
            <cc:Work rdf:about="">
                <dc:format>
                    image/svg+xml
                </dc:format>
                <dc:type rdf:resource="http://purl.org/dc/dcmitype/StillImage"/>
                <dc:title/>
            </cc:Work>
        </rdf:RDF>
    </metadata>
    <rect id="rect4203-0" ry="19.998" rx="20" transform="matrix(0,-1,-1,0,0,0)" height="39.996" width="40" y="-43.998" x="-44" fill="#2496f2"/>
    <path id="rect3436" opacity=".2" d="m24 4c-11.079 0-19.998 8.92-19.998 20 0 0.16772-0.004 0.33329 0 0.5 0.2642-10.846 9.087-19.5 19.998-19.5s19.734 8.6536 19.998 19.5c0.004-0.16671 0-0.33228 0-0.5 0-11.08-8.919-20-19.998-20z" fill="#fff"/>
    <path id="rect4209" opacity=".2" d="m4.0117 24.5c-0.0041 0.167-0.0117 0.332-0.0117 0.5 0 11.08 8.92 20 20 20s20-8.92 20-20c0-0.168-0.008-0.333-0.012-0.5-0.264 10.846-9.076 19.5-19.988 19.5s-19.724-8.654-19.988-19.5z"/>
    <path id="path4364" opacity=".2" d="m24 10a15 15 0 0 0 -15 15 15 15 0 0 0 15 15 15 15 0 0 0 15 -15 15 15 0 0 0 -15 -15zm-4 5h8c2.216 0 4 1.784 4 4v2c0 2.216-1.784 4-4 4h-1v9c0 1.108-0.892 2-2 2h-2c-1.108 0-2-0.892-2-2v-9h-1c-2.216 0-4-1.784-4-4v-2c0-2.216 1.784-4 4-4z"/>
    <path id="path4348" fill="#fff" d="m24 9a15 15 0 0 0 -15 15 15 15 0 0 0 15 15 15 15 0 0 0 15 -15 15 15 0 0 0 -15 -15zm-4 5h8c2.216 0 4 1.784 4 4v2c0 2.216-1.784 4-4 4h-1v9c0 1.108-0.892 2-2 2h-2c-1.108 0-2-0.892-2-2v-9h-1c-2.216 0-4-1.784-4-4v-2c0-2.216 1.784-4 4-4z"/>
</svg>
