<svg xmlns="http://www.w3.org/2000/svg" width="48" height="48" version="1">
 <path style="fill:#3a68b6" d="m-6.4105395-33.55495c1.5381007 2.835869 2.4105395 6.089778 2.4105395 9.55495 0 6.027215-2.6394817 11.415272-6.830324 15.076052-15.580155 0.478138-32.711076-17.058392-27.221109-24.616624 3.114015-4.287174 21.612082-1.476352 31.640894-0.01438z" transform="matrix(0,-1,-1,0,0,0)"/>
 <path fill="#fff" style="opacity:.1" d="m24 4c-11.08 0-20 8.92-20 20 0 0.168-0.004 0.333 0 0.5 0.2644-10.846 9.088-19.5 20-19.5s19.736 8.654 20 19.5c0.004-0.167 0-0.332 0-0.5 0-11.08-8.92-20-20-20z"/>
 <path style="opacity:.2" d="m31.027344 3-0.238282 0.296875c-0.041 0.0509-0.08115 0.10261-0.123046 0.15625-0.9254 1.22746-1.451447 2.6139856-2.004446 4.1035156-0.2108 0.57148-0.434295 1.4333306-0.558594 2.1503906-0.1246 0.7190308-0.135531 2.3166428-0.01953 2.9453128 0.3066 1.66536 1.007909 3.23463 2.037109 4.5625 1.193001 1.29899 2.489896 2.73079 2.973196 3.77539 0.6645 1.43723 0.945312 2.716641 0.945312 4.306641 0 0.47927-0.02736 0.971925-0.06836 1.265625-1.007291 4.70997-4.342417 8.412257-9.023163 8.4375-2.963027 0.011109-6.94754-1-7.484645-4.060624 1.427223 0.21735 2.49721 0.139574 3.516614 0.132348 0.942021-0.0067 1.840847-0.209011 2.938464-0.791396 1.6354-0.87322 2.444972-1.034272 2.892472-0.982422 0.6594 0.0764 0.742519 0.07487 0.886719-0.01563 0.3058-0.19188 0.393497-0.26889 0.216797-0.63392-0.2231-0.460851-1.00581-1.104418-1.66211-1.367188-0.5497-0.22011-0.849112-0.274991-1.507812-0.275391-0.6708-0.00038-1.239713 0.03184-2.449113 0.398438-1.2073 0.36601-1.876494 0.420991-2.621094 0.212891-3.096805-0.7412-4.669232-3.491336-3.161832-5.501106 0.9066-0.0418 2.747995 0.56799 3.322 0.96009 0.5492-0.53971-0.642805-1.370076-0.834-2.128906 0-0.947184 1.929958-1.498566 2.72266-1.855469 0.5222-0.23436 1.03136-0.474913 1.13086-0.533203 0.2162-0.12674 0.633034-0.531347 0.802734-0.779297 0.2589-0.37852 0.428919-1.079471 0.324219-1.332031-0.1314-0.31741-1.015297-0.514948-3.154297-0.705078-0.8073-0.0718-1.359556-0.440877-1.785156-1.191407-0.745605-1.72401 1.894943-3.363922 2.839843-4.232422-1.5029-0.8202799-4.296406 0.618675-5.191406 1.458985-0.2867 0.28371-0.199059 0.279361-1.068359 0.05078-0.058-0.0153-0.118088-0.02877-0.179688-0.04297-0.022-0.005-0.04441-0.01083-0.06641-0.01563-0.04-0.009-0.08205-0.01709-0.123047-0.02539-0.029-0.006-0.05789-0.01188-0.08789-0.01758-0.034-0.006-0.06736-0.01343-0.101562-0.01953-0.036-0.006-0.07122-0.01158-0.107422-0.01758-0.026-0.004-0.05213-0.0074-0.07813-0.01172-0.2302-0.0363-0.470691-0.06744-0.712891-0.08984-0.2649-0.0244-0.530509-0.04068-0.787109-0.04687-0.077-0.002-0.153716-0.002-0.228515-0.002-0.081-0.00017-0.158929-0.000106-0.236329 0.002-0.015 0.00039-0.02992 0.000953-0.04492 0.002-0.065 0.002-0.129107 0.0048-0.191407 0.0078-0.01 0.00049-0.01739 0.000953-0.02539 0.002-0.069 0.004-0.134919 0.0094-0.199219 0.01563-0.01 0.00051-0.01062 0.000953-0.01563 0.002-0.066 0.006-0.1273 0.01504-0.1875 0.02344h-0.002c-0.027 0.004-0.05603 0.0072-0.08203 0.01172-0.2865-0.001-0.549237 0.08022-0.773437 0.183593-0.7524-1.270629-0.934831-3.516675-1.5195312-4.789115-1.3676 0.71671-2.3044094 4.239056-2.5371094 5.439506-0.089 0.47737-0.1909063 1.404352-0.1914063 1.732422-0.0000911 0.04722-0.011878 0.06562-0.013672 0.09961-1.9759521 3.101022-3.1288531 6.778817-3.1288531 10.728462 0 11.045695 8.954305 20 20 20s20-8.954305 20-20c0-7-3.134724-10.596514-6.238281-15.509766 0-0.003 0.000234-0.00481-0.0098-0.00781-0.457401-0.6840619-0.853245-1.4350158-1.173829-2.1796845-0.05-0.16416-0.109359-0.2988282-0.130859-0.2988282-0.01 0-0.01925 0.00648-0.03125 0.017578-0.403269 0.4874781-0.598251 2.3858934-0.814452 2.9785107-1.560995-2.1621941-3.496201-4.3115294-4.515591-6.7070312z"/>
 <path style="fill:#239ffa" d="m31.027344 2-0.238282 0.296875c-0.041 0.0509-0.08115 0.10261-0.123046 0.15625-0.9254 1.22746-1.451447 2.6139856-2.004446 4.1035156-0.2108 0.57148-0.434295 1.4333306-0.558594 2.1503906-0.1246 0.7190304-0.135531 2.3166428-0.01953 2.9453128 0.3066 1.66536 1.007909 3.23463 2.037109 4.5625 1.193001 1.29899 2.489896 2.73079 2.973196 3.77539 0.6645 1.43723 0.945312 2.716641 0.945312 4.306641 0 0.47927-0.02736 0.971925-0.06836 1.265625-1.007291 4.70997-4.342417 8.412257-9.023163 8.4375-2.963027 0.011109-6.94754-1-7.484645-4.060624 1.427223 0.21735 2.49721 0.139574 3.516614 0.132348 0.942021-0.0067 1.840847-0.209011 2.938464-0.791396 1.6354-0.87322 2.444972-1.034272 2.892472-0.982422 0.6594 0.0764 0.742519 0.07487 0.886719-0.01563 0.3058-0.19188 0.393497-0.26889 0.216797-0.63392-0.2231-0.460851-1.00581-1.104418-1.66211-1.367188-0.5497-0.22011-0.849112-0.274991-1.507812-0.275391-0.6708-0.00038-1.239713 0.03184-2.449113 0.398438-1.2073 0.36601-1.876494 0.420991-2.621094 0.212891-3.096805-0.7412-4.669232-3.491336-3.161832-5.501106 0.9066-0.0418 2.747995 0.56799 3.322 0.96009 0.5492-0.53971-0.642805-1.370076-0.834-2.128906 0-0.947184 1.929958-1.498566 2.72266-1.855469 0.5222-0.23436 1.03136-0.474913 1.13086-0.533203 0.2162-0.12674 0.633034-0.531347 0.802734-0.779297 0.2589-0.37852 0.428919-1.079471 0.324219-1.332031-0.1314-0.31741-1.015297-0.514948-3.154297-0.705078-0.8073-0.0718-1.359556-0.440877-1.785156-1.191407-0.745605-1.72401 1.894943-3.363922 2.839843-4.2324216-1.5029-0.8202803-4.296406 0.6186746-5.191406 1.4589846-0.2867 0.28371-0.199059 0.279361-1.068359 0.05078-0.058-0.0153-0.118088-0.02877-0.179688-0.04297-0.022-0.005-0.04441-0.01083-0.06641-0.01563-0.04-0.009-0.08205-0.01709-0.123047-0.02539-0.029-0.006-0.05789-0.01188-0.08789-0.01758-0.034-0.006-0.06736-0.01343-0.101562-0.01953-0.036-0.006-0.07122-0.01158-0.107422-0.01758-0.026-0.004-0.05213-0.0074-0.07813-0.01172-0.2302-0.0363-0.470691-0.06744-0.712891-0.08984-0.2649-0.0244-0.530509-0.04068-0.787109-0.04687-0.077-0.002-0.153716-0.002-0.228515-0.002-0.081-0.00017-0.158929-0.000106-0.236329 0.002-0.015 0.00039-0.02992 0.000953-0.04492 0.002-0.065 0.002-0.129107 0.0048-0.191407 0.0078-0.01 0.00049-0.01739 0.000953-0.02539 0.002-0.069 0.004-0.134919 0.0094-0.199219 0.01563-0.01 0.00051-0.01062 0.000953-0.01563 0.002-0.066 0.006-0.1273 0.01504-0.1875 0.02344h-0.002c-0.027 0.004-0.05603 0.0072-0.08203 0.01172-0.2865-0.001-0.549237 0.08022-0.773437 0.183593-0.7524-1.2706293-0.934831-3.516675-1.5195312-4.789115-1.3676 0.71671-2.3044094 4.239056-2.5371094 5.439506-0.089 0.47737-0.1909063 1.404352-0.1914063 1.732422-0.0000911 0.04722-0.011878 0.06562-0.013672 0.09961-1.9759521 3.101022-3.1288531 6.778817-3.1288531 10.728462 0 11.045695 8.954305 20 20 20s20-8.954305 20-20c0-7-3.134724-10.596514-6.238281-15.509766 0-0.003 0.000234-0.00481-0.0098-0.00781-0.457401-0.6840619-0.853245-1.4350158-1.173829-2.1796845-0.05-0.16416-0.109359-0.2988282-0.130859-0.2988282-0.01 0-0.01925 0.00648-0.03125 0.017578-0.403269 0.4874781-0.598251 2.3858934-0.814452 2.9785107-1.560995-2.1621941-3.496201-4.3115294-4.515591-6.7070312z"/>
 <path style="opacity:.2;fill:#ffffff" d="m31.027344 2l-0.238282 0.296875c-0.041 0.0509-0.08115 0.10261-0.123046 0.15625-0.9254 1.22746-1.450908 2.6139856-2.003907 4.1035156-0.2108 0.57148-0.434294 1.4333306-0.558593 2.1503906-0.086503 0.4991812-0.115397 1.4107778-0.087891 2.1386718 0.013263-0.437364 0.039369-0.85867 0.087891-1.1386718 0.124299-0.71706 0.347793-1.5789106 0.558593-2.1503906 0.552999-1.48953 1.078507-2.8760556 2.003907-4.1035156 0.041896-0.05364 0.082046-0.10535 0.123046-0.15625l0.238282-0.296875 0.058594 0.2929688c1.01939 2.3955017 2.95463 4.5448371 4.515624 6.7070312 0.216201-0.5926173 0.411185-2.4910379 0.814454-2.9785156 0.012-0.011098 0.02125-0.0175782 0.03125-0.0175782 0.0215 0 0.080859 0.1346682 0.130859 0.2988282 0.320584 0.7446687 0.716427 1.4956256 1.173828 2.1796875 0.010034 0.003 0.009766 0.0048125 0.009766 0.0078125 3.031558 4.7992706 6.084204 8.3512686 6.224609 15.03711 0.004563-0.175752 0.013672-0.350492 0.013672-0.527344 0-7-3.134724-10.596514-6.238281-15.509766 0-0.0029996 0.000268-0.0048121-0.009766-0.0078121-0.457401-0.6840619-0.853244-1.4350188-1.173828-2.1796875-0.05-0.16416-0.109359-0.2988282-0.130859-0.2988282-0.01 0-0.01925 0.0064802-0.03125 0.0175782-0.403269 0.4874777-0.598253 2.3858983-0.814454 2.9785156-1.560994-2.1621941-3.496234-4.3115295-4.515624-6.7070312l-0.058594-0.2929688zm-21.15625 4c-1.3676 0.71671-2.3044094 4.239003-2.5371094 5.439453-0.089 0.47737-0.1909063 1.404352-0.1914063 1.732422-0.0000911 0.04722-0.0118778 0.065619-0.0136719 0.099609-1.975952 3.101022-3.1289062 6.778871-3.1289062 10.728516 0 0.198453 0.0079308 0.394734 0.0136719 0.591797 0.0769316-3.793858 1.2079223-7.327013 3.1152343-10.320313 0.0017941-0.03399 0.0135808-0.052389 0.0136719-0.099609 0.0005-0.32807 0.1024063-1.255052 0.1914063-1.732422 0.2327-1.20045 1.1695094-4.722743 2.5371094-5.439453 0.5847002 1.27244 0.7671312 3.518433 1.5195312 4.789062 0.2242-0.103372 0.486937-0.184593 0.773437-0.183593 0.026001-0.00452 0.055032-0.007719 0.082032-0.011719h0.001953c0.0602-0.0084 0.1215-0.017437 0.1875-0.023438 0.00501-0.001046 0.005625-0.001443 0.015625-0.001953 0.0643-0.00623 0.130219-0.011625 0.199219-0.015625 0.008-0.001047 0.01539-0.001463 0.02539-0.001953 0.0623-0.003 0.126407-0.005812 0.191407-0.007812 0.014999-0.001047 0.029921-0.001563 0.044921-0.001953 0.0774-0.002106 0.155329-0.002124 0.236329-0.001954 0.074799 0.000001 0.151515-0.000046 0.228515 0.001954 0.2566 0.00619 0.522209 0.022475 0.787109 0.046875 0.2422 0.0224 0.482691 0.053543 0.712891 0.089843 0.026 0.00432 0.052125 0.007719 0.078125 0.011719 0.036202 0.006 0.071422 0.011578 0.107422 0.017578 0.034202 0.0061 0.067562 0.013531 0.101562 0.019531 0.030001 0.005701 0.058891 0.011579 0.087891 0.017579 0.040997 0.0083 0.083047 0.01639 0.123047 0.02539 0.022 0.0048 0.044406 0.010625 0.066406 0.015625 0.0616 0.0142 0.121688 0.027669 0.179688 0.042969 0.8693 0.228581 0.781659 0.232929 1.068359-0.050781 0.731705-0.686993 2.725031-1.754092 4.251953-1.679688 0.365432-0.2998211 0.705101-0.5638931 0.939453-0.7792966-1.5029-0.8202803-4.296406 0.6186743-5.191406 1.4589846-0.2867 0.28371-0.199059 0.279362-1.068359 0.050781-0.058-0.0153-0.118088-0.028769-0.179688-0.042969-0.022-0.005-0.044406-0.010825-0.066406-0.015625-0.04-0.009-0.08205-0.01709-0.123047-0.02539-0.029-0.006-0.05789-0.011878-0.087891-0.017579-0.034-0.006-0.06736-0.013431-0.101562-0.019531-0.036-0.006-0.07122-0.011578-0.107422-0.017578-0.026-0.004-0.052125-0.007399-0.078125-0.011719-0.2302-0.0363-0.470691-0.067443-0.712891-0.089843-0.2649-0.0244-0.530509-0.040685-0.787109-0.046875-0.077-0.002-0.153716-0.001954-0.228515-0.001954-0.081-0.00017-0.158929-0.000152-0.236329 0.001954-0.015 0.00039-0.029922 0.000906-0.044921 0.001953-0.065 0.002-0.129107 0.004812-0.191407 0.007812-0.01 0.00049-0.01739 0.000906-0.02539 0.001953-0.069 0.004-0.134919 0.009395-0.199219 0.015625-0.01 0.00051-0.010615 0.000906-0.015625 0.001953-0.066 0.006001-0.1273 0.015038-0.1875 0.023438h-0.001953c-0.027 0.004-0.056031 0.007199-0.082032 0.011719-0.2865-0.001-0.549237 0.080221-0.773437 0.183593-0.7524-1.2706288-0.934831-3.516622-1.5195312-4.789062zm9.1269532 7.416016c-0.114898 0.369224-0.123666 0.749467 0.042969 1.134765 0.4256 0.75053 0.977856 1.119607 1.785156 1.191407 1.833937 0.163013 2.739467 0.333338 3.044922 0.578124 0.119379-0.338604 0.179188-0.704641 0.109375-0.873046-0.1314-0.31741-1.015297-0.514948-3.154297-0.705078-0.8073-0.0718-1.359556-0.440877-1.785156-1.191407-0.019508-0.045107-0.028006-0.089786-0.042969-0.134765zm0.228515 7.005859c-0.133052 0.161148-0.226562 0.333393-0.226562 0.525391 0.08402 0.333464 0.359793 0.677455 0.597656 1.007812 0.074012 0.039749 0.182669 0.084439 0.236328 0.121094 0.436099-0.428563-0.220622-1.040541-0.607422-1.654297zm-3.24414 2.867187c-0.343995 1.784824 1.167013 3.723928 3.691406 4.328126 0.7446 0.2081 1.413794 0.153119 2.621094-0.212891 1.2094-0.366598 1.778419-0.398818 2.449219-0.398438 0.6587 0.0004 0.958112 0.055281 1.507812 0.275391 0.499279 0.199902 1.068551 0.619154 1.412109 1.011719 0.009255-0.005243 0.023596-0.003736 0.033204-0.009766 0.3058-0.19188 0.393496-0.269735 0.216796-0.634765-0.223099-0.460852-1.005809-1.104418-1.662109-1.367188-0.5497-0.22011-0.849112-0.274991-1.507812-0.275391-0.6708-0.00038-1.239819 0.03184-2.449219 0.398438-1.2073 0.36601-1.876494 0.420991-2.621094 0.212891-2.055763-0.492034-3.434177-1.869783-3.691406-3.328126zm18.03125 1.478516c-0.01159 0.28883-0.017217 0.610453-0.042969 0.794922-1.007291 4.70997-4.342691 8.412257-9.023437 8.4375-2.597701 0.009739-5.980112-0.767606-7.136719-3.021484-0.117967-0.014589-0.224573-0.020319-0.347656-0.039063 0.537105 3.060624 4.521348 4.071656 7.484375 4.060547 4.680746-0.025243 8.016146-3.72753 9.023437-8.4375 0.041-0.2937 0.068359-0.786355 0.068359-1.265625 0-0.184457-0.017671-0.352469-0.02539-0.529297z"/>
</svg>
