<svg xmlns="http://www.w3.org/2000/svg" width="48" height="48" version="1.1" viewBox="0 0 48 48">
 <circle cx="24" cy="25" r="20" style="opacity:0.2"/>
 <circle style="fill:#235b92" cx="24" cy="24" r="20"/>
 <path style="opacity:0.1;fill:#ffffff" d="M 24 4 A 20 20 0 0 0 4 24 A 20 20 0 0 0 4.0214844 24.582031 A 20 20 0 0 1 24 5 A 20 20 0 0 1 43.978516 24.417969 A 20 20 0 0 0 44 24 A 20 20 0 0 0 24 4 z"/>
 <path d="m 21.142578,12.32975 c -1.79206,0.409442 -3.476912,1.194287 -4.943359,2.302734 L 16,14.999672 c 1.323291,-0.85942 3.41711,-0.772409 4.986328,-0.9375 z m 5.714844,0.0059 0.28125,3.099609 c 2.369447,1.422934 4.04431,3.763076 4.626953,6.464844 L 36.75,22.486 C 35.749107,17.444369 31.87164,13.46585 26.857422,12.33561 Z m -14.101563,6.191406 c -0.712088,1.228353 -1.218138,2.565064 -1.498047,3.957031 l 0.886719,-0.103516 c 0.0057,-1.507051 0.611328,-3.853515 0.611328,-3.853515 z" style="opacity:0.2"/>
 <path style="fill:#ffffff" d="M 21.142578 11.330078 C 19.350518 11.73952 17.665666 12.524365 16.199219 13.632812 L 16 14 C 17.323291 13.14058 19.41711 13.227591 20.986328 13.0625 L 21.142578 11.330078 z M 26.857422 11.335938 L 27.138672 14.435547 C 29.508119 15.858481 31.182982 18.198623 31.765625 20.900391 L 36.75 21.486328 C 35.749107 16.444697 31.87164 12.466178 26.857422 11.335938 z M 12.755859 17.527344 C 12.043771 18.755697 11.537721 20.092408 11.257812 21.484375 L 12.144531 21.380859 C 12.150231 19.873808 12.755859 17.527344 12.755859 17.527344 z"/>
 <path style="fill:#363636" d="m 11.25,26.513672 c 1.000893,5.041631 4.87836,9.020149 9.892578,10.15039 l -0.339844,-3.74414 c -3.636738,-0.438513 -6.742666,-2.83034 -8.095703,-6.234375 z"/>
 <path style="fill:#363636" d="m 36.742188,26.515672 -5.669922,0.666016 c -0.807563,1.756001 -2.106704,3.240346 -3.740235,4.273437 l -0.474609,5.214844 c 5.012297,-1.133542 8.886443,-5.113326 9.884766,-10.154297 z"/>
 <path d="M 24,3 22,23 7,25 22,27 24,47 26,27 41,25 26,23 Z" style="opacity:0.2"/>
 <path style="fill:#f75151" d="M 24,2 22,22 7,24 22,26 24,46 26,26 41,24 26,22 Z"/>
 <path style="opacity:0.1" d="M 11.25 26.513672 C 11.319307 26.862781 11.405638 27.204648 11.501953 27.542969 L 12.707031 27.685547 C 14.060068 31.089582 17.165996 33.481409 20.802734 33.919922 L 21.048828 36.638672 C 21.080528 36.646066 21.110787 36.656897 21.142578 36.664062 L 20.802734 32.919922 C 17.165996 32.481409 14.060068 30.089582 12.707031 26.685547 L 11.25 26.513672 z M 36.742188 26.515625 L 31.072266 27.181641 C 30.264703 28.937642 28.965562 30.421987 27.332031 31.455078 L 26.857422 36.669922 C 26.889185 36.662739 26.919501 36.651943 26.951172 36.644531 L 27.332031 32.455078 C 28.965562 31.421987 30.264703 29.937642 31.072266 28.181641 L 36.490234 27.544922 C 36.586365 27.206628 36.673058 26.864688 36.742188 26.515625 z"/>
</svg>
