<?xml version="1.0" encoding="utf-8"?>
<!-- Generator: Adobe Illustrator 16.0.0, SVG Export Plug-In . SVG Version: 6.00 Build 0)  -->
<!DOCTYPE svg PUBLIC "-//W3C//DTD SVG 1.1//EN" "http://www.w3.org/Graphics/SVG/1.1/DTD/svg11.dtd">
<svg version="1.1" id="Capa_1" xmlns="http://www.w3.org/2000/svg" xmlns:xlink="http://www.w3.org/1999/xlink" x="0px" y="0px"
	 width="48px" height="48px" viewBox="0 0 48 48" enable-background="new 0 0 48 48" xml:space="preserve">
<g id="Capa_4">
	<path fill="#CFD4CC" d="M45.875,15.596c0,0-0.44-1.244-1.754-2.23c-0.947-0.708-2.185-0.91-2.968-1.001
		c-1.002-0.116-1.75-0.125-2.494-0.443c-1.419-0.604-1.855-1.065-1.855-1.065v4.74H45.875"/>
	<path fill="#CFD4CC" d="M2.478,15.561c0,0,0.44-1.244,1.756-2.23c0.945-0.708,2.183-0.91,2.966-1.001
		c1.002-0.116,1.749-0.125,2.495-0.442c1.416-0.604,1.854-1.066,1.854-1.066v4.74H2.478"/>
</g>
<g id="Capa_2">
	<path fill="#010002" fill-opacity="0.2" d="M2.086,17.508c0.095-0.708,0.563-1.313,0.79-1.521c0.275-0.252,1.063-0.658,1.626-0.895
		c1.003-0.419,1.47-0.105,3.256-0.839c1.397-0.577,2.583-1.62,3.413-2.206c0.857-0.607,1.208-0.736,2.625-0.736
		c5.146,0,16.227,0,20.584,0c1.471,0,2.385,0.424,2.993,0.998c0.944,0.893,2.151,1.526,2.887,1.838
		c0.884,0.375,2.728,0.974,3.677,1.103c1.154,0.158,1.643,0.751,1.975,1.074c0.297,0.286,0.58,1.297,0.619,1.692
		c0.275,2.9,0.129,3.51,0.242,4.848c0.148,1.768,0.367,4.843,0.369,6.615c0,1.785-0.279,1.972-0.58,2.361
		c-0.797,1.043-3.336,2.104-4.516,2.68c-0.857,0.42-2.681,1.055-3.623,1.207c-0.324,0.053-1.313,0-1.313,0s-1.146,0.819-1.575,0.998
		c-1.063,0.437-3.374,0.734-4.517,0.84c-2.967,0.274-8.939,0.012-11.92,0c-1.527-0.004-4.644-0.032-6.09-0.522
		c-0.531-0.183-1.89-1.209-1.89-1.209s-1.229-0.024-1.628-0.106c-1.119-0.225-3.24-1.112-4.305-1.521
		c-0.934-0.354-2.834-1.163-3.52-1.89c-0.49-0.521-0.936-2.024-0.84-2.732c0.21-1.572,0.324-4.574,0.525-6.09
		C1.55,22,1.783,19.787,2.086,17.508z"/>
	<path fill="#715598" d="M2.133,16.506c0.095-0.708,0.564-1.313,0.791-1.521c0.276-0.252,1.062-0.658,1.625-0.895
		c1.003-0.419,1.47-0.105,3.255-0.84c1.398-0.576,2.584-1.619,3.414-2.205c0.857-0.605,1.208-0.734,2.625-0.734
		c5.146,0,16.227,0,20.583,0c1.47,0,2.386,0.422,2.993,0.998c0.943,0.893,2.152,1.525,2.887,1.836
		c0.887,0.375,2.727,0.974,3.678,1.104c1.154,0.158,1.643,0.75,1.976,1.074c0.296,0.285,0.58,1.297,0.617,1.693
		c0.274,2.899,0.129,3.508,0.243,4.846c0.148,1.769,0.367,4.841,0.367,6.617c0.002,1.785-0.277,1.97-0.58,2.363
		c-0.797,1.042-3.334,2.1-4.515,2.678c-0.856,0.418-2.681,1.055-3.622,1.205c-0.324,0.055-1.313,0-1.313,0s-1.144,0.822-1.575,1
		c-1.063,0.437-3.371,0.732-4.516,0.84c-2.967,0.275-8.939,0.012-11.92,0c-1.527-0.006-4.644-0.033-6.09-0.524
		c-0.531-0.181-1.891-1.208-1.891-1.208s-1.229-0.023-1.628-0.104c-1.119-0.227-3.239-1.115-4.306-1.523
		c-0.934-0.355-2.834-1.163-3.519-1.891c-0.489-0.521-0.935-2.023-0.841-2.73c0.21-1.576,0.324-4.577,0.525-6.091
		C1.597,20.998,1.829,18.785,2.133,16.506z"/>
</g>
<g id="Capa_5">
	<path fill="#010002" fill-opacity="0.2" d="M14.224,14.615c5.438-0.34,14.676-0.342,19.586,0c1.467,0.102,1.822,1.338,1.891,2.027
		c0.42,4.273,0.576,11.152,0.578,14.828c0,1.262-0.516,2.497-2.572,2.782c-6.547,0.907-14.107,0.907-19.48,0
		c-0.925-0.155-2.547-0.63-2.547-2.757c0-2.757,0.475-10.125,0.709-14.854C12.438,15.587,13.383,14.668,14.224,14.615z"/>
	<path fill="#18272A" d="M14.263,13.566c5.438-0.34,14.678-0.342,19.586,0c1.467,0.102,1.822,1.338,1.892,2.029
		c0.42,4.272,0.577,11.149,0.577,14.826c0,1.26-0.516,2.497-2.573,2.783c-6.545,0.906-14.106,0.906-19.479,0
		c-0.926-0.158-2.547-0.631-2.547-2.758c0-2.758,0.475-10.125,0.709-14.854C12.478,14.538,13.423,13.619,14.263,13.566z"/>
	<path fill="#FFFFFF" fill-opacity="0.1" d="M35.838,17.018c-0.038-0.498-0.082-0.976-0.124-1.422
		c-0.068-0.69-0.423-1.928-1.891-2.029c-4.909-0.342-14.148-0.34-19.586,0c-0.84,0.053-1.785,0.972-1.836,2.029
		c-0.024,0.451-0.049,0.928-0.075,1.422c0,0,0.2-1.215,0.407-1.517c0.342-0.498,0.92-1.077,2.154-1.114
		c4.674-0.152,13.73-0.246,18.299-0.082c1.047,0.036,1.857,0.852,2.074,1.17C35.494,15.823,35.838,17.018,35.838,17.018z"/>
</g>
<g id="Capa_6">
	<path fill="#010002" fill-opacity="0.2" d="M14.683,17.018c3.535,0,15.648,0,18.868,0c0.411,0,0.718,0.416,0.718,0.84
		c0,2.416,0,9.213,0,11.384c0,0.604-0.262,0.94-0.838,0.94c-3.224,0-14.757,0-18.572,0c-0.543,0-0.963-0.426-0.963-1.017
		c0-1.751,0-8.753,0-11.31C13.896,17.396,14.158,17.018,14.683,17.018z"/>
	<path fill="#5883B3" d="M14.683,15.98c3.535,0,15.648,0,18.868,0c0.411,0,0.718,0.416,0.718,0.84c0,2.416,0,9.213,0,11.384
		c0,0.604-0.262,0.938-0.838,0.938c-3.224,0-14.757,0-18.572,0c-0.543,0-0.963-0.422-0.963-1.015c0-1.752,0-8.753,0-11.308
		C13.896,16.361,14.158,15.98,14.683,15.98z"/>
	<path fill="#FFFFFF" fill-opacity="0.1" d="M34.269,17.452c0-0.149,0-0.504,0-0.63c0-0.424-0.307-0.84-0.718-0.84
		c-3.22,0-15.333,0-18.868,0c-0.525,0-0.787,0.379-0.787,0.84c0,0.188,0,0.398,0,0.63c0,0,0.215-0.542,1.135-0.542
		c3.334,0,15.224,0,18.031,0C34.116,16.909,34.269,17.452,34.269,17.452z"/>
</g>
<g id="Capa_7">
	<polygon fill="#010002" fill-opacity="0.2" points="5.144,21.468 5.161,19.419 7.244,19.419 7.244,21.468 9.151,21.468 
		9.151,23.552 7.261,23.552 7.244,25.704 5.144,25.704 5.144,23.568 3.239,23.568 3.239,21.484 	"/>
	<polygon fill="#D1D5CD" points="5.144,20.68 5.161,18.632 7.244,18.632 7.244,20.68 9.151,20.68 9.151,22.762 7.261,22.762 
		7.244,24.915 5.144,24.915 5.144,22.78 3.239,22.78 3.239,20.695 	"/>
	<g opacity="0.2">
		<path fill="#010002" d="M6.542,26.811c1.262,0.383,2.609,0.799,3.502,1.133c0.418,0.156,0.613,0.611,0.436,1.051
			c-0.17,0.421-0.521,0.591-1.013,0.456c-0.944-0.265-2.243-0.673-3.536-1.103c-0.388-0.131-0.578-0.563-0.4-1.068
			C5.681,26.844,6.115,26.684,6.542,26.811z"/>
		<path fill="#010002" d="M6.542,29.455c1.262,0.381,2.609,0.798,3.502,1.132c0.418,0.156,0.613,0.612,0.436,1.05
			c-0.17,0.422-0.521,0.592-1.013,0.455c-0.944-0.263-2.243-0.672-3.536-1.104c-0.388-0.129-0.578-0.559-0.4-1.065
			C5.681,29.486,6.115,29.325,6.542,29.455z"/>
	</g>
	<g>
		<path fill="#513986" d="M6.542,26.246c1.262,0.38,2.609,0.797,3.502,1.131c0.418,0.158,0.613,0.612,0.436,1.05
			c-0.17,0.421-0.521,0.593-1.013,0.454C8.522,28.62,7.224,28.21,5.931,27.78c-0.388-0.13-0.578-0.563-0.4-1.07
			C5.681,26.277,6.115,26.117,6.542,26.246z"/>
		<path fill="#513986" d="M6.542,28.889c1.262,0.383,2.609,0.797,3.502,1.131c0.418,0.156,0.613,0.613,0.436,1.051
			c-0.17,0.422-0.521,0.593-1.013,0.455c-0.944-0.264-2.243-0.672-3.536-1.103c-0.388-0.131-0.578-0.562-0.4-1.069
			C5.681,28.92,6.115,28.76,6.542,28.889z"/>
	</g>
	<path fill="#FFFFFF" fill-opacity="0.03" d="M10.545,28.1c0-0.317-0.187-0.604-0.5-0.723c-0.894-0.334-2.241-0.751-3.503-1.131
		c-0.427-0.129-0.861,0.031-1.012,0.464c-0.066,0.19-0.081,0.371-0.053,0.526c0,0-0.063-0.377,0.227-0.613
		c0.279-0.229,0.533-0.201,0.895-0.08c0.994,0.341,2.606,0.795,3.51,1.098C10.604,27.805,10.545,28.1,10.545,28.1z"/>
	<path fill="#FFFFFF" fill-opacity="0.03" d="M10.544,30.743c0.001-0.32-0.186-0.604-0.5-0.726c-0.893-0.334-2.24-0.748-3.503-1.131
		c-0.427-0.128-0.862,0.032-1.013,0.467c-0.065,0.191-0.08,0.371-0.053,0.528c0,0-0.063-0.38,0.228-0.614
		c0.28-0.229,0.534-0.203,0.894-0.08c0.995,0.338,2.607,0.795,3.51,1.094C10.604,30.445,10.544,30.743,10.544,30.743z"/>
	<circle fill="#D1D5CD" cx="9.642" cy="28.095" r="0.63"/>
	<circle fill="#D1D5CD" cx="9.642" cy="30.72" r="0.63"/>
</g>
<g id="Capa_8">
	<g opacity="0.2">
		<circle fill="#010002" cx="39.317" cy="23.465" r="1.637"/>
		<circle fill="#010002" cx="43.694" cy="22.186" r="1.637"/>
	</g>
	<g>
		<circle fill="#D1D5CD" cx="39.317" cy="22.466" r="1.637"/>
		<circle fill="#D1D5CD" cx="43.694" cy="21.189" r="1.636"/>
	</g>
	<circle fill="#010002" fill-opacity="0.2" cx="39.24" cy="15.981" r="0.77"/>
	<circle fill="#90B760" cx="39.24" cy="15.342" r="0.77"/>
	<path fill="#FFFFFF" fill-opacity="0.2" d="M40.954,22.467c-0.225-0.462-0.73-1.109-1.637-1.109c-0.902,0-1.461,0.646-1.635,1.109
		c0-0.904,0.731-1.637,1.635-1.637C40.224,20.83,40.954,21.563,40.954,22.467z"/>
	<path fill="#FFFFFF" fill-opacity="0.2" d="M45.331,21.189c-0.227-0.461-0.732-1.109-1.637-1.109c-0.905,0-1.463,0.646-1.637,1.109
		c0-0.904,0.73-1.637,1.637-1.637C44.599,19.553,45.331,20.285,45.331,21.189z"/>
	<path fill="#FFFFFF" fill-opacity="0.2" d="M40.011,15.342c-0.148-0.324-0.476-0.406-0.771-0.406c-0.311,0-0.639,0.14-0.77,0.406
		c0-0.425,0.344-0.77,0.77-0.77C39.663,14.572,40.011,14.917,40.011,15.342z"/>
</g>
<g id="Capa_9">
	<g opacity="0.2">
		<polygon fill="#010002" points="37.683,27.533 42.847,26.166 42.847,26.622 37.683,27.971 		"/>
		<polygon fill="#010002" points="37.683,28.495 42.847,27.13 42.847,27.584 37.683,28.932 		"/>
		<polygon fill="#010002" points="37.683,29.51 42.847,28.145 42.847,28.6 37.683,29.947 		"/>
		<polygon fill="#010002" points="37.683,30.491 42.847,29.125 42.847,29.579 37.683,30.928 		"/>
		<polygon fill="#010002" points="37.683,31.506 42.847,30.141 42.847,30.596 37.683,31.941 		"/>
	</g>
	<g>
		<polygon fill="#3E2D69" points="37.683,27.262 42.847,25.895 42.847,26.352 37.683,27.698 		"/>
		<polygon fill="#3E2D69" points="37.683,28.223 42.847,26.857 42.847,27.313 37.683,28.661 		"/>
		<polygon fill="#3E2D69" points="37.683,29.238 42.847,27.874 42.847,28.329 37.683,29.677 		"/>
		<polygon fill="#3E2D69" points="37.683,30.221 42.847,28.854 42.847,29.309 37.683,30.656 		"/>
		<polygon fill="#3E2D69" points="37.683,31.232 42.847,29.869 42.847,30.324 37.683,31.67 		"/>
	</g>
</g>
<g id="Capa_11">
</g>
<g id="Capa_12">
	<path fill="#FFFFFF" fill-opacity="0.2" d="M46.563,17.018c-0.037-0.397-0.322-1.408-0.617-1.694
		c-0.332-0.323-0.82-0.917-1.977-1.074c-0.951-0.13-2.791-0.729-3.675-1.103c-0.735-0.313-1.942-0.945-2.889-1.838
		c-0.608-0.574-1.522-0.998-2.992-0.998c-4.358,0-15.438,0-20.584,0c-1.418,0-1.769,0.129-2.625,0.735
		c-0.83,0.586-2.017,1.629-3.413,2.205c-1.786,0.735-2.252,0.421-3.256,0.84c-0.564,0.235-1.35,0.642-1.625,0.896
		c-0.227,0.207-0.695,0.812-0.79,1.521c-0.033,0.244-0.063,0.488-0.095,0.729c0,0,0.129-0.694,0.625-1.219
		c0.588-0.623,1.594-1.062,2.195-1.259c0.662-0.218,2.258-0.432,2.911-0.676c1.085-0.408,1.951-1.081,2.603-1.487
		c0.586-0.365,1.838-1.355,2.888-1.355c5.164,0,17.101,0,21.651,0c0.711,0,1.716,0.654,2.328,1.18
		c0.664,0.57,2.441,1.288,3.25,1.623c0.809,0.336,2.365,0.609,3.217,0.811c1.041,0.246,1.725,0.49,2.182,0.92
		C46.425,16.291,46.563,17.018,46.563,17.018z"/>
</g>
</svg>
