<svg xmlns="http://www.w3.org/2000/svg" width="48" height="48" version="1">
 <rect fill="#4f4f4f" width="32" height="40" x="-40" y="-44" rx="2" ry="2" transform="matrix(0,-1,-1,0,0,0)"/>
 <path fill="#fff" opacity=".1" d="m6 8c-1.108 0-2 0.892-2 2v1c0-1.108 0.892-2 2-2h36c1.108 0 2 0.892 2 2v-1c0-1.108-0.892-2-2-2z"/>
 <path fill="#fff" opacity=".1" d="m6 8c-1.108 0-2 0.892-2 2v28c0 1.108 0.892 2 2 2h5v-32z"/>
 <path opacity=".2" d="m4 38v1c0 1.108 0.892 2 2 2h36c1.108 0 2-0.892 2-2v-1c0 1.108-0.892 2-2 2h-36c-1.108 0-2-0.892-2-2z"/>
 <circle opacity=".2" cx="36" cy="37" r="11"/>
 <circle fill="#1ea362" cx="36" cy="36" r="11"/>
 <path fill="#fff" d="m30 39.327v2.673h2.6728l6.7507-6.7507-2.6728-2.6728zm11.788-6.4337c0.28271-0.28271 0.28271-0.72818 0-1.0109l-1.6705-1.6705c-0.28271-0.28271-0.72818-0.28271-1.0109 0l-1.3964 1.405 2.6728 2.6728z"/>
</svg>
