<?xml version="1.0" encoding="UTF-8" standalone="no"?>
<svg xmlns="http://www.w3.org/2000/svg" height="48" width="48" version="1">
 <path d="m16.939 32.684c-1.0714-0.0568-2.3 0.43472-3.2793 1.4141l-4.242 4.242c-1.567 1.567-1.8823 3.774-0.7071 4.949s3.3821 0.86 4.9491-0.707l4.2422-4.2422c1.5669-1.5669 1.8822-3.774 0.70703-4.9492-0.4407-0.4407-1.0271-0.67295-1.6699-0.70703zm13.439 0c-0.64283 0.03408-1.2273 0.26633-1.668 0.70703-1.1752 1.1752-0.85992 3.3823 0.70703 4.9492l4.2422 4.2422c1.5669 1.5669 3.774 1.8822 4.9492 0.70703s0.85992-3.3823-0.70703-4.9492l-4.2422-4.2422c-0.97934-0.97934-2.2099-1.4709-3.2812-1.4141z" fill="#ec9a64"/>
 <path opacity=".2" d="m19.27 35.78c-0.13987 0.87662-0.60118 1.7945-1.3672 2.5605l-4.2422 4.2422c-1.568 1.567-3.7749 1.882-4.9501 0.707-0.3739-0.374-0.5803-0.858-0.6601-1.387-0.14573 0.91599 0.059816 1.7864 0.66016 2.3867 1.1752 1.1752 3.3823 0.85992 4.9492-0.70703l4.2422-4.2422c1.068-1.068 1.5378-2.4272 1.3672-3.5605zm8.7812 0c-0.17058 1.1334 0.29916 2.4925 1.3672 3.5605l4.2422 4.2422c1.5669 1.5669 3.774 1.8822 4.9492 0.70703 0.60034-0.60034 0.80588-1.4707 0.66016-2.3867-0.0798 0.52909-0.28617 1.0127-0.66016 1.3867-1.1752 1.1752-3.3823 0.85992-4.9492-0.70703l-4.242-4.242c-0.766-0.766-1.227-1.684-1.367-2.561z"/>
 <path d="m8 4a7 7 0 0 0 -7 7 7 7 0 0 0 7 7 7 7 0 0 0 7 -7 7 7 0 0 0 -7 -7zm32 0a7 7 0 0 0 -7 7 7 7 0 0 0 7 7 7 7 0 0 0 7 -7 7 7 0 0 0 -7 -7z" fill="#e74c3c"/>
 <path opacity=".2" d="m8 4a7 7 0 0 0 -7 7 7 7 0 0 0 0.0234 0.459 7 7 0 0 1 6.9766 -6.459 7 7 0 0 1 6.977 6.541 7 7 0 0 0 0.023 -0.541 7 7 0 0 0 -7 -7zm32 0a7 7 0 0 0 -7 7 7 7 0 0 0 0.02344 0.45898 7 7 0 0 1 6.977 -6.459 7 7 0 0 1 6.977 6.541 7 7 0 0 0 0.023 -0.541 7 7 0 0 0 -7 -7z" fill="#fff"/>
 <rect transform="matrix(0,-1,-1,0,0,0)" rx="20" ry="20" height="40" width="40" y="-44" x="-44" fill="#e74c3c"/>
 <path opacity=".2" d="m24 4.0182c-11.07 0-19.982 8.9119-19.982 19.982 0 0.16757-0.004 0.33299 0 0.49955 0.2644-10.837 9.08-19.483 19.982-19.483s19.718 8.6458 19.982 19.482c0.004-0.16656 0-0.33198 0-0.49955 0-11.069-8.912-19.981-19.982-19.981z" fill="#fff"/>
 <rect opacity=".8" ry="18" rx="18" transform="matrix(0,-1,-1,0,0,0)" height="36" width="36" y="-42" x="-42" fill="#fff"/>
 <g transform="translate(0,1)">
  <path opacity=".8" d="m24 6a2 2 0 0 0 -2 2 2 2 0 0 0 2 2 2 2 0 0 0 2 -2 2 2 0 0 0 -2 -2zm-10.592 5.3926a1 1 0 0 0 -0.72266 0.29297 1 1 0 0 0 0 1.4141 1 1 0 0 0 1.4141 0 1 1 0 0 0 0 -1.4141 1 1 0 0 0 -0.69141 -0.29297zm21.213 0a1 1 0 0 0 -0.7207 0.29297 1 1 0 0 0 0 1.4141 1 1 0 0 0 1.4141 0 1 1 0 0 0 0 -1.4141 1 1 0 0 0 -0.69336 -0.29297zm-25.621 9.607a2 2 0 0 0 -2 2 2 2 0 0 0 2 2 2 2 0 0 0 2 -2 2 2 0 0 0 -2 -2zm30 0a2 2 0 0 0 -2 2 2 2 0 0 0 2 2 2 2 0 0 0 2 -2 2 2 0 0 0 -2 -2zm-25.592 11.607a1 1 0 0 0 -0.72266 0.29297 1 1 0 0 0 0 1.4141 1 1 0 0 0 1.4141 0 1 1 0 0 0 0 -1.4141 1 1 0 0 0 -0.69141 -0.29297zm21.213 0a1 1 0 0 0 -0.7207 0.29297 1 1 0 0 0 0 1.4141 1 1 0 0 0 1.4141 0 1 1 0 0 0 0 -1.4141 1 1 0 0 0 -0.69336 -0.29297zm-10.621 3.393a2 2 0 0 0 -2 2 2 2 0 0 0 2 2 2 2 0 0 0 2 -2 2 2 0 0 0 -2 -2z"/>
 </g>
 <path opacity=".8" d="m22.181 24.767 3.0212 5.2329c0.55349 0.95867 1.7711 1.2837 2.7307 0.72966 0.95956-0.554 1.2869-1.771 0.73343-2.7297l-2.9998-5.1957 6.9282-4c0.47978-0.277 0.64312-0.88609 0.36623-1.3657-0.27689-0.47958-0.88605-0.64268-1.3658-0.36568l-8.3101 4.7979c-1.1337 0.56455-1.5636 2.0417-1.1041 2.8963z"/>
 <path opacity=".2" d="m4.0117 24.5c-0.0041 0.167-0.0117 0.332-0.0117 0.5 0 11.08 8.92 20 20 20s20-8.92 20-20c0-0.16787-0.0076-0.33314-0.01172-0.5-0.264 10.846-9.076 19.5-19.988 19.5s-19.724-8.654-19.988-19.5z"/>
</svg>
