<svg xmlns="http://www.w3.org/2000/svg" height="48" width="48" version="1.1">
 <g transform="matrix(2,0,0,2,2,2)">
  <path style="opacity:.2" d="m11 1.5c-4.2916667 0-6.7266597 2.0045646-7.8691406 4.0039062-1.142481 1.9993417-1.1308594 3.9960938-1.1308594 3.9960938v11c0.0000552 0.552262 0.4477381 0.999945 1 1h16c0.552262-0.000055 0.999945-0.447738 1-1v-11s0.01162-1.9967521-1.130859-3.9960938c-1.142481-1.9993416-3.577474-4.0039062-7.869141-4.0039062z"/>
  <path style="fill:#b2b2b2" d="m11 1c-4.2916667 0-6.7266597 2.0045646-7.8691406 4.0039062-1.142481 1.9993417-1.1308594 3.9960938-1.1308594 3.9960938v11c0.0000552 0.552262 0.4477381 0.999945 1 1h16c0.552262-0.000055 0.999945-0.447738 1-1v-11s0.011622-1.9967521-1.130859-3.9960938c-1.142481-1.9993416-3.577474-4.0039062-7.869141-4.0039062z"/>
  <path style="fill:#ffffff;opacity:.2" d="m11 1c-4.2916667 0-6.7266597 2.0045646-7.8691406 4.0039062-1.142481 1.9993417-1.1308594 3.9960938-1.1308594 3.9960938v0.5s-0.0116216-1.9967521 1.1308594-3.9960938c1.1424809-1.9993416 3.5774739-4.0039062 7.8691406-4.0039062 4.291667 0 6.72666 2.0045646 7.869141 4.0039062 1.142479 1.9993417 1.130859 3.9960938 1.130859 3.9960938v-0.5s0.01162-1.9967521-1.130859-3.9960938c-1.142481-1.9993416-3.577474-4.0039062-7.869141-4.0039062z"/>
  <path style="fill:#ffffff" d="m5 11h12v-2s0-5-6-5-6 5-6 5z"/>
  <circle r="2" style="fill:#1b87e6" cx="11" cy="8"/>
  <circle r="1" style="fill:#3f3f3f" cx="11" cy="8"/>
  <rect style="opacity:.2" ry="1" height="4" width="20" y="11.5" x="1"/>
  <rect style="fill:#e4e4e4" ry="1" height="4" width="20" y="11" x="1"/>
  <circle r="1" style="opacity:.1" cx="5" cy="13.5"/>
  <path style="fill:#3f3f3f" d="m11 16a1 1 0 0 0 -1 1 1 1 0 0 0 0.683594 0.947266l-0.683594 2.052734h2l-0.683594-2.052734a1 1 0 0 0 0.683594 -0.947266 1 1 0 0 0 -1 -1z"/>
  <path style="opacity:.2;fill:#ffffff" d="m2 11c-0.554 0-1 0.446-1 1v0.5c0-0.554 0.446-1 1-1h18c0.554 0 1 0.446 1 1v-0.5c0-0.554-0.446-1-1-1z"/>
  <circle r="1" style="opacity:.1" cx="17" cy="13.5"/>
  <circle r="1" style="fill:#3f3f3f" cx="5" cy="13"/>
  <circle r="1" style="opacity:.1" cx="13" cy="13.5"/>
  <circle r="1" style="fill:#3f3f3f" cx="17" cy="13"/>
  <circle r="1" style="opacity:.1" cx="9" cy="13.5"/>
  <circle r="1" style="fill:#3f3f3f" cx="13" cy="13"/>
  <circle r="1" style="fill:#3f3f3f" cx="9" cy="13"/>
 </g>
</svg>
