<svg xmlns="http://www.w3.org/2000/svg" width="48" height="48" version="1">
 <rect fill="#e9a84a" width="40" height="40" x="-44" y="-44" rx="2" ry="2" transform="matrix(0,-1,-1,0,0,0)"/>
 <path fill="#fff" opacity=".2" d="m6 4c-1.108 0-2 0.892-2 2v1c0-1.108 0.892-2 2-2h36c1.108 0 2 0.892 2 2v-1c0-1.108-0.892-2-2-2h-36z"/>
 <path opacity=".2" d="m6 45c-1.108 0-2-0.892-2-2v-1c0 1.108 0.892 2 2 2h36c1.108 0 2-0.892 2-2v1c0 1.108-0.892 2-2 2h-36z"/>
 <g opacity=".4" transform="translate(2.0002)">
  <path fill-rule="evenodd" d="m22.9 7.9746a2.0002 2.0002 0 0 0 -1.832 1.5098s-0.609 2.2776-1.211 5.5646c-0.137-0.161-0.353-0.41-0.498-0.682-0.292-0.55-0.482-1.06-0.482-1.06a2.0002 2.0002 0 0 0 -1.824 -1.332 2.0002 2.0002 0 0 0 -1.93 2.718s0.269 0.731 0.705 1.551c0.437 0.821 0.844 1.86 2.309 2.561 0.351 0.168 0.708 0.298 1.07 0.406-0.129 0.99-0.246 2.002-0.334 3.043-0.032 0.382-0.016 0.774-0.041 1.16-0.928 0.199-1.872 0.366-2.73 0.693-2.56 0.977-4.839 2.595-5.934 5.09-0.4875 1.111-0.3542 2.338 0.041 3.27 0.395 0.932 1.009 1.673 1.707 2.306 1.396 1.268 3.096 2.191 5.047 2.227 1.307 0.024 2.506-0.365 3.65-0.914 0.81 1.541 1.875 2.889 3.489 3.701 3.031 1.526 6.518 0.439 9.32-1.273 1.401-0.856 2.65-1.933 3.541-3.26 0.891-1.328 1.434-3.043 0.969-4.774-0.713-2.653-2.797-4.532-5.225-5.724-0.274-0.135-0.602-0.187-0.887-0.307 0.411-0.65 0.909-1.443 0.909-1.443a2.0002 2.0002 0 1 0 -3.458 -2.012s-1.168 1.59-1.595 2.262c-1.047-0.181-2.097-0.364-3.174-0.404-0.555-0.021-1.1 0.067-1.654 0.084 0.009-0.117 0.002-0.23 0.011-0.346 0.089-1.051 0.212-2.075 0.346-3.076 1.006-0.094 1.992-0.276 2.918-0.453 2.485-0.478 4.516-1.166 4.516-1.166a2.0002 2.0002 0 1 0 -1.278 -3.79s-1.808 0.606-3.992 1.026c-0.486 0.093-0.992 0.158-1.492 0.211 0.538-2.85 1.055-4.826 1.055-4.826a2.0002 2.0002 0 0 0 -2.032 -2.5414zm1.452 18.875c0.248 0.009 0.477 0.075 0.724 0.093-0.129 0.161-0.095 0.164-0.228 0.325-0.603 0.728-1.295 1.27-1.953 1.941-0.07-0.757-0.175-1.462-0.186-2.273 0.551-0.025 1.088-0.107 1.643-0.086zm-5.639 0.697c0.045 1.614 0.182 3.206 0.49 4.705 0.003 0.012 0.009 0.023 0.012 0.035-0.832 0.432-1.605 0.724-2.178 0.713-0.406-0.008-1.68-0.505-2.432-1.188-0.375-0.341-0.629-0.707-0.714-0.908-0.086-0.201-0.045-0.133-0.059-0.101 0.514-1.171 1.778-2.228 3.695-2.959 0.353-0.135 0.799-0.188 1.186-0.297zm10.691 0.273c0.517 0.176 1.093 0.307 1.539 0.526 1.764 0.866 2.799 1.96 3.125 3.174 0.099 0.368 0.034 0.821-0.425 1.505-0.46 0.684-1.302 1.461-2.307 2.075-2.009 1.227-4.587 1.541-5.438 1.113-0.824-0.415-1.441-1.319-1.959-2.451 1.432-1.216 2.826-2.538 3.989-3.942 0.603-0.728 0.962-1.305 1.476-2z" transform="translate(-2.0002)"/>
 </g>
</svg>
