<svg xmlns="http://www.w3.org/2000/svg" width="48" height="48" version="1.1">
 <circle style="opacity:0.2" cx="24" cy="25" r="20"/>
 <circle style="fill:#28b628" cx="24" cy="24" r="20"/>
 <path style="opacity:0.2;fill:#ffffff" d="M 24,4 A 20,20 0 0 0 4,24 20,20 0 0 0 4.0215,24.582 20,20 0 0 1 24,5 20,20 0 0 1 43.979,24.418 20,20 0 0 0 44,24 20,20 0 0 0 24,4 Z"/>
 <circle style="opacity:0.2" cx="24" cy="25" r="14"/>
 <circle style="fill:#ffffff" cx="24" cy="24" r="14"/>
 <path style="fill:#28b628" d="M 26.890625,13.400391 C 25.899031,17.004793 24,24 24,24 c 0,0 6.877786,-1.711173 10.599609,-2.941406 a 11,11 0 0 0 -7.708984,-7.658203 z"/>
 <path style="opacity:0.2" d="M 26.890625 13.400391 C 25.899031 17.004793 24 24 24 24 C 24 24 24.274123 23.928533 24.292969 23.923828 C 24.613409 22.743913 25.999695 17.638884 26.890625 14.400391 A 11 11 0 0 1 34.296875 21.150391 C 34.387518 21.121033 34.51231 21.08745 34.599609 21.058594 A 11 11 0 0 0 26.890625 13.400391 z"/>
 <path style="fill:#4f4f4f;fill-rule:evenodd" d="M 22.528713,25.03459 16,19 25.010748,23.752956 27,27 22.528713,25.03459"/>
 <path style="fill:#4f4f4f;fill-rule:evenodd" d="M 23.380679,23.549725 37.4,20 24.809997,25.375929 20,26 23.380679,23.549725"/>
 <path style="fill:#4f4f4f" d="m 24,12 a 1,1 0 0 0 -1,1 1,1 0 0 0 1,1 1,1 0 0 0 1,-1 1,1 0 0 0 -1,-1 z M 13,23 a 1,1 0 0 0 -1,1 1,1 0 0 0 1,1 1,1 0 0 0 1,-1 1,1 0 0 0 -1,-1 z m 22,0 a 1,1 0 0 0 -1,1 1,1 0 0 0 1,1 1,1 0 0 0 1,-1 1,1 0 0 0 -1,-1 z M 24,34 a 1,1 0 0 0 -1,1 1,1 0 0 0 1,1 1,1 0 0 0 1,-1 1,1 0 0 0 -1,-1 z"/>
</svg>
