<?xml version="1.0" encoding="UTF-8" standalone="no"?>
<svg xmlns="http://www.w3.org/2000/svg" height="48" width="48" version="1">
 <rect fill-opacity="0" ry="10" height="60" width="20" y="-421.36" x="869.19"/>
 <rect transform="matrix(0,-1,-1,0,0,0)" rx="2" ry="2" height="32" width="40" y="-40" x="-44" fill="#9ea7a9"/>
 <path opacity=".2" d="m10 4c-1.108 0-2 0.892-2 2v1c0-1.108 0.892-2 2-2h28c1.108 0 2 0.892 2 2v-1c0-1.108-0.892-2-2-2h-28z" fill="#fff"/>
 <path opacity=".2" d="m13 7h22c1.108 0 2 0.892 2 2v22c0 1.108-0.892 2-2 2h-22c-1.108 0-2-0.892-2-2v-22c0-1.108 0.892-2 2-2z"/>
 <g opacity=".2" transform="translate(0,1)">
  <path opacity="1" d="m13 36h4c1.108 0 2 0.892 2 2s-0.892 2-2 2h-4c-1.108 0-2-0.892-2-2s0.892-2 2-2z"/>
  <path opacity="1" d="m31 36h4c1.108 0 2 0.892 2 2s-0.892 2-2 2h-4c-1.108 0-2-0.892-2-2s0.892-2 2-2z"/>
 </g>
 <g>
  <path d="m13 36h4c1.108 0 2 0.892 2 2s-0.892 2-2 2h-4c-1.108 0-2-0.892-2-2s0.892-2 2-2z" fill="#92e763"/>
  <path d="m31 36h4c1.108 0 2 0.892 2 2s-0.892 2-2 2h-4c-1.108 0-2-0.892-2-2s0.892-2 2-2z" fill="#e76363"/>
 </g>
 <path opacity=".2" d="m25.825 10-3.8649 0.35154v15.063l3.8236-0.54683v-6.422l5.1449 7.1251 4.03-1.2109-5.2688-6.8517 5.3101-6.461-4.1126-0.89066-5.1036 6.4611 0.04124-6.6173zm-8.762 3.672c-0.04363 0.0081-0.09098 0.01545-0.12386 0.04715l-1.5195 1.4375c-0.06378 0.06096-0.07155 0.15323-0.02473 0.22656l1.7755 2.7735c-0.31527 0.50138-0.57128 1.0392-0.75151 1.6093l-3.262 0.64063c-0.09081 0.0175-0.15691 0.09928-0.15691 0.18728v2.0313c0 0.08592 0.06902 0.15948 0.1569 0.17971l3.1629 0.72654c0.16913 0.66017 0.43042 1.2918 0.77627 1.8673l-1.8333 2.6407c-0.05115 0.07336-0.04116 0.17214 0.02473 0.23436l1.5195 1.4375c0.06396 0.06026 0.16219 0.06788 0.23949 0.02311l2.8739-1.6485c0.56367 0.30785 1.1739 0.55448 1.8168 0.71875l0.66893 3.0469c0.02 0.088 0.098 0.15 0.191 0.15h2.1471c0.0901 0 0.16854-0.0571 0.18994-0.14065l0.79279-3.0625c0.66304-0.16914 1.2882-0.42017 1.8664-0.74222l2.8326 1.7579c0.07805 0.04782 0.18156 0.03856 0.24776-0.02316l1.5113-1.4375c0.06418-0.06096 0.08008-0.15338 0.03309-0.22657l-1.0323-1.6093-0.33859 0.10151c-0.04891 0.01463-0.10306-0.0081-0.13213-0.04715 0 0-0.65208-0.90749-1.503-2.0859-1.0177 1.8838-3.0931 3.1719-5.4835 3.1719-3.3967 0-6.1524-2.607-6.1524-5.8204 0-2.3637 1.4941-4.3939 3.6336-5.3048v-1.5c-0.38939 0.12891-0.76558 0.28446-1.1231 0.46873-0.000449-0.000317 0.000732-0.0081 0-0.0081l-2.8986-1.7969c-0.03895-0.02387-0.08022-0.02774-0.12388-0.02313z" style="color:#31363b"/>
 <path d="m25.825 9-3.8649 0.35154v15.063l3.8236-0.54683v-6.422l5.1449 7.1251 4.03-1.2109-5.2688-6.8517 5.3101-6.461-4.1126-0.89066-5.1036 6.4611 0.04124-6.6173zm-8.762 3.672c-0.04363 0.0081-0.09098 0.01545-0.12386 0.04715l-1.5195 1.4375c-0.06378 0.06096-0.07155 0.15323-0.02473 0.22656l1.7755 2.7735c-0.31527 0.50138-0.57128 1.0392-0.75151 1.6093l-3.262 0.64063c-0.09081 0.0175-0.15691 0.09928-0.15691 0.18728v2.0313c0 0.08592 0.06902 0.15948 0.1569 0.17971l3.1629 0.72654c0.16913 0.66017 0.43042 1.2918 0.77627 1.8673l-1.8333 2.6407c-0.05115 0.07336-0.04116 0.17214 0.02473 0.23436l1.5195 1.4375c0.06396 0.06026 0.16219 0.06788 0.23949 0.02311l2.8739-1.6485c0.56367 0.30785 1.1739 0.55448 1.8168 0.71875l0.66893 3.0469c0.02 0.088 0.098 0.15 0.191 0.15h2.1471c0.0901 0 0.16854-0.0571 0.18994-0.14065l0.79279-3.0625c0.66304-0.16914 1.2882-0.42017 1.8664-0.74222l2.8326 1.7579c0.07805 0.04782 0.18156 0.03856 0.24776-0.02316l1.5113-1.4375c0.06418-0.06096 0.08008-0.15338 0.03309-0.22657l-1.0323-1.6093-0.33859 0.10151c-0.04891 0.01463-0.10306-0.0081-0.13213-0.04715 0 0-0.65208-0.90749-1.503-2.0859-1.0177 1.8838-3.0931 3.1719-5.4835 3.1719-3.3967 0-6.1524-2.607-6.1524-5.8204 0-2.3637 1.4941-4.3939 3.6336-5.3048v-1.5c-0.38939 0.12891-0.76558 0.28446-1.1231 0.46873-0.000449-0.000317 0.000732-0.0081 0-0.0081l-2.8986-1.7969c-0.03895-0.02387-0.08022-0.02774-0.12388-0.02313z" fill="#fff"/>
 <path opacity=".2" d="m8 42v1c0 1.108 0.892 2 2 2h28c1.108 0 2-0.892 2-2v-1c0 1.108-0.892 2-2 2h-28c-1.108 0-2-0.892-2-2z"/>
</svg>
