<?xml version="1.0" encoding="UTF-8" standalone="no"?>
<svg xmlns="http://www.w3.org/2000/svg" height="48" width="48" version="1">
 <rect style="fill:#6688be" transform="matrix(0,-1,-1,0,0,0)" rx="2" ry="2" height="40" width="40" y="-44" x="-44"/>
 <path style="opacity:.2" d="m6 4c-1.108 0-2 0.892-2 2v1c0-1.108 0.892-2 2-2h36c1.108 0 2 0.892 2 2v-1c0-1.108-0.892-2-2-2h-36z" fill="#fff"/>
 <path opacity=".2" d="m4 42v1c0 1.108 0.892 2 2 2h36c1.108 0 2-0.892 2-2v-1c0 1.108-0.892 2-2 2h-36c-1.108 0-2-0.892-2-2z"/>
 <path style="stroke-linejoin:round;stroke:#5b5b5b;stroke-width:2;fill:none" d="m11 24h20"/>
 <path style="stroke-linejoin:round;stroke:#5b5b5b;stroke-width:2;fill:none" d="m21 24 5-10"/>
 <path style="stroke-linejoin:round;stroke:#5b5b5b;stroke-width:2;fill:none" d="m21 24 5 10h10"/>
 <g style="opacity:.2;fill:#060606">
  <circle r="3" style="fill:#060606" cx="11" cy="25"/>
  <circle cx="21" cy="25" r="3" style="fill:#060606"/>
  <circle r="3" style="fill:#060606" cx="31" cy="25"/>
  <circle r="3" style="fill:#060606" cx="26" cy="35"/>
  <circle cx="36" cy="35" r="3" style="fill:#060606"/>
  <circle cx="26" cy="15" r="3" style="fill:#060606"/>
 </g>
 <g style="fill:#f5f5f5" transform="translate(0,-1)">
  <circle cx="11" cy="25" r="3" style="fill:#ffffff"/>
  <circle r="3" style="fill:#ffffff" cx="21" cy="25"/>
  <circle cx="31" cy="25" r="3" style="fill:#ffffff"/>
  <circle cx="26" cy="35" r="3" style="fill:#ffffff"/>
  <circle r="3" style="fill:#ffffff" cx="36" cy="35"/>
  <circle r="3" style="fill:#ffffff" cx="26" cy="15"/>
 </g>
</svg>
