<svg xmlns="http://www.w3.org/2000/svg" width="48" height="48" version="1">
 <rect style="fill:#4f75de" width="40" height="40" x="-44" y="-44" rx="20" ry="20" transform="matrix(0,-1,-1,0,0,0)"/>
 <path style="opacity:.2;fill:#ffffff" d="m24 4c-11.079015 0-19.9982222 8.92-19.9982222 20 0 0.168-0.004 0.333 0 0.5 0.2643765-10.846 9.0871922-19.5 19.9982222-19.5s19.734246 8.654 19.998223 19.5c0.004-0.167 0-0.332 0-0.5 0-11.08-8.919208-20-19.998223-20z"/>
 <path style="opacity:.2" d="m4.0117 24.5c-0.0041 0.167-0.0117 0.332-0.0117 0.5 0 11.08 8.92 20 20 20s20-8.92 20-20c0-0.168-0.008-0.333-0.012-0.5-0.264 10.846-9.076 19.5-19.988 19.5s-19.724-8.654-19.988-19.5z"/>
 <path style="opacity:.2" d="m21.115234 14.713192a6 7.5 45 0 0 -5.566406 2.546875 6 7.5 45 0 0 -1.060547 9.546875 6 7.5 45 0 0 8.402344 -0.0957c0.02852 0.03133 0.05162 0.06529 0.08203 0.0957l8.486328 8.484375c0.783475 0.783474 1.887004 0.941121 2.47461 0.353515 0.587605-0.587605 0.429958-1.691135-0.353516-2.474609l-2.123047-2.123047 1.416016-1.414063 0.884765 0.884766c0.293803 0.293803 0.844591 0.215956 1.236329-0.175781 0.391737-0.391737 0.471537-0.944479 0.177734-1.238281l-3.183594-3.181641c-0.293803-0.293803-0.844591-0.214003-1.236328 0.177734-0.391737 0.391738-0.471537 0.942526-0.177734 1.236329l0.884765 0.882812-1.416015 1.414062-4.947266-4.947265c-0.02899-0.02899-0.06197-0.05085-0.0918-0.07813a6 7.5 45 0 0 0.0918 -8.408203 6 7.5 45 0 0 -3.980469 -1.486328zm0.488282 2.021484a3 3 0 0 1 2.076172 0.878906 3 3 0 0 1 0 4.242188 3 3 0 0 1 -2.71875 0.816406 3 3 0 0 1 -0.816407 2.720703 3 3 0 0 1 -4.242187 0 3 3 0 0 1 0 -4.24414 3 3 0 0 1 2.71875 -0.816407 3 3 0 0 1 0.816406 -2.71875 3 3 0 0 1 2.166016 -0.878906z"/>
 <g transform="rotate(45,23.220925,25.871041)">
  <path style="fill:#ffffff" d="m17 17a6 7.5 0 0 0 -6 7.5 6 7.5 0 0 0 6 7.5 6 7.5 0 0 0 6 -7.5 6 7.5 0 0 0 -6 -7.5zm0 2a3 3 0 0 1 3 3 3 3 0 0 1 -1.345703 2.5 3 3 0 0 1 1.345703 2.5 3 3 0 0 1 -3 3 3 3 0 0 1 -3 -3 3 3 0 0 1 1.345703 -2.5 3 3 0 0 1 -1.345703 -2.5 3 3 0 0 1 3 -3z"/>
  <rect style="fill:#ffffff" width="16" height="3" x="21" y="23" rx="2" ry="1.5"/>
  <rect style="fill:#ffffff" width="6" height="2" x="28" y="19" rx=".75" ry="1"/>
  <rect style="fill:#ffffff" width="6" height="2" x="20" y="-32" rx=".75" ry="1" transform="rotate(90)"/>
 </g>
</svg>
