<svg xmlns="http://www.w3.org/2000/svg" width="48" height="48" version="1">
 <rect fill="#c28f42" width="40" height="40" x="4" y="4" rx="2" ry="2"/>
 <path fill="#fff" opacity=".2" d="m6 4c-1.108 0-2 0.892-2 2v1c0-1.108 0.892-2 2-2h36c1.108 0 2 0.892 2 2v-1c0-1.108-0.892-2-2-2h-36z"/>
 <path opacity=".2" d="m6 45c-1.108 0-2-0.892-2-2v-1c0 1.108 0.892 2 2 2h36c1.108 0 2-0.892 2-2v1c0 1.108-0.892 2-2 2h-36z"/>
 <g opacity=".2" transform="matrix(1.0348 0 0 .96636 -8.3996e-8 1)">
  <path d="m15.462 11.383h15.462v4.1392h-11.596v7.2437h9.6636v4.1392h-9.6636v11.383h-3.8655z"/>
 </g>
 <g fill="#fff" transform="matrix(1.0348 0 0 .96636 -8.3996e-8 .0000016760)">
  <path d="m15.462 11.383h15.462v4.1392h-11.596v7.2437h9.6636v4.1392h-9.6636v11.383h-3.8655z"/>
 </g>
</svg>
