<svg xmlns="http://www.w3.org/2000/svg" width="48" height="48" version="1.1">
 <rect style="opacity:0.2" width="32" height="40" x="8" y="5" ry="2"/>
 <rect style="fill:#fabd01" width="32" height="40" x="8" y="4" ry="2"/>
 <path style="opacity:0.5" d="M 10 4 C 8.892 4 8 4.892 8 6 L 8 42 C 8 43.108 8.892 44 10 44 L 14 44 L 14 4 L 10 4 z"/>
 <path style="fill:#ffffff;opacity:0.2" d="M 10 4 C 8.892 4 8 4.892 8 6 L 8 7 C 8 5.892 8.892 5 10 5 L 38 5 C 39.108 5 40 5.892 40 7 L 40 6 C 40 4.892 39.108 4 38 4 L 10 4 z"/>
 <path style="opacity:0.2" d="M 43.314,9.002 C 42.505,8.963 41.889,9.584 41.889,9.584 L 20.001,31.474 20,37 H 25.526 L 47.42,15.111 C 47.42,15.111 48.726,13.803 47.42,12.498 L 44.502,9.584 C 44.094,9.176 43.682,9.019 43.314,9.002 Z"/>
 <path style="fill:#4f4f4f" d="M 43.314,8.002 C 42.505,7.963 41.889,8.584 41.889,8.584 L 20.001,30.474 20,36 H 25.526 L 47.42,14.111 C 47.42,14.111 48.726,12.804 47.42,11.498 L 44.502,8.584 C 44.094,8.176 43.682,8.019 43.314,8.002 Z"/>
</svg>
