<?xml version="1.0" encoding="UTF-8" standalone="no"?>
<svg id="svg2817" xmlns:rdf="http://www.w3.org/1999/02/22-rdf-syntax-ns#" xmlns="http://www.w3.org/2000/svg" height="48" width="48" version="1.0" xmlns:cc="http://creativecommons.org/ns#" xmlns:dc="http://purl.org/dc/elements/1.1/">
 <metadata id="metadata57">
  <rdf:RDF>
   <cc:Work rdf:about="">
    <dc:format>image/svg+xml</dc:format>
    <dc:type rdf:resource="http://purl.org/dc/dcmitype/StillImage"/>
    <dc:title/>
   </cc:Work>
  </rdf:RDF>
 </metadata>
 <g id="layer4-0" transform="matrix(.90475 0 0 .90475 -716.75 -676.29)">
 </g>
 <g id="layer4-0-7" transform="matrix(.90475 0 0 .90475 -716.75 -669.05)">
 </g>
 <text id="text7276" font-size="12.666px" xml:space="preserve" y="-361.22546" x="435.90427" font-family="&apos;Droid Sans&apos;" fill="#000000"><tspan id="tspan7278" y="-361.22546" x="435.90427"/><tspan id="tspan7280" y="-345.3924" x="435.90427"/></text>
 <text id="text7276-7" font-size="12.666px" xml:space="preserve" y="-362.22052" x="374.65179" font-family="&apos;Droid Sans&apos;" fill="#000000"><tspan id="tspan7278-7" y="-362.22052" x="374.65179"/><tspan id="tspan7280-4" y="-346.38745" x="374.65179"/></text>
 <path id="path4719" fill="#37a0f2" d="m25 31a10 10 0 0 1 -10 10 10 10 0 0 1 -10 -10 10 10 0 0 1 10 -10 10 10 0 0 1 10 10z"/>
 <path id="circle4721" fill="#f23737" d="m43 18a10 10 0 0 1 -10 10 10 10 0 0 1 -10 -10 10 10 0 0 1 10 -10 10 10 0 0 1 10 10z"/>
 <path id="circle4747" opacity=".2" fill="#fff" d="m15 21a10 10 0 0 0 -10 10 10 10 0 0 0 0.0215 0.586 10 10 0 0 1 9.9785 -9.586 10 10 0 0 1 9.979 9.414 10 10 0 0 0 0.021 -0.414 10 10 0 0 0 -10 -10z"/>
 <path id="path4756" opacity=".2" fill="#fff" d="m33 8a10 10 0 0 0 -10 10 10 10 0 0 0 0.021 0.586 10 10 0 0 1 9.979 -9.586 10 10 0 0 1 9.979 9.414 10 10 0 0 0 0.021 -0.414 10 10 0 0 0 -10 -10z"/>
 <path id="path4730" opacity=".2" d="m23.021 18.414a10 10 0 0 0 -0.021 0.586 10 10 0 0 0 10 10 10 10 0 0 0 10 -10 10 10 0 0 0 -0.021 -0.414 10 10 0 0 1 -9.979 9.414 10 10 0 0 1 -9.979 -9.586zm-18 13a10 10 0 0 0 -0.0215 0.586 10 10 0 0 0 10 10 10 10 0 0 0 10 -10 10 10 0 0 0 -0.021 -0.414 10 10 0 0 1 -9.978 9.414 10 10 0 0 1 -9.979 -9.586z"/>
</svg>
