<svg xmlns="http://www.w3.org/2000/svg" width="48" height="48" version="1">
 <path fill="#4f4f4f" d="m24 4c-11.111 0-20 8.889-20 20s8.8889 20 20 20c1.7778 0 3.3333-1.5556 3.3333-3.3333 0-0.88889-0.22222-1.5556-0.88889-2.2222-0.444-0.667-0.888-1.334-0.888-2.223 0-1.7778 1.5556-3.3333 3.3333-3.3333h4c6.222 0 11.111-4.889 11.111-11.111 0-9.778-8.889-17.778-20-17.778z"/>
 <g opacity=".2" transform="translate(0,1)">
  <path d="m11 24c-1.6 0-3-1.4-3-3s1.4-3 3-3 3 1.4 3 3-1.4 3-3 3z"/>
  <path d="m18 15c-1.6 0-3-1.4-3-3s1.4-3 3-3 3 1.4 3 3-1.4 3-3 3z"/>
  <path d="m29 15c-1.6 0-3-1.4-3-3s1.4-3 3-3 3 1.4 3 3-1.4 3-3 3z"/>
  <path d="m36 24c-1.6 0-3-1.4-3-3s1.4-3 3-3 3 1.4 3 3-1.4 3-3 3z"/>
 </g>
 <path fill="#f1a443" d="m11 24c-1.6 0-3-1.4-3-3s1.4-3 3-3 3 1.4 3 3-1.4 3-3 3z"/>
 <path fill="#3f90dc" d="m18 15c-1.6 0-3-1.4-3-3s1.4-3 3-3 3 1.4 3 3-1.4 3-3 3z"/>
 <path fill="#56a913" d="m29 15c-1.6 0-3-1.4-3-3s1.4-3 3-3 3 1.4 3 3-1.4 3-3 3z"/>
 <path fill="#f35b5b" d="m36 24c-1.6 0-3-1.4-3-3s1.4-3 3-3 3 1.4 3 3-1.4 3-3 3z"/>
 <path fill="#fff" opacity=".1" d="m24 4c-11.111 0-20 8.889-20 20 0 0.168 0.0077 0.333 0.0117 0.5 0.2628-10.876 9.0453-19.5 19.988-19.5 10.867 0 19.604 7.654 19.982 17.139 0.004-0.121 0.018-0.24 0.018-0.362 0-9.777-8.889-17.777-20-17.777zm1.613 32.686c-0.031 0.176-0.058 0.354-0.058 0.537 0 0.889 0.446 1.556 0.89 2.222 0.508 0.508 0.755 1.016 0.846 1.621 0.018-0.132 0.043-0.264 0.043-0.4 0-0.889-0.222-1.554-0.889-2.221-0.362-0.544-0.711-1.095-0.832-1.759z"/>
 <path opacity=".2" d="m43.982 22.139c-0.186 6.047-4.993 10.75-11.093 10.75h-4c-1.778 0-3.334 1.556-3.334 3.334 0 0.163 0.031 0.313 0.058 0.463 0.274-1.542 1.68-2.797 3.276-2.797h4c6.222 0 11.111-4.889 11.111-11.112 0-0.214-0.009-0.426-0.018-0.638zm-39.97 2.361c-0.004 0.167-0.0117 0.332-0.0117 0.5 0 11.111 8.889 20 20 20 1.778 0 3.334-1.556 3.334-3.334 0-0.213-0.015-0.409-0.043-0.6-0.213 1.604-1.649 2.934-3.291 2.934-10.943 0-19.726-8.624-19.988-19.5z"/>
</svg>
