<?xml version="1.0" encoding="UTF-8" standalone="no"?>
<svg xmlns="http://www.w3.org/2000/svg" height="48" width="48" version="1">
 <path fill="#f84e4e" d="m10.002 4c-1.1095 0-2.002 0.892-2.002 2v36c0 1.108 0.8925 2 2.002 2h27.998c1.108 0 2-0.892 2-2v-36c0-1.108-0.892-2-2-2h-27.998z"/>
 <path opacity=".2" fill="#fff" d="m10.002 4c-1.1091 0-2.0022 0.892-2.0022 2v1c0-1.108 0.89317-2 2.0026-2h13.997v-1z"/>
 <path opacity=".2" fill="#fff" d="m37.997 4c1.11 0 2.003 0.892 2.003 2v1c0-1.108-0.893-2-2.003-2h-13.997v-1z"/>
 <path opacity=".2" d="m8 42v1c0 1.108 0.8925 2 2.002 2h27.998c1.108 0 2-0.892 2-2v-1c0 1.108-0.892 2-2 2h-27.998c-1.1095 0-2.002-0.892-2.002-2z"/>
 <g opacity=".2" transform="matrix(.23878 0 0 .23214 12.628 12)">
  <g>
   <path d="m59.227 70.242 16.607 36.378-12.248 5.38-15.847-36.764-1.988-4.635-3.672 3.446-19.447 18.239-0.136-92.286 67.008 62.762-27.375 2.488l-4.969 0.447 2.067 4.545z"/>
  </g>
 </g>
 <g fill="#fff" transform="matrix(.23878 0 0 .23214 12.628 11)">
  <g>
   <path d="m59.227 70.242 16.607 36.378-12.248 5.38-15.847-36.764-1.988-4.635-3.672 3.446-19.447 18.239-0.136-92.286 67.008 62.762-27.375 2.488l-4.969 0.447 2.067 4.545z"/>
  </g>
 </g>
</svg>
