<svg xmlns="http://www.w3.org/2000/svg" width="48" height="48" version="1.1">
 <path style="opacity:0.2;fill:none;stroke:#000000;stroke-width:4;stroke-linecap:round;stroke-linejoin:round" d="M 20,43 V 22"/>
 <circle style="opacity:0.2" cx="8" cy="10.5" r="5"/>
 <path style="opacity:0.2;fill:none;stroke:#000000;stroke-width:4;stroke-linecap:round;stroke-linejoin:round" d="m 20,35 -8,8"/>
 <path style="fill:none;stroke:#9c9c9c;stroke-width:4;stroke-linecap:round;stroke-linejoin:round" d="m 20,34 -8,8"/>
 <path style="fill:none;stroke:#757575;stroke-width:4;stroke-linecap:round;stroke-linejoin:round" d="M 20,42 V 21"/>
 <path style="opacity:0.2;fill:none;stroke:#000000;stroke-width:4;stroke-linecap:round;stroke-linejoin:round" d="m 20,35 8,8"/>
 <path style="fill:none;stroke:#9c9c9c;stroke-width:4;stroke-linecap:round;stroke-linejoin:round" d="m 20,34 8,8"/>
 <rect style="opacity:0.2" width="11.446" height="6.192" x="41.09" y="1.77" rx="1.265" ry="1.274" transform="matrix(0.86289498,0.50538327,-0.49463601,0.86910023,0,0)"/>
 <rect style="fill:#607582" width="11.446" height="6.192" x="40.59" y=".9" rx="1.265" ry="1.274" transform="matrix(0.86289498,0.50538327,-0.49463601,0.86910023,0,0)"/>
 <path style="opacity:0.1;fill:#ffffff" d="M 35.199219 21.777344 C 34.71187 21.7154 34.214919 21.948218 33.953125 22.408203 L 32.150391 25.574219 C 31.946043 25.933267 31.951065 26.341241 32.095703 26.695312 C 32.113576 26.654745 32.127989 26.613579 32.150391 26.574219 L 33.953125 23.408203 C 34.302184 22.794889 35.06924 22.585356 35.673828 22.939453 L 43.369141 27.447266 C 43.619788 27.594066 43.782338 27.821525 43.884766 28.072266 C 44.145387 27.480707 43.934928 26.778638 43.369141 26.447266 L 35.673828 21.939453 C 35.522681 21.850929 35.361668 21.797992 35.199219 21.777344 z"/>
 <rect style="opacity:0.2" width="16.038" height="8.675" x="27.48" y=".52" rx="1.772" ry="1.785" transform="matrix(0.86289498,0.50538327,-0.49463601,0.86910023,0,0)"/>
 <rect style="fill:#4b626d" width="16.038" height="8.675" x="26.98" y="-.34" rx="1.772" ry="1.785" transform="matrix(0.86289498,0.50538327,-0.49463601,0.86910023,0,0)"/>
 <circle style="fill:#00baff" cx="8" cy="9.5" r="5"/>
 <path style="opacity:0.2;fill:#ffffff" d="M 8 4.5 A 5 5 0 0 0 3 9.5 A 5 5 0 0 0 3.0253906 9.9980469 A 5 5 0 0 1 8 5.5 A 5 5 0 0 1 12.974609 10.001953 A 5 5 0 0 0 13 9.5 A 5 5 0 0 0 8 4.5 z"/>
 <rect style="opacity:0.2" width="21.34" height="11.543" x="9.74" y="-.91" rx="2.358" ry="2.375" transform="matrix(0.86289498,0.50538327,-0.49463601,0.86910023,0,0)"/>
 <path style="opacity:0.1;fill:#ffffff" d="M 23.974609 14 C 23.409649 14.040063 22.874041 14.35548 22.568359 14.892578 L 20.042969 19.330078 C 19.790614 19.773478 19.749334 20.277194 19.880859 20.730469 C 19.919975 20.594048 19.969671 20.458866 20.042969 20.330078 L 22.568359 15.892578 C 23.05745 15.033221 24.133339 14.742131 24.980469 15.238281 L 35.761719 21.552734 C 36.171685 21.792845 36.446894 22.172528 36.570312 22.597656 C 36.791173 21.824278 36.481322 20.974194 35.761719 20.552734 L 24.980469 14.238281 C 24.662795 14.052225 24.313586 13.975962 23.974609 14 z"/>
 <rect style="fill:#37474f" width="21.34" height="11.543" x="9.24" y="-1.77" rx="2.358" ry="2.375" transform="matrix(0.86289498,0.50538327,-0.49463601,0.86910023,0,0)"/>
 <path style="opacity:0.1;fill:#ffffff" d="M 9.546875 4.0058594 C 8.7951562 4.0591666 8.0844648 4.4787136 7.6777344 5.1933594 L 4.3164062 11.097656 C 4.0104693 11.635203 3.941459 12.239223 4.0625 12.798828 C 4.1127682 12.559252 4.1888343 12.321807 4.3164062 12.097656 L 7.6777344 6.1933594 C 8.3285031 5.0499261 9.7595543 4.6621041 10.886719 5.3222656 L 25.232422 13.722656 C 25.829546 14.072382 26.209186 14.646773 26.345703 15.277344 C 26.551862 14.294798 26.138625 13.253404 25.232422 12.722656 L 10.886719 4.3222656 C 10.464032 4.0747051 9.9979063 3.973875 9.546875 4.0058594 z"/>
</svg>
