<svg xmlns="http://www.w3.org/2000/svg" width="48" height="48" version="1">
 <rect style="opacity:0.2" width="24" height="36" x="4" y="8" rx="2" ry="2"/>
 <rect style="fill:#f57f17" width="24" height="36" x="4" y="7" rx="2" ry="2"/>
 <path style="fill:#ffffff;opacity:0.2" d="M 6 7 C 4.892 7 4 7.892 4 9 L 4 10 C 4 8.892 4.892 8 6 8 L 26 8 C 27.108 8 28 8.892 28 10 L 28 9 C 28 7.892 27.108 7 26 7 L 6 7 z"/>
 <rect style="opacity:0.2" width="24" height="36" x="20" y="5" rx="2" ry="2"/>
 <rect style="fill:#00b0ff" width="24" height="36" x="20" y="4" rx="2" ry="2"/>
 <path style="opacity:0.2" d="M 33,34 H 30 V 31 H 33 Z M 36.158,21.368 35.105,22.421 C 34.179,23.36 33,24.535 33,26 V 28 H 30 C 29.998,26.233 30.197,23.076 31.832,21.536 L 34.053,19.263 C 34.682,18.651 35.105,18.093 35.105,17.158 35.105,15.287 33.87,14 32,14 30.13,14 29,15.13 29,17 H 26 C 26,13.242 28.242,11 32,11 35.758,11 38,13.242 38,17 38,18.496 37.127,20.399 36.158,21.368 Z"/>
 <path fill="#ffffff" d="M 33,33 H 30 V 30 H 33 Z M 36.158,20.368 35.105,21.421 C 34.179,22.36 33,23.535 33,25 V 27 H 30 C 29.998,25.233 30.197,22.076 31.832,20.536 L 34.053,18.263 C 34.682,17.651 35.105,17.093 35.105,16.158 35.105,14.287 33.87,13 32,13 30.13,13 29,14.13 29,16 H 26 C 26,12.242 28.242,10 32,10 35.758,10 38,12.242 38,16 38,17.496 37.127,19.399 36.158,20.368 Z"/>
 <path style="fill:#ffffff;opacity:0.2" d="M 22 4 C 20.892 4 20 4.892 20 6 L 20 7 C 20 5.892 20.892 5 22 5 L 42 5 C 43.108 5 44 5.892 44 7 L 44 6 C 44 4.892 43.108 4 42 4 L 22 4 z"/>
</svg>
