<svg xmlns="http://www.w3.org/2000/svg" width="48" height="48" version="1.1" viewBox="0 0 48 48">
 <path style="opacity:0.2" d="M 24,8.9999997 C 14.058874,8.9999997 6,17.058874 6,27 c 0,6.646123 3.6019694,12.450961 8.960257,15.568863 2.656522,1.545787 5.832304,0.154494 9.127306,0.154494 5.392019,0 10.142731,-0.09422 13.441666,-3.850345 C 40.312455,35.704066 42,31.549106 42,27 42,17.058874 33.941126,8.9999997 24,8.9999997 Z"/>
 <path d="M 24,7.9999997 A 18,18 0 0 0 6,26 18,18 0 0 0 24,44 18,18 0 0 0 42,26 18,18 0 0 0 24,7.9999997 Z" style="fill:#82652d"/>
 <path style="opacity:0.1;fill:#ffffff" d="M 24 8 A 18 18 0 0 0 6 26 A 18 18 0 0 0 6.0214844 26.414062 A 18 18 0 0 1 24 9 A 18 18 0 0 1 41.978516 26.585938 A 18 18 0 0 0 42 26 A 18 18 0 0 0 24 8 z"/>
 <path d="M 24,13 A 14,14 0 0 0 10,27 14,14 0 0 0 24,41 14,14 0 0 0 38,27 14,14 0 0 0 24,13 Z" style="opacity:0.2"/>
 <path style="fill:#00a7a1" d="M 24,12 A 14,14 0 0 0 10,26 14,14 0 0 0 24,40 14,14 0 0 0 38,26 14,14 0 0 0 24,12 Z"/>
 <path style="opacity:0.1;fill:#ffffff" d="M 24 12 A 14 14 0 0 0 10 26 A 14 14 0 0 0 10.021484 26.414062 A 14 14 0 0 1 24 13 A 14 14 0 0 1 37.978516 26.585938 A 14 14 0 0 0 38 26 A 14 14 0 0 0 24 12 z"/>
 <path d="m 12.598371,5 c -2.310255,9.104e-4 -3.4670234,2.8096603 -1.833995,4.453125 l 2.239725,2.713995 v 23.267663 2.398098 l -2.239725,2.713995 C 9.1313493,42.190341 10.288117,44.999089 12.598371,45 h 10.375741 13.239489 c 0.816747,-1.75e-4 1.585722,-0.387166 2.075484,-1.044497 l 3.188446,-4.956055 C 42.758243,37.279652 41.538523,35.000778 39.402046,35 H 25.000513 V 7.6086957 C 25.00037,6.168013 23.906446,5.0001447 22.473914,5 Z" style="opacity:0.2"/>
 <path style="fill:#f0b530" d="m 12.598371,4 c -2.310255,9.104e-4 -3.4670234,2.8096603 -1.833995,4.453125 l 2.239725,2.713995 v 23.267663 2.398098 l -2.239725,2.713995 C 9.1313493,41.190341 10.288117,43.999089 12.598371,44 h 10.375741 13.239489 c 0.816747,-1.75e-4 1.585722,-0.387166 2.075484,-1.044497 l 3.188446,-4.956055 C 42.758243,36.279652 41.538523,34.000778 39.402046,34 H 25.000513 V 6.6086957 C 25.00037,5.168013 23.906446,4.0001447 22.473914,4 Z"/>
 <path style="opacity:0.2;fill:#ffffff" d="M 12.597656 4 C 10.838942 4.0006931 9.7526135 5.6285748 10.052734 7.1308594 C 10.272194 5.9863105 11.229762 5.000539 12.597656 5 L 22.474609 5 C 23.907141 5.0001447 24.999857 6.1686923 25 7.609375 L 25 6.609375 C 24.999857 5.1686923 23.907141 4.0001447 22.474609 4 L 12.597656 4 z M 25 34 L 25 35 L 39.402344 35 C 40.737642 35.000486 41.714823 35.890936 41.947266 36.978516 C 42.261373 35.496333 41.13292 34.00063 39.402344 34 L 25 34 z M 13.003906 36.832031 L 10.763672 39.546875 C 10.097555 40.21725 9.9015458 41.080646 10.052734 41.869141 C 10.146854 41.398017 10.37381 40.939229 10.763672 40.546875 L 13.003906 37.832031 L 13.003906 36.832031 z"/>
</svg>
