<svg xmlns="http://www.w3.org/2000/svg" width="48" height="48" version="1">
 <path style="opacity:0.2" d="m 24.069905,6.0015031 a 1.7897304,1.8141471 0 0 0 -0.66584,0.100973 L 8.1928787,11.544373 a 1.7897304,1.8141471 0 0 0 -1.186627,1.861795 l 1.789552,21.767587 a 1.7897304,1.8141471 0 0 0 0.861571,1.404761 L 23.07901,44.741361 a 1.7897304,1.8141471 0 0 0 1.84198,0 l 13.421635,-8.162845 a 1.7897304,1.8141471 0 0 0 0.861572,-1.404761 L 40.993748,13.406168 A 1.7897304,1.8141471 0 0 0 39.807121,11.544373 L 24.595935,6.1024757 a 1.7897304,1.8141471 0 0 0 -0.52603,-0.1009726 z"/>
 <path style="fill:#f44336" d="m 24.069905,5.0015032 a 1.7897304,1.8141471 0 0 0 -0.66584,0.100973 L 8.1928787,10.544373 a 1.7897304,1.8141471 0 0 0 -1.186627,1.861795 l 1.789552,21.767587 a 1.7897304,1.8141471 0 0 0 0.861571,1.404761 L 23.07901,43.741361 a 1.7897304,1.8141471 0 0 0 1.84198,0 l 13.421635,-8.162845 a 1.7897304,1.8141471 0 0 0 0.861572,-1.404761 L 40.993748,12.406168 A 1.7897304,1.8141471 0 0 0 39.807121,10.544373 L 24.595935,5.1024758 a 1.7897304,1.8141471 0 0 0 -0.52603,-0.1009726 z"/>
 <path style="fill:#d32f2f" d="M 39.955078 10.607422 A 1.7897304 1.8141471 0 0 1 40.068359 10.666016 A 1.7897304 1.8141471 0 0 0 39.955078 10.607422 z M 40.117188 10.693359 A 1.7897304 1.8141471 0 0 1 40.205078 10.75 A 1.7897304 1.8141471 0 0 0 40.117188 10.693359 z M 40.275391 10.800781 A 1.7897304 1.8141471 0 0 1 40.341797 10.853516 A 1.7897304 1.8141471 0 0 0 40.275391 10.800781 z M 40.410156 10.912109 A 1.7897304 1.8141471 0 0 1 40.486328 10.988281 A 1.7897304 1.8141471 0 0 0 40.410156 10.912109 z M 40.529297 11.03125 A 1.7897304 1.8141471 0 0 1 40.609375 11.126953 A 1.7897304 1.8141471 0 0 0 40.529297 11.03125 z M 40.646484 11.175781 A 1.7897304 1.8141471 0 0 1 40.707031 11.267578 A 1.7897304 1.8141471 0 0 0 40.646484 11.175781 z M 40.732422 11.306641 L 24 18 L 24 43.998047 A 1.7897304 1.8141471 0 0 0 24.921875 43.742188 L 38.341797 35.578125 A 1.7897304 1.8141471 0 0 0 39.205078 34.173828 L 40.994141 12.40625 A 1.7897304 1.8141471 0 0 0 40.732422 11.306641 z"/>
 <path style="fill:#f66156" d="M 24.070312 5.0019531 A 1.7897304 1.8141471 0 0 0 23.404297 5.1015625 L 8.1933594 10.544922 A 1.7897304 1.8141471 0 0 0 7.265625 11.306641 L 24 18 L 40.734375 11.306641 A 1.7897304 1.8141471 0 0 0 39.806641 10.544922 L 24.595703 5.1015625 A 1.7897304 1.8141471 0 0 0 24.070312 5.0019531 z"/>
 <path style="opacity:0.2;fill:#ffffff" d="M 24.070312 5.0019531 A 1.7897304 1.8141471 0 0 0 23.404297 5.1015625 L 8.1933594 10.544922 A 1.7897304 1.8141471 0 0 0 7.265625 11.306641 L 8.0292969 11.611328 A 1.7897304 1.8141471 0 0 1 8.1933594 11.544922 L 23.404297 6.1015625 A 1.7897304 1.8141471 0 0 1 24.070312 6.0019531 A 1.7897304 1.8141471 0 0 1 24.595703 6.1015625 L 39.806641 11.544922 A 1.7897304 1.8141471 0 0 1 39.966797 11.613281 L 40.734375 11.306641 A 1.7897304 1.8141471 0 0 0 39.806641 10.544922 L 24.595703 5.1015625 A 1.7897304 1.8141471 0 0 0 24.070312 5.0019531 z"/>
 <ellipse id="ellipse854" style="fill:#d32f2f" cx="24" cy="11" rx="7" ry="2"/>
 <rect style="fill:#d32f2f" width="14" height="5" x="17" y="6"/>
 <ellipse id="ellipse874" style="opacity:0.1" cx="24" cy="7" rx="7" ry="2"/>
 <ellipse style="fill:#f66156" cx="24" cy="6" rx="7" ry="2"/>
 <path style="opacity:0.1" d="M 8.0292969 11.611328 A 1.7897304 1.8141471 0 0 0 7.265625 12.306641 L 24 19 L 40.734375 12.306641 A 1.7897304 1.8141471 0 0 0 39.966797 11.613281 L 24 18 L 8.0292969 11.611328 z"/>
 <path id="ellipse883" style="opacity:0.2;fill:#ffffff" d="M 24 4 A 7 2 0 0 0 17 6 A 7 2 0 0 0 17.228516 6.5019531 A 7 2 0 0 1 24 5 A 7 2 0 0 1 30.771484 6.4980469 A 7 2 0 0 0 31 6 A 7 2 0 0 0 24 4 z"/>
</svg>
