<?xml version="1.0" encoding="UTF-8" standalone="no"?>
<!-- Created with Inkscape (http://www.inkscape.org/) -->

<svg
   width="48"
   height="48"
   viewBox="0 0 48 48"
   version="1.1"
   id="svg5"
   inkscape:version="1.2.2 (1:1.2.2+202305151914+b0a8486541)"
   sodipodi:docname="libreoffice-math.svg"
   xmlns:inkscape="http://www.inkscape.org/namespaces/inkscape"
   xmlns:sodipodi="http://sodipodi.sourceforge.net/DTD/sodipodi-0.dtd"
   xmlns="http://www.w3.org/2000/svg"
   xmlns:svg="http://www.w3.org/2000/svg">
  <sodipodi:namedview
     id="namedview7"
     pagecolor="#ffffff"
     bordercolor="#000000"
     borderopacity="0.25"
     inkscape:showpageshadow="2"
     inkscape:pageopacity="0.0"
     inkscape:pagecheckerboard="0"
     inkscape:deskcolor="#d1d1d1"
     inkscape:document-units="px"
     showgrid="false"
     inkscape:zoom="17.291667"
     inkscape:cx="24"
     inkscape:cy="24"
     inkscape:window-width="1920"
     inkscape:window-height="1008"
     inkscape:window-x="0"
     inkscape:window-y="0"
     inkscape:window-maximized="1"
     inkscape:current-layer="svg5" />
  <defs
     id="defs2" />
  <path
     d="M 30,5 H 40 V 15 Z M 14,5 h 14 l 12,12 v 22 c 0,3.323996 -2.676,6 -6,6 H 14 C 10.676,45 8,42.324 8,39 V 11 C 8,7.676 10.676,5 14,5 Z"
     style="opacity:0.2;fill:#000000;fill-opacity:1;stroke-width:3;stroke-linecap:square"
     id="path900" />
  <path
     id="rect339"
     style="fill:#da477d;fill-opacity:1;stroke-width:3;stroke-linecap:square"
     d="m 14,4 h 14 l 12,12 v 22 c 0,3.323996 -2.676,6 -6,6 H 14 C 10.676,44 8,41.324 8,38 V 10 C 8,6.676 10.676,4 14,4 Z" />
  <path
     d="M 30,4 H 40 V 14 Z"
     style="fill:#d12a67;fill-opacity:1;stroke-width:0.625;stroke-linecap:square"
     id="path1087" />
  <path
     d="m 22.50001,19 v 0.004 c -0.18299,0.0201 -0.34662,0.14086 -0.41406,0.32617 L 16.48829,31.88096 14.58204,26.37119 C 14.52194,26.14673 14.32108,25.99934 14.09962,26.0001 H 14.07032 12.5 c -0.27701,0 -0.5,0.223 -0.5,0.5 0,0.277 0.22299,0.5 0.5,0.5 h 1.2168 l 2.16406,5.976561 c 0.10069,0.342529 0.18629,0.496459 0.35352,0.564449 0.26029,0.0947 0.54784,-0.0385 0.64258,-0.29883 L 22.90625,20.0001 H 35.5 c 0.277,0 0.5,-0.223 0.5,-0.5 0,-0.277 -0.223,-0.5 -0.5,-0.5 z m 3.37891,3.87695 c -0.25562,0 -0.51117,0.0991 -0.70703,0.29492 -0.39175,0.39174 -0.39175,1.02232 0,1.41406 L 28.58595,28 25.17189,31.41406 c -0.39175,0.39174 -0.39175,1.02232 0,1.41406 0.39173,0.39173 1.02232,0.39173 1.41406,0 l 3.41406,-3.41406 3.41407,3.41406 c 0.39173,0.39173 1.02231,0.39173 1.41406,0 0.39173,-0.39174 0.39173,-1.02232 0,-1.41406 L 31.41408,28 34.82814,24.58593 c 0.39173,-0.39174 0.39173,-1.02232 0,-1.41406 -0.39175,-0.39173 -1.02232,-0.39173 -1.41406,0 l -3.41407,3.41406 -3.41406,-3.41406 C 26.39008,22.97601 26.13454,22.87695 25.87892,22.87695 Z M 12.50001,36 c -0.27701,0 -0.5,0.223 -0.5,0.5 0,0.277 0.22299,0.5 0.5,0.5 h 5 c 0.277,0 0.5,-0.223 0.5,-0.5 0,-0.277 -0.223,-0.5 -0.5,-0.5 z m 9,0 c -0.27701,0 -0.5,0.223 -0.5,0.5 0,0.277 0.22299,0.5 0.5,0.5 h 5 c 0.277,0 0.5,-0.223 0.5,-0.5 0,-0.277 -0.223,-0.5 -0.5,-0.5 z m 9,0 c -0.27701,0 -0.5,0.223 -0.5,0.5 0,0.277 0.22299,0.5 0.5,0.5 h 5 c 0.277,0 0.5,-0.223 0.5,-0.5 0,-0.277 -0.223,-0.5 -0.5,-0.5 z"
     style="opacity:0.2;fill:#000000;stroke-width:2;stroke-linecap:round;stroke-linejoin:round"
     id="path6603" />
  <path
     d="m 22.49991,18 v 0.004 c -0.18298,0.0201 -0.34662,0.14086 -0.41406,0.32617 L 16.48838,30.88053 14.58216,25.37119 C 14.52206,25.14673 14.3212,24.99934 14.09974,25.0001 H 14.07044 12.5 c -0.277,0 -0.5,0.223 -0.5,0.5 0,0.277 0.223,0.5 0.5,0.5 h 1.21692 l 2.16403,5.97614 c 0.10069,0.34253 0.18629,0.49646 0.35352,0.56445 0.26029,0.0947 0.54784,-0.0385 0.64258,-0.29883 L 22.90616,19.0001 H 35.5 c 0.277,0 0.5,-0.223 0.5,-0.5 0,-0.277 -0.223,-0.5 -0.5,-0.5 z M 12.5,34.99957 c -0.277,0 -0.5,0.223 -0.5,0.5 0,0.277 0.223,0.5 0.5,0.5 h 5 c 0.277,0 0.5,-0.223 0.5,-0.5 0,-0.277 -0.223,-0.5 -0.5,-0.5 z m 9,0 c -0.277,0 -0.5,0.223 -0.5,0.5 0,0.277 0.223,0.5 0.5,0.5 h 5 c 0.277,0 0.5,-0.223 0.5,-0.5 0,-0.277 -0.223,-0.5 -0.5,-0.5 z m 9,0 c -0.277,0 -0.5,0.223 -0.5,0.5 0,0.277 0.223,0.5 0.5,0.5 h 5 c 0.277,0 0.5,-0.223 0.5,-0.5 0,-0.277 -0.223,-0.5 -0.5,-0.5 z"
     style="fill:#ffffff;stroke-width:2;stroke-linecap:round;stroke-linejoin:round"
     id="path6547" />
  <path
     d="m 25.17181,22.1718 c -0.39174,0.39174 -0.39174,1.02248 0,1.41422 l 3.41389,3.41389 -3.41389,3.41389 c -0.39174,0.39174 -0.39174,1.022481 0,1.414221 0.39173,0.391729 1.02247,0.391729 1.41421,0 l 3.41389,-3.413901 3.4139,3.413901 c 0.39173,0.391729 1.02247,0.391729 1.41421,0 0.39174,-0.39174 0.39174,-1.022481 0,-1.414221 l -3.41389,-3.41389 3.41389,-3.41389 c 0.39173,-0.391739 0.39173,-1.02248 0,-1.41422 -0.39174,-0.39173 -1.02248,-0.39173 -1.41422,0 l -3.41389,3.4139 -3.41389,-3.4139 c -0.39174,-0.39173 -1.02248,-0.39173 -1.41421,0 z"
     style="fill:#ef95b4;fill-opacity:1;stroke-width:2;stroke-linecap:round;stroke-linejoin:round"
     id="path6575" />
  <path
     id="path1067"
     style="opacity:0.2;fill:#ffffff;fill-opacity:1;stroke-width:3;stroke-linecap:square"
     d="M 14,4 C 10.676003,4 8,6.6760034 8,10 v 1 C 8,7.6760034 10.676003,5 14,5 H 29 L 28,4 Z m 16,0 1,1 h 9 V 4 Z" />
</svg>
