<?xml version="1.0" encoding="UTF-8" standalone="no"?>
<svg id="svg4417" xmlns:rdf="http://www.w3.org/1999/02/22-rdf-syntax-ns#" xmlns="http://www.w3.org/2000/svg" width="48" version="1.1" xmlns:cc="http://creativecommons.org/ns#" height="48" viewBox="0 0 48 48.000001" xmlns:dc="http://purl.org/dc/elements/1.1/">
 <metadata id="metadata4422">
  <rdf:RDF>
   <cc:Work rdf:about="">
    <dc:format>image/svg+xml</dc:format>
    <dc:type rdf:resource="http://purl.org/dc/dcmitype/StillImage"/>
    <dc:title/>
   </cc:Work>
  </rdf:RDF>
 </metadata>
 <g id="layer1" transform="translate(0 -1004.4)">
  <rect id="rect4203" transform="matrix(0,-1,-1,0,0,0)" rx="3" ry="3" height="40" width="40" y="-44" x="-1048.4" fill="#3465a4"/>
  <path id="rect4428" opacity=".2" fill="#fff" d="m7 1008.4c-1.662 0-3 1.338-3 3v1c0-1.662 1.338-3 3-3h34c1.662 0 3 1.338 3 3v-1c0-1.662-1.338-3-3-3h-34z"/>
  <path id="rect4388" opacity=".2" d="m4 1045.4v1c0 1.662 1.338 3 3 3h34c1.662 0 3-1.338 3-3v-1c0 1.662-1.338 3-3 3h-34c-1.662 0-3-1.338-3-3z"/>
  <g id="g4198" opacity=".2" transform="translate(0 1)">
   <path id="rect4200" opacity="1" transform="translate(0 1003.4)" d="m12 15v20h14v-4h-10v-16h-4zm10 0v4h10v16h4v-20h-14z"/>
  </g>
  <g id="g4192" fill="#fff">
   <rect id="rect4160" y="1018.4" width="4" x="12" height="20"/>
   <rect id="rect4162" transform="rotate(90)" height="14" width="4" y="-26" x="1034.4"/>
   <rect id="rect4170" transform="scale(-1)" height="20" width="4" y="-1038.4" x="-36"/>
   <rect id="rect4172" transform="rotate(-90)" height="14" width="4" y="22" x="-1022.4"/>
  </g>
 </g>
</svg>
