<svg xmlns="http://www.w3.org/2000/svg" width="48" height="48" version="1">
 <path fill="#25c65f" d="m5 40 0.0186-15.258-0.0186-7.242 19-11.5 19 12v22l-6.333 3-6.667-3v-7l5-5v-6l-11-8-12 8v6l6 5v7l-6.6667 3z"/>
 <path fill="#fff" opacity=".2" d="m24 6-19 11.5 0.002 0.998 18.998-11.498 19 12v-1l-19-12zm-18.98 19.42-0.0195 14.58h0.002l0.0175-14.258v-0.322zm6.9805 2.58v1l6 5v-1l-6-5zm23 0-5 5v1l5-5v-1z"/>
 <path opacity=".2" d="m24 14-12 8v1l12-8 11 8v-1l-11-8zm-18.998 4.498-0.002 0.002l0.019531 6.9199v-0.67773l-0.017578-6.2441zm0 21.502-0.002 1 6.334 3 6.666-3v-1l-6.666 3-6.332-3zm24.998 0v1l6.666 3 6.334-3v-1l-6.334 3-6.666-3z"/>
</svg>
