<?xml version="1.0" encoding="UTF-8" standalone="no"?>
<svg xmlns="http://www.w3.org/2000/svg" height="48" width="48" version="1">
 <path fill="#005491" d="m44 40v-32c0-1.108-0.892-2-2-2h-36c-1.108 0-2 0.892-2 2v32c0 1.108 0.892 2 2 2h36c1.108 0 2-0.892 2-2z"/>
 <path opacity=".2" fill="#fff" d="m44 40v-32c0-1.108-0.892-2-2-2h-18v36h18c1.108 0 2-0.892 2-2z"/>
 <path opacity=".2" fill="#fff" d="m6 6c-1.108 0-2 0.892-2 2v1c0-1.108 0.892-2 2-2h36c1.108 0 2 0.892 2 2v-1c0-1.108-0.892-2-2-2h-36z"/>
 <path opacity=".2" d="m4 40v1c0 1.108 0.892 2 2 2h36c1.108 0 2-0.892 2-2v-1c0 1.108-0.892 2-2 2h-36c-1.108 0-2-0.892-2-2z"/>
 <path d="m6 9h15v1h-15z" fill="#fff"/>
 <path d="m6 11h11v1h-11z" fill="#fff"/>
 <path d="m6 13h9v1h-9z" fill="#fff"/>
 <path d="m6 15h6v1h-6z" fill="#fff"/>
 <path d="m27 9h10v1h-10z" fill="#fff"/>
 <path d="m27 11h15v1h-15z" fill="#fff"/>
 <path d="m27 13h9v1h-9z" fill="#fff"/>
 <path d="m27 15h12v1h-12z" fill="#fff"/>
 <path opacity=".2" style="color:#bebebe" d="m6 10h15v1h-15z"/>
 <path opacity=".2" style="color:#bebebe" d="m6 12h11v1h-11z"/>
 <path opacity=".2" style="color:#bebebe" d="m6 14h9v1h-9z"/>
 <path opacity=".2" style="color:#bebebe" d="m6 16h6v1h-6z"/>
 <path opacity=".2" style="color:#bebebe" d="m27 10h10v1h-10z"/>
 <path opacity=".2" style="color:#bebebe" d="m27 12h15v1h-15z"/>
 <path opacity=".2" style="color:#bebebe" d="m27 14h9v1h-9z"/>
 <path opacity=".2" style="color:#bebebe" d="m27 16h12v1h-12z"/>
</svg>
