<svg xmlns="http://www.w3.org/2000/svg" width="48" height="48" version="1.1">
 <g transform="translate(0 -1004.4)">
  <path fill="#37a0f2" d="m43.954 1046.4-9.977-36c-0.29587-1.0676-0.88995-2-1.9954-2h-15.963c-1.1055 0-1.6995 0.9324-1.9954 2l-9.977 36c-0.29587 1.0676 0.88995 2 1.9954 2h35.917c1.1055 0 2.2913-0.9324 1.9954-2z"/>
  <path fill="#fff" opacity=".2" d="m16 1008.4c-1.108 0-1.7035 0.9324-2 2l-10 36c-0.078878 0.284-0.047109 0.5568 0.054687 0.8066l9.9453-35.8c0.29655-1.0676 0.892-2 2-2h16c1.108 0 1.7035 0.9324 2 2l9.9453 35.807c0.1018-0.2498 0.13357-0.5226 0.05469-0.8066l-10-36c-0.29655-1.0676-0.892-2-2-2h-16z"/>
  <circle opacity=".2" cx="24" cy="1040.4" r="5"/>
  <circle fill="#fff" cx="24" cy="1039.4" r="5"/>
  <rect opacity=".2" width="4" height="30" x="538.92" y="861.02" rx="1.924" ry="2.33" transform="rotate(30)"/>
  <rect fill="#fe4343" width="4" height="30" x="538.42" y="860.16" rx="1.924" ry="2.33" transform="rotate(30)"/>
  <path opacity=".2" d="m4.1006 1047.2-0.054561 0.1934c-0.29587 1.0676 0.88995 2 1.9954 2h35.917c1.1055 0 2.2913-0.9324 1.9954-2l-0.05457-0.1934c-0.28027 0.6895-1.1294 1.1934-1.9408 1.1934h-35.917c-0.81142 0-1.6606-0.5039-1.9408-1.1934z"/>
  <path opacity=".2" d="m29 1009.4-5 8-5-8z"/>
  <path fill="#fff" d="m29 1008.4-5 8-5-8z"/>
 </g>
</svg>
