<svg xmlns="http://www.w3.org/2000/svg" width="48" height="48" version="1.1">
 <path style="opacity:0.2" class="cls-1" d="m 40.102432,34.76809 c -1.916582,1.88585 -4.88964,2.333491 -7.255797,2.345116 -7.393288,0 -13.833511,-5.685364 -13.833511,-12.211189 0.01927,-1.782296 1.001382,-3.414678 2.567027,-4.266706 -6.687082,0.281218 -8.405725,7.249182 -8.405725,11.331533 0,11.542447 10.638398,12.712627 12.930443,12.712627 1.23586,0 3.099806,-0.359334 4.218486,-0.712419 l 0.204675,-0.06874 c 4.3048,-1.488127 7.97467,-4.397427 10.4056,-8.249068 0.347188,-0.54698 -0.264865,-1.195816 -0.831198,-0.881151 z"/>
 <path style="fill:#0e539b" class="cls-1" d="m 40.102432,33.768514 c -1.916582,1.88585 -4.88964,2.333491 -7.255797,2.345116 -7.393288,0 -13.833511,-5.685364 -13.833511,-12.211189 0.01927,-1.782296 1.001382,-3.414678 2.567027,-4.266706 -6.687082,0.281218 -8.405725,7.249182 -8.405725,11.331533 0,11.542447 10.638398,12.712627 12.930443,12.712627 1.23586,0 3.099806,-0.359334 4.218486,-0.712419 l 0.204675,-0.06874 c 4.3048,-1.488127 7.97467,-4.397427 10.4056,-8.249068 0.347188,-0.54698 -0.264865,-1.195816 -0.831198,-0.881151 z"/>
 <path style="opacity:0.2" class="cls-3" d="m 19.91942,42.717193 c -1.393564,-0.864899 -2.601272,-1.998197 -3.552903,-3.333999 -4.617601,-6.326103 -1.812511,-15.286967 5.213634,-18.747883 0.48747,-0.229662 1.32023,-0.64524 2.427974,-0.624929 1.582089,0.01152 3.067508,0.763152 4.013811,2.03102 0.630934,0.842379 0.978802,1.862957 0.993688,2.915296 0,-0.03281 3.821637,-12.436096 -12.499219,-12.436096 -6.8589465,0 -12.4992192,6.50864 -12.4992192,12.218933 -0.027055,3.020669 0.6192947,6.009417 1.8920693,8.749012 4.3056139,9.186173 14.8079439,13.692989 24.4328489,10.484754 -3.294954,1.038827 -7.479502,0.582056 -10.408622,-1.249859 z"/>
 <path style="fill:#0b87da" class="cls-3" d="m 19.91942,41.717617 c -1.393564,-0.864899 -2.601272,-1.998197 -3.552903,-3.333999 -4.617601,-6.326103 -1.812511,-15.286967 5.213634,-18.747883 0.48747,-0.229662 1.32023,-0.64524 2.427974,-0.624929 1.582089,0.01152 3.067508,0.763152 4.013811,2.03102 0.630934,0.842379 0.978802,1.862957 0.993688,2.915296 0,-0.03281 3.821637,-12.436096 -12.499219,-12.436096 -6.8589465,0 -12.4992192,6.50864 -12.4992192,12.218933 -0.027055,3.020669 0.6192947,6.009417 1.8920693,8.749012 4.3056139,9.186173 14.8079439,13.692989 24.4328489,10.484754 -3.294954,1.038827 -7.479502,0.582056 -10.408622,-1.249859 z"/>
 <path style="opacity:0.2" class="cls-5" d="m 27.800075,27.65661 c -0.126554,0.164043 -0.515593,0.39058 -0.515593,0.884275 0,0.407766 0.265609,0.799909 0.737454,1.12956 2.246735,1.562323 6.482408,1.356097 6.493345,1.356097 1.66478,-0.004 3.298006,-0.4545 4.729392,-1.304541 2.938204,-1.715521 4.747419,-4.259626 4.75439,-7.661851 0.04062,-3.501167 -1.249922,-5.829029 -1.771764,-6.860163 C 38.916568,8.7241555 31.77014,4.999576 23.99875,4.999576 13.062647,4.9984949 4.1537884,13.78163 3.9999994,24.7161 4.0749944,19.00737 9.7496402,13.996946 16.499219,13.996946 c 0.54684,0 3.665396,0.05312 6.56209,1.57326 2.552965,1.340473 3.890382,3.359048 4.820011,4.963554 1.351179,2.549394 1.409328,5.176602 -0.08124,7.12285 z"/>
 <path style="fill:#17dcbe" class="cls-5" d="m 27.800075,26.657034 c -0.126554,0.164043 -0.515593,0.39058 -0.515593,0.884275 0,0.407766 0.265609,0.799909 0.737454,1.12956 2.246735,1.562323 6.482408,1.356097 6.493345,1.356097 1.66478,-0.004 3.298006,-0.4545 4.729392,-1.304541 2.938204,-1.715521 4.747419,-4.259626 4.75439,-7.661851 0.04062,-3.501167 -1.249922,-5.829029 -1.771764,-6.860163 C 38.916568,7.7245799 31.77014,4.0000004 23.99875,4.0000004 13.062647,3.9989193 4.1537884,12.782054 3.9999994,23.716524 4.0749944,18.007794 9.7496402,12.99737 16.499219,12.99737 c 0.54684,0 3.665396,0.05312 6.56209,1.57326 2.552965,1.340473 3.890382,3.359048 4.820011,4.963554 1.351179,2.549394 1.409328,5.176602 -0.08124,7.12285 z"/>
 <path style="fill:#ffffff;opacity:0.2" d="M 23.998047 4 C 13.061944 3.9989189 4.153789 12.782327 4 23.716797 C 4.0101802 22.941865 4.1307088 22.18177 4.3359375 21.443359 C 6.018795 12.084895 14.18068 4.9990295 23.998047 5 C 31.769437 5 38.915831 8.7253407 42.226562 15.201172 C 42.714169 16.164658 43.859759 18.273264 43.976562 21.400391 C 43.98103 21.285519 43.99976 21.177444 44 21.060547 C 44.04062 17.55938 42.748404 15.232306 42.226562 14.201172 C 38.915831 7.7253408 31.769437 4 23.998047 4 z M 28.869141 23.798828 C 28.784423 24.837153 28.447221 25.812188 27.800781 26.65625 C 27.674227 26.820293 27.285156 27.047321 27.285156 27.541016 C 27.285156 27.719619 27.344483 27.89383 27.441406 28.0625 C 27.564943 27.880668 27.726234 27.75288 27.800781 27.65625 C 28.6512 26.545851 28.979478 25.211629 28.869141 23.798828 z"/>
 <rect style="opacity:0.2" width="26" height="14" x="20" y="33" rx="3" ry="3"/>
 <rect style="fill:#50e6ff" width="26" height="14" x="20" y="32" rx="3" ry="3"/>
 <path style="fill:#3f3f3f" d="m 23,36 h 1.678639 c 0.720857,0 1.26528,0.112045 1.633271,0.336134 0.36799,0.224091 0.551985,0.619049 0.551985,1.184874 0,0.341737 -0.07309,0.630253 -0.219283,0.865548 -0.141147,0.235294 -0.345305,0.378151 -0.612476,0.428571 v 0.04202 c 0.181475,0.03922 0.345306,0.109248 0.491494,0.210085 0.146188,0.10084 0.26213,0.246498 0.347827,0.436974 C 26.957152,39.694682 27,39.946783 27,40.260509 c 0,0.543417 -0.176433,0.969187 -0.5293,1.277311 -0.352867,0.308123 -0.836799,0.462184 -1.451796,0.462184 H 23 Z m 1,2 h 0.807183 c 0.936994,0 0.884688,-0.511 0.884688,-0.511 0,0 0.008,-0.489 -0.945179,-0.446983 H 24 Z m 0,1 v 2 h 0.890359 c 0.342785,0 0.582231,-0.123249 0.718337,-0.268907 0.136106,-0.151261 0.204159,-0.35014 0.204159,-0.596639 0,-0.224089 -0.07057,-0.702958 -0.211721,-0.837412 C 25.465028,39.156986 25.213628,38.963171 24.852552,39 Z"/>
 <path style="fill:#3f3f3f" d="m 32,42 h -4 v -6 h 4 v 1 h -3 v 1 h 2 v 1 h -2 v 2 h 3 z"/>
 <path style="fill:#3f3f3f" d="m 36,42 h -1 v -5 h -2 v -1 h 5 v 1 h -2 z"/>
 <path style="fill:#3f3f3f" d="M 42.883,42 42.430522,41 H 39.569778 L 39.117,42 H 38 l 2.191304,-5.999999 h 1.608697 L 44,42 Z M 42.117479,40 41.000012,36.928871 39.900222,40 Z"/>
</svg>
