<svg xmlns="http://www.w3.org/2000/svg" width="48" height="48" version="1.1">
 <path style="opacity:.2" d="m18.898 26.254c5.6955 3.2884 6.271 5.8093 5.1018 7.8344s-3.6402 2.7873-9.3357-0.50108c-5.6952-3.288-12.136-9.939-12.664-12.2 2.2217-0.67277 11.203 1.5789 16.898 4.8673z"/>
 <path style="fill:#fec8a4" d="m18.898 25.254c5.6955 3.2884 6.271 5.8093 5.1018 7.8344s-3.6402 2.7873-9.3357-0.50108c-5.6952-3.288-12.136-9.94-12.664-12.2 2.2217-0.673 11.203 1.579 16.898 4.867z"/>
 <path style="opacity:.2" d="m23.499 24.753c3.2883 5.6956 2.5262 8.1666 0.50108 9.3358s-4.5462 0.5937-7.8344-5.1019c-3.2883-5.6954-5.5402-14.676-4.8673-16.898 2.2605 0.52818 8.9124 6.9688 12.201 12.664z"/>
 <path style="fill:#fba66f" d="m23.499 23.753c3.2883 5.6956 2.5262 8.1666 0.50108 9.3358s-4.5462 0.5937-7.8344-5.1019c-3.2883-5.6954-5.5402-14.676-4.8673-16.898 2.2605 0.52818 8.9124 6.9688 12.201 12.664z"/>
 <path style="opacity:.2" d="m33.336 33.588c-5.6955 3.2883-8.1666 2.5262-9.3357 0.50108s-0.59371-4.5462 5.1018-7.8344c5.6955-3.2883 14.676-5.5402 16.898-4.8673-0.5282 2.2605-6.9688 8.9124-12.664 12.201z"/>
 <path style="opacity:.2" d="m28.234 25.753c0 6.5766-1.8956 8.3355-4.2339 8.3355s-4.2339-1.7589-4.2339-8.3355 2.5403-15.48 4.2339-17.068c1.6936 1.5877 4.2339 10.491 4.2339 17.068z"/>
 <path style="fill:#f8863b" d="m28.234 24.753c0 6.5766-1.8956 8.3355-4.2339 8.3355s-4.2339-1.7589-4.2339-8.3355 2.5403-15.48 4.2339-17.068c1.6936 1.5877 4.2339 10.491 4.2339 17.068z"/>
 <path style="opacity:.2" d="m31.834 28.987c-3.2883 5.6956-5.8094 6.271-7.8344 5.1019-2.025-1.1692-2.7872-3.6402 0.50108-9.3358 3.2883-5.6954 9.9401-12.136 12.201-12.664 0.67281 2.2217-1.579 11.203-4.8673 16.898z"/>
 <path style="fill:#f76d12" d="m31.834 27.987c-3.2883 5.6956-5.8094 6.271-7.8344 5.1019-2.025-1.1692-2.7872-3.6402 0.50108-9.3358 3.2883-5.6954 9.9401-12.136 12.201-12.664 0.67281 2.2217-1.579 11.203-4.8673 16.898z"/>
 <path style="fill:#d75908" d="m33.336 32.587c-5.6955 3.2883-8.1666 2.5262-9.3357 0.50108s-0.59371-4.5462 5.1018-7.8344c5.6955-3.2883 14.676-5.5402 16.898-4.8673-0.5282 2.2605-6.9688 8.9124-12.664 12.201z"/>
 <path style="opacity:.2;stroke-linejoin:bevel;stroke:#000000;stroke-linecap:round;stroke-width:2;fill:none" d="m25 38.9999c-2 0-2.012843-2.979227-2-4"/>
 <path style="stroke-linejoin:bevel;stroke:#3aa03d;stroke-linecap:round;stroke-width:2;fill:none" d="m25 38c-2 0-2.012843-2.979227-2-4"/>
</svg>
