<svg xmlns="http://www.w3.org/2000/svg" width="48" height="48" version="1.1">
 <rect style="opacity:0.2" width="40" height="40" x="-44" y="5" rx="20" ry="20" transform="scale(-1,1)"/>
 <g>
  <rect style="fill:#2f4760" width="40" height="40" x="-44" y="4" rx="20" ry="20" transform="scale(-1,1)"/>
 </g>
 <path style="opacity:0.2" d="m 20.686242,39.67379 c -0.722257,-0.18707 -2.094654,-0.572096 -2.682524,-0.85562 -1.194016,-0.575858 -3.00388,-2.03807 -3.00388,-2.426873 0.759042,-1.314551 1.869532,-2.691291 3.00194,-3.391299 -0.840602,-0.542173 -1.120617,-0.900125 -0.949243,-1.871744 0,0 0.08785,-0.350892 -0.520931,-0.820712 -2.499916,-2.508586 -6.195611,-5.426204 -7.529785,-8.40414 0,-0.768159 0.436722,-0.934983 1.587917,-0.903404 0.559208,0.01534 2.423215,-0.02007 4.142288,0 3.106405,0.03627 4.262163,0 4.262163,0 0,0 3.246699,-0.06057 4.236468,0.721994 2.503295,1.979245 3.629173,1.857556 5.724857,2.555825 1.952753,0.650645 2.046266,-0.277819 2.046266,4.365416 0.423728,2.628642 0.08965,4.963887 1.881268,7.299646 0.217937,0.287109 0.16572,0.420114 -0.408309,1.040023 -1.135441,1.226194 -3.528269,2.416889 -5.71199,2.842341 -1.478221,0.288 -4.688723,0.207979 -6.076466,-0.151453 z"/>
 <path style="fill:#d2943b" d="m 20.686242,38.673792 c -0.722257,-0.18707 -2.094654,-0.572096 -2.682524,-0.85562 -1.194016,-0.575858 -3.00388,-2.03807 -3.00388,-2.426873 C 15.75888,34.076748 16.86937,32.700008 18.001778,32 c -0.840602,-0.542173 -1.120617,-0.900125 -0.949243,-1.871744 0,0 0.08785,-0.350892 -0.520931,-0.820712 -2.499916,-2.508586 -6.195611,-5.426204 -7.529785,-8.40414 0,-0.768159 0.436722,-0.934983 1.587917,-0.903404 0.559208,0.01534 2.423215,-0.02007 4.142288,0 3.106405,0.03627 4.262163,0 4.262163,0 0,0 3.246699,-0.06057 4.236468,0.721994 2.503295,1.979245 3.629173,1.857556 5.724857,2.555825 1.952753,0.650645 2.046266,-0.277819 2.046266,4.365416 0.423728,2.628642 0.08965,4.963887 1.881268,7.299646 0.217937,0.287109 0.16572,0.420114 -0.408309,1.040023 -1.135441,1.226194 -3.528269,2.416889 -5.71199,2.842341 -1.478221,0.288 -4.688723,0.207979 -6.076466,-0.151453 z"/>
 <path style="fill:#ffffff" d="m 21.773262,30.745723 c 0.853619,-0.286118 1.952335,-1.063337 2.802258,-1.982282 0.475983,-0.514638 0.523339,-0.6369 0.28984,-0.748289 -0.173852,-0.08293 -0.701958,0.178273 -1.400448,0.69267 -1.259809,0.927782 -2.451795,1.483584 -3.247499,1.514253 -0.294067,0.01133 -0.721755,0.08939 -0.950419,0.173471 -0.393386,0.14464 -0.379967,0.165712 0.249452,0.391709 0.819691,0.294316 1.280123,0.285842 2.256816,-0.04153 z"/>
 <path style="opacity:0.2" d="m 26.501778,14.999196 c 3.589851,0 6.5,2.910149 6.5,6.5 0,1.544572 -0.541587,2.960918 -1.441406,4.076172 -0.19828,0.508108 -0.353244,0.928805 -0.347656,1.041016 0.01906,0.382812 -0.266575,0.694375 -2.69336,-0.173829 -2.559558,-0.915703 -3.685307,-1.575019 -6.376953,-3.736328 -1.006979,-0.808573 -2.237595,-1.572444 -3.363281,-2.08789 -0.976121,-0.446961 -1.777344,-0.523236 -1.777344,-0.619141 0,-1 1.286937,-0.907313 2,-1 h 1.517578 c 0.981584,-2.344477 3.281703,-4 5.982422,-4 z"/>
 <path style="fill:#ffd548" d="m 26.501778,14 c 3.589851,0 6.5,2.910149 6.5,6.5 0,1.544572 -0.541587,2.960918 -1.441406,4.076172 -0.19828,0.508108 -0.353244,0.928805 -0.347656,1.041016 C 31.231778,26 30.946141,26.311563 28.519356,25.443359 25.959798,24.527656 24.834049,23.86834 22.142403,21.707031 21.135424,20.898458 19.904808,20.134587 18.779122,19.619141 17.803001,19.17218 17.001778,19.095905 17.001778,19 c 0,-1 1.286937,-0.907313 2,-1 h 1.517578 c 0.981584,-2.344477 3.281703,-4 5.982422,-4 z"/>
 <path style="opacity:0.2" d="m 21.773262,31.745723 c 0.853619,-0.286118 1.952335,-1.063337 2.802258,-1.982282 0.475983,-0.514638 0.523339,-0.6369 0.28984,-0.748289 -0.173852,-0.08293 -0.701958,0.178273 -1.400448,0.69267 -1.259809,0.927782 -2.451795,1.483584 -3.247499,1.514253 -0.294067,0.01133 -0.721755,0.08939 -0.950419,0.173471 -0.393386,0.14464 -0.379967,0.165712 0.249452,0.391709 0.819691,0.294316 1.280123,0.285842 2.256816,-0.04153 z"/>
 <circle style="opacity:0.2" cx="-9.002" cy="21" r="2" transform="scale(-1,1)"/>
 <circle style="fill:#efc286" cx="-9.002" cy="20" r="2" transform="scale(-1,1)"/>
 <path style="opacity:0.3;fill:#ffffff" d="M 13.119141,7.2148438 C 10.434792,8.9542897 8.2025628,11.318198 6.6171875,14.107422 l 15.3125005,4.833984 1.044921,-0.787109 0.283203,-1.720703 0.07617,-1.220703 z"/>
 <ellipse id="ellipse836" style="opacity:0.2" cx="26.694" cy="10.071" rx="1.458" ry="2.031" transform="matrix(0.94990922,0.31252595,-0.28367784,0.95891964,0,0)"/>
 <ellipse style="fill:#ffffff" cx="26.41" cy="9.121" rx="1.458" ry="2.031" transform="matrix(0.94990922,0.31252595,-0.28367784,0.95891964,0,0)"/>
 <g style="fill:#ffffff">
  <path style="fill:#ffffff;opacity:0.1" d="M 24 4 C 12.92 4 4 12.92 4 24 C 4 24.167874 4.007647 24.333141 4.0117188 24.5 C 4.2763904 13.653863 13.087874 5 24 5 C 34.912126 5 43.72361 13.653863 43.988281 24.5 C 43.992353 24.333141 44 24.167874 44 24 C 44 12.92 35.08 4 24 4 z"/>
 </g>
</svg>
