<svg width="48" height="48" version="1.1" xmlns="http://www.w3.org/2000/svg">
 <rect x="4" y="5" width="40" height="40" rx="9.9421968" style="opacity:.2"/>
 <rect x="4" y="4" width="40" height="40" rx="9.9421968" style="fill:#2d2d80"/>
 <path d="M 13.941411,4 C 8.433431,4 4,8.433429 4,13.941406 v 1 C 4,9.433429 8.433431,5 13.941411,5 H 34.05859 C 39.56657,5 44,9.433429 44,14.941406 v -1 C 44,8.433429 39.56657,4 34.05859,4 Z" style="fill:#ffffff;opacity:.1"/>
 <path d="m24.472543 11.391047c-5.022613 0-9.095703 3.867181-9.095703 8.638672 0 0.871908 0.135793 1.714332 0.388671 2.507812h6.322266c-1.120162-1.052208-1.820313-2.546951-1.820313-4.205078 1e-6 -3.185688 2.583844-5.767578 5.769532-5.767578 1.310798 0 2.519495 0.437157 3.488281 1.173828-0.0222-4.56e-4 -0.04617-2e-3 -0.06836-2e-3 -1.620116 0-2.933594 1.313548-2.933594 2.933594 0 1.620023 1.313478 2.933594 2.933594 2.933594 1.619884 0 2.933593-1.313571 2.933593-2.933594 0-0.764277-0.29264-1.460387-0.771484-1.982422-1.665202-2.008231-4.246669-3.296875-7.146484-3.296875zm-1.175782 11.146484-5.279297 4.69336h6.453126l5.279296-4.69336zm2.335938 4.69336c0.919446 1.058358 1.478516 2.45181 1.478515 3.978515 0 3.310983-2.627118 5.994141-5.867187 5.994141-1.305943 0-2.511553-0.434534-3.486328-1.171875 1.60474-0.01781 2.90039-1.324576 2.900391-2.933594 0-1.619884-1.313548-2.933593-2.933594-2.933593-1.620023 0-2.933594 1.313709-2.933594 2.933593 0 0.748903 0.280429 1.430838 0.742188 1.949219 1.814357 2.036532 4.524317 3.330078 7.552734 3.330078 5.462658 0 9.892578-4.206887 9.892578-9.396484 0-0.59815-0.05928-1.182972-0.171875-1.75z" style="opacity:.2"/>
 <path d="m15.766566 21.53778c-0.252878-0.79348-0.388832-1.635214-0.388832-2.507122 0-4.771491 4.07163-8.639537 9.094243-8.639537 2.899815 0 5.482705 1.289387 7.147907 3.297618 0.478844 0.522035 0.771099 1.218035 0.771099 1.982312 0 1.620023-1.313295 2.933318-2.933179 2.933318-1.620116 0-2.933411-1.313295-2.933411-2.933318 0-1.620046 1.313295-2.93334 2.933411-2.93334 0.02219 0 0.04462 2.31e-4 0.06682 6.87e-4 -0.968786-0.736671-2.177572-1.173966-3.48837-1.173966-3.185688 0-5.768208 2.582521-5.768208 5.768209 0 1.658127 0.69963 3.152855 1.819792 4.205063z" style="fill:#0adbe6"/>
 <path d="m32.977803 27.981271c0-0.59815-0.05873-1.183122-0.171329-1.75015h-7.173087c0.919446 1.058358 1.477827 2.451653 1.477827 3.978358 0 3.310983-2.62659 5.994915-5.866659 5.994915-1.305943 0-2.512208-0.436069-3.486983-1.17341 1.60474-0.01781 2.900162-1.324163 2.900162-2.933181 0-1.619884-1.313295-2.933179-2.933341-2.933179-1.620023 0-2.933318 1.313295-2.933318 2.933179 0 0.748903 0.280578 1.43214 0.742336 1.950521 1.814358 2.036532 4.524878 3.329479 7.553295 3.329479 5.462658 0 9.891097-4.206935 9.891097-9.396532z" style="fill:#0adbe6"/>
 <path d="m29.750982 21.537711h-6.453318l-5.28 4.69334h6.453342z" style="fill:#0adbe6"/>
 <path d="m24.473446 10.391227c-5.022613 0-9.095703 3.867181-9.095703 8.638672 0 0.167961 0.0057 0.334366 0.01562 0.5 0.27274-4.538731 4.23414-8.138672 9.080079-8.138672 0.637544 0 1.25896 0.06311 1.859375 0.181641 1.196632 0.06041 2.297859 0.485071 3.193359 1.166015-0.0222-4.56e-4 -0.04617-2e-3 -0.06836-2e-3 -0.03545 0-0.07033 7.06e-4 -0.105469 2e-3 0.866863 0.524628 1.633447 1.184458 2.267578 1.949219 0.372017 0.405572 0.631189 0.916376 0.728516 1.482422 0.02795-0.162598 0.04297-0.329432 0.04297-0.5 0-0.764277-0.29264-1.460387-0.771484-1.982422-1.665202-2.008231-4.246669-3.296875-7.146484-3.296875zm3.767578 2.609375c-1.012355 0.462558-1.716797 1.484285-1.716797 2.669922 0 0.170536 0.01503 0.33743 0.04297 0.5 0.237441-1.381786 1.441055-2.433594 2.890625-2.433594 0.02219 0 0.04616 0.0015 0.06836 2e-3 -0.39239-0.298376-0.823207-0.547322-1.285156-0.738281zm-7.951172 4.832031c-0.01417 0.164872-0.02148 0.331456-0.02149 0.5 0 1.185781 0.358977 2.288505 0.972657 3.205078h0.847656c-1.006311-0.945263-1.67357-2.247906-1.798828-3.705078zm3.007812 3.705078-5.279297 4.69336h1.125l4.154297-3.69336h5.328125l1.125-1zm2.335938 4.69336c0.266666 0.306954 0.503887 0.641596 0.705078 1h6.46875c0.08105 0.408181 0.134631 0.826996 0.158203 1.251953 0.0092-0.16591 0.01367-0.333872 0.01367-0.501953 0-0.59815-0.05928-1.182972-0.171875-1.75zm-7.908203 2.933594c-1.620023 0-2.933594 1.313709-2.933594 2.933593 0 0.170618 0.01503 0.337476 0.04297 0.5 0.237457-1.381696 1.441139-2.433593 2.890625-2.433593 1.449503 0 2.653168 1.051901 2.890625 2.433593 0.02794-0.16258 0.04297-0.329453 0.04297-0.5 0-1.619884-1.313548-2.933593-2.933594-2.933593zm9.367187 1.544921c-0.248833 3.076783-2.772477 5.494141-5.847656 5.494141-0.798796 0-1.56005-0.162031-2.253906-0.457031-0.314029 0.150437-0.659711 0.245564-1.023438 0.27539 0.974657 0.561264 2.059817 0.967458 3.216797 1.181641 0.02003 2.05e-4 0.04047 0 0.06055 0 3.240069 0 5.867187-2.683158 5.867187-5.994141 1e-6 -0.168429-0.0062-0.335085-0.01953-0.5z" style="fill:#ffffff;opacity:.2"/>
</svg>
