<svg xmlns="http://www.w3.org/2000/svg" width="48" height="48" version="1.1">
 <rect style="opacity:0.2" width="40" height="40" x="4" y="5" rx="2" ry="2"/>
 <rect style="fill:#6b9fff" width="32" height="40" x="12" y="4" rx="2" ry="2"/>
 <rect style="opacity:0.2" width="16" height="2" x="24" y="27"/>
 <path style="fill:#5e8ad8" d="M 6,4 C 4.892,4 4,4.892 4,6 V 42 C 4,43.108 4.892,44 6,44 H 14 V 4 Z"/>
 <rect style="opacity:0.2" width="4" height="4" x="7" y="9" rx=".5" ry=".5"/>
 <rect style="fill:#6b9fff" width="4" height="4" x="7" y="8" rx=".5" ry=".5"/>
 <rect style="opacity:0.2" width="4" height="4" x="7" y="15" rx=".5" ry=".5"/>
 <rect style="fill:#6b9fff" width="4" height="4" x="7" y="14" rx=".5" ry=".5"/>
 <rect style="opacity:0.2" width="4" height="4" x="7" y="21" rx=".5" ry=".5"/>
 <rect style="fill:#6b9fff" width="4" height="4" x="7" y="20" rx=".5" ry=".5"/>
 <rect style="fill:#ffffff" width="16" height="2" x="24" y="26"/>
 <rect style="opacity:0.2" width="10" height="10" x="30" y="13"/>
 <rect style="opacity:0.2" width="10" height="10" x="24" y="9"/>
 <rect style="fill:#ffffff" width="10" height="10" x="30" y="12"/>
 <rect style="fill:#0f56d9" width="10" height="10" x="24" y="8"/>
 <path style="fill:#ffffff;opacity:0.2" d="M 6 4 C 4.892 4 4 4.892 4 6 L 4 7 C 4 5.892 4.892 5 6 5 L 42 5 C 43.108 5 44 5.892 44 7 L 44 6 C 44 4.892 43.108 4 42 4 L 6 4 z"/>
</svg>
