<svg xmlns="http://www.w3.org/2000/svg" width="48" height="48" version="1">
 <path fill="#4f4f4f" d="m40 42v-36c0-1.108-0.892-2-2-2h-28c-1.108 0-2 0.892-2 2v36c0 1.108 0.892 2 2 2h28c1.108 0 2-0.892 2-2z"/>
 <path style="opacity:0.2" d="m 22,7 v 8 h 4 V 7 Z m 0,14 v 8 h 4 v -8 z m 0,14 v 8 h 4 v -8 z"/>
 <path style="fill:#ffffff" d="M 22 6 L 22 14 L 26 14 L 26 6 L 22 6 z M 22 20 L 22 28 L 26 28 L 26 20 L 22 20 z M 22 34 L 22 42 L 26 42 L 26 34 L 22 34 z"/>
 <path fill="#fff" opacity=".1" d="m10 4c-1.108 0-2 0.892-2 2v1c0-1.108 0.892-2 2-2h28c1.108 0 2 0.892 2 2v-1c0-1.108-0.892-2-2-2z"/>
 <path opacity=".2" d="m8 42v1c0 1.108 0.892 2 2 2h28c1.108 0 2-0.892 2-2v-1c0 1.108-0.892 2-2 2h-28c-1.108 0-2-0.892-2-2z"/>
 <circle opacity=".2" cx="36" cy="37" r="11"/>
 <circle style="fill:#3f8ce6" cx="36" cy="36" r="11"/>
 <path style="fill:#ffffff" d="M 35 27 L 35 29.080078 A 7 7 0 0 0 29.078125 35 L 27 35 L 27 37 L 29.080078 37 A 7 7 0 0 0 35 42.921875 L 35 45 L 37 45 L 37 42.919922 A 7 7 0 0 0 42.921875 37 L 45 37 L 45 35 L 42.919922 35 A 7 7 0 0 0 37 29.078125 L 37 27 L 35 27 z M 36 32 A 4 4 0 0 1 40 36 A 4 4 0 0 1 36 40 A 4 4 0 0 1 32 36 A 4 4 0 0 1 36 32 z"/>
</svg>
