<svg xmlns="http://www.w3.org/2000/svg" width="48" height="48" version="1">
 <rect style="opacity:0.2" width="40" height="40" x="4" y="5" rx="2" ry="2"/>
 <rect style="fill:#2a6130" width="40" height="40" x="4" y="4" rx="2" ry="2"/>
 <path style="opacity:0.1" d="m 23,5 v 5 h -2 v 8 h 2 v 2 h -2 -2 v -2 h -3 v -1 -2 h -5 v 3 h 2 v 2 h 3 v 3 h 3 v 2 h -3 v 3 H 6 v 2 h 5 v 3 h 2 v 5 h 3 v -5 h 3 v -3 h 2 v 3 h 3 v 2 h -3 c 0,0 3.42e-4,3 0.05859,3 H 21 v 5 l 0.05859,2 H 23.367188 24 26 29 V 35 h 2 v -5 h 3 v 3 h 5 v 2 h 2 v -5 h -2 v -2 h -5 v -3 h -3 v 3 h -2 -3 v -3 h 3 v -2 h 2 v -3 h 3 v 3 h 2 v -3 h 3 v -3 h -3 v -2 h 3 v -2 h -3 v -3 h -2 v 5 H 31 26 V 10 5 Z"/>
 <path style="fill:#ffffff;opacity:0.1" d="M 6 4 C 4.892 4 4 4.892 4 6 L 4 7 C 4 5.892 4.892 5 6 5 L 42 5 C 43.108 5 44 5.892 44 7 L 44 6 C 44 4.892 43.108 4 42 4 L 6 4 z"/>
 <path style="fill:#b1772f" d="m 24,42 h -3 v -5 h 3 v -5 h -3 v -5 h -2 v 2 H 6 v -2 h 10 v -3 h 5 v -2 h -2 v -3 h -3 v -2 h -5 v -3 h 5 v 3 h 3 v 2 h 2 v 3 h 2 V 17 H 21 V 9 h 2 V 4 h 3 v 5 h -3 v 5 h 3 v 2 h 5 v -2 h 3 V 9 h 2 v 7 h 3 v 3 h -3 v -3 h -5 v 3 h -5 v 3 h -3 v 5 h 3 V 44 H 23.366413 Z M 13,32 h 3 v 5 H 13 Z M 39,29 H 29 v -2 h 10 v 2 h 2 v 5 h -2 z"/>
 <path style="fill:#6b3f0d" d="m 21,42 h 3 v 2 h -2.941748 z m 5,-6.683206 V 27 h -3 v -5 h -2 v 2 h -2 v -2 h -3 v -3 h -3 v -3 h 3 v 3 h 3 v 3 h 2 v -3 h 2 v 3 h 3 v -3 h 5 V 16 H 26 V 14 H 23 V 9 h 3 v 5 h 5 v 2 h 5 v 6 h -2 v -3 h -3 v 3 h -2 v 2 h -3 v 3 h 3 v 2 h 2 v 5 H 29 V 44 H 26 Z M 21,34 h 3 v 3 H 21.058252 C 21,37 21,34 21,34 Z M 11,29 h 8 v -2 h 2 v 2 h -2 v 3 h -8 z m 23,0 h 5 v 3 h -5 z m -3,-5 h 3 v 3 h -3 z m 5,-12 h 3 v 2 h -3 z"/>
</svg>
