<svg xmlns="http://www.w3.org/2000/svg" width="48" height="48" version="1">
 <rect style="opacity:0.2" width="40" height="40" x="4" y="5" rx="12" ry="12"/>
 <rect style="fill:#f3ad1d" width="40" height="40" x="4" y="4" rx="12" ry="12"/>
 <path style="fill:#ffffff;opacity:0.2" d="M 16 4 C 9.352 4 4 9.352 4 16 L 4 17 C 4 10.352 9.352 5 16 5 L 32 5 C 38.648 5 44 10.352 44 17 L 44 16 C 44 9.352 38.648 4 32 4 L 16 4 z"/>
 <path style="opacity:0.2" d="m 23.067539,12.006529 c -1.169871,0.05848 -3.432808,0.577042 -4.610383,2.417969 0,0 -1.088462,-0.340492 0.179688,-2.263672 0,0 -3.485673,-0.808419 -5.236453,1.847656 H 10 v 16.833985 c 0,0 4.603784,9.81106 19.558594,7.914062 0,0 6.768352,-0.9853 5.882812,-7.101562 0,0 2.112243,-2.321862 2.414063,-5.279297 0.27894,-2.73133 0.247464,-4.534378 -0.947266,-8.074219 -0.0834,-0.246768 -0.437577,-0.227191 -0.492187,0.02734 -0.41878,1.952689 -1.933301,6.413571 -5.462891,8.410156 0,0 1.85769,-3.33189 0.84375,-7.345703 -0.0325,-0.128727 -0.218885,-0.116056 -0.234375,0.01563 -0.1487,1.274005 -0.677299,4.058906 -2.480469,4.613281 0,0 -0.768303,-4.066941 -5.659023,-6.722656 0,0 0.421949,-1.268679 0.542969,-2.173828 0.12066,-0.905528 -0.301857,-1.3273 -0.06055,-1.75 0.24168,-0.422709 1.207031,-1.025391 1.207031,-1.025391 0,0 -0.875051,-0.402228 -2.044922,-0.34375 z m 2.334805,12.998047 c 0.905136,-0.05727 1.650637,0.688494 1.59375,1.59375 -0.04753,0.746094 -0.652001,1.351386 -1.398438,1.398438 -0.905124,0.05727 -1.651079,-0.688495 -1.59375,-1.59375 0.04707,-0.746525 0.652013,-1.351387 1.398438,-1.398438 z m 6.736328,8.001953 c 0.204922,0.01568 0.4305,0.06886 0.615234,0.210938 0.06139,0.04731 0.274077,0.21189 0.242188,0.40625 -0.03031,0.185164 -0.263938,0.289261 -0.351563,0.328125 -0.268918,0.119447 -0.375666,0.02084 -0.726562,0.115234 -0.08558,0.02298 -0.346148,0.09578 -0.572266,0.289063 -0.184126,0.157602 -0.139417,0.217879 -0.308594,0.365234 -0.166365,0.145237 -0.520733,0.355655 -0.771484,0.25 -0.239447,-0.100714 -0.259634,-0.43569 -0.263672,-0.5 -0.02823,-0.457972 0.362194,-0.800782 0.527344,-0.945312 0.169583,-0.148062 0.553634,-0.42862 1.125,-0.5 0.0967,-0.01221 0.279453,-0.03521 0.484375,-0.01953 z"/>
 <path style="fill:#ffffff" d="m 23.067539,11.005859 c -1.169871,0.05848 -3.432808,0.577042 -4.610383,2.417969 0,0 -1.088462,-0.340492 0.179688,-2.263672 0,0 -3.485673,-0.808419 -5.236453,1.847656 H 10 v 16.833985 c 0,0 4.603784,9.81106 19.558594,7.914062 0,0 6.768352,-0.9853 5.882812,-7.101562 0,0 2.112243,-2.321862 2.414063,-5.279297 0.27894,-2.73133 0.247464,-4.534378 -0.947266,-8.074219 -0.0834,-0.246768 -0.437577,-0.227191 -0.492187,0.02734 -0.41878,1.952689 -1.933301,6.413571 -5.462891,8.410156 0,0 1.85769,-3.33189 0.84375,-7.345703 -0.0325,-0.128727 -0.218885,-0.116056 -0.234375,0.01563 -0.1487,1.274005 -0.677299,4.058906 -2.480469,4.613281 0,0 -0.768303,-4.066941 -5.659023,-6.722656 0,0 0.421949,-1.268679 0.542969,-2.173828 0.12066,-0.905528 -0.301857,-1.3273 -0.06055,-1.75 0.24168,-0.422709 1.207031,-1.025391 1.207031,-1.025391 0,0 -0.875051,-0.402228 -2.044922,-0.34375 z m 2.334805,12.998047 c 0.905136,-0.05727 1.650637,0.688494 1.59375,1.59375 -0.04753,0.746094 -0.652001,1.351386 -1.398438,1.398438 -0.905124,0.05727 -1.651079,-0.688495 -1.59375,-1.59375 0.04707,-0.746525 0.652013,-1.351387 1.398438,-1.398438 z m 6.736328,8.001953 c 0.204922,0.01568 0.4305,0.06886 0.615234,0.210938 0.06139,0.04731 0.274077,0.21189 0.242188,0.40625 -0.03031,0.185164 -0.263938,0.289261 -0.351563,0.328125 -0.268918,0.119447 -0.375666,0.02084 -0.726562,0.115234 -0.08558,0.02298 -0.346148,0.09578 -0.572266,0.289063 -0.184126,0.157602 -0.139417,0.217879 -0.308594,0.365234 -0.166365,0.145237 -0.520733,0.355655 -0.771484,0.25 -0.239447,-0.100714 -0.259634,-0.43569 -0.263672,-0.5 -0.02823,-0.457972 0.362194,-0.800782 0.527344,-0.945312 0.169583,-0.148062 0.553634,-0.42862 1.125,-0.5 0.0967,-0.01221 0.279453,-0.03521 0.484375,-0.01953 z"/>
</svg>
