<svg width="48" height="48" version="1.1" xmlns="http://www.w3.org/2000/svg">
 <rect x="5" y="9" width="30" height="8" ry="4" style="opacity:.2"/>
 <rect x="5" y="8" width="30" height="8" ry="4" style="fill:#4f4f4f"/>
 <path d="m9 8c-2.216 0-4 1.784-4 4 0 0.171262 0.0281411 0.334523 0.0488281 0.5 0.2469879-1.975674 1.9064338-3.5 3.9511719-3.5h22c2.044738 0 3.704184 1.524326 3.951172 3.5 0.020687-0.165477 0.048828-0.328738 0.048828-0.5 0-2.216-1.784-4-4-4h-22z" style="fill:#ffffff;opacity:.1"/>
 <rect x="16" y="10" width="4" height="32" ry="2" style="fill:#999999"/>
 <path d="m14 5c-0.554 0-1 0.446-1 1v14c0 0.554 0.446 1 1 1h8c0.554 0 1-0.446 1-1v-14c0-0.554-0.446-1-1-1h-8zm15 0c-1.662 0-3 1.338-3 3v5 5c0 1.662 1.338 3 3 3 2.453433-0.07532 4.615288 0 7 0 4.432 0 8-3.568 8-8s-3.568-8-8-8c-2.438181 0.070543-4.550704 0-7 0zm-21 36c-1.108 0-2 0.892-2 2s0.892 2 2 2h20c1.108 0 2-0.892 2-2s-0.892-2-2-2h-20z" style="opacity:.2"/>
 <rect x="13" y="4" width="10" height="16" ry="1" style="fill:#20d956"/>
 <rect x="6" y="40" width="24" height="4" ry="2" style="fill:#20d956"/>
 <path d="m29 4c-1.662 0-3 1.338-3 3v10c0 1.662 1.338 3 3 3 2.453433-0.07532 4.615288 0 7 0 4.432 0 8-3.568 8-8s-3.568-8-8-8c-2.438181 0.070543-4.550704 0-7 0z" style="fill:#20d956"/>
 <path d="m14 4c-0.554 0-1 0.446-1 1v1c0-0.554 0.446-1 1-1h8c0.554 0 1 0.446 1 1v-1c0-0.554-0.446-1-1-1h-8zm15 0c-1.662 0-3 1.338-3 3v1c0-1.662 1.338-3 3-3 2.449296 0 4.561819 0.070543 7 0 4.263155 0 7.716883 3.3039428 7.974609 7.5 0.010208-0.166187 0.025391-0.331155 0.025391-0.5 0-4.432-3.568-8-8-8-2.438181 0.070543-4.550704 0-7 0zm-21 36c-1.108 0-2 0.892-2 2 0 0.173835 0.0290105 0.339409 0.0703125 0.5 0.2219513-0.862993 0.9955223-1.5 1.9296875-1.5h20c0.934165 0 1.707736 0.637007 1.929688 1.5 0.041301-0.160591 0.070312-0.326165 0.070312-0.5 0-1.108-0.892-2-2-2h-20z" style="fill:#ffffff;opacity:.2"/>
 <path d="m33.724609 4.0175781c-0.153948 7.58e-5 -0.315592 0.0044159-0.46875 0.0039063a1.5 1.5 0 0 0-1.255859 1.4785156 1.5 1.5 0 0 0 1.5 1.5 1.5 1.5 0 0 0 1.5-1.5 1.5 1.5 0 0 0-1.275391-1.4824219zm-5.59375 0.125c-0.955374 0.289188-1.699093 1.0329074-1.988281 1.9882813a1.5 1.5 0 0 0 1.357422 0.8691406 1.5 1.5 0 0 0 1.5-1.5 1.5 1.5 0 0 0-0.869141-1.3574219zm10.355469 0.2539063a1.5 1.5 0 0 0-0.486328 1.1035156 1.5 1.5 0 0 0 1.5 1.5 1.5 1.5 0 0 0 1.480469-1.2617188c-0.736758-0.5860132-1.577178-1.0439598-2.494141-1.3417968zm-7.986328 2.6035156a1.5 1.5 0 0 0-1.5 1.5 1.5 1.5 0 0 0 1.5 1.5 1.5 1.5 0 0 0 1.5-1.5 1.5 1.5 0 0 0-1.5-1.5zm6 0a1.5 1.5 0 0 0-1.5 1.5 1.5 1.5 0 0 0 1.5 1.5 1.5 1.5 0 0 0 1.5-1.5 1.5 1.5 0 0 0-1.5-1.5zm5.763672 0.0195312a1.5 1.5 0 0 0-1.263672 1.4804688 1.5 1.5 0 0 0 1.5 1.5 1.5 1.5 0 0 0 1.103516-0.4863281c-0.297714-0.9165833-0.754179-1.7575994-1.339844-2.4941407zm-14.763672 2.9804688a1.5 1.5 0 0 0-1.5 1.5 1.5 1.5 0 0 0 1.5 1.5 1.5 1.5 0 0 0 1.5-1.5 1.5 1.5 0 0 0-1.5-1.5zm6 0a1.5 1.5 0 0 0-1.5 1.5 1.5 1.5 0 0 0 1.5 1.5 1.5 1.5 0 0 0 1.5-1.5 1.5 1.5 0 0 0-1.5-1.5zm6 0a1.5 1.5 0 0 0-1.5 1.5 1.5 1.5 0 0 0 1.5 1.5 1.5 1.5 0 0 0 1.5-1.5 1.5 1.5 0 0 0-1.5-1.5zm-9 3a1.5 1.5 0 0 0-1.5 1.5 1.5 1.5 0 0 0 1.5 1.5 1.5 1.5 0 0 0 1.5-1.5 1.5 1.5 0 0 0-1.5-1.5zm6 0a1.5 1.5 0 0 0-1.5 1.5 1.5 1.5 0 0 0 1.5 1.5 1.5 1.5 0 0 0 1.5-1.5 1.5 1.5 0 0 0-1.5-1.5zm6 0a1.5 1.5 0 0 0-1.5 1.5 1.5 1.5 0 0 0 1.5 1.5 1.5 1.5 0 0 0 0.474609-0.078125c0.374899-0.667676 0.65664-1.393986 0.828125-2.164063a1.5 1.5 0 0 0-1.302734-0.757812zm-15 3a1.5 1.5 0 0 0-1.476562 1.234375c0.038285 0.49043 0.187199 0.946762 0.43164 1.341797a1.5 1.5 0 0 0 1.044922 0.423828 1.5 1.5 0 0 0 1.5-1.5 1.5 1.5 0 0 0-1.5-1.5zm6 0a1.5 1.5 0 0 0-1.5 1.5 1.5 1.5 0 0 0 1.5 1.5 1.5 1.5 0 0 0 1.5-1.5 1.5 1.5 0 0 0-1.5-1.5zm6 0a1.5 1.5 0 0 0-1.5 1.5 1.5 1.5 0 0 0 1.5 1.5 1.5 1.5 0 0 0 0.566406-0.113281c0.137426-0.08106 0.276257-0.159157 0.408203-0.248047a1.5 1.5 0 0 0 0.003907-0.001953 1.5 1.5 0 0 0 0.521484-1.136719 1.5 1.5 0 0 0-1.5-1.5z" style="opacity:.2"/>
</svg>
