<svg xmlns="http://www.w3.org/2000/svg" width="48" height="48" version="1.1" viewBox="0 0 48 48">
 <g style="display:none" transform="translate(0,-144)">
  <text style="line-height:0%;letter-spacing:0px;word-spacing:0px;fill:#e0e0e0" x="47.73" y="968.45" transform="translate(0,-860.3622)" xml:space="preserve">
   <tspan x="47.73" y="968.45" style="font-size:45px;line-height:1.25;font-family:Verdana;letter-spacing:0px;fill:#e0e0e0">nqq</tspan>
  </text>
 </g>
 <g transform="translate(0,-144)">
  <path d="m 9.0655947,149 c -0.5864218,0 -1.0584786,0.47096 -1.0584786,1.05602 l -0.00711,37.89951 c 0,0.57868 0.4668598,1.04447 1.0469106,1.04447 h 1.2431223 7.597552 16.541248 c 2.532425,0 4.571162,-2.14117 4.571162,-4.8007 V 153.80068 C 38.999999,151.14116 36.961262,149 34.428837,149 H 17.882695 10.290037 9.0656015 Z" style="opacity:0.2;stroke:#000000;stroke-width:0;stroke-linejoin:round"/>
  <path style="fill:#7a7a7a;stroke:#000000;stroke-width:0;stroke-linejoin:round" d="m 9.0655947,148 c -0.5864218,0 -1.0584786,0.47096 -1.0584786,1.05602 l -0.00711,37.89951 c 0,0.57868 0.4668598,1.04447 1.0469106,1.04447 h 1.2431223 7.597552 16.541248 c 2.532425,0 4.571162,-2.14117 4.571162,-4.8007 V 152.80068 C 38.999999,150.14116 36.961262,148 34.428837,148 H 17.882695 10.290037 9.0656015 Z"/>
  <rect width="31" height="1" x="8" y="176" ry="0" style="opacity:0.2;stroke:#000000;stroke-width:0;stroke-linejoin:round"/>
  <rect style="fill:#34c637;stroke:#000000;stroke-width:0;stroke-linejoin:round" width="31" height="16" x="8" y="160" ry="0"/>
  <rect width="31" height="1" x="8" y="160" ry="0" style="opacity:0.2;fill:#ffffff;stroke:#000000;stroke-width:0;stroke-linejoin:round"/>
  <path style="fill:#4f4f4f" d="M 33 4 L 33 44 L 34.429688 44 C 34.625526 44 34.810781 43.964312 35 43.939453 L 35 4.0605469 C 34.810781 4.0356878 34.625526 4 34.429688 4 L 33 4 z" transform="translate(0,144)"/>
  <path d="m 17.999997,172 h -1.006424 v -3.32404 q 0,-0.40243 -0.04818,-0.75261 -0.04818,-0.3554 -0.17666,-0.55401 -0.133833,-0.21952 -0.385438,-0.32405 -0.251607,-0.10975 -0.653105,-0.10975 -0.412205,0 -0.861884,0.19861 -0.449677,0.1986 -0.861883,0.50696 V 172 H 13 v -5.83798 h 1.006423 v 0.64808 q 0.471092,-0.38152 0.974303,-0.59582 Q 15.483937,166 16.013916,166 q 0.968949,0 1.477515,0.56968 0.508565,0.56969 0.508565,1.64113 z" style="opacity:0.2"/>
  <path style="fill:#ffffff" d="m 17.999997,171 h -1.006424 v -3.32404 q 0,-0.40243 -0.04818,-0.75261 -0.04818,-0.3554 -0.17666,-0.55401 -0.133833,-0.21952 -0.385438,-0.32405 -0.251607,-0.10975 -0.653105,-0.10975 -0.412205,0 -0.861884,0.19861 -0.449677,0.1986 -0.861883,0.50696 V 171 H 13 v -5.83798 h 1.006423 v 0.64808 q 0.471092,-0.38152 0.974303,-0.59582 Q 15.483937,165 16.013916,165 q 0.968949,0 1.477515,0.56968 0.508565,0.56969 0.508565,1.64113 z"/>
  <path d="m 25,174 h -0.956257 v -2.78288 c -0.295015,0.24969 -0.588335,0.43613 -0.879959,0.55932 -0.291625,0.11985 -0.606986,0.17978 -0.946083,0.17978 -0.674805,0 -1.213971,-0.25469 -1.617498,-0.76408 C 20.200068,170.67943 20,169.97361 20,169.0747 c 0,-0.47942 0.06951,-1.00201 0.208545,-1.36824 0.142421,-0.36955 0.328925,-0.67917 0.559512,-0.92887 0.223805,-0.24304 0.486606,-0.43115 0.788403,-0.56432 0.301797,-0.13317 0.62055,-0.19976 0.956257,-0.19976 0.305187,0 0.57477,0.0333 0.808747,0.0999 0.237369,0.0666 0.478128,0.16481 0.722279,0.29464 l 0.06104,-0.23971 h 0.895219 z m -0.956257,-3.57193 v -3.25596 c -0.264496,-0.11653 -0.498474,-0.19809 -0.701933,-0.2447 -0.203459,-0.0466 -0.423872,-0.0699 -0.661241,-0.0699 -0.552729,0 -0.973211,0.18478 -1.261444,0.55433 -0.288233,0.36623 -0.43235,0.97205 -0.43235,1.61794 0,0.65254 0.115293,1.15526 0.34588,1.50817 0.233978,0.34958 0.600204,0.52437 1.098678,0.52437 0.27806,0 0.55612,-0.0583 0.83418,-0.17479 0.278061,-0.11985 0.537471,-0.273 0.77823,-0.45944 z" style="opacity:0.2"/>
  <path style="fill:#ffffff" d="m 25,173 h -0.956257 v -2.78288 c -0.295015,0.24969 -0.588335,0.43613 -0.879959,0.55932 -0.291625,0.11985 -0.606986,0.17978 -0.946083,0.17978 -0.674805,0 -1.213971,-0.25469 -1.617498,-0.76408 C 20.200068,169.67943 20,168.97361 20,168.0747 c 0,-0.47942 0.06951,-1.00201 0.208545,-1.36824 0.142421,-0.36955 0.328925,-0.67917 0.559512,-0.92887 0.223805,-0.24304 0.486606,-0.43115 0.788403,-0.56432 0.301797,-0.13317 0.62055,-0.19976 0.956257,-0.19976 0.305187,0 0.57477,0.0333 0.808747,0.0999 0.237369,0.0666 0.478128,0.16481 0.722279,0.29464 l 0.06104,-0.23971 h 0.895219 z m -0.956257,-3.57193 v -3.25596 c -0.264496,-0.11653 -0.498474,-0.19809 -0.701933,-0.2447 -0.203459,-0.0466 -0.423872,-0.0699 -0.661241,-0.0699 -0.552729,0 -0.973211,0.18478 -1.261444,0.55433 -0.288233,0.36623 -0.43235,0.97205 -0.43235,1.61794 0,0.65254 0.115293,1.15526 0.34588,1.50817 0.233978,0.34958 0.600204,0.52437 1.098678,0.52437 0.27806,0 0.55612,-0.0583 0.83418,-0.17479 0.278061,-0.11985 0.537471,-0.273 0.77823,-0.45944 z"/>
  <path style="fill:#ffffff;stroke:#000000;stroke-width:0;stroke-linejoin:round;opacity:0.1" d="M 9.0664062 4 C 8.4799844 4 8.0078125 4.4715806 8.0078125 5.0566406 L 8.0078125 6.0566406 C 8.0078125 5.4715806 8.4799844 5 9.0664062 5 L 10.289062 5 L 17.882812 5 L 34.429688 5 C 36.962113 5 38.999998 7.1412613 39 9.8007812 L 39 8.8007812 C 38.999998 6.1412613 36.962113 4 34.429688 4 L 17.882812 4 L 10.289062 4 L 9.0664062 4 z" transform="translate(0,144)"/>
  <path style="opacity:0.2" d="M 31.956257,174 H 31 v -2.78288 c -0.295015,0.24969 -0.588335,0.43613 -0.879959,0.55932 -0.291625,0.11985 -0.606986,0.17978 -0.946083,0.17978 -0.674805,0 -1.213971,-0.25469 -1.617498,-0.76408 -0.400135,-0.51271 -0.600203,-1.21853 -0.600203,-2.11744 0,-0.47942 0.06951,-1.00201 0.208545,-1.36824 0.142421,-0.36955 0.328925,-0.67917 0.559512,-0.92887 0.223805,-0.24304 0.486606,-0.43115 0.788403,-0.56432 0.301797,-0.13317 0.62055,-0.19976 0.956257,-0.19976 0.305187,0 0.57477,0.0333 0.808747,0.0999 0.237369,0.0666 0.478128,0.16481 0.722279,0.29464 l 0.06104,-0.23971 h 0.895219 z M 31,170.42807 v -3.25596 c -0.264496,-0.11653 -0.498474,-0.19809 -0.701933,-0.2447 -0.203459,-0.0466 -0.423872,-0.0699 -0.661241,-0.0699 -0.552729,0 -0.973211,0.18478 -1.261444,0.55433 -0.288233,0.36623 -0.43235,0.97205 -0.43235,1.61794 0,0.65254 0.115293,1.15526 0.34588,1.50817 0.233978,0.34958 0.600204,0.52437 1.098678,0.52437 0.27806,0 0.55612,-0.0583 0.83418,-0.17479 0.278061,-0.11985 0.537471,-0.273 0.77823,-0.45944 z"/>
  <path d="M 31.956257,173 H 31 v -2.78288 c -0.295015,0.24969 -0.588335,0.43613 -0.879959,0.55932 -0.291625,0.11985 -0.606986,0.17978 -0.946083,0.17978 -0.674805,0 -1.213971,-0.25469 -1.617498,-0.76408 -0.400135,-0.51271 -0.600203,-1.21853 -0.600203,-2.11744 0,-0.47942 0.06951,-1.00201 0.208545,-1.36824 0.142421,-0.36955 0.328925,-0.67917 0.559512,-0.92887 0.223805,-0.24304 0.486606,-0.43115 0.788403,-0.56432 0.301797,-0.13317 0.62055,-0.19976 0.956257,-0.19976 0.305187,0 0.57477,0.0333 0.808747,0.0999 0.237369,0.0666 0.478128,0.16481 0.722279,0.29464 l 0.06104,-0.23971 h 0.895219 z M 31,169.42807 v -3.25596 c -0.264496,-0.11653 -0.498474,-0.19809 -0.701933,-0.2447 -0.203459,-0.0466 -0.423872,-0.0699 -0.661241,-0.0699 -0.552729,0 -0.973211,0.18478 -1.261444,0.55433 -0.288233,0.36623 -0.43235,0.97205 -0.43235,1.61794 0,0.65254 0.115293,1.15526 0.34588,1.50817 0.233978,0.34958 0.600204,0.52437 1.098678,0.52437 0.27806,0 0.55612,-0.0583 0.83418,-0.17479 0.278061,-0.11985 0.537471,-0.273 0.77823,-0.45944 z" style="fill:#ffffff"/>
 </g>
</svg>
