<svg xmlns="http://www.w3.org/2000/svg" width="48" height="48" version="1.1">
 <path style="opacity:0.2" d="m 16.760905,9.5783201 c 2.011387,-0.8312807 4.516137,-0.6341849 6.965424,-1.4492327 2.403044,-0.7996595 5.720553,2.3129096 7.325063,3.9214356 1.237899,1.240997 2.16495,3.722992 2.16495,3.722992 1.936831,5.333234 6.846998,10.176004 6.778296,15.840059 0.07222,1.69638 -0.585549,2.759793 -1.944639,3.491794 C 35.806406,36.297369 32.2097,36.931366 29.666951,38 L 25.097394,37.869992 9,22.113686 c 2.034696,-4.671491 3.884264,-9.521162 7.760905,-12.5353659 z"/>
 <path style="opacity:0.2" d="m 10.601562,19.999951 c -0.398064,0.01103 -0.7996116,0.153646 -1.3691401,0.423828 -2.1282731,0.824856 -4.7194195,1.137321 -5.640625,2.91211 -1.4170051,2.729992 0.075694,5.271301 0.7011719,7.394531 0.2654242,0.899201 0.4957886,1.652055 1.4863281,2.183593 l 4.1171875,3.242188 c 0.1510126,1.191696 0.2216346,1.618348 1.4511716,2.072266 l 7.669922,3.759765 c 4.287878,1.806242 7.492923,0.900068 9.511719,-0.433593 C 34.690961,39.060107 34.633315,37.323062 35,35.63667 c 0,0 -6.517761,3.099771 -7.361328,-0.25586 l -0.988281,-5.140625 c -0.44097,-1.620467 -2.523503,-2.436301 -4.039063,-3.529296 l -4.921875,-3.419922 -3.091797,-1.759766 -2.640625,-1.173828 c -0.562175,-0.249709 -0.957404,-0.368455 -1.355469,-0.357422 z"/>
 <path style="fill:#535be2" d="m 16.760905,8.5783201 c 2.011387,-0.8312807 4.516137,-0.6341849 6.965424,-1.4492327 2.403044,-0.7996595 5.720553,2.3129094 7.325063,3.9214356 1.237899,1.240997 2.16495,3.722992 2.16495,3.722992 1.936831,5.333234 6.846998,10.176004 6.778296,15.840059 0.07222,1.69638 -0.585549,2.759793 -1.944639,3.491794 C 35.806406,35.297369 32.2097,35.931366 29.666951,37 L 25.097394,36.869992 9,21.113686 c 2.034696,-4.671491 3.884264,-9.521162 7.760905,-12.5353659 z"/>
 <path style="opacity:0.1;fill:#ffffff" d="M 24.666016,7.0019531 C 24.34219,6.9902321 24.026943,7.0289488 23.726562,7.1289062 21.277275,7.943954 18.773106,7.7468443 16.761719,8.578125 12.885078,11.592329 11.034696,16.44179 9,21.113281 l 0.3046875,0.298828 c 1.9206505,-4.450107 3.7741825,-8.97046 7.4570315,-11.833984 2.011387,-0.8312807 4.515556,-0.634171 6.964843,-1.4492188 2.403045,-0.7996594 5.719709,2.3133488 7.324219,3.9218748 1.237899,1.240997 2.166016,3.722657 2.166016,3.722657 1.898202,5.226866 6.639465,9.984411 6.763672,15.503906 0.01771,-0.210586 0.02363,-0.43021 0.01367,-0.664063 0.0687,-5.664055 -4.840513,-10.506609 -6.777344,-15.839843 0,0 -0.928117,-2.48166 -2.166016,-3.722657 C 29.646835,9.6433208 26.932796,7.0840004 24.666016,7.0019531 Z"/>
 <path style="opacity:0.2" d="m 25.001645,22.796859 c -0.07592,-2.344328 2.490895,-4.309371 4.613781,-5.375569 1.120431,-0.562725 2.536104,-0.004 3.763286,-0.275919 0.932239,-0.206569 1.573315,-1.5633 2.674216,-1.016426 2.675321,1.328969 10.304986,9.020125 5.262515,14.824781 -3.810521,2.29242 -8.622455,3.552413 -13.419415,-1.165266 -0.689657,-0.678259 -0.729711,-2.1982 -1.300177,-3.53981 -0.480265,-1.129475 -1.547205,-2.000578 -1.594206,-3.451791 z"/>
 <path style="fill:#6178e2" d="m 25.001645,21.796859 c -0.07592,-2.344328 2.490895,-4.309371 4.613781,-5.375569 1.120431,-0.562725 2.536104,-0.004 3.763286,-0.275919 0.932239,-0.206569 1.573315,-1.5633 2.674216,-1.016426 2.675321,1.328969 10.304986,9.020125 5.262515,14.824781 -3.810521,2.29242 -8.622455,3.552413 -13.419415,-1.165266 -0.689657,-0.678259 -0.729711,-2.1982 -1.300177,-3.53981 -0.480265,-1.129475 -1.547205,-2.000578 -1.594206,-3.451791 z"/>
 <path style="opacity:0.1;fill:#ffffff" d="m 35.660156,15.007812 c -0.872969,-0.103851 -1.465541,0.955971 -2.28125,1.136719 -1.227182,0.271919 -2.643241,-0.285381 -3.763672,0.277344 -2.122886,1.066198 -4.689201,3.030672 -4.613281,5.375 0.0044,0.135043 0.02613,0.261047 0.04687,0.386719 0.335971,-2.071305 2.631848,-3.790106 4.566406,-4.761719 1.120431,-0.562725 2.53649,-0.0054 3.763672,-0.277344 0.932239,-0.206569 1.572927,-1.562499 2.673828,-1.015625 1.97422,0.980696 6.63107,5.426404 6.917969,10.021485 0.41452,-4.932976 -4.800558,-9.969658 -6.917969,-11.021485 -0.137612,-0.06836 -0.267868,-0.106258 -0.392578,-0.121094 z"/>
 <path style="opacity:0.2" d="m 31.012865,24.678273 c 0.346145,-2.631903 3.790966,-4.296191 6.414743,-6.063127 1.066562,-1.012339 1.723359,-0.620454 2.801664,0.06788 3.132244,2.011476 4.1557,4.659998 3.646283,7.771592 -0.139412,1.507238 -0.582758,1.489876 -2.039032,1.732213 L 36.949966,29 c -3.641312,-0.207997 -6.152527,-2.683757 -5.937101,-4.321732 z"/>
 <path style="fill:#80a4e9" d="m 31.012865,23.678273 c 0.346145,-2.631903 3.790966,-4.296191 6.414743,-6.063127 1.066562,-1.012339 1.723359,-0.620454 2.801664,0.06788 3.132244,2.011476 4.1557,4.659998 3.646283,7.771592 -0.139412,1.507238 -0.582758,1.489876 -2.039032,1.732213 L 36.949966,28 c -3.641312,-0.207997 -6.152527,-2.683757 -5.937101,-4.321732 z"/>
 <path style="opacity:0.2;fill:#ffffff" d="m 38.498047,17.009766 c -0.328551,0.04311 -0.670352,0.225841 -1.070313,0.605468 -2.623777,1.766936 -6.067917,3.430597 -6.414062,6.0625 -0.02908,0.221106 -0.0058,0.459127 0.06055,0.703125 0.55635,-2.460712 3.830602,-4.066614 6.353515,-5.765625 1.066562,-1.012339 1.722477,-0.619974 2.800782,0.06836 2.464625,1.582742 3.60827,3.564732 3.742187,5.851562 0.175942,-2.713696 -0.924636,-5.042177 -3.742187,-6.851562 -0.673941,-0.430209 -1.182884,-0.745673 -1.730469,-0.673828 z"/>
 <path style="opacity:0.2" d="m 38.614777,22.06247 c 1.130205,-0.666069 4.201627,-2.972028 5.237368,-1.671706 0.845057,1.060931 -2.208032,3.908184 -2.208032,3.908184 -2.473395,2.138969 -4.783426,-1.202732 -3.029336,-2.236478 z"/>
 <path style="fill:#c3d9f2" d="m 38.614777,21.06247 c 1.130205,-0.666069 4.201627,-2.972028 5.237368,-1.671706 0.845057,1.060931 -2.208032,3.908184 -2.208032,3.908184 -2.473395,2.138969 -4.783426,-1.202732 -3.029336,-2.236478 z"/>
 <path style="fill:#3f3f3f" d="M 9.1712897,15.430558 6.941,16.397173 l 4.121948,6.182744 1.06779,-0.5975 z"/>
 <path style="opacity:0.2" d="M 5.4107327,9.4718284 C 6.1918201,8.8984372 7.0153337,8.7237413 7.9572523,9.6617559 8.5730788,10.27503 7.6999806,12.863375 8.2284901,14.31661 c 0.3781652,1.039837 2.0562349,1.498816 1.7295992,2.688997 -0.472109,1.720248 -2.2267378,2.78304 -3.3347283,1.26618 C 4.693795,15.630178 2.4995796,12.925321 5.4107327,9.4718284 Z"/>
 <path style="fill:#4f4f4f" d="M 5.4107327,8.4718279 C 6.1918201,7.8984367 7.0153337,7.7237408 7.9572523,8.6617554 8.5730788,9.2750292 7.6999806,11.863375 8.2284901,13.31661 c 0.3781652,1.039837 2.0562349,1.498816 1.7295992,2.688997 -0.472109,1.720248 -2.2267378,2.78304 -3.3347283,1.26618 C 4.693795,14.630178 2.4995796,11.925321 5.4107327,8.4718279 Z"/>
 <path style="fill:#2e895d" d="m 10.615234,19.5 c -0.288089,0.008 -0.619107,0.114622 -1.1679684,0.375 a 0.50005,0.50005 0 0 1 -0.033203,0.01563 c -1.108053,0.429449 -2.2890205,0.712802 -3.2714844,1.097656 -0.9824639,0.384854 -1.7295994,0.850215 -2.1074219,1.578125 -0.6462047,1.244974 -0.6303161,2.411943 -0.3710937,3.585938 0.2592224,1.173995 0.7814492,2.324333 1.109375,3.4375 0.2646385,0.896539 0.3965152,1.429012 1.2421875,1.882812 a 0.50005,0.50005 0 0 1 0.072266,0.04883 l 4.1171879,3.242188 a 0.50005,0.50005 0 0 1 0.1875,0.330078 c 0.07522,0.593587 0.139052,0.929842 0.251953,1.115234 0.1129,0.185393 0.306967,0.340327 0.876953,0.550782 a 0.50005,0.50005 0 0 1 0.04687,0.01953 l 7.65039,3.75 c 4.146283,1.743747 7.133789,0.863507 9.035157,-0.392578 a 0.50005,0.50005 0 0 1 0.08789,-0.04492 c 3.042911,-1.231914 4.495352,-2.264598 5.212891,-3.121094 0.466915,-0.557339 0.635884,-1.061267 0.759765,-1.580078 -0.563333,0.245078 -1.233238,0.591612 -2.578125,0.867187 -0.90728,0.185905 -1.860063,0.276334 -2.71289,0.06445 -0.852828,-0.211881 -1.616695,-0.816106 -1.869141,-1.820313 a 0.50005,0.50005 0 0 1 -0.0059,-0.02734 l -0.980469,-5.103515 c 0,0 0,-0.002 0,-0.002 -0.174058,-0.637746 -0.697217,-1.167843 -1.423828,-1.683594 -0.724918,-0.514549 -1.621721,-0.991241 -2.417969,-1.564453 L 17.421829,22.714805 14.371048,20.978477 11.75386,19.814414 C 11.217442,19.57616 10.904815,19.492 10.615234,19.5 Z"/>
 <path style="fill:#3f3f3f" d="M 17.980568,14.778379 14.702,15.46365 c 0,0 1.504296,2.81089 1.744462,4.0748 0.398983,2.09971 -0.155735,4.839363 -0.155735,4.839363 l 1.157993,0.245938 c 0,0 0.630026,-2.838936 0.161132,-5.306568 -0.236683,-1.24558 0.370716,-4.538804 0.370716,-4.538804 z"/>
 <path style="opacity:0.2" d="m 14.489169,7.0302457 c 0.568332,-0.074216 1.163245,-0.022094 1.808973,0.2715389 0.798032,0.2958812 0.579524,0.6638465 0.499759,1.3216897 -0.08392,0.7078518 -0.137289,1.7088167 0.04553,2.6382257 0.141825,0.72099 0.545223,2.201858 0.850867,3.2905 0.319241,1.084347 0.621532,1.22502 -0.380193,1.589851 l -1.724127,0.627932 c -0.944443,0.50603 -1.085123,0.131876 -1.46675,-0.680766 C 12.875124,13.418781 12.95794,10.949159 13.042085,8.4797375 12.90984,7.3290427 13.578903,7.1557328 14.489169,7.0302457 Z"/>
 <path style="fill:#4f4f4f" d="m 14.489169,6.0302452 c 0.568332,-0.074216 1.163245,-0.022094 1.808973,0.2715389 0.798032,0.2958812 0.579524,0.6638465 0.499759,1.3216897 -0.08392,0.7078518 -0.137289,1.7088165 0.04553,2.6382262 0.141825,0.72099 0.545223,2.201858 0.850867,3.2905 0.319241,1.084347 0.621532,1.22502 -0.380193,1.589851 l -1.724127,0.627932 c -0.944443,0.50603 -1.085123,0.131876 -1.46675,-0.680766 C 12.875124,12.418781 12.95794,9.9491589 13.042085,7.479737 12.90984,6.3290422 13.578903,6.1557323 14.489169,6.0302452 Z"/>
 <path style="fill:#45ce64" d="M 3.5917592,22.335307 C 4.5129647,20.560519 7.1050245,20.247781 9.2332976,19.422925 10.372355,18.88256 10.83291,18.8589 11.957261,19.358317 l 2.640048,1.172658 c 0,0 -4.8977102,4.344577 -5.7011825,7.310481 -0.6441092,2.377638 1.0010737,7.315135 1.0010737,7.315135 L 5.7786947,31.914659 C 4.7881552,31.38312 4.5581485,30.629958 4.2927243,29.730757 3.667246,27.607527 2.1747541,25.065299 3.5917592,22.335307 Z"/>
 <path style="fill:#39ab55" d="m 8.8961265,27.841455 c 0.8034723,-2.965904 5.7011825,-7.310481 5.7011825,-7.310481 l 3.092189,1.759918 c 0,0 -1.675874,7.963459 -1.166218,11.925403 0.306354,2.38152 2.494293,6.772203 2.494293,6.772203 l -7.670657,-3.759446 c -1.229537,-0.453918 -1.298703,-0.880766 -1.4497158,-2.072462 0,0 -1.6451829,-4.937497 -1.0010737,-7.315135 z"/>
 <path style="fill:#309158" d="m 16.52328,34.216295 c -0.509656,-3.961944 1.166218,-11.925403 1.166218,-11.925403 l 4.922095,3.420472 -0.226043,9.916554 c -0.06586,2.889693 3.733905,3.995612 6.144387,4.926235 -2.018796,1.333662 -5.224486,2.240587 -9.512364,0.434345 0,0 -2.187939,-4.390683 -2.494293,-6.772203 z"/>
 <path style="fill:#2b814e" d="m 22.612249,25.71076 -0.226904,9.917632 c -0.06586,2.889693 3.734332,3.996086 6.144814,4.926708 6.161664,-2.494532 6.103155,-4.231678 6.46984,-5.91807 0,0 -6.517536,3.09876 -7.361103,-0.256871 L 26.649511,29.24073 c -0.44097,-1.620467 -2.521702,-2.436974 -4.037262,-3.52997 z"/>
 <path style="opacity:0.2;fill:#ffffff" d="m 43.082031,19.005859 c -1.348188,-0.107577 -3.548505,1.51546 -4.466797,2.056641 -0.608701,0.358729 -0.720781,0.994875 -0.513672,1.583984 0.09456,-0.227177 0.255624,-0.431907 0.513672,-0.583984 1.130205,-0.666069 4.200588,-2.972197 5.236328,-1.671875 0.009,0.01125 0.01144,0.02547 0.01953,0.03711 0.159648,-0.407312 0.187968,-0.776603 -0.01953,-1.037109 -0.194201,-0.24381 -0.45841,-0.35994 -0.769531,-0.384767 z"/>
 <path style="opacity:0.1;fill:#ffffff" d="m 10.601562,19 c -0.398064,0.01103 -0.7996116,0.153646 -1.3691401,0.423828 -2.1282731,0.824856 -4.7194195,1.137321 -5.640625,2.91211 -0.522486,1.006617 -0.6457759,1.987828 -0.5664063,2.93164 0.056835,-0.631191 0.2258163,-1.275462 0.5664063,-1.93164 0.9212055,-1.774789 3.5123519,-2.087254 5.640625,-2.91211 C 9.8019504,20.153646 10.203498,20.01103 10.601562,20 c 0.398065,-0.01103 0.793294,0.107713 1.355469,0.357422 l 2.640625,1.173828 3.091797,1.759766 4.921875,3.419922 c 1.51556,1.092995 3.598093,1.908829 4.039063,3.529296 l 0.988281,5.140625 c 0.792041,3.150668 6.4045,0.683399 7.109375,0.361329 0.105955,-0.374915 0.172989,-0.742311 0.251953,-1.105469 0,0 -6.517761,3.099771 -7.361328,-0.25586 l -0.988281,-5.140625 c -0.44097,-1.620467 -2.523503,-2.436301 -4.039063,-3.529296 L 17.689453,22.291016 14.597656,20.53125 11.957031,19.357422 C 11.394856,19.107713 10.999627,18.988967 10.601562,19 Z"/>
 <path style="opacity:0.1" d="M 14.597656 20.53125 C 14.597656 20.53125 9.6999567 24.875893 8.8964844 27.841797 C 8.2523752 30.219435 9.8964844 35.15625 9.8964844 35.15625 C 9.9480094 35.562852 9.9924087 35.876741 10.074219 36.136719 A 1.0001 1.0001 0 0 0 10.845703 34.839844 C 10.845703 34.839844 10.45089 33.652444 10.132812 32.179688 C 9.8147352 30.70693 9.6411398 28.91631 9.8613281 28.103516 C 10.161198 26.996589 11.502136 25.159113 12.787109 23.746094 C 14.072083 22.333075 15.261719 21.279297 15.261719 21.279297 A 1.0001 1.0001 0 0 0 15.464844 21.025391 L 14.597656 20.53125 z"/>
 <path style="opacity:0.1" d="M 17.689453 22.291016 C 17.689453 22.291016 16.013782 30.254853 16.523438 34.216797 C 16.829791 36.598317 19.017578 40.988281 19.017578 40.988281 C 19.341777 41.124848 19.647204 41.217684 19.958984 41.324219 A 1.0001 1.0001 0 0 0 19.912109 40.542969 C 19.912109 40.542969 19.378315 39.4723 18.806641 38.109375 C 18.234967 36.74645 17.640288 35.056991 17.515625 34.087891 C 17.289311 32.328578 17.554035 29.36128 17.904297 26.910156 C 18.197666 24.857166 18.483983 23.415572 18.585938 22.914062 L 17.689453 22.291016 z"/>
 <path style="opacity:0.1" d="M 22.611328 25.710938 L 22.384766 35.628906 C 22.318906 38.518599 26.118815 39.624066 28.529297 40.554688 C 28.876381 40.414171 29.136514 40.284274 29.445312 40.148438 A 1.0001 1.0001 0 0 0 28.890625 39.621094 C 27.644847 39.140132 26.144864 38.636747 25.046875 37.970703 C 23.948886 37.304659 23.361884 36.654361 23.384766 35.650391 L 23.597656 26.351562 C 23.260221 26.142467 22.920449 25.93387 22.611328 25.710938 z"/>
</svg>
