<svg width="48" height="48" version="1" xmlns="http://www.w3.org/2000/svg">
 <rect x="4" y="4" width="40" height="40" rx="2" ry="2" style="fill:#c2352a"/>
 <path d="m6 4c-1.108 0-2 0.892-2 2v1c0-1.108 0.892-2 2-2h36c1.108 0 2 0.892 2 2v-1c0-1.108-0.892-2-2-2h-36z" fill="#fff" style="opacity:.1"/>
 <path d="m6 45c-1.108 0-2-0.892-2-2v-1c0 1.108 0.892 2 2 2h36c1.108 0 2-0.892 2-2v1c0 1.108-0.892 2-2 2h-36z" opacity=".2"/>
 <path d="m22.439453 16.953245c-0.636203-7e-3 -1.050781 0.03125-1.050781 0.03125a1.50015 1.50015 0 0 0-1.375 1.494141v5.748046a1.50015 1.50015 0 0 0 0 0.490235v5.761719a1.50015 1.50015 0 1 0 3 0v-4.607422c0.644294-0.0028 0.872894 0.0832 1.80664-0.111328 0.88683-0.184756 1.843849-0.492266 2.6875-1.160157 0.843653-0.667891 1.50586-1.817522 1.50586-3.121093 0-1.303572-0.662207-2.453203-1.50586-3.121094-0.843651-0.667891-1.80067-0.9754-2.6875-1.160156-0.886829-0.184756-1.744656-0.237107-2.380859-0.244141zm17.039063 0.0039a1.50015 1.50015 0 0 0-1.478516 1.521491v5.646484l-3.158203-6.316406a1.50015 1.50015 0 0 0-2.841797 0.669922v12a1.50015 1.50015 0 1 0 3 0v-5.644532l3.158203 6.316407a1.50015 1.50015 0 0 0 2.841797-0.671875v-12a1.50015 1.50015 0 0 0-1.521484-1.521485zm-26.964844 0.02149c-1.044423 0-2.006744 0.262711-2.7460939 0.824218-0.7393503 0.561507-1.172778 1.353777-1.40625 2.119141-0.466944 1.530729-0.3476562 3.106017-0.3476562 4.556641 0 1.449081-0.1191803 3.025755 0.3476562 4.55664 0.2334183 0.765443 0.66503 1.557298 1.4042969 2.119141 0.739267 0.561843 1.703393 0.824219 2.748047 0.824219s2.00878-0.262376 2.748047-0.824219 1.172831-1.353698 1.40625-2.119141c0.466837-1.530886 0.345703-3.107559 0.345703-4.55664 0-1.450624 0.121241-3.025912-0.345703-4.556641-0.233473-0.765364-0.6669-1.557634-1.40625-2.119141-0.739351-0.561506-1.703624-0.824218-2.748047-0.824218zm0 3c0.580577 0 0.805757 0.115803 0.933594 0.21289 0.127837 0.09709 0.241284 0.243958 0.351562 0.605469 0.220556 0.723021 0.214844 2.147265 0.214844 3.681641 0 1.532918 0.0058 2.958026-0.214844 3.68164-0.110331 0.361807-0.225594 0.50825-0.353516 0.605469-0.127919 0.09722-0.351294 0.212891-0.93164 0.212891s-0.803721-0.115672-0.931641-0.212891c-0.12792-0.09722-0.241231-0.243662-0.351562-0.605469-0.220663-0.723614-0.216797-2.148722-0.216797-3.68164 0-1.534376-0.0038-2.95862 0.216797-3.681641 0.110277-0.361511 0.223726-0.508382 0.351562-0.605469 0.127837-0.09709 0.351065-0.21289 0.931641-0.21289zm11.0625 0.07813c0.168286 0.0027 0.347648 0.01872 0.632812 0.07813 0.613172 0.127744 1.154199 0.351484 1.435547 0.574218 0.281349 0.222734 0.369141 0.323103 0.369141 0.769532 0 0.446428-0.08779 0.546797-0.369141 0.769531-0.281348 0.222734-0.822375 0.446475-1.435547 0.574219-0.570329 0.118818-0.721306 0.064-1.195312 0.07617v-2.839844c0.237003 0.0061 0.394214-0.0046 0.5625-2e-3z" style="opacity:.2"/>
 <path d="m22.439453 15.953125c-0.636203-0.007034-1.050781 0.03125-1.050781 0.03125a1.50015 1.50015 0 0 0-1.375 1.494141v5.748046a1.50015 1.50015 0 0 0 0 0.490235v5.761719a1.50015 1.50015 0 1 0 3 0v-4.607422c0.644294-0.0028 0.872894 0.0832 1.80664-0.111328 0.88683-0.184756 1.843849-0.492266 2.6875-1.160157 0.843653-0.667891 1.50586-1.817522 1.50586-3.121093 0-1.303572-0.662207-2.453203-1.50586-3.121094-0.843651-0.667891-1.80067-0.9754-2.6875-1.160156-0.886829-0.184756-1.744656-0.237107-2.380859-0.244141zm17.039063 0.003906a1.50015 1.50015 0 0 0-1.478516 1.521485v5.646484l-3.158203-6.316406a1.50015 1.50015 0 0 0-2.841797 0.669922v12a1.50015 1.50015 0 1 0 3 0v-5.644532l3.158203 6.316407a1.50015 1.50015 0 0 0 2.841797-0.671875v-12a1.50015 1.50015 0 0 0-1.521484-1.521485zm-26.964844 0.021485c-1.044423 0-2.006744 0.262711-2.7460939 0.824218-0.7393503 0.561507-1.172778 1.353777-1.40625 2.119141-0.466944 1.530729-0.3476562 3.106017-0.3476562 4.556641 0 1.449081-0.1191803 3.025755 0.3476562 4.55664 0.2334183 0.765443 0.66503 1.557298 1.4042969 2.119141 0.739267 0.561843 1.703393 0.824219 2.748047 0.824219s2.00878-0.262376 2.748047-0.824219 1.172831-1.353698 1.40625-2.119141c0.466837-1.530886 0.345703-3.107559 0.345703-4.55664 0-1.450624 0.121241-3.025912-0.345703-4.556641-0.233473-0.765364-0.6669-1.557634-1.40625-2.119141-0.739351-0.561506-1.703624-0.824218-2.748047-0.824218zm0 3c0.580577 0 0.805757 0.115803 0.933594 0.21289 0.127837 0.09709 0.241284 0.243958 0.351562 0.605469 0.220556 0.723021 0.214844 2.147265 0.214844 3.681641 0 1.532918 0.0058 2.958026-0.214844 3.68164-0.110331 0.361807-0.225594 0.50825-0.353516 0.605469-0.127919 0.09722-0.351294 0.212891-0.93164 0.212891s-0.803721-0.115672-0.931641-0.212891c-0.12792-0.09722-0.241231-0.243662-0.351562-0.605469-0.220663-0.723614-0.216797-2.148722-0.216797-3.68164 0-1.534376-0.0038-2.95862 0.216797-3.681641 0.110277-0.361511 0.223726-0.508382 0.351562-0.605469 0.127837-0.09709 0.351065-0.21289 0.931641-0.21289zm11.0625 0.078125c0.168286 0.002668 0.347648 0.018715 0.632812 0.078125 0.613172 0.127744 1.154199 0.351484 1.435547 0.574218 0.281349 0.222734 0.369141 0.323103 0.369141 0.769532 0 0.446428-0.08779 0.546797-0.369141 0.769531-0.281348 0.222734-0.822375 0.446475-1.435547 0.574219-0.570329 0.118818-0.721306 0.064002-1.195312 0.076172v-2.839844c0.237003 0.006085 0.394214-0.004622 0.5625-0.001953z" style="fill:#f5b0b0"/>
</svg>
