<svg xmlns="http://www.w3.org/2000/svg" width="48" height="48" version="1">
 <path style="opacity:0.2" d="m 14,5 v 7 H 4 v 14 7 h 7 v 7 h 7 v 5 h 11 7 v -7 h 7 V 31 19 H 36 29 V 12 5 Z"/>
 <rect style="fill:#3a48a8" width="7" height="7" x="7" y="4"/>
 <rect style="fill:#878186" width="7" height="7" x="29" y="4"/>
 <rect style="fill:#3a48a8" width="7" height="7" x="36" y="11"/>
 <rect style="fill:#ffba52" width="7" height="7" x="36" y="30"/>
 <rect style="fill:#878186" width="7" height="7" x="29" y="37"/>
 <rect style="fill:#85d33a" width="7" height="7" x="11" y="32"/>
 <rect style="fill:#cb383c" width="7" height="7" x="4" y="25"/>
 <path style="fill:#00879d" d="m 14,4 v 7 H 4 v 14 h 7 v 5 2 h 7 v 12 h 11 v -7 h 7 v -7 h 7 V 18 H 36 29 V 11 4 Z"/>
 <rect style="opacity:0.2" width="14" height="1" x="29" y="18"/>
 <rect style="fill:#85d33a" width="7" height="7" x="29" y="11"/>
 <rect style="opacity:0.1;fill:#ffffff" width="39" height="1" x="4" y="11"/>
 <path style="opacity:0.2" d="m 14.26214,7.334483 c 3.303851,-0.6019806 7.462706,-0.3952286 10.934265,0.6512405 2.245378,0.5596582 3.799163,1.7210869 5.20123,3.2848125 2.256523,2.729233 3.615962,6.247281 3.55779,9.430085 0.290307,4.221912 -0.845511,8.602813 -3.169794,11.246662 -1.057411,1.175544 -3.339964,3.001103 -5.403022,4.868637 0,0 -0.547099,0.641712 -0.517745,1.023687 0.04395,0.571884 0.384376,0.93272 0.727424,1.303865 0.194631,0.210572 0.504361,0.40165 0.792163,0.584815 0.791541,0.413838 0.723894,1.408744 0.448044,1.863097 -0.619861,0.625286 -1.183647,0.963473 -1.96699,1.239679 -0.933058,0.336611 -1.300522,0.171469 -1.863803,-0.506879 -0.541902,-0.610795 -0.932981,-1.240842 -1.252196,-1.905745 -0.689247,-1.233237 -0.808372,-2.366365 -0.640517,-3.653261 0.182464,-0.58123 0.54033,-1.083501 1.09041,-1.817038 0.839939,-1.031658 1.518948,-1.863633 2.30586,-3.162908 0.541341,-0.838875 -0.04326,-1.024813 -0.41381,-1.354463 -1.856046,-1.63263 -3.820603,-3.149718 -5.015383,-5.004838 1.475076,-1.593091 1.679843,-3.50674 2.108611,-5.363862 -1.789308,3.488357 -2.888394,5.853728 -6.422617,4.783882 -1.516084,-0.606387 -2.783189,-1.677026 -3.643044,-2.685959 -2.3442643,-3.135743 -2.127138,-6.067743 -2.1034466,-7.27778 0.031237,-1.553634 0.3810792,-3.11462 1.3733556,-4.687295 0.921937,-1.6580749 2.26453,-2.3396829 3.873215,-2.860434 z"/>
 <path style="fill:#6fc0fc" d="m 14.26214,6.3344829 c 3.303851,-0.6019806 7.462706,-0.3952286 10.934265,0.6512405 2.245378,0.5596582 3.799163,1.7210869 5.20123,3.2848126 2.256523,2.729233 3.615962,6.247281 3.55779,9.430085 0.290307,4.221912 -0.845511,8.602813 -3.169794,11.246662 -1.057411,1.175544 -3.339964,3.001103 -5.403022,4.868637 0,0 -0.547099,0.641712 -0.517745,1.023687 0.04395,0.571884 0.384376,0.93272 0.727424,1.303865 0.194631,0.210572 0.504361,0.40165 0.792163,0.584815 0.791541,0.413838 0.723894,1.408744 0.448044,1.863097 -0.619861,0.625286 -1.183647,0.963473 -1.96699,1.239679 -0.933058,0.336611 -1.300522,0.171469 -1.863803,-0.506879 -0.541902,-0.610795 -0.932981,-1.240842 -1.252196,-1.905745 -0.689247,-1.233237 -0.808372,-2.366365 -0.640517,-3.653261 0.182464,-0.58123 0.54033,-1.083501 1.09041,-1.817038 0.839939,-1.031658 1.518948,-1.863633 2.30586,-3.162908 0.541341,-0.838875 -0.04326,-1.024813 -0.41381,-1.354463 -1.856046,-1.63263 -3.820603,-3.149718 -5.015383,-5.004838 1.475076,-1.593091 1.679843,-3.50674 2.108611,-5.363862 -1.789308,3.488357 -2.888394,5.853728 -6.422617,4.783882 C 13.245976,23.239564 11.978871,22.168925 11.119016,21.159992 8.7747517,18.024249 8.991878,15.092249 9.0155694,13.882212 9.0468059,12.328578 9.3966486,10.767592 10.388925,9.1949165 11.310862,7.536842 12.653455,6.855234 14.26214,6.3344829 Z"/>
 <circle style="fill:#3f3f3f" cx="28.5" cy="19.5" r="1.5"/>
 <path style="opacity:0.2" d="M 27.36312,26.385894 32,29.864432 c -0.633593,-0.01612 -1.464242,0.193376 -2.385403,0.11988 -2.002102,-0.159751 -4.393894,-0.666782 -4.588428,-1.322655 -0.109795,-0.910064 0.10262,-1.621036 1.084041,-2.342003 0.604643,-0.472426 0.668532,-0.396706 1.25291,0.06625 z"/>
 <path style="fill:#ffffff" d="M 27.36312,25.385894 32,28.864432 c -0.633593,-0.01612 -1.464242,0.193376 -2.385403,0.11988 -2.002102,-0.159751 -4.393894,-0.666782 -4.588428,-1.322655 -0.109795,-0.910064 0.10262,-1.621036 1.084041,-2.342003 0.604643,-0.472426 0.668532,-0.396706 1.25291,0.06625 z"/>
 <rect style="opacity:0.2" width="7" height="1" x="4" y="25"/>
 <rect style="opacity:0.2" width="7" height="1" x="11" y="32"/>
 <rect style="opacity:0.2" width="7" height="1" x="29" y="37"/>
 <rect style="opacity:0.2" width="7" height="1" x="36" y="30"/>
 <rect style="opacity:0.1;fill:#ffffff" width="29" height="1" x="7" y="4"/>
 <path style="opacity:0.2;fill:#ffffff" d="M 18.257812 6 C 16.859731 5.9966527 15.500663 6.1082417 14.261719 6.3339844 C 12.653034 6.8547355 11.310609 7.537238 10.388672 9.1953125 C 9.3963955 10.767988 9.0468615 12.329178 9.015625 13.882812 C 9.0091967 14.21114 8.9915974 14.675011 9.0117188 15.226562 C 9.0143724 15.1235 9.0139382 14.968965 9.015625 14.882812 C 9.046862 13.329178 9.3963955 11.767987 10.388672 10.195312 C 11.310609 8.5372376 12.653034 7.8547355 14.261719 7.3339844 C 17.56557 6.7320038 21.725707 6.939859 25.197266 7.9863281 C 27.442644 8.5459863 28.99637 9.7077588 30.398438 11.271484 C 32.654961 14.000717 34.01325 17.518368 33.955078 20.701172 C 33.975993 21.005342 33.974269 21.310122 33.980469 21.615234 C 34.000823 20.977192 33.998901 20.338491 33.955078 19.701172 C 34.01325 16.518368 32.654961 13.000717 30.398438 10.271484 C 28.99637 8.7077587 27.442644 7.5459863 25.197266 6.9863281 C 23.027541 6.3322849 20.587949 6.0055788 18.257812 6 z M 21.185547 20.0625 C 21.045739 20.335063 20.914121 20.586002 20.78125 20.84375 C 20.483073 22.105952 20.079995 23.341646 19.076172 24.425781 C 19.193156 24.607421 19.324159 24.783401 19.455078 24.958984 C 20.582294 23.465716 20.797708 21.742346 21.185547 20.0625 z M 24.507812 30.783203 C 24.507262 30.784059 24.506413 30.784299 24.505859 30.785156 C 23.718947 32.084431 23.039158 32.915608 22.199219 33.947266 C 21.649139 34.680803 21.291839 35.184395 21.109375 35.765625 C 21.044347 36.264174 21.040549 36.73597 21.078125 37.203125 C 21.089441 37.057081 21.089835 36.915436 21.109375 36.765625 C 21.291839 36.184395 21.649139 35.680803 22.199219 34.947266 C 23.039158 33.915608 23.718947 33.084431 24.505859 31.785156 C 24.848117 31.254785 24.727048 30.992912 24.507812 30.783203 z M 25.015625 37.365234 C 24.927721 37.529649 24.854548 37.700783 24.865234 37.839844 C 24.909184 38.411728 25.248749 38.771433 25.591797 39.142578 C 25.786428 39.35315 26.096964 39.545351 26.384766 39.728516 C 26.664626 39.874834 26.833912 40.093917 26.927734 40.335938 C 27.096413 39.833333 27.057297 39.080133 26.384766 38.728516 C 26.096964 38.545351 25.786428 38.35315 25.591797 38.142578 C 25.368575 37.901074 25.155665 37.658996 25.015625 37.365234 z"/>
</svg>
