<svg xmlns="http://www.w3.org/2000/svg" width="48" height="48" version="1.1">
 <path style="opacity:0.2" d="M 24.225906,4.9999961 H 23.775894 C 17.272041,4.9994961 11.999503,10.308569 12,16.857488 v 3.180967 c 0,0.531399 0.428082,0.962042 0.955824,0.961541 h 2.540764 C 16.024329,21.000496 16,20.569853 16,20.038455 V 16.66083 c 0,-4.100203 3.753408,-7.660834 7.825396,-7.660834 h 0.360009 C 28.257392,8.999996 32,12.560628 32,16.66083 v 3.377625 c 0,0.531399 -0.01383,0.962042 0.513912,0.961541 h 2.541064 C 35.578496,20.994531 36.000028,20.565631 36,20.038455 V 16.857488 C 36.000497,10.309277 30.729056,5.0004971 24.225906,4.9999961 Z"/>
 <path style="opacity:0.2" d="M 11.999264,42.931406 C 12.474727,44.00687 13.538934,45.000125 14.713585,45 h 3.373369 c 1.116588,1.6e-4 2.138784,-1.00371 2.645381,-2.000004 h 6.187879 C 27.426188,43.996 28.447713,44.999893 29.56376,45 h 3.374287 c 1.140105,-7.76e-4 2.178995,-0.955102 2.672958,-1.983924 1.955136,-0.327656 3.387911,-2.021353 3.388994,-4.006159 V 23.873104 c 3.91e-4,-0.704787 -0.183402,-1.397411 -0.533121,-2.009062 v -0.01933 c -5.09e-4,-1.57124 -1.272805,-2.844711 -2.842086,-2.844711 H 30.16398 c -0.740272,-6.05e-4 -1.451333,0.482003 -1.98082,0.999995 h -8.344261 c -0.529095,-0.51802 -1.23989,-1.000653 -1.979901,-0.999994 h -5.460813 c -1.5602,4.59e-4 -2.8281327,1.260526 -2.8402465,2.822626 -0.365362,0.62141 -0.5580034,1.329385 -0.5579386,2.050476 v 15.136813 c 7.557e-4,1.835268 1.2298651,3.442309 2.9992641,3.921489 z"/>
 <path style="fill:#3f8d35" d="M 24.225906,4.0000001 H 23.775894 C 17.272041,3.9995001 11.999503,9.3085732 12,15.857492 v 3.180967 C 12,19.569858 12.428082,20.000501 12.955824,20 h 2.540764 C 16.024329,20.0005 16,19.569857 16,19.038459 V 15.660834 C 16,11.560631 19.753408,8 23.825396,8 h 0.360009 C 28.257392,8 32,11.560632 32,15.660834 v 3.377625 C 32,19.569858 31.98617,20.000501 32.513912,20 h 2.541064 C 35.578496,19.994535 36.000028,19.565635 36,19.038459 V 15.857492 C 36.000497,9.309281 30.729056,4.0005011 24.225906,4.0000001 Z"/>
 <path style="fill:#51a948" d="m 11.999264,41.93141 c 0.475463,1.075464 1.53967,2.068719 2.714321,2.068594 h 3.373369 c 1.116588,1.6e-4 2.138784,-1.00371 2.645381,-2.000004 h 6.187879 c 0.505974,0.996004 1.527499,1.999897 2.643546,2.000004 h 3.374287 c 1.140105,-7.76e-4 2.178995,-0.955102 2.672958,-1.983924 1.955136,-0.327656 3.387911,-2.021353 3.388994,-4.006159 V 22.873108 c 3.91e-4,-0.704787 -0.183402,-1.397411 -0.533121,-2.009062 v -0.01933 c -5.09e-4,-1.57124 -1.272805,-2.844711 -2.842086,-2.844711 H 30.16398 C 29.423708,17.9994 28.712647,18.482008 28.18316,19 h -8.344261 c -0.529095,-0.51802 -1.23989,-1.000653 -1.979901,-0.999994 h -5.460813 c -1.5602,4.59e-4 -2.8281327,1.260526 -2.8402465,2.822626 -0.365362,0.62141 -0.5580034,1.329385 -0.5579386,2.050476 v 15.136813 c 7.557e-4,1.835268 1.2298651,3.442309 2.9992641,3.921489 z"/>
 <path style="opacity:0.2" d="M 27.501953,12.999996 A 1.5,1.5 0 1 0 29,14.498043 1.5,1.5 0 0 0 27.501953,12.999996 Z m -7.076172,0.002 a 1.4999998,1.4999998 0 0 0 0.07422,2.998047 1.498989,1.498989 0 0 0 1.5,-1.5 1.4999998,1.4999998 0 0 0 -1.574219,-1.498047 z m 5.654297,3.457031 a 0.35134387,0.35134387 0 0 0 -0.197266,0.08984 2.8095292,2.8095292 0 0 1 -3.763671,0 0.35107717,0.35107717 0 0 0 -0.47461,0.515625 3.4405563,3.4405563 0 0 0 4.714844,0 0.35134387,0.35134387 0 0 0 -0.279297,-0.605469 z"/>
 <path style="fill:#51a948" d="M 27.501953 12 A 1.5 1.5 0 1 0 29 13.498047 A 1.5 1.5 0 0 0 27.501953 12 z M 20.425781 12.001953 A 1.4999998 1.4999998 0 0 0 20.5 15 A 1.498989 1.498989 0 0 0 22 13.5 A 1.4999998 1.4999998 0 0 0 20.425781 12.001953 z M 26.080078 15.458984 A 0.35134387 0.35134387 0 0 0 25.882812 15.548828 A 2.8095292 2.8095292 0 0 1 22.119141 15.548828 A 0.35107717 0.35107717 0 0 0 21.644531 16.064453 A 3.4405563 3.4405563 0 0 0 26.359375 16.064453 A 0.35134387 0.35134387 0 0 0 26.080078 15.458984 z"/>
 <path style="opacity:0.2" d="m 26.995884,29.007589 c 2.39e-4,-2.264727 -2.40665,-3.71472 -4.403493,-2.652918 -1.996843,1.061804 -2.146686,3.871317 -0.274061,5.140166 0.147123,0.09958 0.223777,0.275196 0.19687,0.451015 l -0.737643,5.515753 c -0.04208,0.283297 0.176773,0.537954 0.462688,0.538391 h 3.52042 c 0.285981,-5.16e-4 0.505025,-0.254942 0.463519,-0.538391 L 25.48571,31.945852 c -0.0261,-0.177421 0.05175,-0.354103 0.200194,-0.454344 0.822984,-0.558055 1.315453,-1.489212 1.314134,-2.484751"/>
 <path style="fill:#fefefe" d="m 26.995884,28.007593 c 2.39e-4,-2.264727 -2.40665,-3.71472 -4.403493,-2.652918 -1.996843,1.061804 -2.146686,3.871317 -0.274061,5.140166 0.147123,0.09958 0.223777,0.275196 0.19687,0.451015 l -0.737643,5.515753 C 21.735477,36.744906 21.95433,36.999563 22.240245,37 h 3.52042 c 0.285981,-5.16e-4 0.505025,-0.254942 0.463519,-0.538391 L 25.48571,30.945856 c -0.0261,-0.177421 0.05175,-0.354103 0.200194,-0.454344 0.822984,-0.558055 1.315453,-1.489212 1.314134,-2.484751"/>
 <path style="fill:#ffffff;opacity:0.1" d="M 23.775391 4 C 17.271538 3.9995 11.999503 9.3085031 12 15.857422 L 12 16.857422 C 11.999503 10.308503 17.271538 4.9995 23.775391 5 L 24.226562 5 C 30.729713 5.000501 36.000497 10.309211 36 16.857422 L 36 15.857422 C 36.000497 9.3092109 30.729713 4.000501 24.226562 4 L 23.775391 4 z"/>
 <path style="fill:#ffffff;opacity:0.2" d="M 12.398438 18 C 10.838237 18.000459 9.5707076 19.260166 9.5585938 20.822266 C 9.1932318 21.443676 8.9999352 22.151956 9 22.873047 L 9 23.873047 C 8.9999352 23.151956 9.1932318 22.443676 9.5585938 21.822266 C 9.5707076 20.260166 10.838237 19.000459 12.398438 19 L 17.859375 19 C 18.599386 18.999341 19.310749 19.48198 19.839844 20 L 28.183594 20 C 28.713081 19.482008 29.42379 18.999395 30.164062 19 L 35.625 19 C 37.194281 19 38.466288 20.27251 38.466797 21.84375 L 38.466797 21.863281 C 38.816516 22.474932 39.000391 23.16826 39 23.873047 L 39 22.873047 C 39.000391 22.16826 38.816516 21.474932 38.466797 20.863281 L 38.466797 20.84375 C 38.466288 19.27251 37.194281 18 35.625 18 L 30.164062 18 C 29.423791 17.999395 28.713081 18.482008 28.183594 19 L 19.839844 19 C 19.310749 18.48198 18.599386 17.999341 17.859375 18 L 12.398438 18 z"/>
</svg>
