<?xml version="1.0" encoding="UTF-8" standalone="no"?>
<svg id="svg2817" xmlns:rdf="http://www.w3.org/1999/02/22-rdf-syntax-ns#" xmlns="http://www.w3.org/2000/svg" height="48" width="48" version="1.0" xmlns:cc="http://creativecommons.org/ns#" xmlns:dc="http://purl.org/dc/elements/1.1/">
    <metadata id="metadata57">
        <rdf:RDF>
            <cc:Work rdf:about="">
                <dc:format>
                    image/svg+xml
                </dc:format>
                <dc:type rdf:resource="http://purl.org/dc/dcmitype/StillImage"/>
                <dc:title/>
            </cc:Work>
        </rdf:RDF>
    </metadata>
    <path id="rect4203" fill="#fecd38" d="m44 40v-32c0-1.108-0.892-2-2-2h-36c-1.108 0-2 0.892-2 2v32c0 1.108 0.892 2 2 2h36c1.108 0 2-0.892 2-2z"/>
    <path id="path3" fill="#4d4d4d" d="m13 14v22h22v-22h-1v1h-2v-1h-16v1h-2v-1h-1zm5 3h12v7h-12v-7zm-4 1h2v2h-2v-2zm18 0h2v2h-2v-2zm-18 5h2v2h-2v-2zm18 0h2v2h-2v-2zm-14 4h12v7h-12v-7zm-4 1h2v2h-2v-2zm18 0h2v2h-2v-2zm-18 5h2v2h-2v-2zm18 0h2v2h-2v-2z"/>
    <path id="rect4079" opacity=".2" d="m4 40v1c0 1.108 0.892 2 2 2h36c1.108 0 2-0.892 2-2v-1c0 1.108-0.892 2-2 2h-36c-1.108 0-2-0.892-2-2z"/>
    <path id="path5239" opacity=".2" fill="#fff" d="m6 6c-1.108 0-2 0.892-2 2v1c0-1.108 0.892-2 2-2h36c1.108 0 2 0.892 2 2v-1c0-1.108-0.892-2-2-2h-36z"/>
</svg>
