<svg xmlns="http://www.w3.org/2000/svg" width="48" height="48" version="1.1">
 <path style="opacity:0.2" d="M 24,6 A 13,13 0 0 0 11,19 13,13 0 0 0 11.017578,19.462891 13,13 0 0 0 4,31 13,13 0 0 0 17,44 13,13 0 0 0 24.013672,41.945312 13,13 0 0 0 31,44 13,13 0 0 0 44,31 13,13 0 0 0 36.976562,19.46875 13,13 0 0 0 37,19 13,13 0 0 0 24,6 Z"/>
 <circle style="fill:#394dbb" cx="31" cy="30" r="13"/>
 <circle style="fill:#ee4034" cx="24" cy="18" r="13"/>
 <circle style="fill:#49ac36" cx="17" cy="30" r="13"/>
 <path style="fill:#d971e1" d="M 31 17 A 13 13 0 0 0 24.007812 19.066406 A 13 13 0 0 1 29.982422 29.521484 A 13 13 0 0 0 36.976562 18.46875 A 13 13 0 0 0 31 17 z"/>
 <path style="fill:#ffe717" d="M 17 17 A 13 13 0 0 0 11.017578 18.462891 A 13 13 0 0 0 18.023438 29.521484 A 13 13 0 0 1 23.982422 19.056641 A 13 13 0 0 0 17 17 z"/>
 <path style="fill:#ffffff" d="M 23.986328 19.054688 A 13 13 0 0 0 18.023438 29.53125 A 13 13 0 0 0 24 31 A 13 13 0 0 0 29.976562 29.541016 A 13 13 0 0 0 23.986328 19.054688 z"/>
 <path style="fill:#36c8ff" d="M 18.023438 29.53125 A 13 13 0 0 0 18 30 A 13 13 0 0 0 24.013672 40.945312 A 13 13 0 0 0 30 30 A 13 13 0 0 0 29.976562 29.541016 A 13 13 0 0 1 24 31 A 13 13 0 0 1 18.023438 29.53125 z"/>
 <path style="opacity:0.2;fill:#ffffff" d="M 24 5 A 13 13 0 0 0 11 18 A 13 13 0 0 0 11.021484 18.580078 A 13 13 0 0 1 24 6 A 13 13 0 0 1 36.978516 18.419922 A 13 13 0 0 0 37 18 A 13 13 0 0 0 24 5 z"/>
</svg>
