<svg xmlns="http://www.w3.org/2000/svg" width="48" height="48" version="1.1" viewBox="0 0 48 48">
 <rect width="40" height="40" x="-44" y="-44" rx="2" ry="2" transform="matrix(0,-1,-1,0,0,0)" style="fill:#fa7645"/>
 <path d="M 4,7 4,6 C 4,4.892 4.892,4 6,4 l 36,0 c 1.108,0 2,0.892 2,2 l 0,1 C 44,5.892 43.108,5 42,5 L 6,5 C 4.892,5 4,5.892 4,7 Z" style="opacity:0.2;fill:#ffffff"/>
 <path d="m 4,42 0,1 c 0,1.108 0.892,2 2,2 l 36,0 c 1.108,0 2,-0.892 2,-2 l 0,-1 c 0,1.108 -0.892,2 -2,2 L 6,44 C 4.892,44 4,43.108 4,42 Z" style="opacity:0.2"/>
 <path d="M 14.5,12 12,29 19.199219,38 28.800781,38 36,29 33.5,12 l -5,0 -9,0 -5,0 z m 4.294922,2 10.410156,0 L 34.5,29 28.375,36 27,36 l 0,-3 -6,0 0,3 -1.375,0 L 13.5,29 18.794922,14 Z M 19,15 l 1,3 2,0 1,6 2,0 1,-6 2,0 1,-3 -10,0 z m -3,9 4.115234,6 L 21,27.333984 16,24 Z M 32,24 27,27.333984 27.884766,30 32,24 Z" style="opacity:0.1;fill-rule:evenodd"/>
 <path style="fill:#3f3f3f;fill-rule:evenodd" d="M 14.5,11 12,28 19.199219,37 28.800781,37 36,28 33.5,11 l -5,0 -9,0 -5,0 z m 4.294922,2 10.410156,0 L 34.5,28 28.375,35 27,35 l 0,-3 -6,0 0,3 -1.375,0 L 13.5,28 18.794922,13 Z M 19,14 l 1,3 2,0 1,6 2,0 1,-6 2,0 1,-3 -10,0 z m -3,9 4.115234,6 L 21,26.333984 16,23 Z M 32,23 27,26.333984 27.884766,29 32,23 Z"/>
</svg>
