<svg xmlns="http://www.w3.org/2000/svg" width="48" height="48" version="1.1">
 <circle style="opacity:0.2" cx="24" cy="25" r="20"/>
 <circle style="fill:#3f3f3f" cx="24" cy="24" r="20"/>
 <path style="opacity:0.1;fill:#ffffff" d="M 24,4 A 20,20 0 0 0 4,24 20,20 0 0 0 4.0215,24.582 20,20 0 0 1 24,5 20,20 0 0 1 43.979,24.418 20,20 0 0 0 44,24 20,20 0 0 0 24,4 Z"/>
 <path style="opacity:0.2" d="m 26.503906,13.999848 c -0.591095,4.31e-4 -1.22406,0.0085 -1.904297,0.02539 -5.163984,0.128179 -7.358877,0.79288 -10.027343,2.676507 -1.908081,1.346884 -3.154915,3.606191 -2.294922,4.158204 0.728616,0.467677 2.823132,-0.575736 3.453125,-1.720704 0.793928,-1.44291 1.702977,-2.069086 3.404297,-2.069086 1.021219,0 1.12383,0.276334 0.86914,2.322266 -0.553789,4.448552 -1.806038,9.355773 -3.404297,13.34375 -0.461771,1.152213 -0.839648,2.31485 -0.839843,2.582031 -5.53e-4,0.811775 0.710082,0.901488 2.001953,0.253907 1.33146,-0.667417 1.875663,-1.420245 2.933593,-4.06836 0.526977,-1.319085 0.957032,-2.470835 0.957032,-2.558594 0,-0.418969 0.7803,-0.739103 2.302734,-0.945312 5.234432,-0.709013 9.736291,-3.444561 11.392578,-6.921875 1.143826,-2.401424 0.77836,-4.335645 -1.058594,-5.587891 -1.579622,-1.076828 -3.64749,-1.49325 -7.785156,-1.490233 z m -1.113281,3.009766 c 0.27884,-0.02182 0.62285,-0.0064 1.048828,0.03711 2.493079,0.254651 4.379358,0.978824 5.15625,1.980469 0.525553,0.677596 0.541288,2.300103 0.0332,3.28125 -0.979045,1.890626 -2.600551,2.575293 -7.417968,3.134765 -0.863195,0.100294 -1.118871,0.07176 -1.201172,-0.132812 -0.05749,-0.142887 0.150555,-1.48325 0.46289,-2.980469 0.312336,-1.497218 0.627234,-3.199215 0.699219,-3.78125 0.131486,-1.063174 0.38223,-1.473602 1.21875,-1.539062 z"/>
 <path style="fill:#ffffff" d="m 26.503906,13 c -0.591095,4.31e-4 -1.22406,0.0085 -1.904297,0.02539 -5.163984,0.128179 -7.358877,0.79288 -10.027343,2.676507 -1.908081,1.346884 -3.154915,3.606191 -2.294922,4.158204 0.728616,0.467677 2.823132,-0.575736 3.453125,-1.720704 0.793928,-1.44291 1.702977,-2.069086 3.404297,-2.069086 1.021219,0 1.12383,0.276334 0.86914,2.322266 -0.553789,4.448552 -1.806038,9.355773 -3.404297,13.34375 -0.461771,1.152213 -0.839648,2.31485 -0.839843,2.582031 -5.53e-4,0.811775 0.710082,0.901488 2.001953,0.253907 1.33146,-0.667417 1.875663,-1.420245 2.933593,-4.06836 0.526977,-1.319085 0.957032,-2.470835 0.957032,-2.558594 0,-0.418969 0.7803,-0.739103 2.302734,-0.945312 5.234432,-0.709013 9.736291,-3.444561 11.392578,-6.921875 1.143826,-2.401424 0.77836,-4.335645 -1.058594,-5.587891 C 32.70944,13.413405 30.641572,12.996983 26.503906,13 Z m -1.113281,3.009766 c 0.27884,-0.02182 0.62285,-0.0064 1.048828,0.03711 2.493079,0.254651 4.379358,0.978824 5.15625,1.980469 0.525553,0.677596 0.541288,2.300103 0.0332,3.28125 -0.979045,1.890626 -2.600551,2.575293 -7.417968,3.134765 -0.863195,0.100294 -1.118871,0.07176 -1.201172,-0.132812 -0.05749,-0.142887 0.150555,-1.48325 0.46289,-2.980469 0.312336,-1.497218 0.627234,-3.199215 0.699219,-3.78125 0.131486,-1.063174 0.38223,-1.473602 1.21875,-1.539062 z"/>
</svg>
