<?xml version="1.0" encoding="UTF-8" standalone="no"?>
<svg xmlns="http://www.w3.org/2000/svg" height="48" width="48" version="1">
 <rect transform="matrix(0,-1,-1,0,0,0)" rx="2" ry="2" height="40" width="40" y="-44" x="-44" fill="#d951c4"/>
 <path opacity=".2" fill="#fff" d="m6 4c-1.108 0-2 0.892-2 2v1c0-1.108 0.892-2 2-2h36c1.108 0 2 0.892 2 2v-1c0-1.108-0.892-2-2-2h-36z"/>
 <path opacity=".2" d="m6 45c-1.108 0-2-0.892-2-2v-1c0 1.108 0.892 2 2 2h36c1.108 0 2-0.892 2-2v1c0 1.108-0.892 2-2 2h-36z"/>
 <g opacity=".2" transform="translate(0 1)">
  <rect opacity="1" rx="1" ry="1" height="8" width="8" y="8" x="8"/>
  <rect opacity="1" rx="1" ry="1" height="8" width="8" y="19" x="8"/>
  <rect opacity="1" rx="1" ry="1" height="8" width="8" y="30" x="8"/>
  <rect opacity="1" rx="1" ry="1" height="8" width="8" y="8" x="19"/>
  <rect opacity="1" rx="1" ry="1" height="8" width="8" y="19" x="19"/>
 </g>
 <g fill="#ffa3a1">
  <rect rx="1" ry="1" height="8" width="8" y="8" x="8"/>
  <rect rx="1" ry="1" height="8" width="8" y="19" x="8"/>
  <rect rx="1" ry="1" height="8" width="8" y="30" x="8"/>
  <rect rx="1" ry="1" height="8" width="8" y="8" x="19"/>
  <rect rx="1" ry="1" height="8" width="8" y="19" x="19"/>
 </g>
</svg>
