<svg xmlns="http://www.w3.org/2000/svg" width="48" height="48" version="1">
 <path style="opacity:0.2" d="M 23 5 C 16.906 5 12 10.406 12 16.5 L 12 20 L 16 20 L 16 16.5 C 16 12.553 19.053 9 23 9 L 25 9 C 28.947 9 32 12.553 32 16.5 L 32 20 L 36 20 L 36 16.5 C 36 10.406 31.094 5 25 5 L 23 5 z"/>
 <path style="fill:#d2d2d2" d="M 23 4 C 16.906 4 12 9.406 12 15.5 L 12 20 L 16 20 L 16 15.5 C 16 11.553 19.053 8 23 8 L 25 8 C 28.947 8 32 11.553 32 15.5 L 32 20 L 36 20 L 36 15.5 C 36 9.406 31.094 4 25 4 L 23 4 z"/>
 <path style="opacity:0.2" d="M 8,42 V 43 C 8,44.108 8.892,45 10,45 H 38 C 39.108,45 40,44.108 40,43 V 42 C 40,43.108 39.108,44 38,44 H 10 C 8.892,44 8,43.108 8,42 Z"/>
 <rect style="fill:#ffb437" width="32" height="24" x="8" y="20" rx="2" ry="2"/>
 <path style="opacity:0.2;fill:#ffffff" d="M 10,20 C 8.892,20 8,20.892 8,22 V 23 C 8,21.892 8.892,21 10,21 H 38 C 39.108,21 40,21.892 40,23 V 22 C 40,20.892 39.108,20 38,20 Z"/>
 <rect style="fill:#fed96a" width="32" height="14" x="8" y="24" rx="0" ry="0"/>
 <path style="opacity:0.2;fill:#ffffff" d="M 23,4 C 16.906,4 12,9.406 12,15.5 V 16.5 C 12,10.406 16.906,5 23,5 H 25 C 31.094,5 36,10.406 36,16.5 V 15.5 C 36,9.406 31.094,4 25,4 Z"/>
</svg>
