<svg xmlns="http://www.w3.org/2000/svg" width="48" height="48" version="1">
 <path style="opacity:0.2" d="m 23,5 c -2.216,0 -4,1.784 -4,4 v 1.875 a 15,15 0 0 0 -4.730469,2.732422 l -1.625,-0.9375 c -1.919112,-1.108 -4.3568435,-0.454269 -5.4648435,1.464844 l -1,1.730468 c -1.108,1.919113 -0.4542684,4.356844 1.4648437,5.464844 l 1.6171876,0.933594 A 15,15 0 0 0 9,25 15,15 0 0 0 9.2617188,27.736328 l -1.6171876,0.933594 c -1.9191121,1.108 -2.5728437,3.545731 -1.4648437,5.464844 l 1,1.730468 c 1.108,1.919113 3.5457315,2.572844 5.4648435,1.464844 l 1.613281,-0.93164 A 15,15 0 0 0 19,39.121094 V 41 c 0,2.216 1.784,4 4,4 h 2 c 2.216,0 4,-1.784 4,-4 v -1.886719 a 15,15 0 0 0 4.730469,-2.720703 l 1.625,0.9375 c 1.919112,1.108 4.356843,0.454269 5.464843,-1.464844 l 1,-1.730468 c 1.108,-1.919113 0.454269,-4.356844 -1.464843,-5.464844 L 38.738281,27.736328 A 15,15 0 0 0 39,25 15,15 0 0 0 38.738281,22.263672 l 1.617188,-0.933594 c 1.919112,-1.108 2.572843,-3.545731 1.464843,-5.464844 l -1,-1.730468 c -1.107999,-1.919113 -3.545731,-2.572844 -5.464843,-1.464844 l -1.613281,0.93164 A 15,15 0 0 0 29,10.876953 V 9 C 29,6.784 27.216,5 25,5 Z"/>
 <path style="fill:#18b4d9" d="m 23,4 c -2.216,0 -4,1.784 -4,4 v 1.875 a 15,15 0 0 0 -4.730469,2.732422 l -1.625,-0.9375 c -1.919112,-1.108 -4.3568435,-0.454269 -5.4648435,1.464844 l -1,1.730468 c -1.108,1.919113 -0.4542684,4.356844 1.4648437,5.464844 l 1.6171876,0.933594 A 15,15 0 0 0 9,24 15,15 0 0 0 9.2617188,26.736328 l -1.6171876,0.933594 c -1.9191121,1.108 -2.5728437,3.545731 -1.4648437,5.464844 l 1,1.730468 c 1.108,1.919113 3.5457315,2.572844 5.4648435,1.464844 l 1.613281,-0.93164 A 15,15 0 0 0 19,38.121094 V 40 c 0,2.216 1.784,4 4,4 h 2 c 2.216,0 4,-1.784 4,-4 v -1.886719 a 15,15 0 0 0 4.730469,-2.720703 l 1.625,0.9375 c 1.919112,1.108 4.356843,0.454269 5.464843,-1.464844 l 1,-1.730468 c 1.108,-1.919113 0.454269,-4.356844 -1.464843,-5.464844 L 38.738281,26.736328 A 15,15 0 0 0 39,24 15,15 0 0 0 38.738281,21.263672 l 1.617188,-0.933594 c 1.919112,-1.108 2.572843,-3.545731 1.464843,-5.464844 l -1,-1.730468 c -1.107999,-1.919113 -3.545731,-2.572844 -5.464843,-1.464844 l -1.613281,0.93164 A 15,15 0 0 0 29,9.8769531 V 8 C 29,5.784 27.216,4 25,4 Z"/>
 <path style="opacity:0.2;fill:#ffffff" d="m 23,4 c -2.216,0 -4,1.784 -4,4 v 1 c 0,-2.216 1.784,-4 4,-4 h 2 c 2.216,0 4,1.784 4,4 V 8 C 29,5.784 27.216,4 25,4 Z m -4,5.875 a 15,15 0 0 0 -4.730469,2.732422 l -1.625,-0.9375 c -1.919112,-1.108 -4.3568435,-0.454269 -5.4648435,1.464844 l -1,1.730468 c -0.4491532,0.777957 -0.5948307,1.639567 -0.4980469,2.464844 0.068309,-0.501073 0.2288014,-0.998497 0.4980469,-1.464844 l 1,-1.730468 c 1.108,-1.919113 3.5457315,-2.572844 5.4648435,-1.464844 l 1.625,0.9375 A 15,15 0 0 1 19,10.875 Z m 10,0.00195 v 1 a 15,15 0 0 1 4.742188,2.724609 l 1.613281,-0.93164 c 1.919112,-1.108 4.356844,-0.454269 5.464843,1.464844 l 1,1.730468 c 0.269246,0.466347 0.429739,0.963771 0.498047,1.464844 0.09678,-0.825277 -0.04889,-1.686887 -0.498047,-2.464844 l -1,-1.730468 c -1.108,-1.919113 -3.545731,-2.572844 -5.464843,-1.464844 l -1.613281,0.93164 A 15,15 0 0 0 29,9.8769531 Z m 9.873047,12.308594 -0.134766,0.07813 A 15,15 0 0 1 38.974609,24.541016 15,15 0 0 0 39,24 15,15 0 0 0 38.873047,22.185547 Z m -29.740234,0.0039 A 15,15 0 0 0 9.0000005,24 a 15,15 0 0 0 0.025391,0.458984 15,15 0 0 1 0.2363282,-2.195312 z m 29.734376,4.621094 a 15,15 0 0 1 -0.128907,0.925781 l 1.617188,0.933594 c 1.141156,0.658847 1.820922,1.789431 1.96289,3 0.212795,-1.560945 -0.510125,-3.161246 -1.96289,-4 z m -29.740235,0.0039 -1.4824219,0.855469 c -1.4527653,0.838754 -2.1756853,2.439055 -1.9628906,4 0.1419688,-1.210569 0.8217346,-2.341153 1.9628906,-3 L 9.2617197,27.736328 A 15,15 0 0 1 9.126954,26.814453 Z"/>
 <path style="opacity:0.2" d="m 24,17 c -4.249577,0 -7.715354,3.315729 -7.974609,7.5 H 16 V 25 37.654297 a 15,15 0 0 0 3,1.466797 V 41 c 0,1.011656 0.385017,1.92205 1,2.625 V 31.919922 C 21.177882,32.602484 22.540672,33 24,33 c 4.4183,0 8,-3.5817 8,-8 0,-4.4183 -3.5817,-8 -8,-8 z m 0,4 a 4,4 0 0 1 4,4 4,4 0 0 1 -4,4 4,4 0 0 1 -4,-4 4,4 0 0 1 4,-4 z"/>
 <path style="fill:#ffffff" d="M 24 16 C 19.750423 16 16.284646 19.315729 16.025391 23.5 L 16 23.5 L 16 24 L 16 36.654297 A 15 15 0 0 0 19 38.121094 L 19 40 C 19 41.011656 19.385017 41.92205 20 42.625 L 20 30.919922 C 21.177882 31.602484 22.540672 32 24 32 C 28.4183 32 32 28.4183 32 24 C 32 19.5817 28.4183 16 24 16 z M 24 20 A 4 4 0 0 1 28 24 A 4 4 0 0 1 24 28 A 4 4 0 0 1 20 24 A 4 4 0 0 1 24 20 z"/>
</svg>
