<svg width="48" height="48" version="1.1" xmlns="http://www.w3.org/2000/svg">
 <circle cx="24" cy="25" r="20" style="opacity:.2"/>
 <circle cx="24" cy="24" r="20" style="fill:#6a1b9a"/>
 <path d="M 24,4 A 20,20 0 0 0 4,24 20,20 0 0 0 4.0351562,24.5 20,20 0 0 1 24,5 20,20 0 0 1 43.982422,24.25 20,20 0 0 0 44,24 20,20 0 0 0 24,4 Z" style="fill:#ffffff;opacity:.2"/>
 <path d="m38.476562 10.208984-9.097656 7.623047-0.785156 2.015625c-0.118377-0.04448-0.251592-0.074218-0.384766-0.074218-0.251549 0-0.502949 0.104142-0.695312 0.296874-0.384724 0.385466-0.384724 1.022753 0 1.408204 0.192363 0.192732 0.444589 0.296875 0.710937 0.296875 0.251551 0 0.503778-0.104143 0.710938-0.296875 0.295943-0.296506 0.368675-0.726219 0.220703-1.082032l2.013672-0.785156 7.613281-9.080078a20 20 0 0 0-0.306641-0.322266zm-20.269531 0.791016c-2.343314 0.01324-4.434675 0.746548-5.947265 2.253906-2.065063 2.063816-2.7381378 5.240212-1.917969 8.94336 0.214482 0.944072 0.520311 1.892915 0.910156 2.835937-1.6317061 4.277647-1.7156672 8.259832 0.027344 10.46875l0.849609-1.009765c-1.149863-2.086619-1.152919-4.920868-0.154297-7.90625 0.797105 1.544407 1.815271 3.053314 3.025391 4.466796l0.804688-0.966796c-1.344794-1.610951-2.434466-3.332639-3.214844-5.076172 1.023974-2.299357 2.612938-4.625932 4.708984-6.720704 2.052257-2.051002 4.36152-3.6592 6.712891-4.699218 1.71312 0.767794 3.439914 1.848904 5.076172 3.220703l0.966797-0.804688c-1.438574-1.225099-2.954311-2.235046-4.482422-3.019531 0.504058-0.167031 1.008178-0.310689 1.509765-0.421875 2.519089-0.570814 4.745416-0.365502 6.429688 0.556641l1.009765-0.847656c-1.379457-0.875503-3.076662-1.308153-4.988281-1.269532-0.86892 0.01754-1.781111 0.13267-2.728515 0.347656-0.93962 0.209957-1.886807 0.512321-2.826172 0.898438-1.973961-0.83488-3.948907-1.260298-5.771485-1.25zm-0.054687 1.226562c1.340262-0.014059 2.791698 0.238804 4.279297 0.740235-2.119439 1.089514-4.172552 2.596587-6.011719 4.443359-1.882849 1.881708-3.373357 3.950239-4.441406 6.041016-0.173179-0.512144-0.319586-1.023812-0.435547-1.533203-0.732292-3.264043-0.175473-6.030674 1.582031-7.78711 1.268696-1.267922 3.024927-1.883433 5.027344-1.904297zm18.582031 2.25586-0.849609 1.009766c0.702999 1.288061 0.981416 2.897917 0.820312 4.71289 0.366147 0.585479 0.703175 1.156709 0.996094 1.742188 0.615124-2.927393 0.278103-5.518132-0.966797-7.464844zm-12.763672 2.517578c-4.400747 0-7.970703 3.59696-7.970703 8.03125 0 1.554291 0.437721 2.986414 1.208984 4.220703l0.439454-0.167969c0.075609-0.457142 0.272264-0.869464 0.589843-1.189453 0.06049-0.06096 0.135325-0.120306 0.210938-0.166015-0.393191-0.822855-0.634766-1.737641-0.634766-2.712891 0-3.428572 2.767283-6.216797 6.169922-6.216797 0.967863 0 1.876729 0.227223 2.693359 0.638672 0.06049-0.0762 0.105525-0.151942 0.166016-0.212891 0.317581-0.320017 0.709874-0.517146 1.148438-0.578125l0.166015-0.443359c-1.224949-0.761919-2.644972-1.203125-4.1875-1.203125zm9.029297 1.933594-0.806641 0.964844c1.373335 1.636134 2.456285 3.365754 3.22461 5.080078l-0.03125 0.072265c-1.054503 2.341929-2.665395 4.653887-4.671875 6.644531-2.943818 2.942058-6.414659 4.978095-9.783203 5.72461-2.519089 0.570844-4.745414 0.364496-6.429688-0.572266l-1.011719 0.84961c1.332773 0.863606 3.096024 1.302734 4.91211 1.302734 0.937332 0 1.781431-0.131026 2.80664-0.365234 3.602883-0.80498 7.294489-2.957497 10.384766-6.060547 1.826504-1.825375 3.347886-3.888521 4.445312-6.019531 1.251751 3.711242 0.952026 7.191256-1.166015 9.298828-1.596399 1.595442-4.100121 2.194951-7 1.726562-0.541897 0.336635-1.097756 0.643777-1.654297 0.921875 1.230251 0.322031 2.400588 0.498047 3.513672 0.498047 2.431208 0 4.525653-0.760964 6.019531-2.253906 3.866506-3.878835 2.564492-11.562499-2.751953-17.8125zm-2.195312 1.814453-0.4375 0.167969c-0.09074 0.457142-0.28789 0.869435-0.605469 1.189453-0.06049 0.06097-0.135324 0.122245-0.210938 0.167969 0.393195 0.822839 0.634766 1.735701 0.634766 2.710937 0 3.428572-2.767282 6.216797-6.169922 6.216797-0.967861 0-1.874774-0.227237-2.691406-0.638672-0.06049 0.07621-0.107479 0.151912-0.167969 0.212891-0.317584 0.319987-0.709876 0.51719-1.148438 0.578125l-0.166015 0.443359c1.22495 0.761875 2.644969 1.203125 4.1875 1.203125 4.400745 0 7.970703-3.596961 7.970703-8.03125 0-1.554277-0.43917-2.986414-1.195312-4.220703zm-6.804688 0.251953a3.9999999 3.9999999 0 0 0-4 4 3.9999999 3.9999999 0 0 0 4 4 3.9999999 3.9999999 0 0 0 4-4 3.9999999 3.9999999 0 0 0-4-4zm-4.224609 7.224609c-0.25155 0-0.503778 0.104143-0.710938 0.296875-0.295941 0.296505-0.368675 0.72622-0.220703 1.082032l-2.013672 0.785156-6.683594 7.970703a20 20 0 0 0 0.490235 0.490234l7.955078-6.695312 0.783203-2.017578c0.118377 0.04447 0.251591 0.074219 0.384766 0.074219 0.25155 0 0.502949-0.104143 0.695312-0.296876 0.384726-0.385465 0.384726-1.022752 0-1.408203-0.177566-0.192732-0.428136-0.28125-0.679687-0.28125zm-0.865235 4.935547-0.966797 0.804688c0.849459 0.731852 1.743326 1.390121 2.666016 1.990234 0.3515-0.117076 1.083064-0.409332 1.390625-0.599609-1.142378-0.658636-2.035342-1.317073-3.089844-2.195313z" style="opacity:.2"/>
 <g transform="matrix(.14797157 0 0 .14797157 154.90297 240.5195)" style="fill:none">
  <circle class="st1" cx="-884.64948" cy="-1463.2507" r="27.032219" style="fill:#ffffff"/>
  <path class="st1" d="m-781.10013-1568.0005-67.2006 56.3077-5.29992 13.6256c-0.8-0.3006-1.69955-0.5005-2.59955-0.5005-1.7 0-3.39966 0.7006-4.69966 2.0031-2.6 2.605-2.6 6.9134 0 9.5183 1.3 1.3025 3.00049 2.0046 4.80049 2.0046 1.7 0 3.39892-0.7021 4.79892-2.0046 2-2.0038 2.49986-4.9085 1.49986-7.3131l13.60113-5.3101 56.29985-67.1282zm-132.09943 126.5409c-1.7 0-3.4005 0.7021-4.8005 2.0046-1.99999 2.0038-2.49985 4.9086-1.49985 7.3132l-13.59957 5.31-56.29984 67.1282 1.19894 1.2028 67.00052-56.4071 5.29992-13.6271c0.8 0.3005 1.69955 0.5019 2.59955 0.5019 1.7 0 3.39966-0.7021 4.69966-2.0046 2.6-2.605 2.6-6.9134 0-9.5183-1.2-1.3025-2.89883-1.9036-4.59883-1.9036z" style="fill:#ffffff"/>
  <path class="st1" d="m-884.85395-1517.3151c-29.74055 0-53.85995 24.3033-53.85995 54.2705 0 10.504 2.96414 20.1844 8.1764 28.5258l2.96431-1.1325c0.511-3.0894 1.83893-5.8702 3.98516-8.0327 0.40881-0.412 0.92042-0.8236 1.43142-1.1325-2.65721-5.5609-4.29268-11.7395-4.29268-18.3303 0-23.1705 18.70313-42.0164 41.69839-42.0164 6.54088 0 12.67276 1.5451 18.19161 4.3257 0.40881-0.515 0.7151-1.0305 1.1239-1.4424 2.14624-2.1627 4.80359-3.5014 7.76743-3.9135l1.1239-2.9868c-8.27829-5.1491-17.88538-8.1349-28.30989-8.1349zm46.19557 25.3328-2.96431 1.134c-0.6132 3.0894-1.94037 5.8684-4.08659 8.0311-0.4088 0.412-0.92043 0.8251-1.43143 1.1341 2.65723 5.5608 4.29268 11.7396 4.29268 18.3303 0 23.1705-18.70311 42.0161-41.69838 42.0161-6.54087 0-12.67275-1.5449-18.19161-4.3254-0.40882 0.515-0.7151 1.0287-1.12389 1.4408-2.14625 2.1625-4.80361 3.5014-7.76744 3.9132l-1.1255 2.9871c8.2783 5.1488 17.88536 8.1348 28.30989 8.1348 29.74054 0 53.85994-24.3033 53.85994-54.2705 0-10.5039-2.96329-20.1842-8.07336-28.5256z" style="fill:#ffffff"/>
  <path class="st1" d="m-847.25562-1557.8424c-5.87221 0.1185-12.04169 0.8956-18.44432 2.3485-6.35001 1.4189-12.74004 3.47-19.08833 6.0794-30.49179-12.8964-61.02487-11.3308-79.19765 6.7791-13.95583 13.9474-18.50895 35.4132-12.96619 60.4393 1.44948 6.3801 3.51556 12.7987 6.15016 19.1717-11.02718 28.9086-11.59384 55.817 0.18557 70.745l5.74007-6.8258c-7.77087-14.1016-7.78573-33.2477-1.03698-53.4231 5.38689 10.4372 12.25912 20.6252 20.43719 30.1776l5.4438-6.5283c-9.08821-10.8869-16.45142-22.5182-21.72526-34.3011 6.92008-15.5392 17.65542-31.2702 31.82064-45.4268 13.86929-13.8609 29.47156-24.7294 45.36229-31.7579 11.57738 5.1888 23.25614 12.4961 34.31408 21.7669l6.5338-5.4406c-9.72198-8.2793-19.96695-15.0968-30.29403-20.3984 3.40646-1.1288 6.81168-2.0959 10.20145-2.8473 17.02417-3.8576 32.06805-2.4729 43.45048 3.759l6.83009-5.7364c-9.32247-5.9167-20.798-8.8418-33.71686-8.5808zm-76.9116 8.2736c9.05758-0.095 18.86069 1.6138 28.91398 5.0025-14.32331 7.363-28.19257 17.5427-40.62179 30.0234-12.72442 12.7167-22.80317 26.6997-30.02111 40.8293-1.17036-3.4611-2.15576-6.9195-2.93943-10.362-4.94888-22.0586-1.18779-40.7536 10.68954-52.6237 8.57393-8.5687 20.44633-12.7285 33.97881-12.8695zm125.57351 15.2431-5.74006 6.8244c4.75092 8.7048 6.63078 19.587 5.54203 31.8527 2.47444 3.9567 4.75071 7.8141 6.73027 11.7708 4.15706-19.7835 1.88088-37.2918-6.53224-50.4479zm-25.23851 30.0715-5.44379 6.5282c9.28109 11.0571 16.59523 22.7436 21.78762 34.3291l-0.21052 0.4894c-7.1264 15.8269-18.01432 31.4565-31.57425 44.9094-19.89452 19.8826-43.35273 33.6307-66.11759 38.6757-17.02417 3.8578-32.06805 2.4735-43.45049-3.8572l-6.83006 5.7365c9.00697 5.8363 20.9128 8.8052 33.18603 8.8052 6.33456 0 12.04669-0.8906 18.97513-2.4734 24.34852-5.4401 49.29077-19.9818 70.17507-40.9524 12.34365-12.336 22.62334-26.2749 30.03983-40.6764 8.45942 25.0808 6.44527 48.5911-7.86859 62.8342-10.78858 10.7821-27.71394 14.8382-47.31152 11.6728-3.66217 2.275-7.42269 4.3512-11.18383 6.2306 8.31412 2.1763 16.23169 3.3646 23.75399 3.3646 16.43028 0 30.58371-5.1441 40.67944-15.2335 26.13011-26.2134 17.32242-78.1449-18.60647-120.3828zm-95.21712 96.1475-6.53222 5.4405c5.7407 4.9459 11.77832 9.3966 18.01391 13.4522 2.37547-0.7912 7.32452-2.7691 9.40304-4.055-7.72026-4.4512-13.75834-8.9025-20.88473-14.8377z" style="fill:#ffffff"/>
 </g>
 <style id="style849" type="text/css">.st0{fill:#662D91;}
	.st1{fill:#FFFFFF;}
	.st2{fill:#36204F;}
	.st3{fill:url(#SVGID_1_);}
	.st4{fill:url(#SVGID_00000054257414562981228120000001574687163085119653_);}
	.st5{fill:url(#SVGID_00000072998375269293171440000018213926298751993760_);}
	.st6{fill:url(#SVGID_00000014615508004562851300000006094527432216711301_);}
	.st7{fill:url(#SVGID_00000013161522689771818110000010315873926876005009_);}
	.st8{clip-path:url(#SVGID_00000144319605520673463540000011190800844866639500_);fill:#FFFFFF;}
	.st9{clip-path:url(#SVGID_00000144319605520673463540000011190800844866639500_);fill:#3375C6;}
	.st10{opacity:0.5;fill:url(#SVGID_00000103236622958962217100000000896203148096719288_);}
	.st11{opacity:0.39;fill:url(#SVGID_00000001625125440351536700000010266301937016667048_);}
	.st12{fill:url(#SVGID_00000124141742389249847090000005945901909340613275_);}
	.st13{fill:url(#XMLID_00000072986874545207087730000001673768990059418281_);}
	.st14{fill:url(#XMLID_00000053514400916280977180000006774919194279780226_);}
	.st15{fill:url(#XMLID_00000172411063983058279480000005865108757823933591_);}</style>
 <style id="style2812" type="text/css">.st0{fill:#662D91;}
	.st1{fill:#FFFFFF;}
	.st2{fill:#36204F;}
	.st3{fill:url(#SVGID_1_);}
	.st4{fill:url(#SVGID_00000054257414562981228120000001574687163085119653_);}
	.st5{fill:url(#SVGID_00000072998375269293171440000018213926298751993760_);}
	.st6{fill:url(#SVGID_00000014615508004562851300000006094527432216711301_);}
	.st7{fill:url(#SVGID_00000013161522689771818110000010315873926876005009_);}
	.st8{clip-path:url(#SVGID_00000144319605520673463540000011190800844866639500_);fill:#FFFFFF;}
	.st9{clip-path:url(#SVGID_00000144319605520673463540000011190800844866639500_);fill:#3375C6;}
	.st10{opacity:0.5;fill:url(#SVGID_00000103236622958962217100000000896203148096719288_);}
	.st11{opacity:0.39;fill:url(#SVGID_00000001625125440351536700000010266301937016667048_);}
	.st12{fill:url(#SVGID_00000124141742389249847090000005945901909340613275_);}
	.st13{fill:url(#XMLID_00000072986874545207087730000001673768990059418281_);}
	.st14{fill:url(#XMLID_00000053514400916280977180000006774919194279780226_);}
	.st15{fill:url(#XMLID_00000172411063983058279480000005865108757823933591_);}</style>
 <style id="style242" type="text/css">.st0{fill:#662D91;}
	.st1{fill:#FFFFFF;}
	.st2{fill:#36204F;}
	.st3{fill:url(#SVGID_1_);}
	.st4{fill:url(#SVGID_00000054257414562981228120000001574687163085119653_);}
	.st5{fill:url(#SVGID_00000072998375269293171440000018213926298751993760_);}
	.st6{fill:url(#SVGID_00000014615508004562851300000006094527432216711301_);}
	.st7{fill:url(#SVGID_00000013161522689771818110000010315873926876005009_);}
	.st8{clip-path:url(#SVGID_00000144319605520673463540000011190800844866639500_);fill:#FFFFFF;}
	.st9{clip-path:url(#SVGID_00000144319605520673463540000011190800844866639500_);fill:#3375C6;}
	.st10{opacity:0.5;fill:url(#SVGID_00000103236622958962217100000000896203148096719288_);}
	.st11{opacity:0.39;fill:url(#SVGID_00000001625125440351536700000010266301937016667048_);}
	.st12{fill:url(#SVGID_00000124141742389249847090000005945901909340613275_);}
	.st13{fill:url(#XMLID_00000072986874545207087730000001673768990059418281_);}
	.st14{fill:url(#XMLID_00000053514400916280977180000006774919194279780226_);}
	.st15{fill:url(#XMLID_00000172411063983058279480000005865108757823933591_);}</style>
</svg>
