<svg xmlns="http://www.w3.org/2000/svg" xmlns:xlink="http://www.w3.org/1999/xlink" width="48" height="48" version="1.1">
 <path style="opacity:0.2" d="m 24,13 c 2.590909,0 19,0 19,11.288978 v 9.422043 C 43,45 42.136364,45 24,45 20.545455,45 5.0000002,45 5,33.711021 V 24.288978 C 5.0000002,13 21.409091,13 24,13 Z"/>
 <path style="fill:none;stroke:#37474f;stroke-width:1.5" d="m 19,6 4.5,6"/>
 <path style="fill:none;stroke:#37474f;stroke-width:1.5" d="m 28.999834,6 -3.5,6"/>
 <ellipse style="fill:#37474f" cx="24" cy="12.5" rx="7" ry="2.5"/>
 <circle style="opacity:0.2" cx="19" cy="7" r="2"/>
 <circle style="fill:#455a64" cx="19" cy="6" r="2"/>
 <path style="fill:#455a64" d="m 24,12 c 2.590909,0 19,0 19,11.288978 v 9.422043 C 43,44 42.136364,44 24,44 20.545455,44 5.0000002,44 5,32.711021 V 23.288978 C 5.0000002,12 21.409091,12 24,12 Z"/>
 <circle style="opacity:0.2" cx="38.5" cy="39.5" r="2.5"/>
 <circle style="fill:#ffffff" cx="38.5" cy="38.5" r="2.5"/>
 <path style="opacity:0.3" d="m 22,16 c 1.909092,0 14,0 14,8.466734 v 7.066532 C 36,40 24.545455,40 22,40 19.454546,40 8,40 8,31.533266 V 24.466734 C 8,16 20.090908,16 22,16 Z"/>
 <path style="opacity:0.5;fill:none;stroke:#26a69a;stroke-width:3;stroke-linecap:round" d="M 22.000115,21.5 17.5,35.5"/>
 <path style="opacity:0.5;fill:none;stroke:#26a69a;stroke-width:3;stroke-linecap:round" d="m 31.5,21.5 -4,14"/>
 <path style="opacity:0.2;fill:none;stroke:#000000;stroke-width:3;stroke-linecap:round" d="m 12.5,22.499872 5,14"/>
 <path style="fill:none;stroke:#26a69a;stroke-width:3;stroke-linecap:round" d="m 12.5,21.5 5,14"/>
 <path style="opacity:0.2;fill:none;stroke:#000000;stroke-width:3;stroke-linecap:round" d="m 22.000115,22.499872 5.499885,14"/>
 <path style="fill:none;stroke:#26a69a;stroke-width:3;stroke-linecap:round" d="M 22.000115,21.5 27.5,35.5"/>
 <circle style="opacity:0.2" cx="29" cy="7" r="2"/>
 <circle style="fill:#455a64" cx="29" cy="6" r="2"/>
 <path style="opacity:0.1;fill:#ffffff" d="M 19 4 A 2 2 0 0 0 17 6 A 2 2 0 0 0 17.064453 6.5039062 A 2 2 0 0 1 19 5 A 2 2 0 0 1 20.935547 6.4960938 A 2 2 0 0 0 21 6 A 2 2 0 0 0 19 4 z"/>
 <path style="opacity:0.1;fill:#ffffff" d="M 24 12 C 21.409091 12 5.0000002 12.000084 5 23.289062 L 5 24.289062 C 5.0000002 13.000084 21.409091 13 24 13 C 26.590909 13 43 13.000084 43 24.289062 L 43 23.289062 C 43 12.000084 26.590909 12 24 12 z"/>
 <path style="opacity:0.1;fill:#ffffff" d="M 29,4 A 2,2 0 0 0 27,6 2,2 0 0 0 27.064453,6.5039062 2,2 0 0 1 29,5 2,2 0 0 1 30.935547,6.4960938 2,2 0 0 0 31,6 2,2 0 0 0 29,4 Z"/>
</svg>
