<svg xmlns="http://www.w3.org/2000/svg" width="48" height="48" version="1.1">
 <rect style="opacity:0.2" width="40" height="40" x="4" y="5" ry="8"/>
 <rect style="fill:#3a54b4" width="40" height="40" x="4" y="4" ry="8"/>
 <path style="opacity:0.2" d="M 32.613281,5 31.857422,11.558594 31,19 37.873047,16.021484 44,13.367188 V 13 c 0,-0.178055 -0.01405,-0.352253 -0.02539,-0.527344 L 38.730469,8.5820312 33.902344,5 Z m 1.691407,2.7890625 3.232421,2.3984375 3.234375,2.398438 -3.695312,1.601562 -3.69336,1.599609 0.460938,-3.998047 z M 4,30.361328 v 2.113281 l 0.1757812,0.06055 9.1914068,3.144532 -2.941407,8.580078 -0.185547,0.541015 C 10.80658,44.927077 11.394506,45 12,45 h 0.287109 l 0.03125,-0.0918 3.589844,-10.472656 -11.0839842,-3.792969 z"/>
 <path style="fill:#139ffb" d="M 32.613281 4 L 31.857422 10.558594 L 31 18 L 37.873047 15.021484 L 44 12.367188 L 44 12 C 44 11.821945 43.985952 11.647747 43.974609 11.472656 L 38.730469 7.5820312 L 33.902344 4 L 32.613281 4 z M 34.304688 6.7890625 L 37.537109 9.1875 L 40.771484 11.585938 L 37.076172 13.1875 L 33.382812 14.787109 L 33.84375 10.789062 L 34.304688 6.7890625 z M 4 29.361328 L 4 31.474609 L 4.1757812 31.535156 L 13.367188 34.679688 L 10.425781 43.259766 L 10.240234 43.800781 C 10.80658 43.927077 11.394506 44 12 44 L 12.287109 44 L 12.318359 43.908203 L 15.908203 33.435547 L 4.8242188 29.642578 L 4 29.361328 z"/>
 <path stroke="#139ffb" stroke-linecap="square" stroke-width="2.626" style="opacity:0.2;fill:none;stroke:#000000;stroke-width:1.99972" d="m 42.489395,30.584353 -4.933371,2.930253 2.859626,4.974789 -2.930255,-4.933366 -4.97479,2.859621 4.933368,-2.930253 -2.859621,-4.97479 2.930251,4.933368 z"/>
 <path stroke="#139ffb" stroke-linecap="square" stroke-width="2.626" style="fill:none;stroke-width:1.99972" d="m 42.489395,29.584353 -4.933371,2.930253 2.859626,4.974789 -2.930255,-4.933366 -4.97479,2.859621 4.933368,-2.930253 -2.859621,-4.97479 2.930251,4.933368 z"/>
 <path stroke="#ffffff" stroke-linecap="square" stroke-linejoin="round" stroke-width="2.32" style="opacity:0.2;fill:none;stroke:#000000;stroke-width:4" d="M 28,33 V 13 L 13,29 h 19"/>
 <path stroke="#ffffff" stroke-linecap="square" stroke-linejoin="round" stroke-width="2.32" style="fill:none;stroke-width:4" d="M 28,32 V 12 L 13,28 h 19"/>
 <path stroke="#139ffb" stroke-linecap="round" stroke-width="2.192" style="opacity:0.2;fill:none;stroke:#000000;stroke-width:2.0002" d="m 16.999896,15.00004 a 4.9999383,4.9998214 0 0 1 -4.98017,4.999821 4.9999383,4.9998214 0 0 1 -5.0194672,-4.960315 4.9999383,4.9998214 0 0 1 4.9404002,-5.039089 4.9999383,4.9998214 0 0 1 5.058525,4.920334" stop-color="#000000"/>
 <path stroke="#139ffb" stroke-linecap="round" stroke-width="2.192" style="fill:none;stroke-width:2.0002" d="m 16.999896,14.00004 a 4.9999383,4.9998214 0 0 1 -4.98017,4.999821 4.9999383,4.9998214 0 0 1 -5.0194672,-4.960315 4.9999383,4.9998214 0 0 1 4.9404002,-5.0390895 4.9999383,4.9998214 0 0 1 5.058525,4.9203345" stop-color="#000000"/>
 <path style="opacity:0.1;fill:#ffffff" d="M 12 4 C 7.568 4 4 7.568 4 12 L 4 13 C 4 8.568 7.568 5 12 5 L 36 5 C 40.432 5 44 8.568 44 13 L 44 12 C 44 7.568 40.432 4 36 4 L 12 4 z"/>
 <path style="fill:#ffffff;opacity:0.2" d="M 11.929688 8 C 8.6371588 8.0391051 5.9739065 10.754258 6 14.046875 C 6.0011194 14.188669 6.0125496 14.327465 6.0234375 14.466797 C 6.2929916 11.441672 8.8330381 9.0367787 11.929688 9 C 15.09025 8.9625685 17.722206 11.405786 17.974609 14.513672 C 17.989201 14.343839 18.000001 14.173459 18 14 A 1.0001 1.0001 0 0 0 17.988281 13.970703 A 1.0001 1.0001 0 0 0 18 13.904297 C 17.947883 10.612065 15.222138 7.9610065 11.929688 8 z M 15.966797 14.496094 C 15.725147 16.473531 14.061768 17.99191 12.015625 18 C 9.9626127 18.008083 8.2817011 16.493127 8.0332031 14.507812 C 8.0124399 14.679387 7.9985915 14.853522 8 15.03125 C 8.0174812 17.245676 9.8010579 19.008719 12.015625 19 C 14.230209 18.991244 16.000017 17.214512 16 15 A 1.0001 1.0001 0 0 1 16.019531 14.980469 A 1.0001 1.0001 0 0 1 16 14.9375 C 15.997636 14.788171 15.98478 14.640794 15.966797 14.496094 z M 35.443359 27 L 33.716797 28.009766 L 33.724609 28.021484 L 34.148438 28.757812 L 35.443359 28 L 35.451172 28.011719 L 35.476562 28.056641 L 37.871094 32.085938 L 41.978516 29.724609 L 41.990234 29.716797 L 42.566406 30.701172 L 42.943359 30.476562 L 42.988281 30.451172 L 43 30.443359 L 41.990234 28.716797 L 41.978516 28.724609 L 37.871094 31.085938 L 35.476562 27.056641 L 35.451172 27.011719 L 35.443359 27 z M 35.658203 32.382812 L 32.056641 34.523438 L 32.011719 34.548828 L 32 34.556641 L 32.433594 35.298828 L 36.085938 33.128906 L 35.658203 32.382812 z M 39.341797 33.617188 L 38.914062 33.871094 L 40.851562 37.242188 L 41.283203 36.990234 L 41.275391 36.978516 L 39.341797 33.617188 z"/>
 <path style="fill:#ffffff;opacity:0.2" d="M 32.613281 4 L 31.857422 10.558594 L 31 18 L 31.121094 17.947266 L 31.857422 11.558594 L 32.613281 5 L 33.902344 5 L 38.730469 8.5820312 L 43.894531 12.412109 L 44 12.367188 L 44 12 C 44 11.821945 43.985952 11.647747 43.974609 11.472656 L 38.730469 7.5820312 L 33.902344 4 L 32.613281 4 z M 39.919922 11.955078 L 37.076172 13.1875 L 33.503906 14.734375 L 33.382812 15.787109 L 37.076172 14.1875 L 40.771484 12.585938 L 39.919922 11.955078 z M 4 29.361328 L 4 30.361328 L 4.8242188 30.642578 L 15.601562 34.330078 L 15.908203 33.435547 L 4.8242188 29.642578 L 4 29.361328 z M 13.060547 35.574219 L 10.425781 43.259766 L 10.240234 43.800781 C 10.346333 43.824441 10.456866 43.835683 10.564453 43.855469 L 13.367188 35.679688 L 13.060547 35.574219 z"/>
</svg>
