<svg xmlns="http://www.w3.org/2000/svg" width="48" height="48" version="1.1">
 <g transform="translate(-7.119993,2.8995742)">
  <path style="opacity:0.2" class="st0" d="m 51.082386,8.8408913 c 0,-3.9248782 -3.139901,-7.2075034 -7.136141,-7.3502262 -0.07136,0 -0.214084,0 -0.285445,0 h -2.997181 c -1.641312,0 -2.997179,1.3558669 -2.997179,2.9971795 v 4.4244081 4.4244083 c 0,1.641312 1.355867,2.997179 2.997179,2.997179 h 1.855398 c -2.426288,7.921118 -8.706094,14.200922 -16.627211,16.698572 v -1.855397 c 0,-1.641313 -1.355867,-2.997179 -2.997179,-2.997179 h -4.424409 -4.353045 c -1.641313,0.07136 -2.99718,1.284505 -2.99718,2.925818 v 2.997179 c 0,0.07136 0,0.214084 0,0.285446 0.142723,3.924878 3.425348,7.06478 7.350225,7.06478 v 0 c 17.983078,0 32.612168,-14.557729 32.612168,-32.6121677 0,0.071361 0,0.071361 0,0 z"/>
  <path style="fill:#4bae4f" class="st1" d="m 18.470419,40.851388 v -7.461182 c 13.917973,0 25.181487,-11.263514 25.181487,-25.1814877 h 7.461182 c 0,18.0072747 -14.635395,32.6426697 -32.642669,32.6426697 z"/>
  <path style="fill:#79de7d" class="st2" d="m 40.789125,0.7477927 c -1.650068,0 -2.941427,1.2913584 -2.941427,2.9414274 v 4.4480119 4.448012 c 0,1.65007 1.291359,2.941428 2.941427,2.941428 h 2.941428 c 4.089301,0 7.38944,-3.300138 7.38944,-7.38944 0,-3.945817 -3.156654,-7.24595504 -7.102472,-7.3894393 -0.07174,0 -0.215226,0 -0.286968,0 z"/>
  <path style="fill:#79de7d" class="st2" d="m 11.152721,30.519686 c 0,-1.650069 1.291358,-2.797943 2.941427,-2.941427 h 4.448013 4.448012 c 1.650068,0 2.941427,1.291358 2.941427,2.941427 v 2.941428 c 0,4.089301 -3.300138,7.389439 -7.389439,7.389439 -3.945818,0 -7.245956,-3.156654 -7.38944,-7.102471 0,-0.07174 0,-0.215227 0,-0.286968 z"/>
  <path style="opacity:0.1;fill:#ffffff" class="st3" d="m 14.094148,27.578259 c -1.650069,0.143484 -2.941427,1.291358 -2.941427,2.941427 v 0.717421 c 0,-1.650069 1.291358,-2.797943 2.941427,-2.941427 h 4.448013 4.448012 c 1.650068,0 2.941427,1.291358 2.941427,2.941427 v -0.717421 c 0,-1.650069 -1.291359,-2.941427 -2.941427,-2.941427 h -4.448012 z"/>
  <path style="opacity:0.1;fill:#ffffff" class="st3" d="m 40.789125,0.7477927 c -1.650068,0 -2.941427,1.2913584 -2.941427,2.9414274 v 0.7174213 c 0,-1.650069 1.291359,-2.9414274 2.941427,-2.9414274 h 2.941428 0.286968 c 3.802333,0.1434843 6.887245,3.2283959 7.102471,7.0307291 0,-0.1434843 0,-0.2152268 0,-0.3587111 0,-3.945817 -3.156653,-7.24595504 -7.102471,-7.3894393 h -0.286968 z"/>
 </g>
</svg>
