<svg width="48" height="48" version="1.1" xmlns="http://www.w3.org/2000/svg">
 <g>
  <g style="fill:#8e8e8e">
   <rect transform="rotate(90)" x="27" y="-44" width="2" height="40"/>
   <rect transform="rotate(90)" x="23" y="-44" width="2" height="40"/>
   <rect transform="rotate(90)" x="19" y="-44" width="2" height="40"/>
   <rect transform="rotate(90)" x="15" y="-44" width="2" height="40"/>
   <rect transform="rotate(90)" x="31" y="-44" width="2" height="40"/>
   <rect transform="rotate(90)" x="35" y="-44" width="2" height="40"/>
   <rect transform="rotate(90)" x="39" y="-44" width="2" height="40"/>
   <rect transform="rotate(90)" x="11" y="-44" width="2" height="40"/>
   <rect transform="rotate(90)" x="7" y="-44" width="2" height="40"/>
   <rect x="23" y="4" width="2" height="40"/>
   <rect x="19" y="4" width="2" height="40"/>
   <rect x="15" y="4" width="2" height="40"/>
   <rect x="11" y="4" width="2" height="40"/>
   <rect x="27" y="4" width="2" height="40"/>
   <rect x="31" y="4" width="2" height="40"/>
   <rect x="35" y="4" width="2" height="40"/>
   <rect x="7" y="4" width="2" height="40"/>
   <rect x="39" y="4" width="2" height="40"/>
  </g>
  <rect transform="matrix(0,-1,-1,0,0,0)" x="-43" y="-42" width="36" height="36" rx="2" ry="2" style="opacity:.2"/>
  <rect transform="matrix(0,-1,-1,0,0,0)" x="-42" y="-42" width="36" height="36" rx="2" ry="2" style="fill:#b7b7b7"/>
  <path d="m8 6c-1.108 0-2 0.892-2 2v1c0-1.108 0.892-2 2-2h32c1.108 0 2 0.892 2 2v-1c0-1.108-0.892-2-2-2z" style="fill:#ffffff;opacity:.2"/>
 </g>
 <path d="m31 20h-4s0-1-1-1h-4c-1 0-1 1-1 1v2s0 1 1 1h6c3 0 3 3 3 3v6s0 3-3 3h-8c-3 0-3-3-3-3v-2h4s0 1 1 1h4c1 0 1-1 1-1v-2s0-1-1-1h-6c-3 0-3-3-3-3v-6s0-3 3-3h8c3 0 3 3 3 3z" style="opacity:.1"/>
 <path d="m31 19h-4s0-1-1-1h-4c-1 0-1 1-1 1v2s0 1 1 1h6c3 0 3 3 3 3v6s0 3-3 3h-8c-3 0-3-3-3-3v-2h4s0 1 1 1h4c1 0 1-1 1-1v-2s0-1-1-1h-6c-3 0-3-3-3-3v-6s0-3 3-3h8c3 0 3 3 3 3z" style="fill:#008282"/>
</svg>
