<svg xmlns="http://www.w3.org/2000/svg" width="48" height="48" version="1.1">
 <g transform="translate(-11,6)">
  <path style="opacity:0.2" d="M 18,5 C 16.338,5 15,6.338 15,8 V 36 C 15,37.662 16.338,39 18,39 H 44 V 5 Z"/>
  <rect style="fill:#456048" width="9" height="34" x="15" y="4" rx="3" ry="3"/>
  <rect style="fill:#3d944e" width="23" height="34" x="21" y="4"/>
  <path style="fill:#c8cc8c" d="M 16,35 C 16.02,36.935 18,37 18,37 H 44 V 33 H 18 C 18,33 15.98,33.065 16,35 Z"/>
  <path style="opacity:0.2" d="M 18,33 C 18,33 15.98,33.065 16,35 16.002,35.176 16.025,35.332 16.057,35.479 16.37,34.058 18,34 18,34 H 44 V 33 Z"/>
  <path style="opacity:0.1;fill:#ffffff" d="M 18,4 C 16.338,4 15,5.338 15,7 V 8 C 15,6.338 16.338,5 18,5 H 44 V 4 Z"/>
 </g>
 <path style="opacity:0.2" d="M 18,5 C 16.338,5 15,6.338 15,8 V 36 C 15,37.662 16.338,39 18,39 H 44 V 5 Z"/>
 <rect style="fill:#6c5353" width="9" height="34" x="15" y="4" rx="3" ry="3"/>
 <rect style="fill:#957575" width="23" height="34" x="21" y="4"/>
 <path style="fill:#c8cc8c" d="M 16,35 C 16.02,36.935 18,37 18,37 H 44 V 33 H 18 C 18,33 15.98,33.065 16,35 Z"/>
 <path style="opacity:0.2" d="M 18 33 C 18 33 15.98 33.065 16 35 C 16.002 35.176 16.025 35.332 16.057 35.479 C 16.37 34.058 18 34 18 34 L 44 34 L 44 33 L 18 33 z"/>
 <path style="opacity:0.1;fill:#ffffff" d="M 18 4 C 16.338 4 15 5.338 15 7 L 15 8 C 15 6.338 16.338 5 18 5 L 44 5 L 44 4 L 18 4 z"/>
</svg>
