<svg xmlns="http://www.w3.org/2000/svg" width="48" height="48" version="1">
 <path fill="#ffc947" d="m24 4c-1.911 0-3.752 0.2813-5.5 0.7773 8.386 2.38 14.5 10.054 14.5 19.223s-6.114 16.843-14.5 19.223c1.748 0.496 3.589 0.777 5.5 0.777 11.08 0 20-8.92 20-20s-8.92-20-20-20z"/>
 <path fill="#478aff" d="m14.927 26.993 2.5994 5.2669 5.8123 0.84458-4.2058 4.0997 0.99287 5.7889-5.1987-2.7331-5.1987 2.7331 0.99287-5.7889-4.2058-4.0997 5.8123-0.84458z" transform="matrix(1.0105 0 0 1 -1.5833 .0072791)"/>
 <path fill="#6fa4ff" d="m19.823 13.163 2.2744 4.6085 5.0858 0.73901-3.6801 3.5872 0.86876 5.0652-4.5489-2.3915-4.5489 2.3915 0.86876-5.0652-3.6801-3.5872 5.0858-0.73901z" transform="matrix(.88312 0 0 .85714 2.9937 6.7178)"/>
 <path fill="#90b9ff" d="m19.823 13.163 2.2744 4.6085 5.0858 0.73901-3.6801 3.5872 0.86876 5.0652-4.5489-2.3915-4.5489 2.3915 0.86876-5.0652-3.6801-3.5872 5.0858-0.73901z" transform="matrix(.61139 0 0 .57143 2.3803 4.4785)"/>
 <path opacity=".2" d="m20.25 5.371c-0.592 0.114-1.178 0.2438-1.75 0.4062 8.232 2.3363 14.259 9.7777 14.479 18.723 0.004-0.167 0.021-0.332 0.021-0.5 0-8.517-5.279-15.737-12.75-18.629zm-9.295 10.555-0.955 0.131l2.092 1.906 0.158-0.858-1.295-1.179zm7.09 0-1.295 1.179 0.158 0.858l2.092-1.906-0.955-0.131zm-3.545 2.707-2.58 1.267-0.201 1.1 2.781-1.367 2.781 1.367-0.201-1.1-2.58-1.267zm0.42 4.82-0.92 0.131 3.098 2.932 0.152-0.858-2.33-2.205zm11.16 0-2.33 2.205 0.152 0.858l3.098-2.932-0.92-0.131zm17.908 1.047c-0.264 10.846-9.076 19.5-19.988 19.5-1.285 0-2.535-0.137-3.75-0.371-0.572 0.221-1.154 0.424-1.75 0.594 1.748 0.496 3.589 0.777 5.5 0.777 11.08 0 20-8.92 20-20 0-0.168-0.008-0.333-0.012-0.5zm-23.488 3.449-3.824 1.951-0.194 1.1 4.018-2.051 4.018 2.051-0.194-1.1-3.824-1.951zm-14.598 6.033-0.9023 0.129 4.1016 3.957 0.1484-0.857-3.3477-3.229zm15.196 0-3.348 3.229 0.148 0.857l4.102-3.957-0.902-0.129zm-7.598 6.286-5.0625 2.632-0.1914 1.1 5.2539-2.732 5.254 2.732-0.129-0.746c-0.041-0.012-0.084-0.02-0.125-0.031 0.038-0.011 0.075-0.026 0.113-0.037l-0.051-0.286-5.062-2.632z"/>
 <path fill="#fff" opacity=".2" d="m24 4c-1.911 0-3.752 0.2813-5.5 0.7773 0.596 0.1693 1.178 0.3723 1.75 0.5938 1.215-0.2342 2.465-0.3711 3.75-0.3711 10.912 0 19.724 8.654 19.988 19.5 0.004-0.167 0.012-0.332 0.012-0.5 0-11.08-8.92-20-20-20zm-9.5 8l-1.391 2.633-3.109 0.424 0.955 0.869 2.154-0.293 1.391-2.633 1.391 2.633 2.154 0.293 0.955-0.869-3.109-0.424-1.391-2.633zm-2.408 5.963l-0.373 2.037 0.201-0.1 0.33-1.795-0.158-0.142zm4.816 0l-0.158 0.142 0.33 1.795 0.201 0.1-0.373-2.037zm3.592 0.037l-2.008 3.949-4.492 0.635 0.92 0.869 3.572-0.504 2.008-3.949 2.008 3.949 3.572 0.504 0.92-0.869-4.492-0.635-2.008-3.949zm12.479 6.5c-0.219 8.903-6.193 16.313-14.366 18.686l0.012 0.068c0.533 0.148 1.076 0.269 1.625 0.375 7.471-2.892 12.75-10.112 12.75-18.629 0-0.168-0.017-0.333-0.021-0.5zm-15.881 2.016l-0.616 3.484 0.194-0.1 0.574-3.242-0.152-0.142zm6.804 0l-0.152 0.142 0.574 3.242 0.194 0.1-0.616-3.484zm-10.402 0.484l-2.627 5.268-5.873 0.843 0.9023 0.871 4.9707-0.714 2.627-5.268 2.627 5.268 4.971 0.714 0.902-0.871-5.873-0.843-2.627-5.268zm-4.3984 11.068l-0.8555 4.932 0.1914-0.1 0.8125-4.689-0.1484-0.143zm8.7964 0l-0.148 0.143 0.812 4.689 0.192 0.1-0.856-4.932z"/>
</svg>
