<?xml version="1.0" encoding="UTF-8" standalone="no"?>
<svg xmlns="http://www.w3.org/2000/svg" height="48" width="48" version="1">
 <rect style="enable-background:new" transform="matrix(0,-1,-1,0,0,0)" rx="2" ry="2" height="40" width="32" y="-44" x="-40" fill="#5f7c8a"/>
 <rect ry="0" style="enable-background:new" rx="0" transform="matrix(0,-1,-1,0,0,0)" height="34" width="26" y="-41" x="-37" fill="#7f96a1"/>
 <path opacity=".2" d="m6 8c-1.108 0-2 0.892-2 2v1c0-1.108 0.892-2 2-2h36c1.108 0 2 0.892 2 2v-1c0-1.108-0.892-2-2-2h-36z" style="enable-background:new" fill="#fff"/>
 <path opacity=".2" style="enable-background:new" d="m4 38v1c0 1.108 0.892 2 2 2h36c1.108 0 2-0.892 2-2v-1c0 1.108-0.892 2-2 2h-36c-1.108 0-2-0.892-2-2z"/>
 <rect opacity=".2" rx="1" ry="1" height="22" width="8" y="14" x="31"/>
 <rect rx="1" ry="1" height="22" width="8" y="13" x="31" fill="#fff"/>
</svg>
