<svg xmlns="http://www.w3.org/2000/svg" width="48" height="48" version="1.1" viewBox="0 0 48 48">
 <ellipse style="fill:#ffffff" cx="24" cy="24" r="14"/>
 <circle cx="24" cy="25" r="20" style="opacity:0.2"/>
 <path style="fill:#3a8eed" d="m 42.365967,24.408508 c 0,11.045695 -7.23857,18.284265 -18.284265,18.284265 -3.160523,0 -6.231522,0.574127 -8.888824,-0.731304 C 8.5631864,38.704556 4,31.885173 4,24 4,15.682631 9.077124,8.5510871 16.301238,5.5355032 c 2.369708,-0.9891944 4.888735,-0.064873 7.61706,-0.064873 11.045695,0 18.447669,7.8921828 18.447669,18.9378778 z"/>
 <path style="fill:#ffd32c" d="m 24.091797,4.0117188 c -0.44945,-0.00133 -0.899137,0.014019 -1.347656,0.042969 -0.30097,0.019177 -0.600181,0.05253 -0.900391,0.085937 -0.01367,0.00152 -0.02734,0.00238 -0.04102,0.00391 -0.03792,0.00422 -0.07547,0.010723 -0.113281,0.015625 a 20,20 0 0 0 -0.02148,0.00195 20,20 0 0 0 -2.650391,0.484375 c -0.002,6.657e-4 -0.0019,0.00533 -0.0039,0.00586 -0.03175,0.00821 -0.06398,0.015073 -0.0957,0.023437 -0.334081,0.088135 -0.665613,0.1887834 -0.996094,0.2949219 a 20,20 0 0 0 -0.002,0 l -0.02539,0.00781 c -0.0823,0.026517 -0.164142,0.054449 -0.246093,0.082031 -0.02027,0.00691 -0.04029,0.014538 -0.06055,0.021484 -0.07167,0.024577 -0.143489,0.048744 -0.214844,0.074219 -0.153438,0.054098 -0.500484,0.1811726 -0.814453,0.2890625 a 20,20 0 0 0 -1.429688,0.640625 L 18,8 v 4 l 3.804688,0.388672 -1.041016,1.724609 10.339844,6.171875 4.533203,5.765625 L 38,23 l 3,2 2.964844,-1.976562 c -0.02262,-0.454582 -0.07376,-0.903981 -0.126953,-1.353516 -0.0166,-0.156517 -0.03635,-0.312671 -0.05664,-0.46875 a 20,20 0 0 0 -0.0098,-0.08398 c -9.3e-5,-6.36e-4 9.4e-5,-0.0013 0,-0.002 -0.06223,-0.423909 -0.141507,-0.84412 -0.230468,-1.261718 -0.0068,-0.03263 -0.01452,-0.06506 -0.02148,-0.09766 a 20,20 0 0 0 -0.08984,-0.404297 c -0.0016,-0.0066 -0.0043,-0.01292 -0.0059,-0.01953 -0.102306,-0.42439 -0.216099,-0.845777 -0.345703,-1.261719 -0.02873,-0.09024 -0.05983,-0.179707 -0.08984,-0.269531 a 20,20 0 0 0 -0.04297,-0.132812 c -9.19e-4,-0.0027 -0.003,-0.0051 -0.0039,-0.0078 -0.149859,-0.446963 -0.307264,-0.891214 -0.488281,-1.326172 -0.01085,-0.02484 -0.02226,-0.04942 -0.0332,-0.07422 a 20,20 0 0 0 -0.0332,-0.07617 c -0.0023,-0.0054 -0.0055,-0.01027 -0.0078,-0.01563 -0.876228,-2.052658 -2.094039,-3.960056 -3.621094,-5.632813 -0.0052,-0.0065 -0.01038,-0.01305 -0.01562,-0.01953 a 20,20 0 0 0 -0.01758,-0.02148 c -0.0033,-0.0031 -0.0065,-0.0066 -0.0098,-0.0098 -6.53e-4,-6.29e-4 -0.0013,-0.0013 -0.002,-0.002 -0.62662,-0.6037515 -1.246836,-1.2004085 -1.908087,-1.8397319 l -0.002,-0.00195 a 20,20 0 0 0 -0.002,-0.00195 c -0.28295,-0.2272317 -0.572113,-0.4467178 -0.867094,-0.6582093 -0.0052,-0.0039 -0.01041,-0.00781 -0.01563,-0.011719 -0.0019,-0.00141 -0.004,-0.0025 -0.0059,-0.00391 C 35.683415,7.7934036 35.461093,7.6137996 35.224609,7.453125 34.91805,7.2461753 34.59679,7.0626406 34.279297,6.8730469 34.246503,6.852202 34.212601,6.833153 34.179688,6.8125 A 20,20 0 0 0 33.748047,6.546875 c -0.0013,-7.044e-4 -0.0026,-0.00125 -0.0039,-0.00195 -0.284987,-0.1573617 -0.578865,-0.2980775 -0.8711,-0.4414094 -0.255096,-0.1305263 -0.512969,-0.2555552 -0.773438,-0.375 -0.06072,-0.027358 -0.120581,-0.055769 -0.18164,-0.082031 C 31.620875,5.5170567 31.314689,5.4097402 31.011719,5.2949219 30.739212,5.1886465 30.464406,5.0883619 30.1875,4.9941406 30.089864,4.9654726 29.991941,4.9361989 29.894531,4.90625 29.641058,4.8283223 29.385256,4.7611406 29.128906,4.6933594 28.902729,4.631425 28.675481,4.5734734 28.447266,4.5195312 28.319134,4.4890624 28.191362,4.4562785 28.0625,4.4296875 27.786951,4.3717981 27.508172,4.3333071 27.230469,4.2871094 26.953397,4.2389329 26.675341,4.1966057 26.396484,4.1601562 26.202197,4.1392156 26.006946,4.1190781 25.8125,4.1015625 25.623843,4.0845558 25.43513,4.0738913 25.246094,4.0625 A 20,20 0 0 0 25.222654,4.06055 C 25.030742,4.04866 24.838663,4.0395475 24.646484,4.0332031 24.46182,4.0248981 24.276926,4.012405 24.091797,4.0117188 Z"/>
 <path style="fill:#f14f4f" d="m 41.46875,14.308594 -0.01172,0.002 c 0.287829,0.518273 0.553643,1.048268 0.796875,1.587891 -0.19688,-0.454392 -0.410569,-0.901314 -0.640625,-1.339844 -0.04758,-0.08368 -0.09575,-0.167016 -0.144531,-0.25 z m 0.785156,1.589844 c 0.143602,0.327059 0.278416,0.657907 0.404297,0.992187 -0.06531,-0.175311 -0.121745,-0.354499 -0.193359,-0.527344 -0.01359,-0.03259 -0.02726,-0.06514 -0.04102,-0.09766 -0.0078,-0.01759 -0.0156,-0.03516 -0.02344,-0.05273 -0.0078,-0.0185 -0.0171,-0.03638 -0.02539,-0.05469 -0.03941,-0.08701 -0.08185,-0.172708 -0.121094,-0.259765 z m 0.640625,1.636718 c 0.190635,0.554279 0.356811,1.116671 0.498047,1.685547 -0.0928,-0.376466 -0.190138,-0.751417 -0.304687,-1.121094 -0.04286,-0.133927 -0.08714,-0.267397 -0.132813,-0.40039 -0.01843,-0.0553 -0.04184,-0.108864 -0.06055,-0.164063 z m 0.560547,1.933594 c 0.101719,0.442237 0.188358,0.887807 0.259766,1.335938 -0.05116,-0.307906 -0.103559,-0.61521 -0.167969,-0.919922 -0.02197,-0.103043 -0.04476,-0.205911 -0.06836,-0.308594 -0.0077,-0.03583 -0.01553,-0.07164 -0.02344,-0.107422 z m 0.386719,2.232422 c 0.01259,0.107851 0.01732,0.218265 0.0293,0.326172 l 0.0078,-0.02539 c -0.01161,-0.100353 -0.02398,-0.200616 -0.03711,-0.300781 z m 0.05273,0.455078 c -0.0034,0.0028 -0.0062,0.0036 -0.0098,0.0059 0.01312,0.12303 0.02228,0.247709 0.0332,0.371094 -0.0082,-0.113373 -0.0091,-0.226325 -0.01953,-0.339844 z m -5.892578,0.865234 -2.367187,3.046875 -1.242188,-1.583984 -9.441406,7.474609 -6.69336,2.095704 h -1.259765 l 1.199219,2.724609 -2.954822,1.775494 0.08568,3.435443 c -0.429578,-0.208813 -0.854143,-0.426551 -1.265625,-0.662109 -0.0659,-0.03739 -0.131836,-0.07702 -0.197266,-0.115234 -0.01849,-0.0108 -0.03622,-0.02042 -0.05469,-0.03125 0.807889,0.486557 1.649181,0.915361 2.517578,1.283203 l -0.05078,-0.04883 c 0.100608,0.04081 0.199936,0.08865 0.300781,0.128906 0.0857,0.03445 0.171642,0.0683 0.257813,0.101562 -0.160227,-0.05526 -0.319745,-0.112558 -0.478516,-0.171875 0.778013,0.31612 1.575164,0.582925 2.386719,0.798829 -0.143683,-0.03941 -0.286921,-0.08043 -0.429688,-0.123047 -0.298643,-0.08838 -0.593526,-0.189468 -0.888672,-0.291016 0.434553,0.153166 0.874268,0.291269 1.31836,0.414063 C 20.456047,43.747971 22.223552,43.992308 24,44 c 0.04688,-0.0018 0.09376,-0.0038 0.140625,-0.0059 -0.575187,-0.0039 -1.14994,-0.03254 -1.722656,-0.08594 -0.108692,-0.008 -0.217664,-0.0092 -0.326172,-0.01953 -0.05471,-0.0043 -0.109394,-0.0089 -0.164063,-0.01363 -0.183124,-0.01897 -0.364557,-0.05459 -0.546875,-0.08008 0.344659,0.04677 0.69048,0.08455 1.03711,0.113281 0.596869,0.04413 1.195519,0.0612 1.794922,0.05469 l -0.0078,0.0293 c 0.582668,-0.01038 1.164603,-0.04622 1.744141,-0.107422 v -0.01563 c 1.838828,-0.181126 3.657785,-0.602939 5.40039,-1.292969 0.01693,-0.0052 0.03386,-0.0104 0.05078,-0.01563 0.0041,-0.002 0.0076,-0.0039 0.01172,-0.0059 0.716782,-0.338427 1.433879,-0.678413 2.183594,-1.03125 0.21711,-0.119047 0.431991,-0.242115 0.644531,-0.369141 0.166915,-0.10399 0.336378,-0.203913 0.5,-0.3125 0.0055,-0.0035 0.01208,-0.0063 0.01758,-0.0098 0.144453,-0.09162 0.287623,-0.184107 0.431641,-0.27539 0.239333,-0.164121 0.475066,-0.333433 0.707031,-0.507813 0.154882,-0.120846 0.312897,-0.237546 0.466797,-0.359375 0.114878,-0.08666 0.228817,-0.174554 0.341797,-0.263672 0.210085,-0.176721 0.416509,-0.357749 0.619141,-0.542969 0.08516,-0.07899 0.17296,-0.155018 0.257812,-0.234374 0.206087,-0.186291 0.40733,-0.379401 0.605469,-0.574219 0.17737,-0.18286 0.351229,-0.369092 0.521484,-0.558594 0.09524,-0.107695 0.19356,-0.212541 0.289063,-0.320313 0.176588,-0.19546 0.348777,-0.39533 0.517578,-0.597656 0.161598,-0.204582 0.31918,-0.412304 0.472656,-0.623047 0.07973,-0.108776 0.16142,-0.21609 0.240235,-0.326171 0.138183,-0.189468 0.272863,-0.381964 0.404296,-0.576172 0.03131,-0.04613 0.06225,-0.09257 0.09375,-0.138672 0.151491,-0.235827 0.298008,-0.474812 0.439454,-0.716797 0.0384,-0.0668 0.07837,-0.132621 0.117187,-0.199219 0.143387,-0.24193 0.281006,-0.486613 0.414063,-0.734375 0.01291,-0.0254 0.02619,-0.05071 0.03906,-0.07617 0.122767,-0.241074 0.24063,-0.484613 0.353516,-0.730469 0.03575,-0.07814 0.07213,-0.155996 0.107422,-0.234374 l 0.0098,-0.02148 c 0.07923,-0.175198 0.156323,-0.351884 0.230469,-0.529297 0.04756,-0.1101 0.09364,-0.221302 0.140625,-0.332031 0.0832,-0.216052 0.162636,-0.433533 0.238281,-0.652344 0.09393,-0.266258 0.192403,-0.530982 0.275391,-0.800781 0.08411,-0.272641 0.155193,-0.549452 0.226562,-0.826172 0.0046,-0.01562 0.0091,-0.03124 0.01367,-0.04687 0.0034,-0.01332 0.0064,-0.02572 0.0098,-0.03906 0.0033,-0.01296 0.0067,-0.02598 0.0098,-0.03906 0.0073,-0.03125 0.01372,-0.06274 0.02148,-0.09375 0.04465,-0.178464 0.0892,-0.357476 0.128906,-0.537109 0.07707,-0.348775 0.145335,-0.699508 0.205078,-1.052735 0.05974,-0.353226 0.110964,-0.708946 0.150391,-1.066406 0.0036,-0.0326 0.0083,-0.06503 0.01172,-0.09766 0.03517,-0.333893 0.05828,-0.669122 0.07617,-1.00586 l 0.002,-0.0293 c 0.0052,-0.09567 0.0098,-0.191375 0.01367,-0.28711 6.6e-5,-0.0019 -6.4e-5,-0.0039 0,-0.0059 6.36e-4,-0.01949 0.0013,-0.03914 0.002,-0.05859 0.0025,-0.07573 0.0044,-0.150811 0.0059,-0.226562 0.01133,-0.474001 0.0012,-0.952502 -0.01953,-1.429688 l -2.951172,1.960938 z m -25.11523,17.578125 v 0.01563 c 0.187496,0.119689 0.376975,0.236242 0.568359,0.34961 -0.191466,-0.119241 -0.380637,-0.240805 -0.568359,-0.365235 z m 2.923828,1.615235 c 0.113716,0.04911 0.227349,0.09946 0.341797,0.146484 3.28e-4,0.0042 -7.87e-4,0.0094 0,0.01367 l -0.0332,-0.01563 c -0.104775,-0.0449 -0.20499,-0.09777 -0.308594,-0.144531 z m 3.162109,1.115234 c 0.564742,0.145986 1.135601,0.267195 1.710938,0.363281 -0.05444,-0.0093 -0.109662,-0.01385 -0.164063,-0.02344 -0.138277,-0.02329 -0.276305,-0.04803 -0.414062,-0.07422 -0.37964,-0.0752 -0.757551,-0.168066 -1.132813,-0.265625 z"/>
 <path style="fill:#ff7d2c" d="M 38,23 18,37 V 11 Z"/>
 <path style="fill:#ffffff" d="m 24,10 a 14,14 0 0 0 -5.650391,1.210938 L 37.960938,22.976562 A 14,14 0 0 0 24,10 Z m -6,1.367188 A 14,14 0 0 0 10,24 14,14 0 0 0 18,36.630859 Z M 37.964844,23.023438 18.3125,36.78125 A 14,14 0 0 0 24,38 14,14 0 0 0 38,24 14,14 0 0 0 37.964844,23.023438 Z"/>
 <path style="opacity:0.2" d="M 37.978516,24.414062 A 14,14 0 0 1 24,38 14,14 0 0 1 10.021484,24.585938 14,14 0 0 0 10,25 14,14 0 0 0 24,39 14,14 0 0 0 38,25 14,14 0 0 0 37.978516,24.414062 Z"/>
 <path style="opacity:0.2" d="m 18,11 v 1 L 37.230469,23.539062 38,23 Z"/>
 <path style="opacity:0.2" d="m 17.335938,37.296875 -2.09375,1.257813 0.02539,0.984374 2.929688,-1.759765 -0.03125,-0.07227 a 14,14 0 0 1 -0.830078,-0.410156 z"/>
 <path d="M 24,4 A 20,20 0 0 0 4,24 20,20 0 0 0 4.0215,24.582 20,20 0 0 1 24,5 20,20 0 0 1 43.979,24.418 20,20 0 0 0 44,24 20,20 0 0 0 24,4 Z" style="opacity:0.2;fill:#ffffff"/>
 <path style="opacity:0.2" d="M 16.025391,6.6835938 C 15.723313,6.8103461 15.424394,6.9445011 15.128906,7.0859375 L 18,9 V 8 Z M 38,24 l 3,2 2.964844,-1.976562 c -0.01573,-0.316162 -0.05347,-0.62847 -0.08789,-0.941407 L 41,25 38,23 Z"/>
</svg>
