<svg xmlns="http://www.w3.org/2000/svg" width="48" height="48" version="1.1">
 <circle style="fill:#222c62" cx="14" cy="26" r="10"/>
 <circle style="fill:#222c62" cx="34" cy="26" r="10"/>
 <circle style="fill:#222c62" cx="24" cy="31" r="10"/>
 <circle style="fill:#222c62" cx="19" cy="17" r="10"/>
 <circle style="fill:#222c62" cx="31" cy="19" r="10"/>
 <path style="opacity:0.2" d="m 16.964844,19.994141 a 1.0001,1.0001 0 0 0 -0.41211,1.90039 L 19.763672,23.5 16.552734,25.105469 a 1.0001163,1.0001163 0 1 0 0.894532,1.789062 l 5,-2.5 a 1.0001,1.0001 0 0 0 0,-1.789062 l -5,-2.5 a 1.0001,1.0001 0 0 0 -0.482422,-0.111328 z m 7.037109,6.996093 a 1.0001,1.0001 0 0 0 -0.71875,1.707032 c 0,0 0.389123,0.384038 1.007813,0.695312 C 24.909705,29.703853 25.822976,30 27,30 c 1.177024,0 2.090295,-0.296147 2.708984,-0.607422 0.61869,-0.311274 1.007813,-0.695312 1.007813,-0.695312 a 1.0001,1.0001 0 1 0 -1.433594,-1.394532 c 0,0 -0.09755,0.115962 -0.472656,0.304688 C 28.435436,27.796147 27.847774,28 27,28 26.152226,28 25.564564,27.796147 25.189453,27.607422 24.814342,27.418696 24.716797,27.302734 24.716797,27.302734 a 1.0001,1.0001 0 0 0 -0.714844,-0.3125 z"/>
 <path style="fill:none;stroke:#ffffff;stroke-width:2;stroke-linecap:round;stroke-linejoin:round" d="m 17,20 5,2.5 -5,2.5"/>
 <path style="fill:none;stroke:#ffffff;stroke-width:2;stroke-linecap:round;stroke-linejoin:round" d="m 24,27 c 0,0 0.975202,1 3,1 2.024798,0 3,-1 3,-1"/>
 <path style="opacity:0.2;fill:none;stroke:#000000;stroke-width:4;stroke-linecap:round;stroke-linejoin:round" d="M 19,8 A 10,10 0 0 0 9,18 10,10 0 0 0 9.0117188,18.347656 10,10 0 0 0 4,27 10,10 0 0 0 14,37 10,10 0 0 0 15.298828,36.904297 10,10 0 0 0 24,42 10,10 0 0 0 32.707031,36.904297 10,10 0 0 0 34,37 10,10 0 0 0 44,27 10,10 0 0 0 40.996094,19.867188 10,10 0 0 0 31,10 10,10 0 0 0 26.302734,11.179688 10,10 0 0 0 19,8 Z"/>
 <path style="fill:none;stroke:#e4e4e4;stroke-width:4;stroke-linecap:round;stroke-linejoin:round" d="M 19,7 A 10,10 0 0 0 9,17 10,10 0 0 0 9.0117188,17.347656 10,10 0 0 0 4,26 10,10 0 0 0 14,36 10,10 0 0 0 15.298828,35.904297 10,10 0 0 0 24,41 10,10 0 0 0 32.707031,35.904297 10,10 0 0 0 34,36 10,10 0 0 0 44,26 10,10 0 0 0 40.996094,18.867188 10,10 0 0 0 31,9 10,10 0 0 0 26.302734,10.179688 10,10 0 0 0 19,7 Z"/>
 <path style="opacity:0.2;fill:#ffffff" d="M 19 5 C 12.651592 5 7.5416032 10.026666 7.1464844 16.279297 C 3.9856747 18.509528 2.0057403 22.083565 2 25.996094 A 2.0002 2.0002 0 0 0 2 26 C 2 26.18792 2.0206538 26.370773 2.0292969 26.556641 C 2.1777285 22.818513 4.1054983 19.424982 7.1464844 17.279297 C 7.5416032 11.026666 12.651592 6 19 6 A 2.0002 2.0002 0 0 0 19.001953 6 C 21.851994 6.0029931 24.556677 7.071516 26.708984 8.8945312 C 28.082097 8.362608 29.515353 8.00217 30.996094 8 A 2.0002 2.0002 0 0 1 31 8 C 37.272116 8.0018967 42.338901 12.915044 42.832031 19.082031 C 44.680114 21.147279 45.844136 23.732568 45.974609 26.5 C 45.98159 26.332865 46 26.168782 46 26 A 2.0002 2.0002 0 0 0 46 25.998047 C 45.99632 23.04236 44.791022 20.271219 42.832031 18.082031 C 42.338901 11.915044 37.272116 7.0018967 31 7 A 2.0002 2.0002 0 0 0 30.996094 7 C 29.515353 7.00217 28.082097 7.362608 26.708984 7.8945312 C 24.556677 6.0715159 21.851994 5.0029931 19.001953 5 A 2.0002 2.0002 0 0 0 19 5 z M 41.974609 26.507812 C 41.714515 30.707675 38.27264 33.997944 34.003906 34 C 33.662391 33.9963 33.322636 33.971068 32.984375 33.923828 A 2.0002 2.0002 0 0 0 30.964844 34.923828 C 29.547769 37.441934 26.891198 38.996341 24.001953 39 C 21.112868 38.9961 18.457907 37.441614 17.041016 34.923828 A 2.0002 2.0002 0 0 0 15.021484 33.923828 C 14.681668 33.97127 14.339179 33.996537 13.996094 34 C 9.7521934 33.997956 6.3246894 30.744886 6.0292969 26.580078 C 6.021601 26.721068 6.0002437 26.859719 6 27.001953 L 6 27.003906 C 6.0021379 31.442671 9.5573287 34.997864 13.996094 35 C 14.339179 34.99654 14.681668 34.971268 15.021484 34.923828 A 2.0002 2.0002 0 0 1 17.041016 35.923828 C 18.457907 38.441614 21.112868 39.9961 24.001953 40 C 26.891198 39.996341 29.547769 38.441934 30.964844 35.923828 A 2.0002 2.0002 0 0 1 32.984375 34.923828 C 33.322636 34.971068 33.662391 34.9963 34.003906 35 C 38.443339 34.997862 41.9989 31.441651 42 27.001953 C 41.999794 26.836241 41.984985 26.67219 41.974609 26.507812 z"/>
</svg>
