<?xml version="1.0" encoding="UTF-8" standalone="no"?>
<svg xmlns="http://www.w3.org/2000/svg" height="48" width="48" version="1">
 <path opacity=".1" fill="#fff" d="m75.53 5.4393c-11.08 0-20 8.92-20 20 0 0.16772-0.004 0.33329 0 0.5 0.26444-10.846 9.0877-19.5 20-19.5s19.736 8.6537 20 19.5c0.004-0.16671 0-0.33228 0-0.5 0-11.08-8.92-20-20-20z"/>
 <path opacity=".2" fill-rule="evenodd" d="m24.133 8.5857-0.063 4.9811c1.566-3.0081 3.159-6.5713 6.015-8.567-2.088 2.3529-3.098 6.006-4.265 8.359 1.965-2.681 5.202-6.192 8.18-7.175-3.961 3.4253-7.701 9.123-10.096 12.816l-1.904-0.804c0.33749-2.9487 0.44387-6.6909 2.1329-9.61z"/>
 <path d="m24.133 7.5859-0.063 4.9811c1.566-3.0081 3.159-6.5713 6.015-8.567-2.088 2.3529-3.098 6.006-4.265 8.359 1.965-2.681 5.202-6.1918 8.18-7.1748-3.961 3.4253-7.701 9.1228-10.096 12.816l-1.904-0.804c0.33749-2.9487 0.44387-6.6909 2.1329-9.61z" fill-rule="evenodd" fill="#abcd03"/>
 <path opacity=".2" d="m30.086 4c-2.848 1.9902-4.44 5.5382-6.002 8.541l-0.014 1.025c1.234-2.368 2.493-5.0687 4.364-7.0894 0.475-0.8961 1.008-1.7514 1.652-2.4766zm3.914 1.1836c-2.521 0.832-5.22 3.4727-7.184 5.8904-0.336 0.824-0.662 1.613-0.996 2.285 1.505-2.052 3.755-4.5806 6.063-6.0992 0.696-0.7435 1.4-1.4562 2.117-2.0762zm-9.867 2.4023c-1.689 2.9191-1.796 6.6611-2.133 9.6091l0.098 0.041c0.276-2.768 0.519-6.01 2.021-8.6247l0.014-1.0254z" fill-rule="evenodd" fill="#fff"/>
 <path d="m20.764 14-0.38253 0.2975c1.9155 3.4819 0.91344 5.3272-0.02965 5.982-1.9155 1.3393-4.715 3.0062-6.0997 4.4646-2.6817 2.7678-3.4473 5.4161-3.2115 8.8982 0.26517 4.4645 3.4771 8.1846 7.7791 9.6429 1.886 0.624 3.624 0.714 5.569 0.714 3.1236 0 6.335-0.83402 8.6628-2.7983 2.4752-2.0833 3.9489-5.208 3.9489-8.4519 0-3.2738-1.3553-6.3684-3.7423-8.5707-1.2672-1.1606-2.8582-2.1133-4.5083-3.0359-0.73661-0.41688-3.006-2.2026-2.2398-4.7621l-2.5927-0.3574 0.21252 0.10682-0.565-0.236-2.801-1.894zm3.7551 2.3281h0.000991c0.01325 0.46279 0.01134 0.91234 0.0079 1.3478-0.0095-0.55076-0.0089-1.0472-0.0088-1.3478z" fill-rule="evenodd" fill="#7d529d"/>
 <path opacity=".2" d="m20.764 14l-0.383 0.297c0.142 0.258 0.236 0.49 0.348 0.73l0.035-0.027 2.8 1.895 0.565 0.236-0.213-0.108 0.607 0.084 1.834 0.252c0.006-0.312 0.051-0.637 0.153-0.978l-2.594-0.358 0.213 0.108-0.565-0.236-2.8-1.895zm3.756 3.328c0.013 0.463 0.011 0.912 0.007 1.348-0.009-0.551-0.008-1.047-0.007-1.348zm1.875 0.574c-0.341 2.279 1.67 3.853 2.355 4.241 1.65 0.922 3.241 1.876 4.508 3.037 2.259 2.084 3.578 4.969 3.715 8.047 0.007-0.16 0.027-0.317 0.027-0.477 0-3.274-1.355-6.368-3.742-8.57-1.267-1.161-2.858-2.115-4.508-3.037-0.58-0.329-2.104-1.507-2.355-3.241zm-4.961 0.461c-0.132 0.97-0.613 1.591-1.082 1.916-1.916 1.34-4.715 3.007-6.1 4.465-2.513 2.594-3.332 5.092-3.232 8.26 0.096-2.707 0.988-4.944 3.232-7.26 1.385-1.458 4.184-3.125 6.1-4.465 0.612-0.425 1.235-1.364 1.082-2.916z" fill-rule="evenodd" fill="#fff"/>
 <path opacity=".2" d="m20.729 15.027-0.34766 0.26953c0.67141 1.2204 0.97004 2.2289 1.0527 3.0664 0.11367-0.83524-0.06277-1.9471-0.70508-3.3359zm3.791 2.3008c-0.0001 0.30053-0.0017 0.79689 0.0078 1.3477 0.0034-0.43541 0.0054-0.88486-0.0078-1.3477zm1.8379 0.03125c-0.0031 0.18684 0.01163 0.36728 0.03711 0.54297 0.02546-0.17031 0.06195-0.34349 0.11524-0.52148l-0.15234-0.02148zm-15.338 15.645c-0.01894 0.52864-0.01705 1.0697 0.02149 1.6387 0.26517 4.4645 3.4772 8.1843 7.7793 9.6426 1.885 0.625 3.623 0.715 5.568 0.715 3.123 0 6.334-0.835 8.662-2.799 2.475-2.083 3.949-5.207 3.949-8.451 0-0.17576-0.01958-0.34882-0.02734-0.52344-0.13698 3.0708-1.5686 5.994-3.9219 7.9746-2.328 1.964-5.539 2.799-8.662 2.799-1.9449 0-3.6826-0.08964-5.5684-0.71484-4.3021-1.4583-7.5141-5.1781-7.7793-9.6426-0.01483-0.21898-0.0148-0.42605-0.02149-0.63867z" fill-rule="evenodd"/>
</svg>
