<svg xmlns="http://www.w3.org/2000/svg" height="48" width="48" version="1.1">
 <g transform="matrix(1.9999697,0,0,2,2.0002121,2)">
  <path style="opacity:.2" d="m7 1.5c-0.3591814-0.0002921-0.6909349 0.1920503-0.8691406 0.5039062l-4 7c-0.1454117 0.2553989-0.171126 0.5618298-0.070312 0.8378908l4 11c0.1437049 0.395032 0.5190942 0.658039 0.9394526 0.658203h8c0.420359-0.000164 0.795748-0.263171 0.939453-0.658203l4-11c0.100815-0.276061 0.0751-0.5824916-0.07031-0.8378908l-4-7c-0.178206-0.3118566-0.509961-0.5041992-0.869143-0.5039062z"/>
  <path style="fill:#4140e1" d="m7 1c-0.3591814-0.00029214-0.6909349 0.1920503-0.8691406 0.5039062l-4 7c-0.1454117 0.2553989-0.171126 0.5618296-0.070312 0.8378907l4 11c0.1437049 0.395032 0.5190942 0.658039 0.9394526 0.658203h8c0.420359-0.000164 0.795748-0.263171 0.939453-0.658203l4-11c0.100815-0.2760608 0.0751-0.5824915-0.07031-0.8378907l-4-7c-0.178206-0.3118567-0.509961-0.50419931-0.869143-0.5039063z"/>
  <path style="fill:#f91c49" d="m11 1v20h4c0.420359-0.000164 0.795748-0.263171 0.939453-0.658203l4-11c0.100815-0.2760608 0.0751-0.5824914-0.07031-0.8378907l-4-7c-0.178208-0.3118566-0.509961-0.50419928-0.869143-0.5039063z"/>
  <path style="opacity:.2" d="m7 5.5a3 3 0 0 0 -3 3 3 3 0 0 0 3 3 3 3 0 0 0 3 -3 3 3 0 0 0 -3 -3zm8 0a3 3 0 0 0 -3 3 3 3 0 0 0 3 3 3 3 0 0 0 3 -3 3 3 0 0 0 -3 -3z"/>
  <path style="fill:#ffffff" d="m7 5a3 3 0 0 0 -3 3 3 3 0 0 0 3 3 3 3 0 0 0 3 -3 3 3 0 0 0 -3 -3zm8 0a3 3 0 0 0 -3 3 3 3 0 0 0 3 3 3 3 0 0 0 3 -3 3 3 0 0 0 -3 -3z"/>
  <path style="fill:#ffffff;opacity:.2" d="m7 1c-0.3591814-0.00029211-0.6909349 0.1920503-0.8691406 0.5039062l-4 7c-0.1324129 0.232568-0.1513305 0.5059837-0.0800782 0.7617188 0.0218184-0.0887279 0.0339321-0.1806681 0.0800782-0.2617188l4-7c0.178206-0.3118558 0.5099596-0.5041983 0.8691406-0.5039062h8c0.359182-0.000293 0.690935 0.1920497 0.869141 0.5039062l4 7c0.04614 0.081051 0.05826 0.1729909 0.08008 0.2617188 0.07125-0.2557349 0.05233-0.5291505-0.08008-0.7617188l-4-7c-0.178206-0.3118565-0.509959-0.50419918-0.869141-0.5039062z"/>
  <path style="fill:#4f4f4f" d="m7 6a2 2 0 0 0 -0.2597656 0.0195312 2 2 0 0 1 0.2597656 0.9804688 2 2 0 0 1 -1.7402344 1.9804688 2 2 0 0 0 1.7402344 1.0195312 2 2 0 0 0 2 -2 2 2 0 0 0 -2 -2z"/>
  <path style="fill:#4f4f4f" d="m15 6a2 2 0 0 0 -0.259766 0.0195312 2 2 0 0 1 0.259766 0.9804688 2 2 0 0 1 -1.740234 1.9804688 2 2 0 0 0 1.740234 1.0195312 2 2 0 0 0 2 -2 2 2 0 0 0 -2 -2z"/>
 </g>
</svg>
