<svg width="48" height="48" version="1.1" xmlns="http://www.w3.org/2000/svg">
 <rect x="4" y="4.9999995" width="39.999973" height="39.999973" rx="7.8124886" ry="7.8124886" style="opacity:.2"/>
 <rect x="4" y="4" width="39.999973" height="39.999973" rx="7.8124886" ry="7.8124886" style="fill:#4f4f4f"/>
 <path d="m27.522835 8.0003419c-3.613424 0.024865-6.399878 1.17935-9.341 2.6907601-9.7515101 5.011065-11.181836 14.703924-11.181836 18.190155 0 3.876195 1.4582462 7.921724 3.3929366 11.119045h4.336443c-2.486581-3.0701-4.326166-7.3163-4.229379-11.3929 0.147281-6.1986 3.83752-11.814817 9.369419-14.6575 2.456875-1.262517 5.13214-2.449902 7.798998-2.449902 3.561688 0 5.566928 0.603351 9.528975 3.272102 0.318859 0.1937 0.590124 0.2282 0.871588 0.2282 1.394631 0 1.931019-0.987953 1.931019-1.769438 0-0.60226-0.227721-1.164039-0.740372-1.496262-4.516519-3.0420901-7.20683-3.7342601-11.736792-3.7342601z" style="fill:#c2352a"/>
 <path d="m37.046 18h-20.046v3h16.169l-3.5305 5.5196-2.8444-4.5194-3.4339-4e-4 4.4908 7.0247-7.163 10.9755h19.312v-3h-15.3687l4.2585-6.382 3.2863 5.382h3.4457l-4.9177-7.8448z" style="fill:#ececec"/>
 <path d="m11.8125 4c-4.32812 0-7.8125 3.48438-7.8125 7.8125v1c0-4.32812 3.48438-7.8125 7.8125-7.8125h24.375c4.3281 0 7.8125 3.48438 7.8125 7.8125v-1c0-4.32812-3.4844-7.8125-7.8125-7.8125h-24.375z" style="fill:#ffffff;opacity:.1"/>
</svg>
