<svg xmlns="http://www.w3.org/2000/svg" width="48" height="48" version="1">
 <rect style="opacity:0.2" width="40" height="40" x="4" y="5" rx="12" ry="12"/>
 <rect style="fill:#464157" width="40" height="40" x="4" y="4" rx="12" ry="12"/>
 <path style="opacity:0.2" d="M 12 12 L 15 16 L 24 40 L 33 16 L 36 12 L 28 12 L 30 14 L 24 30 L 18 14 L 20 12 L 12 12 z"/>
 <path style="opacity:0.1;fill:#ffffff" d="M 16,4 C 9.352,4 4,9.352 4,16 v 1 C 4,10.352 9.352,5 16,5 h 16 c 6.648,0 12,5.352 12,12 V 16 C 44,9.352 38.648,4 32,4 Z"/>
 <path style="fill:#808080" d="m 20,11 -2,2 6,16 v 6 L 15,13 Z"/>
 <path style="fill:#7e5e39" d="m 12,11 3,4 9,24 V 34 L 16,13 15,12 Z"/>
 <path style="fill:#d5c7a4" d="m 12,11 4,2 4,-2 z"/>
 <path style="fill:#7e5e39" d="m 28,11 2,2 -6,16 v 6 l 9,-22 z"/>
 <path style="fill:#808080" d="m 36,11 -3,4 -9,24 v -5 l 8,-21 1,-1 z"/>
 <path style="fill:#d5c7a4" d="m 36,11 -4,2 -4,-2 z"/>
</svg>
