<svg width="48" height="48" version="1.1" xmlns="http://www.w3.org/2000/svg">
 <path d="m7 7c-1.662 0-3 1.338-3 3v13c0 11.045695 8.954305 20 20 20h17c1.662 0 3-1.338 3-3v-30c0-1.662-1.338-3-3-3z" style="opacity:.2"/>
 <path d="m7 6c-1.662 0-3 1.338-3 3v13c0 11.045695 8.954305 20 20 20h17c1.662 0 3-1.338 3-3v-30c0-1.662-1.338-3-3-3z" style="fill:#4f4f4f"/>
 <path d="m7 6c-1.662 0-3 1.338-3 3v0.6992188c0-1.662 1.338-3 3-3h34c1.662 0 3 1.338 3 3v-0.6992188c0-1.662-1.338-3-3-3z" style="fill:#ffffff;opacity:.1"/>
 <path d="m 33.000002,26 v 5.000001 L 42,31 37,26 Z" style="opacity:.2"/>
 <path d="M 12.645508,13.00005 C 11.595883,15.251925 11,17.800051 11,20.500051 11,29.573927 17.723001,36.961 26.000002,37 h 6 V 13 h -6 V 31 C 21.031251,30.95875 17,26.264127 17,20.500001 17,17.564126 18.039337,14.90725 19.709962,13 Z M 33.000001,19 l 1e-6,5 H 37 l 4.999999,-5.000001 z" style="opacity:.2"/>
 <path d="m12.644533 12c-1.049625 2.251875-1.644531 4.8-1.644531 7.5 0 9.073876 6.722999 16.461 15 16.5h6v-24h-6v18c-4.968751-0.04125-9-4.735874-9-10.5 0-2.935875 1.038359-5.59275 2.708984-7.5zm20.355469 6v5h3.999998l5-5zm0 7v5h8.999998l-5-5z" style="fill:#ef665e"/>
 <path d="m12.644533 12c-1.049625 2.251875-1.644531 4.8-1.644531 7.5 0 0.167226 0.0013 0.333956 0.0059 0.5 0.06865-2.51454 0.65408-4.887647 1.638672-7h6.292969c0.238794-0.352222 0.496663-0.686254 0.771484-1zm13.355469 0v1h6v-1zm7 6v1h7.999998l1-1zm-15.990234 2c-0.0067 0.16599-0.0098 0.332097-0.0098 0.5 0 5.764126 4.031249 10.45875 9 10.5v-1c-4.824534-0.04005-8.765545-4.46639-8.990234-10zm15.990234 5v1h3.999998l4 4h1l-5-5z" style="fill:#ffffff;opacity:.2"/>
</svg>
