<svg width="48" height="48" version="1.1" xmlns="http://www.w3.org/2000/svg">
 <path d="m23.99939 2.9999997c-1.10005 0-2.200835 0.4100214-3.023149 1.2323158l-16.743963 16.74583c-1.644629 1.644587-1.642296 4.39682 0.0024 6.041409l16.743963 16.745829c1.644629 1.644589 4.399315 1.646922 6.043944 0.0024l16.743963-16.745828c1.644628-1.644589 1.644629-4.399178 0-6.043766l-16.744007-16.745874c-0.822314-0.8222943-1.9231-1.2323158-3.023151-1.2323158z" style="opacity:.2"/>
 <path d="m23.99939 2c-1.10005 0-2.200835 0.4100214-3.023149 1.2323158l-16.743963 16.745829c-1.644629 1.644587-1.642296 4.39682 0.0024 6.041409l16.743963 16.745829c1.644629 1.644589 4.399315 1.646922 6.043944 0.0024l16.743963-16.745828c1.644628-1.644589 1.644629-4.399178 0-6.043766l-16.744007-16.745873c-0.822314-0.8222943-1.9231-1.2323158-3.023151-1.2323158z" style="fill:#a42a2a"/>
 <path d="M 24,2 C 22.89995,2 21.798876,2.4101275 20.976562,3.2324219 L 4.2324219,19.978516 C 3.2862751,20.924638 2.9037262,22.234678 3.046875,23.492188 3.1538236,22.568432 3.5371786,21.673741 4.2324219,20.978516 L 20.976562,4.2324219 C 21.798876,3.4101275 22.89995,3 24,3 c 1.100051,0 2.201124,0.4101276 3.023438,1.2324219 L 43.765625,20.978516 c 0.696999,0.696981 1.081282,1.594754 1.1875,2.521484 0.144413,-1.259969 -0.23987,-2.573878 -1.1875,-3.521484 L 27.023438,3.2324219 C 26.201124,2.4101276 25.100051,2 24,2 Z" style="fill:#ffffff;opacity:.2"/>
 <path d="m7 7.992398c-1.108 0-2 0.892-2 2s0.892 2 2 2h1v24c6.828e-4 3.531331 4.242677 5.32978 6.78125 2.875l27.902344-27.001953c0.767518-0.279095 1.316406-1.006712 1.316406-1.873047 0-1.108-0.892-2-2-2h-10c-1.108 0-2 0.892-2 2 0 0.828486 0.500014 1.535497 1.214844 1.839844l-15.214844 14.722656v-14.5625h1c1.108 0 2-0.892 2-2s-0.892-2-2-2z" style="fill-rule:evenodd;opacity:.2"/>
 <path d="m7 7c-1.108 0-2 0.892-2 2s0.892 2 2 2h1v24c6.828e-4 3.531331 4.242677 5.32978 6.78125 2.875l27.902344-27.001953c0.767518-0.279095 1.316406-1.006712 1.316406-1.873047 0-1.108-0.892-2-2-2h-10c-1.108 0-2 0.892-2 2 0 0.828486 0.500014 1.535497 1.214844 1.839844l-15.214844 14.722656v-14.5625h1c1.108 0 2-0.892 2-2s-0.892-2-2-2z" style="fill-rule:evenodd;fill:#e4e4e4"/>
 <path d="M 7,7 C 5.892,7 5,7.892 5,9 5,9.172314 5.027755,9.336771 5.068359,9.496094 5.288849,8.6309502 6.064314,7.9921875 7,7.9921875 h 10 c 0.935686,0 1.711151,0.6387627 1.931641,1.5039065 C 18.972246,9.336771 19,9.172314 19,9 19,7.892 18.108,7 17,7 Z m 25,0 c -1.108,0 -2,0.892 -2,2 0,0.168248 0.03341,0.326548 0.07227,0.482422 C 30.297549,8.6243741 31.069333,7.9921875 32,7.9921875 h 10 c 0.936345,0 1.711787,0.6397837 1.931641,1.5058595 C 43.972772,9.338603 44,9.172969 44,9 44,7.892 43.108,7 42,7 Z M 30.617188,11.417969 16,25.5625 v 0.992188 L 31.214844,11.832031 c -0.227587,-0.0969 -0.422823,-0.244607 -0.597656,-0.414062 z" style="fill-rule:evenodd;fill:#ffffff;opacity:.2"/>
</svg>
