<svg xmlns="http://www.w3.org/2000/svg" width="48" height="48" version="1">
 <rect style="opacity:0.2" width="40" height="40" x="-45" y="-44" rx="2" ry="2" transform="matrix(0,-1,-1,0,0,0)"/>
 <rect style="fill:#454f6c" width="40" height="40" x="-44" y="-44" rx="2" ry="2" transform="matrix(0,-1,-1,0,0,0)"/>
 <path style="opacity:0.2" d="M 43.999698,17.974413 C 37.346126,26.630777 29.982932,35.932303 26.600706,41 23.412511,38.355189 23.73328,34.958454 22.996328,31.788375 L 38.613251,11.475719 c 2.306053,0.88981 3.813883,3.775171 5.386447,6.498694 z"/>
 <path style="fill:#008679" d="M 43.999698,16.974413 C 37.346126,25.630777 29.982932,34.932303 26.600706,40 23.412511,37.355189 23.73328,33.958454 22.996328,30.788375 L 38.613251,10.475719 c 2.306053,0.88981 3.813883,3.775171 5.386447,6.498694 z"/>
 <path style="opacity:0.1;fill:#ffffff" d="M 6,4 C 4.892,4 4,4.892 4,6 V 7 C 4,5.892 4.892,5 6,5 h 36 c 1.108,0 2,0.892 2,2 V 6 C 44,4.892 43.108,4 42,4 Z"/>
 <path style="opacity:0.2" d="M 13.397156,8.999999 4.677,9.0001388 15.5712,38.983632 c 0.192738,0.559962 0.887586,1.979008 1.759963,2.0047 l 9.269543,0.01165 C 22.901543,30.813505 19.202392,20.627015 15.503229,10.440532 15.234611,9.8563138 14.382532,8.999982 13.397156,8.999982 Z"/>
 <path style="fill:#009e8d" d="M 13.397156,7.999999 4.677,8.0001388 15.5712,37.983632 c 0.192738,0.559962 0.887586,1.979008 1.759963,2.0047 l 9.269543,0.01165 C 22.901543,29.813505 19.202392,19.627015 15.503229,9.4405324 15.234611,8.8563138 14.382532,7.999982 13.397156,7.999982 Z"/>
 <path style="opacity:0.2" d="M 43.995252,6.7803476 C 44.016925,5.9442301 43.416747,5.006421 42.317272,5.0008608 l -9.861404,-8.601e-4 c 2.296564,3.0489978 6.734838,7.8743773 11.54383,12.9744983 z"/>
 <path style="fill:#009e8d" d="M 43.995252,5.7803476 C 44.016925,4.9442301 43.416747,4.006421 42.317272,4.0008608 l -9.861404,-8.601e-4 c 2.296564,3.0489978 6.734838,7.8743773 11.54383,12.9744983 z"/>
 <path style="opacity:0.2;fill:#ffffff" d="m 4.6777344,8 0.3632812,1 h 8.3554684 c 0.985376,0 1.838804,0.857188 2.107422,1.441406 C 19.082013,20.294534 22.660175,30.146878 26.238281,40 h 0.363281 C 22.902399,29.813523 19.203069,19.627889 15.503906,9.4414062 15.235288,8.8571877 14.38186,8 13.396484,8 Z"/>
 <path style="opacity:0.2;fill:#ffffff" d="m 32.455078,4 c 0.22124,0.2937253 0.549186,0.674646 0.808594,1 h 9.052734 c 1.099475,0.00556 1.701361,0.9451325 1.679688,1.78125 v -1 C 44.017767,4.9451325 43.415881,4.0055602 42.316406,4 Z"/>
</svg>
