<svg width="48" height="48" version="1.1" xmlns="http://www.w3.org/2000/svg">
 <path d="m3.1623334 24.124586c1.7448582-3.011336 8.5575696-14.756115 10.301368-17.768135 0.213184-0.3682264 0.728706-0.6664586 1.15197-0.6655399 3.417019 0.00736 16.600538 0.040995 20.017308 0.047491 0.42326 8.088e-4 0.937251 0.3007312 1.146673 0.6711502 1.710332 3.0251819 8.354413 14.836716 10.064242 17.86171 0.209371 0.370416 0.20832 0.969186-0.0043 1.337765-1.710411 2.965241-8.294326 14.35226-10.005749 17.316748-0.212731 0.368485-0.727971 0.668304-1.151234 0.67004-3.475951 0.01425-17.087388 0.08177-20.563524 0.09509-0.423249 0.0016-0.935747-0.298226-1.143815-0.669418-1.679136-2.995525-8.1418882-14.56294-9.8214349-17.558534-0.2080994-0.37116-0.2048681-0.970201 0.0084486-1.338359z" style="opacity:.2"/>
 <path d="m3.1623334 22.948585c1.7448582-2.932091 8.5575696-14.3678 10.301368-17.300557 0.213184-0.3585364 0.728706-0.6489195 1.15197-0.6480258 3.417019 0.00717 16.600538 0.039917 20.017308 0.046231 0.42326 7.885e-4 0.937251 0.2928174 1.146673 0.6534895 1.710332 2.9455727 8.354413 14.446278 10.064242 17.391668 0.209371 0.360668 0.20832 0.943681-0.0043 1.302561-1.710411 2.887208-8.294326 13.974573-10.005749 16.861048-0.212731 0.358789-0.727971 0.650717-1.151234 0.652407-3.475951 0.01387-17.087388 0.07962-20.563524 0.09259-0.423249 0.0016-0.935747-0.290378-1.143815-0.651803-1.679136-2.916697-8.1418882-14.179709-9.8214349-17.096472-0.2080994-0.361392-0.2048681-0.944669 0.0084486-1.303139z" style="fill:#fecd38"/>
 <path d="m22.014102 34.859325 11.17046-17.345676c0.227717-0.353602 0.674851-0.588365 1.11308-0.491854l4.602006 1.013499c0.08228 0.0103 0.126284 0.09371 0.08368 0.158583l-9.771034 16.193175c-0.222492 0.368727-0.663738 0.582462-1.12547 0.584646l-5.983625 0.0283c-0.07956 3.74e-4 -0.12933-0.0782-0.0891-0.140671z" style="fill:#feb924"/>
 <path d="m11.042442 18.741845 2.705629-4.075179c0.365359-0.550298 0.512378-0.666671 0.703246-0.666666l4.677332 1.33e-4c0.419675-0.0061 0.70106 0.325479 0.94863 0.666533l4.922721 6.781553-3.208208 4.366356c-0.190911 0.259831-0.582638 0.243845-0.751944-0.03068l-4.133551-6.702604c-0.01336-0.02168-0.03678-0.03504-0.06215-0.03547l-5.781028-0.100491c-0.103079-0.07853-0.05726-0.08838-0.02068-0.203485z" style="fill:#feb924"/>
 <path d="m14.451172 14c-0.190868-5e-6 -0.337766 0.115718-0.703125 0.666016l-2.705078 4.076172c-0.03658 0.115104-0.083548 0.124595 0.019531 0.203124l0.503906 0.007813 2.181641-3.287109c0.365359-0.550298 0.512257-0.666021 0.703125-0.666016h4.677734c0.419675-0.0061 0.701649 0.324962 0.949219 0.666016l4.556641 6.277343 0.365234-0.496093-4.921875-6.78125c-0.24757-0.341054-0.529544-0.672116-0.949219-0.666016h-4.677734z" style="fill:#000001;opacity:.2"/>
 <path d="m33.859375 18.505859c-0.436914-0.0036-0.844446 0.20572-1.076172 0.552735l-10.490234 15.748047c-0.05953 0.08389-0.149892 0.144366-0.253907 0.169921 0.01753 0.0134 0.03847 0.02356 0.06445 0.02344l0.728515-0.0039 9.951172-14.9375c0.231726-0.347015 0.639258-0.556329 1.076172-0.552735l4.3125 0.03125s0.828129-1.345898 0.828129-1.388867c0.0039 0.101562-0.05274-0.150195-0.05274-0.150195-0.0013 7e-6 -0.0026 7e-6 -0.0039 0z" style="opacity:.2"/>
 <path d="m11.391417 18.447994 5.413067-0.03729a1.2267193 1.1492066 0 0 1 1.063348 0.561715l3.844213 6.054946a0.43136225 0.40410574 0 0 0 0.735454 0.0092l7.071847-10.489535a1.2530475 1.1738711 0 0 1 1.079325-0.546883l4.911713 0.07303a1.3244874 1.2407969 0 0 1 1.088151 0.562501l2.340123 3.359106a0.37733583 0.3534931 0 0 1-0.319062 0.546678l-4.761129-0.03626a1.2563903 1.1770027 0 0 0-1.076133 0.553904l-10.488542 15.747585a0.43844409 0.4107401 0 0 1-0.744238-4.38e-4l-10.490035-15.793714a0.39431603 0.36940036 0 0 1 0.331898-0.564545z" style="fill:#feffff"/>
 <path d="m14.614362 5.0000021c-0.42352-9.13e-4 -0.938602 0.2948186-1.151916 0.6610747-1.744858 2.9959058-8.5830857 14.542582-10.329007 17.537806-0.1500374 0.257398-0.1579749 0.475264-0.099849 0.801117 0.025395-0.147478 0.00517-0.261818 0.072752-0.377743 1.7459217-2.995225 8.61125-14.417331 10.356109-17.413236 0.213314-0.3662572 0.728396-0.663352 1.151916-0.6624389 3.4191 0.00736 16.611679 0.041252 20.03053 0.047709 0.423517 8.039e-4 0.936919 0.2994524 1.146469 0.6678904 1.711374 3.0089965 8.256556 14.006963 9.967424 17.015771 0.0629 0.110616 0.201994 0.297956 0.226906 0.437176 0.05501-0.319454-0.01301-0.390524-0.156835-0.643453-1.7304-3.004902-8.326121-14.348441-10.037495-17.357436-0.20955-0.3684381-0.722953-0.6670916-1.146469-0.6678904-3.418851-0.0064579-16.61143-0.0389761-20.03053-0.0463381z" style="fill:#ffffff;opacity:.2"/>
 <path d="m38.519013 18.953125-9.308906 15.433594c-0.222406 0.368726-0.664965 0.583753-1.126518 0.585937l-6.054304 0.02539-0.01561 0.861328c-0.04021 0.06247 0.01028 0.140999 0.08981 0.140625l5.980113-0.02734c0.461553-0.0022 0.904112-0.217211 1.126518-0.585937l9.765761-16.19336c0.04258-0.06487 0.01397-0.968218 0.01757-1.193362-0.141703 0.325016-0.246153 0.666588-0.474434 0.953125z" style="fill:#fffffe;opacity:.2"/>
</svg>
