<svg xmlns="http://www.w3.org/2000/svg" xmlns:xlink="http://www.w3.org/1999/xlink" width="48" height="48" version="1.1">
 <defs>
  <linearGradient id="linearGradient862">
   <stop style="stop-color:#000000" offset="0"/>
   <stop style="stop-color:#000000;stop-opacity:0" offset="1"/>
  </linearGradient>
  <linearGradient id="linearGradient864" x1="22.856" x2="16.436" y1="38.187" y2="30.314" gradientUnits="userSpaceOnUse" xlink:href="#linearGradient862"/>
 </defs>
 <path style="opacity:0.2" d="M 23.999726,5 C 20.672946,4.9862918 17.352086,6.0131828 14.661963,8.0214844 8.2032981,12.709256 5.0502708,20.730956 4.2402311,28.457031 4.178306,30.642604 3.5412572,33.051 4.6347569,35.078125 c 1.7220907,2.719774 5.2557484,2.826575 8.0545771,3.615234 4.331627,0.731571 7.160786,4.497721 11.005708,6.271485 L 23.999726,45 24.30441,44.964844 c 3.844921,-1.773764 6.674082,-5.539914 11.005708,-6.271485 2.798829,-0.788659 6.332487,-0.89546 8.054577,-3.615234 1.0935,-2.027125 0.456456,-4.435521 0.394527,-6.621094 C 42.949182,20.730956 39.796155,12.709256 33.337489,8.0214844 30.647366,6.0131828 27.326507,4.986292 23.999726,5 Z m 0,11 c 3.400305,-0.0182 6.795401,1.695657 8.786989,4.533203 1.824926,2.506946 2.901359,5.56535 3.101521,8.65625 -4.505749,1.329392 -8.005157,4.543104 -11.702965,7.263672 0,0 -0.124346,0.09179 -0.185545,0.109375 -0.0612,-0.01758 -0.185544,-0.109375 -0.185544,-0.109375 -3.697809,-2.720568 -7.197217,-5.93428 -11.702965,-7.263672 0.200161,-3.0909 1.276595,-6.149304 3.101521,-8.65625 C 17.204325,17.695657 20.599422,15.981805 23.999726,16 Z"/>
 <path style="fill:#80d955" d="M 23.999726,4 C 20.672946,3.9862918 17.352086,5.0131828 14.661963,7.0214844 8.2032981,11.709256 5.0502708,19.730956 4.2402311,27.457031 4.178306,29.642604 3.5412572,32.051 4.6347569,34.078125 c 1.7220907,2.719774 5.2557484,2.826575 8.0545771,3.615234 4.331627,0.731571 7.160786,4.497721 11.005708,6.271485 L 23.999726,44 24.30441,43.964844 c 3.844921,-1.773764 6.674082,-5.539914 11.005708,-6.271485 2.798829,-0.788659 6.332487,-0.89546 8.054577,-3.615234 1.0935,-2.027125 0.456456,-4.435521 0.394527,-6.621094 C 42.949182,19.730956 39.796155,11.709256 33.337489,7.0214844 30.647366,5.0131828 27.326507,3.986292 23.999726,4 Z m 0,11 c 3.400305,-0.0182 6.795401,1.695657 8.786989,4.533203 1.824926,2.506946 2.901359,5.56535 3.101521,8.65625 -4.505749,1.329392 -8.005157,4.543104 -11.702965,7.263672 0,0 -0.124346,0.09179 -0.185545,0.109375 -0.0612,-0.01758 -0.185544,-0.109375 -0.185544,-0.109375 -3.697809,-2.720568 -7.197217,-5.93428 -11.702965,-7.263672 0.200161,-3.0909 1.276595,-6.149304 3.101521,-8.65625 C 17.204325,16.695657 20.599422,14.981805 23.999726,15 Z"/>
 <path style="opacity:0.4;fill:url(#linearGradient864)" d="M 16.21875 30.013672 C 13.102093 31.401878 9.9920863 33.116543 6.8710938 34.488281 C 6.050661 34.619115 5.7614703 34.97002 5.7753906 35.351562 C 7.6538588 36.86093 10.41454 37.05233 12.689453 37.693359 C 13.774766 37.876659 14.764893 38.25109 15.701172 38.736328 C 18.595083 38.900268 21.865502 37.36993 24 35.5625 C 23.9388 35.54492 23.814453 35.453125 23.814453 35.453125 C 23.574762 35.276778 23.337961 35.089999 23.099609 34.910156 C 23.070828 34.888184 23.042396 34.865867 23.013672 34.84375 C 20.799734 33.169335 18.615562 31.400942 16.21875 30.013672 z"/>
 <path style="opacity:0.2;fill:#ffffff" d="m 24,4 c -2.079237,-0.00857 -4.156018,0.3897373 -6.078125,1.1796875 -0.384414,0.15799 -0.763961,0.3322472 -1.134766,0.5214844 -0.741077,0.3783013 -1.452927,0.8185788 -2.125,1.3203125 -1.210999,0.8789572 -2.30609,1.875395 -3.291015,2.9648437 -0.656617,0.7262989 -1.26338,1.4947469 -1.824219,2.2968749 -3.0846141,4.411707 -4.7497383,9.862152 -5.3066406,15.173828 -0.029912,1.055693 -0.190078,2.162318 -0.2285156,3.253907 -0.011252,0.320154 -0.014955,0.63936 0.00195,0.955078 0.041232,-1.077079 0.1970599,-2.167727 0.2265625,-3.208985 C 5.0502741,20.730956 8.2034457,12.709256 14.662109,8.0214844 17.352232,6.0131828 20.67322,4.9862918 24,5 c 3.326781,-0.013708 6.647768,1.0131828 9.337891,3.0214844 6.458666,4.6877716 9.611835,12.7094716 10.421875,20.4355466 0.0295,1.041265 0.185338,2.131901 0.226562,3.208985 0.01688,-0.315219 0.01316,-0.63348 0.002,-0.953125 -0.03831,-1.09222 -0.198584,-2.199538 -0.228515,-3.25586 -0.20251,-1.931519 -0.552062,-3.881208 -1.0625,-5.792969 -0.255213,-0.95588 -0.550841,-1.902357 -0.888672,-2.832031 -0.675664,-1.859347 -1.520126,-3.652812 -2.548828,-5.322265 -0.77154,-1.25209 -1.645934,-2.433989 -2.63086,-3.5234379 C 36.3006,9.6231785 35.958425,9.2692682 35.605469,8.9277344 35.252513,8.5862005 34.887842,8.257599 34.509766,7.9394531 34.131688,7.6213072 33.741557,7.3144701 33.337891,7.0214844 30.647768,5.0131828 27.326781,3.986292 24,4 Z m 11.791016,24.224609 c -2.785906,0.841997 -5.189394,2.399778 -7.496094,4.109375 -1.383861,1.026888 -2.732683,2.106275 -4.109375,3.119141 0,0 -0.124348,0.09179 -0.185547,0.109375 -0.210374,0.178138 -0.440881,0.350086 -0.671875,0.521484 -0.239697,0.177856 -0.491277,0.348004 -0.75,0.515625 -0.0381,0.02472 -0.07482,0.04975 -0.113281,0.07422 -0.239686,0.15217 -0.485592,0.296767 -0.738282,0.4375 -0.06455,0.03605 -0.128066,0.07221 -0.193359,0.107422 -0.233276,0.125432 -0.469353,0.243878 -0.710937,0.357422 -0.105636,0.04984 -0.211398,0.09721 -0.31836,0.144531 -0.211296,0.09311 -0.423115,0.181245 -0.638672,0.263672 -0.144526,0.0555 -0.289556,0.106002 -0.435546,0.15625 -0.195654,0.06706 -0.390398,0.132521 -0.587891,0.189453 -0.176895,0.05124 -0.353526,0.09232 -0.53125,0.134766 -0.167004,0.03971 -0.332835,0.08378 -0.5,0.115234 -0.231029,0.04366 -0.461203,0.069 -0.691406,0.0957 -0.123195,0.01423 -0.246512,0.03582 -0.369141,0.04492 -0.352974,0.02634 -0.703721,0.03518 -1.048828,0.01563 0.5308,0.275094 1.042074,0.589559 1.544922,0.921875 C 19.704554,39.34038 22.238673,38.05394 24,36.5625 c 0.0612,-0.01758 0.185547,-0.109375 0.185547,-0.109375 3.697808,-2.720568 7.197376,-5.93428 11.703125,-7.263672 -0.02088,-0.322399 -0.05786,-0.64374 -0.09766,-0.964844 z"/>
</svg>
