<svg xmlns="http://www.w3.org/2000/svg" width="48" height="48" version="1.1">
 <path style="opacity:0.2" d="m 13.765625,5 c -0.08282,0 -0.165288,0.00816 -0.248047,0.011719 -0.01174,5.248e-4 -0.02341,0.00136 -0.03516,0.00195 -0.09847,0.00484 -0.196754,0.00769 -0.294922,0.017578 -0.02167,0.00217 -0.04281,0.00735 -0.06445,0.00977 -0.288174,0.032317 -0.573759,0.086228 -0.855469,0.1621094 -0.02083,0.00559 -0.04172,0.00979 -0.0625,0.015625 -0.275974,0.07767 -0.54615,0.1791454 -0.810547,0.2988281 -0.05109,0.023091 -0.101796,0.045651 -0.152343,0.070312 -0.255693,0.1248899 -0.505072,0.2685674 -0.744141,0.4335938 -0.03249,0.022432 -0.06357,0.047137 -0.0957,0.070312 -0.05849,0.042171 -0.116566,0.084279 -0.173828,0.1289062 -0.0037,0.00285 -0.008,0.00495 -0.01172,0.00781 -0.185165,0.1450319 -0.3644981,0.2999156 -0.5351564,0.4707032 l -3.984375,3.9843752 c -0.1722873,0.172418 -0.3265845,0.355751 -0.4726562,0.542968 -0.014229,0.01855 -0.027041,0.03796 -0.041016,0.05664 -0.028523,0.03748 -0.056497,0.07528 -0.083984,0.113281 -0.027362,0.03783 -0.055698,0.07496 -0.082031,0.113282 -0.1633396,0.237615 -0.3038773,0.484286 -0.4277343,0.738281 -0.026334,0.05403 -0.051626,0.107464 -0.076172,0.162109 -0.1174783,0.261283 -0.2182954,0.528242 -0.2949219,0.800782 -0.00583,0.0208 -0.01003,0.04165 -0.015625,0.0625 -0.075882,0.281985 -0.1297533,0.567008 -0.1621094,0.855468 -0.00242,0.02165 -0.00759,0.04278 -0.00977,0.06445 -0.01085,0.107678 -0.014735,0.216193 -0.019531,0.324219 -6.624e-4,0.01432 -0.0014,0.02865 -0.00195,0.04297 -0.00631,0.170706 -0.00294,0.341103 0.00586,0.511719 0.00184,0.03525 0.00142,0.07025 0.00391,0.105468 0.00616,0.08807 0.013246,0.175898 0.023438,0.263672 0.00314,0.0275 0.00818,0.05457 0.011719,0.08203 0.02283,0.174773 0.052927,0.348956 0.091797,0.521484 0.0068,0.03009 0.014194,0.05984 0.021484,0.08984 0.071656,0.295851 0.1640945,0.587176 0.2832031,0.871093 0.026487,0.06314 0.057104,0.125134 0.085937,0.1875 0.020776,0.04504 0.040496,0.09016 0.0625,0.134766 0.08886,0.179829 0.1881254,0.355514 0.296875,0.527344 0.00438,0.0069 0.00731,0.01458 0.011719,0.02148 0.035986,0.05633 0.075149,0.110674 0.1132813,0.166016 0.032432,0.0471 0.067569,0.09232 0.1015625,0.138672 0.1734448,0.236414 0.3603234,0.46563 0.5742187,0.679687 L 28.361328,41.542969 c 0,0 0.29088,0.203893 0.701172,0.271484 0.102555,0.01687 0.213573,0.02517 0.328125,0.01953 0.05229,-0.0026 0.108146,-0.02043 0.162109,-0.0293 L 44,45 42.732422,39.324219 40.513672,29.378906 17.849609,6.6992188 c -0.215077,-0.2152406 -0.445965,-0.4037926 -0.683593,-0.578125 -0.04472,-0.032774 -0.0874,-0.068289 -0.132813,-0.099609 -0.05495,-0.037952 -0.110088,-0.075497 -0.166015,-0.1113282 -0.005,-0.00318 -0.01065,-0.00465 -0.01563,-0.00781 -0.178554,-0.1136297 -0.361629,-0.2145689 -0.548828,-0.3066407 -0.04022,-0.019748 -0.08053,-0.037891 -0.121093,-0.056641 -0.267015,-0.1236727 -0.541161,-0.23194 -0.820313,-0.3125 -0.0012,-3.538e-4 -0.0027,3.529e-4 -0.0039,0 -0.07362,-0.021167 -0.148419,-0.036518 -0.222656,-0.054687 -0.03538,-0.00868 -0.06997,-0.019348 -0.105469,-0.027344 -0.188202,-0.042304 -0.377565,-0.074482 -0.568359,-0.097656 -0.01173,-0.00141 -0.02342,-0.00257 -0.03516,-0.00391 -0.08527,-0.00983 -0.17031,-0.017427 -0.255859,-0.023438 -0.03523,-0.0025 -0.07021,-0.00206 -0.105469,-0.00391 C 13.964759,5.0104514 13.865425,5 13.765625,5 Z"/>
 <path style="fill:#ffbe69" d="m 28.360515,40.542521 12.153587,-12.16284 2.254378,10.101393 -1.153639,3.265533 -3.150179,1.029195 z"/>
 <path style="opacity:0.372;fill:#ff00ff" d="M 5.6981338,9.6843799 C 3.4348444,11.949384 3.4335115,15.596589 5.6968009,17.861593 L 28.360492,40.542499 c 0,0 1.169653,0.819012 2.112102,-0.279287 0.942449,-1.098299 1.008693,-2.712699 1.008693,-2.712699 0,0 2.718013,-0.523123 3.822394,-1.561668 1.104383,-1.038543 2.158204,-4.473751 2.158204,-4.473751 0,0 1.268417,0.325944 2.326569,-0.740956 1.058152,-1.0669 0.725648,-2.394457 0.725648,-2.394457 L 17.850344,5.6987529 c -2.26329,-2.265004 -5.906311,-2.2650039 -8.1696006,2e-7 z"/>
 <path style="fill:#99a5eb" d="M 10.799234,4.8315812 37.462423,31.51497 c 0,0 1.267021,0.325811 2.325173,-0.741088 1.05818,-1.066872 0.726528,-2.394179 0.726528,-2.394179 L 17.850344,5.6987529 C 15.930133,3.7770874 13.020535,3.4925032 10.799234,4.8315812 Z"/>
 <path style="fill:#2c3b9c" d="M 38.317739,42.743372 43.999784,44 42.732907,38.32486 c 0,0 -1.556897,0.695875 -2.642069,1.782625 -1.085172,1.086751 -1.773099,2.635887 -1.773099,2.635887 z"/>
 <path style="fill:#24307f" d="M 4.8036214,10.851349 C 3.4977609,13.068542 3.7901703,15.953562 5.6967339,17.86157 L 28.360515,40.542521 c 0,0 1.169943,0.819515 2.112393,-0.278784 0.942449,-1.098299 1.009301,-2.713589 1.009301,-2.713589 z"/>
 <path style="fill:#2841d5" d="M 5.6981338,9.6843799 C 5.3414074,10.041377 5.0479524,10.436504 4.8036214,10.851349 L 31.482209,37.550148 c 0,0 2.717245,-0.522083 3.821626,-1.560628 1.104384,-1.038543 2.158588,-4.47455 2.158588,-4.47455 L 10.799234,4.8315812 C 10.402361,5.0708304 10.023822,5.3554147 9.6807434,5.6987531 Z"/>
 <path style="opacity:0.2" d="M 5.6981338,10.684659 C 3.7394718,12.644805 3.4774703,15.638198 4.9086112,17.877 L 16.86624,5.9103122 C 14.62942,4.4778184 11.639405,4.7388862 9.6807434,6.6990321 Z"/>
 <path style="fill:#646989" d="M 5.6981338,9.6843799 C 3.7394718,11.644526 3.4774703,14.637919 4.9086112,16.876721 L 16.86624,4.9100332 C 14.62942,3.4775394 11.639405,3.7386072 9.6807434,5.6987531 Z"/>
 <path style="opacity:0.2;fill:#ffffff" d="m 13.5,4.0117188 c -0.04064,0.00194 -0.08049,0.012825 -0.121094,0.015625 -0.200693,0.013367 -0.398952,0.043745 -0.597656,0.078125 -0.110039,0.019275 -0.219108,0.03679 -0.328125,0.0625 -0.205818,0.048059 -0.406772,0.1125572 -0.607422,0.1835937 -0.0949,0.033775 -0.189783,0.064616 -0.283203,0.1035156 -0.204709,0.084869 -0.40168,0.1853625 -0.597656,0.2949219 -0.05419,0.030323 -0.1126,0.04983 -0.166016,0.082031 l 0.0098,0.00977 C 10.410061,5.0814428 10.026087,5.354511 9.6816406,5.6992188 l -3.984375,3.984375 C 4.4418816,10.939929 3.8914831,12.621039 4.0292969,14.255859 4.1453023,12.954416 4.6974887,11.684128 5.6972656,10.683594 L 9.6816406,6.6992188 C 10.026087,6.3545111 10.410027,6.0814387 10.808594,5.8417969 l -0.0098,-0.00977 C 10.852244,5.7998303 10.910654,5.780323 10.964844,5.75 11.16082,5.6404406 11.357791,5.5399471 11.5625,5.4550781 c 0.09342,-0.0389 0.188303,-0.069741 0.283203,-0.1035156 0.20065,-0.071036 0.401604,-0.1355347 0.607422,-0.1835937 0.109017,-0.02571 0.218086,-0.043225 0.328125,-0.0625 0.198704,-0.03438 0.396963,-0.064758 0.597656,-0.078125 0.0406,-0.0028 0.08045,-0.013685 0.121094,-0.015625 0.08663,-0.00414 0.173059,0.00804 0.259766,0.00781 0.179066,-7.71e-5 0.356688,0.00295 0.535156,0.019531 0.150298,0.013611 0.298194,0.039011 0.447266,0.064453 0.158012,0.027296 0.314916,0.053182 0.470703,0.09375 0.171765,0.044362 0.337915,0.1054781 0.505859,0.1660156 0.127353,0.046106 0.254342,0.089153 0.378906,0.1445313 0.175886,0.077943 0.344573,0.1730245 0.513672,0.2695313 0.08387,0.047928 0.173889,0.080343 0.25586,0.1328124 l -0.0098,0.00977 c 0.349509,0.2231567 0.686149,0.4730271 0.992187,0.7792969 L 40.513672,29.378906 42.767578,39.480469 43.765625,43.947266 44,44 42.767578,38.480469 40.513672,28.378906 17.849609,5.6992188 C 17.543571,5.392949 17.206931,5.1430786 16.857422,4.9199219 l 0.0098,-0.00977 C 16.785251,4.8576827 16.695199,4.8252722 16.611328,4.7773438 16.442229,4.680837 16.273542,4.5857558 16.097656,4.5078125 15.973092,4.4524341 15.846103,4.4093876 15.71875,4.3632812 15.550806,4.3027437 15.384656,4.2416273 15.212891,4.1972656 15.057104,4.156698 14.9002,4.130812 14.742188,4.1035156 14.593116,4.0780739 14.44522,4.0526732 14.294922,4.0390625 14.116454,4.0224779 13.938832,4.0194541 13.759766,4.0195312 13.673059,4.0197605 13.586635,4.0075822 13.5,4.0117188 Z"/>
</svg>
