<svg xmlns="http://www.w3.org/2000/svg" width="48" height="48" version="1">
 <rect fill="#c2352a" width="40" height="40" x="-44" y="-44" rx="2" ry="2" transform="matrix(0,-1,-1,0,0,0)"/>
 <path fill="#fff" opacity=".2" d="m6 4c-1.108 0-2 0.892-2 2v1c0-1.108 0.892-2 2-2h36c1.108 0 2 0.892 2 2v-1c0-1.108-0.892-2-2-2h-36z"/>
 <path opacity=".2" d="m6 45c-1.108 0-2-0.892-2-2v-1c0 1.108 0.892 2 2 2h36c1.108 0 2-0.892 2-2v1c0 1.108-0.892 2-2 2h-36z"/>
 <path style="opacity:0.2" d="m 17.92994,16.000532 c -0.066,0.001 -0.14042,0.0063 -0.2259,0.01191 -0.32397,0.02068 -6.43749,1.165345 -6.82657,1.27826 -0.41135,0.119308 -0.76264,0.371368 -0.84835,0.610496 -0.1461506,0.406374 0.27742,1.727078 0.83656,2.613839 2.230624,2.648874 4.707212,3.32193 7.13432,4.749286 0.27856,0.326543 0.38857,0.484168 -1.74822,1.430265 -3.33963,1.478788 -4.420575,2.736552 -5.060195,4.597291 -0.18889,0.549824 -0.27666,2.003781 -0.14348,2.369655 0.17285,0.474275 0.27704,0.569763 3.50379,-0.04233 3.24141,-0.614905 2.973365,-0.650893 3.243685,-0.906996 0.22018,-0.208603 0.23277,-0.258913 0.32893,-1.245886 0.0554,-0.565567 0.16981,-1.669919 0.25375,-1.96248 0.19462,-0.679411 0.68413,-1.388918 1.21724,-1.764163 2.021821,-1.422952 5.827191,-0.713372 7.886431,1.47015 0.77593,0.822735 1.26317,1.997092 1.65202,3.273095 0.22437,0.736239 0.45222,1.055898 0.80606,1.126286 0.32551,0.06466 0.33352,-0.03713 4.45785,-0.820243 2.2942,-0.435613 3.24897,-0.647466 3.38395,-0.752504 0.29,-0.225872 0.29114,-0.778599 0.002,-1.691905 -0.49578,-1.569264 -1.35592,-2.612445 -2.94913,-3.819409 -0.78818,-0.597093 -1.78343,-1.161594 -3.46854,-1.968493 C 29.763351,23.78917 29,23.581527 29,23.343183 c 0,-0.197081 0.629491,-0.284894 1.900871,-0.665298 2.78583,-0.833704 4.128249,-2.003217 4.128249,-4.168698 0,-0.950306 -0.17934,-1.717174 -0.45824,-1.965996 -0.37091,-0.330941 -1.022229,-0.341419 -2.579659,-0.05975 -4.99234,0.902744 -4.648551,0.867551 -4.880791,1.24338 -0.12287,0.198752 -0.11752,0.245395 0.10837,1.148704 0.12936,0.517868 0.23354,1.165717 0.23277,1.316009 -0.002,0.319649 -0.417279,0.853636 -0.620399,1.044042 -0.49701,0.465626 -1.62362,0.782412 -2.77763,0.782412 -1.39578,0 -2.44743,-0.479802 -3.49203,-1.592225 -0.754821,-0.803807 -1.140161,-1.581651 -1.654391,-3.012898 -0.45157,-1.257043 -0.5135,-1.420894 -0.97759,-1.412829 z"/>
 <path style="fill:#ffffff" d="m 17.92994,15.000771 c -0.066,10e-4 -0.14042,0.0063 -0.2259,0.01191 -0.32397,0.02068 -6.43749,1.165345 -6.82657,1.27826 -0.41135,0.119308 -0.76264,0.371368 -0.84835,0.610496 -0.1461506,0.406374 0.27742,1.727078 0.83656,2.613839 2.230624,2.648874 4.707212,3.32193 7.13432,4.749286 0.27856,0.326543 0.38857,0.484168 -1.74822,1.430265 -3.33963,1.478788 -4.420575,2.736552 -5.060195,4.597291 -0.18889,0.549824 -0.27666,2.003781 -0.14348,2.369655 0.17285,0.474275 0.27704,0.569763 3.50379,-0.04233 3.24141,-0.614905 2.973365,-0.650893 3.243685,-0.906996 0.22018,-0.208603 0.23277,-0.258913 0.32893,-1.245886 0.0554,-0.565567 0.16981,-1.669919 0.25375,-1.96248 0.19462,-0.679411 0.68413,-1.388918 1.21724,-1.764163 2.021821,-1.422952 5.827191,-0.713372 7.886431,1.47015 0.77593,0.822735 1.26317,1.997092 1.65202,3.273095 0.22437,0.736239 0.45222,1.055898 0.80606,1.126286 0.32551,0.06466 0.33352,-0.03713 4.45785,-0.820243 2.2942,-0.435613 3.24897,-0.647466 3.38395,-0.752504 0.29,-0.225872 0.29114,-0.778599 0.002,-1.691905 -0.49578,-1.569264 -1.35592,-2.612445 -2.94913,-3.819409 -0.78818,-0.597093 -1.78343,-1.161594 -3.46854,-1.968493 C 29.763351,22.789409 29,22.581766 29,22.343422 c 0,-0.197081 0.629491,-0.284894 1.900871,-0.665298 2.78583,-0.833704 4.128249,-2.003217 4.128249,-4.168698 0,-0.950306 -0.17934,-1.717174 -0.45824,-1.965996 -0.37091,-0.330941 -1.022229,-0.341419 -2.579659,-0.05975 -4.99234,0.902744 -4.648551,0.867551 -4.880791,1.24338 -0.12287,0.198752 -0.11752,0.245395 0.10837,1.148704 0.12936,0.517868 0.23354,1.165717 0.23277,1.316009 -0.002,0.319649 -0.417279,0.853636 -0.620399,1.044042 -0.49701,0.465626 -1.62362,0.782412 -2.77763,0.782412 -1.39578,0 -2.44743,-0.479802 -3.49203,-1.592225 C 19.80669,18.622195 19.42135,17.844351 18.90712,16.413104 18.45555,15.156061 18.39362,14.99221 17.92953,15.000275 Z"/>
</svg>
