<svg xmlns="http://www.w3.org/2000/svg" width="48" height="48" version="1.1" viewBox="0 0 48 48">
 <path style="opacity:0.2" d="m 20,5 0,12.595703 A 14,14 0 0 0 10,31 14,14 0 0 0 24,45 14,14 0 0 0 38,31 14,14 0 0 0 28,17.589844 L 28,5 20,5 Z"/>
 <circle style="fill:#e4e4e4" cx="24" cy="30" r="14"/>
 <path style="opacity:0.2;fill:#ffffff" d="M 20 4 L 20 5 L 28 5 L 28 4 L 20 4 z M 28 16.589844 L 28 17.589844 A 14 14 0 0 1 37.978516 30.585938 A 14 14 0 0 0 38 30 A 14 14 0 0 0 28 16.589844 z M 20 16.595703 A 14 14 0 0 0 10 30 A 14 14 0 0 0 10.023438 30.453125 A 14 14 0 0 1 20 17.595703 L 20 16.595703 z"/>
 <rect style="fill:#e4e4e4" width="8" height="18" x="20" y="4"/>
 <path d="M 14.839844,27 A 10,10 0 0 0 14,31 10,10 0 0 0 24,41 10,10 0 0 0 34,31 10,10 0 0 0 33.152344,27 l -18.3125,0 z" style="opacity:0.2"/>
 <path style="fill:#48a422" d="M 14.839844 26 A 10 10 0 0 0 14 30 A 10 10 0 0 0 24 40 A 10 10 0 0 0 34 30 A 10 10 0 0 0 33.152344 26 L 14.839844 26 z"/>
 <rect width="12" height="2" x="18" y="5" rx="1" ry="1" style="opacity:0.2"/>
 <rect style="fill:#e4e4e4" width="12" height="2" x="18" y="4" rx="1" ry="1"/>
 <path style="opacity:0.2;fill:#ffffff" d="M 19 4 C 18.446 4 18 4.446 18 5 C 18 5.1863667 18.064267 5.3509446 18.152344 5.5 C 18.326087 5.2059684 18.632367 5 19 5 L 29 5 C 29.367633 5 29.673913 5.2059684 29.847656 5.5 C 29.935733 5.3509446 30 5.1863667 30 5 C 30 4.446 29.554 4 29 4 L 19 4 z"/>
</svg>
