<svg xmlns="http://www.w3.org/2000/svg" width="48" height="48" version="1.1">
 <circle style="opacity:0.2" cx="24" cy="25" r="20"/>
 <circle style="fill:#e4e4e4" cx="24" cy="24" r="20"/>
 <path style="opacity:0.2;fill:#ffffff" d="M 24,4 A 20,20 0 0 0 4,24 20,20 0 0 0 4.0215,24.582 20,20 0 0 1 24,5 20,20 0 0 1 43.979,24.418 20,20 0 0 0 44,24 20,20 0 0 0 24,4 Z"/>
 <path style="opacity:0.1" d="M 14.933594,15.005859 12.066406,17.794922 22,28.011719 V 39 h 4 V 28.011719 L 35.933594,17.794922 33.066406,15.005859 24,24.332031 Z"/>
 <path style="fill:#ff2f2f" d="M 14.933594 14.005859 L 12.066406 16.794922 L 22 27.011719 L 22 38 L 26 38 L 26 27.011719 L 35.933594 16.794922 L 33.066406 14.005859 L 24 23.332031 L 14.933594 14.005859 z"/>
</svg>
