<?xml version='1.0' encoding='UTF-8' standalone='no'?>
<svg height="16" style="enable-background:new" version="1.1" width="16" xmlns="http://www.w3.org/2000/svg">
 <title>
  Paper Symbolic Icon Theme
 </title>
 <g transform="translate(-685.00041,159.00336)">
  <path d="m 693.0002,-158.00391 c -3.86599,0 -7,3.13401 -7,7 0,3.86599 3.13401,7 7,7 3.86599,0 7,-3.13401 7,-7 0,-3.86599 -3.13401,-7 -7,-7 z m -4.96875,5.375 c 0.0421,-0.0152 0.06,-0.006 0.0625,0 0.004,0.0221 3.82475,0.5625 3.84375,0.5625 0.3375,0.2967 0.2544,0.7707 0.0625,1.0625 -0.002,0.003 -0.41685,8.4e-4 -0.75,0 l 0,0.004 -0.25,0 c 0,0.55064 -0.44593,1 -1,1 -0.55424,0 -1,-0.44936 -1,-1 l -0.25,0 0,-0.004 c -0.33366,-1.4e-4 -0.75,0 -0.75,0 0,0 -0.47425,-0.458 -0.40625,-1 0.0506,-0.40635 0.31129,-0.57944 0.4375,-0.625 z m 9.875,0 c 0.01,-0.023 0.4323,0.0832 0.5,0.625 0.068,0.542 -0.40625,1 -0.40625,1 0,0 -0.41634,-1.4e-4 -0.75,0 l 0,0.004 -0.25,0 c 0,0.55064 -0.44585,1 -1,1 -0.55407,0 -1,-0.44936 -1,-1 l -0.25,0 0,-0.004 c -0.33321,8.4e-4 -0.74796,0.003 -0.75,0 -0.192,-0.2918 -0.2741,-0.7658 0.0625,-1.0625 0.019,0 3.83945,-0.5404 3.84375,-0.5625 z m -6.40625,5.625 3,0 c 0.277,0 0.5,0.22429 0.5,0.5 0,0.27571 -0.223,0.5 -0.5,0.5 l -3,0 c -0.277,0 -0.5,-0.22429 -0.5,-0.5 0,-0.27571 0.223,-0.5 0.5,-0.5 z" style="fill:#5c616c;fill-opacity:1;"/>
 </g>
</svg>
