<svg xmlns="http://www.w3.org/2000/svg" width="16" height="16" version="1.1">
 <defs>
  <style id="current-color-scheme" type="text/css">
   .ColorScheme-Text { color:#dfdfdf; } .ColorScheme-Highlight { color:#4285f4; } .ColorScheme-NeutralText { color:#ff9800; } .ColorScheme-PositiveText { color:#4caf50; } .ColorScheme-NegativeText { color:#f44336; }
  </style>
 </defs>
 <path style="fill:currentColor" class="ColorScheme-Text" d="M 1,1.2499999 C 1,1.875 1.6249996,2.5000001 2.2500004,2.5000001 8.46325,2.4999938 13.499999,7.53675 13.499999,13.750001 13.499999,14.374999 14.066838,15 14.750001,15 15.374999,15 16,14.374999 16,13.750001 16,6.1562496 9.843749,0 2.2500004,0 1.6249996,0 1,0.6250001 1,1.2499999 Z M 1,6.2499996 C 1,6.8749993 1.6249996,7.5 2.2500004,7.5 5.70175,7.499997 8.5,10.29825 8.5,13.750001 8.5,14.374999 9.125001,15 9.749999,15 10.375,15 11.000001,14.374999 11.000001,13.750001 11.000001,8.9175 7.0825,4.9999999 2.2500004,4.9999999 1.6249996,4.9999999 1,5.625 1,6.2499996 Z M 3.4999996,10.000001 C 2.1192496,10.000001 1,11.119313 1,12.499999 1,13.880625 2.119375,15 3.4999996,15 c 1.38075,0 2.4999997,-1.119312 2.4999997,-2.500001 0,-1.380686 -1.1193118,-2.499998 -2.4999997,-2.499998 z"/>
</svg>
