<svg xmlns="http://www.w3.org/2000/svg" width="16" height="16" version="1.1">
 <defs>
  <style id="current-color-scheme" type="text/css">
   .ColorScheme-Text { color:#dfdfdf; } .ColorScheme-Highlight { color:#4285f4; } .ColorScheme-NeutralText { color:#ff9800; } .ColorScheme-PositiveText { color:#4caf50; } .ColorScheme-NegativeText { color:#f44336; }
  </style>
 </defs>
 <path style="fill:currentColor" class="ColorScheme-Text" d="M 11,9 V 11 H 9 V 13 H 11 V 15 H 13 V 13 H 15 V 11 H 13 V 9 Z M 3,1 C 1,1 1,3 1,3 V 15 H 8 V 13 H 3 V 3 H 13 V 8 H 15 V 3 C 15,3 15,1 13,1 Z M 4,10 V 12 H 6 V 10 Z M 4,7 V 9 H 6 V 7 Z M 10,4 V 6 H 12 V 4 Z M 7,4 V 6 H 9 V 4 Z M 4,4 V 6 H 6 V 4 Z"/>
</svg>
