<svg xmlns="http://www.w3.org/2000/svg" width="24" height="24" version="1.1">
 <defs>
  <style id="current-color-scheme" type="text/css">
   .ColorScheme-Text { color:#dfdfdf; } .ColorScheme-Highlight { color:#4285f4; } .ColorScheme-NeutralText { color:#ff9800; } .ColorScheme-PositiveText { color:#4caf50; } .ColorScheme-NegativeText { color:#f44336; }
  </style>
 </defs>
 <path style="fill:currentColor" class="ColorScheme-Text" d="M 17 6 A 2 2 0 0 0 15 8 A 2 2 0 0 0 17 10 A 2 2 0 0 0 19 8 A 2 2 0 0 0 17 6 z M 12.052734 9.0019531 C 11.756773 8.9742229 11.405121 9.1709475 9.6894531 10.320312 C 8.159898 11.344881 7.85266 11.520648 7.6171875 11.513672 C 7.4379458 11.508372 7.0986998 11.413937 5.9375 11.044922 C 4.2249287 10.500679 3.7546655 10.373355 3.3085938 10.328125 C 3.0199874 10.298855 2.9498557 10.359287 3.03125 10.570312 C 3.2119434 11.038379 4.0045703 12.032286 5.0195312 13.0625 C 5.9231922 13.979736 6.6817831 14.607603 7.1953125 14.865234 C 7.5001783 15.018184 7.6119496 15.03126 7.9296875 14.951172 C 8.3418853 14.84731 9.1100591 14.468388 10.083984 13.888672 C 10.414981 13.691685 10.918487 13.392299 11.203125 13.222656 C 11.487763 13.053013 11.782706 12.888642 11.857422 12.857422 C 11.981788 12.805392 11.999607 12.802504 12.085938 12.833984 C 12.245726 12.892214 12.451932 13.007903 13.207031 13.462891 C 15.018998 14.55469 15.704577 14.899216 16.244141 14.988281 C 16.49626 15.029901 16.780535 14.921054 17.220703 14.615234 C 18.437262 13.770009 20.520956 11.544859 20.927734 10.65625 C 21.069231 10.347266 21.016802 10.290513 20.638672 10.335938 C 20.195116 10.389178 19.744595 10.512312 18.171875 11.013672 C 16.979028 11.393893 16.559019 11.511768 16.378906 11.515625 C 16.147402 11.520625 15.841472 11.3439 14.333984 10.332031 C 12.818269 9.3146572 12.327404 9.0276851 12.052734 9.0019531 z"/>
</svg>
