<?xml version="1.0" encoding="UTF-8" standalone="no"?>
<!-- Created with Inkscape (http://www.inkscape.org/) -->
<svg id="svg7384" xmlns:rdf="http://www.w3.org/1999/02/22-rdf-syntax-ns#" style="enable-background:new" xmlns="http://www.w3.org/2000/svg" xmlns:osb="http://www.openswatchbook.org/uri/2009/osb" height="16" width="16" version="1.1" xmlns:cc="http://creativecommons.org/ns#" xmlns:dc="http://purl.org/dc/elements/1.1/">
 <metadata id="metadata90">
  <rdf:RDF>
   <cc:Work rdf:about="">
    <dc:format>image/svg+xml</dc:format>
    <dc:type rdf:resource="http://purl.org/dc/dcmitype/StillImage"/>
    <dc:title>Paper Symbolic Icon Theme</dc:title>
   </cc:Work>
  </rdf:RDF>
 </metadata>
 <title id="title8473">Paper Symbolic Icon Theme</title>
 <defs id="defs7386">
  <filter id="filter7554" style="color-interpolation-filters:sRGB">
   <feBlend id="feBlend7556" in2="BackgroundImage" mode="darken"/>
  </filter>
 </defs>
 <g id="layer2" transform="translate(-424,-428)">
  <path id="path4650" opacity=".5" d="m432 429c-3.866 0-7 3.134-7 7s3.134 7 7 7h4.375s0.8204 0 0.875-0.875c0-0.875-0.875-0.875-0.875-0.875h-4.375c-2.8995 0-5.25-2.3505-5.25-5.25s2.3505-5.25 5.25-5.25 5.25 2.3505 5.25 5.25v0.875c0 0.48324-0.39176 0.875-0.875 0.875-0.48325 0-0.875-0.39176-0.875-0.875v-0.875c0-1.933-1.567-3.5-3.5-3.5s-3.5 1.567-3.5 3.5 1.567 3.5 3.5 3.5c0.91539 0 1.7416-0.36125 2.3652-0.93652 0.49905 0.59304 1.2347 0.9369 2.0098 0.93652 1.4498 0 2.625-1.1752 2.625-2.625v-0.88c0-3.866-3.134-7-7-7zm0 5.25c0.96651 0 1.75 0.78351 1.75 1.75s-0.78349 1.75-1.75 1.75-1.75-0.78351-1.75-1.75 0.78349-1.75 1.75-1.75z"/>
 </g>
</svg>
