<svg xmlns="http://www.w3.org/2000/svg" width="32" height="32" version="1">
 <rect style="opacity:0.2" width="28" height="28" x="2" y="3" rx="8.4" ry="8.4"/>
 <rect style="fill:#3c2f4c" width="28" height="28" x="2" y="2" rx="8.4" ry="8.4"/>
 <path style="fill:#ffffff;opacity:0.1" d="M 10.400391 2 C 5.7467908 2 2 5.7467908 2 10.400391 L 2 11.400391 C 2 6.7467908 5.7467908 3 10.400391 3 L 21.599609 3 C 26.253209 3 30 6.7467908 30 11.400391 L 30 10.400391 C 30 5.7467908 26.253209 2 21.599609 2 L 10.400391 2 z"/>
 <path style="opacity:0.2" d="M 8,8 C 6.892,8 6,8.892 6,10 v 5 c 0,1.108 0.892,2 2,2 h 2 c 1.108,0 2,-0.892 2,-2 V 10 C 12,8.892 11.108,8 10,8 Z m 7,0 c -1.108,0 -2,0.892 -2,2 v 5 c 0,1.108 0.892,2 2,2 h 2 c 1.108,0 2,-0.892 2,-2 v -0.5 l -2,-0.25 v 0.08984 C 17,14.706047 16.706047,15 16.339844,15 H 15.660156 C 15.293953,15 15,14.706047 15,14.339844 V 14 11 10.660156 C 15,10.293953 15.293953,10 15.660156,10 h 0.679688 C 16.706047,10 17,10.293953 17,10.660156 V 10.75 L 19,10.5 V 10 C 19,8.892 18.108,8 17,8 Z m 7,0 c -1.108,0 -2,0.892 -2,2 v 5 c 0,1.108 0.892,2 2,2 h 2 c 1.108,0 2,-0.892 2,-2 v -0.5 l -2,-0.25 v 0.08984 C 24,14.706047 23.706047,15 23.339844,15 H 22.660156 C 22.293953,15 22,14.706047 22,14.339844 V 14 11 10.660156 C 22,10.293953 22.293953,10 22.660156,10 h 0.679688 C 23.706047,10 24,10.293953 24,10.660156 V 10.75 L 26,10.5 V 10 C 26,8.892 25.108,8 24,8 Z M 8.6601562,10 H 9.3398438 C 9.7060469,10 10,10.293953 10,10.660156 v 3.679688 C 10,14.706047 9.7060469,15 9.3398438,15 H 8.6601562 C 8.2939531,15 8,14.706047 8,14.339844 V 10.660156 C 8,10.293953 8.2939531,10 8.6601562,10 Z M 11,18 c -1.108,0 -2,0.892 -2,2 v 7 h 2 v -3 h 4 v -2 h -4 v -2 h 4 v -2 z m 6,0 v 2 h 2 v 7 h 2 v -7 h 2 v -2 z"/>
 <path style="fill:#ebe0ed" d="M 8 7 C 6.892 7 6 7.892 6 9 L 6 14 C 6 15.108 6.892 16 8 16 L 10 16 C 11.108 16 12 15.108 12 14 L 12 9 C 12 7.892 11.108 7 10 7 L 8 7 z M 15 7 C 13.892 7 13 7.892 13 9 L 13 14 C 13 15.108 13.892 16 15 16 L 17 16 C 18.108 16 19 15.108 19 14 L 19 13.5 L 17 13.25 L 17 13.339844 C 17 13.706047 16.706047 14 16.339844 14 L 15.660156 14 C 15.293953 14 15 13.706047 15 13.339844 L 15 13 L 15 10 L 15 9.6601562 C 15 9.2939531 15.293953 9 15.660156 9 L 16.339844 9 C 16.706047 9 17 9.2939531 17 9.6601562 L 17 9.75 L 19 9.5 L 19 9 C 19 7.892 18.108 7 17 7 L 15 7 z M 22 7 C 20.892 7 20 7.892 20 9 L 20 14 C 20 15.108 20.892 16 22 16 L 24 16 C 25.108 16 26 15.108 26 14 L 26 13.5 L 24 13.25 L 24 13.339844 C 24 13.706047 23.706047 14 23.339844 14 L 22.660156 14 C 22.293953 14 22 13.706047 22 13.339844 L 22 13 L 22 10 L 22 9.6601562 C 22 9.2939531 22.293953 9 22.660156 9 L 23.339844 9 C 23.706047 9 24 9.2939531 24 9.6601562 L 24 9.75 L 26 9.5 L 26 9 C 26 7.892 25.108 7 24 7 L 22 7 z M 8.6601562 9 L 9.3398438 9 C 9.7060469 9 10 9.2939531 10 9.6601562 L 10 13.339844 C 10 13.706047 9.7060469 14 9.3398438 14 L 8.6601562 14 C 8.2939531 14 8 13.706047 8 13.339844 L 8 9.6601562 C 8 9.2939531 8.2939531 9 8.6601562 9 z M 11 17 C 9.892 17 9 17.892 9 19 L 9 26 L 11 26 L 11 23 L 15 23 L 15 21 L 11 21 L 11 19 L 15 19 L 15 17 L 11 17 z M 17 17 L 17 19 L 19 19 L 19 26 L 21 26 L 21 19 L 23 19 L 23 17 L 17 17 z"/>
</svg>
