<?xml version="1.0" encoding="UTF-8" standalone="no"?>
<svg id="svg2817" xmlns:rdf="http://www.w3.org/1999/02/22-rdf-syntax-ns#" xmlns="http://www.w3.org/2000/svg" height="32" width="32" version="1.0" xmlns:cc="http://creativecommons.org/ns#" xmlns:dc="http://purl.org/dc/elements/1.1/">
    <metadata id="metadata57">
        <rdf:RDF>
            <cc:Work rdf:about="">
                <dc:format>
                    image/svg+xml
                </dc:format>
                <dc:type rdf:resource="http://purl.org/dc/dcmitype/StillImage"/>
                <dc:title/>
            </cc:Work>
        </rdf:RDF>
    </metadata>
    <defs id="defs2819">
        <clipPath id="clipPath4483" clipPathUnits="userSpaceOnUse">
            <path id="path4485" fill="#fecd38" d="m91.5 254c-0.831 0-1.5 0.669-1.5 1.5v25c0 0.831 0.669 1.5 1.5 1.5h16.5l10-10v-16.5c0-0.831-0.669-1.5-1.5-1.5z"/>
        </clipPath>
    </defs>
    <path id="rect4255" fill="#fecd38" d="m4 2s-2 0-2 2v24c0 2 2 2 2 2h16l10-10v-16c0-2-2-2-2-2z"/>
    <path id="path4365" opacity=".2" style="enable-background:new" d="m118 272h-8.5c-0.82843 0-1.5 0.67158-1.5 1.5v8.5z" clip-path="url(#clipPath4483)" transform="translate(-88,-252)"/>
    <path id="path4172" style="enable-background:new" fill="#ffe69b" d="m30 20h-8.5c-0.828 0-1.5 0.672-1.5 1.5v8.5z"/>
    <path id="path4328" opacity=".1" style="enable-background:new" fill="#fff" d="m21.5 20c-0.828 0-1.5 0.672-1.5 1.5v1c0-0.828 0.672-1.5 1.5-1.5h7.5l1-1h-8.5z"/>
    <path id="path4253" opacity=".1" fill="#fff" d="m4 2c-0.831 0-2 1.169-2 2v1c0-0.831 1.169-2 2-2h24c0.831 0 2 1.169 2 2v-1c0-0.831-1.169-2-2-2z"/>
    <path id="path4239" opacity=".2" d="m30 20-10 10h-16.5c-0.831 0-1.5-0.669-1.5-1.5v1c0 0.831 0.669 1.5 1.5 1.5h16.5l10-10v-1z"/>
    <g id="g5705" opacity=".5" transform="translate(0,-2)">
        <path id="path13992" opacity="1" style="enable-background:new" d="m10 11v-1h12v1z"/>
        <path id="path5689" opacity="1" style="enable-background:new" d="m10 14v-1h12v1z"/>
        <path id="path5691" opacity="1" style="enable-background:new" d="m10 17v-1h12v1z"/>
        <path id="path5693" opacity="1" style="enable-background:new" d="m10 20v-1h8v1z"/>
    </g>
</svg>
