<svg width="32" height="32" version="1.1" xmlns="http://www.w3.org/2000/svg">
 <rect x="2.0002301" y="1.999608" width="28" height="28" rx="1.4" ry="1.4" style="fill:#21847c"/>
 <path d="m3.40063 1.999608c-0.7756 0-1.4004 0.6248-1.4004 1.4004v1c0-0.7756 0.6248-1.4004 1.4004-1.4004h25.2c0.775 0 1.4 0.6248 1.4 1.4004v-1c0-0.7756-0.625-1.4004-1.4-1.4004z" style="fill:#ffffff;opacity:.1"/>
 <path d="m2.00023 28.599608v1c0 0.775 0.6248 1.4 1.4004 1.4h25.2c0.775 0 1.4-0.625 1.4-1.4v-1c0 0.775-0.625 1.4-1.4 1.4h-25.2c-0.7752 0-1.4-0.625-1.4-1.4z" style="opacity:.2"/>
 <path d="m18 13v11h3v-6c2-3 4-2 4-2v-3s-3 0-4 2v-2z" style="opacity:.2"/>
 <path d="m18 12v11h3v-6c2-3 4-2 4-2v-3s-3 0-4 2v-2z" style="fill:#d8fbfd"/>
 <path d="m7 10v14h9v-2h-6v-12z" style="opacity:.2"/>
 <path d="m7 9v14h9v-2h-6v-12z" style="fill:#d8fbfd"/>
</svg>
