<svg xmlns="http://www.w3.org/2000/svg" width="32" height="32" version="1.1">
 <path style="opacity:0.2" d="M 14.349609,7 C 10.604155,6.9958392 8.2693215,9.4375872 7.1835938,11.701172 4.1844715,12.83817 2,15.711182 2,19.070312 2,23.389506 5.5736383,27 9.90625,27 h 12.1875 C 26.426361,27 30,23.389973 30,19.070312 c 0,-4.319783 -3.573638,-7.93164 -7.90625,-7.93164 -0.04102,3.6e-5 -0.08204,7.02e-4 -0.123047,0.002 -0.03495,0.0011 -0.06473,0.01991 -0.09961,0.02148 C 21.61815,11.022981 21.352315,10.953498 21.082031,10.845703 19.111575,8.4451016 18.095063,7.0041608 14.349609,7 Z"/>
 <path style="fill:#006680" d="M 14.349609,6 C 10.604155,5.9958392 8.2693215,8.4375872 7.1835938,10.701172 4.1844715,11.83817 2,14.711182 2,18.070312 2,22.389506 5.5736383,26 9.90625,26 h 12.1875 C 26.426361,26 30,22.389973 30,18.070312 c 0,-4.319783 -3.573638,-7.93164 -7.90625,-7.93164 -0.04102,3.6e-5 -0.08204,7.02e-4 -0.123047,0.002 -0.03495,0.0011 -0.06473,0.01991 -0.09961,0.02148 C 21.61815,10.022981 21.352315,9.9534976 21.082031,9.8457031 19.111575,7.4451016 18.095063,6.0041608 14.349609,6 Z"/>
 <path style="opacity:.2" d="m14.35 11c-2.1574 0-3.9063 1.7598-3.9063 3.9306 0.003 0.09915 0.0101 0.19677 0.02094 0.2928-0.17774-0.03594-0.36358-0.06454-0.55832-0.08458-2.1574 0-3.9062 1.7598-3.9062 3.9306s1.7489 3.9306 3.9062 3.9306h12.187c2.1574 0 3.90668-1.7598 3.90668-3.9306s-1.74938-3.9306-3.90668-3.9306c-0.43031 0.0133-0.83142 0.10361-1.1986 0.2552-0.54689-0.69699-1.3941-1.1444-2.3451-1.1444-0.1209 0.0067-0.23712 0.01064-0.34912 0.02063-0.31223-1.8563-1.9174-3.27-3.8511-3.27z"/>
 <path style="fill:#33b3bc" d="m14.35 10c-2.1574 0-3.9063 1.7598-3.9063 3.9306 0.003 0.09915 0.0101 0.19677 0.02094 0.2928-0.17774-0.03594-0.36358-0.06454-0.55832-0.08458-2.1574 0-3.9062 1.7598-3.9062 3.9306s1.7489 3.9306 3.9062 3.9306h12.187c2.1574 0 3.90668-1.7598 3.90668-3.9306s-1.74938-3.9306-3.90668-3.9306c-0.43031 0.0133-0.83142 0.10361-1.1986 0.2552-0.54689-0.69699-1.3941-1.1444-2.3451-1.1444-0.1209 0.0067-0.23712 0.01064-0.34912 0.02063-0.31223-1.8563-1.9174-3.27-3.8511-3.27z"/>
 <path style="opacity:0.1;fill:#ffffff" d="M 14.349609 6 C 10.604155 5.9958392 8.2693214 8.4375871 7.1835938 10.701172 C 4.1844715 11.83817 2 14.711182 2 18.070312 C 2 18.219785 2.0149945 18.366017 2.0234375 18.513672 C 2.2497498 15.397061 4.3519473 12.774678 7.1835938 11.701172 C 8.2693214 9.4375871 10.604155 6.9958392 14.349609 7 C 18.095063 7.0041608 19.111575 8.4451017 21.082031 10.845703 C 21.352315 10.953498 21.618151 11.022938 21.871094 11.162109 C 21.905974 11.160539 21.935753 11.141725 21.970703 11.140625 C 22.01171 11.139327 22.05273 11.138708 22.09375 11.138672 C 26.257288 11.138672 29.710701 14.476448 29.974609 18.570312 C 29.985326 18.404078 30 18.238881 30 18.070312 C 30 13.750529 26.426362 10.138672 22.09375 10.138672 C 22.05273 10.138708 22.01171 10.139327 21.970703 10.140625 C 21.935753 10.141725 21.905974 10.160539 21.871094 10.162109 C 21.618151 10.022938 21.352315 9.9534976 21.082031 9.8457031 C 19.111575 7.4451016 18.095063 6.0041608 14.349609 6 z"/>
</svg>
