<svg xmlns="http://www.w3.org/2000/svg" width="32" height="32" version="1">
 <rect style="opacity:0.2" width="29" height="25" x="2" y="3" rx="1.381" ry="1.389"/>
 <rect style="fill:#2f8c9f" width="29" height="25" x="2" y="2" rx="1.381" ry="1.389"/>
 <path style="opacity:0.3" d="M 2 9 L 2 25.611328 C 2 26.380773 2.6158118 27 3.3808594 27 L 29.619141 27 C 30.384188 27 31 26.380773 31 25.611328 L 31 9 L 2 9 z"/>
 <path style="opacity:0.2" d="m 25,5.0806678 2,-10e-8 h 2 L 28,6.7473341 27,8.414 26,6.747334 Z"/>
 <path style="fill:#70cbde" d="m 25,4.0806678 2,-10e-8 h 2 L 28,5.7473341 27,7.414 26,5.747334 Z"/>
 <path style="opacity:0.2" d="m 13,12 v 13 h 2.011439 l 0.441964,-1.181932 h 0.175782 c 0.258823,0.303894 0.588142,0.580114 0.988142,0.827734 C 17.029092,24.882165 17.587643,25 18.293527,25 19.399409,25 20.294348,24.594178 20.976702,23.783789 21.659055,22.9734 22,21.580762 22,20.005006 c 0,-1.564502 -0.335131,-2.940905 -1.00572,-3.740039 -0.670588,-0.81039 -1.546833,-1.216211 -2.629186,-1.216211 -0.694117,0 -1.259739,0.136121 -1.695033,0.40625 -0.435294,0.258875 -0.782053,0.579621 -1.040876,0.962305 h -0.105469 c 0.02353,-0.191342 0.04678,-0.457065 0.07031,-0.794728 0.02353,-0.337661 0.03516,-0.680671 0.03516,-1.02959 V 12 Z m 4.604213,5.000025 c 0.578263,0 1.033877,0.245838 1.366071,0.736328 0.344498,0.478526 0.516044,1.19607 0.516044,2.153125 0,0.957055 -0.166272,1.892003 -0.498466,2.406421 C 18.655668,22.798352 18.206585,23.05 17.640625,23.05 c -0.762816,0 -1.29177,-0.251648 -1.587054,-0.754101 -0.28298,-0.514418 -0.424386,-1.443555 -0.424386,-2.388648 v -0.286913 c 0.01231,-0.873313 0.16677,-1.525674 0.462054,-1.956348 0.295283,-0.44264 0.799371,-0.663965 1.512974,-0.663965 z"/>
 <path style="fill:#ffffff" d="m 13,11 v 13 h 2.011439 l 0.441964,-1.181932 h 0.175782 c 0.258823,0.303894 0.588142,0.580114 0.988142,0.827734 C 17.029092,23.882165 17.587643,24 18.293527,24 19.399409,24 20.294348,23.594178 20.976702,22.783789 21.659055,21.9734 22,20.580762 22,19.005006 c 0,-1.564502 -0.335131,-2.940905 -1.00572,-3.740039 -0.670588,-0.81039 -1.546833,-1.216211 -2.629186,-1.216211 -0.694117,0 -1.259739,0.136121 -1.695033,0.40625 -0.435294,0.258875 -0.782053,0.579621 -1.040876,0.962305 h -0.105469 c 0.02353,-0.191342 0.04678,-0.457065 0.07031,-0.794728 0.02353,-0.337661 0.03516,-0.680671 0.03516,-1.02959 V 11 Z m 4.604213,5.000025 c 0.578263,0 1.033877,0.245838 1.366071,0.736328 0.344498,0.478526 0.516044,1.19607 0.516044,2.153125 0,0.957055 -0.166272,1.892003 -0.498466,2.406421 C 18.655668,21.798352 18.206585,22.05 17.640625,22.05 c -0.762816,0 -1.29177,-0.251648 -1.587054,-0.754101 -0.28298,-0.514418 -0.424386,-1.443555 -0.424386,-2.388648 v -0.286913 c 0.01231,-0.873313 0.16677,-1.525674 0.462054,-1.956348 0.295283,-0.44264 0.799371,-0.663965 1.512974,-0.663965 z"/>
 <circle style="opacity:0.2" cx="16.5" cy="28.5" r="2.5"/>
 <circle style="fill:#3eb1c9" cx="16.5" cy="27.5" r="2.5"/>
 <g transform="matrix(0.96551726,0,0,0.96551726,0.73563191,0.36781582)">
  <circle style="fill:#3f3f3f" cx="5.452" cy="5.833" r="2.071"/>
  <circle style="fill:#70cbde" cx="5.452" cy="5.833" r="1.381"/>
 </g>
 <path style="fill:#ffffff;opacity:0.2" d="M 3.3808594 2 C 2.6158118 2 2 2.6192275 2 3.3886719 L 2 4.3886719 C 2 3.6192275 2.6158118 3 3.3808594 3 L 29.619141 3 C 30.384188 3 31 3.6192275 31 4.3886719 L 31 3.3886719 C 31 2.6192275 30.384188 2 29.619141 2 L 3.3808594 2 z"/>
 <path style="fill:#ffffff;opacity:0.2" d="M 25 4.0800781 L 25.599609 5.0800781 L 27 5.0800781 L 28.400391 5.0800781 L 29 4.0800781 L 27 4.0800781 L 25 4.0800781 z"/>
 <path style="fill:#ffffff;opacity:0.2" d="M 16.5 25 A 2.5 2.5 0 0 0 14 27.5 A 2.5 2.5 0 0 0 14.052734 27.996094 A 2.5 2.5 0 0 1 16.5 26 A 2.5 2.5 0 0 1 18.947266 28.003906 A 2.5 2.5 0 0 0 19 27.5 A 2.5 2.5 0 0 0 16.5 25 z"/>
</svg>
