<svg xmlns="http://www.w3.org/2000/svg" width="32" height="32" version="1">
 <path style="opacity:0.2" d="m 15.835938,4 c -0.841809,0.024215 -1.363765,0.6203316 -1.736329,0.8984375 L 2,14 v 1.957031 6.539063 4.546875 c 0,0.378165 0.1116431,0.730656 0.3046875,1.029297 l -0.015625,0.0078 C 2.6455659,28.631399 3.2973132,29 4.0488281,29 H 27.951172 c 0.751514,0 1.403261,-0.368601 1.759766,-0.919922 l -0.01563,-0.0078 C 29.888357,27.773625 30,27.421134 30,27.042969 V 22.496094 15.957031 14 L 17.900391,4.8984375 C 17.527827,4.6203316 17.005873,4.024216 16.164062,4 16.111521,3.9983974 16.055081,4.0046592 16,4.0078125 15.94492,4.0046725 15.888481,3.9985 15.835938,4 Z"/>
 <path style="fill:#2e49a4" d="M 2,13 16,8.8 30,13 27.9,24.9 H 4.1 Z"/>
 <path style="fill:#3c60d8" d="M 15.836306,3.0003025 C 14.994497,3.0245178 14.473024,3.6195597 14.10046,3.8976656 L 2,13 H 30 L 17.899539,3.8976656 C 17.526975,3.6195597 17.005504,3.0245185 16.163694,3.0003025 16.111152,2.9986999 16.055081,3.003836 16,3.0069893 c -0.05508,-0.00314 -0.11115,-0.00818 -0.163694,-0.00668 z"/>
 <rect style="fill:#ffffff" width="12" height="12" x="10" y="10" rx="1.297" ry="1.297"/>
 <path style="fill:#3052c3" d="m 2,13 v 1.956522 6.540526 4.546431 c 0,0.500904 0.1951432,0.956684 0.5170865,1.302071 0.3747114,0.401999 2.0872592,-0.438378 2.6976838,-0.447453 L 15.372487,26.747088 c 19.594155,0.970959 0.03041,-3.292652 0.03041,-3.292652 z"/>
 <path style="fill:#4971f3" d="m 30,13 v 1.956522 6.540526 4.546431 c 0,0.500904 -0.195143,0.956684 -0.517086,1.302071 -0.374712,0.401999 -2.08726,-0.438378 -2.697684,-0.447453 L 16.627513,26.747088 c -19.5941547,0.970959 -0.03041,-3.292652 -0.03041,-3.292652 z"/>
 <path style="fill:#3d62dd" d="M 15 10.804688 C 14.058904 10.910002 13.368057 11.300438 13 11.652344 L 13 16 C 13 17.656854 14.343146 19 16 19 C 17.656854 19 19 17.656854 19 16 C 19 14.343146 17.656854 13 16 13 C 15.86618 13.000573 15.757549 13.008904 15.625 13.027344 L 15.625 15.074219 A 1 1 0 0 1 16 15 A 1 1 0 0 1 17 16 A 1 1 0 0 1 16 17 A 1 1 0 0 1 15 16 L 15 10.804688 z"/>
 <path style="fill:#ffffff;opacity:0.1" d="M 30 13 L 16.597656 23.455078 C 16.597656 23.455078 4.8737213 26.010651 8.6855469 26.712891 C 10.806385 25.718058 16.597656 24.453125 16.597656 24.453125 L 30 14 L 30 13 z"/>
 <path style="fill:#ffffff;opacity:0.1" d="M 2 13 L 2 14 L 15.402344 24.453125 C 15.402344 24.453125 21.193615 25.718058 23.314453 26.712891 C 27.126279 26.010651 15.402344 23.455078 15.402344 23.455078 L 2 13 z"/>
 <path style="fill:#3c60d8" d="m 15.841606,20.000233 c -0.814551,0.01665 -1.31914,0.425738 -1.679639,0.616934 L 2.2881097,27.079501 C 2.6446131,27.630822 3.2972656,28 4.0487805,28 H 27.95122 c 0.751514,0 1.404167,-0.369178 1.760671,-0.920499 L 17.838033,20.617167 c -0.3605,-0.191196 -0.865088,-0.600285 -1.679639,-0.616934 -0.05084,-0.0012 -0.105097,0.0023 -0.158394,0.0046 -0.0533,-0.0021 -0.107551,-0.0057 -0.158394,-0.0046 z"/>
 <path style="fill:#ffffff;opacity:0.1" d="M 15.835938 3 C 14.994129 3.0242153 14.472173 3.6203316 14.099609 3.8984375 L 2 13 L 3.3300781 13 L 14.099609 4.8964844 C 14.472173 4.6183785 14.994129 4.0242153 15.835938 4 C 15.888481 3.9985 15.94492 4.0027194 16 4.0058594 C 16.055081 4.0026994 16.111522 3.9984 16.164062 4 C 17.005873 4.024216 17.527827 4.6183785 17.900391 4.8964844 L 28.669922 13 L 30 13 L 17.900391 3.8984375 C 17.527827 3.6203316 17.005873 3.024216 16.164062 3 C 16.111521 2.9983974 16.055081 3.0046592 16 3.0078125 C 15.94492 3.0046725 15.888481 2.9985 15.835938 3 z"/>
</svg>
