<?xml version="1.0" encoding="UTF-8" standalone="no"?>
<svg xmlns="http://www.w3.org/2000/svg" height="32" width="32" version="1">
 <rect ry="1.5" rx="1.5" transform="matrix(0,-1,-1,0,0,0)" height="28" width="28" y="-30" x="-30" fill="#29aae2"/>
 <rect opacity=".2" ry="1.5" rx="1.5" transform="matrix(0,-1,-1,0,0,0)" height="22" width="22" y="-27" x="-28"/>
 <rect opacity=".02" ry="1.5" rx="1.5" transform="matrix(0,-1,-1,0,0,0)" height="22" width="22" stroke="#000" y="-27" x="-28" stroke-width="2"/>
 <rect ry="1.5" rx="1.5" transform="matrix(0,-1,-1,0,0,0)" height="22" width="22" y="-27" x="-27" fill="#fff"/>
 <path opacity=".2" fill="#fff" d="m3.5 2c-0.831 0-1.5 0.669-1.5 1.5v1c0-0.831 0.669-1.5 1.5-1.5h25c0.831 0 1.5 0.669 1.5 1.5v-1c0-0.831-0.669-1.5-1.5-1.5h-25z"/>
 <path opacity=".2" d="m2 28.5v1c0 0.831 0.669 1.5 1.5 1.5h25c0.831 0 1.5-0.669 1.5-1.5v-1c0 0.831-0.669 1.5-1.5 1.5h-25c-0.831 0-1.5-0.669-1.5-1.5z"/>
 <path fill="#424242" d="m7 7v18h8v-4h-4v-10h4v-4h-4z"/>
 <path fill="#424242" d="m25 7v18h-8v-4h4v-10h-4v-4h4z"/>
</svg>
