<svg xmlns="http://www.w3.org/2000/svg" width="32" height="32" version="1.1" viewBox="0 0 32 32">
 <g transform="translate(0 -1020.4)">
  <path fill="none" stroke="#1f711f" stroke-linecap="round" stroke-linejoin="round" stroke-width="3" d="m21.5 1039.9s-2.764-4.4724-3-7c-0.28574-3.0599 2-9 2-9"/>
  <path fill="none" stroke="#248424" stroke-linecap="round" stroke-linejoin="round" stroke-width="3" d="m10.5 1041.9s0.16148-7.7583 2-11c1.748-3.0822 8-7 8-7"/>
  <path fill-rule="evenodd" opacity=".2" d="m21.93 1024.3a1.5002 1.5002 0 0 1 -0.63281 0.7793s-1.5082 0.9458-3.2285 2.2637c-1.7203 1.3178-3.6337 3.0941-4.2637 4.205-0.67523 1.1905-1.2425 3.8803-1.5039 6.1485-0.262 2.3-0.301 4.2-0.301 4.2a1.5003 1.5003 0 0 1 -2.9707 0.2598c-0.0091 0.2-0.0293 0.6-0.0293 0.6a1.5003 1.5003 0 1 0 3 0.061s0.03942-1.8744 0.30078-4.1426 0.82867-4.9579 1.5039-6.1484c0.63-1.1109 2.5434-2.8873 4.2637-4.2051 1.7203-1.3179 3.2285-2.2637 3.2285-2.2637a1.5002 1.5002 0 0 0 0.63281 -1.7812z"/>
  <path fill="#fff" fill-rule="evenodd" opacity=".1" d="m20.512 1022.4a1.5002 1.5002 0 0 0 -0.80859 0.2402s-1.6163 1.0122-3.459 2.4238-3.9308 3.1362-5.0488 5.1075c-1.1633 2.0512-1.596 4.8619-1.875 7.2832-0.2787 2.4-0.32 4.4-0.32 4.4a1.5003 1.5003 0 0 0 0.0293 0.3183c0.02569-0.691 0.08448-1.9536 0.29102-3.7461 0.27901-2.4213 0.71171-5.232 1.875-7.2832 1.118-1.9713 3.2061-3.6958 5.0488-5.1074s3.459-2.4238 3.459-2.4238a1.5002 1.5002 0 0 1 0.80859 -0.2403 1.5002 1.5002 0 0 1 1.418 1.0039 1.5002 1.5002 0 0 0 -1.418 -2.0019z"/>
  <circle fill="#c72828" cx="22" cy="1040.4" r="7"/>
  <path fill="#fff" opacity=".2" d="m22 1033.4a7 7 0 0 0 -7 7 7 7 0 0 0 0.02344 0.541 7 7 0 0 1 6.9766 -6.541 7 7 0 0 1 6.9766 6.459 7 7 0 0 0 0.02344 -0.459 7 7 0 0 0 -7 -7z"/>
  <path opacity=".2" d="m28.977 1040.8a7 7 0 0 1 -6.977 6.6 7 7 0 0 1 -6.9766 -6.459 7 7 0 0 0 -0.02344 0.459 7 7 0 0 0 7 7 7 7 0 0 0 7 -7 7 7 0 0 0 -0.02344 -0.541z"/>
  <circle fill="#ff3737" cx="10" cy="1043.4" r="7"/>
  <path fill="#fff" opacity=".2" d="m10 1036.4a7 7 0 0 0 -7 7 7 7 0 0 0 0.023437 0.541 7 7 0 0 1 6.9766 -6.541 7 7 0 0 1 6.9766 6.459 7 7 0 0 0 0.02344 -0.459 7 7 0 0 0 -7 -7z"/>
  <path opacity=".2" d="m16.977 1043.8a7 7 0 0 1 -6.977 6.6 7 7 0 0 1 -6.9766 -6.5 7 7 0 0 0 -0.0234 0.5 7 7 0 0 0 7 7 7 7 0 0 0 7 -7 7 7 0 0 0 -0.02344 -0.541z"/>
 </g>
</svg>
