<?xml version="1.0" encoding="UTF-8" standalone="no"?>
<svg id="svg2817" xmlns:rdf="http://www.w3.org/1999/02/22-rdf-syntax-ns#" xmlns="http://www.w3.org/2000/svg" height="32" width="32" version="1.0" xmlns:cc="http://creativecommons.org/ns#" xmlns:dc="http://purl.org/dc/elements/1.1/">
 <metadata id="metadata57">
  <rdf:RDF>
   <cc:Work rdf:about="">
    <dc:format>image/svg+xml</dc:format>
    <dc:type rdf:resource="http://purl.org/dc/dcmitype/StillImage"/>
    <dc:title/>
   </cc:Work>
  </rdf:RDF>
 </metadata>
 <g id="layer4-0" transform="matrix(.90475 0 0 .90475 -716.75 -692.29)">
 </g>
 <g id="layer4-0-7" transform="matrix(.90475 0 0 .90475 -716.75 -685.05)">
 </g>
 <text id="text7276" font-size="12.666px" xml:space="preserve" y="-377.22546" x="435.90427" font-family="&apos;Droid Sans&apos;" fill="#000000"><tspan id="tspan7278" y="-377.22546" x="435.90427"/><tspan id="tspan7280" y="-361.3924" x="435.90427"/></text>
 <rect id="rect4203-4" transform="matrix(0,-1,-1,0,0,0)" rx="14" ry="14" height="28" width="28" y="-30" x="-30" fill="#5d5d5d"/>
 <g id="g4492" opacity=".2" transform="translate(0,1)">
  <path id="path4482" opacity="1" d="m10.016 13.09a6 6 0 0 0 -5.016 5.91 6 6 0 0 0 6 6 6 6 0 0 0 4.773 -2.371 8 8 0 0 1 -2.808 -1.369 3 3 0 0 1 -1.965 0.74 3 3 0 0 1 -3 -3 3 3 0 0 1 1.9102 -2.795 8 8 0 0 1 -0.1094 -1.305 8 8 0 0 1 0.2152 -1.81z"/>
  <path id="path4484" opacity="1" d="m16 5a6 6 0 0 0 -6 6 6 6 0 0 0 0.33789 1.957 8 8 0 0 1 2.6719 -1.7715 3 3 0 0 1 -0.01 -0.186 3 3 0 0 1 3 -3 3 3 0 0 1 3 3 3 3 0 0 1 -0.0098 0.1875 8 8 0 0 1 2.6738 1.7676 6 6 0 0 0 0.336 -1.955 6 6 0 0 0 -6 -6z"/>
  <circle id="circle4486" opacity="1" cy="11" cx="16" r="2"/>
  <circle id="circle4488" opacity="1" cy="19" cx="11" r="2"/>
 </g>
 <path id="rect4400" opacity=".1" fill="#fff" d="m16 2c-7.756 0-14 6.244-14 14 0 0.169 0.0195 0.333 0.0254 0.5 0.2637-7.5206 6.3874-13.5 13.975-13.5 7.587 0 13.711 5.9794 13.975 13.5 0.005-0.167 0.025-0.331 0.025-0.5 0-7.756-6.244-14-14-14z"/>
 <path id="rect4405" opacity=".2" d="m2.0254 16.5c-0.0059 0.167-0.0254 0.331-0.0254 0.5 0 7.756 6.244 14 14 14s14-6.244 14-14c0-0.16884-0.01952-0.33264-0.02539-0.5-0.264 7.521-6.388 13.5-13.975 13.5-7.5872 0-13.711-5.979-13.975-13.5z"/>
 <path id="path4423" fill="#e16262" d="m10.016 13.09a6 6 0 0 0 -5.016 5.91 6 6 0 0 0 6 6 6 6 0 0 0 4.773 -2.371 8 8 0 0 1 -2.808 -1.369 3 3 0 0 1 -1.965 0.74 3 3 0 0 1 -3 -3 3 3 0 0 1 1.9102 -2.795 8 8 0 0 1 -0.1094 -1.305 8 8 0 0 1 0.2152 -1.81z"/>
 <path id="path4440" fill="#69db3e" d="m16 5a6 6 0 0 0 -6 6 6 6 0 0 0 0.338 1.957 8 8 0 0 1 2.672 -1.771 3 3 0 0 1 -0.01 -0.186 3 3 0 0 1 3 -3 3 3 0 0 1 3 3 3 3 0 0 1 -0.01 0.188 8 8 0 0 1 2.674 1.767 6 6 0 0 0 0.336 -1.955 6 6 0 0 0 -6 -6z"/>
 <circle id="path4468" cy="11" cx="16" r="2" fill="#a5e98c"/>
 <circle id="circle4470" cy="19" cx="11" r="2" fill="#eb9595"/>
 <circle id="path4058-7" style="enable-background:new" cx="24" cy="21" r="8" fill="#3facd2"/>
 <circle id="path4381" cy="19" cx="24" r="4" fill="#fff"/>
 <rect id="rect4383" height="4" width="4" y="20" x="22" fill="#fff"/>
 <rect id="rect4385" height="1" width="4" y="25" x="22" fill="#fff"/>
 <path id="circle4375" opacity=".2" style="enable-background:new" d="m31.979 21.424a8 8 0 0 1 -7.979 7.576 8 8 0 0 1 -7.979 -7.424 8 8 0 0 0 -0.021 0.424 8 8 0 0 0 8 8 8 8 0 0 0 8 -8 8 8 0 0 0 -0.02148 -0.57617z"/>
</svg>
