<svg xmlns="http://www.w3.org/2000/svg" width="32" height="32" version="1.1">
 <rect style="opacity:0.2" width="25" height="19" x="4" y="12" rx="2.2" ry="2.2"/>
 <rect style="fill:#5e5c64" width="25" height="19" x="4" y="11" rx="2.2" ry="2.2"/>
 <path style="fill:#d0d0d0" d="M 6,16 H 27 V 28 H 6 Z M 6,16"/>
 <path style="opacity:0.2" d="M 8.2889581,17.881175 20.836811,7.7316104 C 21.415741,7.2624611 22.253641,7.3440928 22.713407,7.9136398 L 27.917205,14.34567 27.113083,21.371642 17.441113,29.195167 C 16.861245,29.664317 16.024283,29.582684 15.563579,29.014077 L 8.0740876,19.754956 C 7.6143221,19.185409 7.7090898,18.350324 8.2889581,17.881175 Z M 8.2889581,17.881175"/>
 <path style="fill:#ffffff" d="M 8.2889581,16.881175 20.836811,6.7316104 C 21.415741,6.2624611 22.253641,6.3440928 22.713407,6.9136398 L 27.917205,13.34567 27.113083,20.371642 17.441113,28.195167 C 16.861245,28.664317 16.024283,28.582684 15.563579,28.014077 L 8.0740876,18.754956 C 7.6143221,18.185409 7.7090898,17.350324 8.2889581,16.881175 Z M 8.2889581,16.881175"/>
 <path style="fill:#e7822b" d="M 9.1277964,17.917994 16.609781,27.167731 26.281752,19.344206 24.840527,17.561441 C 24.379823,16.991895 24.47553,16.155871 25.054459,15.687661 L 26.88414,14.207965 21.675649,7.7674906 Z M 9.1277964,17.917994"/>
 <rect style="opacity:0.2" width="25" height="19" x="4" y="6" rx="2.2" ry="2.2"/>
 <rect style="fill:#b6b5b2" width="25" height="19" x="4" y="5" rx="2.2" ry="2.2"/>
 <path style="fill:#ffffff;opacity:0.2" d="M 6.1992188 5 C 4.9804187 5 4 5.9804187 4 7.1992188 L 4 8.1992188 C 4 6.9804187 4.9804187 6 6.1992188 6 L 26.800781 6 C 28.019581 6 29 6.9804187 29 8.1992188 L 29 7.1992188 C 29 5.9804187 28.019581 5 26.800781 5 L 6.1992188 5 z"/>
 <circle style="fill:#a0a0a0" cx="16.5" cy="15" r="4.5"/>
 <path style="fill:#e7822b;fill-opacity:0" d="M 9.1277964,18.069572 16.609781,27.31931 26.281752,19.495785 24.840527,17.713019 C 24.379823,17.143473 24.47553,16.307449 25.054459,15.839239 L 26.88414,14.359543 21.675649,7.919069 Z M 9.1277964,18.069572"/>
 <circle style="opacity:0.2" cx="16.5" cy="14.5" r="4.5"/>
 <circle style="fill:#ebebeb" cx="16.5" cy="13.5" r="4.5"/>
 <path style="fill:#a0a0a0" d="M 15.249657,9.2491108 15,9.7492479 15.249657,10.249384 15,10.749521 15.249657,11.249658 15,11.749795 15.249657,12.249932 15,12.750069 15.249657,13.250205 15,13.750342 V 14 C 15,14.536272 15.285792,15.031482 15.749794,15.299207 16.213797,15.566931 16.786203,15.566931 17.250205,15.299207 17.714207,15.031482 18,14.536272 18,14 V 13.250205 L 17.750343,12.750069 18,12.249932 17.750343,11.749795 18,11.249658 17.750343,10.749521 18,10.249384 17.750343,9.7492479 18,9.2491108 17.750343,8.7489736 Z M 15.249657,9.2491108"/>
 <path style="fill:#ffffff;fill-opacity:0.38189003" d="M 17.750802,10.748898 C 17.750802,10.748898 17.412156,11.664131 16.522751,11.754467 15.632523,11.843983 15.249448,11.249169 15.249448,11.249169 L 15.00057,11.749439 C 15.00057,11.749439 15.523298,12.445027 16.522751,12.386719 17.521382,12.329232 17.969295,11.259024 17.999681,11.249169 Z M 17.750802,11.749439 C 17.750802,11.749439 17.412156,12.663415 16.522751,12.753752 15.632523,12.843267 15.249448,12.249711 15.249448,12.249711 L 15.00057,12.749981 C 15.00057,12.749981 15.523298,13.445569 16.522751,13.387261 17.521382,13.328952 17.969295,12.259565 17.999681,12.249711 Z M 17.750802,12.749981 C 17.750802,12.749981 17.389531,13.663958 16.500126,13.754294 15.609898,13.84381 15.249448,13.250252 15.249448,13.250253 L 15.00057,13.750522 C 15.00057,13.750522 15.500673,14.446111 16.500126,14.387803 17.498757,14.329494 17.969295,13.259286 17.999681,13.250253 Z"/>
 <path style="opacity:0.2" d="M 7.9414062,1.9925273 A 1.0001,1.0001 0 0 0 7.4023438,3.8030742 L 16.214844,10.355809 A 1.0007873,1.0007873 0 0 0 17.8125,9.5765117 L 25.595703,3.8030742 A 1.0001,1.0001 0 0 0 25.029297,1.9925273 1.0001,1.0001 0 0 0 24.404297,2.1976054 L 16.490234,8.066746 8.5976562,2.1976054 A 1.0001,1.0001 0 0 0 7.9414062,1.9925273 Z M 19.978516,10.990574 A 1.0001,1.0001 0 0 0 19.375,12.78159 L 24.375,16.78159 A 1.0004882,1.0004882 0 1 0 25.625,15.21909 L 20.625,11.21909 A 1.0001,1.0001 0 0 0 19.978516,10.990574 Z M 12.992188,10.992527 A 1.0001,1.0001 0 0 0 12.375,11.21909 L 7.375,15.21909 A 1.0004882,1.0004882 0 1 0 8.625,16.78159 L 13.625,12.78159 A 1.0001,1.0001 0 0 0 12.992188,10.992527 Z"/>
 <path style="fill:none;stroke:#d0d0d0;stroke-width:2;stroke-linecap:round" d="M 16.628887,8.2079558 25,2"/>
 <path style="fill:none;stroke:#d0d0d0;stroke-width:2;stroke-linecap:round" d="M 16.812529,8.5534117 8,2"/>
 <circle style="fill:#a0a0a0" cx="16.5" cy="9" r="3.5"/>
 <circle style="opacity:0.2" cx="16.5" cy="8.453" r="3.5"/>
 <path style="fill:none;stroke:#d0d0d0;stroke-width:2;stroke-linecap:round" d="M 8,15 13,11"/>
 <path style="fill:none;stroke:#d0d0d0;stroke-width:2;stroke-linecap:round" d="M 25,15 20,11"/>
 <path style="opacity:0.2;fill:#ffffff" d="M 7.9414062 0.9921875 A 1.0001 1.0001 0 0 0 7.1210938 2.4902344 A 1.0001 1.0001 0 0 1 7.9414062 1.9921875 A 1.0001 1.0001 0 0 1 8.5976562 2.1972656 L 16.490234 8.0664062 L 24.404297 2.1972656 A 1.0001 1.0001 0 0 1 25.029297 1.9921875 A 1.0001 1.0001 0 0 1 25.875 2.4921875 A 1.0001 1.0001 0 0 0 25.029297 0.9921875 A 1.0001 1.0001 0 0 0 24.404297 1.1972656 L 16.490234 7.0664062 L 8.5976562 1.1972656 A 1.0001 1.0001 0 0 0 7.9414062 0.9921875 z M 19.978516 9.9902344 A 1.0001 1.0001 0 0 0 19.123047 11.490234 A 1.0001 1.0001 0 0 1 19.978516 10.990234 A 1.0001 1.0001 0 0 1 20.625 11.21875 L 25.625 15.21875 A 1.0004882 1.0004882 0 0 1 25.865234 15.5 A 1.0004882 1.0004882 0 0 0 25.625 14.21875 L 20.625 10.21875 A 1.0001 1.0001 0 0 0 19.978516 9.9902344 z M 12.992188 9.9921875 A 1.0001 1.0001 0 0 0 12.375 10.21875 L 7.375 14.21875 A 1.0004882 1.0004882 0 0 0 7.1347656 15.5 A 1.0004882 1.0004882 0 0 1 7.375 15.21875 L 12.375 11.21875 A 1.0001 1.0001 0 0 1 12.992188 10.992188 A 1.0001 1.0001 0 0 1 13.876953 11.494141 A 1.0001 1.0001 0 0 0 12.992188 9.9921875 z"/>
 <circle style="fill:#ebebeb" cx="16.5" cy="7.453" r="3.5"/>
 <path style="fill:#ffffff;opacity:0.2" d="M 16.5 3.953125 A 3.5 3.5 0 0 0 13 7.453125 A 3.5 3.5 0 0 0 13.039062 7.9589844 A 3.5 3.5 0 0 1 16.5 4.953125 A 3.5 3.5 0 0 1 19.960938 7.9472656 A 3.5 3.5 0 0 0 20 7.453125 A 3.5 3.5 0 0 0 16.5 3.953125 z"/>
</svg>
