<svg width="32" height="32" version="1" xmlns="http://www.w3.org/2000/svg">
 <rect transform="rotate(90)" x="2" y="-28" width="29" height="23" rx="2.073" ry="2.3" style="opacity:.2"/>
 <rect transform="rotate(90)" x="1" y="-28" width="29" height="23" rx="2.073" ry="2.3" style="fill:#505050"/>
 <rect x="8" y="5" width="17" height="23" rx=".75" ry=".75" style="opacity:.2"/>
 <rect x="8" y="4" width="17" height="23" rx=".75" style="fill:#58c5f8"/>
 <rect x="2" y="16" width="29" height="3" rx=".725" ry=".75" style="opacity:.2"/>
 <path d="M 7.3007812 1 C 6.0265809 1 5 1.9237794 5 3.0722656 L 5 4.0722656 C 5 2.9237794 6.0265809 2 7.3007812 2 L 25.699219 2 C 26.973419 2 28 2.9237794 28 4.0722656 L 28 3.0722656 C 28 1.9237794 26.973419 1 25.699219 1 L 7.3007812 1 z" style="fill:#ffffff;opacity:.1"/>
 <rect x="2" y="15" width="29" height="3" rx=".725" ry=".75" style="fill:#9bff7c"/>
 <path d="m8.75 4c-0.4155 0-0.75 0.3345-0.75 0.75v1c0-0.4155 0.3345-0.75 0.75-0.75h15.5c0.4155 0 0.75 0.3345 0.75 0.75v-1c0-0.4155-0.3345-0.75-0.75-0.75h-15.5z" style="fill:#ffffff;opacity:.2"/>
 <path d="m2.7246094 15c-0.40165 0-0.7246094 0.3345-0.7246094 0.75v1c0-0.4155 0.3229594-0.75 0.7246094-0.75h27.550782c0.40165 0 0.724609 0.3345 0.724609 0.75v-1c0-0.4155-0.322959-0.75-0.724609-0.75h-27.550782z" style="fill:#ffffff;opacity:.2"/>
</svg>
