<svg xmlns="http://www.w3.org/2000/svg" width="32" height="32" version="1">
 <path style="opacity:0.2" d="M 3.4,3 C 2.6244,3 2,3.6244 2,4.4 V 17 29.6 C 2,30.3756 2.6244,31 3.4,31 H 15.3 16 28.6 C 29.3756,31 30,30.3756 30,29.6 V 17 4.4 C 30,3.6244 29.3756,3 28.6,3 H 16.7 Z"/>
 <path style="fill:#3a97e7" d="M 28.6,30 C 29.3756,30 30,29.3756 30,28.6 V 16 H 15.3 v 14 z"/>
 <path style="fill:#8c8c8c" d="M 3.4,30 C 2.6244,30 2,29.3756 2,28.6 V 15.3 H 16 V 30 Z"/>
 <path style="fill:#a6a6a6" d="M 2,16 V 3.4 C 2,2.6244 2.6244,2 3.4,2 h 13.3 v 14 z"/>
 <path style="fill:#595959" d="M 16,2 V 16 H 30 V 3.4 C 30,2.6244 29.3756,2 28.6,2 Z"/>
 <path style="opacity:0.2" d="M 12,8 10.708984,8.0058594 9.0117188,11.400391 8.4277344,10 H 7 v 1 h 0.7832031 l 0.7910157,2 h 0.8378906 z m 8,2 v 1 h 5 V 10 Z M 8,21 v 2 H 6 v 1 h 2 v 2 h 1 v -2 h 2 V 23 H 9 v -2 z m 12,1 v 1 h 5 v -1 z m 0,3 v 1 h 5 v -1 z"/>
 <path style="fill:#ffffff" d="M 12 7 L 10.708984 7.0058594 L 9.0117188 10.400391 L 8.4277344 9 L 7 9 L 7 10 L 7.7832031 10 L 8.5742188 12 L 9.4121094 12 L 12 7 z M 20 9 L 20 10 L 25 10 L 25 9 L 20 9 z M 8 20 L 8 22 L 6 22 L 6 23 L 8 23 L 8 25 L 9 25 L 9 23 L 11 23 L 11 22 L 9 22 L 9 20 L 8 20 z M 20 21 L 20 22 L 25 22 L 25 21 L 20 21 z M 20 24 L 20 25 L 25 25 L 25 24 L 20 24 z"/>
 <path style="opacity:0.1;fill:#ffffff" d="M 3.4003906 2 C 2.6247906 2 2 2.6247906 2 3.4003906 L 2 4.4003906 C 2 3.6247906 2.6247906 3 3.4003906 3 L 16.699219 3 L 28.599609 3 C 29.375209 3 30 3.6247906 30 4.4003906 L 30 3.4003906 C 30 2.6247906 29.375209 2 28.599609 2 L 16.699219 2 L 3.4003906 2 z"/>
</svg>
