<svg xmlns="http://www.w3.org/2000/svg" width="32" height="32" version="1">
 <rect style="opacity:0.2" width="28" height="28" x="2" y="3" rx="1.4" ry="1.4"/>
 <rect style="fill:#783535" width="28" height="28" x="2" y="2" rx="1.4" ry="1.4"/>
 <path style="opacity:0.2" d="m 8.0127404,7.0000082 c -0.09747,1.1416345 0.3976289,3.9998458 0.3564368,4.3810018 0.029721,0.521557 0.5053794,0.660557 0.5053794,0.660557 l 0.5848194,0.01314 C 9.6309258,11.246297 9.8783179,10.278985 10.342613,10 h 2.657384 v 15.01732 l -1.92504,-0.03464 -0.04649,-1.971645 -0.98045,-0.02207 -0.404974,4.011026 9.481617,10e-6 1.003961,-0.971406 C 19.453484,25.803748 18.28596,25.60287 17.999992,24.277428 V 9 h 4.707189 C 22.859728,9.1596356 22.013488,9.9185081 22.163647,10.061301 22.835598,10.7003 23.42101,11.141506 24,11.126699 V 6.9999975 Z"/>
 <path style="fill:#f1e9de" d="m 8.0127404,6.0000082 c -0.09747,1.1416345 0.3976289,3.9998458 0.3564368,4.3810018 0.029721,0.521557 0.5053794,0.660557 0.5053794,0.660557 l 0.5848194,0.01314 C 9.6309258,10.246297 9.8783179,9.2789854 10.342613,9 h 2.657384 v 15.01732 l -1.92504,-0.03464 -0.04649,-1.971645 -0.98045,-0.02207 -0.404974,4.011026 9.481617,10e-6 1.003961,-0.971406 C 19.453484,24.803748 18.28596,24.60287 17.999992,23.277428 V 8 h 4.707189 C 22.859728,8.1596356 22.013488,8.9185081 22.163647,9.0613008 22.835598,9.7003 23.42101,10.141506 24,10.126699 V 5.9999975 Z"/>
 <path style="fill:#ffffff;opacity:0.1" d="M 3.4003906 2 C 2.6247906 2 2 2.6247906 2 3.4003906 L 2 4.4003906 C 2 3.6247906 2.6247906 3 3.4003906 3 L 28.599609 3 C 29.375209 3 30 3.6247906 30 4.4003906 L 30 3.4003906 C 30 2.6247906 29.375209 2 28.599609 2 L 3.4003906 2 z"/>
</svg>
