<svg xmlns="http://www.w3.org/2000/svg" width="32" height="32" version="1.1">
 <rect style="opacity:0.2" width="28" height="28" x="2" y="3" rx="5.6" ry="5.6"/>
 <rect style="fill:#80502e" width="28" height="28" x="2" y="2" rx="5.6" ry="5.6"/>
 <path style="opacity:0.2" d="m 11,12.882353 v 9.558825 C 13.971622,24.403699 17.739692,25.578766 21,27 V 23.428571 C 17.421435,22.651203 15.023465,20.995122 15.023528,20.651961 15.023661,19.745098 15.011768,19 15.011768,19 h 3.845379 v -3 h -3.857145 c 0,0 -0.02254,-1.402148 -0.02353,-1.867644 C 14.975941,13.856085 17.302384,11.607994 20,10.571429 V 7 c -3.026934,1.555915 -6.360729,3.63708 -9,5.882353 z"/>
 <path style="fill:#ffffff" d="m 11,11.882353 v 9.558825 C 13.971622,23.403699 17.739692,24.578766 21,26 V 22.428571 C 17.421435,21.651203 15.023465,19.995122 15.023528,19.651961 15.023661,18.745098 15.011768,18 15.011768,18 h 3.845379 v -3 h -3.857145 c 0,0 -0.02254,-1.402148 -0.02353,-1.867644 C 14.975941,12.856085 17.302384,10.607994 20,9.5714286 V 6 c -3.026934,1.555915 -6.360729,3.63708 -9,5.882353 z"/>
 <path style="fill:#ffffff;opacity:0.1" d="M 7.5996094 2 C 4.4972094 2 2 4.4972094 2 7.5996094 L 2 8.5996094 C 2 5.4972094 4.4972094 3 7.5996094 3 L 24.400391 3 C 27.502791 3 30 5.4972094 30 8.5996094 L 30 7.5996094 C 30 4.4972094 27.502791 2 24.400391 2 L 7.5996094 2 z"/>
</svg>
