<svg xmlns="http://www.w3.org/2000/svg" width="32" height="32" version="1.1" viewBox="0 0 8.47 8.47">
 <g transform="translate(0,-288.53332)">
  <circle style="opacity:0.2" cx="4.233" cy="293.031" r="3.704"/>
  <circle style="fill:#fb6651" cx="4.233" cy="292.767" r="3.704"/>
  <path style="opacity:0.2;fill-rule:evenodd" d="m 3.3961752,291.17966 c 0,0 -0.073518,-3.8e-4 -0.10542,0.004 -0.7241937,-0.004 -1.1295198,0.78768 -1.4862142,1.23042 -0.1574732,0.1962 -0.2837036,0.35243 -0.2837036,0.35243 -0.2728275,0.28223 -0.64726254,0.57516 -0.95498047,0.75138 a 3.7041666,3.7041666 0 0 0 0.0537435,0.30747 c 0.11520816,-0.0516 0.25149852,-0.10176 0.30695799,-0.14624 0.30390478,-0.24376 0.83569648,-0.64079 0.88986818,-0.64079 0.054172,0 0.1471452,-0.0225 0.1860351,0.11214 0.03889,0.13468 -0.050643,0.29507 -0.050643,0.29507 0,0 -0.1177795,0.20114 -0.1136881,0.31161 0.055662,0.3982 0.3763444,0.79699 0.7022827,0.85163 0.2347874,0.0321 0.5818765,0.0109 0.5818765,0.0109 l 0.00723,-0.0589 c -0.0076,-0.0894 -0.1912027,-0.12764 -0.1912027,-0.12764 -0.00143,0.001 -0.2333422,0.0446 -0.3348634,-0.002 -0.1712535,-0.0784 -0.3715535,-0.38669 -0.3715535,-0.42581 0,-0.0391 0.057361,-0.21498 0.057361,-0.21498 0,0 0.1890111,0.0258 0.2516642,0.0258 0.062653,0 0.2242758,0.008 0.2242758,0.008 l 0.1214395,0.18759 c 0.038136,0.0736 0.085566,0.0366 0.1488281,0.0537 l 0.2702679,0.003 0.1865519,-0.004 v -0.0951 c 0,0.0951 1.339e-4,-0.0903 -0.1209228,-0.093 -0.1048964,-0.005 -0.2415566,-0.0184 -0.2532147,-0.0563 -0.019108,-0.0621 0.00775,-0.22376 0.00775,-0.22376 0,0 0.1349716,-0.0652 0.4196128,-0.009 0.2846411,0.0563 0.6087483,0.29198 0.6087483,0.29198 -0.081383,0.15028 -0.1559394,0.18244 -0.1705322,0.33641 -0.014764,0.1395 -0.014685,0.13953 0.076998,0.13953 h 0.4371827 c 0,0 1.61e-5,-0.18501 -0.1255736,-0.1757 -0.088076,-0.003 -0.1369425,-0.008 -0.1369428,-0.0155 0,-0.0352 0.1679485,-0.18241 0.1679485,-0.18241 l 0.1188559,-0.0858 c 0,0 0.1661858,0.11165 0.3798218,0.16588 0.2136359,0.0542 0.480074,0.0279 0.480074,0.0279 0.083377,0.0502 0.099703,0.0921 0.1410766,0.1633 0.032875,0.12912 0.032961,0.10271 0.1049031,0.10542 0.1576382,0.004 0.2908435,-0.003 0.4449341,-0.014 0,0 0.012557,-0.17415 -0.2439127,-0.17415 0,0 -0.093703,-0.0591 -0.1105876,-0.14727 -0.016886,-0.0881 -0.00672,-0.31885 -0.00672,-0.31885 l 0.1266071,-0.0109 0.166915,0.14263 0.1038696,0.01 0.1441773,0.23202 c 0,0 0.2871454,0.0211 0.3834389,-0.0155 0.096293,-0.0365 0.2707579,-0.13381 0.3715536,-0.24288 0.1007957,-0.10908 0.1679427,-0.36723 0.1338421,-0.51263 -0.034101,-0.1454 -0.2222087,-0.31936 -0.2222087,-0.31936 -0.3984464,-0.37791 -1.019833,-1.00988 -1.4050822,-1.01337 -0.061438,0 -0.2143649,0.14434 -0.3028238,0.0806 -0.551293,-0.3801 -1.1548713,-0.84689 -1.8159098,-0.87385 z m 2.6892414,1.58698 c 0.1461254,0 0.2645833,0.11843 0.2645833,0.26458 0,0.14613 -0.1184584,0.26459 -0.2645833,0.26459 -0.1461254,0 -0.2645833,-0.11843 -0.2645833,-0.26459 0,-0.14612 0.1184587,-0.26458 0.2645833,-0.26458 z"/>
  <path style="fill:#ffffff;fill-rule:evenodd" d="M 12.835938 9.0019531 C 12.835938 9.0019531 12.558073 9.000543 12.4375 9.015625 C 9.70039 9.000507 8.1684488 11.992668 6.8203125 13.666016 C 6.2251382 14.407559 5.7480469 14.998047 5.7480469 14.998047 C 4.716888 16.064728 3.3017003 17.171861 2.1386719 17.837891 A 14 14 0 0 0 2.3417969 19 C 2.7772293 18.80493 3.2923425 18.615386 3.5019531 18.447266 C 4.6505696 17.525968 6.6604909 16.025391 6.8652344 16.025391 C 7.0699789 16.025391 7.4213739 15.94019 7.5683594 16.449219 C 7.7153452 16.958245 7.3769531 17.564453 7.3769531 17.564453 C 7.3769531 17.564453 6.9318021 18.324663 6.9472656 18.742188 C 7.1576417 20.247194 8.3696697 21.754424 9.6015625 21.960938 C 10.488948 22.082259 11.800781 22.001953 11.800781 22.001953 L 11.828125 21.779297 C 11.799405 21.441407 11.105469 21.296875 11.105469 21.296875 C 11.100069 21.300675 10.223546 21.465553 9.8398438 21.289062 C 9.1925864 20.992749 8.4355469 19.827542 8.4355469 19.679688 C 8.4355469 19.531908 8.6523438 18.867188 8.6523438 18.867188 C 8.6523438 18.867188 9.3667165 18.964844 9.6035156 18.964844 C 9.8403144 18.964844 10.451172 18.994141 10.451172 18.994141 L 10.910156 19.703125 C 11.054292 19.981298 11.233554 19.84162 11.472656 19.90625 L 12.494141 19.917969 L 13.199219 19.902344 L 13.199219 19.542969 C 13.199219 19.902402 13.199725 19.201611 12.742188 19.191406 C 12.345729 19.172506 11.829218 19.121756 11.785156 18.978516 C 11.712936 18.743807 11.814453 18.132812 11.814453 18.132812 C 11.814453 18.132812 12.324582 17.886441 13.400391 18.099609 C 14.4762 18.312397 15.701172 19.203125 15.701172 19.203125 C 15.393583 19.771112 15.111795 19.892676 15.056641 20.474609 C 15.000841 21.001853 15.00114 21.001953 15.347656 21.001953 L 17 21.001953 C 17 21.001953 17.000061 20.302703 16.525391 20.337891 C 16.192506 20.326551 16.007813 20.307637 16.007812 20.279297 C 16.007812 20.146258 16.642578 19.589844 16.642578 19.589844 L 17.091797 19.265625 C 17.091797 19.265625 17.719901 19.687614 18.527344 19.892578 C 19.334787 20.097428 20.341797 19.998047 20.341797 19.998047 C 20.656922 20.187779 20.718626 20.346094 20.875 20.615234 C 20.999252 21.103247 20.999576 21.003429 21.271484 21.013672 C 21.867282 21.028792 22.370735 21.002127 22.953125 20.960938 C 22.953125 20.960938 23.000585 20.302734 22.03125 20.302734 C 22.03125 20.302734 21.677099 20.079184 21.613281 19.746094 C 21.549461 19.413117 21.587891 18.541016 21.587891 18.541016 L 22.066406 18.5 L 22.697266 19.039062 L 23.089844 19.076172 L 23.634766 19.953125 C 23.634766 19.953125 24.72004 20.032861 25.083984 19.894531 C 25.447926 19.756578 26.107321 19.388796 26.488281 18.976562 C 26.869241 18.564293 27.123025 17.588606 26.994141 17.039062 C 26.865255 16.48952 26.154297 15.832031 26.154297 15.832031 C 24.648358 14.40371 22.29981 12.015144 20.84375 12.001953 C 20.611543 12.001953 20.033552 12.54751 19.699219 12.306641 C 17.615592 10.870037 15.334351 9.1058023 12.835938 9.0039062 L 12.835938 9.0019531 z M 23 15 C 23.552285 15 24 15.447622 24 16 C 24 16.552302 23.552283 17 23 17 C 22.447715 17 22 16.552416 22 16 C 22 15.447735 22.447718 15 23 15 z" transform="matrix(0.26458333,0,0,0.26458333,0,288.53332)"/>
  <path style="opacity:0.2;fill:#ffffff" d="M 16 2 A 14 14 0 0 0 2 16 A 14 14 0 0 0 2.0214844 16.585938 A 14 14 0 0 1 16 3 A 14 14 0 0 1 29.978516 16.414062 A 14 14 0 0 0 30 16 A 14 14 0 0 0 16 2 z" transform="matrix(0.26458333,0,0,0.26458333,0,288.53332)"/>
 </g>
</svg>
