<svg xmlns="http://www.w3.org/2000/svg" width="32" height="32" version="1.1">
 <path fill="#4ab3e4" d="m2 6.7781v20.833c0 0.77 0.6244 1.389 1.4 1.389h25.2c0.7756 0 1.4-0.6194 1.4-1.3889v-20.833z"/>
 <path fill="#253951" d="m3.4 4c-0.7756 0-1.4 0.6194-1.4 1.3889v1.6111h28v-1.6111c0-0.7695-0.624-1.3889-1.4-1.3889z"/>
 <path fill="#fff" opacity=".1" d="m3.4004 4c-0.7756 0-1.4004 0.6192-1.4004 1.3887v1c0-0.7695 0.6248-1.3887 1.4004-1.3887h25.2c0.775 0 1.4 0.6192 1.4 1.3887v-1c0-0.7695-0.625-1.3887-1.4-1.3887h-25.2z"/>
 <path fill="#253951" d="m9.6 26c-0.8864 0-1.6 0.669-1.6 1.5v1.5h16v-1.5c0-0.831-0.714-1.5-1.6-1.5h-12.8z"/>
 <path opacity=".2" d="m2 27.611v1c0 0.77 0.6248 1.389 1.4004 1.389h25.2c0.775 0 1.4-0.619 1.4-1.389v-1c0 0.77-0.625 1.389-1.4 1.389h-25.2c-0.7752 0-1.4-0.619-1.4-1.389z"/>
</svg>
