<svg xmlns="http://www.w3.org/2000/svg" width="32" height="32" version="1">
 <rect style="opacity:0.2" width="28" height="28" x="2" y="3" rx="8.4" ry="8.4"/>
 <rect style="fill:#2152a1" width="28" height="28" x="2" y="2" rx="8.4" ry="8.4"/>
 <circle style="opacity:0.2" cx="-16" cy="20" r="7" transform="scale(-1,1)"/>
 <circle style="fill:#fae8a2" cx="-16" cy="19" r="7" transform="scale(-1,1)"/>
 <path style="opacity:0.2" d="m 16.66115,12.037591 a 6.9999999,6.9999999 0 0 1 2.5333,0.73486 c -0.03535,0.112035 0.0059,0.23842 0.13475,0.35 0.08715,0.07553 0.15855,0.193165 0.15855,0.261835 0,0.209895 -0.1897,0.532175 -0.34125,0.579005 -0.20125,0.0623 -0.1337,0.27706 0.1253,0.39571 0.1197,0.05495 0.26705,0.21315 0.32725,0.3514 0.06055,0.1386 0.14945,0.2751 0.19775,0.30345 0.04795,0.0287 0.0875,0.13685 0.0875,0.2408 0,0.14525 -0.0665,0.2156 -0.28455,0.30275 -0.1561,0.06265 -0.343,0.10815 -0.41545,0.10115 -0.41685,-0.0392 -0.4459,0.2037 -0.08155,0.6783 0.19355,0.252 0.28665,0.31535 0.4186,0.2835 0.12285,-0.0294 0.19005,0.0053 0.24605,0.12705 0.0588,0.12915 0.1554,0.1729 0.41475,0.19075 0.25515,0.01785 0.36925,0.06965 0.4648,0.2093 0.07,0.10185 0.1708,0.18445 0.22435,0.18445 0.05369,0 0.17976,0.0686 0.28028,0.1519 0.20454,0.16975 0.28441,0.1869 0.356125,0.07595 0.09478,-0.147 0.299285,-0.0728 0.60361,0.21875 0.26915,0.2576 0.301735,0.32655 0.261135,0.5502 -0.07224,0.39795 -0.288085,0.7511 -0.534555,0.8743 -0.215075,0.10745 -0.219275,0.119 -0.08886,0.2569 0.075,0.07945 0.2037,0.1645 0.28574,0.18935 0.23695,0.0721 0.103565,0.1624 -0.319235,0.2163 -0.43274,0.05495 -0.56721,0.21175 -0.36505,0.4256 0.112735,0.11935 0.1064,0.14175 -0.07451,0.25515 -0.3535,0.2219 -0.63462,0.0861 -0.30282,-0.1463 0.213255,-0.14945 0.06412,-0.21035 -0.24885,-0.10185 -0.24955,0.08645 -0.2989,0.08155 -0.44625,-0.04655 -0.30275,-0.26215 -0.63175,0.12565 -0.3549,0.41825 0.17605,0.18655 0.12285,0.41125 -0.10535,0.4424 -0.1008,0.01365 -0.3101,0.10745 -0.4655,0.2086 -0.1554,0.1008 -0.3248,0.18375 -0.3759,0.18375 -0.0511,0 -0.1953,0.10255 -0.3206,0.22785 -0.2541,0.25375 -0.39515,0.28595 -0.4669,0.1071 -0.0861,-0.2149 -0.05145,-0.32585 0.1806,-0.5789 0.18445,-0.2016 0.4844,-0.7371 0.4844,-0.86555 0,-0.0791 -0.30485,-0.0119 -0.47565,0.10465 -0.10675,0.07315 -0.27965,0.1673 -0.3843,0.21 -0.1113,0.0455 -0.2268,0.1869 -0.27965,0.3416 -0.08225,0.2429 -0.1148,0.2639 -0.406,0.2639 H 16.9919 l -0.04795,0.56875 c -0.0574,0.68425 -0.11235,0.82285 -0.3472,0.8792 -0.1729,0.04165 -0.35735,0.3094 -0.35735,0.5187 0,0.05565 0.12425,0.19215 0.27615,0.3031 0.1883,0.13755 0.2695,0.25445 0.2569,0.3689 -0.01575,0.14315 0.0168,0.16555 0.21945,0.1505 0.13055,-0.0098 0.35735,0.03605 0.50295,0.10185 0.17255,0.0777 0.35945,0.10255 0.5348,0.07105 0.2016,-0.03605 0.26985,-0.02205 0.26985,0.0567 0,0.0581 0.0707,0.1666 0.1568,0.2415 0.2128,0.18445 0.12495,0.2821 -0.20195,0.2233 -0.203,-0.0364 -0.2821,-0.0203 -0.3171,0.0672 -0.07455,0.18585 0.11445,0.45185 0.2898,0.4081 0.1113,-0.028 0.1645,0.01015 0.19915,0.1414 0.0119,0.04655 0.03395,0.0861 0.0602,0.1197 a 6.9999999,6.9999999 0 0 1 -1.10775,0.32725 c 0.035,-0.06685 0.0749,-0.12775 0.11375,-0.15505 0.18025,-0.1274 0.0595,-0.4585 -0.18865,-0.518 -0.25305,-0.0609 -0.21315,-0.22505 0.06195,-0.25655 0.24115,-0.0273 0.4977,-0.2716 0.4172,-0.39655 -0.05425,-0.08365 -0.2849,-0.0714 -0.75145,0.0392 -0.2107,0.0497 -0.35455,-0.0504 -0.8428,-0.5845 -0.28245,-0.3094 -0.4998,-0.4382 -0.73815,-0.4382 -0.091,0 -0.41545,-0.08365 -0.72135,-0.18585 -0.5775,-0.19355 -0.80325,-0.18655 -0.7819,0.0245 0.0441,0.4389 -0.23835,0.4242 -0.6986,-0.0357 -0.1918,-0.19145 -0.36715,-0.33005 -0.3899,-0.30835 -0.08785,0.08435 0.07035,0.4949 0.25515,0.66115 0.23415,0.2107 0.2457,0.3437 0.03955,0.44905 -0.1127,0.0581 -0.16065,0.17535 -0.1785,0.4389 l -0.0238,0.3598 h -0.2926 c -0.10255,0 -0.1876,0.014 -0.2562,0.04025 a 6.9999999,6.9999999 0 0 1 -3.3915,-5.7771 c 0.1071,-0.2289 0.0994,-0.36715 0,-0.5229 a 6.9999999,6.9999999 0 0 1 0.0315,-0.39235 c 0.0637,-0.0031 0.1288,-0.0059 0.2037,-0.0028 0.3528,0.0147 0.65485,-0.12425 0.65485,-0.30135 0,-0.03745 0.1253,-0.1918 0.27825,-0.34265 0.1736,-0.1708 0.2625,-0.322 0.2366,-0.4004 -0.0238,-0.0714 0.0273,-0.18655 0.1176,-0.2646 0.08785,-0.0763 0.15995,-0.1988 0.15995,-0.2723 0,-0.11725 0.07455,-0.13195 0.6139,-0.119 l 0.6139,0.01505 -0.0105,0.60515 c -0.0182,1.0598 -0.17605,1.3349 -0.6629,1.15745 -0.22295,-0.08155 -0.7707,-0.01995 -0.92645,0.1036 -0.05635,0.0448 -0.1379,0.2072 -0.18095,0.3612 -0.0434,0.15365 -0.2037,0.42 -0.357,0.59115 -0.3101,0.3472 -0.33425,0.48265 -0.15645,0.89005 0.15505,0.3556 0.32235,0.31465 0.2891,-0.07105 l -0.0245,-0.287 0.2625,0.049 c 0.14525,0.02765 0.32725,0.13475 0.4088,0.2408 0.1162,0.15085 0.17045,0.1729 0.2576,0.10395 0.0609,-0.0483 0.11025,-0.15015 0.11025,-0.22575 0,-0.0756 0.0749,-0.1596 0.1659,-0.18725 0.09135,-0.02765 0.2163,-0.1652 0.27755,-0.30625 0.09835,-0.2254 0.0959,-0.29435 -0.01855,-0.56805 -0.11585,-0.27755 -0.1169,-0.3234 -0.01015,-0.42595 0.098,-0.0938 0.14875,-0.09695 0.27755,-0.0196 0.1295,0.07735 0.19075,0.07175 0.34475,-0.0315 0.10255,-0.06895 0.2821,-0.126 0.3983,-0.126 0.23625,0 0.30765,-0.1148 0.30765,-0.4949 0,-0.35105 0.2093,-0.47845 0.7077,-0.4326 0.3458,0.03185 0.4221,0.0091 0.70105,-0.2058 0.17255,-0.13265 0.44485,-0.45185 0.60585,-0.71015 0.161,-0.2583 0.33425,-0.52815 0.385,-0.59955 0.0728,-0.10325 0.05495,-0.2023 -0.0875,-0.48335 l -0.1799,-0.3535 0.3801,0.05145 c 0.6762,0.09135 0.81305,0.17885 0.5222,0.33495 -0.1134,0.06055 -0.1183,0.0917 -0.0308,0.19285 0.0574,0.0658 0.08435,0.17045 0.0595,0.2324 -0.02485,0.0616 0.0066,0.2072 0.06965,0.32305 0.06335,0.1162 0.1162,0.27895 0.1183,0.3626 0.0067,0.26075 0.45325,0.4683 0.95095,0.44065 0.7539,-0.04165 0.81515,-0.02975 1.0829,0.21875 0.3346,0.3108 0.37765,0.45535 0.2219,0.74375 -0.15085,0.28 -0.41895,0.39165 -0.88305,0.36855 -0.4151,-0.02065 -0.462,0.0161 -0.36715,0.2905 0.08085,0.2331 0.35175,0.3227 0.5355,0.1771 0.1414,-0.11235 0.62895,-0.02555 0.7784,0.13895 0.06265,0.0686 0.15575,0.2492 0.2065,0.4004 0.0875,0.2611 0.11305,0.2772 0.50505,0.315 0.3913,0.03815 0.4291,0.02555 0.7105,-0.2338 0.31395,-0.2891 0.36715,-0.5103 0.21595,-0.8911 -0.0672,-0.1687 -0.1169,-0.19635 -0.2961,-0.16345 -0.3549,0.06475 -0.4949,-0.05845 -0.4949,-0.4375 0,-0.18375 0.0357,-0.3556 0.07945,-0.3815 0.0434,-0.0259 0.0791,-0.1232 0.0791,-0.21665 0,-0.09345 0.0448,-0.21385 0.09905,-0.2667 0.07945,-0.077 0.0679,-0.1183 -0.0588,-0.2079 -0.0868,-0.06125 -0.2296,-0.10255 -0.3171,-0.09205 -0.08715,0.0105 -0.3283,-0.0273 -0.53585,-0.08365 -0.29995,-0.08085 -0.38815,-0.1421 -0.42875,-0.29995 -0.077,-0.2996 -0.26495,-0.54005 -0.42245,-0.54005 -0.24885,0 -0.2541,-0.5852 -0.01225,-1.4364 0.0357,-0.12565 0.13405,-0.20545 0.30765,-0.2485 0.1407,-0.035 0.29365,-0.1309 0.33985,-0.21343 0.04585,-0.08253 0.1302,-0.14973 0.18725,-0.14973 0.05705,0 0.1687,-0.06832 0.24745,-0.15176 0.07945,-0.084 0.2436,-0.15176 0.36855,-0.15176 0.29575,0 0.30065,-0.20363 0.0074,-0.31101 -0.30975,-0.11354 -0.79205,0.03528 -0.9086,0.280245 -0.15785,0.332185 -0.3332,0.193585 -0.38955,-0.30828 -0.06965,-0.620725 -0.28385,-0.79912 -0.959,-0.79912 h -0.4855 l 0.2128,-0.21259 c 0.06615,-0.06636 0.1211,-0.147455 0.15925,-0.226975 z m -2.5165,0.220115 c 0.01365,0.01232 0.02695,0.0224 0.04025,0.03622 0.1624,0.16576 0.2387,0.189385 0.48965,0.151095 0.4382,-0.06682 0.38185,0.10962 -0.10325,0.322665 -0.26215,0.115185 -0.43085,0.246505 -0.48825,0.379365 -0.2765,0.64106 -0.4669,0.986195 -0.56245,1.021195 -0.1932,0.07105 -0.30835,-0.07154 -0.3514,-0.43603 -0.04935,-0.41818 -0.19075,-0.506835 -0.44485,-0.278215 -0.0987,0.08873 -0.2366,0.161315 -0.30625,0.161315 -0.21735,0 -0.378,0.08726 -0.378,0.2051 0,0.06209 -0.0735,0.211715 -0.16345,0.33278 -0.13265,0.17815 -0.2226,0.22085 -0.4704,0.22085 -0.30415,0 -0.4907,0.05705 -0.8715,0.2674 -0.006,0.0031 -0.0119,0.0042 -0.01785,0.0074 a 6.9999999,6.9999999 0 0 1 3.62775,-2.391095 z m 8.85395,6.7123 a 6.9999999,6.9999999 0 0 1 0.0013,0.0301 6.9999999,6.9999999 0 0 1 -0.13671,1.3447 c -0.25361,0.10325 -0.32368,0.0623 -0.35,-0.1736 -0.01362,-0.12215 -0.07738,-0.2604 -0.142205,-0.30835 -0.100135,-0.07385 -0.08207,-0.11165 0.12306,-0.25165 0.13279,-0.09065 0.263655,-0.24885 0.290535,-0.3514 0.02604,-0.0994 0.1141,-0.2079 0.213955,-0.2898 z m -2.203285,2.31385 c 0.06545,-0.0067 0.144305,0.02835 0.231805,0.11235 0.185115,0.1771 0.15715,0.53305 -0.05264,0.67375 -0.240415,0.16135 -0.333165,0.11445 -0.363615,-0.18305 -0.03745,-0.3668 0.04095,-0.588 0.18445,-0.60305 z m -1.1879,1.0584 c 0.0714,0.0024 0.15015,0.05355 0.2289,0.16135 0.08365,0.1141 0.1064,0.26145 0.07455,0.4851 -0.03955,0.2751 -0.0224,0.3339 0.12145,0.40775 0.18515,0.0945 0.2247,0.3759 0.07315,0.5208 -0.1505,0.1442 -0.294,0.1064 -0.3458,-0.091 -0.0735,-0.2814 -0.48545,-0.3143 -0.76685,-0.0616 -0.12005,0.1078 -0.21805,0.1624 -0.21805,0.1211 0,-0.0413 0.12495,-0.19145 0.27755,-0.33285 0.23345,-0.217 0.27685,-0.3094 0.27685,-0.5887 0,-0.3941 0.12075,-0.62685 0.27825,-0.62195 z m 1.950865,0.9037 a 6.9999999,6.9999999 0 0 1 -0.162015,0.2044 c 0.04771,-0.07385 0.102165,-0.14455 0.162015,-0.2044 z m -2.358965,1.0745 c 0.03535,0.01225 0.0504,0.0567 0.0504,0.13475 0,0.0791 0.0504,0.16205 0.112,0.18445 0.0819,0.0301 0.1008,0.12495 0.0693,0.3514 -0.0059,0.04235 -0.0077,0.0763 -0.0098,0.11165 a 6.9999999,6.9999999 0 0 1 -0.2912,0.14945 c 0.0049,-0.1211 -0.01715,-0.26355 -0.0805,-0.44205 -0.10745,-0.3031 -0.1113,-0.37905 -0.0238,-0.43225 0.0819,-0.0497 0.1379,-0.06965 0.1736,-0.0574 z"/>
 <path style="fill:#ffffff" d="M 21.539398,10.184 C 21.60748,9.6598974 21.662689,9.6046821 22.186796,9.5366015 21.662694,9.4684705 21.607478,9.4133112 21.539398,8.8892037 21.471267,9.4133056 21.416107,9.468467 20.892,9.5366015 c 0.524103,0.068082 0.579262,0.123291 0.647398,0.6473985"/>
 <path style="fill:#ffffff" d="M 8.5637978,13.195 C 8.6318798,12.670897 8.6870881,12.615682 9.2111956,12.547601 8.6870937,12.47947 8.6318784,12.424311 8.5637978,11.900204 8.4956668,12.424306 8.4405075,12.479467 7.9164,12.547601 8.4405033,12.615681 8.4956633,12.670892 8.5637978,13.195"/>
 <path style="fill:#ffffff" d="M 5.4697962,10.849 C 5.6059574,9.8007948 5.7163775,9.6903642 6.7645926,9.554203 5.7163878,9.4179389 5.6059574,9.307621 5.4697962,8.2594053 5.3335317,9.3076105 5.2232153,9.417934 4.175,9.554203 5.2232074,9.6903642 5.3335265,9.8007843 5.4697962,10.849"/>
 <path style="fill:#ffffff" d="M 4.4673979,18.116 C 4.5354785,17.591898 4.5906886,17.536682 5.1147959,17.468602 4.5906937,17.40047 4.5354785,17.345311 4.4673979,16.821204 4.3992657,17.345306 4.3441073,17.400468 3.82,17.468602 c 0.5241021,0.06808 0.5792619,0.12329 0.6473979,0.647398"/>
 <path style="fill:#ffffff" d="M 25.559796,7.746 C 25.695955,6.6977934 25.806386,6.5873628 26.854593,6.4512009 25.806386,6.3149312 25.695955,6.2046112 25.559796,5.1564045 25.423524,6.2046112 25.313204,6.3149312 24.265,6.4512009 25.313204,6.5873628 25.423524,6.6977934 25.559796,7.746"/>
 <path style="fill:#ffffff" d="m 26.522398,25.101 c 0.06808,-0.524103 0.123291,-0.579318 0.647398,-0.647399 -0.524102,-0.06813 -0.579317,-0.12329 -0.647398,-0.647397 -0.06813,0.524102 -0.12329,0.579263 -0.647398,0.647397 0.524103,0.06808 0.579263,0.123291 0.647398,0.647399"/>
 <path style="fill:#ffffff" d="M 5.5377955,24.78 C 5.6739562,23.731795 5.7843871,23.621364 6.8325912,23.485204 5.7843871,23.348933 5.6739562,23.238612 5.5377955,22.190407 5.4015248,23.238612 5.2912046,23.348933 4.243,23.485204 5.2912046,23.621364 5.4015248,23.731795 5.5377955,24.78"/>
 <path style="fill:#ffffff" d="m 27.485794,15.793 c 0.136161,-1.048205 0.246591,-1.158636 1.294794,-1.294797 -1.048203,-0.13627 -1.158633,-0.246591 -1.294794,-1.294796 -0.136271,1.048205 -0.246592,1.158526 -1.294794,1.294796 1.048202,0.136161 1.158523,0.246592 1.294794,1.294797"/>
 <path style="fill:#ffffff" d="M 14.449194,7.478 C 14.653436,5.905688 14.819082,5.740041 16.391388,5.5357998 14.819082,5.331393 14.653436,5.1659114 14.449194,3.5936 14.244787,5.1659114 14.079306,5.331393 12.507,5.5357998 14.079306,5.740041 14.244787,5.905688 14.449194,7.478"/>
 <path style="fill:#ffffff;opacity:0.1" d="M 10.400391 2 C 5.7467908 2 2 5.7467908 2 10.400391 L 2 11.400391 C 2 6.7467908 5.7467908 3 10.400391 3 L 21.599609 3 C 26.253209 3 30 6.7467908 30 11.400391 L 30 10.400391 C 30 5.7467908 26.253209 2 21.599609 2 L 10.400391 2 z"/>
 <path style="fill:#ffffff;opacity:0.2" transform="scale(-1,1)" d="M -16 12 A 7 7 0 0 1 -9 19 A 7 7 0 0 1 -9.0351562 19.5 A 7 7 0 0 0 -16 13 A 7 7 0 0 0 -22.972656 19.390625 A 7 7 0 0 1 -23 19 A 7 7 0 0 1 -16 12 z"/>
</svg>
