<?xml version="1.0" encoding="UTF-8" standalone="no"?>
<svg xmlns="http://www.w3.org/2000/svg" height="32" width="32" version="1">
 <path d="m28 28.6v-25.2c0-0.7756-0.669-1.4-1.5-1.4h-21c-0.831 0-1.5 0.6244-1.5 1.4v25.2c0 0.776 0.669 1.4 1.5 1.4h21c0.831 0 1.5-0.6244 1.5-1.4z" fill="#ccc"/>
 <path stroke="#696969" stroke-width="2" fill="none" d="m7 8h9.9s7.1015 0.34979 7.1 8-7.1 8-7.1 8h-9.9"/>
 <path fill-rule="evenodd" fill="#696969" d="m9 7.6v19.4h-2l3 2 3-2h-2v-19.4z"/>
 <path opacity=".2" fill="#fff" d="m5.5 2c-0.831 0-1.5 0.6248-1.5 1.4004v1c0-0.7756 0.669-1.4004 1.5-1.4004h21c0.831 0 1.5 0.6248 1.5 1.4004v-1c0-0.7756-0.669-1.4004-1.5-1.4004h-21z"/>
 <path opacity=".2" d="m4 28.6v1c0 0.775 0.669 1.4 1.5 1.4h21c0.831 0 1.5-0.62479 1.5-1.4004v-1c0 0.775-0.669 1.4-1.5 1.4h-21c-0.831 0-1.5-0.625-1.5-1.4z"/>
</svg>
