<svg width="32" height="32" version="1" xmlns="http://www.w3.org/2000/svg">
 <rect x="2" y="3" width="28" height="28" rx="1.4" ry="1.4" style="opacity:.2"/>
 <rect x="2" y="2" width="28" height="28" rx="1.4" ry="1.4" style="fill:#4f4f4f"/>
 <path d="m18.440292 4.9999997c-1.738253 1.0509085-3.523788 2.0288941-5.223589 3.1401556-0.623637 2.9797267-1.2279 5.9638237-1.811972 8.9515467 0.655495 0.832197 1.374437 1.612322 2.05334 2.425351-0.663155-0.211596-1.496213-0.688701-2.228071-0.984029 0.576127 2.127861 1.178763 4.249426 1.807191 6.362434 0.840253-0.07227 1.674116-0.206571 2.514098-0.281596-0.602993 0.621219-1.254051 1.194098-1.860623 1.811796 1.060396-0.441234 2.103334-0.923339 3.160159-1.373061 0.203045 0.332637-0.399029 1.523779-0.480148 2.169988 0.463261-0.750255 0.904533-1.514316 1.344766-2.278345l0.405658-0.190787s-0.118792-0.119037 0 0c0.921319 0.145327 1.840601 0.32076 2.761169 0.459574-0.828434-0.406669-1.670649-0.78471-2.499095-1.191355 0.828464-0.34344 1.711184-0.604056 2.557441-0.924148-0.832278-0.0078-1.664603 0.01499-2.496901 0.0055 0.134455-0.296898 1.139192-0.820669 1.57442-1.226363-0.607911-0.706101-1.292869-1.342338-1.905194-2.044609 1.059028-3.468079 2.170332-6.920092 3.257899-10.379359-0.975322-1.4851688-1.928133-2.9857879-2.930548-4.452734z" style="opacity:.2"/>
 <path d="m18.440292 3.9999997c-1.738253 1.0509085-3.523788 2.0288941-5.223589 3.1401556-0.623637 2.9797267-1.2279 5.9638237-1.811972 8.9515467 0.655495 0.832197 1.374437 1.612322 2.05334 2.425351-0.663155-0.211596-1.496213-0.688701-2.228071-0.984029 0.576127 2.127861 1.178763 4.249426 1.807191 6.362434 0.840253-0.07227 1.674116-0.206571 2.514098-0.281596-0.602993 0.621219-1.254051 1.194098-1.860623 1.811796 1.060396-0.441234 2.103334-0.923339 3.160159-1.373061 0.203045 0.332637-0.399029 1.523779-0.480148 2.169988 0.463261-0.750255 0.904533-1.514316 1.344766-2.278345l0.405658-0.190787s-0.118792-0.119037 0 0c0.921319 0.145327 1.840601 0.32076 2.761169 0.459574-0.828434-0.406669-1.670649-0.78471-2.499095-1.191355 0.828464-0.34344 1.711184-0.604056 2.557441-0.924148-0.832278-0.0078-1.664603 0.01499-2.496901 0.0055 0.134455-0.296898 1.139192-0.820669 1.57442-1.226363-0.607911-0.706101-1.292869-1.342338-1.905194-2.044609 1.059028-3.468079 2.170332-6.920092 3.257899-10.379359-0.975322-1.4851688-1.928133-2.9857879-2.930548-4.452734z" style="fill:#ffc107"/>
 <path d="m17.596139 7.9923506c-1.464537 3.9371024-2.38957 8.6952714-2.614382 13.093761-0.05297 0.612886-0.03803 0.488701 0.361815 0.969925 1.984534 2.388814 3.96485 4.91619 5.96037 6.943963l-6.52e-4 -0.140056c-1.907594-2.615599-3.815188-4.820783-5.722782-7.146586-0.166883-0.200328-0.212369-0.203159-0.198451-0.44588 0.253204-4.408722 1.244972-9.290226 2.214082-13.275127z" style="opacity:.2"/>
 <path d="m17.596139 6.9923506c-1.464537 3.9371024-2.38957 8.6952714-2.614382 13.093761-0.05297 0.612886-0.03803 0.488701 0.361815 0.969925 1.984534 2.388814 3.96485 4.91619 5.96037 6.943963l-6.52e-4 -0.140056c-1.907594-2.615599-3.815188-4.820783-5.722782-7.146586-0.166883-0.200328-0.212369-0.203159-0.198451-0.44588 0.253204-4.408722 1.244972-9.290226 2.214082-13.275127z" style="fill:#ffffff"/>
 <path d="M 3.4003906 2 C 2.6247906 2 2 2.6247906 2 3.4003906 L 2 4.4003906 C 2 3.6247906 2.6247906 3 3.4003906 3 L 28.599609 3 C 29.375209 3 30 3.6247906 30 4.4003906 L 30 3.4003906 C 30 2.6247906 29.375209 2 28.599609 2 L 3.4003906 2 z" style="fill:#ffffff;opacity:.1"/>
 <path d="m18.439453 4c-1.738253 1.0509085-3.522855 2.0293635-5.222656 3.140625-0.623637 2.979727-1.228428 5.963449-1.8125 8.951172 0.052347 0.066458 0.109006 0.129475 0.162109 0.195312 0.534873-2.718589 1.082806-5.434573 1.650391-8.146484 1.699801-1.1112615 3.484403-2.0897165 5.222656-3.140625 0.929796 1.3606747 1.816759 2.7514448 2.71875 4.1308594 0.071203-0.2258471 0.141869-0.451832 0.212891-0.6777344-0.975322-1.4851688-1.929226-2.9861789-2.931641-4.453125zm-7.208984 13.533203c0.104174 0.384757 0.220268 0.766059 0.326172 1.150391 0.647061 0.28977 1.334219 0.65271 1.902343 0.833984-0.443717-0.531379-0.900577-1.053085-1.349609-1.580078-0.297047-0.142433-0.596424-0.290306-0.878906-0.404297zm7.117187 1.550781c-0.07683 0.249759-0.158059 0.498131-0.234375 0.748047 0.436675 0.500819 0.903109 0.974091 1.359375 1.457031 0.207806-0.142124 0.406206-0.282806 0.544922-0.412109-0.533045-0.619143-1.11931-1.189638-1.669922-1.792969zm2.59375 3.013672c-0.403449-0.003781-0.807474-0.00148-1.210937 0.001953-0.396446 0.293154-0.89148 0.602932-1.138672 0.84375 0.767929-0.303558 1.572981-0.551947 2.349609-0.845703zm-2.46289 0.96875c-0.007025 0.011255-0.030319 0.026427-0.035157 0.03711 0.037092 4.23e-4 0.074236-3.01e-4 0.111329 0-0.0254-0.012329-0.050796-0.024733-0.076172-0.03711zm1.085937 0.517578c-0.258108 0.089268-0.510206 0.187066-0.763672 0.283204 0.693952 0.117682 1.388042 0.241055 2.082031 0.345703-0.43695-0.214494-0.877784-0.421943-1.318359-0.628907zm-4.013672 1.029297c-0.387006 0.034567-0.772571 0.081039-1.158203 0.128907-0.236445 0.225198-0.472417 0.450642-0.701172 0.683593 0.621321-0.258533 1.235924-0.532826 1.851563-0.804687 0.002567-0.002642 0.005247-0.00517 0.007812-0.007813zm1.300781 0.439453c-0.056873 0.024202-0.113124 0.049841-0.169921 0.074219-0.1283 0.38971-0.273399 0.799772-0.310547 1.095703 0.175532-0.284276 0.339407-0.575793 0.509765-0.863281 0.014537-0.128005 0.012268-0.238548-0.029297-0.306641z" style="fill:#ffffff;opacity:.2"/>
</svg>
