<svg xmlns="http://www.w3.org/2000/svg" width="32" height="32" version="1.1">
 <circle style="opacity:.2" cx="16" cy="17" r="14"/>
 <circle style="fill:#4f4f4f" cx="16" cy="16" r="14"/>
 <path style="opacity:.1" d="m8 28 6.6-10.58-3.25-5.42h2.8l2.13 3.6 2.72-4.6h-15.65c0.69685-1.37938 1.23752-2.18907 1.9-3h17.75l-5.6 9 4.35 7h-2.8l-3.1784-4.9-3.5716 5.9h15.3c-0.8025 1.1344-1.6684 2.0794-2.8 3z"/>
 <path style="fill:#c2352a" d="m8 27 6.6-10.58-3.25-5.42h2.8l2.13 3.6 2.72-4.6h-15.65c0.69685-1.37938 1.23752-2.18907 1.9-3h17.75l-5.6 9 4.35 7h-2.8l-3.1784-4.9-3.5716 5.9h15.3c-0.8025 1.1344-1.6684 2.0794-2.8 3z"/>
 <path style="fill:#ffffff;opacity:.1" d="M 16,2 C 12.287,2 8.72602,3.475 6.10051,6.10051 3.475,8.72602 2,12.287 2,16 2.00873,16.1669 2.02046,16.3336 2.03516,16.5 2.30397,8.97756 8.47278,3.0141 16,3 23.4515,3.00052 29.5969,8.83767 29.9805,16.2793 29.9879,16.1863 29.9944,16.0932 30,16 30,12.287 28.525,8.72602 25.8995,6.10051 23.274,3.475 19.713,2 16,2 Z"/>
 <path style="fill:#ffffff;opacity:.2" d="m5.25 7c-0.66248 0.81093-1.2035406 1.62062-1.9003906 3h0.5351562c0.461853-0.8125867 0.8816903-1.4081022 1.3652344-2h17.126953l0.623047-1h-17.75zm6.099609 4 0.59961 1h2.201172l2.128906 3.599609 2.720703-4.599609h-0.591797l-2.128906 3.599609-2.128906-3.599609h-2.800782zm6.361329 5.5-0.310547 0.5 3.728515 6h0.621094l-4.039062-6.5zm-3.417969 0.410156-6.292969 10.089844h0.6230469l5.9765621-9.580078-0.30664-0.509766zm-1.488281 7.089844-0.605469 1h14.53125c0.265923-0.319104 0.521665-0.649621 0.769531-1h-5.75-2.800781-6.144531z"/>
</svg>
