<svg xmlns="http://www.w3.org/2000/svg" width="32" height="32" version="1.1">
 <circle style="opacity:0.2" cx="16" cy="17" r="14"/>
 <circle style="fill:#dc2928" cx="16" cy="16" r="14"/>
 <path style="opacity:0.2" d="m 16.203711,3.0058827 c -0.07103,0.1843537 -0.125781,0.3322266 -0.125781,0.3322266 -0.341556,0.936803 -1.88557,5.4612804 -0.749219,7.7013667 0,0 0.528163,-0.0095 0.765625,-0.496288 0.136593,-0.27426 -0.988908,4.888687 -0.09434,6.454492 0,0 0.929244,-2.428241 2.824609,-3.691407 0.0054,-0.0043 0.130071,-0.06458 0.120313,-0.07109 -0.406615,-0.348049 -0.898242,-0.169532 -0.898242,-0.169532 0.184331,-5.0147144 4.227967,-7.4372845 4.927344,-7.8189449 0,0 0.218976,-0.1261371 0.328125,-0.1873048 A 14,14 0 0 0 16.203711,3.0058827 Z M 16,16.99768 c 0,0 2.619511,-0.04457 4.406445,1.361718 0.0076,0.0022 0.100934,0.102445 0.105273,0.0916 0.214693,-0.486834 -0.103906,-0.895508 -0.103906,-0.895508 4.689618,-1.26425 8.149204,1.531431 8.95918,2.270898 l 0.259766,0.226954 A 14,14 0 0 0 30,17.000414 14,14 0 0 0 29.149609,12.201586 l -0.347266,0.01777 c -0.97479,0.02927 -5.406733,0.26901 -7.108007,2.106836 0,0 0.198345,0.478372 0.74375,0.525 0.311196,0.02277 -5.275712,0.759712 -6.438086,2.146485 z m 0,0 c 0,0 0,0.0014 0,0.0014 0,0 -2.152338,-1.495208 -2.667383,-3.688672 0,-0.0076 -0.01212,-0.141862 -0.02188,-0.135352 -0.476007,0.248296 -0.483979,0.764258 -0.483979,0.764258 C 8.2347278,12.006041 7.3384877,7.4804959 7.2007816,6.5523672 L 7.1611329,6.1736562 A 14,14 0 0 0 2.5591797,13.092992 l 0.2830078,0.222852 c 0.6419084,0.469485 4.5198188,3.207633 7.0820309,2.763086 7e-7,0 0.1405786,-0.500552 -0.2638671,-0.862696 C 9.430479,15.00914 14.219572,17.400507 16,17.000414 c 0.003,0.0071 1.058373,2.526908 0.319922,4.656641 -0.0033,0.0043 -0.06525,0.127148 -0.05332,0.127148 0.53673,0.03578 0.818945,-0.397852 0.818945,-0.397852 2.776904,3.901178 1.267282,8.093335 0.816211,9.139649 l -0.166796,0.35 a 14,14 0 0 0 6.872851,-2.876562 l -0.09707,-0.317188 c -0.368663,-1.048482 -1.97991,-5.285603 -4.234179,-6.323243 0,1e-6 -0.4061,0.331077 -0.285742,0.85586 C 20.058048,22.515208 17.691515,17.675344 16,16.99768 Z m 0,0.0027 c 0,0 -2.155147,1.752587 -4.436524,1.610547 -0.0076,0 -0.141305,-0.02725 -0.138085,-0.01641 0.107346,0.520445 0.605664,0.67539 0.605664,0.67539 -3.1596646,3.74613 -7.5809753,3.352528 -8.5449222,3.216995 L 3.115625,22.415844 a 14,14 0 0 0 5.4277342,6.423046 l 0.2515625,-0.235156 c 0.8468418,-0.66899 4.3827353,-3.599135 4.6115233,-6.053906 0,0 -0.451367,-0.26734 -0.913281,0.02324 C 12.229799,22.735634 15.919709,18.797105 16,17.000414 Z"/>
 <path style="fill:#ffffff" d="m 16.203711,2.0054687 c -0.07103,0.1843537 -0.125781,0.3322266 -0.125781,0.3322266 -0.341556,0.936803 -1.88557,5.4612804 -0.749219,7.7013667 0,0 0.528163,-0.0095 0.765625,-0.4962883 C 16.230929,9.2685144 15.105428,14.431461 16,15.997266 c 0,0 0.929244,-2.428241 2.824609,-3.691407 0.0054,-0.0043 0.130071,-0.06458 0.120313,-0.07109 -0.406615,-0.348049 -0.898242,-0.169532 -0.898242,-0.169532 0.184331,-5.0147144 4.227967,-7.4372845 4.927344,-7.8189449 0,0 0.218976,-0.1261371 0.328125,-0.1873048 A 14,14 0 0 0 16.203711,2.0054687 Z M 16,15.997266 c 0,0 2.619511,-0.04457 4.406445,1.361718 0.0076,0.0022 0.100934,0.102445 0.105273,0.0916 0.214693,-0.486834 -0.103906,-0.895508 -0.103906,-0.895508 4.689618,-1.26425 8.149204,1.531431 8.95918,2.270898 l 0.259766,0.226954 A 14,14 0 0 0 30,16 14,14 0 0 0 29.149609,11.201172 l -0.347266,0.01777 c -0.97479,0.02927 -5.406733,0.26901 -7.108007,2.106836 0,0 0.198345,0.478372 0.74375,0.525 C 22.749282,13.873548 17.162374,14.61049 16,15.997263 Z m 0,0 c 0,0 0,0.0014 0,0.0014 0,0 -2.152338,-1.495208 -2.667383,-3.688672 0,-0.0076 -0.01212,-0.141862 -0.02188,-0.135352 C 12.83473,12.422938 12.826758,12.9389 12.826758,12.9389 8.2347278,11.005627 7.3384877,6.4800819 7.2007816,5.5519532 L 7.1611329,5.1732422 A 14,14 0 0 0 2.5591797,12.092578 l 0.2830078,0.222852 c 0.6419084,0.469485 4.5198188,3.207633 7.0820309,2.763086 7e-7,0 0.1405786,-0.500552 -0.2638671,-0.862696 C 9.430479,14.008726 14.219572,16.400093 16,16 c 0.003,0.0071 1.058373,2.526908 0.319922,4.656641 -0.0033,0.0043 -0.06525,0.127148 -0.05332,0.127148 0.53673,0.03578 0.818945,-0.397852 0.818945,-0.397852 2.776904,3.901178 1.267282,8.093335 0.816211,9.139649 l -0.166796,0.35 a 14,14 0 0 0 6.872851,-2.876562 l -0.09707,-0.317188 c -0.368663,-1.048482 -1.97991,-5.285603 -4.234179,-6.323243 0,1e-6 -0.4061,0.331077 -0.285742,0.85586 C 20.058048,21.514794 17.691515,16.67493 16,15.997266 Z M 16,16 c 0,0 -2.155147,1.752587 -4.436524,1.610547 -0.0076,0 -0.141305,-0.02725 -0.138085,-0.01641 0.107346,0.520445 0.605664,0.67539 0.605664,0.67539 -3.1596646,3.74613 -7.5809753,3.352528 -8.5449222,3.216995 L 3.115625,21.41543 a 14,14 0 0 0 5.4277342,6.423046 L 8.7949217,27.60332 c 0.8468418,-0.66899 4.3827353,-3.599135 4.6115233,-6.053906 0,0 -0.451367,-0.26734 -0.913281,0.02324 C 12.229799,21.73522 15.919709,17.796691 16,16 Z"/>
 <path style="fill:#ffffff;opacity:0.2" d="M 16 2 A 14 14 0 0 0 2 16 A 14 14 0 0 0 2.0351562 16.5 A 14 14 0 0 1 16 3 A 14 14 0 0 1 29.980469 16.279297 A 14 14 0 0 0 30 16 A 14 14 0 0 0 16 2 z"/>
</svg>
