<svg xmlns="http://www.w3.org/2000/svg" width="32" height="32" version="1.1">
 <rect style="opacity:0.2" width="27" height="6" x="2" y="23" rx="1.35" ry="1.4"/>
 <path style="fill:#4ab3e4" d="M 3.35,3 C 2.6021,3 2,3.6244 2,4.4 V 5.8 25.6 C 2,26.3756 2.6021,27 3.35,27 h 24.3 C 28.3979,27 29,26.3756 29,25.6 V 5.8 4.4 C 29,3.6244 28.3979,3 27.65,3 Z"/>
 <rect style="opacity:0.1" width="27" height="6" x="2" y="21" rx="1.35" ry="1.4"/>
 <rect style="fill:#4f4f4f" width="27" height="6" x="2" y="22" rx="1.35" ry="1.4"/>
 <rect style="opacity:0.2;fill:#ffffff" width="7" height="6" x="12" y="22" rx="1.4" ry="1.5"/>
 <path style="opacity:0.2;fill:#ffffff" d="M 15.5 24 A 3.5 3.5 0 0 0 12.056641 26.896484 C 12.219186 27.532159 12.754116 28 13.400391 28 L 17.599609 28 C 18.247929 28 18.784661 27.529396 18.945312 26.890625 A 3.5 3.5 0 0 0 15.5 24 z"/>
 <rect style="opacity:0.1;fill:#ffffff" width="7" height="6" x="4" y="22" rx="1.4" ry="1.5"/>
 <rect style="opacity:0.1;fill:#ffffff" width="7" height="6" x="20" y="22" rx="1.4" ry="1.5"/>
 <path style="opacity:0.2" d="m 7,8.375 v 9.5625 C 7,18.526125 7.473875,19 8.0625,19 h 14.875 C 23.526125,19 24,18.526125 24,17.9375 V 8.375 Z"/>
 <path style="fill:#ffffff" d="m 7,7.375 v 9.5625 C 7,17.526125 7.473875,18 8.0625,18 h 14.875 C 23.526125,18 24,17.526125 24,16.9375 V 7.375 Z"/>
 <path style="fill:#4f4f4f" d="m 8.0625,6 h 14.875 C 23.526125,6 24,6.4699587 24,7.053719 V 9 H 7 V 7.053719 C 7,6.4699587 7.473875,6 8.0625,6 Z"/>
 <path style="fill:#ffffff;opacity:0.2" d="M 3.3496094 3 C 2.6017094 3 2 3.6247906 2 4.4003906 L 2 5.4003906 C 2 4.6247906 2.6017094 4 3.3496094 4 L 27.650391 4 C 28.398291 4 29 4.6247906 29 5.4003906 L 29 4.4003906 C 29 3.6247906 28.398291 3 27.650391 3 L 3.3496094 3 z"/>
 <path style="opacity:0.2;fill:#ffffff" d="M 15.5 26 A 1.5 1.5 0 0 0 14 27.5 A 1.5 1.5 0 0 0 14.087891 28 L 16.912109 28 A 1.5 1.5 0 0 0 17 27.5 A 1.5 1.5 0 0 0 15.5 26 z"/>
 <path style="opacity:0.2;fill:#ffffff" d="M 15.5 24 A 3.5 3.5 0 0 0 12.056641 26.896484 C 12.092757 27.037727 12.152634 27.167682 12.222656 27.289062 A 3.5 3.5 0 0 1 15.5 25 A 3.5 3.5 0 0 1 18.779297 27.285156 C 18.849273 27.163101 18.9096 27.032623 18.945312 26.890625 A 3.5 3.5 0 0 0 15.5 24 z"/>
 <path style="opacity:0.2;fill:#ffffff" d="M 15.5 26 A 1.5 1.5 0 0 0 14 27.5 A 1.5 1.5 0 0 0 14.087891 28 A 1.5 1.5 0 0 1 15.5 27 A 1.5 1.5 0 0 1 16.912109 28 A 1.5 1.5 0 0 0 17 27.5 A 1.5 1.5 0 0 0 15.5 26 z"/>
</svg>
