<svg xmlns="http://www.w3.org/2000/svg" width="32" height="32" version="1.1">
 <path style="opacity:0.2" d="M 15.05632,3.0000962 A 0.9768451,0.9768451 0 0 0 14.379718,3.2862527 L 7.4025882,10.263383 a 0.9768451,0.9768451 0 0 0 0,1.381182 l 0.239099,0.239099 -5.3555766,5.355578 a 0.9768451,0.9768451 0 0 0 0,1.381182 l 6.9771301,6.97713 a 0.9768451,0.9768451 0 0 0 1.3811823,0 l 0.239099,-0.239099 5.355578,5.355577 a 0.9768451,0.9768451 0 0 0 1.381181,0 l 6.977131,-6.97713 a 0.9768451,0.9768451 0 0 0 0,-1.381183 L 24.358313,22.11662 29.71389,16.761042 a 0.9768451,0.9768451 0 0 0 0,-1.381181 L 22.736759,8.4027302 a 0.9768451,0.9768451 0 0 0 -1.381182,0 L 21.116478,8.6418292 15.7609,3.2862527 A 0.9768451,0.9768451 0 0 0 15.05632,3.0000962 Z"/>
 <path style="fill:#52b54a" d="M 15.05632,2.0000962 A 0.9768451,0.9768451 0 0 0 14.379718,2.2862527 L 7.4025882,9.2633834 a 0.9768451,0.9768451 0 0 0 0,1.3811816 l 0.239099,0.239099 -5.3555766,5.355578 a 0.9768451,0.9768451 0 0 0 0,1.381182 l 6.9771301,6.97713 a 0.9768451,0.9768451 0 0 0 1.3811823,0 l 0.239099,-0.239099 5.355578,5.355577 a 0.9768451,0.9768451 0 0 0 1.381181,0 l 6.977131,-6.97713 a 0.9768451,0.9768451 0 0 0 0,-1.381183 L 24.358313,21.11662 29.71389,15.761042 a 0.9768451,0.9768451 0 0 0 0,-1.381181 L 22.736759,7.4027302 a 0.9768451,0.9768451 0 0 0 -1.381182,0 L 21.116478,7.6418292 15.7609,2.2862527 A 0.9768451,0.9768451 0 0 0 15.05632,2.0000962 Z"/>
 <path style="opacity:0.2" transform="matrix(0.61814246,0,0,0.61180237,-48.720434,3.6503009)" d="M 114.00355,21.82028 99.848236,29.992854 V 13.647706 Z"/>
 <path style="fill:#ffffff" transform="matrix(0.61814246,0,0,0.61180237,-48.720434,2.6503009)" d="M 114.00355,21.82028 99.848236,29.992854 V 13.647706 Z"/>
 <path style="opacity:0.2;fill:#ffffff" d="M 15.056641 2 A 0.9768451 0.9768451 0 0 0 14.378906 2.2871094 L 7.4023438 9.2636719 A 0.9768451 0.9768451 0 0 0 7.2558594 10.453125 A 0.9768451 0.9768451 0 0 1 7.4023438 10.263672 L 14.378906 3.2871094 A 0.9768451 0.9768451 0 0 1 15.056641 3 A 0.9768451 0.9768451 0 0 1 15.761719 3.2871094 L 21.117188 8.6425781 L 21.355469 8.4023438 A 0.9768451 0.9768451 0 0 1 22.736328 8.4023438 L 29.714844 15.378906 A 0.9768451 0.9768451 0 0 1 29.861328 15.570312 A 0.9768451 0.9768451 0 0 0 29.714844 14.378906 L 22.736328 7.4023438 A 0.9768451 0.9768451 0 0 0 21.355469 7.4023438 L 21.117188 7.6425781 L 15.761719 2.2871094 A 0.9768451 0.9768451 0 0 0 15.056641 2 z M 7.1933594 11.332031 L 2.2851562 16.238281 A 0.9768451 0.9768451 0 0 0 2.1386719 17.429688 A 0.9768451 0.9768451 0 0 1 2.2851562 17.238281 L 7.6425781 11.882812 L 7.4023438 11.644531 A 0.9768451 0.9768451 0 0 1 7.1933594 11.332031 z M 24.806641 21.667969 L 24.357422 22.117188 L 24.597656 22.355469 A 0.9768451 0.9768451 0 0 1 24.744141 22.546875 A 0.9768451 0.9768451 0 0 0 24.806641 21.667969 z"/>
</svg>
