<svg xmlns="http://www.w3.org/2000/svg" width="32" height="32" version="1">
 <rect style="opacity:0.2" width="28" height="28" x="2" y="3" rx="14" ry="14"/>
 <rect style="fill:#2869b6" width="28" height="28" x="2" y="2" rx="14" ry="14"/>
 <path style="opacity:0.2" d="m 16,2.999688 c -2.048733,0 -3.985807,0.4463423 -5.736328,1.2304688 L 12,5.8004692 v 1.8652344 l 2.132812,2.3339844 h 0.933594 V 8.5992974 L 16,7.1989068 V 6.2672661 L 17,5.3336724 V 3.0504692 C 16.668439,3.0271877 16.337684,2.999688 16,2.999688 Z m -9.8066406,4 C 3.8050676,9.3417292 2.2693432,12.536969 2.0449219,16.103204 L 7,20.267266 v -1.40039 L 6,17.499688 7.1328125,17.032891 h 0.9335937 l 0.9199219,0.933594 0.027344,-2.460938 1.3867191,-1.505859 H 11 v -0.732422 l 1,-0.933594 v -1.40039 L 11.269531,10.01336 9,9.9860161 V 11.999688 H 8.0664062 L 7,10.933282 V 9.999688 l 1.5332031,-1 H 10 V 7.6657036 L 9,6.999688 Z M 23,7.1989068 22,8.5992974 V 9.499688 h 1 v -0.5 h 1 v 1.029297 l -0.533203,0.470703 H 21 v 1 h -1 v 1.5 h -2 v 1.5 h 3 v -0.5 h 1.5 v 0.199219 l 0.966797,0.800781 H 24 v -0.333984 l -0.5,-0.466797 v -0.199219 h 0.900391 l 1.40039,1 H 27 v 0.599609 l -0.267578,0.400391 h -0.931641 l 3.884766,3.949219 C 29.888113,18.997855 30,18.012895 30,16.999688 30,13.174161 28.476131,9.7209413 26.005859,7.1989068 h -2.539062 z m 2.800781,8.8007812 H 23 l -0.466797,-0.5 H 18.966797 L 17,17.466485 v 1.867187 l 1.966797,1.666016 h 1.099609 L 21,22.1325 v 0.466797 l 1.066406,0.466797 v 2.800782 l 2.332032,2.330078 C 25.372377,27.4666 26.247421,26.617683 27,25.661797 V 22.1325 l 1.132812,-0.933593 v -1.865235 l -2.332031,-2.333984 z m -17.7343748,4 L 7,20.933282 v 2.132812 l 2.0136719,1.900391 -0.019531,4.152344 C 9.6324375,29.487435 10.302508,29.804349 11,30.07 v -0.9375 l 1,-1.40039 v -0.931641 l 2,-1.40039 v -0.933594 l 1,-0.933594 v -1.666015 l -1.333984,-0.867188 h -1.865235 l -0.933593,-1 z"/>
 <path style="fill:#659cdb" d="M 16 2 C 13.951267 2 12.014193 2.4463423 10.263672 3.2304688 L 12 4.8007812 L 12 6.6660156 L 14.132812 9 L 15.066406 9 L 15.066406 7.5996094 L 16 6.1992188 L 16 5.2675781 L 17 4.3339844 L 17 2.0507812 C 16.668439 2.0274997 16.337684 2 16 2 z M 6.1933594 6 C 3.8050676 8.3420412 2.2693432 11.537281 2.0449219 15.103516 L 7 19.267578 L 7 17.867188 L 6 16.5 L 7.1328125 16.033203 L 8.0664062 16.033203 L 8.9863281 16.966797 L 9.0136719 14.505859 L 10.400391 13 L 11 13 L 11 12.267578 L 12 11.333984 L 12 9.9335938 L 11.269531 9.0136719 L 9 8.9863281 L 9 11 L 8.0664062 11 L 7 9.9335938 L 7 9 L 8.5332031 8 L 10 8 L 10 6.6660156 L 9 6 L 6.1933594 6 z M 23 6.1992188 L 22 7.5996094 L 22 8.5 L 23 8.5 L 23 8 L 24 8 L 24 9.0292969 L 23.466797 9.5 L 21 9.5 L 21 10.5 L 20 10.5 L 20 12 L 18 12 L 18 13.5 L 21 13.5 L 21 13 L 22.5 13 L 22.5 13.199219 L 23.466797 14 L 24 14 L 24 13.666016 L 23.5 13.199219 L 23.5 13 L 24.400391 13 L 25.800781 14 L 27 14 L 27 14.599609 L 26.732422 15 L 25.800781 15 L 29.685547 18.949219 C 29.888113 17.998167 30 17.013207 30 16 C 30 12.174473 28.476131 8.7212533 26.005859 6.1992188 L 23.466797 6.1992188 L 23 6.1992188 z M 25.800781 15 L 23 15 L 22.533203 14.5 L 18.966797 14.5 L 17 16.466797 L 17 18.333984 L 18.966797 20 L 20.066406 20 L 21 21.132812 L 21 21.599609 L 22.066406 22.066406 L 22.066406 24.867188 L 24.398438 27.197266 C 25.372377 26.466912 26.247421 25.617995 27 24.662109 L 27 21.132812 L 28.132812 20.199219 L 28.132812 18.333984 L 25.800781 16 L 25.800781 15 z M 8.0664062 19 L 7 19.933594 L 7 22.066406 L 9.0136719 23.966797 L 8.9941406 28.119141 C 9.6324375 28.487747 10.302508 28.804661 11 29.070312 L 11 28.132812 L 12 26.732422 L 12 25.800781 L 14 24.400391 L 14 23.466797 L 15 22.533203 L 15 20.867188 L 13.666016 20 L 11.800781 20 L 10.867188 19 L 8.0664062 19 z"/>
 <path style="opacity:0.2" d="m 11.411082,17.000184 c -0.131386,0.0031 -0.257369,0.05187 -0.355414,0.137637 l -8.4698061,6.735174 c -0.3515653,0.30706 -0.1762434,0.876714 0.289943,0.942078 l 3.2842378,0.46369 -1.539236,2.665882 c -0.3439747,0.595844 -0.140157,1.353068 0.4556245,1.697078 l 0.3300272,0.191088 c 0.5957814,0.344011 1.352926,0.140172 1.6969005,-0.455671 l 1.5980264,-2.768775 2.3422567,1.898855 c 0.360591,0.293338 0.90679,0.04234 0.907241,-0.41692 l 0.02806,-10.54625 c 8.9e-4,-0.305691 -0.256023,-0.55173 -0.567863,-0.543866 z"/>
 <path style="fill:#ffffff" d="m 11.411082,16.000184 c -0.131386,0.0031 -0.257369,0.05187 -0.355414,0.137637 l -8.4698061,6.735174 c -0.3515653,0.30706 -0.1762434,0.876714 0.289943,0.942078 l 3.2842378,0.46369 -1.539236,2.665882 c -0.3439747,0.595844 -0.140157,1.353068 0.4556245,1.697078 l 0.3300272,0.191088 c 0.5957814,0.344011 1.352926,0.140172 1.6969005,-0.455671 l 1.5980264,-2.768775 2.3422567,1.898855 c 0.360591,0.293338 0.90679,0.04234 0.907241,-0.41692 l 0.02806,-10.54625 c 8.9e-4,-0.305691 -0.256023,-0.55173 -0.567863,-0.543866 z"/>
 <path style="fill:#ffffff;opacity:0.1" d="M 16 2 C 8.244 2 2 8.244 2 16 C 2 16.168842 2.0195214 16.33264 2.0253906 16.5 C 2.2891326 8.9794325 8.4128418 3 16 3 C 23.587158 3 29.710867 8.9794325 29.974609 16.5 C 29.980479 16.33264 30 16.168842 30 16 C 30 8.244 23.756 2 16 2 z"/>
 <path style="opacity:0.2;fill:#ffffff" d="M 16 2 C 13.951267 2 12.014193 2.4463423 10.263672 3.2304688 L 11.037109 3.9296875 C 12.580965 3.3430325 14.245264 3 16 3 C 16.337684 3 16.668439 3.0274997 17 3.0507812 L 17 2.0507812 C 16.668439 2.0274998 16.337684 2 16 2 z M 6.1933594 6 C 3.8050676 8.3420412 2.2693432 11.537281 2.0449219 15.103516 L 2.1445312 15.1875 C 2.5542809 11.993131 4.0124752 9.1386501 6.1933594 7 L 9 7 L 10 7.6660156 L 10 6.6660156 L 9 6 L 6.1933594 6 z M 23 6.1992188 L 22 7.5996094 L 22 8.5 L 22.070312 8.5 L 23 7.1992188 L 23.466797 7.1992188 L 26.005859 7.1992188 C 28.361569 9.6042907 29.841006 12.860573 29.974609 16.474609 C 29.98014 16.315559 30 16.16049 30 16 C 30 12.174473 28.476131 8.7212533 26.005859 6.1992188 L 23.466797 6.1992188 L 23 6.1992188 z M 10 8.9980469 L 10 9 L 9 9 L 9 9.9863281 L 11.269531 10.013672 L 12 10.933594 L 12 9.9335938 L 11.269531 9.0136719 L 10 8.9980469 z M 24 9.0292969 L 23.466797 9.5 L 23 9.5 L 22 9.5 L 21 9.5 L 21 10.5 L 23.466797 10.5 L 24 10.029297 L 24 9.0292969 z M 21 10.5 L 20 10.5 L 20 11.5 L 21 11.5 L 21 10.5 z M 7.0410156 9.9746094 L 7 10 L 7 10.933594 L 8.0664062 12 L 9 12 L 9 11 L 8.0664062 11 L 7.0410156 9.9746094 z M 18 12 L 18 13 L 20 13 L 20 12 L 18 12 z M 18.966797 14.5 L 17 16.466797 L 17 17.466797 L 18.966797 15.5 L 22.533203 15.5 L 23 16 L 25.800781 16 L 25.800781 15 L 24 15 L 23.466797 15 L 23 15 L 22.533203 14.5 L 21 14.5 L 18.966797 14.5 z M 25.800781 15 L 26.753906 15.96875 L 27 15.599609 L 27 15 L 26.732422 15 L 25.800781 15 z M 25.800781 16 L 25.800781 17 L 28.132812 19.333984 L 28.132812 18.371094 L 25.800781 16 z M 6.5625 17.267578 L 6 17.5 L 7 18.867188 L 7 17.867188 L 6.5625 17.267578 z M 8.0664062 19 L 7 19.933594 L 7 20.267578 L 7 20.933594 L 8.0664062 20 L 10.867188 20 L 11.800781 21 L 13.666016 21 L 15 21.867188 L 15 20.867188 L 13.666016 20 L 11.800781 20 L 10.867188 19 L 8.0664062 19 z M 9.0097656 24.962891 L 8.9941406 28.119141 C 8.9953996 28.119868 8.9967876 28.120367 8.9980469 28.121094 L 9.0136719 24.966797 L 9.0097656 24.962891 z"/>
</svg>
