<svg xmlns="http://www.w3.org/2000/svg" width="32" height="32" version="1">
 <rect style="opacity:0.2" width="29" height="29" x="-31" y="-31" rx="14.5" ry="14.5" transform="matrix(0,-1,-1,0,0,0)"/>
 <rect width="29" height="29" x="-30" y="-31" rx="14.5" ry="14.5" transform="matrix(0,-1,-1,0,0,0)" style="fill:#307ada"/>
 <path style="fill:#ffffff;opacity:0.1" d="M 16.5 1 C 8.467 1 2 7.467 2 15.5 C 2 15.668901 2.0197182 15.832529 2.0253906 16 C 2.2895 8.2024902 8.6359007 2 16.5 2 C 24.364099 2 30.7105 8.2024902 30.974609 16 C 30.980282 15.832529 31 15.668901 31 15.5 C 31 7.467 24.533 1 16.5 1 z"/>
 <path style="fill:#3f3f3f" d="M 16.5,4.9999999 C 10.701,4.9999999 6,9.7009999 6,15.5 6,21.299 10.701,26 16.5,26 22.299,26 27,21.299 27,15.5 27,9.7009999 22.299,4.9999999 16.5,4.9999999 Z"/>
 <path d="m 2.5,16.500358 9.700712,0 2.9,-7.0000005 2.9,14.0000005 2.9,-7 9.599288,0" style="opacity:0.2;fill:none;stroke:#000000;stroke-width:3;stroke-linecap:round;stroke-linejoin:round"/>
 <path style="fill:none;stroke:#22d3ff;stroke-width:3;stroke-linecap:round;stroke-linejoin:round" d="m 2.5,15.5 9.700712,0 2.9,-7 2.9,14 2.9,-7 9.599288,0"/>
</svg>
