<svg width="32" height="32" version="1.1" xmlns="http://www.w3.org/2000/svg">
 <path d="m16.000001 3c-7.7319859-5e-7 -13.999998 6.2680131-13.999999 13.999999l-2.1e-6 11c-2e-7 1.796505 1.1984874 3.000001 3 3.000001h22.000001c1.801513 0 2.999998-1.198377 2.999998-3.000001l3e-6 -11c3e-6 -7.7319864-6.268014-14-14.000001-13.999999z" style="opacity:.2"/>
 <path d="m16.000001 2c-7.7319859-5e-7 -13.999998 6.2680131-13.999999 13.999999l-2.1e-6 11c-2e-7 1.796505 1.1984874 3.000001 3 3.000001h22.000001c1.801513 0 2.999998-1.198377 2.999998-3.000001l3e-6 -11c3e-6 -7.7319864-6.268014-14-14.000001-13.999999z" style="fill:#248afd"/>
 <circle cx="16" cy="17" r="10" style="fill:#ffffff;opacity:.2"/>
 <circle cx="16" cy="16" r="10" style="fill:#e4e4e4"/>
 <path d="m11.5 17.5v3" style="fill:none;stroke-linecap:round;stroke-linejoin:round;stroke-miterlimit:0;stroke-width:3;stroke:#4f4f4f"/>
 <path d="m20.5 17.5v3" style="fill:none;stroke-linecap:round;stroke-linejoin:round;stroke-miterlimit:0;stroke-width:3;stroke:#4f4f4f"/>
 <path d="m6 16c0-5.524979 4.476563-10 10-10s10 4.476563 10 10v0.5c0-5.5-4.501839-9.5-10-9.5s-10 4-10 9.5z" style="fill:#010101;opacity:.2"/>
 <path d="m10 17.5c0-0.828134 0.667893-1.5 1.5-1.5s1.5 0.671838 1.5 1.5v1c0-0.800781-0.695237-1.5-1.5-1.5s-1.5 0.695312-1.5 1.5z" style="fill:#ffffff;opacity:.2"/>
 <path d="m19 17.5c0-0.828134 0.667893-1.5 1.5-1.5s1.5 0.671838 1.5 1.5v1c0-0.800781-0.695237-1.5-1.5-1.5s-1.5 0.695312-1.5 1.5z" style="fill:#ffffff;opacity:.1"/>
 <path d="m2 16c0-7.703125 6.2347154-14 14-14 7.765285 0 14 6.2969539 14 14v1c0-7.6992187-6.295482-14-14-14-7.7045176 0-14 6.3037417-14 14z" style="fill:#ffffff;opacity:.1"/>
</svg>
