<svg xmlns="http://www.w3.org/2000/svg" width="32" height="32" version="1">
 <rect fill="#4f4f4f" width="28" height="28" x="2" y="2" rx="14"/>
 <path opacity=".2" d="m15.005 26c6.126-1.5778 15.345-7.7172 6.0306-16 4.1397 5.253 5.0255 7-4.0204 7 8.797 1.7673 1.0207 5.2924-3.0153 6z"/>
 <path opacity=".2" d="m17.051 8.0054c-6.126 1.5778-15.346 7.7176-6.031 16-4.1397-5.253-5.0255-7 4.0204-7-8.797-1.7673-1.0207-5.2924 3.0153-6z"/>
 <path fill="#df574d" d="m15.005 24.995c6.126-1.5778 15.345-7.7172 6.0306-16 4.1397 5.253 5.0255 7-4.0204 7 8.797 1.7673 1.0207 5.2924-3.0153 6z"/>
 <path fill="#79de7d" d="m17.051 7c-6.126 1.5779-15.346 7.717-6.031 16-4.1395-5.253-5.0254-7 4.021-7-8.7975-1.767-1.021-5.292 3.015-6z"/>
 <path fill="#fff" opacity=".1" d="m16 2c-7.756 0-14 6.244-14 14 0 0.169 0.0195 0.333 0.0254 0.5 0.2637-7.5206 6.3874-13.5 13.975-13.5 7.587 0 13.711 5.9794 13.975 13.5 0.005-0.167 0.025-0.331 0.025-0.5 0-7.756-6.244-14-14-14z"/>
 <path opacity=".2" d="m2.0254 16.5c-0.0059 0.167-0.0254 0.331-0.0254 0.5 0 7.756 6.244 14 14 14s14-6.244 14-14c0-0.16884-0.01952-0.33264-0.02539-0.5-0.264 7.521-6.388 13.5-13.975 13.5-7.5872 0-13.711-5.979-13.975-13.5z"/>
</svg>
