<svg xmlns="http://www.w3.org/2000/svg" width="32" height="32" version="1">
 <rect style="opacity:0.2" width="28" height="28" x="2" y="3" rx="1.4" ry="1.4"/>
 <rect style="fill:#ef4e4e" width="28" height="28" x="2" y="2" rx="1.4" ry="1.4"/>
 <path style="fill:#ffffff;opacity:0.1" d="M 3.4003906 2 C 2.6247906 2 2 2.6247906 2 3.4003906 L 2 4.4003906 C 2 3.6247906 2.6247906 3 3.4003906 3 L 28.599609 3 C 29.375209 3 30 3.6247906 30 4.4003906 L 30 3.4003906 C 30 2.6247906 29.375209 2 28.599609 2 L 3.4003906 2 z"/>
 <path style="fill:none;stroke:#656565;stroke-width:3;stroke-linecap:round" d="m 15.5,2.5 v 27"/>
 <path style="fill:none;stroke:#656565;stroke-width:3;stroke-linecap:round" d="m 7.50015,2.5 v 27"/>
 <path style="opacity:0.2" d="m 2.5,7.99985 a 1.50015,1.50015 0 1 0 0,3 h 27 a 1.50015,1.50015 0 1 0 0,-3 z m 0,8 a 1.50015,1.50015 0 1 0 0,3 h 27 a 1.50015,1.50015 0 1 0 0,-3 z m 0,7 a 1.50015,1.50015 0 1 0 0,3 h 27 a 1.50015,1.50015 0 1 0 0,-3 z"/>
 <path style="fill:none;stroke:#656565;stroke-width:3;stroke-linecap:round" d="m 23.5,2.5 v 27"/>
 <path style="fill:none;stroke:#656565;stroke-width:3;stroke-linecap:round" d="M 29.5,16.5 H 2.5"/>
 <path style="fill:none;stroke:#656565;stroke-width:3;stroke-linecap:round" d="M 29.5,8.5 H 2.5"/>
 <path style="fill:none;stroke:#656565;stroke-width:3;stroke-linecap:round" d="M 29.5,23.5 H 2.5"/>
 <path style="opacity:0.2" d="M 13.5,5.5 12.792969,6.7929688 11.5,7.5 12.792969,8.2070312 13.5,9.5 14.207031,8.2070312 15.5,7.5 14.207031,6.7929688 Z M 19,8.5 18.117188,10.117188 16.5,11 18.117188,11.882812 19,13.5 19.882812,11.882812 21.5,11 19.882812,10.117188 Z m -8.816406,3 L 7.5,14.183594 l 2.919922,2.921875 2.685547,-2.685547 z m 3.908203,3.908203 -2.683594,2.683594 L 21.816406,28.5 24.5,25.816406 Z M 8,19.5 7.4707031,20.470703 6.5,21 7.4707031,21.53125 8,22.5 8.5292969,21.53125 9.5,21 8.5292969,20.470703 Z"/>
 <path style="fill:#ffffff" d="M 13.5 4.5 L 12.792969 5.7929688 L 11.5 6.5 L 12.792969 7.2070312 L 13.5 8.5 L 14.207031 7.2070312 L 15.5 6.5 L 14.207031 5.7929688 L 13.5 4.5 z M 19 7.5 L 18.117188 9.1171875 L 16.5 10 L 18.117188 10.882812 L 19 12.5 L 19.882812 10.882812 L 21.5 10 L 19.882812 9.1171875 L 19 7.5 z M 10.183594 10.5 L 7.5 13.183594 L 10.419922 16.105469 L 13.105469 13.419922 L 10.183594 10.5 z M 14.091797 14.408203 L 11.408203 17.091797 L 21.816406 27.5 L 24.5 24.816406 L 14.091797 14.408203 z M 8 18.5 L 7.4707031 19.470703 L 6.5 20 L 7.4707031 20.53125 L 8 21.5 L 8.5292969 20.53125 L 9.5 20 L 8.5292969 19.470703 L 8 18.5 z"/>
</svg>
