<svg width="32" height="32" version="1.1" xmlns="http://www.w3.org/2000/svg">
 <circle cx="16" cy="17" r="14" style="opacity:.2"/>
 <circle cx="16" cy="16" r="14" style="fill:#e4e4e4"/>
 <path d="M 16,2 A 14,14 0 0 0 2,16 14,14 0 0 0 2.0215,16.586 14,14 0 0 1 16,3 14,14 0 0 1 29.979,16.414 14,14 0 0 0 30,16 14,14 0 0 0 16,2 Z" style="fill:#ffffff;opacity:.2"/>
 <path d="m16 8c-5.546667 0-9.9003906 4.569388-9.9003906 10 0 4.321549 4.1678166 8 8.9003906 8 1.772944 0 3.681561-0.699385 5.232422-1.896484 1.55086-1.1971 2.767578-2.971433 2.767578-5.103516 0-4.416667-2.928571-8-7-8-1.780112 0-3.44174 0.729293-4.697266 1.8125-1.255525 1.083207-2.1496355 2.547853-2.2031246 4.154297-0.094779 2.84647 2.1966596 5.799137 6.1425786 6.03125 1.185508 0.06974 2.335212-0.421449 3.234374-1.230469 0.899163-0.80902 1.562501-1.993426 1.5625-3.367187 0-1.091871-0.498967-2.099244-1.203124-2.914063-0.704158-0.814819-1.663682-1.486328-2.835938-1.486328-1.150424 0-2.112671 0.253051-2.837891 0.779297-0.72522 0.526245-1.162109 1.368242-1.162109 2.220703 0 0.763095 0.313691 1.450853 0.755859 1.900391 0.442168 0.449537 0.96532 0.689083 1.441407 0.839843 0.952173 0.301522 1.835937 0.259766 1.835937 0.259766a1.0005511 1.0005511 0 1 0-0.06641-2s-0.616236 0.0075-1.164063-0.166016c-0.273913-0.08674-0.500761-0.2136-0.621093-0.335937-0.120328-0.122338-0.181637-0.211142-0.181637-0.498047 0-0.244997 0.063111-0.402172 0.337891-0.601562 0.27478-0.199391 0.812533-0.398438 1.662109-0.398438 0.321806 0 0.882043 0.281303 1.324219 0.792969 0.442175 0.511665 0.714843 1.20523 0.714843 1.607422 0 0.726238-0.354704 1.389879-0.90039 1.880859s-1.264806 0.750967-1.779297 0.720703c-3.042001-0.178941-4.318726-2.198014-4.259766-3.96875 0.02905-0.872549 0.585927-1.908034 1.509766-2.705078s2.170737-1.328125 3.390625-1.328125c2.928571 0 5 2.416667 5 6 0 1.367917-0.788126 2.593584-1.990234 3.521484-1.202109 0.927901-2.794586 1.478516-4.009766 1.478516-3.667426 0-6.9003906-3.031983-6.9003906-6 0-4.369388 3.4470576-8 7.9003906-8 4.25696 0 6.097887 1.743173 7.09375 3.494141 0.995863 1.750967 1.005859 3.505859 1.005859 3.505859a1.0001 1.0001 0 1 0 2 0s0.01156-2.245108-1.267578-4.494141c-1.279137-2.249032-3.988991-4.505859-8.832031-4.505859z" style="opacity:.1"/>
 <path d="m16 7c-5.546667 0-9.9003906 4.569388-9.9003906 10 0 4.321549 4.1678166 8 8.9003906 8 1.772944 0 3.681561-0.699385 5.232422-1.896484 1.55086-1.1971 2.767578-2.971433 2.767578-5.103516 0-4.416667-2.928571-8-7-8-1.780112 0-3.44174 0.729293-4.697266 1.8125-1.255525 1.083207-2.1496355 2.547853-2.2031246 4.154297-0.094779 2.84647 2.1966596 5.799137 6.1425786 6.03125 1.185508 0.06974 2.335212-0.421449 3.234374-1.230469 0.899163-0.80902 1.562501-1.993426 1.5625-3.367187 0-1.091871-0.498967-2.099244-1.203124-2.914063-0.704158-0.814819-1.663682-1.486328-2.835938-1.486328-1.150424 0-2.112671 0.253051-2.837891 0.779297-0.72522 0.526245-1.162109 1.368242-1.162109 2.220703 0 0.763095 0.313691 1.450853 0.755859 1.900391 0.442168 0.449537 0.96532 0.689083 1.441407 0.839843 0.952173 0.301522 1.835937 0.259766 1.835937 0.259766a1.0005511 1.0005511 0 1 0-0.06641-2s-0.616236 0.0075-1.164063-0.166016c-0.273913-0.08674-0.500761-0.2136-0.621093-0.335937-0.120328-0.122338-0.181637-0.211142-0.181637-0.498047 0-0.244997 0.063111-0.402172 0.337891-0.601562 0.27478-0.199391 0.812533-0.398438 1.662109-0.398438 0.321806 0 0.882043 0.281303 1.324219 0.792969 0.442175 0.511665 0.714843 1.20523 0.714843 1.607422 0 0.726238-0.354704 1.389879-0.90039 1.880859s-1.264806 0.750967-1.779297 0.720703c-3.042001-0.178941-4.318726-2.198014-4.259766-3.96875 0.02905-0.872549 0.585927-1.908034 1.509766-2.705078s2.170737-1.328125 3.390625-1.328125c2.928571 0 5 2.416667 5 6 0 1.367917-0.788126 2.593584-1.990234 3.521484-1.202109 0.927901-2.794586 1.478516-4.009766 1.478516-3.667426 0-6.9003906-3.031983-6.9003906-6 0-4.369388 3.4470576-8 7.9003906-8 4.25696 0 6.097887 1.743173 7.09375 3.494141 0.995863 1.750967 1.005859 3.505859 1.005859 3.505859a1.0001 1.0001 0 1 0 2 0s0.01156-2.245108-1.267578-4.494141c-1.279137-2.249032-3.988991-4.505859-8.832031-4.505859z" style="fill:#7a34eb"/>
</svg>
