<svg xmlns="http://www.w3.org/2000/svg" width="32" height="32" version="1.1">
 <rect style="opacity:0.2" width="28" height="28" x="2" y="3" rx="2.8" ry="2.8"/>
 <rect style="fill:#3f3f3f" width="28" height="28" x="2" y="2" rx="2.8" ry="2.8"/>
 <path style="opacity:0.2" d="M 6.796875,6 C 6.2713524,6.0008254 5.8457025,6.5042634 5.8457031,7.125 5.8457025,7.7457366 6.2713524,8.2491746 6.796875,8.25 7.3231604,8.2504482 7.7500002,7.7466372 7.75,7.125 7.7500002,6.5033628 7.3231604,5.9995518 6.796875,6 Z M 8.5957031,6.75 C 8.2620169,6.7687902 7.9996328,7.0991362 8,7.5 c -1e-7,0.4142136 0.279822,0.7500001 0.625,0.75 0.345178,10e-8 0.6250001,-0.3357864 0.625,-0.75 10e-8,-0.4142136 -0.279822,-0.7500001 -0.625,-0.75 -0.00976,-2.747e-4 -0.019533,-2.747e-4 -0.029297,0 z M 9.9824219,7.6113281 C 9.7133945,7.6220983 9.5001488,7.873331 9.5,8.1796875 c 3.231e-4,0.314004 0.2240861,0.5683597 0.5,0.5683594 0.275914,3e-7 0.499677,-0.2543554 0.5,-0.5683594 -3.23e-4,-0.314004 -0.224086,-0.5683597 -0.5,-0.5683594 -0.00586,-1.172e-4 -0.011719,-1.172e-4 -0.017578,0 z M 11.068359,8.5 C 10.854454,8.514632 10.687716,8.7095879 10.6875,8.9453125 10.687177,9.1923061 10.869186,9.3926911 11.09375,9.3925781 11.318314,9.3926911 11.500323,9.1923061 11.5,8.9453125 11.499343,8.6990818 11.317621,8.4998866 11.09375,8.5 c -0.0085,-2.911e-4 -0.01693,-2.911e-4 -0.02539,0 z M 6.8085938,9 C 6.2240746,9.0080233 5.8394187,9.1519345 5.4667969,9.5292969 4.7855585,10.219084 4.9244408,11.199475 5.8183594,12.039062 c 1.9381543,1.820298 2.1706563,3.039704 0.3164062,4.416016 -0.7633924,0.566577 -1.315938,1.898168 -1.078125,2.595703 0.2995063,0.878519 1.438426,1.214499 2.4335938,0.71875 0.9335217,-0.464974 1.9916404,-2.054647 2.7128906,-3.955078 0.06012,-0.15838 0.118675,-0.318096 0.173828,-0.480469 0.165529,-0.487094 0.306084,-0.988459 0.417969,-1.492187 0.338033,-1.521445 0.255792,-2.706227 -0.238281,-3.417969 C 10.248294,9.9796058 9.1054907,9.4080884 8.1152344,9.1542969 7.8866939,9.0957313 7.6668755,9.0524743 7.4667969,9.0332031 7.2204968,9.0094813 7.0034328,8.9973251 6.8085938,9 Z M 11.65625,9.5 C 11.47719,9.5065903 11.334821,9.6713927 11.333984,9.8730469 11.333023,10.080422 11.481779,10.249302 11.666016,10.25 11.851017,10.250519 12.000964,10.08128 12,9.8730469 11.999044,9.6663398 11.849661,9.4994844 11.666016,9.5 c -0.0033,-5.41e-5 -0.0065,-5.41e-5 -0.0098,0 z M 12,18 v 2 h 7 v -2 z"/>
 <path style="fill:#f6e390" d="M 6.796875,5 C 6.2713524,5.0008254 5.8457025,5.5042634 5.8457031,6.125 5.8457025,6.7457366 6.2713524,7.2491746 6.796875,7.25 7.3231604,7.2504482 7.7500002,6.7466372 7.75,6.125 7.7500002,5.5033628 7.3231604,4.9995518 6.796875,5 Z M 8.5957031,5.75 C 8.2620169,5.7687902 7.9996328,6.0991362 8,6.5 c -1e-7,0.4142136 0.279822,0.7500001 0.625,0.75 0.345178,1e-7 0.6250001,-0.3357864 0.625,-0.75 10e-8,-0.4142136 -0.279822,-0.7500001 -0.625,-0.75 -0.00976,-2.747e-4 -0.019533,-2.747e-4 -0.029297,0 z M 9.9824219,6.6113281 C 9.7133945,6.6220983 9.5001488,6.873331 9.5,7.1796875 c 3.231e-4,0.314004 0.2240861,0.5683597 0.5,0.5683594 0.275914,3e-7 0.499677,-0.2543554 0.5,-0.5683594 -3.23e-4,-0.314004 -0.224086,-0.5683597 -0.5,-0.5683594 -0.00586,-1.172e-4 -0.011719,-1.172e-4 -0.017578,0 z M 11.068359,7.5 C 10.854454,7.514632 10.687716,7.7095879 10.6875,7.9453125 10.687177,8.1923061 10.869186,8.3926911 11.09375,8.3925781 11.318314,8.3926911 11.500323,8.1923061 11.5,7.9453125 11.499343,7.6990818 11.317621,7.4998866 11.09375,7.5 c -0.0085,-2.911e-4 -0.01693,-2.911e-4 -0.02539,0 z M 6.8085938,8 C 6.2240746,8.0080233 5.8394187,8.1519345 5.4667969,8.5292969 4.7855585,9.2190845 4.9244408,10.199475 5.8183594,11.039062 c 1.9381543,1.820298 2.1706563,3.039704 0.3164062,4.416016 -0.7633924,0.566577 -1.315938,1.898168 -1.078125,2.595703 0.2995063,0.878519 1.438426,1.214499 2.4335938,0.71875 0.9335217,-0.464974 1.9916404,-2.054647 2.7128906,-3.955078 0.06012,-0.15838 0.118675,-0.318096 0.173828,-0.480469 0.165529,-0.487094 0.306084,-0.988459 0.417969,-1.492187 C 11.132955,11.320352 11.050714,10.13557 10.556641,9.4238281 10.248294,8.9796058 9.1054907,8.4080884 8.1152344,8.1542969 7.8866939,8.0957313 7.6668755,8.0524743 7.4667969,8.0332031 7.2204968,8.0094813 7.0034328,7.9973251 6.8085938,8 Z M 11.65625,8.5 C 11.47719,8.5065903 11.334821,8.6713927 11.333984,8.8730469 11.333023,9.0804217 11.481779,9.2493023 11.666016,9.25 11.851017,9.2505195 12.000964,9.0812803 12,8.8730469 11.999044,8.6663398 11.849661,8.4994844 11.666016,8.5 c -0.0033,-5.37e-5 -0.0065,-5.37e-5 -0.0098,0 z M 12,17 v 2 h 7 v -2 z"/>
 <path style="fill:#ffffff;opacity:0.1" d="M 4.8007812 2 C 3.2495813 2 2 3.2495813 2 4.8007812 L 2 5.8007812 C 2 4.2495813 3.2495813 3 4.8007812 3 L 27.199219 3 C 28.750419 3 30 4.2495813 30 5.8007812 L 30 4.8007812 C 30 3.2495813 28.750419 2 27.199219 2 L 4.8007812 2 z"/>
</svg>
