<?xml version="1.0" encoding="UTF-8" standalone="no"?>
<svg xmlns="http://www.w3.org/2000/svg" height="32" viewBox="0 0 32 32" width="32" version="1.1">
 <rect style="fill:#5d5d5d;;;" width="28" height="28" x="2" y="2" rx="1.5" ry="1.5"/>
 <path style="opacity:0.2;fill:#ffffff;;;" d="M 3.5,2 C 2.669,2 2,2.669 2,3.5 l 0,1 C 2,3.669 2.669,3 3.5,3 l 25.000001,0 c 0.831,0 1.5,0.669 1.5,1.5 l 0,-1 c 0,-0.831 -0.669,-1.5 -1.5,-1.5 L 3.5,2 Z"/>
 <path style="fill-opacity:0.2;;;" d="M 3.5,31 C 2.669,31 2,30.331 2,29.5 l 0,-1 C 2,29.331 2.669,30 3.5,30 l 25.000001,0 c 0.831,0 1.5,-0.669 1.5,-1.5 l 0,1 c 0,0.831 -0.669,1.5 -1.5,1.5 L 3.5,31 Z"/>
 <path style="fill:#f24c3d;fill-rule:evenodd;stroke:#000000;stroke-width:0;;" d="M 30,6 6,30 11,30 30,11 Z"/>
 <path style="fill:#e6df15;fill-rule:evenodd;stroke:#000000;stroke-width:0;;" d="M 11,30 30,11 30,16 16,30 Z"/>
 <path style="fill:#66dd23;fill-rule:evenodd;stroke:#000000;stroke-width:0;;" d="m 16,30 5,0 9,-9 0,-5 z"/>
 <path style="fill:#24f0ff;fill-rule:evenodd;stroke:#000000;stroke-width:0;;" d="m 21,30 5,0 4,-4 0,-5 z"/>
 <g aria-label="ZX" style="font-size:22.84363556px;line-height:14.27727222px;letter-spacing:0px;word-spacing:0px;fill:#ffffff;stroke-width:0.57109088px;" transform="matrix(0.57142857,0,0,0.625,-1.1064034,-1.4770675)">
  <path d="m 8.9362059,8.763308 14.0000001,0 0,2 -9,11 9,0 0,3 -14.0000001,0 0,-2 9.0000001,-11 -9.0000001,0 z" style="font-weight:bold;font-size:22.84363556px;fill:#ffffff;"/>
 </g>
 <path style="fill:#ffffff;fill-rule:evenodd;stroke-width:0.07319251;;" d="M 13,4 15.857142,8.9999998 13,14 15.285714,14 17,10.999512 18.714286,14 21,14 18.142858,8.9999998 21,4 18.714286,4 17,7.000488 15.285714,4 Z"/>
</svg>
