<svg xmlns="http://www.w3.org/2000/svg" height="32" width="32" version="1.1">
 <g transform="translate(.0789 .00041781758)">
  <path style="fill:#9f2642" d="m16 2c-0.605129-0.01416-1.20262 0.1327738-1.727 0.4247l-9.7023 5.4084c-1.0201941 0.5686814-1.6486711 1.6196375-1.6487 2.757v10.817c0.000029 1.137363 0.628506 2.188319 1.6487 2.757l9.7026 5.4085c0.544645 0.303599 1.156762 0.445121 1.76431 0.424566 0.5305-0.01795 0.407916-0.732487 0.88349-0.997584l10-6c1.02063-0.568786 1.000279 0.13778 1-1v-10c-0.000034-0.42409 0.913758-2.2466432 0.75125-2.6261749-0.273345-0.6383841-0.759165-1.1847057-1.39905-1.5413071l-9.702-5.4084c-0.478555-0.2663801-1.018755-0.4124163-1.571-0.4247z"/>
  <path style="opacity:.1;fill:#ffffff" d="m16 1.9991a3.2974 3.1836 0 0 0 -1.726 0.4258l-9.7036 5.4082a3.2974 3.1836 0 0 0 -1.6484 2.758v1a3.2974 3.1836 0 0 1 1.6484 -2.758l9.7036-5.4082a3.2974 3.1836 0 0 1 1.726 -0.4258 3.2974 3.1836 0 0 1 1.57 0.4258l9.7031 5.4082a3.2974 3.1836 0 0 1 1.649 2.758v-1a3.2974 3.1836 0 0 0 -1.648 -2.758l-9.704-5.4082a3.2974 3.1836 0 0 0 -1.57 -0.4258z"/>
  <path style="opacity:.2" d="m2.922 21.4071v1a3.2974 3.1836 0 0 0 1.6484 2.7559l9.7031 5.4102a3.2974 3.1836 0 0 0 3.2969 0l9.7031-5.4102a3.2974 3.1836 0 0 0 1.648 -2.756v-1a3.2974 3.1836 0 0 1 -1.6484 2.7559l-9.7031 5.4102a3.2974 3.1836 0 0 1 -3.2969 0l-9.7036-5.411a3.2974 3.1836 0 0 1 -1.6484 -2.755z"/>
  <path style="fill:#d9cf3d" d="m3.2420125 9.2241916a3.2974 3.1836 0 0 0 -0.3203125 1.3652344v10.818359a3.2974 3.1836 0 0 0 1.6484375 2.755859l9.7031245 5.408204a3.2974 3.1836 0 0 0 1.648438 0.423828v-13.871094z"/>
  <path style="opacity:.2;fill:#ffffff" d="m3.2420125 9.2241916a3.2974 3.1836 0 0 0 -0.3203125 1.3652344v1a3.2974 3.1836 0 0 1 0.3203125 -1.365235l12.679688 6.900391v-1z"/>
  <path style="fill:#894c9b" d="m28.599434 9.2241916-12.677734 6.9003904v13.871094a3.2974 3.1836 0 0 0 1.648438 -0.423828l9.703124-5.408204a3.2974 3.1836 0 0 0 1.648438 -2.757812v-10.816406a3.2974 3.1836 0 0 0 -0.322266 -1.3652344z"/>
  <path style="opacity:.2;fill:#ffffff" d="m28.599434 9.2241916-12.677734 6.9003904v1l12.677734-6.900391a3.2974 3.1836 0 0 1 0.322266 1.365235v-1a3.2974 3.1836 0 0 0 -0.322266 -1.3652344z"/>
 </g>
</svg>
