<svg xmlns="http://www.w3.org/2000/svg" width="32" height="32" version="1">
 <rect width="10" height="8" x="19" y="20" ry=".667" style="opacity:0.2"/>
 <path style="opacity:0.2" d="M 4.375,3 C 3.61325,3 3,3.6244 3,4.4 V 29.6 C 3,30.3756 3.61325,31 4.375,31 H 7.1102296 23.625 C 24.38675,31 25,30.3756 25,29.6 V 4.4 C 25,3.6244 24.38675,3 23.625,3 H 13.98523 7.1102296 Z"/>
 <rect style="fill:#55b65a" width="10" height="8" x="17" y="5" ry=".667"/>
 <path style="fill:#ffffff;opacity:0.2" d="M 17.666016 5 C 17.296682 5 17 5.2966823 17 5.6660156 L 17 6.6660156 C 17 6.2966823 17.296682 6 17.666016 6 L 26.333984 6 C 26.703318 6 27 6.2966823 27 6.6660156 L 27 5.6660156 C 27 5.2966823 26.703318 5 26.333984 5 L 17.666016 5 z"/>
 <rect style="fill:#fec006" width="10" height="8" x="18" y="12" ry=".667"/>
 <rect style="fill:#fe6c06" width="10" height="8" x="19" y="19" ry=".667"/>
 <path style="fill:#ffffff;opacity:0.2" d="M 19.666016 19 C 19.296682 19 19 19.296682 19 19.666016 L 19 20.666016 C 19 20.296682 19.296682 20 19.666016 20 L 28.333984 20 C 28.703318 20 29 20.296682 29 20.666016 L 29 19.666016 C 29 19.296682 28.703318 19 28.333984 19 L 19.666016 19 z"/>
 <path style="fill:#ffffff;opacity:0.2" d="M 18.666016 12 C 18.296682 12 18 12.296682 18 12.666016 L 18 13.666016 C 18 13.296682 18.296682 13 18.666016 13 L 27.333984 13 C 27.703318 13 28 13.296682 28 13.666016 L 28 12.666016 C 28 12.296682 27.703318 12 27.333984 12 L 18.666016 12 z"/>
 <path d="M 4.375,2 C 3.61325,2 3,2.6244 3,3.4 V 28.6 C 3,29.3756 3.61325,30 4.375,30 H 7.1102296 23.625 C 24.38675,30 25,29.3756 25,28.6 V 3.4 C 25,2.6244 24.38675,2 23.625,2 H 13.98523 7.1102296 Z" style="fill:#3f89db"/>
 <path d="m 14,9.0002 c -4.4183,0 -8,3.5817 -8,8 0,4.4183 3.5817,8 8,8 h 5 c 0,0 0.9375,0 1,-1 0,-1 -1,-1 -1,-1 h -5 c -3.3137,0 -6,-2.6863 -6,-6 0,-3.3137 2.6863,-6 6,-6 3.3137,0 6,2.6863 6,6 v 1 c 0,0.55228 -0.44772,1 -1,1 -0.55228,0 -1,-0.44772 -1,-1 v -1 c 0,-2.2091 -1.7909,-4 -4,-4 -2.2091,0 -4,1.7909 -4,4 0,2.2091 1.7909,4 4,4 1.0462,0 1.9903,-0.4109 2.7031,-1.0684 0.57,0.677 1.411,1.068 2.297,1.068 1.6568,0 3,-1.3432 3,-3 v -1 c 0,-4.418 -3.582,-8 -8,-8 z m 0,6 c 1.1046,0 2,0.89543 2,2 0,1.10457 -0.89543,2 -2,2 -1.10457,0 -2,-0.89543 -2,-2 0,-1.10457 0.89543,-2 2,-2 z" style="opacity:0.2"/>
 <path style="fill:#ffffff" d="m 14,8.0002 c -4.4183,0 -8,3.5817 -8,8 0,4.4183 3.5817,8 8,8 h 5 c 0,0 0.9375,0 1,-1 0,-1 -1,-1 -1,-1 h -5 c -3.3137,0 -6,-2.6863 -6,-6 0,-3.3137 2.6863,-6 6,-6 3.3137,0 6,2.6863 6,6 v 1 c 0,0.55228 -0.44772,1 -1,1 -0.55228,0 -1,-0.44772 -1,-1 v -1 c 0,-2.2091 -1.7909,-4 -4,-4 -2.2091,0 -4,1.7909 -4,4 0,2.2091 1.7909,4 4,4 1.0462,0 1.9903,-0.4109 2.7031,-1.0684 0.57,0.677 1.411,1.068 2.297,1.068 1.6568,0 3,-1.3432 3,-3 v -1 c 0,-4.418 -3.582,-8 -8,-8 z m 0,6 c 1.1046,0 2,0.89543 2,2 0,1.10457 -0.89543,2 -2,2 -1.10457,0 -2,-0.89543 -2,-2 0,-1.10457 0.89543,-2 2,-2 z"/>
 <path style="fill:#ffffff;opacity:0.2" d="M 4.375 2 C 3.61325 2 3 2.6247906 3 3.4003906 L 3 4.4003906 C 3 3.6247906 3.61325 3 4.375 3 L 7.109375 3 L 13.984375 3 L 23.625 3 C 24.38675 3 25 3.6247906 25 4.4003906 L 25 3.4003906 C 25 2.6247906 24.38675 2 23.625 2 L 13.984375 2 L 7.109375 2 L 4.375 2 z"/>
</svg>
