<svg width="32" height="32" version="1" xmlns="http://www.w3.org/2000/svg">
 <path d="m14 30c-5 0-9-2-10-5v-10l-2-3.016219 2-2.983781 3 1 2-2v-3l4-1 2 3h2l2-3 4 1v3l2 2 3-1 2 3-2 3v10c-1 3-5 5-10 5z" style="opacity:.2"/>
 <path d="m14 29c-5 0-9-2-10-5v-10l-2-3.016219 2-2.983781 3 1 2-2v-3l4-1 2 3h2l2-3 4 1v3l2 2 3-1 2 3-2 3v10c-1 3-5 5-10 5z" style="fill:#3888c3"/>
 <path d="m28 22.5h-4.5v3.00035h-5v-2.00035h-2.5m-12-1h4.5l1e-7 3.00035h4.9999999v-2.00035h2.5" style="fill:none;opacity:.2;stroke-linejoin:round;stroke:#000000"/>
 <path d="m28 21.5h-4.5v3.00035h-5v-2.00035h-2.5m-12-1h4.5l1e-7 3.00035h4.9999999v-2.00035h2.5" style="fill:none;stroke-linejoin:round;stroke:#ffffff"/>
 <circle cx="10" cy="16" r="3" style="fill:#ffffff"/>
 <circle cx="10" cy="16" r="2" style="fill:#353535"/>
 <path d="m16 16v2" style="fill:none;stroke-linecap:round;stroke-width:2;stroke:#ffffff"/>
 <circle cx="22" cy="16" r="3" style="fill:#ffffff"/>
 <circle cx="22" cy="16" r="2" style="fill:#353535"/>
 <path d="m13 3-4 1v1l4-1 2 3h2l2-3 4 1v-1l-4-1-2 3h-2l-2-3zm-4 4-2 2-3-1-2 2.984375 0.3339844 0.501953 1.6660156-2.486328 3 1 2-2v-1zm14 0v1l2 2 3-1 1.666016 2.5 0.333984-0.5-2-3-3 1-2-2z" style="fill:#ffffff;opacity:.2"/>
</svg>
