<svg xmlns="http://www.w3.org/2000/svg" width="32" height="32" version="1">
 <path style="opacity:0.2" d="m 22.435211,10.892955 c 0,2.706195 -1.698839,5.394965 -4.405033,5.394966 -0.706985,-0.0019 -1.393108,-0.144646 -2.0346,-0.441828 L 7.1416706,25.000039 6.9915073,24.98796 4,25 4.0134283,22.52347 3.9865717,22.358529 5.7068337,20.851103 6.0431662,20.471029 6,18 8.144145,18.01419 9,17 v -2 h 2 l 2.180767,-1.96872 c -0.29718,-0.641492 -0.543672,-1.431342 -0.545552,-2.138325 0,-2.7061957 2.193804,-4.9000003 4.899999,-4.9000003 1.281638,4.575e-4 -2.374269,2.7518059 -1.458814,3.6487651 v 0 l 1.153213,0.4815542 c 0.895642,0.914097 5.203716,-0.5100625 5.205602,0.769681 z m -5.322895,0.746256 c 0,-1.159798 1.425858,-2.3434576 0.266057,-2.3434557 -1.159797,0 -0.543162,-0.962599 -0.543162,0.1971986 -1e-6,1.1597991 0.940202,2.1000011 2.1,2.1000001 1.159798,0 -1.822894,1.206055 -1.822894,0.04626 z"/>
 <path style="opacity:0.2" d="M 23.051111,8.7261358 C 24.96468,10.639705 25.664667,13.742213 23.751099,15.655782 23.249849,16.154359 22.663743,16.538578 22,16.782043 V 29.303358 L 21.885277,29.400998 20,31 18.116893,29.400999 17.981271,29.303358 v -1.424433 l -0.03093,-0.506576 -1.459042,-1.80705 1.489978,-1.698377 v -1.413384 l -1.472577,-1.820585 1.472577,-1.305878 0.03798,-2.545032 c -0.663742,-0.243465 -1.396546,-0.627677 -1.897788,-1.126261 -1.913569,-1.913569 -1.913569,-5.016077 0,-6.9296462 0.906578,-0.9059309 0.266959,3.6246822 1.548529,3.6116042 v 0 l 1.155955,-0.474935 c 1.279679,0.01305 3.318914,-4.0402509 4.225163,-3.1366692 z m -3.236172,4.2915382 c -0.820101,-0.820101 -0.648841,-2.665309 -1.468943,-1.845204 -0.8201,0.8201 -1.064734,-0.296587 -0.244633,0.523514 0.820101,0.820102 2.149748,0.820102 2.969849,0 0.8201,-0.820101 -0.436172,2.141791 -1.256273,1.32169 z"/>
 <path style="fill:#e4e4e4" d="m 23.051111,7.7261358 c 1.913569,1.913569 2.613556,5.0160772 0.699988,6.9296462 C 23.249849,15.154359 22.663743,15.538578 22,15.782043 V 28.303358 L 21.885277,28.400998 20,30 18.116893,28.400999 17.981271,28.303358 v -1.424433 l -0.03093,-0.506576 -1.459042,-1.80705 1.489978,-1.698377 v -1.413384 l -1.472577,-1.820585 1.472577,-1.305878 0.03798,-2.545032 c -0.663742,-0.243465 -1.396546,-0.627677 -1.897788,-1.126261 -1.913569,-1.913569 -1.913569,-5.0160772 0,-6.9296462 0.906578,-0.9059309 0.266959,3.6246822 1.548529,3.6116042 v 0 l 1.155955,-0.474935 c 1.279679,0.01305 3.318914,-4.0402509 4.225163,-3.1366692 z m -3.236172,4.2915382 c -0.820101,-0.820101 -0.648841,-2.6653087 -1.468943,-1.845204 -0.8201,0.8201 -1.064734,-0.2965866 -0.244633,0.523514 0.820101,0.820102 2.149748,0.820102 2.969849,0 0.8201,-0.8201006 -0.436172,2.141791 -1.256273,1.32169 z"/>
 <path style="opacity:0.2" d="M 16 14 L 16 14.521484 C 16.041216 14.56583 16.077931 14.613087 16.121094 14.65625 C 16.622336 15.154834 17.355789 15.537785 18.019531 15.78125 L 17.980469 18.326172 L 16.507812 19.632812 L 17.980469 21.453125 L 17.980469 22.867188 L 16.492188 24.564453 L 17.951172 26.373047 L 17.980469 26.878906 L 17.980469 28.302734 L 18.117188 28.400391 L 20 30 L 20 14 L 16 14 z"/>
 <path style="opacity:0.2" d="m 20,6 c -1.53565,0 -3.070527,0.5861951 -4.242188,1.7578125 -2.343323,2.3432345 -2.343323,6.1411395 0,8.4843755 2.343323,2.343234 6.141052,2.343234 8.484376,0 2.343322,-2.343236 2.343322,-6.141141 0,-8.4843755 C 23.070526,6.5861951 21.53565,6 20,6 Z m 0,1.5 c 0.383911,0 0.76763,0.1465481 1.060547,0.4394531 0.58583,0.5858091 0.58583,1.5352847 0,2.1210939 -0.585832,0.585809 -1.535263,0.585809 -2.121094,0 -0.58583,-0.5858092 -0.58583,-1.5352848 0,-2.1210939 C 19.23237,7.6465481 19.616088,7.5 20,7.5 Z"/>
 <path style="fill:#379dc7" d="m 20,5 c -1.53565,0 -3.070527,0.5861951 -4.242188,1.7578125 -2.343323,2.3432345 -2.343323,6.1411395 0,8.4843755 2.343323,2.343234 6.141052,2.343234 8.484376,0 2.343322,-2.343236 2.343322,-6.141141 0,-8.4843755 C 23.070526,5.5861951 21.53565,5 20,5 Z m 0,1.5 c 0.383911,0 0.76763,0.1465481 1.060547,0.4394531 0.58583,0.5858091 0.58583,1.5352847 0,2.1210938 -0.585832,0.5858086 -1.535263,0.5858086 -2.121094,0 -0.58583,-0.5858091 -0.58583,-1.5352847 0,-2.1210938 C 19.23237,6.6465481 19.616088,6.5 20,6.5 Z"/>
 <path style="opacity:0.1;fill:#ffffff" d="M 20 5 C 18.46435 5 16.929474 5.5861951 15.757812 6.7578125 C 14.458628 8.0569482 13.882035 9.8023919 14.023438 11.5 C 14.137081 10.135654 14.713674 8.8019111 15.757812 7.7578125 C 16.929474 6.5861951 18.46435 6 20 6 C 21.53565 6 23.070526 6.5861951 24.242188 7.7578125 C 25.286325 8.8019111 25.862919 10.135654 25.976562 11.5 C 26.117965 9.8023919 25.541372 8.0569482 24.242188 6.7578125 C 23.070526 5.5861951 21.53565 5 20 5 z M 18.589844 8.5 C 18.403061 9.0278981 18.517022 9.6381313 18.939453 10.060547 C 19.525284 10.646356 20.474715 10.646356 21.060547 10.060547 C 21.482978 9.6381313 21.596939 9.0278981 21.410156 8.5 C 21.33792 8.7043487 21.224056 8.8970437 21.060547 9.0605469 C 20.474715 9.6463555 19.525284 9.6463555 18.939453 9.0605469 C 18.775944 8.8970437 18.66208 8.7043487 18.589844 8.5 z"/>
 <path style="fill:#e4e4e4" d="m 22.435211,9.8929545 c 0,2.7061955 -1.698839,5.3949655 -4.405033,5.3949665 -0.706985,-0.0019 -1.393108,-0.144646 -2.0346,-0.441828 L 7.1416706,24.000039 6.9915073,23.98796 4,24 4.0134283,21.52347 3.9865717,21.358529 5.7068337,19.851103 6.0431662,19.471029 6,17 8.144145,17.01419 9,16 v -2 h 2 l 2.180767,-1.96872 c -0.29718,-0.641492 -0.543672,-1.431342 -0.545552,-2.1383255 0,-2.7061952 2.193804,-4.8999998 4.899999,-4.8999998 1.281638,4.575e-4 -2.374269,2.7518059 -1.458814,3.6487651 v 0 l 1.153213,0.4815539 c 0.895642,0.9140973 5.203716,-0.5100622 5.205602,0.7696814 z m -5.322895,0.7462565 c 0,-1.1597978 1.425858,-2.3434576 0.266057,-2.3434557 -1.159797,0 -0.543162,-0.962599 -0.543162,0.1971986 -1e-6,1.1597987 0.940202,2.1000011 2.1,2.1000001 1.159798,0 -1.822894,1.206055 -1.822894,0.04626 z"/>
 <path style="opacity:0.2" d="M 17.535156 4.9921875 C 17.469749 4.9921875 17.406582 4.9994138 17.341797 5.0019531 L 12.644531 9.6992188 C 12.641992 9.764004 12.634766 9.8271705 12.634766 9.8925781 C 12.636646 10.599562 12.884461 11.389758 13.181641 12.03125 L 11 14 L 9 14 L 9 16 L 8.1445312 17.013672 L 6 17 L 6.0429688 19.470703 L 5.7070312 19.851562 L 3.9863281 21.359375 L 4.0136719 21.523438 L 4 24 L 18.552734 9.4472656 C 18.157601 9.4436465 17.807726 9.4071377 17.546875 9.3085938 C 17.464999 9.4701627 17.383953 9.6249081 17.308594 9.8066406 C 17.116386 9.5688457 16.972407 9.29124 16.898438 8.984375 L 16.076172 8.6425781 C 15.160717 7.7456189 18.816794 4.992645 17.535156 4.9921875 z M 16.898438 8.984375 L 17.230469 9.1230469 C 17.309124 9.2033231 17.420811 9.2609695 17.546875 9.3085938 C 17.840137 8.7298916 18.065185 8.2949208 17.378906 8.2949219 C 17.094325 8.2949219 16.918526 8.2383045 16.8125 8.1679688 C 16.825976 8.2511376 16.835938 8.3539032 16.835938 8.4921875 C 16.835937 8.6622989 16.860258 8.8259858 16.898438 8.984375 z M 16.8125 8.1679688 C 16.740685 7.7247529 16.537942 7.9858323 16.8125 8.1679688 z"/>
 <path style="opacity:0.2" d="M 22.243093,6.7569057 C 21.157109,5.6709212 19.657124,5.0000302 17.999999,4.9999994 14.68575,4.9999368 11.999939,7.6857479 12,11 c 6.3e-5,3.314249 2.68575,5.999936 5.999999,6 C 21.31425,17.00006 24.000062,14.314249 24,11 23.999968,9.342874 23.329078,7.8428902 22.243093,6.7569057 Z M 21.18232,7.8176791 c 0.271495,0.2714951 0.439218,0.6464905 0.439227,1.0607734 1.4e-5,0.8285625 -0.671438,1.5000145 -1.5,1.5000005 -0.828563,-1.7e-5 -1.499984,-0.6714378 -1.499999,-1.5000006 -1.6e-5,-0.8285623 0.671437,-1.5000147 1.499999,-1.4999999 0.414283,8.5e-6 0.789278,0.1677308 1.060773,0.4392266 z"/>
 <path style="fill:#ffbb30" d="M 22.243093,5.7569057 C 21.157109,4.6709212 19.657124,4.0000302 17.999999,3.9999994 14.68575,3.9999368 11.999939,6.6857479 12,10 c 6.3e-5,3.314249 2.68575,5.999936 5.999999,6 C 21.31425,16.00006 24.000062,13.314249 24,10 23.999968,8.342874 23.329078,6.8428902 22.243093,5.7569057 Z M 21.18232,6.8176791 c 0.271495,0.2714951 0.439218,0.6464905 0.439227,1.0607734 1.4e-5,0.8285625 -0.671438,1.5000148 -1.5,1.5000001 -0.828563,-1.67e-5 -1.499984,-0.6714374 -1.499999,-1.5000002 -1.6e-5,-0.8285623 0.671437,-1.5000147 1.499999,-1.4999999 0.414283,8.5e-6 0.789278,0.1677308 1.060773,0.4392266 z"/>
 <path style="opacity:0.2;fill:#ffffff" d="M 18 4 C 14.685751 3.9999374 11.999939 6.6857479 12 10 C 12.000003 10.168877 12.011714 10.334659 12.025391 10.5 C 12.280033 7.4204767 14.854628 4.9999406 18 5 C 19.657125 5.0000308 21.156204 5.671828 22.242188 6.7578125 C 23.2175 7.7331244 23.854167 9.0429124 23.974609 10.5 C 23.988281 10.334658 24.000003 10.168877 24 10 C 23.999968 8.342874 23.328173 6.843797 22.242188 5.7578125 C 21.156204 4.671828 19.657125 4.0000308 18 4 z M 18.714844 8.3789062 C 18.659 8.5360273 18.62109 8.7026033 18.621094 8.8789062 C 18.621109 9.7074691 19.292531 10.378889 20.121094 10.378906 C 20.949656 10.378921 21.621108 9.7074688 21.621094 8.8789062 C 21.62109 8.7026026 21.58512 8.5360307 21.529297 8.3789062 C 21.322692 8.9601993 20.773353 9.3789178 20.121094 9.3789062 C 19.468834 9.3788931 18.921455 8.9601922 18.714844 8.3789062 z"/>
 <path style="opacity:0.2" d="M 23.5 3 C 21.450319 3 19.721074 4.3696242 19.177734 6.2441406 C 19.139089 6.3774674 19.232756 6.5142278 19.355469 6.6523438 C 19.559365 6.5548997 19.778596 6.5 20 6.5 C 20.383911 6.5 20.76763 6.6465481 21.060547 6.9394531 C 21.062908 6.9418143 21.064064 6.9448927 21.066406 6.9472656 C 21.318685 5.8334652 22.309893 5 23.5 5 C 24.880712 5 26 6.1192881 26 7.5 C 25.9987 8.1381615 26.138229 8.5368347 25.699219 9 C 25.875898 9.336748 25.912522 9.7443361 25.919922 10.158203 C 25.971312 10.52168 25.989955 10.885806 25.974609 11.251953 C 27.236383 10.420641 27.998556 9.0123221 28 7.5 C 28 5.0147186 25.985281 3 23.5 3 z"/>
 <path style="fill:#e4e4e4" d="M 23.5 2 A 4.5 4.5 0 0 0 19 6.5 A 4.5 4.5 0 0 0 20.035156 9.3691406 C 20.064281 9.3708567 20.091518 9.3789057 20.121094 9.3789062 C 20.503347 9.3789131 20.848412 9.2314108 21.113281 8.9960938 C 21.376682 8.7015772 21.484967 8.3301584 21.474609 7.9609375 A 2.5 2.5 0 0 1 21 6.5 A 2.5 2.5 0 0 1 23.5 4 A 2.5 2.5 0 0 1 26 6.5 A 2.5 2.5 0 0 1 25.314453 8.2148438 C 25.654436 8.8628457 25.864496 9.5599539 25.951172 10.269531 A 4.5 4.5 0 0 0 28 6.5 A 4.5 4.5 0 0 0 23.5 2 z"/>
 <path style="opacity:0.2;fill:#ffffff" d="M 23.5 2 A 4.5 4.5 0 0 0 19 6.5 A 4.5 4.5 0 0 0 19.033203 7.0117188 A 4.5 4.5 0 0 1 23.5 3 A 4.5 4.5 0 0 1 27.96875 7 A 4.5 4.5 0 0 0 28 6.5 A 4.5 4.5 0 0 0 23.5 2 z M 21.052734 6.9941406 A 2.5 2.5 0 0 0 21 7.5 A 2.5 2.5 0 0 0 21.310547 8.6992188 C 21.428003 8.4685979 21.481747 8.2153491 21.474609 7.9609375 A 2.5 2.5 0 0 1 21.052734 6.9941406 z M 25.947266 7.0058594 A 2.5 2.5 0 0 1 25.314453 8.2148438 C 25.423191 8.4220971 25.513332 8.6354613 25.595703 8.8515625 A 2.5 2.5 0 0 0 26 7.5 A 2.5 2.5 0 0 0 25.947266 7.0058594 z"/>
</svg>
