<svg xmlns="http://www.w3.org/2000/svg" width="32" height="32" version="1.1" viewBox="0 0 32 32">
 <path style="fill:#3476cc" d="M 12.902344,1.9589844 A 3.0003,3.0003 0 0 0 10.048828,4.4628906 L 6.0488281,26.462891 a 3.0003,3.0003 0 1 0 5.9023439,1.074218 l 4,-21.9999996 a 3.0003,3.0003 0 0 0 -3.048828,-3.578125 z"/>
 <path style="fill:#7cce44" d="m 22.902344,1.9589844 a 3.0003,3.0003 0 0 0 -2.853516,2.5039062 l -4,22.0000004 a 3.0003,3.0003 0 1 0 5.902344,1.074218 l 4,-21.9999996 a 3.0003,3.0003 0 0 0 -3.048828,-3.578125 z"/>
 <path style="opacity:0.2" d="M 2.0019531 20.492188 A 3.0003 3.0003 0 0 0 5 24 L 6.4960938 24 L 6.6777344 23 L 5 23 A 3.0003 3.0003 0 0 1 2.0019531 20.492188 z M 27.998047 20.507812 A 3.0003 3.0003 0 0 1 25 23 L 12.775391 23 L 12.59375 24 L 25 24 A 3.0003 3.0003 0 0 0 27.998047 20.507812 z"/>
 <path style="fill:#e4e4e4" d="m 7,8 a 3.0003,3.0003 0 1 0 0,6 h 20 a 3.0003,3.0003 0 1 0 0,-6 z"/>
 <path style="fill:#f56666" d="m 5,17 a 3.0003,3.0003 0 1 0 0,6 h 20 a 3.0003,3.0003 0 1 0 0,-6 z"/>
 <path style="fill:#7cce44" d="M 19.40625 8 L 18.314453 14 L 24.412109 14 L 25.503906 8 L 19.40625 8 z"/>
 <path style="fill:#3476cc" d="M 7.7695312 17 L 6.6777344 23 L 12.775391 23 L 13.867188 17 L 7.7695312 17 z"/>
 <path style="opacity:0.2" d="M 15.962891 5.4589844 A 3.0003 3.0003 0 0 1 15.951172 5.5371094 L 15.503906 8 L 15.685547 8 L 15.951172 6.5371094 A 3.0003 3.0003 0 0 0 15.962891 5.4589844 z M 14.412109 14 L 11.951172 27.537109 A 3.0003 3.0003 0 0 1 6.0332031 27.564453 A 3.0003 3.0003 0 1 0 11.951172 28.537109 L 14.59375 14 L 14.412109 14 z"/>
 <path style="opacity:0.2" d="M 25.962891 5.4589844 A 3.0003 3.0003 0 0 1 25.951172 5.5371094 L 23.867188 17 L 24.048828 17 L 25.951172 6.5371094 A 3.0003 3.0003 0 0 0 25.962891 5.4589844 z M 22.775391 23 L 21.951172 27.537109 A 3.0003 3.0003 0 0 1 16.033203 27.564453 A 3.0003 3.0003 0 1 0 21.951172 28.537109 L 22.957031 23 L 22.775391 23 z"/>
 <path style="opacity:0.2" d="M 4.0019531 11.492188 A 3.0003 3.0003 0 0 0 7 15 L 18.132812 15 L 18.314453 14 L 7 14 A 3.0003 3.0003 0 0 1 4.0019531 11.492188 z M 29.998047 11.507812 A 3.0003 3.0003 0 0 1 27 14 L 24.412109 14 L 24.230469 15 L 27 15 A 3.0003 3.0003 0 0 0 29.998047 11.507812 z"/>
 <path style="opacity:0.2;fill:#ffffff" d="M 12.902344 1.9589844 A 3.0003 3.0003 0 0 0 10.048828 4.4628906 L 9.40625 8 L 9.5878906 8 L 10.048828 5.4628906 A 3.0003 3.0003 0 0 1 12.902344 2.9589844 A 3.0003 3.0003 0 0 1 15.962891 5.4589844 A 3.0003 3.0003 0 0 0 12.902344 1.9589844 z M 8.3144531 14 L 6.0488281 26.462891 A 3.0003 3.0003 0 0 0 6.0332031 27.5625 A 3.0003 3.0003 0 0 1 6.0488281 27.462891 L 8.4960938 14 L 8.3144531 14 z"/>
 <path style="opacity:0.2;fill:#ffffff" d="M 22.902344 1.9589844 A 3.0003 3.0003 0 0 0 20.048828 4.4628906 L 17.769531 17 L 17.951172 17 L 20.048828 5.4628906 A 3.0003 3.0003 0 0 1 22.902344 2.9589844 A 3.0003 3.0003 0 0 1 25.962891 5.4589844 A 3.0003 3.0003 0 0 0 22.902344 1.9589844 z M 16.677734 23 L 16.048828 26.462891 A 3.0003 3.0003 0 0 0 16.033203 27.5625 A 3.0003 3.0003 0 0 1 16.048828 27.462891 L 16.859375 23 L 16.677734 23 z"/>
 <path style="opacity:0.2;fill:#ffffff" d="M 7 8 A 3.0003 3.0003 0 0 0 4.0019531 11.492188 A 3.0003 3.0003 0 0 1 7 9 L 19.224609 9 L 19.40625 8 L 7 8 z M 25.503906 8 L 25.322266 9 L 27 9 A 3.0003 3.0003 0 0 1 29.998047 11.505859 A 3.0003 3.0003 0 0 0 27 8 L 25.503906 8 z"/>
 <path style="opacity:0.2;fill:#ffffff" d="M 5 17 A 3.0003 3.0003 0 0 0 2.0019531 20.492188 A 3.0003 3.0003 0 0 1 5 18 L 7.5878906 18 L 7.7695312 17 L 5 17 z M 13.867188 17 L 13.685547 18 L 25 18 A 3.0003 3.0003 0 0 1 27.998047 20.505859 A 3.0003 3.0003 0 0 0 25 17 L 13.867188 17 z"/>
</svg>
