<svg xmlns="http://www.w3.org/2000/svg" width="32" height="32" version="1.1">
 <circle style="opacity:0.2" cx="16" cy="17" r="14"/>
 <circle style="fill:#8f2b00" cx="16" cy="16" r="14"/>
 <path style="fill:#fff;opacity:0.1" d="M 16,2 A 14,14 0 0 0 2,16 14,14 0 0 0 2.0215,16.586 14,14 0 0 1 16,3 14,14 0 0 1 29.979,16.414 14,14 0 0 0 30,16 14,14 0 0 0 16,2 Z"/>
 <path style="opacity:0.2" d="M 17,8 14,11 V 15 L 8.7969,20.201 C 7.7215,21.31 7.7354,23.08 8.8281,24.172 9.9327,25.276 11.723,25.277 12.828,24.172 L 18,19 H 22 L 25,16 V 11 L 20,16 17,13 22,8 Z M 10.5,21 A 1.5,1.5 0 0 1 12,22.5 1.5,1.5 0 0 1 10.5,24 1.5,1.5 0 0 1 9,22.5 1.5,1.5 0 0 1 10.5,21 Z"/>
 <path style="fill:#ffd401" d="M 17 7 L 14 10 L 14 14 L 8.7969 19.201 C 7.7215 20.31 7.7354 22.08 8.8281 23.172 C 9.9327 24.276 11.723 24.277 12.828 23.172 L 18 18 L 22 18 L 25 15 L 25 10 L 20 15 L 17 12 L 22 7 L 17 7 z M 10.5 20 A 1.5 1.5 0 0 1 12 21.5 A 1.5 1.5 0 0 1 10.5 23 A 1.5 1.5 0 0 1 9 21.5 A 1.5 1.5 0 0 1 10.5 20 z"/>
</svg>
