<svg width="32" height="32" version="1" xmlns="http://www.w3.org/2000/svg">
 <path d="m12.999319 3c-1.010827 0-1.976005 2.118607-2.527187 3.5976562l-0.472627-0.5976561c-0.5999119-0.759933-0.3339114-1.0000001-1.9998763-1.0000001h-3.9997525c-1.6408304 0-1.9998762 1.6387109-1.9998762 2.388672v6.25c0-0.124258 2.0916676 14.583983 2.0916676 14.583983 0.3474285 1.945599 0.4701409 2.606255 2.0897146 2.777346h7.6655408c1.711166-3e-6 1.824903-0.180724 3.113088-0.984377l3.230269-2.015624h5.345372a1.4624095 1.3 0 0 0 1.462801-1.300782v-3.199218l1.999874-1.5c0.725103-0.543861 0.999941-1.472021 0.999941-2v-15c0.044168-1.255676-0.760173-1.975329-1.999878-2z" style="opacity:.2"/>
 <path transform="matrix(3.0105232,0,0,2.6760206,-5.7272742,-2.09091)" d="m7.8814454 7.8814454h2.9895136v2.5037176a0.48579597 0.48579597 135 0 1-0.485796 0.485796h-2.0561399a0.44757775 0.44757775 45 0 1-0.4475777-0.447578z" style="fill:#ff8c2a"/>
 <path d="M 2,6.9999998 C 2,5.7309717 2.911495,5 4,5 h 4 c 0.7453559,0 2.551448,0.4232903 2.999999,1.0000001 L 25,24 16.959983,29.015576 c -1.288265,0.803653 -1.400226,0.984421 -3.111498,0.984422 L 6.1818179,30 C 4.562145,29.828909 4.438361,29.167816 4.090909,27.22222 4.090909,27.22222 2,12.763148 2,12.638888 Z" style="fill:#fe4b71"/>
 <path d="M 4,5 C 2.911495,5 2,5.7309721 2,7.0000001 V 7.9999998 C 2,6.7309718 2.911495,6.0000001 4,6.0000001 h 4 c 0.7453559,0 2.551448,0.4232903 2.999999,1 L 24.476562,24.326172 25,24 10.999999,6.0000001 C 10.551448,5.4232903 8.7453559,5 8,5 Z" style="fill:#ffffff;opacity:.2"/>
 <path d="m10 6.9999998s1.446959-4.9999998 2.999815-4.9999998h14.999072c1.239705 0.02467 2.044041 0.744324 1.999876 2v15c0 0.527979-0.274837 1.456139-0.999938 2l-3.999752 3h-14.999073z" style="fill:#2086e7"/>
 <path d="M 12.999815,2 C 11.446959,2 10,7.0000001 10,7.0000001 V 7.9999998 C 10,7.9999998 11.446959,3 12.999815,3 h 14.999072 c 1.174624,0.02338 1.958389,0.670625 1.999876,1.8066408 V 4 C 30.042931,2.744324 29.238592,2.024671 27.998887,2 Z" style="fill:#ffffff;opacity:.2"/>
 <rect x="7" y="7" width="18" height="18" style="fill:#3f3f3f"/>
 <rect x="9" y="22" width="9" height="1.9999999" style="fill:#1a1a1a;opacity:.2"/>
 <rect x="9" y="21" width="9" height="1.9999999" style="fill:#ffffff"/>
 <path d="m17.999877 10h1.999876v6c0 1.935029-0.994381 2.999998-2.999815 3l-0.999938 1e-6v-2.000001h0.999938c0.507821 0 0.999939-0.455046 0.999939-0.999999z" style="fill:#1a1a1a;opacity:.2"/>
 <path d="m17.999877 8.9999999h1.999876v6.0000001c0 1.935029-0.994381 2.999998-2.999815 3h-0.999938v-2h0.999938c0.507821 0 0.999939-0.455046 0.999939-0.999999z" style="fill:#ffffff"/>
 <path d="m9 10h5.999629v2h-1.999876v5h1.999876v2h-5.999629v-2h1.999876l3e-6 -5h-1.966538z" style="fill:#1a1a1a;opacity:.2"/>
 <path d="m9 8.9999999h5.999629v2.0000001h-1.999876v5h1.999876v2h-5.999629v-2h1.999876l3e-6 -5h-1.966538z" style="fill:#ffffff"/>
</svg>
