<svg width="32" height="32" version="1.1" xmlns="http://www.w3.org/2000/svg">
 <rect x="2" y="3" width="28" height="28" rx="2" ry="2" style="opacity:.2"/>
 <rect x="2" y="2" width="28" height="28" rx="2" ry="2" style="fill:#4f4f4f"/>
 <g transform="matrix(0 .7 -.15 0 30.6 3.4)">
  <rect x="22" y="4" width="8" height="40" style="fill:#ce3535"/>
  <path d="M 0.85714286,4 H 6 V 44 H -2 L -1.99795,17.736918 C -1.997436,11.142857 -0.8585653,4 0.85714286,4 Z" style="fill:#4454ba"/>
  <path d="m 30,4 h 5.142857 C 36.900411,4 38,11.142857 38,18.285714 V 44 h -8 z" style="fill:#f14c21"/>
  <rect x="14" y="4" width="8" height="40" style="fill:#a52727"/>
  <rect x="6" y="4" width="8" height="40" style="fill:#8044ba"/>
 </g>
 <g transform="matrix(.80000005 0 0 .77777778 -3.2000007 -3.3333334)">
  <path d="m14 13.285714 2.5 1.285714v25.714286l11.874999-10.928571-0.625-0.642858v-14.142857l-2.5-1.285714zm8.749999 3.857143 1.250001 0.642857-1e-6 9-3.749999 3.214286v-12.857143z" style="opacity:.2"/>
  <path d="m14 12 2.5 1.285714v25.714286l11.874999-10.928571-0.625-0.642858v-14.142857l-2.5-1.285714zm8.749999 3.857143 1.250001 0.642857-1e-6 9-3.749999 3.214286v-12.857143z" style="fill:#e4e4e4"/>
 </g>
 <path d="m2 5v-1c0-1.2261632 1-2 2-2h24c1 0 2 0.7997497 2 2v1c0-1.2562008-0.999926-2-2-2h-24c-1 0-2 0.7838493-2 2z" style="fill:#ffffff;opacity:.2"/>
</svg>
