<svg xmlns="http://www.w3.org/2000/svg" width="32" height="32" version="1">
 <rect fill="#6b664c" width="28" height="22" x="-30" y="5" rx="1.4" ry="1.375" transform="scale(-1,1)"/>
 <path opacity=".2" d="m2 25.625v1c0 0.762 0.6248 1.375 1.4004 1.375h25.2c0.775 0 1.4-0.613 1.4-1.375v-1c0 0.762-0.625 1.375-1.4 1.375h-25.2c-0.7752 0-1.4-0.613-1.4-1.375z"/>
 <g fill="#fff" opacity=".8">
  <path d="m7 11h2.6352v3.6504l3.7988-3.65h3.059l-4.921 4.735 5.428 5.265h-3.299l-4.0658-3.938v3.938h-2.6352v-10z"/>
  <path d="m26 20.096q-1.008 0.452-2.094 0.678-1.085 0.226-2.241 0.226-2.612 0-4.138-1.343-1.527-1.349-1.527-3.654 0-2.33 1.555-3.667 1.554-1.336 4.257-1.336 1.0434 0 1.9958 0.18076 0.95938 0.18076 1.8067 0.53583v1.9948q-0.87535-0.45836-1.7437-0.68431-0.86134-0.22595-1.7297-0.22595-1.6106 0-2.486 0.8328-0.86835 0.82634-0.86835 2.3693 0 1.53 0.84034 2.3628t2.388 0.8328q0.42017 0 0.77731-0.0452 0.36415-0.05165 0.65126-0.15494v-1.8722h-1.6457v-1.6656h4.2017v4.6352z"/>
 </g>
 <path fill="#fff" opacity=".1" d="m3.4004 5c-0.7756 0-1.4004 0.6132-1.4004 1.375v1c0-0.7618 0.6248-1.375 1.4004-1.375h25.2c0.775 0 1.4 0.6132 1.4 1.375v-1c0-0.7618-0.625-1.375-1.4-1.375h-25.2z"/>
</svg>
