<svg xmlns="http://www.w3.org/2000/svg" width="32" height="32" version="1">
 <rect fill="#587de6" width="28" height="28" x="-30" y="-30" rx="14" ry="14" transform="matrix(0,-1,-1,0,0,0)"/>
 <g style="enable-background:new" transform="matrix(1.1667 0 0 1.1429 6.6667 6.8571)">
  <g transform="translate(-347,251)">
   <path opacity=".5" d="m355-250c-2.4 0-4.408 1.1693-4.2857 4.0833v2.0417h-0.71429c-0.554 0-1 0.4085-1 0.9625v5.9125c0 0.554 0.446 1 1 1h10c0.554 0 1-0.446 1-1v-5.9125c0-0.554-0.43805-0.9625-1-0.9625h-0.71429v-2.0417c0-2.91-1.89-4.08-4.29-4.08zm0 1.75c1.2 0 2.5714 0.42065 2.5714 2.3333v2.0417h-5.1429v-2.0417c0-1.8938 1.3714-2.3333 2.5714-2.3333z"/>
  </g>
 </g>
 <path fill="#fff" opacity=".2" d="m16 2c-7.756 0-14 6.244-14 14 0 0.169 0.0195 0.333 0.0254 0.5 0.2637-7.5206 6.3874-13.5 13.975-13.5 7.587 0 13.711 5.9794 13.975 13.5 0.005-0.167 0.025-0.331 0.025-0.5 0-7.756-6.244-14-14-14z"/>
 <path opacity=".2" d="m2.0254 16.5c-0.0059 0.167-0.0254 0.331-0.0254 0.5 0 7.756 6.244 14 14 14s14-6.244 14-14c0-0.16884-0.01952-0.33264-0.02539-0.5-0.264 7.521-6.388 13.5-13.975 13.5-7.5872 0-13.711-5.979-13.975-13.5z"/>
</svg>
