<svg xmlns="http://www.w3.org/2000/svg" width="32" height="32" version="1.1">
 <path style="opacity:0.2" d="M 6.3808594 3 C 5.6808594 3.7 6.3792969 4.4007813 6.0292969 5.8007812 C 5.7779156 6.8063062 5.3788375 8.1679354 5.1699219 9.3769531 L 3.5996094 8.1992188 A 1.0001 1.0001 0 0 0 2.9472656 7.9921875 A 1.0001 1.0001 0 0 0 2.4003906 9.8007812 L 3.9980469 11 L 2.9765625 11 C 2.4358417 11 2 11.435843 2 11.976562 L 2 12.023438 C 2 12.564154 2.4358417 13 2.9765625 13 L 3.9980469 13 L 2.4003906 14.199219 A 1.0003907 1.0003907 0 1 0 3.5996094 15.800781 L 5.9003906 14.076172 C 5.9336048 14.134006 5.9651907 14.193506 6 14.25 L 6 15.009766 A 2.1 2.0625 0 0 0 4.625 15.703125 A 2.8 4.46875 0 0 0 2 20.15625 A 2.8 4.46875 0 0 0 3.4042969 24.025391 A 2.1 2.0625 0 0 0 5.5 26 A 2.1 2.0625 0 0 0 6 25.9375 L 6 30 C 6 30.554 6.446 31 7 31 L 25 31 C 25.554 31 26 30.554 26 30 L 26 25.939453 A 2.1 2.0625 0 0 0 26.5 26 A 2.1 2.0625 0 0 0 28.595703 24.025391 A 2.8 4.46875 0 0 0 30 20.15625 A 2.8 4.46875 0 0 0 27.375 15.703125 A 2.1 2.0625 0 0 0 26 15.011719 L 26 14.298828 C 26.042435 14.231441 26.078998 14.15916 26.119141 14.089844 L 28.400391 15.800781 A 1.0003905 1.0003905 0 1 0 29.599609 14.199219 L 28.001953 13 L 29 13 C 29.554 13 30 12.554 30 12 C 30 11.446 29.554 11 29 11 L 28.001953 11 L 29.599609 9.8007812 A 1.0001 1.0001 0 0 0 29.023438 7.9921875 A 1.0001 1.0001 0 0 0 28.400391 8.1992188 L 26.855469 9.3574219 C 26.645597 8.1531313 26.250058 6.801014 26 5.8007812 C 25.65 4.4007812 26.350391 3.7 25.650391 3 C 23.900391 3 22.104151 4.2664426 19.962891 3.9492188 C 17.600391 3.5992188 16 3.5996094 16 3.5996094 C 16 3.5996094 14.600781 3.5992187 12.238281 3.9492188 C 10.097021 4.2664427 8.1308594 3 6.3808594 3 z"/>
 <path style="fill:#c16d35" d="m 6.38,2 c -0.7,0.7 0,1.4 -0.35,2.8 -0.35,1.4 -1,3.5 -1,4.9 0,7.7 10.97,8.3 10.97,8.3 0,0 10.99975,-0.6 10.99975,-8.3 0,-1.4 -0.65,-3.5 -1,-4.9 -0.35,-1.4 0.35,-2.1 -0.35,-2.8 -1.75,0 -3.54624,1.2672239 -5.6875,0.95 C 17.59975,2.6 16,2.6 16,2.6 c 0,0 -1.4,0 -3.7625,0.35 C 10.09624,3.2672239 8.13,2 6.38,2 Z"/>
 <path style="fill:#ffffff;opacity:0.1" d="M 6.3808594 2 C 5.9503508 2.4305086 6.0429235 2.8812652 6.1015625 3.4746094 C 6.1457429 3.3114176 6.2253435 3.1555159 6.3808594 3 C 8.1308594 3 10.097021 4.2664427 12.238281 3.9492188 C 14.600781 3.5992187 16 3.5996094 16 3.5996094 C 16 3.5996094 17.600391 3.5992188 19.962891 3.9492188 C 22.104151 4.2664426 23.900391 3 25.650391 3 C 25.805194 3.1548034 25.883371 3.310282 25.927734 3.4726562 C 25.986396 2.8802619 26.080454 2.4300634 25.650391 2 C 23.900391 2 22.104151 3.2664427 19.962891 2.9492188 C 17.600391 2.5992188 16 2.5996094 16 2.5996094 C 16 2.5996094 14.600781 2.5992187 12.238281 2.9492188 C 10.097021 3.2664426 8.1308594 2 6.3808594 2 z M 6.0976562 4.4179688 C 6.0812309 4.5410625 6.0631943 4.6651916 6.0292969 4.8007812 C 5.6792969 6.2007812 5.0292969 8.2992187 5.0292969 9.6992188 C 5.0292969 9.9311178 5.0392931 10.155803 5.0585938 10.375 C 5.1388624 8.9882278 5.7037856 7.1028264 6.0292969 5.8007812 C 6.1707838 5.2348335 6.1374952 4.8013757 6.0976562 4.4179688 z M 25.931641 4.4199219 C 25.891902 4.8029125 25.858751 5.2357865 26 5.8007812 C 26.325511 7.1028264 26.890434 8.9882278 26.970703 10.375 C 26.990056 10.155803 27 9.9311178 27 9.6992188 C 27 8.2992187 26.35 6.2007813 26 4.8007812 C 25.96627 4.6658621 25.94806 4.5424653 25.931641 4.4199219 z"/>
 <path style="fill:#6b3a3a" d="M 2.9472656 6.9921875 A 1.0001 1.0001 0 0 0 2.4003906 8.8007812 L 3.9980469 10 L 2.9765625 10 C 2.4358417 10 2 10.435842 2 10.976562 L 2 11.023438 C 2 11.564158 2.4358417 12 2.9765625 12 L 3.9980469 12 L 2.4003906 13.199219 A 1.0003907 1.0003907 0 1 0 3.5996094 14.800781 L 7.5996094 11.800781 A 1.0001 1.0001 0 0 0 7.5996094 10.199219 L 3.5996094 7.1992188 A 1.0001 1.0001 0 0 0 2.9472656 6.9921875 z M 29.023438 6.9921875 A 1.0001 1.0001 0 0 0 28.400391 7.1992188 L 24.400391 10.199219 A 1.0001 1.0001 0 0 0 24.400391 11.800781 L 28.400391 14.800781 A 1.0003905 1.0003905 0 1 0 29.599609 13.199219 L 28.001953 12 L 29 12 C 29.554 12 30 11.554 30 11 C 30 10.446 29.554 10 29 10 L 28.001953 10 L 29.599609 8.8007812 A 1.0001 1.0001 0 0 0 29.023438 6.9921875 z"/>
 <path style="opacity:0.2" d="m 11,6 a 3,3 0 0 0 -3,3 3,3 0 0 0 3,3 3,3 0 0 0 3,-3 3,3 0 0 0 -3,-3 z m 10,0 a 3,3 0 0 0 -3,3 3,3 0 0 0 3,3 3,3 0 0 0 3,-3 3,3 0 0 0 -3,-3 z"/>
 <path style="fill:#ffffff" d="M 11 5 A 3 3 0 0 0 8 8 A 3 3 0 0 0 11 11 A 3 3 0 0 0 14 8 A 3 3 0 0 0 11 5 z M 21 5 A 3 3 0 0 0 18 8 A 3 3 0 0 0 21 11 A 3 3 0 0 0 24 8 A 3 3 0 0 0 21 5 z"/>
 <path style="fill:#968427" d="M 11 7 A 1 2 0 0 0 10 9 A 1 2 0 0 0 11 11 A 1 2 0 0 0 12 9 A 1 2 0 0 0 11 7 z M 21 7 A 1 2 0 0 0 20 9 A 1 2 0 0 0 21 11 A 1 2 0 0 0 22 9 A 1 2 0 0 0 21 7 z"/>
 <rect style="fill:#4f4f4f" width="20" height="20" x="6" y="10" rx="1" ry="1"/>
 <path style="fill:#ffffff;opacity:0.1" d="M 7 10 C 6.446 10 6 10.446 6 11 L 6 12 C 6 11.446 6.446 11 7 11 L 25 11 C 25.554 11 26 11.446 26 12 L 26 11 C 26 10.446 25.554 10 25 10 L 7 10 z"/>
 <path style="opacity:0.2" d="M 6.1992188 15 A 2.1 2.0625 0 0 0 6 15.011719 L 6 25.9375 A 2.1 2.0625 0 0 0 7.5996094 23.9375 A 2.1 2.0625 0 0 0 7.1269531 22.634766 A 2.8 4.46875 0 0 0 7.1660156 22.542969 A 2.1 2.0625 0 0 0 9 20.5 A 2.1 2.0625 0 0 0 7.6328125 18.568359 A 2.1 2.0625 0 0 0 8.3007812 17.0625 A 2.1 2.0625 0 0 0 6.1992188 15 z M 25.800781 15 A 2.1 2.0625 0 0 0 23.699219 17.0625 A 2.1 2.0625 0 0 0 24.367188 18.568359 A 2.1 2.0625 0 0 0 23 20.5 A 2.1 2.0625 0 0 0 24.833984 22.542969 A 2.8 4.46875 0 0 0 24.873047 22.634766 A 2.1 2.0625 0 0 0 24.400391 23.9375 A 2.1 2.0625 0 0 0 26 25.939453 L 26 15.011719 A 2.1 2.0625 0 0 0 25.800781 15 z M 9.9902344 15.990234 A 1.0001 1.0001 0 0 0 9.2929688 17.707031 L 12.585938 21 L 9.2929688 24.292969 A 1.0001 1.0001 0 1 0 10.707031 25.707031 L 14.707031 21.707031 A 1.0001 1.0001 0 0 0 14.707031 20.292969 L 10.707031 16.292969 A 1.0001 1.0001 0 0 0 9.9902344 15.990234 z M 16 24 A 1.0001 1.0001 0 1 0 16 26 L 22 26 A 1.0001 1.0001 0 1 0 22 24 L 16 24 z"/>
 <path style="fill:#f2f2f2" d="M 9.9902344,14.990234 A 1.0001,1.0001 0 0 0 9.2929688,16.707031 L 12.585938,20 9.2929688,23.292969 a 1.0001,1.0001 0 1 0 1.4140622,1.414062 l 4,-4 a 1.0001,1.0001 0 0 0 0,-1.414062 l -4,-4 A 1.0001,1.0001 0 0 0 9.9902344,14.990234 Z"/>
 <path style="fill:#f2f2f2" d="m 16,23 a 1.0001,1.0001 0 1 0 0,2 h 6 a 1.0001,1.0001 0 1 0 0,-2 z"/>
 <path style="fill:#916f6f" d="m 25.8,14 a 2.1,2.0625 0 0 0 -2.1,2.0625 2.1,2.0625 0 0 0 0.667187,1.505249 A 2.1,2.0625 0 0 0 23,19.5 a 2.1,2.0625 0 0 0 1.834766,2.043701 2.8,4.46875 0 0 0 0.03828,0.09131 A 2.1,2.0625 0 0 0 24.4,22.9375 2.1,2.0625 0 0 0 26.5,25 2.1,2.0625 0 0 0 28.595899,23.024781 2.8,4.46875 0 0 0 30,19.15625 2.8,4.46875 0 0 0 27.375,14.702271 2.1,2.0625 0 0 0 25.8,14 Z"/>
 <path style="fill:#916f6f" d="M 6.2,14 A 2.1,2.0625 0 0 0 4.625,14.702271 2.8,4.46875 0 0 0 2,19.15625 2.8,4.46875 0 0 0 3.4041016,23.024781 2.1,2.0625 0 0 0 5.5,25 2.1,2.0625 0 0 0 7.5999997,22.9375 2.1,2.0625 0 0 0 7.1269533,21.63501 2.8,4.46875 0 0 0 7.1652342,21.543701 2.1,2.0625 0 0 0 9,19.5 2.1,2.0625 0 0 0 7.6328125,17.567749 2.1,2.0625 0 0 0 8.3,16.0625 2.1,2.0625 0 0 0 6.2,14 Z"/>
 <path style="opacity:0.1;fill:#ffffff" d="M 6.1992188 14 A 2.1 2.0625 0 0 0 4.625 14.703125 A 2.8 4.46875 0 0 0 2 19.15625 A 2.8 4.46875 0 0 0 2.0175781 19.652344 A 2.8 4.46875 0 0 1 4.625 15.703125 A 2.1 2.0625 0 0 1 6.1992188 15 A 2.1 2.0625 0 0 1 8.2363281 16.560547 A 2.1 2.0625 0 0 0 8.3007812 16.0625 A 2.1 2.0625 0 0 0 6.1992188 14 z M 25.800781 14 A 2.1 2.0625 0 0 0 23.699219 16.0625 A 2.1 2.0625 0 0 0 23.763672 16.558594 A 2.1 2.0625 0 0 1 25.800781 15 A 2.1 2.0625 0 0 1 27.375 15.703125 A 2.8 4.46875 0 0 1 29.978516 19.640625 A 2.8 4.46875 0 0 0 30 19.15625 A 2.8 4.46875 0 0 0 27.375 14.703125 A 2.1 2.0625 0 0 0 25.800781 14 z M 8.140625 17.839844 A 2.1 2.0625 0 0 1 7.6328125 18.568359 A 2.1 2.0625 0 0 1 8.9355469 20.001953 A 2.1 2.0625 0 0 0 9 19.5 A 2.1 2.0625 0 0 0 8.140625 17.839844 z M 23.855469 17.841797 A 2.1 2.0625 0 0 0 23 19.5 A 2.1 2.0625 0 0 0 23.066406 20 A 2.1 2.0625 0 0 1 24.367188 18.568359 A 2.1 2.0625 0 0 1 23.855469 17.841797 z M 24.460938 22.458984 A 2.1 2.0625 0 0 0 24.400391 22.9375 A 2.1 2.0625 0 0 0 24.464844 23.4375 A 2.1 2.0625 0 0 1 24.873047 22.634766 A 2.8 4.46875 0 0 1 24.833984 22.542969 A 2.1 2.0625 0 0 1 24.460938 22.458984 z M 7.5390625 22.460938 A 2.1 2.0625 0 0 1 7.1660156 22.542969 A 2.8 4.46875 0 0 1 7.1269531 22.634766 A 2.1 2.0625 0 0 1 7.5351562 23.439453 A 2.1 2.0625 0 0 0 7.5996094 22.9375 A 2.1 2.0625 0 0 0 7.5390625 22.460938 z"/>
</svg>
