<svg xmlns="http://www.w3.org/2000/svg" height="32" width="32" version="1.1">
 <rect style="opacity:.2" rx="2" ry="2" height="28" width="28" y="3" x="2"/>
 <rect style="fill:#e4e4e4" rx="2" ry="2" height="28" width="28" y="2" x="2"/>
 <path style="opacity:.1" d="m4 3c-1.108 0-2 0.892-2 2v24c0 0.554 0.2224844 1.054516 0.5839844 1.416016l26.832032-26.832032c-0.3615-0.3614996-0.862016-0.583984-1.416016-0.583984z"/>
 <path style="fill:#8a8eab" d="m4 2c-1.108 0-2 0.892-2 2v24c0 0.554 0.2224844 1.054516 0.5839844 1.416016l26.832032-26.832032c-0.3615-0.3614996-0.862016-0.583984-1.416016-0.583984h-24z"/>
 <path style="opacity:.2;fill:#ffffff" d="m4 2c-1.108 0-2 0.892-2 2v1c0-1.108 0.892-2 2-2h24c1.108 0 2 0.892 2 2v-1c0-1.108-0.892-2-2-2h-24z"/>
</svg>
