<?xml version="1.0" encoding="UTF-8" standalone="no"?>
<svg id="svg2817" xmlns:rdf="http://www.w3.org/1999/02/22-rdf-syntax-ns#" xmlns="http://www.w3.org/2000/svg" height="32" width="32" version="1.0" xmlns:cc="http://creativecommons.org/ns#" xmlns:dc="http://purl.org/dc/elements/1.1/">
    <metadata id="metadata57">
        <rdf:RDF>
            <cc:Work rdf:about="">
                <dc:format>
                    image/svg+xml
                </dc:format>
                <dc:type rdf:resource="http://purl.org/dc/dcmitype/StillImage"/>
                <dc:title/>
            </cc:Work>
        </rdf:RDF>
    </metadata>
    <path id="path4348" opacity=".2" d="m6.377 3.9996c-0.7628 0-1.377 0.5802-1.377 1.3004v23.4c0 0.72 0.6142 1.3 1.377 1.3h19.248c0.762 0 1.375-0.58 1.375-1.3v-23.4c0-0.7198-0.613-1.3-1.375-1.3h-19.248z"/>
    <path id="rect4203" d="m6.377 3c-0.7628 0-1.377 0.5802-1.377 1.3004v23.4c0 0.72 0.6142 1.3 1.377 1.3h19.248c0.762 0 1.375-0.58 1.375-1.3v-23.4c0-0.7198-0.613-1.3-1.375-1.3h-19.248z" fill="#ccc"/>
    <path id="path4922" opacity=".2" d="m6.377 3c-0.7628 0-1.377 0.5806-1.377 1.3008v1c0-0.7202 0.6142-1.3008 1.377-1.3008h19.248c0.762 0 1.375 0.5806 1.375 1.3008v-1c0-0.7202-0.613-1.3008-1.375-1.3008h-19.248z" fill="#fff"/>
    <path id="rect4351" opacity=".5" d="m6 7v1h8v-1h-8zm0 2v1h4v-1h-4zm0 2v1h5v-1h-5zm0 2v1h2v-1h-2zm0 2v1h5v-1h-5z"/>
</svg>
