<svg xmlns="http://www.w3.org/2000/svg" width="32" height="32" version="1.1" viewBox="0 0 32 32">
 <path fill="#c88937" d="m16 2a14 14 0 0 0 -14 14 14 14 0 0 0 14 14 14 14 0 0 0 14 -14 14 14 0 0 0 -14 -14z"/>
 <path fill="#ffffff" opacity=".2" d="m16 2a14 14 0 0 0 -14 14 14 14 0 0 0 0.0215 0.414 14 14 0 0 1 13.978 -13.414 14 14 0 0 1 13.979 13.586 14 14 0 0 0 0.021 -0.586 14 14 0 0 0 -14 -14z"/>
 <path opacity=".2" d="m2.0215 16.414a14 14 0 0 0 -0.0215 0.586 14 14 0 0 0 14 14 14 14 0 0 0 14 -14 14 14 0 0 0 -0.021 -0.414 14 14 0 0 1 -13.979 13.414 14 14 0 0 1 -13.978 -13.586z"/>
 <path style="opacity:0.2;fill-rule:evenodd" d="m 9,9 h 7 l -2,2 v 10.5 l 2,0.5 5,-0.5 3,-2.5 -1.5,6 H 9 l 2,-1.5 V 11 Z"/>
 <path style="fill:#ffffff;fill-rule:evenodd" d="m 9,8 h 7 l -2,2 v 10.5 l 2,0.5 5,-0.5 3,-2.5 -1.5,6 H 9 l 2,-1.5 V 10 Z"/>
</svg>
