<svg xmlns="http://www.w3.org/2000/svg" width="32" height="32" version="1">
 <rect fill="#f59335" width="28" height="28" x="2" y="2" rx="1.5" ry="1.5"/>
 <path fill="#fff" opacity=".1" d="m3.5 2c-0.831 0-1.5 0.669-1.5 1.5v1c0-0.831 0.669-1.5 1.5-1.5h25c0.831 0 1.5 0.669 1.5 1.5v-1c0-0.831-0.669-1.5-1.5-1.5h-25z"/>
 <path opacity=".2" d="m2 28.5v1c0 0.831 0.669 1.5 1.5 1.5h25c0.831 0 1.5-0.669 1.5-1.5v-1c0 0.831-0.669 1.5-1.5 1.5h-25c-0.831 0-1.5-0.669-1.5-1.5z"/>
 <path opacity=".2" d="m9.4004 9c-1.2188 0-2.426 0.9732-2.4004 2.182v9.818h-2v4h22v-4h-2v-9.8184c0-1.2091-1.182-2.182-2.4-2.182h-13.2zm1.0996 2h11c0.81253 0 1.5 0.8309 1.5 1.6367v7.2715c0 0.267 0.055 1.232-0.602 1.092h-12.796c-0.6572-0.037-0.602-0.825-0.602-1.092v-7.271c0-0.806 0.6875-1.637 1.5-1.637z"/>
 <path fill="#fff" d="m9.4004 8c-1.2188 0-2.426 0.9732-2.4004 2.182v9.818h-2v4h22v-4h-2v-9.8184c0-1.2091-1.182-2.182-2.4-2.182h-13.2zm1.0996 2h11c0.81253 0 1.5 0.8309 1.5 1.6367v7.2715c0 0.267 0.055 1.232-0.602 1.092h-12.796c-0.6572-0.037-0.602-0.825-0.602-1.092v-7.271c0-0.806 0.6875-1.637 1.5-1.637z"/>
</svg>
