<svg xmlns="http://www.w3.org/2000/svg" width="32" height="32" version="1">
 <rect style="opacity:0.2" width="21" height="16" x="-29" y="-24" rx="1.25" ry="1.25" transform="matrix(0,-1,-1,0,0,0)"/>
 <rect style="fill:#8e8e8e" width="21" height="16" x="-28" y="-24" rx="1.25" ry="1.25" transform="matrix(0,-1,-1,0,0,0)"/>
 <rect style="opacity:0.2" width="20" height="26" x="-26" y="-29" rx="1.25" ry="1.25" transform="matrix(0,-1,-1,0,0,0)"/>
 <rect style="fill:#4f4f4f" width="20" height="26" x="-25" y="-29" rx="1.25" ry="1.25" transform="matrix(0,-1,-1,0,0,0)"/>
 <path style="opacity:0.1;fill:#ffffff" d="M 4.25,5 C 3.5575,5 3,5.5575 3,6.25 V 7.25 C 3,6.5575 3.5575,6 4.25,6 H 27.75 C 28.442,6 29,6.5575 29,7.25 V 6.25 C 29,5.5575 28.442,5 27.75,5 Z"/>
 <rect style="opacity:0.1;fill:#ffffff" width="22" height="1" x="5" y="23"/>
 <rect style="fill:#1d83af" width="16" height="22" x="-23" y="-27" rx="0" ry="0" transform="matrix(0,-1,-1,0,0,0)"/>
 <path style="opacity:0.2" d="M 21.5,9 A 3.5,3.5 0 0 0 18,12.5 3.5,3.5 0 0 0 21.5,16 3.5,3.5 0 0 0 25,12.5 3.5,3.5 0 0 0 21.5,9 Z m -7,2 A 1.5,1.5 0 0 0 13,12.5 1.5,1.5 0 0 0 14.5,14 1.5,1.5 0 0 0 16,12.5 1.5,1.5 0 0 0 14.5,11 Z m -5,3 A 2.5,2.5 0 0 0 7,16.5 2.5,2.5 0 0 0 9.5,19 2.5,2.5 0 0 0 12,16.5 2.5,2.5 0 0 0 9.5,14 Z m 13.970703,4.470703 a 1,1 0 0 0 -1,1 1,1 0 0 0 1,1 1,1 0 0 0 1,-1 1,1 0 0 0 -1,-1 z M 18,19 a 2,2 0 0 0 -2,2 2,2 0 0 0 2,2 2,2 0 0 0 2,-2 2,2 0 0 0 -2,-2 z"/>
 <circle style="fill:#f0f9fd" cx="21.5" cy="11.5" r="3.5"/>
 <circle style="fill:#c4e7f5" cx="9.5" cy="15.5" r="2.5"/>
 <circle style="fill:#a6daf0" cx="18" cy="20" r="2"/>
 <circle style="fill:#c4e7f5" cx="14.5" cy="11.5" r="1.5"/>
 <circle style="fill:#d3edf8" cx="23.471" cy="18.471" r="1"/>
</svg>
