<svg xmlns="http://www.w3.org/2000/svg" width="32" height="32" version="1">
 <rect style="opacity:0.2" width="28" height="28" x="2" y="3" rx="1.4" ry="1.4"/>
 <rect style="fill:#f2385a" width="28" height="28" x="2" y="2" rx="1.4" ry="1.4"/>
 <path style="opacity:0.2" d="m 6,6 v 4 H 9 V 9.4863281 H 6.4609375 V 6 Z m 5,0 c 0.06647,0.6393162 0.206049,1.1502973 0.419922,1.5332031 0.196532,0.3521373 0.484668,0.68547 0.863281,1 V 10 h 0.433594 V 8.5332031 c 0.378613,-0.31453 0.666749,-0.6478627 0.863281,-1 C 13.793951,7.1502973 13.933525,6.6393162 14,6 H 13.5625 C 13.504696,6.523077 13.388256,6.9413296 13.214844,7.2558594 13.052994,7.5498763 12.815029,7.8285496 12.5,8.0917969 12.184972,7.8285496 11.947005,7.5498763 11.785156,7.2558594 11.611744,6.9413296 11.495303,6.523077 11.4375,6 Z m 6,0 v 4 h 0.447266 V 7.1855469 L 20,10 V 6 h -0.447266 v 2.8046875 z m 6,0 v 4 h 3 V 9.4863281 H 23.460938 V 8.0566406 h 1.845703 V 7.5429688 H 23.460938 V 6.5136719 H 26 V 6 Z m -16,6.5 -2,2 2,2 2,-2 z m 6,0 -2,2 2,2 2,-2 z m 6,0 -2,2 2,2 2,-2 z m 6,0 -2,2 2,2 2,-2 z m -18,6 -2,2 2,2 2,-2 z m 6,0 -2,2 2,2 2,-2 z m 6,0 -2,2 2,2 2,-2 z m 6,0 -2,2 2,2 2,-2 z m -18,6 -2,2 2,2 2,-2 z m 6,0 -2,2 2,2 2,-2 z m 6,0 -2,2 2,2 2,-2 z m 6,0 -2,2 2,2 2,-2 z"/>
 <path style="fill:#ffffff" d="M 6 5 L 6 9 L 9 9 L 9 8.4863281 L 6.4609375 8.4863281 L 6.4609375 5 L 6 5 z M 11 5 C 11.06647 5.6393162 11.206049 6.1502973 11.419922 6.5332031 C 11.616454 6.8853404 11.90459 7.2186731 12.283203 7.5332031 L 12.283203 9 L 12.716797 9 L 12.716797 7.5332031 C 13.09541 7.2186731 13.383546 6.8853404 13.580078 6.5332031 C 13.793951 6.1502973 13.933525 5.6393162 14 5 L 13.5625 5 C 13.504696 5.523077 13.388256 5.9413296 13.214844 6.2558594 C 13.052994 6.5498763 12.815029 6.8285496 12.5 7.0917969 C 12.184972 6.8285496 11.947005 6.5498763 11.785156 6.2558594 C 11.611744 5.9413296 11.495303 5.523077 11.4375 5 L 11 5 z M 17 5 L 17 9 L 17.447266 9 L 17.447266 6.1855469 L 20 9 L 20 5 L 19.552734 5 L 19.552734 7.8046875 L 17 5 z M 23 5 L 23 9 L 26 9 L 26 8.4863281 L 23.460938 8.4863281 L 23.460938 7.0566406 L 25.306641 7.0566406 L 25.306641 6.5429688 L 23.460938 6.5429688 L 23.460938 5.5136719 L 26 5.5136719 L 26 5 L 23 5 z M 7 11.5 L 5 13.5 L 7 15.5 L 9 13.5 L 7 11.5 z M 13 11.5 L 11 13.5 L 13 15.5 L 15 13.5 L 13 11.5 z M 19 11.5 L 17 13.5 L 19 15.5 L 21 13.5 L 19 11.5 z M 25 11.5 L 23 13.5 L 25 15.5 L 27 13.5 L 25 11.5 z M 7 17.5 L 5 19.5 L 7 21.5 L 9 19.5 L 7 17.5 z M 13 17.5 L 11 19.5 L 13 21.5 L 15 19.5 L 13 17.5 z M 19 17.5 L 17 19.5 L 19 21.5 L 21 19.5 L 19 17.5 z M 25 17.5 L 23 19.5 L 25 21.5 L 27 19.5 L 25 17.5 z M 7 23.5 L 5 25.5 L 7 27.5 L 9 25.5 L 7 23.5 z M 13 23.5 L 11 25.5 L 13 27.5 L 15 25.5 L 13 23.5 z M 19 23.5 L 17 25.5 L 19 27.5 L 21 25.5 L 19 23.5 z M 25 23.5 L 23 25.5 L 25 27.5 L 27 25.5 L 25 23.5 z"/>
 <path style="fill:#ffffff;opacity:0.2" d="M 3.4003906 2 C 2.6247906 2 2 2.6247906 2 3.4003906 L 2 4.4003906 C 2 3.6247906 2.6247906 3 3.4003906 3 L 28.599609 3 C 29.375209 3 30 3.6247906 30 4.4003906 L 30 3.4003906 C 30 2.6247906 29.375209 2 28.599609 2 L 3.4003906 2 z"/>
</svg>
