<?xml version="1.0" encoding="UTF-8" standalone="no"?>
<svg id="svg2817" xmlns:rdf="http://www.w3.org/1999/02/22-rdf-syntax-ns#" xmlns="http://www.w3.org/2000/svg" height="32" width="32" version="1.0" xmlns:cc="http://creativecommons.org/ns#" xmlns:dc="http://purl.org/dc/elements/1.1/">
 <metadata id="metadata57">
  <rdf:RDF>
   <cc:Work rdf:about="">
    <dc:format>image/svg+xml</dc:format>
    <dc:type rdf:resource="http://purl.org/dc/dcmitype/StillImage"/>
    <dc:title/>
   </cc:Work>
  </rdf:RDF>
 </metadata>
 <g id="layer4-0" transform="matrix(.90475 0 0 .90475 -716.75 -692.29)">
 </g>
 <g id="layer4-0-7" transform="matrix(.90475 0 0 .90475 -716.75 -685.05)">
 </g>
 <text id="text7276" font-size="12.666px" xml:space="preserve" y="-377.22546" x="435.90427" font-family="&apos;Droid Sans&apos;" fill="#000000"><tspan id="tspan7278" y="-377.22546" x="435.90427"/><tspan id="tspan7280" y="-361.3924" x="435.90427"/></text>
 <path id="rect4255-8" d="m27 28.5v-25c0-0.831-0.669-1.5-1.5-1.5h-19c-0.831 0-1.5 0.669-1.5 1.5v25c0 0.831 0.669 1.5 1.5 1.5h19c0.831 0 1.5-0.669 1.5-1.5z" fill="#ba9766"/>
 <path id="rect4208" opacity=".1" d="m6.5 2c-0.831 0-1.5 0.669-1.5 1.5v1c0-0.831 0.669-1.5 1.5-1.5h19c0.831 0 1.5 0.669 1.5 1.5v-1c0-0.831-0.669-1.5-1.5-1.5z" fill="#fff"/>
 <path id="rect4313" opacity=".2" d="m5 28.5v1c0 0.831 0.669 1.5 1.5 1.5h19c0.831 0 1.5-0.669 1.5-1.5v-1c0 0.831-0.669 1.5-1.5 1.5h-19c-0.831 0-1.5-0.669-1.5-1.5z"/>
 <path id="path4456" opacity=".5" d="m16.588 10.952-2.588 9.659 1.449 0.389 2.588-9.659-1.449-0.389zm1.912 0.048v2l2.5 2.5-2.5 2.5v2l5-4.5-5-4.5zm-5 1-5 4.5 5 4.5v-2l-2.5-2.5 2.5-2.5v-2z"/>
</svg>
