<!-- Created with Inkscape (http://www.inkscape.org/) -->
<svg width="32" height="32" version="1.1" viewBox="0 0 32 32" xmlns="http://www.w3.org/2000/svg">
 <path d="m16.086053 3.0007043c-0.903035-0.0147-1.808106 0.2006999-2.621987 0.6459986l-0.02366 0.01365c-0.04394 0.02415-0.08866 0.049613-0.132035 0.075163l-7.7999491 4.619405c-1.5572162 0.922194-2.5085759 2.5744131-2.5085759 4.3562291v8.575731c0 1.781221 0.9504409 3.432137 2.5068859 4.354515l0.1811235 0.107669c8.666e-4 6.04e-4 0.0026 8.75e-4 0.00347 0.0018l2.4137892 1.430432 5.2016554 3.083027c1.655296 0.980968 3.730793 0.980968 5.386167 0l7.799948-4.622835c1.517792-0.899496 2.457702-2.492504 2.503497-4.222922 4.59e-4 0.01138 0.0018 0.02275 0.0018 0.03421 8.58e-4 -0.05486 0.0017-0.1106 0.0017-0.165769v-8.577431c0-1.78179-0.951394-3.4340621-2.508576-4.3562301l-7.799985-4.619511c-0.801669-0.4747514-1.702026-0.7184403-2.60506-0.7331579zm-3.094249 0.941654c-0.03102 0.021525-0.06101 0.044538-0.09141 0.066675 0.0306-0.022225 0.06023-0.045063 0.09141-0.066675zm3.007921 7.9673317c0.931998 0 1.86404 0.243251 2.691388 0.733157l2.508576 1.48512v2.541277c0 1.781221-0.950467 3.432145-2.506877 4.354514l-2.693087 1.596202-2.69308-1.594495c-1.556419-0.922369-2.506886-2.573285-2.506886-4.354515v-2.541277l2.508576-1.486826c0.827315-0.489906 1.759391-0.733157 2.69139-0.733157z" style="opacity:.2"/>
 <path d="m13.454774 2.6523572-0.146121 0.086537c-0.232448 0.1377164-0.451186 0.2914189-0.655416 0.4594977l0.421277-0.2900976h3.575443l0.650017 4.8186337-3.250009 3.181885-3.250034 2.211641v2.550276c0 1.781219 0.950916 3.43293 2.507345 4.355295l3.421418 2.02754-7.2287459 4.128373h-1.3941807l-2.5984661-1.539957c-1.5564553-0.922372-2.5073013-2.574075-2.5073013-4.355286v-8.575699c0-1.7818065 0.95147-3.4339464 2.5087053-4.3561351l7.8000267-4.6191337c0.04836-0.028525 0.09698-0.056526 0.146119-0.083213z" style="fill:#1e73c7"/>
 <path d="m16 21.619141-0.866024-0.5-5.3144452 3.144757-0.0017-9.9e-4 -9.9e-4 0.0017c-1.3808672 0.776382-3.0145705 0.869755-4.4350453 0.283326 0.1341259 0.103961 0.2743358 0.201758 0.4199848 0.292097 1.5161438 0.809239 3.3531501 0.784281 4.8811017-0.07541z" style="opacity:.2"/>
 <path d="m21.200052 12.81788v2.851151c0 1.781221-0.950872 3.432932-2.507301 4.355295l-7.800052 4.622372c-1.5956289 0.945569-3.5809542 0.979685-5.2046629 0.102329l7.6192129 4.515245c1.655308 0.980971 3.73009 0.980971 5.385476 0l7.800026-4.622415c1.556412-0.92237 2.507249-2.574082 2.507249-4.355292v-2.059576l-0.650009-0.954537z" style="fill:#8762b5"/>
 <path d="m26.491372 7.3540733-7.800051-4.6191685c-1.60336-0.9494976-3.59997-0.9789238-5.227734-0.088323l-0.15496 0.091893c-1.557235 0.9221799-2.508696 2.5742936-2.508696 4.3561085v6.0353297l2.508696-1.485689c1.654632-0.979816 3.727985-0.979816 5.382694 0l7.800051 4.619134c1.508495 0.893401 2.448621 2.471744 2.505872 4.189387 8.67e-4 -0.05547 0.0026-0.110995 0.0026-0.16674v-8.575727c0-1.7817798-0.951487-3.433946-2.50868-4.3561084z" style="fill:#4aafe8"/>
 <path d="m21.199219 13.128906v1l5.291015 3.132813v2e-3h2e-3c1.3628 0.807695 2.26052 2.175833 2.46289 3.699219 0.02297-0.168137 0.03756-0.338461 0.04297-0.509766-0.05725-1.717639-0.997368-3.296054-2.505859-4.189453z" style="opacity:.1"/>
 <path d="m16.085938 2c-0.903035-0.0147-1.807215 0.2011862-2.621094 0.6464844l-0.025391 0.0136718c-0.04394 0.02415-0.087484 0.0506221-0.130859 0.0761719l-7.8007815 4.6191407c-1.5572128 0.922193-2.5078125 2.5736551-2.5078125 4.3554692v1c0-1.781815 0.9505997-3.4332762 2.5078125-4.3554692l7.8007815-4.6191407c0.043375-0.0255498 0.086919-0.0520219 0.130859-0.0761719l0.025391-0.0136718c0.813879-0.4452982 1.71806-0.6611844 2.621094-0.6464844 0.903031 0.014717 1.803801 0.259624 2.605468 0.734375l7.800782 4.6191406c1.557178 0.9221662 2.507812 2.5736814 2.507812 4.3554684v-1c0-1.7817862-0.950634-3.4333022-2.507812-4.3554684l-7.800782-4.6191406c-0.801667-0.474751-1.702436-0.719658-2.605468-0.734375zm5.113281 13.669922c0 0.211363-0.012897 0.420283-0.039063 0.626953 0.024084-0.189411 0.036938-0.380827 0.039063-0.574219v-0.052734zm-10.400391 0.001953v1c0 1.781226 0.951396 3.431149 2.507813 4.353516l1.849609 1.09375 0.84375-0.5-2.693359-1.59375c-1.556417-0.922367-2.507813-2.57229-2.507813-4.353516zm10.347656 0.710937c-0.025011 0.173241-0.05888 0.345252-0.101562 0.513672 0.042804-0.168477 0.076448-0.340391 0.101562-0.513672zm-0.148437 0.683594c-0.021187 0.072718-0.041987 0.145238-0.066406 0.216797 0.024532-0.071728 0.045121-0.143907 0.066406-0.216797zm-0.367188 0.916016c-0.063346 0.121568-0.133916 0.239279-0.207031 0.355469 0.073201-0.116234 0.143597-0.233855 0.207031-0.355469z" style="fill:#ffffff;opacity:.2"/>
</svg>
