<svg width="32" height="32" version="1.1" xmlns="http://www.w3.org/2000/svg">
 <path d="m12.5 3a4.5 4.5 0 0 0-4.5 4.5 4.5 4.5 0 0 0 4.5 4.5 4.5 4.5 0 0 0 4.5-4.5 4.5 4.5 0 0 0-4.5-4.5zm-6.5 10c-2.216 0-4 1.784-4 4v10c0 1.108 0.892 2 2 2h17c1.108 0 2-0.892 2-2v-10c0-2.216-1.784-4-4-4z" style="opacity:.2"/>
 <path d="m12.5 2a4.5 4.5 0 0 0-4.5 4.5 4.5 4.5 0 0 0 4.5 4.5 4.5 4.5 0 0 0 4.5-4.5 4.5 4.5 0 0 0-4.5-4.5zm-6.5 10c-2.216 0-4 1.784-4 4v10c0 1.108 0.892 2 2 2h17c1.108 0 2-0.892 2-2v-10c0-2.216-1.784-4-4-4z" style="fill:#008ecc"/>
 <path d="m12.5 2a4.5 4.5 0 0 0-4.5 4.5 4.5 4.5 0 0 0 0.0332031 0.5117188 4.5 4.5 0 0 1 4.4667969-4.0117188 4.5 4.5 0 0 1 4.466797 3.9882812 4.5 4.5 0 0 0 0.033203-0.4882812 4.5 4.5 0 0 0-4.5-4.5zm-6.5 10c-2.216 0-4 1.784-4 4v1c0-2.216 1.784-4 4-4h13c2.216 0 4 1.784 4 4v-1c0-2.216-1.784-4-4-4h-6.5-6.5z" style="fill:#ffffff;opacity:.2"/>
 <path d="m19.5 5a4.5 4.5 0 0 0-4.5 4.5 4.5 4.5 0 0 0 4.5 4.5 4.5 4.5 0 0 0 4.5-4.5 4.5 4.5 0 0 0-4.5-4.5zm-6.5 10c-2.216 0-4 1.784-4 4v10c0 1.108 0.892 2 2 2h17c1.108 0 2-0.892 2-2v-10c0-2.216-1.784-4-4-4z" style="opacity:.2"/>
 <path d="m19.5 4a4.5 4.5 0 0 0-4.5 4.5 4.5 4.5 0 0 0 4.5 4.5 4.5 4.5 0 0 0 4.5-4.5 4.5 4.5 0 0 0-4.5-4.5zm-6.5 10c-2.216 0-4 1.784-4 4v6 2 2c0 1.108 0.892 2 2 2h2 13 2c1.108 0 2-0.892 2-2v-2-2-6c0-2.216-1.784-4-4-4h-13z" style="fill:#00ac7d"/>
 <path d="m19.5 4a4.5 4.5 0 0 0-4.5 4.5 4.5 4.5 0 0 0 0.033203 0.5117188 4.5 4.5 0 0 1 4.466797-4.0117188 4.5 4.5 0 0 1 4.466797 3.9882812 4.5 4.5 0 0 0 0.033203-0.4882812 4.5 4.5 0 0 0-4.5-4.5zm-6.5 10c-2.216 0-4 1.784-4 4v1c0-2.216 1.784-4 4-4h13c2.216 0 4 1.784 4 4v-1c0-2.216-1.784-4-4-4h-6.5-6.5z" style="fill:#ffffff;opacity:.2"/>
 <g transform="translate(-17.423729,3.779661)" style="opacity:.2">
  <path d="m34.423729 14.220339-1 1 3.3418 4.1758-0.6367 0.707-0.7051-0.8828-5 6h14l-3-3-0.334 0.334-2.4785-3.0996 3.8125-4.2344-1-1-3.7051 4.1172zm3.2344 6.293 2.4316 3.041-0.666 0.666-2.4004-3z"/>
 </g>
 <g transform="translate(-17.423729,2.779661)">
  <path d="m34.423729 14.220339-1 1 3.3418 4.1758-0.6367 0.707-0.7051-0.8828-5 6h14l-3-3-0.334 0.334-2.4785-3.0996 3.8125-4.2344-1-1-3.7051 4.1172zm3.2344 6.293 2.4316 3.041-0.666 0.666-2.4004-3z" style="fill:#ffffff"/>
 </g>
</svg>
