<?xml version="1.0" encoding="UTF-8" standalone="no"?>
<svg xmlns="http://www.w3.org/2000/svg" height="32" width="32" version="1">
 <polygon fill="#5a0e00" display="none" points="304 332.5 299.5 366 318.5 403.5 338 431 309.5 462 275.5 507 300 533 304 551 318.5 569.5 340.5 583 351.5 604.5 373.5 617 395 637.5 452.5 723 488.5 788.5 502 812.5 551.5 721.5 612.5 637 628.5 616 668 619.5 707 615 713 603 688.5 578 676.5 569.5 693.5 560.5 693.5 540 732.5 497.5 664 430.5 588 333 517.5 214 500 192 386 355 328 328" transform="matrix(.063142 0 0 .063142 -131 -24.03)"/>
 <rect transform="matrix(0,-1,-1,0,0,0)" rx="1.5" ry="1.5" height="28" width="28" y="-30" x="-30" fill="#3e50b4"/>
 <path opacity=".1" fill="#fff" d="m3.5 2c-0.831 0-1.5 0.669-1.5 1.5v1c0-0.831 0.669-1.5 1.5-1.5h25c0.831 0 1.5 0.669 1.5 1.5v-1c0-0.831-0.669-1.5-1.5-1.5h-25z"/>
 <path opacity=".2" d="m2 28.5v1c0 0.831 0.669 1.5 1.5 1.5h25c0.831 0 1.5-0.669 1.5-1.5v-1c0 0.831-0.669 1.5-1.5 1.5h-25c-0.831 0-1.5-0.669-1.5-1.5z"/>
 <g opacity=".2" transform="translate(0 .49999)">
  <circle opacity="1" cy="9.5" cx="20.5" r="3.5"/>
  <path opacity="1" d="m20.5 15a3.5 3.4375 0 0 0 -3.5 3.4375 3.5 3.4375 0 0 0 0.0028 0.07653l-0.0028 0.0027v7.4833l7-0.000025v-7.5222l-0.0014-0.0026a3.5 3.4375 0 0 0 0.001 -0.037 3.5 3.4375 0 0 0 -3.5 -3.438z"/>
  <circle opacity="1" cy="9.5" cx="14" r="3"/>
  <path opacity="1" d="m14 14a3 3.125 0 0 0 -3 3.125 3 3.125 0 0 0 0.0023 0.06957l-0.002 0.002v6.803h6v-6.8384l-0.0012-0.0023a3 3.125 0 0 0 0.001 -0.034 3 3.125 0 0 0 -3 -3.125z"/>
  <circle opacity="1" cy="9.5" cx="9" r="2"/>
  <path opacity="1" d="m9 13a2 2.1875 0 0 0 -2 2.1875 2 2.1875 0 0 0 0.00153 0.0487l-0.0015 0.002v4.762h4v-4.7869l-0.0008-0.0017a2 2.1875 0 0 0 0.001 -0.023 2 2.1875 0 0 0 -2 -2.188z"/>
 </g>
 <g fill="#92aeff">
  <circle cy="9.5" cx="20.5" r="3.5"/>
  <path d="m20.5 15a3.5 3.4375 0 0 0 -3.5 3.4375 3.5 3.4375 0 0 0 0.0028 0.07653l-0.0028 0.0027v7.4833l7-0.000025v-7.5222l-0.0014-0.0026a3.5 3.4375 0 0 0 0.001 -0.037 3.5 3.4375 0 0 0 -3.5 -3.438z"/>
  <circle cy="9.5" cx="14" r="3"/>
  <path d="m14 14a3 3.125 0 0 0 -3 3.125 3 3.125 0 0 0 0.0023 0.06957l-0.002 0.002v6.803h6v-6.8384l-0.0012-0.0023a3 3.125 0 0 0 0.001 -0.034 3 3.125 0 0 0 -3 -3.125z"/>
  <circle cy="9.5" cx="9" r="2"/>
  <path d="m9 13a2 2.1875 0 0 0 -2 2.1875 2 2.1875 0 0 0 0.00153 0.0487l-0.0015 0.002v4.762h4v-4.7869l-0.0008-0.0017a2 2.1875 0 0 0 0.001 -0.023 2 2.1875 0 0 0 -2 -2.188z"/>
 </g>
</svg>
