<svg xmlns="http://www.w3.org/2000/svg" width="32" height="32" version="1.1">
 <rect style="opacity:0.2" width="28" height="28" x="2" y="3" rx="1.4" ry="1.4"/>
 <rect style="fill:#e4e4e4" width="28" height="28" x="2" y="2" rx="1.4" ry="1.4"/>
 <path style="opacity:0.1" d="m 14,6.000266 -8,4.587891 v 3.394531 1.666016 l 0.7714844,0.392578 c 0.5069358,-0.261954 0.84375,-0.783204 0.84375,-0.783204 l 1.4570312,0.685547 v 5.947266 L 11,22.406516 l 2.052734,-0.769531 0.002,-4.064453 1.427734,3.009765 0.613281,0.417969 H 17 l 2,-1.662109 v 8.238281 L 20.988281,28.428 23,27.52175 v -9.902343 l 3,-1.984375 V 13.922141 12.236594 L 24,9.7639379 v 2.5039061 0.761719 l -7,4.058594 -2.333984,-2.181641 -1.611328,0.927734 1.40625,0.962891 -1.40625,-0.960937 v -0.002 -0.002 L 21,11.101828 V 9.4104222 L 19.615234,8.5901098 21,9.4026098 V 7.6858129 L 18.882812,6.422141 17,7.234641 V 6.000266 Z m 2.470703,4 h 0.755859 l -4.171874,2.363281 v -0.496093 z m 1.671875,1.103516 -5.08789,3.054687 v -0.0078 z"/>
 <path style="fill:#9e9d24" d="m 14,5.0000069 2.99999,-1.37e-5 V 8 H 14 Z"/>
 <path style="fill:#8e24aa" d="m 14.4826,19.582749 -1.453939,-3.062965 1.432773,-0.723707 0.713906,1.309566 0.632796,0.894364 z m 9.51739,-8.314256 1.179683,1.018507 -1.179663,0.601541 z"/>
 <path style="fill:#b71c1c" d="M 18.999989,16.71809 17,17.999994 v -1.91204 l 6.99999,-4.058879 v 1.818315 l -2.988515,1.967429 v 9.88768 l -2.011486,0.873948 z m -9.9286285,-5.761617 -3.071361,2.02542 V 9.5869997 L 14,5.0000069 V 8 l -3.000001,2.030421 v 10.026997 l -1.9286385,0.83228 z m 3.9806335,0.409014 5.090864,-2.8855724 v 1.6228164 l -5.090843,3.049554 z"/>
 <path style="fill:#283593" d="m 18.999989,26.576447 1.988533,-0.869204 2.011489,0.813484 -2.011489,0.906421 z m -9.9286285,-5.686749 1.9286385,-0.83228 2.052016,0.579958 -2.052016,0.768342 z M 14.4826,19.582749 15.808136,18.000006 H 17 l 1.999989,-1.281916 2.1e-5,1.619122 L 17,20 h -1.903877 z m -1.430585,-4.749724 v -1.671926 l 5.090843,-3.058368 V 8.4799146 L 17.274675,9 H 16.471326 L 13.054816,10.867018 10.999999,10.030421 14,8 h 3.00001 l 1.142848,0.4799146 1.472217,-0.890533 1.384936,0.8206837 -2e-5,1.6920797 -7.947977,4.730881 1.409419,0.963051 -1.432773,0.723707 z m 7.95946,0.981794 2.988515,-1.96743 2e-5,-0.958848 L 25.179673,12.287 26,12.921139 v 1.712922 l -3.00001,1.984841 z m -15.0114555,-1.166658 -2e-5,-1.666268 3.071361,-2.02542 v 3.986585 l -1.4567209,-0.68598 c 0,0 -0.3368992,0.521905 -0.843835,0.783859 z"/>
 <path style="fill:#2e7d32" d="m 20.988529,25.707243 0.02295,-9.892424 1.988515,0.804083 v 9.901825 z m -9.98853,-5.649825 V 10.030421 l 2.054818,0.836597 -0.0028,9.770358 z M 15.17534,17.105643 14.461434,15.796077 13.052015,14.833025 14.665846,13.906432 17,16.087954 v 1.912039 l -1.191864,1.3e-5 z M 8.4060339,12.934811 9.0713605,12.629873 v 0.814608 L 8.4060339,13.739866 Z M 25.179673,12.287 23.99999,11.268493 V 8.764376 L 26,11.236331 v 1.684808 z M 16.99999,8 V 6.2340557 l 1.883314,-0.8119226 2.116687,1.2640434 v 1.717073 l -1.384916,-0.8138679 -1.472217,0.890533 z"/>
 <path style="fill:#ffffff;opacity:0.2" d="M 3.4003906 2 C 2.6247906 2 2 2.6247906 2 3.4003906 L 2 4.4003906 C 2 3.6247906 2.6247906 3 3.4003906 3 L 28.599609 3 C 29.375209 3 30 3.6247906 30 4.4003906 L 30 3.4003906 C 30 2.6247906 29.375209 2 28.599609 2 L 3.4003906 2 z"/>
</svg>
