<svg width="32" height="32" version="1.1" xmlns="http://www.w3.org/2000/svg">
 <rect x="2" y="3" width="28" height="28" rx="4" ry="4" style="opacity:.2"/>
 <rect x="2" y="2" width="28" height="28" rx="4" ry="4" style="fill:#e4e4e4"/>
 <path d="m6.5 23c-0.5 0-0.5-0.5-0.5-0.5v-11s0-0.5 0.5-0.5h1.014393c0.485607 0 0.735607 0.5 0.735607 0.5l3.75 7.5v-7.5s0-0.5 0.496055-0.5h1.003945c0.5 0 0.5 0.5 0.5 0.5v11s0 0.5-0.5 0.5h-1c-0.5 0-0.75-0.5-0.75-0.5l-3.75-7v7s0 0.5-0.5 0.5z" style="fill:#020102;opacity:.2"/>
 <path d="m16.5 11c-0.5 0-0.330538 0.5-0.330538 0.5l3.66619 11s0.164348 0.5 0.664348 0.5h1c0.5 0 0.666708-0.500125 0.666708-0.500125l3.666083-10.999875s0.167209-0.5-0.332791-0.5h-1c-0.5 0-0.664956 0.5-0.664956 0.5l-2.835044 8.5-2.834293-8.5s-0.165707-0.5-0.665707-0.5z" style="fill:#020102;opacity:.2"/>
 <path d="m6.5 22c-0.5 0-0.5-0.5-0.5-0.5v-11s0-0.5 0.5-0.5h1.014393c0.485607 0 0.735607 0.5 0.735607 0.5l3.75 7.5v-7.5s0-0.5 0.496055-0.5h1.003945c0.5 0 0.5 0.5 0.5 0.5v11s0 0.5-0.5 0.5h-1c-0.5 0-0.75-0.5-0.75-0.5l-3.75-7v7s0 0.5-0.5 0.5z" style="fill:#a867c0"/>
 <path d="m16.5 10c-0.5 0-0.330538 0.5-0.330538 0.5l3.66619 11s0.164348 0.5 0.664348 0.5h1c0.5 0 0.666708-0.500125 0.666708-0.500125l3.666083-10.999875s0.167209-0.5-0.332791-0.5h-1c-0.5 0-0.664956 0.5-0.664956 0.5l-2.835044 8.5-2.834293-8.5s-0.165707-0.5-0.665707-0.5z" style="fill:#a867c0"/>
 <path d="m6 11.5v-1s0-0.5 0.5-0.5h1c0.5 0 0.75 0.5 0.75 0.5l3.75 7.5v1l-3.75-7.5s-0.25-0.5-0.75-0.5h-1c-0.5 0-0.5 0.5-0.5 0.5z" style="fill:#ffffff;opacity:.2"/>
 <path d="m12 11.5v-1s0-0.5 0.5-0.5h1c0.5 0 0.5 0.5 0.5 0.5v1s0-0.5-0.5-0.5h-1c-0.5 0-0.5 0.5-0.5 0.5z" style="fill:#ffffff;opacity:.2"/>
 <path d="m16.348395 11.036869-0.178933-0.536869s-0.169462-0.5 0.330538-0.5h1c0.5 0 0.665707 0.5 0.665707 0.5l2.834293 8.5 2.835044-8.5s0.164956-0.5 0.664956-0.5h1c0.5 0 0.332791 0.5 0.332791 0.5l-0.185302 0.555989s0.01866-0.05599-0.147489-0.05599h-1c-0.5 0-0.664956 0.5-0.664956 0.5l-2.835044 8.500001-2.834293-8.5s-0.165707-0.5-0.665707-0.5h-1c-0.130412 0-0.151605 0.03687-0.151605 0.03687z" style="fill:#ffffff;opacity:.2"/>
</svg>
