<svg xmlns="http://www.w3.org/2000/svg" width="32" height="32" version="1.1">
 <path style="opacity:0.2" d="m 10.758091,5.1574347 c 1.492319,-0.6096058 3.350682,-0.4650688 5.167896,-1.0627706 1.782902,-0.586417 4.244281,1.6961336 5.434724,2.8757195 0.918441,0.9100644 1.606253,2.7301941 1.606253,2.7301941 1.437004,3.9110373 5.080031,7.4624033 5.029058,11.6160433 0.05358,1.244012 -0.434439,2.023848 -1.442796,2.560648 C 24.888624,24.751404 22.2201,25.216335 20.333544,26 L 16.943228,25.904661 5,14.350037 C 6.5096132,10.924276 7.8818734,7.367851 10.758091,5.1574347 Z"/>
 <path style="opacity:0.2" d="m 6.7011719,13.000158 c -0.2985486,0.0082 -0.5982441,0.1128 -1.0253907,0.3125 -1.5962048,0.609677 -3.5415177,0.840543 -4.2324218,2.152344 -1.06275386,2.01782 0.056282,3.897453 0.5253906,5.466797 0.1990682,0.664626 0.3723298,1.220405 1.1152344,1.613281 l 3.0898437,2.396484 c 0.1132597,0.880819 0.1637848,1.197698 1.0859375,1.533203 l 5.7539064,2.777344 c 3.215909,1.335049 5.618715,0.665438 7.132812,-0.320312 5.2e-4,1.97e-4 0.0014,-1.98e-4 0.002,0 C 24.769686,27.088014 24.724986,25.604043 25,24.35758 c 0,0 -4.888808,2.290796 -5.521484,-0.189453 l -0.742188,-3.59961 C 18.4056,19.370781 16.845653,18.768963 15.708984,17.961096 L 12.017578,15.431799 9.6972656,14.131017 7.71875,13.265783 C 7.2971183,13.081214 6.9997205,12.992003 6.7011719,13.000158 Z"/>
 <path style="fill:#535be2" d="m 10.758091,4.1574347 c 1.492319,-0.6096058 3.350682,-0.4650688 5.167896,-1.0627706 1.782902,-0.586417 4.244281,1.6961336 5.434724,2.8757195 0.918441,0.9100644 1.606253,2.7301941 1.606253,2.7301941 1.437004,3.9110373 5.080031,7.4624033 5.029058,11.6160433 0.05358,1.244012 -0.434439,2.023848 -1.442796,2.560648 C 24.888624,23.751404 22.2201,24.216335 20.333544,25 L 16.943228,24.904661 5,13.350037 C 6.5096132,9.924276 7.8818734,6.367851 10.758091,4.1574347 Z"/>
 <path style="opacity:0.1;fill:#ffffff" d="M 16.623047 3.0019531 C 16.382789 2.9933577 16.148644 3.0204479 15.925781 3.09375 C 14.108567 3.6914518 12.250132 3.5485973 10.757812 4.1582031 C 7.8815949 6.3686194 6.5096132 9.9238484 5 13.349609 L 5.3085938 13.648438 C 6.704933 10.446051 8.0777056 7.2179054 10.757812 5.1582031 C 12.250132 4.5485973 14.108567 4.6914518 15.925781 4.09375 C 17.708683 3.507333 20.170885 5.7911172 21.361328 6.9707031 C 22.279769 7.8807675 22.966797 9.7011719 22.966797 9.7011719 C 24.35105 13.468639 27.772073 16.903463 27.976562 20.863281 C 27.994597 20.690582 28.004474 20.510968 27.996094 20.316406 C 28.047067 16.162766 24.403801 12.612209 22.966797 8.7011719 C 22.966797 8.7011719 22.279769 6.8807675 21.361328 5.9707031 C 20.31969 4.9385655 18.304851 3.0621212 16.623047 3.0019531 z"/>
 <path style="opacity:0.2" d="m 17.001188,15.797783 c -0.05483,-1.65482 1.79898,-2.84179 3.332175,-3.5944 0.809201,-0.397218 1.831631,-0.0028 2.717929,-0.194765 0.673284,-0.145815 1.136283,-1.303627 1.931378,-0.917598 1.932176,0.938096 7.44249,6.367147 3.800706,10.464552 -2.752043,1.618178 -6.227329,2.507585 -9.6918,-0.822541 -0.498086,-0.478771 -0.527014,-1.55167 -0.939017,-2.49869 -0.346858,-0.797276 -1.117425,-1.412173 -1.151371,-2.436558 z"/>
 <path style="fill:#6178e2" d="m 17.001188,14.797783 c -0.05483,-1.65482 1.79898,-2.84179 3.332175,-3.5944 0.809201,-0.397218 1.831631,-0.0028 2.717929,-0.194765 0.673284,-0.145815 1.136283,-1.3036265 1.931378,-0.917598 1.932176,0.938096 7.44249,6.367147 3.800706,10.464552 -2.752043,1.618178 -6.227329,2.507585 -9.6918,-0.822541 -0.498086,-0.478771 -0.527014,-1.55167 -0.939017,-2.49869 -0.346858,-0.797276 -1.117425,-1.412173 -1.151371,-2.436558 z"/>
 <path style="opacity:0.1;fill:#ffffff" d="M 24.699219 10.013672 C 24.068741 9.9786689 23.639905 10.880224 23.050781 11.007812 C 22.164483 11.199778 21.143185 10.805907 20.333984 11.203125 C 18.800789 11.955735 16.947123 13.142055 17.001953 14.796875 C 17.006918 14.946711 17.031599 15.086537 17.064453 15.220703 C 17.392352 13.864061 18.985562 12.865034 20.333984 12.203125 C 21.143185 11.805907 22.164483 12.199778 23.050781 12.007812 C 23.724065 11.861997 24.187327 10.705769 24.982422 11.091797 C 26.382803 11.7717 29.648013 14.810922 29.960938 17.992188 C 30.360236 14.471787 26.529414 10.842881 24.982422 10.091797 C 24.883035 10.043543 24.789287 10.018672 24.699219 10.013672 z"/>
 <path style="opacity:0.2" d="m 21.008907,16.856924 c 0.239639,-1.914112 2.624516,-3.124504 4.440977,-4.409548 0.738388,-0.736247 1.193093,-0.451239 1.939612,0.04937 2.168477,1.462891 2.877024,3.389089 2.524351,5.652067 -0.09652,1.096173 -0.403449,1.083546 -1.411638,1.259791 L 25.119209,20 C 22.5983,19.848728 20.859767,18.048175 21.008907,16.856921 Z"/>
 <path style="fill:#80a4e9" d="m 21.008907,15.856924 c 0.239639,-1.914112 2.624516,-3.124504 4.440977,-4.409548 0.738388,-0.736247 1.193093,-0.451239 1.939612,0.04937 2.168477,1.462891 2.877024,3.389089 2.524351,5.652067 -0.09652,1.096173 -0.403449,1.083546 -1.411638,1.259791 L 25.119209,19 C 22.5983,18.848728 20.859767,17.048175 21.008907,15.856921 Z"/>
 <path style="opacity:0.2;fill:#ffffff" d="M 26.191406 11.007812 C 25.963948 11.039163 25.726114 11.171173 25.449219 11.447266 C 23.632758 12.73231 21.249405 13.94331 21.009766 15.857422 C 20.986051 16.04684 21.024501 16.253695 21.091797 16.464844 C 21.581941 14.773124 23.760106 13.642218 25.449219 12.447266 C 26.187607 11.711019 26.642153 11.995485 27.388672 12.496094 C 29.0243 13.599516 29.827128 14.968617 29.972656 16.544922 C 30.11541 14.543568 29.360564 12.826365 27.388672 11.496094 C 26.922098 11.183213 26.570503 10.955562 26.191406 11.007812 z"/>
 <path style="opacity:0.2" d="m 26.512315,14.649975 c 0.941836,-0.532854 3.501355,-2.377621 4.364472,-1.337364 0.704216,0.848745 -1.840026,3.126547 -1.840026,3.126547 -2.061163,1.711175 -3.986189,-0.962185 -2.524446,-1.789183 z"/>
 <path style="fill:#c3d9f2" d="m 26.512315,13.649975 c 0.941836,-0.532854 3.501355,-2.377621 4.364472,-1.337364 0.704216,0.848745 -1.840026,3.126547 -1.840026,3.126547 -2.061163,1.711175 -3.986189,-0.962185 -2.524446,-1.789183 z"/>
 <path style="fill:#3f3f3f" d="M 5.5155778,9.5589442 3.8836585,10.266224 6.899718,14.790183 7.6810278,14.352987 Z"/>
 <path style="opacity:0.2" d="M 2.9404885,5.3302804 C 3.4612134,4.9289065 4.0102225,4.8066194 4.6381683,5.4632296 5.0487193,5.8925213 4.4666538,7.7043633 4.8189934,8.7216279 5.0711036,9.4495138 6.1898168,9.7707992 5.9720595,10.603926 5.6573202,11.808098 4.4875677,12.552053 3.7489073,11.490251 2.46253,9.6411255 0.99971967,7.7477256 2.9404885,5.3302804 Z"/>
 <path style="fill:#4f4f4f" d="M 2.9404885,4.33028 C 3.4612134,3.9289061 4.0102225,3.806619 4.6381683,4.4632292 5.0487193,4.8925209 4.4666538,6.7043629 4.8189934,7.7216275 5.0711036,8.4495134 6.1898168,8.7707988 5.9720595,9.6039254 5.6573202,10.808098 4.4875677,11.552053 3.7489073,10.490251 2.46253,8.6411251 0.99971967,6.7477252 2.9404885,4.33028 Z"/>
 <path style="fill:#3f3f3f" d="M 11.960952,9.0817401 9.562,9.5831579 c 0,0 1.100704,2.0567491 1.276436,2.9815611 0.291938,1.536373 -0.113953,3.540997 -0.113953,3.540997 l 0.847312,0.179955 c 0,0 0.460995,-2.07727 0.117902,-3.882855 -0.173183,-0.9114 0.271255,-3.3210759 0.271255,-3.3210759 z"/>
 <path style="opacity:0.2" d="m 9.1913371,4.0211722 c 0.4546664,-0.051951 0.9305979,-0.015465 1.4471809,0.1900772 0.638427,0.2071168 0.46362,0.4646925 0.399808,0.9251828 -0.06713,0.4954962 -0.109831,1.1961715 0.03642,1.8467583 0.11346,0.504693 0.436178,1.5413005 0.680694,2.3033499 0.255393,0.7590426 0.497227,0.8575136 -0.304155,1.1128956 l -1.379299,0.439552 C 9.3164302,11.193209 9.203886,10.931302 8.8985839,10.362452 7.900099,8.4931472 7.966352,6.7644117 8.0336681,5.0358164 7.9278718,4.23033 8.4631231,4.1090131 9.1913371,4.0211722 Z"/>
 <path style="fill:#4f4f4f" d="m 9.1913371,3.0211718 c 0.4546664,-0.051951 0.9305979,-0.015465 1.4471809,0.1900772 0.638427,0.2071168 0.46362,0.4646925 0.399808,0.9251828 -0.06713,0.4954962 -0.109831,1.1961715 0.03642,1.8467583 0.11346,0.504693 0.436178,1.5413005 0.680694,2.3033499 0.255393,0.759043 0.497227,0.857514 -0.304155,1.1128958 L 10.071986,9.8389881 C 9.3164302,10.193209 9.203886,9.9313013 8.8985839,9.3624519 7.900099,7.4931468 7.966352,5.7644113 8.0336681,4.035816 7.9278718,3.2303296 8.4631231,3.1090127 9.1913371,3.0211718 Z"/>
 <path style="fill:#2e895d" d="m 6.7114254,12.369565 c -0.2160667,0.006 -0.4643302,0.08472 -0.8759763,0.277174 a 0.37503751,0.36960217 0 0 1 -0.024902,0.01156 c -0.8310397,0.317419 -1.7167653,0.526853 -2.4536133,0.811311 -0.7368479,0.284457 -1.2971995,0.628419 -1.5805664,1.166439 -0.4846535,0.920199 -0.4727371,1.782741 -0.2783203,2.650476 0.1944169,0.867736 0.5860869,1.717986 0.8320313,2.540761 0.1984789,0.662659 0.2973864,1.056227 0.9316406,1.391643 a 0.37503751,0.36960217 0 0 1 0.0542,0.03609 l 3.0878906,2.396396 a 0.37503751,0.36960217 0 0 1 0.1406249,0.243971 c 0.056415,0.438738 0.1042891,0.687274 0.1889648,0.824304 0.084675,0.137029 0.2302253,0.251546 0.6577148,0.407099 a 0.37503751,0.36960217 0 0 1 0.035152,0.01443 l 5.7377919,2.77174 c 3.109713,1.288856 5.350342,0.638244 6.776369,-0.290167 a 0.37503751,0.36960217 0 0 1 0.06592,-0.0332 c 2.282183,-0.910545 3.371514,-1.673833 3.909668,-2.306895 0.350186,-0.411946 0.476913,-0.784415 0.569824,-1.167884 -0.4225,0.181145 -0.924928,0.437278 -1.933594,0.640964 -0.68046,0.137408 -1.395047,0.204247 -2.034668,0.04764 -0.63962,-0.156607 -1.21252,-0.603209 -1.401855,-1.345449 a 0.37503751,0.36960217 0 0 1 -0.0044,-0.0202 L 18.37596,19.665599 c 0,0 0,-0.0015 0,-0.0015 -0.130544,-0.471378 -0.522913,-0.863188 -1.067872,-1.244395 -0.543687,-0.380319 -1.21629,-0.732656 -1.813476,-1.156335 L 11.816372,14.745725 9.5282859,13.462352 7.5653949,12.601958 C 7.1630814,12.425857 6.9286112,12.363652 6.7114254,12.369565 Z"/>
 <path style="fill:#45ce64" d="m 1.4438193,14.465227 c 0.6909041,-1.311801 2.6349489,-1.542954 4.2311538,-2.152631 0.8542931,-0.3994 1.1997093,-0.416888 2.0429726,-0.04775 l 1.9800359,0.866748 c 0,0 -3.6732826,3.211208 -4.2758868,5.403399 C 4.9390129,20.292377 6.1729,23.941832 6.1729,23.941832 L 3.0840209,21.545617 C 2.3411163,21.152741 2.1686113,20.596055 1.9695431,19.931429 1.5004344,18.362085 0.38106547,16.483047 1.4438193,14.465227 Z"/>
 <path style="fill:#39ab55" d="m 5.4220948,18.534988 c 0.6026042,-2.19219 4.2758868,-5.403399 4.2758868,-5.403399 l 2.3191414,1.300809 c 0,0 -1.256905,5.886035 -0.874663,8.814429 0.229765,1.760253 1.870719,5.00554 1.870719,5.00554 L 7.2601869,25.473647 C 6.3380342,25.138142 6.2861597,24.822646 6.1729,23.941827 c 0,0 -1.2338871,-3.649454 -0.7508052,-5.406839 z"/>
 <path style="fill:#309158" d="m 11.14246,23.246827 c -0.382242,-2.928394 0.874663,-8.814429 0.874663,-8.814429 l 3.691572,2.528175 -0.169532,7.329626 c -0.0494,2.135861 2.800428,2.953279 4.60829,3.641131 -1.514097,0.98575 -3.918365,1.656086 -7.134274,0.321037 0,0 -1.640954,-3.245287 -1.870719,-5.00554 z"/>
 <path style="fill:#2b814e" d="m 15.709187,16.960126 -0.170178,7.330424 c -0.0494,2.13586 2.800749,2.953629 4.60861,3.64148 4.621248,-1.843785 4.577366,-3.327636 4.85238,-4.574099 0,0 -4.888151,2.290388 -5.520827,-0.189861 l -0.742039,-3.598835 c -0.330728,-1.197736 -1.891277,-1.801242 -3.027946,-2.609109 z"/>
 <path style="opacity:0.1;fill:#ffffff" d="M 6.7011719 12 C 6.4026233 12.008155 6.1029279 12.1128 5.6757812 12.3125 C 4.0795764 12.922177 2.1342635 13.153043 1.4433594 14.464844 C 1.0210889 15.266596 0.95006176 16.045645 1.0390625 16.792969 C 1.0902748 16.357887 1.2059331 15.915638 1.4433594 15.464844 C 2.1342635 14.153043 4.0795765 13.922177 5.6757812 13.3125 C 6.1029279 13.1128 6.4026233 13.0082 6.7011719 13 C 6.9997205 12.991845 7.2971183 13.081056 7.71875 13.265625 L 9.6972656 14.130859 L 12.017578 15.431641 L 15.708984 17.960938 C 16.845653 18.768805 18.4056 19.370623 18.736328 20.568359 L 19.478516 24.167969 C 20.054106 26.424429 23.98582 24.796442 24.720703 24.472656 C 24.859067 24.080842 24.922483 23.708757 25 23.357422 C 25 23.357422 20.111192 25.648218 19.478516 23.167969 L 18.736328 19.568359 C 18.4056 18.370623 16.845653 17.768805 15.708984 16.960938 L 12.017578 14.431641 L 9.6972656 13.130859 L 7.71875 12.265625 C 7.2971183 12.081056 6.9997205 11.991845 6.7011719 12 z"/>
 <path style="opacity:0.2;fill:#ffffff" d="M 30.234375 12.003906 C 29.110885 11.917845 27.27696 13.217447 26.511719 13.650391 C 25.965025 13.959689 25.892333 14.527482 26.123047 15.027344 C 26.20643 14.881793 26.332369 14.75186 26.511719 14.650391 C 27.437515 14.126612 29.923854 12.340436 30.828125 13.267578 C 31.006881 12.89354 31.071317 12.546754 30.876953 12.3125 C 30.715119 12.117452 30.493642 12.023767 30.234375 12.003906 z"/>
 <path style="opacity:0.1" d="M 9.6972656 13.130859 C 9.6972656 13.130859 6.0244792 16.342966 5.421875 18.535156 C 4.9387931 20.292541 6.1738281 23.941406 6.1738281 23.941406 C 6.2306401 24.383232 6.2725091 24.682845 6.4160156 24.914062 A 1.0001 1.0001 0 0 0 7.1210938 23.621094 C 7.1210938 23.621094 6.8287818 22.756061 6.59375 21.683594 C 6.3587182 20.611127 6.2497444 19.299075 6.3867188 18.800781 C 6.5834544 18.085084 7.5680957 16.722651 8.5214844 15.689453 C 9.474873 14.656255 10.355469 13.884766 10.355469 13.884766 A 1.0001 1.0001 0 0 0 10.570312 13.619141 L 9.6972656 13.130859 z"/>
 <path style="opacity:0.1" d="M 12.017578 14.431641 C 12.017578 14.431641 10.760336 20.3177 11.142578 23.246094 C 11.372343 25.006347 13.013672 28.251953 13.013672 28.251953 C 13.338436 28.386775 13.648903 28.488325 13.957031 28.583984 A 1.0001 1.0001 0 0 0 13.90625 27.800781 C 13.90625 27.800781 13.509028 27.016237 13.083984 26.017578 C 12.658941 25.018919 12.220311 23.772557 12.134766 23.117188 C 11.972982 21.877747 12.164476 19.686857 12.425781 17.884766 C 12.630928 16.469961 12.82324 15.494257 12.914062 15.046875 L 12.017578 14.431641 z"/>
 <path style="opacity:0.1" d="M 15.708984 16.960938 L 15.539062 24.291016 C 15.489662 26.426876 18.340577 27.24379 20.148438 27.931641 C 20.495031 27.793357 20.766286 27.66163 21.0625 27.527344 A 1.0001 1.0001 0 0 0 20.503906 26.996094 C 19.5598 26.636882 18.447817 26.265795 17.660156 25.794922 C 16.872495 25.324049 16.52471 24.93308 16.539062 24.3125 L 16.695312 17.591797 C 16.356714 17.386237 16.018142 17.180665 15.708984 16.960938 z"/>
</svg>
