<svg xmlns="http://www.w3.org/2000/svg" width="32" height="32" version="1.1">
 <rect style="opacity:0.2" width="25" height="25" x="4" y="6" rx="1.25" ry="1.25"/>
 <rect style="fill:#008383" width="25" height="25" x="4" y="5" rx="1.25" ry="1.25"/>
 <path style="fill:#ffffff;opacity:0.1" d="M 5.25 5 C 4.5575 5 4 5.5575 4 6.25 L 4 7.25 C 4 6.5575 4.5575 6 5.25 6 L 27.75 6 C 28.4425 6 29 6.5575 29 7.25 L 29 6.25 C 29 5.5575 28.4425 5 27.75 5 L 5.25 5 z"/>
 <path style="fill:#d4d5cc" d="M 7,8 V 27 H 26 V 8 Z"/>
 <path style="opacity:0.1" d="M 23.485493,7.3509554 C 22.141707,10.162368 18.235909,15.433296 12.821289,19.912108 8.23784,23.702012 3.8274168,25.821794 0.95,26.799999 4.323494,25.868376 9.5630527,23.959047 14.907617,20.360546 20.104519,16.865267 25.459829,12.564332 27.839,10.735999 25.906709,10.449332 23.991505,9.2033451 23.485493,7.3509554 Z"/>
 <path style="fill:#d43519" d="M 23.485493,6.3509564 C 22.141707,9.1623692 18.235909,14.433297 12.821289,18.912109 8.23784,22.702013 3.8274168,24.821795 0.95,25.8 4.323494,24.868377 9.5630527,22.959048 14.907617,19.360547 20.104519,15.865268 25.459829,11.564333 27.839,9.736 25.906709,9.4493333 23.991505,8.2033461 23.485493,6.3509564 Z"/>
 <rect style="fill:#008383" width="3" height="4" x="4" y="22"/>
 <path style="opacity:0.2" d="m 31,6.998473 c 0,2.2078487 -1.792048,4.001526 -4.000291,4.001526 C 24.789748,10.999999 23,9.2063217 23,6.998473 23,4.789276 24.789748,2.999999 26.999709,2.999999 29.207952,2.999999 31,4.789276 31,6.998473"/>
 <path style="fill:#f84529" d="M 31,5.998474 C 31,8.2063227 29.207952,10 26.999709,10 24.789748,10 23,8.2063227 23,5.998474 23,3.789277 24.789748,2 26.999709,2 29.207952,2 31,3.789277 31,5.998474"/>
 <path style="fill:#ffffff;opacity:0.2" d="M 27 2 C 24.790039 2 23 3.7888499 23 5.9980469 C 23 6.1691128 23.02993 6.3325954 23.050781 6.4980469 C 23.29905 4.5276336 24.961269 3 27 3 C 29.037147 3 30.700656 4.5276336 30.949219 6.4980469 C 30.970095 6.3325954 31 6.1691128 31 5.9980469 C 31 3.7888499 29.208243 2 27 2 z"/>
 <rect style="opacity:0.2" width="19" height="1" x="7" y="27"/>
</svg>
