<svg xmlns="http://www.w3.org/2000/svg" width="32" height="32" version="1">
 <circle cx="16" cy="17" r="14" style="opacity:0.2"/>
 <circle style="fill:#8e8e8e" cx="16" cy="16" r="14"/>
 <path d="m 13.603516,12 -0.09375,0.40625 -1.619141,7.894531 L 10.641,16.048414 H 7.9902344 v 0.951172 H 9.9375 l 1.5,4.949633 h 1.103516 L 14.416016,13 H 20 v -1 z m 2.40625,3 2.5,3.5 -2.5,3.5 h 1 l 2,-2.789062 2,2.789062 h 1 l -2.5,-3.5 2.5,-3.5 h -1 l -2,2.789062 -2,-2.789062 z" style="opacity:0.2"/>
 <path style="fill:#ffffff" d="m 13.603516,11 -0.09375,0.40625 -1.619141,7.894531 L 10.641,15.048414 H 7.9902344 v 0.951172 H 9.9375 l 1.5,4.949633 h 1.103516 L 14.416016,12 H 20 v -1 z m 2.40625,3 2.5,3.5 -2.5,3.5 h 1 l 2,-2.789062 2,2.789062 h 1 l -2.5,-3.5 2.5,-3.5 h -1 l -2,2.789062 -2,-2.789062 z"/>
 <path style="opacity:0.2;fill:#ffffff" d="M 16 2 A 14 14 0 0 0 2 16 A 14 14 0 0 0 2.0214844 16.585938 A 14 14 0 0 1 16 3 A 14 14 0 0 1 29.978516 16.414062 A 14 14 0 0 0 30 16 A 14 14 0 0 0 16 2 z"/>
</svg>
