<svg width="32" height="32" version="1.1" xmlns="http://www.w3.org/2000/svg">
 <ellipse cx="16" cy="11" rx="11" ry="3" style="opacity:.2"/>
 <path d="m9 6s0-4 3-4c2 0 4 2 4 2s2-2 4-2c3 0 3 4 3 4l-7 1z" style="fill:#3f3f3f"/>
 <path d="m12 2c-3 0-3 4-3 4l0.109375 0.015625c0.2090193-1.1837708 0.8509956-3.015625 2.890625-3.015625 2 0 4 2 4 2s2-2 4-2c2.039629 0 2.681606 1.8318542 2.890625 3.015625l0.109375-0.015625s0-4-3-4c-2 0-4 2-4 2s-2-2-4-2z" style="fill:#ffffff;opacity:.1"/>
 <rect x="9" y="6" width="14" height="2" style="fill:#e4e4e4"/>
 <path d="m11.898485 19 4.101515 1 4-1 3-8s-3.135353-1-7-1-7 1-7 1z" style="opacity:.2"/>
 <path d="m14 28s1 3 2 3 2-3 2-3l-2-1z" style="opacity:.2"/>
 <ellipse cx="16" cy="10" rx="11" ry="3" style="fill:#4f4f4f"/>
 <path d="M 16 7 A 11 3 0 0 0 5 10 A 11 3 0 0 0 5.1601562 10.509766 A 11 3 0 0 1 16 8 A 11 3 0 0 1 26.839844 10.490234 A 11 3 0 0 0 27 10 A 11 3 0 0 0 16 7 z " style="fill:#ffffff;opacity:.1"/>
 <path d="m11.898485 18 4.101515 1 4-1 3-8s-3.135353-1-7-1-7 1-7 1z" style="fill:#f2a9a2"/>
 <path d="m14 27s1 3 2 3 2-3 2-3l-2-1z" style="fill:#f2a9a2"/>
 <path d="m12 19h8c0 3-2 9-2 9h-4s-2-6.486123-2-9z" style="opacity:.1"/>
 <path d="m12 18h8c0 3-2 9-2 9h-4s-2-6.486123-2-9z" style="fill:#4f4f4f"/>
 <path d="m 15.601562,10.011719 c -2.332398,0.04171 -4.265363,0.411955 -5.435546,0.691406 A 3,4 0 0 0 10,12 a 3,4 0 0 0 3,4 3,4 0 0 0 3,-4 3,4 0 0 0 -0.398438,-1.988281 z M 16,12 a 3,4 0 0 0 3,4 3,4 0 0 0 3,-4 3,4 0 0 0 -0.166016,-1.296875 C 20.664132,10.423753 18.731958,10.053616 16.400391,10.011719 A 3,4 0 0 0 16,12 Z" style="opacity:.2"/>
 <path d="m15.601562 9.0117188c-2.332398 0.0417124-4.265363 0.411955-5.435546 0.6914062a3 4 0 0 0-0.166016 1.296875 3 4 0 0 0 3 4 3 4 0 0 0 3-4 3 4 0 0 0-0.398438-1.9882812zm0.398438 1.9882812a3 4 0 0 0 3 4 3 4 0 0 0 3-4 3 4 0 0 0-0.166016-1.296875c-1.169852-0.2793723-3.102026-0.6495088-5.433593-0.6914062a3 4 0 0 0-0.400391 1.9882812z" style="fill:#ffffff"/>
 <circle cx="13.5" cy="11.5" r="1.5" style="fill:#3f3f3f"/>
 <circle cx="18.5" cy="11.5" r="1.5" style="fill:#3f3f3f"/>
 <path d="m12 19 2 2v2l2 1 2-1v-2l2-2h-4z" style="opacity:.2"/>
 <path d="m12 18 2 2v2l2 1 2-1v-2l2-2h-4-4z" style="fill:#e4e4e4"/>
 <path d="m14 18 2 5 2-5h-2-2z" style="fill:#f43e3e"/>
 <path d="m15 19 1 1-1 4 1 1 1-1-1-4 1-1z" style="opacity:.2"/>
 <path d="m15 18 1 1-1 4 1 1 1-1-1-4 1-1z" style="fill:#ffffff"/>
</svg>
