<svg width="32" height="32" version="1.1" xmlns="http://www.w3.org/2000/svg">
 <g>
  <path d="m6.90983 3.00301h-1.90983v25.81469l1.90983 0.3167zm-0.06325-0.00301v26.1292h17.68012c0.8162 0 1.4733-1.2964 1.4733-2.5135v-21.41889c0-1.21703-0.6571-2.19681-1.4733-2.19681zm-1.84658 5.4955v22.5045h19.3236c0.8921 0 1.6103-0.9798 1.6103-2.197v-18.1105c0-1.21715-0.7182-2.197-1.6103-2.197z" style="opacity:.2"/>
  <g>
   <title>Book</title>
   <path d="m5 8v22h19.3846c0.895 0 1.6154-0.9579 1.6154-2.1477v-17.7045c0-1.18994-0.7204-2.1478-1.6154-2.1478z" style="fill:#a80000"/>
   <path d="m5.99999 11v18h18.43141c0.869 0 1.5686-0.9412 1.5686-2.1102v-13.7796c0-1.169-0.6996-2.1102-1.5686-2.1102z" style="fill:#e4e4e4"/>
   <path d="m5 3v25h19.2379c0.895 0 1.7621-1.165 1.7621-2.333v-20.55845c0-1.16813-0.7204-2.10855-1.6154-2.10855z" style="fill:#a80000"/>
   <path d="m5.99999 2v25h18.46151c0.8523 0 1.5385-1.2403 1.5385-2.4048v-20.49332c0-1.16444-0.6862-2.10188-1.5385-2.10188z" style="fill:#c40f0f"/>
   <path d="m6.74229 2-1.55572 2.03949c1.99708 6.08811 7.92073 12.56021 10.67093 11.24691-1.7628 0.1303-5.1596-7.36312-5.1596-7.36312s8.5929 5.27992 5.1913 7.34272c0.5168-0.0583 1.0377-0.3731 1.5297-0.99 2.1009-2.6732-1.7097-8.37647-7.97233-12.27261z" style="fill:#ff5c5c;stop-color:#000000"/>
   <path d="m7 2h-2v25.6849l2 0.3151z" style="fill:#a80000"/>
   <path d="m5 27.0002v2.9998h3.00003v-1h-2.00004v-1h2.00004v-1.0002z" style="fill:#a80000"/>
  </g>
  <g>
   <title>Pen</title>
   <path d="m23.5357 8.02289-0.638 0.03664-6.8133 16.67847-0.0844 3.262 2.1867-2.3005 6.8133-16.67855-0.4131-0.51735z" style="opacity:.2"/>
   <path d="m23.5357 7h-0.638l-6.8133 16.7151-0.0844 3.267 2.1867-2.3055 6.8133-16.67854-0.4131-0.51735z" style="fill:#999999"/>
   <path d="m22.8955 7-6.8068 16.7151 0.4109 0.5197 6.8112-16.67854z" fill-opacity=".2"/>
   <path d="m24.9978 7.99806-0.638 0.03663-6.8111 16.68081 0.638-0.0389z" fill="#ffffff" fill-opacity=".2"/>
   <path d="m16.4975 24.2325 1.0512 0.4807-1.5465 2.2639z" fill-opacity=".2"/>
   <path d="m16.0865 23.7151 0.411 0.5197-0.4975 2.7423z" fill-opacity=".4"/>
   <path d="m23.5357 7h-0.638l0.4109 0.55626 1.0512 0.48072 0.638-0.03892-0.4109-0.51735z" fill-opacity=".2"/>
   <path d="m16.5408 22.6049-0.2271 0.5563 0.4109 0.5173 1.0512 0.4807 0.6381-0.0389 0.2271-0.554-0.6381 0.0367-1.0512-0.4808zm6.0151-14.73501-0.2271 0.55621 0.4109 0.51963 1.0512 0.48076 0.6403-0.03892 0.2271-0.55626-0.6402 0.03892-1.0491-0.48071zm-0.4542 1.11248-0.2271 0.55626 0.4109 0.51967 1.0512 0.4807 0.6402-0.0389 0.2271-0.55631-0.6402 0.03892-1.049-0.48072z" style="fill-opacity:.4;fill:#ececec"/>
   <path d="m17.3129 25.5968-0.4174 0.0755-0.6057-0.277-0.2379-0.3685-0.0497 1.9503z" fill-opacity=".266"/>
  </g>
  <path d="m6.8457 2v0.00391h-1.8457v1h1.8457v-0.00391h17.6816c0.8163 0 1.4727 0.98023 1.4727 2.19727v-1c0-1.21704-0.6564-2.19727-1.4727-2.19727h-17.6816z" style="fill:#ffffff;opacity:.2"/>
 </g>
</svg>
