<svg xmlns="http://www.w3.org/2000/svg" width="32" height="32" version="1.1">
 <circle style="opacity:0.2" cx="16.5" cy="16.5" r="14.5"/>
 <circle style="fill:#e4e4e4" cx="16.5" cy="15.5" r="14.5"/>
 <path style="opacity:0.1" d="m 17.044922,3.9999984 c -0.18284,-3.09e-4 -0.366516,0.043458 -0.529297,0.1328125 C 16.192116,4.3105849 16,4.62738 16,4.978514 V 6.3632796 C 11.850594,6.5657914 8.3538593,9.2721306 6.9804688,12.999998 5.3413613,13.010629 4,14.358544 4,15.999998 c 0,1.533619 1.1714422,2.810589 2.6621094,2.980469 0.5340355,2.115856 1.7329095,3.969392 3.3613286,5.324219 l 0.769531,-1.236329 C 9.5132644,21.955109 8.5623811,20.474157 8.1054688,18.787107 9.2116218,18.343893 10,17.258152 10,15.999998 10,14.853677 9.3455029,13.850195 8.3925781,13.345701 9.5949301,10.244462 12.518473,8.0129037 16,7.8164046 v 1.2050782 c 0,0.3511342 0.192116,0.6679382 0.515625,0.8457031 0.162523,0.089371 0.344825,0.1328125 0.527344,0.1328125 0.183545,0 0.365749,-0.045878 0.529297,-0.1367188 L 20.484375,8.2519515 C 20.96272,7.9862807 21.25,7.5191303 21.25,6.9999984 21.25,6.4808673 20.963233,6.0132273 20.484375,5.7480453 L 17.572266,4.1367172 C 17.409743,4.0461254 17.227762,4.0003082 17.044922,3.9999984 Z M 17.5,5.8105453 19.650391,6.9999984 17.5,8.1894515 v -0.6679687 -1 z m 5.476562,2.8847656 -0.769531,1.2363281 c 1.055381,0.918106 1.88326,2.088276 2.398438,3.416015 C 23.653807,13.852548 23,14.854612 23,15.999998 c 0,1.258154 0.788378,2.343895 1.894531,2.787109 C 23.935303,22.332375 20.79867,24.969231 17,25.183592 v -1.205078 c 0,-0.351134 -0.192116,-0.667938 -0.515625,-0.845704 -0.162524,-0.08937 -0.344825,-0.132812 -0.527344,-0.132812 -0.183545,0 -0.367702,0.04589 -0.53125,0.136719 l -2.912109,1.611328 C 12.035327,25.013716 11.75,25.480866 11.75,25.999998 c 0,0.51913 0.284814,0.986771 0.763672,1.251953 l 2.912109,1.611328 c 0.162523,0.09059 0.346457,0.136409 0.529297,0.136719 0.18284,3.08e-4 0.366517,-0.04345 0.529297,-0.132812 C 16.807884,28.68941 17,28.372617 17,28.021482 V 26.63867 c 4.519355,-0.220649 8.269362,-3.412777 9.339844,-7.658203 C 27.829597,18.809711 29,17.532959 29,15.999998 c 0,-1.641454 -1.341361,-2.989369 -2.980469,-3 C 25.396205,11.309142 24.337476,9.827462 22.976562,8.6953109 Z M 16.5,11.999998 c -2.476395,0 -4.5,2.023605 -4.5,4.5 0,2.476395 2.023605,4.5 4.5,4.5 2.476395,0 4.5,-2.023605 4.5,-4.5 0,-2.476395 -2.023605,-4.5 -4.5,-4.5 z m 0,1.5 c 1.665736,0 3,1.334264 3,3 0,1.665736 -1.334264,3 -3,3 -1.665736,0 -3,-1.334264 -3,-3 0,-1.665736 1.334264,-3 3,-3 z m -9.5,1 c 0.8373098,0 1.5,0.66269 1.5,1.5 0,0.83731 -0.6626902,1.5 -1.5,1.5 -0.8373098,0 -1.5,-0.66269 -1.5,-1.5 0,-0.83731 0.6626902,-1.5 1.5,-1.5 z m 19,0 c 0.83731,0 1.5,0.66269 1.5,1.5 0,0.83731 -0.66269,1.5 -1.5,1.5 -0.83731,0 -1.5,-0.66269 -1.5,-1.5 0,-0.83731 0.66269,-1.5 1.5,-1.5 z m -9.5,0.5 a 1.5,1.5 0 0 0 -1.5,1.5 1.5,1.5 0 0 0 1.5,1.5 1.5,1.5 0 0 0 1.5,-1.5 1.5,1.5 0 0 0 -1.5,-1.5 z m -1,9.810547 v 0.667969 1 0.710937 l -2.150391,-1.189453 z"/>
 <path style="fill:#007bff" d="M 16.5 5.3496094 C 11.765939 5.3496094 7.7846117 8.6087452 6.6679688 13 L 8.1679688 13 C 9.2391212 9.4098074 12.556308 6.8007813 16.5 6.8007812 L 16.5 5.3496094 z M 22.976562 7.6953125 L 22.207031 8.9316406 C 23.432477 9.9976913 24.354483 11.401528 24.832031 13 L 26.332031 13 C 25.795601 10.892364 24.600008 9.0458656 22.976562 7.6953125 z M 7.9433594 17.068359 C 7.6792832 17.221851 7.3795771 17.305287 7.0742188 17.3125 C 6.8780917 17.3113 6.6836013 17.278384 6.4980469 17.214844 C 6.91416 19.64899 8.2011562 21.788569 10.023438 23.304688 L 10.792969 22.068359 C 9.3344057 20.799517 8.3031044 19.053366 7.9433594 17.068359 z M 25.056641 17.068359 C 24.320493 21.130283 20.777829 24.199219 16.5 24.199219 L 16.5 25.650391 C 21.51238 25.650391 25.684357 21.997553 26.501953 17.214844 C 26.316399 17.278384 26.121908 17.31132 25.925781 17.3125 C 25.620423 17.3053 25.320717 17.22185 25.056641 17.068359 z"/>
 <circle style="fill:none;stroke:#007bff;stroke-width:1.5;stroke-linecap:round;stroke-linejoin:round" cx="7" cy="15" r="2.25"/>
 <circle style="fill:none;stroke:#007bff;stroke-width:1.5;stroke-linecap:round;stroke-linejoin:round" cx="26" cy="15" r="2.25"/>
 <circle style="fill:none;stroke:#007bff;stroke-width:1.5;stroke-linecap:round;stroke-linejoin:round" cx="16.5" cy="15.5" r="3.75"/>
 <circle style="fill:#007bff" cx="16.5" cy="15.5" r="1.5"/>
 <path style="fill:#007bff" d="m 17.044434,3.0000016 c -0.18284,-3.09e-4 -0.366028,0.043947 -0.528809,0.1333012 C 16.192116,3.3110768 16,3.6273833 16,3.9785173 V 5.5209976 6.5214853 8.021485 c 0,0.3511342 0.192116,0.6674496 0.515625,0.8452145 C 16.678148,8.9560705 16.860451,9 17.04297,9 17.226515,9 17.409694,8.954611 17.573242,8.86377 l 2.912109,-1.6113281 c 0.478345,-0.2656708 0.764648,-0.7333093 0.764648,-1.2524412 0,-0.5191311 -0.28579,-0.987259 -0.764648,-1.252441 L 17.573242,3.1362324 C 17.410719,3.0456406 17.227274,3.0003114 17.044434,3.0000016 Z M 17.5,4.8105484 19.65039,6.0000007 17.5,7.189454 V 6.5214853 5.5209976 Z"/>
 <path style="fill:#007bff" d="m 15.955565,27.999998 c 0.18284,3.08e-4 0.366029,-0.04394 0.528809,-0.133302 0.323509,-0.177775 0.515625,-0.494079 0.515625,-0.845214 v -1.542481 -1.000488 -1.499999 c 0,-0.351134 -0.192116,-0.66745 -0.515625,-0.845215 C 16.32185,22.043929 16.139548,22 15.957029,22 c -0.183545,0 -0.366724,0.0454 -0.530272,0.136229 l -2.912109,1.611328 C 12.036303,24.013228 11.75,24.480867 11.75,24.999999 c 0,0.51913 0.28579,0.987258 0.764648,1.25244 l 2.912109,1.611327 c 0.162523,0.09059 0.345968,0.135922 0.528808,0.136232 z m -0.455566,-1.810547 -2.15039,-1.189452 2.15039,-1.189455 v 0.667969 1.000488 z"/>
 <path style="fill:#ffffff;opacity:0.2" d="M 16.5 1 A 14.5 14.5 0 0 0 2 15.5 A 14.5 14.5 0 0 0 2.0351562 16 A 14.5 14.5 0 0 1 16.5 2 A 14.5 14.5 0 0 1 30.980469 15.767578 A 14.5 14.5 0 0 0 31 15.5 A 14.5 14.5 0 0 0 16.5 1 z"/>
</svg>
