<svg xmlns="http://www.w3.org/2000/svg" width="32" height="32" version="1.1">
 <path style="opacity:0.2" d="m 5,27 c -0.069031,0 -0.1378477,0.0029 -0.2050781,0.0098 -0.06723,0.0068 -0.1321707,0.01793 -0.1972657,0.03125 -0.065095,0.01332 -0.128782,0.02935 -0.1914062,0.04883 -0.062624,0.01948 -0.1257286,0.0411 -0.1855469,0.06641 -0.059818,0.0253 -0.117151,0.05515 -0.1738281,0.08594 -0.056677,0.03079 -0.1128149,0.06367 -0.1660156,0.09961 -0.053201,0.03594 -0.1029547,0.07447 -0.1523438,0.115234 -0.049389,0.04076 -0.097336,0.08366 -0.1425781,0.128907 -0.045242,0.04524 -0.088146,0.09319 -0.1289063,0.142578 -0.04076,0.04939 -0.079291,0.09914 -0.1152343,0.152343 -0.035943,0.0532 -0.068819,0.109339 -0.099609,0.166016 -0.030791,0.05668 -0.060635,0.11401 -0.085937,0.173828 -0.025303,0.05982 -0.046926,0.122923 -0.066406,0.185547 -0.01948,0.06262 -0.035506,0.126311 -0.048828,0.191406 -0.013322,0.06509 -0.024421,0.130035 -0.03125,0.197266 C 3.0029371,28.862152 3,28.930969 3,29 c 0,0.06903 0.00294,0.137848 0.00977,0.205078 0.00683,0.06723 0.017928,0.132171 0.03125,0.197266 0.013322,0.06509 0.029348,0.128782 0.048828,0.191406 0.01948,0.06262 0.041103,0.125729 0.066406,0.185547 0.025303,0.05982 0.055147,0.117151 0.085937,0.173828 0.030791,0.05668 0.063666,0.112815 0.099609,0.166016 0.035943,0.0532 0.074474,0.102954 0.1152343,0.152343 0.04076,0.04939 0.083664,0.09734 0.1289063,0.142578 0.045242,0.04524 0.093189,0.08815 0.1425781,0.128907 0.049389,0.04076 0.099143,0.07929 0.1523438,0.115234 0.053201,0.03594 0.1093385,0.06882 0.1660156,0.09961 0.056677,0.03079 0.1140099,0.06063 0.1738281,0.08594 0.059818,0.0253 0.1229227,0.04693 0.1855469,0.06641 0.062624,0.01948 0.1263113,0.03551 0.1914062,0.04883 0.065095,0.01332 0.1300352,0.02442 0.1972657,0.03125 C 4.8621523,30.997063 4.9309692,31 5,31 h 15 c 1.104492,0 2,-0.895508 2,-2 0,-1.104492 -0.895508,-2 -2,-2 z"/>
 <path style="fill:#208453" d="M 4.9999999,26 H 20 c 1.104492,0 2,0.895508 2,2 0,1.104492 -0.895508,2 -2,2 H 4.9999999 C 3.8955077,30 3,29.104492 3,28 3,26.895508 3.8955077,26 4.9999999,26 Z m 0,0"/>
 <path style="opacity:0.2" d="M 9.0001258,3 C 7.8956336,3 7,3.895191 7,4.9996833 V 9.9995781 29 h 4.500629 15.499247 C 28.104367,29 29,28.057279 29,26.894636 V 25.000634 24.789273 4.9996833 C 29,3.895191 28.104367,3 26.999876,3 Z"/>
 <path style="fill:#e4e4e4" d="M 9.0001258,2 C 7.8956336,2 7,2.895191 7,3.9996833 V 8.9995781 28 h 4.500629 15.499247 C 28.104367,28 29,27.057279 29,25.894636 V 24.000634 23.789273 3.9996833 C 29,2.895191 28.104367,2 26.999876,2 Z"/>
 <path style="opacity:0.1" d="M 16.026785,8 12.31885,17.348157 C 11.567816,19.253596 10.964026,19.941755 10,20.047779 v 0.95222 h 5 v -0.95222 c -1.159424,-0.07102 -1.89678,-0.406094 -1.89678,-1.217281 0,-0.30007 0.06482,-0.582134 0.244479,-1.005232 L 13.641,17 h 4.035094 l 0.620458,1.88351 c 0.179655,0.494114 0.196325,0.582135 0.196325,0.723167 0,0.317074 -0.02351,0.423098 -0.742125,0.423098 L 17.5,20.047775 V 21 H 23 V 20.04778 C 22.069311,20.01177 21.808163,19.835731 21.464596,18.936524 L 17.267702,8 Z M 15.683218,11.756867 17.267702,16 h -3.233794 z"/>
 <path style="fill:#2ec27e" d="M 5.0000001,2 C 6.1083985,2 7,2.8916015 7,4 V 28 H 3 V 4 C 3,2.8916015 3.8916015,2 5.0000001,2 Z"/>
 <path style="fill:#208453" d="M 5.0000001,26 C 6.1044925,26 7,26.895508 7,28 7,29.104492 6.1044925,30 5.0000001,30 3.8955077,30 3,29.104492 3,28 3,26.895508 3.8955077,26 5.0000001,26 Z m 0,0"/>
 <path style="fill:#4c4759" d="M 16.026785,7 12.31885,16.348157 C 11.567816,18.253596 10.964026,18.941755 10,19.047779 v 0.95222 h 5 v -0.95222 c -1.159424,-0.07102 -1.89678,-0.406094 -1.89678,-1.217281 0,-0.30007 0.06482,-0.582134 0.244479,-1.005232 L 13.641,16 h 4.035094 l 0.620458,1.88351 c 0.179655,0.494114 0.196325,0.582135 0.196325,0.723167 0,0.317074 -0.02351,0.423098 -0.742125,0.423098 L 17.5,19.047775 V 20 H 23 V 19.04778 C 22.069311,19.01177 21.808163,18.835731 21.464596,17.936524 L 17.267702,7 Z M 15.683218,10.756867 17.267702,15 h -3.233794 z"/>
 <path style="fill:#c7c7c7" d="M 29,23.789405 C 29,24.956159 28.108397,26 27,26 H 9.0000001 C 7.8955079,26 7,26.837358 7,28 h 20 c 1.104494,0 2,-0.942656 2,-2.105298 z"/>
 <path style="opacity:0.1" d="m 22,15 h 3 v 4 h 2 L 23.5,23 20,19 h 2 z"/>
 <path style="fill:#2ec27e" d="m 22,14 h 3 v 4 h 2 L 23.5,22 20,18 h 2 z"/>
 <path style="fill:#ffffff;opacity:0.2" d="M 9 2 C 7.8955078 2 7 2.8955077 7 4 L 7 5 C 7 3.8955077 7.8955078 3 9 3 L 27 3 C 28.104491 3 29 3.8955077 29 5 L 29 4 C 29 2.8955077 28.104491 2 27 2 L 9 2 z"/>
 <path style="fill:#ffffff;opacity:0.2" d="M 5 2 C 3.8916014 2 3 2.8916015 3 4 L 3 5 C 3 3.8916015 3.8916014 3 5 3 C 6.1083984 3 7 3.8916015 7 5 L 7 4 C 7 2.8916015 6.1083984 2 5 2 z"/>
</svg>
