<svg xmlns="http://www.w3.org/2000/svg" width="32" height="32" version="1.1">
 <path style="opacity:0.2" d="M 27,20 C 27,26.075408 22.075408,31 16,31 9.924592,31 5,26.075408 5,20 5,13.924593 9.924592,9 16,9 c 6.075408,0 11,4.924593 11,11 z m 0,0"/>
 <path style="fill:#ff9800" d="M 27,19 C 27,25.075408 22.075408,30 16,30 9.924592,30 5,25.075408 5,19 5,12.924593 9.924592,8 16,8 c 6.075408,0 11,4.924593 11,11 z m 0,0"/>
 <path style="opacity:0.1" d="M 27,17 C 27,23.075407 22.075408,28 16,28 9.924592,28 5,23.075407 5,17 5,10.924592 9.924592,6 16,6 c 6.075408,0 11,4.924592 11,11 z m 0,0"/>
 <path style="fill:#ffeb3b" d="M 27,16 C 27,22.075407 22.075408,27 16,27 9.924592,27 5,22.075407 5,16 5,9.924592 9.924592,5 16,5 22.075408,5 27,9.924592 27,16 Z m 0,0"/>
 <path style="opacity:0.1" d="M 27,14 C 27,20.075407 22.075408,25 16,25 9.924592,25 5,20.075407 5,14 5,7.9245921 9.924592,3 16,3 22.075408,3 27,7.9245921 27,14 Z m 0,0"/>
 <path style="fill:#d546e6" d="M 27,13 C 27,19.075407 22.075408,24 16,24 9.924592,24 5,19.075407 5,13 5,6.9245921 9.924592,2 16,2 22.075408,2 27,6.9245921 27,13 Z m 0,0"/>
 <path style="fill:#ffffff;opacity:0.2" d="M 16 2 C 9.9245981 2 5 6.9245982 5 13 C 5 13.167594 5.004303 13.334236 5.0117188 13.5 C 5.273128 7.6567258 10.092193 3 16 3 C 21.907807 3 26.726872 7.6567258 26.988281 13.5 C 26.995697 13.334236 27 13.167594 27 13 C 27 6.9245982 22.075402 2 16 2 z"/>
 <path style="opacity:0.2;fill:none;stroke:#000000;stroke-linecap:round;stroke-dashoffset:26.4" d="m 11.578918,9.3277577 a 6.1049714,6.2512088 0 0 1 7.369352,-0.9934336 6.1049714,6.2512088 0 0 1 2.844464,7.0316379 6.1049714,6.2512088 0 0 1 -5.89695,4.633276 6.1049714,6.2512088 0 0 1 -5.8969492,-4.633277"/>
 <path style="fill:none;stroke:#000000;stroke-linecap:round;stroke-linejoin:round;opacity:0.2" d="m 12.5,10.499853 h -2 V 8.4998534 Z"/>
 <path style="fill:none;stroke:#ffc9ff;stroke-linecap:round;stroke-dashoffset:26.4" d="m 10.956759,9.0738082 a 6.1049714,6.2512088 0 0 1 7.348925,-2.0691873 6.1049714,6.2512088 0 0 1 3.592843,6.8827481 6.1049714,6.2512088 0 0 1 -5.763063,5.107197 6.1049714,6.2512088 0 0 1 -6.1366292,-4.628458"/>
 <path style="fill:none;stroke:#000000;stroke-linecap:round;opacity:0.2" d="M 18.500001,15.499853 16,13.999853 v -3.5"/>
 <path style="fill:none;stroke:#ffc9ff;stroke-linecap:round;stroke-linejoin:round" d="m 12.5,9.5 h -2 v -2 z"/>
 <path style="fill:none;stroke:#ffc9ff;stroke-linecap:round" d="M 18.500001,14.5 16,13 V 9.5"/>
</svg>
