<svg xmlns="http://www.w3.org/2000/svg" height="32" width="32" version="1.1">
 <circle cx="16" cy="17" r="14" style="opacity:.2"/>
 <circle cx="16" cy="16" r="14" style="fill:#f964a6"/>
 <path d="m16 2a14 14 0 0 0 -14 14 14 14 0 0 0 0.0215 0.586 14 14 0 0 1 13.9785 -13.586 14 14 0 0 1 13.979 13.414 14 14 0 0 0 0.021 -0.414 14 14 0 0 0 -14 -14z" style="opacity:.2;fill:#ffffff"/>
 <path d="m23 12v6h2v-6zm-15 2c-0.554 0-1 0.446-1 1v5c0 0.554 0.446 1 1 1h3c0.554 0 1-0.446 1-1v-5c0-0.554-0.446-1-1-1zm6 0s-1 0-1 1v2s0.0036 0.914841 1 1h2v2h-3s0 1 1 1h2s1 0 1-1v-2s0-1-1-1h-2v-2h3s0-1-1-1zm4 0v6c0 1 1 1 1 1h2c1 0 1-1 1-1v-6h-1v6h-2v-6zm-8.5 1c1.5 0 1.5 1.446 1.5 2v1c0 0.554 0 2-1.5 2s-1.5-1.446-1.5-2v-1c0-0.554 0-2 1.5-2zm13.5 4v2h2v-2z" style="opacity:.2"/>
 <path d="m23 11v6h2v-6zm-15 2c-0.554 0-1 0.446-1 1v5c0 0.554 0.446 1 1 1h3c0.554 0 1-0.446 1-1v-5c0-0.554-0.446-1-1-1zm6 0s-1 0-1 1v2s0.0036 0.914841 1 1h2v2h-3s0 1 1 1h2s1 0 1-1v-2s0-1-1-1h-2v-2h3s0-1-1-1zm4 0v6c0 1 1 1 1 1h2c1 0 1-1 1-1v-6h-1v6h-2v-6zm-8.5 1c1.5 0 1.5 1.446 1.5 2v1c0 0.554 0 2-1.5 2s-1.5-1.446-1.5-2v-1c0-0.554 0-2 1.5-2zm13.5 4v2h2v-2z" style="fill:#ffffff"/>
</svg>
