<svg xmlns="http://www.w3.org/2000/svg" width="32" height="32" version="1.1">
 <path style="opacity:0.2" d="M 4.0996094,3 C 2.9362094,3 2,3.9362093 2,5.0996094 V 15.25 28 28.900391 C 2,30.063791 2.9362094,31 4.0996094,31 H 16 27.900391 C 29.063791,31 30,30.063791 30,28.900391 V 28 5.0996094 C 30,3.9362093 29.063791,3 27.900391,3 H 16 Z"/>
 <path style="fill:#3b274f" d="M 4.1,2 C 2.9366,2 2,2.9365999 2,4.1 V 14.25 27 H 16 30 V 4.1 C 30,2.9365999 29.0634,2 27.9,2 H 16 Z"/>
 <path style="opacity:0.2" d="m 10,8 v 3 H 7 v 10 h 3 v 2 1 h 3 6 3 v -3 h 3 V 11 H 22 V 8 h -3 -6 z m 6,3 h 3 v 7 3 h -6 v -4 -3 h 3 z"/>
 <path style="fill:#23192d" d="m 2,27 v 0.9 C 2,29.0634 2.9366,30 4.1,30 H 16 27.9 C 29.0634,30 30,29.0634 30,27.9 V 27 H 16 Z"/>
 <path style="fill:#5491df" d="M 10,22 V 20 H 7 V 10 h 3 V 7 h 3 v 3 h -3 v 6 h 3 v 7 h -3 z"/>
 <path style="fill:#df605d" d="m 19,22 v -2 h 3 V 17 H 19 V 7 h 3 v 3 h 3 v 10 h -3 v 3 h -3 z"/>
 <path style="fill:#37955a" d="m 13,22 v -2 h 6 v 3 H 13 V 21.64 Z M 13,8.7 V 7 h 6 v 3 h -6 z"/>
 <rect style="fill:#f7e4d7" width="3" height="3" x="10" y="10"/>
 <rect style="fill:#f7e4d7" width="3" height="3" x="13" y="10"/>
 <rect style="fill:#f7e4d7" width="3" height="3" x="10" y="13"/>
 <rect style="fill:#f7e4d7" width="3" height="3" x="19" y="17"/>
 <path style="fill:#ffffff;opacity:0.2" d="M 10 7 L 10 8 L 13 8 L 19 8 L 22 8 L 22 7 L 19 7 L 13 7 L 10 7 z M 7 10 L 7 11 L 10 11 L 10 10 L 7 10 z M 22 10 L 22 11 L 25 11 L 25 10 L 22 10 z M 13 20 L 13 21 L 19 21 L 19 20 L 13 20 z"/>
 <rect style="opacity:0.2" width="28" height="1" x="2" y="27"/>
 <path style="fill:#ffffff;opacity:0.1" d="M 4.0996094 2 C 2.9362094 2 2 2.9362093 2 4.0996094 L 2 5.0996094 C 2 3.9362093 2.9362094 3 4.0996094 3 L 16 3 L 27.900391 3 C 29.063791 3 30 3.9362093 30 5.0996094 L 30 4.0996094 C 30 2.9362093 29.063791 2 27.900391 2 L 16 2 L 4.0996094 2 z"/>
</svg>
