<svg xmlns="http://www.w3.org/2000/svg" width="32" height="32" version="1.1">
 <rect style="opacity:0.2" width="28" height="28" x="2" y="3" rx="2.8" ry="2.8"/>
 <rect style="fill:#3f3f3f" width="28" height="28" x="2" y="2" rx="2.8" ry="2.8"/>
 <path style="opacity:0.2" d="M 19.003906,5.300004 C 18.781513,5.7476598 18.63918,5.264114 18.339844,5.4308634 18.243304,5.8345887 17.867916,5.2985172 17.736328,5.8136759 17.6047,6.0514744 17.292955,6.1252979 17.359375,6.503129 c -0.257749,0.1625853 -0.173819,0.7073096 -0.517578,0.6660156 -0.192584,0.355494 -0.312309,0.8331364 -0.496094,1.140625 -0.249377,0.1882816 -0.192774,0.5638036 -0.394531,0.8144532 -0.165833,0.2960925 -0.09614,0.6380156 -0.214844,0.9492192 -0.200978,-0.5587608 -0.38638,0.06649 -0.458984,0.277343 -0.379115,0.340472 -0.318495,0.969943 -0.5,1.431641 -0.156564,0.115449 -0.209221,0.828951 -0.337891,0.583984 -0.310689,-0.143767 -0.377352,0.428442 -0.537109,0.628906 -0.182208,0.214457 -0.229986,0.501617 -0.189453,0.916016 -0.103318,0.327566 -0.436944,0.523738 -0.392579,0.878906 0.05386,0.251137 -0.04874,0.681227 -0.230468,0.75586 -0.158236,-0.0261 -0.220459,0.05872 -0.251953,0.179687 -0.08926,-0.08252 -0.251717,-0.148113 -0.05859,-0.363281 0.262407,-0.358469 -0.236445,-0.393732 -0.101563,-0.564453 0.282859,-0.359569 -0.179053,-0.474517 0.185547,-0.769531 0.01873,-0.355045 -0.486371,-0.07998 -0.109375,-0.564454 -0.23562,-0.199773 -0.211896,-0.20399 -0.08789,-0.55664 -0.01054,-0.261201 -0.06632,-0.459511 0.08398,-0.728516 -0.174049,-0.210653 -0.145361,-0.371216 0.0332,-0.732422 0.117507,-0.215033 -0.02444,-0.39272 0.169922,-0.572265 0.127073,-0.243052 0.08838,-0.470276 0.267578,-0.705078 C 13.549378,9.8272514 12.840759,9.8571362 13.146484,9.6613321 13.508087,9.3880968 13.25687,9.1774644 13.349609,8.9015665 13.25327,8.6572943 13.066612,8.7809256 13.189453,8.425004 12.733962,8.4663159 13.024656,8.1165178 13.166016,7.7863321 13.435948,7.5155725 12.869053,7.4736108 13.0625,7.2160196 13.064563,6.9276009 12.573333,7.0593883 12.808594,6.6886759 12.432676,6.52496 12.861685,6.4807075 12.726562,6.1496134 12.284921,6.3442979 12.806342,5.799273 12.375,5.846879 12.137621,5.798102 11.781051,6.0216391 11.623047,5.889848 11.586987,5.80747 11.567827,5.6580271 11.435547,5.6964886 11.422927,6.0667789 10.94973,5.8107915 10.699219,5.8644573 10.442717,5.9148283 9.9571888,5.6397899 9.9335938,5.9855511 c 0.1442792,0.173295 0.6511612,0.4805804 0.5390622,0.5722656 -0.41274,0.068193 -0.06912,0.4910813 -0.04492,0.7070313 0.0598,0.2653771 -0.153922,0.5618062 -0.03516,0.8828124 C 10.275433,8.5734332 10.097242,7.9282898 9.9316406,7.8136759 9.3948391,7.6350215 10.016825,8.3698615 9.7871094,8.5773478 9.8355714,8.8995495 10.170969,9.1853817 9.875,9.4543009 9.840226,9.85843 9.8903872,10.190277 9.5410156,10.368363 c -0.078244,0.536958 0.1241922,1.07143 0.125,1.587891 0.076907,0.465842 0.4101964,0.900169 0.3007813,1.363281 -0.2660742,0.06454 -0.4482456,0.509108 -0.3964844,0.828125 -0.035172,0.26532 -0.2861297,0.526471 -0.265625,0.921875 -0.1235342,0.383437 0.2263749,0.552756 0.2675781,0.90625 0.174546,0.310244 -0.00781,0.58559 0.039063,0.94336 -0.060871,0.289129 0.2809318,0.654982 0.1699219,0.826171 0.1316996,0.575422 0.1179841,1.204438 0.4882815,1.666016 0.332015,-0.0603 0.481311,0.01436 0.507813,0.382813 -0.192827,0.363736 0.462399,0.492281 0.07422,0.574218 -0.196077,-0.326614 -0.32852,0.253027 -0.404296,0.40625 -0.03231,0.336197 -0.311174,0.72552 -0.123047,1.033203 0.305001,-0.09665 0.142253,-0.513177 0.287109,-0.757812 0.223835,-0.40779 0.04891,0.379813 0.06055,0.585938 -0.16939,0.435417 0.343781,0.470042 0.423828,0.09961 0.105599,-0.403677 0.09202,-0.822183 0.09375,-1.238281 0.216284,-0.26384 0.108459,-0.620056 0.203125,-0.947266 0.0288,-0.368607 0.03256,-0.746468 0.34375,-1.003906 0.135721,-0.251541 0.270277,-0.501091 0.417969,-0.744141 0.0012,0.0048 4.81e-4,0.0086 0.002,0.01367 -0.08363,0.266 -0.12354,0.574943 -0.222656,0.867187 -0.254669,0.360404 0.117886,0.736003 0.18164,1.076172 -0.139208,0.450354 -0.24499,0.914675 -0.359375,1.371094 -0.101096,0.229987 -0.201435,0.461518 -0.316407,0.679688 -0.04903,0.347567 0.113805,0.224424 0.240235,0.0332 0.03961,0.009 0.08344,0.0029 0.125,-0.01172 0.0194,0.06872 0.22476,0.06115 0.367187,0.103516 0.498794,0.256437 0.870894,0.705764 1.365235,0.980468 0.520251,0.399088 1.021677,0.813065 1.492188,1.269532 0.350003,0.324464 0.762756,0.620839 0.865234,1.121093 0.205215,0.388023 0.302922,0.85527 0.603515,1.183594 0.386991,-0.0028 -0.0093,-0.347285 -0.07617,-0.537109 -0.255135,-0.525039 -0.355302,-1.156781 -0.816406,-1.558594 -0.600555,-0.534986 -1.174449,-1.12289 -1.845703,-1.583984 -0.450328,-0.32144 -0.885029,-0.665943 -1.320313,-1.007813 -0.157566,-0.07672 -0.310719,-0.150757 -0.488281,-0.152344 -0.0092,0.007 -0.01325,0.01096 -0.02148,0.01758 -0.0018,-0.03268 -0.01155,-0.06891 -0.03516,-0.109376 0.03141,-0.119506 0.05774,-0.24188 0.08594,-0.363281 0.215068,-0.456836 0.427127,-0.915472 0.830078,-1.24414 0.618423,-0.855107 1.396273,-1.581198 1.994141,-2.451172 0.979425,-0.963087 2.163985,-1.680929 3.177734,-2.605469 0.868018,-0.641266 1.861147,-1.079268 2.845703,-1.507812 1.044447,0.194107 2.111483,0.263679 3.162109,0.412109 0.434283,-0.304788 -0.469785,-0.266659 -0.707031,-0.320313 -0.681775,-0.07898 -1.365172,-0.15472 -2.044922,-0.25 0.740265,-0.244961 1.468533,-0.534702 2.197266,-0.777343 0.511096,-0.064 0.869506,-0.43289 1.367187,-0.53711 0.142567,-0.02617 0.639108,-0.107955 0.257813,-0.291015 -0.462677,0.06481 -0.894491,0.2685 -1.285156,0.49414 -0.839128,0.205126 -1.609543,0.578205 -2.441407,0.826172 -1.550296,0.598461 -3.107913,1.300384 -4.320312,2.466797 -0.288266,0.234038 -0.589635,0.456607 -0.890625,0.681641 0.04411,-0.127075 0.04812,-0.282668 0.136719,-0.339844 0.16421,-0.186923 0.317701,-0.39834 0.490234,-0.570313 0.525947,-0.07911 0.171476,-0.494045 0.203125,-0.742187 0.277115,-0.145148 0.468253,-0.329454 0.638672,-0.517578 0.131553,-0.25433 0.282251,-0.350708 0.597656,-0.488282 -0.14212,-0.341087 0.538652,-0.237753 0.507813,-0.589843 -0.581941,-0.218015 0.07669,-0.159453 0.06055,-0.542969 0.375745,-0.07566 0.271563,-0.419263 0.244141,-0.492188 0.223489,-0.161072 0.743116,-0.238797 0.667969,-0.595703 -0.468777,-0.127587 0.638345,-0.350841 0.04883,-0.509765 -0.144234,-0.01204 0.742846,-0.3543 0.1875,-0.470703 -0.407541,-0.05697 0.388303,-0.225235 0.513672,-0.3671879 -0.03572,-0.3100898 0.341996,-0.2744135 0.488281,-0.5351562 -0.444982,-0.1628915 0.417015,-0.4399183 -0.02734,-0.6621094 -0.543402,-0.02871 -0.222468,-0.315726 0.136719,-0.3242187 0.461465,-0.094348 -0.13339,-0.4295273 -0.361328,-0.2832032 -0.06592,0.3173075 -0.543245,0.038589 -0.828125,0.2734375 -0.539059,0.2505691 -0.566799,0.095809 -0.05078,-0.1445312 0.31738,-0.042836 0.728623,-0.3661955 0.955078,-0.1972657 C 20.83094,7.7835707 21.287845,7.7376291 21.28125,7.4367228 20.941884,7.3063616 21.678236,7.390546 21.705078,7.1613321 21.399151,6.8588801 22.501809,7.0465733 22.082031,6.6730509 21.532622,6.5119351 20.96019,6.3884321 20.404297,6.300004 20.125519,6.2816317 20.062794,6.0676264 19.908203,5.831254 19.755189,5.3971132 19.547389,6.0630308 19.4375,5.7628946 19.302887,5.6022783 19.187286,5.4020357 19.003906,5.300004 Z m 0.01367,0.3105469 c 0.208028,0.1491858 0.462689,0.8558335 0.671875,0.46875 0.07656,-0.2496823 0.176301,0.206635 0.265625,0.2851562 C 19.723358,6.667569 19.476071,7.0739653 19.285154,7.4171915 19.528499,6.99721 19.361864,6.7413816 19.296874,6.5910196 19.601116,6.0112 18.949282,6.3570552 19.011718,6.7726602 c -0.08354,0.2542445 -0.269881,1.0455717 0.173828,0.8496094 -0.394469,0.7945384 -1.146149,1.3536906 -1.462891,2.1992188 -0.349086,0.6864976 -0.75591,1.3395636 -1.103515,2.0273436 -0.496272,0.68466 -0.989073,1.373561 -1.306641,2.164063 -0.269535,0.529401 -0.695004,0.96704 -0.904297,1.533203 -0.304024,-0.334767 -0.0694,-0.724981 -0.06836,-1.033203 -0.190313,-0.222923 -0.11687,-0.719468 -0.08203,-1.023438 -0.421082,-0.152711 -0.245225,0.588295 -0.240234,0.853516 0.01285,0.454058 -0.07987,0.997467 0.207031,1.392578 0.207729,0.266477 -0.271549,0.262132 -0.267578,-0.228516 -0.147604,-0.612333 -0.541663,-0.282017 -0.18164,0.166016 0.07196,0.343731 0.406158,0.661548 0.128906,0.96875 -0.194179,0.434865 -0.247719,-0.473301 -0.328125,-0.673828 -0.435947,-0.153996 -0.04911,0.649361 -0.002,0.9375 0.131624,0.161078 -0.169982,0.642255 -0.273438,0.53125 -0.188773,-0.209956 0.11786,-1.025181 -0.285156,-0.650391 -0.01958,0.330434 -0.441295,0.451012 -0.304687,0.9375 -0.08589,0.465562 0.465307,0.432054 0.230468,0.0098 0.01444,-0.680925 0.0282,-0.386361 0.316406,-0.01172 -0.158984,0.528689 -0.584144,0.951573 -0.873046,1.416016 -0.09993,0.571509 -0.30127,0.02317 -0.296875,-0.238282 0.06771,-0.156982 0.185135,-0.310282 0.167968,-0.492187 0.508822,0.212267 0.235422,-0.208336 0.146485,-0.402344 0.07428,-0.164503 -0.05491,-0.317337 -0.15625,-0.351562 0.07243,-0.111966 0.147711,-0.221566 0.230468,-0.328125 -0.07585,-0.225192 0.0027,-0.371192 0.06836,-0.625 0.05014,0.100176 0.134628,0.138687 0.207031,-0.02344 0.110819,-0.201328 0.259115,-0.466265 0.279297,-0.734375 0.282958,-0.01735 0.432894,-0.49268 0.511719,-0.771484 0.01407,-0.447106 0.194177,-0.826681 0.40625,-1.232422 -0.06648,-0.396918 0.186392,-0.709349 0.279297,-1.082031 0.254125,-0.499894 -0.03266,0.316497 0.05078,0.507812 0.07892,0.40427 -0.07943,0.914032 0.193359,1.244141 0.364375,-0.204332 -0.07338,-0.637637 0.04883,-1.035156 0.0043,-0.38548 -0.105054,-0.724935 0.173828,-0.921876 0.07469,-0.392269 0.206941,-0.540537 0.322266,-0.865234 0.109855,-0.369417 0.149528,-0.756162 0.285156,-1.11914 0.338918,-0.26611 0.181744,-0.366279 0.574219,-0.283204 0.231952,-0.4904477 0.08971,-1.0558469 0.474609,-1.4628902 0.2928,-0.1087742 0.130361,-0.5548694 0.324219,-0.7773438 C 16.873161,7.9667193 16.80292,7.4108477 17.078079,7.4699569 17.342973,7.2999437 17.302026,6.873717 17.57222,6.78441 17.49435,6.3838825 17.718185,6.2458211 17.91011,5.9816756 c 0.05666,-0.3500588 0.498112,0.1651176 0.550782,-0.3007812 0.123094,-0.032442 0.477751,0.4209123 0.55664,-0.070312 z m -0.373047,0.3398437 c -0.366861,0.3092701 -0.272647,0.9085637 -0.388672,1.3476563 0.01139,0.3446644 -0.146358,0.7743606 0.07031,1.0605469 0.381876,-0.1782571 0.486737,-0.3096155 0.408203,-0.7753907 0.04626,-0.415402 0.0584,-0.8386761 0.169922,-1.2402343 -0.171443,-0.066219 -0.249909,0.043839 -0.291016,0.2109374 0.04088,-0.1821017 0.08549,-0.3611096 0.138672,-0.53125 l -0.02539,-0.037109 z m -1.017578,0.027344 c 0.01855,0.053881 -0.09243,0.1317682 0,0 z m -7.236328,0.099609 c 0.219991,0.066572 0.641608,-0.065367 0.726563,0.1191406 -0.322254,0.2003668 0.389408,0.4495449 -0.208985,0.3046875 0.0017,0.2323861 0.683393,0.7726863 0.191406,0.3828125 -0.313812,-0.1612495 -0.3289,-0.4927495 -0.613279,-0.7304686 l -0.05078,-0.041016 z m 1.876953,0.00781 C 12.199328,6.2474186 11.90659,6.3812348 11.8125,6.3722696 11.575886,6.0392703 12.075649,6.1492741 12.267578,6.0851602 Z m -0.80664,0.00781 c 0.362147,0.4391328 -0.404995,0.140885 0,0 z m 0.783203,0.2910156 c 0.164601,0.043255 0.02605,0.4350301 -0.08203,0.5976562 -8.94e-4,0.6182298 0.392043,-0.189742 0.333985,0.076172 -0.334944,0.2514129 -0.04167,0.5990563 -0.271485,0.7265676 -0.236302,0.1944815 -0.07947,0.7136281 -0.205078,0.2285156 -0.06042,-0.3867449 -0.178977,-0.8611106 -0.0918,-1.2128906 0.01031,-0.2501576 0.168763,-0.2293618 0.316407,-0.4160156 z m 8.072265,0.064453 c 0.350388,0.2225881 0.896587,0.1715554 1.3125,0.3398437 -0.381451,-2.544e-4 -0.378691,0.3761597 -0.6875,0.4003907 -0.428117,0.1765273 -0.995235,0.1824762 -1.277344,0.5996093 0.309841,0.3051593 -0.612664,0.3159985 -0.644531,0.7265626 0.12091,0.072039 -0.647301,0.7249967 0.117188,0.5664062 -0.201839,-0.3335929 0.516376,-0.3839412 0.779297,-0.5351562 0.482385,-0.3311077 0.298476,0.2655275 0.748046,0.3046874 0.182636,0.055309 -0.724518,0.3960255 -0.169921,0.515625 -0.434412,0.07109 -0.386993,0.4022098 -0.664063,0.5273438 -0.324885,0.040631 -0.677336,0.4715483 -0.169922,0.5292973 -0.345827,0.05207 -0.464373,0.403383 -0.277344,0.505859 -0.850981,0.04894 -1.71564,0.424113 -2.330078,1.011719 0.231041,0.314174 0.594603,-0.320973 0.921875,-0.365234 0.381818,-0.216272 0.814046,-0.353188 1.25,-0.402344 0.389629,0.224546 -0.154882,0.288204 -0.349609,0.441406 -0.288936,0.222406 -0.656991,0.193 -0.978516,0.417969 -0.530726,0.227951 -1.074715,0.424598 -1.597656,0.669922 0.618916,-0.761004 0.983702,-1.678473 1.496094,-2.50586 0.299192,-0.7252982 0.77168,-1.3471148 1.279297,-1.9355468 0.318266,-0.3681502 0.352717,-0.9717219 0.902343,-1.0371094 0.377397,-0.1636587 0.868454,-0.2214472 1.177735,-0.3632812 -0.04557,-0.3597723 -0.55741,-0.00574 -0.789063,-0.013672 -0.278318,0.098502 -0.837093,0.369819 -0.408203,-0.099609 0.03691,-0.2009887 0.353098,-0.1635103 0.359375,-0.2988284 z m -8.898437,0.082031 c 0.336533,-0.054672 0.301984,0.8198257 0.103517,0.3105524 -0.04663,-0.099712 -0.07882,-0.2034456 -0.103515,-0.3105468 z m 7.171875,0.1386718 c -0.029,0.206164 -0.02611,0.452653 -0.05664,0.5917969 -0.03306,0.2036032 -0.06892,1.1678049 -0.07227,0.5332031 0.0034,-0.3738785 0.05273,-0.7553941 0.128906,-1.125 z m -8.083985,0.1386719 c 0.444582,0.065911 0.650232,0.5536288 0.865235,0.9179687 0.03435,0.3375003 -0.257123,-0.4896641 -0.517578,-0.4980468 -0.165883,0.063064 -0.286327,-0.3126389 -0.347657,-0.4199219 z m 7.677735,0.00977 c -0.363863,0.1305412 -0.271421,0.688643 -0.306641,1.0175781 -0.136255,0.2926799 0.138216,0.9553624 0.298828,0.4140626 -0.172066,-0.2704523 -0.0325,-0.6985649 -0.02344,-1.0234376 0.01957,-0.124958 0.200403,-0.3168707 0.03125,-0.4082031 z m -6.744141,0.3984375 c 0.01485,1.119e-4 0.03346,0.00226 0.05469,0.00586 0.297243,0.2069692 0.234493,0.6544831 0.326171,1.0195312 0.124324,1.4328136 -0.142858,2.8606504 -0.113281,4.2929684 0.0628,0.508764 -0.153722,-0.306598 -0.251953,-0.441406 -0.165917,-0.751234 -0.776036,-1.302064 -1.201172,-1.917968 -0.2917645,0.09829 -0.15028,-0.215829 -0.175781,-0.453125 0.231429,-0.1225469 0.249699,-0.444359 0.119141,-0.7207031 -0.01621,-0.089161 -0.02043,-0.4999199 0.02344,-0.4492188 0.243464,0.0089 0.590273,0.3637971 0.4375,-0.15625 -0.112531,-0.3749722 -0.09162,-0.8325323 0.285156,-0.3886719 0.334418,0.164758 0.521824,0.8658281 0.08008,0.4277344 -0.522886,-0.2456458 -0.08323,0.5391275 0.03516,0.7617188 0.235321,0.3506038 0.188574,0.6166213 -0.132813,0.1601562 -0.324485,-0.5730176 -0.567612,-0.08535 -0.27539,0.328125 0.16405,0.3184594 0.444214,0.5889024 0.537109,0.9335934 -0.256462,-0.280137 -0.487931,-0.59637 -0.757812,-0.8554684 -0.28496,0.2875424 0.355594,0.6315344 0.517578,0.9296874 0.322513,0.138141 0.273639,1.055824 0.527343,0.503906 -0.02777,-0.414046 -0.36025,-0.46912 -0.08984,-0.714843 -0.03824,-0.244634 -0.465051,-0.72621 -0.4375,-0.775391 0.210481,0.1355124 0.582106,0.888478 0.71875,0.439453 C 11.577066,10.092625 11.20932,9.7850218 11.462891,9.5285196 11.341484,9.2096103 11.1147,8.8504663 11.478516,9.3390665 11.442336,9.7001436 11.958645,9.8459164 11.761719,9.3214884 11.559173,9.0242478 11.147173,8.8006232 11.539062,8.5285196 11.463746,8.137277 11.266649,7.9435366 11.597656,7.7668009 11.672298,7.5855903 11.216721,7.214342 11.439453,7.2160196 Z m 6.230469,0.011719 c -0.349586,0.1808607 -0.212371,0.7168645 -0.34375,1.0527344 -0.0027,0.5068518 -0.210987,1.0455634 -0.02148,1.53125 0.370736,-0.021457 0.0385,-0.6867685 0.201171,-0.96875 0.0069,-0.532273 0.194309,-1.0715721 0.214844,-1.5820313 z m -4.958984,0.046875 c 0.309594,0.2125063 -0.600935,0.4697922 0,0 z M 10.79492,7.4503936 c 0.09052,0.031336 -0.0044,0.061181 0,0 z m 0.03516,0.037109 c 0.186815,0.1604948 0.521272,0.7056102 0,0 z m 9.882813,0.023437 c 0.261566,0.1735972 -0.309389,0.261801 -0.501953,0.2929687 -0.549237,0.2693619 -0.289913,-0.080272 0.09375,-0.1738281 0.135911,-0.039738 0.27208,-0.080146 0.408203,-0.1191406 z m -7.945313,0.203125 c 0.395578,0.1445518 -0.32796,0.218122 -0.441406,0.3144531 0.103755,-0.1437542 0.296121,-0.214505 0.441406,-0.3144531 z m 4.427734,0.1269531 c -0.2025,0.3720799 -0.12875,0.8744743 -0.228515,1.2949219 -0.254061,0.3913759 0.20271,0.9488704 0.224609,0.3320313 -0.04349,-0.5004954 0.179603,-1.086449 0.128906,-1.5996094 l -0.03711,-0.025391 z m 3.605469,0.2578125 c 0.04644,-0.019793 0.02336,0.07123 0,0 z m -8.041015,0.00977 c -0.05148,0.4028991 -0.524531,0.4431679 -0.679688,0.7929687 -0.0137,-0.1300895 0.01182,-0.1968194 0.125,-0.2636719 -0.0741,-0.3010708 0.331267,-0.4392047 0.554688,-0.5292968 z m 3.99414,0.3300781 c -0.367581,0.1846371 -0.220239,0.7575149 -0.277344,1.1191406 0.04221,0.4177191 -0.110381,0.9564221 0.205079,1.2753901 0.390223,-0.260876 -0.126339,-0.499073 0.02539,-0.929687 8.93e-4,-0.4616935 -0.01876,-0.938134 0.125,-1.3789062 l -0.02734,-0.052734 z m -4.201172,0.2871093 c 0.0045,-0.0016 0.007,-0.00112 0.0078,0.00195 0.454319,-0.028696 0.174337,0.3208719 0.412109,0.4765625 -0.151714,0.2474595 0.04304,0.3989337 -0.27539,0.6777343 0.115156,0.3239156 0.486188,0.1126486 0.09961,0.5957026 -0.192982,-0.258007 -0.615358,0.309586 -0.742187,0.527344 0.159867,0.411289 0.689037,-0.602054 0.552734,-0.267578 0.04452,0.294761 -0.6848,0.368959 -0.53711,0.767578 0.426905,-0.02987 -0.47718,0.837181 0.19336,0.515625 0.210043,-0.491317 -0.06477,0.0848 0.18164,0.210938 -0.158614,-0.02495 -0.536763,0.503192 -0.507812,0.291015 -0.03979,-0.832135 0.08275,-1.658916 0.125,-2.488281 0.250268,0.0036 0.189043,-0.4752294 0.582031,-0.4921873 0.05971,-0.4049293 -0.852122,0.179397 -0.253906,-0.2792969 0.53444,-0.1529716 0.315199,-0.6255542 -0.0918,-0.21875 -0.259313,0.2154366 0.186543,-0.2942866 0.253906,-0.3183594 z M 20.01758,8.8839908 C 19.341616,8.9987356 18.672489,9.3033716 18.169922,9.7628946 18.072202,10.318533 18.684984,9.5311657 18.978516,9.487504 19.327688,9.2392793 19.79612,9.2220012 20.146484,9.034379 l 0.0059,-0.058594 z m -7.835937,0.9335937 c 0.04821,-0.00697 0.05461,0.1181625 -0.02344,0.011719 0.0085,-0.00747 0.01655,-0.010723 0.02344,-0.011719 z m 7.076171,0.00586 c -0.54839,0.1796525 -1.205396,0.3450645 -1.53125,0.8554685 0.243416,0.480456 0.315226,-0.255485 0.683594,-0.291015 0.29443,-0.205733 0.730626,-0.200995 0.984375,-0.429688 0.01737,-0.073765 -0.05783,-0.1572144 -0.136719,-0.1347655 z m -2.916015,0.054687 c -0.266062,0.3052065 -0.106142,0.8160735 -0.160156,1.2089835 -0.01367,0.272688 -0.01735,1.166313 0.3125,0.716797 -0.194848,-0.592132 -0.0059,-1.27633 -0.07227,-1.886718 L 16.386713,9.88985 Z m -3.816408,0.046871 c -0.550413,-0.040878 -0.446446,1.0153965 -0.308594,0.4414065 0.05139,0.04056 0.592602,-0.347075 0.308594,-0.4414065 z m -2.458985,0.3710945 c 0.286289,0.41013 0.621395,0.792297 0.892578,1.216797 -0.428354,-0.536788 -0.448152,0.07636 -0.01172,0.328125 0.345198,0.293502 0.429606,0.752758 0.634765,1.126953 0.288002,0.03519 0.131979,0.840022 0.05664,0.927733 -0.556062,-0.318455 -0.895878,-0.881339 -1.306641,-1.339843 -0.23865,0.386141 -0.3609746,-0.413805 -0.4433591,-0.65625 0.028359,-0.233868 -0.1055587,-0.711269 0.1035156,-0.234375 0.2970895,0.588367 0.7432055,1.080324 1.2304685,1.513672 0.190022,0.380478 0.392561,-0.07787 0.103516,-0.238282 C 10.897231,12.333007 10.4359,11.655657 10.0332,10.995316 9.7666315,11.117779 9.7727801,11.178394 9.7714814,10.815629 10.011817,11.002401 10.122035,10.4775 10.066403,10.296098 Z m 8.896485,0.197265 c -0.498387,0.0681 -0.970774,0.337728 -1.341797,0.652343 0.219266,0.409097 0.545763,-0.24742 0.902344,-0.302733 0.126833,-0.09108 0.835931,-0.08184 0.439453,-0.34961 z m -3.316407,0.269532 c -0.283455,0.247972 -0.123696,0.767189 -0.197265,1.130858 0.03183,0.301765 -0.180804,1.021374 0.242187,0.935547 -0.05469,-0.628841 0.0081,-1.332518 0.05274,-1.986328 -0.01344,-0.04246 -0.0533,-0.07619 -0.09766,-0.08008 z m -3.197265,0.5 c 0.314722,0.295173 -0.37687,0.187571 0,0 z m 2.867187,0.396483 c -0.01513,-6.69e-4 -0.02998,0.0017 -0.04492,0.0078 -0.267332,0.39483 -0.184608,0.946867 -0.1875,1.404296 -0.113451,0.518191 0.627746,0.544043 0.283204,0.169922 -0.14276,-0.489156 -0.03983,-1.023981 0.05273,-1.507812 -0.01555,-0.04252 -0.05813,-0.07221 -0.103516,-0.07422 z m 11.669922,0.123047 c -0.03403,-0.0011 -0.07484,0.0023 -0.123047,0.01172 -0.52775,0.03691 -1.082778,-0.0061 -1.591797,0.121093 0.02912,0.34562 0.622953,0.09145 0.908204,0.136719 0.386544,-0.05261 0.630687,-0.07695 0.771484,0.232422 0.387158,-0.05892 0.547715,0.144376 0.08594,0.244141 -0.313046,0.151263 -0.769077,0.0418 -0.970703,0.322265 -0.239083,0.02716 -0.449766,0.32736 -0.65039,0.289063 -0.205076,-0.263756 -0.674455,-0.07542 -0.978516,-0.173828 -0.399339,0.0059 -0.79917,-0.118022 -1.189453,-0.107422 0.208641,0.562781 -0.52606,0.230219 -0.894531,0.242187 -0.648085,0.128661 0.301398,0.321386 0.611328,0.302735 0.439807,0.0012 0.903857,0.188246 1.326172,0.07422 -0.369376,-0.36907 -0.246364,-0.124029 0.292968,-0.158203 0.551298,-0.123652 0.05919,0.385682 0.621094,0.328125 -0.378433,0.07546 -0.860349,0.06323 -1.132812,0.3125 -0.320386,0.06272 -0.717834,0.3362 -0.992188,0.109375 -1.031113,-0.132116 -2.076046,-0.09901 -3.109375,-0.18164 -0.09712,0.435637 0.361368,0.502873 0.929688,0.441407 0.645142,0.0018 1.298005,0.05222 1.923828,0.212891 -0.51793,0.190785 0.428026,0.3468 -0.363281,0.40039 -0.244822,0.117905 -0.917848,0.08645 -0.75,0.453125 0.08903,0.189547 -0.581896,0.238165 -0.78711,0.125 -1.043365,-0.06548 -2.091919,-0.01796 -3.132812,-0.109375 -0.227991,0.391584 0.659955,0.233848 0.960937,0.279297 0.582057,0.02091 1.350102,0.0071 1.814453,0.06055 -0.262041,0.205911 -0.745381,0.03374 -1.099609,0.08203 -0.465117,-0.01573 -0.935806,-0.02445 -1.392578,-0.119141 -0.491784,0.110909 0.297943,0.370983 0.638672,0.3125 0.626129,0.05918 1.255324,0.03455 1.882812,0.05469 0.519854,-0.212906 0.335269,0.06058 -0.150391,0.08398 -0.73999,0.10094 -1.500675,-0.110786 -2.248046,-0.150389 -0.322405,-0.0042 -0.664715,-0.127039 -0.978516,-0.03906 -0.09697,0.128441 -0.87926,0.274922 -0.220703,0.339843 0.335131,-0.01656 0.477045,-0.250117 0.888672,-0.09961 0.578891,0.0538 1.155866,0.126319 1.734375,0.181641 0.477524,0.254825 -0.209006,0.33754 -0.458985,0.230469 -0.709835,-0.08191 -1.422804,-0.122961 -2.136718,-0.125 -0.247054,0.415365 0.626343,0.170038 0.923828,0.251953 0.21255,0.03828 1.113449,0.03466 0.816406,0.113281 -0.430424,0.07554 -0.434292,0.352083 -0.978516,0.132813 -0.682323,-0.06076 -1.359286,-0.163112 -2.046875,-0.07422 -0.21257,0.448192 0.644467,0.09137 0.933594,0.220703 0.562806,-0.0012 0.708616,0.06434 0.07227,0.167969 -0.37989,0.180929 -0.85455,-0.09485 -1.195313,0.126953 0.238753,0.259207 0.640502,0.166109 0.951172,0.169922 0.250958,-0.03258 1.031335,0.282581 0.871094,-0.111328 -0.522966,-0.06149 0.310545,-0.101422 0.294922,-0.285156 0.157603,0.06009 0.935875,0.0815 0.607422,0.173828 -0.520078,0.04103 -0.56557,0.470821 -0.01758,0.369141 0.576651,-0.08026 0.295168,0.108934 -0.09375,0.222657 -0.290783,0.150315 -0.841666,0.03369 -0.894531,0.378906 -0.334252,0.146821 -0.647315,0.382498 -1.009765,0.203125 -0.480323,0.03128 -1.004658,-0.05765 -1.455078,0.105469 0.03225,0.410659 -0.589958,0.192539 -0.900391,0.300781 -0.405453,0.137442 -0.67444,0.584215 -0.02344,0.433594 0.242415,-0.224837 0.76284,-0.134317 1.115235,-0.175782 0.312223,-0.05583 0.518483,-0.240667 0.90625,-0.181641 0.462566,-0.06662 -0.301673,0.279346 -0.472656,0.302734 -0.07235,0.506932 -0.437217,-0.02905 -0.666016,0.119141 -0.285373,0.281638 -0.793962,0.04215 -1.039063,0.34375 0.484709,0.242643 -0.428443,0.28191 -0.65625,0.335937 -0.497926,-0.09174 -0.611786,0.646122 -0.142578,0.316407 0.5418,-0.311885 -0.196871,0.239535 0.283203,0.169922 0.220091,-0.004 1.07015,0.0029 0.605469,-0.257813 -0.700037,0.03897 0.141168,-0.173797 0.414063,-0.146484 0.374855,0.02785 0.640506,-0.169575 1.037109,-0.117188 0.576037,-0.204073 -0.05835,0.245545 -0.259766,0.304688 -0.448152,0.07828 -0.200497,0.481318 0.164063,0.414062 0.608002,0.01778 0.104166,0.04552 -0.228516,0.05859 -0.797694,0.02944 -1.598742,-0.0018 -2.376953,-0.15625 -0.328787,0.32805 0.497989,0.293896 0.751953,0.345703 0.186906,0.04844 1.121821,0.01717 0.548828,0.08008 -0.564809,0.06647 -1.123697,0.199574 -1.683593,0.277344 -0.260342,0.434157 0.553913,0.102231 0.808593,0.0957 0.949231,-0.179258 1.926043,-0.24606 2.863282,-0.451171 0.408543,0.120553 0.582235,-0.410003 0.08594,-0.419922 -0.188496,-0.07766 -0.717348,0.0041 -0.708984,-0.09375 0.213061,-0.139372 0.659389,-0.329173 0.535156,-0.630859 -0.138519,-0.154438 0.306932,-0.224603 0.400391,-0.423828 -0.08282,-0.306396 0.231941,-0.348822 0.492187,-0.542969 0.148657,-0.256887 0.593988,-0.292982 0.861328,-0.466796 0.322933,-0.0599 0.445172,-0.290567 0.78125,-0.326172 0.254416,-0.129509 0.680043,-0.193189 0.751953,-0.5 -0.513342,-0.20697 -0.371898,-0.181257 0.113282,-0.322266 0.529909,-0.12919 -0.235251,-0.446354 0.394531,-0.449219 0.21181,-0.129961 0.898536,-0.109618 0.652344,-0.457031 0.426737,-0.119995 0.941738,-0.127894 1.296875,-0.386719 -0.365486,-0.308152 -0.113478,-0.22749 0.255859,-0.345702 0.377769,-9.63e-4 0.233793,-0.413953 0.355469,-0.44336 0.381367,-0.147164 0.87571,-0.137175 1.179687,-0.412109 -0.09873,-0.295171 0.53459,-0.141653 0.720703,-0.371094 -0.304427,-0.341234 0.09939,-0.193911 0.335938,-0.451172 0.455367,-0.16516 1.004306,-0.07922 1.423828,-0.322265 -0.07037,-0.347325 -0.642583,-0.220491 -0.06641,-0.427735 0.355554,-0.284374 0.819229,-0.272016 1.25,-0.349609 0.06899,-0.299542 0.502362,-0.199743 0.626953,-0.511719 0.235058,-0.203114 -0.175659,-0.394511 -0.392578,-0.363281 -0.05249,-0.03757 0.02529,-0.273325 -0.212891,-0.28125 z m -12.191406,0.08203 c 0.04786,0.0039 -0.114641,0.09232 -0.03516,0.0039 0.01672,-0.0037 0.02832,-0.0045 0.03516,-0.0039 z m -2.615234,0.04102 c 0.03588,-0.0044 0.05717,0.08789 -0.01563,0.0098 0.0055,-0.0053 0.0105,-0.0091 0.01563,-0.0098 z m 6.376953,0.07422 c 0.108047,0.154147 -0.193134,0.462849 -0.441407,0.597656 -0.213723,0.142361 -0.559338,0.309811 -0.882812,0.451172 -0.281906,0.06871 -0.963722,0.643165 -0.417969,0.527343 0.397454,-0.275084 0.871774,-0.524689 1.318359,-0.648437 0.459408,9.62e-4 -0.294559,0.179488 -0.367187,0.355469 -0.113611,0.357655 -0.587996,0.04983 -0.884766,0.3125 -0.5141,0.185505 -1.126763,0.356235 -1.443359,0.828125 0.217918,0.257355 0.595624,-0.37506 0.982422,-0.41211 0.255097,-0.0618 0.805548,-0.435248 0.867187,-0.173828 -0.268057,0.05919 -0.301666,0.459417 -0.533203,0.451172 -0.24629,-0.191493 -0.607483,0.176164 -0.892578,0.261719 -0.381292,-0.01673 -0.841018,0.794011 -0.302734,0.417969 0.323051,-0.172464 0.749992,-0.393617 1.033203,-0.5 0.132784,0.347782 -0.355515,0.349935 -0.623047,0.496093 -0.323851,0.127243 -0.728112,0.307937 -0.814453,0.640625 -0.4462,-0.02684 -0.584453,0.834159 -0.201172,0.41211 0.237193,-0.29355 0.742451,-0.304742 1.019531,-0.574219 -0.418721,-0.161863 -0.346459,-0.02993 0.144532,-0.291016 0.191966,-0.128562 0.826694,-0.291505 0.310546,-0.07422 -0.131097,0.218746 -0.380926,0.347188 -0.505859,0.59961 -0.198339,0.291549 -0.533855,0.133961 -0.876953,0.371094 -0.09674,0.355333 -0.523617,0.445675 -0.626953,0.84375 0.216042,0.269799 -0.434644,0.385186 -0.544922,0.65625 -0.218286,0.575943 0.439697,-0.114372 0.658203,-0.253907 0.534768,-0.114947 -0.0058,-0.302006 0.220703,-0.546875 0.225088,-0.247362 0.727817,-0.235239 0.84375,-0.521484 -0.661528,0.0075 -0.312001,-0.03436 0.138672,-0.152344 0.13018,-0.27858 -0.02039,0.182937 0.05859,0.28711 -0.644024,0.493222 -1.257529,1.019118 -1.69336,1.71289 -0.553935,0.622568 -1.092718,1.255446 -1.607421,1.910156 -0.109447,0.09928 -0.202662,0.211215 -0.28711,0.328126 0.02031,-0.07185 0.03959,-0.143819 0.0625,-0.214844 0.122389,-0.58017 0.451183,-1.07172 0.820313,-1.519532 0.34417,-0.600125 0.610718,-1.242004 1.019531,-1.804687 0.389283,-0.840939 0.739444,-1.712215 1.320312,-2.445313 0.240383,-0.471541 0.433497,-0.972155 0.730469,-1.412109 0.324228,0.365496 0.404972,-0.240015 0.789063,-0.222656 0.540634,-0.222629 1.083156,-0.438306 1.609375,-0.693359 z m 6.166015,0.179687 c -0.232083,0.40761 0.635652,0.174241 0.923828,0.240234 0.282926,0.148032 0.983118,-0.104339 0.388672,-0.208984 -0.436425,-0.04339 -0.874891,-0.01456 -1.3125,-0.03125 z m 2.742188,0.05273 c -0.02807,0.05132 -0.01825,-0.0027 0,0 z m -3.896485,0.261719 c -0.246374,0.408528 0.622162,0.203769 0.894532,0.275391 0.409348,-0.03241 0.86088,0.123552 1.238281,-0.01172 -0.0938,-0.319673 -0.605983,-0.139002 -0.88086,-0.208984 -0.417432,-0.01745 -0.835765,-0.01569 -1.251953,-0.05469 z m -11.234375,0.05078 c 0.01885,0.353627 -0.671166,0.565631 -0.189453,0.242188 0.04967,-0.08879 0.116963,-0.171022 0.189453,-0.242188 z m 2.460938,0.195313 c -0.344797,0.266995 -0.153714,0.821936 -0.19336,1.210937 0.279957,0.603542 0.296082,-0.113866 0.222657,-0.4375 -0.107946,-0.265623 0.214703,-0.644748 -0.0293,-0.773437 z m -4.564453,0.0332 c 0.373284,0.569725 0.854354,1.087638 1.427734,1.439453 -0.0105,0.399388 -0.03642,0.716924 -0.380859,0.296875 -0.413492,-0.294933 -0.589878,-0.789759 -0.841797,-1.210937 -0.362029,0.278098 -0.213536,-0.20749 -0.195313,-0.490235 z m 15.80664,0.285156 c 0.06529,0.07502 -0.147719,0.10296 0,0 z m -13.763671,0.01953 c 0.129113,0.155173 -0.570749,0.889161 0.05469,0.640626 0.162813,-0.280137 -0.01927,0.266112 -0.205078,0.388671 -0.0011,0.640978 0.425407,-0.230709 0.34375,0.115235 -0.09032,0.260357 -0.563647,0.738723 -0.144531,0.792968 -0.11444,0.15048 -0.460307,0.44417 -0.4375,0.632813 -0.287863,0.461204 0.238534,0.222363 0.439453,0.06641 -0.07529,-0.253651 -0.216797,-0.297393 0.255859,-0.501953 -0.05245,0.299828 -0.186385,0.61389 -0.464844,0.765625 0.409459,0.35927 -0.642729,0.429901 -0.113281,0.720703 0.318455,-0.314514 0.388344,0.234244 0.205078,0.173828 -0.620975,-0.105318 -0.339385,0.392556 -0.08984,0.212891 -0.160539,0.28438 0.134665,0.375348 -0.242188,0.732422 -0.110451,0.123285 -0.262694,0.703559 -0.328125,0.460937 0.194851,-0.900833 0.04149,-1.826075 0.214844,-2.728515 0.06631,-0.732694 0.16265,-1.475495 0.199219,-2.222657 0.423227,0.147136 0.05777,-0.245347 0.3125,-0.25 z m 12.955078,0.181641 c 0.005,0.0076 -0.0673,0.03911 -0.03711,0.0039 0.02565,-0.0061 0.03544,-0.0064 0.03711,-0.0039 z m -4.011719,0.349609 c -0.281657,0.390402 0.62294,0.173663 0.900391,0.271485 0.544813,0.06931 1.100671,0.08522 1.638671,0.191406 0.448587,-0.239364 -0.371346,-0.310339 -0.572265,-0.314453 -0.655311,-0.05822 -1.307177,-0.16043 -1.966797,-0.148438 z M 10.201172,13.6418 c 0.241378,0.376676 0.588401,0.674749 0.820312,1.052735 0.269377,0.1584 0.682632,0.261967 0.523438,0.675781 -0.08856,0.606297 -0.138983,1.243736 -0.119141,1.83789 -0.571758,-0.507231 -1.202887,-0.979278 -1.5468748,-1.683593 -0.277915,0.07013 -0.4119967,-0.335343 -0.3046874,-0.630859 0.1308354,-0.432193 0.3300269,0.285366 0.4414062,0.460938 0.35812,0.488179 0.848542,0.889079 1.130859,1.423828 0.502185,0.124501 -0.0601,-0.466623 -0.08594,-0.642578 -0.380795,-0.578781 -0.882538,-1.111624 -1.2304689,-1.699219 -0.087481,-0.23834 0.1273565,-0.345606 0.087891,-0.582031 -0.079765,-0.324465 0.2888499,0.217762 0.2832029,-0.212891 z m 1.367187,0.396484 c 0.08712,0.166009 -0.110518,0.04217 0,0 z m -1.507812,0.01953 c -0.2885843,0.295309 0.328658,0.686467 0.558594,0.927735 0.348964,0.169392 0.656795,0.776921 0.867187,0.507812 -0.08674,-0.392115 -0.624286,-0.470968 -0.841797,-0.794921 -0.260237,-0.16307 -0.368695,-0.448814 -0.583984,-0.640626 z m 12.539062,0.191407 c 0.244713,-0.02144 1.155681,0.228953 0.611329,0.240234 -0.12178,-0.100862 -0.36547,-0.213192 -0.611329,-0.240234 z m -3.49414,0.232422 c -0.263356,0.328054 0.463203,0.20107 0.257812,0.527343 0.737642,0.05178 1.476683,-0.07298 2.212891,0.04102 0.166401,-0.122183 0.967374,-0.293317 0.277344,-0.375 -0.808519,0.107083 -1.622423,0.08997 -2.414063,-0.119141 -0.115077,-0.0072 -0.223359,-0.06153 -0.333984,-0.07422 z m -6.699219,0.34375 c -0.05008,0.202081 -0.10749,-0.0054 0,0 z m 6.421875,0.308593 c -0.197229,-1.38e-4 -0.394834,0.0014 -0.591797,0.0098 -0.144747,0.415286 0.745867,0.147979 1.085938,0.220703 0.594002,0.03138 1.190109,0.08098 1.78125,0.134766 0.433767,-0.321811 -0.504537,-0.250556 -0.748047,-0.294922 -0.312429,-0.02346 -0.625038,-0.04805 -0.9375,-0.07031 -0.19713,0.003 -0.392615,1.39e-4 -0.589844,0 z M 11.28125,15.41133 c -0.02355,0.09478 -0.03455,-0.0072 0,0 z m -1.5410156,0.333984 c 0.1502999,0.248826 0.5813986,0.809103 0.1171875,0.326172 -0.055027,-0.09726 -0.076098,-0.220248 -0.1171875,-0.326172 z M 12.800781,15.9543 c -0.02296,0.156477 -0.05832,0.307823 -0.203125,0.347656 -0.04238,0.0264 -0.06385,0.07051 -0.07813,0.119141 -0.03773,-0.164581 -0.0486,-0.27426 0.234375,-0.425782 0.01837,-0.01482 0.03274,-0.02772 0.04687,-0.04101 z m 3.111328,0.03516 c 0.129392,0.101939 0.04254,0.06319 0,0 z m -3.61914,0.02539 c 0.09988,0.05115 0.02099,0.129979 0,0 z m 3.660156,0.193359 c 0.0032,0.0023 0.0034,0.0054 0.0039,0.0078 -0.0111,0.0084 -0.02211,0.01701 -0.0332,0.02539 -0.02778,0.0097 -0.05011,0.0072 0.0293,-0.0332 z m -5.9804688,0.285156 c 0.2972148,0.28644 0.6506778,0.553457 0.8183598,0.939453 0.645562,0.230645 -0.386394,-0.857335 0.0293,-0.455078 0.204853,0.199607 0.509418,0.42394 0.585938,0.607422 -0.0466,0.341535 -0.02336,0.867778 -0.429688,0.419922 -0.399039,-0.248877 -0.612511,-0.703045 -0.90039,-1.048828 -0.2979911,0.275998 0.282787,0.707809 0.470703,0.988281 0.158437,0.291802 0.70241,0.340629 0.71875,0.638672 -0.0137,0.194049 -0.159469,0.802117 -0.369141,0.617188 -0.01626,-0.03165 -0.04098,-0.06351 -0.06445,-0.0957 0.402292,0.0041 -0.0193,-0.528399 -0.125,-0.710938 -0.23854,-0.252161 -0.357718,-0.814236 -0.685547,-0.822266 -0.051535,-0.285095 -0.2495379,-0.487228 -0.1757809,-0.75 0.2350599,0.01504 0.1483843,-0.205467 0.1269531,-0.328125 z m 8.9218748,0.6875 c 0.01254,0.0062 -0.06067,0.03915 -0.04687,0.0059 0.02996,-0.0075 0.04269,-0.0079 0.04687,-0.0059 z m -8.86914,0.56836 c 0.249675,0.445809 0.591377,0.849115 0.783203,1.320312 -0.238889,-0.299458 -0.697373,-0.554058 -0.34375,-0.0078 0.174024,0.278212 -0.247054,0.04187 -0.1875,-0.173828 -0.12697,-0.361047 -0.202892,-0.746416 -0.251953,-1.138672 z m -0.0059,0.01758 c 0.03723,0.0513 -0.1450248,0.07309 0,0 z m 2.3125,0.02539 c 0.01221,0.181568 -0.297698,-0.01383 0,0 z m 4.613281,0.0332 c -0.555081,0.02217 -1.10968,0.05882 -1.664062,0.09375 -0.393548,0.03933 -0.999102,0.521394 -0.232422,0.486328 0.09407,-0.303731 0.603756,-0.110777 0.88086,-0.199219 0.294468,-0.06336 0.809157,0.15242 0.941406,-0.146484 0.224418,0.04605 0.377529,-0.244237 0.07422,-0.234375 z m -0.707031,0.96875 c -0.291792,0.04413 -0.762624,0.01937 -1.121093,0.07226 0.05696,-0.107259 0.593632,-0.04699 0.810546,-0.06836 0.103576,-8.94e-4 0.206971,-0.0031 0.310547,-0.0039 z m -0.0098,0.121093 c 0.03555,0.07355 -0.01746,0.06116 0,0 z m -5.070313,0.638672 c 0.01736,0.317832 -0.175569,0.457164 0,0 z m 4.150391,0.228516 c 0.126287,0.128478 -0.553196,0.104856 -0.771485,0.15039 -0.453766,0.03046 0.441923,-0.194 0.626953,-0.140624 0.04829,-0.0035 0.09623,-0.0063 0.144532,-0.0098 z m -4.240235,0.320312 c 8.25e-4,0.07018 -0.04222,0.03138 0,0 z m -0.02344,0.02539 c 0.02268,0.0169 -0.04502,0.07405 0,0 z M 6.34375,20.49141 c -0.6479328,-0.01044 -1.37229,0.0811 -1.8261719,0.585938 0.045021,0.465705 0.3784583,-0.131357 0.6347657,-0.167969 0.4618995,-0.210012 1.0006291,-0.194382 1.5,-0.167969 -0.3986661,0.02086 -0.7839156,0.159803 -1.1855469,0.177735 -0.2683478,0.40318 0.5174511,0.142412 0.7695312,0.117187 0.1952512,-0.131938 0.9563774,0.09564 0.5976563,-0.234375 -0.3652461,-0.119066 0.3310147,0.0053 0.4492187,-0.02344 0.7415101,-0.07396 1.5037016,-0.03507 2.2011719,0.257812 0.2016424,0.04885 0.820746,0.369826 0.685547,-0.0293 C 9.29421,20.726519 8.3860711,20.374252 7.4492188,20.551957 7.0787119,20.557557 6.7129365,20.5023 6.34375,20.49141 Z m 2.1386719,0.498047 c -0.8313884,0.08842 -1.6279304,0.396068 -2.4316407,0.617188 -0.3893345,0.342969 0.1817337,0.229172 0.4023438,0.115234 0.7325878,-0.189001 1.4765195,-0.479416 2.2167969,-0.521484 0.0627,-0.121948 -0.089684,-0.199323 -0.1875,-0.210938 z m -3.7675781,0.08594 c 0.063337,0.01675 0.00935,0.16865 -0.035156,0.002 0.014183,-0.0045 0.026108,-0.0043 0.035156,-0.002 z m 0.1347656,0.154297 c -0.4152519,0.280782 0.050965,0.751246 0.3515625,0.908203 0.3151529,0.239448 0.4518036,-0.181318 0.060547,-0.234375 C 4.965784,21.76558 4.889148,21.50029 4.9570313,21.272662 l -0.017578,-0.01563 z m -0.4375,0.117187 c -0.013036,3.47e-4 -0.027719,8.48e-4 -0.042969,0.0039 -0.1316843,0.267985 0.1932293,0.592479 0.3691406,0.8125 0.9684062,0.863326 1.6674536,1.987948 2.6542969,2.830078 1.2740044,1.017652 2.8764191,1.432512 4.3613281,2.03125 1.012681,0.348409 2.096638,0.224707 3.148438,0.275391 0.476268,-0.04978 0.936227,-0.196341 1.416015,-0.220703 0.461097,-0.323198 0.04915,-0.389545 -0.257812,-0.541016 -0.105676,-0.38475 -0.552524,-0.177418 -0.208985,0.128907 -0.308248,-0.0569 -0.539024,-0.303747 -0.759765,-0.507813 -0.341278,0.186574 0.241057,0.540307 0.482422,0.654297 0.449571,0.136697 -0.153687,0.119634 -0.314453,0.207031 -0.430494,0.09068 -0.871955,0.02577 -1.308594,0.02734 0.293189,0.01869 0.89365,-0.359481 0.27539,-0.320313 -0.509083,0.03877 -0.340762,0.441117 -0.855468,0.3125 -0.326017,0.03446 -0.643351,-0.07349 -0.96875,-0.08203 0.332591,-0.286204 0.825691,-0.319863 1.166015,-0.544922 -0.24612,-0.298507 -0.734828,0.110462 -1.0625,0.199219 C 12.242612,26.922421 12.05268,26.962788 11.65625,26.73945 10.261652,26.177368 8.7598949,25.785352 7.5625,24.831254 6.9611298,24.569131 7.5449793,24.450756 7.1933594,24.229692 7.0028325,24.080732 6.6187515,23.328076 6.6621094,23.889848 6.7075326,24.035247 6.3004506,23.509507 6.1894531,23.391801 5.7575012,22.779719 5.1559735,22.317754 4.6933594,21.737504 4.5663004,21.626209 4.6076518,21.34167 4.4121094,21.346879 Z M 9.4375,21.430863 c -0.7778975,0.181315 -1.548558,0.488771 -2.2050781,0.945313 -0.4315445,0.442157 0.702478,0.525743 0.171875,0.154297 C 8.0257695,22.126649 8.8183055,21.79082 9.4882812,21.663285 9.6220007,21.607975 9.5558532,21.43619 9.4375,21.430863 Z m -3.6914062,0.421875 c -0.3328127,0.298999 0.072292,0.947495 0.4804687,0.960938 0.2126714,-0.27207 -0.4493951,-0.332358 -0.375,-0.691406 -0.00303,-0.100462 0.075749,-0.272659 -0.1054687,-0.269532 z m 0.7578124,0.570313 c -0.2989423,0.191902 8.791e-4,0.648105 0.2226563,0.787109 0.5592333,-0.01886 -0.1219106,-0.273233 -0.1191406,-0.55664 0.01287,-0.0948 0.058918,-0.232346 -0.1035157,-0.230469 z m 2.9570313,0.07031 C 8.9391572,22.691 8.3878968,22.948614 8.0371094,23.397658 7.6383044,23.385498 7.9281243,23.920374 8.1601562,24.01094 8.3158881,24.27227 8.868156,24.198653 8.4492188,23.93477 8.100164,23.772358 8.1031606,23.600428 8.359375,23.378129 8.6904558,23.025135 9.2103367,22.907759 9.5742188,22.633988 l -0.00391,-0.06055 z m 0.9042965,0.34961 c -0.4505023,0.18898 -0.9208495,0.46013 -1.2207028,0.849609 0.3106663,0.216074 0.6432319,-0.418289 1.0195308,-0.503906 0.114994,-0.07479 0.52056,-0.192808 0.201172,-0.345703 z m 1.867188,0.07226 c -0.697312,0.22102 -1.420832,0.487645 -1.982422,0.972664 0.162361,0.38083 0.680387,-0.336417 1.056641,-0.376953 0.328788,-0.179273 0.722347,-0.249435 1.037109,-0.429688 l 0.01172,-0.05859 z m -5.0214845,0.01172 c -0.3009841,0.1878 0.040784,0.555924 0.1855469,0.748047 C 7.6961471,23.949631 7.9566867,23.551714 7.5097656,23.46992 7.3453664,23.31601 7.3688715,23.026162 7.2109375,22.926957 Z m 6.2519535,0.550781 c -0.66601,0.381111 -1.483683,0.536187 -2.064453,1.042969 0.207955,0.29634 0.694536,-0.291138 1.072265,-0.341797 0.35799,-0.202897 0.87322,-0.27122 1.117188,-0.597656 l -0.01172,-0.04297 z m -5.9394535,0.386719 c -0.3175797,0.297674 0.1722902,0.699079 0.3867187,0.929688 0.2107209,0.307569 0.5703085,-0.02531 0.1640626,-0.160157 -0.2974959,-0.187669 -0.3672717,-0.5579 -0.5507813,-0.769531 z m 1.546875,0.06445 c -0.3006349,0.236363 0.202606,0.496799 0.2871094,0.751953 0.2704955,0.268764 0.5107143,-0.086 0.1269531,-0.201171 C 9.385155,24.273542 9.2238244,24.05308 9.0703125,23.928901 Z m 5.2128905,0.228516 c -0.438555,0.195486 -0.939858,0.386961 -1.259765,0.755859 0.164239,0.471433 0.433192,-0.252406 0.777343,-0.279297 0.123687,-0.120012 0.821759,-0.241207 0.482422,-0.476562 z m -5.7753905,0.152344 c -0.2937386,0.233165 0.1500943,0.737836 0.34375,0.966796 0.183872,0.35074 0.70363,0.171815 0.2460937,-0.0957 C 8.7478074,24.974976 8.7326663,24.523209 8.5078125,24.30977 Z m 1.5488285,0.08203 c -0.2890748,0.21655 0.186341,0.534958 0.398437,0.65625 0.174105,0.20911 0.519606,0.14887 0.56836,0.175781 0.10012,0.240467 0.557383,0.620286 0.693359,0.273438 -0.229275,-0.112277 -0.514403,-0.252365 -0.527344,-0.544922 -0.22017,0.21104 -0.423457,0.0018 -0.724609,-0.171875 -0.201463,-0.07235 -0.241172,-0.302222 -0.408203,-0.388672 z m 3.179687,0.511719 c 0.0371,-0.01287 0.01452,0.05539 0,0 z m 1.796875,0.107422 c -0.305975,0.07283 -0.713512,0.243972 -0.767578,0.583984 0.241919,0.02921 0.69385,-0.330455 0.880859,-0.501953 z M 9.7695312,25.137895 C 9.3338259,25.215945 9.8380954,26.172362 9.875,25.62227 9.756235,25.460158 9.9992244,25.193049 9.7695312,25.137895 Z m 2.1074218,0.01367 c -0.164802,0.174638 0.191621,0.451199 0.337891,0.636719 -0.265321,0.05283 -0.762731,0.216767 -0.820313,0.515625 0.255439,0.01949 0.758093,-0.204366 0.892578,-0.441406 0.150926,0.05229 0.40516,-0.16152 -0.04101,-0.365234 -0.08879,-0.139019 -0.170216,-0.353942 -0.369141,-0.345704 z m 0.796875,0.205079 c -0.219779,0.244308 0.362731,0.467119 0.521484,0.691406 0.483813,0.08715 -0.04882,-0.348794 -0.207031,-0.509766 -0.09582,-0.06911 -0.192166,-0.169492 -0.314453,-0.18164 z m 2.761719,0.128906 c -0.4749,0.275225 0.419332,0.252844 0,0 z M 10.875,25.51485 c -0.408281,0.02851 -0.53935,0.923574 -0.132812,0.419922 0.03516,-0.166217 0.499013,-0.286916 0.132812,-0.419922 z m 2.589844,0.06055 c -0.297149,0.290152 0.316543,0.602397 0.544922,0.599609 0.29823,0.09478 0.526728,0.75104 0.919922,0.498047 -0.109506,-0.212993 -0.460867,-0.306528 -0.601563,-0.5625 -0.177371,-0.211016 -0.420331,-0.08797 -0.623047,-0.298828 -0.111021,-0.0534 -0.115192,-0.19557 -0.240234,-0.236328 z m 2.474609,0.865234 c 0.02087,0.02586 -0.06902,0.05497 0,0 z m -0.130859,0.232422 c 0.0038,-3.66e-4 0.0065,-2.75e-4 0.0098,0.002 -0.06976,0.0546 -0.03658,6.1e-4 -0.0098,-0.002 z m 0.164062,0.08008 c 0.500183,0.08398 -0.09181,0.226182 -0.01367,0.08008 0.01423,-0.02387 0.01892,-0.05281 0.01367,-0.08008 z"/>
 <path style="fill:#87e133" d="m 6.3429649,20.192142 c -0.6479328,-0.01044 -1.3722895,0.08076 -1.8261714,0.585598 0.045021,0.465705 0.378823,-0.131236 0.6351303,-0.167848 0.4618995,-0.210012 1.00051,-0.195668 1.4998809,-0.169255 -0.3986661,0.02086 -0.7840397,0.16068 -1.185671,0.178612 -0.2683478,0.40318 0.518966,0.141687 0.7710461,0.116462 0.1952512,-0.131938 0.9550743,0.09607 0.5963532,-0.233948 -0.3652461,-0.119066 0.3311544,0.0052 0.4493584,-0.0235 0.7415101,-0.07396 1.5041589,-0.03552 2.2016292,0.257358 0.2016424,0.04885 0.8202114,0.369753 0.6850124,-0.02937 -0.8757119,-0.280516 -1.7832451,-0.632638 -2.7200975,-0.454933 -0.3705069,0.0056 -0.7372841,-0.04829 -1.1064706,-0.05918 z m 2.1390388,0.496826 c -0.8313884,0.08842 -1.627814,0.396792 -2.4315243,0.617912 -0.3893346,0.342969 0.1819809,0.229164 0.402591,0.115226 0.7325878,-0.189001 1.4766741,-0.478929 2.2169515,-0.520997 0.0627,-0.121948 -0.090202,-0.200526 -0.1880182,-0.212141 z m -3.8013926,0.08862 c 0.1134679,-0.03576 0.050865,0.190511 0,0 z m 0.1691894,0.151734 c -0.4152519,0.280783 0.05121,0.752113 0.3518077,0.90907 0.3151529,0.239448 0.4519817,-0.182634 0.060725,-0.235691 C 4.9663983,21.464759 4.8893346,21.19992 4.957218,20.972292 l -0.017452,-0.01477 z m -0.4807129,0.122192 c -0.1316843,0.267985 0.1928204,0.59107 0.3687317,0.811091 0.9684062,0.863326 1.6674939,1.988817 2.6543372,2.830947 1.2740044,1.017652 2.8770315,1.431925 4.3619405,2.030663 1.012681,0.348409 2.095899,0.225103 3.147699,0.275787 0.476268,-0.04978 0.936873,-0.196064 1.416661,-0.220426 0.461097,-0.323198 0.04854,-0.389675 -0.258422,-0.541146 -0.105676,-0.38475 -0.55243,-0.177376 -0.208891,0.128949 -0.308249,-0.0569 -0.539273,-0.304844 -0.760014,-0.50891 -0.341278,0.186574 0.241848,0.541119 0.483213,0.655109 0.449571,0.136697 -0.153264,0.119689 -0.31403,0.207086 -0.430494,0.09068 -0.87258,0.02664 -1.309219,0.02821 0.293189,0.01869 0.893554,-0.360066 0.275295,-0.320898 -0.509084,0.03877 -0.340641,0.441464 -0.855347,0.312847 -0.326017,0.03446 -0.644112,-0.07476 -0.969511,-0.0833 0.332591,-0.286204 0.827178,-0.319283 1.167502,-0.544342 -0.24612,-0.298507 -0.735242,0.110852 -1.062914,0.199609 -0.263247,0.309924 -0.452845,0.350206 -0.849275,0.126868 C 10.262246,25.877569 8.7605815,25.485696 7.5631866,24.531598 6.9618164,24.269475 7.5459097,24.151491 7.1942898,23.930426 7.0037629,23.781467 6.6191938,23.027582 6.6625517,23.589354 6.7079749,23.734753 6.3008863,23.208896 6.1898888,23.09119 5.7579369,22.479108 5.1566529,22.017143 4.6940388,21.436893 4.5585092,21.318178 4.613077,21.002589 4.3690876,21.051517 Z m 5.0676283,0.07922 c -0.7778975,0.181315 -1.5483383,0.488828 -2.2048584,0.94537 -0.4315445,0.442157 0.702474,0.525866 0.171871,0.15442 0.6214726,-0.403824 1.4142703,-0.740159 2.0842461,-0.867694 0.1337194,-0.05531 0.067093,-0.22676 -0.05126,-0.232087 z m 2.5150151,0.218871 c -0.355113,0.272772 0.0048,0.220354 0.219672,0.284267 0.498794,0.256437 0.870519,0.707282 1.364859,0.981986 0.520252,0.399088 1.023152,0.811747 1.493663,1.268214 0.350003,0.324464 0.763081,0.621683 0.865559,1.121937 0.205216,0.388023 0.302406,0.856017 0.602999,1.184341 0.386991,-0.0028 -0.0097,-0.348693 -0.07662,-0.538517 -0.255135,-0.525039 -0.355358,-1.157193 -0.816462,-1.559006 -0.600555,-0.534986 -1.175149,-1.122111 -1.846403,-1.583205 -0.450328,-0.32144 -0.883384,-0.666681 -1.318668,-1.008551 -0.157566,-0.07672 -0.311045,-0.149879 -0.488607,-0.151466 z m -6.2049576,0.204101 c -0.3328126,0.298999 0.071459,0.946433 0.4796357,0.959876 0.2126714,-0.27207 -0.4501273,-0.3323 -0.3757322,-0.691348 -0.00303,-0.100462 0.077314,-0.271655 -0.1039035,-0.268528 z m 0.7573247,0.569337 c -0.2989423,0.191902 -2.441e-4,0.647945 0.2215331,0.786949 0.5592333,-0.01886 -0.120307,-0.272287 -0.117537,-0.555694 0.01287,-0.0948 0.058438,-0.233132 -0.1039961,-0.231255 z m 2.9567876,0.07117 C 8.9391054,22.391852 8.3869919,22.648897 8.0362045,23.097941 7.6373995,23.085781 7.927759,23.6197 8.1597909,23.710265 8.3155228,23.971595 8.8687872,23.89902 8.44985,23.635135 8.1007952,23.472723 8.1035741,23.299866 8.3597885,23.077567 8.6908693,22.724573 9.2099553,22.606981 9.5738374,22.33321 l -0.00282,-0.05978 z m 0.9036863,0.349121 c -0.4505027,0.18898 -0.9200227,0.45883 -1.2198759,0.848309 0.3106662,0.216074 0.6429405,-0.416581 1.0192399,-0.502198 0.114994,-0.07479 0.520024,-0.193216 0.200636,-0.346111 z m 1.867798,0.07251 c -0.697312,0.221013 -1.420343,0.487148 -1.981933,0.972167 0.162361,0.38083 0.679259,-0.336592 1.055513,-0.377129 0.328788,-0.179273 0.723896,-0.249795 1.038658,-0.430048 l 0.01129,-0.05891 -0.123535,-0.106079 z m -5.0219735,0.01075 c -0.3009841,0.1878 0.040494,0.557148 0.1852573,0.749271 C 7.6953165,23.650498 7.956724,23.250913 7.5098029,23.169119 7.3454037,23.015203 7.3683305,22.72579 7.2103965,22.626585 Z m 6.2532985,0.550537 c -0.66601,0.381111 -1.484494,0.536549 -2.065264,1.043331 0.207956,0.29634 0.693976,-0.290521 1.071705,-0.34118 0.35799,-0.202897 0.874447,-0.27091 1.118415,-0.597346 l -0.01206,-0.04303 -0.112792,-0.06177 z m -5.9404323,0.388071 c -0.3175797,0.297674 0.1715293,0.69822 0.3859578,0.928829 0.2107209,0.307569 0.5721363,-0.02595 0.1658904,-0.160798 -0.2974958,-0.187669 -0.3683386,-0.5564 -0.5518482,-0.768031 z m 1.5468754,0.06446 c -0.3006349,0.236363 0.2028937,0.495459 0.2873971,0.750613 0.2704955,0.268764 0.5113289,-0.08625 0.1275677,-0.201426 C 9.3858829,23.972709 9.22365,23.75383 9.0701381,23.629651 Z m 5.2126479,0.228272 c -0.438555,0.195486 -0.939634,0.387083 -1.259542,0.755981 0.16424,0.471433 0.433326,-0.253751 0.777477,-0.280642 0.123687,-0.120012 0.821402,-0.239984 0.482065,-0.475339 z m -5.7752698,0.151733 c -0.2937386,0.233165 0.1505061,0.736991 0.3441618,0.965951 0.183872,0.35074 0.7037307,0.172558 0.2461945,-0.09496 C 8.7480236,24.674771 8.73237,24.223093 8.5075162,24.009654 Z m 1.5482178,0.08191 c -0.2890744,0.21655 0.188083,0.535314 0.400179,0.656606 0.174105,0.20911 0.517935,0.149052 0.566688,0.175963 0.100121,0.240467 0.557483,0.620301 0.693459,0.273453 -0.229275,-0.112277 -0.513828,-0.25344 -0.526769,-0.545997 -0.22017,0.21104 -0.424163,0.003 -0.725315,-0.170636 -0.201463,-0.07235 -0.241211,-0.302939 -0.408242,-0.389389 z m 3.179688,0.511597 c 0.0371,-0.01287 0.01452,0.05539 0,0 z m 1.797975,0.107422 c -0.305975,0.07283 -0.714301,0.244052 -0.768367,0.584064 0.241919,0.02921 0.694138,-0.330638 0.881147,-0.502136 l -0.112793,-0.08191 z M 9.7697238,24.83815 c -0.4357053,0.07805 0.068296,1.034036 0.1052006,0.483944 -0.118765,-0.162112 0.1244925,-0.42879 -0.1052006,-0.483944 z m 2.1068122,0.01343 c -0.164802,0.174637 0.192159,0.450992 0.338429,0.636512 -0.265321,0.05283 -0.762833,0.216799 -0.820415,0.515657 0.255439,0.01949 0.757119,-0.204735 0.891604,-0.441775 0.150926,0.05229 0.405815,-0.161588 -0.04036,-0.365302 -0.08879,-0.139019 -0.170339,-0.353331 -0.369264,-0.345092 z m 0.797607,0.205444 c -0.219779,0.244308 0.362266,0.465891 0.521019,0.690178 0.483813,0.08715 -0.04807,-0.347685 -0.206277,-0.508657 -0.09582,-0.06911 -0.192455,-0.169373 -0.314742,-0.181521 z m 2.762086,0.127563 c -0.4749,0.275225 0.419332,0.252844 0,0 z m -4.561403,0.02954 c -0.408281,0.02851 -0.540013,0.924605 -0.133476,0.420953 0.03516,-0.166217 0.499677,-0.287947 0.133476,-0.420953 z m 2.590211,0.06042 c -0.297149,0.290152 0.316828,0.60303 0.545207,0.600242 0.29823,0.09478 0.525347,0.751273 0.918541,0.49828 -0.109505,-0.212993 -0.459519,-0.30667 -0.600215,-0.562642 -0.177371,-0.211016 -0.421701,-0.08865 -0.624417,-0.299511 -0.111021,-0.0534 -0.114074,-0.195611 -0.239116,-0.236369 z m 2.474732,0.866082 c 0.02087,0.02586 -0.06902,0.05497 0,0 z m -0.12085,0.234985 c -0.07973,0.0624 -0.02642,-0.01782 0,0 z m 0.15442,0.07788 c 0.500183,0.08398 -0.09219,0.226334 -0.01405,0.08023 0.01423,-0.02387 0.0193,-0.05296 0.01405,-0.08023 z"/>
 <path style="fill:#fae84c" d="m 11.434763,5.3961182 c -0.01262,0.3702903 -0.485871,0.1151647 -0.736382,0.1688305 -0.256502,0.050371 -0.7412804,-0.225896 -0.7648754,0.1198652 0.1442794,0.173295 0.6518924,0.4816763 0.5397934,0.5733615 -0.41274,0.068193 -0.06948,0.4898246 -0.04528,0.7057746 0.0598,0.2653772 -0.154686,0.5619001 -0.03592,0.8829063 C 10.274954,8.2726293 10.097467,7.6276524 9.9318659,7.5130385 9.3950644,7.3343841 10.016881,8.0701591 9.787165,8.2776453 9.835627,8.599847 10.170477,8.8856243 9.874508,9.1545435 9.839734,9.5586726 9.889496,9.8895492 9.5401244,10.067636 c -0.078244,0.536958 0.1241247,1.072033 0.1249325,1.588494 0.076907,0.465842 0.4115461,0.899835 0.3021309,1.362947 -0.2660742,0.06454 -0.4485306,0.508948 -0.3967694,0.827965 -0.035172,0.26532 -0.2858364,0.527565 -0.2653317,0.922969 -0.1235342,0.383437 0.2265904,0.551718 0.2677936,0.905212 0.174546,0.310244 -0.00876,0.585357 0.038115,0.943127 -0.060871,0.289129 0.2818689,0.656668 0.170859,0.827858 0.1316996,0.575422 0.1170806,1.203423 0.4873777,1.665001 0.332015,-0.0603 0.482397,0.01422 0.508899,0.382672 -0.192827,0.363736 0.46077,0.49281 0.07259,0.574747 -0.196078,-0.326614 -0.328416,0.252307 -0.404192,0.40553 -0.03231,0.336197 -0.31105,0.725113 -0.122923,1.032796 0.305001,-0.09665 0.143177,-0.511517 0.288033,-0.756152 0.223835,-0.40779 0.04922,0.379724 0.06086,0.585849 -0.16939,0.435418 0.342491,0.469453 0.422538,0.09902 0.105599,-0.403677 0.09352,-0.822036 0.09525,-1.238134 0.216284,-0.26384 0.106744,-0.62078 0.20141,-0.94799 0.0288,-0.368607 0.03392,-0.745649 0.345108,-1.003087 0.226925,-0.420576 0.444377,-0.841339 0.739989,-1.221973 -0.08158,-0.242214 0.0158,-0.386488 0.0833,-0.679117 -0.02805,-0.311861 -0.199386,-0.439196 0.194613,-0.65017 0.417875,-0.337166 -0.307155,-0.261801 0.02552,-0.632451 0.262407,-0.358469 -0.238309,-0.393246 -0.103427,-0.563967 0.282859,-0.359569 -0.177958,-0.475792 0.186642,-0.770806 0.01873,-0.355045 -0.485695,-0.07944 -0.108699,-0.563915 -0.23562,-0.199773 -0.212626,-0.204687 -0.08862,-0.557337 -0.01054,-0.261201 -0.06569,-0.458802 0.08461,-0.727807 -0.174049,-0.210653 -0.145154,-0.370394 0.03341,-0.7316 0.117507,-0.215033 -0.02495,-0.394026 0.169413,-0.573571 0.127073,-0.243052 0.08713,-0.469614 0.266328,-0.7044168 C 13.548559,9.527436 12.840831,9.5574742 13.146556,9.3616701 13.508159,9.0884348 13.256845,8.8773468 13.349584,8.6014489 13.253245,8.3571767 13.065701,8.4818198 13.188542,8.1258982 12.733051,8.1672101 13.024366,7.8155792 13.165726,7.4853935 13.435658,7.2146339 12.868763,7.173729 13.06221,6.9161378 13.064273,6.6277191 12.572814,6.7595067 12.808075,6.3887943 12.432157,6.2250784 12.862486,6.1806048 12.727363,5.8495107 12.285722,6.0441952 12.806042,5.5002425 12.3747,5.5478485 12.137321,5.4990714 11.780767,5.721264 11.622763,5.5894727 11.586699,5.5070945 11.567046,5.3576569 11.434767,5.3961184 Z M 10.391429,5.777466 c 0.219991,0.066572 0.640204,-0.066347 0.725159,0.1181606 -0.322254,0.2003668 0.390201,0.4510133 -0.208192,0.3061559 0.0017,0.2323861 0.68266,0.7725543 0.190673,0.3826805 C 10.785255,6.4232133 10.769803,6.0917231 10.485424,5.854004 l -0.04978,-0.040532 z m 1.875854,0.00805 c -0.06825,0.1622583 -0.361156,0.2963222 -0.455246,0.287357 -0.236614,-0.3329993 0.263317,-0.2232431 0.455246,-0.287357 z m -0.807008,0.00672 c 0.362147,0.4391328 -0.404995,0.1408851 0,0 z m 0.784181,0.2927215 c 0.164601,0.043255 0.02479,0.4335891 -0.08329,0.5962152 -8.94e-4,0.6182298 0.392399,-0.1893739 0.334341,0.07654 -0.334944,0.2514078 -0.04145,0.5989536 -0.271262,0.7264649 -0.236302,0.1944815 -0.07827,0.7134382 -0.203879,0.2283257 -0.06042,-0.3867449 -0.1806,-0.8606464 -0.09342,-1.2124264 0.01031,-0.2501576 0.169862,-0.2284664 0.317506,-0.4151202 z M 11.417306,6.229977 C 11.753837,6.175299 11.719227,7.0494343 11.52076,6.540161 11.47413,6.440449 11.442,6.3370783 11.417306,6.229977 Z m -0.614989,0.1611332 c 0.0306,0.00543 -0.0146,0.030676 0,0 z M 10.505563,6.507931 c 0.444582,0.065911 0.649773,0.5541533 0.864776,0.9184933 0.03435,0.3375002 -0.256536,-0.4897852 -0.516991,-0.4981679 -0.165883,0.063064 -0.286455,-0.3130402 -0.347785,-0.4203232 z m 0.988282,0.4135746 c 0.297243,0.2069692 0.234299,0.6553259 0.325977,1.020374 0.124323,1.4328136 -0.143342,2.8607204 -0.113765,4.2930384 0.0628,0.508764 -0.151843,-0.307526 -0.250074,-0.442334 -0.165917,-0.751235 -0.776441,-1.301131 -1.201577,-1.9170351 -0.2917648,0.09829 -0.149887,-0.216095 -0.175388,-0.4533912 0.231429,-0.1225469 0.248209,-0.4452554 0.117651,-0.7215995 -0.01621,-0.089161 -0.01963,-0.4990639 0.02424,-0.4483628 0.243464,0.0089 0.589804,0.3626645 0.437031,-0.1573826 -0.112531,-0.3749722 -0.09197,-0.8324808 0.284807,-0.3886204 0.334418,0.164758 0.521496,0.8673866 0.07975,0.4292929 -0.522885,-0.2456458 -0.08235,0.5376863 0.03604,0.7602776 0.235321,0.3506038 0.188746,0.6164044 -0.132641,0.1599393 -0.324485,-0.5730176 -0.566927,-0.084979 -0.274705,0.3284959 0.16405,0.3184597 0.443711,0.5898469 0.536606,0.9345379 -0.256462,-0.280137 -0.487442,-0.5962487 -0.757324,-0.8553475 -0.284959,0.2875421 0.355019,0.6315355 0.517003,0.9296885 0.322513,0.138141 0.274342,1.055281 0.528046,0.503363 -0.02777,-0.414046 -0.361907,-0.469917 -0.0915,-0.71564 -0.03824,-0.2446335 -0.463561,-0.7257736 -0.43601,-0.7749546 0.210481,0.1355124 0.581154,0.8879066 0.717798,0.4388815 C 11.57686,9.7916449 11.209203,9.4845545 11.462774,9.2280523 11.341367,8.909143 11.114728,8.549951 11.478544,9.0385512 11.442364,9.3996283 11.957957,9.5460322 11.761031,9.0216042 11.558485,8.7243636 11.147186,8.500968 11.539075,8.2288644 11.463759,7.8376218 11.266168,7.6440204 11.597175,7.4672847 11.676793,7.2739934 11.154207,6.8639373 11.493846,6.9215065 Z m 1.216553,0.053714 c 0.309595,0.2125063 -0.600934,0.4697922 0,0 z m -1.916139,0.1759031 c 0.09052,0.031336 -0.0044,0.061181 0,0 z m 0.03625,0.036259 c 0.186815,0.1604948 0.521272,0.7056102 0,0 z m 1.937623,0.2269286 c 0.395578,0.1445518 -0.328324,0.2178709 -0.44177,0.314202 0.103755,-0.1437542 0.296485,-0.2142539 0.44177,-0.314202 z m -0.0081,0.3947757 c -0.05148,0.4028991 -0.525654,0.4424311 -0.680811,0.7922319 -0.0137,-0.1300895 0.01318,-0.1958716 0.126361,-0.2627241 -0.0741,-0.3010708 0.331029,-0.4394157 0.55445,-0.5295078 z m -0.198731,0.6190183 c 0.454319,-0.028696 0.173043,0.3202025 0.410815,0.4758931 -0.151714,0.2474595 0.04451,0.4001168 -0.273921,0.6789174 0.115156,0.3239157 0.484629,0.1117641 0.09805,0.5948192 -0.192982,-0.2580074 -0.61492,0.309009 -0.74175,0.526767 0.159867,0.411289 0.690047,-0.600723 0.553744,-0.266247 0.04452,0.294761 -0.686168,0.368095 -0.538477,0.766714 0.426905,-0.02987 -0.477534,0.836414 0.193006,0.514858 0.218182,-0.510356 -0.087,0.134157 0.21251,0.226346 -0.133181,-0.117192 -0.569464,0.503806 -0.538469,0.276645 -0.03979,-0.832135 0.08263,-1.658851 0.124878,-2.4882156 0.250268,0.00357 0.189357,-0.4749595 0.582345,-0.4919174 0.05971,-0.4049293 -0.852264,0.1785115 -0.254048,-0.2801824 0.53444,-0.1529716 0.316776,-0.624222 -0.09022,-0.2174178 -0.276601,0.229799 0.248583,-0.3662107 0.261542,-0.3169795 z m -0.402833,1.1010748 c 0.06761,-0.059751 0.0892,0.1216497 0,0 z m 0.366578,0.096679 c -0.550413,-0.040879 -0.44668,1.0144149 -0.308828,0.4404249 0.05139,0.04056 0.592836,-0.346093 0.308828,-0.4404249 z m -2.458621,0.3692653 c 0.286289,0.4101306 0.621784,0.7933976 0.892967,1.2178976 -0.428354,-0.536787 -0.447834,0.07681 -0.0114,0.32857 0.345198,0.293502 0.427955,0.751476 0.633114,1.125671 0.288002,0.03519 0.133038,0.84014 0.0577,0.927852 -0.556062,-0.318456 -0.895755,-0.880241 -1.306518,-1.338745 -0.23865,0.386142 -0.3607235,-0.414197 -0.443108,-0.656643 0.028359,-0.233868 -0.1057011,-0.711877 0.1033732,-0.234984 0.2970898,0.588367 0.7427258,1.079989 1.2299888,1.513337 0.190022,0.380478 0.392383,-0.07728 0.103338,-0.237693 -0.428938,-0.607622 -0.890322,-1.285344 -1.293022,-1.945685 -0.2665686,0.122462 -0.2592171,0.184203 -0.2605158,-0.178562 0.2403358,0.186772 0.3497138,-0.339613 0.2940818,-0.5210156 z m 2.383423,0.9667966 c 0.314722,0.295174 -0.37687,0.187572 0,0 z m -0.286011,0.652589 c 0.04409,-0.04237 0.08319,0.08929 0,0 z m 0.16919,0.610961 c 0.01885,0.353627 -0.669727,0.563797 -0.188014,0.240354 0.04967,-0.08879 0.115524,-0.169188 0.188014,-0.240354 z m -2.102784,0.226929 c 0.373284,0.569725 0.853999,1.087691 1.427379,1.439506 -0.0105,0.399388 -0.03533,0.717024 -0.379768,0.296975 -0.413492,-0.294933 -0.590295,-0.78892 -0.842214,-1.210098 -0.362029,0.278098 -0.214267,-0.207352 -0.196044,-0.490096 z m 2.043703,0.30481 c 0.129114,0.155172 -0.571956,0.889101 0.05348,0.640566 0.162813,-0.280137 -0.01942,0.266807 -0.205231,0.389366 -0.0011,0.640978 0.425824,-0.230958 0.344167,0.114986 -0.09032,0.260357 -0.563168,0.739795 -0.144052,0.79404 -0.11444,0.150479 -0.460544,0.442457 -0.437737,0.6311 -0.287863,0.461204 0.238238,0.222447 0.439157,0.06649 -0.07529,-0.253651 -0.215938,-0.297341 0.256718,-0.501901 -0.05245,0.299828 -0.18589,0.614075 -0.464349,0.76581 0.409459,0.35927 -0.643253,0.431099 -0.113805,0.721901 0.318455,-0.314514 0.387753,0.232724 0.204487,0.172308 -0.620975,-0.105318 -0.339202,0.393346 -0.08966,0.213681 -0.160539,0.28438 0.135565,0.375134 -0.241288,0.732208 -0.110451,0.123285 -0.263043,0.703367 -0.328474,0.460745 0.194851,-0.900833 0.04032,-1.825816 0.213675,-2.728256 0.06631,-0.732694 0.163446,-1.474896 0.200014,-2.222057 0.423228,0.147136 0.05817,-0.246333 0.312898,-0.250985 z m -2.071901,0.584106 c 0.241378,0.376676 0.587623,0.674563 0.819534,1.052548 0.269377,0.1584 0.682406,0.261778 0.523212,0.675592 -0.08856,0.606297 -0.138065,1.244149 -0.118223,1.838303 C 10.85481,16.400527 10.223733,15.929585 9.8797452,15.225269 9.6018301,15.295404 9.4662887,14.89001 9.5735979,14.594493 9.7044333,14.1623 9.9040717,14.879119 10.015451,15.05469 c 0.35812,0.488179 0.848301,0.890001 1.130618,1.424749 0.502185,0.124502 -0.06019,-0.467904 -0.08603,-0.643861 -0.380795,-0.578781 -0.882931,-1.111277 -1.2308622,-1.698872 -0.087481,-0.23834 0.1276928,-0.345484 0.088227,-0.58191 -0.079765,-0.324464 0.2903272,0.217174 0.2846802,-0.213479 z m 1.365601,0.396119 c 0.08712,0.166009 -0.110518,0.04217 0,0 z m -1.506592,0.02014 c -0.2885842,0.295308 0.327348,0.686284 0.557284,0.927552 0.348964,0.169392 0.658348,0.776986 0.86874,0.507877 -0.08674,-0.392115 -0.624449,-0.471187 -0.84196,-0.795141 -0.260237,-0.16307 -0.368775,-0.448477 -0.584064,-0.640288 z m 2.344483,0.768067 c -0.05008,0.202081 -0.10749,-0.0054 0,0 z m -1.123902,0.585449 c -0.02355,0.09478 -0.03455,-0.0072 0,0 z m -1.5415038,0.33435 c 0.1502999,0.248825 0.5810708,0.808289 0.1168592,0.325358 -0.055027,-0.09726 -0.07577,-0.219435 -0.1168592,-0.325358 z M 12.292792,15.714 c 0.09988,0.05115 0.02099,0.129979 0,0 z m -2.3203134,0.479371 c 0.2972144,0.28644 0.6500664,0.552628 0.8177484,0.938624 0.645562,0.230645 -0.38617,-0.857169 0.02952,-0.454912 0.204853,0.199607 0.510526,0.4249 0.587046,0.608382 -0.0466,0.341535 -0.02472,0.868082 -0.43105,0.420226 -0.399039,-0.248877 -0.612068,-0.703294 -0.899947,-1.049077 -0.297991,0.275998 0.282955,0.707539 0.470871,0.988011 0.158437,0.291802 0.702488,0.340047 0.718828,0.63809 -0.0137,0.194049 -0.159015,0.802103 -0.368687,0.617174 -0.174712,-0.339955 -0.83767,-0.764123 -0.432576,-0.138369 0.174024,0.278212 -0.245828,0.04112 -0.186274,-0.174582 -0.12697,-0.361047 -0.202744,-0.744534 -0.251805,-1.13679 0.255957,0.457026 0.608927,0.868146 0.797676,1.354835 0.417131,0.01197 -0.0094,-0.52675 -0.115862,-0.710598 -0.23854,-0.252161 -0.358074,-0.814813 -0.685903,-0.822843 -0.051535,-0.285095 -0.2496888,-0.486512 -0.1759318,-0.749284 0.2350598,0.01504 0.1477775,-0.206229 0.1263464,-0.328887 z m 0.046997,1.274292 c 0.03723,0.0513 -0.145025,0.07309 0,0 z m 1.138672,1.785889 c 0.01736,0.317832 -0.175569,0.457164 0,0 z m -0.08996,0.549195 c 8.25e-4,0.07018 -0.04222,0.03138 0,0 z m -0.02283,0.02552 c 0.02268,0.0169 -0.04502,0.07405 0,0 z"/>
 <path style="fill:#ce5ac3" d="m 25.059888,11.323122 c -0.462677,0.06481 -0.894373,0.267221 -1.285038,0.492861 -0.839128,0.205126 -1.608411,0.579298 -2.440275,0.827265 -1.550296,0.598461 -3.108159,1.299562 -4.320558,2.465975 -1.016355,0.825159 -2.203422,1.511285 -2.915088,2.644143 -0.553935,0.622568 -1.092937,1.255251 -1.60764,1.909962 -0.536564,0.486705 -0.722338,1.222015 -1.051209,1.84608 -0.07488,0.530844 0.34668,-0.03343 0.373349,-0.26721 0.288273,-0.561138 0.492055,-1.17875 0.99772,-1.591198 0.618423,-0.855107 1.395491,-1.580845 1.993359,-2.450819 0.979425,-0.963087 2.16405,-1.681567 3.177799,-2.606107 0.868018,-0.641266 1.862124,-1.079389 2.84668,-1.507934 1.044447,0.194108 2.110263,0.263787 3.160889,0.412217 0.434283,-0.304788 -0.470383,-0.267276 -0.707629,-0.32093 -0.681775,-0.07898 -1.363987,-0.154466 -2.043737,-0.249746 0.740265,-0.244961 1.468511,-0.534971 2.197244,-0.777612 0.511096,-0.064 0.868915,-0.432931 1.366596,-0.537151 0.142567,-0.02617 0.638833,-0.106736 0.257538,-0.289796 z m 1.803345,0.170531 c -0.52775,0.03691 -1.083493,-0.0049 -1.592512,0.122295 0.02912,0.34562 0.622784,0.09105 0.908034,0.136317 0.386544,-0.05261 0.632322,-0.07785 0.773119,0.231526 0.387158,-0.05892 0.547618,0.144215 0.08584,0.24398 -0.313046,0.151263 -0.770281,0.04258 -0.971907,0.323042 -0.239083,0.02716 -0.449015,0.326536 -0.649639,0.288239 -0.205076,-0.263756 -0.674829,-0.07373 -0.97889,-0.172143 -0.399339,0.0059 -0.799779,-0.118169 -1.190062,-0.107569 0.208641,0.562781 -0.525674,0.229301 -0.894145,0.24127 -0.648085,0.128661 0.302368,0.320849 0.612298,0.302198 0.439807,0.0012 0.904202,0.188708 1.326517,0.07468 -0.369376,-0.36907 -0.248044,-0.124579 0.291288,-0.158752 0.551298,-0.123652 0.0599,0.386878 0.621801,0.329321 -0.378433,0.07546 -0.860836,0.06228 -1.133299,0.311548 -0.320386,0.06272 -0.717956,0.336936 -0.99231,0.110111 -1.031113,-0.132116 -2.075245,-0.100012 -3.108574,-0.182642 -0.09712,0.435636 0.361439,0.503194 0.929759,0.441727 0.645142,0.0018 1.297814,0.05288 1.923637,0.213552 -0.51793,0.190784 0.428743,0.346538 -0.362564,0.400129 -0.244821,0.117905 -0.918459,0.08721 -0.750611,0.453888 0.08903,0.189547 -0.581008,0.237928 -0.786222,0.124763 -1.043365,-0.06548 -2.092506,-0.01857 -3.133399,-0.109982 -0.227991,0.391583 0.659356,0.23498 0.960338,0.280429 0.582057,0.02091 1.349485,0.0059 1.813836,0.05932 -0.262041,0.205912 -0.745239,0.03461 -1.099467,0.0829 -0.465117,-0.01573 -0.935953,-0.02581 -1.392725,-0.120497 -0.491784,0.110908 0.298578,0.370832 0.639307,0.312349 0.626129,0.05918 1.256288,0.03578 1.883776,0.05592 0.519854,-0.212907 0.335237,0.06077 -0.150423,0.08417 -0.739991,0.10094 -1.501777,-0.111645 -2.249148,-0.151249 -0.322405,-0.0042 -0.663411,-0.127167 -0.977212,-0.03919 -0.09697,0.128442 -0.880382,0.275907 -0.221825,0.340827 0.335131,-0.01656 0.477431,-0.251569 0.889058,-0.101061 0.578891,0.0538 1.156216,0.126355 1.734725,0.181677 0.477524,0.254825 -0.209318,0.339069 -0.459297,0.231998 -0.709835,-0.08191 -1.423689,-0.12398 -2.137603,-0.126019 -0.247054,0.415366 0.626793,0.170855 0.924278,0.25277 0.21255,0.03828 1.114342,0.03387 0.817299,0.112487 -0.430424,0.07554 -0.434753,0.352741 -0.978977,0.133471 -0.682323,-0.06076 -1.358739,-0.163292 -2.046328,-0.0744 -0.21257,0.448191 0.642989,0.09213 0.932116,0.221465 0.562806,-0.0012 0.70959,0.0634 0.07324,0.167026 -0.37989,0.180928 -0.855407,-0.09409 -1.19617,0.127709 0.238753,0.259207 0.641462,0.166161 0.952132,0.169975 0.250958,-0.03258 1.030363,0.281118 0.870122,-0.112791 -0.522966,-0.06149 0.311939,-0.100443 0.296316,-0.284177 0.157603,0.06009 0.934469,0.08037 0.606016,0.172702 -0.520078,0.04103 -0.564861,0.470912 -0.01687,0.369231 0.576651,-0.08026 0.295737,0.109179 -0.09318,0.222901 -0.290783,0.150315 -0.841725,0.03406 -0.89459,0.379277 -0.334252,0.146821 -0.648336,0.382901 -1.010786,0.203528 -0.480323,0.03128 -1.003827,-0.05702 -1.454247,0.106102 0.03225,0.410659 -0.5906,0.19119 -0.901033,0.299432 -0.405453,0.137442 -0.673572,0.585112 -0.02257,0.434491 0.242415,-0.224837 0.761906,-0.135666 1.114301,-0.177131 0.312223,-0.05583 0.518245,-0.239873 0.906012,-0.180847 0.462566,-0.06662 -0.301142,0.27956 -0.472125,0.302948 -0.07235,0.506931 -0.437394,-0.02942 -0.666193,0.118772 -0.285373,0.281639 -0.793379,0.04301 -1.03848,0.344609 0.484709,0.242643 -0.429666,0.282159 -0.657473,0.336186 -0.497926,-0.09174 -0.610006,0.64515 -0.140798,0.315435 0.5418,-0.311885 -0.198335,0.240323 0.281739,0.17071 0.220091,-0.004 1.071622,0.0029 0.606941,-0.257809 -0.700037,0.03897 0.140097,-0.173499 0.412992,-0.146186 0.374855,0.02785 0.639753,-0.169535 1.036356,-0.117149 0.576037,-0.204074 -0.05687,0.244774 -0.258282,0.303917 -0.448152,0.07828 -0.200733,0.480659 0.163827,0.413403 0.608002,0.01778 0.10374,0.04545 -0.228942,0.05852 -0.797694,0.02944 -1.597767,-0.0021 -2.375978,-0.156581 -0.328787,0.32805 0.497752,0.295166 0.751716,0.346973 0.186906,0.04844 1.121072,0.01588 0.548079,0.07879 -0.564809,0.06647 -1.123956,0.200211 -1.683852,0.277981 -0.260342,0.434156 0.553787,0.101838 0.808467,0.09531 0.949231,-0.179259 1.927191,-0.244798 2.86443,-0.44991 0.408543,0.120553 0.580768,-0.411449 0.08447,-0.421368 -0.188496,-0.07766 -0.717114,0.0051 -0.70875,-0.09279 0.213061,-0.139371 0.660828,-0.329821 0.536595,-0.631507 -0.138519,-0.154437 0.306735,-0.223752 0.400194,-0.422976 -0.08282,-0.306396 0.230661,-0.349372 0.490907,-0.54352 0.148657,-0.256887 0.594613,-0.29301 0.861953,-0.466825 0.322933,-0.0599 0.444564,-0.289472 0.780642,-0.325077 0.254416,-0.129509 0.681131,-0.194374 0.753041,-0.501185 -0.513342,-0.206969 -0.371972,-0.18172 0.113208,-0.322728 0.529909,-0.129191 -0.236314,-0.445963 0.393468,-0.448828 0.21181,-0.129962 0.900075,-0.110187 0.653883,-0.457599 0.426737,-0.119995 0.941583,-0.127656 1.29672,-0.38648 -0.365486,-0.308153 -0.11504,-0.227283 0.254297,-0.345495 0.377769,-9.63e-4 0.233819,-0.414063 0.355495,-0.44347 0.381367,-0.147164 0.876891,-0.136615 1.180868,-0.411549 -0.09873,-0.295171 0.533431,-0.141626 0.719544,-0.371067 -0.304427,-0.341234 0.100323,-0.194724 0.336873,-0.451985 0.455367,-0.16516 1.003721,-0.07877 1.423243,-0.321813 -0.07037,-0.347325 -0.641907,-0.220274 -0.06573,-0.427518 0.355554,-0.284374 0.819354,-0.271568 1.250125,-0.349161 0.06899,-0.299542 0.501173,-0.199673 0.625764,-0.511649 0.235058,-0.203114 -0.174939,-0.394314 -0.391858,-0.363084 -0.05999,-0.04294 0.0497,-0.346281 -0.335958,-0.270565 z m -2.14038,0.366578 c -0.232083,0.40761 0.635736,0.172835 0.923912,0.238828 0.282926,0.148032 0.983302,-0.102945 0.388856,-0.20759 -0.436425,-0.04339 -0.875159,-0.01455 -1.312768,-0.03124 z m 2.741943,0.05102 c -0.02807,0.05132 -0.01825,-0.0027 0,0 z m -3.89673,0.261842 c -0.246374,0.408528 0.623289,0.204028 0.895659,0.27565 0.409348,-0.03241 0.85929,0.124181 1.236691,-0.01109 -0.0938,-0.319673 -0.605385,-0.138367 -0.880262,-0.208349 -0.417432,-0.01745 -0.8359,-0.01721 -1.252088,-0.05621 z m 2.469361,0.565308 c 0.06529,0.07502 -0.147719,0.10296 0,0 z m -0.845947,0.205444 c 0.102601,-0.02421 -0.04025,0.04694 0,0 z m -3.97461,0.345093 c -0.281657,0.390402 0.623809,0.174442 0.90126,0.272264 0.544813,0.06931 1.09996,0.08481 1.63796,0.190993 0.448587,-0.239364 -0.371905,-0.311024 -0.572824,-0.315138 -0.655311,-0.05822 -1.306776,-0.160112 -1.966396,-0.148119 z m 1.383057,0.660644 c 0.244713,-0.02144 1.154393,0.227729 0.61004,0.23901 -0.121779,-0.100862 -0.364181,-0.211968 -0.61004,-0.23901 z m -3.493898,0.232301 c -0.263356,0.328054 0.463203,0.20012 0.257812,0.526393 0.737642,0.05178 1.476751,-0.07235 2.212959,0.04165 0.166401,-0.122183 0.96617,-0.293846 0.27614,-0.375529 -0.808519,0.107083 -1.622086,0.09053 -2.413726,-0.118584 -0.115077,-0.0072 -0.22256,-0.06123 -0.333185,-0.07392 z m 0.312867,0.651244 c -0.39426,0.006 -0.789082,-0.0059 -1.183007,0.01079 -0.144747,0.415286 0.746316,0.147832 1.086387,0.220556 0.594002,0.03138 1.190633,0.08015 1.781774,0.133941 0.433767,-0.321811 -0.504381,-0.249717 -0.747891,-0.294083 -0.312429,-0.02346 -0.624801,-0.04894 -0.937263,-0.0712 z m -0.572022,2.054445 c 0.119832,-0.02983 -0.01839,0.04438 0,0 z m -1.901367,0.637816 c -0.555081,0.02217 -1.109348,0.05906 -1.66373,0.09399 -0.393548,0.03933 -1.000399,0.521601 -0.233719,0.486535 0.09407,-0.303731 0.604915,-0.111879 0.882019,-0.200321 0.294469,-0.06336 0.8093,0.152359 0.941549,-0.146545 0.224418,0.04605 0.377191,-0.243526 0.07388,-0.233664 z m -1.572388,0.130249 c 0.0189,-0.01812 0.01749,0.02441 0,0 z m 0.866089,0.839235 c -0.291792,0.04413 -0.763553,0.01898 -1.122022,0.07188 0.05696,-0.107259 0.59438,-0.04776 0.811294,-0.06913 0.103576,-8.94e-4 0.207152,-0.0019 0.310728,-0.0027 z m -0.01075,0.120849 c 0.03555,0.07355 -0.01746,0.06116 0,0 z m -0.487427,0.631104 c -0.144203,0.03233 -0.117414,0.0139 0,0 z m -0.432374,0.234985 c 0.126287,0.128478 -0.553447,0.105907 -0.771736,0.151442 -0.453766,0.03046 0.441827,-0.194303 0.626858,-0.140928 0.04829,-0.0035 0.09658,-0.007 0.144878,-0.01051 z"/>
 <path style="fill:#509def" d="m 19.003979,5 c -0.222393,0.4476558 -0.365331,-0.035154 -0.664667,0.1315955 -0.09654,0.4037253 -0.471929,-0.132206 -0.603517,0.3829527 -0.131628,0.2377985 -0.442923,0.3116169 -0.376503,0.689448 -0.257749,0.1625853 -0.17342,0.7064388 -0.517179,0.6651448 -0.192584,0.355494 -0.311696,0.8325276 -0.495481,1.1400162 -0.249377,0.1882816 -0.193021,0.5644129 -0.394778,0.8150624 -0.165833,0.2960925 -0.09748,0.6381631 -0.216184,0.9493662 -0.200978,-0.5587603 -0.38669,0.067079 -0.459294,0.2779302 -0.379115,0.340472 -0.318129,0.968428 -0.499634,1.430126 -0.156564,0.115449 -0.208999,0.830341 -0.337669,0.585374 -0.310689,-0.143767 -0.376735,0.428027 -0.536492,0.628492 -0.182208,0.214457 -0.22983,0.501382 -0.189297,0.915781 -0.103318,0.327566 -0.437668,0.524262 -0.393303,0.87943 0.05386,0.251137 -0.0492,0.681347 -0.230928,0.75598 -0.426308,-0.07032 -0.144554,0.65921 -0.491541,0.754657 -0.226466,0.141049 -0.0035,0.729378 0.154313,0.376004 0.110819,-0.201328 0.25917,-0.466437 0.279352,-0.734547 0.282958,-0.01735 0.432787,-0.49329 0.511612,-0.772094 0.01407,-0.447106 0.194625,-0.826399 0.406698,-1.23214 -0.06648,-0.396918 0.185248,-0.710162 0.278153,-1.082844 0.254125,-0.499894 -0.03163,0.317236 0.05181,0.508551 0.07892,0.40427 -0.08004,0.913944 0.192748,1.244053 0.364375,-0.204332 -0.0725,-0.638158 0.04971,-1.035678 0.0043,-0.38548 -0.105985,-0.724644 0.172897,-0.921585 0.07469,-0.39227 0.206744,-0.54013 0.322069,-0.864827 0.109855,-0.369417 0.150714,-0.756239 0.286342,-1.119218 0.338918,-0.266109 0.182225,-0.3664 0.5747,-0.283325 0.231952,-0.4904481 0.08782,-1.0552693 0.47272,-1.4623127 0.2928,-0.1087742 0.130996,-0.5555943 0.324854,-0.7780687 0.197426,-0.1770657 0.127765,-0.7326277 0.402924,-0.6735185 0.264894,-0.1700132 0.222695,-0.595505 0.492889,-0.684812 -0.07787,-0.4005275 0.146285,-0.5387983 0.33821,-0.8029438 0.05666,-0.3500588 0.498117,0.1637384 0.550787,-0.3021604 0.123095,-0.032442 0.478228,0.4228578 0.557117,-0.068367 0.208028,0.1491858 0.462169,0.854369 0.671355,0.4672855 0.07656,-0.2496823 0.176633,0.2074954 0.265957,0.2860166 -0.231718,0.3031119 -0.479212,0.70826 -0.670129,1.0514862 0.243345,-0.4199815 0.0771,-0.6740987 0.01211,-0.8244607 0.304242,-0.5798196 -0.347946,-0.2345229 -0.28551,0.1810822 -0.08354,0.2542444 -0.269716,1.0460212 0.173993,0.8500589 -0.394469,0.7945384 -1.145518,1.3525995 -1.46226,2.1981277 -0.349086,0.6864977 -0.756648,1.3397037 -1.104253,2.0274837 -0.496272,0.68466 -0.988062,1.37311 -1.30563,2.163612 -0.269535,0.529401 -0.694915,0.968451 -0.904208,1.534614 -0.304024,-0.334767 -0.07098,-0.726035 -0.06994,-1.034257 -0.190313,-0.222923 -0.116369,-0.719053 -0.08153,-1.023023 -0.421083,-0.152711 -0.244054,0.587237 -0.239063,0.852458 0.01285,0.454058 -0.08156,0.997461 0.205343,1.392572 0.207729,0.266477 -0.26968,0.264041 -0.265709,-0.226607 -0.147604,-0.612333 -0.541674,-0.283176 -0.181651,0.164857 0.07196,0.343731 0.404998,0.661087 0.127746,0.968289 -0.194179,0.434865 -0.247142,-0.472253 -0.327548,-0.67278 -0.435947,-0.153996 -0.04866,0.649561 -0.0015,0.9377 0.131624,0.161078 -0.170364,0.64247 -0.27382,0.531465 -0.188773,-0.209956 0.1184,-1.02622 -0.284616,-0.65143 -0.01958,0.330434 -0.442752,0.452143 -0.306144,0.938631 -0.08589,0.465562 0.465834,0.430388 0.230995,0.0081 0.01444,-0.680925 0.02735,-0.385392 0.315554,-0.01075 -0.158984,0.528689 -0.583901,0.950896 -0.872803,1.415339 -0.09993,0.571509 -0.300798,0.02318 -0.296403,-0.238268 0.06771,-0.156982 0.18462,-0.310287 0.167453,-0.492192 0.508822,0.212267 0.235302,-0.206928 0.146365,-0.400936 0.128254,-0.284022 -0.349738,-0.549602 -0.244456,-0.189916 -0.08363,0.266 -0.123797,0.57518 -0.222913,0.867425 -0.254668,0.360404 0.116344,0.735405 0.180098,1.075574 -0.181604,0.58751 -0.304005,1.200378 -0.466559,1.785907 -0.296404,0.435858 0.453675,0.368968 0.246222,0.01334 0.128015,-0.487122 0.216028,-0.995313 0.372717,-1.481082 0.122389,-0.58017 0.452026,-1.072184 0.821156,-1.519995 0.34417,-0.600126 0.610428,-1.242027 1.019241,-1.80471 0.389283,-0.840939 0.739117,-1.712127 1.319985,-2.445225 0.240383,-0.471542 0.4335,-0.971298 0.730472,-1.411252 0.324228,0.365496 0.404669,-0.239919 0.78876,-0.22256 0.540634,-0.222629 1.084622,-0.438173 1.610841,-0.693227 0.108047,0.154147 -0.193497,0.461385 -0.44177,0.596192 -0.213723,0.142361 -0.558782,0.311202 -0.882256,0.452563 -0.281906,0.06871 -0.964759,0.643533 -0.419006,0.527711 0.397454,-0.275084 0.872017,-0.524815 1.318603,-0.648563 0.459408,9.62e-4 -0.29411,0.178557 -0.366738,0.354538 -0.113611,0.357655 -0.588732,0.0491 -0.885502,0.311773 -0.5141,0.185505 -1.126278,0.357696 -1.442874,0.829586 0.217918,0.257355 0.595324,-0.375365 0.982122,-0.412415 0.255097,-0.0618 0.806548,-0.435798 0.868187,-0.174378 -0.268057,0.05919 -0.301674,0.460226 -0.533211,0.451981 -0.24629,-0.191493 -0.608791,0.175741 -0.893886,0.261296 -0.381292,-0.01673 -0.840641,0.793383 -0.302357,0.417341 0.323051,-0.172463 0.750759,-0.393131 1.03397,-0.499515 0.132784,0.347783 -0.356717,0.349279 -0.624249,0.495437 -0.323851,0.127243 -0.727441,0.307903 -0.813782,0.640591 -0.4462,-0.02684 -0.58527,0.835215 -0.201989,0.413166 0.237193,-0.29355 0.743543,-0.305101 1.020623,-0.574578 -0.418721,-0.161863 -0.34694,-0.03005 0.14405,-0.291136 0.191967,-0.128562 0.82708,-0.291096 0.310932,-0.07381 -0.131097,0.218746 -0.38077,0.346488 -0.505703,0.59891 -0.198339,0.291549 -0.534186,0.134569 -0.877284,0.371702 -0.09674,0.355333 -0.524034,0.446041 -0.62737,0.844116 0.216042,0.269799 -0.434921,0.384848 -0.545199,0.655912 -0.218286,0.575943 0.440674,-0.115259 0.65918,-0.254794 0.534768,-0.114947 -0.0055,-0.301252 0.221007,-0.546121 0.225088,-0.247362 0.727475,-0.235459 0.843408,-0.521704 -0.661528,0.0075 -0.311991,-0.03434 0.138682,-0.152325 0.179852,-0.384876 -0.181081,0.646416 0.276464,0.190147 0.176413,-0.09756 0.115407,-0.407314 0.24822,-0.493028 0.16421,-0.186923 0.3187,-0.398126 0.491233,-0.570099 0.525947,-0.07911 0.169992,-0.493687 0.201641,-0.741829 0.277115,-0.145148 0.468658,-0.329598 0.639077,-0.517722 0.131553,-0.25433 0.283563,-0.350434 0.598968,-0.488008 -0.14212,-0.341088 0.538369,-0.238725 0.50753,-0.590815 -0.581941,-0.218015 0.07519,-0.15894 0.05905,-0.542456 0.375744,-0.07566 0.271804,-0.419879 0.244382,-0.492804 0.223489,-0.161072 0.743612,-0.238059 0.668465,-0.594965 -0.468777,-0.127587 0.638157,-0.351219 0.04864,-0.510143 -0.144234,-0.01204 0.743361,-0.354962 0.188015,-0.4713649 -0.407541,-0.056966 0.38754,-0.2232877 0.512909,-0.3652407 -0.03572,-0.3100898 0.34354,-0.2756281 0.489825,-0.5363708 C 20.46416,8.8661621 21.325608,8.5884485 20.881249,8.3662574 20.337847,8.3375474 20.658448,8.0511554 21.017635,8.0426627 21.4791,7.9483151 20.8849,7.6131573 20.656962,7.7594814 c -0.06592,0.3173075 -0.543887,0.038569 -0.828767,0.2734174 -0.539059,0.2505691 -0.566748,0.095765 -0.05073,-0.144575 0.31738,-0.042836 0.728211,-0.3650037 0.954666,-0.1960739 C 20.830648,7.4844103 21.28779,7.4369405 21.281195,7.1360341 20.941829,7.005673 21.678969,7.0900953 21.705811,6.8608814 21.399884,6.5584294 22.502694,6.7458042 22.082916,6.3722818 21.533507,6.211166 20.960389,6.0874538 20.404496,5.9990257 20.125718,5.9806534 20.062208,5.7681117 19.907617,5.5317393 19.754603,5.0975985 19.547899,5.7628014 19.43801,5.4626652 19.303397,5.3020489 19.187359,5.1020317 19.003979,5 Z m -0.358521,0.6512452 c -0.366861,0.3092701 -0.274462,0.9074125 -0.390487,1.3465051 0.01139,0.3446644 -0.145621,0.7745212 0.07105,1.0607075 0.381876,-0.1782571 0.486224,-0.3093846 0.40769,-0.7751598 0.04626,-0.415402 0.05841,-0.8391476 0.169932,-1.2407058 -0.39722,-0.1534256 -0.305319,0.6251841 -0.369742,0.9188278 -0.03306,0.2036032 -0.07051,1.1678703 -0.07386,0.5332685 0.0054,-0.5987123 0.121497,-1.2250989 0.292743,-1.7729817 l -0.0254,-0.036894 v 0 l -0.08191,-0.03357 z m -1.017822,0.026856 c 0.01855,0.053881 -0.09243,0.1317682 0,0 z m -0.08191,0.2041016 c 0.01797,0.00874 0.02632,0.026253 0,0 z M 20.31721,6.1480719 C 20.667598,6.37066 21.213187,6.3208487 21.6291,6.489137 21.247649,6.4888826 21.250416,6.8650641 20.941607,6.8892951 20.51349,7.0658224 19.946698,7.071033 19.664589,7.4881662 c 0.309841,0.3051593 -0.613113,0.3154037 -0.64498,0.7259678 0.12091,0.072039 -0.647186,0.725708 0.117303,0.5671175 -0.201839,-0.3335929 0.516991,-0.384041 0.779912,-0.535256 0.482385,-0.3311076 0.298597,0.265131 0.748168,0.304291 0.182635,0.055309 -0.725218,0.3961108 -0.170621,0.5157104 -0.434412,0.07109 -0.386789,0.4023402 -0.663859,0.5274742 -0.324885,0.040631 -0.678491,0.4721389 -0.171077,0.5298879 -0.345827,0.05207 -0.463989,0.403188 -0.27696,0.505664 -0.850982,0.04894 -1.714591,0.424415 -2.329029,1.012021 0.231041,0.314174 0.594718,-0.322321 0.92199,-0.366582 0.381818,-0.216272 0.813974,-0.353167 1.249928,-0.402323 0.389629,0.224546 -0.155743,0.28859 -0.35047,0.441792 -0.288936,0.222406 -0.65601,0.192662 -0.977535,0.417631 -0.530726,0.227951 -1.074779,0.425822 -1.59772,0.671146 0.618916,-0.761004 0.983096,-1.67806 1.495488,-2.5054464 0.299192,-0.7252983 0.771183,-1.3479335 1.2788,-1.9363655 0.318266,-0.3681502 0.352099,-0.9708726 0.901726,-1.0362601 0.377396,-0.1636587 0.870339,-0.2213324 1.17962,-0.3631664 -0.04557,-0.3597723 -0.559273,-0.00681 -0.790926,-0.01474 -0.278318,0.098502 -0.835779,0.3700614 -0.406889,-0.099367 0.03691,-0.2009887 0.353475,-0.1639729 0.359752,-0.2992907 z m -2.133666,0.3692629 c -0.363863,0.1305412 -0.27218,0.6887109 -0.3074,1.017646 -0.136255,0.2926798 0.139799,0.9548146 0.300411,0.4135148 -0.172066,-0.2704522 -0.03314,-0.6977019 -0.02408,-1.0225746 0.01957,-0.124958 0.200223,-0.3172545 0.03107,-0.4085869 z m -0.512939,0.4095459 c -0.349586,0.1808607 -0.212397,0.7182081 -0.343776,1.054078 -0.0027,0.5068519 -0.210893,1.0453736 -0.02139,1.5310601 0.370736,-0.021457 0.03712,-0.6868553 0.199793,-0.9688369 0.0069,-0.5322729 0.194041,-1.0718492 0.214576,-1.5823084 l -0.04923,-0.033997 z m 3.041381,0.2833257 c 0.261566,0.1735972 -0.307916,0.2621995 -0.50048,0.2933673 -0.549236,0.2693619 -0.290703,-0.07984 0.09296,-0.1733958 0.135911,-0.039738 0.271395,-0.080977 0.407518,-0.1199715 z m -3.516724,0.3303218 c -0.2025,0.3720799 -0.12851,0.8739867 -0.228275,1.2944343 -0.254061,0.3913759 0.20176,0.949582 0.223659,0.3327432 -0.04349,-0.5004953 0.180348,-1.0853387 0.129651,-1.5984991 l -0.03638,-0.026049 -0.08862,-0.00268 z m 3.605347,0.2578126 c 0.04644,-0.019793 0.02336,0.07123 0,0 z m -4.045776,0.3410647 c -0.367581,0.1846371 -0.221879,0.7560412 -0.278983,1.1176669 0.04221,0.4177189 -0.110449,0.9567216 0.205011,1.2756896 0.390223,-0.260876 -0.126159,-0.498869 0.02557,-0.9294837 8.93e-4,-0.4616935 -0.01737,-0.93783 0.126385,-1.3786022 l -0.02753,-0.053102 -0.05043,-0.032161 c 0,0 -1.3e-5,-5.5e-6 -1.3e-5,-5.5e-6 z m 3.26294,0.4444585 c -0.675962,0.1147472 -1.344455,0.4192569 -1.847022,0.8787799 -0.09772,0.5556381 0.513738,-0.2312792 0.80727,-0.2749409 0.349172,-0.2482247 0.81889,-0.2653352 1.169254,-0.4529574 l 0.0047,-0.059531 v 0 L 20.017711,8.583907 Z m -4.174684,0.6794434 c 0.02554,0.023739 -0.02423,0.018439 0,0 z m 3.414674,0.2591552 c -0.54839,0.1796527 -1.206315,0.3463103 -1.532169,0.8567144 0.243416,0.480456 0.316339,-0.255733 0.684707,-0.291263 0.29443,-0.2057321 0.730689,-0.2018862 0.984438,-0.430579 0.01737,-0.073765 -0.05809,-0.1573213 -0.136976,-0.1348724 z m -2.915161,0.055055 c -0.266062,0.3052068 -0.107111,0.8159084 -0.161125,1.2088184 -0.01367,0.272688 -0.0166,1.166747 0.313247,0.717231 -0.194848,-0.592132 -0.0068,-1.276721 -0.07318,-1.8871094 l -0.03561,-0.027287 -0.04332,-0.011632 z m 2.621094,0.6163334 c -0.498387,0.0681 -0.972235,0.336344 -1.343258,0.650959 0.219266,0.409097 0.54654,-0.246187 0.903121,-0.3015 0.126833,-0.09108 0.836615,-0.08169 0.440137,-0.349459 z m -3.317994,0.269897 c -0.283455,0.247972 -0.122339,0.765567 -0.195908,1.129237 0.03183,0.301765 -0.181377,1.021798 0.241614,0.935971 -0.05469,-0.628841 0.0076,-1.332813 0.05222,-1.986623 -0.01344,-0.04246 -0.05357,-0.07469 -0.09793,-0.07858 z m -0.374634,0.903687 c -0.267332,0.394831 -0.184708,0.946039 -0.1876,1.403468 -0.113451,0.51819 0.628621,0.544073 0.284078,0.169952 -0.14276,-0.489156 -0.04028,-1.022921 0.05228,-1.506752 -0.02074,-0.05669 -0.08898,-0.09126 -0.148753,-0.06667 z m -0.511597,0.201417 c 0.133748,-0.02943 -0.09084,0.101041 0,0 z m 4.130372,0.22827 c 0.07186,-0.0047 -0.0044,0.01262 0,0 z m -4.094117,0.623048 c -0.344797,0.266995 -0.155095,0.822177 -0.194741,1.211178 0.279957,0.603542 0.297614,-0.113871 0.224189,-0.437505 -0.107946,-0.265623 0.21455,-0.644984 -0.02945,-0.773673 z m 1.115845,3.269654 c 0.129392,0.101939 0.04254,0.06319 0,0 z m 0.04163,0.218873 c 0.03796,0.02723 -0.139737,0.07106 0,0 z m -3.621461,1.583129 c 0.01221,0.181569 -0.297698,-0.01383 0,0 z m 0.05237,0.488769 c 0.01192,-0.0022 -0.01959,0.01353 0,0 z"/>
 <path style="fill:#ffffff;opacity:0.1" d="M 4.8007812 2 C 3.2495813 2 2 3.2495813 2 4.8007812 L 2 5.8007812 C 2 4.2495813 3.2495813 3 4.8007812 3 L 27.199219 3 C 28.750419 3 30 4.2495813 30 5.8007812 L 30 4.8007812 C 30 3.2495813 28.750419 2 27.199219 2 L 4.8007812 2 z"/>
</svg>
