<svg width="32" height="32" version="1.1" xmlns="http://www.w3.org/2000/svg">
 <path d="m22.919922 3.8398438 0.080078 0.1601562-1 9-12 4-1 11.109375a14 14 0 0 0 7 1.890625 14 14 0 0 0 14-14 14 14 0 0 0-7.080078-12.160156z" style="fill:#56aad4"/>
 <path d="M 16 2 A 14 14 0 0 0 2 16 A 14 14 0 0 0 9 28.109375 L 10 17 L 22 13 L 23 4 L 22.919922 3.8398438 A 14 14 0 0 0 16 2 z " style="fill:#f37b21"/>
 <path d="m22 4.369142v3.6308594h-16.722656a14 14 0 0 0-0.7597657 1h17.482422v4.4101556a7 7 0 0 0-6-3.410156 7 7 0 0 0-5.734375 3h-7.6757812a14 14 0 0 0-0.2539063 1h7.3476563a7 7 0 0 0-0.6835938 3h-7a14 14 0 0 0 0.1582031 2h6.8417969v3h-6.0722656a14 14 0 0 0 1.6035156 3h4.46875v4.111328c0.3262256 0.186528 0.6598292 0.359845 1 0.519531v-9.041015c0.293851 0.493978 0.647424 0.949884 1.052734 1.357422l-2e-3 2e-3 8.550828 8.550734c0.367523-0.09327 0.731103-0.201432 1.089844-0.324219l-6.394531-6.394531c0.55658 0.142534 1.128591 0.216004 1.703125 0.21875h12.111328c0.186528-0.326226 0.359845-0.659829 0.519531-1h-9.041015c0.493978-0.293851 0.949884-0.647424 1.357422-1.052734l2e-3 2e-3 8.550734-8.550828c-0.09327-0.367525-0.201432-0.731103-0.324219-1.089844l-6.394531 6.394531c0.05925-0.231372 0.0995-0.467347 0.134766-0.703125h0.0039a7 7 0 0 0 0.0039-0.04297c0.01701-0.118816 0.02623-0.23787 0.03711-0.357422a7 7 0 0 0 0.039074-0.599608v-12.111328c-0.326226-0.1865279-0.659829-0.3598453-1-0.5195313zm7.5 9.029297c0.03254 0.10704 0.06379 0.214473 0.09375 0.322265-0.027-0.112-0.04913-0.226888-0.07813-0.337891zm-9.898438 17.101562c-0.101219 0.0311-0.202788 0.06105-0.304687 0.08984 0.106-0.026 0.215312-0.04622 0.320313-0.07422zm3.984376-25.251953c0.123999 0.0803 0.252998 0.1542812 0.375 0.2382812-0.123733-0.081406-0.248748-0.1608427-0.375-0.2382812zm2.382812 1.9296875c0.131 0.1333 0.252906 0.2755625 0.378906 0.4140625-0.123522-0.140539-0.24985-0.2785875-0.378906-0.4140625zm0.867188 0.9707031c0.132999 0.1629 0.256812 0.3330531 0.382812 0.5019531-0.123815-0.1701737-0.251452-0.3375339-0.382812-0.5019531zm0.783203 1.0605469c0.119 0.1772 0.230797 0.3581156 0.341797 0.5410156-0.109795-0.1829192-0.223757-0.3633049-0.341797-0.5410156zm0.683593 1.1367182c0.102 0.1887 0.200922 0.378366 0.294922 0.572266-0.09391-0.19299-0.192241-0.383796-0.294922-0.572266zm0.550782 1.144531c0.098 0.231 0.196203 0.462219 0.283203 0.699219-0.0881-0.235575-0.182538-0.468732-0.283203-0.699219zm0.882812 2.857422c0.039 0.198 0.06861 0.39861 0.09961 0.59961-0.02886-0.200567-0.06207-0.400484-0.09961-0.59961zm0.197266 1.404297c9e-3 0.106 0.0252 0.210406 0.0332 0.316406-0.0099-0.105591-0.02094-0.211066-0.0332-0.316406zm0.066406 1.248047c0 0.511-0.03389 1.013766-0.08789 1.509766 0.05648-0.501304 0.08582-1.005295 0.08789-1.509766zm-0.154297 1.951172c-0.05 0.349-0.102734 0.696156-0.177734 1.035156 0.07217-0.342707 0.131458-0.688002 0.177734-1.035156zm-0.294922 1.498047c-0.088 0.342-0.182922 0.680717-0.294922 1.011719 0.11097-0.333419 0.209347-0.670898 0.294922-1.011719zm-0.429687 1.382812c-0.125 0.338-0.259203 0.672047-0.408203 0.998047 0.148834-0.327317 0.285002-0.660246 0.408203-0.998047zm-1.369141 2.751953c-0.08 0.124-0.154281 0.253-0.238281 0.375 0.08141-0.123732 0.160843-0.248747 0.238281-0.375zm-22.099609 1.824219c0.1235223 0.140539 0.2498499 0.278588 0.3789062 0.414063-0.1312-0.133-0.2530063-0.275063-0.3789062-0.414063zm20.169922 0.560547c-0.124 0.122-0.257719 0.235516-0.386719 0.353516 0.1311-0.115416 0.260029-0.233275 0.386719-0.353516zm-0.982422 0.878906c-0.149 0.121-0.304985 0.23461-0.458985 0.34961 0.15538-0.113371 0.308408-0.229933 0.458985-0.34961zm-16.808594 0.658203c0.1364692 0.0903 0.2745113 0.178208 0.4140625 0.263672-0.1378-0.089-0.2795625-0.170672-0.4140625-0.263672zm15.748047 0.121094c-0.171 0.114-0.347438 0.223078-0.523438 0.330078 0.17689-0.106156 0.351412-0.216209 0.523438-0.330078zm-1.125 0.675781c-0.188 0.102-0.378266 0.200922-0.572266 0.294922 0.192991-0.09391 0.383797-0.192241 0.572266-0.294922zm-12.480469 0.41211c0.314707 0.142649 0.634589 0.273598 0.958984 0.392578-0.324999-0.121-0.645984-0.249578-0.958984-0.392578zm11.335938 0.138672c-0.231 0.098-0.462219 0.196203-0.699219 0.283203 0.235575-0.0881 0.468732-0.182538 0.699219-0.283203zm-9.947266 0.412109c0.321366 0.105492 0.646449 0.199304 0.974609 0.28125-0.329-0.085-0.654609-0.17425-0.974609-0.28125zm1.451172 0.402344c0.342707 0.07217 0.688002 0.131458 1.035156 0.177734-0.349-0.05-0.696156-0.102734-1.035156-0.177734zm1.476562 0.24414c0.501304 0.05648 1.005295 0.08582 1.509766 0.08789-0.511 0-1.013766-0.03389-1.509766-0.08789z" style="opacity:.2"/>
 <path d="m22 3.3691406v3.6308594h-16.722656a14 14 0 0 0-0.7597657 1h17.482422v4.410156a7 7 0 0 0-6-3.410156 7 7 0 0 0-5.734375 3h-7.6757812a14 14 0 0 0-0.2539063 1h7.3476563a7 7 0 0 0-0.6835938 3h-7a14 14 0 0 0 0.1582031 2h6.8417969v2 1h-6.0722656a14 14 0 0 0 1.6035156 3h4.46875v4.111328c0.3262256 0.186528 0.6598292 0.359845 1 0.519531v-9.041015c0.293851 0.493978 0.647424 0.949884 1.052734 1.357422l-0.001953 0.001953 8.550781 8.550781c0.367523-0.09327 0.731103-0.201432 1.089844-0.324219l-6.394531-6.394531c0.55658 0.142534 1.128591 0.216004 1.703125 0.21875h12.111328c0.186528-0.326226 0.359845-0.659829 0.519531-1h-9.041015c0.493978-0.293851 0.949884-0.647424 1.357422-1.052734l0.001953 0.001953 8.550781-8.550781c-0.09327-0.367525-0.201432-0.731103-0.324219-1.089844l-6.394531 6.394531c0.059252-0.231372 0.099503-0.467347 0.134766-0.703125h0.003906a7 7 0 0 0 0.003906-0.042969c0.017014-0.118816 0.026225-0.23787 0.03711-0.357422a7 7 0 0 0 0.039062-0.599609v-12.111328c-0.326226-0.1865279-0.659829-0.3598453-1-0.5195313zm7.5 9.0292974c0.03254 0.10704 0.06379 0.214473 0.09375 0.322265-0.027-0.112-0.049125-0.226888-0.078125-0.337891l-0.015625 0.015626zm-9.898438 17.101562c-0.101219 0.0311-0.202788 0.061054-0.304687 0.089844 0.106-0.026 0.215312-0.046219 0.320313-0.074219l-0.015626-0.015625zm3.984376-25.251953c0.123999 0.0803 0.252998 0.1542812 0.375 0.2382812-0.123733-0.081406-0.248748-0.1608427-0.375-0.2382812zm2.382812 1.9296875c0.131 0.1333 0.252906 0.2755625 0.378906 0.4140625-0.123522-0.140539-0.24985-0.2785875-0.378906-0.4140625zm0.867188 0.9707031c0.132999 0.1629 0.256812 0.3330531 0.382812 0.5019531-0.123815-0.1701737-0.251452-0.3375339-0.382812-0.5019531zm0.783203 1.0605469c0.119 0.1772 0.230797 0.3581156 0.341797 0.5410156-0.109795-0.1829192-0.223757-0.3633049-0.341797-0.5410156zm0.683593 1.1367187c0.102 0.1887 0.200922 0.3783655 0.294922 0.5722657-0.09391-0.1929906-0.192241-0.3837963-0.294922-0.5722657zm0.550782 1.1445309c0.098 0.231 0.196203 0.462219 0.283203 0.699219-0.0881-0.235575-0.182538-0.468732-0.283203-0.699219zm0.882812 2.857422c0.039 0.198 0.068609 0.39861 0.09961 0.59961-0.028861-0.200567-0.06207-0.400484-0.09961-0.59961zm0.197266 1.404297c9e-3 0.106 0.025203 0.210406 0.033203 0.316406-0.0099-0.105591-0.020943-0.211066-0.033203-0.316406zm0.066406 1.248047c0 0.511-0.033891 1.013766-0.087891 1.509766 0.056476-0.501304 0.085817-1.005295 0.087891-1.509766zm-0.154297 1.951172c-0.05 0.349-0.102734 0.696156-0.177734 1.035156 0.07217-0.342707 0.131458-0.688002 0.177734-1.035156zm-0.294922 1.498047c-0.088 0.342-0.182922 0.680717-0.294922 1.011719 0.11097-0.333419 0.209347-0.670898 0.294922-1.011719zm-0.429687 1.382812c-0.125 0.338-0.259203 0.672047-0.408203 0.998047 0.148834-0.327317 0.285002-0.660246 0.408203-0.998047zm-1.369141 2.751953c-0.08 0.124-0.154281 0.253-0.238281 0.375 0.08141-0.123732 0.160843-0.248747 0.238281-0.375zm-22.099609 1.824219c0.1235223 0.140539 0.2498499 0.278588 0.3789062 0.414063-0.1312-0.133-0.2530063-0.275063-0.3789062-0.414063zm20.169922 0.560547c-0.124 0.122-0.257719 0.235516-0.386719 0.353516 0.1311-0.115416 0.260029-0.233275 0.386719-0.353516zm-0.982422 0.878906c-0.149 0.121-0.304985 0.23461-0.458985 0.34961 0.15538-0.113371 0.308408-0.229933 0.458985-0.34961zm-16.808594 0.658203c0.1364692 0.0903 0.2745113 0.178208 0.4140625 0.263672-0.1378-0.089-0.2795625-0.170672-0.4140625-0.263672zm15.748047 0.121094c-0.171 0.114-0.347438 0.223078-0.523438 0.330078 0.17689-0.106156 0.351412-0.216209 0.523438-0.330078zm-1.125 0.675781c-0.188 0.102-0.378266 0.200922-0.572266 0.294922 0.192991-0.09391 0.383797-0.192241 0.572266-0.294922zm-12.480469 0.41211c0.314707 0.142649 0.634589 0.273598 0.958984 0.392578-0.324999-0.121-0.645984-0.249578-0.958984-0.392578zm11.335938 0.138672c-0.231 0.098-0.462219 0.196203-0.699219 0.283203 0.235575-0.0881 0.468732-0.182538 0.699219-0.283203zm-9.947266 0.412109c0.321366 0.105492 0.646449 0.199304 0.974609 0.28125-0.329-0.085-0.654609-0.17425-0.974609-0.28125zm1.451172 0.402344c0.342707 0.07217 0.688002 0.131458 1.035156 0.177734-0.349-0.05-0.696156-0.102734-1.035156-0.177734zm1.476562 0.24414c0.501304 0.056477 1.005295 0.085817 1.509766 0.087891-0.511 0-1.013766-0.03389-1.509766-0.087891z" style="fill:#ffffff"/>
 <path d="m16.0006 2a14 14 0 0 0-14 14 14 14 0 0 0 0.0215 0.586 14 14 0 0 1 13.978-13.586 14 14 0 0 1 13.979 13.414 14 14 0 0 0 0.021-0.414 14 14 0 0 0-14-14z" style="fill:#ffffff;opacity:.2"/>
 <path d="m29.9796 16.414a14 14 0 0 1-13.979 13.586 14 14 0 0 1-13.978-13.414 14 14 0 0 0-0.022 0.414 14 14 0 0 0 14 14 14 14 0 0 0 14-14 14 14 0 0 0-0.021-0.586z" style="opacity:.2"/>
</svg>
