<svg width="32" height="32" version="1.1" xmlns="http://www.w3.org/2000/svg">
 <path d="m6 29.5c0 1.5 3 1.5 3 1.5h12s2 0 2.000001-1.5-2.000001-1.5-2.000001-1.5-5 0-5-4c0-6 7-6 7-6s3 0 3-5c0-7-3-8-3-8s-3.499999-2-14-2c-1.4 0-3 0-3 1.5s2 1.5 3 1.5 1 3 1 3v17c0 2-1 2-1 2s-3 0-3 1.5z" style="opacity:.2"/>
 <path d="m6 28.5c0 1.5 3 1.5 3 1.5h12s2 0 2.000001-1.5-2.000001-1.5-2.000001-1.5-5 0-5-4c0-6 7-6 7-6s3 0 3-5c0-7-3-8-3-8s-3.499999-2-14-2c-1.4 0-3 0-3 1.5s2 1.5 3 1.5 1 3 1 3v17c0 2-1 2-1 2s-3 0-3 1.5z" style="fill:#ec4040"/>
 <path d="m15 17s8-0.1 8-5c0-4.8999997-8-5-8-5s1 3 1 5-1 5-1 5z" style="opacity:.1"/>
 <path d="m15 16s8-0.1 8-5c0-4.8999997-8-5-8-5s1 3 1 5-1 5-1 5z" style="fill:#4f4f4f"/>
 <path d="M 9,2 C 7.6,2 6,2 6,3.5 6,3.6816474 6.032606,3.8401519 6.0859375,3.9804688 6.427421,3.0030585 7.7862668,3 9,3 19.500001,3 23,5 23,5 23,5 25.81801,5.9587229 25.984375,12.414062 25.989402,12.275671 26,12.146896 26,12 26,5 23,4 23,4 23,4 19.500001,2 9,2 Z m 7.039062,21.478516 C 16.026151,23.65236 16,23.814913 16,24 c 0,4 5,4 5,4 0,0 1.526571,-5.79e-4 1.912109,1 C 22.967817,28.855423 23,28.689377 23,28.5 23.000001,27 21,27 21,27 21,27 16.429026,26.98946 16.039062,23.478516 Z M 10,25 c 0,2 -1,2 -1,2 0,0 -3,0 -3,1.5 0,0.189122 0.047506,0.355561 0.1308594,0.5 C 6.7086157,27.998839 9,28 9,28 c 0,0 1,0 1,-2 z" style="fill:#ffffff;opacity:.2"/>
 <circle cx="24" cy="23" r="8" style="fill:#42a1cd"/>
 <path d="M 31.979,23.424 A 8,8 0 0 1 24,31 8,8 0 0 1 16.021,23.576 8,8 0 0 0 16,24 a 8,8 0 0 0 8,8 8,8 0 0 0 8,-8 8,8 0 0 0 -0.02148,-0.57617 z" style="opacity:.3"/>
 <path d="m23.999984 20.000055s-0.479396-0.01-0.973592 0.240198c-0.494296 0.247198-1.026392 0.843093-1.026392 1.759786h0.999992c0-0.999992 0.999992-0.999992 0.999992-0.999992s0.999992 0 0.999992 0.999992c0 0.374997-0.127499 0.657195-0.362496 0.957493-0.235099 0.300298-0.582596 0.595795-0.957593 0.908292-0.374997 0.312498-0.777494 0.641995-1.104892 1.060492-0.327497 0.418397-0.574995 0.948693-0.574995 1.573688v0.499996h3.999969v-0.999992h-2.908778c0.061-0.157399 0.152199-0.305298 0.271398-0.457497 0.234998-0.300297 0.582495-0.595795 0.957493-0.908293 0.374997-0.312497 0.777493-0.641995 1.104991-1.060491 0.327397-0.418397 0.574896-0.948693 0.574896-1.573688 0-0.916693-0.532096-1.512588-1.026393-1.759786-0.494195-0.247098-0.973592-0.240198-0.973592-0.240198z" style="fill-rule:evenodd;fill:#ffffff"/>
</svg>
