<svg width="32" height="32" version="1" xmlns="http://www.w3.org/2000/svg">
 <path d="m4 3c-0.6600062 0-2 1.3399977-2 2v14c0 0.659962 0.4097091 1.704855 1 2l3.2617188 1.630859c-0.6808864 0.947757-1.2617188 1.809712-1.2617188 2.369141v4c0 1.213471 0.5429818 2 2 2h6l14-2c2.286312-0.326616 3-0.384905 3-2v-8c0-1.597266-0.409845-2.262306-1-3l-4-5-5-7c-0.34771-0.452019-1.478251-1-2-1z" style="opacity:.2"/>
 <path d="m20 5h5c0.353716 0 2-0.2792898 2 1v5c0 0.611848-0.33458 2-1 2h-6z" style="fill:#21d789"/>
 <path d="m8 10h17l4 5c0.590155 0.737694 1 1.402734 1 3v8c0 1.615095-0.713688 1.673384-3 2l-14 2h-6c-1.4570182 0-2-0.786529-2-2v-4c0-1.066938 2.1162358-3.232509 3-5z" style="fill:#f7c73c"/>
 <path d="m4 2h14c0.521749 0 1.65229 0.547981 2 1l5 7v12h-18l-4-2c-0.5902909-0.295145-1.0000003-1.340038-1.0000003-2v-14c0-0.6600023 1.3399941-2 2.0000003-2z" style="fill:#2cbfeb"/>
 <path d="m7 6.9999998h18v18h-18z" style="fill:#3f3f3f"/>
 <path d="m9 22h9v2h-9z" style="fill:#1a1a1a;opacity:.2"/>
 <path d="m9 21h9v2h-9z" style="fill:#ffffff"/>
 <path d="m19 10c-1.656854 0-3 2.014719-3 4.5s1.343146 4.5 3 4.5c1.268834 3.5e-5 2.574302-1.207063 3-3h-2c-0.189006 0.623642-0.52114 1-1 1s-1-1.119288-1-2.5 0.453384-2.5 1-2.5 0.81139 0.364876 1 1h2c-0.421785-1.802669-1.726353-2.999591-3-3z" style="opacity:.2"/>
 <path d="m19 8.9999999c-1.656854 0-3 2.0147191-3 4.5000001s1.343146 4.5 3 4.5c1.268834 3.5e-5 2.574302-1.207063 3-3h-2c-0.189006 0.623642-0.52114 1-1 1s-1-1.119288-1-2.5 0.453384-2.5 1-2.5 0.81139 0.364876 1 1h2c-0.421785-1.802669-1.726353-2.9995911-3-3.0000001z" style="fill:#ffffff"/>
 <path d="m8.999622 10.00132v8.999963h2.000378v-2s3.999529 0.173036 3.999622-3.5c9.3e-5 -3.6730358-3.999622-3.5-3.999622-3.5zm2.000378 1.999963s1.999692-0.23562 2 1.5-2 1.5-2 1.5z" style="opacity:.2"/>
 <path d="m8.999622 9.0000368v8.9999632h2.000378v-2s3.999529 0.173036 3.999622-3.5c9.3e-5 -3.6730361-3.999622-3.5000001-3.999622-3.5000001zm2.000378 1.9999632s1.999692-0.23562 2 1.5-2 1.5-2 1.5z" style="fill:#ffffff"/>
 <path d="m4 2c-0.6600062 0-2 1.3399977-2 2v1c0-0.6600023 1.3399938-2 2-2h14c0.521749 0 1.65229 0.547981 2 1l2.142578 3h0.714844l-2.857422-4c-0.34771-0.452019-1.478251-1-2-1h-14z" style="fill:#ffffff;opacity:.2"/>
 <path d="m25 10v1l4 5c0.590155 0.737694 1 1.402734 1 3v-1c0-1.597266-0.409845-2.262306-1-3z" style="fill:#ffffff;opacity:.2"/>
 <path d="m25.703125 4.9746094c-0.083936-0.0023528-0.165657-3.698e-4 -0.242187 0.0019531-0.204081 0.0061945-0.372509 0.0234375-0.460938 0.0234375h-3.572266l0.714844 1h2.857422c0.353716 0 2-0.2792898 2 1v-1c0-0.8395339-0.709322-1.0089211-1.296875-1.0253906z" style="fill:#ffffff;opacity:.2"/>
</svg>
