<svg xmlns="http://www.w3.org/2000/svg" height="32" width="32" version="1.1">
 <rect style="fill:#8e8e8e" transform="matrix(0,-1,-1,0,0,0)" rx="2" ry="2" height="22" width="28" y="-27" x="-30"/>
 <path style="opacity:.5" d="m16 6c-3.866 0-7 3.134-7 7v7h7c3.866 0 7-3.134 7-7s-3.134-7-7-7zm0 3a4 4 0 0 1 4 4 4 4 0 0 1 -4 4 4 4 0 0 1 -4 -4 4 4 0 0 1 4 -4z"/>
 <path style="opacity:.2;fill:#ffffff" d="m7 2c-1.108 0-2 0.892-2 2v1c0-1.108 0.892-2 2-2h18c1.108 0 2 0.892 2 2v-1c0-1.108-0.892-2-2-2z"/>
 <path style="opacity:.2" d="m5 28v1c0 1.108 0.892 2 2 2h18c1.108 0 2-0.892 2-2v-1c0 1.108-0.892 2-2 2h-18c-1.108 0-2-0.892-2-2z"/>
 <circle style="fill:#86ff7b" cx="24" r="8" cy="23"/>
 <path style="opacity:.2" d="m31.979 23.424a8 8 0 0 1 -7.979 7.576 8 8 0 0 1 -7.979 -7.424 8 8 0 0 0 -0.021 0.424 8 8 0 0 0 8 8 8 8 0 0 0 8 -8 8 8 0 0 0 -0.02148 -0.57617z"/>
 <path style="fill:#ffffff" d="m24 18a5 5 0 0 0 -5 5 5 5 0 0 0 5 5 5 5 0 0 0 5 -5 5 5 0 0 0 -5 -5zm0 3a2 2 0 0 1 2 2 2 2 0 0 1 -2 2 2 2 0 0 1 -2 -2 2 2 0 0 1 2 -2z"/>
</svg>
