<svg xmlns="http://www.w3.org/2000/svg" width="32" height="32" version="1">
 <rect fill="#c2352a" width="28" height="28" x="-30" y="-30" rx="1.5" ry="1.5" transform="matrix(0,-1,-1,0,0,0)"/>
 <path opacity=".2" d="m7.0938 8.0627 4.9062 4.9373h8v7.9688l5 4.9688v-17.875zm4.9062 6.0933-5 4.875v6.969h7.375l4.937-5h-7.312z"/>
 <path fill="#fff" opacity=".1" d="m3.5 2c-0.831 0-1.5 0.669-1.5 1.5v1c0-0.831 0.669-1.5 1.5-1.5h25c0.831 0 1.5 0.669 1.5 1.5v-1c0-0.831-0.669-1.5-1.5-1.5h-25z"/>
 <path fill="#fff" d="m7.0938 7.0627 4.9062 4.9373h8v7.9688l5 4.9688v-17.875zm4.9062 6.0933-5 4.875v6.969h7.375l4.937-5h-7.312z"/>
 <path opacity=".2" d="m2 28.5v1c0 0.831 0.669 1.5 1.5 1.5h25c0.831 0 1.5-0.669 1.5-1.5v-1c0 0.831-0.669 1.5-1.5 1.5h-25c-0.831 0-1.5-0.669-1.5-1.5z"/>
 <circle fill="#8561c5" fill-rule="evenodd" cx="24" cy="23" r="8"/>
 <path fill="#fff" d="m23 19-0.0882 1.0536a3.1429 3.1429 0 0 0 -0.91852 0.53126l-0.95759-0.4509-1 1.7321 0.86941 0.6038a3.1429 3.1429 0 0 0 -0.048 0.53013 3.1429 3.1429 0 0 0 0.0457 0.53237l-0.86719 0.60156 1 1.7321 0.95536-0.44978a3.1429 3.1429 0 0 0 0.92075 0.5279l0.0882 1.0558h2l0.0882-1.0536a3.1429 3.1429 0 0 0 0.91854 -0.53126l0.95758 0.4509 1-1.7321-0.86942-0.6038a3.1429 3.1429 0 0 0 0.048 -0.53013 3.1429 3.1429 0 0 0 -0.0457 -0.53237l0.86719-0.60156-1-1.7321-0.95536 0.44978a3.1429 3.1429 0 0 0 -0.921 -0.528l-0.088-1.056h-2zm1 2.8572a1.1429 1.1429 0 0 1 1.143 1.143 1.1429 1.1429 0 0 1 -1.143 1.143 1.1429 1.1429 0 0 1 -1.143 -1.143 1.1429 1.1429 0 0 1 1.143 -1.143z"/>
 <path fill-rule="evenodd" opacity=".2" d="m31.979 23.424a8 8 0 0 1 -7.979 7.576 8 8 0 0 1 -7.979 -7.424 8 8 0 0 0 -0.021 0.424 8 8 0 0 0 8 8 8 8 0 0 0 8 -8 8 8 0 0 0 -0.021 -0.576z"/>
</svg>
