<svg width="32" height="32" version="1.1" xmlns="http://www.w3.org/2000/svg">
 <rect x="2" y="3" width="28" height="28" rx="1" ry="1" style="opacity:.2"/>
 <rect x="2" y="2" width="28" height="28" rx="1" ry="1" style="fill:#0190c5"/>
 <path d="m16 6s5 1 7 3 4 7 4 7v-9c0-0.554-0.446-1-1-1zm-11 1v15s4.509288-0.509288 6-2c3.926103-3.926103 8.709352-9.656178 8.888672-9.871094-4.736703-3.1195539-14.888672-3.128906-14.888672-3.128906zm16.884766 5.117188c-0.322783 0.323906-5.021233 5.053396-8.884766 9.882812-1.316973 1.646216-2 6-2 6h15s-0.854403-11.017351-4.115234-15.882812z" style="opacity:.2"/>
 <path d="m16 5s5 1 7 3 4 7 4 7v-9c0-0.554-0.446-1-1-1h-10zm-11 1v15s4.509288-0.509288 6-2c3.926103-3.926103 8.709352-9.656178 8.888672-9.8710938-4.736703-3.1195541-14.888672-3.1289062-14.888672-3.1289062zm16.884766 5.117188c-0.322783 0.323906-5.021233 5.053396-8.884766 9.882812-1.316973 1.646216-2 6-2 6h15s-0.854403-11.017351-4.115234-15.882812z" style="fill:#ffffff"/>
 <path d="m3 2c-0.554 0-1 0.446-1 1v1c0-0.554 0.446-1 1-1h26c0.554 0 1 0.446 1 1v-1c0-0.554-0.446-1-1-1h-26z" style="fill:#ffffff;opacity:.2"/>
</svg>
