<svg xmlns="http://www.w3.org/2000/svg" width="32" height="32" version="1">
 <rect fill="#e4e4e4" width="28" height="22" x="-30" y="-27" rx="2" ry="2" transform="matrix(0,-1,-1,0,0,0)"/>
 <path opacity=".5" d="m16 6c-3.866 0-7 3.134-7 7v7h7c3.866 0 7-3.134 7-7s-3.134-7-7-7zm0 3a4 4 0 0 1 4 4 4 4 0 0 1 -4 4 4 4 0 0 1 -4 -4 4 4 0 0 1 4 -4z"/>
 <path fill="#fff" opacity=".2" d="m7 2c-1.108 0-2 0.892-2 2v1c0-1.108 0.892-2 2-2h18c1.108 0 2 0.892 2 2v-1c0-1.108-0.892-2-2-2h-18z"/>
 <path opacity=".2" d="m5 28v1c0 1.108 0.892 2 2 2h18c1.108 0 2-0.892 2-2v-1c0 1.108-0.892 2-2 2h-18c-1.108 0-2-0.892-2-2z"/>
 <circle fill="#30a14b" fill-rule="evenodd" cx="24" cy="23" r="8"/>
 <path opacity=".2" d="m31.979 23.424a8 8 0 0 1 -7.979 7.576 8 8 0 0 1 -7.979 -7.424 8 8 0 0 0 -0.021 0.424 8 8 0 0 0 8 8 8 8 0 0 0 8 -8 8 8 0 0 0 -0.02148 -0.57617z"/>
 <path style="fill:#ffffff" d="m 19.99994,23 c 0,2.2092 1.7909,4 4,4 2.1867,0 3.9602,-1.7554 3.9961,-3.9336 A 0.66667,0.66667 0 0 0 28.00004,23 0.66667,0.66667 0 0 0 27.33337,22.33333 0.66667,0.66667 0 0 0 26.6667,23 c 0,1.4727 -1.1939,2.6667 -2.6667,2.6667 -1.4727,0 -2.6667,-1.1939 -2.6667,-2.6667 0,-1.4727 1.1939,-2.6667 2.6667,-2.6667 l 0,1.3333 2.6667,-2 -2.6663,-2.0006 0,1.3333 c -2.2092,0 -4,1.7909 -4,4 z"/>
</svg>
