<svg xmlns="http://www.w3.org/2000/svg" width="32" height="32" version="1">
 <circle style="opacity:0.2" cx="16" cy="17" r="14"/>
 <circle style="fill:#3f3f3f" cx="16" cy="16" r="14"/>
 <path style="opacity:0.2" d="m 12.398438,7.0664062 c -0.02909,0.00717 -0.05681,0.02329 -0.08399,0.048828 -0.205944,0.1934752 -0.359515,0.7989279 -0.330078,1.3085937 0.0094,0.163261 0.01283,0.296875 0.0078,0.296875 -0.176585,0 -0.75586,0.2019865 -0.75586,0.2636719 0,0.017717 0.08185,0.1207352 0.181641,0.2285156 0.194609,0.2101995 0.299837,0.4132876 0.363281,0.6972656 0.06902,0.3089288 0.03159,0.3263138 -0.125,0.060547 C 10.970816,8.8073924 9.6918055,8.0745478 8.7109375,8.2832031 8.5829257,8.3104331 8.4371588,8.351366 8.3886719,8.375 c -0.087125,0.042462 -0.087772,0.046012 -0.078125,0.3144531 0.033089,0.9206666 0.4460017,1.4686589 1.359375,1.8007809 0.4014681,0.145982 0.4066191,0.172291 0.027344,0.15625 -0.3674202,-0.01554 -0.745562,-0.198062 -1.078125,-0.519531 L 8.4863281,10 8.28125,10.037109 C 7.8320054,10.119257 6.6222029,10.079111 4.8242188,9.921875 4.2784223,9.8741462 4.0710845,9.8664173 3.96875,9.875 c -1.1860286,1.995584 -1.8572082,4.254775 -1.953125,6.574219 0.089068,2.692432 0.9530439,5.301993 2.4882812,7.515625 0.1101034,0.01533 0.2217655,0.03652 0.3222657,0.04687 0.619546,0.06383 1.7412181,0.06435 2.3027343,0 1.1564056,-0.132584 2.0725038,-0.411576 3.3144528,-1.00586 0.260756,-0.124775 0.494172,-0.219918 0.517579,-0.210937 0.0525,0.02015 0.267464,0.392767 0.419921,0.728516 0.153579,0.338224 0.321809,0.854549 0.439453,1.339843 0.05349,0.220624 0.103392,0.410591 0.111329,0.423828 0.02878,0.04801 0.138378,0.02156 0.171875,-0.04102 0.06513,-0.121712 -0.06759,-1.126965 -0.310547,-2.355469 L 11.646484,22.152344 11.75,22.066406 c 0.05712,-0.04769 0.168886,-0.12115 0.246094,-0.162109 l 0.138672,-0.07422 0.154296,0.08008 c 0.212969,0.110625 0.57517,0.484011 0.757813,0.779297 0.27805,0.449536 0.523795,1.141078 0.671875,1.888672 l 0.07227,0.363281 0.0957,-0.0098 c 0.175533,-0.01872 0.186875,-0.05577 0.144531,-0.460938 -0.08261,-0.790423 -0.375222,-1.774707 -0.833984,-2.8125 -0.08801,-0.199094 -0.152703,-0.379593 -0.144532,-0.400391 0.0082,-0.0208 0.06217,-0.06825 0.119141,-0.105468 0.405984,-0.265248 2.370806,-2.475104 3.214844,-3.424969 0.458443,-0.515924 1.171317,-1.364087 1.257812,-1.496094 0.07674,-0.117124 0.196847,-0.159807 0.623047,-0.222656 0.481698,-0.07103 1.403103,-0.04796 1.867188,0.04687 0.955398,0.195242 1.859324,0.548821 2.833984,1.111328 1.207588,0.696939 2.605351,2.138328 3.765625,3.372234 0.128622,0.136787 0.243257,0.248047 0.255859,0.248047 0.02713,0 0.132813,-0.317474 0.132813,-0.40039 0,-0.06987 -0.354792,-0.702187 -0.748047,-1.333985 C 24.61819,16.230286 22.328912,13.672801 19.980469,11.90625 18.041862,10.447986 16.076307,9.4882475 13.949219,8.9609375 L 13.404297,8.8261719 13.376953,8.6679688 C 13.283673,8.1259769 13.027628,7.561017 12.746094,7.2714844 12.587218,7.1080944 12.485711,7.04488 12.398438,7.0664062 Z m 1.376953,4.9003908 c 0.144711,0.0011 0.301159,0.02452 0.457031,0.07226 0.315711,0.09671 0.596197,0.306031 0.703125,0.523438 0.07452,0.151509 0.07987,0.190766 0.04101,0.318359 -0.107388,0.35279 -0.618864,0.512207 -1.164062,0.363282 C 13.583818,13.181676 13.418617,13.094935 13.25,12.949219 13.071398,12.794874 13,12.655959 13,12.458984 c 0,-0.302669 0.341263,-0.495516 0.775391,-0.492187 z"/>
 <path style="fill:#ffffff;opacity:0.1" d="M 16 2 A 14 14 0 0 0 2 16 A 14 14 0 0 0 2.0214844 16.585938 A 14 14 0 0 1 16 3 A 14 14 0 0 1 29.978516 16.414062 A 14 14 0 0 0 30 16 A 14 14 0 0 0 16 2 z"/>
 <path style="fill:#80adf5" d="m 12.398438,6.0664062 c -0.02909,0.00717 -0.05681,0.02329 -0.08399,0.048828 -0.205944,0.1934752 -0.359515,0.7989279 -0.330078,1.3085937 0.0094,0.163261 0.01282,0.296875 0.0078,0.296875 -0.176584,0 -0.75586,0.2019865 -0.75586,0.2636719 0,0.017717 0.08185,0.1207352 0.181641,0.2285156 0.194609,0.2101995 0.299837,0.4132875 0.363281,0.6972656 0.06902,0.3089283 0.03159,0.3263138 -0.125,0.060547 C 10.970816,7.8073924 9.6918055,7.0745478 8.7109375,7.2832031 8.5829257,7.3104331 8.4371588,7.3513659 8.3886719,7.375 c -0.087125,0.042462 -0.087772,0.046011 -0.078125,0.3144531 0.033089,0.9206666 0.4460017,1.4686593 1.359375,1.8007813 0.4014681,0.1459822 0.4066191,0.1722912 0.027344,0.15625 C 9.3298454,9.6309444 8.9517036,9.4484225 8.6191406,9.1269531 L 8.4863281,9 8.28125,9.0371094 C 7.8320054,9.1192572 6.6222029,9.0791104 4.8242188,8.921875 4.2784223,8.8741462 4.0710845,8.8664173 3.96875,8.875 2.6860286,11.030731 2.0060762,13.491511 2,16 c 0.0057,2.405829 0.6312834,4.769593 1.8164062,6.863281 0.3092139,0.05228 0.6947951,0.115989 1.0097657,0.148438 0.619546,0.06383 1.7412181,0.06435 2.3027343,0 1.1564056,-0.132584 2.0725034,-0.411576 3.3144528,-1.00586 0.260756,-0.124775 0.494173,-0.219918 0.517579,-0.210937 0.0525,0.02015 0.267464,0.392767 0.419921,0.728516 0.153579,0.338224 0.321809,0.854549 0.439453,1.339843 0.05349,0.220624 0.103392,0.410591 0.111329,0.423828 0.02878,0.04801 0.138378,0.02156 0.171875,-0.04102 0.06513,-0.121712 -0.06759,-1.126965 -0.310547,-2.355469 L 11.646484,21.152344 11.75,21.066406 c 0.05712,-0.04769 0.168886,-0.12115 0.246094,-0.162109 l 0.138672,-0.07422 0.154296,0.08008 c 0.212969,0.110625 0.57517,0.484011 0.757813,0.779297 0.27805,0.449536 0.523795,1.141078 0.671875,1.888672 l 0.07227,0.363281 0.0957,-0.0098 c 0.175533,-0.01872 0.186875,-0.05577 0.144531,-0.460938 -0.08261,-0.790423 -0.375222,-1.774707 -0.833984,-2.8125 -0.08801,-0.199094 -0.152703,-0.379593 -0.144532,-0.400391 0.0082,-0.0208 0.06217,-0.06825 0.119141,-0.105468 0.405984,-0.265248 2.370806,-2.475104 3.214844,-3.424969 0.458443,-0.515924 1.171317,-1.364087 1.257812,-1.496094 0.07674,-0.117124 0.196847,-0.159807 0.623047,-0.222656 0.481698,-0.07103 1.403103,-0.04798 1.867188,0.04687 0.955398,0.195242 1.859324,0.548821 2.833984,1.111328 1.207588,0.696939 2.605351,2.138328 3.765625,3.372234 0.128622,0.136787 0.243257,0.248047 0.255859,0.248047 0.02713,0 0.132813,-0.317474 0.132813,-0.40039 0,-0.06987 -0.354792,-0.702187 -0.748047,-1.333985 C 24.61819,15.230286 22.328912,12.672801 19.980469,10.90625 18.041862,9.4479865 16.076307,8.4882475 13.949219,7.9609375 L 13.404297,7.8261719 13.376953,7.6679688 C 13.283673,7.125977 13.027628,6.561017 12.746094,6.2714844 12.587218,6.1080944 12.485711,6.0448799 12.398438,6.0664062 Z m 1.376953,4.9003908 c 0.144711,0.0011 0.301159,0.02452 0.457031,0.07226 0.315711,0.09671 0.596197,0.306031 0.703125,0.523438 0.07452,0.151509 0.07987,0.190766 0.04101,0.318359 -0.107388,0.35279 -0.618864,0.512207 -1.164062,0.363282 C 13.583813,12.181671 13.418617,12.094935 13.25,11.949219 13.071398,11.794874 13,11.655959 13,11.458984 c 0,-0.302669 0.341263,-0.495516 0.775391,-0.492187 z"/>
 <path style="fill:#ffffff;opacity:0.2" d="M 12.398438 6.0664062 C 12.369346 6.0735763 12.341633 6.0896964 12.314453 6.1152344 C 12.108509 6.3087096 11.954938 6.9141623 11.984375 7.4238281 C 11.993775 7.5870891 11.997197 7.7207031 11.992188 7.7207031 C 11.815603 7.7207031 11.236328 7.9226896 11.236328 7.984375 C 11.236328 8.002092 11.318183 8.1051102 11.417969 8.2128906 C 11.579791 8.387677 11.670742 8.5676547 11.736328 8.7832031 C 11.830681 8.7578159 11.941264 8.7207031 11.992188 8.7207031 C 11.997208 8.7207031 11.993775 8.5870891 11.984375 8.4238281 C 11.954938 7.9141623 12.108509 7.3087096 12.314453 7.1152344 C 12.341633 7.0896964 12.369347 7.0735763 12.398438 7.0664062 C 12.485711 7.04488 12.587218 7.1080944 12.746094 7.2714844 C 13.027628 7.561017 13.283673 8.1259769 13.376953 8.6679688 L 13.404297 8.8261719 L 13.949219 8.9609375 C 16.076307 9.4882475 18.041862 10.447986 19.980469 11.90625 C 22.328912 13.672801 24.61819 16.230286 26.375 19.052734 C 26.445879 19.166608 26.495972 19.258529 26.5625 19.369141 C 26.618273 19.426927 26.679615 19.480828 26.734375 19.539062 C 26.862997 19.675849 26.977632 19.787109 26.990234 19.787109 C 27.017364 19.787109 27.123047 19.469635 27.123047 19.386719 C 27.123047 19.316849 26.768255 18.684532 26.375 18.052734 C 24.61819 15.230286 22.328912 12.672801 19.980469 10.90625 C 18.041862 9.4479865 16.076307 8.4882475 13.949219 7.9609375 L 13.404297 7.8261719 L 13.376953 7.6679688 C 13.283673 7.125977 13.027628 6.561017 12.746094 6.2714844 C 12.587218 6.1080944 12.485711 6.0448799 12.398438 6.0664062 z M 9.0917969 7.2480469 C 8.9616131 7.245705 8.833546 7.2571212 8.7109375 7.2832031 C 8.5829257 7.3104331 8.4371588 7.3513659 8.3886719 7.375 C 8.3015471 7.417462 8.3008995 7.4210115 8.3105469 7.6894531 C 8.3196347 7.9423135 8.3647047 8.1614424 8.4335938 8.3613281 C 8.4967858 8.3373605 8.6008614 8.3066179 8.7109375 8.2832031 C 9.6918055 8.0745478 10.970816 8.8073924 11.65625 9.9707031 C 11.81284 10.23647 11.85027 10.219085 11.78125 9.9101562 C 11.717806 9.6261782 11.612578 9.4230901 11.417969 9.2128906 C 11.318178 9.1051102 11.236328 9.002092 11.236328 8.984375 C 11.236328 8.9528603 11.387142 8.8872364 11.558594 8.828125 C 10.947227 7.891694 9.9583798 7.2636356 9.0917969 7.2480469 z M 3.96875 8.875 A 14 14 0 0 0 2 16 A 14 14 0 0 0 2.0214844 16.392578 A 14 14 0 0 1 3.96875 9.875 C 4.0710845 9.8664173 4.2784223 9.8741462 4.8242188 9.921875 C 6.6222029 10.079111 7.8320054 10.119257 8.28125 10.037109 L 8.4863281 10 L 8.6191406 10.126953 C 8.9517036 10.448422 9.3298454 10.630944 9.6972656 10.646484 C 10.076541 10.662525 10.07139 10.636216 9.6699219 10.490234 C 8.878275 10.202375 8.4815645 9.7357712 8.3632812 9.0214844 L 8.28125 9.0371094 C 7.8320054 9.1192572 6.6222029 9.0791104 4.8242188 8.921875 C 4.2784223 8.8741462 4.0710845 8.8664173 3.96875 8.875 z M 13.376953 12.037109 C 13.154053 12.116878 13 12.260798 13 12.458984 C 13 12.655959 13.071398 12.794874 13.25 12.949219 C 13.418617 13.094935 13.583818 13.181676 13.8125 13.244141 C 14.357698 13.393066 14.869174 13.233649 14.976562 12.880859 C 15.015422 12.753266 15.010067 12.714009 14.935547 12.5625 C 14.874806 12.439 14.75091 12.325684 14.603516 12.226562 C 14.386833 12.308606 14.107876 12.324825 13.8125 12.244141 C 13.640195 12.197072 13.505792 12.126577 13.376953 12.037109 z M 13.341797 21.009766 C 13.293701 21.048134 13.202929 21.132055 13.171875 21.152344 C 13.114904 21.189562 13.060934 21.237012 13.052734 21.257812 C 13.044563 21.27861 13.109256 21.459109 13.197266 21.658203 C 13.555254 22.468029 13.8066 23.241952 13.941406 23.919922 C 14.057922 23.894205 14.068016 23.822502 14.03125 23.470703 C 13.958133 22.771111 13.71353 21.915776 13.341797 21.009766 z M 11.816406 22.023438 C 11.794927 22.038823 11.765331 22.053607 11.75 22.066406 L 11.646484 22.152344 L 11.792969 22.890625 C 11.900164 23.432656 11.976452 23.898476 12.033203 24.296875 C 12.061079 24.285888 12.090047 24.271257 12.103516 24.246094 C 12.165929 24.129458 12.040276 23.181755 11.816406 22.023438 z"/>
</svg>
