<svg xmlns="http://www.w3.org/2000/svg" width="32" height="32" version="1.1">
 <circle style="opacity:0.2" cx="16" cy="17" r="14"/>
 <path style="fill:#42be65" d="M 16,2 A 14,14 0 0 0 7.7148434,4.7589843 L 15.04707,14.69707 16.881836,15.104492 24.420508,4.8177734 A 14,14 0 0 0 16,2 Z"/>
 <path style="fill:#1192e8" d="M 13.838476,16.977539 2.7642578,20.47207 A 14,14 0 0 0 15.469532,29.961718 L 15.433986,17.67207 Z"/>
 <path style="fill:#1192e8" d="m 17.028125,16.977539 -1.594141,0.694531 -0.03691,12.285547 A 14,14 0 0 0 16,30 14,14 0 0 0 29.116797,20.793359 Z"/>
 <path style="fill:#009d9a" d="M 7.6833987,4.7822266 A 14,14 0 0 0 2,16 14,14 0 0 0 2.875,20.771484 L 14.900782,16.570117 15.04707,14.69707 Z"/>
 <path style="fill:#009d9a" d="m 24.484766,4.8683593 -7.60293,10.2361327 0.146289,1.873047 11.954687,4.174023 A 14,14 0 0 0 30,16 14,14 0 0 0 24.484766,4.8683593 Z"/>
 <path style="opacity:0.1" d="M 23.433594,5.140625 20.589844,9 H 11.410156 L 8.5703125,5.1464844 c -0.00123,7.647e-4 -0.00268,0.00119 -0.00391,0.00195 -0.089592,0.055765 -0.1773483,0.11412 -0.265625,0.171875 A 14,14 0 0 0 6.875,6.3867188 L 9.8613281,10.439453 7.09375,18.748047 2.4160156,20.246094 c 0.1099411,0.463868 0.2457921,0.921121 0.4023438,1.371094 a 14,14 0 0 0 0.234375,0.628906 L 8.3320312,20.5625 15,25.291016 v 5.636718 A 14,14 0 0 0 16,31 a 14,14 0 0 0 1,-0.07227 v -5.636718 l 6.667969,-4.728516 5.279297,1.683594 a 14,14 0 0 0 0.234375,-0.628906 c 0.156551,-0.449973 0.292402,-0.907226 0.402343,-1.371094 L 24.90625,18.748047 22.138672,10.439453 25.125,6.3886719 C 24.992073,6.2743215 24.855805,6.1619544 24.71875,6.0527344 24.322264,5.736772 23.90907,5.4431096 23.480469,5.171875 a 14,14 0 0 0 -0.04687,-0.03125 z"/>
 <path style="fill:#3f3f3f" d="M 23.433594 4.140625 L 16 14.228516 L 8.5703125 4.1464844 C 8.569083 4.1472491 8.5676355 4.1476724 8.5664062 4.1484375 C 8.4768145 4.2042021 8.3890578 4.2625575 8.3007812 4.3203125 A 14 14 0 0 0 6.875 5.3867188 L 14.287109 15.445312 L 2.4160156 19.246094 C 2.5259567 19.709962 2.6618077 20.167215 2.8183594 20.617188 A 14 14 0 0 0 3.0527344 21.246094 L 15 17.4375 L 15 29.927734 A 14 14 0 0 0 16 30 A 14 14 0 0 0 17 29.927734 L 17 17.4375 L 28.947266 21.246094 A 14 14 0 0 0 29.181641 20.617188 C 29.338192 20.167215 29.474043 19.709962 29.583984 19.246094 L 17.712891 15.445312 L 25.125 5.3886719 C 24.992073 5.2743215 24.855805 5.1619544 24.71875 5.0527344 C 24.322264 4.736772 23.90907 4.4431096 23.480469 4.171875 A 14 14 0 0 0 23.433594 4.140625 z"/>
 <path style="fill:#3f3f3f" transform="matrix(-0.50846057,0,0,-0.49623794,15.329809,1.4473183)" d="m -1.3180773,-47.462477 18.0103693,13.0853 -6.8793496,21.17246 -22.2620414,-10e-7 -6.879348,-21.17246 z"/>
 <path style="opacity:0.2;fill:#ffffff" d="M 16 2 A 14 14 0 0 0 2 16 A 14 14 0 0 0 2.0351562 16.5 A 14 14 0 0 1 16 3 A 14 14 0 0 1 29.980469 16.279297 A 14 14 0 0 0 30 16 A 14 14 0 0 0 16 2 z"/>
</svg>
