<svg xmlns="http://www.w3.org/2000/svg" width="32" height="32" version="1">
 <path style="opacity:0.2" d="M 17,3 A 11,11 0 0 0 6,14 11,11 0 0 0 10.296875,22.703125 L 25.708984,7.2910156 A 11,11 0 0 0 17,3 Z"/>
 <path style="fill:#4f4f4f" d="M 17 2 A 11 11 0 0 0 6 13 A 11 11 0 0 0 10.296875 21.703125 L 25.708984 6.2910156 A 11 11 0 0 0 17 2 z"/>
 <path style="opacity:0.1;fill:#ffffff" d="M 17 2 A 11 11 0 0 0 6 13 A 11 11 0 0 0 6.0214844 13.40625 A 11 11 0 0 1 17 3 A 11 11 0 0 1 25.248047 6.7519531 L 25.708984 6.2910156 A 11 11 0 0 0 17 2 z"/>
 <path style="opacity:0.2" d="M 21.703125,11.296875 6.2910156,26.708984 A 11,11 0 0 0 15,31 11,11 0 0 0 26,20 11,11 0 0 0 21.703125,11.296875 Z"/>
 <path style="fill:#ed6b21" d="M 21.703125 10.296875 L 6.2910156 25.708984 A 11 11 0 0 0 15 30 A 11 11 0 0 0 26 19 A 11 11 0 0 0 21.703125 10.296875 z"/>
 <path style="fill:#ffffff;opacity:0.2" d="M 21.703125 10.296875 L 6.2910156 25.708984 A 11 11 0 0 0 6.7519531 26.248047 L 21.703125 11.296875 A 11 11 0 0 1 25.978516 19.59375 A 11 11 0 0 0 26 19 A 11 11 0 0 0 21.703125 10.296875 z"/>
</svg>
