<svg width="32" height="32" version="1.1" xmlns="http://www.w3.org/2000/svg">
 <path d="M 16 3 C 16 3 12.977175 3.0559833 10.494141 4.3242188 C 6.7082685 6.2578945 2 11.4 2 17 C 2 21.9 3.9698821 24.246577 6.9003906 25.400391 C 7.2821846 25.534019 7.6973643 25.649991 8.1191406 25.759766 C 8.8145615 30.981594 12.694429 31 16 31 C 19.305571 31 23.185438 30.981594 23.880859 25.759766 C 24.302636 25.649991 24.717815 25.534019 25.099609 25.400391 C 28.030118 24.246577 30 21.9 30 17 C 30 11.4 25.291731 6.2578945 21.505859 4.3242188 C 19.022825 3.0559825 16 3 16 3 z " style="opacity:.2"/>
 <path d="m16 2s-3.022825 0.0559833-5.505859 1.3242188c-2.0442042 1.0440995-4.3511751 3.0276101-6.0468754 5.5097656l-2.3710937 5.9726566c-0.0167402 0.14334-0.0262734 0.287466-0.0371094 0.43164l0.9589844 5.736328v0.001953c0.8582168 1.703728 2.2212128 2.761926 3.9023437 3.423829 3.5000004 1.225 9.0996094 1.40039 9.0996094 1.40039s5.599609-0.17539 9.099609-1.40039c1.681132-0.661903 3.044127-1.720101 3.902344-3.423829 2.62e-4 -5.19e-4 -2.62e-4 -0.001433 0-0.001953l0.958985-5.736328c-0.010836-0.144174-0.02037-0.2883-0.03711-0.43164l-2.371094-5.9726566c-1.6957-2.4821555-4.002671-4.4656661-6.046875-5.5097656-2.483034-1.2682363-5.505859-1.3242188-5.505859-1.3242188z" style="fill:#26a1db"/>
 <path d="m24 23c0 7-4.355217 7-8 7s-8 0-8-7c0 0 1-3 8-3s8 3 8 3z" style="fill:#e4e4e4"/>
 <ellipse cx="16" cy="12" rx="8" ry="7" style="opacity:.2"/>
 <ellipse cx="16" cy="11" rx="8" ry="7" style="fill:#ffffff"/>
 <path d="m13 23c-0.554 0-1 0.446-1 1v2c0 0.554 0.446 1 1 1s1-0.446 1-1v-2c0-0.554-0.446-1-1-1zm6 0c-0.554 0-1 0.446-1 1v2c0 0.554 0.446 1 1 1s1-0.446 1-1v-2c0-0.554-0.446-1-1-1z" style="opacity:.1"/>
 <path d="m4.4472656 8.8339844c-0.0707985 0.1036345-0.1462625 0.2032392-0.2148437 0.3085937-1.3309129 2.0445499-2.2324219 4.4074219-2.2324219 6.8574219 0 2.08904 0.36024 3.710392 0.9980469 4.976562-0.0025474-0.043591-0.2572737-4.408484-0.1210938-5.59375 0.320339-2.788135 0.8124454-3.895304 1.5703125-6.5488276zm23.105468 0c0.757867 2.6535236 1.249974 3.7606916 1.570313 6.5488276 0.136181 1.185266-0.118546 5.550159-0.121094 5.59375 0.637807-1.26617 0.998047-2.887522 0.998047-4.976562 0-2.45-0.901509-4.812872-2.232422-6.8574219-0.068581-0.1053545-0.144045-0.2049592-0.214844-0.3085937z" style="fill:#e4e4e4"/>
 <path d="m13 22c-0.554 0-1 0.446-1 1v2c0 0.554 0.446 1 1 1s1-0.446 1-1v-2c0-0.554-0.446-1-1-1zm6 0c-0.554 0-1 0.446-1 1v2c0 0.554 0.446 1 1 1s1-0.446 1-1v-2c0-0.554-0.446-1-1-1z" style="fill:#3f3f3f"/>
 <path d="M 16 2 C 16 2 12.977175 2.0559833 10.494141 3.3242188 C 6.7082685 5.2578945 2 10.4 2 16 C 2 16.177966 2.020243 16.328706 2.0253906 16.5 C 2.2936893 11.096372 6.8214817 6.2000696 10.494141 4.3242188 C 12.977175 3.0559833 16 3 16 3 C 16 3 19.022825 3.0559825 21.505859 4.3242188 C 25.178518 6.2000696 29.706311 11.096372 29.974609 16.5 C 29.979757 16.328706 30 16.177966 30 16 C 30 10.4 25.291731 5.2578945 21.505859 3.3242188 C 19.022825 2.0559825 16 2 16 2 z " style="fill:#ffffff;opacity:.2"/>
 <path d="m16 20c-7 0-8 3-8 3 0 0.325882 0.0187421 0.621723 0.0371094 0.917969 0.1764634-0.405961 1.522372-2.917969 7.9628906-2.917969 6.440519 0 7.786427 2.512008 7.962891 2.917969 0.018367-0.296246 0.037109-0.592087 0.037109-0.917969 0 0-1-3-8-3z" style="opacity:.1"/>
</svg>
