<?xml version="1.0" encoding="UTF-8" standalone="no"?>
<svg id="svg2817" xmlns:rdf="http://www.w3.org/1999/02/22-rdf-syntax-ns#" xmlns="http://www.w3.org/2000/svg" height="32" width="32" version="1.0" xmlns:cc="http://creativecommons.org/ns#" xmlns:dc="http://purl.org/dc/elements/1.1/">
    <metadata id="metadata57">
        <rdf:RDF>
            <cc:Work rdf:about="">
                <dc:format>
                    image/svg+xml
                </dc:format>
                <dc:type rdf:resource="http://purl.org/dc/dcmitype/StillImage"/>
                <dc:title/>
            </cc:Work>
        </rdf:RDF>
    </metadata>
    <path id="rect4255-2" d="m12 3-2 2v3h-8v18.5c0 0.831 0.669 1.5 1.5 1.5h25c0.831 0 1.5-0.669 1.5-1.5v-18.5h-8v-3l-2-2zm0 2h8v3h-8z" fill="#ccc"/>
    <path id="path4438" opacity=".2" d="m12 5v1h8v-1h-8zm-10 21.5v1c0 0.831 0.669 1.5 1.5 1.5h25c0.831 0 1.5-0.669 1.5-1.5v-1c0 0.831-0.669 1.5-1.5 1.5h-25c-0.831 0-1.5-0.669-1.5-1.5z"/>
    <circle id="circle4426" style="enable-background:new" fill-rule="evenodd" cx="24.5" cy="23.5" r="7.5" fill="#4ab3e4"/>
    <path id="path4428" d="m26 18.96v4.04l1.5-0.04-3 4.04-3-4.04h1.5v-4h3zm-5 8.0402h7v1h-7z" fill="#fff"/>
    <path id="circle4347" opacity=".2" style="enable-background:new" fill-rule="evenodd" d="m31.979 23.947a7.5 7.5 0 0 1 -7.479 7.053 7.5 7.5 0 0 1 -7.479 -6.947 7.5 7.5 0 0 0 -0.021 0.447 7.5 7.5 0 0 0 7.5 7.5 7.5 7.5 0 0 0 7.5 -7.5 7.5 7.5 0 0 0 -0.021 -0.553z"/>
</svg>
