<?xml version="1.0" encoding="UTF-8" standalone="no"?>
<svg xmlns="http://www.w3.org/2000/svg" height="32" width="32" version="1">
 <rect ry="1.5" rx="1.5" transform="matrix(0,-1,-1,0,0,0)" height="28" width="28" y="-30" x="-30" fill="#5d5d5d"/>
 <path opacity=".1" d="m3.5 2c-0.831 0-1.5 0.669-1.5 1.5v1c0-0.831 0.669-1.5 1.5-1.5h25c0.831 0 1.5 0.669 1.5 1.5v-1c0-0.831-0.669-1.5-1.5-1.5h-25z" fill="#fff"/>
 <path opacity=".2" d="m2 28.5v1c0 0.831 0.669 1.5 1.5 1.5h25c0.831 0 1.5-0.669 1.5-1.5v-1c0 0.831-0.669 1.5-1.5 1.5h-25c-0.831 0-1.5-0.669-1.5-1.5z"/>
 <path opacity=".2" stroke-linejoin="round" d="m21.5 11.5v-2h-11v3.5l11 8v3.5h-11v-2" stroke="#000" stroke-linecap="round" stroke-width="3" fill="none"/>
 <path stroke-linejoin="round" d="m21.5 10.5v-2h-11v3.5l11 8v3.5h-11v-2" stroke="#ff5151" stroke-linecap="round" stroke-width="3" fill="none"/>
</svg>
