<svg xmlns="http://www.w3.org/2000/svg" width="32" height="32" version="1.1">
 <path style="opacity:0.2" d="M 5,3 A 3,3 0 1 0 8,6 3,3 0 0 0 5,3 Z M 4.9633786,4.5 A 1.5,1.5 0 0 1 5,4.5 1.5,1.5 0 1 1 3.5,6 1.5,1.5 0 0 1 4.9633786,4.5 Z"/>
 <path style="opacity:0.2" d="m 13.5,6.00035 c -4.6944204,0 -8.5,3.8055796 -8.5,8.5 0,4.69442 3.8055796,8.5 8.5,8.5 0.491758,0 0.970555,-0.05069 1.439453,-0.130859 l 6.695313,6.695312 a 4.9000001,4.9000001 0 0 0 6.929687,0 4.9000001,4.9000001 0 0 0 0,-6.929687 L 21.869141,15.939803 C 21.949308,15.470905 22,14.992108 22,14.50035 c 0,-4.6944204 -3.80558,-8.5 -8.5,-8.5 z"/>
 <path style="fill:none;stroke:#e52030;stroke-width:9.8;stroke-linecap:round;stroke-linejoin:round" d="M 13.2,13.2 25.1,25.1"/>
 <path style="fill:#c6c6c6" d="M 5,2 A 3,3 0 1 0 8,5 3,3 0 0 0 5,2 Z M 4.9633786,3.5 A 1.5,1.5 0 0 1 5,3.5 1.5,1.5 0 1 1 3.5,5 1.5,1.5 0 0 1 4.9633786,3.5 Z"/>
 <path style="opacity:0.2;fill:none;stroke:#000000;stroke-width:4;stroke-linecap:round;stroke-linejoin:round" d="M 13,14 25,26"/>
 <path style="fill:none;stroke:#fcfcfc;stroke-width:4;stroke-linecap:round;stroke-linejoin:round" d="M 13,13 25,25"/>
 <circle style="fill:#929292" cx="7.5" cy="7.5" r="1.5"/>
 <circle style="fill:#e52030" cx="13.5" cy="13.5" r="8.5"/>
 <path style="fill:#ffffff;opacity:0.2" d="M 13.5 5 C 8.8055796 5 5 8.8055796 5 13.5 C 5 13.668799 5.0156855 13.833635 5.0253906 14 C 5.2855921 9.5396369 8.9743789 6 13.5 6 C 18.027594 6 21.717295 9.5427464 21.974609 14.005859 C 21.985944 13.838109 22 13.670747 22 13.5 C 22 8.8055796 18.19442 5 13.5 5 z M 21.974609 15.044922 C 21.952731 15.346979 21.919328 15.645906 21.869141 15.939453 L 28.564453 22.634766 A 4.9000001 4.9000001 0 0 1 29.974609 25.603516 A 4.9000001 4.9000001 0 0 0 28.564453 21.634766 L 21.974609 15.044922 z"/>
 <path style="fill:#ffffff;opacity:0.2" d="M 5 2 A 3 3 0 0 0 2.0429688 5.4960938 A 3 3 0 0 1 5 3 A 3 3 0 0 1 7.9570312 5.5 A 3 3 0 0 0 8 5 A 3 3 0 0 0 5 2 z M 3.5859375 5.4980469 A 1.5 1.5 0 0 0 3.5 6 A 1.5 1.5 0 1 0 6.4140625 5.5 A 1.5 1.5 0 0 1 3.5859375 5.4980469 z"/>
</svg>
