<svg xmlns="http://www.w3.org/2000/svg" width="32" height="32" version="1">
 <rect style="opacity:0.2" width="29" height="29" x="2" y="2" rx="8.7" ry="8.7"/>
 <rect style="fill:#e97e10" width="29" height="29" x="2" y="1" rx="8.7" ry="8.7"/>
 <g style="font-variation-settings:normal;opacity:0.2;stop-color:#000000" transform="matrix(0.12763596,0,0,0.12763596,4.5,2.1050178)">
  <path style="font-variation-settings:normal;stop-color:#000000" class="st0" d="m 68.7,91.6 v 0 c 0,1.7 0.4,3.4 1,4.9 7.6,16.6 62.8,8.4 61.8,45.3 -1.1,39.9 -59,40.9 -80.7,23 -2.7,0.9 -19.1,8.9 -32.5,15.5 C 8.8,185 0.7,189 0,189.4 c 0.6,-0.4 7.6,-5 16.8,-11.1 18.5,-12.2 45.7,-30.1 45.9,-30.1 12.9,8.8 46.1,15.4 48.4,-6.9 -1.8,-20.4 -52.1,-12.2 -61.4,-39.8 -0.1,-0.3 -0.2,-0.6 -0.3,-0.8 l -0.1,-0.3 C 49.2,99.9 49,99.5 48.9,99 c -0.5,-2.2 -0.7,-4.5 -0.7,-6.8 0,-0.4 0,-0.7 0,-1.1 1.1,-39.9 59,-40.9 80.6,-23 2.7,-0.9 19.2,-8.7 32.8,-15.2 9.7,-4.6 17.9,-8.6 18.6,-8.9 -0.6,0.4 -7.8,5 -17.1,11 -18.7,12 -46,29.6 -46.2,29.6 -12.6,-8.7 -47,-15.4 -48.2,7 z"/>
  <path style="font-variation-settings:normal;stop-color:#000000" class="st0" d="m 76.2,136.6 c 0.1,2.8 -2,5.2 -4.8,5.4 -2.9,0.2 -5.3,-1.9 -5.5,-4.8 -0.1,-2.8 2.1,-5.2 4.9,-5.4 2.8,-0.1 5.2,2 5.4,4.8 z"/>
  <path style="font-variation-settings:normal;stop-color:#000000" class="st0" d="m 115.3,97.4 c 0,1.4 -0.5,2.7 -1.4,3.7 -0.9,1 -2.1,1.6 -3.5,1.6 -2.8,0.1 -5.2,-2.1 -5.3,-4.9 -0.1,-2.8 2.1,-5.2 4.9,-5.3 2.8,-0.1 5.1,2.1 5.3,4.9 z"/>
  <path style="font-variation-settings:normal;stop-color:#000000" class="st0" d="m 90.2,89.8 c 0,1.4 -0.5,2.7 -1.4,3.6 -0.9,1 -2.1,1.6 -3.5,1.7 C 82.5,95.2 80.1,93 80,90.2 79.9,87.4 82.1,85 84.9,84.9 h 0.2 c 2.7,0 5,2.2 5.1,4.9 z"/>
  <path style="font-variation-settings:normal;stop-color:#000000" class="st0" d="m 102.7,93.6 v 0.2 c 0,2.7 -2.2,5 -4.9,5.1 C 95,99 92.6,96.8 92.5,94 c -0.1,-2.8 2.1,-5.2 4.9,-5.3 h 0.2 c 2.7,0 5,2.1 5.1,4.9 z"/>
  <path style="font-variation-settings:normal;stop-color:#000000" class="st0" d="m 101.4,144 c 0.1,2.8 -2,5.2 -4.8,5.4 -2.9,0.2 -5.3,-1.9 -5.5,-4.8 -0.1,-2.8 2.1,-5.2 4.9,-5.4 2.8,-0.1 5.2,2 5.4,4.8 z"/>
  <path style="font-variation-settings:normal;stop-color:#000000" class="st0" d="m 88.8,140.3 c 0.1,2.8 -2,5.2 -4.8,5.4 -2.9,0.2 -5.3,-1.9 -5.5,-4.8 -0.1,-2.8 2.1,-5.2 4.9,-5.4 2.8,-0.1 5.2,2 5.4,4.8 z"/>
 </g>
 <g style="fill:#f9f9f9" transform="matrix(0.12763596,0,0,0.12763596,4.5,1.1048835)">
  <path style="fill:#f9f9f9" class="st0" d="m 68.7,91.6 v 0 c 0,1.7 0.4,3.4 1,4.9 7.6,16.6 62.8,8.4 61.8,45.3 -1.1,39.9 -59,40.9 -80.7,23 -2.7,0.9 -19.1,8.9 -32.5,15.5 C 8.8,185 0.7,189 0,189.4 c 0.6,-0.4 7.6,-5 16.8,-11.1 18.5,-12.2 45.7,-30.1 45.9,-30.1 12.9,8.8 46.1,15.4 48.4,-6.9 -1.8,-20.4 -52.1,-12.2 -61.4,-39.8 -0.1,-0.3 -0.2,-0.6 -0.3,-0.8 l -0.1,-0.3 C 49.2,99.9 49,99.5 48.9,99 c -0.5,-2.2 -0.7,-4.5 -0.7,-6.8 0,-0.4 0,-0.7 0,-1.1 1.1,-39.9 59,-40.9 80.6,-23 2.7,-0.9 19.2,-8.7 32.8,-15.2 9.7,-4.6 17.9,-8.6 18.6,-8.9 -0.6,0.4 -7.8,5 -17.1,11 -18.7,12 -46,29.6 -46.2,29.6 -12.6,-8.7 -47,-15.4 -48.2,7 z"/>
  <path style="fill:#f9f9f9" class="st0" d="m 76.2,136.6 c 0.1,2.8 -2,5.2 -4.8,5.4 -2.9,0.2 -5.3,-1.9 -5.5,-4.8 -0.1,-2.8 2.1,-5.2 4.9,-5.4 2.8,-0.1 5.2,2 5.4,4.8 z"/>
  <path style="fill:#f9f9f9" class="st0" d="m 115.3,97.4 c 0,1.4 -0.5,2.7 -1.4,3.7 -0.9,1 -2.1,1.6 -3.5,1.6 -2.8,0.1 -5.2,-2.1 -5.3,-4.9 -0.1,-2.8 2.1,-5.2 4.9,-5.3 2.8,-0.1 5.1,2.1 5.3,4.9 z"/>
  <path style="fill:#f9f9f9" class="st0" d="m 90.2,89.8 c 0,1.4 -0.5,2.7 -1.4,3.6 -0.9,1 -2.1,1.6 -3.5,1.7 C 82.5,95.2 80.1,93 80,90.2 79.9,87.4 82.1,85 84.9,84.9 h 0.2 c 2.7,0 5,2.2 5.1,4.9 z"/>
  <path style="fill:#f9f9f9" class="st0" d="m 102.7,93.6 v 0.2 c 0,2.7 -2.2,5 -4.9,5.1 C 95,99 92.6,96.8 92.5,94 c -0.1,-2.8 2.1,-5.2 4.9,-5.3 h 0.2 c 2.7,0 5,2.1 5.1,4.9 z"/>
  <path style="fill:#f9f9f9" class="st0" d="m 101.4,144 c 0.1,2.8 -2,5.2 -4.8,5.4 -2.9,0.2 -5.3,-1.9 -5.5,-4.8 -0.1,-2.8 2.1,-5.2 4.9,-5.4 2.8,-0.1 5.2,2 5.4,4.8 z"/>
  <path style="fill:#f9f9f9" class="st0" d="m 88.8,140.3 c 0.1,2.8 -2,5.2 -4.8,5.4 -2.9,0.2 -5.3,-1.9 -5.5,-4.8 -0.1,-2.8 2.1,-5.2 4.9,-5.4 2.8,-0.1 5.2,2 5.4,4.8 z"/>
 </g>
 <path style="fill:#ffffff;opacity:0.2" d="M 10.699219 1 C 5.8794189 1 2 4.8794189 2 9.6992188 L 2 10.699219 C 2 5.8794189 5.8794189 2 10.699219 2 L 22.300781 2 C 27.120581 2 31 5.8794189 31 10.699219 L 31 9.6992188 C 31 4.8794189 27.120581 1 22.300781 1 L 10.699219 1 z"/>
</svg>
