<svg xmlns="http://www.w3.org/2000/svg" width="32" height="32" version="1.1">
 <path style="opacity:0.2" d="m19 7a7 7 0 0 0 -6.503906 4.431641 5 5 0 0 0 -3.496094 -1.431641 5 5 0 0 0 -5 5 5 5 0 0 0 0.4882812 2.144531 6 6 0 0 0 -2.4882812 4.855469 6 6 0 0 0 6 6h14a8 8 0 0 0 8 -8 8 8 0 0 0 -4.074219 -6.966797 7 7 0 0 0 -6.925781 -6.033203z"/>
 <circle style="fill:#46b4ff" cx="19" cy="13" r="7"/>
 <circle style="fill:#46b4ff" cx="8" cy="21" r="6"/>
 <circle style="fill:#46b4ff" cx="9" cy="14" r="5"/>
 <circle style="fill:#46b4ff" cx="22" cy="19" r="8"/>
 <rect style="fill:#46b4ff" width="14" height="14" x="8" y="13"/>
 <path style="opacity:0.2;fill:#ffffff" d="m19 6a7 7 0 0 0 -6.503906 4.431641 5 5 0 0 0 -3.496094 -1.431641 5 5 0 0 0 -5 5 5 5 0 0 0 0.0273438 0.515625 5 5 0 0 1 4.9726562 -4.515625 5 5 0 0 1 3.496094 1.431641 7 7 0 0 1 6.503906 -4.431641 7 7 0 0 1 6.925781 6.033203 8 8 0 0 1 4.052735 6.548828 8 8 0 0 0 0.021484 -0.582031 8 8 0 0 0 -4.074219 -6.966797 7 7 0 0 0 -6.925781 -6.033203zm-14.798828 10.375a6 6 0 0 0 -2.2011719 4.625 6 6 0 0 0 0.0253906 0.527344 6 6 0 0 1 2.4628906 -4.382813 5 5 0 0 1 -0.2871093 -0.769531z"/>
 <path style="opacity:0.2" d="M 16,15 13,19 H 15 V 22 H 17 V 19 H 19 Z M 16,12 A 7,7 0 0 0 9,19 7,7 0 0 0 16,26 7,7 0 0 0 23,19 7,7 0 0 0 16,12 Z M 16,14 A 5,5 0 0 1 21,19 5,5 0 0 1 16,24 5,5 0 0 1 11,19 5,5 0 0 1 16,14 Z"/>
 <path style="fill:#ffffff" d="M 16,14 13,18 H 15 V 21 H 17 V 18 H 19 Z M 16,11 A 7,7 0 0 0 9,18 7,7 0 0 0 16,25 7,7 0 0 0 23,18 7,7 0 0 0 16,11 Z M 16,13 A 5,5 0 0 1 21,18 5,5 0 0 1 16,23 5,5 0 0 1 11,18 5,5 0 0 1 16,13 Z"/>
</svg>
