<svg xmlns="http://www.w3.org/2000/svg" width="32" height="32" version="1">
 <circle style="opacity:0.2" cx="16.5" cy="16.5" r="14.5"/>
 <circle style="fill:#673ab7" cx="16.5" cy="15.5" r="14.5"/>
 <path style="opacity:0.2" d="M 16.5,6 A 10.5,10.5 0 0 0 6,16.5 10.5,10.5 0 0 0 16.5,27 10.5,10.5 0 0 0 27,16.5 10.5,10.5 0 0 0 16.5,6 Z m 0,3 A 7.5,7.5 0 0 1 24,16.5 7.5,7.5 0 0 1 16.5,24 7.5,7.5 0 0 1 9,16.5 7.5,7.5 0 0 1 16.5,9 Z m 0,4 A 3.4999998,3.4999998 0 0 0 13,16.5 3.4999998,3.4999998 0 0 0 16.5,20 3.4999998,3.4999998 0 0 0 20,16.5 3.4999998,3.4999998 0 0 0 16.5,13 Z"/>
 <path style="fill:#ffffff" d="M 16.5 5 A 10.5 10.5 0 0 0 6 15.5 A 10.5 10.5 0 0 0 16.5 26 A 10.5 10.5 0 0 0 27 15.5 A 10.5 10.5 0 0 0 16.5 5 z M 16.5 8 A 7.5 7.5 0 0 1 24 15.5 A 7.5 7.5 0 0 1 16.5 23 A 7.5 7.5 0 0 1 9 15.5 A 7.5 7.5 0 0 1 16.5 8 z M 16.5 12 A 3.4999998 3.4999998 0 0 0 13 15.5 A 3.4999998 3.4999998 0 0 0 16.5 19 A 3.4999998 3.4999998 0 0 0 20 15.5 A 3.4999998 3.4999998 0 0 0 16.5 12 z"/>
 <path style="fill:#ffffff;opacity:0.1" d="M 16.5 1 A 14.5 14.5 0 0 0 2 15.5 A 14.5 14.5 0 0 0 2.0214844 16.080078 A 14.5 14.5 0 0 1 16.5 2 A 14.5 14.5 0 0 1 30.978516 15.919922 A 14.5 14.5 0 0 0 31 15.5 A 14.5 14.5 0 0 0 16.5 1 z"/>
</svg>
