<svg xmlns="http://www.w3.org/2000/svg" width="32" height="32" version="1">
 <circle fill="#41a5c7" cx="16" cy="16" r="14"/>
 <path opacity=".2" d="m25 17a9 9 0 0 0 -9 -9 9 9 0 0 0 -9 9 9 9 0 0 0 9 9 9 9 0 0 0 9 -9zm-2 0a7 7 0 0 1 -7 7 7 7 0 0 1 -7 -7 7 7 0 0 1 7 -7 7 7 0 0 1 7 7zm-3 0c0-0.554-0.446-1-1-1h-6c-0.554 0-1 0.446-1 1s0.446 1 1 1h6c0.554 0 1-0.446 1-1z"/>
 <path fill="#fff" d="m25 16a9 9 0 0 0 -9 -9 9 9 0 0 0 -9 9 9 9 0 0 0 9 9 9 9 0 0 0 9 -9zm-2 0a7 7 0 0 1 -7 7 7 7 0 0 1 -7 -7 7 7 0 0 1 7 -7 7 7 0 0 1 7 7zm-3 0c0-0.554-0.446-1-1-1h-6c-0.554 0-1 0.446-1 1s0.446 1 1 1h6c0.554 0 1-0.446 1-1z"/>
 <path fill="#fff" opacity=".2" d="m16 2a14 14 0 0 0 -14 14 14 14 0 0 0 0.0215 0.586 14 14 0 0 1 13.978 -13.586 14 14 0 0 1 13.979 13.414 14 14 0 0 0 0.021 -0.414 14 14 0 0 0 -14 -14z"/>
 <path opacity=".2" d="m29.979 16.414a14 14 0 0 1 -13.979 13.586 14 14 0 0 1 -13.978 -13.414 14 14 0 0 0 -0.022 0.414 14 14 0 0 0 14 14 14 14 0 0 0 14 -14 14 14 0 0 0 -0.021 -0.586z"/>
</svg>
