<svg xmlns="http://www.w3.org/2000/svg" width="32" height="32" version="1">
 <rect style="opacity:0.2" width="29" height="29" x="-31" y="-31" rx="14.5" ry="14.5" transform="matrix(0,-1,-1,0,0,0)"/>
 <rect style="fill:#4295ac" width="29" height="29" x="-30" y="-31" rx="14.5" ry="14.5" transform="matrix(0,-1,-1,0,0,0)"/>
 <path style="opacity:0.2" d="M 16.5,4 A 1.5000007,1.5000007 0 0 0 15,5.5 1.5000007,1.5000007 0 0 0 16.5,7 1.5000007,1.5000007 0 0 0 18,5.5 1.5000007,1.5000007 0 0 0 16.5,4 Z M 10,6 A 1.4999994,1.4999994 0 0 0 8.5,7.5 1.4999994,1.4999994 0 0 0 10,9 1.4999994,1.4999994 0 0 0 11.5,7.5 1.4999994,1.4999994 0 0 0 10,6 Z M 23,6 A 1.4999994,1.4999994 0 0 0 21.5,7.5 1.4999994,1.4999994 0 0 0 23,9 1.4999994,1.4999994 0 0 0 24.5,7.5 1.4999994,1.4999994 0 0 0 23,6 Z M 6,10.5 A 1.4999994,1.4999994 0 0 0 4.5,12 1.4999994,1.4999994 0 0 0 6,13.5 1.4999994,1.4999994 0 0 0 7.5,12 1.4999994,1.4999994 0 0 0 6,10.5 Z m 21,0 A 1.4999994,1.4999994 0 0 0 25.5,12 1.4999994,1.4999994 0 0 0 27,13.5 1.4999994,1.4999994 0 0 0 28.5,12 1.4999994,1.4999994 0 0 0 27,10.5 Z m -21.5,6 A 1.4999994,1.4999994 0 0 0 4,18 1.4999994,1.4999994 0 0 0 5.5,19.5 1.4999994,1.4999994 0 0 0 7,18 1.4999994,1.4999994 0 0 0 5.5,16.5 Z m 22,0 A 1.4999994,1.4999994 0 0 0 26,18 1.4999994,1.4999994 0 0 0 27.5,19.5 1.4999994,1.4999994 0 0 0 29,18 1.4999994,1.4999994 0 0 0 27.5,16.5 Z M 8,22 A 1.4999994,1.4999994 0 0 0 6.5,23.5 1.4999994,1.4999994 0 0 0 8,25 1.4999994,1.4999994 0 0 0 9.5,23.5 1.4999994,1.4999994 0 0 0 8,22 Z m 17,0 A 1.4999994,1.4999994 0 0 0 23.5,23.5 1.4999994,1.4999994 0 0 0 25,25 1.4999994,1.4999994 0 0 0 26.5,23.5 1.4999994,1.4999994 0 0 0 25,22 Z"/>
 <path style="fill:#ffffff" d="M 16.5,3 A 1.5000007,1.5000007 0 0 0 15,4.5 1.5000007,1.5000007 0 0 0 16.5,6 1.5000007,1.5000007 0 0 0 18,4.5 1.5000007,1.5000007 0 0 0 16.5,3 Z M 10,5 A 1.4999994,1.4999994 0 0 0 8.5,6.5 1.4999994,1.4999994 0 0 0 10,8 1.4999994,1.4999994 0 0 0 11.5,6.5 1.4999994,1.4999994 0 0 0 10,5 Z M 23,5 A 1.4999994,1.4999994 0 0 0 21.5,6.5 1.4999994,1.4999994 0 0 0 23,8 1.4999994,1.4999994 0 0 0 24.5,6.5 1.4999994,1.4999994 0 0 0 23,5 Z M 6,9.5 A 1.4999994,1.4999994 0 0 0 4.5,11 1.4999994,1.4999994 0 0 0 6,12.5 1.4999994,1.4999994 0 0 0 7.5,11 1.4999994,1.4999994 0 0 0 6,9.5 Z m 21,0 A 1.4999994,1.4999994 0 0 0 25.5,11 1.4999994,1.4999994 0 0 0 27,12.5 1.4999994,1.4999994 0 0 0 28.5,11 1.4999994,1.4999994 0 0 0 27,9.5 Z m -21.5,6 A 1.4999994,1.4999994 0 0 0 4,17 1.4999994,1.4999994 0 0 0 5.5,18.5 1.4999994,1.4999994 0 0 0 7,17 1.4999994,1.4999994 0 0 0 5.5,15.5 Z m 22,0 A 1.4999994,1.4999994 0 0 0 26,17 1.4999994,1.4999994 0 0 0 27.5,18.5 1.4999994,1.4999994 0 0 0 29,17 1.4999994,1.4999994 0 0 0 27.5,15.5 Z M 8,21 A 1.4999994,1.4999994 0 0 0 6.5,22.5 1.4999994,1.4999994 0 0 0 8,24 1.4999994,1.4999994 0 0 0 9.5,22.5 1.4999994,1.4999994 0 0 0 8,21 Z m 17,0 A 1.4999994,1.4999994 0 0 0 23.5,22.5 1.4999994,1.4999994 0 0 0 25,24 1.4999994,1.4999994 0 0 0 26.5,22.5 1.4999994,1.4999994 0 0 0 25,21 Z"/>
 <path style="opacity:0.1" d="m 10.699219,9.25 3.572265,6.123047 A 2.5,2.5 0 0 0 14,16.5 2.5,2.5 0 0 0 16.5,19 2.5,2.5 0 0 0 19,16.5 2.5,2.5 0 0 0 16.5,14 a 2.5,2.5 0 0 0 -0.470703,0.04687 z"/>
 <path style="fill:#3f3f3f" d="m 10.7,8.25 5.075,8.7 2.175,-2.175 -7.25,-6.525174 z"/>
 <circle style="fill:#3f3f3f" cx="16.5" cy="15.5" r="2.5"/>
 <path style="fill:#ffffff;opacity:0.2" d="M 16.5 1 C 8.467 1 2 7.467 2 15.5 C 2 15.668901 2.0197182 15.832529 2.0253906 16 C 2.2895 8.2024902 8.6359007 2 16.5 2 C 24.364099 2 30.7105 8.2024902 30.974609 16 C 30.980282 15.832529 31 15.668901 31 15.5 C 31 7.467 24.533 1 16.5 1 z"/>
</svg>
