<svg xmlns="http://www.w3.org/2000/svg" width="32" height="32" version="1">
 <path opacity=".2" d="m6 27.699v1c0 0.72 0.5953 1.301 1.334 1.301h17.332c0.739 0 1.334-0.581 1.334-1.301v-1c0 0.72-0.595 1.301-1.334 1.301h-17.332c-0.7387 0-1.334-0.581-1.334-1.301z"/>
 <rect fill="#e4e4e4" width="26" height="20" x="-29" y="-26" rx="1.3" ry="1.333" transform="matrix(0,-1,-1,0,0,0)"/>
 <path style="fill:#3f3f3f" d="m 16,12 c 0,0 -5,2.666667 -5,4.666667 C 11,17.609476 11.714286,19 13.142857,19 c 1.428572,0 2.142857,-1 2.142857,-1 0,1.333333 -1.428571,2 -1.428571,2 h 4.285714 c 0,0 -1.428571,-0.666667 -1.428571,-2 0,0 0.714285,1 2.142857,1 C 20.285714,19 21,17.609476 21,16.666667 21,14.666667 16,12 16,12 Z"/>
 <path style="fill:#3f3f3f" d="m9.9042 8.2713h-1.6129l-0.2545 0.7287h-1.0368l1.4816-4h1.2297l1.4817 4h-1.037l-0.2518-0.7287zm-1.3557-0.74213h1.0958l-0.5465-1.5915-0.5492 1.5914z"/>
 <rect style="opacity:0.2" width="16" height="16" x="15" y="16" rx="4.8" ry="4.8"/>
 <rect style="fill:#578ed6" width="16" height="16" x="15" y="15" rx="4.8" ry="4.8"/>
 <path fill="#fff" opacity=".2" d="m7.334 3c-0.7387 0-1.334 0.5806-1.334 1.3008v1c0-0.7202 0.5953-1.3008 1.334-1.3008h17.332c0.739 0 1.334 0.5806 1.334 1.3008v-1c0-0.7202-0.595-1.3008-1.334-1.3008h-17.332z"/>
 <path style="fill:#ffffff" d="M 19.5 18 A 1.5 1.5 0 0 0 18 19.5 A 1.5 1.5 0 0 0 19.5 21 A 1.5 1.5 0 0 0 21 19.5 A 1.5 1.5 0 0 0 19.5 18 z M 26.5 18 A 1.5 1.5 0 0 0 25 19.5 A 1.5 1.5 0 0 0 26.5 21 A 1.5 1.5 0 0 0 28 19.5 A 1.5 1.5 0 0 0 26.5 18 z M 23 21.5 A 1.5 1.5 0 0 0 21.5 23 A 1.5 1.5 0 0 0 23 24.5 A 1.5 1.5 0 0 0 24.5 23 A 1.5 1.5 0 0 0 23 21.5 z M 19.5 25 A 1.5 1.5 0 0 0 18 26.5 A 1.5 1.5 0 0 0 19.5 28 A 1.5 1.5 0 0 0 21 26.5 A 1.5 1.5 0 0 0 19.5 25 z M 26.5 25 A 1.5 1.5 0 0 0 25 26.5 A 1.5 1.5 0 0 0 26.5 28 A 1.5 1.5 0 0 0 28 26.5 A 1.5 1.5 0 0 0 26.5 25 z"/>
 <path style="fill:#3f3f3f" d="m 9,10 c 0,0 -2,1 -2,1.75 0,0.353553 0.285714,0.875 0.857143,0.875 0.571429,0 0.857143,-0.375 0.857143,-0.375 0,0.5 -0.571429,0.75 -0.571429,0.75 h 1.714286 c 0,0 -0.571429,-0.25 -0.571429,-0.75 0,0 0.285714,0.375 0.857143,0.375 C 10.714286,12.625 11,12.103553 11,11.75 11,11 9,10 9,10 Z"/>
</svg>
