<svg xmlns="http://www.w3.org/2000/svg" width="32" height="32" version="1">
 <style id="style828" type="text/css">
  .st0{fill:#1C2437;}
 </style>
 <rect style="opacity:0.2" width="28" height="28" x="2" y="3" rx="14" ry="14"/>
 <rect style="fill:#334468" width="28" height="28" x="2" y="2" rx="14" ry="14"/>
 <path style="opacity:0.2" d="m 16.341797,6.4733196 c -1.185501,-0.019856 -2.419663,0.1728211 -3.703125,0.578125 -1.711284,0.5584191 -3.1539872,1.5665203 -4.3789064,2.9355469 -0.1441023,0.1801345 -0.25153,0.4146965 -0.1074218,0.6308595 0.144114,0.198148 0.072925,0.269955 -0.035156,0.414062 -0.8646486,1.188892 -1.4607013,2.521811 -1.7128906,3.962891 -0.036027,0.198148 -0.1078451,0.269741 -0.2519531,0.341797 -0.594446,0.288215 -0.9719971,0.810063 -1.0800782,1.476562 -0.072055,0.414311 -0.00108,0.812039 -0.037109,1.154297 0,0.360269 8.718e-4,0.629541 -0.035156,0.845703 0,1.369026 0.883362,2.216591 2.234375,2.144531 0.342257,0 0.5214844,-0.198112 0.5214844,-0.486328 0.036021,-0.882661 0.037109,-1.748197 0.037109,-2.630859 0,-0.918689 -0.037556,-1.891858 0.1425781,-2.810547 C 8.9623173,9.6619334 15.0871,6.7270307 19.806641,9.3209759 c 2.864148,1.5851901 4.30598,4.0707141 4.414062,7.3671871 0.03602,1.224918 0,2.44891 0,3.673828 0,0.30623 0.125848,0.523653 0.414063,0.595703 1.044784,0.234176 2.126505,-0.505126 2.30664,-1.585937 0.10808,-0.738554 0.03516,-1.47629 0.03516,-2.214844 0,-0.846634 -0.378633,-1.477186 -1.117187,-1.855469 C 25.751294,15.22939 25.643442,15.15649 25.607422,15.012382 25.337221,13.535275 24.742036,12.166987 23.859375,10.94207 23.787313,10.870015 23.679893,10.79733 23.751953,10.725273 24.130238,10.238908 23.751107,9.9685679 23.462891,9.6803509 21.320409,7.5874063 18.949899,6.5170034 16.341797,6.4733196 Z M 11.355469,17.004569 c -0.629554,-0.04276 -1.142328,0.379496 -1.275391,1.09961 -0.2129006,1.056166 1.34e-4,2.047594 0.621094,2.927734 0.443543,0.624098 1.06523,0.896929 1.828125,0.960938 0.4258,-0.016 2.145002,0.06394 2.517578,-0.08008 0.479025,-0.160027 0.834956,-0.464859 0.941406,-0.960937 0.106446,-0.496078 -0.513795,-1.184183 -1.347656,-1.904297 -0.869344,-0.752119 -2.005993,-1.551799 -2.626953,-1.839844 -0.226207,-0.124019 -0.448352,-0.188873 -0.658203,-0.203125 z m 9.568359,0.996094 c -0.08752,-3.7e-5 -0.179247,0.01004 -0.273437,0.0293 -0.689389,0.115551 -1.282943,0.480377 -1.908203,0.75 -0.561133,0.269625 -1.058176,0.59779 -1.458985,1.021484 -0.56113,0.635541 -0.256777,1.502677 0.625,1.830078 0.112226,0.05777 0.272863,0.09624 0.449219,0.134766 0.497002,0.07704 0.961982,0.191953 1.458984,0.230469 0.657325,0.03852 1.154696,-0.192357 1.523438,-0.673828 0.464939,-0.597024 0.688314,-1.349061 0.65625,-2.138672 -0.02805,-0.724613 -0.459624,-1.183332 -1.072266,-1.183594 z m 3.515625,4.003906 c -0.0974,-0.01827 -0.213817,0.04801 -0.279297,0.154297 -0.331762,1.062877 -1.867117,4.622134 -7.105468,4.994141 -6.181256,0.442865 3.299377,1.789133 6.005859,-0.248047 0.925443,-0.7263 1.974374,-1.452645 1.939453,-3.542969 0,-0.407436 -0.193277,-1.097972 -0.472656,-1.310547 -0.02619,-0.02657 -0.05542,-0.04078 -0.08789,-0.04687 z"/>
 <path style="fill:#ffffff" class="st0" d="M 5.0360204,16.966308 C 5.0720481,16.62405 4.9999928,16.227753 5.0720481,15.813442 5.1801292,15.146943 5.5584124,14.624551 6.1528583,14.336335 6.2969664,14.26428 6.36902,14.192226 6.4050473,13.994078 6.6572366,12.552998 7.2516818,11.219997 8.1163304,10.031105 8.2244113,9.8869974 8.2964658,9.8149429 8.1523518,9.6167948 8.0082437,9.4006322 8.1163304,9.1664561 8.2604327,8.9863215 9.4853519,7.6172949 10.926432,6.6085382 12.637716,6.0501191 c 4.10708,-1.2969727 7.709782,-0.4143104 10.826119,2.6299726 0.288216,0.288217 0.666501,0.5584188 0.288216,1.0447839 -0.07206,0.072057 0.03602,0.1441081 0.108082,0.2161626 0.882661,1.2249178 1.477108,2.5939458 1.747309,4.0710528 0.03602,0.144108 0.144109,0.216163 0.25219,0.288217 0.738554,0.378283 1.116838,1.008757 1.116838,1.855391 0,0.738554 0.07206,1.477108 -0.03602,2.215662 -0.180135,1.080811 -1.260946,1.819364 -2.30573,1.585188 -0.288215,-0.07205 -0.414311,-0.288215 -0.414311,-0.594445 0,-1.224918 0.03602,-2.449838 0,-3.674756 C 24.112327,12.390875 22.671247,9.905011 19.807099,8.3198211 15.087558,5.7258759 8.9629655,8.6620781 7.9361951,14.030105 c -0.1801345,0.918689 -0.1441073,1.891418 -0.1441073,2.810107 0,0.882662 0,1.747312 -0.036021,2.629973 0,0.288216 -0.1801353,0.486364 -0.5223923,0.486364 -1.351013,0.07206 -2.2336744,-0.774581 -2.2336744,-2.143607 0.036028,-0.216162 0.036028,-0.486365 0.036028,-0.846634"/>
 <path style="fill:#ffffff" class="st0" d="m 15.047797,20.911987 c 0.479025,-0.160027 0.833861,-0.464075 0.940311,-0.960153 0.106446,-0.496078 -0.51451,-1.184187 -1.348371,-1.904301 -0.869344,-0.752119 -2.004813,-1.552246 -2.625773,-1.840291 -0.904828,-0.496077 -1.75643,-0.06401 -1.933847,0.896142 -0.2129007,1.056166 0,2.048323 0.62096,2.928463 0.443543,0.624098 1.064502,0.896143 1.827397,0.960151 0.4258,-0.016 2.146747,0.06401 2.519323,-0.08001"/>
 <path style="fill:#ffffff" class="st0" d="m 18.357654,20.764761 c 0.497002,0.07704 0.961939,0.192589 1.458941,0.231105 0.657325,0.03852 1.154327,-0.192587 1.523069,-0.674058 0.464939,-0.597024 0.68939,-1.348118 0.657326,-2.137729 -0.03206,-0.828129 -0.593196,-1.3096 -1.346715,-1.155528 -0.689389,0.115551 -1.282585,0.481469 -1.907845,0.751092 -0.561132,0.269625 -1.058133,0.597024 -1.458942,1.020718 -0.56113,0.635541 -0.256516,1.502188 0.625261,1.829589 0.112226,0.05777 0.272549,0.09629 0.448905,0.134811"/>
 <path style="fill:#ffffff" class="st0" d="m 24.527698,21.051174 c -0.104767,-0.106285 -0.279378,-0.03543 -0.366685,0.106286 -0.331762,1.062877 -1.868347,4.623513 -7.106698,4.99552 -6.181255,0.442865 3.300162,1.789176 6.006644,-0.248004 0.925443,-0.7263 1.973112,-1.452598 1.938191,-3.542922 0,-0.407436 -0.192073,-1.098307 -0.471452,-1.310882"/>
 <path style="fill:#ffffff;opacity:0.1" d="M 16 2 C 8.244 2 2 8.244 2 16 C 2 16.168842 2.0195214 16.33264 2.0253906 16.5 C 2.2891326 8.9794325 8.4128418 3 16 3 C 23.587158 3 29.710867 8.9794325 29.974609 16.5 C 29.980479 16.33264 30 16.168842 30 16 C 30 8.244 23.756 2 16 2 z"/>
</svg>
