<svg xmlns="http://www.w3.org/2000/svg" width="32" height="32" version="1">
 <path style="opacity:.2" d="m29.975 16.5c0.0059 0.167 0.0254 0.331 0.0254 0.5 0 7.756-6.244 14-14 14s-14-6.244-14-14c0-0.16884 0.01952-0.33264 0.02539-0.5 0.264 7.521 6.388 13.5 13.975 13.5 7.5872 0 13.711-5.979 13.975-13.5z"/>
 <rect style="fill:#3d6080" width="28" height="28" x="-30" y="2" rx="14" ry="14" transform="rotate(-90)"/>
 <path style="opacity:.2" d="m8 8a8 8 0 0 0 -3.28125 0.7148438c-1.6005292 2.1797732-2.5820343 4.8383342-2.6953125 7.7324222 0.193374 6.164177 4.3206908 11.297289 9.9765625 12.970703v-2.404297l2.171875-0.027344c0.945 0 1.824219-0.789469 1.824219-1.730469v-2.25l0.957031-0.013671c0.9019-0.012001 1.299206-0.509547 0.878906-1.310547l-1.826172-2.88086-0.009765-0.554687v-1.492188c0-0.025-0.001953-0.049218-0.001953-0.074218 0.008-0.126001 0.009698-0.252907 0.011718-0.378907 0-0.049-0.009698-0.09553-0.011718-0.144531a8 8 0 0 0 0.005859 -0.15625 8 8 0 0 0 -8 -8z"/>
 <path style="fill:#7a9bbb" d="m8 7a8 8 0 0 0 -3.28125 0.7148438c-1.702438 2.3185642-2.71875 5.1755212-2.71875 8.2851562 0 6.363836 4.2066216 11.70387 10 13.417969v-3.404297l2.171875-0.027344c0.945 0 1.824219-0.789469 1.824219-1.730469v-2.25l0.957031-0.013671c0.9019-0.012001 1.299206-0.509547 0.878906-1.310547l-1.826172-2.88086-0.009765-0.554687v-1.492188c0-0.025-0.001953-0.049218-0.001953-0.074218 0.008-0.126001 0.009718-0.252907 0.011718-0.378907 0-0.049-0.009718-0.095531-0.011718-0.144531a8 8 0 0 0 0.005859 -0.15625 8 8 0 0 0 -8 -8z"/>
 <path style="opacity:.1;fill:#ffffff" d="m16.0004 2c7.756 0 14 6.244 14 14 0 0.169-0.0195 0.333-0.0254 0.5-0.2637-7.5206-6.3874-13.5-13.975-13.5-7.587 0-13.711 5.9794-13.975 13.5-0.005-0.167-0.025-0.331-0.025-0.5 0-7.756 6.244-14 14-14z"/>
 <rect style="fill:#4c4c4c" width="3" height="6" x="5" y="7" rx="1.5" ry="1.5"/>
 <circle style="fill:#4c4c4c" cx="15.5" cy="23.5" r="1.5"/>
 <path style="stroke:#4c4c4c;fill:none" d="m6.5 15.5 9 8"/>
 <path style="opacity:.2" d="m9.9999999 16.500031a3.4999999 3.4999999 0 0 1 -3.5 3.5 3.4999999 3.4999999 0 0 1 -3.4999999 -3.5 3.4999999 3.4999999 0 0 1 3.4999999 -3.5 3.4999999 3.4999999 0 0 1 3.5 3.5z"/>
 <path style="fill:#4cff83" d="m9.9999999 15.5a3.4999999 3.4999999 0 0 1 -3.5 3.5 3.4999999 3.4999999 0 0 1 -3.4999999 -3.5 3.4999999 3.4999999 0 0 1 3.4999999 -3.5 3.4999999 3.4999999 0 0 1 3.5 3.5z"/>
</svg>
