<svg width="32" height="32" version="1.1" xmlns="http://www.w3.org/2000/svg">
 <path d="m10 2.9999999c-0.6295072 3.388e-4 -1.2221258 0.2970099-1.5996094 0.8007812l-6 7.9999999c-0.4097772 0.545916-0.5128649 1.263113-0.2734375 1.902344l6 16c0.2931132 0.780358 1.0394563 1.297117 1.8730469 1.296875h12c0.833591 2.42e-4 1.579934-0.516517 1.873047-1.296875l6-16c0.239427-0.639231 0.136339-1.356428-0.273438-1.902344l-6-7.9999999c-0.377483-0.5037712-0.970102-0.8004423-1.599609-0.8007812l-6 14z" style="opacity:.2"/>
 <path d="m10 2c-0.6295072 3.388e-4 -1.2221258 0.2970099-1.5996094 0.8007812l-6 7.9999998c-0.4097772 0.545916-0.5128649 1.263113-0.2734375 1.902344l6 16c0.2931132 0.780358 1.0394563 1.297117 1.8730469 1.296875h12c0.833591 2.42e-4 1.579934-0.516517 1.873047-1.296875l6-16c0.239427-0.639231 0.136339-1.356428-0.273438-1.902344l-6-7.9999998c-0.377483-0.5037712-0.970102-0.8004423-1.599609-0.8007812l-6 14-6-14z" style="fill:#4f4f4f"/>
 <path d="m10 3.0000002-2 4 2 2-1 1.9999998 7 8 7-8-1-1.9999998 2-2-2-4z" style="opacity:.2"/>
 <path d="m10 2c-0.6295072 3.388e-4 -1.2221258 0.2970099-1.5996094 0.8007812l-6 7.9999998c-0.3672798 0.4893-0.473532 1.11419-0.3222656 1.699219 0.0646562-0.248007 0.1637528-0.488044 0.3222656-0.699219l6-7.9999998c0.3774836-0.5037713 0.9701022-0.8004424 1.5996094-0.8007812l6 14 6-14c0.629507 3.389e-4 1.222126 0.29701 1.599609 0.8007812l6 7.9999998c0.158513 0.211175 0.25761 0.451212 0.322266 0.699219 0.151266-0.585029 0.045014-1.209919-0.322266-1.699219l-6-7.9999998c-0.377483-0.5037712-0.970102-0.8004423-1.599609-0.8007812l-6 14-6-14z" style="fill:#ffffff;opacity:.1"/>
 <path d="m10 2-2 4 2 2-1 2 7 8 7-8-1-2 2-2-2-4z" style="fill:#696969"/>
 <path d="M 10 2 L 8 6 L 8.3339844 6.3339844 L 10 3 L 22 3 L 23.666016 6.3339844 L 24 6 L 22 2 L 10 2 z M 9.6660156 8.6660156 L 9 10 L 9.3183594 10.363281 L 10 9 L 9.6660156 8.6660156 z M 22.333984 8.6660156 L 22 9 L 22.681641 10.363281 L 23 10 L 22.333984 8.6660156 z " style="fill:#ffffff;opacity:.1"/>
 <path d="m10 2h12l-6 16z" style="fill:#e4e4e4"/>
 <path d="m13 6 2 3-1 4v10l2 2 2-2v-10l-1-4 2-3z" style="opacity:.2"/>
 <path d="m13 5 2 3-1 4v10l2 2 2-2v-10l-1-4 2-3z" style="fill:#d32a2c"/>
 <path d="m15 8h2l2-3h-6z" style="opacity:.2"/>
 <path d="m10 2.6445312 1 6 5-3 5 3 1-6z" style="opacity:.2"/>
 <path d="m10 2 1 6 5-3 5 3 1-6z" style="fill:#ffffff"/>
</svg>
