<svg xmlns="http://www.w3.org/2000/svg" width="32" height="32" version="1.1">
 <path style="opacity:0.2" d="M 16 3 A 14 14 0 0 0 6.8515625 6.4257812 L 6 6 L 6 5 L 5 6 C 5 6 4.9230712 6.83993 5.2695312 8.0117188 A 14 14 0 0 0 3.3964844 10.943359 L 3 11 L 3.2714844 11.203125 A 14 14 0 0 0 2.2128906 14.652344 L 1 15 L 2.1054688 15.375 A 14 14 0 0 0 2 17 A 14 14 0 0 0 3.1152344 22.439453 L 2 24 L 3.6582031 23.585938 A 14 14 0 0 0 16 31 A 14 14 0 0 0 28.347656 23.587891 L 30 24 L 28.894531 22.451172 A 14 14 0 0 0 30 17 A 14 14 0 0 0 29.886719 15.371094 L 31 15 L 29.800781 14.658203 A 14 14 0 0 0 28.724609 11.205078 L 29 11 L 28.607422 10.943359 A 14 14 0 0 0 26.726562 8.0234375 C 27.077032 6.8455639 27 6 27 6 L 26 5 L 26 6 L 25.158203 6.421875 A 14 14 0 0 0 16 3 z"/>
 <circle style="fill:#dee6ea" cx="16" cy="16" r="14"/>
 <path style="opacity:0.1" d="M 10 5 L 10 8 L 6.140625 6.0703125 A 14 14 0 0 0 5.0839844 7.2558594 C 5.2127896 7.9893089 5.511783 8.9688466 6.1992188 10 C 6.3080941 10.163313 6.3989022 10.32643 6.5078125 10.498047 L 3 11 L 6.3105469 13.482422 L 2.0664062 14.695312 A 14 14 0 0 0 2.0332031 15.349609 L 6.9003906 17 L 7 16.970703 L 7 17 L 3.390625 22.052734 A 14 14 0 0 0 4.1582031 23.460938 L 10 22 L 8 27 L 13.699219 23.865234 L 14 28 C 14 28 14.600001 29 16 29 C 17.399999 29 18 28 18 28 L 18.300781 23.865234 L 24 27 L 22 22 L 27.830078 23.457031 A 14 14 0 0 0 28.607422 22.048828 L 25 17 L 29.976562 15.341797 A 14 14 0 0 0 29.925781 14.693359 L 25.689453 13.482422 L 29 11 L 25.492188 10.498047 C 25.601098 10.32643 25.691906 10.163313 25.800781 10 C 26.492264 8.9627771 26.792396 7.9769929 26.919922 7.2421875 A 14 14 0 0 0 25.855469 6.0722656 L 22 8 L 22 5 L 19.5 7 L 19.5 6.3007812 L 18.544922 7 L 18.800781 6.3007812 L 16 7 L 13.199219 6.3007812 L 13.455078 7 L 12.5 6.3007812 L 12.5 7 L 10 5 z"/>
 <path style="opacity:0.2;fill:#ffffff" d="M 16,2 A 14,14 0 0 0 2,16 14,14 0 0 0 2.0215,16.586 14,14 0 0 1 16,3 14,14 0 0 1 29.979,16.414 14,14 0 0 0 30,16 14,14 0 0 0 16,2 Z"/>
 <path style="fill:#3d485d" d="m 10,4 v 5 l -7,1 4,3 v 3 L 2,23 10,21 8,26 16,21.599999 24,26 22,21 30,23 25,16 V 13 L 29,10 22,9 V 4 L 19.500002,5.9999997 V 5.3000002 L 18.544335,5.9999997 18.799998,5.3000002 16,5.9999997 13.199999,5.3000002 13.455665,5.9999997 12.500001,5.3000002 v 0.6999995 z"/>
 <path style="opacity:0.2" d="M 10 8 L 10 9 L 5.953125 9.578125 C 6.0340734 9.7184983 6.1040482 9.8572442 6.1992188 10 C 7.0674615 11.302366 8 13 8 13 L 7 13.285156 L 7 16 L 6.40625 16.832031 L 6.9003906 17 L 11.800781 15.599609 C 11.800781 15.599609 13.111888 15.602601 13.199219 17 L 13.628906 22.904297 L 16 21.599609 L 18.371094 22.904297 L 18.800781 17 C 18.902331 15.603686 20.199219 15.599609 20.199219 15.599609 L 25 17 L 25.576172 16.808594 L 25 16 L 25 13.285156 L 24 13 C 24 13 24.932539 11.302366 25.800781 10 C 25.895952 9.8572442 25.965927 9.7184983 26.046875 9.578125 L 22 9 L 22 8 L 20 9 L 16 8 L 12 9 L 10 8 z"/>
 <path style="fill:#6d7687" d="M 6,4 5,5 C 5,5 4.7999999,6.9000002 6.2000001,8.9999999 7.0682428,10.302366 8,12 8,12 L 1,14 6.8999999,16 11.8,14.600001 c 0,0 1.312668,0.0026 1.399999,1.399999 L 14,27 c 0,0 0.600001,1 2,1 1.399999,0 2,-1 2,-1 L 18.799998,16 C 18.901548,14.603686 20.2,14.600001 20.2,14.600001 L 25,16 31,14 24,12 c 0,0 0.931757,-1.697634 1.799999,-3.0000001 C 27.200001,6.9000002 27,5 27,5 L 26,4 V 5 L 20,8 16,7 12,8 6,5 Z"/>
 <path style="opacity:0.1" d="m 11,11 c 0,0 0,3 2,3 2,0 2,-0.599609 2,-0.599609 z m 10,0 -4,2.400391 c 0,0 0,0.599609 2,0.599609 2,0 2,-3 2,-3 z"/>
 <path style="fill:#d82727" d="m 11,10 4,2.399996 C 15,12.399996 15,13 13,13 11,13 11,10 11,10 Z"/>
 <path style="opacity:0.4" d="M 14,17 16,18.1 18,17 17.411984,25 16,25.529226 14.600001,25 Z"/>
 <path style="fill:#ffffff" d="m 14.600001,25.300001 v -1.600002 l 0.699998,1.400002 h 1.400002 l 0.699998,-1.400002 v 1.600002 c 0,0 0,0.699998 -0.699998,0.699998 h -1.400002 c -0.699998,0 -0.699998,-0.699998 -0.699998,-0.699998 z"/>
 <path style="fill:#ffffff" d="m 14,17 v 2.799998 l 0.700001,-1.399999 c 0,0 0.599998,0.600001 1.299999,0.600001 0.700001,0 1.299999,-0.600001 1.299999,-0.600001 L 18,19.799998 V 17 c 0,0 -0.600001,0.5 -2,0.5 -1.399999,0 -2,-0.5 -2,-0.5 z"/>
 <path style="fill:#d82727" d="m 21,10 -4,2.399996 c 0,0 0,0.600004 2,0.600004 2,0 2,-3 2,-3 z"/>
 <path style="fill:#ffffff;opacity:0.2" d="M 6 4 L 5 5 C 5 5 4.9823446 5.3932843 5.0488281 5.9511719 L 6 5 L 6 4 z M 6 5 L 6 6 L 12 9 L 16 8 L 20 9 L 26 6 L 26 5 L 20 8 L 16 7 L 12 8 L 6 5 z M 26 5 L 26.951172 5.9511719 C 27.017655 5.3932843 27 5 27 5 L 26 4 L 26 5 z M 7.5117188 12.138672 L 1 14 L 2.6015625 14.542969 L 8 13 C 8 13 7.7724907 12.592247 7.5117188 12.138672 z M 24.488281 12.138672 C 24.227509 12.592247 24 13 24 13 L 29.384766 14.539062 L 31 14 L 24.488281 12.138672 z"/>
 <path style="fill:#ffffff;opacity:0.1" d="M 11 10 C 11 10 11.0072 10.497322 11.140625 11.083984 L 14.169922 12.902344 C 14.997483 12.732653 15 12.400391 15 12.400391 L 11 10 z M 21 10 L 17 12.400391 C 17 12.400391 17.002517 12.732653 17.830078 12.902344 L 20.859375 11.083984 C 20.9928 10.497322 21 10 21 10 z"/>
</svg>
