<svg xmlns="http://www.w3.org/2000/svg" width="32" height="32" version="1.1">
 <circle style="opacity:0.2" cx="16" cy="17" r="14"/>
 <circle style="fill:#3f3f3f" cx="16" cy="16" r="14"/>
 <path style="opacity:0.2" d="M 17,8 V 15.601562 20.5 C 17,21.880712 15.880712,23 14.5,23 13.119288,23 12,21.880712 12,20.5 12,19.119288 13.119288,18 14.5,18 c 0.167949,8.9e-5 0.335462,0.0171 0.5,0.05078 V 15.027344 C 14.833835,15.010643 14.666995,15.001519 14.5,15 11.462434,15 9,17.462434 9,20.5 9,23.537566 11.462434,26 14.5,26 17.537566,26 20,23.537566 20,20.5 V 14.111328 C 21.18412,14.919478 22.459655,15.5 24,15.5 V 12.966797 12.3125 c -0.806137,4.85e-4 -1.443354,-0.227037 -2.126953,-0.654297 v 0.002 C 20.961882,11.09174 20.287892,10.188463 20,9.1269531 L 19.8,8 Z"/>
 <path style="fill:#ffffff" d="M 17,7 V 14.601562 19.5 C 17,20.880712 15.880712,22 14.5,22 13.119288,22 12,20.880712 12,19.5 12,18.119288 13.119288,17 14.5,17 c 0.167949,8.9e-5 0.335462,0.0171 0.5,0.05078 V 14.027344 C 14.833835,14.010643 14.666995,14.001519 14.5,14 11.462434,14 9,16.462434 9,19.5 9,22.537566 11.462434,25 14.5,25 17.537566,25 20,22.537566 20,19.5 V 13.111328 C 21.18412,13.919478 22.459655,14.5 24,14.5 V 11.966797 11.3125 c -0.806137,4.85e-4 -1.443354,-0.227037 -2.126953,-0.654297 v 0.002 C 20.961882,10.09174 20.287892,9.1884633 20,8.1269531 L 19.8,7 Z"/>
 <path style="fill:#ffffff;opacity:0.1" d="M 16 2 A 14 14 0 0 0 2 16 A 14 14 0 0 0 2.0214844 16.585938 A 14 14 0 0 1 16 3 A 14 14 0 0 1 29.978516 16.414062 A 14 14 0 0 0 30 16 A 14 14 0 0 0 16 2 z"/>
</svg>
