<svg width="32" height="32" version="1.1" xmlns="http://www.w3.org/2000/svg">
 <path d="m19 3c-1.108 0-2 0.892-2 2v9c0 1.108 0.892 2 2 2h9c1.108 0 2-0.892 2-2v-9c0-1.108-0.892-2-2-2zm-6.058594 0.00195c-0.509747 0.014755-0.994611 0.223652-1.355468 0.5839875l-9.0000005 9.0000005c-1.2591116 1.259988-0.3672107 3.413363 1.4140625 3.414062h9c1.104524-1.1e-4 1.99989-0.895476 2-2v-9c-7.33e-4 -1.127046-0.932028-2.0309502-2.058594-1.9980469zm-8.941406 14.99805c-1.108 0-2 0.892-2 2v9c0 1.108 0.892 2 2 2h9c1.108 0 2-0.892 2-2v-9c0-1.108-0.892-2-2-2zm15 0c-1.108 0-2 0.892-2 2v9c0 1.108 0.892 2 2 2h9c1.108 0 2-0.892 2-2v-9c0-1.108-0.892-2-2-2z" style="opacity:.2"/>
 <rect x="17" y="2" width="13" height="13" rx="2" ry="2" style="fill:#3bde3b"/>
 <rect x="17" y="17" width="13" height="13" rx="2" ry="2" style="fill:#ff3376"/>
 <rect x="2" y="17" width="13" height="13" rx="2" ry="2" style="fill:#3679ff"/>
 <path d="m12.941406 2.0019531c-0.509747 0.014752-0.99461 0.2236489-1.355468 0.5839844l-9.0000005 9.0000005c-1.2591116 1.259989-0.3672107 3.413363 1.4140625 3.414062h9c1.104524-1.1e-4 1.99989-0.895476 2-2v-9c-7.33e-4 -1.127046-0.932028-2.0309502-2.058594-1.9980469z" style="fill:#fcff20"/>
 <path d="m21 4c-1.108 0-2 0.892-2 2v5c0 1.108 0.892 2 2 2h5c1.108 0 2-0.892 2-2v-5c0-1.108-0.892-2-2-2h-5zm-10.058594 2.0019531a2.0002 2.0002 0 0 0-1.3554685 0.5839844l-3 3a2.0002 2.0002 0 0 0 1.4140625 3.4140625h3a2.0002 2.0002 0 0 0 2-2v-3a2.0002 2.0002 0 0 0-2.058594-1.9980469zm-4.941406 12.998047c-1.108 0-2 0.892-2 2v5c0 1.108 0.892 2 2 2h5c1.108 0 2-0.892 2-2v-5c0-1.108-0.892-2-2-2h-5zm15 0c-1.108 0-2 0.892-2 2v5c0 1.108 0.892 2 2 2h5c1.108 0 2-0.892 2-2v-5c0-1.108-0.892-2-2-2h-5z" style="fill:#ffffff;opacity:.6"/>
 <path d="m19 2c-1.108 0-2 0.892-2 2v1c0-1.108 0.892-2 2-2h9c1.108 0 2 0.892 2 2v-1c0-1.108-0.892-2-2-2h-9zm-6.058594 0.0019531c-0.509747 0.014752-0.994611 0.2236489-1.355468 0.5839844l-9.0000005 9.0000005c-0.5497401 0.550122-0.6711988 1.265135-0.5058594 1.902343 0.0849655-0.320955 0.2369246-0.633222 0.5058594-0.902343l9.0000005-9.0000005c0.360857-0.3603355 0.845721-0.5692294 1.355468-0.5839844 1.126566-0.0329033 2.057861 0.8710009 2.058594 1.9980469v-1c-7.33e-4 -1.127046-0.932028-2.0309502-2.058594-1.9980469zm-8.941406 14.998047c-1.108 0-2 0.892-2 2v1c0-1.108 0.892-2 2-2h9c1.108 0 2 0.892 2 2v-1c0-1.108-0.892-2-2-2h-9zm15 0c-1.108 0-2 0.892-2 2v1c0-1.108 0.892-2 2-2h9c1.108 0 2 0.892 2 2v-1c0-1.108-0.892-2-2-2h-9z" style="fill:#ffffff;opacity:.2"/>
</svg>
