<svg xmlns="http://www.w3.org/2000/svg" width="32" height="32" version="1">
 <path style="opacity:.2" d="m6 8v1h-1.5v1h1.5v3h-1.5v1h1.5v1h1v-1h2v1h1v-1h1.5v-1h-1.5v-3h1.5v-1h-1.5v-1h-1v1h-2v-1zm1 2h2v3h-2zm6 4v1h6v-1z"/>
 <rect style="fill:#f03939" width="28" height="24" x="2" y="4" rx="1.5" ry="1.5"/>
 <path style="fill:#ffffff" d="m6 7v1h-1.5v1h1.5v3h-1.5v1h1.5v1h1v-1h2v1h1v-1h1.5v-1h-1.5v-3h1.5v-1h-1.5v-1h-1v1h-2v-1zm1 2h2v3h-2zm6 4v1h6v-1z"/>
 <path style="opacity:.1;fill:#ffffff" d="m3.5 4c-0.831 0-1.5 0.669-1.5 1.5v1c0-0.831 0.669-1.5 1.5-1.5h25c0.831 0 1.5 0.669 1.5 1.5v-1c0-0.831-0.669-1.5-1.5-1.5h-25z"/>
 <path style="opacity:.1" d="m2 26.5v1c0 0.831 0.669 1.5 1.5 1.5h25c0.831 0 1.5-0.669 1.5-1.5v-1c0 0.831-0.669 1.5-1.5 1.5h-25c-0.831 0-1.5-0.669-1.5-1.5z"/>
</svg>
