<svg xmlns="http://www.w3.org/2000/svg" width="32" height="32" version="1">
 <path style="fill:#bc3219" d="M 9.4661851,5.1814114 7.141,5.7925824 c 0,0 1.3281891,2.4218895 1.8326399,4.5844826 0.7828247,3.355986 0.7636461,6.097561 0.7636461,6.097561 L 12.200188,15.3 c 0,0 -1.471442,-1.715518 -2.3009325,-5.164369 C 9.4171095,8.1309661 9.4661851,5.1814114 9.4661851,5.1814114 Z"/>
 <path style="fill:#bc3219" d="m 20.624982,11.015947 c 0,0 -0.963112,2.511163 -2.106974,3.561811 -1.114977,1.024116 -3.631725,2.120541 -3.631725,2.120541 L 16.822075,18.483 c 0,0 0.68194,-1.724555 2.081282,-2.902801 1.330458,-1.120245 4.090854,-2.129397 4.090854,-2.129397 z"/>
 <path style="fill:#bc3219" d="m 13.568591,12.341115 c 0,0 0.316167,0.727999 0.06971,1.563994 -0.23016,0.780687 -1.179301,1.814643 -1.179301,1.814643 l 2.013576,0.335109 c 0,0 -0.18965,-1.026423 0.0529,-1.797297 0.266386,-0.846644 1.013359,-1.364623 1.013359,-1.364623 z"/>
 <path style="fill:#bc3219" d="M 13.775887,25.083755 11.307,25.328629 c 0,0 1.138416,0.708975 1.255826,1.406054 0.0924,0.548578 0.144174,1.22924 0.144174,1.22924 l 1.168577,-0.288218 c 0,0 -0.346437,-0.625376 -0.541906,-1.08855 -0.294521,-0.697886 0.442216,-1.5034 0.442216,-1.5034 z"/>
 <path style="opacity:0.2" d="M 8,3 A 2,2 0 0 0 6,5 2,2 0 0 0 8,7 2,2 0 0 0 10,5 2,2 0 0 0 8,3 Z M 23.5,8 A 3.5,3.5 0 0 0 20,11.5 3.5,3.5 0 0 0 23.5,15 3.5,3.5 0 0 0 27,11.5 3.5,3.5 0 0 0 23.5,8 Z M 15,10 a 2,2 0 0 0 -2,2 2,2 0 0 0 2,2 2,2 0 0 0 2,-2 2,2 0 0 0 -2,-2 z m -2.5,6 A 5.5,5.5 0 0 0 7,21.5 5.5,5.5 0 0 0 12.5,27 5.5,5.5 0 0 0 18,21.5 5.5,5.5 0 0 0 12.5,16 Z m 7.5,5 a 1,1 0 0 0 -1,1 1,1 0 0 0 1,1 1,1 0 0 0 1,-1 1,1 0 0 0 -1,-1 z m 1.5,4 A 1.5,1.5 0 0 0 20,26.5 1.5,1.5 0 0 0 21.5,28 1.5,1.5 0 0 0 23,26.5 1.5,1.5 0 0 0 21.5,25 Z m -8,3 A 1.5,1.5 0 0 0 12,29.5 1.5,1.5 0 0 0 13.5,31 1.5,1.5 0 0 0 15,29.5 1.5,1.5 0 0 0 13.5,28 Z"/>
 <circle style="fill:#fa572c" cx="12.5" cy="20.5" r="5.5"/>
 <circle style="fill:#fa572c" cx="23.5" cy="10.5" r="3.5"/>
 <circle style="fill:#fa572c" cx="8" cy="4" r="2"/>
 <circle style="fill:#fa572c" cx="15" cy="11" r="2"/>
 <circle style="fill:#fa572c" cx="13.5" cy="28.5" r="1.5"/>
 <circle style="fill:#fa572c" cx="21.5" cy="25.5" r="1.5"/>
 <circle style="fill:#fa572c" cx="20" cy="21" r="1"/>
 <path style="opacity:0.2;fill:#ffffff" d="M 8 2 A 2 2 0 0 0 6 4 A 2 2 0 0 0 6.0644531 4.4960938 A 2 2 0 0 1 8 3 A 2 2 0 0 1 9.9355469 4.5039062 A 2 2 0 0 0 10 4 A 2 2 0 0 0 8 2 z M 23.5 7 A 3.5 3.5 0 0 0 20 10.5 A 3.5 3.5 0 0 0 20.039062 10.994141 A 3.5 3.5 0 0 1 23.5 8 A 3.5 3.5 0 0 1 26.960938 11.005859 A 3.5 3.5 0 0 0 27 10.5 A 3.5 3.5 0 0 0 23.5 7 z M 15 9 A 2 2 0 0 0 13 11 A 2 2 0 0 0 13.064453 11.496094 A 2 2 0 0 1 15 10 A 2 2 0 0 1 16.935547 11.503906 A 2 2 0 0 0 17 11 A 2 2 0 0 0 15 9 z M 12.5 15 A 5.5 5.5 0 0 0 7 20.5 A 5.5 5.5 0 0 0 7.0253906 21.013672 A 5.5 5.5 0 0 1 12.5 16 A 5.5 5.5 0 0 1 17.974609 20.986328 A 5.5 5.5 0 0 0 18 20.5 A 5.5 5.5 0 0 0 12.5 15 z M 20 20 A 1 1 0 0 0 19 21 A 1 1 0 0 0 19.134766 21.5 A 1 1 0 0 1 20 21 A 1 1 0 0 1 20.865234 21.5 A 1 1 0 0 0 21 21 A 1 1 0 0 0 20 20 z M 21.5 24 A 1.5 1.5 0 0 0 20 25.5 A 1.5 1.5 0 0 0 20.087891 26 A 1.5 1.5 0 0 1 21.5 25 A 1.5 1.5 0 0 1 22.912109 26 A 1.5 1.5 0 0 0 23 25.5 A 1.5 1.5 0 0 0 21.5 24 z M 13.5 27 A 1.5 1.5 0 0 0 12 28.5 A 1.5 1.5 0 0 0 12.087891 29 A 1.5 1.5 0 0 1 13.5 28 A 1.5 1.5 0 0 1 14.912109 29 A 1.5 1.5 0 0 0 15 28.5 A 1.5 1.5 0 0 0 13.5 27 z"/>
</svg>
