<?xml version="1.0" encoding="UTF-8" standalone="no"?>
<svg id="svg2817" xmlns:rdf="http://www.w3.org/1999/02/22-rdf-syntax-ns#" xmlns="http://www.w3.org/2000/svg" height="32" width="32" version="1.0" xmlns:cc="http://creativecommons.org/ns#" xmlns:dc="http://purl.org/dc/elements/1.1/">
 <metadata id="metadata57">
  <rdf:RDF>
   <cc:Work rdf:about="">
    <dc:format>image/svg+xml</dc:format>
    <dc:type rdf:resource="http://purl.org/dc/dcmitype/StillImage"/>
    <dc:title/>
   </cc:Work>
  </rdf:RDF>
 </metadata>
 <defs id="defs2819">
  <radialGradient id="radialGradient4807" gradientUnits="userSpaceOnUse" cy="11.491" cx="15.5" gradientTransform="matrix(1,0,0,1.1525,0,-1.7523)" r="6.5">
   <stop id="stop4797" offset="0"/>
   <stop id="stop4799" stop-opacity="0" offset="1"/>
  </radialGradient>
 </defs>
 <g id="layer4-0" transform="matrix(.90475 0 0 .90475 -716.75 -692.29)">
 </g>
 <g id="layer4-0-7" transform="matrix(.90475 0 0 .90475 -716.75 -685.05)">
 </g>
 <text id="text7276" font-size="12.666px" xml:space="preserve" y="-377.22546" x="435.90427" font-family="&apos;Droid Sans&apos;" fill="#000000"><tspan id="tspan7278" y="-377.22546" x="435.90427"/><tspan id="tspan7280" y="-361.3924" x="435.90427"/></text>
 <g id="layer4-0-1" transform="matrix(.90475 0 0 .90475 -757.45 -676.3)">
 </g>
 <g id="layer4-0-7-9" transform="matrix(.90475 0 0 .90475 -757.45 -669.06)">
 </g>
 <text id="text7276-9" font-size="12.666px" xml:space="preserve" y="-361.23132" x="395.20633" font-family="&apos;Droid Sans&apos;" fill="#000000"><tspan id="tspan7278-5" y="-361.23132" x="395.20633"/><tspan id="tspan7280-3" y="-345.39825" x="395.20633"/></text>
 <path id="rect4777" d="m6 13v1.666c0 4.3356 3.9331 7.8773 9 8.293v4.041h-7v2h16v-2h-7v-4.041c5.0669-0.41566 9-3.9574 9-8.293v-1.666h-2v1.334c0 3.693-3.568 6.666-8 6.666s-8-2.973-8-6.666v-1.334h-2z" fill="#d846d8"/>
 <rect id="rect3282" ry="7" rx="6.6667" transform="matrix(0,-1,-1,0,0,0)" height="14" width="16" y="-23" x="-19" fill="#909090"/>
 <path id="path4585" opacity=".7" d="m13.5 4a0.5 0.5 0 0 0 -0.5 0.5 0.5 0.5 0 0 0 0.5 0.5 0.5 0.5 0 0 0 0.5 -0.5 0.5 0.5 0 0 0 -0.5 -0.5zm2 0a0.5 0.5 0 0 0 -0.5 0.5 0.5 0.5 0 0 0 0.5 0.5 0.5 0.5 0 0 0 0.5 -0.5 0.5 0.5 0 0 0 -0.5 -0.5zm2 0a0.5 0.5 0 0 0 -0.5 0.5 0.5 0.5 0 0 0 0.5 0.5 0.5 0.5 0 0 0 0.5 -0.5 0.5 0.5 0 0 0 -0.5 -0.5zm2 0a0.5 0.5 0 0 0 -0.5 0.5 0.5 0.5 0 0 0 0.5 0.5 0.5 0.5 0 0 0 0.5 -0.5 0.5 0.5 0 0 0 -0.5 -0.5zm-7.57 0.2422c-0.275 0.1872-0.536 0.3928-0.78 0.6152a0.5 0.5 0 0 0 0.35 0.1426 0.5 0.5 0 0 0 0.5 -0.5 0.5 0.5 0 0 0 -0.07 -0.2578zm-0.43 1.7578a0.5 0.5 0 0 0 -0.5 0.5 0.5 0.5 0 0 0 0.5 0.5 0.5 0.5 0 0 0 0.5 -0.5 0.5 0.5 0 0 0 -0.5 -0.5zm2 0a0.5 0.5 0 0 0 -0.5 0.5 0.5 0.5 0 0 0 0.5 0.5 0.5 0.5 0 0 0 0.5 -0.5 0.5 0.5 0 0 0 -0.5 -0.5zm2 0a0.5 0.5 0 0 0 -0.5 0.5 0.5 0.5 0 0 0 0.5 0.5 0.5 0.5 0 0 0 0.5 -0.5 0.5 0.5 0 0 0 -0.5 -0.5zm2 0a0.5 0.5 0 0 0 -0.5 0.5 0.5 0.5 0 0 0 0.5 0.5 0.5 0.5 0 0 0 0.5 -0.5 0.5 0.5 0 0 0 -0.5 -0.5zm2 0a0.5 0.5 0 0 0 -0.5 0.5 0.5 0.5 0 0 0 0.5 0.5 0.5 0.5 0 0 0 0.5 -0.5 0.5 0.5 0 0 0 -0.5 -0.5zm2 0a0.5 0.5 0 0 0 -0.5 0.5 0.5 0.5 0 0 0 0.5 0.5 0.5 0.5 0 0 0 0.5 -0.5 0.5 0.5 0 0 0 -0.5 -0.5zm-11.541 0.3008c-0.1372 0.2234-0.2635 0.4522-0.3731 0.6914a0.5 0.5 0 0 0 0.4141 -0.4922 0.5 0.5 0 0 0 -0.041 -0.1992zm-0.459 1.6992a0.5 0.5 0 0 0 -0.2988 0.0996c-0.0543 0.2157-0.0971 0.4348-0.1289 0.6582a0.5 0.5 0 0 0 0.4277 0.2422 0.5 0.5 0 0 0 0.5 -0.5 0.5 0.5 0 0 0 -0.5 -0.5zm2 0a0.5 0.5 0 0 0 -0.5 0.5 0.5 0.5 0 0 0 0.5 0.5 0.5 0.5 0 0 0 0.5 -0.5 0.5 0.5 0 0 0 -0.5 -0.5zm2 0a0.5 0.5 0 0 0 -0.5 0.5 0.5 0.5 0 0 0 0.5 0.5 0.5 0.5 0 0 0 0.5 -0.5 0.5 0.5 0 0 0 -0.5 -0.5zm2 0a0.5 0.5 0 0 0 -0.5 0.5 0.5 0.5 0 0 0 0.5 0.5 0.5 0.5 0 0 0 0.5 -0.5 0.5 0.5 0 0 0 -0.5 -0.5zm2 0a0.5 0.5 0 0 0 -0.5 0.5 0.5 0.5 0 0 0 0.5 0.5 0.5 0.5 0 0 0 0.5 -0.5 0.5 0.5 0 0 0 -0.5 -0.5zm2 0a0.5 0.5 0 0 0 -0.5 0.5 0.5 0.5 0 0 0 0.5 0.5 0.5 0.5 0 0 0 0.5 -0.5 0.5 0.5 0 0 0 -0.5 -0.5zm2 0a0.5 0.5 0 0 0 -0.5 0.5 0.5 0.5 0 0 0 0.5 0.5 0.5 0.5 0 0 0 0.5 -0.5 0.5 0.5 0 0 0 -0.5 -0.5zm-12 2a0.5 0.5 0 0 0 -0.5 0.5 0.5 0.5 0 0 0 0.5 0.5 0.5 0.5 0 0 0 0.5 -0.5 0.5 0.5 0 0 0 -0.5 -0.5zm2 0a0.5 0.5 0 0 0 -0.5 0.5 0.5 0.5 0 0 0 0.5 0.5 0.5 0.5 0 0 0 0.5 -0.5 0.5 0.5 0 0 0 -0.5 -0.5zm2 0a0.5 0.5 0 0 0 -0.5 0.5 0.5 0.5 0 0 0 0.5 0.5 0.5 0.5 0 0 0 0.5 -0.5 0.5 0.5 0 0 0 -0.5 -0.5zm2 0a0.5 0.5 0 0 0 -0.5 0.5 0.5 0.5 0 0 0 0.5 0.5 0.5 0.5 0 0 0 0.5 -0.5 0.5 0.5 0 0 0 -0.5 -0.5zm2 0a0.5 0.5 0 0 0 -0.5 0.5 0.5 0.5 0 0 0 0.5 0.5 0.5 0.5 0 0 0 0.5 -0.5 0.5 0.5 0 0 0 -0.5 -0.5zm2 0a0.5 0.5 0 0 0 -0.5 0.5 0.5 0.5 0 0 0 0.5 0.5 0.5 0.5 0 0 0 0.5 -0.5 0.5 0.5 0 0 0 -0.5 -0.5zm2 0a0.5 0.5 0 0 0 -0.5 0.5 0.5 0.5 0 0 0 0.5 0.5 0.5 0.5 0 0 0 0.5 -0.5 0.5 0.5 0 0 0 -0.5 -0.5zm-12 2a0.5 0.5 0 0 0 -0.4941 0.436c0.0009 0.062 0.007 0.123 0.0097 0.185a0.5 0.5 0 0 0 0.4844 0.379 0.5 0.5 0 0 0 0.5 -0.5 0.5 0.5 0 0 0 -0.5 -0.5zm2 0a0.5 0.5 0 0 0 -0.5 0.5 0.5 0.5 0 0 0 0.5 0.5 0.5 0.5 0 0 0 0.5 -0.5 0.5 0.5 0 0 0 -0.5 -0.5zm2 0a0.5 0.5 0 0 0 -0.5 0.5 0.5 0.5 0 0 0 0.5 0.5 0.5 0.5 0 0 0 0.5 -0.5 0.5 0.5 0 0 0 -0.5 -0.5zm2 0a0.5 0.5 0 0 0 -0.5 0.5 0.5 0.5 0 0 0 0.5 0.5 0.5 0.5 0 0 0 0.5 -0.5 0.5 0.5 0 0 0 -0.5 -0.5zm2 0a0.5 0.5 0 0 0 -0.5 0.5 0.5 0.5 0 0 0 0.5 0.5 0.5 0.5 0 0 0 0.5 -0.5 0.5 0.5 0 0 0 -0.5 -0.5zm2 0a0.5 0.5 0 0 0 -0.5 0.5 0.5 0.5 0 0 0 0.5 0.5 0.5 0.5 0 0 0 0.5 -0.5 0.5 0.5 0 0 0 -0.5 -0.5zm2 0a0.5 0.5 0 0 0 -0.5 0.5 0.5 0.5 0 0 0 0.5 0.5 0.5 0.5 0 0 0 0.5 -0.5 0.5 0.5 0 0 0 -0.5 -0.5zm-12 2a0.5 0.5 0 0 0 -0.2539 0.068c0.0893 0.318 0.1968 0.629 0.332 0.926a0.5 0.5 0 0 0 0.4219 -0.494 0.5 0.5 0 0 0 -0.5 -0.5zm2 0a0.5 0.5 0 0 0 -0.5 0.5 0.5 0.5 0 0 0 0.5 0.5 0.5 0.5 0 0 0 0.5 -0.5 0.5 0.5 0 0 0 -0.5 -0.5zm2 0a0.5 0.5 0 0 0 -0.5 0.5 0.5 0.5 0 0 0 0.5 0.5 0.5 0.5 0 0 0 0.5 -0.5 0.5 0.5 0 0 0 -0.5 -0.5zm2 0a0.5 0.5 0 0 0 -0.5 0.5 0.5 0.5 0 0 0 0.5 0.5 0.5 0.5 0 0 0 0.5 -0.5 0.5 0.5 0 0 0 -0.5 -0.5zm2 0a0.5 0.5 0 0 0 -0.5 0.5 0.5 0.5 0 0 0 0.5 0.5 0.5 0.5 0 0 0 0.5 -0.5 0.5 0.5 0 0 0 -0.5 -0.5zm2 0a0.5 0.5 0 0 0 -0.5 0.5 0.5 0.5 0 0 0 0.5 0.5 0.5 0.5 0 0 0 0.5 -0.5 0.5 0.5 0 0 0 -0.5 -0.5zm2 0a0.5 0.5 0 0 0 -0.5 0.5 0.5 0.5 0 0 0 0.5 0.5 0.5 0.5 0 0 0 0.5 -0.5 0.5 0.5 0 0 0 -0.5 -0.5zm-10 2a0.5 0.5 0 0 0 -0.5 0.5 0.5 0.5 0 0 0 0.5 0.5 0.5 0.5 0 0 0 0.5 -0.5 0.5 0.5 0 0 0 -0.5 -0.5zm2 0a0.5 0.5 0 0 0 -0.5 0.5 0.5 0.5 0 0 0 0.5 0.5 0.5 0.5 0 0 0 0.5 -0.5 0.5 0.5 0 0 0 -0.5 -0.5zm2 0a0.5 0.5 0 0 0 -0.5 0.5 0.5 0.5 0 0 0 0.5 0.5 0.5 0.5 0 0 0 0.5 -0.5 0.5 0.5 0 0 0 -0.5 -0.5zm2 0a0.5 0.5 0 0 0 -0.5 0.5 0.5 0.5 0 0 0 0.5 0.5 0.5 0.5 0 0 0 0.5 -0.5 0.5 0.5 0 0 0 -0.5 -0.5zm2 0a0.5 0.5 0 0 0 -0.5 0.5 0.5 0.5 0 0 0 0.5 0.5 0.5 0.5 0 0 0 0.5 -0.5 0.5 0.5 0 0 0 -0.5 -0.5zm2 0a0.5 0.5 0 0 0 -0.5 0.5 0.5 0.5 0 0 0 0.145 0.352c0.232-0.24 0.451-0.49 0.644-0.76a0.5 0.5 0 0 0 -0.289 -0.092zm-8 2a0.5 0.5 0 0 0 -0.48 0.363c0.3 0.135 0.61 0.255 0.933 0.348a0.5 0.5 0 0 0 0.047 -0.211 0.5 0.5 0 0 0 -0.5 -0.5zm2 0a0.5 0.5 0 0 0 -0.5 0.5 0.5 0.5 0 0 0 0.318 0.467c0.104 0.009 0.21 0.01 0.315 0.015a0.5 0.5 0 0 0 0.367 -0.482 0.5 0.5 0 0 0 -0.5 -0.5zm2 0a0.5 0.5 0 0 0 -0.5 0.5 0.5 0.5 0 0 0 0.195 0.396c0.253-0.041 0.502-0.094 0.744-0.16a0.5 0.5 0 0 0 0.061 -0.236 0.5 0.5 0 0 0 -0.5 -0.5zm2 0a0.5 0.5 0 0 0 -0.475 0.344c0.214-0.098 0.421-0.206 0.621-0.323a0.5 0.5 0 0 0 -0.146 -0.021z" fill="url(#radialGradient4807)"/>
 <path id="rect4809" opacity=".1" d="m16 3c-3.878 0-7 2.9727-7 6.666v1c0-3.6933 3.122-6.666 7-6.666s7 2.9727 7 6.666v-1c0-3.6933-3.122-6.666-7-6.666zm-10 10v1h2v-1h-2zm18 0v1h2v-1h-2zm-16 1.334v1c0 3.693 3.568 6.666 8 6.666s8-2.973 8-6.666v-1c0 3.693-3.568 6.666-8 6.666s-8-2.973-8-6.666zm0 12.666v1h7v-1h-7zm9 0v1h7v-1h-7z" fill="#fff"/>
 <path id="path4818" opacity=".2" d="m9 12.334v1c0 3.693 3.122 6.666 7 6.666s7-2.973 7-6.666v-1c0 3.693-3.122 6.666-7 6.666s-7-2.973-7-6.666zm-3 2.332v1c0 4.335 3.9331 7.877 9 8.293v-1c-5.0669-0.416-9-3.958-9-8.293zm20 0c0 4.335-3.933 7.877-9 8.293v1c5.067-0.416 9-3.958 9-8.293v-1zm-18 14.334v1h16v-1h-16z"/>
</svg>
