<svg xmlns="http://www.w3.org/2000/svg" width="32" height="32" version="1.1">
 <path style="opacity:0.2" d="m 2,14.08625 c 0,2.5375 1.3755,4.85275 3.50175,6.38925 A 0.63,0.63 0 0 1 5.7835,21.039 c 0,0.063 -0.02975,0.1575 -0.02975,0.2205 -0.1365,0.5705 -0.294,1.134 -0.47075,1.694 -0.02975,0.09275 -0.063,0.154 -0.063,0.25025 a 0.35,0.35 0 0 0 0.34475,0.343 0.427,0.427 0 0 0 0.189,-0.063 l 2.219,-1.2845 a 1.057,1.057 0 0 1 0.53375,-0.1575 c 0.09275,0 0.21875,0 0.3115,0.0315 a 11.4625,11.4625 0 0 0 3.31625,0.47075 c 5.5965,0 10.1325,-3.79225 10.1325,-8.45775 C 22.265,9.419 17.73075,5.625 12.1325,5.625 6.53425,5.625 2,9.41725 2,14.08625 Z"/>
 <path style="fill:#4cdb5d" d="m 2,13.08625 c 0,2.5375 1.3755,4.85275 3.50175,6.38925 A 0.63,0.63 0 0 1 5.7835,20.039 c 0,0.063 -0.02975,0.1575 -0.02975,0.2205 -0.1365,0.5705 -0.294,1.134 -0.47075,1.694 -0.02975,0.09275 -0.063,0.154 -0.063,0.25025 a 0.35,0.35 0 0 0 0.34475,0.343 0.427,0.427 0 0 0 0.189,-0.063 l 2.219,-1.2845 a 1.057,1.057 0 0 1 0.53375,-0.1575 c 0.09275,0 0.21875,0 0.3115,0.0315 a 11.4625,11.4625 0 0 0 3.31625,0.47075 c 5.5965,0 10.1325,-3.79225 10.1325,-8.45775 C 22.265,8.419 17.73075,4.625 12.1325,4.625 6.53425,4.625 2,8.41725 2,13.08625 Z"/>
 <path style="opacity:0.2;fill:#ffffff" d="M 12.132813,4.625 C 6.5345681,4.625 2,8.4169422 2,13.085938 2,13.255831 2.00739,13.424063 2.019531,13.591797 2.326096,9.152356 6.7334972,5.625 12.132813,5.625 c 5.396938,0 9.803626,3.5257048 10.115234,7.960938 0.01157,-0.165372 0.01953,-0.332235 0.01953,-0.5 C 22.265828,8.4186922 17.731057,4.625 12.132813,4.625 Z"/>
 <path fill="#0c7d40" d="m 10.057,10.35275 a 1.295,1.295 0 0 1 -1.302,1.309 1.295,1.295 0 0 1 -1.302,-1.309 1.295,1.295 0 0 1 1.302,-1.309 c 0.72625,0 1.302,0.581 1.302,1.309 z m 6.755,0 a 1.295,1.295 0 0 1 -1.30025,1.309 1.295,1.295 0 0 1 -1.30375,-1.309 1.295,1.295 0 0 1 1.30375,-1.309 c 0.72625,0 1.302,0.581 1.302,1.309 z"/>
 <path style="opacity:0.2" d="m 21.5755,27.52275 c 0.96775,0 1.90225,-0.126 2.74575,-0.378 0.06125,-0.035 0.15575,-0.035 0.25025,-0.035 0.154,0 0.30975,0.06475 0.43575,0.12775 l 1.83925,1.0745 c 0.063,0.03325 0.09625,0.063 0.1575,0.063 0.15575,0 0.28,-0.126 0.28,-0.2835 0,-0.063 -0.02975,-0.126 -0.02975,-0.22225 0,-0.02975 -0.25025,-0.88375 -0.37625,-1.421 -0.0315,-0.063 -0.0315,-0.126 -0.0315,-0.189 0,-0.189 0.09625,-0.3465 0.252,-0.4725 C 28.8765,24.49 30,22.565 30,20.4195 c 0,-3.913 -3.7765,-7.10325 -8.4245,-7.10325 -4.64975,0 -8.42275,3.15875 -8.42275,7.105 0,3.91125 3.77125,7.1015 8.42275,7.1015 z"/>
 <path fill="#f0f0f0" d="m 21.5755,26.52275 c 0.96775,0 1.90225,-0.126 2.74575,-0.378 0.06125,-0.035 0.15575,-0.035 0.25025,-0.035 0.154,0 0.30975,0.06475 0.43575,0.12775 l 1.83925,1.0745 c 0.063,0.03325 0.09625,0.063 0.1575,0.063 0.15575,0 0.28,-0.126 0.28,-0.2835 0,-0.063 -0.02975,-0.126 -0.02975,-0.22225 0,-0.02975 -0.25025,-0.88375 -0.37625,-1.421 -0.0315,-0.063 -0.0315,-0.126 -0.0315,-0.189 0,-0.189 0.09625,-0.3465 0.252,-0.4725 C 28.8765,23.49 30,21.565 30,19.4195 c 0,-3.913 -3.7765,-7.10325 -8.4245,-7.10325 -4.64975,0 -8.42275,3.15875 -8.42275,7.105 0,3.91125 3.77125,7.1015 8.42275,7.1015 z"/>
 <path style="opacity:0.2;fill:#ffffff" d="m 21.576828,12.316 c -4.649745,0 -8.423828,3.159223 -8.423828,7.105469 0,0.16716 0.0099,0.331761 0.02344,0.496094 0.304773,-3.708074 3.950147,-6.601563 8.400391,-6.601563 4.44906,0 8.096051,2.923496 8.40039,6.605469 0.01375,-0.166332 0.02343,-0.332676 0.02343,-0.501953 5e-6,-3.912996 -3.775828,-7.103516 -8.423823,-7.103516 z"/>
 <path fill="#919191" d="m 23.3255,17.2285 a 1.140125,1.140125 0 1 0 2.28025,0 1.14275,1.14275 0 1 0 -2.28025,0 z m -5.6175,0 a 1.140125,1.140125 0 1 0 2.28025,0 1.14275,1.14275 0 1 0 -2.28025,0 z"/>
</svg>
