<?xml version="1.0" encoding="UTF-8" standalone="no"?>
<svg xmlns="http://www.w3.org/2000/svg" height="32" width="32" version="1">
 <path d="m6 3h20v10h-20z" fill="#848484"/>
 <rect rx="1.4" ry="1.417" height="17" width="28" y="12" x="2" fill="#5d5d5d"/>
 <g opacity=".2">
  <rect height="2" width="16" y="16" x="8"/>
  <rect height="2" width="12" y="20" x="10"/>
  <rect height="2" width="8" y="24" x="12"/>
 </g>
 <path opacity=".2" d="m2 27.584v1c0 0.785 0.6248 1.416 1.4004 1.416h25.2c0.775 0 1.4-0.631 1.4-1.416v-1c0 0.785-0.625 1.416-1.4 1.416h-25.2c-0.7752 0-1.4-0.631-1.4-1.416z"/>
 <path opacity=".2" fill="#fff" d="m6 3v1h20v-1h-20z"/>
 <rect opacity=".2" height="3" width="5" y="5" x="8"/>
 <rect opacity=".2" height="3" width="5" y="5" x="19"/>
 <g>
  <circle style="fill:#48aeff" r="8" cx="24" cy="23"/>
  <path d="M 31.979,23.424 A 8,8 0 0 1 24,31 8,8 0 0 1 16.021,23.576 8,8 0 0 0 16,24 a 8,8 0 0 0 8,8 8,8 0 0 0 8,-8 8,8 0 0 0 -0.02148,-0.57617 z" style="opacity:0.2"/>
  <path d="M 20.214381,19.00009 H 22.7858 c 0.1185,0 0.2142,0.09558 0.2142,0.21429 V 21.7858 C 23,21.9043 22.9043,22 22.7858,22 H 20.214291 C 20.09558,22 20,21.9043 20,21.7858 V 19.21429 C 20,19.09558 20.09558,19 20.214291,19 Z" style="fill:#ffffff"/>
  <path d="m 25.214191,19 h 2.571318 C 27.904304,19 28,19.09558 28,19.214297 v 2.571497 C 28,21.904297 27.9043,22 27.785809,22 H 25.214492 C 25.095696,22 25,21.9043 25,21.785794 v -2.571497 c 0,-0.118717 0.09557,-0.214294 0.214279,-0.214294 z" style="fill:#ffffff"/>
  <path d="M 20.214381,24.00009 H 22.7858 c 0.1185,0 0.2142,0.09558 0.2142,0.21429 V 26.7858 C 23,26.9043 22.9043,27 22.7858,27 H 20.214291 C 20.09558,27 20,26.9043 20,26.7858 V 24.21429 C 20,24.09558 20.09558,24 20.214291,24 Z" style="fill:#ffffff"/>
  <path d="m 25.214191,24 h 2.571318 C 27.904304,24 28,24.09558 28,24.214296 v 2.571498 C 28,26.904297 27.9043,27 27.785809,27 H 25.214492 C 25.095696,27 25,26.9043 25,26.785794 v -2.571498 c 0,-0.118716 0.09557,-0.214293 0.214279,-0.214293 z" style="fill:#ffffff"/>
 </g>
</svg>
