<?xml version="1.0" encoding="UTF-8" standalone="no"?>
<svg id="svg2817" xmlns:rdf="http://www.w3.org/1999/02/22-rdf-syntax-ns#" xmlns="http://www.w3.org/2000/svg" height="32" width="32" version="1.0" xmlns:cc="http://creativecommons.org/ns#" xmlns:dc="http://purl.org/dc/elements/1.1/">
    <metadata id="metadata57">
        <rdf:RDF>
            <cc:Work rdf:about="">
                <dc:format>
                    image/svg+xml
                </dc:format>
                <dc:type rdf:resource="http://purl.org/dc/dcmitype/StillImage"/>
                <dc:title/>
            </cc:Work>
        </rdf:RDF>
    </metadata>
    <rect id="rect4363" ry="1.5" rx="1.5" transform="matrix(0,-1,-1,0,0,0)" height="28" width="22" y="-30" x="-27" fill="#4ab3e4"/>
    <path id="rect4523" opacity=".2" d="m2 25.5v1c0 0.831 0.669 1.5 1.5 1.5h25c0.831 0 1.5-0.669 1.5-1.5v-1c0 0.831-0.669 1.5-1.5 1.5h-25c-0.831 0-1.5-0.669-1.5-1.5z"/>
    <path id="rect4373" opacity=".1" fill="#fff" d="m3.5 5c-0.831 0-1.5 0.669-1.5 1.5v1c0-0.831 0.669-1.5 1.5-1.5h25c0.831 0 1.5 0.669 1.5 1.5v-1c0-0.831-0.669-1.5-1.5-1.5h-25z"/>
    <rect id="rect4365" transform="matrix(0,-1,-1,0,0,0)" rx=".5" ry=".5" height="15" width="12" y="-16" x="-28" fill="#ebebeb"/>
    <path id="rect4528" opacity=".1" d="m1 27.5v1c0 0.277 0.223 0.5 0.5 0.5h14c0.277 0 0.5-0.223 0.5-0.5v-1c0 0.277-0.223 0.5-0.5 0.5h-14c-0.277 0-0.5-0.223-0.5-0.5z"/>
</svg>
