<svg xmlns="http://www.w3.org/2000/svg" width="32" height="32" version="1.1" viewBox="0 0 32 32">
 <g style="opacity:0.2" transform="matrix(0.99697425,0,0,0.99743053,0.55867006,-1017.1756)">
  <g transform="translate(-0.01281,0.0213)">
   <path d="m 8.99766,1023.7849 c -2.2939143,-6e-4 -4.3327021,1.5473 -5.0976562,3.4297 -0.7653934,1.8835 -0.3828553,4.4162 1.2636718,6.0157 l 3.0722656,3.0703 -3.0527343,3.0547 c -1.09419,1.0505 -1.7893771,2.7223 -1.7128907,4.2226 0.076487,1.5003 0.7313105,2.7313 1.6328126,3.6328 0.901502,0.9015 2.1325207,1.5564 3.6328124,1.6328 1.5002918,0.077 3.1720808,-0.6187 4.2226568,-1.7128 l 3.054687,-3.0528 3.103516,3.1055 c 1.059504,1.064 2.712148,1.724 4.191406,1.6387 1.479258,-0.085 2.698894,-0.7349 3.59375,-1.6289 0.894856,-0.8941 1.544124,-2.1107 1.630859,-3.5899 0.08663,-1.4774 -0.569993,-3.1308 -1.630859,-4.1914 h -0.0039 l -3.107422,-3.1074 3.068359,-3.0684 c 1.668439,-1.6187 2.036841,-4.1976 1.236328,-6.0898 -0.800513,-1.8923 -2.908879,-3.4256 -5.232422,-3.3555 -1.427904,0.044 -2.786708,0.6425 -3.78125,1.668 l -3.068359,3.0683 -3.070313,-3.0703 c -1.033601,-1.0644 -2.457824,-1.6668 -3.9414058,-1.668 z"/>
  </g>
 </g>
 <g style="fill:none" transform="matrix(0.99697425,0,0,0.99743053,0.55867006,-1018.1756)">
  <g style="fill:none">
   <g style="fill:none" transform="translate(-0.01281,0.0213)">
    <path style="fill:#4f4f4f" d="m 8.99766,1023.7849 c -2.2939143,-6e-4 -4.3327021,1.5473 -5.0976562,3.4297 -0.7653934,1.8835 -0.3828553,4.4162 1.2636718,6.0157 l 3.0722656,3.0703 -3.0527343,3.0547 c -1.09419,1.0505 -1.7893771,2.7223 -1.7128907,4.2226 0.076487,1.5003 0.7313105,2.7313 1.6328126,3.6328 0.901502,0.9015 2.1325207,1.5564 3.6328124,1.6328 1.5002918,0.077 3.1720808,-0.6187 4.2226568,-1.7128 l 3.054687,-3.0528 3.103516,3.1055 c 1.059504,1.064 2.712148,1.724 4.191406,1.6387 1.479258,-0.085 2.698894,-0.7349 3.59375,-1.6289 0.894856,-0.8941 1.544124,-2.1107 1.630859,-3.5899 0.08663,-1.4774 -0.569993,-3.1308 -1.630859,-4.1914 h -0.0039 l -3.107422,-3.1074 3.068359,-3.0684 c 1.668439,-1.6187 2.036841,-4.1976 1.236328,-6.0898 -0.800513,-1.8923 -2.908879,-3.4256 -5.232422,-3.3555 -1.427904,0.044 -2.786708,0.6425 -3.78125,1.668 l -3.068359,3.0683 -3.070313,-3.0703 c -1.033601,-1.0644 -2.457824,-1.6668 -3.9414058,-1.668 z"/>
   </g>
  </g>
 </g>
 <g transform="translate(.51515 -1020.9)">
  <g>
   <path style="fill:#ffffff" d="M 9.5 6.90625 A 1.50015 1.50015 0 0 0 8.453125 9.4824219 L 14.394531 15.421875 L 8.4550781 21.361328 A 1.50015 1.50015 0 1 0 10.576172 23.482422 L 16.515625 17.542969 L 22.453125 23.482422 A 1.5005327 1.5005327 0 1 0 24.576172 21.361328 L 18.636719 15.421875 L 24.576172 9.4824219 A 1.50015 1.50015 0 0 0 23.486328 6.90625 A 1.50015 1.50015 0 0 0 22.455078 7.3613281 L 16.515625 13.300781 L 10.576172 7.3613281 A 1.50015 1.50015 0 0 0 9.5 6.90625 z" transform="translate(-0.50234,1020.8787)"/>
  </g>
 </g>
 <g style="fill:#ffffff;opacity:0.2" transform="matrix(0.99697425,0,0,0.99743053,0.55867006,-1018.1756)">
  <g style="fill:#ffffff">
   <g style="fill:#ffffff" transform="translate(-0.01281,0.0213)">
    <path style="fill:#ffffff" d="M 9.515625 3 C 7.2286515 2.9994015 5.1962333 4.5423586 4.4335938 6.4199219 C 4.1281798 7.1718365 4.015314 8.0285406 4.0839844 8.8867188 C 4.1323353 8.3748288 4.247635 7.8777435 4.4335938 7.4199219 C 5.1962333 5.5423586 7.2286515 3.9994015 9.515625 4 L 9.5195312 4.0039062 C 10.998624 4.0051032 12.418745 4.6063037 13.449219 5.6679688 L 16.509766 8.7304688 L 19.570312 5.6699219 C 20.561845 4.6470569 21.91626 4.0497463 23.339844 4.0058594 C 25.656356 3.9359395 27.75855 5.4660778 28.556641 7.3535156 C 28.755921 7.8247769 28.881667 8.3380436 28.933594 8.8691406 C 29.000633 7.9905664 28.879369 7.1167079 28.556641 6.3535156 C 27.75855 4.4660778 25.656356 2.9359395 23.339844 3.0058594 C 21.91626 3.0497463 20.561845 3.6470569 19.570312 4.6699219 L 16.509766 7.7304688 L 13.449219 4.6679688 C 12.418745 3.6063037 10.998624 3.0051032 9.5195312 3.0039062 L 9.515625 3 z M 8.2578125 15.984375 L 5.7128906 18.53125 C 4.6220114 19.579051 3.9296044 21.245742 4.0058594 22.742188 C 4.010575 22.834727 4.0241559 22.923201 4.0332031 23.013672 C 4.167824 21.727494 4.796411 20.411538 5.7128906 19.53125 L 8.7578125 16.484375 L 8.2578125 15.984375 z M 24.763672 15.988281 L 24.263672 16.488281 L 27.363281 19.585938 L 27.367188 19.585938 C 28.245395 20.464327 28.837805 21.751143 28.966797 23.005859 C 28.974902 22.926245 28.987428 22.84879 28.992188 22.767578 C 29.078555 21.293974 28.424844 19.643812 27.367188 18.585938 L 27.363281 18.585938 L 24.763672 15.988281 z" transform="matrix(1.0030349,0,0,1.0025761,-0.54755559,1020.7772)"/>
   </g>
  </g>
 </g>
</svg>
