<svg width="32" height="32" version="1.1" viewBox="0 0 32 32" xmlns="http://www.w3.org/2000/svg">
 <g transform="matrix(.18181818 0 0 .18181818 10.258423 9.2401915)">
  <circle cx="881.72729" cy="-1251.2444" r="0" style="fill:#ffffff;opacity:.3"/>
 </g>
 <g>
  <rect x="2" y="2" width="28" height="28" rx="2.0999999" ry="2.0999999" style="fill:#70c74d"/>
  <path d="m2.0004 27.4004v1c0 1.1634 0.93619 2.0996 2.099555 2.0996h23.80049c1.163375 0 2.099555-0.9362 2.099555-2.0996v-1c0 1.1634-0.93619 2.0996-2.099555 2.0996h-23.80049c-1.163775 0-2.099955-1-2.099955-2.1z" style="opacity:.2"/>
  <path d="m4.1001077 2.002c-1.1633746 0-2.0996077 0.9360148-2.0996077 2.0991173v0.4998827c0-1.1631023 0.9362331-2.0991173 2.0996077-2.0991173h23.799784c1.163979 0 2.099608 0.936015 2.099608 2.0991173v-0.4998827c0-1.1631025-0.935629-2.0991173-2.099608-2.0991173z" style="fill:#ffffff;opacity:.2"/>
 </g>
 <g>
  <path d="m14.727274 6.125a8.7272732 8.7272725 0 0 0-8.727274 8.727273 8.7272732 8.7272725 0 0 0 3.272727 6.802556v3.015625c0 0.805819 0.648728 1.454546 1.454546 1.454546h13.818182c0.80582 0 1.454545-0.648727 1.454545-1.454546v-13.818182c0-0.805818-0.648725-1.454545-1.454545-1.454545h-3.00799a8.7272732 8.7272725 0 0 0-6.810191-3.272727zm0 1.090909a7.6363641 7.6363635 0 0 1 7.636364 7.636364 7.6363641 7.6363635 0 0 1-7.636364 7.636363 7.6363641 7.6363635 0 0 1-7.636365-7.636363 7.6363641 7.6363635 0 0 1 7.636365-7.636364zm0 0.954545a6.6817445 6.681795 0 0 0-5.260301 2.574397c0.814991 0.217739 1.392054 0.404848 1.564809 0.46289 0.0027-0.105996 0.02024-1.053977 0.02024-1.053977s0.0023-0.02171 0.01384-0.03302c0.01492-0.01457 0.0364-0.01012 0.0364-0.01012 0.214354 0.03105 4.789683 0.70927 6.718219 1.833096 0.238163 0.139332 0.355773 0.287495 0.502663 0.437678 0.5331 0.551361 1.237374 2.843816 1.313028 3.316583 3e-3 0.01857-0.01985 0.0387-0.02965 0.04634-0.05477 0.04274-0.114627 0.08724-0.174363 0.126953-0.456337 0.306165-1.507574 1.042203-2.856355 0.922053-1.211546-0.10718-2.794392-0.802179-4.702592-2.059481 0.187618 0.439277 0.372573 0.879919 0.557527 1.320311 0.276337 0.143531 2.943537 1.502581 4.259946 1.47603 1.060282-0.02209 2.194246-0.539271 2.647901-0.812322 0 0 0.09973-0.05998 0.143109-0.02645 0.04746 0.03666 0.03432 0.09284 0.02308 0.150213-0.02791 0.130227-0.09137 0.367865-0.134581 0.480646l-0.03658 0.0918c-0.05193 0.139133-0.101855 0.268546-0.197974 0.348189-0.267245 0.243008-0.693672 0.436254-1.362036 0.72674-1.033109 0.451917-2.709273 0.739292-4.265455 0.729403-0.557363-0.01241-1.095873-0.0742-1.568709-0.129438-0.970373-0.109554-1.759864-0.198351-2.2413 0.149857a6.6817445 6.681795 0 0 0 5.029301 2.295274 6.6817445 6.681795 0 0 0 6.681818-6.681818 6.6817445 6.681795 0 0 0-6.681818-6.681819zm1.392754 3.876243c-0.487118 0.0078-0.948018 0.190919-1.306463 0.525568-0.382164 0.355778-0.600837 0.840804-0.62021 1.363459-0.03613 1.078204 0.810346 1.986733 1.88761 2.026456 0.525372 0.01763 1.023027-0.167008 1.405363-0.5261 0.381191-0.354673 0.600046-0.839739 0.620382-1.362395 0.03702-1.077242-0.8106-1.987715-1.889027-2.026278-0.03268-0.0011-0.06518-0.0012-0.09765-7e-4zm0.01278 0.576527c0.02271-2.54e-4 0.04567 7e-5 0.06854 9e-4 0.753673 0.02674 1.343564 0.659899 1.318182 1.413352-0.01162 0.363357-0.164836 0.700137-0.4311 0.949929-0.266654 0.248632-0.615154 0.377881-0.980827 0.366832-0.751927-0.02773-1.341964-0.661653-1.316582-1.415305 0.01104-0.364716 0.167246-0.701474 0.432346-0.950106 0.248527-0.233093 0.5689-0.361167 0.909445-0.365412zm0.291909 0.68608c-0.334873 0-0.605473 0.18026-0.605473 0.404474 0 0.222091 0.2706 0.403232 0.605473 0.403232 0.334664 0 0.606-0.181152 0.606-0.403232 0-0.224213-0.271145-0.404474-0.606-0.404474zm6.432701 9.779652h1.328127c0.106635 0 0.18431 0.07434 0.18431 0.176314v0.04616c0 0.102439-0.07768 0.175959-0.18431 0.175959h-1.080435v0.457386h0.833991c0.106789 0 0.184299 0.07398 0.184299 0.175958v0.04599c0 0.101508-0.07751 0.176492-0.184299 0.176492h-0.833991v0.44407h1.13832c0.107025 0 0.18431 0.07442 0.18431 0.176314v0.04617c0 0.101503-0.07728 0.175426-0.18431 0.175426h-1.38991c-0.10011 0-0.175782-0.07532-0.175782-0.175426v-1.74414c0-0.100574 0.07733-0.176492 0.179682-0.176492zm-6.193355 1.82e-4h0.9272c0.107718 0 0.18839 0.07592 0.18839 0.176492v0.04598c0 0.100183-0.07937 0.175959-0.184836 0.175959h-0.860091c-0.113473 0-0.178445 0.05633-0.178445 0.153409v0.154119c0 0.06202 0.05314 0.149858 0.1701 0.149858h0.776991c0.214272 0 0.430045 0.134265 0.430045 0.434659v0.279298c0 0.31991-0.191464 0.526455-0.488282 0.526455h-1.135654c-0.107028 0-0.184309-0.0741-0.184309-0.175604v-0.04617c0-0.101893 0.07728-0.176313 0.184309-0.176313h1.077054c0.116728 0 0.120209-0.160369 0.120209-0.17809v-0.167081c0-0.05495-0.02072-0.120028-0.120209-0.120028h-0.789591c-0.224954 0-0.467681-0.183926-0.467681-0.480824v-0.258878c-1e-5 -0.201612 0.189863-0.493253 0.5348-0.493253zm1.8196 0h0.05806c0.101891 0 0.184655 0.08286 0.184655 0.184836v1.322266c0 0.105935 0.08605 0.191052 0.191054 0.191052h0.600146c0.104609 0 0.191046-0.08512 0.191046-0.191052v-1.322266c0-0.101973 0.08215-0.184836 0.184127-0.184836h0.05859c0.1033 0 0.184309 0.08162 0.184309 0.184836v1.372338c0 0.319591-0.251255 0.551313-0.597127 0.551313h-0.641864c-0.346337 0-0.597837-0.231798-0.597837-0.551313v-1.372338c0-0.103214 0.08139-0.184836 0.184837-0.184836zm2.558236 0h0.926846c0.108191 0 0.188745 0.07592 0.188745 0.176492v0.04598c0 0.100183-0.07906 0.175959-0.1843 0.175959h-0.860445c-0.113473 0-0.178446 0.05633-0.178446 0.153409v0.154119c0 0.06202 0.05282 0.149858 0.1701 0.149858h0.776991c0.214282 0 0.430755 0.134265 0.430755 0.434659v0.279298c0 0.31991-0.192446 0.526455-0.489346 0.526455h-1.135836c-0.106555 0-0.1843-0.0741-0.1843-0.175604v-0.04617c0-0.101893 0.07775-0.176313 0.1843-0.176313h1.077418c0.116964 0 0.120564-0.160369 0.120564-0.17809v-0.167081c0-0.05495-0.02092-0.120028-0.120564-0.120028h-0.789418c-0.225109 0-0.468036-0.183926-0.468036-0.480824v-0.258878c0-0.201612 0.1902-0.493253 0.534972-0.493253zm-8.315164 0.822443v1.82e-4h0.03924c0.214282 0 0.352273 0.126643 0.352273 0.322975v0.636719c0 0.199363-0.13511 0.323508-0.352273 0.323508h-0.03924c-0.122646 0-0.215192-0.04205-0.289419-0.07617-0.04522-0.02076-0.08431-0.03853-0.1147-0.03853-0.0108 0-0.02148 0.01769-0.02148 0.03409v0.553445c0 0.05184-0.04208 0.09357-0.09393 0.09357h-0.0364c-0.05223 0-0.09357-0.04126-0.09357-0.09357v-1.66797c0-0.0443 0.03238-0.08061 0.0728-0.08061h0.04208c0.03505 0 0.06342 0.02786 0.07049 0.04208l0.02823 0.05415c0.0062 0.01018 0.01802 0.01633 0.03178 0.01633 0.03039 0 0.06947-0.01879 0.1147-0.04048 0.07423-0.03591 0.166773-0.07972 0.289419-0.07972zm2.649682 0h0.03889c0.214436 0 0.352627 0.126822 0.352627 0.323153v0.859198c0 0.05138-0.04227 0.09357-0.09411 0.09357h-0.0364c-0.05231 0-0.09357-0.04173-0.09357-0.09357v-0.82777c0-0.07757-0.06335-0.141335-0.141155-0.141335h-0.3109c-0.07757 0-0.140809 0.06377-0.140809 0.141335v0.82777c0 0.05138-0.04227 0.09357-0.0941 0.09357h-0.03622c-0.05277 0-0.09375-0.04173-0.09375-0.09357v-1.094105c0-0.04656 0.03195-0.08061 0.07564-0.08061h0.03604c0.03389 0 0.0591 0.01506 0.07386 0.04475l0.02575 0.04687c0.01103 0.01912 0.01667 0.02095 0.0309 0.02095 0.03233 0 0.07193-0.01908 0.118245-0.04084 0.07446-0.03552 0.1668-0.07937 0.289064-0.07937zm-1.629082 0.0076h0.4098c0.173482 0 0.314991 0.135704 0.314991 0.302734v0.253018c0 0.108115-0.06175 0.171875-0.166372 0.171875h-0.650574v0.191052c0 0.09443 0.05344 0.143998 0.154473 0.143998h0.360448c0.05426 0 0.09357 0.03687 0.09357 0.08825v0.02876c0 0.05107-0.03932 0.08878-0.09357 0.08878h-0.438919c-0.162136 0-0.299545-0.143571-0.299545-0.312855v-0.652876c0-0.167108 0.141518-0.302558 0.3157-0.302558zm-2.704191 1.81e-4h0.4043c0.174099 0 0.316045 0.135528 0.316045 0.302558v0.65767c0 0.16975-0.1372 0.308061-0.305391 0.308061h-0.425427c-0.1682 0-0.3054-0.138311-0.3054-0.308061v-0.65767c0-0.167108 0.141691-0.302558 0.315873-0.302558zm1.399327 0.205434c-0.07928 0-0.141337 0.06198-0.141337 0.141335v0.574396c0 0.07796 0.06354 0.141335 0.141337 0.141335h0.31073c0.07772 0 0.141327-0.06338 0.141327-0.141335v-0.574396c0-0.07928-0.06197-0.141335-0.141327-0.141335zm-1.362746 1.82e-4c-0.07074 0-0.128554 0.0576-0.128554 0.128018v0.600497c0 0.07213 0.05518 0.128551 0.126063 0.128551h0.333982c0.07074 0 0.128018-0.05767 0.128018-0.128551v-0.600497c0-0.0691-0.05884-0.128018-0.128018-0.128018zm2.701519 0c-0.07057 0-0.125882 0.05539-0.125882 0.125888v0.203835h0.593219v-0.203835c0-0.07049-0.05494-0.125888-0.125355-0.125888zm10.957036 0.638494h1e-3c0.09466 0 0.1701 0.077 0.1701 0.173296 0 0.0977-0.07544 0.173828-0.170805 0.173828-0.09468 0-0.1717-0.07613-0.1717-0.173828 0-0.09622 0.07702-0.173296 0.1717-0.173296zm0 0.02681c-0.07617 0-0.13849 0.06547-0.13849 0.146307 0 0.08239 0.06226 0.147017 0.1392 0.147017 0.07694 8e-4 0.13849-0.0647 0.13849-0.146306 0-0.08161-0.06154-0.147018-0.13849-0.147018zm-0.0085 0.04936c0.0293 0 0.0485 0.0061 0.06001 0.01456 0.0116 0.0084 0.01775 0.02155 0.01775 0.04013 0 0.02534-0.0169 0.04066-0.03765 0.04687v0.0016c0.01695 0.0031 0.0284 0.01853 0.0323 0.04706 0.0045 0.03008 0.0091 0.04144 0.01225 0.04759h-0.0323c-0.0045-0.0061-0.0094-0.02377-0.01315-0.04919-0.0045-0.02456-0.0169-0.03392-0.04155-0.03392h-0.0215v0.0831h-0.0309v-0.193142c0.0162-0.0023 0.0316-0.0046 0.05469-0.0046zm-0.0015 0.0238c-0.01 0-0.01685 8e-4 -0.0222 0.0016v0.06534h0.0222c0.0254 0 0.04705-0.0091 0.04705-0.03302 0-0.01694-0.0124-0.03391-0.04705-0.03391z" style="fill:#5a9f3e"/>
 </g>
 <g>
  <path d="m14.727273 6a8.7272725 8.7272725 0 0 0-8.727273 8.727273 8.7272725 8.7272725 0 0 0 3.272727 6.802556v3.015625c0 0.805819 0.648727 1.454546 1.454545 1.454546h13.818182c0.805819 0 1.454546-0.648727 1.454546-1.454546v-13.818182c0-0.805818-0.648727-1.454545-1.454546-1.454545h-3.00799a8.7272725 8.7272725 0 0 0-6.810191-3.272727zm0 1.090909a7.6363635 7.6363635 0 0 1 7.636363 7.636364 7.6363635 7.6363635 0 0 1-7.636363 7.636363 7.6363635 7.6363635 0 0 1-7.636364-7.636363 7.6363635 7.6363635 0 0 1 7.636364-7.636364zm0 0.954545a6.681744 6.681795 0 0 0-5.260301 2.574397c0.814991 0.217739 1.392055 0.404848 1.564809 0.46289 0.0028-0.105996 0.02025-1.053977 0.02025-1.053977s0.0023-0.02171 0.01384-0.03302c0.01492-0.01457 0.0364-0.01012 0.0364-0.01012 0.214355 0.03105 4.789683 0.70927 6.718219 1.833096 0.238163 0.139332 0.355773 0.287495 0.502663 0.437678 0.5331 0.551361 1.237373 2.843816 1.313028 3.316583 3e-3 0.01857-0.01985 0.0387-0.02965 0.04634-0.05477 0.04274-0.114627 0.08724-0.174364 0.126953-0.456336 0.306165-1.507573 1.042203-2.856354 0.922053-1.211546-0.10718-2.794392-0.802179-4.702592-2.059481 0.187618 0.439277 0.372573 0.879919 0.557528 1.320311 0.276336 0.143531 2.943536 1.502581 4.259945 1.47603 1.060282-0.02209 2.194246-0.539271 2.6479-0.812322 0 0 0.09973-0.05998 0.14311-0.02645 0.04747 0.03666 0.03432 0.09284 0.02308 0.150213-0.02791 0.130227-0.09137 0.367865-0.134582 0.480646l-0.03658 0.0918c-0.05193 0.139133-0.101854 0.268546-0.197973 0.348189-0.267245 0.243008-0.693672 0.436254-1.362036 0.72674-1.033109 0.451917-2.709273 0.739292-4.265455 0.729403-0.557363-0.01241-1.095873-0.0742-1.568709-0.129438-0.970373-0.109554-1.759864-0.198351-2.2413 0.149857a6.681744 6.681795 0 0 0 5.029301 2.295274 6.681744 6.681795 0 0 0 6.681818-6.681818 6.681744 6.681795 0 0 0-6.681818-6.681819zm1.392754 3.876243c-0.487118 0.0078-0.948018 0.190919-1.306463 0.525568-0.382164 0.355778-0.600837 0.840804-0.62021 1.363459-0.03612 1.078204 0.810346 1.986733 1.88761 2.026456 0.525372 0.01763 1.023027-0.167008 1.405363-0.5261 0.381191-0.354673 0.600046-0.839739 0.620382-1.362395 0.03702-1.077242-0.8106-1.987715-1.889027-2.026278-0.03268-0.0011-0.06518-0.0012-0.09765-7e-4zm0.01278 0.576527c0.02271-2.54e-4 0.04567 7e-5 0.06854 9e-4 0.753673 0.02674 1.343564 0.659899 1.318182 1.413352-0.01163 0.363357-0.164836 0.700137-0.4311 0.949929-0.266654 0.248632-0.615154 0.377881-0.980827 0.366832-0.751927-0.02773-1.341964-0.661653-1.316582-1.415305 0.01104-0.364716 0.167246-0.701474 0.432346-0.950106 0.248527-0.233093 0.5689-0.361167 0.909445-0.365412zm0.291909 0.68608c-0.334873 0-0.605473 0.18026-0.605473 0.404474 0 0.222091 0.2706 0.403232 0.605473 0.403232 0.334664 0 0.606-0.181152 0.606-0.403232 0-0.224213-0.271145-0.404474-0.606-0.404474zm6.4327 9.779652h1.328127c0.106637 0 0.184309 0.07434 0.184309 0.176314v0.04616c0 0.102439-0.07767 0.175959-0.184309 0.175959h-1.080434v0.457391h0.833991c0.106791 0 0.1843 0.07398 0.1843 0.175958v0.04599c0 0.101508-0.07751 0.176492-0.1843 0.176492h-0.833991v0.44407h1.138318c0.107027 0 0.184309 0.07442 0.184309 0.176314v0.04617c0 0.101503-0.07728 0.175426-0.184309 0.175426h-1.389909c-0.100109 0-0.175782-0.07532-0.175782-0.175426v-1.74414c0-0.100574 0.07733-0.176492 0.179682-0.176492zm-6.193354 1.82e-4h0.9272c0.107718 0 0.18839 0.07592 0.18839 0.176492v0.04598c0 0.100183-0.07937 0.175959-0.184836 0.175959h-0.860091c-0.113473 0-0.178445 0.05633-0.178445 0.153409v0.154119c0 0.06202 0.05314 0.149858 0.1701 0.149858h0.776991c0.214272 0 0.430045 0.134265 0.430045 0.434659v0.279298c0 0.31991-0.191464 0.526455-0.488282 0.526455h-1.135654c-0.107028 0-0.184309-0.0741-0.184309-0.175604v-0.04617c0-0.101893 0.07728-0.176313 0.184309-0.176313h1.077054c0.116728 0 0.120209-0.160369 0.120209-0.17809v-0.167081c0-0.05495-0.02072-0.120028-0.120209-0.120028h-0.789591c-0.224954 0-0.467681-0.183926-0.467681-0.480824v-0.258878c-1e-5 -0.201612 0.189863-0.493253 0.5348-0.493253zm1.8196 0h0.05806c0.101891 0 0.184655 0.08286 0.184655 0.184836v1.322266c0 0.105935 0.08605 0.191052 0.191054 0.191052h0.600146c0.104609 0 0.191045-0.08512 0.191045-0.191052v-1.322266c0-0.101973 0.08216-0.184836 0.184127-0.184836h0.05859c0.1033 0 0.184309 0.08162 0.184309 0.184836v1.372338c0 0.319591-0.251254 0.551313-0.597127 0.551313h-0.641863c-0.346337 0-0.597837-0.231798-0.597837-0.551313v-1.372338c0-0.103214 0.08139-0.184836 0.184837-0.184836zm2.558236 0h0.926845c0.108191 0 0.188746 0.07592 0.188746 0.176492v0.04598c0 0.100183-0.07906 0.175959-0.1843 0.175959h-0.860446c-0.113472 0-0.178445 0.05633-0.178445 0.153409v0.154119c0 0.06202 0.05282 0.149858 0.1701 0.149858h0.776991c0.214282 0 0.430754 0.134265 0.430754 0.434659v0.279298c0 0.31991-0.192445 0.526455-0.489345 0.526455h-1.135836c-0.106555 0-0.1843-0.0741-0.1843-0.175604v-0.04617c0-0.101893 0.07775-0.176313 0.1843-0.176313h1.077418c0.116963 0 0.120563-0.160369 0.120563-0.17809v-0.167081c0-0.05495-0.02092-0.120028-0.120563-0.120028h-0.789418c-0.22511 0-0.468037-0.183926-0.468037-0.480824v-0.258878c0-0.201612 0.1902-0.493253 0.534973-0.493253zm-8.315164 0.822443v1.82e-4h0.03925c0.214282 0 0.352273 0.126643 0.352273 0.322975v0.636719c0 0.199363-0.13511 0.323508-0.352273 0.323508h-0.03925c-0.122646 0-0.215191-0.04205-0.289418-0.07617-0.04522-0.02076-0.08431-0.03853-0.1147-0.03853-0.0108 0-0.02148 0.01769-0.02148 0.03409v0.553445c0 0.05184-0.04208 0.09357-0.09393 0.09357h-0.0364c-0.05223 0-0.09357-0.04126-0.09357-0.09357v-1.66797c0-0.0443 0.03238-0.08061 0.0728-0.08061h0.04208c0.03505 0 0.06342 0.02786 0.07049 0.04208l0.02823 0.05415c0.0062 0.01018 0.01802 0.01633 0.03178 0.01633 0.03039 0 0.06947-0.01879 0.1147-0.04048 0.07423-0.03591 0.166772-0.07972 0.289418-0.07972zm2.649682 0h0.03889c0.214436 0 0.352627 0.126822 0.352627 0.323153v0.859198c0 0.05138-0.04227 0.09357-0.09411 0.09357h-0.0364c-0.05231 0-0.09357-0.04173-0.09357-0.09357v-0.82777c0-0.07757-0.06336-0.141335-0.141155-0.141335h-0.3109c-0.07757 0-0.140809 0.06377-0.140809 0.141335v0.82777c0 0.05138-0.04227 0.09357-0.0941 0.09357h-0.03623c-0.05277 0-0.09375-0.04173-0.09375-0.09357v-1.094105c0-0.04656 0.03195-0.08061 0.07564-0.08061h0.03604c0.03389 0 0.0591 0.01506 0.07386 0.04475l0.02575 0.04687c0.01103 0.01912 0.01667 0.02095 0.0309 0.02095 0.03233 0 0.07193-0.01908 0.118245-0.04084 0.07446-0.03552 0.1668-0.07937 0.289064-0.07937zm-1.629082 0.0076h0.4098c0.173482 0 0.314991 0.135704 0.314991 0.302734v0.253018c0 0.108115-0.06175 0.171875-0.166372 0.171875h-0.650574v0.191052c0 0.09443 0.05344 0.143998 0.154473 0.143998h0.360448c0.05425 0 0.09357 0.03687 0.09357 0.08825v0.02876c0 0.05107-0.03932 0.08878-0.09357 0.08878h-0.438919c-0.162136 0-0.299545-0.143571-0.299545-0.312855v-0.652876c0-0.167108 0.141518-0.302558 0.3157-0.302558zm-2.704191 1.81e-4h0.4043c0.1741 0 0.316045 0.135528 0.316045 0.302558v0.65767c0 0.16975-0.1372 0.308061-0.30539 0.308061h-0.425428c-0.1682 0-0.3054-0.138311-0.3054-0.308061v-0.65767c0-0.167108 0.141691-0.302558 0.315873-0.302558zm1.399327 0.205434c-0.07928 0-0.141336 0.06198-0.141336 0.141335v0.574396c0 0.07796 0.06354 0.141335 0.141336 0.141335h0.31073c0.07772 0 0.141327-0.06338 0.141327-0.141335v-0.574396c0-0.07928-0.06197-0.141335-0.141327-0.141335zm-1.362745 1.82e-4c-0.07074 0-0.128555 0.0576-0.128555 0.128018v0.600497c0 0.07213 0.05518 0.128551 0.126064 0.128551h0.333982c0.07074 0 0.128018-0.05767 0.128018-0.128551v-0.600497c0-0.0691-0.05884-0.128018-0.128018-0.128018zm2.701518 0c-0.07057 0-0.125882 0.05539-0.125882 0.125888v0.203835h0.593219v-0.203835c0-0.07049-0.05494-0.125888-0.125355-0.125888zm10.957037 0.638494h9e-4c0.09466 0 0.1701 0.077 0.1701 0.173296 0 0.0977-0.07545 0.173828-0.170809 0.173828-0.09467 0-0.1717-0.07613-0.1717-0.173828 0-0.09622 0.07703-0.173296 0.1717-0.173296zm0 0.02681c-0.07617 0-0.138491 0.06547-0.138491 0.146307 0 0.08239 0.06225 0.147017 0.1392 0.147017 0.07694 8e-4 0.138491-0.0647 0.138491-0.146306 0-0.08161-0.06155-0.147018-0.138491-0.147018zm-0.0085 0.04936c0.0293 0 0.04851 0.0061 0.06001 0.01456 0.01158 0.0084 0.01777 0.02155 0.01777 0.04013 0 0.02534-0.01689 0.04066-0.03765 0.04687v0.0016c0.01695 0.0031 0.02843 0.01853 0.03232 0.04706 0.0046 0.03008 0.0091 0.04144 0.01225 0.04759h-0.03231c-0.0047-0.0061-0.0093-0.02377-0.01315-0.04919-0.0047-0.02456-0.01691-0.03392-0.04154-0.03392h-0.02148v0.0831h-0.0309v-0.193142c0.01617-0.0023 0.03161-0.0046 0.05469-0.0046zm-0.0017 0.0238c-0.01002 0-0.01684 8e-4 -0.0222 0.0016v0.06534h0.0222c0.02542 0 0.04706-0.0091 0.04706-0.03302 0-0.01694-0.01239-0.03391-0.04706-0.03391z" style="fill:#40584b"/>
 </g>
</svg>
