<?xml version="1.0" encoding="UTF-8" standalone="no"?>
<svg id="svg2817" xmlns:rdf="http://www.w3.org/1999/02/22-rdf-syntax-ns#" xmlns="http://www.w3.org/2000/svg" height="32" width="32" version="1.0" xmlns:cc="http://creativecommons.org/ns#" xmlns:dc="http://purl.org/dc/elements/1.1/">
    <metadata id="metadata57">
        <rdf:RDF>
            <cc:Work rdf:about="">
                <dc:format>
                    image/svg+xml
                </dc:format>
                <dc:type rdf:resource="http://purl.org/dc/dcmitype/StillImage"/>
                <dc:title/>
            </cc:Work>
        </rdf:RDF>
    </metadata>
    <rect id="rect4255" transform="matrix(0,-1,-1,0,0,0)" rx="1.5" ry="1.5" height="28" width="28" y="-30" x="-30" fill="#d92929"/>
    <path id="rect4632" opacity=".1" fill="#fff" d="m3.5 2c-0.831 0-1.5 0.669-1.5 1.5v1c0-0.831 0.669-1.5 1.5-1.5h25c0.831 0 1.5 0.669 1.5 1.5v-1c0-0.831-0.669-1.5-1.5-1.5h-25z"/>
    <path id="rect4379" opacity=".2" d="m2 28.5v1c0 0.831 0.669 1.5 1.5 1.5h25c0.831 0 1.5-0.669 1.5-1.5v-1c0 0.831-0.669 1.5-1.5 1.5h-25c-0.831 0-1.5-0.669-1.5-1.5z"/>
    <g id="g4768" opacity=".2" stroke-linejoin="round" transform="translate(0 .99666)" stroke="#000" stroke-linecap="round" stroke-width="2" fill="none">
        <path id="path4770" d="m6.0142 12.9h7.7l-7 9.1h7.7"/>
        <path id="path4772" d="m25 22s-8.0377 0.3149-8-6c0.03774-6.3149 8-6 8-6"/>
    </g>
    <g id="g5723" stroke-linejoin="round" stroke="#ff895e" stroke-linecap="round" stroke-width="2" fill="none">
        <path id="path5022" d="m6.0142 12.9h7.7l-7 9.1h7.7"/>
        <path id="path5024" d="m25 22s-8.0377 0.3149-8-6c0.03774-6.3149 8-6 8-6"/>
    </g>
</svg>
