<svg xmlns="http://www.w3.org/2000/svg" width="32" height="32" version="1">
 <circle style="fill:#455a64" cx="16" cy="16" r="14"/>
 <path style="fill:#ffffff" d="M 15.699781,6 C 12.495281,6 9.899,8.7955 9.899,12 h 2.90039 c 0,-1.595 1.305391,-3.099609 2.900391,-3.099609 1.595,0 2.900391,1.30539 2.900391,2.90039 0,0.7975 -0.318969,1.520969 -0.855469,2.042969 l -1.798828,1.828125 c -1.044,1.0585 -1.695313,2.508516 -1.695313,4.103516 V 20 h 2.919922 c 0.09713,-1.807411 0.717891,-2.632321 1.675781,-3.603516 L 20.150953,15.0625 c 0.8265,-0.8265 1.349609,-1.985719 1.349609,-3.261719 C 21.500562,8.596281 18.904281,6 15.699781,6 Z m -1.5,17 v 3 h 3 v -3 z"/>
</svg>
