<?xml version="1.0" encoding="UTF-8" standalone="no"?>
<!-- Created with Inkscape (http://www.inkscape.org/) -->

<svg
   xmlns:dc="http://purl.org/dc/elements/1.1/"
   xmlns:cc="http://creativecommons.org/ns#"
   xmlns:rdf="http://www.w3.org/1999/02/22-rdf-syntax-ns#"
   xmlns:svg="http://www.w3.org/2000/svg"
   xmlns="http://www.w3.org/2000/svg"
   xmlns:sodipodi="http://sodipodi.sourceforge.net/DTD/sodipodi-0.dtd"
   xmlns:inkscape="http://www.inkscape.org/namespaces/inkscape"
   height="48"
   width="48"
   viewBox="0 0 48 48.000001"
   id="svg2"
   version="1.1"
   inkscape:version="0.91 r13725"
   sodipodi:docname="emblem-system.svg">
  <defs
     id="defs8" />
  <sodipodi:namedview
     pagecolor="#ffffff"
     bordercolor="#666666"
     borderopacity="1"
     objecttolerance="10"
     gridtolerance="10"
     guidetolerance="10"
     inkscape:pageopacity="0"
     inkscape:pageshadow="2"
     inkscape:window-width="1600"
     inkscape:window-height="849"
     id="namedview6"
     showgrid="false"
     units="px"
     inkscape:snap-global="true"
     inkscape:snap-bbox="true"
     inkscape:bbox-paths="true"
     inkscape:bbox-nodes="true"
     inkscape:snap-bbox-edge-midpoints="true"
     inkscape:snap-bbox-midpoints="true"
     inkscape:object-paths="true"
     inkscape:snap-intersection-paths="true"
     inkscape:object-nodes="true"
     inkscape:snap-smooth-nodes="true"
     inkscape:snap-midpoints="true"
     inkscape:snap-object-midpoints="true"
     inkscape:snap-center="true"
     inkscape:zoom="12.229167"
     inkscape:cx="8.2545668"
     inkscape:cy="26.187754"
     inkscape:window-x="0"
     inkscape:window-y="0"
     inkscape:window-maximized="1"
     inkscape:current-layer="svg2"
     showguides="false"
     inkscape:guide-bbox="true">
    <inkscape:grid
       type="xygrid"
       id="grid3195" />
    <sodipodi:guide
       position="24,18"
       orientation="1,0"
       id="guide3260" />
    <sodipodi:guide
       position="23,24"
       orientation="0,1"
       id="guide3262" />
  </sodipodi:namedview>
  <metadata
     id="metadata4">
    <rdf:RDF>
      <cc:Work
         rdf:about="">
        <dc:format>image/svg+xml</dc:format>
        <dc:type
           rdf:resource="http://purl.org/dc/dcmitype/StillImage" />
        <dc:title />
      </cc:Work>
    </rdf:RDF>
  </metadata>
  <circle
     style="opacity:1;fill:#646464;fill-opacity:1;stroke:none;stroke-width:2;stroke-miterlimit:4;stroke-dasharray:none;stroke-opacity:1"
     id="path3197"
     cx="24"
     cy="24"
     r="20" />
  <path
     inkscape:connector-curvature="0"
     style="opacity:1;fill:#ffffff;fill-opacity:1;stroke:none;stroke-width:2;stroke-miterlimit:4;stroke-dasharray:none;stroke-opacity:1"
     d="m 21,10 0,3.419922 a 11.000001,11.000001 0 0 0 -2.351562,0.984375 l -2.425782,-2.425781 -4.24414,4.24414 2.419922,2.419922 A 11.000001,11.000001 0 0 0 13.427734,21 L 10,21 l 0,6 3.419922,0 a 11.000001,11.000001 0 0 0 0.984375,2.351562 l -2.425781,2.425782 4.24414,4.24414 2.419922,-2.419922 A 11.000001,11.000001 0 0 0 21,34.572266 L 21,38 l 6,0 0,-3.419922 a 11.000001,11.000001 0 0 0 2.351562,-0.984375 l 2.425782,2.425781 4.24414,-4.24414 -2.419922,-2.419922 A 11.000001,11.000001 0 0 0 34.572266,27 L 38,27 l 0,-6 -3.419922,0 a 11.000001,11.000001 0 0 0 -0.984375,-2.351562 l 2.425781,-2.425782 -4.24414,-4.24414 -2.419922,2.419922 A 11.000001,11.000001 0 0 0 27,13.427734 L 27,10 21,10 Z m 3,9 a 5,5 0 0 1 5,5 5,5 0 0 1 -5,5 5,5 0 0 1 -5,-5 5,5 0 0 1 5,-5 z"
     id="path3368" />
</svg>
