<svg xmlns="http://www.w3.org/2000/svg" width="24" height="24" version="1.1">
 <path style="fill:#bebebe" d="m 22.250193,5.9999997 c 0.403999,0 0.75,0.3460007 0.75,0.75 l 0,11.5000003 c 0,0.403999 -0.346001,0.75 -0.75,0.75 l -2.5,0 c -0.403999,0 -0.75,-0.346001 -0.75,-0.75 l 0,-4.28125 -8.25,4.96875 a 0.49473539,0.49473539 0 0 1 -0.75,-0.4375 l 0,-4.53125 -8.25,4.96875 a 0.49473539,0.49473539 0 0 1 -0.75,-0.4375 l 0,-12.0000003 a 0.49473539,0.49473539 0 0 1 0.75,-0.4375 l 8.25,4.9687503 0,-4.5312503 a 0.49473539,0.49473539 0 0 1 0.75,-0.4375 l 8.25,4.9687503 0,-4.2812503 c 0,-0.4039993 0.346001,-0.75 0.75,-0.75 l 2.5,0 z"/>
</svg>
