<svg xmlns="http://www.w3.org/2000/svg" width="24" height="24" version="1.1">
 <path fill="#ffffff" d="M 10.5,2 H 13.5 C 13.79,2 14,2.21 14,2.5 V 3.88 A 0.5,0.5 0 0 0 14.35,4.35 C 14.84,4.5 15.31,4.69 15.74,4.91 A 0.5,0.5 0 0 0 16.32,4.82 L 17.29,3.85 A 0.53,0.53 0 0 1 18.02,3.85 L 20.15,5.98 A 0.53,0.53 0 0 1 20.15,6.71 L 19.18,7.68 A 0.5,0.5 0 0 0 19.09,8.26 C 19.31,8.69 19.5,9.16 19.65,9.65 A 0.5,0.5 0 0 0 20.13,10 H 21.5 C 21.79,10 22,10.21 22,10.5 V 13.5 C 22,13.79 21.79,14 21.5,14 H 20.13 A 0.5,0.5 0 0 0 19.65,14.35 8.066,8.066 0 0 1 19.09,15.74 0.5,0.5 0 0 0 19.18,16.32 L 20.15,17.29 A 0.53,0.53 0 0 1 20.15,18.02 L 18.02,20.15 A 0.53,0.53 0 0 1 17.29,20.15 L 16.32,19.18 A 0.5,0.5 0 0 0 15.74,19.09 C 15.31,19.31 14.84,19.5 14.35,19.65 A 0.5,0.5 0 0 0 14,20.13 V 21.5 C 14,21.79 13.79,22 13.5,22 H 10.5 A 0.488,0.488 0 0 1 10,21.5 V 20.13 A 0.5,0.5 0 0 0 9.65,19.65 8.066,8.066 0 0 1 8.26,19.09 0.5,0.5 0 0 0 7.68,19.18 L 6.71,20.15 A 0.53,0.53 0 0 1 5.98,20.15 L 3.85,18.02 A 0.53,0.53 0 0 1 3.85,17.29 L 4.82,16.32 A 0.5,0.5 0 0 0 4.91,15.74 C 4.69,15.31 4.5,14.84 4.35,14.35 A 0.5,0.5 0 0 0 3.87,14 H 2.5 A 0.488,0.488 0 0 1 2,13.5 V 10.5 C 2,10.21 2.21,10 2.5,10 H 3.87 A 0.5,0.5 0 0 0 4.35,9.65 C 4.5,9.16 4.69,8.69 4.91,8.26 A 0.5,0.5 0 0 0 4.82,7.68 L 3.85,6.71 A 0.53,0.53 0 0 1 3.85,5.98 L 5.98,3.85 A 0.53,0.53 0 0 1 6.71,3.85 L 7.68,4.82 A 0.5,0.5 0 0 0 8.26,4.91 C 8.69,4.69 9.16,4.5 9.65,4.35 A 0.5,0.5 0 0 0 10,3.88 V 2.5 C 10,2.21 10.21,2 10.5,2 Z M 12,9 C 10.35,9 9,10.35 9,12 9,13.65 10.35,15 12,15 13.65,15 15,13.65 15,12 15,10.35 13.65,9 12,9 Z"/>
</svg>
