<?xml version="1.0"?>
<svg xmlns="http://www.w3.org/2000/svg" width="24" version="1.1" height="24" id="svg2">
 <defs id="defs20">
  <style type="text/css" id="current-color-scheme">
   .ColorScheme-Text { color:#5c616c; } .ColorScheme-Highlight { color:#5294e2; } .ColorScheme-ButtonBackground { color:#d3dae3; }
  </style>
 </defs>
 <g transform="translate(3 -1029.4)" id="g4">
  <g transform="matrix(-1,0,0,1,16.014,0)" id="g6">
   <path style="fill:currentColor" d="m12.906 1034.3a1.0001 1.0001 0 0 0 -0.90625 1v13a1.0001 1.0001 0 1 0 2 0v-12h1a1.0001 1.0001 0 1 0 0 -2h-2a1.0001 1.0001 0 0 0 -0.0937 0z" id="path8" class="ColorScheme-ButtonBackground"/>
   <path style="fill:currentColor" d="m13 1039.3v0.5 2 0.5h0.5 2 0.5v-0.5-2-0.5h-0.5-2-0.5zm1 1h1v1h-1v-1z" id="path10" class="ColorScheme-ButtonBackground"/>
   <path style="fill:currentColor" d="m13 1043.3v0.5 2 0.5h0.5 2 0.5v-0.5-2-0.5h-0.5-2-0.5zm1 1h1v1h-1v-1z" id="path12" class="ColorScheme-ButtonBackground"/>
   <path style="fill:currentColor" d="m0 1037.3v1 10 1h1 8 1v-1-1h1v-2h-1-1-1v1 1h-6v-8h2 1 5 0.5 0.5v-2h-0.5-0.5-5-1-3-1z" id="path14" class="ColorScheme-ButtonBackground"/>
   <path style="fill:currentColor" d="m3 1040.4v4h1v-4h-1zm2 0v4h1v-4h-1zm2 0v4h1v-4h-1zm2 0v4h1v-4h-1z" id="path16" class="ColorScheme-ButtonBackground"/>
  </g>
 </g>
</svg>
