<?xml version='1.0' encoding='UTF-8' standalone='no'?>
<svg height="16.002" version="1.1" viewBox="0 0 16.03 16" width="16.031" xmlns="http://www.w3.org/2000/svg">
 <g transform="translate(-31.96875,-528.36047)">
  <path d="m 40,530.36216 c -3.03435,0 -5.76588,1.07815 -8.03125,2.75 l 8.03125,8.75 1,-1.10156 0,-1.39844 1.013672,0 c 0.01961,-1.63157 1.33745,-2.99245 2.976562,-2.99805 l 2.978516,-3.2832 C 45.71214,531.42762 43.01105,530.36216 40,530.36216 Z m 5,7 c -1.108,0 -2,0.91085 -2,2.03125 l 0,0.96875 -1,0 0,1 0,2 0,1 1,0 4,0 1,0 0,-1 0,-2 0,-1 -1,0 0,-0.96875 c 0,-1.1199 -0.892,-2.03125 -2,-2.03125 z m 0,1 c 0.554,0 1,0.4424 1,1 l 0,1 -2,0 0,-1 c 0,-0.5576 0.446,-1 1,-1 z" style="color:#000000;display:inline;overflow:visible;visibility:visible;fill:#d3dae3;fill-opacity:1;fill-rule:nonzero;stroke:none;stroke-width:1;marker:none;enable-background:accumulate"/>
 </g>
</svg>
