<?xml version='1.0' encoding='UTF-8' standalone='no'?>
<svg height="16" version="1.1" viewBox="0 0 16 16" width="16" xmlns="http://www.w3.org/2000/svg">
 <g transform="translate(-55.999996,-624.36218)">
  <path d="m 71,625.36607 -14,14 8,0 0,-0.004 0,-2 0,-2 1.013672,0 c 0.01965,-1.63493 1.342515,-3 2.986328,-3 0.774415,0 1.470818,0.30948 2,0.80078 z" style="opacity:0.35;fill:#d3dae3;fill-opacity:1;stroke:none"/>
  <path d="m 68,628.36607 -11,11 8,0 0,-0.004 0,-2 0,-2 1.013672,0 c 0.01543,-1.28412 0.838925,-2.392 1.986328,-2.8125 l 0,-4.18359 z" style="fill:#d3dae3;fill-opacity:1;stroke:none"/>
  <path d="m 69,633.36216 c -1.108,0 -2,0.91085 -2,2.03125 l 0,0.96875 -1,0 0,1 0,2 0,1 1,0 4,0 1,0 0,-1 0,-2 0,-1 -1,0 0,-0.96875 c 0,-1.1199 -0.892,-2.03125 -2,-2.03125 z m 0,1 c 0.554,0 1,0.4424 1,1 l 0,1 -2,0 0,-1 c 0,-0.5576 0.446,-1 1,-1 z" style="color:#000000;display:inline;overflow:visible;visibility:visible;fill:#d3dae3;fill-opacity:1;fill-rule:nonzero;stroke:none;stroke-width:1;marker:none;enable-background:accumulate"/>
 </g>
</svg>
