<svg xmlns="http://www.w3.org/2000/svg" width="16" height="16" version="1.1">
 <defs>
  <style id="current-color-scheme" type="text/css">
   .ColorScheme-Text { color:#dfdfdf; } .ColorScheme-Highlight { color:#4285f4; } .ColorScheme-NeutralText { color:#ff9800; } .ColorScheme-PositiveText { color:#4caf50; } .ColorScheme-NegativeText { color:#f44336; }
  </style>
 </defs>
 <path style="opacity:0.3;fill:currentColor" class="ColorScheme-Text" d="M 3.4628906 0 C 4.2627823 -0.010607 5.0544257 0.3626686 5.546875 1.0664062 C 5.7476351 1.3532772 5.8800861 1.672901 5.9472656 2.0058594 L 7.6796875 2.0058594 C 9.7725131 2.0058594 11.470703 3.401312 11.470703 5.4941406 C 11.470703 6.4334575 11.123355 7.2273887 10.554688 7.8203125 A 2.50025 2.50025 0 0 1 10.748047 8.0664062 L 11.544922 9.2050781 C 12.443986 8.2313757 13 6.9388703 13 5.5117188 C 13 2.4875472 10.537566 0.03515625 7.5 0.03515625 L 3.9042969 0.03515625 C 3.7584908 0.01051505 3.6107762 -0.0013531 3.4628906 0 z M 1.0039062 2.5195312 L 1 2.5234375 L 1 2.5585938 C 0.9997244 2.5456247 1.0039763 2.5325192 1.0039062 2.5195312 z M 1 2.5585938 L 1 12.474609 C 0.952187 15.840508 6.047813 15.840508 6 12.474609 L 6 10.986328 L 6.6796875 10.986328 L 6.6308594 10.916016 C 6.6065592 10.882238 6.5927913 10.843366 6.5703125 10.808594 A 2.50025 2.50025 0 0 1 6.5039062 10.693359 C 6.2079328 10.176922 6.0917591 9.5744694 6.2050781 8.984375 L 3.7929688 8.984375 L 3.7929688 12.671875 C 3.8005987 13.211295 2.9865106 13.211295 2.9941406 12.671875 L 2.9941406 4.9414062 C 2.3919074 4.8163184 1.8329559 4.4763935 1.453125 3.9335938 C 1.165949 3.5232409 1.0103989 3.0480133 1 2.5585938 z M 5.9707031 2.8027344 C 5.9653131 2.8464464 5.9686475 2.8898904 5.9609375 2.9335938 C 5.8449374 3.5915783 5.4803841 4.1656694 4.9335938 4.5488281 C 4.583077 4.7944383 4.190812 4.9264782 3.7929688 4.9726562 L 3.7929688 8.1855469 L 4.5898438 8.1855469 L 6.5039062 8.1855469 C 6.5152809 8.1662531 6.5507419 8.1510888 6.5683594 8.1328125 A 2.50025 2.50025 0 0 1 8.6152344 6.9707031 A 2.50025 2.50025 0 0 1 9.9453125 7.3183594 C 10.39741 6.8642529 10.671875 6.2445943 10.671875 5.4941406 C 10.671875 3.8324581 9.3413681 2.8027344 7.6796875 2.8027344 L 6.5839844 2.8027344 L 5.9707031 2.8027344 z M 6 4.0175781 L 7.5 4.0175781 C 8.375806 4.0175781 9 4.6397751 9 5.5117188 C 9 6.2389468 8.5605144 6.8176502 7.9082031 6.9824219 C 7.8936465 6.9747885 7.8725877 6.9750475 7.8632812 6.9609375 L 6 7.0039062 L 6 4.0175781 z"/>
 <path style="fill:currentColor" class="ColorScheme-Text" d="M 3.4550781 0 C 2.9735512 0.0078845193 2.4897443 0.15474079 2.0664062 0.45117188 C 1.5194675 0.83391652 1.1549232 1.4070732 1.0390625 2.0644531 C 0.92305429 2.7218331 1.0702235 3.3848833 1.453125 3.9316406 C 2.2436075 5.0605006 3.804692 5.3373576 4.9335938 4.546875 C 5.480384 4.1639822 5.8449292 3.5891688 5.9609375 2.9316406 C 6.076798 2.2745567 5.9297763 1.6131634 5.546875 1.0664062 C 5.0528235 0.36086896 4.257623 -0.013139881 3.4550781 0 z M 8.6152344 6.9707031 A 2.50025 2.50025 0 0 0 6.6523438 10.933594 L 8.7519531 13.933594 A 2.50025 2.50025 0 1 0 12.847656 11.066406 L 10.748047 8.0664062 A 2.50025 2.50025 0 0 0 8.6152344 6.9707031 z"/>
</svg>
