<?xml version="1.0" encoding="UTF-8" standalone="no"?>
<svg xmlns="http://www.w3.org/2000/svg" height="16" width="16" viewBox="0 0 16 16" style="enable-background:new" version="1.1">
 <path d="m 5.096038,3.001 c -0.155,-10e-4 -0.318,0.007 -0.487,0.029 -2.692,0.348 -2.609,2.668 -2.609,2.668 C 0.89703803,5.886 3.8027781e-5,6.853 3.8027781e-5,7.863 c 0,1.01 1.151999972219,1.905 2.117999972219,2.165 0.574,0.155 1.328,0 1.328,0 0.157,0.278 0.477,0.514 0.856,0.686 0.222,-0.405 0.554,-0.745 0.978,-0.933 0.47,-1.128 1.592,-2.114 2.879,-2.035 0.943,-0.051 1.862,0.433 2.458,1.16 1.096,-0.362 2.716,-0.082 3.186,1.145 0.313,-0.065 0.622,-0.041 0.912,0.048 0.103,-0.021 0.189,-0.045 0.26,-0.072 1.599,-0.619 1.102,-2.555 0.038,-3.209 -1.064,-0.654 -2.458,-0.193 -2.458,-0.193 0,0 -0.003,-1.331 -1.508,-1.967 -1.505,-0.636 -2.779,0.768 -2.779,0.768 0,0 -0.839,-2.412 -3.167,-2.426 z m 3.158,5.674 c -0.103,-0.001 -0.214,0.005 -0.326,0.019 -1.794,0.231 -1.74,1.769 -1.74,1.769 -0.735,0.125 -1.333,0.765 -1.333,1.435 0,0.67 0.765,1.263 1.409,1.435 0.383,0.103 0.884,0 0.884,0 0.227,0.4 0.976,0.667 1.498,0.667 0.852,0 1.727,-0.282 1.929,-0.667 0,0 3.527,0.282 4.259,0 1.066,-0.411 0.733,-1.693 0.024,-2.127 -0.709,-0.434 -1.636,-0.13 -1.636,-0.13 0,0 -0.004,-0.883 -1.01,-1.305 -1,-0.422 -1.848,0.512 -1.848,0.512 0,0 -0.562,-1.6 -2.113,-1.609 z" style="opacity:1;fill:#d3dae3;fill-opacity:1"/>
</svg>
