<svg xmlns="http://www.w3.org/2000/svg" width="24" height="24" version="1.1">
 <defs>
  <style id="current-color-scheme" type="text/css">
   .ColorScheme-Text { color:#ffffff; } .ColorScheme-Highlight { color:#4285f4; } .ColorScheme-NeutralText { color:#ff9800; } .ColorScheme-PositiveText { color:#4caf50; } .ColorScheme-NegativeText { color:#f44336; }
  </style>
 </defs>
 <g style="fill:currentColor" class="ColorScheme-Text" transform="translate(1,1.0002371)">
  <path style="fill:currentColor" class="ColorScheme-Text" d="m 11,3 c -4.4177135,0 -8,3.578744 -8,8 0,4.417713 3.5787438,8 8,8 0.326401,0 0.646718,-0.02453 0.962891,-0.0625 A 5,5 0 0 1 11,16 5,5 0 0 1 13,12.007812 V 11.5 L 12,13 H 10 L 9,11.5 V 14 H 7 V 8 h 2 l 2,3 2,-3 h 2 v 3.105469 A 5,5 0 0 1 16,11 5,5 0 0 1 18.9375,11.960938 C 18.975324,11.645309 19,11.325879 19,11 19,6.5822866 15.421256,3 11,3 Z"/>
 </g>
 <path style="fill:currentColor" class="ColorScheme-NeutralText warning" d="m 16.990234,12.998284 c -0.676518,0.0013 -1.362499,0.174662 -1.990234,0.537109 -1.9132,1.1046 -2.567391,3.551644 -1.462891,5.464844 1.1045,1.9131 3.549791,2.567491 5.462891,1.462891 1.9132,-1.1046 2.569344,-3.549691 1.464844,-5.462891 -0.690313,-1.195688 -1.904658,-1.90165 -3.185547,-1.992188 -0.09607,-0.0068 -0.192417,-0.01 -0.289063,-0.0098 z M 16,14.000237 h 2 v 4 h -2 z m 0,5 h 2 v 1 h -2 z"/>
</svg>
