<svg xmlns="http://www.w3.org/2000/svg" width="22" height="22" version="1">
 <path style="opacity:0.2" d="m 4,1.5 c -0.554,0 -1,0.446 -1,1 v 18 c 0,0.554 0.446,1 1,1 h 14 c 0.554,0 1,-0.446 1,-1 V 7.5 L 13.5,7 13,1.5 Z"/>
 <path style="fill:#e4e4e4" d="M 4,1 C 3.446,1 3,1.446 3,2 v 18 c 0,0.554 0.446,1 1,1 h 14 c 0.554,0 1,-0.446 1,-1 V 7 L 13.5,6.5 13,1 Z"/>
 <path style="opacity:0.2;fill:#ffffff" d="M 4,1 C 3.446,1 3,1.446 3,2 v 0.5 c 0,-0.554 0.446,-1 1,-1 h 9 L 18.5,7 H 19 L 13,1 Z"/>
 <path style="opacity:0.2" d="m 13,1.5 v 5 c 0,0.5523 0.44772,1 1,1 h 5 z"/>
 <path style="fill:#fafafa" d="m 13,1 v 5 c 0,0.5523 0.44772,1 1,1 h 5 z"/>
 <rect style="fill:#267edb" width="1" height="9.5" x="6" y="9.5"/>
 <rect style="fill:#267edb" width="2" height="1" x="6" y="9"/>
 <rect style="fill:#267edb" width="2" height="1" x="6" y="18"/>
 <rect style="fill:#267edb" width="1" height="9.5" x="-16" y="9.5" transform="scale(-1,1)"/>
 <rect style="fill:#267edb" width="2" height="1" x="-16" y="9" transform="scale(-1,1)"/>
 <rect style="fill:#267edb" width="2" height="1" x="-16" y="18" transform="scale(-1,1)"/>
 <path style="fill:none;stroke:#3f3f3f" d="m 9,11.5 2.5,5"/>
 <path style="fill:none;stroke:#3f3f3f" d="m 13.5,11.5 c 0,0 -2,7 -3.5,7 H 9.5"/>
 <path style="fill:#267edb" d="m 18,11.561956 a 0.5,0.5 0 0 1 -0.5,0.5 0.5,0.5 0 0 1 -0.5,-0.5 0.5,0.5 0 0 1 0.5,-0.5 0.5,0.5 0 0 1 0.5,0.5 z"/>
 <path style="fill:#267edb" d="m 18,16.561956 a 0.5,0.5 0 0 1 -0.5,0.5 0.5,0.5 0 0 1 -0.5,-0.5 0.5,0.5 0 0 1 0.5,-0.5 0.5,0.5 0 0 1 0.5,0.5 z"/>
</svg>
