<svg xmlns="http://www.w3.org/2000/svg" width="22" height="22" version="1.1">
 <path style="opacity:0.2" d="m 4,1.5 c -0.554,0 -1,0.446 -1,1 v 18 c 0,0.554 0.446,1 1,1 h 14 c 0.554,0 1,-0.446 1,-1 v -13 l -6,-6 z"/>
 <path style="fill:#e4e4e4" d="M 4,1 C 3.446,1 3,1.446 3,2 v 18 c 0,0.554 0.446,1 1,1 h 14 c 0.554,0 1,-0.446 1,-1 V 7 L 14,6 13,1 Z"/>
 <path style="opacity:0.2" d="m 19,7.5 -6,-6 v 5 c 0,0.554 0.446,1 1,1 z"/>
 <path style="fill:#fafafa" d="M 19,7 13,1 v 5 c 0,0.554 0.446,1 1,1 z"/>
 <path style="opacity:0.2;fill:#ffffff" d="M 4,1 C 3.446,1 3,1.446 3,2 v 0.5 c 0,-0.554 0.446,-1 1,-1 h 9 V 1 Z"/>
 <path style="opacity:0.1" d="m 11.515775,13.652386 c 0.03655,0.04113 0.133586,0.132414 0.291106,0.273875 2.21109,2.192933 3.274083,3.170916 3.188557,3.433699 -0.06147,0.1933 -0.238655,0.357209 -0.531554,0.49173 -0.292415,0.126696 -0.555855,0.184146 -0.790321,0.172351 -0.185638,-0.0093 -1.067265,-0.683613 -2.644457,-2.522584 -0.318245,-0.385212 -0.50516,-0.602785 -0.560745,-0.65272 -0.231085,0.23976 -0.5765059,0.732997 -1.0362649,1.479712 -0.591813,1.191418 -1.370517,2.290826 -1.8165085,3.549683 -0.1362225,0.440914 -0.4827735,0.647367 -1.0396515,0.619359 -0.2930975,-0.01474 -0.4731775,-0.11021 -0.5402365,-0.286404 -0.067064,-0.176196 -0.03964,-0.449759 0.082272,-0.820696 0.2340475,-0.742358 1.359633,-2.543581 3.37676,-5.403673 C 9.4832561,13.860459 9.1942351,13.402085 8.6276661,12.611593 8.0610866,11.821117 7.6112746,11.222336 7.2782261,10.91492 6.9173746,10.582559 6.7671756,10.327555 6.8276301,10.149908 6.9638456,9.709004 7.3934396,9.506727 8.1164121,9.54308 c 0.3517115,0.0177 0.978576,0.75893 1.880597,2.12402 0.3852939,0.56142 0.6376649,0.904046 0.7571139,1.027879 0.207999,-0.185919 0.504506,-0.528433 0.889518,-1.027543 0.385503,-0.506923 0.652101,-0.917714 0.799798,-1.232372 0.146168,-0.291149 0.37674,-0.523074 0.69172,-0.695775 0.314963,-0.172681 0.61411,-0.251902 0.897446,-0.237662 0.439632,0.02212 0.598752,0.214731 0.477357,0.577825 -0.136229,0.440925 -0.928898,1.410493 -2.378009,2.908709 -0.377953,0.389487 -0.583344,0.610894 -0.616178,0.664225"/>
 <path style="fill:#ff6600" d="m 11.515775,13.152386 c 0.03655,0.04113 0.133586,0.132414 0.291106,0.273875 2.21109,2.192933 3.274083,3.170916 3.188557,3.433699 -0.06147,0.1933 -0.238655,0.357209 -0.531554,0.49173 -0.292415,0.126696 -0.555855,0.184146 -0.790321,0.172351 -0.185638,-0.0093 -1.067265,-0.683613 -2.644457,-2.522584 -0.318245,-0.385212 -0.50516,-0.602785 -0.560745,-0.65272 -0.231085,0.23976 -0.5765059,0.732997 -1.0362649,1.479711 -0.591813,1.191418 -1.370517,2.290826 -1.8165085,3.549684 -0.1362225,0.440914 -0.4827735,0.647367 -1.0396515,0.619359 -0.2930975,-0.01474 -0.4731775,-0.11021 -0.5402365,-0.286405 -0.067064,-0.176196 -0.03964,-0.449759 0.082272,-0.820695 0.2340475,-0.742359 1.359633,-2.543582 3.37676,-5.403673 C 9.4832561,13.360459 9.1942351,12.902084 8.6276661,12.111593 8.0610866,11.321116 7.6112746,10.722336 7.2782261,10.41492 6.9173746,10.082558 6.7671756,9.827554 6.8276301,9.649908 6.9638456,9.209003 7.3934396,9.006725 8.1164121,9.043078 c 0.3517115,0.0177 0.978576,0.758932 1.880597,2.124022 0.3852939,0.56142 0.6376649,0.904045 0.7571139,1.027878 0.207999,-0.185919 0.504506,-0.528432 0.889518,-1.027543 0.385503,-0.506923 0.652101,-0.917713 0.799798,-1.232372 0.146168,-0.291149 0.37674,-0.523073 0.69172,-0.695775 0.314963,-0.172682 0.61411,-0.251902 0.897446,-0.237663 0.439632,0.02212 0.598752,0.214732 0.477357,0.577827 -0.136229,0.440924 -0.928898,1.410493 -2.378009,2.908709 -0.377953,0.389487 -0.583344,0.610894 -0.616178,0.664225"/>
</svg>
