<svg xmlns="http://www.w3.org/2000/svg" width="48" height="48" version="1.1">
 <circle style="opacity:0.2" cx="24" cy="25" r="20"/>
 <circle style="fill:#1940ae" cx="24" cy="24" r="20"/>
 <path style="opacity:0.1;fill:#ffffff" d="M 24,4 A 20,20 0 0 0 4,24 20,20 0 0 0 4.0215,24.582 20,20 0 0 1 24,5 20,20 0 0 1 43.979,24.418 20,20 0 0 0 44,24 20,20 0 0 0 24,4 Z"/>
 <path style="opacity:0.2" d="M 23.055869,38.114275 C 21.944668,36.095932 21.901034,34.975768 22.871418,33.379137 L 23.422103,32.473063 22.225117,31.5211 c -1.839195,-1.462712 -2.44973,-2.403245 -2.44973,-3.773848 0,-1.127137 0.645669,-2.576674 1.147726,-2.576674 0.120398,0 0.218899,-0.128215 0.218899,-0.284922 0,-0.156705 -0.589354,-0.388734 -1.309682,-0.515616 -1.649838,-0.290614 -2.544545,-0.931564 -2.558935,-1.833169 -0.0097,-0.601567 0.893177,-1.301899 2.660945,-2.06423 1.362346,-0.587497 1.859262,-0.929162 1.638466,-1.126565 -0.174299,-0.155833 -0.650021,-0.197144 -1.057164,-0.0918 -0.426035,0.110229 -0.740255,0.05682 -0.740255,-0.125825 0,-0.174545 -0.486857,-0.32212 -1.081912,-0.327944 -2.013094,-0.0197 -2.36239,-0.05666 -2.61404,-0.276544 -0.138096,-0.120666 -0.55262,-0.25293 -0.921164,-0.29392 -0.368544,-0.04099 -0.8219,-0.28917 -1.007459,-0.551513 -0.297991,-0.421304 -0.208739,-0.503658 0.764488,-0.70541 1.486649,-0.308188 2.918833,-1.236244 3.959941,-2.566044 1.855786,-2.370379 2.425641,-2.532631 2.882672,-0.82076 0.222699,0.834148 1.146452,1.752126 1.413696,1.404861 0.05146,-0.06685 -0.09479,-0.615965 -0.324959,-1.220246 -0.395776,-1.039023 -0.397478,-1.144065 -0.03134,-1.934077 0.465456,-1.004339 1.485969,-1.127062 2.049634,-0.246481 0.481476,0.752179 0.479702,1.615064 -0.0049,2.372085 -0.58486,0.913698 -0.05663,1.49459 0.71179,0.78275 0.319617,-0.296082 0.581125,-0.679902 0.581125,-0.852932 0,-0.173031 0.207341,-0.607746 0.460763,-0.966033 0.553513,-0.782566 0.9331,-0.571559 2.500259,1.389865 1.211093,1.515779 2.430883,2.32704 3.959357,2.633301 0.998538,0.200076 1.076585,0.273237 0.763586,0.71576 -0.191749,0.271098 -0.641003,0.525866 -0.998337,0.566152 -0.357333,0.04029 -0.829295,0.184614 -1.048807,0.32073 -0.219508,0.136117 -0.64884,0.158868 -0.954065,0.05056 -0.305231,-0.108308 -0.623009,-0.04125 -0.70618,0.149006 -0.09209,0.210656 -0.489209,0.265196 -1.015554,0.139473 -0.536247,-0.12809 -0.923176,-0.07184 -1.019354,0.148171 -0.09308,0.21291 -0.456081,0.274777 -0.908379,0.154814 -0.43247,-0.114705 -0.81566,-0.05727 -0.899639,0.134836 -0.08796,0.201216 0.51466,0.609165 1.51137,1.023139 1.994202,0.828271 2.682627,1.403706 2.682627,2.242329 0,0.875941 -0.812737,1.532266 -2.220768,1.793374 -0.657687,0.121963 -1.195795,0.292635 -1.195795,0.37927 0,0.08664 0.307489,0.652656 0.683311,1.25782 0.744211,1.198358 0.822097,1.716427 0.419399,2.789692 -0.305906,0.815282 -0.743435,1.296527 -2.412943,2.654041 l -1.210868,0.984578 0.469556,0.765437 c 0.258253,0.420992 0.526569,1.137221 0.59626,1.591624 0.06969,0.454402 0.167054,1.010564 0.216374,1.235917 0.121177,0.553705 -1.452965,2.976053 -1.919443,2.953715 -0.204655,-0.0098 -0.587081,-0.408305 -0.849839,-0.885569 z m 2.413796,-2.291912 c 0,-0.718698 -0.855192,-2.601155 -1.181689,-2.601155 -0.101718,0 -0.184937,1.236788 -0.184937,2.748419 v 2.74842 l 0.683313,-1.100299 c 0.375823,-0.605165 0.683313,-1.413088 0.683313,-1.795385 z m -1.610411,0.358573 c -0.0088,-1.007953 -0.09655,-2.122463 -0.194997,-2.476691 -0.163655,-0.58884 -0.221282,-0.547433 -0.67228,0.483038 -0.525159,1.199916 -0.494735,2.147109 0.111519,3.472032 0.503348,1.100018 0.773665,0.571237 0.755758,-1.478379 z m -0.211757,-7.629093 c 0,-3.041848 -0.0033,-3.05924 -0.564822,-3.05924 -1.001434,0 -2.389606,0.977818 -2.532733,1.784038 -0.231839,1.305973 0.127647,2.035723 1.573693,3.194571 0.775486,0.621465 1.4356,1.132173 1.466916,1.134905 0.03131,0.0027 0.05695,-1.371693 0.05695,-3.054274 z m 2.186844,1.901152 c 1.508295,-1.130122 1.685262,-1.369938 1.685262,-2.283778 0,-1.265346 -0.401659,-1.981121 -1.312365,-2.338703 -1.85369,-0.727837 -1.876428,-0.696806 -1.876428,2.560316 0,1.594025 0.08722,2.898227 0.193847,2.898227 0.106614,0 0.695974,-0.376228 1.309684,-0.836062 z m -2.272259,-7.254822 c -0.0783,-0.553481 -0.142355,-1.712771 -0.142355,-2.576201 0,-0.86343 -0.101292,-1.569874 -0.22509,-1.569874 -0.123794,0 -0.20067,0.312561 -0.170824,0.694579 0.04866,0.622911 -0.180761,0.781346 -2.223454,1.535514 -3.054084,1.127577 -3.054084,1.614646 0,2.324998 3.133625,0.728852 2.927014,0.759451 2.761723,-0.409016 z m 4.394382,0.254269 c 0.80401,-0.206266 1.50232,-0.547314 1.551798,-0.757884 0.0888,-0.377895 -2.065119,-1.428686 -3.867768,-1.886899 -0.89183,-0.226691 -1.109851,-0.670969 -0.493392,-1.005417 0.290462,-0.157584 0.30156,-0.248777 0.05695,-0.468002 -0.577081,-0.517184 -0.645468,-0.272029 -0.645468,2.313791 v 2.595934 l 0.968026,-0.208248 c 0.532413,-0.114537 1.625849,-0.37701 2.429858,-0.583275 z"/>
 <path style="fill:#ffffff" d="M 23.055869,37.114273 C 21.944668,35.09593 21.901034,33.975766 22.871418,32.379135 l 0.550685,-0.906074 -1.196986,-0.951963 c -1.839195,-1.462712 -2.44973,-2.403245 -2.44973,-3.773848 0,-1.127137 0.645669,-2.576674 1.147726,-2.576674 0.120398,0 0.218899,-0.128215 0.218899,-0.284922 0,-0.156705 -0.589354,-0.388734 -1.309682,-0.515616 -1.649838,-0.290614 -2.544545,-0.931564 -2.558935,-1.833169 -0.0097,-0.601567 0.893177,-1.301899 2.660945,-2.06423 1.362346,-0.587497 1.859262,-0.929162 1.638466,-1.126565 -0.174299,-0.155833 -0.650021,-0.197144 -1.057164,-0.0918 -0.426035,0.110229 -0.740255,0.05682 -0.740255,-0.125825 0,-0.174545 -0.486857,-0.32212 -1.081912,-0.327944 -2.013094,-0.0197 -2.36239,-0.05666 -2.61404,-0.276544 -0.138096,-0.120666 -0.55262,-0.25293 -0.921164,-0.29392 -0.368544,-0.04099 -0.8219,-0.28917 -1.007459,-0.551513 -0.297991,-0.421304 -0.208739,-0.503658 0.764488,-0.70541 1.486649,-0.308188 2.918833,-1.236244 3.959941,-2.566044 1.855786,-2.370379 2.425641,-2.532631 2.882672,-0.82076 0.222699,0.834148 1.146452,1.752126 1.413696,1.404861 0.05146,-0.06685 -0.09479,-0.615965 -0.324959,-1.220246 -0.395776,-1.039023 -0.397478,-1.144065 -0.03134,-1.934077 0.465456,-1.0043386 1.485969,-1.1270619 2.049634,-0.246481 0.481476,0.752179 0.479702,1.615064 -0.0049,2.372085 -0.58486,0.913698 -0.05663,1.49459 0.71179,0.78275 0.319617,-0.296082 0.581125,-0.679902 0.581125,-0.852932 0,-0.173031 0.207341,-0.607746 0.460763,-0.966033 0.553513,-0.782566 0.9331,-0.571559 2.500259,1.389865 1.211093,1.515779 2.430883,2.32704 3.959357,2.633301 0.998538,0.200076 1.076585,0.273237 0.763586,0.71576 -0.191749,0.271098 -0.641003,0.525866 -0.998337,0.566152 -0.357333,0.04029 -0.829295,0.184614 -1.048807,0.32073 -0.219508,0.136117 -0.64884,0.158868 -0.954065,0.05056 -0.305231,-0.108308 -0.623009,-0.04125 -0.70618,0.149006 -0.09209,0.210656 -0.489209,0.265196 -1.015554,0.139473 -0.536247,-0.12809 -0.923176,-0.07184 -1.019354,0.148171 -0.09308,0.21291 -0.456081,0.274777 -0.908379,0.154814 -0.43247,-0.114705 -0.81566,-0.05727 -0.899639,0.134836 -0.08796,0.201216 0.51466,0.609165 1.51137,1.023139 1.994202,0.828271 2.682627,1.403706 2.682627,2.242329 0,0.875941 -0.812737,1.532266 -2.220768,1.793374 -0.657687,0.121963 -1.195795,0.292635 -1.195795,0.37927 0,0.08664 0.307489,0.652656 0.683311,1.25782 0.744211,1.198358 0.822097,1.716427 0.419399,2.789692 -0.305906,0.815282 -0.743435,1.296527 -2.412943,2.654041 l -1.210868,0.984578 0.469556,0.765437 c 0.258253,0.420992 0.526569,1.137221 0.59626,1.591624 0.06969,0.454402 0.167054,1.010564 0.216374,1.235917 0.121177,0.553705 -1.452965,2.976053 -1.919443,2.953715 -0.204655,-0.0098 -0.587081,-0.408305 -0.849839,-0.885569 z m 2.413796,-2.291912 c 0,-0.718698 -0.855192,-2.601155 -1.181689,-2.601155 -0.101718,0 -0.184937,1.236788 -0.184937,2.748419 v 2.74842 l 0.683313,-1.100299 c 0.375823,-0.605165 0.683313,-1.413088 0.683313,-1.795385 z m -1.610411,0.358573 c -0.0088,-1.007953 -0.09655,-2.122463 -0.194997,-2.476691 -0.163655,-0.58884 -0.221282,-0.547433 -0.67228,0.483038 -0.525159,1.199916 -0.494735,2.147109 0.111519,3.472032 0.503348,1.100018 0.773665,0.571237 0.755758,-1.478379 z m -0.211757,-7.629093 c 0,-3.041848 -0.0033,-3.05924 -0.564822,-3.05924 -1.001434,0 -2.389606,0.977818 -2.532733,1.784038 -0.231839,1.305973 0.127647,2.035723 1.573693,3.194571 0.775486,0.621465 1.4356,1.132173 1.466916,1.134905 0.03131,0.0027 0.05695,-1.371693 0.05695,-3.054274 z m 2.186844,1.901152 c 1.508295,-1.130122 1.685262,-1.369938 1.685262,-2.283778 0,-1.265346 -0.401659,-1.981121 -1.312365,-2.338703 -1.85369,-0.727837 -1.876428,-0.696806 -1.876428,2.560316 0,1.594025 0.08722,2.898227 0.193847,2.898227 0.106614,0 0.695974,-0.376228 1.309684,-0.836062 z m -2.272259,-7.254822 c -0.0783,-0.553481 -0.142355,-1.712771 -0.142355,-2.576201 0,-0.86343 -0.101292,-1.569874 -0.22509,-1.569874 -0.123794,0 -0.20067,0.312561 -0.170824,0.694579 0.04866,0.622911 -0.180761,0.781346 -2.223454,1.535514 -3.054084,1.127577 -3.054084,1.614646 0,2.324998 3.133625,0.728852 2.927014,0.759451 2.761723,-0.409016 z m 4.394382,0.254269 c 0.80401,-0.206266 1.50232,-0.547314 1.551798,-0.757884 0.0888,-0.377895 -2.065119,-1.428686 -3.867768,-1.886899 -0.89183,-0.226691 -1.109851,-0.670969 -0.493392,-1.005417 0.290462,-0.157584 0.30156,-0.248777 0.05695,-0.468002 -0.577081,-0.517184 -0.645468,-0.272029 -0.645468,2.313791 v 2.595934 l 0.968026,-0.208248 c 0.532413,-0.114537 1.625849,-0.37701 2.429858,-0.583275 z"/>
</svg>
