<svg width="48" height="48" version="1.1" xmlns="http://www.w3.org/2000/svg">
 <g transform="translate(-2.6229563e-4)">
  <circle cx="24" cy="39" r="6" style="opacity:.2"/>
  <circle cx="24" cy="38" r="6" style="fill:#2191ad"/>
  <rect x="24" y="39" width="2" height="4" rx=".5" ry=".5" style="opacity:.2"/>
  <path d="m7.3535353 5.007044c-0.1503128-0.012632-0.2862398-0.00839-0.408209 0.013668-0.1626257 0.029413-0.2994394 0.088801-0.4140686 0.1796408-0.9383036 0.743574-0.6457138 3.6972484 0.9785299 9.8411912 0.9107933 3.44521 1.6619128 5.279869 2.9551214 7.222732 0.849152 1.275699 1.259587 1.759641 2.662148 3.145667 1.256112 1.383793 2.840607 3.319611 2.873089 4.947932-0.360699 3.214373-2.857186 4.8966-3.000044 7.632781 0 3.312847 1.686317 5.998441 5.000073 5.998441 2.078524 0.207989 4.139177-2.624247 6.000087-2.99922 2.247795 0.454298 4.06349 3.010232 6.000088 2.99922 3.313756 0 5.000073-2.685594 5.000073-5.998441-0.142858-2.736181-2.639346-4.418408-3.000044-7.632781 0.03248-1.628321 1.616977-3.564139 2.873089-4.947932 1.40256-1.386026 1.812995-1.869968 2.662148-3.145667 1.293208-1.942863 2.044327-3.777522 2.955121-7.222732 1.624243-6.1439428 1.916834-9.0976172 0.97853-9.8411912-0.114629-0.09084-0.251443-0.1502275-0.414068-0.1796408-0.121971-0.022056-0.257898-0.0263-0.40821-0.013669-0.450939 0.037895-1.031853 0.2318519-1.757838 0.5857852-1.43973 0.7019125-2.847575 1.7395404-4.433658 3.2667289-2.380015 2.2916239-3.2311 3.6031289-6.033291 9.3061739-0.836952 1.699205-1.863644 3.781404-3.119187 5.586438-0.364862 0.251195-1.302753 0.255793-1.302753 0.255793s-0.93789-0.0046-1.302753-0.255793c-1.255542-1.805033-2.282234-3.887232-3.119186-5.586437-2.802191-5.703045-3.653276-7.014551-6.033291-9.3061739-1.586083-1.5271885-2.993929-2.5648164-4.4336586-3.2667289-0.7259842-0.3539333-1.3068997-0.5478902-1.7578381-0.5857852z" style="opacity:.2"/>
  <rect x="24" y="38" width="2" height="4" rx=".5" ry=".5" style="fill:#ffffff"/>
  <rect x="22" y="39" width="2" height="4" rx=".5" ry=".5" style="opacity:.2"/>
  <rect x="22" y="38" width="2" height="4" rx=".5" ry=".5" style="fill:#ffffff"/>
  <path d="m7.3535353 4.0070437c-0.1503128-0.0126316-0.2862398-0.0083917-0.408209 0.0136684-0.1626257 0.0294132-0.2994394 0.0888014-0.4140686 0.1796408-0.9383036 0.743574-0.6457138 3.6972484 0.9785299 9.8411911 0.9107933 3.44521 1.6619128 5.279869 2.9551214 7.222732 0.849152 1.275699 1.259587 1.759641 2.662148 3.145667 1.256112 1.383793 2.840607 3.319611 2.873089 4.947932-0.360699 3.214373-2.857186 4.8966-3.000044 7.632781 0 3.312847 1.686317 5.998441 5.000073 5.998441 2.078524 0.207989 4.139177-2.624247 6.000087-2.99922 2.247795 0.454298 4.06349 3.010232 6.000088 2.99922 3.313756 0 5.000073-2.685594 5.000073-5.998441-0.142858-2.736181-2.639346-4.418408-3.000044-7.632781 0.03248-1.628321 1.616977-3.564139 2.873089-4.947932 1.40256-1.386026 1.812995-1.869968 2.662148-3.145667 1.293208-1.942863 2.044327-3.777522 2.955121-7.222732 1.624243-6.1439427 1.916834-9.0976171 0.97853-9.8411911-0.114629-0.09084-0.251443-0.1502275-0.414068-0.1796408-0.121971-0.022056-0.257898-0.0263-0.40821-0.013669-0.450939 0.037895-1.031853 0.2318519-1.757838 0.5857852-1.43973 0.7019125-2.847575 1.7395404-4.433658 3.2667289-2.380015 2.2916238-3.2311 3.6031288-6.033291 9.3061738-0.836952 1.699205-1.863644 3.781404-3.119187 5.586438-0.364862 0.251195-1.302753 0.255793-1.302753 0.255793s-0.93789-0.0046-1.302753-0.255793c-1.255542-1.805033-2.282234-3.887232-3.119186-5.586437-2.802191-5.703045-3.653276-7.014551-6.033291-9.3061742-1.586083-1.5271885-2.993929-2.5648164-4.4336586-3.2667289-0.7259842-0.3539333-1.3068997-0.5478902-1.7578381-0.5857852z" style="fill:#27abcc"/>
  <path d="m19.101957 35c-1.267765 0-3.098915-1.027728-3.098915-2.295493s-0.120019-2.295493 1.147746-2.295493c3.258659 0.387737 3.44324 4.590986 1.951169 4.590986z" style="opacity:.2"/>
  <path d="m19.101957 34c-1.267765 0-3.098915-1.027728-3.098915-2.295493s-0.120019-2.295493 1.147746-2.295493c3.258659 0.387737 3.44324 4.590986 1.951169 4.590986z" style="fill:#ffffff"/>
  <path d="m28.898043 35c1.267765 0 3.098915-1.027728 3.098915-2.295493s0.120019-2.295493-1.147746-2.295493c-3.258659 0.387737-3.44324 4.590986-1.951169 4.590986z" style="opacity:.2"/>
  <path d="m28.898043 34c1.267765 0 3.098915-1.027728 3.098915-2.295493s0.120019-2.295493-1.147746-2.295493c-3.258659 0.387737-3.44324 4.590986-1.951169 4.590986z" style="fill:#ffffff"/>
  <path d="m24 40c-1.931542-0.131713-3.590213-2.043843-2.797269-2.986174 0.846116-0.743091 1.908069-1.022541 2.797269-1.01362 0.889202-0.0089 1.951154 0.270529 2.797269 1.01362 0.792944 0.942331-0.865726 2.854461-2.797269 2.986174z" style="fill:#bf3667"/>
  <path d="m8.0429688 6.3085938c0.00306 0.2153513-0.023677 0.2944028 0.00586 0.5917968 0.1382306 1.3917864 0.5950713 3.6079064 1.3945313 6.6328124 0.8861909 3.353066 1.5180959 4.871632 2.6874999 6.628906h-2e-3c0.813712 1.222792 1.028556 1.472135 2.404297 2.832032l0.03906 0.03711 0.03516 0.04102c0.588451 0.648444 1.310646 1.395597 1.941406 2.273437 1.02779-1.152894 2.308662-2.052045 3.742188-2.626953-1.009435-1.630698-1.834444-3.298546-2.507813-4.666016v-2e-3c-2.784947-5.669556-3.347999-6.555011-5.624955-8.7480046-1.486164-1.431373-2.720396-2.3252384-3.923828-2.9121094-0.1660692-0.080981-0.0585639-0.0339462-0.1914062-0.0820312zm31.914062 0.00977c-0.08929 0.038896-0.0905 0.02306-0.191406 0.072266-1.203432 0.586871-2.437664 1.4807364-3.923828 2.9121094-2.276956 2.1929938-2.840008 3.0784488-5.625 8.7480468v2e-3c-0.673684 1.368108-1.499679 3.036548-2.509766 4.667969 1.434229 0.574645 2.715794 1.473813 3.744141 2.626953 0.63097-0.878405 1.352649-1.626631 1.941406-2.27539l0.03516-0.04102 0.03906-0.03711c1.375741-1.359897 1.590585-1.60924 2.404297-2.832032h-2e-3c1.169357-1.757277 1.801309-3.27584 2.6875-6.628906 0.79946-3.024906 1.2563-5.2410261 1.394531-6.6328126 0.02909-0.292487 0.0026-0.368798 0.0059-0.5820312z" style="opacity:.3"/>
  <circle cx="19" cy="33" r="1" style="fill:#323232"/>
  <circle cx="29" cy="33" r="1" style="fill:#323232"/>
  <path d="m7.3535156 4.0078125c-0.1503128-0.0126316-0.2862339-0.0083882-0.4082031 0.0136719-0.1626257 0.0294132-0.2994333 0.0888481-0.4140625 0.1796875-0.4141339 0.3281872-0.574092 1.1170971-0.5 2.390625 0.050926-0.6867385 0.2085661-1.1596735 0.5-1.390625 0.1146292-0.09084 0.2514368-0.1502745 0.4140625-0.1796875 0.1219692-0.022058 0.2578903-0.026304 0.4082031-0.013672 0.4509384 0.037895 1.0318283 0.2320042 1.7578125 0.5859375 1.4397299 0.7019125 2.8475109 1.7384365 4.4335939 3.265625 2.380015 2.2916231 3.231012 3.6035961 6.033203 9.3066411 0.836952 1.699205 1.863599 3.780905 3.119141 5.585937 0.364863 0.251193 1.302734 0.255859 1.302734 0.255859 0 1e-6 0.937872-0.0047 1.302734-0.255859 1.255543-1.805034 2.282189-3.886732 3.119141-5.585937 2.802191-5.703045 3.653188-7.015017 6.033203-9.306641 1.586083-1.5271885 2.993864-2.5637125 4.433594-3.265625 0.725985-0.3539333 1.306873-0.5480425 1.757812-0.5859375 0.150312-0.012631 0.286232-0.00838 0.408204 0.013672 0.162624 0.029413 0.299433 0.088847 0.414062 0.1796875 0.290331 0.2300773 0.448349 0.7005027 0.5 1.3828125 0.07292-1.2688028-0.08672-2.0552993-0.5-2.3828125-0.114629-0.09084-0.251437-0.1502742-0.414062-0.1796875-0.121972-0.022056-0.257892-0.026303-0.408204-0.013672-0.450939 0.037895-1.031827 0.2320042-1.757812 0.5859375-1.43973 0.7019125-2.847511 1.7384365-4.433594 3.265625-2.380015 2.291624-3.231012 3.603596-6.033203 9.306641-0.836952 1.699205-1.863598 3.780903-3.119141 5.585937-0.364862 0.251195-1.302734 0.25586-1.302734 0.255859 0 0-0.937871-0.0047-1.302734-0.255859-1.255542-1.805033-2.282189-3.886732-3.119141-5.585937-2.802191-5.703045-3.653188-7.015018-6.033203-9.306641-1.586083-1.5271885-2.993864-2.5637125-4.4335939-3.265625-0.7259842-0.3539333-1.3068741-0.5480425-1.7578125-0.5859375zm8.5742184 25.80664c-0.531086 2.921355-2.791842 4.573019-2.927734 7.175781 0 0.212093 0.02721 0.41273 0.04102 0.619141 0.339838-2.515877 2.615461-4.190644 2.958984-7.251953-0.0035-0.177413-0.03431-0.359367-0.07227-0.542969zm16.144532 0c-0.03795 0.183602-0.06873 0.365556-0.07227 0.542969 0.343522 3.061309 2.619145 4.736076 2.958984 7.251953 0.013812-0.206411 0.04102-0.407048 0.04102-0.619141-0.135892-2.602762-2.396648-4.254426-2.927734-7.175781z" style="fill:#ffffff;opacity:.2"/>
 </g>
</svg>
