<svg xmlns="http://www.w3.org/2000/svg" width="48" height="48" version="1.1">
 <circle style="opacity:0.2" cx="24" cy="25" r="20"/>
 <path style="fill:#bf00d2" d="M 22.182943,4.1302086 A 20,20 0 0 0 4.1269534,22.229167 c 0.005,2.598293 0.4988411,5.243446 1.5761718,7.841146 3.510815,8.46658 13.4093318,14.10657 22.4654948,10.154297 6.161786,-2.689607 10.2764,-10.040316 7.185547,-16.720704 v -6.66e-4 c -1.025368,-2.215133 -2.815564,-3.992582 -5.01237,-5 -2.196806,-1.007419 -4.911063,-1.190469 -7.360677,0.02279 -1.583403,0.783744 -2.829811,2.087229 -3.535807,3.705078 -0.706072,1.618021 -0.8069,3.671213 0.158854,5.472657 0.609693,1.137179 1.560429,2.0042 2.767578,2.498047 1.207148,0.493846 2.80538,0.536753 4.151692,-0.257813 0.832156,-0.491182 1.435299,-1.193904 1.783855,-2.121745 0.348556,-0.927841 0.347199,-2.233563 -0.341797,-3.274088 l -6.67e-4,-6.67e-4 v -6.67e-4 c -0.41847,-0.631099 -0.952096,-1.054371 -1.702474,-1.304687 -0.605243,-0.201901 -1.462437,-0.193624 -2.216146,0.15039 0.273926,-0.329909 0.592036,-0.628883 0.945964,-0.804036 h 6.66e-4 c 1.138925,-0.564091 2.291862,-0.500066 3.458985,0.03516 1.167122,0.535223 2.237608,1.595995 2.78776,2.784505 1.879973,4.064366 -0.814984,8.885056 -4.884765,10.661504 -6.446235,2.813257 -13.834195,-1.392674 -16.4641928,-7.735676 v -6.51e-4 C 5.9344551,18.794071 12.111106,8.1043342 21.42513,4.4121096 l 6.67e-4,-6.5e-4 h 6.67e-4 c 0.249913,-0.09924 0.502888,-0.1911661 0.75651,-0.28125 z m 1.346354,19.5488274 c -0.0013,0.001 -0.0019,0.0022 -0.0033,0.0033 -0.0014,0.0011 -0.0031,0.0015 -0.0046,0.0026 z M 24.082031,26 h 2.828776 c -0.0069,0.116507 0.02267,0.268589 -0.002,0.35612 -0.122679,0.436268 -0.282597,0.66065 -0.626302,0.923828 -0.453387,0.346656 -1.133111,0.369557 -1.454427,0.26237 -0.321993,-0.107413 -0.464342,-0.222416 -0.641927,-0.490235 l -6.67e-4,-0.0013 c -0.17858,-0.269692 -0.171473,-0.692275 -0.122396,-0.822916 0.04429,-0.117904 0.05488,-0.125989 0.136068,-0.173829 -0.009,-0.0032 -0.03248,-0.01618 -0.110677,-0.04818 -0.0021,-8.66e-4 -0.0044,-0.0049 -0.0065,-0.0059 z m 0.117188,0.05404 c 0.0093,0.0033 0.003,-0.0039 0.01953,-0.01367 -0.0108,0.0064 -0.01076,0.0085 -0.01953,0.01367 z"/>
 <path style="fill:#3724b4" d="M 24,4.0000002 A 20,20 0 0 0 18.895833,4.6946617 C 11.41473,8.1054838 6.3626772,16.382568 7.8632815,25.267578 9.2990048,33.766988 17.01922,40.493623 25.580729,38.810547 32.478747,37.456173 37.658703,30.578225 36.30664,23.122396 35.228583,17.178778 29.743814,12.431995 23.636719,13.725911 h -6.67e-4 c -4.842035,1.028463 -8.433395,5.875447 -7.402328,11.121094 v 6.67e-4 c 0.809089,4.108727 4.686686,7.440879 9.035807,6.433578 3.394232,-0.786345 5.868969,-4.198322 5.070313,-7.890625 v -6.67e-4 -6.66e-4 c -0.616683,-2.843299 -3.387363,-5.202188 -6.527344,-4.3945 -1.203568,0.309225 -2.234553,1.07162 -2.886719,2.086588 0.680622,-1.520464 2.071648,-2.700534 3.627604,-3.03125 3.369476,-0.713894 6.715427,2.070581 7.402995,5.861328 0.905751,4.994682 -2.731993,9.679246 -7.227213,10.561849 H 24.7285 C 18.894453,35.62049 13.292107,30.862994 12.222656,24.531901 10.864299,16.489127 16.674009,9.0333788 23.964844,7.6933595 33.122425,6.0096919 41.753117,13.441194 43.302733,23.210937 c 0.2687,1.694901 0.32178,3.369549 0.195963,5.003907 A 20,20 0 0 0 44,24 20,20 0 0 0 24,4.0000002 Z m 1.061849,19.2636718 c 0.361777,0.02462 0.818243,0.420235 0.957682,1.063151 0.03184,0.147705 -0.0053,0.290546 -0.0085,0.436849 -0.189973,0.299105 -0.472522,0.535936 -0.828776,0.65625 h -0.0013 c -0.216677,0.07302 -0.450561,0.07239 -0.667969,0.04297 v -1.882813 c 0.0065,0.0037 0.03225,0.0011 0.03711,0.0046 0.07519,0.05414 0.05768,0.04739 0.06576,0.08073 -0.03112,-0.130913 0.192523,-0.362077 0.296224,-0.388672 l 0.0013,-6.67e-4 h 6.66e-4 c 0.04663,-0.01199 0.0961,-0.01589 0.147787,-0.01237 z"/>
 <path style="fill:#3724b4" d="M 29.957031,5.777995 C 26.820042,5.696799 23.65683,6.3283449 20.705078,7.8222658 h -6.67e-4 c -3.423794,1.733897 -6.261544,4.6988352 -7.815755,8.2369792 -1.554211,3.538143 -1.757706,7.771797 0.354167,11.548177 v 6.67e-4 c 1.156103,2.066279 3.022968,3.746976 5.265625,4.654947 2.242657,0.907972 5.000917,0.96061 7.353516,-0.524739 v -6.67e-4 c 1.220238,-0.770524 2.172718,-1.914552 2.684895,-3.329427 0.512036,-1.414483 0.478222,-3.26446 -0.598958,-4.729818 -0.535084,-0.72943 -1.228627,-1.247927 -2.151042,-1.531901 -0.923059,-0.284172 -2.279024,-0.192986 -3.231119,0.658203 l -0.0026,0.002 -0.002,0.0013 c -0.460732,0.414169 -0.729875,0.834792 -0.886719,1.491537 -0.156843,0.656745 2.38e-4,1.821782 0.788412,2.490234 0.388834,0.330003 0.634422,0.443818 1.154296,0.520182 0.260123,0.03821 0.605848,0.05431 1.03711,-0.09766 0.01686,-0.0059 0.03378,-0.02329 0.05078,-0.02995 -0.203668,0.445749 -0.598079,0.9336 -0.978515,1.173828 v -6.66e-4 c -1.176044,0.742513 -2.399237,0.733954 -3.716797,0.200521 -1.317398,-0.533368 -2.58964,-1.673878 -3.276042,-2.900391 v -6.67e-4 C 15.280845,23.056513 15.398371,20.291418 16.550781,17.667969 17.7032,15.044501 19.957202,12.684773 22.511068,11.391276 28.598434,8.3103788 36.1913,9.9046018 41.460937,14.258464 A 20,20 0 0 0 32.804036,6.0475262 C 31.861839,5.89525 30.910831,5.8026826 29.957031,5.777995 Z M 23.728516,23.35612 c 0.116073,-0.0061 0.217207,0.0038 0.313151,0.01237 v 3.849609 l -0.454427,-0.05273 c -0.570996,-0.134388 -1.162542,-0.686705 -1.356771,-1.121745 -0.194229,-0.435041 -0.179443,-0.715288 -0.16862,-0.910156 0.0199,-0.358253 -0.0036,-0.415564 0.25,-0.836589 0.215846,-0.37892 0.63994,-0.725961 1.013021,-0.857422 0.156557,-0.05516 0.287572,-0.07723 0.403646,-0.08333 z m 2.080729,2.870443 -0.0625,0.10677 c 0.02611,-0.04179 0.01997,-0.04601 0.04167,-0.08203 0.0051,-0.0091 0.0159,-0.01563 0.02083,-0.02474 z"/>
 <path style="fill:#af1876" d="m 26.045573,10.419922 c -0.994885,-0.02361 -2.011034,0.06158 -3.03776,0.266927 -6.461066,1.290968 -11.459363,7.537194 -10.035808,14.352214 1.108392,5.309045 6.280918,9.415027 11.927735,8.18164 4.355887,-0.950661 7.729472,-5.226429 6.655599,-9.90039 -0.819855,-3.572217 -4.36293,-6.337697 -8.242839,-5.39974 -2.936799,0.710246 -5.217246,3.655822 -4.38737,6.89388 l 6.67e-4,6.67e-4 v 6.66e-4 c 0.62413,2.427961 3.095515,4.318046 5.824219,3.571615 0,0 6.66e-4,-6.67e-4 6.66e-4,-6.67e-4 0.419368,-0.114573 0.800546,-0.331234 1.166016,-0.566406 -0.559408,0.500309 -1.203909,0.916445 -1.959635,1.08138 -3.032918,0.662411 -6.019234,-1.705566 -6.658235,-4.766291 -0.87848,-4.205568 2.372842,-8.274424 6.575521,-9.113933 h 6.67e-4 c 5.614286,-1.122856 10.971078,3.182328 12.040364,8.739584 v 6.66e-4 C 37.313983,31.027757 31.757726,37.894647 24.585286,39.22396 15.375093,40.92927 6.7349922,33.909173 5.1132815,24.857422 v -6.67e-4 C 4.6425159,22.233039 4.7394441,19.504454 5.3580731,16.896484 A 20,20 0 0 0 4.0000002,24 20,20 0 0 0 22.435547,43.88802 c 0.975197,-0.03348 1.961068,-0.133617 2.955078,-0.317707 h 6.67e-4 C 34.841188,41.8189 42.15474,32.787288 40.25651,22.925781 38.93856,16.076171 33.009771,10.58519 26.045573,10.419922 Z M 23.33138,20.973958 c -0.0013,4e-4 -0.002,0.0016 -0.0033,0.002 -0.0015,5e-4 -0.003,1.48e-4 -0.0046,6.67e-4 z m 2.980469,2.226563 0.0039,0.0091 c -8.67e-4,-0.002 -0.0024,-0.0032 -0.0033,-0.0052 -5.67e-4,-0.0013 -7.9e-5,-0.0026 -6.67e-4,-0.0039 z m 1.367838,0.195963 0.0013,0.0033 c -2.19e-4,-7.33e-4 -0.0011,-0.0012 -0.0013,-0.002 -1.09e-4,-3.66e-4 1.1e-4,-9.33e-4 0,-0.0013 z m -4.132161,0.707683 h 1.982422 c -0.0302,0.218164 -0.09939,0.416346 -0.185547,0.554687 -0.173441,0.278506 -0.372587,0.431568 -0.679687,0.529297 -0.650813,0.205828 -1.102487,-0.129482 -1.22461,-0.542318 -0.09861,-0.337007 0.01472,-0.486996 0.145833,-0.522786 h -0.0013 l -0.0013,6.67e-4 c -0.0068,0.0019 -0.02639,-0.01797 -0.03581,-0.01953 z m -2.25,0.762369 c 2.7e-4,7.67e-4 10e-4,0.0012 0.0013,0.002 1.43e-4,4e-4 -1.43e-4,9e-4 0,0.0013 z m 3.570964,1.711589 -0.0085,0.0033 c 0.0017,-6.67e-4 0.0028,-0.0019 0.0046,-0.0026 0.0013,-5e-4 0.0026,-1.38e-4 0.0039,-6.67e-4 z"/>
 <path style="fill:#691bf9" d="M 26.558594,7.3385419 C 25.342703,7.3090319 24.101688,7.4124559 22.847656,7.6634115 14.985045,9.2356305 8.9030155,16.839874 10.628255,25.107422 v 6.67e-4 c 1.338679,6.412383 7.583439,11.372214 14.370443,9.889974 5.208102,-1.137097 9.23906,-6.251529 7.962891,-11.811198 v -6.67e-4 c -0.968238,-4.219568 -5.152124,-7.489274 -9.707032,-6.386719 -3.420165,0.827675 -6.073638,4.258524 -5.113281,8.001302 0.713677,2.781841 3.543118,4.944855 6.640625,4.096354 h 6.67e-4 6.66e-4 c 2.275117,-0.624995 4.057996,-2.980542 3.294891,-5.57552 v -6.67e-4 c -0.114078,-0.388631 -0.324142,-0.741262 -0.549479,-1.080078 0.519505,0.540858 0.951454,1.180514 1.124349,1.934245 v 6.66e-4 c 0.673882,2.934854 -1.623035,5.853942 -4.597005,6.503255 -4.171312,0.91099 -8.231262,-2.308904 -9.100912,-6.474609 -1.181005,-5.65951 3.156256,-11.085894 8.759766,-12.20638 7.431258,-1.487138 14.482566,4.183075 15.890626,11.505208 1.831287,9.523166 -5.417438,18.486712 -14.77409,20.222005 -0.516718,0.09574 -1.034196,0.170033 -1.552083,0.223306 A 20,20 0 0 0 24,44 20,20 0 0 0 44,24 20,20 0 0 0 43.953126,22.707031 c -0.0023,-0.01285 -0.004,-0.02556 -0.0065,-0.03841 C 42.332643,14.275708 35.06983,7.5451162 26.558594,7.3385419 Z"/>
 <path style="opacity:0.1;fill:#ffffff" d="M 24 4 A 20 20 0 0 0 4 24 A 20 20 0 0 0 4.0351562 24.5 A 20 20 0 0 1 24 5 A 20 20 0 0 1 43.982422 24.25 A 20 20 0 0 0 44 24 A 20 20 0 0 0 24 4 z"/>
</svg>
