<svg xmlns="http://www.w3.org/2000/svg" width="48" height="48" version="1.1">
 <rect style="fill:#5f5f5f" width="39" height="39" x="-43.5" y="-43.5" rx="19.5" ry="19.5" transform="matrix(0,-1,-1,0,0,0)"/>
 <path style="fill:#f9e1b5" d="M 24 4 L 24 44 A 20 20 0 0 0 28 43.574219 L 28 4.40625 A 20 20 0 0 0 24 4 z M 20 4.4257812 A 20 20 0 0 0 16 5.6953125 L 16 42.320312 A 20 20 0 0 0 20 43.59375 L 20 4.4257812 z M 32 5.6796875 L 32 42.304688 A 20 20 0 0 0 36 39.974609 L 36 8.03125 A 20 20 0 0 0 32 5.6796875 z M 12 8.0253906 A 20 20 0 0 0 8 12.041016 L 8 35.964844 A 20 20 0 0 0 12 39.96875 L 12 8.0253906 z M 40 12.035156 L 40 35.958984 A 20 20 0 0 0 44 24 A 20 20 0 0 0 40 12.035156 z"/>
 <path style="opacity:0.2" d="M 4.0116,24.5 C 4.0076,24.668 4,24.832 4,25 4,36.08 12.92,45 24,45 35.08,45 44,36.08 44,25 44,24.832 43.992,24.667 43.988,24.5 43.724,35.346 34.912,44 24,44 13.088,44 4.276,35.346 4.012,24.5 Z"/>
 <path style="fill:#b42223" d="M 24 4 A 20 20 0 0 0 20 4.4257812 L 20 43.59375 A 20 20 0 0 0 24 44 L 24 4 z M 28 4.40625 L 28 43.574219 A 20 20 0 0 0 32 42.304688 L 32 5.6796875 A 20 20 0 0 0 28 4.40625 z M 16 5.6953125 A 20 20 0 0 0 12 8.0253906 L 12 39.96875 A 20 20 0 0 0 16 42.320312 L 16 5.6953125 z M 36 8.03125 L 36 39.974609 A 20 20 0 0 0 40 35.958984 L 40 12.035156 A 20 20 0 0 0 36 8.03125 z M 8 12.041016 A 20 20 0 0 0 4 24 A 20 20 0 0 0 8 35.964844 L 8 12.041016 z"/>
 <path style="opacity:0.2;fill:#ffffff" d="M 24,4 C 12.921,4 4.002,12.92 4.002,24 c 0,0.16772 -0.004,0.33328 0,0.5 C 4.2662,13.654 13.089,5 24,5 c 10.911,0 19.734,8.6536 19.998,19.5 0.004,-0.1667 0,-0.33228 0,-0.5 C 43.998,12.92 35.08,4 24,4 Z"/>
 <path style="opacity:0.1" d="m 10.838692,16 -2.5346274,2.323892 c 0,0 1.4722095,2.461368 1.5091672,3.835392 0.042903,1.594056 -1.5091672,4.53897 -1.5091672,4.53897 -2.6372709,8.968014 12.6865724,5.090984 14.9086084,8.937819 L 24,37 24.787327,35.636073 c 2.222036,-3.846835 17.545879,0.03019 14.908608,-8.937819 0,0 -1.552069,-2.944914 -1.509166,-4.53897 0.03696,-1.374024 1.509166,-3.835392 1.509166,-3.835392 L 37.161308,16 24,16.02832 Z"/>
 <path style="fill:#0b5f8a" d="m 10.838692,15 -2.5346274,2.323892 c 0,0 1.4722095,2.461368 1.5091672,3.835392 0.042903,1.594056 -1.5091672,4.53897 -1.5091672,4.53897 -2.6372709,8.968014 12.6865724,5.090984 14.9086084,8.937819 L 24,36 24.787327,34.636073 c 2.222036,-3.846835 17.545879,0.03019 14.908608,-8.937819 0,0 -1.552069,-2.944914 -1.509166,-4.53897 0.03696,-1.374024 1.509166,-3.835392 1.509166,-3.835392 L 37.161308,15 24,15.02832 Z"/>
 <path style="opacity:0.2" d="M 24,18 26.163119,22.608515 31,23.347524 27.499999,26.934752 28.326237,32 23.999999,29.608515 19.673762,32 20.5,26.934751 17,23.347524 21.836881,22.608515 Z"/>
 <path style="fill:#faa600" d="M 24,17 26.163119,21.608515 31,22.347524 27.499999,25.934752 28.326237,31 23.999999,28.608515 19.673762,31 20.5,25.934751 17,22.347524 21.836881,21.608515 Z"/>
 <path style="opacity:0.2;fill:#ffffff" d="M 24 17 L 21.835938 21.609375 L 17 22.347656 L 17.849609 23.21875 L 21.835938 22.609375 L 24 18 L 26.164062 22.609375 L 30.150391 23.21875 L 31 22.347656 L 26.164062 21.609375 L 24 17 z M 20.359375 26.792969 L 19.673828 31 L 19.853516 30.900391 L 20.5 26.935547 L 20.359375 26.792969 z M 27.640625 26.792969 L 27.5 26.935547 L 28.146484 30.900391 L 28.326172 31 L 27.640625 26.792969 z"/>
</svg>
