<svg xmlns="http://www.w3.org/2000/svg" height="48" width="48" version="1.1">
 <g transform="matrix(2,0,0,2,2,2)">
  <circle style="opacity:.2" cx="11" r="10" cy="11.5"/>
  <circle style="fill:#ffc129" cx="11" r="10" cy="11"/>
  <path style="opacity:.2;fill:#ffffff" d="m11 1a10 10 0 0 0 -10 10 10 10 0 0 0 0.0098 0.293 10 10 0 0 1 9.9902 -9.793 10 10 0 0 1 9.99 9.707 10 10 0 0 0 0.01 -0.207 10 10 0 0 0 -10 -10z"/>
  <path style="opacity:.2" d="m3.9082032 4.5a10 10 0 0 0 -2.4082032 4h0.5371094v12h2v-12h16.527344a10 10 0 0 0 -2.388672 -4z"/>
  <path style="fill:#f13c3c" d="m3.8710938 4a10 10 0 0 0 -2.4082032 4h0.5371094v12h2v-12h16.527344a10 10 0 0 0 -2.388672 -4z"/>
  <path style="opacity:.2;fill:#ffffff" d="m3.8710938 4a10 10 0 0 0 -2.4082032 4h0.2148438a10 10 0 0 1 2.2304687 -3.5h14.267578a10 10 0 0 1 2.205078 3.5h0.146485a10 10 0 0 0 -2.388672 -4zm-1.8710938 4.5v11.5h0.037109v-11.5z"/>
  <path style="opacity:.1" d="m6 9.5v1l4 1v-1zm10 0-4 1v1l4-1zm-8 2a2 2 0 0 0 -2 2 2 2 0 0 0 2 2 2 2 0 0 0 2 -2 2 2 0 0 0 -2 -2zm6 0a2 2 0 0 0 -2 2 2 2 0 0 0 2 2 2 2 0 0 0 2 -2 2 2 0 0 0 -2 -2z"/>
  <path style="fill:#3f3f3f" d="m6 9v1l4 1v-1zm10 0-4 1v1l4-1zm-8 2a2 2 0 0 0 -2 2 2 2 0 0 0 2 2 2 2 0 0 0 2 -2 2 2 0 0 0 -2 -2zm6 0a2 2 0 0 0 -2 2 2 2 0 0 0 2 2 2 2 0 0 0 2 -2 2 2 0 0 0 -2 -2z"/>
 </g>
 <circle style="opacity:.2" cx="36.000301" r="11" cy="36"/>
 <circle style="fill:#c03630" cx="36.000301" r="11" cy="35"/>
 <path style="fill-rule:evenodd;fill:#ffffff" d="m36.0003 30.000001s-0.70875-0.014-1.44727 0.3555c-0.73851 0.3692-1.55273 1.3112-1.55273 2.6445h2c0-1 1-1 1-1s1 0 1 1c0 0.5278-0.1396 0.8229-0.40625 1.1562-0.26665 0.3334-0.69336 0.668-1.19336 1.043s-1.07329 0.7904-1.55664 1.3946c-0.48335 0.6041-0.84375 1.434-0.84375 2.4062v0.999999h6v-1.999999h-3.64844c0.0313-0.044 0.0187-0.1112 0.0547-0.1562 0.26665-0.3334 0.69336-0.668 1.19336-1.043s1.07329-0.7904 1.55664-1.3946c0.48335-0.6041 0.84375-1.434 0.84375-2.4062 0-1.3333-0.81422-2.2753-1.55273-2.6445-0.73853-0.3693-1.44728-0.3555-1.44728-0.3555z"/>
</svg>
