<svg xmlns="http://www.w3.org/2000/svg" width="48" height="48" version="1">
 <rect style="opacity:0.2" width="40" height="40" x="4" y="5" rx="2" ry="2"/>
 <rect style="fill:#783535" width="40" height="40" x="4" y="4" rx="2" ry="2"/>
 <path style="opacity:0.2" d="m 13.017834,11 c -0.136458,1.59829 0.556681,5.59979 0.499012,6.13341 0.04161,0.73018 0.707532,0.92478 0.707532,0.92478 l 0.818748,0.0184 C 15.283296,16.94481 15.629646,16.39058 16.279658,16 H 20 V 36.072755 L 18.004682,36.024255 17.939592,34.02545 16.56696,33.99455 16,39 l 12.574537,1.5e-5 1.405547,-1.35997 C 29.034891,37.325265 27.400356,37.044035 27,35.188415 V 14 h 6.309958 c 0.213565,0.22349 -0.971171,1.36631 -0.76095,1.56622 0.940734,0.8946 1.640407,1.51229 2.450994,1.49156 v -6.057795 z"/>
 <path style="fill:#f1e9de" d="m 13.017834,10 c -0.136458,1.59829 0.556681,5.59979 0.499012,6.13341 0.04161,0.73018 0.707532,0.92478 0.707532,0.92478 l 0.818748,0.0184 C 15.283296,15.94481 15.629646,15.39058 16.279658,15 H 20 V 35.072755 L 18.004682,35.024255 17.939592,33.02545 16.56696,32.99455 16,38 l 12.574537,1.5e-5 1.405547,-1.35997 C 29.034891,36.325265 27.400356,36.044035 27,34.188415 V 13 h 6.309958 c 0.213565,0.22349 -0.971171,1.36631 -0.76095,1.56622 0.940734,0.8946 1.640407,1.51229 2.450994,1.49156 V 9.999985 Z"/>
 <path style="fill:#ffffff;opacity:0.1" d="M 6 4 C 4.892 4 4 4.892 4 6 L 4 7 C 4 5.892 4.892 5 6 5 L 42 5 C 43.108 5 44 5.892 44 7 L 44 6 C 44 4.892 43.108 4 42 4 L 6 4 z"/>
</svg>
