<svg xmlns="http://www.w3.org/2000/svg" width="48" height="48" version="1.1">
 <rect style="opacity:0.2" width="38" height="38" x="3" y="5" rx="19" ry="19"/>
 <rect style="fill:#ff9101" width="38" height="38" x="3" y="4" rx="19" ry="19"/>
 <rect style="opacity:0.2" width="30" height="30" x="7" y="9" rx="15"/>
 <rect style="fill:#ffde6e" width="30" height="30" x="7" y="8" rx="15"/>
 <path style="opacity:0.2" d="M 26.5,16 A 11.5,11.5 0 0 0 15,27.5 11.5,11.5 0 0 0 15.292969,30.015625 7,7 0 0 0 15,30 7,7 0 0 0 8,37 7,7 0 0 0 14.5,43.982422 V 44 H 15 36.5 37 v -0.02539 A 9.5,9.5 0 0 0 46,34.5 9.5,9.5 0 0 0 37.730469,25.089844 11.5,11.5 0 0 0 26.5,16 Z"/>
 <path style="fill:#ffffff" d="M 26.5 15 A 11.5 11.5 0 0 0 15 26.5 A 11.5 11.5 0 0 0 15.292969 29.015625 A 7 7 0 0 0 15 29 A 7 7 0 0 0 8 36 A 7 7 0 0 0 14.5 42.982422 L 14.5 43 L 15 43 L 36.5 43 L 37 43 L 37 42.974609 A 9.5 9.5 0 0 0 46 33.5 A 9.5 9.5 0 0 0 37.730469 24.089844 A 11.5 11.5 0 0 0 26.5 15 z"/>
 <path style="fill:#ffffff;opacity:0.2" d="M 22 4 C 11.474 4 3 12.474006 3 23 C 3 23.168928 3.0210521 23.332156 3.0253906 23.5 C 3.2913905 13.209368 11.642928 5 22 5 C 32.357072 5 40.708609 13.209368 40.974609 23.5 C 40.978948 23.332156 41 23.168928 41 23 C 41 12.474006 32.526 4 22 4 z"/>
 <path style="fill:#ffffff;opacity:0.2" d="M 22 8 C 13.69 8 7 14.69 7 23 C 7 23.168945 7.019903 23.332437 7.0253906 23.5 C 7.2898272 15.425529 13.858945 9 22 9 C 30.141055 9 36.710173 15.425529 36.974609 23.5 C 36.980097 23.332437 37 23.168945 37 23 C 37 14.69 30.31 8 22 8 z"/>
 <path style="opacity:0.2;fill:#ffffff" d="M 26.5 15 A 11.5 11.5 0 0 0 15 26.5 A 11.5 11.5 0 0 0 15.021484 26.890625 A 11.5 11.5 0 0 1 26.5 16 A 11.5 11.5 0 0 1 37.730469 25.089844 A 9.5 9.5 0 0 1 45.974609 34.005859 A 9.5 9.5 0 0 0 46 33.5 A 9.5 9.5 0 0 0 37.730469 24.089844 A 11.5 11.5 0 0 0 26.5 15 z M 15 29 A 7 7 0 0 0 8 36 A 7 7 0 0 0 8.0234375 36.458984 A 7 7 0 0 1 15 30 A 7 7 0 0 1 15.292969 30.015625 A 11.5 11.5 0 0 1 15.121094 29.005859 A 7 7 0 0 0 15 29 z"/>
</svg>
