<svg xmlns="http://www.w3.org/2000/svg" width="48" height="48" version="1">
 <path fill="#4f4f4f" d="m9 4c-1.108 0-2 0.892-2 2v36c0 1.108 0.892 2 2 2h3.9785l3-20-3-20z"/>
 <g transform="translate(.021481)">
  <rect fill="#4bae4f" width="14" height="12" x="26.98" y="8" ry="1"/>
  <rect fill="#2095f2" width="14" height="12" x="26.98" y="18" ry="1"/>
  <rect fill="#fec006" width="14" height="12" x="26.98" y="28" ry="1"/>
  <path fill="#fff" opacity=".2" d="m27.979 28c-0.554 0-1 0.446-1 1v1c0-0.554 0.446-1 1-1h12c0.554 0 1 0.446 1 1v-1c0-0.554-0.446-1-1-1h-12z"/>
  <path fill="#fff" opacity=".2" d="m27.979 18c-0.554 0-1 0.446-1 1v1c0-0.554 0.446-1 1-1h12c0.554 0 1 0.446 1 1v-1c0-0.554-0.446-1-1-1h-12z"/>
  <path fill="#fff" opacity=".2" d="m27.979 8c-0.554 0-1 0.446-1 1v1c0-0.554 0.446-1 1-1h12c0.554 0 1 0.446 1 1v-1c0-0.554-0.446-1-1-1h-12z"/>
 </g>
 <path fill="#f34235" d="m12.979 4v40h24.021c1.108 0 2-0.892 2-2v-36c0-1.108-0.892-2-2-2h-14.021z"/>
 <path fill="#fff" opacity=".2" d="m9 4c-1.108 0-2 0.892-2 2v1c0-1.108 0.892-2 2-2h28c1.108 0 2 0.892 2 2v-1c0-1.108-0.892-2-2-2h-14.021z"/>
 <path opacity=".2" d="m18 16v18h5.333c9.334 0 9.667-5.667 9.667-9s-0.335-9.165-9.667-9zm5.3333 4c4 0 5.3333 1 5.3333 5s-1.3333 5-5.3333 5h-1.333v-10z"/>
 <path fill="#f9f9f9" d="m18 15v18h5.333c9.334 0 9.667-5.667 9.667-9s-0.335-9.165-9.667-9zm5.3333 4c4 0 5.3333 1 5.3333 5s-1.3333 5-5.3333 5h-1.333v-10z"/>
 <path opacity=".2" d="m7 42v1c0 1.108 0.892 2 2 2h28c1.108 0 2-0.892 2-2v-1c0 1.108-0.892 2-2 2h-28c-1.108 0-2-0.892-2-2z"/>
</svg>
