<svg xmlns="http://www.w3.org/2000/svg" width="48" height="48" version="1">
 <g style="fill:#8e8e8e">
  <rect width="2" height="32" x="27" y="-40" transform="rotate(90)"/>
  <rect width="2" height="32" x="23" y="-40" transform="rotate(90)"/>
  <rect width="2" height="32" x="19" y="-40" transform="rotate(90)"/>
  <rect width="2" height="32" x="15" y="-40" transform="rotate(90)"/>
  <rect width="2" height="32" x="31" y="-40" transform="rotate(90)"/>
  <rect width="2" height="32" x="35" y="-40" transform="rotate(90)"/>
  <rect width="2" height="32" x="39" y="-40" transform="rotate(90)"/>
  <rect width="2" height="32" x="11" y="-40" transform="rotate(90)"/>
  <rect width="2" height="32" x="7" y="-40" transform="rotate(90)"/>
  <rect width="2" height="40" x="23" y="4"/>
  <rect width="2" height="40" x="19" y="4"/>
  <rect width="2" height="40" x="15" y="4"/>
  <rect width="2" height="40" x="11" y="4"/>
  <rect width="2" height="40" x="27" y="4"/>
  <rect width="2" height="40" x="31" y="4"/>
  <rect width="2" height="40" x="35" y="4"/>
 </g>
 <rect style="opacity:0.2" width="28" height="36" x="10" y="7" rx="2" ry="2"/>
 <rect style="fill:#4f4f4f" width="28" height="36" x="10" y="6" rx="2" ry="2"/>
 <path style="opacity:0.1;fill:#ffffff" d="M 12,6 C 10.892,6 10,6.892 10,8 V 9 C 10,7.892 10.892,7 12,7 H 36 C 37.108,7 38,7.892 38,9 V 8 C 38,6.892 37.108,6 36,6 Z"/>
 <g style="opacity:0.4;fill:#ffffff">
  <rect width="2" height="4" x="17" y="11"/>
  <rect width="2" height="4" x="17" y="17"/>
  <rect width="2" height="8" x="17" y="23"/>
  <rect width="2" height="11" x="23" y="11"/>
  <rect width="2" height="9" x="29" y="11"/>
  <rect width="2" height="11" x="23" y="24"/>
  <rect width="2" height="4" x="29" y="22"/>
  <rect width="2" height="9" x="29" y="28"/>
 </g>
 <circle style="opacity:0.2" cx="36" cy="37" r="11"/>
 <circle style="fill:#aa52ce" cx="36" cy="36" r="11"/>
 <path style="fill:#ffffff" d="m 30,36 c 0,3.3137 2.6863,6 6,6 3.2801,0 5.9403,-2.6332 5.9941,-5.9004 a 1,1 0 0 0 0.006,-0.09961 1,1 0 0 0 -1,-1 1,1 0 0 0 -1,1 c 0,2.2091 -1.7909,4 -4,4 -2.2091,0 -4,-1.7909 -4,-4 0,-2.2091 1.7909,-4 4,-4 v 2 l 4,-3 -4,-3 v 2 c -3.3137,0 -6,2.6863 -6,6 z"/>
</svg>
