<svg xmlns="http://www.w3.org/2000/svg" height="48" width="48" version="1.1">
 <g transform="matrix(2,0,0,2,2,2)">
  <rect style="opacity:.2" rx="1" ry="1" height="20" width="12" y="1.5" x="5"/>
  <rect style="fill:#3f3f3f" rx="1" ry="1" height="20" width="12" y="1" x="5"/>
  <circle r="4" style="opacity:.2" cx="11" cy="16.5"/>
  <circle r="4" style="fill:#4f4f4f" cx="11" cy="16"/>
  <circle r="3" style="fill:#0f92db" cx="11" cy="16"/>
  <circle r="2" style="fill:#4f4f4f" cx="11" cy="16"/>
  <rect style="fill:#0f92db" rx="1" ry="1" height="9" width="10" y="2" x="6"/>
  <path style="opacity:.2;fill:#ffffff" d="m11 12a4 4 0 0 0 -4 4 4 4 0 0 0 0.00977 0.283203 4 4 0 0 1 3.99023 -3.783203 4 4 0 0 1 3.990234 3.710938 4 4 0 0 0 0.009766 -0.210938 4 4 0 0 0 -4 -4z"/>
  <path style="opacity:.1;fill:#ffffff" d="m6 1c-0.554 0-1 0.446-1 1v0.5c0-0.554 0.446-1 1-1h10c0.554 0 1 0.446 1 1v-0.5c0-0.554-0.446-1-1-1z"/>
  <path style="opacity:.2" d="m7 2c-0.554 0-1 0.446-1 1v0.5c0-0.554 0.446-1 1-1h8c0.554 0 1 0.446 1 1v-0.5c0-0.554-0.446-1-1-1z"/>
 </g>
</svg>
