<svg xmlns="http://www.w3.org/2000/svg" width="48" height="48" version="1.1">
 <defs>
  <linearGradient id="linearGradient4282" x1="409.57" x2="409.57" y1="540.8" y2="506.8" gradientTransform="matrix(0.11765,0,0,0.11765,-24.07,-85.62)" gradientUnits="userSpaceOnUse">
   <stop offset="0" stop-color="#2a2c2f"/>
   <stop offset="1" stop-color="#424649"/>
  </linearGradient>
 </defs>
 <rect style="fill:#4f4f4f" width="40" height="40" x="4" y="4" ry="20"/>
 <path style="opacity:0.1;fill:#ffffff" d="M 12.89,7.35 C 7.5226,10.929 3.9974,17.036 3.9974,23.998 l 16,0 c 0,-1.621 0.96933,-3.0084 2.3555,-3.6367 l -9.462,-13.012 z"/>
 <path style="opacity:0.1;fill:#ffffff" d="m 35.06,40.6 c 5.3674,-3.5793 8.8926,-9.6857 8.8926,-16.648 l -16,0 c 0,1.621 -0.96933,3.0084 -2.3555,3.6367 l 9.4629,13.012 z"/>
 <rect style="fill:#fe774b" width="14" height="14" x="17" y="17" ry="7"/>
 <rect style="fill:url(#linearGradient4282)" width="4" height="4" x="22" y="-26" ry="2" transform="scale(1,-1)"/>
 <path style="opacity:0.5;fill:#ffffff" d="m 24,18 c -3.324,0 -6,2.676 -6,6 0,3.324 2.676,6 6,6 3.324,0 6,-2.676 6,-6 0,-3.324 -2.676,-6 -6,-6 z m 0,1 c 2.77,0 5,2.23 5,5 0,2.77 -2.23,5 -5,5 -2.77,0 -5,-2.23 -5,-5 0,-2.77 2.23,-5 5,-5 z"/>
 <path style="opacity:0.1;fill:#ffffff" d="m 24,4 c 11.07,0 19.982,8.92 19.982,20 0,0.16787 -0.008,0.33314 -0.0117,0.5 C 43.7063,13.654 34.9023,5 24.0003,5 13.0983,5 4.2943,13.654 4.0303,24.5 4.0269,24.333 4.0192,24.168 4.0192,24 4.0192,12.92 12.931,4 24.0012,4 Z"/>
 <path style="opacity:0.2" d="M 4.0117,24.5 C 4.0077,24.667 4,24.832 4,25 4,36.08 12.92,45 24,45 35.08,45 44,36.08 44,25 44,24.832 43.992,24.667 43.988,24.5 43.724,35.347 34.912,44 24,44 13.088,44 4.276,35.347 4.012,24.5 Z"/>
</svg>
