<svg xmlns="http://www.w3.org/2000/svg" width="48" height="48" version="1.1">
 <path style="opacity:0.2" d="M 5.4277344,7 C 4.6387561,7.0000002 3.9999997,7.6441699 4,8.4394531 V 41.560547 C 4.0000003,42.35583 4.6387566,43 5.4277344,43 h 4.1875 C 10.404212,43 11,42.35583 11,41.560547 V 14 h 1.572266 c 0.788978,0 1.778279,-0.02989 2.546875,0.142578 1.485871,0.33343 2.393824,1.250302 2.724609,2.748047 C 18.014856,17.665362 18,18.964483 18,19.759766 V 41.560547 C 18,42.35583 18.625085,43 19.414062,43 h 4.185547 C 24.388587,43 25,42.35583 25,41.560547 V 37 H 30.759766 31 v 4.560547 C 31,42.35583 31.681725,43 32.470703,43 h 4.085938 C 37.345619,43 38.002709,42.355825 38,41.560547 V 37 h 4.580078 C 43.375361,37 44,36.345619 44,35.556641 V 31.470703 C 44,30.681724 43.375362,30 42.580078,30 H 38 V 25.419922 C 38,24.624639 37.345619,24 36.556641,24 H 32.470703 C 31.681724,24 31,24.624638 31,25.419922 V 30 H 30.759766 25 V 19.960938 c 0,-0.795284 0.03721,-2.088044 -0.05859,-2.876954 C 24.36384,12.325883 20.983848,7.8996157 16.449219,7.1210938 15.672366,6.9877204 14.788978,7 14,7 Z"/>
 <path style="fill:#ffa834" d="M 5.4277344 6 C 4.6387561 6.0000002 3.9999997 6.6441699 4 7.4394531 L 4 40.560547 C 4.0000003 41.35583 4.6387566 42 5.4277344 42 L 9.6152344 42 C 10.404212 42 11 41.35583 11 40.560547 L 11 13 L 12.572266 13 C 13.361244 13 14.350545 12.97011 15.119141 13.142578 C 16.605012 13.476008 17.512965 14.39288 17.84375 15.890625 C 18.014856 16.665362 18 17.964483 18 18.759766 L 18 40.560547 C 18 41.35583 18.625085 42 19.414062 42 L 23.599609 42 C 24.388587 42 25 41.35583 25 40.560547 L 25 36 L 30.759766 36 L 31 36 L 31 40.560547 C 31 41.35583 31.681725 42 32.470703 42 L 36.556641 42 C 37.345619 42 38.002709 41.355825 38 40.560547 L 38 36 L 42.580078 36 C 43.375361 36 44 35.345619 44 34.556641 L 44 30.470703 C 44 29.681724 43.375362 29 42.580078 29 L 38 29 L 38 24.419922 C 38 23.624639 37.345619 23 36.556641 23 L 32.470703 23 C 31.681724 23 31 23.624638 31 24.419922 L 31 29 L 30.759766 29 L 25 29 L 25 18.960938 C 25 18.165654 25.037206 16.872894 24.941406 16.083984 C 24.36384 11.325883 20.983848 6.8996157 16.449219 6.1210938 C 15.672366 5.9877204 14.788978 6 14 6 L 5.4277344 6 z"/>
 <path style="fill:#ffffff;opacity:0.2" d="M 5.4277344 6 C 4.6387561 6.0000002 3.9999997 6.6441699 4 7.4394531 L 4 8.4394531 C 3.9999997 7.6441699 4.6387561 7.0000002 5.4277344 7 L 14 7 C 14.788978 7 15.672366 6.9877204 16.449219 7.1210938 C 20.983848 7.8996157 24.363836 12.325883 24.941406 17.083984 C 24.984113 17.43567 24.997032 17.89028 25.001953 18.353516 C 25.008364 17.595421 25.017021 16.706668 24.941406 16.083984 C 24.36384 11.325883 20.983848 6.8996157 16.449219 6.1210938 C 15.672366 5.9877204 14.788978 6 14 6 L 5.4277344 6 z M 32.470703 23 C 31.681724 23 31 23.624638 31 24.419922 L 31 25.419922 C 31 24.624638 31.681724 24 32.470703 24 L 36.556641 24 C 37.345619 24 38 24.624639 38 25.419922 L 38 24.419922 C 38 23.624639 37.345619 23 36.556641 23 L 32.470703 23 z M 25 29 L 25 30 L 30.759766 30 L 31 30 L 31 29 L 30.759766 29 L 25 29 z M 38 29 L 38 30 L 42.580078 30 C 43.375362 30 44 30.681724 44 31.470703 L 44 30.470703 C 44 29.681724 43.375362 29 42.580078 29 L 38 29 z"/>
</svg>
