<svg xmlns="http://www.w3.org/2000/svg" width="48" height="48" version="1.1">
 <path style="opacity:0.2" d="M 5.9999992,42.42857 V 9 H 32.590907 c 3.525089,0.954625 3.19751,2.097636 3.409092,3.214285 V 42.42857 C 35.373421,44.72438 33.609898,44.80098 31.909089,45 H 9.4090908 C 8.0083971,44.9367 6.434723,44.38261 5.9999992,42.42857 Z"/>
 <path style="fill:#229460" d="M 5.9999992,41.42857 V 8 H 32.590907 c 3.525089,0.954625 3.19751,2.097636 3.409092,3.214285 V 41.42857 C 35.373421,43.72438 33.609898,43.80098 31.909089,44 H 9.4090908 C 8.0083971,43.9367 6.434723,43.38261 5.9999992,41.42857 Z"/>
 <path style="opacity:0.2" d="M 12,7.642528 V 41.99967 H 38.59091 C 42.115998,41.01853 41.788418,39.84377 42,38.6961 V 7.642528 C 41.373423,5.282945 39.6099,5.204217 37.909091,4.99967 H 15.40909 C 14.008397,5.064783 12.434724,5.634216 12,7.642528 Z"/>
 <path style="fill:#e4e4e4" d="M 12,6.642858 V 41 H 38.59091 C 42.115998,40.01886 41.788418,38.8441 42,37.69643 V 6.642858 C 41.373423,4.283275 39.6099,4.204547 37.909091,4 H 15.40909 C 14.008397,4.065113 12.434724,4.634546 12,6.642858 Z"/>
 <path style="opacity:0.2" d="M 11.999999,7.666336 V 42.333 C 11.999999,41.03148 11,39.99967 9,39.99967 c -2,0 -3.0000008,0.96819 -3.0000008,2.33333 V 7.666336 c 0,-2.666667 3.0000004,-2.666667 3.0000004,-2.666667 0,0 2.9999994,0 2.9999994,2.666667 z"/>
 <path style="fill:#2ec27e" d="M 11.999999,6.666666 V 41.33333 C 11.999999,40.03181 11,39 9,39 7,39 5.9999992,39.96819 5.9999992,41.33333 V 6.666666 c 0,-2.666667 3.0000004,-2.666667 3.0000004,-2.666667 0,0 2.9999994,0 2.9999994,2.666667 z"/>
 <path style="opacity:0.2;fill:#ffffff" d="M 15.408203,4 C 14.00751,4.065113 12.434724,4.6342661 12,6.6425781 v 1 C 12.434724,5.6342661 14.00751,5.065113 15.408203,5 h 22.5 C 39.609012,5.204547 41.373423,5.2829951 42,7.6425781 v -1 C 41.373423,4.2829951 39.609012,4.204547 37.908203,4 Z"/>
 <path style="opacity:0.2;fill:#ffffff" d="M 9,4 C 9,4 6,3.9993486 6,6.6660156 v 1 C 6,4.9993486 9,5 9,5 c 0,0 3,-6.514e-4 3,2.6660156 v -1 C 12,3.9993486 9,4 9,4 Z"/>
 <path style="opacity:0.1" d="m 23.808378,12.999998 -5.41929,12.943603 C 17.291423,28.581901 16.408962,29.534737 15,29.68154 v 1.318458 h 7 V 29.68154 c -1.694543,-0.09833 -2.464524,-0.562284 -2.464524,-1.685466 0,-0.415481 0.09475,-0.806032 0.357315,-1.39186 L 20.176,26 h 6.042907 l 0.906823,2.069476 c 0.262573,0.684157 0.286936,0.806032 0.286936,1.001307 0,0.439025 -0.03435,0.585828 -1.084645,0.585828 L 26,29.681541 V 31 h 8 v -1.318458 c -1.360237,-0.04986 -1.741915,-0.293606 -2.244052,-1.538664 L 25.622026,12.999998 Z M 23.306241,18.201814 25.622026,24 h -4.726314 z"/>
 <path style="fill:#4c4759" d="m 23.808378,11.999998 -5.41929,12.943603 C 17.291423,27.581901 16.408962,28.534737 15,28.68154 v 1.318458 h 7 V 28.68154 c -1.694543,-0.09833 -2.464524,-0.562284 -2.464524,-1.685466 0,-0.415481 0.09475,-0.806032 0.357315,-1.39186 L 20.176,25 h 6.042907 l 0.906823,2.069476 c 0.262573,0.684157 0.286936,0.806032 0.286936,1.001307 0,0.439025 -0.03435,0.585828 -1.084645,0.585828 L 26,28.681541 V 30 h 8 v -1.318458 c -1.360237,-0.04986 -1.741915,-0.293606 -2.244052,-1.538664 L 25.622026,11.999998 Z M 23.306241,17.201814 25.622026,23 h -4.726314 z"/>
 <path style="opacity:0.1" d="m 32,23 h 4 v 6 h 3 l -5,5 -5,-5 h 3 z"/>
 <path style="fill:#2ec27e" d="m 32,22 h 4 v 6 h 3 l -5,5 -5,-5 h 3 z"/>
</svg>
