<svg xmlns="http://www.w3.org/2000/svg" width="48" height="48" version="1">
 <rect fill="#02a8f3" width="40" height="40" x="4" y="4" rx="20" ry="20"/>
 <path fill="#fff" opacity=".2" d="m24 4c-11.08 0-20 8.92-20 20 0 0.168 0.0076 0.333 0.0117 0.5 0.2647-10.846 9.0763-19.5 19.988-19.5s19.724 8.654 19.988 19.5c0.004-0.167 0.012-0.332 0.012-0.5 0-11.08-8.92-20-20-20z"/>
 <path opacity=".2" d="m4.0117 24.5c-0.0041 0.167-0.0117 0.332-0.0117 0.5 0 11.08 8.92 20 20 20s20-8.92 20-20c0-0.16787-0.0076-0.33314-0.01172-0.5-0.264 10.846-9.076 19.5-19.988 19.5s-19.724-8.654-19.988-19.5z"/>
 <path opacity=".2" d="m12 15c0 1 1 2 2 2 9.9411-0.00001 18 8.0589 18 18 0 1 0.90694 2 2 2 1 0 2-1 2-2 0-12.15-9.8497-22-22-22-1 0-2 1-2 2zm0 8c0 1 1 2 2 2 5.5229-0.000006 10 4.4771 10 10 0 1 1 2 2 2s2-1 2-2c0-7.732-6.268-14-14-14-1 0-2 1-2 2zm4 6c-2.2091 0-4 1.7909-4 4 0 2.209 1.791 4 4 4 2.2091 0 4-1.7909 4-4s-1.7909-4-4-4z"/>
 <path fill="#fff" d="m12 14c0 1 1 2 2 2 9.9411-0.00001 18 8.0589 18 18 0 1 0.90694 2 2 2 1 0 2-1 2-2 0-12.15-9.8497-22-22-22-1 0-2 1-2 2zm0 8c0 1 1 2 2 2 5.5229-0.000006 10 4.4771 10 10 0 1 1 2 2 2s2-1 2-2c0-7.732-6.268-14-14-14-1 0-2 1-2 2zm4 6c-2.2091 0-4 1.7909-4 4 0 2.209 1.791 4 4 4 2.2091 0 4-1.7909 4-4s-1.7909-4-4-4z"/>
</svg>
