<svg xmlns="http://www.w3.org/2000/svg" width="48" height="48" version="1.1">
 <path style="opacity:0.2" d="M 5.5,5 C 4.669,5 4,5.669 4,6.5 v 7 C 4,14.331 4.669,15 5.5,15 h 7 c 0.831,0 1.5,-0.669 1.5,-1.5 v -7 C 14,5.669 13.331,5 12.5,5 Z m 15,0 C 19.669,5 19,5.669 19,6.5 v 7 c 0,0.831 0.669,1.5 1.5,1.5 h 7 c 0.831,0 1.5,-0.669 1.5,-1.5 v -7 C 29,5.669 28.331,5 27.5,5 Z m 15,0 C 34.669,5 34,5.669 34,6.5 v 7 c 0,0.831 0.669,1.5 1.5,1.5 h 7 c 0.831,0 1.5,-0.669 1.5,-1.5 v -7 C 44,5.669 43.331,5 42.5,5 Z M 5.5,20 C 4.669,20 4,20.669 4,21.5 v 7 C 4,29.331 4.669,30 5.5,30 h 7 c 0.831,0 1.5,-0.669 1.5,-1.5 v -7 C 14,20.669 13.331,20 12.5,20 Z m 15,0 C 19.669,20 19,20.669 19,21.5 v 7 c 0,0.831 0.669,1.5 1.5,1.5 h 7 c 0.831,0 1.5,-0.669 1.5,-1.5 v -7 C 29,20.669 28.331,20 27.5,20 Z m 15,0 C 34.669,20 34,20.669 34,21.5 v 7 c 0,0.831 0.669,1.5 1.5,1.5 h 7 c 0.831,0 1.5,-0.669 1.5,-1.5 v -7 C 44,20.669 43.331,20 42.5,20 Z M 5.5,35 C 4.669,35 4,35.669 4,36.5 v 7 C 4,44.331 4.669,45 5.5,45 h 7 c 0.831,0 1.5,-0.669 1.5,-1.5 v -7 C 14,35.669 13.331,35 12.5,35 Z m 15,0 C 19.669,35 19,35.669 19,36.5 v 7 c 0,0.831 0.669,1.5 1.5,1.5 h 7 c 0.831,0 1.5,-0.669 1.5,-1.5 v -7 C 29,35.669 28.331,35 27.5,35 Z m 15,0 C 34.669,35 34,35.669 34,36.5 v 7 c 0,0.831 0.669,1.5 1.5,1.5 h 7 c 0.831,0 1.5,-0.669 1.5,-1.5 v -7 C 44,35.669 43.331,35 42.5,35 Z"/>
 <rect style="fill:#38c5d7" width="10" height="10" x="19" y="34" rx="1.5" ry="1.5"/>
 <rect style="fill:#ffe55a" width="10" height="10" x="4" y="19" rx="1.5" ry="1.5"/>
 <rect style="fill:#88f7f0" width="10" height="10" x="19" y="19" rx="1.5" ry="1.5"/>
 <rect style="fill:#ffad00" width="10" height="10" x="34" y="19" rx="1.5" ry="1.5"/>
 <rect style="fill:#38c5d7" width="10" height="10" x="4" y="4" rx="1.5" ry="1.5"/>
 <rect style="fill:#ffe55a" width="10" height="10" x="19" y="4" rx="1.5" ry="1.5"/>
 <rect style="fill:#38c5d7" width="10" height="10" x="34" y="4" rx="1.5" ry="1.5"/>
 <rect style="fill:#88f7f0" width="10" height="10" x="4" y="34" rx="1.5" ry="1.5"/>
 <rect style="fill:#ffe55a" width="10" height="10" x="34" y="34" rx="1.5" ry="1.5"/>
 <path style="fill:#ffffff;opacity:0.2" d="M 5.5 4 C 4.669 4 4 4.669 4 5.5 L 4 6.5 C 4 5.669 4.669 5 5.5 5 L 12.5 5 C 13.331 5 14 5.669 14 6.5 L 14 5.5 C 14 4.669 13.331 4 12.5 4 L 5.5 4 z M 20.5 4 C 19.669 4 19 4.669 19 5.5 L 19 6.5 C 19 5.669 19.669 5 20.5 5 L 27.5 5 C 28.331 5 29 5.669 29 6.5 L 29 5.5 C 29 4.669 28.331 4 27.5 4 L 20.5 4 z M 35.5 4 C 34.669 4 34 4.669 34 5.5 L 34 6.5 C 34 5.669 34.669 5 35.5 5 L 42.5 5 C 43.331 5 44 5.669 44 6.5 L 44 5.5 C 44 4.669 43.331 4 42.5 4 L 35.5 4 z M 5.5 19 C 4.669 19 4 19.669 4 20.5 L 4 21.5 C 4 20.669 4.669 20 5.5 20 L 12.5 20 C 13.331 20 14 20.669 14 21.5 L 14 20.5 C 14 19.669 13.331 19 12.5 19 L 5.5 19 z M 20.5 19 C 19.669 19 19 19.669 19 20.5 L 19 21.5 C 19 20.669 19.669 20 20.5 20 L 27.5 20 C 28.331 20 29 20.669 29 21.5 L 29 20.5 C 29 19.669 28.331 19 27.5 19 L 20.5 19 z M 35.5 19 C 34.669 19 34 19.669 34 20.5 L 34 21.5 C 34 20.669 34.669 20 35.5 20 L 42.5 20 C 43.331 20 44 20.669 44 21.5 L 44 20.5 C 44 19.669 43.331 19 42.5 19 L 35.5 19 z M 5.5 34 C 4.669 34 4 34.669 4 35.5 L 4 36.5 C 4 35.669 4.669 35 5.5 35 L 12.5 35 C 13.331 35 14 35.669 14 36.5 L 14 35.5 C 14 34.669 13.331 34 12.5 34 L 5.5 34 z M 20.5 34 C 19.669 34 19 34.669 19 35.5 L 19 36.5 C 19 35.669 19.669 35 20.5 35 L 27.5 35 C 28.331 35 29 35.669 29 36.5 L 29 35.5 C 29 34.669 28.331 34 27.5 34 L 20.5 34 z M 35.5 34 C 34.669 34 34 34.669 34 35.5 L 34 36.5 C 34 35.669 34.669 35 35.5 35 L 42.5 35 C 43.331 35 44 35.669 44 36.5 L 44 35.5 C 44 34.669 43.331 34 42.5 34 L 35.5 34 z"/>
</svg>
