<svg xmlns="http://www.w3.org/2000/svg" width="48" height="48" version="1">
 <path fill="#fabd7f" d="m19 4c-1.108 0-2 0.892-2 2v19.955l-6.1699-6.1699c-0.78347-0.78347-2.0447-0.78347-2.8281 0l-1.4141 1.4141c-0.78348 0.78347-0.78348 2.0446 0 2.8281l10.75 10.75a12 12 0 0 0 11.662 9.223 12 12 0 0 0 12 -12v-26c0-1.108-0.892-2-2-2h-2c-1.108 0-2 0.892-2 2v11.283c0-0.71137-0.892-1.2832-2-1.2832h-2c-1.108 0-2 0.57184-2 1.2832v0.0078c0-0.71563-0.892-1.291-2-1.291h-2c-1.108 0-2 0.57538-2 1.291v-11.291c0-1.108-0.892-2-2-2h-2z"/>
 <path opacity=".2" d="m6.0723 23.113c-0.17211 0.66266-0.00549 1.3929 0.51562 1.9141l10.75 10.75a12 12 0 0 0 11.662 9.223 12 12 0 0 0 12 -12v-1a12 12 0 0 1 -12 12 12 12 0 0 1 -11.662 -9.223l-10.75-10.75c-0.2625-0.262-0.4291-0.58-0.5157-0.914z"/>
 <path style="fill:#ffffff;opacity:0.2" d="M 19 4 C 17.892 4 17 4.892 17 6 L 17 7 C 17 5.892 17.892 5 19 5 L 21 5 C 22.108 5 23 5.892 23 7 L 23 6 C 23 4.892 22.108 4 21 4 L 19 4 z M 37 4 C 35.892 4 35 4.892 35 6 L 35 7 C 35 5.892 35.892 5 37 5 L 39 5 C 40.108 5 41 5.892 41 7 L 41 6 C 41 4.892 40.108 4 39 4 L 37 4 z M 25 16 C 23.892 16 23 16.575396 23 17.291016 L 23 18.291016 C 23 17.575396 23.892 17 25 17 L 27 17 C 28.108 17 29 17.575386 29 18.291016 L 29 18.283203 C 29 17.571843 29.892 17 31 17 L 33 17 C 34.108 17 35 17.571833 35 18.283203 L 35 17.283203 C 35 16.571833 34.108 16 33 16 L 31 16 C 29.892 16 29 16.571843 29 17.283203 L 29 17.291016 C 29 16.575386 28.108 16 27 16 L 25 16 z M 9.4160156 19.197266 C 8.9048494 19.197266 8.3936531 19.393421 8.0019531 19.785156 L 6.5878906 21.199219 C 6.0667704 21.720332 5.9001549 22.450632 6.0722656 23.113281 C 6.1588053 22.779217 6.3252075 22.461899 6.5878906 22.199219 L 8.0019531 20.785156 C 8.7853531 20.001686 10.046608 20.001686 10.830078 20.785156 L 17 26.955078 L 17 25.955078 L 10.830078 19.785156 C 10.438343 19.393421 9.9271819 19.197266 9.4160156 19.197266 z"/>
</svg>
