<svg xmlns="http://www.w3.org/2000/svg" width="48" height="48" version="1">
 <rect style="opacity:0.2" width="40" height="40" x="4" y="5" rx="2" ry="2"/>
 <rect style="fill:#e4e4e4" width="39" height="40" x="-44" y="-44" rx="2" ry="2" transform="matrix(0,-1,-1,0,0,0)"/>
 <path style="opacity:0.2" d="m4 14v1h40v-1z"/>
 <path style="fill:#086cd6" d="M 6,4 C 4.892,4 4,4.892 4,6 V 14 H 44 V 6 C 44,4.892 43.108,4 42,4 Z"/>
 <path style="opacity:0.2" d="M 10,21 V 23 H 38 V 21 Z M 10,26 V 28 H 32 V 26 Z M 10,31 V 33 H 36 V 31 Z M 10,36 V 38 H 28 V 36 Z"/>
 <path style="opacity:0.2;fill:#ffffff" d="m6 4c-1.108 0-2 0.892-2 2v1c0-1.108 0.892-2 2-2h36c1.108 0 2 0.892 2 2v-1c0-1.108-0.892-2-2-2h-36z"/>
</svg>
