<svg xmlns="http://www.w3.org/2000/svg" width="48" height="48" version="1">
 <circle style="opacity:0.2" cx="24" cy="25" r="20"/>
 <circle style="fill:#dc587f" cx="24" cy="24" r="20"/>
 <path style="opacity:0.2" d="M 24 10 A 14 14 0 0 0 10 24 A 14 14 0 0 0 10.162109 26 L 11.099609 26 L 14.212891 26 L 33.796875 26 A 10 10 0 0 1 24 34 A 10 10 0 0 1 16.011719 30 L 11.369141 30 A 14 14 0 0 0 24 38 A 14 14 0 0 0 38 24 A 14 14 0 0 0 37.837891 22 L 36.099609 22 L 33.787109 22 L 14.203125 22 A 10 10 0 0 1 24 14 A 10 10 0 0 1 31.988281 18 L 36.630859 18 A 14 14 0 0 0 24 10 z"/>
 <path style="opacity:0.2" d="m 21,17 v 8 h -4 l 7,8 7,-8 h -4 v -8 z"/>
 <rect style="fill:#ffffff" width="6" height="11" x="21" y="16"/>
 <path style="fill:#ffffff" transform="matrix(0.97072535,-0.36980013,0.56044854,0.64051262,7.2964771,3.1393246)" d="M -6.6055512,28.755002 4.2111025,35 -6.6055513,41.244998 Z"/>
 <path style="opacity:0.2;fill:#ffffff" d="M 24 4 A 20 20 0 0 0 4 24 A 20 20 0 0 0 4.0214844 24.582031 A 20 20 0 0 1 24 5 A 20 20 0 0 1 43.978516 24.417969 A 20 20 0 0 0 44 24 A 20 20 0 0 0 24 4 z"/>
</svg>
