<svg xmlns="http://www.w3.org/2000/svg" width="48" height="48" version="1.1">
 <circle style="opacity:0.2" cx="24" cy="25" r="20"/>
 <circle style="fill:#e4e4e4" cx="24" cy="24" r="20"/>
 <ellipse style="opacity:0.1" cx="-2.77" cy="34.534" rx="15.917" ry="7.722" transform="matrix(0.6608078,-0.75055516,0.74797332,0.66372879,0,0)"/>
 <path style="opacity:0.2;fill:#ffffff" d="M 24,4 A 20,20 0 0 0 4,24 20,20 0 0 0 4.0215,24.582 20,20 0 0 1 24,5 20,20 0 0 1 43.979,24.418 20,20 0 0 0 44,24 20,20 0 0 0 24,4 Z"/>
 <ellipse style="fill:#ffb61f" cx="-2.022" cy="33.873" rx="15.917" ry="7.722" transform="matrix(0.6608078,-0.75055516,0.74797332,0.66372879,0,0)"/>
 <g transform="matrix(1.0286126,0,0,1,-1.3970563,0.59284)">
  <path style="fill:#3f3f3f" d="m 23.718411,17.407162 v 2.999998 h 2.91655 v 2 h -2.91655 v 3.220921 c 0,0.762169 0.148809,1.251738 0.354651,1.468706 0.211404,0.216968 0.346144,0.284964 0.984709,0.325452 h 1.57719 v 1.984921 h -1.57719 c -1.184979,0 -2.002782,-0.21975 -2.453407,-0.659249 -0.450626,-0.445063 -0.86585,-1.25231 -0.83032,-2.420027 V 22.40716 h -0.972183 v -2 h 0.972183 v -2.999998 z"/>
 </g>
 <circle style="opacity:0.1" cx="15" cy="15" r="2"/>
 <circle style="fill:#ff2e2e" cx="15" cy="14" r="2"/>
 <path style="opacity:0.1" d="m 34.322715,31.017471 c 0.390298,0.756559 0.617391,1.41468 0.668016,2.004188 0.05063,0.589508 -0.104326,1.150462 -0.509023,1.513061 -0.404697,0.362601 -0.969224,0.486948 -1.610366,0.461839 -0.641142,-0.02511 -1.38976,-0.197569 -2.26064,-0.510947 -3.483518,-1.253514 -8.30569,-4.545919 -12.354263,-8.373431 -2.024287,-1.913756 -3.646676,-3.768469 -4.733482,-5.37876 -1.086806,-1.610291 -1.708204,-2.246655 -1.473723,-3.364024 0.05635,-0.271246 0.323947,-0.445305 0.596752,-0.388157 0.27184,0.05668 0.446037,0.321431 0.389209,0.591523 -0.109537,0.521972 0.295583,1.081474 1.323111,2.603934 1.027528,1.52246 2.608139,3.337933 4.591248,5.21276 3.966219,3.749655 8.778271,6.994394 12.004868,8.155456 0.806649,0.290266 1.471317,0.433487 1.956571,0.45249 0.485254,0.019 0.761026,-0.0839 0.895549,-0.20443 0.134527,-0.120527 0.214772,-0.297561 0.1814,-0.686133 -0.03337,-0.388569 -0.209804,-0.948227 -0.562759,-1.6324 -0.126657,-0.245847 -0.02864,-0.547149 0.218905,-0.672887 0.247399,-0.126898 0.551499,-0.03014 0.678627,0.215918 z"/>
 <path style="fill:#ff2e2e" d="m 34.322715,30.01747 c 0.390298,0.756559 0.617391,1.41468 0.668016,2.004188 0.05063,0.589508 -0.104326,1.150462 -0.509023,1.513061 -0.404697,0.362601 -0.969224,0.486948 -1.610366,0.461839 -0.641142,-0.02511 -1.38976,-0.197569 -2.26064,-0.510947 -3.483518,-1.253514 -8.30569,-4.545919 -12.354263,-8.373431 -2.024287,-1.913756 -3.646676,-3.768469 -4.733482,-5.37876 -1.086806,-1.610291 -1.708204,-2.246655 -1.473723,-3.364024 0.05635,-0.271246 0.323947,-0.445305 0.596752,-0.388157 0.27184,0.05668 0.446037,0.321431 0.389209,0.591523 -0.109537,0.521972 0.295583,1.081474 1.323111,2.603934 1.027528,1.52246 2.608139,3.337933 4.591248,5.21276 3.966219,3.749655 8.778271,6.994394 12.004868,8.155456 0.806649,0.290266 1.471317,0.433487 1.956571,0.45249 0.485254,0.019 0.761026,-0.0839 0.895549,-0.20443 0.134527,-0.120527 0.214772,-0.297561 0.1814,-0.686133 -0.03337,-0.388569 -0.209804,-0.948227 -0.562759,-1.6324 -0.126657,-0.245847 -0.02864,-0.547149 0.218905,-0.672887 0.247399,-0.126898 0.551499,-0.03014 0.678627,0.215918 z"/>
</svg>
