<svg xmlns="http://www.w3.org/2000/svg" width="48" height="48" version="1">
 <path style="fill:#0091cf" d="m 43,27 c 0,5.348164 -2.099207,10.206031 -5.518609,13.794592 -3.642774,3.822983 -9.698494,0.0062 -15.396025,0.0062 -5.784925,0 -10.081569,3.743114 -13.7333242,-0.183155 C 5.0311614,37.047137 3,32.26077 3,27 3,15.954305 11.954305,7 23,7 34.045695,7 43,15.954305 43,27 Z"/>
 <path style="opacity:0.1;fill:#ffffff" d="M 23,7 A 20,20 0 0 0 3,27 20,20 0 0 0 3.0214844,27.582031 20,20 0 0 1 23,8 20,20 0 0 1 42.978516,27.417969 20,20 0 0 0 43,27 20,20 0 0 0 23,7 Z"/>
 <path style="opacity:0.2" d="m 31,6 -4,4 h -6 v 6 l -4,4 4,4 v 6 h 6 l 4,4 4,-4 h 6 v -6 l 4,-4 -4,-4 v -6 h -6 z"/>
 <path style="fill:#ff8a47" d="m 31,5 -4,4 h -6 v 6 l -4,4 4,4 v 6 h 6 l 4,4 4,-4 h 6 v -6 l 4,-4 -4,-4 V 9 h -6 z"/>
 <circle style="opacity:0.2" cx="31" cy="20" r="8"/>
 <circle style="fill:#ffcc42" cx="31" cy="19" r="8"/>
 <path style="opacity:0.2;fill:#ffffff" d="m 31,5 -4,4 h -6 v 1 h 6 l 4,-4 4,4 h 6 V 9 H 35 Z M 21,15 17,19 17.5,19.5 21,16 Z m 20,0 v 1 L 44.5,19.5 45,19 Z"/>
 <path style="opacity:0.2;fill:#ffffff" d="m 31,11 a 8,8 0 0 0 -8,8 8,8 0 0 0 0.02148,0.576172 A 8,8 0 0 1 31,12 8,8 0 0 1 38.978516,19.423828 8,8 0 0 0 39,19 8,8 0 0 0 31,11 Z"/>
 <circle style="opacity:0.2" cx="23" cy="33" r="8"/>
 <path style="opacity:0.2" d="m 23,25 a 8,8 0 0 0 -8,8 8,8 0 0 0 0.01172,0.355469 A 6,6 0 0 0 13,33 6,6 0 0 0 7,39 6,6 0 0 0 13,45 H 33 A 6,6 0 0 0 39,39 6,6 0 0 0 33,33 6,6 0 0 0 30.982422,33.355469 8,8 0 0 0 31,33 8,8 0 0 0 23,25 Z"/>
 <circle style="fill:#ffffff" cx="13" cy="38" r="6"/>
 <circle style="fill:#ffffff" cx="23" cy="32" r="8"/>
 <circle style="fill:#ffffff" cx="33" cy="38" r="6"/>
 <rect style="fill:#ffffff" width="20" height="8" x="13" y="36"/>
</svg>
