<svg xmlns="http://www.w3.org/2000/svg" width="22" height="22" viewBox="0 0 22 22">
 <defs>
  <style id="current-color-scheme" type="text/css">
   .ColorScheme-Text { color:#31363b; } .ColorScheme-Highlight { color:#3daee9; }
  </style>
 </defs>
 <path style="fill:currentColor" class="ColorScheme-Text" d="M 6.5 1 C 5.6977 1 5 1.6468188 5 2.4492188 L 5 4 L 1.9648438 4 C 1.4299438 4 1 4.3264281 1 4.8613281 L 1 8 L 2.4492188 8 C 3.2515187 8 4 8.6977 4 9.5 C 4 10.302 3.2515188 11 2.4492188 11 L 1 11 L 1 14.033203 C 1 14.568203 1.4299437 15 1.9648438 15 L 5 15 L 5 14.033203 C 5 13.231203 5.0175 12.041 6.5 12 C 7.9825 11.959 8 13.291203 8 14.033203 L 8 15 L 11.138672 15 C 11.673672 15 12 14.568203 12 14.033203 L 12 11 L 13.552734 11 C 14.354734 11 15 10.302 15 9.5 C 15 8.6977 14.345734 8.1233 13.552734 8 L 12 8 L 12 4.8613281 C 12 4.3264281 11.673672 4 11.138672 4 L 8 4 L 8 2.4492188 C 8 1.6468187 7.3023 1 6.5 1 z" transform="translate(3 3)"/>
</svg>
