<svg xmlns="http://www.w3.org/2000/svg" width="16" height="16" version="1.1">
 <defs>
  <style id="current-color-scheme" type="text/css">
   .ColorScheme-Text { color:#dfdfdf; } .ColorScheme-Highlight { color:#4285f4; } .ColorScheme-NeutralText { color:#ff9800; } .ColorScheme-PositiveText { color:#4caf50; } .ColorScheme-NegativeText { color:#f44336; }
  </style>
 </defs>
 <path class="ColorScheme-Text" d="M 15,9 C 15,8.446 14.554,8 14,8 H 1 C 0.446,8 0,8.446 0,9 v 5 c 0,0.554 0.446,1 1,1 h 13 c 0.554,0 1,-0.446 1,-1 z m -3,0 v 1 H 11 V 9 Z m 0,2 v 1 h -1 v -1 z m -1,2 v 1 H 4.0000002 V 13 Z M 10,9 v 1 H 9 V 9 Z m 0,2 v 1 H 9 V 11 Z M 8,9 v 1 H 7 V 9 Z m 0,2 v 1 H 7 V 11 Z M 6.0000002,9 v 1 h -1 V 9 Z m 0,2 v 1 h -1 v -1 z m -2,-2 v 1 h -1 V 9 Z m 0,2 v 1 h -1 v -1 z" style="opacity:.35;fill:currentColor;fill-rule:evenodd"/>
 <path style="fill:currentColor" class="ColorScheme-NegativeText" d="M 7,1 V 5 H 9 V 1 Z M 7,6 V 7 H 9 V 6 Z"/>
</svg>
