<svg xmlns="http://www.w3.org/2000/svg" width="16" height="16" version="1.1">
 <defs>
  <style id="current-color-scheme" type="text/css">
   .ColorScheme-Text { color:#dfdfdf; } .ColorScheme-Highlight { color:#4285f4; } .ColorScheme-NeutralText { color:#ff9800; } .ColorScheme-PositiveText { color:#4caf50; } .ColorScheme-NegativeText { color:#f44336; }
  </style>
 </defs>
 <path style="fill:currentColor" class="ColorScheme-Text" d="M 2.7129,1.0002 C 2.5324,1.0041 2.3756,1.0702 2.2578,1.1897 2.0905,1.3568 2,1.6286 2,1.9787 V 14.018 C 2,14.368 2.0982,14.638 2.2578,14.805 2.501,15.051 2.8812,15.076 3.3145,14.813 L 13.453,8.7814 C 14.183,8.3518 14.183,7.6525 13.453,7.215 L 12.857,6.8596 C 12.34,4.6501 10.367,3.0002 8,3.0002 7.5397,3.0002 7.103,3.083 6.6797,3.1994 5.1333,2.2728 3.3145,1.1818 3.3145,1.1818 3.0979,1.0545 2.8934,0.99617 2.7129,1.0002 Z M 8,4.0002 C 9.5963,4.0002 10.956,4.9432 11.598,6.2834 11.633,6.3571 12,7.1091 12,8.0002 12,8.1693 11.973,8.3308 11.953,8.4943 L 6.5469,11.717 C 5.9006,11.544 4,10.297 4,8.0002 4,7.7241 4.0287,7.4539 4.082,7.1936 4.455,5.3708 6.0774,4.0002 8,4.0002 Z M 8,6.0002 C 6.8954,6.0002 6,6.8956 6,8.0002 6,9.1048 6.8954,10 8,10 9.1046,10 10,9.1048 10,8.0002 10,6.8956 9.1046,6.0002 8,6.0002 Z M 12,11 V 16 L 16,13.5 Z"/>
</svg>
