<svg xmlns="http://www.w3.org/2000/svg" width="16" height="16" version="1.1">
 <defs>
  <style id="current-color-scheme" type="text/css">
   .ColorScheme-Text { color:#dfdfdf; } .ColorScheme-Highlight { color:#4285f4; } .ColorScheme-NeutralText { color:#ff9800; } .ColorScheme-PositiveText { color:#4caf50; } .ColorScheme-NegativeText { color:#f44336; }
  </style>
 </defs>
 <path style="fill:currentColor" class="ColorScheme-Highlight" d="M 8.5 1 A 0.50005 0.50005 0 1 0 8.5 2 C 11.113636 2 12.401878 3.0141208 13.136719 4.2011719 C 13.87156 5.3882229 14 6.8055556 14 7.5 A 0.50005 0.50005 0 1 0 15 7.5 C 15 6.6944444 14.87844 5.1117771 13.988281 3.6738281 C 13.098122 2.2358792 11.386364 1 8.5 1 z M 9.5 3 A 0.50005 0.50005 0 1 0 9.5 4 C 10.083333 4 10.725052 4.307083 11.208984 4.7910156 C 11.692917 5.2749482 12 5.9166667 12 6.5 A 0.50005 0.50005 0 1 0 13 6.5 C 13 5.5833333 12.557083 4.7250518 11.916016 4.0839844 C 11.274948 3.442917 10.416667 3 9.5 3 z M 9.5 4.9433594 A 0.50005 0.50005 0 1 0 9.5 5.9433594 C 9.564359 5.9433594 9.7021797 5.9986374 9.8144531 6.1210938 C 9.9267265 6.2435497 9.9902344 6.4132743 9.9902344 6.5 A 0.50005 0.50005 0 1 0 10.990234 6.5 C 10.990234 6.0867257 10.808419 5.7263175 10.550781 5.4453125 C 10.293143 5.1643075 9.9356408 4.9433594 9.5 4.9433594 z"/>
 <path style="fill:currentColor" class="ColorScheme-Text" d="m 3.5292969,1.0058594 c -0.1049112,-0.009696 -0.2080416,-0.00829 -0.2832031,0.00781 l -0.00195,0 C 3.0242559,1.0598384 2.7488238,1.22302 2.1523438,1.6640625 1.7940357,1.9307517 1.303086,2.4086176 1.1875,2.6015625 c -0.2681842,0.4572324 -0.25232713,0.844721 0.074219,1.7382813 0.5599931,1.5322624 1.3773259,3.010476 2.453125,4.4355468 2.0589368,2.7264924 4.6524308,4.7091744 7.9003902,6.0390624 0.41387,0.169906 0.548426,0.197653 0.873047,0.181641 0.39287,-0.01867 0.692412,-0.139459 1.113281,-0.457032 0.465494,-0.350483 1.131237,-1.172776 1.302735,-1.611328 0.161873,-0.416313 0.117575,-0.793446 -0.123047,-1.08789 C 14.644752,11.677055 13.635682,10.857543 13.164062,10.529297 12.806192,10.28111 12.252669,9.9402487 11.998047,9.8085938 11.662926,9.6386884 11.328324,9.6084451 11.001953,9.71875 c -0.257246,0.088066 -0.341426,0.1629517 -0.716797,0.630859 -0.194247,0.239291 -0.3737344,0.456103 -0.3964841,0.476563 -0.025375,0.02046 -0.1055166,0.06687 -0.1816407,0.101562 -0.3027461,0.14055 -0.7192427,0.05501 -1.3964843,-0.28125 C 7.7829285,10.387626 7.3161278,10.059202 6.7871094,9.5761719 6.3362275,9.1678651 5.8815749,8.6341732 5.6269531,8.21875 5.2985696,7.6832364 5.0492375,6.9876265 5.046875,6.6035156 c 0,-0.1653687 0.067267,-0.4002415 0.1503906,-0.5195312 0.032375,-0.047947 0.2371466,-0.2294951 0.4570313,-0.40625 C 6.2023901,5.2390047 6.3261041,5.1036825 6.4003906,4.8417969 6.4723147,4.5985918 6.3947377,4.2676631 6.1660156,3.8242188 5.765883,3.0475464 4.5431977,1.4945401 4.1035156,1.2050781 4.031679,1.1589101 3.9049802,1.0939827 3.8242188,1.0664062 3.7408323,1.0364282 3.6342081,1.0156444 3.5292969,1.0058594 Z"/>
</svg>
