<?xml version="1.0" encoding="UTF-8" standalone="no"?>
<svg xmlns="http://www.w3.org/2000/svg" version="1" width="24" height="24">
 <rect style="fill:#294060;fill-opacity:1" x="-22" y="-22" width="20" height="20" transform="matrix(0,-1,-1,0,0,0)" rx="1" ry="1"/>
 <path d="M 3,2 C 2.446,2 2,2.446 2,3 l 0,0.5 c 0,-0.554 0.446,-1 1,-1 l 18,0 c 0.554,0 1,0.446 1,1 L 22,3 C 22,2.446 21.554,2 21,2 L 3,2 Z" style="opacity:0.1;fill:#ffffff"/>
 <path d="m 2,21 0,0.5 c 0,0.554 0.446,1 1,1 l 18,0 c 0.554,0 1,-0.446 1,-1 L 22,21 c 0,0.554 -0.446,1 -1,1 L 3,22 C 2.446,22 2,21.554 2,21 Z" style="opacity:0.2"/>
 <path style="opacity:0.2;fill:none;stroke:#000000;stroke-width:2;stroke-linejoin:round;" d="m 12,10.5 c 0,-1.5 -1,-5 3.5,-5 4.5,0 4.5,7 0,7 l -7,0 c -4.5,0 -4.5,7 0,7 4.5,0 3.520713,-4 3.5,-5"/>
 <path d="m 12,10 c 0,-1.5 -1,-5 3.5,-5 4.5,0 4.5,7 0,7 l -7,0 C 4,12 4,19 8.5,19 13,19 12.020713,15 12,14" style="opacity:1;fill:none;stroke:#ffffff;stroke-width:2;stroke-linejoin:round;"/>
</svg>
