<svg xmlns="http://www.w3.org/2000/svg" height="24" width="24" version="1.1">
 <g transform="translate(1,1)">
  <circle style="opacity:.2" cx="11" r="10" cy="11.5"/>
  <circle style="fill:#4f4f4f" cx="11" r="10" cy="11"/>
  <path style="opacity:.1;fill:#ffffff" d="m11 1a10 10 0 0 0 -10 10 10 10 0 0 0 0.0098 0.293 10 10 0 0 1 9.9902 -9.793 10 10 0 0 1 9.99 9.707 10 10 0 0 0 0.01 -0.207 10 10 0 0 0 -10 -10z"/>
  <path style="opacity:.2" d="m11 1.5a10 10 0 0 0 -1 0.060547v3.5253905l-5.707031 5.7070315a1.0001 1.0001 0 0 0 0 1.414062l5.707031 5.707031v3.535157a10 10 0 0 0 1 0.05078 10 10 0 0 0 1 -0.06055v-3.525391l3-3 0.292969 0.292969a1.0001 1.0001 0 1 0 1.414062 -1.414062l-1-1a1.0001 1.0001 0 0 0 -1.414062 0l-3.292969 3.292973-4.585938-4.585938 4.585938-4.5859375 3.292969 3.2929685a1.0001 1.0001 0 0 0 1.414062 0l1-0.9999998a1.0001 1.0001 0 1 0 -1.414062 -1.4140624l-0.292969 0.2929687-3-3v-3.5351563a10 10 0 0 0 -1 -0.0507812zm0 9a1 1 0 0 0 -1 1 1 1 0 0 0 1 1 1 1 0 0 0 1 -1 1 1 0 0 0 -1 -1z"/>
  <path style="fill:#bedbd9" d="m11 1a10 10 0 0 0 -1 0.060547v3.5253905l-5.7070312 5.7070315a1.0001 1.0001 0 0 0 0 1.414062l5.7070312 5.707031v3.535157a10 10 0 0 0 1 0.050781 10 10 0 0 0 1 -0.06055v-3.525391l3-3 0.292969 0.292969a1.0001 1.0001 0 1 0 1.414062 -1.414062l-1-1a1.0001 1.0001 0 0 0 -1.414062 0l-3.292969 3.292972-4.5859375-4.585938 4.5859375-4.5859375 3.292969 3.2929687a1.0001 1.0001 0 0 0 1.414062 0l1-1a1.0001 1.0001 0 1 0 -1.414062 -1.4140624l-0.292969 0.2929687-3-3v-3.5351563a10 10 0 0 0 -1 -0.0507812zm0 9a1 1 0 0 0 -1 1 1 1 0 0 0 1 1 1 1 0 0 0 1 -1 1 1 0 0 0 -1 -1z"/>
  <path style="fill:#ffffff;opacity:.2" d="m11 1a10 10 0 0 0 -1 0.060547v0.5a10 10 0 0 1 1 -0.060547 10 10 0 0 1 1 0.050781v-0.5a10 10 0 0 0 -1 -0.050781zm-1 3.5859375-5.7070312 5.7070315a1.0001 1.0001 0 0 0 -0.2597657 0.957031 1.0001 1.0001 0 0 1 0.2597657 -0.457031l5.7070312-5.7070315zm2 0v0.5l3 3 0.292969-0.2929687a1.0001 1.0001 0 0 1 1.689453 0.4453124 1.0001 1.0001 0 0 0 -1.689453 -0.9453124l-0.292969 0.2929687zm-1 5.4140625a1 1 0 0 0 -1 1 1 1 0 0 0 0.0332 0.25 1 1 0 0 1 0.9668 -0.75 1 1 0 0 1 0.966797 0.75 1 1 0 0 0 0.033203 -0.25 1 1 0 0 0 -1 -1zm-4.3359375 1.25-0.25 0.25l4.5859375 4.585938 3.292969-3.292969a1.0001 1.0001 0 0 1 1.414062 0l1 1a1.0001 1.0001 0 0 1 0.275391 0.470703 1.0001 1.0001 0 0 0 -0.275391 -0.970703l-1-1a1.0001 1.0001 0 0 0 -1.414062 0l-3.292969 3.292969z"/>
 </g>
</svg>
