<svg width="24" height="24" version="1.1" xmlns="http://www.w3.org/2000/svg">
 <path d="m7.5 8.000096-2 7c-0.8435004 2.952251-2.2327765 5.067228-3 6-0.5994993 0.728857-0.6120942 1.396087 0 1.5 0.5316496 0.09026 1.5-0.5 1.5-0.5s2.742806-2.513819 4-5.5c1.4049072-3.337039 4-3.5 4-3.5s2.595093 0.162961 4 3.5c1.257194 2.98618 4 5.5 4 5.5s0.968351 0.590256 1.5 0.5c0.612094-0.103913 0.5995-0.771143 0-1.5-0.767223-0.932772-2.1565-3.047749-3-6l-2-7c-1.673792-5.8582736-4.5-5.495697-4.5-5.495697s-2.8566913-0.2558833-4.5 5.495697z" style="opacity:.2"/>
 <path d="m7.5 7.5-2 7c-0.8435004 2.952251-2.2327765 5.067228-3 6-0.5994993 0.728857-0.6120942 1.396087 0 1.5 0.5316496 0.09026 1.5-0.5 1.5-0.5s2.742806-2.513819 4-5.5c1.4049072-3.337039 4-3.5 4-3.5s2.595093 0.162961 4 3.5c1.257194 2.98618 4 5.5 4 5.5s0.968351 0.590256 1.5 0.5c0.612094-0.103913 0.5995-0.771143 0-1.5-0.767223-0.932772-2.1565-3.047749-3-6l-2-7c-1.673792-5.8582736-4.5-5.495697-4.5-5.495697s-2.8566913-0.2558833-4.5 5.495697z" style="fill:#4587f3"/>
 <path d="m10.5 2.5039062c-0.9423855 0.6148538-2.1378118 1.978435-3 4.9960938 2.3993605-2.239729 4.4941-2.000681 4.5-2-0.329702-0.1510044-1.245376-1.8391629-1.5-2.9960938z" style="fill:#34a853"/>
 <path d="m11.931641 2.0019531c-0.242564 0.0025515-1.107366 0.0831451-2.0859379 1.0273438 0.2540719 1.1573535 1.8247409 2.323152 2.1542969 2.4726562-1.267068-1.7868873-0.073441-3.406643-0.003906-3.4980469-0.00773-5.371e-4 -0.029801-0.0023176-0.064453-0.0019531z" style="fill:#ffce41"/>
 <path d="M 12.119141,2 C 12.042497,1.9988642 12,2.0039062 12,2.0039062 c 0,0 0.0021,-0.00376 0,-0.00391 -0.06956,0.09135 -1.26688,1.7131987 0,3.5 2.149585,0.9750568 3.659672,1.5356312 4.875,3.3085938 L 16.5,7.5 C 16.456315,7.3498307 16.413135,7.2039294 16.369141,7.0605469 14.89394,2.3359482 12.655643,2.0079506 12.119141,2 Z" style="fill:#e7453c"/>
 <path d="m12.119141 2.0001655c-0.07658-0.00113-0.119067 0.0039-0.119141 0.00391-0.0088 0.011656-0.03325 0.041863-0.06641 0.091797 0.03149-0.04769 0.05465-0.081477 0.0625-0.091797-0.0077-5.37e-4 -0.0298-0.00232-0.06445-0.00195-0.186365 0.00196-0.74127 0.053531-1.431641 0.5039063v-0.00195c-0.06022 0.039292-0.123411 0.089123-0.185547 0.1347657-0.03991 0.029341-0.07855 0.053815-0.119141 0.085937-0.114446 0.0904524-0.2309357 0.1902074-0.3496079 0.3046779-0.7993035 0.7710032-1.6736807 2.1186245-2.3457031 4.4707031 0.0713051-0.0665611 0.1421711-0.1311064 0.2128906-0.1933594 1.6650492-5.0375283 4.2871094-4.8027344 4.2871094-4.8027344s2.826208-0.3621798 4.5 5.4960938l0.136719 0.4804688c5.8e-4 7.511e-4 0.0014 0.0012 2e-3 0.00195 0.08028 0.1039577 0.158552 0.21271 0.236328 0.3261719l-0.375047-1.3085907c-0.043685-0.1501693-0.086865-0.2960706-0.130859-0.4394531-1.475201-4.7245987-3.713498-5.0525963-4.25-5.0605469z" style="fill:#ffffff;opacity:.2"/>
</svg>
