<svg xmlns="http://www.w3.org/2000/svg" width="24" height="24" version="1.1">
 <rect style="opacity:0.2" width="20" height="20" x="2" y="2.5" ry="1.5"/>
 <rect style="fill:#e4e4e4" width="20" height="20" x="2" y="2" ry="1.5"/>
 <path style="opacity:0.1" d="m 6,6.5 v 1 10 1 h 1 1 v -1 H 7 v -10 h 1 v -1 H 7 Z m 10,0 v 1 h 1 v 10 h -1 v 1 h 1 1 v -1 -10 -1 h -1 z m -13,1 v 1 8 1 h 1 1 v -1 H 4 v -8 h 1 v -1 H 4 Z m 16,0 v 1 h 1 v 8 h -1 v 1 h 1 1 v -1 -8 -1 H 20 Z M 11.679688,8.4980469 C 11.557652,8.4976909 11.436489,8.497133 11.314453,8.5 c -0.850918,2.446841 -1.712488,4.536195 -2.5566405,7 H 8 v 1 H 8.3496094 10.25 10.5 v -1 H 9.6640625 c 0.156927,-0.502445 0.2278956,-0.499979 0.3925785,-1 h 3.396484 l 0.05078,0.224609 c 0.07394,0.2593 0.190312,0.515905 0.271485,0.775391 H 13 V 15.914062 16.5 h 2.5 0.5 v -1 h -0.646484 c -0.859597,-2.465729 -1.728022,-4.539197 -2.576172,-7 -0.366109,0.00854 -0.731548,-8.531e-4 -1.097656,-0.00195 z m 0.01562,1.3984375 c 0,-0.038196 0.336447,0.8161646 0.689454,1.8769536 l 0.640625,1.929687 h -1.3125 c -1.024652,0 -1.306812,-0.01662 -1.285157,-0.07617 0.01525,-0.04198 0.296793,-0.888266 0.625,-1.878906 0.328208,-0.99064 0.642578,-1.8133828 0.642578,-1.8515626 z"/>
 <path style="fill:#3e3e3e" d="m 11.679688,7.997535 c -0.122036,-3.56e-4 -0.244175,8.3e-5 -0.366211,0.00295 -0.850918,2.446841 -1.7105355,4.535731 -2.554688,6.999536 H 8 v 1 H 8.3496095 10.25 10.5 v -1 H 9.663086 C 9.820013,14.497576 9.8913175,14.500506 10.056,14.000485 h 3.398 l 0.05088,0.223169 c 0.07394,0.2593 0.190311,0.51686 0.271484,0.776346 H 13 V 15.414063 16 h 2.5 0.5 v -1 h -0.646484 c -0.859597,-2.465729 -1.728022,-4.538732 -2.576172,-6.9995355 -0.366109,0.00854 -0.731548,-0.00185 -1.097656,-0.00295 z M 11.695,9.3959725 c 0,-0.038196 0.335787,0.8171405 0.688794,1.8779295 l 0.641602,1.928711 h -1.313477 c -1.024652,0 -1.306811,-0.01662 -1.285156,-0.07617 0.01525,-0.04198 0.296793,-0.88729 0.625,-1.87793 C 11.379971,10.257873 11.695,9.4341543 11.695,9.3959745 Z"/>
 <path style="opacity:0.2;fill:#ffffff" d="M 3.5,2 C 2.669,2 2,2.669 2,3.5 V 4 C 2,3.169 2.669,2.5 3.5,2.5 h 17 C 21.331,2.5 22,3.169 22,4 V 3.5 C 22,2.669 21.331,2 20.5,2 Z"/>
 <path style="fill:#5f5f5f" d="m 6,6 v 1 10 1 H 7 8 V 17 H 7 V 7 H 8 V 6 H 7 Z"/>
 <path style="fill:#898989" d="m 3,7 v 1 8 1 H 4 5 V 16 H 4 V 8 H 5 V 7 H 4 Z"/>
 <path style="fill:#5f5f5f" d="m 18,6 v 1 10 1 h -1 -1 v -1 h 1 V 7 H 16 V 6 h 1 z"/>
 <path style="fill:#898989" d="m 21,7 v 1 8 1 h -1 -1 v -1 h 1 V 8 H 19 V 7 h 1 z"/>
</svg>
