<svg xmlns="http://www.w3.org/2000/svg" width="24" height="24" version="1.1">
 <rect style="opacity:0.2" width="20" height="20" x="2" y="2.5" rx="1" ry="1"/>
 <rect style="fill:#4f4f4f" width="20" height="20" x="2" y="2" rx="1" ry="1"/>
 <path style="fill:#ffffff;opacity:0.1" d="m3 2c-0.554 0-1 0.446-1 1v0.5c0-0.554 0.446-1 1-1h18c0.554 0 1 0.446 1 1v-0.5c0-0.554-0.446-1-1-1z"/>
 <path style="opacity:0.2" d="m 3,8.5 v 2 3.800781 0.398438 V 16.5 H 4.8007812 5 7.1992188 9 10 l 0.5,-2 h 2 l 0.5,2 h 1 1 l -2,-8 H 12 10 L 8.7695312,13.419922 C 8.4616628,12.870799 7.8756487,12.5 7.1992188,12.5 H 7 c 1.108,0 2,-0.892 2,-2 0,-1.108 -0.892,-2 -2,-2 H 5 Z m 11,0 2,8 h 1 v -3 l 2,3 h 2 l -2,-3 H 18.800781 C 20.019581,13.5 21,12.519581 21,11.300781 V 10.699219 C 21,9.4804182 20.019581,8.5 18.800781,8.5 H 17 Z m -9,1 h 1 a 1,1 0 0 1 1,1 1,1 0 0 1 -1,1 H 5 v -1 z m 6.5,0.5 1,3 h -2 z m 5.5,0.5 h 1 c 0.554,0 1,0.446 1,1 0,0.554 -0.446,1 -1,1 h -1 v -1 z m -12,3 h 1 a 1,1 0 0 1 1,1 1,1 0 0 1 -1,1 H 5 v -1 z"/>
 <path style="fill:#e4e4e4" d="M 3 8 L 3 10 L 3 13.800781 L 3 14.199219 L 3 16 L 4.8007812 16 L 5 16 L 7.1992188 16 L 9 16 L 10 16 L 10.5 14 L 12.5 14 L 13 16 L 14 16 L 15 16 L 13 8 L 12 8 L 10 8 L 8.7695312 12.919922 C 8.4616628 12.370799 7.8756487 12 7.1992188 12 L 7 12 C 8.108 12 9 11.108 9 10 C 9 8.892 8.108 8 7 8 L 5 8 L 3 8 z M 14 8 L 16 16 L 17 16 L 17 13 L 19 16 L 21 16 L 19 13 L 18.800781 13 C 20.019581 13 21 12.019581 21 10.800781 L 21 10.199219 C 21 8.9804182 20.019581 8 18.800781 8 L 17 8 L 14 8 z M 5 9 L 6 9 A 1 1 0 0 1 7 10 A 1 1 0 0 1 6 11 L 5 11 L 5 10 L 5 9 z M 11.5 9.5 L 12.5 12.5 L 10.5 12.5 L 11.5 9.5 z M 17 10 L 18 10 C 18.554 10 19 10.446 19 11 C 19 11.554 18.554 12 18 12 L 17 12 L 17 11 L 17 10 z M 5 13 L 6 13 A 1 1 0 0 1 7 14 A 1 1 0 0 1 6 15 L 5 15 L 5 14 L 5 13 z"/>
</svg>
