<svg xmlns="http://www.w3.org/2000/svg" width="24" height="24" version="1.1" viewBox="0 0 24 24">
 <g transform="translate(0,-1028.3622)">
  <path d="m 12,1031.3384 -0.952381,1.0238 -1.047619,-0.5 -0.7083333,1.1578 c -2.1935238,0.4513 -3.7434381,1.5114 -5.0279,3.1872 C 2.0171333,1039.1384 2,1044.1955 2,1047.0527 c 0,2.8571 5.2380952,3.8095 10,3.8095 4.761905,0 10,-0.9524 10,-3.8095 0,-2.8572 -0.01714,-7.9143 -2.263767,-10.8455 -1.284462,-1.6758 -2.834376,-2.7359 -5.0279,-3.1872 L 14,1031.8622 l -1.047619,0.5 z" style="opacity:0.2"/>
  <path style="fill:#3a99e7" d="m 12,1030.3622 -0.952381,1.5 -1.047619,-0.5 -0.7083333,1.1578 c -2.1935238,0.4513 -3.7434381,1.5114 -5.0279,3.1872 C 2.0171333,1038.6384 2,1043.6955 2,1046.5527 c 0,2.8571 5.2380952,3.8095 10,3.8095 4.761905,0 10,-0.9524 10,-3.8095 0,-2.8572 -0.01714,-7.9143 -2.263767,-10.8455 -1.284462,-1.6758 -2.834376,-2.7359 -5.0279,-3.1872 L 14,1031.3622 l -1.047619,0.5 z"/>
  <path style="fill:#86572f" d="m 9.638915,1045.9968 c 0.487125,0.8437 1.38684,1.364 2.361085,1.3654 0.974245,0 1.87396,-0.5217 2.361085,-1.3654 l -2.361085,0 z"/>
  <path d="m 12.000001,1042.8622 c -0.114877,10e-5 -0.225771,0.046 -0.307113,0.1297 l -2.5518255,2.3176 c -0.273062,0.2801 -0.1294515,1.1081 0.2568575,1.1083 l 2.602081,0.4444 2.60208,-0.4444 c 0.386304,-2e-4 0.52992,-0.8282 0.256858,-1.1083 l -2.551826,-2.3176 c -0.08134,-0.083 -0.192235,-0.1296 -0.307112,-0.1297 z" style="opacity:0.2"/>
  <path style="fill:#ffc12e" d="m 12.000001,1042.3622 c -0.114877,10e-5 -0.225771,0.046 -0.307113,0.1297 l -2.5518255,2.3176 c -0.273062,0.2801 -0.1294515,1.1081 0.2568575,1.1083 l 2.602081,0.4444 2.60208,-0.4444 c 0.386304,-2e-4 0.52992,-0.8282 0.256858,-1.1083 l -2.551826,-2.3176 c -0.08134,-0.083 -0.192235,-0.1296 -0.307112,-0.1297 z"/>
  <ellipse cx="158.03" cy="1015.883" rx="2.036" ry="1.963" transform="matrix(-0.97032493,0.24180472,0.15783338,0.98746576,0,0)" style="opacity:0.6;fill-rule:evenodd"/>
  <ellipse cx="814.976" cy="549.818" rx=".586" ry=".884" transform="matrix(0.52938519,0.84838159,-0.77241219,0.63512157,0,0)" style="opacity:0.76381908;fill:#ffffff;fill-rule:evenodd"/>
  <ellipse style="opacity:0.6;fill-rule:evenodd" cx="181.816" cy="1010.058" rx="2.036" ry="1.963" transform="matrix(0.97032493,0.24180472,-0.15783338,0.98746576,0,0)"/>
  <ellipse style="opacity:0.76381908;fill:#ffffff;fill-rule:evenodd" cx="821.382" cy="541.262" rx=".586" ry=".884" transform="matrix(0.52938519,0.84838159,-0.77241219,0.63512157,0,0)"/>
  <path style="opacity:0.2;fill:#ffffff" d="M 12 14 C 11.885123 14.0001 11.774701 14.045206 11.693359 14.128906 L 9.140625 16.447266 C 8.9952363 16.596402 8.9744656 16.894349 9.0390625 17.146484 C 9.0622367 17.069098 9.0917326 16.997418 9.140625 16.947266 L 11.693359 14.628906 C 11.774701 14.545206 11.885123 14.5001 12 14.5 C 12.114877 14.5001 12.225301 14.545906 12.306641 14.628906 L 14.859375 16.947266 C 14.908267 16.997418 14.937764 17.069098 14.960938 17.146484 C 15.025535 16.894349 15.004764 16.596402 14.859375 16.447266 L 12.306641 14.128906 C 12.225301 14.045906 12.114877 14.0001 12 14 z" transform="translate(0,1028.3622)"/>
  <path style="opacity:0.2;fill:#ffffff" d="M 12 2 L 11.046875 3.5 L 10 3 L 9.2910156 4.1582031 C 7.0974918 4.6095031 5.5481338 5.6699031 4.2636719 7.3457031 C 2.0170385 10.276903 2 15.334206 2 18.191406 C 2 18.211063 2.0053653 18.22857 2.0058594 18.248047 C 2.0115118 15.339064 2.1171116 10.646337 4.2636719 7.8457031 C 5.5481338 6.1699031 7.0974918 5.1095031 9.2910156 4.6582031 L 10 3.5 L 11.046875 4 L 12 2.5 L 12.953125 4 L 14 3.5 L 14.708984 4.6582031 C 16.902508 5.1095031 18.451866 6.1699031 19.736328 7.8457031 C 21.882882 10.646337 21.988488 15.339064 21.994141 18.248047 C 21.994635 18.22857 22 18.211063 22 18.191406 C 22 15.334206 21.982955 10.276903 19.736328 7.3457031 C 18.451866 5.6699031 16.902508 4.6095031 14.708984 4.1582031 L 14 3 L 12.953125 3.5 L 12 2 z" transform="translate(0,1028.3622)"/>
 </g>
</svg>
