<svg xmlns="http://www.w3.org/2000/svg" height="24" width="24" version="1.1">
 <rect style="opacity:.2" rx="1" ry="1" height="15" width="16" y="2.5" x="4"/>
 <rect style="opacity:.2" rx="1.3135593" ry="1" height="6" width="3" y="16.5" x="7"/>
 <rect style="opacity:.2" rx="1.5" ry="1" height="6" width="3" y="16.5" x="14"/>
 <rect style="fill:#4f4f4f" rx="1.3135593" ry="1" height="6" width="3" y="16" x="7"/>
 <rect style="fill:#4f4f4f" rx="1.5" ry="1" height="6" width="3" y="16" x="14"/>
 <rect style="fill:#c9c9c9" rx="1" ry="1" height="15" width="16" y="2" x="4"/>
 <path style="opacity:.1;fill:#ffffff" d="m5 2c-0.554 0-1 0.446-1 1v0.5c0-0.554 0.446-1 1-1h14c0.554 0 1 0.446 1 1v-0.5c0-0.554-0.446-1-1-1z"/>
 <rect style="opacity:.2" rx="1" ry="1" height="12" width="12" y="7.5" x="6"/>
 <rect style="fill:#e4e4e4" rx="1" ry="1" height="12" width="12" y="7" x="6"/>
 <rect style="opacity:.1" rx="1" ry="1" height="6" width="10" y="8.5" x="7"/>
 <rect style="fill:#4f4f4f" rx="1" ry="1" height="6" width="10" y="8" x="7"/>
 <path style="opacity:.2;fill:#ffffff" d="m7 7c-0.554 0-1 0.446-1 1v0.5c0-0.554 0.446-1 1-1h10c0.554 0 1 0.446 1 1v-0.5c0-0.554-0.446-1-1-1z"/>
</svg>
