<svg xmlns="http://www.w3.org/2000/svg" width="24" height="24" version="1.1">
 <g style="fill:#3f89db" transform="translate(0.9999998,0.9999987)">
  <path style="font-variation-settings:normal;opacity:0.2;stop-color:#000000" d="M 4.0909094,1.5000013 C 3.4865455,1.5000013 3,1.9778584 3,2.5714298 V 20.428572 C 3,21.022143 3.4865455,21.5 4.0909094,21.5 H 17.909091 C 18.513454,21.5 19,21.022143 19,20.428572 V 2.5714298 C 19,1.9778584 18.513454,1.5000013 17.909091,1.5000013 Z"/>
  <path style="fill:#3f89db" d="M 4.0909094,1.0000013 C 3.4865455,1.0000013 3,1.4778585 3,2.0714298 V 19.928572 C 3,20.522143 3.4865455,21 4.0909094,21 H 17.909091 C 18.513454,21 19,20.522143 19,19.928572 V 2.0714298 C 19,1.4778585 18.513454,1.0000013 17.909091,1.0000013 Z"/>
  <g transform="matrix(0.5,0,0,0.5,-2.7924883,-4.7290939)">
   <path style="fill:none;stroke:#dfdfdf;stroke-width:1.74257;stroke-linecap:round;stroke-linejoin:round" d="m 27.42656,27.97304 v 5.227723 c 0,1.306932 -0.871287,1.742575 -1.742574,1.742575 -0.871287,0 -1.742575,-0.435643 -1.742575,-1.742575 V 27.97304 m 0,0 v 5.227723 c 0,1.306932 -0.871287,1.742575 -1.742574,1.742575 -0.871287,0 -1.742575,-0.435643 -1.742575,-1.742575 V 27.97304"/>
   <path style="fill:none;stroke:#dfdfdf;stroke-width:1.30693;stroke-linecap:round;stroke-linejoin:round" d="m 32.21864,32.547299 c 0,1.299089 0.10891,2.613862 -1.306931,2.613862 -1.415841,0 -1.30693,-1.314773 -1.30693,-2.613862 0,-1.300396 -0.10891,-2.613862 1.30693,-2.613862 1.415841,0 1.306931,1.313466 1.306931,2.613862 z"/>
   <path style="fill:none;stroke:#dfdfdf;stroke-width:1.30693;stroke-linecap:round;stroke-linejoin:round" d="m 36.575076,35.161161 -1.30693,-1.960397 m -1.306932,-0.653465 c 0,0 2.613862,0.217822 2.613862,-1.306931 0,-1.524753 -2.613862,-1.306931 -2.613862,-1.306931 v 5.227724"/>
   <path style="fill:none;stroke:#dfdfdf;stroke-width:1.30693;stroke-linecap:round;stroke-linejoin:round" d="m 40.931512,32.547282 c 0,-2.613862 -2.613861,-2.613862 -2.613861,-2.613862 v 5.227724 c 0,0 2.613861,0 2.613861,-2.613862 z"/>
  </g>
  <path style="font-variation-settings:normal;opacity:0.2;stop-color:#000000" d="M 4.0909094,1.0000013 C 3.4865455,1.0000013 3,1.4778585 3,2.0714298 V 19.928572 C 3,20.522143 3.4865455,21 4.0909094,21 H 6.0000002 V 1.0000013 Z"/>
  <path style="font-variation-settings:normal;opacity:0.2;fill:#ffffff;stop-color:#000000" d="m 4.0908209,1.0000012 c -0.6043641,0 -1.0908205,0.4777177 -1.0908205,1.071289 v 0.5 c 0,-0.5935714 0.4864564,-1.071289 1.0908205,-1.071289 H 17.909179 c 0.604363,0 1.09082,0.4777176 1.09082,1.071289 v -0.5 c 0,-0.5935713 -0.486457,-1.071289 -1.09082,-1.071289 z"/>
 </g>
</svg>
