<svg xmlns="http://www.w3.org/2000/svg" width="24" height="24" version="1.1">
 <circle style="opacity:0.2" cx="12" cy="12.5" r="10"/>
 <circle style="fill:#c8c8c8" cx="12" cy="12" r="10"/>
 <path style="opacity:0.1;fill:none;stroke:#000000;stroke-linecap:round;stroke-linejoin:round" d="M 12.014835,3.9997841 A 8.5,8.5 0 0 1 19.841574,9.2195697 8.5,8.5 0 0 1 18.062629,18.4575"/>
 <path style="fill:none;stroke:#378ef7;stroke-linecap:round;stroke-linejoin:round" d="m 12.014835,3.5000129 a 8.5,8.5 0 0 1 7.826739,5.2197857 8.5,8.5 0 0 1 -1.778945,9.2379304"/>
 <path style="opacity:0.2" d="M 12.000001,18.5 C 15.313709,18.5 18,15.813708 18,12.5 c 0,-3.3137082 -2.686291,-6 -6,-6 -3.3137086,0 -6,2.6862918 -6,6 0,3.313708 2.6862914,6 6.000001,6 z"/>
 <path style="fill:#ffffff" d="m 12.000001,18.038462 c 3.313708,0 5.999999,-2.686292 5.999999,-6 0,-3.3137086 -2.686291,-6.0000005 -6,-6.0000005 -3.3137086,0 -6,2.6862919 -6,6.0000005 0,3.313708 2.6862914,6 6.000001,6 z"/>
 <circle style="fill:#3c4145" cx="15.5" cy="15.5" r=".5"/>
 <path style="opacity:0.2;fill:#ffffff" d="M 12,2 A 10,10 0 0 0 2,12 10,10 0 0 0 2.01075,12.291 10,10 0 0 1 12,2.5 10,10 0 0 1 21.9895,12.209 10,10 0 0 0 22,12 10,10 0 0 0 12,2 Z"/>
 <path style="fill:none;stroke:#3c4145;stroke-linecap:round;stroke-linejoin:round" d="m 11.5,11.5 2,2"/>
 <path style="fill:#89949a" d="M 12.25,19.5 A 0.25,0.25 0 0 0 12,19.75 v 1 A 0.25,0.25 0 0 0 12.25,21 0.25,0.25 0 0 0 12.5,20.75 v -1 A 0.25,0.25 0 0 0 12.25,19.5 Z"/>
 <path style="fill:#89949a" d="M 4.5,11.75 A 0.25,0.25 0 0 0 4.25,11.5 h -1 A 0.25,0.25 0 0 0 3,11.75 0.25,0.25 0 0 0 3.25,12 h 1 A 0.25,0.25 0 0 0 4.5,11.75 Z"/>
 <path style="fill:#89949a" d="m 6.696699,17.303301 a 0.25,0.25 0 0 0 -0.353553,0 l -0.707107,0.707106 a 0.25,0.25 0 0 0 0,0.353554 0.25,0.25 0 0 0 0.3535535,0 L 6.696699,17.656854 a 0.25,0.25 0 0 0 0,-0.353553 z"/>
 <path style="fill:#89949a" d="m 6.696699,6.696699 a 0.25,0.25 0 0 1 -0.353553,0 L 5.636039,5.989592 a 0.25,0.25 0 0 1 0,-0.353553 0.25,0.25 0 0 1 0.3535535,0 L 6.696699,6.3431455 a 0.25,0.25 0 0 1 0,0.3535535 z"/>
</svg>
