<svg xmlns="http://www.w3.org/2000/svg" width="24" height="24" version="1.1">
 <rect style="opacity:0.2" width="20.001" height="15" x="2" y="4.5" rx="2" ry="2"/>
 <path style="fill:#07b5ea" d="M 4,4 C 2.8919723,4 2,4.8919723 2,6 v 9.6 H 22 V 6 C 22,4.8919723 21.108028,4 20,4 Z"/>
 <path style="opacity:0.2;fill:#ffffff" d="M 4.0000501,3.9996119 C 2.8920223,3.9996119 2,4.8916342 2,5.999662 V 6.4996745 C 2,5.3916467 2.8920223,4.4996244 4.0000501,4.4996244 H 20.000451 c 1.108027,0 2.00005,0.8920223 2.00005,2.0000501 V 5.999662 c 0,-1.1080278 -0.892023,-2.0000501 -2.00005,-2.0000501 z"/>
 <rect style="opacity:0.7;fill:#ffe033" width="7" height="1" x="9" y="12"/>
 <path style="opacity:0.2" d="m 6.0001007,6.4998999 c 1.1045846,0 2.00005,0.8954654 2.00005,2.00005 0,1.1045847 -0.8954654,2.0000501 -2.00005,2.0000501 -1.1046319,0 -2.0000506,-0.8954654 -2.0000506,-2.0000501 0,-1.1045846 0.8954187,-2.00005 2.0000506,-2.00005 z"/>
 <path style="fill:#ffb824" d="m 6.0001007,5.9998873 c 1.1045846,0 2.00005,0.8954655 2.00005,2.0000501 0,1.1045847 -0.8954654,2.0000501 -2.00005,2.0000501 -1.1046319,0 -2.0000506,-0.8954654 -2.0000506,-2.0000501 0,-1.1045846 0.8954187,-2.0000501 2.0000506,-2.0000501 z"/>
 <path style="opacity:0.2" d="m 20.653788,6.0006385 c -0.07227,-0.00285 -0.149303,0.00275 -0.227546,0.019531 -0.156485,0.033611 -0.315508,0.1089797 -0.436534,0.2304742 l -3.617278,3.63095 a 0.47065317,0.4711247 0 0 0 -0.06446,0.096682 c -0.170804,0.07539 -0.307612,0.2431153 -0.307624,0.4296993 v 0.991236 c 9.5e-4,0.07026 0.04506,0.139163 0.07617,0.202154 l -0.462902,0.60646 0.0049,0.0049 -0.481457,0.484387 a 0.47065317,0.4711247 0 0 0 0.333975,0.802737 h 0.98733 a 0.47065317,0.4711247 0 0 0 0.332039,-0.137699 l 0.02246,-0.02246 0.585952,-0.420909 c 0.05858,0.02707 0.12203,0.0796 0.186529,0.08106 h 0.986353 c 0.2113,3.28e-4 0.369306,-0.138362 0.436534,-0.313484 a 0.47065317,0.4711247 0 0 0 0.09766,-0.06543 l 3.617278,-3.629974 -0.03418,0.030276 c 0.137957,-0.1140617 0.248924,-0.2703912 0.29103,-0.443376 0.04211,-0.1729848 0.01131,-0.339607 -0.03614,-0.4560659 C 22.876833,7.957202 22.776567,7.8544029 22.723172,7.8063492 l -0.03711,-0.033206 c 0,0 0.01052,0.00848 0.02149,0.01758 L 21.183094,6.261389 C 21.150474,6.223798 21.039531,6.1061131 20.850078,6.0357974 20.793668,6.0148564 20.726053,6.0035164 20.653785,6.0006414 Z"/>
 <path style="fill:#ffe033" d="m 20.653899,5.500319 c -0.07227,-0.00285 -0.149708,0.00345 -0.22795,0.02024 -0.156486,0.033611 -0.315572,0.1085242 -0.436598,0.2300187 l -3.616865,3.6306094 a 0.47065317,0.4711247 0 0 0 0,0.6652139 l 2.067174,2.074765 a 0.47065317,0.4711247 0 0 0 0.666386,0 L 22.722911,8.4905558 22.6889,8.5209166 C 22.82685,8.4068602 22.938165,8.2504263 22.980271,8.0774415 23.022377,7.9044567 22.990951,7.738464 22.943505,7.6220051 22.872342,7.4473167 22.762942,7.338863 22.712798,7.2953789 l 0.01011,0.01104 -0.03677,-0.033121 c 0,0 0.01018,0.00838 0.02114,0.01748 L 21.183321,5.761621 C 21.1507,5.7240301 21.039121,5.6065186 20.849668,5.5362029 20.793257,5.5152623 20.726157,5.503197 20.653889,5.500322 Z"/>
 <path style="fill:#ffe033" d="m 16.457967,11.066763 a 0.47065317,0.4711247 0 0 0 -0.333652,0.138011 l -0.98717,0.991839 a 0.47065317,0.4711247 0 0 0 0.333652,0.803224 h 0.98717 A 0.47065317,0.4711247 0 0 0 16.7907,12.861826 l 0.493586,-0.49592 a 0.47065317,0.4711247 0 0 0 0,-0.665213 L 16.7907,11.204774 a 0.47065317,0.4711247 0 0 0 -0.332733,-0.138011 z"/>
 <path style="opacity:0.2;fill:#ffffff" d="m 20.653788,5.500626 c -0.07227,-0.00285 -0.149303,0.00275 -0.227546,0.019531 -0.156485,0.033611 -0.315508,0.1089797 -0.436534,0.2304742 L 16.37243,9.3815811 a 0.47065317,0.4711247 0 0 0 -0.05469,0.5820456 0.47065317,0.4711247 0 0 1 0.05469,-0.08301 l 3.617278,-3.6299739 c 0.121026,-0.1214945 0.280049,-0.1968634 0.436534,-0.2304742 0.07824,-0.01679 0.155276,-0.023361 0.227546,-0.020511 0.07227,0.0029 0.139882,0.015195 0.196293,0.036136 0.189453,0.070316 0.300396,0.1880007 0.333016,0.2255916 L 22.70755,7.79072 C 22.69658,7.78162 22.68606,7.77314 22.68606,7.77314 l 0.03711,0.033206 c 0.05342,0.048096 0.153702,0.1509518 0.220709,0.3154379 0.0043,0.010715 0.0077,0.023636 0.01172,0.035156 0.0098,-0.026066 0.01785,-0.052133 0.02442,-0.079104 0.04211,-0.1729848 0.01131,-0.339607 -0.03614,-0.4560659 C 22.876836,7.4571855 22.77657,7.3543864 22.723175,7.3063327 l -0.03711,-0.033206 c 0,0 0.01052,0.00848 0.02149,0.017581 L 21.183097,5.7613725 C 21.150477,5.7237816 21.039534,5.6060966 20.850081,5.5357808 20.79367,5.5148403 20.726056,5.5035 20.653788,5.500626 Z"/>
 <path style="fill:#515151" d="m 16.535563,9.4391531 c -0.07398,-0.00593 -0.148306,0.00574 -0.216919,0.034046 -0.175814,0.072939 -0.318281,0.2446887 -0.318293,0.4351944 v 0.9909185 c 9.5e-4,0.07026 0.04544,0.139424 0.07656,0.202415 l -0.463594,0.606117 1.161797,1.159096 0.624071,-0.4478 c 0.05858,0.02707 0.122088,0.07922 0.186588,0.08068 h 0.98625 c 0.419582,6.5e-4 0.630239,-0.544493 0.333652,-0.841583 L 16.831531,9.5762475 C 16.752349,9.4967035 16.647389,9.4480863 16.535564,9.4391566 Z"/>
 <path style="fill:#3f3f3f" d="m 2,15.4999 v -0.521246 c 0,0 1.4422868,-0.868711 1.8477796,-0.944509 0.4054928,-0.0758 0.8843423,-0.01411 1.3765146,0.07059 0.4921189,0.08446 1.2268573,0.198691 1.4561965,0.205794 0.2292857,0.0073 0.6442826,-0.01824 1.1264282,-0.04481 0.4821451,-0.02608 1.2804586,-0.05006 1.5294783,-0.04744 0.2490192,0 0.8706348,0.03128 1.5332648,0.06816 0.66263,0.03702 1.572786,0.09886 1.779298,0.116178 0.206458,0.01718 0.449238,0.04899 0.724658,0.08363 0.275474,0.0344 0.752339,0.0864 0.92109,0.100659 0.168698,0.01406 0.5598,0.06315 1.013625,0.101243 0.453772,0.03805 1.18003,0.05108 1.389742,0.03702 0.209712,-0.01411 0.649296,-0.155779 1.139228,-0.286359 0.489879,-0.13053 1.030053,-0.250016 1.440943,-0.220486 0.41089,0.02973 2.722255,0.76027 2.722255,0.76027 V 15.49984 H 19.000426 16.571778 14.143184 11.714537 9.2858889 6.8572416 4.4286313 Z"/>
 <path style="fill:#1c65c5" d="m 2,15.4999 v 1.500037 c 0,1.108028 0.8920223,2.00005 2.0000501,2.00005 H 20.000451 c 1.108027,0 2.00005,-0.892022 2.00005,-2.00005 V 15.4999 Z"/>
 <path style="opacity:0.5;fill:#3f3f3f" d="m 2,15.4999 v 0.347486 c 0,0 1.4422868,0.57906 1.8477796,0.629609 0.4054928,0.0506 0.8843423,0.0096 1.3765146,-0.04687 0.4921189,-0.05627 1.2268573,-0.132463 1.4561965,-0.137185 0.2292857,-0.0053 0.6442826,0.01223 1.1264282,0.02982 0.4821451,0.0176 1.2804586,0.03355 1.5294783,0.03141 0.2490192,0 0.8706348,-0.02078 1.5332648,-0.04528 0.66263,-0.02446 1.572786,-0.06586 1.779298,-0.07734 0.206458,-0.01173 0.449238,-0.03251 0.724658,-0.05582 0.275474,-0.02292 0.752339,-0.05751 0.92109,-0.06705 0.168698,-0.0096 0.5598,-0.0421 1.013625,-0.06755 0.453772,-0.02555 1.18003,-0.03404 1.389742,-0.02445 0.209712,0.0095 0.649296,0.103833 1.139228,0.190866 0.489879,0.08698 1.030053,0.16666 1.440943,0.146977 0.41089,-0.01973 2.722255,-0.506784 2.722255,-0.506784 V 15.500298 H 19.000426 16.571778 14.143184 11.714537 9.2858889 6.8572416 4.4286313 Z"/>
 <path style="opacity:0.2;fill:#ffffff" d="m 6.0001002,5.9998873 c -1.1046319,0 -2.0000501,0.8954655 -2.0000501,2.0000501 0,0.084791 0.00636,0.1679907 0.016602,0.2500063 0.1231832,-0.9864197 0.9636103,-1.7500438 1.9834481,-1.7500438 1.019794,0 1.860259,0.7636241 1.9834481,1.7500438 0.010242,-0.082016 0.016602,-0.1652157 0.016602,-0.2500063 0,-1.1045846 -0.8954654,-2.0000501 -2.0000501,-2.0000501 z"/>
</svg>
