<svg xmlns="http://www.w3.org/2000/svg" width="24" height="24" version="1.1">
 <rect style="opacity:0.2" width="14" height="19" x="5" y="2.5" ry=".617"/>
 <rect style="fill:#e4e4e4" width="14" height="19" x="5" y="2" ry=".617"/>
 <path style="opacity:0.2" d="m 17.441406,12.910156 -3.074218,1.744141 A 6,4 0 0 0 10,18.5 a 6,4 0 0 0 6,4 6,4 0 0 0 6,-4 6,4 0 0 0 -0.394531,-1.425781 l 1.085937,-3.78711 -2.386718,2.427735 a 6,4 0 0 0 -3.957032,-1.207032 z"/>
 <rect style="fill:#11bced" width="4" height="1" x="6" y="13" rx="0" ry=".5"/>
 <rect style="fill:#383838" width="12" height="1" x="6" y="16" rx="0" ry=".5"/>
 <ellipse style="fill:#3f3f3f" cx="16" cy="18" rx="6" ry="4"/>
 <path style="fill:#3f3f3f" d="m 12.196966,20.067921 -0.496509,-4.39995 5.741317,-3.258358 z"/>
 <path style="fill:#3f3f3f" d="m 20.692438,19.755588 -1.8068,-3.09485 3.806368,-3.87376 z"/>
 <path style="opacity:0.2" d="m 13,15.5 a 1,1.5 0 0 0 -1,1.5 1,1.5 0 0 0 1,1.5 1,1.5 0 0 0 1,-1.5 1,1.5 0 0 0 -1,-1.5 z m 5,0 a 1,1.5 0 0 0 -1,1.5 1,1.5 0 0 0 1,1.5 1,1.5 0 0 0 1,-1.5 1,1.5 0 0 0 -1,-1.5 z"/>
 <ellipse style="fill:#e7e7e5" cx="13" cy="16.5" rx="1" ry="1.5"/>
 <ellipse style="fill:#e7e7e5" cx="18" cy="16.5" rx="1" ry="1.5"/>
 <ellipse style="fill:#0b3461" cx="13.25" cy="16.5" rx=".75" ry="1"/>
 <ellipse style="fill:#0b3461" cx="18.25" cy="16.5" rx=".75" ry="1"/>
 <rect style="fill:#383838" width="12" height="1" x="6" y="7" rx="0" ry=".5"/>
 <rect style="fill:#11bced" width="8" height="1" x="6" y="4" rx="0" ry=".5"/>
 <rect style="fill:#383838" width="12" height="1" x="6" y="10" rx="0" ry=".5"/>
 <path style="fill:#dcd7cb" d="m 15.882813,18.500007 a 4.3226385,0.39996487 0 0 0 -4.289063,0.399852 h -10e-4 a 4.3226385,2.6563536 0 0 0 0,0.0019 4.3226385,2.6563536 0 0 0 4.367188,2.598089 4.3226385,2.6563536 0 0 0 4.270508,-2.587617 4.3226385,0.39996487 0 0 0 0.0078,-0.01237 l -0.001,-0.0038 a 4.3226385,0.39996487 0 0 0 -0.0049,-0.0057 4.3226385,2.6563536 0 0 0 0.0049,-0.04665 h -0.04395 a 4.3226385,0.39996487 0 0 0 -4.310497,-0.343686 z"/>
 <path style="fill:#ad4b59;stroke:#1d1714;stroke-width:0.169144px" d="m 14.125312,19.399531 c 0,0 0.356875,0.827417 0.964226,-0.0052 0.607351,-0.832649 0.41683,-0.810096 0.41683,-0.810096 0.543985,1.578434 0.896227,1.198313 1.300758,1.028687 l 0.356178,-0.149352 c 0,0 -1.215197,1.815184 -1.864699,1.387651 -0.649501,-0.42753 -1.173293,-1.451659 -1.173293,-1.451659 z"/>
 <path style="opacity:0.2;fill:#ffffff" d="M 5.6171875,2 C 5.2756465,2 5,2.2756465 5,2.6171875 v 0.5 C 5,2.7756465 5.2756465,2.5 5.6171875,2.5 H 18.382812 C 18.724354,2.5 19,2.7756465 19,3.1171875 v -0.5 C 19,2.2756465 18.724354,2 18.382812,2 Z"/>
</svg>
