<svg xmlns="http://www.w3.org/2000/svg" width="24" height="24" version="1">
 <rect style="fill:#bfbfbf" width="20" height="20" x="2" y="2" rx="1" ry="1"/>
 <path style="opacity:0.2;fill:#ffffff" d="M 2,3.5 V 3 C 2,2.446 2.446,2 3,2 h 18 c 0.554,0 1,0.446 1,1 v 0.5 c 0,-0.554 -0.446,-1 -1,-1 H 3 c -0.554,0 -1,0.446 -1,1 z"/>
 <path style="opacity:0.2" d="m 2,21 v 0.5 c 0,0.554 0.446,1 1,1 h 18 c 0.554,0 1,-0.446 1,-1 V 21 c 0,0.554 -0.446,1 -1,1 H 3 C 2.446,22 2,21.554 2,21 Z"/>
 <path style="opacity:0.1" d="m 14,8.652188 -4,2.5 V 12.8475 l 4,2.5 1.059571,-1.695312 -2.643555,-1.652344 2.643555,-1.652344 z m 5,0 -4,2.5 V 12.8475 l 4,2.5 1.05957,-1.695312 L 17.416015,11.999844 20.05957,10.3475 Z M 4,9.499844 v 2 h 5 v -2 z M 4,12.5 v 2 h 5 v -2 z"/>
 <path style="fill:none;stroke:#d5498f;stroke-width:2;stroke-linejoin:bevel" d="m 19.529999,9 -4,2.5 4,2.5"/>
 <path style="fill:none;stroke:#a659ca;stroke-width:2;stroke-linejoin:bevel" d="m 14.529999,9 -4,2.5 4,2.5"/>
 <rect style="fill:#2f8ce3" width="5" height="2" x="4" y="9"/>
 <rect style="fill:#2f8ce3" width="5" height="2" x="4" y="12"/>
</svg>
