<svg xmlns="http://www.w3.org/2000/svg" width="24" height="24" version="1">
 <rect style="opacity:0.2" width="20" height="16" x="-22.5" y="-20" rx="1" ry="1" transform="matrix(0,-1,-1,0,0,0)"/>
 <rect style="fill:#8e8e8e" width="20" height="16" x="-22" y="-20" rx="1" ry="1" transform="matrix(0,-1,-1,0,0,0)"/>
 <path style="opacity:0.2;fill:#ffffff" d="M 5,2 C 4.446,2 4,2.446 4,3 v 0.5 c 0,-0.554 0.446,-1 1,-1 h 14 c 0.554,0 1,0.446 1,1 V 3 C 20,2.446 19.554,2 19,2 Z"/>
 <path style="opacity:0.5" d="m 6.3708345,6.7500005 0.9150635,3.4150635 3.415064,-0.9150635 -1.2990385,-0.75 C 10.230351,7.065123 12.065122,6.5734975 13.5,7.4019245 14.934878,8.2303515 15.426503,10.065123 14.598076,11.5 13.769649,12.934879 11.934878,13.426504 10.5,12.598077 10.031572,12.326245 9.6454895,11.932648 9.382691,11.459093 L 7.4163615,11.98597 C 7.841521,12.970603 8.5720175,13.792436 9.5,14.330128 11.891462,15.71084 14.949415,14.891464 16.330127,12.500001 17.710838,10.108538 16.891462,7.0505855 14.5,5.6698735 12.108537,4.2891619 9.0505845,5.108538 7.669873,7.5000005 Z"/>
</svg>
