<svg xmlns="http://www.w3.org/2000/svg" width="24" height="24" version="1">
 <rect style="opacity:0.2" width="17.149" height="17.149" x="-8.93" y="8.75" rx="5.145" ry="5.145" transform="rotate(-45)"/>
 <rect style="fill:#4f4f4f" width="17.149" height="17.149" x="-8.57" y="8.4" rx="5.145" ry="5.145" transform="rotate(-45)"/>
 <path style="opacity:0.2;fill-rule:evenodd" d="M 9.0000002,6.5000001 V 12.5 L 12.375,10.25 15.75,12.5 9.0000002,17 v 1.5 L 18,12.5 13.5,9.5000002 Z"/>
 <path style="fill:#79ce24;fill-rule:evenodd" d="M 9.0000002,6.0000001 V 12 L 12.375,9.7500002 15.75,12 9.0000002,16.5 V 18 L 18,12 13.5,9.0000002 Z"/>
 <path style="opacity:0.1;fill:#ffffff" d="M 12,2 C 10.684897,2 9.3700052,2.5040186 8.3623047,3.5117188 L 3.5117188,8.3623047 c -1.0716789,1.071679 -1.5680407,2.4904143 -1.5,3.8876953 0.059917,-1.230447 0.5562785,-2.4439738 1.5,-3.3876953 L 8.3623047,4.0117188 c 2.0154003,-2.0154005 5.2599903,-2.0154005 7.2753913,0 l 4.850585,4.8505859 c 0.943722,0.9437215 1.440084,2.1572483 1.5,3.3876953 0.06804,-1.397281 -0.428321,-2.8160163 -1.5,-3.8876953 L 15.637696,3.5117188 C 14.629995,2.5040186 13.315104,2 12,2 Z"/>
 <path style="opacity:0.2;fill:#ffffff;fill-rule:evenodd" d="m 9.0000002,6.0000001 v 0.5 L 13.5,9.5000002 17.625,12.25 18,12 13.5,9.0000002 Z M 15.375,12.25 9.0000002,16.5 V 17 L 15.75,12.5 Z"/>
</svg>
