<?xml version="1.0" encoding="UTF-8" standalone="no"?>
<svg xmlns="http://www.w3.org/2000/svg" height="24" width="24" version="1">
 <rect transform="matrix(0,-1,-1,0,0,0)" rx="1" ry="1" height="16" width="20" y="-20" x="-22" fill="#5d5d5d"/>
 <path opacity=".2" d="m4 21v0.5c0 0.554 0.446 1 1 1h14c0.554 0 1-0.446 1-1v-0.5c0 0.554-0.446 1-1 1h-14c-0.554 0-1-0.446-1-1z"/>
 <path opacity=".3" style="enable-background:new" d="m12 5c2.7614 0 5 2.2386 5 5s-2.2386 5-5 5h-5v-5c0-2.7614 2.2386-5 5-5zm0 2.5c-1.3807 0-2.5 1.1193-2.5 2.5s1.1193 2.5 2.5 2.5 2.5-1.1193 2.5-2.5-1.1193-2.5-2.5-2.5z"/>
 <path opacity=".1" fill="#fff" d="m5 2c-0.554 0-1 0.446-1 1v0.5c0-0.554 0.446-1 1-1h14c0.554 0 1 0.446 1 1v-0.5c0-0.554-0.446-1-1-1h-14z"/>
 <circle style="enable-background:new" cx="18" cy="18" r="5" fill="#cc5e55"/>
 <path d="m17.244 15-0.06673 0.7902a2.3784 2.3572 0 0 0 -0.6951 0.39844l-0.72465-0.33818-0.75675 1.2991 0.65795 0.45285a2.3784 2.3572 0 0 0 -0.03632 0.3976 2.3784 2.3572 0 0 0 0.03461 0.39928l-0.657 0.4515 0.75675 1.2991 0.72295-0.33733a2.3784 2.3572 0 0 0 0.6968 0.39592l0.06672 0.79185h1.5135l0.06672-0.7902a2.3784 2.3572 0 0 0 0.6951 -0.39844l0.72465 0.33817 0.75675-1.2991-0.65795-0.45285a2.3784 2.3572 0 0 0 0.03632 -0.3976 2.3784 2.3572 0 0 0 -0.03461 -0.39928l0.6565-0.4505-0.75675-1.2991-0.723 0.33734a2.3784 2.3572 0 0 0 -0.6965 -0.396l-0.06672-0.79185h-1.5135zm0.75675 2.1428a0.86485 0.85715 0 0 1 0.864 0.857 0.86485 0.85715 0 0 1 -0.865 0.857 0.86485 0.85715 0 0 1 -0.865 -0.857 0.86485 0.85715 0 0 1 0.865 -0.857z" style="enable-background:new" fill="#fff"/>
</svg>
