<svg width="24" height="24" version="1.1" xmlns="http://www.w3.org/2000/svg">
 <circle cx="12" cy="12.5" r="10" style="opacity:.2"/>
 <circle cx="12" cy="12" r="10" style="fill:#3757a1"/>
 <path d="M 12,2 A 10,10 0 0 0 2,12 10,10 0 0 0 2.0098,12.293 10,10 0 0 1 12,2.5 10,10 0 0 1 21.99,12.207 10,10 0 0 0 22,12 10,10 0 0 0 12,2 Z" style="fill:#ffffff;opacity:.2"/>
 <path d="m12 6.5a6 6 0 0 0-6 6 6 6 0 0 0 6 6 6 6 0 0 0 6-6v-6zm0 1h4.994141c0 0.8022005-0.510406 1.7817152-1.361329 2.767578-0.850922 0.985863-2.01315 1.968576-3.18164 2.830078-1.958622 1.44405-3.623929 2.37049-4.208984 2.689453a5 5 0 0 1-1.242188-3.287109 5 5 0 0 1 5-5zm5 2.638672v2.361328a5 5 0 0 1-5 5 5 5 0 0 1-2.988281-1c0.803296-0.448337 2.246492-1.281792 4.03125-2.597656 1.205104-0.888498 2.41643-1.905785 3.345703-2.982422 0.221166-0.256238 0.424537-0.517435 0.611328-0.78125z" style="opacity:.2"/>
 <path d="m12 6a6 6 0 0 0-6 6 6 6 0 0 0 6 6 6 6 0 0 0 6-6v-6zm0 1h4.994141c0 0.8022005-0.510406 1.7817152-1.361329 2.7675779-0.850922 0.9858631-2.01315 1.9685761-3.18164 2.8300781-1.958622 1.44405-3.623929 2.37049-4.208984 2.689453a5 5 0 0 1-1.242188-3.287109 5 5 0 0 1 5-5zm5 2.6386719v2.3613281a5 5 0 0 1-5 5 5 5 0 0 1-2.988281-1c0.803296-0.448337 2.246492-1.281792 4.03125-2.597656 1.205104-0.888498 2.41643-1.905785 3.345703-2.982422 0.221166-0.256238 0.424537-0.5174351 0.611328-0.7812501z" style="fill:#ffffff"/>
</svg>
