<svg xmlns="http://www.w3.org/2000/svg" width="24" height="24" version="1">
 <g transform="translate(1,1)">
  <path fill="#6eaa36" d="m11 1c-5.5225 0-10 4.477-10 10s4.4775 10 10 10c5.522 0 10-4.477 10-10s-4.478-10-10-10z"/>
  <path opacity=".2" d="m10.993 3.5c-3.0679 0-4.8212 1.2561-5.9651 2.6715 0.87668 0.24046 1.4893 0.44068 1.6867 0.50601 0.00237-0.13256 0.023577-1.3267 0.023577-1.3267l0.01723-0.038086 0.044433-0.013604c0.26975 0.039001 6.0217 0.8896 8.4443 2.3015 0.29993 0.17643 0.44724 0.36055 0.63296 0.55044 0.66951 0.69226 1.5589 3.5739 1.6531 4.1696l-0.03809 0.06167c-0.03455 0.01278-0.11913 0.07164-0.22943 0.14691-0.56518 0.39525-1.8868 1.3203-3.581 1.1698-1.5237-0.13585-3.5116-1.0098-5.9098-2.589 0.10558 0.249 0.60406 1.4326 0.68737 1.6314l0.03446 0.04081c0.34729 0.1794 3.6791 1.8781 5.3321 1.8436 1.334-0.02651 2.7581-0.6775 3.328-1.0193l0.18136-0.03446c0.05065 0.03976 0.04281 0.11714 0.02721 0.18862-0.03503 0.16331-0.11332 0.46296-0.16776 0.60213l-0.04443 0.11607c-0.06485 0.17231-0.12819 0.33859-0.24938 0.438-0.3361 0.30578-0.87413 0.54761-1.7139 0.91589-1.2988 0.56755-3.4034 0.92455-5.3593 0.91317-0.6994-0.017-1.3775-0.094-1.9725-0.162-1.2416-0.141-2.2503-0.255-2.8529 0.213 1.4655 1.656 3.6065 2.702 5.992 2.702 4.4182 0 8.0036-3.5815 8.0036-8 0-4.4179-3.5852-8-8.0036-8h-0.000929zm2.1147 4.234c-0.61236 0.00919-1.1886 0.23812-1.6386 0.66017-0.48188 0.44637-0.75938 1.0569-0.78259 1.7139-0.04401 1.3543 1.022 2.4975 2.3768 2.5482 0.6599 0.02131 1.2842-0.21362 1.7647-0.66379 0.47907-0.44781 0.75572-1.0542 0.77987-1.7103 0.04638-1.3562-1.0196-2.4994-2.3768-2.5482-0.0411-0.00135-0.08251-0.0006035-0.12333 0zm-0.06529 0.72546c0.05647-0.00344 0.11048-0.00214 0.16776 0 0.94628 0.033151 1.6903 0.82647 1.6586 1.7747-0.01421 0.45635-0.20852 0.88406-0.54319 1.1979-0.33559 0.31148-0.77182 0.47215-1.2315 0.45795-0.94581-0.03505-1.6871-0.83154-1.6559-1.7783 0.01467-0.45821 0.21131-0.88186 0.54409-1.1943 0.292-0.27379 0.66482-0.43391 1.0601-0.45795zm0.451 0.8587c-0.42176 0-0.76264 0.22845-0.76264 0.50964 0 0.27929 0.34086 0.50964 0.76264 0.50964 0.42038 0 0.75901-0.22987 0.75901-0.50964 0-0.28118-0.33865-0.50964-0.75901-0.50964z"/>
  <path fill="#fff" d="m10.993 3c-3.0679 0-4.8212 1.2561-5.9651 2.6715 0.87668 0.24046 1.4893 0.44068 1.6867 0.50601 0.00237-0.13256 0.023577-1.3267 0.023577-1.3267l0.01723-0.038086 0.044433-0.013604c0.26975 0.039001 6.0217 0.8896 8.4443 2.3015 0.29993 0.17643 0.44724 0.36055 0.63296 0.55044 0.66951 0.69226 1.5589 3.5739 1.6531 4.1696l-0.03809 0.06167c-0.03455 0.01278-0.11913 0.07164-0.22943 0.14691-0.56518 0.39525-1.8868 1.3203-3.581 1.1698-1.5237-0.13585-3.5116-1.0098-5.9098-2.589 0.10558 0.249 0.60406 1.4326 0.68737 1.6314l0.03446 0.04081c0.34729 0.1794 3.6791 1.8781 5.3321 1.8436 1.334-0.02651 2.7581-0.6775 3.328-1.0193l0.18136-0.03446c0.05065 0.03976 0.04281 0.11714 0.02721 0.18862-0.03503 0.16331-0.11332 0.46296-0.16776 0.60213l-0.04443 0.11607c-0.06485 0.17231-0.12819 0.33859-0.24938 0.438-0.3361 0.30578-0.87413 0.54761-1.7139 0.91589-1.2988 0.56755-3.4034 0.92455-5.3593 0.91317-0.6994-0.017-1.3775-0.094-1.9725-0.162-1.2416-0.141-2.2503-0.255-2.8529 0.213 1.4655 1.6563 3.6065 2.7023 5.9923 2.7023 4.4182 0 8.0036-3.5815 8.0036-8 0-4.4179-3.5852-8-8.0036-8h-0.000929zm2.1147 4.234c-0.61236 0.00919-1.1886 0.23812-1.6386 0.66017-0.48188 0.44637-0.75938 1.0569-0.78259 1.7139-0.04401 1.3543 1.022 2.4975 2.3768 2.5482 0.6599 0.02131 1.2842-0.21362 1.7647-0.66379 0.47907-0.44781 0.75572-1.0542 0.77987-1.7103 0.04638-1.3562-1.0196-2.4994-2.3768-2.5482-0.0411-0.00135-0.08251-0.0006035-0.12333 0zm-0.06529 0.72546c0.05647-0.00344 0.11048-0.00214 0.16776 0 0.94628 0.033151 1.6903 0.82647 1.6586 1.7747-0.01421 0.45635-0.20852 0.88406-0.54319 1.1979-0.33559 0.31148-0.77182 0.47215-1.2315 0.45795-0.94581-0.03505-1.6871-0.83154-1.6559-1.7783 0.01467-0.45821 0.21131-0.88186 0.54409-1.1943 0.292-0.27379 0.66482-0.43391 1.0601-0.45795zm0.451 0.8587c-0.42176 0-0.76264 0.22845-0.76264 0.50964 0 0.27929 0.34086 0.50964 0.76264 0.50964 0.42038 0 0.75901-0.22987 0.75901-0.50964 0-0.28118-0.33865-0.50964-0.75901-0.50964z"/>
  <path fill="#fff" opacity=".2" d="m11 1c-5.5225 0-10 4.477-10 10 0 0.084 0.0038 0.167 0.0059 0.25 0.1331-5.4071 4.5554-9.75 9.9941-9.75s9.861 4.3429 9.9941 9.75c0.002-0.083 0.006-0.166 0.006-0.25 0-5.523-4.478-10-10-10z"/>
  <path opacity=".2" d="m1.0059 11.25c-0.0021 0.083-0.0059 0.166-0.0059 0.25 0 5.523 4.4775 10 10 10s10-4.477 10-10c0-0.08384-0.0038-0.16666-0.0059-0.25-0.133 5.407-4.555 9.75-9.994 9.75-5.4387 0-9.861-4.343-9.9941-9.75z"/>
 </g>
</svg>
