<svg xmlns="http://www.w3.org/2000/svg" width="24" height="24" version="1.1">
 <path style="opacity:0.2" d="m 12,2.5 a 10,10 0 0 0 -10,10 10,10 0 0 0 10,10 10,10 0 0 0 10,-10 10,10 0 0 0 -10,-10 z"/>
 <path style="fill:#3f3f3f" d="M 12,2 A 10,10 0 0 0 2,12 10,10 0 0 0 12,22 10,10 0 0 0 22,12 10,10 0 0 0 12,2 Z"/>
 <path style="opacity:0.1;fill:#ffffff" d="M 12,2 A 10,10 0 0 0 2.0705,10.926 10,9.5 0 0 1 12,2.5 10,9.5 0 0 1 21.961,11.2235 10,10 0 0 0 12,2 Z m 9.961,9.2235 A 10,10 0 0 1 22,12 10,9.5 0 0 0 21.961,11.2235 Z M 2.0705,10.926 A 10,9.5 0 0 0 2.0461,11.122 10,10 0 0 1 2.0705,10.926 Z M 2.0461,11.122 A 10,10 0 0 0 2.0002,12 10,9.5 0 0 1 2.0461,11.122 Z"/>
 <path style="opacity:0.2;fill:none;stroke:#000000;stroke-width:1.5" d="m 14.25,14 10e-7,0.75 -1,1 h -2.5 l -1,-1 v -4 l 1,-1 h 2.5 l 1,1 0.02167,2 h -4.093363"/>
 <path style="fill:none;stroke:#eaeaeb;stroke-width:1.5" d="m 14.25,13.5 10e-7,0.75 -1,1 h -2.5 l -1,-1 v -4 l 1,-1 h 2.5 l 1,1 0.02167,2 h -4.093363"/>
 <path style="opacity:0.2;fill:none;stroke:#000000" d="m 6.5,7 v 11 h 11 V 7 Z"/>
 <path style="fill:none;stroke:#eaeaeb" d="m 6.5,6.5 v 11 h 11 v -11 z"/>
</svg>
