<?xml version="1.0" encoding="UTF-8" standalone="no"?>
<svg id="svg2817" xmlns:rdf="http://www.w3.org/1999/02/22-rdf-syntax-ns#" xmlns="http://www.w3.org/2000/svg" height="24" width="24" version="1.0" xmlns:cc="http://creativecommons.org/ns#" xmlns:dc="http://purl.org/dc/elements/1.1/">
    <metadata id="metadata57">
        <rdf:RDF>
            <cc:Work rdf:about="">
                <dc:format>
                    image/svg+xml
                </dc:format>
                <dc:type rdf:resource="http://purl.org/dc/dcmitype/StillImage"/>
                <dc:title/>
            </cc:Work>
        </rdf:RDF>
    </metadata>
    <g id="g4360" transform="translate(1,1)">
        <rect id="rect4203-1" transform="matrix(0,-1,-1,0,0,0)" rx="1" ry="1" height="20" width="20" y="-21" x="-21" fill="#c41f5b"/>
        <path id="path4402" opacity=".2" d="m5 2.5v12l6 6 6-6h-6l6-6h-6l6-6h-12z"/>
        <path id="rect4592" opacity=".2" fill="#fff" d="m2 1c-0.554 0-1 0.446-1 1v0.5c0-0.554 0.446-1 1-1h18c0.554 0 1 0.446 1 1v-0.5c0-0.554-0.446-1-1-1h-18z"/>
        <path id="path4597" opacity=".2" d="m2 21.5c-0.554 0-1-0.446-1-1v-0.5c0 0.554 0.446 1 1 1h18c0.554 0 1-0.446 1-1v0.5c0 0.554-0.446 1-1 1h-18z"/>
        <path id="path4349" d="m17 14h-6v6z" fill="#fff"/>
        <path id="path4351" d="m17 8h-6v6z" fill="#fff"/>
        <path id="path4353" d="m17 2h-6v6z" fill="#ea7aa2"/>
        <path id="path4355" d="m5 14h6v6z" fill="#e0e0e0"/>
        <rect id="rect4357" height="12" width="6" y="2" x="5" fill="#e0e0e0"/>
    </g>
</svg>
