<?xml version="1.0" encoding="UTF-8" standalone="no"?>
<svg id="svg2817" xmlns:rdf="http://www.w3.org/1999/02/22-rdf-syntax-ns#" xmlns="http://www.w3.org/2000/svg" height="24" width="24" version="1.0" xmlns:cc="http://creativecommons.org/ns#" xmlns:dc="http://purl.org/dc/elements/1.1/">
 <metadata id="metadata57">
  <rdf:RDF>
   <cc:Work rdf:about="">
    <dc:format>image/svg+xml</dc:format>
    <dc:type rdf:resource="http://purl.org/dc/dcmitype/StillImage"/>
    <dc:title/>
   </cc:Work>
  </rdf:RDF>
 </metadata>
 <g id="layer4-0" transform="matrix(.90475 0 0 .90475 -716.75 -700.29)">
 </g>
 <g id="layer4-0-7" transform="matrix(.90475 0 0 .90475 -716.75 -693.05)">
 </g>
 <text id="text7276" font-size="12.666px" xml:space="preserve" y="-385.22546" x="435.90427" font-family="&apos;Droid Sans&apos;" fill="#000000"><tspan id="tspan7278" y="-385.22546" x="435.90427"/><tspan id="tspan7280" y="-369.3924" x="435.90427"/></text>
 <g id="g4352" transform="translate(1,1)">
  <rect id="rect4203-0" ry="9.999" rx="10" transform="matrix(0,-1,-1,0,0,0)" height="19.998" width="20" y="-20.999" x="-21" fill="#2496f2"/>
  <path id="rect3436" opacity=".2" fill="#fff" d="m11 1c-5.5395 0-9.999 4.46-9.999 10 0 0.08386-0.002 0.16664 0 0.25 0.1321-5.423 4.5435-9.75 9.999-9.75s9.867 4.3268 9.999 9.75c0.002-0.08335 0-0.16614 0-0.25 0-5.54-4.459-10-9.999-10z"/>
  <path id="rect4209" opacity=".2" d="m1.0058 11.25c-0.002 0.084-0.0058 0.166-0.0058 0.25 0 5.54 4.46 10 10 10s10-4.46 10-10c0-0.084-0.004-0.1665-0.006-0.25-0.132 5.423-4.538 9.75-9.994 9.75s-9.862-4.327-9.994-9.75z"/>
  <path id="path4433" opacity=".2" d="m11 3.5a8 8 0 0 0 -8 8 8 8 0 0 0 8 8 8 8 0 0 0 8 -8 8 8 0 0 0 -8 -8zm-2 2h4c1.108 0 2 1.0189 2 2.2852v1.1426c0 1.2662-2 2.5722-2 2.5722v4.8574c0 0.634-0.946 1.143-1.5 1.143h-1c-0.554 0-1.5613-0.512-1.5-1.143v-4.857s-2-1.306-2-2.5723v-1.1425c0-1.2663 0.892-2.2852 2-2.2852z"/>
  <path id="path4430" d="m11 3a8 8 0 0 0 -8 8 8 8 0 0 0 8 8 8 8 0 0 0 8 -8 8 8 0 0 0 -8 -8zm-2 2h4c1.108 0 2 1.0189 2 2.2852v1.1426c0 1.2662-2 2.5722-2 2.5722v4.8574c0 0.634-0.946 1.143-1.5 1.143h-1c-0.554 0-1.5613-0.512-1.5-1.143v-4.857s-2-1.306-2-2.5723v-1.1425c0-1.2663 0.892-2.2852 2-2.2852z" fill="#fff"/>
 </g>
</svg>
