<svg xmlns="http://www.w3.org/2000/svg" width="24" height="24" version="1">
 <path style="opacity:0.2" d="M 2.00585,12.25 C 2.0038,12.3335 2,12.416 2,12.5 c 0,5.54 4.46,10 10,10 5.54,0 10,-4.46 10,-10 0,-0.08394 -0.0038,-0.16657 -0.0059,-0.25 -0.132,5.423 -4.538,9.75 -9.994,9.75 -5.456,0 -9.862,-4.327 -9.994,-9.75 z"/>
 <rect style="fill:#307ada" width="20" height="20" x="2" y="2" rx="10" ry="10"/>
 <path style="opacity:0.1;fill:#ffffff" d="M 12,2 C 6.46,2 2,6.46 2,12 2,12.084 2.0038,12.1665 2.00585,12.25 2.1382,6.827 6.544,2.5 11.99985,2.5 c 5.45585,0 9.862,4.327 9.994,9.75 0.002,-0.0835 0.006,-0.166 0.006,-0.25 0,-5.54 -4.46,-10 -10,-10 z"/>
 <path style="fill:#3f3f3f" d="m 12,5 c -3.866,0 -7,3.134 -7,7 0,3.866 3.134,7 7,7 3.866,0 7,-3.134 7,-7 0,-3.866 -3.134,-7 -7,-7 z"/>
 <path style="opacity:0.2;fill:none;stroke:#000000;stroke-width:2;stroke-linecap:round;stroke-linejoin:round" d="m 2,12.500249 7,0 2,-4.9999988 2,9.9999988 2,-5 7,0"/>
 <path style="fill:none;stroke:#22d3ff;stroke-width:2;stroke-linecap:round;stroke-linejoin:round" d="m 2,12.000249 7,0 2,-4.9999997 2,9.9999997 2,-5 7,0"/>
</svg>
