<svg xmlns="http://www.w3.org/2000/svg" width="24" height="24" version="1.1">
 <path style="opacity:0.2" d="M 12.5,1.4999 C 12.181,1.5055 11.868,1.5872 11.587,1.7383 L 4.3856,5.8172 C 3.9,6.0766 3.4128,6.5305 3.202,7.0312 2.9715,7.5788 2.9827,8.0072 3.0223,8.3303 L 3.0633,16.318 C 3.0779,16.91 3.356,17.466 3.8221,17.833 4.7556,18.569 11.406,22.243 11.406,22.243 11.739,22.43 12.119,22.518 12.5,22.497 12.881,22.518 13.261,22.43 13.594,22.243 13.594,22.243 20.244,18.569 21.178,17.833 21.644,17.466 21.922,16.91 21.937,16.318 L 21.978,8.3303 C 22.017,8.0072 22.028,7.5788 21.798,7.0312 21.587,6.5305 21.1,6.0766 20.614,5.8172 L 13.413,1.7383 C 13.132,1.5872 12.819,1.5055 12.5,1.4999 Z"/>
 <path style="fill:#3f3f3f" d="M 12.5,0.99997 C 12.181,1.0055 11.868,1.0872 11.587,1.2383 L 4.3856,5.3172 C 3.9,5.5766 3.4128,6.0305 3.202,6.5312 2.9715,7.0788 2.9827,7.5072 3.0223,7.8303 L 3.0633,15.818 C 3.0779,16.41 3.356,16.966 3.8221,17.333 4.7556,18.069 11.406,21.743 11.406,21.743 11.739,21.93 12.119,22.018 12.5,21.997 12.881,22.018 13.261,21.93 13.594,21.743 13.594,21.743 20.244,18.069 21.178,17.333 21.644,16.966 21.922,16.41 21.937,15.818 L 21.978,7.8303 C 22.017,7.5072 22.028,7.0788 21.798,6.5312 21.587,6.0305 21.1,5.5766 20.614,5.3172 L 13.413,1.2383 C 13.132,1.0872 12.819,1.0055 12.5,0.99997 Z"/>
 <path style="opacity:0.2" d="M 12.507,5.7513 11.474,6.3699 13.526,7.6302 9.2048,10.128 7.0381,8.9276 7,15.197 8.0578,15.783 8.124,13.362 10.249,14.504 10.292,13.309 8.14,12.037 8.126,10.843 11.36,12.591 11.386,11.419 10.418,10.785 14.721,8.308 16.826,9.5232 12.984,11.647 13,17.706 14.088,17.078 14.107,14.839 17.98,12.692 18,8.8905 Z M 16.875,10.844 16.885,12.013 14.107,13.553 V 12.249 Z M 12.526,3.4395 5,7.691 5.0402,16.267 12.549,20.522 20,16.319 V 7.6905 Z M 12.49,4.6973 18.934,8.3565 18.933,15.586 12.549,19.336 6.1269,15.706 6.0615,8.3848 Z"/>
 <path style="fill:#ffffff" d="M 12.507,5.2513 11.474,5.8699 13.526,7.1302 9.2048,9.6278 7.0381,8.4276 7,14.697 8.0578,15.283 8.124,12.862 10.249,14.004 10.292,12.809 8.14,11.537 8.126,10.343 11.36,12.091 11.386,10.919 10.418,10.285 14.721,7.808 16.826,9.0232 12.984,11.147 13,17.206 14.088,16.578 14.107,14.339 17.98,12.192 18,8.3905 Z M 16.875,10.344 16.885,11.513 14.107,13.053 V 11.749 Z M 12.526,2.9395 5,7.191 5.0402,15.767 12.549,20.022 20,15.819 V 7.1905 Z M 12.49,4.1973 18.934,7.8565 18.933,15.086 12.549,18.836 6.1269,15.206 6.0615,7.8848 Z"/>
 <path style="fill:#ffffff;opacity:0.1" d="M 12.5 1 C 12.181 1.0055 11.869 1.0872 11.588 1.2383 L 4.3848 5.3164 C 3.8992 5.5758 3.412 6.0305 3.2012 6.5312 C 2.9934 7.0248 2.9908 7.4087 3.0195 7.7188 C 3.0435 7.5139 3.0937 7.2865 3.2012 7.0312 C 3.412 6.5305 3.8992 6.0758 4.3848 5.8164 L 11.588 1.7383 C 11.869 1.5872 12.181 1.5056 12.5 1.5 C 12.819 1.5056 13.131 1.5872 13.412 1.7383 L 20.613 5.8164 C 21.099 6.0758 21.588 6.5305 21.799 7.0312 C 21.906 7.2873 21.957 7.5154 21.98 7.7207 C 22.009 7.4104 22.007 7.0258 21.799 6.5312 C 21.588 6.0305 21.099 5.5758 20.613 5.3164 L 13.412 1.2383 C 13.131 1.0872 12.819 1.0055 12.5 1 z"/>
</svg>
