<svg xmlns="http://www.w3.org/2000/svg" width="24" height="24" version="1">
 <rect style="fill:#4454ba" width="20" height="20" x="2" y="2" rx="1" ry="1"/>
 <path style="opacity:0.1;fill:#ffffff" d="M 2,3.5 V 3 C 2,2.446 2.446,2 3,2 h 18 c 0.554,0 1,0.446 1,1 v 0.5 c 0,-0.554 -0.446,-1 -1,-1 H 3 c -0.554,0 -1,0.446 -1,1 z"/>
 <path style="opacity:0.2" d="m 2,21 v 0.5 c 0,0.554 0.446,1 1,1 h 18 c 0.554,0 1,-0.446 1,-1 V 21 c 0,0.554 -0.446,1 -1,1 H 3 C 2.446,22 2,21.554 2,21 Z"/>
 <path style="opacity:0.2" d="M 8.4453125,8.4999518 8.2226562,8.6698737 8,8.8397956 V 11.306593 13.77339 L 9.7636719,15.499952 11,14.552686 l -0.002,-2.855468 -0.0039,-2.8554693 -0.216797,-0.171875 -0.220703,-0.1699219 H 9.75 Z m 3.9980465,0 -0.220703,0.1699219 -0.216797,0.171875 -0.0039,2.8554693 L 12,14.552686 13.236328,15.499952 15,13.77339 V 11.306593 8.8397956 L 14.777344,8.6698737 14.554688,8.4999518 H 13.25 Z m 8.056641,0 -0.757812,0.023437 c -0.554975,-0.0038 -0.752098,-0.00587 -0.757813,-0.00391 L 18,9.9550299 c 0,0 -0.999881,-1.4554498 -1.115234,-1.4277343 l -0.0918,-0.00586 c -0.05027,-0.0033 0.139696,-0.00586 -0.189453,-0.00586 H 16 v 2.5644532 2.716797 l -0.04687,0.03711 c -0.04204,0.03022 -0.05079,0.04126 -0.04102,0.05078 l 1.076172,1.080078 0.0039,-1.050782 c 0.0044,-0.967119 0.0059,-1.04778 0.01953,-1.003906 L 18,14.382764 l 1.003906,-1.53125 0.0059,1.392579 0.0059,1.390625 0.980469,1 0.0039,-3.878907 0.0059,-3.7304686 z m -17,0.00195 v 0.00195 l 0.5117188,0.5058594 v 3.5898436 c 0,1.9742 0.00436,3.724512 0.00781,3.890625 v 0.002 c 0.00444,0.213765 0.00827,0.512218 0.015625,0.507812 0.024612,-0.01469 3.0599127,-2.967398 3.0644532,-2.974609 0.0027,-0.0044 -0.019473,-0.02484 -0.050781,-0.04687 l -0.058594,-0.04102 V 11.388624 8.8417487 L 6.7734375,8.675733 6.5566406,8.5077643 5.25,8.503858 C 4.0686171,8.5019522 3.4941264,8.4963999 3.5,8.5019049 Z m 2.3222656,0.9882813 0.085937,0.039063 0.083984,0.037109 v 1.396485 2.5 l -0.9785156,1.083984 c -0.01759,0.0061 -0.019435,-1.838431 -0.015625,-3.298828 l 0.00391,-1.7539066 0.6601563,-0.00195 z m 3.9082032,0.015625 v 0.00195 c 0.06563,-0.00534 0.077191,-0.00433 0.1699218,0.039063 L 9.9980469,9.5937018 10,11.847608 c 3.78e-4,0.991861 -0.0051,2.252329 -0.011719,2.251953 l -0.9863281,-1.0625 V 11.515577 L 9,9.5917487 9.0917969,9.550733 9.1816406,9.5116706 H 9.671875 c 0.268982,0 0.020061,-0.00271 0.058594,-0.00586 z m 3.5390622,0 c 0.03853,0.00315 -0.210388,0.00586 0.05859,0.00586 h 0.490234 l 0.08984,0.039062 0.0918,0.041016 -0.002,1.9238283 v 1.521484 l -0.986328,1.0625 c -0.0066,3.76e-4 -0.0121,-1.260092 -0.01172,-2.251953 l 0.002,-2.2539062 0.09766,-0.046875 c 0.09273,-0.043393 0.104292,-0.044403 0.169922,-0.039063 z"/>
 <path style="fill:#ffffff" d="M 8.4453125 8 L 8.2226562 8.1699219 L 8 8.3398438 L 8 10.806641 L 8 13.273438 L 9.7636719 15 L 11 14.052734 L 10.998047 11.197266 L 10.994141 8.3417969 L 10.777344 8.1699219 L 10.556641 8 L 9.75 8 L 8.4453125 8 z M 12.443359 8 L 12.222656 8.1699219 L 12.005859 8.3417969 L 12.001953 11.197266 L 12 14.052734 L 13.236328 15 L 15 13.273438 L 15 10.806641 L 15 8.3398438 L 14.777344 8.1699219 L 14.554688 8 L 13.25 8 L 12.443359 8 z M 20.5 8 L 19.742188 8.0234375 C 19.187213 8.0196375 18.99009 8.0175712 18.984375 8.0195312 L 18 9.4550781 C 18 9.4550781 17.000119 7.9996283 16.884766 8.0273438 L 16.792969 8.0214844 C 16.742699 8.0181844 16.932665 8.015625 16.603516 8.015625 L 16 8.015625 L 16 10.580078 L 16 13.296875 L 15.953125 13.333984 C 15.911085 13.364204 15.902339 13.375246 15.912109 13.384766 L 16.988281 14.464844 L 16.992188 13.414062 C 16.996588 12.446943 16.998089 12.366282 17.011719 12.410156 L 18 13.882812 L 19.003906 12.351562 L 19.009766 13.744141 L 19.015625 15.134766 L 19.996094 16.134766 L 20 12.255859 L 20.005859 8.5253906 L 20.5 8 z M 3.5 8.0019531 L 3.5 8.0039062 L 4.0117188 8.5097656 L 4.0117188 12.099609 C 4.0117188 14.073809 4.0160813 15.824121 4.0195312 15.990234 L 4.0195312 15.992188 C 4.0239712 16.205953 4.0278012 16.504406 4.0351562 16.5 C 4.0597683 16.48531 7.0950689 13.532602 7.0996094 13.525391 C 7.1023094 13.520991 7.0801361 13.500546 7.0488281 13.478516 L 6.9902344 13.4375 L 6.9902344 10.888672 L 6.9902344 8.3417969 L 6.7734375 8.1757812 L 6.5566406 8.0078125 L 5.25 8.0039062 C 4.0686171 8.0020004 3.4941264 7.9964481 3.5 8.0019531 z M 5.8222656 8.9902344 L 5.9082031 9.0292969 L 5.9921875 9.0664062 L 5.9921875 10.462891 L 5.9921875 12.962891 L 5.0136719 14.046875 C 4.9960819 14.052975 4.9942369 12.208444 4.9980469 10.748047 L 5.0019531 8.9941406 L 5.6621094 8.9921875 L 5.8222656 8.9902344 z M 9.7304688 9.0058594 L 9.7304688 9.0078125 C 9.7960988 9.0024725 9.8076596 9.003482 9.9003906 9.046875 L 9.9980469 9.09375 L 10 11.347656 C 10.000378 12.339517 9.9949003 13.599985 9.9882812 13.599609 L 9.0019531 12.537109 L 9.0019531 11.015625 L 9 9.0917969 L 9.0917969 9.0507812 L 9.1816406 9.0117188 L 9.671875 9.0117188 C 9.940857 9.0117188 9.6919362 9.0090088 9.7304688 9.0058594 z M 13.269531 9.0058594 C 13.308061 9.0090094 13.059143 9.0117188 13.328125 9.0117188 L 13.818359 9.0117188 L 13.908203 9.0507812 L 14 9.0917969 L 13.998047 11.015625 L 13.998047 12.537109 L 13.011719 13.599609 C 13.005099 13.599985 12.999622 12.339517 13 11.347656 L 13.001953 9.09375 L 13.099609 9.046875 C 13.192341 9.003482 13.203901 9.0024725 13.269531 9.0078125 L 13.269531 9.0058594 z"/>
</svg>
