<?xml version="1.0" encoding="UTF-8" standalone="no"?>
<svg xmlns="http://www.w3.org/2000/svg" height="24" width="24" version="1">
 <g transform="translate(1,1)">
  <path fill="#ccc" d="m19 20v-18c0-0.554-0.446-1-1-1h-14c-0.554 0-1 0.446-1 1v18c0 0.554 0.446 1 1 1h14c0.554 0 1-0.446 1-1z"/>
  <path opacity=".2" fill="#fff" d="m4 1c-0.554 0-1 0.446-1 1v0.5c0-0.554 0.446-1 1-1h14c0.554 0 1 0.446 1 1v-0.5c0-0.554-0.446-1-1-1z"/>
  <path opacity=".2" d="m3 20v0.5c0 0.554 0.446 1 1 1h14c0.554 0 1-0.446 1-1v-0.5c0 0.554-0.446 1-1 1h-14c-0.554 0-1-0.446-1-1z"/>
  <g fill="#484848" transform="matrix(.86603 -.5 .5 .86603 -5.3923 6.6446)">
   <circle cy="12" cx="12" r="4"/>
   <rect rx="1" ry="1" height="5.5" width="2" y="14.5" x="11"/>
  </g>
  <path opacity=".2" style="color:#000000" stroke-width="1.555" d="m11 9.5c-1.1128 0-2 0.88848-2 2s0.88722 2 2 2 2-0.88848 2-2-0.88722-2-2-2z"/>
  <path d="m11 9c-1.1128 0-2 0.88848-2 2s0.88722 2 2 2 2-0.88848 2-2-0.88722-2-2-2z" stroke-width="1.555" fill="#5d99ff"/>
 </g>
</svg>
