<svg xmlns="http://www.w3.org/2000/svg" width="24" height="24" version="1.1">
 <rect style="opacity:0.2" width="16" height="12" x="-21.5" y="-18" rx="1" ry="1" transform="matrix(0,-1,-1,0,0,0)"/>
 <rect style="fill:#8e8e8e" width="16" height="12" x="-21" y="-18" rx="1" ry="1" transform="matrix(0,-1,-1,0,0,0)"/>
 <rect style="opacity:0.2" width="16" height="20" x="-19.5" y="-22" rx="1" ry="1" transform="matrix(0,-1,-1,0,0,0)"/>
 <rect style="fill:#4f4f4f" width="16" height="20" x="-19" y="-22" rx="1" ry="1" transform="matrix(0,-1,-1,0,0,0)"/>
 <path style="fill:#ffffff" d="M 20,5 H 4 V 17 C 4,17 20,11.461538 20,5 Z"/>
 <path style="fill:#333333" d="M 4,17 H 20 V 5 Z"/>
 <path style="opacity:0.1;fill:#ffffff" d="M 3,3 C 2.446,3 2,3.446 2,4 v 0.5 c 0,-0.554 0.446,-1 1,-1 h 18 c 0.554,0 1,0.446 1,1 V 4 C 22,3.446 21.554,3 21,3 Z"/>
 <rect style="opacity:0.1;fill:#ffffff" width="16" height=".5" x="4" y="17"/>
 <rect style="opacity:0.2" width="10" height="10" x="12" y="11.5" rx="1.5" ry="1.5"/>
 <rect style="fill:#2165f0" width="10" height="10" x="12" y="11" rx="1.5" ry="1.5"/>
 <path style="fill:#ffffff" d="m 15.106239,13.00031 c -0.100194,0.0017 -0.200002,0.0097 -0.295988,0.01914 -0.455665,0.02841 -0.171981,0.367908 0.106078,0.435615 0.455431,0.129922 0.452882,0.647076 0.18232,0.971721 -0.247594,0.420416 -0.619589,0.021 -0.908414,-0.116539 -0.430591,-0.07138 -0.0147,0.526888 0.122157,0.673534 0.205122,0.317179 0.554232,0.469311 0.913216,0.414595 0.450678,-0.06452 0.76763,0.319477 1.065113,0.608945 0.83805,0.781238 1.691128,1.636065 2.534186,2.493159 0.123937,0.106087 0.25928,0.227068 0.354694,0.362802 0.463148,0.435047 1.153808,-0.258711 0.636439,-0.814467 -1.071551,-0.986808 -2.172655,-2.122994 -3.162762,-3.088765 -0.162048,-0.158709 -0.313357,-0.326524 -0.416803,-0.533132 -0.174891,-0.362238 0.01161,-0.846164 -0.312595,-1.136181 -0.213189,-0.243089 -0.517058,-0.295394 -0.817641,-0.290422 z"/>
 <path style="fill:#ffffff" d="m 19.999996,13.00002 -0.493611,0.257876 -2.501268,2.501267 a 0.66364025,0.66362045 0 0 0 -0.355556,-0.09182 0.66364025,0.66362045 0 0 0 -0.456493,0.201221 l -1.990725,1.990725 a 0.66364025,0.66362045 0 1 0 0.938382,0.938383 l 1.990725,-1.990725 a 0.66364025,0.66362045 0 0 0 0.109402,-0.81205 l 2.534479,-2.534479 z"/>
</svg>
