<?xml version="1.0" encoding="UTF-8" standalone="no"?>
<svg xmlns="http://www.w3.org/2000/svg" height="24" width="24" version="1">
 <g transform="translate(1 1)">
  <path opacity=".2" fill="#fff" d="m10.5 5.5v4.5h4.4996l-4.4996 7.5v-4.5h-4.4996z"/>
  <path fill="#fecd38" d="m11 1c-5.5395 0-9.9991 4.46-9.9991 10s4.4596 10 9.9991 10 9.9991-4.46 9.9991-10-4.459-10-9.999-10z"/>
  <path opacity=".2" d="m10.5 5.5v4h4.5l-4.5 8v-4h-4.5z" fill="#fff"/>
  <path opacity=".2" fill="#fff" d="m11 1c-5.5395 0-9.9991 4.46-9.9991 10 0 0.084-0.002 0.1665 0 0.25 0.1322-5.423 4.5436-9.75 9.9991-9.75s9.8671 4.327 9.9991 9.75c0.002-0.0835 0-0.166 0-0.25 0-5.54-4.459-10-9.999-10z"/>
  <path fill="#3f3f3f" d="m10.5 5v4h4.5l-4.5 8v-4h-4.5z"/>
  <path opacity=".2" d="m1.0067 11.25c-0.00205 0.0835-0.00585 0.166-0.00585 0.25 0 5.54 4.4596 10 9.9991 10s9.9991-4.46 9.9991-10c0-0.084-0.004-0.1665-0.006-0.25-0.132 5.423-4.537 9.75-9.993 9.75-5.4555 0-9.8611-4.327-9.9931-9.75z"/>
  <circle style="enable-background:new" cx="17" cy="17" r="5" fill="#4daaf5"/>
  <rect height="4" width="2" y="16" x="16" fill="#fff"/>
  <rect height="2" width="2" y="13" x="16" fill="#fff"/>
 </g>
</svg>
