<?xml version="1.0" encoding="UTF-8" standalone="no"?>
<svg id="svg2817" xmlns:rdf="http://www.w3.org/1999/02/22-rdf-syntax-ns#" xmlns="http://www.w3.org/2000/svg" height="24" width="24" version="1.0" xmlns:cc="http://creativecommons.org/ns#" xmlns:dc="http://purl.org/dc/elements/1.1/">
 <metadata id="metadata57">
  <rdf:RDF>
   <cc:Work rdf:about="">
    <dc:format>image/svg+xml</dc:format>
    <dc:type rdf:resource="http://purl.org/dc/dcmitype/StillImage"/>
    <dc:title/>
   </cc:Work>
  </rdf:RDF>
 </metadata>
 <g id="layer4-0" transform="matrix(.90475 0 0 .90475 -716.75 -676.29)">
 </g>
 <g id="layer4-0-7" transform="matrix(.90475 0 0 .90475 -716.75 -669.05)">
 </g>
 <text id="text7276" font-size="12.666px" xml:space="preserve" y="-361.22546" x="435.90427" font-family="&apos;Droid Sans&apos;" fill="#000000"><tspan id="tspan7278" y="-361.22546" x="435.90427"/><tspan id="tspan7280" y="-345.3924" x="435.90427"/></text>
 <text id="text7276-0" font-size="12.666px" xml:space="preserve" y="-352.9404" x="385.45963" font-family="&apos;Droid Sans&apos;" fill="#000000"><tspan id="tspan7278-2" y="-352.9404" x="385.45963"/><tspan id="tspan7280-8" y="-337.10733" x="385.45963"/></text>
 <path id="rect4203" fill="#d8d8d8" d="m22 20v-15c0-0.554-0.446-1-1-1h-18c-0.554 0-1 0.446-1 1v15c0 0.554 0.446 1 1 1h18c0.554 0 1-0.446 1-1z"/>
 <path id="path4359" opacity=".15" d="m22 20v-14h-10v15h9c0.554 0 1-0.446 1-1z"/>
 <path id="path4807" fill="#636e73" d="m22 6v-2c0-0.554-0.446-1-1-1h-18c-0.554 0-1 0.446-1 1v2z"/>
 <path id="path4457" opacity=".1" fill="#fff" d="m3 3c-0.554 0-1 0.446-1 1v0.5c0-0.554 0.446-1 1-1h18c0.554 0 1 0.446 1 1v-0.5c0-0.554-0.446-1-1-1h-18z"/>
 <path id="path4458" opacity=".2" d="m2 20v0.5c0 0.554 0.446 1 1 1h18c0.554 0 1-0.446 1-1v-0.5c0 0.554-0.446 1-1 1h-18c-0.554 0-1-0.446-1-1z"/>
 <path id="rect5039" fill="#636e73" d="m3 8v2h3v-1h-1v-1h-2zm0 4v2h3v-1h-1v-1h-2zm0 4v2h3v-1h-1v-1h-2z"/>
 <path id="path4601" opacity=".8" fill="#636e73" d="m13 8v2h3v-1h-1v-1h-2zm0 4v2h3v-1h-1v-1h-2zm0 4v2h3v-1h-1v-1h-2z"/>
</svg>
