<svg xmlns="http://www.w3.org/2000/svg" width="24" height="24" version="1">
 <g transform="translate(1,1)">
  <path fill="#ae56b8" d="m8.9495 1.0005c-0.2125 0.0231-0.3995 0.1965-0.4385 0.4062l-0.4225 2.1406c-0.7585 0.2962-1.4715 0.7031-2.0975 1.2031l-2.0818-0.7031c-0.2163-0.07445-0.4786 0.02205-0.5948 0.2187l-2.0036 3.4689c-0.11285 0.1995-0.06445 0.4755 0.1096 0.625l1.6592 1.453c-0.05843 0.38962-0.093915 0.7816-0.093915 1.1875 0 0.40587 0.035513 0.79785 0.093915 1.1875l-1.6592 1.453c-0.17405 0.1495-0.22245 0.4255-0.1096 0.625l2.0036 3.4687c0.1162 0.19671 0.37853 0.29319 0.5948 0.21874l2.0818-0.7031c0.6257 0.49998 1.3388 0.9069 2.0975 1.2031l0.42263 2.1406c0.042825 0.22407 0.25673 0.40314 0.48524 0.40624h4.0072c0.2285-0.003 0.4424-0.18217 0.48524-0.40624l0.42263-2.1406c0.7587-0.29618 1.4718-0.70315 2.0975-1.2031l2.0818 0.7031c0.21628 0.07445 0.47861-0.02205 0.5948-0.21874l2.0036-3.4687c0.11286-0.1995 0.06445-0.4756-0.10957-0.625l-1.6585-1.453c0.05843-0.38962 0.09392-0.7816 0.09392-1.1875 0-0.40587-0.03552-0.79785-0.09392-1.1875l1.6592-1.4531c0.17402-0.14939 0.22242-0.42548 0.10957-0.625l-2.0035-3.4689c-0.116-0.1967-0.3785-0.29315-0.5945-0.2187l-2.0818 0.7031c-0.626-0.5-1.339-0.90695-2.0975-1.2031l-0.4225-2.1406c-0.043-0.22405-0.257-0.40315-0.4855-0.40625h-4.0072c-0.01563-0.00049999-0.031305-0.00049999-0.046935 0z"/>
  <path opacity=".2" d="m11 7.5c2.2092 0 4 1.7908 4 4s-1.7908 4-4 4-4-1.7908-4-4 1.7908-4 4-4z"/>
  <path fill="#fff" d="m11 7c2.2092 0 4 1.7908 4 4s-1.7908 4-4 4-4-1.7908-4-4 1.7908-4 4-4z"/>
  <path fill="#fff" opacity=".2" d="m8.8975 1.0003c-0.218 0.02285-0.41 0.19445-0.4495 0.4019l-0.4335 2.1176c-0.778 0.29305-1.5095 0.6956-2.151 1.1901l-2.1347-0.6954c-0.2218-0.07365-0.4908 0.0218-0.60995 0.2164l-2.0546 3.4316c0.027942 0.049475 0.067745 0.08671 0.11236 0.12366l0.080255 0.06183 1.862-3.1224c0.1192-0.1945 0.3882-0.28995 0.61-0.2165l2.1348 0.6956c0.64165-0.49462 1.3728-0.8972 2.1509-1.1902l0.4333-2.1177c0.03981-0.20746 0.23165-0.37904 0.44944-0.40189 0.016025-0.0004947 0.0321-0.0004947 0.04813 0h4.1092c0.23432 0.00297 0.45366 0.18022 0.49759 0.40189l0.43338 2.1176c0.77805 0.293 1.5092 0.6956 2.1509 1.1902l2.1348-0.6956c0.22178-0.073645 0.49079 0.021815 0.60995 0.2164l1.862 3.1224 0.08025-0.06183c0.04463-0.03695 0.08441-0.074185 0.11236-0.12366l-2.055-3.4316c-0.119-0.1946-0.388-0.29005-0.61-0.2164l-2.1345 0.69545c-0.6415-0.4945-1.373-0.89705-2.151-1.1901l-0.4335-2.1176c-0.044-0.22165-0.263-0.3988-0.4975-0.4019h-4.1092c-0.016025-0.00049469-0.032105-0.00049469-0.04813 0zm-7.8815 6.9865c0.0094 0.05846 0.019467 0.11922 0.048128 0.17003-0.02795-0.0495-0.03805-0.1145-0.04815-0.17zm19.968 0c-0.01012 0.055715-0.02024 0.12056-0.04813 0.17003 0.02871-0.050805 0.03878-0.11157 0.04813-0.17003zm-18.154 2.1795c-0.016334 0.15866-0.023268 0.31914-0.032103 0.47918 0.00308 0.08338 0.011249 0.16434 0.016026 0.24732 0.0132-0.22827 0.029535-0.45698 0.064205-0.6801l-0.04815-0.0465zm16.34 0-0.04813 0.04634c0.03467 0.22314 0.051 0.45186 0.06421 0.6801 0.0046-0.08298 0.01294-0.16393 0.01602-0.24732-0.0088-0.16004-0.01577-0.32052-0.03211-0.47918zm-16.34 1.9475-1.6533 1.3915c-0.044636 0.03695-0.084415 0.07419-0.11236 0.12366l0.19262 0.30914 1.6212-1.3757c-0.02285-0.147-0.03285-0.3-0.0481-0.4485zm16.34 0c-0.01531 0.14836-0.02532 0.30122-0.04813 0.44826l1.6212 1.3757 0.19262-0.30914c-0.0285-0.05-0.068-0.087-0.1125-0.124l-1.654-1.3915zm-18.17 1.808c0.00155 0.027 0.0099 0.0515 0.01605 0.0775-0.0067-0.0265-0.0137-0.05-0.01605-0.0775zm20 0c-0.0025 0.0275-0.0095 0.051-0.016 0.0775 0.006-0.026 0.0145-0.0505 0.016-0.0775z"/>
  <path opacity=".2" d="m1.3144 8.2264-0.0039 0.0078c-0.11286 0.1995-0.06367 0.47561 0.11035 0.625l1.6054 1.4062c0.015-0.152 0.0312-0.3035 0.05375-0.4535l-1.6592-1.453c-0.0435-0.038-0.0792-0.0835-0.10645-0.1335zm19.371 0c-0.027 0.05-0.062 0.0954-0.106 0.1328l-1.659 1.453c0.02251 0.15016 0.03872 0.3016 0.05371 0.45312l1.6054-1.4062c0.17402-0.14939 0.22321-0.4255 0.11035-0.625l-0.0039-0.00782zm-17.69 3.0235c-0.00297 0.08351-0.010742 0.16538-0.010742 0.25 0 0.24918 0.017163 0.49299 0.041016 0.7344l0.05375-0.047c-0.04625-0.3085-0.0727-0.6205-0.084-0.9375zm16.008 0c-0.01128 0.31707-0.03774 0.6291-0.08398 0.9375l0.05371 0.04687c0.02385-0.24138 0.04102-0.48519 0.04102-0.7344 0-0.08461-0.0078-0.16649-0.01074-0.25zm-17.69 3.0235c-0.0803 0.149-0.0871 0.342-0.0025 0.492l2.0039 3.4688c0.1162 0.19671 0.37844 0.2932 0.59475 0.21875l2.0818-0.703c0.6257 0.49998 1.339 0.90695 2.0976 1.2031l0.42188 2.1406c0.0428 0.223 0.2569 0.402 0.4854 0.405h4.0078c0.22851-0.003 0.4425-0.18218 0.48535-0.40625l0.42188-2.1406c0.7585-0.2965 1.4715-0.7035 2.0975-1.2035l2.082 0.7031c0.21628 0.07445 0.47852-0.02206 0.59475-0.21875l2.0039-3.4688c0.08464-0.14962 0.07783-0.34216-0.0039-0.49219l-2 3.461c-0.1162 0.1967-0.37844 0.2932-0.59475 0.21875l-2.082-0.703c-0.6257 0.49998-1.339 0.90695-2.0976 1.2031l-0.42188 2.1406c-0.043 0.2245-0.257 0.4035-0.4855 0.4065h-4.0078c-0.2271-0.003-0.4411-0.182-0.4839-0.406l-0.4219-2.141c-0.7585-0.2965-1.4715-0.7035-2.0975-1.2035l-2.082 0.7031c-0.2164 0.074-0.47865-0.0225-0.59485-0.219l-2-3.461z"/>
 </g>
</svg>
