<svg width="24" height="24" version="1.1" xmlns="http://www.w3.org/2000/svg">
 <rect x="2" y="3.5" width="20" height="18" rx="1.8181819" ry="1.8947369" style="opacity:.2"/>
 <rect x="2" y="3.0001221" width="20" height="17.999878" rx="1.8181819" ry="1.894724" style="fill:#4bae4f"/>
 <rect x="8" y="8.5" width="8" height="8" rx=".889" ry=".889" style="opacity:.2"/>
 <path transform="translate(0,-2.85e-5)" d="m10 4.500061v4.999939h-4v-2.5c0-0.277-0.223-0.5-0.5-0.5h-2c-0.277 0-0.5 0.223-0.5 0.5s0.223 0.5 0.5 0.5h1.5v2.5c0 0.277 0.223 0.5 0.5 0.5h4v1h-6c-0.2963025 0-0.5 0.239912-0.5 0.499939 0 0.264011 0.223 0.500061 0.5 0.500061h6v1h-6c-0.277 0-0.5 0.235924-0.5 0.499939v3.023503c0 0.264012 0.223 0.476558 0.5 0.476558s0.5-0.212547 0.5-0.476562v-2.523438h5v6h1v-5.5h1v5.5h1v-5.5h1v5.5h1v-5.5l2 2.9e-5v0.500061l2-2.9e-5v2.5c0 0.277 0.223 0.5 0.5 0.5h2c0.277 0 0.5-0.223 0.5-0.5s-0.223-0.5-0.5-0.5h-1.5v-2.5c0-0.277-0.223-0.5-0.5-0.5h-4v-1h6c0.277 0 0.5-0.212547 0.5-0.476562v-0.04688c0-0.264011-0.223-0.476558-0.5-0.476558h-6v-1h6c0.06925 0 0.135468-0.01306 0.195312-0.03711 0.179581-0.072152 0.304688-0.241441 0.304688-0.439452v-3.04688c2.6e-5 -0.264015-0.223-0.476562-0.5-0.476562s-0.49997 0.212547-0.5 0.4765625v2.5234375h-5v-6h-1v6h-1v-6h-1v6h-1v-6z" style="opacity:.2"/>
 <rect x="8" y="8" width="8" height="8" rx=".889" ry=".889" style="fill:#7ea193"/>
 <path d="m10 4v4h1v-4zm2 0v4h1v-4h-0.5zm2 0v4h1v-4zm6.5 2.9997798c-0.277 0-0.49997 0.212547-0.5 0.4765625l-2.9e-4 2.5236577h-4v0.999995h4.5c0.06925 0 0.135465-0.01306 0.19531-0.03711 0.17958-0.07215 0.30469-0.241441 0.30469-0.439452v-0.04687l2.9e-4 -3.0002207c2.6e-5 -0.2640155-0.223-0.4765625-0.5-0.4765625zm-17.00029-0.9997798c-0.277 0-0.5 0.223-0.5 0.5s0.223 0.5 0.5 0.5h1.50029v2.5c0 0.277 0.223 0.5 0.5 0.5h2.49971v-1h-1.99971v-2.5c0-0.277-0.223-0.5-0.5-0.5zm0 5c-0.277 0-0.5 0.235924-0.5 0.499939 0 0.25 0.2124227 0.500056 0.5 0.500056h4.5v-0.999995zm12.5 1v0.999995h4.5c0.277 0 0.5-0.212547 0.5-0.476563v-0.04687c0-0.264015-0.223-0.476562-0.5-0.476562zm-12.5 1c-0.277 0-0.5 0.235924-0.5 0.499939v3.02384c0 0.264017 0.223 0.476563 0.5 0.476563s0.5-0.212547 0.5-0.476563v-2.523784h4v-0.999995zm12.5 1v1h2.00029v2.5c0 0.277 0.223 0.5 0.5 0.5h1.99971c0.277 0 0.5-0.223 0.5-0.5s-0.223-0.5-0.5-0.5h-1.49971v-2.5c0-0.277-0.223-0.5-0.5-0.5zm-6.99971 2v4h1v-4zm2 0v4h1v-4zm2 0v4h1v-4z" style="fill:#347937"/>
 <path d="m10 7-1.45e-4 2h-3v1h2.000145v1h-2.000145v1h2.000145v1h-2.000145v1h2l1.45e-4 3.000061h1v-2.000061h1v2.000061h1v-2.000061h1v2.000061h1v-2.000061h3v-1h-2v-1h2v-1h-2v-1h2v-1h-2v-3h-1v2.000061h-1v-2.000061h-1v2.000061h-1v-2.000061z" style="fill:#fbd14e"/>
 <rect x="9" y="9.5" width="6" height="6" style="opacity:.2"/>
 <rect x="9" y="9.000061" width="6" height="6" style="fill:#414141"/>
 <circle cx="20.5" cy="7.500061" r=".5" style="fill:#fbd14e"/>
 <circle cx="20.5" cy="17.500061" r=".5" style="fill:#fbd14e"/>
 <circle cx="3.5" cy="11.5" r=".5" style="fill:#fbd14e"/>
 <circle cx="20.5" cy="12.500061" r=".5" style="fill:#fbd14e"/>
 <circle cx="3.5" cy="6.5" r=".5" style="fill:#fbd14e"/>
 <circle cx="3.5" cy="16.5" r=".5" style="fill:#fbd14e"/>
 <path d="m3.818182 3c-1.0072727 0-1.8181818 0.892-1.8181818 2v0.5c0-1.108 0.8109091-2 1.8181818-2h16.363636c1.007273 0 1.818182 0.892 1.818182 2v-0.5c0-1.108-0.810909-2-1.818182-2z" style="fill:#ffffff;opacity:.2"/>
 <rect x="9" y="9" width="6" height=".5" rx="0" ry=".5" style="fill:#ffffff;opacity:.2"/>
</svg>
