<?xml version="1.0" encoding="UTF-8" standalone="no"?>
<svg id="svg2817" xmlns:rdf="http://www.w3.org/1999/02/22-rdf-syntax-ns#" xmlns="http://www.w3.org/2000/svg" height="24" width="24" version="1.0" xmlns:cc="http://creativecommons.org/ns#" xmlns:dc="http://purl.org/dc/elements/1.1/">
 <metadata id="metadata57">
  <rdf:RDF>
   <cc:Work rdf:about="">
    <dc:format>image/svg+xml</dc:format>
    <dc:type rdf:resource="http://purl.org/dc/dcmitype/StillImage"/>
    <dc:title/>
   </cc:Work>
  </rdf:RDF>
 </metadata>
 <text id="text4087-2-6-5" opacity=".8" font-size="12.666px" xml:space="preserve" y="-13.187399" x="877.22626" font-family="&apos;Bitstream Vera Sans&apos;" fill="#000000"><tspan id="tspan4089-7-2-9" y="-13.187399" x="877.22626"/></text>
 <text id="text4087-2-6-5-5" opacity=".8" font-size="12.666px" xml:space="preserve" y="-53.929108" x="901.18719" font-family="&apos;Bitstream Vera Sans&apos;" fill="#000000"><tspan id="tspan4089-7-2-9-6" y="-53.929108" x="901.18719"/></text>
 <text id="text4087-2-6-5-2" opacity=".8" font-size="12.666px" xml:space="preserve" y="-84.007248" x="-569.37115" font-family="&apos;Bitstream Vera Sans&apos;" fill="#000000"><tspan id="tspan4089-7-2-9-2" y="-84.007248" x="-569.37115"/></text>
 <text id="text4087-2-6-5-59" opacity=".8" font-size="12.666px" xml:space="preserve" y="661.5462" x="-2393.0571" font-family="&apos;Bitstream Vera Sans&apos;" fill="#000000"><tspan id="tspan4089-7-2-9-4" y="661.5462" x="-2393.0571"/></text>
 <text id="text4087-2-6-5-1" opacity=".8" font-size="12.666px" xml:space="preserve" y="-469.32822" x="-454.88007" font-family="&apos;Bitstream Vera Sans&apos;" fill="#000000"><tspan id="tspan4089-7-2-9-7" y="-469.32822" x="-454.88007"/></text>
 <text id="text4087-2-6-5-7" opacity=".8" font-size="12.666px" xml:space="preserve" y="-882.79834" x="352.72208" font-family="&apos;Bitstream Vera Sans&apos;" fill="#000000"><tspan id="tspan4089-7-2-9-1" y="-882.79834" x="352.72208"/></text>
 <text id="text4087-2-6-5-5-3" opacity=".8" font-size="12.666px" xml:space="preserve" y="-923.54004" x="376.68301" font-family="&apos;Bitstream Vera Sans&apos;" fill="#000000"><tspan id="tspan4089-7-2-9-6-5" y="-923.54004" x="376.68301"/></text>
 <text id="text4087-2-6-5-3" opacity=".8" font-size="12.666px" xml:space="preserve" y="-930.74994" x="-1114.7802" font-family="&apos;Bitstream Vera Sans&apos;" fill="#000000"><tspan id="tspan4089-7-2-9-18" y="-930.74994" x="-1114.7802"/></text>
 <text id="text4087-2-6-5-4" opacity=".8" font-size="12.666px" xml:space="preserve" y="-1203.9841" x="345.7626" font-family="&apos;Bitstream Vera Sans&apos;" fill="#000000"><tspan id="tspan4089-7-2-9-9" y="-1203.9841" x="345.7626"/></text>
 <text id="text4087-2-6-5-7-1" opacity=".8" font-size="12.666px" xml:space="preserve" y="-577.29272" x="1831.8861" font-family="&apos;Bitstream Vera Sans&apos;" fill="#000000"><tspan id="tspan4089-7-2-9-1-8" y="-577.29272" x="1831.8861"/></text>
 <text id="text4087-2-6-5-5-5" opacity=".8" font-size="12.666px" xml:space="preserve" y="-618.03448" x="1855.8469" font-family="&apos;Bitstream Vera Sans&apos;" fill="#000000"><tspan id="tspan4089-7-2-9-6-9" y="-618.03448" x="1855.8469"/></text>
 <text id="text4087-2-6-5-75" opacity=".8" font-size="12.666px" xml:space="preserve" y="-625.24438" x="364.38376" font-family="&apos;Bitstream Vera Sans&apos;" fill="#000000"><tspan id="tspan4089-7-2-9-3" y="-625.24438" x="364.38376"/></text>
 <text id="text4087-2-6-5-4-8" opacity=".8" font-size="12.666px" xml:space="preserve" y="-898.47839" x="1824.9266" font-family="&apos;Bitstream Vera Sans&apos;" fill="#000000"><tspan id="tspan4089-7-2-9-9-8" y="-898.47839" x="1824.9266"/></text>
 <text id="text4087-2-6-5-45" opacity=".8" font-size="12.666px" xml:space="preserve" y="-673.33569" x="-573.43256" font-family="&apos;Bitstream Vera Sans&apos;" fill="#000000"><tspan id="tspan4089-7-2-9-75" y="-673.33569" x="-573.43256"/></text>
 <text id="text4087-2-6-5-59-7" opacity=".8" font-size="12.666px" xml:space="preserve" y="72.217857" x="-2397.1182" font-family="&apos;Bitstream Vera Sans&apos;" fill="#000000"><tspan id="tspan4089-7-2-9-4-0" y="72.217857" x="-2397.1182"/></text>
 <text id="text4087-2-6-5-8" opacity=".8" font-size="12.666px" xml:space="preserve" y="165.09" x="-682.36279" font-family="&apos;Bitstream Vera Sans&apos;" fill="#000000"><tspan id="tspan4089-7-2-9-19" y="165.09" x="-682.36279"/></text>
 <text id="text4087-2-6-5-7-5" opacity=".8" font-size="12.666px" xml:space="preserve" y="-14.092148" x="426.66153" font-family="&apos;Bitstream Vera Sans&apos;" fill="#000000"><tspan id="tspan4089-7-2-9-1-2" y="-14.092148" x="426.66153"/></text>
 <text id="text4087-2-6-5-5-0" opacity=".8" font-size="12.666px" xml:space="preserve" y="-54.833855" x="450.62247" font-family="&apos;Bitstream Vera Sans&apos;" fill="#000000"><tspan id="tspan4089-7-2-9-6-2" y="-54.833855" x="450.62247"/></text>
 <text id="text4087-2-6-5-26" opacity=".8" font-size="12.666px" xml:space="preserve" y="-62.043823" x="-1040.8407" font-family="&apos;Bitstream Vera Sans&apos;" fill="#000000"><tspan id="tspan4089-7-2-9-90" y="-62.043823" x="-1040.8407"/></text>
 <text id="text4087-2-6-5-4-3" opacity=".8" font-size="12.666px" xml:space="preserve" y="-335.27789" x="419.70206" font-family="&apos;Bitstream Vera Sans&apos;" fill="#000000"><tspan id="tspan4089-7-2-9-9-5" y="-335.27789" x="419.70206"/></text>
 <text id="text4087-2-6-5-55" opacity=".8" font-size="12.666px" xml:space="preserve" y="-64.758072" x="-608.03253" font-family="&apos;Bitstream Vera Sans&apos;" fill="#000000"><tspan id="tspan4089-7-2-9-32" y="-64.758072" x="-608.03253"/></text>
 <text id="text4087-2-6-5-59-9" opacity=".8" font-size="12.666px" xml:space="preserve" y="680.79541" x="-2431.7185" font-family="&apos;Bitstream Vera Sans&apos;" fill="#000000"><tspan id="tspan4089-7-2-9-4-1" y="680.79541" x="-2431.7185"/></text>
 <text id="text4087-2-6-5-1-8" opacity=".8" font-size="12.666px" xml:space="preserve" y="-926.28857" x="-456.93948" font-family="&apos;Bitstream Vera Sans&apos;" fill="#000000"><tspan id="tspan4089-7-2-9-7-8" y="-926.28857" x="-456.93948"/></text>
 <text id="text4087-2-6-5-7-8" opacity=".8" font-size="12.666px" xml:space="preserve" y="-1339.7588" x="350.66266" font-family="&apos;Bitstream Vera Sans&apos;" fill="#000000"><tspan id="tspan4089-7-2-9-1-9" y="-1339.7588" x="350.66266"/></text>
 <text id="text4087-2-6-5-5-52" opacity=".8" font-size="12.666px" xml:space="preserve" y="-1380.5005" x="374.62357" font-family="&apos;Bitstream Vera Sans&apos;" fill="#000000"><tspan id="tspan4089-7-2-9-6-4" y="-1380.5005" x="374.62357"/></text>
 <text id="text4087-2-6-5-3-4" opacity=".8" font-size="12.666px" xml:space="preserve" y="-1387.7104" x="-1116.8396" font-family="&apos;Bitstream Vera Sans&apos;" fill="#000000"><tspan id="tspan4089-7-2-9-18-3" y="-1387.7104" x="-1116.8396"/></text>
 <text id="text4087-2-6-5-4-7" opacity=".8" font-size="12.666px" xml:space="preserve" y="-1660.9446" x="343.70316" font-family="&apos;Bitstream Vera Sans&apos;" fill="#000000"><tspan id="tspan4089-7-2-9-9-54" y="-1660.9446" x="343.70316"/></text>
 <text id="text4087-2-6-5-7-1-2" opacity=".8" font-size="12.666px" xml:space="preserve" y="-1034.2533" x="1829.8265" font-family="&apos;Bitstream Vera Sans&apos;" fill="#000000"><tspan id="tspan4089-7-2-9-1-8-0" y="-1034.2533" x="1829.8265"/></text>
 <text id="text4087-2-6-5-5-5-6" opacity=".8" font-size="12.666px" xml:space="preserve" y="-1074.9949" x="1853.7874" font-family="&apos;Bitstream Vera Sans&apos;" fill="#000000"><tspan id="tspan4089-7-2-9-6-9-8" y="-1074.9949" x="1853.7874"/></text>
 <text id="text4087-2-6-5-75-4" opacity=".8" font-size="12.666px" xml:space="preserve" y="-1082.2048" x="362.32431" font-family="&apos;Bitstream Vera Sans&apos;" fill="#000000"><tspan id="tspan4089-7-2-9-3-9" y="-1082.2048" x="362.32431"/></text>
 <text id="text4087-2-6-5-4-8-1" opacity=".8" font-size="12.666px" xml:space="preserve" y="-1355.439" x="1822.8671" font-family="&apos;Bitstream Vera Sans&apos;" fill="#000000"><tspan id="tspan4089-7-2-9-9-8-8" y="-1355.439" x="1822.8671"/></text>
 <text id="text4087-2-6-5-45-0" opacity=".8" font-size="12.666px" xml:space="preserve" y="-1130.2961" x="-575.492" font-family="&apos;Bitstream Vera Sans&apos;" fill="#000000"><tspan id="tspan4089-7-2-9-75-2" y="-1130.2961" x="-575.492"/></text>
 <text id="text4087-2-6-5-59-5" opacity=".8" font-size="12.666px" xml:space="preserve" y="-384.74261" x="-2399.1777" font-family="&apos;Bitstream Vera Sans&apos;" fill="#000000"><tspan id="tspan4089-7-2-9-4-00" y="-384.74261" x="-2399.1777"/></text>
 <text id="text4087-2-6-5-264" opacity=".8" font-size="12.666px" xml:space="preserve" y="-291.87045" x="-684.42224" font-family="&apos;Bitstream Vera Sans&apos;" fill="#000000"><tspan id="tspan4089-7-2-9-8" y="-291.87045" x="-684.42224"/></text>
 <text id="text4087-2-6-5-42" opacity=".8" font-size="12.666px" xml:space="preserve" y="-50.956276" x="155.5923" font-family="&apos;Bitstream Vera Sans&apos;" fill="#000000"><tspan id="tspan4089-7-2-9-93" y="-50.956276" x="155.5923"/></text>
 <text id="text4087-2-6-5-5-05" opacity=".8" font-size="12.666px" xml:space="preserve" y="-91.697998" x="179.55324" font-family="&apos;Bitstream Vera Sans&apos;" fill="#000000"><tspan id="tspan4089-7-2-9-6-49" y="-91.697998" x="179.55324"/></text>
 <text id="text4087-2-6-5-1-4" opacity=".8" font-size="12.666px" xml:space="preserve" y="-285.72662" x="-1090.2634" font-family="&apos;Bitstream Vera Sans&apos;" fill="#000000"><tspan id="tspan4089-7-2-9-7-7" y="-285.72662" x="-1090.2634"/></text>
 <text id="text4087-2-6-5-7-56" opacity=".8" font-size="12.666px" xml:space="preserve" y="-699.19678" x="-282.66141" font-family="&apos;Bitstream Vera Sans&apos;" fill="#000000"><tspan id="tspan4089-7-2-9-1-1" y="-699.19678" x="-282.66141"/></text>
 <text id="text4087-2-6-5-5-8" opacity=".8" font-size="12.666px" xml:space="preserve" y="-739.93848" x="-258.70047" font-family="&apos;Bitstream Vera Sans&apos;" fill="#000000"><tspan id="tspan4089-7-2-9-6-7" y="-739.93848" x="-258.70047"/></text>
 <text id="text4087-2-6-5-3-42" opacity=".8" font-size="12.666px" xml:space="preserve" y="-747.14838" x="-1750.1636" font-family="&apos;Bitstream Vera Sans&apos;" fill="#000000"><tspan id="tspan4089-7-2-9-18-39" y="-747.14838" x="-1750.1636"/></text>
 <text id="text4087-2-6-5-4-4" opacity=".8" font-size="12.666px" xml:space="preserve" y="-1020.3825" x="-289.62085" font-family="&apos;Bitstream Vera Sans&apos;" fill="#000000"><tspan id="tspan4089-7-2-9-9-3" y="-1020.3825" x="-289.62085"/></text>
 <text id="text4087-2-6-5-7-1-0" opacity=".8" font-size="12.666px" xml:space="preserve" y="-393.69113" x="1196.5026" font-family="&apos;Bitstream Vera Sans&apos;" fill="#000000"><tspan id="tspan4089-7-2-9-1-8-5" y="-393.69113" x="1196.5026"/></text>
 <text id="text4087-2-6-5-5-5-5" opacity=".8" font-size="12.666px" xml:space="preserve" y="-434.43286" x="1220.4634" font-family="&apos;Bitstream Vera Sans&apos;" fill="#000000"><tspan id="tspan4089-7-2-9-6-9-2" y="-434.43286" x="1220.4634"/></text>
 <text id="text4087-2-6-5-75-9" opacity=".8" font-size="12.666px" xml:space="preserve" y="-441.64282" x="-270.99973" font-family="&apos;Bitstream Vera Sans&apos;" fill="#000000"><tspan id="tspan4089-7-2-9-3-1" y="-441.64282" x="-270.99973"/></text>
 <text id="text4087-2-6-5-4-8-18" opacity=".8" font-size="12.666px" xml:space="preserve" y="-714.87689" x="1189.5431" font-family="&apos;Bitstream Vera Sans&apos;" fill="#000000"><tspan id="tspan4089-7-2-9-9-8-4" y="-714.87689" x="1189.5431"/></text>
 <text id="text4087-2-6-5-45-3" opacity=".8" font-size="12.666px" xml:space="preserve" y="-489.7341" x="-1208.816" font-family="&apos;Bitstream Vera Sans&apos;" fill="#000000"><tspan id="tspan4089-7-2-9-75-7" y="-489.7341" x="-1208.816"/></text>
 <text id="text4087-2-6-5-59-8" opacity=".8" font-size="12.666px" xml:space="preserve" y="255.81946" x="-3032.5017" font-family="&apos;Bitstream Vera Sans&apos;" fill="#000000"><tspan id="tspan4089-7-2-9-4-2" y="255.81946" x="-3032.5017"/></text>
 <g id="layer4-0" transform="matrix(.90475 0 0 .90475 -716.75 -700.29)">
  <text id="text4087-2-6-5-20" opacity=".8" font-size="14px" xml:space="preserve" y="1159.4154" x="-664.2738" font-family="&apos;Bitstream Vera Sans&apos;" fill="#000000"><tspan id="tspan4089-7-2-9-82" y="1159.4154" x="-664.2738"/></text>
 </g>
 <text id="text4087-2-6-5-9" opacity=".8" font-size="12.666px" xml:space="preserve" y="-5.9494114" x="877.22626" font-family="&apos;Bitstream Vera Sans&apos;" fill="#000000"><tspan id="tspan4089-7-2-9-43" y="-5.9494114" x="877.22626"/></text>
 <text id="text4087-2-6-5-5-51" opacity=".8" font-size="12.666px" xml:space="preserve" y="-46.691116" x="901.18719" font-family="&apos;Bitstream Vera Sans&apos;" fill="#000000"><tspan id="tspan4089-7-2-9-6-74" y="-46.691116" x="901.18719"/></text>
 <text id="text4087-2-6-5-2-3" opacity=".8" font-size="12.666px" xml:space="preserve" y="-76.769257" x="-569.37115" font-family="&apos;Bitstream Vera Sans&apos;" fill="#000000"><tspan id="tspan4089-7-2-9-2-1" y="-76.769257" x="-569.37115"/></text>
 <text id="text4087-2-6-5-59-4" opacity=".8" font-size="12.666px" xml:space="preserve" y="668.78418" x="-2393.0571" font-family="&apos;Bitstream Vera Sans&apos;" fill="#000000"><tspan id="tspan4089-7-2-9-4-6" y="668.78418" x="-2393.0571"/></text>
 <text id="text4087-2-6-5-1-9" opacity=".8" font-size="12.666px" xml:space="preserve" y="-462.09021" x="-454.88007" font-family="&apos;Bitstream Vera Sans&apos;" fill="#000000"><tspan id="tspan4089-7-2-9-7-4" y="-462.09021" x="-454.88007"/></text>
 <text id="text4087-2-6-5-7-2" opacity=".8" font-size="12.666px" xml:space="preserve" y="-875.5603" x="352.72208" font-family="&apos;Bitstream Vera Sans&apos;" fill="#000000"><tspan id="tspan4089-7-2-9-1-26" y="-875.5603" x="352.72208"/></text>
 <text id="text4087-2-6-5-5-3-4" opacity=".8" font-size="12.666px" xml:space="preserve" y="-916.30206" x="376.68301" font-family="&apos;Bitstream Vera Sans&apos;" fill="#000000"><tspan id="tspan4089-7-2-9-6-5-1" y="-916.30206" x="376.68301"/></text>
 <text id="text4087-2-6-5-3-2" opacity=".8" font-size="12.666px" xml:space="preserve" y="-923.51196" x="-1114.7802" font-family="&apos;Bitstream Vera Sans&apos;" fill="#000000"><tspan id="tspan4089-7-2-9-18-8" y="-923.51196" x="-1114.7802"/></text>
 <text id="text4087-2-6-5-4-89" opacity=".8" font-size="12.666px" xml:space="preserve" y="-1196.7461" x="345.7626" font-family="&apos;Bitstream Vera Sans&apos;" fill="#000000"><tspan id="tspan4089-7-2-9-9-2" y="-1196.7461" x="345.7626"/></text>
 <text id="text4087-2-6-5-7-1-8" opacity=".8" font-size="12.666px" xml:space="preserve" y="-570.05475" x="1831.8861" font-family="&apos;Bitstream Vera Sans&apos;" fill="#000000"><tspan id="tspan4089-7-2-9-1-8-8" y="-570.05475" x="1831.8861"/></text>
 <text id="text4087-2-6-5-5-5-8" opacity=".8" font-size="12.666px" xml:space="preserve" y="-610.79651" x="1855.8469" font-family="&apos;Bitstream Vera Sans&apos;" fill="#000000"><tspan id="tspan4089-7-2-9-6-9-6" y="-610.79651" x="1855.8469"/></text>
 <text id="text4087-2-6-5-75-8" opacity=".8" font-size="12.666px" xml:space="preserve" y="-618.00641" x="364.38376" font-family="&apos;Bitstream Vera Sans&apos;" fill="#000000"><tspan id="tspan4089-7-2-9-3-3" y="-618.00641" x="364.38376"/></text>
 <text id="text4087-2-6-5-4-8-8" opacity=".8" font-size="12.666px" xml:space="preserve" y="-891.24036" x="1824.9266" font-family="&apos;Bitstream Vera Sans&apos;" fill="#000000"><tspan id="tspan4089-7-2-9-9-8-3" y="-891.24036" x="1824.9266"/></text>
 <text id="text4087-2-6-5-45-33" opacity=".8" font-size="12.666px" xml:space="preserve" y="-666.09772" x="-573.43256" font-family="&apos;Bitstream Vera Sans&apos;" fill="#000000"><tspan id="tspan4089-7-2-9-75-8" y="-666.09772" x="-573.43256"/></text>
 <text id="text4087-2-6-5-59-7-0" opacity=".8" font-size="12.666px" xml:space="preserve" y="79.455849" x="-2397.1182" font-family="&apos;Bitstream Vera Sans&apos;" fill="#000000"><tspan id="tspan4089-7-2-9-4-0-4" y="79.455849" x="-2397.1182"/></text>
 <text id="text4087-2-6-5-8-7" opacity=".8" font-size="12.666px" xml:space="preserve" y="172.32799" x="-682.36279" font-family="&apos;Bitstream Vera Sans&apos;" fill="#000000"><tspan id="tspan4089-7-2-9-19-6" y="172.32799" x="-682.36279"/></text>
 <text id="text4087-2-6-5-7-5-8" opacity=".8" font-size="12.666px" xml:space="preserve" y="-6.8541603" x="426.66153" font-family="&apos;Bitstream Vera Sans&apos;" fill="#000000"><tspan id="tspan4089-7-2-9-1-2-9" y="-6.8541603" x="426.66153"/></text>
 <text id="text4087-2-6-5-5-0-0" opacity=".8" font-size="12.666px" xml:space="preserve" y="-47.595863" x="450.62247" font-family="&apos;Bitstream Vera Sans&apos;" fill="#000000"><tspan id="tspan4089-7-2-9-6-2-6" y="-47.595863" x="450.62247"/></text>
 <text id="text4087-2-6-5-26-8" opacity=".8" font-size="12.666px" xml:space="preserve" y="-54.805836" x="-1040.8407" font-family="&apos;Bitstream Vera Sans&apos;" fill="#000000"><tspan id="tspan4089-7-2-9-90-7" y="-54.805836" x="-1040.8407"/></text>
 <text id="text4087-2-6-5-4-3-9" opacity=".8" font-size="12.666px" xml:space="preserve" y="-328.03989" x="419.70206" font-family="&apos;Bitstream Vera Sans&apos;" fill="#000000"><tspan id="tspan4089-7-2-9-9-5-0" y="-328.03989" x="419.70206"/></text>
 <text id="text4087-2-6-5-55-3" opacity=".8" font-size="12.666px" xml:space="preserve" y="-57.520081" x="-608.03253" font-family="&apos;Bitstream Vera Sans&apos;" fill="#000000"><tspan id="tspan4089-7-2-9-32-3" y="-57.520081" x="-608.03253"/></text>
 <text id="text4087-2-6-5-59-9-3" opacity=".8" font-size="12.666px" xml:space="preserve" y="688.03345" x="-2431.7185" font-family="&apos;Bitstream Vera Sans&apos;" fill="#000000"><tspan id="tspan4089-7-2-9-4-1-7" y="688.03345" x="-2431.7185"/></text>
 <text id="text4087-2-6-5-1-8-3" opacity=".8" font-size="12.666px" xml:space="preserve" y="-919.0506" x="-456.93948" font-family="&apos;Bitstream Vera Sans&apos;" fill="#000000"><tspan id="tspan4089-7-2-9-7-8-2" y="-919.0506" x="-456.93948"/></text>
 <text id="text4087-2-6-5-7-8-6" opacity=".8" font-size="12.666px" xml:space="preserve" y="-1332.5208" x="350.66266" font-family="&apos;Bitstream Vera Sans&apos;" fill="#000000"><tspan id="tspan4089-7-2-9-1-9-5" y="-1332.5208" x="350.66266"/></text>
 <text id="text4087-2-6-5-5-52-2" opacity=".8" font-size="12.666px" xml:space="preserve" y="-1373.2626" x="374.62357" font-family="&apos;Bitstream Vera Sans&apos;" fill="#000000"><tspan id="tspan4089-7-2-9-6-4-6" y="-1373.2626" x="374.62357"/></text>
 <text id="text4087-2-6-5-3-4-5" opacity=".8" font-size="12.666px" xml:space="preserve" y="-1380.4724" x="-1116.8396" font-family="&apos;Bitstream Vera Sans&apos;" fill="#000000"><tspan id="tspan4089-7-2-9-18-3-8" y="-1380.4724" x="-1116.8396"/></text>
 <text id="text4087-2-6-5-4-7-7" opacity=".8" font-size="12.666px" xml:space="preserve" y="-1653.7065" x="343.70316" font-family="&apos;Bitstream Vera Sans&apos;" fill="#000000"><tspan id="tspan4089-7-2-9-9-54-9" y="-1653.7065" x="343.70316"/></text>
 <text id="text4087-2-6-5-7-1-2-6" opacity=".8" font-size="12.666px" xml:space="preserve" y="-1027.0154" x="1829.8265" font-family="&apos;Bitstream Vera Sans&apos;" fill="#000000"><tspan id="tspan4089-7-2-9-1-8-0-0" y="-1027.0154" x="1829.8265"/></text>
 <text id="text4087-2-6-5-5-5-6-4" opacity=".8" font-size="12.666px" xml:space="preserve" y="-1067.757" x="1853.7874" font-family="&apos;Bitstream Vera Sans&apos;" fill="#000000"><tspan id="tspan4089-7-2-9-6-9-8-1" y="-1067.757" x="1853.7874"/></text>
 <text id="text4087-2-6-5-75-4-0" opacity=".8" font-size="12.666px" xml:space="preserve" y="-1074.9668" x="362.32431" font-family="&apos;Bitstream Vera Sans&apos;" fill="#000000"><tspan id="tspan4089-7-2-9-3-9-4" y="-1074.9668" x="362.32431"/></text>
 <text id="text4087-2-6-5-4-8-1-8" opacity=".8" font-size="12.666px" xml:space="preserve" y="-1348.2009" x="1822.8671" font-family="&apos;Bitstream Vera Sans&apos;" fill="#000000"><tspan id="tspan4089-7-2-9-9-8-8-7" y="-1348.2009" x="1822.8671"/></text>
 <text id="text4087-2-6-5-45-0-0" opacity=".8" font-size="12.666px" xml:space="preserve" y="-1123.0581" x="-575.492" font-family="&apos;Bitstream Vera Sans&apos;" fill="#000000"><tspan id="tspan4089-7-2-9-75-2-8" y="-1123.0581" x="-575.492"/></text>
 <text id="text4087-2-6-5-59-5-6" opacity=".8" font-size="12.666px" xml:space="preserve" y="-377.50461" x="-2399.1777" font-family="&apos;Bitstream Vera Sans&apos;" fill="#000000"><tspan id="tspan4089-7-2-9-4-00-2" y="-377.50461" x="-2399.1777"/></text>
 <text id="text4087-2-6-5-264-4" opacity=".8" font-size="12.666px" xml:space="preserve" y="-284.63245" x="-684.42224" font-family="&apos;Bitstream Vera Sans&apos;" fill="#000000"><tspan id="tspan4089-7-2-9-8-7" y="-284.63245" x="-684.42224"/></text>
 <text id="text4087-2-6-5-42-9" opacity=".8" font-size="12.666px" xml:space="preserve" y="-43.718292" x="155.5923" font-family="&apos;Bitstream Vera Sans&apos;" fill="#000000"><tspan id="tspan4089-7-2-9-93-3" y="-43.718292" x="155.5923"/></text>
 <text id="text4087-2-6-5-5-05-9" opacity=".8" font-size="12.666px" xml:space="preserve" y="-84.460007" x="179.55324" font-family="&apos;Bitstream Vera Sans&apos;" fill="#000000"><tspan id="tspan4089-7-2-9-6-49-2" y="-84.460007" x="179.55324"/></text>
 <text id="text4087-2-6-5-1-4-8" opacity=".8" font-size="12.666px" xml:space="preserve" y="-278.48859" x="-1090.2634" font-family="&apos;Bitstream Vera Sans&apos;" fill="#000000"><tspan id="tspan4089-7-2-9-7-7-3" y="-278.48859" x="-1090.2634"/></text>
 <text id="text4087-2-6-5-7-56-0" opacity=".8" font-size="12.666px" xml:space="preserve" y="-691.9588" x="-282.66141" font-family="&apos;Bitstream Vera Sans&apos;" fill="#000000"><tspan id="tspan4089-7-2-9-1-1-1" y="-691.9588" x="-282.66141"/></text>
 <text id="text4087-2-6-5-5-8-7" opacity=".8" font-size="12.666px" xml:space="preserve" y="-732.7005" x="-258.70047" font-family="&apos;Bitstream Vera Sans&apos;" fill="#000000"><tspan id="tspan4089-7-2-9-6-7-8" y="-732.7005" x="-258.70047"/></text>
 <text id="text4087-2-6-5-3-42-9" opacity=".8" font-size="12.666px" xml:space="preserve" y="-739.91046" x="-1750.1636" font-family="&apos;Bitstream Vera Sans&apos;" fill="#000000"><tspan id="tspan4089-7-2-9-18-39-1" y="-739.91046" x="-1750.1636"/></text>
 <text id="text4087-2-6-5-4-4-5" opacity=".8" font-size="12.666px" xml:space="preserve" y="-1013.1445" x="-289.62085" font-family="&apos;Bitstream Vera Sans&apos;" fill="#000000"><tspan id="tspan4089-7-2-9-9-3-4" y="-1013.1445" x="-289.62085"/></text>
 <text id="text4087-2-6-5-7-1-0-9" opacity=".8" font-size="12.666px" xml:space="preserve" y="-386.45316" x="1196.5026" font-family="&apos;Bitstream Vera Sans&apos;" fill="#000000"><tspan id="tspan4089-7-2-9-1-8-5-2" y="-386.45316" x="1196.5026"/></text>
 <text id="text4087-2-6-5-5-5-5-5" opacity=".8" font-size="12.666px" xml:space="preserve" y="-427.19489" x="1220.4634" font-family="&apos;Bitstream Vera Sans&apos;" fill="#000000"><tspan id="tspan4089-7-2-9-6-9-2-7" y="-427.19489" x="1220.4634"/></text>
 <text id="text4087-2-6-5-75-9-4" opacity=".8" font-size="12.666px" xml:space="preserve" y="-434.40482" x="-270.99973" font-family="&apos;Bitstream Vera Sans&apos;" fill="#000000"><tspan id="tspan4089-7-2-9-3-1-9" y="-434.40482" x="-270.99973"/></text>
 <text id="text4087-2-6-5-4-8-18-9" opacity=".8" font-size="12.666px" xml:space="preserve" y="-707.63892" x="1189.5431" font-family="&apos;Bitstream Vera Sans&apos;" fill="#000000"><tspan id="tspan4089-7-2-9-9-8-4-4" y="-707.63892" x="1189.5431"/></text>
 <text id="text4087-2-6-5-45-3-5" opacity=".8" font-size="12.666px" xml:space="preserve" y="-482.49609" x="-1208.816" font-family="&apos;Bitstream Vera Sans&apos;" fill="#000000"><tspan id="tspan4089-7-2-9-75-7-9" y="-482.49609" x="-1208.816"/></text>
 <text id="text4087-2-6-5-59-8-3" opacity=".8" font-size="12.666px" xml:space="preserve" y="263.05743" x="-3032.5017" font-family="&apos;Bitstream Vera Sans&apos;" fill="#000000"><tspan id="tspan4089-7-2-9-4-2-5" y="263.05743" x="-3032.5017"/></text>
 <g id="layer4-0-7" transform="matrix(.90475 0 0 .90475 -716.75 -693.05)">
  <text id="text4087-2-6-5-20-0" opacity=".8" font-size="14px" xml:space="preserve" y="1159.4154" x="-664.2738" font-family="&apos;Bitstream Vera Sans&apos;" fill="#000000"><tspan id="tspan4089-7-2-9-82-8" y="1159.4154" x="-664.2738"/></text>
 </g>
 <text id="text7276" font-size="12.666px" xml:space="preserve" y="-385.22546" x="435.90427" font-family="&apos;Droid Sans&apos;" fill="#000000"><tspan id="tspan7278" y="-385.22546" x="435.90427"/><tspan id="tspan7280" y="-369.3924" x="435.90427"/></text>
 <text id="text4087-2-6-5-51" opacity=".8" font-size="12.666px" xml:space="preserve" y="-867.27002" x="901.0882" font-family="&apos;Bitstream Vera Sans&apos;" fill="#000000"><tspan id="tspan4089-7-2-9-97" y="-867.27002" x="901.0882"/></text>
 <text id="text4087-2-6-5-59-2" opacity=".8" font-size="12.666px" xml:space="preserve" y="-121.71655" x="-922.59778" font-family="&apos;Bitstream Vera Sans&apos;" fill="#000000"><tspan id="tspan4089-7-2-9-4-4" y="-121.71655" x="-922.59778"/></text>
 <text id="text4087-2-6-5-7-7" opacity=".8" font-size="12.666px" xml:space="preserve" y="-1152.2659" x="1628.1677" font-family="&apos;Bitstream Vera Sans&apos;" fill="#000000"><tspan id="tspan4089-7-2-9-1-6" y="-1152.2659" x="1628.1677"/></text>
 <text id="text4087-2-6-5-5-6" opacity=".8" font-size="12.666px" xml:space="preserve" y="-1193.0076" x="1652.1285" font-family="&apos;Bitstream Vera Sans&apos;" fill="#000000"><tspan id="tspan4089-7-2-9-6-53" y="-1193.0076" x="1652.1285"/></text>
 <text id="text4087-2-6-5-54" opacity=".8" font-size="12.666px" xml:space="preserve" y="-1200.2175" x="160.66542" font-family="&apos;Bitstream Vera Sans&apos;" fill="#000000"><tspan id="tspan4089-7-2-9-0" y="-1200.2175" x="160.66542"/></text>
 <text id="text4087-2-6-5-4-1" opacity=".8" font-size="12.666px" xml:space="preserve" y="-1473.4517" x="1621.2083" font-family="&apos;Bitstream Vera Sans&apos;" fill="#000000"><tspan id="tspan4089-7-2-9-9-28" y="-1473.4517" x="1621.2083"/></text>
 <g id="g4356" transform="translate(1,1)">
  <path id="path4081" d="m8.9495 1.0005c-0.2125 0.0231-0.3995 0.1965-0.4385 0.4062l-0.4225 2.1406c-0.7585 0.2962-1.4715 0.7031-2.0975 1.2031l-2.0818-0.7031c-0.2163-0.07445-0.4786 0.02205-0.5948 0.2187l-2.0036 3.4689c-0.11285 0.1995-0.06445 0.4755 0.1096 0.625l1.6592 1.453c-0.05843 0.38962-0.093915 0.7816-0.093915 1.1875 0 0.40587 0.035513 0.79785 0.093915 1.1875l-1.6592 1.453c-0.17405 0.1495-0.22245 0.4255-0.1096 0.625l2.0036 3.4687c0.1162 0.19671 0.37853 0.29319 0.5948 0.21874l2.0818-0.7031c0.6257 0.49998 1.3388 0.9069 2.0975 1.2031l0.42263 2.1406c0.042825 0.22407 0.25673 0.40314 0.48524 0.40624h4.0072c0.2285-0.003 0.4424-0.18217 0.48524-0.40624l0.42263-2.1406c0.7587-0.29618 1.4718-0.70315 2.0975-1.2031l2.0818 0.7031c0.21628 0.07445 0.47861-0.02205 0.5948-0.21874l2.0036-3.4687c0.11286-0.1995 0.06445-0.4756-0.10957-0.625l-1.6585-1.453c0.05843-0.38962 0.09392-0.7816 0.09392-1.1875 0-0.40587-0.03552-0.79785-0.09392-1.1875l1.6592-1.4531c0.17402-0.14939 0.22242-0.42548 0.10957-0.625l-2.0035-3.4689c-0.116-0.1967-0.3785-0.29315-0.5945-0.2187l-2.0818 0.7031c-0.626-0.5-1.339-0.90695-2.0975-1.2031l-0.4225-2.1406c-0.043-0.22405-0.257-0.40315-0.4855-0.40625h-4.0072c-0.01563-0.00049999-0.031305-0.00049999-0.046935 0z" style="enable-background:new" fill="#78ac3d"/>
  <path id="path4035" d="m11 6.9999c2.2092 0 4 1.7908 4 4s-1.7908 4-4 4-4-1.7908-4-4 1.7908-4 4-4z" style="enable-background:new" fill="#fff"/>
  <path id="path4258" opacity=".2" d="m8.8975 1.0003c-0.218 0.02285-0.41 0.19445-0.4495 0.4019l-0.4335 2.1176c-0.778 0.29305-1.5095 0.6956-2.151 1.1901l-2.1347-0.6954c-0.2218-0.07365-0.4908 0.0218-0.60995 0.2164l-2.0546 3.4316c0.027942 0.049475 0.067745 0.08671 0.11236 0.12366l0.080255 0.06183 1.862-3.1224c0.1192-0.1945 0.3882-0.28995 0.61-0.2165l2.1348 0.6956c0.64165-0.49462 1.3728-0.8972 2.1509-1.1902l0.4333-2.1177c0.03981-0.20746 0.23165-0.37904 0.44944-0.40189 0.016025-0.0004947 0.0321-0.0004947 0.04813 0h4.1092c0.23432 0.00297 0.45366 0.18022 0.49759 0.40189l0.43338 2.1176c0.77805 0.293 1.5092 0.6956 2.1509 1.1902l2.1348-0.6956c0.22178-0.073645 0.49079 0.021815 0.60995 0.2164l1.862 3.1224 0.08025-0.06183c0.04463-0.03695 0.08441-0.074185 0.11236-0.12366l-2.055-3.4316c-0.119-0.1946-0.388-0.29005-0.61-0.2164l-2.1345 0.69545c-0.6415-0.4945-1.373-0.89705-2.151-1.1901l-0.4335-2.1176c-0.044-0.22165-0.263-0.3988-0.4975-0.4019h-4.1092c-0.016025-0.00049469-0.032105-0.00049469-0.04813 0zm-7.8815 6.9865c0.0094 0.0584 0.0195 0.1192 0.0481 0.17-0.0279-0.0495-0.038-0.1143-0.0481-0.17zm19.968 0c-0.01012 0.055715-0.02024 0.12056-0.04813 0.17003 0.02871-0.050805 0.03878-0.11157 0.04813-0.17003zm-18.154 2.1795c-0.016334 0.15866-0.023268 0.31914-0.032103 0.47918 0.00308 0.08338 0.011249 0.16434 0.016026 0.24732 0.0132-0.22827 0.029535-0.45698 0.064205-0.6801l-0.04815-0.0465zm16.34 0-0.04813 0.04634c0.03467 0.22314 0.051 0.45186 0.06421 0.6801 0.0046-0.08298 0.01294-0.16393 0.01602-0.24732-0.0088-0.16004-0.01577-0.32052-0.03211-0.47918zm-16.34 1.9475-1.6533 1.3915c-0.044636 0.03695-0.084415 0.07419-0.11236 0.12366l0.19262 0.30914 1.6212-1.3757c-0.0228-0.148-0.0328-0.301-0.0481-0.449zm16.34 0c-0.01531 0.14836-0.02532 0.30122-0.04813 0.44826l1.6212 1.3757 0.19262-0.30914c-0.02794-0.04948-0.06774-0.08671-0.11236-0.12366l-1.654-1.3915zm-18.17 1.808c0.00155 0.027 0.0099 0.0515 0.01605 0.0775-0.0067-0.0265-0.0137-0.05-0.01605-0.0775zm20 0c-0.0025 0.0275-0.0095 0.051-0.016 0.0775 0.006-0.026 0.0145-0.0505 0.016-0.0775z" style="enable-background:new" fill="#fff"/>
  <path id="path4098" opacity=".2" style="enable-background:new" d="m1.3144 8.2264-0.0039 0.0078c-0.11286 0.1995-0.06367 0.47561 0.11035 0.625l1.6054 1.4062c0.015-0.152 0.0312-0.3035 0.05375-0.4535l-1.6592-1.453c-0.0434-0.0369-0.0791-0.0824-0.1064-0.1324zm19.371 0c-0.027 0.05-0.062 0.0954-0.106 0.1328l-1.659 1.453c0.02251 0.15016 0.03872 0.3016 0.05371 0.45312l1.6054-1.4062c0.17402-0.14939 0.22321-0.4255 0.11035-0.625l-0.0039-0.00781zm-17.69 3.0235c-0.00297 0.08351-0.010742 0.16538-0.010742 0.25 0 0.24918 0.017163 0.49299 0.041016 0.7344l0.05375-0.047c-0.04625-0.3085-0.0727-0.6205-0.084-0.9375zm16.008 0c-0.01128 0.31707-0.03774 0.6291-0.08398 0.9375l0.05371 0.04687c0.02385-0.24138 0.04102-0.48519 0.04102-0.7344 0-0.08461-0.0078-0.16649-0.01074-0.25zm-17.69 3.0235c-0.0803 0.149-0.0871 0.342-0.0025 0.492l2.0039 3.4688c0.1162 0.19671 0.37844 0.2932 0.59475 0.21875l2.0818-0.703c0.6257 0.49998 1.339 0.90695 2.0976 1.2031l0.42188 2.1406c0.0428 0.223 0.2569 0.402 0.4854 0.405h4.0078c0.22851-0.003 0.4425-0.18218 0.48535-0.40625l0.42188-2.1406c0.7585-0.2965 1.4715-0.7035 2.0975-1.2035l2.082 0.7031c0.21628 0.07445 0.47852-0.02206 0.59475-0.21875l2.0039-3.4688c0.08464-0.14962 0.07783-0.34216-0.0039-0.49219l-2 3.461c-0.1162 0.1967-0.37844 0.2932-0.59475 0.21875l-2.082-0.703c-0.6257 0.49998-1.339 0.90695-2.0976 1.2031l-0.42188 2.1406c-0.043 0.2245-0.257 0.4035-0.4855 0.4065h-4.0078c-0.2271-0.003-0.4411-0.182-0.4839-0.406l-0.4219-2.141c-0.7585-0.2965-1.4715-0.7035-2.0975-1.2035l-2.082 0.7031c-0.2163 0.074-0.4786-0.022-0.5948-0.219l-2-3.461z"/>
  <g id="g4458" transform="matrix(.92308 0 0 .92308 -.076923 -.076935)">
   <path id="path4223" opacity=".2" style="color-rendering:auto;text-decoration-color:#000000;color:#000000;isolation:auto;mix-blend-mode:normal;shape-rendering:auto;solid-color:#000000;block-progression:tb;text-decoration-line:none;image-rendering:auto;white-space:normal;text-indent:0;text-transform:none;text-decoration-style:solid" d="m12 5.5c-3.5853 0-6.5 2.9147-6.5 6.5s2.9147 6.5 6.5 6.5 6.5-2.9147 6.5-6.5-2.9147-6.5-6.5-6.5zm0 0.76471c3.1721 0 5.7353 2.5632 5.7353 5.7353s-2.5632 5.7353-5.7353 5.7353c-3.172 0-5.7353-2.5633-5.7353-5.7353s2.5633-5.7353 5.7353-5.7353z"/>
   <path id="path4176" d="m11.332 5.5343c-3.2721 0.3352-5.832 3.1056-5.832 6.4657 0 3.5853 2.9147 6.5 6.5 6.5 0.53789 0 1.0577-0.07277 1.5578-0.1964 0.04628-0.107 0.12793-0.2888 0.09262-0.43168-0.03261-0.13193-0.14045-0.24427-0.26139-0.31288-0.44506 0.1105-0.90885 0.17626-1.3887 0.17626-3.172 0-5.7353-2.5633-5.7353-5.7353 0-3.0244 2.3316-5.4891 5.2975-5.7127 0.115-0.1242 0.159-0.2578 0.137-0.4326-0.022-0.1801-0.16-0.2777-0.366-0.3204z" style="color-rendering:auto;text-decoration-color:#000000;color:#000000;isolation:auto;mix-blend-mode:normal;shape-rendering:auto;solid-color:#000000;block-progression:tb;text-decoration-line:none;image-rendering:auto;white-space:normal;text-indent:0;text-transform:none;text-decoration-style:solid" fill="#ffee57"/>
  </g>
 </g>
</svg>
