<svg xmlns="http://www.w3.org/2000/svg" width="24" height="24" version="1">
 <g transform="translate(1,1)">
  <rect fill="#85aeff" width="13.953" height="14" x="1.05" y="-21" rx=".797" ry=".8" transform="rotate(90)"/>
  <path opacity=".2" d="m9 11v-0.99999h5.9999v0.99999zm0-2v-0.99999h8.9999v0.99999zm0-2v-0.99999h8.9999v0.99999zm0-2v-0.99999h8.9999v0.99999z"/>
  <path opacity=".2" d="m7.0001 14.203v0.499c0 0.442 0.3565 0.79799 0.79999 0.79799h12.4c0.444 0 0.8-0.356 0.8-0.798v-0.499c0 0.442-0.3565 0.79699-0.79999 0.79699h-12.4c-0.4435 0-0.79999-0.355-0.79999-0.79699z"/>
  <rect fill="#a7baff" width="14" height="14" x="7" y="-15" rx=".8" ry=".8" transform="rotate(90)"/>
  <path opacity=".2" d="m1.0002 20.2v0.5c0 0.444 0.3566 0.8 0.7998 0.8h12.4c0.4435 0 0.79999-0.3565 0.79999-0.79999v-0.5c0 0.4435-0.3565 0.79999-0.79999 0.79999h-12.4c-0.4434 0-0.8-0.356-0.8-0.8z"/>
  <path opacity=".5" d="m3 17v-0.99999h5.9999v0.99999zm0-2v-0.99999h8.9999v0.99999zm0-2v-0.99999h8.9999v0.99999zm0-2v-0.99999h8.9999v0.99999z"/>
  <path fill="#fff" opacity=".2" d="m1.8008 7c-0.4432 0-0.8008 0.3576-0.8008 0.8008v0.5c0-0.4432 0.3576-0.8008 0.8008-0.8008h12.398c0.443 0 0.801 0.3576 0.801 0.8008v-0.5c0-0.4432-0.358-0.8008-0.801-0.8008h-12.398z"/>
  <path fill="#fff" opacity=".2" d="m7.8008 1.0469c-0.4432 0-0.8008 0.3551-0.8008 0.7969v0.5c0-0.4418 0.3576-0.7969 0.8008-0.7969h12.398c0.443 0 0.801 0.3551 0.801 0.7969v-0.5c0-0.4418-0.358-0.7969-0.801-0.7969h-12.398z"/>
 </g>
</svg>
