<svg xmlns="http://www.w3.org/2000/svg" width="24" height="24" version="1">
 <rect style="opacity:0.2" width="19.5" height="4" x="3" y="-22" rx=".5" transform="rotate(90)"/>
 <rect style="fill:#2b50a1" width="19.5" height="4" x="2.5" y="-22" rx=".5" transform="rotate(90)"/>
 <rect style="fill:#2b50a1" width="19.5" height="4" x="2" y="-6" rx=".5" transform="rotate(90)"/>
 <rect style="fill:#2b50a1" width="19.5" height="4" x="2" y="-13" rx=".5" transform="rotate(90)"/>
 <path style="opacity:0.2" d="M 2.5234375,2.5 C 2.233247,2.5 2,2.733247 2,3.0234375 v 2.953125 C 2,6.266753 2.233247,6.5 2.5234375,6.5 H 12.476562 C 12.766753,6.5 13,6.266753 13,5.9765625 V 3.0234375 C 13,2.733247 12.766753,2.5 12.476562,2.5 Z m 12.9433595,0 C 15.208264,2.5 15,2.7082635 15,2.9667969 V 6.0332031 C 15,6.2917365 15.208264,6.5 15.466797,6.5 h 6.066406 C 21.791736,6.5 22,6.2917365 22,6.0332031 V 2.9667969 C 22,2.7082635 21.791736,2.5 21.533203,2.5 Z M 2.5234375,18.5 C 2.233247,18.5 2,18.733247 2,19.023438 v 2.953124 C 2,22.266753 2.233247,22.5 2.5234375,22.5 H 12.476562 C 12.766753,22.5 13,22.266753 13,21.976562 V 19.023438 C 13,18.733247 12.766753,18.5 12.476562,18.5 Z"/>
 <rect style="fill:#3a6be0" width="11" height="4" x="2" y="2" rx=".524"/>
 <rect style="fill:#3a6be0" width="7" height="4" x="15" y="2" rx=".467"/>
 <rect style="fill:#3a6be0" width="11" height="4" x="2" y="18" rx=".524"/>
 <path style="fill:#ffffff;opacity:0.1" d="M 2.5234375 2 C 2.233247 2 2 2.233247 2 2.5234375 L 2 3.0234375 C 2 2.733247 2.233247 2.5 2.5234375 2.5 L 12.476562 2.5 C 12.766754 2.5 13 2.733247 13 3.0234375 L 13 2.5234375 C 13 2.233247 12.766754 2 12.476562 2 L 2.5234375 2 z M 15.466797 2 C 15.208264 2 15 2.2082635 15 2.4667969 L 15 2.9667969 C 15 2.7082635 15.208264 2.5 15.466797 2.5 L 21.533203 2.5 C 21.791736 2.5 22 2.7082635 22 2.9667969 L 22 2.4667969 C 22 2.2082635 21.791736 2 21.533203 2 L 15.466797 2 z M 2.5234375 18 C 2.233247 18 2 18.233246 2 18.523438 L 2 19.023438 C 2 18.733246 2.233247 18.5 2.5234375 18.5 L 12.476562 18.5 C 12.766754 18.5 13 18.733246 13 19.023438 L 13 18.523438 C 13 18.233246 12.766754 18 12.476562 18 L 2.5234375 18 z"/>
</svg>
