<svg xmlns="http://www.w3.org/2000/svg" width="24" height="24" version="1.1">
 <circle style="opacity:0.2" cx="12" cy="12.5" r="10"/>
 <circle style="fill:#f1513c" cx="12" cy="12" r="10"/>
 <path style="opacity:0.2;fill:#ffffff" d="M 12,2 A 10,10 0 0 0 2,12 10,10 0 0 0 2.01075,12.291 10,10 0 0 1 12,2.5 10,10 0 0 1 21.9895,12.209 10,10 0 0 0 22,12 10,10 0 0 0 12,2 Z"/>
 <path style="opacity:0.2" d="m 6.076172,8.499996 c -0.34555,0 -0.6390455,0.00576 -0.879883,0.0166 -0.5130892,0.0271 -0.7695312,0.224211 -0.7695312,0.5927735 0,0.1138195 0.0335,0.2035145 0.1015625,0.2685545 0.073298,0.059622 0.2050726,0.089844 0.3935547,0.089844 L 5.5810545,9.458978 C 5.497285,10.125643 5.40354,10.773607 5.298828,11.402338 l -0.1728515,1.065429 c -0.057592,0.357724 -0.1497363,0.969704 -0.2753906,1.836914 l -0.023437,0.178711 -0.3691406,0.0088 c -0.303665,0.0054 -0.5394919,0.0625 -0.7070313,0.170899 C 3.5834374,14.771482 3.5,14.923038 3.5,15.11816 c 0,0.124662 0.03963,0.219139 0.118164,0.28418 C 3.696698,15.46738 3.7930199,15.5 3.9082031,15.5 c 0.073298,0 0.1963657,-0.01392 0.3691406,-0.04101 0.3926701,-0.05962 0.7541413,-0.08887 1.0839843,-0.08887 0.08377,0 0.256775,0.0048 0.518555,0.01563 0.282723,0.01084 0.489227,0.0166 0.620117,0.0166 0.1937175,0 0.3425535,-0.04893 0.4472655,-0.146485 0.1099475,-0.09756 0.165039,-0.216502 0.165039,-0.357422 0,-0.151763 -0.049935,-0.265917 -0.149414,-0.341797 -0.099476,-0.07588 -0.2879425,-0.113281 -0.5654295,-0.113281 -0.1884815,0 -0.3373175,0.0024 -0.4472655,0.0078 0.068062,-0.536588 0.160207,-1.203254 0.2753905,-2 l 0.1640625,-1.06543 C 6.4105935,11.255654 6.4682585,10.901225 6.5625,10.321282 6.64627,9.800957 6.6936315,9.508393 6.7041015,9.4433525 6.86117,9.4379325 7.091843,9.4345625 7.395508,9.4345625 c 0.193717,0 0.3425535,-0.051312 0.4472655,-0.154297 C 7.9474855,9.17187 8,9.030858 8,8.857418 8,8.7598565 7.95264,8.6792945 7.8583985,8.614254 7.7641575,8.543794 7.6488215,8.5078085 7.5126955,8.5078085 Z m 2.9785155,3 c -0.2098015,0 -0.374087,0.03988 -0.493164,0.119141 C 8.448118,11.692738 8.365486,11.811392 8.314453,11.975582 8.1046515,12.638005 8,13.33722 8,14.073238 c 0,0.498232 0.042875,0.86045 0.1279295,1.086914 0.090726,0.22647 0.243513,0.339844 0.4589845,0.339844 0.1757795,0 0.3034285,-0.04515 0.3828125,-0.135742 0.085055,-0.09625 0.1583295,-0.277849 0.220703,-0.543945 0.073714,-0.305733 0.1699865,-0.616536 0.2890625,-0.933594 0.124747,-0.317055 0.2523955,-0.577429 0.3828125,-0.78125 0.130417,-0.203822 0.2381875,-0.305665 0.3232425,-0.305665 0.06237,0 0.09375,0.04515 0.09375,0.135743 0,0.113232 -0.02299,0.350539 -0.06836,0.71289 -0.0567,0.407643 -0.08496,0.719427 -0.08496,0.934571 0,0.254774 0.04599,0.472142 0.136719,0.65332 0.09639,0.175512 0.237683,0.263672 0.424804,0.263672 0.18145,0 0.312217,-0.04515 0.391602,-0.135742 0.08505,-0.09058 0.15833,-0.272184 0.220703,-0.543945 0.08505,-0.345364 0.195943,-0.673954 0.332031,-0.985352 0.136087,-0.311393 0.272115,-0.560236 0.408203,-0.74707 0.136088,-0.1925 0.240739,-0.288086 0.314453,-0.288086 0.06237,0 0.09375,0.04516 0.09375,0.135742 0,0.135881 -0.03664,0.381596 -0.110351,0.738281 -0.07938,0.407644 -0.119141,0.69108 -0.119141,0.84961 0,0.317054 0.07328,0.560617 0.220703,0.730468 0.147428,0.16419 0.366087,0.246094 0.655274,0.246094 0.357229,0 0.675279,-0.09656 0.953125,-0.289062 0.283515,-0.192495 0.547192,-0.43821 0.791015,-0.738282 C 14.946604,14.348093 15,14.172751 15,13.946285 c 0,-0.118898 -0.02299,-0.212333 -0.06836,-0.280273 -0.03969,-0.06794 -0.09621,-0.102539 -0.169922,-0.102539 -0.08505,0 -0.161448,0.03988 -0.229492,0.11914 -0.260834,0.311398 -0.471114,0.538146 -0.629883,0.679688 -0.153099,0.135881 -0.286008,0.203125 -0.399414,0.203125 -0.164439,0 -0.246094,-0.112397 -0.246094,-0.338867 0,-0.15853 0.0534,-0.484973 0.161133,-0.977539 0.124747,-0.577495 0.1875,-0.976462 0.1875,-1.197266 10e-7,-0.368012 -0.184163,-0.551758 -0.552733,-0.551758 -0.300527,0 -0.623838,0.158532 -0.969727,0.475586 -0.34589,0.317054 -0.66082,0.824115 -0.944336,1.520508 0.01701,-0.101911 0.04838,-0.255164 0.09375,-0.458984 0.107735,-0.475584 0.161133,-0.804179 0.161133,-0.985352 0,-0.186839 -0.04287,-0.325431 -0.12793,-0.416016 -0.07938,-0.09059 -0.217554,-0.135742 -0.416015,-0.135742 -0.198461,0 -0.41186,0.07663 -0.638672,0.229492 -0.221143,0.147208 -0.4388255,0.373956 -0.6542975,0.679688 -0.209802,0.305732 -0.391824,0.678508 -0.5449215,1.120117 0.02268,-0.249114 0.051915,-0.454951 0.085937,-0.619141 0.03402,-0.169852 0.079039,-0.368262 0.1357425,-0.594727 0.085055,-0.317054 0.1279295,-0.520738 0.1279295,-0.611328 0,-0.07927 -0.022995,-0.133806 -0.068359,-0.162109 -0.045362,-0.0283 -0.124875,-0.04199 -0.2382815,-0.04199 z"/>
 <path style="fill:#ffffff" d="m 7.513089,8.0081315 q 0.204189,0 0.3455505,0.10569 Q 8,8.2113825 8,8.3577245 8,8.617885 7.842932,8.7804845 7.685864,8.934961 7.3952885,8.934961 q -0.4554975,0 -0.6911,0.00813 Q 6.6884835,9.040652 6.562828,9.82114 6.421466,10.691054 6.3900525,10.886176 l -0.164921,1.065043 Q 6.052356,13.146338 5.950262,13.95122 q 0.164922,-0.0081 0.447644,-0.0081 0.4162305,0 0.565445,0.113819 0.149215,0.113819 0.149215,0.341463 0,0.21138 -0.164921,0.357722 -0.157068,0.146342 -0.4476445,0.146342 -0.196335,0 -0.6204195,-0.01626 -0.3926695,-0.01626 -0.5183245,-0.01626 -0.4947644,0 -1.0837695,0.08943 -0.2591624,0.04064 -0.36911,0.04064 -0.1727749,0 -0.2905759,-0.09756 Q 3.5,14.804876 3.5,14.617882 3.5,14.325199 3.7513089,14.1626 4.0026178,14 4.4581153,13.991865 l 0.3691102,-0.0081 0.02356,-0.178857 q 0.1884815,-1.300847 0.274869,-1.837432 l 0.172775,-1.065035 Q 5.4554975,9.959346 5.581152,8.9593485 l -0.6596854,0.00812 q -0.2827231,0 -0.3926707,-0.089432 -0.1020942,-0.097561 -0.1020942,-0.2682895 0,-0.5528435 0.7696338,-0.593495 0.361256,-0.01626 0.879581,-0.01626 z"/>
 <path style="fill:#414141" d="m 20.025608,13.465408 c 0.08323,-0.03283 0.152582,-0.04923 0.208066,-0.04923 0.08878,0 0.155357,0.03282 0.199744,0.09848 0.04439,0.06565 0.06658,0.150449 0.06658,0.254396 0,0.164126 -0.04162,0.303632 -0.12484,0.418519 -0.07768,0.114891 -0.213615,0.21884 -0.40781,0.311846 -0.327359,0.153182 -0.751814,0.276276 -1.273368,0.369282 -0.521552,0.08753 -1.034782,0.131295 -1.539691,0.131295 -0.699103,0 -1.284464,-0.07659 -1.756081,-0.229779 C 14.926591,14.61156 14.574264,14.39546 14.341229,14.121917 14.113743,13.848374 14,13.539268 14,13.194599 c 0,-0.470495 0.152582,-0.86987 0.457746,-1.198123 0.310714,-0.333724 0.765686,-0.574442 1.364918,-0.722153 -0.327359,-0.09301 -0.579813,-0.257133 -0.757363,-0.492381 -0.172001,-0.235247 -0.258002,-0.49785 -0.258002,-0.787808 0,-0.393905 0.12484,-0.741306 0.374519,-1.0422045 0.255229,-0.3063685 0.596458,-0.5416165 1.023687,-0.705743 0.427231,-0.164127 0.896074,-0.2461905 1.406531,-0.2461905 0.688006,0 1.003769,0.147714 1.347772,0.4431425 0.344004,0.2899535 0.516005,0.667443 0.516005,1.1324685 0,0.322783 -0.06103,0.585386 -0.183098,0.787808 -0.116518,0.196952 -0.285745,0.295428 -0.507683,0.295428 -0.155357,0 -0.277422,-0.03282 -0.366197,-0.09848 -0.08877,-0.07112 -0.133163,-0.175067 -0.133163,-0.311838 0,-0.09301 0.01387,-0.194217 0.04161,-0.303633 0.02774,-0.180542 0.04161,-0.303638 0.04161,-0.369289 0,-0.1969525 -0.0749,-0.355607 -0.224711,-0.4759635 -0.149809,-0.1258315 -0.199245,-0.188747 -0.548797,-0.188747 -0.471617,0 -0.848912,0.098476 -1.131883,0.295428 -0.28297,0.1969525 -0.424455,0.4622905 -0.424455,0.7960135 0,0.257133 0.10542,0.470498 0.316261,0.640096 0.216389,0.164126 0.365747,0.254395 0.848461,0.270805 0.122066,0.0055 0.208066,0.03283 0.258002,0.08207 0.04994,0.04924 0.0749,0.131304 0.0749,0.24619 0,0.361079 -0.166453,0.544353 -0.499359,0.549824 -0.460521,0.01094 -0.643169,0.07386 -0.948333,0.188747 -0.299616,0.114886 -0.518779,0.2626 -0.657491,0.443142 -0.133162,0.175067 -0.199744,0.363812 -0.199744,0.566234 0,0.339198 0.160905,0.596331 0.482715,0.771398 0.32181,0.169597 0.832266,0.254395 1.53137,0.254395 0.460521,0 0.94601,-0.05197 1.456466,-0.155919 0.516005,-0.109416 0.957106,-0.240718 1.323303,-0.393904 z"/>
 <path style="fill:#ffffff" d="m 8.586877,14.999996 q -0.3232075,0 -0.459296,-0.339705 Q 8,14.320594 8,13.573245 8,12.469218 8.3147025,11.475584 8.3912515,11.229298 8.56136,11.118896 q 0.1786155,-0.118893 0.4933175,-0.118893 0.1701095,0 0.238153,0.04246 0.068044,0.04246 0.068044,0.161357 0,0.135884 -0.1275815,0.611465 -0.085055,0.339698 -0.1360885,0.594475 -0.051034,0.246285 -0.085054,0.619956 0.229647,-0.662413 0.54435,-1.121011 0.3232075,-0.458599 0.6549215,-0.67941 0.340218,-0.229296 0.637909,-0.229296 0.297692,0 0.416769,0.135883 0.127581,0.135877 0.127581,0.416135 0,0.271759 -0.161603,0.985135 -0.06804,0.305732 -0.09356,0.458598 0.425274,-1.044588 0.944108,-1.52017 0.518833,-0.475581 0.969623,-0.475581 0.552855,0 0.552855,0.552018 0,0.331206 -0.18712,1.197448 -0.161604,0.738849 -0.161604,0.976643 0,0.339705 0.246658,0.339705 0.17011,0 0.399758,-0.203822 0.238153,-0.212313 0.629404,-0.679409 0.102066,-0.118894 0.229647,-0.118894 0.110571,0 0.170109,0.101911 Q 15,13.267505 15,13.445853 q 0,0.339698 -0.161604,0.526536 -0.365735,0.450107 -0.791008,0.73885 -0.416768,0.288749 -0.952613,0.288749 -0.433779,0 -0.654921,-0.246285 -0.221142,-0.254778 -0.221142,-0.730359 0,-0.237793 0.119077,-0.849259 0.11057,-0.535027 0.11057,-0.738849 0,-0.135883 -0.09356,-0.135883 -0.110571,0 -0.314702,0.288749 -0.204132,0.280251 -0.408262,0.747341 -0.204132,0.467097 -0.331714,0.985142 -0.09356,0.407643 -0.221142,0.543519 -0.119076,0.135883 -0.391251,0.135883 -0.280681,0 -0.425274,-0.263268 -0.136087,-0.271766 -0.136087,-0.653928 0,-0.322715 0.08506,-0.93418 0.06804,-0.543526 0.06804,-0.713375 0,-0.135883 -0.09356,-0.135883 -0.127582,0 -0.323208,0.305732 -0.195626,0.305732 -0.382746,0.781314 -0.1786145,0.475587 -0.289186,0.934186 -0.093561,0.399145 -0.2211425,0.54352 -0.119076,0.135883 -0.3827455,0.135883 z"/>
</svg>
