<?xml version="1.0" encoding="UTF-8" standalone="no"?>
<svg xmlns="http://www.w3.org/2000/svg" height="24" width="24" version="1">
 <g transform="translate(1,1)">
  <path fill="#ec9a64" d="m7.9695 15.342c-0.5357-0.0284-1.15 0.21736-1.6396 0.70705l-2.121 2.121c-0.7835 0.7835-0.94115 1.887-0.35355 2.4745s1.691 0.43 2.4745-0.3535l2.1211-2.1211c0.7834-0.783 0.941-1.887 0.3535-2.475-0.2204-0.22-0.5136-0.336-0.835-0.353zm6.7195 0c-0.32142 0.01704-0.61365 0.13316-0.834 0.35352-0.5876 0.5876-0.42996 1.6911 0.35352 2.4746l2.1211 2.1211c0.78345 0.78345 1.887 0.9411 2.4746 0.35352s0.42996-1.6911-0.35352-2.4746l-2.1211-2.1211c-0.48967-0.48967-1.105-0.73545-1.6406-0.70705z"/>
  <path opacity=".2" d="m9.135 16.89c-0.069935 0.43831-0.30059 0.89725-0.6836 1.2802l-2.1211 2.1211c-0.784 0.7835-1.8874 0.941-2.475 0.3535-0.18695-0.187-0.29015-0.429-0.33005-0.6935-0.072865 0.458 0.029908 0.8932 0.33008 1.1933 0.5876 0.5876 1.6911 0.42996 2.4746-0.35352l2.1211-2.1211c0.5339-0.534 0.7688-1.214 0.6835-1.78zm4.3906 0c-0.08529 0.5667 0.14958 1.2462 0.6836 1.7802l2.1211 2.1211c0.78345 0.78345 1.887 0.9411 2.4746 0.35352 0.30017-0.30017 0.40294-0.73535 0.33008-1.1933-0.0399 0.26454-0.14308 0.50635-0.33008 0.69335-0.5876 0.5876-1.6912 0.42996-2.4746-0.35351l-2.121-2.121c-0.383-0.383-0.6135-0.842-0.6835-1.2805z"/>
  <path fill="#e74c3c" d="m4.5 1a3.5 3.5 0 0 0 -3.5 3.5 3.5 3.5 0 0 0 3.5 3.5 3.5 3.5 0 0 0 3.5 -3.5 3.5 3.5 0 0 0 -3.5 -3.5zm14 0a3.5 3.5 0 0 0 -3.5 3.5 3.5 3.5 0 0 0 3.5 3.5 3.5 3.5 0 0 0 3.5 -3.5 3.5 3.5 0 0 0 -3.5 -3.5z"/>
  <path opacity=".2" d="m4.5 1a3.5 3.5 0 0 0 -3.5 3.5 3.5 3.5 0 0 0 0.0117 0.2246 3.5 3.5 0 0 1 3.4883 -3.2246 3.5 3.5 0 0 1 3.4883 3.2754 3.5 3.5 0 0 0 0.0117 -0.2754 3.5 3.5 0 0 0 -3.5 -3.5zm14 0a3.5 3.5 0 0 0 -3.5 3.5 3.5 3.5 0 0 0 0.012 0.2246 3.5 3.5 0 0 1 3.488 -3.2246 3.5 3.5 0 0 1 3.488 3.2754 3.5 3.5 0 0 0 0.012 -0.2754 3.5 3.5 0 0 0 -3.5 -3.5z" fill="#fff"/>
  <rect transform="matrix(0,-1,-1,0,0,0)" rx="10" ry="10" height="20" width="20" y="-21.5" x="-21" fill="#e74c3c"/>
  <path opacity=".2" fill="#fff" d="m11.5 1.0091c-5.535 0-9.991 4.4559-9.991 9.991 0 0.08379-0.002 0.1665 0 0.24978 0.1322-5.4185 4.54-9.7415 9.991-9.7415s9.859 4.3229 9.991 9.741c0.002-0.08328 0-0.16599 0-0.24978 0-5.5345-4.456-9.9905-9.991-9.9905z"/>
  <rect opacity=".8" ry="9" rx="9" transform="matrix(0,-1,-1,0,0,0)" height="18" width="18" y="-20.5" x="-20" fill="#fff"/>
  <g transform="matrix(.5 0 0 .5 -.5 -.49999)">
   <path opacity=".8" d="m24 6a2 2 0 0 0 -2 2 2 2 0 0 0 2 2 2 2 0 0 0 2 -2 2 2 0 0 0 -2 -2zm-10.592 5.3926a1 1 0 0 0 -0.72266 0.29297 1 1 0 0 0 0 1.4141 1 1 0 0 0 1.4141 0 1 1 0 0 0 0 -1.4141 1 1 0 0 0 -0.69141 -0.29297zm21.213 0a1 1 0 0 0 -0.7207 0.29297 1 1 0 0 0 0 1.4141 1 1 0 0 0 1.4141 0 1 1 0 0 0 0 -1.4141 1 1 0 0 0 -0.69336 -0.29297zm-25.621 9.607a2 2 0 0 0 -2 2 2 2 0 0 0 2 2 2 2 0 0 0 2 -2 2 2 0 0 0 -2 -2zm30 0a2 2 0 0 0 -2 2 2 2 0 0 0 2 2 2 2 0 0 0 2 -2 2 2 0 0 0 -2 -2zm-25.592 11.607a1 1 0 0 0 -0.72266 0.29297 1 1 0 0 0 0 1.4141 1 1 0 0 0 1.4141 0 1 1 0 0 0 0 -1.4141 1 1 0 0 0 -0.69141 -0.29297zm21.213 0a1 1 0 0 0 -0.7207 0.29297 1 1 0 0 0 0 1.4141 1 1 0 0 0 1.4141 0 1 1 0 0 0 0 -1.4141 1 1 0 0 0 -0.69336 -0.29297zm-10.621 3.393a2 2 0 0 0 -2 2 2 2 0 0 0 2 2 2 2 0 0 0 2 -2 2 2 0 0 0 -2 -2z"/>
  </g>
  <path opacity=".8" d="m10.59 11.384 1.5106 2.6164c0.27674 0.47933 0.88555 0.64185 1.3653 0.36483 0.47978-0.277 0.64345-0.8855 0.36672-1.3648l-1.4999-2.5978 3.4641-2c0.23989-0.1385 0.32156-0.44304 0.18312-0.68285-0.13844-0.23979-0.44302-0.32134-0.6829-0.18284l-4.154 2.3988c-0.567 0.2827-0.782 1.0207-0.553 1.4477z"/>
  <path opacity=".2" d="m1.5058 11.25c-0.00205 0.0835-0.00585 0.166-0.00585 0.25 0 5.54 4.46 10 10 10s10-4.46 10-10c0-0.08394-0.0038-0.16657-0.0059-0.25-0.132 5.423-4.538 9.75-9.994 9.75-5.4559 0-9.8619-4.327-9.9939-9.75z"/>
 </g>
</svg>
