<svg xmlns="http://www.w3.org/2000/svg" width="24" height="24" version="1">
 <g transform="translate(1,1)">
  <rect fill="#e9a84a" width="20" height="20" x="-21" y="-21" rx="1" ry="1" transform="matrix(0,-1,-1,0,0,0)"/>
  <path fill="#fff" opacity=".2" d="m2 1c-0.554 0-1 0.446-1 1v0.5c0-0.554 0.446-1 1-1h18c0.554 0 1 0.446 1 1v-0.5c0-0.554-0.446-1-1-1h-18z"/>
  <path opacity=".2" d="m2 21.5c-0.554 0-1-0.446-1-1v-0.5c0 0.554 0.446 1 1 1h18c0.554 0 1-0.446 1-1v0.5c0 0.554-0.446 1-1 1h-18z"/>
  <g opacity=".4" transform="matrix(.5 0 0 .5 .0000872 -1)">
   <path fill-rule="evenodd" d="m10.945 3.9883a1.0001 1.0001 0 0 0 -0.91211 0.75781s-0.24539 0.97281-0.50781 2.3672c-0.0417-0.0134-0.1071-0.0225-0.1424-0.0371 0.1358 0.0562-0.13-0.1123-0.2871-0.295-0.157-0.1826-0.2715-0.3496-0.2715-0.3496a1.0001 1.0001 0 0 0 -0.8496 -0.4433 1.0001 1.0001 0 0 0 -0.7969 1.5801s0.16632 0.24338 0.40039 0.51562 0.46775 0.6032 1.0391 0.83984c0.18971 0.07858 0.38601 0.14125 0.58594 0.19531-0.085835 0.62278-0.17056 1.2594-0.22461 1.9316-0.02674 0.33262-0.017903 0.67404-0.033203 1.0117-0.20518 0.05146-0.42664 0.06659-0.625 0.13086-1.3124 0.4252-2.4991 1.1417-3.1816 2.2988-0.60923 1.0328-0.1895 2.1376 0.36719 2.9277 0.55668 0.7901 1.3298 1.4686 2.3965 1.5742 0.79165 0.07839 1.5025-0.18653 2.1738-0.54883 0.36268 0.57179 0.8167 1.0745 1.4297 1.4238 1.4738 0.83976 3.2883 0.48694 4.8066-0.22461 0.75919-0.35577 1.451-0.82938 1.9707-1.4551 0.51967-0.6257 0.87203-1.4815 0.69922-2.3789-0.25994-1.3498-1.2391-2.3505-2.4102-2.9922-0.36206-0.19838-0.77839-0.31765-1.1797-0.46094 0.25161-0.44738 0.5-0.9043 0.5-0.9043a1.0001 1.0001 0 1 0 -1.7832 -0.90625s-0.30185 0.55824-0.75195 1.3125c-0.27122-0.03766-0.52956-0.11119-0.80469-0.13086-0.53195-0.03803-1.0663-0.0052-1.5977 0.02539 0.01077-0.1818 0.003-0.36009 0.01758-0.54102 0.05206-0.64754 0.13282-1.2686 0.2168-1.8711 0.53912 0.0019 1.075-0.020661 1.5781-0.058594 1.328-0.10011 2.4141-0.29883 2.4141-0.29883a1.001 1.001 0 1 0 -0.36328 -1.9688s-0.98907 0.18221-2.1992 0.27344c-0.35638 0.026867-0.73158 0.036243-1.1016 0.035156 0.23559-1.2291 0.44922-2.0703 0.44922-2.0703a1.0001 1.0001 0 0 0 -0.92188 -1.2656 1.0001 1.0001 0 0 0 -0.09961 0zm1.18 9.7387c-0.07616 0.10588-0.11419 0.19104-0.19336 0.29688-0.27326 0.36528-0.59072 0.61845-0.88867 0.95508-0.05251-0.39891-0.10672-0.79473-0.12305-1.2305 0.39826-0.02956 0.80121-0.03892 1.2051-0.02149zm2.1699 0.33789c0.48324 0.13836 0.94161 0.3005 1.3164 0.50586 0.83142 0.45554 1.2867 0.99821 1.4062 1.6191 0.03861 0.2005-0.0093 0.40703-0.27148 0.72266-0.26214 0.31563-0.73236 0.66374-1.2832 0.92188-1.1017 0.51628-2.4977 0.56415-2.9668 0.29688-0.31129-0.17738-0.57489-0.47917-0.80078-0.86523 0.67049-0.62753 1.2973-1.3223 1.8379-2.0449 0.31347-0.41903 0.49847-0.7567 0.76172-1.1562zm-5.3457 0.02734c0.035085 0.65941 0.075177 1.3194 0.19922 1.9395 0.038595 0.19292 0.14155 0.3558 0.19141 0.54492-0.4796 0.286-0.9196 0.462-1.2403 0.43-0.1293-0.013-0.662-0.317-0.959-0.738-0.297-0.422-0.2807-0.758-0.2793-0.76 0.3372-0.572 1.066-1.085 2.0762-1.412 0.0039-0.0013 0.00783-0.0027 0.011719-0.0039z" transform="matrix(2 0 0 2 -2.0002 0)"/>
  </g>
 </g>
</svg>
