<svg xmlns="http://www.w3.org/2000/svg" width="24" height="24" version="1">
 <rect width="20" height="20" x="-22.5" y="-22" rx="10" ry="10" transform="matrix(0,-1,-1,0,0,0)" style="opacity:0.2"/>
 <rect style="fill:#1da6e8" width="20" height="20" x="-22" y="-22" rx="10" ry="10" transform="matrix(0,-1,-1,0,0,0)"/>
 <path style="opacity:0.4;fill:none;stroke:#000000;stroke-width:1.5" d="M 14,16 8,12 14,8"/>
 <path d="m 14,6.5 a 2,2 0 0 0 -2,2 2,2 0 0 0 2,2 2,2 0 0 0 2,-2 2,2 0 0 0 -2,-2 z m -6,4 a 2,2 0 0 0 -2,2 2,2 0 0 0 2,2 2,2 0 0 0 2,-2 2,2 0 0 0 -2,-2 z m 6,4 a 2,2 0 0 0 -2,2 2,2 0 0 0 2,2 2,2 0 0 0 2,-2 2,2 0 0 0 -2,-2 z" style="opacity:0.2;fill-rule:evenodd"/>
 <path style="fill:#ffffff;fill-rule:evenodd" d="M 14 6 A 2 2 0 0 0 12 8 A 2 2 0 0 0 14 10 A 2 2 0 0 0 16 8 A 2 2 0 0 0 14 6 z M 8 10 A 2 2 0 0 0 6 12 A 2 2 0 0 0 8 14 A 2 2 0 0 0 10 12 A 2 2 0 0 0 8 10 z M 14 14 A 2 2 0 0 0 12 16 A 2 2 0 0 0 14 18 A 2 2 0 0 0 16 16 A 2 2 0 0 0 14 14 z"/>
 <path style="fill:#ffffff;opacity:0.2" d="M 12 2 C 6.46 2 2 6.46 2 12 C 2 12.084408 2.00966 12.166105 2.0117188 12.25 C 2.1447814 6.8275892 6.544408 2.5 12 2.5 C 17.455592 2.5 21.855219 6.8275892 21.988281 12.25 C 21.99034 12.166105 22 12.084408 22 12 C 22 6.46 17.54 2 12 2 z"/>
</svg>
