<?xml version="1.0" encoding="utf-8"?>
<!-- Generator: Adobe Illustrator 16.0.0, SVG Export Plug-In . SVG Version: 6.00 Build 0)  -->
<!DOCTYPE svg PUBLIC "-//W3C//DTD SVG 1.1//EN" "http://www.w3.org/Graphics/SVG/1.1/DTD/svg11.dtd">
<svg version="1.1" id="Capa_3" xmlns="http://www.w3.org/2000/svg" xmlns:xlink="http://www.w3.org/1999/xlink" x="0px" y="0px"
	 width="24px" height="24px" viewBox="0 0 24 24" enable-background="new 0 0 24 24" xml:space="preserve">
<g id="Capa_3_1_" display="none">
	<path display="inline" opacity="0.2" enable-background="new    " d="M2.001,12.09c-0.007,0.139-0.012,0.277-0.015,0.417
		c0,5.522,4.475,9.993,9.994,9.993c5.52,0,9.993-4.471,9.993-9.993c-0.004-0.099-0.008-0.196-0.014-0.295
		c-0.225,5.351-6.695,9.062-9.979,9.062C8.688,21.271,2.161,17.488,2.001,12.09L2.001,12.09z"/>
	<path display="inline" fill="#666666" d="M11.998,2.003c-5.521,0-9.997,4.477-9.997,9.999c0,5.521,4.476,9.997,9.997,9.997
		c5.523,0,9.998-4.476,9.998-9.997C21.996,6.48,17.521,2.003,11.998,2.003z"/>
	<path display="inline" opacity="0.2" enable-background="new    " d="M4.992,6.392c-0.197-0.2-0.458-0.501-0.702-0.754
		c0,0,0.109-0.132,0.248-0.29c0.209-0.239,0.391-0.413,0.391-0.413C5.155,5.15,5.807,5.729,5.813,5.734L4.992,6.392"/>
	<path display="inline" opacity="0.1" fill="#FFFFFF" enable-background="new    " d="M12.002,2.003
		C6.479,2.004,2.001,6.482,2.001,12.004c0.003,0.05,0.004,0.098,0.008,0.146c0.114-5.437,4.555-9.646,9.993-9.65l0,0
		c5.463,0.004,9.914,4.251,9.994,9.715c0.004-0.07,0.006-0.138,0.008-0.21c0-5.522-4.479-10-10-10.001L12.002,2.003L12.002,2.003z"
		/>
</g>
<g id="Capa_5">
	<path opacity="0.2" enable-background="new    " d="M5.64,5.223C4.326,3.946,1.842,1.571,1.424,2.028
		C1.032,2.456,3.36,4.883,4.663,6.199L5.64,5.223z"/>
	<path opacity="0.2" enable-background="new    " d="M1.99,12.096c-0.007,0.139-0.014,0.28-0.016,0.42
		c0,5.533,4.487,10.018,10.021,10.018c5.532,0,10.019-4.484,10.019-10.018c-0.002-0.101-0.01-0.199-0.015-0.298
		c-0.227,5.365-4.636,8.92-10.004,8.922C6.582,21.137,2.151,17.506,1.99,12.096L1.99,12.096z"/>
	<path display="none" opacity="0.7" fill="#41E583" enable-background="new    " d="M12.002,1.97C6.474,1.97,1.99,6.45,1.99,11.981
		c0,5.53,4.483,10.01,10.012,10.01c5.53,0,10.011-4.479,10.011-10.01C22.014,6.451,17.532,1.97,12.002,1.97z"/>
	<path fill="#C1E27F" d="M12.402,11.494l0.546,10.457c3.006-0.282,5.619-1.889,7.26-4.23L12.402,11.494z"/>
	<path fill="#C94C8E" d="M11.175,2.003C8.167,2.249,5.533,3.828,3.866,6.146l8.536,5.348L11.175,2.003z"/>
	<path fill="#E88B63" d="M21.965,10.967c-0.295-2.924-1.848-5.476-4.108-7.107l-5.454,7.637L21.965,10.967z"/>
	<path fill="#3BE4EB" d="M12.402,11.494L2.05,13.058c0.312,2.923,1.88,5.468,4.155,7.086L12.402,11.494z"/>
	<path fill="#E03378" d="M18.104,4.039c-1.704-1.324-3.854-2.068-6.125-2.068c-0.459,0-0.911,0.03-1.353,0.091l1.776,9.435
		L18.104,4.039z"/>
	<path fill="#70AACE" d="M12.402,11.494L4.043,5.907c-1.288,1.686-2.052,3.792-2.052,6.075c0,0.459,0.031,0.913,0.091,1.357
		L12.402,11.494z"/>
	<path fill="#63D6A2" d="M12.402,11.494l-6.443,8.47c1.678,1.277,3.773,2.028,6.044,2.028c0.484,0,0.962-0.033,1.431-0.099
		L12.402,11.494z"/>
	<path fill="#F2EB5E" d="M20.007,17.987c1.263-1.678,2.009-3.758,2.009-6.014c0-0.466-0.032-0.922-0.094-1.369l-9.521,0.889
		L20.007,17.987z"/>
	<path opacity="0.2" fill="#FFFFFF" enable-background="new    " d="M12.001,1.97c-5.527,0-10.008,4.467-10.008,9.978
		c0.001,0.049,0.004,0.097,0.008,0.144c0.115-5.423,4.559-9.59,10.001-9.593l0,0c5.466,0.003,9.919,4.209,10,9.658
		c0.004-0.068,0.004-0.137,0.01-0.208C22.012,6.438,17.528,1.971,12.001,1.97L12.001,1.97z"/>
</g>
<g id="Capa_9">
	<path opacity="0.2" enable-background="new    " d="M5.313,4.521c1.823,1.736,6.026,6.269,6.026,6.269l2.359,2.494
		c0,0-0.226-0.005-0.466,0.024c-0.262,0.03-0.408,0.062-0.408,0.062l-2.084-1.981c0,0-4.551-4.265-6.274-5.998
		c0,0,0.162-0.19,0.36-0.399C5.127,4.678,5.313,4.521,5.313,4.521z"/>
	<g>
		<g>
			<g>
				<path opacity="0.1" enable-background="new    " d="M10.452,13.805c0.376,0.219,0.783,0.221,0.907,0.002
					c0.057-0.098,0.043-0.225-0.02-0.354c-0.143,0.191-0.527,0.186-0.888-0.023c-0.207-0.117-0.359-0.279-0.436-0.435
					c-0.006,0.01-0.015,0.016-0.02,0.024C9.871,13.236,10.074,13.588,10.452,13.805z"/>
				<path opacity="0.1" enable-background="new    " d="M13.467,18.775c-3.39,0.091-6.083-1.899-7.313-3.739
					c-1.007-1.511-1.599-3.09-1.673-5.033c-0.004-0.01-0.01-0.02-0.015-0.031c0,2.136,0.61,3.827,1.688,5.44
					c1.23,1.842,3.922,3.835,7.313,3.74c1.303-0.034,4.342-0.871,4.342-2.709c0-0.082-0.009-0.162-0.015-0.241
					C17.646,17.943,14.734,18.739,13.467,18.775z"/>
			</g>
		</g>
	</g>
	<g id="g4586_3_" transform="translate(0,960)" opacity="0.5">
		<path id="path4610_3_" fill="#5596EA" d="M4.467-950.404L4.467-950.404c0,2.133,0.61,3.825,1.688,5.44
			c1.23,1.84,3.922,3.83,7.313,3.739c1.304-0.036,4.343-0.871,4.343-2.709c0-3.24-5.945-3.228-5.836-2.094
			c0.166,1.752-3.042,0.688-4.422-0.269C6.11-947.293,5.29-948.628,4.467-950.404z M10.905-947.355
			c-0.377-0.218-0.785-0.22-0.91-0.002c-0.125,0.217,0.079,0.569,0.456,0.787c0.376,0.217,0.783,0.217,0.907,0
			C11.484-946.788,11.282-947.139,10.905-947.355z"/>
	</g>
	<g id="g4586_2_" transform="translate(0,960)" opacity="0.1">
		<path id="path4610_2_" fill="#FFFFFF" d="M4.467-950.404c0,0,0.204,1.996,2.55,4.076c0.965,0.855,2.863,1.627,3.931,1.627
			c0.855,0,1.301-0.324,1.358-0.734c0.046-0.342-0.056-0.572,0.198-0.728c0.398-0.243,1.662-0.204,2.854,0.008
			c2.193,0.386,2.451,2.222,2.451,2.222c0-3.241-5.946-3.229-5.836-2.094c0.166,1.75-3.041,0.687-4.421-0.268
			C6.11-947.293,5.29-948.628,4.467-950.404L4.467-950.404 M11.359-946.57c0.125-0.218-0.077-0.568-0.454-0.785
			c-0.377-0.218-0.785-0.22-0.91-0.002c-0.031,0.056-0.042,0.117-0.034,0.185c0,0,0.222-0.183,0.633-0.056
			C11.316-947.004,11.359-946.57,11.359-946.57z"/>
	</g>
</g>
<g id="Capa_6">
	<path opacity="0.2" enable-background="new    " d="M16.544,16.191l0.296-1.375c0.333,0.717,0.262,1.47-0.064,2.134
		c-0.534,1.089-1.366,0.888-1.366,0.888s0.796-0.23,0.791-0.718c-0.005-0.498-0.49-0.871-0.782-0.984
		c-0.758-0.302-1.607-0.862-1.835-1.581c-0.121-0.38-0.112-0.951-0.112-0.951l-0.332-0.287c0,0,0.32-0.027,0.562-0.031
		L16.544,16.191z"/>
	<path fill="#4D4D4D" d="M1.424,0.656c0.496-0.542,3.902,2.906,4.809,3.77C8.056,6.161,11.4,9.972,11.4,9.972l-0.572,0.616
		c0,0-3.813-3.393-5.536-5.127C4.403,4.566,0.954,1.171,1.424,0.656z"/>
	<polygon fill="#B3B3B3" points="11.339,9.906 13.977,12.811 13.596,13.229 10.74,10.505 	"/>
	<path fill="#333333" d="M16.775,16.45c-0.535,1.087-1.367,0.884-1.367,0.884s0.796-0.23,0.791-0.714
		c-0.004-0.504-0.49-0.873-0.782-0.987c-0.758-0.301-1.606-0.865-1.835-1.578c-0.121-0.383-0.113-0.953-0.113-0.953l0.398-0.399
		c0,0,1.089-0.334,2.173,0.591C17.182,14.271,17.262,15.459,16.775,16.45z"/>
	<g opacity="0.1">
		<path fill="#FFFFFF" d="M13.698,12.871c0,0-5.62-6.096-7.685-8.115C4.95,3.717,3.433,2.158,2.001,1.169
			C1.426,0.771,1.383,0.825,1.383,0.825C1.375,0.753,1.389,0.696,1.424,0.656c0.496-0.542,3.902,2.906,4.809,3.77
			c1.823,1.735,5.106,5.48,5.106,5.48l2.638,2.904L13.698,12.871z"/>
		<path fill="#FFFFFF" d="M16.775,16.45c0.485-0.991,0.404-2.181-0.736-3.158c-1.084-0.925-2.172-0.591-2.172-0.591l-0.169,0.17
			c0,0,0.692-0.039,1.437,0.289c0.77,0.337,1.391,0.854,1.738,1.755C17.188,15.729,16.775,16.45,16.775,16.45z"/>
		<path fill="#FFFFFF" d="M15.408,17.334c0,0,0.796-0.227,0.791-0.714c-0.001-0.229-0.104-0.433-0.241-0.595
			c0,0,0.31,0.224,0.31,0.656C16.268,17.17,15.408,17.334,15.408,17.334z"/>
	</g>
</g>
</svg>
