<svg xmlns="http://www.w3.org/2000/svg" width="24" height="24" version="1">
 <path style="opacity:0.2" d="m 12,2.5 a 10,10 0 0 0 -10,10 10,10 0 0 0 10,10 h 9 c 0.554,0 1,-0.446 1,-1 v -9 -9 c 0,-0.554 -0.446,-1 -1,-1 z"/>
 <path style="fill:#e4e4e4" d="M 12,2 A 10,10 0 0 0 2,12 10,10 0 0 0 12,22 h 9 c 0.554,0 1,-0.446 1,-1 V 12 3 C 22,2.446 21.554,2 21,2 Z"/>
 <path style="fill:#305483" d="M 11,12 7,13 V 11 Z"/>
 <path style="fill:#adadad;fill-rule:evenodd" d="M 12.571429,6 C 12.258152,6 12,6.2541185 12,6.5625 v 1.875 C 12,8.7458815 12.258152,9 12.571429,9 h 6.857142 C 19.741848,9 20,8.7458815 20,8.4375 V 6.5625 C 20,6.2541185 19.741848,6 19.428571,6 Z"/>
 <path style="fill:#adadad;fill-rule:evenodd" d="M 13.613637,11 C 13.27722,11 13,11.225883 13,11.5 v 1 c 0,0.274117 0.27722,0.5 0.613637,0.5 h 7.772727 C 21.72278,13 22,12.774117 22,12.5 v -1 C 22,11.225883 21.72278,11 21.386364,11 Z"/>
 <g style="fill:#2f5d97" transform="matrix(0.37082613,0,0,0.36843675,3.0951051,3.01424)">
  <path style="fill:#305483;fill-rule:evenodd" d="M 4.9763661,20.175781 C 6.6130595,18.0745 10.222513,7.6141185 22.117392,11.866741 c 0,0 -10.85914,-0.908602 -12.12183,8.435308"/>
  <path style="fill:#305483;fill-rule:evenodd" d="m 4.5975588,28.524654 c 1.6366934,2.101281 5.6249542,12.668373 17.5198332,8.41575 0,0 -11.174812,0.138979 -12.184965,-7.942241"/>
 </g>
 <path style="opacity:0.2;fill-rule:evenodd" d="M 5.9999996,10.5 C 4.8975841,10.5 4,11.397584 4,12.500001 4,13.602417 4.8975841,14.5 5.9999996,14.5 7.1024156,14.5 8,13.602417 8,12.500001 8,11.397584 7.1024156,10.5 5.9999996,10.5 Z"/>
 <path style="fill:#3594f3;fill-rule:evenodd" d="M 5.9999996,10 C 4.8975841,10 4,10.897584 4,12.000001 4,13.102417 4.8975841,14 5.9999996,14 7.1024156,14 8,13.102417 8,12.000001 8,10.897584 7.1024156,10 5.9999996,10 Z"/>
 <path style="fill:#adadad;fill-rule:evenodd" d="M 12.571429,15 C 12.258152,15 12,15.254119 12,15.5625 v 1.875 C 12,17.745881 12.258152,18 12.571429,18 h 6.857142 C 19.741848,18 20,17.745881 20,17.4375 v -1.875 C 20,15.254119 19.741848,15 19.428571,15 Z"/>
 <path style="opacity:0.2;fill:#ffffff" d="M 12,2 A 10,10 0 0 0 2,12 10,10 0 0 0 2.0107422,12.208985 10,10 0 0 1 12,2.5 h 9 c 0.554,0 1,0.446 1,1 V 3 C 22,2.446 21.554,2 21,2 Z"/>
 <path style="opacity:0.2;fill-rule:evenodd" d="M 12.572266 6 C 12.258989 6 12 6.2541185 12 6.5625 L 12 7.0625 C 12 6.7541185 12.258989 6.5 12.572266 6.5 L 19.427734 6.5 C 19.741011 6.5 20 6.7541185 20 7.0625 L 20 6.5625 C 20 6.2541185 19.741011 6 19.427734 6 L 12.572266 6 z M 13.613281 11 C 13.276864 11 13 11.225883 13 11.5 L 13 12 C 13 11.725883 13.276864 11.5 13.613281 11.5 L 21.386719 11.5 C 21.723135 11.5 22 11.725883 22 12 L 22 11.5 C 22 11.225883 21.723135 11 21.386719 11 L 13.613281 11 z M 12.572266 15 C 12.258989 15 12 15.254119 12 15.5625 L 12 16.0625 C 12 15.754119 12.258989 15.5 12.572266 15.5 L 19.427734 15.5 C 19.741011 15.5 20 15.754119 20 16.0625 L 20 15.5625 C 20 15.254119 19.741011 15 19.427734 15 L 12.572266 15 z"/>
 <path style="opacity:0.2;fill:#ffffff;fill-rule:evenodd" d="M 12 8.4375 L 12 8.9375 C 12 9.2458815 12.258989 9.5 12.572266 9.5 L 19.427734 9.5 C 19.741011 9.5 20 9.2458815 20 8.9375 L 20 8.4375 C 20 8.7458815 19.741011 9 19.427734 9 L 12.572266 9 C 12.258989 9 12 8.7458815 12 8.4375 z M 13 12.5 L 13 13 C 13 13.274117 13.276864 13.5 13.613281 13.5 L 21.386719 13.5 C 21.723135 13.5 22 13.274117 22 13 L 22 12.5 C 22 12.774117 21.723135 13 21.386719 13 L 13.613281 13 C 13.276864 13 13 12.774117 13 12.5 z M 12 17.4375 L 12 17.9375 C 12 18.245881 12.258989 18.5 12.572266 18.5 L 19.427734 18.5 C 19.741011 18.5 20 18.245881 20 17.9375 L 20 17.4375 C 20 17.745881 19.741011 18 19.427734 18 L 12.572266 18 C 12.258989 18 12 17.745881 12 17.4375 z"/>
</svg>
