<svg width="24" height="24" version="1.1" xmlns="http://www.w3.org/2000/svg">
 <rect x="2" y="2" width="20" height="20" rx="1" ry="1" style="fill:#636e72"/>
 <path d="m3 2c-0.554 0-1 0.446-1 1v0.5c0-0.554 0.446-1 1-1h18c0.554 0 1 0.446 1 1v-0.5c0-0.554-0.446-1-1-1z" style="fill:#ffffff;opacity:.1"/>
 <path d="m3 22.5c-0.554 0-1-0.446-1-1v-0.5c0 0.554 0.446 1 1 1h18c0.554 0 1-0.446 1-1v0.5c0 0.554-0.446 1-1 1z" style="opacity:.2"/>
 <path d="m20 18.7222v-12.444c0-0.4311-0.357-0.778-0.8-0.778h-14.4c-0.4432 0-0.8 0.3469-0.8 0.7778v12.444c0 0.431 0.3568 0.778 0.8 0.778h14.4c0.4432 0 0.8-0.34689 0.8-0.77779z" style="opacity:.2"/>
 <path d="m20 18.222v-12.444c0-0.4311-0.357-0.778-0.8-0.778h-14.4c-0.4432 0-0.8 0.3469-0.8 0.7778v12.444c0 0.431 0.3568 0.778 0.8 0.778h14.4c0.4432 0 0.8-0.34689 0.8-0.77779z" style="fill:#ef3a3a"/>
 <path d="m8.6269531 6.5000003a0.35338 0.35324 0 0 0-0.2617187 0.140625c-0.4041 0.5176-0.8270156 1.2152438-1.2285156 1.8398438l-0.4785157-0.8203126a0.35359 0.35345 0 1 0-0.609375 0.3574219l0.7617188 1.3066407a0.35338 0.35324 0 0 0 0.5996093 0.019531c0.4967-0.7368 1.0584188-1.6887313 1.5117188-2.2695312a0.35338 0.35324 0 0 0-0.2597656-0.5742186 0.35338 0.35324 0 0 0-0.035156 0zm1.9101559 2c-0.298052 0-0.537109 0.223-0.537109 0.5s0.239057 0.5 0.537109 0.5h5.925782c0.298052 0 0.537109-0.223 0.537109-0.5s-0.239057-0.5-0.537109-0.5zm0 3.9999997c-0.298052 0-0.537109 0.223-0.537109 0.5s0.239057 0.5 0.537109 0.5h5.925782c0.298052 0 0.537109-0.223 0.537109-0.5s-0.239057-0.5-0.537109-0.5zm0 3c-0.298052 0-0.537109 0.223-0.537109 0.5s0.239057 0.5 0.537109 0.5h5.925782c0.298052 0 0.537109-0.223 0.537109-0.5s-0.239057-0.5-0.537109-0.5z" style="opacity:.2"/>
 <path d="m8.6269531 6a0.35338 0.35324 0 0 0-0.2617187 0.140625c-0.4041 0.5176-0.8270156 1.2152438-1.2285156 1.8398438l-0.4785157-0.8203126a0.35359 0.35345 0 1 0-0.609375 0.3574219l0.7617188 1.3066407a0.35338 0.35324 0 0 0 0.5996093 0.0195312c0.4967-0.7368 1.0584188-1.6887313 1.5117188-2.2695312a0.35338 0.35324 0 0 0-0.2597656-0.5742188 0.35338 0.35324 0 0 0-0.0351563 0zm1.9101559 2c-0.298052 0-0.537109 0.223-0.537109 0.5s0.239057 0.5 0.537109 0.5h5.925782c0.298052 0 0.537109-0.223 0.537109-0.5s-0.239057-0.5-0.537109-0.5h-5.925782zm0 4c-0.298052 0-0.537109 0.223-0.537109 0.5s0.239057 0.5 0.537109 0.5h5.925782c0.298052 0 0.537109-0.223 0.537109-0.5s-0.239057-0.5-0.537109-0.5h-5.925782zm0 3c-0.298052 0-0.537109 0.223-0.537109 0.5s0.239057 0.5 0.537109 0.5h5.925782c0.298052 0 0.537109-0.223 0.537109-0.5s-0.239057-0.5-0.537109-0.5h-5.925782z" style="fill:#ffffff"/>
 <circle cx="7.5" cy="12.5" r="0" style="fill:#ffdd73"/>
 <circle cx="7.5" cy="15.5" r="0" style="fill:#ffdd73"/>
 <path d="m4.8007812 5c-0.4432 0-0.8007812 0.3464437-0.8007812 0.7773438v0.5c0-0.4309 0.3575812-0.7773438 0.8007812-0.7773438h14.398438c0.443 0 0.800781 0.3462438 0.800781 0.7773438v-0.5c0-0.4311-0.357781-0.7773438-0.800781-0.7773438h-14.398438z" style="fill:#ffffff;opacity:.2"/>
</svg>
