<svg width="24" height="24" version="1.1" xmlns="http://www.w3.org/2000/svg">
 <g transform="translate(1,1)">
  <rect x="1" y="1.5" width="20" height="20" rx="1" ry="1" style="opacity:.2"/>
  <rect x="1" y="1" width="20" height="20" rx="1" ry="1" style="fill:#f39d21"/>
  <path d="m11 8-6 2.491525v10.508475h10l1-10z" style="fill:#5d5441"/>
  <path d="m5 10v11h5l1-12z" style="fill:#8c8164"/>
  <path d="m12 2.5-7.9999999 3-1 5 1 1 6.9999999-2 6 3 1-1v-4z" style="opacity:.2"/>
  <path d="m12 2-7.5136719 3-1.4863281 5 1 1 7-2 6 3 1-1v-4z" style="fill:#423d2b"/>
  <path d="m12 2-8 3-1 5 8-2z" style="fill:#675f47"/>
  <path d="m3 10 1 1 7-2 6 3 1-1-7-3z" style="fill:#2b2b2b"/>
  <path d="m7 13.5-2 1v1h2zm-2 3v1h1v-1z" style="opacity:.2"/>
  <path d="m7 13-2 1v1h2zm-2 3v1h1v-1z" style="fill:#a19374"/>
  <path d="M 12,2 4,5 3,10 3.0839844,10.083984 4,5.5 l 8,-3 6,5 V 7 Z" style="fill:#ffffff;opacity:.1"/>
  <path d="m2 1c-0.554 0-1 0.446-1 1v0.5c0-0.554 0.446-1 1-1h18c0.554 0 1 0.446 1 1v-0.5c0-0.554-0.446-1-1-1z" style="fill:#ffffff;opacity:.2"/>
 </g>
</svg>
