<svg xmlns="http://www.w3.org/2000/svg" width="24" height="24" version="1.1">
 <circle style="opacity:0.2" cx="12.5" cy="12" r="10.5"/>
 <circle style="fill:#4263eb" cx="12.5" cy="11.5" r="10.5"/>
 <path style="opacity:0.2" d="M 8.25,5.5 C 7.9513892,5.5 7.6723163,5.6161442 7.484375,5.7832031 7.2964337,5.9502621 7.1911146,6.1479132 7.125,6.3242188 6.9927709,6.6768298 7,7 7,7 v 7.589844 A 1.5,1.5 0 0 0 6,16 1.5,1.5 0 0 0 7.5,17.5 1.5,1.5 0 0 0 9,16 1.5,1.5 0 0 0 8,14.585938 V 7 C 8,7 8.0072293,6.8231697 8.0625,6.6757812 8.0901353,6.602087 8.1254415,6.5497377 8.1484375,6.5292969 8.1714335,6.508856 8.1736112,6.5 8.25,6.5 c 0.2360764,0 0.2819783,0.1828366 0.2832031,0.1875 l 2.7382809,8.958984 a 0.50005,0.50005 0 0 0 0.03125,0.07617 c 0,0 0.363934,0.777344 1.197266,0.777344 0.833333,0 1.197266,-0.777344 1.197266,-0.777344 a 0.50005,0.50005 0 0 0 0.03125,-0.07617 l 2.74414,-8.9843746 0.002,-0.00195 c 6.14e-4,-0.00165 0.01087,-0.030238 0.05469,-0.078125 0.04501,-0.049257 0.07234,-0.085069 0.208984,-0.082031 a 0.50005,0.50005 0 0 0 0.01172,0 c 0.07639,0 0.07857,0.00886 0.101562,0.029297 0.023,0.020441 0.0583,0.07279 0.08594,0.1464843 C 16.992769,6.8231697 17,7 17,7 v 7.589844 A 1.5,1.5 0 0 0 16,16 1.5,1.5 0 0 0 17.5,17.5 1.5,1.5 0 0 0 19,16 1.5,1.5 0 0 0 18,14.585938 V 7 C 18,7 18.0072,6.6768299 17.875,6.3242188 17.80889,6.1479133 17.703566,5.9502621 17.515625,5.7832031 c -0.18652,-0.1657956 -0.463708,-0.2795202 -0.759766,-0.28125 -0.433166,-0.00707 -0.779352,0.20351 -0.964843,0.40625 -0.186582,0.2039327 -0.263672,0.4296875 -0.263672,0.4296875 a 0.50005,0.50005 0 0 0 -0.0059,0.015625 L 12.792969,15.285156 C 12.78433,15.299054 12.661125,15.5 12.5,15.5 c -0.161125,0 -0.28433,-0.200946 -0.292969,-0.214844 L 9.4785156,6.3535156 A 0.50005,0.50005 0 0 0 9.4628906,6.3105469 C 9.4628906,6.3105469 9.1007817,5.5 8.25,5.5 Z"/>
 <circle fill="#ffffff" cx="17.5" cy="15.5" r="1.5"/>
 <circle fill="#ffffff" cx="7.5" cy="15.5" r="1.5"/>
 <path stroke="#ffffff" stroke-linecap="round" stroke-linejoin="round" style="fill:none" d="M 7.5,15 V 6.5 c 0,0 0,-1 0.75,-1 C 8.7949365,5.5 9,6 9,6 l 2.75,9 c 0,0 0.25,0.5 0.75,0.5 0.5,0 0.75,-0.5 0.75,-0.5 L 16,6 c 0,0 0.176582,-0.5127465 0.75,-0.5 0.75,0 0.75,1 0.75,1 V 15"/>
 <path style="fill:#ffffff;opacity:0.1" d="M 12.5 1 A 10.5 10.5 0 0 0 2 11.5 A 10.5 10.5 0 0 0 2.0175781 11.75 A 10.5 10.5 0 0 1 12.5 1.5 A 10.5 10.5 0 0 1 22.992188 11.619141 A 10.5 10.5 0 0 0 23 11.5 A 10.5 10.5 0 0 0 12.5 1 z"/>
</svg>
