<svg xmlns="http://www.w3.org/2000/svg" width="24" height="24" version="1">
 <path style="opacity:0.2" d="M 3,2.5 C 2.446,2.5 2,2.946 2,3.5 V 21.5 C 2,22.054 2.446,22.5 3,22.5 H 14 L 22,14.5 V 3.5 C 22,2.946 21.554,2.5 21,2.5 Z"/>
 <path style="fill:#fecd38" d="M 3,2 C 2.446,2 2,2.446 2,3 V 21 C 2,21.554 2.446,22 3,22 H 14 L 22,14 V 3 C 22,2.446 21.554,2 21,2 Z"/>
 <g style="opacity:0.5" transform="matrix(0.5,0,0,0.5,0,-3.5)">
  <path d="M 28,22 V 25 L 32.5,29 28,33 V 36 L 36,29.133 Z"/>
  <path d="M 20,24 V 27 L 15.5,31 20,35 V 38 L 12,31.133 Z"/>
  <rect width="2" height="16" x="29.99" y="14.77" transform="rotate(15)"/>
 </g>
 <path style="fill:#ffe69b" d="M 22,14 H 15 C 14.448,14 14,14.448 14,15 V 22 Z"/>
 <path style="opacity:0.2;fill:#ffffff" d="M 3,2 C 2.446,2 2,2.446 2,3 V 3.5 C 2,2.946 2.446,2.5 3,2.5 H 21 C 21.554,2.5 22,2.946 22,3.5 V 3 C 22,2.446 21.554,2 21,2 Z"/>
 <path style="opacity:0.2;fill:#ffffff" d="M 15,14 C 14.448,14 14,14.448 14,15 V 15.5 C 14,14.948 14.448,14.5 15,14.5 H 21.5 L 22,14 Z"/>
</svg>
