<svg xmlns="http://www.w3.org/2000/svg" width="24" height="24" version="1">
 <rect style="opacity:0.2" width="20" height="20" x="2" y="2.5" rx="1" ry="1"/>
 <path style="fill:#4f4f4f" d="M 3,2 C 2.446,2 2,2.446 2,3 V 17.05 H 22 V 3 C 22,2.446 21.554,2 21,2 Z"/>
 <path style="opacity:0.1;fill:#ffffff" d="M 3,2 C 2.446,2 2,2.446 2,3 v 0.5 c 0,-0.554 0.446,-1 1,-1 h 18 c 0.554,0 1,0.446 1,1 V 3 C 22,2.446 21.554,2 21,2 Z"/>
 <path style="opacity:0.2" d="m 15.484497,4.500002 c -0.818244,1.81e-4 -0.77784,0.042355 -1.195071,0.7048705 -1.20242,1.909292 -2.184948,3.3870875 -2.251824,3.3870875 -0.04407,0 -0.270808,-0.3010585 -0.503856,-0.669113 C 11.300698,7.554792 11.073226,7.2303465 11.028158,7.201863 10.983093,7.173358 10.912918,7.0594435 10.872246,6.9487825 10.831571,6.838122 10.678058,6.5702925 10.531102,6.353551 10.384142,6.1368055 10.233211,5.909145 10.195687,5.847657 9.700363,5.0360185 9.520051,4.765555 9.408255,4.6661005 9.291475,4.5622135 9.085403,4.5447285 7.7057275,4.5214825 6.392304,4.4993475 6.136064,4.5103175 6.136064,4.588943 c 0,0.158332 0.706544,1.1484895 0.8697835,1.2188915 0.096948,0.041805 0.169048,0.147342 0.195628,0.286612 0.0344,0.1802215 0.785364,1.3822135 1.4555955,2.3298395 0.2470165,0.3492595 0.984108,1.4499485 1.204532,1.798666 0.116476,0.184267 0.25464,0.368928 0.307032,0.410269 0.05239,0.04134 0.169392,0.210045 0.259988,0.375034 0.0906,0.164989 0.275844,0.450877 0.41164,0.635314 0.135796,0.18444 0.353364,0.512598 0.483468,0.729107 0.130104,0.216509 0.302484,0.436797 0.383119,0.489521 0.08064,0.05272 0.184132,0.184822 0.230008,0.293686 0.04587,0.108864 0.10396,0.197931 0.128996,0.197931 0.02504,0 0.644748,-0.880826 1.37724,-1.957428 0.732488,-1.076601 1.468246,-1.969361 1.512974,-1.984019 0.06214,-0.02037 0.08142,0.683748 0.08142,2.985721 0,1.656868 0.02044,3.032653 0.04545,3.057247 0.025,0.02458 0.612629,0.04467 1.427933,0.04467 1.081395,0 1.394679,-0.0098 1.489042,-0.06746 V 4.818707 C 17.982428,4.646932 17.948241,4.608308 17.881305,4.573093 17.679984,4.4671825 17.547369,4.484011 17.393841,4.634924 c -0.170724,0.1678195 -0.218664,0.1678195 -0.325284,0 -0.07945,-0.1250605 -0.159224,-0.134135 -1.177084,-0.134135 -0.155775,0 -0.290084,-8e-4 -0.406975,-8e-4 z M 6.16738,5.9092245 c -0.102852,0 -0.166828,0.806031 -0.167376,2.1074115 -3.44e-4,0.8462005 0.0174,1.0201385 0.115004,1.126148 0.108408,0.1177505 0.108408,0.1369975 0,0.317396 -0.165304,0.2750755 -0.149012,0.576543 0.03812,0.705657 l 0.153516,0.105974 -0.131928,0.216403 c -0.122704,0.201438 -0.132964,0.379225 -0.14792,2.563267 -0.01184,1.731128 0.0049,2.360135 0.0637,2.397433 0.04383,0.0278 0.739804,0.04312 1.546612,0.03405 l 1.3669295,-0.01652 0.01772,-2.867043 0.01784,-2.867172 L 8.790402,9.363357 C 8.677704,9.141374 8.5437545,8.950532 8.4313155,8.7717945 8.3470635,8.573584 7.9704395,7.9931725 7.30274,7.032339 6.990876,6.5835645 6.683724,6.4532365 6.680816,6.768387 6.680016,6.866123 6.670656,6.867794 6.613652,6.781087 6.577292,6.725756 6.547036,6.5684895 6.546492,6.431599 6.545292,6.1836615 6.346232,5.909199 6.167368,5.909199 Z m 9.530596,1.096147 c 0.08568,0.00355 0.1266,0.085808 0.1266,0.249278 0,0.206656 -0.08393,0.2426765 -0.289975,0.124706 -0.15948,-0.091308 -0.151173,-0.241422 0.0184,-0.3306265 0.05785,-0.030435 0.106044,-0.045025 0.144984,-0.04336 z m -0.172703,0.991746 c 0.03244,-0.00275 0.0591,0.0012 0.07249,0.014275 0.01968,0.019345 0.01556,0.067284 -0.0092,0.1066265 -0.05531,0.087966 -0.309827,0.095401 -0.309827,0.00905 0,-0.054076 0.149276,-0.121706 0.246527,-0.129947 z m 1.838451,0.6619095 c 0.01656,0 0.03012,0.030195 0.03012,0.067068 0,0.03688 -0.03248,0.067068 -0.07222,0.067068 -0.03972,0 -0.05331,-0.0302 -0.03012,-0.067068 0.0232,-0.03688 0.05568,-0.067068 0.07223,-0.067068 z m 0.577148,0.195965 c 0.0118,0.00155 0.02492,0.00865 0.03892,0.02241 0.02208,0.021705 0.0268,0.094595 0.01052,0.162036 -0.02828,0.1171645 -0.03188,0.1172705 -0.08262,0.00235 -0.04348,-0.098468 -0.01792,-0.1937865 0.0332,-0.1867955 z m -7.912693,0.823946 c 0.04391,0.00275 0.06516,0.073217 0.06516,0.2153535 0,0.2675855 -0.01504,0.2835695 -0.133791,0.1429115 C 9.861379,9.9209225 9.888703,9.720884 10.008056,9.68182 c 0.0072,-0.00235 0.01384,-0.00315 0.02012,-0.00275 z m -2.670923,2.009954 c 0.066892,-0.0044 0.1297955,0.07676 0.1547115,0.21601 0.03232,0.180658 -0.097904,0.20145 -0.205084,0.03275 -0.064807,-0.102007 -0.06948,-0.162642 -0.01652,-0.214697 0.02196,-0.02158 0.044595,-0.0326 0.066896,-0.03405 z M 7.04516,12.188106 c 0.01996,-1.73e-4 0.04317,0.0023 0.06956,0.0072 0.127024,0.02386 0.153588,0.0634 0.128596,0.191903 -0.0246,0.126507 -0.074492,0.161777 -0.228272,0.161777 -0.108204,0 -0.196692,0.0302 -0.196692,0.06707 0,0.03688 -0.080556,0.06707 -0.178968,0.06707 -0.156472,0 -0.167524,-0.01344 -0.088084,-0.107547 0.04996,-0.05917 0.16122,-0.133836 0.247196,-0.165968 0.085976,-0.03213 0.1563155,-0.100296 0.1563155,-0.151427 0,-0.04602 0.03052,-0.06956 0.090349,-0.07008 z m 5.185669,0.119468 c 0.02924,-0.0044 0.05988,0.0084 0.07636,0.03456 0.02196,0.03496 0.01076,0.08111 -0.0248,0.102699 -0.03556,0.02159 -0.08251,0.0107 -0.104472,-0.02422 -0.02196,-0.03496 -0.01088,-0.0811 0.02464,-0.102702 0.0089,-0.0054 0.01848,-0.0089 0.02824,-0.01034 z M 8.3740275,12.78596 c 0.043255,-0.0052 0.082744,0.01506 0.08542,0.06484 0.002,0.03688 -0.047615,0.07751 -0.110208,0.09025 -0.071144,0.01447 -0.102416,-0.01065 -0.083289,-0.06707 0.01772,-0.05221 0.064821,-0.08284 0.108077,-0.08802 z"/>
 <path style="fill:#ffffff" d="m 15.484497,4.000002 c -0.818244,1.81e-4 -0.77784,0.042355 -1.195071,0.7048705 -1.20242,1.909292 -2.184948,3.3870875 -2.251824,3.3870875 -0.04407,0 -0.270808,-0.3010585 -0.503856,-0.669113 C 11.300698,7.054792 11.073226,6.7303465 11.028158,6.701863 10.983093,6.673358 10.912918,6.5594435 10.872246,6.4487825 10.831571,6.338122 10.678058,6.0702925 10.531102,5.853551 10.384142,5.6368055 10.233211,5.409145 10.195687,5.347657 9.700363,4.5360185 9.520051,4.265555 9.408255,4.1661005 9.291475,4.0622135 9.085403,4.0447285 7.7057275,4.0214825 6.392304,3.9993475 6.136064,4.0103175 6.136064,4.088943 c 0,0.158332 0.706544,1.1484895 0.8697835,1.2188915 0.096948,0.041805 0.169048,0.147342 0.195628,0.286612 0.0344,0.1802215 0.785364,1.3822135 1.4555955,2.3298395 0.2470165,0.3492595 0.984108,1.4499485 1.204532,1.798666 0.116476,0.184267 0.25464,0.368928 0.307032,0.410269 0.05239,0.04134 0.169392,0.210045 0.259988,0.375034 0.0906,0.164989 0.275844,0.450877 0.41164,0.635314 0.135796,0.18444 0.353364,0.512598 0.483468,0.729107 0.130104,0.216509 0.302484,0.436797 0.383119,0.489521 0.08064,0.05272 0.184132,0.184822 0.230008,0.293686 0.04587,0.108864 0.10396,0.197931 0.128996,0.197931 0.02504,0 0.644748,-0.880826 1.37724,-1.957428 0.732488,-1.0766015 1.468246,-1.969361 1.512974,-1.984019 0.06214,-0.02037 0.08142,0.683748 0.08142,2.985721 0,1.656868 0.02044,3.032653 0.04545,3.057247 0.025,0.02458 0.612629,0.04467 1.427933,0.04467 1.081395,0 1.394679,-0.0098 1.489042,-0.06746 V 4.318707 C 17.982428,4.146932 17.948241,4.108308 17.881305,4.073093 17.679984,3.9671825 17.547369,3.984011 17.393841,4.134924 c -0.170724,0.1678195 -0.218664,0.1678195 -0.325284,0 -0.07945,-0.1250605 -0.159224,-0.134135 -1.177084,-0.134135 -0.155775,0 -0.290084,-8e-4 -0.406975,-8e-4 z M 6.16738,5.4092245 c -0.102852,0 -0.166828,0.806031 -0.167376,2.1074115 -3.44e-4,0.8462005 0.0174,1.0201385 0.115004,1.126148 0.108408,0.1177505 0.108408,0.1369975 0,0.317396 -0.165304,0.2750755 -0.149012,0.5765425 0.03812,0.7056565 L 6.306644,9.7718105 6.174716,9.988214 c -0.122704,0.201438 -0.132964,0.379225 -0.14792,2.563267 -0.01184,1.731128 0.0049,2.360135 0.0637,2.397433 0.04383,0.0278 0.739804,0.04312 1.546612,0.03405 l 1.3669295,-0.01652 0.01772,-2.867043 0.01784,-2.867172 L 8.790402,8.863357 C 8.677704,8.641374 8.5437545,8.450532 8.4313155,8.2717945 8.3470635,8.073584 7.9704395,7.4931725 7.30274,6.532339 6.990876,6.0835645 6.683724,5.9532365 6.680816,6.268387 6.680016,6.366123 6.670656,6.367794 6.613652,6.281087 6.577292,6.225756 6.547036,6.0684895 6.546492,5.931599 6.545292,5.6836615 6.346232,5.409199 6.167368,5.409199 Z m 9.530596,1.096147 c 0.08568,0.00355 0.1266,0.085808 0.1266,0.249278 0,0.206656 -0.08393,0.2426765 -0.289975,0.124706 -0.15948,-0.091308 -0.151173,-0.241422 0.0184,-0.3306265 0.05785,-0.030435 0.106044,-0.045025 0.144984,-0.04336 z m -0.172703,0.991746 c 0.03244,-0.00275 0.0591,0.0012 0.07249,0.014275 0.01968,0.019345 0.01556,0.067284 -0.0092,0.1066265 -0.05531,0.087966 -0.309827,0.095401 -0.309827,0.00904 0,-0.054075 0.149276,-0.121706 0.246527,-0.129947 z m 1.838451,0.6619095 c 0.01656,0 0.03012,0.030195 0.03012,0.067068 0,0.03688 -0.03248,0.067068 -0.07222,0.067068 -0.03972,0 -0.05331,-0.0302 -0.03012,-0.067068 0.0232,-0.03688 0.05568,-0.067068 0.07223,-0.067068 z m 0.577148,0.195965 c 0.0118,0.00155 0.02492,0.00865 0.03892,0.02241 0.02208,0.021705 0.0268,0.094595 0.01052,0.162036 -0.02828,0.1171645 -0.03188,0.1172705 -0.08262,0.00235 -0.04348,-0.098468 -0.01792,-0.1937865 0.0332,-0.1867955 z m -7.912693,0.823946 c 0.04391,0.00275 0.06516,0.073217 0.06516,0.2153535 0,0.2675855 -0.01504,0.283569 -0.133791,0.1429115 C 9.861379,9.4209225 9.888703,9.220884 10.008056,9.18182 c 0.0072,-0.00235 0.01384,-0.00315 0.02012,-0.00275 z m -2.670923,2.009954 c 0.066892,-0.0044 0.1297955,0.07676 0.1547115,0.21601 0.03232,0.180658 -0.097904,0.20145 -0.205084,0.03275 -0.064807,-0.102007 -0.06948,-0.162642 -0.01652,-0.214697 0.02196,-0.02158 0.044595,-0.0326 0.066896,-0.03405 z M 7.04516,11.688106 c 0.01996,-1.73e-4 0.04317,0.0023 0.06956,0.0072 0.127024,0.02386 0.153588,0.0634 0.128596,0.191903 -0.0246,0.126507 -0.074492,0.161777 -0.228272,0.161777 -0.108204,0 -0.196692,0.0302 -0.196692,0.06707 0,0.03688 -0.080556,0.06707 -0.178968,0.06707 -0.156472,0 -0.167524,-0.01344 -0.088084,-0.107547 0.04996,-0.05917 0.16122,-0.133836 0.247196,-0.165968 0.085976,-0.03213 0.1563155,-0.100296 0.1563155,-0.151427 0,-0.04602 0.03052,-0.06956 0.090349,-0.07008 z m 5.185669,0.119468 c 0.02924,-0.0044 0.05988,0.0084 0.07636,0.03456 0.02196,0.03496 0.01076,0.08111 -0.0248,0.102699 -0.03556,0.02159 -0.08251,0.0107 -0.104472,-0.02422 -0.02196,-0.03496 -0.01088,-0.0811 0.02464,-0.102702 0.0089,-0.0054 0.01848,-0.0089 0.02824,-0.01034 z M 8.3740275,12.28596 c 0.043255,-0.0052 0.082744,0.01506 0.08542,0.06484 0.002,0.03688 -0.047615,0.07751 -0.110208,0.09025 -0.071144,0.01447 -0.102416,-0.01065 -0.083289,-0.06707 0.01772,-0.05221 0.064821,-0.08284 0.108077,-0.08802 z"/>
 <path style="fill:#ef3a3a" d="m 2,17 v 4 c 0,0.554 0.446,1 1,1 h 18 c 0.554,0 1,-0.446 1,-1 v -4 z"/>
 <path style="fill:#3f3f3f" d="m 5.8277315,18 q 0.5588235,0 0.823529,0.214286 0.2689075,0.210083 0.2689075,0.638655 0,0.239496 -0.088235,0.399159 -0.088236,0.159664 -0.226891,0.256303 -0.1344535,0.09664 -0.285714,0.147059 L 7.142857,21 H 6.701681 L 5.97479,19.760504 H 5.3781515 V 21 H 5 v -3 z m -0.02101,0.327731 h -0.428571 v 1.113445 H 5.82773 q 0.365546,0 0.5336135,-0.142857 0.1680675,-0.147059 0.1680675,-0.428572 0,-0.294117 -0.176471,-0.415966 -0.1764705,-0.12605 -0.5462185,-0.12605 z"/>
 <path style="fill:#3f3f3f" d="M 9.67647,21 H 8 v -3 h 1.67647 v 0.331932 H 8.378151 v 0.936975 H 9.60084 v 0.327731 H 8.378151 v 1.071429 H 9.67647 Z"/>
 <path style="fill:#3f3f3f" d="m 13.003362,19.470588 q 0,0.760504 -0.415967,1.147059 Q 12.175631,21 11.436135,21 H 10.6 v -3 h 0.92437 q 0.44958,0 0.781513,0.168067 0.336133,0.168067 0.516806,0.495798 0.180672,0.327731 0.180673,0.806723 z m -0.39916,0.01261 q 0,-0.600841 -0.298319,-0.878151 -0.294118,-0.281513 -0.836135,-0.281513 h -0.491596 v 2.352941 h 0.407563 q 1.218487,0 1.218487,-1.193277 z"/>
 <path style="fill:#3f3f3f" d="m 15.979006,18 v 1.914364 q 0,0.30663 -0.12431,0.555249 -0.124309,0.244475 -0.381215,0.389503 Q 15.216574,21 14.827072,21 14.271824,21 13.985912,20.701657 13.7,20.39917 13.7,19.906076 V 18 h 0.372929 v 1.918507 q 0,0.360498 0.190607,0.559393 0.194752,0.198895 0.584254,0.198895 0.401934,0 0.580111,-0.211326 0.18232,-0.215469 0.18232,-0.551105 V 18 Z"/>
 <path style="fill:#3f3f3f" d="M 19.145027,21 H 18.722375 L 17.939226,19.715469 17.143646,21 H 16.75 l 0.982044,-1.541437 -0.91989,-1.417127 h 0.414365 l 0.725138,1.160221 0.729282,-1.160221 h 0.393646 l -0.915746,1.40884 z"/>
 <rect style="opacity:0.2;fill:#ffffff" width="20" height=".5" x="2" y="17"/>
</svg>
