<?xml version="1.0" encoding="UTF-8" standalone="no"?>
<svg xmlns="http://www.w3.org/2000/svg" height="24" width="24" version="1">
 <circle r="10" cy="12.5" cx="12" style="opacity:0.2;fill:#000000;fill-opacity:1;"/>
 <circle style="opacity:1;fill:#cccccc;fill-opacity:1;" cx="12" cy="12" r="10"/>
 <polygon display="none" points="664 430.5 588 333 517.5 214 500 192 386 355 328 328 304 332.5 299.5 366 318.5 403.5 338 431 309.5 462 275.5 507 300 533 304 551 318.5 569.5 340.5 583 351.5 604.5 373.5 617 395 637.5 452.5 723 488.5 788.5 502 812.5 551.5 721.5 612.5 637 628.5 616 668 619.5 707 615 713 603 688.5 578 676.5 569.5 693.5 560.5 693.5 540 732.5 497.5" transform="matrix(.063142 0 0 .063142 -131 -8.0295)" fill="#5a0e00"/>
 <path style="fill:none;stroke:#474747;stroke-width:0.53399998" d="M 17.09,9.5481 A 6.4169,4.7612 59 0 1 8.9278,14.452 6.4169,4.7612 59 1 1 17.09,9.5481 Z"/>
 <path style="fill:#2a58ae" d="m 13,8.4923 c -2.1236,0 -3.8442,1.7201 -3.8442,3.8442 0,2.1241 1.7201,3.8442 3.8442,3.8442 2.1241,0 3.8442,-1.7201 3.8442,-3.8442 0,-2.1241 -1.7201,-3.8442 -3.8442,-3.8442 z m -0.68753,2.0316 c 1.4441,0 2.6251,1.1656 2.6251,2.6096 0,1.4441 -1.1811,2.6251 -2.6251,2.6251 -1.4441,0 -2.6096,-1.1811 -2.6096,-2.6251 0,-1.4441 1.1656,-2.6096 2.6096,-2.6096 z"/>
 <path style="fill:#474747" d="m 5.1735,12.371 c 0,0 -1.5004,1.4328 -1.3832,2.3276 0.1617,1.2342 1.7116,1.4311 2.9348,1.4168 2.9656,-0.0341 13.528,-3.4996 13.493,-7.6571 -0.011,-1.3442 -2.4288,-1.463 -2.4288,-1.3832 0,0 1.793,0.4499 1.754,1.3156 C 19.3973,11.617 10.5749,15.24 6.6563,15.339 5.8345,15.36 4.6899,15.183 4.3627,14.428 4.0695,13.752 5.1723,12.371 5.1723,12.371 Z"/>
 <path style="fill:#d24646" d="m 17.048,8.5067 a 1.87235,1.87235 0 0 1 -3.7447,0 1.87235,1.87235 0 1 1 3.7447,0 z"/>
 <path style="fill:#606060" d="m 11.938,14.731 a 1.1976,1.1976 0 0 1 -2.3952,0 1.1976,1.1976 0 1 1 2.3952,0 z"/>
 <circle r="5" cy="18" cx="18" style="fill:#009545;enable-background:new"/>
 <rect style="fill:#ffffff" x="17" y="17" width="2" height="4"/>
 <rect style="fill:#ffffff" x="17" y="14" width="2" height="2"/>
 <path style="opacity:0.1;fill:#ffffff;fill-opacity:1;" d="M 12 2 A 10 10 0 0 0 2 12 A 10 10 0 0 0 2.0097656 12.292969 A 10 10 0 0 1 12 2.5 A 10 10 0 0 1 21.990234 12.207031 A 10 10 0 0 0 22 12 A 10 10 0 0 0 12 2 z"/>
</svg>
