<svg xmlns="http://www.w3.org/2000/svg" width="24" height="24" version="1.1">
 <path style="opacity:0.2" d="M 3.9779543,2.4999993 C 2.8855584,2.4999993 2,3.3807813 2,4.4672852 V 16.541966 c 0,1.086504 0.8855584,1.95766 1.9779543,1.95766 H 8.91312 l 0.507147,0.634661 1.779255,2.050546 c 0.338965,0.419257 0.980613,0.419819 1.320313,0.0012 l 1.786714,-2.051727 0.507148,-0.63466 h 5.208349 C 21.114442,18.499626 22,17.62847 22,16.541966 V 4.4672852 C 22,3.3807813 21.114442,2.4999993 20.022046,2.4999993 Z"/>
 <path fill="#00aaff" d="M 3.9779543,2.0000002 C 2.8855584,2.0000002 2,2.8807822 2,3.9672861 V 16.041967 c 0,1.086504 0.8855584,1.95766 1.9779543,1.95766 H 8.91312 l 0.507147,0.634661 1.779255,2.050546 c 0.338965,0.419257 0.980613,0.419819 1.320313,0.0012 l 1.786714,-2.051727 0.507148,-0.63466 h 5.208349 C 21.114442,17.999627 22,17.128471 22,16.041967 V 3.9672861 C 22,2.8807822 21.114442,2.0000002 20.022046,2.0000002 Z"/>
 <path style="opacity:0.2" d="m 15.792451,15.499892 c -0.01645,0 -0.03296,0 -0.04941,0 -0.795338,-0.0055 -1.289049,-0.859784 -0.899549,-1.549775 0.449746,-0.794088 1.020268,-1.812678 1.711396,-3.050335 0.131667,-0.240985 0.131667,-0.531185 -0.0055,-0.766676 -0.263278,-0.4545569 -0.647219,-1.1171934 -1.157382,-1.9879084 -0.148118,-0.2519145 -0.510162,-0.2574085 -0.66923,-0.01099 -0.806343,1.297917 -2.122792,3.4172194 -3.94946,6.3580214 -0.389443,0.629788 -1.075125,1.00766 -1.8156065,1.00766 h -0.087816 c -0.7624355,0 -1.470071,-0.405227 -1.848509,-1.067863 -0.449803,-0.783157 -1.0532275,-1.829103 -1.81568,-3.148938 -0.2742668,-0.476418 -0.2742668,-1.062369 0,-1.5442814 C 5.6938965,8.8954461 6.396001,7.6577891 7.312058,6.0313121 7.498582,5.7027296 7.8496205,5.4946331 8.233618,5.5001046 h 0.021955 c 0.795338,0.00547 1.289049,0.8597845 0.8996055,1.549815 -0.4498025,0.7940305 -1.020325,1.812678 -1.7169545,3.0503344 -0.131611,0.235435 -0.131611,0.531186 0.0055,0.766676 0.2578325,0.454501 0.636327,1.117137 1.1354845,1.987909 0.142616,0.251914 0.510105,0.262845 0.663727,0.01642 0.8282985,-1.297917 2.1776495,-3.4227139 4.0591175,-6.3689869 0.3895,-0.607875 1.053228,-0.980265 1.777258,-0.985742 h 0.02745 c 0.773441,-0.010955 1.492025,0.399774 1.875965,1.067898 0.449803,0.7831 1.053228,1.829102 1.810161,3.143387 0.274283,0.4709809 0.274283,1.0569329 0.01101,1.5334079 -0.47726,0.848797 -1.17389,2.086454 -2.089947,3.712914 -0.186468,0.3286 -0.543008,0.531242 -0.921503,0.525748 z"/>
 <path fill="#ffffff" d="m 15.792451,14.999893 c -0.01645,0 -0.03296,0 -0.04941,0 -0.795338,-0.0055 -1.289049,-0.859784 -0.899549,-1.549775 0.449746,-0.794088 1.020268,-1.812678 1.711396,-3.050335 0.131667,-0.240985 0.131667,-0.5311854 -0.0055,-0.7666759 -0.263278,-0.454557 -0.647219,-1.1171935 -1.157382,-1.9879085 -0.148118,-0.2519145 -0.510162,-0.2574085 -0.66923,-0.01099 -0.806343,1.297917 -2.122792,3.4172194 -3.94946,6.3580214 -0.389443,0.629788 -1.075125,1.00766 -1.8156065,1.00766 h -0.087816 c -0.7624355,0 -1.470071,-0.405227 -1.848509,-1.067863 -0.449803,-0.783157 -1.0532275,-1.829103 -1.81568,-3.148938 -0.2742668,-0.476418 -0.2742668,-1.0623694 0,-1.5442814 C 5.6938965,8.3954471 6.396001,7.1577901 7.312058,5.5313131 7.498582,5.2027306 7.8496205,4.9946341 8.233618,5.0001056 h 0.021955 c 0.795338,0.00547 1.289049,0.8597845 0.8996055,1.549815 -0.4498025,0.7940305 -1.020325,1.812678 -1.7169545,3.0503345 -0.131611,0.2354345 -0.131611,0.5311859 0.0055,0.7666759 0.2578325,0.454501 0.636327,1.117137 1.1354845,1.987909 0.142616,0.251914 0.510105,0.262845 0.663727,0.01642 0.8282985,-1.297917 2.1776495,-3.4227139 4.0591175,-6.3689869 0.3895,-0.607875 1.053228,-0.980265 1.777258,-0.985742 h 0.02745 c 0.773441,-0.010955 1.492025,0.399774 1.875965,1.067898 0.449803,0.7831 1.053228,1.829102 1.810161,3.143387 0.274283,0.470981 0.274283,1.0569329 0.01101,1.5334079 -0.47726,0.848797 -1.17389,2.086454 -2.089947,3.712914 -0.186468,0.3286 -0.543008,0.531242 -0.921503,0.525748 z"/>
 <path style="opacity:0.2;fill:#ffffff" d="M 3.9775391,2.0000001 C 2.8851432,2.0000001 2,2.8812696 2,3.9677735 V 4.466797 C 2,3.380293 2.8851432,2.5000001 3.9775391,2.5000001 H 20.022461 C 21.114857,2.5000001 22,3.380293 22,4.466797 V 3.9677735 C 22,2.8812696 21.114857,2.0000001 20.022461,2.0000001 Z"/>
</svg>
