<svg xmlns="http://www.w3.org/2000/svg" width="24" height="24" version="1">
 <path style="opacity:0.2;fill-rule:evenodd" d="M 5.8867188,2.5019991 A 3.0002893,3.0002893 0 0 0 3,5.500046 l 0,14.000001 a 3.0002893,3.0002893 0 1 0 6,0 l 0,-5.890625 0.7226562,0.84375 a 3.0002893,3.0002893 0 0 0 4.5546878,0 L 15,13.609422 l 0,5.890625 a 3.0002893,3.0002893 0 1 0 6,0 L 21,5.500046 A 3.0002893,3.0002893 0 0 0 15.722656,3.546921 L 12,7.890671 8.2773438,3.546921 A 3.0002893,3.0002893 0 0 0 5.8867188,2.5019991 Z"/>
 <path style="fill:none;stroke:#d24343;stroke-width:5.99997854;stroke-linecap:round;stroke-linejoin:round" d="M 6,19.000016 6,5.0000655 12.000265,12.000041 18,5.0000655 18,19.000016"/>
 <circle style="opacity:0.2" cx="18" cy="18.5" r="5"/>
 <circle cx="18" cy="18" r="5" style="fill:#6c9832"/>
 <rect style="fill:#ffffff;fill-rule:evenodd" width="2" height="6" x="17" y="15" rx="1" ry="1"/>
 <rect width="2" height="6" x="17" y="-21" rx="1" ry="1" transform="matrix(0,1,-1,0,0,0)" style="fill:#ffffff;fill-rule:evenodd"/>
 <path style="opacity:0.2;fill:#ffffff;fill-rule:evenodd" d="M 5.8867188 2.0019531 A 3.0002893 3.0002893 0 0 0 3 5 L 3 5.5 A 3.0002893 3.0002893 0 0 1 5.8867188 2.5019531 A 3.0002893 3.0002893 0 0 1 8.2773438 3.546875 L 12 7.890625 L 15.722656 3.546875 A 3.0002893 3.0002893 0 0 1 21 5.5 L 21 5 A 3.0002893 3.0002893 0 0 0 15.722656 3.046875 L 12 7.390625 L 8.2773438 3.046875 A 3.0002893 3.0002893 0 0 0 5.8867188 2.0019531 z"/>
</svg>
