<?xml version="1.0" encoding="UTF-8" standalone="no"?>
<svg id="svg2817" xmlns:rdf="http://www.w3.org/1999/02/22-rdf-syntax-ns#" xmlns="http://www.w3.org/2000/svg" height="24" width="24" version="1.0" xmlns:cc="http://creativecommons.org/ns#" xmlns:dc="http://purl.org/dc/elements/1.1/">
    <metadata id="metadata57">
        <rdf:RDF>
            <cc:Work rdf:about="">
                <dc:format>
                    image/svg+xml
                </dc:format>
                <dc:type rdf:resource="http://purl.org/dc/dcmitype/StillImage"/>
                <dc:title/>
            </cc:Work>
        </rdf:RDF>
    </metadata>
    <defs id="defs2819">
        <clipPath id="clipPath4186" clipPathUnits="userSpaceOnUse">
            <circle id="path4188" style="color:#000000" cx="286" cy="26" r="10" fill="url(#linearGradient4190)"/>
        </clipPath>
    </defs>
    <g id="g4392" transform="translate(1,1)">
        <circle id="path4230" style="color:#000000" cx="11" cy="11" r="10" fill="#736dab"/>
        <circle id="path4240" opacity="0" style="color:#000000" clip-path="url(#clipPath4186)" r="10" transform="translate(-275,-15)" cy="26" cx="286" stroke-width=".45455"/>
        <circle id="path4242" opacity="0" style="color:#000000" clip-path="url(#clipPath4186)" r="10" transform="translate(-275,-15)" cy="26" cx="286" stroke-width=".90909"/>
        <path id="circle4140" style="color:#000000" fill="#ffba58" d="m21 11c0 5.5228-4.4772 10-10 10v-20c5.5228 0 10 4.4772 10 10z"/>
        <path id="rect3436" opacity=".2" fill="#fff" d="m11 1c-5.5395 0-9.999 4.46-9.999 10 0 0.08386-0.002 0.16664 0 0.25 0.1321-5.423 4.5435-9.75 9.999-9.75s9.867 4.3268 9.999 9.75c0.002-0.08335 0-0.16614 0-0.25 0-5.54-4.459-10-9.999-10z"/>
        <path id="circle4330" opacity=".2" style="color:#000000" d="m20.99 11.209a10 10 0 0 1 -9.99 9.791 10 10 0 0 1 -9.989 -9.709 10 10 0 0 0 -0.011 0.209 10 10 0 0 0 10 10 10 10 0 0 0 10 -10 10 10 0 0 0 -0.0105 -0.291z"/>
        <circle id="circle5240" opacity=".2" cy="11.5" cx="11" r="7"/>
        <circle id="path5219" cy="11" cx="11" r="7" fill="#fff"/>
        <path id="path5300" opacity=".8" d="m9 8v4.0879a1.5 1.5 0 0 0 -0.5 -0.088 1.5 1.5 0 0 0 -1.5 1.5 1.5 1.5 0 0 0 1.5 1.5 1.5 1.5 0 0 0 1.5 -1.5v-4.5h3v2.0879a1.5 1.5 0 0 0 -0.5 -0.088 1.5 1.5 0 0 0 -1.5 1.5 1.5 1.5 0 0 0 1.5 1.5 1.5 1.5 0 0 0 1.5 -1.5v-4.5h-5z"/>
    </g>
</svg>
