<svg width="24" height="24" version="1.1" xmlns="http://www.w3.org/2000/svg">
 <path d="m6 10.5002 6 12 6-12-6-8z" style="opacity:.2"/>
 <path d="m6 10.0002 6 12 6-12-6-8z" style="fill:#3f3f3f"/>
 <path d="m12 8.5002v5a3 3 0 0 0 3-3 3 3 0 0 0-0.19531-1.0645z" style="opacity:.2"/>
 <path d="m12 8.0002v5a3 3 0 0 0 3-3 3 3 0 0 0-0.19531-1.0645l-2.8047-0.93555z" style="fill:#e33755"/>
 <path d="M 12,2.5002 6.1504,10.301 12,22 V 8.5 l 5.7852,1.9277 0.06445,-0.12695 -5.8496,-7.8008 z" style="opacity:.2"/>
 <path d="m12 9v-6.9998l-6 8z" style="fill:#4f4f4f"/>
 <path d="m12 2.0002v6l6 2zm0 6-6 2 6 12z" style="fill:#5e5e5e"/>
 <path d="m12 2.0002-6 8 0.5-0.16602 5.5-7.334 5.5 7.334 0.5 0.16602z" style="fill:#ffffff;opacity:.1"/>
</svg>
