<svg xmlns="http://www.w3.org/2000/svg" width="24" height="24" version="1">
 <path style="opacity:0.2" d="m 13.118131,1.5024383 c -0.295353,0.012369 -0.56409,0.085154 -0.818138,0.1739738 -2.14152,0.5631171 -4.0830086,1.471039 -5.8620239,2.4239048 -0.016438,0.00889 -0.03275,0.018017 -0.048932,0.027367 -0.329227,0.1884419 -0.8912226,0.4582999 -1.479696,1.0594807 -0.5865279,0.5991931 -1.1576325,1.9317068 -0.796609,3.1041618 0.2568338,1.2557913 0.5996345,2.5951326 1.1097722,3.9388446 -0.1423158,0.146909 -0.28827,0.290835 -0.3973258,0.465234 -0.5605811,0.874569 -0.610383,1.843566 -0.5480356,2.492321 0.062942,0.654948 0.1862048,1.115806 0.2113851,1.325329 0.00123,0.0098 0.00254,0.01956 0.00392,0.02932 0.043385,0.320571 0.081109,0.877645 0.3934112,1.583357 0.3062611,0.692061 1.1874128,1.599364 2.2763052,1.790562 0.2844007,0.07074 0.6911987,0.03351 1.1743621,-0.132924 0.8448449,1.11929 1.8975655,2.145257 3.5132995,2.595924 0.0026,6.56e-4 0.0052,0.0013 0.0078,0.002 0.213352,0.05854 0.462362,0.08501 0.718318,0.09969 1.109983,0.112792 2.140902,-0.290656 2.834127,-0.826864 0.710846,-0.549838 1.171576,-1.203458 1.503184,-1.843341 0.0033,-0.0065 0.0065,-0.01301 0.0098,-0.01955 0.19885,-0.39368 0.210242,-0.827124 0.354267,-1.23541 1.449744,-0.158785 2.4458,-1.00969 2.632528,-2.55292 0.124679,-1.030653 0.109131,-2.046707 0.01957,-3.025971 -0.04156,-0.664053 -0.211391,-1.139174 -0.528462,-1.67523 -0.320755,-0.542286 -0.848648,-1.29054 -2.041433,-1.4660716 -0.276627,-0.040712 -0.544512,0.00541 -0.806395,0.052778 -0.0016,-0.00249 -0.0023,-0.00532 -0.0039,-0.00782 0,0 0.07958,0.1648626 -0.05284,-0.1094667 C 16.62354,9.603254 16.720239,9.4555702 16.809579,9.2648344 17.303586,8.805624 17.533102,8.1289792 17.420211,7.4644622 17.158915,5.9311191 16.55679,4.9335005 16.390687,4.2723359 16.381901,4.2362335 16.372112,4.2003824 16.361329,4.1648241 16.206594,3.6678131 15.98095,3.161235 15.533403,2.6303359 15.085856,2.099437 14.240099,1.4554514 13.118131,1.5024383 Z"/>
 <path style="fill:#4f4f4f" d="m 13.118131,1.0024379 c -0.295353,0.012369 -0.56409,0.085154 -0.818138,0.1739738 -2.14152,0.5631171 -4.0830086,1.471039 -5.8620239,2.4239048 -0.016438,0.00889 -0.03275,0.018017 -0.048932,0.027367 C 6.0598101,3.8161254 5.4978145,4.0859834 4.9093411,4.6871642 4.3228132,5.2863573 3.7517086,6.618871 4.1127321,7.791326 c 0.2568338,1.2557913 0.5996345,2.595133 1.1097722,3.938845 -0.1423158,0.146909 -0.28827,0.290835 -0.3973258,0.465234 -0.5605811,0.874569 -0.610383,1.843566 -0.5480356,2.492321 0.062942,0.654948 0.1862048,1.115806 0.2113851,1.325329 0.00123,0.0098 0.00254,0.01956 0.00392,0.02932 0.043385,0.320571 0.081109,0.877645 0.3934112,1.583357 0.3062611,0.692061 1.1874128,1.599364 2.2763052,1.790562 0.2844007,0.07074 0.6911987,0.03351 1.1743621,-0.132924 0.8448449,1.11929 1.8975655,2.145257 3.5132995,2.595924 0.0026,6.56e-4 0.0052,0.0013 0.0078,0.002 0.213352,0.05854 0.462362,0.08501 0.718318,0.09969 1.109983,0.112792 2.140902,-0.290656 2.834127,-0.826864 0.710846,-0.549838 1.171576,-1.203458 1.503184,-1.843341 0.0033,-0.0065 0.0065,-0.01301 0.0098,-0.01955 0.19885,-0.39368 0.210242,-0.827124 0.354267,-1.23541 1.449744,-0.158785 2.4458,-1.00969 2.632528,-2.55292 0.124679,-1.030653 0.109131,-2.046707 0.01957,-3.025971 -0.04156,-0.664053 -0.211391,-1.139174 -0.528462,-1.67523 -0.320755,-0.542286 -0.848648,-1.2905407 -2.041433,-1.466072 -0.276627,-0.040712 -0.544512,0.00541 -0.806395,0.052778 -0.0016,-0.00249 -0.0023,-0.00532 -0.0039,-0.00782 0,0 0.07958,0.164863 -0.05284,-0.1094667 C 16.62354,9.1032536 16.720239,8.9555698 16.809579,8.764834 17.303586,8.3056236 17.533102,7.6289788 17.420211,6.9644618 17.158915,5.4311187 16.55679,4.4335001 16.390687,3.7723355 16.381901,3.7362331 16.372112,3.700382 16.361329,3.6648237 16.206594,3.1678127 15.98095,2.6612346 15.533403,2.1303355 15.085856,1.5994366 14.240099,0.95545101 13.118131,1.0024379 Z"/>
 <path style="opacity:0.2" d="m 13.214844,3.4995078 c -0.09035,0.00379 -0.185406,0.024343 -0.283203,0.0625 C 10.987702,4.0578522 9.1614439,4.9196646 7.4101562,5.8588828 6.7306374,6.2483231 5.7661814,6.7835386 6.0527344,7.6987266 6.3412774,9.1231589 6.66385,10.560749 7.2265625,11.909665 7.5495309,11.629394 7.0888942,10.707323 7.0351562,10.23779 6.8041073,9.24694 6.4289501,8.2345323 6.5683594,7.2084922 6.9096463,6.4432255 7.8019477,6.1239655 8.4921875,5.7104453 9.9360242,5.014418 11.419659,4.2593158 13.048828,4.1010703 13.95509,4.0465381 14.136332,5.2285812 14.556641,5.8081016 14.908954,6.41124 15.103496,7.3982584 15.453125,7.7944297 15.274081,6.7424116 14.716718,5.7903666 14.457031,4.7553672 14.290114,4.2185468 13.847271,3.4729884 13.214844,3.4995078 Z m -0.08008,1.1210938 c -0.479387,0.2592797 -1.662608,0.138875 -1.65625,0.71875 0.508053,0.7418686 0.620923,1.6550741 1.064453,2.4199218 0.664192,0.9550527 1.158249,-0.2136047 1.310547,-0.7832031 0.282231,0.5405175 -0.329885,1.4054507 0.162109,1.9648437 0.348514,0.4194538 0.795909,0.3784749 0.939453,-0.1503906 C 15.574296,8.3702376 14.845124,7.6385303 14.710938,7.1147422 14.302378,6.2688133 13.900432,5.392203 13.261719,4.6811484 l -0.07617,-0.048828 z M 11.054688,5.2319297 C 9.8810439,5.6355545 8.7297411,6.1353554 7.6484375,6.7338828 6.8782919,7.2483629 7.0539381,8.2634934 7.1386719,9.034664 6.9414693,9.7213149 7.9405529,10.330518 8.3535156,9.7866172 8.2455753,9.4467613 7.0623087,9.0609511 7.5351562,8.8393516 7.8131918,9.0971525 9.0196101,9.3535065 8.6953125,8.7475547 8.2831683,8.3806748 7.3782628,7.7958038 7.8125,7.2338828 8.2828047,7.8170657 8.9273291,8.235694 9.6972656,8.3432578 10.284708,8.3626128 9.4739936,7.4508763 9.5410156,7.081539 9.4534556,6.7836615 9.4405612,5.8343425 9.7382812,6.581539 9.9925913,7.2751083 10.463887,8.1594446 11.363281,8.0854453 12.07366,7.2544423 11.651723,6.0602686 11.119141,5.253414 Z M 11.8125,8.925289 c -1.437146,0.024645 -2.814325,0.9991582 -3.3574219,2.273439 -0.7669112,1.853087 -0.3985904,3.973269 0.4238281,5.75 0.7032624,1.48909 1.8144978,3.009052 3.5234378,3.486328 0.115822,0.03182 0.236734,0.05074 0.357422,0.05078 1.09182,0.137616 1.937983,-0.751866 2.382812,-1.611328 0.956346,-1.895793 1.118825,-4.125648 0.648438,-6.169922 C 15.424479,11.031125 14.205944,9.4182659 12.429688,8.9741162 12.224188,8.9369312 12.017807,8.9217672 11.8125,8.925289 Z m 5.259766,2.880861 c -0.06954,-0.01025 -0.142275,-0.0053 -0.216797,0.01563 0.203006,1.591515 0.05246,3.19884 0.130859,4.792968 0.434064,-0.02447 0.881867,-0.421021 0.935547,-0.865234 0.10585,-0.876127 0.09852,-1.769443 0.01563,-2.648438 -0.02626,-0.457262 -0.378433,-1.223191 -0.865234,-1.294921 z m -2.992188,0.08008 c 0.641081,-0.0878 0.245826,0.229172 -0.111328,0.294922 -0.627288,0.281347 0.707817,0.303905 -0.05469,0.550781 -0.641231,0.188017 -0.05313,0.374529 0.292969,0.417969 -0.220324,0.301645 -1.30896,0.129583 -1.84375,0.248047 -1.074722,0.01694 -1.95977,0.645369 -2.9218748,1.011718 -0.4530376,0.141604 0.3004927,-0.333846 0.2753927,-0.427736 -0.586344,-0.03392 -0.1008449,-0.286652 0.1894531,-0.392578 0.295976,-0.60931 -1.0795,-0.05973 -1.140625,-0.398438 0.9023972,-0.350738 1.850659,0.242084 2.783203,0.07227 1.0567,-0.04009 1.55885,-1.148679 2.53125,-1.376953 z m -7.1601561,1.544922 c -0.1139693,0.0134 -0.2716029,0.143184 -0.3808594,0.322265 -0.4947717,0.757822 -0.1315431,1.688488 -0.033203,2.507813 0.08769,0.648768 0.207558,1.565796 1.03125,1.6875 0.4445567,0.123827 0.1809869,-0.343234 0.1386718,-0.533203 -0.4917081,-1.140112 -0.7108411,-2.375972 -0.6425781,-3.609375 0.070573,-0.286176 6.881e-4,-0.388399 -0.1132813,-0.375 z m 8.2597661,0.417968 c 0.682234,0.12159 0.313405,1.165834 0.326171,1.734375 0.04927,1.077225 -0.221424,2.136079 -0.595703,3.142578 -0.35674,0.829993 -1.371847,0.953725 -2.177734,1.089844 -0.231251,0.0169 -0.465905,0.04474 -0.697266,0.01563 -1.092888,-0.110151 -1.491091,-1.231971 -2.0703122,-1.96289 -0.40719,-0.602263 -1.0560686,-1.165636 -1.1171876,-1.904297 0.1199499,-0.433764 0.5198102,-1.010778 1.0332032,-1.017578 0.6971376,0.09171 1.4226336,0.168365 2.0781246,-0.158204 0.888267,-0.456172 1.803624,-1.021657 2.859375,-0.929687 0.144594,-0.02432 0.263866,-0.02714 0.361329,-0.0098 z m -0.751954,0.289063 c -1.317271,-0.05406 -2.150402,1.329809 -3.478515,1.193359 -0.712326,-0.120782 -1.7794021,-0.02599 -1.6855471,0.917969 -0.209531,0.414675 0.8932071,1.640947 0.8554691,0.724609 -0.106644,-0.877282 1.091361,-0.762121 1.623047,-1.175781 0.893668,-0.358026 1.863941,-0.479773 2.8125,-0.625 0.197777,0.223549 0.716253,0.952909 0.796874,0.195313 -0.09337,-0.332263 0.22741,-0.898441 -0.171874,-1.09375 -0.242616,-0.08319 -0.492328,-0.142935 -0.751954,-0.136719 z m -1.416015,3.654297 c -0.483588,0.02597 -1.028812,0.41409 -0.347657,0.710937 0.312848,0.124101 0.646139,-0.07058 0.873047,-0.267578 0.03308,-0.343989 -0.235237,-0.458941 -0.52539,-0.443359 z"/>
 <path style="fill:#ffb925" d="M 12.402556,19.934598 C 10.693616,19.457322 9.5822824,17.939182 8.87902,16.450092 8.0566015,14.673361 7.6888511,12.552381 8.4557623,10.699294 9.0764444,9.2429747 10.786467,8.1770672 12.430466,8.4745446 c 1.776257,0.4441497 2.993706,2.0572964 3.360243,3.7307574 0.470387,2.044274 0.308798,4.273342 -0.647548,6.169135 -0.444829,0.859462 -1.292293,1.749016 -2.384113,1.6114 -0.120688,-3.7e-5 -0.24067,-0.01942 -0.356492,-0.05124 z m 0.329471,-0.617697 c 0.805887,-0.136119 1.821714,-0.260974 2.178454,-1.090967 0.374279,-1.0065 0.643723,-2.06501 0.594451,-3.142235 -0.01459,-0.649761 0.470746,-1.919678 -0.686003,-1.725082 -1.055751,-0.09197 -1.97124,0.474078 -2.859507,0.93025 -0.655491,0.326569 -1.381569,0.250838 -2.0787066,0.15913 -0.513393,0.0068 -0.9136256,0.582242 -1.0335754,1.016006 0.061119,0.738661 0.7101404,1.302053 1.1173304,1.904316 0.5792216,0.730919 0.9770846,1.853629 2.0699726,1.96378 0.231361,0.02912 0.466333,0.0017 0.697584,-0.0152 z m -0.06801,-1.312167 c -1.089849,-0.474955 0.961271,-1.18553 0.873049,-0.268225 -0.226908,0.196995 -0.560202,0.392326 -0.873049,0.268225 z m -3.2231736,-4.09407 c 0.9621046,-0.366349 1.8486216,-0.996074 2.9233436,-1.013015 0.53479,-0.118464 1.622242,0.05478 1.842566,-0.246865 -0.346101,-0.04344 -0.933341,-0.229586 -0.292109,-0.417603 0.762505,-0.246876 -0.573118,-0.270092 0.05417,-0.551439 0.357154,-0.06575 0.753051,-0.382494 0.11197,-0.294696 -0.9724,0.228274 -1.474418,1.336707 -2.531118,1.376802 -0.932544,0.169818 -1.8817066,-0.423768 -2.7841038,-0.07303 0.061125,0.338704 1.4370018,-0.211129 1.1410262,0.398181 -0.290298,0.105926 -0.776456,0.360292 -0.190112,0.394208 0.0251,0.09389 -0.7286696,0.56906 -0.27563,0.427454 z m -1.90363,3.537747 c -0.823692,-0.121704 -0.9429633,-1.037859 -1.0306536,-1.686627 -0.09834,-0.819325 -0.4631417,-1.75063 0.03163,-2.508452 0.2185131,-0.358163 0.6357064,-0.518852 0.4945611,0.0535 -0.068263,1.233403 0.1518163,2.469072 0.6435244,3.609184 0.042315,0.189969 0.3054919,0.65622 -0.1390648,0.532393 z m 9.4486436,-1.334036 c -0.0784,-1.594128 0.07347,-3.201219 -0.129536,-4.792734 0.596175,-0.167653 1.050705,0.756561 1.080718,1.279147 0.0829,0.878994 0.09013,1.773658 -0.01572,2.649785 -0.05368,0.444213 -0.501393,0.839332 -0.935457,0.863802 z M 7.227366,11.409732 C 6.6646535,10.060816 6.3403241,8.6237679 6.0517811,7.1993355 5.7652281,6.2841476 6.7310089,5.7480596 7.4105277,5.3586193 9.1618154,4.4194011 10.988602,3.5580517 12.932541,3.0622073 c 0.782383,-0.3052529 1.334528,0.5807597 1.52529,1.1942687 0.259687,1.0349994 0.81545,1.9872352 0.994494,3.0392533 C 15.102696,6.899558 14.909066,5.9115118 14.556753,5.3083734 14.136444,4.728853 13.955911,3.5469161 13.049649,3.6014483 11.42048,3.7596938 9.9356314,4.5151403 8.4917947,5.2111676 7.8015549,5.6246878 6.9087071,5.9429777 6.5674202,6.7082444 6.4280109,7.7342845 6.8038678,8.7473376 7.0349168,9.7381866 7.0886548,10.207719 7.5503344,11.129461 7.227366,11.409732 Z"/>
 <path style="fill:#ffffff" d="m 13.135074,4.1213034 c -0.479387,0.2592798 -1.663114,0.139029 -1.656756,0.7189039 0.508053,0.7418686 0.62138,1.6538389 1.06491,2.4186866 0.664192,0.9550527 1.158906,-0.2132882 1.311204,-0.7828866 0.282231,0.5405175 -0.329832,1.4059729 0.162162,1.9653659 0.348514,0.4194537 0.794487,0.3792408 0.938031,-0.1496247 C 15.573843,7.8714627 14.845406,7.1388966 14.711219,6.6151085 14.30266,5.7691796 13.900944,4.8935712 13.262231,4.1825166 l -0.07634,-0.049804 -0.05082,-0.011411 z m -2.080962,0.61209 C 9.8804684,5.1370182 8.7296188,5.6363008 7.6483152,6.2348282 6.8781696,6.7493083 7.0546988,7.7631589 7.1394326,8.5343295 6.94223,9.2209803 7.9403192,9.8317686 8.3532819,9.2878687 8.2453416,8.9480128 7.0631708,8.561878 7.5360184,8.3402784 7.8140539,8.5980794 9.0193274,8.8545499 8.6950298,8.2485981 8.2828856,7.8817182 7.3784102,7.2956918 7.8126474,6.7337708 8.2829521,7.3169537 8.9269099,7.736602 9.6968464,7.8441658 10.284289,7.8635208 9.4747594,6.9520079 9.5417814,6.5826706 9.4542214,6.2847931 9.4414514,5.3357874 9.7391714,6.082984 9.9934814,6.7765532 10.464186,7.6604021 11.36358,7.5864028 12.073959,6.7553998 11.652148,5.5612974 11.119566,4.7544429 Z m 3.373623,8.9054876 c -1.317271,-0.05406 -2.150604,1.33057 -3.478717,1.19412 -0.712326,-0.120782 -1.7786016,-0.02781 -1.6847466,0.916147 -0.209531,0.414675 0.8920056,1.64101 0.8542676,0.724672 -0.106644,-0.877282 1.092332,-0.761071 1.624017,-1.174731 0.893669,-0.358026 1.863739,-0.480663 2.812297,-0.62589 0.197777,0.223549 0.715624,0.952885 0.796246,0.195289 -0.09337,-0.332263 0.228833,-0.898603 -0.170452,-1.093912 -0.242615,-0.08319 -0.493286,-0.141911 -0.752912,-0.135695 z"/>
 <path style="opacity:0.1;fill:#ffffff" d="M 13.117188 1.0019531 C 12.821834 1.0143221 12.554829 1.0869614 12.300781 1.1757812 C 10.159261 1.7388983 8.2165153 2.6467436 6.4375 3.5996094 C 6.421062 3.6084994 6.4048539 3.6176031 6.3886719 3.6269531 C 6.0594449 3.815395 5.4986296 4.0863192 4.9101562 4.6875 C 4.4100186 5.1984373 3.9249625 6.2421833 4.015625 7.265625 C 4.0856159 6.4162434 4.4917929 5.6148973 4.9101562 5.1875 C 5.4986296 4.5863192 6.0594449 4.315395 6.3886719 4.1269531 C 6.4048539 4.1176031 6.421062 4.1084994 6.4375 4.0996094 C 8.2165153 3.1467436 10.159261 2.2388983 12.300781 1.6757812 C 12.554829 1.5869614 12.821834 1.5143221 13.117188 1.5019531 C 14.239156 1.4549662 15.085656 2.0999605 15.533203 2.6308594 C 15.98075 3.1617585 16.206593 3.6670515 16.361328 4.1640625 C 16.372111 4.1996208 16.381839 4.235382 16.390625 4.2714844 C 16.556728 4.932649 17.158626 5.9315006 17.419922 7.4648438 C 17.424589 7.4923191 17.420326 7.5193744 17.423828 7.546875 C 17.448037 7.3548164 17.45319 7.1606708 17.419922 6.9648438 C 17.158626 5.4315007 16.556728 4.432649 16.390625 3.7714844 C 16.381839 3.735382 16.372111 3.6996208 16.361328 3.6640625 C 16.206593 3.1670515 15.98075 2.6617585 15.533203 2.1308594 C 15.085656 1.5999605 14.239156 0.95496623 13.117188 1.0019531 z M 16.951172 9.328125 C 16.884722 9.3342425 16.819495 9.3472087 16.753906 9.3574219 C 16.677942 9.5025458 16.600218 9.6340196 16.496094 9.7714844 L 16.548828 9.8808594 C 16.550428 9.8833594 16.551134 9.8861819 16.552734 9.8886719 C 16.814617 9.8413039 17.082748 9.7952255 17.359375 9.8359375 C 18.55216 10.011468 19.079636 10.758495 19.400391 11.300781 C 19.717462 11.836837 19.888127 12.312509 19.929688 12.976562 C 19.966155 13.375299 19.978873 13.783922 19.986328 14.193359 C 19.996027 13.612554 19.98098 13.037402 19.929688 12.476562 C 19.888127 11.812509 19.717462 11.336837 19.400391 10.800781 C 19.079636 10.258495 18.55216 9.5114688 17.359375 9.3359375 C 17.221061 9.3155815 17.085457 9.3157625 16.951172 9.328125 z M 5.0976562 11.875 C 5.0009128 11.977018 4.8992371 12.075345 4.8242188 12.195312 C 4.3093324 12.998593 4.2334448 13.870424 4.2714844 14.511719 C 4.3014354 13.951809 4.4345442 13.303248 4.8242188 12.695312 C 4.9332745 12.520914 5.0803405 12.377378 5.2226562 12.230469 C 5.1775831 12.111745 5.1401728 11.993601 5.0976562 11.875 z"/>
</svg>
