<svg xmlns="http://www.w3.org/2000/svg" width="24" height="24" version="1.1">
 <path style="opacity:0.2" d="M 8.2692761,3.5 A 1.6155455,1.6365273 0 0 0 6.8739571,4.3117895 L 1.2201129,14.129972 a 1.6155455,1.6365273 0 0 0 0.051269,1.732244 l 3.2307683,4.909091 A 1.6155455,1.6365273 0 0 0 5.8462001,21.5 l 11.3076879,0 a 1.6155455,1.6365273 0 0 0 1.34405,-0.728693 l 3.230768,-4.909091 a 1.6155455,1.6365273 0 0 0 0.05127,-1.732244 L 16.126131,4.3117895 A 1.6155455,1.6365273 0 0 0 14.730812,3.5 l -6.4615359,0 z"/>
 <path style="fill:#909090" d="m 8.1088121,15 -0.391422,-0.130593 -2.971146,5.401173 0.2062425,0.455982 C 5.2174021,20.904861 5.5283791,20.999982 5.8464371,21 l 11.3072149,0 c 0.540109,4.2e-5 1.044512,-0.273332 1.344188,-0.728516 l 3.230899,-4.909179 C 21.802332,15.249416 21.861823,15.12772 21.905851,15 l -0.02711,-0.378788 -6.452611,0 L 15.203621,15 Z m -6.8915284,0.269531 c 0.011943,0.02177 0.024375,0.04326 0.037287,0.06445 -0.012912,-0.0212 -0.025344,-0.04269 -0.037287,-0.06445 z"/>
 <path style="fill:#ffa246" d="M 8.2691451,3 C 7.6946371,2.9999219 7.1633081,3.3089143 6.8736876,3.8115235 L 1.2200802,13.629883 c -0.31096399,0.539993 -0.29106869,1.212268 0.051269,1.732422 l 3.230899,4.909179 c 0.118828,0.180416 0.271873,0.335106 0.450238,0.455078 L 14.864803,3 Z"/>
 <path style="opacity:0.2;fill:#ffffff" d="M 8.2691451,3 C 7.6946371,2.9999219 7.1633081,3.3089143 6.8736876,3.8115235 L 1.2200802,13.629883 c -0.19163,0.332768 -0.25717739,0.71535 -0.1994841,1.082031 0.029864,-0.201618 0.09445,-0.399638 0.1994842,-0.582031 L 6.8736876,4.3115234 C 7.1633081,3.8089143 7.6946371,3.4999219 8.2691451,3.5 l 6.3163799,0 0.27965,-0.5 -6.5960299,0 z"/>
 <path style="opacity:0.2" d="m 8.2695311,3.5 c -0.02955,4.81e-4 -0.059389,0.00178 -0.088867,0.00391 L 14.791992,15.5 l 6.845703,0 0.09082,-0.137695 a 1.6155455,1.6365273 0 0 0 0.248047,-0.638672 c -0.02894,-0.206604 -0.09031,-0.409127 -0.196289,-0.59375 L 16.125976,4.3115234 C 15.836356,3.8089143 15.304977,3.4999219 14.730469,3.5 l -6.4609379,0 z"/>
 <path style="fill:#ffe94f" d="m 8.2691451,3 c -0.02955,4.81e-4 -0.059078,0.00178 -0.088556,0.00391 L 14.791534,15 l 7.114317,0 c 0.158842,-0.453249 0.112819,-0.954332 -0.125843,-1.370117 L 16.1264,3.8115235 C 15.83678,3.3089143 15.305452,2.9999219 14.730943,3 Z M 21.903054,15.006836 c -0.01961,0.05607 -0.04258,0.110577 -0.06805,0.164063 0.0256,-0.0534 0.04832,-0.108166 0.06805,-0.164063 z m -0.0783,0.185547 c -0.0288,0.0583 -0.06048,0.115419 -0.09601,0.169921 0.03533,-0.05465 0.06738,-0.11139 0.09601,-0.169921 z m -20.6074683,0.07715 c 0.011943,0.02177 0.024375,0.04326 0.037287,0.06445 -0.012912,-0.0212 -0.025344,-0.04269 -0.037287,-0.06445 z"/>
 <path style="opacity:0.2" d="M 11.497248,9.022461 4.9524866,20.726562 c 0.068092,0.0451 0.139451,0.08493 0.213467,0.119141 L 11.636141,9.274414 11.497248,9.022461 Z M 4.5022486,20.271484 c 0.059169,0.08955 0.126925,0.172965 0.202281,0.249024 -0.075032,-0.07597 -0.143116,-0.159194 -0.202281,-0.249024 z m 0.2050775,0.251953 c 0.073412,0.07369 0.1536355,0.140076 0.2395675,0.198242 -0.086099,-0.05849 -0.1664055,-0.124535 -0.2395675,-0.198242 z"/>
 <path style="opacity:0.2" d="M 11.542966,8.5008255 A 1.0000054,0.8750911 0 0 0 10.635825,8.934055 L 8.8859896,11.559066 7.1361544,14.184077 A 1.0000054,0.8750911 0 0 0 8.000331,15.5 l 3.499669,0 3.49967,0 a 1.0000054,0.8750911 0 0 0 0.864176,-1.315923 L 14.114012,11.559066 12.364177,8.934055 A 1.0000054,0.8750911 0 0 0 11.542966,8.5008255 Z"/>
 <path style="fill:#ffffff" d="M 11.542966,8.0008255 A 1.0000054,0.8750911 0 0 0 10.635825,8.434055 L 8.8859896,11.059066 7.1361544,13.684077 A 1.0000054,0.8750911 0 0 0 8.000331,15 L 11.5,15 l 3.49967,0 a 1.0000054,0.8750911 0 0 0 0.864176,-1.315923 L 14.114012,11.059066 12.364177,8.434055 A 1.0000054,0.8750911 0 0 0 11.542966,8.0008255 Z"/>
 <path style="opacity:0.2;fill:#ffffff" d="m 8.2691451,3 a 1.6155455,1.6365273 0 0 0 -0.088556,0.00391 L 8.4537151,3.5 14.730943,3.5 A 1.6155455,1.6365273 0 0 1 16.1264,4.3115234 l 5.653608,9.8183596 a 1.6155455,1.6365273 0 0 1 0.199484,0.576171 1.6155455,1.6365273 0 0 0 -0.199484,-1.076171 L 16.1264,3.8115235 A 1.6155455,1.6365273 0 0 0 14.730943,3 L 8.2691451,3 Z"/>
</svg>
