<svg xmlns="http://www.w3.org/2000/svg" width="24" height="24" version="1">
 <rect style="opacity:0.2" width="20" height="20" x="2" y="2.5" rx="6" ry="6"/>
 <path style="fill:#e4e4e4" d="m 2,12 v 4 c 0,3.324 2.676,6 6,6 h 4 V 12 Z"/>
 <path style="fill:#ebc53d" d="M 8,2 C 4.676,2 2,4.676 2,8 v 4 H 12 V 2 Z"/>
 <path style="fill:#e4e4e4" d="M 12,2 V 12 H 22 V 8 C 22,4.676 19.324,2 16,2 Z"/>
 <path style="fill:#008aff" d="m 12,12 v 10 h 4 c 3.324,0 6,-2.676 6,-6 v -4 z"/>
 <path style="opacity:0.2;fill:#ffffff" d="M 8,2 C 4.676,2 2,4.676 2,8 v 0.5 c 0,-3.324 2.676,-6 6,-6 h 8 c 3.324,0 6,2.676 6,6 V 8 C 22,4.676 19.324,2 16,2 Z"/>
 <rect style="opacity:0.2" width="10" height=".5" x="12" y="12"/>
 <rect style="opacity:0.2;fill:#ffffff" width="10" height=".5" x="2" y="12"/>
 <path style="fill:#3f3f3f" d="m 7.0028125,4.0000001 c -0.935067,0 -1.671975,0.266718 -2.2059375,0.7987499 C 4.265557,5.33065 4,6.062668 4,7 4,7.934836 4.265557,8.6684125 4.796875,9.2003125 5.330838,9.731984 6.067746,10 7.0028125,10 7.940403,10 8.671927,9.731984 9.203124,9.2003125 9.7345625,8.6684125 10,7.934836 10,7 10,6.062668 9.7345625,5.33065 9.203124,4.79875 8.6719265,4.2667181 7.940403,4.0000001 7.0028125,4.0000001 Z m 0,1.0799999 c 0.46098,0 0.816136,0.168687 1.0687495,0.504375 C 8.324175,5.920063 8.4512495,6.390604 8.4512495,7 8.4512495,7.606888 8.324175,8.0799365 8.071562,8.4156245 7.818949,8.7513125 7.4637925,8.919062 7.0028125,8.919062 6.544357,8.919062 6.188551,8.7513125 5.9359375,8.4156245 5.6832045,8.0799365 5.554375,7.606888 5.554375,7 5.554375,6.390604 5.6832045,5.920063 5.9359375,5.584375 6.188551,5.248687 6.544357,5.08 7.0028125,5.08 Z"/>
 <path style="fill:#3f3f3f" d="m 15,14 v 6 h 2.496562 c 0.775136,0 1.354618,-0.14024 1.734375,-0.424688 C 19.610693,19.292113 19.8,18.858459 19.8,18.279687 c 0,-0.377208 -0.08771,-0.696534 -0.264375,-0.95625 -0.176659,-0.259703 -0.429539,-0.437895 -0.752813,-0.534375 0.25237,-0.09894 0.447182,-0.248764 0.579375,-0.452812 0.133398,-0.206532 0.19875,-0.458136 0.19875,-0.75 0,-0.555288 -0.18029,-0.957087 -0.545625,-1.209375 C 18.653583,14.124587 18.067486,14 17.2575,14 Z m 1.504687,1.051875 h 0.829688 c 0.236749,0 0.416483,0.05402 0.539063,0.164062 0.122575,0.106356 0.185625,0.265031 0.185625,0.471563 0,0.209004 -0.06305,0.367117 -0.185625,0.473437 -0.12258,0.107604 -0.302313,0.16125 -0.539063,0.16125 h -0.829688 z m -0.0019,2.325 h 0.88125 c 0.304046,0 0.534829,0.06391 0.68625,0.195 0.151428,0.128628 0.225,0.323421 0.225,0.583125 0,0.26466 -0.07586,0.464224 -0.229687,0.595312 -0.150224,0.131124 -0.379921,0.196875 -0.681563,0.196875 h -0.88125 z"/>
</svg>
