<svg xmlns="http://www.w3.org/2000/svg" width="24" height="24" version="1.1">
 <path style="opacity:0.2" d="m 17.882812,8.8496094 c -0.291572,0.00628 -0.52539,0.2455358 -0.52539,0.5371094 v 4.2851562 c 0,0.379465 0.382812,0.638951 0.734375,0.498047 l 3.572265,-1.429688 C 21.867746,12.659319 22,12.461914 22,12.242188 v -1.427735 c 0,-0.219029 -0.132254,-0.416434 -0.335938,-0.498047 L 18.091797,8.8886719 C 18.025527,8.8621669 17.95466,8.8489094 17.882812,8.8496094 Z M 6.0917969,8.8730469 c -0.038365,0.0014 -0.078264,0.00586 -0.1152344,0.015625 L 2.40625,9.78125 C 2.1676897,9.840542 2,10.054547 2,10.300781 v 2.857422 c 0,0.245536 0.1676897,0.459542 0.40625,0.519531 l 3.3203125,0.830078 0.1855469,0.634766 H 5.5722656 c -0.357143,0 -0.6160712,0.342355 -0.515625,0.685547 l 1.25,4.285156 C 6.3729076,20.342075 6.5844031,20.5 6.8222656,20.5 h 1.9628906 c 0.3571426,0 0.6153741,-0.342354 0.515625,-0.685547 L 8.625,17.5 h 0.3398438 a 0.53576785,0.53576785 0 0 0 0.5136718,-0.685547 l -1.25,-4.285156 A 0.53576785,0.53576785 0 0 0 7.7148438,12.142578 H 6.6425781 V 9.4082031 c 0,-0.302037 -0.2487447,-0.5442242 -0.5507812,-0.5351562 z"/>
 <path style="fill:#3d3846" d="m 5.750342,11.642901 a 0.53576785,0.53576785 0 0 0 -0.5144395,0.685686 l 1.25,4.285714 A 0.53576785,0.53576785 0 0 0 7.000342,17.000044 H 8.9646275 A 0.53576785,0.53576785 0 0 0 9.479067,16.314357 l -1.25,-4.285714 A 0.53576785,0.53576785 0 0 0 7.7146275,11.642901 Z"/>
 <path style="fill:#68676e" d="m 5.5714285,14.642856 c -0.357143,0 -0.6145367,0.342495 -0.5140905,0.685687 l 1.25,4.285714 C 6.373605,19.843051 6.583566,20 6.8214285,20 h 1.964286 C 9.142857,20 9.400251,19.657505 9.300502,19.314312 l -1.25,-4.285714 C 7.983538,14.799804 7.773577,14.642856 7.5357145,14.642856 Z m 0,0"/>
 <path style="fill:#68676e" d="m 6.0910995,8.3725519 c -0.038365,0.0014 -0.07673,0.00628 -0.1137,0.016045 L 2.405971,9.2814519 C 2.1674107,9.3407439 2,9.55489 2,9.8011242 v 2.8571438 c 0,0.245536 0.1674107,0.459682 0.405971,0.519671 l 3.5714285,0.892857 C 6.315011,14.155199 6.642857,13.8992 6.642857,13.551125 V 8.9082664 c 0,-0.302037 -0.249721,-0.5447825 -0.5517575,-0.5357145 z m 0,0"/>
 <path style="opacity:0.4" d="M 2.0214844,9.6508724 C 2.0075249,9.6987504 2,9.7493908 2,9.8012642 V 10.000484 H 4.1425781 V 9.6508724 Z M 2,11.000484 v 0.5 h 2.1425781 v -0.5 z m 0,1.5 v 0.158203 c 0,0.06737 0.013892,0.131299 0.03711,0.191406 h 2.1054686 v -0.349609 z"/>
 <path style="opacity:0.2" d="M 19.015625,3.4998696 C 18.451251,3.4933995 17.9921,3.8311562 18,4.2459634 v 0.9726562 c -2.449733,1.2471723 -7.337546,2.28125 -10.4648438,2.28125 -0.1785715,0 -0.5351562,0 -0.5351562,0 H 4.0722656 C 3.4807477,7.4998696 3,8.036588 3,8.6990884 v 5.6015626 c 0,0.6625 0.4807477,1.199219 1.0722656,1.199219 H 7 l 0.5351562,0.02344 c 3.1305578,0 8.0176548,1.73386 10.4648438,3.214843 v 1.015625 c -0.01953,0.994963 2.01952,0.994963 2,0 V 4.2459634 C 20.0078,3.839783 19.567306,3.5056196 19.015625,3.4998696 Z"/>
 <path style="fill:#e83635" d="M 4.0712891,7 C 3.4797712,7 3,7.5374997 3,8.2 v 5.6 C 3,14.4625 3.4797712,15 4.0712891,15 H 7.05 V 7 Z"/>
 <path style="fill:#9c9ba2" d="m 17.882394,8.350277 c -0.291573,0.00628 -0.525251,0.2441405 -0.525251,0.535714 v 4.285715 c 0,0.379465 0.382952,0.638254 0.734515,0.49735 l 3.571428,-1.428572 C 21.86677,12.159569 22,11.962861 22,11.743135 V 10.314563 C 22,10.095534 21.86677,9.8988266 21.663086,9.8172136 L 18.091658,8.388642 C 18.025388,8.362137 17.954241,8.349577 17.882394,8.350277 Z m 0,0"/>
 <path style="fill:#e4e4e4" d="M 19.142857,3.955 C 17.570592,5.5133149 11.285715,7 7.5357145,7 7.357143,7 7,6.8214285 7,7 v 8 l 0.5357145,0.02302 c 3.7500005,0 10.0348775,2.489327 11.6071425,4.049736 z"/>
 <path style="fill:#e83635" d="m 19.015622,3.0001349 c 0.551681,0.00575 0.992049,0.3400414 0.984238,0.7462218 V 19.253822 c 0.01952,0.994962 -2.01925,0.994962 -1.999721,0 V 3.7463567 c -0.0079,-0.4148072 0.451109,-0.7526919 1.015483,-0.7462218 z m 0,0"/>
 <path style="fill:#ffffff;opacity:0.2" d="M 19.015625 3 C 18.451251 2.9935299 17.9921 3.3312865 18 3.7460938 L 18 4.2460938 C 17.9921 3.8312866 18.451251 3.4935299 19.015625 3.5 C 19.567306 3.50575 20.0078 3.8399134 20 4.2460938 L 20 3.7460938 C 20.007811 3.3399133 19.567306 3.00575 19.015625 3 z M 18 4.71875 C 15.550267 5.9659223 10.662454 7 7.5351562 7 L 7 7 L 4.0722656 7 C 3.4807477 7 3 7.5367183 3 8.1992188 L 3 8.6992188 C 3 8.0367184 3.4807477 7.5 4.0722656 7.5 L 7 7.5 L 7.5351562 7.5 C 10.662454 7.5 15.550267 6.4659223 18 5.21875 L 18 4.71875 z"/>
</svg>
