<svg xmlns="http://www.w3.org/2000/svg" width="24" height="24" version="1.1">
 <path style="opacity:0.2" d="M 3.428711,4.5 C 2.6372823,4.5 2,5.172416 2,6.0078125 V 17.992187 C 2,18.827584 2.6372823,19.5 3.428711,19.5 H 12 12.0498 20.571284 C 21.362717,19.5 22,18.827584 22,17.992187 V 6.0078125 C 22,5.172416 21.362717,4.4992571 20.571289,4.5 H 12.049805 12 Z"/>
 <path style="fill:#e4e4e4" d="M 3.428711,4 C 2.6372823,4 2,4.672416 2,5.5078125 V 17.492187 C 2,18.327584 2.6372823,19 3.428711,19 H 12.05 V 4 Z"/>
 <path style="opacity:0.2;fill:#ffffff" d="M 3.428711,4 C 2.6372823,4 2,4.672416 2,5.5078125 v 0.5 C 2,5.172416 2.6372823,4.5 3.428711,4.5 h 8.621094 V 4 Z"/>
 <path style="fill:#51495d" d="m 12,4 v 15 h 8.571428 C 21.362857,19 22,18.327306 22,17.491909 V 5.508091 C 22,4.6726945 21.362857,3.9992572 20.571428,4 Z"/>
 <circle style="opacity:0.2" cx="18.5" cy="12" r="4.5"/>
 <circle style="fill:#e4e4e4" cx="18.5" cy="11.5" r="4.5"/>
 <circle style="fill:#3ea5e6" cx="18.5" cy="11.5" r="2.5"/>
 <path style="opacity:0.1;fill:#ffffff" d="m 12,4 v 0.5 h 8.571289 C 21.362717,4.4992571 22,5.172416 22,6.0078125 v -0.5 C 22,4.672416 21.362717,3.9992572 20.571289,4 Z"/>
 <path style="opacity:0.2" d="M 18.5,9 A 2.5,2.5 0 0 0 16,11.5 2.5,2.5 0 0 0 16.013672,11.738281 2.5,2.5 0 0 1 18.5,9.5 2.5,2.5 0 0 1 20.986328,11.761719 2.5,2.5 0 0 0 21,11.5 2.5,2.5 0 0 0 18.5,9 Z"/>
</svg>
