<svg width="24" height="24" version="1.1" xmlns="http://www.w3.org/2000/svg">
 <path d="M 3,4.9501954 V 20.780274 C 3,21.72992 3.7429869,22.5 4.6591795,22.5 H 13 l 6,-6 V 4.9501954 Z" style="opacity:.2"/>
 <path d="m3 5.0000001v15.28c0 0.949646 0.7429867 1.72 1.6591795 1.72h8.3408205l6-6v-11z" style="fill:#1eb28d"/>
 <path d="M 3,6 V 20.28 C 3,21.229646 3.7429867,22 4.6591795,22 H 7 V 6 Z" style="opacity:.3"/>
 <rect x="8" y="9" width="10" height="1" style="fill:#dfdfdf"/>
 <rect x="8" y="12" width="10" height="1" style="fill:#dfdfdf"/>
 <rect x="8" y="15" width="5" height="1" style="fill:#dfdfdf"/>
 <rect x="3" y="6" width="16" height=".5" style="opacity:.2"/>
 <path d="M 4.659091,2 C 3.7400567,2 3,2.7670789 3,3.7196703 v 2.2803073 l 16,4.48e-5 V 3.7196703 C 19,2.7670789 18.259943,2 17.340909,2 Z" style="fill:#5edfbf"/>
 <path d="m4.6591795 2.0000001c-0.9190341 0-1.6591795 0.7671353-1.6591795 1.7197266v0.5c0-0.9525913 0.7401454-1.7197265 1.6591795-1.7197265h12.68164c0.919035 0 1.65918 0.7671352 1.65918 1.7197265v-0.5c0-0.9525913-0.740145-1.7197266-1.65918-1.7197266z" style="fill:#ffffff;opacity:.2"/>
 <path d="m 19,16 v 0 H 14.659178 C 13.742987,16 13,16.770081 13,17.719727 V 22 Z" style="fill:#5edfbf"/>
 <path d="m20.011719 6.7108607c0.140252-0.1402525 0.323907-0.2109375 0.507812-0.2109375 0.183906 0 0.36756 0.070685 0.507813 0.2109375l0.761718 0.7617187c0.280506 0.2805049 0.280506 0.7351199 0 1.015625l-7.617187 7.6171876-1.775391-1.779297v2e-3m1.775391 1.777297-1.085937 0.197265-1.085938 0.197266 0.197266-1.085938 0.199218-1.08589 7.615235-7.6172343 1.777343 1.7773437" style="opacity:.2"/>
 <path d="m19.504207 6.7180927 0.507715-0.5077139c0.280505-0.2805049 0.735623-0.2805049 1.016128 0l0.761571 0.7615709c0.280505 0.2805048 0.280505 0.7356239 0 1.0161291l-0.507712 0.5077138c-0.280505 0.2805053-0.735625 0.2805053-1.01613 0l-0.761572-0.7615709c-0.280504-0.2805048-0.280504-0.7356243 0-1.016129z" style="fill:#999999"/>
 <path d="m13.086256 15.802244-0.8885-0.888499 0.197756-1.086256 1.776999 1.776999z" style="fill:#c4c4c4"/>
 <path d="m12 16 0.197756-1.086255 0.8885 0.888499z" fill="#424048"/>
 <path d="m18.996414 7.2261145-6.600586 6.6005855 0.456957 0.456956 0.05056 0.05151 0.762219 0.761282 0.506585 0.508458 6.601521-6.6015222-0.511266-0.5037752-0.76222-0.7612819 9.53e-4 -9.524e-4z" style="fill:#999999"/>
 <path d="m18.996495 7.2258064 0.507712-0.5077137 1.777702 1.7776999-0.508417 0.5077138z" style="fill:#c4c4c4"/>
 <path d="m19 16h-4.340822c-0.916191 0-1.659178 0.773987-1.659178 1.719727v0.500273c0-0.949251 0.737432-1.72 1.659-1.72h3.841z" style="fill:#fefefe;opacity:.2"/>
</svg>
