<svg xmlns="http://www.w3.org/2000/svg" width="24" height="24" version="1">
 <rect style="opacity:0.2" width="20" height="20" x="2" y="2.5" rx="6" ry="6"/>
 <rect style="fill:#4f4f4f" width="20" height="20" x="2" y="2" rx="6" ry="6"/>
 <path style="opacity:0.2" d="M 16.25,4.75 15.720703,5.71875 14.75,6.25 15.720703,6.78125 16.25,7.75 16.779297,6.78125 17.75,6.25 16.779297,5.71875 Z M 12,5.5 c -3.859779,0 -7,3.1401332 -7,7 0,3.859778 3.140221,7 7,7 3.859778,0 7,-3.140222 7,-7 h -0.599609 c 0,3.529307 -2.870994,6.400391 -6.400391,6.400391 C 8.4706032,18.900391 5.5996094,16.029397 5.5996094,12.5 5.5996094,8.9705155 8.4706032,6.0996094 12,6.0996094 Z M 13.75,5.75 13.572266,6.0722656 13.25,6.25 13.572266,6.4277344 13.75,6.75 13.927734,6.4277344 14.25,6.25 13.927734,6.0722656 Z M 12,7.5 C 11.91984,7.5 11.840964,7.50214 11.761719,7.50586 9.1990463,7.6264799 7.141234,9.6769321 7.0078125,12.236328 7.0032625,12.323878 7,12.411306 7,12.5 c 0,2.761471 2.238528,5 5,5 0.03619,0 0.07138,-0.0012 0.107422,-0.002 C 14.818832,17.440437 17,15.225202 17,12.5 17,12.368026 16.992482,12.236805 16.982422,12.107422 16.782328,9.5292819 14.629345,7.5 12,7.5 Z M 17.75,7.75 17.396484,8.3964844 16.75,8.75 17.396484,9.1035156 17.75,9.75 18.103516,9.1035156 18.75,8.75 18.103516,8.3964844 Z m 0.75,2.5 -0.265625,0.484375 L 17.75,11 18.234375,11.265625 18.5,11.75 18.765625,11.265625 19.25,11 18.765625,10.734375 Z m -3.666016,3.515625 c 0.299553,0.121929 0.536548,0.113907 0.638672,0.101563 -0.102124,0.0124 -0.339119,0.02044 -0.638672,-0.101563 z m -6.3789059,0.02734 c 0.0176,0.0018 0.027344,0.002 0.027344,0.002 v 0.002 c 0,0 -0.00966,-0.0021 -0.027344,-0.0039 z m 0,0 c -0.01768,0.0018 -0.027344,0.0039 -0.027344,0.0039 v -0.002 c 0,0 0.00966,-1.53e-4 0.027344,-0.002 z"/>
 <path style="opacity:0.1;fill:#ffffff" d="M 8,2 C 4.676,2 2,4.676 2,8 v 0.5 c 0,-3.324 2.676,-6 6,-6 h 8 c 3.324,0 6,2.676 6,6 V 8 C 22,4.676 19.324,2 16,2 Z"/>
 <path style="fill:#ffffff" d="M 16.25 4.25 L 15.720703 5.21875 L 14.75 5.75 L 15.720703 6.28125 L 16.25 7.25 L 16.779297 6.28125 L 17.75 5.75 L 16.779297 5.21875 L 16.25 4.25 z M 12 5 C 8.140221 5 5 8.1401332 5 12 C 5 15.859778 8.140221 19 12 19 C 15.859778 19 19 15.859778 19 12 L 18.400391 12 C 18.400391 15.529307 15.529397 18.400391 12 18.400391 C 8.4706032 18.400391 5.5996094 15.529397 5.5996094 12 C 5.5996094 8.4705155 8.4706032 5.5996094 12 5.5996094 L 12 5 z M 13.75 5.25 L 13.572266 5.5722656 L 13.25 5.75 L 13.572266 5.9277344 L 13.75 6.25 L 13.927734 5.9277344 L 14.25 5.75 L 13.927734 5.5722656 L 13.75 5.25 z M 17.75 7.25 L 17.396484 7.8964844 L 16.75 8.25 L 17.396484 8.6035156 L 17.75 9.25 L 18.103516 8.6035156 L 18.75 8.25 L 18.103516 7.8964844 L 17.75 7.25 z M 18.5 9.75 L 18.234375 10.234375 L 17.75 10.5 L 18.234375 10.765625 L 18.5 11.25 L 18.765625 10.765625 L 19.25 10.5 L 18.765625 10.234375 L 18.5 9.75 z"/>
 <path style="fill:#0092ee" d="m 11.967845,11.965979 c 0,0 -0.711836,-0.131136 -1.339398,-0.224783 -0.627486,-0.09365 -1.3135685,0.06789 -1.4892035,0.271644 -0.175635,0.203676 0.2317925,0.590073 0.323153,0.744602 0.091285,0.154528 0.042135,0.175558 -0.119401,0.323077 -0.134946,0.123211 -0.682653,0.190874 -0.859736,0.209847 v 0.0056 c 0,0 -0.010285,-10e-4 -0.027965,-0.0028 -0.01768,0.0018 -0.02789,0.0028 -0.02789,0.0028 v -0.0056 C 8.250322,13.271391 7.7026145,13.20373 7.567669,13.080519 7.4061305,12.933 7.356907,12.91197 7.4482675,12.757442 7.539552,12.602913 7.94698,12.216516 7.771421,12.01284 7.664059,11.888333 7.365746,11.779905 7.0070085,11.735558 c -0.00455,0.08755 -0.00701,0.175711 -0.00701,0.264405 0,2.761471 2.2385285,5.000076 5.0000005,5.000076 0.03619,0 0.07193,-0.002 0.107971,-0.0028 0.148128,-0.553726 0.341288,-1.503299 0.0017,-1.738368 -0.487054,-0.337174 -1.039638,0.02811 -1.039638,0.02811 0,0 -0.393408,0.21541 -0.590073,-0.0094 -0.196742,-0.224783 -0.234155,-0.580701 -0.215487,-0.824152 0.01875,-0.243527 0.224859,-0.908578 0.599446,-0.74003 0.374663,0.168702 1.122312,0.298466 1.283165,0.09372 0.412152,-0.524543 -0.179217,-1.841235 -0.179217,-1.841235"/>
 <path style="fill:#bee34a" d="m 11.967845,11.965979 c 0,0 2.623859,-0.781329 2.773587,-0.03208 0.149957,0.749325 -0.786663,0.786814 -0.224706,1.161477 0.445603,0.296942 0.81958,0.287798 0.955745,0.271339 v -0.0091 c 0,0 0.01028,0.0024 0.02781,0.0053 0.01768,-0.0028 0.02797,-0.0053 0.02797,-0.0053 v 0.0091 c 0.136165,0.01654 0.510141,0.02568 0.955744,-0.271339 0.561956,-0.374663 -0.374663,-0.412152 -0.224782,-1.161477 0.04823,-0.240937 0.344488,-0.32384 0.724104,-0.325669 -0.200094,-2.57814 -2.353968,-4.6082685 -4.983313,-4.6082685 -0.08016,0 -0.15971,0.0023 -0.238955,0.00602 -0.110791,0.4317345 -0.20299,1.0445145 0.04754,1.363401 0.160929,0.2048185 0.908578,0.074902 1.283165,-0.093723 0.374663,-0.168549 0.5807,0.4964265 0.599445,0.7399535 0.01867,0.243527 -0.01874,0.599445 -0.21541,0.8242275 -0.196666,0.2247825 -0.590073,0.00938 -0.590073,0.00938 0,0 -0.552584,-0.3652905 -1.039638,-0.028115 -0.487054,0.3371735 0.121763,2.1448815 0.121763,2.1448815"/>
 <path style="fill:#f15976" d="m 7.4482695,12.757365 c -0.091285,0.154529 -0.042135,0.175635 0.1194015,0.323154 0.1349455,0.123135 0.682653,0.190798 0.859736,0.209771 v 0.0056 c 0,0 0.010285,-10e-4 0.027965,-0.0028 0.0176,0.0018 0.02789,0.0028 0.02789,0.0028 v -0.0056 C 8.6603445,13.27131 9.208052,13.20365 9.3429975,13.080519 9.504536,12.933 9.5537595,12.911894 9.462399,12.757365 9.3711145,12.602837 8.9636865,12.21644 9.1392455,12.012764 c 0.175635,-0.203752 0.8617175,-0.365291 1.4892795,-0.271644 0.627486,0.09365 1.339323,0.224782 1.339323,0.224782 0,0 -0.608818,-1.807632 -0.121764,-2.1448815 0.48713,-0.337174 1.039714,0.028115 1.039714,0.028115 0,0 0.393408,0.2154105 0.590073,-0.00937 C 13.672613,9.614983 13.70995,9.2590645 13.691282,9.0155375 13.672612,8.77201 13.466499,8.107035 13.091912,8.27566 12.717249,8.444209 11.9696,8.574049 11.808747,8.3693065 11.55821,8.0504205 11.650409,7.4377165 11.761122,7.005982 9.1984495,7.1266025 7.1405085,9.176085 7.007087,11.735481 c 0.3587375,0.04434 0.6570505,0.152776 0.7644125,0.277282 0.175559,0.203676 -0.231945,0.59015 -0.3232295,0.744602"/>
 <path style="fill:#10e7c4" d="m 17,11.999963 c 0,-0.131974 -0.0067,-0.262348 -0.01676,-0.391731 -0.379539,0.0019 -0.675795,0.08473 -0.724028,0.325668 -0.149804,0.749325 0.786815,0.786738 0.224783,1.161401 -0.445603,0.297094 -0.81958,0.287874 -0.955745,0.271415 v -0.0091 c 0,0 -0.01037,0.0023 -0.02789,0.0052 -0.0176,-0.0029 -0.02789,-0.0052 -0.02789,-0.0052 v 0.0091 c -0.136165,0.01653 -0.510142,0.02576 -0.955745,-0.271415 -0.561956,-0.374663 0.374663,-0.412076 0.224783,-1.161401 -0.149881,-0.74925 -2.773664,0.03208 -2.773664,0.03208 0,0 0.591369,1.316692 0.179217,1.841159 -0.160853,0.204818 -0.908502,0.07498 -1.283165,-0.09365 -0.374663,-0.168626 -0.580701,0.496426 -0.599446,0.739953 -0.01874,0.243527 0.01875,0.599446 0.21541,0.824152 0.196742,0.224782 0.590074,0.0094 0.590074,0.0094 0,0 0.55266,-0.365291 1.039638,-0.02804 0.339612,0.235146 0.146527,1.184642 -0.0016,1.738293 C 14.819382,16.939637 17,14.725192 17,11.99999"/>
</svg>
