<svg xmlns="http://www.w3.org/2000/svg" width="24" height="24" version="1">
 <rect style="fill:#4f4f4f" width="20" height="20" x="2" y="2" rx="1" ry="1"/>
 <path style="opacity:0.1;fill:#ffffff" d="M 3,2 C 2.446,2 2,2.446 2,3 l 0,0.5 c 0,-0.554 0.446,-1 1,-1 l 18,0 c 0.554,0 1,0.446 1,1 L 22,3 C 22,2.446 21.554,2 21,2 L 3,2 Z"/>
 <path style="opacity:0.2" d="m 3,22.5 c -0.554,0 -1,-0.446 -1,-1 L 2,21 c 0,0.554 0.446,1 1,1 l 18,0 c 0.554,0 1,-0.446 1,-1 l 0,0.5 c 0,0.554 -0.446,1 -1,1 l -18,0 z"/>
 <path style="opacity:0.2" d="m 21,3.5 h -2 v 2 h 2 z m 0,16 h -2 v 2 h 2 z m -4,-16 h -2 v 2 h 2 z m 0,16 h -2 v 2 h 2 z m -4,-16 h -2 v 2 h 2 z m 0,16 h -2 v 2 h 2 z M 9,3.5 H 7 v 2 h 2 z m 0,16 H 7 v 2 H 9 Z M 5,3.5 H 3 v 2 h 2 z m 0,16 H 3 v 2 h 2 z"/>
 <path style="fill:#ffffff" d="m 21,3 h -2 v 2 h 2 z m 0,16 h -2 v 2 h 2 z M 17,3 h -2 v 2 h 2 z m 0,16 h -2 v 2 h 2 z M 13,3 h -2 v 2 h 2 z m 0,16 h -2 v 2 h 2 z M 9,3 H 7 V 5 H 9 Z M 9,19 H 7 v 2 H 9 Z M 5,3 H 3 V 5 H 5 Z M 5,19 H 3 v 2 h 2 z"/>
 <path style="opacity:0.2" d="m 11.500022,12.833038 c -0.96178,1.5941 -3.0918998,2.1402 -4.7577998,1.2199 -1.666,-0.92048 -2.2365,-2.9589 -1.275,-4.5529012 z"/>
 <path style="fill:#beff4c" d="m 11.500022,12.333038 c -0.96178,1.5941 -3.0918998,2.1402 -4.7577998,1.2199 -1.666,-0.92048 -2.2365,-2.9589 -1.275,-4.5529003 z"/>
 <path style="opacity:0.2" d="m 12.500022,12.833038 c 0.96178,1.5941 3.0919,2.1402 4.7578,1.2199 1.666,-0.92048 2.2364,-2.9589 1.275,-4.5529012 z"/>
 <path style="fill:#beff4c" d="m 12.500022,12.333038 c 0.96178,1.5941 3.0919,2.1402 4.7578,1.2199 1.666,-0.92048 2.2364,-2.9589 1.275,-4.5529003 z"/>
 <path style="fill:#2c2c2c" d="m 8.3998222,10.620038 c -0.34249,0.88398 -0.194,2.0024 0.57999,3.3429 0.002,-5e-4 0.004,0 0.006,0 -0.432,-0.979 -0.372,-2.053 0.0605,-2.985 l -0.6465,-0.358 z"/>
 <path style="fill:#2c2c2c" d="m 15.601022,10.620038 -0.64648,0.35749 c 0.43249,0.93198 0.49249,2.006 0.0605,2.9854 0.002,0 0.004,-5e-4 0.006,0 0.77398,-1.3405 0.92248,-2.4589 0.57999,-3.3429 z"/>
</svg>
