<svg xmlns="http://www.w3.org/2000/svg" width="24" height="24" version="1">
 <rect style="opacity:0.2" width="20" height="20" x="2" y="2.5" rx="1" ry="1"/>
 <rect style="fill:#3f3f3f" width="20" height="20" x="2" y="2" rx="1" ry="1"/>
 <path style="opacity:0.2" d="M 7.5,6 H 12 L 16.349609,12.5 12,19 H 7.5 l 4.34961,-6.5 z"/>
 <path fill="#ffffff" style="opacity:0.1" d="M 3,2 C 2.446,2 2,2.446 2,3 v 0.5 c 0,-0.554 0.446,-1 1,-1 h 18 c 0.554,0 1,0.446 1,1 V 3 C 22,2.446 21.554,2 21,2 Z"/>
 <path style="fill:#606060" d="M 7.5,5.5 H 12 L 16.349609,12 12,18.5 H 7.5 L 11.84961,12 Z"/>
 <path style="fill:#ffb81b" d="m 7.85,6 1.989,3 h 0.706899 L 10.265625,8.5 h 0.919922 L 11.465821,9 h -0.900392 l 1.685547,2.5 H 13 l 0.34961,0.5 -1.949219,3 h -0.826172 l -2.007813,3 h 2.995118 l 0.646484,-1 H 11.5 l 0.299805,-0.5 H 12.53125 L 13.5,15 h -0.700195 l 0.314453,-0.5 H 14.659 L 16.349609,12 H 14.84961 L 14.5,11.5 h 0.84961 L 13.700196,9 H 13 L 11,6 H 9.4746095 l 0.325195,0.5 H 9 L 8.6796875,6 Z"/>
 <path style="opacity:0.1;fill:#ffffff" d="M 7.5,5.5 7.834961,6 H 12 L 16.182617,12.25 16.349609,12 12,5.5 Z M 11.682617,12.25 7.5,18.5 h 0.334961 l 4.014649,-6 z"/>
</svg>
