<svg xmlns="http://www.w3.org/2000/svg" width="24" height="24" version="1.1">
 <circle style="opacity:0.2" cx="12" cy="12.5" r="10"/>
 <circle style="fill:#4f4f4f" cx="12" cy="12" r="10"/>
 <path style="font-variation-settings:normal;opacity:0.2;stop-color:#000000" class="st3" d="m 10.926903,13.766598 v 2.568894 h 2.11142 v -2.604084 c -0.351903,0.03519 -0.703806,0.03519 -1.055709,0.07038 -0.351904,0 -0.703807,0 -1.055711,-0.03519 z m 0,-1.513184 c 0,-0.633426 -0.105571,-1.05571 -0.246332,-1.337233 v 0 0 C 10.504619,10.634659 10.187907,10.493897 9.7656226,10.493897 v 0 0 c -0.1407615,0 -0.2815229,0 -0.422284,0.03519 v 0 0 c -0.1407613,0 -0.2815227,0.03519 -0.422284,0.03519 v 0 1.372423 C 8.7099125,11.901511 8.4635801,11.83113 8.2524384,11.760749 7.7597736,11.619988 7.2671091,11.479227 6.8096348,11.303275 v -2.2169909 0 c 0.1759516,-0.03519 0.3870935,-0.105571 0.6334258,-0.1407614 v 0 0 C 7.6893929,8.9103328 7.9357253,8.8399515 8.2172479,8.8047613 v 0 0 c 0.2815227,-0.03519 0.5630453,-0.07038 0.844568,-0.1055713 v 0 0 C 9.3433386,8.664 9.6248611,8.664 9.9063838,8.664 v 0 0 c 0.5278552,0 0.9853292,0.070381 1.3020422,0.2111421 v 0 0 c 0.351903,0.1407614 0.598236,0.3167129 0.844568,0.4926645 v 0 0 C 12.369707,9.1566646 12.68642,8.980713 13.108703,8.8399518 v 0 0 C 13.495797,8.7343805 13.847701,8.664 14.199604,8.664 v 0 0 c 0.598237,0 1.0909,0.070381 1.477994,0.2463323 v 0 0 c 0.387095,0.1759517 0.703807,0.3870936 0.914949,0.7038067 v 0 0 c 0.14076,0.2111421 0.281522,0.457474 0.351905,0.703807 -0.07037,0.03519 -0.175954,0.105571 -0.246334,0.140761 -0.03519,0.03519 -0.105575,0.07038 -0.14076,0.105571 -0.03519,0.03519 -0.07038,0.105571 -0.07038,0.175952 0,0.07038 0.03519,0.175952 0.105575,0.211142 0.03519,0.03519 0.07037,0.03519 0.105575,0.07038 0.03519,0 0.07038,0 0.105575,0 0,0 0.03519,0 0.03519,0 v 0 c 0,0 0,0 0,0 0.07037,0 0.14076,0 0.211142,-0.03519 0,0.105571 0.03519,0.246333 0.03519,0.351904 -0.246332,0.105571 -0.492665,0.175951 -0.774189,0.246332 -0.422298,0.140762 -0.879772,0.246333 -1.337247,0.351904 -0.03519,-0.492665 -0.10557,-0.844568 -0.246332,-1.0909 v 0 0 c -0.175918,-0.281525 -0.49263,-0.422286 -0.914914,-0.422286 v 0 0 c -0.105575,0 -0.281522,0.03519 -0.457474,0.07038 v 0 0 c -0.211142,0.07038 -0.387095,0.14076 -0.492665,0.211141 v 0 0 c 0.07039,0.211142 0.105575,0.457475 0.140762,0.703807 v 0 0 c 0.03519,0.246332 0.03519,0.492665 0.03519,0.774187 v 0 0.03519 c -0.281522,0.03519 -0.598236,0.03519 -0.879758,0.03519 -0.422284,0.07038 -0.809378,0.03519 -1.231662,0 z m -1.9706581,1.126091 v 2.955987 H 6.844825 v -3.765365 c 0.3519033,0.175952 0.6686163,0.316713 1.0205196,0.457474 0.3519033,0.140761 0.7038066,0.281523 1.0909003,0.351904 z m 8.1641581,-0.844568 v 3.800555 h -2.111421 v -2.955987 c 0.07038,-0.03519 0.14076,-0.03519 0.211142,-0.07038 0.281523,-0.07038 0.527854,-0.175951 0.809378,-0.281522 0.246332,-0.105572 0.527855,-0.211142 0.774187,-0.316713 0.105575,-0.03519 0.211143,-0.105571 0.316714,-0.175951 z"/>
 <path style="font-variation-settings:normal;opacity:0.2;fill-rule:evenodd;stop-color:#000000" class="st4" d="m 18.03535,11.760749 c -1.653945,1.196472 -4.011697,1.865088 -6.052736,1.865088 -2.8856077,0 -5.4545021,-1.05571 -7.4251605,-2.815227 -0.1407615,-0.140761 0,-0.316713 0.1759516,-0.211142 2.1114199,1.231662 4.7155044,1.970659 7.4251599,1.970659 1.829897,0 3.800557,-0.387094 5.665644,-1.161281 0.246331,-0.175952 0.492665,0.140761 0.211141,0.351903 m 0.703807,-0.809377 c -0.211142,-0.281523 -1.372423,-0.140762 -1.900278,-0.07038 -0.175951,0.03519 -0.175951,-0.105571 -0.03519,-0.211142 0.950139,-0.668617 2.463324,-0.457475 2.639277,-0.246332 0.175951,0.211141 -0.03519,1.759516 -0.91495,2.498513 -0.14076,0.105571 -0.281523,0.07038 -0.211141,-0.105571 0.175951,-0.457475 0.633424,-1.583565 0.422283,-1.865088"/>
 <path style="fill:#e4e4e4" class="st3" d="m 10.926903,13.266852 v 2.568894 h 2.11142 v -2.604084 c -0.351903,0.03519 -0.703806,0.03519 -1.055709,0.07038 -0.351904,0 -0.703807,0 -1.055711,-0.03519 z m 0,-1.513184 c 0,-0.633426 -0.105571,-1.05571 -0.246332,-1.337233 v 0 0 C 10.504619,10.134913 10.187907,9.9941513 9.7656226,9.9941513 v 0 0 c -0.1407615,0 -0.2815229,0 -0.422284,0.03519 v 0 0 c -0.1407613,0 -0.2815227,0.03519 -0.422284,0.03519 v 0 1.372423 C 8.7099125,11.401764 8.4635801,11.331384 8.2524384,11.261003 7.7597736,11.120242 7.2671091,10.97948 6.8096348,10.803529 v -2.2169911 0 c 0.1759516,-0.03519 0.3870935,-0.105571 0.6334258,-0.1407614 v 0 0 C 7.6893929,8.4105866 7.9357253,8.3402053 8.2172479,8.3050151 v 0 0 c 0.2815227,-0.03519 0.5630453,-0.07038 0.844568,-0.1055713 v 0 0 c 0.2815227,-0.03519 0.5630452,-0.03519 0.8445679,-0.03519 v 0 0 c 0.5278552,0 0.9853292,0.070381 1.3020422,0.2111421 v 0 0 c 0.351903,0.1407614 0.598236,0.3167129 0.844568,0.4926645 v 0 0 c 0.316713,-0.211142 0.633426,-0.3870936 1.055709,-0.5278548 v 0 0 c 0.387094,-0.1055713 0.738998,-0.1759518 1.090901,-0.1759518 v 0 0 c 0.598237,0 1.0909,0.070381 1.477994,0.2463323 v 0 0 c 0.387095,0.1759517 0.703807,0.3870936 0.914949,0.7038067 v 0 0 c 0.14076,0.2111421 0.281522,0.4574743 0.351905,0.7038067 -0.07037,0.03519 -0.175954,0.1055712 -0.246334,0.1407613 -0.03519,0.03519 -0.105575,0.07038 -0.14076,0.1055712 -0.03519,0.03519 -0.07038,0.105571 -0.07038,0.175952 0,0.07038 0.03519,0.175951 0.105575,0.211142 0.03519,0.03519 0.07037,0.03519 0.105575,0.07038 0.03519,0 0.07038,0 0.105575,0 0,0 0.03519,0 0.03519,0 v 0 c 0,0 0,0 0,0 0.07037,0 0.14076,0 0.211142,-0.03519 0,0.105571 0.03519,0.246332 0.03519,0.351903 -0.246332,0.105572 -0.492665,0.175952 -0.774189,0.246333 -0.422298,0.140762 -0.879772,0.246333 -1.337247,0.351904 -0.03519,-0.492665 -0.10557,-0.844568 -0.246332,-1.090901 v 0 0 C 14.551538,10.064532 14.234826,9.9237706 13.812542,9.9237706 v 0 0 c -0.105575,0 -0.281522,0.03519 -0.457474,0.070381 v 0 0 c -0.211142,0.07038 -0.387095,0.1407604 -0.492665,0.2111414 v 0 0 c 0.07039,0.211142 0.105575,0.457474 0.140762,0.703807 v 0 0 c 0.03519,0.246332 0.03519,0.492664 0.03519,0.774187 v 0 0.03519 c -0.281522,0.03519 -0.598236,0.03519 -0.879758,0.03519 -0.422284,0.07038 -0.809378,0.03519 -1.231662,0 z m -1.9706581,1.12609 v 2.955988 H 6.844825 v -3.765365 c 0.3519033,0.175951 0.6686163,0.316713 1.0205196,0.457474 0.3519033,0.140761 0.7038066,0.281523 1.0909003,0.351903 z M 17.120403,12.03519 v 3.800556 h -2.111421 v -2.955988 c 0.07038,-0.03519 0.14076,-0.03519 0.211142,-0.07038 0.281523,-0.07038 0.527854,-0.175951 0.809378,-0.281522 0.246332,-0.105572 0.527855,-0.211142 0.774187,-0.316713 0.105575,-0.03519 0.211143,-0.105572 0.316714,-0.175953 z"/>
 <path style="fill:#e97e10;fill-rule:evenodd" class="st4" d="m 18.03535,11.261003 c -1.653945,1.196471 -4.011697,1.865088 -6.052736,1.865088 -2.8856077,0 -5.4545021,-1.05571 -7.4251605,-2.815227 -0.1407615,-0.140761 0,-0.3167127 0.1759516,-0.211142 2.1114199,1.231662 4.7155044,1.970659 7.4251599,1.970659 1.829897,0 3.800557,-0.387094 5.665644,-1.161281 0.246331,-0.175952 0.492665,0.140761 0.211141,0.351903 m 0.703807,-0.809377 c -0.211142,-0.281523 -1.372423,-0.140762 -1.900278,-0.07038 -0.175951,0.03519 -0.175951,-0.105572 -0.03519,-0.211142 0.950139,-0.6686167 2.463324,-0.4574748 2.639277,-0.2463327 0.175951,0.2111417 -0.03519,1.7595167 -0.91495,2.4985137 -0.14076,0.105571 -0.281523,0.07038 -0.211141,-0.105571 0.175951,-0.457475 0.633424,-1.583566 0.422283,-1.865088"/>
 <path style="opacity:0.2;fill:#ffffff" d="M 12,2 A 10,10 0 0 0 2,12 10,10 0 0 0 2.0098,12.293 10,10 0 0 1 12,2.5 10,10 0 0 1 21.99,12.207 10,10 0 0 0 22,12 10,10 0 0 0 12,2 Z"/>
</svg>
