<svg width="24" height="24" version="1" xmlns="http://www.w3.org/2000/svg">
 <path d="m15 4.0001092h4c0.252654 0 1 0.086216 1 0.999994v3.4999789c0 0.4370344-0.02761 0.9475063-0.5 0.999994h-4.5z" style="fill:#21d789"/>
 <path d="m3 2.5c-0.471433 0-1 0.5285698-1 1v11c0 0.471401 0.5527867 0.85093 1 1l1.9414062 0.646484-0.4414062 0.353516c-0.47654 0.635383-0.5 0.434918-0.5 1.5v3.5c0 0.471401 0.528595 1 1 1h4.5l10.5-1.5c0.824958-0.117851 2-0.346361 2-1.5v-5.5c0-0.729727-0.329778-0.994652-1-2l-6-9c-0.225956-0.3389312-0.627322-0.5-1-0.5z" style="opacity:.2"/>
 <path d="m7 7h11l3 4.500064c0.670222 1.005348 1 1.270261 1 1.999988v5.499967c0 1.153639-1.175042 1.38214-2 1.499991l-10.5 1.49999h-4.5c-0.471405 0-1-0.528592-1-0.999993v-3.499979c0-1.065082 0.02346-0.864608 0.5-1.499991l2.5-2.000037z" style="fill:#f7c73c"/>
 <path d="m3 2.0000002h11c0.372678 0 0.774044 0.161066 1 0.4999972l3 4.5000026v9l-12 3.7e-5 -3-0.999994c-0.4472133-0.14907-1-0.528593-1-0.999994v-10.999934c0-0.4714302 0.528567-1.0001151 1-1.0001151z" style="fill:#2cbfeb"/>
 <path d="m6 6h12v12h-12z" style="fill:#3f3f3f"/>
 <path d="m7 15.5h5v1h-5z" style="opacity:.2"/>
 <path d="m7 15h5v1h-5z" style="fill:#ffffff"/>
 <path d="m13.5 7.5c-1.380712 0-2.5 1.1192881-2.5 2.5 0 1.380712 1.119288 2.5 2.5 2.5 1.187877-1.29e-4 2.262425-0.836122 2.5-2h-1c-0.211873 0.599267-0.864381 0.999936-1.5 1-0.828427 0-1.5-0.671573-1.5-1.5 0-0.8284269 0.671573-1.4999999 1.5-1.4999999 0.635619 6.4e-5 1.288127 0.4007325 1.5 1h1c-0.237575-1.163878-1.312123-1.999872-2.5-2.0000001z" style="opacity:.2"/>
 <path d="m7 7.5v5h1v-1.5c2.010028 0 2.500334-0.844988 2.5-1.75 3.34e-4 -0.9050114-0.505598-1.743164-2.5-1.743164v-0.0068zm1 1.0000001c1.092153 0 1.499794 0.1975305 1.499999 0.75 0 0.5525085-0.39598 0.7499999-1.499999 0.7499999z" style="opacity:.2"/>
 <path d="m13.5 7c-1.380712 0-2.5 1.1192881-2.5 2.5000001 0 1.3807119 1.119288 2.4999999 2.5 2.4999999 1.187877-1.29e-4 2.262425-0.836122 2.5-2h-1c-0.211873 0.599267-0.864381 0.999936-1.5 1-0.828427 0-1.5-0.671573-1.5-1.4999999 0-0.828427 0.671573-1.5 1.5-1.5 0.635619 6.4e-5 1.288127 0.4007325 1.5 1h1c-0.237575-1.1638781-1.312123-1.999872-2.5-2.0000001z" style="fill:#ffffff"/>
 <path d="m7 7v5h1v-1.5c2.010028 0 2.500334-0.8449885 2.5-1.75 3.34e-4 -0.9050115-0.505598-1.743164-2.5-1.743164v-0.0068zm1 1.0000001c1.092153 0 1.499794 0.1975305 1.499999 0.75 0 0.5525085-0.39598 0.75-1.499999 0.75z" style="fill:#ffffff"/>
 <path d="m3 2c-0.471433 0-1 0.529-1 1v0.5c0-0.4714302 0.528567-1 1-1h11c0.372678 0 0.774044 0.1610688 1 0.5l2 3h0.333984l-2.333984-3.5c-0.225956-0.339-0.627322-0.5-1-0.5h-11z" style="fill:#ffffff;opacity:.2"/>
 <path d="m18 7v0.5l3 4.5c0.670222 1.005348 1 1.270273 1 2v-0.5c0-0.729727-0.329778-0.994652-1-2l-3-4.5z" style="fill:#ffffff;opacity:.2"/>
 <path d="m16 4 0.333984 0.5h2.666016c0.252654 0 1 0.086222 1 1v-0.5c0-0.913778-0.747346-1-1-1h-3z" style="fill:#ffffff;opacity:.2"/>
</svg>
