<svg xmlns="http://www.w3.org/2000/svg" width="24" height="24" version="1.1">
 <rect style="opacity:0.200191;fill-opacity:1;stroke-width:0.5" width="20" height="20" x="2" y="2.5" rx="1" ry="1"/>
 <rect style="fill:#eef4f7;fill-opacity:1;stroke-width:0.5" width="20" height="20" x="2" y="2" rx="1" ry="1"/>
 <path fill="#ffffff" style="opacity:0.2;stroke-width:0.5" d="M 3,2 C 2.446,2 2,2.4460001 2,3.0000001 V 3.5 C 2,2.9460001 2.446,2.5000001 3,2.5000001 h 18 c 0.554,0 1,0.446 1,0.9999999 V 3.0000001 C 22,2.4460001 21.554,2 21,2 Z"/>
 <path style="opacity:0.199585;fill:none;fill-opacity:1;stroke:#000000;stroke-width:1.14286;stroke-linecap:round;stroke-opacity:1" d="M 5.2759275,9.257142 H 7.561641 m 0,2.285714 V 6.9714275 M 5.2759275,11.542856 V 6.9714275"/>
 <path style="opacity:0.199585;fill:none;fill-opacity:1;stroke:#000000;stroke-width:0.761905;stroke-linecap:round;stroke-linejoin:round;stroke-opacity:1" d="m 9.949055,10.590475 h 1.523809 M 9.949055,11.733332 V 9.4476175 c 0,0 0,-0.761904 0.761905,-0.761904 0.761904,0 0.761904,0.761904 0.761904,0.761904 v 2.2857145"/>
 <path style="opacity:0.199585;fill:none;fill-opacity:1;stroke:#000000;stroke-width:0.761905;stroke-linecap:round;stroke-linejoin:round;stroke-opacity:1" d="m 13.669802,11.35238 c 0,0 0.190474,0.380952 0.761904,0.380952 0.571428,0 0.761905,-0.380952 0.761905,-0.761905 0,-1.5238095 -1.523809,0 -1.523809,-1.5238095 0,-0.380952 0.190474,-0.761904 0.761904,-0.761904 0.571428,0 0.761905,0.380952 0.761905,0.380952"/>
 <path style="opacity:0.199585;fill:none;fill-opacity:1;stroke:#000000;stroke-width:0.761905;stroke-linecap:round;stroke-opacity:1" d="m 17.390522,10.209523 h 1.52381 m 0,1.523809 V 8.6857135 m -1.52381,3.0476185 V 8.6857135"/>
 <path style="opacity:0.199585;fill:none;fill-opacity:1;stroke:#000000;stroke-width:1.14286;stroke-linecap:round;stroke-linejoin:round;stroke-opacity:1" d="m 8.711495,17.447617 c 0,0 0,0.380952 -1.1428575,0.380952 -1.142857,0 -1.142857,-1.149714 -1.142857,-2.285713 0,-1.137142 0,-2.285715 1.142857,-2.285715 1.1428575,0 1.1428575,0.380953 1.1428575,0.380953"/>
 <path style="opacity:0.199585;fill:none;fill-opacity:1;stroke:#000000;stroke-width:0.761905;stroke-linecap:round;stroke-linejoin:round;stroke-opacity:1" d="m 10.332394,16.876189 h 1.52381 m -1.52381,1.142857 v -2.285713 c 0,0 0,-0.761905 0.761904,-0.761905 0.761905,0 0.761905,0.761905 0.761905,0.761905 v 2.285713"/>
 <path style="opacity:0.199585;fill:none;fill-opacity:1;stroke:#000000;stroke-width:0.761905;stroke-linecap:round;stroke-linejoin:round;stroke-opacity:1" d="m 13.286626,14.971428 v 3.047618 h 1.523809"/>
 <path style="opacity:0.199585;fill:none;fill-opacity:1;stroke:#000000;stroke-width:0.761905;stroke-linecap:round;stroke-linejoin:round;stroke-opacity:1" d="m 17.764984,17.638094 c 0,0 0,0.380952 -0.761904,0.380952 -0.761905,0 -0.761905,-0.761904 -0.761905,-1.52381 0,-0.761903 0,-1.523808 0.761905,-1.523808 0.761904,0 0.761904,0.380952 0.761904,0.380952"/>
 <path style="fill:none;stroke:#0051cb;stroke-width:1.14286;stroke-linecap:round;stroke-opacity:1" d="m 5.276035,8.8571425 h 2.2857135 m 0,2.2857135 V 6.571428 M 5.276035,11.142856 V 6.571428"/>
 <path style="fill:none;stroke:#0051cb;stroke-width:0.761905;stroke-linecap:round;stroke-linejoin:round;stroke-opacity:1" d="M 9.9491625,10.190476 H 11.472972 M 9.9491625,11.333332 V 9.047618 c 0,0 0,-0.761904 0.7619055,-0.761904 0.761904,0 0.761904,0.761904 0.761904,0.761904 v 2.285715"/>
 <path style="fill:none;stroke:#0051cb;stroke-width:0.761905;stroke-linecap:round;stroke-linejoin:round;stroke-opacity:1" d="m 13.669909,10.952381 c 0,0 0.190475,0.380952 0.761904,0.380952 0.571429,0 0.761905,-0.380952 0.761905,-0.761905 0,-1.52381 -1.523809,0 -1.523809,-1.52381 0,-0.380952 0.190475,-0.761904 0.761904,-0.761904 0.571429,0 0.761905,0.380952 0.761905,0.380952"/>
 <path style="fill:none;stroke:#0051cb;stroke-width:0.761905;stroke-linecap:round;stroke-opacity:1" d="m 17.39063,9.8095235 h 1.523809 m 0,1.5238085 V 8.285714 M 17.39063,11.333332 V 8.285714"/>
 <path style="fill:none;stroke:#0051cb;stroke-width:1.14286;stroke-linecap:round;stroke-linejoin:round;stroke-opacity:1" d="m 8.7116025,17.047618 c 0,0 0,0.380952 -1.1428575,0.380952 -1.142857,0 -1.142857,-1.149715 -1.142857,-2.285713 0,-1.137143 0,-2.285715 1.142857,-2.285715 1.1428575,0 1.1428575,0.380952 1.1428575,0.380952"/>
 <path style="fill:none;stroke:#0051cb;stroke-width:0.761905;stroke-linecap:round;stroke-linejoin:round;stroke-opacity:1" d="m 10.332501,16.476189 h 1.52381 m -1.52381,1.142858 v -2.285713 c 0,0 0,-0.761906 0.761904,-0.761906 0.761906,0 0.761906,0.761906 0.761906,0.761906 v 2.285713"/>
 <path style="fill:none;stroke:#0051cb;stroke-width:0.761905;stroke-linecap:round;stroke-linejoin:round;stroke-opacity:1" d="m 13.286734,14.571428 v 3.047618 h 1.523809"/>
 <path style="fill:none;stroke:#0051cb;stroke-width:0.761905;stroke-linecap:round;stroke-linejoin:round;stroke-opacity:1" d="m 17.765092,17.238094 c 0,0 0,0.380952 -0.761905,0.380952 -0.761904,0 -0.761904,-0.761904 -0.761904,-1.523809 0,-0.761903 0,-1.523809 0.761904,-1.523809 0.761905,0 0.761905,0.380952 0.761905,0.380952"/>
</svg>
