<svg xmlns="http://www.w3.org/2000/svg" width="24" height="24" version="1.1">
 <g transform="translate(0,-1098.5197)">
  <path style="opacity:0.2" d="m 11,1110.0215 v 3 l 2,1.998 v 0 l 0.0918,0.09 0.908203,0.9102 0.318359,0.3184 0.181641,0.1816 4.5,4.5 h 3 v -3 l -4.5,-4.5 -0.199219,-0.1992 -0.03516,-0.033 -0.267578,-0.2676 -0.998047,-1 -2,-2 z"/>
  <path style="fill:#609a30" d="m 13,1111.5197 v 3 l 1.318359,1.3184 0.181641,0.1816 4.5,4.5 h 3 v -3 l -4.5,-4.5 -0.199219,-0.1992 -0.03516,-0.033 L 16,1111.5197 Z"/>
  <path style="opacity:0.2" d="m 12,1101.0197 a 10,10 0 0 0 -10,10 10,10 0 0 0 10,10 10,10 0 0 0 4.509765,-1.0761 l -2.716796,-2.7168 -0.181641,-0.1817 -0.200195,-0.2002 A 6,6 0 0 1 12,1117.0197 a 6,6 0 0 1 -6,-6 6,6 0 0 1 6,-6 6,6 0 0 1 6,6 6,6 0 0 1 -0.174805,1.4112 l 0.182617,0.1826 0.199219,0.1992 2.709961,2.71 A 10,10 0 0 0 22,1111.0197 a 10,10 0 0 0 -10,-10 z"/>
  <path style="fill:#90ae24" d="m 12,1100.5197 a 10,10 0 0 0 -10,10 10,10 0 0 0 10,10 10,10 0 0 0 4.509765,-1.0762 l -2.716796,-2.7168 -0.181641,-0.1816 -0.200195,-0.2002 A 6,6 0 0 1 12,1116.5197 a 6,6 0 0 1 -6,-6 6,6 0 0 1 6,-6 6,6 0 0 1 6,6 6,6 0 0 1 -0.174805,1.4111 l 0.182617,0.1827 0.199219,0.1992 2.709961,2.7099 A 10,10 0 0 0 22,1110.5197 a 10,10 0 0 0 -10,-10 z"/>
  <path style="fill:#ee7913" transform="translate(0,1098.5197)" d="M 11 11 L 11 14 L 13.091797 16.089844 L 13.091797 13.011719 L 16.011719 13.011719 L 14 11 L 11 11 z"/>
  <path style="fill:#f0e64a" transform="translate(0,1098.5197)" d="M 13 13 L 13 16 L 14 17 L 14 14 L 17 14 L 16 13 L 13 13 z"/>
  <path style="opacity:0.2;fill:#ffffff" transform="translate(0,1098.5197)" d="M 11 11 L 22 22 L 22 19 L 17.5 14.5 L 17.300781 14.300781 L 16.011719 13.011719 L 16 13 L 14 11 L 11 11 z"/>
  <path style="opacity:0.2;fill:#ffffff" d="m 12,1100.5197 a 10,10 0 0 0 -10,10 10,10 0 0 0 0.010742,0.209 10,10 0 0 1 9.989258,-9.709 10,10 0 0 1 9.989258,9.7891 10,10 0 0 0 0.01074,-0.2891 10,10 0 0 0 -10,-10 z m 5.989258,10.1953 a 6,6 0 0 1 -0.164063,1.2158 l 0.08105,0.081 A 6,6 0 0 0 18,1111.0197 6,6 0 0 0 17.98926,1110.715 Z m -11.9794925,0.1016 A 6,6 0 0 0 6,1111.0197 a 6,6 0 0 0 6,6 6,6 0 0 0 1.411133,-0.1748 l 0.200195,0.2002 0.181641,0.1816 2.375,2.375 a 10,10 0 0 0 0.341796,-0.1582 l -2.716796,-2.7168 -0.181641,-0.1816 -0.200195,-0.2002 A 6,6 0 0 1 12,1116.5197 6,6 0 0 1 6.0097655,1110.8166 Z"/>
 </g>
</svg>
