<svg xmlns="http://www.w3.org/2000/svg" width="24" height="24" version="1">
 <rect fill="#4f4f4f" width="20" height="20" x="2" y="2" rx="1" ry="1"/>
 <path fill="#ffffff" opacity="0.1" d="M 3,2 C 2.446,2 2,2.446 2,3 v 0.5 c 0,-0.554 0.446,-1 1,-1 h 18 c 0.554,0 1,0.446 1,1 V 3 C 22,2.446 21.554,2 21,2 Z"/>
 <path opacity="0.2" d="m 3,22.5 c -0.554,0 -1,-0.446 -1,-1 V 21 c 0,0.554 0.446,1 1,1 h 18 c 0.554,0 1,-0.446 1,-1 v 0.5 c 0,0.554 -0.446,1 -1,1 z"/>
 <rect style="fill:#e4e4e4" width="16" height="16" x="4" y="4" rx=".857" ry=".857"/>
 <path style="opacity:0.1" d="m 5.625,5.5 h 3.75 C 9.72125,5.5 10,5.8345 10,6.25 v 5.5 C 10,12.1655 9.72125,12.5 9.375,12.5 H 5.625 C 5.27875,12.5 5,12.1655 5,11.75 V 6.25 C 5,5.8345 5.27875,5.5 5.625,5.5 Z"/>
 <path style="fill:#9e9e9e" d="m 14,5 v 1 h 5 V 5 Z"/>
 <path style="fill:#9e9e9e" d="m 5,17 v 1 h 5 v -1 z"/>
 <path style="fill:#9e9e9e" d="m 14,8 v 1 h 5 V 8 Z"/>
 <path style="fill:#9e9e9e" d="m 5,14 v 1 h 5 v -1 z"/>
 <path style="fill:#9e9e9e" d="m 14,11 v 1 h 5 v -1 z"/>
 <path style="fill:#9e9e9e" d="m 5.625,5 h 3.75 C 9.72125,5 10,5.3345 10,5.75 v 5.5 C 10,11.6655 9.72125,12 9.375,12 H 5.625 C 5.27875,12 5,11.6655 5,11.25 V 5.75 C 5,5.3345 5.27875,5 5.625,5 Z"/>
 <path style="fill:#4d4d4d" d="m 11,5 h 2 v 5 l -1,6 h -1 z"/>
 <path style="fill:#4d4d4d" d="m 11,17 h 1 l 1,2 h -2 z"/>
</svg>
