<svg xmlns="http://www.w3.org/2000/svg" width="24" height="24" version="1.1">
 <circle style="opacity:0.2" cx="12" cy="12.5" r="10"/>
 <circle style="fill:#575757" cx="12" cy="12" r="10"/>
 <circle style="opacity:0.2" cx="12" cy="12.5" r="8"/>
 <path style="opacity:0.1;fill:#ffffff" d="M 12,2 A 10,10 0 0 0 2,12 10,10 0 0 0 2.01075,12.291 10,10 0 0 1 12,2.5 10,10 0 0 1 21.9895,12.209 10,10 0 0 0 22,12 10,10 0 0 0 12,2 Z"/>
 <circle style="fill:#6e6e6e" cx="12" cy="12" r="8"/>
 <circle style="opacity:0.2" cx="12" cy="12.5" r="6"/>
 <circle style="fill:#818181" cx="12" cy="12" r="6"/>
 <circle style="opacity:0.2" cx="12" cy="12.5" r="4"/>
 <circle style="fill:#a4a4a4" cx="12" cy="12" r="4"/>
 <circle style="opacity:0.2" cx="12" cy="12.5" r="2"/>
 <circle style="fill:#e4e4e4" cx="12" cy="12" r="2"/>
 <path style="opacity:0.1;fill:#ffffff" d="M 12,4 A 8,8 0 0 0 4,12 8,8 0 0 0 4.0107422,12.290039 8,8 0 0 1 12,4.5 8,8 0 0 1 19.989258,12.209961 8,8 0 0 0 20,12 8,8 0 0 0 12,4 Z"/>
 <path style="opacity:0.1;fill:#ffffff" d="M 12,6 A 6,6 0 0 0 6,12 6,6 0 0 0 6.00977,12.296875 6,6 0 0 1 12,6.5 6,6 0 0 1 17.990234,12.203125 6,6 0 0 0 18,12 6,6 0 0 0 12,6 Z"/>
 <path style="opacity:0.1;fill:#ffffff" d="M 12,8 A 4,4 0 0 0 8,12 4,4 0 0 0 8.01074,12.288086 4,4 0 0 1 12,8.5 4,4 0 0 1 15.989258,12.211914 4,4 0 0 0 16,12 4,4 0 0 0 12,8 Z"/>
</svg>
