<svg width="24" height="24" version="1.1" xmlns="http://www.w3.org/2000/svg">
 <g transform="translate(.982422 .90234)">
  <path d="m1 13.5s0-12 11-12c9 0 9 14 9 14s0 6-11 6c-8 0-9-8-9-8z" style="opacity:.2"/>
  <path d="m1 13s0-12 11-12c9 0 9 14 9 14s0 6-11 6c-8 0-9-8-9-8z" style="fill:#e04970"/>
  <path d="m5.5 7.5a1.5 2 0 0 0-1.5 2 1.5 2 0 0 0 1.5 2 1.5 2 0 0 0 1.5-2 1.5 2 0 0 0-1.5-2zm12 2a1.5 2 0 0 0-1.5 2 1.5 2 0 0 0 1.5 2 1.5 2 0 0 0 1.5-2 1.5 2 0 0 0-1.5-2zm-9.5 3c-1 1-1 1.5-1 2 0 2.071068 1.9289322 3 4 3 2.071068 0 4-0.928932 4-3-3.19e-4 -0.718579 0-1-1-2-0.586969 0.48707-2 1-3 1-2 0-2.7563851-0.09154-3-1z" style="opacity:.2"/>
  <path d="m8 12c-1 1-1 1.5-1 2 0 2.071068 1.9289322 3 4 3 2.071068 0 4-0.928932 4-3-3.19e-4 -0.718579 0-1-1-2-0.586969 0.48707-2 1-3 1-2 0-2.7563851-0.09154-3-1z" style="fill:#60010d"/>
  <ellipse cx="11.5" cy="15.5" rx="1.5" ry=".5" style="fill:#d52f45"/>
  <ellipse cx="17.5" cy="11" rx="1.5" ry="2" style="fill:#60010d"/>
  <ellipse cx="5.5" cy="9" rx="1.5" ry="2" style="fill:#60010d"/>
  <circle cx="5.5" cy="8.5" r=".5" style="fill:#ffffff"/>
  <circle cx="17.5" cy="10.5" r=".5" style="fill:#ffffff"/>
  <path d="M 12,1 C 1,1 1,13 1,13 1,13 1.014778,13.07813 1.017578,13.09766 1.1120358,11.191005 2.0730069,1.5 12,1.5 c 8.305959,0 8.938887,11.789849 8.988281,13.628906 C 20.990972,15.084908 21,15 21,15 21,15 21,1 12,1 Z" style="fill:#ffffff;opacity:.2"/>
 </g>
</svg>
