<svg xmlns="http://www.w3.org/2000/svg" width="24" height="24" version="1">
 <circle style="opacity:0.2" cx="12" cy="12.5" r="10"/>
 <circle style="fill:#44a2f8" cx="12" cy="12" r="10"/>
 <path style="opacity:0.2" d="M 11.5,5.5 A 1.5,1.5 0 0 0 10,7 1.5,1.5 0 0 0 11,8.4121094 V 9.6015625 A 5,5 0 0 0 7,14.5 a 5,5 0 0 0 5,5 5,5 0 0 0 5,-5 5,5 0 0 0 -2.433594,-4.283203 L 15.169922,9.4628906 A 1.5,1.5 0 0 0 15.5,9.5 1.5,1.5 0 0 0 17,8 1.5,1.5 0 0 0 15.5,6.5 1.5,1.5 0 0 0 14,8 1.5,1.5 0 0 0 14.318359,8.9238281 L 13.634766,9.78125 A 5,5 0 0 0 12,9.5 V 8.4121094 A 1.5,1.5 0 0 0 13,7 1.5,1.5 0 0 0 11.5,5.5 Z m 0.5,6 a 3,3 0 0 1 3,3 3,3 0 0 1 -3,3 3,3 0 0 1 -3,-3 3,3 0 0 1 3,-3 z m 0,1 a 2,2 0 0 0 -2,2 2,2 0 0 0 2,2 2,2 0 0 0 2,-2 A 2,2 0 0 0 13.40625,13.080078 1,1 0 0 1 13.5,13.5 a 1,1 0 0 1 -1,1 1,1 0 0 1 -1,-1 1,1 0 0 1 0.789062,-0.976562 A 2,2 0 0 0 12,12.5 Z"/>
 <path style="opacity:0.2;fill:#ffffff" d="M 12,2 A 10,10 0 0 0 2,12 10,10 0 0 0 2.01075,12.291 10,10 0 0 1 12,2.5 10,10 0 0 1 21.9895,12.209 10,10 0 0 0 22,12 10,10 0 0 0 12,2 Z"/>
 <path style="fill:#ffffff" d="M 11.5 5 A 1.5 1.5 0 0 0 10 6.5 A 1.5 1.5 0 0 0 11 7.9121094 L 11 9.1015625 A 5 5 0 0 0 7 14 A 5 5 0 0 0 12 19 A 5 5 0 0 0 17 14 A 5 5 0 0 0 14.566406 9.7167969 L 15.169922 8.9628906 A 1.5 1.5 0 0 0 15.5 9 A 1.5 1.5 0 0 0 17 7.5 A 1.5 1.5 0 0 0 15.5 6 A 1.5 1.5 0 0 0 14 7.5 A 1.5 1.5 0 0 0 14.320312 8.4257812 L 13.634766 9.28125 A 5 5 0 0 0 12 9 L 12 7.9121094 A 1.5 1.5 0 0 0 13 6.5 A 1.5 1.5 0 0 0 11.5 5 z M 12 11 A 3 3 0 0 1 15 14 A 3 3 0 0 1 12 17 A 3 3 0 0 1 9 14 A 3 3 0 0 1 12 11 z M 12 12 A 2 2 0 0 0 10 14 A 2 2 0 0 0 12 16 A 2 2 0 0 0 14 14 A 2 2 0 0 0 13.40625 12.580078 A 1 1 0 0 1 13.5 13 A 1 1 0 0 1 12.5 14 A 1 1 0 0 1 11.5 13 A 1 1 0 0 1 12.289062 12.023438 A 2 2 0 0 0 12 12 z"/>
</svg>
