<svg width="24" height="24" version="1.1" xmlns="http://www.w3.org/2000/svg">
 <rect transform="rotate(-90)" x="-23" y="1" width="22" height="22" ry="2" style="fill:#e4e4e4"/>
 <path d="m17 18h2v2h-2zm-2 0h2v2h-2zm-3.999999 0h1.999999v2h-2zm-6.000001 0h2v2h-2zm2 0h2.0000001v2h-2.0000001zm2.0000001 0h2.0000009v2h-2.0000009zm3.9999999 0h2v2h-2zm-3.9999999-2h2.0000009v2h-2.0000009zm3.9999999 0h2v2h-2zm4-6h2v2h-2zm-12 0h2v2h-2zm4.0000001 4h2.0000009v2h-2.0000009zm-2.0000001 0h2.0000001v2h-2.0000001zm0-2h2.0000001v2h-2.0000001zm0-2h2.0000001v2h-2.0000001zm0-2h2.0000001v2h-2.0000001zm0-2h2.0000001v2h-2.0000001zm2.0000001 0h2.0000009v2h-2.0000009zm3.9999999 0h2v2h-2zm2 0h2v2h-2zm0 1.9999998h2v2h-2zm0 2.0000002h2v2h-2zm0 4h2v2h-2zm0-2h2v2h-2zm-2 2h2v2h-2zm-2-4h2v2h-2z" style="fill-rule:evenodd;opacity:.2"/>
 <path d="m17 17h2v2h-2zm-2 0h2v2h-2zm-3.999999 0h1.999999v2h-2zm-6.000001 0h2v2h-2zm2 0h2v2h-2zm2 0h2.000001v2h-2.000001zm4 0h2v2h-2zm-4-2h2.000001v2h-2.000001zm4 0h2v2h-2zm4-6h2v2h-2zm-12 0h2v2h-2zm4 4h2.000001v2h-2.000001zm-2 0h2v2h-2zm0-2h2v2h-2zm0-2h2v2h-2zm0-2h2v2h-2zm0-2h2v2h-2zm2 0h2.000001v2h-2.000001zm4 0h2v2h-2zm2 0h2v2h-2zm0 1.9999998h2v2h-2zm0 2.0000002h2v2h-2zm0 4h2v2h-2zm0-2h2v2h-2zm-2 2h2v2h-2zm-2-4h2v2h-2z" style="fill-rule:evenodd;fill:#4f4f4f"/>
</svg>
