<svg width="24" height="24" version="1.1" xmlns="http://www.w3.org/2000/svg">
 <path d="M 11,5.4999999 C 11.548557,3.4597376 13.325616,2.5 16,2.5 c 1.932259,0 3.810875,0.4856149 5,1.5 -0.709646,0.034964 -1.623908,0.4709808 -2,0.9999984 1.071428,0.1209231 1.888293,0.2900234 2.5,1.0000015 -0.461507,-0.082964 -1.073099,-0.1104888 -1.5,0 0.289132,0.4374844 0.777623,0.9780615 1,1.5000001 0.662672,1.5553476 1.002426,3.41584 0.999987,4.999994 0,5.76876 -4.285711,9.999936 -10.000122,9.999965 C 6.2857115,22.499987 2,18.214276 2,12.499994 2,11.601405 2.1453127,10.318539 2.410714,9.428571 2.4689997,9.2459282 2.5495785,9.0803997 2.6572927,9.0162355 c 0.019333,-0.011511 0.038421,-0.01645 0.056992,-0.016236 0.1109684,0.00129 0.1968227,0.1860492 0.2137106,0.2527748 C 3.0742136,9.824873 3.2552572,10.46589 3.4999999,11 c 0,-1.184483 0.414831,-2.4429539 1.085677,-3.3824283 0.4474211,-0.6264174 1.2906135,-1.1414242 1.4820383,-2.8165446 0,0 0.0172,-0.1581713 0.2179963,-0.1581713 C 7.5,4.9999998 8.0000001,7.3571444 8.0000001,9.5 8.8042746,9.620272 9.2611082,8.1525878 9.2611082,8.1525878 9.129304,7.989409 9.0000002,7.6598771 9.0000002,7.5 9.0000002,6.7857148 9.7632982,6.038547 11,5.4999999 Z" style="opacity:.2"/>
 <path transform="matrix(.35714263 0 0 .35714263 .57142944 .57142944)" d="M 29.200016,12.400005 C 30.735977,6.6872671 35.711744,4 43.200024,4 48.610354,4 53.870483,5.3597226 57.200033,8.2000026 55.213023,8.2979026 52.65309,9.5187497 51.60003,11 c 3,0.338585 5.287224,0.812066 7.000004,2.800006 -1.29222,-0.2323 -3.004677,-0.309369 -4.200002,0 0.809569,1.224957 2.177345,2.738574 2.800002,4.200003 C 59.055516,22.354985 60.006829,27.564366 60,32 60,48.15254 48,59.99984 31.99964,59.99992 16,60 4,48 4,32 c 0,-2.51605 0.406876,-6.108076 1.15,-8.599989 0.1632,-0.5114 0.3888208,-0.97488 0.6904208,-1.15454 0.054134,-0.03223 0.1075779,-0.04606 0.1595792,-0.04546 0.3107116,0.0036 0.5511039,0.520938 0.59839,0.70777 0.40941,1.601877 0.9163326,3.396724 1.6016126,4.892234 0,-3.316554 1.1615274,-6.840275 3.0398974,-9.470805 1.25278,-1.75397 3.61372,-3.19599 4.14971,-7.88633 0,0 0.04816,-0.44288 0.61039,-0.44288 3.40001,1.000004 4.800011,7.600013 4.800011,13.600013 2.25197,0.33676 3.531105,-3.772757 3.531105,-3.772757 -0.369052,-0.456901 -0.731103,-1.379591 -0.731103,-1.827247 0,-2 2.137236,-4.092071 5.600003,-5.600004 z" style="fill:#248afd"/>
 <path transform="matrix(.35714263 0 0 .35714263 .57142944 .57142944)" d="M 58.528285,22 C 58.635971,22.329763 59,23.84532 59,25 59,40.404213 46.89342,54.400031 32.000017,54.400031 26.181691,54.400031 21.659433,52.623317 17,49 9.815524,43.413132 5,36.801126 5,28 5,26 5.4510409,23.535319 5.708,22.530921 5.7775965,22.258883 5.8713395,22.200011 6,22.200011 c -0.046875,0 -0.1205105,0.02015 -0.1595792,0.04546 C 5.52828,22.447708 5.3427199,22.864649 5.15,23.400011 4.8321598,24.211434 4.3928022,26.688199 4.3490998,27 4.2064389,28.017835 4,30.305219 4,32 4,48 16,60 32.00036,60 48,60 60,48.15254 60,32 60,28 59.329,24.518795 58.528285,22 Z" style="fill:#0271ef"/>
 <path transform="matrix(.35714263 0 0 .35714263 .57142944 .57142944)" d="m5.708 22.530921c-0.4147844 1.773785-0.708 3.483613-0.708 5.469079 0 6.250889 2.4079707 12.326658 8.499572 18.005143-1.623591-2.005143-3.8995685-5.489423-3.8995685-9.805123 0-5.600003 1.4000005-7.968953 2.9796285-9.586046 0.146781-0.164374 0.303291-0.21396 0.5584-0.21396 0.313703 0 0.646851 0.316552 0.661974 0.737058 0.51599 14.55316 12.600017 21.662956 26.600017 21.662956-9.62545 0-17.771543-5.513268-7.891673-7.435198 5.16393-1.00525 13.49164-3.36483 13.49165-9.36483 2.6e-5 -15.014512-8.399979-16.799993-13.999983-16.799993-2.800001 0-7.668901 1.820146-7.668901 4.627249 0.3976 1.34284-2.474315 3.930687-3.531105 3.772757 0-6-1.400001-12.600009-4.800011-14.00001-0.543128 0-0.61039 0.4428805-0.61039 0.4428805-0.53599 4.69033-2.89701 6.532436-4.14899 8.286406-1.8791 2.63137-3.0406174 5.800103-3.0406174 9.470725-0.68526-1.49551-1.1921826-3.290344-1.6016126-4.892234-0.0456-0.18049-0.295086-0.70777-0.59839-0.70777-0.1678968 0-0.2512 0.15459-0.292 0.33091z" style="fill:#0259bb"/>
 <path transform="matrix(.35714263 0 0 .35714263 .57142944 .57142944)" d="m32.000017 43.200024c7 0 13.999927-5.200024 13.999983-11.200024 2.6e-5 -2.799984-0.309059-4.818155-1.399975-6.999987-2.800001-5.600003-8.400005-7.000004-12.600008-7.000004-4.200002 0-9.800006 1.400001-12.600007 7.000004-1.054133 2.108266-1.400001 4.200003-1.40001 6.999987 3e-3 11.58755 10.400023 16.800028 22.400023 16.800028-1.400001 0-7.000005 0-9.294948-3.200003-0.285589-0.33676-0.505058-0.63447-0.505058-1 0-0.695884 0.667967-1.400001 1.4-1.400001z" style="fill:#d6d6d6"/>
 <path transform="matrix(.35714263 0 0 .35714263 .57142944 .57142944)" d="m34.000017 35.20002c-0.642213 0.642213-1.235895 1.013769-2 1-0.741155-0.01336-1.387083-0.387083-2-1l-10.600007-8.800006-0.451294-0.390842c0.05264-0.174274 0.324396-0.783105 0.451294-1.009159h25.200015c0.0915 0.151078 0.374597 0.798117 0.459358 1.023023l-0.459358 0.376978z" style="opacity:.2"/>
 <path transform="matrix(.35714263 0 0 .35714263 .57142944 .57142944)" d="m34.000017 33.800019c-0.642213 0.642213-1.235895 1.013769-2 1-0.741155-0.01336-1.387083-0.387083-2-1l-10.600007-8.800006c2.800001-5.600003 8.400005-7.000004 12.600007-7.000004 4.200003 0 9.800007 1.400001 12.600008 7.000004z" style="fill:#e4e4e4"/>
 <g transform="matrix(.35714263 0 0 .35714263 .57142944 .57142944)">
  <path d="m40.37518 48.80002c-1.375158 0-6.44324 8e-6 -8.939516-2.785584-0.153212-0.170969-0.363402-0.436286-0.570764-0.717009-0.132062 0.108169-0.264883 0.404865-0.264883 0.702599 0 0.419845 0.270683 0.734375 0.505058 1l0.894942 0.854309c1.483647 0.352501 4.200003 0.945693 8.375163 0.945685z" style="opacity:.2"/>
  <path d="m23.769506 20.15753c0.05039 0.207837 0.352461 0.889977 0.56161 1.069727 1.206501-0.839688 3.668901-1.827247 7.668901-1.827247s9.800007 1.4 12.600008 7.000004c1.107714 2.215429 1.400001 3.460774 1.399975 5.599986 2.6e-5 -2.799984-0.324128-4.848293-1.399975-6.999987-2.800001-5.600003-8.400005-7.000004-12.600008-7.000004-4.200002 0-6.939183 1.332271-8.230511 2.157521z" style="opacity:.2"/>
  <path d="m13.499572 46.005143c-1.058676-0.985512-2.161077-2.173039-2.691847-2.805119-0.9068804-1.959175-1.0039369-3.603593-1.1237214-5.600003l-0.084-1.400001c0.060156 4.257813 1.9753504 7.361696 3.8995684 9.805123z" style="opacity:.2"/>
 </g>
 <path d="m13.965248 4.9538001c0.585056-0.180291 0.533601-0.7469657 0.533601-0.7469657s-0.292528-0.3372691-0.872185-0.1504497c-0.542494 0.1750087-0.626664 0.5533089-0.626664 0.5533089s0.29634 0.5501954 0.965248 0.3441065z" style="fill:#e4e4e4"/>
 <path transform="matrix(.35714263 0 0 .35714263 .57142944 .57142944)" d="m51.60003 11c3 0.338585 5.276981 0.800006 7.000004 2.800006-0.848059-0.16156-1.350497-0.168604-2.037961-0.201447-0.8305-0.363131-1.935978-0.810341-4.962043-1.198554m2.800002 1.400001c0.819798 1.230574 2.178467 2.753098 2.800002 4.200003 1.87991 4.376345 2.80682 9.547832 2.799966 13.999991 0-5-2.799966-13.999991-5.599968-16.799993m1.122282-6.6738979c-3.509651-2.8957868-8.197071-3.1261082-12.32229-3.1261082-7.497184 0-12.46426 2.6433068-14.000008 8.3443551-4.091486 1.153454-5.600003 3.251548-5.600003 4.255653 0-2.460362 3.134618-4.551581 5.600003-5.600004 1.535961-5.7127374 6.511728-8.400005 14.000008-8.400005 5.41033 0 10.670459 1.3597226 14.000009 4.2000026-0.502709 0.00773-1.33067 0.2050412-1.677719 0.3261065zm-33.322303 14.198903c-0.623438 0.634375-0.490688 2.295738-1.4 3.675002 0-5-1.400001-14.000009-4.800011-15.400014-0.593987 0-0.61039 0.44288-0.61039 0.44288-0.526674 4.688285-2.923148 6.606443-4.14971 8.28613-1.8821586 2.67079-3.0398974 5.90247-3.0398974 9.471006-0.6953125-1.589844-1.1719251-3.118166-1.6016126-4.891603-0.0351563-0.179688-0.3132338-0.708401-0.59839-0.708401-0.058594 0-0.1009854 0.0018-0.1595792 0.0448-0.3469547 0.239505-0.5259908 0.633143-0.6904208 1.155001-0.7635722 2.478663-1.15 5.800204-1.15 7.200187 0-2.799984 0.3740635-6.108076 1.15-8.599989 0.1632-0.5114 0.3888208-0.97488 0.6904208-1.15454 0.054134-0.03223 0.1075779-0.04606 0.1595792-0.04546 0.3107116 0.0036 0.5511039 0.520938 0.59839 0.70777 0.40941 1.601877 0.9131181 3.294524 1.6016126 4.892234 0-3.61954 1.1615274-6.840275 3.0398974-9.470805 1.25278-1.75397 3.61372-3.595986 4.14971-8.286326 0 0 0.04816-0.4428805 0.61039-0.4428805 3.553135 1.5093755 4.800011 8.4000065 4.800011 14.00001 0.668806-1.394479 0.377343-1.411121 1.4-2.275184" style="fill:#fcfcfc;opacity:.2"/>
 <path transform="matrix(.35714263 0 0 .35714263 .57142944 .57142944)" d="m30.600017 44.600025h1c8 0 14.400009-5.293775 14.399983-12.600025 0 6-6.999983 11.200024-13.999983 11.200024-0.7412 0-1.4 0.704993-1.4 1.400001z" style="fill:#ffffff;opacity:.2"/>
 <path transform="matrix(.35714263 0 0 .35714263 .57142944 .57142944)" d="m34.800019 49.822029c-9.004639 0-20.541539-8.524957-21.000413-21.285014-0.01564-0.434841-0.345325-0.737-0.662-0.737-0.23847 0-0.408858 0.04841-0.558 0.214-2.144374 2.472653-2.9796025 5.386003-2.9796025 8.186005 0-5.600003 1.4000005-7.955664 2.9796285-9.586046 0.146781-0.164374 0.303291-0.21396 0.5584-0.21396 0.313703 0 0.646851 0.316552 0.661974 0.737058 0.51599 14.55316 12.600017 21.662956 26.600017 21.662956 0 0-0.604643 1.022001-5.600004 1.022001z" style="fill:#ffffff;opacity:.2"/>
</svg>
