<svg xmlns="http://www.w3.org/2000/svg" width="24" height="24" version="1">
 <rect style="opacity:0.2" width="20" height="20" x="2" y="2.5" rx="1" ry="1"/>
 <rect style="fill:#e4e4e4" width="20" height="20" x="2" y="2" rx="1" ry="1"/>
 <path style="opacity:0.1" d="m 5.9999999,7.9499998 -3,3.0000002 3,3 2.9999999,-3 z M 8.9999998,10.95 12,13.95 l 3,-3 -3,-3.0000002 z M 15,10.95 l 3,3 3,-3 -3,-3.0000002 z m -3,3 -3.0000002,3 3.0000002,3 3,-3 z"/>
 <path style="fill:#3f3f3f" d="m 5.9999999,7.4499999 -3,3.0000001 3,3 2.9999999,-3 z M 8.9999998,10.45 12,13.45 l 3,-3 -3,-3.0000001 z M 15,10.45 l 3,3 3,-3 -3,-3.0000001 z m -3,3 -3.0000002,3 3.0000002,3 3,-3 z"/>
 <path style="opacity:0.2;fill:#ffffff" d="M 2.9999999,2 C 2.446,2 2,2.446 2,2.9999999 v 0.5 C 2,2.946 2.446,2.5 2.9999999,2.5 H 21 c 0.554,0 1,0.446 1,0.9999999 v -0.5 C 22,2.446 21.554,2 21,2 Z"/>
</svg>
