<svg xmlns="http://www.w3.org/2000/svg" width="24" height="24" version="1.1">
 <circle style="opacity:0.2" cx="12" cy="12.5" r="10"/>
 <circle style="fill:#4f4f4f" cx="12" cy="12" r="10"/>
 <path style="opacity:0.1;fill:#ffffff" d="M 12,2 A 10,10 0 0 0 2,12 10,10 0 0 0 2.0107422,12.291016 10,10 0 0 1 12,2.5 10,10 0 0 1 21.989258,12.208985 10,10 0 0 0 22,12 10,10 0 0 0 12,2 Z"/>
 <path style="opacity:0.1" d="M 3.6640625,4.5007208 C 3.0399858,4.4862286 2.4734897,4.7521571 2.1855469,5.2643927 1.7248387,6.0839698 2.150278,7.2216238 3.1347656,7.8054083 4.1192532,8.3891928 9.161362,10.310851 9.6220705,9.4912755 10.082779,8.6716985 5.787222,5.4214195 4.8027344,4.8376349 4.4335513,4.6187157 4.0385085,4.5094162 3.6640625,4.5007208 Z m 16.6718745,0 c -0.374446,0.0087 -0.769489,0.1179949 -1.138672,0.3369141 C 18.212778,5.4214195 13.917221,8.6716985 14.37793,9.4912755 14.838638,10.310851 19.880747,8.3891928 20.865234,7.8054083 21.849722,7.2216238 22.275161,6.0839698 21.814453,5.2643927 21.52651,4.7521571 20.960014,4.4862286 20.335937,4.5007208 Z M 3.9980469,8.9287245 C 3.2258664,8.8855045 2.5526114,9.277113 2.4179688,9.8935685 2.2640914,10.598084 2.8719779,11.328854 3.7763672,11.525402 4.6807562,11.721947 9.559013,11.720207 9.7128905,11.015687 9.866768,10.311167 5.2383735,9.17117 4.3339844,8.974623 4.2209357,8.950053 4.1083584,8.934898 3.9980469,8.928723 Z m 16.0039061,0 c -0.110312,0.00617 -0.222889,0.02133 -0.335938,0.0459 -0.904389,0.196547 -5.532783,1.3365435 -5.378906,2.0410645 0.153878,0.704519 5.032135,0.70626 5.936524,0.509714 0.904389,-0.196547 1.512275,-0.927317 1.358398,-1.631833 C 21.447388,9.2771145 20.774133,8.885507 20.001953,8.928726 Z M 6.8378905,11.98932 c -1.42658,-3.07e-4 -2.9472483,0.09904 -3.3945311,0.169921 -0.8945661,0.141773 -1.500791,0.790413 -1.3544922,1.449219 0.1462982,0.658805 0.9901998,1.078296 1.8847656,0.936524 C 4.8681985,14.403211 9.816221,13.077814 9.669922,12.419007 9.5967725,12.089604 8.2644705,11.989626 6.8378905,11.98932 Z m 10.3242185,0 c -1.42658,3.06e-4 -2.758882,0.100285 -2.832031,0.429688 -0.146299,0.658806 4.801723,1.984204 5.696289,2.125976 0.894565,0.141773 1.738467,-0.277719 1.884766,-0.936523 0.146298,-0.658807 -0.459926,-1.307447 -1.354493,-1.449219 -0.447282,-0.07089 -1.967951,-0.170228 -3.394531,-0.169922 z m -7.860351,1.862305 c -1.165095,0.07517 -4.870651,1.325919 -5.5498049,1.646484 -0.7761753,0.366361 -1.1036017,0.944836 -0.7314453,1.291992 0.3721552,0.347154 1.3029263,0.332181 2.0791017,-0.03418 0.7761755,-0.366359 4.9014535,-2.511243 4.5292965,-2.858398 -0.04652,-0.04339 -0.160706,-0.05664 -0.327148,-0.0459 z m 5.396484,0 c -0.166442,-0.01074 -0.280629,0.0025 -0.327148,0.0459 -0.372157,0.347155 3.753121,2.492039 4.529296,2.858398 0.776175,0.36636 1.706947,0.381334 2.079102,0.03418 0.372156,-0.347156 0.04473,-0.925632 -0.731445,-1.291992 -0.679154,-0.320566 -4.38471,-1.571313 -5.549805,-1.646486 z M 9.78125,15.038148 c -0.7643835,0.123061 -4.600408,2.371208 -5.0830078,2.771484 -0.5147725,0.426961 -0.6489502,0.927327 -0.3007813,1.117188 0.3481688,0.18986 1.0477281,-0.0027 1.5625001,-0.429688 0.5147725,-0.42696 4.278834,-3.264241 3.930664,-3.454101 -0.02176,-0.01187 -0.058416,-0.01309 -0.109375,-0.0049 z m 4.4375,0 c -0.05096,-0.0082 -0.08761,-0.007 -0.109375,0.0049 -0.34817,0.18986 3.415891,3.027141 3.930664,3.454101 0.514772,0.426961 1.214331,0.619548 1.5625,0.429688 0.348169,-0.189861 0.213991,-0.690227 -0.300781,-1.117188 -0.4826,-0.400276 -4.318625,-2.648423 -5.083008,-2.771484 z m -5.355469,1.90039 c -0.5428185,0.11137 -2.413062,1.828874 -2.814453,2.310547 -0.4281505,0.513784 -0.468782,1.03023 -0.091797,1.153321 0.3769845,0.123089 1.0288815,-0.194225 1.4570315,-0.708008 0.4281505,-0.513783 1.9160485,-2.632771 1.5390625,-2.75586 -0.02356,-0.0077 -0.053656,-0.0074 -0.089844,0 z m 6.183594,0 c -0.376986,0.123089 1.110912,2.242077 1.539062,2.75586 0.42815,0.513783 1.080047,0.831097 1.457032,0.708008 0.376984,-0.123091 0.336353,-0.639537 -0.0918,-1.153321 -0.428151,-0.513784 -2.527313,-2.433636 -2.904297,-2.310547 z m -4.114258,0.0098 c -0.261571,-0.09428 -1.282645,2.749258 -1.5341795,3.554687 -0.2515345,0.805428 -0.243994,1.535598 0.01758,1.629883 0.2615715,0.09428 0.6771775,-0.482658 0.9287115,-1.288086 0.251534,-0.805426 0.849463,-3.802201 0.58789,-3.896484 z m 2.134766,0 c -0.261573,0.09428 0.336356,3.091058 0.587891,3.896484 0.251533,0.805428 0.667139,1.382369 0.928711,1.288086 0.261571,-0.09429 0.269112,-0.824455 0.01758,-1.629883 -0.251535,-0.805463 -1.272608,-3.649006 -1.53418,-3.554721 z M 9.986328,17.163147 C 9.709178,17.040058 7.97004,19.771433 7.6552735,20.285218 7.3405065,20.799001 7.309763,21.314471 7.586914,21.437562 7.8640645,21.560651 8.3444135,21.244313 8.6591795,20.73053 8.9739465,20.216747 10.26348,17.286237 9.986328,17.163147 Z m 4.027344,0 c -0.277152,0.12309 1.012382,3.0536 1.327149,3.567383 0.314766,0.513783 0.795114,0.830121 1.072265,0.707032 0.277151,-0.123091 0.246407,-0.638561 -0.06836,-1.152344 -0.314766,-0.513785 -2.053904,-3.24516 -2.331054,-3.122071 z"/>
 <path style="fill:#b5b78d" d="M 3.6640625,4.0006563 C 3.0399858,3.9861641 2.4734897,4.2520926 2.1855469,4.7643282 1.7248387,5.5839053 2.150278,6.7215593 3.1347656,7.3053438 4.1192532,7.8891283 9.161362,9.810788 9.6220705,8.991211 10.082779,8.171634 5.787222,4.921355 4.8027344,4.3375704 4.4335513,4.1186512 4.0385085,4.0093517 3.6640625,4.0006563 Z m 16.6718745,0 c -0.374446,0.0087 -0.769489,0.1179949 -1.138672,0.3369141 C 18.212778,4.921355 13.917221,8.171634 14.37793,8.991211 14.838638,9.810788 19.880747,7.8891283 20.865234,7.3053438 21.849722,6.7215593 22.275161,5.5839053 21.814453,4.7643282 21.52651,4.2520926 20.960014,3.9861641 20.335937,4.0006563 Z M 3.9980469,8.42866 C 3.2258664,8.38544 2.5526114,8.7770485 2.4179688,9.393504 2.2640914,10.098022 2.8719779,10.828792 3.7763672,11.02534 4.6807562,11.221885 9.559013,11.220145 9.7128905,10.515625 9.866768,9.811104 5.2383735,8.6711055 4.3339844,8.4745585 4.2209357,8.4499885 4.1083584,8.4348335 3.9980469,8.4286585 Z m 16.0039061,0 c -0.110312,0.00617 -0.222889,0.02133 -0.335938,0.0459 -0.904389,0.196547 -5.532783,1.3365455 -5.378906,2.041067 0.153878,0.704519 5.032135,0.70626 5.936524,0.509714 0.904389,-0.196547 1.512275,-0.927317 1.358398,-1.6318355 C 21.447388,8.77705 20.774133,8.3854425 20.001953,8.4286615 Z M 6.8378905,11.489258 c -1.42658,-3.07e-4 -2.9472483,0.09904 -3.3945311,0.169921 -0.8945661,0.141773 -1.500791,0.790413 -1.3544922,1.449219 0.1462982,0.658805 0.9901998,1.078296 1.8847656,0.936524 C 4.8681985,13.903149 9.816221,12.577752 9.669922,11.918945 9.5967725,11.589542 8.2644705,11.489564 6.8378905,11.489258 Z m 10.3242185,0 c -1.42658,3.06e-4 -2.758882,0.100285 -2.832031,0.429688 -0.146299,0.658806 4.801723,1.984204 5.696289,2.125976 0.894565,0.141773 1.738467,-0.277719 1.884766,-0.936523 0.146298,-0.658807 -0.459926,-1.307447 -1.354493,-1.449219 -0.447282,-0.07089 -1.967951,-0.170228 -3.394531,-0.169922 z M 9.301758,13.351563 C 8.136663,13.426734 4.431107,14.677482 3.7519531,14.998047 2.9757778,15.364408 2.6483514,15.942883 3.0205078,16.290039 3.392663,16.637193 4.3234341,16.62222 5.0996095,16.255859 5.875785,15.8895 10.001063,13.744616 9.628906,13.397461 9.582386,13.354066 9.4682,13.340823 9.301758,13.351561 Z m 5.396484,0 c -0.166442,-0.01074 -0.280629,0.0025 -0.327148,0.0459 -0.372157,0.347155 3.753121,2.492039 4.529296,2.858398 0.776175,0.36636 1.706947,0.381334 2.079102,0.03418 0.372156,-0.347156 0.04473,-0.925632 -0.731445,-1.291992 -0.679154,-0.320566 -4.38471,-1.571313 -5.549805,-1.646486 z M 9.78125,14.538086 c -0.7643835,0.123061 -4.600408,2.371208 -5.0830078,2.771484 -0.5147725,0.426961 -0.6489502,0.927327 -0.3007813,1.117188 0.3481688,0.18986 1.0477281,-0.0027 1.5625001,-0.429688 0.5147725,-0.42696 4.278834,-3.264241 3.930664,-3.454101 -0.02176,-0.01187 -0.058416,-0.01309 -0.109375,-0.0049 z m 4.4375,0 c -0.05096,-0.0082 -0.08761,-0.007 -0.109375,0.0049 -0.34817,0.18986 3.415891,3.027141 3.930664,3.454101 0.514772,0.426961 1.214331,0.619548 1.5625,0.429688 0.348169,-0.189861 0.213991,-0.690227 -0.300781,-1.117188 -0.4826,-0.400276 -4.318625,-2.648423 -5.083008,-2.771484 z m -5.355469,1.90039 c -0.5428185,0.11137 -2.413062,1.828874 -2.814453,2.310547 -0.4281505,0.513784 -0.468782,1.03023 -0.091797,1.153321 0.3769845,0.123089 1.0288815,-0.194225 1.4570315,-0.708008 0.4281505,-0.513783 1.9160485,-2.632771 1.5390625,-2.75586 -0.02356,-0.0077 -0.053656,-0.0074 -0.089844,0 z m 6.183594,0 c -0.376986,0.123089 1.110912,2.242077 1.539062,2.75586 0.42815,0.513783 1.080047,0.831097 1.457032,0.708008 0.376984,-0.123091 0.336353,-0.639537 -0.0918,-1.153321 -0.428151,-0.513784 -2.527313,-2.433636 -2.904297,-2.310547 z m -4.114258,0.0098 c -0.261571,-0.09428 -1.282645,2.749258 -1.5341795,3.554687 -0.2515345,0.805428 -0.243994,1.535598 0.01758,1.629883 0.2615715,0.09428 0.6771775,-0.482658 0.9287115,-1.288086 0.251534,-0.805426 0.849463,-3.802201 0.58789,-3.896484 z m 2.134766,0 c -0.261573,0.09428 0.336356,3.091058 0.587891,3.896484 0.251533,0.805428 0.667139,1.382369 0.928711,1.288086 0.261571,-0.09429 0.269112,-0.824455 0.01758,-1.629883 C 14.35003,19.1975 13.328957,16.353957 13.067385,16.448242 Z M 9.986328,16.663085 C 9.709178,16.539996 7.97004,19.271371 7.6552735,19.785156 7.3405065,20.298939 7.309763,20.814409 7.586914,20.9375 7.8640645,21.060589 8.3444135,20.744251 8.6591795,20.230468 8.9739465,19.716685 10.26348,16.786175 9.986328,16.663085 Z m 4.027344,0 c -0.277152,0.12309 1.012382,3.0536 1.327149,3.567383 0.314766,0.513783 0.795114,0.830121 1.072265,0.707032 0.277151,-0.123091 0.246407,-0.638561 -0.06836,-1.152344 -0.314766,-0.513785 -2.053904,-3.24516 -2.331054,-3.122071 z"/>
 <path style="opacity:0.2" d="M 6.5996094,8.5 C 6.2672094,8.5 6,8.723 6,9 v 1 c 0,0.277 0.2672094,0.5 0.5996094,0.5 H 8 V 17 c 0,0.277 0.223,0.5 0.5,0.5 h 1 C 9.777,17.5 10,17.277 10,17 v -6.5 h 1.400391 C 11.732791,10.5 12,10.277 12,10 V 9 C 12,8.723 11.732791,8.5 11.400391,8.5 Z M 14,8.5 c -0.554,0 -1,0.446 -1,1 v 7 c 0,0.554 0.446,1 1,1 h 3 c 0.554,0 1,-0.446 1,-1 v -3 h -2 v 1.75 C 16,15.6655 15.777,16 15.5,16 15.223,16 15,15.6655 15,15.25 V 12.900391 12.099609 10.75 C 15,10.3345 15.223,10 15.5,10 c 0.277,0 0.5,0.3345 0.5,0.75 v 0.75 h 2 v -2 c 0,-0.554 -0.446,-1 -1,-1 z"/>
 <rect style="fill:#ffffff" width="2" height="9" x="8" y="8" rx=".5" ry=".5"/>
 <rect style="fill:#ffffff" width="2" height="6" x="8" y="-12" rx=".5" ry=".6" transform="rotate(90)"/>
 <path style="fill:#ffffff" d="m 14,8 c -0.554,0 -1,0.446 -1,1 v 7 c 0,0.554 0.446,1 1,1 h 3 c 0.554,0 1,-0.446 1,-1 v -3 h -2 v 1.75 c 0,0.4155 -0.223,0.75 -0.5,0.75 -0.277,0 -0.5,-0.3345 -0.5,-0.75 V 12.400391 11.59961 10.25 C 15,9.8345 15.223,9.5 15.5,9.5 15.777,9.5 16,9.8345 16,10.25 V 11 h 2 V 9 C 18,8.446 17.554,8 17,8 Z"/>
</svg>
