<svg xmlns="http://www.w3.org/2000/svg" width="24" height="24" version="1">
 <path style="opacity:0.2" d="m 12.054151,2.5004985 a 2.2828381,2.27395 0 0 0 -1.19552,0.30335 l -6.717112,3.863 A 2.2828381,2.27395 0 0 0 3,8.6363485 v 7.7264995 a 2.2828381,2.27395 0 0 0 1.141419,1.9693 l 6.717112,3.8632 a 2.2828381,2.27395 0 0 0 2.282838,0 l 6.717112,-3.8632 A 2.2828381,2.27395 0 0 0 21,16.362648 V 8.6361485 a 2.2828381,2.27395 0 0 0 -1.141519,-1.9695 l -6.717112,-3.863 a 2.2828381,2.27395 0 0 0 -1.087518,-0.30335 z"/>
 <path style="fill:#3f3f3f" d="m 12.053711,2 v 9.75e-4 A 2.2828381,2.27395 0 0 0 10.858399,2.303711 L 4.1416015,6.166992 A 2.2828381,2.27395 0 0 0 3,8.136719 v 7.726562 a 2.2828381,2.27395 0 0 0 1.1416015,1.96875 l 6.7167975,3.863281 a 2.2828381,2.27395 0 0 0 2.283203,0 l 6.716796,-3.863281 A 2.2828381,2.27395 0 0 0 21,15.863281 V 8.136719 A 2.2828381,2.27395 0 0 0 19.858398,6.166992 L 13.141602,2.303711 A 2.2828381,2.27395 0 0 0 12.053711,2 Z"/>
 <path style="opacity:0.2" d="M 18,8.8769841 12,12.459813 V 19.293 l 4.990234,-2.88086 -2.111328,-1.21875 -1.734375,0.957032 c -0.08491,0.0566 -0.167969,-7.5e-5 -0.167969,-0.113282 v -2.842952 c 0,-0.08491 0.05472,-0.168965 0.111329,-0.197267 l 2.748047,-1.573062 c 0.0849,-0.0566 0.172193,9.6e-5 0.169921,0.113281 v 1.996094 L 18,14.685578 Z"/>
 <path style="fill:#a5a5a5" d="m 18,8.3769531 -6,3.4824219 v 6.933594 l 4.990234,-2.88086 -2.111328,-1.21875 -1.734375,0.957032 c -0.08491,0.0566 -0.167969,-7.5e-5 -0.167969,-0.113282 v -2.842952 c 0,-0.08491 0.05472,-0.168965 0.111329,-0.197267 l 2.748047,-1.573062 c 0.0849,-0.0566 0.172193,9.6e-5 0.169921,0.113281 v 1.996094 L 18,14.185547 Z"/>
 <path style="opacity:0.2" d="m 6,8.8769841 v 5.8085939 l 1.984375,-1.146485 v -2.029296 c 0,-0.08491 0.1135844,-0.141584 0.1699219,-0.113282 l 2.7343751,1.57111 c 0.08451,0.0566 0.113281,0.114313 0.113281,0.199218 v 2.842954 c 0.02816,0.113208 -0.05612,0.197228 -0.140625,0.140625 L 9.1289062,15.189484 7.0214844,16.404328 12,19.293 v -6.833187 z"/>
 <path style="fill:#cccccc" d="m 6,8.3769531 v 5.8085939 l 1.984375,-1.146485 v -2.029296 c 0,-0.08491 0.1135844,-0.141584 0.1699219,-0.113282 l 2.7343751,1.571111 c 0.08451,0.0566 0.113281,0.114313 0.113281,0.199218 v 2.842953 c 0.02816,0.113208 -0.05612,0.197228 -0.140625,0.140625 L 9.1289062,14.689453 7.0214844,15.904297 12,18.792969 v -6.933594 z"/>
 <path style="opacity:0.1;fill:#ffffff" d="m 12.053349,2.001 a 2.2827619,2.27395 0 0 0 -1.19498,0.3027 L 4.1414809,6.167 A 2.2827619,2.27395 0 0 0 3,8.1365 v 0.5 A 2.2827619,2.27395 0 0 1 4.1415809,6.667 L 10.858469,2.8037 A 2.2827619,2.27395 0 0 1 12.053749,2.500965 2.2827619,2.27395 0 0 1 13.141631,2.8037 L 19.858519,6.667 A 2.2827619,2.27395 0 0 1 21,8.6365 v -0.5 A 2.2827619,2.27395 0 0 0 19.858519,6.167 L 13.141631,2.3037 A 2.2827619,2.27395 0 0 0 12.053649,2.001 Z"/>
 <path style="opacity:0.2" d="M 11,5.9961248 6,8.8769841 12,12.359406 18,8.8769841 13,5.9961248 v 2.4296874 l 1.689453,0.9609376 c 0.08491,0.056603 0.08491,0.1689641 0,0.1972656 l -2.548828,1.4726566 c -0.0849,0.0566 -0.168005,0.0283 -0.224609,0 L 9.3671875,9.5840154 c -0.084906,-0.0283 -0.084906,-0.1689641 0,-0.1972656 L 11,8.4336248 Z"/>
 <path style="fill:#ffffff" d="M 11 5.4960938 L 6 8.3769531 L 12 11.859375 L 18 8.3769531 L 13 5.4960938 L 13 7.9257812 L 14.689453 8.8867188 C 14.774363 8.9433218 14.774363 9.0556829 14.689453 9.0839844 L 12.140625 10.556641 C 12.055725 10.613241 11.97262 10.584941 11.916016 10.556641 L 9.3671875 9.0839844 C 9.2822815 9.0556844 9.2822815 8.9150203 9.3671875 8.8867188 L 11 7.9335938 L 11 5.4960938 z"/>
</svg>
