<svg xmlns="http://www.w3.org/2000/svg" width="24" height="24" version="1.1" viewBox="0 0 24 24">
 <rect style="fill:#7cca3e" width="20" height="20" x="-22" y="-22" rx="1.5" ry="1.5" transform="matrix(0,-1,-1,0,0,0)"/>
 <path style="opacity:0.2;fill:#ffffff" d="M 3.5,2 C 2.669,2 2,2.669 2,3.5 L 2,4 C 2,3.169 2.669,2.5 3.5,2.5 l 17,0 C 21.331,2.5 22,3.169 22,4 L 22,3.5 C 22,2.669 21.331,2 20.5,2 l -17,0 z"/>
 <path style="opacity:0.2" d="M 2,20.5 2,21 c 0,0.831 0.669,1.5 1.5,1.5 l 17,0 c 0.831,0 1.5,-0.669 1.5,-1.5 l 0,-0.5 c 0,0.831 -0.669,1.5 -1.5,1.5 l -17,0 C 2.669,22 2,21.331 2,20.5 Z"/>
 <path style="opacity:0.2;fill-rule:evenodd" d="m 5,8.5 0,5 c 0,1 0,3 3,3 3,0 3,-2 3.000029,-3 l 0,-2 1.412082,1.591007 c -0.389182,2.131741 -0.41211,4.937691 -0.41211,5.408993 l 2,0 c 0,-0.350671 0.05674,-1.585151 0.200196,-2.944336 0.681329,0.517784 1.413724,0.944336 2.299802,0.944336 1.516666,0 2.18362,-0.711446 2.78113,-1.65039 C 19.878639,13.910665 19.999879,12.861111 19.999879,12 19.703881,10.058012 18.171845,8.5206696 16.499999,8.5 15,8.5 14.145001,8.601195 13.635741,9.5246015 13.419597,9.91652 13.219253,10.32391 13.051757,10.749211 l -2.05173,-2.249219 0,8e-6 -1.9999997,0 0,1 0,4.361859 c 0,0 -0.2669905,0.666586 -1.0000273,0.638141 C 7.2669632,14.471555 7,13.861859 7,13.861859 L 7,8.5 Z m 11.499999,2 C 18,10.5 18,11.5 18.086534,12.462161 18,13.5 18,14.5 16.499999,14.5 15.166771,14.394667 15.390991,14.053194 14.626952,13.240235 15.170564,11.367565 15,10.5 16.499999,10.5 Z"/>
 <path style="fill:#ffffff;fill-rule:evenodd" d="m 5,8 0,5 c 0,1 0,3 3,3 3,0 3,-2 3.000029,-3 l 0,-2 1.412082,1.591007 C 12.022929,14.722748 12.000001,17.528698 12.000001,18 l 2,0 c 0,-0.350671 0.05674,-1.585151 0.200196,-2.944336 C 14.881526,15.573448 15.613921,16 16.499999,16 c 1.516666,0 2.18362,-0.711446 2.78113,-1.65039 0.59751,-0.938945 0.71875,-1.988499 0.71875,-2.84961 C 19.703881,9.5580118 18.171845,8.0206696 16.499999,8 15,8 14.145001,8.101195 13.635741,9.0246015 13.419597,9.4165201 13.219253,9.8239095 13.051757,10.249211 l -2.05173,-2.249219 0,8e-6 -1.9999997,0 0,1 0,4.361859 C 9.0000273,13.361859 8.7330368,14.028445 8,14 7.2669632,13.971555 7,13.361859 7,13.361859 L 7,8 Z m 11.499999,2 C 18,10 18,11 18.086534,11.962161 18,13 18,14 16.499999,14 15.166771,13.894667 15.390991,13.553194 14.626952,12.740235 15.170564,10.867565 15,10 16.499999,10 Z"/>
</svg>
