<?xml version="1.0" encoding="UTF-8" standalone="no"?>
<svg id="svg2817" xmlns:rdf="http://www.w3.org/1999/02/22-rdf-syntax-ns#" xmlns="http://www.w3.org/2000/svg" height="24" width="24" version="1.0" xmlns:cc="http://creativecommons.org/ns#" xmlns:dc="http://purl.org/dc/elements/1.1/">
    <metadata id="metadata57">
        <rdf:RDF>
            <cc:Work rdf:about="">
                <dc:format>
                    image/svg+xml
                </dc:format>
                <dc:type rdf:resource="http://purl.org/dc/dcmitype/StillImage"/>
                <dc:title/>
            </cc:Work>
        </rdf:RDF>
    </metadata>
    <g id="g4350" transform="translate(1,1)">
        <rect id="rect4203-5" style="enable-background:new" transform="matrix(0,-1,-1,0,0,0)" rx="1" ry="1" height="20" width="16" y="-21" x="-19" fill="#5f7c8a"/>
        <rect id="rect3282" ry="0" style="enable-background:new" rx="0" transform="matrix(0,-1,-1,0,0,0)" height="16" width="12" y="-19" x="-17" fill="#7f96a1"/>
        <path id="rect4414" opacity=".2" style="enable-background:new" fill="#fff" d="m2 3c-0.554 0-1 0.446-1 1v0.5c0-0.554 0.446-1 1-1h18c0.554 0 1 0.446 1 1v-0.5c0-0.554-0.446-1-1-1h-18z"/>
        <path id="rect4465" opacity=".2" style="enable-background:new" d="m1 18v0.5c0 0.554 0.446 1 1 1h18c0.554 0 1-0.446 1-1v-0.5c0 0.554-0.446 1-1 1h-18c-0.554 0-1-0.446-1-1z"/>
        <circle id="path4058-7-6" style="enable-background:new" cx="16" cy="16" r="6" fill="#cc5e55"/>
        <path id="rect4463" fill="#fff" d="m15 12v5h2v-5zm0 6v2h2v-2z"/>
    </g>
</svg>
