<svg xmlns="http://www.w3.org/2000/svg" width="24" height="24" version="1.1">
 <circle style="opacity:0.2" cx="12" cy="12.5" r="10"/>
 <circle style="fill:#3f51b5" cx="12" cy="12" r="10"/>
 <path style="opacity:0.1;fill:#ffffff" d="M 12,2 A 10,10 0 0 0 2,12 10,10 0 0 0 2.01075,12.291 10,10 0 0 1 12,2.5 10,10 0 0 1 21.9895,12.209 10,10 0 0 0 22,12 10,10 0 0 0 12,2 Z"/>
 <path style="opacity:0.2" d="m 13.42406,18.304701 c 0.462808,-0.267341 0.473221,-0.684274 0.03724,-0.975358 -0.275718,-0.184082 -0.473742,-0.240102 -0.976485,-0.276248 l -0.63063,-0.04535 -0.142497,-0.376091 c -0.08058,-0.212675 -0.144454,-0.418547 -0.147003,-0.734344 -0.0042,-0.521803 0.01109,-0.569649 0.233193,-0.729207 0.573257,-0.411822 1.413512,-0.390114 1.571898,0.06827 0.068,0.196794 0.141011,0.252118 0.36078,0.273388 l 0.275529,0.02666 0.02448,0.665472 c 0.01646,0.447357 0.05261,0.533822 0.237378,0.655963 0.183772,0.121484 0.228969,0.124525 0.330364,0.02224 0.06461,-0.06518 0.13977,-0.257167 0.167028,-0.426639 0.03956,-0.245947 0.0066,-0.521504 -0.163297,-0.771268 -0.206512,-0.30358 -0.317888,-0.954987 -0.320336,-1.171887 -6.5e-4,-0.05874 0.349672,-0.279091 0.778522,-0.489669 0.972817,-0.477681 1.2544,-1.519994 1.654388,-2.323509 0.252492,-0.507219 0.288962,-0.658025 0.284776,-1.177563 -0.0034,-0.425522 0.03326,-0.7794752 -0.192502,-1.0360554 l -0.387325,-0.4402025 0.183974,-0.197571 c 0.260766,-0.2800385 0.679892,-0.4006055 1.443617,-0.415273 0.990974,-0.019025 0.95265,-0.00769 0.95265,-0.2826 0,-0.2202715 -0.04584,-0.262027 -0.458722,-0.4178815 -0.252298,-0.095235 -0.489819,-0.173153 -0.527826,-0.173153 -0.038,0 -0.35267,-0.186761 -0.699252,-0.415026 -0.346583,-0.2282605 -0.835974,-0.47539 -1.087537,-0.549173 -0.418042,-0.122605 -0.496151,-0.122777 -0.908022,-0.00175 -0.484932,0.1422245 -0.783025,0.397163 -1.307398,1.1181205 -0.350054,0.481287 -0.628111,0.599006 -1.416664,0.59977 -0.553426,4.415e-4 -1.588258,0.3182555 -2.066813,0.6345685 C 10.355646,9.0569751 10.094702,9.1729326 9.947695,9.2010271 9.60147,9.2671916 9.397282,9.3709136 9.1419535,9.6103244 9.0280495,9.7171278 8.7298285,9.8971312 8.479241,10.010332 7.9962075,10.228537 7.345573,11.342007 7.1226665,11.789854 7.050173,11.9355 6.914028,12.261846 6.8201215,12.515067 6.650657,12.972029 6.059834,13.772521 5.363009,14.489272 5.0376975,14.82389 4.9999999,14.903659 4.9999999,15.257419 c 0,0.217111 0.032253,0.414863 0.071674,0.439439 0.079101,0.04932 0.6619935,-0.31686 1.2815965,-0.805126 0.2203415,-0.173634 0.607951,-0.376506 0.861355,-0.450827 0.6006205,-0.176159 0.9403725,-0.07804 1.72023,0.496784 0.537407,0.396117 0.474012,0.431163 1.029845,0.478595 0.4020706,0.0343 0.6533346,0.100099 0.7623116,0.199597 0.201485,0.183967 0.364574,0.936489 0.289942,1.337849 -0.08869,0.476975 0.188742,0.800898 1.036203,1.209842 0.387561,0.187021 0.780006,0.3384 0.872101,0.336409 0.0921,-0.0022 0.316555,-0.08976 0.498802,-0.195037 z"/>
 <path style="fill:#ffffff" d="m 13.42406,17.8047 c 0.462808,-0.267341 0.473221,-0.684274 0.03724,-0.975358 -0.275718,-0.184082 -0.473742,-0.240102 -0.976485,-0.276248 l -0.63063,-0.04535 -0.142497,-0.376091 c -0.08058,-0.212675 -0.144454,-0.418547 -0.147003,-0.734344 -0.0042,-0.521803 0.01109,-0.569649 0.233193,-0.729207 0.573257,-0.411822 1.413512,-0.390114 1.571898,0.06827 0.068,0.196794 0.141011,0.252118 0.36078,0.273388 l 0.275529,0.02666 0.02448,0.665472 c 0.01646,0.447357 0.05261,0.533822 0.237378,0.655963 0.183772,0.121484 0.228969,0.124525 0.330364,0.02224 0.06461,-0.06518 0.13977,-0.257167 0.167028,-0.426639 0.03956,-0.245947 0.0066,-0.521504 -0.163297,-0.771268 -0.206512,-0.30358 -0.317888,-0.954987 -0.320336,-1.171887 -6.5e-4,-0.05874 0.349672,-0.279091 0.778522,-0.489669 0.972817,-0.477681 1.2544,-1.519994 1.654388,-2.323509 0.252492,-0.507219 0.288962,-0.658025 0.284776,-1.177563 -0.0034,-0.425522 0.03326,-0.7794739 -0.192502,-1.036053 l -0.387325,-0.4402025 0.183974,-0.197571 c 0.260766,-0.2800385 0.679892,-0.4006055 1.443617,-0.415273 0.990974,-0.019025 0.95265,-0.00769 0.95265,-0.2826 0,-0.2202715 -0.04584,-0.262027 -0.458722,-0.4178815 -0.252298,-0.095235 -0.489819,-0.173153 -0.527826,-0.173153 -0.038,0 -0.35267,-0.186761 -0.699252,-0.415026 C 16.967419,6.4135395 16.478028,6.16641 16.226465,6.092627 15.808423,5.970022 15.730314,5.96985 15.318443,6.090877 14.833511,6.2331015 14.535418,6.48804 14.011045,7.2089975 13.660991,7.6902845 13.382934,7.8080035 12.594381,7.8087675 12.040955,7.809209 11.006123,8.127023 10.527568,8.443336 10.355646,8.5569765 10.094702,8.672934 9.947695,8.7010285 9.60147,8.767193 9.397282,8.870915 9.1419535,9.110325 9.0280495,9.2171285 8.7298285,9.3971315 8.479241,9.510331 7.9962075,9.728536 7.345573,10.842006 7.1226665,11.289853 7.050173,11.435499 6.914028,11.761845 6.8201215,12.015066 6.650657,12.472028 6.059834,13.27252 5.363009,13.989271 c -0.3253115,0.334618 -0.3630091,0.414387 -0.3630091,0.768147 0,0.217111 0.032253,0.414863 0.071674,0.439439 0.079101,0.04932 0.6619935,-0.31686 1.2815965,-0.805126 0.2203415,-0.173634 0.607951,-0.376506 0.861355,-0.450827 0.6006205,-0.176159 0.9403725,-0.07804 1.72023,0.496784 0.537407,0.396117 0.474012,0.431163 1.029845,0.478595 0.4020706,0.0343 0.6533346,0.100099 0.7623116,0.199597 0.201485,0.183967 0.364574,0.936489 0.289942,1.337849 -0.08869,0.476975 0.188742,0.800898 1.036203,1.209842 0.387561,0.187021 0.780006,0.3384 0.872101,0.336409 0.0921,-0.0022 0.316555,-0.08976 0.498802,-0.195037 z"/>
</svg>
