<svg xmlns="http://www.w3.org/2000/svg" width="24" height="24" version="1.1">
 <path style="fill:none;stroke:#989898;stroke-linecap:round" d="m 6,7.001 10.519531,-4.5"/>
 <rect style="opacity:0.2" width="20" height="13" x="2" y="7.5" rx="1.429" ry="1.444"/>
 <circle style="fill:#757575" cx="6" cy="7.001" r="1"/>
 <path style="fill:#4f4f4f" d="M 3.4296875,7 C 2.638259,7 2,7.6431369 2,8.4433594 V 18.554688 C 2,19.354911 2.638259,20 3.4296875,20 H 15 20.572266 C 21.363695,20 22,19.35491 22,18.554688 V 8.4433594 C 22,7.6431374 21.363695,7 20.572266,7 H 15 Z"/>
 <path style="opacity:0.1;fill:#ffffff" d="M 3.428711,7.001 C 2.6372825,7.001 2,7.6451135 2,8.445336 v 0.5 C 2,8.1451135 2.6372825,7.501 3.428711,7.501 H 20.571289 C 21.362717,7.501 22,8.1451135 22,8.945336 v -0.5 C 22,7.6451135 21.362717,7.001 20.571289,7.001 Z"/>
 <circle style="opacity:0.2" cx="15" cy="15" r="1"/>
 <circle style="opacity:0.2" cx="19" cy="15" r="1"/>
 <circle style="fill:#757575" cx="15" cy="14.5" r="1"/>
 <circle style="fill:#757575" cx="19" cy="14.5" r="1"/>
 <path style="opacity:0.1;fill:#ffffff" d="m 15,13.5 a 1,1 0 0 0 -1,1 1,1 0 0 0 0.03516,0.25 A 1,1 0 0 1 15,14 1,1 0 0 1 15.966797,14.746094 1,1 0 0 0 16,14.5 a 1,1 0 0 0 -1,-1 z m 4,0 a 1,1 0 0 0 -1,1 1,1 0 0 0 0.03516,0.25 A 1,1 0 0 1 19,14 1,1 0 0 1 19.966797,14.746094 1,1 0 0 0 20,14.5 a 1,1 0 0 0 -1,-1 z"/>
 <circle style="fill:#e4e4e4" cx="8.5" cy="14" r="4.5"/>
 <path style="opacity:0.2" d="M 8.5,9.5 A 4.5,4.5 0 0 0 4,14 4.5,4.5 0 0 0 4.017578,14.25 4.5,4.5 0 0 1 8.5,10 4.5,4.5 0 0 1 12.986328,14.181641 4.5,4.5 0 0 0 13,14 4.5,4.5 0 0 0 8.5,9.5 Z"/>
 <circle style="opacity:0.2" cx="8.5" cy="14.5" r="3.5"/>
 <circle style="fill:#757575" cx="8.5" cy="14" r="3.5"/>
 <rect style="fill:#6c6c6c" width="6" height="2" x="14" y="16.5"/>
 <rect style="opacity:0.1" width="6" height=".5" x="14" y="16.5"/>
 <rect style="fill:#e4e4e4" width="6" height="2" x="14" y="9.5"/>
 <path style="opacity:0.2;fill:none;stroke:#000000;stroke-linecap:round;stroke-linejoin:bevel" d="M 16,12 V 10"/>
 <rect style="opacity:0.2" width="6" height=".5" x="14" y="9.5"/>
 <path style="fill:none;stroke:#df574d;stroke-linecap:round;stroke-linejoin:bevel" d="m 16,11.5 v -2"/>
 <path style="opacity:0.1;fill:none;stroke:#ffffff;stroke-linecap:round" d="M 8.5,15.333334 V 12"/>
 <path style="opacity:0.1;fill:none;stroke:#ffffff;stroke-linecap:round" d="m 10,14.5 v -2"/>
 <path style="opacity:0.1;fill:none;stroke:#ffffff;stroke-linecap:round" d="m 7,14.5 v -2"/>
 <path style="fill:none;stroke:#616161;stroke-linecap:round" d="M 8.5,15.833334 V 12.5"/>
 <path style="fill:none;stroke:#616161;stroke-linecap:round" d="M 10,15 V 13"/>
 <path style="fill:none;stroke:#616161;stroke-linecap:round" d="M 7,15 V 13"/>
 <rect style="opacity:0.2" width="2" height="2" x="16" y="17"/>
 <rect style="fill:#989898" width="2" height="2" x="16" y="16.5"/>
 <rect style="opacity:0.1;fill:#ffffff" width="2" height=".5" x="16" y="16.5"/>
</svg>
