<svg xmlns="http://www.w3.org/2000/svg" width="24" height="24" version="1.1">
 <circle style="opacity:0.2" cx="12" cy="12.5" r="10"/>
 <circle style="fill:#992b2b" cx="12" cy="12" r="10"/>
 <path style="opacity:0.2" d="m 12.527268,5.5000126 c -0.371796,-9.1e-4 -0.657939,0.064157 -0.776088,0.2031299 -0.187445,0.2204814 -0.619134,1.8643866 -1.157693,4.3770555 -0.388558,1.808103 -0.118376,2.862514 0.147125,3.42684 0.339438,0.721478 0.603642,1.155006 0.06713,2.594788 -0.388566,1.042748 -0.784895,1.042648 -1.1530962,1.092264 -0.8873481,-0.22662 -1.55759,-0.234381 -1.6450473,0.02051 -0.1196372,0.348674 0.8930102,1.25481 2.2602165,1.777921 1.367205,0.523111 2.5746,0.665087 2.694236,0.316414 0.08775,-0.255724 -0.434405,-0.703428 -1.257924,-1.130886 -0.361521,-0.395607 -0.686288,-0.671197 -0.399997,-1.896529 0.56007,-2.397105 1.414203,-1.573756 2.421135,-3.06355 0.854141,-1.263734 1.080606,-2.233671 1.575163,-3.7149323 0.523998,-1.5694373 0.7538,-2.2960374 0.685974,-2.4395104 C 15.53156,6.0971968 13.642656,5.5027425 12.527268,5.5000141 Z m -1.277233,3.192458 c 0.539799,0.6273082 1.032641,0.7892521 1.477164,0.8078761 1.096922,0.045955 1.899619,-1.078204 2.38764,-0.4064993 C 14.879984,9.913058 13.464641,14.873512 11.578308,13.987518 10.015707,13.264124 10.920187,9.5749702 11.250035,8.6924706 Z"/>
 <path style="fill:#ffffff" d="m 12.527268,4.9996721 c -0.371796,-9.1e-4 -0.657939,0.064157 -0.776088,0.2031299 -0.187445,0.2204814 -0.619134,1.8643866 -1.157693,4.3770559 -0.388558,1.8081011 -0.118376,2.8625121 0.147125,3.4268381 0.339438,0.721478 0.603642,1.155006 0.06713,2.594788 -0.388566,1.042748 -0.784895,1.042648 -1.1530962,1.092264 -0.8873481,-0.22662 -1.55759,-0.234381 -1.6450473,0.02051 -0.1196372,0.348674 0.8930102,1.25481 2.2602165,1.777921 1.367205,0.523111 2.5746,0.665087 2.694236,0.316414 0.08775,-0.255724 -0.434405,-0.703428 -1.257924,-1.130886 -0.361521,-0.395607 -0.686288,-0.671197 -0.399997,-1.896529 0.56007,-2.397105 1.414203,-1.573756 2.421135,-3.06355 0.854141,-1.263734 1.080606,-2.233671 1.575163,-3.7149308 0.523998,-1.5694373 0.7538,-2.2960374 0.685974,-2.4395104 C 15.53156,5.5968563 13.642656,5.002402 12.527268,4.9996736 Z m -1.277233,3.192458 c 0.539799,0.6273082 1.032641,0.7892521 1.477164,0.8078761 1.096922,0.045955 1.899619,-1.078204 2.38764,-0.4064993 C 14.879984,9.4127175 13.464641,14.37317 11.578308,13.487176 10.015707,12.763782 10.920187,9.0746297 11.250035,8.1921301 Z"/>
 <path style="opacity:0.1;fill:#ffffff" d="M 12.000004,2.0000094 A 9.9999954,9.9999954 0 0 0 2.000009,12.000005 9.9999954,9.9999954 0 0 0 2.0029387,12.255864 9.9999954,9.9999954 0 0 1 12.000004,2.5000092 9.9999954,9.9999954 0 0 1 21.99707,12.244145 9.9999954,9.9999954 0 0 0 22,12.000005 9.9999954,9.9999954 0 0 0 12.000004,2.0000094 Z"/>
</svg>
