<?xml version="1.0" encoding="UTF-8" standalone="no"?>
<svg xmlns="http://www.w3.org/2000/svg" width="24" version="1.1" height="24" viewBox="0 0 24 24">
 <path style="fill:#cccccc;fill-opacity:1;stroke-width:0.49998888" d="m 12.024999,2.0009698 c -0.194325,-0.005 -0.386156,0.043499 -0.554487,0.1385469 L 3.5301882,6.6214671 C 3.2023955,6.806513 3.0005,7.1484554 3.00055,7.5184972 v 8.9638008 c -4.95e-5,0.370042 0.2018505,0.712034 0.5296382,0.89703 l 7.9403238,4.482 c 0.327747,0.184896 0.731534,0.184896 1.059276,0 l 7.940324,-4.482 C 20.797905,17.194332 20.9998,16.85234 20.99975,16.482298 V 7.5184972 C 20.9998,7.1484554 20.7979,6.806513 20.470112,6.6214671 L 12.529788,2.1395167 C 12.376052,2.0527186 12.202466,2.0050697 12.024999,2.0009698 Z"/>
 <path style="opacity:0.2;fill:#ffffff;stroke-width:0.49998888" d="m 12.024499,2.0009698 c -0.194495,-0.005 -0.385491,0.043599 -0.553987,0.1386469 L 3.5296882,6.6218671 C 3.2016955,6.806863 3.00015,7.1483554 3.0002,7.5183472 V 8.0183361 C 3.00015,7.6483443 3.2016955,7.3068519 3.5294882,7.121856 L 11.470312,2.6396056 c 0.168496,-0.095048 0.359492,-0.1436468 0.553987,-0.1386469 0.177497,0.0041 0.350993,0.051849 0.504989,0.1386469 L 20.470112,7.121856 C 20.798105,7.3068519 20.9996,7.6483443 20.9996,8.0183361 V 7.5183472 c 0,-0.3699918 -0.201495,-0.7114842 -0.529488,-0.8964801 L 12.529288,2.1396167 C 12.375292,2.0528186 12.201796,2.0050697 12.024299,2.0009698 Z"/>
 <path d="m 3.0002,16.482509 v 0.499989 c -4.95e-5,0.370041 0.2014955,0.711484 0.5292882,0.89648 l 7.9413238,4.48235 c 0.327747,0.184896 0.730834,0.184896 1.058576,0 l 7.941324,-4.48235 C 20.798504,17.693982 21.00005,17.352539 21,16.982498 v -0.499989 c 5e-5,0.370041 -0.201496,0.711484 -0.529288,0.89648 l -7.941324,4.48235 c -0.327747,0.184896 -0.730834,0.184896 -1.058576,0 l -7.9413238,-4.4999 C 3.2014955,17.211443 2.99995,16.86145 3,16.461459 Z" style="color:#000000;opacity:0.2;stroke-width:0.49998888"/>
 <path style="fill:none;stroke:#a81717;stroke-width:2;stroke-linecap:square;stroke-linejoin:round;stroke-opacity:1" d="m 8,7 h 8 L 8,17 h 8"/>
</svg>
