<?xml version="1.0" encoding="utf-8"?>
<!-- Generator: Adobe Illustrator 16.0.0, SVG Export Plug-In . SVG Version: 6.00 Build 0)  -->
<!DOCTYPE svg PUBLIC "-//W3C//DTD SVG 1.1//EN" "http://www.w3.org/Graphics/SVG/1.1/DTD/svg11.dtd">
<svg version="1.1" id="Capa_1" xmlns="http://www.w3.org/2000/svg" xmlns:xlink="http://www.w3.org/1999/xlink" x="0px" y="0px"
	 width="24px" height="24px" viewBox="0 0 24 24" enable-background="new 0 0 24 24" xml:space="preserve">
<path id="path4" opacity="0.2" enable-background="new    " d="M2.611,12.128c-0.004,0.119-0.018,0.237-0.018,0.357
	c0,5.549,4.466,10.015,10.014,10.015S22.62,18.034,22.62,12.485c0-0.12-0.015-0.238-0.019-0.357
	c-0.188,5.38-4.569,8.997-9.995,8.997C7.18,21.125,2.799,17.508,2.611,12.128L2.611,12.128z"/>
<path id="rect6" fill="#D8D8D8" d="M22.62,12.014L22.62,12.014C22.62,6.483,18.137,2,12.607,2l0,0C7.077,2,2.593,6.483,2.593,12.014
	l0,0c0,5.53,4.484,10.014,10.014,10.014l0,0C18.137,22.027,22.62,17.544,22.62,12.014z"/>
<path id="path12" opacity="0.2" fill="#FFFFFF" enable-background="new    " d="M12.606,2C7.059,2,2.593,6.465,2.593,12.014
	c0,0.041,0.003,0.08,0.006,0.119c0.126-5.437,4.499-9.671,9.966-9.671c5.469,0,9.923,4.234,10.049,9.671
	c0.002-0.039,0.006-0.08,0.006-0.119C22.62,6.465,18.154,2,12.606,2z"/>
<g id="Capa_5" transform="matrix(0.53440278,0,0,0.53440278,-73.915744,-37.100741)">
	<circle id="circle49" opacity="0.2" fill="#010002" enable-background="new    " cx="161.93" cy="92.751" r="15.962"/>
	<circle id="circle51" fill="#56575A" cx="161.93" cy="91.887" r="15.962"/>
	<g id="g53" opacity="0.2">
		<path id="path55" inkscape:connector-curvature="0" fill="#010002" d="M151.315,89.492c1.955-1.488,5.802-4.588,8.05-6.453
			c1.522-1.263,4.046-1.207,5.526,0.571c1.517,1.819,1.018,4.146-0.342,5.418c-1.738,1.624-5.849,4.86-7.918,6.51
			c-2.276,1.807-4.393,1.224-5.908-0.289C149.514,94.04,149.418,90.938,151.315,89.492z"/>
		<path id="path57" inkscape:connector-curvature="0" fill="#010002" d="M159.3,95.905c1.955-1.491,5.802-4.588,8.05-6.453
			c1.522-1.264,4.048-1.21,5.528,0.568c1.515,1.822,1.016,4.147-0.342,5.419c-1.736,1.623-5.851,4.859-7.918,6.509
			c-2.277,1.807-4.395,1.228-5.907-0.287C157.501,100.45,157.404,97.351,159.3,95.905z"/>
	</g>
	<g id="g59">
		<path id="path61" inkscape:connector-curvature="0" fill="#D7D7D7" d="M151.321,88.628c1.954-1.487,5.801-4.587,8.05-6.453
			c1.521-1.263,4.047-1.208,5.527,0.571c1.515,1.819,1.016,4.146-0.344,5.417c-1.736,1.625-5.847,4.862-7.918,6.508
			c-2.276,1.805-4.393,1.23-5.905-0.287C149.521,93.177,149.423,90.073,151.321,88.628z"/>
		<path id="path63" inkscape:connector-curvature="0" fill="#D7D7D7" d="M159.309,94.986c1.953-1.489,5.801-4.588,8.047-6.452
			c1.524-1.264,4.048-1.209,5.528,0.568c1.513,1.822,1.018,4.149-0.342,5.419c-1.736,1.626-5.849,4.863-7.92,6.511
			c-2.275,1.807-4.393,1.224-5.904-0.287C157.508,99.536,157.41,96.432,159.309,94.986z"/>
	</g>
	<g id="g65" opacity="0.2">
		<circle id="circle67" fill="#010002" cx="161.826" cy="85.814" r="3.05"/>
		<circle id="circle69" fill="#010002" cx="153.775" cy="92.143" r="3.052"/>
		<circle id="circle71" fill="#010002" cx="161.919" cy="98.33" r="3.048"/>
		<circle id="circle73" fill="#010002" cx="169.879" cy="92.143" r="3.052"/>
	</g>
	<g id="g75">
		<circle id="circle77" fill="#2B2F85" cx="161.826" cy="85.068" r="3.05"/>
		<circle id="circle79" fill="#24954E" cx="153.775" cy="91.396" r="3.049"/>
		<circle id="circle81" fill="#EFCB4A" cx="161.919" cy="97.585" r="3.052"/>
		<circle id="circle83" fill="#C23235" cx="169.879" cy="91.396" r="3.049"/>
	</g>
	<path id="path85" inkscape:connector-curvature="0" opacity="0.15" fill="#FFFFFF" enable-background="new    " d="M156.826,91.388
		c0,0-0.651-2.297-3.049-2.297c-2.396,0-3.049,2.297-3.049,2.297c0-1.684,1.364-3.048,3.049-3.048
		C155.46,88.34,156.826,89.704,156.826,91.388z"/>
	<path id="path87" inkscape:connector-curvature="0" opacity="0.15" fill="#FFFFFF" enable-background="new    " d="M164.878,85.091
		c0,0-0.651-2.297-3.052-2.297c-2.394,0-3.048,2.297-3.048,2.297c0-1.685,1.365-3.05,3.048-3.05
		C163.512,82.041,164.878,83.406,164.878,85.091z"/>
	<path id="path89" inkscape:connector-curvature="0" opacity="0.15" fill="#FFFFFF" enable-background="new    " d="M172.929,91.352
		c0,0-0.652-2.297-3.05-2.297c-2.396,0-3.05,2.297-3.05,2.297c0-1.684,1.365-3.049,3.05-3.049
		C171.562,88.303,172.929,89.668,172.929,91.352z"/>
	<path id="path91" inkscape:connector-curvature="0" opacity="0.15" fill="#FFFFFF" enable-background="new    " d="M164.978,97.585
		c0,0-0.649-2.299-3.048-2.299c-2.395,0-3.05,2.299-3.05,2.299c0-1.683,1.366-3.052,3.05-3.052
		C163.613,94.533,164.978,95.902,164.978,97.585z"/>
	<path id="path93" inkscape:connector-curvature="0" opacity="0.15" fill="#FFFFFF" enable-background="new    " d="M177.892,91.888
		c0,0-1.52-15.099-15.96-15.099c-14.288,0-15.963,15.099-15.963,15.099c0-8.814,7.147-15.961,15.963-15.961
		C170.745,75.925,177.892,83.073,177.892,91.888z"/>
</g>
</svg>
