<svg xmlns="http://www.w3.org/2000/svg" width="16" height="16" viewBox="0 0 16 16">
 <defs>
  <style id="current-color-scheme" type="text/css">
   .ColorScheme-Text { color:#5c616c; } .ColorScheme-Highlight { color:#5294e2; }
  </style>
 </defs>
 <path style="fill:currentColor" class="ColorScheme-Text" d="M 12.5 1 A 2.4999375 2.4999275 0 0 0 10.050781 3 L 4.5 3 C 3.1193345 3 2 4.61934 2 6 C 2 7.38066 3.1193345 9 4.5 9 L 11.5 9 C 12.327979 9 13 10.172024 13 11 C 13 11.827976 12.327979 13 11.5 13 L 5.9453125 13 A 2.4999375 2.4999275 0 0 0 3.5 11 A 2.4999375 2.4999275 0 0 0 1 13.5 A 2.4999375 2.4999275 0 0 0 3.5 16 A 2.4999375 2.4999275 0 0 0 5.9492188 14 L 11.5 14 C 12.880965 14 14 12.38096 14 11 C 14 9.61934 12.880965 8 11.5 8 L 4.5 8 C 3.6716207 8 3 6.828376 3 6 C 3 5.171624 3.6716207 4 4.5 4 L 10.054688 4 A 2.4999375 2.4999275 0 0 0 12.5 6 A 2.4999375 2.4999275 0 0 0 15 3.5 A 2.4999375 2.4999275 0 0 0 12.5 1 z"/>
</svg>
