<svg xmlns="http://www.w3.org/2000/svg" width="16" height="16" version="1.1">
 <defs>
  <style id="current-color-scheme" type="text/css">
   .ColorScheme-Text { color:#444444; } .ColorScheme-Highlight { color:#4285f4; } .ColorScheme-NeutralText { color:#ff9800; } .ColorScheme-PositiveText { color:#4caf50; } .ColorScheme-NegativeText { color:#f44336; }
  </style>
 </defs>
 <path style="fill:currentColor" class="ColorScheme-Text" d="M 8,8 6,4 H 10 Z M 2,2 C 1,2 1,3 1,3 V 7 H 3 V 4 H 5.9922 L 6,2 Z M 10,2 V 4 H 13 V 7 H 15 V 3 C 15,2 14,2 14,2 Z M 1,9 V 13 C 1,14 2,14 2,14 H 6 V 12 H 3 V 9 Z M 13,9 V 12 H 10 V 14 H 14 C 14,14 15,14 15,13 V 9 Z M 8,8 6,12 H 10 Z"/>
</svg>
