<svg xmlns="http://www.w3.org/2000/svg" width="16" height="16" viewBox="0 0 16 16">
 <defs>
  <style id="current-color-scheme" type="text/css">
   .ColorScheme-Text { color:#444444; } .ColorScheme-Highlight { color:#4285f4; }
  </style>
 </defs>
 <path style="fill:currentColor" class="ColorScheme-Text" d="M 11 2 L 8 5 L 10 5 L 10 8 L 12 8 L 12 5 L 14 5 L 11 2 z M 3.1875 2.0039062 C 2.5248 2.0039062 2 2.5527563 2 3.2226562 L 2 7.0039062 L 4 7.0039062 L 4 4.0039062 L 7 4.0039062 L 7 2.0039062 L 3.1875 2.0039062 z M 2 8 L 2 14 L 8 14 L 8 8 L 2 8 z M 12 9.0039062 L 12 12.003906 L 9 12.003906 L 9 14.003906 L 12.8125 14.003906 C 13.4755 14.003906 14 13.455156 14 12.785156 L 14 9.0039062 L 12 9.0039062 z"/>
</svg>
