<svg xmlns="http://www.w3.org/2000/svg" width="16" height="16" version="1.1">
 <defs>
  <style id="current-color-scheme" type="text/css">
   .ColorScheme-Text { color:#444444; } .ColorScheme-Highlight { color:#4285f4; } .ColorScheme-NeutralText { color:#ff9800; } .ColorScheme-PositiveText { color:#4caf50; } .ColorScheme-NegativeText { color:#f44336; }
  </style>
 </defs>
 <path style="fill:currentColor" class="ColorScheme-Highlight" d="M 4.5,0 A 3.5,3.5 0 0 0 1,3.5 3.5,3.5 0 0 0 1.234375,4.7558594 C 2.486475,2.7692594 4.581625,1.3678062 7.015625,1.0664062 A 3.5,3.5 0 0 0 4.5,0 Z M 11.5,0 A 3.5,3.5 0 0 0 8.988282,1.0664062 C 11.419981,1.3687063 13.511672,2.7696063 14.763672,4.7539062 A 3.5,3.5 0 0 0 15,3.5 3.5,3.5 0 0 0 11.5,0 Z M 8,2 A 7,7 0 0 0 1,9 7,7 0 0 0 2.646485,13.509766 7,7 0 0 0 3.107422,14.005859 1,1 0 0 0 2.292969,14.292969 1,1 0 0 0 2.292969,15.707031 1,1 0 0 0 3.707032,15.707031 1,1 0 0 0 3.953125,14.701172 7,7 0 0 0 4.542969,15.076172 7,7 0 0 0 5.138672,15.378906 7,7 0 0 0 5.195313,15.404297 7,7 0 0 0 5.732422,15.613281 7,7 0 0 0 5.902344,15.669922 7,7 0 0 0 6.390625,15.804688 7,7 0 0 0 6.583985,15.847656 7,7 0 0 0 7.06836,15.929688 7,7 0 0 0 7.292969,15.957031 7,7 0 0 0 7.814454,15.994141 7,7 0 0 0 8,16 7,7 0 0 0 8.699219,15.964844 7,7 0 0 0 12.023438,14.722656 7,7 0 0 0 12.044922,14.708984 1,1 0 0 0 12.292969,15.707031 1,1 0 0 0 13.707031,15.707031 1,1 0 0 0 13.707031,14.292969 1,1 0 0 0 12.880859,14.007812 7,7 0 0 0 13.326172,13.529297 7,7 0 0 0 13.357422,13.496094 7,7 0 0 0 13.369141,13.480469 7,7 0 0 0 13.738281,12.994141 7,7 0 0 0 13.796875,12.914062 7,7 0 0 0 14.091797,12.431641 7,7 0 0 0 14.164062,12.304688 7,7 0 0 0 14.400391,11.8125 7,7 0 0 0 14.464844,11.669922 7,7 0 0 0 14.632812,11.207031 7,7 0 0 0 14.705078,10.988281 7,7 0 0 0 14.818359,10.546875 7,7 0 0 0 14.871094,10.3125 7,7 0 0 0 14.9375,9.863281 7,7 0 0 0 14.96875,9.609375 7,7 0 0 0 15,9 7,7 0 0 0 8,2 Z M 8,4 A 5,5 0 0 1 13,9 5,5 0 0 1 8,14 5,5 0 0 1 3,9 5,5 0 0 1 3.025391,8.5 5,5 0 0 1 8,4 Z M 9.929688,6.998047 A 0.50005,0.50005 0 0 0 9.699219,7.070312 L 7.25,8.484375 A 0.50005,0.50005 0 0 0 7.066407,9.166015 L 8.833985,12.228516 A 0.50005,0.50005 0 0 0 9.757813,12.099609 0.50005,0.50005 0 0 0 9.701172,11.728516 L 8.183594,9.099609 10.199219,7.935547 A 0.50005,0.50005 0 0 0 9.929688,6.998047 Z"/>
</svg>
