<svg xmlns="http://www.w3.org/2000/svg" width="16" height="16" version="1.1">
 <defs>
  <style id="current-color-scheme" type="text/css">
   .ColorScheme-Text { color:#444444; } .ColorScheme-Highlight { color:#4285f4; } .ColorScheme-NeutralText { color:#ff9800; } .ColorScheme-PositiveText { color:#4caf50; } .ColorScheme-NegativeText { color:#f44336; }
  </style>
 </defs>
 <path style="opacity:0.35;fill:currentColor" class="ColorScheme-Text" d="m 7.58,10 -1.69,4 4.23,0 -1.69,-4 -0.85,0 z"/>
 <path style="fill:currentColor" class="ColorScheme-Text" d="M 1.5032,7 C 1.1263,7.0006 0.93787,7.2974 1.0188,7.6211 L 1.2688,8.6211 C 1.3244,8.8435 1.524,8.9997 1.7532,9 H 14.251 C 14.48,8.9995 14.679,8.8433 14.735,8.6211 L 14.985,7.6211 C 15.064,7.3059 14.826,7.0008 14.501,7 Z M 8,0 C 7.35,1.27 6.53,2.64 5.19,4.19 4.59,4.87 4,5.47 3.43,6 H 12.53 C 11.99,5.5 11.44,4.94 10.87,4.3 9.48,2.72 8.63,1.28 8,0 Z M 9.55,0.78 C 10.09,1.68 10.75,2.65 11.62,3.64 12.47,4.6 13.29,5.37 14.06,6 H 14.5 L 13.06,2 C 12,2.02 10.78,1.53 9.99,1.08 9.83,0.99 9.69,0.88 9.55,0.78 Z M 6.4,0.85 C 5.41,1.46 4.04,2.02 2.94,2 2.94,2 2.03,4.55 1.51,6 H 1.92 C 2.71,5.34 3.56,4.53 4.43,3.53 5.23,2.61 5.87,1.7 6.4,0.85 Z M 2.18,10 C 2.42,11.81 2.64,15 3.87,15 H 5.46 L 4.01,12.49 C 3.99,12.45 4,12.4 4.03,12.37 L 6.84,9.99 Z M 9.16,9.99 11.97,12.37 C 12,12.4 12.01,12.45 11.99,12.49 L 10.54,15 H 12.12 C 13.34,15 13.57,11.81 13.82,10 Z"/>
</svg>
