<svg xmlns="http://www.w3.org/2000/svg" width="16" height="16" version="1.1">
 <defs>
  <style id="current-color-scheme" type="text/css">
   .ColorScheme-Text { color:#444444; } .ColorScheme-Highlight { color:#4285f4; } .ColorScheme-NeutralText { color:#ff9800; } .ColorScheme-PositiveText { color:#4caf50; } .ColorScheme-NegativeText { color:#f44336; }
  </style>
 </defs>
 <path style="fill:currentColor" class="ColorScheme-Text" d="M -2e-4,2 V 14 H 1.9998 V 2 Z M 3.9998,2 V 14 L 8.252,13.967 C 11.183,13.934 11.46,13.895 12.699,13.291 15.401,11.975 16.679,8.786 15.64,5.9472 14.954,4.0721 13.392,2.6844 11.403,2.1795 10.778,2.0209 10.383,1.9998 7.955,1.9998 H 3.9993 Z M 10,4 C 11.482,4 12.413,4.5583 13,5.25 V 4 H 14 V 6 7 H 13 11 V 6 H 12.312 C 11.877,5.443 11.17,5 10,5 6.9998,5 6.9998,8 6.9998,8 H 5.9998 C 5.9998,8 5.9998,4 10,4 Z M 13,8 H 14 C 14,8 14,12 10,12 8.517,12 7.587,11.442 6.9998,10.75 V 12 H 5.9998 V 10 9 H 6.9998 9 V 10 H 7.687 C 8.123,10.557 8.83,11 10,11 13,11 13,8 13,8 Z"/>
</svg>
