<svg xmlns="http://www.w3.org/2000/svg" width="16" height="16" version="1.1">
 <defs>
  <style id="current-color-scheme" type="text/css">
   .ColorScheme-Text { color:#444444; } .ColorScheme-Highlight { color:#4285f4; } .ColorScheme-NeutralText { color:#ff9800; } .ColorScheme-PositiveText { color:#4caf50; } .ColorScheme-NegativeText { color:#f44336; }
  </style>
 </defs>
 <path style="fill:currentColor;opacity:.35" class="ColorScheme-Text" d="M 4 1 C 3 1 3 2 3 2 L 3 14 C 3 14 3 15 4 15 L 10 15 C 10 14.483086 10.188612 13.978203 10.554688 13.591797 A 1.0001 1.0001 0 0 1 10.572266 13.572266 L 10.644531 13.5 L 10.572266 13.427734 C 10.182753 13.038221 10 12.518095 10 12 L 5 12 L 5 4.0019531 L 11 4 L 11 10 L 12 10 C 12.346929 10 12.691077 10.090619 13 10.261719 L 13 2 C 13 2 13 1 12 1 L 4 1 z M 7.5 13 L 8.5 13 C 8.5 13 9 13 9 13.5 C 9 14 8.5 14 8.5 14 L 7.5 14 C 7.5 14 7 14 7 13.5 C 7 13 7.5 13 7.5 13 z"/>
 <path style="fill:currentColor" class="ColorScheme-Text" d="m 11,11 v 1 c 0,0.28 0.1,0.54 0.28,0.72 l 0.78,0.78 -0.78,0.78 C 11.1,14.47 11,14.73 11,15 v 1 h 1 c 0.28,0 0.54,-0.1 0.72,-0.28 l 0.78,-0.78 0.78,0.78 C 14.46,15.9 14.73,16 15,16 h 1 v -1 c 0,-0.27 -0.1,-0.53 -0.28,-0.72 L 14.94,13.5 15.72,12.72 C 15.9,12.54 16,12.28 16,12 v -1 h -1 c -0.27,0 -0.54,0.1 -0.72,0.28 L 13.5,12.07 12.72,11.28 C 12.54,11.1 12.28,11 12,11 Z"/>
</svg>
