<svg xmlns="http://www.w3.org/2000/svg" width="32" height="32" version="1">
 <rect style="opacity:0.2" width="28" height="28" x="-31" y="-30" rx="1.4" ry="1.4" transform="matrix(0,-1,-1,0,0,0)"/>
 <rect width="28" height="28" x="-30" y="-30" rx="1.4" ry="1.4" transform="matrix(0,-1,-1,0,0,0)" style="fill:#4f4f4f"/>
 <path style="fill:#ffffff;opacity:0.1" d="M 3.4003906 2 C 2.6247906 2 2 2.6247906 2 3.4003906 L 2 4.4003906 C 2 3.6247906 2.6247906 3 3.4003906 3 L 28.599609 3 C 29.375209 3 30 3.6247906 30 4.4003906 L 30 3.4003906 C 30 2.6247906 29.375209 2 28.599609 2 L 3.4003906 2 z"/>
 <path style="opacity:0.3;fill:none;stroke:#000000;stroke-width:2" d="m 16,8 v 8 0 0 M 6,24 h 10 v -8 h 10"/>
 <path d="m 16,7 a 2,2 0 0 0 -2,2 2,2 0 0 0 2,2 2,2 0 0 0 2,-2 2,2 0 0 0 -2,-2 z m 0,8 a 2,2 0 0 0 -2,2 2,2 0 0 0 2,2 2,2 0 0 0 2,-2 2,2 0 0 0 -2,-2 z m 10,0 a 2,2 0 0 0 -2,2 2,2 0 0 0 2,2 2,2 0 0 0 2,-2 2,2 0 0 0 -2,-2 z M 6,23 a 2,2 0 0 0 -2,2 2,2 0 0 0 2,2 2,2 0 0 0 2,-2 2,2 0 0 0 -2,-2 z m 10,0 a 2,2 0 0 0 -2,2 2,2 0 0 0 2,2 2,2 0 0 0 2,-2 2,2 0 0 0 -2,-2 z" style="opacity:0.2"/>
 <path style="fill:#ffffff" d="M 16 6 A 2 2 0 0 0 14 8 A 2 2 0 0 0 16 10 A 2 2 0 0 0 18 8 A 2 2 0 0 0 16 6 z M 16 14 A 2 2 0 0 0 14 16 A 2 2 0 0 0 16 18 A 2 2 0 0 0 18 16 A 2 2 0 0 0 16 14 z M 26 14 A 2 2 0 0 0 24 16 A 2 2 0 0 0 26 18 A 2 2 0 0 0 28 16 A 2 2 0 0 0 26 14 z M 6 22 A 2 2 0 0 0 4 24 A 2 2 0 0 0 6 26 A 2 2 0 0 0 8 24 A 2 2 0 0 0 6 22 z M 16 22 A 2 2 0 0 0 14 24 A 2 2 0 0 0 16 26 A 2 2 0 0 0 18 24 A 2 2 0 0 0 16 22 z"/>
</svg>
