<?xml version="1.0" encoding="UTF-8" standalone="no"?>
<!-- Created with Inkscape (http://www.inkscape.org/) -->

<svg
   xmlns:osb="http://www.openswatchbook.org/uri/2009/osb"
   xmlns:dc="http://purl.org/dc/elements/1.1/"
   xmlns:cc="http://creativecommons.org/ns#"
   xmlns:rdf="http://www.w3.org/1999/02/22-rdf-syntax-ns#"
   xmlns:svg="http://www.w3.org/2000/svg"
   xmlns="http://www.w3.org/2000/svg"
   xmlns:sodipodi="http://sodipodi.sourceforge.net/DTD/sodipodi-0.dtd"
   xmlns:inkscape="http://www.inkscape.org/namespaces/inkscape"
   sodipodi:docname="cpu.svg"
   inkscape:export-filename="/home/sam/source-symbolic.png"
   inkscape:export-xdpi="270"
   inkscape:export-ydpi="270"
   height="16"
   id="svg7384"
   style="enable-background:new"
   version="1.1"
   inkscape:version="0.91 r13725"
   width="16">
  <sodipodi:namedview
     inkscape:bbox-nodes="true"
     inkscape:bbox-paths="false"
     bordercolor="#666666"
     borderlayer="false"
     borderopacity="1"
     inkscape:current-layer="layer10"
     inkscape:cx="-11.169877"
     inkscape:cy="6.0000305"
     gridtolerance="10"
     inkscape:guide-bbox="true"
     guidetolerance="10"
     id="namedview88"
     inkscape:object-nodes="true"
     inkscape:object-paths="true"
     objecttolerance="10"
     pagecolor="#f7f7f7"
     inkscape:pageopacity="1"
     inkscape:pageshadow="2"
     showborder="true"
     showgrid="false"
     showguides="true"
     inkscape:showpageshadow="false"
     inkscape:snap-bbox="true"
     inkscape:snap-bbox-edge-midpoints="false"
     inkscape:snap-bbox-midpoints="true"
     inkscape:snap-center="false"
     inkscape:snap-global="true"
     inkscape:snap-grids="true"
     inkscape:snap-intersection-paths="true"
     inkscape:snap-midpoints="true"
     inkscape:snap-nodes="true"
     inkscape:snap-object-midpoints="true"
     inkscape:snap-others="true"
     inkscape:snap-page="false"
     inkscape:snap-smooth-nodes="true"
     inkscape:snap-to-guides="true"
     inkscape:window-height="847"
     inkscape:window-maximized="1"
     inkscape:window-width="1600"
     inkscape:window-x="0"
     inkscape:window-y="0"
     inkscape:zoom="11.42">
    <inkscape:grid
       color="#000000"
       dotted="false"
       empcolor="#0800ff"
       empopacity="0.4627451"
       empspacing="4"
       enabled="true"
       id="grid4866"
       opacity="0.16470588"
       originx="-64.000227"
       originy="-376.00333"
       snapvisiblegridlinesonly="true"
       spacingx="0.25px"
       spacingy="0.25px"
       type="xygrid"
       visible="true" />
  </sodipodi:namedview>
  <metadata
     id="metadata90">
    <rdf:RDF>
      <cc:Work
         rdf:about="">
        <dc:format>image/svg+xml</dc:format>
        <dc:type
           rdf:resource="http://purl.org/dc/dcmitype/StillImage" />
        <dc:title>Paper Symbolic Icon Theme</dc:title>
      </cc:Work>
    </rdf:RDF>
  </metadata>
  <title
     id="title8473">Paper Symbolic Icon Theme</title>
  <defs
     id="defs7386">
    <linearGradient
       id="linearGradient5606"
       osb:paint="solid">
      <stop
         id="stop5608"
         offset="0"
         style="stop-color:#000000;stop-opacity:1;" />
    </linearGradient>
    <filter
       inkscape:collect="always"
       id="filter7554"
       style="color-interpolation-filters:sRGB">
      <feBlend
         inkscape:collect="always"
         id="feBlend7556"
         in2="BackgroundImage"
         mode="darken" />
    </filter>
  </defs>
  <g
     inkscape:groupmode="layer"
     id="layer9"
     inkscape:label="status"
     style="display:inline"
     transform="translate(-305.00043,159.00333)" />
  <g
     inkscape:groupmode="layer"
     id="layer10"
     inkscape:label="devices"
     style="display:inline;filter:url(#filter7554)"
     transform="translate(-305.00043,159.00333)">
    <g
       id="g4421">
      <path
         style="opacity:0.5;fill:#000000;fill-opacity:1;stroke:none;stroke-width:3;stroke-linecap:round;stroke-linejoin:round;stroke-miterlimit:4;stroke-dasharray:none;stroke-opacity:1"
         d="M 4.2265625 0 C 4.1014531 0 4 0.10145309 4 0.2265625 L 4 2 L 2.2851562 2 C 2.1269893 2 2 2.1269893 2 2.2851562 L 2 4 L 0.2265625 4 C 0.10145309 4 0 4.1014531 0 4.2265625 L 0 5.7734375 C 0 5.8985469 0.10145309 6 0.2265625 6 L 2 6 L 2 7 L 0.2265625 7 C 0.10145309 7 0 7.1014531 0 7.2265625 L 0 8.7734375 C 0 8.8985469 0.10145309 9 0.2265625 9 L 2 9 L 2 10 L 0.2265625 10 C 0.10145309 10 0 10.101453 0 10.226562 L 0 11.773438 C 0 11.898547 0.10145309 12 0.2265625 12 L 2 12 L 2 13.714844 C 2 13.873011 2.1269893 14 2.2851562 14 L 4 14 L 4 15.773438 C 4 15.898547 4.1014531 16 4.2265625 16 L 5.7734375 16 C 5.8985469 16 6 15.898547 6 15.773438 L 6 14 L 7 14 L 7 15.773438 C 7 15.898547 7.1014531 16 7.2265625 16 L 8.7734375 16 C 8.8985469 16 9 15.898547 9 15.773438 L 9 14 L 10 14 L 10 15.773438 C 10 15.898547 10.101453 16 10.226562 16 L 11.773438 16 C 11.898547 16 12 15.898547 12 15.773438 L 12 14 L 13.714844 14 C 13.873011 14 14 13.873011 14 13.714844 L 14 12 L 15.773438 12 C 15.898547 12 16 11.898547 16 11.773438 L 16 10.226562 C 16 10.101453 15.898547 10 15.773438 10 L 14 10 L 14 9 L 15.773438 9 C 15.898547 9 16 8.8985469 16 8.7734375 L 16 7.2265625 C 16 7.1014531 15.898547 7 15.773438 7 L 14 7 L 14 6 L 15.773438 6 C 15.898547 6 16 5.8985469 16 5.7734375 L 16 4.2265625 C 16 4.1014531 15.898547 4 15.773438 4 L 14 4 L 14 2.2851562 C 14 2.1269893 13.873011 2 13.714844 2 L 12 2 L 12 0.2265625 C 12 0.10145309 11.898547 0 11.773438 0 L 10.226562 0 C 10.101453 0 10 0.10145309 10 0.2265625 L 10 2 L 9 2 L 9 0.2265625 C 9 0.10145309 8.8985469 0 8.7734375 0 L 7.2265625 0 C 7.1014531 0 7 0.10145309 7 0.2265625 L 7 2 L 6 2 L 6 0.2265625 C 6 0.10145309 5.8985469 0 5.7734375 0 L 4.2265625 0 z "
         transform="translate(305.00043,-159.00333)"
         id="rect4415" />
    </g>
    <g
       id="g4426"
       transform="matrix(0,1,-1,0,161.9971,-464.00375)" />
  </g>
  <g
     inkscape:groupmode="layer"
     id="layer1"
     inkscape:label="places"
     style="display:inline"
     transform="translate(-64.000227,-457.99667)" />
  <g
     inkscape:groupmode="layer"
     id="layer14"
     inkscape:label="mimetypes"
     style="display:inline"
     transform="translate(-305.00043,159.00333)" />
  <g
     inkscape:groupmode="layer"
     id="layer15"
     inkscape:label="emblems"
     style="display:inline"
     transform="translate(-305.00043,159.00333)" />
  <g
     inkscape:groupmode="layer"
     id="g71291"
     inkscape:label="emotes"
     style="display:inline"
     transform="translate(-305.00043,159.00333)" />
  <g
     inkscape:groupmode="layer"
     id="layer2"
     inkscape:label="categories"
     style="display:inline"
     transform="translate(-64.000227,-307.99667)" />
  <g
     inkscape:groupmode="layer"
     id="g6058"
     inkscape:label="apps"
     style="display:inline"
     transform="translate(-64.000227,-307.99667)" />
  <g
     inkscape:groupmode="layer"
     id="layer12"
     inkscape:label="actions"
     style="display:inline"
     transform="translate(-305.00043,159.00333)" />
</svg>
