<svg height="32" width="32" xmlns="http://www.w3.org/2000/svg"><text opacity=".8" x="877.22626" y="-5.1873989"><tspan x="877.22626" y="-5.1873989"/></text><text opacity=".8" x="901.18719" y="-45.929108"><tspan x="901.18719" y="-45.929108"/></text><text opacity=".8" x="-569.37115" y="-76.007248"><tspan x="-569.37115" y="-76.007248"/></text><text opacity=".8" x="-2393.0571" y="669.5462"><tspan x="-2393.0571" y="669.5462"/></text><text opacity=".8" x="-454.88007" y="-461.32822"><tspan x="-454.88007" y="-461.32822"/></text><text opacity=".8" x="352.72208" y="-874.79834"><tspan x="352.72208" y="-874.79834"/></text><text opacity=".8" x="376.68301" y="-915.54004"><tspan x="376.68301" y="-915.54004"/></text><text opacity=".8" x="-1114.7802" y="-922.74994"><tspan x="-1114.7802" y="-922.74994"/></text><text opacity=".8" x="345.7626" y="-1195.9841"><tspan x="345.7626" y="-1195.9841"/></text><text opacity=".8" x="1831.8861" y="-569.29272"><tspan x="1831.8861" y="-569.29272"/></text><text opacity=".8" x="1855.8469" y="-610.03448"><tspan x="1855.8469" y="-610.03448"/></text><text opacity=".8" x="364.38376" y="-617.24438"><tspan x="364.38376" y="-617.24438"/></text><text opacity=".8" x="1824.9266" y="-890.47839"><tspan x="1824.9266" y="-890.47839"/></text><text opacity=".8" x="-573.43256" y="-665.33569"><tspan x="-573.43256" y="-665.33569"/></text><text opacity=".8" x="-2397.1182" y="80.217857"><tspan x="-2397.1182" y="80.217857"/></text><text opacity=".8" x="-682.36279" y="173.09"><tspan x="-682.36279" y="173.09"/></text><text opacity=".8" x="426.66153" y="-6.0921478"><tspan x="426.66153" y="-6.0921478"/></text><text opacity=".8" x="450.62247" y="-46.833855"><tspan x="450.62247" y="-46.833855"/></text><text opacity=".8" x="-1040.8407" y="-54.043827"><tspan x="-1040.8407" y="-54.043827"/></text><text opacity=".8" x="419.70206" y="-327.27789"><tspan x="419.70206" y="-327.27789"/></text><text opacity=".8" x="-608.03253" y="-56.758072"><tspan x="-608.03253" y="-56.758072"/></text><text opacity=".8" x="-2431.7185" y="688.79541"><tspan x="-2431.7185" y="688.79541"/></text><text opacity=".8" x="-456.93948" y="-918.28857"><tspan x="-456.93948" y="-918.28857"/></text><text opacity=".8" x="350.66266" y="-1331.7588"><tspan x="350.66266" y="-1331.7588"/></text><text opacity=".8" x="374.62357" y="-1372.5005"><tspan x="374.62357" y="-1372.5005"/></text><text opacity=".8" x="-1116.8396" y="-1379.7104"><tspan x="-1116.8396" y="-1379.7104"/></text><text opacity=".8" x="343.70316" y="-1652.9446"><tspan x="343.70316" y="-1652.9446"/></text><text opacity=".8" x="1829.8265" y="-1026.2533"><tspan x="1829.8265" y="-1026.2533"/></text><text opacity=".8" x="1853.7874" y="-1066.9949"><tspan x="1853.7874" y="-1066.9949"/></text><text opacity=".8" x="362.32431" y="-1074.2048"><tspan x="362.32431" y="-1074.2048"/></text><text opacity=".8" x="1822.8671" y="-1347.439"><tspan x="1822.8671" y="-1347.439"/></text><text opacity=".8" x="-575.492" y="-1122.2961"><tspan x="-575.492" y="-1122.2961"/></text><text opacity=".8" x="-2399.1777" y="-376.74261"><tspan x="-2399.1777" y="-376.74261"/></text><text opacity=".8" x="-684.42224" y="-283.87045"><tspan x="-684.42224" y="-283.87045"/></text><text opacity=".8" x="155.5923" y="-42.956276"><tspan x="155.5923" y="-42.956276"/></text><text opacity=".8" x="179.55324" y="-83.697998"><tspan x="179.55324" y="-83.697998"/></text><text opacity=".8" x="-1090.2634" y="-277.72662"><tspan x="-1090.2634" y="-277.72662"/></text><text opacity=".8" x="-282.66141" y="-691.19678"><tspan x="-282.66141" y="-691.19678"/></text><text opacity=".8" x="-258.70047" y="-731.93848"><tspan x="-258.70047" y="-731.93848"/></text><text opacity=".8" x="-1750.1636" y="-739.14838"><tspan x="-1750.1636" y="-739.14838"/></text><text opacity=".8" x="-289.62085" y="-1012.3825"><tspan x="-289.62085" y="-1012.3825"/></text><text opacity=".8" x="1196.5026" y="-385.69113"><tspan x="1196.5026" y="-385.69113"/></text><text opacity=".8" x="1220.4634" y="-426.43286"><tspan x="1220.4634" y="-426.43286"/></text><text opacity=".8" x="-270.99973" y="-433.64282"><tspan x="-270.99973" y="-433.64282"/></text><text opacity=".8" x="1189.5431" y="-706.87689"><tspan x="1189.5431" y="-706.87689"/></text><text opacity=".8" x="-1208.816" y="-481.7341"><tspan x="-1208.816" y="-481.7341"/></text><text opacity=".8" x="-3032.5017" y="263.81946"><tspan x="-3032.5017" y="263.81946"/></text><text opacity=".8" transform="matrix(.90475 0 0 .90475 -716.75 -692.29)" x="-664.2738" y="1159.4154"><tspan x="-664.2738" y="1159.4154"/></text><text opacity=".8" x="877.22626" y="2.0505886"><tspan x="877.22626" y="2.0505886"/></text><text opacity=".8" x="901.18719" y="-38.691116"><tspan x="901.18719" y="-38.691116"/></text><text opacity=".8" x="-569.37115" y="-68.769257"><tspan x="-569.37115" y="-68.769257"/></text><text opacity=".8" x="-2393.0571" y="676.78418"><tspan x="-2393.0571" y="676.78418"/></text><text opacity=".8" x="-454.88007" y="-454.09021"><tspan x="-454.88007" y="-454.09021"/></text><text opacity=".8" x="352.72208" y="-867.5603"><tspan x="352.72208" y="-867.5603"/></text><text opacity=".8" x="376.68301" y="-908.30206"><tspan x="376.68301" y="-908.30206"/></text><text opacity=".8" x="-1114.7802" y="-915.51196"><tspan x="-1114.7802" y="-915.51196"/></text><text opacity=".8" x="345.7626" y="-1188.7461"><tspan x="345.7626" y="-1188.7461"/></text><text opacity=".8" x="1831.8861" y="-562.05475"><tspan x="1831.8861" y="-562.05475"/></text><text opacity=".8" x="1855.8469" y="-602.79651"><tspan x="1855.8469" y="-602.79651"/></text><text opacity=".8" x="364.38376" y="-610.00641"><tspan x="364.38376" y="-610.00641"/></text><text opacity=".8" x="1824.9266" y="-883.24036"><tspan x="1824.9266" y="-883.24036"/></text><text opacity=".8" x="-573.43256" y="-658.09772"><tspan x="-573.43256" y="-658.09772"/></text><text opacity=".8" x="-2397.1182" y="87.455849"><tspan x="-2397.1182" y="87.455849"/></text><text opacity=".8" x="-682.36279" y="180.32799"><tspan x="-682.36279" y="180.32799"/></text><text opacity=".8" x="426.66153" y="1.1458397"><tspan x="426.66153" y="1.1458397"/></text><text opacity=".8" x="450.62247" y="-39.595863"><tspan x="450.62247" y="-39.595863"/></text><text opacity=".8" x="-1040.8407" y="-46.805836"><tspan x="-1040.8407" y="-46.805836"/></text><text opacity=".8" x="419.70206" y="-320.03989"><tspan x="419.70206" y="-320.03989"/></text><text opacity=".8" x="-608.03253" y="-49.520081"><tspan x="-608.03253" y="-49.520081"/></text><text opacity=".8" x="-2431.7185" y="696.03345"><tspan x="-2431.7185" y="696.03345"/></text><text opacity=".8" x="-456.93948" y="-911.0506"><tspan x="-456.93948" y="-911.0506"/></text><text opacity=".8" x="350.66266" y="-1324.5208"><tspan x="350.66266" y="-1324.5208"/></text><text opacity=".8" x="374.62357" y="-1365.2626"><tspan x="374.62357" y="-1365.2626"/></text><text opacity=".8" x="-1116.8396" y="-1372.4724"><tspan x="-1116.8396" y="-1372.4724"/></text><text opacity=".8" x="343.70316" y="-1645.7065"><tspan x="343.70316" y="-1645.7065"/></text><text opacity=".8" x="1829.8265" y="-1019.0153"><tspan x="1829.8265" y="-1019.0153"/></text><text opacity=".8" x="1853.7874" y="-1059.757"><tspan x="1853.7874" y="-1059.757"/></text><text opacity=".8" x="362.32431" y="-1066.9668"><tspan x="362.32431" y="-1066.9668"/></text><text opacity=".8" x="1822.8671" y="-1340.2009"><tspan x="1822.8671" y="-1340.2009"/></text><text opacity=".8" x="-575.492" y="-1115.0581"><tspan x="-575.492" y="-1115.0581"/></text><text opacity=".8" x="-2399.1777" y="-369.50461"><tspan x="-2399.1777" y="-369.50461"/></text><text opacity=".8" x="-684.42224" y="-276.63245"><tspan x="-684.42224" y="-276.63245"/></text><text opacity=".8" x="155.5923" y="-35.718292"><tspan x="155.5923" y="-35.718292"/></text><text opacity=".8" x="179.55324" y="-76.460007"><tspan x="179.55324" y="-76.460007"/></text><text opacity=".8" x="-1090.2634" y="-270.48859"><tspan x="-1090.2634" y="-270.48859"/></text><text opacity=".8" x="-282.66141" y="-683.9588"><tspan x="-282.66141" y="-683.9588"/></text><text opacity=".8" x="-258.70047" y="-724.7005"><tspan x="-258.70047" y="-724.7005"/></text><text opacity=".8" x="-1750.1636" y="-731.91046"><tspan x="-1750.1636" y="-731.91046"/></text><text opacity=".8" x="-289.62085" y="-1005.1445"><tspan x="-289.62085" y="-1005.1445"/></text><text opacity=".8" x="1196.5026" y="-378.45316"><tspan x="1196.5026" y="-378.45316"/></text><text opacity=".8" x="1220.4634" y="-419.19489"><tspan x="1220.4634" y="-419.19489"/></text><text opacity=".8" x="-270.99973" y="-426.40482"><tspan x="-270.99973" y="-426.40482"/></text><text opacity=".8" x="1189.5431" y="-699.63892"><tspan x="1189.5431" y="-699.63892"/></text><text opacity=".8" x="-1208.816" y="-474.49609"><tspan x="-1208.816" y="-474.49609"/></text><text opacity=".8" x="-3032.5017" y="271.05743"><tspan x="-3032.5017" y="271.05743"/></text><text opacity=".8" transform="matrix(.90475 0 0 .90475 -716.75 -685.05)" x="-664.2738" y="1159.4154"><tspan x="-664.2738" y="1159.4154"/></text><text x="435.90427" y="-377.22546"><tspan x="435.90427" y="-377.22546"/><tspan x="435.90427" y="-361.3924"/></text><text opacity=".8" x="901.0882" y="-859.27002"><tspan x="901.0882" y="-859.27002"/></text><text opacity=".8" x="-922.59778" y="-113.71655"><tspan x="-922.59778" y="-113.71655"/></text><text opacity=".8" x="1628.1677" y="-1144.2659"><tspan x="1628.1677" y="-1144.2659"/></text><text opacity=".8" x="1652.1285" y="-1185.0076"><tspan x="1652.1285" y="-1185.0076"/></text><text opacity=".8" x="160.66542" y="-1192.2175"><tspan x="160.66542" y="-1192.2175"/></text><text opacity=".8" x="1621.2083" y="-1465.4517"><tspan x="1621.2083" y="-1465.4517"/></text><path d="m17.762 10.023s-1.8295-.28227-2.8851.77619c-1.0557 1.0584-1.9707 3.3868-1.9001 4.0924.07028.70562 2.1815-2.399 3.0963-2.6106.91495-.21175 1.9001-1.7642 1.6889-2.258z"/><path d="m26.974-.00000046c-.762 0-2.24 1.8059-2.794 2.091-.555.2851-4.942 3.5164-5.357 4.0867-.416.5702-.97.8078-1.57.7603-.601-.0474-2.498-.067-3.145.3131-.646.3803-3.597 3.4889-4.3363 3.8689-.73882.38006-1.7028.57479-2.1646.62235-.46171.04746-1.9915 1.801-2.4071 2.1337-.4156.33271-3.6997 1.7951-4.1615 2.08-.46182.28515 3.369 4.2784 3.9231 4.3734.55415.09518-1.436 1.3554-1.4479 2.2588-.0118.90122.95278 3.5853 6.5482 6.7439 4.8373 2.7306 9.9474 1.4156 11.876.85946.76516-.22067.48381-2.7557.62541-4.1029.09244-.85534.41555-8.0309 1.6163-9.9317 1.2006-1.9006 4.6322-4.1825 5.8329-4.42 1.2007-.23759.96975-.71281.96975-1.1404 0-.42762-.18467-1.3781-.50799-1.5206-.32322-.14252-1.5845.71356-2.0001.80857-.4156.09502-2.4013.23764-2.6785-.23753-.277-.4749 2.24-5.322 2.563-5.8922.323-.5703.462-1.3307-.139-2.1384-.6-.80797-1.015-1.6158-1.246-1.6158z" fill="#608ab5"/><path d="m16.976 11.027328c0 0-1.5189-.2255-2.3953.6201-.87644.84556-1.6361 2.7057-1.5775 3.2694.05835.56372 1.8112-1.9166 2.5706-2.0856.75962-.16917 1.5775-1.4094 1.4022-1.8039z" opacity=".2"/><path d="m16.976 10.027s-1.5189-.2255-2.3953.6201c-.87644.84556-1.6361 2.7057-1.5775 3.2694.05835.56372 1.8112-1.9166 2.5706-2.0856.75962-.16917 1.5775-1.4094 1.4022-1.8039z" fill="#fff"/><path d="m26.975 0c-.762 0-2.241 1.8067-2.795 2.0918s-4.942 3.5156-5.358 4.0859c-.415.5702-.97.8073-1.57.7598s-2.498-.0657-3.145.3145c-.646.3802-3.597 3.487-4.3355 3.867-.7388.38-1.7023.576-2.1641.623-.4617.048-1.9926 1.8-2.4082 2.133s-3.6984 1.795-4.1601 2.08c-.11811.073.0486.392.3652.822.8308-.431 3.4155-1.598 3.7949-1.902.4156-.333 1.9465-2.085 2.4082-2.133.4618-.047 1.4253-.243 2.1641-.623.7385-.38 3.6895-3.4868 4.3355-3.867.647-.3802 2.545-.362 3.145-.3145s1.155-.1896 1.57-.7598c.416-.5703 4.804-3.8008 5.358-4.0859s2.033-2.0918 2.795-2.0918c.23 0 .646.8072 1.246 1.6152.173.2336.272.4615.336.6836.149-.4936.116-1.0753-.336-1.6836-.6-.80795-1.016-1.6152-1.246-1.6152zm3.337 9.0664c-.463.0697-1.474.7352-1.837.8184-.365.0832-1.935.2022-2.504-.0899-.149.4201-.236.7491-.176.8511.277.476 2.264.334 2.68.239.415-.095 1.676-.9513 2-.809.246.109.411.683.476 1.141.08-.197.031-.415.031-.621 0-.428-.184-1.3773-.507-1.5198-.041-.0178-.096-.0197-.163-.0098zm-25.773 11.995c-.449.457-1.019 1.036-1.0254 1.527-.002.15.0399.368.1093.611.4057-.839 1.8159-1.787 1.3379-1.869-.0786-.013-.233-.121-.4218-.269z" fill="#fff" opacity=".2"/><path d="m28.557 2.2989c-.04895.16186-.11743.31425-.19727.45508-.32327.57024-2.8415 5.4173-2.5645 5.8926.03423.058695.09559.10734.17578.14844.54456-1.5348 2.1349-4.5933 2.3887-5.041.22984-.40542.35328-.90882.19727-1.4551zm2.3945 7.918c-.08517.21046-.31865.39669-.93945.51953-1.2007.23759-4.6314 2.5193-5.832 4.4199-1.2007 1.9008-1.5247 9.0763-1.6172 9.9316-.1416 1.3473.14016 3.8828-.625 4.1035-1.9284.55614-7.0377 1.8712-11.875-.85938-4.6614-2.6313-6.0929-4.9165-6.4395-6.1328-.064643.13371-.10775.26449-.10938.38867-.0118.90122.95339 3.5856 6.5488 6.7441 4.8373 2.7306 9.9466 1.4155 11.875.85938.76516-.22067.4834-2.7562.625-4.1035.09244-.85534.41645-8.0309 1.6172-9.9316 1.2006-1.9006 4.6313-4.1823 5.832-4.4199 1.2007-.23759.9707-.71301.9707-1.1406 0-.10215-.0108-.23522-.03125-.37891zm-29.548 5.56c-.079211.04113-.32504.15293-.36523.17773-.39631.2447 2.3574 3.2062 3.5 4.1055.37803-.38506.6752-.68696.42188-.73047-.41247-.07068-2.6349-2.2992-3.5566-3.5527z" opacity=".3"/></svg>