<svg height="32" width="32" xmlns="http://www.w3.org/2000/svg"><text opacity=".8" x="877.22626" y="-5.1873989"><tspan x="877.22626" y="-5.1873989"/></text><text opacity=".8" x="901.18719" y="-45.929108"><tspan x="901.18719" y="-45.929108"/></text><text opacity=".8" x="-569.37115" y="-76.007248"><tspan x="-569.37115" y="-76.007248"/></text><text opacity=".8" x="-2393.0571" y="669.5462"><tspan x="-2393.0571" y="669.5462"/></text><text opacity=".8" x="-454.88007" y="-461.32822"><tspan x="-454.88007" y="-461.32822"/></text><text opacity=".8" x="352.72208" y="-874.79834"><tspan x="352.72208" y="-874.79834"/></text><text opacity=".8" x="376.68301" y="-915.54004"><tspan x="376.68301" y="-915.54004"/></text><text opacity=".8" x="-1114.7802" y="-922.74994"><tspan x="-1114.7802" y="-922.74994"/></text><text opacity=".8" x="345.7626" y="-1195.9841"><tspan x="345.7626" y="-1195.9841"/></text><text opacity=".8" x="1831.8861" y="-569.29272"><tspan x="1831.8861" y="-569.29272"/></text><text opacity=".8" x="1855.8469" y="-610.03448"><tspan x="1855.8469" y="-610.03448"/></text><text opacity=".8" x="364.38376" y="-617.24438"><tspan x="364.38376" y="-617.24438"/></text><text opacity=".8" x="1824.9266" y="-890.47839"><tspan x="1824.9266" y="-890.47839"/></text><text opacity=".8" x="-573.43256" y="-665.33569"><tspan x="-573.43256" y="-665.33569"/></text><text opacity=".8" x="-2397.1182" y="80.217857"><tspan x="-2397.1182" y="80.217857"/></text><text opacity=".8" x="-682.36279" y="173.09"><tspan x="-682.36279" y="173.09"/></text><text opacity=".8" x="426.66153" y="-6.0921478"><tspan x="426.66153" y="-6.0921478"/></text><text opacity=".8" x="450.62247" y="-46.833855"><tspan x="450.62247" y="-46.833855"/></text><text opacity=".8" x="-1040.8407" y="-54.043827"><tspan x="-1040.8407" y="-54.043827"/></text><text opacity=".8" x="419.70206" y="-327.27789"><tspan x="419.70206" y="-327.27789"/></text><text opacity=".8" x="-608.03253" y="-56.758072"><tspan x="-608.03253" y="-56.758072"/></text><text opacity=".8" x="-2431.7185" y="688.79541"><tspan x="-2431.7185" y="688.79541"/></text><text opacity=".8" x="-456.93948" y="-918.28857"><tspan x="-456.93948" y="-918.28857"/></text><text opacity=".8" x="350.66266" y="-1331.7588"><tspan x="350.66266" y="-1331.7588"/></text><text opacity=".8" x="374.62357" y="-1372.5005"><tspan x="374.62357" y="-1372.5005"/></text><text opacity=".8" x="-1116.8396" y="-1379.7104"><tspan x="-1116.8396" y="-1379.7104"/></text><text opacity=".8" x="343.70316" y="-1652.9446"><tspan x="343.70316" y="-1652.9446"/></text><text opacity=".8" x="1829.8265" y="-1026.2533"><tspan x="1829.8265" y="-1026.2533"/></text><text opacity=".8" x="1853.7874" y="-1066.9949"><tspan x="1853.7874" y="-1066.9949"/></text><text opacity=".8" x="362.32431" y="-1074.2048"><tspan x="362.32431" y="-1074.2048"/></text><text opacity=".8" x="1822.8671" y="-1347.439"><tspan x="1822.8671" y="-1347.439"/></text><text opacity=".8" x="-575.492" y="-1122.2961"><tspan x="-575.492" y="-1122.2961"/></text><text opacity=".8" x="-2399.1777" y="-376.74261"><tspan x="-2399.1777" y="-376.74261"/></text><text opacity=".8" x="-684.42224" y="-283.87045"><tspan x="-684.42224" y="-283.87045"/></text><text opacity=".8" x="155.5923" y="-42.956276"><tspan x="155.5923" y="-42.956276"/></text><text opacity=".8" x="179.55324" y="-83.697998"><tspan x="179.55324" y="-83.697998"/></text><text opacity=".8" x="-1090.2634" y="-277.72662"><tspan x="-1090.2634" y="-277.72662"/></text><text opacity=".8" x="-282.66141" y="-691.19678"><tspan x="-282.66141" y="-691.19678"/></text><text opacity=".8" x="-258.70047" y="-731.93848"><tspan x="-258.70047" y="-731.93848"/></text><text opacity=".8" x="-1750.1636" y="-739.14838"><tspan x="-1750.1636" y="-739.14838"/></text><text opacity=".8" x="-289.62085" y="-1012.3825"><tspan x="-289.62085" y="-1012.3825"/></text><text opacity=".8" x="1196.5026" y="-385.69113"><tspan x="1196.5026" y="-385.69113"/></text><text opacity=".8" x="1220.4634" y="-426.43286"><tspan x="1220.4634" y="-426.43286"/></text><text opacity=".8" x="-270.99973" y="-433.64282"><tspan x="-270.99973" y="-433.64282"/></text><text opacity=".8" x="1189.5431" y="-706.87689"><tspan x="1189.5431" y="-706.87689"/></text><text opacity=".8" x="-1208.816" y="-481.7341"><tspan x="-1208.816" y="-481.7341"/></text><text opacity=".8" x="-3032.5017" y="263.81946"><tspan x="-3032.5017" y="263.81946"/></text><text opacity=".8" transform="matrix(.90475 0 0 .90475 -716.75 -692.29)" x="-664.2738" y="1159.4154"><tspan x="-664.2738" y="1159.4154"/></text><text opacity=".8" x="877.22626" y="2.0505886"><tspan x="877.22626" y="2.0505886"/></text><text opacity=".8" x="901.18719" y="-38.691116"><tspan x="901.18719" y="-38.691116"/></text><text opacity=".8" x="-569.37115" y="-68.769257"><tspan x="-569.37115" y="-68.769257"/></text><text opacity=".8" x="-2393.0571" y="676.78418"><tspan x="-2393.0571" y="676.78418"/></text><text opacity=".8" x="-454.88007" y="-454.09021"><tspan x="-454.88007" y="-454.09021"/></text><text opacity=".8" x="352.72208" y="-867.5603"><tspan x="352.72208" y="-867.5603"/></text><text opacity=".8" x="376.68301" y="-908.30206"><tspan x="376.68301" y="-908.30206"/></text><text opacity=".8" x="-1114.7802" y="-915.51196"><tspan x="-1114.7802" y="-915.51196"/></text><text opacity=".8" x="345.7626" y="-1188.7461"><tspan x="345.7626" y="-1188.7461"/></text><text opacity=".8" x="1831.8861" y="-562.05475"><tspan x="1831.8861" y="-562.05475"/></text><text opacity=".8" x="1855.8469" y="-602.79651"><tspan x="1855.8469" y="-602.79651"/></text><text opacity=".8" x="364.38376" y="-610.00641"><tspan x="364.38376" y="-610.00641"/></text><text opacity=".8" x="1824.9266" y="-883.24036"><tspan x="1824.9266" y="-883.24036"/></text><text opacity=".8" x="-573.43256" y="-658.09772"><tspan x="-573.43256" y="-658.09772"/></text><text opacity=".8" x="-2397.1182" y="87.455849"><tspan x="-2397.1182" y="87.455849"/></text><text opacity=".8" x="-682.36279" y="180.32799"><tspan x="-682.36279" y="180.32799"/></text><text opacity=".8" x="426.66153" y="1.1458397"><tspan x="426.66153" y="1.1458397"/></text><text opacity=".8" x="450.62247" y="-39.595863"><tspan x="450.62247" y="-39.595863"/></text><text opacity=".8" x="-1040.8407" y="-46.805836"><tspan x="-1040.8407" y="-46.805836"/></text><text opacity=".8" x="419.70206" y="-320.03989"><tspan x="419.70206" y="-320.03989"/></text><text opacity=".8" x="-608.03253" y="-49.520081"><tspan x="-608.03253" y="-49.520081"/></text><text opacity=".8" x="-2431.7185" y="696.03345"><tspan x="-2431.7185" y="696.03345"/></text><text opacity=".8" x="-456.93948" y="-911.0506"><tspan x="-456.93948" y="-911.0506"/></text><text opacity=".8" x="350.66266" y="-1324.5208"><tspan x="350.66266" y="-1324.5208"/></text><text opacity=".8" x="374.62357" y="-1365.2626"><tspan x="374.62357" y="-1365.2626"/></text><text opacity=".8" x="-1116.8396" y="-1372.4724"><tspan x="-1116.8396" y="-1372.4724"/></text><text opacity=".8" x="343.70316" y="-1645.7065"><tspan x="343.70316" y="-1645.7065"/></text><text opacity=".8" x="1829.8265" y="-1019.0153"><tspan x="1829.8265" y="-1019.0153"/></text><text opacity=".8" x="1853.7874" y="-1059.757"><tspan x="1853.7874" y="-1059.757"/></text><text opacity=".8" x="362.32431" y="-1066.9668"><tspan x="362.32431" y="-1066.9668"/></text><text opacity=".8" x="1822.8671" y="-1340.2009"><tspan x="1822.8671" y="-1340.2009"/></text><text opacity=".8" x="-575.492" y="-1115.0581"><tspan x="-575.492" y="-1115.0581"/></text><text opacity=".8" x="-2399.1777" y="-369.50461"><tspan x="-2399.1777" y="-369.50461"/></text><text opacity=".8" x="-684.42224" y="-276.63245"><tspan x="-684.42224" y="-276.63245"/></text><text opacity=".8" x="155.5923" y="-35.718292"><tspan x="155.5923" y="-35.718292"/></text><text opacity=".8" x="179.55324" y="-76.460007"><tspan x="179.55324" y="-76.460007"/></text><text opacity=".8" x="-1090.2634" y="-270.48859"><tspan x="-1090.2634" y="-270.48859"/></text><text opacity=".8" x="-282.66141" y="-683.9588"><tspan x="-282.66141" y="-683.9588"/></text><text opacity=".8" x="-258.70047" y="-724.7005"><tspan x="-258.70047" y="-724.7005"/></text><text opacity=".8" x="-1750.1636" y="-731.91046"><tspan x="-1750.1636" y="-731.91046"/></text><text opacity=".8" x="-289.62085" y="-1005.1445"><tspan x="-289.62085" y="-1005.1445"/></text><text opacity=".8" x="1196.5026" y="-378.45316"><tspan x="1196.5026" y="-378.45316"/></text><text opacity=".8" x="1220.4634" y="-419.19489"><tspan x="1220.4634" y="-419.19489"/></text><text opacity=".8" x="-270.99973" y="-426.40482"><tspan x="-270.99973" y="-426.40482"/></text><text opacity=".8" x="1189.5431" y="-699.63892"><tspan x="1189.5431" y="-699.63892"/></text><text opacity=".8" x="-1208.816" y="-474.49609"><tspan x="-1208.816" y="-474.49609"/></text><text opacity=".8" x="-3032.5017" y="271.05743"><tspan x="-3032.5017" y="271.05743"/></text><text opacity=".8" transform="matrix(.90475 0 0 .90475 -716.75 -685.05)" x="-664.2738" y="1159.4154"><tspan x="-664.2738" y="1159.4154"/></text><text x="435.90427" y="-377.22546"><tspan x="435.90427" y="-377.22546"/><tspan x="435.90427" y="-361.3924"/></text><text opacity=".8" x="901.0882" y="-859.27002"><tspan x="901.0882" y="-859.27002"/></text><text opacity=".8" x="-922.59778" y="-113.71655"><tspan x="-922.59778" y="-113.71655"/></text><text opacity=".8" x="1628.1677" y="-1144.2659"><tspan x="1628.1677" y="-1144.2659"/></text><text opacity=".8" x="1652.1285" y="-1185.0076"><tspan x="1652.1285" y="-1185.0076"/></text><text opacity=".8" x="160.66542" y="-1192.2175"><tspan x="160.66542" y="-1192.2175"/></text><text opacity=".8" x="1621.2083" y="-1465.4517"><tspan x="1621.2083" y="-1465.4517"/></text><text opacity=".8" x="877.22626" y="-5.1873989"><tspan x="877.22626" y="-5.1873989"/></text><text opacity=".8" x="901.18719" y="-45.929108"><tspan x="901.18719" y="-45.929108"/></text><text opacity=".8" x="-569.37115" y="-76.007248"><tspan x="-569.37115" y="-76.007248"/></text><text opacity=".8" x="-2393.0571" y="669.5462"><tspan x="-2393.0571" y="669.5462"/></text><text opacity=".8" x="-454.88007" y="-461.32822"><tspan x="-454.88007" y="-461.32822"/></text><text opacity=".8" x="352.72208" y="-874.79834"><tspan x="352.72208" y="-874.79834"/></text><text opacity=".8" x="376.68301" y="-915.54004"><tspan x="376.68301" y="-915.54004"/></text><text opacity=".8" x="-1114.7802" y="-922.74994"><tspan x="-1114.7802" y="-922.74994"/></text><text opacity=".8" x="345.7626" y="-1195.9841"><tspan x="345.7626" y="-1195.9841"/></text><text opacity=".8" x="1831.8861" y="-569.29272"><tspan x="1831.8861" y="-569.29272"/></text><text opacity=".8" x="1855.8469" y="-610.03448"><tspan x="1855.8469" y="-610.03448"/></text><text opacity=".8" x="364.38376" y="-617.24438"><tspan x="364.38376" y="-617.24438"/></text><text opacity=".8" x="1824.9266" y="-890.47839"><tspan x="1824.9266" y="-890.47839"/></text><text opacity=".8" x="-573.43256" y="-665.33569"><tspan x="-573.43256" y="-665.33569"/></text><text opacity=".8" x="-2397.1182" y="80.217857"><tspan x="-2397.1182" y="80.217857"/></text><text opacity=".8" x="-682.36279" y="173.09"><tspan x="-682.36279" y="173.09"/></text><text opacity=".8" x="426.66153" y="-6.0921478"><tspan x="426.66153" y="-6.0921478"/></text><text opacity=".8" x="450.62247" y="-46.833855"><tspan x="450.62247" y="-46.833855"/></text><text opacity=".8" x="-1040.8407" y="-54.043827"><tspan x="-1040.8407" y="-54.043827"/></text><text opacity=".8" x="419.70206" y="-327.27789"><tspan x="419.70206" y="-327.27789"/></text><text opacity=".8" x="-608.03253" y="-56.758072"><tspan x="-608.03253" y="-56.758072"/></text><text opacity=".8" x="-2431.7185" y="688.79541"><tspan x="-2431.7185" y="688.79541"/></text><text opacity=".8" x="-456.93948" y="-918.28857"><tspan x="-456.93948" y="-918.28857"/></text><text opacity=".8" x="350.66266" y="-1331.7588"><tspan x="350.66266" y="-1331.7588"/></text><text opacity=".8" x="374.62357" y="-1372.5005"><tspan x="374.62357" y="-1372.5005"/></text><text opacity=".8" x="-1116.8396" y="-1379.7104"><tspan x="-1116.8396" y="-1379.7104"/></text><text opacity=".8" x="343.70316" y="-1652.9446"><tspan x="343.70316" y="-1652.9446"/></text><text opacity=".8" x="1829.8265" y="-1026.2533"><tspan x="1829.8265" y="-1026.2533"/></text><text opacity=".8" x="1853.7874" y="-1066.9949"><tspan x="1853.7874" y="-1066.9949"/></text><text opacity=".8" x="362.32431" y="-1074.2048"><tspan x="362.32431" y="-1074.2048"/></text><text opacity=".8" x="1822.8671" y="-1347.439"><tspan x="1822.8671" y="-1347.439"/></text><text opacity=".8" x="-575.492" y="-1122.2961"><tspan x="-575.492" y="-1122.2961"/></text><text opacity=".8" x="-2399.1777" y="-376.74261"><tspan x="-2399.1777" y="-376.74261"/></text><text opacity=".8" x="-684.42224" y="-283.87045"><tspan x="-684.42224" y="-283.87045"/></text><text opacity=".8" x="155.5923" y="-42.956276"><tspan x="155.5923" y="-42.956276"/></text><text opacity=".8" x="179.55324" y="-83.697998"><tspan x="179.55324" y="-83.697998"/></text><text opacity=".8" x="-1090.2634" y="-277.72662"><tspan x="-1090.2634" y="-277.72662"/></text><text opacity=".8" x="-282.66141" y="-691.19678"><tspan x="-282.66141" y="-691.19678"/></text><text opacity=".8" x="-258.70047" y="-731.93848"><tspan x="-258.70047" y="-731.93848"/></text><text opacity=".8" x="-1750.1636" y="-739.14838"><tspan x="-1750.1636" y="-739.14838"/></text><text opacity=".8" x="-289.62085" y="-1012.3825"><tspan x="-289.62085" y="-1012.3825"/></text><text opacity=".8" x="1196.5026" y="-385.69113"><tspan x="1196.5026" y="-385.69113"/></text><text opacity=".8" x="1220.4634" y="-426.43286"><tspan x="1220.4634" y="-426.43286"/></text><text opacity=".8" x="-270.99973" y="-433.64282"><tspan x="-270.99973" y="-433.64282"/></text><text opacity=".8" x="1189.5431" y="-706.87689"><tspan x="1189.5431" y="-706.87689"/></text><text opacity=".8" x="-1208.816" y="-481.7341"><tspan x="-1208.816" y="-481.7341"/></text><text opacity=".8" x="-3032.5017" y="263.81946"><tspan x="-3032.5017" y="263.81946"/></text><text opacity=".8" x="-1317.7462" y="356.69156"><tspan x="-1317.7462" y="356.69156"/></text><text opacity=".8" x="877.22626" y="2.0505886"><tspan x="877.22626" y="2.0505886"/></text><text opacity=".8" x="901.18719" y="-38.691116"><tspan x="901.18719" y="-38.691116"/></text><text opacity=".8" x="-569.37115" y="-68.769257"><tspan x="-569.37115" y="-68.769257"/></text><text opacity=".8" x="-2393.0571" y="676.78418"><tspan x="-2393.0571" y="676.78418"/></text><text opacity=".8" x="-454.88007" y="-454.09021"><tspan x="-454.88007" y="-454.09021"/></text><text opacity=".8" x="352.72208" y="-867.5603"><tspan x="352.72208" y="-867.5603"/></text><text opacity=".8" x="376.68301" y="-908.30206"><tspan x="376.68301" y="-908.30206"/></text><text opacity=".8" x="-1114.7802" y="-915.51196"><tspan x="-1114.7802" y="-915.51196"/></text><text opacity=".8" x="345.7626" y="-1188.7461"><tspan x="345.7626" y="-1188.7461"/></text><text opacity=".8" x="1831.8861" y="-562.05475"><tspan x="1831.8861" y="-562.05475"/></text><text opacity=".8" x="1855.8469" y="-602.79651"><tspan x="1855.8469" y="-602.79651"/></text><text opacity=".8" x="364.38376" y="-610.00641"><tspan x="364.38376" y="-610.00641"/></text><text opacity=".8" x="1824.9266" y="-883.24036"><tspan x="1824.9266" y="-883.24036"/></text><text opacity=".8" x="-573.43256" y="-658.09772"><tspan x="-573.43256" y="-658.09772"/></text><text opacity=".8" x="-2397.1182" y="87.455849"><tspan x="-2397.1182" y="87.455849"/></text><text opacity=".8" x="-682.36279" y="180.32799"><tspan x="-682.36279" y="180.32799"/></text><text opacity=".8" x="426.66153" y="1.1458397"><tspan x="426.66153" y="1.1458397"/></text><text opacity=".8" x="450.62247" y="-39.595863"><tspan x="450.62247" y="-39.595863"/></text><text opacity=".8" x="-1040.8407" y="-46.805836"><tspan x="-1040.8407" y="-46.805836"/></text><text opacity=".8" x="419.70206" y="-320.03989"><tspan x="419.70206" y="-320.03989"/></text><text opacity=".8" x="-608.03253" y="-49.520081"><tspan x="-608.03253" y="-49.520081"/></text><text opacity=".8" x="-2431.7185" y="696.03345"><tspan x="-2431.7185" y="696.03345"/></text><text opacity=".8" x="-456.93948" y="-911.0506"><tspan x="-456.93948" y="-911.0506"/></text><text opacity=".8" x="350.66266" y="-1324.5208"><tspan x="350.66266" y="-1324.5208"/></text><text opacity=".8" x="374.62357" y="-1365.2626"><tspan x="374.62357" y="-1365.2626"/></text><text opacity=".8" x="-1116.8396" y="-1372.4724"><tspan x="-1116.8396" y="-1372.4724"/></text><text opacity=".8" x="343.70316" y="-1645.7065"><tspan x="343.70316" y="-1645.7065"/></text><text opacity=".8" x="1829.8265" y="-1019.0153"><tspan x="1829.8265" y="-1019.0153"/></text><text opacity=".8" x="1853.7874" y="-1059.757"><tspan x="1853.7874" y="-1059.757"/></text><text opacity=".8" x="362.32431" y="-1066.9668"><tspan x="362.32431" y="-1066.9668"/></text><text opacity=".8" x="1822.8671" y="-1340.2009"><tspan x="1822.8671" y="-1340.2009"/></text><text opacity=".8" x="-575.492" y="-1115.0581"><tspan x="-575.492" y="-1115.0581"/></text><text opacity=".8" x="-2399.1777" y="-369.50461"><tspan x="-2399.1777" y="-369.50461"/></text><text opacity=".8" x="-684.42224" y="-276.63245"><tspan x="-684.42224" y="-276.63245"/></text><text opacity=".8" x="155.5923" y="-35.718292"><tspan x="155.5923" y="-35.718292"/></text><text opacity=".8" x="179.55324" y="-76.460007"><tspan x="179.55324" y="-76.460007"/></text><text opacity=".8" x="-1090.2634" y="-270.48859"><tspan x="-1090.2634" y="-270.48859"/></text><text opacity=".8" x="-282.66141" y="-683.9588"><tspan x="-282.66141" y="-683.9588"/></text><text opacity=".8" x="-258.70047" y="-724.7005"><tspan x="-258.70047" y="-724.7005"/></text><text opacity=".8" x="-1750.1636" y="-731.91046"><tspan x="-1750.1636" y="-731.91046"/></text><text opacity=".8" x="-289.62085" y="-1005.1445"><tspan x="-289.62085" y="-1005.1445"/></text><text opacity=".8" x="1196.5026" y="-378.45316"><tspan x="1196.5026" y="-378.45316"/></text><text opacity=".8" x="1220.4634" y="-419.19489"><tspan x="1220.4634" y="-419.19489"/></text><text opacity=".8" x="-270.99973" y="-426.40482"><tspan x="-270.99973" y="-426.40482"/></text><text opacity=".8" x="1189.5431" y="-699.63892"><tspan x="1189.5431" y="-699.63892"/></text><text opacity=".8" x="-1208.816" y="-474.49609"><tspan x="-1208.816" y="-474.49609"/></text><text opacity=".8" x="-3032.5017" y="271.05743"><tspan x="-3032.5017" y="271.05743"/></text><text opacity=".8" x="-1317.7462" y="363.92953"><tspan x="-1317.7462" y="363.92953"/></text><text x="435.90427" y="-377.22546"><tspan x="435.90427" y="-377.22546"/><tspan x="435.90427" y="-361.3924"/></text><text opacity=".8" x="901.0882" y="-859.27002"><tspan x="901.0882" y="-859.27002"/></text><text opacity=".8" x="-922.59778" y="-113.71655"><tspan x="-922.59778" y="-113.71655"/></text><text opacity=".8" x="1628.1677" y="-1144.2659"><tspan x="1628.1677" y="-1144.2659"/></text><text opacity=".8" x="1652.1285" y="-1185.0076"><tspan x="1652.1285" y="-1185.0076"/></text><text opacity=".8" x="160.66542" y="-1192.2175"><tspan x="160.66542" y="-1192.2175"/></text><text opacity=".8" x="1621.2083" y="-1465.4517"><tspan x="1621.2083" y="-1465.4517"/></text><path d="m12.873934 29.987125c-3.1381161-.321379-5.3239902-1.219175-6.9391831-2.850112-.6525102-.658868-1.095847-1.264874-1.4642885-2.001566-.7796972-1.558986-1.0241118-3.313152-.6424007-4.6104.3795784-1.289992 1.2428957-2.712284 2.4581086-4.049676.6748138-.742661 1.0162345-1.224437 1.3284405-1.830066.376539-.730416.4170472-1.219386.3853892-1.897467-.030725-.65759-.1718502-.941232-.5327372-1.240613-.341973-.283693-.482937-.439876-1.5412653-.38946-1.0329824.04921-1.5395734-.0136-2.0329719-.252042-.382725-.184957-.5183486-.393896-.4000646-.616327.6152042-.4801639.8310084-1.0050553 1.507039-1.249396-.9893774-.8438144-1.9662992-1.7265955-2-2.9871839.0694978-.6751996.6941652-.5128161.6941652-.5128161.9795271.1984104 1.9919121.3979532 2.9144009.4291261.2652854-.03598.5449617-.106719.6215077-.157196.07655-.05048.285162-.349661.463592-.664854.695405-1.228423 1.431817-2.021514 2.2567671-2.430442.9506131-.471221 2.2956231-.723288 3.5722401-.669471 1.534825.0647 2.838383.595388 3.902929 1.588907.731772.682943 1.216033.853714 1.91205.67426.489612-.126238.500655-.125621.500655.02796 0 .201816-.161055.46333-.408261.66292l-.227729.18386.229573.136321c.316369.187858.278898.338939-.09749.393125-.313507.04514-.548483.149113-.548483.242714 0 .03305.04499.319431.100002.636411.134934.777664.08686 2.284501-.0966 3.028144-.284495 1.1531329-.714848 1.9650309-1.450219 2.7359209-.571664.520276-2.188531 1.58683-2.3391 1.682294.07075 0 .68983-.03634 1.104263.000392 1.516927.134456 2.57331.390122 4.0966 1.099995 1.438753.670472 2.050239.742775 2.84654.336581.508112-.259186 1.235475-.812183 1.779013-1.544722.465013-.626707.74167-.892246 1.173584-.892246.423012 0 .726891.2788 1.047061.767503.453409.692071.700739 1.186304.876699 2.391836.125747.861509.09042 2.883833-.06539 3.742682-.93116 5.133073-4.207145 8.588982-9.208439 9.714197-1.349795.303685-1.89362.358272-3.764073.377824-.97037.01014-1.875739.007-2.011931-.0069z" fill="#2aa2ee"/><path d="m13.523438 2.0078125c-1.276618-.053817-2.621653.1967478-3.5722661.6679687-.8249501.4089281-1.5624075 1.2032177-2.2578125 2.4316407-.17843.315193-.3863406.6135825-.4628906.6640625-.076546.050477-.3558084.1222231-.6210938.1582031-.9224888-.0311729-1.9364885-.2312771-2.9160156-.4296875 0 0-.6238616-.1615277-.6933594.5136719.0062924.2353685.0550951.4528305.1210938.6640625.201259-.2699042.5722656-.1777344.5722656-.1777344.9795271.1984104 1.9935268.3985146 2.9160156.4296875.2652854-.03598.5445478-.1077261.6210938-.1582031.07655-.05048.2844606-.3488695.4628906-.6640625.695405-1.228423 1.4328624-2.0227127 2.2578125-2.4316407.9506131-.4712209 2.2956481-.7217857 3.5722661-.6679687 1.534824.0647 2.837797.5943716 3.902343 1.5878906.731772.682943 1.216093.8532821 1.91211.6738281.030919-.0079721.027467-.004765.054687-.0117187l-.189453-.1132813.226563-.1835937c.247205-.19959.408203-.4602934.408203-.6621094 0-.153581-.010388-.1555348-.5-.0292969-.696017.179454-1.180338.0091149-1.91211-.6738281-1.064546-.993519-2.367519-1.5231906-3.902343-1.5878906zm5.386718 4.7890625c-.073861.0384444-.125.0810209-.125.1210938 0 .03305.046551.3177856.101563.6347656.031468.1813607.050334.4086426.0625.6503906.02158-.5084167.007379-1.004206-.039063-1.40625zm-14.5585935 2.6269531c-.2629647.2482754-.4947841.5416105-.859375.8261719-.118284.222431.0176656.430277.4003906.615234.0050442.002438.0105775.003459.015625.00586.3435107-.355475.592517-.690638 1.0917969-.871094-.2212406-.1886904-.4388501-.3797957-.6484375-.5761719zm21.6484375 3.5761719c-.431914 0-.708815.265871-1.173828.892578-.543538.732539-1.271185 1.285736-1.779297 1.544922-.796301.406194-1.40695.332581-2.845703-.337891-1.415159-.659482-2.442075-.920042-3.794922-1.0625-.633118.453569-1.310983.90249-1.40625.962891.07075 0 .689083-.036732 1.103516 0 1.516927.134456 2.574366.389736 4.097656 1.099609 1.438753.670472 2.049402.744085 2.845703.337891.508112-.259186 1.235759-.812383 1.779297-1.544922.465013-.626707.741914-.892578 1.173828-.892578.423012 0 .726705.278875 1.046875.767578.453409.692071.700993 1.187046.876953 2.392578.037254.255233.056372.620965.066406 1.019532.018811-.770183.000933-1.558186-.066406-2.019532-.17596-1.205532-.423544-1.700507-.876953-2.392578-.32017-.488703-.623863-.767578-1.046875-.767578zm-18.0234375.523438c-.0429827.348768-.1407213.693157-.3613281 1.121093-.312206.605629-.6533112 1.087417-1.328125 1.830078-1.2152129 1.337392-2.079406 2.76079-2.4589844 4.050782-.1616291.549297-.2044347 1.182066-.1484375 1.845703.0266166-.295911.0708622-.582063.1484375-.845703.3795784-1.289992 1.2437715-2.71339 2.4589844-4.050782.6748138-.742661 1.015919-1.224449 1.328125-1.830078.376539-.730416.4164236-1.218403.3847656-1.896484-.0040151-.085933-.0154077-.150578-.0234375-.224609z" fill="#fff" opacity=".2"/><path d="m19.771484 4.1796875c-.055883-.003121-.19061.0300229-.378906.078125l.039063.0234375c.316369.187858.278731.3383921-.097657.3925781-.313507.04514-.548828.1505396-.548828.2441407 0 .03305.046551.3177856.101563.6347656.011812.0680777.014398.1658881.023437.2441406.098662-.051353.244541-.0972324.423828-.1230469.376388-.054186.414026-.2047201.097657-.3925781l-.228516-.1367188.226563-.1835937c.247205-.19959.408203-.4602934.408203-.6621094 0-.0767905-.002444-.1155685-.066407-.1191406zm-16.6503902 1.4980469c-.0585597.078533-.1054299.1837566-.1210938.3359375.0261648.9787007.6238851 1.7283474 1.3515625 2.4101562.1807572-.17066.3730456-.324292.6484375-.4238281-.8046476-.6862631-1.5914287-1.4021798-1.8789062-2.3222656zm15.8281252 1.5253906c-.022201.5230254-.075271 1.0348293-.160157 1.3789062-.284494 1.1531329-.713847 1.9654378-1.449218 2.7363278-.571664.520276-2.189275 1.586177-2.339844 1.681641.07075 0 .689083-.036732 1.103516 0 .107679.009544.199364.026224.302734.037109.367525-.263296.723628-.527658.933594-.71875.735371-.77089 1.164724-1.583195 1.449218-2.7363278.140675-.5702164.200156-1.5840529.160157-2.3789062zm-15.0410159 2.6679688c-.1216066.125842-.2551682.2533652-.4160156.3789062-.118284.222431.0176656.430277.4003906.615234.4933985.238442 1.0002208.301164 2.0332031.251954 1.0583284-.050416 1.1990427.106932 1.5410157.390624.3137266.260259.4563488.523146.5097656 1.015626.0303816-.246522.0365477-.494584.0234375-.775391-.030725-.65759-.1723161-.940853-.5332031-1.240235-.341973-.283692-.4826873-.44104-1.5410157-.390624-1.0224218.048706-1.5289037-.013637-2.0175781-.2460942zm24.0820309 7.3085942c-.016315.668043-.06044 1.323728-.132812 1.722656-.93116 5.133073-4.205737 8.589628-9.207031 9.714844-1.349795.303685-1.893219.357401-3.763672.376953-.97037.01014-1.87748.006087-2.013672-.007813-3.1381162-.321379-5.3223072-1.218672-6.9375001-2.849609-.6525102-.658868-1.0964023-1.265261-1.4648438-2.001953-.4495477-.89886-.7147671-1.860031-.7910156-2.763672-.104351 1.160123.1697766 2.521519.7910156 3.763672.3684415.736692.8123336 1.343085 1.4648438 2.001953 1.6151929 1.630937 3.7993839 2.52823 6.9375001 2.849609.136192.0139 1.043302.017953 2.013672.007813 1.870453-.019552 2.413877-.073268 3.763672-.376953 5.001294-1.125215 8.275871-4.581771 9.207031-9.714844.109649-.604404.156647-1.775908.132812-2.722656z" opacity=".3"/></svg>