<?xml version="1.0" encoding="UTF-8" standalone="no"?>
<svg id="svg2" xmlns:rdf="http://www.w3.org/1999/02/22-rdf-syntax-ns#" xmlns="http://www.w3.org/2000/svg" height="32" width="32" version="1.1" xmlns:cc="http://creativecommons.org/ns#" xmlns:dc="http://purl.org/dc/elements/1.1/" viewBox="0 0 32 32">
 <metadata id="metadata41">
  <rdf:RDF>
   <cc:Work rdf:about="">
    <dc:format>image/svg+xml</dc:format>
    <dc:type rdf:resource="http://purl.org/dc/dcmitype/StillImage"/>
    <dc:title/>
   </cc:Work>
  </rdf:RDF>
 </metadata>
 <path id="path37" d="m3.12 2.221c-1.12 1.1424-1.12 6.61-1.12 10.072 0 12.567 7.28 17.707 14 17.707s14-5.1409 14-17.707c0-3.4277 0-8.9296-1.12-10.072s-8.54 2.4034-10.78 4.6882h-4.2c-2.24-2.2848-9.66-5.8306-10.78-4.6882z" fill-rule="evenodd" fill="#4d4d4d"/>
 <path id="path31" d="m19 23.172c0 1.562-1.343 2.828-3 2.828s-3-1.266-3-2.828c0-1.5623 6-1.5623 6 0z" fill="#fff"/>
 <path id="path4299" d="m10 9a5 6 0 0 0 -5 6 5 6 0 0 0 5 6 5 6 0 0 0 5 -6 5 6 0 0 0 -5 -6zm0 2a3 4 0 0 1 3 4 3 4 0 0 1 -3 4 3 4 0 0 1 -3 -4 3 4 0 0 1 3 -4z" fill-rule="evenodd" fill="#fff"/>
 <path id="path4302" d="m22 9a5 6 0 0 0 -5 6 5 6 0 0 0 5 6 5 6 0 0 0 5 -6 5 6 0 0 0 -5 -6zm0 2a3 4 0 0 1 3 4 3 4 0 0 1 -3 4 3 4 0 0 1 -3 -4 3 4 0 0 1 3 -4z" fill-rule="evenodd" fill="#fff"/>
 <path id="path4304" opacity=".2" d="m3.8125 2c-0.3145 0.0079-0.5534 0.0779-0.6934 0.2207-1.12 1.1424-1.1191 6.6108-1.1191 10.072 0 0.049 0.0056 0.093 0.0059 0.143 0.0057-3.4481 0.0768-8.1581 1.1132-9.2153 1.12-1.1424 8.5409 2.4046 10.781 4.6895h4.2c2.24-2.2849 9.661-5.8319 10.781-4.6895 1.036 1.0568 1.107 5.7902 1.113 9.2153 0-0.05 0.006-0.094 0.006-0.143 0-3.4273 0.001-8.9299-1.119-10.072-1.12-1.1427-8.541 2.4043-10.781 4.6892h-4.2c-1.96-1.9993-7.8863-4.9656-10.088-4.9102z" fill-rule="evenodd" fill="#fff"/>
 <path id="path4309" opacity=".3" d="m2.0059 11.436c-0.0005 0.278-0.0059 0.599-0.0059 0.857 0 12.567 7.28 17.707 14 17.707s14-5.14 14-17.707c0-0.257-0.005-0.58-0.006-0.857-0.057 12.459-7.3 17.564-13.994 17.564-6.6936 0-13.937-5.105-13.994-17.564z" fill-rule="evenodd"/>
</svg>
