<svg height="32" width="32" xmlns="http://www.w3.org/2000/svg"><text opacity=".8" x="877.22626" y="-5.1873989"><tspan x="877.22626" y="-5.1873989"/></text><text opacity=".8" x="901.18719" y="-45.929108"><tspan x="901.18719" y="-45.929108"/></text><text opacity=".8" x="-569.37115" y="-76.007248"><tspan x="-569.37115" y="-76.007248"/></text><text opacity=".8" x="-2393.0571" y="669.5462"><tspan x="-2393.0571" y="669.5462"/></text><text opacity=".8" x="-454.88007" y="-461.32822"><tspan x="-454.88007" y="-461.32822"/></text><text opacity=".8" x="352.72208" y="-874.79834"><tspan x="352.72208" y="-874.79834"/></text><text opacity=".8" x="376.68301" y="-915.54004"><tspan x="376.68301" y="-915.54004"/></text><text opacity=".8" x="-1114.7802" y="-922.74994"><tspan x="-1114.7802" y="-922.74994"/></text><text opacity=".8" x="345.7626" y="-1195.9841"><tspan x="345.7626" y="-1195.9841"/></text><text opacity=".8" x="1831.8861" y="-569.29272"><tspan x="1831.8861" y="-569.29272"/></text><text opacity=".8" x="1855.8469" y="-610.03448"><tspan x="1855.8469" y="-610.03448"/></text><text opacity=".8" x="364.38376" y="-617.24438"><tspan x="364.38376" y="-617.24438"/></text><text opacity=".8" x="1824.9266" y="-890.47839"><tspan x="1824.9266" y="-890.47839"/></text><text opacity=".8" x="-573.43256" y="-665.33569"><tspan x="-573.43256" y="-665.33569"/></text><text opacity=".8" x="-2397.1182" y="80.217857"><tspan x="-2397.1182" y="80.217857"/></text><text opacity=".8" x="-682.36279" y="173.09"><tspan x="-682.36279" y="173.09"/></text><text opacity=".8" x="426.66153" y="-6.0921478"><tspan x="426.66153" y="-6.0921478"/></text><text opacity=".8" x="450.62247" y="-46.833855"><tspan x="450.62247" y="-46.833855"/></text><text opacity=".8" x="-1040.8407" y="-54.043827"><tspan x="-1040.8407" y="-54.043827"/></text><text opacity=".8" x="419.70206" y="-327.27789"><tspan x="419.70206" y="-327.27789"/></text><text opacity=".8" x="-608.03253" y="-56.758072"><tspan x="-608.03253" y="-56.758072"/></text><text opacity=".8" x="-2431.7185" y="688.79541"><tspan x="-2431.7185" y="688.79541"/></text><text opacity=".8" x="-456.93948" y="-918.28857"><tspan x="-456.93948" y="-918.28857"/></text><text opacity=".8" x="350.66266" y="-1331.7588"><tspan x="350.66266" y="-1331.7588"/></text><text opacity=".8" x="374.62357" y="-1372.5005"><tspan x="374.62357" y="-1372.5005"/></text><text opacity=".8" x="-1116.8396" y="-1379.7104"><tspan x="-1116.8396" y="-1379.7104"/></text><text opacity=".8" x="343.70316" y="-1652.9446"><tspan x="343.70316" y="-1652.9446"/></text><text opacity=".8" x="1829.8265" y="-1026.2533"><tspan x="1829.8265" y="-1026.2533"/></text><text opacity=".8" x="1853.7874" y="-1066.9949"><tspan x="1853.7874" y="-1066.9949"/></text><text opacity=".8" x="362.32431" y="-1074.2048"><tspan x="362.32431" y="-1074.2048"/></text><text opacity=".8" x="1822.8671" y="-1347.439"><tspan x="1822.8671" y="-1347.439"/></text><text opacity=".8" x="-575.492" y="-1122.2961"><tspan x="-575.492" y="-1122.2961"/></text><text opacity=".8" x="-2399.1777" y="-376.74261"><tspan x="-2399.1777" y="-376.74261"/></text><text opacity=".8" x="-684.42224" y="-283.87045"><tspan x="-684.42224" y="-283.87045"/></text><text opacity=".8" x="155.5923" y="-42.956276"><tspan x="155.5923" y="-42.956276"/></text><text opacity=".8" x="179.55324" y="-83.697998"><tspan x="179.55324" y="-83.697998"/></text><text opacity=".8" x="-1090.2634" y="-277.72662"><tspan x="-1090.2634" y="-277.72662"/></text><text opacity=".8" x="-282.66141" y="-691.19678"><tspan x="-282.66141" y="-691.19678"/></text><text opacity=".8" x="-258.70047" y="-731.93848"><tspan x="-258.70047" y="-731.93848"/></text><text opacity=".8" x="-1750.1636" y="-739.14838"><tspan x="-1750.1636" y="-739.14838"/></text><text opacity=".8" x="-289.62085" y="-1012.3825"><tspan x="-289.62085" y="-1012.3825"/></text><text opacity=".8" x="1196.5026" y="-385.69113"><tspan x="1196.5026" y="-385.69113"/></text><text opacity=".8" x="1220.4634" y="-426.43286"><tspan x="1220.4634" y="-426.43286"/></text><text opacity=".8" x="-270.99973" y="-433.64282"><tspan x="-270.99973" y="-433.64282"/></text><text opacity=".8" x="1189.5431" y="-706.87689"><tspan x="1189.5431" y="-706.87689"/></text><text opacity=".8" x="-1208.816" y="-481.7341"><tspan x="-1208.816" y="-481.7341"/></text><text opacity=".8" x="-3032.5017" y="263.81946"><tspan x="-3032.5017" y="263.81946"/></text><text opacity=".8" transform="matrix(.90475 0 0 .90475 -716.75 -692.29)" x="-664.2738" y="1159.4154"><tspan x="-664.2738" y="1159.4154"/></text><text opacity=".8" x="877.22626" y="2.0505886"><tspan x="877.22626" y="2.0505886"/></text><text opacity=".8" x="901.18719" y="-38.691116"><tspan x="901.18719" y="-38.691116"/></text><text opacity=".8" x="-569.37115" y="-68.769257"><tspan x="-569.37115" y="-68.769257"/></text><text opacity=".8" x="-2393.0571" y="676.78418"><tspan x="-2393.0571" y="676.78418"/></text><text opacity=".8" x="-454.88007" y="-454.09021"><tspan x="-454.88007" y="-454.09021"/></text><text opacity=".8" x="352.72208" y="-867.5603"><tspan x="352.72208" y="-867.5603"/></text><text opacity=".8" x="376.68301" y="-908.30206"><tspan x="376.68301" y="-908.30206"/></text><text opacity=".8" x="-1114.7802" y="-915.51196"><tspan x="-1114.7802" y="-915.51196"/></text><text opacity=".8" x="345.7626" y="-1188.7461"><tspan x="345.7626" y="-1188.7461"/></text><text opacity=".8" x="1831.8861" y="-562.05475"><tspan x="1831.8861" y="-562.05475"/></text><text opacity=".8" x="1855.8469" y="-602.79651"><tspan x="1855.8469" y="-602.79651"/></text><text opacity=".8" x="364.38376" y="-610.00641"><tspan x="364.38376" y="-610.00641"/></text><text opacity=".8" x="1824.9266" y="-883.24036"><tspan x="1824.9266" y="-883.24036"/></text><text opacity=".8" x="-573.43256" y="-658.09772"><tspan x="-573.43256" y="-658.09772"/></text><text opacity=".8" x="-2397.1182" y="87.455849"><tspan x="-2397.1182" y="87.455849"/></text><text opacity=".8" x="-682.36279" y="180.32799"><tspan x="-682.36279" y="180.32799"/></text><text opacity=".8" x="426.66153" y="1.1458397"><tspan x="426.66153" y="1.1458397"/></text><text opacity=".8" x="450.62247" y="-39.595863"><tspan x="450.62247" y="-39.595863"/></text><text opacity=".8" x="-1040.8407" y="-46.805836"><tspan x="-1040.8407" y="-46.805836"/></text><text opacity=".8" x="419.70206" y="-320.03989"><tspan x="419.70206" y="-320.03989"/></text><text opacity=".8" x="-608.03253" y="-49.520081"><tspan x="-608.03253" y="-49.520081"/></text><text opacity=".8" x="-2431.7185" y="696.03345"><tspan x="-2431.7185" y="696.03345"/></text><text opacity=".8" x="-456.93948" y="-911.0506"><tspan x="-456.93948" y="-911.0506"/></text><text opacity=".8" x="350.66266" y="-1324.5208"><tspan x="350.66266" y="-1324.5208"/></text><text opacity=".8" x="374.62357" y="-1365.2626"><tspan x="374.62357" y="-1365.2626"/></text><text opacity=".8" x="-1116.8396" y="-1372.4724"><tspan x="-1116.8396" y="-1372.4724"/></text><text opacity=".8" x="343.70316" y="-1645.7065"><tspan x="343.70316" y="-1645.7065"/></text><text opacity=".8" x="1829.8265" y="-1019.0153"><tspan x="1829.8265" y="-1019.0153"/></text><text opacity=".8" x="1853.7874" y="-1059.757"><tspan x="1853.7874" y="-1059.757"/></text><text opacity=".8" x="362.32431" y="-1066.9668"><tspan x="362.32431" y="-1066.9668"/></text><text opacity=".8" x="1822.8671" y="-1340.2009"><tspan x="1822.8671" y="-1340.2009"/></text><text opacity=".8" x="-575.492" y="-1115.0581"><tspan x="-575.492" y="-1115.0581"/></text><text opacity=".8" x="-2399.1777" y="-369.50461"><tspan x="-2399.1777" y="-369.50461"/></text><text opacity=".8" x="-684.42224" y="-276.63245"><tspan x="-684.42224" y="-276.63245"/></text><text opacity=".8" x="155.5923" y="-35.718292"><tspan x="155.5923" y="-35.718292"/></text><text opacity=".8" x="179.55324" y="-76.460007"><tspan x="179.55324" y="-76.460007"/></text><text opacity=".8" x="-1090.2634" y="-270.48859"><tspan x="-1090.2634" y="-270.48859"/></text><text opacity=".8" x="-282.66141" y="-683.9588"><tspan x="-282.66141" y="-683.9588"/></text><text opacity=".8" x="-258.70047" y="-724.7005"><tspan x="-258.70047" y="-724.7005"/></text><text opacity=".8" x="-1750.1636" y="-731.91046"><tspan x="-1750.1636" y="-731.91046"/></text><text opacity=".8" x="-289.62085" y="-1005.1445"><tspan x="-289.62085" y="-1005.1445"/></text><text opacity=".8" x="1196.5026" y="-378.45316"><tspan x="1196.5026" y="-378.45316"/></text><text opacity=".8" x="1220.4634" y="-419.19489"><tspan x="1220.4634" y="-419.19489"/></text><text opacity=".8" x="-270.99973" y="-426.40482"><tspan x="-270.99973" y="-426.40482"/></text><text opacity=".8" x="1189.5431" y="-699.63892"><tspan x="1189.5431" y="-699.63892"/></text><text opacity=".8" x="-1208.816" y="-474.49609"><tspan x="-1208.816" y="-474.49609"/></text><text opacity=".8" x="-3032.5017" y="271.05743"><tspan x="-3032.5017" y="271.05743"/></text><text opacity=".8" transform="matrix(.90475 0 0 .90475 -716.75 -685.05)" x="-664.2738" y="1159.4154"><tspan x="-664.2738" y="1159.4154"/></text><text x="435.90427" y="-377.22546"><tspan x="435.90427" y="-377.22546"/><tspan x="435.90427" y="-361.3924"/></text><text opacity=".8" x="901.0882" y="-859.27002"><tspan x="901.0882" y="-859.27002"/></text><text opacity=".8" x="-922.59778" y="-113.71655"><tspan x="-922.59778" y="-113.71655"/></text><text opacity=".8" x="1628.1677" y="-1144.2659"><tspan x="1628.1677" y="-1144.2659"/></text><text opacity=".8" x="1652.1285" y="-1185.0076"><tspan x="1652.1285" y="-1185.0076"/></text><text opacity=".8" x="160.66542" y="-1192.2175"><tspan x="160.66542" y="-1192.2175"/></text><text opacity=".8" x="1621.2083" y="-1465.4517"><tspan x="1621.2083" y="-1465.4517"/></text><path d="m25.854 2a10 10.257 0 0 1 -3.229 5.9883c-1.897-1.2543-4.171-1.9883-6.625-1.9883-2.455 0-4.732.7345-6.6289 1.9902a10 10.257 0 0 1 -3.2246-5.9238 10 10.257 0 0 0 -.1465 1.6758 10 10.257 0 0 0  1.6523 5.6348c-2.2507 2.179-3.6523 5.228-3.6523 8.623 0 6.648 5.352 12 12 12s12-5.352 12-12c0-3.394-1.401-6.442-3.65-8.6211a10 10.257 0 0 0 1.65-5.6367 10 10.257 0 0 0 -.146-1.7422z" fill="#e03c3b"/><g opacity=".2" transform="translate(0 .99955061)"><path d="m15 21c-1.184 1.913-3.806 2.568-5.8559 1.463-2.0503-1.104-2.7528-3.55-1.5691-5.463z"/><path d="m17 21c1.1838 1.913 3.8055 2.5684 5.8559 1.4639 2.05-1.105 2.753-3.551 1.569-5.464z"/></g><path d="m15 21c-1.184 1.913-3.806 2.568-5.8559 1.463-2.0503-1.104-2.7528-3.55-1.5691-5.463z" fill="#fff"/><path d="m10.895 18.789c-.17 1.176.175 2.587 1.07 4.143.002-.001.005-.002.008-.002-.48-1.113-.41-2.375.027-3.545z" fill="#2c2c2c"/><path d="m17 21c1.1838 1.913 3.8055 2.5684 5.8559 1.4639 2.05-1.105 2.753-3.551 1.569-5.464z" fill="#fff"/><path d="m21.105 18.789l-1.105.596c.437 1.17.507 2.432.027 3.545.003 0 .006.001.008.002.895-1.556 1.24-2.967 1.07-4.143z" fill="#2c2c2c"/><path d="m25.854 2a10 10.257 0 0 1 -3.229 5.9883c-1.897-1.2543-4.171-1.9883-6.625-1.9883-2.455 0-4.732.7345-6.6289 1.9902a10 10.257 0 0 1 -3.2246-5.9238 10 10.257 0 0 0 -.1465 1.6758 10 10.257 0 0 0  .0215.4375 10 10.257 0 0 1  .125-1.1133 10 10.257 0 0 0  3.2246 5.9238c1.8969-1.2557 4.1739-1.9902 6.6289-1.9902 2.454 0 4.728.734 6.625 1.9883a10 10.257 0 0 0 3.229-5.9883 10 10.257 0 0 1  .123 1.2852 10 10.257 0 0 0  .023-.543 10 10.257 0 0 0 -.146-1.7422zm-1.149 7.7598a10 10.257 0 0 1 -.355.6192c2.138 2.071 3.494 4.931 3.625 8.123.007-.168.025-.333.025-.502 0-3.205-1.261-6.093-3.295-8.2402zm-17.414.0019c-2.0326 2.1473-3.291 5.0343-3.291 8.2383 0 .169.0185.334.0254.502.1308-3.193 1.4877-6.054 3.6269-8.125a10 10.257 0 0 1 -.3613-.6153z" fill="#fff" opacity=".2"/><path d="m6.0215 3.1797a10 10.257 0 0 0 -.0215.5625 10 10.257 0 0 0  1.291 5.0195c.121-.1278.2349-.2624.3613-.3847a10 10.257 0 0 1 -1.6308-5.1973zm19.956.1055a10 10.257 0 0 1 -1.627 5.0938c.12473.12079.23605.25481.35547.38086a10 10.257 0 0 0 1.295-5.0177 10 10.257 0 0 0 -.023-.457zm-21.952 14.217c-.0068.166-.0254.33-.0254.498 0 6.648 5.352 12 12 12s12-5.352 12-12c0-.16822-.01857-.33158-.02539-.49805-.264 6.411-5.496 11.498-11.975 11.498-6.4785 0-11.711-5.087-11.975-11.498z" opacity=".3"/></svg>