<?xml version="1.0" encoding="UTF-8" standalone="no"?>
<!-- Created with Inkscape (http://www.inkscape.org/) -->
<svg id="svg2817" xmlns:rdf="http://www.w3.org/1999/02/22-rdf-syntax-ns#" xmlns="http://www.w3.org/2000/svg" height="32" width="32" version="1.0" xmlns:cc="http://creativecommons.org/ns#" xmlns:dc="http://purl.org/dc/elements/1.1/">
 <metadata id="metadata57">
  <rdf:RDF>
   <cc:Work rdf:about="">
    <dc:format>image/svg+xml</dc:format>
    <dc:type rdf:resource="http://purl.org/dc/dcmitype/StillImage"/>
    <dc:title/>
   </cc:Work>
  </rdf:RDF>
 </metadata>
 <text id="text4087-2-6-5" opacity=".8" font-size="12.666px" xml:space="preserve" y="-5.1873989" x="877.22626" font-family="&apos;Bitstream Vera Sans&apos;" fill="#000000"><tspan id="tspan4089-7-2-9" y="-5.1873989" x="877.22626"/></text>
 <text id="text4087-2-6-5-5" opacity=".8" font-size="12.666px" xml:space="preserve" y="-45.929108" x="901.18719" font-family="&apos;Bitstream Vera Sans&apos;" fill="#000000"><tspan id="tspan4089-7-2-9-6" y="-45.929108" x="901.18719"/></text>
 <text id="text4087-2-6-5-2" opacity=".8" font-size="12.666px" xml:space="preserve" y="-76.007248" x="-569.37115" font-family="&apos;Bitstream Vera Sans&apos;" fill="#000000"><tspan id="tspan4089-7-2-9-2" y="-76.007248" x="-569.37115"/></text>
 <text id="text4087-2-6-5-59" opacity=".8" font-size="12.666px" xml:space="preserve" y="669.5462" x="-2393.0571" font-family="&apos;Bitstream Vera Sans&apos;" fill="#000000"><tspan id="tspan4089-7-2-9-4" y="669.5462" x="-2393.0571"/></text>
 <text id="text4087-2-6-5-1" opacity=".8" font-size="12.666px" xml:space="preserve" y="-461.32822" x="-454.88007" font-family="&apos;Bitstream Vera Sans&apos;" fill="#000000"><tspan id="tspan4089-7-2-9-7" y="-461.32822" x="-454.88007"/></text>
 <text id="text4087-2-6-5-7" opacity=".8" font-size="12.666px" xml:space="preserve" y="-874.79834" x="352.72208" font-family="&apos;Bitstream Vera Sans&apos;" fill="#000000"><tspan id="tspan4089-7-2-9-1" y="-874.79834" x="352.72208"/></text>
 <text id="text4087-2-6-5-5-3" opacity=".8" font-size="12.666px" xml:space="preserve" y="-915.54004" x="376.68301" font-family="&apos;Bitstream Vera Sans&apos;" fill="#000000"><tspan id="tspan4089-7-2-9-6-5" y="-915.54004" x="376.68301"/></text>
 <text id="text4087-2-6-5-3" opacity=".8" font-size="12.666px" xml:space="preserve" y="-922.74994" x="-1114.7802" font-family="&apos;Bitstream Vera Sans&apos;" fill="#000000"><tspan id="tspan4089-7-2-9-18" y="-922.74994" x="-1114.7802"/></text>
 <text id="text4087-2-6-5-4" opacity=".8" font-size="12.666px" xml:space="preserve" y="-1195.9841" x="345.7626" font-family="&apos;Bitstream Vera Sans&apos;" fill="#000000"><tspan id="tspan4089-7-2-9-9" y="-1195.9841" x="345.7626"/></text>
 <text id="text4087-2-6-5-7-1" opacity=".8" font-size="12.666px" xml:space="preserve" y="-569.29272" x="1831.8861" font-family="&apos;Bitstream Vera Sans&apos;" fill="#000000"><tspan id="tspan4089-7-2-9-1-8" y="-569.29272" x="1831.8861"/></text>
 <text id="text4087-2-6-5-5-5" opacity=".8" font-size="12.666px" xml:space="preserve" y="-610.03448" x="1855.8469" font-family="&apos;Bitstream Vera Sans&apos;" fill="#000000"><tspan id="tspan4089-7-2-9-6-9" y="-610.03448" x="1855.8469"/></text>
 <text id="text4087-2-6-5-75" opacity=".8" font-size="12.666px" xml:space="preserve" y="-617.24438" x="364.38376" font-family="&apos;Bitstream Vera Sans&apos;" fill="#000000"><tspan id="tspan4089-7-2-9-3" y="-617.24438" x="364.38376"/></text>
 <text id="text4087-2-6-5-4-8" opacity=".8" font-size="12.666px" xml:space="preserve" y="-890.47839" x="1824.9266" font-family="&apos;Bitstream Vera Sans&apos;" fill="#000000"><tspan id="tspan4089-7-2-9-9-8" y="-890.47839" x="1824.9266"/></text>
 <text id="text4087-2-6-5-45" opacity=".8" font-size="12.666px" xml:space="preserve" y="-665.33569" x="-573.43256" font-family="&apos;Bitstream Vera Sans&apos;" fill="#000000"><tspan id="tspan4089-7-2-9-75" y="-665.33569" x="-573.43256"/></text>
 <text id="text4087-2-6-5-59-7" opacity=".8" font-size="12.666px" xml:space="preserve" y="80.217857" x="-2397.1182" font-family="&apos;Bitstream Vera Sans&apos;" fill="#000000"><tspan id="tspan4089-7-2-9-4-0" y="80.217857" x="-2397.1182"/></text>
 <text id="text4087-2-6-5-8" opacity=".8" font-size="12.666px" xml:space="preserve" y="173.09" x="-682.36279" font-family="&apos;Bitstream Vera Sans&apos;" fill="#000000"><tspan id="tspan4089-7-2-9-19" y="173.09" x="-682.36279"/></text>
 <text id="text4087-2-6-5-7-5" opacity=".8" font-size="12.666px" xml:space="preserve" y="-6.0921478" x="426.66153" font-family="&apos;Bitstream Vera Sans&apos;" fill="#000000"><tspan id="tspan4089-7-2-9-1-2" y="-6.0921478" x="426.66153"/></text>
 <text id="text4087-2-6-5-5-0" opacity=".8" font-size="12.666px" xml:space="preserve" y="-46.833855" x="450.62247" font-family="&apos;Bitstream Vera Sans&apos;" fill="#000000"><tspan id="tspan4089-7-2-9-6-2" y="-46.833855" x="450.62247"/></text>
 <text id="text4087-2-6-5-26" opacity=".8" font-size="12.666px" xml:space="preserve" y="-54.043827" x="-1040.8407" font-family="&apos;Bitstream Vera Sans&apos;" fill="#000000"><tspan id="tspan4089-7-2-9-90" y="-54.043827" x="-1040.8407"/></text>
 <text id="text4087-2-6-5-4-3" opacity=".8" font-size="12.666px" xml:space="preserve" y="-327.27789" x="419.70206" font-family="&apos;Bitstream Vera Sans&apos;" fill="#000000"><tspan id="tspan4089-7-2-9-9-5" y="-327.27789" x="419.70206"/></text>
 <text id="text4087-2-6-5-55" opacity=".8" font-size="12.666px" xml:space="preserve" y="-56.758072" x="-608.03253" font-family="&apos;Bitstream Vera Sans&apos;" fill="#000000"><tspan id="tspan4089-7-2-9-32" y="-56.758072" x="-608.03253"/></text>
 <text id="text4087-2-6-5-59-9" opacity=".8" font-size="12.666px" xml:space="preserve" y="688.79541" x="-2431.7185" font-family="&apos;Bitstream Vera Sans&apos;" fill="#000000"><tspan id="tspan4089-7-2-9-4-1" y="688.79541" x="-2431.7185"/></text>
 <text id="text4087-2-6-5-1-8" opacity=".8" font-size="12.666px" xml:space="preserve" y="-918.28857" x="-456.93948" font-family="&apos;Bitstream Vera Sans&apos;" fill="#000000"><tspan id="tspan4089-7-2-9-7-8" y="-918.28857" x="-456.93948"/></text>
 <text id="text4087-2-6-5-7-8" opacity=".8" font-size="12.666px" xml:space="preserve" y="-1331.7588" x="350.66266" font-family="&apos;Bitstream Vera Sans&apos;" fill="#000000"><tspan id="tspan4089-7-2-9-1-9" y="-1331.7588" x="350.66266"/></text>
 <text id="text4087-2-6-5-5-52" opacity=".8" font-size="12.666px" xml:space="preserve" y="-1372.5005" x="374.62357" font-family="&apos;Bitstream Vera Sans&apos;" fill="#000000"><tspan id="tspan4089-7-2-9-6-4" y="-1372.5005" x="374.62357"/></text>
 <text id="text4087-2-6-5-3-4" opacity=".8" font-size="12.666px" xml:space="preserve" y="-1379.7104" x="-1116.8396" font-family="&apos;Bitstream Vera Sans&apos;" fill="#000000"><tspan id="tspan4089-7-2-9-18-3" y="-1379.7104" x="-1116.8396"/></text>
 <text id="text4087-2-6-5-4-7" opacity=".8" font-size="12.666px" xml:space="preserve" y="-1652.9446" x="343.70316" font-family="&apos;Bitstream Vera Sans&apos;" fill="#000000"><tspan id="tspan4089-7-2-9-9-54" y="-1652.9446" x="343.70316"/></text>
 <text id="text4087-2-6-5-7-1-2" opacity=".8" font-size="12.666px" xml:space="preserve" y="-1026.2533" x="1829.8265" font-family="&apos;Bitstream Vera Sans&apos;" fill="#000000"><tspan id="tspan4089-7-2-9-1-8-0" y="-1026.2533" x="1829.8265"/></text>
 <text id="text4087-2-6-5-5-5-6" opacity=".8" font-size="12.666px" xml:space="preserve" y="-1066.9949" x="1853.7874" font-family="&apos;Bitstream Vera Sans&apos;" fill="#000000"><tspan id="tspan4089-7-2-9-6-9-8" y="-1066.9949" x="1853.7874"/></text>
 <text id="text4087-2-6-5-75-4" opacity=".8" font-size="12.666px" xml:space="preserve" y="-1074.2048" x="362.32431" font-family="&apos;Bitstream Vera Sans&apos;" fill="#000000"><tspan id="tspan4089-7-2-9-3-9" y="-1074.2048" x="362.32431"/></text>
 <text id="text4087-2-6-5-4-8-1" opacity=".8" font-size="12.666px" xml:space="preserve" y="-1347.439" x="1822.8671" font-family="&apos;Bitstream Vera Sans&apos;" fill="#000000"><tspan id="tspan4089-7-2-9-9-8-8" y="-1347.439" x="1822.8671"/></text>
 <text id="text4087-2-6-5-45-0" opacity=".8" font-size="12.666px" xml:space="preserve" y="-1122.2961" x="-575.492" font-family="&apos;Bitstream Vera Sans&apos;" fill="#000000"><tspan id="tspan4089-7-2-9-75-2" y="-1122.2961" x="-575.492"/></text>
 <text id="text4087-2-6-5-59-5" opacity=".8" font-size="12.666px" xml:space="preserve" y="-376.74261" x="-2399.1777" font-family="&apos;Bitstream Vera Sans&apos;" fill="#000000"><tspan id="tspan4089-7-2-9-4-00" y="-376.74261" x="-2399.1777"/></text>
 <text id="text4087-2-6-5-264" opacity=".8" font-size="12.666px" xml:space="preserve" y="-283.87045" x="-684.42224" font-family="&apos;Bitstream Vera Sans&apos;" fill="#000000"><tspan id="tspan4089-7-2-9-8" y="-283.87045" x="-684.42224"/></text>
 <text id="text4087-2-6-5-42" opacity=".8" font-size="12.666px" xml:space="preserve" y="-42.956276" x="155.5923" font-family="&apos;Bitstream Vera Sans&apos;" fill="#000000"><tspan id="tspan4089-7-2-9-93" y="-42.956276" x="155.5923"/></text>
 <text id="text4087-2-6-5-5-05" opacity=".8" font-size="12.666px" xml:space="preserve" y="-83.697998" x="179.55324" font-family="&apos;Bitstream Vera Sans&apos;" fill="#000000"><tspan id="tspan4089-7-2-9-6-49" y="-83.697998" x="179.55324"/></text>
 <text id="text4087-2-6-5-1-4" opacity=".8" font-size="12.666px" xml:space="preserve" y="-277.72662" x="-1090.2634" font-family="&apos;Bitstream Vera Sans&apos;" fill="#000000"><tspan id="tspan4089-7-2-9-7-7" y="-277.72662" x="-1090.2634"/></text>
 <text id="text4087-2-6-5-7-56" opacity=".8" font-size="12.666px" xml:space="preserve" y="-691.19678" x="-282.66141" font-family="&apos;Bitstream Vera Sans&apos;" fill="#000000"><tspan id="tspan4089-7-2-9-1-1" y="-691.19678" x="-282.66141"/></text>
 <text id="text4087-2-6-5-5-8" opacity=".8" font-size="12.666px" xml:space="preserve" y="-731.93848" x="-258.70047" font-family="&apos;Bitstream Vera Sans&apos;" fill="#000000"><tspan id="tspan4089-7-2-9-6-7" y="-731.93848" x="-258.70047"/></text>
 <text id="text4087-2-6-5-3-42" opacity=".8" font-size="12.666px" xml:space="preserve" y="-739.14838" x="-1750.1636" font-family="&apos;Bitstream Vera Sans&apos;" fill="#000000"><tspan id="tspan4089-7-2-9-18-39" y="-739.14838" x="-1750.1636"/></text>
 <text id="text4087-2-6-5-4-4" opacity=".8" font-size="12.666px" xml:space="preserve" y="-1012.3825" x="-289.62085" font-family="&apos;Bitstream Vera Sans&apos;" fill="#000000"><tspan id="tspan4089-7-2-9-9-3" y="-1012.3825" x="-289.62085"/></text>
 <text id="text4087-2-6-5-7-1-0" opacity=".8" font-size="12.666px" xml:space="preserve" y="-385.69113" x="1196.5026" font-family="&apos;Bitstream Vera Sans&apos;" fill="#000000"><tspan id="tspan4089-7-2-9-1-8-5" y="-385.69113" x="1196.5026"/></text>
 <text id="text4087-2-6-5-5-5-5" opacity=".8" font-size="12.666px" xml:space="preserve" y="-426.43286" x="1220.4634" font-family="&apos;Bitstream Vera Sans&apos;" fill="#000000"><tspan id="tspan4089-7-2-9-6-9-2" y="-426.43286" x="1220.4634"/></text>
 <text id="text4087-2-6-5-75-9" opacity=".8" font-size="12.666px" xml:space="preserve" y="-433.64282" x="-270.99973" font-family="&apos;Bitstream Vera Sans&apos;" fill="#000000"><tspan id="tspan4089-7-2-9-3-1" y="-433.64282" x="-270.99973"/></text>
 <text id="text4087-2-6-5-4-8-18" opacity=".8" font-size="12.666px" xml:space="preserve" y="-706.87689" x="1189.5431" font-family="&apos;Bitstream Vera Sans&apos;" fill="#000000"><tspan id="tspan4089-7-2-9-9-8-4" y="-706.87689" x="1189.5431"/></text>
 <text id="text4087-2-6-5-45-3" opacity=".8" font-size="12.666px" xml:space="preserve" y="-481.7341" x="-1208.816" font-family="&apos;Bitstream Vera Sans&apos;" fill="#000000"><tspan id="tspan4089-7-2-9-75-7" y="-481.7341" x="-1208.816"/></text>
 <text id="text4087-2-6-5-59-8" opacity=".8" font-size="12.666px" xml:space="preserve" y="263.81946" x="-3032.5017" font-family="&apos;Bitstream Vera Sans&apos;" fill="#000000"><tspan id="tspan4089-7-2-9-4-2" y="263.81946" x="-3032.5017"/></text>
 <g id="layer4-0" transform="matrix(.90475 0 0 .90475 -716.75 -692.29)">
  <text id="text4087-2-6-5-20" opacity=".8" font-size="14px" xml:space="preserve" y="1159.4154" x="-664.2738" font-family="&apos;Bitstream Vera Sans&apos;" fill="#000000"><tspan id="tspan4089-7-2-9-82" y="1159.4154" x="-664.2738"/></text>
 </g>
 <text id="text4087-2-6-5-9" opacity=".8" font-size="12.666px" xml:space="preserve" y="2.0505886" x="877.22626" font-family="&apos;Bitstream Vera Sans&apos;" fill="#000000"><tspan id="tspan4089-7-2-9-43" y="2.0505886" x="877.22626"/></text>
 <text id="text4087-2-6-5-5-51" opacity=".8" font-size="12.666px" xml:space="preserve" y="-38.691116" x="901.18719" font-family="&apos;Bitstream Vera Sans&apos;" fill="#000000"><tspan id="tspan4089-7-2-9-6-74" y="-38.691116" x="901.18719"/></text>
 <text id="text4087-2-6-5-2-3" opacity=".8" font-size="12.666px" xml:space="preserve" y="-68.769257" x="-569.37115" font-family="&apos;Bitstream Vera Sans&apos;" fill="#000000"><tspan id="tspan4089-7-2-9-2-1" y="-68.769257" x="-569.37115"/></text>
 <text id="text4087-2-6-5-59-4" opacity=".8" font-size="12.666px" xml:space="preserve" y="676.78418" x="-2393.0571" font-family="&apos;Bitstream Vera Sans&apos;" fill="#000000"><tspan id="tspan4089-7-2-9-4-6" y="676.78418" x="-2393.0571"/></text>
 <text id="text4087-2-6-5-1-9" opacity=".8" font-size="12.666px" xml:space="preserve" y="-454.09021" x="-454.88007" font-family="&apos;Bitstream Vera Sans&apos;" fill="#000000"><tspan id="tspan4089-7-2-9-7-4" y="-454.09021" x="-454.88007"/></text>
 <text id="text4087-2-6-5-7-2" opacity=".8" font-size="12.666px" xml:space="preserve" y="-867.5603" x="352.72208" font-family="&apos;Bitstream Vera Sans&apos;" fill="#000000"><tspan id="tspan4089-7-2-9-1-26" y="-867.5603" x="352.72208"/></text>
 <text id="text4087-2-6-5-5-3-4" opacity=".8" font-size="12.666px" xml:space="preserve" y="-908.30206" x="376.68301" font-family="&apos;Bitstream Vera Sans&apos;" fill="#000000"><tspan id="tspan4089-7-2-9-6-5-1" y="-908.30206" x="376.68301"/></text>
 <text id="text4087-2-6-5-3-2" opacity=".8" font-size="12.666px" xml:space="preserve" y="-915.51196" x="-1114.7802" font-family="&apos;Bitstream Vera Sans&apos;" fill="#000000"><tspan id="tspan4089-7-2-9-18-8" y="-915.51196" x="-1114.7802"/></text>
 <text id="text4087-2-6-5-4-89" opacity=".8" font-size="12.666px" xml:space="preserve" y="-1188.7461" x="345.7626" font-family="&apos;Bitstream Vera Sans&apos;" fill="#000000"><tspan id="tspan4089-7-2-9-9-2" y="-1188.7461" x="345.7626"/></text>
 <text id="text4087-2-6-5-7-1-8" opacity=".8" font-size="12.666px" xml:space="preserve" y="-562.05475" x="1831.8861" font-family="&apos;Bitstream Vera Sans&apos;" fill="#000000"><tspan id="tspan4089-7-2-9-1-8-8" y="-562.05475" x="1831.8861"/></text>
 <text id="text4087-2-6-5-5-5-8" opacity=".8" font-size="12.666px" xml:space="preserve" y="-602.79651" x="1855.8469" font-family="&apos;Bitstream Vera Sans&apos;" fill="#000000"><tspan id="tspan4089-7-2-9-6-9-6" y="-602.79651" x="1855.8469"/></text>
 <text id="text4087-2-6-5-75-8" opacity=".8" font-size="12.666px" xml:space="preserve" y="-610.00641" x="364.38376" font-family="&apos;Bitstream Vera Sans&apos;" fill="#000000"><tspan id="tspan4089-7-2-9-3-3" y="-610.00641" x="364.38376"/></text>
 <text id="text4087-2-6-5-4-8-8" opacity=".8" font-size="12.666px" xml:space="preserve" y="-883.24036" x="1824.9266" font-family="&apos;Bitstream Vera Sans&apos;" fill="#000000"><tspan id="tspan4089-7-2-9-9-8-3" y="-883.24036" x="1824.9266"/></text>
 <text id="text4087-2-6-5-45-33" opacity=".8" font-size="12.666px" xml:space="preserve" y="-658.09772" x="-573.43256" font-family="&apos;Bitstream Vera Sans&apos;" fill="#000000"><tspan id="tspan4089-7-2-9-75-8" y="-658.09772" x="-573.43256"/></text>
 <text id="text4087-2-6-5-59-7-0" opacity=".8" font-size="12.666px" xml:space="preserve" y="87.455849" x="-2397.1182" font-family="&apos;Bitstream Vera Sans&apos;" fill="#000000"><tspan id="tspan4089-7-2-9-4-0-4" y="87.455849" x="-2397.1182"/></text>
 <text id="text4087-2-6-5-8-7" opacity=".8" font-size="12.666px" xml:space="preserve" y="180.32799" x="-682.36279" font-family="&apos;Bitstream Vera Sans&apos;" fill="#000000"><tspan id="tspan4089-7-2-9-19-6" y="180.32799" x="-682.36279"/></text>
 <text id="text4087-2-6-5-7-5-8" opacity=".8" font-size="12.666px" xml:space="preserve" y="1.1458397" x="426.66153" font-family="&apos;Bitstream Vera Sans&apos;" fill="#000000"><tspan id="tspan4089-7-2-9-1-2-9" y="1.1458397" x="426.66153"/></text>
 <text id="text4087-2-6-5-5-0-0" opacity=".8" font-size="12.666px" xml:space="preserve" y="-39.595863" x="450.62247" font-family="&apos;Bitstream Vera Sans&apos;" fill="#000000"><tspan id="tspan4089-7-2-9-6-2-6" y="-39.595863" x="450.62247"/></text>
 <text id="text4087-2-6-5-26-8" opacity=".8" font-size="12.666px" xml:space="preserve" y="-46.805836" x="-1040.8407" font-family="&apos;Bitstream Vera Sans&apos;" fill="#000000"><tspan id="tspan4089-7-2-9-90-7" y="-46.805836" x="-1040.8407"/></text>
 <text id="text4087-2-6-5-4-3-9" opacity=".8" font-size="12.666px" xml:space="preserve" y="-320.03989" x="419.70206" font-family="&apos;Bitstream Vera Sans&apos;" fill="#000000"><tspan id="tspan4089-7-2-9-9-5-0" y="-320.03989" x="419.70206"/></text>
 <text id="text4087-2-6-5-55-3" opacity=".8" font-size="12.666px" xml:space="preserve" y="-49.520081" x="-608.03253" font-family="&apos;Bitstream Vera Sans&apos;" fill="#000000"><tspan id="tspan4089-7-2-9-32-3" y="-49.520081" x="-608.03253"/></text>
 <text id="text4087-2-6-5-59-9-3" opacity=".8" font-size="12.666px" xml:space="preserve" y="696.03345" x="-2431.7185" font-family="&apos;Bitstream Vera Sans&apos;" fill="#000000"><tspan id="tspan4089-7-2-9-4-1-7" y="696.03345" x="-2431.7185"/></text>
 <text id="text4087-2-6-5-1-8-3" opacity=".8" font-size="12.666px" xml:space="preserve" y="-911.0506" x="-456.93948" font-family="&apos;Bitstream Vera Sans&apos;" fill="#000000"><tspan id="tspan4089-7-2-9-7-8-2" y="-911.0506" x="-456.93948"/></text>
 <text id="text4087-2-6-5-7-8-6" opacity=".8" font-size="12.666px" xml:space="preserve" y="-1324.5208" x="350.66266" font-family="&apos;Bitstream Vera Sans&apos;" fill="#000000"><tspan id="tspan4089-7-2-9-1-9-5" y="-1324.5208" x="350.66266"/></text>
 <text id="text4087-2-6-5-5-52-2" opacity=".8" font-size="12.666px" xml:space="preserve" y="-1365.2626" x="374.62357" font-family="&apos;Bitstream Vera Sans&apos;" fill="#000000"><tspan id="tspan4089-7-2-9-6-4-6" y="-1365.2626" x="374.62357"/></text>
 <text id="text4087-2-6-5-3-4-5" opacity=".8" font-size="12.666px" xml:space="preserve" y="-1372.4724" x="-1116.8396" font-family="&apos;Bitstream Vera Sans&apos;" fill="#000000"><tspan id="tspan4089-7-2-9-18-3-8" y="-1372.4724" x="-1116.8396"/></text>
 <text id="text4087-2-6-5-4-7-7" opacity=".8" font-size="12.666px" xml:space="preserve" y="-1645.7065" x="343.70316" font-family="&apos;Bitstream Vera Sans&apos;" fill="#000000"><tspan id="tspan4089-7-2-9-9-54-9" y="-1645.7065" x="343.70316"/></text>
 <text id="text4087-2-6-5-7-1-2-6" opacity=".8" font-size="12.666px" xml:space="preserve" y="-1019.0153" x="1829.8265" font-family="&apos;Bitstream Vera Sans&apos;" fill="#000000"><tspan id="tspan4089-7-2-9-1-8-0-0" y="-1019.0153" x="1829.8265"/></text>
 <text id="text4087-2-6-5-5-5-6-4" opacity=".8" font-size="12.666px" xml:space="preserve" y="-1059.757" x="1853.7874" font-family="&apos;Bitstream Vera Sans&apos;" fill="#000000"><tspan id="tspan4089-7-2-9-6-9-8-1" y="-1059.757" x="1853.7874"/></text>
 <text id="text4087-2-6-5-75-4-0" opacity=".8" font-size="12.666px" xml:space="preserve" y="-1066.9668" x="362.32431" font-family="&apos;Bitstream Vera Sans&apos;" fill="#000000"><tspan id="tspan4089-7-2-9-3-9-4" y="-1066.9668" x="362.32431"/></text>
 <text id="text4087-2-6-5-4-8-1-8" opacity=".8" font-size="12.666px" xml:space="preserve" y="-1340.2009" x="1822.8671" font-family="&apos;Bitstream Vera Sans&apos;" fill="#000000"><tspan id="tspan4089-7-2-9-9-8-8-7" y="-1340.2009" x="1822.8671"/></text>
 <text id="text4087-2-6-5-45-0-0" opacity=".8" font-size="12.666px" xml:space="preserve" y="-1115.0581" x="-575.492" font-family="&apos;Bitstream Vera Sans&apos;" fill="#000000"><tspan id="tspan4089-7-2-9-75-2-8" y="-1115.0581" x="-575.492"/></text>
 <text id="text4087-2-6-5-59-5-6" opacity=".8" font-size="12.666px" xml:space="preserve" y="-369.50461" x="-2399.1777" font-family="&apos;Bitstream Vera Sans&apos;" fill="#000000"><tspan id="tspan4089-7-2-9-4-00-2" y="-369.50461" x="-2399.1777"/></text>
 <text id="text4087-2-6-5-264-4" opacity=".8" font-size="12.666px" xml:space="preserve" y="-276.63245" x="-684.42224" font-family="&apos;Bitstream Vera Sans&apos;" fill="#000000"><tspan id="tspan4089-7-2-9-8-7" y="-276.63245" x="-684.42224"/></text>
 <text id="text4087-2-6-5-42-9" opacity=".8" font-size="12.666px" xml:space="preserve" y="-35.718292" x="155.5923" font-family="&apos;Bitstream Vera Sans&apos;" fill="#000000"><tspan id="tspan4089-7-2-9-93-3" y="-35.718292" x="155.5923"/></text>
 <text id="text4087-2-6-5-5-05-9" opacity=".8" font-size="12.666px" xml:space="preserve" y="-76.460007" x="179.55324" font-family="&apos;Bitstream Vera Sans&apos;" fill="#000000"><tspan id="tspan4089-7-2-9-6-49-2" y="-76.460007" x="179.55324"/></text>
 <text id="text4087-2-6-5-1-4-8" opacity=".8" font-size="12.666px" xml:space="preserve" y="-270.48859" x="-1090.2634" font-family="&apos;Bitstream Vera Sans&apos;" fill="#000000"><tspan id="tspan4089-7-2-9-7-7-3" y="-270.48859" x="-1090.2634"/></text>
 <text id="text4087-2-6-5-7-56-0" opacity=".8" font-size="12.666px" xml:space="preserve" y="-683.9588" x="-282.66141" font-family="&apos;Bitstream Vera Sans&apos;" fill="#000000"><tspan id="tspan4089-7-2-9-1-1-1" y="-683.9588" x="-282.66141"/></text>
 <text id="text4087-2-6-5-5-8-7" opacity=".8" font-size="12.666px" xml:space="preserve" y="-724.7005" x="-258.70047" font-family="&apos;Bitstream Vera Sans&apos;" fill="#000000"><tspan id="tspan4089-7-2-9-6-7-8" y="-724.7005" x="-258.70047"/></text>
 <text id="text4087-2-6-5-3-42-9" opacity=".8" font-size="12.666px" xml:space="preserve" y="-731.91046" x="-1750.1636" font-family="&apos;Bitstream Vera Sans&apos;" fill="#000000"><tspan id="tspan4089-7-2-9-18-39-1" y="-731.91046" x="-1750.1636"/></text>
 <text id="text4087-2-6-5-4-4-5" opacity=".8" font-size="12.666px" xml:space="preserve" y="-1005.1445" x="-289.62085" font-family="&apos;Bitstream Vera Sans&apos;" fill="#000000"><tspan id="tspan4089-7-2-9-9-3-4" y="-1005.1445" x="-289.62085"/></text>
 <text id="text4087-2-6-5-7-1-0-9" opacity=".8" font-size="12.666px" xml:space="preserve" y="-378.45316" x="1196.5026" font-family="&apos;Bitstream Vera Sans&apos;" fill="#000000"><tspan id="tspan4089-7-2-9-1-8-5-2" y="-378.45316" x="1196.5026"/></text>
 <text id="text4087-2-6-5-5-5-5-5" opacity=".8" font-size="12.666px" xml:space="preserve" y="-419.19489" x="1220.4634" font-family="&apos;Bitstream Vera Sans&apos;" fill="#000000"><tspan id="tspan4089-7-2-9-6-9-2-7" y="-419.19489" x="1220.4634"/></text>
 <text id="text4087-2-6-5-75-9-4" opacity=".8" font-size="12.666px" xml:space="preserve" y="-426.40482" x="-270.99973" font-family="&apos;Bitstream Vera Sans&apos;" fill="#000000"><tspan id="tspan4089-7-2-9-3-1-9" y="-426.40482" x="-270.99973"/></text>
 <text id="text4087-2-6-5-4-8-18-9" opacity=".8" font-size="12.666px" xml:space="preserve" y="-699.63892" x="1189.5431" font-family="&apos;Bitstream Vera Sans&apos;" fill="#000000"><tspan id="tspan4089-7-2-9-9-8-4-4" y="-699.63892" x="1189.5431"/></text>
 <text id="text4087-2-6-5-45-3-5" opacity=".8" font-size="12.666px" xml:space="preserve" y="-474.49609" x="-1208.816" font-family="&apos;Bitstream Vera Sans&apos;" fill="#000000"><tspan id="tspan4089-7-2-9-75-7-9" y="-474.49609" x="-1208.816"/></text>
 <text id="text4087-2-6-5-59-8-3" opacity=".8" font-size="12.666px" xml:space="preserve" y="271.05743" x="-3032.5017" font-family="&apos;Bitstream Vera Sans&apos;" fill="#000000"><tspan id="tspan4089-7-2-9-4-2-5" y="271.05743" x="-3032.5017"/></text>
 <g id="layer4-0-7" transform="matrix(.90475 0 0 .90475 -716.75 -685.05)">
  <text id="text4087-2-6-5-20-0" opacity=".8" font-size="14px" xml:space="preserve" y="1159.4154" x="-664.2738" font-family="&apos;Bitstream Vera Sans&apos;" fill="#000000"><tspan id="tspan4089-7-2-9-82-8" y="1159.4154" x="-664.2738"/></text>
 </g>
 <text id="text7276" font-size="12.666px" xml:space="preserve" y="-377.22546" x="435.90427" font-family="&apos;Droid Sans&apos;" fill="#000000"><tspan id="tspan7278" y="-377.22546" x="435.90427"/><tspan id="tspan7280" y="-361.3924" x="435.90427"/></text>
 <text id="text4087-2-6-5-51" opacity=".8" font-size="12.666px" xml:space="preserve" y="-859.27002" x="901.0882" font-family="&apos;Bitstream Vera Sans&apos;" fill="#000000"><tspan id="tspan4089-7-2-9-97" y="-859.27002" x="901.0882"/></text>
 <text id="text4087-2-6-5-59-2" opacity=".8" font-size="12.666px" xml:space="preserve" y="-113.71655" x="-922.59778" font-family="&apos;Bitstream Vera Sans&apos;" fill="#000000"><tspan id="tspan4089-7-2-9-4-4" y="-113.71655" x="-922.59778"/></text>
 <text id="text4087-2-6-5-7-7" opacity=".8" font-size="12.666px" xml:space="preserve" y="-1144.2659" x="1628.1677" font-family="&apos;Bitstream Vera Sans&apos;" fill="#000000"><tspan id="tspan4089-7-2-9-1-6" y="-1144.2659" x="1628.1677"/></text>
 <text id="text4087-2-6-5-5-6" opacity=".8" font-size="12.666px" xml:space="preserve" y="-1185.0076" x="1652.1285" font-family="&apos;Bitstream Vera Sans&apos;" fill="#000000"><tspan id="tspan4089-7-2-9-6-53" y="-1185.0076" x="1652.1285"/></text>
 <text id="text4087-2-6-5-54" opacity=".8" font-size="12.666px" xml:space="preserve" y="-1192.2175" x="160.66542" font-family="&apos;Bitstream Vera Sans&apos;" fill="#000000"><tspan id="tspan4089-7-2-9-0" y="-1192.2175" x="160.66542"/></text>
 <text id="text4087-2-6-5-4-1" opacity=".8" font-size="12.666px" xml:space="preserve" y="-1465.4517" x="1621.2083" font-family="&apos;Bitstream Vera Sans&apos;" fill="#000000"><tspan id="tspan4089-7-2-9-9-28" y="-1465.4517" x="1621.2083"/></text>
 <path id="path4404" style="color:#000000" fill="#7ec242" d="m14.092 2.003c-0.93115-0.019831-1.7403 0.063298-2.0703 0.1543-0.52077 0.13883-1.1027 0.43446-1.4219 0.8848-0.21719 0.30217-0.35938 0.68877-0.35938 1.2266 0 0.30334 0.0111 1.0228 0.01953 1.6622 0.0084 0.64867 0.01563 1.2168 0.01563 1.2168 0 0.57167-0.47258 1.0321-1.0605 1.045h-2.6934c-0.57597 0-1.0133 0.09403-1.3457 0.2422-0.3361 0.1516-0.5752 0.3475-0.754 0.5878-0.3624 0.4714-0.4219 1.0523-0.4219 1.6443 0-0.000001 0.00495 0.47535 0.125 1.418 0.10199 0.7315 0.90512 5.8048 1.6719 7.3401 0.29758 0.60084 0.49496 0.84849 1.0781 1.1133 1.2995 0.5425 4.2738 1.1496 5.6621 1.3223 1.3931 0.17267 2.2624 0.53824 2.7832-0.5176 0.0036 0 0.10645-0.26503 0.24805-0.65237 0.45117-1.3323 0.51172-2.5204 0.51172-3.379 0-0.084 0.13281-0.08866 0.13281 0 0 0.60667-0.12 2.748 1.5371 3.3243 0.65636 0.22634 2.0107 0.42767 3.3906 0.584 1.2491 0.13884 2.1523 0.61759 2.1523 3.7443 0 1.9017-0.40829 2.1524-2.543 2.1524-1.7339 0-2.3965 0.04747-2.3965-1.2989 0-1.0897 1.1032-0.96488 1.918-0.96488 0.36118 0 0.09766-0.26708 0.09766-0.93558 0-0.66384 0.42782-1.0516 0.02344-1.0586-2.8162-0.07583-4.4766-0.0049-4.4766 3.4357 0 3.127 1.226 3.707 5.227 3.707 3.1366 0 4.2443-0.10473 5.5391-4.0236 0.25559-0.77467 0.87953-3.1383 1.2539-7.1096 0.2352-2.5072-0.22657-10.079-0.59375-11.998v-0.00195c-0.213-1.1194-0.889-1.6653-1.508-1.8835-0.664-0.2356-2.011-0.4731-3.699-0.668-1.363-0.1586-2.963-0.1494-3.93-0.1191-0.115-0.7747-0.672-1.4781-1.295-1.7266-0.83-0.3232-1.886-0.447-2.818-0.4668zm8.465 11.998c1.265 0.04149 1.4386 1.2087 1.4434 1.9981-0.53252-0.23279-1.1833-0.38286-1.9004-0.40822h-0.0039c-0.38105-0.01729-0.74897 0.0142-1.0957 0.06836 0.10532-0.76404 0.42769-1.6997 1.5566-1.6583z"/>
 <path id="path4409" opacity=".3" style="color:#000000" d="m10.25 4.1211c-0.003 0.0501-0.01 0.0955-0.01 0.1484 0 0.3034 0.011 1.0228 0.02 1.6621 0.002 0.1469 0.002 0.1425 0.004 0.2754 0.001-0.0204 0.011-0.0378 0.011-0.0586 0 0-0.007-0.5681-0.015-1.2168-0.004-0.3117-0.006-0.5182-0.01-0.8105zm-6.2207 6.0119c-0.018 0.175-0.0293 0.354-0.0293 0.535 0 0 0.005 0.475 0.125 1.418 0.102 0.731 0.9051 5.804 1.6719 7.34 0.2976 0.601 0.4949 0.848 1.0781 1.113 1.2995 0.543 4.274 1.15 5.662 1.322 1.393 0.173 2.263 0.539 2.783-0.517 0.004 0 0.107-0.265 0.248-0.653 0.452-1.332 0.512-2.52 0.512-3.379 0-0.084 0.133-0.088 0.133 0 0 0.607-0.12 2.748 1.537 3.325 0.656 0.226 2.011 0.427 3.391 0.584 1.18 0.131 2.042 0.595 2.134 3.281 0.011-0.165 0.018-0.337 0.018-0.537 0-3.127-0.903-3.605-2.152-3.744-1.38-0.157-2.735-0.358-3.391-0.584-1.657-0.577-1.537-2.718-1.537-3.325 0-0.088-0.133-0.084-0.133 0 0 0.859-0.06 2.047-0.512 3.379-0.141 0.388-0.244 0.653-0.248 0.653-0.52 1.056-1.39 0.69-2.783 0.517-1.388-0.172-4.3625-0.779-5.662-1.322-0.5832-0.265-0.7805-0.512-1.0781-1.113-0.7668-1.536-1.5699-6.609-1.6719-7.34-0.0538-0.423-0.0782-0.719-0.0957-0.953zm18.528 2.869c-1.129-0.042-1.452 0.894-1.557 1.658 0.11-0.017 0.226-0.027 0.34-0.039 0.231-0.371 0.602-0.642 1.217-0.619 0.748 0.025 1.109 0.446 1.285 0.947 0.049 0.02 0.11 0.03 0.158 0.051-0.005-0.789-0.178-1.957-1.443-1.998zm5.435 3.168c-0.003 0.666-0.016 1.271-0.056 1.697-0.375 3.972-0.999 6.335-1.254 7.11-1.295 3.918-2.403 4.023-5.539 4.023-3.746 0-5.043-0.536-5.196-3.166-0.008 0.157-0.031 0.287-0.031 0.461 0 3.125 1.226 3.705 5.227 3.705 3.136 0 4.244-0.105 5.539-4.023 0.255-0.775 0.879-3.138 1.254-7.11 0.059-0.633 0.073-1.591 0.056-2.697zm-7.615 6.689c-0.001 0.022-0.008 0.037-0.008 0.059 0 0.246 0.032 0.421 0.059 0.564 0.101-0.394 0.27-0.617-0.035-0.623-0.006 0-0.011 0.001-0.016 0zm0.006 0.959c-0.03 0.016-0.052 0.036-0.112 0.036-0.814 0-1.917-0.125-1.917 0.964 0 0.246 0.029 0.432 0.076 0.594 0.255-0.641 1.149-0.558 1.841-0.558 0.362 0 0.098-0.268 0.098-0.936 0-0.037 0.011-0.064 0.014-0.1z"/>
 <path id="path4414" opacity=".1" style="color:#000000" d="m14.092 2.0039c-0.931-0.0198-1.741 0.0633-2.071 0.1543-0.52 0.1388-1.102 0.4344-1.421 0.8848-0.218 0.3021-0.36 0.6887-0.36 1.2265 0 0.1554 0.006 0.5445 0.01 0.8516 0.025-0.4586 0.154-0.8057 0.35-1.0781 0.319-0.4504 0.901-0.746 1.421-0.8848 0.33-0.091 1.14-0.1741 2.071-0.1543 0.932 0.0198 1.988 0.1436 2.818 0.4668 0.623 0.2485 1.18 0.9519 1.295 1.7266 0.967-0.0304 2.567-0.0396 3.93 0.1191 1.688 0.1948 3.035 0.4323 3.699 0.668 0.619 0.2181 1.295 0.7639 1.508 1.8828v0.0019c0.274 1.4347 0.601 6.0259 0.65 9.3009 0.018-3.253-0.345-8.7078-0.65-10.301v-0.0018c-0.213-1.1189-0.889-1.6647-1.508-1.8828-0.664-0.2357-2.011-0.4732-3.699-0.668-1.363-0.1587-2.963-0.1495-3.93-0.1191-0.115-0.7747-0.672-1.4781-1.295-1.7266-0.83-0.3232-1.886-0.447-2.818-0.4668zm-3.828 5.2031c-0.033 0.5427-0.4826 0.974-1.0492 0.9864h-2.6933c-0.576 0-1.0133 0.094-1.3457 0.2421-0.336 0.1517-0.5751 0.3476-0.7539 0.5879-0.3624 0.4714-0.4219 1.0516-0.4219 1.6446 0 0 0.0078 0.177 0.0293 0.465 0.0409-0.401 0.1407-0.782 0.3926-1.11 0.1788-0.2399 0.4179-0.4358 0.7539-0.5875 0.3324-0.1481 0.7697-0.2421 1.3457-0.2421h2.6933c0.588-0.0129 1.0602-0.4733 1.0602-1.045 0 0-0.005-0.487-0.011-0.9414zm11.832 8.385c-0.26-0.012-0.511 0.004-0.756 0.029-0.194 0.311-0.292 0.691-0.34 1.039 0.347-0.054 0.715-0.085 1.096-0.068h0.004c0.717 0.025 1.367 0.175 1.9 0.408-0.002-0.322-0.037-0.705-0.158-1.051-0.504-0.198-1.09-0.334-1.742-0.357h-0.004zm-2.703 7.252c-2.205 0.01-3.477 0.44-3.477 3.451 0 0.199 0.021 0.36 0.031 0.539 0.158-2.944 1.766-3.046 4.43-2.975 0.026-0.624 0.407-0.993 0.016-1-0.352-0.009-0.685-0.017-1-0.015zm1.035 1.638c-0.026 0.099-0.037 0.217-0.045 0.336 0.083-0.043 0.079-0.153 0.045-0.336zm2.847 1.02c-0.089 1.405-0.615 1.615-2.525 1.615-1.417 0-2.111 0.019-2.32-0.705-0.046 0.114-0.076 0.242-0.076 0.406 0 1.347 0.662 1.299 2.396 1.299 2.135 0 2.543-0.25 2.543-2.152 0-0.172-0.012-0.307-0.018-0.463z" fill="#fff"/>
</svg>
