<svg height="32" width="32" xmlns="http://www.w3.org/2000/svg"><text opacity=".8" x="877.22626" y="-5.1873989"><tspan x="877.22626" y="-5.1873989"/></text><text opacity=".8" x="901.18719" y="-45.929108"><tspan x="901.18719" y="-45.929108"/></text><text opacity=".8" x="-569.37115" y="-76.007248"><tspan x="-569.37115" y="-76.007248"/></text><text opacity=".8" x="-2393.0571" y="669.5462"><tspan x="-2393.0571" y="669.5462"/></text><text opacity=".8" x="-454.88007" y="-461.32822"><tspan x="-454.88007" y="-461.32822"/></text><text opacity=".8" x="352.72208" y="-874.79834"><tspan x="352.72208" y="-874.79834"/></text><text opacity=".8" x="376.68301" y="-915.54004"><tspan x="376.68301" y="-915.54004"/></text><text opacity=".8" x="-1114.7802" y="-922.74994"><tspan x="-1114.7802" y="-922.74994"/></text><text opacity=".8" x="345.7626" y="-1195.9841"><tspan x="345.7626" y="-1195.9841"/></text><text opacity=".8" x="1831.8861" y="-569.29272"><tspan x="1831.8861" y="-569.29272"/></text><text opacity=".8" x="1855.8469" y="-610.03448"><tspan x="1855.8469" y="-610.03448"/></text><text opacity=".8" x="364.38376" y="-617.24438"><tspan x="364.38376" y="-617.24438"/></text><text opacity=".8" x="1824.9266" y="-890.47839"><tspan x="1824.9266" y="-890.47839"/></text><text opacity=".8" x="-573.43256" y="-665.33569"><tspan x="-573.43256" y="-665.33569"/></text><text opacity=".8" x="-2397.1182" y="80.217857"><tspan x="-2397.1182" y="80.217857"/></text><text opacity=".8" x="-682.36279" y="173.09"><tspan x="-682.36279" y="173.09"/></text><text opacity=".8" x="426.66153" y="-6.0921478"><tspan x="426.66153" y="-6.0921478"/></text><text opacity=".8" x="450.62247" y="-46.833855"><tspan x="450.62247" y="-46.833855"/></text><text opacity=".8" x="-1040.8407" y="-54.043827"><tspan x="-1040.8407" y="-54.043827"/></text><text opacity=".8" x="419.70206" y="-327.27789"><tspan x="419.70206" y="-327.27789"/></text><text opacity=".8" x="-608.03253" y="-56.758072"><tspan x="-608.03253" y="-56.758072"/></text><text opacity=".8" x="-2431.7185" y="688.79541"><tspan x="-2431.7185" y="688.79541"/></text><text opacity=".8" x="-456.93948" y="-918.28857"><tspan x="-456.93948" y="-918.28857"/></text><text opacity=".8" x="350.66266" y="-1331.7588"><tspan x="350.66266" y="-1331.7588"/></text><text opacity=".8" x="374.62357" y="-1372.5005"><tspan x="374.62357" y="-1372.5005"/></text><text opacity=".8" x="-1116.8396" y="-1379.7104"><tspan x="-1116.8396" y="-1379.7104"/></text><text opacity=".8" x="343.70316" y="-1652.9446"><tspan x="343.70316" y="-1652.9446"/></text><text opacity=".8" x="1829.8265" y="-1026.2533"><tspan x="1829.8265" y="-1026.2533"/></text><text opacity=".8" x="1853.7874" y="-1066.9949"><tspan x="1853.7874" y="-1066.9949"/></text><text opacity=".8" x="362.32431" y="-1074.2048"><tspan x="362.32431" y="-1074.2048"/></text><text opacity=".8" x="1822.8671" y="-1347.439"><tspan x="1822.8671" y="-1347.439"/></text><text opacity=".8" x="-575.492" y="-1122.2961"><tspan x="-575.492" y="-1122.2961"/></text><text opacity=".8" x="-2399.1777" y="-376.74261"><tspan x="-2399.1777" y="-376.74261"/></text><text opacity=".8" x="-684.42224" y="-283.87045"><tspan x="-684.42224" y="-283.87045"/></text><text opacity=".8" x="155.5923" y="-42.956276"><tspan x="155.5923" y="-42.956276"/></text><text opacity=".8" x="179.55324" y="-83.697998"><tspan x="179.55324" y="-83.697998"/></text><text opacity=".8" x="-1090.2634" y="-277.72662"><tspan x="-1090.2634" y="-277.72662"/></text><text opacity=".8" x="-282.66141" y="-691.19678"><tspan x="-282.66141" y="-691.19678"/></text><text opacity=".8" x="-258.70047" y="-731.93848"><tspan x="-258.70047" y="-731.93848"/></text><text opacity=".8" x="-1750.1636" y="-739.14838"><tspan x="-1750.1636" y="-739.14838"/></text><text opacity=".8" x="-289.62085" y="-1012.3825"><tspan x="-289.62085" y="-1012.3825"/></text><text opacity=".8" x="1196.5026" y="-385.69113"><tspan x="1196.5026" y="-385.69113"/></text><text opacity=".8" x="1220.4634" y="-426.43286"><tspan x="1220.4634" y="-426.43286"/></text><text opacity=".8" x="-270.99973" y="-433.64282"><tspan x="-270.99973" y="-433.64282"/></text><text opacity=".8" x="1189.5431" y="-706.87689"><tspan x="1189.5431" y="-706.87689"/></text><text opacity=".8" x="-1208.816" y="-481.7341"><tspan x="-1208.816" y="-481.7341"/></text><text opacity=".8" x="-3032.5017" y="263.81946"><tspan x="-3032.5017" y="263.81946"/></text><text opacity=".8" transform="matrix(.90475 0 0 .90475 -716.75 -692.29)" x="-664.2738" y="1159.4154"><tspan x="-664.2738" y="1159.4154"/></text><text opacity=".8" x="877.22626" y="2.0505886"><tspan x="877.22626" y="2.0505886"/></text><text opacity=".8" x="901.18719" y="-38.691116"><tspan x="901.18719" y="-38.691116"/></text><text opacity=".8" x="-569.37115" y="-68.769257"><tspan x="-569.37115" y="-68.769257"/></text><text opacity=".8" x="-2393.0571" y="676.78418"><tspan x="-2393.0571" y="676.78418"/></text><text opacity=".8" x="-454.88007" y="-454.09021"><tspan x="-454.88007" y="-454.09021"/></text><text opacity=".8" x="352.72208" y="-867.5603"><tspan x="352.72208" y="-867.5603"/></text><text opacity=".8" x="376.68301" y="-908.30206"><tspan x="376.68301" y="-908.30206"/></text><text opacity=".8" x="-1114.7802" y="-915.51196"><tspan x="-1114.7802" y="-915.51196"/></text><text opacity=".8" x="345.7626" y="-1188.7461"><tspan x="345.7626" y="-1188.7461"/></text><text opacity=".8" x="1831.8861" y="-562.05475"><tspan x="1831.8861" y="-562.05475"/></text><text opacity=".8" x="1855.8469" y="-602.79651"><tspan x="1855.8469" y="-602.79651"/></text><text opacity=".8" x="364.38376" y="-610.00641"><tspan x="364.38376" y="-610.00641"/></text><text opacity=".8" x="1824.9266" y="-883.24036"><tspan x="1824.9266" y="-883.24036"/></text><text opacity=".8" x="-573.43256" y="-658.09772"><tspan x="-573.43256" y="-658.09772"/></text><text opacity=".8" x="-2397.1182" y="87.455849"><tspan x="-2397.1182" y="87.455849"/></text><text opacity=".8" x="-682.36279" y="180.32799"><tspan x="-682.36279" y="180.32799"/></text><text opacity=".8" x="426.66153" y="1.1458397"><tspan x="426.66153" y="1.1458397"/></text><text opacity=".8" x="450.62247" y="-39.595863"><tspan x="450.62247" y="-39.595863"/></text><text opacity=".8" x="-1040.8407" y="-46.805836"><tspan x="-1040.8407" y="-46.805836"/></text><text opacity=".8" x="419.70206" y="-320.03989"><tspan x="419.70206" y="-320.03989"/></text><text opacity=".8" x="-608.03253" y="-49.520081"><tspan x="-608.03253" y="-49.520081"/></text><text opacity=".8" x="-2431.7185" y="696.03345"><tspan x="-2431.7185" y="696.03345"/></text><text opacity=".8" x="-456.93948" y="-911.0506"><tspan x="-456.93948" y="-911.0506"/></text><text opacity=".8" x="350.66266" y="-1324.5208"><tspan x="350.66266" y="-1324.5208"/></text><text opacity=".8" x="374.62357" y="-1365.2626"><tspan x="374.62357" y="-1365.2626"/></text><text opacity=".8" x="-1116.8396" y="-1372.4724"><tspan x="-1116.8396" y="-1372.4724"/></text><text opacity=".8" x="343.70316" y="-1645.7065"><tspan x="343.70316" y="-1645.7065"/></text><text opacity=".8" x="1829.8265" y="-1019.0153"><tspan x="1829.8265" y="-1019.0153"/></text><text opacity=".8" x="1853.7874" y="-1059.757"><tspan x="1853.7874" y="-1059.757"/></text><text opacity=".8" x="362.32431" y="-1066.9668"><tspan x="362.32431" y="-1066.9668"/></text><text opacity=".8" x="1822.8671" y="-1340.2009"><tspan x="1822.8671" y="-1340.2009"/></text><text opacity=".8" x="-575.492" y="-1115.0581"><tspan x="-575.492" y="-1115.0581"/></text><text opacity=".8" x="-2399.1777" y="-369.50461"><tspan x="-2399.1777" y="-369.50461"/></text><text opacity=".8" x="-684.42224" y="-276.63245"><tspan x="-684.42224" y="-276.63245"/></text><text opacity=".8" x="155.5923" y="-35.718292"><tspan x="155.5923" y="-35.718292"/></text><text opacity=".8" x="179.55324" y="-76.460007"><tspan x="179.55324" y="-76.460007"/></text><text opacity=".8" x="-1090.2634" y="-270.48859"><tspan x="-1090.2634" y="-270.48859"/></text><text opacity=".8" x="-282.66141" y="-683.9588"><tspan x="-282.66141" y="-683.9588"/></text><text opacity=".8" x="-258.70047" y="-724.7005"><tspan x="-258.70047" y="-724.7005"/></text><text opacity=".8" x="-1750.1636" y="-731.91046"><tspan x="-1750.1636" y="-731.91046"/></text><text opacity=".8" x="-289.62085" y="-1005.1445"><tspan x="-289.62085" y="-1005.1445"/></text><text opacity=".8" x="1196.5026" y="-378.45316"><tspan x="1196.5026" y="-378.45316"/></text><text opacity=".8" x="1220.4634" y="-419.19489"><tspan x="1220.4634" y="-419.19489"/></text><text opacity=".8" x="-270.99973" y="-426.40482"><tspan x="-270.99973" y="-426.40482"/></text><text opacity=".8" x="1189.5431" y="-699.63892"><tspan x="1189.5431" y="-699.63892"/></text><text opacity=".8" x="-1208.816" y="-474.49609"><tspan x="-1208.816" y="-474.49609"/></text><text opacity=".8" x="-3032.5017" y="271.05743"><tspan x="-3032.5017" y="271.05743"/></text><text opacity=".8" transform="matrix(.90475 0 0 .90475 -716.75 -685.05)" x="-664.2738" y="1159.4154"><tspan x="-664.2738" y="1159.4154"/></text><text x="435.90427" y="-377.22546"><tspan x="435.90427" y="-377.22546"/><tspan x="435.90427" y="-361.3924"/></text><text opacity=".8" x="901.0882" y="-859.27002"><tspan x="901.0882" y="-859.27002"/></text><text opacity=".8" x="-922.59778" y="-113.71655"><tspan x="-922.59778" y="-113.71655"/></text><text opacity=".8" x="1628.1677" y="-1144.2659"><tspan x="1628.1677" y="-1144.2659"/></text><text opacity=".8" x="1652.1285" y="-1185.0076"><tspan x="1652.1285" y="-1185.0076"/></text><text opacity=".8" x="160.66542" y="-1192.2175"><tspan x="160.66542" y="-1192.2175"/></text><text opacity=".8" x="1621.2083" y="-1465.4517"><tspan x="1621.2083" y="-1465.4517"/></text><rect fill="#4d4d4d" height="28" rx="1.4" transform="matrix(0 -1 -1 0 0 0)" width="28" x="-30" y="-30"/><path d="m14.060547 2.9746094c-1.893051-.004813-3.786251-.0046801-5.794922.0195312-8.24834745 9.5231464-.0646016 15.6630384 6.826172 17.1464844-7.2930986-4.728841-1.356144-13.5620542 4.763672-17.1621094-2.008762.00987-3.901872.0009106-5.794922-.0039062zm2.884765 10.8574216c6.641146 4.306112 1.866869 12.393463-6.0625 16.167969h14.796876c4.657655-9.335988-2.073012-14.73391-8.734376-16.167969zm-2.253906.355469a3.3903302 2.0458889 45 0 0 -.101562.001953 3.3903302 2.0458889 45 0 0 -.988282.400391 3.3905219 2.0460046 45 0 0  4.794922 4.794922 3.3903302 2.0458889 45 0 0 -3.705078-5.197266z" fill-rule="evenodd" opacity=".2"/><path d="m25.160889 29.992586c5.643754-9.938078-1.325486-15.663005-8.216263-17.146452 7.293102 4.72884.83358 14.035434-8.469626 17.16128 4.017524-.01973 12.668548.03359 16.685889-.01483z" fill="#e74c3c" fill-rule="evenodd"/><path d="m8.2653976 2.0074136c-8.24834745 9.5231454-.0644 15.6630074 6.8263734 17.1464534-7.2930984-4.728841-1.356555-13.5612256 4.763261-17.1612808-4.017524.0197365-7.572293-.0335951-11.5896344.0148274z" fill="#e74c3c" fill-rule="evenodd"/><path d="m18.396915 18.397736a3.3903302 2.0458889 45 0 1 -4.794651-4.794651 3.3903302 2.0458889 45 1 1  4.794651 4.794651z" fill="#e74c3c"/><text opacity=".8" x="889.19403" y="39.80603"><tspan x="889.19403" y="39.80603"/></text><text opacity=".8" x="913.15497" y="-.93567753"><tspan x="913.15497" y="-.93567753"/></text><text opacity=".8" x="-557.40338" y="-31.013821"><tspan x="-557.40338" y="-31.013821"/></text><text opacity=".8" x="-2381.0894" y="714.53961"><tspan x="-2381.0894" y="714.53961"/></text><text opacity=".8" x="-442.91229" y="-416.33478"><tspan x="-442.91229" y="-416.33478"/></text><text opacity=".8" x="364.68985" y="-829.80493"><tspan x="364.68985" y="-829.80493"/></text><text opacity=".8" x="388.65079" y="-870.54663"><tspan x="388.65079" y="-870.54663"/></text><text opacity=".8" x="-1102.8124" y="-877.75653"><tspan x="-1102.8124" y="-877.75653"/></text><text opacity=".8" x="357.73038" y="-1150.9907"><tspan x="357.73038" y="-1150.9907"/></text><text opacity=".8" x="1843.8539" y="-524.29932"><tspan x="1843.8539" y="-524.29932"/></text><text opacity=".8" x="1867.8147" y="-565.04108"><tspan x="1867.8147" y="-565.04108"/></text><text opacity=".8" x="376.35153" y="-572.25098"><tspan x="376.35153" y="-572.25098"/></text><text opacity=".8" x="1836.8944" y="-845.48499"><tspan x="1836.8944" y="-845.48499"/></text><text opacity=".8" x="-561.46478" y="-620.34229"><tspan x="-561.46478" y="-620.34229"/></text><text opacity=".8" x="-2385.1504" y="125.21129"><tspan x="-2385.1504" y="125.21129"/></text><text opacity=".8" x="-670.39502" y="218.08342"><tspan x="-670.39502" y="218.08342"/></text><text opacity=".8" x="438.6293" y="38.901279"><tspan x="438.6293" y="38.901279"/></text><text opacity=".8" x="462.59024" y="-1.8404264"><tspan x="462.59024" y="-1.8404264"/></text><text opacity=".8" x="-1028.8729" y="-9.0503988"><tspan x="-1028.8729" y="-9.0503988"/></text><text opacity=".8" x="431.66983" y="-282.28445"><tspan x="431.66983" y="-282.28445"/></text><text opacity=".8" x="-596.06476" y="-11.764644"><tspan x="-596.06476" y="-11.764644"/></text><text opacity=".8" x="-2419.7507" y="733.78882"><tspan x="-2419.7507" y="733.78882"/></text><text opacity=".8" x="-444.97171" y="-873.29517"><tspan x="-444.97171" y="-873.29517"/></text><text opacity=".8" x="362.63043" y="-1286.7654"><tspan x="362.63043" y="-1286.7654"/></text><text opacity=".8" x="386.59134" y="-1327.5071"><tspan x="386.59134" y="-1327.5071"/></text><text opacity=".8" x="-1104.8718" y="-1334.717"><tspan x="-1104.8718" y="-1334.717"/></text><text opacity=".8" x="355.67093" y="-1607.9512"><tspan x="355.67093" y="-1607.9512"/></text><text opacity=".8" x="1841.7943" y="-981.25989"><tspan x="1841.7943" y="-981.25989"/></text><text opacity=".8" x="1865.7551" y="-1022.0015"><tspan x="1865.7551" y="-1022.0015"/></text><text opacity=".8" x="374.29208" y="-1029.2114"><tspan x="374.29208" y="-1029.2114"/></text><text opacity=".8" x="1834.8348" y="-1302.4456"><tspan x="1834.8348" y="-1302.4456"/></text><text opacity=".8" x="-563.52423" y="-1077.3027"><tspan x="-563.52423" y="-1077.3027"/></text><text opacity=".8" x="-2387.21" y="-331.74918"><tspan x="-2387.21" y="-331.74918"/></text><text opacity=".8" x="-672.45447" y="-238.87703"><tspan x="-672.45447" y="-238.87703"/></text><text opacity=".8" x="167.56006" y="2.0371494"><tspan x="167.56006" y="2.0371494"/></text><text opacity=".8" x="191.521" y="-38.704571"><tspan x="191.521" y="-38.704571"/></text><text opacity=".8" x="-1078.2957" y="-232.7332"><tspan x="-1078.2957" y="-232.7332"/></text><text opacity=".8" x="-270.69363" y="-646.20337"><tspan x="-270.69363" y="-646.20337"/></text><text opacity=".8" x="-246.73271" y="-686.94507"><tspan x="-246.73271" y="-686.94507"/></text><text opacity=".8" x="-1738.1958" y="-694.15497"><tspan x="-1738.1958" y="-694.15497"/></text><text opacity=".8" x="-277.65308" y="-967.3891"><tspan x="-277.65308" y="-967.3891"/></text><text opacity=".8" x="1208.4703" y="-340.69769"><tspan x="1208.4703" y="-340.69769"/></text><text opacity=".8" x="1232.4312" y="-381.43942"><tspan x="1232.4312" y="-381.43942"/></text><text opacity=".8" x="-259.03195" y="-388.64938"><tspan x="-259.03195" y="-388.64938"/></text><text opacity=".8" x="1201.5109" y="-661.88348"><tspan x="1201.5109" y="-661.88348"/></text><text opacity=".8" x="-1196.8483" y="-436.74066"><tspan x="-1196.8483" y="-436.74066"/></text><text opacity=".8" x="-3020.5339" y="308.8129"><tspan x="-3020.5339" y="308.8129"/></text><text opacity=".8" transform="matrix(.90475 0 0 .90475 -704.78224 -647.29657)" x="-664.2738" y="1159.4154"><tspan x="-664.2738" y="1159.4154"/></text><text opacity=".8" x="889.19403" y="47.044018"><tspan x="889.19403" y="47.044018"/></text><text opacity=".8" x="913.15497" y="6.3023109"><tspan x="913.15497" y="6.3023109"/></text><text opacity=".8" x="-557.40338" y="-23.775833"><tspan x="-557.40338" y="-23.775833"/></text><text opacity=".8" x="-2381.0894" y="721.77759"><tspan x="-2381.0894" y="721.77759"/></text><text opacity=".8" x="-442.91229" y="-409.09677"><tspan x="-442.91229" y="-409.09677"/></text><text opacity=".8" x="364.68985" y="-822.56689"><tspan x="364.68985" y="-822.56689"/></text><text opacity=".8" x="388.65079" y="-863.30865"><tspan x="388.65079" y="-863.30865"/></text><text opacity=".8" x="-1102.8124" y="-870.51855"><tspan x="-1102.8124" y="-870.51855"/></text><text opacity=".8" x="357.73038" y="-1143.7527"><tspan x="357.73038" y="-1143.7527"/></text><text opacity=".8" x="1843.8539" y="-517.06128"><tspan x="1843.8539" y="-517.06128"/></text><text opacity=".8" x="1867.8147" y="-557.8031"><tspan x="1867.8147" y="-557.8031"/></text><text opacity=".8" x="376.35153" y="-565.013"><tspan x="376.35153" y="-565.013"/></text><text opacity=".8" x="1836.8944" y="-838.24695"><tspan x="1836.8944" y="-838.24695"/></text><text opacity=".8" x="-561.46478" y="-613.10431"><tspan x="-561.46478" y="-613.10431"/></text><text opacity=".8" x="-2385.1504" y="132.44928"><tspan x="-2385.1504" y="132.44928"/></text><text opacity=".8" x="-670.39502" y="225.32141"><tspan x="-670.39502" y="225.32141"/></text><text opacity=".8" x="438.6293" y="46.139267"><tspan x="438.6293" y="46.139267"/></text><text opacity=".8" x="462.59024" y="5.397562"><tspan x="462.59024" y="5.397562"/></text><text opacity=".8" x="-1028.8729" y="-1.8124065"><tspan x="-1028.8729" y="-1.8124065"/></text><text opacity=".8" x="431.66983" y="-275.04645"><tspan x="431.66983" y="-275.04645"/></text><text opacity=".8" x="-596.06476" y="-4.5266523"><tspan x="-596.06476" y="-4.5266523"/></text><text opacity=".8" x="-2419.7507" y="741.02686"><tspan x="-2419.7507" y="741.02686"/></text><text opacity=".8" x="-444.97171" y="-866.05719"><tspan x="-444.97171" y="-866.05719"/></text><text opacity=".8" x="362.63043" y="-1279.5273"><tspan x="362.63043" y="-1279.5273"/></text><text opacity=".8" x="386.59134" y="-1320.2692"><tspan x="386.59134" y="-1320.2692"/></text><text opacity=".8" x="-1104.8718" y="-1327.479"><tspan x="-1104.8718" y="-1327.479"/></text><text opacity=".8" x="355.67093" y="-1600.7131"><tspan x="355.67093" y="-1600.7131"/></text><text opacity=".8" x="1841.7943" y="-974.02191"><tspan x="1841.7943" y="-974.02191"/></text><text opacity=".8" x="1865.7551" y="-1014.7635"><tspan x="1865.7551" y="-1014.7635"/></text><text opacity=".8" x="374.29208" y="-1021.9734"><tspan x="374.29208" y="-1021.9734"/></text><text opacity=".8" x="1834.8348" y="-1295.2075"><tspan x="1834.8348" y="-1295.2075"/></text><text opacity=".8" x="-563.52423" y="-1070.0647"><tspan x="-563.52423" y="-1070.0647"/></text><text opacity=".8" x="-2387.21" y="-324.51117"><tspan x="-2387.21" y="-324.51117"/></text><text opacity=".8" x="-672.45447" y="-231.63902"><tspan x="-672.45447" y="-231.63902"/></text><text opacity=".8" x="167.56006" y="9.2751369"><tspan x="167.56006" y="9.2751369"/></text><text opacity=".8" x="191.521" y="-31.466583"><tspan x="191.521" y="-31.466583"/></text><text opacity=".8" x="-1078.2957" y="-225.49518"><tspan x="-1078.2957" y="-225.49518"/></text><text opacity=".8" x="-270.69363" y="-638.96539"><tspan x="-270.69363" y="-638.96539"/></text><text opacity=".8" x="-246.73271" y="-679.70709"><tspan x="-246.73271" y="-679.70709"/></text><text opacity=".8" x="-1738.1958" y="-686.91705"><tspan x="-1738.1958" y="-686.91705"/></text><text opacity=".8" x="-277.65308" y="-960.15106"><tspan x="-277.65308" y="-960.15106"/></text><text opacity=".8" x="1208.4703" y="-333.45972"><tspan x="1208.4703" y="-333.45972"/></text><text opacity=".8" x="1232.4312" y="-374.20145"><tspan x="1232.4312" y="-374.20145"/></text><text opacity=".8" x="-259.03195" y="-381.41138"><tspan x="-259.03195" y="-381.41138"/></text><text opacity=".8" x="1201.5109" y="-654.64551"><tspan x="1201.5109" y="-654.64551"/></text><text opacity=".8" x="-1196.8483" y="-429.50266"><tspan x="-1196.8483" y="-429.50266"/></text><text opacity=".8" x="-3020.5339" y="316.05087"><tspan x="-3020.5339" y="316.05087"/></text><text opacity=".8" transform="matrix(.90475 0 0 .90475 -704.78224 -640.05657)" x="-664.2738" y="1159.4154"><tspan x="-664.2738" y="1159.4154"/></text><text x="447.87204" y="-332.23203"><tspan x="447.87204" y="-332.23203"/><tspan x="447.87204" y="-316.39896"/></text><text opacity=".8" x="913.05597" y="-814.27661"><tspan x="913.05597" y="-814.27661"/></text><text opacity=".8" x="-910.63" y="-68.723129"><tspan x="-910.63" y="-68.723129"/></text><text opacity=".8" x="1640.1355" y="-1099.2725"><tspan x="1640.1355" y="-1099.2725"/></text><text opacity=".8" x="1664.0963" y="-1140.0142"><tspan x="1664.0963" y="-1140.0142"/></text><text opacity=".8" x="172.63318" y="-1147.2241"><tspan x="172.63318" y="-1147.2241"/></text><text opacity=".8" x="1633.176" y="-1420.4583"><tspan x="1633.176" y="-1420.4583"/></text><text opacity=".8" x="828.90942" y="40.522835"><tspan x="828.90942" y="40.522835"/></text><text opacity=".8" x="852.87036" y="-.21887112"><tspan x="852.87036" y="-.21887112"/></text><text opacity=".8" x="-617.68799" y="-30.297016"><tspan x="-617.68799" y="-30.297016"/></text><text opacity=".8" x="-2441.374" y="715.25641"><tspan x="-2441.374" y="715.25641"/></text><text opacity=".8" x="-503.1969" y="-415.61798"><tspan x="-503.1969" y="-415.61798"/></text><text opacity=".8" x="304.40524" y="-829.08813"><tspan x="304.40524" y="-829.08813"/></text><text opacity=".8" x="328.36618" y="-869.82983"><tspan x="328.36618" y="-869.82983"/></text><text opacity=".8" x="-1163.097" y="-877.03973"><tspan x="-1163.097" y="-877.03973"/></text><text opacity=".8" x="297.44577" y="-1150.2739"><tspan x="297.44577" y="-1150.2739"/></text><text opacity=".8" x="1783.5692" y="-523.58252"><tspan x="1783.5692" y="-523.58252"/></text><text opacity=".8" x="1807.53" y="-564.32428"><tspan x="1807.53" y="-564.32428"/></text><text opacity=".8" x="316.06693" y="-571.53418"><tspan x="316.06693" y="-571.53418"/></text><text opacity=".8" x="1776.6097" y="-844.76819"><tspan x="1776.6097" y="-844.76819"/></text><text opacity=".8" x="-621.74939" y="-619.62549"><tspan x="-621.74939" y="-619.62549"/></text><text opacity=".8" x="-2445.4351" y="125.92809"><tspan x="-2445.4351" y="125.92809"/></text><text opacity=".8" x="-730.67963" y="218.80023"><tspan x="-730.67963" y="218.80023"/></text><text opacity=".8" x="378.3447" y="39.618088"><tspan x="378.3447" y="39.618088"/></text><text opacity=".8" x="402.30563" y="-1.12362"><tspan x="402.30563" y="-1.12362"/></text><text opacity=".8" x="-1089.1576" y="-8.3335943"><tspan x="-1089.1576" y="-8.3335943"/></text><text opacity=".8" x="371.38522" y="-281.56766"><tspan x="371.38522" y="-281.56766"/></text><text opacity=".8" x="-656.34937" y="-11.047839"><tspan x="-656.34937" y="-11.047839"/></text><text opacity=".8" x="-2480.0354" y="734.50562"><tspan x="-2480.0354" y="734.50562"/></text><text opacity=".8" x="-505.25635" y="-872.57837"><tspan x="-505.25635" y="-872.57837"/></text><text opacity=".8" x="302.34583" y="-1286.0486"><tspan x="302.34583" y="-1286.0486"/></text><text opacity=".8" x="326.30673" y="-1326.7903"><tspan x="326.30673" y="-1326.7903"/></text><text opacity=".8" x="-1165.1565" y="-1334.0002"><tspan x="-1165.1565" y="-1334.0002"/></text><text opacity=".8" x="295.38632" y="-1607.2344"><tspan x="295.38632" y="-1607.2344"/></text><text opacity=".8" x="1781.5096" y="-980.54309"><tspan x="1781.5096" y="-980.54309"/></text><text opacity=".8" x="1805.4705" y="-1021.2847"><tspan x="1805.4705" y="-1021.2847"/></text><text opacity=".8" x="314.00748" y="-1028.4946"><tspan x="314.00748" y="-1028.4946"/></text><text opacity=".8" x="1774.5502" y="-1301.7288"><tspan x="1774.5502" y="-1301.7288"/></text><text opacity=".8" x="-623.80884" y="-1076.5859"><tspan x="-623.80884" y="-1076.5859"/></text><text opacity=".8" x="-2447.4946" y="-331.03238"><tspan x="-2447.4946" y="-331.03238"/></text><text opacity=".8" x="-732.73907" y="-238.16023"><tspan x="-732.73907" y="-238.16023"/></text><text opacity=".8" x="107.27544" y="2.7539558"><tspan x="107.27544" y="2.7539558"/></text><text opacity=".8" x="131.23639" y="-37.987766"><tspan x="131.23639" y="-37.987766"/></text><text opacity=".8" x="-1138.5803" y="-232.0164"><tspan x="-1138.5803" y="-232.0164"/></text><text opacity=".8" x="-330.97824" y="-645.48657"><tspan x="-330.97824" y="-645.48657"/></text><text opacity=".8" x="-307.0173" y="-686.22827"><tspan x="-307.0173" y="-686.22827"/></text><text opacity=".8" x="-1798.4805" y="-693.43817"><tspan x="-1798.4805" y="-693.43817"/></text><text opacity=".8" x="-337.93768" y="-966.6723"><tspan x="-337.93768" y="-966.6723"/></text><text opacity=".8" x="1148.1857" y="-339.9809"><tspan x="1148.1857" y="-339.9809"/></text><text opacity=".8" x="1172.1465" y="-380.72263"><tspan x="1172.1465" y="-380.72263"/></text><text opacity=".8" x="-319.31656" y="-387.93259"><tspan x="-319.31656" y="-387.93259"/></text><text opacity=".8" x="1141.2262" y="-661.16669"><tspan x="1141.2262" y="-661.16669"/></text><text opacity=".8" x="-1257.1329" y="-436.02386"><tspan x="-1257.1329" y="-436.02386"/></text><text opacity=".8" x="-3080.8186" y="309.52969"><tspan x="-3080.8186" y="309.52969"/></text><text opacity=".8" transform="matrix(.90475 0 0 .90475 -765.06224 -646.57657)" x="-664.2738" y="1159.4154"><tspan x="-664.2738" y="1159.4154"/></text><text opacity=".8" x="828.90942" y="47.760822"><tspan x="828.90942" y="47.760822"/></text><text opacity=".8" x="852.87036" y="7.0191174"><tspan x="852.87036" y="7.0191174"/></text><text opacity=".8" x="-617.68799" y="-23.059029"><tspan x="-617.68799" y="-23.059029"/></text><text opacity=".8" x="-2441.374" y="722.49438"><tspan x="-2441.374" y="722.49438"/></text><text opacity=".8" x="-503.1969" y="-408.37997"><tspan x="-503.1969" y="-408.37997"/></text><text opacity=".8" x="304.40524" y="-821.8501"><tspan x="304.40524" y="-821.8501"/></text><text opacity=".8" x="328.36618" y="-862.59186"><tspan x="328.36618" y="-862.59186"/></text><text opacity=".8" x="-1163.097" y="-869.80176"><tspan x="-1163.097" y="-869.80176"/></text><text opacity=".8" x="297.44577" y="-1143.0359"><tspan x="297.44577" y="-1143.0359"/></text><text opacity=".8" x="1783.5692" y="-516.34448"><tspan x="1783.5692" y="-516.34448"/></text><text opacity=".8" x="1807.53" y="-557.0863"><tspan x="1807.53" y="-557.0863"/></text><text opacity=".8" x="316.06693" y="-564.2962"><tspan x="316.06693" y="-564.2962"/></text><text opacity=".8" x="1776.6097" y="-837.53015"><tspan x="1776.6097" y="-837.53015"/></text><text opacity=".8" x="-621.74939" y="-612.38751"><tspan x="-621.74939" y="-612.38751"/></text><text opacity=".8" x="-2445.4351" y="133.16608"><tspan x="-2445.4351" y="133.16608"/></text><text opacity=".8" x="-730.67963" y="226.03822"><tspan x="-730.67963" y="226.03822"/></text><text opacity=".8" x="378.3447" y="46.856075"><tspan x="378.3447" y="46.856075"/></text><text opacity=".8" x="402.30563" y="6.1143684"><tspan x="402.30563" y="6.1143684"/></text><text opacity=".8" x="-1089.1576" y="-1.0956011"><tspan x="-1089.1576" y="-1.0956011"/></text><text opacity=".8" x="371.38522" y="-274.32965"><tspan x="371.38522" y="-274.32965"/></text><text opacity=".8" x="-656.34937" y="-3.8098478"><tspan x="-656.34937" y="-3.8098478"/></text><text opacity=".8" x="-2480.0354" y="741.74365"><tspan x="-2480.0354" y="741.74365"/></text><text opacity=".8" x="-505.25635" y="-865.34039"><tspan x="-505.25635" y="-865.34039"/></text><text opacity=".8" x="302.34583" y="-1278.8105"><tspan x="302.34583" y="-1278.8105"/></text><text opacity=".8" x="326.30673" y="-1319.5524"><tspan x="326.30673" y="-1319.5524"/></text><text opacity=".8" x="-1165.1565" y="-1326.7622"><tspan x="-1165.1565" y="-1326.7622"/></text><text opacity=".8" x="295.38632" y="-1599.9963"><tspan x="295.38632" y="-1599.9963"/></text><text opacity=".8" x="1781.5096" y="-973.30511"><tspan x="1781.5096" y="-973.30511"/></text><text opacity=".8" x="1805.4705" y="-1014.0468"><tspan x="1805.4705" y="-1014.0468"/></text><text opacity=".8" x="314.00748" y="-1021.2566"><tspan x="314.00748" y="-1021.2566"/></text><text opacity=".8" x="1774.5502" y="-1294.4907"><tspan x="1774.5502" y="-1294.4907"/></text><text opacity=".8" x="-623.80884" y="-1069.3479"><tspan x="-623.80884" y="-1069.3479"/></text><text opacity=".8" x="-2447.4946" y="-323.79437"><tspan x="-2447.4946" y="-323.79437"/></text><text opacity=".8" x="-732.73907" y="-230.92223"><tspan x="-732.73907" y="-230.92223"/></text><text opacity=".8" x="107.27544" y="9.9919434"><tspan x="107.27544" y="9.9919434"/></text><text opacity=".8" x="131.23639" y="-30.749779"><tspan x="131.23639" y="-30.749779"/></text><text opacity=".8" x="-1138.5803" y="-224.77837"><tspan x="-1138.5803" y="-224.77837"/></text><text opacity=".8" x="-330.97824" y="-638.2486"><tspan x="-330.97824" y="-638.2486"/></text><text opacity=".8" x="-307.0173" y="-678.9903"><tspan x="-307.0173" y="-678.9903"/></text><text opacity=".8" x="-1798.4805" y="-686.20026"><tspan x="-1798.4805" y="-686.20026"/></text><text opacity=".8" x="-337.93768" y="-959.43427"><tspan x="-337.93768" y="-959.43427"/></text><text opacity=".8" x="1148.1857" y="-332.74292"><tspan x="1148.1857" y="-332.74292"/></text><text opacity=".8" x="1172.1465" y="-373.48465"><tspan x="1172.1465" y="-373.48465"/></text><text opacity=".8" x="-319.31656" y="-380.69458"><tspan x="-319.31656" y="-380.69458"/></text><text opacity=".8" x="1141.2262" y="-653.92871"><tspan x="1141.2262" y="-653.92871"/></text><text opacity=".8" x="-1257.1329" y="-428.78586"><tspan x="-1257.1329" y="-428.78586"/></text><text opacity=".8" x="-3080.8186" y="316.76767"><tspan x="-3080.8186" y="316.76767"/></text><text opacity=".8" transform="matrix(.90475 0 0 .90475 -765.06224 -639.33657)" x="-664.2738" y="1159.4154"><tspan x="-664.2738" y="1159.4154"/></text><text x="387.58743" y="-331.51523"><tspan x="387.58743" y="-331.51523"/><tspan x="387.58743" y="-315.68216"/></text><text opacity=".8" x="852.77136" y="-813.55981"><tspan x="852.77136" y="-813.55981"/></text><text opacity=".8" x="-970.91461" y="-68.006317"><tspan x="-970.91461" y="-68.006317"/></text><text opacity=".8" x="1579.8508" y="-1098.5557"><tspan x="1579.8508" y="-1098.5557"/></text><text opacity=".8" x="1603.8116" y="-1139.2974"><tspan x="1603.8116" y="-1139.2974"/></text><text opacity=".8" x="112.34856" y="-1146.5073"><tspan x="112.34856" y="-1146.5073"/></text><text opacity=".8" x="1572.8914" y="-1419.7415"><tspan x="1572.8914" y="-1419.7415"/></text><path d="m3.4003906 2c-.7756 0-1.4003906.6247906-1.4003906 1.4003906v1c0-.7756.6247906-1.4003906 1.4003906-1.4003906h25.1992184c.7756 0 1.400391.6247906 1.400391 1.4003906v-1c0-.7756-.624791-1.4003906-1.400391-1.4003906z" fill="#fff" opacity=".1"/><path d="m2 27.599609v1c0 .7756.6247906 1.400391 1.4003906 1.400391h25.1992184c.7756 0 1.400391-.624791 1.400391-1.400391v-1c0 .7756-.624791 1.400391-1.400391 1.400391h-25.1992184c-.7756 0-1.4003906-.624791-1.4003906-1.400391z" opacity=".3"/></svg>