<svg height="32" width="32" xmlns="http://www.w3.org/2000/svg"><text opacity=".8" x="877.22626" y="-5.1873989"><tspan x="877.22626" y="-5.1873989"/></text><text opacity=".8" x="901.18719" y="-45.929108"><tspan x="901.18719" y="-45.929108"/></text><text opacity=".8" x="-569.37115" y="-76.007248"><tspan x="-569.37115" y="-76.007248"/></text><text opacity=".8" x="-2393.0571" y="669.5462"><tspan x="-2393.0571" y="669.5462"/></text><text opacity=".8" x="-454.88007" y="-461.32822"><tspan x="-454.88007" y="-461.32822"/></text><text opacity=".8" x="352.72208" y="-874.79834"><tspan x="352.72208" y="-874.79834"/></text><text opacity=".8" x="376.68301" y="-915.54004"><tspan x="376.68301" y="-915.54004"/></text><text opacity=".8" x="-1114.7802" y="-922.74994"><tspan x="-1114.7802" y="-922.74994"/></text><text opacity=".8" x="345.7626" y="-1195.9841"><tspan x="345.7626" y="-1195.9841"/></text><text opacity=".8" x="1831.8861" y="-569.29272"><tspan x="1831.8861" y="-569.29272"/></text><text opacity=".8" x="1855.8469" y="-610.03448"><tspan x="1855.8469" y="-610.03448"/></text><text opacity=".8" x="364.38376" y="-617.24438"><tspan x="364.38376" y="-617.24438"/></text><text opacity=".8" x="1824.9266" y="-890.47839"><tspan x="1824.9266" y="-890.47839"/></text><text opacity=".8" x="-573.43256" y="-665.33569"><tspan x="-573.43256" y="-665.33569"/></text><text opacity=".8" x="-2397.1182" y="80.217857"><tspan x="-2397.1182" y="80.217857"/></text><text opacity=".8" x="-682.36279" y="173.09"><tspan x="-682.36279" y="173.09"/></text><text opacity=".8" x="426.66153" y="-6.0921478"><tspan x="426.66153" y="-6.0921478"/></text><text opacity=".8" x="450.62247" y="-46.833855"><tspan x="450.62247" y="-46.833855"/></text><text opacity=".8" x="-1040.8407" y="-54.043827"><tspan x="-1040.8407" y="-54.043827"/></text><text opacity=".8" x="419.70206" y="-327.27789"><tspan x="419.70206" y="-327.27789"/></text><text opacity=".8" x="-608.03253" y="-56.758072"><tspan x="-608.03253" y="-56.758072"/></text><text opacity=".8" x="-2431.7185" y="688.79541"><tspan x="-2431.7185" y="688.79541"/></text><text opacity=".8" x="-456.93948" y="-918.28857"><tspan x="-456.93948" y="-918.28857"/></text><text opacity=".8" x="350.66266" y="-1331.7588"><tspan x="350.66266" y="-1331.7588"/></text><text opacity=".8" x="374.62357" y="-1372.5005"><tspan x="374.62357" y="-1372.5005"/></text><text opacity=".8" x="-1116.8396" y="-1379.7104"><tspan x="-1116.8396" y="-1379.7104"/></text><text opacity=".8" x="343.70316" y="-1652.9446"><tspan x="343.70316" y="-1652.9446"/></text><text opacity=".8" x="1829.8265" y="-1026.2533"><tspan x="1829.8265" y="-1026.2533"/></text><text opacity=".8" x="1853.7874" y="-1066.9949"><tspan x="1853.7874" y="-1066.9949"/></text><text opacity=".8" x="362.32431" y="-1074.2048"><tspan x="362.32431" y="-1074.2048"/></text><text opacity=".8" x="1822.8671" y="-1347.439"><tspan x="1822.8671" y="-1347.439"/></text><text opacity=".8" x="-575.492" y="-1122.2961"><tspan x="-575.492" y="-1122.2961"/></text><text opacity=".8" x="-2399.1777" y="-376.74261"><tspan x="-2399.1777" y="-376.74261"/></text><text opacity=".8" x="-684.42224" y="-283.87045"><tspan x="-684.42224" y="-283.87045"/></text><text opacity=".8" x="155.5923" y="-42.956276"><tspan x="155.5923" y="-42.956276"/></text><text opacity=".8" x="179.55324" y="-83.697998"><tspan x="179.55324" y="-83.697998"/></text><text opacity=".8" x="-1090.2634" y="-277.72662"><tspan x="-1090.2634" y="-277.72662"/></text><text opacity=".8" x="-282.66141" y="-691.19678"><tspan x="-282.66141" y="-691.19678"/></text><text opacity=".8" x="-258.70047" y="-731.93848"><tspan x="-258.70047" y="-731.93848"/></text><text opacity=".8" x="-1750.1636" y="-739.14838"><tspan x="-1750.1636" y="-739.14838"/></text><text opacity=".8" x="-289.62085" y="-1012.3825"><tspan x="-289.62085" y="-1012.3825"/></text><text opacity=".8" x="1196.5026" y="-385.69113"><tspan x="1196.5026" y="-385.69113"/></text><text opacity=".8" x="1220.4634" y="-426.43286"><tspan x="1220.4634" y="-426.43286"/></text><text opacity=".8" x="-270.99973" y="-433.64282"><tspan x="-270.99973" y="-433.64282"/></text><text opacity=".8" x="1189.5431" y="-706.87689"><tspan x="1189.5431" y="-706.87689"/></text><text opacity=".8" x="-1208.816" y="-481.7341"><tspan x="-1208.816" y="-481.7341"/></text><text opacity=".8" x="-3032.5017" y="263.81946"><tspan x="-3032.5017" y="263.81946"/></text><text opacity=".8" transform="matrix(.90475 0 0 .90475 -716.75 -692.29)" x="-664.2738" y="1159.4154"><tspan x="-664.2738" y="1159.4154"/></text><text opacity=".8" x="877.22626" y="2.0505886"><tspan x="877.22626" y="2.0505886"/></text><text opacity=".8" x="901.18719" y="-38.691116"><tspan x="901.18719" y="-38.691116"/></text><text opacity=".8" x="-569.37115" y="-68.769257"><tspan x="-569.37115" y="-68.769257"/></text><text opacity=".8" x="-2393.0571" y="676.78418"><tspan x="-2393.0571" y="676.78418"/></text><text opacity=".8" x="-454.88007" y="-454.09021"><tspan x="-454.88007" y="-454.09021"/></text><text opacity=".8" x="352.72208" y="-867.5603"><tspan x="352.72208" y="-867.5603"/></text><text opacity=".8" x="376.68301" y="-908.30206"><tspan x="376.68301" y="-908.30206"/></text><text opacity=".8" x="-1114.7802" y="-915.51196"><tspan x="-1114.7802" y="-915.51196"/></text><text opacity=".8" x="345.7626" y="-1188.7461"><tspan x="345.7626" y="-1188.7461"/></text><text opacity=".8" x="1831.8861" y="-562.05475"><tspan x="1831.8861" y="-562.05475"/></text><text opacity=".8" x="1855.8469" y="-602.79651"><tspan x="1855.8469" y="-602.79651"/></text><text opacity=".8" x="364.38376" y="-610.00641"><tspan x="364.38376" y="-610.00641"/></text><text opacity=".8" x="1824.9266" y="-883.24036"><tspan x="1824.9266" y="-883.24036"/></text><text opacity=".8" x="-573.43256" y="-658.09772"><tspan x="-573.43256" y="-658.09772"/></text><text opacity=".8" x="-2397.1182" y="87.455849"><tspan x="-2397.1182" y="87.455849"/></text><text opacity=".8" x="-682.36279" y="180.32799"><tspan x="-682.36279" y="180.32799"/></text><text opacity=".8" x="426.66153" y="1.1458397"><tspan x="426.66153" y="1.1458397"/></text><text opacity=".8" x="450.62247" y="-39.595863"><tspan x="450.62247" y="-39.595863"/></text><text opacity=".8" x="-1040.8407" y="-46.805836"><tspan x="-1040.8407" y="-46.805836"/></text><text opacity=".8" x="419.70206" y="-320.03989"><tspan x="419.70206" y="-320.03989"/></text><text opacity=".8" x="-608.03253" y="-49.520081"><tspan x="-608.03253" y="-49.520081"/></text><text opacity=".8" x="-2431.7185" y="696.03345"><tspan x="-2431.7185" y="696.03345"/></text><text opacity=".8" x="-456.93948" y="-911.0506"><tspan x="-456.93948" y="-911.0506"/></text><text opacity=".8" x="350.66266" y="-1324.5208"><tspan x="350.66266" y="-1324.5208"/></text><text opacity=".8" x="374.62357" y="-1365.2626"><tspan x="374.62357" y="-1365.2626"/></text><text opacity=".8" x="-1116.8396" y="-1372.4724"><tspan x="-1116.8396" y="-1372.4724"/></text><text opacity=".8" x="343.70316" y="-1645.7065"><tspan x="343.70316" y="-1645.7065"/></text><text opacity=".8" x="1829.8265" y="-1019.0153"><tspan x="1829.8265" y="-1019.0153"/></text><text opacity=".8" x="1853.7874" y="-1059.757"><tspan x="1853.7874" y="-1059.757"/></text><text opacity=".8" x="362.32431" y="-1066.9668"><tspan x="362.32431" y="-1066.9668"/></text><text opacity=".8" x="1822.8671" y="-1340.2009"><tspan x="1822.8671" y="-1340.2009"/></text><text opacity=".8" x="-575.492" y="-1115.0581"><tspan x="-575.492" y="-1115.0581"/></text><text opacity=".8" x="-2399.1777" y="-369.50461"><tspan x="-2399.1777" y="-369.50461"/></text><text opacity=".8" x="-684.42224" y="-276.63245"><tspan x="-684.42224" y="-276.63245"/></text><text opacity=".8" x="155.5923" y="-35.718292"><tspan x="155.5923" y="-35.718292"/></text><text opacity=".8" x="179.55324" y="-76.460007"><tspan x="179.55324" y="-76.460007"/></text><text opacity=".8" x="-1090.2634" y="-270.48859"><tspan x="-1090.2634" y="-270.48859"/></text><text opacity=".8" x="-282.66141" y="-683.9588"><tspan x="-282.66141" y="-683.9588"/></text><text opacity=".8" x="-258.70047" y="-724.7005"><tspan x="-258.70047" y="-724.7005"/></text><text opacity=".8" x="-1750.1636" y="-731.91046"><tspan x="-1750.1636" y="-731.91046"/></text><text opacity=".8" x="-289.62085" y="-1005.1445"><tspan x="-289.62085" y="-1005.1445"/></text><text opacity=".8" x="1196.5026" y="-378.45316"><tspan x="1196.5026" y="-378.45316"/></text><text opacity=".8" x="1220.4634" y="-419.19489"><tspan x="1220.4634" y="-419.19489"/></text><text opacity=".8" x="-270.99973" y="-426.40482"><tspan x="-270.99973" y="-426.40482"/></text><text opacity=".8" x="1189.5431" y="-699.63892"><tspan x="1189.5431" y="-699.63892"/></text><text opacity=".8" x="-1208.816" y="-474.49609"><tspan x="-1208.816" y="-474.49609"/></text><text opacity=".8" x="-3032.5017" y="271.05743"><tspan x="-3032.5017" y="271.05743"/></text><text opacity=".8" transform="matrix(.90475 0 0 .90475 -716.75 -685.05)" x="-664.2738" y="1159.4154"><tspan x="-664.2738" y="1159.4154"/></text><text x="435.90427" y="-377.22546"><tspan x="435.90427" y="-377.22546"/><tspan x="435.90427" y="-361.3924"/></text><text opacity=".8" x="901.0882" y="-859.27002"><tspan x="901.0882" y="-859.27002"/></text><text opacity=".8" x="-922.59778" y="-113.71655"><tspan x="-922.59778" y="-113.71655"/></text><text opacity=".8" x="1628.1677" y="-1144.2659"><tspan x="1628.1677" y="-1144.2659"/></text><text opacity=".8" x="1652.1285" y="-1185.0076"><tspan x="1652.1285" y="-1185.0076"/></text><text opacity=".8" x="160.66542" y="-1192.2175"><tspan x="160.66542" y="-1192.2175"/></text><text opacity=".8" x="1621.2083" y="-1465.4517"><tspan x="1621.2083" y="-1465.4517"/></text><path d="m16 18a13 4 0 0 0 -13 4 13 4 0 0 0  13 4 13 4 0 0 0  13-4 13 4 0 0 0 -13-4zm0 1c3.5067 0 6.6825.44514 8.8984 1.127 1.1079.34091 1.9745.7484 2.4922 1.125.517.377.609.635.609.748 0 .11318-.09169.37145-.60938.74805s-1.3842.78214-2.4922 1.123c-2.215.682-5.391 1.129-8.898 1.129s-6.6825-.447-8.8984-1.129c-1.108-.341-1.9745-.746-2.4922-1.123s-.6094-.635-.6094-.748.0917-.371.6094-.748 1.3842-.784 2.4922-1.125c2.2159-.682 5.3914-1.127 8.8984-1.127z" fill="#afafaf"/><path d="m4.3 11c-.7202 0-1.3.56764-1.3 1.2727v8.9091c0 .35478.14705.67445.38467.90483a13 3.8182 0 0 0 12.615 2.913 13 3.8182 0 0 0  12.609-2.908c.04204-.04024.07811-.08621.11426-.13175.0056-.007.0124-.01283.01777-.01988a13 3.8182 0 0 0  .0013-.0012c.08404-.11082.14659-.23575.19043-.37038a13 3.8182 0 0 0  .0038-.01119c.03755-.11929.06342-.2436.06342-.37532v-8.9091c0-.70509-.5798-1.2727-1.3-1.2727h-23.4z" fill="#c2352a"/><ellipse cx="16" cy="11" fill="#ffffc8" rx="13" ry="4"/><ellipse cx="16" cy="11.333" opacity=".02" rx="6" ry="2"/><path d="m16 8a13 4 0 0 0 -13 4 13 4 0 0 0  .00977.06445 13 3.9 0 0 0 -.01.086 13 3.9 0 0 0  3.2734 2.582l.066406 1.9082.64844.05859.35547-1.6348c.000975-.0045-.000921-.0074 0-.01172a13 3.9 0 0 0 8.0859.99024l.246 1.958h.64844l.24609-1.959a13 3.9 0 0 0 8.0781-.98438l.35937 1.6426.64648-.05859.06641-1.9082a13 3.9 0 0 0 3.279-2.583 13 3.9 0 0 0 -.01-.062 13 4 0 0 0  .01-.088 13 4 0 0 0 -13-4zm0 1c3.5067 0 6.6825.44514 8.8984 1.127 1.1079.34091 1.9745.7484 2.4922 1.125.517.377.609.635.609.748 0 .11318-.09169.37145-.60938.74805s-1.3842.78214-2.4922 1.123c-2.215.682-5.391 1.129-8.898 1.129s-6.6825-.447-8.8984-1.129c-1.108-.341-1.9745-.746-2.4922-1.123s-.6094-.635-.6094-.748.0917-.371.6094-.748 1.3842-.784 2.4922-1.125c2.2159-.6819 5.3914-1.127 8.8984-1.127z" opacity=".2"/><ellipse cx="16" cy="11.3" opacity=".02" rx="4.5" ry="1.5"/><g fill="#afafaf"><path d="m15.333 26h1.3333l-.33333-2.6667h-.66667l-.333 2.667z"/><path d="m25.716 24.596l-.69892.14971c.0484-.05977-.22338-.16827-.20702-.24342l.0064.02269.42193-1.9379.66397.05993.06015 1.7513s-.15097.12112-.24646.19774z"/><path d="m6.3774 24.614l.62703.18565.16244-.32636-.41067-1.8862-.66397.05993-.057355 1.6699.34251.2971z"/></g><path d="m16 7a13 4 0 0 0 -13 4 13 4 0 0 0  .0098.064 13 3.9 0 0 0 -.0098.086 13 3.9 0 0 0  3.2734 2.582l.0664 1.909.6485.058.3555-1.635c.0009-.004-.001-.007 0-.011a13 3.9 0 0 0 8.0862.99l.246 1.957h.648l.246-1.959a13 3.9 0 0 0 8.078-.984l.36 1.642.646-.058.067-1.909a13 3.9 0 0 0 3.279-2.582 13 3.9 0 0 0 -.01-.062 13 4 0 0 0  .01-.088 13 4 0 0 0 -13-4zm0 1c3.507 0 6.683.4451 8.898 1.127 1.108.3409 1.975.7484 2.493 1.125.517.377.609.635.609.748s-.092.371-.609.748c-.518.377-1.385.782-2.493 1.123-2.215.682-5.391 1.129-8.898 1.129s-6.6825-.447-8.8984-1.129c-1.108-.341-1.9745-.746-2.4922-1.123s-.6094-.635-.6094-.748.0917-.371.6094-.748c.5177-.3766 1.3842-.7841 2.4922-1.125 2.2159-.6819 5.3914-1.127 8.8984-1.127z" fill="#afafaf"/><path d="m3 21.182v1c0 .35478.14715.67392.38477.9043a13 3.8182 0 0 0 12.615 2.914 13 3.8182 0 0 0  12.609-2.908c.04204-.04024.07713-.08727.11328-.13281.0056-.007.01221-.01248.01758-.01953a13 3.8182 0 0 0  .002 0c .08404-.11082.14756-.23646.19141-.37109a13 3.8182 0 0 0  .0039-.01172c.038-.12.063-.244.063-.375v-1c0 .13172-.02495.25571-.0625.375a13 3.8182 0 0 1 -.0039.01172c-.04384.13464-.10737.26028-.19141.37109a13 3.8182 0 0 0 -.002 0c-.0054.007-.01198.01253-.01758.01953-.03615.04554-.07124.09257-.11328.13281a13 3.8182 0 0 1 -12.61 2.908 13 3.8182 0 0 1 -12.615-2.914c-.2378-.23-.385-.55-.385-.904z" opacity=".3"/></svg>