<svg height="32" width="32" xmlns="http://www.w3.org/2000/svg"><text opacity=".8" x="877.22626" y="-5.1873989"><tspan x="877.22626" y="-5.1873989"/></text><text opacity=".8" x="901.18719" y="-45.929108"><tspan x="901.18719" y="-45.929108"/></text><text opacity=".8" x="-569.37115" y="-76.007248"><tspan x="-569.37115" y="-76.007248"/></text><text opacity=".8" x="-2393.0571" y="669.5462"><tspan x="-2393.0571" y="669.5462"/></text><text opacity=".8" x="-454.88007" y="-461.32822"><tspan x="-454.88007" y="-461.32822"/></text><text opacity=".8" x="352.72208" y="-874.79834"><tspan x="352.72208" y="-874.79834"/></text><text opacity=".8" x="376.68301" y="-915.54004"><tspan x="376.68301" y="-915.54004"/></text><text opacity=".8" x="-1114.7802" y="-922.74994"><tspan x="-1114.7802" y="-922.74994"/></text><text opacity=".8" x="345.7626" y="-1195.9841"><tspan x="345.7626" y="-1195.9841"/></text><text opacity=".8" x="1831.8861" y="-569.29272"><tspan x="1831.8861" y="-569.29272"/></text><text opacity=".8" x="1855.8469" y="-610.03448"><tspan x="1855.8469" y="-610.03448"/></text><text opacity=".8" x="364.38376" y="-617.24438"><tspan x="364.38376" y="-617.24438"/></text><text opacity=".8" x="1824.9266" y="-890.47839"><tspan x="1824.9266" y="-890.47839"/></text><text opacity=".8" x="-573.43256" y="-665.33569"><tspan x="-573.43256" y="-665.33569"/></text><text opacity=".8" x="-2397.1182" y="80.217857"><tspan x="-2397.1182" y="80.217857"/></text><text opacity=".8" x="-682.36279" y="173.09"><tspan x="-682.36279" y="173.09"/></text><text opacity=".8" x="426.66153" y="-6.0921478"><tspan x="426.66153" y="-6.0921478"/></text><text opacity=".8" x="450.62247" y="-46.833855"><tspan x="450.62247" y="-46.833855"/></text><text opacity=".8" x="-1040.8407" y="-54.043827"><tspan x="-1040.8407" y="-54.043827"/></text><text opacity=".8" x="419.70206" y="-327.27789"><tspan x="419.70206" y="-327.27789"/></text><text opacity=".8" x="-608.03253" y="-56.758072"><tspan x="-608.03253" y="-56.758072"/></text><text opacity=".8" x="-2431.7185" y="688.79541"><tspan x="-2431.7185" y="688.79541"/></text><text opacity=".8" x="-456.93948" y="-918.28857"><tspan x="-456.93948" y="-918.28857"/></text><text opacity=".8" x="350.66266" y="-1331.7588"><tspan x="350.66266" y="-1331.7588"/></text><text opacity=".8" x="374.62357" y="-1372.5005"><tspan x="374.62357" y="-1372.5005"/></text><text opacity=".8" x="-1116.8396" y="-1379.7104"><tspan x="-1116.8396" y="-1379.7104"/></text><text opacity=".8" x="343.70316" y="-1652.9446"><tspan x="343.70316" y="-1652.9446"/></text><text opacity=".8" x="1829.8265" y="-1026.2533"><tspan x="1829.8265" y="-1026.2533"/></text><text opacity=".8" x="1853.7874" y="-1066.9949"><tspan x="1853.7874" y="-1066.9949"/></text><text opacity=".8" x="362.32431" y="-1074.2048"><tspan x="362.32431" y="-1074.2048"/></text><text opacity=".8" x="1822.8671" y="-1347.439"><tspan x="1822.8671" y="-1347.439"/></text><text opacity=".8" x="-575.492" y="-1122.2961"><tspan x="-575.492" y="-1122.2961"/></text><text opacity=".8" x="-2399.1777" y="-376.74261"><tspan x="-2399.1777" y="-376.74261"/></text><text opacity=".8" x="-684.42224" y="-283.87045"><tspan x="-684.42224" y="-283.87045"/></text><text opacity=".8" x="155.5923" y="-42.956276"><tspan x="155.5923" y="-42.956276"/></text><text opacity=".8" x="179.55324" y="-83.697998"><tspan x="179.55324" y="-83.697998"/></text><text opacity=".8" x="-1090.2634" y="-277.72662"><tspan x="-1090.2634" y="-277.72662"/></text><text opacity=".8" x="-282.66141" y="-691.19678"><tspan x="-282.66141" y="-691.19678"/></text><text opacity=".8" x="-258.70047" y="-731.93848"><tspan x="-258.70047" y="-731.93848"/></text><text opacity=".8" x="-1750.1636" y="-739.14838"><tspan x="-1750.1636" y="-739.14838"/></text><text opacity=".8" x="-289.62085" y="-1012.3825"><tspan x="-289.62085" y="-1012.3825"/></text><text opacity=".8" x="1196.5026" y="-385.69113"><tspan x="1196.5026" y="-385.69113"/></text><text opacity=".8" x="1220.4634" y="-426.43286"><tspan x="1220.4634" y="-426.43286"/></text><text opacity=".8" x="-270.99973" y="-433.64282"><tspan x="-270.99973" y="-433.64282"/></text><text opacity=".8" x="1189.5431" y="-706.87689"><tspan x="1189.5431" y="-706.87689"/></text><text opacity=".8" x="-1208.816" y="-481.7341"><tspan x="-1208.816" y="-481.7341"/></text><text opacity=".8" x="-3032.5017" y="263.81946"><tspan x="-3032.5017" y="263.81946"/></text><text opacity=".8" transform="matrix(.90475 0 0 .90475 -716.75 -692.29)" x="-664.2738" y="1159.4154"><tspan x="-664.2738" y="1159.4154"/></text><text opacity=".8" x="877.22626" y="2.0505886"><tspan x="877.22626" y="2.0505886"/></text><text opacity=".8" x="901.18719" y="-38.691116"><tspan x="901.18719" y="-38.691116"/></text><text opacity=".8" x="-569.37115" y="-68.769257"><tspan x="-569.37115" y="-68.769257"/></text><text opacity=".8" x="-2393.0571" y="676.78418"><tspan x="-2393.0571" y="676.78418"/></text><text opacity=".8" x="-454.88007" y="-454.09021"><tspan x="-454.88007" y="-454.09021"/></text><text opacity=".8" x="352.72208" y="-867.5603"><tspan x="352.72208" y="-867.5603"/></text><text opacity=".8" x="376.68301" y="-908.30206"><tspan x="376.68301" y="-908.30206"/></text><text opacity=".8" x="-1114.7802" y="-915.51196"><tspan x="-1114.7802" y="-915.51196"/></text><text opacity=".8" x="345.7626" y="-1188.7461"><tspan x="345.7626" y="-1188.7461"/></text><text opacity=".8" x="1831.8861" y="-562.05475"><tspan x="1831.8861" y="-562.05475"/></text><text opacity=".8" x="1855.8469" y="-602.79651"><tspan x="1855.8469" y="-602.79651"/></text><text opacity=".8" x="364.38376" y="-610.00641"><tspan x="364.38376" y="-610.00641"/></text><text opacity=".8" x="1824.9266" y="-883.24036"><tspan x="1824.9266" y="-883.24036"/></text><text opacity=".8" x="-573.43256" y="-658.09772"><tspan x="-573.43256" y="-658.09772"/></text><text opacity=".8" x="-2397.1182" y="87.455849"><tspan x="-2397.1182" y="87.455849"/></text><text opacity=".8" x="-682.36279" y="180.32799"><tspan x="-682.36279" y="180.32799"/></text><text opacity=".8" x="426.66153" y="1.1458397"><tspan x="426.66153" y="1.1458397"/></text><text opacity=".8" x="450.62247" y="-39.595863"><tspan x="450.62247" y="-39.595863"/></text><text opacity=".8" x="-1040.8407" y="-46.805836"><tspan x="-1040.8407" y="-46.805836"/></text><text opacity=".8" x="419.70206" y="-320.03989"><tspan x="419.70206" y="-320.03989"/></text><text opacity=".8" x="-608.03253" y="-49.520081"><tspan x="-608.03253" y="-49.520081"/></text><text opacity=".8" x="-2431.7185" y="696.03345"><tspan x="-2431.7185" y="696.03345"/></text><text opacity=".8" x="-456.93948" y="-911.0506"><tspan x="-456.93948" y="-911.0506"/></text><text opacity=".8" x="350.66266" y="-1324.5208"><tspan x="350.66266" y="-1324.5208"/></text><text opacity=".8" x="374.62357" y="-1365.2626"><tspan x="374.62357" y="-1365.2626"/></text><text opacity=".8" x="-1116.8396" y="-1372.4724"><tspan x="-1116.8396" y="-1372.4724"/></text><text opacity=".8" x="343.70316" y="-1645.7065"><tspan x="343.70316" y="-1645.7065"/></text><text opacity=".8" x="1829.8265" y="-1019.0153"><tspan x="1829.8265" y="-1019.0153"/></text><text opacity=".8" x="1853.7874" y="-1059.757"><tspan x="1853.7874" y="-1059.757"/></text><text opacity=".8" x="362.32431" y="-1066.9668"><tspan x="362.32431" y="-1066.9668"/></text><text opacity=".8" x="1822.8671" y="-1340.2009"><tspan x="1822.8671" y="-1340.2009"/></text><text opacity=".8" x="-575.492" y="-1115.0581"><tspan x="-575.492" y="-1115.0581"/></text><text opacity=".8" x="-2399.1777" y="-369.50461"><tspan x="-2399.1777" y="-369.50461"/></text><text opacity=".8" x="-684.42224" y="-276.63245"><tspan x="-684.42224" y="-276.63245"/></text><text opacity=".8" x="155.5923" y="-35.718292"><tspan x="155.5923" y="-35.718292"/></text><text opacity=".8" x="179.55324" y="-76.460007"><tspan x="179.55324" y="-76.460007"/></text><text opacity=".8" x="-1090.2634" y="-270.48859"><tspan x="-1090.2634" y="-270.48859"/></text><text opacity=".8" x="-282.66141" y="-683.9588"><tspan x="-282.66141" y="-683.9588"/></text><text opacity=".8" x="-258.70047" y="-724.7005"><tspan x="-258.70047" y="-724.7005"/></text><text opacity=".8" x="-1750.1636" y="-731.91046"><tspan x="-1750.1636" y="-731.91046"/></text><text opacity=".8" x="-289.62085" y="-1005.1445"><tspan x="-289.62085" y="-1005.1445"/></text><text opacity=".8" x="1196.5026" y="-378.45316"><tspan x="1196.5026" y="-378.45316"/></text><text opacity=".8" x="1220.4634" y="-419.19489"><tspan x="1220.4634" y="-419.19489"/></text><text opacity=".8" x="-270.99973" y="-426.40482"><tspan x="-270.99973" y="-426.40482"/></text><text opacity=".8" x="1189.5431" y="-699.63892"><tspan x="1189.5431" y="-699.63892"/></text><text opacity=".8" x="-1208.816" y="-474.49609"><tspan x="-1208.816" y="-474.49609"/></text><text opacity=".8" x="-3032.5017" y="271.05743"><tspan x="-3032.5017" y="271.05743"/></text><text opacity=".8" transform="matrix(.90475 0 0 .90475 -716.75 -685.05)" x="-664.2738" y="1159.4154"><tspan x="-664.2738" y="1159.4154"/></text><text x="435.90427" y="-377.22546"><tspan x="435.90427" y="-377.22546"/><tspan x="435.90427" y="-361.3924"/></text><text opacity=".8" x="901.0882" y="-859.27002"><tspan x="901.0882" y="-859.27002"/></text><text opacity=".8" x="-922.59778" y="-113.71655"><tspan x="-922.59778" y="-113.71655"/></text><text opacity=".8" x="1628.1677" y="-1144.2659"><tspan x="1628.1677" y="-1144.2659"/></text><text opacity=".8" x="1652.1285" y="-1185.0076"><tspan x="1652.1285" y="-1185.0076"/></text><text opacity=".8" x="160.66542" y="-1192.2175"><tspan x="160.66542" y="-1192.2175"/></text><text opacity=".8" x="1621.2083" y="-1465.4517"><tspan x="1621.2083" y="-1465.4517"/></text><text opacity=".8" x="808.80414" y="-12.039158"><tspan x="808.80414" y="-12.039158"/></text><text opacity=".8" x="832.76508" y="-52.780865"><tspan x="832.76508" y="-52.780865"/></text><text opacity=".8" x="-637.79327" y="-82.859009"><tspan x="-637.79327" y="-82.859009"/></text><text opacity=".8" x="-2461.4792" y="662.69446"><tspan x="-2461.4792" y="662.69446"/></text><text opacity=".8" x="-523.30219" y="-468.17996"><tspan x="-523.30219" y="-468.17996"/></text><text opacity=".8" x="284.29996" y="-881.65009"><tspan x="284.29996" y="-881.65009"/></text><text opacity=".8" x="308.26089" y="-922.39178"><tspan x="308.26089" y="-922.39178"/></text><text opacity=".8" x="-1183.2023" y="-929.60168"><tspan x="-1183.2023" y="-929.60168"/></text><text opacity=".8" x="277.34048" y="-1202.8359"><tspan x="277.34048" y="-1202.8359"/></text><text opacity=".8" x="1763.464" y="-576.14447"><tspan x="1763.464" y="-576.14447"/></text><text opacity=".8" x="1787.4248" y="-616.88623"><tspan x="1787.4248" y="-616.88623"/></text><text opacity=".8" x="295.96164" y="-624.09613"><tspan x="295.96164" y="-624.09613"/></text><text opacity=".8" x="1756.5045" y="-897.33014"><tspan x="1756.5045" y="-897.33014"/></text><text opacity=".8" x="-641.85468" y="-672.18744"><tspan x="-641.85468" y="-672.18744"/></text><text opacity=".8" x="-2465.5403" y="73.366096"><tspan x="-2465.5403" y="73.366096"/></text><text opacity=".8" x="-750.78491" y="166.23824"><tspan x="-750.78491" y="166.23824"/></text><text opacity=".8" x="358.23941" y="-12.943907"><tspan x="358.23941" y="-12.943907"/></text><text opacity=".8" x="382.20035" y="-53.685616"><tspan x="382.20035" y="-53.685616"/></text><text opacity=".8" x="-1109.2628" y="-60.895588"><tspan x="-1109.2628" y="-60.895588"/></text><text opacity=".8" x="351.27994" y="-334.12964"><tspan x="351.27994" y="-334.12964"/></text><text opacity=".8" x="-676.45465" y="-63.609833"><tspan x="-676.45465" y="-63.609833"/></text><text opacity=".8" x="-2500.1406" y="681.94366"><tspan x="-2500.1406" y="681.94366"/></text><text opacity=".8" x="-525.36157" y="-925.14032"><tspan x="-525.36157" y="-925.14032"/></text><text opacity=".8" x="282.24054" y="-1338.6106"><tspan x="282.24054" y="-1338.6106"/></text><text opacity=".8" x="306.20145" y="-1379.3523"><tspan x="306.20145" y="-1379.3523"/></text><text opacity=".8" x="-1185.2617" y="-1386.5623"><tspan x="-1185.2617" y="-1386.5623"/></text><text opacity=".8" x="275.28104" y="-1659.7964"><tspan x="275.28104" y="-1659.7964"/></text><text opacity=".8" x="1761.4044" y="-1033.1051"><tspan x="1761.4044" y="-1033.1051"/></text><text opacity=".8" x="1785.3652" y="-1073.8467"><tspan x="1785.3652" y="-1073.8467"/></text><text opacity=".8" x="293.90219" y="-1081.0566"><tspan x="293.90219" y="-1081.0566"/></text><text opacity=".8" x="1754.4449" y="-1354.2908"><tspan x="1754.4449" y="-1354.2908"/></text><text opacity=".8" x="-643.91412" y="-1129.1479"><tspan x="-643.91412" y="-1129.1479"/></text><text opacity=".8" x="-2467.5999" y="-383.59436"><tspan x="-2467.5999" y="-383.59436"/></text><text opacity=".8" x="-752.84436" y="-290.7222"><tspan x="-752.84436" y="-290.7222"/></text><text opacity=".8" x="87.170189" y="-49.808037"><tspan x="87.170189" y="-49.808037"/></text><text opacity=".8" x="111.13113" y="-90.549759"><tspan x="111.13113" y="-90.549759"/></text><text opacity=".8" x="-1158.6855" y="-284.57837"><tspan x="-1158.6855" y="-284.57837"/></text><text opacity=".8" x="-351.08353" y="-698.04852"><tspan x="-351.08353" y="-698.04852"/></text><text opacity=".8" x="-327.12259" y="-738.79022"><tspan x="-327.12259" y="-738.79022"/></text><text opacity=".8" x="-1818.5857" y="-746.00012"><tspan x="-1818.5857" y="-746.00012"/></text><text opacity=".8" x="-358.04297" y="-1019.2343"><tspan x="-358.04297" y="-1019.2343"/></text><text opacity=".8" x="1128.0804" y="-392.54288"><tspan x="1128.0804" y="-392.54288"/></text><text opacity=".8" x="1152.0413" y="-433.28461"><tspan x="1152.0413" y="-433.28461"/></text><text opacity=".8" x="-339.42184" y="-440.49457"><tspan x="-339.42184" y="-440.49457"/></text><text opacity=".8" x="1121.121" y="-713.72864"><tspan x="1121.121" y="-713.72864"/></text><text opacity=".8" x="-1277.2382" y="-488.58585"><tspan x="-1277.2382" y="-488.58585"/></text><text opacity=".8" x="-3100.9238" y="256.96771"><tspan x="-3100.9238" y="256.96771"/></text><text opacity=".8" transform="matrix(.90475 0 0 .90475 -785.17 -699.14)" x="-664.2738" y="1159.4154"><tspan x="-664.2738" y="1159.4154"/></text><text opacity=".8" x="808.80414" y="-4.8011703"><tspan x="808.80414" y="-4.8011703"/></text><text opacity=".8" x="832.76508" y="-45.542877"><tspan x="832.76508" y="-45.542877"/></text><text opacity=".8" x="-637.79327" y="-75.621017"><tspan x="-637.79327" y="-75.621017"/></text><text opacity=".8" x="-2461.4792" y="669.93243"><tspan x="-2461.4792" y="669.93243"/></text><text opacity=".8" x="-523.30219" y="-460.94196"><tspan x="-523.30219" y="-460.94196"/></text><text opacity=".8" x="284.29996" y="-874.41205"><tspan x="284.29996" y="-874.41205"/></text><text opacity=".8" x="308.26089" y="-915.15381"><tspan x="308.26089" y="-915.15381"/></text><text opacity=".8" x="-1183.2023" y="-922.36371"><tspan x="-1183.2023" y="-922.36371"/></text><text opacity=".8" x="277.34048" y="-1195.5979"><tspan x="277.34048" y="-1195.5979"/></text><text opacity=".8" x="1763.464" y="-568.90649"><tspan x="1763.464" y="-568.90649"/></text><text opacity=".8" x="1787.4248" y="-609.64825"><tspan x="1787.4248" y="-609.64825"/></text><text opacity=".8" x="295.96164" y="-616.85815"><tspan x="295.96164" y="-616.85815"/></text><text opacity=".8" x="1756.5045" y="-890.0921"><tspan x="1756.5045" y="-890.0921"/></text><text opacity=".8" x="-641.85468" y="-664.94946"><tspan x="-641.85468" y="-664.94946"/></text><text opacity=".8" x="-2465.5403" y="80.604088"><tspan x="-2465.5403" y="80.604088"/></text><text opacity=".8" x="-750.78491" y="173.47623"><tspan x="-750.78491" y="173.47623"/></text><text opacity=".8" x="358.23941" y="-5.7059193"><tspan x="358.23941" y="-5.7059193"/></text><text opacity=".8" x="382.20035" y="-46.447624"><tspan x="382.20035" y="-46.447624"/></text><text opacity=".8" x="-1109.2628" y="-53.657597"><tspan x="-1109.2628" y="-53.657597"/></text><text opacity=".8" x="351.27994" y="-326.89163"><tspan x="351.27994" y="-326.89163"/></text><text opacity=".8" x="-676.45465" y="-56.371841"><tspan x="-676.45465" y="-56.371841"/></text><text opacity=".8" x="-2500.1406" y="689.1817"><tspan x="-2500.1406" y="689.1817"/></text><text opacity=".8" x="-525.36157" y="-917.90234"><tspan x="-525.36157" y="-917.90234"/></text><text opacity=".8" x="282.24054" y="-1331.3726"><tspan x="282.24054" y="-1331.3726"/></text><text opacity=".8" x="306.20145" y="-1372.1144"><tspan x="306.20145" y="-1372.1144"/></text><text opacity=".8" x="-1185.2617" y="-1379.3242"><tspan x="-1185.2617" y="-1379.3242"/></text><text opacity=".8" x="275.28104" y="-1652.5583"><tspan x="275.28104" y="-1652.5583"/></text><text opacity=".8" x="1761.4044" y="-1025.8671"><tspan x="1761.4044" y="-1025.8671"/></text><text opacity=".8" x="1785.3652" y="-1066.6088"><tspan x="1785.3652" y="-1066.6088"/></text><text opacity=".8" x="293.90219" y="-1073.8186"><tspan x="293.90219" y="-1073.8186"/></text><text opacity=".8" x="1754.4449" y="-1347.0527"><tspan x="1754.4449" y="-1347.0527"/></text><text opacity=".8" x="-643.91412" y="-1121.9099"><tspan x="-643.91412" y="-1121.9099"/></text><text opacity=".8" x="-2467.5999" y="-376.35635"><tspan x="-2467.5999" y="-376.35635"/></text><text opacity=".8" x="-752.84436" y="-283.48419"><tspan x="-752.84436" y="-283.48419"/></text><text opacity=".8" x="87.170189" y="-42.570049"><tspan x="87.170189" y="-42.570049"/></text><text opacity=".8" x="111.13113" y="-83.311768"><tspan x="111.13113" y="-83.311768"/></text><text opacity=".8" x="-1158.6855" y="-277.34036"><tspan x="-1158.6855" y="-277.34036"/></text><text opacity=".8" x="-351.08353" y="-690.81055"><tspan x="-351.08353" y="-690.81055"/></text><text opacity=".8" x="-327.12259" y="-731.55225"><tspan x="-327.12259" y="-731.55225"/></text><text opacity=".8" x="-1818.5857" y="-738.76221"><tspan x="-1818.5857" y="-738.76221"/></text><text opacity=".8" x="-358.04297" y="-1011.9962"><tspan x="-358.04297" y="-1011.9962"/></text><text opacity=".8" x="1128.0804" y="-385.3049"><tspan x="1128.0804" y="-385.3049"/></text><text opacity=".8" x="1152.0413" y="-426.04663"><tspan x="1152.0413" y="-426.04663"/></text><text opacity=".8" x="-339.42184" y="-433.25656"><tspan x="-339.42184" y="-433.25656"/></text><text opacity=".8" x="1121.121" y="-706.49066"><tspan x="1121.121" y="-706.49066"/></text><text opacity=".8" x="-1277.2382" y="-481.34784"><tspan x="-1277.2382" y="-481.34784"/></text><text opacity=".8" x="-3100.9238" y="264.20569"><tspan x="-3100.9238" y="264.20569"/></text><text opacity=".8" transform="matrix(.90475 0 0 .90475 -785.17 -691.9)" x="-664.2738" y="1159.4154"><tspan x="-664.2738" y="1159.4154"/></text><text x="367.48215" y="-384.07721"><tspan x="367.48215" y="-384.07721"/><tspan x="367.48215" y="-368.24414"/></text><text opacity=".8" x="832.66608" y="-866.12177"><tspan x="832.66608" y="-866.12177"/></text><text opacity=".8" x="-991.0199" y="-120.56831"><tspan x="-991.0199" y="-120.56831"/></text><text opacity=".8" x="1559.7456" y="-1151.1177"><tspan x="1559.7456" y="-1151.1177"/></text><text opacity=".8" x="1583.7064" y="-1191.8594"><tspan x="1583.7064" y="-1191.8594"/></text><text opacity=".8" x="92.243309" y="-1199.0693"><tspan x="92.243309" y="-1199.0693"/></text><text opacity=".8" x="1552.7861" y="-1472.3035"><tspan x="1552.7861" y="-1472.3035"/></text><path d="m16 3c-7.2222 0-13 5.7778-13 13s5.7778 13 13 13c1.1556 0 2.1667-1.0111 2.1667-2.1667 0-.57778-.14444-1.0111-.57778-1.4444-.28889-.43333-.57778-.86667-.57778-1.4444 0-1.1556 1.0112-2.1667 2.1667-2.1667h2.6c4.044 0 7.222-3.178 7.222-7.222 0-6.356-5.778-11.556-13-11.556z" fill="#e9c95b"/><g opacity=".2" transform="translate(0 1)"><path d="m7 16c-1.0667 0-2-.933-2-2 0-1.067.9333-2 2-2 1.0667 0 2 .933 2 2 0 1.067-.9333 2-2 2z"/><path d="m12 10c-1.0667 0-2-.93333-2-2 0-1.06667.93333-2 2-2 1.06667 0 2 .93333 2 2 0 1.06667-.93333 2-2 2z"/><path d="m19 10c-1.0667 0-2-.93333-2-2 0-1.06667.93333-2 2-2 1.06667 0 2 .93333 2 2 0 1.06667-.93333 2-2 2z"/><path d="m24 16c-1.0667 0-2-.93333-2-2 0-1.06667.93333-2 2-2 1.06667 0 2 .93333 2 2 0 1.06667-.93333 2-2 2z"/></g><path d="m7 16c-1.0667 0-2-.933-2-2s .9333-2 2-2 2 .933 2 2-.9333 2-2 2z" fill="#fd971a"/><path d="m12 10c-1.0667 0-2-.93333-2-2s .93333-2 2-2 2 .93333 2 2-.93333 2-2 2z" fill="#3f90dc"/><path d="m19 10c-1.0667 0-2-.93333-2-2s .93333-2 2-2 2 .93333 2 2-.93333 2-2 2z" fill="#56a913"/><path d="m24 16c-1.0667 0-2-.93333-2-2s .93333-2 2-2 2 .93333 2 2-.93333 2-2 2z" fill="#f35b5b"/><path d="m16 3c-7.2222 0-13 5.7778-13 13 0 .169.0191.333.0254.5.2617-6.985 5.9213-12.5 12.975-12.5 7.043 0 12.696 4.9484 12.973 11.088.012-.177.027-.353.027-.533 0-6.3559-5.778-11.555-13-11.555zm1.086 21.428c-.045.167-.074.34-.074.517 0 .578.289 1.01.578 1.444.289.289.441.583.515.916.038-.154.061-.31.061-.471 0-.578-.143-1.012-.576-1.445-.202-.304-.401-.609-.504-.961z" fill="#fff" opacity=".2"/><path d="m28.973 14.088c-.267 3.786-3.331 6.689-7.196 6.689h-2.599c-1.156 0-2.166 1.013-2.166 2.168 0 .174.03.331.074.483.246-.923 1.114-1.651 2.092-1.651h2.599c4.045 0 7.223-3.178 7.223-7.222 0-.158-.02-.311-.027-.467zm-25.948 1.412c-.0063.167-.0254.331-.0254.5 0 7.222 5.7778 13 13 13 1.156 0 2.166-1.01 2.166-2.166 0-.192-.023-.364-.061-.529-.228.945-1.111 1.695-2.105 1.695-7.0541 0-12.713-5.515-12.975-12.5z" opacity=".3"/></svg>