<?xml version="1.0" encoding="UTF-8" standalone="no"?>
<svg id="svg2817" xmlns:rdf="http://www.w3.org/1999/02/22-rdf-syntax-ns#" xmlns="http://www.w3.org/2000/svg" height="32" width="32" version="1.0" xmlns:cc="http://creativecommons.org/ns#" xmlns:dc="http://purl.org/dc/elements/1.1/">
 <metadata id="metadata57">
  <rdf:RDF>
   <cc:Work rdf:about="">
    <dc:format>image/svg+xml</dc:format>
    <dc:type rdf:resource="http://purl.org/dc/dcmitype/StillImage"/>
    <dc:title/>
   </cc:Work>
  </rdf:RDF>
 </metadata>
 <text id="text4087-2-6-5" opacity=".8" xml:space="preserve" font-size="12.666px" y="-5.1873989" x="877.22626" font-family="&apos;Bitstream Vera Sans&apos;" fill="#000000"><tspan id="tspan4089-7-2-9" y="-5.1873989" x="877.22626"/></text>
 <text id="text4087-2-6-5-5" opacity=".8" xml:space="preserve" font-size="12.666px" y="-45.929108" x="901.18719" font-family="&apos;Bitstream Vera Sans&apos;" fill="#000000"><tspan id="tspan4089-7-2-9-6" y="-45.929108" x="901.18719"/></text>
 <text id="text4087-2-6-5-2" opacity=".8" xml:space="preserve" font-size="12.666px" y="-76.007248" x="-569.37115" font-family="&apos;Bitstream Vera Sans&apos;" fill="#000000"><tspan id="tspan4089-7-2-9-2" y="-76.007248" x="-569.37115"/></text>
 <text id="text4087-2-6-5-59" opacity=".8" xml:space="preserve" font-size="12.666px" y="669.5462" x="-2393.0571" font-family="&apos;Bitstream Vera Sans&apos;" fill="#000000"><tspan id="tspan4089-7-2-9-4" y="669.5462" x="-2393.0571"/></text>
 <text id="text4087-2-6-5-1" opacity=".8" xml:space="preserve" font-size="12.666px" y="-461.32822" x="-454.88007" font-family="&apos;Bitstream Vera Sans&apos;" fill="#000000"><tspan id="tspan4089-7-2-9-7" y="-461.32822" x="-454.88007"/></text>
 <text id="text4087-2-6-5-7" opacity=".8" xml:space="preserve" font-size="12.666px" y="-874.79834" x="352.72208" font-family="&apos;Bitstream Vera Sans&apos;" fill="#000000"><tspan id="tspan4089-7-2-9-1" y="-874.79834" x="352.72208"/></text>
 <text id="text4087-2-6-5-5-3" opacity=".8" xml:space="preserve" font-size="12.666px" y="-915.54004" x="376.68301" font-family="&apos;Bitstream Vera Sans&apos;" fill="#000000"><tspan id="tspan4089-7-2-9-6-5" y="-915.54004" x="376.68301"/></text>
 <text id="text4087-2-6-5-3" opacity=".8" xml:space="preserve" font-size="12.666px" y="-922.74994" x="-1114.7802" font-family="&apos;Bitstream Vera Sans&apos;" fill="#000000"><tspan id="tspan4089-7-2-9-18" y="-922.74994" x="-1114.7802"/></text>
 <text id="text4087-2-6-5-4" opacity=".8" xml:space="preserve" font-size="12.666px" y="-1195.9841" x="345.7626" font-family="&apos;Bitstream Vera Sans&apos;" fill="#000000"><tspan id="tspan4089-7-2-9-9" y="-1195.9841" x="345.7626"/></text>
 <text id="text4087-2-6-5-7-1" opacity=".8" xml:space="preserve" font-size="12.666px" y="-569.29272" x="1831.8861" font-family="&apos;Bitstream Vera Sans&apos;" fill="#000000"><tspan id="tspan4089-7-2-9-1-8" y="-569.29272" x="1831.8861"/></text>
 <text id="text4087-2-6-5-5-5" opacity=".8" xml:space="preserve" font-size="12.666px" y="-610.03448" x="1855.8469" font-family="&apos;Bitstream Vera Sans&apos;" fill="#000000"><tspan id="tspan4089-7-2-9-6-9" y="-610.03448" x="1855.8469"/></text>
 <text id="text4087-2-6-5-75" opacity=".8" xml:space="preserve" font-size="12.666px" y="-617.24438" x="364.38376" font-family="&apos;Bitstream Vera Sans&apos;" fill="#000000"><tspan id="tspan4089-7-2-9-3" y="-617.24438" x="364.38376"/></text>
 <text id="text4087-2-6-5-4-8" opacity=".8" xml:space="preserve" font-size="12.666px" y="-890.47839" x="1824.9266" font-family="&apos;Bitstream Vera Sans&apos;" fill="#000000"><tspan id="tspan4089-7-2-9-9-8" y="-890.47839" x="1824.9266"/></text>
 <text id="text4087-2-6-5-45" opacity=".8" xml:space="preserve" font-size="12.666px" y="-665.33569" x="-573.43256" font-family="&apos;Bitstream Vera Sans&apos;" fill="#000000"><tspan id="tspan4089-7-2-9-75" y="-665.33569" x="-573.43256"/></text>
 <text id="text4087-2-6-5-59-7" opacity=".8" xml:space="preserve" font-size="12.666px" y="80.217857" x="-2397.1182" font-family="&apos;Bitstream Vera Sans&apos;" fill="#000000"><tspan id="tspan4089-7-2-9-4-0" y="80.217857" x="-2397.1182"/></text>
 <text id="text4087-2-6-5-8" opacity=".8" xml:space="preserve" font-size="12.666px" y="173.09" x="-682.36279" font-family="&apos;Bitstream Vera Sans&apos;" fill="#000000"><tspan id="tspan4089-7-2-9-19" y="173.09" x="-682.36279"/></text>
 <text id="text4087-2-6-5-7-5" opacity=".8" xml:space="preserve" font-size="12.666px" y="-6.0921478" x="426.66153" font-family="&apos;Bitstream Vera Sans&apos;" fill="#000000"><tspan id="tspan4089-7-2-9-1-2" y="-6.0921478" x="426.66153"/></text>
 <text id="text4087-2-6-5-5-0" opacity=".8" xml:space="preserve" font-size="12.666px" y="-46.833855" x="450.62247" font-family="&apos;Bitstream Vera Sans&apos;" fill="#000000"><tspan id="tspan4089-7-2-9-6-2" y="-46.833855" x="450.62247"/></text>
 <text id="text4087-2-6-5-26" opacity=".8" xml:space="preserve" font-size="12.666px" y="-54.043827" x="-1040.8407" font-family="&apos;Bitstream Vera Sans&apos;" fill="#000000"><tspan id="tspan4089-7-2-9-90" y="-54.043827" x="-1040.8407"/></text>
 <text id="text4087-2-6-5-4-3" opacity=".8" xml:space="preserve" font-size="12.666px" y="-327.27789" x="419.70206" font-family="&apos;Bitstream Vera Sans&apos;" fill="#000000"><tspan id="tspan4089-7-2-9-9-5" y="-327.27789" x="419.70206"/></text>
 <text id="text4087-2-6-5-55" opacity=".8" xml:space="preserve" font-size="12.666px" y="-56.758072" x="-608.03253" font-family="&apos;Bitstream Vera Sans&apos;" fill="#000000"><tspan id="tspan4089-7-2-9-32" y="-56.758072" x="-608.03253"/></text>
 <text id="text4087-2-6-5-59-9" opacity=".8" xml:space="preserve" font-size="12.666px" y="688.79541" x="-2431.7185" font-family="&apos;Bitstream Vera Sans&apos;" fill="#000000"><tspan id="tspan4089-7-2-9-4-1" y="688.79541" x="-2431.7185"/></text>
 <text id="text4087-2-6-5-1-8" opacity=".8" xml:space="preserve" font-size="12.666px" y="-918.28857" x="-456.93948" font-family="&apos;Bitstream Vera Sans&apos;" fill="#000000"><tspan id="tspan4089-7-2-9-7-8" y="-918.28857" x="-456.93948"/></text>
 <text id="text4087-2-6-5-7-8" opacity=".8" xml:space="preserve" font-size="12.666px" y="-1331.7588" x="350.66266" font-family="&apos;Bitstream Vera Sans&apos;" fill="#000000"><tspan id="tspan4089-7-2-9-1-9" y="-1331.7588" x="350.66266"/></text>
 <text id="text4087-2-6-5-5-52" opacity=".8" xml:space="preserve" font-size="12.666px" y="-1372.5005" x="374.62357" font-family="&apos;Bitstream Vera Sans&apos;" fill="#000000"><tspan id="tspan4089-7-2-9-6-4" y="-1372.5005" x="374.62357"/></text>
 <text id="text4087-2-6-5-3-4" opacity=".8" xml:space="preserve" font-size="12.666px" y="-1379.7104" x="-1116.8396" font-family="&apos;Bitstream Vera Sans&apos;" fill="#000000"><tspan id="tspan4089-7-2-9-18-3" y="-1379.7104" x="-1116.8396"/></text>
 <text id="text4087-2-6-5-4-7" opacity=".8" xml:space="preserve" font-size="12.666px" y="-1652.9446" x="343.70316" font-family="&apos;Bitstream Vera Sans&apos;" fill="#000000"><tspan id="tspan4089-7-2-9-9-54" y="-1652.9446" x="343.70316"/></text>
 <text id="text4087-2-6-5-7-1-2" opacity=".8" xml:space="preserve" font-size="12.666px" y="-1026.2533" x="1829.8265" font-family="&apos;Bitstream Vera Sans&apos;" fill="#000000"><tspan id="tspan4089-7-2-9-1-8-0" y="-1026.2533" x="1829.8265"/></text>
 <text id="text4087-2-6-5-5-5-6" opacity=".8" xml:space="preserve" font-size="12.666px" y="-1066.9949" x="1853.7874" font-family="&apos;Bitstream Vera Sans&apos;" fill="#000000"><tspan id="tspan4089-7-2-9-6-9-8" y="-1066.9949" x="1853.7874"/></text>
 <text id="text4087-2-6-5-75-4" opacity=".8" xml:space="preserve" font-size="12.666px" y="-1074.2048" x="362.32431" font-family="&apos;Bitstream Vera Sans&apos;" fill="#000000"><tspan id="tspan4089-7-2-9-3-9" y="-1074.2048" x="362.32431"/></text>
 <text id="text4087-2-6-5-4-8-1" opacity=".8" xml:space="preserve" font-size="12.666px" y="-1347.439" x="1822.8671" font-family="&apos;Bitstream Vera Sans&apos;" fill="#000000"><tspan id="tspan4089-7-2-9-9-8-8" y="-1347.439" x="1822.8671"/></text>
 <text id="text4087-2-6-5-45-0" opacity=".8" xml:space="preserve" font-size="12.666px" y="-1122.2961" x="-575.492" font-family="&apos;Bitstream Vera Sans&apos;" fill="#000000"><tspan id="tspan4089-7-2-9-75-2" y="-1122.2961" x="-575.492"/></text>
 <text id="text4087-2-6-5-59-5" opacity=".8" xml:space="preserve" font-size="12.666px" y="-376.74261" x="-2399.1777" font-family="&apos;Bitstream Vera Sans&apos;" fill="#000000"><tspan id="tspan4089-7-2-9-4-00" y="-376.74261" x="-2399.1777"/></text>
 <text id="text4087-2-6-5-264" opacity=".8" xml:space="preserve" font-size="12.666px" y="-283.87045" x="-684.42224" font-family="&apos;Bitstream Vera Sans&apos;" fill="#000000"><tspan id="tspan4089-7-2-9-8" y="-283.87045" x="-684.42224"/></text>
 <text id="text4087-2-6-5-42" opacity=".8" xml:space="preserve" font-size="12.666px" y="-42.956276" x="155.5923" font-family="&apos;Bitstream Vera Sans&apos;" fill="#000000"><tspan id="tspan4089-7-2-9-93" y="-42.956276" x="155.5923"/></text>
 <text id="text4087-2-6-5-5-05" opacity=".8" xml:space="preserve" font-size="12.666px" y="-83.697998" x="179.55324" font-family="&apos;Bitstream Vera Sans&apos;" fill="#000000"><tspan id="tspan4089-7-2-9-6-49" y="-83.697998" x="179.55324"/></text>
 <text id="text4087-2-6-5-1-4" opacity=".8" xml:space="preserve" font-size="12.666px" y="-277.72662" x="-1090.2634" font-family="&apos;Bitstream Vera Sans&apos;" fill="#000000"><tspan id="tspan4089-7-2-9-7-7" y="-277.72662" x="-1090.2634"/></text>
 <text id="text4087-2-6-5-7-56" opacity=".8" xml:space="preserve" font-size="12.666px" y="-691.19678" x="-282.66141" font-family="&apos;Bitstream Vera Sans&apos;" fill="#000000"><tspan id="tspan4089-7-2-9-1-1" y="-691.19678" x="-282.66141"/></text>
 <text id="text4087-2-6-5-5-8" opacity=".8" xml:space="preserve" font-size="12.666px" y="-731.93848" x="-258.70047" font-family="&apos;Bitstream Vera Sans&apos;" fill="#000000"><tspan id="tspan4089-7-2-9-6-7" y="-731.93848" x="-258.70047"/></text>
 <text id="text4087-2-6-5-3-42" opacity=".8" xml:space="preserve" font-size="12.666px" y="-739.14838" x="-1750.1636" font-family="&apos;Bitstream Vera Sans&apos;" fill="#000000"><tspan id="tspan4089-7-2-9-18-39" y="-739.14838" x="-1750.1636"/></text>
 <text id="text4087-2-6-5-4-4" opacity=".8" xml:space="preserve" font-size="12.666px" y="-1012.3825" x="-289.62085" font-family="&apos;Bitstream Vera Sans&apos;" fill="#000000"><tspan id="tspan4089-7-2-9-9-3" y="-1012.3825" x="-289.62085"/></text>
 <text id="text4087-2-6-5-7-1-0" opacity=".8" xml:space="preserve" font-size="12.666px" y="-385.69113" x="1196.5026" font-family="&apos;Bitstream Vera Sans&apos;" fill="#000000"><tspan id="tspan4089-7-2-9-1-8-5" y="-385.69113" x="1196.5026"/></text>
 <text id="text4087-2-6-5-5-5-5" opacity=".8" xml:space="preserve" font-size="12.666px" y="-426.43286" x="1220.4634" font-family="&apos;Bitstream Vera Sans&apos;" fill="#000000"><tspan id="tspan4089-7-2-9-6-9-2" y="-426.43286" x="1220.4634"/></text>
 <text id="text4087-2-6-5-75-9" opacity=".8" xml:space="preserve" font-size="12.666px" y="-433.64282" x="-270.99973" font-family="&apos;Bitstream Vera Sans&apos;" fill="#000000"><tspan id="tspan4089-7-2-9-3-1" y="-433.64282" x="-270.99973"/></text>
 <text id="text4087-2-6-5-4-8-18" opacity=".8" xml:space="preserve" font-size="12.666px" y="-706.87689" x="1189.5431" font-family="&apos;Bitstream Vera Sans&apos;" fill="#000000"><tspan id="tspan4089-7-2-9-9-8-4" y="-706.87689" x="1189.5431"/></text>
 <text id="text4087-2-6-5-45-3" opacity=".8" xml:space="preserve" font-size="12.666px" y="-481.7341" x="-1208.816" font-family="&apos;Bitstream Vera Sans&apos;" fill="#000000"><tspan id="tspan4089-7-2-9-75-7" y="-481.7341" x="-1208.816"/></text>
 <text id="text4087-2-6-5-59-8" opacity=".8" xml:space="preserve" font-size="12.666px" y="263.81946" x="-3032.5017" font-family="&apos;Bitstream Vera Sans&apos;" fill="#000000"><tspan id="tspan4089-7-2-9-4-2" y="263.81946" x="-3032.5017"/></text>
 <g id="layer4-0" transform="matrix(.90475 0 0 .90475 -716.75 -692.29)">
  <text id="text4087-2-6-5-20" opacity=".8" xml:space="preserve" font-size="14px" y="1159.4154" x="-664.2738" font-family="&apos;Bitstream Vera Sans&apos;" fill="#000000"><tspan id="tspan4089-7-2-9-82" y="1159.4154" x="-664.2738"/></text>
 </g>
 <text id="text4087-2-6-5-9" opacity=".8" xml:space="preserve" font-size="12.666px" y="2.0505886" x="877.22626" font-family="&apos;Bitstream Vera Sans&apos;" fill="#000000"><tspan id="tspan4089-7-2-9-43" y="2.0505886" x="877.22626"/></text>
 <text id="text4087-2-6-5-5-51" opacity=".8" xml:space="preserve" font-size="12.666px" y="-38.691116" x="901.18719" font-family="&apos;Bitstream Vera Sans&apos;" fill="#000000"><tspan id="tspan4089-7-2-9-6-74" y="-38.691116" x="901.18719"/></text>
 <text id="text4087-2-6-5-2-3" opacity=".8" xml:space="preserve" font-size="12.666px" y="-68.769257" x="-569.37115" font-family="&apos;Bitstream Vera Sans&apos;" fill="#000000"><tspan id="tspan4089-7-2-9-2-1" y="-68.769257" x="-569.37115"/></text>
 <text id="text4087-2-6-5-59-4" opacity=".8" xml:space="preserve" font-size="12.666px" y="676.78418" x="-2393.0571" font-family="&apos;Bitstream Vera Sans&apos;" fill="#000000"><tspan id="tspan4089-7-2-9-4-6" y="676.78418" x="-2393.0571"/></text>
 <text id="text4087-2-6-5-1-9" opacity=".8" xml:space="preserve" font-size="12.666px" y="-454.09021" x="-454.88007" font-family="&apos;Bitstream Vera Sans&apos;" fill="#000000"><tspan id="tspan4089-7-2-9-7-4" y="-454.09021" x="-454.88007"/></text>
 <text id="text4087-2-6-5-7-2" opacity=".8" xml:space="preserve" font-size="12.666px" y="-867.5603" x="352.72208" font-family="&apos;Bitstream Vera Sans&apos;" fill="#000000"><tspan id="tspan4089-7-2-9-1-26" y="-867.5603" x="352.72208"/></text>
 <text id="text4087-2-6-5-5-3-4" opacity=".8" xml:space="preserve" font-size="12.666px" y="-908.30206" x="376.68301" font-family="&apos;Bitstream Vera Sans&apos;" fill="#000000"><tspan id="tspan4089-7-2-9-6-5-1" y="-908.30206" x="376.68301"/></text>
 <text id="text4087-2-6-5-3-2" opacity=".8" xml:space="preserve" font-size="12.666px" y="-915.51196" x="-1114.7802" font-family="&apos;Bitstream Vera Sans&apos;" fill="#000000"><tspan id="tspan4089-7-2-9-18-8" y="-915.51196" x="-1114.7802"/></text>
 <text id="text4087-2-6-5-4-89" opacity=".8" xml:space="preserve" font-size="12.666px" y="-1188.7461" x="345.7626" font-family="&apos;Bitstream Vera Sans&apos;" fill="#000000"><tspan id="tspan4089-7-2-9-9-2" y="-1188.7461" x="345.7626"/></text>
 <text id="text4087-2-6-5-7-1-8" opacity=".8" xml:space="preserve" font-size="12.666px" y="-562.05475" x="1831.8861" font-family="&apos;Bitstream Vera Sans&apos;" fill="#000000"><tspan id="tspan4089-7-2-9-1-8-8" y="-562.05475" x="1831.8861"/></text>
 <text id="text4087-2-6-5-5-5-8" opacity=".8" xml:space="preserve" font-size="12.666px" y="-602.79651" x="1855.8469" font-family="&apos;Bitstream Vera Sans&apos;" fill="#000000"><tspan id="tspan4089-7-2-9-6-9-6" y="-602.79651" x="1855.8469"/></text>
 <text id="text4087-2-6-5-75-8" opacity=".8" xml:space="preserve" font-size="12.666px" y="-610.00641" x="364.38376" font-family="&apos;Bitstream Vera Sans&apos;" fill="#000000"><tspan id="tspan4089-7-2-9-3-3" y="-610.00641" x="364.38376"/></text>
 <text id="text4087-2-6-5-4-8-8" opacity=".8" xml:space="preserve" font-size="12.666px" y="-883.24036" x="1824.9266" font-family="&apos;Bitstream Vera Sans&apos;" fill="#000000"><tspan id="tspan4089-7-2-9-9-8-3" y="-883.24036" x="1824.9266"/></text>
 <text id="text4087-2-6-5-45-33" opacity=".8" xml:space="preserve" font-size="12.666px" y="-658.09772" x="-573.43256" font-family="&apos;Bitstream Vera Sans&apos;" fill="#000000"><tspan id="tspan4089-7-2-9-75-8" y="-658.09772" x="-573.43256"/></text>
 <text id="text4087-2-6-5-59-7-0" opacity=".8" xml:space="preserve" font-size="12.666px" y="87.455849" x="-2397.1182" font-family="&apos;Bitstream Vera Sans&apos;" fill="#000000"><tspan id="tspan4089-7-2-9-4-0-4" y="87.455849" x="-2397.1182"/></text>
 <text id="text4087-2-6-5-8-7" opacity=".8" xml:space="preserve" font-size="12.666px" y="180.32799" x="-682.36279" font-family="&apos;Bitstream Vera Sans&apos;" fill="#000000"><tspan id="tspan4089-7-2-9-19-6" y="180.32799" x="-682.36279"/></text>
 <text id="text4087-2-6-5-7-5-8" opacity=".8" xml:space="preserve" font-size="12.666px" y="1.1458397" x="426.66153" font-family="&apos;Bitstream Vera Sans&apos;" fill="#000000"><tspan id="tspan4089-7-2-9-1-2-9" y="1.1458397" x="426.66153"/></text>
 <text id="text4087-2-6-5-5-0-0" opacity=".8" xml:space="preserve" font-size="12.666px" y="-39.595863" x="450.62247" font-family="&apos;Bitstream Vera Sans&apos;" fill="#000000"><tspan id="tspan4089-7-2-9-6-2-6" y="-39.595863" x="450.62247"/></text>
 <text id="text4087-2-6-5-26-8" opacity=".8" xml:space="preserve" font-size="12.666px" y="-46.805836" x="-1040.8407" font-family="&apos;Bitstream Vera Sans&apos;" fill="#000000"><tspan id="tspan4089-7-2-9-90-7" y="-46.805836" x="-1040.8407"/></text>
 <text id="text4087-2-6-5-4-3-9" opacity=".8" xml:space="preserve" font-size="12.666px" y="-320.03989" x="419.70206" font-family="&apos;Bitstream Vera Sans&apos;" fill="#000000"><tspan id="tspan4089-7-2-9-9-5-0" y="-320.03989" x="419.70206"/></text>
 <text id="text4087-2-6-5-55-3" opacity=".8" xml:space="preserve" font-size="12.666px" y="-49.520081" x="-608.03253" font-family="&apos;Bitstream Vera Sans&apos;" fill="#000000"><tspan id="tspan4089-7-2-9-32-3" y="-49.520081" x="-608.03253"/></text>
 <text id="text4087-2-6-5-59-9-3" opacity=".8" xml:space="preserve" font-size="12.666px" y="696.03345" x="-2431.7185" font-family="&apos;Bitstream Vera Sans&apos;" fill="#000000"><tspan id="tspan4089-7-2-9-4-1-7" y="696.03345" x="-2431.7185"/></text>
 <text id="text4087-2-6-5-1-8-3" opacity=".8" xml:space="preserve" font-size="12.666px" y="-911.0506" x="-456.93948" font-family="&apos;Bitstream Vera Sans&apos;" fill="#000000"><tspan id="tspan4089-7-2-9-7-8-2" y="-911.0506" x="-456.93948"/></text>
 <text id="text4087-2-6-5-7-8-6" opacity=".8" xml:space="preserve" font-size="12.666px" y="-1324.5208" x="350.66266" font-family="&apos;Bitstream Vera Sans&apos;" fill="#000000"><tspan id="tspan4089-7-2-9-1-9-5" y="-1324.5208" x="350.66266"/></text>
 <text id="text4087-2-6-5-5-52-2" opacity=".8" xml:space="preserve" font-size="12.666px" y="-1365.2626" x="374.62357" font-family="&apos;Bitstream Vera Sans&apos;" fill="#000000"><tspan id="tspan4089-7-2-9-6-4-6" y="-1365.2626" x="374.62357"/></text>
 <text id="text4087-2-6-5-3-4-5" opacity=".8" xml:space="preserve" font-size="12.666px" y="-1372.4724" x="-1116.8396" font-family="&apos;Bitstream Vera Sans&apos;" fill="#000000"><tspan id="tspan4089-7-2-9-18-3-8" y="-1372.4724" x="-1116.8396"/></text>
 <text id="text4087-2-6-5-4-7-7" opacity=".8" xml:space="preserve" font-size="12.666px" y="-1645.7065" x="343.70316" font-family="&apos;Bitstream Vera Sans&apos;" fill="#000000"><tspan id="tspan4089-7-2-9-9-54-9" y="-1645.7065" x="343.70316"/></text>
 <text id="text4087-2-6-5-7-1-2-6" opacity=".8" xml:space="preserve" font-size="12.666px" y="-1019.0153" x="1829.8265" font-family="&apos;Bitstream Vera Sans&apos;" fill="#000000"><tspan id="tspan4089-7-2-9-1-8-0-0" y="-1019.0153" x="1829.8265"/></text>
 <text id="text4087-2-6-5-5-5-6-4" opacity=".8" xml:space="preserve" font-size="12.666px" y="-1059.757" x="1853.7874" font-family="&apos;Bitstream Vera Sans&apos;" fill="#000000"><tspan id="tspan4089-7-2-9-6-9-8-1" y="-1059.757" x="1853.7874"/></text>
 <text id="text4087-2-6-5-75-4-0" opacity=".8" xml:space="preserve" font-size="12.666px" y="-1066.9668" x="362.32431" font-family="&apos;Bitstream Vera Sans&apos;" fill="#000000"><tspan id="tspan4089-7-2-9-3-9-4" y="-1066.9668" x="362.32431"/></text>
 <text id="text4087-2-6-5-4-8-1-8" opacity=".8" xml:space="preserve" font-size="12.666px" y="-1340.2009" x="1822.8671" font-family="&apos;Bitstream Vera Sans&apos;" fill="#000000"><tspan id="tspan4089-7-2-9-9-8-8-7" y="-1340.2009" x="1822.8671"/></text>
 <text id="text4087-2-6-5-45-0-0" opacity=".8" xml:space="preserve" font-size="12.666px" y="-1115.0581" x="-575.492" font-family="&apos;Bitstream Vera Sans&apos;" fill="#000000"><tspan id="tspan4089-7-2-9-75-2-8" y="-1115.0581" x="-575.492"/></text>
 <text id="text4087-2-6-5-59-5-6" opacity=".8" xml:space="preserve" font-size="12.666px" y="-369.50461" x="-2399.1777" font-family="&apos;Bitstream Vera Sans&apos;" fill="#000000"><tspan id="tspan4089-7-2-9-4-00-2" y="-369.50461" x="-2399.1777"/></text>
 <text id="text4087-2-6-5-264-4" opacity=".8" xml:space="preserve" font-size="12.666px" y="-276.63245" x="-684.42224" font-family="&apos;Bitstream Vera Sans&apos;" fill="#000000"><tspan id="tspan4089-7-2-9-8-7" y="-276.63245" x="-684.42224"/></text>
 <text id="text4087-2-6-5-42-9" opacity=".8" xml:space="preserve" font-size="12.666px" y="-35.718292" x="155.5923" font-family="&apos;Bitstream Vera Sans&apos;" fill="#000000"><tspan id="tspan4089-7-2-9-93-3" y="-35.718292" x="155.5923"/></text>
 <text id="text4087-2-6-5-5-05-9" opacity=".8" xml:space="preserve" font-size="12.666px" y="-76.460007" x="179.55324" font-family="&apos;Bitstream Vera Sans&apos;" fill="#000000"><tspan id="tspan4089-7-2-9-6-49-2" y="-76.460007" x="179.55324"/></text>
 <text id="text4087-2-6-5-1-4-8" opacity=".8" xml:space="preserve" font-size="12.666px" y="-270.48859" x="-1090.2634" font-family="&apos;Bitstream Vera Sans&apos;" fill="#000000"><tspan id="tspan4089-7-2-9-7-7-3" y="-270.48859" x="-1090.2634"/></text>
 <text id="text4087-2-6-5-7-56-0" opacity=".8" xml:space="preserve" font-size="12.666px" y="-683.9588" x="-282.66141" font-family="&apos;Bitstream Vera Sans&apos;" fill="#000000"><tspan id="tspan4089-7-2-9-1-1-1" y="-683.9588" x="-282.66141"/></text>
 <text id="text4087-2-6-5-5-8-7" opacity=".8" xml:space="preserve" font-size="12.666px" y="-724.7005" x="-258.70047" font-family="&apos;Bitstream Vera Sans&apos;" fill="#000000"><tspan id="tspan4089-7-2-9-6-7-8" y="-724.7005" x="-258.70047"/></text>
 <text id="text4087-2-6-5-3-42-9" opacity=".8" xml:space="preserve" font-size="12.666px" y="-731.91046" x="-1750.1636" font-family="&apos;Bitstream Vera Sans&apos;" fill="#000000"><tspan id="tspan4089-7-2-9-18-39-1" y="-731.91046" x="-1750.1636"/></text>
 <text id="text4087-2-6-5-4-4-5" opacity=".8" xml:space="preserve" font-size="12.666px" y="-1005.1445" x="-289.62085" font-family="&apos;Bitstream Vera Sans&apos;" fill="#000000"><tspan id="tspan4089-7-2-9-9-3-4" y="-1005.1445" x="-289.62085"/></text>
 <text id="text4087-2-6-5-7-1-0-9" opacity=".8" xml:space="preserve" font-size="12.666px" y="-378.45316" x="1196.5026" font-family="&apos;Bitstream Vera Sans&apos;" fill="#000000"><tspan id="tspan4089-7-2-9-1-8-5-2" y="-378.45316" x="1196.5026"/></text>
 <text id="text4087-2-6-5-5-5-5-5" opacity=".8" xml:space="preserve" font-size="12.666px" y="-419.19489" x="1220.4634" font-family="&apos;Bitstream Vera Sans&apos;" fill="#000000"><tspan id="tspan4089-7-2-9-6-9-2-7" y="-419.19489" x="1220.4634"/></text>
 <text id="text4087-2-6-5-75-9-4" opacity=".8" xml:space="preserve" font-size="12.666px" y="-426.40482" x="-270.99973" font-family="&apos;Bitstream Vera Sans&apos;" fill="#000000"><tspan id="tspan4089-7-2-9-3-1-9" y="-426.40482" x="-270.99973"/></text>
 <text id="text4087-2-6-5-4-8-18-9" opacity=".8" xml:space="preserve" font-size="12.666px" y="-699.63892" x="1189.5431" font-family="&apos;Bitstream Vera Sans&apos;" fill="#000000"><tspan id="tspan4089-7-2-9-9-8-4-4" y="-699.63892" x="1189.5431"/></text>
 <text id="text4087-2-6-5-45-3-5" opacity=".8" xml:space="preserve" font-size="12.666px" y="-474.49609" x="-1208.816" font-family="&apos;Bitstream Vera Sans&apos;" fill="#000000"><tspan id="tspan4089-7-2-9-75-7-9" y="-474.49609" x="-1208.816"/></text>
 <text id="text4087-2-6-5-59-8-3" opacity=".8" xml:space="preserve" font-size="12.666px" y="271.05743" x="-3032.5017" font-family="&apos;Bitstream Vera Sans&apos;" fill="#000000"><tspan id="tspan4089-7-2-9-4-2-5" y="271.05743" x="-3032.5017"/></text>
 <g id="layer4-0-7" transform="matrix(.90475 0 0 .90475 -716.75 -685.05)">
  <text id="text4087-2-6-5-20-0" opacity=".8" xml:space="preserve" font-size="14px" y="1159.4154" x="-664.2738" font-family="&apos;Bitstream Vera Sans&apos;" fill="#000000"><tspan id="tspan4089-7-2-9-82-8" y="1159.4154" x="-664.2738"/></text>
 </g>
 <text id="text7276" xml:space="preserve" font-size="12.666px" y="-377.22546" x="435.90427" font-family="&apos;Droid Sans&apos;" fill="#000000"><tspan id="tspan7278" y="-377.22546" x="435.90427"/><tspan id="tspan7280" y="-361.3924" x="435.90427"/></text>
 <text id="text4087-2-6-5-51" opacity=".8" xml:space="preserve" font-size="12.666px" y="-859.27002" x="901.0882" font-family="&apos;Bitstream Vera Sans&apos;" fill="#000000"><tspan id="tspan4089-7-2-9-97" y="-859.27002" x="901.0882"/></text>
 <text id="text4087-2-6-5-59-2" opacity=".8" xml:space="preserve" font-size="12.666px" y="-113.71655" x="-922.59778" font-family="&apos;Bitstream Vera Sans&apos;" fill="#000000"><tspan id="tspan4089-7-2-9-4-4" y="-113.71655" x="-922.59778"/></text>
 <text id="text4087-2-6-5-7-7" opacity=".8" xml:space="preserve" font-size="12.666px" y="-1144.2659" x="1628.1677" font-family="&apos;Bitstream Vera Sans&apos;" fill="#000000"><tspan id="tspan4089-7-2-9-1-6" y="-1144.2659" x="1628.1677"/></text>
 <text id="text4087-2-6-5-5-6" opacity=".8" xml:space="preserve" font-size="12.666px" y="-1185.0076" x="1652.1285" font-family="&apos;Bitstream Vera Sans&apos;" fill="#000000"><tspan id="tspan4089-7-2-9-6-53" y="-1185.0076" x="1652.1285"/></text>
 <text id="text4087-2-6-5-54" opacity=".8" xml:space="preserve" font-size="12.666px" y="-1192.2175" x="160.66542" font-family="&apos;Bitstream Vera Sans&apos;" fill="#000000"><tspan id="tspan4089-7-2-9-0" y="-1192.2175" x="160.66542"/></text>
 <text id="text4087-2-6-5-4-1" opacity=".8" xml:space="preserve" font-size="12.666px" y="-1465.4517" x="1621.2083" font-family="&apos;Bitstream Vera Sans&apos;" fill="#000000"><tspan id="tspan4089-7-2-9-9-28" y="-1465.4517" x="1621.2083"/></text>
 <rect id="rect4434" rx="1.4286" ry="1.3333" height="12" width="10" y="17" x="11" fill="#6f6f6f"/>
 <circle id="circle33" cy="8" cx="8" r="6" fill="#6f6f6f"/>
 <circle id="circle4432" cy="8" cx="24" r="6" fill="#6f6f6f"/>
 <path id="rect4203-0" fill="#a0a3a4" d="m11 22.5v-3.5s-0.88436 0.03965-1.3128 0.16011c-1.7737 0.49869-3.0631 2.3986-2.5878 4.26 0.47531 1.8613 2.2859 2.9583 4.0596 2.4596 1.774-0.499 0.316-1.519-0.159-3.38z"/>
 <path id="path4421" fill="#a0a3a4" d="m21 22.5v-3.5s0.89931 0.03965 1.3278 0.16011c1.7737 0.49869 3.0631 2.3986 2.5878 4.26-0.47531 1.8613-2.2859 2.9583-4.0596 2.4596-1.774-0.499-0.331-1.519 0.144-3.38z"/>
 <path id="path4464" d="m23 30h-6c0-1.6569 1.3431-3 3-3s3 1.3431 3 3z" fill="#a0a3a4"/>
 <path id="path4459" d="m15 30h-6c0-1.6569 1.3431-3 3-3s3 1.3431 3 3z" fill="#a0a3a4"/>
 <path id="circle4423" opacity=".2" d="m13.975 8.498a6 6 0 0 1 -5.975 5.502 6 6 0 0 1 -5.9746 -5.498 6 6 0 0 0 -0.0254 0.498 6 6 0 0 0 6 6 6 6 0 0 0 6 -6 6 6 0 0 0 -0.025 -0.502zm16 0a6 6 0 0 1 -5.975 5.502 6 6 0 0 1 -5.975 -5.498 6 6 0 0 0 -0.025 0.498 6 6 0 0 0 6 6 6 6 0 0 0 6 -6 6 6 0 0 0 -0.025 -0.502zm-22.924 14.58c-0.074386 0.43593-0.066599 0.88978 0.048828 1.3418 0.47531 1.8613 2.2849 2.9577 4.0586 2.459 0.96192-0.27045 0.95396-0.71201 0.6875-1.3398-0.133 0.13311-0.35319 0.24585-0.6875 0.33984-1.7737 0.49869-3.5833-0.59765-4.0586-2.459-0.029136-0.1141-0.03266-0.22774-0.048828-0.3418zm17.914 0c-0.01617 0.11405-0.01969 0.2277-0.04883 0.3418-0.47531 1.8613-2.2868 2.9577-4.0605 2.459-0.34047-0.09573-0.56034-0.21132-0.69336-0.34766-0.2657 0.63154-0.27199 1.0762 0.69336 1.3477 1.7737 0.49869 3.5852-0.59765 4.0605-2.459 0.11543-0.45202 0.12321-0.90587 0.04883-1.3418zm-15.781 6.922c-0.1116 0.314-0.1836 0.648-0.1836 1h6c0-0.35234-0.07201-0.68593-0.18359-1h-5.6328zm8 0c-0.112 0.314-0.184 0.648-0.184 1h6c0-0.35234-0.07201-0.68593-0.18359-1h-5.6328z"/>
 <path id="path4436" opacity=".2" d="m8 2a6 6 0 0 0 -6 6 6 6 0 0 0 0.0254 0.502 6 6 0 0 1 5.9746 -5.502 6 6 0 0 1 5.975 5.498 6 6 0 0 0 0.025 -0.498 6 6 0 0 0 -6 -6zm16 0a6 6 0 0 0 -6 6 6 6 0 0 0 0.025 0.502 6 6 0 0 1 5.975 -5.502 6 6 0 0 1 5.975 5.498 6 6 0 0 0 0.025 -0.498 6 6 0 0 0 -6 -6zm-13 17s-0.884 0.04-1.3125 0.16c-1.665 0.468-2.8843 2.172-2.6367 3.918 0.2319-1.359 1.2937-2.54 2.6367-2.918 0.4285-0.12 1.3125-0.16 1.3125-0.16v-1zm10 0v1s0.9 0.04 1.328 0.16c1.343 0.378 2.405 1.559 2.637 2.918 0.247-1.746-0.972-3.45-2.637-3.918-0.428-0.12-1.328-0.16-1.328-0.16zm-10 3.5v1c0.218 0.852 0.621 1.509 0.846 2.039 0.572-0.573-0.46-1.528-0.846-3.039zm10 0c-0.384 1.504-1.398 2.457-0.838 3.031 0.223-0.529 0.621-1.183 0.838-2.031v-1zm-9 4.5c-1.657 0-3 1.343-3 3h0.1836c0.4131-1.163 1.5114-2 2.8164-2s2.403 0.837 2.816 2h0.184c0-1.657-1.343-3-3-3zm8 0c-1.657 0-3 1.343-3 3h0.184c0.413-1.163 1.511-2 2.816-2s2.403 0.837 2.816 2h0.184c0-1.657-1.343-3-3-3z" fill="#fff"/>
 <path id="path49" fill="#a0a3a4" d="m13.273 19h5.4545c4.545 0 7.272-1.935 7.272-7.742 0-3.8709-3.636-7.228-10-7.258-6.3636-0.0048-10 3.3871-10 7.258 0 5.807 2.7273 7.742 7.273 7.742z"/>
 <circle id="circle4458" opacity=".2" cy="12.5" cx="9.5" r="2.5"/>
 <circle id="circle51" cy="11.5" cx="9.5" r="2.5" fill="#74b8ff"/>
 <circle id="circle53" cy="11.5" cx="9.5" r="1.5" fill="#4d4d4d"/>
 <path id="path4521" d="m13.406 16a3 1.3333 0 0 0 -0.406 0.667 3 1.3333 0 0 0 3 1.333 3 1.3333 0 0 0 3 -1.333 3 1.3333 0 0 0 -0.406 -0.667 3 1.3333 0 0 1 -2.594 0.667 3 1.3333 0 0 1 -2.594 -0.667z" fill="#4d4d4d"/>
 <g id="g4417" transform="matrix(1.4286 0 0 .95238 -6.8571 .72857)">
  <path id="path63" fill="#4d4d4d" d="m13.9 11.1c0.013 4.2 1.3 4.2 2.1 4.2s2.0872 0 2.1-4.1996c0.002-3.3592-1.35-6.3-2.1-6.3-0.75063 0-2.1024 2.9408-2.1 6.3004z"/>
  <path id="path4526" d="m14.6 13.9a0.7 0.7 0 0 0 -0.3459 0.09297c0.21683 0.63948 0.50964 0.95814 0.81758 1.1238a0.7 0.7 0 0 0 0.228 -0.517 0.7 0.7 0 0 0 -0.7 -0.7zm2.8 0a0.7 0.7 0 0 0 -0.7 0.7 0.7 0.7 0 0 0 0.22832 0.5168c0.30794-0.16569 0.60075-0.48435 0.81758-1.1238a0.7 0.7 0 0 0 -0.346 -0.093z" fill="#343434"/>
 </g>
 <circle id="circle4460" opacity=".2" cy="12.5" cx="22.5" r="2.5"/>
 <circle id="circle4413" cy="11.5" cx="22.5" r="2.5" fill="#74b8ff"/>
 <circle id="circle4415" cy="11.5" cx="22.5" r="1.5" fill="#4d4d4d"/>
 <path id="path4444" opacity=".2" d="m16 4c-6.3636-0.0048-10 3.3868-10 7.258 0 0.231 0.0109 0.447 0.0195 0.666 0.2044-3.7293 3.8017-6.9287 9.9805-6.924 6.179 0.0291 9.776 3.1966 9.98 6.924 0.009-0.219 0.02-0.435 0.02-0.666 0-3.8712-3.636-7.228-10-7.258z" fill="#fff"/>
 <path id="path4449" opacity=".2" d="m6.0195 11.924c-0.0061 0.111-0.0195 0.221-0.0195 0.334 0 5.806 2.728 7.742 7.273 7.742h5.4531c4.546 0 7.274-1.936 7.274-7.742 0-0.113-0.013-0.223-0.02-0.334-0.207 5.282-2.889 7.076-7.253 7.076h-5.4531c-4.3649 0-7.0472-1.794-7.2545-7.076z"/>
</svg>
