<svg height="32" width="32" xmlns="http://www.w3.org/2000/svg"><text opacity=".8" x="877.22626" y="-5.1873989"><tspan x="877.22626" y="-5.1873989"/></text><text opacity=".8" x="901.18719" y="-45.929108"><tspan x="901.18719" y="-45.929108"/></text><text opacity=".8" x="-569.37115" y="-76.007248"><tspan x="-569.37115" y="-76.007248"/></text><text opacity=".8" x="-2393.0571" y="669.5462"><tspan x="-2393.0571" y="669.5462"/></text><text opacity=".8" x="-454.88007" y="-461.32822"><tspan x="-454.88007" y="-461.32822"/></text><text opacity=".8" x="352.72208" y="-874.79834"><tspan x="352.72208" y="-874.79834"/></text><text opacity=".8" x="376.68301" y="-915.54004"><tspan x="376.68301" y="-915.54004"/></text><text opacity=".8" x="-1114.7802" y="-922.74994"><tspan x="-1114.7802" y="-922.74994"/></text><text opacity=".8" x="345.7626" y="-1195.9841"><tspan x="345.7626" y="-1195.9841"/></text><text opacity=".8" x="1831.8861" y="-569.29272"><tspan x="1831.8861" y="-569.29272"/></text><text opacity=".8" x="1855.8469" y="-610.03448"><tspan x="1855.8469" y="-610.03448"/></text><text opacity=".8" x="364.38376" y="-617.24438"><tspan x="364.38376" y="-617.24438"/></text><text opacity=".8" x="1824.9266" y="-890.47839"><tspan x="1824.9266" y="-890.47839"/></text><text opacity=".8" x="-573.43256" y="-665.33569"><tspan x="-573.43256" y="-665.33569"/></text><text opacity=".8" x="-2397.1182" y="80.217857"><tspan x="-2397.1182" y="80.217857"/></text><text opacity=".8" x="-682.36279" y="173.09"><tspan x="-682.36279" y="173.09"/></text><text opacity=".8" x="426.66153" y="-6.0921478"><tspan x="426.66153" y="-6.0921478"/></text><text opacity=".8" x="450.62247" y="-46.833855"><tspan x="450.62247" y="-46.833855"/></text><text opacity=".8" x="-1040.8407" y="-54.043823"><tspan x="-1040.8407" y="-54.043823"/></text><text opacity=".8" x="419.70206" y="-327.27789"><tspan x="419.70206" y="-327.27789"/></text><text opacity=".8" x="-608.03253" y="-56.758072"><tspan x="-608.03253" y="-56.758072"/></text><text opacity=".8" x="-2431.7185" y="688.79541"><tspan x="-2431.7185" y="688.79541"/></text><text opacity=".8" x="-456.93948" y="-918.28857"><tspan x="-456.93948" y="-918.28857"/></text><text opacity=".8" x="350.66266" y="-1331.7588"><tspan x="350.66266" y="-1331.7588"/></text><text opacity=".8" x="374.62357" y="-1372.5005"><tspan x="374.62357" y="-1372.5005"/></text><text opacity=".8" x="-1116.8396" y="-1379.7104"><tspan x="-1116.8396" y="-1379.7104"/></text><text opacity=".8" x="343.70316" y="-1652.9446"><tspan x="343.70316" y="-1652.9446"/></text><text opacity=".8" x="1829.8265" y="-1026.2533"><tspan x="1829.8265" y="-1026.2533"/></text><text opacity=".8" x="1853.7874" y="-1066.9949"><tspan x="1853.7874" y="-1066.9949"/></text><text opacity=".8" x="362.32431" y="-1074.2048"><tspan x="362.32431" y="-1074.2048"/></text><text opacity=".8" x="1822.8671" y="-1347.439"><tspan x="1822.8671" y="-1347.439"/></text><text opacity=".8" x="-575.492" y="-1122.2961"><tspan x="-575.492" y="-1122.2961"/></text><text opacity=".8" x="-2399.1777" y="-376.74261"><tspan x="-2399.1777" y="-376.74261"/></text><text opacity=".8" x="-684.42224" y="-283.87045"><tspan x="-684.42224" y="-283.87045"/></text><text opacity=".8" x="155.5923" y="-42.956276"><tspan x="155.5923" y="-42.956276"/></text><text opacity=".8" x="179.55324" y="-83.697998"><tspan x="179.55324" y="-83.697998"/></text><text opacity=".8" x="-1090.2634" y="-277.72662"><tspan x="-1090.2634" y="-277.72662"/></text><text opacity=".8" x="-282.66141" y="-691.19678"><tspan x="-282.66141" y="-691.19678"/></text><text opacity=".8" x="-258.70047" y="-731.93848"><tspan x="-258.70047" y="-731.93848"/></text><text opacity=".8" x="-1750.1636" y="-739.14838"><tspan x="-1750.1636" y="-739.14838"/></text><text opacity=".8" x="-289.62085" y="-1012.3825"><tspan x="-289.62085" y="-1012.3825"/></text><text opacity=".8" x="1196.5026" y="-385.69113"><tspan x="1196.5026" y="-385.69113"/></text><text opacity=".8" x="1220.4634" y="-426.43286"><tspan x="1220.4634" y="-426.43286"/></text><text opacity=".8" x="-270.99973" y="-433.64282"><tspan x="-270.99973" y="-433.64282"/></text><text opacity=".8" x="1189.5431" y="-706.87689"><tspan x="1189.5431" y="-706.87689"/></text><text opacity=".8" x="-1208.816" y="-481.7341"><tspan x="-1208.816" y="-481.7341"/></text><text opacity=".8" x="-3032.5017" y="263.81946"><tspan x="-3032.5017" y="263.81946"/></text><text opacity=".8" transform="matrix(.90475 0 0 .90475 -716.75 -692.29)" x="-664.2738" y="1159.4154"><tspan x="-664.2738" y="1159.4154"/></text><text opacity=".8" x="877.22626" y="2.0505886"><tspan x="877.22626" y="2.0505886"/></text><text opacity=".8" x="901.18719" y="-38.691116"><tspan x="901.18719" y="-38.691116"/></text><text opacity=".8" x="-569.37115" y="-68.769257"><tspan x="-569.37115" y="-68.769257"/></text><text opacity=".8" x="-2393.0571" y="676.78418"><tspan x="-2393.0571" y="676.78418"/></text><text opacity=".8" x="-454.88007" y="-454.09021"><tspan x="-454.88007" y="-454.09021"/></text><text opacity=".8" x="352.72208" y="-867.5603"><tspan x="352.72208" y="-867.5603"/></text><text opacity=".8" x="376.68301" y="-908.30206"><tspan x="376.68301" y="-908.30206"/></text><text opacity=".8" x="-1114.7802" y="-915.51196"><tspan x="-1114.7802" y="-915.51196"/></text><text opacity=".8" x="345.7626" y="-1188.7461"><tspan x="345.7626" y="-1188.7461"/></text><text opacity=".8" x="1831.8861" y="-562.05475"><tspan x="1831.8861" y="-562.05475"/></text><text opacity=".8" x="1855.8469" y="-602.79651"><tspan x="1855.8469" y="-602.79651"/></text><text opacity=".8" x="364.38376" y="-610.00641"><tspan x="364.38376" y="-610.00641"/></text><text opacity=".8" x="1824.9266" y="-883.24036"><tspan x="1824.9266" y="-883.24036"/></text><text opacity=".8" x="-573.43256" y="-658.09772"><tspan x="-573.43256" y="-658.09772"/></text><text opacity=".8" x="-2397.1182" y="87.455849"><tspan x="-2397.1182" y="87.455849"/></text><text opacity=".8" x="-682.36279" y="180.32799"><tspan x="-682.36279" y="180.32799"/></text><text opacity=".8" x="426.66153" y="1.1458397"><tspan x="426.66153" y="1.1458397"/></text><text opacity=".8" x="450.62247" y="-39.595863"><tspan x="450.62247" y="-39.595863"/></text><text opacity=".8" x="-1040.8407" y="-46.805836"><tspan x="-1040.8407" y="-46.805836"/></text><text opacity=".8" x="419.70206" y="-320.03989"><tspan x="419.70206" y="-320.03989"/></text><text opacity=".8" x="-608.03253" y="-49.520081"><tspan x="-608.03253" y="-49.520081"/></text><text opacity=".8" x="-2431.7185" y="696.03345"><tspan x="-2431.7185" y="696.03345"/></text><text opacity=".8" x="-456.93948" y="-911.0506"><tspan x="-456.93948" y="-911.0506"/></text><text opacity=".8" x="350.66266" y="-1324.5208"><tspan x="350.66266" y="-1324.5208"/></text><text opacity=".8" x="374.62357" y="-1365.2626"><tspan x="374.62357" y="-1365.2626"/></text><text opacity=".8" x="-1116.8396" y="-1372.4724"><tspan x="-1116.8396" y="-1372.4724"/></text><text opacity=".8" x="343.70316" y="-1645.7065"><tspan x="343.70316" y="-1645.7065"/></text><text opacity=".8" x="1829.8265" y="-1019.0154"><tspan x="1829.8265" y="-1019.0154"/></text><text opacity=".8" x="1853.7874" y="-1059.757"><tspan x="1853.7874" y="-1059.757"/></text><text opacity=".8" x="362.32431" y="-1066.9668"><tspan x="362.32431" y="-1066.9668"/></text><text opacity=".8" x="1822.8671" y="-1340.2009"><tspan x="1822.8671" y="-1340.2009"/></text><text opacity=".8" x="-575.492" y="-1115.0581"><tspan x="-575.492" y="-1115.0581"/></text><text opacity=".8" x="-2399.1777" y="-369.50461"><tspan x="-2399.1777" y="-369.50461"/></text><text opacity=".8" x="-684.42224" y="-276.63245"><tspan x="-684.42224" y="-276.63245"/></text><text opacity=".8" x="155.5923" y="-35.718292"><tspan x="155.5923" y="-35.718292"/></text><text opacity=".8" x="179.55324" y="-76.460007"><tspan x="179.55324" y="-76.460007"/></text><text opacity=".8" x="-1090.2634" y="-270.48859"><tspan x="-1090.2634" y="-270.48859"/></text><text opacity=".8" x="-282.66141" y="-683.9588"><tspan x="-282.66141" y="-683.9588"/></text><text opacity=".8" x="-258.70047" y="-724.7005"><tspan x="-258.70047" y="-724.7005"/></text><text opacity=".8" x="-1750.1636" y="-731.91046"><tspan x="-1750.1636" y="-731.91046"/></text><text opacity=".8" x="-289.62085" y="-1005.1445"><tspan x="-289.62085" y="-1005.1445"/></text><text opacity=".8" x="1196.5026" y="-378.45316"><tspan x="1196.5026" y="-378.45316"/></text><text opacity=".8" x="1220.4634" y="-419.19489"><tspan x="1220.4634" y="-419.19489"/></text><text opacity=".8" x="-270.99973" y="-426.40482"><tspan x="-270.99973" y="-426.40482"/></text><text opacity=".8" x="1189.5431" y="-699.63892"><tspan x="1189.5431" y="-699.63892"/></text><text opacity=".8" x="-1208.816" y="-474.49609"><tspan x="-1208.816" y="-474.49609"/></text><text opacity=".8" x="-3032.5017" y="271.05743"><tspan x="-3032.5017" y="271.05743"/></text><text opacity=".8" transform="matrix(.90475 0 0 .90475 -716.75 -685.05)" x="-664.2738" y="1159.4154"><tspan x="-664.2738" y="1159.4154"/></text><text x="435.90427" y="-377.22546"><tspan x="435.90427" y="-377.22546"/><tspan x="435.90427" y="-361.3924"/></text><text opacity=".8" x="901.0882" y="-859.27002"><tspan x="901.0882" y="-859.27002"/></text><text opacity=".8" x="-922.59778" y="-113.71655"><tspan x="-922.59778" y="-113.71655"/></text><text opacity=".8" x="1628.1677" y="-1144.2659"><tspan x="1628.1677" y="-1144.2659"/></text><text opacity=".8" x="1652.1285" y="-1185.0076"><tspan x="1652.1285" y="-1185.0076"/></text><text opacity=".8" x="160.66542" y="-1192.2175"><tspan x="160.66542" y="-1192.2175"/></text><text opacity=".8" x="1621.2083" y="-1465.4517"><tspan x="1621.2083" y="-1465.4517"/></text><text opacity=".8" x="824.95508" y="-8.7551956"><tspan x="824.95508" y="-8.7551956"/></text><text opacity=".8" x="848.91602" y="-49.496902"><tspan x="848.91602" y="-49.496902"/></text><text opacity=".8" x="-621.64233" y="-79.575043"><tspan x="-621.64233" y="-79.575043"/></text><text opacity=".8" x="-2445.3284" y="665.97839"><tspan x="-2445.3284" y="665.97839"/></text><text opacity=".8" x="-507.15125" y="-464.89603"><tspan x="-507.15125" y="-464.89603"/></text><text opacity=".8" x="300.4509" y="-878.36615"><tspan x="300.4509" y="-878.36615"/></text><text opacity=".8" x="324.41183" y="-919.10785"><tspan x="324.41183" y="-919.10785"/></text><text opacity=".8" x="-1167.0514" y="-926.31775"><tspan x="-1167.0514" y="-926.31775"/></text><text opacity=".8" x="293.49142" y="-1199.5519"><tspan x="293.49142" y="-1199.5519"/></text><text opacity=".8" x="1779.6149" y="-572.86053"><tspan x="1779.6149" y="-572.86053"/></text><text opacity=".8" x="1803.5757" y="-613.60229"><tspan x="1803.5757" y="-613.60229"/></text><text opacity=".8" x="312.11258" y="-620.81219"><tspan x="312.11258" y="-620.81219"/></text><text opacity=".8" x="1772.6554" y="-894.0462"><tspan x="1772.6554" y="-894.0462"/></text><text opacity=".8" x="-625.70374" y="-668.9035"><tspan x="-625.70374" y="-668.9035"/></text><text opacity=".8" x="-2449.3894" y="76.650063"><tspan x="-2449.3894" y="76.650063"/></text><text opacity=".8" x="-734.63397" y="169.5222"><tspan x="-734.63397" y="169.5222"/></text><text opacity=".8" x="374.39035" y="-9.6599445"><tspan x="374.39035" y="-9.6599445"/></text><text opacity=".8" x="398.35129" y="-50.401649"><tspan x="398.35129" y="-50.401649"/></text><text opacity=".8" x="-1093.1119" y="-57.611618"><tspan x="-1093.1119" y="-57.611618"/></text><text opacity=".8" x="367.43088" y="-330.8457"><tspan x="367.43088" y="-330.8457"/></text><text opacity=".8" x="-660.30371" y="-60.325867"><tspan x="-660.30371" y="-60.325867"/></text><text opacity=".8" x="-2483.9897" y="685.2276"><tspan x="-2483.9897" y="685.2276"/></text><text opacity=".8" x="-509.21066" y="-921.85638"><tspan x="-509.21066" y="-921.85638"/></text><text opacity=".8" x="298.39148" y="-1335.3265"><tspan x="298.39148" y="-1335.3265"/></text><text opacity=".8" x="322.35239" y="-1376.0682"><tspan x="322.35239" y="-1376.0682"/></text><text opacity=".8" x="-1169.1108" y="-1383.2782"><tspan x="-1169.1108" y="-1383.2782"/></text><text opacity=".8" x="291.43198" y="-1656.5123"><tspan x="291.43198" y="-1656.5123"/></text><text opacity=".8" x="1777.5553" y="-1029.821"><tspan x="1777.5553" y="-1029.821"/></text><text opacity=".8" x="1801.5161" y="-1070.5626"><tspan x="1801.5161" y="-1070.5626"/></text><text opacity=".8" x="310.05313" y="-1077.7726"><tspan x="310.05313" y="-1077.7726"/></text><text opacity=".8" x="1770.5958" y="-1351.0067"><tspan x="1770.5958" y="-1351.0067"/></text><text opacity=".8" x="-627.76318" y="-1125.8639"><tspan x="-627.76318" y="-1125.8639"/></text><text opacity=".8" x="-2451.449" y="-380.31042"><tspan x="-2451.449" y="-380.31042"/></text><text opacity=".8" x="-736.69342" y="-287.43826"><tspan x="-736.69342" y="-287.43826"/></text><text opacity=".8" x="103.32111" y="-46.524075"><tspan x="103.32111" y="-46.524075"/></text><text opacity=".8" x="127.28205" y="-87.265793"><tspan x="127.28205" y="-87.265793"/></text><text opacity=".8" x="-1142.5347" y="-281.29443"><tspan x="-1142.5347" y="-281.29443"/></text><text opacity=".8" x="-334.93259" y="-694.76459"><tspan x="-334.93259" y="-694.76459"/></text><text opacity=".8" x="-310.97165" y="-735.50629"><tspan x="-310.97165" y="-735.50629"/></text><text opacity=".8" x="-1802.4348" y="-742.71619"><tspan x="-1802.4348" y="-742.71619"/></text><text opacity=".8" x="-341.89203" y="-1015.9503"><tspan x="-341.89203" y="-1015.9503"/></text><text opacity=".8" x="1144.2313" y="-389.25894"><tspan x="1144.2313" y="-389.25894"/></text><text opacity=".8" x="1168.1921" y="-430.00067"><tspan x="1168.1921" y="-430.00067"/></text><text opacity=".8" x="-323.2709" y="-437.21063"><tspan x="-323.2709" y="-437.21063"/></text><text opacity=".8" x="1137.2719" y="-710.4447"><tspan x="1137.2719" y="-710.4447"/></text><text opacity=".8" x="-1261.0873" y="-485.30191"><tspan x="-1261.0873" y="-485.30191"/></text><text opacity=".8" x="-3084.7729" y="260.25165"><tspan x="-3084.7729" y="260.25165"/></text><text opacity=".8" transform="matrix(.90475 0 0 .90475 -769.02119 -695.8578)" x="-664.2738" y="1159.4154"><tspan x="-664.2738" y="1159.4154"/></text><text opacity=".8" x="824.95508" y="-1.5172081"><tspan x="824.95508" y="-1.5172081"/></text><text opacity=".8" x="848.91602" y="-42.258911"><tspan x="848.91602" y="-42.258911"/></text><text opacity=".8" x="-621.64233" y="-72.337051"><tspan x="-621.64233" y="-72.337051"/></text><text opacity=".8" x="-2445.3284" y="673.21637"><tspan x="-2445.3284" y="673.21637"/></text><text opacity=".8" x="-507.15125" y="-457.65802"><tspan x="-507.15125" y="-457.65802"/></text><text opacity=".8" x="300.4509" y="-871.12811"><tspan x="300.4509" y="-871.12811"/></text><text opacity=".8" x="324.41183" y="-911.86987"><tspan x="324.41183" y="-911.86987"/></text><text opacity=".8" x="-1167.0514" y="-919.07977"><tspan x="-1167.0514" y="-919.07977"/></text><text opacity=".8" x="293.49142" y="-1192.3138"><tspan x="293.49142" y="-1192.3138"/></text><text opacity=".8" x="1779.6149" y="-565.62256"><tspan x="1779.6149" y="-565.62256"/></text><text opacity=".8" x="1803.5757" y="-606.36432"><tspan x="1803.5757" y="-606.36432"/></text><text opacity=".8" x="312.11258" y="-613.57422"><tspan x="312.11258" y="-613.57422"/></text><text opacity=".8" x="1772.6554" y="-886.80817"><tspan x="1772.6554" y="-886.80817"/></text><text opacity=".8" x="-625.70374" y="-661.66553"><tspan x="-625.70374" y="-661.66553"/></text><text opacity=".8" x="-2449.3894" y="83.888054"><tspan x="-2449.3894" y="83.888054"/></text><text opacity=".8" x="-734.63397" y="176.76019"><tspan x="-734.63397" y="176.76019"/></text><text opacity=".8" x="374.39035" y="-2.421957"><tspan x="374.39035" y="-2.421957"/></text><text opacity=".8" x="398.35129" y="-43.163662"><tspan x="398.35129" y="-43.163662"/></text><text opacity=".8" x="-1093.1119" y="-50.373631"><tspan x="-1093.1119" y="-50.373631"/></text><text opacity=".8" x="367.43088" y="-323.6077"><tspan x="367.43088" y="-323.6077"/></text><text opacity=".8" x="-660.30371" y="-53.087875"><tspan x="-660.30371" y="-53.087875"/></text><text opacity=".8" x="-2483.9897" y="692.46564"><tspan x="-2483.9897" y="692.46564"/></text><text opacity=".8" x="-509.21066" y="-914.61841"><tspan x="-509.21066" y="-914.61841"/></text><text opacity=".8" x="298.39148" y="-1328.0885"><tspan x="298.39148" y="-1328.0885"/></text><text opacity=".8" x="322.35239" y="-1368.8303"><tspan x="322.35239" y="-1368.8303"/></text><text opacity=".8" x="-1169.1108" y="-1376.0402"><tspan x="-1169.1108" y="-1376.0402"/></text><text opacity=".8" x="291.43198" y="-1649.2743"><tspan x="291.43198" y="-1649.2743"/></text><text opacity=".8" x="1777.5553" y="-1022.5831"><tspan x="1777.5553" y="-1022.5831"/></text><text opacity=".8" x="1801.5161" y="-1063.3247"><tspan x="1801.5161" y="-1063.3247"/></text><text opacity=".8" x="310.05313" y="-1070.5345"><tspan x="310.05313" y="-1070.5345"/></text><text opacity=".8" x="1770.5958" y="-1343.7687"><tspan x="1770.5958" y="-1343.7687"/></text><text opacity=".8" x="-627.76318" y="-1118.6259"><tspan x="-627.76318" y="-1118.6259"/></text><text opacity=".8" x="-2451.449" y="-373.07242"><tspan x="-2451.449" y="-373.07242"/></text><text opacity=".8" x="-736.69342" y="-280.20026"><tspan x="-736.69342" y="-280.20026"/></text><text opacity=".8" x="103.32111" y="-39.286087"><tspan x="103.32111" y="-39.286087"/></text><text opacity=".8" x="127.28205" y="-80.027809"><tspan x="127.28205" y="-80.027809"/></text><text opacity=".8" x="-1142.5347" y="-274.0564"><tspan x="-1142.5347" y="-274.0564"/></text><text opacity=".8" x="-334.93259" y="-687.52661"><tspan x="-334.93259" y="-687.52661"/></text><text opacity=".8" x="-310.97165" y="-728.26831"><tspan x="-310.97165" y="-728.26831"/></text><text opacity=".8" x="-1802.4348" y="-735.47827"><tspan x="-1802.4348" y="-735.47827"/></text><text opacity=".8" x="-341.89203" y="-1008.7123"><tspan x="-341.89203" y="-1008.7123"/></text><text opacity=".8" x="1144.2313" y="-382.02097"><tspan x="1144.2313" y="-382.02097"/></text><text opacity=".8" x="1168.1921" y="-422.7627"><tspan x="1168.1921" y="-422.7627"/></text><text opacity=".8" x="-323.2709" y="-429.97263"><tspan x="-323.2709" y="-429.97263"/></text><text opacity=".8" x="1137.2719" y="-703.20673"><tspan x="1137.2719" y="-703.20673"/></text><text opacity=".8" x="-1261.0873" y="-478.0639"><tspan x="-1261.0873" y="-478.0639"/></text><text opacity=".8" x="-3084.7729" y="267.48962"><tspan x="-3084.7729" y="267.48962"/></text><text opacity=".8" transform="matrix(.90475 0 0 .90475 -769.02119 -688.6178)" x="-664.2738" y="1159.4154"><tspan x="-664.2738" y="1159.4154"/></text><text x="383.63309" y="-380.79327"><tspan x="383.63309" y="-380.79327"/><tspan x="383.63309" y="-364.96021"/></text><text opacity=".8" x="848.81702" y="-862.83783"><tspan x="848.81702" y="-862.83783"/></text><text opacity=".8" x="-974.86896" y="-117.28435"><tspan x="-974.86896" y="-117.28435"/></text><text opacity=".8" x="1575.8965" y="-1147.8336"><tspan x="1575.8965" y="-1147.8336"/></text><text opacity=".8" x="1599.8573" y="-1188.5753"><tspan x="1599.8573" y="-1188.5753"/></text><text opacity=".8" x="108.39423" y="-1195.7853"><tspan x="108.39423" y="-1195.7853"/></text><text opacity=".8" x="1568.937" y="-1469.0194"><tspan x="1568.937" y="-1469.0194"/></text><rect fill="#5f7c8a" height="28" rx="1.4285713" ry="1.4" transform="matrix(0 -1 -1 0 0 0)" width="20" x="-26" y="-30"/><rect height="3" opacity=".3" rx=".66666663" ry=".75" width="20" x="6" y="21"/><path d="m21.999999 11.5a1.4999999 1.4999999 0 0 1 -1.5 1.5 1.4999999 1.4999999 0 0 1 -1.499999-1.5 1.4999999 1.4999999 0 0 1  1.499999-1.5 1.4999999 1.4999999 0 0 1  1.5 1.5z" opacity=".2"/><path d="m21.999999 10.5a1.4999999 1.4999999 0 0 1 -1.5 1.5 1.4999999 1.4999999 0 0 1 -1.499999-1.5 1.4999999 1.4999999 0 0 1  1.499999-1.5 1.4999999 1.4999999 0 0 1  1.5 1.5z" fill="#fff"/><path d="m6.9999999 11.5a1.4999999 1.4999999 0 0 1 -1.5 1.5 1.4999999 1.4999999 0 0 1 -1.4999999-1.5 1.4999999 1.4999999 0 0 1  1.4999999-1.5 1.4999999 1.4999999 0 0 1  1.5 1.5z" opacity=".2"/><path d="m6.9999999 10.5a1.4999999 1.4999999 0 0 1 -1.5 1.5 1.4999999 1.4999999 0 0 1 -1.4999999-1.5 1.4999999 1.4999999 0 0 1  1.4999999-1.5 1.4999999 1.4999999 0 0 1  1.5 1.5z" fill="#fff"/><path d="m12 11.5a1.4999999 1.4999999 0 0 1 -1.5 1.5 1.4999999 1.4999999 0 0 1 -1.5000002-1.5 1.4999999 1.4999999 0 0 1  1.5000002-1.5 1.4999999 1.4999999 0 0 1  1.5 1.5z" opacity=".2"/><path d="m12 10.5a1.4999999 1.4999999 0 0 1 -1.5 1.5 1.4999999 1.4999999 0 0 1 -1.5000002-1.5 1.4999999 1.4999999 0 0 1  1.5000002-1.5 1.4999999 1.4999999 0 0 1  1.5 1.5z" fill="#fff"/><path d="m17 11.5a1.4999999 1.4999999 0 0 1 -1.5 1.5 1.4999999 1.4999999 0 0 1 -1.5-1.5 1.4999999 1.4999999 0 0 1  1.5-1.5 1.4999999 1.4999999 0 0 1  1.5 1.5z" opacity=".2"/><path d="m17 10.5a1.4999999 1.4999999 0 0 1 -1.5 1.5 1.4999999 1.4999999 0 0 1 -1.5-1.5 1.4999999 1.4999999 0 0 1  1.5-1.5 1.4999999 1.4999999 0 0 1  1.5 1.5z" fill="#fff"/><path d="m27 11.5a1.4999999 1.4999999 0 0 1 -1.5 1.5 1.4999999 1.4999999 0 0 1 -1.5-1.5 1.4999999 1.4999999 0 0 1  1.5-1.5 1.4999999 1.4999999 0 0 1  1.5 1.5z" opacity=".2"/><path d="m27 10.5a1.4999999 1.4999999 0 0 1 -1.5 1.5 1.4999999 1.4999999 0 0 1 -1.5-1.5 1.4999999 1.4999999 0 0 1  1.5-1.5 1.4999999 1.4999999 0 0 1  1.5 1.5z" fill="#fff"/><path d="m24.999999 17.5a1.4999999 1.4999999 0 0 1 -1.5 1.5 1.4999999 1.4999999 0 0 1 -1.499999-1.5 1.4999999 1.4999999 0 0 1  1.499999-1.5 1.4999999 1.4999999 0 0 1  1.5 1.5z" opacity=".2"/><path d="m24.999999 16.5a1.4999999 1.4999999 0 0 1 -1.5 1.5 1.4999999 1.4999999 0 0 1 -1.499999-1.5 1.4999999 1.4999999 0 0 1  1.499999-1.5 1.4999999 1.4999999 0 0 1  1.5 1.5z" fill="#fff"/><path d="m9.9999999 17.5a1.4999999 1.4999999 0 0 1 -1.5 1.5 1.4999999 1.4999999 0 0 1 -1.4999999-1.5 1.4999999 1.4999999 0 0 1  1.4999999-1.5 1.4999999 1.4999999 0 0 1  1.5 1.5z" opacity=".2"/><path d="m9.9999999 16.5a1.4999999 1.4999999 0 0 1 -1.5 1.5 1.4999999 1.4999999 0 0 1 -1.4999999-1.5 1.4999999 1.4999999 0 0 1  1.4999999-1.5 1.4999999 1.4999999 0 0 1  1.5 1.5z" fill="#fff"/><path d="m15 17.5a1.4999999 1.4999999 0 0 1 -1.5 1.5 1.4999999 1.4999999 0 0 1 -1.5-1.5 1.4999999 1.4999999 0 0 1  1.5-1.5 1.4999999 1.4999999 0 0 1  1.5 1.5z" opacity=".2"/><path d="m15 16.5a1.4999999 1.4999999 0 0 1 -1.5 1.5 1.4999999 1.4999999 0 0 1 -1.5-1.5 1.4999999 1.4999999 0 0 1  1.5-1.5 1.4999999 1.4999999 0 0 1  1.5 1.5z" fill="#fff"/><path d="m20 17.5a1.4999999 1.4999999 0 0 1 -1.5 1.5 1.4999999 1.4999999 0 0 1 -1.5-1.5 1.4999999 1.4999999 0 0 1  1.5-1.5 1.4999999 1.4999999 0 0 1  1.5 1.5z" opacity=".2"/><path d="m20 16.5a1.4999999 1.4999999 0 0 1 -1.5 1.5 1.4999999 1.4999999 0 0 1 -1.5-1.5 1.4999999 1.4999999 0 0 1  1.5-1.5 1.4999999 1.4999999 0 0 1  1.5 1.5z" fill="#fff"/><path d="m3.4003906 6c-.7756 0-1.4003906.6363059-1.4003906 1.4277344v1c0-.7914285.6247906-1.4277344 1.4003906-1.4277344h25.1992184c.7756 0 1.400391.6363059 1.400391 1.4277344v-1c0-.7914285-.624791-1.4277344-1.400391-1.4277344z" fill="#fff" opacity=".2"/><path d="m2 23.572266v1c0 .791428.6247906 1.427734 1.4003906 1.427734h25.1992184c.7756 0 1.400391-.636306 1.400391-1.427734v-1c0 .791428-.624791 1.427734-1.400391 1.427734h-25.1992184c-.7756 0-1.4003906-.636306-1.4003906-1.427734z" opacity=".3"/></svg>