/* XPM */
static char * links_32x32_xpm[] = {
"32 32 116 2",
"  	c None",
". 	c #989898",
"+ 	c #929292",
"@ 	c #909090",
"# 	c #8F8F8F",
"$ 	c #999999",
"% 	c #828282",
"& 	c #737373",
"* 	c #717171",
"= 	c #7A7A7A",
"- 	c #919191",
"; 	c #868686",
"> 	c #858585",
", 	c #7E7E7E",
"' 	c #747170",
") 	c #886E6B",
"! 	c #818181",
"~ 	c #7F706F",
"{ 	c #B45A54",
"] 	c #524D4C",
"^ 	c #616161",
"/ 	c #916E6C",
"( 	c #DC574D",
"_ 	c #614B4A",
": 	c #4D4D4D",
"< 	c #696969",
"[ 	c #AA6D68",
"} 	c #F0564B",
"| 	c #7C4A47",
"1 	c #505050",
"2 	c #7D7D7D",
"3 	c #787170",
"4 	c #CA6B64",
"5 	c #F4554A",
"6 	c #9B4741",
"7 	c #606060",
"8 	c #727272",
"9 	c #86706E",
"0 	c #E06960",
"a 	c #F4564A",
"b 	c #C2453C",
"c 	c #4E4D4D",
"d 	c #4E4E4E",
"e 	c #A16E6A",
"f 	c #F0685E",
"g 	c #DC4439",
"h 	c #574C4B",
"i 	c #636363",
"j 	c #757575",
"k 	c #737171",
"l 	c #B86C66",
"m 	c #F5685D",
"n 	c #ED4235",
"o 	c #6D4B48",
"p 	c #565656",
"q 	c #747474",
"r 	c #7D7676",
"s 	c #D96A61",
"t 	c #F34235",
"u 	c #8A4944",
"v 	c #525252",
"w 	c #D6D6D6",
"x 	c #D4928D",
"y 	c #AE473F",
"z 	c #4F4F4F",
"A 	c #6E6E6E",
"B 	c #BEBEBE",
"C 	c #F5F5F5",
"D 	c #F3F3F3",
"E 	c #C97771",
"F 	c #D0443A",
"G 	c #4B4B4B",
"H 	c #6B6B6B",
"I 	c #A1A1A1",
"J 	c #F2F2F2",
"K 	c #CFCFCF",
"L 	c #5C5453",
"M 	c #494949",
"N 	c #666666",
"O 	c #888888",
"P 	c #F0F0F0",
"Q 	c #B0B0B0",
"R 	c #515151",
"S 	c #454545",
"T 	c #5C5C5C",
"U 	c #777777",
"V 	c #E0E0E0",
"W 	c #ECECEC",
"X 	c #8C8C8C",
"Y 	c #3E3E3E",
"Z 	c #6C6C6C",
"` 	c #CACACA",
" .	c #DBDBDB",
"..	c #C1C1C1",
"+.	c #585858",
"@.	c #3F3F3F",
"#.	c #939393",
"$.	c #9F9F9F",
"%.	c #484848",
"&.	c #555555",
"*.	c #6F6F6F",
"=.	c #808080",
"-.	c #3B3B3B",
";.	c #575757",
">.	c #B4B4B4",
",.	c #4C4C4C",
"'.	c #3D3D3D",
").	c #5F5F5F",
"!.	c #3C3C3C",
"~.	c #393939",
"{.	c #383838",
"].	c #363636",
"^.	c #424242",
"/.	c #474747",
"(.	c #3A3A3A",
"_.	c #373737",
"                                                                ",
"                                                                ",
"                        . + @ # # @ + $                         ",
"                    @ % & * * * * * * & % @                     ",
"                @ = * * * * * * * * * * * * = -                 ",
"              ; * * * * * * * * * * * * * * * * >               ",
"            , * * * * * * * * * * * * * * * * * ' )             ",
"          ! * * * * * * * * * * * * * * * * * ~ { ] ^           ",
"        > * * * * * * * * * * * * * * * * * / ( _ : : <         ",
"        & * * * * * * * * * * * * * * * * [ } | : : : 1         ",
"      2 * * * * * * * * * * * * * * * 3 4 5 6 : : : : : 7       ",
"      8 * * * * * * * * * * * * * * 9 0 a b c : : : : : d       ",
"    = * * * * * * * * * * * * * * e f a g h : : : : : : : i     ",
"    j * * * * * * * * * * * * k l m 5 n o : : : : : : : : p     ",
"    q * * * * * * * * * * * r s m a t u : : : : : : : : : v     ",
"    * * * * * * * * * * * & w x a t y : : : : : : : : : : z     ",
"    A * * * * * * * * * * B C D E F ] : : : : : : : : : : G     ",
"    H * * * * * * * * * I C D J K L : : : : : : : : : : : M     ",
"    N * * * * * * * * O P D J Q R : : : : : : : : : : : : S     ",
"    T * * * * * * * U V D W X : : : : : : : : : : : : : : Y     ",
"      Z * * * * * * ` D  .H : : : : : : : : : : : : : : M       ",
"      T * * * * * Q D ..+.: : : : : : : : : : : : : : : @.      ",
"        < * * * #.P $.d : : : : : : : : : : : : : : : %.        ",
"        &.*.* =. .= : : : : : : : : : : : : : : : : G -.        ",
"          ;.8 >.^ : : : : : : : : : : : : : : : : ,.'.          ",
"            ).1 : : : : : : : : : : : : : : : : G !.            ",
"              ~.%.: : : : : : : : : : : : : : %.~.              ",
"                {.Y M : : : : : : : : : : M '.].                ",
"                    ].-.^./.M ,.,.M /.^.(.].                    ",
"                        ~._.].].].]._.~.                        ",
"                                                                ",
"                                                                "};
