<svg height="32" width="32" xmlns="http://www.w3.org/2000/svg"><text opacity=".8" x="877.22626" y="-5.1873989"><tspan x="877.22626" y="-5.1873989"/></text><text opacity=".8" x="901.18719" y="-45.929108"><tspan x="901.18719" y="-45.929108"/></text><text opacity=".8" x="-569.37115" y="-76.007248"><tspan x="-569.37115" y="-76.007248"/></text><text opacity=".8" x="-2393.0571" y="669.5462"><tspan x="-2393.0571" y="669.5462"/></text><text opacity=".8" x="-454.88007" y="-461.32822"><tspan x="-454.88007" y="-461.32822"/></text><text opacity=".8" x="352.72208" y="-874.79834"><tspan x="352.72208" y="-874.79834"/></text><text opacity=".8" x="376.68301" y="-915.54004"><tspan x="376.68301" y="-915.54004"/></text><text opacity=".8" x="-1114.7802" y="-922.74994"><tspan x="-1114.7802" y="-922.74994"/></text><text opacity=".8" x="345.7626" y="-1195.9841"><tspan x="345.7626" y="-1195.9841"/></text><text opacity=".8" x="1831.8861" y="-569.29272"><tspan x="1831.8861" y="-569.29272"/></text><text opacity=".8" x="1855.8469" y="-610.03448"><tspan x="1855.8469" y="-610.03448"/></text><text opacity=".8" x="364.38376" y="-617.24438"><tspan x="364.38376" y="-617.24438"/></text><text opacity=".8" x="1824.9266" y="-890.47839"><tspan x="1824.9266" y="-890.47839"/></text><text opacity=".8" x="-573.43256" y="-665.33569"><tspan x="-573.43256" y="-665.33569"/></text><text opacity=".8" x="-2397.1182" y="80.217857"><tspan x="-2397.1182" y="80.217857"/></text><text opacity=".8" x="-682.36279" y="173.09"><tspan x="-682.36279" y="173.09"/></text><text opacity=".8" x="426.66153" y="-6.0921478"><tspan x="426.66153" y="-6.0921478"/></text><text opacity=".8" x="450.62247" y="-46.833855"><tspan x="450.62247" y="-46.833855"/></text><text opacity=".8" x="-1040.8407" y="-54.043827"><tspan x="-1040.8407" y="-54.043827"/></text><text opacity=".8" x="419.70206" y="-327.27789"><tspan x="419.70206" y="-327.27789"/></text><text opacity=".8" x="-608.03253" y="-56.758072"><tspan x="-608.03253" y="-56.758072"/></text><text opacity=".8" x="-2431.7185" y="688.79541"><tspan x="-2431.7185" y="688.79541"/></text><text opacity=".8" x="-456.93948" y="-918.28857"><tspan x="-456.93948" y="-918.28857"/></text><text opacity=".8" x="350.66266" y="-1331.7588"><tspan x="350.66266" y="-1331.7588"/></text><text opacity=".8" x="374.62357" y="-1372.5005"><tspan x="374.62357" y="-1372.5005"/></text><text opacity=".8" x="-1116.8396" y="-1379.7104"><tspan x="-1116.8396" y="-1379.7104"/></text><text opacity=".8" x="343.70316" y="-1652.9446"><tspan x="343.70316" y="-1652.9446"/></text><text opacity=".8" x="1829.8265" y="-1026.2533"><tspan x="1829.8265" y="-1026.2533"/></text><text opacity=".8" x="1853.7874" y="-1066.9949"><tspan x="1853.7874" y="-1066.9949"/></text><text opacity=".8" x="362.32431" y="-1074.2048"><tspan x="362.32431" y="-1074.2048"/></text><text opacity=".8" x="1822.8671" y="-1347.439"><tspan x="1822.8671" y="-1347.439"/></text><text opacity=".8" x="-575.492" y="-1122.2961"><tspan x="-575.492" y="-1122.2961"/></text><text opacity=".8" x="-2399.1777" y="-376.74261"><tspan x="-2399.1777" y="-376.74261"/></text><text opacity=".8" x="-684.42224" y="-283.87045"><tspan x="-684.42224" y="-283.87045"/></text><text opacity=".8" x="155.5923" y="-42.956276"><tspan x="155.5923" y="-42.956276"/></text><text opacity=".8" x="179.55324" y="-83.697998"><tspan x="179.55324" y="-83.697998"/></text><text opacity=".8" x="-1090.2634" y="-277.72662"><tspan x="-1090.2634" y="-277.72662"/></text><text opacity=".8" x="-282.66141" y="-691.19678"><tspan x="-282.66141" y="-691.19678"/></text><text opacity=".8" x="-258.70047" y="-731.93848"><tspan x="-258.70047" y="-731.93848"/></text><text opacity=".8" x="-1750.1636" y="-739.14838"><tspan x="-1750.1636" y="-739.14838"/></text><text opacity=".8" x="-289.62085" y="-1012.3825"><tspan x="-289.62085" y="-1012.3825"/></text><text opacity=".8" x="1196.5026" y="-385.69113"><tspan x="1196.5026" y="-385.69113"/></text><text opacity=".8" x="1220.4634" y="-426.43286"><tspan x="1220.4634" y="-426.43286"/></text><text opacity=".8" x="-270.99973" y="-433.64282"><tspan x="-270.99973" y="-433.64282"/></text><text opacity=".8" x="1189.5431" y="-706.87689"><tspan x="1189.5431" y="-706.87689"/></text><text opacity=".8" x="-1208.816" y="-481.7341"><tspan x="-1208.816" y="-481.7341"/></text><text opacity=".8" x="-3032.5017" y="263.81946"><tspan x="-3032.5017" y="263.81946"/></text><text opacity=".8" transform="matrix(.90475 0 0 .90475 -716.75 -692.29)" x="-664.2738" y="1159.4154"><tspan x="-664.2738" y="1159.4154"/></text><text opacity=".8" x="877.22626" y="2.0505886"><tspan x="877.22626" y="2.0505886"/></text><text opacity=".8" x="901.18719" y="-38.691116"><tspan x="901.18719" y="-38.691116"/></text><text opacity=".8" x="-569.37115" y="-68.769257"><tspan x="-569.37115" y="-68.769257"/></text><text opacity=".8" x="-2393.0571" y="676.78418"><tspan x="-2393.0571" y="676.78418"/></text><text opacity=".8" x="-454.88007" y="-454.09021"><tspan x="-454.88007" y="-454.09021"/></text><text opacity=".8" x="352.72208" y="-867.5603"><tspan x="352.72208" y="-867.5603"/></text><text opacity=".8" x="376.68301" y="-908.30206"><tspan x="376.68301" y="-908.30206"/></text><text opacity=".8" x="-1114.7802" y="-915.51196"><tspan x="-1114.7802" y="-915.51196"/></text><text opacity=".8" x="345.7626" y="-1188.7461"><tspan x="345.7626" y="-1188.7461"/></text><text opacity=".8" x="1831.8861" y="-562.05475"><tspan x="1831.8861" y="-562.05475"/></text><text opacity=".8" x="1855.8469" y="-602.79651"><tspan x="1855.8469" y="-602.79651"/></text><text opacity=".8" x="364.38376" y="-610.00641"><tspan x="364.38376" y="-610.00641"/></text><text opacity=".8" x="1824.9266" y="-883.24036"><tspan x="1824.9266" y="-883.24036"/></text><text opacity=".8" x="-573.43256" y="-658.09772"><tspan x="-573.43256" y="-658.09772"/></text><text opacity=".8" x="-2397.1182" y="87.455849"><tspan x="-2397.1182" y="87.455849"/></text><text opacity=".8" x="-682.36279" y="180.32799"><tspan x="-682.36279" y="180.32799"/></text><text opacity=".8" x="426.66153" y="1.1458397"><tspan x="426.66153" y="1.1458397"/></text><text opacity=".8" x="450.62247" y="-39.595863"><tspan x="450.62247" y="-39.595863"/></text><text opacity=".8" x="-1040.8407" y="-46.805836"><tspan x="-1040.8407" y="-46.805836"/></text><text opacity=".8" x="419.70206" y="-320.03989"><tspan x="419.70206" y="-320.03989"/></text><text opacity=".8" x="-608.03253" y="-49.520081"><tspan x="-608.03253" y="-49.520081"/></text><text opacity=".8" x="-2431.7185" y="696.03345"><tspan x="-2431.7185" y="696.03345"/></text><text opacity=".8" x="-456.93948" y="-911.0506"><tspan x="-456.93948" y="-911.0506"/></text><text opacity=".8" x="350.66266" y="-1324.5208"><tspan x="350.66266" y="-1324.5208"/></text><text opacity=".8" x="374.62357" y="-1365.2626"><tspan x="374.62357" y="-1365.2626"/></text><text opacity=".8" x="-1116.8396" y="-1372.4724"><tspan x="-1116.8396" y="-1372.4724"/></text><text opacity=".8" x="343.70316" y="-1645.7065"><tspan x="343.70316" y="-1645.7065"/></text><text opacity=".8" x="1829.8265" y="-1019.0153"><tspan x="1829.8265" y="-1019.0153"/></text><text opacity=".8" x="1853.7874" y="-1059.757"><tspan x="1853.7874" y="-1059.757"/></text><text opacity=".8" x="362.32431" y="-1066.9668"><tspan x="362.32431" y="-1066.9668"/></text><text opacity=".8" x="1822.8671" y="-1340.2009"><tspan x="1822.8671" y="-1340.2009"/></text><text opacity=".8" x="-575.492" y="-1115.0581"><tspan x="-575.492" y="-1115.0581"/></text><text opacity=".8" x="-2399.1777" y="-369.50461"><tspan x="-2399.1777" y="-369.50461"/></text><text opacity=".8" x="-684.42224" y="-276.63245"><tspan x="-684.42224" y="-276.63245"/></text><text opacity=".8" x="155.5923" y="-35.718292"><tspan x="155.5923" y="-35.718292"/></text><text opacity=".8" x="179.55324" y="-76.460007"><tspan x="179.55324" y="-76.460007"/></text><text opacity=".8" x="-1090.2634" y="-270.48859"><tspan x="-1090.2634" y="-270.48859"/></text><text opacity=".8" x="-282.66141" y="-683.9588"><tspan x="-282.66141" y="-683.9588"/></text><text opacity=".8" x="-258.70047" y="-724.7005"><tspan x="-258.70047" y="-724.7005"/></text><text opacity=".8" x="-1750.1636" y="-731.91046"><tspan x="-1750.1636" y="-731.91046"/></text><text opacity=".8" x="-289.62085" y="-1005.1445"><tspan x="-289.62085" y="-1005.1445"/></text><text opacity=".8" x="1196.5026" y="-378.45316"><tspan x="1196.5026" y="-378.45316"/></text><text opacity=".8" x="1220.4634" y="-419.19489"><tspan x="1220.4634" y="-419.19489"/></text><text opacity=".8" x="-270.99973" y="-426.40482"><tspan x="-270.99973" y="-426.40482"/></text><text opacity=".8" x="1189.5431" y="-699.63892"><tspan x="1189.5431" y="-699.63892"/></text><text opacity=".8" x="-1208.816" y="-474.49609"><tspan x="-1208.816" y="-474.49609"/></text><text opacity=".8" x="-3032.5017" y="271.05743"><tspan x="-3032.5017" y="271.05743"/></text><text opacity=".8" transform="matrix(.90475 0 0 .90475 -716.75 -685.05)" x="-664.2738" y="1159.4154"><tspan x="-664.2738" y="1159.4154"/></text><text x="435.90427" y="-377.22546"><tspan x="435.90427" y="-377.22546"/><tspan x="435.90427" y="-361.3924"/></text><text opacity=".8" x="901.0882" y="-859.27002"><tspan x="901.0882" y="-859.27002"/></text><text opacity=".8" x="-922.59778" y="-113.71655"><tspan x="-922.59778" y="-113.71655"/></text><text opacity=".8" x="1628.1677" y="-1144.2659"><tspan x="1628.1677" y="-1144.2659"/></text><text opacity=".8" x="1652.1285" y="-1185.0076"><tspan x="1652.1285" y="-1185.0076"/></text><text opacity=".8" x="160.66542" y="-1192.2175"><tspan x="160.66542" y="-1192.2175"/></text><text opacity=".8" x="1621.2083" y="-1465.4517"><tspan x="1621.2083" y="-1465.4517"/></text><text opacity=".8" transform="rotate(30)" x="761.99878" y="17.564156"><tspan x="761.99878" y="17.564156"/></text><text opacity=".8" transform="rotate(30)" x="785.95972" y="-23.177551"><tspan x="785.95972" y="-23.177551"/></text><text opacity=".8" transform="rotate(30)" x="-684.59863" y="-53.255692"><tspan x="-684.59863" y="-53.255692"/></text><text opacity=".8" transform="rotate(30)" x="-2508.2847" y="692.29779"><tspan x="-2508.2847" y="692.29779"/></text><text opacity=".8" transform="rotate(30)" x="-570.10754" y="-438.57666"><tspan x="-570.10754" y="-438.57666"/></text><text opacity=".8" transform="rotate(30)" x="237.49458" y="-852.04675"><tspan x="237.49458" y="-852.04675"/></text><text opacity=".8" transform="rotate(30)" x="261.45554" y="-892.78845"><tspan x="261.45554" y="-892.78845"/></text><text opacity=".8" transform="rotate(30)" x="-1230.0077" y="-899.99835"><tspan x="-1230.0077" y="-899.99835"/></text><text opacity=".8" transform="rotate(30)" x="230.53511" y="-1173.2327"><tspan x="230.53511" y="-1173.2327"/></text><text opacity=".8" transform="rotate(30)" x="1716.6586" y="-546.54114"><tspan x="1716.6586" y="-546.54114"/></text><text opacity=".8" transform="rotate(30)" x="1740.6194" y="-587.2829"><tspan x="1740.6194" y="-587.2829"/></text><text opacity=".8" transform="rotate(30)" x="249.15628" y="-594.4928"><tspan x="249.15628" y="-594.4928"/></text><text opacity=".8" transform="rotate(30)" x="1709.6991" y="-867.72681"><tspan x="1709.6991" y="-867.72681"/></text><text opacity=".8" transform="rotate(30)" x="-688.66003" y="-642.58411"><tspan x="-688.66003" y="-642.58411"/></text><text opacity=".8" transform="rotate(30)" x="-2512.3457" y="102.96941"><tspan x="-2512.3457" y="102.96941"/></text><text opacity=".8" transform="rotate(30)" x="-797.59027" y="195.84155"><tspan x="-797.59027" y="195.84155"/></text><text opacity=".8" transform="rotate(30)" x="311.43405" y="16.659407"><tspan x="311.43405" y="16.659407"/></text><text opacity=".8" transform="rotate(30)" x="335.39499" y="-24.0823"><tspan x="335.39499" y="-24.0823"/></text><text opacity=".8" transform="rotate(30)" x="-1156.0682" y="-31.292273"><tspan x="-1156.0682" y="-31.292273"/></text><text opacity=".8" transform="rotate(30)" x="304.47458" y="-304.52634"><tspan x="304.47458" y="-304.52634"/></text><text opacity=".8" transform="rotate(30)" x="-723.26001" y="-34.006516"><tspan x="-723.26001" y="-34.006516"/></text><text opacity=".8" transform="rotate(30)" x="-2546.946" y="711.547"><tspan x="-2546.946" y="711.547"/></text><text opacity=".8" transform="rotate(30)" x="-572.16699" y="-895.53699"><tspan x="-572.16699" y="-895.53699"/></text><text opacity=".8" transform="rotate(30)" x="235.43517" y="-1309.0073"><tspan x="235.43517" y="-1309.0073"/></text><text opacity=".8" transform="rotate(30)" x="259.39609" y="-1349.749"><tspan x="259.39609" y="-1349.749"/></text><text opacity=".8" transform="rotate(30)" x="-1232.0671" y="-1356.959"><tspan x="-1232.0671" y="-1356.959"/></text><text opacity=".8" transform="rotate(30)" x="228.47566" y="-1630.1931"><tspan x="228.47566" y="-1630.1931"/></text><text opacity=".8" transform="rotate(30)" x="1714.599" y="-1003.5017"><tspan x="1714.599" y="-1003.5017"/></text><text opacity=".8" transform="rotate(30)" x="1738.5598" y="-1044.2434"><tspan x="1738.5598" y="-1044.2434"/></text><text opacity=".8" transform="rotate(30)" x="247.09682" y="-1051.4534"><tspan x="247.09682" y="-1051.4534"/></text><text opacity=".8" transform="rotate(30)" x="1707.6395" y="-1324.6875"><tspan x="1707.6395" y="-1324.6875"/></text><text opacity=".8" transform="rotate(30)" x="-690.71948" y="-1099.5447"><tspan x="-690.71948" y="-1099.5447"/></text><text opacity=".8" transform="rotate(30)" x="-2514.4053" y="-353.99106"><tspan x="-2514.4053" y="-353.99106"/></text><text opacity=".8" transform="rotate(30)" x="-799.64972" y="-261.1189"><tspan x="-799.64972" y="-261.1189"/></text><text opacity=".8" transform="rotate(30)" x="40.364811" y="-20.204721"><tspan x="40.364811" y="-20.204721"/></text><text opacity=".8" transform="rotate(30)" x="64.325752" y="-60.946442"><tspan x="64.325752" y="-60.946442"/></text><text opacity=".8" transform="rotate(30)" x="-1205.491" y="-254.97507"><tspan x="-1205.491" y="-254.97507"/></text><text opacity=".8" transform="rotate(30)" x="-397.88889" y="-668.44519"><tspan x="-397.88889" y="-668.44519"/></text><text opacity=".8" transform="rotate(30)" x="-373.92795" y="-709.18689"><tspan x="-373.92795" y="-709.18689"/></text><text opacity=".8" transform="rotate(30)" x="-1865.3911" y="-716.39679"><tspan x="-1865.3911" y="-716.39679"/></text><text opacity=".8" transform="rotate(30)" x="-404.84833" y="-989.63092"><tspan x="-404.84833" y="-989.63092"/></text><text opacity=".8" transform="rotate(30)" x="1081.275" y="-362.93958"><tspan x="1081.275" y="-362.93958"/></text><text opacity=".8" transform="rotate(30)" x="1105.2358" y="-403.6813"><tspan x="1105.2358" y="-403.6813"/></text><text opacity=".8" transform="rotate(30)" x="-386.2272" y="-410.89127"><tspan x="-386.2272" y="-410.89127"/></text><text opacity=".8" transform="rotate(30)" x="1074.3156" y="-684.12531"><tspan x="1074.3156" y="-684.12531"/></text><text opacity=".8" transform="rotate(30)" x="-1324.0436" y="-458.98254"><tspan x="-1324.0436" y="-458.98254"/></text><text opacity=".8" transform="rotate(30)" x="-3147.7292" y="286.57101"><tspan x="-3147.7292" y="286.57101"/></text><text opacity=".8" transform="rotate(30)" x="-1432.9792" y="379.44263"><tspan x="-1432.9792" y="379.44263"/></text><text opacity=".8" transform="rotate(30)" x="761.99878" y="24.802143"><tspan x="761.99878" y="24.802143"/></text><text opacity=".8" transform="rotate(30)" x="785.95972" y="-15.939561"><tspan x="785.95972" y="-15.939561"/></text><text opacity=".8" transform="rotate(30)" x="-684.59863" y="-46.017704"><tspan x="-684.59863" y="-46.017704"/></text><text opacity=".8" transform="rotate(30)" x="-2508.2847" y="699.53577"><tspan x="-2508.2847" y="699.53577"/></text><text opacity=".8" transform="rotate(30)" x="-570.10754" y="-431.33865"><tspan x="-570.10754" y="-431.33865"/></text><text opacity=".8" transform="rotate(30)" x="237.49458" y="-844.80872"><tspan x="237.49458" y="-844.80872"/></text><text opacity=".8" transform="rotate(30)" x="261.45554" y="-885.55048"><tspan x="261.45554" y="-885.55048"/></text><text opacity=".8" transform="rotate(30)" x="-1230.0077" y="-892.76038"><tspan x="-1230.0077" y="-892.76038"/></text><text opacity=".8" transform="rotate(30)" x="230.53511" y="-1165.9946"><tspan x="230.53511" y="-1165.9946"/></text><text opacity=".8" transform="rotate(30)" x="1716.6586" y="-539.30316"><tspan x="1716.6586" y="-539.30316"/></text><text opacity=".8" transform="rotate(30)" x="1740.6194" y="-580.04492"><tspan x="1740.6194" y="-580.04492"/></text><text opacity=".8" transform="rotate(30)" x="249.15628" y="-587.25482"><tspan x="249.15628" y="-587.25482"/></text><text opacity=".8" transform="rotate(30)" x="1709.6991" y="-860.48877"><tspan x="1709.6991" y="-860.48877"/></text><text opacity=".8" transform="rotate(30)" x="-688.66003" y="-635.34613"><tspan x="-688.66003" y="-635.34613"/></text><text opacity=".8" transform="rotate(30)" x="-2512.3457" y="110.20741"><tspan x="-2512.3457" y="110.20741"/></text><text opacity=".8" transform="rotate(30)" x="-797.59027" y="203.07954"><tspan x="-797.59027" y="203.07954"/></text><text opacity=".8" transform="rotate(30)" x="311.43405" y="23.897396"><tspan x="311.43405" y="23.897396"/></text><text opacity=".8" transform="rotate(30)" x="335.39499" y="-16.844309"><tspan x="335.39499" y="-16.844309"/></text><text opacity=".8" transform="rotate(30)" x="-1156.0682" y="-24.054281"><tspan x="-1156.0682" y="-24.054281"/></text><text opacity=".8" transform="rotate(30)" x="304.47458" y="-297.28833"><tspan x="304.47458" y="-297.28833"/></text><text opacity=".8" transform="rotate(30)" x="-723.26001" y="-26.768526"><tspan x="-723.26001" y="-26.768526"/></text><text opacity=".8" transform="rotate(30)" x="-2546.946" y="718.78503"><tspan x="-2546.946" y="718.78503"/></text><text opacity=".8" transform="rotate(30)" x="-572.16699" y="-888.29901"><tspan x="-572.16699" y="-888.29901"/></text><text opacity=".8" transform="rotate(30)" x="235.43517" y="-1301.7693"><tspan x="235.43517" y="-1301.7693"/></text><text opacity=".8" transform="rotate(30)" x="259.39609" y="-1342.5111"><tspan x="259.39609" y="-1342.5111"/></text><text opacity=".8" transform="rotate(30)" x="-1232.0671" y="-1349.7209"><tspan x="-1232.0671" y="-1349.7209"/></text><text opacity=".8" transform="rotate(30)" x="228.47566" y="-1622.9551"><tspan x="228.47566" y="-1622.9551"/></text><text opacity=".8" transform="rotate(30)" x="1714.599" y="-996.26373"><tspan x="1714.599" y="-996.26373"/></text><text opacity=".8" transform="rotate(30)" x="1738.5598" y="-1037.0054"><tspan x="1738.5598" y="-1037.0054"/></text><text opacity=".8" transform="rotate(30)" x="247.09682" y="-1044.2153"><tspan x="247.09682" y="-1044.2153"/></text><text opacity=".8" transform="rotate(30)" x="1707.6395" y="-1317.4495"><tspan x="1707.6395" y="-1317.4495"/></text><text opacity=".8" transform="rotate(30)" x="-690.71948" y="-1092.3066"><tspan x="-690.71948" y="-1092.3066"/></text><text opacity=".8" transform="rotate(30)" x="-2514.4053" y="-346.75305"><tspan x="-2514.4053" y="-346.75305"/></text><text opacity=".8" transform="rotate(30)" x="-799.64972" y="-253.88089"><tspan x="-799.64972" y="-253.88089"/></text><text opacity=".8" transform="rotate(30)" x="40.364811" y="-12.966735"><tspan x="40.364811" y="-12.966735"/></text><text opacity=".8" transform="rotate(30)" x="64.325752" y="-53.708454"><tspan x="64.325752" y="-53.708454"/></text><text opacity=".8" transform="rotate(30)" x="-1205.491" y="-247.73705"><tspan x="-1205.491" y="-247.73705"/></text><text opacity=".8" transform="rotate(30)" x="-397.88889" y="-661.20721"><tspan x="-397.88889" y="-661.20721"/></text><text opacity=".8" transform="rotate(30)" x="-373.92795" y="-701.94891"><tspan x="-373.92795" y="-701.94891"/></text><text opacity=".8" transform="rotate(30)" x="-1865.3911" y="-709.15887"><tspan x="-1865.3911" y="-709.15887"/></text><text opacity=".8" transform="rotate(30)" x="-404.84833" y="-982.39288"><tspan x="-404.84833" y="-982.39288"/></text><text opacity=".8" transform="rotate(30)" x="1081.275" y="-355.7016"><tspan x="1081.275" y="-355.7016"/></text><text opacity=".8" transform="rotate(30)" x="1105.2358" y="-396.44333"><tspan x="1105.2358" y="-396.44333"/></text><text opacity=".8" transform="rotate(30)" x="-386.2272" y="-403.65326"><tspan x="-386.2272" y="-403.65326"/></text><text opacity=".8" transform="rotate(30)" x="1074.3156" y="-676.88733"><tspan x="1074.3156" y="-676.88733"/></text><text opacity=".8" transform="rotate(30)" x="-1324.0436" y="-451.74454"><tspan x="-1324.0436" y="-451.74454"/></text><text opacity=".8" transform="rotate(30)" x="-3147.7292" y="293.80899"><tspan x="-3147.7292" y="293.80899"/></text><text opacity=".8" transform="rotate(30)" x="-1432.9792" y="386.68265"><tspan x="-1432.9792" y="386.68265"/></text><text transform="rotate(30)" x="320.67679" y="-354.47391"><tspan x="320.67679" y="-354.47391"/><tspan x="320.67679" y="-338.64084"/></text><text opacity=".8" transform="rotate(30)" x="785.86072" y="-836.51843"><tspan x="785.86072" y="-836.51843"/></text><text opacity=".8" transform="rotate(30)" x="-1037.8253" y="-90.964996"><tspan x="-1037.8253" y="-90.964996"/></text><text opacity=".8" transform="rotate(30)" x="1512.9402" y="-1121.5144"><tspan x="1512.9402" y="-1121.5144"/></text><text opacity=".8" transform="rotate(30)" x="1536.901" y="-1162.2561"><tspan x="1536.901" y="-1162.2561"/></text><text opacity=".8" transform="rotate(30)" x="45.437931" y="-1169.4661"><tspan x="45.437931" y="-1169.4661"/></text><text opacity=".8" transform="rotate(30)" x="1505.9807" y="-1442.7002"><tspan x="1505.9807" y="-1442.7002"/></text><rect fill="#4d4d4d" height="14" rx="4.1999998" width="28" x="2" y="9"/><path d="m9 11h14v10h-14z" fill="#0093cd"/><g fill="none" stroke="#fff" stroke-width=".5" transform="translate(.5 .2)"><path d="m9.85 18.8v-3.15h2.8v-2.8h-3.15"/><path d="m17 12.85h-1.75v5.6h-1.75"/><path d="m17.85 18.8v-3.15h2.8v-2.8h-3.15"/></g><g opacity=".2" transform="translate(0 1)"><path d="m5.4 13c-.3324 0-.6.2676-.6.6v1.2l-1.2-.000001c-.3324 0-.6.2676-.6.6v1.2c0 .3324.2676.6.6.6h1.2v1.2c0 .332.2676.6.6.6h1.2c.3324-.000002.6-.2676.6-.6v-1.2h1.2c.3324 0 .6-.2676.6-.6v-1.2c0-.332-.2676-.6-.6-.6h-1.2v-1.2c0-.332-.2676-.6-.6-.6h-1.2z" opacity="1"/><circle cx="14" cy="-26" opacity="1" r="1" transform="rotate(90)"/><circle cx="18" cy="-26" opacity="1" r="1" transform="rotate(90)"/><circle cx="-28" cy="-16" opacity="1" r="1" transform="scale(-1)"/><circle cx="-24" cy="-16" opacity="1" r="1" transform="scale(-1)"/></g><g fill="#697e83"><path d="m5.4 13c-.3324 0-.6.2676-.6.6v1.2l-1.2-.000001c-.3324 0-.6.2676-.6.6v1.2c0 .3324.2676.6.6.6h1.2v1.2c0 .332.2676.6.6.6h1.2c.3324-.000002.6-.2676.6-.6v-1.2h1.2c.3324 0 .6-.2676.6-.6v-1.2c0-.332-.2676-.6-.6-.6h-1.2v-1.2c0-.332-.2676-.6-.6-.6h-1.2z"/><circle cx="14" cy="-26" r="1" transform="rotate(90)"/><circle cx="18" cy="-26" r="1" transform="rotate(90)"/><circle cx="-28" cy="-16" r="1" transform="scale(-1)"/><circle cx="-24" cy="-16" r="1" transform="scale(-1)"/></g><path d="m2 17.801v1c0 2.327 1.8724 4.199 4.1992 4.199h19.602c2.327 0 4.199-1.872 4.199-4.199v-1c0 2.327-1.872 4.199-4.199 4.199h-19.602c-2.3266 0-4.199-1.872-4.199-4.199z" opacity=".3"/><path d="m6.1992 9c-2.3268 0-4.1992 1.872-4.1992 4.199v1c0-2.327 1.8724-4.199 4.1992-4.199h19.602c2.327 0 4.199 1.872 4.199 4.199v-1c0-2.327-1.872-4.199-4.199-4.199z" fill="#fff" opacity=".1"/></svg>