<?xml version="1.0" encoding="UTF-8" standalone="no"?>
<!-- Created with Inkscape (http://www.inkscape.org/) -->

<svg
   xmlns:dc="http://purl.org/dc/elements/1.1/"
   xmlns:cc="http://creativecommons.org/ns#"
   xmlns:rdf="http://www.w3.org/1999/02/22-rdf-syntax-ns#"
   xmlns:svg="http://www.w3.org/2000/svg"
   xmlns="http://www.w3.org/2000/svg"
   xmlns:sodipodi="http://sodipodi.sourceforge.net/DTD/sodipodi-0.dtd"
   xmlns:inkscape="http://www.inkscape.org/namespaces/inkscape"
   id="svg2817"
   height="32"
   width="32"
   version="1.0"
   inkscape:version="0.91 r13725"
   sodipodi:docname="tomahawk.svg">
  <sodipodi:namedview
     pagecolor="#ffffff"
     bordercolor="#666666"
     borderopacity="1"
     objecttolerance="10"
     gridtolerance="10"
     guidetolerance="10"
     inkscape:pageopacity="0"
     inkscape:pageshadow="2"
     inkscape:window-width="1600"
     inkscape:window-height="843"
     id="namedview12"
     showgrid="false"
     inkscape:zoom="7.375"
     inkscape:cx="16"
     inkscape:cy="16"
     inkscape:window-x="0"
     inkscape:window-y="0"
     inkscape:window-maximized="1"
     inkscape:current-layer="svg2817" />
  <metadata
     id="metadata57">
    <rdf:RDF>
      <cc:Work
         rdf:about="">
        <dc:format>image/svg+xml</dc:format>
        <dc:type
           rdf:resource="http://purl.org/dc/dcmitype/StillImage" />
        <dc:title />
      </cc:Work>
    </rdf:RDF>
  </metadata>
  <defs
     id="defs2819">
    <clipPath
       id="clipPath4186-8"
       clipPathUnits="userSpaceOnUse">
      <circle
         id="path4188-1"
         style="color:#000000"
         cx="286"
         cy="26"
         r="10"
         fill="url(#linearGradient4190)" />
    </clipPath>
  </defs>
  <path
     style="color:#000000;fill:#e74c3c;fill-opacity:1"
     d="M 16,2 A 14,14 0 0 0 2,16 14,14 0 0 0 16,30 14,14 0 0 0 30,16 14,14 0 0 0 16,2 Z"
     id="path4142" />
  <path
     id="path4144"
     d="m 16,7 a 10,10 0 0 1 10,10 10,10 0 0 1 -3,7.139 L 23,12.416 C 23,11.631 22.287,11 21.4,11 l -0.8,0 C 19.713,11 19,11.631 19,12.416 l 0,3.125 -3.646,-2.045 -4.288,-2.404 A 0.71125,0.6907 0 0 0 10.727,11 0.71125,0.6907 0 0 0 10,11.689 l 0,9.62 a 0.71125,0.6907 0 0 0 1.066,0.599 L 15.354,19.502 19,17.459 19,26.527 A 10,10 0 0 1 16,27 10,10 0 0 1 6,17 10,10 0 0 1 16,7 Z"
     style="color:#000000;opacity:0.2;fill:#000000;fill-opacity:1"
     inkscape:connector-curvature="0" />
  <path
     style="color:#000000;fill:#ffffff;fill-opacity:1"
     d="m 16,6 a 10,10 0 0 1 10,10 10,10 0 0 1 -3,7.139 L 23,11.416 C 23,10.631 22.287,10 21.4,10 l -0.8,0 C 19.713,10 19,10.631 19,11.416 l 0,3.125 -3.646,-2.045 -4.288,-2.404 A 0.71125,0.6907 0 0 0 10.727,10 0.71125,0.6907 0 0 0 10,10.689 l 0,9.62 a 0.71125,0.6907 0 0 0 1.066,0.599 L 15.354,18.502 19,16.459 19,25.527 A 10,10 0 0 1 16,26 10,10 0 0 1 6,16 10,10 0 0 1 16,6 Z"
     id="path4389" />
  <circle
     id="path4240-4"
     opacity="0"
     style="color:#000000"
     clip-path="url(#clipPath4186-8)"
     cx="286"
     transform="matrix(1.4,0,0,1.4,-384.4,-20.4)"
     cy="26"
     r="10"
     stroke-width=".45455" />
  <circle
     id="path4242-5"
     opacity="0"
     style="color:#000000"
     clip-path="url(#clipPath4186-8)"
     cx="286"
     transform="matrix(1.4,0,0,1.4,-384.4,-20.4)"
     cy="26"
     r="10"
     stroke-width=".90909" />
  <path
     style="color:#000000;fill:#ffffff;fill-opacity:1;opacity:0.2"
     d="M 16 2 A 14 14 0 0 0 2 16 A 14 14 0 0 0 2.0214844 16.414062 A 14 14 0 0 1 16 3 A 14 14 0 0 1 29.978516 16.585938 A 14 14 0 0 0 30 16 A 14 14 0 0 0 16 2 z "
     id="path4146" />
  <path
     style="color:#000000;fill:#000000;fill-opacity:1;opacity:0.3"
     d="M 2.0214844 15.414062 A 14 14 0 0 0 2 16 A 14 14 0 0 0 16 30 A 14 14 0 0 0 30 16 A 14 14 0 0 0 29.978516 15.585938 A 14 14 0 0 1 16 29 A 14 14 0 0 1 2.0214844 15.414062 z "
     id="path4151" />
</svg>
