<svg height="32" width="32" xmlns="http://www.w3.org/2000/svg"><path d="m75.53-10.561c-11.08 0-20 8.92-20 20 0 .16772-.004.33329 0 .5.26444-10.846 9.0877-19.5 20-19.5s19.736 8.6537 20 19.5c.004-.16671 0-.33228 0-.5 0-11.08-8.92-20-20-20z" fill="#fff" opacity=".1"/><path d="m16.422 5.3052l-.042 3.2021c1.044-1.9337 2.106-4.2243 4.01-5.5073-1.392 1.5126-2.065 3.8609-2.843 5.3735 1.31-1.7234 3.467-3.9803 5.453-4.6122-2.641 2.202-5.134 5.8644-6.731 8.2387l-1.269-.517c.22499-1.8956.29591-4.3013 1.4219-6.1779z" fill="#abcd03" fill-rule="evenodd"/><path d="m20.391 3c-1.896 1.2775-2.959 3.5539-3.998 5.4824l-.014 1.0254c.73-1.3528 1.478-2.8744 2.508-4.1094.41-.8651.878-1.719 1.504-2.3984zm2.609.7617c-1.558.4959-3.207 1.9872-4.484 3.4414-.34.7847-.651 1.5507-.969 2.1699.788-1.036 1.884-2.2601 3.062-3.2128.77-.8832 1.571-1.7147 2.391-2.3985zm-6.578 1.543c-1.126 1.8765-1.197 4.2821-1.422 6.1773l.102.041c.172-1.6974.374-3.619 1.306-5.191z" fill="#fff" fill-rule="evenodd" opacity=".2"/><path d="m13.759 9l-.26483.19834c1.3261 2.3213.63238 3.5515-.02053 3.988-1.3261.89288-3.2642 2.0042-4.2229 2.9764-1.8566 1.8452-2.3866 3.6107-2.2233 5.9321.18358 2.9763 2.4072 5.4564 5.3855 6.4286 1.306.417 2.509.477 3.856.477 2.162 0 4.386-.556 5.997-1.866 1.714-1.388 2.734-3.472 2.734-5.634 0-2.1825-.9383-4.2456-2.5908-5.7138-.87727-.77376-1.9787-1.4088-3.1212-2.024-.50996-.27792-2.0811-1.4684-1.5507-3.1747l-1.795-.23827.14713.07122-.39074-.15774-1.9393-1.2626zm2.5997 1.5521h.000688c.0091.30853.0079.60823.0055.8985-.0066-.36718-.0061-.69815-.0061-.8985z" fill="#7d529d" fill-rule="evenodd"/><path d="m13.76 9l-.266.1992c.187.3278.325.627.438.9118l1.767 1.151.391.158-.147-.07.422.056 1.301.172c-.044-.307-.038-.634.072-.99l-1.795-.238.147.07-.391-.158zm2.599 2.553c.009.308.009.608.006.898-.006-.367-.006-.698-.006-.898zm1.34.256c-.332 1.584 1.101 2.687 1.588 2.953 1.143.615 2.246 1.249 3.123 2.023 1.52 1.35 2.425 3.205 2.563 5.192.011-.159.027-.317.027-.477 0-2.183-.937-4.247-2.59-5.715-.877-.774-1.98-1.408-3.123-2.023-.377-.206-1.328-.912-1.588-1.953zm-3.508.234c-.117.564-.416.942-.716 1.143-1.327.892-3.264 2.004-4.223 2.976-1.7987 1.788-2.3482 3.507-2.2325 5.723.0899-1.751.7135-3.213 2.2325-4.723.959-.972 2.896-2.084 4.223-2.976.45-.301.903-.99.716-2.143z" fill="#fff" fill-rule="evenodd" opacity=".2"/><path d="m16.359 10.553c0 .20035-.000741.53126.0059.89844.0024-.29027.0032-.58991-.0059-.89844zm-9.3395 10.332c-.019979.38924-.02188.78875.00781 1.2109.18358 2.9763 2.4084 5.4555 5.3867 6.4277 1.306.416 2.509.476 3.856.476 2.162 0 4.384-.556 5.996-1.865 1.713-1.389 2.734-3.472 2.734-5.635 0-.17575-.01529-.34948-.02734-.52344-.1379 1.9889-1.12 3.8719-2.707 5.1582-1.612 1.309-3.834 1.865-5.996 1.865-1.347 0-2.55-.06-3.856-.477-2.9783-.972-5.2031-3.451-5.3867-6.427-.00509-.07239-.00409-.13961-.00781-.21094z" fill-rule="evenodd" opacity=".3"/></svg>