/* XPM */
static char * veracrypt_xpm[] = {
"32 32 93 2",
"  	c None",
". 	c #5E5E5E",
"+ 	c #5F5F5F",
"@ 	c #555555",
"# 	c #4E4E4E",
"$ 	c #4D4D4D",
"% 	c #0C8CB2",
"& 	c #0198C4",
"* 	c #42575E",
"= 	c #435D56",
"- 	c #06B788",
"; 	c #14A17C",
"> 	c #1E7089",
", 	c #2B6D80",
"' 	c #2E7A66",
") 	c #29705D",
"! 	c #345A65",
"~ 	c #1581A1",
"{ 	c #189776",
"] 	c #09B185",
"^ 	c #434D4A",
"/ 	c #484A4A",
"( 	c #0692BA",
"_ 	c #0395C0",
": 	c #4A5052",
"< 	c #4A504F",
"[ 	c #09B386",
"} 	c #1D866A",
"| 	c #4C4C4C",
"1 	c #177996",
"2 	c #36626F",
"3 	c #386A5D",
"4 	c #375B51",
"5 	c #2C6170",
"6 	c #1F768F",
"7 	c #22886D",
"8 	c #296A59",
"9 	c #3E3E3E",
"0 	c #4A4A4A",
"a 	c #444D50",
"b 	c #0296C1",
"c 	c #0A8DB4",
"d 	c #0FA77F",
"e 	c #06B687",
"f 	c #41524D",
"g 	c #1182A3",
"h 	c #41585F",
"i 	c #10A07A",
"j 	c #4B4B4B",
"k 	c #24697C",
"l 	c #2A6D81",
"m 	c #208067",
"n 	c #3C5158",
"o 	c #1482A2",
"p 	c #346457",
"q 	c #0A8AB0",
"r 	c #0396C1",
"s 	c #0BB286",
"t 	c #44524E",
"u 	c #049AC4",
"v 	c #19B798",
"w 	c #357060",
"x 	c #14A0C3",
"y 	c #2DB9A8",
"z 	c #1C9273",
"A 	c #26A8C3",
"B 	c #41BAB8",
"C 	c #4A5250",
"D 	c #37B0C3",
"E 	c #4DBAC2",
"F 	c #0EB78F",
"G 	c #0298C4",
"H 	c #48B8C2",
"I 	c #21B89E",
"J 	c #3F6359",
"K 	c #0F9FC4",
"L 	c #34B9AE",
"M 	c #228B6F",
"N 	c #21A6C4",
"O 	c #47BABE",
"P 	c #07B789",
"Q 	c #495350",
"R 	c #32AEC3",
"S 	c #14B491",
"T 	c #307764",
"U 	c #44B6C2",
"V 	c #1FAA98",
"W 	c #13A07B",
"X 	c #414141",
"Y 	c #424242",
"Z 	c #434343",
"` 	c #393939",
" .	c #363636",
"                                                                ",
"                                                                ",
"    . + + + + + + + + + + + + + + + + + + + + + + + + + + +     ",
"    @ # $ $ $ $ $ $ $ $ $ $ $ $ $ $ $ $ $ $ $ $ $ $ $ $ # @     ",
"    # $ $ $ $ $ $ $ $ $ $ $ $ $ $ $ $ $ $ $ $ $ $ $ $ $ $ #     ",
"    $ $ $ $ $ $ $ $ $ $ $ $ $ $ $ $ $ $ $ $ $ $ $ $ $ $ $ $     ",
"    $ $ $ $ $ $ $ $ $ $ $ $ $ $ $ $ $ $ $ $ $ $ $ $ $ $ $ $     ",
"    $ $ $ % & & & & * $ $ $ $ = - - - - - - - - - ; $ $ $ $     ",
"    $ $ $ > & & & & , $ $ $ $ ' - - - - - - - - - ) $ $ $ $     ",
"    $ $ $ ! & & & & ~ $ $ $ $ { - - - - - - - - ] ^ $ $ $ $     ",
"    $ $ $ / ( & & & _ : $ $ < [ - - - - - - - - } | $ $ $ $     ",
"    $ $ $ $ 1 & & & & 2 $ $ 3 - - - - - - - - - 4 $ $ $ $ $     ",
"    $ $ $ $ 5 & & & & 6 $ $ 7 - - - - 8 9 9 9 9 0 $ $ $ $ $     ",
"    $ $ $ $ a b & & & c $ $ d - - - e f $ $ $ $ $ $ $ $ $ $     ",
"    $ $ $ $ | g & & & & h = - - - - i j $ $ $ $ $ $ $ $ $ $     ",
"    $ $ $ $ $ k & & & & l ' - - - - m $ $ $ $ $ $ $ $ $ $ $     ",
"    $ $ $ $ $ n & & & & o { - - - - p $ $ $ $ $ $ $ $ $ $ $     ",
"    $ $ $ $ $ j q & & & r s - - - - t $ $ $ $ $ $ $ $ $ $ $     ",
"    $ $ $ $ $ $ > & & & u v - - - - w $ $ $ $ $ $ $ $ $ $ $     ",
"    $ $ $ $ $ $ ! & & & x y - - - - z $ $ $ $ $ $ $ $ $ $ $     ",
"    $ $ $ $ $ $ / ( & & A B - - - - [ C $ $ $ $ $ $ $ $ $ $     ",
"    $ $ $ $ $ $ $ 1 & & D E F - - - - w $ $ $ $ $ $ $ $ $ $     ",
"    $ $ $ $ $ $ $ 5 & G H E I - - - - - - - - - J $ $ $ $ $     ",
"    $ $ $ $ $ $ $ a b K E E L - - - - - - - - - M $ $ $ $ $     ",
"    $ $ $ $ $ $ $ | g N E E O P - - - - - - - - ] Q $ $ $ $     ",
"    $ $ $ $ $ $ $ $ k R E E E S - - - - - - - - - T $ $ $ $     ",
"    $ $ $ $ $ $ $ $ n U E E E V - - - - - - - - - W $ $ $ $     ",
"    | $ $ $ $ $ $ $ j 9 9 9 9 9 9 9 9 9 9 9 9 9 9 X $ $ $ |     ",
"    Y | $ $ $ $ $ $ $ $ $ $ $ $ $ $ $ $ $ $ $ $ $ $ $ $ | Z     ",
"    `  . . . . . . . . . . . . . . . . . . . . . . . . . .`     ",
"                                                                ",
"                                                                "};
