<svg height="32" width="32" xmlns="http://www.w3.org/2000/svg"><text opacity=".8" x="877.22626" y="-5.1873989"><tspan x="877.22626" y="-5.1873989"/></text><text opacity=".8" x="901.18719" y="-45.929108"><tspan x="901.18719" y="-45.929108"/></text><text opacity=".8" x="-569.37115" y="-76.007248"><tspan x="-569.37115" y="-76.007248"/></text><text opacity=".8" x="-2393.0571" y="669.5462"><tspan x="-2393.0571" y="669.5462"/></text><text opacity=".8" x="-454.88007" y="-461.32822"><tspan x="-454.88007" y="-461.32822"/></text><text opacity=".8" x="352.72208" y="-874.79834"><tspan x="352.72208" y="-874.79834"/></text><text opacity=".8" x="376.68301" y="-915.54004"><tspan x="376.68301" y="-915.54004"/></text><text opacity=".8" x="-1114.7802" y="-922.74994"><tspan x="-1114.7802" y="-922.74994"/></text><text opacity=".8" x="345.7626" y="-1195.9841"><tspan x="345.7626" y="-1195.9841"/></text><text opacity=".8" x="1831.8861" y="-569.29272"><tspan x="1831.8861" y="-569.29272"/></text><text opacity=".8" x="1855.8469" y="-610.03448"><tspan x="1855.8469" y="-610.03448"/></text><text opacity=".8" x="364.38376" y="-617.24438"><tspan x="364.38376" y="-617.24438"/></text><text opacity=".8" x="1824.9266" y="-890.47839"><tspan x="1824.9266" y="-890.47839"/></text><text opacity=".8" x="-573.43256" y="-665.33569"><tspan x="-573.43256" y="-665.33569"/></text><text opacity=".8" x="-2397.1182" y="80.217857"><tspan x="-2397.1182" y="80.217857"/></text><text opacity=".8" x="-682.36279" y="173.09"><tspan x="-682.36279" y="173.09"/></text><text opacity=".8" x="426.66153" y="-6.0921478"><tspan x="426.66153" y="-6.0921478"/></text><text opacity=".8" x="450.62247" y="-46.833855"><tspan x="450.62247" y="-46.833855"/></text><text opacity=".8" x="-1040.8407" y="-54.043827"><tspan x="-1040.8407" y="-54.043827"/></text><text opacity=".8" x="419.70206" y="-327.27789"><tspan x="419.70206" y="-327.27789"/></text><text opacity=".8" x="-608.03253" y="-56.758072"><tspan x="-608.03253" y="-56.758072"/></text><text opacity=".8" x="-2431.7185" y="688.79541"><tspan x="-2431.7185" y="688.79541"/></text><text opacity=".8" x="-456.93948" y="-918.28857"><tspan x="-456.93948" y="-918.28857"/></text><text opacity=".8" x="350.66266" y="-1331.7588"><tspan x="350.66266" y="-1331.7588"/></text><text opacity=".8" x="374.62357" y="-1372.5005"><tspan x="374.62357" y="-1372.5005"/></text><text opacity=".8" x="-1116.8396" y="-1379.7104"><tspan x="-1116.8396" y="-1379.7104"/></text><text opacity=".8" x="343.70316" y="-1652.9446"><tspan x="343.70316" y="-1652.9446"/></text><text opacity=".8" x="1829.8265" y="-1026.2533"><tspan x="1829.8265" y="-1026.2533"/></text><text opacity=".8" x="1853.7874" y="-1066.9949"><tspan x="1853.7874" y="-1066.9949"/></text><text opacity=".8" x="362.32431" y="-1074.2048"><tspan x="362.32431" y="-1074.2048"/></text><text opacity=".8" x="1822.8671" y="-1347.439"><tspan x="1822.8671" y="-1347.439"/></text><text opacity=".8" x="-575.492" y="-1122.2961"><tspan x="-575.492" y="-1122.2961"/></text><text opacity=".8" x="-2399.1777" y="-376.74261"><tspan x="-2399.1777" y="-376.74261"/></text><text opacity=".8" x="-684.42224" y="-283.87045"><tspan x="-684.42224" y="-283.87045"/></text><text opacity=".8" x="155.5923" y="-42.956276"><tspan x="155.5923" y="-42.956276"/></text><text opacity=".8" x="179.55324" y="-83.697998"><tspan x="179.55324" y="-83.697998"/></text><text opacity=".8" x="-1090.2634" y="-277.72662"><tspan x="-1090.2634" y="-277.72662"/></text><text opacity=".8" x="-282.66141" y="-691.19678"><tspan x="-282.66141" y="-691.19678"/></text><text opacity=".8" x="-258.70047" y="-731.93848"><tspan x="-258.70047" y="-731.93848"/></text><text opacity=".8" x="-1750.1636" y="-739.14838"><tspan x="-1750.1636" y="-739.14838"/></text><text opacity=".8" x="-289.62085" y="-1012.3825"><tspan x="-289.62085" y="-1012.3825"/></text><text opacity=".8" x="1196.5026" y="-385.69113"><tspan x="1196.5026" y="-385.69113"/></text><text opacity=".8" x="1220.4634" y="-426.43286"><tspan x="1220.4634" y="-426.43286"/></text><text opacity=".8" x="-270.99973" y="-433.64282"><tspan x="-270.99973" y="-433.64282"/></text><text opacity=".8" x="1189.5431" y="-706.87689"><tspan x="1189.5431" y="-706.87689"/></text><text opacity=".8" x="-1208.816" y="-481.7341"><tspan x="-1208.816" y="-481.7341"/></text><text opacity=".8" x="-3032.5017" y="263.81946"><tspan x="-3032.5017" y="263.81946"/></text><text opacity=".8" transform="matrix(.90475 0 0 .90475 -716.75 -692.29)" x="-664.2738" y="1159.4154"><tspan x="-664.2738" y="1159.4154"/></text><text opacity=".8" x="877.22626" y="2.0505886"><tspan x="877.22626" y="2.0505886"/></text><text opacity=".8" x="901.18719" y="-38.691116"><tspan x="901.18719" y="-38.691116"/></text><text opacity=".8" x="-569.37115" y="-68.769257"><tspan x="-569.37115" y="-68.769257"/></text><text opacity=".8" x="-2393.0571" y="676.78418"><tspan x="-2393.0571" y="676.78418"/></text><text opacity=".8" x="-454.88007" y="-454.09021"><tspan x="-454.88007" y="-454.09021"/></text><text opacity=".8" x="352.72208" y="-867.5603"><tspan x="352.72208" y="-867.5603"/></text><text opacity=".8" x="376.68301" y="-908.30206"><tspan x="376.68301" y="-908.30206"/></text><text opacity=".8" x="-1114.7802" y="-915.51196"><tspan x="-1114.7802" y="-915.51196"/></text><text opacity=".8" x="345.7626" y="-1188.7461"><tspan x="345.7626" y="-1188.7461"/></text><text opacity=".8" x="1831.8861" y="-562.05475"><tspan x="1831.8861" y="-562.05475"/></text><text opacity=".8" x="1855.8469" y="-602.79651"><tspan x="1855.8469" y="-602.79651"/></text><text opacity=".8" x="364.38376" y="-610.00641"><tspan x="364.38376" y="-610.00641"/></text><text opacity=".8" x="1824.9266" y="-883.24036"><tspan x="1824.9266" y="-883.24036"/></text><text opacity=".8" x="-573.43256" y="-658.09772"><tspan x="-573.43256" y="-658.09772"/></text><text opacity=".8" x="-2397.1182" y="87.455849"><tspan x="-2397.1182" y="87.455849"/></text><text opacity=".8" x="-682.36279" y="180.32799"><tspan x="-682.36279" y="180.32799"/></text><text opacity=".8" x="426.66153" y="1.1458397"><tspan x="426.66153" y="1.1458397"/></text><text opacity=".8" x="450.62247" y="-39.595863"><tspan x="450.62247" y="-39.595863"/></text><text opacity=".8" x="-1040.8407" y="-46.805836"><tspan x="-1040.8407" y="-46.805836"/></text><text opacity=".8" x="419.70206" y="-320.03989"><tspan x="419.70206" y="-320.03989"/></text><text opacity=".8" x="-608.03253" y="-49.520081"><tspan x="-608.03253" y="-49.520081"/></text><text opacity=".8" x="-2431.7185" y="696.03345"><tspan x="-2431.7185" y="696.03345"/></text><text opacity=".8" x="-456.93948" y="-911.0506"><tspan x="-456.93948" y="-911.0506"/></text><text opacity=".8" x="350.66266" y="-1324.5208"><tspan x="350.66266" y="-1324.5208"/></text><text opacity=".8" x="374.62357" y="-1365.2626"><tspan x="374.62357" y="-1365.2626"/></text><text opacity=".8" x="-1116.8396" y="-1372.4724"><tspan x="-1116.8396" y="-1372.4724"/></text><text opacity=".8" x="343.70316" y="-1645.7065"><tspan x="343.70316" y="-1645.7065"/></text><text opacity=".8" x="1829.8265" y="-1019.0153"><tspan x="1829.8265" y="-1019.0153"/></text><text opacity=".8" x="1853.7874" y="-1059.757"><tspan x="1853.7874" y="-1059.757"/></text><text opacity=".8" x="362.32431" y="-1066.9668"><tspan x="362.32431" y="-1066.9668"/></text><text opacity=".8" x="1822.8671" y="-1340.2009"><tspan x="1822.8671" y="-1340.2009"/></text><text opacity=".8" x="-575.492" y="-1115.0581"><tspan x="-575.492" y="-1115.0581"/></text><text opacity=".8" x="-2399.1777" y="-369.50461"><tspan x="-2399.1777" y="-369.50461"/></text><text opacity=".8" x="-684.42224" y="-276.63245"><tspan x="-684.42224" y="-276.63245"/></text><text opacity=".8" x="155.5923" y="-35.718292"><tspan x="155.5923" y="-35.718292"/></text><text opacity=".8" x="179.55324" y="-76.460007"><tspan x="179.55324" y="-76.460007"/></text><text opacity=".8" x="-1090.2634" y="-270.48859"><tspan x="-1090.2634" y="-270.48859"/></text><text opacity=".8" x="-282.66141" y="-683.9588"><tspan x="-282.66141" y="-683.9588"/></text><text opacity=".8" x="-258.70047" y="-724.7005"><tspan x="-258.70047" y="-724.7005"/></text><text opacity=".8" x="-1750.1636" y="-731.91046"><tspan x="-1750.1636" y="-731.91046"/></text><text opacity=".8" x="-289.62085" y="-1005.1445"><tspan x="-289.62085" y="-1005.1445"/></text><text opacity=".8" x="1196.5026" y="-378.45316"><tspan x="1196.5026" y="-378.45316"/></text><text opacity=".8" x="1220.4634" y="-419.19489"><tspan x="1220.4634" y="-419.19489"/></text><text opacity=".8" x="-270.99973" y="-426.40482"><tspan x="-270.99973" y="-426.40482"/></text><text opacity=".8" x="1189.5431" y="-699.63892"><tspan x="1189.5431" y="-699.63892"/></text><text opacity=".8" x="-1208.816" y="-474.49609"><tspan x="-1208.816" y="-474.49609"/></text><text opacity=".8" x="-3032.5017" y="271.05743"><tspan x="-3032.5017" y="271.05743"/></text><text opacity=".8" transform="matrix(.90475 0 0 .90475 -716.75 -685.05)" x="-664.2738" y="1159.4154"><tspan x="-664.2738" y="1159.4154"/></text><text x="435.90427" y="-377.22546"><tspan x="435.90427" y="-377.22546"/><tspan x="435.90427" y="-361.3924"/></text><text opacity=".8" x="901.0882" y="-859.27002"><tspan x="901.0882" y="-859.27002"/></text><text opacity=".8" x="-922.59778" y="-113.71655"><tspan x="-922.59778" y="-113.71655"/></text><text opacity=".8" x="1628.1677" y="-1144.2659"><tspan x="1628.1677" y="-1144.2659"/></text><text opacity=".8" x="1652.1285" y="-1185.0076"><tspan x="1652.1285" y="-1185.0076"/></text><text opacity=".8" x="160.66542" y="-1192.2175"><tspan x="160.66542" y="-1192.2175"/></text><text opacity=".8" x="1621.2083" y="-1465.4517"><tspan x="1621.2083" y="-1465.4517"/></text><rect fill="#ccc" height="28" rx="1.5" transform="matrix(0 -1 -1 0 0 0)" width="28" x="-30" y="-30"/><path d="m3.5 2c-.831 0-1.5.669-1.5 1.5v1c0-.831.669-1.5 1.5-1.5h25c .831 0 1.5.669 1.5 1.5v-1c0-.831-.669-1.5-1.5-1.5z" fill="#fff" opacity=".1"/><path d="m2 27.5v1c0 .831.669 1.5 1.5 1.5h25c .831 0 1.5-.669 1.5-1.5v-1c0 .831-.669 1.5-1.5 1.5h-25c-.831 0-1.5-.669-1.5-1.5z" opacity=".3"/><path d="m19.114 10c-.71079-.000622-1.5527.0022-2.0703.0059l-.0511.03495v.37275c0 .04548.019.07726.0567.10484.0385.02909.077.0466.11911.0466l.16449.01749c.42328.01789.62258.13228.68066.20385.10092.12674.14825.26745-.0964.8154l-1.4634 2.9937-1.3216-2.7782c-.43417-.8879-.53999-1.1651.11344-1.2173l.26092-.03495c.12561 0 .18718-.04524.18718-.13396v-.39022l-.0964-.03495c0 0-2.462.0043-3.5678.0059l-.051.03495v.39023c0 .08723.0896.11084.26091.13396.61205.08275.59699.14803 1.2025 1.3804.0908.18489.35735.73969.35735.73969l1.3783 2.784c0 0 .29789.67616.40272.91441l-2.0023 4.1003-.11344-.02912c0 0-3.1099-6.7347-4.0102-8.9869-.0937-.23334-.13613-.40593-.13613-.51254 0-.22887.19902-.34979.60124-.36693l.47079-.02331c.12415 0 .18718-.0493.18718-.15144v-.36693l-.0454-.04076c0 0-3.7228-.0045-4.4923 0l-.0397.042v.384c0 .07008.0817.11457.25525.13396.47264.0261.78634.104.9359.23297.14884.13047.30707.459.51617.97266 1.1304 2.7882 3.5326 7.7665 4.7022 10.6.33688.77384.75653.89442 1.2706-.02331.55419-1.0555 1.5235-3.0935 2.3086-4.7585.0113-.16152.0113.14963.15315.05243.73305 1.6579 1.6179 3.6536 2.11 4.6944.38117.80739.81284.88511 1.2536.02331 1.1515-2.6287 4.5207-10.536 4.5207-10.536.14593-.38841.34628-.68582.60692-.90276.25992-.21545.66087-.3365 1.2025-.3611.11036 0 .16449-.05079.16449-.15143v-.37275l-.0397-.04078h-4.135l-.0511.04078v.37275c0 .04399.019.07725.0567.10484.0385.02909.077.0466.11911.0466l.34601.01749c.424.01789.53926.10432.70334.25044.16336.14984.18378.40364.0567.76298l-3.6585 8.917-.1418-.04078-2.3256-4.8749c.002-.0044.0567-.11649.0567-.11649l1.9002-3.6518c.22145-.38543.43635-.73083.54453-.89112.19821-.29298.3092-.34666.85082-.37275.11036 0 .1645-.0493.1645-.15144v-.36693l-.0397-.04077c0 0-.58246-.0049-1.2932-.0059z" fill="#4d4d4d"/></svg>