/* XPM */
static char * wordview_xpm[] = {
"32 32 109 2",
"  	c None",
". 	c #5DB0F5",
"+ 	c #60B3F5",
"@ 	c #5FB3F5",
"# 	c #5CB1F5",
"$ 	c #47A7F3",
"% 	c #37A0F2",
"& 	c #9DD0F9",
"* 	c #F6FBFE",
"= 	c #A0D2F9",
"- 	c #F2F9FE",
"; 	c #FDFEFF",
"> 	c #FAFDFF",
", 	c #44A6F3",
"' 	c #FAFCFF",
") 	c #CFE8FC",
"! 	c #7CC1F6",
"~ 	c #7AC0F6",
"{ 	c #D2E9FC",
"] 	c #97CDF8",
"^ 	c #B4DCFA",
"/ 	c #B2DAFA",
"( 	c #99CFF8",
"_ 	c #5DB2F4",
": 	c #ECF6FE",
"< 	c #39A1F2",
"[ 	c #9FD1F9",
"} 	c #A1D2F9",
"| 	c #38A0F2",
"1 	c #E9F5FE",
"2 	c #59B0F4",
"3 	c #FBFDFF",
"4 	c #FCFEFF",
"5 	c #5CB2F4",
"6 	c #BBDFFB",
"7 	c #BEE0FB",
"8 	c #96CDF8",
"9 	c #B5DCFA",
"0 	c #58B0F4",
"a 	c #4F8ECF",
"b 	c #8A6784",
"c 	c #CA5753",
"d 	c #C33F39",
"e 	c #AC4951",
"f 	c #846484",
"g 	c #4F8DD0",
"h 	c #80C3F7",
"i 	c #FBF8F9",
"j 	c #D98985",
"k 	c #BF3732",
"l 	c #C03630",
"m 	c #866282",
"n 	c #BBDAF5",
"o 	c #CF6965",
"p 	c #C03631",
"q 	c #966880",
"r 	c #C13631",
"s 	c #E8F4FE",
"t 	c #BE3732",
"u 	c #C3403B",
"v 	c #CC5C57",
"w 	c #CD615C",
"x 	c #856483",
"y 	c #C64A44",
"z 	c #E9B8B6",
"A 	c #FDF9F9",
"B 	c #FFFFFF",
"C 	c #FEFCFC",
"D 	c #E9B9B7",
"E 	c #C74C47",
"F 	c #A94750",
"G 	c #C9524C",
"H 	c #F9ECEC",
"I 	c #EECAC9",
"J 	c #C74B46",
"K 	c #C74E48",
"L 	c #EFCDCC",
"M 	c #F8E9E8",
"N 	c #C9524D",
"O 	c #BA3B39",
"P 	c #F1D1D0",
"Q 	c #D67D79",
"R 	c #F0CECD",
"S 	c #B93B3A",
"T 	c #E7B1AF",
"U 	c #D2706B",
"V 	c #CD5E59",
"W 	c #D3726E",
"X 	c #E7B3B1",
"Y 	c #C33F3A",
"Z 	c #F8EAE9",
"` 	c #D7807C",
" .	c #D88380",
"..	c #EFCBC9",
"+.	c #379FF1",
"@.	c #C13933",
"#.	c #D98683",
"$.	c #FBF2F1",
"%.	c #F1D4D2",
"&.	c #DA8A86",
"*.	c #C13832",
"=.	c #318FD8",
"-.	c #2875B1",
";.	c #2770A9",
">.	c #2670A9",
",.	c #7F4E63",
"'.	c #C0372F",
").	c #C1362F",
"!.	c #C03730",
"                                                                ",
"                                                                ",
"                                                                ",
"      . + @ @ @ @ @ @ @ @ @ @ @ @ @ @ @ @ @ @ @ @ @ @ + #       ",
"      $ % % % % % % % % % % % % % % % % % % % % % % % % $       ",
"      % % % % % % % % % % % % % % % % % % % % % % % % % %       ",
"      % % % % % % % % % % % % % % % % % % % % % % % % % %       ",
"      % % % % % % % % % % % % % % % % % % % % % % % % % %       ",
"      % % % & * = % % % % % % % % % % % % % % % & * = % %       ",
"      % % % - ; > $ % % % % % % % % % % % % % , ' ; * % %       ",
"      % % % ) ; ; ! % % % % % % % % % % % % % ~ ; ; { % %       ",
"      % % % ] ; ; ^ % % % % % % % % % % % % % / ; ; ( % %       ",
"      % % % _ ; ; : < % % % % [ * } % % % % | 1 ; ; + % %       ",
"      % % % | 1 ; ; + % % % 2 3 ; 4 5 % % % _ ; ; : < % %       ",
"      % % % % / ; ; ( % % % 6 ; ; ; 7 % % % 8 ; ; 9 % % %       ",
"      % % % % ~ ; ; { % % 0 3 ; ; ; 4 @ % % ) ; ; ! % % %       ",
"      % % % % , ' ; > $ % 6 ; ; > ; ; 7 a b c d d e f g %       ",
"      % % % % % ) ; ; ! 0 3 ; 4 h 3 i j k l l l l l l k m       ",
"      % % % % % ] ; ; ^ 6 ; ; 7 % n o l l l l l l l l l l p     ",
"      % % % % % _ ; ; - 3 ; 4 5 % q l l l l l l l l l l l l r   ",
"      % % % % % | s ; ; ; ; 7 % a t l l l l u v w d l l l l l   ",
"      % % % % % % / ; ; ; 4 @ % x l l l y z A B B C D E l l l l ",
"      % % % % % % ~ ; ; ; 7 % % F l l G H B I J K L B M N l l l ",
"      % % % % % % , ' ; 4 5 % % O l l P B B w Q Q w B B R l l l ",
"      % % % % % % % & * = % % % S l l T B B U V V W B B X l l l ",
"      % % % % % % % % % % % % % F l l Y I B Z `  .Z B ..d l l l ",
"      +.% % % % % % % % % % % % f l l l @.#.P $.$.%.&.*.l l l p ",
"      =.+.% % % % % % % % % % % g k l l l l l l l l l l l l l   ",
"      -.;.>.>.>.>.>.>.>.>.>.>.>.>.,.l l l l l l l l l l l l '.  ",
"                                    ).l l l l l l l l l l !.    ",
"                                      r l l l l l l l l '.      ",
"                                          l l l l l p           "};
