<svg xmlns="http://www.w3.org/2000/svg" width="24" height="24" version="1.1">
 <defs>
  <style id="current-color-scheme" type="text/css">
   .ColorScheme-Text { color:#444444; } .ColorScheme-Highlight { color:#4285f4; } .ColorScheme-NeutralText { color:#ff9800; } .ColorScheme-PositiveText { color:#4caf50; } .ColorScheme-NegativeText { color:#f44336; }
  </style>
 </defs>
 <path style="fill:currentColor" class="ColorScheme-Text" d="M 7,5 C 5,5 5,7 5,7 v 10 c 0,2 2,2 2,2 h 10 c 2,0 2,-2 2,-2 V 7 C 19,5 17,5 17,5 Z M 9.5,8 C 10.3284,8 11,8.6716 11,9.5 11,10.3284 10.3284,11 9.5,11 8.6716,11 8,10.3284 8,9.5 8,8.6716 8.6716,8 9.5,8 Z m 3,5 c 0.45,0 0.8303,0.2107 1.0703,0.4707 0.24,0.27 0.7397,1.2693 0.8497,1.3793 0.1,0.11 0.15,0.15 0.33,0.15 H 16 v 1 H 14.75 C 14.3,16 13.9197,15.789 13.6797,15.529 13.4397,15.259 12.9401,14.26 12.8301,14.15 12.7301,14.04 12.68,14 12.5,14 c -0.18,0 -0.2301,0.04 -0.3301,0.15 -0.11,0.11 -0.6096,1.109 -0.8496,1.379 C 11.0803,15.789 10.7,16 10.25,16 H 8 v -1 h 2.25 c 0.18,0 0.2301,-0.04 0.3301,-0.15 0.11,-0.11 0.6096,-1.1093 0.8496,-1.3793 C 11.6697,13.2107 12.05,13 12.5,13 Z"/>
</svg>
