<svg xmlns="http://www.w3.org/2000/svg" width="16" height="16" version="1.1">
 <defs>
  <style id="current-color-scheme" type="text/css">
   .ColorScheme-Text { color:#444444; } .ColorScheme-Highlight { color:#4285f4; } .ColorScheme-NeutralText { color:#ff9800; } .ColorScheme-PositiveText { color:#4caf50; } .ColorScheme-NegativeText { color:#f44336; }
  </style>
 </defs>
 <path style="fill:currentColor" class="ColorScheme-Text" d="m 1,2 v 11 2 H 3 14 V 13 H 13 V 8 H 9 v 5 H 8 V 7 H 7 v 6 H 5 V 7 H 4 v 6 H 3 V 2 Z M 4,2 V 3 H 5 V 6 H 6 V 2 H 5 Z M 8.5,2 C 7.669,2 7,2.669 7,3.5 v 1 C 7,5.331 7.669,6 8.5,6 9.331,6 10,5.331 10,4.5 v -1 C 10,2.669 9.331,2 8.5,2 Z m 4,0 C 11.669,2 11,2.669 11,3.5 v 1 C 11,5.331 11.669,6 12.5,6 13.331,6 14,5.331 14,4.5 v -1 C 14,2.669 13.331,2 12.5,2 Z m -4,1 C 8.777,3 9,3.223 9,3.5 v 1 C 9,4.777 8.777,5 8.5,5 8.223,5 8,4.777 8,4.5 v -1 C 8,3.223 8.223,3 8.5,3 Z m 4,0 C 12.777,3 13,3.223 13,3.5 v 1 C 13,4.777 12.777,5 12.5,5 12.223,5 12,4.777 12,4.5 v -1 C 12,3.223 12.223,3 12.5,3 Z M 10,9 h 2 v 4 h -2 z"/>
</svg>
