<svg xmlns="http://www.w3.org/2000/svg" width="16" height="16" version="1.1">
 <defs>
  <style id="current-color-scheme" type="text/css">
   .ColorScheme-Text { color:#444444; } .ColorScheme-Highlight { color:#4285f4; } .ColorScheme-NeutralText { color:#ff9800; } .ColorScheme-PositiveText { color:#4caf50; } .ColorScheme-NegativeText { color:#f44336; }
  </style>
 </defs>
 <path style="fill:currentColor" class="ColorScheme-Text" d="M 2 1 C 1 1 1 2 1 2 L 1 6 L 3 6 L 3 3 L 6 3 L 6 1 L 2 1 z M 10 1 L 10 3 L 13 3 L 13 6 L 15 6 L 15 2 C 15 1 14 1 14 1 L 10 1 z M 5 5 L 5 10 L 5 11 L 6 11 L 11 11 L 11 9 L 7 9 L 7 5 L 5 5 z M 1 10 L 1 14 C 1 15 2 15 2 15 L 6 15 L 6 13 L 3 13 L 3 10 L 1 10 z M 13 10 L 13 13 L 10 13 L 10 15 L 14 15 C 14 15 15 15 15 14 L 15 10 L 13 10 z"/>
</svg>
