<svg xmlns="http://www.w3.org/2000/svg" width="64" height="64" version="1">
 <path style="opacity:0.2" d="m 27.5,7.9992 c -2.8655,0 -5.5,2.3069 -5.5,5.1724 v 4.828 H 10.448 c -1.9103,0 -3.4483,1.8828 -3.4483,3.7931 v 10.207 h 5.1724 c 2.866,0 4.828,2.134 4.828,5 0,2.8655 -1.9621,5 -4.8276,5 H 7.0001 v 12.552 C 7.0001,56.462 8.538,58 10.4484,58 h 11.552 v -3.4483 c 0,-2.866 2.634,-5.552 5.5,-5.552 2.8655,0 5.6145,2.6885 5.5,5.5517 v 3.4483 h 10.207 c 1.9103,0 3.8477,-1.5387 3.7931,-3.4483 v -11.552 h 4.828 c 2.865,0 5.172,-2.634 5.172,-5.5 0,-2.866 -2.307,-5.5 -5.172,-5.5 h -4.828 v -10.207 c 0,-1.91 -1.884,-3.857 -3.793,-3.793 h -10.207 v -4.828 c 0,-2.8651 -2.634,-5.172 -5.5,-5.172 z"/>
 <path fill="#2279bf" d="m27.5 7c-2.8655 0-5.5 2.3069-5.5 5.1724v4.828h-11.552c-1.9103 0-3.4483 1.8828-3.4483 3.7931v10.207h5.1724c2.866 0 4.828 2.134 4.828 5 0 2.8655-1.9621 5-4.8276 5h-5.1724v12.552c0 1.9103 1.5379 3.4483 3.4483 3.4483h11.552v-3.4483c0-2.866 2.634-5.552 5.5-5.552 2.8655 0 5.6145 2.6885 5.5 5.5517v3.4483h10.207c1.9103 0 3.8477-1.5387 3.7931-3.4483v-11.552h4.828c2.865 0 5.172-2.634 5.172-5.5s-2.307-5.5-5.172-5.5h-4.828v-10.207c0-1.91-1.884-3.857-3.793-3.793h-10.207v-4.828c0-2.8651-2.634-5.172-5.5-5.172z"/>
 <path style="fill:#ffffff;opacity:0.2" d="M 27.5 7 C 24.6345 7 22 9.306375 22 12.171875 L 22 13.171875 C 22 10.306375 24.6345 8 27.5 8 C 30.366 8 33 10.306775 33 13.171875 L 33 12.171875 C 33 9.306775 30.366 7 27.5 7 z M 10.447266 17 C 8.5369656 17 7 18.882669 7 20.792969 L 7 21.792969 C 7 19.882669 8.5369656 18 10.447266 18 L 22 18 L 22 17 L 10.447266 17 z M 33 17 L 33 18 L 43.207031 18 C 45.116031 17.936 47 19.882969 47 21.792969 L 47 20.792969 C 47 18.882969 45.116031 16.936 43.207031 17 L 33 17 z M 47 31 L 47 32 L 51.828125 32 C 54.52583 32 56.728487 34.334577 56.976562 37 C 56.991947 36.834707 57 36.667353 57 36.5 C 57 33.634 54.693125 31 51.828125 31 L 47 31 z M 16.957031 36.5 C 16.738421 39.105244 14.8647 41 12.171875 41 L 7 41 L 7 42 L 12.171875 42 C 15.037375 42 17 39.8655 17 37 C 17 36.827295 16.971049 36.667082 16.957031 36.5 z"/>
</svg>
