<svg xmlns="http://www.w3.org/2000/svg" width="64" height="64" version="1">
 <rect style="opacity:0.2" width="56" height="56" x="4" y="5" rx="2.8" ry="2.8"/>
 <rect style="fill:#4f4f4f" width="56" height="56" x="4" y="4" rx="2.8" ry="2.8"/>
 <path style="opacity:0.2" d="m 27.393434,13 h 6.61455 l 0.553329,2 h 1.896034 L 53,43.509283 49.437836,50 H 34.959141 l 1.467214,3 h -0.64043 L 34.318847,50 H 16.346386 L 15.426355,48 H 14.288571 L 11,42.272248 v 0 l 4.214881,-7.310956 3.904154,-2.250311 6.459186,-11.183845 -1.299291,-2.250448 z M 31.291307,23.777584 19.864997,44 h 10.935237 l -1.262021,-3.00686 11.917384,0.01372 z"/>
 <path style="fill:#ffffff" d="m 27.393434,12 h 6.61455 l 0.553329,2 h 1.896034 L 53,42.509283 49.437836,49 H 34.959141 l 1.467214,3 h -0.64043 L 34.318847,49 H 16.346386 L 15.426355,47 H 14.288571 L 11,41.272248 v 0 l 4.214881,-7.310956 3.904154,-2.250311 6.459186,-11.183845 -1.299291,-2.250448 z M 31.291307,22.777584 19.864997,43 h 10.935237 l -1.262021,-3.00686 11.917384,0.01372 z"/>
 <path style="fill:#ffffff;opacity:0.1" d="M 6.8007812 4 C 5.2495813 4 4 5.2495813 4 6.8007812 L 4 7.8007812 C 4 6.2495813 5.2495813 5 6.8007812 5 L 57.199219 5 C 58.750419 5 60 6.2495813 60 7.8007812 L 60 6.8007812 C 60 5.2495813 58.750419 4 57.199219 4 L 6.8007812 4 z"/>
</svg>
