<svg xmlns="http://www.w3.org/2000/svg" width="64" height="64" version="1.1">
 <path style="opacity:0.2" d="M 12.75,5 C 11.2265,5 10,6.2488 10,7.8 v 50.4 c 0,1.55008 1.2265,2.8 2.75,2.8 h 38.5 C 52.7724,61 54,59.75008 54,58.2 V 23 L 40,19 36,5 Z"/>
 <path style="fill:#4f4f4f" d="M 12.75,4 C 11.2265,4 10,5.2488 10,6.8 v 50.4 c 0,1.55008 1.2265,2.8 2.75,2.8 h 38.5 C 52.7724,60 54,58.75008 54,57.2 V 22 L 40,18 36,4 Z"/>
 <path style="opacity:0.2" d="M 54,23 36,5 V 20.1875 C 36,21.74675 37.2555,23 38.8125,23 Z"/>
 <path style="fill:#696969" d="M 54,22 36,4 V 19.1875 C 36,20.74675 37.2555,22 38.8125,22 Z"/>
 <path style="opacity:0.1;fill:#ffffff" d="M 12.75 4 C 11.2265 4 10 5.2495812 10 6.8007812 L 10 7.8007812 C 10 6.2495813 11.2265 5 12.75 5 L 36 5 L 36 4 L 12.75 4 z"/>
 <path style="opacity:0.2" d="M 31.999999,29 C 28.884839,29 26.4673,29.812479 24.582031,31.041016 29.98893,31.474994 30.005859,38 30.005859,38 c 0,0 -0.995958,7 -6.978516,7 C 20.26851,45 19.060316,42.561324 18.509765,40.373047 18.127483,41.916722 18.041015,43 18.041015,43 c 0,0 0.996775,12 13.958984,12 13.959303,0 13.958985,-12 13.958985,-12 0,0 -4e-4,-0.893836 -0.22461,-2.226562 C 45.298945,41.92569 44.280897,43 41.970703,43 c -3.988375,0 -4.984376,-5 -4.984376,-5 0,0 -9e-5,-6 3.988282,-6 0.06178,0 0.113573,0.01185 0.173828,0.01367 C 39.09721,30.257054 36.176635,29 31.999999,29 Z m -7.958984,3 c -3.333333,0 -5,5.142578 -5,5.142578 0,0 -6.51e-4,6.857422 4.166016,6.857422 5,0 5.833984,-6 5.833984,-6 0,0 0,-6 -5,-6 z m 17.083984,1 c -3.083146,0 -3.083984,4.908203 -3.083984,4.908203 0,0 0.770369,4.091797 3.853516,4.091797 3.853933,0 3.083984,-4.091797 3.083984,-4.091797 0,0 4.17e-4,-4.908203 -3.853516,-4.908203 z m -18.597656,3 a 1.4956396,1.5 0 0 1 1.496094,1.5 1.4956396,1.5 0 0 1 -1.496094,1.5 1.4956396,1.5 0 0 1 -1.49414,-1.5 1.4956396,1.5 0 0 1 1.49414,-1.5 z m 20.039063,0 a 1.4956396,1.5 0 0 1 1.496093,1.5 1.4956396,1.5 0 0 1 -1.496093,1.5 1.4956396,1.5 0 0 1 -1.496094,-1.5 1.4956396,1.5 0 0 1 1.496094,-1.5 z"/>
 <path style="fill:#ffffff" d="M 31.999999,28 C 28.884839,28 26.4673,28.812479 24.582031,30.041016 29.98893,30.474994 30.005859,37 30.005859,37 c 0,0 -0.995958,7 -6.978516,7 C 20.26851,44 19.060316,41.561324 18.509765,39.373047 18.127483,40.916722 18.041015,42 18.041015,42 c 0,0 0.996775,12 13.958984,12 13.959303,0 13.958985,-12 13.958985,-12 0,0 -4e-4,-0.893836 -0.22461,-2.226562 C 45.298945,40.92569 44.280897,42 41.970703,42 c -3.988375,0 -4.984376,-5 -4.984376,-5 0,0 -9e-5,-6 3.988282,-6 0.06178,0 0.113573,0.01185 0.173828,0.01367 C 39.09721,29.257054 36.176635,28 31.999999,28 Z m -7.958984,3 c -3.333333,0 -5,5.142578 -5,5.142578 0,0 -6.51e-4,6.857422 4.166016,6.857422 5,0 5.833984,-6 5.833984,-6 0,0 0,-6 -5,-6 z m 17.083984,1 c -3.083146,0 -3.083984,4.908203 -3.083984,4.908203 0,0 0.770369,4.091797 3.853516,4.091797 3.853933,0 3.083984,-4.091797 3.083984,-4.091797 0,0 4.17e-4,-4.908203 -3.853516,-4.908203 z m -18.597656,3 a 1.4956396,1.5 0 0 1 1.496094,1.5 1.4956396,1.5 0 0 1 -1.496094,1.5 1.4956396,1.5 0 0 1 -1.49414,-1.5 1.4956396,1.5 0 0 1 1.49414,-1.5 z m 20.039063,0 a 1.4956396,1.5 0 0 1 1.496093,1.5 1.4956396,1.5 0 0 1 -1.496093,1.5 1.4956396,1.5 0 0 1 -1.496094,-1.5 1.4956396,1.5 0 0 1 1.496094,-1.5 z"/>
</svg>
