<?xml version="1.0" encoding="UTF-8" standalone="no"?>
<svg id="svg2817" xmlns:rdf="http://www.w3.org/1999/02/22-rdf-syntax-ns#" xmlns="http://www.w3.org/2000/svg" height="64" width="64" version="1.0" xmlns:cc="http://creativecommons.org/ns#" xmlns:dc="http://purl.org/dc/elements/1.1/">
    <metadata id="metadata57">
        <rdf:RDF>
            <cc:Work rdf:about="">
                <dc:format>
                    image/svg+xml
                </dc:format>
                <dc:type rdf:resource="http://purl.org/dc/dcmitype/StillImage"/>
                <dc:title/>
            </cc:Work>
        </rdf:RDF>
    </metadata>
    <path id="rect4255" d="m27.5 7c-2.8655 0-5.5 2.3069-5.5 5.1724v4.828h-11.552c-1.9103 0-3.4483 1.8828-3.4483 3.7931v10.207h5.1724c2.866 0 4.828 2.134 4.828 5 0 2.8655-1.9621 5-4.8276 5h-5.1724v12.552c0 1.9103 1.5379 3.4483 3.4483 3.4483h11.552v-3.4483c0-2.866 2.634-5.552 5.5-5.552 2.8655 0 5.6145 2.6885 5.5 5.5517v3.4483h10.207c1.9103 0 3.8477-1.5387 3.7931-3.4483v-11.552h4.828c2.865 0 5.172-2.634 5.172-5.5s-2.307-5.5-5.172-5.5h-4.828v-10.207c0-1.91-1.884-3.857-3.793-3.793h-10.207v-4.828c0-2.8651-2.634-5.172-5.5-5.172z" fill="#2279bf"/>
</svg>
