<svg xmlns="http://www.w3.org/2000/svg" width="64" height="64" version="1.1">
 <path style="opacity:0.2" d="M 14.5,8 C 13.115,8 12,9.115 12,10.5 v 45 c 0,1.385 1.115,2.5 2.5,2.5 h 35 C 50.885,58 52,56.885 52,55.5 V 23 L 38.25,21.75 37,8 Z"/>
 <path style="fill:#13a553" d="M 14.5,7 C 13.115,7 12,8.115 12,9.5 v 45 c 0,1.385 1.115,2.5 2.5,2.5 h 35 C 50.885,57 52,55.885 52,54.5 V 22 L 38.25,20.75 37,7 Z"/>
 <path style="opacity:0.2" d="m 37,8 v 12.5 c 0,1.3808 1.1193,2.5 2.5,2.5 H 52 Z"/>
 <path style="fill:#70c896" d="m 37,7 v 12.5 c 0,1.3808 1.1193,2.5 2.5,2.5 H 52 Z"/>
 <path style="opacity:0.2" d="M 52,26 31,47 21.5,37.5 12,47 v 4 L 21.5,41.5 31,51 52,30 Z"/>
 <path style="fill:#ffffff" d="M 52,25 31,46 21.5,36.5 12,46 v 4 L 21.5,40.5 31,50 52,29 Z"/>
 <path style="opacity:0.2;fill:#ffffff" d="M 14.5,7 C 13.115,7 12,8.115 12,9.5 v 1 C 12,9.115 13.115,8 14.5,8 H 37 c 0,-1 0,0 0,-1 z"/>
</svg>
