<svg xmlns="http://www.w3.org/2000/svg" width="64" height="64" version="1.1">
 <path style="opacity:0.2" d="M 14.5,8 C 13.115,8 12,9.115 12,10.5 V 55.5 C 12,56.885 13.115,58 14.5,58 H 49.5 C 50.885,58 52,56.885 52,55.5 V 23 L 37,8 Z"/>
 <path style="fill:#ffba3a" d="M 14.5 7 C 13.115 7 12 8.115 12 9.5 L 12 54.5 C 12 55.885 13.115 57 14.5 57 L 49.5 57 C 50.885 57 52 55.885 52 54.5 L 52 22 L 37 7 L 14.5 7 z"/>
 <path style="opacity:0.2" d="M 52,23 37,8 V 20.5 C 37,21.885 38.115,23 39.5,23 Z"/>
 <path style="fill:#ffdea2" d="M 52,22 37,7 V 19.5 C 37,20.885 38.115,22 39.5,22 Z"/>
 <path style="opacity:0.2;fill:#ffffff" d="M 14.5 7 C 13.115 7 12 8.115 12 9.5 L 12 10.5 C 12 9.115 13.115 8 14.5 8 L 37 8 L 37 7 L 14.5 7 z"/>
 <path style="fill:#3f3f3f" d="m 28,30 0,5.700684 C 28,35.700684 28,38 26.210798,38 25.239038,38 23.884157,37.264693 23.196,36.02539 22.257466,34.335456 25,31 25,31 19.371293,32.79388 15,36.616229 15,40.952149 15,44.33714 18.286349,47.981036 22,50 c 0,0 -2.105683,-5.272324 0.252511,-6 1.278385,-0.209117 3.026368,0.971688 3.747489,2.25 0,0 -0.330891,-2.211863 1.524693,-2.25 1.855584,-0.03814 4.16121,3.104396 4.475307,6 0.314097,-2.895604 2.619723,-6.038136 4.475307,-6 C 38.330891,44.03814 38,46.25 38,46.25 38.721121,44.971688 40.469104,43.790883 41.747489,44 44.105683,44.727676 42,50 42,50 45.713651,47.981036 49,44.33714 49,40.952149 49,36.616229 44.628707,32.79388 39,31 c 0,0 2.742534,3.335456 1.804,5.02539 C 40.115843,37.264693 38.760962,38 37.789202,38 36,38 36,35.700684 36,35.700684 L 36,30 33.100446,32 32,32 30.899553,32 Z"/>
</svg>
