<svg xmlns="http://www.w3.org/2000/svg" width="64" height="64" version="1">
 <path style="opacity:0.2" d="m 58,54.3333 v -42.666 c 0,-1.4777 -1.16,-2.667 -2.6,-2.667 H 8.6 C 7.1596,9.0003 6,10.1896 6,11.667 V 54.333 C 6,55.811 7.1596,57 8.6,57 h 46.8 c 1.44,0 2.6,-1.189 2.6,-2.667 z"/>
 <path fill="#bf9a66" d="m58 53.333v-42.666c0-1.4777-1.16-2.667-2.6-2.667h-46.8c-1.4404 0-2.6 1.1893-2.6 2.6667v42.666c0 1.478 1.1596 2.667 2.6 2.667h46.8c1.44 0 2.6-1.189 2.6-2.667z"/>
 <path style="opacity:0.2" d="m 16,26 a 5,5 0 0 0 -5,5 5,5 0 0 0 5,5 5,5 0 0 0 2.386719,-0.613281 l 5.130859,6.412109 A 5,5 0 0 0 23,44 a 5,5 0 0 0 5,5 5,5 0 0 0 4.757812,-3.46875 l 9.890626,-2.082031 A 5,5 0 0 0 47,46 a 5,5 0 0 0 5,-5 5,5 0 0 0 -5,-5 5,5 0 0 0 -4.974609,4.513672 l -9.271485,1.953125 A 5,5 0 0 0 28,39 5,5 0 0 0 25.611328,39.613281 L 20.482422,33.201172 A 5,5 0 0 0 21,31 5,5 0 0 0 16,26 Z"/>
 <path style="fill:#ffffff" d="M 16 25 A 5 5 0 0 0 11 30 A 5 5 0 0 0 16 35 A 5 5 0 0 0 18.386719 34.386719 L 23.517578 40.798828 A 5 5 0 0 0 23 43 A 5 5 0 0 0 28 48 A 5 5 0 0 0 32.757812 44.53125 L 42.648438 42.449219 A 5 5 0 0 0 47 45 A 5 5 0 0 0 52 40 A 5 5 0 0 0 47 35 A 5 5 0 0 0 42.025391 39.513672 L 32.753906 41.466797 A 5 5 0 0 0 28 38 A 5 5 0 0 0 25.611328 38.613281 L 20.482422 32.201172 A 5 5 0 0 0 21 30 A 5 5 0 0 0 16 25 z"/>
 <path style="fill:#ffffff;opacity:0.2" d="M 8.5996094 8 C 7.1592094 8 6 9.1886156 6 10.666016 L 6 11.667969 C 6 10.190569 7.1592094 9 8.5996094 9 L 55.400391 9 C 56.840391 9 58 10.190269 58 11.667969 L 58 10.667969 C 58 9.1902687 56.840391 8 55.400391 8 L 8.5996094 8 z"/>
</svg>
