<svg xmlns="http://www.w3.org/2000/svg" width="64" height="64" version="1">
 <path style="opacity:0.2" d="m 58,54.3333 v -42.666 c 0,-1.4777 -1.16,-2.667 -2.6,-2.667 H 8.6 C 7.1596,9.0003 6,10.1896 6,11.667 V 54.333 C 6,55.811 7.1596,57 8.6,57 h 46.8 c 1.44,0 2.6,-1.189 2.6,-2.667 z"/>
 <path fill="#a47a4a" d="m58 53.333v-42.666c0-1.4777-1.16-2.667-2.6-2.667h-46.8c-1.4404 0-2.6 1.1893-2.6 2.6667v42.666c0 1.478 1.1596 2.667 2.6 2.667h46.8c1.44 0 2.6-1.189 2.6-2.667z"/>
 <path style="fill:none;stroke:#ffffff;stroke-width:3" d="M 16,32 28,45 47,41"/>
 <path style="fill:#ffffff;opacity:0.1" d="M 8.5996094 8 C 7.1592094 8 6 9.1886156 6 10.666016 L 6 11.667969 C 6 10.190569 7.1592094 9 8.5996094 9 L 55.400391 9 C 56.840391 9 58 10.190269 58 11.667969 L 58 10.667969 C 58 9.1902687 56.840391 8 55.400391 8 L 8.5996094 8 z"/>
 <circle cx="16" cy="33" r="5" style="opacity:0.2"/>
 <circle style="fill:#3f3f3f" cx="16" cy="32" r="5"/>
 <circle style="opacity:0.2" cx="28" cy="46" r="5"/>
 <circle cx="28" cy="45" r="5" style="fill:#3f3f3f"/>
 <circle cx="47" cy="42" r="5" style="opacity:0.2"/>
 <circle style="fill:#3f3f3f" cx="47" cy="41" r="5"/>
</svg>
