<svg xmlns="http://www.w3.org/2000/svg" width="64" height="64" version="1.1">
 <path style="opacity:0.2" d="M 12.812499,4.0000028 C 11.254375,4.0000028 10,5.2711027 10,6.8500027 V 58.150001 C 10,59.7289 11.254375,61 12.812499,61 H 52.1875 C 53.745625,61 55,59.7289 55,58.150001 V 21.000003 L 40.937499,18.250002 38,4.000003 Z"/>
 <path style="fill:#1fa872" d="M 12.812499,2.9999998 C 11.254375,2.9999998 10,4.2710997 10,5.8499997 V 57.149998 c 0,1.578899 1.254375,2.849999 2.812499,2.849999 H 52.1875 c 1.558125,0 2.8125,-1.2711 2.8125,-2.849999 V 20 L 40.937499,17.249999 38,3 Z"/>
 <path style="opacity:0.2" d="M 55,21 38,4.0000008 V 18.166667 C 38,19.736333 39.263667,21 40.833333,21 Z"/>
 <path style="fill:#49d19c" d="M 55,20 38,3.0000008 V 17.166667 C 38,18.736333 39.263667,20 40.833333,20 Z"/>
 <path style="opacity:0.2" d="m 46.550781,24.999772 a 1.4076606,1.4076606 0 0 0 -0.966797,0.425781 L 37.423828,33.58571 A 8.4999996,8.4999996 0 0 0 32.5,31.999772 8.4999996,8.4999996 0 0 0 27.019531,34.01735 L 38.990234,45.990006 A 8.4999996,8.4999996 0 0 0 41,40.499772 8.4999996,8.4999996 0 0 0 39.417969,35.572038 l 8.15625,-8.15625 A 1.4076606,1.4076606 0 0 0 46.550781,24.999772 Z M 26.009766,35.009538 A 8.4999996,8.4999996 0 0 0 24,40.499772 a 8.4999996,8.4999996 0 0 0 1.582031,4.927734 l -8.148437,8.148438 a 1.4076606,1.4076606 0 1 0 1.990234,1.990234 l 8.150391,-8.152344 A 8.4999996,8.4999996 0 0 0 32.5,48.999772 8.4999996,8.4999996 0 0 0 37.980469,46.982194 Z"/>
 <path style="fill:#ffffff" d="m 32.5,31 a 8.4999996,8.4999996 0 0 0 -5.481283,2.01709 L 38.991209,44.989583 A 8.4999996,8.4999996 0 0 0 40.999999,39.5 8.4999996,8.4999996 0 0 0 32.5,31 Z m -6.49121,3.010417 A 8.4999996,8.4999996 0 0 0 24,39.5 8.4999996,8.4999996 0 0 0 32.5,48 8.4999996,8.4999996 0 0 0 37.981282,45.98291 Z"/>
 <path style="fill:#ffffff" d="m 46.550849,24 a 1.4076606,1.4076606 0 0 0 -0.96767,0.426106 L 32.725814,37.283469 c 1.496654,-0.09626 1.882997,0.814427 2.105782,1.874862 L 47.573499,26.416426 A 1.4076606,1.4076606 0 0 0 46.550849,24 Z m -16.01054,15.468975 -13.107528,13.10753 a 1.4076606,1.4076606 0 1 0 1.990319,1.99032 L 32.508637,41.481288 c -0.982109,-0.179259 -1.872024,-0.498237 -1.968328,-2.012313 z"/>
 <path style="opacity:0.2;fill:#ffffff" d="M 12.8125,3 C 11.254376,3 10,4.2707094 10,5.8496094 v 1 C 10,5.2707094 11.254376,4 12.8125,4 H 38 V 3 Z"/>
</svg>
