<svg xmlns="http://www.w3.org/2000/svg" width="48" height="48" version="1">
 <path style="opacity:0.2" d="M 24,5 C 12.92,5 4,13.92 4,25 4,36.08 12.92,45 24,45 35.08,45 44,36.08 44,25 44,13.92 35.08,5 24,5 Z"/>
 <path style="fill:#ffa50c" d="M 24,4 C 12.92,4 4,12.92 4,24 4,35.08 12.92,44 24,44 35.08,44 44,35.08 44,24 44,12.92 35.08,4 24,4 Z"/>
 <path style="opacity:0.2;fill:#ffffff" d="M 24,4 C 12.920985,4 4.0017778,12.92 4.0017778,24 c 0,0.168 -0.004,0.333 0,0.5 C 4.2661543,13.654 13.08897,5 24,5 c 10.91103,0 19.734246,8.654 19.998223,19.5 0.004,-0.167 0,-0.332 0,-0.5 C 43.998223,12.92 35.079015,4 24,4 Z"/>
 <ellipse style="fill:#ff6843" cx="10" cy="-28" rx="4" ry="5" transform="scale(1,-1)"/>
 <ellipse style="fill:#ff6843" cx="37" cy="-28" rx="4" ry="5" transform="scale(1,-1)"/>
 <path style="opacity:0.1" d="M 13.978516,28.478516 A 4,5 0 0 1 10,33 4,5 0 0 1 6.0214844,28.521484 4,5 0 0 0 6,29 a 4,5 0 0 0 4,5 4,5 0 0 0 4,-5 4,5 0 0 0 -0.02148,-0.521484 z"/>
 <path style="opacity:0.1" d="M 40.978516,28.478516 A 4,5 0 0 1 37,33 4,5 0 0 1 33.021484,28.521484 4,5 0 0 0 33,29 a 4,5 0 0 0 4,5 4,5 0 0 0 4,-5 4,5 0 0 0 -0.02148,-0.521484 z"/>
 <rect style="opacity:0.1" width="8" height="2" x="20" y="33" rx="1" ry="1"/>
 <rect style="fill:#3f3f3f" width="8" height="2" x="20" y="32" rx="1" ry="1"/>
 <path style="opacity:0.1" d="m 17,17.99962 c -1.656854,0 -3,1.343146 -3,3 0,1.656854 1.343146,0 3,0 1.656854,0 3,1.656854 3,0 0,-1.656854 -1.343146,-3 -3,-3 z"/>
 <path style="opacity:0.1" d="m 31,17.99962 c -1.656854,0 -3,1.343146 -3,3 0,1.656854 1.343146,0 3,0 1.656854,0 3,1.656854 3,0 0,-1.656854 -1.343146,-3 -3,-3 z"/>
 <path style="fill:#3f3f3f" d="m 20,19.99924 c 0,1.656854 -1.343146,0 -3,0 -1.656854,0 -3,1.656854 -3,0 0,-1.656854 1.343146,-3 3,-3 1.656854,0 3,1.343146 3,3 z"/>
 <path style="fill:#3f3f3f" d="m 34,19.99924 c 0,1.656854 -1.343146,0 -3,0 -1.656854,0 -3,1.656854 -3,0 0,-1.656854 1.343146,-3 3,-3 1.656854,0 3,1.343146 3,3 z"/>
</svg>
