<svg xmlns="http://www.w3.org/2000/svg" width="64" height="64" version="1.1">
 <path style="opacity:0.2" d="M 12.75,5 C 11.2265,5 10,6.2488 10,7.8 v 50.4 c 0,1.55008 1.2265,2.8 2.75,2.8 h 38.5 C 52.7724,61 54,59.75008 54,58.2 V 23 L 40,19 36,5 Z"/>
 <path style="fill:#e4e4e4" d="M 12.75,4 C 11.2265,4 10,5.2488 10,6.8 v 50.4 c 0,1.55008 1.2265,2.8 2.75,2.8 h 38.5 C 52.7724,60 54,58.75008 54,57.2 V 22 L 40,18 36,4 Z"/>
 <path style="opacity:0.2" d="M 54,23 36,5 V 20.1875 C 36,21.74675 37.2555,23 38.8125,23 Z"/>
 <path style="fill:#fafafa" d="M 54,22 36,4 V 19.1875 C 36,20.74675 37.2555,22 38.8125,22 Z"/>
 <path style="opacity:0.2;fill:#ffffff" d="M 12.75 4 C 11.2265 4 10 5.2495812 10 6.8007812 L 10 7.8007812 C 10 6.2495813 11.2265 5 12.75 5 L 36 5 L 36 4 L 12.75 4 z"/>
 <path style="fill:#8b82a4" d="m 17.999999,26.999999 7.222222,13 -7.222222,12.999999 h 4.333334 l 7.222222,-12.999999 -7.222222,-13 z"/>
 <path style="fill:#5f5088" d="m 25.222221,26.999999 7.222222,13 -7.222222,12.999999 h 4.333334 l 5.055555,-9.101444 5.055555,9.101444 h 4.333334 L 29.555555,26.999999 Z"/>
 <path style="fill:#8b82a4" d="m 37.65625,36 1.666016,3 H 46 v -3 z m 3.332031,6 1.667969,3 H 46 v -3 z"/>
</svg>
