<svg xmlns="http://www.w3.org/2000/svg" width="24" height="24" version="1">
 <path style="opacity:0.2" d="m 5,2.5 c -0.554,0 -1,0.446 -1,1 v 18 c 0,0.554 0.446,1 1,1 h 14 c 0.554,0 1,-0.446 1,-1 V 8.5 L 14.5,8 14,2.5 Z"/>
 <path fill="#4f4f4f" d="m5 2c-0.554 0-1 0.446-1 1v18c0 0.554 0.446 1 1 1h14c0.554 0 1-0.446 1-1v-13l-5.5-0.5-0.5-5.5z"/>
 <path fill="#fff" opacity=".1" d="m5 2c-0.554 0-1 0.446-1 1v0.5c0-0.554 0.446-1 1-1h9l5.5 5.5h0.5l-6-6z"/>
 <path style="opacity:0.2" d="m 14,2.5 v 5 c 0,0.5523 0.44772,1 1,1 h 5 z"/>
 <path fill="#696969" d="m14 2v5c0 0.5523 0.44772 1 1 1h5z"/>
 <path style="opacity:0.2" d="M 9.5,11.5 C 8.7,11.5 8,12.2 8,13 c 0,0.8 0.7,1.5 1.5,1.5 0.80001,0 1.5,-0.70001 1.5,-1.5 0,-0.80001 -0.70001,-1.5 -1.5,-1.5 z m 5,0 c -0.80001,0 -1.5,0.70001 -1.5,1.5 0,0.80001 0.70001,1.5 1.5,1.5 0.80001,0 1.5,-0.70001 1.5,-1.5 0,-0.80001 -0.70001,-1.5 -1.5,-1.5 z m -7,4 C 6.69999,15.5 6,16.20001 6,17 6,17.80001 6.70001,18.5 7.5,18.5 8.30001,18.5 9,17.79999 9,17 9,16.19999 8.29999,15.5 7.5,15.5 Z m 9,0 c -0.8,0 -1.5,0.7 -1.5,1.5 0,0.7998 0.7,1.5 1.5,1.5 0.80001,0 1.5,-0.70001 1.5,-1.5 0,-0.80001 -0.70001,-1.5 -1.5,-1.5 z"/>
 <path style="fill:#f1a443" d="M 7.5,18 C 6.70001,18 6,17.30001 6,16.5 6,15.70001 6.69999,15 7.5,15 8.29999,15 9,15.69999 9,16.5 9,17.29999 8.30001,18 7.5,18 Z"/>
 <path style="fill:#3f90dc" d="M 9.5,14 C 8.7,14 8,13.3 8,12.5 c 0,-0.8 0.7,-1.4999 1.5,-1.4999 0.79999,0 1.5,0.69999 1.5,1.5 0,0.79999 -0.69999,1.5 -1.5,1.5 z"/>
 <path style="fill:#56a913" d="M 14.5,14 C 13.70001,14 13,13.30001 13,12.5 13,11.70001 13.69999,11 14.5,11 c 0.79999,0 1.5,0.69999 1.5,1.5 0,0.79999 -0.69999,1.5 -1.5,1.5 z"/>
 <path style="fill:#f35b5b" d="M 16.5,18 C 15.7,18 15,17.3 15,16.5002 c 0,-0.8 0.7,-1.4999 1.5,-1.4999 0.79999,0 1.5,0.69999 1.5,1.5 0,0.79999 -0.69999,1.5 -1.5,1.5 z"/>
</svg>
