<svg xmlns="http://www.w3.org/2000/svg" width="24" height="24" version="1.1">
 <path style="opacity:.2" d="m5 2.5c-0.554 0-1 0.446-1 1v18c0 0.554 0.446 1 1 1h14c0.554 0 1-0.446 1-1v-13l-6-6z"/>
 <path style="fill:#e3b7f3" d="m5 2c-0.554 0-1 0.446-1 1v18c0 0.554 0.446 1 1 1h14c0.554 0 1-0.446 1-1v-13l-5-1-1-5z"/>
 <path style="opacity:.2" d="m 11.011719,11.505859 c -0.585033,-0.0064 -1.4898615,0.09665 -2.2695315,0.564453 L 5.8457031,13.808594 9.9414062,22 H 10.5 L 10.947266,21.777344 7.1542969,14.191406 9.2578125,12.929688 C 9.7789791,12.616987 10.573554,12.501156 11.001953,12.505859 12.279312,12.519884 13,13.333362 13,14 c 0,1.227766 -0.404274,1.961275 -1.447266,2.765625 L 10.230469,15.113281 11.152344,14.5 H 12 v -1 h -1.152344 l -2.0781248,1.386719 2.6269528,3.283203 0.38086,-0.253906 C 13.362679,16.859125 14,15.611107 14,14 14,12.666642 12.72076,11.524623 11.011719,11.505859 Z"/>
 <path style="opacity:.2" d="m20 8.5-6-6v5c0 0.554 0.446 1 1 1z"/>
 <path style="opacity:.2" d="m11.5 7.5-0.5 3h1l1-3z"/>
 <path style="fill:#f5c5f4" d="m20 8-6-6v5c0 0.554 0.446 1 1 1z"/>
 <path style="opacity:.2" d="m14.5 9-1 2 0.5 0.333333 2-1.4999997z"/>
 <path style="fill:#ffffff;opacity:.2" d="m5 2c-0.554 0-1 0.446-1 1v0.5c0-0.554 0.446-1 1-1h9v-0.5z"/>
 <path style="fill:none;stroke:#ce4b40" d="m 10.5,21.5 -3.9999999,-8 2.5,-1.5 C 9.6504197,11.609748 10.5,11.5 11.006717,11.505563 12.49992,11.521957 13.5,12.5 13.5,13.5 13.5,15 13,16 11.5,17 L 9.5000001,14.5 11,13.5 h 1"/>
 <path style="opacity:.2" d="m17.5 11-2.5 2 0.5 0.5 2.5-1z"/>
 <path style="fill:#ce4b40" d="m11.5 7-0.5 3h1l1-3z"/>
 <path style="fill:#569159" d="m14.5 8.5-1 2 0.5 0.333333 2-1.4999997z"/>
 <path style="fill:#4b77c0" d="m17.5 10.5-2.5 2 0.5 0.5 2.5-1z"/>
</svg>
