<svg xmlns="http://www.w3.org/2000/svg" width="24" height="24" version="1">
 <path style="opacity:0.2" d="m 22,20.5 v -16 c 0,-0.554 -0.446,-1 -1,-1 H 3 c -0.554,0 -1,0.446 -1,1 v 16 c 0,0.554 0.446,1 1,1 h 18 c 0.554,0 1,-0.446 1,-1 z"/>
 <path fill="#607d8b" d="m22 20v-16c0-0.554-0.446-1-1-1h-18c-0.554 0-1 0.446-1 1v16c0 0.554 0.446 1 1 1h18c0.554 0 1-0.446 1-1z"/>
 <path fill="#fff" opacity=".2" d="m3 3c-0.554 0-1 0.446-1 1v0.5c0-0.554 0.446-1 1-1h18c0.554 0 1 0.446 1 1v-0.5c0-0.554-0.446-1-1-1z"/>
 <path style="opacity:0.2" d="m 8,9.5 v 1 h 8 v -1 z m 0,2 v 1 h 8 v -1 z m 0,2 v 1 h 8 v -1 z m 0,2 v 1 h 5 v -1 z"/>
 <path style="fill:#ffffff" d="M 8 9 L 8 10 L 16 10 L 16 9 L 8 9 z M 8 11 L 8 12 L 16 12 L 16 11 L 8 11 z M 8 13 L 8 14 L 16 14 L 16 13 L 8 13 z M 8 15 L 8 16 L 13 16 L 13 15 L 8 15 z"/>
</svg>
