<svg xmlns="http://www.w3.org/2000/svg" width="24" height="24" version="1.1">
 <path style="opacity:0.2" d="m 5,2.5 c -0.554,0 -1,0.446 -1,1 v 18 c 0,0.554 0.446,1 1,1 h 14 c 0.554,0 1,-0.446 1,-1 v -13 l -6,-6 z"/>
 <path style="fill:#775db7" d="M 5,2 C 4.446,2 4,2.446 4,3 v 18 c 0,0.554 0.446,1 1,1 h 14 c 0.554,0 1,-0.446 1,-1 V 8 L 15,7 14,2 Z"/>
 <path style="opacity:0.2" d="m 20,8.5 -6,-6 v 5 c 0,0.554 0.446,1 1,1 z"/>
 <path style="fill:#927ec6" d="M 20,8 14,2 v 5 c 0,0.554 0.446,1 1,1 z"/>
 <path style="opacity:0.1;fill:#ffffff" d="M 5,2 C 4.446,2 4,2.446 4,3 v 0.5 c 0,-0.554 0.446,-1 1,-1 h 9 V 2 Z"/>
 <path style="opacity:0.2" d="m 11.5,10.513672 a 2.5000001,2.5000001 0 0 0 -2.5,2.5 2.5000001,2.5000001 0 0 0 0.00195,0.01172 2.5000001,2.5000001 0 0 1 0.1835938,-0.01367 A 2.5000001,2.5000001 0 0 1 11.685547,15.5 2.5000001,2.5000001 0 0 0 14,13.013672 a 2.5000001,2.5000001 0 0 0 -2.5,-2.5 z M 16.25,13.5 A 2.2500001,2.2500001 0 0 0 14,15.75 2.2500001,2.2500001 0 0 0 14.0098,15.880859 2.2500001,2.2500001 0 0 1 15.996128,17.982422 2.2500001,2.2500001 0 0 0 16.25,18 2.2500001,2.2500001 0 0 0 18.5,15.75 2.2500001,2.2500001 0 0 0 16.25,13.5 Z m -7.75,1 A 2.5,1.5 0 0 0 6,16 2.5,1.5 0 0 0 8.5,17.5 2.5,1.5 0 0 0 11,16 2.5,1.5 0 0 0 8.5,14.5 Z m 4,2 A 2.5,1.5 0 0 0 10,18 2.5,1.5 0 0 0 12.5,19.5 2.5,1.5 0 0 0 15,18 2.5,1.5 0 0 0 12.5,16.5 Z"/>
 <ellipse style="fill:#8cd538" cx="8.5" cy="15.5" rx="2.5" ry="1.5"/>
 <ellipse style="fill:#ffeb3b" cx="12.5" cy="17.5" rx="2.5" ry="1.5"/>
 <path style="fill:#3f51b5" d="m 11.5,10.013556 a 2.5000001,2.5000001 0 0 0 -2.5,2.5 2.5000001,2.5000001 0 0 0 0.00105,0.0114 2.5000001,2.5000001 0 0 1 0.185004,-0.01302 A 2.5000001,2.5000001 0 0 1 11.685512,15 a 2.5000001,2.5000001 0 0 0 2.314469,-2.48644 2.5000001,2.5000001 0 0 0 -2.5,-2.5 z"/>
 <path style="fill:#f44336" d="m 16.25,13 a 2.2500001,2.2500001 0 0 0 -2.25,2.25 2.2500001,2.2500001 0 0 0 0.0093,0.130188 2.2500001,2.2500001 0 0 1 1.986328,2.101684 2.2500001,2.2500001 0 0 0 0.254335,0.01813 2.2500001,2.2500001 0 0 0 2.25,-2.250001 2.2500001,2.2500001 0 0 0 -2.25,-2.25 z"/>
</svg>
