<svg width="24" height="24" version="1.1" xmlns="http://www.w3.org/2000/svg">
 <path d="m5 2.5c-0.554 0-1 0.446-1 1v18c0 0.554 0.446 1 1 1h14c0.554 0 1-0.446 1-1v-13l-6-6z" style="opacity:.2"/>
 <path d="m5 2c-0.554 0-1 0.446-1 1v18c0 0.554 0.446 1 1 1h14c0.554 0 1-0.446 1-1v-13l-5-1-1-5z" style="fill:#4f4f4f;stop-color:#000000"/>
 <path d="m20 8.5-6-6v5c0 0.554 0.446 1 1 1z" style="opacity:.2"/>
 <path d="m20 8-6-6v5c0 0.554 0.446 1 1 1z" style="fill:#696969;stop-color:#000000"/>
 <path d="m5 2c-0.554 0-1 0.446-1 1v0.5c0-0.554 0.446-1 1-1h9v-0.5h-9z" style="fill:#ffffff;opacity:.2"/>
 <path d="m10.59914 12.976872c-4.0568987 1.087044-5.723001 2.982864-5.3606257 4.335156 0.362375 1.352293 2.7531174 2.161085 6.8100157 1.074043 0.338075-0.09059 0.338075-0.09059-0.09059-0.338074-2.7951818 0.386619-4.4192427-0.265258-4.6910043-1.27948-0.2717606-1.014225 0.8087784-2.390798 3.4185443-3.469415 0.0043 0.01607 0.251734-0.412813-0.08634-0.322227zm1.3523-0.362348c-0.338075 0.09059 0.09065 0.338303 0.08634 0.322228 2.799434-0.370773 4.423522 0.281096 4.695281 1.295325 0.271761 1.014226-0.808806 2.390805-2.783337 3.172532l-1.297862-3.528368c-0.428635-0.247495-0.338075 0.09059-0.338075 0.09059l0.658381 3.809413c0.06865 0.256209 0.08589 0.317569 0.237079 0.29316 0.02337-0.0038 0.04932-9e-3 0.07982-0.01642 2.64e-4 -6.6e-5 4.04e-4 -1.15e-4 6.76e-4 -1.82e-4 0.03238-8e-3 0.06909-0.01778 0.111093-0.02905 4.056899-1.087043 5.722983-2.98286 5.360644-4.335162-0.362338-1.352301-2.753136-2.161079-6.810034-1.074037z" style="opacity:.2;stop-color:#000000"/>
 <path d="m10.59914 12.47658c-4.0568987 1.087044-5.723001 2.982864-5.3606257 4.335156 0.362375 1.352293 2.7531174 2.161085 6.8100157 1.074043 0.338075-0.09059 0.338075-0.09059-0.09059-0.338074-2.7951818 0.386619-4.4192427-0.265258-4.6910043-1.27948-0.2717606-1.014225 0.8087784-2.390798 3.4185443-3.469415 0.0043 0.01607 0.251734-0.412813-0.08634-0.322227zm1.3523-0.362348c-0.338075 0.09059 0.09065 0.338303 0.08634 0.322228 2.799434-0.370773 4.423522 0.281096 4.695281 1.295325 0.271761 1.014226-0.808806 2.390805-2.783337 3.172532l-1.297862-3.528368c-0.428635-0.247495-0.338075 0.09059-0.338075 0.09059l0.658381 3.809413c0.06865 0.256209 0.08589 0.317569 0.237079 0.29316 0.02337-0.0038 0.04932-9e-3 0.07982-0.01642 2.64e-4 -6.6e-5 4.04e-4 -1.15e-4 6.76e-4 -1.82e-4 0.03238-8e-3 0.06909-0.01778 0.111093-0.02905 4.056899-1.087043 5.722983-2.98286 5.360644-4.335162-0.362338-1.352301-2.753136-2.161079-6.810034-1.074037z" style="fill:#fecd38;stop-color:#000000"/>
</svg>
