<?xml version="1.0" encoding="UTF-8" standalone="no"?>
<svg xmlns="http://www.w3.org/2000/svg" height="24" width="24" version="1">
 <path fill="#ccc" d="m5 2c-0.554 0-1 0.446-1 1v18c0 0.554 0.446 1 1 1h14c0.554 0 1-0.446 1-1v-13l-5.5-0.5-0.5-5.5z"/>
 <path opacity=".2" fill="#fff" d="m5 2c-0.554 0-1 0.446-1 1v0.5c0-0.554 0.446-1 1-1h9l5.5 5.5h0.5l-6-6z"/>
 <path fill="#ebebeb" d="m14 2v5c0 0.5523 0.44772 1 1 1h5l-6-6z"/>
 <path opacity=".5" style="enable-background:new" d="m10.74 9l-0.111 1.316a3.9638 3.9289 0 0 0 -1.1583 0.663l-1.207-0.563-1.2617 2.164 1.0957 0.756a3.9638 3.9289 0 0 0 -0.0606 0.664 3.9638 3.9289 0 0 0 0.0586 0.664l-1.0957 0.752 1.2617 2.166 1.2051-0.561a3.9638 3.9289 0 0 0 1.1602 0.659l0.111 1.32h2.524l0.111-1.316a3.9638 3.9289 0 0 0 1.158 -0.664l1.207 0.562 1.262-2.166-1.098-0.754a3.9638 3.9289 0 0 0 0.063 -0.662 3.9638 3.9289 0 0 0 -0.059 -0.666l1.094-0.75-1.262-2.166-1.205 0.562a3.9638 3.9289 0 0 0 -1.16 -0.66l-0.111-1.32h-2.522zm1.26 3a2 2.0002 0 0 1 2 2 2 2.0002 0 0 1 -2 2 2 2.0002 0 0 1 -2 -2 2 2.0002 0 0 1 2 -2z"/>
</svg>
