<?xml version="1.0" encoding="UTF-8" standalone="no"?>
<!-- Created with Inkscape (http://www.inkscape.org/) -->
<svg id="svg4358" xmlns:rdf="http://www.w3.org/1999/02/22-rdf-syntax-ns#" xmlns="http://www.w3.org/2000/svg" height="48" viewBox="0 0 48.000001 48.000001" width="48" version="1.1" xmlns:cc="http://creativecommons.org/ns#" xmlns:dc="http://purl.org/dc/elements/1.1/">
 <defs id="defs4360">
  <clipPath id="clipPath4266-4" clipPathUnits="userSpaceOnUse">
   <path id="path4268-0" fill="#fff" d="m146 240c-1.108 0-2 0.892-2 2v36c0 1.108 0.892 2 2 2h28c1.108 0 2-0.892 2-2v-26l-12-12h-18z"/>
  </clipPath>
  <filter id="filter4987" y="-.11143" width="1.26" height="1.2229" x="-.13">
   <feGaussianBlur id="feGaussianBlur4989" stdDeviation="0.65"/>
  </filter>
 </defs>
 <metadata id="metadata4363">
  <rdf:RDF>
   <cc:Work rdf:about="">
    <dc:format>image/svg+xml</dc:format>
    <dc:type rdf:resource="http://purl.org/dc/dcmitype/StillImage"/>
    <dc:title/>
   </cc:Work>
  </rdf:RDF>
 </metadata>
 <g id="layer1" transform="translate(0 -1004.4)">
  <g id="g4351" transform="translate(-.195 1004.7)">
   <path id="path4754" opacity=".1" style="enable-background:new" d="m163.22 242.45v11c0 1.1046 0.89543 2 2 2h10l-1-1-10-9z" clip-path="url(#clipPath4266-4)" transform="translate(-135.61,-237.72)" filter="url(#filter4987)"/>
   <path id="path4750" fill="#e67d4a" d="m10 4c-1.108 0-2 0.892-2 2v36c0 1.108 0.892 2 2 2h28c1.108 0 2-0.892 2-2v-26l-11-1-1-11z"/>
   <path id="path4752" opacity=".2" fill="#fff" d="m10 4c-1.108 0-2 0.892-2 2v1c0-1.108 0.892-2 2-2h18l11 11h1l-12-12z"/>
   <path id="path4756" fill="#e0c0b1" d="m28 4v10c0 1.1046 0.89543 2 2 2h10l-12-12z"/>
   <path id="path4364" style="color-rendering:auto;text-decoration-color:#000000;color:#000000;isolation:auto;mix-blend-mode:normal;shape-rendering:auto;solid-color:#000000;block-progression:tb;text-decoration-line:none;image-rendering:auto;white-space:normal;text-indent:0;text-transform:none;text-decoration-style:solid" fill-rule="evenodd" fill="#fff" d="m19.064 21.482a1.0001 1.0001 0 0 0 -0.0957 0.002 1.0001 1.0001 0 0 0 -0.26367 0.05469s-0.62631 0.20634-1.3516 0.58789c-0.72525 0.38156-1.6068 0.91644-2.1738 1.834-0.63117 1.0212-0.3916 2.1138-0.19531 2.7676s0.30435 0.93924 0.12305 1.377c-0.08854 0.21376-0.631 0.68172-1.2246 0.97266-0.594 0.291-1.133 0.443-1.133 0.443a1.0001 1.0001 0 0 0 -0.715 1.229 1.0001 1.0001 0 0 0 0.715 1.201s0.53921 0.15242 1.1328 0.44336c0.59361 0.29094 1.1361 0.7589 1.2246 0.97266 0.1813 0.43771 0.07324 0.72315-0.12305 1.377-0.19629 0.6538-0.43585 1.7463 0.19531 2.7676 0.56708 0.91755 1.4486 1.4524 2.1738 1.834 0.72525 0.38156 1.3516 0.58789 1.3516 0.58789a1.0001 1.0001 0 1 0 0.62891 -1.8965s-0.47588-0.15951-1.0488-0.46094c-0.57295-0.30143-1.1857-0.76666-1.4023-1.1172-0.24505-0.3965-0.16464-0.53369 0.01758-1.1406 0.18222-0.60693 0.51118-1.6147 0.05469-2.7168-0.40428-0.97602-1.2111-1.4927-1.9336-1.8652 0.72247-0.37253 1.5293-0.88922 1.9336-1.8652 0.4565-1.1021 0.12754-2.1099-0.05469-2.7168-0.18222-0.60693-0.26263-0.74412-0.01758-1.1406 0.21664-0.35053 0.8294-0.81576 1.4023-1.1172 0.57295-0.30143 1.0488-0.46094 1.0488-0.46094a1.0001 1.0001 0 0 0 -0.26953 -1.9531zm9.9316 0a1.0001 1.0001 0 0 0 -0.26562 1.9531s0.47588 0.15951 1.0488 0.46094c0.57295 0.30143 1.1857 0.76666 1.4023 1.1172 0.24505 0.3965 0.16464 0.53369-0.01758 1.1406-0.18222 0.60693-0.51119 1.6147-0.05469 2.7168 0.40428 0.97602 1.2111 1.4927 1.9336 1.8652-0.72247 0.37253-1.5293 0.88922-1.9336 1.8652-0.4565 1.1021-0.12753 2.1099 0.05469 2.7168 0.18222 0.60693 0.26263 0.74412 0.01758 1.1406-0.21664 0.35053-0.8294 0.81576-1.4023 1.1172-0.57295 0.30143-1.0488 0.46094-1.0488 0.46094a1.0001 1.0001 0 1 0 0.62891 1.8965s0.62631-0.20634 1.3516-0.58789c0.72525-0.38156 1.6068-0.91644 2.1738-1.834 0.63117-1.0212 0.3916-2.1138 0.19531-2.7676s-0.30435-0.93924-0.12305-1.377c0.08854-0.21376 0.631-0.68172 1.2246-0.97266s1.1328-0.44336 1.1328-0.44336a1.0001 1.0001 0 0 0 0.715 -1.201 1.0001 1.0001 0 0 0 -0.715 -1.229s-0.53921-0.15242-1.1328-0.44336c-0.59361-0.29094-1.1361-0.7589-1.2246-0.97266-0.1813-0.43771-0.07324-0.72315 0.12305-1.377 0.19629-0.6538 0.43585-1.7463-0.19531-2.7676-0.56708-0.91755-1.4486-1.4524-2.1738-1.834-0.72525-0.38156-1.3516-0.58789-1.3516-0.58789a1.0001 1.0001 0 0 0 -0.26367 -0.05469 1.0001 1.0001 0 0 0 -0.0957 -0.002 1.0001 1.0001 0 0 0 -0.0039 0zm-4.996 4.518a2 2 0 0 0 -2 2 2 2 0 0 0 2 2 2 2 0 0 0 2 -2 2 2 0 0 0 -2 -2zm0 6c-1.1046 0-2 0.89543-2 2s0.89543 2 2 2c0.70697 0 1 2 1 2s1-3.6024 1-4c0-1.1046-0.89543-2-2-2z"/>
  </g>
 </g>
</svg>
