<svg xmlns="http://www.w3.org/2000/svg" width="18" height="18" version="1.1">
 <defs>
  <style id="current-color-scheme" type="text/css">
   .ColorScheme-Text { color:#dfdfdf; } .ColorScheme-Highlight { color:#4285f4; } .ColorScheme-NeutralText { color:#ff9800; } .ColorScheme-PositiveText { color:#4caf50; } .ColorScheme-NegativeText { color:#f44336; }
  </style>
 </defs>
 <path style="fill:currentColor" class="ColorScheme-Text" d="m 3,2.0000002 c 0,0 -1.0000001,0 -1.0000001,1 V 12 15 C 1.9999999,16 3,16 3,16 H 5 V 14 H 4 V 4.0097658 h 8 v 1.9902344 2.9999999 0 l 2.000003,-2.58e-4 v -1.7497423 -4.25 c 0,-1 -1,-1 -1,-1 z m 3.7148438,6 C 6.7148438,8.0000002 6,7.9990987 6,8.6914064 V 16.308594 C 6,16.308594 6.0005581,17 6.7148438,17 H 15.285156 C 15.285156,17 16,17.000902 16,16.308594 V 10.677868 C 16,9.9855591 15.285156,10.000133 15.285156,10.000133 H 11.714844 L 10.285156,8.0000002 Z"/>
</svg>
