<?xml version="1.0" encoding="UTF-8" standalone="no"?>
<svg xmlns="http://www.w3.org/2000/svg" height="32" width="32" version="1">
 <rect transform="matrix(0,-1,-1,0,0,0)" rx="1.4" ry="1.4" height="28" width="28" y="-30" x="-30" fill="#f58411"/>
 <g opacity=".2" transform="translate(0,1)">
  <path opacity="1" d="m19 7 3-2v20l-3 2z"/>
  <path opacity="1" d="m9.232 20-3.232-1.598 17.321-10 3.232 1.598z"/>
  <path opacity="1" d="m26.321 21.402 0.232 3.598-17.321-10-0.232-3.598z"/>
 </g>
 <g fill="#ffcd6e">
  <path d="m19 7 3-2v20l-3 2z"/>
  <path d="m9.232 20-3.232-1.598 17.321-10 3.232 1.598z"/>
  <path d="m26.321 21.402 0.232 3.598-17.321-10-0.232-3.598z"/>
 </g>
 <path opacity=".2" fill="#fff" d="m3.4004 2c-0.7756 0-1.4004 0.6248-1.4004 1.4004v1c0-0.7756 0.6248-1.4004 1.4004-1.4004h25.2c0.775 0 1.4 0.6248 1.4 1.4004v-1c0-0.7756-0.625-1.4004-1.4-1.4004h-25.2z"/>
 <path opacity=".2" d="m2 28.6v1c0 0.775 0.6248 1.4 1.4004 1.4h25.2c0.775 0 1.4-0.625 1.4-1.4v-1c0 0.775-0.625 1.4-1.4 1.4h-25.2c-0.7752 0-1.4-0.625-1.4-1.4z"/>
</svg>
