<?xml version="1.0" encoding="UTF-8" standalone="no"?>
<svg xmlns="http://www.w3.org/2000/svg" height="32" width="32" version="1">
 <rect transform="matrix(0,-1,-1,0,0,0)" rx="1.4" ry="1.4" height="28" width="28" y="-30" x="-30" fill="#c2352a"/>
 <path opacity=".2" d="m7.334 7c-0.7387 0-1.334 0.5953-1.334 1.334v17.332c0 0.739 0.5953 1.334 1.334 1.334h17.332c0.739 0 1.334-0.595 1.334-1.334v-17.332c0-0.7387-0.595-1.334-1.334-1.334h-17.332zm0.666 3h5l3 5 3-5h5v14h-4v-9l-3 6h-2l-3-6v9h-4v-14z"/>
 <path fill="#fff" d="m7.334 6c-0.7387 0-1.334 0.5953-1.334 1.334v17.332c0 0.739 0.5953 1.334 1.334 1.334h17.332c0.739 0 1.334-0.595 1.334-1.334v-17.332c0-0.7387-0.595-1.334-1.334-1.334h-17.332zm0.666 3h5l3 5 3-5h5v14h-4v-9l-3 6h-2l-3-6v9h-4v-14z"/>
 <path opacity=".2" fill="#fff" d="m3.4004 2c-0.7756 0-1.4004 0.6248-1.4004 1.4004v1c0-0.7756 0.6248-1.4004 1.4004-1.4004h25.2c0.775 0 1.4 0.6248 1.4 1.4004v-1c0-0.7756-0.625-1.4004-1.4-1.4004h-25.2z"/>
 <path opacity=".2" d="m2 28.6v1c0 0.775 0.6248 1.4 1.4004 1.4h25.2c0.775 0 1.4-0.625 1.4-1.4v-1c0 0.775-0.625 1.4-1.4 1.4h-25.2c-0.7752 0-1.4-0.625-1.4-1.4z"/>
 <g transform="matrix(.66667 0 0 .66667 40.154 .50406)">
  <circle style="enable-background:new" cx="-24.232" cy="33.744" r="12" fill="#ffa822"/>
 </g>
 <path d="m18 20v2h2v4h2v-4h2v-2z" fill="#fff"/>
 <path d="m24 20 2 6h2l2-6h-2l-1 3.5-1-3.5z" fill="#fff"/>
 <g transform="matrix(.66667 0 0 .66667 40.154 1.5041)">
  <path opacity=".2" style="enable-background:new" transform="matrix(1.5 0 0 1.5 -60.232 -2.2561)" d="m31.979 23.424a8 8 0 0 1 -7.979 7.576 8 8 0 0 1 -7.979 -7.424 8 8 0 0 0 -0.021 0.424 8 8 0 0 0 8 8 8 8 0 0 0 8 -8 8 8 0 0 0 -0.02148 -0.57617z"/>
 </g>
</svg>
