<?xml version="1.0" encoding="UTF-8" standalone="no"?>
<svg xmlns="http://www.w3.org/2000/svg" height="32" width="32" version="1">
 <rect transform="matrix(0,-1,-1,0,0,0)" rx="1.4" ry="1.4" height="28" width="28" y="-30" x="-30" fill="#4253bb"/>
 <path opacity=".2" stroke-linejoin="round" d="m10.014 10h10.486l-10.486 14h11.972" stroke="#000" stroke-linecap="round" stroke-width="2" fill="none"/>
 <path stroke-linejoin="round" d="m10.014 9h10.486l-10.486 14h11.972" stroke="#ff8a8a" stroke-linecap="round" stroke-width="2" fill="none"/>
 <path opacity=".2" fill="#fff" d="m3.4004 2c-0.7756 0-1.4004 0.6248-1.4004 1.4004v1c0-0.7756 0.6248-1.4004 1.4004-1.4004h25.2c0.775 0 1.4 0.6248 1.4 1.4004v-1c0-0.7756-0.625-1.4004-1.4-1.4004h-25.2z"/>
 <path opacity=".2" d="m2 28.6v1c0 0.775 0.6248 1.4 1.4004 1.4h25.2c0.775 0 1.4-0.625 1.4-1.4v-1c0 0.775-0.625 1.4-1.4 1.4h-25.2c-0.7752 0-1.4-0.625-1.4-1.4z"/>
</svg>
