<svg width="16" height="16" version="1.1" xmlns="http://www.w3.org/2000/svg">
 <path d="m5 0c-0.4980049-4.2162469e-5 -0.9201597 0.36632492-0.9902344 0.859375l-0.9023437 6.3125v0.0019531l1.8925781 5.8261719 8.376953-2.4375-1.386719-9.703125c-0.070075-0.49304993-0.492229-0.85941696-0.990234-0.859375h-6z" style="fill:#d8e0e5"/>
 <path d="m3.1074219 7.171875-1.0976563 7.6875c-0.0854675 0.602228 0.3819719 1.140659 0.9902344 1.140625h10c0.608262 3.4e-5 1.075702-0.538397 0.990234-1.140625l-0.613281-4.296875c-0.85798 0.226939-2.005279 0.4375-3.376953 0.4375-4.65625 0-6.6320828-3.3511504-6.8925781-3.828125z" style="fill:#a6b9c4"/>
 <path d="m9.1117017 14.99859c0.4280072-0.188604 0.79974-0.167261 1.1841283-0.01438l-0.6780004-2.834927 0.0862912-0.258873-0.3164004-1.481328s0.1265316-0.01322 0.2301092-0.129437c-0.1099012-0.5962194-0.4170732-2.0278382-0.4170732-2.0278382s0.2123152 0.11971 0.3164004 0.086291c0.2530696-0.0812542 0.5865612-0.2144406 0.5033642-0.618419-0.1838394-0.892658-0.2014254-1.5558872-0.420521-1.7196788-0.3896716-0.2913108-1.3466988-0.5526488-1.3466988-0.5526488s0.1211804-0.4539456 0.081454-0.690328c-0.05357-0.3187568-0.2393948-0.7576-0.5608916-0.7910008-0.3509144-0.036456-0.7902976 0.4026056-0.7766188 0.7190916 0.018728 0.4333084 0.6376376 1.1936924 0.6376376 1.1936924l-0.5327876 0.1313632 0.171496 0.3144736-0.3165908 0.1294364-0.316 2.5029204-0.5385012 1.58152-0.4746008 0.258873-0.01438 0.834146 0.1869636-0.01438 0.043146-0.230109h0.1582l0.1150544-0.373928s0.2205792 0.0599 0.395196-0.04736c0.074824-0.04596 0.052592-0.302018 0.052592-0.302018l0.23533-0.010166 0.2996219 2.114129-0.03074 0.359546 0.1150544 0.488983-0.1582 0.186963-0.1117363 1.051046c0.386-0.153744 0.6365972-0.153744 1.186 0.158201l-0.1106804-0.560891-0.1582-0.116224 0.2013456-0.517746-0.1140871-1.222456 0.2036221-1.795123 0.5610116 1.162323 0.3455385 1.869638-0.01438 0.488982 0.2732548 0.289339z" style="fill:#173545"/>
 <path d="M 9,7.5 A 0.5,0.5 0 0 1 8.5,8 0.5,0.5 0 0 1 8,7.5 0.5,0.5 0 0 1 8.5,7 0.5,0.5 0 0 1 9,7.5 Z" style="fill:#ffffff"/>
</svg>
