<svg xmlns="http://www.w3.org/2000/svg" width="16" height="16" version="1">
 <path style="fill:#4f4f4f" d="M 13.379157,3.0016354 C 12.997453,3.016325 12.627964,3.1403545 12.314519,3.3590121 11.71857,3.7752139 10.899433,4.2925909 10.155994,4.7924246 10.018319,4.6142763 9.9657102,4.4516674 9.7894143,4.2749118 9.2067852,3.6907643 8.3106072,3.1627885 7.2935582,3.0406929 5.5641826,2.8332197 3.9669405,3.5164556 2.9199605,4.4584824 1.8729806,5.4005092 1.2312642,6.5322454 0.73413669,7.5420769 h -0.00195 c -0.0370355,0.07531 -0.28068695,0.544869 -0.46602311,1.1248577 -0.18533617,0.5799887 -0.44766405,1.3451714 -0.0838452,2.4450034 0.20604408,0.623009 0.70931671,1.191675 1.20893022,1.478329 0.4996136,0.286654 0.9544973,0.364436 1.335673,0.394481 0.7615127,0.06002 1.3268757,-0.07 1.7548988,-0.165995 1.2399836,-0.276998 2.2294514,-0.667146 3.2075649,-1.165868 0.531228,0.577293 1.1901217,1.1049 2.3515647,1.279136 0.796989,0.138335 1.246185,0.01558 1.754899,-0.107409 0.525113,-0.126948 1.01717,-0.288896 1.532611,-0.572193 0.724674,-0.495784 1.356368,-1.168077 2.022033,-1.779072 1.266758,-1.16392 0.570704,-3.2803515 -1.138733,-3.4624529 0.205295,-0.1997649 0.43183,-0.3752078 0.645412,-0.5858636 1.299411,-1.2816886 0.344414,-3.4936659 -1.478015,-3.4233951 z"/>
 <path style="fill:#d1ff42" d="m 14,9 -1.63631,1.5 c -0.550531,0.30212 -1.556785,0.55891 -2.013098,0.47203 -0.640233,-0.088 -1.3412282,-0.746 -1.8553568,-1.3964 -0.6504877,-0.8236 -1.1986516,-1.7879 -1.7861959,-2.6809 -0.4922021,-0.6777 -1.1109454,-1.34 -2.3073061,-0.5267 -0.4083139,0.2635 -0.8070281,0.7376 -1.1161816,1.2449 -0.4938383,0.8097 0.3665335,1.8943 1.1688708,1.8871 3.3113458,-0.02982 6.9881346,-3.0973 8.9997046,-4.5 -1.819686,1.792 -2.797326,2.8202 -6.521786,4.8149 -0.9173153,0.4821 -1.7234707,0.7901 -2.9025956,1.0531 -0.7056859,0.158 -1.7447428,0.304 -1.9722989,-0.383 -0.2370468,-0.7155 0.328571,-1.8192 0.4463853,-2.0584 0.8894981,-1.8041 2.2177454,-3.6772 4.5402147,-3.399 2.2149091,0.26549 2.3193057,3.4347 3.9725245,4.2676 0.814075,0.41004 1.421298,0.45428 2.982993,-0.29516 z"/>
</svg>
