<?xml version="1.0" encoding="UTF-8" standalone="no"?>
<svg xmlns="http://www.w3.org/2000/svg" height="16" width="16" version="1">
 <rect ry="8" rx="8" transform="matrix(0,-1,-1,0,0,0)" height="16" width="16" y="-16" x="-16" fill="#45b449"/>
 <path d="m6.4263 11.058" fill="#2d2d2d"/>
 <circle cy="12" cx="8" r="2" fill="#393939"/>
 <circle cy="8" cx="8" r="5" fill="#393939"/>
 <path fill="#df574d" d="m4.0529 8.053c0.78055-0.16496 1.6263 0.055486 2.2324 0.66166 0.60617 0.60617 0.82663 1.4519 0.66166 2.2324-0.7805 0.165-1.6262-0.055-2.2324-0.662-0.6062-0.6058-0.8266-1.4515-0.6617-2.232z"/>
 <path fill="#df574d" d="m11.947 8.053c-0.78055-0.16496-1.6263 0.055486-2.2324 0.66166-0.60617 0.60617-0.82663 1.4519-0.66166 2.2324 0.78055 0.16496 1.6263-0.05549 2.2324-0.66166 0.60617-0.60619 0.82661-1.4519 0.66166-2.2324z"/>
</svg>
