<svg xmlns="http://www.w3.org/2000/svg" width="16" height="16" version="1">
 <path style="fill:#a9c9e0" d="M 10.868423,5.6 C 10.595001,4.0158192 11.657897,0.84210504 11.657897,0.84210504 h -6.31579 c 0,0 1.0618914,3.17353616 0.7894737,4.75789496 C 5.5399341,9.0409668 1.0692271,14.736842 1.0692271,14.736842 0.8191961,15.36842 1.2775863,16 1.9443323,16 H 15.070924 c 0.666749,0 1.083464,-0.673682 0.875105,-1.263158 0,0 -4.483348,-5.693774 -5.077606,-9.136842 z"/>
 <path style="fill:#c0dce9" d="M 12.100001,2 H 4.8999992 C 4.4050013,2 4,1.5500003 4,0.9999998 4,0.4500001 4.4050013,0 4.8999992,0 H 12.100001 C 12.595,0 13,0.4500001 13,0.9999998 13,1.5500003 12.595,2 12.100001,2 Z"/>
 <path style="fill:#ffda31" d="M 7.3458591,6.8 C 6.7612404,8.604728 5.6947037,10.386574 4.7014305,11.932031 3.9496613,13.101727 3.6960835,13.39217 3.2442966,14 H 13.768043 C 13.314866,13.392158 13.061089,13.102811 12.307824,11.934375 11.311211,10.388462 10.241189,8.606432 9.6549153,6.8 Z"/>
 <path style="fill:#61b620" d="M 8.2858439,10.25076 C 8.2890315,9.9913703 7.5525619,10.65992 7.654413,9.8389436 7.7072551,9.4130115 8.4055094,9.4301583 8.4360142,9.001988 8.4491768,8.8172248 8.1148497,8.7800859 8.1298864,8.5954698 8.1496039,8.3533422 8.5818761,7.725879 8.5818761,7.725879 c 0,0 -0.143784,0.3947649 -0.072882,0.6189907 C 8.5559151,8.4932608 8.901682,8.73868 8.9407848,8.8893804 8.9908168,9.0822003 8.6078722,9.2070067 8.7137879,9.3750268 8.8437153,9.5811391 9.3137755,9.3330638 9.4158081,9.5547082 9.5957676,9.9456343 8.6383042,11.088094 8.8598155,10.719729 c 0,0 -0.06645,-0.259034 0.4796411,0.182647 0.4824585,0.390216 0.9602974,1.16083 0.4242026,1.679749 -0.5355911,0.518432 -1.5462206,0.504044 -2.244718,0.230581 C 7.2220653,12.696477 6.9445451,11.831603 7.0095487,11.56109 7.1865786,10.824389 8.2788294,10.825902 8.2858439,10.25076 Z"/>
</svg>
