<svg xmlns="http://www.w3.org/2000/svg" width="16" height="16" version="1.1">
 <rect style="fill:#283849" width="16" height="16" x="0" y="0" rx="1.6"/>
 <path style="fill:#00a69b" d="m 3.1183672,12.8 c 0,0 0.7779592,-1.411396 1.8612248,-2.040816 1.7410284,-1.0116248 4.296,-1.0050616 6.040816,0 C 12.110727,11.387232 12.914286,12.8 12.914286,12.8 V 3.1 c 0,0 -0.716931,1.9143676 -1.893878,2.7285712 -1.1287836,0.7808984 -4.3352164,1.0702696 -6.040816,0 C 3.7714288,5.0704328 3.1183672,3.1 3.1183672,3.1 Z"/>
 <path style="fill:#00d5c7" d="m 15,8 c 0,-2.7614286 -0.895443,-5 -2,-5 -1.104556,0 -2,2.2385714 -2,5 0,2.761429 0.895444,5 2,5 1.104557,0 2,-2.238571 2,-5 z"/>
 <path style="fill:#019187" d="m 13.8,8.0000004 c 0,-1.577964 -0.358176,-2.8571433 -0.8,-2.8571433 -0.441824,0 -0.8,1.2791793 -0.8,2.8571433 0,1.5779636 0.358176,2.8571426 0.8,2.8571426 0.441824,0 0.8,-1.279179 0.8,-2.8571426 z"/>
 <path style="fill:#00d5c7" d="M 5,8 C 5,5.2385714 4.104557,3 3,3 1.895444,3 1,5.2385714 1,8 c 0,2.761429 0.895444,5 2,5 1.104557,0 2,-2.238571 2,-5 z"/>
 <path style="fill:#019187" d="M 3.8,8.0000004 C 3.8,6.4220364 3.441824,5.1428571 3,5.1428571 c -0.441824,0 -0.8,1.2791793 -0.8,2.8571433 0,1.5779636 0.358176,2.8571426 0.8,2.8571426 0.441824,0 0.8,-1.279179 0.8,-2.8571426 z"/>
</svg>
