<?xml version="1.0" encoding="UTF-8" standalone="no"?>
<svg xmlns="http://www.w3.org/2000/svg" height="16" width="16" version="1">
 <defs>
  <linearGradient id="linearGradient4924" x1="12.897" gradientUnits="userSpaceOnUse" x2="16.213" gradientTransform="matrix(.61907 0 0 .5 -1.3281 0)" y1="18.858" y2="20.316">
   <stop offset="0"/>
   <stop stop-opacity="0" offset="1"/>
  </linearGradient>
 </defs>
 <g transform="translate(-.577)">
  <path fill="#5d5d5d" d="m7.5772 8-2.0002 3h3v-3h-0.99979z"/>
  <path opacity=".15" fill="url(#linearGradient4924)" d="m7.5772 8-2.0002 3h3v-3h-0.99979z"/>
 </g>
 <polygon display="none" points="664 430.5 588 333 517.5 214 500 192 386 355 328 328 304 332.5 299.5 366 318.5 403.5 338 431 309.5 462 275.5 507 300 533 304 551 318.5 569.5 340.5 583 351.5 604.5 373.5 617 395 637.5 452.5 723 488.5 788.5 502 812.5 551.5 721.5 612.5 637 628.5 616 668 619.5 707 615 713 603 688.5 578 676.5 569.5 693.5 560.5 693.5 540 732.5 497.5" transform="matrix(.063142 0 0 .063142 -131 -40.03)" fill="#5a0e00"/>
 <polygon display="none" points="386 355 328 328 304 332.5 299.5 366 318.5 403.5 338 431 309.5 462 275.5 507 300 533 304 551 318.5 569.5 340.5 583 351.5 604.5 373.5 617 395 637.5 452.5 723 488.5 788.5 502 812.5 551.5 721.5 612.5 637 628.5 616 668 619.5 707 615 713 603 688.5 578 676.5 569.5 693.5 560.5 693.5 540 732.5 497.5 664 430.5 588 333 517.5 214 500 192" transform="matrix(.063142 0 0 .063142 -187.14 -43.613)" fill="#5a0e00"/>
 <path fill="#5d5d5d" d="m1 13h4l3-7 3 7h4l-5-10h-4z"/>
 <path fill="#e33e31" d="m2.5 10 2.5 3h-4z"/>
 <path fill="#e4be21" d="m13.5 10 1.5 3h-4z"/>
 <path fill="#3c8cf8" d="m8 6 2-3h-4z"/>
</svg>
