<svg width="16" height="16" version="1.1" xmlns="http://www.w3.org/2000/svg">
 <rect width="16" height="16" ry="3.6092613" style="fill:#9a5aa6"/>
 <path d="m6.3886719 0c-0.2224183 0.53675183-0.44147 1.2224326-0.4570313 1.9160156-0.019329 0.8615222 0.3730469 1.9609375 0.3730469 1.9609375l1.4121094-0.2597656s-0.4665971-0.6503028-0.4902344-1.7871094c-0.0131024-0.630156 0.1866209-1.2978383 0.3964844-1.8300781h-1.234375zm9.5312501 2.8574219c-0.703861 0.0413023-1.673507 0.1156629-2.353516 0.3007812-1.89162 0.5149538-4.2929685 1.2109375-4.2929685 1.2109375l0.9785155 0.8652344s1.874591-0.6909362 3.429688-0.9941406c0.685563-0.1336674 1.652733-0.1922692 2.318359-0.2246094v-0.40625c0-0.2586161-0.028861-0.509018-0.080078-0.7519531zm-15.898438 0.5371093c-0.004314494 0.0725944-0.021484375 0.1411287-0.021484375 0.2148438v0.84375c0.46780443 0.0991055 1.1214505 0.228211 1.8964844 0.3574219 0.7532683 0.1255821 2.2773437 0.2597656 2.2773437 0.2597656l0.2578125-1.0390625s-1.4082704 0.0224885-2.1015625-0.0859375c-0.9736477-0.152272-1.7627008-0.3794965-2.3085937-0.5507813zm9.4238281 3.2226563-1.046875 0.9902344s1.2676896 0.139206 4.2460935 3.3652341c1.386665 1.501952 2.170039 2.681663 2.628907 3.574219 0.438792-0.586756 0.707505-1.306676 0.720703-2.095703-0.659887-0.938654-1.562011-2.012419-2.888672-3.2089845-1.914459-1.7267211-3.6601565-2.625-3.6601565-2.625zm-4.625 0.3828125c-1.8955995 0.00225-3.1171875 1.2128906-3.1171875 1.2128906l1.0859375 1s0.3493833-0.8564088 1.8085937-0.8164062c1.4030001 0.05309 1.4023438 1.6035156 1.4023438 1.6035156s-5-0.3872815-5 2.419922c0 1.232436 0.9887643 2.40625 2.9921875 2.40625 1.6027381 0 2.0078125-1.228516 2.0078125-1.228516v1.402344l1.9980469 0.027344v-5.011719s0.4122435-3.0198638-3.1777344-3.015625zm0.7109375 3.988281c0.2817188-4e-5 0.46875 0.011719 0.46875 0.011719v0.802734c0 0.401029-0.401462 1.203125-1.6035156 1.203125-1.2020539 0-1.4023438-0.333571-1.4023438-1.001953 0-0.902316 1.6919531-1.015505 2.5371094-1.015625z" style="fill:#ffffff"/>
</svg>
