<svg xmlns="http://www.w3.org/2000/svg" width="16" height="16" version="1">
 <rect fill="#e32037" width="16" height="16" x="-16" y="-16" rx="8" ry="8" transform="matrix(0,-1,-1,0,0,0)"/>
 <g fill="#fff" transform="matrix(.5 0 0 .5 14.5 -1.5)">
  <circle cx="-18.5" cy="14.5" r="1.5"/>
  <circle cx="-14.5" cy="14.5" r="1.5"/>
  <circle cx="-10.5" cy="14.5" r="1.5"/>
  <circle cx="-6.5" cy="14.5" r="1.5"/>
  <circle cx="-22.5" cy="18.5" r="1.5"/>
  <circle cx="-18.5" cy="18.5" r="1.5"/>
  <circle cx="-14.5" cy="18.5" r="1.5"/>
  <circle cx="-10.5" cy="18.5" r="1.5"/>
  <circle cx="-6.5" cy="18.5" r="1.5"/>
  <circle cx="-2.5" cy="18.5" r="1.5"/>
  <circle cx="-22.5" cy="22.5" r="1.5"/>
  <circle cx="-18.5" cy="22.5" r="1.5"/>
  <circle cx="-6.5" cy="22.5" r="1.5"/>
  <circle cx="-2.5" cy="22.5" r="1.5"/>
 </g>
</svg>
