<svg xmlns="http://www.w3.org/2000/svg" width="16" height="16" version="1">
 <path style="fill:#8e8e8e" d="M 1.65,2 C 1.2899,2 1,2.2725553 1,2.6111113 L 1,12.388889 C 1,12.727444 1.2899,13 1.65,13 l 10.725,0 c 0.3601,0 0.65,-0.272556 0.65,-0.611111 l 0,-9.7777777 C 13.025,2.2725553 12.7351,2 12.375,2 Z m 10.4,0 C 11.689899,2 11.4,2.2725553 11.4,2.6111113 l 0,9.7777777 C 11.4,12.727444 11.689899,13 12.05,13 l 1.3,0 C 13.7101,13 14,12.727444 14,12.388889 L 14,2.6111113 C 14,2.2725553 13.7101,2 13.35,2 Z"/>
 <rect style="fill:#ff9205" width="3" height="15" x="0" y="0" rx=".75" ry=".833"/>
 <rect width="3" height="15" x="12" y="0" rx=".75" ry=".833" style="fill:#00c1ee"/>
 <path style="fill:none;stroke:#3f3f3f;stroke-linecap:round;stroke-linejoin:round" d="m 7.4999995,4.5 0,6 m 0,-6 -4.9999995,6 10,0 z"/>
 <path style="fill:#ffffff" d="M 7.4999999,2.9999996 A 1.4999999,1.4999999 0 0 0 6,4.4999997 1.4999999,1.4999999 0 0 0 7.4999999,5.9999996 1.4999999,1.4999999 0 0 0 9,4.4999997 1.4999999,1.4999999 0 0 0 7.4999999,2.9999996 Z"/>
 <path style="fill:#ffffff" d="M 2.4999999,9.000001 A 1.4999998,1.4999998 0 0 0 1,10.500001 a 1.4999998,1.4999998 0 0 0 1.4999999,1.5 1.4999998,1.4999998 0 0 0 1.4999998,-1.5 1.4999998,1.4999998 0 0 0 -1.4999998,-1.5 z"/>
 <path style="fill:#ffffff" d="M 7.4999998,9.000001 A 1.4999998,1.4999998 0 0 0 6,10.500001 a 1.4999998,1.4999998 0 0 0 1.4999998,1.5 1.4999998,1.4999998 0 0 0 1.5000004,-1.5 1.4999998,1.4999998 0 0 0 -1.5000004,-1.5 z"/>
 <path style="fill:#ffffff" d="m 12.499999,9.000001 a 1.4999998,1.4999998 0 0 0 -1.499999,1.5 1.4999998,1.4999998 0 0 0 1.499999,1.5 1.4999998,1.4999998 0 0 0 1.500001,-1.5 1.4999998,1.4999998 0 0 0 -1.500001,-1.5 z"/>
</svg>
