<svg xmlns="http://www.w3.org/2000/svg" width="16" height="16" version="1.1" viewBox="0 0 16 16">
 <path style="fill:#4f4f4f" d="m 15.999875,8.0447534 a 8,8 0 1 0 -15.99974984,0 8,8 0 0 0 15.99974984,0"/>
 <path style="fill:#ffffff" d="m 2.0000001,7.9999994 c 0,3.3084236 2.6915771,5.9999996 6.0000003,5.9999996 C 11.308423,13.999999 14,11.308423 14,7.9999994 c 0,-3.3084228 -2.691577,-6 -5.9999996,-6 -3.3084232,0 -6.0000003,2.6915772 -6.0000003,6 z"/>
 <path style="fill:#366adb" d="m 8,3.418715 0,4.7892844 c -0.3845028,-0.136042 -0.6709136,-0.2073304 -1.1,-0.208 -1.5463972,0 -2.9,0.8954304 -2.9,2 0,1.1045696 1.4536028,1.9999996 3,1.9999996 1.5463972,0 3,-0.89543 3,-1.9999996 l 0,-5.0003276 c 0,0 2.267785,1.1586676 1.324713,2.0234376 -0.259008,0.1485704 -0.343938,0.378196 -0.298438,0.5781248 0.06909,0.3036088 0.438416,0.5394648 0.951562,0.321094 0.771015,-0.4019892 1.021888,-1.1226564 1.021888,-1.7226564 0,-1.8 -2.999725,-3.2 -4.599725,-3.2 C 8,2.9996718 8,3.418715 8,3.418715 Z"/>
</svg>
