<?xml version="1.0" encoding="UTF-8" standalone="no"?>
<svg id="svg2817" xmlns:rdf="http://www.w3.org/1999/02/22-rdf-syntax-ns#" xmlns="http://www.w3.org/2000/svg" height="16" width="16" version="1.0" xmlns:cc="http://creativecommons.org/ns#" xmlns:dc="http://purl.org/dc/elements/1.1/">
 <metadata id="metadata57">
  <rdf:RDF>
   <cc:Work rdf:about="">
    <dc:format>image/svg+xml</dc:format>
    <dc:type rdf:resource="http://purl.org/dc/dcmitype/StillImage"/>
    <dc:title/>
   </cc:Work>
  </rdf:RDF>
 </metadata>
 <g id="layer4-0" transform="matrix(.90475 0 0 .90475 -716.75 -708.29)">
 </g>
 <g id="layer4-0-7" transform="matrix(.90475 0 0 .90475 -716.75 -701.05)">
 </g>
 <text id="text7276" font-size="12.666px" xml:space="preserve" y="-393.22546" x="435.90427" font-family="&apos;Droid Sans&apos;" fill="#000000"><tspan id="tspan7278" y="-393.22546" x="435.90427"/><tspan id="tspan7280" y="-377.3924" x="435.90427"/></text>
 <circle id="path4058-7" style="enable-background:new" cx="8" cy="8" r="8" fill="#e16262"/>
 <path id="path5865" style="enable-background:new" fill="#fff" d="m8 4c-2.2091 0-4 1.7909-4 4s1.7909 4 4 4c1.8142 0 3.3495-1.2018 3.8393-2.8571h-1.2321c-0.44244 1.0054-1.4382 1.7143-2.6071 1.7143-1.578 0-2.8571-1.2792-2.8571-2.8571 0-1.578 1.2792-2.8571 2.8571-2.8571 0.78946 0 1.4946 0.3286 2.0089 0.84821l-1.4375 1.4375h3.4286v-3.428l-1.173 1.173c-0.725-0.723-1.722-1.173-2.827-1.173z"/>
</svg>
