<svg xmlns="http://www.w3.org/2000/svg" width="16" height="16" version="1.1" viewBox="0 0 16 16">
 <g transform="translate(0,-1036.3622)">
  <path d="m 16,1047.6122 0,-10.5 c 0,-0.4155 -0.3568,-0.75 -0.8,-0.75 l -14.4,0 c -0.4432,0 -0.8,0.3345 -0.8,0.75 l 0,10.5 c 0,0.4155 0.3568,0.75 0.8,0.75 l 14.4,0 c 0.4432,0 0.8,-0.3345 0.8,-0.75 z" style="fill:#86603b"/>
  <path style="fill:#c28a52" d="m 16,1049.6122 0,-10.5 c 0,-0.4155 -0.3568,-0.75 -0.8,-0.75 l -14.4,0 c -0.4432,0 -0.8,0.3345 -0.8,0.75 l 0,10.5 c 0,0.4155 0.3568,0.75 0.8,0.75 l 14.4,0 c 0.4432,0 0.8,-0.3345 0.8,-0.75 z"/>
  <path style="fill:#fabd7f" d="m 16,1051.6122 0,-10.5 c 0,-0.4155 -0.3568,-0.75 -0.8,-0.75 l -14.4,0 c -0.4432,0 -0.8,0.3345 -0.8,0.75 l 0,10.5 c 0,0.4155 0.3568,0.75 0.8,0.75 l 14.4,0 c 0.4432,0 0.8,-0.3345 0.8,-0.75 z"/>
 </g>
</svg>
