<svg xmlns="http://www.w3.org/2000/svg" width="16" height="16" version="1.1">
 <rect style="fill:#e97e10" width="8" height="11" x="0" y="3" ry="1.1"/>
 <rect style="fill:#e97e10" width="8" height="11" x="8" y="3" ry="1.1"/>
 <path style="fill:#e4e4e4" d="M 8.888889,2 C 8.3964446,2 8,2.424762 8,2.9523809 V 12 h 5.111112 C 13.603555,12 14,11.575236 14,11.04762 V 10.095237 3.904762 2.9523809 C 14,2.424762 13.603555,2 13.111112,2 Z"/>
 <path style="opacity:0.05" d="M 8.888889,2 C 8.3964446,2 8,2.424762 8,2.9523809 V 12 h 5.111112 C 13.603555,12 14,11.575236 14,11.04762 V 10.095237 3.904762 2.9523809 C 14,2.424762 13.603555,2 13.111112,2 Z"/>
 <rect style="opacity:0.2" width="4.571" height=".762" x="3.43" y="4.71" ry="0"/>
 <rect style="opacity:0.2" width="4.571" height=".762" x="3.43" y="6.24" ry="0"/>
 <path style="fill:#e4e4e4" d="M 7.111111,2 C 7.603555,2 8,2.424762 8,2.9523809 V 12 H 2.888888 C 2.396445,12 2,11.575236 2,11.04762 V 10.095237 3.904762 2.9523809 C 2,2.424762 2.396445,2 2.888888,2 Z"/>
 <path style="fill:#df574d" d="m 10,2 v 7 h 2 V 2 Z"/>
 <path style="fill:#3f3f3f" d="m 3.7810772,2.8541592 -1.006628,2.9929576 -0.2827257,0.064209 v 0.124275 H 3.552204 V 5.9113256 L 3.0664956,5.8471168 3.3647558,4.9751201 h 1.1630074 l 0.293082,0.8719967 -0.4732809,0.064209 v 0.124275 H 5.6731649 V 5.9113256 L 5.2982685,5.8471168 4.2522868,2.8541592 Z M 3.936421,3.1928087 4.4594119,4.71 H 3.4300001 Z m 2.6822699,0.721831 c -0.1719839,0 -0.3855393,0.025153 -0.6120547,0.075601 v 0.4546396 h 0.1315245 l 0.071458,-0.2640845 c 0.1160548,-0.067743 0.201932,-0.1014913 0.3417563,-0.1014913 0.1034695,0 0.1788988,0.033117 0.2278379,0.09942 0.050336,0.066301 0.076636,0.1688047 0.076636,0.3086163 v 0.2713339 l -0.296189,0.00829 c -0.212533,0.00432 -0.3324235,0.035285 -0.4442835,0.08285 -0.111859,0.046127 -0.1937079,0.1136201 -0.2454429,0.2029826 -0.050336,0.087925 -0.075601,0.1990199 -0.075601,0.334507 0,0.4035808 0.1684085,0.6483015 0.5053852,0.6483015 0.2474886,0 0.4091583,-0.082166 0.5685581,-0.2464789 l 0.039355,0.2464737 h 0.584093 V 5.9372162 L 7.2794201,5.8833637 v -1.4157 C 7.2782138,4.280291 7.2375401,4.1421474 7.1354678,4.0513422 7.0347943,3.9605367 6.8340204,3.9146397 6.6186909,3.9146397 Z M 6.8558493,4.978227 v 0.7011185 c -0.069912,0.034593 -0.1403196,0.062896 -0.2102323,0.085957 -0.068514,0.021613 -0.1079012,0.032104 -0.2029823,0.032104 -0.1999488,0 -0.3003312,-0.1046488 -0.3003312,-0.3583263 0,-0.1585502 0.032668,-0.2719417 0.098384,-0.3396852 0.067117,-0.067739 0.15232,-0.1056718 0.3396857,-0.1128832 z"/>
</svg>
