<svg width="16" height="16" version="1" xmlns="http://www.w3.org/2000/svg">
 <rect transform="matrix(0,-1,-1,0,0,0)" x="-14" y="-16" width="12" height="16" rx=".75" ry=".8" style="fill:#dd2d2d"/>
 <rect x="13" y="4" width="2" height="2" rx=".45" ry=".436" style="opacity:.4"/>
 <path d="m6.2154197 5.0000452c-0.1945062-4e-3 -0.227963 0.258639-0.2118859 0.4482382 0.00143 1.7744721-0.0025 3.5491847 0.00179 5.3235776 0.017104 0.212159 0.2341498 0.296927 0.3575513 0.165356 1.3188517-0.908476 3.237217-1.8107129 4.5541049-2.7231096 0.143694-0.1255834 0.08866-0.418038-0.071727-0.4788379-1.318892-0.9048761-3.2323548-1.8147122-4.55232-2.7165084-0.0246536-0.0123188-0.0511518-0.0186788-0.0776635-0.01872z" style="fill:#3f3f3f"/>
 <rect x="13" y="7" width="2" height="2" rx=".45" ry=".436" style="opacity:.4"/>
 <rect x="13" y="10" width="2" height="2" rx=".45" ry=".436" style="opacity:.4"/>
 <rect x="1" y="4" width="2" height="2" rx=".45" ry=".436" style="opacity:.4"/>
 <rect x="1" y="7" width="2" height="2" rx=".45" ry=".436" style="opacity:.4"/>
 <rect x="1" y="10" width="2" height="2" rx=".45" ry=".436" style="opacity:.4"/>
</svg>
