<svg xmlns="http://www.w3.org/2000/svg" width="16" height="16" x="0" y="0" version="1.1" viewBox="0 0 16 16" xml:space="preserve">
 <circle style="fill:#e4e4e4" cx="7.5" cy="8.5" r="7.5"/>
 <path style="fill:#3f3f3f" d="m 10.977042,5.6281634 c 0.0364,0.3187323 -0.02682,0.6505122 0.0096,0.9748365 0.03831,0.3522835 -0.01149,0.723206 -0.07662,1.0698972 -0.0077,-0.2814536 -0.01533,-0.5666349 -0.03065,-0.8424973 -0.01533,-0.2907733 -0.134087,-0.5890025 -0.214541,-0.8723205 0.0862,0.5964587 0.12451,1.2003726 0.139835,1.7986947 0.01149,0.4622553 0.01341,0.9431499 -0.06513,1.3942215 -0.07662,0.4398882 -0.312234,0.8816405 -0.459731,1.2898415 -0.218372,0.603914 -0.149413,1.410997 -0.201133,2.074557 0,0 -0.05172,0.115564 -0.1398343,-0.447344 C 9.8200515,11.307566 9.7540736,10.474388 9.7693967,9.700856 V 9.682212 c 0,-0.00935 -0.00189,-0.026096 -0.00189,-0.026096 0,0 -0.024904,0.070826 -0.028731,0.09133 -0.00189,0.00748 -0.00574,0.027956 -0.00574,0.033547 v 0.00187 c -0.00189,0.00935 -0.00385,0.020504 -0.00574,0.033547 -0.00189,0.00748 -0.00189,0.013043 -0.00385,0.020505 -0.00189,0.013043 -0.00574,0.029827 -0.00766,0.04474 -0.00189,0.00748 -0.00385,0.016774 -0.00385,0.024235 -0.011492,0.061514 -0.026819,0.137931 -0.045973,0.229264 -0.093862,0.438024 -0.6620705,0.635739 -0.7252834,1.077491 -0.00189,0.0094 -0.8635898,0.07825 -0.00385,0.0261 -0.05172,0.305684 -0.079709,0.410908 -0.2731789,0.625261 -0.2049631,0.227399 -0.07531,-0.138893 -0.353064,0.0214 0.2655623,0.06706 0.011496,-0.0075 0,0 -0.371616,0.24604 0.7610734,-0.222726 0.3722179,-0.01769 -0.026819,0.01491 0.1947927,-0.2105 -0.019153,-0.0037 0.7069751,-0.301795 -0.4355593,0.627781 -0.4221524,0.612867 0.099609,-0.10438 -0.065129,0.117428 0,0 0.5381387,-0.728202 -0.00189,0.0037 0,0 0.2145413,-0.424976 -0.1243816,-0.153437 0.069088,-0.591461 0,0 -0.053636,0.07829 -0.1206794,0.171481 -0.084284,0.115564 -0.1953855,0.257223 -0.2413585,0.311277 -0.3639537,0.428704 -0.6206367,1.051258 -1.0018303,1.459459 -0.1379194,0.147252 -0.3735313,0.203169 -0.5286903,0.346692 -0.1455818,0.134203 -0.354376,0.221808 -0.5440154,0.253495 -0.3064867,0.05032 -0.6321297,0.232991 -0.9443634,0.344827 0,0 0.183892,-0.214352 0.3179807,-0.38397 0.2796694,-0.357875 0.5382683,-0.734389 0.7738802,-1.123951 -0.00574,0.0037 -0.164737,0.130475 -0.2681765,0.348555 C 5.5732728,13.999122 5.1231196,14.288031 4.810886,14.58626 4.5810574,14.806151 4.2573302,14.934762 3.9450964,15 3.4183215,14.979495 2.8819689,14.923583 2.3705183,14.800559 1.9452672,14.696179 1.1694714,14.455731 1.0143122,14.170549 0.9932415,14.12954 0.9836634,13.965517 1.0717787,13.808947 c 0.1532436,-0.272134 0.4616463,-0.49767 0.6493698,-0.762349 0.3524603,-0.501397 0.8562486,-1.261882 1.3638682,-1.558247 0.2815849,-0.164026 0.6589478,-0.262815 0.9884211,-0.39329 0.1513286,-0.05033 0.2241188,-0.07642 0.3735317,-0.130476 -0.371616,0.08015 -0.7298227,0.216216 -1.0841986,0.346692 0,0 0.00189,0.0037 0.1915543,-0.242311 0.21071,-0.272135 0.4884638,-0.49767 0.7336538,-0.736254 0.4309978,-0.4193846 1.4807165,-1.0978558 1.4807165,-1.0978558 0,0 -0.5574233,0.3243247 -0.8485864,0.3280525 C 4.743879,9.564779 4.5714797,9.6654245 4.4258983,9.7548933 4.6059591,9.5573135 4.7994292,9.3653289 4.9852374,9.1752077 5.3606841,8.7875096 5.8759655,8.5097835 6.3356967,8.2190102 6.1077467,8.2656088 5.8548948,8.2432426 5.6269448,8.2096914 6.0598579,7.9450127 6.4812777,7.6449198 6.8433163,7.300092 7.7340445,6.4482753 8.1727042,5.1994407 8.8623008,4.2134201 9.1783656,3.7623485 9.6151099,3.3690587 10.034614,3 c 0,0 0.27967,0.041006 0.321812,0.1975769 0.10344,0.3895619 0.27967,0.77726 0.415674,1.1649578 0.14175,0.3970176 0.157075,0.8480892 0.204963,1.2656099 z"/>
 <path style="fill:#41d444" d="m 9.5654144,7.4407604 c -0.058074,0.018377 0.2635693,1.0362839 0.3663164,1.4974659 0.04914,0.2204861 0.08488,0.450159 0.06031,0.6743205 0,0 -0.02904,0.069825 -0.0335,0.090027 -0.0022,0.00735 -0.0067,0.027563 -0.0067,0.033075 0,0 0,0 0,0.00184 -0.0022,0.011025 -0.0045,0.020212 -0.0067,0.033075 -0.0022,0.00735 -0.0022,0.012862 -0.0045,0.020203 -0.0022,0.012862 -0.0067,0.0294 -0.0089,0.044099 -0.0022,0.00735 -0.0045,0.016538 -0.0045,0.023887 -0.0134,0.060637 -0.03127,0.1359651 -0.05361,0.2259982 -0.1094465,0.431784 -0.1876243,0.869082 -0.2613346,1.304541 -0.00218,0.0092 -0.00218,0.01653 -0.00448,0.02572 -0.060308,0.30133 -0.1742238,0.429947 -0.3998209,0.641246 -0.2389982,0.22416 -0.527137,0.505279 -0.8510139,0.663295 -0.00894,0.0055 -0.022337,0.01102 -0.035739,0.01837 -0.4333249,0.242535 -0.8353782,0.549378 -1.2888058,0.751489 -0.031273,0.0147 -0.042442,0.0147 -0.022333,-0.0036 0.015635,-0.0147 0.031273,-0.02756 0.046906,-0.04227 0.116149,-0.102892 0.2278304,-0.216811 0.3037737,-0.332566 0.00218,-0.0036 0.00448,-0.0074 0.0067,-0.01102 0.2501664,-0.418923 0.4757632,-0.858056 0.7013603,-1.289842 0.011171,-0.01654 0.015635,-0.02572 0.024575,-0.04227 0.022337,-0.03675 0.037971,-0.07716 0.04914,-0.121267 C 8.2721048,11.089802 8.4105901,10.443043 8.2609366,9.8863156 8.1269147,9.3920603 8.1179799,9.5133278 8.1179799,9.5133278 8.0844784,9.752187 8.0308684,9.9928846 7.9504578,10.222556 c -0.062542,0.174553 -0.1764573,0.327056 -0.1920925,0.417087 -0.042442,0.237023 0.07371,0.479557 0.080411,0.494256 -0.00669,-0.0092 -0.107214,-0.148828 -0.1295508,-0.356452 -0.024566,-0.225998 0.1407193,-0.47037 0.2010268,-0.677994 0.09828,-0.3362421 -0.09828,-0.8213101 -0.011169,-1.0656819 0.2255966,-0.6449216 1.1101146,-1.6407824 1.4697297,-2.5337503 0.1876256,0.4777194 0.3328112,0.9976985 0.5338386,1.4423452 0.01787,0.040422 0.02457,0.053283 0.0067,0.034911 C 9.8155299,7.7990681 9.5653631,7.4407787 9.5653631,7.4407787 Z"/>
 <path style="fill:#666666" d="M 9.7653377,7.1047618e-7 C 10.067188,1.1151173 10.072956,2.2609957 10.021045,3.3991837 9.963367,4.6373474 9.4961716,5.937035 9.0924223,7.1059851 7.9650013,10.338926 5.3096066,12.791754 2.3693824,13.925823 2.0732998,14.033489 1.74261,14.071941 1.4292238,14.081554 1.19851,14.087354 1.0331651,14.073854 1.0254747,14.073854 1.7060803,13.93159 2.3962991,13.72587 3,13.377877 4.6745977,12.410801 5.9028451,11.527045 7.1371233,10.059121 7.9350558,9.1101421 8.3522158,7.9365538 8.7636554,6.7599135 9.1424104,5.6717135 9.5557727,4.5316031 9.669207,3.3818793 9.7557243,2.5032444 9.7518794,1.6034607 9.5942249,0.73059357 9.648058,0.54794515 9.6711293,0.45565963 9.7115045,0.27301122 9.734575,0.16149956 9.7461102,0.10766635 9.7653377,-5.1428554e-8 Z"/>
</svg>
