<?xml version="1.0" encoding="UTF-8" standalone="no"?>
<svg xmlns="http://www.w3.org/2000/svg" height="16" width="16" version="1">
 <rect style="enable-background:new" ry=".5" height="6" width="7" y="2" x="9" fill="#4caf50"/>
 <rect style="enable-background:new" ry=".5" height="5" width="7" y="6" x="9" fill="#2196f3"/>
 <rect style="enable-background:new" ry=".5" height="4" width="6" y="10" x="10" fill="#f9ce1d"/>
 <path d="m2 0c-0.554 0-1 0.446-1 1v14c0 0.554 0.446 1 1 1h3v-16z" style="enable-background:new" fill="#333"/>
 <path d="m3 0v16h11c0.554 0 1-0.446 1-1v-14c0-0.554-0.446-1-1-1h-11z" style="enable-background:new" fill="#f44336"/>
 <path d="m5 4v8.9983h2.6662c4.6658 0 4.8324-2.8328 4.8324-4.4991 0-1.6661-0.168-4.5814-4.8328-4.4989zm2.6662 1.9996c1.9996 0 2.6662 0.49991 2.6662 2.4995s-0.66654 2.4995-2.6662 2.4995h-0.66654v-4.999z" fill="#f9f9f9"/>
</svg>
