<svg xmlns="http://www.w3.org/2000/svg" width="16" height="16" version="1.1">
 <circle style="fill:#44c7aa" cx="8" cy="8" r="8"/>
 <path style="fill:#2c3638" d="M 4.8671875 5 C 4.6769643 4.9996 4.5619337 5.0110762 4.3945312 5.0351562 C 3.6707852 5.1392726 3.2379332 5.3384777 2.8398438 5.7480469 C 2.4301685 6.1695361 2.1929047 6.5789418 2.0625 7.0898438 C 1.998485 7.3406442 1.9910385 7.435598 2.0078125 7.8652344 C 2.0314175 8.4698212 2.1062384 8.7744326 2.3398438 9.234375 C 2.7043277 9.9520025 3.1783127 10.367429 3.9082031 10.603516 C 4.4006163 10.76279 5.4220372 10.927462 6.2226562 10.976562 C 7.0278051 11.025942 9.822884 10.992944 10.355469 10.927734 C 11.347523 10.806272 12.149801 10.603267 12.625 10.355469 C 13.044122 10.136915 13.54618 9.5544559 13.755859 9.0429688 C 13.888527 8.7193426 13.971165 8.3157465 13.994141 7.8828125 C 14.021611 7.3651637 13.958621 7.0244284 13.753906 6.5976562 C 13.379006 5.8160906 12.707169 5.2419865 11.96875 5.0703125 C 11.60682 4.9861995 10.362182 4.9869836 9.0585938 5.0722656 C 8.0012338 5.1414306 7.6217268 5.1381015 5.7929688 5.0390625 C 5.3226165 5.0135885 5.0574107 5.0004136 4.8671875 5 z M 5.5996094 6 A 1.3993166 2 0 0 1 7 8 A 1.3993166 2 0 0 1 5.5996094 10 A 1.3993166 2 0 0 1 4.1992188 8 A 1.3993166 2 0 0 1 5.5996094 6 z M 10.400391 6 A 1.3993166 2 0 0 1 11.800781 8 A 1.3993166 2 0 0 1 10.400391 10 A 1.3993166 2 0 0 1 9 8 A 1.3993166 2 0 0 1 10.400391 6 z"/>
</svg>
