<svg xmlns="http://www.w3.org/2000/svg" width="16" height="16" version="1.1">
 <path style="fill:#e97e10;fill-rule:evenodd" d="M 1.2986663,0.29319093 C 1.6679906,0.55106994 2.1837995,0.93874316 2.6318078,1.288556 2.973564,1.6082821 3.0285236,1.7647392 3.0285236,2.2736811 v 5.8647468 c 0,1.561848 0.1825448,2.6947861 -0.3420952,3.8777761 -0.5790204,1.305611 -1.6159165,2.26363 -2.46195531,3.42147 -0.80557124,0.996222 0.76921832,0.521022 1.38700621,0.208652 1.324067,-0.669482 2.5917683,-1.411003 4.1779112,-1.584136 1.9997463,-0.03952 3.5804964,-0.0076 5.3978005,-0.04838 C 14.47619,14.01381 16,10.666635 16,6.5309829 16,3.0475879 14.47619,-3.116e-5 10.878297,0.01681756 7.801421,0.00257619 2.6988133,3.7234476e-4 1.2773337,3.1278095e-5 0.8711157,-3.116e-5 1.0414847,0.11459554 1.2986663,0.29319093 Z"/>
 <path style="fill:#ffffff;fill-rule:evenodd" d="m 6.6427137,2.0001633 c 1.1690696,0.00232 3.5661443,0.036162 4.0362423,0.2715248 2.053306,1.1898575 2.360546,2.6169251 2.317325,4.6501972 0.05694,1.8398076 -0.59989,3.8235087 -2.317325,4.7642977 C 10.052159,11.999999 6.1040588,12 6.1040588,12 L 6,2.002002 c 0,0 0.2530248,-0.00261 0.6427137,-0.00187 z"/>
 <path style="fill:#c2352a;fill-rule:evenodd" d="m 4.9861459,7.9567381 c -0.050166,0.024949 0.1935276,0.3779927 0.3515326,0.5982141 0.4077002,0.7633911 1.0735146,0.8087374 1.4694941,0.9857889 0.2384828,0.1066311 0.1837798,0.4642859 0.1837798,0.4642859 v 4.973364 c 0,0.371504 -0.2861221,0.60561 -0.4082589,0.650298 C 6.410292,15.691769 6,15.813957 6,15.813957 v 0.186012 H 8.2589288 10 v -0.186012 c 0,0 -0.4654497,-0.122189 -0.6378508,-0.185268 -0.1221371,-0.04469 -0.342009,-0.278797 -0.3435776,-0.650298 V 10.841336 10.005027 9.912765 c 0,-0.3998579 0.3538218,-0.4972518 0.4933037,-0.5572918 0.18896,-0.081338 0.359172,-0.093266 0.4510145,-0.2790179 0.09184,-0.185752 -0.1153255,-0.093425 -0.1837795,-0.093006 -0.6595449,0.00385 -2.1453008,0 -2.1453008,0 C 7,9 6.2889837,9.0969377 5.8890179,8.7409644 L 5.0538541,7.9976607 c -0.034441,-0.03483 -0.056131,-0.046683 -0.067708,-0.040923 z"/>
 <path style="fill:#c2352a;fill-rule:evenodd" d="m 16.043854,7.9567381 c 0.05017,0.024949 -0.193527,0.3779927 -0.351532,0.5982141 -0.407701,0.7633911 -1.073515,0.8087374 -1.469495,0.9857889 -0.238482,0.1066311 -0.183779,0.4642859 -0.183779,0.4642859 v 4.973364 c 0,0.371504 0.286122,0.60561 0.408258,0.650298 0.172402,0.06308 0.582694,0.185268 0.582694,0.185268 v 0.186012 H 12.771071 11.03 v -0.186012 c 0,0 0.46545,-0.122189 0.637851,-0.185268 0.122137,-0.04469 0.342009,-0.278797 0.343577,-0.650298 V 10.841336 10.005027 9.912765 c 0,-0.3998579 -0.353821,-0.4972518 -0.493303,-0.5572918 -0.18896,-0.081338 -0.359172,-0.093266 -0.451015,-0.2790179 -0.09184,-0.185752 0.115326,-0.093425 0.18378,-0.093006 0.659545,0.00385 2.145301,0 2.145301,0 C 14.03,9 14.741016,9.0969377 15.140982,8.7409644 l 0.835164,-0.7433037 c 0.03444,-0.03483 0.05613,-0.046683 0.06771,-0.040923 z"/>
</svg>
