<svg xmlns="http://www.w3.org/2000/svg" height="16" width="16" version="1.1">
 <circle cx="8" cy="8" r="8" style="fill:#4f4f4f"/>
 <path style="fill:#ffffff" d="m12.164062 4.6972656c-0.047607-0.0058597-0.101562-0.0006521-0.164062 0.0136719-1.195572 0.2740061-1.142578 0.7792969-1.142578 0.7792969s0.142578-0.4902344-0.857422-0.4902344-2 1-2 1-1-0.2875652-3 0c-2.0669473 0.297191-2 2-2 2v1s1.2187327 0.7812673 2 0c1 1 4 1 4 1l3.201172 4.800781a8 8 0 0 0 3.173828 -3.703125c-0.635215-0.924974-1.652688-2.3753435-2.375-3.097656l-1-1s0.878174-2.2148392 0.164062-2.3027344z"/>
</svg>
