<?xml version="1.0" encoding="UTF-8" standalone="no"?>
<svg
   width="16"
   height="16"
   version="1.1"
   id="svg2"
   sodipodi:docname="enteauth@16x16.svg"
   inkscape:version="1.4 (1:1.4+202410161351+e7c3feb100)"
   xmlns:inkscape="http://www.inkscape.org/namespaces/inkscape"
   xmlns:sodipodi="http://sodipodi.sourceforge.net/DTD/sodipodi-0.dtd"
   xmlns="http://www.w3.org/2000/svg"
   xmlns:svg="http://www.w3.org/2000/svg">
  <defs
     id="defs2" />
  <sodipodi:namedview
     id="namedview2"
     pagecolor="#505050"
     bordercolor="#ffffff"
     borderopacity="1"
     inkscape:showpageshadow="0"
     inkscape:pageopacity="0"
     inkscape:pagecheckerboard="1"
     inkscape:deskcolor="#505050"
     inkscape:zoom="33.1875"
     inkscape:cx="8"
     inkscape:cy="8"
     inkscape:window-width="1366"
     inkscape:window-height="708"
     inkscape:window-x="0"
     inkscape:window-y="32"
     inkscape:window-maximized="1"
     inkscape:current-layer="svg2" />
  <g
     id="g2">
    <rect
       x="-6e-7"
       y="-6.4e-7"
       width="15.999991"
       height="15.999991"
       ry="3.3226551"
       style="fill:#af47e5"
       id="rect1" />
    <path
       d="m2 3.45227 2.98213-1.31997c1.64018-0.72598 2.9834-1.319861 3.01786-1.319756 0.03454 1.57e-4 1.4196 0.599166 3.04491 1.319756l2.9551 1.31997v4.72258c0 4.58815-4.88392 7.01255-6.00001 7.01255-1.11608 0-5.99999-2.5901-5.99999-7.01255z"
       style="fill-rule:evenodd;fill:#ececec"
       id="path1" />
    <path
       d="m5.8258 12c-0.53275-0.0091-0.8258-0.5498-0.8258-0.7953v-3.254c0-0.33401 0.20794-0.95071 0.99969-0.95071v-1.83329c-0.01755-0.66847 0.85535-1.1667 2.00051-1.1667 1.14517 0 1.99973 0.43759 1.99973 1.1667v1.83329c0.87587 0 1.00007 0.63781 1.00007 0.95071v3.254c0 0.3991-0.3714 0.8043-0.8785 0.7951zm3.17406-5.00001v-1.102c0-0.62746-0.35682-0.89104-0.99966-0.898-0.64284-0.00708-1.00045 0.22673-1.00045 0.898v1.102z"
       style="fill-rule:evenodd;fill:#af47e5"
       id="path2" />
  </g>
</svg>
