<svg xmlns="http://www.w3.org/2000/svg" width="16" height="16" version="1.1">
 <path style="fill:#8f100f" d="M 3.9830507,1.8825189e-4 C 3.6321024,0.00767194 3.3270245,0.24305857 3.2307519,0.58063298 L 0.03094178,11.780169 c -0.1213272,0.424993 0.12493554,0.867854 0.54996734,0.989021 L 11.780244,15.969058 c 0.424986,0.121329 0.867839,-0.124938 0.989003,-0.549978 L 15.969058,4.2195445 C 16.090385,3.7945513 15.844122,3.3516904 15.41909,3.2305231 L 4.2197555,0.03065578 C 4.1428209,0.00872229 4.063032,-0.00154808 3.9830507,1.8825189e-4 Z"/>
 <path style="fill:#ffffff" d="M 1,2 C 1,2 5,2.5456472 7.9996439,3.1997739 10.844945,3.8202435 11,7.3999366 11,7.3999366 V 11 L 8,10 V 8 C 8,8 8.0000891,5.9998944 6,5.9998944 V 12 L 3,11 V 5.5 L 1,5 Z"/>
 <path style="fill:#fcd6ae" d="m 11,3.9999294 c 0,0 1,1.2000212 1,4.0000706 1,0.094922 1.000089,1.2000212 1.000089,1.2000212 L 13,14 16,15 V 9.2000212 c 0,0 -0.199787,-3.2000565 -2.999911,-4.4000777 C 12.340093,4.5170957 11,3.9999294 11,3.9999294 Z"/>
</svg>
