<svg xmlns="http://www.w3.org/2000/svg" width="16" height="16" version="1">
 <path style="fill:#1c5b6c" d="m 8.0417752,6e-8 v 7.8e-4 A 1.7755407,1.8191538 0 0 0 7.1120877,0.24296798 L 1.8879123,3.3335821 A 1.7755407,1.8191538 0 0 0 0.99999994,4.9093585 v 6.1812285 a 1.7755407,1.8191538 0 0 0 0.88791236,1.574994 l 5.2241754,3.090615 a 1.7755407,1.8191538 0 0 0 1.7758242,0 L 14.112088,12.665581 A 1.7755407,1.8191538 0 0 0 15,11.090587 V 4.9093585 A 1.7755407,1.8191538 0 0 0 14.112088,3.3335821 L 8.8879119,0.24296798 A 1.7755407,1.8191538 0 0 0 8.0417752,6e-8 Z"/>
 <path style="fill:#ffffff" d="M 5.0390625 5.0019531 C 4.9143748 5.0046231 4.793134 5.0110204 4.7207031 5.0214844 C 4.373382 5.0717444 4.0805475 5.1756731 3.8339844 5.3359375 C 3.3739146 5.6349787 3.1060517 6.1023577 3.0175781 6.7578125 C 2.9942091 6.9309831 2.9941551 7.283643 3.0175781 7.4492188 C 3.1238288 8.2007317 3.5368088 8.8552955 4.25 9.4023438 C 4.5467963 9.6299947 4.9066596 9.843849 5.2402344 9.9902344 C 5.2615944 9.9996144 5.2600068 10.000184 5.2773438 10.007812 C 5.2759937 10.042993 5.2734375 10.07366 5.2734375 10.111328 C 5.2734375 11.625136 6.3722788 12.865188 7.7714844 12.988281 C 7.7719114 12.988648 7.7749906 12.996094 7.7753906 12.996094 C 7.7763456 12.992294 7.7763437 12.991981 7.7773438 12.988281 C 7.8507837 12.994581 7.925039 13 8 13 C 8.124071 13 8.2455574 12.987703 8.3652344 12.970703 C 8.3687344 12.972003 8.3739131 12.979016 8.3769531 12.978516 C 8.7925001 12.913616 9.1693535 12.757406 9.4921875 12.527344 C 9.5090075 12.515664 9.5264088 12.504238 9.5429688 12.492188 C 9.5675187 12.473767 9.5913844 12.454877 9.6152344 12.435547 C 10.288947 11.909564 10.726563 11.065828 10.726562 10.111328 C 10.726562 10.073978 10.724056 10.044673 10.722656 10.009766 C 10.740626 10.001866 10.739349 10.000064 10.761719 9.9902344 C 11.009331 9.8815723 11.316249 9.7109713 11.546875 9.5527344 C 12.236712 9.0794142 12.689949 8.5094506 12.890625 7.8652344 C 12.970515 7.6087536 13.000258 7.4025505 13 7.1054688 C 12.999091 5.9241826 12.385414 5.1815462 11.279297 5.0214844 C 11.134434 5.0005384 10.795569 4.9936225 10.623047 5.0078125 C 9.7429561 5.0802215 8.8439215 5.4585141 8.1484375 6.0507812 C 8.0551075 6.1302623 8.023773 6.1503906 8 6.1503906 C 7.97621 6.1503906 7.9448955 6.1302803 7.8515625 6.0507812 C 7.1560585 5.4585244 6.2589968 5.080221 5.3789062 5.0078125 C 5.2926443 5.0007125 5.1637503 4.9993031 5.0390625 5.0019531 z M 5.6660156 7.0136719 C 5.7316776 7.0109619 5.7948639 7.0145486 5.8339844 7.0253906 C 5.9051584 7.0451226 6.0698687 7.1274265 6.1738281 7.1953125 C 6.4682966 7.3876018 6.6388074 7.6890901 6.703125 8.1269531 C 6.724911 8.2753478 6.7229704 8.3151046 6.6933594 8.34375 C 6.6758594 8.360687 6.6580954 8.3671875 6.6308594 8.3671875 C 6.5960864 8.3671875 6.5849889 8.3610264 6.5078125 8.2851562 C 6.2924153 8.0734278 6.0488653 7.9103805 5.7753906 7.796875 C 5.7130286 7.7709738 5.5749018 7.7223468 5.46875 7.6894531 C 5.2580898 7.6241754 5.1625784 7.5825219 5.1035156 7.5273438 C 5.0523156 7.4795127 5.0332031 7.4427381 5.0332031 7.3886719 C 5.0332031 7.2550126 5.2158545 7.1119625 5.4785156 7.0390625 C 5.5312876 7.0244235 5.6003543 7.0163869 5.6660156 7.0136719 z M 10.394531 7.0175781 C 10.481441 7.0282331 10.573577 7.0522735 10.65625 7.0859375 C 10.782543 7.1373815 10.904661 7.2305246 10.945312 7.3066406 C 10.969653 7.3522506 10.970849 7.4229967 10.949219 7.4628906 C 10.901779 7.5504406 10.797049 7.6070663 10.53125 7.6894531 C 10.229274 7.7830571 10.071379 7.8542612 9.8613281 7.9882812 C 9.7366961 8.0677982 9.6069365 8.1723673 9.4921875 8.2851562 C 9.4149875 8.3610342 9.4039056 8.3671875 9.3691406 8.3671875 C 9.3419106 8.3671875 9.3241406 8.360685 9.3066406 8.34375 C 9.2770306 8.315102 9.275115 8.2753479 9.296875 8.1269531 C 9.361195 7.6890901 9.533657 7.3876014 9.828125 7.1953125 C 9.932086 7.1274265 10.0968 7.0451227 10.167969 7.0253906 C 10.226859 7.0090626 10.307622 7.0069301 10.394531 7.0175781 z M 7.3730469 9.6953125 C 7.4322569 9.6953125 7.4495839 9.7164117 7.4824219 9.8203125 C 7.6107029 10.226246 7.5710986 10.608623 7.3691406 10.902344 C 7.2768906 11.036513 7.2201863 11.069133 7.1601562 11.023438 C 7.0802062 10.962578 7.039544 10.658749 7.078125 10.410156 C 7.105955 10.230693 7.1904632 9.9595576 7.2695312 9.7929688 C 7.3093313 9.7091138 7.3233229 9.6953125 7.3730469 9.6953125 z M 8.625 9.6953125 C 8.64643 9.6947792 8.6701406 9.6985874 8.6816406 9.7070312 C 8.7187406 9.7340612 8.8311015 10.021434 8.8828125 10.21875 C 8.9545025 10.49229 8.9560987 10.771466 8.8867188 10.951172 C 8.8509686 11.043702 8.7875524 11.066863 8.7226562 11.011719 C 8.7031594 10.995139 8.6613364 10.946662 8.6308594 10.902344 C 8.4289034 10.608623 8.3892961 10.226246 8.5175781 9.8203125 C 8.5378781 9.7561065 8.5552225 9.7211725 8.5703125 9.7109375 C 8.5836225 9.7019075 8.60357 9.6958505 8.625 9.6953125 z"/>
</svg>
