<?xml version="1.0" encoding="UTF-8" standalone="no"?>
<svg id="svg2817" xmlns:rdf="http://www.w3.org/1999/02/22-rdf-syntax-ns#" xmlns="http://www.w3.org/2000/svg" height="16" width="16" version="1.0" xmlns:cc="http://creativecommons.org/ns#" xmlns:dc="http://purl.org/dc/elements/1.1/">
 <metadata id="metadata57">
  <rdf:RDF>
   <cc:Work rdf:about="">
    <dc:format>image/svg+xml</dc:format>
    <dc:type rdf:resource="http://purl.org/dc/dcmitype/StillImage"/>
    <dc:title/>
   </cc:Work>
  </rdf:RDF>
 </metadata>
 <g id="layer4-0" transform="matrix(.90475 0 0 .90475 -716.75 -708.29)">
 </g>
 <g id="layer4-0-7" transform="matrix(.90475 0 0 .90475 -716.75 -701.05)">
 </g>
 <text id="text7276" font-size="12.666px" xml:space="preserve" y="-393.22546" x="435.90427" font-family="&apos;Droid Sans&apos;" fill="#000000"><tspan id="tspan7278" y="-393.22546" x="435.90427"/><tspan id="tspan7280" y="-377.3924" x="435.90427"/></text>
 <text id="text7276-4" font-size="12.666px" xml:space="preserve" y="-397.59143" x="389.83878" font-family="&apos;Droid Sans&apos;" fill="#000000"><tspan id="tspan7278-6" y="-397.59143" x="389.83878"/><tspan id="tspan7280-8" y="-381.75836" x="389.83878"/></text>
 <text id="text7276-3" font-size="12.666px" xml:space="preserve" y="-397.59143" x="389.83878" font-family="&apos;Droid Sans&apos;" fill="#000000"><tspan id="tspan7278-3" y="-397.59143" x="389.83878"/><tspan id="tspan7280-0" y="-381.75836" x="389.83878"/></text>
 <path id="path4578" fill="#ccc" d="m8 4e-8c-4.432 0-8 3.568-8 8 4e-8 4.432 3.568 8 8 8s8-3.568 8-8-3.568-8-8-8z"/>
 <path id="path4651" d="m3 9.5h9.4643l0.03571-2h-6v-2h3.5" stroke="#ee8827" fill="none"/>
</svg>
