<svg xmlns="http://www.w3.org/2000/svg" width="16" height="16" version="1.1">
 <path fill="#00832d" d="M 9,8.5 10.477639,10.260417 13,11.602137 13.486702,8.4920072 13,5.4904914 10.437917,6.6691668 Z"/>
 <path fill="#0066da" d="m -4e-8,11 v 2.916667 C -4e-8,14.515208 0.50222668,15 1.1222943,15 H 4 L 4.55321,13.021111 4,11 1.9733675,10.642196 Z"/>
 <path fill="#e94235" d="M 4,2.0000001 -4e-8,6 1.9733675,6.3578038 4,6 4.504413,4.0023614 Z"/>
 <path fill="#2684fc" d="M 4,6 H -4e-8 v 5 H 4 Z"/>
 <path style="fill:#00ac47" d="M 9,8.5 V 11 H 4 v 4 h 7.852109 c 0.616676,0 1.155919,-0.484844 1.1478,-1.083333 L 13,11.602137 Z"/>
 <path style="fill:#00ac47" d="M 15.182122,3.6213778 13,5.4904914 v 6.1116456 l 2.192116,1.784302 C 15.520267,13.65892 16,13.410319 16,12.967102 V 4.0318678 c 0,-0.4485316 -0.49056,-0.6944716 -0.817878,-0.41049 z"/>
 <path fill="#ffba00" d="M 11.877615,2.0000001 H 4 V 6 h 5 v 2.5 l 4,-3.0095086 -9.1e-5,-2.407158 C 12.999886,2.4847918 12.497683,2.0000001 11.877615,2.0000001 Z"/>
</svg>
