<svg xmlns="http://www.w3.org/2000/svg" width="16" height="16" version="1">
 <rect style="fill:#2a5083" width="15" height="15" x="1" y="1" rx="4.8" ry="4.8"/>
 <g transform="translate(0.5,0.49177)">
  <path style="fill:#ffffff" d="M 8,3.5078 C 5.5431,3.5078 3.5,5.4459 3.5,7.791 3.5,10.136 5.5431,12.008 8,12.008 H 8.001 C 8.3454,12.007 8.6836,11.941 9.0186,11.867 9.7094,12.322 10.553,12.632 11.511,12.46 11.95,12.38 12.125,11.946 11.819,11.621 11.492,11.275 11.282,11.059 11.272,10.598 12.021,9.8292 12.499,8.8496 12.5,7.7911 12.5,5.446 10.457,3.5079 8.0004,3.5079 Z M 8,4.5078 C 9.9306,4.5078 11.499,6.0261 11.5,7.79 11.499,8.5483 11.157,9.2827 10.557,9.8994 A 1.0001,1.0001 0 0 0 10.272,10.619 C 10.279,10.913 10.392,11.184 10.506,11.437 10.183,11.363 9.8714,11.232 9.5673,11.032 A 1.0001,1.0001 0 0 0 8.8026,10.891 C 8.4842,10.961 8.2182,11.007 7.9999,11.008 6.0507,11.008 4.4999,9.556 4.4999,7.7917 4.4999,6.0274 6.069,4.5085 7.9999,4.5085 Z"/>
  <path style="fill:none;stroke:#ffffff;stroke-linecap:round;stroke-linejoin:round" d="M 6.5,9 C 6.5,9 7.3,9.5 8,9.5 8.7,9.5 9.5,9 9.5,9"/>
 </g>
</svg>
