<svg xmlns="http://www.w3.org/2000/svg" width="16" height="16" version="1.1">
 <circle style="fill:#595552" cx="8.5" cy="8.5" r="7.5"/>
 <path style="fill:#ffffff" d="M 2.166,6 V 8.084 H 1.0215 A 7.5,7.5 0 0 0 1,8.5 7.5,7.5 0 0 0 1.0156,8.916 H 2.166 V 11 H 3 V 6 Z M 5.916,6 C 4.5353,6 3.416,7.1193 3.416,8.5 3.416,9.8807 4.5353,11 5.916,11 7.2967,11 8.416,9.8807 8.416,8.5 8.416,7.1193 7.2967,6 5.916,6 Z M 11.334,6 C 9.9533,6 8.834,7.1193 8.834,8.5 8.834,9.8807 9.9533,11 11.334,11 12.715,11 13.834,9.8807 13.834,8.5 13.834,7.1193 12.715,6 11.334,6 Z M 14.25,6 V 11 H 15.084 V 9.2617 L 15.85,9.9902 A 7.5,7.5 0 0 0 15.977,8.9629 L 15.5,8.5098 15.984,8.0664 A 7.5,7.5 0 0 0 15.854,7.0566 L 15.084,7.7617 V 6 Z M 5.916,6.834 C 6.8365,6.834 7.584,7.5795 7.584,8.5 7.584,9.4205 6.8365,10.166 5.916,10.166 4.9955,10.166 4.25,9.4205 4.25,8.5 4.25,7.5795 4.9955,6.834 5.916,6.834 Z M 11.334,6.834 C 12.254,6.834 13,7.5795 13,8.5 13,9.4205 12.254,10.166 11.334,10.166 10.414,10.166 9.666,9.4205 9.666,8.5 9.666,7.5795 10.414,6.834 11.334,6.834 Z"/>
</svg>
