<svg xmlns="http://www.w3.org/2000/svg" width="16" height="16" version="1">
 <rect fill="#1da6e8" width="16" height="16" x="-16" y="-16" rx="8" ry="8" transform="matrix(0,-1,-1,0,0,0)"/>
 <path fill="#fff" d="m2 4v8h2v-2.5l2 2.5h2l-3-4 3-4h-2l-2 2.5v-2.5z"/>
 <path fill="#fff" d="m9 9v1h5v-1z"/>
 <path fill="#fff" d="m9 11v1h1v-1z"/>
 <path fill="#fff" d="m10.857 11v1h3v-1z"/>
 <path fill="#fff" d="m9 7v1h4v-1z"/>
 <path fill="#fff" d="m14 5h-1v3h1z"/>
 <path fill="#fff" d="m10 5h-1v3h1z"/>
 <path fill="#fff" d="m12 5h-1v3h1z"/>
</svg>
