<svg xmlns="http://www.w3.org/2000/svg" width="16" height="16" version="1.1">
 <rect style="fill:#335065" width="11" height="16" x="3" y="0" rx="1.179" ry="1.2"/>
 <rect style="fill:#ffffff" width="2" height="2" x="4" y="1"/>
 <path style="fill:#ff3b64" d="m 8.5000293,5.9999549 c -0.2253827,0.00333 -0.3861178,0.1439483 -0.461551,0.3767148 l 0.00279,-0.0105 -0.3541216,1.3003354 H 6.4929305 c -0.00263,-4.34e-5 -0.00506,-4.34e-5 -0.00766,0 C 6.3426514,7.6712951 6.2140603,7.7402611 6.1234616,7.8545007 5.9275234,8.087448 5.969052,8.4539757 6.2178646,8.6277059 L 7.1567761,9.3384101 6.7924176,10.344263 c -4.166e-4,0.0013 -7.916e-4,0.0026 -0.00117,0.0039 -0.055674,0.189424 -0.00329,0.384577 0.1367215,0.518075 0.00104,0.001 0.00221,0.002 0.00321,0.0029 0.168286,0.154946 0.4047379,0.174638 0.5947849,0.04639 0.00363,-0.0025 0.00721,-0.005 0.0107,-0.0076 l 0.9633274,-0.720449 0.9633283,0.720472 c 0.00346,0.0026 0.00709,0.0051 0.0107,0.0076 0.1900471,0.128251 0.4264986,0.108563 0.5947843,-0.04639 10e-4,-9.58e-4 0.0023,-0.002 0.0032,-0.0029 0.140041,-0.133499 0.192396,-0.328651 0.136721,-0.518076 -3.93e-4,-0.0013 -7.91e-4,-0.0026 -0.0011,-0.0039 L 9.8432197,9.3384096 10.782134,8.6277051 c 0.248812,-0.1737298 0.290342,-0.5402578 0.0944,-0.7732052 -0.0906,-0.1142401 -0.219189,-0.1832041 -0.3618,-0.1879916 -0.0026,-4.28e-5 -0.0051,-4.28e-5 -0.0077,0 H 9.3128336 l -0.3541425,-1.3003366 0.00279,0.0105 C 8.8860776,6.1439023 8.7253424,6.0032908 8.4999598,5.999954 Z"/>
 <rect style="fill:#ffffff" width="2" height="2" x="4" y="5"/>
 <rect style="fill:#ffffff" width="2" height="2" x="4" y="9"/>
 <rect style="fill:#ffffff" width="2" height="2" x="4" y="13"/>
 <rect style="fill:#ffffff" width="2" height="2" x="11" y="1"/>
 <rect style="fill:#ffffff" width="2" height="2" x="11" y="5"/>
 <rect style="fill:#ffffff" width="2" height="2" x="11" y="9"/>
 <rect style="fill:#ffffff" width="2" height="2" x="11" y="13"/>
</svg>
