<svg xmlns="http://www.w3.org/2000/svg" width="16" height="16" version="1">
 <path fill="#d2d2d2" d="m15.382 4.9327c-1.699-4.0896-6.3595-6.0136-10.449-4.3144-4.0902 1.6994-6.0142 6.3594-4.315 10.449 1.6995 4.09 6.3602 6.014 10.449 4.315 4.09-1.7 6.014-6.3598 4.315-10.449z"/>
 <path fill="#e74c3c" d="m8.0513 0.00010152c-0.9634-0.0049-1.9423 0.16857-2.8955 0.53234l2.0315 5.3328a2.2858 2.2857 0 0 1 0.81259 -0.15086 2.2858 2.2857 0 0 1 0.81259 0.152l2.0325-5.3361c-0.8862-0.33742-1.8302-0.52518-2.7937-0.5301zm-7.5179 5.1548c-0.36378 0.95313-0.53733 1.932-0.53236 2.8954 0.00491 0.96342 0.19383 1.9085 0.53121 2.7948l5.3329-2.0313a2.2858 2.2857 0 0 1 -0.1509 -0.8137 2.2858 2.2857 0 0 1 0.1532 -0.8137l-5.3341-2.0314zm14.934 0-5.3327 2.0314a2.2858 2.2857 0 0 1 0.15086 0.8137 2.2858 2.2857 0 0 1 -0.152 0.81142l5.336 2.0336c0.33772-0.88627 0.52516-1.8314 0.5303-2.7948 0.0051-0.96342-0.16743-1.9423-0.53144-2.8954zm-8.2797 4.9791-2.0315 5.333c0.95317 0.364 1.932 0.53771 2.8955 0.53256 0.96345-0.0051 1.9075-0.19257 2.7938-0.53028l-2.0314-5.334a2.2858 2.2857 0 0 1 -0.81373 0.15086 2.2858 2.2857 0 0 1 -0.81259 -0.152z"/>
</svg>
