<svg xmlns="http://www.w3.org/2000/svg" width="16" height="16" version="1">
 <path style="fill:#e4e4e4" d="M 7.8417969,1.0009789 C 7.4201375,1.0277654 7.0124152,1.1626333 6.65625,1.3900036 l -5.5,3.509041 a 2.0002,2.0020152 0 0 0 -0.00391,0.00195 C 0.43552117,5.3602523 -0.00121592,6.1584644 0,7.0103339 v 2.2872302 a 2.0002,2.0020152 0 0 0 0,0.00195 c 4.7342242e-4,0.8862999 0.47540941,1.7115589 1.2402344,2.1582119 a 2.0002,2.0020152 0 0 0 0,0.002 l 5.5,3.209941 v -0.002 C 7.1290876,14.894943 7.56506,15.000221 8,15 c 0.43494,2.21e-4 0.8709124,-0.105057 1.2597656,-0.332332 v 0.002 l 5.5000004,-3.209941 a 2.0002,2.0020152 0 0 1 0,-0.002 C 15.524591,11.011073 15.999527,10.185817 16,9.299519 a 2.0002,2.0020152 0 0 1 0,-0.00195 V 7.0103339 C 16.0012,6.1584644 15.564485,5.3602554 14.847656,4.9009995 a 2.0002,2.0020152 0 0 0 -0.0039,-0.00195 l -5.5,-3.509041 C 8.9875848,1.1626333 8.5798625,1.0277652 8.1582031,1.0009789 a 2.0002,2.0020152 0 0 0 -0.00781,0 C 8.099985,0.99795616 8.050299,1.0029004 8,1.0029339 c -0.050299,-3.35e-5 -0.099985,-0.004979 -0.1503906,-0.00195 a 2.0002,2.0020152 0 0 0 -0.00781,0 z"/>
 <path style="fill:#2d4346" d="m 7.96875,3 c -0.084773,0.00538 -0.1667789,0.032268 -0.2382812,0.078125 l -5.5,3.5058594 C 2.0866562,6.6760374 1.9997561,6.8351089 2,7.0058594 v 2.2871094 c 9.5e-5,0.1777383 0.094529,0.3420683 0.2480469,0.4316406 l 5.5,3.2070316 c 0.175458,0.102458 0.3954677,0.08856 0.5566406,-0.03516 L 12.759766,9.6649766 13.078125,10.127867 13.539062,9.1649766 14,8.2001328 12.933594,8.282164 11.869141,8.3661484 12.193359,8.8388047 7.9609375,11.898438 3,9.0058594 V 7.28125 L 8.0078125,4.0878906 12.039062,6.4960938 7.9550781,9.6054688 4.2402344,7.5625 l -0.4804688,0.875 4,2.201172 c 0.17284,0.09527 0.3855459,0.07996 0.5429688,-0.03906 L 13.234375,6.8457031 C 13.516931,6.631186 13.492458,6.1988397 13.1875,6.0175781 L 8.2558594,3.0703125 C 8.1694286,3.0184778 8.069352,2.9939692 7.96875,3 Z"/>
</svg>
