<svg xmlns="http://www.w3.org/2000/svg" width="16" height="16" version="1">
 <rect fill="#ffa752" width="16" height="16" x="-16" y="-16" rx=".8" ry=".8" transform="matrix(0,-1,-1,0,0,0)"/>
 <path fill="#ffdf98" d="m8 2a4 4 0 0 0 -4 4 4 4 0 0 0 4 4 4 4 0 0 0 4 -4 4 4 0 0 0 -4 -4zm0 2a2 2 0 0 1 2 2 2 2 0 0 1 -2 2 2 2 0 0 1 -2 -2 2 2 0 0 1 2 -2z"/>
 <rect fill="#ffdf98" width="2" height="6" x="7" y="-14" transform="scale(1,-1)"/>
 <rect fill="#ffdf98" width="2" height="2" x="9" y="-13" transform="scale(1,-1)"/>
</svg>
