<svg width="16" height="16" version="1" xmlns="http://www.w3.org/2000/svg">
 <path d="m15.765625 0.234375-3.765625 0.765625-11 11-0.765625 3.765625c0.1446 0.1446 0.34480625 0.234375 0.56640625 0.234375h14.398438c0.4432 0 0.800781-0.357581 0.800781-0.800781v-14.398438c0-0.2216-0.089775-0.42180625-0.234375-0.56640625z" style="fill:#ff9932"/>
 <path d="M 0.80078125 0 C 0.35758124 0 0 0.35758124 0 0.80078125 L 0 15.199219 C 0 15.420819 0.089579689 15.62083 0.234375 15.765625 L 15.765625 0.234375 C 15.62083 0.089579689 15.420819 0 15.199219 0 L 0.80078125 0 z " style="fill:#ffda43"/>
 <path d="m8.0000243 2.9999756c-2.7614237 0-5 2.2385763-5 5h-1.5l1.25 1.5 1.25 1.5000004 1.25-1.5000004 1.25-1.5h-1.5c0-1.6568542 1.3431458-3 3-3 0.3723357 9.022e-4 0.74125 0.071109 1.0878906 0.2070312l1.3593751-1.5605468c-0.7468036-0.4218309-1.5895637-0.6444596-2.4472657-0.6464844zm3.9999997 2-1.25 1.5-1.2499997 1.5h1.4999997c0 1.6568542-1.3431455 3.0000004-2.9999997 3.0000004-0.3821601-5.73e-4 -0.7606914-0.07416-1.1152344-0.216797l-1.3554687 1.554688c0.752229 0.431192 1.6036579 0.659361 2.4707031 0.662109 2.7614237 0 4.9999997-2.238576 4.9999997-5.0000004h1.5l-1.25-1.5z" style="fill-rule:evenodd;fill:#3f3f3f"/>
</svg>
