<svg xmlns="http://www.w3.org/2000/svg" width="16" height="16" version="1">
 <path style="fill:#1b4c7d" d="m 8,-1e-6 c 2.349177,0 3.890376,1.7415902 5.351393,3.3437876 0.994846,1.0909796 2.255672,1.7208912 2.524875,3.2409112 0.05878,0.3318796 0.09723,0.6709556 0.11403,1.0159044 0.0064,0.1322932 -1.164249,1.6133196 -1.164249,1.747266 0,1.4376078 0.798541,1.4364388 0.140005,2.5999488 C 13.59439,14.371293 10.994393,15.999999 8,15.999999 c -4.432,0 -8,-3.568 -8,-8 C 0,4.064029 2.8140316,0.80948328 6.5481692,0.13028764 7.0187628,0.04469216 7.50397,-1e-6 8,-1e-6 Z"/>
 <path style="fill:#18bd5c" d="m 8,-1e-6 c -0.2249964,0 -0.446998,0.0116504 -0.6671876,0.0296876 -0.1989188,0.0270908 -0.3672,0.04661836 -0.5031248,0.05625 -0.170886,0.0248432 -0.3391092,0.05601196 -0.50625,0.09140624 -0.2574572,0.123834 -0.6164064,0.34441436 -0.6164064,0.40546872 0,0.0154732 -0.022184,0.0857904 -0.049219,0.15625 -0.066608,0.17357792 0.104192,0.16532812 0.68125,-0.0343748 0.573228,-0.1983772 1.9174924,-0.26429244 2.35625,-0.11562504 C 8.8556786,0.64340032 9.0295682,0.77099 9.082031,0.87265548 9.153698,1.0115387 9.3247486,1.0951576 9.7703122,1.2093742 c 0.3261618,0.08361 0.6296778,0.1990512 0.6742188,0.25625 0.04455,0.057199 0.187431,0.1556231 0.317969,0.21875 0.213633,0.1033182 0.610274,0.7052313 0.608594,0.9242188 -3.58e-4,0.044544 -0.154491,0.15389 -0.342188,0.2429688 -0.408875,0.1940664 -0.459354,0.3820392 -0.225,0.8414064 0.09174,0.1798204 0.167188,0.4335904 0.167188,0.5640624 0,0.1304708 0.07006,0.3229668 0.15625,0.4281252 0.131579,0.1605424 0.182168,0.1758512 0.313281,0.096094 0.1255,-0.076348 0.182181,-0.068601 0.288281,0.0375 0.09544,0.095439 0.15636,0.106922 0.220313,0.042969 0.110778,-0.1107788 -0.09893,-0.547688 -0.332813,-0.69375 -0.153644,-0.095955 -0.223113,-0.307988 -0.09844,-0.3 0.253333,0.016224 0.623046,0.31718 0.732812,0.5960936 0.124177,0.3155392 0.123509,0.3164876 -0.127343,0.5406252 -0.19321,0.1726328 -0.27353,0.3380652 -0.347657,0.7148436 -0.05305,0.2696504 -0.14232,0.55294 -0.198437,0.6296876 -0.08692,0.1188676 -0.06744,0.1722636 0.132031,0.3585936 0.274227,0.256164 0.244313,0.419368 -0.103125,0.5632812 -0.224736,0.093085 -0.239146,0.123648 -0.189062,0.3906252 0.07773,0.414366 0.168848,0.5506436 0.398437,0.5945312 0.315674,0.060346 0.503743,-0.2119884 0.553906,-0.8023436 0.02562,-0.3015952 0.10258,-0.582158 0.192969,-0.7054688 0.136996,-0.18689 0.186531,-0.1999692 0.575,-0.15625 0.492395,0.055415 0.545529,-0.01318 0.141406,-0.1820312 -0.155903,-0.06514 -0.283594,-0.1563796 -0.283594,-0.202344 0,-0.1288708 0.574356,0.00516 0.829688,0.19375 0.267387,0.1974952 0.371556,0.128326 0.223438,-0.1484376 -0.131185,-0.2451284 -0.04964,-0.3534744 0.164843,-0.2195312 0.223199,0.1393888 0.347902,0.1219368 0.464063,-0.064062 0.139822,-0.2238916 0.22572,-0.2032392 0.344531,0.083594 0.14224,0.343394 0.01774,0.7250964 -0.302344,0.9289064 -0.174936,0.1113916 -0.262457,0.2378036 -0.280469,0.4039064 -0.02398,0.2214084 -0.06001,0.2470268 -0.429687,0.3085936 -0.221801,0.036948 -0.413017,0.037716 -0.425781,0.00156 -0.134,-0.3792262 -0.3653,-0.322143 -0.902341,0.2234362 -0.216056,0.219492 -0.44952,0.3992188 -0.51875,0.3992188 -0.0739,0 -0.147706,0.099309 -0.178906,0.2414064 -0.02924,0.1331212 -0.08702,0.2628692 -0.128125,0.2882812 -0.04112,0.025412 -0.07422,0.1767848 -0.07422,0.3359376 0,0.1591528 -0.07041,0.4025168 -0.15625,0.541406 -0.304421,0.4925418 -0.430089,1.0019178 -0.325781,1.3179688 0.05193,0.15737 0.07183,0.397101 0.04453,0.533594 -0.04395,0.219754 -0.0056,0.288557 0.333594,0.6 0.554311,0.508914 0.799371,0.570814 1.273437,0.31875 0.209049,-0.111153 0.506622,-0.312947 0.660938,-0.448438 0.154311,-0.13549 0.306409,-0.248962 0.338281,-0.251562 0.03186,-0.0026 0.19468,-0.01914 0.361719,-0.03672 0.303648,-0.03195 0.303906,-0.03198 0.303906,0.278124 0,0.135446 0.03112,0.269796 0.07656,0.351563 C 15.517497,11.130007 16,9.6242218 16,7.999999 16,7.7813734 15.988916,7.5656578 15.971876,7.3515614 15.923426,7.3071254 15.879175,7.2743174 15.83047,7.224999 15.546236,6.9371786 15.437664,6.7796866 15.523438,6.7796866 c 0.07358,0 0.245124,0.1053404 0.414844,0.2367188 C 15.45613,3.0520282 12.098698,-1e-6 8,-1e-6 Z M 4.9921876,1.1914052 c -0.562756,0 -1.0824568,0.2890096 -1.0109376,0.5625 C 4.032228,1.9488418 3.7485136,2.3519147 3.0031248,3.1429678 2.7082652,3.455891 2.4671876,3.7435234 2.4671876,3.7828114 c 0,0.039288 -0.2104489,0.2338736 -0.4679688,0.4320312 -0.8522476,0.6557892 -1.08994552,1.3241292 -1.22812504,3.4554688 -0.057439,0.8859552 -0.0472224,1.061634 0.0820312,1.40625 0.0812326,0.216582 0.21316044,0.4657192 0.29296884,0.5539064 0.2284568,0.252442 0.7613307,1.2009402 0.8671874,1.5429692 0.076269,0.246429 0.1880898,0.154196 0.2453126,-0.202344 0.048849,-0.304366 0.031364,-0.364956 -0.1515626,-0.522656 C 1.8732188,10.246868 1.858182,10.146528 2.0179688,9.8578114 2.1715135,9.580375 2.046193,9.4262882 1.7695312,9.5523426 1.4691771,9.6891938 1.2912531,9.4710858 1.2984375,8.9757802 c 0.00974,-0.6713368 0.5331707,-1.1540728 0.8445313,-0.778906 0.055452,0.066815 0.1462077,0.1218748 0.2015624,0.1218748 0.055354,0 0.194508,0.073708 0.3093752,0.1640624 C 2.808474,8.6043938 2.869152,8.7360258 2.8875,8.9890614 2.919776,9.4341542 3.0612104,9.4284038 3.1210936,8.9796854 3.1709328,8.6062282 3.263296,8.5050986 3.625,8.4265602 c 0.133288,-0.028944 0.2727832,-0.1390716 0.3398436,-0.26875 0.1215496,-0.2350516 0.4488636,-0.4875 0.6328128,-0.4875 0.061478,0 0.1789644,-0.074264 0.2609372,-0.1648436 0.1222496,-0.135082 0.2100348,-0.1548872 0.4875,-0.1132812 l 0.3382816,0.050781 -0.03828,-0.4 -0.03828,-0.4 0.4531252,0.03828 C 6.622352,6.7278038 6.7188512,6.5890074 6.4500028,6.1218718 6.353204,5.9536822 6.2734404,5.7254126 6.2734404,5.6148402 c 0,-0.144258 -0.049054,-0.2079904 -0.175,-0.2265624 C 5.9704776,5.3694098 5.920072,5.302727 5.913284,5.141403 5.8932,4.6643374 5.5760808,4.6385574 5.3585964,5.0968718 5.1930188,5.445801 4.67936,5.9960862 4.6156276,5.8929654 4.5892036,5.8502378 4.5890476,5.730911 4.6148276,5.6281214 4.6406276,5.5253322 4.6048996,5.306495 4.5359216,5.141403 4.30954,4.5995958 4.3826236,4.3962094 4.8640464,4.2296842 c 0.2685028,-0.092875 0.33506,-0.09197 0.44375,0.00547 0.1744832,0.156418 0.2367188,0.1444676 0.2367188,-0.046875 0,-0.089088 0.04314,-0.1625 0.095312,-0.1625 0.052172,0 0.1600444,-0.059032 0.239844,-0.13125 0.0798,-0.072223 0.2010568,-0.1098696 0.2695312,-0.083594 C 6.330726,3.8805906 6.3015312,4.159529 6.0976404,4.3023394 5.9447768,4.4094094 5.933736,4.4524882 6.0148276,4.6304646 6.1324024,4.8885058 6.245924,4.8899598 6.4827964,4.6343846 6.6581748,4.4451482 6.6643424,4.400531 6.5882652,3.9281342 6.4984376,3.3703566 6.410166,3.2164158 6.1804528,3.2164158 c -0.1064144,0 -0.16878,0.07517 -0.202344,0.2429688 -0.053477,0.2673876 -0.2710936,0.3363764 -0.2710936,0.085937 0,-0.1195304 -0.051207,-0.1537952 -0.2140624,-0.1421876 -0.1176308,0.00839 -0.230288,-0.030256 -0.25,-0.085937 -0.019712,-0.05568 0.016064,-0.1007812 0.079688,-0.1007812 0.1933036,0 0.3582532,-0.2666608 0.3632812,-0.5875 C 5.6915616,2.2688042 5.5115892,2.2127334 5.3671716,2.529697 5.2370104,2.8153718 5.103492,2.736113 5.074984,2.3562594 5.056016,2.1034947 5.103928,1.9631404 5.3007652,1.6914156 5.4380368,1.5019169 5.5287796,1.3123349 5.5023276,1.2695406 5.4758796,1.2267483 5.2464656,1.1914156 4.9921716,1.1914156 Z m 2.3656248,1.3195314 c -0.074176,-0.00665 -0.16477,-0.0018 -0.2632812,0.014844 -0.2567572,0.043379 -0.3262204,0.093322 -0.3578124,0.258594 -0.036028,0.1884736 -0.020008,0.2015012 0.1945312,0.1585936 0.2041896,-0.040837 0.2335936,-0.023004 0.2335936,0.14375 0,0.1047912 0.058766,0.239844 0.13125,0.3 0.1125748,0.093426 0.1238196,0.2244176 0.077344,0.8992188 -0.03538,0.5137264 -0.023272,0.8468684 0.033592,0.9531248 0.1351424,0.2525148 0.3861444,0.20451 0.5156252,-0.099219 0.096446,-0.226236 0.2487288,-0.3852792 0.841406,-0.875 C 8.9596972,4.1031902 8.6829932,2.8492626 8.4203108,2.7078118 8.3310868,2.659767 8.1180184,2.6291938 7.9468736,2.6390618 7.775728,2.6489298 7.5853868,2.6148258 7.5242172,2.5640618 7.4898092,2.5355018 7.4319864,2.5175854 7.3578108,2.510937 Z m 4.1804686,0.38125 c 0.04454,0 0.08047,0.036708 0.08047,0.08125 0,0.04454 -0.03592,0.080469 -0.08047,0.080469 -0.04454,0 -0.08125,-0.035924 -0.08125,-0.080469 0,-0.044541 0.0367,-0.08125 0.08125,-0.08125 z M 9.5195312,4.5117178 c -0.1661484,0 -0.3304688,0.1056024 -0.3304688,0.2117188 0,0.066347 0.083273,0.1125 0.202344,0.1125 0.14848,0 0.2031248,-0.042935 0.2031248,-0.1617188 0,-0.089088 -0.0341,-0.1625 -0.075,-0.1625 z m 4.6351568,0.1476564 c 0.28608,0.032804 0.35413,0.2011156 0.185937,0.4578124 -0.07171,0.1094484 -0.130469,0.252996 -0.130469,0.31875 0,0.1873804 -0.12788,0.2197748 -0.2625,0.066406 C 13.62199,5.1313202 13.74926,4.6128822 14.154688,4.6593742 Z m -3.347657,0.678906 c -0.02288,-0.00806 -0.03567,-0.00573 -0.04453,0.00312 -0.0698,0.069802 0.06294,0.307656 0.217969,0.3906248 0.08385,0.044874 0.152343,0.1472472 0.152343,0.227344 0,0.080096 0.02422,0.1695224 0.05391,0.1992184 0.0801,0.080104 0.141566,0.067378 0.315625,-0.067187 0.153862,-0.1189476 0.152844,-0.1253976 -0.04531,-0.2804688 -0.421225,-0.3296348 -0.58137,-0.448478 -0.65,-0.4726564 z m -0.04687,0.4695312 c -0.12248,0 -0.14065,0.076981 -0.06406,0.2765628 0.0546,0.1422904 0.159949,0.1675264 0.229687,0.054687 0.06989,-0.1130852 -0.03902,-0.33125 -0.165625,-0.33125 z m -4.3578124,1.077344 c -0.015988,0.00128 -0.03132,0.0059 -0.044531,0.014064 -0.1164616,0.071975 -0.1057572,0.2628904 0.017188,0.3125 0.1885176,0.076068 0.3039064,0.054214 0.3039064,-0.057812 0,-0.1307932 -0.1646536,-0.2777552 -0.2765628,-0.26875 z M 3.6578124,10.749999 c -0.06524,-0.0014 -0.051843,0.0279 0.020312,0.114844 0.1142092,0.137638 0.2611984,0.138656 0.2562504,0.0024 -0.00156,-0.04343 -0.084518,-0.09162 -0.1843752,-0.107032 -0.039872,-0.0062 -0.070441,-0.0097 -0.092188,-0.01016 z m -0.3570312,1 c -0.053004,0.0083 -0.111044,0.02658 -0.1843748,0.05078 -0.2788824,0.09204 -0.3077216,0.127786 -0.3007816,0.372657 0.00498,0.175841 -0.054937,0.338125 -0.1703124,0.460937 -0.11509,0.122507 -0.1781248,0.292409 -0.1781248,0.480469 0,0.250375 0.2364736,0.722654 0.5273436,1.128906 1.3690356,1.097356 3.1065068,1.75625 5.0054688,1.75625 0.0034,0 0.00675,4e-6 0.010156,0 0.1312212,-0.1038 0.2070312,-0.238406 0.2070312,-0.3875 0,-0.07434 0.12769,-0.259049 0.2835936,-0.410156 0.1559028,-0.151107 0.283594,-0.321734 0.283594,-0.378906 0,-0.150596 -0.5434444,-0.399689 -1.0039064,-0.460157 C 7.5622424,14.334624 7.343568,14.281214 7.2945308,14.24453 7.2454924,14.207842 7.0581252,14.135716 6.8781244,14.084374 6.614956,14.009311 6.5307132,13.937267 6.45,13.714061 6.3410352,13.412724 6.125488,13.236932 5.7507812,13.14453 5.619032,13.112042 5.3415808,12.905484 5.1343752,12.685937 4.9271704,12.466388 4.6949436,12.286718 4.6179688,12.286718 c -0.076975,0 -0.3770628,-0.13194 -0.6664064,-0.29375 C 3.5769112,11.783451 3.459792,11.724982 3.3007812,11.749999 Z"/>
 <path style="fill:#ffffff" d="M 6.9773435,2.3578123 A 5.9999999,5.9999999 0 0 0 3,7.9999998 5.9999999,5.9999999 0 0 0 8.9999998,14 5.9999999,5.9999999 0 0 0 13.022656,12.442187 5.9999999,6.0000002 0 0 1 11,12.8 5.9999999,6.0000002 0 0 1 4.9999999,6.7999998 5.9999999,6.0000002 0 0 1 6.9773435,2.3578123 Z"/>
</svg>
