<svg xmlns="http://www.w3.org/2000/svg" width="16" height="16" version="1">
 <path fill="#ff766a" d="m1 1c-1 0-1 1-1 1v9h16v-9s0-1-1-1z"/>
 <path fill="#d22f7a" d="m0 11v3c0 1 1 1 1 1h14c1 0 1-1 1-1v-3z"/>
 <path fill="#fef8e2" fill-rule="evenodd" d="m11 4c1.1046 0 2 0.89543 2 2s-0.895 2-2 2c-1.1046 0-2-0.8954-2-2s0.8954-2 2-2z"/>
 <path d="m 0,10.999997 v -0.52123 c 0,0 1.1538,-0.8686522 1.4782,-0.9444509 0.32439,-0.075821 0.70748,0.1857574 1.1012,0.2705865 0.39371,0.084373 0.98149,0.1986404 1.1649,0.2057784 0.18345,0.0068 0.51542,-0.018243 0.90113,-0.044923 0.38571,-0.025996 1.0244,-0.04994 1.2236,-0.047431 0.19921,0 0.6965,0.031241 1.2266,0.068182 0.5301,0.036942 1.2582,0.098853 1.4234,0.1161491 0.1652,0.0171 0.35938,0.04903 0.57974,0.08369 0.22036,0.03443 0.60186,0.08631 0.73683,0.100677 0.13496,0.01402 0.44784,0.06317 0.81088,0.101133 0.36303,0.03808 0.94399,0.05108 1.1118,0.03694 0.16778,-0.01414 0.51944,-0.355643 0.91135,-0.4861923 0.3919,-0.130527 0.82403,-0.2500399 1.1527,-0.2204866 0.329,0.029416 2.178,0.7603809 2.178,0.7603809 v 0.521219 h -14.058 z" style="fill:#3f3f3f"/>
</svg>
