<svg xmlns="http://www.w3.org/2000/svg" width="16" height="16" version="1.1">
 <rect style="fill:#e4e4e4" width="16" height="16" x="0" y="0" rx="1.2" ry="1.2"/>
 <circle style="fill:#1890ff" cx="8" cy="7" r="6"/>
 <circle style="fill:#40a9ff" cx="8" cy="7" r="4"/>
 <circle style="fill:#91d5ff" cx="8" cy="7" r="2"/>
 <path style="fill:#555555" d="M 7.5250463,14.527945 C 7.2837501,14.264432 6.6411083,13.592794 6.0969534,13.035416 5.5527997,12.478038 4.7003082,11.565965 4.2025284,11.008588 3.7047486,10.45121 3.2462965,9.9389481 3.1837468,9.8702304 L 3.0700195,9.7452892 3.0388695,8.9123454 C 3.0217348,8.4542268 3.004781,8.0044373 3.0011925,7.9128135 c -0.00452,-0.1151743 0.00369,-0.166589 0.026588,-0.166589 0.018215,0 0.7339018,0.5747314 1.590416,1.2771802 0.8565142,0.7024491 1.5746161,1.2771803 1.5957826,1.2771803 0.021165,0 0.2915809,-0.4123077 0.6009218,-0.9162382 0.3093413,-0.503931 0.6359187,-1.0293051 0.725728,-1.1674986 0.103015,-0.1585105 0.1632912,-0.2804474 0.1632912,-0.3303274 0,-0.05138 -0.089913,-0.2259025 -0.2567651,-0.4983883 C 7.1430865,6.8915576 7.0998177,6.8099368 7.0998177,6.7329272 c 0,-0.085886 0.1203723,-0.1944705 0.2155812,-0.1944705 0.1046001,0 0.1794266,0.087869 0.4434398,0.5207395 0.1132701,0.1857131 0.2204251,0.3436601 0.2381236,0.3509932 0.018538,0.00768 0.1320493,-0.1498816 0.2677693,-0.371689 0.2445147,-0.3996059 0.3341782,-0.5000437 0.4464021,-0.5000437 0.074512,0 0.2009936,0.1133343 0.2009936,0.1801005 0,0.078224 -0.071138,0.2145908 -0.3550475,0.6806076 -0.1535054,0.2519655 -0.274277,0.4768602 -0.2683832,0.4997663 0.0059,0.022904 0.2017282,0.3477536 0.4351871,0.7218842 0.2334594,0.3741301 0.5597318,0.9035888 0.7250507,1.1765743 0.1653193,0.2729854 0.3150101,0.5019354 0.3326475,0.5087784 0.017638,0.0068 0.6910991,-0.5279665 1.4965861,-1.188466 0.805486,-0.6604995 1.517351,-1.2441751 1.581921,-1.2970563 0.06457,-0.052881 0.125576,-0.08788 0.135571,-0.077773 0.01,0.010108 0.0021,0.4637379 -0.01744,1.0080697 l -0.03563,0.9896946 -1.019835,1.139775 c -0.662597,0.740521 -1.527862,1.66042 -2.4701322,2.626098 -0.797663,0.817478 -1.4589725,1.489524 -1.469576,1.493436 -0.0106,0.0039 -0.2167066,-0.20849 -0.458004,-0.472001 z"/>
 <path style="opacity:0.3" d="m 8.0056069,12.944235 -0.8339207,1.21393 c 0.1014254,0.107417 0.2939216,0.304686 0.353692,0.36996 0.2412974,0.263512 0.4467606,0.475605 0.4573606,0.471698 0.0061,-0.0022 0.5066002,-0.513768 0.8453546,-0.858615 z"/>
</svg>
