<?xml version="1.0" encoding="UTF-8" standalone="no"?>
<svg xmlns="http://www.w3.org/2000/svg" height="16" width="16" version="1">
 <rect ry="8" rx="8" transform="matrix(0,-1,-1,0,0,0)" height="16" width="16" y="-16" x="-16" fill="#81d547"/>
 <path d="m7.4395 3.0293c-2.4943 0.27965-4.4395 2.3996-4.4395 4.9691 0 2.7585 2.242 5.0015 4.9995 5.0015 2.7585 0 5.0005-2.243 5.0005-5.0015 0-2.5325-1.8915-4.6256-4.3345-4.9531 0 0-0.6824-0.090365-1.226-0.016047zm0.22735 0.67605v1.6835c-0.47737-0.01685-0.93385-0.06745-1.3558-0.14721 0.063365-0.14855 0.1298-0.29163 0.20224-0.4221 0.33398-0.6014 0.7373-0.97655 1.1535-1.1142zm0.71415 0.02791c0.037525 0.00622 0.075695 0.010579 0.11298 0.017442 0.37608 0.16465 0.7375 0.52195 1.0412 1.0688 0.07111 0.12805 0.1364 0.26824 0.19876 0.41373-0.41997 0.08185-0.87605 0.13498-1.3529 0.15419zm-2.196 0.28465c-0.105 0.1429-0.2055 0.2925-0.2955 0.4549-0.104 0.18675-0.1965 0.38905-0.282 0.60015-0.23-0.0675-0.444-0.1442-0.63945-0.2283 0.35345-0.3403 0.76445-0.62035 1.2169-0.82675zm3.798 0.16744c0.42165 0.1311 0.7442 0.39828 1.0482 0.6593-0.183 0.0788-0.3815 0.15125-0.5955 0.2158-0.084-0.20645-0.1745-0.4047-0.276-0.58765-0.0555-0.0999-0.115-0.1946-0.1765-0.28745zm-5.4674 1.1716c0.00744 0.026785-0.012321-0.03599-0.00306-0.00865 0.25756 0.12024 0.56375 0.3124 0.86575 0.40285-0.15618 0.55835-0.2529 1.1718-0.27896 1.8202h-1.4527c0.0801-0.829 0.3933-1.587 0.8691-2.2145zm6.973 0.006c0.4731 0.62645 0.7844 1.382 0.8641 2.2082h-1.4032c-0.02626-0.6533-0.12421-1.2712-0.28244-1.8328 0.28518-0.08745 0.5694-0.25394 0.81425-0.36824 0.01072-0.025165-0.0017 0.01761 0.0073-0.00711zm-1.5148 0.55185c0.1421 0.5003 0.23414 1.0604 0.26083 1.6563h-1.8537v-1.4693c0.5607-0.0206 1.0968-0.084 1.5925-0.187zm-3.9019 0.01047c0.49686 0.10029 1.0338 0.16014 1.595 0.17791v1.468h-1.853c0.02651-0.59185 0.1176-1.1482 0.25804-1.6458zm-2.4325 2.3603h1.4596c0.02677 0.66625 0.1277 1.2964 0.29152 1.867-0.32116 0.04171-0.8736 0.36658-0.9021 0.38253-0.5616-0.6854-0.7883-1.3084-0.8493-2.2499zm2.1745 0h1.853v1.5182c-0.55645 0.01756-1.0891 0.07634-1.5824 0.17512-0.14799-0.50955-0.24325-1.0829-0.27059-1.6933zm2.5671 0h1.8537c-0.028 0.6146-0.124 1.1917-0.2738 1.7038-0.4921-0.1015-1.0239-0.1639-1.5803-0.1842zm2.5685 0h1.4102c-0.0561 0.86505-0.31179 1.6096-0.7967 2.2646-0.22686-0.14312-0.64085-0.29258-0.90845-0.38505 0.16591-0.5739 0.26804-1.2085 0.295-1.8795zm-3.2826 2.2326v1.6326c-0.416-0.138-0.8195-0.5115-1.1535-1.113-0.065-0.117-0.125-0.244-0.1825-0.376 0.4165-0.07771 0.8662-0.1271 1.3362-0.14372zm0.71415 0.0014c0.46994 0.01877 0.9192 0.07014 1.3341 0.15001-0.056835 0.1291-0.1161 0.25344-0.17993 0.36838-0.33402 0.6015-0.7378 0.9751-1.1542 1.1128zm-2.7547 0.30908c0.08052 0.19454 0.16659 0.38259 0.26292 0.55605 0.13636 0.24554 0.292 0.46844 0.46168 0.667-0.547-0.22234-1.0399-0.5496-1.4499-0.9607 0.21814-0.09779 0.46176-0.18584 0.7253-0.26233zm4.7911 0.01256c0.24664 0.07345 0.47471 0.15746 0.68065 0.24978-0.39058 0.39162-0.8558 0.70855-1.3718 0.93 0.15892-0.19053 0.30414-0.40409 0.43308-0.6363 0.09427-0.16977 0.1789-0.35353 0.25804-0.5435z" fill="#f34235" fill-rule="evenodd"/>
</svg>
