<svg xmlns="http://www.w3.org/2000/svg" width="16" height="16" version="1.1">
 <rect style="fill:#3e4753" width="16" height="16" x="0" y="0" rx="1.6" ry="1.6"/>
 <path style="fill:#ffffff" d="M 4,4 V 5 H 6 V 6 H 4.625 4 V 6.8007812 8 H 3.0253906 V 6 H 2.5 V 6.5 H 2 v 2 H 2.5 V 11 H 3.0253906 V 9 H 4 v 2 h 0.25 0.375 0.5625 l 1.5,1 H 10.0625 11 v -1 h 1 v 1 h 2.294922 L 15,11.248047 V 7.7519531 L 14.107422,7 h -1.22461 l -1.777343,1.9023438 c 0.0144,0.035772 0.03775,0.066842 0.05859,0.097656 H 13 V 8 h 0.783203 L 14,8.2480469 V 10.751953 L 13.871094,11 H 13 v -1 h -3 v 1 H 7.0625 l -1.5,-1 H 5 V 6.8007812 H 7.005 L 7.95,6.0078125 V 6 H 7 V 5 H 9 V 4 Z"/>
 <path style="fill:#ff6600" d="M 7.009981,9.9102361 C 7.0366172,9.7800481 7.280743,9.2183604 7.4556914,8.8518101 7.6182745,8.511158 7.6432679,8.495924 8.0213908,8.5069854 l 0.2595533,0.0076 L 8.58433,8.2009237 C 8.9634857,7.8089293 9.4704685,7.1068385 9.4704685,7.0798922 c 0,-0.033851 -0.3142399,-0.059905 -0.7260409,-0.060192 -0.3079579,-2.032e-4 -0.3975341,-0.010181 -0.4294162,-0.047722 -0.049554,-0.058371 -0.104163,5.25e-4 1.5692028,-1.689665 l 1.2696138,-1.2823094 0.850888,0.022072 c 0.467988,0.012135 0.883375,0.029651 0.923084,0.038903 0.04163,0.00969 0.0722,0.040641 0.0722,0.07308 0,0.032156 -0.243997,0.2824145 -0.569538,0.5841543 -0.313246,0.290348 -0.768866,0.7187033 -1.012488,0.9519024 l -0.555401,0.5738538 0.266475,0.020419 c 0.14656,0.011242 0.400489,0.021799 0.564283,0.023512 0.240375,0.00244 0.301575,0.012705 0.317345,0.052886 0.02233,0.056896 -0.118012,0.1671973 -0.82357,0.813398 -1.2653145,1.1588743 -1.2967076,1.3312627 -1.031258,1.3734408 0.09048,0.014393 0.121956,0.034463 0.121956,0.07781 0,0.043759 -0.13699,0.1285542 -0.5454723,0.337649 -0.8792508,0.4500674 -2.5145662,1.029286 -2.6332582,1.04835 -0.1080353,0.01734 -0.1090601,0.01642 -0.089088,-0.08121 z"/>
</svg>
