<svg xmlns="http://www.w3.org/2000/svg" width="16" height="16" version="1">
 <rect style="fill:#6eaa36" width="16" height="16" x="0" y="0" rx="2" ry="2"/>
 <path style="fill:#ffffff" d="M 7.99,1.6 C 5.54,1.6 4.14,2.6 3.22,3.74 3.92,3.93 4.41,4.09 4.57,4.14 4.57,4.04 4.59,3.08 4.59,3.08 L 4.6,3.05 4.64,3.04 C 4.86,3.07 9.46,3.75 11.39,4.88 11.63,5.02 11.75,5.17 11.9,5.32 12.44,5.87 13.15,8.18 13.22,8.66 L 13.19,8.71 C 13.17,8.72 13.1,8.76 13.01,8.82 12.56,9.14 11.5,9.88 10.14,9.76 8.93,9.65 7.34,8.95 5.42,7.69 5.5,7.89 5.9,8.83 5.97,8.99 L 6,9.03 C 6.27,9.17 8.94,10.53 10.26,10.5 11.33,10.48 12.47,9.96 12.92,9.69 L 13.07,9.66 C 13.11,9.69 13.1,9.75 13.09,9.81 13.06,9.94 13,10.18 12.96,10.29 L 12.92,10.38 C 12.87,10.52 12.82,10.65 12.72,10.73 12.45,10.98 12.02,11.17 11.35,11.47 10.31,11.92 8.63,12.21 7.06,12.2 6.5,12.18 5.96,12.12 5.48,12.07 4.49,11.95 3.68,11.86 3.2,12.24 4.37,13.56 6.09,14.4 8,14.4 11.53,14.4 14.4,11.53 14.4,8 14.4,4.47 11.53,1.6 8,1.6 Z M 9.69,4.99 C 9.2,4.99 8.74,5.18 8.38,5.52 7.99,5.87 7.77,6.36 7.75,6.89 7.71,7.97 8.57,8.88 9.65,8.92 10.18,8.94 10.68,8.75 11.06,8.39 11.45,8.04 11.67,7.55 11.69,7.03 11.72,5.94 10.87,5.03 9.78,4.99 9.75,4.99 9.72,4.99 9.69,4.99 Z M 9.63,5.57 C 9.68,5.56 9.72,5.57 9.77,5.57 10.53,5.59 11.12,6.23 11.1,6.99 11.08,7.35 10.93,7.69 10.66,7.95 10.39,8.19 10.04,8.32 9.68,8.31 8.92,8.28 8.33,7.65 8.35,6.89 8.36,6.52 8.52,6.18 8.79,5.93 9.02,5.71 9.32,5.59 9.63,5.57 Z M 9.99,6.25 C 9.66,6.25 9.38,6.44 9.38,6.66 9.38,6.89 9.66,7.07 9.99,7.07 10.33,7.07 10.6,6.89 10.6,6.66 10.6,6.44 10.33,6.25 9.99,6.25 Z"/>
 <rect style="fill:#173f4f" width="2" height="16" x="0" y="0"/>
</svg>
