<svg width="16" height="16" version="1" xmlns="http://www.w3.org/2000/svg">
 <rect x="1" width="15" height="15" rx="4.5" ry="4.5" style="fill:#524e6e"/>
 <path d="m4.5 11.5v-6" style="fill:none;stroke-linecap:round;stroke-linejoin:round;stroke:#4580ff"/>
 <path d="m5.4995628 4.5004233a0.99999999 0.99999999 0 0 1-0.6193329 0.9247123 0.99999999 0.99999999 0 0 1-1.0908525-0.2206977 0.99999999 0.99999999 0 0 1-0.2111698-1.0927367 0.99999999 0.99999999 0 0 1 0.9300817-0.6112399" style="fill:none;stroke-linecap:round;stroke-linejoin:round;stroke:#4580ff"/>
 <path d="m12.500437 11.5v-6" style="fill:none;stroke-linecap:round;stroke-linejoin:round;stroke:#e859e9"/>
 <path d="m13.5 4.5004233a0.99999999 0.99999999 0 0 1-0.619333 0.9247123 0.99999999 0.99999999 0 0 1-1.090852-0.2206977 0.99999999 0.99999999 0 0 1-0.21117-1.0927367 0.99999999 0.99999999 0 0 1 0.930081-0.6112399" style="fill:none;stroke-linecap:round;stroke-linejoin:round;stroke:#e859e9"/>
 <path d="m8.4999996 3.500423v6" style="fill:none;stroke-linecap:round;stroke-linejoin:round;stroke:#a757ff"/>
 <path d="m9.4995626 10.5a0.99999999 0.99999999 0 0 0-0.619333-0.9247126 0.99999999 0.99999999 0 0 0-1.090852 0.2206977 0.99999999 0.99999999 0 0 0-0.21117 1.0927369 0.99999999 0.99999999 0 0 0 0.930081 0.61124" style="fill:none;stroke-linecap:round;stroke-linejoin:round;stroke:#a757ff"/>
</svg>
