<?xml version="1.0" encoding="UTF-8" standalone="no"?>
<svg xmlns="http://www.w3.org/2000/svg" height="16" width="16" version="1">
 <g>
  <path fill="#5f7c8a" d="m10 5.0004h6l-0.0293 8.1426c0.25174 1.4823-1.1865 2.4191-2.3945 0.79883l-3.576-4.9416z"/>
  <rect fill-rule="evenodd" ry="4" height="8" width="16" y="3" x="0" fill="#5f7c8a"/>
  <path fill="#7f96a1" d="m6 5.0004h-6l0.0293 8.1426c-0.25174 1.4823 1.1865 2.4191 2.3945 0.79883l3.5762-4.9416z"/>
  <rect fill-rule="evenodd" ry="4" height="8" width="16" y="1" x="0" fill="#7f96a1"/>
  <rect ry="0" height="3.971" width="2.002" y="3" x="3" fill="#e8f5e9"/>
  <rect ry="0" transform="matrix(0,1,1,0,0,0)" height="4.002" width="1.971" y="2" x="4" fill="#e8f5e9"/>
  <path d="m12.023 2.8051a0.75 0.75 0 0 0 -0.75 0.75 0.75 0.75 0 0 0 0.75 0.75 0.75 0.75 0 0 0 0.75 -0.75 0.75 0.75 0 0 0 -0.75 -0.75zm1.4375 1.4062a0.75 0.75 0 0 0 -0.75 0.75 0.75 0.75 0 0 0 0.75 0.75 0.75 0.75 0 0 0 0.75 -0.75 0.75 0.75 0 0 0 -0.75 -0.75zm-2.96 0.0313a0.75 0.75 0 0 0 -0.75 0.75 0.75 0.75 0 0 0 0.75 0.75 0.75 0.75 0 0 0 0.75 -0.75 0.75 0.75 0 0 0 -0.75 -0.75zm1.5234 1.4766a0.75 0.75 0 0 0 -0.75 0.75 0.75 0.75 0 0 0 0.75 0.75 0.75 0.75 0 0 0 0.75 -0.75 0.75 0.75 0 0 0 -0.75 -0.75z" stroke="#e3e8df" stroke-width=".3" fill="#e8f5e9"/>
 </g>
</svg>
