<svg xmlns="http://www.w3.org/2000/svg" width="16" height="16" version="1.1">
 <rect style="fill:#0b4d9c" width="16" height="16" x="0" y="0" rx="1.2" ry="1.2"/>
 <path style="fill:#ffffff" d="M 7.6367188 4 C 5.6221735 4 4 5.6724999 4 7.75 L 4 9.25 C 4 11.3275 5.6221734 13 7.6367188 13 L 8.3632812 13 C 10.377827 13 12 11.3275 12 9.25 L 12 7.75 C 12 5.6724999 10.377827 4 8.3632812 4 L 7.6367188 4 z M 7.8183594 6 L 8.1816406 6 C 9.1889132 6 10 6.9298172 10 8.0839844 L 10 8.9160156 C 10 10.070182 9.1889133 11 8.1816406 11 L 7.8183594 11 C 6.8110865 11 6 10.070182 6 8.9160156 L 6 8.0839844 C 6 6.9298172 6.8110865 6 7.8183594 6 z"/>
 <path style="fill:#ffffff" d="M 9.1999997,11.686599 9.6899953,12.195876 11.811384,14.4 13.2,13.168196 11.07861,10.964073 10.535516,10.4 Z"/>
 <path style="fill:#e46200" d="M -4e-8,1 V 5 H 7.1111111 C 7.6035555,5 8,4.6035555 8,4.1111112 V 1.8888889 C 8,1.3964445 7.6035555,1 7.1111111,1 Z"/>
 <path style="fill:#ffffff" d="m 1,2.0000002 v 2 H 1.4 V 3.4084684 h 0.3601563 c 0.2,0 0.3605903,-0.027572 0.4828125,-0.083594 0.1244444,-0.056022 0.2147568,-0.1338396 0.2703124,-0.2328124 0.057779,-0.1008404 0.086719,-0.337601 0.086719,-0.470187 0,-0.1979464 -0.066667,-0.3510652 -0.2,-0.4593752 -0.1333336,-0.10831 -0.336823,-0.1625 -0.6101562,-0.1625 z m 2,0 v 2 h 0.6398436 c 0.2946032,0 0.5280836,-0.087744 0.7007812,-0.2632812 C 4.5133236,3.5611818 4.6,3.3096102 4.6,2.9828126 4.6,2.657883 4.5155096,2.4135514 4.3468752,2.249219 4.1802716,2.0830191 3.9558504,2.0000002 3.6734376,2.0000002 Z m 1.9999999,0 v 2 h 0.4 V 3.4 h 0.8 V 3 h -0.8 V 2.4000002 h 1.2 v -0.4 z M 1.4,2.4000002 h 0.3757813 c 0.1469388,0 0.2538478,0.01604 0.321875,0.048438 C 2.1656833,2.4808362 2.2,2.6539276 2.2,2.7199716 c 0,0.064798 -0.042209,0.1914228 -0.1265625,0.22756 -0.081633,0.034891 -0.1384343,0.052344 -0.3757812,0.052344 H 1.4 Z m 2,0 h 0.2414064 c 0.1860996,0 0.3257004,0.047389 0.41875,0.1414064 C 4.1532064,2.6337146 4.2,2.7823718 4.2,2.9875002 4.2,3.1943374 4.151495,3.3475826 4.0539064,3.4484378 3.9585872,3.5492922 3.807306,3.6000002 3.6007812,3.6000002 H 3.4 Z"/>
</svg>
