<?xml version="1.0" encoding="UTF-8" standalone="no"?>
<svg
   xmlns:dc="http://purl.org/dc/elements/1.1/"
   xmlns:cc="http://creativecommons.org/ns#"
   xmlns:rdf="http://www.w3.org/1999/02/22-rdf-syntax-ns#"
   xmlns:svg="http://www.w3.org/2000/svg"
   xmlns="http://www.w3.org/2000/svg"
   xmlns:sodipodi="http://sodipodi.sourceforge.net/DTD/sodipodi-0.dtd"
   xmlns:inkscape="http://www.inkscape.org/namespaces/inkscape"
   height="16"
   width="16"
   version="1"
   id="svg6"
   sodipodi:docname="persepolis@16x16.svg"
   inkscape:version="0.92.1 r">
  <metadata
     id="metadata12">
    <rdf:RDF>
      <cc:Work
         rdf:about="">
        <dc:format>image/svg+xml</dc:format>
        <dc:type
           rdf:resource="http://purl.org/dc/dcmitype/StillImage" />
      </cc:Work>
    </rdf:RDF>
  </metadata>
  <defs
     id="defs10" />
  <sodipodi:namedview
     pagecolor="#ffffff"
     bordercolor="#666666"
     borderopacity="1"
     objecttolerance="10"
     gridtolerance="10"
     guidetolerance="10"
     inkscape:pageopacity="0"
     inkscape:pageshadow="2"
     inkscape:window-width="1366"
     inkscape:window-height="742"
     id="namedview8"
     showgrid="false"
     inkscape:zoom="14.75"
     inkscape:cx="0.54237288"
     inkscape:cy="2.5762712"
     inkscape:window-x="0"
     inkscape:window-y="26"
     inkscape:window-maximized="1"
     inkscape:current-layer="svg6" />
  <rect
     ry="8"
     style="fill:#ea4141"
     rx="8"
     transform="matrix(0,-1,-1,0,0,0)"
     height="16"
     width="16"
     y="-16"
     x="-16"
     id="rect2" />
  <path
     inkscape:connector-curvature="0"
     id="path4488"
     style="font-style:normal;font-variant:normal;font-weight:normal;font-stretch:normal;font-size:48px;line-height:125%;font-family:'Old Persian 1.1';-inkscape-font-specification:'Old Persian 1.1, ';text-align:center;letter-spacing:0px;word-spacing:0px;text-anchor:middle;opacity:0.2;fill-opacity:1;stroke:none;stroke-width:0.99999994px;stroke-linecap:butt;stroke-linejoin:miter;stroke-opacity:1"
     d="M 4.0959013,2.2340287 Q 7.0314373,2.8633183 8.1893431,2.9917449 8.5807478,3.0302735 13.032976,3.4926082 12.184934,3.4669238 8.0588746,4.08337 5.8246059,4.4172788 4.0959013,5.0337256 4.4220719,4.3402227 4.5199234,3.608192 4.3731467,3.2999685 4.2426781,2.9917449 3.9654332,2.3367698 3.9654332,2.1312876 v -0.025685 q 0.048925,0.012844 0.1304681,0.1284261 z M 5.3027328,4.7255023 Q 7.66747,5.3419494 8.4176625,5.444691 8.9558441,5.508908 12.119699,5.9070261 11.516283,5.8813408 8.3198114,6.4592602 6.6074155,6.767484 5.3027328,7.3454025 5.547361,6.6775852 5.6289035,5.9969242 5.5473607,5.1621525 5.3027328,4.7255023 Z M 7.2760652,10.042358 Q 6.5421815,11.776116 6.411713,12.52099 l -0.5381814,2.915281 q 0.01631,-0.449492 -0.7665012,-2.966652 -0.4240217,-1.387005 -1.1579058,-2.388733 0.8480438,0.19264 1.6960875,0.256853 1.0600548,-0.102741 1.6308531,-0.295381 z m 4.9088688,0 q -0.717576,1.733758 -0.848044,2.478632 l -0.538181,2.915281 q 0.01632,-0.449492 -0.766501,-2.966652 -0.4240225,-1.387005 -1.1579067,-2.388733 0.8317352,0.19264 1.6960887,0.256853 0.179394,-0.154112 0.750192,-0.231167 0.440331,-0.02568 0.864352,-0.06422 z M 4.2263698,7.1784476 Q 7.1945227,7.8205805 8.3198114,7.9361647 L 13.179754,8.4370272 Q 12.33171,8.4113418 8.2056516,9.0277894 5.9713827,9.3616977 4.2263698,9.9781468 4.5688487,9.2846424 4.6667001,8.5397688 4.536232,8.2829158 4.3894552,7.9361647 4.1122099,7.2811891 4.1122099,7.0757069 v -0.025685 q 0.048925,0.012847 0.1141598,0.128427 z" />
  <path
     inkscape:connector-curvature="0"
     id="path4493"
     style="font-style:normal;font-variant:normal;font-weight:normal;font-stretch:normal;font-size:48px;line-height:125%;font-family:'Old Persian 1.1';-inkscape-font-specification:'Old Persian 1.1, ';text-align:center;letter-spacing:0px;word-spacing:0px;text-anchor:middle;fill:#ffffff;fill-opacity:1;stroke:none;stroke-width:0.99999994px;stroke-linecap:butt;stroke-linejoin:miter;stroke-opacity:1"
     d="M 4.1952263,1.7647284 Q 7.1307623,2.394018 8.288668,2.5224444 8.6800726,2.5609734 13.132302,3.0233077 12.284259,2.9976236 8.1581996,3.6140697 5.9239308,3.9479783 4.1952263,4.5644255 4.5213969,3.8709225 4.6192482,3.1388916 4.4724716,2.8306682 4.342003,2.5224444 4.064758,1.8674694 4.064758,1.6619871 v -0.025685 q 0.048925,0.012844 0.1304683,0.1284266 z M 5.4020576,4.2562019 Q 7.7667948,4.872649 8.5169872,4.9753907 9.055169,5.0395998 12.219024,5.4377259 11.615608,5.4120405 8.4191363,5.9899593 6.7067404,6.298183 5.4020576,6.8761024 5.6466855,6.2082842 5.7282284,5.5276239 5.6466855,4.6928522 5.4020576,4.2562019 Z M 7.37539,9.5730583 Q 6.6415061,11.306816 6.5110379,12.051689 L 5.9728564,14.96697 Q 5.9891662,14.517478 5.2063553,12.000319 4.7823335,10.613314 4.0484494,9.6115855 4.8964932,9.8042259 5.7445369,9.8684398 6.8045913,9.7656978 7.37539,9.5730583 Z m 4.908869,0 Q 11.566683,11.306816 11.436216,12.051689 L 10.898034,14.96697 Q 10.914344,14.517478 10.131532,12.000319 9.7075105,10.613314 8.9736261,9.6115855 9.8053615,9.8042259 10.669714,9.8684398 10.849109,9.714327 11.419906,9.637271 11.860236,9.611586 12.284259,9.573062 Z M 4.3256943,6.7091473 q 2.9681533,0.642133 4.093442,0.7577165 L 13.279079,7.967727 Q 12.431035,7.9420415 8.3049763,8.5584892 6.0707077,8.8923975 4.3256943,9.5088448 4.6681736,8.8153422 4.7660249,8.0704685 4.6355569,7.8136157 4.4887797,7.4668638 4.2115347,6.811889 4.2115347,6.6064067 v -0.025685 q 0.048925,0.012847 0.1141599,0.1284268 z" />
</svg>
