<svg width="16" height="16" version="1.1" xmlns="http://www.w3.org/2000/svg">
 <rect width="16" height="16" rx="2" ry="2" style="fill:#18a497"/>
 <path d="M 9,2 C 6,2 2,4.3090763 2,9 v 7 H 4 V 9 C 4,4.9435358 7.7603372,4 9,4 c 1.447619,0 3,1.2262493 3,3 0,1.883502 -1.659856,3 -3,3 C 8.6301416,10 8,9.3698459 8,9 8,8.3781358 8.1594139,8 8.9199446,8 9.7115039,8 10,7.8087666 10,7 10,6 9.506909,6 8.5078125,6 7.3237835,6 6,7.3380399 6,9 c 0,1.511609 1.4884931,3 3,3 2.431092,0 5,-1.96917 5,-5 C 14,4.0880377 12,2 9,2 Z" style="fill:#ffffff"/>
</svg>
