<?xml version="1.0" encoding="UTF-8" standalone="no"?>
<svg xmlns="http://www.w3.org/2000/svg" height="16" width="16" version="1">
 <path fill="#ffe9b5" d="m0.85742 0c-0.47486 0-0.85742 0.38256-0.85742 0.85742v7.1426h16v-7.1426c0-0.47484-0.383-0.8574-0.857-0.8574h-14.286z"/>
 <path fill="#ff3939" d="m16 15.143v-7.143h-16v7.143c0 0.475 0.38229 0.857 0.85714 0.857h14.286c0.475 0 0.857-0.382 0.857-0.857z"/>
 <path fill="#1b1b1b" d="m5 3a1 1 0 0 1 -1 1 1 1 0 0 1 -1 -1 1 1 0 0 1 1 -1 1 1 0 0 1 1 1z"/>
 <path fill="#1b1b1b" d="m13 3a1 1 0 0 1 -1 1 1 1 0 0 1 -1 -1 1 1 0 0 1 1 -1 1 1 0 0 1 1 1z"/>
 <path fill="#952525" d="m10 5c0 1.1046-0.8954 2-2 2s-2-0.8954-2-2c2.0537 0.31733 4 0 4 0z"/>
 <rect rx=".902" ry=".801" height="6" width="2" y="9" x="7" fill="#fff"/>
 <rect rx=".902" ry=".801" height="6" width="2" y="9" x="11" fill="#fff"/>
 <rect rx=".902" ry=".801" height="6" width="2" y="9" x="3" fill="#fff"/>
</svg>
