<svg xmlns="http://www.w3.org/2000/svg" width="16" height="16" version="1.1">
 <path style="fill:#3974ff" d="m 6.5391982,14.03116 c 0.5268316,0.09201 1.9403569,0.581951 2.6526561,-0.413839 L 15.402535,4.7058556 C 16.114834,3.7100659 15.551924,2.8240844 14.321588,2.6996108 L 2.0048959,1.4385909 C 0.64505166,1.3141172 0.35260485,2.2607216 0.24037753,3.3725348 L 5.8740182,13.205956 Z"/>
 <path style="fill:#21ffff" d="m 7.4281258,12.459114 -0.5827904,0.809079 c -0.259018,0.311185 -0.7770536,0.311185 -0.9713172,-0.06224 l 0.5827904,0.99579 c 0.1295088,0.18671 0.259018,0.311184 0.3885268,0.435658 v 0 C 7.557635,15.197532 8.7232159,15.135296 9.3060063,14.26398 L 15.7167,4.8662193 C 16.095905,4.3360946 16.071358,3.7001368 15.779843,3.2024939 15.523772,2.7653622 14.501609,2.8663361 13.926263,2.8081276 L 1.963332,1.6859799 C 0.6034877,1.5615062 0.35984761,1.8904286 1.072147,3.0106916 l 0.064755,0.062237 10.182374,1.1947153 c 0.306861,0.02681 0.276716,0.5303091 0.413476,0.7415699 0.180693,0.2791273 0.190318,0.6584437 -0.03083,0.9772684 z"/>
 <path style="fill:#917bff" d="m 1.6085693,1.0017001 c -1.22458121,0.051968 -2.03622563,1.320102 -1.36844497,2.3703486 l 0.064502,0.063209 10.75025667,1.1815277 c 0.327962,0.028653 0.571564,0.2037311 0.703194,0.4376031 L 15.816615,3.2699413 C 15.56977,2.799691 15.090657,2.4376647 14.486112,2.3765021 L 1.8589866,1.0077781 c -0.08499,-0.00778 -0.1687787,-0.009541 -0.2504173,-0.0061 z"/>
</svg>
