<svg xmlns="http://www.w3.org/2000/svg" width="16" height="16" version="1">
 <path fill="#ec6295" d="m8 2c-2.0709 0-3.8347 1.3832-4.5938 3.3408-1.9278 0.3126-3.4062 2.1054-3.4062 4.2954 0 2.4098 1.7909 4.3638 4 4.3638h8.5003c1.933 0 3.5-1.709 3.5-3.818 0-1.96-1.351-3.5662-3.094-3.784-0.454-2.5022-2.479-4.398-4.906-4.398z"/>
 <path fill="#fff" d="m12 5-6 1v3.2695a2 2 0 0 0 -1 -0.2695 2 2 0 0 0 -2 2 2 2 0 0 0 2 2 2 2 0 0 0 2 -2v-4.166l4-0.668v2.1035c-0.304-0.1761-0.649-0.269-1-0.2695-1.1046 0-2 0.8954-2 2s0.89543 2 2 2 2-0.89543 2-2v-5z"/>
</svg>
