<svg width="16" height="16" version="1.1" xmlns="http://www.w3.org/2000/svg">
 <path d="m13 13-2 2c-0.527046 0.527046-1.254644 1-2 1h-8c-0.574007 0-1-0.498105-1-1v-7.9999999c0-0.7453561 0.472954-1.4729537 1-2.0000001l2-2z" style="fill:#2cbfeb"/>
 <path d="m3 3 2-2c0.527046-0.5270463 1.254644-1 2-1l8 5e-7c0.574007 0 1 0.4981043 1 0.9999995v7.9999999c0 0.7453561-0.472954 1.4729541-1 2.0000001l-2 2z" style="fill:#f7c73c"/>
 <rect x="3" y="2.9999998" width="10" height="10" style="fill:#3f3f3f"/>
 <rect x="4" y="10" width="5" height="1" style="fill:#ffffff"/>
 <path d="m4 4.000001v4h1v-1.000001s2 0.0764044 2-1.5-2-1.5-2-1.5zm1 0.999999s0.9998927-0.0414284 1 0.5-1 0.500001-1 0.500001z" style="fill:#ffffff"/>
 <path d="m9.5 4c-0.8284271 2.519e-4 -1.5 0.8954305-1.5 2s0.6715729 2 1.5 2c0.684279 4.6e-4 1.32893-0.6165995 1.5-1.5h-1c-0.0894201 0.3097609-0.3211592 0.5001634-0.5 0.5-0.2761423-2.522e-4 -0.5-0.4477153-0.5-1s0.2238577-0.9997478 0.5-1c0.1788408-1.634e-4 0.4105799 0.1902391 0.5 0.5h1c-0.17107-0.8834005-0.815721-1.5002081-1.5-1.5z" style="fill:#ffffff"/>
</svg>
