<svg xmlns="http://www.w3.org/2000/svg" width="16" height="16" version="1">
 <circle style="fill:#787784" cx="8" cy="8" r="8"/>
 <path style="fill:#ffffff" d="M 8.0078125 2.03125 C 4.6895374 2.0312501 2 4.7207874 2 8.0390625 C 2.0000001 11.357338 4.6895375 14.046875 8.0078125 14.046875 C 9.5310961 14.044175 10.996412 13.464015 12.107422 12.421875 L 13.496094 13.806641 A 8 8 0 0 0 15.445312 10.904297 L 13.869141 9.3261719 C 13.964311 8.9035529 14.013287 8.4722577 14.015625 8.0390625 C 14.015625 4.7207873 11.326087 2.0312499 8.0078125 2.03125 z M 8.0078125 5.0351562 C 9.6669503 5.035156 11.011719 6.3799247 11.011719 8.0390625 C 11.011719 9.6982003 9.6669503 9.9433597 8.0078125 9.9433594 C 6.3486749 9.9433594 5.0039062 9.6982001 5.0039062 8.0390625 C 5.0039062 6.3799249 6.3486749 5.0351563 8.0078125 5.0351562 z"/>
 <path style="fill:#94c000" d="M 13.177734,1.9023438 7.9960938,7.3144531 6.2048689,5.6245109 3.7675781,7.9003906 6.2109375,10.398438 C 6.7126108,10.774474 7.3326012,11 8.0078125,11 8.6671706,11 9.2741023,10.78397 9.7695312,10.423828 L 15.267578,4.6816406 C 14.78317,3.6131849 14.069703,2.6643405 13.177734,1.9023438 Z"/>
</svg>
