<svg xmlns="http://www.w3.org/2000/svg" width="16" height="16" version="1.1" viewBox="0 0 16 16">
 <circle cx="7.5" cy="7.5" r="7.5" style="fill:#4f4f4f"/>
 <path style="fill:#d95656" d="M 7.5004796,1.5963694 6.7782072,7.7356847 7.5004796,13.875 8.222752,7.7356847 Z M 3.739585,4.780998 3.0427048,4.971441 C 2.47141,5.1278531 2.0237864,5.3032211 1.6623463,5.551234 1.3009061,5.7992468 0.94794798,6.2261202 1.0063762,6.7601937 1.0648045,7.2942675 1.4380542,7.6096897 1.8224594,7.834433 2.2068644,8.0591753 2.6833797,8.2280498 3.281111,8.3747263 3.8614547,8.5171361 4.5141881,8.6201755 5.1982364,8.6935421 L 6,13.875 V 8.7915848 7.3484507 C 3.4787565,7.2283665 2.0845774,6.7109929 2.0834367,6.1105718 2.0855147,5.7559745 2.7258568,5.4178882 3.8482078,5.1788122 Z m 7.597262,0.014105 -0.113561,0.3992248 c 1.079397,0.2382706 1.691945,0.5695371 1.694236,0.916244 C 12.914922,6.7107278 11.520132,7.2277143 9,7.3477453 V 8.7929954 13.875 L 9.8027229,8.6942474 C 10.455888,8.6235857 11.081202,8.5260172 11.64226,8.3930652 12.248233,8.2494709 12.732953,8.0832808 13.124894,7.8647627 13.516834,7.6462446 13.890031,7.3583335 13.984003,6.8342547 14.077973,6.3101765 13.74223,5.8427258 13.387987,5.5857957 13.033744,5.3288657 12.5943,5.1514576 12.03161,4.9918961 Z"/>
</svg>
