<?xml version="1.0" encoding="UTF-8" standalone="no"?>
<svg id="svg2817" xmlns:rdf="http://www.w3.org/1999/02/22-rdf-syntax-ns#" xmlns="http://www.w3.org/2000/svg" height="16" width="16" version="1.0" xmlns:cc="http://creativecommons.org/ns#" xmlns:dc="http://purl.org/dc/elements/1.1/">
 <metadata id="metadata57">
  <rdf:RDF>
   <cc:Work rdf:about="">
    <dc:format>image/svg+xml</dc:format>
    <dc:type rdf:resource="http://purl.org/dc/dcmitype/StillImage"/>
    <dc:title/>
   </cc:Work>
  </rdf:RDF>
 </metadata>
 <g id="layer4-0" transform="matrix(.90475 0 0 .90475 -716.75 -708.29)">
 </g>
 <g id="layer4-0-7" transform="matrix(.90475 0 0 .90475 -716.75 -701.05)">
 </g>
 <text id="text7276" font-size="12.666px" xml:space="preserve" y="-393.22546" x="435.90427" font-family="&apos;Droid Sans&apos;" fill="#000000"><tspan id="tspan7278" y="-393.22546" x="435.90427"/><tspan id="tspan7280" y="-377.3924" x="435.90427"/></text>
 <text id="text7276-0" font-size="12.666px" xml:space="preserve" y="-396.86713" x="408.35815" font-family="&apos;Droid Sans&apos;" fill="#000000"><tspan id="tspan7278-5" y="-396.86713" x="408.35815"/><tspan id="tspan7280-8" y="-381.03406" x="408.35815"/></text>
 <path id="path4555" fill="#5d5d5d" d="m6.0556 1c-1.6876 0-3.0556 1.3787-3.0556 3.08s1.368 3.08 3.0556 3.08c0.2822-0.0011 0.6733-0.0414 0.9444-0.1204v6.8404c0 1.12 1 1.12 2.1111 1.12 3.8889 0 3.8889-4.506 3.8889-6-0.556 0.56-4 4.32-4 1.333 0-2.118 0.0133-4.2544 0-6.3633-0.0589-1.6561-1.3011-2.968-2.9444-2.9697z"/>
 <circle id="path4549" cy="4" cx="6" r="1" fill="#fff"/>
</svg>
