<svg xmlns="http://www.w3.org/2000/svg" width="16" height="16" version="1">
 <path style="fill:#fe4b71" d="M 8,0 H 0.8 C 0.3568,0 0,0.3568 0,0.8 V 8 H 8 Z"/>
 <path style="fill:#21d789" d="M 8,0 H 15.2 C 15.643,0 16,0.3568 16,0.8 V 8 H 8 Z"/>
 <path style="fill:#f7c73c" d="M 8,16 H 0.8 C 0.3568,16 0,15.643 0,15.2 V 8 H 8 Z"/>
 <path style="fill:#a2e36e" d="M 8,16 H 15.2 C 15.643,16 16,15.643 16,15.2 V 8 H 8 Z"/>
 <rect style="fill:#3f3f3f" width="12" height="12" x="2" y="2"/>
 <path style="fill:none;stroke:#ffffff;stroke-linecap:round" d="M 3.5,11.5 H 7.5"/>
 <path style="fill:none;stroke:#ffffff;stroke-linecap:round" d="M 5.5,7.5 4.5,6 M 3.5,5.5 C 3.5,5.5 5.5,5.7327 5.5,4.5 5.5,3.2682 3.5,3.5 3.5,3.5 M 3.5,7.5 V 3.5"/>
 <path style="fill:none;stroke:#ffffff;stroke-linecap:round" d="M 9.5,7.5 8.5,6 M 7.5,5.5 C 7.5,5.5 9.5,5.7327 9.5,4.5 9.5,3.2682 7.5,3.5 7.5,3.5 M 7.5,7.5 V 3.5"/>
</svg>
