<?xml version="1.0" encoding="UTF-8" standalone="no"?>
<svg id="svg4362" xmlns:rdf="http://www.w3.org/1999/02/22-rdf-syntax-ns#" xmlns="http://www.w3.org/2000/svg" width="16" version="1.1" xmlns:cc="http://creativecommons.org/ns#" height="16" viewBox="0 0 16 16" xmlns:dc="http://purl.org/dc/elements/1.1/">
 <metadata id="metadata4367">
  <rdf:RDF>
   <cc:Work rdf:about="">
    <dc:format>image/svg+xml</dc:format>
    <dc:type rdf:resource="http://purl.org/dc/dcmitype/StillImage"/>
    <dc:title/>
   </cc:Work>
  </rdf:RDF>
 </metadata>
 <g id="layer1" transform="translate(0 -1036.4)">
  <circle id="path4355" cy="1044.4" cx="8" r="8" fill="#5d5d5d"/>
  <path id="path3238" style="enable-background:new" fill="#ffa92c" d="m6 1040.4v1h1v1h-2v2h-1v-1h-1v3h1v-1h1v1l2 2h2.5l1-1 1 0.01v0.4922h1l0.5-0.5 0.00001-4-0.5-0.5h-1v0.5l-1.5-0.0002-0.87501-0.9998h-1.125v-1l1-0.0002v-1zm0 3h2.5l0.87501 0.9998 2.625 0.0002-0.00001 2h-2l-1 1h-1.375l-1.625-1.7z"/>
 </g>
</svg>
