<svg xmlns="http://www.w3.org/2000/svg" width="16" height="16" version="1">
 <rect fill="#f83" width="16" height="16" x="-16" y="-16" rx=".857" ry=".857" transform="matrix(0,-1,-1,0,0,0)"/>
 <path fill="#fff" d="m2.1246 7.9905c-0.02295 0-0.04115 0.01857-0.04415 0.04507l-0.0804 0.6394 0.0804 0.6285c0.003 0.02649 0.02115 0.044945 0.04415 0.044945 0.02225 0 0.04035-0.018325 0.0439-0.0447l0.0954-0.6287-0.0953-0.6396c-0.0035-0.02637-0.02175-0.04495-0.0439-0.04495zm0.45237-0.34941c-0.004-0.02749-0.0226-0.04643-0.0458-0.04643-0.0233 0-0.0426 0.019565-0.0458 0.04643 0 0.000318-0.10812 1.034-0.10812 1.034l0.108 1.011c0.003 0.02712 0.02235 0.04667 0.0458 0.04667 0.02305 0 0.0419-0.01906 0.04565-0.04642l0.123-1.0114zm1.704-0.95375c-0.04435 0-0.081035 0.03801-0.083165 0.086298l-0.0862 1.9022 0.0862 1.2294c0.002 0.04804 0.0388 0.08593 0.083165 0.08593 0.04415 0 0.08068-0.038 0.083285-0.08617v0.0008l0.0974-1.2296-0.0974-1.9023c-0.0025-0.0483-0.0392-0.0863-0.0833-0.0863zm-0.882 0.6611c-0.03405 0-0.06187 0.028475-0.06459 0.066488l-0.097 1.2604 0.097 1.2195c0.0025 0.03777 0.0305 0.06624 0.06459 0.06624 0.0337 0 0.061515-0.02848 0.064475-0.06624l0.1102-1.2195-0.1102-1.2607c-0.003-0.0377-0.0308-0.0662-0.0645-0.0662zm1.7781 2.6426c0.05501 0 0.09973-0.04643 0.10198-0.10586l0.0845-1.2087-0.0844-2.5326c-0.002-0.0594-0.0469-0.1059-0.1019-0.1059-0.05548 0-0.10032 0.046555-0.10209 0.10598 0 0.0001585-0.074885 2.5324-0.074885 2.5324l0.074885 1.2092c0.002 0.05895 0.0466 0.1055 0.10197 0.1055zm1.8348 0.0056c0.075715 0 0.13818-0.06525 0.1396-0.14548v0.0008-0.0008l0.059-1.174-0.0589-2.925c-0.0016-0.0801-0.0639-0.1455-0.1396-0.1455-0.0759 0-0.1384 0.0653-0.1396 0.1456l-0.0527 2.9239c0 0.00185 0.05264 1.1758 0.05264 1.1758 0.001 0.07949 0.06388 0.14474 0.13959 0.14474zm-0.9243-0.0046c0.065895 0 0.11901-0.05535 0.12078-0.12593v0.0008l0.07169-1.1904-0.07181-2.551c-0.002-0.070575-0.05489-0.1258-0.12078-0.1258-0.066365 0-0.11948 0.05522-0.1209 0.1258l-0.0638 2.5511 0.0639 1.1902c0.0015 0.06982 0.05454 0.12517 0.1209 0.12517zm-2.2494-0.0112c0.03915 0 0.07086-0.0328 0.073815-0.07601l0.1039-1.2295-0.1038-1.1697c-0.003-0.04321-0.03455-0.075773-0.073815-0.075773-0.03975 0-0.071455 0.032815-0.07394 0.07627l-0.0914 1.1692 0.0914 1.2295c0.0025 0.04333 0.0342 0.07614 0.07394 0.07614zm-0.87494-0.06732c0.02865 0 0.051815-0.02364 0.05513-0.05633l0.1167-1.1822-0.1165-1.2267c-0.0035-0.03281-0.0266-0.056462-0.055245-0.056462-0.029 0-0.05217 0.023775-0.055125 0.056462 0 0.0001585-0.10268 1.2268-0.10268 1.2268l0.1026 1.1819c0.003 0.03282 0.02605 0.05658 0.055125 0.05658zm3.5847-3.8303c-0.07157 0-0.12894 0.059556-0.13036 0.13582l-0.0582 2.4579 0.0582 1.1827c0.0015 0.07528 0.058675 0.13483 0.13036 0.13483 0.071455 0 0.12848-0.05943 0.13013-0.1357v0.0011l0.0653-1.1827-0.0653-2.4581c-0.0015-0.076-0.0587-0.1356-0.1301-0.1356zm-1.8206 3.9102c0.04945 0 0.09026-0.04221 0.09263-0.09608l0.0909-1.2212-0.0909-2.3374c-0.0025-0.053983-0.0432-0.096079-0.09263-0.096079-0.0499 0-0.090615 0.04222-0.092745 0.096079 0 0.000159-0.080445 2.3374-0.080445 2.3374l0.0806 1.2217c0.002 0.05337 0.0427 0.09558 0.092625 0.09558zm1.0145-0.11526v-0.0008l0.0781-1.201-0.0781-2.6179c-0.002-0.065002-0.05087-0.11602-0.11132-0.11602-0.060805 0-0.10978 0.050891-0.11144 0.11602l-0.06932 2.6178 0.06944 1.2016c0.0015 0.06439 0.050635 0.11527 0.11132 0.11527 0.06057 0 0.10931-0.05089 0.11132-0.11565v0.0008zm5.9052-2.7107c-0.18537 0-0.36223 0.03925-0.52335 0.10995-0.108-1.2762-1.1304-2.2774-2.3778-2.2774-0.30521 0-0.60273 0.062898-0.86547 0.16925-0.1021 0.041355-0.1293 0.083948-0.13025 0.16653v4.4945c0.001 0.0867 0.0653 0.1589 0.1461 0.1674 0.0035 0.0008 3.7264 0.0023 3.7504 0.0023 0.747 0 1.353-0.6341 1.353-1.4162 0-0.78214-0.60569-1.4163-1.3529-1.4163zm-4.1731-1.8355c-0.08127 0-0.14799 0.069832-0.14918 0.15563l-0.061 3.1901 0.0612 1.1578c0.001 0.08456 0.067785 0.15428 0.14906 0.15428 0.081035 0 0.14776-0.06972 0.14894-0.15552v0.0014l0.0663-1.158-0.0663-3.1903c-0.001-0.0856-0.0679-0.1554-0.149-0.1554z"/>
</svg>
