<?xml version="1.0" encoding="UTF-8" standalone="no"?>
<svg id="svg2817" xmlns:rdf="http://www.w3.org/1999/02/22-rdf-syntax-ns#" xmlns="http://www.w3.org/2000/svg" height="16" width="16" version="1.0" xmlns:cc="http://creativecommons.org/ns#" xmlns:dc="http://purl.org/dc/elements/1.1/">
    <metadata id="metadata57">
        <rdf:RDF>
            <cc:Work rdf:about="">
                <dc:format>
                    image/svg+xml
                </dc:format>
                <dc:type rdf:resource="http://purl.org/dc/dcmitype/StillImage"/>
                <dc:title/>
            </cc:Work>
        </rdf:RDF>
    </metadata>
    <path id="rect4203" fill="#ffc947" d="m8.1212 0c-0.7364 0-1.446 0.10911-2.1212 0.29926 3.3267 0.93684 5.758 4.0163 5.758 7.7008 0 3.6839-2.4313 6.7639-5.758 7.7009 0.6752 0.19 1.3848 0.299 2.1212 0.299 4.3648 0 7.8788-3.568 7.8788-7.9999 0-4.432-3.514-7.9999-7.8788-7.9999z"/>
    <path id="path4681" fill="#478aff" d="m6.75 7.5002 0.84999 1.646 1.9 0.264-1.375 1.281 0.3245 1.809-1.6995-0.85399-1.6996 0.85399l0.3246-1.809-1.375-1.2808 1.9002-0.264z"/>
    <path id="path4683" fill="#6fa4ff" d="m9.2499 4.5004 0.6952 1.3167 1.5549 0.2111-1.125 1.0249 0.265 1.4472-1.3901-0.6833-1.3906 0.6833 0.2656-1.4472-1.125-1.0249 1.5547-0.2111z"/>
    <path id="path4685" fill="#90b9ff" d="m7.5 2.5003 0.4635 0.823 1.0365 0.1319-0.75 0.6406 0.177 0.9045-0.927-0.4271-0.9271 0.4271 0.1771-0.9045-0.75-0.6406 1.0365-0.1319z"/>
</svg>
