<svg xmlns="http://www.w3.org/2000/svg" width="16" height="16" version="1.1" viewBox="0 0 16 16">
 <circle cx="8" cy="8" r="8" style="fill:#0061a7"/>
 <path style="fill:#ffffff" d="M 1.7636719 3 A 8 8 0 0 0 1.0800781 4 L 5.1054688 4 L 3.5761719 11 L 4.5996094 11 L 4.8183594 10 L 10.251953 10 L 9.9980469 12 L 5 12 L 3 12 L 1.0839844 12 A 8 8 0 0 0 1.7558594 13 L 14.236328 13 A 8 8 0 0 0 14.919922 12 L 11.005859 12 L 11.767578 6 L 5.6914062 6 L 6.1289062 4 L 14.916016 4 A 8 8 0 0 0 14.244141 3 L 1.7636719 3 z M 5.4726562 7 L 10.630859 7 L 10.378906 9 L 5.0371094 9 L 5.4726562 7 z"/>
</svg>
