<svg xmlns="http://www.w3.org/2000/svg" width="16" height="16" version="1">
 <path style="fill:#e4e4e4" d="M 0.59989223,2 H 2.3995692 C 2.731287,2 3,2.223841 3,2.4999995 V 4.4999998 C 3,4.7761589 2.731287,5 2.3995692,5 H 0.59989223 C 0.26871302,5 2e-8,4.7761589 2e-8,4.4999998 V 2.4999995 C 2e-8,2.223841 0.26871302,2 0.59989223,2 Z m 0,0"/>
 <rect style="fill:#9f9f9f" width="13" height="13" x="2" y="3" rx=".722" ry=".722"/>
 <path style="fill:#ffffff" d="m 4,4.0952386 h 9 V 14 H 4 Z m 0,0"/>
 <path style="fill:#f64747" d="m 2.0713916,1.5502304 c 4.0680775,-0.66394084 8.3091094,-0.80018435 12.8572164,0 C 15.512204,1.6529067 16,2.0409046 16,2.6500519 v 1.8000372 c 0,0.6091466 -0.485208,1.0094858 -1.071392,1.0998218 -4.563123,0.7049122 -8.8709564,0.7611868 -12.8572164,0 C 1.48935,5.4388425 1,5.0592357 1,4.4500891 V 2.6500519 C 1,2.0409046 1.486243,1.645502 2.0713916,1.5502304 Z"/>
 <path style="fill:#4a4a4a" d="M 6.3181817,9 H 4.5 L 8.4999998,13 12.5,9 h -1.818182 z"/>
 <rect style="fill:#636363" width="5" height="2" x="6" y="7"/>
 <rect style="fill:#868686" width="5" height="2" x="6" y="5"/>
 <rect style="fill:#bfbfbf" width="5" height="2" x="6" y="3"/>
 <path style="fill:#ffffff" d="M 8.3203125,1.0019531 C 7.5393354,1.0081762 6.7657715,1.0391933 6,1.0917969 V 3 h 5 V 1.0800781 C 10.095633,1.0210763 9.2030277,0.99491941 8.3203125,1.0019531 Z"/>
</svg>
