<svg xmlns="http://www.w3.org/2000/svg" width="16" height="16" version="1.1">
 <circle style="fill:#0068ce" cx="8" cy="8" r="8"/>
 <path style="fill:#ffffff" d="M 11.014093,3.0000907 9.4062558,4.5995583 11.391465,6.5750019 13,4.9748367 Z M 11.12012,3.8462112 11.524695,4.2479964 11.192664,4.5765391 10.789485,4.174754 Z m 0.615234,0.6117455 0.405273,0.4024827 -0.331334,0.3285431 -0.404575,-0.4017852 z M 8.4345773,4.5277113 3.2127658,9.7188311 c -0.2836876,0.2820069 -0.2836876,0.7402739 0,1.0232959 l 2.0591487,2.045895 c 0.2847081,0.283023 0.7462092,0.282009 1.0288771,0 L 11.522603,7.5976007 Z M 9.2779075,6.7591534 9.0749224,7.5138954 8.8761223,7.3164908 7.0157737,9.1656791 l 0.9863264,0.02651 c 0.073476,-0.008 0.1495912,-0.03805 0.2057754,-0.09138 C 8.4950151,8.8153682 8.5964074,8.7150658 8.5964074,8.7150658 L 8.4352748,8.5546307 8.9165798,8.0754185 9.3985824,8.5546307 8.9165798,9.0338431 8.7554472,8.8727106 8.3717985,9.2542671 c -0.1078517,0.107213 -0.2800521,0.160654 -0.4213165,0.163225 -0.00328,-1.61e-4 -1.0456178,-0.0286 -1.0456178,-0.0286 -0.073361,0.0079 -0.1496283,0.03831 -0.2057754,0.09138 L 6.0943183,10.082253 c -6.786e-4,7.5e-4 -0.00142,0.0014 -0.00211,0.0022 l -0.2741346,0.272042 c 0.147223,0.219747 0.1237802,0.519114 -0.07115,0.71289 -0.2222018,0.220885 -0.5827645,0.220884 -0.8049652,0 -0.2221343,-0.22082 -0.2222018,-0.579198 0,-0.800083 0.1948914,-0.193737 0.4961724,-0.217348 0.7170746,-0.07115 l 0.27832,-0.2769249 c 0.053561,-0.05585 0.084716,-0.131455 0.092773,-0.20438 0,0 -0.029103,-1.0368235 -0.029297,-1.0400377 h 7.158e-4 C 6.0041188,8.5363111 6.0576375,8.365416 6.16547,8.2582222 L 6.5630701,7.862681 c -0.060779,-0.125854 -0.039528,-0.2812656 0.065569,-0.3857416 0.1329666,-0.132179 0.3482427,-0.1322748 0.481305,0 0.1330055,0.132217 0.1329577,0.3470424 0,0.4792126 C 7.0048461,8.0606279 6.8487903,8.0808214 6.7221101,8.020326 6.6736481,8.068685 6.5417525,8.1999061 6.3196275,8.4207158 6.2659915,8.4765608 6.2356485,8.5527331 6.2275515,8.6257937 L 6.2547552,9.6058431 8.717084,7.158162 8.5182843,6.9614549 Z"/>
</svg>
