<svg width="16" height="16" version="1" xmlns="http://www.w3.org/2000/svg">
 <path d="m4 12h4l-4 4z" style="fill:#694088"/>
 <rect x="1" width="13" height="13" rx="4.596756" ry="5.0206375" style="fill:#924cc4"/>
 <path d="m5.9691707 2.9513835c-6.634e-4 -7.415e-4 -0.0014-0.00133-0.00277-0.00277-6.634e-4 -7.025e-4 -0.00363-0.00363-0.00367-0.00367l-0.00642-0.00459-0.019278-0.010096 0.032125 0.021112z" style="fill:#ffffff"/>
 <path d="m4.4078049 3.4372372c-0.00137 0.00203-0.00199 0.00864-0.00367 0.012851-0.00133 0.0016-0.00144 3e-3 -0.00277 0.00459 0.0016-0.0064 0.00375-0.012984 0.00367-0.012851-1.764e-4 3.231e-4 5e-3 -0.00795 0.00277-0.00459z" style="fill:#ffffff"/>
 <path d="m8.3574219 2c-0.1932392 0-0.3555851 0.154783-0.3574219 0.3417969-0.00118 0.1878608 0.1589014 0.3466883 0.3535156 0.3476562 0.8398744 0.00636 1.5329704 0.2715074 2.0898434 0.7949219 0.550274 0.5185641 0.836437 1.2362838 0.84375 2.1738281 2e-3 0.1865079 0.159782 0.3417968 0.353516 0.3417969 2.1e-5 0 0.0057 5.48e-5 0.0059 0 0.194133-0.00176 0.355048-0.1580073 0.353475-0.3457031v-0.00195c-0.004403-0.5471404-0.091842-1.0500359-0.265625-1.4921907-0.175982-0.4468844-0.444305-0.8410554-0.792969-1.1699218-0.68963-0.6478338-1.569035-0.9830852-2.582031-0.9902344zm-3.8105469 1.0058594c-0.1350459-0.0224938-0.2817733 0.002076-0.4277344 0.0722656h-0.011719l-0.015625 0.00977c-0.2716893 0.154489-0.527057 0.361394-0.7656247 0.6210894l-0.019531 0.021484v0.017578c-0.165171 0.2058861-0.2737392 0.413668-0.2988284 0.6210942-0.00801 0.035173-0.0078125 0.0676284-0.0078125 0.1015625 0 0.09441 0.013862 0.1891076 0.042969 0.2832031l0.00781 0.027344 0.015625 0.00977c0.094244 0.3233122 0.309399 0.8256537 0.777346 1.6777298 0.3116785 0.5647825 0.6290013 1.0360727 0.9453125 1.4335938 0.1666232 0.2089006 0.3551722 0.4274049 0.5742187 0.6464843 0.00254 0.00264 0.013383 0.012428 0.023438 0.021484 0.00342 0.00341 0.00754 0.00949 0.019531 0.021484l0.021484 0.021484h0.00195c0.00772 0.0077 0.012518 0.014096 0.013672 0.015625l0.00391 0.00391 0.00391 0.00586c0.2190505 0.2166485 0.4352795 0.4047755 0.64648 0.5703093 0.3969048 0.3162892 0.8688113 0.6389096 1.4335938 0.9511716 0.8531434 0.47062 1.3619456 0.682738 1.6835938 0.775391l0.011719 0.01367 0.019531 0.0078c0.09111 0.03038 0.1854328 0.04439 0.2792968 0.04297 0.03807 0.0021 0.071361-5.64e-4 0.1035156-0.0078 0.2202781-0.02575 0.4385408-0.131517 0.6542968-0.3125l4e-3 -4e-3c0.0033-0.0033 0.0021-0.0016 0.0039-0.0039 2e-3 -0.0016 2e-3 -0.0041 0.0039-0.0059 0.255393-0.233066 0.462096-0.486376 0.617187-0.7578129l0.0098-0.017578v-0.0154961c0.142374-0.2966029 0.086747-0.5999248-0.144646-0.7929688-0.005722-0.0048418-0.117914-0.0965564-0.25586-0.2089843-0.141061-0.1149376-0.306977-0.2511129-0.419922-0.3339844-0.2137094-0.158084-0.5441204-0.3620384-0.7324214-0.4667969h-0.00195c-0.3610451-0.2025844-0.7380284-0.0844897-0.9043 0.1308594l-0.2910156 0.3632812c-0.1175231 0.1481145-0.3531027 0.1350959-0.359375 0.1347657-1.9772064-0.5086068-2.5098205-2.4975236-2.5136719-2.5117188-3.301e-4 -0.0062723-0.0134589-0.2418242 0.1347657-0.3613281l0.3632812-0.2890625c0.2158993-0.1652807 0.3363873-0.5436668 0.1328125-0.90625-0.106189-0.1875089-0.3109796-0.520374-0.4667969-0.7324219-0.0840708-0.1133416-0.218992-0.2806931-0.3339844-0.421875-0.057221-0.0705821-0.1104736-0.1355447-0.1484374-0.1816406-0.019259-0.023055-0.0339179-0.0416485-0.0449219-0.0546875-0.0055-0.00656-0.010454-0.011879-0.013672-0.015625-0.0016-0.00186-0.00248-0.00234-0.00391-0.00391-0.1001373-0.1189847-0.2284562-0.1923806-0.3691368-0.2167931zm3.828125 0.59375c-0.1906106-0.0134187-0.3591883 0.1305518-0.3730469 0.3144531-0.013859 0.1840112 0.1338284 0.3498626 0.3242188 0.3632813 0.4707519 0.033217 0.7886681 0.1714039 1.0273441 0.4238281 0.24368 0.2571538 0.354986 0.55182 0.345703 0.953125-0.0041 0.1846711 0.150427 0.3416554 0.341797 0.3457031h0.0078c0.188578 0 0.347373-0.1477387 0.351575-0.3300781 0.01209-0.5517036-0.167434-1.0461834-0.529297-1.4277344-0.364723-0.3835308-0.881807-0.5989126-1.496094-0.6425781z" style="fill:#ffffff"/>
</svg>
