<?xml version="1.0" encoding="UTF-8" standalone="no"?>
<svg id="svg2817" xmlns:rdf="http://www.w3.org/1999/02/22-rdf-syntax-ns#" xmlns="http://www.w3.org/2000/svg" height="16" width="16" version="1.0" xmlns:cc="http://creativecommons.org/ns#" xmlns:dc="http://purl.org/dc/elements/1.1/">
    <metadata id="metadata57">
        <rdf:RDF>
            <cc:Work rdf:about="">
                <dc:format>
                    image/svg+xml
                </dc:format>
                <dc:type rdf:resource="http://purl.org/dc/dcmitype/StillImage"/>
                <dc:title/>
            </cc:Work>
        </rdf:RDF>
    </metadata>
    <rect id="rect4255" ry=".85714" rx=".85714" transform="matrix(0,-1,-1,0,0,0)" height="16" width="16" y="-16" x="-16" fill="#4e91d9"/>
    <g id="g4349" transform="scale(.5)">
        <path id="path4475" opacity=".2" d="m10 10v1h12v-1h-8z"/>
        <path id="path4407" fill="#ffad53" d="m20.5 26c0.831 0 1.5-0.669 1.5-1.5v-13c0-0.831-0.669-1.5-1.5-1.5h-13c-0.831 0-1.5 0.669-1.5 1.5v13c0 0.831 0.669 1.5 1.5 1.5zm-2.5-4h-8v-8h8z"/>
        <path id="path4409" fill="#a3caf6" d="m24.5 22c0.831 0 1.5-0.669 1.5-1.5v-13c0-0.831-0.669-1.5-1.5-1.5h-13c-0.831 0-1.5 0.669-1.5 1.5v2.5h12v8h-8v-4h-4v6.5c0 0.831 0.669 1.5 1.5 1.5z"/>
    </g>
</svg>
