<?xml version="1.0" encoding="UTF-8" standalone="no"?>
<svg id="svg2817" xmlns:rdf="http://www.w3.org/1999/02/22-rdf-syntax-ns#" xmlns="http://www.w3.org/2000/svg" height="16" width="16" version="1.0" xmlns:cc="http://creativecommons.org/ns#" xmlns:dc="http://purl.org/dc/elements/1.1/">
    <metadata id="metadata57">
        <rdf:RDF>
            <cc:Work rdf:about="">
                <dc:format>
                    image/svg+xml
                </dc:format>
                <dc:type rdf:resource="http://purl.org/dc/dcmitype/StillImage"/>
                <dc:title/>
            </cc:Work>
        </rdf:RDF>
    </metadata>
    <defs id="defs2819">
        <clipPath id="clipPath5078" clipPathUnits="userSpaceOnUse">
            <path id="path5080" style="color:#000000" fill="#2095f2" d="m160 247c-7.9134 0-15.037 2.8117-20.945 7.1718l20.94 22.82 20.78-22.9c-5.88-4.31-12.93-7.09-20.78-7.09z"/>
        </clipPath>
        <filter id="filter5060" style="color-interpolation-filters:sRGB" height="1.2885" width="1.2054" y="-.14426" x="-.10272">
            <feGaussianBlur id="feGaussianBlur5062" stdDeviation="1.442647"/>
        </filter>
        <clipPath id="clipPath5085" clipPathUnits="userSpaceOnUse">
            <path id="path5087" style="color:#000000" fill="#2095f2" d="m160 247c-7.9134 0-15.037 2.8117-20.945 7.1718l20.94 22.82 20.78-22.9c-5.88-4.31-12.93-7.09-20.78-7.09z"/>
        </clipPath>
        <filter id="filter5064" style="color-interpolation-filters:sRGB" height="1.3847" width="1.2739" y="-.19235" x="-.13696">
            <feGaussianBlur id="feGaussianBlur5066" stdDeviation="1.442647"/>
        </filter>
    </defs>
    <path id="path4269" style="color:#000000" fill="#5d5d5d" d="m8.031 3.0002c-3.0343 0-5.7655 1.031-8.031 2.63l8.031 8.3668 7.969-8.397c-2.2563-1.5811-4.9576-2.6-7.9689-2.6z"/>
    <path id="path4271" opacity=".2" style="color:#000000" d="m159.9 252.99c-6.3037 0-12.154 2.0674-16.853 5.5589l16.941 18.441 16.765-18.441c-4.71-3.49-10.56-5.56-16.86-5.56z" clip-path="url(#clipPath5078)" transform="matrix(.38344 0 0 .36668 -53.315 -87.567)" filter="url(#filter5060)"/>
    <path id="path4273" style="color:#000000" fill="#797979" d="m8 5.1971c-2.4171 0-4.6605 0.75804-6.4624 2.0383l6.4964 6.7622 6.4285-6.7622c-1.802-1.28-4.046-2.0381-6.463-2.0381z"/>
    <path id="path4275" opacity=".2" style="color:#000000" d="m159.9 258.99c-4.7278 0-9.1156 1.5505-12.64 4.1692l12.706 13.831 12.574-13.831c-3.524-2.6186-7.9119-4.1692-12.64-4.1692z" clip-path="url(#clipPath5085)" transform="matrix(.38344 0 0 .36668 -53.315 -87.567)" filter="url(#filter5064)"/>
    <path id="path4277" style="color:#000000" fill="#ccc" d="m8 7.3969c-1.8129 0-3.4954 0.56856-4.8466 1.5287l4.8719 5.0724 4.8217-5.072c-1.352-0.9602-3.0343-1.5287-4.8471-1.5287z"/>
</svg>
