<?xml version="1.0" encoding="UTF-8" standalone="no"?>
<svg id="svg2817" xmlns:rdf="http://www.w3.org/1999/02/22-rdf-syntax-ns#" xmlns="http://www.w3.org/2000/svg" height="16" width="16" version="1.0" xmlns:cc="http://creativecommons.org/ns#" xmlns:dc="http://purl.org/dc/elements/1.1/">
    <metadata id="metadata57">
        <rdf:RDF>
            <cc:Work rdf:about="">
                <dc:format>
                    image/svg+xml
                </dc:format>
                <dc:type rdf:resource="http://purl.org/dc/dcmitype/StillImage"/>
                <dc:title/>
            </cc:Work>
        </rdf:RDF>
    </metadata>
    <g id="g4352" transform="translate(-8,8)">
        <rect id="rect4255" ry=".85714" rx=".85714" transform="matrix(0,-1,-1,0,0,0)" height="16" width="16" y="-24" x="-8" fill="#4e91d9"/>
        <path id="path4453" d="m19.004-7a0.50005 0.50005 0 0 0 -0.125 0.015625s-1.8715 0.47166-3.707 2.1465c-1.765 1.6102-3.479 4.4067-3.623 8.8379h-3.549v1h4a0.50005 0.50005 0 0 0 0.5 -0.49805c0.01241-4.4989 1.6876-7.0886 3.3457-8.6016 1.0396-0.94862 1.8987-1.3748 2.5176-1.625-0.71852 3.301-0.92758 5.8937-0.42188 7.6836 0.27776 0.98311 0.76569 1.7648 1.4648 2.2832 0.699 0.5187 1.585 0.7582 2.594 0.7582h2v-1h-2c-0.854 0-1.502-0.1948-1.998-0.5625s-0.864-0.9243-1.098-1.75c-0.466-1.6515-0.315-4.3449 0.582-8.0703a0.50005 0.50005 0 0 0 -0.482 -0.6172z" style="color-rendering:auto;text-decoration-color:#000000;color:#000000;isolation:auto;mix-blend-mode:normal;shape-rendering:auto;solid-color:#000000;block-progression:tb;text-decoration-line:none;image-rendering:auto;white-space:normal;text-indent:0;text-transform:none;text-decoration-style:solid" fill="#343434"/>
    </g>
</svg>
