<svg xmlns="http://www.w3.org/2000/svg" width="16" height="16" version="1.1">
 <path style="fill:#999999" d="M 0,1.96 V 14.4 C 0,15.2864 0.7136,16 1.6,16 H 14.4 C 15.2864,16 16,15.2864 16,14.4 V 1.96 Z"/>
 <path style="fill:#157ae9" d="M 1.6,0 C 0.7136,0 0,0.7136 0,1.6 V 2 H 16 V 1.6 C 16,0.7136 15.2864,0 14.4,0 Z"/>
 <rect style="fill:#ffffff" width="14" height="9" x="1" y="3"/>
 <rect style="fill:#e6e6e6" width="7" height="9" x="8" y="3"/>
 <rect style="fill:#e6e6e6" width="5" height=".5" x="1" y="13"/>
 <rect style="fill:#e6e6e6" width="2" height=".5" x="7" y="13"/>
 <rect style="fill:#eb3f3f" width="2" height=".5" x="10" y="13"/>
 <rect style="fill:#e6e6e6" width="2" height=".5" x="13" y="13"/>
 <rect style="fill:#bf46e4" width="5" height=".5" x="1" y="14.5"/>
 <rect style="fill:#e6e6e6" width="2" height=".5" x="7" y="14.5"/>
 <rect style="fill:#e6e6e6" width="2" height=".5" x="10" y="14.5"/>
 <rect style="fill:#157ae9" width="2" height=".5" x="13" y="14.5"/>
</svg>
