<svg xmlns="http://www.w3.org/2000/svg" width="16" height="16" version="1">
 <rect style="fill:#00a9f0" width="16" height="16" x="0" y="0" rx=".8" ry=".8"/>
 <path style="fill:#ffffff" d="M 6.41875,2 1.0515625,2.1492188 6.41875,2.2984375 Z m 0.5796876,0 v 0.2929688 c 0.3550196,0 0.6305204,0.088115 0.8257812,0.2656248 C 8.0106044,2.7361032 8.205738,3.0646912 8.41875,3.5617188 l 2.032031,4.6242188 -2.2812498,4.5093744 c -0.17751,0.381647 -0.3638968,0.63818 -0.5414064,0.789063 -0.1775096,0.150883 -0.3900488,0.23125 -0.6296872,0.23125 V 14 h 2.4585936 v -0.284375 c -0.5325296,0 -0.7984376,-0.177511 -0.7984376,-0.541406 0,-0.186385 0.088397,-0.434953 0.2570312,-0.736719 L 10.74375,8.8609376 12.341406,12.4375 c 0.159759,0.390522 0.248438,0.656929 0.248438,0.807812 0,0.159759 -0.06168,0.284465 -0.185938,0.355469 -0.124256,0.07988 -0.328202,0.114844 -0.621094,0.114844 V 14 h 3.247657 v -0.284375 c -0.239639,0 -0.452178,-0.09749 -0.629688,-0.275 -0.177509,-0.186385 -0.381737,-0.523849 -0.6125,-1.003125 L 11.516406,7.3164064 13.317969,3.8109376 c 0.35502,-0.6922884 0.612053,-1.118366 0.798437,-1.2781252 0.186386,-0.1597587 0.453011,-0.2398436 0.825782,-0.2398436 V 2 h -2.725 v 0.2929688 c 0.301766,0 0.515586,0.044839 0.639843,0.1335936 0.115381,0.07988 0.176563,0.2214272 0.176563,0.4078128 0,0.1153812 -0.05259,0.3370136 -0.167969,0.647656 L 11.223438,6.6593752 9.8296876,3.4820312 C 9.7231816,3.251268 9.6703124,3.037948 9.6703124,2.8515624 c 0,-0.3727708 0.2750012,-0.5585936 0.8164066,-0.5585936 V 2 Z M 6.41875,2.7382812 1.0515625,2.8781248 7.4117188,3.0539064 v -0.0086 l -0.017968,-0.00859 -0.00859,-0.0086 -0.017968,-0.00938 -0.017188,-0.00859 -0.017968,-0.0086 -0.017188,-0.00859 -0.026564,-0.00938 -0.026564,-0.00859 -0.02578,-0.00859 -0.035156,-0.0086 h -0.035156 l -0.035156,-0.00938 h -0.035156 -0.04375 l -0.6328124,-0.0086 z M 7.675,3.4320312 1.0515625,3.6164064 7.8593752,3.8007812 7.8421872,3.7742172 7.8070312,3.6953108 7.7718752,3.6164048 7.7367192,3.546092 7.7015632,3.4757796 Z M 8,4.1523436 1.0515625,4.3453124 8.1757812,4.5390624 Z M 8.3164064,4.88125 1.0515625,5.075 8.4921876,5.2765624 Z M 8.6328124,5.6015624 1.0515625,5.8125 8.8171876,6.0234376 Z M 8.9484376,6.3218752 1.0515625,6.5414064 9.1421876,6.7617188 Z M 9.2648436,7.0515624 1.0515625,7.2710936 9.4671876,7.4992188 Z M 9.58125,7.7718752 1.0515625,8 9.7390624,8.2375 9.7656264,8.1757812 Z M 9.607814,8.4921876 1.0515641,8.7289064 9.370314,8.9578124 Z M 9.2296876,9.2382812 1.0515625,9.4585936 9.0101564,9.6781248 Z M 8.8523436,9.9765624 1.0515625,10.1875 8.6414064,10.398438 Z M 8.4828124,10.723438 1.0515625,10.925 8.2726564,11.11875 Z m -0.3773436,0.7375 -7.0539063,0.19375 6.8695311,0.184374 z m -0.36875,0.746874 -6.6851563,0.175782 6.5007811,0.184375 0.02578,-0.04375 0.026564,-0.06172 0.035156,-0.06172 z M 7.2882812,12.946094 1.0515625,13.121875 6.41875,13.261719 v -0.175 l 0.60625,-0.0094 h 0.017188 0.017968 l 0.017188,-0.0086 h 0.00938 0.017188 l 0.017968,-0.0086 h 0.00859 l 0.017188,-0.0086 0.00938,-0.0094 0.017188,-0.0086 h 0.017968 l 0.00859,-0.0086 0.017188,-0.0086 0.00859,-0.01797 0.017968,-0.0086 0.017188,-0.01797 0.017968,-0.0086 z M 6.41875,13.701562 1.0515625,13.850781 6.41875,14 Z"/>
 <path style="opacity:0.7" d="M 1.0507812 8 L 9.7382812 8.2382812 L 9.765625 8.1757812 L 9.6855469 8 L 1.0507812 8 z M 10.369141 8 L 10.451172 8.1855469 L 8.1699219 12.695312 C 7.9924119 13.076959 7.8064158 13.333492 7.6289062 13.484375 C 7.4513967 13.635258 7.2376853 13.714844 6.9980469 13.714844 L 6.9980469 14 L 9.4570312 14 L 9.4570312 13.714844 C 8.9245016 13.714844 8.6582031 13.537723 8.6582031 13.173828 C 8.6582031 12.987443 8.7473814 12.739266 8.9160156 12.4375 L 10.744141 8.8613281 L 12.341797 12.4375 C 12.501556 12.828022 12.589844 13.095211 12.589844 13.246094 C 12.589844 13.405853 12.528555 13.530559 12.404297 13.601562 C 12.280041 13.681442 12.076095 13.714844 11.783203 13.714844 L 11.783203 14 L 15.03125 14 L 15.03125 13.714844 C 14.791611 13.714844 14.577901 13.618916 14.400391 13.441406 C 14.222882 13.255021 14.019826 12.916776 13.789062 12.4375 L 11.818359 8 L 10.369141 8 z M 9.6074219 8.4921875 L 1.0507812 8.7285156 L 9.3710938 8.9570312 L 9.6074219 8.4921875 z M 9.2304688 9.2382812 L 1.0507812 9.4589844 L 9.0097656 9.6777344 L 9.2304688 9.2382812 z M 8.8515625 9.9765625 L 1.0507812 10.1875 L 8.640625 10.398438 L 8.8515625 9.9765625 z M 8.4824219 10.722656 L 1.0507812 10.925781 L 8.2734375 11.119141 L 8.4824219 10.722656 z M 8.1054688 11.460938 L 1.0507812 11.654297 L 7.921875 11.839844 L 8.1054688 11.460938 z M 7.7363281 12.207031 L 1.0507812 12.382812 L 7.5527344 12.568359 L 7.578125 12.523438 L 7.6054688 12.462891 L 7.640625 12.400391 L 7.7363281 12.207031 z M 7.2890625 12.945312 L 1.0507812 13.121094 L 6.4179688 13.261719 L 6.4179688 13.085938 L 7.0253906 13.078125 L 7.0429688 13.078125 L 7.0605469 13.078125 L 7.078125 13.068359 L 7.0859375 13.068359 L 7.1035156 13.068359 L 7.1210938 13.060547 L 7.1308594 13.060547 L 7.1484375 13.050781 L 7.15625 13.042969 L 7.1738281 13.033203 L 7.1914062 13.033203 L 7.2011719 13.025391 L 7.21875 13.015625 L 7.2265625 12.998047 L 7.2441406 12.990234 L 7.2617188 12.972656 L 7.2792969 12.962891 L 7.2890625 12.945312 z M 6.4179688 13.701172 L 1.0507812 13.851562 L 6.4179688 14 L 6.4179688 13.701172 z"/>
</svg>
