<svg xmlns="http://www.w3.org/2000/svg" width="16" height="16" version="1.1">
 <path style="fill:#ffc42e" d="M 11.179,2.0714 C 7.924,2.0714 4.75,5.2454 4.75,8.5 4.75,7.6597 5.9487,10.474 6.603,10.028 7.331,9.5311 7.5651,5.8214 8.5,5.8214 8.6073,5.8213 8.7145,5.8265 8.8212,5.8371 8.8226,5.8372 8.824,5.8381 8.8254,5.8382 11.928,6.008 13.857,8.0339 13.857,11.179 13.857,12.115 13.633,12.998 13.244,13.784 13.269,13.77 13.293,13.757 13.317,13.743 13.402,13.846 13.483,13.937 13.562,14.023 A 7.5,7.5 0 0 0 16,8.5 C 16,8.2899 15.987,8.081 15.97,7.8732 A 7.5,7.5 0 0 0 15.923,7.4861 C 15.906,7.3679 15.892,7.2494 15.87,7.1324 A 7.5,7.5 0 0 0 15.791,6.7767 C 15.762,6.6552 15.734,6.5333 15.7,6.4136 A 7.5,7.5 0 0 0 15.592,6.0872 C 15.549,5.9606 15.508,5.8335 15.458,5.7095 A 7.5,7.5 0 0 0 15.334,5.4322 C 15.274,5.3005 15.217,5.168 15.15,5.0398 A 7.5,7.5 0 0 0 15.009,4.7918 C 14.935,4.662 14.863,4.5312 14.781,4.4057 A 7.5,7.5 0 0 0 14.627,4.1912 C 14.536,4.0609 14.446,3.9289 14.346,3.8041 A 7.5,7.5 0 0 0 14.247,3.6922 C 14.121,3.5406 13.991,3.3906 13.852,3.2485 13.024,2.8269 12.108,2.0714 11.179,2.0714 Z"/>
 <path style="fill:#ff8514" d="M 8.8223,5.3024 C 10.384,5.467 11.179,6.8357 11.179,8.5 11.179,8.6073 11.173,8.7145 11.163,8.8212 11.163,8.8226 11.162,8.824 11.162,8.8254 10.992,11.928 8.9662,13.857 5.8215,13.857 4.885,13.857 4.0025,13.633 3.2162,13.244 3.2296,13.269 3.2432,13.293 3.257,13.317 3.1024,13.358 2.9945,13.401 2.873,13.444 A 7.5,7.5 0 0 0 6.9107,15.825 C 7.3164,15.89 7.7123,15.95 8.0261,15.976 A 7.5,7.5 0 0 0 8.5,16 C 8.7101,16 8.9189,15.987 9.1267,15.97 A 7.5,7.5 0 0 0 9.5139,15.923 C 9.6321,15.906 9.7506,15.892 9.8675,15.87 A 7.5,7.5 0 0 0 10.223,15.791 C 10.345,15.762 10.467,15.734 10.586,15.7 A 7.5,7.5 0 0 0 10.913,15.592 C 11.039,15.549 11.167,15.508 11.291,15.458 A 7.5,7.5 0 0 0 11.568,15.333 C 11.7,15.274 11.832,15.217 11.96,15.15 A 7.5,7.5 0 0 0 12.208,15.009 C 12.338,14.935 12.469,14.863 12.594,14.781 A 7.5,7.5 0 0 0 12.809,14.627 C 12.939,14.535 13.071,14.446 13.196,14.346 A 7.5,7.5 0 0 0 13.308,14.247 C 13.459,14.121 13.609,13.991 13.751,13.852 14.173,13.024 14.393,12.108 14.393,11.179 14.393,8.0328 11.926,5.4707 8.8223,5.3024 Z"/>
 <path style="fill:#ff5757" d="M 3.8523,2.6144 C 3.4957,2.8959 3.1672,3.2078 2.8699,3.5456 2.1741,4.336 1.6491,5.2682 1.3348,6.2839 1.3343,6.2861 1.3332,6.2879 1.3327,6.2902 1.1385,7.2361 1.0006,8.0786 1,8.5 1.0001,8.7101 1.0128,8.9189 1.0303,9.1267 1.0427,9.2562 1.0584,9.3853 1.0774,9.5139 1.0936,9.6321 1.108,9.7506 1.1297,9.8675 1.1534,9.9867 1.1799,10.105 1.2093,10.223 1.238,10.345 1.2655,10.467 1.3003,10.586 1.3337,10.696 1.3696,10.805 1.4081,10.913 1.4512,11.039 1.4922,11.167 1.542,11.291 1.5816,11.384 1.6231,11.476 1.6665,11.568 1.7257,11.699 1.7829,11.832 1.8496,11.96 1.8951,12.044 1.9422,12.126 1.9909,12.208 2.0649,12.338 2.1372,12.469 2.219,12.594 2.269,12.667 2.3203,12.738 2.3728,12.809 2.4645,12.939 2.554,13.071 2.6542,13.196 2.6867,13.234 2.7194,13.271 2.7526,13.308 2.8795,13.459 3.0086,13.609 3.1481,13.751 3.9762,14.173 4.8922,14.393 5.8214,14.393 8.9672,14.393 11.529,11.926 11.698,8.8223 11.533,10.384 10.164,11.179 8.5,11.179 8.3928,11.179 8.2856,11.173 8.1788,11.163 8.1774,11.163 8.176,11.162 8.1746,11.162 5.0723,10.992 3.1428,8.9661 3.1428,5.8214 3.1428,4.8849 3.2203,3.2161 3.2203,3.2161 3.2203,3.2161 4.1805,3.3869 3.8679,2.8602 3.8647,2.7633 3.8564,2.7042 3.8522,2.6144 Z"/>
 <path style="fill:#baff41" d="M 8.5,11.714 C 7.8746,11.714 10.402,11.247 9.926,10.939 9.0499,10.37 5.3929,9.6498 5.3929,8.5 5.3927,8.3927 5.2908,8.2855 5.3014,8.1788 5.3015,8.1774 5.3023,8.176 5.3024,8.1746 5.4723,5.0723 8.0338,2.6071 11.179,2.6071 12.115,2.6071 12.998,2.8315 13.784,3.2203 13.77,3.1958 13.757,3.1713 13.743,3.147 12.343,1.7734 10.461,1.0026 8.5,1 6.5357,1.0008 4.6502,1.772 3.2485,3.1481 2.8269,3.9761 2.6071,4.8922 2.6071,5.8214 2.6071,9.076 5.2454,11.714 8.5,11.714 Z"/>
 <path style="fill:#555555" d="M 12,8.5 A 3.5,3.5 0 0 1 8.5,12 3.5,3.5 0 0 1 5,8.5 3.5,3.5 0 0 1 8.5,5 3.5,3.5 0 0 1 12,8.5 Z"/>
</svg>
