<svg xmlns="http://www.w3.org/2000/svg" width="16" height="16" version="1.1">
 <path style="fill:#b66af5;fill-rule:evenodd" d="m 3,9.3960002 v -5.49319 c 10e-8,-0.7841356 0.1992726,-0.8046816 0.8052339,-1.16815 L 7.9916249,0.22357392 C 8.5318777,-0.06675116 8.5183037,-0.0722754 8.9673618,0.19506348 L 14,3.1911574 12.670751,5.7296226 8.5022743,3.0742494 6,4.7966958 V 7.6 Z"/>
 <path style="fill:#8a49ff;fill-rule:evenodd" d="M 13.995831,6.5151998 V 12.059707 C 14,12.871692 13.837248,12.868627 13.226323,13.235138 L 8.9114983,15.823721 C 8.484177,16.06811 8.4585623,16.05 8.0743111,15.821281 L 3.0041695,12.803124 4.6672843,10.63027 8.4965885,12.916914 11,11.192892 V 8.35 Z"/>
 <path style="fill:#a551ff;fill-rule:evenodd" d="M 3.0000001,12.8 14,6.1243822 V 3.1999998 l -10.9999999,6.5932 z"/>
</svg>
