<svg xmlns="http://www.w3.org/2000/svg" width="22" height="22" version="1.1">
 <defs>
  <style id="current-color-scheme" type="text/css">
   .ColorScheme-Text { color:#444444; } .ColorScheme-Highlight { color:#4285f4; } .ColorScheme-NeutralText { color:#ff9800; } .ColorScheme-PositiveText { color:#4caf50; } .ColorScheme-NegativeText { color:#f44336; }
  </style>
 </defs>
 <path opacity=".35" style="fill:currentColor" class="ColorScheme-Text" d="M 7,3 C 5,3 5,5 5,5 v 12 c 0,2 2,2 2,2 h 8 c 0,0 2,0 2,-2 V 6 L 14,3 Z m 3.755,3.002 c 0.02,-10e-4 0.037,0.009 0.057,0.008 2.16,-0.09 4.063,1.565 4.186,3.746 L 15,9.786 V 9.813 C 15,9.858 14.995,9.899 14.994,9.943 14.994,9.958 15,10 15,10 l -0.002,1.002 h -0.123 a 3.248,3.248 0 0 1 -0.354,0.918 c -0.017,0.03 -0.039,0.054 -0.057,0.082 h 0.534 V 14 H 15 v 2 c 0,1 -1,1 -1,1 L 12.998,16.998 V 16.014 A 2.014,2.014 0 0 1 11,18 C 9.907,18 9,17.093 9,16 9,15.618 9.134,15.288 9.336,15 H 9 V 14.002 H 6.998 v -2 H 9 V 11 H 8.998 v 0.006 h -2 L 7,10 7.01,9.906 C 6.976,7.797 8.68,6.118 10.756,6.002 Z M 14.998,14 H 13 v 0.002 h 1.998 z M 11.666,8.13 c 0.718,0.266 1.271,0.933 1.324,1.735 0,-0.007 0.002,-0.007 0.002,-0.013 -0.054,-0.799 -0.6,-1.46 -1.326,-1.721 z M 12.664,15 c 0.199,0.285 0.331,0.613 0.334,0.99 V 15 Z m -5.666,0.002 h 2 v 2 L 8,17 C 7,17 7,16 7,16 Z"/>
 <path style="fill:currentColor" class="ColorScheme-Text" d="M 11.152,7.006 A 2.992,2.992 0 0 0 9.852,7.229 3.005,3.005 0 0 0 8,10 h 2 c 0,-0.407 0.24,-0.768 0.617,-0.924 a 0.994,0.994 0 0 1 1.09,0.217 0.994,0.994 0 0 1 0.216,1.09 A 0.994,0.994 0 0 1 11,11 1,1 0 0 0 10,12 v 2 h 2 v -1.18 a 2.998,2.998 0 0 0 1.771,-1.672 3.006,3.006 0 0 0 -0.65,-3.27 3.001,3.001 0 0 0 -1.97,-0.872 z M 11,15 a 1,1 0 0 0 -1,1 1,1 0 0 0 1,1 1,1 0 0 0 1,-1 1,1 0 0 0 -1,-1 z"/>
</svg>
