<?xml version="1.0" encoding="UTF-8" standalone="no"?>
<svg xmlns:osb="http://www.openswatchbook.org/uri/2009/osb" xmlns:dc="http://purl.org/dc/elements/1.1/" xmlns:cc="http://creativecommons.org/ns#" xmlns:rdf="http://www.w3.org/1999/02/22-rdf-syntax-ns#" xmlns:svg="http://www.w3.org/2000/svg" xmlns="http://www.w3.org/2000/svg" width="16" height="16" viewBox="0 0 16 16" id="svg6394" version="1.1">
    <defs id="defs6396">
        <linearGradient id="linearGradient19282" osb:paint="solid" gradientTransform="matrix(-0.40801424,2.7359005,1.4465395,0.18903615,2588.4859,828.26016)">
            <stop style="stop-color:#ffffff;stop-opacity:1;" offset="0" id="stop19284"/>
        </linearGradient>
        <linearGradient id="linearGradient19282-3" osb:paint="solid" gradientTransform="matrix(-2.7359006,0.40801425,-0.18903616,-1.4465395,-804.26018,-2564.486)">
            <stop style="stop-color:#ffffff;stop-opacity:1;" offset="0" id="stop19284-6"/>
        </linearGradient>
        <linearGradient gradientTransform="matrix(-2.73658,0.4081035,-0.1890831,-1.446856,-1254.4599,-3933.7766)" osb:paint="solid" id="linearGradient19282-36">
            <stop id="stop19284-7" offset="0" style="stop-color:#666666;stop-opacity:1;"/>
        </linearGradient>
    </defs>
    <metadata id="metadata6399">
        <rdf:RDF>
            <cc:Work rdf:about="">
                <dc:format>
                    image/svg+xml
                </dc:format>
                <dc:type rdf:resource="http://purl.org/dc/dcmitype/StillImage"/>
                <dc:title/>
            </cc:Work>
        </rdf:RDF>
    </metadata>
    <path style="opacity:0.72;fill:#ffffff;fill-opacity:1;stroke:none;stroke-width:2;stroke-linecap:round;stroke-linejoin:round;stroke-miterlimit:4;stroke-dasharray:none;stroke-opacity:1" d="M 4,16 4,9.894531 C 3.9979,9.894113 3.9962,9.893031 3.9941,9.892531 3.438127,9.7776646 2.905777,9.5689518 2.419881,9.275344 2.407901,9.268144 2.394681,9.263134 2.382771,9.255814 2.159233,9.1171548 1.946986,8.9610713 1.748006,8.789017 1.725496,8.769697 1.703756,8.750127 1.681596,8.730427 1.484024,8.5563702 1.300511,8.3669788 1.132768,8.16402 1.128668,8.15892 1.125168,8.15346 1.121048,8.1484 0.955053,7.9437283 0.805498,7.7262538 0.673782,7.498009 0.664982,7.482779 0.655102,7.468409 0.646442,7.453089 0.520359,7.2274583 0.411961,6.9923908 0.322224,6.75 0.309734,6.71673 0.296914,6.68397 0.285114,6.65039 0.200904,6.4115964 0.134963,6.1667514 0.087848,5.917968 0.079848,5.875338 0.075208,5.832028 0.068318,5.789061 0.024745,5.528262 0.001886,5.264414 0,5 8.8e-4,4.855226 0.0081,4.710558 0.02148,4.566406 0.02898,4.479496 0.04087,4.394179 0.05273,4.308594 0.06273,4.232164 0.07441,4.155969 0.08789,4.080078 0.09789,4.026528 0.11138,3.974809 0.12305,3.921875 0.18422,3.642989 0.269166,3.369856 0.376956,3.105469 0.395026,3.061459 0.416276,3.019929 0.435546,2.976562 0.547011,2.721149 0.679635,2.475503 0.83203,2.242188 0.85451,2.208298 0.88102,2.177838 0.9043,2.144528 1.067796,1.907796 1.25142,1.685618 1.453128,1.480466 1.467808,1.465676 1.483198,1.452106 1.498048,1.437496 1.71143,1.22563 1.943491,1.033445 2.191407,0.863277 c 0.01614,-0.01099 0.0345,-0.0185 0.05078,-0.0293 0.251388,-0.167602 0.517451,-0.312073 0.794922,-0.43164 l 0.01563,-0.0078 c 0.0076,-0.0032 0.01582,-0.0046 0.02344,-0.0078 0.286954,-0.119884 0.584467,-0.212734 0.888672,-0.277344 0.01388,-0.0029 0.0271,-0.007 0.04102,-0.0098 0.162141,-0.03271 0.326728,-0.05761 0.49414,-0.07422 C 4.666138,0.008571 4.833014,1.03e-4 5,0 c 0.289423,3.57e-4 0.578268,0.02584 0.863281,0.07617 0.01385,0.0024 0.0272,0.0053 0.04102,0.0078 0.2406499,0.0457 0.4776161,0.109021 0.7089845,0.189454 0.044356,0.01516 0.088997,0.02856 0.1328126,0.04492 0.2243782,0.08449 0.4423889,0.18501 0.6523439,0.300782 0.04699,0.02576 0.09258,0.05285 0.138671,0.08008 0.209551,0.121999 0.40995,0.259079 0.59961,0.410156 0.02703,0.0218 0.05155,0.046 0.07813,0.06836 0.177718,0.149646 0.344789,0.311496 0.5,0.484375 0.02286,0.02543 0.04796,0.04831 0.07031,0.07422 0.157246,0.184633 0.300855,0.380463 0.429684,0.585938 0.03004,0.04724 0.05939,0.09422 0.08789,0.142578 0.127155,0.214078 0.238141,0.437355 0.332032,0.667968 0.0106,0.02635 0.01913,0.0535 0.0293,0.08008 C 9.763644,3.468385 9.842031,3.731645 9.898438,4 L 16,4 16,6 9.894531,6 c -5.42e-4,0.0027 -0.0014,0.0052 -0.002,0.0078 -0.04826,0.2361761 -0.113532,0.4685531 -0.195312,0.695313 l -0.0039,0.01172 c -7.06e-4,0.0019 -0.0012,0.0039 -0.002,0.0059 -0.08184,0.2201107 -0.179086,0.4341823 -0.291015,0.640625 -0.0098,0.01831 -0.01926,0.03651 -0.0293,0.05469 -0.101008,0.1812814 -0.213205,0.3560985 -0.335938,0.523437 -0.01848,0.0254 -0.03574,0.05114 -0.05469,0.07617 C 8.843278,8.1981892 8.693839,8.3711198 8.53311,8.533233 8.376768,8.6879101 8.210391,8.8321036 8.035063,8.964874 8.005583,8.987494 7.977163,9.011264 7.947173,9.033234 7.584445,9.2981304 7.187677,9.5129433 6.7675781,9.671875 6.7313231,9.685615 6.6948621,9.698015 6.6582031,9.710935 6.4433421,9.7883958 6.223426,9.8510436 6,9.898438 L 6,16 Z" id="path4397"/>
</svg>
