<?xml version="1.0" encoding="UTF-8" standalone="no"?>
<!--Created with Inkscape (http://www.inkscape.org/)-->
<svg id="svg3049" xmlns:rdf="http://www.w3.org/1999/02/22-rdf-syntax-ns#" xmlns="http://www.w3.org/2000/svg" height="16" width="16" version="1.1" xmlns:cc="http://creativecommons.org/ns#" xmlns:dc="http://purl.org/dc/elements/1.1/">
 <defs id="defs3051">
 </defs>
 <metadata id="metadata3054">
  <rdf:RDF>
   <cc:Work rdf:about="">
    <dc:format>image/svg+xml</dc:format>
    <dc:type rdf:resource="http://purl.org/dc/dcmitype/StillImage"/>
    <dc:title/>
   </cc:Work>
  </rdf:RDF>
 </metadata>
 <g id="layer1" transform="translate(-421.71 -531.79)">
  <path id="rect4874" opacity="1" fill="#d3dae3" d="m3.5 1a2.5 2.5 0 0 0 -2.5 2.5 2.5 2.5 0 0 0 2 2.4492v0.0508 4h-2v5h5v-5h-2v-4-0.0547a2.5 2.5 0 0 0 1.9492 -1.9453h0.0508 4v2h5v-5h-5v2h-4-0.0547a2.5 2.5 0 0 0 -2.4453 -2zm4.5 6v6.125l1.2695-0.625 1.5315 1.5-0.16-2.1 1.359-0.525-4-4.375z" transform="translate(421.71 531.79)"/>
 </g>
</svg>
