<?xml version="1.0" encoding="UTF-8" standalone="no"?>
<svg xmlns:osb="http://www.openswatchbook.org/uri/2009/osb" xmlns:dc="http://purl.org/dc/elements/1.1/" xmlns:cc="http://creativecommons.org/ns#" xmlns:rdf="http://www.w3.org/1999/02/22-rdf-syntax-ns#" xmlns:svg="http://www.w3.org/2000/svg" xmlns="http://www.w3.org/2000/svg" version="1.1" id="svg6394" viewBox="0 0 16 16" height="16" width="16">
    <defs id="defs6396">
        <linearGradient gradientTransform="matrix(-0.40801424,2.7359005,1.4465395,0.18903615,2588.4859,828.26016)" osb:paint="solid" id="linearGradient19282">
            <stop id="stop19284" offset="0" style="stop-color:#ffffff;stop-opacity:1;"/>
        </linearGradient>
        <linearGradient gradientTransform="matrix(-2.7359006,0.40801425,-0.18903616,-1.4465395,-804.26018,-2564.486)" osb:paint="solid" id="linearGradient19282-3">
            <stop id="stop19284-6" offset="0" style="stop-color:#ffffff;stop-opacity:1;"/>
        </linearGradient>
        <linearGradient id="linearGradient19282-36" osb:paint="solid" gradientTransform="matrix(-2.73658,0.4081035,-0.1890831,-1.446856,-1254.4599,-3933.7766)">
            <stop style="stop-color:#666666;stop-opacity:1;" offset="0" id="stop19284-7"/>
        </linearGradient>
    </defs>
    <metadata id="metadata6399">
        <rdf:RDF>
            <cc:Work rdf:about="">
                <dc:format>
                    image/svg+xml
                </dc:format>
                <dc:type rdf:resource="http://purl.org/dc/dcmitype/StillImage"/>
                <dc:title/>
            </cc:Work>
        </rdf:RDF>
    </metadata>
    <path id="rect7762" d="m 4.9041103,-0.03116557 0,0.09766 c -1.35198,-0.141619 -2.46862,0.183298 -3.27539,0.820313 C 0.81303034,1.5308674 0.32357034,2.4641224 0.11895034,3.4571194 c -0.29378,1.4257901 -0.0218,3.009599 0.78516,4.216797 l 0,3.2949176 3.99999996,0 0,-1.1621086 c 0.6603,0.088 1.34313,0.140532 2.04297,0.158203 -0.004,0.2152096 -0.0173,0.4443536 -0.0176,0.6542966 -0.002,1.395652 0.0771,2.656134 0.55469,3.611328 0.8951505,1.790295 2.7004707,2.086076 4.4199207,1.578125 l 2e-5,0.160156 4,0 0,-3.773438 c 0.18457,-0.715366 0.10335,-1.454354 -0.35547,-2.142578 -0.48313,-0.7246936 -1.39474,-0.9214836 -2.44141,-1.0175776 -1.04664,-0.09609 -2.29829,-0.05566 -3.6015602,-0.02734 -0.51656,0.01122 -1.01121,-0.03417 -1.53125,-0.03711 0.032,-0.899384 0.0656,-1.783274 0.0723,-2.6933589 0.006,-0.801004 -0.0208,-1.577421 -0.10742,-2.3085941 l 0.96481,-3e-6 0,-3.99999997 -4.0000005,0 z m -0.87891,1.06640597 c 0.25019,-0.01421 0.52019,-0.0071 0.81055,0.02539 0.026,0.0029 0.043,0.01408 0.0684,0.01758 l -4e-5,2.890624 2.02148,0 c 0.0908,0.6976381 0.12713,1.4759041 0.1211,2.3007811 -0.006,0.8769409 -0.0403,1.7767399 -0.0723,2.6777349 -0.72619,-0.0272 -1.4213,-0.0826 -2.07031,-0.175782 l 3e-5,-1.802734 -3.24414,0 c -0.56892,-0.9567049 -0.79011996,-2.2058929 -0.5625,-3.310547 0.16607,-0.805927 0.55045,-1.51262 1.15039,-1.986328 0.44995,-0.355281 1.02678,-0.594103 1.77734,-0.636719 z m 7.3808607,8.939453 c 0.59016,-9.66e-4 1.13593,0.01318 1.60938,0.05664 0.94689,0.08693 1.53673,0.329516 1.70117,0.576172 0.27437,0.411556 0.29848,0.882852 0.16016,1.361328 l -2.97266,10e-7 0,2.802734 c -1.36516,0.520367 -2.8210902,0.420333 -3.5253902,-0.988281 -0.32863,-0.657256 -0.45087,-1.816668 -0.44922,-3.162109 2.4e-4,-0.198431 0.0135,-0.434923 0.0176,-0.6406246 0.53213,-0.0029 1.06172,0.03665 1.58008,0.02539 0.6541802,-0.01421 1.2887402,-0.03028 1.8789002,-0.03125 z" style="opacity:0.72;fill:#ffffff;fill-opacity:1"/>
</svg>
