<svg xmlns="http://www.w3.org/2000/svg" width="16" height="16" viewBox="0 0 16 16">
 <defs>
  <style id="current-color-scheme" type="text/css">
   .ColorScheme-Text { color:#dfdfdf; } .ColorScheme-Highlight { color:#4285f4; }
  </style>
 </defs>
 <path style="fill:currentColor" class="ColorScheme-Text" d="M 4.9042969 -0.03125 L 4.9042969 0.06640625 C 3.5522969 -0.07521375 2.4357062 0.24970875 1.6289062 0.88671875 C 0.81323625 1.5308188 0.32384062 2.4640313 0.11914062 3.4570312 C -0.17463937 4.8828312 0.097336875 6.4666281 0.90429688 7.6738281 L 0.90429688 10.96875 L 4.9042969 10.96875 L 4.9042969 9.8066406 C 5.5645969 9.8946406 6.2473656 9.9471738 6.9472656 9.9648438 C 6.9432656 10.180054 6.9299875 10.409191 6.9296875 10.619141 C 6.9276875 12.014841 7.006785 13.275269 7.484375 14.230469 C 8.379525 16.020769 10.184897 16.316594 11.904297 15.808594 L 11.904297 15.96875 L 15.904297 15.96875 L 15.904297 12.195312 C 16.088867 11.479942 16.007648 10.740934 15.548828 10.052734 C 15.065698 9.3280444 14.154122 9.1312763 13.107422 9.0351562 C 12.060822 8.9390662 10.809159 8.9794925 9.5058594 9.0078125 C 8.9892994 9.0190325 8.4946094 8.9736431 7.9746094 8.9707031 C 8.0066094 8.0713231 8.040175 7.1874437 8.046875 6.2773438 C 8.052875 5.4763437 8.0260731 4.69995 7.9394531 3.96875 L 8.9042969 3.96875 L 8.9042969 -0.03125 L 4.9042969 -0.03125 z M 4.0253906 1.0351562 C 4.2755806 1.0209462 4.5455775 1.0280569 4.8359375 1.0605469 C 4.8619375 1.0634469 4.8788969 1.074625 4.9042969 1.078125 L 4.9042969 3.96875 L 6.9257812 3.96875 C 7.0165812 4.66639 7.052905 5.4446313 7.046875 6.2695312 C 7.040875 7.1464713 7.0066094 8.0462656 6.9746094 8.9472656 C 6.2484194 8.9200656 5.5532969 8.8646644 4.9042969 8.7714844 L 4.9042969 6.96875 L 1.6601562 6.96875 C 1.0912363 6.01205 0.87003625 4.7628031 1.0976562 3.6582031 C 1.2637262 2.8522731 1.6480969 2.145575 2.2480469 1.671875 C 2.6979969 1.316595 3.2748906 1.0777762 4.0253906 1.0351562 z M 11.40625 9.9746094 C 11.99641 9.9736434 12.542125 9.98779 13.015625 10.03125 C 13.962515 10.11818 14.552297 10.360772 14.716797 10.607422 C 14.991167 11.018982 15.015273 11.4903 14.876953 11.96875 L 11.904297 11.96875 L 11.904297 14.771484 C 10.539097 15.291854 9.0832063 15.191813 8.3789062 13.783203 C 8.0502762 13.125943 7.9280375 11.966494 7.9296875 10.621094 C 7.9299275 10.422664 7.9431656 10.186169 7.9472656 9.9804688 C 8.4793956 9.9775687 9.0089437 10.017119 9.5273438 10.005859 C 10.181524 9.9916494 10.81605 9.9755794 11.40625 9.9746094 z"/>
</svg>
