<svg xmlns="http://www.w3.org/2000/svg" width="16" height="16" viewBox="0 0 16 16">
 <defs>
  <style id="current-color-scheme" type="text/css">
   .ColorScheme-Text { color:#dfdfdf; } .ColorScheme-Highlight { color:#4285f4; } .ColorScheme-NeutralText { color:#ff9800; } .ColorScheme-PositiveText { color:#4caf50; } .ColorScheme-NegativeText { color:#f44336; }
  </style>
 </defs>
 <path style="fill:currentColor" class="ColorScheme-Text" d="M 6.234375 1 L 6.078125 2.84375 A 5.5495 5.5 0 0 0 4.4570312 3.7734375 L 2.765625 2.984375 L 1 6.015625 L 2.5351562 7.0722656 A 5.5495 5.5 0 0 0 2.4511719 8 A 5.5495 5.5 0 0 0 2.53125 8.9316406 L 1 9.984375 L 2.765625 13.015625 L 4.453125 12.228516 A 5.5495 5.5 0 0 0 6.078125 13.152344 L 6.234375 15 L 9.765625 15 L 9.921875 13.15625 A 5.5495 5.5 0 0 0 11.542969 12.226562 L 13.234375 13.015625 L 15 9.984375 L 13.464844 8.9277344 A 5.5495 5.5 0 0 0 13.548828 8 A 5.5495 5.5 0 0 0 13.46875 7.0683594 L 15 6.015625 L 13.234375 2.984375 L 11.546875 3.7714844 A 5.5495 5.5 0 0 0 9.921875 2.8476562 L 9.765625 1 L 6.234375 1 z M 9 5 L 8.3007812 7.0996094 L 11 8 L 7 11 L 7.6992188 8.9003906 L 5 8 L 9 5 z"/>
</svg>
