<svg xmlns="http://www.w3.org/2000/svg" width="16" height="16" version="1.1">
 <defs>
  <style id="current-color-scheme" type="text/css">
   .ColorScheme-Text { color:#dfdfdf; } .ColorScheme-Highlight { color:#4285f4; } .ColorScheme-NeutralText { color:#ff9800; } .ColorScheme-PositiveText { color:#4caf50; } .ColorScheme-NegativeText { color:#f44336; }
  </style>
 </defs>
 <path style="fill:currentColor" class="ColorScheme-Text" d="m 1.9995103,0.99991816 c -0.5540001,0 -1.00000003,0.44599994 -1.00000003,1.00000004 v 4 c 0,0.5540001 0.44599993,1.0000001 1.00000003,1.0000001 h 4.0000004 c 0.554,0 1,-0.446 1,-1.0000001 v -4 c 0,-0.5540001 -0.446,-1.00000004 -1,-1.00000004 z m 8.0000004,0 c -0.554,0 -1,0.44600004 -1,1.00000004 v 4 c 0,0.5540001 0.446,1.0000001 1,1.0000001 h 4.0000003 c 0.554,0 1,-0.446 1,-1.0000001 v -4 c 0,-0.554 -0.446,-1.00000004 -1,-1.00000004 z M 1.9995103,8.9999183 c -0.554,0 -1.00000003,0.446 -1.00000003,1 v 3.9999997 c 0,0.554 0.44600003,1 1.00000003,1 h 4.0000004 c 0.554,0 1,-0.446 1,-1 V 9.9999183 c 0,-0.554 -0.446,-1 -1,-1 z m 10.0000007,0 c -0.554,0 -1,0.454225 -1,1.0195307 v 1.980469 H 9.4272447 a 0.42863216,0.37504649 0 0 0 -0.302734,0.640625 l 2.5722663,2.25 a 0.42863216,0.37504649 0 0 0 0.605468,0 l 2.572266,-2.25 a 0.42863216,0.37504649 0 0 0 -0.302734,-0.640625 h -1.572266 v -1.980469 c 0,-0.5653057 -0.446,-1.0195307 -1,-1.0195307 z"/>
</svg>
