<?xml version="1.0" encoding="UTF-8" standalone="no"?>
<!-- Created with Inkscape (http://www.inkscape.org/) -->
<svg id="svg7384" xmlns:rdf="http://www.w3.org/1999/02/22-rdf-syntax-ns#" style="enable-background:new" xmlns="http://www.w3.org/2000/svg" xmlns:osb="http://www.openswatchbook.org/uri/2009/osb" height="16" width="16" version="1.1" xmlns:cc="http://creativecommons.org/ns#" xmlns:dc="http://purl.org/dc/elements/1.1/">
 <metadata id="metadata90">
  <rdf:RDF>
   <cc:Work rdf:about="">
    <dc:format>image/svg+xml</dc:format>
    <dc:type rdf:resource="http://purl.org/dc/dcmitype/StillImage"/>
    <dc:title>Paper Symbolic Icon Theme</dc:title>
   </cc:Work>
  </rdf:RDF>
 </metadata>
 <title id="title8473">Paper Symbolic Icon Theme</title>
 <g id="layer12" transform="translate(-265 19.003)">
  <path id="path4157" opacity=".72" d="m273.81-17.935a2 2 0 0 0 -1.9609 1.6719 2 2 0 0 0 1.6445 2.3008 2 2 0 0 0 2.3008 -1.6465 2 2 0 0 0 -1.6445 -2.3008 2 2 0 0 0 -0.33984 -0.02539zm-4.2246 1.3457a1 1 0 0 0 -1 1 1 1 0 0 0 1 1 1 1 0 0 0 1 -1 1 1 0 0 0 -1 -1zm8.3203 0.97266a1 1 0 0 0 -1 1 1 1 0 0 0 1 1 1 1 0 0 0 1 -1 1 1 0 0 0 -1 -1zm-9.8476 1.7949a2 2 0 0 0 -1.9609 1.6719 2 2 0 0 0 1.6465 2.3008 2 2 0 0 0 2.3008 -1.6445 2 2 0 0 0 -1.6465 -2.3008 2 2 0 0 0 -0.33984 -0.02734zm5.1855 1.4258a1 1 0 0 0 -1 1 1 1 0 0 0 1 1 1 1 0 0 0 1 -1 1 1 0 0 0 -1 -1zm4.6797 0.21094a2 2 0 0 0 -1.9609 1.6719 2 2 0 0 0 1.6465 2.3008 2 2 0 0 0 2.3008 -1.6445 2 2 0 0 0 -1.6465 -2.3008 2 2 0 0 0 -0.33985 -0.02734zm-9.9277 3.582a1 1 0 0 0 -1 1 1 1 0 0 0 1 1 1 1 0 0 0 1 -1 1 1 0 0 0 -1 -1zm4.1758 0.53125a2 2 0 0 0 -1.959 1.6738 2 2 0 0 0 1.6445 2.3008 2 2 0 0 0 2.3008 -1.6465 2 2 0 0 0 -1.6445 -2.3008 2 2 0 0 0 -0.3418 -0.027343zm4.5898 1.0684a1 1 0 0 0 -1 1 1 1 0 0 0 1 1 1 1 0 0 0 1 -1 1 1 0 0 0 -1 -1z" fill="#fff"/>
 </g>
</svg>
