<svg width="16" height="16" version="1.1" xmlns="http://www.w3.org/2000/svg">
 <defs>
  <style id="current-color-scheme" type="text/css">.ColorScheme-Text { color:#444444; } .ColorScheme-Highlight { color:#4285f4; } .ColorScheme-NeutralText { color:#ff9800; } .ColorScheme-PositiveText { color:#4caf50; } .ColorScheme-NegativeText { color:#f44336; }</style>
 </defs>
 <path class="ColorScheme-Text" d="m8 0c-2.209139 0-4 1.790861-4 4s1.790861 4 4 4 4-1.790861 4-4-1.790861-4-4-4zm0 9c-4.432 0-8 3.122-8 7h10c-1.259-1-2-2.426-2-4 0-1.063 0.362-2.1495 1-3h-1zm4.5 0c-1.932997 0-3.5 1.567003-3.5 3.5s1.567003 3.5 3.5 3.5 3.5-1.567003 3.5-3.5-1.567003-3.5-3.5-3.5zm-0.5 1h1v2h2v1h-2v2h-1v-2h-2v-1h2v-2z" style="fill:currentColor"/>
</svg>
