<svg width="16" height="16" version="1.1" xmlns="http://www.w3.org/2000/svg">
 <defs>
  <style id="current-color-scheme" type="text/css">.ColorScheme-Text { color:#444444; } .ColorScheme-Highlight { color:#4285f4; } .ColorScheme-NeutralText { color:#ff9800; } .ColorScheme-PositiveText { color:#4caf50; } .ColorScheme-NegativeText { color:#f44336; }</style>
 </defs>
 <path class="ColorScheme-Text" d="m0 1v8h2v-2h1.6113281l1.0878907 2h2.3007812l-1.3847656-2.4726562c0.8624939-0.5510697 1.384526-1.5038334 1.3847656-2.5273438 2e-7 -1.6568543-1.3431457-3.0000002-3-3zm12 0c-2.2091389 2e-7 -3.9999998 1.7908611-4 4 2e-7 2.2091389 1.7908611 3.9999998 4 4 1.824017 2.89e-5 3.417043-1.2339034 3.873047-3h0.126953v-1h-3v1h0.732422c-0.357332 0.618917-1.017758 1.0001326-1.732422 1-1.104569-1e-7 -2-0.8954305-2-2s0.895431-1.9999999 2-2c0.714664-1.326e-4 1.37509 0.381083 1.732422 1h2.140625c-0.456004-1.7660966-2.04903-3.0000289-3.873047-3zm-10 2h2c0.5522847 0 1 0.4477153 1 1s-0.4477153 1-1 1h-2zm-2 8v4h1v-1h1v1h1v-4zm4 0v4h3v-4h-1v3h-1v-3zm4 0v1h1v3h1v-3h1v-1zm4 0v4h3v-4zm-11 1h1v1h-1zm12 0h1v2h-1z" style="fill:currentColor"/>
</svg>
