<?xml version="1.0" encoding="UTF-8" standalone="no"?>
<svg width="24" xmlns="http://www.w3.org/2000/svg" version="1.1" height="24">
 <defs>
  <linearGradient id="linearGradient3605" x1="7" gradientUnits="userSpaceOnUse" y1="12" gradientTransform="matrix(-.99831 .058191 .058191 .99831 23.281 -.67796)" x2="19" y2="5">
   <stop stop-color="#d3dae3" stop-opacity=".5" offset="0"/>
   <stop stop-color="#d3dae3" stop-opacity="0" offset="1"/>
  </linearGradient>
  <linearGradient id="linearGradient3611" x1="7" gradientUnits="userSpaceOnUse" y1="12" gradientTransform="matrix(.99831 -.058191 -.058191 -.99831 .71863 24.678)" x2="17" y2="12">
   <stop stop-color="#d3dae3" offset="0"/>
   <stop stop-opacity=".5" stop-color="#d3dae3" offset="1"/>
  </linearGradient>
 </defs>
 <path d="m5.0119 12.407c0.22497 3.8594 3.536 6.8058 7.3955 6.5808 3.8594-0.22497 6.8058-3.536 6.5808-7.3955l-1.9966 0.11638c0.16069 2.7567-1.9439 5.1218-4.7006 5.2825-2.7558 0.162-5.1208-1.942-5.2815-4.699-0.0757-1.298-2.0723-1.181-1.9966 0.116z" fill="url(#linearGradient3611)"/>
 <path d="m5.0119 12.407 1.9966-0.116c-0.1607-2.7568 1.9438-5.1218 4.7005-5.2825 2.7567-0.16069 5.1218 1.9439 5.2825 4.7006l1.9966-0.11638c-0.226-3.8598-3.537-6.8061-7.396-6.5811-3.8598 0.2249-6.8061 3.536-6.5811 7.3951z" fill="url(#linearGradient3605)"/>
</svg>
