<?xml version="1.0" encoding="UTF-8" standalone="no"?>
<!-- Created with Inkscape (http://www.inkscape.org/) -->
<svg id="svg6530" xmlns:rdf="http://www.w3.org/1999/02/22-rdf-syntax-ns#" xmlns:xlink="http://www.w3.org/1999/xlink" version="1.1" height="24" viewBox="0 0 24 24" width="24" xmlns="http://www.w3.org/2000/svg" xmlns:cc="http://creativecommons.org/ns#" xmlns:dc="http://purl.org/dc/elements/1.1/">
 <metadata id="metadata6535">
  <rdf:RDF>
   <cc:Work rdf:about="">
    <dc:format>image/svg+xml</dc:format>
    <dc:type rdf:resource="http://purl.org/dc/dcmitype/StillImage"/>
    <dc:title/>
   </cc:Work>
  </rdf:RDF>
 </metadata>
 <g id="layer1" transform="translate(-544 -648.36)">
  <path id="path12433" style="color:#bebebe" d="m550 652.36s-2 0-2 2.0625v11.938c0 2 2 2 2 2h12c2 0 2-2 2-2v-12s0-2-2-2h-12zm6.8047 3.9434h2.4629v5.9688c0 0.42502 0.0762 0.74695 0.23047 0.96289 0.15767 0.21594 0.39025 0.32226 0.69531 0.32226h1.1055v0.80274h-1.1992c-0.56555 0-1.0045-0.1816-1.3164-0.54493-0.30848-0.36332-0.46093-0.87801-0.46093-1.543v-5.2285h-1.5176v-0.74023zm-6.7148 0.38086h1.3887l1.3262 3.9082 1.3359-3.9082h1.3945v7.6758h-0.96094v-6.7812l-1.3691 4.0469h-0.78516l-1.373-4.0469v6.7812h-0.95704v-7.6758z" fill="#fff"/>
 </g>
</svg>
