<?xml version="1.0" encoding="UTF-8" standalone="no"?>
<!-- Created with Inkscape (http://www.inkscape.org/) -->

<svg
   xmlns:osb="http://www.openswatchbook.org/uri/2009/osb"
   xmlns:dc="http://purl.org/dc/elements/1.1/"
   xmlns:cc="http://creativecommons.org/ns#"
   xmlns:rdf="http://www.w3.org/1999/02/22-rdf-syntax-ns#"
   xmlns:svg="http://www.w3.org/2000/svg"
   xmlns="http://www.w3.org/2000/svg"
   xmlns:sodipodi="http://sodipodi.sourceforge.net/DTD/sodipodi-0.dtd"
   xmlns:inkscape="http://www.inkscape.org/namespaces/inkscape"
   sodipodi:docname="notes.svg"
   height="24"
   id="svg6530"
   version="1.1"
   inkscape:version="0.91 r13725"
   viewBox="0 0 24 24"
   width="24">
  <defs
     id="defs6532">
    <linearGradient
       id="linearGradient5606"
       osb:paint="solid">
      <stop
         id="stop5608"
         offset="0"
         style="stop-color:#000000;stop-opacity:1;" />
    </linearGradient>
  </defs>
  <sodipodi:namedview
     inkscape:bbox-nodes="true"
     bordercolor="#666666"
     borderopacity="1.0"
     inkscape:current-layer="layer1"
     inkscape:cx="-206.0895"
     inkscape:cy="-14.501617"
     inkscape:document-units="px"
     id="base"
     inkscape:object-nodes="true"
     inkscape:object-paths="true"
     pagecolor="#454d50"
     inkscape:pageopacity="0"
     inkscape:pageshadow="2"
     showgrid="false"
     inkscape:snap-bbox="true"
     inkscape:snap-bbox-edge-midpoints="true"
     inkscape:snap-bbox-midpoints="true"
     inkscape:snap-smooth-nodes="true"
     units="px"
     inkscape:window-height="849"
     inkscape:window-maximized="1"
     inkscape:window-width="1600"
     inkscape:window-x="0"
     inkscape:window-y="0"
     inkscape:zoom="1">
    <inkscape:grid
       empspacing="4"
       id="grid8845"
       originx="-473"
       originy="-121.08954"
       type="xygrid" />
  </sodipodi:namedview>
  <metadata
     id="metadata6535">
    <rdf:RDF>
      <cc:Work
         rdf:about="">
        <dc:format>image/svg+xml</dc:format>
        <dc:type
           rdf:resource="http://purl.org/dc/dcmitype/StillImage" />
        <dc:title></dc:title>
      </cc:Work>
    </rdf:RDF>
  </metadata>
  <g
     inkscape:groupmode="layer"
     id="layer1"
     inkscape:label="panel"
     style="display:inline"
     transform="translate(-473,-907.27262)">
    <path
       inkscape:connector-curvature="0"
       d="m 492.21875,912.39762 c -0.0741,0.0356 -0.13911,0.0898 -0.1875,0.15625 l -0.5,0.5 -0.15625,-0.15625 -6,6 0.15625,0.15625 -0.5,0.5 -0.0312,0.71875 0.71875,-0.0312 0.5,-0.5 0.15625,0.15625 6,-6 -0.15625,-0.15625 0.5,-0.5 c 0.29288,-0.29845 -0.0248,-0.91114 -0.4375,-0.84375 -0.0208,-10e-4 -0.0417,-10e-4 -0.0625,0 z M 478,914.27262 c -0.554,0 -1,0.446 -1,1 l 0,9 c 0,0.554 0.446,1 1,1 l 12,0 c 0.554,0 1,-0.446 1,-1 l 0,-7.5625 -3.90625,3.90625 -0.71875,0.6875 -0.15625,-0.15625 -0.0625,0.0625 -0.40625,0.0312 -0.71875,0.0312 -1.0625,0.0312 0.0312,-1.0625 0.0312,-0.71875 0.0312,-0.40625 0.0625,-0.0625 -0.15625,-0.15625 0.6875,-0.71875 3.90625,-3.90625 -10.5625,0 z m -1,11 0,1 c 0,0.554 0.446,1 1,1 l 12,0 c 0.554,0 1,-0.446 1,-1 l 0,-1 c 0,0.554 -0.446,1 -1,1 l -12,0 c -0.554,0 -1,-0.446 -1,-1 z"
       id="path4077-8"
       style="color:#000000;opacity:1;fill:#ffffff;fill-opacity:1;stroke:none" />
  </g>
  <g
     inkscape:groupmode="layer"
     id="layer2"
     inkscape:label="animations"
     transform="translate(-473,-454.91046)" />
</svg>
