<?xml version="1.0" encoding="UTF-8" standalone="no"?>
<svg
   xmlns:dc="http://purl.org/dc/elements/1.1/"
   xmlns:cc="http://creativecommons.org/ns#"
   xmlns:rdf="http://www.w3.org/1999/02/22-rdf-syntax-ns#"
   xmlns:svg="http://www.w3.org/2000/svg"
   xmlns="http://www.w3.org/2000/svg"
   width="24"
   viewBox="0 0 24 24"
   version="1.1"
   id="svg6530"
   height="24">
  <defs
     id="defs6532" />
  <metadata
     id="metadata6535">
    <rdf:RDF>
      <cc:Work
         rdf:about="">
        <dc:format>image/svg+xml</dc:format>
        <dc:type
           rdf:resource="http://purl.org/dc/dcmitype/StillImage" />
        <dc:title />
      </cc:Work>
    </rdf:RDF>
  </metadata>
  <g
     transform="translate(-444,-916.36213)"
     id="layer1">
    <path
       style="color:#000000;display:inline;overflow:visible;visibility:visible;fill:#ffffff;fill-opacity:1;fill-rule:nonzero;stroke:none;stroke-width:2;marker:none;enable-background:accumulate"
       id="path3763"
       d="m 456,920.36213 c -4.41828,0 -8,3.58172 -8,8 0,4.41828 3.58172,8 8,8 4.41828,0 8,-3.58172 8,-8 0,-4.41828 -3.58172,-8 -8,-8 z m -1.1875,4.75 c 0.13563,-0.002 0.27299,-10e-4 0.40625,0 3.19819,0.0349 5.6875,1.09375 5.6875,1.09375 0.324,0.13711 0.47881,0.54609 0.34375,0.875 -0.13507,0.32891 -0.551,0.51211 -0.875,0.375 0,0 -4.05728,-1.70541 -8.1875,-0.65625 -0.34779,0.11585 -0.78588,-0.10835 -0.875,-0.46875 -0.0891,-0.3604 0.17079,-0.77912 0.53125,-0.84375 1.01822,-0.25865 2.01936,-0.35918 2.96875,-0.375 z m 0.15625,2.4375 c 0.11987,-7.2e-4 0.22685,-0.003 0.34375,0 2.80565,0.0648 4.75,1.09375 4.75,1.09375 0.24887,0.13077 0.34756,0.46613 0.21875,0.71875 -0.12881,0.25259 -0.4699,0.38077 -0.71875,0.25 0,0 -3.09132,-1.65368 -7.0625,-0.6875 -0.27912,0.0875 -0.58838,-0.0866 -0.65625,-0.375 -0.0679,-0.28843 0.14956,-0.60624 0.4375,-0.65625 0.95419,-0.23215 1.84842,-0.33875 2.6875,-0.34375 z m -0.0625,2.28125 c 0.10521,4e-4 0.21039,0.0276 0.3125,0.0312 2.45058,0.0833 4,1 4,1 0.20022,0.096 0.2986,0.36808 0.1875,0.5625 -0.1111,0.19441 -0.41229,0.25378 -0.59375,0.125 0,0 -2.47878,-1.48214 -6.15625,-0.65625 -0.21108,0.067 -0.45119,-0.0623 -0.5,-0.28125 -0.0488,-0.21899 0.1248,-0.46828 0.34375,-0.5 0.86472,-0.1942 1.66981,-0.28485 2.40625,-0.28125 z" />
  </g>
  <g
     transform="translate(-444,-463.99997)"
     id="layer2" />
</svg>
