<?xml version="1.0" encoding="UTF-8" standalone="no"?>
<!-- Created with Inkscape (http://www.inkscape.org/) -->
<svg id="svg7384" xmlns:rdf="http://www.w3.org/1999/02/22-rdf-syntax-ns#" style="enable-background:new" xmlns="http://www.w3.org/2000/svg" xmlns:osb="http://www.openswatchbook.org/uri/2009/osb" height="22" width="22" version="1.1" xmlns:cc="http://creativecommons.org/ns#" xmlns:dc="http://purl.org/dc/elements/1.1/">
 <metadata id="metadata90">
  <rdf:RDF>
   <cc:Work rdf:about="">
    <dc:format>image/svg+xml</dc:format>
    <dc:type rdf:resource="http://purl.org/dc/dcmitype/StillImage"/>
    <dc:title>Paper Symbolic Icon Theme</dc:title>
   </cc:Work>
  </rdf:RDF>
 </metadata>
 <title id="title8473">Paper Symbolic Icon Theme</title>
 <g id="layer12" transform="translate(-365 79.003)">
  <path id="path4-0-6" opacity=".5" style="enable-background:new" d="m374.5-75.027c-3.0289 0-5.5 2.4746-5.5 5.5 0 1.0622 0.28612 2.0631 0.8125 2.9062l1.4688-1.4688c-0.19332-0.43602-0.28125-0.9265-0.28125-1.4375 0-1.9452 1.5526-3.5 3.5-3.5 0.51218 0 0.96974 0.11857 1.4062 0.3125l0.75-0.75 0.0937-0.09375 0.625-0.65625c-0.84308-0.51813-1.8212-0.8125-2.875-0.8125zm5.1113 1c-0.18204 0-0.3645 0.06959-0.50585 0.21094l-1.3965 1.4062 2.6738 2.6719 1.4043-1.3965c0.28271-0.28271 0.28271-0.72706 0-1.0098l-1.6699-1.6719c-0.14135-0.14135-0.32381-0.21094-0.50586-0.21094zm-2.8613 2.5762-6.75 6.75v2.6738h2.6719l6.752-6.752-2.6738-2.6719zm2.375 5.1113-1.4375 1.4062 3.625 3.625c0.95834 0.93804 2.3651-0.50001 1.4062-1.4375l-3.5938-3.5938z"/>
 </g>
</svg>
