<?xml version='1.0' encoding='UTF-8' standalone='no'?>
<svg height="22" version="1.1" viewBox="0 0 22 22" width="22" xmlns:xlink="http://www.w3.org/1999/xlink" xmlns="http://www.w3.org/2000/svg">
 <defs>
  <linearGradient id="linearGradient4947">
   <stop offset="0" style="stop-color:#dbdee0;stop-opacity:1"/>
   <stop offset="1" style="stop-color:#dbdee0;stop-opacity:0"/>
  </linearGradient>
  <linearGradient id="linearGradient3768">
   <stop offset="0" style="stop-color:#dbdee0;stop-opacity:1"/>
   <stop offset="1" style="stop-color:#dbdee0;stop-opacity:0"/>
  </linearGradient>
  <linearGradient gradientTransform="matrix(0.99999999,0,0,-0.99999999,448.12499,416.125)" gradientUnits="userSpaceOnUse" xlink:href="#linearGradient3768" id="linearGradient3816" x1="5.875" x2="3.875" y1="31.125" y2="4.125"/>
  <linearGradient gradientTransform="matrix(-0.99999999,0,0,-0.99999999,471.99999,416)" gradientUnits="userSpaceOnUse" xlink:href="#linearGradient4947" id="linearGradient3819" x1="12" x2="23" y1="6" y2="10"/>
 </defs>
 <g transform="translate(-449.00001,-393.00003)">
  <path d="m 460,412.00001 c 4.40643,-10e-6 8,-3.59357 8,-8.00001 -10e-6,-4.40643 -3.59357,-8 -8,-8 l 0,2 c 3.32555,10e-6 5.99999,2.67445 6,6 -10e-6,3.32556 -2.67445,6 -6,6.00001 -0.55229,-10e-6 -1,0.44771 -1,0.99999 -10e-6,0.55229 0.44771,1 1,1.00001 z" style="font-size:medium;font-style:normal;font-variant:normal;font-weight:normal;font-stretch:normal;text-indent:0;text-align:start;text-decoration:none;line-height:normal;letter-spacing:normal;word-spacing:normal;text-transform:none;direction:ltr;block-progression:tb;writing-mode:lr-tb;text-anchor:start;baseline-shift:baseline;color:#000000;fill:url(#linearGradient3819);fill-opacity:1;stroke:none;stroke-width:2;marker:none;visibility:visible;display:inline;overflow:visible;enable-background:accumulate;font-family:Sans;-inkscape-font-specification:Sans"/>
  <path d="M 460,412.00001 C 455.59356,412 451.99999,408.40644 452,404 c 0,-4.40643 3.59356,-8 8,-8 l 0,2 c -3.32556,0 -6,2.67445 -6.00001,6 0,3.32556 2.67445,6 6.00001,6.00001 z" style="font-size:medium;font-style:normal;font-variant:normal;font-weight:normal;font-stretch:normal;text-indent:0;text-align:start;text-decoration:none;line-height:normal;letter-spacing:normal;word-spacing:normal;text-transform:none;direction:ltr;block-progression:tb;writing-mode:lr-tb;text-anchor:start;baseline-shift:baseline;color:#000000;fill:url(#linearGradient3816);fill-opacity:1;stroke:none;stroke-width:2;marker:none;visibility:visible;display:inline;overflow:visible;enable-background:accumulate;font-family:Sans;-inkscape-font-specification:Sans"/>
  <rect height="22" style="color:#bebebe;fill:none;stroke:none;stroke-width:1;marker:none;visibility:visible;display:inline;overflow:visible" width="22" x="449" y="393"/>
 </g>
</svg>
