<?xml version="1.0" encoding="UTF-8" standalone="no"?>
<svg
   xmlns:dc="http://purl.org/dc/elements/1.1/"
   xmlns:cc="http://creativecommons.org/ns#"
   xmlns:rdf="http://www.w3.org/1999/02/22-rdf-syntax-ns#"
   xmlns:svg="http://www.w3.org/2000/svg"
   xmlns="http://www.w3.org/2000/svg"
   xmlns:sodipodi="http://sodipodi.sourceforge.net/DTD/sodipodi-0.dtd"
   xmlns:inkscape="http://www.inkscape.org/namespaces/inkscape"
   height="64"
   width="64"
   version="1"
   id="svg2"
   inkscape:version="0.91 r13725"
   sodipodi:docname="cutecom.svg">
  <metadata
     id="metadata26">
    <rdf:RDF>
      <cc:Work
         rdf:about="">
        <dc:format>image/svg+xml</dc:format>
        <dc:type
           rdf:resource="http://purl.org/dc/dcmitype/StillImage" />
        <dc:title></dc:title>
      </cc:Work>
    </rdf:RDF>
  </metadata>
  <defs
     id="defs24" />
  <sodipodi:namedview
     pagecolor="#ffffff"
     bordercolor="#666666"
     borderopacity="1"
     objecttolerance="10"
     gridtolerance="10"
     guidetolerance="10"
     inkscape:pageopacity="0"
     inkscape:pageshadow="2"
     inkscape:window-width="1535"
     inkscape:window-height="876"
     id="namedview22"
     showgrid="false"
     inkscape:zoom="4.24"
     inkscape:cx="-8.0677966"
     inkscape:cy="16"
     inkscape:window-x="65"
     inkscape:window-y="24"
     inkscape:window-maximized="1"
     inkscape:current-layer="svg2" />
  <path
     style="opacity:0.2"
     inkscape:connector-curvature="0"
     d="m 4.0000004,53.168069 0,1.999971 c 0,1.569978 1.2495821,2.83196 2.80076,2.83196 L 57.20004,58 C 58.750017,58 60,56.738018 60,55.16804 l 0,-1.999971 c 0,1.569978 -1.249983,2.831959 -2.79996,2.831959 l -50.3992796,0 c -1.5503779,0 -2.79996,-1.261981 -2.79996,-2.831959 z"
     id="path18" />
  <path
     style="fill:#848484"
     inkscape:connector-curvature="0"
     d="m 11.999886,5.0003861 39.999428,0 0,19.9997139 -39.999428,0 z"
     id="path4" />
  <rect
     style="fill:#5d5d5d"
     rx="2.7999599"
     ry="2.8339596"
     height="33.999516"
     width="55.999199"
     y="23.000128"
     x="4.0000005"
     id="rect6" />
  <g
     style="opacity:0.2"
     id="g8"
     transform="matrix(1.9999714,0,0,1.9999714,5.760572e-5,-0.9995281)">
    <rect
       style="opacity:1"
       height="2"
       width="16"
       y="16"
       x="8"
       id="rect10" />
    <rect
       style="opacity:1"
       height="2"
       width="12"
       y="20"
       x="10"
       id="rect12" />
    <rect
       style="opacity:1"
       height="2"
       width="8"
       y="24"
       x="12"
       id="rect14" />
  </g>
  <path
     style="opacity:0.2;fill:#ffffff"
     d="M 12 5 L 12 6 L 52 6 L 52 5 L 12 5 z "
     id="path20" />
</svg>
