<?xml version="1.0" encoding="UTF-8" standalone="no"?>
<svg xmlns="http://www.w3.org/2000/svg" height="32" width="32" version="1">
 <rect ry="1.3" rx="1.3" transform="rotate(45)" height="19.145" width="19.145" y="-9.57" x="13.05" fill="#ffc35a"/>
 <path opacity=".2" d="m16 3c-0.332 0-0.665 0.1282-0.92 0.3828l-11.697 11.697c-0.3854 0.385-0.479 0.948-0.2814 1.42 0.0636-0.152 0.1571-0.296 0.2812-0.42l11.697-11.697c0.509-0.5095 1.331-0.5095 1.84-0.0002l11.697 11.697c0.124 0.124 0.218 0.268 0.281 0.42 0.198-0.472 0.104-1.035-0.281-1.42l-11.697-11.697c-0.255-0.2548-0.588-0.383-0.92-0.383z" fill="#fff"/>
 <path opacity=".2" d="m3.1017 16.501c-0.1976 0.472-0.104 1.035 0.2812 1.42l11.697 11.697c0.509 0.509 1.331 0.509 1.84 0l11.697-11.697c0.385-0.385 0.479-0.948 0.281-1.42-0.063 0.152-0.157 0.296-0.281 0.42l-11.697 11.697c-0.509 0.509-1.331 0.509-1.84 0l-11.697-11.697c-0.1245-0.124-0.218-0.268-0.2816-0.42z"/>
 <path stroke-width="2.8" fill="#2e2e2e" stroke-opacity=".55" d="m16 9.3498v4.1502l-3 2.9908 0.0091 0.0091h-0.0091v6.5h2v-5.971l1-1.029v7h2v-13.65z"/>
</svg>
