<?xml version="1.0" encoding="UTF-8" standalone="no"?>
<svg
   xmlns:dc="http://purl.org/dc/elements/1.1/"
   xmlns:cc="http://creativecommons.org/ns#"
   xmlns:rdf="http://www.w3.org/1999/02/22-rdf-syntax-ns#"
   xmlns:svg="http://www.w3.org/2000/svg"
   xmlns="http://www.w3.org/2000/svg"
   xmlns:sodipodi="http://sodipodi.sourceforge.net/DTD/sodipodi-0.dtd"
   xmlns:inkscape="http://www.inkscape.org/namespaces/inkscape"
   width="64"
   version="1.1"
   height="64"
   viewBox="0 0 64 64"
   id="svg2"
   inkscape:version="0.91 r13725"
   sodipodi:docname="discord.svg">
  <metadata
     id="metadata24">
    <rdf:RDF>
      <cc:Work
         rdf:about="">
        <dc:format>image/svg+xml</dc:format>
        <dc:type
           rdf:resource="http://purl.org/dc/dcmitype/StillImage" />
        <dc:title></dc:title>
      </cc:Work>
    </rdf:RDF>
  </metadata>
  <defs
     id="defs22" />
  <sodipodi:namedview
     pagecolor="#ffffff"
     bordercolor="#666666"
     borderopacity="1"
     objecttolerance="10"
     gridtolerance="10"
     guidetolerance="10"
     inkscape:pageopacity="0"
     inkscape:pageshadow="2"
     inkscape:window-width="1535"
     inkscape:window-height="876"
     id="namedview20"
     showgrid="false"
     inkscape:zoom="6.1198265"
     inkscape:cx="-8.0677966"
     inkscape:cy="16"
     inkscape:window-x="65"
     inkscape:window-y="24"
     inkscape:window-maximized="1"
     inkscape:current-layer="svg2" />
  <path
     style="opacity:0.2"
     inkscape:connector-curvature="0"
     id="path8"
     d="m 6,48 0,2 c 0,3.324 2.676,6 6,6 l 40,0 6,6 0,-2 -6,-6 -40,0 C 8.676,54 6,51.324 6,48 Z" />
  <rect
     style="fill:#7289da"
     id="rect6"
     x="6"
     y="3.0000489"
     width="52"
     height="52"
     ry="6"
     rx="6" />
  <path
     id="path4170"
     d="m 26.351562,18 c 0,0 -3.96085,-0.08611 -8.15625,2.996094 C 13.999913,24.078294 14,28.457838 14,37.648438 c 0,0 2.447919,4.149962 8.886719,4.351562 0,0 1.079085,-1.268481 1.953125,-2.363281 -3.7,-1.0948 -5.101563,-3.371094 -5.101563,-3.371094 0,0 0.291967,0.204188 0.816407,0.492187 0.029,0 0.05899,0.02669 0.117187,0.05469 0.0874,0.058 0.174399,0.08458 0.261719,0.142578 0.72836,0.4034 1.458886,0.721269 2.128906,0.980469 1.19452,0.4898 2.62065,0.921281 4.28125,1.238281 2.1852,0.4032 4.750075,0.551003 7.546875,0.0332 1.36928,-0.2594 2.766056,-0.637187 4.222656,-1.242187 1.01968,-0.3746 2.156963,-0.921419 3.351563,-1.699219 0,0 -1.456898,2.336344 -5.273438,3.402344 0.874,1.066 1.921875,2.304687 1.921875,2.304687 C 45.551881,41.771056 48,37.619637 48,37.648438 48,28.457638 43.804687,20.996094 43.804688,20.996094 39.638487,17.913294 35.648438,18 35.648438,18 l -0.410157,0.460938 c 4.9528,1.4694 7.253906,3.632812 7.253907,3.632812 -3.030001,-1.6134 -6.001732,-2.421281 -8.769532,-2.738281 -2.0976,-0.2306 -4.105612,-0.177266 -5.882812,0.05273 -0.1748,0 -0.321294,0.03059 -0.496094,0.05859 -1.0197,0.116 -3.496081,0.462406 -6.613281,1.816406 -1.07798,0.461 -1.71875,0.804688 -1.71875,0.804688 0,0 2.388612,-2.272788 7.632812,-3.742188 L 26.351562,18 Z M 25,28 c 1.67632,0 3.0292,1.3364 3,3 0,1.6636 -1.32368,3 -3,3 -1.6469,0 -3,-1.3364 -3,-3 0,-1.6636 1.32372,-3 3,-3 z m 12,0 c 1.647,0 3,1.3364 3,3 0,1.6636 -1.32358,3 -3,3 -1.64706,0 -3,-1.3364 -3,-3 0,-1.6636 1.32354,-3 3,-3 z"
     style="opacity:0.2;fill:#000000;fill-opacity:1"
     inkscape:connector-curvature="0" />
  <path
     style="opacity:0.2;fill-rule:evenodd"
     inkscape:connector-curvature="0"
     id="path18"
     d="M 44,48 58,62 58,60 46,48 44,48 Z" />
  <path
     style="fill:#7289da;fill-rule:evenodd"
     inkscape:connector-curvature="0"
     id="path10"
     d="M 58,61 44,47 58,47 Z" />
  <path
     style="fill:#ffffff"
     d="M 26.351562 17 C 26.351562 17 22.390712 16.913894 18.195312 19.996094 C 13.999913 23.078294 14 27.457838 14 36.648438 C 14 36.648438 16.447919 40.7984 22.886719 41 C 22.886719 41 23.965804 39.731519 24.839844 38.636719 C 21.139844 37.541919 19.738281 35.265625 19.738281 35.265625 C 19.738281 35.265625 20.030248 35.469813 20.554688 35.757812 C 20.583687 35.757812 20.613675 35.7845 20.671875 35.8125 C 20.759275 35.8705 20.846274 35.897078 20.933594 35.955078 C 21.661954 36.358478 22.39248 36.676347 23.0625 36.935547 C 24.25702 37.425347 25.68315 37.856828 27.34375 38.173828 C 29.52895 38.577028 32.093825 38.724831 34.890625 38.207031 C 36.259905 37.947631 37.656681 37.569844 39.113281 36.964844 C 40.132961 36.590244 41.270244 36.043425 42.464844 35.265625 C 42.464844 35.265625 41.007946 37.601969 37.191406 38.667969 C 38.065406 39.733969 39.113281 40.972656 39.113281 40.972656 C 45.551881 40.771056 48 36.619637 48 36.648438 C 48 27.457638 43.804687 19.996094 43.804688 19.996094 C 39.638487 16.913294 35.648438 17 35.648438 17 L 35.238281 17.460938 C 40.191081 18.930338 42.492187 21.09375 42.492188 21.09375 C 39.462187 19.48035 36.490456 18.672469 33.722656 18.355469 C 31.625056 18.124869 29.617044 18.178203 27.839844 18.408203 C 27.665044 18.408203 27.51855 18.438797 27.34375 18.466797 C 26.32405 18.582797 23.847669 18.929203 20.730469 20.283203 C 19.652489 20.744203 19.011719 21.087891 19.011719 21.087891 C 19.011719 21.087891 21.400331 18.815103 26.644531 17.345703 L 26.351562 17 z M 25 27 C 26.67632 27 28.0292 28.3364 28 30 C 28 31.6636 26.67632 33 25 33 C 23.3531 33 22 31.6636 22 30 C 22 28.3364 23.32372 27 25 27 z M 37 27 C 38.647 27 40 28.3364 40 30 C 40 31.6636 38.67642 33 37 33 C 35.35294 33 34 31.6636 34 30 C 34 28.3364 35.32354 27 37 27 z "
     id="path4166" />
  <path
     style="opacity:0.2;fill:#ffffff"
     d="M 12 3 C 8.676 3 6 5.676 6 9 L 6 10 C 6 6.676 8.676 4 12 4 L 52 4 C 55.324 4 58 6.676 58 10 L 58 9 C 58 5.676 55.324 3 52 3 L 12 3 z "
     id="path16" />
</svg>
