<?xml version="1.0" encoding="UTF-8" standalone="no"?>
<svg
   xmlns:dc="http://purl.org/dc/elements/1.1/"
   xmlns:cc="http://creativecommons.org/ns#"
   xmlns:rdf="http://www.w3.org/1999/02/22-rdf-syntax-ns#"
   xmlns:svg="http://www.w3.org/2000/svg"
   xmlns="http://www.w3.org/2000/svg"
   xmlns:sodipodi="http://sodipodi.sourceforge.net/DTD/sodipodi-0.dtd"
   xmlns:inkscape="http://www.inkscape.org/namespaces/inkscape"
   height="64"
   viewBox="0 0 64 64"
   width="64"
   version="1.1"
   id="svg2"
   inkscape:version="0.91 r13725"
   sodipodi:docname="git-cola.svg">
  <metadata
     id="metadata32">
    <rdf:RDF>
      <cc:Work
         rdf:about="">
        <dc:format>image/svg+xml</dc:format>
        <dc:type
           rdf:resource="http://purl.org/dc/dcmitype/StillImage" />
        <dc:title></dc:title>
      </cc:Work>
    </rdf:RDF>
  </metadata>
  <defs
     id="defs30" />
  <sodipodi:namedview
     pagecolor="#ffffff"
     bordercolor="#666666"
     borderopacity="1"
     objecttolerance="10"
     gridtolerance="10"
     guidetolerance="10"
     inkscape:pageopacity="0"
     inkscape:pageshadow="2"
     inkscape:window-width="1535"
     inkscape:window-height="876"
     id="namedview28"
     showgrid="false"
     inkscape:zoom="6.42"
     inkscape:cx="16"
     inkscape:cy="16"
     inkscape:window-x="65"
     inkscape:window-y="24"
     inkscape:window-maximized="1"
     inkscape:current-layer="svg2" />
  <path
     style="opacity:0.2"
     inkscape:connector-curvature="0"
     d="m 18,9 -2,4 0,42 2,2 0,2 28,0 0,-2 2,-2 0,-42 -2,-4 -28,0 z"
     id="path4" />
  <path
     style="fill:#c2352a"
     inkscape:connector-curvature="0"
     d="m 18,8 28,0 2,4 0,42 -2,2 -28,0 -2,-2 0,-42 z"
     id="path6" />
  <path
     style="fill:#808080"
     inkscape:connector-curvature="0"
     d="M 18,6 46,6 46,8 18,8 Z"
     id="path8" />
  <path
     style="fill:#ffffff"
     inkscape:connector-curvature="0"
     d="m 16,12 32,0 0,2 -32,0 z"
     id="path10" />
  <path
     style="fill:#ffffff"
     inkscape:connector-curvature="0"
     d="m 16,52 32,0 0,2 -32,0 z"
     id="path12" />
  <path
     style="fill:#808080"
     inkscape:connector-curvature="0"
     d="m 18,56 28,0 0,2 -28,0 z"
     id="path14" />
  <path
     style="fill:none;stroke:#ffffff;stroke-width:2"
     inkscape:connector-curvature="0"
     d="M 17.9362,13.0394 35.272,31.3"
     id="path16" />
  <path
     style="fill:none;stroke:#ffffff;stroke-width:2"
     inkscape:connector-curvature="0"
     d="m 27,22.044 0,15.9554"
     id="path18" />
  <circle
     style="fill:#ffffff"
     cy="33"
     cx="37"
     r="5"
     id="circle20" />
  <circle
     style="fill:#ffffff"
     cy="41"
     cx="27"
     r="5"
     id="circle22" />
  <circle
     style="fill:#ffffff"
     cy="23"
     cx="27"
     r="5"
     id="circle24" />
  <path
     style="opacity:0.1;fill:#ffffff"
     d="M 18 8 L 16 12 L 16 13 L 18 9 L 46 9 L 48 13 L 48 12 L 46 8 L 18 8 z "
     id="path26" />
</svg>
