<?xml version="1.0" encoding="UTF-8" standalone="no"?>
<svg
   xmlns:dc="http://purl.org/dc/elements/1.1/"
   xmlns:cc="http://creativecommons.org/ns#"
   xmlns:rdf="http://www.w3.org/1999/02/22-rdf-syntax-ns#"
   xmlns:svg="http://www.w3.org/2000/svg"
   xmlns="http://www.w3.org/2000/svg"
   xmlns:sodipodi="http://sodipodi.sourceforge.net/DTD/sodipodi-0.dtd"
   xmlns:inkscape="http://www.inkscape.org/namespaces/inkscape"
   height="64"
   width="64"
   version="1"
   id="svg2"
   inkscape:version="0.91 r13725"
   sodipodi:docname="internet-chat.svg">
  <metadata
     id="metadata24">
    <rdf:RDF>
      <cc:Work
         rdf:about="">
        <dc:format>image/svg+xml</dc:format>
        <dc:type
           rdf:resource="http://purl.org/dc/dcmitype/StillImage" />
        <dc:title></dc:title>
      </cc:Work>
    </rdf:RDF>
  </metadata>
  <defs
     id="defs22" />
  <sodipodi:namedview
     pagecolor="#ffffff"
     bordercolor="#666666"
     borderopacity="1"
     objecttolerance="10"
     gridtolerance="10"
     guidetolerance="10"
     inkscape:pageopacity="0"
     inkscape:pageshadow="2"
     inkscape:window-width="1535"
     inkscape:window-height="876"
     id="namedview20"
     showgrid="true"
     inkscape:zoom="9.73"
     inkscape:cx="16"
     inkscape:cy="32.443988"
     inkscape:window-x="65"
     inkscape:window-y="24"
     inkscape:window-maximized="1"
     inkscape:current-layer="svg2">
    <inkscape:grid
       type="xygrid"
       id="grid4152" />
  </sodipodi:namedview>
  <path
     style="opacity:0.2"
     inkscape:connector-curvature="0"
     d="m 58,7 -4,4 0,2 6,-6 -2,0 z m -38,29 0,2 c 0,1.662 1.338,3 3,3 l 28,0 c 1.662,0 3,-1.338 3,-3 l 0,-2 c 0,1.662 -1.338,3 -3,3 l -28,0 c -1.662,0 -3,-1.338 -3,-3 z"
     id="path8" />
  <path
     style="opacity:0.2"
     inkscape:connector-curvature="0"
     d="m 4,25 6,6 0,-2 -4,-4 -2,0 z m 6,29 0,2 c 0,1.662 1.338,3 3,3 l 28,0 c 1.662,0 3,-1.338 3,-3 l 0,-2 c 0,1.662 -1.338,3 -3,3 l -28,0 c -1.662,0 -3,-1.338 -3,-3 z"
     id="path16" />
  <path
     style="fill:#0286c2"
     inkscape:connector-curvature="0"
     d="m 23,6 c -1.662,0 -3,1.338 -3,3 l 0,28 c 0,1.662 1.338,3 3,3 l 28,0 c 1.662,0 3,-1.338 3,-3 L 54,12 60,6 23,6 Z"
     id="path4" />
  <path
     style="opacity:0.1;fill:#ffffff"
     d="M 23 6 C 21.338 6 20 7.338 20 9 L 20 10 C 20 8.338 21.338 7 23 7 L 59 7 L 60 6 L 23 6 z "
     id="path6" />
  <path
     style="fill:#35b9f5"
     inkscape:connector-curvature="0"
     d="m 4,24 6,6 0,25 c 0,1.662 1.338,3 3,3 l 28,0 c 1.662,0 3,-1.338 3,-3 l 0,-28 c 0,-1.662 -1.338,-3 -3,-3 L 4,24 Z"
     id="path10" />
  <path
     style="opacity:0.2"
     inkscape:connector-curvature="0"
     d="m 16,35 0,2 22,0 0,-2 z m 0,6 0,2 22,0 0,-2 z m 0,6 0,2 16.8,0 0,-2 z"
     id="path18" />
  <path
     style="fill:#aee3fb"
     inkscape:connector-curvature="0"
     d="m 16,34 0,2 22,0 0,-2 z m 0,6 0,2 22,0 0,-2 z m 0,6 0,2 16.8,0 0,-2 z"
     id="path12" />
  <path
     style="opacity:0.1;fill:#ffffff"
     d="M 4 24 L 5 25 L 41 25 C 42.662 25 44 26.338 44 28 L 44 27 C 44 25.338 42.662 24 41 24 L 4 24 z "
     id="path14" />
</svg>
