<?xml version="1.0" encoding="UTF-8" standalone="no"?>
<svg
   xmlns:dc="http://purl.org/dc/elements/1.1/"
   xmlns:cc="http://creativecommons.org/ns#"
   xmlns:rdf="http://www.w3.org/1999/02/22-rdf-syntax-ns#"
   xmlns:svg="http://www.w3.org/2000/svg"
   xmlns="http://www.w3.org/2000/svg"
   xmlns:sodipodi="http://sodipodi.sourceforge.net/DTD/sodipodi-0.dtd"
   xmlns:inkscape="http://www.inkscape.org/namespaces/inkscape"
   height="64"
   viewBox="0 0 64 64"
   width="64"
   version="1.1"
   id="svg2"
   inkscape:version="0.91 r13725"
   sodipodi:docname="owncloud.svg">
  <metadata
     id="metadata32">
    <rdf:RDF>
      <cc:Work
         rdf:about="">
        <dc:format>image/svg+xml</dc:format>
        <dc:type
           rdf:resource="http://purl.org/dc/dcmitype/StillImage" />
        <dc:title></dc:title>
      </cc:Work>
    </rdf:RDF>
  </metadata>
  <defs
     id="defs30" />
  <sodipodi:namedview
     pagecolor="#ffffff"
     bordercolor="#666666"
     borderopacity="1"
     objecttolerance="10"
     gridtolerance="10"
     guidetolerance="10"
     inkscape:pageopacity="0"
     inkscape:pageshadow="2"
     inkscape:window-width="1535"
     inkscape:window-height="876"
     id="namedview28"
     showgrid="false"
     inkscape:zoom="7.375"
     inkscape:cx="16"
     inkscape:cy="16"
     inkscape:window-x="65"
     inkscape:window-y="24"
     inkscape:window-maximized="1"
     inkscape:current-layer="svg2" />
  <path
     style="opacity:0.2"
     inkscape:connector-curvature="0"
     d="m 4,56 0,2 c 0,1.662 1.338,3 3,3 l 50,0 c 1.662,0 3,-1.338 3,-3 l 0,-2 c 0,1.662 -1.338,3 -3,3 L 7,59 C 5.338,59 4,57.662 4,56 Z"
     id="path8" />
  <rect
     style="fill:#394e6f"
     ry="3"
     rx="3"
     transform="matrix(0,-1,-1,0,0,0)"
     height="56"
     width="56"
     y="-60"
     x="-60"
     id="rect4" />
  <path
     style="opacity:0.1;fill:#ffffff"
     d="M 7 4 C 5.338 4 4 5.338 4 7 L 4 8 C 4 6.338 5.338 5 7 5 L 57 5 C 58.662 5 60 6.338 60 8 L 60 7 C 60 5.338 58.662 4 57 4 L 7 4 z "
     id="path6" />
  <circle
     style="fill:#ffffff;stroke:#394e6f;stroke-width:1;stroke-linecap:round;stroke-linejoin:round"
     r="6.5"
     cx="37"
     cy="29"
     id="circle10" />
  <circle
     style="fill:#ffffff;stroke:#394e6f;stroke-width:1;stroke-linecap:round;stroke-linejoin:round"
     r="3.5"
     cx="52"
     cy="42"
     id="circle12" />
  <circle
     style="fill:#ffffff;stroke:#394e6f;stroke-width:1;stroke-linecap:round;stroke-linejoin:round"
     r="7.5"
     cx="44"
     cy="38"
     id="circle14" />
  <circle
     style="fill:#ffffff;stroke:#394e6f;stroke-width:1;stroke-linecap:round;stroke-linejoin:round"
     r="6.5"
     cx="15"
     cy="39"
     id="circle16" />
  <circle
     style="fill:#ffffff;stroke:#394e6f;stroke-width:1;stroke-linecap:round;stroke-linejoin:round"
     r="3.5"
     cx="21"
     cy="26"
     id="circle18" />
  <circle
     style="fill:#ffffff;stroke:#394e6f;stroke-width:1;stroke-linecap:round;stroke-linejoin:round"
     r="7.5"
     cx="22"
     cy="34"
     id="circle20" />
  <circle
     style="fill:#ffffff;stroke:#394e6f;stroke-width:1;stroke-linecap:round;stroke-linejoin:round"
     r="3.5"
     cx="22"
     cy="42"
     id="circle22" />
  <circle
     style="fill:#ffffff;stroke:#394e6f;stroke-width:1;stroke-linecap:round;stroke-linejoin:round"
     r="6.5"
     cx="29"
     cy="25"
     id="circle24" />
  <circle
     style="fill:#ffffff;stroke:#394e6f;stroke-width:1;stroke-linecap:round;stroke-linejoin:round"
     r="9.5"
     cx="32"
     cy="36"
     id="circle26" />
</svg>
