<?xml version="1.0" encoding="UTF-8" standalone="no"?>
<svg
   xmlns:dc="http://purl.org/dc/elements/1.1/"
   xmlns:cc="http://creativecommons.org/ns#"
   xmlns:rdf="http://www.w3.org/1999/02/22-rdf-syntax-ns#"
   xmlns:svg="http://www.w3.org/2000/svg"
   xmlns="http://www.w3.org/2000/svg"
   xmlns:sodipodi="http://sodipodi.sourceforge.net/DTD/sodipodi-0.dtd"
   xmlns:inkscape="http://www.inkscape.org/namespaces/inkscape"
   height="64"
   width="64"
   version="1"
   id="svg2"
   inkscape:version="0.91 r13725"
   sodipodi:docname="preferences-system-windows.svg">
  <metadata
     id="metadata24">
    <rdf:RDF>
      <cc:Work
         rdf:about="">
        <dc:format>image/svg+xml</dc:format>
        <dc:type
           rdf:resource="http://purl.org/dc/dcmitype/StillImage" />
        <dc:title></dc:title>
      </cc:Work>
    </rdf:RDF>
  </metadata>
  <defs
     id="defs22" />
  <sodipodi:namedview
     pagecolor="#ffffff"
     bordercolor="#666666"
     borderopacity="1"
     objecttolerance="10"
     gridtolerance="10"
     guidetolerance="10"
     inkscape:pageopacity="0"
     inkscape:pageshadow="2"
     inkscape:window-width="640"
     inkscape:window-height="480"
     id="namedview20"
     showgrid="false"
     inkscape:zoom="6.3197669"
     inkscape:cx="25.481109"
     inkscape:cy="19.307666"
     inkscape:current-layer="svg2" />
  <path
     style="fill:#c2c2c2"
     inkscape:connector-curvature="0"
     d="M 19,4 C 18.7042,4 18.4258,4.0576 18.1562,4.1368 18.4294,4.0714 18.6998,4 19,4 Z m -3,6 0,29 c 0,1.662 1.338,3 3,3 l 38,0 c 1.662,0 3,-1.338 3,-3 l 0,-29 -44,0 z"
     id="path4" />
  <path
     style="opacity:0.2"
     d="m 16,39 0,1 c 0,1.662 1.338,3 3,3 l 38,0 c 1.662,0 3,-1.338 3,-3 l 0,-1 c 0,1.662 -1.338,3 -3,3 l -38,0 c -1.662,0 -3,-1.338 -3,-3 z"
     id="path6"
     inkscape:connector-curvature="0" />
  <path
     style="fill:#d3d3d3"
     inkscape:connector-curvature="0"
     d="m 4,28 0,29 c 0,1.662 1.338,3 3,3 l 38,0 c 1.662,0 3,-1.338 3,-3 L 48,28 4,28 Z"
     id="path8" />
  <path
     style="fill:#636e73"
     inkscape:connector-curvature="0"
     d="m 7,22 c -1.662,0 -3,1.338 -3,3 l 0,3 44,0 0,-3 c 0,-1.662 -1.338,-3 -3,-3 z"
     id="path10" />
  <path
     style="opacity:0.1;fill:#ffffff"
     d="M 7 22 C 5.338 22 4 23.338 4 25 L 4 26 C 4 24.338 5.338 23 7 23 L 45 23 C 46.662 23 48 24.338 48 26 L 48 25 C 48 23.338 46.662 22 45 22 L 7 22 z "
     id="path12" />
  <path
     style="fill:#5a6367"
     inkscape:connector-curvature="0"
     d="m 19,4 c -1.662,0 -3,1 -3,3 l 0,3 44,0 0,-3 C 60,5.338 58.662,4 57,4 Z"
     id="path14" />
  <path
     style="opacity:0.1;fill:#ffffff"
     d="M 19 4 C 17.338 4 16 5.338 16 7 L 16 8 C 16 6.338 17.338 5 19 5 L 57 5 C 58.662 5 60 6.338 60 8 L 60 7 C 60 5.338 58.662 4 57 4 L 19 4 z "
     id="path16" />
  <path
     style="opacity:0.2"
     d="m 4,57 0,1 c 0,1.662 1.338,3 3,3 l 38,0 c 1.662,0 3,-1.338 3,-3 l 0,-1 c 0,1.662 -1.338,3 -3,3 L 7,60 C 5.338,60 4,58.662 4,57 Z"
     id="path18"
     inkscape:connector-curvature="0" />
</svg>
