<?xml version="1.0" encoding="UTF-8" standalone="no"?>
<svg
   xmlns:dc="http://purl.org/dc/elements/1.1/"
   xmlns:cc="http://creativecommons.org/ns#"
   xmlns:rdf="http://www.w3.org/1999/02/22-rdf-syntax-ns#"
   xmlns:svg="http://www.w3.org/2000/svg"
   xmlns="http://www.w3.org/2000/svg"
   xmlns:sodipodi="http://sodipodi.sourceforge.net/DTD/sodipodi-0.dtd"
   xmlns:inkscape="http://www.inkscape.org/namespaces/inkscape"
   height="64"
   width="64"
   version="1.1"
   id="svg2"
   inkscape:version="0.91 r13725"
   sodipodi:docname="preferences-management-service.svg">
  <metadata
     id="metadata18">
    <rdf:RDF>
      <cc:Work
         rdf:about="">
        <dc:format>image/svg+xml</dc:format>
        <dc:type
           rdf:resource="http://purl.org/dc/dcmitype/StillImage" />
        <dc:title></dc:title>
      </cc:Work>
    </rdf:RDF>
  </metadata>
  <defs
     id="defs16" />
  <sodipodi:namedview
     pagecolor="#ffffff"
     bordercolor="#666666"
     borderopacity="1"
     objecttolerance="10"
     gridtolerance="10"
     guidetolerance="10"
     inkscape:pageopacity="0"
     inkscape:pageshadow="2"
     inkscape:window-width="640"
     inkscape:window-height="480"
     id="namedview14"
     showgrid="false"
     inkscape:zoom="6.3197669"
     inkscape:cx="22.548631"
     inkscape:cy="30.344266"
     inkscape:current-layer="svg2" />
  <path
     d="M 60,32 A 28,28 0 0 1 32,60 28,28 0 0 1 4,32 28,28 0 0 1 32,4 28,28 0 0 1 60,32 Z"
     id="path4"
     inkscape:connector-curvature="0"
     style="fill:#f56e2c" />
  <path
     style="opacity:0.2"
     d="M 59.982422,32.507812 A 28,28 0 0 1 32,60 28,28 0 0 1 4.0253906,32.519531 28,28 0 0 0 4,33 28,28 0 0 0 32,61 28,28 0 0 0 60,33 28,28 0 0 0 59.982422,32.507812 Z"
     id="path6"
     inkscape:connector-curvature="0" />
  <path
     style="opacity:0.2;fill:#ffffff"
     d="M 31.999023,4 A 28.000977,28 0 0 0 4,32 28.000977,28 0 0 0 4.0175787,32.492188 28.000977,28 0 0 1 31.999023,5 l 0.002,0 A 28.000977,28 0 0 1 59.974608,32.5 28.000977,28 0 0 0 60,32 28.000977,28 0 0 0 32.000977,4 l -0.002,0 z"
     id="path8"
     inkscape:connector-curvature="0" />
  <path
     d="m 22,17 0,32 20,0 0,-8 -12.00036,0 0,-24 z"
     id="path10"
     inkscape:connector-curvature="0"
     style="opacity:0.2" />
  <path
     d="m 22,16 0,32 20,0 0,-8 -12.00036,0 0,-24 z"
     id="path12"
     inkscape:connector-curvature="0"
     style="fill:#ffa6a6" />
</svg>
