<?xml version="1.0" encoding="UTF-8" standalone="no"?>
<svg
   xmlns:dc="http://purl.org/dc/elements/1.1/"
   xmlns:cc="http://creativecommons.org/ns#"
   xmlns:rdf="http://www.w3.org/1999/02/22-rdf-syntax-ns#"
   xmlns:svg="http://www.w3.org/2000/svg"
   xmlns="http://www.w3.org/2000/svg"
   xmlns:sodipodi="http://sodipodi.sourceforge.net/DTD/sodipodi-0.dtd"
   xmlns:inkscape="http://www.inkscape.org/namespaces/inkscape"
   height="64"
   width="64"
   version="1"
   id="svg2"
   inkscape:version="0.91 r13725"
   sodipodi:docname="pycharm.svg">
  <metadata
     id="metadata28">
    <rdf:RDF>
      <cc:Work
         rdf:about="">
        <dc:format>image/svg+xml</dc:format>
        <dc:type
           rdf:resource="http://purl.org/dc/dcmitype/StillImage" />
        <dc:title></dc:title>
      </cc:Work>
    </rdf:RDF>
  </metadata>
  <defs
     id="defs26" />
  <sodipodi:namedview
     pagecolor="#ffffff"
     bordercolor="#666666"
     borderopacity="1"
     objecttolerance="10"
     gridtolerance="10"
     guidetolerance="10"
     inkscape:pageopacity="0"
     inkscape:pageshadow="2"
     inkscape:window-width="640"
     inkscape:window-height="480"
     id="namedview24"
     showgrid="false"
     inkscape:zoom="4.46875"
     inkscape:cx="16.733008"
     inkscape:cy="32.20836"
     inkscape:current-layer="svg2">
    <inkscape:grid
       type="xygrid"
       id="grid3444" />
  </sodipodi:namedview>
  <path
     style="opacity:0.2"
     d="m 23.261719,15.074219 c -0.355094,0.03777 -0.699705,0.109055 -1.03711,0.197265 -0.326537,0.421246 -0.644214,0.854046 -0.947265,1.302735 C 19.076188,17.5164 17.455956,19.546049 17.101562,22 17.073612,21.806224 17.047479,21.611653 17.027344,21.416016 17.011258,21.6091 17,21.802583 17,22 c 0,0.341993 0.05396,0.670007 0.101562,1 0.354394,-2.453951 1.974626,-4.4836 4.175782,-5.425781 0.49399,-0.731386 1.010136,-1.437244 1.578125,-2.082031 0.129997,-0.148197 0.272253,-0.274772 0.40625,-0.417969 z m 7.71289,7.136719 c -0.016,0.02 -0.03473,0.03469 -0.05273,0.05469 -0.052,0.06 -0.100347,0.13136 -0.152344,0.193359 0.04,0.179996 0.102906,0.35502 0.128907,0.541016 0.038,-0.259995 0.06017,-0.523067 0.07617,-0.789062 z"
     id="path4"
     inkscape:connector-curvature="0" />
  <path
     d="m 23.999663,6.0005955 c -9.388614,0 -16.9996627,7.5646495 -16.9996627,16.8976645 l 0,35.101303 9.9998017,0 0,-20.1136 c 2.348353,1.217975 4.167917,1.913962 6.999861,1.913962 9.387813,0 16.999662,-7.56785 16.999662,-16.901665 0,-9.333015 -7.611849,-16.8976645 -16.999662,-16.8976645 z m 0,9.9998015 c 3.865923,0 6.999861,3.133938 6.999861,6.999861 0,3.865923 -3.133938,6.999861 -6.999861,6.999861 -3.865923,0 -6.999861,-3.133938 -6.999861,-6.999861 0,-3.865923 3.133938,-6.999861 6.999861,-6.999861 z"
     id="path6"
     inkscape:connector-curvature="0"
     style="fill:#f38f09" />
  <path
     d="m 44.861249,6.0011955 c -2.727346,0.0148 -5.936882,0.2821944 -9.229017,1.1005581 -4.389713,1.0911384 -9.141619,3.2619354 -12.776346,7.3918534 -3.634728,4.130118 -5.855884,10.061 -5.855884,17.504852 0,7.443853 2.221156,13.374735 5.855884,17.504853 3.634727,4.130118 8.386633,6.303275 12.776346,7.394453 8.779426,2.182357 16.980463,0.448831 16.980463,0.448831 6.955262,-1.358613 4.867103,-11.546571 -2.087759,-10.186398 0,0 -6.424072,1.123438 -12.269956,-0.329653 -2.922942,-0.726546 -5.483491,-1.99592 -7.333455,-4.097919 -1.849823,-2.101958 -3.284934,-5.194497 -3.284934,-10.734187 0,-5.53969 1.435131,-8.632228 3.284934,-10.734186 1.849824,-2.101959 4.410513,-3.371334 7.333455,-4.097919 5.845884,-1.453091 12.269956,-0.329654 12.269956,-0.329654 1.911362,0.410212 3.461132,-0.05748 4.56511,-0.98136 0.363992,-0.302594 -2.451952,-1.615168 -2.189957,-2.00096 0.303994,-0.445392 3.669927,0.0248 3.831924,-0.489391 0.855983,-2.701546 -0.291994,-6.0368799 -4.117918,-6.7122664 0,0 -2.051159,-0.4328915 -5.198897,-0.5933883 -0.786904,-0.040119 -1.643527,-0.063259 -2.552749,-0.058319 z m 6.707667,2.6601472 a 1.3295736,1.2983342 0 0 1 1.329573,1.2983542 1.3295736,1.2983342 0 0 1 -1.329573,1.2983341 1.3295736,1.2983342 0 0 1 -1.329574,-1.2983341 1.3295736,1.2983342 0 0 1 1.329574,-1.2983542 z"
     id="path8"
     inkscape:connector-curvature="0"
     style="fill:#467242;fill-rule:evenodd" />
  <path
     id="path10"
     style="opacity:0.2;fill:#ffffff;fill-rule:evenodd"
     d="m 27.675781,32.798828 c -0.0114,0.329905 -0.03516,0.645022 -0.03516,0.994141 0,0.179752 0.01454,0.335154 0.01758,0.509765 0.0074,-0.165244 0.01181,-0.335054 0.01758,-0.501953 l 0.002,0 c 0.168076,4.8655 1.517229,7.70681 3.25,9.660157 1.850825,2.086347 4.414546,3.347765 7.339844,4.068359 5.848604,1.4423 12.275391,0.326172 12.275391,0.326172 3.765897,-0.730647 6.087876,1.89448 6.335937,4.671875 0.29315,-3.100305 -2.11748,-6.492279 -6.335937,-5.673828 0,0 -6.426787,1.118081 -12.275391,-0.324219 -2.925298,-0.720594 -5.489019,-1.982012 -7.339844,-4.068359 -1.732771,-1.953347 -3.081924,-4.79661 -3.25,-9.66211 l -0.002,0 z M 44.876953,6 C 42.14774,6.0146 38.93609,6.2814438 35.640625,7.09375 31.25067,8.1768241 26.494992,10.330243 22.859375,14.429688 19.222556,18.529135 17,24.418071 17,31.806641 c 0,0.109665 0.0072,0.213719 0.01172,0.320312 0.13302,-7.068465 2.323835,-12.72519 5.847656,-16.697265 C 26.494992,11.330242 31.25067,9.1768241 35.640625,8.09375 38.93609,7.2814438 42.14774,7.0165531 44.876953,7.0019531 l 0,-0.00195 c 0.908404,-0.00496 1.766385,0.018694 2.552735,0.058594 3.149001,0.1593241 5.201171,0.5898437 5.201171,0.5898437 2.807597,0.4917227 4.140227,2.4022482 4.326172,4.4433592 0.217657,-2.3843406 -1.060781,-4.8714584 -4.326172,-5.4433592 0,0 -2.05217,-0.4305197 -5.201171,-0.5898437 C 46.643338,6.0186937 45.785357,5.99504 44.876953,6 Z" />
  <path
     style="color:#000000;opacity:0.2;fill-rule:evenodd"
     d="M 56.96875 12.199219 C 56.9349 12.59296 56.868147 12.984382 56.748047 13.363281 C 56.697765 13.521887 56.297357 13.574619 55.816406 13.601562 L 55.816406 13.619141 L 55.369141 13.619141 C 55.25097 13.621214 55.159182 13.632201 55.037109 13.632812 C 55.02906 13.62725 55.027498 13.624661 55.019531 13.619141 L 53.722656 13.619141 C 53.987301 13.870826 54.401673 14.193665 55.037109 14.632812 C 55.875814 14.628612 56.67168 14.604172 56.748047 14.363281 C 56.969783 13.663735 57.034226 12.925342 56.96875 12.199219 z M 54.568359 16.238281 C 53.518935 16.896283 52.161232 17.18395 50.539062 16.835938 C 50.539062 16.835938 44.113752 15.714878 38.265625 17.167969 C 35.341557 17.894555 32.77827 19.163667 30.927734 21.265625 C 29.194703 23.234186 27.842658 26.097697 27.675781 31 C 27.669981 30.830255 27.665663 30.657856 27.658203 30.490234 C 27.655203 30.664632 27.640625 30.820513 27.640625 31 C 27.640625 31.352433 27.664421 31.667006 27.675781 32 C 27.842658 27.097697 29.194703 24.234186 30.927734 22.265625 C 32.77827 20.163667 35.341557 18.894555 38.265625 18.167969 C 44.113752 16.714878 50.539062 17.835938 50.539062 17.835938 C 52.451161 18.24615 53.999114 17.779348 55.103516 16.855469 C 55.231357 16.748522 54.949406 16.509821 54.568359 16.238281 z M 17.011719 32.683594 C 17.007349 32.78893 17 32.891869 17 33 C 17 40.443852 19.221494 46.373788 22.857422 50.503906 C 26.493547 54.634024 31.247271 56.807259 35.638672 57.898438 C 44.421475 60.080795 52.625 58.347656 52.625 58.347656 C 55.8185 57.724097 57.080164 55.242287 56.865234 52.869141 C 56.680678 54.901066 55.368653 56.811934 52.625 57.347656 C 52.625 57.347656 44.421475 59.080794 35.638672 56.898438 C 31.247271 55.807259 26.493547 53.634024 22.857422 49.503906 C 19.334148 45.501755 17.14437 39.80562 17.011719 32.683594 z "
     id="path12" />
  <path
     style="opacity:0.2"
     d="M 40.974609,23.5 C 40.70743,32.392349 33.219638,39.528248 24,39.528246 c -2.831944,0 -4.651647,-0.679462 -7,-1.869487 l 0,0.971754 C 19.348353,39.820538 21.168056,40.5 24,40.5 c 9.388613,2e-6 17,-7.394895 17,-16.514123 0,-0.1641 -0.01524,-0.324486 -0.02539,-0.485877 z"
     id="path20"
     inkscape:connector-curvature="0" />
  <path
     d="m 7.6053883,25.270213 9.3944137,12.61575 c 2.348353,1.217975 4.167917,1.913962 6.999861,1.913962 8.57583,0 15.653689,-6.321875 16.815666,-14.529712 l -10.225797,0 c -0.945981,2.745945 -3.52193,4.729906 -6.589869,4.729906 -3.066939,0 -5.643488,-1.983961 -6.589669,-4.729906 l -9.8046057,0 z"
     id="path14"
     inkscape:connector-curvature="0"
     style="opacity:0.99500002;fill:#f38f09" />
  <path
     style="opacity:0.2;fill:#ffffff"
     d="M 24,6 C 14.611386,6 7,13.606845 7,22.990234 l 0,0.998047 C 7,14.604892 14.611386,7 24,7 26.573577,7 29.006231,7.5795164 31.191406,8.6035156 31.55242,8.4449101 31.914446,8.2937046 32.277344,8.15625 29.825392,6.7869252 27.00794,6 24,6 Z"
     id="path3438" />
  <path
     style="opacity:0.2;fill:#ffffff"
     d="M 30.970703,23.560547 C 30.684778,27.164 27.676967,30 24,30 20.327623,30 17.319713,27.171254 17.027344,23.574219 17.012625,23.714898 17,23.85553 17,24 c 0,3.865924 3.134077,7 7,7 3.865923,0 7,-3.134076 7,-7 0,-0.149132 -0.01374,-0.294318 -0.0293,-0.439453 z"
     id="path18"
     inkscape:connector-curvature="0" />
  <path
     style="opacity:0.2"
     d="m 7,58 0,1 10,0 0,-1 -10,0 z"
     id="path22"
     inkscape:connector-curvature="0" />
</svg>
