<?xml version="1.0" encoding="UTF-8" standalone="no"?>
<svg
   xmlns:dc="http://purl.org/dc/elements/1.1/"
   xmlns:cc="http://creativecommons.org/ns#"
   xmlns:rdf="http://www.w3.org/1999/02/22-rdf-syntax-ns#"
   xmlns:svg="http://www.w3.org/2000/svg"
   xmlns="http://www.w3.org/2000/svg"
   xmlns:sodipodi="http://sodipodi.sourceforge.net/DTD/sodipodi-0.dtd"
   xmlns:inkscape="http://www.inkscape.org/namespaces/inkscape"
   height="64"
   width="64"
   version="1"
   id="svg2"
   inkscape:version="0.91 r13725"
   sodipodi:docname="rhythmbox.svg">
  <metadata
     id="metadata26">
    <rdf:RDF>
      <cc:Work
         rdf:about="">
        <dc:format>image/svg+xml</dc:format>
        <dc:type
           rdf:resource="http://purl.org/dc/dcmitype/StillImage" />
        <dc:title></dc:title>
      </cc:Work>
    </rdf:RDF>
  </metadata>
  <defs
     id="defs24" />
  <sodipodi:namedview
     pagecolor="#ffffff"
     bordercolor="#666666"
     borderopacity="1"
     objecttolerance="10"
     gridtolerance="10"
     guidetolerance="10"
     inkscape:pageopacity="0"
     inkscape:pageshadow="2"
     inkscape:window-width="640"
     inkscape:window-height="480"
     id="namedview22"
     showgrid="false"
     inkscape:zoom="8.9375"
     inkscape:cx="31.127443"
     inkscape:cy="27.948435"
     inkscape:current-layer="svg2" />
  <rect
     ry="2.5999999"
     rx="2.5"
     transform="scale(-1,1)"
     height="52"
     width="40"
     y="6"
     x="-52"
     id="rect4"
     style="fill:#cccccc" />
  <circle
     transform="matrix(0,-1,1,0,0,0)"
     cy="32"
     cx="-36"
     r="18"
     id="circle6"
     style="fill:#3f3f3f" />
  <circle
     transform="matrix(0,-1,-1,0,0,0)"
     cy="-32"
     cx="-37"
     r="14"
     id="circle8"
     style="opacity:0.2" />
  <circle
     transform="matrix(0,-1,-1,0,0,0)"
     cy="-32"
     cx="-36"
     r="14"
     id="circle10"
     style="fill:#fec006" />
  <circle
     transform="matrix(0,-1,-1,0,0,0)"
     cy="-32"
     cx="-36"
     r="6"
     id="circle12"
     style="fill:#3f3f3f" />
  <circle
     transform="matrix(0,1,-1,0,0,0)"
     cy="-20"
     cx="14"
     r="2"
     id="circle14"
     style="fill:#3f3f3f" />
  <circle
     transform="matrix(0,1,-1,0,0,0)"
     cy="-44"
     cx="14"
     r="2"
     id="circle16"
     style="fill:#3f3f3f" />
  <path
     style="opacity:0.2"
     d="m 12,55.4 0,0.999566 C 12,57.838316 13.114138,59 14.499145,59 l 35.00171,0 C 50.884861,59 52,57.838316 52,56.399566 L 52,55.4 c 0,1.43875 -1.115139,2.600434 -2.499145,2.600434 l -35.00171,0 C 13.114138,58.000434 12,56.83875 12,55.4 Z"
     id="path18"
     inkscape:connector-curvature="0" />
  <path
     style="opacity:0.1;fill:#ffffff"
     d="M 14.5,6 C 13.115,6 12,7.1611593 12,8.6004338 L 12,9.6 c 0,-1.4392745 1.115,-2.6004338 2.5,-2.6004338 l 35,0 c 1.384,0 2.5,1.1611593 2.5,2.6004338 L 52,8.6004338 C 52,7.1611593 50.884,6 49.5,6 l -35,0 z"
     id="path20"
     inkscape:connector-curvature="0" />
</svg>
