<?xml version="1.0" encoding="UTF-8" standalone="no"?>
<svg
   xmlns:dc="http://purl.org/dc/elements/1.1/"
   xmlns:cc="http://creativecommons.org/ns#"
   xmlns:rdf="http://www.w3.org/1999/02/22-rdf-syntax-ns#"
   xmlns:svg="http://www.w3.org/2000/svg"
   xmlns="http://www.w3.org/2000/svg"
   xmlns:sodipodi="http://sodipodi.sourceforge.net/DTD/sodipodi-0.dtd"
   xmlns:inkscape="http://www.inkscape.org/namespaces/inkscape"
   version="1.1"
   width="64"
   viewBox="0 0 64 64"
   height="64"
   id="svg2"
   inkscape:version="0.91 r13725"
   sodipodi:docname="ubiquity-kde.svg">
  <metadata
     id="metadata22">
    <rdf:RDF>
      <cc:Work
         rdf:about="">
        <dc:format>image/svg+xml</dc:format>
        <dc:type
           rdf:resource="http://purl.org/dc/dcmitype/StillImage" />
        <dc:title></dc:title>
      </cc:Work>
    </rdf:RDF>
  </metadata>
  <defs
     id="defs20" />
  <sodipodi:namedview
     pagecolor="#ffffff"
     bordercolor="#666666"
     borderopacity="1"
     objecttolerance="10"
     gridtolerance="10"
     guidetolerance="10"
     inkscape:pageopacity="0"
     inkscape:pageshadow="2"
     inkscape:window-width="640"
     inkscape:window-height="480"
     id="namedview18"
     showgrid="false"
     inkscape:zoom="8.9375"
     inkscape:cx="24.250432"
     inkscape:cy="25.477095"
     inkscape:current-layer="svg2" />
  <path
     inkscape:connector-curvature="0"
     style="opacity:0.2;fill:#000000;fill-opacity:1"
     d="M 32,5 C 16.488,5 4,17.488 4,33 4,48.512 16.488,61 32,61 47.512,61 60,48.512 60,33 60,17.488 47.512,5 32,5 Z m 0,16 A 12,12 0 0 1 44,33 12,12 0 0 1 32,45 12,12 0 0 1 20,33 12,12 0 0 1 32,21 Z"
     id="path4" />
  <path
     inkscape:connector-curvature="0"
     style="opacity:1;fill:#858585;fill-opacity:1"
     d="M 32,17 A 15,15 0 0 0 17,32 15,15 0 0 0 32,47 15,15 0 0 0 47,32 15,15 0 0 0 32,17 Z m 0,9 c 3.3138,0 6,2.6862 6,6 0,3.3138 -2.6862,6 -6,6 -3.3138,0 -6,-2.6862 -6,-6 0,-3.3138 2.6862,-6 6,-6 z"
     id="path6" />
  <path
     inkscape:connector-curvature="0"
     d="M 32,4 C 16.488,4 4,16.488 4,32 4,47.512 16.488,60 32,60 47.512,60 60,47.512 60,32 60,16.488 47.512,4 32,4 Z m 0,16 A 12,12 0 0 1 44,32 12,12 0 0 1 32,44 12,12 0 0 1 20,32 12,12 0 0 1 32,20 Z"
     style="fill:#cccccc"
     id="path8" />
  <path
     id="path10"
     style="opacity:0.2;fill:#ffffff;fill-opacity:1"
     d="M 20.025391,32.5 A 12,12 0 0 0 20,33 12,12 0 0 0 32,45 12,12 0 0 0 44,33 12,12 0 0 0 43.978516,32.595703 12,12 0 0 1 32,44 12,12 0 0 1 20.025391,32.5 Z M 32,4 C 16.488,4 4,16.488 4,32 c 0,0.11345 0.01128,0.224113 0.017578,0.335938 C 4.3691213,17.134181 16.710728,5 32,5 47.289272,5 59.630879,17.134181 59.982422,32.335938 59.98872,32.224113 60,32.11345 60,32 60,16.488 47.512,4 32,4 Z" />
  <circle
     r="16"
     cy="46"
     cx="48"
     style="fill:#42a1cd;enable-background:new"
     id="circle12" />
  <path
     style="fill:#ffffff"
     inkscape:connector-curvature="0"
     d="m 47.966,54 -5.9656,-8 4,0 0,-8 4,0 0,8 4,0 z"
     id="path14" />
  <path
     style="opacity:0.2;enable-background:new"
     d="M 32.025391,46.5 A 16,16.001894 0 0 0 32,46.998106 16,16.001894 0 0 0 48,63 16,16.001894 0 0 0 64,46.998106 16,16.001894 0 0 0 63.982422,46.50586 16,16.001894 0 0 1 48,61.999882 16,16.001894 0 0 1 32.025391,46.5 Z"
     id="path16"
     inkscape:connector-curvature="0" />
</svg>
