<?xml version="1.0" encoding="UTF-8" standalone="no"?>
<svg xmlns="http://www.w3.org/2000/svg" height="32" width="32" version="1">
 <path d="m16 2c-7.756 0-14 6.244-14 14s6.244 14 14 14 14-6.244 14-14-6.244-14-14-14z" fill="#d2d2d2"/>
 <path stroke="#313131" fill="none" d="m8.4998 9.9998v8.8237s0 3.6765 4.5001 3.6765 4.5001-3.6765 4.5001-3.6765v-6.6178s0-1.7057-1.5-1.7057-1.5 1.7057-1.5 1.7057v6.6178s0 3.6765 4.5001 3.6765 4.5001-3.6765 4.5001-3.6765v-8.8237"/>
 <path opacity=".2" fill="#fff" d="m16 2c-7.756 0-14 6.244-14 14 0 0.169 0.0195 0.333 0.0254 0.5 0.2637-7.5206 6.3874-13.5 13.975-13.5 7.587 0 13.711 5.9794 13.975 13.5 0.005-0.167 0.025-0.331 0.025-0.5 0-7.756-6.244-14-14-14z"/>
 <path opacity=".2" d="m2.0254 16.5c-0.0059 0.167-0.0254 0.331-0.0254 0.5 0 7.756 6.244 14 14 14s14-6.244 14-14c0-0.16884-0.01952-0.33264-0.02539-0.5-0.264 7.521-6.388 13.5-13.975 13.5-7.5872 0-13.711-5.979-13.975-13.5z"/>
</svg>
