<?xml version="1.0" encoding="UTF-8" standalone="no"?>
<svg
   xmlns:dc="http://purl.org/dc/elements/1.1/"
   xmlns:cc="http://creativecommons.org/ns#"
   xmlns:rdf="http://www.w3.org/1999/02/22-rdf-syntax-ns#"
   xmlns:svg="http://www.w3.org/2000/svg"
   xmlns="http://www.w3.org/2000/svg"
   xmlns:sodipodi="http://sodipodi.sourceforge.net/DTD/sodipodi-0.dtd"
   xmlns:inkscape="http://www.inkscape.org/namespaces/inkscape"
   height="64"
   width="64"
   version="1"
   id="svg2"
   inkscape:version="0.91 r13725"
   sodipodi:docname="wireshark.svg">
  <metadata
     id="metadata16">
    <rdf:RDF>
      <cc:Work
         rdf:about="">
        <dc:format>image/svg+xml</dc:format>
        <dc:type
           rdf:resource="http://purl.org/dc/dcmitype/StillImage" />
        <dc:title></dc:title>
      </cc:Work>
    </rdf:RDF>
  </metadata>
  <defs
     id="defs14" />
  <sodipodi:namedview
     pagecolor="#ffffff"
     bordercolor="#666666"
     borderopacity="1"
     objecttolerance="10"
     gridtolerance="10"
     guidetolerance="10"
     inkscape:pageopacity="0"
     inkscape:pageshadow="2"
     inkscape:window-width="640"
     inkscape:window-height="480"
     id="namedview12"
     showgrid="false"
     inkscape:zoom="8.9375"
     inkscape:cx="27.313066"
     inkscape:cy="31.528467"
     inkscape:current-layer="svg2" />
  <rect
     style="fill:#4e91d9"
     ry="3"
     rx="3"
     transform="matrix(0,-1,-1,0,0,0)"
     height="56"
     width="56"
     y="-60"
     x="-60"
     id="rect4" />
  <path
     style="opacity:0.1;fill:#ffffff"
     d="M 7 4 C 5.338 4 4 5.338 4 7 L 4 8 C 4 6.338 5.338 5 7 5 L 57 5 C 58.662 5 60 6.338 60 8 L 60 7 C 60 5.338 58.662 4 57 4 L 7 4 z "
     id="path6" />
  <path
     style="fill:none;stroke:#343434;stroke-width:2;stroke-linejoin:round"
     inkscape:connector-curvature="0"
     d="m 10,41 14,0 C 24.05102,22.5022 38,19 38,19 34.3728,34.0584 36.54976,41 44,41 l 12,0"
     id="path8" />
  <path
     style="opacity:0.2"
     d="m 4,57 0,1 c 0,1.662 1.338,3 3,3 l 50,0 c 1.662,0 3,-1.338 3,-3 l 0,-1 c 0,1.662 -1.338,3 -3,3 L 7,60 C 5.338,60 4,58.662 4,57 Z"
     id="path10"
     inkscape:connector-curvature="0" />
</svg>
