<?xml version="1.0" encoding="UTF-8" standalone="no"?>
<svg
   xmlns:dc="http://purl.org/dc/elements/1.1/"
   xmlns:cc="http://creativecommons.org/ns#"
   xmlns:rdf="http://www.w3.org/1999/02/22-rdf-syntax-ns#"
   xmlns:svg="http://www.w3.org/2000/svg"
   xmlns="http://www.w3.org/2000/svg"
   xmlns:sodipodi="http://sodipodi.sourceforge.net/DTD/sodipodi-0.dtd"
   xmlns:inkscape="http://www.inkscape.org/namespaces/inkscape"
   height="64"
   width="64"
   version="1"
   id="svg2"
   inkscape:version="0.91 r13725"
   sodipodi:docname="yandex-browser-beta.svg">
  <metadata
     id="metadata20">
    <rdf:RDF>
      <cc:Work
         rdf:about="">
        <dc:format>image/svg+xml</dc:format>
        <dc:type
           rdf:resource="http://purl.org/dc/dcmitype/StillImage" />
        <dc:title></dc:title>
      </cc:Work>
    </rdf:RDF>
  </metadata>
  <defs
     id="defs18" />
  <sodipodi:namedview
     pagecolor="#ffffff"
     bordercolor="#666666"
     borderopacity="1"
     objecttolerance="10"
     gridtolerance="10"
     guidetolerance="10"
     inkscape:pageopacity="0"
     inkscape:pageshadow="2"
     inkscape:window-width="640"
     inkscape:window-height="480"
     id="namedview16"
     showgrid="false"
     inkscape:zoom="8.9375"
     inkscape:cx="24.051855"
     inkscape:cy="32.233863"
     inkscape:current-layer="svg2">
    <inkscape:grid
       type="xygrid"
       id="grid22" />
  </sodipodi:namedview>
  <path
     style="fill:#cccccc"
     inkscape:connector-curvature="0"
     d="M 32,4 C 16.488,4 4,16.488 4,32 4,47.512 16.488,60 32,60 47.512,60 60,47.512 60,32 60,16.488 47.512,4 32,4 Z"
     id="path4" />
  <path
     style="opacity:0.2;fill:#ffffff"
     d="M 32 4 C 16.488443 4 4 16.488 4 32 C 4 32.113556 4.0112848 32.224032 4.0175781 32.335938 C 4.3691112 17.134181 16.711164 5 32 5 C 47.288835 5 59.630889 17.134181 59.982422 32.335938 C 59.988693 32.224113 60 32.113448 60 32 C 60 16.488 47.511556 4 32 4 z "
     id="path6" />
  <path
     style="fill:#fa5e5e"
     inkscape:connector-curvature="0"
     d="m 28,30 8,0 0,24 -8,0 z"
     id="path8" />
  <path
     style="fill:#fa5e5e"
     inkscape:connector-curvature="0"
     d="M 44.97,15.3726 50.628,21.03 33.656,38 28,32.344 Z"
     id="path10" />
  <path
     style="fill:#fa5e5e"
     inkscape:connector-curvature="0"
     d="M 19.0568,15.3726 13.4,21.03 30.37,38 36.028,32.344 Z"
     id="path12" />
  <path
     style="opacity:0.2"
     d="M 59.982422,32.664062 C 59.630879,47.865819 47.289272,60 32,60 16.712037,60 4.3711461,47.867898 4.0175781,32.667969 4.0114012,32.778588 4,32.887761 4,33 4,48.512 16.488,61 32,61 47.512,61 60,48.512 60,33 c 0,-0.113448 -0.01128,-0.224113 -0.01758,-0.335938 z"
     id="path14"
     inkscape:connector-curvature="0" />
</svg>
