<?xml version="1.0" encoding="UTF-8" standalone="no"?>
<svg
   xmlns:dc="http://purl.org/dc/elements/1.1/"
   xmlns:cc="http://creativecommons.org/ns#"
   xmlns:rdf="http://www.w3.org/1999/02/22-rdf-syntax-ns#"
   xmlns:svg="http://www.w3.org/2000/svg"
   xmlns="http://www.w3.org/2000/svg"
   xmlns:sodipodi="http://sodipodi.sourceforge.net/DTD/sodipodi-0.dtd"
   xmlns:inkscape="http://www.inkscape.org/namespaces/inkscape"
   height="64"
   width="64"
   version="1"
   id="svg2"
   inkscape:version="0.91 r13725"
   sodipodi:docname="zuluCrypt.svg">
  <metadata
     id="metadata26">
    <rdf:RDF>
      <cc:Work
         rdf:about="">
        <dc:format>image/svg+xml</dc:format>
        <dc:type
           rdf:resource="http://purl.org/dc/dcmitype/StillImage" />
        <dc:title></dc:title>
      </cc:Work>
    </rdf:RDF>
  </metadata>
  <defs
     id="defs24" />
  <sodipodi:namedview
     pagecolor="#ffffff"
     bordercolor="#666666"
     borderopacity="1"
     objecttolerance="10"
     gridtolerance="10"
     guidetolerance="10"
     inkscape:pageopacity="0"
     inkscape:pageshadow="2"
     inkscape:window-width="640"
     inkscape:window-height="480"
     id="namedview22"
     showgrid="false"
     inkscape:zoom="8.9375"
     inkscape:cx="24.216127"
     inkscape:cy="31.35356"
     inkscape:current-layer="svg2" />
  <rect
     style="fill:#d92929"
     transform="matrix(0,-1,-1,0,0,0)"
     rx="3"
     ry="3"
     height="56"
     width="56"
     y="-60"
     x="-60"
     id="rect4" />
  <path
     style="opacity:0.1;fill:#ffffff"
     d="M 7 4 C 5.338 4 4 5.338 4 7 L 4 8 C 4 6.338 5.338 5 7 5 L 57 5 C 58.662 5 60 6.338 60 8 L 60 7 C 60 5.338 58.662 4 57 4 L 7 4 z "
     id="path6" />
  <path
     style="opacity:0.2"
     d="m 4,57 0,1 c 0,1.662 1.338,3 3,3 l 50,0 c 1.662,0 3,-1.338 3,-3 l 0,-1 c 0,1.662 -1.338,3 -3,3 L 7,60 C 5.338,60 4,58.662 4,57 Z"
     id="path8"
     inkscape:connector-curvature="0" />
  <g
     style="opacity:0.2;fill:none;stroke:#000000;stroke-width:2;stroke-linecap:round;stroke-linejoin:round"
     transform="matrix(1.9986384,0,0,1.9990642,0.00689292,1.014854)"
     id="g10">
    <path
       inkscape:connector-curvature="0"
       d="m 6.0142,12.9 7.7,0 -7,9.1 7.7,0"
       id="path12" />
    <path
       inkscape:connector-curvature="0"
       d="m 25,22 c 0,0 -8.0377,0.3149 -8,-6 0.03774,-6.3149 8,-6 8,-6"
       id="path14" />
  </g>
  <g
     style="fill:none;stroke:#ff895e;stroke-width:2;stroke-linecap:round;stroke-linejoin:round"
     id="g16"
     transform="matrix(1.9986202,0,0,1.9990597,0.00712169,0.01495753)">
    <path
       inkscape:connector-curvature="0"
       d="m 6.0142,12.9 7.7,0 -7,9.1 7.7,0"
       id="path18" />
    <path
       inkscape:connector-curvature="0"
       d="m 25,22 c 0,0 -8.0377,0.3149 -8,-6 0.03774,-6.3149 8,-6 8,-6"
       id="path20" />
  </g>
</svg>
